<?xml version="1.0" encoding="UTF-8" standalone="no"?>
<!DOCTYPE svg PUBLIC "-//W3C//DTD SVG 1.1//EN"
 "http://www.w3.org/Graphics/SVG/1.1/DTD/svg11.dtd">
<!-- Generated by graphviz version 2.43.0 (0)
 -->
<!-- Title: thirdparty/RadioLib/include/RadioLib/protocols/ADSB/ADSB.h Pages: 1 -->
<svg width="405pt" height="335pt"
 viewBox="0.00 0.00 405.00 335.00" xmlns="http://www.w3.org/2000/svg" xmlns:xlink="http://www.w3.org/1999/xlink">
<g id="graph0" class="graph" transform="scale(1 1) rotate(0) translate(4 331)">
<title>thirdparty/RadioLib/include/RadioLib/protocols/ADSB/ADSB.h</title>
<!-- Node1 -->
<g id="Node000001" class="node">
<title>Node1</title>
<g id="a_Node000001"><a xlink:title=" ">
<polygon fill="#999999" stroke="#666666" points="238.5,-327 90.5,-327 90.5,-286 238.5,-286 238.5,-327"/>
<text text-anchor="start" x="98.5" y="-315" font-family="Helvetica,sans-Serif" font-size="10.00">thirdparty/RadioLib</text>
<text text-anchor="start" x="98.5" y="-304" font-family="Helvetica,sans-Serif" font-size="10.00">/include/RadioLib/protocols</text>
<text text-anchor="middle" x="164.5" y="-293" font-family="Helvetica,sans-Serif" font-size="10.00">/ADSB/ADSB.h</text>
</a>
</g>
</g>
<!-- Node2 -->
<g id="Node000002" class="node">
<title>Node2</title>
<g id="a_Node000002"><a xlink:href="TypeDef_8h.html" target="_top" xlink:title=" ">
<polygon fill="white" stroke="#666666" points="183,-129 100,-129 100,-110 183,-110 183,-129"/>
<text text-anchor="middle" x="141.5" y="-117" font-family="Helvetica,sans-Serif" font-size="10.00">../../TypeDef.h</text>
</a>
</g>
</g>
<!-- Node1&#45;&gt;Node2 -->
<g id="edge1_Node000001_Node000002" class="edge">
<title>Node1&#45;&gt;Node2</title>
<g id="a_edge1_Node000001_Node000002"><a xlink:title=" ">
<path fill="none" stroke="#63b8ff" d="M151.28,-285.88C145.18,-275.66 138.61,-262.67 135.5,-250 126.05,-211.52 132.44,-164.73 137.34,-139.25"/>
<polygon fill="#63b8ff" stroke="#63b8ff" points="140.84,-139.65 139.43,-129.15 133.98,-138.23 140.84,-139.65"/>
</a>
</g>
</g>
<!-- Node7 -->
<g id="Node000007" class="node">
<title>Node7</title>
<g id="a_Node000007"><a xlink:href="PhysicalLayer_8h.html" target="_top" xlink:title=" ">
<polygon fill="white" stroke="#666666" points="282,-250 145,-250 145,-220 282,-220 282,-250"/>
<text text-anchor="start" x="153" y="-238" font-family="Helvetica,sans-Serif" font-size="10.00">../PhysicalLayer/Physical</text>
<text text-anchor="middle" x="213.5" y="-227" font-family="Helvetica,sans-Serif" font-size="10.00">Layer.h</text>
</a>
</g>
</g>
<!-- Node1&#45;&gt;Node7 -->
<g id="edge7_Node000001_Node000007" class="edge">
<title>Node1&#45;&gt;Node7</title>
<g id="a_edge7_Node000001_Node000007"><a xlink:title=" ">
<path fill="none" stroke="#63b8ff" d="M178.41,-285.77C184.44,-277.22 191.52,-267.17 197.74,-258.35"/>
<polygon fill="#63b8ff" stroke="#63b8ff" points="200.7,-260.23 203.6,-250.04 194.98,-256.19 200.7,-260.23"/>
</a>
</g>
</g>
<!-- Node3 -->
<g id="Node000003" class="node">
<title>Node3</title>
<g id="a_Node000003"><a xlink:href="BuildOptUser_8h.html" target="_top" xlink:title=" ">
<polygon fill="white" stroke="#666666" points="89,-74 0,-74 0,-55 89,-55 89,-74"/>
<text text-anchor="middle" x="44.5" y="-62" font-family="Helvetica,sans-Serif" font-size="10.00">BuildOptUser.h</text>
</a>
</g>
</g>
<!-- Node2&#45;&gt;Node3 -->
<g id="edge2_Node000002_Node000003" class="edge">
<title>Node2&#45;&gt;Node3</title>
<g id="a_edge2_Node000002_Node000003"><a xlink:title=" ">
<path fill="none" stroke="#63b8ff" d="M125.92,-109.98C110.73,-101.69 87.4,-88.94 69.6,-79.22"/>
<polygon fill="#63b8ff" stroke="#63b8ff" points="70.82,-75.89 60.37,-74.17 67.47,-82.04 70.82,-75.89"/>
</a>
</g>
</g>
<!-- Node4 -->
<g id="Node000004" class="node">
<title>Node4</title>
<g id="a_Node000004"><a xlink:href="BuildOpt_8h.html" target="_top" xlink:title=" ">
<polygon fill="white" stroke="#666666" points="175.5,-74 107.5,-74 107.5,-55 175.5,-55 175.5,-74"/>
<text text-anchor="middle" x="141.5" y="-62" font-family="Helvetica,sans-Serif" font-size="10.00">BuildOpt.h</text>
</a>
</g>
</g>
<!-- Node2&#45;&gt;Node4 -->
<g id="edge3_Node000002_Node000004" class="edge">
<title>Node2&#45;&gt;Node4</title>
<g id="a_edge3_Node000002_Node000004"><a xlink:title=" ">
<path fill="none" stroke="#63b8ff" d="M136.33,-109.75C134.84,-102.8 134.4,-92.85 135.02,-84.13"/>
<polygon fill="#63b8ff" stroke="#63b8ff" points="138.51,-84.47 136.37,-74.09 131.57,-83.53 138.51,-84.47"/>
</a>
</g>
</g>
<!-- Node4&#45;&gt;Node2 -->
<g id="edge4_Node000004_Node000002" class="edge">
<title>Node4&#45;&gt;Node2</title>
<g id="a_edge4_Node000004_Node000002"><a xlink:title=" ">
<path fill="none" stroke="#63b8ff" d="M146.63,-74.09C148.14,-80.99 148.59,-90.93 147.99,-99.66"/>
<polygon fill="#63b8ff" stroke="#63b8ff" points="144.5,-99.38 146.67,-109.75 151.44,-100.29 144.5,-99.38"/>
</a>
</g>
</g>
<!-- Node5 -->
<g id="Node000005" class="node">
<title>Node5</title>
<g id="a_Node000005"><a xlink:title=" ">
<polygon fill="#e0e0e0" stroke="#999999" points="162.5,-19 112.5,-19 112.5,0 162.5,0 162.5,-19"/>
<text text-anchor="middle" x="137.5" y="-7" font-family="Helvetica,sans-Serif" font-size="10.00">stdio.h</text>
</a>
</g>
</g>
<!-- Node4&#45;&gt;Node5 -->
<g id="edge5_Node000004_Node000005" class="edge">
<title>Node4&#45;&gt;Node5</title>
<g id="a_edge5_Node000004_Node000005"><a xlink:title=" ">
<path fill="none" stroke="#63b8ff" d="M140.84,-54.75C140.32,-47.8 139.56,-37.85 138.91,-29.13"/>
<polygon fill="#63b8ff" stroke="#63b8ff" points="142.39,-28.8 138.15,-19.09 135.41,-29.32 142.39,-28.8"/>
</a>
</g>
</g>
<!-- Node6 -->
<g id="Node000006" class="node">
<title>Node6</title>
<g id="a_Node000006"><a xlink:title=" ">
<polygon fill="#e0e0e0" stroke="#999999" points="234,-19 181,-19 181,0 234,0 234,-19"/>
<text text-anchor="middle" x="207.5" y="-7" font-family="Helvetica,sans-Serif" font-size="10.00">stdint.h</text>
</a>
</g>
</g>
<!-- Node4&#45;&gt;Node6 -->
<g id="edge6_Node000004_Node000006" class="edge">
<title>Node4&#45;&gt;Node6</title>
<g id="a_edge6_Node000004_Node000006"><a xlink:title=" ">
<path fill="none" stroke="#63b8ff" d="M152.1,-54.98C161.96,-47.07 176.85,-35.11 188.72,-25.58"/>
<polygon fill="#63b8ff" stroke="#63b8ff" points="191.1,-28.16 196.7,-19.17 186.71,-22.7 191.1,-28.16"/>
</a>
</g>
</g>
<!-- Node7&#45;&gt;Node2 -->
<g id="edge8_Node000007_Node000002" class="edge">
<title>Node7&#45;&gt;Node2</title>
<g id="a_edge8_Node000007_Node000002"><a xlink:title=" ">
<path fill="none" stroke="#63b8ff" d="M200.76,-219.73C192.45,-210.04 181.67,-196.72 173.5,-184 164.03,-169.25 155.22,-151.32 149.25,-138.28"/>
<polygon fill="#63b8ff" stroke="#63b8ff" points="152.39,-136.73 145.11,-129.02 146,-139.58 152.39,-136.73"/>
</a>
</g>
</g>
<!-- Node8 -->
<g id="Node000008" class="node">
<title>Node8</title>
<g id="a_Node000008"><a xlink:href="Module_8h.html" target="_top" xlink:title=" ">
<polygon fill="white" stroke="#666666" points="262.5,-184 182.5,-184 182.5,-165 262.5,-165 262.5,-184"/>
<text text-anchor="middle" x="222.5" y="-172" font-family="Helvetica,sans-Serif" font-size="10.00">../../Module.h</text>
</a>
</g>
</g>
<!-- Node7&#45;&gt;Node8 -->
<g id="edge9_Node000007_Node000008" class="edge">
<title>Node7&#45;&gt;Node8</title>
<g id="a_edge9_Node000007_Node000008"><a xlink:title=" ">
<path fill="none" stroke="#63b8ff" d="M215.68,-219.84C216.87,-212.13 218.35,-202.49 219.63,-194.17"/>
<polygon fill="#63b8ff" stroke="#63b8ff" points="223.09,-194.68 221.15,-184.27 216.17,-193.62 223.09,-194.68"/>
</a>
</g>
</g>
<!-- Node8&#45;&gt;Node2 -->
<g id="edge10_Node000008_Node000002" class="edge">
<title>Node8&#45;&gt;Node2</title>
<g id="a_edge10_Node000008_Node000002"><a xlink:title=" ">
<path fill="none" stroke="#63b8ff" d="M209.49,-164.98C197.04,-156.84 178.04,-144.41 163.29,-134.76"/>
<polygon fill="#63b8ff" stroke="#63b8ff" points="165.04,-131.72 154.75,-129.17 161.2,-137.57 165.04,-131.72"/>
</a>
</g>
</g>
<!-- Node9 -->
<g id="Node000009" class="node">
<title>Node9</title>
<g id="a_Node000009"><a xlink:href="Hal_8h.html" target="_top" xlink:title=" ">
<polygon fill="white" stroke="#666666" points="243.5,-129 201.5,-129 201.5,-110 243.5,-110 243.5,-129"/>
<text text-anchor="middle" x="222.5" y="-117" font-family="Helvetica,sans-Serif" font-size="10.00">Hal.h</text>
</a>
</g>
</g>
<!-- Node8&#45;&gt;Node9 -->
<g id="edge11_Node000008_Node000009" class="edge">
<title>Node8&#45;&gt;Node9</title>
<g id="a_edge11_Node000008_Node000009"><a xlink:title=" ">
<path fill="none" stroke="#63b8ff" d="M222.5,-164.75C222.5,-157.8 222.5,-147.85 222.5,-139.13"/>
<polygon fill="#63b8ff" stroke="#63b8ff" points="226,-139.09 222.5,-129.09 219,-139.09 226,-139.09"/>
</a>
</g>
</g>
<!-- Node11 -->
<g id="Node000011" class="node">
<title>Node11</title>
<g id="a_Node000011"><a xlink:href="Utils_8h.html" target="_top" xlink:title=" ">
<polygon fill="white" stroke="#666666" points="342.5,-129 270.5,-129 270.5,-110 342.5,-110 342.5,-129"/>
<text text-anchor="middle" x="306.5" y="-117" font-family="Helvetica,sans-Serif" font-size="10.00">utils/Utils.h</text>
</a>
</g>
</g>
<!-- Node8&#45;&gt;Node11 -->
<g id="edge15_Node000008_Node000011" class="edge">
<title>Node8&#45;&gt;Node11</title>
<g id="a_edge15_Node000008_Node000011"><a xlink:title=" ">
<path fill="none" stroke="#63b8ff" d="M236,-164.98C248.9,-156.84 268.6,-144.41 283.9,-134.76"/>
<polygon fill="#63b8ff" stroke="#63b8ff" points="286.17,-137.47 292.76,-129.17 282.43,-131.55 286.17,-137.47"/>
</a>
</g>
</g>
<!-- Node9&#45;&gt;Node4 -->
<g id="edge14_Node000009_Node000004" class="edge">
<title>Node9&#45;&gt;Node4</title>
<g id="a_edge14_Node000009_Node000004"><a xlink:title=" ">
<path fill="none" stroke="#63b8ff" d="M209.49,-109.98C197.04,-101.84 178.04,-89.41 163.29,-79.76"/>
<polygon fill="#63b8ff" stroke="#63b8ff" points="165.04,-76.72 154.75,-74.17 161.2,-82.57 165.04,-76.72"/>
</a>
</g>
</g>
<!-- Node9&#45;&gt;Node6 -->
<g id="edge12_Node000009_Node000006" class="edge">
<title>Node9&#45;&gt;Node6</title>
<g id="a_edge12_Node000009_Node000006"><a xlink:title=" ">
<path fill="none" stroke="#63b8ff" d="M221.27,-109.66C218.84,-92.17 213.38,-52.8 210.11,-29.27"/>
<polygon fill="#63b8ff" stroke="#63b8ff" points="213.55,-28.58 208.7,-19.16 206.61,-29.54 213.55,-28.58"/>
</a>
</g>
</g>
<!-- Node10 -->
<g id="Node000010" class="node">
<title>Node10</title>
<g id="a_Node000010"><a xlink:title=" ">
<polygon fill="#e0e0e0" stroke="#999999" points="287.5,-74 231.5,-74 231.5,-55 287.5,-55 287.5,-74"/>
<text text-anchor="middle" x="259.5" y="-62" font-family="Helvetica,sans-Serif" font-size="10.00">stddef.h</text>
</a>
</g>
</g>
<!-- Node9&#45;&gt;Node10 -->
<g id="edge13_Node000009_Node000010" class="edge">
<title>Node9&#45;&gt;Node10</title>
<g id="a_edge13_Node000009_Node000010"><a xlink:title=" ">
<path fill="none" stroke="#63b8ff" d="M228.61,-109.75C233.78,-102.34 241.35,-91.5 247.69,-82.41"/>
<polygon fill="#63b8ff" stroke="#63b8ff" points="250.65,-84.29 253.5,-74.09 244.91,-80.29 250.65,-84.29"/>
</a>
</g>
</g>
<!-- Node11&#45;&gt;Node4 -->
<g id="edge18_Node000011_Node000004" class="edge">
<title>Node11&#45;&gt;Node4</title>
<g id="a_edge18_Node000011_Node000004"><a xlink:title=" ">
<path fill="none" stroke="#63b8ff" d="M279.99,-109.98C252.29,-101.09 208.64,-87.07 177.76,-77.15"/>
<polygon fill="#63b8ff" stroke="#63b8ff" points="178.81,-73.81 168.22,-74.08 176.67,-80.47 178.81,-73.81"/>
</a>
</g>
</g>
<!-- Node11&#45;&gt;Node6 -->
<g id="edge16_Node000011_Node000006" class="edge">
<title>Node11&#45;&gt;Node6</title>
<g id="a_edge16_Node000011_Node000006"><a xlink:title=" ">
<path fill="none" stroke="#63b8ff" d="M307.48,-109.76C308.49,-96.57 308.49,-71.39 296.5,-55 283.79,-37.63 262.37,-26.62 243.72,-19.91"/>
<polygon fill="#63b8ff" stroke="#63b8ff" points="244.6,-16.51 234.01,-16.69 242.4,-23.15 244.6,-16.51"/>
</a>
</g>
</g>
<!-- Node12 -->
<g id="Node000012" class="node">
<title>Node12</title>
<g id="a_Node000012"><a xlink:title=" ">
<polygon fill="#e0e0e0" stroke="#999999" points="397,-74 344,-74 344,-55 397,-55 397,-74"/>
<text text-anchor="middle" x="370.5" y="-62" font-family="Helvetica,sans-Serif" font-size="10.00">stdlib.h</text>
</a>
</g>
</g>
<!-- Node11&#45;&gt;Node12 -->
<g id="edge17_Node000011_Node000012" class="edge">
<title>Node11&#45;&gt;Node12</title>
<g id="a_edge17_Node000011_Node000012"><a xlink:title=" ">
<path fill="none" stroke="#63b8ff" d="M316.78,-109.98C326.34,-102.07 340.78,-90.11 352.28,-80.58"/>
<polygon fill="#63b8ff" stroke="#63b8ff" points="354.56,-83.24 360.03,-74.17 350.1,-77.85 354.56,-83.24"/>
</a>
</g>
</g>
</g>
</svg>
