<?xml version="1.0" encoding="UTF-8" standalone="no"?>
<!DOCTYPE svg PUBLIC "-//W3C//DTD SVG 1.1//EN"
 "http://www.w3.org/Graphics/SVG/1.1/DTD/svg11.dtd">
<!-- Generated by graphviz version 2.43.0 (0)
 -->
<!-- Title: thirdparty/RadioLib/include/RadioLib/protocols/AFSK/AFSK.h Pages: 1 -->
<svg width="406pt" height="335pt"
 viewBox="0.00 0.00 405.50 335.00" xmlns="http://www.w3.org/2000/svg" xmlns:xlink="http://www.w3.org/1999/xlink">
<g id="graph0" class="graph" transform="scale(1 1) rotate(0) translate(4 331)">
<title>thirdparty/RadioLib/include/RadioLib/protocols/AFSK/AFSK.h</title>
<!-- Node1 -->
<g id="Node000001" class="node">
<title>Node1</title>
<g id="a_Node000001"><a xlink:title=" ">
<polygon fill="#999999" stroke="#666666" points="259.5,-327 111.5,-327 111.5,-286 259.5,-286 259.5,-327"/>
<text text-anchor="start" x="119.5" y="-315" font-family="Helvetica,sans-Serif" font-size="10.00">thirdparty/RadioLib</text>
<text text-anchor="start" x="119.5" y="-304" font-family="Helvetica,sans-Serif" font-size="10.00">/include/RadioLib/protocols</text>
<text text-anchor="middle" x="185.5" y="-293" font-family="Helvetica,sans-Serif" font-size="10.00">/AFSK/AFSK.h</text>
</a>
</g>
</g>
<!-- Node2 -->
<g id="Node000002" class="node">
<title>Node2</title>
<g id="a_Node000002"><a xlink:href="TypeDef_8h.html" target="_top" xlink:title=" ">
<polygon fill="white" stroke="#666666" points="183,-129 100,-129 100,-110 183,-110 183,-129"/>
<text text-anchor="middle" x="141.5" y="-117" font-family="Helvetica,sans-Serif" font-size="10.00">../../TypeDef.h</text>
</a>
</g>
</g>
<!-- Node1&#45;&gt;Node2 -->
<g id="edge1_Node000001_Node000002" class="edge">
<title>Node1&#45;&gt;Node2</title>
<g id="a_edge1_Node000001_Node000002"><a xlink:title=" ">
<path fill="none" stroke="#63b8ff" d="M143.22,-285.77C129.23,-276.94 115.27,-265.07 107.5,-250 88.23,-212.63 113.17,-163.41 129.46,-137.75"/>
<polygon fill="#63b8ff" stroke="#63b8ff" points="132.56,-139.41 135.17,-129.14 126.73,-135.54 132.56,-139.41"/>
</a>
</g>
</g>
<!-- Node7 -->
<g id="Node000007" class="node">
<title>Node7</title>
<g id="a_Node000007"><a xlink:href="Module_8h.html" target="_top" xlink:title=" ">
<polygon fill="white" stroke="#666666" points="277.5,-184 197.5,-184 197.5,-165 277.5,-165 277.5,-184"/>
<text text-anchor="middle" x="237.5" y="-172" font-family="Helvetica,sans-Serif" font-size="10.00">../../Module.h</text>
</a>
</g>
</g>
<!-- Node1&#45;&gt;Node7 -->
<g id="edge7_Node000001_Node000007" class="edge">
<title>Node1&#45;&gt;Node7</title>
<g id="a_edge7_Node000001_Node000007"><a xlink:title=" ">
<path fill="none" stroke="#63b8ff" d="M227.78,-285.77C241.77,-276.94 255.73,-265.07 263.5,-250 273.26,-231.07 261.58,-207.65 250.89,-192.18"/>
<polygon fill="#63b8ff" stroke="#63b8ff" points="253.66,-190.03 244.89,-184.08 248.03,-194.2 253.66,-190.03"/>
</a>
</g>
</g>
<!-- Node12 -->
<g id="Node000012" class="node">
<title>Node12</title>
<g id="a_Node000012"><a xlink:href="PhysicalLayer_8h.html" target="_top" xlink:title=" ">
<polygon fill="white" stroke="#666666" points="254,-250 117,-250 117,-220 254,-220 254,-250"/>
<text text-anchor="start" x="125" y="-238" font-family="Helvetica,sans-Serif" font-size="10.00">../PhysicalLayer/Physical</text>
<text text-anchor="middle" x="185.5" y="-227" font-family="Helvetica,sans-Serif" font-size="10.00">Layer.h</text>
</a>
</g>
</g>
<!-- Node1&#45;&gt;Node12 -->
<g id="edge17_Node000001_Node000012" class="edge">
<title>Node1&#45;&gt;Node12</title>
<g id="a_edge17_Node000001_Node000012"><a xlink:title=" ">
<path fill="none" stroke="#63b8ff" d="M185.5,-285.77C185.5,-277.85 185.5,-268.63 185.5,-260.3"/>
<polygon fill="#63b8ff" stroke="#63b8ff" points="189,-260.04 185.5,-250.04 182,-260.04 189,-260.04"/>
</a>
</g>
</g>
<!-- Node3 -->
<g id="Node000003" class="node">
<title>Node3</title>
<g id="a_Node000003"><a xlink:href="BuildOptUser_8h.html" target="_top" xlink:title=" ">
<polygon fill="white" stroke="#666666" points="89,-74 0,-74 0,-55 89,-55 89,-74"/>
<text text-anchor="middle" x="44.5" y="-62" font-family="Helvetica,sans-Serif" font-size="10.00">BuildOptUser.h</text>
</a>
</g>
</g>
<!-- Node2&#45;&gt;Node3 -->
<g id="edge2_Node000002_Node000003" class="edge">
<title>Node2&#45;&gt;Node3</title>
<g id="a_edge2_Node000002_Node000003"><a xlink:title=" ">
<path fill="none" stroke="#63b8ff" d="M125.92,-109.98C110.73,-101.69 87.4,-88.94 69.6,-79.22"/>
<polygon fill="#63b8ff" stroke="#63b8ff" points="70.82,-75.89 60.37,-74.17 67.47,-82.04 70.82,-75.89"/>
</a>
</g>
</g>
<!-- Node4 -->
<g id="Node000004" class="node">
<title>Node4</title>
<g id="a_Node000004"><a xlink:href="BuildOpt_8h.html" target="_top" xlink:title=" ">
<polygon fill="white" stroke="#666666" points="175.5,-74 107.5,-74 107.5,-55 175.5,-55 175.5,-74"/>
<text text-anchor="middle" x="141.5" y="-62" font-family="Helvetica,sans-Serif" font-size="10.00">BuildOpt.h</text>
</a>
</g>
</g>
<!-- Node2&#45;&gt;Node4 -->
<g id="edge3_Node000002_Node000004" class="edge">
<title>Node2&#45;&gt;Node4</title>
<g id="a_edge3_Node000002_Node000004"><a xlink:title=" ">
<path fill="none" stroke="#63b8ff" d="M136.33,-109.75C134.84,-102.8 134.4,-92.85 135.02,-84.13"/>
<polygon fill="#63b8ff" stroke="#63b8ff" points="138.51,-84.47 136.37,-74.09 131.57,-83.53 138.51,-84.47"/>
</a>
</g>
</g>
<!-- Node4&#45;&gt;Node2 -->
<g id="edge4_Node000004_Node000002" class="edge">
<title>Node4&#45;&gt;Node2</title>
<g id="a_edge4_Node000004_Node000002"><a xlink:title=" ">
<path fill="none" stroke="#63b8ff" d="M146.63,-74.09C148.14,-80.99 148.59,-90.93 147.99,-99.66"/>
<polygon fill="#63b8ff" stroke="#63b8ff" points="144.5,-99.38 146.67,-109.75 151.44,-100.29 144.5,-99.38"/>
</a>
</g>
</g>
<!-- Node5 -->
<g id="Node000005" class="node">
<title>Node5</title>
<g id="a_Node000005"><a xlink:title=" ">
<polygon fill="#e0e0e0" stroke="#999999" points="162.5,-19 112.5,-19 112.5,0 162.5,0 162.5,-19"/>
<text text-anchor="middle" x="137.5" y="-7" font-family="Helvetica,sans-Serif" font-size="10.00">stdio.h</text>
</a>
</g>
</g>
<!-- Node4&#45;&gt;Node5 -->
<g id="edge5_Node000004_Node000005" class="edge">
<title>Node4&#45;&gt;Node5</title>
<g id="a_edge5_Node000004_Node000005"><a xlink:title=" ">
<path fill="none" stroke="#63b8ff" d="M140.84,-54.75C140.32,-47.8 139.56,-37.85 138.91,-29.13"/>
<polygon fill="#63b8ff" stroke="#63b8ff" points="142.39,-28.8 138.15,-19.09 135.41,-29.32 142.39,-28.8"/>
</a>
</g>
</g>
<!-- Node6 -->
<g id="Node000006" class="node">
<title>Node6</title>
<g id="a_Node000006"><a xlink:title=" ">
<polygon fill="#e0e0e0" stroke="#999999" points="234,-19 181,-19 181,0 234,0 234,-19"/>
<text text-anchor="middle" x="207.5" y="-7" font-family="Helvetica,sans-Serif" font-size="10.00">stdint.h</text>
</a>
</g>
</g>
<!-- Node4&#45;&gt;Node6 -->
<g id="edge6_Node000004_Node000006" class="edge">
<title>Node4&#45;&gt;Node6</title>
<g id="a_edge6_Node000004_Node000006"><a xlink:title=" ">
<path fill="none" stroke="#63b8ff" d="M152.1,-54.98C161.96,-47.07 176.85,-35.11 188.72,-25.58"/>
<polygon fill="#63b8ff" stroke="#63b8ff" points="191.1,-28.16 196.7,-19.17 186.71,-22.7 191.1,-28.16"/>
</a>
</g>
</g>
<!-- Node7&#45;&gt;Node2 -->
<g id="edge8_Node000007_Node000002" class="edge">
<title>Node7&#45;&gt;Node2</title>
<g id="a_edge8_Node000007_Node000002"><a xlink:title=" ">
<path fill="none" stroke="#63b8ff" d="M222.08,-164.98C207.05,-156.69 183.96,-143.94 166.34,-134.22"/>
<polygon fill="#63b8ff" stroke="#63b8ff" points="167.65,-130.94 157.2,-129.17 164.27,-137.07 167.65,-130.94"/>
</a>
</g>
</g>
<!-- Node8 -->
<g id="Node000008" class="node">
<title>Node8</title>
<g id="a_Node000008"><a xlink:href="Hal_8h.html" target="_top" xlink:title=" ">
<polygon fill="white" stroke="#666666" points="333.5,-129 291.5,-129 291.5,-110 333.5,-110 333.5,-129"/>
<text text-anchor="middle" x="312.5" y="-117" font-family="Helvetica,sans-Serif" font-size="10.00">Hal.h</text>
</a>
</g>
</g>
<!-- Node7&#45;&gt;Node8 -->
<g id="edge9_Node000007_Node000008" class="edge">
<title>Node7&#45;&gt;Node8</title>
<g id="a_edge9_Node000007_Node000008"><a xlink:title=" ">
<path fill="none" stroke="#63b8ff" d="M249.55,-164.98C260.96,-156.92 278.33,-144.65 291.93,-135.03"/>
<polygon fill="#63b8ff" stroke="#63b8ff" points="294.08,-137.8 300.23,-129.17 290.04,-132.08 294.08,-137.8"/>
</a>
</g>
</g>
<!-- Node10 -->
<g id="Node000010" class="node">
<title>Node10</title>
<g id="a_Node000010"><a xlink:href="Utils_8h.html" target="_top" xlink:title=" ">
<polygon fill="white" stroke="#666666" points="273.5,-129 201.5,-129 201.5,-110 273.5,-110 273.5,-129"/>
<text text-anchor="middle" x="237.5" y="-117" font-family="Helvetica,sans-Serif" font-size="10.00">utils/Utils.h</text>
</a>
</g>
</g>
<!-- Node7&#45;&gt;Node10 -->
<g id="edge13_Node000007_Node000010" class="edge">
<title>Node7&#45;&gt;Node10</title>
<g id="a_edge13_Node000007_Node000010"><a xlink:title=" ">
<path fill="none" stroke="#63b8ff" d="M237.5,-164.75C237.5,-157.8 237.5,-147.85 237.5,-139.13"/>
<polygon fill="#63b8ff" stroke="#63b8ff" points="241,-139.09 237.5,-129.09 234,-139.09 241,-139.09"/>
</a>
</g>
</g>
<!-- Node8&#45;&gt;Node4 -->
<g id="edge12_Node000008_Node000004" class="edge">
<title>Node8&#45;&gt;Node4</title>
<g id="a_edge12_Node000008_Node000004"><a xlink:title=" ">
<path fill="none" stroke="#63b8ff" d="M291.19,-111.89C263.08,-103.18 213.14,-87.71 178.73,-77.04"/>
<polygon fill="#63b8ff" stroke="#63b8ff" points="179.62,-73.65 169.03,-74.03 177.54,-80.34 179.62,-73.65"/>
</a>
</g>
</g>
<!-- Node8&#45;&gt;Node6 -->
<g id="edge10_Node000008_Node000006" class="edge">
<title>Node8&#45;&gt;Node6</title>
<g id="a_edge10_Node000008_Node000006"><a xlink:title=" ">
<path fill="none" stroke="#63b8ff" d="M312.17,-109.69C311.25,-96.42 307.73,-71.12 294.5,-55 281.52,-39.18 261.45,-28.38 243.85,-21.39"/>
<polygon fill="#63b8ff" stroke="#63b8ff" points="244.99,-18.08 234.39,-17.89 242.56,-24.65 244.99,-18.08"/>
</a>
</g>
</g>
<!-- Node9 -->
<g id="Node000009" class="node">
<title>Node9</title>
<g id="a_Node000009"><a xlink:title=" ">
<polygon fill="#e0e0e0" stroke="#999999" points="397.5,-74 341.5,-74 341.5,-55 397.5,-55 397.5,-74"/>
<text text-anchor="middle" x="369.5" y="-62" font-family="Helvetica,sans-Serif" font-size="10.00">stddef.h</text>
</a>
</g>
</g>
<!-- Node8&#45;&gt;Node9 -->
<g id="edge11_Node000008_Node000009" class="edge">
<title>Node8&#45;&gt;Node9</title>
<g id="a_edge11_Node000008_Node000009"><a xlink:title=" ">
<path fill="none" stroke="#63b8ff" d="M321.66,-109.98C330,-102.23 342.53,-90.58 352.68,-81.14"/>
<polygon fill="#63b8ff" stroke="#63b8ff" points="355.24,-83.54 360.18,-74.17 350.47,-78.42 355.24,-83.54"/>
</a>
</g>
</g>
<!-- Node10&#45;&gt;Node4 -->
<g id="edge16_Node000010_Node000004" class="edge">
<title>Node10&#45;&gt;Node4</title>
<g id="a_edge16_Node000010_Node000004"><a xlink:title=" ">
<path fill="none" stroke="#63b8ff" d="M222.08,-109.98C207.05,-101.69 183.96,-88.94 166.34,-79.22"/>
<polygon fill="#63b8ff" stroke="#63b8ff" points="167.65,-75.94 157.2,-74.17 164.27,-82.07 167.65,-75.94"/>
</a>
</g>
</g>
<!-- Node10&#45;&gt;Node6 -->
<g id="edge14_Node000010_Node000006" class="edge">
<title>Node10&#45;&gt;Node6</title>
<g id="a_edge14_Node000010_Node000006"><a xlink:title=" ">
<path fill="none" stroke="#63b8ff" d="M234.56,-109.68C231.62,-100.73 227.03,-86.47 223.5,-74 219.24,-58.94 214.93,-41.71 211.86,-29.01"/>
<polygon fill="#63b8ff" stroke="#63b8ff" points="215.24,-28.08 209.52,-19.17 208.43,-29.71 215.24,-28.08"/>
</a>
</g>
</g>
<!-- Node11 -->
<g id="Node000011" class="node">
<title>Node11</title>
<g id="a_Node000011"><a xlink:title=" ">
<polygon fill="#e0e0e0" stroke="#999999" points="285,-74 232,-74 232,-55 285,-55 285,-74"/>
<text text-anchor="middle" x="258.5" y="-62" font-family="Helvetica,sans-Serif" font-size="10.00">stdlib.h</text>
</a>
</g>
</g>
<!-- Node10&#45;&gt;Node11 -->
<g id="edge15_Node000010_Node000011" class="edge">
<title>Node10&#45;&gt;Node11</title>
<g id="a_edge15_Node000010_Node000011"><a xlink:title=" ">
<path fill="none" stroke="#63b8ff" d="M240.97,-109.75C243.78,-102.65 247.84,-92.4 251.35,-83.56"/>
<polygon fill="#63b8ff" stroke="#63b8ff" points="254.67,-84.68 255.1,-74.09 248.16,-82.1 254.67,-84.68"/>
</a>
</g>
</g>
<!-- Node12&#45;&gt;Node2 -->
<g id="edge18_Node000012_Node000002" class="edge">
<title>Node12&#45;&gt;Node2</title>
<g id="a_edge18_Node000012_Node000002"><a xlink:title=" ">
<path fill="none" stroke="#63b8ff" d="M179.93,-219.63C171.94,-199.03 157.25,-161.12 148.53,-138.63"/>
<polygon fill="#63b8ff" stroke="#63b8ff" points="151.76,-137.29 144.88,-129.23 145.24,-139.82 151.76,-137.29"/>
</a>
</g>
</g>
<!-- Node12&#45;&gt;Node7 -->
<g id="edge19_Node000012_Node000007" class="edge">
<title>Node12&#45;&gt;Node7</title>
<g id="a_edge19_Node000012_Node000007"><a xlink:title=" ">
<path fill="none" stroke="#63b8ff" d="M198.09,-219.84C205.56,-211.43 215.06,-200.74 222.87,-191.96"/>
<polygon fill="#63b8ff" stroke="#63b8ff" points="225.68,-194.07 229.71,-184.27 220.45,-189.41 225.68,-194.07"/>
</a>
</g>
</g>
</g>
</svg>
