<?xml version="1.0" encoding="UTF-8" standalone="no"?>
<!DOCTYPE svg PUBLIC "-//W3C//DTD SVG 1.1//EN"
 "http://www.w3.org/Graphics/SVG/1.1/DTD/svg11.dtd">
<!-- Generated by graphviz version 2.43.0 (0)
 -->
<!-- Title: thirdparty/RadioLib/include/RadioLib/protocols/AFSK/AFSK.h Pages: 1 -->
<svg width="789pt" height="478pt"
 viewBox="0.00 0.00 789.00 478.00" xmlns="http://www.w3.org/2000/svg" xmlns:xlink="http://www.w3.org/1999/xlink">
<g id="graph0" class="graph" transform="scale(1 1) rotate(0) translate(4 474)">
<title>thirdparty/RadioLib/include/RadioLib/protocols/AFSK/AFSK.h</title>
<!-- Node1 -->
<g id="Node000001" class="node">
<title>Node1</title>
<g id="a_Node000001"><a xlink:title=" ">
<polygon fill="#999999" stroke="#666666" points="449,-470 301,-470 301,-429 449,-429 449,-470"/>
<text text-anchor="start" x="309" y="-458" font-family="Helvetica,sans-Serif" font-size="10.00">thirdparty/RadioLib</text>
<text text-anchor="start" x="309" y="-447" font-family="Helvetica,sans-Serif" font-size="10.00">/include/RadioLib/protocols</text>
<text text-anchor="middle" x="375" y="-436" font-family="Helvetica,sans-Serif" font-size="10.00">/AFSK/AFSK.h</text>
</a>
</g>
</g>
<!-- Node2 -->
<g id="Node000002" class="node">
<title>Node2</title>
<g id="a_Node000002"><a xlink:href="RadioLib_8h.html" target="_top" xlink:title=" ">
<polygon fill="white" stroke="#666666" points="364,-162 210,-162 210,-132 364,-132 364,-162"/>
<text text-anchor="start" x="218" y="-150" font-family="Helvetica,sans-Serif" font-size="10.00">thirdparty/RadioLib</text>
<text text-anchor="middle" x="287" y="-139" font-family="Helvetica,sans-Serif" font-size="10.00">/include/RadioLib/RadioLib.h</text>
</a>
</g>
</g>
<!-- Node1&#45;&gt;Node2 -->
<g id="edge1_Node000001_Node000002" class="edge">
<title>Node1&#45;&gt;Node2</title>
<g id="a_edge1_Node000001_Node000002"><a xlink:title=" ">
<path fill="none" stroke="#63b8ff" d="M290.92,-444.51C232.35,-438.82 153.92,-425.24 92,-393 48.23,-370.21 31.32,-361.41 12,-316 -9.06,-266.49 -1.58,-233.32 39,-198 64.18,-176.08 146.89,-162.57 209.93,-155.2"/>
<polygon fill="#63b8ff" stroke="#63b8ff" points="290.61,-447.99 300.88,-445.42 291.24,-441.02 290.61,-447.99"/>
</a>
</g>
</g>
<!-- Node6 -->
<g id="Node000006" class="node">
<title>Node6</title>
<g id="a_Node000006"><a xlink:href="AX25_8h.html" target="_top" xlink:title=" ">
<polygon fill="white" stroke="#666666" points="169,-316 21,-316 21,-275 169,-275 169,-316"/>
<text text-anchor="start" x="29" y="-304" font-family="Helvetica,sans-Serif" font-size="10.00">thirdparty/RadioLib</text>
<text text-anchor="start" x="29" y="-293" font-family="Helvetica,sans-Serif" font-size="10.00">/include/RadioLib/protocols</text>
<text text-anchor="middle" x="95" y="-282" font-family="Helvetica,sans-Serif" font-size="10.00">/AX25/AX25.h</text>
</a>
</g>
</g>
<!-- Node1&#45;&gt;Node6 -->
<g id="edge5_Node000001_Node000006" class="edge">
<title>Node1&#45;&gt;Node6</title>
<g id="a_edge5_Node000001_Node000006"><a xlink:title=" ">
<path fill="none" stroke="#63b8ff" d="M290.73,-440.61C224.12,-432.61 138.43,-417.8 114,-393 93.99,-372.68 92,-337.81 93.04,-316.01"/>
<polygon fill="#63b8ff" stroke="#63b8ff" points="290.49,-444.11 300.83,-441.79 291.3,-437.15 290.49,-444.11"/>
</a>
</g>
</g>
<!-- Node8 -->
<g id="Node000008" class="node">
<title>Node8</title>
<g id="a_Node000008"><a xlink:href="BellModem_8h.html" target="_top" xlink:title=" ">
<polygon fill="white" stroke="#666666" points="271,-393 123,-393 123,-352 271,-352 271,-393"/>
<text text-anchor="start" x="131" y="-381" font-family="Helvetica,sans-Serif" font-size="10.00">thirdparty/RadioLib</text>
<text text-anchor="start" x="131" y="-370" font-family="Helvetica,sans-Serif" font-size="10.00">/include/RadioLib/protocols</text>
<text text-anchor="middle" x="197" y="-359" font-family="Helvetica,sans-Serif" font-size="10.00">/BellModem/BellModem.h</text>
</a>
</g>
</g>
<!-- Node1&#45;&gt;Node8 -->
<g id="edge9_Node000001_Node000008" class="edge">
<title>Node1&#45;&gt;Node8</title>
<g id="a_edge9_Node000001_Node000008"><a xlink:title=" ">
<path fill="none" stroke="#63b8ff" d="M319.22,-425C294.84,-414.72 266.58,-402.82 243.38,-393.04"/>
<polygon fill="#63b8ff" stroke="#63b8ff" points="318.12,-428.33 328.7,-428.99 320.84,-421.88 318.12,-428.33"/>
</a>
</g>
</g>
<!-- Node9 -->
<g id="Node000009" class="node">
<title>Node9</title>
<g id="a_Node000009"><a xlink:href="FSK4_8h.html" target="_top" xlink:title=" ">
<polygon fill="white" stroke="#666666" points="373,-316 225,-316 225,-275 373,-275 373,-316"/>
<text text-anchor="start" x="233" y="-304" font-family="Helvetica,sans-Serif" font-size="10.00">thirdparty/RadioLib</text>
<text text-anchor="start" x="233" y="-293" font-family="Helvetica,sans-Serif" font-size="10.00">/include/RadioLib/protocols</text>
<text text-anchor="middle" x="299" y="-282" font-family="Helvetica,sans-Serif" font-size="10.00">/FSK4/FSK4.h</text>
</a>
</g>
</g>
<!-- Node1&#45;&gt;Node9 -->
<g id="edge12_Node000001_Node000009" class="edge">
<title>Node1&#45;&gt;Node9</title>
<g id="a_edge12_Node000001_Node000009"><a xlink:title=" ">
<path fill="none" stroke="#63b8ff" d="M360.63,-419.76C345.53,-389.57 322.18,-342.87 308.98,-316.47"/>
<polygon fill="#63b8ff" stroke="#63b8ff" points="357.62,-421.56 365.22,-428.94 363.88,-418.43 357.62,-421.56"/>
</a>
</g>
</g>
<!-- Node10 -->
<g id="Node000010" class="node">
<title>Node10</title>
<g id="a_Node000010"><a xlink:href="Hellschreiber_8h.html" target="_top" xlink:title=" ">
<polygon fill="white" stroke="#666666" points="475,-239 315,-239 315,-198 475,-198 475,-239"/>
<text text-anchor="start" x="323" y="-227" font-family="Helvetica,sans-Serif" font-size="10.00">thirdparty/RadioLib</text>
<text text-anchor="start" x="323" y="-216" font-family="Helvetica,sans-Serif" font-size="10.00">/include/RadioLib/protocols</text>
<text text-anchor="middle" x="395" y="-205" font-family="Helvetica,sans-Serif" font-size="10.00">/Hellschreiber/Hellschreiber.h</text>
</a>
</g>
</g>
<!-- Node1&#45;&gt;Node10 -->
<g id="edge14_Node000001_Node000010" class="edge">
<title>Node1&#45;&gt;Node10</title>
<g id="a_edge14_Node000001_Node000010"><a xlink:title=" ">
<path fill="none" stroke="#63b8ff" d="M377.6,-418.73C381.75,-371.23 389.75,-279.57 393.27,-239.3"/>
<polygon fill="#63b8ff" stroke="#63b8ff" points="374.09,-418.71 376.7,-428.98 381.06,-419.32 374.09,-418.71"/>
</a>
</g>
</g>
<!-- Node11 -->
<g id="Node000011" class="node">
<title>Node11</title>
<g id="a_Node000011"><a xlink:href="Morse_8h.html" target="_top" xlink:title=" ">
<polygon fill="white" stroke="#666666" points="577,-316 429,-316 429,-275 577,-275 577,-316"/>
<text text-anchor="start" x="437" y="-304" font-family="Helvetica,sans-Serif" font-size="10.00">thirdparty/RadioLib</text>
<text text-anchor="start" x="437" y="-293" font-family="Helvetica,sans-Serif" font-size="10.00">/include/RadioLib/protocols</text>
<text text-anchor="middle" x="503" y="-282" font-family="Helvetica,sans-Serif" font-size="10.00">/Morse/Morse.h</text>
</a>
</g>
</g>
<!-- Node1&#45;&gt;Node11 -->
<g id="edge16_Node000001_Node000011" class="edge">
<title>Node1&#45;&gt;Node11</title>
<g id="a_edge16_Node000001_Node000011"><a xlink:title=" ">
<path fill="none" stroke="#63b8ff" d="M398.22,-420.93C423.6,-390.78 463.66,-343.21 486.18,-316.47"/>
<polygon fill="#63b8ff" stroke="#63b8ff" points="395.24,-419.04 391.47,-428.94 400.59,-423.55 395.24,-419.04"/>
</a>
</g>
</g>
<!-- Node12 -->
<g id="Node000012" class="node">
<title>Node12</title>
<g id="a_Node000012"><a xlink:href="RTTY_8h.html" target="_top" xlink:title=" ">
<polygon fill="white" stroke="#666666" points="679,-239 531,-239 531,-198 679,-198 679,-239"/>
<text text-anchor="start" x="539" y="-227" font-family="Helvetica,sans-Serif" font-size="10.00">thirdparty/RadioLib</text>
<text text-anchor="start" x="539" y="-216" font-family="Helvetica,sans-Serif" font-size="10.00">/include/RadioLib/protocols</text>
<text text-anchor="middle" x="605" y="-205" font-family="Helvetica,sans-Serif" font-size="10.00">/RTTY/RTTY.h</text>
</a>
</g>
</g>
<!-- Node1&#45;&gt;Node12 -->
<g id="edge18_Node000001_Node000012" class="edge">
<title>Node1&#45;&gt;Node12</title>
<g id="a_edge18_Node000001_Node000012"><a xlink:title=" ">
<path fill="none" stroke="#63b8ff" d="M438.79,-424.86C486.82,-403.71 550.28,-367.96 586,-316 601.77,-293.06 605.16,-260.21 605.54,-239.37"/>
<polygon fill="#63b8ff" stroke="#63b8ff" points="437.21,-421.73 429.41,-428.9 439.98,-428.16 437.21,-421.73"/>
</a>
</g>
</g>
<!-- Node13 -->
<g id="Node000013" class="node">
<title>Node13</title>
<g id="a_Node000013"><a xlink:href="SSTV_8h.html" target="_top" xlink:title=" ">
<polygon fill="white" stroke="#666666" points="781,-393 633,-393 633,-352 781,-352 781,-393"/>
<text text-anchor="start" x="641" y="-381" font-family="Helvetica,sans-Serif" font-size="10.00">thirdparty/RadioLib</text>
<text text-anchor="start" x="641" y="-370" font-family="Helvetica,sans-Serif" font-size="10.00">/include/RadioLib/protocols</text>
<text text-anchor="middle" x="707" y="-359" font-family="Helvetica,sans-Serif" font-size="10.00">/SSTV/SSTV.h</text>
</a>
</g>
</g>
<!-- Node1&#45;&gt;Node13 -->
<g id="edge20_Node000001_Node000013" class="edge">
<title>Node1&#45;&gt;Node13</title>
<g id="a_edge20_Node000001_Node000013"><a xlink:title=" ">
<path fill="none" stroke="#63b8ff" d="M458.91,-429.54C512.48,-417.44 581.29,-401.9 632.85,-390.25"/>
<polygon fill="#63b8ff" stroke="#63b8ff" points="458.08,-426.14 449.09,-431.76 459.62,-432.97 458.08,-426.14"/>
</a>
</g>
</g>
<!-- Node3 -->
<g id="Node000003" class="node">
<title>Node3</title>
<g id="a_Node000003"><a xlink:href="PiHal_8h.html" target="_top" xlink:title=" ">
<polygon fill="white" stroke="#666666" points="346,-96 228,-96 228,-55 346,-55 346,-96"/>
<text text-anchor="start" x="236" y="-84" font-family="Helvetica,sans-Serif" font-size="10.00">thirdparty/RadioLib</text>
<text text-anchor="start" x="236" y="-73" font-family="Helvetica,sans-Serif" font-size="10.00">/include/RadioLib/hal</text>
<text text-anchor="middle" x="287" y="-62" font-family="Helvetica,sans-Serif" font-size="10.00">/RPi/PiHal.h</text>
</a>
</g>
</g>
<!-- Node2&#45;&gt;Node3 -->
<g id="edge2_Node000002_Node000003" class="edge">
<title>Node2&#45;&gt;Node3</title>
<g id="a_edge2_Node000002_Node000003"><a xlink:title=" ">
<path fill="none" stroke="#63b8ff" d="M287,-121.91C287,-113.47 287,-104.1 287,-96.07"/>
<polygon fill="#63b8ff" stroke="#63b8ff" points="283.5,-121.94 287,-131.94 290.5,-121.94 283.5,-121.94"/>
</a>
</g>
</g>
<!-- Node4 -->
<g id="Node000004" class="node">
<title>Node4</title>
<g id="a_Node000004"><a xlink:href="receiver-normal_8cpp.html" target="_top" xlink:title="CHRONOS&#45;LoRa Receiver program (Normal)">
<polygon fill="white" stroke="#666666" points="274,-19 142,-19 142,0 274,0 274,-19"/>
<text text-anchor="middle" x="208" y="-7" font-family="Helvetica,sans-Serif" font-size="10.00">src/receiver&#45;normal.cpp</text>
</a>
</g>
</g>
<!-- Node3&#45;&gt;Node4 -->
<g id="edge3_Node000003_Node000004" class="edge">
<title>Node3&#45;&gt;Node4</title>
<g id="a_edge3_Node000003_Node000004"><a xlink:title=" ">
<path fill="none" stroke="#63b8ff" d="M255.04,-48.61C242.16,-38.17 228.16,-26.83 218.81,-19.26"/>
<polygon fill="#63b8ff" stroke="#63b8ff" points="252.89,-51.37 262.87,-54.95 257.3,-45.94 252.89,-51.37"/>
</a>
</g>
</g>
<!-- Node5 -->
<g id="Node000005" class="node">
<title>Node5</title>
<g id="a_Node000005"><a xlink:href="transmitter-normal_8cpp.html" target="_top" xlink:title="CHRONOS&#45;LoRa Transmitter program (Normal)">
<polygon fill="white" stroke="#666666" points="439.5,-19 292.5,-19 292.5,0 439.5,0 439.5,-19"/>
<text text-anchor="middle" x="366" y="-7" font-family="Helvetica,sans-Serif" font-size="10.00">src/transmitter&#45;normal.cpp</text>
</a>
</g>
</g>
<!-- Node3&#45;&gt;Node5 -->
<g id="edge4_Node000003_Node000005" class="edge">
<title>Node3&#45;&gt;Node5</title>
<g id="a_edge4_Node000003_Node000005"><a xlink:title=" ">
<path fill="none" stroke="#63b8ff" d="M318.96,-48.61C331.84,-38.17 345.84,-26.83 355.19,-19.26"/>
<polygon fill="#63b8ff" stroke="#63b8ff" points="316.7,-45.94 311.13,-54.95 321.11,-51.37 316.7,-45.94"/>
</a>
</g>
</g>
<!-- Node6&#45;&gt;Node2 -->
<g id="edge6_Node000006_Node000002" class="edge">
<title>Node6&#45;&gt;Node2</title>
<g id="a_edge6_Node000006_Node000002"><a xlink:title=" ">
<path fill="none" stroke="#63b8ff" d="M67.26,-267.35C49.69,-246.83 33.17,-218.75 50,-198 69.97,-173.38 148.6,-160.42 209.88,-153.92"/>
<polygon fill="#63b8ff" stroke="#63b8ff" points="64.69,-269.72 73.98,-274.81 69.89,-265.04 64.69,-269.72"/>
</a>
</g>
</g>
<!-- Node7 -->
<g id="Node000007" class="node">
<title>Node7</title>
<g id="a_Node000007"><a xlink:href="APRS_8h.html" target="_top" xlink:title=" ">
<polygon fill="white" stroke="#666666" points="207,-239 59,-239 59,-198 207,-198 207,-239"/>
<text text-anchor="start" x="67" y="-227" font-family="Helvetica,sans-Serif" font-size="10.00">thirdparty/RadioLib</text>
<text text-anchor="start" x="67" y="-216" font-family="Helvetica,sans-Serif" font-size="10.00">/include/RadioLib/protocols</text>
<text text-anchor="middle" x="133" y="-205" font-family="Helvetica,sans-Serif" font-size="10.00">/APRS/APRS.h</text>
</a>
</g>
</g>
<!-- Node6&#45;&gt;Node7 -->
<g id="edge7_Node000006_Node000007" class="edge">
<title>Node6&#45;&gt;Node7</title>
<g id="a_edge7_Node000006_Node000007"><a xlink:title=" ">
<path fill="none" stroke="#63b8ff" d="M109.53,-265.83C114.06,-256.89 118.95,-247.24 123.08,-239.07"/>
<polygon fill="#63b8ff" stroke="#63b8ff" points="106.38,-264.29 104.98,-274.79 112.63,-267.46 106.38,-264.29"/>
</a>
</g>
</g>
<!-- Node7&#45;&gt;Node2 -->
<g id="edge8_Node000007_Node000002" class="edge">
<title>Node7&#45;&gt;Node2</title>
<g id="a_edge8_Node000007_Node000002"><a xlink:title=" ">
<path fill="none" stroke="#63b8ff" d="M185.73,-193.71C209.03,-183.19 235.64,-171.18 255.73,-162.11"/>
<polygon fill="#63b8ff" stroke="#63b8ff" points="183.98,-190.65 176.31,-197.96 186.86,-197.03 183.98,-190.65"/>
</a>
</g>
</g>
<!-- Node8&#45;&gt;Node2 -->
<g id="edge10_Node000008_Node000002" class="edge">
<title>Node8&#45;&gt;Node2</title>
<g id="a_edge10_Node000008_Node000002"><a xlink:title=" ">
<path fill="none" stroke="#63b8ff" d="M200.39,-341.71C203.2,-322.29 208.05,-296.64 216,-275 232.03,-231.37 261.69,-184.85 277.11,-162.13"/>
<polygon fill="#63b8ff" stroke="#63b8ff" points="196.9,-341.41 199.04,-351.79 203.84,-342.34 196.9,-341.41"/>
</a>
</g>
</g>
<!-- Node8&#45;&gt;Node6 -->
<g id="edge11_Node000008_Node000006" class="edge">
<title>Node8&#45;&gt;Node6</title>
<g id="a_edge11_Node000008_Node000006"><a xlink:title=" ">
<path fill="none" stroke="#63b8ff" d="M162.07,-345.82C148.88,-336.11 134.08,-325.24 121.75,-316.17"/>
<polygon fill="#63b8ff" stroke="#63b8ff" points="160.34,-348.89 170.47,-351.99 164.48,-343.25 160.34,-348.89"/>
</a>
</g>
</g>
<!-- Node9&#45;&gt;Node2 -->
<g id="edge13_Node000009_Node000002" class="edge">
<title>Node9&#45;&gt;Node2</title>
<g id="a_edge13_Node000009_Node000002"><a xlink:title=" ">
<path fill="none" stroke="#63b8ff" d="M296.54,-264.44C293.98,-233.21 290.09,-185.68 288.16,-162.18"/>
<polygon fill="#63b8ff" stroke="#63b8ff" points="293.08,-265.06 297.38,-274.74 300.05,-264.49 293.08,-265.06"/>
</a>
</g>
</g>
<!-- Node10&#45;&gt;Node2 -->
<g id="edge15_Node000010_Node000002" class="edge">
<title>Node10&#45;&gt;Node2</title>
<g id="a_edge15_Node000010_Node000002"><a xlink:title=" ">
<path fill="none" stroke="#63b8ff" d="M356.05,-192.44C340.2,-182.23 322.46,-170.82 308.93,-162.11"/>
<polygon fill="#63b8ff" stroke="#63b8ff" points="354.33,-195.49 364.63,-197.96 358.11,-189.6 354.33,-195.49"/>
</a>
</g>
</g>
<!-- Node11&#45;&gt;Node2 -->
<g id="edge17_Node000011_Node000002" class="edge">
<title>Node11&#45;&gt;Node2</title>
<g id="a_edge17_Node000011_Node000002"><a xlink:title=" ">
<path fill="none" stroke="#63b8ff" d="M504.97,-264.61C504.7,-243.37 500.68,-215.6 484,-198 467.35,-180.42 411.93,-167.32 364.09,-158.95"/>
<polygon fill="#63b8ff" stroke="#63b8ff" points="501.47,-264.69 504.83,-274.74 508.47,-264.78 501.47,-264.69"/>
</a>
</g>
</g>
<!-- Node12&#45;&gt;Node2 -->
<g id="edge19_Node000012_Node000002" class="edge">
<title>Node12&#45;&gt;Node2</title>
<g id="a_edge19_Node000012_Node000002"><a xlink:title=" ">
<path fill="none" stroke="#63b8ff" d="M520.77,-198.83C519.5,-198.55 518.25,-198.27 517,-198 461.32,-185.78 398.03,-172.03 351.95,-162.05"/>
<polygon fill="#63b8ff" stroke="#63b8ff" points="520.07,-202.26 530.59,-200.99 521.57,-195.42 520.07,-202.26"/>
</a>
</g>
</g>
<!-- Node13&#45;&gt;Node2 -->
<g id="edge21_Node000013_Node000002" class="edge">
<title>Node13&#45;&gt;Node2</title>
<g id="a_edge21_Node000013_Node000002"><a xlink:title=" ">
<path fill="none" stroke="#63b8ff" d="M713.67,-341.76C720.43,-303.01 725.22,-235.79 688,-198 665.72,-175.38 474.49,-159.75 364.35,-152.54"/>
<polygon fill="#63b8ff" stroke="#63b8ff" points="710.17,-341.4 711.74,-351.88 717.05,-342.71 710.17,-341.4"/>
</a>
</g>
</g>
</g>
</svg>
