<?xml version="1.0" encoding="UTF-8" standalone="no"?>
<!DOCTYPE svg PUBLIC "-//W3C//DTD SVG 1.1//EN"
 "http://www.w3.org/Graphics/SVG/1.1/DTD/svg11.dtd">
<!-- Generated by graphviz version 2.43.0 (0)
 -->
<!-- Title: thirdparty/RadioLib/include/RadioLib/protocols/APRS/APRS.h Pages: 1 -->
<svg width="793pt" height="500pt"
 viewBox="0.00 0.00 793.00 500.00" xmlns="http://www.w3.org/2000/svg" xmlns:xlink="http://www.w3.org/1999/xlink">
<g id="graph0" class="graph" transform="scale(1 1) rotate(0) translate(4 496)">
<title>thirdparty/RadioLib/include/RadioLib/protocols/APRS/APRS.h</title>
<!-- Node1 -->
<g id="Node000001" class="node">
<title>Node1</title>
<g id="a_Node000001"><a xlink:title=" ">
<polygon fill="#999999" stroke="#666666" points="148,-492 0,-492 0,-451 148,-451 148,-492"/>
<text text-anchor="start" x="8" y="-480" font-family="Helvetica,sans-Serif" font-size="10.00">thirdparty/RadioLib</text>
<text text-anchor="start" x="8" y="-469" font-family="Helvetica,sans-Serif" font-size="10.00">/include/RadioLib/protocols</text>
<text text-anchor="middle" x="74" y="-458" font-family="Helvetica,sans-Serif" font-size="10.00">/APRS/APRS.h</text>
</a>
</g>
</g>
<!-- Node2 -->
<g id="Node000002" class="node">
<title>Node2</title>
<g id="a_Node000002"><a xlink:href="TypeDef_8h.html" target="_top" xlink:title=" ">
<polygon fill="white" stroke="#666666" points="404.5,-129 321.5,-129 321.5,-110 404.5,-110 404.5,-129"/>
<text text-anchor="middle" x="363" y="-117" font-family="Helvetica,sans-Serif" font-size="10.00">../../TypeDef.h</text>
</a>
</g>
</g>
<!-- Node1&#45;&gt;Node2 -->
<g id="edge1_Node000001_Node000002" class="edge">
<title>Node1&#45;&gt;Node2</title>
<g id="a_edge1_Node000001_Node000002"><a xlink:title=" ">
<path fill="none" stroke="#63b8ff" d="M63.62,-450.9C52.37,-427.8 36,-387.93 36,-351.5 36,-351.5 36,-351.5 36,-234 36,-176.44 219.11,-141.47 311.28,-127.51"/>
<polygon fill="#63b8ff" stroke="#63b8ff" points="311.88,-130.96 321.25,-126.03 310.85,-124.04 311.88,-130.96"/>
</a>
</g>
</g>
<!-- Node7 -->
<g id="Node000007" class="node">
<title>Node7</title>
<g id="a_Node000007"><a xlink:href="PhysicalLayer_8h.html" target="_top" xlink:title=" ">
<polygon fill="white" stroke="#666666" points="258.5,-250 121.5,-250 121.5,-220 258.5,-220 258.5,-250"/>
<text text-anchor="start" x="129.5" y="-238" font-family="Helvetica,sans-Serif" font-size="10.00">../PhysicalLayer/Physical</text>
<text text-anchor="middle" x="190" y="-227" font-family="Helvetica,sans-Serif" font-size="10.00">Layer.h</text>
</a>
</g>
</g>
<!-- Node1&#45;&gt;Node7 -->
<g id="edge7_Node000001_Node000007" class="edge">
<title>Node1&#45;&gt;Node7</title>
<g id="a_edge7_Node000001_Node000007"><a xlink:title=" ">
<path fill="none" stroke="#63b8ff" d="M83.69,-450.91C104.95,-407.94 155.59,-305.57 178.45,-259.35"/>
<polygon fill="#63b8ff" stroke="#63b8ff" points="181.71,-260.65 183.01,-250.13 175.44,-257.54 181.71,-260.65"/>
</a>
</g>
</g>
<!-- Node13 -->
<g id="Node000013" class="node">
<title>Node13</title>
<g id="a_Node000013"><a xlink:href="AX25_8h.html" target="_top" xlink:title=" ">
<polygon fill="white" stroke="#666666" points="320.5,-415 231.5,-415 231.5,-396 320.5,-396 320.5,-415"/>
<text text-anchor="middle" x="276" y="-403" font-family="Helvetica,sans-Serif" font-size="10.00">../AX25/AX25.h</text>
</a>
</g>
</g>
<!-- Node1&#45;&gt;Node13 -->
<g id="edge19_Node000001_Node000013" class="edge">
<title>Node1&#45;&gt;Node13</title>
<g id="a_edge19_Node000001_Node000013"><a xlink:title=" ">
<path fill="none" stroke="#63b8ff" d="M135.7,-450.95C169.64,-440.2 210.59,-427.22 239.47,-418.07"/>
<polygon fill="#63b8ff" stroke="#63b8ff" points="240.67,-421.36 249.15,-415.01 238.56,-414.69 240.67,-421.36"/>
</a>
</g>
</g>
<!-- Node3 -->
<g id="Node000003" class="node">
<title>Node3</title>
<g id="a_Node000003"><a xlink:href="BuildOptUser_8h.html" target="_top" xlink:title=" ">
<polygon fill="white" stroke="#666666" points="310.5,-74 221.5,-74 221.5,-55 310.5,-55 310.5,-74"/>
<text text-anchor="middle" x="266" y="-62" font-family="Helvetica,sans-Serif" font-size="10.00">BuildOptUser.h</text>
</a>
</g>
</g>
<!-- Node2&#45;&gt;Node3 -->
<g id="edge2_Node000002_Node000003" class="edge">
<title>Node2&#45;&gt;Node3</title>
<g id="a_edge2_Node000002_Node000003"><a xlink:title=" ">
<path fill="none" stroke="#63b8ff" d="M347.42,-109.98C332.23,-101.69 308.9,-88.94 291.1,-79.22"/>
<polygon fill="#63b8ff" stroke="#63b8ff" points="292.32,-75.89 281.87,-74.17 288.97,-82.04 292.32,-75.89"/>
</a>
</g>
</g>
<!-- Node4 -->
<g id="Node000004" class="node">
<title>Node4</title>
<g id="a_Node000004"><a xlink:href="BuildOpt_8h.html" target="_top" xlink:title=" ">
<polygon fill="white" stroke="#666666" points="397,-74 329,-74 329,-55 397,-55 397,-74"/>
<text text-anchor="middle" x="363" y="-62" font-family="Helvetica,sans-Serif" font-size="10.00">BuildOpt.h</text>
</a>
</g>
</g>
<!-- Node2&#45;&gt;Node4 -->
<g id="edge3_Node000002_Node000004" class="edge">
<title>Node2&#45;&gt;Node4</title>
<g id="a_edge3_Node000002_Node000004"><a xlink:title=" ">
<path fill="none" stroke="#63b8ff" d="M357.83,-109.75C356.34,-102.8 355.9,-92.85 356.52,-84.13"/>
<polygon fill="#63b8ff" stroke="#63b8ff" points="360.01,-84.47 357.87,-74.09 353.07,-83.53 360.01,-84.47"/>
</a>
</g>
</g>
<!-- Node4&#45;&gt;Node2 -->
<g id="edge4_Node000004_Node000002" class="edge">
<title>Node4&#45;&gt;Node2</title>
<g id="a_edge4_Node000004_Node000002"><a xlink:title=" ">
<path fill="none" stroke="#63b8ff" d="M368.13,-74.09C369.64,-80.99 370.09,-90.93 369.49,-99.66"/>
<polygon fill="#63b8ff" stroke="#63b8ff" points="366,-99.38 368.17,-109.75 372.94,-100.29 366,-99.38"/>
</a>
</g>
</g>
<!-- Node5 -->
<g id="Node000005" class="node">
<title>Node5</title>
<g id="a_Node000005"><a xlink:title=" ">
<polygon fill="#e0e0e0" stroke="#999999" points="384,-19 334,-19 334,0 384,0 384,-19"/>
<text text-anchor="middle" x="359" y="-7" font-family="Helvetica,sans-Serif" font-size="10.00">stdio.h</text>
</a>
</g>
</g>
<!-- Node4&#45;&gt;Node5 -->
<g id="edge5_Node000004_Node000005" class="edge">
<title>Node4&#45;&gt;Node5</title>
<g id="a_edge5_Node000004_Node000005"><a xlink:title=" ">
<path fill="none" stroke="#63b8ff" d="M362.34,-54.75C361.82,-47.8 361.06,-37.85 360.41,-29.13"/>
<polygon fill="#63b8ff" stroke="#63b8ff" points="363.89,-28.8 359.65,-19.09 356.91,-29.32 363.89,-28.8"/>
</a>
</g>
</g>
<!-- Node6 -->
<g id="Node000006" class="node">
<title>Node6</title>
<g id="a_Node000006"><a xlink:title=" ">
<polygon fill="#e0e0e0" stroke="#999999" points="455.5,-19 402.5,-19 402.5,0 455.5,0 455.5,-19"/>
<text text-anchor="middle" x="429" y="-7" font-family="Helvetica,sans-Serif" font-size="10.00">stdint.h</text>
</a>
</g>
</g>
<!-- Node4&#45;&gt;Node6 -->
<g id="edge6_Node000004_Node000006" class="edge">
<title>Node4&#45;&gt;Node6</title>
<g id="a_edge6_Node000004_Node000006"><a xlink:title=" ">
<path fill="none" stroke="#63b8ff" d="M373.6,-54.98C383.46,-47.07 398.35,-35.11 410.22,-25.58"/>
<polygon fill="#63b8ff" stroke="#63b8ff" points="412.6,-28.16 418.2,-19.17 408.21,-22.7 412.6,-28.16"/>
</a>
</g>
</g>
<!-- Node7&#45;&gt;Node2 -->
<g id="edge8_Node000007_Node000002" class="edge">
<title>Node7&#45;&gt;Node2</title>
<g id="a_edge8_Node000007_Node000002"><a xlink:title=" ">
<path fill="none" stroke="#63b8ff" d="M204.76,-219.89C220.74,-205.07 247.39,-181.65 273,-165 291.99,-152.66 314.89,-141.38 332.84,-133.27"/>
<polygon fill="#63b8ff" stroke="#63b8ff" points="334.52,-136.35 342.24,-129.1 331.68,-129.95 334.52,-136.35"/>
</a>
</g>
</g>
<!-- Node8 -->
<g id="Node000008" class="node">
<title>Node8</title>
<g id="a_Node000008"><a xlink:href="Module_8h.html" target="_top" xlink:title=" ">
<polygon fill="white" stroke="#666666" points="509,-184 429,-184 429,-165 509,-165 509,-184"/>
<text text-anchor="middle" x="469" y="-172" font-family="Helvetica,sans-Serif" font-size="10.00">../../Module.h</text>
</a>
</g>
</g>
<!-- Node7&#45;&gt;Node8 -->
<g id="edge9_Node000007_Node000008" class="edge">
<title>Node7&#45;&gt;Node8</title>
<g id="a_edge9_Node000007_Node000008"><a xlink:title=" ">
<path fill="none" stroke="#63b8ff" d="M256.83,-219.99C306.59,-209.55 373.46,-195.53 418.73,-186.04"/>
<polygon fill="#63b8ff" stroke="#63b8ff" points="419.54,-189.45 428.61,-183.97 418.11,-182.6 419.54,-189.45"/>
</a>
</g>
</g>
<!-- Node8&#45;&gt;Node2 -->
<g id="edge10_Node000008_Node000002" class="edge">
<title>Node8&#45;&gt;Node2</title>
<g id="a_edge10_Node000008_Node000002"><a xlink:title=" ">
<path fill="none" stroke="#63b8ff" d="M451.97,-164.98C435.07,-156.54 408.94,-143.47 389.36,-133.68"/>
<polygon fill="#63b8ff" stroke="#63b8ff" points="390.85,-130.51 380.34,-129.17 387.72,-136.77 390.85,-130.51"/>
</a>
</g>
</g>
<!-- Node9 -->
<g id="Node000009" class="node">
<title>Node9</title>
<g id="a_Node000009"><a xlink:href="Hal_8h.html" target="_top" xlink:title=" ">
<polygon fill="white" stroke="#666666" points="474,-129 432,-129 432,-110 474,-110 474,-129"/>
<text text-anchor="middle" x="453" y="-117" font-family="Helvetica,sans-Serif" font-size="10.00">Hal.h</text>
</a>
</g>
</g>
<!-- Node8&#45;&gt;Node9 -->
<g id="edge11_Node000008_Node000009" class="edge">
<title>Node8&#45;&gt;Node9</title>
<g id="a_edge11_Node000008_Node000009"><a xlink:title=" ">
<path fill="none" stroke="#63b8ff" d="M466.36,-164.75C464.24,-157.72 461.19,-147.62 458.54,-138.84"/>
<polygon fill="#63b8ff" stroke="#63b8ff" points="461.83,-137.65 455.59,-129.09 455.13,-139.67 461.83,-137.65"/>
</a>
</g>
</g>
<!-- Node11 -->
<g id="Node000011" class="node">
<title>Node11</title>
<g id="a_Node000011"><a xlink:href="Utils_8h.html" target="_top" xlink:title=" ">
<polygon fill="white" stroke="#666666" points="568,-129 496,-129 496,-110 568,-110 568,-129"/>
<text text-anchor="middle" x="532" y="-117" font-family="Helvetica,sans-Serif" font-size="10.00">utils/Utils.h</text>
</a>
</g>
</g>
<!-- Node8&#45;&gt;Node11 -->
<g id="edge15_Node000008_Node000011" class="edge">
<title>Node8&#45;&gt;Node11</title>
<g id="a_edge15_Node000008_Node000011"><a xlink:title=" ">
<path fill="none" stroke="#63b8ff" d="M479.12,-164.98C488.44,-157.15 502.47,-145.34 513.74,-135.86"/>
<polygon fill="#63b8ff" stroke="#63b8ff" points="516.29,-138.29 521.69,-129.17 511.79,-132.93 516.29,-138.29"/>
</a>
</g>
</g>
<!-- Node9&#45;&gt;Node4 -->
<g id="edge14_Node000009_Node000004" class="edge">
<title>Node9&#45;&gt;Node4</title>
<g id="a_edge14_Node000009_Node000004"><a xlink:title=" ">
<path fill="none" stroke="#63b8ff" d="M438.54,-109.98C424.58,-101.77 403.21,-89.18 386.75,-79.49"/>
<polygon fill="#63b8ff" stroke="#63b8ff" points="388.12,-76.23 377.72,-74.17 384.56,-82.26 388.12,-76.23"/>
</a>
</g>
</g>
<!-- Node9&#45;&gt;Node6 -->
<g id="edge12_Node000009_Node000006" class="edge">
<title>Node9&#45;&gt;Node6</title>
<g id="a_edge12_Node000009_Node000006"><a xlink:title=" ">
<path fill="none" stroke="#63b8ff" d="M451.04,-109.66C447.13,-92.09 438.32,-52.45 433.1,-28.95"/>
<polygon fill="#63b8ff" stroke="#63b8ff" points="436.51,-28.16 430.92,-19.16 429.68,-29.68 436.51,-28.16"/>
</a>
</g>
</g>
<!-- Node10 -->
<g id="Node000010" class="node">
<title>Node10</title>
<g id="a_Node000010"><a xlink:title=" ">
<polygon fill="#e0e0e0" stroke="#999999" points="509,-74 453,-74 453,-55 509,-55 509,-74"/>
<text text-anchor="middle" x="481" y="-62" font-family="Helvetica,sans-Serif" font-size="10.00">stddef.h</text>
</a>
</g>
</g>
<!-- Node9&#45;&gt;Node10 -->
<g id="edge13_Node000009_Node000010" class="edge">
<title>Node9&#45;&gt;Node10</title>
<g id="a_edge13_Node000009_Node000010"><a xlink:title=" ">
<path fill="none" stroke="#63b8ff" d="M457.62,-109.75C461.46,-102.49 467.02,-91.95 471.76,-82.98"/>
<polygon fill="#63b8ff" stroke="#63b8ff" points="474.89,-84.57 476.46,-74.09 468.7,-81.3 474.89,-84.57"/>
</a>
</g>
</g>
<!-- Node11&#45;&gt;Node4 -->
<g id="edge18_Node000011_Node000004" class="edge">
<title>Node11&#45;&gt;Node4</title>
<g id="a_edge18_Node000011_Node000004"><a xlink:title=" ">
<path fill="none" stroke="#63b8ff" d="M504.85,-109.98C476.47,-101.09 431.77,-87.07 400.14,-77.15"/>
<polygon fill="#63b8ff" stroke="#63b8ff" points="400.95,-73.73 390.37,-74.08 398.86,-80.41 400.95,-73.73"/>
</a>
</g>
</g>
<!-- Node11&#45;&gt;Node6 -->
<g id="edge16_Node000011_Node000006" class="edge">
<title>Node11&#45;&gt;Node6</title>
<g id="a_edge16_Node000011_Node000006"><a xlink:title=" ">
<path fill="none" stroke="#63b8ff" d="M532.33,-109.71C532.38,-96.46 530.63,-71.21 518,-55 504.86,-38.14 483.62,-27.18 465.19,-20.36"/>
<polygon fill="#63b8ff" stroke="#63b8ff" points="466.18,-17 455.59,-17.07 463.91,-23.62 466.18,-17"/>
</a>
</g>
</g>
<!-- Node12 -->
<g id="Node000012" class="node">
<title>Node12</title>
<g id="a_Node000012"><a xlink:title=" ">
<polygon fill="#e0e0e0" stroke="#999999" points="618.5,-74 565.5,-74 565.5,-55 618.5,-55 618.5,-74"/>
<text text-anchor="middle" x="592" y="-62" font-family="Helvetica,sans-Serif" font-size="10.00">stdlib.h</text>
</a>
</g>
</g>
<!-- Node11&#45;&gt;Node12 -->
<g id="edge17_Node000011_Node000012" class="edge">
<title>Node11&#45;&gt;Node12</title>
<g id="a_edge17_Node000011_Node000012"><a xlink:title=" ">
<path fill="none" stroke="#63b8ff" d="M541.64,-109.98C550.51,-102.15 563.87,-90.34 574.61,-80.86"/>
<polygon fill="#63b8ff" stroke="#63b8ff" points="577.01,-83.41 582.18,-74.17 572.37,-78.17 577.01,-83.41"/>
</a>
</g>
</g>
<!-- Node13&#45;&gt;Node2 -->
<g id="edge20_Node000013_Node000002" class="edge">
<title>Node13&#45;&gt;Node2</title>
<g id="a_edge20_Node000013_Node000002"><a xlink:title=" ">
<path fill="none" stroke="#63b8ff" d="M256.79,-395.84C203.7,-370.68 62.1,-294.64 112,-220 156.09,-154.06 251.55,-131.82 311.22,-124.32"/>
<polygon fill="#63b8ff" stroke="#63b8ff" points="311.67,-127.79 321.19,-123.16 310.86,-120.84 311.67,-127.79"/>
</a>
</g>
</g>
<!-- Node13&#45;&gt;Node7 -->
<g id="edge21_Node000013_Node000007" class="edge">
<title>Node13&#45;&gt;Node7</title>
<g id="a_edge21_Node000013_Node000007"><a xlink:title=" ">
<path fill="none" stroke="#63b8ff" d="M269.97,-395.75C258.46,-378.79 232.99,-340.03 216,-305 208.88,-290.31 202.4,-273.14 197.69,-259.6"/>
<polygon fill="#63b8ff" stroke="#63b8ff" points="200.98,-258.4 194.46,-250.06 194.35,-260.65 200.98,-258.4"/>
</a>
</g>
</g>
<!-- Node14 -->
<g id="Node000014" class="node">
<title>Node14</title>
<g id="a_Node000014"><a xlink:href="AFSK_8h.html" target="_top" xlink:title=" ">
<polygon fill="white" stroke="#666666" points="334.5,-305 247.5,-305 247.5,-286 334.5,-286 334.5,-305"/>
<text text-anchor="middle" x="291" y="-293" font-family="Helvetica,sans-Serif" font-size="10.00">../AFSK/AFSK.h</text>
</a>
</g>
</g>
<!-- Node13&#45;&gt;Node14 -->
<g id="edge22_Node000013_Node000014" class="edge">
<title>Node13&#45;&gt;Node14</title>
<g id="a_edge22_Node000013_Node000014"><a xlink:title=" ">
<path fill="none" stroke="#63b8ff" d="M277.23,-395.66C279.66,-378.17 285.12,-338.8 288.39,-315.27"/>
<polygon fill="#63b8ff" stroke="#63b8ff" points="291.89,-315.54 289.8,-305.16 284.95,-314.58 291.89,-315.54"/>
</a>
</g>
</g>
<!-- Node15 -->
<g id="Node000015" class="node">
<title>Node15</title>
<g id="a_Node000015"><a xlink:href="BellModem_8h.html" target="_top" xlink:title=" ">
<polygon fill="white" stroke="#666666" points="452.5,-360 303.5,-360 303.5,-341 452.5,-341 452.5,-360"/>
<text text-anchor="middle" x="378" y="-348" font-family="Helvetica,sans-Serif" font-size="10.00">../BellModem/BellModem.h</text>
</a>
</g>
</g>
<!-- Node13&#45;&gt;Node15 -->
<g id="edge26_Node000013_Node000015" class="edge">
<title>Node13&#45;&gt;Node15</title>
<g id="a_edge26_Node000013_Node000015"><a xlink:title=" ">
<path fill="none" stroke="#63b8ff" d="M292.39,-395.98C308.57,-387.57 333.57,-374.59 352.38,-364.81"/>
<polygon fill="#63b8ff" stroke="#63b8ff" points="354.05,-367.89 361.31,-360.17 350.83,-361.68 354.05,-367.89"/>
</a>
</g>
</g>
<!-- Node19 -->
<g id="Node000019" class="node">
<title>Node19</title>
<g id="a_Node000019"><a xlink:href="CRC_8h.html" target="_top" xlink:title=" ">
<polygon fill="white" stroke="#666666" points="681,-244.5 593,-244.5 593,-225.5 681,-225.5 681,-244.5"/>
<text text-anchor="middle" x="637" y="-232.5" font-family="Helvetica,sans-Serif" font-size="10.00">../../utils/CRC.h</text>
</a>
</g>
</g>
<!-- Node13&#45;&gt;Node19 -->
<g id="edge36_Node000013_Node000019" class="edge">
<title>Node13&#45;&gt;Node19</title>
<g id="a_edge36_Node000013_Node000019"><a xlink:title=" ">
<path fill="none" stroke="#63b8ff" d="M320.84,-398.43C359.26,-392.14 415.44,-380.3 461,-360 500.41,-342.44 505.7,-329.81 541,-305 567.38,-286.45 597.54,-264.68 616.9,-250.63"/>
<polygon fill="#63b8ff" stroke="#63b8ff" points="619.2,-253.29 625.23,-244.58 615.09,-247.62 619.2,-253.29"/>
</a>
</g>
</g>
<!-- Node20 -->
<g id="Node000020" class="node">
<title>Node20</title>
<g id="a_Node000020"><a xlink:href="FEC_8h.html" target="_top" xlink:title=" ">
<polygon fill="white" stroke="#666666" points="785,-244.5 699,-244.5 699,-225.5 785,-225.5 785,-244.5"/>
<text text-anchor="middle" x="742" y="-232.5" font-family="Helvetica,sans-Serif" font-size="10.00">../../utils/FEC.h</text>
</a>
</g>
</g>
<!-- Node13&#45;&gt;Node20 -->
<g id="edge39_Node000013_Node000020" class="edge">
<title>Node13&#45;&gt;Node20</title>
<g id="a_edge39_Node000013_Node000020"><a xlink:title=" ">
<path fill="none" stroke="#63b8ff" d="M320.74,-398.72C365.06,-392.19 434.44,-379.83 492,-360 579.73,-329.77 676.11,-275.37 719.1,-249.89"/>
<polygon fill="#63b8ff" stroke="#63b8ff" points="721.12,-252.76 727.91,-244.62 717.53,-246.75 721.12,-252.76"/>
</a>
</g>
</g>
<!-- Node14&#45;&gt;Node2 -->
<g id="edge23_Node000014_Node000002" class="edge">
<title>Node14&#45;&gt;Node2</title>
<g id="a_edge23_Node000014_Node000002"><a xlink:title=" ">
<path fill="none" stroke="#63b8ff" d="M294.67,-285.63C305.94,-258.4 340.2,-175.61 355.49,-138.65"/>
<polygon fill="#63b8ff" stroke="#63b8ff" points="358.83,-139.72 359.42,-129.14 352.37,-137.05 358.83,-139.72"/>
</a>
</g>
</g>
<!-- Node14&#45;&gt;Node7 -->
<g id="edge25_Node000014_Node000007" class="edge">
<title>Node14&#45;&gt;Node7</title>
<g id="a_edge25_Node000014_Node000007"><a xlink:title=" ">
<path fill="none" stroke="#63b8ff" d="M276.1,-285.87C262.27,-277.86 241.19,-265.65 223.35,-255.31"/>
<polygon fill="#63b8ff" stroke="#63b8ff" points="224.78,-252.1 214.37,-250.11 221.27,-258.16 224.78,-252.1"/>
</a>
</g>
</g>
<!-- Node14&#45;&gt;Node8 -->
<g id="edge24_Node000014_Node000008" class="edge">
<title>Node14&#45;&gt;Node8</title>
<g id="a_edge24_Node000014_Node000008"><a xlink:title=" ">
<path fill="none" stroke="#63b8ff" d="M300.96,-285.88C317.97,-271.38 353.97,-241.57 387,-220 404.8,-208.38 425.9,-196.97 442.24,-188.62"/>
<polygon fill="#63b8ff" stroke="#63b8ff" points="443.89,-191.71 451.25,-184.08 440.74,-185.46 443.89,-191.71"/>
</a>
</g>
</g>
<!-- Node15&#45;&gt;Node2 -->
<g id="edge27_Node000015_Node000002" class="edge">
<title>Node15&#45;&gt;Node2</title>
<g id="a_edge27_Node000015_Node000002"><a xlink:title=" ">
<path fill="none" stroke="#63b8ff" d="M377.43,-340.8C375.24,-307.29 367.3,-186.08 364.22,-139.2"/>
<polygon fill="#63b8ff" stroke="#63b8ff" points="367.72,-138.96 363.57,-129.21 360.73,-139.41 367.72,-138.96"/>
</a>
</g>
</g>
<!-- Node15&#45;&gt;Node7 -->
<g id="edge29_Node000015_Node000007" class="edge">
<title>Node15&#45;&gt;Node7</title>
<g id="a_edge29_Node000015_Node000007"><a xlink:title=" ">
<path fill="none" stroke="#63b8ff" d="M324.01,-340.94C296.28,-334.53 263.15,-323.54 238,-305 222.01,-293.21 209.45,-274.44 201.19,-259.45"/>
<polygon fill="#63b8ff" stroke="#63b8ff" points="204.13,-257.5 196.4,-250.26 197.92,-260.74 204.13,-257.5"/>
</a>
</g>
</g>
<!-- Node15&#45;&gt;Node8 -->
<g id="edge28_Node000015_Node000008" class="edge">
<title>Node15&#45;&gt;Node8</title>
<g id="a_edge28_Node000015_Node000008"><a xlink:title=" ">
<path fill="none" stroke="#63b8ff" d="M379.21,-340.97C382.59,-319.26 393.71,-260.7 420,-220 427.33,-208.65 438.26,-198.34 447.94,-190.51"/>
<polygon fill="#63b8ff" stroke="#63b8ff" points="450.22,-193.18 456,-184.3 445.94,-187.63 450.22,-193.18"/>
</a>
</g>
</g>
<!-- Node15&#45;&gt;Node14 -->
<g id="edge30_Node000015_Node000014" class="edge">
<title>Node15&#45;&gt;Node14</title>
<g id="a_edge30_Node000015_Node000014"><a xlink:title=" ">
<path fill="none" stroke="#63b8ff" d="M364.02,-340.98C350.53,-332.77 329.87,-320.18 313.96,-310.49"/>
<polygon fill="#63b8ff" stroke="#63b8ff" points="315.59,-307.38 305.23,-305.17 311.95,-313.36 315.59,-307.38"/>
</a>
</g>
</g>
<!-- Node16 -->
<g id="Node000016" class="node">
<title>Node16</title>
<g id="a_Node000016"><a xlink:href="Print_8h.html" target="_top" xlink:title=" ">
<polygon fill="white" stroke="#666666" points="512.5,-305 429.5,-305 429.5,-286 512.5,-286 512.5,-305"/>
<text text-anchor="middle" x="471" y="-293" font-family="Helvetica,sans-Serif" font-size="10.00">../Print/Print.h</text>
</a>
</g>
</g>
<!-- Node15&#45;&gt;Node16 -->
<g id="edge31_Node000015_Node000016" class="edge">
<title>Node15&#45;&gt;Node16</title>
<g id="a_edge31_Node000015_Node000016"><a xlink:title=" ">
<path fill="none" stroke="#63b8ff" d="M392.94,-340.98C407.5,-332.69 429.87,-319.94 446.93,-310.22"/>
<polygon fill="#63b8ff" stroke="#63b8ff" points="448.83,-313.16 455.79,-305.17 445.36,-307.08 448.83,-313.16"/>
</a>
</g>
</g>
<!-- Node18 -->
<g id="Node000018" class="node">
<title>Node18</title>
<g id="a_Node000018"><a xlink:href="ITA2String_8h.html" target="_top" xlink:title=" ">
<polygon fill="white" stroke="#666666" points="575.5,-244.5 500.5,-244.5 500.5,-225.5 575.5,-225.5 575.5,-244.5"/>
<text text-anchor="middle" x="538" y="-232.5" font-family="Helvetica,sans-Serif" font-size="10.00">ITA2String.h</text>
</a>
</g>
</g>
<!-- Node15&#45;&gt;Node18 -->
<g id="edge35_Node000015_Node000018" class="edge">
<title>Node15&#45;&gt;Node18</title>
<g id="a_edge35_Node000015_Node000018"><a xlink:title=" ">
<path fill="none" stroke="#63b8ff" d="M452.73,-341.15C477.46,-334.86 503.18,-323.93 521,-305 533.54,-291.69 537.25,-270.66 538.16,-255.31"/>
<polygon fill="#63b8ff" stroke="#63b8ff" points="541.67,-254.99 538.41,-244.91 534.67,-254.82 541.67,-254.99"/>
</a>
</g>
</g>
<!-- Node17 -->
<g id="Node000017" class="node">
<title>Node17</title>
<g id="a_Node000017"><a xlink:title=" ">
<polygon fill="#e0e0e0" stroke="#999999" points="482.5,-244.5 429.5,-244.5 429.5,-225.5 482.5,-225.5 482.5,-244.5"/>
<text text-anchor="middle" x="456" y="-232.5" font-family="Helvetica,sans-Serif" font-size="10.00">string.h</text>
</a>
</g>
</g>
<!-- Node16&#45;&gt;Node17 -->
<g id="edge32_Node000016_Node000017" class="edge">
<title>Node16&#45;&gt;Node17</title>
<g id="a_edge32_Node000016_Node000017"><a xlink:title=" ">
<path fill="none" stroke="#63b8ff" d="M468.79,-285.87C466.68,-277.66 463.45,-265.04 460.76,-254.55"/>
<polygon fill="#63b8ff" stroke="#63b8ff" points="464.1,-253.48 458.22,-244.67 457.32,-255.22 464.1,-253.48"/>
</a>
</g>
</g>
<!-- Node16&#45;&gt;Node18 -->
<g id="edge33_Node000016_Node000018" class="edge">
<title>Node16&#45;&gt;Node18</title>
<g id="a_edge33_Node000016_Node000018"><a xlink:title=" ">
<path fill="none" stroke="#63b8ff" d="M480.89,-285.87C491.28,-276.8 507.84,-262.34 520.45,-251.32"/>
<polygon fill="#63b8ff" stroke="#63b8ff" points="522.84,-253.88 528.07,-244.67 518.24,-248.61 522.84,-253.88"/>
</a>
</g>
</g>
<!-- Node18&#45;&gt;Node2 -->
<g id="edge34_Node000018_Node000002" class="edge">
<title>Node18&#45;&gt;Node2</title>
<g id="a_edge34_Node000018_Node000002"><a xlink:title=" ">
<path fill="none" stroke="#63b8ff" d="M508.03,-225.36C483.01,-217.23 447.16,-203.39 420,-184 402,-171.15 385.61,-151.69 375.07,-137.7"/>
<polygon fill="#63b8ff" stroke="#63b8ff" points="377.75,-135.44 369.03,-129.42 372.1,-139.56 377.75,-135.44"/>
</a>
</g>
</g>
<!-- Node19&#45;&gt;Node2 -->
<g id="edge37_Node000019_Node000002" class="edge">
<title>Node19&#45;&gt;Node2</title>
<g id="a_edge37_Node000019_Node000002"><a xlink:title=" ">
<path fill="none" stroke="#63b8ff" d="M624.68,-225.48C603.65,-211.25 559.09,-182.49 518,-165 483.98,-150.52 443.81,-139.13 412.89,-131.51"/>
<polygon fill="#63b8ff" stroke="#63b8ff" points="413.32,-128.01 402.78,-129.06 411.68,-134.81 413.32,-128.01"/>
</a>
</g>
</g>
<!-- Node19&#45;&gt;Node8 -->
<g id="edge38_Node000019_Node000008" class="edge">
<title>Node19&#45;&gt;Node8</title>
<g id="a_edge38_Node000019_Node000008"><a xlink:title=" ">
<path fill="none" stroke="#63b8ff" d="M612.57,-225.49C583.71,-215.44 535.5,-198.66 503,-187.34"/>
<polygon fill="#63b8ff" stroke="#63b8ff" points="504.05,-184 493.46,-184.02 501.75,-190.61 504.05,-184"/>
</a>
</g>
</g>
<!-- Node20&#45;&gt;Node2 -->
<g id="edge40_Node000020_Node000002" class="edge">
<title>Node20&#45;&gt;Node2</title>
<g id="a_edge40_Node000020_Node000002"><a xlink:title=" ">
<path fill="none" stroke="#63b8ff" d="M720.78,-225.43C685.81,-211.51 613.68,-183.67 551,-165 505.41,-151.42 452.63,-139.23 414.62,-131.05"/>
<polygon fill="#63b8ff" stroke="#63b8ff" points="415.31,-127.62 404.8,-128.96 413.86,-134.47 415.31,-127.62"/>
</a>
</g>
</g>
<!-- Node20&#45;&gt;Node8 -->
<g id="edge41_Node000020_Node000008" class="edge">
<title>Node20&#45;&gt;Node8</title>
<g id="a_edge41_Node000020_Node000008"><a xlink:title=" ">
<path fill="none" stroke="#63b8ff" d="M711.56,-225.45C704.5,-223.57 697.01,-221.65 690,-220 631.68,-206.29 564.09,-193.07 519.16,-184.65"/>
<polygon fill="#63b8ff" stroke="#63b8ff" points="519.56,-181.16 509.09,-182.77 518.28,-188.04 519.56,-181.16"/>
</a>
</g>
</g>
</g>
</svg>
