<?xml version="1.0" encoding="UTF-8" standalone="no"?>
<!DOCTYPE svg PUBLIC "-//W3C//DTD SVG 1.1//EN"
 "http://www.w3.org/Graphics/SVG/1.1/DTD/svg11.dtd">
<!-- Generated by graphviz version 2.43.0 (0)
 -->
<!-- Title: thirdparty/fmt/include/fmt/args.h Pages: 1 -->
<svg width="774pt" height="203pt"
 viewBox="0.00 0.00 774.00 203.00" xmlns="http://www.w3.org/2000/svg" xmlns:xlink="http://www.w3.org/1999/xlink">
<g id="graph0" class="graph" transform="scale(1 1) rotate(0) translate(4 199)">
<title>thirdparty/fmt/include/fmt/args.h</title>
<!-- Node1 -->
<g id="Node000001" class="node">
<title>Node1</title>
<g id="a_Node000001"><a xlink:title=" ">
<polygon fill="#999999" stroke="#666666" points="389,-195 266,-195 266,-165 389,-165 389,-195"/>
<text text-anchor="start" x="274" y="-183" font-family="Helvetica,sans-Serif" font-size="10.00">thirdparty/fmt/include</text>
<text text-anchor="middle" x="327.5" y="-172" font-family="Helvetica,sans-Serif" font-size="10.00">/fmt/args.h</text>
</a>
</g>
</g>
<!-- Node2 -->
<g id="Node000002" class="node">
<title>Node2</title>
<g id="a_Node000002"><a xlink:title=" ">
<polygon fill="#e0e0e0" stroke="#999999" points="245,-129 180,-129 180,-110 245,-110 245,-129"/>
<text text-anchor="middle" x="212.5" y="-117" font-family="Helvetica,sans-Serif" font-size="10.00">functional</text>
</a>
</g>
</g>
<!-- Node1&#45;&gt;Node2 -->
<g id="edge1_Node000001_Node000002" class="edge">
<title>Node1&#45;&gt;Node2</title>
<g id="a_edge1_Node000001_Node000002"><a xlink:title=" ">
<path fill="none" stroke="#63b8ff" d="M299.95,-164.99C281.28,-155.49 256.76,-143.02 238.44,-133.69"/>
<polygon fill="#63b8ff" stroke="#63b8ff" points="239.98,-130.55 229.48,-129.14 236.81,-136.79 239.98,-130.55"/>
</a>
</g>
</g>
<!-- Node3 -->
<g id="Node000003" class="node">
<title>Node3</title>
<g id="a_Node000003"><a xlink:title=" ">
<polygon fill="#e0e0e0" stroke="#999999" points="321.5,-129 263.5,-129 263.5,-110 321.5,-110 321.5,-129"/>
<text text-anchor="middle" x="292.5" y="-117" font-family="Helvetica,sans-Serif" font-size="10.00">memory</text>
</a>
</g>
</g>
<!-- Node1&#45;&gt;Node3 -->
<g id="edge2_Node000001_Node000003" class="edge">
<title>Node1&#45;&gt;Node3</title>
<g id="a_edge2_Node000001_Node000003"><a xlink:title=" ">
<path fill="none" stroke="#63b8ff" d="M319.03,-164.84C314.21,-156.78 308.13,-146.62 303,-138.06"/>
<polygon fill="#63b8ff" stroke="#63b8ff" points="305.88,-136.05 297.74,-129.27 299.88,-139.64 305.88,-136.05"/>
</a>
</g>
</g>
<!-- Node4 -->
<g id="Node000004" class="node">
<title>Node4</title>
<g id="a_Node000004"><a xlink:title=" ">
<polygon fill="#e0e0e0" stroke="#999999" points="387,-129 340,-129 340,-110 387,-110 387,-129"/>
<text text-anchor="middle" x="363.5" y="-117" font-family="Helvetica,sans-Serif" font-size="10.00">vector</text>
</a>
</g>
</g>
<!-- Node1&#45;&gt;Node4 -->
<g id="edge3_Node000001_Node000004" class="edge">
<title>Node1&#45;&gt;Node4</title>
<g id="a_edge3_Node000001_Node000004"><a xlink:title=" ">
<path fill="none" stroke="#63b8ff" d="M336.21,-164.84C341.17,-156.78 347.43,-146.62 352.7,-138.06"/>
<polygon fill="#63b8ff" stroke="#63b8ff" points="355.85,-139.62 358.11,-129.27 349.88,-135.95 355.85,-139.62"/>
</a>
</g>
</g>
<!-- Node5 -->
<g id="Node000005" class="node">
<title>Node5</title>
<g id="a_Node000005"><a xlink:href="format_8h.html" target="_top" xlink:title=" ">
<polygon fill="white" stroke="#666666" points="464,-129 405,-129 405,-110 464,-110 464,-129"/>
<text text-anchor="middle" x="434.5" y="-117" font-family="Helvetica,sans-Serif" font-size="10.00">format.h</text>
</a>
</g>
</g>
<!-- Node1&#45;&gt;Node5 -->
<g id="edge4_Node000001_Node000005" class="edge">
<title>Node1&#45;&gt;Node5</title>
<g id="a_edge4_Node000001_Node000005"><a xlink:title=" ">
<path fill="none" stroke="#63b8ff" d="M353.13,-164.99C370.34,-155.58 392.9,-143.24 409.9,-133.95"/>
<polygon fill="#63b8ff" stroke="#63b8ff" points="411.6,-137.01 418.7,-129.14 408.25,-130.87 411.6,-137.01"/>
</a>
</g>
</g>
<!-- Node6 -->
<g id="Node000006" class="node">
<title>Node6</title>
<g id="a_Node000006"><a xlink:href="base_8h.html" target="_top" xlink:title=" ">
<polygon fill="white" stroke="#666666" points="199,-74 150,-74 150,-55 199,-55 199,-74"/>
<text text-anchor="middle" x="174.5" y="-62" font-family="Helvetica,sans-Serif" font-size="10.00">base.h</text>
</a>
</g>
</g>
<!-- Node5&#45;&gt;Node6 -->
<g id="edge5_Node000005_Node000006" class="edge">
<title>Node5&#45;&gt;Node6</title>
<g id="a_edge5_Node000005_Node000006"><a xlink:title=" ">
<path fill="none" stroke="#63b8ff" d="M404.64,-111.76C401.89,-111.15 399.15,-110.56 396.5,-110 330.29,-95.96 252.71,-80.67 209.01,-72.17"/>
<polygon fill="#63b8ff" stroke="#63b8ff" points="209.66,-68.73 199.18,-70.26 208.32,-75.6 209.66,-68.73"/>
</a>
</g>
</g>
<!-- Node9 -->
<g id="Node000009" class="node">
<title>Node9</title>
<g id="a_Node000009"><a xlink:title=" ">
<polygon fill="#e0e0e0" stroke="#999999" points="280,-19 227,-19 227,0 280,0 280,-19"/>
<text text-anchor="middle" x="253.5" y="-7" font-family="Helvetica,sans-Serif" font-size="10.00">string.h</text>
</a>
</g>
</g>
<!-- Node5&#45;&gt;Node9 -->
<g id="edge12_Node000005_Node000009" class="edge">
<title>Node5&#45;&gt;Node9</title>
<g id="a_edge12_Node000005_Node000009"><a xlink:title=" ">
<path fill="none" stroke="#63b8ff" d="M404.82,-111.83C356.41,-100.82 265.29,-79.52 260.5,-74 249.94,-61.84 249.11,-43.05 250.36,-29.06"/>
<polygon fill="#63b8ff" stroke="#63b8ff" points="253.84,-29.46 251.67,-19.09 246.9,-28.55 253.84,-29.46"/>
</a>
</g>
</g>
<!-- Node11 -->
<g id="Node000011" class="node">
<title>Node11</title>
<g id="a_Node000011"><a xlink:title=" ">
<polygon fill="#e0e0e0" stroke="#999999" points="322,-74 269,-74 269,-55 322,-55 322,-74"/>
<text text-anchor="middle" x="295.5" y="-62" font-family="Helvetica,sans-Serif" font-size="10.00">stdint.h</text>
</a>
</g>
</g>
<!-- Node5&#45;&gt;Node11 -->
<g id="edge10_Node000005_Node000011" class="edge">
<title>Node5&#45;&gt;Node11</title>
<g id="a_edge10_Node000005_Node000011"><a xlink:title=" ">
<path fill="none" stroke="#63b8ff" d="M412.17,-109.98C389.3,-101.27 353.54,-87.63 327.64,-77.75"/>
<polygon fill="#63b8ff" stroke="#63b8ff" points="328.83,-74.46 318.24,-74.17 326.34,-81 328.83,-74.46"/>
</a>
</g>
</g>
<!-- Node12 -->
<g id="Node000012" class="node">
<title>Node12</title>
<g id="a_Node000012"><a xlink:title=" ">
<polygon fill="#e0e0e0" stroke="#999999" points="393,-74 340,-74 340,-55 393,-55 393,-74"/>
<text text-anchor="middle" x="366.5" y="-62" font-family="Helvetica,sans-Serif" font-size="10.00">stdlib.h</text>
</a>
</g>
</g>
<!-- Node5&#45;&gt;Node12 -->
<g id="edge11_Node000005_Node000012" class="edge">
<title>Node5&#45;&gt;Node12</title>
<g id="a_edge11_Node000005_Node000012"><a xlink:title=" ">
<path fill="none" stroke="#63b8ff" d="M423.57,-109.98C413.42,-102.07 398.08,-90.11 385.85,-80.58"/>
<polygon fill="#63b8ff" stroke="#63b8ff" points="387.66,-77.56 377.62,-74.17 383.36,-83.08 387.66,-77.56"/>
</a>
</g>
</g>
<!-- Node13 -->
<g id="Node000013" class="node">
<title>Node13</title>
<g id="a_Node000013"><a xlink:title=" ">
<polygon fill="#e0e0e0" stroke="#999999" points="458,-74 411,-74 411,-55 458,-55 458,-74"/>
<text text-anchor="middle" x="434.5" y="-62" font-family="Helvetica,sans-Serif" font-size="10.00">cmath</text>
</a>
</g>
</g>
<!-- Node5&#45;&gt;Node13 -->
<g id="edge13_Node000005_Node000013" class="edge">
<title>Node5&#45;&gt;Node13</title>
<g id="a_edge13_Node000005_Node000013"><a xlink:title=" ">
<path fill="none" stroke="#63b8ff" d="M434.5,-109.75C434.5,-102.8 434.5,-92.85 434.5,-84.13"/>
<polygon fill="#63b8ff" stroke="#63b8ff" points="438,-84.09 434.5,-74.09 431,-84.09 438,-84.09"/>
</a>
</g>
</g>
<!-- Node14 -->
<g id="Node000014" class="node">
<title>Node14</title>
<g id="a_Node000014"><a xlink:title=" ">
<polygon fill="#e0e0e0" stroke="#999999" points="520.5,-74 476.5,-74 476.5,-55 520.5,-55 520.5,-74"/>
<text text-anchor="middle" x="498.5" y="-62" font-family="Helvetica,sans-Serif" font-size="10.00">limits</text>
</a>
</g>
</g>
<!-- Node5&#45;&gt;Node14 -->
<g id="edge14_Node000005_Node000014" class="edge">
<title>Node5&#45;&gt;Node14</title>
<g id="a_edge14_Node000005_Node000014"><a xlink:title=" ">
<path fill="none" stroke="#63b8ff" d="M444.78,-109.98C454.34,-102.07 468.78,-90.11 480.28,-80.58"/>
<polygon fill="#63b8ff" stroke="#63b8ff" points="482.56,-83.24 488.03,-74.17 478.1,-77.85 482.56,-83.24"/>
</a>
</g>
</g>
<!-- Node15 -->
<g id="Node000015" class="node">
<title>Node15</title>
<g id="a_Node000015"><a xlink:title=" ">
<polygon fill="#e0e0e0" stroke="#999999" points="604,-74 539,-74 539,-55 604,-55 604,-74"/>
<text text-anchor="middle" x="571.5" y="-62" font-family="Helvetica,sans-Serif" font-size="10.00">stdexcept</text>
</a>
</g>
</g>
<!-- Node5&#45;&gt;Node15 -->
<g id="edge15_Node000005_Node000015" class="edge">
<title>Node5&#45;&gt;Node15</title>
<g id="a_edge15_Node000005_Node000015"><a xlink:title=" ">
<path fill="none" stroke="#63b8ff" d="M456.51,-109.98C478.95,-101.3 513.98,-87.75 539.49,-77.88"/>
<polygon fill="#63b8ff" stroke="#63b8ff" points="541.02,-81.04 549.09,-74.17 538.5,-74.51 541.02,-81.04"/>
</a>
</g>
</g>
<!-- Node16 -->
<g id="Node000016" class="node">
<title>Node16</title>
<g id="a_Node000016"><a xlink:title=" ">
<polygon fill="#e0e0e0" stroke="#999999" points="666.5,-74 622.5,-74 622.5,-55 666.5,-55 666.5,-74"/>
<text text-anchor="middle" x="644.5" y="-62" font-family="Helvetica,sans-Serif" font-size="10.00">string</text>
</a>
</g>
</g>
<!-- Node5&#45;&gt;Node16 -->
<g id="edge16_Node000005_Node000016" class="edge">
<title>Node5&#45;&gt;Node16</title>
<g id="a_edge16_Node000005_Node000016"><a xlink:title=" ">
<path fill="none" stroke="#63b8ff" d="M464.01,-111.39C497.67,-103.24 554.58,-89.3 612.49,-74.22"/>
<polygon fill="#63b8ff" stroke="#63b8ff" points="613.38,-77.61 622.17,-71.69 611.61,-70.83 613.38,-77.61"/>
</a>
</g>
</g>
<!-- Node17 -->
<g id="Node000017" class="node">
<title>Node17</title>
<g id="a_Node000017"><a xlink:title=" ">
<polygon fill="#e0e0e0" stroke="#999999" points="766,-74 685,-74 685,-55 766,-55 766,-74"/>
<text text-anchor="middle" x="725.5" y="-62" font-family="Helvetica,sans-Serif" font-size="10.00">system_error</text>
</a>
</g>
</g>
<!-- Node5&#45;&gt;Node17 -->
<g id="edge17_Node000005_Node000017" class="edge">
<title>Node5&#45;&gt;Node17</title>
<g id="a_edge17_Node000005_Node000017"><a xlink:title=" ">
<path fill="none" stroke="#63b8ff" d="M464,-113.13C513.45,-104.12 613.61,-85.88 674.61,-74.77"/>
<polygon fill="#63b8ff" stroke="#63b8ff" points="675.58,-78.15 684.79,-72.92 674.32,-71.26 675.58,-78.15"/>
</a>
</g>
</g>
<!-- Node7 -->
<g id="Node000007" class="node">
<title>Node7</title>
<g id="a_Node000007"><a xlink:title=" ">
<polygon fill="#e0e0e0" stroke="#999999" points="53,-19 0,-19 0,0 53,0 53,-19"/>
<text text-anchor="middle" x="26.5" y="-7" font-family="Helvetica,sans-Serif" font-size="10.00">limits.h</text>
</a>
</g>
</g>
<!-- Node6&#45;&gt;Node7 -->
<g id="edge6_Node000006_Node000007" class="edge">
<title>Node6&#45;&gt;Node7</title>
<g id="a_edge6_Node000006_Node000007"><a xlink:title=" ">
<path fill="none" stroke="#63b8ff" d="M150.72,-54.98C126.27,-46.23 87.97,-32.51 60.35,-22.62"/>
<polygon fill="#63b8ff" stroke="#63b8ff" points="61.31,-19.25 50.71,-19.17 58.95,-25.84 61.31,-19.25"/>
</a>
</g>
</g>
<!-- Node8 -->
<g id="Node000008" class="node">
<title>Node8</title>
<g id="a_Node000008"><a xlink:title=" ">
<polygon fill="#e0e0e0" stroke="#999999" points="121.5,-19 71.5,-19 71.5,0 121.5,0 121.5,-19"/>
<text text-anchor="middle" x="96.5" y="-7" font-family="Helvetica,sans-Serif" font-size="10.00">stdio.h</text>
</a>
</g>
</g>
<!-- Node6&#45;&gt;Node8 -->
<g id="edge7_Node000006_Node000008" class="edge">
<title>Node6&#45;&gt;Node8</title>
<g id="a_edge7_Node000006_Node000008"><a xlink:title=" ">
<path fill="none" stroke="#63b8ff" d="M161.97,-54.98C150.1,-46.92 132.04,-34.65 117.89,-25.03"/>
<polygon fill="#63b8ff" stroke="#63b8ff" points="119.5,-21.9 109.26,-19.17 115.56,-27.69 119.5,-21.9"/>
</a>
</g>
</g>
<!-- Node6&#45;&gt;Node9 -->
<g id="edge8_Node000006_Node000009" class="edge">
<title>Node6&#45;&gt;Node9</title>
<g id="a_edge8_Node000006_Node000009"><a xlink:title=" ">
<path fill="none" stroke="#63b8ff" d="M187.19,-54.98C199.33,-46.84 217.86,-34.41 232.25,-24.76"/>
<polygon fill="#63b8ff" stroke="#63b8ff" points="234.22,-27.65 240.58,-19.17 230.32,-21.84 234.22,-27.65"/>
</a>
</g>
</g>
<!-- Node10 -->
<g id="Node000010" class="node">
<title>Node10</title>
<g id="a_Node000010"><a xlink:title=" ">
<polygon fill="#e0e0e0" stroke="#999999" points="209,-19 140,-19 140,0 209,0 209,-19"/>
<text text-anchor="middle" x="174.5" y="-7" font-family="Helvetica,sans-Serif" font-size="10.00">type_traits</text>
</a>
</g>
</g>
<!-- Node6&#45;&gt;Node10 -->
<g id="edge9_Node000006_Node000010" class="edge">
<title>Node6&#45;&gt;Node10</title>
<g id="a_edge9_Node000006_Node000010"><a xlink:title=" ">
<path fill="none" stroke="#63b8ff" d="M174.5,-54.75C174.5,-47.8 174.5,-37.85 174.5,-29.13"/>
<polygon fill="#63b8ff" stroke="#63b8ff" points="178,-29.09 174.5,-19.09 171,-29.09 178,-29.09"/>
</a>
</g>
</g>
</g>
</svg>
