<?xml version="1.0" encoding="UTF-8" standalone="no"?>
<!DOCTYPE svg PUBLIC "-//W3C//DTD SVG 1.1//EN"
 "http://www.w3.org/Graphics/SVG/1.1/DTD/svg11.dtd">
<!-- Generated by graphviz version 2.43.0 (0)
 -->
<!-- Title: vformat_to_n Pages: 1 -->
<svg width="716pt" height="284pt"
 viewBox="0.00 0.00 716.00 283.50" xmlns="http://www.w3.org/2000/svg" xmlns:xlink="http://www.w3.org/1999/xlink">
<g id="graph0" class="graph" transform="scale(1 1) rotate(0) translate(4 279.5)">
<title>vformat_to_n</title>
<!-- Node1 -->
<g id="Node000001" class="node">
<title>Node1</title>
<g id="a_Node000001"><a xlink:title=" ">
<polygon fill="#999999" stroke="#666666" points="82,-153 0,-153 0,-134 82,-134 82,-153"/>
<text text-anchor="middle" x="41" y="-141" font-family="Helvetica,sans-Serif" font-size="10.00">vformat_to_n</text>
</a>
</g>
</g>
<!-- Node2 -->
<g id="Node000002" class="node">
<title>Node2</title>
<g id="a_Node000002"><a xlink:href="namespacedetail.html#a374a461d344b73468831b40acf5e4635" target="_top" xlink:title=" ">
<polygon fill="white" stroke="#666666" points="222,-153 118,-153 118,-134 222,-134 222,-153"/>
<text text-anchor="middle" x="170" y="-141" font-family="Helvetica,sans-Serif" font-size="10.00">detail::vformat_to</text>
</a>
</g>
</g>
<!-- Node1&#45;&gt;Node2 -->
<g id="edge1_Node000001_Node000002" class="edge">
<title>Node1&#45;&gt;Node2</title>
<g id="a_edge1_Node000001_Node000002"><a xlink:title=" ">
<path fill="none" stroke="#63b8ff" d="M82.18,-143.5C90.33,-143.5 99.07,-143.5 107.76,-143.5"/>
<polygon fill="#63b8ff" stroke="#63b8ff" points="107.89,-147 117.89,-143.5 107.89,-140 107.89,-147"/>
</a>
</g>
</g>
<!-- Node3 -->
<g id="Node000003" class="node">
<title>Node3</title>
<g id="a_Node000003"><a xlink:href="classbasic__appender.html#a3f0cd72d9279e98079287ae5c6cc53c0" target="_top" xlink:title=" ">
<polygon fill="white" stroke="#666666" points="386,-275.5 261,-275.5 261,-245.5 386,-245.5 386,-275.5"/>
<text text-anchor="start" x="269" y="-263.5" font-family="Helvetica,sans-Serif" font-size="10.00">basic_appender::basic</text>
<text text-anchor="middle" x="323.5" y="-252.5" font-family="Helvetica,sans-Serif" font-size="10.00">_appender</text>
</a>
</g>
</g>
<!-- Node2&#45;&gt;Node3 -->
<g id="edge2_Node000002_Node000003" class="edge">
<title>Node2&#45;&gt;Node3</title>
<g id="a_edge2_Node000002_Node000003"><a xlink:title=" ">
<path fill="none" stroke="#63b8ff" d="M177.56,-153.04C190.74,-171.58 222.3,-212.73 258,-236.5 260.38,-238.08 262.87,-239.58 265.44,-240.99"/>
<polygon fill="#63b8ff" stroke="#63b8ff" points="263.91,-244.14 274.42,-245.48 267.04,-237.87 263.91,-244.14"/>
</a>
</g>
</g>
<!-- Node4 -->
<g id="Node000004" class="node">
<title>Node4</title>
<g id="a_Node000004"><a xlink:href="classbasic__string__view.html#a39cdfe061dc6d64a3adc230b62d8a026" target="_top" xlink:title=" ">
<polygon fill="white" stroke="#666666" points="389,-227 258,-227 258,-208 389,-208 389,-227"/>
<text text-anchor="middle" x="323.5" y="-215" font-family="Helvetica,sans-Serif" font-size="10.00">basic_string_view::data</text>
</a>
</g>
</g>
<!-- Node2&#45;&gt;Node4 -->
<g id="edge3_Node000002_Node000004" class="edge">
<title>Node2&#45;&gt;Node4</title>
<g id="a_edge3_Node000002_Node000004"><a xlink:title=" ">
<path fill="none" stroke="#63b8ff" d="M183.28,-153.12C199.54,-165.43 229.49,-186.7 258,-199.5 262.35,-201.45 266.95,-203.24 271.62,-204.86"/>
<polygon fill="#63b8ff" stroke="#63b8ff" points="270.65,-208.23 281.25,-207.98 272.81,-201.57 270.65,-208.23"/>
</a>
</g>
</g>
<!-- Node5 -->
<g id="Node000005" class="node">
<title>Node5</title>
<g id="a_Node000005"><a xlink:href="namespacedetail.html#a60a15c04518d5955ecfae225402491bb" target="_top" xlink:title=" ">
<polygon fill="white" stroke="#666666" points="365,-190 282,-190 282,-171 365,-171 365,-190"/>
<text text-anchor="middle" x="323.5" y="-178" font-family="Helvetica,sans-Serif" font-size="10.00">detail::equal2</text>
</a>
</g>
</g>
<!-- Node2&#45;&gt;Node5 -->
<g id="edge4_Node000002_Node000005" class="edge">
<title>Node2&#45;&gt;Node5</title>
<g id="a_edge4_Node000002_Node000005"><a xlink:title=" ">
<path fill="none" stroke="#63b8ff" d="M210.02,-153.03C229.38,-157.76 252.97,-163.52 273.53,-168.54"/>
<polygon fill="#63b8ff" stroke="#63b8ff" points="272.81,-171.97 283.35,-170.94 274.47,-165.17 272.81,-171.97"/>
</a>
</g>
</g>
<!-- Node6 -->
<g id="Node000006" class="node">
<title>Node6</title>
<g id="a_Node000006"><a xlink:href="classbasic__format__args.html#a3339d3a4e4daaf7bb0de1a8084e7f086" target="_top" xlink:title="Returns the argument with the specified id.">
<polygon fill="white" stroke="#666666" points="387.5,-153 259.5,-153 259.5,-134 387.5,-134 387.5,-153"/>
<text text-anchor="middle" x="323.5" y="-141" font-family="Helvetica,sans-Serif" font-size="10.00">basic_format_args::get</text>
</a>
</g>
</g>
<!-- Node2&#45;&gt;Node6 -->
<g id="edge5_Node000002_Node000006" class="edge">
<title>Node2&#45;&gt;Node6</title>
<g id="a_edge5_Node000002_Node000006"><a xlink:title=" ">
<path fill="none" stroke="#63b8ff" d="M222.29,-143.5C230.96,-143.5 240.11,-143.5 249.21,-143.5"/>
<polygon fill="#63b8ff" stroke="#63b8ff" points="249.44,-147 259.44,-143.5 249.44,-140 249.44,-147"/>
</a>
</g>
</g>
<!-- Node10 -->
<g id="Node000010" class="node">
<title>Node10</title>
<g id="a_Node000010"><a xlink:href="classparse__context.html#a9da9230b8f03bb6579efdcaae4b18003" target="_top" xlink:title=" ">
<polygon fill="white" stroke="#666666" points="383,-115.5 264,-115.5 264,-85.5 383,-85.5 383,-115.5"/>
<text text-anchor="start" x="272" y="-103.5" font-family="Helvetica,sans-Serif" font-size="10.00">parse_context::parse</text>
<text text-anchor="middle" x="323.5" y="-92.5" font-family="Helvetica,sans-Serif" font-size="10.00">_context</text>
</a>
</g>
</g>
<!-- Node2&#45;&gt;Node10 -->
<g id="edge10_Node000002_Node000010" class="edge">
<title>Node2&#45;&gt;Node10</title>
<g id="a_edge10_Node000002_Node000010"><a xlink:title=" ">
<path fill="none" stroke="#63b8ff" d="M204.62,-133.96C220.88,-129.34 240.93,-123.65 259.86,-118.28"/>
<polygon fill="#63b8ff" stroke="#63b8ff" points="260.96,-121.6 269.63,-115.51 259.05,-114.87 260.96,-121.6"/>
</a>
</g>
</g>
<!-- Node11 -->
<g id="Node000011" class="node">
<title>Node11</title>
<g id="a_Node000011"><a xlink:href="namespacedetail.html#a90b356f92e340e20002ede151cfc6fab" target="_top" xlink:title=" ">
<polygon fill="white" stroke="#666666" points="381.5,-67.5 265.5,-67.5 265.5,-37.5 381.5,-37.5 381.5,-67.5"/>
<text text-anchor="start" x="273.5" y="-55.5" font-family="Helvetica,sans-Serif" font-size="10.00">detail::parse_format</text>
<text text-anchor="middle" x="323.5" y="-44.5" font-family="Helvetica,sans-Serif" font-size="10.00">_string</text>
</a>
</g>
</g>
<!-- Node2&#45;&gt;Node11 -->
<g id="edge11_Node000002_Node000011" class="edge">
<title>Node2&#45;&gt;Node11</title>
<g id="a_edge11_Node000002_Node000011"><a xlink:title=" ">
<path fill="none" stroke="#63b8ff" d="M181.26,-133.93C196.83,-119.8 227.82,-93.23 258,-76.5 261.02,-74.83 264.17,-73.23 267.4,-71.7"/>
<polygon fill="#63b8ff" stroke="#63b8ff" points="268.9,-74.87 276.62,-67.62 266.06,-68.47 268.9,-74.87"/>
</a>
</g>
</g>
<!-- Node12 -->
<g id="Node000012" class="node">
<title>Node12</title>
<g id="a_Node000012"><a xlink:href="classbasic__string__view.html#a216bbe1b012b590698d7bb4e96d1af3f" target="_top" xlink:title=" ">
<polygon fill="white" stroke="#666666" points="387.5,-19 259.5,-19 259.5,0 387.5,0 387.5,-19"/>
<text text-anchor="middle" x="323.5" y="-7" font-family="Helvetica,sans-Serif" font-size="10.00">basic_string_view::size</text>
</a>
</g>
</g>
<!-- Node2&#45;&gt;Node12 -->
<g id="edge12_Node000002_Node000012" class="edge">
<title>Node2&#45;&gt;Node12</title>
<g id="a_edge12_Node000002_Node000012"><a xlink:title=" ">
<path fill="none" stroke="#63b8ff" d="M175.59,-133.82C186.58,-111.69 216.61,-57.11 258,-28.5 260.87,-26.51 263.95,-24.73 267.16,-23.14"/>
<polygon fill="#63b8ff" stroke="#63b8ff" points="268.65,-26.3 276.43,-19.11 265.86,-19.88 268.65,-26.3"/>
</a>
</g>
</g>
<!-- Node7 -->
<g id="Node000007" class="node">
<title>Node7</title>
<g id="a_Node000007"><a xlink:href="classbasic__format__args.html#a812f954be08646744a14d71f20b97830" target="_top" xlink:title=" ">
<polygon fill="white" stroke="#666666" points="708,-179.5 595,-179.5 595,-149.5 708,-149.5 708,-179.5"/>
<text text-anchor="start" x="603" y="-167.5" font-family="Helvetica,sans-Serif" font-size="10.00">basic_format_args::</text>
<text text-anchor="middle" x="651.5" y="-156.5" font-family="Helvetica,sans-Serif" font-size="10.00">is_packed</text>
</a>
</g>
</g>
<!-- Node6&#45;&gt;Node7 -->
<g id="edge6_Node000006_Node000007" class="edge">
<title>Node6&#45;&gt;Node7</title>
<g id="a_edge6_Node000006_Node000007"><a xlink:title=" ">
<path fill="none" stroke="#63b8ff" d="M356.29,-153.11C375.89,-158.53 401.66,-164.75 425,-167.5 478.39,-173.79 539.38,-172.47 584.45,-169.89"/>
<polygon fill="#63b8ff" stroke="#63b8ff" points="584.92,-173.37 594.69,-169.27 584.49,-166.38 584.92,-173.37"/>
</a>
</g>
</g>
<!-- Node8 -->
<g id="Node000008" class="node">
<title>Node8</title>
<g id="a_Node000008"><a xlink:href="classbasic__format__args.html#a7747894fe7c14fb78260b53ca7702782" target="_top" xlink:title=" ">
<polygon fill="white" stroke="#666666" points="548.5,-158.5 435.5,-158.5 435.5,-128.5 548.5,-128.5 548.5,-158.5"/>
<text text-anchor="start" x="443.5" y="-146.5" font-family="Helvetica,sans-Serif" font-size="10.00">basic_format_args::</text>
<text text-anchor="middle" x="492" y="-135.5" font-family="Helvetica,sans-Serif" font-size="10.00">max_size</text>
</a>
</g>
</g>
<!-- Node6&#45;&gt;Node8 -->
<g id="edge7_Node000006_Node000008" class="edge">
<title>Node6&#45;&gt;Node8</title>
<g id="a_edge7_Node000006_Node000008"><a xlink:title=" ">
<path fill="none" stroke="#63b8ff" d="M387.92,-143.5C400.13,-143.5 412.94,-143.5 425.21,-143.5"/>
<polygon fill="#63b8ff" stroke="#63b8ff" points="425.38,-147 435.38,-143.5 425.38,-140 425.38,-147"/>
</a>
</g>
</g>
<!-- Node9 -->
<g id="Node000009" class="node">
<title>Node9</title>
<g id="a_Node000009"><a xlink:href="classbasic__format__args.html#a4d5e597c31ce51609d7fa770c83dad39" target="_top" xlink:title=" ">
<polygon fill="white" stroke="#666666" points="559,-110 425,-110 425,-91 559,-91 559,-110"/>
<text text-anchor="middle" x="492" y="-98" font-family="Helvetica,sans-Serif" font-size="10.00">basic_format_args::type</text>
</a>
</g>
</g>
<!-- Node6&#45;&gt;Node9 -->
<g id="edge9_Node000006_Node000009" class="edge">
<title>Node6&#45;&gt;Node9</title>
<g id="a_edge9_Node000006_Node000009"><a xlink:title=" ">
<path fill="none" stroke="#63b8ff" d="M361.45,-133.96C385.92,-127.64 418.21,-119.3 444.43,-112.53"/>
<polygon fill="#63b8ff" stroke="#63b8ff" points="445.34,-115.91 454.15,-110.02 443.59,-109.13 445.34,-115.91"/>
</a>
</g>
</g>
<!-- Node8&#45;&gt;Node7 -->
<g id="edge8_Node000008_Node000007" class="edge">
<title>Node8&#45;&gt;Node7</title>
<g id="a_edge8_Node000008_Node000007"><a xlink:title=" ">
<path fill="none" stroke="#63b8ff" d="M548.53,-150.9C560.29,-152.47 572.81,-154.14 584.91,-155.75"/>
<polygon fill="#63b8ff" stroke="#63b8ff" points="584.57,-159.24 594.94,-157.09 585.49,-152.3 584.57,-159.24"/>
</a>
</g>
</g>
</g>
</svg>
