<?xml version="1.0" encoding="UTF-8" standalone="no"?>
<!DOCTYPE svg PUBLIC "-//W3C//DTD SVG 1.1//EN"
 "http://www.w3.org/Graphics/SVG/1.1/DTD/svg11.dtd">
<!-- Generated by graphviz version 2.43.0 (0)
 -->
<!-- Title: thirdparty/fmt/include/fmt/base.h Pages: 1 -->
<svg width="1314pt" height="302pt"
 viewBox="0.00 0.00 1313.50 302.00" xmlns="http://www.w3.org/2000/svg" xmlns:xlink="http://www.w3.org/1999/xlink">
<g id="graph0" class="graph" transform="scale(1 1) rotate(0) translate(4 298)">
<title>thirdparty/fmt/include/fmt/base.h</title>
<!-- Node1 -->
<g id="Node000001" class="node">
<title>Node1</title>
<g id="a_Node000001"><a xlink:title=" ">
<polygon fill="#999999" stroke="#666666" points="262.5,-294 139.5,-294 139.5,-264 262.5,-264 262.5,-294"/>
<text text-anchor="start" x="147.5" y="-282" font-family="Helvetica,sans-Serif" font-size="10.00">thirdparty/fmt/include</text>
<text text-anchor="middle" x="201" y="-271" font-family="Helvetica,sans-Serif" font-size="10.00">/fmt/base.h</text>
</a>
</g>
</g>
<!-- Node2 -->
<g id="Node000002" class="node">
<title>Node2</title>
<g id="a_Node000002"><a xlink:href="receiver-normal_8cpp.html" target="_top" xlink:title="CHRONOS&#45;LoRa Receiver program (Normal)">
<polygon fill="white" stroke="#666666" points="132,-156.5 0,-156.5 0,-137.5 132,-137.5 132,-156.5"/>
<text text-anchor="middle" x="66" y="-144.5" font-family="Helvetica,sans-Serif" font-size="10.00">src/receiver&#45;normal.cpp</text>
</a>
</g>
</g>
<!-- Node1&#45;&gt;Node2 -->
<g id="edge1_Node000001_Node000002" class="edge">
<title>Node1&#45;&gt;Node2</title>
<g id="a_edge1_Node000001_Node000002"><a xlink:title=" ">
<path fill="none" stroke="#63b8ff" d="M131.31,-260.15C114.06,-252.74 97.08,-242.38 85,-228 67.37,-207.01 65.5,-172.51 65.66,-156.56"/>
<polygon fill="#63b8ff" stroke="#63b8ff" points="130.3,-263.52 140.89,-263.97 132.9,-257.02 130.3,-263.52"/>
</a>
</g>
</g>
<!-- Node3 -->
<g id="Node000003" class="node">
<title>Node3</title>
<g id="a_Node000003"><a xlink:href="transmitter-normal_8cpp.html" target="_top" xlink:title="CHRONOS&#45;LoRa Transmitter program (Normal)">
<polygon fill="white" stroke="#666666" points="297.5,-156.5 150.5,-156.5 150.5,-137.5 297.5,-137.5 297.5,-156.5"/>
<text text-anchor="middle" x="224" y="-144.5" font-family="Helvetica,sans-Serif" font-size="10.00">src/transmitter&#45;normal.cpp</text>
</a>
</g>
</g>
<!-- Node1&#45;&gt;Node3 -->
<g id="edge2_Node000001_Node000003" class="edge">
<title>Node1&#45;&gt;Node3</title>
<g id="a_edge2_Node000001_Node000003"><a xlink:title=" ">
<path fill="none" stroke="#63b8ff" d="M215.35,-254.89C219.66,-246.7 223.82,-237.23 226,-228 232,-202.58 228.11,-171.35 225.62,-156.55"/>
<polygon fill="#63b8ff" stroke="#63b8ff" points="212.18,-253.38 210.33,-263.81 218.28,-256.81 212.18,-253.38"/>
</a>
</g>
</g>
<!-- Node4 -->
<g id="Node000004" class="node">
<title>Node4</title>
<g id="a_Node000004"><a xlink:href="core_8h.html" target="_top" xlink:title=" ">
<polygon fill="white" stroke="#666666" points="217.5,-228 94.5,-228 94.5,-198 217.5,-198 217.5,-228"/>
<text text-anchor="start" x="102.5" y="-216" font-family="Helvetica,sans-Serif" font-size="10.00">thirdparty/fmt/include</text>
<text text-anchor="middle" x="156" y="-205" font-family="Helvetica,sans-Serif" font-size="10.00">/fmt/core.h</text>
</a>
</g>
</g>
<!-- Node1&#45;&gt;Node4 -->
<g id="edge3_Node000001_Node000004" class="edge">
<title>Node1&#45;&gt;Node4</title>
<g id="a_edge3_Node000001_Node000004"><a xlink:title=" ">
<path fill="none" stroke="#63b8ff" d="M185.2,-255.53C178.8,-246.43 171.61,-236.19 165.96,-228.16"/>
<polygon fill="#63b8ff" stroke="#63b8ff" points="182.4,-257.63 191.01,-263.8 188.12,-253.6 182.4,-257.63"/>
</a>
</g>
</g>
<!-- Node5 -->
<g id="Node000005" class="node">
<title>Node5</title>
<g id="a_Node000005"><a xlink:href="format_8h.html" target="_top" xlink:title=" ">
<polygon fill="white" stroke="#666666" points="798.5,-228 675.5,-228 675.5,-198 798.5,-198 798.5,-228"/>
<text text-anchor="start" x="683.5" y="-216" font-family="Helvetica,sans-Serif" font-size="10.00">thirdparty/fmt/include</text>
<text text-anchor="middle" x="737" y="-205" font-family="Helvetica,sans-Serif" font-size="10.00">/fmt/format.h</text>
</a>
</g>
</g>
<!-- Node1&#45;&gt;Node5 -->
<g id="edge6_Node000001_Node000005" class="edge">
<title>Node1&#45;&gt;Node5</title>
<g id="a_edge6_Node000001_Node000005"><a xlink:title=" ">
<path fill="none" stroke="#63b8ff" d="M272.72,-269.44C378.78,-256.77 575.62,-233.27 675.48,-221.35"/>
<polygon fill="#63b8ff" stroke="#63b8ff" points="272.26,-265.97 262.75,-270.63 273.09,-272.92 272.26,-265.97"/>
</a>
</g>
</g>
<!-- Node4&#45;&gt;Node2 -->
<g id="edge4_Node000004_Node000002" class="edge">
<title>Node4&#45;&gt;Node2</title>
<g id="a_edge4_Node000004_Node000002"><a xlink:title=" ">
<path fill="none" stroke="#63b8ff" d="M127.7,-191.87C111.04,-180.03 90.82,-165.65 78.18,-156.66"/>
<polygon fill="#63b8ff" stroke="#63b8ff" points="125.85,-194.85 136.03,-197.8 129.9,-189.15 125.85,-194.85"/>
</a>
</g>
</g>
<!-- Node4&#45;&gt;Node3 -->
<g id="edge5_Node000004_Node000003" class="edge">
<title>Node4&#45;&gt;Node3</title>
<g id="a_edge5_Node000004_Node000003"><a xlink:title=" ">
<path fill="none" stroke="#63b8ff" d="M178.38,-190.93C190.69,-179.35 205.29,-165.61 214.6,-156.84"/>
<polygon fill="#63b8ff" stroke="#63b8ff" points="175.97,-188.39 171.09,-197.8 180.77,-193.49 175.97,-188.39"/>
</a>
</g>
</g>
<!-- Node6 -->
<g id="Node000006" class="node">
<title>Node6</title>
<g id="a_Node000006"><a xlink:href="args_8h.html" target="_top" xlink:title=" ">
<polygon fill="white" stroke="#666666" points="1260.5,-162 1137.5,-162 1137.5,-132 1260.5,-132 1260.5,-162"/>
<text text-anchor="start" x="1145.5" y="-150" font-family="Helvetica,sans-Serif" font-size="10.00">thirdparty/fmt/include</text>
<text text-anchor="middle" x="1199" y="-139" font-family="Helvetica,sans-Serif" font-size="10.00">/fmt/args.h</text>
</a>
</g>
</g>
<!-- Node5&#45;&gt;Node6 -->
<g id="edge7_Node000005_Node000006" class="edge">
<title>Node5&#45;&gt;Node6</title>
<g id="a_edge7_Node000005_Node000006"><a xlink:title=" ">
<path fill="none" stroke="#63b8ff" d="M808.8,-203.86C886.43,-194.79 1013.75,-179.13 1123,-162 1127.64,-161.27 1132.43,-160.48 1137.25,-159.66"/>
<polygon fill="#63b8ff" stroke="#63b8ff" points="808.18,-200.41 798.65,-205.04 808.99,-207.36 808.18,-200.41"/>
</a>
</g>
</g>
<!-- Node7 -->
<g id="Node000007" class="node">
<title>Node7</title>
<g id="a_Node000007"><a xlink:href="chrono_8h.html" target="_top" xlink:title=" ">
<polygon fill="white" stroke="#666666" points="477.5,-162 354.5,-162 354.5,-132 477.5,-132 477.5,-162"/>
<text text-anchor="start" x="362.5" y="-150" font-family="Helvetica,sans-Serif" font-size="10.00">thirdparty/fmt/include</text>
<text text-anchor="middle" x="416" y="-139" font-family="Helvetica,sans-Serif" font-size="10.00">/fmt/chrono.h</text>
</a>
</g>
</g>
<!-- Node5&#45;&gt;Node7 -->
<g id="edge8_Node000005_Node000007" class="edge">
<title>Node5&#45;&gt;Node7</title>
<g id="a_edge8_Node000005_Node000007"><a xlink:title=" ">
<path fill="none" stroke="#63b8ff" d="M665.57,-197.76C609.16,-186.51 531.26,-170.98 477.58,-160.28"/>
<polygon fill="#63b8ff" stroke="#63b8ff" points="665,-201.21 675.49,-199.74 666.37,-194.35 665,-201.21"/>
</a>
</g>
</g>
<!-- Node9 -->
<g id="Node000009" class="node">
<title>Node9</title>
<g id="a_Node000009"><a xlink:href="std_8h.html" target="_top" xlink:title=" ">
<polygon fill="white" stroke="#666666" points="465.5,-30 342.5,-30 342.5,0 465.5,0 465.5,-30"/>
<text text-anchor="start" x="350.5" y="-18" font-family="Helvetica,sans-Serif" font-size="10.00">thirdparty/fmt/include</text>
<text text-anchor="middle" x="404" y="-7" font-family="Helvetica,sans-Serif" font-size="10.00">/fmt/std.h</text>
</a>
</g>
</g>
<!-- Node5&#45;&gt;Node9 -->
<g id="edge20_Node000005_Node000009" class="edge">
<title>Node5&#45;&gt;Node9</title>
<g id="a_edge20_Node000005_Node000009"><a xlink:title=" ">
<path fill="none" stroke="#63b8ff" d="M665.2,-207.91C557.85,-201.04 365.78,-185.6 345,-162 316.8,-129.98 327.06,-104.71 345,-66 352,-50.89 366.06,-38.69 378.7,-30.12"/>
<polygon fill="#63b8ff" stroke="#63b8ff" points="665.12,-211.41 675.32,-208.54 665.56,-204.42 665.12,-211.41"/>
</a>
</g>
</g>
<!-- Node10 -->
<g id="Node000010" class="node">
<title>Node10</title>
<g id="a_Node000010"><a xlink:href="xchar_8h.html" target="_top" xlink:title=" ">
<polygon fill="white" stroke="#666666" points="651.5,-30 528.5,-30 528.5,0 651.5,0 651.5,-30"/>
<text text-anchor="start" x="536.5" y="-18" font-family="Helvetica,sans-Serif" font-size="10.00">thirdparty/fmt/include</text>
<text text-anchor="middle" x="590" y="-7" font-family="Helvetica,sans-Serif" font-size="10.00">/fmt/xchar.h</text>
</a>
</g>
</g>
<!-- Node5&#45;&gt;Node10 -->
<g id="edge21_Node000005_Node000010" class="edge">
<title>Node5&#45;&gt;Node10</title>
<g id="a_edge21_Node000005_Node000010"><a xlink:title=" ">
<path fill="none" stroke="#63b8ff" d="M808.94,-212.45C901.42,-211.31 1054.36,-203.05 1090,-162 1098.74,-151.93 1098.29,-142.44 1090,-132 1035.88,-63.89 773.46,-32.2 651.96,-20.99"/>
<polygon fill="#63b8ff" stroke="#63b8ff" points="808.77,-208.95 798.8,-212.55 808.84,-215.95 808.77,-208.95"/>
</a>
</g>
</g>
<!-- Node11 -->
<g id="Node000011" class="node">
<title>Node11</title>
<g id="a_Node000011"><a xlink:href="home_2runner_2work_2CHRONOS-LoRa_2CHRONOS-LoRa_2thirdparty_2fmt_2include_2fmt_2color_8h.html" target="_top" xlink:title=" ">
<polygon fill="white" stroke="#666666" points="1305.5,-96 1182.5,-96 1182.5,-66 1305.5,-66 1305.5,-96"/>
<text text-anchor="start" x="1190.5" y="-84" font-family="Helvetica,sans-Serif" font-size="10.00">thirdparty/fmt/include</text>
<text text-anchor="middle" x="1244" y="-73" font-family="Helvetica,sans-Serif" font-size="10.00">/fmt/color.h</text>
</a>
</g>
</g>
<!-- Node5&#45;&gt;Node11 -->
<g id="edge12_Node000005_Node000011" class="edge">
<title>Node5&#45;&gt;Node11</title>
<g id="a_edge12_Node000005_Node000011"><a xlink:title=" ">
<path fill="none" stroke="#63b8ff" d="M808.7,-210.53C946.96,-206.95 1239.53,-195.46 1270,-162 1286.91,-143.43 1269.36,-113.7 1256.02,-96.19"/>
<polygon fill="#63b8ff" stroke="#63b8ff" points="808.52,-207.03 798.62,-210.78 808.7,-214.03 808.52,-207.03"/>
</a>
</g>
</g>
<!-- Node12 -->
<g id="Node000012" class="node">
<title>Node12</title>
<g id="a_Node000012"><a xlink:href="compile_8h.html" target="_top" xlink:title=" ">
<polygon fill="white" stroke="#666666" points="657.5,-162 534.5,-162 534.5,-132 657.5,-132 657.5,-162"/>
<text text-anchor="start" x="542.5" y="-150" font-family="Helvetica,sans-Serif" font-size="10.00">thirdparty/fmt/include</text>
<text text-anchor="middle" x="596" y="-139" font-family="Helvetica,sans-Serif" font-size="10.00">/fmt/compile.h</text>
</a>
</g>
</g>
<!-- Node5&#45;&gt;Node12 -->
<g id="edge14_Node000005_Node000012" class="edge">
<title>Node5&#45;&gt;Node12</title>
<g id="a_edge14_Node000005_Node000012"><a xlink:title=" ">
<path fill="none" stroke="#63b8ff" d="M696.87,-193.78C674.64,-183.69 647.43,-171.34 626.87,-162.01"/>
<polygon fill="#63b8ff" stroke="#63b8ff" points="695.5,-197.01 706.06,-197.95 698.4,-190.63 695.5,-197.01"/>
</a>
</g>
</g>
<!-- Node13 -->
<g id="Node000013" class="node">
<title>Node13</title>
<g id="a_Node000013"><a xlink:href="format-inl_8h.html" target="_top" xlink:title=" ">
<polygon fill="white" stroke="#666666" points="798.5,-162 675.5,-162 675.5,-132 798.5,-132 798.5,-162"/>
<text text-anchor="start" x="683.5" y="-150" font-family="Helvetica,sans-Serif" font-size="10.00">thirdparty/fmt/include</text>
<text text-anchor="middle" x="737" y="-139" font-family="Helvetica,sans-Serif" font-size="10.00">/fmt/format&#45;inl.h</text>
</a>
</g>
</g>
<!-- Node5&#45;&gt;Node13 -->
<g id="edge15_Node000005_Node000013" class="edge">
<title>Node5&#45;&gt;Node13</title>
<g id="a_edge15_Node000005_Node000013"><a xlink:title=" ">
<path fill="none" stroke="#63b8ff" d="M737,-187.54C737,-178.96 737,-169.61 737,-162.16"/>
<polygon fill="#63b8ff" stroke="#63b8ff" points="733.5,-187.8 737,-197.8 740.5,-187.8 733.5,-187.8"/>
</a>
</g>
</g>
<!-- Node14 -->
<g id="Node000014" class="node">
<title>Node14</title>
<g id="a_Node000014"><a xlink:href="os_8h.html" target="_top" xlink:title=" ">
<polygon fill="white" stroke="#666666" points="939.5,-162 816.5,-162 816.5,-132 939.5,-132 939.5,-162"/>
<text text-anchor="start" x="824.5" y="-150" font-family="Helvetica,sans-Serif" font-size="10.00">thirdparty/fmt/include</text>
<text text-anchor="middle" x="878" y="-139" font-family="Helvetica,sans-Serif" font-size="10.00">/fmt/os.h</text>
</a>
</g>
</g>
<!-- Node5&#45;&gt;Node14 -->
<g id="edge16_Node000005_Node000014" class="edge">
<title>Node5&#45;&gt;Node14</title>
<g id="a_edge16_Node000005_Node000014"><a xlink:title=" ">
<path fill="none" stroke="#63b8ff" d="M777.13,-193.78C799.36,-183.69 826.57,-171.34 847.13,-162.01"/>
<polygon fill="#63b8ff" stroke="#63b8ff" points="775.6,-190.63 767.94,-197.95 778.5,-197.01 775.6,-190.63"/>
</a>
</g>
</g>
<!-- Node15 -->
<g id="Node000015" class="node">
<title>Node15</title>
<g id="a_Node000015"><a xlink:href="printf_8h.html" target="_top" xlink:title=" ">
<polygon fill="white" stroke="#666666" points="1080.5,-162 957.5,-162 957.5,-132 1080.5,-132 1080.5,-162"/>
<text text-anchor="start" x="965.5" y="-150" font-family="Helvetica,sans-Serif" font-size="10.00">thirdparty/fmt/include</text>
<text text-anchor="middle" x="1019" y="-139" font-family="Helvetica,sans-Serif" font-size="10.00">/fmt/printf.h</text>
</a>
</g>
</g>
<!-- Node5&#45;&gt;Node15 -->
<g id="edge17_Node000005_Node000015" class="edge">
<title>Node5&#45;&gt;Node15</title>
<g id="a_edge17_Node000005_Node000015"><a xlink:title=" ">
<path fill="none" stroke="#63b8ff" d="M808.41,-195.79C854.27,-185.39 913.24,-172 957.11,-162.05"/>
<polygon fill="#63b8ff" stroke="#63b8ff" points="807.51,-192.41 798.54,-198.03 809.06,-199.23 807.51,-192.41"/>
</a>
</g>
</g>
<!-- Node16 -->
<g id="Node000016" class="node">
<title>Node16</title>
<g id="a_Node000016"><a xlink:href="ranges_8h.html" target="_top" xlink:title=" ">
<polygon fill="white" stroke="#666666" points="640.5,-96 517.5,-96 517.5,-66 640.5,-66 640.5,-96"/>
<text text-anchor="start" x="525.5" y="-84" font-family="Helvetica,sans-Serif" font-size="10.00">thirdparty/fmt/include</text>
<text text-anchor="middle" x="579" y="-73" font-family="Helvetica,sans-Serif" font-size="10.00">/fmt/ranges.h</text>
</a>
</g>
</g>
<!-- Node5&#45;&gt;Node16 -->
<g id="edge18_Node000005_Node000016" class="edge">
<title>Node5&#45;&gt;Node16</title>
<g id="a_edge18_Node000005_Node000016"><a xlink:title=" ">
<path fill="none" stroke="#63b8ff" d="M665.55,-204.52C611.35,-197.2 543.31,-183.89 526,-162 508.64,-140.05 536.89,-112.45 558.36,-96.08"/>
<polygon fill="#63b8ff" stroke="#63b8ff" points="665.12,-207.99 675.49,-205.82 666.03,-201.05 665.12,-207.99"/>
</a>
</g>
</g>
<!-- Node8 -->
<g id="Node000008" class="node">
<title>Node8</title>
<g id="a_Node000008"><a xlink:href="ostream_8h.html" target="_top" xlink:title=" ">
<polygon fill="white" stroke="#666666" points="477.5,-96 354.5,-96 354.5,-66 477.5,-66 477.5,-96"/>
<text text-anchor="start" x="362.5" y="-84" font-family="Helvetica,sans-Serif" font-size="10.00">thirdparty/fmt/include</text>
<text text-anchor="middle" x="416" y="-73" font-family="Helvetica,sans-Serif" font-size="10.00">/fmt/ostream.h</text>
</a>
</g>
</g>
<!-- Node7&#45;&gt;Node8 -->
<g id="edge9_Node000007_Node000008" class="edge">
<title>Node7&#45;&gt;Node8</title>
<g id="a_edge9_Node000007_Node000008"><a xlink:title=" ">
<path fill="none" stroke="#63b8ff" d="M416,-121.54C416,-112.96 416,-103.61 416,-96.16"/>
<polygon fill="#63b8ff" stroke="#63b8ff" points="412.5,-121.8 416,-131.8 419.5,-121.8 412.5,-121.8"/>
</a>
</g>
</g>
<!-- Node8&#45;&gt;Node9 -->
<g id="edge10_Node000008_Node000009" class="edge">
<title>Node8&#45;&gt;Node9</title>
<g id="a_edge10_Node000008_Node000009"><a xlink:title=" ">
<path fill="none" stroke="#63b8ff" d="M411.47,-55.83C409.84,-47.17 408.07,-37.7 406.66,-30.16"/>
<polygon fill="#63b8ff" stroke="#63b8ff" points="408.05,-56.61 413.34,-65.8 414.93,-55.32 408.05,-56.61"/>
</a>
</g>
</g>
<!-- Node8&#45;&gt;Node10 -->
<g id="edge11_Node000008_Node000010" class="edge">
<title>Node8&#45;&gt;Node10</title>
<g id="a_edge11_Node000008_Node000010"><a xlink:title=" ">
<path fill="none" stroke="#63b8ff" d="M463.7,-62.46C491.46,-52.25 525.97,-39.55 551.9,-30.01"/>
<polygon fill="#63b8ff" stroke="#63b8ff" points="462.36,-59.22 454.19,-65.95 464.78,-65.79 462.36,-59.22"/>
</a>
</g>
</g>
<!-- Node11&#45;&gt;Node10 -->
<g id="edge13_Node000011_Node000010" class="edge">
<title>Node11&#45;&gt;Node10</title>
<g id="a_edge13_Node000011_Node000010"><a xlink:title=" ">
<path fill="none" stroke="#63b8ff" d="M1172.49,-71.47C1156.23,-69.6 1139.02,-67.68 1123,-66 952.46,-48.14 750.89,-30.05 651.6,-21.34"/>
<polygon fill="#63b8ff" stroke="#63b8ff" points="1172.14,-74.95 1182.47,-72.62 1172.94,-67.99 1172.14,-74.95"/>
</a>
</g>
</g>
<!-- Node16&#45;&gt;Node10 -->
<g id="edge19_Node000016_Node000010" class="edge">
<title>Node16&#45;&gt;Node10</title>
<g id="a_edge19_Node000016_Node000010"><a xlink:title=" ">
<path fill="none" stroke="#63b8ff" d="M583.16,-55.83C584.64,-47.17 586.27,-37.7 587.57,-30.16"/>
<polygon fill="#63b8ff" stroke="#63b8ff" points="579.69,-55.35 581.44,-65.8 586.58,-56.53 579.69,-55.35"/>
</a>
</g>
</g>
</g>
</svg>
