<?xml version="1.0" encoding="UTF-8" standalone="no"?>
<!DOCTYPE svg PUBLIC "-//W3C//DTD SVG 1.1//EN"
 "http://www.w3.org/Graphics/SVG/1.1/DTD/svg11.dtd">
<!-- Generated by graphviz version 2.43.0 (0)
 -->
<!-- Title: formatted_size Pages: 1 -->
<svg width="746pt" height="332pt"
 viewBox="0.00 0.00 746.00 331.50" xmlns="http://www.w3.org/2000/svg" xmlns:xlink="http://www.w3.org/1999/xlink">
<g id="graph0" class="graph" transform="scale(1 1) rotate(0) translate(4 327.5)">
<title>formatted_size</title>
<!-- Node1 -->
<g id="Node000001" class="node">
<title>Node1</title>
<g id="a_Node000001"><a xlink:title="Returns the number of chars in the output of format(fmt, args...).">
<polygon fill="#999999" stroke="#666666" points="90,-266 0,-266 0,-247 90,-247 90,-266"/>
<text text-anchor="middle" x="45" y="-254" font-family="Helvetica,sans-Serif" font-size="10.00">formatted_size</text>
</a>
</g>
</g>
<!-- Node2 -->
<g id="Node000002" class="node">
<title>Node2</title>
<g id="a_Node000002"><a xlink:href="classdetail_1_1counting__buffer.html#ac5caa7bdfd7e1cb4019287c3dcb4ff5d" target="_top" xlink:title=" ">
<polygon fill="white" stroke="#666666" points="252,-319.5 126,-319.5 126,-289.5 252,-289.5 252,-319.5"/>
<text text-anchor="start" x="134" y="-307.5" font-family="Helvetica,sans-Serif" font-size="10.00">detail::counting_buffer</text>
<text text-anchor="middle" x="189" y="-296.5" font-family="Helvetica,sans-Serif" font-size="10.00">::count</text>
</a>
</g>
</g>
<!-- Node1&#45;&gt;Node2 -->
<g id="edge1_Node000001_Node000002" class="edge">
<title>Node1&#45;&gt;Node2</title>
<g id="a_edge1_Node000001_Node000002"><a xlink:title=" ">
<path fill="none" stroke="#63b8ff" d="M74.39,-266.1C91.37,-271.83 113.49,-279.31 133.7,-286.15"/>
<polygon fill="#63b8ff" stroke="#63b8ff" points="132.84,-289.55 143.44,-289.44 135.09,-282.92 132.84,-289.55"/>
</a>
</g>
</g>
<!-- Node3 -->
<g id="Node000003" class="node">
<title>Node3</title>
<g id="a_Node000003"><a xlink:href="classdetail_1_1counting__buffer.html#adafc31050da4053e1593583cdcdd33f1" target="_top" xlink:title=" ">
<polygon fill="white" stroke="#666666" points="252,-271.5 126,-271.5 126,-241.5 252,-241.5 252,-271.5"/>
<text text-anchor="start" x="134" y="-259.5" font-family="Helvetica,sans-Serif" font-size="10.00">detail::counting_buffer</text>
<text text-anchor="middle" x="189" y="-248.5" font-family="Helvetica,sans-Serif" font-size="10.00">::counting_buffer</text>
</a>
</g>
</g>
<!-- Node1&#45;&gt;Node3 -->
<g id="edge2_Node000001_Node000003" class="edge">
<title>Node1&#45;&gt;Node3</title>
<g id="a_edge2_Node000001_Node000003"><a xlink:title=" ">
<path fill="none" stroke="#63b8ff" d="M90.15,-256.5C98.29,-256.5 106.97,-256.5 115.68,-256.5"/>
<polygon fill="#63b8ff" stroke="#63b8ff" points="115.89,-260 125.89,-256.5 115.89,-253 115.89,-260"/>
</a>
</g>
</g>
<!-- Node5 -->
<g id="Node000005" class="node">
<title>Node5</title>
<g id="a_Node000005"><a xlink:href="namespacedetail.html#a374a461d344b73468831b40acf5e4635" target="_top" xlink:title=" ">
<polygon fill="white" stroke="#666666" points="241,-171 137,-171 137,-152 241,-152 241,-171"/>
<text text-anchor="middle" x="189" y="-159" font-family="Helvetica,sans-Serif" font-size="10.00">detail::vformat_to</text>
</a>
</g>
</g>
<!-- Node1&#45;&gt;Node5 -->
<g id="edge4_Node000001_Node000005" class="edge">
<title>Node1&#45;&gt;Node5</title>
<g id="a_edge4_Node000001_Node000005"><a xlink:title=" ">
<path fill="none" stroke="#63b8ff" d="M60.4,-246.87C85.06,-230.37 135.59,-196.56 165.12,-176.8"/>
<polygon fill="#63b8ff" stroke="#63b8ff" points="167.2,-179.63 173.56,-171.16 163.31,-173.81 167.2,-179.63"/>
</a>
</g>
</g>
<!-- Node4 -->
<g id="Node000004" class="node">
<title>Node4</title>
<g id="a_Node000004"><a xlink:href="classdetail_1_1counting__buffer.html#a670db06293f85dbf8f6c99bab65b6f15" target="_top" xlink:title=" ">
<polygon fill="white" stroke="#666666" points="416.5,-323.5 290.5,-323.5 290.5,-293.5 416.5,-293.5 416.5,-323.5"/>
<text text-anchor="start" x="298.5" y="-311.5" font-family="Helvetica,sans-Serif" font-size="10.00">detail::counting_buffer</text>
<text text-anchor="middle" x="353.5" y="-300.5" font-family="Helvetica,sans-Serif" font-size="10.00">::grow</text>
</a>
</g>
</g>
<!-- Node3&#45;&gt;Node4 -->
<g id="edge3_Node000003_Node000004" class="edge">
<title>Node3&#45;&gt;Node4</title>
<g id="a_edge3_Node000003_Node000004"><a xlink:title=" ">
<path fill="none" stroke="#63b8ff" d="M237,-271.54C255.44,-277.44 276.77,-284.27 296.04,-290.43"/>
<polygon fill="#63b8ff" stroke="#63b8ff" points="295.01,-293.78 305.6,-293.49 297.15,-287.11 295.01,-293.78"/>
</a>
</g>
</g>
<!-- Node6 -->
<g id="Node000006" class="node">
<title>Node6</title>
<g id="a_Node000006"><a xlink:href="classbasic__appender.html#a3f0cd72d9279e98079287ae5c6cc53c0" target="_top" xlink:title=" ">
<polygon fill="white" stroke="#666666" points="416,-275.5 291,-275.5 291,-245.5 416,-245.5 416,-275.5"/>
<text text-anchor="start" x="299" y="-263.5" font-family="Helvetica,sans-Serif" font-size="10.00">basic_appender::basic</text>
<text text-anchor="middle" x="353.5" y="-252.5" font-family="Helvetica,sans-Serif" font-size="10.00">_appender</text>
</a>
</g>
</g>
<!-- Node5&#45;&gt;Node6 -->
<g id="edge5_Node000005_Node000006" class="edge">
<title>Node5&#45;&gt;Node6</title>
<g id="a_edge5_Node000005_Node000006"><a xlink:title=" ">
<path fill="none" stroke="#63b8ff" d="M200.43,-171.18C217.58,-186.7 253.31,-217.33 288,-236.5 291.02,-238.17 294.18,-239.77 297.41,-241.29"/>
<polygon fill="#63b8ff" stroke="#63b8ff" points="296.07,-244.52 306.63,-245.37 298.9,-238.12 296.07,-244.52"/>
</a>
</g>
</g>
<!-- Node7 -->
<g id="Node000007" class="node">
<title>Node7</title>
<g id="a_Node000007"><a xlink:href="classbasic__string__view.html#a39cdfe061dc6d64a3adc230b62d8a026" target="_top" xlink:title=" ">
<polygon fill="white" stroke="#666666" points="419,-227 288,-227 288,-208 419,-208 419,-227"/>
<text text-anchor="middle" x="353.5" y="-215" font-family="Helvetica,sans-Serif" font-size="10.00">basic_string_view::data</text>
</a>
</g>
</g>
<!-- Node5&#45;&gt;Node7 -->
<g id="edge6_Node000005_Node000007" class="edge">
<title>Node5&#45;&gt;Node7</title>
<g id="a_edge6_Node000005_Node000007"><a xlink:title=" ">
<path fill="none" stroke="#63b8ff" d="M212.74,-171.05C232.46,-179.15 261.85,-190.81 288,-199.5 293.72,-201.4 299.78,-203.27 305.79,-205.05"/>
<polygon fill="#63b8ff" stroke="#63b8ff" points="305.23,-208.53 315.81,-207.93 307.17,-201.8 305.23,-208.53"/>
</a>
</g>
</g>
<!-- Node8 -->
<g id="Node000008" class="node">
<title>Node8</title>
<g id="a_Node000008"><a xlink:href="namespacedetail.html#a60a15c04518d5955ecfae225402491bb" target="_top" xlink:title=" ">
<polygon fill="white" stroke="#666666" points="395,-190 312,-190 312,-171 395,-171 395,-190"/>
<text text-anchor="middle" x="353.5" y="-178" font-family="Helvetica,sans-Serif" font-size="10.00">detail::equal2</text>
</a>
</g>
</g>
<!-- Node5&#45;&gt;Node8 -->
<g id="edge7_Node000005_Node000008" class="edge">
<title>Node5&#45;&gt;Node8</title>
<g id="a_edge7_Node000005_Node000008"><a xlink:title=" ">
<path fill="none" stroke="#63b8ff" d="M241.42,-167.51C260.73,-169.77 282.65,-172.33 301.88,-174.58"/>
<polygon fill="#63b8ff" stroke="#63b8ff" points="301.63,-178.08 311.97,-175.76 302.44,-171.12 301.63,-178.08"/>
</a>
</g>
</g>
<!-- Node9 -->
<g id="Node000009" class="node">
<title>Node9</title>
<g id="a_Node000009"><a xlink:href="classbasic__format__args.html#a3339d3a4e4daaf7bb0de1a8084e7f086" target="_top" xlink:title="Returns the argument with the specified id.">
<polygon fill="white" stroke="#666666" points="417.5,-153 289.5,-153 289.5,-134 417.5,-134 417.5,-153"/>
<text text-anchor="middle" x="353.5" y="-141" font-family="Helvetica,sans-Serif" font-size="10.00">basic_format_args::get</text>
</a>
</g>
</g>
<!-- Node5&#45;&gt;Node9 -->
<g id="edge8_Node000005_Node000009" class="edge">
<title>Node5&#45;&gt;Node9</title>
<g id="a_edge8_Node000005_Node000009"><a xlink:title=" ">
<path fill="none" stroke="#63b8ff" d="M241.42,-155.8C253.45,-154.47 266.49,-153.03 279.27,-151.61"/>
<polygon fill="#63b8ff" stroke="#63b8ff" points="279.89,-155.06 289.44,-150.49 279.12,-148.11 279.89,-155.06"/>
</a>
</g>
</g>
<!-- Node13 -->
<g id="Node000013" class="node">
<title>Node13</title>
<g id="a_Node000013"><a xlink:href="classparse__context.html#a9da9230b8f03bb6579efdcaae4b18003" target="_top" xlink:title=" ">
<polygon fill="white" stroke="#666666" points="413,-115.5 294,-115.5 294,-85.5 413,-85.5 413,-115.5"/>
<text text-anchor="start" x="302" y="-103.5" font-family="Helvetica,sans-Serif" font-size="10.00">parse_context::parse</text>
<text text-anchor="middle" x="353.5" y="-92.5" font-family="Helvetica,sans-Serif" font-size="10.00">_context</text>
</a>
</g>
</g>
<!-- Node5&#45;&gt;Node13 -->
<g id="edge13_Node000005_Node000013" class="edge">
<title>Node5&#45;&gt;Node13</title>
<g id="a_edge13_Node000005_Node000013"><a xlink:title=" ">
<path fill="none" stroke="#63b8ff" d="M215.39,-151.97C238.73,-143.21 273.98,-129.97 302.9,-119.12"/>
<polygon fill="#63b8ff" stroke="#63b8ff" points="304.3,-122.33 312.44,-115.54 301.84,-115.78 304.3,-122.33"/>
</a>
</g>
</g>
<!-- Node14 -->
<g id="Node000014" class="node">
<title>Node14</title>
<g id="a_Node000014"><a xlink:href="namespacedetail.html#a90b356f92e340e20002ede151cfc6fab" target="_top" xlink:title=" ">
<polygon fill="white" stroke="#666666" points="411.5,-67.5 295.5,-67.5 295.5,-37.5 411.5,-37.5 411.5,-67.5"/>
<text text-anchor="start" x="303.5" y="-55.5" font-family="Helvetica,sans-Serif" font-size="10.00">detail::parse_format</text>
<text text-anchor="middle" x="353.5" y="-44.5" font-family="Helvetica,sans-Serif" font-size="10.00">_string</text>
</a>
</g>
</g>
<!-- Node5&#45;&gt;Node14 -->
<g id="edge14_Node000005_Node000014" class="edge">
<title>Node5&#45;&gt;Node14</title>
<g id="a_edge14_Node000005_Node000014"><a xlink:title=" ">
<path fill="none" stroke="#63b8ff" d="M198.84,-151.82C215.04,-134.58 251.2,-98.33 288,-76.5 290.77,-74.85 293.68,-73.29 296.66,-71.8"/>
<polygon fill="#63b8ff" stroke="#63b8ff" points="298.15,-74.97 305.76,-67.6 295.22,-68.62 298.15,-74.97"/>
</a>
</g>
</g>
<!-- Node15 -->
<g id="Node000015" class="node">
<title>Node15</title>
<g id="a_Node000015"><a xlink:href="classbasic__string__view.html#a216bbe1b012b590698d7bb4e96d1af3f" target="_top" xlink:title=" ">
<polygon fill="white" stroke="#666666" points="417.5,-19 289.5,-19 289.5,0 417.5,0 417.5,-19"/>
<text text-anchor="middle" x="353.5" y="-7" font-family="Helvetica,sans-Serif" font-size="10.00">basic_string_view::size</text>
</a>
</g>
</g>
<!-- Node5&#45;&gt;Node15 -->
<g id="edge15_Node000005_Node000015" class="edge">
<title>Node5&#45;&gt;Node15</title>
<g id="a_edge15_Node000005_Node000015"><a xlink:title=" ">
<path fill="none" stroke="#63b8ff" d="M194.39,-151.78C205.97,-127.23 239.84,-62.24 288,-28.5 290.86,-26.5 293.93,-24.7 297.13,-23.1"/>
<polygon fill="#63b8ff" stroke="#63b8ff" points="298.63,-26.26 306.38,-19.04 295.82,-19.85 298.63,-26.26"/>
</a>
</g>
</g>
<!-- Node10 -->
<g id="Node000010" class="node">
<title>Node10</title>
<g id="a_Node000010"><a xlink:href="classbasic__format__args.html#a812f954be08646744a14d71f20b97830" target="_top" xlink:title=" ">
<polygon fill="white" stroke="#666666" points="738,-179.5 625,-179.5 625,-149.5 738,-149.5 738,-179.5"/>
<text text-anchor="start" x="633" y="-167.5" font-family="Helvetica,sans-Serif" font-size="10.00">basic_format_args::</text>
<text text-anchor="middle" x="681.5" y="-156.5" font-family="Helvetica,sans-Serif" font-size="10.00">is_packed</text>
</a>
</g>
</g>
<!-- Node9&#45;&gt;Node10 -->
<g id="edge9_Node000009_Node000010" class="edge">
<title>Node9&#45;&gt;Node10</title>
<g id="a_edge9_Node000009_Node000010"><a xlink:title=" ">
<path fill="none" stroke="#63b8ff" d="M386.29,-153.11C405.89,-158.53 431.66,-164.75 455,-167.5 508.39,-173.79 569.38,-172.47 614.45,-169.89"/>
<polygon fill="#63b8ff" stroke="#63b8ff" points="614.92,-173.37 624.69,-169.27 614.49,-166.38 614.92,-173.37"/>
</a>
</g>
</g>
<!-- Node11 -->
<g id="Node000011" class="node">
<title>Node11</title>
<g id="a_Node000011"><a xlink:href="classbasic__format__args.html#a7747894fe7c14fb78260b53ca7702782" target="_top" xlink:title=" ">
<polygon fill="white" stroke="#666666" points="578.5,-158.5 465.5,-158.5 465.5,-128.5 578.5,-128.5 578.5,-158.5"/>
<text text-anchor="start" x="473.5" y="-146.5" font-family="Helvetica,sans-Serif" font-size="10.00">basic_format_args::</text>
<text text-anchor="middle" x="522" y="-135.5" font-family="Helvetica,sans-Serif" font-size="10.00">max_size</text>
</a>
</g>
</g>
<!-- Node9&#45;&gt;Node11 -->
<g id="edge10_Node000009_Node000011" class="edge">
<title>Node9&#45;&gt;Node11</title>
<g id="a_edge10_Node000009_Node000011"><a xlink:title=" ">
<path fill="none" stroke="#63b8ff" d="M417.92,-143.5C430.13,-143.5 442.94,-143.5 455.21,-143.5"/>
<polygon fill="#63b8ff" stroke="#63b8ff" points="455.38,-147 465.38,-143.5 455.38,-140 455.38,-147"/>
</a>
</g>
</g>
<!-- Node12 -->
<g id="Node000012" class="node">
<title>Node12</title>
<g id="a_Node000012"><a xlink:href="classbasic__format__args.html#a4d5e597c31ce51609d7fa770c83dad39" target="_top" xlink:title=" ">
<polygon fill="white" stroke="#666666" points="589,-110 455,-110 455,-91 589,-91 589,-110"/>
<text text-anchor="middle" x="522" y="-98" font-family="Helvetica,sans-Serif" font-size="10.00">basic_format_args::type</text>
</a>
</g>
</g>
<!-- Node9&#45;&gt;Node12 -->
<g id="edge12_Node000009_Node000012" class="edge">
<title>Node9&#45;&gt;Node12</title>
<g id="a_edge12_Node000009_Node000012"><a xlink:title=" ">
<path fill="none" stroke="#63b8ff" d="M391.45,-133.96C415.92,-127.64 448.21,-119.3 474.43,-112.53"/>
<polygon fill="#63b8ff" stroke="#63b8ff" points="475.34,-115.91 484.15,-110.02 473.59,-109.13 475.34,-115.91"/>
</a>
</g>
</g>
<!-- Node11&#45;&gt;Node10 -->
<g id="edge11_Node000011_Node000010" class="edge">
<title>Node11&#45;&gt;Node10</title>
<g id="a_edge11_Node000011_Node000010"><a xlink:title=" ">
<path fill="none" stroke="#63b8ff" d="M578.53,-150.9C590.29,-152.47 602.81,-154.14 614.91,-155.75"/>
<polygon fill="#63b8ff" stroke="#63b8ff" points="614.57,-159.24 624.94,-157.09 615.49,-152.3 614.57,-159.24"/>
</a>
</g>
</g>
</g>
</svg>
