<?xml version="1.0" encoding="UTF-8" standalone="no"?>
<!DOCTYPE svg PUBLIC "-//W3C//DTD SVG 1.1//EN"
 "http://www.w3.org/Graphics/SVG/1.1/DTD/svg11.dtd">
<!-- Generated by graphviz version 2.43.0 (0)
 -->
<!-- Title: report_error Pages: 1 -->
<svg width="658pt" height="1530pt"
 viewBox="0.00 0.00 658.00 1529.50" xmlns="http://www.w3.org/2000/svg" xmlns:xlink="http://www.w3.org/1999/xlink">
<g id="graph0" class="graph" transform="scale(1 1) rotate(0) translate(4 1525.5)">
<title>report_error</title>
<!-- Node1 -->
<g id="Node000001" class="node">
<title>Node1</title>
<g id="a_Node000001"><a xlink:title=" ">
<polygon fill="#999999" stroke="#666666" points="650,-793 576,-793 576,-774 650,-774 650,-793"/>
<text text-anchor="middle" x="613" y="-781" font-family="Helvetica,sans-Serif" font-size="10.00">report_error</text>
</a>
</g>
</g>
<!-- Node2 -->
<g id="Node000002" class="node">
<title>Node2</title>
<g id="a_Node000002"><a xlink:href="classparse__context.html#a7f7a652c7a771f339fd1ae4114816be4" target="_top" xlink:title=" ">
<polygon fill="white" stroke="#666666" points="491,-1521.5 371,-1521.5 371,-1491.5 491,-1491.5 491,-1521.5"/>
<text text-anchor="start" x="379" y="-1509.5" font-family="Helvetica,sans-Serif" font-size="10.00">parse_context::check</text>
<text text-anchor="middle" x="431" y="-1498.5" font-family="Helvetica,sans-Serif" font-size="10.00">_arg_id</text>
</a>
</g>
</g>
<!-- Node1&#45;&gt;Node2 -->
<g id="edge1_Node000001_Node000002" class="edge">
<title>Node1&#45;&gt;Node2</title>
<g id="a_edge1_Node000001_Node000002"><a xlink:title=" ">
<path fill="none" stroke="#63b8ff" d="M611.32,-803.23C607.44,-911.49 586.47,-1430.3 540,-1482.5 527.68,-1496.34 509.3,-1503.16 491.18,-1506.28"/>
<polygon fill="#63b8ff" stroke="#63b8ff" points="614.83,-803.19 611.68,-793.08 607.83,-802.95 614.83,-803.19"/>
</a>
</g>
</g>
<!-- Node3 -->
<g id="Node000003" class="node">
<title>Node3</title>
<g id="a_Node000003"><a xlink:href="classdetail_1_1compile__parse__context.html#ac6e2e5bc64f2541111ce29559f105928" target="_top" xlink:title=" ">
<polygon fill="white" stroke="#666666" points="495,-1473.5 367,-1473.5 367,-1443.5 495,-1443.5 495,-1473.5"/>
<text text-anchor="start" x="375" y="-1461.5" font-family="Helvetica,sans-Serif" font-size="10.00">detail::compile_parse</text>
<text text-anchor="middle" x="431" y="-1450.5" font-family="Helvetica,sans-Serif" font-size="10.00">_context::check_arg_id</text>
</a>
</g>
</g>
<!-- Node1&#45;&gt;Node3 -->
<g id="edge2_Node000001_Node000003" class="edge">
<title>Node1&#45;&gt;Node3</title>
<g id="a_edge2_Node000001_Node000003"><a xlink:title=" ">
<path fill="none" stroke="#63b8ff" d="M611.15,-803.49C606.57,-907.75 583.27,-1386.26 540,-1434.5 528.52,-1447.3 511.87,-1454.08 495.06,-1457.49"/>
<polygon fill="#63b8ff" stroke="#63b8ff" points="614.66,-803.53 611.59,-793.39 607.66,-803.22 614.66,-803.53"/>
</a>
</g>
</g>
<!-- Node4 -->
<g id="Node000004" class="node">
<title>Node4</title>
<g id="a_Node000004"><a xlink:href="namespacedetail.html#a56f8ff16a82c38da1e1f7ac0b823f526" target="_top" xlink:title=" ">
<polygon fill="white" stroke="#666666" points="483.5,-1425.5 378.5,-1425.5 378.5,-1395.5 483.5,-1395.5 483.5,-1425.5"/>
<text text-anchor="start" x="386.5" y="-1413.5" font-family="Helvetica,sans-Serif" font-size="10.00">detail::check_char</text>
<text text-anchor="middle" x="431" y="-1402.5" font-family="Helvetica,sans-Serif" font-size="10.00">_specs</text>
</a>
</g>
</g>
<!-- Node1&#45;&gt;Node4 -->
<g id="edge3_Node000001_Node000004" class="edge">
<title>Node1&#45;&gt;Node4</title>
<g id="a_edge3_Node000001_Node000004"><a xlink:title=" ">
<path fill="none" stroke="#63b8ff" d="M610.98,-803.24C605.71,-902.28 580.15,-1342.13 540,-1386.5 525.89,-1402.1 504.09,-1408.74 483.76,-1411.24"/>
<polygon fill="#63b8ff" stroke="#63b8ff" points="614.49,-803.29 611.51,-793.12 607.5,-802.92 614.49,-803.29"/>
</a>
</g>
</g>
<!-- Node5 -->
<g id="Node000005" class="node">
<title>Node5</title>
<g id="a_Node000005"><a xlink:href="classdetail_1_1compile__parse__context.html#af4939a499a70e5ffd4389c12c16ec2e8" target="_top" xlink:title=" ">
<polygon fill="white" stroke="#666666" points="515,-1377.5 347,-1377.5 347,-1347.5 515,-1347.5 515,-1377.5"/>
<text text-anchor="start" x="355" y="-1365.5" font-family="Helvetica,sans-Serif" font-size="10.00">detail::compile_parse</text>
<text text-anchor="middle" x="431" y="-1354.5" font-family="Helvetica,sans-Serif" font-size="10.00">_context::check_dynamic_spec</text>
</a>
</g>
</g>
<!-- Node1&#45;&gt;Node5 -->
<g id="edge4_Node000001_Node000005" class="edge">
<title>Node1&#45;&gt;Node5</title>
<g id="a_edge4_Node000001_Node000005"><a xlink:title=" ">
<path fill="none" stroke="#63b8ff" d="M612.35,-803.37C613.48,-892.93 613.48,-1258.12 540,-1338.5 533.13,-1346.01 524.48,-1351.44 515.07,-1355.33"/>
<polygon fill="#63b8ff" stroke="#63b8ff" points="615.84,-803.18 612.2,-793.23 608.84,-803.28 615.84,-803.18"/>
</a>
</g>
</g>
<!-- Node6 -->
<g id="Node000006" class="node">
<title>Node6</title>
<g id="a_Node000006"><a xlink:href="namespacedetail.html#a613bd555aa6de5c65e639259df0a253a" target="_top" xlink:title=" ">
<polygon fill="white" stroke="#666666" points="505,-1329 357,-1329 357,-1310 505,-1310 505,-1329"/>
<text text-anchor="middle" x="431" y="-1317" font-family="Helvetica,sans-Serif" font-size="10.00">detail::check_for_duplicate</text>
</a>
</g>
</g>
<!-- Node1&#45;&gt;Node6 -->
<g id="edge5_Node000001_Node000006" class="edge">
<title>Node1&#45;&gt;Node6</title>
<g id="a_edge5_Node000001_Node000006"><a xlink:title=" ">
<path fill="none" stroke="#63b8ff" d="M612.24,-803.21C612.84,-889.01 610.69,-1228.88 540,-1301.5 530.65,-1311.1 518.26,-1316.78 505.22,-1319.97"/>
<polygon fill="#63b8ff" stroke="#63b8ff" points="615.74,-803.01 612.14,-793.04 608.74,-803.07 615.74,-803.01"/>
</a>
</g>
</g>
<!-- Node7 -->
<g id="Node000007" class="node">
<title>Node7</title>
<g id="a_Node000007"><a xlink:href="namespacedetail.html#ac1d79c868f281cf669a044a2236f0e89" target="_top" xlink:title=" ">
<polygon fill="white" stroke="#666666" points="510,-1292 352,-1292 352,-1273 510,-1273 510,-1292"/>
<text text-anchor="middle" x="431" y="-1280" font-family="Helvetica,sans-Serif" font-size="10.00">detail::handle_dynamic_spec</text>
</a>
</g>
</g>
<!-- Node1&#45;&gt;Node7 -->
<g id="edge6_Node000001_Node000007" class="edge">
<title>Node1&#45;&gt;Node7</title>
<g id="a_edge6_Node000001_Node000007"><a xlink:title=" ">
<path fill="none" stroke="#63b8ff" d="M611.98,-803.55C611.47,-885.86 605.18,-1196.65 540,-1263.5 531.83,-1271.88 521.35,-1277.33 510.14,-1280.78"/>
<polygon fill="#63b8ff" stroke="#63b8ff" points="615.48,-803.13 612.02,-793.12 608.48,-803.11 615.48,-803.13"/>
</a>
</g>
</g>
<!-- Node8 -->
<g id="Node000008" class="node">
<title>Node8</title>
<g id="a_Node000008"><a xlink:href="classparse__context.html#a82d4f9e430de64a4bd3820fe69b5f669" target="_top" xlink:title=" ">
<polygon fill="white" stroke="#666666" points="487.5,-1254.5 374.5,-1254.5 374.5,-1224.5 487.5,-1224.5 487.5,-1254.5"/>
<text text-anchor="start" x="382.5" y="-1242.5" font-family="Helvetica,sans-Serif" font-size="10.00">parse_context::next</text>
<text text-anchor="middle" x="431" y="-1231.5" font-family="Helvetica,sans-Serif" font-size="10.00">_arg_id</text>
</a>
</g>
</g>
<!-- Node1&#45;&gt;Node8 -->
<g id="edge7_Node000001_Node000008" class="edge">
<title>Node1&#45;&gt;Node8</title>
<g id="a_edge7_Node000001_Node000008"><a xlink:title=" ">
<path fill="none" stroke="#63b8ff" d="M611.53,-803.42C609.33,-880.08 597.46,-1154.87 540,-1215.5 526.52,-1229.72 506.64,-1236.42 487.6,-1239.33"/>
<polygon fill="#63b8ff" stroke="#63b8ff" points="615.04,-803.32 611.8,-793.23 608.04,-803.14 615.04,-803.32"/>
</a>
</g>
</g>
<!-- Node9 -->
<g id="Node000009" class="node">
<title>Node9</title>
<g id="a_Node000009"><a xlink:href="classdetail_1_1compile__parse__context.html#ac62c78afda65813e6d2c9a3e2842f63c" target="_top" xlink:title=" ">
<polygon fill="white" stroke="#666666" points="492,-1206.5 370,-1206.5 370,-1176.5 492,-1176.5 492,-1206.5"/>
<text text-anchor="start" x="378" y="-1194.5" font-family="Helvetica,sans-Serif" font-size="10.00">detail::compile_parse</text>
<text text-anchor="middle" x="431" y="-1183.5" font-family="Helvetica,sans-Serif" font-size="10.00">_context::next_arg_id</text>
</a>
</g>
</g>
<!-- Node1&#45;&gt;Node9 -->
<g id="edge8_Node000001_Node000009" class="edge">
<title>Node1&#45;&gt;Node9</title>
<g id="a_edge8_Node000001_Node000009"><a xlink:title=" ">
<path fill="none" stroke="#63b8ff" d="M611.08,-803.45C607.38,-874.59 591.26,-1114.5 540,-1167.5 527.51,-1180.41 509.74,-1187.09 492.21,-1190.37"/>
<polygon fill="#63b8ff" stroke="#63b8ff" points="614.59,-803.35 611.58,-793.19 607.6,-803.01 614.59,-803.35"/>
</a>
</g>
</g>
<!-- Node10 -->
<g id="Node000010" class="node">
<title>Node10</title>
<g id="a_Node000010"><a xlink:href="structdetail_1_1format__handler.html#aa2cc11b9e83829f775f3a351e0f54b8b" target="_top" xlink:title=" ">
<polygon fill="white" stroke="#666666" points="493.5,-1158.5 368.5,-1158.5 368.5,-1128.5 493.5,-1128.5 493.5,-1158.5"/>
<text text-anchor="start" x="376.5" y="-1146.5" font-family="Helvetica,sans-Serif" font-size="10.00">detail::format_handler</text>
<text text-anchor="middle" x="431" y="-1135.5" font-family="Helvetica,sans-Serif" font-size="10.00">::on_arg_id</text>
</a>
</g>
</g>
<!-- Node1&#45;&gt;Node10 -->
<g id="edge9_Node000001_Node000010" class="edge">
<title>Node1&#45;&gt;Node10</title>
<g id="a_edge9_Node000001_Node000010"><a xlink:title=" ">
<path fill="none" stroke="#63b8ff" d="M610.5,-803.44C605.18,-868.66 585.09,-1074.06 540,-1119.5 527.76,-1131.84 510.67,-1138.45 493.7,-1141.85"/>
<polygon fill="#63b8ff" stroke="#63b8ff" points="614,-803.52 611.3,-793.27 607.03,-802.97 614,-803.52"/>
</a>
</g>
</g>
<!-- Node11 -->
<g id="Node000011" class="node">
<title>Node11</title>
<g id="a_Node000011"><a xlink:href="classdetail_1_1format__string__checker.html#abbf37568b58ca8282fc2989ddcc31558" target="_top" xlink:title=" ">
<polygon fill="white" stroke="#666666" points="489,-1110.5 373,-1110.5 373,-1080.5 489,-1080.5 489,-1110.5"/>
<text text-anchor="start" x="381" y="-1098.5" font-family="Helvetica,sans-Serif" font-size="10.00">detail::format_string</text>
<text text-anchor="middle" x="431" y="-1087.5" font-family="Helvetica,sans-Serif" font-size="10.00">_checker::on_error</text>
</a>
</g>
</g>
<!-- Node1&#45;&gt;Node11 -->
<g id="edge10_Node000001_Node000011" class="edge">
<title>Node1&#45;&gt;Node11</title>
<g id="a_edge10_Node000001_Node000011"><a xlink:title=" ">
<path fill="none" stroke="#63b8ff" d="M609.76,-803.21C602.7,-861.85 579.03,-1033.49 540,-1071.5 526.52,-1084.63 507.53,-1091.23 489.23,-1094.37"/>
<polygon fill="#63b8ff" stroke="#63b8ff" points="613.26,-803.4 610.95,-793.06 606.31,-802.59 613.26,-803.4"/>
</a>
</g>
</g>
<!-- Node13 -->
<g id="Node000013" class="node">
<title>Node13</title>
<g id="a_Node000013"><a xlink:href="structdetail_1_1format__handler.html#a57a336277f131adc5d3c6a9f22bbbe94" target="_top" xlink:title=" ">
<polygon fill="white" stroke="#666666" points="493.5,-1062.5 368.5,-1062.5 368.5,-1032.5 493.5,-1032.5 493.5,-1062.5"/>
<text text-anchor="start" x="376.5" y="-1050.5" font-family="Helvetica,sans-Serif" font-size="10.00">detail::format_handler</text>
<text text-anchor="middle" x="431" y="-1039.5" font-family="Helvetica,sans-Serif" font-size="10.00">::on_error</text>
</a>
</g>
</g>
<!-- Node1&#45;&gt;Node13 -->
<g id="edge12_Node000001_Node000013" class="edge">
<title>Node1&#45;&gt;Node13</title>
<g id="a_edge12_Node000001_Node000013"><a xlink:title=" ">
<path fill="none" stroke="#63b8ff" d="M612.33,-803.12C611.97,-848.95 604.32,-963.7 540,-1023.5 527.41,-1035.21 510.42,-1041.66 493.65,-1045.1"/>
<polygon fill="#63b8ff" stroke="#63b8ff" points="615.83,-803.01 612.3,-793.03 608.83,-803.04 615.83,-803.01"/>
</a>
</g>
</g>
<!-- Node14 -->
<g id="Node000014" class="node">
<title>Node14</title>
<g id="a_Node000014"><a xlink:href="structdetail_1_1format__handler.html#a09d27ff5a97fa95ecc391da6bc255f41" target="_top" xlink:title=" ">
<polygon fill="white" stroke="#666666" points="493.5,-1014.5 368.5,-1014.5 368.5,-984.5 493.5,-984.5 493.5,-1014.5"/>
<text text-anchor="start" x="376.5" y="-1002.5" font-family="Helvetica,sans-Serif" font-size="10.00">detail::format_handler</text>
<text text-anchor="middle" x="431" y="-991.5" font-family="Helvetica,sans-Serif" font-size="10.00">::on_format_specs</text>
</a>
</g>
</g>
<!-- Node1&#45;&gt;Node14 -->
<g id="edge13_Node000001_Node000014" class="edge">
<title>Node1&#45;&gt;Node14</title>
<g id="a_edge13_Node000001_Node000014"><a xlink:title=" ">
<path fill="none" stroke="#63b8ff" d="M610.6,-803.39C606.72,-842.6 592.34,-930.02 540,-975.5 527.17,-986.65 510.3,-992.96 493.72,-996.44"/>
<polygon fill="#63b8ff" stroke="#63b8ff" points="614.1,-803.54 611.47,-793.27 607.12,-802.94 614.1,-803.54"/>
</a>
</g>
</g>
<!-- Node15 -->
<g id="Node000015" class="node">
<title>Node15</title>
<g id="a_Node000015"><a xlink:href="structformat__to__result.html#a6391f3932c76aa0cc703fa0e046a3a41" target="_top" xlink:title=" ">
<polygon fill="white" stroke="#666666" points="503.5,-966.5 358.5,-966.5 358.5,-936.5 503.5,-936.5 503.5,-966.5"/>
<text text-anchor="start" x="366.5" y="-954.5" font-family="Helvetica,sans-Serif" font-size="10.00">format_to_result::operator</text>
<text text-anchor="middle" x="431" y="-943.5" font-family="Helvetica,sans-Serif" font-size="10.00"> char *</text>
</a>
</g>
</g>
<!-- Node1&#45;&gt;Node15 -->
<g id="edge14_Node000001_Node000015" class="edge">
<title>Node1&#45;&gt;Node15</title>
<g id="a_edge14_Node000001_Node000015"><a xlink:title=" ">
<path fill="none" stroke="#63b8ff" d="M607.89,-803.11C600.26,-834.48 580.81,-895.63 540,-927.5 529.48,-935.72 516.71,-941.24 503.69,-944.93"/>
<polygon fill="#63b8ff" stroke="#63b8ff" points="611.39,-803.54 610.19,-793.02 604.56,-801.99 611.39,-803.54"/>
</a>
</g>
</g>
<!-- Node16 -->
<g id="Node000016" class="node">
<title>Node16</title>
<g id="a_Node000016"><a xlink:href="structdetail_1_1default__arg__formatter.html#a2264f60c1b721d0952cfe29f4282b266" target="_top" xlink:title=" ">
<polygon fill="white" stroke="#666666" points="492.5,-918.5 369.5,-918.5 369.5,-888.5 492.5,-888.5 492.5,-918.5"/>
<text text-anchor="start" x="377.5" y="-906.5" font-family="Helvetica,sans-Serif" font-size="10.00">detail::default_arg</text>
<text text-anchor="middle" x="431" y="-895.5" font-family="Helvetica,sans-Serif" font-size="10.00">_formatter::operator()</text>
</a>
</g>
</g>
<!-- Node1&#45;&gt;Node16 -->
<g id="edge15_Node000001_Node000016" class="edge">
<title>Node1&#45;&gt;Node16</title>
<g id="a_edge15_Node000001_Node000016"><a xlink:title=" ">
<path fill="none" stroke="#63b8ff" d="M603.15,-802.23C591.74,-824.28 569.75,-860.3 540,-879.5 525.96,-888.56 508.99,-894.23 492.7,-897.78"/>
<polygon fill="#63b8ff" stroke="#63b8ff" points="606.33,-803.71 607.64,-793.2 600.06,-800.6 606.33,-803.71"/>
</a>
</g>
</g>
<!-- Node17 -->
<g id="Node000017" class="node">
<title>Node17</title>
<g id="a_Node000017"><a xlink:href="structdetail_1_1printf__precision__handler.html#a52542884b5d955d52bf330204f53a961" target="_top" xlink:title=" ">
<polygon fill="white" stroke="#666666" points="494,-870.5 368,-870.5 368,-840.5 494,-840.5 494,-870.5"/>
<text text-anchor="start" x="376" y="-858.5" font-family="Helvetica,sans-Serif" font-size="10.00">detail::printf_precision</text>
<text text-anchor="middle" x="431" y="-847.5" font-family="Helvetica,sans-Serif" font-size="10.00">_handler::operator()</text>
</a>
</g>
</g>
<!-- Node1&#45;&gt;Node17 -->
<g id="edge16_Node000001_Node000017" class="edge">
<title>Node1&#45;&gt;Node17</title>
<g id="a_edge16_Node000001_Node000017"><a xlink:title=" ">
<path fill="none" stroke="#63b8ff" d="M592.31,-799.55C578.45,-810.09 559.04,-823.37 540,-831.5 525.6,-837.64 509.43,-842.31 494.06,-845.81"/>
<polygon fill="#63b8ff" stroke="#63b8ff" points="594.83,-802.02 600.55,-793.1 590.52,-796.5 594.83,-802.02"/>
</a>
</g>
</g>
<!-- Node18 -->
<g id="Node000018" class="node">
<title>Node18</title>
<g id="a_Node000018"><a xlink:href="classdetail_1_1printf__width__handler.html#ae162f5f58b78a74741b038600efb038e" target="_top" xlink:title=" ">
<polygon fill="white" stroke="#666666" points="487.5,-822.5 374.5,-822.5 374.5,-792.5 487.5,-792.5 487.5,-822.5"/>
<text text-anchor="start" x="382.5" y="-810.5" font-family="Helvetica,sans-Serif" font-size="10.00">detail::printf_width</text>
<text text-anchor="middle" x="431" y="-799.5" font-family="Helvetica,sans-Serif" font-size="10.00">_handler::operator()</text>
</a>
</g>
</g>
<!-- Node1&#45;&gt;Node18 -->
<g id="edge17_Node000001_Node000018" class="edge">
<title>Node1&#45;&gt;Node18</title>
<g id="a_edge17_Node000001_Node000018"><a xlink:title=" ">
<path fill="none" stroke="#63b8ff" d="M565.39,-789.71C541.6,-792.89 512.48,-796.77 487.53,-800.1"/>
<polygon fill="#63b8ff" stroke="#63b8ff" points="566.12,-793.15 575.57,-788.36 565.2,-786.21 566.12,-793.15"/>
</a>
</g>
</g>
<!-- Node19 -->
<g id="Node000019" class="node">
<title>Node19</title>
<g id="a_Node000019"><a xlink:href="structdetail_1_1printf__precision__handler.html#a365fa09f52e496699ea6f2757b7b9a77" target="_top" xlink:title=" ">
<polygon fill="white" stroke="#666666" points="494,-774.5 368,-774.5 368,-744.5 494,-744.5 494,-774.5"/>
<text text-anchor="start" x="376" y="-762.5" font-family="Helvetica,sans-Serif" font-size="10.00">detail::printf_precision</text>
<text text-anchor="middle" x="431" y="-751.5" font-family="Helvetica,sans-Serif" font-size="10.00">_handler::operator()</text>
</a>
</g>
</g>
<!-- Node1&#45;&gt;Node19 -->
<g id="edge18_Node000001_Node000019" class="edge">
<title>Node1&#45;&gt;Node19</title>
<g id="a_edge18_Node000001_Node000019"><a xlink:title=" ">
<path fill="none" stroke="#63b8ff" d="M565.62,-777.32C543.89,-774.42 517.68,-770.92 494.26,-767.8"/>
<polygon fill="#63b8ff" stroke="#63b8ff" points="565.2,-780.79 575.57,-778.64 566.12,-773.85 565.2,-780.79"/>
</a>
</g>
</g>
<!-- Node20 -->
<g id="Node000020" class="node">
<title>Node20</title>
<g id="a_Node000020"><a xlink:href="structdetail_1_1dynamic__spec__getter.html#ad6bbc6b615c09db20d79d4fe38f6f716" target="_top" xlink:title=" ">
<polygon fill="white" stroke="#666666" points="491,-726.5 371,-726.5 371,-696.5 491,-696.5 491,-726.5"/>
<text text-anchor="start" x="379" y="-714.5" font-family="Helvetica,sans-Serif" font-size="10.00">detail::dynamic_spec</text>
<text text-anchor="middle" x="431" y="-703.5" font-family="Helvetica,sans-Serif" font-size="10.00">_getter::operator()</text>
</a>
</g>
</g>
<!-- Node1&#45;&gt;Node20 -->
<g id="edge19_Node000001_Node000020" class="edge">
<title>Node1&#45;&gt;Node20</title>
<g id="a_edge19_Node000001_Node000020"><a xlink:title=" ">
<path fill="none" stroke="#63b8ff" d="M592.31,-767.45C578.45,-756.91 559.04,-743.63 540,-735.5 524.72,-728.98 507.43,-724.12 491.24,-720.56"/>
<polygon fill="#63b8ff" stroke="#63b8ff" points="590.52,-770.5 600.55,-773.9 594.83,-764.98 590.52,-770.5"/>
</a>
</g>
</g>
<!-- Node21 -->
<g id="Node000021" class="node">
<title>Node21</title>
<g id="a_Node000021"><a xlink:href="classdetail_1_1printf__width__handler.html#a901324a0409840e61dcf4813b93fa41f" target="_top" xlink:title=" ">
<polygon fill="white" stroke="#666666" points="487.5,-678.5 374.5,-678.5 374.5,-648.5 487.5,-648.5 487.5,-678.5"/>
<text text-anchor="start" x="382.5" y="-666.5" font-family="Helvetica,sans-Serif" font-size="10.00">detail::printf_width</text>
<text text-anchor="middle" x="431" y="-655.5" font-family="Helvetica,sans-Serif" font-size="10.00">_handler::operator()</text>
</a>
</g>
</g>
<!-- Node1&#45;&gt;Node21 -->
<g id="edge20_Node000001_Node000021" class="edge">
<title>Node1&#45;&gt;Node21</title>
<g id="a_edge20_Node000001_Node000021"><a xlink:title=" ">
<path fill="none" stroke="#63b8ff" d="M603.15,-764.77C591.74,-742.72 569.75,-706.7 540,-687.5 524.51,-677.5 505.44,-671.63 487.67,-668.19"/>
<polygon fill="#63b8ff" stroke="#63b8ff" points="600.06,-766.4 607.64,-773.8 606.33,-763.29 600.06,-766.4"/>
</a>
</g>
</g>
<!-- Node22 -->
<g id="Node000022" class="node">
<title>Node22</title>
<g id="a_Node000022"><a xlink:href="classtext__style.html#a45a697d8b8954ee82f348651f549e1b3" target="_top" xlink:title=" ">
<polygon fill="white" stroke="#666666" points="493,-630 369,-630 369,-611 493,-611 493,-630"/>
<text text-anchor="middle" x="431" y="-618" font-family="Helvetica,sans-Serif" font-size="10.00">text_style::operator|=</text>
</a>
</g>
</g>
<!-- Node1&#45;&gt;Node22 -->
<g id="edge21_Node000001_Node000022" class="edge">
<title>Node1&#45;&gt;Node22</title>
<g id="a_edge21_Node000001_Node000022"><a xlink:title=" ">
<path fill="none" stroke="#63b8ff" d="M608.15,-764.09C600.81,-732.55 581.69,-670.58 540,-639.5 526.57,-629.49 509.61,-624.11 493.14,-621.37"/>
<polygon fill="#63b8ff" stroke="#63b8ff" points="604.73,-764.84 610.27,-773.88 611.57,-763.36 604.73,-764.84"/>
</a>
</g>
</g>
<!-- Node23 -->
<g id="Node000023" class="node">
<title>Node23</title>
<g id="a_Node000023"><a xlink:href="structformatter_3_01Tuple_00_01Char_00_01enable__if__t_3_01fmt_1_1is__tuple__like_3_01Tuple_01_47d3c15699decdc1f07f707ead66758b7.html#a7947943a9fe3e9521fb8ffd65353e71f" target="_top" xlink:title=" ">
<polygon fill="white" stroke="#666666" points="522,-593 340,-593 340,-530 522,-530 522,-593"/>
<text text-anchor="start" x="348" y="-581" font-family="Helvetica,sans-Serif" font-size="10.00">formatter&lt; Tuple, Char,</text>
<text text-anchor="start" x="348" y="-570" font-family="Helvetica,sans-Serif" font-size="10.00"> enable_if_t&lt; fmt::is</text>
<text text-anchor="start" x="348" y="-559" font-family="Helvetica,sans-Serif" font-size="10.00">_tuple_like&lt; Tuple &gt;::value</text>
<text text-anchor="start" x="348" y="-548" font-family="Helvetica,sans-Serif" font-size="10.00"> &amp;&amp;fmt::is_tuple_formattable</text>
<text text-anchor="middle" x="431" y="-537" font-family="Helvetica,sans-Serif" font-size="10.00">&lt; Tuple, Char &gt;::value &gt; &gt;::parse</text>
</a>
</g>
</g>
<!-- Node1&#45;&gt;Node23 -->
<g id="edge22_Node000001_Node000023" class="edge">
<title>Node1&#45;&gt;Node23</title>
<g id="a_edge22_Node000001_Node000023"><a xlink:title=" ">
<path fill="none" stroke="#63b8ff" d="M609.44,-763.83C603.66,-727.19 586.3,-648.08 540,-602.5 534.64,-597.22 528.53,-592.61 522.01,-588.59"/>
<polygon fill="#63b8ff" stroke="#63b8ff" points="605.98,-764.36 610.88,-773.75 612.91,-763.36 605.98,-764.36"/>
</a>
</g>
</g>
<!-- Node24 -->
<g id="Node000024" class="node">
<title>Node24</title>
<g id="a_Node000024"><a xlink:href="structrange__formatter_3_01T_00_01Char_00_01enable__if__t_3_01conjunction_3_01std_1_1is__same_3_3cf3a20f6ea4950448b9f85e13a8c815.html#a0849ee84cc64103f4aba499aad5c7ef8" target="_top" xlink:title=" ">
<polygon fill="white" stroke="#666666" points="517.5,-511.5 344.5,-511.5 344.5,-437.5 517.5,-437.5 517.5,-511.5"/>
<text text-anchor="start" x="352.5" y="-499.5" font-family="Helvetica,sans-Serif" font-size="10.00">range_formatter&lt; T,</text>
<text text-anchor="start" x="352.5" y="-488.5" font-family="Helvetica,sans-Serif" font-size="10.00"> Char, enable_if_t&lt;</text>
<text text-anchor="start" x="352.5" y="-477.5" font-family="Helvetica,sans-Serif" font-size="10.00"> conjunction&lt; std::is</text>
<text text-anchor="start" x="352.5" y="-466.5" font-family="Helvetica,sans-Serif" font-size="10.00">_same&lt; T, remove_cvref</text>
<text text-anchor="start" x="352.5" y="-455.5" font-family="Helvetica,sans-Serif" font-size="10.00">_t&lt; T &gt; &gt;, is_formattable</text>
<text text-anchor="middle" x="431" y="-444.5" font-family="Helvetica,sans-Serif" font-size="10.00">&lt; T, Char &gt; &gt;::value &gt; &gt;::parse</text>
</a>
</g>
</g>
<!-- Node1&#45;&gt;Node24 -->
<g id="edge23_Node000001_Node000024" class="edge">
<title>Node1&#45;&gt;Node24</title>
<g id="a_edge23_Node000001_Node000024"><a xlink:title=" ">
<path fill="none" stroke="#63b8ff" d="M612.08,-763.61C611.23,-715.94 602.66,-593.78 540,-521.5 533.64,-514.16 525.92,-507.93 517.56,-502.64"/>
<polygon fill="#63b8ff" stroke="#63b8ff" points="608.58,-763.84 612.16,-773.81 615.58,-763.78 608.58,-763.84"/>
</a>
</g>
</g>
<!-- Node25 -->
<g id="Node000025" class="node">
<title>Node25</title>
<g id="a_Node000025"><a xlink:href="structformatter_3_01R_00_01Char_00_01enable__if__t_3_01conjunction_3_01bool__constant_3_01range_a13f0e31fda27b580a18b8a82ce44337.html#aa3b8454bdeeedea0eb5ed6ecc0ac2f83" target="_top" xlink:title=" ">
<polygon fill="white" stroke="#666666" points="540,-419.5 322,-419.5 322,-345.5 540,-345.5 540,-419.5"/>
<text text-anchor="start" x="330" y="-407.5" font-family="Helvetica,sans-Serif" font-size="10.00">formatter&lt; R, Char,</text>
<text text-anchor="start" x="330" y="-396.5" font-family="Helvetica,sans-Serif" font-size="10.00"> enable_if_t&lt; conjunction</text>
<text text-anchor="start" x="330" y="-385.5" font-family="Helvetica,sans-Serif" font-size="10.00">&lt; bool_constant&lt; range_format</text>
<text text-anchor="start" x="330" y="-374.5" font-family="Helvetica,sans-Serif" font-size="10.00">_kind&lt; R, Char &gt;::value==range</text>
<text text-anchor="start" x="330" y="-363.5" font-family="Helvetica,sans-Serif" font-size="10.00">_format::map &gt;, detail::is_formattable</text>
<text text-anchor="middle" x="431" y="-352.5" font-family="Helvetica,sans-Serif" font-size="10.00">_delayed&lt; R, Char &gt; &gt;::value &gt; &gt;::parse</text>
</a>
</g>
</g>
<!-- Node1&#45;&gt;Node25 -->
<g id="edge24_Node000001_Node000025" class="edge">
<title>Node1&#45;&gt;Node25</title>
<g id="a_edge24_Node000001_Node000025"><a xlink:title=" ">
<path fill="none" stroke="#63b8ff" d="M610.38,-763.63C604.58,-696.74 582.83,-481.02 540,-428.5 537.42,-425.34 534.59,-422.4 531.56,-419.65"/>
<polygon fill="#63b8ff" stroke="#63b8ff" points="606.9,-764.01 611.23,-773.68 613.88,-763.42 606.9,-764.01"/>
</a>
</g>
</g>
<!-- Node26 -->
<g id="Node000026" class="node">
<title>Node26</title>
<g id="a_Node000026"><a xlink:href="namespacedetail.html#aa9b6c73a648f10607ce55fcc025c7162" target="_top" xlink:title=" ">
<polygon fill="white" stroke="#666666" points="484.5,-327 377.5,-327 377.5,-308 484.5,-308 484.5,-327"/>
<text text-anchor="middle" x="431" y="-315" font-family="Helvetica,sans-Serif" font-size="10.00">detail::parse_align</text>
</a>
</g>
</g>
<!-- Node1&#45;&gt;Node26 -->
<g id="edge25_Node000001_Node000026" class="edge">
<title>Node1&#45;&gt;Node26</title>
<g id="a_edge25_Node000001_Node000026"><a xlink:title=" ">
<path fill="none" stroke="#63b8ff" d="M611.73,-763.33C610.26,-684.45 600.75,-398.13 540,-336.5 525.7,-321.99 504.49,-316.29 484.64,-314.57"/>
<polygon fill="#63b8ff" stroke="#63b8ff" points="608.24,-763.84 611.9,-773.78 615.24,-763.73 608.24,-763.84"/>
</a>
</g>
</g>
<!-- Node28 -->
<g id="Node000028" class="node">
<title>Node28</title>
<g id="a_Node000028"><a xlink:href="namespacedetail.html#abef4d11952aecc9357be9f21fbf6346d" target="_top" xlink:title=" ">
<polygon fill="white" stroke="#666666" points="487.5,-290 374.5,-290 374.5,-271 487.5,-271 487.5,-290"/>
<text text-anchor="middle" x="431" y="-278" font-family="Helvetica,sans-Serif" font-size="10.00">detail::parse_arg_id</text>
</a>
</g>
</g>
<!-- Node1&#45;&gt;Node28 -->
<g id="edge27_Node000001_Node000028" class="edge">
<title>Node1&#45;&gt;Node28</title>
<g id="a_edge27_Node000001_Node000028"><a xlink:title=" ">
<path fill="none" stroke="#63b8ff" d="M612.01,-763.79C611.62,-681.58 605.81,-367.07 540,-299.5 526.45,-285.59 506.55,-279.75 487.52,-277.75"/>
<polygon fill="#63b8ff" stroke="#63b8ff" points="608.51,-763.81 612.03,-773.8 615.51,-763.79 608.51,-763.81"/>
</a>
</g>
</g>
<!-- Node29 -->
<g id="Node000029" class="node">
<title>Node29</title>
<g id="a_Node000029"><a xlink:href="namespacedetail.html#a1a249f85c1630245e8355b674806474a" target="_top" xlink:title=" ">
<polygon fill="white" stroke="#666666" points="507,-253 355,-253 355,-234 507,-234 507,-253"/>
<text text-anchor="middle" x="431" y="-241" font-family="Helvetica,sans-Serif" font-size="10.00">detail::parse_dynamic_spec</text>
</a>
</g>
</g>
<!-- Node1&#45;&gt;Node29 -->
<g id="edge28_Node000001_Node000029" class="edge">
<title>Node1&#45;&gt;Node29</title>
<g id="a_edge28_Node000001_Node000029"><a xlink:title=" ">
<path fill="none" stroke="#63b8ff" d="M612.24,-763.69C612.85,-677.47 610.73,-335.88 540,-262.5 531.15,-253.32 519.53,-247.64 507.2,-244.26"/>
<polygon fill="#63b8ff" stroke="#63b8ff" points="608.74,-763.88 612.14,-773.91 615.74,-763.95 608.74,-763.88"/>
</a>
</g>
</g>
<!-- Node30 -->
<g id="Node000030" class="node">
<title>Node30</title>
<g id="a_Node000030"><a xlink:href="namespacedetail.html#afbb7f1837c4f769e74317dec368c5206" target="_top" xlink:title=" ">
<polygon fill="white" stroke="#666666" points="489,-215.5 373,-215.5 373,-185.5 489,-185.5 489,-215.5"/>
<text text-anchor="start" x="381" y="-203.5" font-family="Helvetica,sans-Serif" font-size="10.00">detail::parse_format</text>
<text text-anchor="middle" x="431" y="-192.5" font-family="Helvetica,sans-Serif" font-size="10.00">_specs</text>
</a>
</g>
</g>
<!-- Node1&#45;&gt;Node30 -->
<g id="edge29_Node000001_Node000030" class="edge">
<title>Node1&#45;&gt;Node30</title>
<g id="a_edge29_Node000001_Node000030"><a xlink:title=" ">
<path fill="none" stroke="#63b8ff" d="M612.35,-763.53C613.48,-673.56 613.49,-306.66 540,-225.5 527.08,-211.23 507.78,-204.3 489.05,-201.14"/>
<polygon fill="#63b8ff" stroke="#63b8ff" points="608.84,-763.67 612.2,-773.72 615.84,-763.77 608.84,-763.67"/>
</a>
</g>
</g>
<!-- Node33 -->
<g id="Node000033" class="node">
<title>Node33</title>
<g id="a_Node000033"><a xlink:href="namespacedetail.html#afc9d93e58b8edb8077f8bc8eee7f4035" target="_top" xlink:title=" ">
<polygon fill="white" stroke="#666666" points="489,-167 373,-167 373,-148 489,-148 489,-167"/>
<text text-anchor="middle" x="431" y="-155" font-family="Helvetica,sans-Serif" font-size="10.00">detail::parse_header</text>
</a>
</g>
</g>
<!-- Node1&#45;&gt;Node33 -->
<g id="edge32_Node000001_Node000033" class="edge">
<title>Node1&#45;&gt;Node33</title>
<g id="a_edge32_Node000001_Node000033"><a xlink:title=" ">
<path fill="none" stroke="#63b8ff" d="M611.03,-763.6C605.99,-663.73 581.38,-220.26 540,-176.5 526.99,-162.74 507.77,-156.8 489.15,-154.69"/>
<polygon fill="#63b8ff" stroke="#63b8ff" points="607.55,-763.98 611.54,-773.8 614.54,-763.64 607.55,-763.98"/>
</a>
</g>
</g>
<!-- Node34 -->
<g id="Node000034" class="node">
<title>Node34</title>
<g id="a_Node000034"><a xlink:href="namespacedetail.html#a22771d6da5cf06defaea3f1526940142" target="_top" xlink:title=" ">
<polygon fill="white" stroke="#666666" points="494.5,-130 367.5,-130 367.5,-111 494.5,-111 494.5,-130"/>
<text text-anchor="middle" x="431" y="-118" font-family="Helvetica,sans-Serif" font-size="10.00">detail::parse_precision</text>
</a>
</g>
</g>
<!-- Node1&#45;&gt;Node34 -->
<g id="edge33_Node000001_Node000034" class="edge">
<title>Node1&#45;&gt;Node34</title>
<g id="a_edge33_Node000001_Node000034"><a xlink:title=" ">
<path fill="none" stroke="#63b8ff" d="M611.18,-763.69C606.7,-660.37 583.89,-186.24 540,-139.5 528.27,-127.01 511.44,-120.95 494.54,-118.35"/>
<polygon fill="#63b8ff" stroke="#63b8ff" points="607.68,-763.86 611.6,-773.7 614.67,-763.56 607.68,-763.86"/>
</a>
</g>
</g>
<!-- Node35 -->
<g id="Node000035" class="node">
<title>Node35</title>
<g id="a_Node000035"><a xlink:href="namespacedetail.html#a1c8c2218e4c822aa8f743fb9c573717f" target="_top" xlink:title=" ">
<polygon fill="white" stroke="#666666" points="472.5,-93 389.5,-93 389.5,-74 472.5,-74 472.5,-93"/>
<text text-anchor="middle" x="431" y="-81" font-family="Helvetica,sans-Serif" font-size="10.00">detail::vprintf</text>
</a>
</g>
</g>
<!-- Node1&#45;&gt;Node35 -->
<g id="edge34_Node000001_Node000035" class="edge">
<title>Node1&#45;&gt;Node35</title>
<g id="a_edge34_Node000001_Node000035"><a xlink:title=" ">
<path fill="none" stroke="#63b8ff" d="M611.3,-763.57C607.35,-656.46 586.38,-152.18 540,-102.5 523.18,-84.48 495.74,-79.83 472.73,-79.63"/>
<polygon fill="#63b8ff" stroke="#63b8ff" points="607.8,-763.79 611.66,-773.65 614.8,-763.53 607.8,-763.79"/>
</a>
</g>
</g>
<!-- Node36 -->
<g id="Node000036" class="node">
<title>Node36</title>
<g id="a_Node000036"><a xlink:href="namespacedetail.html#a777e6fe73ebbbc35d915d2d20f1dfd44" target="_top" xlink:title=" ">
<polygon fill="white" stroke="#666666" points="468.5,-56 393.5,-56 393.5,-37 468.5,-37 468.5,-56"/>
<text text-anchor="middle" x="431" y="-44" font-family="Helvetica,sans-Serif" font-size="10.00">detail::write</text>
</a>
</g>
</g>
<!-- Node1&#45;&gt;Node36 -->
<g id="edge35_Node000001_Node000036" class="edge">
<title>Node1&#45;&gt;Node36</title>
<g id="a_edge35_Node000001_Node000036"><a xlink:title=" ">
<path fill="none" stroke="#63b8ff" d="M611.42,-763.88C608.01,-654.03 588.93,-118.2 540,-65.5 522.19,-46.32 492.35,-42.26 468.55,-42.61"/>
<polygon fill="#63b8ff" stroke="#63b8ff" points="607.93,-764.02 611.73,-773.91 614.92,-763.8 607.93,-764.02"/>
</a>
</g>
</g>
<!-- Node37 -->
<g id="Node000037" class="node">
<title>Node37</title>
<g id="a_Node000037"><a xlink:href="namespacedetail.html#a7006c3bfba162ffe36323541306bc600" target="_top" xlink:title=" ">
<polygon fill="white" stroke="#666666" points="468.5,-19 393.5,-19 393.5,0 468.5,0 468.5,-19"/>
<text text-anchor="middle" x="431" y="-7" font-family="Helvetica,sans-Serif" font-size="10.00">detail::write</text>
</a>
</g>
</g>
<!-- Node1&#45;&gt;Node37 -->
<g id="edge36_Node000001_Node000037" class="edge">
<title>Node1&#45;&gt;Node37</title>
<g id="a_edge36_Node000001_Node000037"><a xlink:title=" ">
<path fill="none" stroke="#63b8ff" d="M611.54,-763.91C608.67,-650.67 591.77,-83.04 540,-27.5 522.18,-8.38 492.34,-4.61 468.54,-5.21"/>
<polygon fill="#63b8ff" stroke="#63b8ff" points="608.04,-764.02 611.78,-773.93 615.03,-763.85 608.04,-764.02"/>
</a>
</g>
</g>
<!-- Node12 -->
<g id="Node000012" class="node">
<title>Node12</title>
<g id="a_Node000012"><a xlink:href="classdetail_1_1format__string__checker.html#a051de19c0766516deb1df85e28616c01" target="_top" xlink:title=" ">
<polygon fill="white" stroke="#666666" points="277,-1110.5 161,-1110.5 161,-1080.5 277,-1080.5 277,-1110.5"/>
<text text-anchor="start" x="169" y="-1098.5" font-family="Helvetica,sans-Serif" font-size="10.00">detail::format_string</text>
<text text-anchor="middle" x="219" y="-1087.5" font-family="Helvetica,sans-Serif" font-size="10.00">_checker::on_arg_id</text>
</a>
</g>
</g>
<!-- Node11&#45;&gt;Node12 -->
<g id="edge11_Node000011_Node000012" class="edge">
<title>Node11&#45;&gt;Node12</title>
<g id="a_edge11_Node000011_Node000012"><a xlink:title=" ">
<path fill="none" stroke="#63b8ff" d="M362.55,-1095.5C335,-1095.5 303.48,-1095.5 277.09,-1095.5"/>
<polygon fill="#63b8ff" stroke="#63b8ff" points="362.89,-1099 372.89,-1095.5 362.89,-1092 362.89,-1099"/>
</a>
</g>
</g>
<!-- Node27 -->
<g id="Node000027" class="node">
<title>Node27</title>
<g id="a_Node000027"><a xlink:href="structformatter_3_01std_1_1error__code_01_4.html#a9d24221c1766094aca57c5dec38fa67d" target="_top" xlink:title=" ">
<polygon fill="white" stroke="#666666" points="278.5,-332.5 159.5,-332.5 159.5,-302.5 278.5,-302.5 278.5,-332.5"/>
<text text-anchor="start" x="167.5" y="-320.5" font-family="Helvetica,sans-Serif" font-size="10.00">formatter&lt; std::error</text>
<text text-anchor="middle" x="219" y="-309.5" font-family="Helvetica,sans-Serif" font-size="10.00">_code &gt;::parse</text>
</a>
</g>
</g>
<!-- Node26&#45;&gt;Node27 -->
<g id="edge26_Node000026_Node000027" class="edge">
<title>Node26&#45;&gt;Node27</title>
<g id="a_edge26_Node000026_Node000027"><a xlink:title=" ">
<path fill="none" stroke="#63b8ff" d="M367.18,-317.5C339.11,-317.5 306.23,-317.5 278.67,-317.5"/>
<polygon fill="#63b8ff" stroke="#63b8ff" points="367.28,-321 377.28,-317.5 367.28,-314 367.28,-321"/>
</a>
</g>
</g>
<!-- Node31 -->
<g id="Node000031" class="node">
<title>Node31</title>
<g id="a_Node000031"><a xlink:href="structformatter_3_01bytes_01_4.html#aea6a86c93b8c788b275fcccb7a841123" target="_top" xlink:title=" ">
<polygon fill="white" stroke="#666666" points="275.5,-239.5 162.5,-239.5 162.5,-209.5 275.5,-209.5 275.5,-239.5"/>
<text text-anchor="start" x="170.5" y="-227.5" font-family="Helvetica,sans-Serif" font-size="10.00">formatter&lt; bytes &gt;</text>
<text text-anchor="middle" x="219" y="-216.5" font-family="Helvetica,sans-Serif" font-size="10.00">::parse</text>
</a>
</g>
</g>
<!-- Node30&#45;&gt;Node31 -->
<g id="edge30_Node000030_Node000031" class="edge">
<title>Node30&#45;&gt;Node31</title>
<g id="a_edge30_Node000030_Node000031"><a xlink:title=" ">
<path fill="none" stroke="#63b8ff" d="M362.75,-208.19C334.64,-211.4 302.38,-215.09 275.64,-218.14"/>
<polygon fill="#63b8ff" stroke="#63b8ff" points="363.36,-211.64 372.89,-207.03 362.56,-204.68 363.36,-211.64"/>
</a>
</g>
</g>
<!-- Node32 -->
<g id="Node000032" class="node">
<title>Node32</title>
<g id="a_Node000032"><a xlink:href="structformatter_3_01group__digits__view_3_01T_01_4_01_4.html#a226542969556b083f4f036307760a958" target="_top" xlink:title=" ">
<polygon fill="white" stroke="#666666" points="286,-191.5 152,-191.5 152,-161.5 286,-161.5 286,-191.5"/>
<text text-anchor="start" x="160" y="-179.5" font-family="Helvetica,sans-Serif" font-size="10.00">formatter&lt; group_digits</text>
<text text-anchor="middle" x="219" y="-168.5" font-family="Helvetica,sans-Serif" font-size="10.00">_view&lt; T &gt; &gt;::parse</text>
</a>
</g>
</g>
<!-- Node30&#45;&gt;Node32 -->
<g id="edge31_Node000030_Node000032" class="edge">
<title>Node30&#45;&gt;Node32</title>
<g id="a_edge31_Node000030_Node000032"><a xlink:title=" ">
<path fill="none" stroke="#63b8ff" d="M362.93,-192.83C338.33,-190.02 310.52,-186.85 286.01,-184.04"/>
<polygon fill="#63b8ff" stroke="#63b8ff" points="362.56,-196.32 372.89,-193.97 363.36,-189.36 362.56,-196.32"/>
</a>
</g>
</g>
<!-- Node38 -->
<g id="Node000038" class="node">
<title>Node38</title>
<g id="a_Node000038"><a xlink:href="format-inl_8h.html#a7f93bbdee51ea567c2cdf8532c0c1fc1" target="_top" xlink:title=" ">
<polygon fill="white" stroke="#666666" points="278.5,-19 159.5,-19 159.5,0 278.5,0 278.5,-19"/>
<text text-anchor="middle" x="219" y="-7" font-family="Helvetica,sans-Serif" font-size="10.00">format_system_error</text>
</a>
</g>
</g>
<!-- Node37&#45;&gt;Node38 -->
<g id="edge37_Node000037_Node000038" class="edge">
<title>Node37&#45;&gt;Node38</title>
<g id="a_edge37_Node000037_Node000038"><a xlink:title=" ">
<path fill="none" stroke="#63b8ff" d="M383.36,-9.5C352.51,-9.5 311.81,-9.5 278.75,-9.5"/>
<polygon fill="#63b8ff" stroke="#63b8ff" points="383.42,-13 393.42,-9.5 383.42,-6 383.42,-13"/>
</a>
</g>
</g>
<!-- Node39 -->
<g id="Node000039" class="node">
<title>Node39</title>
<g id="a_Node000039"><a xlink:href="format-inl_8h.html#af135c0ecc93e827e4ef51b18a4b0da74" target="_top" xlink:title=" ">
<polygon fill="white" stroke="#666666" points="116,-19 0,-19 0,0 116,0 116,-19"/>
<text text-anchor="middle" x="58" y="-7" font-family="Helvetica,sans-Serif" font-size="10.00">report_system_error</text>
</a>
</g>
</g>
<!-- Node38&#45;&gt;Node39 -->
<g id="edge38_Node000038_Node000039" class="edge">
<title>Node38&#45;&gt;Node39</title>
<g id="a_edge38_Node000038_Node000039"><a xlink:title=" ">
<path fill="none" stroke="#63b8ff" d="M149.23,-9.5C138.21,-9.5 126.9,-9.5 116.19,-9.5"/>
<polygon fill="#63b8ff" stroke="#63b8ff" points="149.25,-13 159.25,-9.5 149.25,-6 149.25,-13"/>
</a>
</g>
</g>
</g>
</svg>
