<?xml version="1.0" encoding="UTF-8" standalone="no"?>
<!DOCTYPE svg PUBLIC "-//W3C//DTD SVG 1.1//EN"
 "http://www.w3.org/Graphics/SVG/1.1/DTD/svg11.dtd">
<!-- Generated by graphviz version 2.43.0 (0)
 -->
<!-- Title: thirdparty/RadioLib/include/RadioLib/protocols/BellModem/BellModem.h Pages: 1 -->
<svg width="306pt" height="401pt"
 viewBox="0.00 0.00 305.50 401.00" xmlns="http://www.w3.org/2000/svg" xmlns:xlink="http://www.w3.org/1999/xlink">
<g id="graph0" class="graph" transform="scale(1 1) rotate(0) translate(4 397)">
<title>thirdparty/RadioLib/include/RadioLib/protocols/BellModem/BellModem.h</title>
<!-- Node1 -->
<g id="Node000001" class="node">
<title>Node1</title>
<g id="a_Node000001"><a xlink:title=" ">
<polygon fill="#999999" stroke="#666666" points="203.5,-393 55.5,-393 55.5,-352 203.5,-352 203.5,-393"/>
<text text-anchor="start" x="63.5" y="-381" font-family="Helvetica,sans-Serif" font-size="10.00">thirdparty/RadioLib</text>
<text text-anchor="start" x="63.5" y="-370" font-family="Helvetica,sans-Serif" font-size="10.00">/include/RadioLib/protocols</text>
<text text-anchor="middle" x="129.5" y="-359" font-family="Helvetica,sans-Serif" font-size="10.00">/BellModem/BellModem.h</text>
</a>
</g>
</g>
<!-- Node2 -->
<g id="Node000002" class="node">
<title>Node2</title>
<g id="a_Node000002"><a xlink:href="RadioLib_8h.html" target="_top" xlink:title=" ">
<polygon fill="white" stroke="#666666" points="193.5,-162 39.5,-162 39.5,-132 193.5,-132 193.5,-162"/>
<text text-anchor="start" x="47.5" y="-150" font-family="Helvetica,sans-Serif" font-size="10.00">thirdparty/RadioLib</text>
<text text-anchor="middle" x="116.5" y="-139" font-family="Helvetica,sans-Serif" font-size="10.00">/include/RadioLib/RadioLib.h</text>
</a>
</g>
</g>
<!-- Node1&#45;&gt;Node2 -->
<g id="edge1_Node000001_Node000002" class="edge">
<title>Node1&#45;&gt;Node2</title>
<g id="a_edge1_Node000001_Node000002"><a xlink:title=" ">
<path fill="none" stroke="#63b8ff" d="M109.41,-343.21C104.54,-334.84 100.01,-325.39 97.5,-316 82.63,-260.42 101.67,-191.47 111.41,-162.2"/>
<polygon fill="#63b8ff" stroke="#63b8ff" points="106.51,-345.16 114.76,-351.81 112.45,-341.47 106.51,-345.16"/>
</a>
</g>
</g>
<!-- Node6 -->
<g id="Node000006" class="node">
<title>Node6</title>
<g id="a_Node000006"><a xlink:href="AX25_8h.html" target="_top" xlink:title=" ">
<polygon fill="white" stroke="#666666" points="254.5,-316 106.5,-316 106.5,-275 254.5,-275 254.5,-316"/>
<text text-anchor="start" x="114.5" y="-304" font-family="Helvetica,sans-Serif" font-size="10.00">thirdparty/RadioLib</text>
<text text-anchor="start" x="114.5" y="-293" font-family="Helvetica,sans-Serif" font-size="10.00">/include/RadioLib/protocols</text>
<text text-anchor="middle" x="180.5" y="-282" font-family="Helvetica,sans-Serif" font-size="10.00">/AX25/AX25.h</text>
</a>
</g>
</g>
<!-- Node1&#45;&gt;Node6 -->
<g id="edge6_Node000001_Node000006" class="edge">
<title>Node1&#45;&gt;Node6</title>
<g id="a_edge6_Node000001_Node000006"><a xlink:title=" ">
<path fill="none" stroke="#63b8ff" d="M148.61,-343.39C154.8,-334.3 161.52,-324.41 167.19,-316.07"/>
<polygon fill="#63b8ff" stroke="#63b8ff" points="145.63,-341.56 142.9,-351.79 151.42,-345.49 145.63,-341.56"/>
</a>
</g>
</g>
<!-- Node3 -->
<g id="Node000003" class="node">
<title>Node3</title>
<g id="a_Node000003"><a xlink:href="transmitter-normal_8cpp.html" target="_top" xlink:title="CHRONOS&#45;LoRa Transmitter program (Normal)">
<polygon fill="white" stroke="#666666" points="147,-19 0,-19 0,0 147,0 147,-19"/>
<text text-anchor="middle" x="73.5" y="-7" font-family="Helvetica,sans-Serif" font-size="10.00">src/transmitter&#45;normal.cpp</text>
</a>
</g>
</g>
<!-- Node2&#45;&gt;Node3 -->
<g id="edge2_Node000002_Node000003" class="edge">
<title>Node2&#45;&gt;Node3</title>
<g id="a_edge2_Node000002_Node000003"><a xlink:title=" ">
<path fill="none" stroke="#63b8ff" d="M104.03,-122.86C99.93,-114.56 95.62,-105.03 92.5,-96 83.05,-68.7 77.16,-34.82 74.75,-19.17"/>
<polygon fill="#63b8ff" stroke="#63b8ff" points="101,-124.62 108.67,-131.93 107.23,-121.43 101,-124.62"/>
</a>
</g>
</g>
<!-- Node4 -->
<g id="Node000004" class="node">
<title>Node4</title>
<g id="a_Node000004"><a xlink:href="PiHal_8h.html" target="_top" xlink:title=" ">
<polygon fill="white" stroke="#666666" points="219.5,-96 101.5,-96 101.5,-55 219.5,-55 219.5,-96"/>
<text text-anchor="start" x="109.5" y="-84" font-family="Helvetica,sans-Serif" font-size="10.00">thirdparty/RadioLib</text>
<text text-anchor="start" x="109.5" y="-73" font-family="Helvetica,sans-Serif" font-size="10.00">/include/RadioLib/hal</text>
<text text-anchor="middle" x="160.5" y="-62" font-family="Helvetica,sans-Serif" font-size="10.00">/RPi/PiHal.h</text>
</a>
</g>
</g>
<!-- Node2&#45;&gt;Node4 -->
<g id="edge3_Node000002_Node000004" class="edge">
<title>Node2&#45;&gt;Node4</title>
<g id="a_edge3_Node000002_Node000004"><a xlink:title=" ">
<path fill="none" stroke="#63b8ff" d="M130.87,-123.31C136.43,-114.52 142.74,-104.55 148.11,-96.07"/>
<polygon fill="#63b8ff" stroke="#63b8ff" points="127.8,-121.61 125.4,-131.94 133.71,-125.36 127.8,-121.61"/>
</a>
</g>
</g>
<!-- Node4&#45;&gt;Node3 -->
<g id="edge5_Node000004_Node000003" class="edge">
<title>Node4&#45;&gt;Node3</title>
<g id="a_edge5_Node000004_Node000003"><a xlink:title=" ">
<path fill="none" stroke="#63b8ff" d="M125.71,-48.9C111.41,-38.39 95.8,-26.9 85.41,-19.26"/>
<polygon fill="#63b8ff" stroke="#63b8ff" points="123.8,-51.84 133.92,-54.95 127.94,-46.21 123.8,-51.84"/>
</a>
</g>
</g>
<!-- Node5 -->
<g id="Node000005" class="node">
<title>Node5</title>
<g id="a_Node000005"><a xlink:href="receiver-normal_8cpp.html" target="_top" xlink:title="CHRONOS&#45;LoRa Receiver program (Normal)">
<polygon fill="white" stroke="#666666" points="297.5,-19 165.5,-19 165.5,0 297.5,0 297.5,-19"/>
<text text-anchor="middle" x="231.5" y="-7" font-family="Helvetica,sans-Serif" font-size="10.00">src/receiver&#45;normal.cpp</text>
</a>
</g>
</g>
<!-- Node4&#45;&gt;Node5 -->
<g id="edge4_Node000004_Node000005" class="edge">
<title>Node4&#45;&gt;Node5</title>
<g id="a_edge4_Node000004_Node000005"><a xlink:title=" ">
<path fill="none" stroke="#63b8ff" d="M189.88,-48.02C201.28,-37.74 213.54,-26.69 221.78,-19.26"/>
<polygon fill="#63b8ff" stroke="#63b8ff" points="187.27,-45.65 182.19,-54.95 191.96,-50.85 187.27,-45.65"/>
</a>
</g>
</g>
<!-- Node6&#45;&gt;Node2 -->
<g id="edge7_Node000006_Node000002" class="edge">
<title>Node6&#45;&gt;Node2</title>
<g id="a_edge7_Node000006_Node000002"><a xlink:title=" ">
<path fill="none" stroke="#63b8ff" d="M154.01,-267.09C147.07,-258.64 140.22,-248.93 135.5,-239 123.45,-213.64 119,-180.71 117.39,-162.22"/>
<polygon fill="#63b8ff" stroke="#63b8ff" points="151.44,-269.48 160.62,-274.78 156.75,-264.91 151.44,-269.48"/>
</a>
</g>
</g>
<!-- Node7 -->
<g id="Node000007" class="node">
<title>Node7</title>
<g id="a_Node000007"><a xlink:href="APRS_8h.html" target="_top" xlink:title=" ">
<polygon fill="white" stroke="#666666" points="292.5,-239 144.5,-239 144.5,-198 292.5,-198 292.5,-239"/>
<text text-anchor="start" x="152.5" y="-227" font-family="Helvetica,sans-Serif" font-size="10.00">thirdparty/RadioLib</text>
<text text-anchor="start" x="152.5" y="-216" font-family="Helvetica,sans-Serif" font-size="10.00">/include/RadioLib/protocols</text>
<text text-anchor="middle" x="218.5" y="-205" font-family="Helvetica,sans-Serif" font-size="10.00">/APRS/APRS.h</text>
</a>
</g>
</g>
<!-- Node6&#45;&gt;Node7 -->
<g id="edge8_Node000006_Node000007" class="edge">
<title>Node6&#45;&gt;Node7</title>
<g id="a_edge8_Node000006_Node000007"><a xlink:title=" ">
<path fill="none" stroke="#63b8ff" d="M195.03,-265.83C199.56,-256.89 204.45,-247.24 208.58,-239.07"/>
<polygon fill="#63b8ff" stroke="#63b8ff" points="191.88,-264.29 190.48,-274.79 198.13,-267.46 191.88,-264.29"/>
</a>
</g>
</g>
<!-- Node7&#45;&gt;Node2 -->
<g id="edge9_Node000007_Node000002" class="edge">
<title>Node7&#45;&gt;Node2</title>
<g id="a_edge9_Node000007_Node000002"><a xlink:title=" ">
<path fill="none" stroke="#63b8ff" d="M181.3,-192.15C166.43,-182.02 149.87,-170.74 137.21,-162.11"/>
<polygon fill="#63b8ff" stroke="#63b8ff" points="179.58,-195.22 189.82,-197.96 183.52,-189.43 179.58,-195.22"/>
</a>
</g>
</g>
</g>
</svg>
