<?xml version="1.0" encoding="UTF-8" standalone="no"?>
<!DOCTYPE svg PUBLIC "-//W3C//DTD SVG 1.1//EN"
 "http://www.w3.org/Graphics/SVG/1.1/DTD/svg11.dtd">
<!-- Generated by graphviz version 2.43.0 (0)
 -->
<!-- Title: chronos_rgb_to_ycocg Pages: 1 -->
<svg width="308pt" height="434pt"
 viewBox="0.00 0.00 308.00 434.00" xmlns="http://www.w3.org/2000/svg" xmlns:xlink="http://www.w3.org/1999/xlink">
<g id="graph0" class="graph" transform="scale(1 1) rotate(0) translate(4 430)">
<title>chronos_rgb_to_ycocg</title>
<!-- Node1 -->
<g id="Node000001" class="node">
<title>Node1</title>
<g id="a_Node000001"><a xlink:title=" ">
<polygon fill="#999999" stroke="#666666" points="125,-222 0,-222 0,-203 125,-203 125,-222"/>
<text text-anchor="middle" x="62.5" y="-210" font-family="Helvetica,sans-Serif" font-size="10.00">chronos_rgb_to_ycocg</text>
</a>
</g>
</g>
<!-- Node2 -->
<g id="Node000002" class="node">
<title>Node2</title>
<g id="a_Node000002"><a xlink:href="chronos_8cpp.html#a1d40478f7931bc2280f6d1048a1cb496" target="_top" xlink:title="Clamp GraphicsMagick&#39;s Quantum value from signed to unisgned limit.">
<polygon fill="white" stroke="#666666" points="300,-426 161,-426 161,-407 300,-407 300,-426"/>
<text text-anchor="middle" x="230.5" y="-414" font-family="Helvetica,sans-Serif" font-size="10.00">chronos_clamp_quantum</text>
</a>
</g>
</g>
<!-- Node1&#45;&gt;Node2 -->
<g id="edge1_Node000001_Node000002" class="edge">
<title>Node1&#45;&gt;Node2</title>
<g id="a_edge1_Node000001_Node000002"><a xlink:title=" ">
<path fill="none" stroke="#63b8ff" d="M65.69,-222.39C73.09,-253.49 100.25,-350.12 161,-398.5 162.76,-399.9 164.62,-401.19 166.55,-402.38"/>
<polygon fill="#63b8ff" stroke="#63b8ff" points="164.94,-405.49 175.43,-407 168.17,-399.28 164.94,-405.49"/>
</a>
</g>
</g>
<!-- Node3 -->
<g id="Node000003" class="node">
<title>Node3</title>
<g id="a_Node000003"><a xlink:href="image_8h.html#ad782fe82dd5e3177a30f47262a612f38" target="_top" xlink:title=" ">
<polygon fill="white" stroke="#666666" points="277.5,-389 183.5,-389 183.5,-370 277.5,-370 277.5,-389"/>
<text text-anchor="middle" x="230.5" y="-377" font-family="Helvetica,sans-Serif" font-size="10.00">CloneImageInfo</text>
</a>
</g>
</g>
<!-- Node1&#45;&gt;Node3 -->
<g id="edge2_Node000001_Node000003" class="edge">
<title>Node1&#45;&gt;Node3</title>
<g id="a_edge2_Node000001_Node000003"><a xlink:title=" ">
<path fill="none" stroke="#63b8ff" d="M66.99,-222.29C77.07,-249.04 108.82,-323.92 161,-361.5 164.91,-364.32 169.23,-366.69 173.74,-368.7"/>
<polygon fill="#63b8ff" stroke="#63b8ff" points="172.6,-372.01 183.19,-372.31 175.1,-365.47 172.6,-372.01"/>
</a>
</g>
</g>
<!-- Node4 -->
<g id="Node000004" class="node">
<title>Node4</title>
<g id="a_Node000004"><a xlink:href="error_8h.html#ad4e89136e46c27dde9a3c27818a7f9d3" target="_top" xlink:title=" ">
<polygon fill="white" stroke="#666666" points="291.5,-352 169.5,-352 169.5,-333 291.5,-333 291.5,-352"/>
<text text-anchor="middle" x="230.5" y="-340" font-family="Helvetica,sans-Serif" font-size="10.00">DestroyExceptionInfo</text>
</a>
</g>
</g>
<!-- Node1&#45;&gt;Node4 -->
<g id="edge3_Node000001_Node000004" class="edge">
<title>Node1&#45;&gt;Node4</title>
<g id="a_edge3_Node000001_Node000004"><a xlink:title=" ">
<path fill="none" stroke="#63b8ff" d="M68.97,-222C81.98,-243.71 116.98,-297.16 161,-324.5 163.77,-326.22 166.7,-327.78 169.72,-329.18"/>
<polygon fill="#63b8ff" stroke="#63b8ff" points="168.45,-332.45 179.04,-332.98 171.1,-325.96 168.45,-332.45"/>
</a>
</g>
</g>
<!-- Node5 -->
<g id="Node000005" class="node">
<title>Node5</title>
<g id="a_Node000005"><a xlink:href="image_8h.html#a7869e9fa7695dc4db968cbb3dd9a617d" target="_top" xlink:title=" ">
<polygon fill="white" stroke="#666666" points="273.5,-315 187.5,-315 187.5,-296 273.5,-296 273.5,-315"/>
<text text-anchor="middle" x="230.5" y="-303" font-family="Helvetica,sans-Serif" font-size="10.00">DestroyImage</text>
</a>
</g>
</g>
<!-- Node1&#45;&gt;Node5 -->
<g id="edge4_Node000001_Node000005" class="edge">
<title>Node1&#45;&gt;Node5</title>
<g id="a_edge4_Node000001_Node000005"><a xlink:title=" ">
<path fill="none" stroke="#63b8ff" d="M73.12,-222.07C89.65,-237.99 125.15,-269.9 161,-287.5 166.23,-290.07 171.88,-292.3 177.6,-294.24"/>
<polygon fill="#63b8ff" stroke="#63b8ff" points="176.66,-297.61 187.25,-297.22 178.73,-290.92 176.66,-297.61"/>
</a>
</g>
</g>
<!-- Node6 -->
<g id="Node000006" class="node">
<title>Node6</title>
<g id="a_Node000006"><a xlink:href="image_8h.html#a2cf7caf57cb8706106008def88d65ba9" target="_top" xlink:title=" ">
<polygon fill="white" stroke="#666666" points="282.5,-278 178.5,-278 178.5,-259 282.5,-259 282.5,-278"/>
<text text-anchor="middle" x="230.5" y="-266" font-family="Helvetica,sans-Serif" font-size="10.00">DestroyImageInfo</text>
</a>
</g>
</g>
<!-- Node1&#45;&gt;Node6 -->
<g id="edge5_Node000001_Node000006" class="edge">
<title>Node1&#45;&gt;Node6</title>
<g id="a_edge5_Node000001_Node000006"><a xlink:title=" ">
<path fill="none" stroke="#63b8ff" d="M86.09,-222.15C105.68,-230.32 134.91,-242.02 161,-250.5 167.14,-252.5 173.64,-254.43 180.1,-256.24"/>
<polygon fill="#63b8ff" stroke="#63b8ff" points="179.58,-259.73 190.15,-258.99 181.43,-252.98 179.58,-259.73"/>
</a>
</g>
</g>
<!-- Node7 -->
<g id="Node000007" class="node">
<title>Node7</title>
<g id="a_Node000007"><a xlink:href="magick_8h.html#a4765a03da25344197322df2ed33074b2" target="_top" xlink:title=" ">
<polygon fill="white" stroke="#666666" points="275.5,-241 185.5,-241 185.5,-222 275.5,-222 275.5,-241"/>
<text text-anchor="middle" x="230.5" y="-229" font-family="Helvetica,sans-Serif" font-size="10.00">DestroyMagick</text>
</a>
</g>
</g>
<!-- Node1&#45;&gt;Node7 -->
<g id="edge6_Node000001_Node000007" class="edge">
<title>Node1&#45;&gt;Node7</title>
<g id="a_edge6_Node000001_Node000007"><a xlink:title=" ">
<path fill="none" stroke="#63b8ff" d="M125.31,-219.57C141.65,-221.44 159.15,-223.45 175.06,-225.27"/>
<polygon fill="#63b8ff" stroke="#63b8ff" points="174.93,-228.78 185.26,-226.44 175.72,-221.82 174.93,-228.78"/>
</a>
</g>
</g>
<!-- Node8 -->
<g id="Node000008" class="node">
<title>Node8</title>
<g id="a_Node000008"><a xlink:href="error_8h.html#a7d788a94491285066ede5492babe205d" target="_top" xlink:title=" ">
<polygon fill="white" stroke="#666666" points="281,-204 180,-204 180,-185 281,-185 281,-204"/>
<text text-anchor="middle" x="230.5" y="-192" font-family="Helvetica,sans-Serif" font-size="10.00">GetExceptionInfo</text>
</a>
</g>
</g>
<!-- Node1&#45;&gt;Node8 -->
<g id="edge7_Node000001_Node000008" class="edge">
<title>Node1&#45;&gt;Node8</title>
<g id="a_edge7_Node000001_Node000008"><a xlink:title=" ">
<path fill="none" stroke="#63b8ff" d="M125.31,-205.8C139.78,-204.23 155.16,-202.56 169.54,-201"/>
<polygon fill="#63b8ff" stroke="#63b8ff" points="170.25,-204.45 179.81,-199.89 169.49,-197.49 170.25,-204.45"/>
</a>
</g>
</g>
<!-- Node9 -->
<g id="Node000009" class="node">
<title>Node9</title>
<g id="a_Node000009"><a xlink:href="pixel__cache_8h.html#a17558e5118ef7ce7d6d744cf43c03182" target="_top" xlink:title=" ">
<polygon fill="white" stroke="#666666" points="277,-167 184,-167 184,-148 277,-148 277,-167"/>
<text text-anchor="middle" x="230.5" y="-155" font-family="Helvetica,sans-Serif" font-size="10.00">GetImagePixels</text>
</a>
</g>
</g>
<!-- Node1&#45;&gt;Node9 -->
<g id="edge8_Node000001_Node000009" class="edge">
<title>Node1&#45;&gt;Node9</title>
<g id="a_edge8_Node000001_Node000009"><a xlink:title=" ">
<path fill="none" stroke="#63b8ff" d="M87.75,-202.91C107.36,-195.31 135.76,-184.65 161,-176.5 168.02,-174.23 175.51,-171.99 182.85,-169.88"/>
<polygon fill="#63b8ff" stroke="#63b8ff" points="184.04,-173.18 192.72,-167.1 182.14,-166.44 184.04,-173.18"/>
</a>
</g>
</g>
<!-- Node10 -->
<g id="Node000010" class="node">
<title>Node10</title>
<g id="a_Node000010"><a xlink:href="magick_8h.html#a69be3af32d9cdda002f719777e8c03d8" target="_top" xlink:title=" ">
<polygon fill="white" stroke="#666666" points="277.5,-130 183.5,-130 183.5,-111 277.5,-111 277.5,-130"/>
<text text-anchor="middle" x="230.5" y="-118" font-family="Helvetica,sans-Serif" font-size="10.00">InitializeMagick</text>
</a>
</g>
</g>
<!-- Node1&#45;&gt;Node10 -->
<g id="edge9_Node000001_Node000010" class="edge">
<title>Node1&#45;&gt;Node10</title>
<g id="a_edge9_Node000001_Node000010"><a xlink:title=" ">
<path fill="none" stroke="#63b8ff" d="M73.74,-202.75C90.61,-187.19 125.89,-156.75 161,-139.5 165.66,-137.21 170.63,-135.16 175.7,-133.34"/>
<polygon fill="#63b8ff" stroke="#63b8ff" points="177.09,-136.56 185.48,-130.09 174.89,-129.92 177.09,-136.56"/>
</a>
</g>
</g>
<!-- Node11 -->
<g id="Node000011" class="node">
<title>Node11</title>
<g id="a_Node000011"><a xlink:href="constitute_8h.html#a8205b8aa918e1f51100df7d1e1d808b4" target="_top" xlink:title=" ">
<polygon fill="white" stroke="#666666" points="266.5,-93 194.5,-93 194.5,-74 266.5,-74 266.5,-93"/>
<text text-anchor="middle" x="230.5" y="-81" font-family="Helvetica,sans-Serif" font-size="10.00">ReadImage</text>
</a>
</g>
</g>
<!-- Node1&#45;&gt;Node11 -->
<g id="edge10_Node000001_Node000011" class="edge">
<title>Node1&#45;&gt;Node11</title>
<g id="a_edge10_Node000001_Node000011"><a xlink:title=" ">
<path fill="none" stroke="#63b8ff" d="M69.24,-202.89C82.55,-181.46 117.71,-129.53 161,-102.5 168.22,-97.99 176.53,-94.53 184.81,-91.88"/>
<polygon fill="#63b8ff" stroke="#63b8ff" points="185.79,-95.24 194.45,-89.14 183.87,-88.51 185.79,-95.24"/>
</a>
</g>
</g>
<!-- Node12 -->
<g id="Node000012" class="node">
<title>Node12</title>
<g id="a_Node000012"><a xlink:href="pixel__cache_8h.html#abf7cac45ca6049ace42595f65ddb3582" target="_top" xlink:title=" ">
<polygon fill="white" stroke="#666666" points="280,-56 181,-56 181,-37 280,-37 280,-56"/>
<text text-anchor="middle" x="230.5" y="-44" font-family="Helvetica,sans-Serif" font-size="10.00">SyncImagePixels</text>
</a>
</g>
</g>
<!-- Node1&#45;&gt;Node12 -->
<g id="edge11_Node000001_Node000012" class="edge">
<title>Node1&#45;&gt;Node12</title>
<g id="a_edge11_Node000001_Node000012"><a xlink:title=" ">
<path fill="none" stroke="#63b8ff" d="M67.06,-202.88C77.3,-176.57 109.45,-102.92 161,-65.5 164.22,-63.16 167.72,-61.11 171.37,-59.31"/>
<polygon fill="#63b8ff" stroke="#63b8ff" points="172.88,-62.48 180.71,-55.34 170.13,-56.03 172.88,-62.48"/>
</a>
</g>
</g>
<!-- Node13 -->
<g id="Node000013" class="node">
<title>Node13</title>
<g id="a_Node000013"><a xlink:href="constitute_8h.html#a7ef7c4631502300341b4676a1b763def" target="_top" xlink:title=" ">
<polygon fill="white" stroke="#666666" points="267.5,-19 193.5,-19 193.5,0 267.5,0 267.5,-19"/>
<text text-anchor="middle" x="230.5" y="-7" font-family="Helvetica,sans-Serif" font-size="10.00">WriteImage</text>
</a>
</g>
</g>
<!-- Node1&#45;&gt;Node13 -->
<g id="edge12_Node000001_Node000013" class="edge">
<title>Node1&#45;&gt;Node13</title>
<g id="a_edge12_Node000001_Node000013"><a xlink:title=" ">
<path fill="none" stroke="#63b8ff" d="M65.75,-202.75C73.34,-172.09 100.98,-76.74 161,-28.5 167.64,-23.17 175.67,-19.33 183.87,-16.56"/>
<polygon fill="#63b8ff" stroke="#63b8ff" points="184.86,-19.92 193.5,-13.79 182.92,-13.2 184.86,-19.92"/>
</a>
</g>
</g>
</g>
</svg>
