<?xml version="1.0" encoding="UTF-8" standalone="no"?>
<!DOCTYPE svg PUBLIC "-//W3C//DTD SVG 1.1//EN"
 "http://www.w3.org/Graphics/SVG/1.1/DTD/svg11.dtd">
<!-- Generated by graphviz version 2.43.0 (0)
 -->
<!-- Title: include/chronos.hpp Pages: 1 -->
<svg width="1013pt" height="137pt"
 viewBox="0.00 0.00 1012.50 137.00" xmlns="http://www.w3.org/2000/svg" xmlns:xlink="http://www.w3.org/1999/xlink">
<g id="graph0" class="graph" transform="scale(1 1) rotate(0) translate(4 133)">
<title>include/chronos.hpp</title>
<!-- Node1 -->
<g id="Node000001" class="node">
<title>Node1</title>
<g id="a_Node000001"><a xlink:title=" ">
<polygon fill="#999999" stroke="#666666" points="662.5,-129 548.5,-129 548.5,-110 662.5,-110 662.5,-129"/>
<text text-anchor="middle" x="605.5" y="-117" font-family="Helvetica,sans-Serif" font-size="10.00">include/chronos.hpp</text>
</a>
</g>
</g>
<!-- Node2 -->
<g id="Node000002" class="node">
<title>Node2</title>
<g id="a_Node000002"><a xlink:href="crc32c_8hpp.html" target="_top" xlink:title="CRC32&#45;Castagnoli header using Hardware&#45;accelerated &amp; Parallel Computation CRC32C intrinsics from ARMv...">
<polygon fill="white" stroke="#666666" points="214,-74 145,-74 145,-55 214,-55 214,-74"/>
<text text-anchor="middle" x="179.5" y="-62" font-family="Helvetica,sans-Serif" font-size="10.00">crc32c.hpp</text>
</a>
</g>
</g>
<!-- Node1&#45;&gt;Node2 -->
<g id="edge1_Node000001_Node000002" class="edge">
<title>Node1&#45;&gt;Node2</title>
<g id="a_edge1_Node000001_Node000002"><a xlink:title=" ">
<path fill="none" stroke="#63b8ff" d="M548.49,-111.41C462.67,-100.73 302.08,-80.75 224.17,-71.06"/>
<polygon fill="#63b8ff" stroke="#63b8ff" points="224.55,-67.58 214.19,-69.82 223.68,-74.52 224.55,-67.58"/>
</a>
</g>
</g>
<!-- Node7 -->
<g id="Node000007" class="node">
<title>Node7</title>
<g id="a_Node000007"><a xlink:href="reed__solomon_8hpp.html" target="_top" xlink:title=" ">
<polygon fill="white" stroke="#666666" points="399,-74 292,-74 292,-55 399,-55 399,-74"/>
<text text-anchor="middle" x="345.5" y="-62" font-family="Helvetica,sans-Serif" font-size="10.00">reed_solomon.hpp</text>
</a>
</g>
</g>
<!-- Node1&#45;&gt;Node7 -->
<g id="edge6_Node000001_Node000007" class="edge">
<title>Node1&#45;&gt;Node7</title>
<g id="a_edge6_Node000001_Node000007"><a xlink:title=" ">
<path fill="none" stroke="#63b8ff" d="M563.73,-109.98C518.56,-100.78 446.5,-86.09 397.65,-76.13"/>
<polygon fill="#63b8ff" stroke="#63b8ff" points="398.1,-72.65 387.6,-74.08 396.7,-79.51 398.1,-72.65"/>
</a>
</g>
</g>
<!-- Node12 -->
<g id="Node000012" class="node">
<title>Node12</title>
<g id="a_Node000012"><a xlink:href="canonical__huffman_8hpp.html" target="_top" xlink:title=" ">
<polygon fill="white" stroke="#666666" points="547.5,-74 417.5,-74 417.5,-55 547.5,-55 547.5,-74"/>
<text text-anchor="middle" x="482.5" y="-62" font-family="Helvetica,sans-Serif" font-size="10.00">canonical_huffman.hpp</text>
</a>
</g>
</g>
<!-- Node1&#45;&gt;Node12 -->
<g id="edge12_Node000001_Node000012" class="edge">
<title>Node1&#45;&gt;Node12</title>
<g id="a_edge12_Node000001_Node000012"><a xlink:title=" ">
<path fill="none" stroke="#63b8ff" d="M585.74,-109.98C565.77,-101.38 534.7,-87.99 511.85,-78.15"/>
<polygon fill="#63b8ff" stroke="#63b8ff" points="513.19,-74.91 502.62,-74.17 510.42,-81.34 513.19,-74.91"/>
</a>
</g>
</g>
<!-- Node13 -->
<g id="Node000013" class="node">
<title>Node13</title>
<g id="a_Node000013"><a xlink:title=" ">
<polygon fill="#e0e0e0" stroke="#999999" points="645.5,-74 565.5,-74 565.5,-55 645.5,-55 645.5,-74"/>
<text text-anchor="middle" x="605.5" y="-62" font-family="Helvetica,sans-Serif" font-size="10.00">magick/api.h</text>
</a>
</g>
</g>
<!-- Node1&#45;&gt;Node13 -->
<g id="edge13_Node000001_Node000013" class="edge">
<title>Node1&#45;&gt;Node13</title>
<g id="a_edge13_Node000001_Node000013"><a xlink:title=" ">
<path fill="none" stroke="#63b8ff" d="M605.5,-109.75C605.5,-102.8 605.5,-92.85 605.5,-84.13"/>
<polygon fill="#63b8ff" stroke="#63b8ff" points="609,-84.09 605.5,-74.09 602,-84.09 609,-84.09"/>
</a>
</g>
</g>
<!-- Node14 -->
<g id="Node000014" class="node">
<title>Node14</title>
<g id="a_Node000014"><a xlink:title=" ">
<polygon fill="#e0e0e0" stroke="#999999" points="751,-74 664,-74 664,-55 751,-55 751,-74"/>
<text text-anchor="middle" x="707.5" y="-62" font-family="Helvetica,sans-Serif" font-size="10.00">magick/error.h</text>
</a>
</g>
</g>
<!-- Node1&#45;&gt;Node14 -->
<g id="edge14_Node000001_Node000014" class="edge">
<title>Node1&#45;&gt;Node14</title>
<g id="a_edge14_Node000001_Node000014"><a xlink:title=" ">
<path fill="none" stroke="#63b8ff" d="M621.89,-109.98C638.07,-101.57 663.07,-88.59 681.88,-78.81"/>
<polygon fill="#63b8ff" stroke="#63b8ff" points="683.55,-81.89 690.81,-74.17 680.33,-75.68 683.55,-81.89"/>
</a>
</g>
</g>
<!-- Node15 -->
<g id="Node000015" class="node">
<title>Node15</title>
<g id="a_Node000015"><a xlink:title=" ">
<polygon fill="#e0e0e0" stroke="#999999" points="864,-74 769,-74 769,-55 864,-55 864,-74"/>
<text text-anchor="middle" x="816.5" y="-62" font-family="Helvetica,sans-Serif" font-size="10.00">magick/image.h</text>
</a>
</g>
</g>
<!-- Node1&#45;&gt;Node15 -->
<g id="edge15_Node000001_Node000015" class="edge">
<title>Node1&#45;&gt;Node15</title>
<g id="a_edge15_Node000001_Node000015"><a xlink:title=" ">
<path fill="none" stroke="#63b8ff" d="M639.4,-109.98C675.52,-100.91 732.82,-86.52 772.42,-76.57"/>
<polygon fill="#63b8ff" stroke="#63b8ff" points="773.49,-79.91 782.33,-74.08 771.78,-73.12 773.49,-79.91"/>
</a>
</g>
</g>
<!-- Node16 -->
<g id="Node000016" class="node">
<title>Node16</title>
<g id="a_Node000016"><a xlink:title=" ">
<polygon fill="#e0e0e0" stroke="#999999" points="1004.5,-74 882.5,-74 882.5,-55 1004.5,-55 1004.5,-74"/>
<text text-anchor="middle" x="943.5" y="-62" font-family="Helvetica,sans-Serif" font-size="10.00">wand/magick_wand.h</text>
</a>
</g>
</g>
<!-- Node1&#45;&gt;Node16 -->
<g id="edge16_Node000001_Node000016" class="edge">
<title>Node1&#45;&gt;Node16</title>
<g id="a_edge16_Node000001_Node000016"><a xlink:title=" ">
<path fill="none" stroke="#63b8ff" d="M659.81,-109.98C719.59,-100.61 815.63,-85.55 879.14,-75.59"/>
<polygon fill="#63b8ff" stroke="#63b8ff" points="879.71,-79.05 889.05,-74.04 878.63,-72.13 879.71,-79.05"/>
</a>
</g>
</g>
<!-- Node3 -->
<g id="Node000003" class="node">
<title>Node3</title>
<g id="a_Node000003"><a xlink:title=" ">
<polygon fill="#e0e0e0" stroke="#999999" points="71,-19 0,-19 0,0 71,0 71,-19"/>
<text text-anchor="middle" x="35.5" y="-7" font-family="Helvetica,sans-Serif" font-size="10.00">arm_acle.h</text>
</a>
</g>
</g>
<!-- Node2&#45;&gt;Node3 -->
<g id="edge2_Node000002_Node000003" class="edge">
<title>Node2&#45;&gt;Node3</title>
<g id="a_edge2_Node000002_Node000003"><a xlink:title=" ">
<path fill="none" stroke="#63b8ff" d="M156.36,-54.98C132.68,-46.27 95.63,-32.63 68.79,-22.75"/>
<polygon fill="#63b8ff" stroke="#63b8ff" points="69.65,-19.34 59.06,-19.17 67.23,-25.91 69.65,-19.34"/>
</a>
</g>
</g>
<!-- Node4 -->
<g id="Node000004" class="node">
<title>Node4</title>
<g id="a_Node000004"><a xlink:title=" ">
<polygon fill="#e0e0e0" stroke="#999999" points="142,-19 89,-19 89,0 142,0 142,-19"/>
<text text-anchor="middle" x="115.5" y="-7" font-family="Helvetica,sans-Serif" font-size="10.00">cstddef</text>
</a>
</g>
</g>
<!-- Node2&#45;&gt;Node4 -->
<g id="edge3_Node000002_Node000004" class="edge">
<title>Node2&#45;&gt;Node4</title>
<g id="a_edge3_Node000002_Node000004"><a xlink:title=" ">
<path fill="none" stroke="#63b8ff" d="M169.22,-54.98C159.66,-47.07 145.22,-35.11 133.72,-25.58"/>
<polygon fill="#63b8ff" stroke="#63b8ff" points="135.9,-22.85 125.97,-19.17 131.44,-28.24 135.9,-22.85"/>
</a>
</g>
</g>
<!-- Node5 -->
<g id="Node000005" class="node">
<title>Node5</title>
<g id="a_Node000005"><a xlink:title=" ">
<polygon fill="#e0e0e0" stroke="#999999" points="267.5,-19 217.5,-19 217.5,0 267.5,0 267.5,-19"/>
<text text-anchor="middle" x="242.5" y="-7" font-family="Helvetica,sans-Serif" font-size="10.00">cstdint</text>
</a>
</g>
</g>
<!-- Node2&#45;&gt;Node5 -->
<g id="edge4_Node000002_Node000005" class="edge">
<title>Node2&#45;&gt;Node5</title>
<g id="a_edge4_Node000002_Node000005"><a xlink:title=" ">
<path fill="none" stroke="#63b8ff" d="M189.62,-54.98C198.94,-47.15 212.97,-35.34 224.24,-25.86"/>
<polygon fill="#63b8ff" stroke="#63b8ff" points="226.79,-28.29 232.19,-19.17 222.29,-22.93 226.79,-28.29"/>
</a>
</g>
</g>
<!-- Node6 -->
<g id="Node000006" class="node">
<title>Node6</title>
<g id="a_Node000006"><a xlink:title=" ">
<polygon fill="#e0e0e0" stroke="#999999" points="199,-19 160,-19 160,0 199,0 199,-19"/>
<text text-anchor="middle" x="179.5" y="-7" font-family="Helvetica,sans-Serif" font-size="10.00">print</text>
</a>
</g>
</g>
<!-- Node2&#45;&gt;Node6 -->
<g id="edge5_Node000002_Node000006" class="edge">
<title>Node2&#45;&gt;Node6</title>
<g id="a_edge5_Node000002_Node000006"><a xlink:title=" ">
<path fill="none" stroke="#63b8ff" d="M179.5,-54.75C179.5,-47.8 179.5,-37.85 179.5,-29.13"/>
<polygon fill="#63b8ff" stroke="#63b8ff" points="183,-29.09 179.5,-19.09 176,-29.09 183,-29.09"/>
</a>
</g>
</g>
<!-- Node7&#45;&gt;Node5 -->
<g id="edge7_Node000007_Node000005" class="edge">
<title>Node7&#45;&gt;Node5</title>
<g id="a_edge7_Node000007_Node000005"><a xlink:title=" ">
<path fill="none" stroke="#63b8ff" d="M328.95,-54.98C312.61,-46.57 287.37,-33.59 268.37,-23.81"/>
<polygon fill="#63b8ff" stroke="#63b8ff" points="269.84,-20.63 259.35,-19.17 266.64,-26.86 269.84,-20.63"/>
</a>
</g>
</g>
<!-- Node8 -->
<g id="Node000008" class="node">
<title>Node8</title>
<g id="a_Node000008"><a xlink:title=" ">
<polygon fill="#e0e0e0" stroke="#999999" points="335.5,-19 285.5,-19 285.5,0 335.5,0 335.5,-19"/>
<text text-anchor="middle" x="310.5" y="-7" font-family="Helvetica,sans-Serif" font-size="10.00">stdio.h</text>
</a>
</g>
</g>
<!-- Node7&#45;&gt;Node8 -->
<g id="edge8_Node000007_Node000008" class="edge">
<title>Node7&#45;&gt;Node8</title>
<g id="a_edge8_Node000007_Node000008"><a xlink:title=" ">
<path fill="none" stroke="#63b8ff" d="M339.72,-54.75C334.88,-47.42 327.82,-36.73 321.86,-27.7"/>
<polygon fill="#63b8ff" stroke="#63b8ff" points="324.6,-25.5 316.17,-19.09 318.76,-29.36 324.6,-25.5"/>
</a>
</g>
</g>
<!-- Node9 -->
<g id="Node000009" class="node">
<title>Node9</title>
<g id="a_Node000009"><a xlink:title=" ">
<polygon fill="#e0e0e0" stroke="#999999" points="407,-19 354,-19 354,0 407,0 407,-19"/>
<text text-anchor="middle" x="380.5" y="-7" font-family="Helvetica,sans-Serif" font-size="10.00">stdlib.h</text>
</a>
</g>
</g>
<!-- Node7&#45;&gt;Node9 -->
<g id="edge9_Node000007_Node000009" class="edge">
<title>Node7&#45;&gt;Node9</title>
<g id="a_edge9_Node000007_Node000009"><a xlink:title=" ">
<path fill="none" stroke="#63b8ff" d="M351.28,-54.75C356.12,-47.42 363.18,-36.73 369.14,-27.7"/>
<polygon fill="#63b8ff" stroke="#63b8ff" points="372.24,-29.36 374.83,-19.09 366.4,-25.5 372.24,-29.36"/>
</a>
</g>
</g>
<!-- Node10 -->
<g id="Node000010" class="node">
<title>Node10</title>
<g id="a_Node000010"><a xlink:title=" ">
<polygon fill="#e0e0e0" stroke="#999999" points="478,-19 425,-19 425,0 478,0 478,-19"/>
<text text-anchor="middle" x="451.5" y="-7" font-family="Helvetica,sans-Serif" font-size="10.00">string.h</text>
</a>
</g>
</g>
<!-- Node7&#45;&gt;Node10 -->
<g id="edge10_Node000007_Node000010" class="edge">
<title>Node7&#45;&gt;Node10</title>
<g id="a_edge10_Node000007_Node000010"><a xlink:title=" ">
<path fill="none" stroke="#63b8ff" d="M362.53,-54.98C379.43,-46.54 405.56,-33.47 425.14,-23.68"/>
<polygon fill="#63b8ff" stroke="#63b8ff" points="426.78,-26.77 434.16,-19.17 423.65,-20.51 426.78,-26.77"/>
</a>
</g>
</g>
<!-- Node11 -->
<g id="Node000011" class="node">
<title>Node11</title>
<g id="a_Node000011"><a xlink:title=" ">
<polygon fill="#e0e0e0" stroke="#999999" points="555,-19 496,-19 496,0 555,0 555,-19"/>
<text text-anchor="middle" x="525.5" y="-7" font-family="Helvetica,sans-Serif" font-size="10.00">correct.h</text>
</a>
</g>
</g>
<!-- Node7&#45;&gt;Node11 -->
<g id="edge11_Node000007_Node000011" class="edge">
<title>Node7&#45;&gt;Node11</title>
<g id="a_edge11_Node000007_Node000011"><a xlink:title=" ">
<path fill="none" stroke="#63b8ff" d="M374.42,-54.98C404.77,-46.05 452.67,-31.94 486.38,-22.02"/>
<polygon fill="#63b8ff" stroke="#63b8ff" points="487.75,-25.26 496.35,-19.08 485.77,-18.55 487.75,-25.26"/>
</a>
</g>
</g>
</g>
</svg>
