<?xml version="1.0" encoding="UTF-8" standalone="no"?>
<!DOCTYPE svg PUBLIC "-//W3C//DTD SVG 1.1//EN"
 "http://www.w3.org/Graphics/SVG/1.1/DTD/svg11.dtd">
<!-- Generated by graphviz version 2.43.0 (0)
 -->
<!-- Title: chronos_rgb_to_grayscale Pages: 1 -->
<svg width="339pt" height="212pt"
 viewBox="0.00 0.00 339.00 212.00" xmlns="http://www.w3.org/2000/svg" xmlns:xlink="http://www.w3.org/1999/xlink">
<g id="graph0" class="graph" transform="scale(1 1) rotate(0) translate(4 208)">
<title>chronos_rgb_to_grayscale</title>
<!-- Node1 -->
<g id="Node000001" class="node">
<title>Node1</title>
<g id="a_Node000001"><a xlink:title="Convert an image&#39;s colorspace, without changing file format, from RGB to Grayscale.">
<polygon fill="#999999" stroke="#666666" points="143,-111 0,-111 0,-92 143,-92 143,-111"/>
<text text-anchor="middle" x="71.5" y="-99" font-family="Helvetica,sans-Serif" font-size="10.00">chronos_rgb_to_grayscale</text>
</a>
</g>
</g>
<!-- Node2 -->
<g id="Node000002" class="node">
<title>Node2</title>
<g id="a_Node000002"><a xlink:href="magick__wand_8h.html#a35c6764f9e4bdc5a9342e586f57053b7" target="_top" xlink:title=" ">
<polygon fill="white" stroke="#666666" points="313.5,-204 196.5,-204 196.5,-185 313.5,-185 313.5,-204"/>
<text text-anchor="middle" x="255" y="-192" font-family="Helvetica,sans-Serif" font-size="10.00">DestroyMagickWand</text>
</a>
</g>
</g>
<!-- Node1&#45;&gt;Node2 -->
<g id="edge1_Node000001_Node000002" class="edge">
<title>Node1&#45;&gt;Node2</title>
<g id="a_edge1_Node000001_Node000002"><a xlink:title=" ">
<path fill="none" stroke="#63b8ff" d="M83.14,-111.11C101.4,-127.09 140.47,-159.08 179,-176.5 183.42,-178.5 188.09,-180.29 192.85,-181.9"/>
<polygon fill="#63b8ff" stroke="#63b8ff" points="192.11,-185.33 202.7,-184.94 194.18,-178.64 192.11,-185.33"/>
</a>
</g>
</g>
<!-- Node3 -->
<g id="Node000003" class="node">
<title>Node3</title>
<g id="a_Node000003"><a xlink:href="magick_8h.html#a69be3af32d9cdda002f719777e8c03d8" target="_top" xlink:title=" ">
<polygon fill="white" stroke="#666666" points="302,-167 208,-167 208,-148 302,-148 302,-167"/>
<text text-anchor="middle" x="255" y="-155" font-family="Helvetica,sans-Serif" font-size="10.00">InitializeMagick</text>
</a>
</g>
</g>
<!-- Node1&#45;&gt;Node3 -->
<g id="edge2_Node000001_Node000003" class="edge">
<title>Node1&#45;&gt;Node3</title>
<g id="a_edge2_Node000001_Node000003"><a xlink:title=" ">
<path fill="none" stroke="#63b8ff" d="M96.79,-111.01C118.22,-119.19 150.4,-130.99 179,-139.5 185.97,-141.57 193.36,-143.58 200.68,-145.45"/>
<polygon fill="#63b8ff" stroke="#63b8ff" points="200.01,-148.89 210.56,-147.91 201.7,-142.1 200.01,-148.89"/>
</a>
</g>
</g>
<!-- Node4 -->
<g id="Node000004" class="node">
<title>Node4</title>
<g id="a_Node000004"><a xlink:href="magick__wand_8h.html#a65b06287433da00d271e6a5f209a5abb" target="_top" xlink:title=" ">
<polygon fill="white" stroke="#666666" points="308.5,-130 201.5,-130 201.5,-111 308.5,-111 308.5,-130"/>
<text text-anchor="middle" x="255" y="-118" font-family="Helvetica,sans-Serif" font-size="10.00">MagickReadImage</text>
</a>
</g>
</g>
<!-- Node1&#45;&gt;Node4 -->
<g id="edge3_Node000001_Node000004" class="edge">
<title>Node1&#45;&gt;Node4</title>
<g id="a_edge3_Node000001_Node000004"><a xlink:title=" ">
<path fill="none" stroke="#63b8ff" d="M143.19,-108.9C159.11,-110.57 175.9,-112.32 191.46,-113.95"/>
<polygon fill="#63b8ff" stroke="#63b8ff" points="191.18,-117.44 201.49,-115 191.91,-110.48 191.18,-117.44"/>
</a>
</g>
</g>
<!-- Node5 -->
<g id="Node000005" class="node">
<title>Node5</title>
<g id="a_Node000005"><a xlink:href="magick__wand_8h.html#a3136c1fa17ad0e8d6a13fd710fba74ec" target="_top" xlink:title=" ">
<polygon fill="white" stroke="#666666" points="331,-93 179,-93 179,-74 331,-74 331,-93"/>
<text text-anchor="middle" x="255" y="-81" font-family="Helvetica,sans-Serif" font-size="10.00">MagickSetImageColorspace</text>
</a>
</g>
</g>
<!-- Node1&#45;&gt;Node5 -->
<g id="edge4_Node000001_Node000005" class="edge">
<title>Node1&#45;&gt;Node5</title>
<g id="a_edge4_Node000001_Node000005"><a xlink:title=" ">
<path fill="none" stroke="#63b8ff" d="M143.19,-94.49C151.56,-93.66 160.17,-92.81 168.72,-91.96"/>
<polygon fill="#63b8ff" stroke="#63b8ff" points="169.1,-95.44 178.7,-90.97 168.4,-88.47 169.1,-95.44"/>
</a>
</g>
</g>
<!-- Node6 -->
<g id="Node000006" class="node">
<title>Node6</title>
<g id="a_Node000006"><a xlink:href="magick__wand_8h.html#a4c94f7a174532b8ad88c421ea844fac7" target="_top" xlink:title=" ">
<polygon fill="white" stroke="#666666" points="309.5,-56 200.5,-56 200.5,-37 309.5,-37 309.5,-56"/>
<text text-anchor="middle" x="255" y="-44" font-family="Helvetica,sans-Serif" font-size="10.00">MagickWriteImage</text>
</a>
</g>
</g>
<!-- Node1&#45;&gt;Node6 -->
<g id="edge5_Node000001_Node000006" class="edge">
<title>Node1&#45;&gt;Node6</title>
<g id="a_edge5_Node000001_Node000006"><a xlink:title=" ">
<path fill="none" stroke="#63b8ff" d="M99.02,-91.9C120.45,-84.29 151.48,-73.62 179,-65.5 187.06,-63.12 195.65,-60.77 204.04,-58.58"/>
<polygon fill="#63b8ff" stroke="#63b8ff" points="204.94,-61.96 213.75,-56.08 203.2,-55.18 204.94,-61.96"/>
</a>
</g>
</g>
<!-- Node7 -->
<g id="Node000007" class="node">
<title>Node7</title>
<g id="a_Node000007"><a xlink:href="magick__wand_8h.html#a7556788e3dc39f32499a6565aa8eb843" target="_top" xlink:title=" ">
<polygon fill="white" stroke="#666666" points="305.5,-19 204.5,-19 204.5,0 305.5,0 305.5,-19"/>
<text text-anchor="middle" x="255" y="-7" font-family="Helvetica,sans-Serif" font-size="10.00">NewMagickWand</text>
</a>
</g>
</g>
<!-- Node1&#45;&gt;Node7 -->
<g id="edge6_Node000001_Node000007" class="edge">
<title>Node1&#45;&gt;Node7</title>
<g id="a_edge6_Node000001_Node000007"><a xlink:title=" ">
<path fill="none" stroke="#63b8ff" d="M83.51,-91.96C102,-76.43 141.01,-45.67 179,-28.5 184.33,-26.09 190.02,-23.95 195.79,-22.06"/>
<polygon fill="#63b8ff" stroke="#63b8ff" points="196.98,-25.36 205.53,-19.1 194.94,-18.66 196.98,-25.36"/>
</a>
</g>
</g>
</g>
</svg>
