<?xml version="1.0" encoding="UTF-8" standalone="no"?>
<!DOCTYPE svg PUBLIC "-//W3C//DTD SVG 1.1//EN"
 "http://www.w3.org/Graphics/SVG/1.1/DTD/svg11.dtd">
<!-- Generated by graphviz version 2.43.0 (0)
 -->
<!-- Title: chronos_process_image Pages: 1 -->
<svg width="300pt" height="360pt"
 viewBox="0.00 0.00 300.00 360.00" xmlns="http://www.w3.org/2000/svg" xmlns:xlink="http://www.w3.org/1999/xlink">
<g id="graph0" class="graph" transform="scale(1 1) rotate(0) translate(4 356)">
<title>chronos_process_image</title>
<!-- Node1 -->
<g id="Node000001" class="node">
<title>Node1</title>
<g id="a_Node000001"><a xlink:title="Process the Image in GraphicsMagick context.">
<polygon fill="#999999" stroke="#666666" points="134,-185 0,-185 0,-166 134,-166 134,-185"/>
<text text-anchor="middle" x="67" y="-173" font-family="Helvetica,sans-Serif" font-size="10.00">chronos_process_image</text>
</a>
</g>
</g>
<!-- Node2 -->
<g id="Node000002" class="node">
<title>Node2</title>
<g id="a_Node000002"><a xlink:href="error_8h.html#a9268b391d115605279c66727f70016c0" target="_top" xlink:title=" ">
<polygon fill="white" stroke="#666666" points="277,-352 185,-352 185,-333 277,-333 277,-352"/>
<text text-anchor="middle" x="231" y="-340" font-family="Helvetica,sans-Serif" font-size="10.00">CatchException</text>
</a>
</g>
</g>
<!-- Node1&#45;&gt;Node2 -->
<g id="edge1_Node000001_Node000002" class="edge">
<title>Node1&#45;&gt;Node2</title>
<g id="a_edge1_Node000001_Node000002"><a xlink:title=" ">
<path fill="none" stroke="#63b8ff" d="M71.86,-185.19C82.92,-211.71 117.35,-286.03 170,-324.5 171.89,-325.88 173.89,-327.16 175.96,-328.34"/>
<polygon fill="#63b8ff" stroke="#63b8ff" points="174.9,-331.71 185.43,-332.91 177.95,-325.41 174.9,-331.71"/>
</a>
</g>
</g>
<!-- Node3 -->
<g id="Node000003" class="node">
<title>Node3</title>
<g id="a_Node000003"><a xlink:href="image_8h.html#ad782fe82dd5e3177a30f47262a612f38" target="_top" xlink:title=" ">
<polygon fill="white" stroke="#666666" points="278,-315 184,-315 184,-296 278,-296 278,-315"/>
<text text-anchor="middle" x="231" y="-303" font-family="Helvetica,sans-Serif" font-size="10.00">CloneImageInfo</text>
</a>
</g>
</g>
<!-- Node1&#45;&gt;Node3 -->
<g id="edge2_Node000001_Node000003" class="edge">
<title>Node1&#45;&gt;Node3</title>
<g id="a_edge2_Node000001_Node000003"><a xlink:title=" ">
<path fill="none" stroke="#63b8ff" d="M74.12,-185.21C88.27,-206.88 125.48,-259.48 170,-287.5 172.63,-289.16 175.42,-290.67 178.3,-292.04"/>
<polygon fill="#63b8ff" stroke="#63b8ff" points="177.16,-295.36 187.74,-296 179.87,-288.9 177.16,-295.36"/>
</a>
</g>
</g>
<!-- Node4 -->
<g id="Node000004" class="node">
<title>Node4</title>
<g id="a_Node000004"><a xlink:href="error_8h.html#ad4e89136e46c27dde9a3c27818a7f9d3" target="_top" xlink:title=" ">
<polygon fill="white" stroke="#666666" points="292,-278 170,-278 170,-259 292,-259 292,-278"/>
<text text-anchor="middle" x="231" y="-266" font-family="Helvetica,sans-Serif" font-size="10.00">DestroyExceptionInfo</text>
</a>
</g>
</g>
<!-- Node1&#45;&gt;Node4 -->
<g id="edge3_Node000001_Node000004" class="edge">
<title>Node1&#45;&gt;Node4</title>
<g id="a_edge3_Node000001_Node000004"><a xlink:title=" ">
<path fill="none" stroke="#63b8ff" d="M78.5,-185.16C96.15,-200.93 133.42,-232.25 170,-250.5 173.72,-252.36 177.67,-254.06 181.7,-255.62"/>
<polygon fill="#63b8ff" stroke="#63b8ff" points="180.56,-258.93 191.16,-258.98 182.91,-252.33 180.56,-258.93"/>
</a>
</g>
</g>
<!-- Node5 -->
<g id="Node000005" class="node">
<title>Node5</title>
<g id="a_Node000005"><a xlink:href="image_8h.html#a7869e9fa7695dc4db968cbb3dd9a617d" target="_top" xlink:title=" ">
<polygon fill="white" stroke="#666666" points="274,-241 188,-241 188,-222 274,-222 274,-241"/>
<text text-anchor="middle" x="231" y="-229" font-family="Helvetica,sans-Serif" font-size="10.00">DestroyImage</text>
</a>
</g>
</g>
<!-- Node1&#45;&gt;Node5 -->
<g id="edge4_Node000001_Node000005" class="edge">
<title>Node1&#45;&gt;Node5</title>
<g id="a_edge4_Node000001_Node000005"><a xlink:title=" ">
<path fill="none" stroke="#63b8ff" d="M92.16,-185.01C112.73,-192.98 143.13,-204.47 170,-213.5 175.55,-215.36 181.41,-217.24 187.22,-219.04"/>
<polygon fill="#63b8ff" stroke="#63b8ff" points="186.28,-222.41 196.87,-221.98 188.32,-215.72 186.28,-222.41"/>
</a>
</g>
</g>
<!-- Node6 -->
<g id="Node000006" class="node">
<title>Node6</title>
<g id="a_Node000006"><a xlink:href="image_8h.html#a2cf7caf57cb8706106008def88d65ba9" target="_top" xlink:title=" ">
<polygon fill="white" stroke="#666666" points="283,-204 179,-204 179,-185 283,-185 283,-204"/>
<text text-anchor="middle" x="231" y="-192" font-family="Helvetica,sans-Serif" font-size="10.00">DestroyImageInfo</text>
</a>
</g>
</g>
<!-- Node1&#45;&gt;Node6 -->
<g id="edge5_Node000001_Node000006" class="edge">
<title>Node1&#45;&gt;Node6</title>
<g id="a_edge5_Node000001_Node000006"><a xlink:title=" ">
<path fill="none" stroke="#63b8ff" d="M134.36,-183.28C145.73,-184.62 157.5,-186 168.74,-187.31"/>
<polygon fill="#63b8ff" stroke="#63b8ff" points="168.53,-190.81 178.87,-188.5 169.35,-183.86 168.53,-190.81"/>
</a>
</g>
</g>
<!-- Node7 -->
<g id="Node000007" class="node">
<title>Node7</title>
<g id="a_Node000007"><a xlink:href="magick_8h.html#a4765a03da25344197322df2ed33074b2" target="_top" xlink:title=" ">
<polygon fill="white" stroke="#666666" points="276,-167 186,-167 186,-148 276,-148 276,-167"/>
<text text-anchor="middle" x="231" y="-155" font-family="Helvetica,sans-Serif" font-size="10.00">DestroyMagick</text>
</a>
</g>
</g>
<!-- Node1&#45;&gt;Node7 -->
<g id="edge6_Node000001_Node000007" class="edge">
<title>Node1&#45;&gt;Node7</title>
<g id="a_edge6_Node000001_Node000007"><a xlink:title=" ">
<path fill="none" stroke="#63b8ff" d="M134.36,-168.13C148.01,-166.61 162.24,-165.03 175.41,-163.57"/>
<polygon fill="#63b8ff" stroke="#63b8ff" points="176.18,-167 185.73,-162.42 175.4,-160.04 176.18,-167"/>
</a>
</g>
</g>
<!-- Node8 -->
<g id="Node000008" class="node">
<title>Node8</title>
<g id="a_Node000008"><a xlink:href="error_8h.html#a7d788a94491285066ede5492babe205d" target="_top" xlink:title=" ">
<polygon fill="white" stroke="#666666" points="281.5,-130 180.5,-130 180.5,-111 281.5,-111 281.5,-130"/>
<text text-anchor="middle" x="231" y="-118" font-family="Helvetica,sans-Serif" font-size="10.00">GetExceptionInfo</text>
</a>
</g>
</g>
<!-- Node1&#45;&gt;Node8 -->
<g id="edge7_Node000001_Node000008" class="edge">
<title>Node1&#45;&gt;Node8</title>
<g id="a_edge7_Node000001_Node000008"><a xlink:title=" ">
<path fill="none" stroke="#63b8ff" d="M94.34,-165.94C114.88,-158.54 144.18,-148.14 170,-139.5 176.19,-137.43 182.75,-135.29 189.18,-133.23"/>
<polygon fill="#63b8ff" stroke="#63b8ff" points="190.64,-136.44 199.11,-130.07 188.51,-129.77 190.64,-136.44"/>
</a>
</g>
</g>
<!-- Node9 -->
<g id="Node000009" class="node">
<title>Node9</title>
<g id="a_Node000009"><a xlink:href="magick_8h.html#a69be3af32d9cdda002f719777e8c03d8" target="_top" xlink:title=" ">
<polygon fill="white" stroke="#666666" points="278,-93 184,-93 184,-74 278,-74 278,-93"/>
<text text-anchor="middle" x="231" y="-81" font-family="Helvetica,sans-Serif" font-size="10.00">InitializeMagick</text>
</a>
</g>
</g>
<!-- Node1&#45;&gt;Node9 -->
<g id="edge8_Node000001_Node000009" class="edge">
<title>Node1&#45;&gt;Node9</title>
<g id="a_edge8_Node000001_Node000009"><a xlink:title=" ">
<path fill="none" stroke="#63b8ff" d="M78.87,-165.93C96.75,-150.62 133.97,-120.53 170,-102.5 174.35,-100.32 179,-98.33 183.72,-96.52"/>
<polygon fill="#63b8ff" stroke="#63b8ff" points="185.18,-99.72 193.42,-93.06 182.83,-93.12 185.18,-99.72"/>
</a>
</g>
</g>
<!-- Node10 -->
<g id="Node000010" class="node">
<title>Node10</title>
<g id="a_Node000010"><a xlink:href="constitute_8h.html#a8205b8aa918e1f51100df7d1e1d808b4" target="_top" xlink:title=" ">
<polygon fill="white" stroke="#666666" points="267,-56 195,-56 195,-37 267,-37 267,-56"/>
<text text-anchor="middle" x="231" y="-44" font-family="Helvetica,sans-Serif" font-size="10.00">ReadImage</text>
</a>
</g>
</g>
<!-- Node1&#45;&gt;Node10 -->
<g id="edge9_Node000001_Node000010" class="edge">
<title>Node1&#45;&gt;Node10</title>
<g id="a_edge9_Node000001_Node000010"><a xlink:title=" ">
<path fill="none" stroke="#63b8ff" d="M74.41,-165.69C88.87,-144.32 126.22,-93.24 170,-65.5 174.67,-62.54 179.84,-60.01 185.13,-57.85"/>
<polygon fill="#63b8ff" stroke="#63b8ff" points="186.51,-61.07 194.7,-54.36 184.11,-54.5 186.51,-61.07"/>
</a>
</g>
</g>
<!-- Node11 -->
<g id="Node000011" class="node">
<title>Node11</title>
<g id="a_Node000011"><a xlink:href="constitute_8h.html#a7ef7c4631502300341b4676a1b763def" target="_top" xlink:title=" ">
<polygon fill="white" stroke="#666666" points="268,-19 194,-19 194,0 268,0 268,-19"/>
<text text-anchor="middle" x="231" y="-7" font-family="Helvetica,sans-Serif" font-size="10.00">WriteImage</text>
</a>
</g>
</g>
<!-- Node1&#45;&gt;Node11 -->
<g id="edge10_Node000001_Node000011" class="edge">
<title>Node1&#45;&gt;Node11</title>
<g id="a_edge10_Node000001_Node000011"><a xlink:title=" ">
<path fill="none" stroke="#63b8ff" d="M71.93,-165.98C83.16,-139.92 118,-66.85 170,-28.5 174.4,-25.26 179.37,-22.56 184.51,-20.31"/>
<polygon fill="#63b8ff" stroke="#63b8ff" points="185.79,-23.57 193.89,-16.74 183.3,-17.03 185.79,-23.57"/>
</a>
</g>
</g>
</g>
</svg>
