<?xml version="1.0" encoding="UTF-8" standalone="no"?>
<!DOCTYPE svg PUBLIC "-//W3C//DTD SVG 1.1//EN"
 "http://www.w3.org/Graphics/SVG/1.1/DTD/svg11.dtd">
<!-- Generated by graphviz version 2.43.0 (0)
 -->
<!-- Title: chronos_convert_to_ppm Pages: 1 -->
<svg width="475pt" height="360pt"
 viewBox="0.00 0.00 475.00 360.00" xmlns="http://www.w3.org/2000/svg" xmlns:xlink="http://www.w3.org/1999/xlink">
<g id="graph0" class="graph" transform="scale(1 1) rotate(0) translate(4 356)">
<title>chronos_convert_to_ppm</title>
<!-- Node1 -->
<g id="Node000001" class="node">
<title>Node1</title>
<g id="a_Node000001"><a xlink:title="Convert any GraphicsMagick supported image format to PPM image format.">
<polygon fill="#999999" stroke="#666666" points="139,-206 0,-206 0,-187 139,-187 139,-206"/>
<text text-anchor="middle" x="69.5" y="-194" font-family="Helvetica,sans-Serif" font-size="10.00">chronos_convert_to_ppm</text>
</a>
</g>
</g>
<!-- Node2 -->
<g id="Node000002" class="node">
<title>Node2</title>
<g id="a_Node000002"><a xlink:href="chronos_8cpp.html#a0fe71f212fc375c7e18f637bedda70c5" target="_top" xlink:title="The operation to convert to PPM.">
<polygon fill="white" stroke="#666666" points="298,-233.5 186,-233.5 186,-203.5 298,-203.5 298,-233.5"/>
<text text-anchor="start" x="194" y="-221.5" font-family="Helvetica,sans-Serif" font-size="10.00">chronos_convert_to</text>
<text text-anchor="middle" x="242" y="-210.5" font-family="Helvetica,sans-Serif" font-size="10.00">_ppm_op</text>
</a>
</g>
</g>
<!-- Node1&#45;&gt;Node2 -->
<g id="edge1_Node000001_Node000002" class="edge">
<title>Node1&#45;&gt;Node2</title>
<g id="a_edge1_Node000001_Node000002"><a xlink:title=" ">
<path fill="none" stroke="#63b8ff" d="M139.36,-205.38C151.3,-206.93 163.68,-208.52 175.52,-210.05"/>
<polygon fill="#63b8ff" stroke="#63b8ff" points="175.4,-213.56 185.77,-211.37 176.3,-206.62 175.4,-213.56"/>
</a>
</g>
</g>
<!-- Node3 -->
<g id="Node000003" class="node">
<title>Node3</title>
<g id="a_Node000003"><a xlink:href="chronos_8cpp.html#a8c442ee2efdfad19f622ad860721ab3f" target="_top" xlink:title="Process the Image in GraphicsMagick context.">
<polygon fill="white" stroke="#666666" points="309,-185 175,-185 175,-166 309,-166 309,-185"/>
<text text-anchor="middle" x="242" y="-173" font-family="Helvetica,sans-Serif" font-size="10.00">chronos_process_image</text>
</a>
</g>
</g>
<!-- Node1&#45;&gt;Node3 -->
<g id="edge2_Node000001_Node000003" class="edge">
<title>Node1&#45;&gt;Node3</title>
<g id="a_edge2_Node000001_Node000003"><a xlink:title=" ">
<path fill="none" stroke="#63b8ff" d="M139.36,-188.02C147.79,-186.98 156.45,-185.91 164.99,-184.86"/>
<polygon fill="#63b8ff" stroke="#63b8ff" points="165.43,-188.33 174.93,-183.64 164.57,-181.39 165.43,-188.33"/>
</a>
</g>
</g>
<!-- Node4 -->
<g id="Node000004" class="node">
<title>Node4</title>
<g id="a_Node000004"><a xlink:href="error_8h.html#a9268b391d115605279c66727f70016c0" target="_top" xlink:title=" ">
<polygon fill="white" stroke="#666666" points="452,-352 360,-352 360,-333 452,-333 452,-352"/>
<text text-anchor="middle" x="406" y="-340" font-family="Helvetica,sans-Serif" font-size="10.00">CatchException</text>
</a>
</g>
</g>
<!-- Node3&#45;&gt;Node4 -->
<g id="edge3_Node000003_Node000004" class="edge">
<title>Node3&#45;&gt;Node4</title>
<g id="a_edge3_Node000003_Node000004"><a xlink:title=" ">
<path fill="none" stroke="#63b8ff" d="M295.58,-185.01C300.54,-187.49 305.14,-190.6 309,-194.5 351.18,-237.11 303.06,-281.66 345,-324.5 346.83,-326.37 348.85,-328.05 351,-329.55"/>
<polygon fill="#63b8ff" stroke="#63b8ff" points="349.43,-332.68 359.86,-334.54 352.86,-326.58 349.43,-332.68"/>
</a>
</g>
</g>
<!-- Node5 -->
<g id="Node000005" class="node">
<title>Node5</title>
<g id="a_Node000005"><a xlink:href="image_8h.html#ad782fe82dd5e3177a30f47262a612f38" target="_top" xlink:title=" ">
<polygon fill="white" stroke="#666666" points="453,-315 359,-315 359,-296 453,-296 453,-315"/>
<text text-anchor="middle" x="406" y="-303" font-family="Helvetica,sans-Serif" font-size="10.00">CloneImageInfo</text>
</a>
</g>
</g>
<!-- Node3&#45;&gt;Node5 -->
<g id="edge4_Node000003_Node000005" class="edge">
<title>Node3&#45;&gt;Node5</title>
<g id="a_edge4_Node000003_Node000005"><a xlink:title=" ">
<path fill="none" stroke="#63b8ff" d="M294.55,-185.1C299.82,-187.55 304.78,-190.64 309,-194.5 341.7,-224.41 312.46,-257.4 345,-287.5 346.5,-288.88 348.1,-290.16 349.78,-291.34"/>
<polygon fill="#63b8ff" stroke="#63b8ff" points="348.31,-294.54 358.73,-296.46 351.78,-288.46 348.31,-294.54"/>
</a>
</g>
</g>
<!-- Node6 -->
<g id="Node000006" class="node">
<title>Node6</title>
<g id="a_Node000006"><a xlink:href="error_8h.html#ad4e89136e46c27dde9a3c27818a7f9d3" target="_top" xlink:title=" ">
<polygon fill="white" stroke="#666666" points="467,-278 345,-278 345,-259 467,-259 467,-278"/>
<text text-anchor="middle" x="406" y="-266" font-family="Helvetica,sans-Serif" font-size="10.00">DestroyExceptionInfo</text>
</a>
</g>
</g>
<!-- Node3&#45;&gt;Node6 -->
<g id="edge5_Node000003_Node000006" class="edge">
<title>Node3&#45;&gt;Node6</title>
<g id="a_edge5_Node000003_Node000006"><a xlink:title=" ">
<path fill="none" stroke="#63b8ff" d="M291.44,-185C297.69,-187.47 303.74,-190.58 309,-194.5 332.73,-212.17 321.36,-232.7 345,-250.5 346.84,-251.88 348.78,-253.16 350.79,-254.34"/>
<polygon fill="#63b8ff" stroke="#63b8ff" points="349.51,-257.61 360.03,-258.91 352.62,-251.33 349.51,-257.61"/>
</a>
</g>
</g>
<!-- Node7 -->
<g id="Node000007" class="node">
<title>Node7</title>
<g id="a_Node000007"><a xlink:href="image_8h.html#a7869e9fa7695dc4db968cbb3dd9a617d" target="_top" xlink:title=" ">
<polygon fill="white" stroke="#666666" points="449,-241 363,-241 363,-222 449,-222 449,-241"/>
<text text-anchor="middle" x="406" y="-229" font-family="Helvetica,sans-Serif" font-size="10.00">DestroyImage</text>
</a>
</g>
</g>
<!-- Node3&#45;&gt;Node7 -->
<g id="edge6_Node000003_Node000007" class="edge">
<title>Node3&#45;&gt;Node7</title>
<g id="a_edge6_Node000003_Node000007"><a xlink:title=" ">
<path fill="none" stroke="#63b8ff" d="M281.15,-185.04C290.39,-187.74 300.15,-190.94 309,-194.5 325.78,-201.26 328.26,-206.65 345,-213.5 349.54,-215.36 354.35,-217.12 359.18,-218.77"/>
<polygon fill="#63b8ff" stroke="#63b8ff" points="358.48,-222.22 369.07,-221.96 360.63,-215.56 358.48,-222.22"/>
</a>
</g>
</g>
<!-- Node8 -->
<g id="Node000008" class="node">
<title>Node8</title>
<g id="a_Node000008"><a xlink:href="image_8h.html#a2cf7caf57cb8706106008def88d65ba9" target="_top" xlink:title=" ">
<polygon fill="white" stroke="#666666" points="458,-204 354,-204 354,-185 458,-185 458,-204"/>
<text text-anchor="middle" x="406" y="-192" font-family="Helvetica,sans-Serif" font-size="10.00">DestroyImageInfo</text>
</a>
</g>
</g>
<!-- Node3&#45;&gt;Node8 -->
<g id="edge7_Node000003_Node000008" class="edge">
<title>Node3&#45;&gt;Node8</title>
<g id="a_edge7_Node000003_Node000008"><a xlink:title=" ">
<path fill="none" stroke="#63b8ff" d="M309.36,-183.28C320.73,-184.62 332.5,-186 343.74,-187.31"/>
<polygon fill="#63b8ff" stroke="#63b8ff" points="343.53,-190.81 353.87,-188.5 344.35,-183.86 343.53,-190.81"/>
</a>
</g>
</g>
<!-- Node9 -->
<g id="Node000009" class="node">
<title>Node9</title>
<g id="a_Node000009"><a xlink:href="magick_8h.html#a4765a03da25344197322df2ed33074b2" target="_top" xlink:title=" ">
<polygon fill="white" stroke="#666666" points="451,-167 361,-167 361,-148 451,-148 451,-167"/>
<text text-anchor="middle" x="406" y="-155" font-family="Helvetica,sans-Serif" font-size="10.00">DestroyMagick</text>
</a>
</g>
</g>
<!-- Node3&#45;&gt;Node9 -->
<g id="edge8_Node000003_Node000009" class="edge">
<title>Node3&#45;&gt;Node9</title>
<g id="a_edge8_Node000003_Node000009"><a xlink:title=" ">
<path fill="none" stroke="#63b8ff" d="M309.36,-168.13C323.01,-166.61 337.24,-165.03 350.41,-163.57"/>
<polygon fill="#63b8ff" stroke="#63b8ff" points="351.18,-167 360.73,-162.42 350.4,-160.04 351.18,-167"/>
</a>
</g>
</g>
<!-- Node10 -->
<g id="Node000010" class="node">
<title>Node10</title>
<g id="a_Node000010"><a xlink:href="error_8h.html#a7d788a94491285066ede5492babe205d" target="_top" xlink:title=" ">
<polygon fill="white" stroke="#666666" points="456.5,-130 355.5,-130 355.5,-111 456.5,-111 456.5,-130"/>
<text text-anchor="middle" x="406" y="-118" font-family="Helvetica,sans-Serif" font-size="10.00">GetExceptionInfo</text>
</a>
</g>
</g>
<!-- Node3&#45;&gt;Node10 -->
<g id="edge9_Node000003_Node000010" class="edge">
<title>Node3&#45;&gt;Node10</title>
<g id="a_edge9_Node000003_Node000010"><a xlink:title=" ">
<path fill="none" stroke="#63b8ff" d="M269.34,-165.94C289.88,-158.54 319.18,-148.14 345,-139.5 351.19,-137.43 357.75,-135.29 364.18,-133.23"/>
<polygon fill="#63b8ff" stroke="#63b8ff" points="365.64,-136.44 374.11,-130.07 363.51,-129.77 365.64,-136.44"/>
</a>
</g>
</g>
<!-- Node11 -->
<g id="Node000011" class="node">
<title>Node11</title>
<g id="a_Node000011"><a xlink:href="magick_8h.html#a69be3af32d9cdda002f719777e8c03d8" target="_top" xlink:title=" ">
<polygon fill="white" stroke="#666666" points="453,-93 359,-93 359,-74 453,-74 453,-93"/>
<text text-anchor="middle" x="406" y="-81" font-family="Helvetica,sans-Serif" font-size="10.00">InitializeMagick</text>
</a>
</g>
</g>
<!-- Node3&#45;&gt;Node11 -->
<g id="edge10_Node000003_Node000011" class="edge">
<title>Node3&#45;&gt;Node11</title>
<g id="a_edge10_Node000003_Node000011"><a xlink:title=" ">
<path fill="none" stroke="#63b8ff" d="M253.87,-165.93C271.75,-150.62 308.97,-120.53 345,-102.5 349.35,-100.32 354,-98.33 358.72,-96.52"/>
<polygon fill="#63b8ff" stroke="#63b8ff" points="360.18,-99.72 368.42,-93.06 357.83,-93.12 360.18,-99.72"/>
</a>
</g>
</g>
<!-- Node12 -->
<g id="Node000012" class="node">
<title>Node12</title>
<g id="a_Node000012"><a xlink:href="constitute_8h.html#a8205b8aa918e1f51100df7d1e1d808b4" target="_top" xlink:title=" ">
<polygon fill="white" stroke="#666666" points="442,-56 370,-56 370,-37 442,-37 442,-56"/>
<text text-anchor="middle" x="406" y="-44" font-family="Helvetica,sans-Serif" font-size="10.00">ReadImage</text>
</a>
</g>
</g>
<!-- Node3&#45;&gt;Node12 -->
<g id="edge11_Node000003_Node000012" class="edge">
<title>Node3&#45;&gt;Node12</title>
<g id="a_edge11_Node000003_Node000012"><a xlink:title=" ">
<path fill="none" stroke="#63b8ff" d="M249.41,-165.69C263.87,-144.32 301.22,-93.24 345,-65.5 349.67,-62.54 354.84,-60.01 360.13,-57.85"/>
<polygon fill="#63b8ff" stroke="#63b8ff" points="361.51,-61.07 369.7,-54.36 359.11,-54.5 361.51,-61.07"/>
</a>
</g>
</g>
<!-- Node13 -->
<g id="Node000013" class="node">
<title>Node13</title>
<g id="a_Node000013"><a xlink:href="constitute_8h.html#a7ef7c4631502300341b4676a1b763def" target="_top" xlink:title=" ">
<polygon fill="white" stroke="#666666" points="443,-19 369,-19 369,0 443,0 443,-19"/>
<text text-anchor="middle" x="406" y="-7" font-family="Helvetica,sans-Serif" font-size="10.00">WriteImage</text>
</a>
</g>
</g>
<!-- Node3&#45;&gt;Node13 -->
<g id="edge12_Node000003_Node000013" class="edge">
<title>Node3&#45;&gt;Node13</title>
<g id="a_edge12_Node000003_Node000013"><a xlink:title=" ">
<path fill="none" stroke="#63b8ff" d="M246.93,-165.98C258.16,-139.92 293,-66.85 345,-28.5 349.4,-25.26 354.37,-22.56 359.51,-20.31"/>
<polygon fill="#63b8ff" stroke="#63b8ff" points="360.79,-23.57 368.89,-16.74 358.3,-17.03 360.79,-23.57"/>
</a>
</g>
</g>
</g>
</svg>
