<?xml version="1.0" encoding="UTF-8" standalone="no"?>
<!DOCTYPE svg PUBLIC "-//W3C//DTD SVG 1.1//EN"
 "http://www.w3.org/Graphics/SVG/1.1/DTD/svg11.dtd">
<!-- Generated by graphviz version 2.43.0 (0)
 -->
<!-- Title: include/chronos.hpp Pages: 1 -->
<svg width="1013pt" height="192pt"
 viewBox="0.00 0.00 1012.50 192.00" xmlns="http://www.w3.org/2000/svg" xmlns:xlink="http://www.w3.org/1999/xlink">
<g id="graph0" class="graph" transform="scale(1 1) rotate(0) translate(4 188)">
<title>include/chronos.hpp</title>
<!-- Node1 -->
<g id="Node000001" class="node">
<title>Node1</title>
<g id="a_Node000001"><a xlink:title=" ">
<polygon fill="#999999" stroke="#666666" points="662.5,-184 548.5,-184 548.5,-165 662.5,-165 662.5,-184"/>
<text text-anchor="middle" x="605.5" y="-172" font-family="Helvetica,sans-Serif" font-size="10.00">include/chronos.hpp</text>
</a>
</g>
</g>
<!-- Node2 -->
<g id="Node000002" class="node">
<title>Node2</title>
<g id="a_Node000002"><a xlink:href="crc32c_8hpp.html" target="_top" xlink:title="CRC32&#45;Castagnoli header using Hardware&#45;accelerated &amp; Parallel Computation CRC32C intrinsics from ARMv...">
<polygon fill="white" stroke="#666666" points="214,-129 145,-129 145,-110 214,-110 214,-129"/>
<text text-anchor="middle" x="179.5" y="-117" font-family="Helvetica,sans-Serif" font-size="10.00">crc32c.hpp</text>
</a>
</g>
</g>
<!-- Node1&#45;&gt;Node2 -->
<g id="edge1_Node000001_Node000002" class="edge">
<title>Node1&#45;&gt;Node2</title>
<g id="a_edge1_Node000001_Node000002"><a xlink:title=" ">
<path fill="none" stroke="#63b8ff" d="M548.49,-166.41C462.67,-155.73 302.08,-135.75 224.17,-126.06"/>
<polygon fill="#63b8ff" stroke="#63b8ff" points="224.55,-122.58 214.19,-124.82 223.68,-129.52 224.55,-122.58"/>
</a>
</g>
</g>
<!-- Node7 -->
<g id="Node000007" class="node">
<title>Node7</title>
<g id="a_Node000007"><a xlink:href="reed__solomon_8hpp.html" target="_top" xlink:title=" ">
<polygon fill="white" stroke="#666666" points="399,-129 292,-129 292,-110 399,-110 399,-129"/>
<text text-anchor="middle" x="345.5" y="-117" font-family="Helvetica,sans-Serif" font-size="10.00">reed_solomon.hpp</text>
</a>
</g>
</g>
<!-- Node1&#45;&gt;Node7 -->
<g id="edge6_Node000001_Node000007" class="edge">
<title>Node1&#45;&gt;Node7</title>
<g id="a_edge6_Node000001_Node000007"><a xlink:title=" ">
<path fill="none" stroke="#63b8ff" d="M563.73,-164.98C518.56,-155.78 446.5,-141.09 397.65,-131.13"/>
<polygon fill="#63b8ff" stroke="#63b8ff" points="398.1,-127.65 387.6,-129.08 396.7,-134.51 398.1,-127.65"/>
</a>
</g>
</g>
<!-- Node14 -->
<g id="Node000014" class="node">
<title>Node14</title>
<g id="a_Node000014"><a xlink:href="canonical__huffman_8hpp.html" target="_top" xlink:title=" ">
<polygon fill="white" stroke="#666666" points="547.5,-129 417.5,-129 417.5,-110 547.5,-110 547.5,-129"/>
<text text-anchor="middle" x="482.5" y="-117" font-family="Helvetica,sans-Serif" font-size="10.00">canonical_huffman.hpp</text>
</a>
</g>
</g>
<!-- Node1&#45;&gt;Node14 -->
<g id="edge14_Node000001_Node000014" class="edge">
<title>Node1&#45;&gt;Node14</title>
<g id="a_edge14_Node000001_Node000014"><a xlink:title=" ">
<path fill="none" stroke="#63b8ff" d="M585.74,-164.98C565.77,-156.38 534.7,-142.99 511.85,-133.15"/>
<polygon fill="#63b8ff" stroke="#63b8ff" points="513.19,-129.91 502.62,-129.17 510.42,-136.34 513.19,-129.91"/>
</a>
</g>
</g>
<!-- Node15 -->
<g id="Node000015" class="node">
<title>Node15</title>
<g id="a_Node000015"><a xlink:title=" ">
<polygon fill="#e0e0e0" stroke="#999999" points="645.5,-129 565.5,-129 565.5,-110 645.5,-110 645.5,-129"/>
<text text-anchor="middle" x="605.5" y="-117" font-family="Helvetica,sans-Serif" font-size="10.00">magick/api.h</text>
</a>
</g>
</g>
<!-- Node1&#45;&gt;Node15 -->
<g id="edge15_Node000001_Node000015" class="edge">
<title>Node1&#45;&gt;Node15</title>
<g id="a_edge15_Node000001_Node000015"><a xlink:title=" ">
<path fill="none" stroke="#63b8ff" d="M605.5,-164.75C605.5,-157.8 605.5,-147.85 605.5,-139.13"/>
<polygon fill="#63b8ff" stroke="#63b8ff" points="609,-139.09 605.5,-129.09 602,-139.09 609,-139.09"/>
</a>
</g>
</g>
<!-- Node16 -->
<g id="Node000016" class="node">
<title>Node16</title>
<g id="a_Node000016"><a xlink:title=" ">
<polygon fill="#e0e0e0" stroke="#999999" points="751,-129 664,-129 664,-110 751,-110 751,-129"/>
<text text-anchor="middle" x="707.5" y="-117" font-family="Helvetica,sans-Serif" font-size="10.00">magick/error.h</text>
</a>
</g>
</g>
<!-- Node1&#45;&gt;Node16 -->
<g id="edge16_Node000001_Node000016" class="edge">
<title>Node1&#45;&gt;Node16</title>
<g id="a_edge16_Node000001_Node000016"><a xlink:title=" ">
<path fill="none" stroke="#63b8ff" d="M621.89,-164.98C638.07,-156.57 663.07,-143.59 681.88,-133.81"/>
<polygon fill="#63b8ff" stroke="#63b8ff" points="683.55,-136.89 690.81,-129.17 680.33,-130.68 683.55,-136.89"/>
</a>
</g>
</g>
<!-- Node17 -->
<g id="Node000017" class="node">
<title>Node17</title>
<g id="a_Node000017"><a xlink:title=" ">
<polygon fill="#e0e0e0" stroke="#999999" points="864,-129 769,-129 769,-110 864,-110 864,-129"/>
<text text-anchor="middle" x="816.5" y="-117" font-family="Helvetica,sans-Serif" font-size="10.00">magick/image.h</text>
</a>
</g>
</g>
<!-- Node1&#45;&gt;Node17 -->
<g id="edge17_Node000001_Node000017" class="edge">
<title>Node1&#45;&gt;Node17</title>
<g id="a_edge17_Node000001_Node000017"><a xlink:title=" ">
<path fill="none" stroke="#63b8ff" d="M639.4,-164.98C675.52,-155.91 732.82,-141.52 772.42,-131.57"/>
<polygon fill="#63b8ff" stroke="#63b8ff" points="773.49,-134.91 782.33,-129.08 771.78,-128.12 773.49,-134.91"/>
</a>
</g>
</g>
<!-- Node18 -->
<g id="Node000018" class="node">
<title>Node18</title>
<g id="a_Node000018"><a xlink:title=" ">
<polygon fill="#e0e0e0" stroke="#999999" points="1004.5,-129 882.5,-129 882.5,-110 1004.5,-110 1004.5,-129"/>
<text text-anchor="middle" x="943.5" y="-117" font-family="Helvetica,sans-Serif" font-size="10.00">wand/magick_wand.h</text>
</a>
</g>
</g>
<!-- Node1&#45;&gt;Node18 -->
<g id="edge18_Node000001_Node000018" class="edge">
<title>Node1&#45;&gt;Node18</title>
<g id="a_edge18_Node000001_Node000018"><a xlink:title=" ">
<path fill="none" stroke="#63b8ff" d="M659.81,-164.98C719.59,-155.61 815.63,-140.55 879.14,-130.59"/>
<polygon fill="#63b8ff" stroke="#63b8ff" points="879.71,-134.05 889.05,-129.04 878.63,-127.13 879.71,-134.05"/>
</a>
</g>
</g>
<!-- Node3 -->
<g id="Node000003" class="node">
<title>Node3</title>
<g id="a_Node000003"><a xlink:title=" ">
<polygon fill="#e0e0e0" stroke="#999999" points="71,-74 0,-74 0,-55 71,-55 71,-74"/>
<text text-anchor="middle" x="35.5" y="-62" font-family="Helvetica,sans-Serif" font-size="10.00">arm_acle.h</text>
</a>
</g>
</g>
<!-- Node2&#45;&gt;Node3 -->
<g id="edge2_Node000002_Node000003" class="edge">
<title>Node2&#45;&gt;Node3</title>
<g id="a_edge2_Node000002_Node000003"><a xlink:title=" ">
<path fill="none" stroke="#63b8ff" d="M156.36,-109.98C132.68,-101.27 95.63,-87.63 68.79,-77.75"/>
<polygon fill="#63b8ff" stroke="#63b8ff" points="69.65,-74.34 59.06,-74.17 67.23,-80.91 69.65,-74.34"/>
</a>
</g>
</g>
<!-- Node4 -->
<g id="Node000004" class="node">
<title>Node4</title>
<g id="a_Node000004"><a xlink:title=" ">
<polygon fill="#e0e0e0" stroke="#999999" points="142,-74 89,-74 89,-55 142,-55 142,-74"/>
<text text-anchor="middle" x="115.5" y="-62" font-family="Helvetica,sans-Serif" font-size="10.00">cstddef</text>
</a>
</g>
</g>
<!-- Node2&#45;&gt;Node4 -->
<g id="edge3_Node000002_Node000004" class="edge">
<title>Node2&#45;&gt;Node4</title>
<g id="a_edge3_Node000002_Node000004"><a xlink:title=" ">
<path fill="none" stroke="#63b8ff" d="M169.22,-109.98C159.66,-102.07 145.22,-90.11 133.72,-80.58"/>
<polygon fill="#63b8ff" stroke="#63b8ff" points="135.9,-77.85 125.97,-74.17 131.44,-83.24 135.9,-77.85"/>
</a>
</g>
</g>
<!-- Node5 -->
<g id="Node000005" class="node">
<title>Node5</title>
<g id="a_Node000005"><a xlink:title=" ">
<polygon fill="#e0e0e0" stroke="#999999" points="267.5,-74 217.5,-74 217.5,-55 267.5,-55 267.5,-74"/>
<text text-anchor="middle" x="242.5" y="-62" font-family="Helvetica,sans-Serif" font-size="10.00">cstdint</text>
</a>
</g>
</g>
<!-- Node2&#45;&gt;Node5 -->
<g id="edge4_Node000002_Node000005" class="edge">
<title>Node2&#45;&gt;Node5</title>
<g id="a_edge4_Node000002_Node000005"><a xlink:title=" ">
<path fill="none" stroke="#63b8ff" d="M189.62,-109.98C198.94,-102.15 212.97,-90.34 224.24,-80.86"/>
<polygon fill="#63b8ff" stroke="#63b8ff" points="226.79,-83.29 232.19,-74.17 222.29,-77.93 226.79,-83.29"/>
</a>
</g>
</g>
<!-- Node6 -->
<g id="Node000006" class="node">
<title>Node6</title>
<g id="a_Node000006"><a xlink:title=" ">
<polygon fill="#e0e0e0" stroke="#999999" points="199,-74 160,-74 160,-55 199,-55 199,-74"/>
<text text-anchor="middle" x="179.5" y="-62" font-family="Helvetica,sans-Serif" font-size="10.00">print</text>
</a>
</g>
</g>
<!-- Node2&#45;&gt;Node6 -->
<g id="edge5_Node000002_Node000006" class="edge">
<title>Node2&#45;&gt;Node6</title>
<g id="a_edge5_Node000002_Node000006"><a xlink:title=" ">
<path fill="none" stroke="#63b8ff" d="M179.5,-109.75C179.5,-102.8 179.5,-92.85 179.5,-84.13"/>
<polygon fill="#63b8ff" stroke="#63b8ff" points="183,-84.09 179.5,-74.09 176,-84.09 183,-84.09"/>
</a>
</g>
</g>
<!-- Node7&#45;&gt;Node5 -->
<g id="edge7_Node000007_Node000005" class="edge">
<title>Node7&#45;&gt;Node5</title>
<g id="a_edge7_Node000007_Node000005"><a xlink:title=" ">
<path fill="none" stroke="#63b8ff" d="M328.95,-109.98C312.61,-101.57 287.37,-88.59 268.37,-78.81"/>
<polygon fill="#63b8ff" stroke="#63b8ff" points="269.84,-75.63 259.35,-74.17 266.64,-81.86 269.84,-75.63"/>
</a>
</g>
</g>
<!-- Node8 -->
<g id="Node000008" class="node">
<title>Node8</title>
<g id="a_Node000008"><a xlink:title=" ">
<polygon fill="#e0e0e0" stroke="#999999" points="335.5,-74 285.5,-74 285.5,-55 335.5,-55 335.5,-74"/>
<text text-anchor="middle" x="310.5" y="-62" font-family="Helvetica,sans-Serif" font-size="10.00">stdio.h</text>
</a>
</g>
</g>
<!-- Node7&#45;&gt;Node8 -->
<g id="edge8_Node000007_Node000008" class="edge">
<title>Node7&#45;&gt;Node8</title>
<g id="a_edge8_Node000007_Node000008"><a xlink:title=" ">
<path fill="none" stroke="#63b8ff" d="M339.72,-109.75C334.88,-102.42 327.82,-91.73 321.86,-82.7"/>
<polygon fill="#63b8ff" stroke="#63b8ff" points="324.6,-80.5 316.17,-74.09 318.76,-84.36 324.6,-80.5"/>
</a>
</g>
</g>
<!-- Node9 -->
<g id="Node000009" class="node">
<title>Node9</title>
<g id="a_Node000009"><a xlink:title=" ">
<polygon fill="#e0e0e0" stroke="#999999" points="407,-74 354,-74 354,-55 407,-55 407,-74"/>
<text text-anchor="middle" x="380.5" y="-62" font-family="Helvetica,sans-Serif" font-size="10.00">stdlib.h</text>
</a>
</g>
</g>
<!-- Node7&#45;&gt;Node9 -->
<g id="edge9_Node000007_Node000009" class="edge">
<title>Node7&#45;&gt;Node9</title>
<g id="a_edge9_Node000007_Node000009"><a xlink:title=" ">
<path fill="none" stroke="#63b8ff" d="M351.28,-109.75C356.12,-102.42 363.18,-91.73 369.14,-82.7"/>
<polygon fill="#63b8ff" stroke="#63b8ff" points="372.24,-84.36 374.83,-74.09 366.4,-80.5 372.24,-84.36"/>
</a>
</g>
</g>
<!-- Node10 -->
<g id="Node000010" class="node">
<title>Node10</title>
<g id="a_Node000010"><a xlink:title=" ">
<polygon fill="#e0e0e0" stroke="#999999" points="478,-74 425,-74 425,-55 478,-55 478,-74"/>
<text text-anchor="middle" x="451.5" y="-62" font-family="Helvetica,sans-Serif" font-size="10.00">string.h</text>
</a>
</g>
</g>
<!-- Node7&#45;&gt;Node10 -->
<g id="edge10_Node000007_Node000010" class="edge">
<title>Node7&#45;&gt;Node10</title>
<g id="a_edge10_Node000007_Node000010"><a xlink:title=" ">
<path fill="none" stroke="#63b8ff" d="M362.53,-109.98C379.43,-101.54 405.56,-88.47 425.14,-78.68"/>
<polygon fill="#63b8ff" stroke="#63b8ff" points="426.78,-81.77 434.16,-74.17 423.65,-75.51 426.78,-81.77"/>
</a>
</g>
</g>
<!-- Node11 -->
<g id="Node000011" class="node">
<title>Node11</title>
<g id="a_Node000011"><a xlink:href="correct_8h.html" target="_top" xlink:title=" ">
<polygon fill="white" stroke="#666666" points="555,-74 496,-74 496,-55 555,-55 555,-74"/>
<text text-anchor="middle" x="525.5" y="-62" font-family="Helvetica,sans-Serif" font-size="10.00">correct.h</text>
</a>
</g>
</g>
<!-- Node7&#45;&gt;Node11 -->
<g id="edge11_Node000007_Node000011" class="edge">
<title>Node7&#45;&gt;Node11</title>
<g id="a_edge11_Node000007_Node000011"><a xlink:title=" ">
<path fill="none" stroke="#63b8ff" d="M374.42,-109.98C404.77,-101.05 452.67,-86.94 486.38,-77.02"/>
<polygon fill="#63b8ff" stroke="#63b8ff" points="487.75,-80.26 496.35,-74.08 485.77,-73.55 487.75,-80.26"/>
</a>
</g>
</g>
<!-- Node12 -->
<g id="Node000012" class="node">
<title>Node12</title>
<g id="a_Node000012"><a xlink:title=" ">
<polygon fill="#e0e0e0" stroke="#999999" points="515,-19 462,-19 462,0 515,0 515,-19"/>
<text text-anchor="middle" x="488.5" y="-7" font-family="Helvetica,sans-Serif" font-size="10.00">stdint.h</text>
</a>
</g>
</g>
<!-- Node11&#45;&gt;Node12 -->
<g id="edge12_Node000011_Node000012" class="edge">
<title>Node11&#45;&gt;Node12</title>
<g id="a_edge12_Node000011_Node000012"><a xlink:title=" ">
<path fill="none" stroke="#63b8ff" d="M519.39,-54.75C514.22,-47.34 506.65,-36.5 500.31,-27.41"/>
<polygon fill="#63b8ff" stroke="#63b8ff" points="503.09,-25.29 494.5,-19.09 497.35,-29.29 503.09,-25.29"/>
</a>
</g>
</g>
<!-- Node13 -->
<g id="Node000013" class="node">
<title>Node13</title>
<g id="a_Node000013"><a xlink:title=" ">
<polygon fill="#e0e0e0" stroke="#999999" points="589.5,-19 533.5,-19 533.5,0 589.5,0 589.5,-19"/>
<text text-anchor="middle" x="561.5" y="-7" font-family="Helvetica,sans-Serif" font-size="10.00">unistd.h</text>
</a>
</g>
</g>
<!-- Node11&#45;&gt;Node13 -->
<g id="edge13_Node000011_Node000013" class="edge">
<title>Node11&#45;&gt;Node13</title>
<g id="a_edge13_Node000011_Node000013"><a xlink:title=" ">
<path fill="none" stroke="#63b8ff" d="M531.44,-54.75C536.48,-47.34 543.84,-36.5 550.01,-27.41"/>
<polygon fill="#63b8ff" stroke="#63b8ff" points="552.94,-29.33 555.67,-19.09 547.15,-25.39 552.94,-29.33"/>
</a>
</g>
</g>
</g>
</svg>
