<?xml version="1.0" encoding="UTF-8" standalone="no"?>
<!DOCTYPE svg PUBLIC "-//W3C//DTD SVG 1.1//EN"
 "http://www.w3.org/Graphics/SVG/1.1/DTD/svg11.dtd">
<!-- Generated by graphviz version 2.43.0 (0)
 -->
<!-- Title: src/chronos.cpp Pages: 1 -->
<svg width="1435pt" height="247pt"
 viewBox="0.00 0.00 1434.83 247.00" xmlns="http://www.w3.org/2000/svg" xmlns:xlink="http://www.w3.org/1999/xlink">
<g id="graph0" class="graph" transform="scale(1 1) rotate(0) translate(4 243)">
<title>src/chronos.cpp</title>
<!-- Node1 -->
<g id="Node000001" class="node">
<title>Node1</title>
<g id="a_Node000001"><a xlink:title=" ">
<polygon fill="#999999" stroke="#666666" points="680.83,-239 588.83,-239 588.83,-220 680.83,-220 680.83,-239"/>
<text text-anchor="middle" x="634.83" y="-227" font-family="Helvetica,sans-Serif" font-size="10.00">src/chronos.cpp</text>
</a>
</g>
</g>
<!-- Node2 -->
<g id="Node000002" class="node">
<title>Node2</title>
<g id="a_Node000002"><a xlink:href="chronos_8hpp.html" target="_top" xlink:title=" ">
<polygon fill="white" stroke="#666666" points="549.83,-184 473.83,-184 473.83,-165 549.83,-165 549.83,-184"/>
<text text-anchor="middle" x="511.83" y="-172" font-family="Helvetica,sans-Serif" font-size="10.00">chronos.hpp</text>
</a>
</g>
</g>
<!-- Node1&#45;&gt;Node2 -->
<g id="edge1_Node000001_Node000002" class="edge">
<title>Node1&#45;&gt;Node2</title>
<g id="a_edge1_Node000001_Node000002"><a xlink:title=" ">
<path fill="none" stroke="#63b8ff" d="M615.07,-219.98C595.1,-211.38 564.03,-197.99 541.18,-188.15"/>
<polygon fill="#63b8ff" stroke="#63b8ff" points="542.52,-184.91 531.95,-184.17 539.75,-191.34 542.52,-184.91"/>
</a>
</g>
</g>
<!-- Node9 -->
<g id="Node000009" class="node">
<title>Node9</title>
<g id="a_Node000009"><a xlink:title=" ">
<polygon fill="#e0e0e0" stroke="#999999" points="61.83,-74 11.83,-74 11.83,-55 61.83,-55 61.83,-74"/>
<text text-anchor="middle" x="36.83" y="-62" font-family="Helvetica,sans-Serif" font-size="10.00">stdio.h</text>
</a>
</g>
</g>
<!-- Node1&#45;&gt;Node9 -->
<g id="edge30_Node000001_Node000009" class="edge">
<title>Node1&#45;&gt;Node9</title>
<g id="a_edge30_Node000001_Node000009"><a xlink:title=" ">
<path fill="none" stroke="#63b8ff" d="M588.82,-227.2C489.65,-223.86 258.94,-213.12 186.83,-184 129.35,-160.79 75.9,-108.36 51.19,-81.71"/>
<polygon fill="#63b8ff" stroke="#63b8ff" points="53.53,-79.08 44.21,-74.03 48.35,-83.79 53.53,-79.08"/>
</a>
</g>
</g>
<!-- Node10 -->
<g id="Node000010" class="node">
<title>Node10</title>
<g id="a_Node000010"><a xlink:title=" ">
<polygon fill="#e0e0e0" stroke="#999999" points="133.33,-74 80.33,-74 80.33,-55 133.33,-55 133.33,-74"/>
<text text-anchor="middle" x="106.83" y="-62" font-family="Helvetica,sans-Serif" font-size="10.00">stdlib.h</text>
</a>
</g>
</g>
<!-- Node1&#45;&gt;Node10 -->
<g id="edge31_Node000001_Node000010" class="edge">
<title>Node1&#45;&gt;Node10</title>
<g id="a_edge31_Node000001_Node000010"><a xlink:title=" ">
<path fill="none" stroke="#63b8ff" d="M588.73,-226.9C495.15,-223.1 286.22,-211.72 220.83,-184 172.16,-163.37 134.26,-110.59 117.01,-82.96"/>
<polygon fill="#63b8ff" stroke="#63b8ff" points="119.95,-81.07 111.78,-74.33 113.97,-84.69 119.95,-81.07"/>
</a>
</g>
</g>
<!-- Node11 -->
<g id="Node000011" class="node">
<title>Node11</title>
<g id="a_Node000011"><a xlink:title=" ">
<polygon fill="#e0e0e0" stroke="#999999" points="204.33,-74 151.33,-74 151.33,-55 204.33,-55 204.33,-74"/>
<text text-anchor="middle" x="177.83" y="-62" font-family="Helvetica,sans-Serif" font-size="10.00">string.h</text>
</a>
</g>
</g>
<!-- Node1&#45;&gt;Node11 -->
<g id="edge32_Node000001_Node000011" class="edge">
<title>Node1&#45;&gt;Node11</title>
<g id="a_edge32_Node000001_Node000011"><a xlink:title=" ">
<path fill="none" stroke="#63b8ff" d="M588.7,-225.89C480.81,-218.73 217.13,-194.73 163.83,-129 153.42,-116.16 159.5,-97.23 166.61,-83.38"/>
<polygon fill="#63b8ff" stroke="#63b8ff" points="169.85,-84.77 171.75,-74.35 163.76,-81.31 169.85,-84.77"/>
</a>
</g>
</g>
<!-- Node13 -->
<g id="Node000013" class="node">
<title>Node13</title>
<g id="a_Node000013"><a xlink:title=" ">
<polygon fill="#e0e0e0" stroke="#999999" points="108.33,-19 55.33,-19 55.33,0 108.33,0 108.33,-19"/>
<text text-anchor="middle" x="81.83" y="-7" font-family="Helvetica,sans-Serif" font-size="10.00">stdint.h</text>
</a>
</g>
</g>
<!-- Node1&#45;&gt;Node13 -->
<g id="edge29_Node000001_Node000013" class="edge">
<title>Node1&#45;&gt;Node13</title>
<g id="a_edge29_Node000001_Node000013"><a xlink:title=" ">
<path fill="none" stroke="#63b8ff" d="M588.75,-227.54C483.17,-224.82 226.69,-215.13 146.83,-184 71.79,-154.75 38.53,-146.19 2.83,-74 -8.77,-50.54 19.78,-32.9 45.73,-22.25"/>
<polygon fill="#63b8ff" stroke="#63b8ff" points="47.03,-25.5 55.1,-18.64 44.51,-18.97 47.03,-25.5"/>
</a>
</g>
</g>
<!-- Node17 -->
<g id="Node000017" class="node">
<title>Node17</title>
<g id="a_Node000017"><a xlink:title=" ">
<polygon fill="#e0e0e0" stroke="#999999" points="719.33,-129 632.33,-129 632.33,-110 719.33,-110 719.33,-129"/>
<text text-anchor="middle" x="675.83" y="-117" font-family="Helvetica,sans-Serif" font-size="10.00">magick/error.h</text>
</a>
</g>
</g>
<!-- Node1&#45;&gt;Node17 -->
<g id="edge23_Node000001_Node000017" class="edge">
<title>Node1&#45;&gt;Node17</title>
<g id="a_edge23_Node000001_Node000017"><a xlink:title=" ">
<path fill="none" stroke="#63b8ff" d="M624.48,-219.77C611.15,-207.43 590.94,-184.25 601.83,-165 610,-150.55 624.95,-140.27 639.29,-133.26"/>
<polygon fill="#63b8ff" stroke="#63b8ff" points="640.84,-136.4 648.54,-129.12 637.98,-130.01 640.84,-136.4"/>
</a>
</g>
</g>
<!-- Node18 -->
<g id="Node000018" class="node">
<title>Node18</title>
<g id="a_Node000018"><a xlink:title=" ">
<polygon fill="#e0e0e0" stroke="#999999" points="832.33,-129 737.33,-129 737.33,-110 832.33,-110 832.33,-129"/>
<text text-anchor="middle" x="784.83" y="-117" font-family="Helvetica,sans-Serif" font-size="10.00">magick/image.h</text>
</a>
</g>
</g>
<!-- Node1&#45;&gt;Node18 -->
<g id="edge24_Node000001_Node000018" class="edge">
<title>Node1&#45;&gt;Node18</title>
<g id="a_edge24_Node000001_Node000018"><a xlink:title=" ">
<path fill="none" stroke="#63b8ff" d="M632.69,-219.59C630.03,-206.17 627.24,-180.7 639.83,-165 651.16,-150.87 692.18,-139.07 727.72,-131.19"/>
<polygon fill="#63b8ff" stroke="#63b8ff" points="728.53,-134.59 737.57,-129.07 727.05,-127.75 728.53,-134.59"/>
</a>
</g>
</g>
<!-- Node19 -->
<g id="Node000019" class="node">
<title>Node19</title>
<g id="a_Node000019"><a xlink:title=" ">
<polygon fill="#e0e0e0" stroke="#999999" points="972.83,-129 850.83,-129 850.83,-110 972.83,-110 972.83,-129"/>
<text text-anchor="middle" x="911.83" y="-117" font-family="Helvetica,sans-Serif" font-size="10.00">wand/magick_wand.h</text>
</a>
</g>
</g>
<!-- Node1&#45;&gt;Node19 -->
<g id="edge28_Node000001_Node000019" class="edge">
<title>Node1&#45;&gt;Node19</title>
<g id="a_edge28_Node000001_Node000019"><a xlink:title=" ">
<path fill="none" stroke="#63b8ff" d="M637.54,-219.91C642.4,-205.98 654,-178.64 673.83,-165 687.68,-155.48 777.13,-140.48 842.3,-130.57"/>
<polygon fill="#63b8ff" stroke="#63b8ff" points="843.17,-133.98 852.54,-129.03 842.13,-127.06 843.17,-133.98"/>
</a>
</g>
</g>
<!-- Node20 -->
<g id="Node000020" class="node">
<title>Node20</title>
<g id="a_Node000020"><a xlink:title=" ">
<polygon fill="#e0e0e0" stroke="#999999" points="799.33,-184 682.33,-184 682.33,-165 799.33,-165 799.33,-184"/>
<text text-anchor="middle" x="740.83" y="-172" font-family="Helvetica,sans-Serif" font-size="10.00">magick/colorspace.h</text>
</a>
</g>
</g>
<!-- Node1&#45;&gt;Node20 -->
<g id="edge20_Node000001_Node000020" class="edge">
<title>Node1&#45;&gt;Node20</title>
<g id="a_edge20_Node000001_Node000020"><a xlink:title=" ">
<path fill="none" stroke="#63b8ff" d="M651.86,-219.98C668.76,-211.54 694.9,-198.47 714.47,-188.68"/>
<polygon fill="#63b8ff" stroke="#63b8ff" points="716.11,-191.77 723.49,-184.17 712.98,-185.51 716.11,-191.77"/>
</a>
</g>
</g>
<!-- Node21 -->
<g id="Node000021" class="node">
<title>Node21</title>
<g id="a_Node000021"><a xlink:title=" ">
<polygon fill="#e0e0e0" stroke="#999999" points="924.33,-184 817.33,-184 817.33,-165 924.33,-165 924.33,-184"/>
<text text-anchor="middle" x="870.83" y="-172" font-family="Helvetica,sans-Serif" font-size="10.00">magick/common.h</text>
</a>
</g>
</g>
<!-- Node1&#45;&gt;Node21 -->
<g id="edge21_Node000001_Node000021" class="edge">
<title>Node1&#45;&gt;Node21</title>
<g id="a_edge21_Node000001_Node000021"><a xlink:title=" ">
<path fill="none" stroke="#63b8ff" d="M672.75,-219.98C713.49,-210.84 778.33,-196.27 822.65,-186.32"/>
<polygon fill="#63b8ff" stroke="#63b8ff" points="823.63,-189.69 832.62,-184.08 822.09,-182.86 823.63,-189.69"/>
</a>
</g>
</g>
<!-- Node22 -->
<g id="Node000022" class="node">
<title>Node22</title>
<g id="a_Node000022"><a xlink:title=" ">
<polygon fill="#e0e0e0" stroke="#999999" points="1055.33,-184 942.33,-184 942.33,-165 1055.33,-165 1055.33,-184"/>
<text text-anchor="middle" x="998.83" y="-172" font-family="Helvetica,sans-Serif" font-size="10.00">magick/constitute.h</text>
</a>
</g>
</g>
<!-- Node1&#45;&gt;Node22 -->
<g id="edge22_Node000001_Node000022" class="edge">
<title>Node1&#45;&gt;Node22</title>
<g id="a_edge22_Node000001_Node000022"><a xlink:title=" ">
<path fill="none" stroke="#63b8ff" d="M680.93,-221.79C744.42,-212.54 859.18,-195.83 932.06,-185.22"/>
<polygon fill="#63b8ff" stroke="#63b8ff" points="932.67,-188.67 942.06,-183.77 931.66,-181.74 932.67,-188.67"/>
</a>
</g>
</g>
<!-- Node23 -->
<g id="Node000023" class="node">
<title>Node23</title>
<g id="a_Node000023"><a xlink:title=" ">
<polygon fill="#e0e0e0" stroke="#999999" points="1174.33,-184 1073.33,-184 1073.33,-165 1174.33,-165 1174.33,-184"/>
<text text-anchor="middle" x="1123.83" y="-172" font-family="Helvetica,sans-Serif" font-size="10.00">magick/magick.h</text>
</a>
</g>
</g>
<!-- Node1&#45;&gt;Node23 -->
<g id="edge25_Node000001_Node000023" class="edge">
<title>Node1&#45;&gt;Node23</title>
<g id="a_edge25_Node000001_Node000023"><a xlink:title=" ">
<path fill="none" stroke="#63b8ff" d="M681.03,-224.33C758.09,-217.24 917.97,-201.96 1063.32,-184.14"/>
<polygon fill="#63b8ff" stroke="#63b8ff" points="1063.82,-187.61 1073.32,-182.91 1062.97,-180.66 1063.82,-187.61"/>
</a>
</g>
</g>
<!-- Node24 -->
<g id="Node000024" class="node">
<title>Node24</title>
<g id="a_Node000024"><a xlink:title=" ">
<polygon fill="#e0e0e0" stroke="#999999" points="1314.83,-184 1192.83,-184 1192.83,-165 1314.83,-165 1314.83,-184"/>
<text text-anchor="middle" x="1253.83" y="-172" font-family="Helvetica,sans-Serif" font-size="10.00">magick/pixel_cache.h</text>
</a>
</g>
</g>
<!-- Node1&#45;&gt;Node24 -->
<g id="edge26_Node000001_Node000024" class="edge">
<title>Node1&#45;&gt;Node24</title>
<g id="a_edge26_Node000001_Node000024"><a xlink:title=" ">
<path fill="none" stroke="#63b8ff" d="M681.16,-225.37C774.13,-218.96 990.28,-203.37 1182.75,-184.07"/>
<polygon fill="#63b8ff" stroke="#63b8ff" points="1183.17,-187.55 1192.76,-183.06 1182.46,-180.58 1183.17,-187.55"/>
</a>
</g>
</g>
<!-- Node25 -->
<g id="Node000025" class="node">
<title>Node25</title>
<g id="a_Node000025"><a xlink:title=" ">
<polygon fill="#e0e0e0" stroke="#999999" points="1426.83,-184 1332.83,-184 1332.83,-165 1426.83,-165 1426.83,-184"/>
<text text-anchor="middle" x="1379.83" y="-172" font-family="Helvetica,sans-Serif" font-size="10.00">magick/resize.h</text>
</a>
</g>
</g>
<!-- Node1&#45;&gt;Node25 -->
<g id="edge27_Node000001_Node000025" class="edge">
<title>Node1&#45;&gt;Node25</title>
<g id="a_edge27_Node000001_Node000025"><a xlink:title=" ">
<path fill="none" stroke="#63b8ff" d="M680.91,-226.9C790.34,-222.79 1074.59,-210.4 1322.53,-184.04"/>
<polygon fill="#63b8ff" stroke="#63b8ff" points="1323.25,-187.48 1332.82,-182.94 1322.5,-180.52 1323.25,-187.48"/>
</a>
</g>
</g>
<!-- Node3 -->
<g id="Node000003" class="node">
<title>Node3</title>
<g id="a_Node000003"><a xlink:href="crc32c_8hpp.html" target="_top" xlink:title="CRC32&#45;Castagnoli header using Hardware&#45;accelerated &amp; Parallel Computation CRC32C intrinsics from ARMv...">
<polygon fill="white" stroke="#666666" points="367.33,-129 298.33,-129 298.33,-110 367.33,-110 367.33,-129"/>
<text text-anchor="middle" x="332.83" y="-117" font-family="Helvetica,sans-Serif" font-size="10.00">crc32c.hpp</text>
</a>
</g>
</g>
<!-- Node2&#45;&gt;Node3 -->
<g id="edge2_Node000002_Node000003" class="edge">
<title>Node2&#45;&gt;Node3</title>
<g id="a_edge2_Node000002_Node000003"><a xlink:title=" ">
<path fill="none" stroke="#63b8ff" d="M483.07,-164.98C452.89,-156.05 405.26,-141.94 371.73,-132.02"/>
<polygon fill="#63b8ff" stroke="#63b8ff" points="372.4,-128.57 361.82,-129.08 370.41,-135.28 372.4,-128.57"/>
</a>
</g>
</g>
<!-- Node8 -->
<g id="Node000008" class="node">
<title>Node8</title>
<g id="a_Node000008"><a xlink:href="reed__solomon_8hpp.html" target="_top" xlink:title=" ">
<polygon fill="white" stroke="#666666" points="280.33,-129 173.33,-129 173.33,-110 280.33,-110 280.33,-129"/>
<text text-anchor="middle" x="226.83" y="-117" font-family="Helvetica,sans-Serif" font-size="10.00">reed_solomon.hpp</text>
</a>
</g>
</g>
<!-- Node2&#45;&gt;Node8 -->
<g id="edge7_Node000002_Node000008" class="edge">
<title>Node2&#45;&gt;Node8</title>
<g id="a_edge7_Node000002_Node000008"><a xlink:title=" ">
<path fill="none" stroke="#63b8ff" d="M473.69,-166.41C424.71,-157.3 339.33,-141.42 282.93,-130.93"/>
<polygon fill="#63b8ff" stroke="#63b8ff" points="283.23,-127.43 272.76,-129.04 281.95,-134.31 283.23,-127.43"/>
</a>
</g>
</g>
<!-- Node15 -->
<g id="Node000015" class="node">
<title>Node15</title>
<g id="a_Node000015"><a xlink:href="canonical__huffman_8hpp.html" target="_top" xlink:title=" ">
<polygon fill="white" stroke="#666666" points="515.83,-129 385.83,-129 385.83,-110 515.83,-110 515.83,-129"/>
<text text-anchor="middle" x="450.83" y="-117" font-family="Helvetica,sans-Serif" font-size="10.00">canonical_huffman.hpp</text>
</a>
</g>
</g>
<!-- Node2&#45;&gt;Node15 -->
<g id="edge15_Node000002_Node000015" class="edge">
<title>Node2&#45;&gt;Node15</title>
<g id="a_edge15_Node000002_Node000015"><a xlink:title=" ">
<path fill="none" stroke="#63b8ff" d="M502.03,-164.98C493.01,-157.15 479.43,-145.34 468.51,-135.86"/>
<polygon fill="#63b8ff" stroke="#63b8ff" points="470.65,-133.09 460.81,-129.17 466.06,-138.37 470.65,-133.09"/>
</a>
</g>
</g>
<!-- Node16 -->
<g id="Node000016" class="node">
<title>Node16</title>
<g id="a_Node000016"><a xlink:title=" ">
<polygon fill="#e0e0e0" stroke="#999999" points="613.83,-129 533.83,-129 533.83,-110 613.83,-110 613.83,-129"/>
<text text-anchor="middle" x="573.83" y="-117" font-family="Helvetica,sans-Serif" font-size="10.00">magick/api.h</text>
</a>
</g>
</g>
<!-- Node2&#45;&gt;Node16 -->
<g id="edge16_Node000002_Node000016" class="edge">
<title>Node2&#45;&gt;Node16</title>
<g id="a_edge16_Node000002_Node000016"><a xlink:title=" ">
<path fill="none" stroke="#63b8ff" d="M521.79,-164.98C530.96,-157.15 544.77,-145.34 555.86,-135.86"/>
<polygon fill="#63b8ff" stroke="#63b8ff" points="558.36,-138.33 563.69,-129.17 553.81,-133.01 558.36,-138.33"/>
</a>
</g>
</g>
<!-- Node2&#45;&gt;Node17 -->
<g id="edge17_Node000002_Node000017" class="edge">
<title>Node2&#45;&gt;Node17</title>
<g id="a_edge17_Node000002_Node000017"><a xlink:title=" ">
<path fill="none" stroke="#63b8ff" d="M538.18,-164.98C565.6,-156.13 608.72,-142.19 639.39,-132.28"/>
<polygon fill="#63b8ff" stroke="#63b8ff" points="640.84,-135.49 649.28,-129.08 638.68,-128.83 640.84,-135.49"/>
</a>
</g>
</g>
<!-- Node2&#45;&gt;Node18 -->
<g id="edge18_Node000002_Node000018" class="edge">
<title>Node2&#45;&gt;Node18</title>
<g id="a_edge18_Node000002_Node000018"><a xlink:title=" ">
<path fill="none" stroke="#63b8ff" d="M550.08,-166.07C597.23,-156.92 677.64,-141.31 731.01,-130.95"/>
<polygon fill="#63b8ff" stroke="#63b8ff" points="731.83,-134.36 740.97,-129.01 730.49,-127.48 731.83,-134.36"/>
</a>
</g>
</g>
<!-- Node2&#45;&gt;Node19 -->
<g id="edge19_Node000002_Node000019" class="edge">
<title>Node2&#45;&gt;Node19</title>
<g id="a_edge19_Node000002_Node000019"><a xlink:title=" ">
<path fill="none" stroke="#63b8ff" d="M550.18,-168.42C616.98,-159.57 755.64,-141.2 840.53,-129.95"/>
<polygon fill="#63b8ff" stroke="#63b8ff" points="841.15,-133.4 850.61,-128.61 840.23,-126.46 841.15,-133.4"/>
</a>
</g>
</g>
<!-- Node4 -->
<g id="Node000004" class="node">
<title>Node4</title>
<g id="a_Node000004"><a xlink:title=" ">
<polygon fill="#e0e0e0" stroke="#999999" points="496.33,-74 425.33,-74 425.33,-55 496.33,-55 496.33,-74"/>
<text text-anchor="middle" x="460.83" y="-62" font-family="Helvetica,sans-Serif" font-size="10.00">arm_acle.h</text>
</a>
</g>
</g>
<!-- Node3&#45;&gt;Node4 -->
<g id="edge3_Node000003_Node000004" class="edge">
<title>Node3&#45;&gt;Node4</title>
<g id="a_edge3_Node000003_Node000004"><a xlink:title=" ">
<path fill="none" stroke="#63b8ff" d="M353.4,-109.98C374.27,-101.34 406.8,-87.87 430.6,-78.02"/>
<polygon fill="#63b8ff" stroke="#63b8ff" points="431.99,-81.23 439.89,-74.17 429.31,-74.76 431.99,-81.23"/>
</a>
</g>
</g>
<!-- Node5 -->
<g id="Node000005" class="node">
<title>Node5</title>
<g id="a_Node000005"><a xlink:title=" ">
<polygon fill="#e0e0e0" stroke="#999999" points="567.33,-74 514.33,-74 514.33,-55 567.33,-55 567.33,-74"/>
<text text-anchor="middle" x="540.83" y="-62" font-family="Helvetica,sans-Serif" font-size="10.00">cstddef</text>
</a>
</g>
</g>
<!-- Node3&#45;&gt;Node5 -->
<g id="edge4_Node000003_Node000005" class="edge">
<title>Node3&#45;&gt;Node5</title>
<g id="a_edge4_Node000003_Node000005"><a xlink:title=" ">
<path fill="none" stroke="#63b8ff" d="M366.25,-109.98C403.99,-100.37 465.21,-84.77 504.21,-74.83"/>
<polygon fill="#63b8ff" stroke="#63b8ff" points="505.28,-78.17 514.11,-72.31 503.55,-71.39 505.28,-78.17"/>
</a>
</g>
</g>
<!-- Node6 -->
<g id="Node000006" class="node">
<title>Node6</title>
<g id="a_Node000006"><a xlink:title=" ">
<polygon fill="#e0e0e0" stroke="#999999" points="349.83,-74 299.83,-74 299.83,-55 349.83,-55 349.83,-74"/>
<text text-anchor="middle" x="324.83" y="-62" font-family="Helvetica,sans-Serif" font-size="10.00">cstdint</text>
</a>
</g>
</g>
<!-- Node3&#45;&gt;Node6 -->
<g id="edge5_Node000003_Node000006" class="edge">
<title>Node3&#45;&gt;Node6</title>
<g id="a_edge5_Node000003_Node000006"><a xlink:title=" ">
<path fill="none" stroke="#63b8ff" d="M331.51,-109.75C330.46,-102.8 328.96,-92.85 327.64,-84.13"/>
<polygon fill="#63b8ff" stroke="#63b8ff" points="331.08,-83.45 326.13,-74.09 324.16,-84.5 331.08,-83.45"/>
</a>
</g>
</g>
<!-- Node7 -->
<g id="Node000007" class="node">
<title>Node7</title>
<g id="a_Node000007"><a xlink:title=" ">
<polygon fill="#e0e0e0" stroke="#999999" points="407.33,-74 368.33,-74 368.33,-55 407.33,-55 407.33,-74"/>
<text text-anchor="middle" x="387.83" y="-62" font-family="Helvetica,sans-Serif" font-size="10.00">print</text>
</a>
</g>
</g>
<!-- Node3&#45;&gt;Node7 -->
<g id="edge6_Node000003_Node000007" class="edge">
<title>Node3&#45;&gt;Node7</title>
<g id="a_edge6_Node000003_Node000007"><a xlink:title=" ">
<path fill="none" stroke="#63b8ff" d="M341.91,-109.75C349.92,-102.03 361.79,-90.6 371.45,-81.28"/>
<polygon fill="#63b8ff" stroke="#63b8ff" points="374.15,-83.55 378.92,-74.09 369.29,-78.51 374.15,-83.55"/>
</a>
</g>
</g>
<!-- Node8&#45;&gt;Node6 -->
<g id="edge8_Node000008_Node000006" class="edge">
<title>Node8&#45;&gt;Node6</title>
<g id="a_edge8_Node000008_Node000006"><a xlink:title=" ">
<path fill="none" stroke="#63b8ff" d="M242.58,-109.98C258.06,-101.61 281.92,-88.7 299.97,-78.95"/>
<polygon fill="#63b8ff" stroke="#63b8ff" points="301.67,-82.01 308.8,-74.17 298.34,-75.85 301.67,-82.01"/>
</a>
</g>
</g>
<!-- Node8&#45;&gt;Node9 -->
<g id="edge9_Node000008_Node000009" class="edge">
<title>Node8&#45;&gt;Node9</title>
<g id="a_edge9_Node000008_Node000009"><a xlink:title=" ">
<path fill="none" stroke="#63b8ff" d="M196.3,-109.98C162.41,-100.53 107.79,-85.29 72.09,-75.34"/>
<polygon fill="#63b8ff" stroke="#63b8ff" points="72.69,-71.87 62.12,-72.55 70.81,-78.61 72.69,-71.87"/>
</a>
</g>
</g>
<!-- Node8&#45;&gt;Node10 -->
<g id="edge10_Node000008_Node000010" class="edge">
<title>Node8&#45;&gt;Node10</title>
<g id="a_edge10_Node000008_Node000010"><a xlink:title=" ">
<path fill="none" stroke="#63b8ff" d="M207.55,-109.98C188.16,-101.42 158.02,-88.11 135.77,-78.28"/>
<polygon fill="#63b8ff" stroke="#63b8ff" points="137.02,-75.01 126.46,-74.17 134.2,-81.41 137.02,-75.01"/>
</a>
</g>
</g>
<!-- Node8&#45;&gt;Node11 -->
<g id="edge11_Node000008_Node000011" class="edge">
<title>Node8&#45;&gt;Node11</title>
<g id="a_edge11_Node000008_Node000011"><a xlink:title=" ">
<path fill="none" stroke="#63b8ff" d="M218.74,-109.75C211.68,-102.11 201.24,-90.82 192.68,-81.56"/>
<polygon fill="#63b8ff" stroke="#63b8ff" points="195.13,-79.06 185.77,-74.09 189.99,-83.81 195.13,-79.06"/>
</a>
</g>
</g>
<!-- Node12 -->
<g id="Node000012" class="node">
<title>Node12</title>
<g id="a_Node000012"><a xlink:href="correct_8h.html" target="_top" xlink:title=" ">
<polygon fill="white" stroke="#666666" points="281.33,-74 222.33,-74 222.33,-55 281.33,-55 281.33,-74"/>
<text text-anchor="middle" x="251.83" y="-62" font-family="Helvetica,sans-Serif" font-size="10.00">correct.h</text>
</a>
</g>
</g>
<!-- Node8&#45;&gt;Node12 -->
<g id="edge12_Node000008_Node000012" class="edge">
<title>Node8&#45;&gt;Node12</title>
<g id="a_edge12_Node000008_Node000012"><a xlink:title=" ">
<path fill="none" stroke="#63b8ff" d="M230.96,-109.75C234.34,-102.57 239.25,-92.18 243.45,-83.27"/>
<polygon fill="#63b8ff" stroke="#63b8ff" points="246.68,-84.63 247.78,-74.09 240.35,-81.64 246.68,-84.63"/>
</a>
</g>
</g>
<!-- Node12&#45;&gt;Node13 -->
<g id="edge13_Node000012_Node000013" class="edge">
<title>Node12&#45;&gt;Node13</title>
<g id="a_edge13_Node000012_Node000013"><a xlink:title=" ">
<path fill="none" stroke="#63b8ff" d="M224.52,-54.98C195.72,-46.01 150.2,-31.82 118.34,-21.88"/>
<polygon fill="#63b8ff" stroke="#63b8ff" points="119.1,-18.45 108.52,-18.82 117.02,-25.14 119.1,-18.45"/>
</a>
</g>
</g>
<!-- Node14 -->
<g id="Node000014" class="node">
<title>Node14</title>
<g id="a_Node000014"><a xlink:title=" ">
<polygon fill="#e0e0e0" stroke="#999999" points="279.83,-19 223.83,-19 223.83,0 279.83,0 279.83,-19"/>
<text text-anchor="middle" x="251.83" y="-7" font-family="Helvetica,sans-Serif" font-size="10.00">unistd.h</text>
</a>
</g>
</g>
<!-- Node12&#45;&gt;Node14 -->
<g id="edge14_Node000012_Node000014" class="edge">
<title>Node12&#45;&gt;Node14</title>
<g id="a_edge14_Node000012_Node000014"><a xlink:title=" ">
<path fill="none" stroke="#63b8ff" d="M251.83,-54.75C251.83,-47.8 251.83,-37.85 251.83,-29.13"/>
<polygon fill="#63b8ff" stroke="#63b8ff" points="255.33,-29.09 251.83,-19.09 248.33,-29.09 255.33,-29.09"/>
</a>
</g>
</g>
</g>
</svg>
