<?xml version="1.0" encoding="UTF-8" standalone="no"?>
<!DOCTYPE svg PUBLIC "-//W3C//DTD SVG 1.1//EN"
 "http://www.w3.org/Graphics/SVG/1.1/DTD/svg11.dtd">
<!-- Generated by graphviz version 2.43.0 (0)
 -->
<!-- Title: src/chronos.cpp Pages: 1 -->
<svg width="1502pt" height="192pt"
 viewBox="0.00 0.00 1501.50 192.00" xmlns="http://www.w3.org/2000/svg" xmlns:xlink="http://www.w3.org/1999/xlink">
<g id="graph0" class="graph" transform="scale(1 1) rotate(0) translate(4 188)">
<title>src/chronos.cpp</title>
<!-- Node1 -->
<g id="Node000001" class="node">
<title>Node1</title>
<g id="a_Node000001"><a xlink:title=" ">
<polygon fill="#999999" stroke="#666666" points="738,-184 646,-184 646,-165 738,-165 738,-184"/>
<text text-anchor="middle" x="692" y="-172" font-family="Helvetica,sans-Serif" font-size="10.00">src/chronos.cpp</text>
</a>
</g>
</g>
<!-- Node2 -->
<g id="Node000002" class="node">
<title>Node2</title>
<g id="a_Node000002"><a xlink:href="chronos_8hpp.html" target="_top" xlink:title=" ">
<polygon fill="white" stroke="#666666" points="545,-129 469,-129 469,-110 545,-110 545,-129"/>
<text text-anchor="middle" x="507" y="-117" font-family="Helvetica,sans-Serif" font-size="10.00">chronos.hpp</text>
</a>
</g>
</g>
<!-- Node1&#45;&gt;Node2 -->
<g id="edge1_Node000001_Node000002" class="edge">
<title>Node1&#45;&gt;Node2</title>
<g id="a_edge1_Node000001_Node000002"><a xlink:title=" ">
<path fill="none" stroke="#63b8ff" d="M662.28,-164.98C630.95,-156.01 581.43,-141.82 546.76,-131.89"/>
<polygon fill="#63b8ff" stroke="#63b8ff" points="547.53,-128.47 536.96,-129.08 545.61,-135.2 547.53,-128.47"/>
</a>
</g>
</g>
<!-- Node9 -->
<g id="Node000009" class="node">
<title>Node9</title>
<g id="a_Node000009"><a xlink:title=" ">
<polygon fill="#e0e0e0" stroke="#999999" points="50,-19 0,-19 0,0 50,0 50,-19"/>
<text text-anchor="middle" x="25" y="-7" font-family="Helvetica,sans-Serif" font-size="10.00">stdio.h</text>
</a>
</g>
</g>
<!-- Node1&#45;&gt;Node9 -->
<g id="edge28_Node000001_Node000009" class="edge">
<title>Node1&#45;&gt;Node9</title>
<g id="a_edge28_Node000001_Node000009"><a xlink:title=" ">
<path fill="none" stroke="#63b8ff" d="M645.98,-172.3C515.8,-168.6 151.34,-155.92 105,-129 65.78,-106.21 41.79,-55.58 31.27,-28.46"/>
<polygon fill="#63b8ff" stroke="#63b8ff" points="34.53,-27.2 27.79,-19.03 27.97,-29.62 34.53,-27.2"/>
</a>
</g>
</g>
<!-- Node10 -->
<g id="Node000010" class="node">
<title>Node10</title>
<g id="a_Node000010"><a xlink:title=" ">
<polygon fill="#e0e0e0" stroke="#999999" points="179.5,-19 126.5,-19 126.5,0 179.5,0 179.5,-19"/>
<text text-anchor="middle" x="153" y="-7" font-family="Helvetica,sans-Serif" font-size="10.00">stdlib.h</text>
</a>
</g>
</g>
<!-- Node1&#45;&gt;Node10 -->
<g id="edge29_Node000001_Node000010" class="edge">
<title>Node1&#45;&gt;Node10</title>
<g id="a_edge29_Node000001_Node000010"><a xlink:title=" ">
<path fill="none" stroke="#63b8ff" d="M645.75,-173.35C531.41,-172.4 238.24,-166.29 149,-129 108.88,-112.23 64.32,-93.25 85,-55 92.58,-40.98 106.7,-30.67 120.13,-23.53"/>
<polygon fill="#63b8ff" stroke="#63b8ff" points="121.77,-26.62 129.22,-19.08 118.7,-20.33 121.77,-26.62"/>
</a>
</g>
</g>
<!-- Node11 -->
<g id="Node000011" class="node">
<title>Node11</title>
<g id="a_Node000011"><a xlink:title=" ">
<polygon fill="#e0e0e0" stroke="#999999" points="279.5,-19 226.5,-19 226.5,0 279.5,0 279.5,-19"/>
<text text-anchor="middle" x="253" y="-7" font-family="Helvetica,sans-Serif" font-size="10.00">string.h</text>
</a>
</g>
</g>
<!-- Node1&#45;&gt;Node11 -->
<g id="edge30_Node000001_Node000011" class="edge">
<title>Node1&#45;&gt;Node11</title>
<g id="a_edge30_Node000001_Node000011"><a xlink:title=" ">
<path fill="none" stroke="#63b8ff" d="M645.97,-173.18C518.11,-171.22 163.36,-158.16 92,-74 86.54,-67.56 86.89,-61.72 92,-55 107.01,-35.28 173.74,-22.06 216.44,-15.45"/>
<polygon fill="#63b8ff" stroke="#63b8ff" points="217.09,-18.89 226.47,-13.94 216.06,-11.96 217.09,-18.89"/>
</a>
</g>
</g>
<!-- Node15 -->
<g id="Node000015" class="node">
<title>Node15</title>
<g id="a_Node000015"><a xlink:title=" ">
<polygon fill="#e0e0e0" stroke="#999999" points="646.5,-74 559.5,-74 559.5,-55 646.5,-55 646.5,-74"/>
<text text-anchor="middle" x="603" y="-62" font-family="Helvetica,sans-Serif" font-size="10.00">magick/error.h</text>
</a>
</g>
</g>
<!-- Node1&#45;&gt;Node15 -->
<g id="edge21_Node000001_Node000015" class="edge">
<title>Node1&#45;&gt;Node15</title>
<g id="a_edge21_Node000001_Node000015"><a xlink:title=" ">
<path fill="none" stroke="#63b8ff" d="M673.73,-164.92C659.28,-157.3 639.5,-144.92 627,-129 616.65,-115.82 610.39,-97.69 606.87,-84.18"/>
<polygon fill="#63b8ff" stroke="#63b8ff" points="610.21,-83.07 604.54,-74.12 603.39,-84.66 610.21,-83.07"/>
</a>
</g>
</g>
<!-- Node16 -->
<g id="Node000016" class="node">
<title>Node16</title>
<g id="a_Node000016"><a xlink:title=" ">
<polygon fill="#e0e0e0" stroke="#999999" points="759.5,-74 664.5,-74 664.5,-55 759.5,-55 759.5,-74"/>
<text text-anchor="middle" x="712" y="-62" font-family="Helvetica,sans-Serif" font-size="10.00">magick/image.h</text>
</a>
</g>
</g>
<!-- Node1&#45;&gt;Node16 -->
<g id="edge22_Node000001_Node000016" class="edge">
<title>Node1&#45;&gt;Node16</title>
<g id="a_edge22_Node000001_Node000016"><a xlink:title=" ">
<path fill="none" stroke="#63b8ff" d="M673.87,-164.8C652.72,-153.39 622.19,-132.2 635,-110 643.42,-95.41 658.65,-85.17 673.35,-78.23"/>
<polygon fill="#63b8ff" stroke="#63b8ff" points="675.07,-81.3 682.86,-74.13 672.29,-74.87 675.07,-81.3"/>
</a>
</g>
</g>
<!-- Node17 -->
<g id="Node000017" class="node">
<title>Node17</title>
<g id="a_Node000017"><a xlink:title=" ">
<polygon fill="#e0e0e0" stroke="#999999" points="900,-74 778,-74 778,-55 900,-55 900,-74"/>
<text text-anchor="middle" x="839" y="-62" font-family="Helvetica,sans-Serif" font-size="10.00">wand/magick_wand.h</text>
</a>
</g>
</g>
<!-- Node1&#45;&gt;Node17 -->
<g id="edge26_Node000001_Node000017" class="edge">
<title>Node1&#45;&gt;Node17</title>
<g id="a_edge26_Node000001_Node000017"><a xlink:title=" ">
<path fill="none" stroke="#63b8ff" d="M684.08,-164.88C673.09,-151.86 655.96,-126.89 669,-110 681.4,-93.94 726.82,-82.55 767.59,-75.32"/>
<polygon fill="#63b8ff" stroke="#63b8ff" points="768.29,-78.75 777.56,-73.62 767.12,-71.85 768.29,-78.75"/>
</a>
</g>
</g>
<!-- Node18 -->
<g id="Node000018" class="node">
<title>Node18</title>
<g id="a_Node000018"><a xlink:title=" ">
<polygon fill="#e0e0e0" stroke="#999999" points="794.5,-129 677.5,-129 677.5,-110 794.5,-110 794.5,-129"/>
<text text-anchor="middle" x="736" y="-117" font-family="Helvetica,sans-Serif" font-size="10.00">magick/colorspace.h</text>
</a>
</g>
</g>
<!-- Node1&#45;&gt;Node18 -->
<g id="edge18_Node000001_Node000018" class="edge">
<title>Node1&#45;&gt;Node18</title>
<g id="a_edge18_Node000001_Node000018"><a xlink:title=" ">
<path fill="none" stroke="#63b8ff" d="M699.27,-164.75C705.54,-157.18 714.79,-146.05 722.43,-136.84"/>
<polygon fill="#63b8ff" stroke="#63b8ff" points="725.17,-139.02 728.87,-129.09 719.79,-134.55 725.17,-139.02"/>
</a>
</g>
</g>
<!-- Node19 -->
<g id="Node000019" class="node">
<title>Node19</title>
<g id="a_Node000019"><a xlink:title=" ">
<polygon fill="#e0e0e0" stroke="#999999" points="919.5,-129 812.5,-129 812.5,-110 919.5,-110 919.5,-129"/>
<text text-anchor="middle" x="866" y="-117" font-family="Helvetica,sans-Serif" font-size="10.00">magick/common.h</text>
</a>
</g>
</g>
<!-- Node1&#45;&gt;Node19 -->
<g id="edge19_Node000001_Node000019" class="edge">
<title>Node1&#45;&gt;Node19</title>
<g id="a_edge19_Node000001_Node000019"><a xlink:title=" ">
<path fill="none" stroke="#63b8ff" d="M719.96,-164.98C749.3,-156.05 795.6,-141.94 828.19,-132.02"/>
<polygon fill="#63b8ff" stroke="#63b8ff" points="829.28,-135.34 837.82,-129.08 827.24,-128.65 829.28,-135.34"/>
</a>
</g>
</g>
<!-- Node20 -->
<g id="Node000020" class="node">
<title>Node20</title>
<g id="a_Node000020"><a xlink:title=" ">
<polygon fill="#e0e0e0" stroke="#999999" points="1050.5,-129 937.5,-129 937.5,-110 1050.5,-110 1050.5,-129"/>
<text text-anchor="middle" x="994" y="-117" font-family="Helvetica,sans-Serif" font-size="10.00">magick/constitute.h</text>
</a>
</g>
</g>
<!-- Node1&#45;&gt;Node20 -->
<g id="edge20_Node000001_Node000020" class="edge">
<title>Node1&#45;&gt;Node20</title>
<g id="a_edge20_Node000001_Node000020"><a xlink:title=" ">
<path fill="none" stroke="#63b8ff" d="M738.2,-165.39C791.12,-156.11 877.92,-140.87 935.51,-130.76"/>
<polygon fill="#63b8ff" stroke="#63b8ff" points="936.31,-134.18 945.56,-129 935.1,-127.28 936.31,-134.18"/>
</a>
</g>
</g>
<!-- Node21 -->
<g id="Node000021" class="node">
<title>Node21</title>
<g id="a_Node000021"><a xlink:title=" ">
<polygon fill="#e0e0e0" stroke="#999999" points="1169.5,-129 1068.5,-129 1068.5,-110 1169.5,-110 1169.5,-129"/>
<text text-anchor="middle" x="1119" y="-117" font-family="Helvetica,sans-Serif" font-size="10.00">magick/magick.h</text>
</a>
</g>
</g>
<!-- Node1&#45;&gt;Node21 -->
<g id="edge23_Node000001_Node000021" class="edge">
<title>Node1&#45;&gt;Node21</title>
<g id="a_edge23_Node000001_Node000021"><a xlink:title=" ">
<path fill="none" stroke="#63b8ff" d="M738.23,-168.25C806.1,-160.47 936.96,-145.18 1058.27,-129.2"/>
<polygon fill="#63b8ff" stroke="#63b8ff" points="1059.02,-132.64 1068.48,-127.86 1058.11,-125.7 1059.02,-132.64"/>
</a>
</g>
</g>
<!-- Node22 -->
<g id="Node000022" class="node">
<title>Node22</title>
<g id="a_Node000022"><a xlink:title=" ">
<polygon fill="#e0e0e0" stroke="#999999" points="1310,-129 1188,-129 1188,-110 1310,-110 1310,-129"/>
<text text-anchor="middle" x="1249" y="-117" font-family="Helvetica,sans-Serif" font-size="10.00">magick/pixel_cache.h</text>
</a>
</g>
</g>
<!-- Node1&#45;&gt;Node22 -->
<g id="edge24_Node000001_Node000022" class="edge">
<title>Node1&#45;&gt;Node22</title>
<g id="a_edge24_Node000001_Node000022"><a xlink:title=" ">
<path fill="none" stroke="#63b8ff" d="M738.04,-169.75C822.83,-162.75 1009.63,-146.86 1177.9,-129.09"/>
<polygon fill="#63b8ff" stroke="#63b8ff" points="1178.35,-132.56 1187.93,-128.02 1177.62,-125.6 1178.35,-132.56"/>
</a>
</g>
</g>
<!-- Node23 -->
<g id="Node000023" class="node">
<title>Node23</title>
<g id="a_Node000023"><a xlink:title=" ">
<polygon fill="#e0e0e0" stroke="#999999" points="1422,-129 1328,-129 1328,-110 1422,-110 1422,-129"/>
<text text-anchor="middle" x="1375" y="-117" font-family="Helvetica,sans-Serif" font-size="10.00">magick/resize.h</text>
</a>
</g>
</g>
<!-- Node1&#45;&gt;Node23 -->
<g id="edge25_Node000001_Node000023" class="edge">
<title>Node1&#45;&gt;Node23</title>
<g id="a_edge25_Node000001_Node000023"><a xlink:title=" ">
<path fill="none" stroke="#63b8ff" d="M738.13,-171.49C840.49,-166.75 1094.51,-153.5 1317.71,-129.05"/>
<polygon fill="#63b8ff" stroke="#63b8ff" points="1318.43,-132.49 1327.98,-127.91 1317.66,-125.54 1318.43,-132.49"/>
</a>
</g>
</g>
<!-- Node24 -->
<g id="Node000024" class="node">
<title>Node24</title>
<g id="a_Node000024"><a xlink:title=" ">
<polygon fill="#e0e0e0" stroke="#999999" points="1493.5,-129 1440.5,-129 1440.5,-110 1493.5,-110 1493.5,-129"/>
<text text-anchor="middle" x="1467" y="-117" font-family="Helvetica,sans-Serif" font-size="10.00">stdint.h</text>
</a>
</g>
</g>
<!-- Node1&#45;&gt;Node24 -->
<g id="edge27_Node000001_Node000024" class="edge">
<title>Node1&#45;&gt;Node24</title>
<g id="a_edge27_Node000001_Node000024"><a xlink:title=" ">
<path fill="none" stroke="#63b8ff" d="M738.12,-173.46C853.31,-172.79 1162.96,-167.38 1430.08,-128.83"/>
<polygon fill="#63b8ff" stroke="#63b8ff" points="1430.97,-132.24 1440.36,-127.33 1429.96,-125.31 1430.97,-132.24"/>
</a>
</g>
</g>
<!-- Node3 -->
<g id="Node000003" class="node">
<title>Node3</title>
<g id="a_Node000003"><a xlink:href="crc32c_8hpp.html" target="_top" xlink:title="CRC32&#45;Castagnoli header using Hardware&#45;accelerated &amp; Parallel Computation CRC32C intrinsics from ARMv...">
<polygon fill="white" stroke="#666666" points="541.5,-74 472.5,-74 472.5,-55 541.5,-55 541.5,-74"/>
<text text-anchor="middle" x="507" y="-62" font-family="Helvetica,sans-Serif" font-size="10.00">crc32c.hpp</text>
</a>
</g>
</g>
<!-- Node2&#45;&gt;Node3 -->
<g id="edge2_Node000002_Node000003" class="edge">
<title>Node2&#45;&gt;Node3</title>
<g id="a_edge2_Node000002_Node000003"><a xlink:title=" ">
<path fill="none" stroke="#63b8ff" d="M507,-109.75C507,-102.8 507,-92.85 507,-84.13"/>
<polygon fill="#63b8ff" stroke="#63b8ff" points="510.5,-84.09 507,-74.09 503.5,-84.09 510.5,-84.09"/>
</a>
</g>
</g>
<!-- Node8 -->
<g id="Node000008" class="node">
<title>Node8</title>
<g id="a_Node000008"><a xlink:href="reed__solomon_8hpp.html" target="_top" xlink:title=" ">
<polygon fill="white" stroke="#666666" points="454.5,-74 347.5,-74 347.5,-55 454.5,-55 454.5,-74"/>
<text text-anchor="middle" x="401" y="-62" font-family="Helvetica,sans-Serif" font-size="10.00">reed_solomon.hpp</text>
</a>
</g>
</g>
<!-- Node2&#45;&gt;Node8 -->
<g id="edge7_Node000002_Node000008" class="edge">
<title>Node2&#45;&gt;Node8</title>
<g id="a_edge7_Node000002_Node000008"><a xlink:title=" ">
<path fill="none" stroke="#63b8ff" d="M489.97,-109.98C473.07,-101.54 446.94,-88.47 427.36,-78.68"/>
<polygon fill="#63b8ff" stroke="#63b8ff" points="428.85,-75.51 418.34,-74.17 425.72,-81.77 428.85,-75.51"/>
</a>
</g>
</g>
<!-- Node13 -->
<g id="Node000013" class="node">
<title>Node13</title>
<g id="a_Node000013"><a xlink:href="canonical__huffman_8hpp.html" target="_top" xlink:title=" ">
<polygon fill="white" stroke="#666666" points="231,-74 101,-74 101,-55 231,-55 231,-74"/>
<text text-anchor="middle" x="166" y="-62" font-family="Helvetica,sans-Serif" font-size="10.00">canonical_huffman.hpp</text>
</a>
</g>
</g>
<!-- Node2&#45;&gt;Node13 -->
<g id="edge13_Node000002_Node000013" class="edge">
<title>Node2&#45;&gt;Node13</title>
<g id="a_edge13_Node000002_Node000013"><a xlink:title=" ">
<path fill="none" stroke="#63b8ff" d="M468.88,-112.57C411.23,-103.61 301.16,-86.51 230.79,-75.57"/>
<polygon fill="#63b8ff" stroke="#63b8ff" points="231.12,-72.08 220.7,-74 230.05,-79 231.12,-72.08"/>
</a>
</g>
</g>
<!-- Node14 -->
<g id="Node000014" class="node">
<title>Node14</title>
<g id="a_Node000014"><a xlink:title=" ">
<polygon fill="#e0e0e0" stroke="#999999" points="329,-74 249,-74 249,-55 329,-55 329,-74"/>
<text text-anchor="middle" x="289" y="-62" font-family="Helvetica,sans-Serif" font-size="10.00">magick/api.h</text>
</a>
</g>
</g>
<!-- Node2&#45;&gt;Node14 -->
<g id="edge14_Node000002_Node000014" class="edge">
<title>Node2&#45;&gt;Node14</title>
<g id="a_edge14_Node000002_Node000014"><a xlink:title=" ">
<path fill="none" stroke="#63b8ff" d="M471.97,-109.98C434.5,-100.87 374.95,-86.4 334.02,-76.45"/>
<polygon fill="#63b8ff" stroke="#63b8ff" points="334.84,-73.04 324.3,-74.08 333.19,-79.85 334.84,-73.04"/>
</a>
</g>
</g>
<!-- Node2&#45;&gt;Node15 -->
<g id="edge15_Node000002_Node000015" class="edge">
<title>Node2&#45;&gt;Node15</title>
<g id="a_edge15_Node000002_Node000015"><a xlink:title=" ">
<path fill="none" stroke="#63b8ff" d="M522.42,-109.98C537.45,-101.69 560.54,-88.94 578.16,-79.22"/>
<polygon fill="#63b8ff" stroke="#63b8ff" points="580.23,-82.07 587.3,-74.17 576.85,-75.94 580.23,-82.07"/>
</a>
</g>
</g>
<!-- Node2&#45;&gt;Node16 -->
<g id="edge16_Node000002_Node000016" class="edge">
<title>Node2&#45;&gt;Node16</title>
<g id="a_edge16_Node000002_Node000016"><a xlink:title=" ">
<path fill="none" stroke="#63b8ff" d="M539.94,-109.98C574.95,-100.93 630.47,-86.58 668.93,-76.64"/>
<polygon fill="#63b8ff" stroke="#63b8ff" points="670,-79.97 678.81,-74.08 668.25,-73.2 670,-79.97"/>
</a>
</g>
</g>
<!-- Node2&#45;&gt;Node17 -->
<g id="edge17_Node000002_Node000017" class="edge">
<title>Node2&#45;&gt;Node17</title>
<g id="a_edge17_Node000002_Node000017"><a xlink:title=" ">
<path fill="none" stroke="#63b8ff" d="M545.08,-112.42C601.3,-103.45 707.18,-86.54 775.33,-75.66"/>
<polygon fill="#63b8ff" stroke="#63b8ff" points="776.19,-79.07 785.51,-74.04 775.09,-72.16 776.19,-79.07"/>
</a>
</g>
</g>
<!-- Node4 -->
<g id="Node000004" class="node">
<title>Node4</title>
<g id="a_Node000004"><a xlink:title=" ">
<polygon fill="#e0e0e0" stroke="#999999" points="528.5,-19 457.5,-19 457.5,0 528.5,0 528.5,-19"/>
<text text-anchor="middle" x="493" y="-7" font-family="Helvetica,sans-Serif" font-size="10.00">arm_acle.h</text>
</a>
</g>
</g>
<!-- Node3&#45;&gt;Node4 -->
<g id="edge3_Node000003_Node000004" class="edge">
<title>Node3&#45;&gt;Node4</title>
<g id="a_edge3_Node000003_Node000004"><a xlink:title=" ">
<path fill="none" stroke="#63b8ff" d="M504.69,-54.75C502.83,-47.72 500.16,-37.62 497.85,-28.84"/>
<polygon fill="#63b8ff" stroke="#63b8ff" points="501.21,-27.86 495.27,-19.09 494.44,-29.65 501.21,-27.86"/>
</a>
</g>
</g>
<!-- Node5 -->
<g id="Node000005" class="node">
<title>Node5</title>
<g id="a_Node000005"><a xlink:title=" ">
<polygon fill="#e0e0e0" stroke="#999999" points="599.5,-19 546.5,-19 546.5,0 599.5,0 599.5,-19"/>
<text text-anchor="middle" x="573" y="-7" font-family="Helvetica,sans-Serif" font-size="10.00">cstddef</text>
</a>
</g>
</g>
<!-- Node3&#45;&gt;Node5 -->
<g id="edge4_Node000003_Node000005" class="edge">
<title>Node3&#45;&gt;Node5</title>
<g id="a_edge4_Node000003_Node000005"><a xlink:title=" ">
<path fill="none" stroke="#63b8ff" d="M517.6,-54.98C527.46,-47.07 542.35,-35.11 554.22,-25.58"/>
<polygon fill="#63b8ff" stroke="#63b8ff" points="556.6,-28.16 562.2,-19.17 552.21,-22.7 556.6,-28.16"/>
</a>
</g>
</g>
<!-- Node6 -->
<g id="Node000006" class="node">
<title>Node6</title>
<g id="a_Node000006"><a xlink:title=" ">
<polygon fill="#e0e0e0" stroke="#999999" points="439,-19 389,-19 389,0 439,0 439,-19"/>
<text text-anchor="middle" x="414" y="-7" font-family="Helvetica,sans-Serif" font-size="10.00">cstdint</text>
</a>
</g>
</g>
<!-- Node3&#45;&gt;Node6 -->
<g id="edge5_Node000003_Node000006" class="edge">
<title>Node3&#45;&gt;Node6</title>
<g id="a_edge5_Node000003_Node000006"><a xlink:title=" ">
<path fill="none" stroke="#63b8ff" d="M492.06,-54.98C477.5,-46.69 455.13,-33.94 438.07,-24.22"/>
<polygon fill="#63b8ff" stroke="#63b8ff" points="439.64,-21.08 429.21,-19.17 436.17,-27.16 439.64,-21.08"/>
</a>
</g>
</g>
<!-- Node7 -->
<g id="Node000007" class="node">
<title>Node7</title>
<g id="a_Node000007"><a xlink:title=" ">
<polygon fill="#e0e0e0" stroke="#999999" points="656.5,-19 617.5,-19 617.5,0 656.5,0 656.5,-19"/>
<text text-anchor="middle" x="637" y="-7" font-family="Helvetica,sans-Serif" font-size="10.00">print</text>
</a>
</g>
</g>
<!-- Node3&#45;&gt;Node7 -->
<g id="edge6_Node000003_Node000007" class="edge">
<title>Node3&#45;&gt;Node7</title>
<g id="a_edge6_Node000003_Node000007"><a xlink:title=" ">
<path fill="none" stroke="#63b8ff" d="M527.89,-54.98C549.59,-46.14 583.71,-32.23 608.01,-22.32"/>
<polygon fill="#63b8ff" stroke="#63b8ff" points="609.5,-25.49 617.44,-18.47 606.86,-19.01 609.5,-25.49"/>
</a>
</g>
</g>
<!-- Node8&#45;&gt;Node6 -->
<g id="edge8_Node000008_Node000006" class="edge">
<title>Node8&#45;&gt;Node6</title>
<g id="a_edge8_Node000008_Node000006"><a xlink:title=" ">
<path fill="none" stroke="#63b8ff" d="M403.15,-54.75C404.87,-47.72 407.35,-37.62 409.5,-28.84"/>
<polygon fill="#63b8ff" stroke="#63b8ff" points="412.91,-29.63 411.89,-19.09 406.11,-27.97 412.91,-29.63"/>
</a>
</g>
</g>
<!-- Node8&#45;&gt;Node9 -->
<g id="edge9_Node000008_Node000009" class="edge">
<title>Node8&#45;&gt;Node9</title>
<g id="a_edge9_Node000008_Node000009"><a xlink:title=" ">
<path fill="none" stroke="#63b8ff" d="M347.13,-55.91C269.03,-44.9 126.51,-24.81 60.41,-15.49"/>
<polygon fill="#63b8ff" stroke="#63b8ff" points="60.49,-11.97 50.1,-14.04 59.52,-18.9 60.49,-11.97"/>
</a>
</g>
</g>
<!-- Node8&#45;&gt;Node10 -->
<g id="edge10_Node000008_Node000010" class="edge">
<title>Node8&#45;&gt;Node10</title>
<g id="a_edge10_Node000008_Node000010"><a xlink:title=" ">
<path fill="none" stroke="#63b8ff" d="M361.15,-54.98C313.8,-44.86 235.45,-28.12 189.58,-18.32"/>
<polygon fill="#63b8ff" stroke="#63b8ff" points="190.26,-14.88 179.75,-16.22 188.8,-21.73 190.26,-14.88"/>
</a>
</g>
</g>
<!-- Node8&#45;&gt;Node11 -->
<g id="edge11_Node000008_Node000011" class="edge">
<title>Node8&#45;&gt;Node11</title>
<g id="a_edge11_Node000008_Node000011"><a xlink:title=" ">
<path fill="none" stroke="#63b8ff" d="M377.22,-54.98C352.77,-46.23 314.47,-32.51 286.85,-22.62"/>
<polygon fill="#63b8ff" stroke="#63b8ff" points="287.81,-19.25 277.21,-19.17 285.45,-25.84 287.81,-19.25"/>
</a>
</g>
</g>
<!-- Node12 -->
<g id="Node000012" class="node">
<title>Node12</title>
<g id="a_Node000012"><a xlink:title=" ">
<polygon fill="#e0e0e0" stroke="#999999" points="370.5,-19 311.5,-19 311.5,0 370.5,0 370.5,-19"/>
<text text-anchor="middle" x="341" y="-7" font-family="Helvetica,sans-Serif" font-size="10.00">correct.h</text>
</a>
</g>
</g>
<!-- Node8&#45;&gt;Node12 -->
<g id="edge12_Node000008_Node000012" class="edge">
<title>Node8&#45;&gt;Node12</title>
<g id="a_edge12_Node000008_Node000012"><a xlink:title=" ">
<path fill="none" stroke="#63b8ff" d="M391.36,-54.98C382.49,-47.15 369.13,-35.34 358.39,-25.86"/>
<polygon fill="#63b8ff" stroke="#63b8ff" points="360.63,-23.17 350.82,-19.17 355.99,-28.41 360.63,-23.17"/>
</a>
</g>
</g>
</g>
</svg>
