<?xml version="1.0" encoding="UTF-8" standalone="no"?>
<!DOCTYPE svg PUBLIC "-//W3C//DTD SVG 1.1//EN"
 "http://www.w3.org/Graphics/SVG/1.1/DTD/svg11.dtd">
<!-- Generated by graphviz version 2.43.0 (0)
 -->
<!-- Title: Magick::Color::operator= Pages: 1 -->
<svg width="347pt" height="439pt"
 viewBox="0.00 0.00 347.00 439.00" xmlns="http://www.w3.org/2000/svg" xmlns:xlink="http://www.w3.org/1999/xlink">
<g id="graph0" class="graph" transform="scale(1 1) rotate(0) translate(4 435)">
<title>Magick::Color::operator=</title>
<!-- Node1 -->
<g id="Node000001" class="node">
<title>Node1</title>
<g id="a_Node000001"><a xlink:title=" ">
<polygon fill="#999999" stroke="#666666" points="339,-211.5 200,-211.5 200,-192.5 339,-192.5 339,-211.5"/>
<text text-anchor="middle" x="269.5" y="-199.5" font-family="Helvetica,sans-Serif" font-size="10.00">Magick::Color::operator=</text>
</a>
</g>
</g>
<!-- Node2 -->
<g id="Node000002" class="node">
<title>Node2</title>
<g id="a_Node000002"><a xlink:href="classMagick_1_1Montage.html#a6879b71728ca9da2f503e08b1df69e2f" target="_top" xlink:title=" ">
<polygon fill="white" stroke="#666666" points="164,-431 0,-431 0,-401 164,-401 164,-431"/>
<text text-anchor="start" x="8" y="-419" font-family="Helvetica,sans-Serif" font-size="10.00">Magick::Montage::background</text>
<text text-anchor="middle" x="82" y="-408" font-family="Helvetica,sans-Serif" font-size="10.00">Color</text>
</a>
</g>
</g>
<!-- Node1&#45;&gt;Node2 -->
<g id="edge1_Node000001_Node000002" class="edge">
<title>Node1&#45;&gt;Node2</title>
<g id="a_edge1_Node000001_Node000002"><a xlink:title=" ">
<path fill="none" stroke="#63b8ff" d="M263.23,-221.51C251.81,-260.02 221.11,-346.01 164,-392 159.77,-395.4 155.08,-398.33 150.13,-400.83"/>
<polygon fill="#63b8ff" stroke="#63b8ff" points="266.68,-222.16 266.05,-211.58 259.95,-220.24 266.68,-222.16"/>
</a>
</g>
</g>
<!-- Node3 -->
<g id="Node000003" class="node">
<title>Node3</title>
<g id="a_Node000003"><a xlink:href="classMagick_1_1MontageFramed.html#a62bfa1b4b1927c4e99cc0a908bc19db1" target="_top" xlink:title=" ">
<polygon fill="white" stroke="#666666" points="150.5,-383 13.5,-383 13.5,-353 150.5,-353 150.5,-383"/>
<text text-anchor="start" x="21.5" y="-371" font-family="Helvetica,sans-Serif" font-size="10.00">Magick::MontageFramed</text>
<text text-anchor="middle" x="82" y="-360" font-family="Helvetica,sans-Serif" font-size="10.00">::borderColor</text>
</a>
</g>
</g>
<!-- Node1&#45;&gt;Node3 -->
<g id="edge2_Node000001_Node000003" class="edge">
<title>Node1&#45;&gt;Node3</title>
<g id="a_edge2_Node000001_Node000003"><a xlink:title=" ">
<path fill="none" stroke="#63b8ff" d="M259.78,-220.72C244.64,-251.16 210.59,-311.29 164,-344 159.08,-347.46 153.66,-350.42 148.02,-352.96"/>
<polygon fill="#63b8ff" stroke="#63b8ff" points="262.98,-222.14 264.18,-211.61 256.68,-219.09 262.98,-222.14"/>
</a>
</g>
</g>
<!-- Node4 -->
<g id="Node000004" class="node">
<title>Node4</title>
<g id="a_Node000004"><a xlink:href="classMagick_1_1DrawableFillColor.html#a6e973a3eac7ebe1fe82d82b0db9a440c" target="_top" xlink:title=" ">
<polygon fill="white" stroke="#666666" points="154,-335 10,-335 10,-305 154,-305 154,-335"/>
<text text-anchor="start" x="18" y="-323" font-family="Helvetica,sans-Serif" font-size="10.00">Magick::DrawableFillColor</text>
<text text-anchor="middle" x="82" y="-312" font-family="Helvetica,sans-Serif" font-size="10.00">::color</text>
</a>
</g>
</g>
<!-- Node1&#45;&gt;Node4 -->
<g id="edge3_Node000001_Node000004" class="edge">
<title>Node1&#45;&gt;Node4</title>
<g id="a_edge3_Node000001_Node000004"><a xlink:title=" ">
<path fill="none" stroke="#63b8ff" d="M254.01,-219.04C235.27,-240.05 200.66,-275.48 164,-296 157.98,-299.37 151.45,-302.31 144.78,-304.86"/>
<polygon fill="#63b8ff" stroke="#63b8ff" points="256.65,-221.34 260.6,-211.51 251.38,-216.73 256.65,-221.34"/>
</a>
</g>
</g>
<!-- Node5 -->
<g id="Node000005" class="node">
<title>Node5</title>
<g id="a_Node000005"><a xlink:href="classMagick_1_1DrawableStrokeColor.html#a7b622a9744dfed8f33bc30acf9be24a3" target="_top" xlink:title=" ">
<polygon fill="white" stroke="#666666" points="162.5,-287 1.5,-287 1.5,-257 162.5,-257 162.5,-287"/>
<text text-anchor="start" x="9.5" y="-275" font-family="Helvetica,sans-Serif" font-size="10.00">Magick::DrawableStrokeColor</text>
<text text-anchor="middle" x="82" y="-264" font-family="Helvetica,sans-Serif" font-size="10.00">::color</text>
</a>
</g>
</g>
<!-- Node1&#45;&gt;Node5 -->
<g id="edge4_Node000001_Node000005" class="edge">
<title>Node1&#45;&gt;Node5</title>
<g id="a_edge4_Node000001_Node000005"><a xlink:title=" ">
<path fill="none" stroke="#63b8ff" d="M239.56,-215.92C218.8,-225.61 190.03,-238.46 164,-248 155.46,-251.13 146.31,-254.15 137.34,-256.93"/>
<polygon fill="#63b8ff" stroke="#63b8ff" points="241.22,-219.01 248.77,-211.58 238.24,-212.68 241.22,-219.01"/>
</a>
</g>
</g>
<!-- Node6 -->
<g id="Node000006" class="node">
<title>Node6</title>
<g id="a_Node000006"><a xlink:href="classMagick_1_1DrawableTextUnderColor.html#ac57dfeda5cd1b26e7d69cf4a8019833e" target="_top" xlink:title=" ">
<polygon fill="white" stroke="#666666" points="159,-239 5,-239 5,-209 159,-209 159,-239"/>
<text text-anchor="start" x="13" y="-227" font-family="Helvetica,sans-Serif" font-size="10.00">Magick::DrawableTextUnder</text>
<text text-anchor="middle" x="82" y="-216" font-family="Helvetica,sans-Serif" font-size="10.00">Color::color</text>
</a>
</g>
</g>
<!-- Node1&#45;&gt;Node6 -->
<g id="edge5_Node000001_Node000006" class="edge">
<title>Node1&#45;&gt;Node6</title>
<g id="a_edge5_Node000001_Node000006"><a xlink:title=" ">
<path fill="none" stroke="#63b8ff" d="M189.85,-211.33C179.66,-212.54 169.23,-213.77 159.07,-214.98"/>
<polygon fill="#63b8ff" stroke="#63b8ff" points="190.44,-214.78 199.95,-210.13 189.61,-207.83 190.44,-214.78"/>
</a>
</g>
</g>
<!-- Node7 -->
<g id="Node000007" class="node">
<title>Node7</title>
<g id="a_Node000007"><a xlink:href="classMagick_1_1Montage.html#a717233f38b7fe9f9ee57a6dba6c89ff4" target="_top" xlink:title=" ">
<polygon fill="white" stroke="#666666" points="154,-190.5 10,-190.5 10,-171.5 154,-171.5 154,-190.5"/>
<text text-anchor="middle" x="82" y="-178.5" font-family="Helvetica,sans-Serif" font-size="10.00">Magick::Montage::fillColor</text>
</a>
</g>
</g>
<!-- Node1&#45;&gt;Node7 -->
<g id="edge6_Node000001_Node000007" class="edge">
<title>Node1&#45;&gt;Node7</title>
<g id="a_edge6_Node000001_Node000007"><a xlink:title=" ">
<path fill="none" stroke="#63b8ff" d="M189.66,-193.08C177.84,-191.74 165.71,-190.36 154.06,-189.04"/>
<polygon fill="#63b8ff" stroke="#63b8ff" points="189.62,-196.59 199.95,-194.24 190.41,-189.64 189.62,-196.59"/>
</a>
</g>
</g>
<!-- Node8 -->
<g id="Node000008" class="node">
<title>Node8</title>
<g id="a_Node000008"><a xlink:href="classMagick_1_1MontageFramed.html#a2042f5372987b62e42b4ba040349348a" target="_top" xlink:title=" ">
<polygon fill="white" stroke="#666666" points="150.5,-153 13.5,-153 13.5,-123 150.5,-123 150.5,-153"/>
<text text-anchor="start" x="21.5" y="-141" font-family="Helvetica,sans-Serif" font-size="10.00">Magick::MontageFramed</text>
<text text-anchor="middle" x="82" y="-130" font-family="Helvetica,sans-Serif" font-size="10.00">::matteColor</text>
</a>
</g>
</g>
<!-- Node1&#45;&gt;Node8 -->
<g id="edge7_Node000001_Node000008" class="edge">
<title>Node1&#45;&gt;Node8</title>
<g id="a_edge7_Node000001_Node000008"><a xlink:title=" ">
<path fill="none" stroke="#63b8ff" d="M234.68,-188.81C214.31,-181.01 187.79,-171.1 164,-163 154.11,-159.63 143.47,-156.21 133.27,-153.02"/>
<polygon fill="#63b8ff" stroke="#63b8ff" points="233.56,-192.13 244.15,-192.46 236.08,-185.6 233.56,-192.13"/>
</a>
</g>
</g>
<!-- Node9 -->
<g id="Node000009" class="node">
<title>Node9</title>
<g id="a_Node000009"><a xlink:href="classMagick_1_1Montage.html#aeac3736523f0cfc4321dde69dc1c2b8e" target="_top" xlink:title=" ">
<polygon fill="white" stroke="#666666" points="157,-104.5 7,-104.5 7,-85.5 157,-85.5 157,-104.5"/>
<text text-anchor="middle" x="82" y="-92.5" font-family="Helvetica,sans-Serif" font-size="10.00">Magick::Montage::penColor</text>
</a>
</g>
</g>
<!-- Node1&#45;&gt;Node9 -->
<g id="edge8_Node000001_Node000009" class="edge">
<title>Node1&#45;&gt;Node9</title>
<g id="a_edge8_Node000001_Node000009"><a xlink:title=" ">
<path fill="none" stroke="#63b8ff" d="M253.12,-184.87C234.15,-164.81 199.96,-132.05 164,-114 156.25,-110.11 147.69,-107 139.12,-104.52"/>
<polygon fill="#63b8ff" stroke="#63b8ff" points="250.7,-187.41 260.06,-192.37 255.83,-182.65 250.7,-187.41"/>
</a>
</g>
</g>
<!-- Node10 -->
<g id="Node000010" class="node">
<title>Node10</title>
<g id="a_Node000010"><a xlink:href="classMagick_1_1Montage.html#ae6ebf9d7ea8123d61e295453f7c4897b" target="_top" xlink:title=" ">
<polygon fill="white" stroke="#666666" points="163,-67.5 1,-67.5 1,-48.5 163,-48.5 163,-67.5"/>
<text text-anchor="middle" x="82" y="-55.5" font-family="Helvetica,sans-Serif" font-size="10.00">Magick::Montage::strokeColor</text>
</a>
</g>
</g>
<!-- Node1&#45;&gt;Node10 -->
<g id="edge9_Node000001_Node000010" class="edge">
<title>Node1&#45;&gt;Node10</title>
<g id="a_edge9_Node000001_Node000010"><a xlink:title=" ">
<path fill="none" stroke="#63b8ff" d="M258.25,-183.33C242.03,-155.62 207.75,-103.97 164,-77 157.73,-73.13 150.74,-70.05 143.57,-67.6"/>
<polygon fill="#63b8ff" stroke="#63b8ff" points="255.41,-185.41 263.4,-192.37 261.49,-181.95 255.41,-185.41"/>
</a>
</g>
</g>
<!-- Node11 -->
<g id="Node000011" class="node">
<title>Node11</title>
<g id="a_Node000011"><a xlink:href="classMagick_1_1Montage.html#a60c868c7dcbd1874e123b7be5aa64ab2" target="_top" xlink:title=" ">
<polygon fill="white" stroke="#666666" points="163.5,-30 0.5,-30 0.5,0 163.5,0 163.5,-30"/>
<text text-anchor="start" x="8.5" y="-18" font-family="Helvetica,sans-Serif" font-size="10.00">Magick::Montage::transparent</text>
<text text-anchor="middle" x="82" y="-7" font-family="Helvetica,sans-Serif" font-size="10.00">Color</text>
</a>
</g>
</g>
<!-- Node1&#45;&gt;Node11 -->
<g id="edge10_Node000001_Node000011" class="edge">
<title>Node1&#45;&gt;Node11</title>
<g id="a_edge10_Node000001_Node000011"><a xlink:title=" ">
<path fill="none" stroke="#63b8ff" d="M261.24,-182.64C247.52,-148.67 214.54,-78.31 164,-40 158.96,-36.18 153.32,-32.93 147.44,-30.18"/>
<polygon fill="#63b8ff" stroke="#63b8ff" points="258.12,-184.26 265.02,-192.3 264.64,-181.71 258.12,-184.26"/>
</a>
</g>
</g>
</g>
</svg>
