<?xml version="1.0" encoding="UTF-8" standalone="no"?>
<!DOCTYPE svg PUBLIC "-//W3C//DTD SVG 1.1//EN"
 "http://www.w3.org/Graphics/SVG/1.1/DTD/svg11.dtd">
<!-- Generated by graphviz version 2.43.0 (0)
 -->
<!-- Title: cxxopts::OptionValue::parse Pages: 1 -->
<svg width="845pt" height="60pt"
 viewBox="0.00 0.00 845.00 60.00" xmlns="http://www.w3.org/2000/svg" xmlns:xlink="http://www.w3.org/1999/xlink">
<g id="graph0" class="graph" transform="scale(1 1) rotate(0) translate(4 56)">
<title>cxxopts::OptionValue::parse</title>
<!-- Node1 -->
<g id="Node000001" class="node">
<title>Node1</title>
<g id="a_Node000001"><a xlink:title=" ">
<polygon fill="#999999" stroke="#666666" points="837,-30 718,-30 718,0 837,0 837,-30"/>
<text text-anchor="start" x="726" y="-18" font-family="Helvetica,sans-Serif" font-size="10.00">cxxopts::OptionValue</text>
<text text-anchor="middle" x="777.5" y="-7" font-family="Helvetica,sans-Serif" font-size="10.00">::parse</text>
</a>
</g>
</g>
<!-- Node2 -->
<g id="Node000002" class="node">
<title>Node2</title>
<g id="a_Node000002"><a xlink:href="classcxxopts_1_1OptionParser.html#a07db7b6bb2095df7b75b50ed2311ffe5" target="_top" xlink:title=" ">
<polygon fill="white" stroke="#666666" points="682,-30 560,-30 560,0 682,0 682,-30"/>
<text text-anchor="start" x="568" y="-18" font-family="Helvetica,sans-Serif" font-size="10.00">cxxopts::OptionParser</text>
<text text-anchor="middle" x="621" y="-7" font-family="Helvetica,sans-Serif" font-size="10.00">::parse_option</text>
</a>
</g>
</g>
<!-- Node1&#45;&gt;Node2 -->
<g id="edge1_Node000001_Node000002" class="edge">
<title>Node1&#45;&gt;Node2</title>
<g id="a_edge1_Node000001_Node000002"><a xlink:title=" ">
<path fill="none" stroke="#63b8ff" d="M707.47,-15C699.05,-15 690.5,-15 682.22,-15"/>
<polygon fill="#63b8ff" stroke="#63b8ff" points="707.65,-18.5 717.65,-15 707.65,-11.5 707.65,-18.5"/>
</a>
</g>
</g>
<!-- Node3 -->
<g id="Node000003" class="node">
<title>Node3</title>
<g id="a_Node000003"><a xlink:href="classcxxopts_1_1OptionParser.html#a0c093ba32746de7c3b08715eab961aff" target="_top" xlink:title=" ">
<polygon fill="white" stroke="#666666" points="524,-52 402,-52 402,-22 524,-22 524,-52"/>
<text text-anchor="start" x="410" y="-40" font-family="Helvetica,sans-Serif" font-size="10.00">cxxopts::OptionParser</text>
<text text-anchor="middle" x="463" y="-29" font-family="Helvetica,sans-Serif" font-size="10.00">::checked_parse_arg</text>
</a>
</g>
</g>
<!-- Node2&#45;&gt;Node3 -->
<g id="edge2_Node000002_Node000003" class="edge">
<title>Node2&#45;&gt;Node3</title>
<g id="a_edge2_Node000002_Node000003"><a xlink:title=" ">
<path fill="none" stroke="#63b8ff" d="M549.74,-24.91C541.2,-26.11 532.53,-27.34 524.15,-28.52"/>
<polygon fill="#63b8ff" stroke="#63b8ff" points="550.27,-28.37 559.69,-23.51 549.3,-21.44 550.27,-28.37"/>
</a>
</g>
</g>
<!-- Node4 -->
<g id="Node000004" class="node">
<title>Node4</title>
<g id="a_Node000004"><a xlink:href="classcxxopts_1_1OptionParser.html#a4218816ce33c211b54acb9e71603ea0b" target="_top" xlink:title=" ">
<polygon fill="white" stroke="#666666" points="366,-30 244,-30 244,0 366,0 366,-30"/>
<text text-anchor="start" x="252" y="-18" font-family="Helvetica,sans-Serif" font-size="10.00">cxxopts::OptionParser</text>
<text text-anchor="middle" x="305" y="-7" font-family="Helvetica,sans-Serif" font-size="10.00">::parse</text>
</a>
</g>
</g>
<!-- Node2&#45;&gt;Node4 -->
<g id="edge6_Node000002_Node000004" class="edge">
<title>Node2&#45;&gt;Node4</title>
<g id="a_edge6_Node000002_Node000004"><a xlink:title=" ">
<path fill="none" stroke="#63b8ff" d="M549.72,-13.37C541.06,-13.22 532.33,-13.09 524,-13 469.78,-12.44 456.22,-12.44 402,-13 390.41,-13.12 378.04,-13.32 366.17,-13.55"/>
<polygon fill="#63b8ff" stroke="#63b8ff" points="549.77,-16.87 559.83,-13.55 549.9,-9.87 549.77,-16.87"/>
</a>
</g>
</g>
<!-- Node3&#45;&gt;Node4 -->
<g id="edge3_Node000003_Node000004" class="edge">
<title>Node3&#45;&gt;Node4</title>
<g id="a_edge3_Node000003_Node000004"><a xlink:title=" ">
<path fill="none" stroke="#63b8ff" d="M391.74,-27.09C383.2,-25.89 374.53,-24.66 366.15,-23.48"/>
<polygon fill="#63b8ff" stroke="#63b8ff" points="391.3,-30.56 401.69,-28.49 392.27,-23.63 391.3,-30.56"/>
</a>
</g>
</g>
<!-- Node5 -->
<g id="Node000005" class="node">
<title>Node5</title>
<g id="a_Node000005"><a xlink:href="classcxxopts_1_1Options.html#a3e740564cc4c991078f1451e1fcd082b" target="_top" xlink:title=" ">
<polygon fill="white" stroke="#666666" points="208,-24.5 77,-24.5 77,-5.5 208,-5.5 208,-24.5"/>
<text text-anchor="middle" x="142.5" y="-12.5" font-family="Helvetica,sans-Serif" font-size="10.00">cxxopts::Options::parse</text>
</a>
</g>
</g>
<!-- Node4&#45;&gt;Node5 -->
<g id="edge4_Node000004_Node000005" class="edge">
<title>Node4&#45;&gt;Node5</title>
<g id="a_edge4_Node000004_Node000005"><a xlink:title=" ">
<path fill="none" stroke="#63b8ff" d="M233.55,-15C225.08,-15 216.47,-15 208.09,-15"/>
<polygon fill="#63b8ff" stroke="#63b8ff" points="233.78,-18.5 243.78,-15 233.78,-11.5 233.78,-18.5"/>
</a>
</g>
</g>
<!-- Node6 -->
<g id="Node000006" class="node">
<title>Node6</title>
<g id="a_Node000006"><a xlink:href="transmitter-normal_8cpp.html#a3c04138a5bfe5d72780bb7e82a18e627" target="_top" xlink:title=" ">
<polygon fill="white" stroke="#666666" points="41,-24.5 0,-24.5 0,-5.5 41,-5.5 41,-24.5"/>
<text text-anchor="middle" x="20.5" y="-12.5" font-family="Helvetica,sans-Serif" font-size="10.00">main</text>
</a>
</g>
</g>
<!-- Node5&#45;&gt;Node6 -->
<g id="edge5_Node000005_Node000006" class="edge">
<title>Node5&#45;&gt;Node6</title>
<g id="a_edge5_Node000005_Node000006"><a xlink:title=" ">
<path fill="none" stroke="#63b8ff" d="M66.91,-15C57.43,-15 48.46,-15 41.05,-15"/>
<polygon fill="#63b8ff" stroke="#63b8ff" points="66.93,-18.5 76.93,-15 66.93,-11.5 66.93,-18.5"/>
</a>
</g>
</g>
</g>
</svg>
