<?xml version="1.0" encoding="UTF-8" standalone="no"?>
<!DOCTYPE svg PUBLIC "-//W3C//DTD SVG 1.1//EN"
 "http://www.w3.org/Graphics/SVG/1.1/DTD/svg11.dtd">
<!-- Generated by graphviz version 2.43.0 (0)
 -->
<!-- Title: detail::bigint::square Pages: 1 -->
<svg width="769pt" height="237pt"
 viewBox="0.00 0.00 769.00 236.50" xmlns="http://www.w3.org/2000/svg" xmlns:xlink="http://www.w3.org/1999/xlink">
<g id="graph0" class="graph" transform="scale(1 1) rotate(0) translate(4 232.5)">
<title>detail::bigint::square</title>
<!-- Node1 -->
<g id="Node000001" class="node">
<title>Node1</title>
<g id="a_Node000001"><a xlink:title=" ">
<polygon fill="#999999" stroke="#666666" points="117,-106 0,-106 0,-87 117,-87 117,-106"/>
<text text-anchor="middle" x="58.5" y="-94" font-family="Helvetica,sans-Serif" font-size="10.00">detail::bigint::square</text>
</a>
</g>
</g>
<!-- Node2 -->
<g id="Node000002" class="node">
<title>Node2</title>
<g id="a_Node000002"><a xlink:href="classbasic__memory__buffer.html#ade18cff12fc914085665a07af2e8fb7b" target="_top" xlink:title=" ">
<polygon fill="white" stroke="#666666" points="281,-214.5 153,-214.5 153,-184.5 281,-184.5 281,-214.5"/>
<text text-anchor="start" x="161" y="-202.5" font-family="Helvetica,sans-Serif" font-size="10.00">basic_memory_buffer</text>
<text text-anchor="middle" x="217" y="-191.5" font-family="Helvetica,sans-Serif" font-size="10.00">::basic_memory_buffer</text>
</a>
</g>
</g>
<!-- Node1&#45;&gt;Node2 -->
<g id="edge1_Node000001_Node000002" class="edge">
<title>Node1&#45;&gt;Node2</title>
<g id="a_edge1_Node000001_Node000002"><a xlink:title=" ">
<path fill="none" stroke="#63b8ff" d="M68.76,-106.22C84.66,-122.47 118.77,-155.32 153,-175.5 155.77,-177.13 158.68,-178.7 161.65,-180.18"/>
<polygon fill="#63b8ff" stroke="#63b8ff" points="160.19,-183.36 170.73,-184.39 163.13,-177.01 160.19,-183.36"/>
</a>
</g>
</g>
<!-- Node9 -->
<g id="Node000009" class="node">
<title>Node9</title>
<g id="a_Node000009"><a xlink:href="namespacedetail.html#a292167eeff94d5a8f0598b0d19d15069" target="_top" xlink:title=" ">
<polygon fill="white" stroke="#666666" points="264.5,-166 169.5,-166 169.5,-147 264.5,-147 264.5,-166"/>
<text text-anchor="middle" x="217" y="-154" font-family="Helvetica,sans-Serif" font-size="10.00">detail::num_bits</text>
</a>
</g>
</g>
<!-- Node1&#45;&gt;Node9 -->
<g id="edge8_Node000001_Node000009" class="edge">
<title>Node1&#45;&gt;Node9</title>
<g id="a_edge8_Node000001_Node000009"><a xlink:title=" ">
<path fill="none" stroke="#63b8ff" d="M84.49,-106.15C103.32,-113.41 129.77,-123.6 153,-132.5 162.15,-136 172.05,-139.78 181.24,-143.28"/>
<polygon fill="#63b8ff" stroke="#63b8ff" points="180.26,-146.66 190.85,-146.94 182.75,-140.11 180.26,-146.66"/>
</a>
</g>
</g>
<!-- Node10 -->
<g id="Node000010" class="node">
<title>Node10</title>
<g id="a_Node000010"><a xlink:href="classdetail_1_1bigint.html#ae750f01e552f13e9f3e7001ac78163d1" target="_top" xlink:title=" ">
<polygon fill="white" stroke="#666666" points="278,-90.5 156,-90.5 156,-60.5 278,-60.5 278,-90.5"/>
<text text-anchor="start" x="164" y="-78.5" font-family="Helvetica,sans-Serif" font-size="10.00">detail::bigint::remove</text>
<text text-anchor="middle" x="217" y="-67.5" font-family="Helvetica,sans-Serif" font-size="10.00">_leading_zeros</text>
</a>
</g>
</g>
<!-- Node1&#45;&gt;Node10 -->
<g id="edge9_Node000001_Node000010" class="edge">
<title>Node1&#45;&gt;Node10</title>
<g id="a_edge9_Node000001_Node000010"><a xlink:title=" ">
<path fill="none" stroke="#63b8ff" d="M117.33,-88.74C126.54,-87.5 136.15,-86.21 145.61,-84.95"/>
<polygon fill="#63b8ff" stroke="#63b8ff" points="146.34,-88.38 155.79,-83.58 145.41,-81.44 146.34,-88.38"/>
</a>
</g>
</g>
<!-- Node11 -->
<g id="Node000011" class="node">
<title>Node11</title>
<g id="a_Node000011"><a xlink:href="classbasic__memory__buffer.html#a9a5d3f229ccaf48e4176d7cdcfd84383" target="_top" xlink:title=" ">
<polygon fill="white" stroke="#666666" points="439,-118.5 317,-118.5 317,-88.5 439,-88.5 439,-118.5"/>
<text text-anchor="start" x="325" y="-106.5" font-family="Helvetica,sans-Serif" font-size="10.00">basic_memory_buffer</text>
<text text-anchor="middle" x="378" y="-95.5" font-family="Helvetica,sans-Serif" font-size="10.00">::resize</text>
</a>
</g>
</g>
<!-- Node1&#45;&gt;Node11 -->
<g id="edge13_Node000001_Node000011" class="edge">
<title>Node1&#45;&gt;Node11</title>
<g id="a_edge13_Node000001_Node000011"><a xlink:title=" ">
<path fill="none" stroke="#63b8ff" d="M117.35,-98.48C129.15,-98.85 141.47,-99.21 153,-99.5 204.4,-100.78 262.45,-101.81 306.58,-102.5"/>
<polygon fill="#63b8ff" stroke="#63b8ff" points="306.57,-106 316.62,-102.65 306.68,-99 306.57,-106"/>
</a>
</g>
</g>
<!-- Node12 -->
<g id="Node000012" class="node">
<title>Node12</title>
<g id="a_Node000012"><a xlink:href="classdetail_1_1buffer.html#a8685285932360c284d19003fc4ba3edc" target="_top" xlink:title="Returns the size of this buffer.">
<polygon fill="white" stroke="#666666" points="430,-56 326,-56 326,-37 430,-37 430,-56"/>
<text text-anchor="middle" x="378" y="-44" font-family="Helvetica,sans-Serif" font-size="10.00">detail::buffer::size</text>
</a>
</g>
</g>
<!-- Node1&#45;&gt;Node12 -->
<g id="edge14_Node000001_Node000012" class="edge">
<title>Node1&#45;&gt;Node12</title>
<g id="a_edge14_Node000001_Node000012"><a xlink:title=" ">
<path fill="none" stroke="#63b8ff" d="M74.3,-86.9C92.13,-75.94 123.39,-58.6 153,-51.5 206.98,-38.55 270.39,-38.48 315.93,-40.96"/>
<polygon fill="#63b8ff" stroke="#63b8ff" points="315.76,-44.46 325.95,-41.56 316.18,-37.47 315.76,-44.46"/>
</a>
</g>
</g>
<!-- Node13 -->
<g id="Node000013" class="node">
<title>Node13</title>
<g id="a_Node000013"><a xlink:href="namespacedetail.html#a4855e668246c731a97484efc329f2aac" target="_top" xlink:title=" ">
<polygon fill="white" stroke="#666666" points="433,-19 323,-19 323,0 433,0 433,-19"/>
<text text-anchor="middle" x="378" y="-7" font-family="Helvetica,sans-Serif" font-size="10.00">detail::to_unsigned</text>
</a>
</g>
</g>
<!-- Node1&#45;&gt;Node13 -->
<g id="edge15_Node000001_Node000013" class="edge">
<title>Node1&#45;&gt;Node13</title>
<g id="a_edge15_Node000001_Node000013"><a xlink:title=" ">
<path fill="none" stroke="#63b8ff" d="M70.38,-86.93C86.93,-72.98 120.01,-47.42 153,-35.5 204.69,-16.82 267.05,-10.81 312.83,-9.19"/>
<polygon fill="#63b8ff" stroke="#63b8ff" points="313.03,-12.68 322.92,-8.89 312.82,-5.69 313.03,-12.68"/>
</a>
</g>
</g>
<!-- Node3 -->
<g id="Node000003" class="node">
<title>Node3</title>
<g id="a_Node000003"><a xlink:href="classbasic__memory__buffer.html#a97d9a0a0f9827c9277e2eea97fa0309b" target="_top" xlink:title=" ">
<polygon fill="white" stroke="#666666" points="439,-180.5 317,-180.5 317,-150.5 439,-150.5 439,-180.5"/>
<text text-anchor="start" x="325" y="-168.5" font-family="Helvetica,sans-Serif" font-size="10.00">basic_memory_buffer</text>
<text text-anchor="middle" x="378" y="-157.5" font-family="Helvetica,sans-Serif" font-size="10.00">::grow</text>
</a>
</g>
</g>
<!-- Node2&#45;&gt;Node3 -->
<g id="edge2_Node000002_Node000003" class="edge">
<title>Node2&#45;&gt;Node3</title>
<g id="a_edge2_Node000002_Node000003"><a xlink:title=" ">
<path fill="none" stroke="#63b8ff" d="M281.3,-185.96C289.7,-184.17 298.36,-182.32 306.87,-180.5"/>
<polygon fill="#63b8ff" stroke="#63b8ff" points="307.72,-183.89 316.77,-178.38 306.26,-177.05 307.72,-183.89"/>
</a>
</g>
</g>
<!-- Node8 -->
<g id="Node000008" class="node">
<title>Node8</title>
<g id="a_Node000008"><a xlink:href="classbasic__memory__buffer.html#ab453ecfd2d4b4b5cfdc4afa4e17c6a3a" target="_top" xlink:title=" ">
<polygon fill="white" stroke="#666666" points="439,-228.5 317,-228.5 317,-198.5 439,-198.5 439,-228.5"/>
<text text-anchor="start" x="325" y="-216.5" font-family="Helvetica,sans-Serif" font-size="10.00">basic_memory_buffer</text>
<text text-anchor="middle" x="378" y="-205.5" font-family="Helvetica,sans-Serif" font-size="10.00">::move</text>
</a>
</g>
</g>
<!-- Node2&#45;&gt;Node8 -->
<g id="edge7_Node000002_Node000008" class="edge">
<title>Node2&#45;&gt;Node8</title>
<g id="a_edge7_Node000002_Node000008"><a xlink:title=" ">
<path fill="none" stroke="#63b8ff" d="M281.3,-205.07C289.61,-205.81 298.17,-206.56 306.59,-207.3"/>
<polygon fill="#63b8ff" stroke="#63b8ff" points="306.5,-210.81 316.77,-208.2 307.11,-203.83 306.5,-210.81"/>
</a>
</g>
</g>
<!-- Node4 -->
<g id="Node000004" class="node">
<title>Node4</title>
<g id="a_Node000004"><a xlink:href="namespacedetail.html#a9d0b4b56d52390d7c8a4be7baa5e2382" target="_top" xlink:title=" ">
<polygon fill="white" stroke="#666666" points="603,-212 475,-212 475,-193 603,-193 603,-212"/>
<text text-anchor="middle" x="539" y="-200" font-family="Helvetica,sans-Serif" font-size="10.00">detail::abort_fuzzing_if</text>
</a>
</g>
</g>
<!-- Node3&#45;&gt;Node4 -->
<g id="edge3_Node000003_Node000004" class="edge">
<title>Node3&#45;&gt;Node4</title>
<g id="a_edge3_Node000003_Node000004"><a xlink:title=" ">
<path fill="none" stroke="#63b8ff" d="M439.11,-179.49C454.98,-183.18 471.95,-187.13 487.27,-190.7"/>
<polygon fill="#63b8ff" stroke="#63b8ff" points="486.54,-194.12 497.07,-192.98 488.13,-187.3 486.54,-194.12"/>
</a>
</g>
</g>
<!-- Node6 -->
<g id="Node000006" class="node">
<title>Node6</title>
<g id="a_Node000006"><a xlink:href="namespacedetail.html#a208b54c1c61a9bce9df4531a657a0c64" target="_top" xlink:title=" ">
<polygon fill="white" stroke="#666666" points="583.5,-175 494.5,-175 494.5,-156 583.5,-156 583.5,-175"/>
<text text-anchor="middle" x="539" y="-163" font-family="Helvetica,sans-Serif" font-size="10.00">detail::assume</text>
</a>
</g>
</g>
<!-- Node3&#45;&gt;Node6 -->
<g id="edge5_Node000003_Node000006" class="edge">
<title>Node3&#45;&gt;Node6</title>
<g id="a_edge5_Node000003_Node000006"><a xlink:title=" ">
<path fill="none" stroke="#63b8ff" d="M439.11,-165.5C453.83,-165.5 469.49,-165.5 483.91,-165.5"/>
<polygon fill="#63b8ff" stroke="#63b8ff" points="484.16,-169 494.16,-165.5 484.16,-162 484.16,-169"/>
</a>
</g>
</g>
<!-- Node7 -->
<g id="Node000007" class="node">
<title>Node7</title>
<g id="a_Node000007"><a xlink:href="base_8h.html#a67ebc2a5b1748c4692931267cd6f89bf" target="_top" xlink:title=" ">
<polygon fill="white" stroke="#666666" points="565.5,-138 512.5,-138 512.5,-119 565.5,-119 565.5,-138"/>
<text text-anchor="middle" x="539" y="-126" font-family="Helvetica,sans-Serif" font-size="10.00">max_of</text>
</a>
</g>
</g>
<!-- Node3&#45;&gt;Node7 -->
<g id="edge6_Node000003_Node000007" class="edge">
<title>Node3&#45;&gt;Node7</title>
<g id="a_edge6_Node000003_Node000007"><a xlink:title=" ">
<path fill="none" stroke="#63b8ff" d="M439.11,-151.51C460.48,-146.54 483.84,-141.1 502.49,-136.76"/>
<polygon fill="#63b8ff" stroke="#63b8ff" points="503.37,-140.15 512.32,-134.48 501.79,-133.33 503.37,-140.15"/>
</a>
</g>
</g>
<!-- Node5 -->
<g id="Node000005" class="node">
<title>Node5</title>
<g id="a_Node000005"><a xlink:href="namespacedetail.html#a1fe84ebaf96215ce0665d95b3124c2df" target="_top" xlink:title=" ">
<polygon fill="white" stroke="#666666" points="761,-212 639,-212 639,-193 761,-193 761,-212"/>
<text text-anchor="middle" x="700" y="-200" font-family="Helvetica,sans-Serif" font-size="10.00">detail::ignore_unused</text>
</a>
</g>
</g>
<!-- Node4&#45;&gt;Node5 -->
<g id="edge4_Node000004_Node000005" class="edge">
<title>Node4&#45;&gt;Node5</title>
<g id="a_edge4_Node000004_Node000005"><a xlink:title=" ">
<path fill="none" stroke="#63b8ff" d="M603.3,-202.5C611.61,-202.5 620.17,-202.5 628.59,-202.5"/>
<polygon fill="#63b8ff" stroke="#63b8ff" points="628.77,-206 638.77,-202.5 628.77,-199 628.77,-206"/>
</a>
</g>
</g>
<!-- Node10&#45;&gt;Node11 -->
<g id="edge10_Node000010_Node000011" class="edge">
<title>Node10&#45;&gt;Node11</title>
<g id="a_edge10_Node000010_Node000011"><a xlink:title=" ">
<path fill="none" stroke="#63b8ff" d="M278.11,-86.09C287.51,-87.74 297.29,-89.46 306.89,-91.15"/>
<polygon fill="#63b8ff" stroke="#63b8ff" points="306.35,-94.61 316.8,-92.9 307.56,-87.72 306.35,-94.61"/>
</a>
</g>
</g>
<!-- Node10&#45;&gt;Node12 -->
<g id="edge11_Node000010_Node000012" class="edge">
<title>Node10&#45;&gt;Node12</title>
<g id="a_edge11_Node000010_Node000012"><a xlink:title=" ">
<path fill="none" stroke="#63b8ff" d="M278.11,-64.54C290.41,-62.29 303.37,-59.93 315.71,-57.68"/>
<polygon fill="#63b8ff" stroke="#63b8ff" points="316.69,-61.06 325.9,-55.82 315.43,-54.17 316.69,-61.06"/>
</a>
</g>
</g>
<!-- Node10&#45;&gt;Node13 -->
<g id="edge12_Node000010_Node000013" class="edge">
<title>Node10&#45;&gt;Node13</title>
<g id="a_edge12_Node000010_Node000013"><a xlink:title=" ">
<path fill="none" stroke="#63b8ff" d="M246.06,-60.41C265.59,-50.27 292.44,-37.07 317,-27.5 321.82,-25.62 326.91,-23.82 332.02,-22.14"/>
<polygon fill="#63b8ff" stroke="#63b8ff" points="333.31,-25.4 341.78,-19.04 331.19,-18.73 333.31,-25.4"/>
</a>
</g>
</g>
</g>
</svg>
