<?xml version="1.0" encoding="UTF-8" standalone="no"?>
<!DOCTYPE svg PUBLIC "-//W3C//DTD SVG 1.1//EN"
 "http://www.w3.org/Graphics/SVG/1.1/DTD/svg11.dtd">
<!-- Generated by graphviz version 2.43.0 (0)
 -->
<!-- Title: cxxopts::OptionParser::parse_option Pages: 1 -->
<svg width="774pt" height="172pt"
 viewBox="0.00 0.00 774.00 171.50" xmlns="http://www.w3.org/2000/svg" xmlns:xlink="http://www.w3.org/1999/xlink">
<g id="graph0" class="graph" transform="scale(1 1) rotate(0) translate(4 167.5)">
<title>cxxopts::OptionParser::parse_option</title>
<!-- Node1 -->
<g id="Node000001" class="node">
<title>Node1</title>
<g id="a_Node000001"><a xlink:title=" ">
<polygon fill="#999999" stroke="#666666" points="122,-115.5 0,-115.5 0,-85.5 122,-85.5 122,-115.5"/>
<text text-anchor="start" x="8" y="-103.5" font-family="Helvetica,sans-Serif" font-size="10.00">cxxopts::OptionParser</text>
<text text-anchor="middle" x="61" y="-92.5" font-family="Helvetica,sans-Serif" font-size="10.00">::parse_option</text>
</a>
</g>
</g>
<!-- Node2 -->
<g id="Node000002" class="node">
<title>Node2</title>
<g id="a_Node000002"><a xlink:href="classcxxopts_1_1OptionDetails.html#a02b918ea1873a2716cfd5ad909be3034" target="_top" xlink:title=" ">
<polygon fill="white" stroke="#666666" points="285,-163.5 158,-163.5 158,-133.5 285,-133.5 285,-163.5"/>
<text text-anchor="start" x="166" y="-151.5" font-family="Helvetica,sans-Serif" font-size="10.00">cxxopts::OptionDetails</text>
<text text-anchor="middle" x="221.5" y="-140.5" font-family="Helvetica,sans-Serif" font-size="10.00">::essential_name</text>
</a>
</g>
</g>
<!-- Node1&#45;&gt;Node2 -->
<g id="edge1_Node000001_Node000002" class="edge">
<title>Node1&#45;&gt;Node2</title>
<g id="a_edge1_Node000001_Node000002"><a xlink:title=" ">
<path fill="none" stroke="#63b8ff" d="M111.72,-115.56C127.35,-120.29 144.78,-125.57 161.03,-130.49"/>
<polygon fill="#63b8ff" stroke="#63b8ff" points="160.38,-133.95 170.96,-133.5 162.4,-127.25 160.38,-133.95"/>
</a>
</g>
</g>
<!-- Node3 -->
<g id="Node000003" class="node">
<title>Node3</title>
<g id="a_Node000003"><a xlink:href="classcxxopts_1_1OptionDetails.html#a3e5d1e478cc4a241d710f9ab792fcafb" target="_top" xlink:title=" ">
<polygon fill="white" stroke="#666666" points="285,-115.5 158,-115.5 158,-85.5 285,-85.5 285,-115.5"/>
<text text-anchor="start" x="166" y="-103.5" font-family="Helvetica,sans-Serif" font-size="10.00">cxxopts::OptionDetails</text>
<text text-anchor="middle" x="221.5" y="-92.5" font-family="Helvetica,sans-Serif" font-size="10.00">::hash</text>
</a>
</g>
</g>
<!-- Node1&#45;&gt;Node3 -->
<g id="edge2_Node000001_Node000003" class="edge">
<title>Node1&#45;&gt;Node3</title>
<g id="a_edge2_Node000001_Node000003"><a xlink:title=" ">
<path fill="none" stroke="#63b8ff" d="M122.37,-100.5C130.65,-100.5 139.21,-100.5 147.67,-100.5"/>
<polygon fill="#63b8ff" stroke="#63b8ff" points="147.93,-104 157.93,-100.5 147.93,-97 147.93,-104"/>
</a>
</g>
</g>
<!-- Node4 -->
<g id="Node000004" class="node">
<title>Node4</title>
<g id="a_Node000004"><a xlink:href="classcxxopts_1_1OptionValue.html#a69645a46405198eea09f45137f1bcf8b" target="_top" xlink:title=" ">
<polygon fill="white" stroke="#666666" points="281,-67.5 162,-67.5 162,-37.5 281,-37.5 281,-67.5"/>
<text text-anchor="start" x="170" y="-55.5" font-family="Helvetica,sans-Serif" font-size="10.00">cxxopts::OptionValue</text>
<text text-anchor="middle" x="221.5" y="-44.5" font-family="Helvetica,sans-Serif" font-size="10.00">::parse</text>
</a>
</g>
</g>
<!-- Node1&#45;&gt;Node4 -->
<g id="edge3_Node000001_Node000004" class="edge">
<title>Node1&#45;&gt;Node4</title>
<g id="a_edge3_Node000001_Node000004"><a xlink:title=" ">
<path fill="none" stroke="#63b8ff" d="M111.72,-85.44C127.35,-80.71 144.78,-75.43 161.03,-70.51"/>
<polygon fill="#63b8ff" stroke="#63b8ff" points="162.4,-73.75 170.96,-67.5 160.38,-67.05 162.4,-73.75"/>
</a>
</g>
</g>
<!-- Node5 -->
<g id="Node000005" class="node">
<title>Node5</title>
<g id="a_Node000005"><a xlink:href="classcxxopts_1_1OptionValue.html#a5e62e7e64679e627ba8946c36a559f2a" target="_top" xlink:title=" ">
<polygon fill="white" stroke="#666666" points="444,-115.5 325,-115.5 325,-85.5 444,-85.5 444,-115.5"/>
<text text-anchor="start" x="333" y="-103.5" font-family="Helvetica,sans-Serif" font-size="10.00">cxxopts::OptionValue</text>
<text text-anchor="middle" x="384.5" y="-92.5" font-family="Helvetica,sans-Serif" font-size="10.00">::ensure_value</text>
</a>
</g>
</g>
<!-- Node4&#45;&gt;Node5 -->
<g id="edge4_Node000004_Node000005" class="edge">
<title>Node4&#45;&gt;Node5</title>
<g id="a_edge4_Node000004_Node000005"><a xlink:title=" ">
<path fill="none" stroke="#63b8ff" d="M273,-67.56C289.03,-72.34 306.92,-77.67 323.55,-82.63"/>
<polygon fill="#63b8ff" stroke="#63b8ff" points="322.6,-85.99 333.18,-85.5 324.6,-79.29 322.6,-85.99"/>
</a>
</g>
</g>
<!-- Node8 -->
<g id="Node000008" class="node">
<title>Node8</title>
<g id="a_Node000008"><a xlink:href="classcxxopts_1_1OptionDetails.html#a1b61b4570ee040ce1b9fc6e358e08b2d" target="_top" xlink:title=" ">
<polygon fill="white" stroke="#666666" points="448,-67.5 321,-67.5 321,-37.5 448,-37.5 448,-67.5"/>
<text text-anchor="start" x="329" y="-55.5" font-family="Helvetica,sans-Serif" font-size="10.00">cxxopts::OptionDetails</text>
<text text-anchor="middle" x="384.5" y="-44.5" font-family="Helvetica,sans-Serif" font-size="10.00">::long_names</text>
</a>
</g>
</g>
<!-- Node4&#45;&gt;Node8 -->
<g id="edge7_Node000004_Node000008" class="edge">
<title>Node4&#45;&gt;Node8</title>
<g id="a_edge7_Node000004_Node000008"><a xlink:title=" ">
<path fill="none" stroke="#63b8ff" d="M281.08,-52.5C290.69,-52.5 300.75,-52.5 310.65,-52.5"/>
<polygon fill="#63b8ff" stroke="#63b8ff" points="310.89,-56 320.89,-52.5 310.89,-49 310.89,-56"/>
</a>
</g>
</g>
<!-- Node9 -->
<g id="Node000009" class="node">
<title>Node9</title>
<g id="a_Node000009"><a xlink:href="classcxxopts_1_1Value.html#a3c962e4ff3294721f5c9f6ac3fc00cc7" target="_top" xlink:title=" ">
<polygon fill="white" stroke="#666666" points="444.5,-19 324.5,-19 324.5,0 444.5,0 444.5,-19"/>
<text text-anchor="middle" x="384.5" y="-7" font-family="Helvetica,sans-Serif" font-size="10.00">cxxopts::Value::parse</text>
</a>
</g>
</g>
<!-- Node4&#45;&gt;Node9 -->
<g id="edge8_Node000004_Node000009" class="edge">
<title>Node4&#45;&gt;Node9</title>
<g id="a_edge8_Node000004_Node000009"><a xlink:title=" ">
<path fill="none" stroke="#63b8ff" d="M278.81,-37.46C298.09,-32.31 319.41,-26.62 337.75,-21.72"/>
<polygon fill="#63b8ff" stroke="#63b8ff" points="338.85,-25.05 347.61,-19.09 337.04,-18.29 338.85,-25.05"/>
</a>
</g>
</g>
<!-- Node6 -->
<g id="Node000006" class="node">
<title>Node6</title>
<g id="a_Node000006"><a xlink:href="classcxxopts_1_1OptionDetails.html#a3ff160262711ae6eebb41649491e75e6" target="_top" xlink:title=" ">
<polygon fill="white" stroke="#666666" points="611,-115.5 484,-115.5 484,-85.5 611,-85.5 611,-115.5"/>
<text text-anchor="start" x="492" y="-103.5" font-family="Helvetica,sans-Serif" font-size="10.00">cxxopts::OptionDetails</text>
<text text-anchor="middle" x="547.5" y="-92.5" font-family="Helvetica,sans-Serif" font-size="10.00">::make_storage</text>
</a>
</g>
</g>
<!-- Node5&#45;&gt;Node6 -->
<g id="edge5_Node000005_Node000006" class="edge">
<title>Node5&#45;&gt;Node6</title>
<g id="a_edge5_Node000005_Node000006"><a xlink:title=" ">
<path fill="none" stroke="#63b8ff" d="M444.08,-100.5C453.69,-100.5 463.75,-100.5 473.65,-100.5"/>
<polygon fill="#63b8ff" stroke="#63b8ff" points="473.89,-104 483.89,-100.5 473.89,-97 473.89,-104"/>
</a>
</g>
</g>
<!-- Node7 -->
<g id="Node000007" class="node">
<title>Node7</title>
<g id="a_Node000007"><a xlink:href="classcxxopts_1_1Value.html#a17916d6a48e57c999c2dc23fa6b22539" target="_top" xlink:title=" ">
<polygon fill="white" stroke="#666666" points="766,-110 647,-110 647,-91 766,-91 766,-110"/>
<text text-anchor="middle" x="706.5" y="-98" font-family="Helvetica,sans-Serif" font-size="10.00">cxxopts::Value::clone</text>
</a>
</g>
</g>
<!-- Node6&#45;&gt;Node7 -->
<g id="edge6_Node000006_Node000007" class="edge">
<title>Node6&#45;&gt;Node7</title>
<g id="a_edge6_Node000006_Node000007"><a xlink:title=" ">
<path fill="none" stroke="#63b8ff" d="M611,-100.5C619.39,-100.5 628.04,-100.5 636.53,-100.5"/>
<polygon fill="#63b8ff" stroke="#63b8ff" points="636.79,-104 646.79,-100.5 636.79,-97 636.79,-104"/>
</a>
</g>
</g>
</g>
</svg>
