<?xml version="1.0" encoding="UTF-8" standalone="no"?>
<!DOCTYPE svg PUBLIC "-//W3C//DTD SVG 1.1//EN"
 "http://www.w3.org/Graphics/SVG/1.1/DTD/svg11.dtd">
<!-- Generated by graphviz version 2.43.0 (0)
 -->
<!-- Title: detail::buffer::try_reserve Pages: 1 -->
<svg width="1100pt" height="515pt"
 viewBox="0.00 0.00 1100.00 514.50" xmlns="http://www.w3.org/2000/svg" xmlns:xlink="http://www.w3.org/1999/xlink">
<g id="graph0" class="graph" transform="scale(1 1) rotate(0) translate(4 510.5)">
<title>detail::buffer::try_reserve</title>
<!-- Node1 -->
<g id="Node000001" class="node">
<title>Node1</title>
<g id="a_Node000001"><a xlink:title=" ">
<polygon fill="#999999" stroke="#666666" points="1092,-147 994,-147 994,-117 1092,-117 1092,-147"/>
<text text-anchor="start" x="1002" y="-135" font-family="Helvetica,sans-Serif" font-size="10.00">detail::buffer::try</text>
<text text-anchor="middle" x="1043" y="-124" font-family="Helvetica,sans-Serif" font-size="10.00">_reserve</text>
</a>
</g>
</g>
<!-- Node2 -->
<g id="Node000002" class="node">
<title>Node2</title>
<g id="a_Node000002"><a xlink:href="classdetail_1_1buffer.html#a49016d0c600f79917e00d9e3458c8c92" target="_top" xlink:title=" ">
<polygon fill="white" stroke="#666666" points="958,-260.5 821,-260.5 821,-241.5 958,-241.5 958,-260.5"/>
<text text-anchor="middle" x="889.5" y="-248.5" font-family="Helvetica,sans-Serif" font-size="10.00">detail::buffer::push_back</text>
</a>
</g>
</g>
<!-- Node1&#45;&gt;Node2 -->
<g id="edge1_Node000001_Node000002" class="edge">
<title>Node1&#45;&gt;Node2</title>
<g id="a_edge1_Node000001_Node000002"><a xlink:title=" ">
<path fill="none" stroke="#63b8ff" d="M1014.9,-153.29C981.83,-179.27 927.31,-222.09 902.94,-241.23"/>
<polygon fill="#63b8ff" stroke="#63b8ff" points="1017.11,-156 1022.81,-147.07 1012.79,-150.5 1017.11,-156"/>
</a>
</g>
</g>
<!-- Node18 -->
<g id="Node000018" class="node">
<title>Node18</title>
<g id="a_Node000018"><a xlink:href="classdetail_1_1buffer.html#ac48c33ebe198a142029794f99ec73c31" target="_top" xlink:title=" ">
<polygon fill="white" stroke="#666666" points="590,-30 492,-30 492,0 590,0 590,-30"/>
<text text-anchor="start" x="500" y="-18" font-family="Helvetica,sans-Serif" font-size="10.00">detail::buffer::try</text>
<text text-anchor="middle" x="541" y="-7" font-family="Helvetica,sans-Serif" font-size="10.00">_resize</text>
</a>
</g>
</g>
<!-- Node1&#45;&gt;Node18 -->
<g id="edge20_Node000001_Node000018" class="edge">
<title>Node1&#45;&gt;Node18</title>
<g id="a_edge20_Node000001_Node000018"><a xlink:title=" ">
<path fill="none" stroke="#63b8ff" d="M1002.59,-112.61C953.11,-89.27 864.99,-50.96 785,-33 718.55,-18.08 639.57,-14.81 590.1,-14.43"/>
<polygon fill="#63b8ff" stroke="#63b8ff" points="1001.13,-115.79 1011.67,-116.93 1004.14,-109.47 1001.13,-115.79"/>
</a>
</g>
</g>
<!-- Node3 -->
<g id="Node000003" class="node">
<title>Node3</title>
<g id="a_Node000003"><a xlink:href="classdetail_1_1digit__grouping.html#a0f6b16f6c24b8a79c3415aff8724e5b3" target="_top" xlink:title=" ">
<polygon fill="white" stroke="#666666" points="770,-469 650,-469 650,-439 770,-439 770,-469"/>
<text text-anchor="start" x="658" y="-457" font-family="Helvetica,sans-Serif" font-size="10.00">detail::digit_grouping</text>
<text text-anchor="middle" x="710" y="-446" font-family="Helvetica,sans-Serif" font-size="10.00">::apply</text>
</a>
</g>
</g>
<!-- Node2&#45;&gt;Node3 -->
<g id="edge2_Node000002_Node000003" class="edge">
<title>Node2&#45;&gt;Node3</title>
<g id="a_edge2_Node000002_Node000003"><a xlink:title=" ">
<path fill="none" stroke="#63b8ff" d="M882.4,-270.77C870.05,-307.54 838.62,-386.63 785,-430 780.48,-433.65 775.4,-436.75 770.06,-439.39"/>
<polygon fill="#63b8ff" stroke="#63b8ff" points="885.88,-271.4 885.62,-260.8 879.22,-269.24 885.88,-271.4"/>
</a>
</g>
</g>
<!-- Node4 -->
<g id="Node000004" class="node">
<title>Node4</title>
<g id="a_Node000004"><a xlink:href="structformatter_3_01std_1_1error__code_01_4.html#a470063b0427cac0f4618f8efe71656ac" target="_top" xlink:title=" ">
<polygon fill="white" stroke="#666666" points="769.5,-421 650.5,-421 650.5,-391 769.5,-391 769.5,-421"/>
<text text-anchor="start" x="658.5" y="-409" font-family="Helvetica,sans-Serif" font-size="10.00">formatter&lt; std::error</text>
<text text-anchor="middle" x="710" y="-398" font-family="Helvetica,sans-Serif" font-size="10.00">_code &gt;::format</text>
</a>
</g>
</g>
<!-- Node2&#45;&gt;Node4 -->
<g id="edge3_Node000002_Node000004" class="edge">
<title>Node2&#45;&gt;Node4</title>
<g id="a_edge3_Node000002_Node000004"><a xlink:title=" ">
<path fill="none" stroke="#63b8ff" d="M877.67,-269.44C860.95,-296.48 826.41,-346.92 785,-377 777.41,-382.52 768.63,-387.15 759.83,-390.97"/>
<polygon fill="#63b8ff" stroke="#63b8ff" points="880.83,-270.99 883.01,-260.62 874.84,-267.37 880.83,-270.99"/>
</a>
</g>
</g>
<!-- Node5 -->
<g id="Node000005" class="node">
<title>Node5</title>
<g id="a_Node000005"><a xlink:href="namespacedetail.html#af3eae8fdebff07dc2edca668eaf2f8bd" target="_top" xlink:title=" ">
<polygon fill="white" stroke="#666666" points="438,-212.5 316,-212.5 316,-193.5 438,-193.5 438,-212.5"/>
<text text-anchor="middle" x="377" y="-200.5" font-family="Helvetica,sans-Serif" font-size="10.00">detail::format_dragon</text>
</a>
</g>
</g>
<!-- Node2&#45;&gt;Node5 -->
<g id="edge4_Node000002_Node000005" class="edge">
<title>Node2&#45;&gt;Node5</title>
<g id="a_edge4_Node000002_Node000005"><a xlink:title=" ">
<path fill="none" stroke="#63b8ff" d="M867.26,-235.69C847.18,-222.23 815.65,-203.64 785,-196 661.23,-165.16 509.66,-181.29 431.02,-193.48"/>
<polygon fill="#63b8ff" stroke="#63b8ff" points="865.41,-238.67 875.63,-241.46 869.38,-232.9 865.41,-238.67"/>
</a>
</g>
</g>
<!-- Node6 -->
<g id="Node000006" class="node">
<title>Node6</title>
<g id="a_Node000006"><a xlink:href="namespacedetail.html#add861c358ea50b446b1a06080adb44ba" target="_top" xlink:title=" ">
<polygon fill="white" stroke="#666666" points="266.5,-212.5 156.5,-212.5 156.5,-193.5 266.5,-193.5 266.5,-212.5"/>
<text text-anchor="middle" x="211.5" y="-200.5" font-family="Helvetica,sans-Serif" font-size="10.00">detail::format_float</text>
</a>
</g>
</g>
<!-- Node2&#45;&gt;Node6 -->
<g id="edge6_Node000002_Node000006" class="edge">
<title>Node2&#45;&gt;Node6</title>
<g id="a_edge6_Node000002_Node000006"><a xlink:title=" ">
<path fill="none" stroke="#63b8ff" d="M875.77,-268.57C858.27,-291.05 824.43,-328.89 785,-344 659.49,-392.1 612.58,-363.71 483,-328 380.76,-299.83 268.8,-236.62 228.26,-212.55"/>
<polygon fill="#63b8ff" stroke="#63b8ff" points="878.61,-270.61 881.85,-260.52 873.03,-266.39 878.61,-270.61"/>
</a>
</g>
</g>
<!-- Node7 -->
<g id="Node000007" class="node">
<title>Node7</title>
<g id="a_Node000007"><a xlink:href="namespacedetail.html#a718888554bf1561a88969b304e570395" target="_top" xlink:title=" ">
<polygon fill="white" stroke="#666666" points="774,-297.5 646,-297.5 646,-278.5 774,-278.5 774,-297.5"/>
<text text-anchor="middle" x="710" y="-285.5" font-family="Helvetica,sans-Serif" font-size="10.00">detail::format_hexfloat</text>
</a>
</g>
</g>
<!-- Node2&#45;&gt;Node7 -->
<g id="edge7_Node000002_Node000007" class="edge">
<title>Node2&#45;&gt;Node7</title>
<g id="a_edge7_Node000002_Node000007"><a xlink:title=" ">
<path fill="none" stroke="#63b8ff" d="M832.93,-262.58C808.47,-267.68 780.09,-273.6 756.86,-278.44"/>
<polygon fill="#63b8ff" stroke="#63b8ff" points="833.71,-266 842.79,-260.53 832.29,-259.14 833.71,-266"/>
</a>
</g>
</g>
<!-- Node8 -->
<g id="Node000008" class="node">
<title>Node8</title>
<g id="a_Node000008"><a xlink:href="classdetail_1_1bigint.html#a3b3f124ea4a98e02a66258e08226e10a" target="_top" xlink:title=" ">
<polygon fill="white" stroke="#666666" points="772.5,-260.5 647.5,-260.5 647.5,-241.5 772.5,-241.5 772.5,-260.5"/>
<text text-anchor="middle" x="710" y="-248.5" font-family="Helvetica,sans-Serif" font-size="10.00">detail::bigint::multiply</text>
</a>
</g>
</g>
<!-- Node2&#45;&gt;Node8 -->
<g id="edge8_Node000002_Node000008" class="edge">
<title>Node2&#45;&gt;Node8</title>
<g id="a_edge8_Node000002_Node000008"><a xlink:title=" ">
<path fill="none" stroke="#63b8ff" d="M810.74,-251C797.97,-251 784.9,-251 772.6,-251"/>
<polygon fill="#63b8ff" stroke="#63b8ff" points="810.89,-254.5 820.89,-251 810.89,-247.5 810.89,-254.5"/>
</a>
</g>
</g>
<!-- Node9 -->
<g id="Node000009" class="node">
<title>Node9</title>
<g id="a_Node000009"><a xlink:href="classdetail_1_1bigint.html#aeeaadae8fc82627007136abe7599f674" target="_top" xlink:title=" ">
<polygon fill="white" stroke="#666666" points="772.5,-223.5 647.5,-223.5 647.5,-204.5 772.5,-204.5 772.5,-223.5"/>
<text text-anchor="middle" x="710" y="-211.5" font-family="Helvetica,sans-Serif" font-size="10.00">detail::bigint::multiply</text>
</a>
</g>
</g>
<!-- Node2&#45;&gt;Node9 -->
<g id="edge9_Node000002_Node000009" class="edge">
<title>Node2&#45;&gt;Node9</title>
<g id="a_edge9_Node000002_Node000009"><a xlink:title=" ">
<path fill="none" stroke="#63b8ff" d="M832.93,-239.42C808.47,-234.32 780.09,-228.4 756.86,-223.56"/>
<polygon fill="#63b8ff" stroke="#63b8ff" points="832.29,-242.86 842.79,-241.47 833.71,-236 832.29,-242.86"/>
</a>
</g>
</g>
<!-- Node10 -->
<g id="Node000010" class="node">
<title>Node10</title>
<g id="a_Node000010"><a xlink:href="classdetail_1_1bigint.html#a0e86af8a4597a9f220f7c0ab7cbe026f" target="_top" xlink:title=" ">
<polygon fill="white" stroke="#666666" points="785,-334.5 635,-334.5 635,-315.5 785,-315.5 785,-334.5"/>
<text text-anchor="middle" x="710" y="-322.5" font-family="Helvetica,sans-Serif" font-size="10.00">detail::bigint::operator&lt;&lt;=</text>
</a>
</g>
</g>
<!-- Node2&#45;&gt;Node10 -->
<g id="edge10_Node000002_Node000010" class="edge">
<title>Node2&#45;&gt;Node10</title>
<g id="a_edge10_Node000002_Node000010"><a xlink:title=" ">
<path fill="none" stroke="#63b8ff" d="M865.03,-265.97C844.58,-278.46 813.77,-295.93 785,-307 776.49,-310.28 767.18,-313.09 758.14,-315.46"/>
<polygon fill="#63b8ff" stroke="#63b8ff" points="867,-268.87 873.66,-260.63 863.31,-262.92 867,-268.87"/>
</a>
</g>
</g>
<!-- Node12 -->
<g id="Node000012" class="node">
<title>Node12</title>
<g id="a_Node000012"><a xlink:href="namespacedetail.html#ab53b6d81e91fff3619f7c8a53bb93f34" target="_top" xlink:title=" ">
<polygon fill="white" stroke="#666666" points="771.5,-147.5 648.5,-147.5 648.5,-128.5 771.5,-128.5 771.5,-147.5"/>
<text text-anchor="middle" x="710" y="-135.5" font-family="Helvetica,sans-Serif" font-size="10.00">detail::to_utf8_3bytes</text>
</a>
</g>
</g>
<!-- Node2&#45;&gt;Node12 -->
<g id="edge14_Node000002_Node000012" class="edge">
<title>Node2&#45;&gt;Node12</title>
<g id="a_edge14_Node000002_Node000012"><a xlink:title=" ">
<path fill="none" stroke="#63b8ff" d="M872.78,-233.86C853.74,-214.03 819.86,-181.59 785,-162 774.29,-155.98 761.84,-151.21 750.24,-147.56"/>
<polygon fill="#63b8ff" stroke="#63b8ff" points="870.36,-236.4 879.77,-241.27 875.45,-231.6 870.36,-236.4"/>
</a>
</g>
</g>
<!-- Node13 -->
<g id="Node000013" class="node">
<title>Node13</title>
<g id="a_Node000013"><a xlink:href="classdetail_1_1utf8__to__utf16.html#aabad25a649e8f141b998e38abd970721" target="_top" xlink:title=" ">
<polygon fill="white" stroke="#666666" points="768,-110 652,-110 652,-80 768,-80 768,-110"/>
<text text-anchor="start" x="660" y="-98" font-family="Helvetica,sans-Serif" font-size="10.00">detail::utf8_to_utf16</text>
<text text-anchor="middle" x="710" y="-87" font-family="Helvetica,sans-Serif" font-size="10.00">::utf8_to_utf16</text>
</a>
</g>
</g>
<!-- Node2&#45;&gt;Node13 -->
<g id="edge15_Node000002_Node000013" class="edge">
<title>Node2&#45;&gt;Node13</title>
<g id="a_edge15_Node000002_Node000013"><a xlink:title=" ">
<path fill="none" stroke="#63b8ff" d="M878.49,-232.33C862.42,-204.07 828.23,-150.47 785,-120 779.57,-116.17 773.51,-112.89 767.25,-110.09"/>
<polygon fill="#63b8ff" stroke="#63b8ff" points="875.5,-234.15 883.41,-241.2 881.62,-230.75 875.5,-234.15"/>
</a>
</g>
</g>
<!-- Node15 -->
<g id="Node000015" class="node">
<title>Node15</title>
<g id="a_Node000015"><a xlink:href="xchar_8h.html#ad59e14d924bf2fe1d17939ad9d8b8d4a" target="_top" xlink:title=" ">
<polygon fill="white" stroke="#666666" points="732.5,-61.5 687.5,-61.5 687.5,-42.5 732.5,-42.5 732.5,-61.5"/>
<text text-anchor="middle" x="710" y="-49.5" font-family="Helvetica,sans-Serif" font-size="10.00">vprint</text>
</a>
</g>
</g>
<!-- Node2&#45;&gt;Node15 -->
<g id="edge17_Node000002_Node000015" class="edge">
<title>Node2&#45;&gt;Node15</title>
<g id="a_edge17_Node000002_Node000015"><a xlink:title=" ">
<path fill="none" stroke="#63b8ff" d="M883,-231.81C871.36,-194.76 840.63,-113.3 785,-71 769.9,-59.52 748.58,-54.94 732.7,-53.13"/>
<polygon fill="#63b8ff" stroke="#63b8ff" points="879.65,-232.84 885.89,-241.4 886.36,-230.82 879.65,-232.84"/>
</a>
</g>
</g>
<!-- Node17 -->
<g id="Node000017" class="node">
<title>Node17</title>
<g id="a_Node000017"><a xlink:href="format-inl_8h.html#a71033730e1d1c2c72b7905f21929df93" target="_top" xlink:title=" ">
<polygon fill="white" stroke="#666666" points="737,-506.5 683,-506.5 683,-487.5 737,-487.5 737,-506.5"/>
<text text-anchor="middle" x="710" y="-494.5" font-family="Helvetica,sans-Serif" font-size="10.00">vprintln</text>
</a>
</g>
</g>
<!-- Node2&#45;&gt;Node17 -->
<g id="edge19_Node000002_Node000017" class="edge">
<title>Node2&#45;&gt;Node17</title>
<g id="a_edge19_Node000002_Node000017"><a xlink:title=" ">
<path fill="none" stroke="#63b8ff" d="M885.41,-270.49C877.37,-314.53 851.59,-422.23 785,-478 771.68,-489.16 752.61,-493.87 737.17,-495.81"/>
<polygon fill="#63b8ff" stroke="#63b8ff" points="888.88,-270.96 887.12,-260.51 881.98,-269.78 888.88,-270.96"/>
</a>
</g>
</g>
<!-- Node5&#45;&gt;Node6 -->
<g id="edge5_Node000005_Node000006" class="edge">
<title>Node5&#45;&gt;Node6</title>
<g id="a_edge5_Node000005_Node000006"><a xlink:title=" ">
<path fill="none" stroke="#63b8ff" d="M305.32,-203C292.39,-203 279.09,-203 266.73,-203"/>
<polygon fill="#63b8ff" stroke="#63b8ff" points="305.58,-206.5 315.58,-203 305.58,-199.5 305.58,-206.5"/>
</a>
</g>
</g>
<!-- Node10&#45;&gt;Node5 -->
<g id="edge13_Node000010_Node000005" class="edge">
<title>Node10&#45;&gt;Node5</title>
<g id="a_edge13_Node000010_Node000005"><a xlink:title=" ">
<path fill="none" stroke="#63b8ff" d="M648.37,-312.42C643.77,-310.81 639.26,-309.01 635,-307 616.91,-298.46 616.65,-289.4 599,-280 538.57,-247.82 461.95,-224.64 416.63,-212.56"/>
<polygon fill="#63b8ff" stroke="#63b8ff" points="647.31,-315.76 657.91,-315.46 649.44,-309.09 647.31,-315.76"/>
</a>
</g>
</g>
<!-- Node11 -->
<g id="Node000011" class="node">
<title>Node11</title>
<g id="a_Node000011"><a xlink:href="classdetail_1_1bigint.html#a8351139b55eb772c8f1c9f86e8e66e8f" target="_top" xlink:title=" ">
<polygon fill="white" stroke="#666666" points="599,-319 483,-319 483,-289 599,-289 599,-319"/>
<text text-anchor="start" x="491" y="-307" font-family="Helvetica,sans-Serif" font-size="10.00">detail::bigint::assign</text>
<text text-anchor="middle" x="541" y="-296" font-family="Helvetica,sans-Serif" font-size="10.00">_pow10</text>
</a>
</g>
</g>
<!-- Node10&#45;&gt;Node11 -->
<g id="edge11_Node000010_Node000011" class="edge">
<title>Node10&#45;&gt;Node11</title>
<g id="a_edge11_Node000010_Node000011"><a xlink:title=" ">
<path fill="none" stroke="#63b8ff" d="M624.67,-314.4C616.05,-313.31 607.43,-312.23 599.2,-311.19"/>
<polygon fill="#63b8ff" stroke="#63b8ff" points="624.42,-317.89 634.78,-315.67 625.29,-310.95 624.42,-317.89"/>
</a>
</g>
</g>
<!-- Node11&#45;&gt;Node5 -->
<g id="edge12_Node000011_Node000005" class="edge">
<title>Node11&#45;&gt;Node5</title>
<g id="a_edge12_Node000011_Node000005"><a xlink:title=" ">
<path fill="none" stroke="#63b8ff" d="M506.95,-283.39C472.39,-261.85 419.62,-228.95 393.61,-212.73"/>
<polygon fill="#63b8ff" stroke="#63b8ff" points="505.41,-286.56 515.75,-288.88 509.11,-280.62 505.41,-286.56"/>
</a>
</g>
</g>
<!-- Node14 -->
<g id="Node000014" class="node">
<title>Node14</title>
<g id="a_Node000014"><a xlink:href="namespacedetail.html#a6e87de2a7463d1a9afe229703795ce22" target="_top" xlink:title=" ">
<polygon fill="white" stroke="#666666" points="590,-104.5 492,-104.5 492,-85.5 590,-85.5 590,-104.5"/>
<text text-anchor="middle" x="541" y="-92.5" font-family="Helvetica,sans-Serif" font-size="10.00">detail::copy_unit</text>
</a>
</g>
</g>
<!-- Node13&#45;&gt;Node14 -->
<g id="edge16_Node000013_Node000014" class="edge">
<title>Node13&#45;&gt;Node14</title>
<g id="a_edge16_Node000013_Node000014"><a xlink:title=" ">
<path fill="none" stroke="#63b8ff" d="M641.93,-95C624.6,-95 606.28,-95 590.13,-95"/>
<polygon fill="#63b8ff" stroke="#63b8ff" points="642,-98.5 652,-95 642,-91.5 642,-98.5"/>
</a>
</g>
</g>
<!-- Node16 -->
<g id="Node000016" class="node">
<title>Node16</title>
<g id="a_Node000016"><a xlink:href="xchar_8h.html#ab357e28df4fee8293636aaf7a1662508" target="_top" xlink:title=" ">
<polygon fill="white" stroke="#666666" points="563.5,-67.5 518.5,-67.5 518.5,-48.5 563.5,-48.5 563.5,-67.5"/>
<text text-anchor="middle" x="541" y="-55.5" font-family="Helvetica,sans-Serif" font-size="10.00">vprint</text>
</a>
</g>
</g>
<!-- Node15&#45;&gt;Node16 -->
<g id="edge18_Node000015_Node000016" class="edge">
<title>Node15&#45;&gt;Node16</title>
<g id="a_edge18_Node000015_Node000016"><a xlink:title=" ">
<path fill="none" stroke="#63b8ff" d="M677.03,-53.15C643.71,-54.35 592.4,-56.19 563.57,-57.22"/>
<polygon fill="#63b8ff" stroke="#63b8ff" points="677.3,-56.64 687.17,-52.78 677.05,-49.65 677.3,-56.64"/>
</a>
</g>
</g>
<!-- Node18&#45;&gt;Node5 -->
<g id="edge21_Node000018_Node000005" class="edge">
<title>Node18&#45;&gt;Node5</title>
<g id="a_edge21_Node000018_Node000005"><a xlink:title=" ">
<path fill="none" stroke="#63b8ff" d="M485.88,-36.23C484.88,-37.11 483.92,-38.04 483,-39 450.96,-72.56 472.42,-98.18 447,-137 431.65,-160.44 406.5,-181.69 391.17,-193.43"/>
<polygon fill="#63b8ff" stroke="#63b8ff" points="488.22,-38.85 494.18,-30.09 484.06,-33.22 488.22,-38.85"/>
</a>
</g>
</g>
<!-- Node18&#45;&gt;Node6 -->
<g id="edge25_Node000018_Node000006" class="edge">
<title>Node18&#45;&gt;Node6</title>
<g id="a_edge25_Node000018_Node000006"><a xlink:title=" ">
<path fill="none" stroke="#63b8ff" d="M492.63,-34.31C489.34,-35.85 486.11,-37.41 483,-39 381.25,-90.91 266.27,-166.73 226.73,-193.34"/>
<polygon fill="#63b8ff" stroke="#63b8ff" points="494.26,-37.42 501.93,-30.11 491.38,-31.04 494.26,-37.42"/>
</a>
</g>
</g>
<!-- Node19 -->
<g id="Node000019" class="node">
<title>Node19</title>
<g id="a_Node000019"><a xlink:href="namespacedetail.html#a609d7411f77817f2def78afbbfdda40e" target="_top" xlink:title=" ">
<polygon fill="white" stroke="#666666" points="447,-24.5 307,-24.5 307,-5.5 447,-5.5 447,-24.5"/>
<text text-anchor="middle" x="377" y="-12.5" font-family="Helvetica,sans-Serif" font-size="10.00">detail::format_error_code</text>
</a>
</g>
</g>
<!-- Node18&#45;&gt;Node19 -->
<g id="edge22_Node000018_Node000019" class="edge">
<title>Node18&#45;&gt;Node19</title>
<g id="a_edge22_Node000018_Node000019"><a xlink:title=" ">
<path fill="none" stroke="#63b8ff" d="M481.76,-15C470.58,-15 458.76,-15 447.27,-15"/>
<polygon fill="#63b8ff" stroke="#63b8ff" points="481.83,-18.5 491.83,-15 481.83,-11.5 481.83,-18.5"/>
</a>
</g>
</g>
<!-- Node20 -->
<g id="Node000020" class="node">
<title>Node20</title>
<g id="a_Node000020"><a xlink:href="format-inl_8h.html#a7f93bbdee51ea567c2cdf8532c0c1fc1" target="_top" xlink:title=" ">
<polygon fill="white" stroke="#666666" points="271,-24.5 152,-24.5 152,-5.5 271,-5.5 271,-24.5"/>
<text text-anchor="middle" x="211.5" y="-12.5" font-family="Helvetica,sans-Serif" font-size="10.00">format_system_error</text>
</a>
</g>
</g>
<!-- Node19&#45;&gt;Node20 -->
<g id="edge23_Node000019_Node000020" class="edge">
<title>Node19&#45;&gt;Node20</title>
<g id="a_edge23_Node000019_Node000020"><a xlink:title=" ">
<path fill="none" stroke="#63b8ff" d="M296.61,-15C288.02,-15 279.39,-15 271.11,-15"/>
<polygon fill="#63b8ff" stroke="#63b8ff" points="296.66,-18.5 306.66,-15 296.66,-11.5 296.66,-18.5"/>
</a>
</g>
</g>
<!-- Node21 -->
<g id="Node000021" class="node">
<title>Node21</title>
<g id="a_Node000021"><a xlink:href="format-inl_8h.html#af135c0ecc93e827e4ef51b18a4b0da74" target="_top" xlink:title=" ">
<polygon fill="white" stroke="#666666" points="116,-24.5 0,-24.5 0,-5.5 116,-5.5 116,-24.5"/>
<text text-anchor="middle" x="58" y="-12.5" font-family="Helvetica,sans-Serif" font-size="10.00">report_system_error</text>
</a>
</g>
</g>
<!-- Node20&#45;&gt;Node21 -->
<g id="edge24_Node000020_Node000021" class="edge">
<title>Node20&#45;&gt;Node21</title>
<g id="a_edge24_Node000020_Node000021"><a xlink:title=" ">
<path fill="none" stroke="#63b8ff" d="M141.7,-15C133.25,-15 124.68,-15 116.42,-15"/>
<polygon fill="#63b8ff" stroke="#63b8ff" points="141.93,-18.5 151.93,-15 141.93,-11.5 141.93,-18.5"/>
</a>
</g>
</g>
</g>
</svg>
