<?xml version="1.0" encoding="UTF-8" standalone="no"?>
<!DOCTYPE svg PUBLIC "-//W3C//DTD SVG 1.1//EN"
 "http://www.w3.org/Graphics/SVG/1.1/DTD/svg11.dtd">
<!-- Generated by graphviz version 2.43.0 (0)
 -->
<!-- Title: detail::tm_writer::on_iso_week_of_year Pages: 1 -->
<svg width="429pt" height="230pt"
 viewBox="0.00 0.00 429.00 230.00" xmlns="http://www.w3.org/2000/svg" xmlns:xlink="http://www.w3.org/1999/xlink">
<g id="graph0" class="graph" transform="scale(1 1) rotate(0) translate(4 226)">
<title>detail::tm_writer::on_iso_week_of_year</title>
<!-- Node1 -->
<g id="Node000001" class="node">
<title>Node1</title>
<g id="a_Node000001"><a xlink:title=" ">
<polygon fill="#999999" stroke="#666666" points="122,-150 0,-150 0,-120 122,-120 122,-150"/>
<text text-anchor="start" x="8" y="-138" font-family="Helvetica,sans-Serif" font-size="10.00">detail::tm_writer::</text>
<text text-anchor="middle" x="61" y="-127" font-family="Helvetica,sans-Serif" font-size="10.00">on_iso_week_of_year</text>
</a>
</g>
</g>
<!-- Node2 -->
<g id="Node000002" class="node">
<title>Node2</title>
<g id="a_Node000002"><a xlink:href="classdetail_1_1tm__writer.html#ab8f9095299300945a550e457b970f763" target="_top" xlink:title=" ">
<polygon fill="white" stroke="#666666" points="271.5,-174 167.5,-174 167.5,-144 271.5,-144 271.5,-174"/>
<text text-anchor="start" x="175.5" y="-162" font-family="Helvetica,sans-Serif" font-size="10.00">detail::tm_writer::</text>
<text text-anchor="middle" x="219.5" y="-151" font-family="Helvetica,sans-Serif" font-size="10.00">format_localized</text>
</a>
</g>
</g>
<!-- Node1&#45;&gt;Node2 -->
<g id="edge1_Node000001_Node000002" class="edge">
<title>Node1&#45;&gt;Node2</title>
<g id="a_edge1_Node000001_Node000002"><a xlink:title=" ">
<path fill="none" stroke="#63b8ff" d="M122.06,-144.21C133.59,-145.98 145.69,-147.83 157.26,-149.61"/>
<polygon fill="#63b8ff" stroke="#63b8ff" points="156.85,-153.09 167.26,-151.14 157.91,-146.17 156.85,-153.09"/>
</a>
</g>
</g>
<!-- Node3 -->
<g id="Node000003" class="node">
<title>Node3</title>
<g id="a_Node000003"><a xlink:href="classdetail_1_1tm__writer.html#a4285acc2899bf1a942bfbc8c777adfef" target="_top" xlink:title=" ">
<polygon fill="white" stroke="#666666" points="281,-126 158,-126 158,-96 281,-96 281,-126"/>
<text text-anchor="start" x="166" y="-114" font-family="Helvetica,sans-Serif" font-size="10.00">detail::tm_writer::</text>
<text text-anchor="middle" x="219.5" y="-103" font-family="Helvetica,sans-Serif" font-size="10.00">tm_iso_week_of_year</text>
</a>
</g>
</g>
<!-- Node1&#45;&gt;Node3 -->
<g id="edge2_Node000001_Node000003" class="edge">
<title>Node1&#45;&gt;Node3</title>
<g id="a_edge2_Node000001_Node000003"><a xlink:title=" ">
<path fill="none" stroke="#63b8ff" d="M122.06,-125.79C130.49,-124.5 139.21,-123.16 147.81,-121.84"/>
<polygon fill="#63b8ff" stroke="#63b8ff" points="148.47,-125.28 157.83,-120.3 147.41,-118.36 148.47,-125.28"/>
</a>
</g>
</g>
<!-- Node4 -->
<g id="Node000004" class="node">
<title>Node4</title>
<g id="a_Node000004"><a xlink:href="classdetail_1_1tm__writer.html#aea0848bf23ac12ecc1fc231def813bc8" target="_top" xlink:title=" ">
<polygon fill="white" stroke="#666666" points="421,-222 317,-222 317,-192 421,-192 421,-222"/>
<text text-anchor="start" x="325" y="-210" font-family="Helvetica,sans-Serif" font-size="10.00">detail::tm_writer::</text>
<text text-anchor="middle" x="369" y="-199" font-family="Helvetica,sans-Serif" font-size="10.00">iso_week_num</text>
</a>
</g>
</g>
<!-- Node3&#45;&gt;Node4 -->
<g id="edge3_Node000003_Node000004" class="edge">
<title>Node3&#45;&gt;Node4</title>
<g id="a_edge3_Node000003_Node000004"><a xlink:title=" ">
<path fill="none" stroke="#63b8ff" d="M266.57,-126.1C271.67,-128.68 276.6,-131.64 281,-135 302.19,-151.19 296.32,-166.16 317,-183 318.54,-184.25 320.15,-185.46 321.82,-186.61"/>
<polygon fill="#63b8ff" stroke="#63b8ff" points="320.16,-189.7 330.5,-191.99 323.84,-183.75 320.16,-189.7"/>
</a>
</g>
</g>
<!-- Node5 -->
<g id="Node000005" class="node">
<title>Node5</title>
<g id="a_Node000005"><a xlink:href="classdetail_1_1tm__writer.html#ac6bcd1b35ef246a2366e37f4738b095e" target="_top" xlink:title=" ">
<polygon fill="white" stroke="#666666" points="421,-174 317,-174 317,-144 421,-144 421,-174"/>
<text text-anchor="start" x="325" y="-162" font-family="Helvetica,sans-Serif" font-size="10.00">detail::tm_writer::</text>
<text text-anchor="middle" x="369" y="-151" font-family="Helvetica,sans-Serif" font-size="10.00">iso_year_weeks</text>
</a>
</g>
</g>
<!-- Node3&#45;&gt;Node5 -->
<g id="edge4_Node000003_Node000005" class="edge">
<title>Node3&#45;&gt;Node5</title>
<g id="a_edge4_Node000003_Node000005"><a xlink:title=" ">
<path fill="none" stroke="#63b8ff" d="M266.77,-126.06C281.18,-130.75 297.23,-135.97 312.23,-140.85"/>
<polygon fill="#63b8ff" stroke="#63b8ff" points="311.31,-144.23 321.9,-144 313.47,-137.57 311.31,-144.23"/>
</a>
</g>
</g>
<!-- Node6 -->
<g id="Node000006" class="node">
<title>Node6</title>
<g id="a_Node000006"><a xlink:href="classdetail_1_1tm__writer.html#a1b267d2dee9041f4858847d49d87dabf" target="_top" xlink:title=" ">
<polygon fill="white" stroke="#666666" points="421,-126 317,-126 317,-96 421,-96 421,-126"/>
<text text-anchor="start" x="325" y="-114" font-family="Helvetica,sans-Serif" font-size="10.00">detail::tm_writer::</text>
<text text-anchor="middle" x="369" y="-103" font-family="Helvetica,sans-Serif" font-size="10.00">tm_wday</text>
</a>
</g>
</g>
<!-- Node3&#45;&gt;Node6 -->
<g id="edge5_Node000003_Node000006" class="edge">
<title>Node3&#45;&gt;Node6</title>
<g id="a_edge5_Node000003_Node000006"><a xlink:title=" ">
<path fill="none" stroke="#63b8ff" d="M281.35,-111C289.7,-111 298.27,-111 306.63,-111"/>
<polygon fill="#63b8ff" stroke="#63b8ff" points="306.69,-114.5 316.69,-111 306.69,-107.5 306.69,-114.5"/>
</a>
</g>
</g>
<!-- Node7 -->
<g id="Node000007" class="node">
<title>Node7</title>
<g id="a_Node000007"><a xlink:href="classdetail_1_1tm__writer.html#ad3f344b40cfb8d03c73022000f799c72" target="_top" xlink:title=" ">
<polygon fill="white" stroke="#666666" points="421,-78 317,-78 317,-48 421,-48 421,-78"/>
<text text-anchor="start" x="325" y="-66" font-family="Helvetica,sans-Serif" font-size="10.00">detail::tm_writer::</text>
<text text-anchor="middle" x="369" y="-55" font-family="Helvetica,sans-Serif" font-size="10.00">tm_yday</text>
</a>
</g>
</g>
<!-- Node3&#45;&gt;Node7 -->
<g id="edge6_Node000003_Node000007" class="edge">
<title>Node3&#45;&gt;Node7</title>
<g id="a_edge6_Node000003_Node000007"><a xlink:title=" ">
<path fill="none" stroke="#63b8ff" d="M266.77,-95.94C281.18,-91.25 297.23,-86.03 312.23,-81.15"/>
<polygon fill="#63b8ff" stroke="#63b8ff" points="313.47,-84.43 321.9,-78 311.31,-77.77 313.47,-84.43"/>
</a>
</g>
</g>
<!-- Node8 -->
<g id="Node000008" class="node">
<title>Node8</title>
<g id="a_Node000008"><a xlink:href="classdetail_1_1tm__writer.html#a82bed31c275dcb4710557360e5d3ab58" target="_top" xlink:title=" ">
<polygon fill="white" stroke="#666666" points="421,-30 317,-30 317,0 421,0 421,-30"/>
<text text-anchor="start" x="325" y="-18" font-family="Helvetica,sans-Serif" font-size="10.00">detail::tm_writer::</text>
<text text-anchor="middle" x="369" y="-7" font-family="Helvetica,sans-Serif" font-size="10.00">tm_year</text>
</a>
</g>
</g>
<!-- Node3&#45;&gt;Node8 -->
<g id="edge7_Node000003_Node000008" class="edge">
<title>Node3&#45;&gt;Node8</title>
<g id="a_edge7_Node000003_Node000008"><a xlink:title=" ">
<path fill="none" stroke="#63b8ff" d="M238.58,-95.77C257.41,-80.33 288.14,-56.31 317,-39 319.44,-37.54 321.98,-36.1 324.57,-34.69"/>
<polygon fill="#63b8ff" stroke="#63b8ff" points="326.21,-37.78 333.49,-30.08 323,-31.57 326.21,-37.78"/>
</a>
</g>
</g>
</g>
</svg>
