<?xml version="1.0" encoding="UTF-8" standalone="no"?>
<!DOCTYPE svg PUBLIC "-//W3C//DTD SVG 1.1//EN"
 "http://www.w3.org/Graphics/SVG/1.1/DTD/svg11.dtd">
<!-- Generated by graphviz version 2.43.0 (0)
 -->
<!-- Title: detail::buffer::data Pages: 1 -->
<svg width="745pt" height="535pt"
 viewBox="0.00 0.00 745.00 534.50" xmlns="http://www.w3.org/2000/svg" xmlns:xlink="http://www.w3.org/1999/xlink">
<g id="graph0" class="graph" transform="scale(1 1) rotate(0) translate(4 530.5)">
<title>detail::buffer::data</title>
<!-- Node1 -->
<g id="Node000001" class="node">
<title>Node1</title>
<g id="a_Node000001"><a xlink:title="Returns a pointer to the buffer data (not null&#45;terminated).">
<polygon fill="#999999" stroke="#666666" points="737,-259 630,-259 630,-240 737,-240 737,-259"/>
<text text-anchor="middle" x="683.5" y="-247" font-family="Helvetica,sans-Serif" font-size="10.00">detail::buffer::data</text>
</a>
</g>
</g>
<!-- Node2 -->
<g id="Node000002" class="node">
<title>Node2</title>
<g id="a_Node000002"><a xlink:href="classdetail_1_1bigint.html#a05de3beb2b414dbfc0bbe16b5deba657" target="_top" xlink:title=" ">
<polygon fill="white" stroke="#666666" points="581.5,-519 473.5,-519 473.5,-500 581.5,-500 581.5,-519"/>
<text text-anchor="middle" x="527.5" y="-507" font-family="Helvetica,sans-Serif" font-size="10.00">detail::bigint::align</text>
</a>
</g>
</g>
<!-- Node1&#45;&gt;Node2 -->
<g id="edge1_Node000001_Node000002" class="edge">
<title>Node1&#45;&gt;Node2</title>
<g id="a_edge1_Node000001_Node000002"><a xlink:title=" ">
<path fill="none" stroke="#63b8ff" d="M680.28,-269.41C674.34,-313.55 654.22,-420.57 594,-482.5 586.45,-490.26 576.36,-495.88 566.35,-499.9"/>
<polygon fill="#63b8ff" stroke="#63b8ff" points="683.76,-269.74 681.52,-259.39 676.81,-268.88 683.76,-269.74"/>
</a>
</g>
</g>
<!-- Node4 -->
<g id="Node000004" class="node">
<title>Node4</title>
<g id="a_Node000004"><a xlink:href="namespacedetail.html#af3eae8fdebff07dc2edca668eaf2f8bd" target="_top" xlink:title=" ">
<polygon fill="white" stroke="#666666" points="268,-459 146,-459 146,-440 268,-440 268,-459"/>
<text text-anchor="middle" x="207" y="-447" font-family="Helvetica,sans-Serif" font-size="10.00">detail::format_dragon</text>
</a>
</g>
</g>
<!-- Node1&#45;&gt;Node4 -->
<g id="edge10_Node000001_Node000004" class="edge">
<title>Node1&#45;&gt;Node4</title>
<g id="a_edge10_Node000001_Node000004"><a xlink:title=" ">
<path fill="none" stroke="#63b8ff" d="M679.67,-269.41C672.89,-308.9 651.75,-396.75 594,-436.5 483.94,-512.24 311.37,-477.96 240.27,-459.03"/>
<polygon fill="#63b8ff" stroke="#63b8ff" points="683.14,-269.85 681.25,-259.43 676.23,-268.76 683.14,-269.85"/>
</a>
</g>
</g>
<!-- Node5 -->
<g id="Node000005" class="node">
<title>Node5</title>
<g id="a_Node000005"><a xlink:href="namespacedetail.html#add861c358ea50b446b1a06080adb44ba" target="_top" xlink:title=" ">
<polygon fill="white" stroke="#666666" points="110,-421 0,-421 0,-402 110,-402 110,-421"/>
<text text-anchor="middle" x="55" y="-409" font-family="Helvetica,sans-Serif" font-size="10.00">detail::format_float</text>
</a>
</g>
</g>
<!-- Node1&#45;&gt;Node5 -->
<g id="edge11_Node000001_Node000005" class="edge">
<title>Node1&#45;&gt;Node5</title>
<g id="a_edge11_Node000001_Node000005"><a xlink:title=" ">
<path fill="none" stroke="#63b8ff" d="M675.23,-268.42C663.18,-296.89 636.13,-349.9 594,-373.5 552.54,-396.73 238.54,-407.01 110.3,-410.27"/>
<polygon fill="#63b8ff" stroke="#63b8ff" points="678.48,-269.73 678.99,-259.15 671.99,-267.1 678.48,-269.73"/>
</a>
</g>
</g>
<!-- Node6 -->
<g id="Node000006" class="node">
<title>Node6</title>
<g id="a_Node000006"><a xlink:href="classdetail_1_1bigint.html#a5217988ca45e71d3bcc78d7959fbb315" target="_top" xlink:title=" ">
<polygon fill="white" stroke="#666666" points="422.5,-440 306.5,-440 306.5,-421 422.5,-421 422.5,-440"/>
<text text-anchor="middle" x="364.5" y="-428" font-family="Helvetica,sans-Serif" font-size="10.00">detail::bigint::assign</text>
</a>
</g>
</g>
<!-- Node1&#45;&gt;Node6 -->
<g id="edge5_Node000001_Node000006" class="edge">
<title>Node1&#45;&gt;Node6</title>
<g id="a_edge5_Node000001_Node000006"><a xlink:title=" ">
<path fill="none" stroke="#63b8ff" d="M677.72,-269.19C668.24,-303.57 643.56,-373.95 594,-406.5 543.32,-439.78 472.27,-442 422.9,-438.31"/>
<polygon fill="#63b8ff" stroke="#63b8ff" points="681.14,-269.95 680.27,-259.39 674.36,-268.19 681.14,-269.95"/>
</a>
</g>
</g>
<!-- Node7 -->
<g id="Node000007" class="node">
<title>Node7</title>
<g id="a_Node000007"><a xlink:href="namespacedetail.html#a88d633182ea0ffa012f988da3ec66c88" target="_top" xlink:title=" ">
<polygon fill="white" stroke="#666666" points="590,-364 465,-364 465,-345 590,-345 590,-364"/>
<text text-anchor="middle" x="527.5" y="-352" font-family="Helvetica,sans-Serif" font-size="10.00">detail::do_report_error</text>
</a>
</g>
</g>
<!-- Node1&#45;&gt;Node7 -->
<g id="edge7_Node000001_Node000007" class="edge">
<title>Node1&#45;&gt;Node7</title>
<g id="a_edge7_Node000001_Node000007"><a xlink:title=" ">
<path fill="none" stroke="#63b8ff" d="M668.92,-267.11C653,-286.58 624.84,-317.57 594,-335.5 587.45,-339.31 580.08,-342.4 572.71,-344.9"/>
<polygon fill="#63b8ff" stroke="#63b8ff" points="671.84,-269.06 675.34,-259.06 666.37,-264.7 671.84,-269.06"/>
</a>
</g>
</g>
<!-- Node9 -->
<g id="Node000009" class="node">
<title>Node9</title>
<g id="a_Node000009"><a xlink:href="structformatter_3_01std_1_1error__code_01_4.html#a470063b0427cac0f4618f8efe71656ac" target="_top" xlink:title=" ">
<polygon fill="white" stroke="#666666" points="587,-326.5 468,-326.5 468,-296.5 587,-296.5 587,-326.5"/>
<text text-anchor="start" x="476" y="-314.5" font-family="Helvetica,sans-Serif" font-size="10.00">formatter&lt; std::error</text>
<text text-anchor="middle" x="527.5" y="-303.5" font-family="Helvetica,sans-Serif" font-size="10.00">_code &gt;::format</text>
</a>
</g>
</g>
<!-- Node1&#45;&gt;Node9 -->
<g id="edge9_Node000001_Node000009" class="edge">
<title>Node1&#45;&gt;Node9</title>
<g id="a_edge9_Node000001_Node000009"><a xlink:title=" ">
<path fill="none" stroke="#63b8ff" d="M651.77,-263.18C634.82,-270.6 613.35,-279.81 594,-287.5 586.46,-290.5 578.38,-293.57 570.56,-296.47"/>
<polygon fill="#63b8ff" stroke="#63b8ff" points="653.43,-266.27 661.18,-259.04 650.61,-259.87 653.43,-266.27"/>
</a>
</g>
</g>
<!-- Node10 -->
<g id="Node000010" class="node">
<title>Node10</title>
<g id="a_Node000010"><a xlink:href="compile_8h.html#aafd70447a5d15c593712be146611663d" target="_top" xlink:title=" ">
<polygon fill="white" stroke="#666666" points="547,-278 508,-278 508,-259 547,-259 547,-278"/>
<text text-anchor="middle" x="527.5" y="-266" font-family="Helvetica,sans-Serif" font-size="10.00">print</text>
</a>
</g>
</g>
<!-- Node1&#45;&gt;Node10 -->
<g id="edge12_Node000001_Node000010" class="edge">
<title>Node1&#45;&gt;Node10</title>
<g id="a_edge12_Node000001_Node000010"><a xlink:title=" ">
<path fill="none" stroke="#63b8ff" d="M619.71,-257.25C593.66,-260.46 565.37,-263.95 547.31,-266.18"/>
<polygon fill="#63b8ff" stroke="#63b8ff" points="620.44,-260.68 629.93,-255.99 619.58,-253.74 620.44,-260.68"/>
</a>
</g>
</g>
<!-- Node11 -->
<g id="Node000011" class="node">
<title>Node11</title>
<g id="a_Node000011"><a xlink:href="format_8h.html#a5ef22e73c121e5454e75a221470d3214" target="_top" xlink:title=" ">
<polygon fill="white" stroke="#666666" points="555.5,-241 499.5,-241 499.5,-222 555.5,-222 555.5,-241"/>
<text text-anchor="middle" x="527.5" y="-229" font-family="Helvetica,sans-Serif" font-size="10.00">vformat</text>
</a>
</g>
</g>
<!-- Node1&#45;&gt;Node11 -->
<g id="edge13_Node000001_Node000011" class="edge">
<title>Node1&#45;&gt;Node11</title>
<g id="a_edge13_Node000001_Node000011"><a xlink:title=" ">
<path fill="none" stroke="#63b8ff" d="M619.83,-242.17C597.53,-239.57 573.56,-236.77 555.78,-234.69"/>
<polygon fill="#63b8ff" stroke="#63b8ff" points="619.59,-245.67 629.93,-243.36 620.41,-238.72 619.59,-245.67"/>
</a>
</g>
</g>
<!-- Node12 -->
<g id="Node000012" class="node">
<title>Node12</title>
<g id="a_Node000012"><a xlink:href="xchar_8h.html#a0787317722f2961c0ee550a845cfb966" target="_top" xlink:title=" ">
<polygon fill="white" stroke="#666666" points="555.5,-204 499.5,-204 499.5,-185 555.5,-185 555.5,-204"/>
<text text-anchor="middle" x="527.5" y="-192" font-family="Helvetica,sans-Serif" font-size="10.00">vformat</text>
</a>
</g>
</g>
<!-- Node1&#45;&gt;Node12 -->
<g id="edge14_Node000001_Node000012" class="edge">
<title>Node1&#45;&gt;Node12</title>
<g id="a_edge14_Node000001_Node000012"><a xlink:title=" ">
<path fill="none" stroke="#63b8ff" d="M651.56,-235.99C634.7,-228.87 613.39,-220.23 594,-213.5 581.58,-209.19 567.62,-205.04 555.79,-201.73"/>
<polygon fill="#63b8ff" stroke="#63b8ff" points="650.35,-239.28 660.92,-239.99 653.09,-232.84 650.35,-239.28"/>
</a>
</g>
</g>
<!-- Node13 -->
<g id="Node000013" class="node">
<title>Node13</title>
<g id="a_Node000013"><a xlink:href="xchar_8h.html#ad59e14d924bf2fe1d17939ad9d8b8d4a" target="_top" xlink:title=" ">
<polygon fill="white" stroke="#666666" points="550,-167 505,-167 505,-148 550,-148 550,-167"/>
<text text-anchor="middle" x="527.5" y="-155" font-family="Helvetica,sans-Serif" font-size="10.00">vprint</text>
</a>
</g>
</g>
<!-- Node1&#45;&gt;Node13 -->
<g id="edge15_Node000001_Node000013" class="edge">
<title>Node1&#45;&gt;Node13</title>
<g id="a_edge15_Node000001_Node000013"><a xlink:title=" ">
<path fill="none" stroke="#63b8ff" d="M666.43,-232.31C649.81,-215.5 622.36,-190.35 594,-175.5 580.21,-168.28 563.23,-163.72 550.01,-161"/>
<polygon fill="#63b8ff" stroke="#63b8ff" points="664.2,-235.04 673.67,-239.8 669.24,-230.18 664.2,-235.04"/>
</a>
</g>
</g>
<!-- Node15 -->
<g id="Node000015" class="node">
<title>Node15</title>
<g id="a_Node000015"><a xlink:href="format-inl_8h.html#a3774f0f4816097d469f11407f83ee394" target="_top" xlink:title=" ">
<polygon fill="white" stroke="#666666" points="573,-130 482,-130 482,-111 573,-111 573,-130"/>
<text text-anchor="middle" x="527.5" y="-118" font-family="Helvetica,sans-Serif" font-size="10.00">vprint_buffered</text>
</a>
</g>
</g>
<!-- Node1&#45;&gt;Node15 -->
<g id="edge17_Node000001_Node000015" class="edge">
<title>Node1&#45;&gt;Node15</title>
<g id="a_edge17_Node000001_Node000015"><a xlink:title=" ">
<path fill="none" stroke="#63b8ff" d="M672.72,-230.99C658.64,-206.17 630.33,-162.45 594,-138.5 587.7,-134.35 580.45,-131.14 573.13,-128.68"/>
<polygon fill="#63b8ff" stroke="#63b8ff" points="669.67,-232.71 677.56,-239.78 675.8,-229.34 669.67,-232.71"/>
</a>
</g>
</g>
<!-- Node16 -->
<g id="Node000016" class="node">
<title>Node16</title>
<g id="a_Node000016"><a xlink:href="format-inl_8h.html#a71033730e1d1c2c72b7905f21929df93" target="_top" xlink:title=" ">
<polygon fill="white" stroke="#666666" points="554.5,-93 500.5,-93 500.5,-74 554.5,-74 554.5,-93"/>
<text text-anchor="middle" x="527.5" y="-81" font-family="Helvetica,sans-Serif" font-size="10.00">vprintln</text>
</a>
</g>
</g>
<!-- Node1&#45;&gt;Node16 -->
<g id="edge18_Node000001_Node000016" class="edge">
<title>Node1&#45;&gt;Node16</title>
<g id="a_edge18_Node000001_Node000016"><a xlink:title=" ">
<path fill="none" stroke="#63b8ff" d="M676.22,-229.95C664.98,-198.1 638.34,-135.21 594,-101.5 582.73,-92.94 567.64,-88.44 554.78,-86.09"/>
<polygon fill="#63b8ff" stroke="#63b8ff" points="673.04,-231.47 679.56,-239.82 679.67,-229.22 673.04,-231.47"/>
</a>
</g>
</g>
<!-- Node17 -->
<g id="Node000017" class="node">
<title>Node17</title>
<g id="a_Node000017"><a xlink:href="namespacedetail.html#a53f64cca161818cc3e0d8ebce2a36335" target="_top" xlink:title=" ">
<polygon fill="white" stroke="#666666" points="574,-56 481,-56 481,-37 574,-37 574,-56"/>
<text text-anchor="middle" x="527.5" y="-44" font-family="Helvetica,sans-Serif" font-size="10.00">detail::write_int</text>
</a>
</g>
</g>
<!-- Node1&#45;&gt;Node17 -->
<g id="edge19_Node000001_Node000017" class="edge">
<title>Node1&#45;&gt;Node17</title>
<g id="a_edge19_Node000001_Node000017"><a xlink:title=" ">
<path fill="none" stroke="#63b8ff" d="M678.75,-229.92C670.46,-192.09 646.95,-108.78 594,-64.5 588.3,-59.73 581.44,-56.22 574.33,-53.64"/>
<polygon fill="#63b8ff" stroke="#63b8ff" points="675.32,-230.63 680.77,-239.71 682.18,-229.21 675.32,-230.63"/>
</a>
</g>
</g>
<!-- Node18 -->
<g id="Node000018" class="node">
<title>Node18</title>
<g id="a_Node000018"><a xlink:href="namespacedetail.html#a289cb079ced65a67e9c17bef575ece59" target="_top" xlink:title=" ">
<polygon fill="white" stroke="#666666" points="594,-19 461,-19 461,0 594,0 594,-19"/>
<text text-anchor="middle" x="527.5" y="-7" font-family="Helvetica,sans-Serif" font-size="10.00">detail::write_significand</text>
</a>
</g>
</g>
<!-- Node1&#45;&gt;Node18 -->
<g id="edge20_Node000001_Node000018" class="edge">
<title>Node1&#45;&gt;Node18</title>
<g id="a_edge20_Node000001_Node000018"><a xlink:title=" ">
<path fill="none" stroke="#63b8ff" d="M680.46,-229.7C674.92,-186.37 655.6,-82.61 594,-27.5 590.22,-24.12 585.86,-21.37 581.23,-19.13"/>
<polygon fill="#63b8ff" stroke="#63b8ff" points="677,-230.26 681.64,-239.79 683.96,-229.45 677,-230.26"/>
</a>
</g>
</g>
<!-- Node3 -->
<g id="Node000003" class="node">
<title>Node3</title>
<g id="a_Node000003"><a xlink:href="classdetail_1_1bigint.html#afb6b3fc8ea4dfc1c18792e7228190c67" target="_top" xlink:title=" ">
<polygon fill="white" stroke="#666666" points="425,-526.5 304,-526.5 304,-496.5 425,-496.5 425,-526.5"/>
<text text-anchor="start" x="312" y="-514.5" font-family="Helvetica,sans-Serif" font-size="10.00">detail::bigint::divmod</text>
<text text-anchor="middle" x="364.5" y="-503.5" font-family="Helvetica,sans-Serif" font-size="10.00">_assign</text>
</a>
</g>
</g>
<!-- Node2&#45;&gt;Node3 -->
<g id="edge2_Node000002_Node000003" class="edge">
<title>Node2&#45;&gt;Node3</title>
<g id="a_edge2_Node000002_Node000003"><a xlink:title=" ">
<path fill="none" stroke="#63b8ff" d="M462.99,-510.29C450.47,-510.44 437.38,-510.61 425,-510.76"/>
<polygon fill="#63b8ff" stroke="#63b8ff" points="463.38,-513.78 473.34,-510.16 463.29,-506.78 463.38,-513.78"/>
</a>
</g>
</g>
<!-- Node3&#45;&gt;Node4 -->
<g id="edge3_Node000003_Node000004" class="edge">
<title>Node3&#45;&gt;Node4</title>
<g id="a_edge3_Node000003_Node000004"><a xlink:title=" ">
<path fill="none" stroke="#63b8ff" d="M316.33,-492.69C288.57,-481.63 254.63,-468.09 232.22,-459.16"/>
<polygon fill="#63b8ff" stroke="#63b8ff" points="315.27,-496.04 325.86,-496.49 317.87,-489.54 315.27,-496.04"/>
</a>
</g>
</g>
<!-- Node4&#45;&gt;Node5 -->
<g id="edge4_Node000004_Node000005" class="edge">
<title>Node4&#45;&gt;Node5</title>
<g id="a_edge4_Node000004_Node000005"><a xlink:title=" ">
<path fill="none" stroke="#63b8ff" d="M158.19,-437.39C137.3,-432.1 113.15,-425.98 93.58,-421.02"/>
<polygon fill="#63b8ff" stroke="#63b8ff" points="157.6,-440.85 168.15,-439.91 159.31,-434.06 157.6,-440.85"/>
</a>
</g>
</g>
<!-- Node6&#45;&gt;Node4 -->
<g id="edge6_Node000006_Node000004" class="edge">
<title>Node6&#45;&gt;Node4</title>
<g id="a_edge6_Node000006_Node000004"><a xlink:title=" ">
<path fill="none" stroke="#63b8ff" d="M296.4,-438.7C287.01,-439.85 277.4,-441.02 268.15,-442.15"/>
<polygon fill="#63b8ff" stroke="#63b8ff" points="296.98,-442.15 306.48,-437.47 296.13,-435.21 296.98,-442.15"/>
</a>
</g>
</g>
<!-- Node8 -->
<g id="Node000008" class="node">
<title>Node8</title>
<g id="a_Node000008"><a xlink:href="format-inl_8h.html#af135c0ecc93e827e4ef51b18a4b0da74" target="_top" xlink:title=" ">
<polygon fill="white" stroke="#666666" points="422.5,-364 306.5,-364 306.5,-345 422.5,-345 422.5,-364"/>
<text text-anchor="middle" x="364.5" y="-352" font-family="Helvetica,sans-Serif" font-size="10.00">report_system_error</text>
</a>
</g>
</g>
<!-- Node7&#45;&gt;Node8 -->
<g id="edge8_Node000007_Node000008" class="edge">
<title>Node7&#45;&gt;Node8</title>
<g id="a_edge8_Node000007_Node000008"><a xlink:title=" ">
<path fill="none" stroke="#63b8ff" d="M454.55,-354.5C443.86,-354.5 432.96,-354.5 422.63,-354.5"/>
<polygon fill="#63b8ff" stroke="#63b8ff" points="454.71,-358 464.71,-354.5 454.71,-351 454.71,-358"/>
</a>
</g>
</g>
<!-- Node14 -->
<g id="Node000014" class="node">
<title>Node14</title>
<g id="a_Node000014"><a xlink:href="xchar_8h.html#ab357e28df4fee8293636aaf7a1662508" target="_top" xlink:title=" ">
<polygon fill="white" stroke="#666666" points="387,-167 342,-167 342,-148 387,-148 387,-167"/>
<text text-anchor="middle" x="364.5" y="-155" font-family="Helvetica,sans-Serif" font-size="10.00">vprint</text>
</a>
</g>
</g>
<!-- Node13&#45;&gt;Node14 -->
<g id="edge16_Node000013_Node000014" class="edge">
<title>Node13&#45;&gt;Node14</title>
<g id="a_edge16_Node000013_Node000014"><a xlink:title=" ">
<path fill="none" stroke="#63b8ff" d="M494.67,-157.5C462.84,-157.5 414.77,-157.5 387.13,-157.5"/>
<polygon fill="#63b8ff" stroke="#63b8ff" points="494.79,-161 504.79,-157.5 494.79,-154 494.79,-161"/>
</a>
</g>
</g>
</g>
</svg>
