<?xml version="1.0" encoding="UTF-8" standalone="no"?>
<!DOCTYPE svg PUBLIC "-//W3C//DTD SVG 1.1//EN"
 "http://www.w3.org/Graphics/SVG/1.1/DTD/svg11.dtd">
<!-- Generated by graphviz version 2.43.0 (0)
 -->
<!-- Title: cxxopts::Value::clone Pages: 1 -->
<svg width="1342pt" height="172pt"
 viewBox="0.00 0.00 1342.00 172.00" xmlns="http://www.w3.org/2000/svg" xmlns:xlink="http://www.w3.org/1999/xlink">
<g id="graph0" class="graph" transform="scale(1 1) rotate(0) translate(4 168)">
<title>cxxopts::Value::clone</title>
<!-- Node1 -->
<g id="Node000001" class="node">
<title>Node1</title>
<g id="a_Node000001"><a xlink:title=" ">
<polygon fill="#999999" stroke="#666666" points="1334,-81.5 1215,-81.5 1215,-62.5 1334,-62.5 1334,-81.5"/>
<text text-anchor="middle" x="1274.5" y="-69.5" font-family="Helvetica,sans-Serif" font-size="10.00">cxxopts::Value::clone</text>
</a>
</g>
</g>
<!-- Node2 -->
<g id="Node000002" class="node">
<title>Node2</title>
<g id="a_Node000002"><a xlink:href="classcxxopts_1_1OptionDetails.html#a3ff160262711ae6eebb41649491e75e6" target="_top" xlink:title=" ">
<polygon fill="white" stroke="#666666" points="1179,-111 1052,-111 1052,-81 1179,-81 1179,-111"/>
<text text-anchor="start" x="1060" y="-99" font-family="Helvetica,sans-Serif" font-size="10.00">cxxopts::OptionDetails</text>
<text text-anchor="middle" x="1115.5" y="-88" font-family="Helvetica,sans-Serif" font-size="10.00">::make_storage</text>
</a>
</g>
</g>
<!-- Node1&#45;&gt;Node2 -->
<g id="edge1_Node000001_Node000002" class="edge">
<title>Node1&#45;&gt;Node2</title>
<g id="a_edge1_Node000001_Node000002"><a xlink:title=" ">
<path fill="none" stroke="#63b8ff" d="M1204.43,-82.56C1196.02,-83.84 1187.46,-85.15 1179.15,-86.42"/>
<polygon fill="#63b8ff" stroke="#63b8ff" points="1205.24,-85.98 1214.59,-81 1204.18,-79.06 1205.24,-85.98"/>
</a>
</g>
</g>
<!-- Node15 -->
<g id="Node000015" class="node">
<title>Node15</title>
<g id="a_Node000015"><a xlink:href="classcxxopts_1_1OptionDetails.html#a5837c0d007fd729347f594b1227648be" target="_top" xlink:title=" ">
<polygon fill="white" stroke="#666666" points="1179,-63 1052,-63 1052,-33 1179,-33 1179,-63"/>
<text text-anchor="start" x="1060" y="-51" font-family="Helvetica,sans-Serif" font-size="10.00">cxxopts::OptionDetails</text>
<text text-anchor="middle" x="1115.5" y="-40" font-family="Helvetica,sans-Serif" font-size="10.00">::OptionDetails</text>
</a>
</g>
</g>
<!-- Node1&#45;&gt;Node15 -->
<g id="edge17_Node000001_Node000015" class="edge">
<title>Node1&#45;&gt;Node15</title>
<g id="a_edge17_Node000001_Node000015"><a xlink:title=" ">
<path fill="none" stroke="#63b8ff" d="M1204.43,-61.44C1196.02,-60.16 1187.46,-58.85 1179.15,-57.58"/>
<polygon fill="#63b8ff" stroke="#63b8ff" points="1204.18,-64.94 1214.59,-63 1205.24,-58.02 1204.18,-64.94"/>
</a>
</g>
</g>
<!-- Node3 -->
<g id="Node000003" class="node">
<title>Node3</title>
<g id="a_Node000003"><a xlink:href="classcxxopts_1_1OptionValue.html#a5e62e7e64679e627ba8946c36a559f2a" target="_top" xlink:title=" ">
<polygon fill="white" stroke="#666666" points="1016,-111 897,-111 897,-81 1016,-81 1016,-111"/>
<text text-anchor="start" x="905" y="-99" font-family="Helvetica,sans-Serif" font-size="10.00">cxxopts::OptionValue</text>
<text text-anchor="middle" x="956.5" y="-88" font-family="Helvetica,sans-Serif" font-size="10.00">::ensure_value</text>
</a>
</g>
</g>
<!-- Node2&#45;&gt;Node3 -->
<g id="edge2_Node000002_Node000003" class="edge">
<title>Node2&#45;&gt;Node3</title>
<g id="a_edge2_Node000002_Node000003"><a xlink:title=" ">
<path fill="none" stroke="#63b8ff" d="M1041.95,-96C1033.33,-96 1024.61,-96 1016.21,-96"/>
<polygon fill="#63b8ff" stroke="#63b8ff" points="1042,-99.5 1052,-96 1042,-92.5 1042,-99.5"/>
</a>
</g>
</g>
<!-- Node4 -->
<g id="Node000004" class="node">
<title>Node4</title>
<g id="a_Node000004"><a xlink:href="classcxxopts_1_1OptionValue.html#aeec2951c8666eb4f7f562cf526fb656b" target="_top" xlink:title=" ">
<polygon fill="white" stroke="#666666" points="861,-150.5 718,-150.5 718,-131.5 861,-131.5 861,-150.5"/>
<text text-anchor="middle" x="789.5" y="-138.5" font-family="Helvetica,sans-Serif" font-size="10.00">cxxopts::OptionValue::add</text>
</a>
</g>
</g>
<!-- Node3&#45;&gt;Node4 -->
<g id="edge3_Node000003_Node000004" class="edge">
<title>Node3&#45;&gt;Node4</title>
<g id="a_edge3_Node000003_Node000004"><a xlink:title=" ">
<path fill="none" stroke="#63b8ff" d="M890.38,-113.76C868.18,-119.81 844.22,-126.35 825.33,-131.5"/>
<polygon fill="#63b8ff" stroke="#63b8ff" points="891.37,-117.12 900.1,-111.11 889.53,-110.36 891.37,-117.12"/>
</a>
</g>
</g>
<!-- Node10 -->
<g id="Node000010" class="node">
<title>Node10</title>
<g id="a_Node000010"><a xlink:href="classcxxopts_1_1OptionValue.html#a69645a46405198eea09f45137f1bcf8b" target="_top" xlink:title=" ">
<polygon fill="white" stroke="#666666" points="849,-111 730,-111 730,-81 849,-81 849,-111"/>
<text text-anchor="start" x="738" y="-99" font-family="Helvetica,sans-Serif" font-size="10.00">cxxopts::OptionValue</text>
<text text-anchor="middle" x="789.5" y="-88" font-family="Helvetica,sans-Serif" font-size="10.00">::parse</text>
</a>
</g>
</g>
<!-- Node3&#45;&gt;Node10 -->
<g id="edge9_Node000003_Node000010" class="edge">
<title>Node3&#45;&gt;Node10</title>
<g id="a_edge9_Node000003_Node000010"><a xlink:title=" ">
<path fill="none" stroke="#63b8ff" d="M886.56,-96C874.15,-96 861.32,-96 849.23,-96"/>
<polygon fill="#63b8ff" stroke="#63b8ff" points="886.86,-99.5 896.86,-96 886.86,-92.5 886.86,-99.5"/>
</a>
</g>
</g>
<!-- Node13 -->
<g id="Node000013" class="node">
<title>Node13</title>
<g id="a_Node000013"><a xlink:href="classcxxopts_1_1OptionValue.html#a58f4dc95f2a36c01f64c026baae6795f" target="_top" xlink:title=" ">
<polygon fill="white" stroke="#666666" points="849,-54 730,-54 730,-24 849,-24 849,-54"/>
<text text-anchor="start" x="738" y="-42" font-family="Helvetica,sans-Serif" font-size="10.00">cxxopts::OptionValue</text>
<text text-anchor="middle" x="789.5" y="-31" font-family="Helvetica,sans-Serif" font-size="10.00">::parse_default</text>
</a>
</g>
</g>
<!-- Node3&#45;&gt;Node13 -->
<g id="edge14_Node000003_Node000013" class="edge">
<title>Node3&#45;&gt;Node13</title>
<g id="a_edge14_Node000003_Node000013"><a xlink:title=" ">
<path fill="none" stroke="#63b8ff" d="M902.19,-77.58C880.22,-69.99 855.07,-61.3 834.2,-54.1"/>
<polygon fill="#63b8ff" stroke="#63b8ff" points="901.12,-80.92 911.72,-80.87 903.41,-74.3 901.12,-80.92"/>
</a>
</g>
</g>
<!-- Node5 -->
<g id="Node000005" class="node">
<title>Node5</title>
<g id="a_Node000005"><a xlink:href="classcxxopts_1_1OptionParser.html#a6445f8081bffcb7ab31d241a200b9f04" target="_top" xlink:title=" ">
<polygon fill="white" stroke="#666666" points="682,-161 560,-161 560,-131 682,-131 682,-161"/>
<text text-anchor="start" x="568" y="-149" font-family="Helvetica,sans-Serif" font-size="10.00">cxxopts::OptionParser</text>
<text text-anchor="middle" x="621" y="-138" font-family="Helvetica,sans-Serif" font-size="10.00">::add_to_option</text>
</a>
</g>
</g>
<!-- Node4&#45;&gt;Node5 -->
<g id="edge4_Node000004_Node000005" class="edge">
<title>Node4&#45;&gt;Node5</title>
<g id="a_edge4_Node000004_Node000005"><a xlink:title=" ">
<path fill="none" stroke="#63b8ff" d="M707.81,-143.42C699.19,-143.68 690.53,-143.94 682.2,-144.19"/>
<polygon fill="#63b8ff" stroke="#63b8ff" points="708,-146.92 717.89,-143.12 707.79,-139.92 708,-146.92"/>
</a>
</g>
</g>
<!-- Node6 -->
<g id="Node000006" class="node">
<title>Node6</title>
<g id="a_Node000006"><a xlink:href="classcxxopts_1_1OptionParser.html#a4d595d8f6f34760bc2248d1b96af53a4" target="_top" xlink:title=" ">
<polygon fill="white" stroke="#666666" points="524,-164 402,-164 402,-134 524,-134 524,-164"/>
<text text-anchor="start" x="410" y="-152" font-family="Helvetica,sans-Serif" font-size="10.00">cxxopts::OptionParser</text>
<text text-anchor="middle" x="463" y="-141" font-family="Helvetica,sans-Serif" font-size="10.00">::consume_positional</text>
</a>
</g>
</g>
<!-- Node5&#45;&gt;Node6 -->
<g id="edge5_Node000005_Node000006" class="edge">
<title>Node5&#45;&gt;Node6</title>
<g id="a_edge5_Node000005_Node000006"><a xlink:title=" ">
<path fill="none" stroke="#63b8ff" d="M549.46,-147.36C541.01,-147.52 532.44,-147.68 524.15,-147.84"/>
<polygon fill="#63b8ff" stroke="#63b8ff" points="549.76,-150.85 559.69,-147.16 549.62,-143.85 549.76,-150.85"/>
</a>
</g>
</g>
<!-- Node7 -->
<g id="Node000007" class="node">
<title>Node7</title>
<g id="a_Node000007"><a xlink:href="classcxxopts_1_1OptionParser.html#a4218816ce33c211b54acb9e71603ea0b" target="_top" xlink:title=" ">
<polygon fill="white" stroke="#666666" points="366,-99 244,-99 244,-69 366,-69 366,-99"/>
<text text-anchor="start" x="252" y="-87" font-family="Helvetica,sans-Serif" font-size="10.00">cxxopts::OptionParser</text>
<text text-anchor="middle" x="305" y="-76" font-family="Helvetica,sans-Serif" font-size="10.00">::parse</text>
</a>
</g>
</g>
<!-- Node6&#45;&gt;Node7 -->
<g id="edge6_Node000006_Node000007" class="edge">
<title>Node6&#45;&gt;Node7</title>
<g id="a_edge6_Node000006_Node000007"><a xlink:title=" ">
<path fill="none" stroke="#63b8ff" d="M416.36,-129.98C392.76,-120.15 364.34,-108.31 342.26,-99.11"/>
<polygon fill="#63b8ff" stroke="#63b8ff" points="415.24,-133.31 425.82,-133.92 417.93,-126.85 415.24,-133.31"/>
</a>
</g>
</g>
<!-- Node8 -->
<g id="Node000008" class="node">
<title>Node8</title>
<g id="a_Node000008"><a xlink:href="classcxxopts_1_1Options.html#a3e740564cc4c991078f1451e1fcd082b" target="_top" xlink:title=" ">
<polygon fill="white" stroke="#666666" points="208,-93.5 77,-93.5 77,-74.5 208,-74.5 208,-93.5"/>
<text text-anchor="middle" x="142.5" y="-81.5" font-family="Helvetica,sans-Serif" font-size="10.00">cxxopts::Options::parse</text>
</a>
</g>
</g>
<!-- Node7&#45;&gt;Node8 -->
<g id="edge7_Node000007_Node000008" class="edge">
<title>Node7&#45;&gt;Node8</title>
<g id="a_edge7_Node000007_Node000008"><a xlink:title=" ">
<path fill="none" stroke="#63b8ff" d="M233.55,-84C225.08,-84 216.47,-84 208.09,-84"/>
<polygon fill="#63b8ff" stroke="#63b8ff" points="233.78,-87.5 243.78,-84 233.78,-80.5 233.78,-87.5"/>
</a>
</g>
</g>
<!-- Node9 -->
<g id="Node000009" class="node">
<title>Node9</title>
<g id="a_Node000009"><a xlink:href="receiver-normal_8cpp.html#a3c04138a5bfe5d72780bb7e82a18e627" target="_top" xlink:title=" ">
<polygon fill="white" stroke="#666666" points="41,-93.5 0,-93.5 0,-74.5 41,-74.5 41,-93.5"/>
<text text-anchor="middle" x="20.5" y="-81.5" font-family="Helvetica,sans-Serif" font-size="10.00">main</text>
</a>
</g>
</g>
<!-- Node8&#45;&gt;Node9 -->
<g id="edge8_Node000008_Node000009" class="edge">
<title>Node8&#45;&gt;Node9</title>
<g id="a_edge8_Node000008_Node000009"><a xlink:title=" ">
<path fill="none" stroke="#63b8ff" d="M66.91,-84C57.43,-84 48.46,-84 41.05,-84"/>
<polygon fill="#63b8ff" stroke="#63b8ff" points="66.93,-87.5 76.93,-84 66.93,-80.5 66.93,-87.5"/>
</a>
</g>
</g>
<!-- Node11 -->
<g id="Node000011" class="node">
<title>Node11</title>
<g id="a_Node000011"><a xlink:href="classcxxopts_1_1OptionParser.html#a07db7b6bb2095df7b75b50ed2311ffe5" target="_top" xlink:title=" ">
<polygon fill="white" stroke="#666666" points="682,-111 560,-111 560,-81 682,-81 682,-111"/>
<text text-anchor="start" x="568" y="-99" font-family="Helvetica,sans-Serif" font-size="10.00">cxxopts::OptionParser</text>
<text text-anchor="middle" x="621" y="-88" font-family="Helvetica,sans-Serif" font-size="10.00">::parse_option</text>
</a>
</g>
</g>
<!-- Node10&#45;&gt;Node11 -->
<g id="edge10_Node000010_Node000011" class="edge">
<title>Node10&#45;&gt;Node11</title>
<g id="a_edge10_Node000010_Node000011"><a xlink:title=" ">
<path fill="none" stroke="#63b8ff" d="M719.51,-96C707.11,-96 694.27,-96 682.14,-96"/>
<polygon fill="#63b8ff" stroke="#63b8ff" points="719.8,-99.5 729.8,-96 719.8,-92.5 719.8,-99.5"/>
</a>
</g>
</g>
<!-- Node11&#45;&gt;Node7 -->
<g id="edge13_Node000011_Node000007" class="edge">
<title>Node11&#45;&gt;Node7</title>
<g id="a_edge13_Node000011_Node000007"><a xlink:title=" ">
<path fill="none" stroke="#63b8ff" d="M549.78,-93.32C494.63,-91.21 418.64,-88.3 366.23,-86.3"/>
<polygon fill="#63b8ff" stroke="#63b8ff" points="549.7,-96.82 559.83,-93.7 549.97,-89.82 549.7,-96.82"/>
</a>
</g>
</g>
<!-- Node12 -->
<g id="Node000012" class="node">
<title>Node12</title>
<g id="a_Node000012"><a xlink:href="classcxxopts_1_1OptionParser.html#a0c093ba32746de7c3b08715eab961aff" target="_top" xlink:title=" ">
<polygon fill="white" stroke="#666666" points="524,-78 402,-78 402,-48 524,-48 524,-78"/>
<text text-anchor="start" x="410" y="-66" font-family="Helvetica,sans-Serif" font-size="10.00">cxxopts::OptionParser</text>
<text text-anchor="middle" x="463" y="-55" font-family="Helvetica,sans-Serif" font-size="10.00">::checked_parse_arg</text>
</a>
</g>
</g>
<!-- Node11&#45;&gt;Node12 -->
<g id="edge11_Node000011_Node000012" class="edge">
<title>Node11&#45;&gt;Node12</title>
<g id="a_edge11_Node000011_Node000012"><a xlink:title=" ">
<path fill="none" stroke="#63b8ff" d="M549.74,-81.14C541.2,-79.33 532.53,-77.5 524.15,-75.72"/>
<polygon fill="#63b8ff" stroke="#63b8ff" points="549.18,-84.6 559.69,-83.24 550.63,-77.75 549.18,-84.6"/>
</a>
</g>
</g>
<!-- Node12&#45;&gt;Node7 -->
<g id="edge12_Node000012_Node000007" class="edge">
<title>Node12&#45;&gt;Node7</title>
<g id="a_edge12_Node000012_Node000007"><a xlink:title=" ">
<path fill="none" stroke="#63b8ff" d="M391.74,-72.46C383.2,-73.61 374.53,-74.77 366.15,-75.9"/>
<polygon fill="#63b8ff" stroke="#63b8ff" points="392.24,-75.92 401.69,-71.12 391.31,-68.98 392.24,-75.92"/>
</a>
</g>
</g>
<!-- Node14 -->
<g id="Node000014" class="node">
<title>Node14</title>
<g id="a_Node000014"><a xlink:href="classcxxopts_1_1OptionParser.html#a28026f132e532009842f11359fb08373" target="_top" xlink:title=" ">
<polygon fill="white" stroke="#666666" points="524,-30 402,-30 402,0 524,0 524,-30"/>
<text text-anchor="start" x="410" y="-18" font-family="Helvetica,sans-Serif" font-size="10.00">cxxopts::OptionParser</text>
<text text-anchor="middle" x="463" y="-7" font-family="Helvetica,sans-Serif" font-size="10.00">::parse_default</text>
</a>
</g>
</g>
<!-- Node13&#45;&gt;Node14 -->
<g id="edge15_Node000013_Node000014" class="edge">
<title>Node13&#45;&gt;Node14</title>
<g id="a_edge15_Node000013_Node000014"><a xlink:title=" ">
<path fill="none" stroke="#63b8ff" d="M719.57,-33.9C661.62,-29.62 579.61,-23.55 524.25,-19.46"/>
<polygon fill="#63b8ff" stroke="#63b8ff" points="719.5,-37.41 729.74,-34.65 720.02,-30.43 719.5,-37.41"/>
</a>
</g>
</g>
<!-- Node14&#45;&gt;Node7 -->
<g id="edge16_Node000014_Node000007" class="edge">
<title>Node14&#45;&gt;Node7</title>
<g id="a_edge16_Node000014_Node000007"><a xlink:title=" ">
<path fill="none" stroke="#63b8ff" d="M413.98,-33.92C409.92,-35.61 405.88,-37.32 402,-39 380.05,-48.53 355.64,-59.98 336.92,-68.95"/>
<polygon fill="#63b8ff" stroke="#63b8ff" points="415.53,-37.07 423.45,-30.04 412.87,-30.59 415.53,-37.07"/>
</a>
</g>
</g>
</g>
</svg>
