<?xml version="1.0" encoding="UTF-8" standalone="no"?>
<!DOCTYPE svg PUBLIC "-//W3C//DTD SVG 1.1//EN"
 "http://www.w3.org/Graphics/SVG/1.1/DTD/svg11.dtd">
<!-- Generated by graphviz version 2.43.0 (0)
 -->
<!-- Title: detail::file_print_buffer&lt; F, enable_if_t&lt; has_flockfile&lt; F &gt;::value &gt; &gt;::~file_print_buffer Pages: 1 -->
<svg width="335pt" height="124pt"
 viewBox="0.00 0.00 335.00 123.50" xmlns="http://www.w3.org/2000/svg" xmlns:xlink="http://www.w3.org/1999/xlink">
<g id="graph0" class="graph" transform="scale(1 1) rotate(0) translate(4 119.5)">
<title>detail::file_print_buffer&lt; F, enable_if_t&lt; has_flockfile&lt; F &gt;::value &gt; &gt;::~file_print_buffer</title>
<!-- Node1 -->
<g id="Node000001" class="node">
<title>Node1</title>
<g id="a_Node000001"><a xlink:title=" ">
<polygon fill="#999999" stroke="#666666" points="163,-78.5 0,-78.5 0,-26.5 163,-26.5 163,-78.5"/>
<text text-anchor="start" x="8" y="-66.5" font-family="Helvetica,sans-Serif" font-size="10.00">detail::file_print</text>
<text text-anchor="start" x="8" y="-55.5" font-family="Helvetica,sans-Serif" font-size="10.00">_buffer&lt; F, enable_if</text>
<text text-anchor="start" x="8" y="-44.5" font-family="Helvetica,sans-Serif" font-size="10.00">_t&lt; has_flockfile&lt; F &gt;</text>
<text text-anchor="middle" x="81.5" y="-33.5" font-family="Helvetica,sans-Serif" font-size="10.00">::value &gt; &gt;::~file_print_buffer</text>
</a>
</g>
</g>
<!-- Node2 -->
<g id="Node000002" class="node">
<title>Node2</title>
<g id="a_Node000002"><a xlink:href="classdetail_1_1glibc__file.html#a18a296371710a56e3ac874f8fd410efd" target="_top" xlink:title=" ">
<polygon fill="white" stroke="#666666" points="327,-115.5 199,-115.5 199,-85.5 327,-85.5 327,-115.5"/>
<text text-anchor="start" x="207" y="-103.5" font-family="Helvetica,sans-Serif" font-size="10.00">detail::glibc_file</text>
<text text-anchor="middle" x="263" y="-92.5" font-family="Helvetica,sans-Serif" font-size="10.00">::advance_write_buffer</text>
</a>
</g>
</g>
<!-- Node1&#45;&gt;Node2 -->
<g id="edge1_Node000001_Node000002" class="edge">
<title>Node1&#45;&gt;Node2</title>
<g id="a_edge1_Node000001_Node000002"><a xlink:title=" ">
<path fill="none" stroke="#63b8ff" d="M163.06,-74.04C174.12,-77 185.37,-80.01 196.13,-82.88"/>
<polygon fill="#63b8ff" stroke="#63b8ff" points="195.28,-86.28 205.84,-85.48 197.09,-79.52 195.28,-86.28"/>
</a>
</g>
</g>
<!-- Node3 -->
<g id="Node000003" class="node">
<title>Node3</title>
<g id="a_Node000003"><a xlink:href="classdetail_1_1glibc__file.html#ad64e1a4c8d8b6caa0b61d7c1e7b15102" target="_top" xlink:title=" ">
<polygon fill="white" stroke="#666666" points="310,-67.5 216,-67.5 216,-37.5 310,-37.5 310,-67.5"/>
<text text-anchor="start" x="224" y="-55.5" font-family="Helvetica,sans-Serif" font-size="10.00">detail::glibc_file</text>
<text text-anchor="middle" x="263" y="-44.5" font-family="Helvetica,sans-Serif" font-size="10.00">::needs_flush</text>
</a>
</g>
</g>
<!-- Node1&#45;&gt;Node3 -->
<g id="edge2_Node000001_Node000003" class="edge">
<title>Node1&#45;&gt;Node3</title>
<g id="a_edge2_Node000001_Node000003"><a xlink:title=" ">
<path fill="none" stroke="#63b8ff" d="M163.06,-52.5C177.47,-52.5 192.2,-52.5 205.74,-52.5"/>
<polygon fill="#63b8ff" stroke="#63b8ff" points="205.84,-56 215.84,-52.5 205.84,-49 205.84,-56"/>
</a>
</g>
</g>
<!-- Node4 -->
<g id="Node000004" class="node">
<title>Node4</title>
<g id="a_Node000004"><a xlink:href="classdetail_1_1buffer.html#a8685285932360c284d19003fc4ba3edc" target="_top" xlink:title="Returns the size of this buffer.">
<polygon fill="white" stroke="#666666" points="315,-19 211,-19 211,0 315,0 315,-19"/>
<text text-anchor="middle" x="263" y="-7" font-family="Helvetica,sans-Serif" font-size="10.00">detail::buffer::size</text>
</a>
</g>
</g>
<!-- Node1&#45;&gt;Node4 -->
<g id="edge3_Node000001_Node000004" class="edge">
<title>Node1&#45;&gt;Node4</title>
<g id="a_edge3_Node000001_Node000004"><a xlink:title=" ">
<path fill="none" stroke="#63b8ff" d="M163.06,-33.2C179.88,-29.17 197.14,-25.04 212.43,-21.37"/>
<polygon fill="#63b8ff" stroke="#63b8ff" points="213.26,-24.77 222.17,-19.04 211.63,-17.97 213.26,-24.77"/>
</a>
</g>
</g>
</g>
</svg>
