<?xml version="1.0" encoding="UTF-8" standalone="no"?>
<!DOCTYPE svg PUBLIC "-//W3C//DTD SVG 1.1//EN"
 "http://www.w3.org/Graphics/SVG/1.1/DTD/svg11.dtd">
<!-- Generated by graphviz version 2.43.0 (0)
 -->
<!-- Title: cxxopts::exceptions::missing_argument::missing_argument Pages: 1 -->
<svg width="437pt" height="49pt"
 viewBox="0.00 0.00 437.00 49.00" xmlns="http://www.w3.org/2000/svg" xmlns:xlink="http://www.w3.org/1999/xlink">
<g id="graph0" class="graph" transform="scale(1 1) rotate(0) translate(4 45)">
<title>cxxopts::exceptions::missing_argument::missing_argument</title>
<!-- Node1 -->
<g id="Node000001" class="node">
<title>Node1</title>
<g id="a_Node000001"><a xlink:title=" ">
<polygon fill="#999999" stroke="#666666" points="119,-41 0,-41 0,0 119,0 119,-41"/>
<text text-anchor="start" x="8" y="-29" font-family="Helvetica,sans-Serif" font-size="10.00">cxxopts::exceptions</text>
<text text-anchor="start" x="8" y="-18" font-family="Helvetica,sans-Serif" font-size="10.00">::missing_argument::</text>
<text text-anchor="middle" x="59.5" y="-7" font-family="Helvetica,sans-Serif" font-size="10.00">missing_argument</text>
</a>
</g>
</g>
<!-- Node2 -->
<g id="Node000002" class="node">
<title>Node2</title>
<g id="a_Node000002"><a xlink:href="classcxxopts_1_1exceptions_1_1parsing.html#ad40b741e8c5aba5e4be33c37d84cb09e" target="_top" xlink:title=" ">
<polygon fill="white" stroke="#666666" points="268,-35.5 155,-35.5 155,-5.5 268,-5.5 268,-35.5"/>
<text text-anchor="start" x="163" y="-23.5" font-family="Helvetica,sans-Serif" font-size="10.00">cxxopts::exceptions</text>
<text text-anchor="middle" x="211.5" y="-12.5" font-family="Helvetica,sans-Serif" font-size="10.00">::parsing::parsing</text>
</a>
</g>
</g>
<!-- Node1&#45;&gt;Node2 -->
<g id="edge1_Node000001_Node000002" class="edge">
<title>Node1&#45;&gt;Node2</title>
<g id="a_edge1_Node000001_Node000002"><a xlink:title=" ">
<path fill="none" stroke="#63b8ff" d="M119.35,-20.5C127.64,-20.5 136.2,-20.5 144.61,-20.5"/>
<polygon fill="#63b8ff" stroke="#63b8ff" points="144.76,-24 154.76,-20.5 144.76,-17 144.76,-24"/>
</a>
</g>
</g>
<!-- Node3 -->
<g id="Node000003" class="node">
<title>Node3</title>
<g id="a_Node000003"><a xlink:href="classcxxopts_1_1exceptions_1_1exception.html#a4f28a7e472811e1917d3c69c972ef832" target="_top" xlink:title=" ">
<polygon fill="white" stroke="#666666" points="429,-35.5 304,-35.5 304,-5.5 429,-5.5 429,-35.5"/>
<text text-anchor="start" x="312" y="-23.5" font-family="Helvetica,sans-Serif" font-size="10.00">cxxopts::exceptions</text>
<text text-anchor="middle" x="366.5" y="-12.5" font-family="Helvetica,sans-Serif" font-size="10.00">::exception::exception</text>
</a>
</g>
</g>
<!-- Node2&#45;&gt;Node3 -->
<g id="edge2_Node000002_Node000003" class="edge">
<title>Node2&#45;&gt;Node3</title>
<g id="a_edge2_Node000002_Node000003"><a xlink:title=" ">
<path fill="none" stroke="#63b8ff" d="M268.17,-20.5C276.52,-20.5 285.23,-20.5 293.86,-20.5"/>
<polygon fill="#63b8ff" stroke="#63b8ff" points="293.92,-24 303.92,-20.5 293.92,-17 293.92,-24"/>
</a>
</g>
</g>
</g>
</svg>
