<?xml version="1.0" encoding="UTF-8" standalone="no"?>
<!DOCTYPE svg PUBLIC "-//W3C//DTD SVG 1.1//EN"
 "http://www.w3.org/Graphics/SVG/1.1/DTD/svg11.dtd">
<!-- Generated by graphviz version 2.43.0 (0)
 -->
<!-- Title: detail::counting_buffer::count Pages: 1 -->
<svg width="260pt" height="138pt"
 viewBox="0.00 0.00 260.00 138.00" xmlns="http://www.w3.org/2000/svg" xmlns:xlink="http://www.w3.org/1999/xlink">
<g id="graph0" class="graph" transform="scale(1 1) rotate(0) translate(4 134)">
<title>detail::counting_buffer::count</title>
<!-- Node1 -->
<g id="Node000001" class="node">
<title>Node1</title>
<g id="a_Node000001"><a xlink:title=" ">
<polygon fill="#999999" stroke="#666666" points="252,-79.5 126,-79.5 126,-49.5 252,-49.5 252,-79.5"/>
<text text-anchor="start" x="134" y="-67.5" font-family="Helvetica,sans-Serif" font-size="10.00">detail::counting_buffer</text>
<text text-anchor="middle" x="189" y="-56.5" font-family="Helvetica,sans-Serif" font-size="10.00">::count</text>
</a>
</g>
</g>
<!-- Node2 -->
<g id="Node000002" class="node">
<title>Node2</title>
<g id="a_Node000002"><a xlink:href="compile_8h.html#ab898fdcb82003fc6fbac14d5da66cbbb" target="_top" xlink:title=" ">
<polygon fill="white" stroke="#666666" points="90,-130 0,-130 0,-111 90,-111 90,-130"/>
<text text-anchor="middle" x="45" y="-118" font-family="Helvetica,sans-Serif" font-size="10.00">formatted_size</text>
</a>
</g>
</g>
<!-- Node1&#45;&gt;Node2 -->
<g id="edge1_Node000001_Node000002" class="edge">
<title>Node1&#45;&gt;Node2</title>
<g id="a_edge1_Node000001_Node000002"><a xlink:title=" ">
<path fill="none" stroke="#63b8ff" d="M140.47,-83.24C116.93,-92.53 89.52,-103.34 70.3,-110.92"/>
<polygon fill="#63b8ff" stroke="#63b8ff" points="141.93,-86.43 149.95,-79.51 139.36,-79.92 141.93,-86.43"/>
</a>
</g>
</g>
<!-- Node3 -->
<g id="Node000003" class="node">
<title>Node3</title>
<g id="a_Node000003"><a xlink:href="base_8h.html#a0f9a011c5e8bf359e75651cbdc411941" target="_top" xlink:title="Returns the number of chars in the output of format(fmt, args...).">
<polygon fill="white" stroke="#666666" points="90,-93 0,-93 0,-74 90,-74 90,-93"/>
<text text-anchor="middle" x="45" y="-81" font-family="Helvetica,sans-Serif" font-size="10.00">formatted_size</text>
</a>
</g>
</g>
<!-- Node1&#45;&gt;Node3 -->
<g id="edge2_Node000001_Node000003" class="edge">
<title>Node1&#45;&gt;Node3</title>
<g id="a_edge2_Node000001_Node000003"><a xlink:title=" ">
<path fill="none" stroke="#63b8ff" d="M115.61,-74.19C106.98,-75.34 98.38,-76.49 90.32,-77.57"/>
<polygon fill="#63b8ff" stroke="#63b8ff" points="116.27,-77.63 125.72,-72.83 115.34,-70.69 116.27,-77.63"/>
</a>
</g>
</g>
<!-- Node4 -->
<g id="Node000004" class="node">
<title>Node4</title>
<g id="a_Node000004"><a xlink:href="format_8h.html#ab1aace0cb1b8ea506c95aa46d713e881" target="_top" xlink:title=" ">
<polygon fill="white" stroke="#666666" points="90,-56 0,-56 0,-37 90,-37 90,-56"/>
<text text-anchor="middle" x="45" y="-44" font-family="Helvetica,sans-Serif" font-size="10.00">formatted_size</text>
</a>
</g>
</g>
<!-- Node1&#45;&gt;Node4 -->
<g id="edge3_Node000001_Node000004" class="edge">
<title>Node1&#45;&gt;Node4</title>
<g id="a_edge3_Node000001_Node000004"><a xlink:title=" ">
<path fill="none" stroke="#63b8ff" d="M115.61,-55.32C106.98,-54.23 98.38,-53.14 90.32,-52.12"/>
<polygon fill="#63b8ff" stroke="#63b8ff" points="115.36,-58.82 125.72,-56.6 116.24,-51.88 115.36,-58.82"/>
</a>
</g>
</g>
<!-- Node5 -->
<g id="Node000005" class="node">
<title>Node5</title>
<g id="a_Node000005"><a xlink:href="namespacedetail.html#a8982f9880f97e5151198dd1b6c708ae5" target="_top" xlink:title=" ">
<polygon fill="white" stroke="#666666" points="82.5,-19 7.5,-19 7.5,0 82.5,0 82.5,-19"/>
<text text-anchor="middle" x="45" y="-7" font-family="Helvetica,sans-Serif" font-size="10.00">detail::write</text>
</a>
</g>
</g>
<!-- Node1&#45;&gt;Node5 -->
<g id="edge4_Node000001_Node000005" class="edge">
<title>Node1&#45;&gt;Node5</title>
<g id="a_edge4_Node000001_Node000005"><a xlink:title=" ">
<path fill="none" stroke="#63b8ff" d="M139.86,-45.86C116.7,-36.89 89.91,-26.51 70.9,-19.14"/>
<polygon fill="#63b8ff" stroke="#63b8ff" points="138.61,-49.12 149.2,-49.47 141.14,-42.6 138.61,-49.12"/>
</a>
</g>
</g>
</g>
</svg>
