<?xml version="1.0" encoding="UTF-8" standalone="no"?>
<!DOCTYPE svg PUBLIC "-//W3C//DTD SVG 1.1//EN"
 "http://www.w3.org/Graphics/SVG/1.1/DTD/svg11.dtd">
<!-- Generated by graphviz version 2.43.0 (0)
 -->
<!-- Title: SX1262 Pages: 1 -->
<svg width="132pt" height="192pt"
 viewBox="0.00 0.00 132.00 192.00" xmlns="http://www.w3.org/2000/svg" xmlns:xlink="http://www.w3.org/1999/xlink">
<g id="graph0" class="graph" transform="scale(1 1) rotate(0) translate(4 188)">
<title>SX1262</title>
<!-- Node1 -->
<g id="Node000001" class="node">
<title>Node1</title>
<g id="a_Node000001"><a xlink:title="Derived class for SX1262 modules.">
<polygon fill="#999999" stroke="#666666" points="88,-74 35,-74 35,-55 88,-55 88,-74"/>
<text text-anchor="middle" x="61.5" y="-62" font-family="Helvetica,sans-Serif" font-size="10.00">SX1262</text>
</a>
</g>
</g>
<!-- Node4 -->
<g id="Node000004" class="node">
<title>Node4</title>
<g id="a_Node000004"><a xlink:href="classLLCC68.html" target="_top" xlink:title="Derived class for LLCC68 modules.">
<polygon fill="white" stroke="#666666" points="53,-19 0,-19 0,0 53,0 53,-19"/>
<text text-anchor="middle" x="26.5" y="-7" font-family="Helvetica,sans-Serif" font-size="10.00">LLCC68</text>
</a>
</g>
</g>
<!-- Node1&#45;&gt;Node4 -->
<g id="edge3_Node000001_Node000004" class="edge">
<title>Node1&#45;&gt;Node4</title>
<g id="a_edge3_Node000001_Node000004"><a xlink:title=" ">
<path fill="none" stroke="#63b8ff" d="M50.2,-46.39C44.18,-37.27 37.03,-26.45 32.17,-19.09"/>
<polygon fill="#63b8ff" stroke="#63b8ff" points="47.29,-48.33 55.72,-54.75 53.13,-44.47 47.29,-48.33"/>
</a>
</g>
</g>
<!-- Node5 -->
<g id="Node000005" class="node">
<title>Node5</title>
<g id="a_Node000005"><a xlink:href="classSX1261.html" target="_top" xlink:title="Derived class for SX1261 modules.">
<polygon fill="white" stroke="#666666" points="124,-19 71,-19 71,0 124,0 124,-19"/>
<text text-anchor="middle" x="97.5" y="-7" font-family="Helvetica,sans-Serif" font-size="10.00">SX1261</text>
</a>
</g>
</g>
<!-- Node1&#45;&gt;Node5 -->
<g id="edge4_Node000001_Node000005" class="edge">
<title>Node1&#45;&gt;Node5</title>
<g id="a_edge4_Node000001_Node000005"><a xlink:title=" ">
<path fill="none" stroke="#63b8ff" d="M73.12,-46.39C79.32,-37.27 86.67,-26.45 91.67,-19.09"/>
<polygon fill="#63b8ff" stroke="#63b8ff" points="70.17,-44.51 67.44,-54.75 75.96,-48.44 70.17,-44.51"/>
</a>
</g>
</g>
<!-- Node2 -->
<g id="Node000002" class="node">
<title>Node2</title>
<g id="a_Node000002"><a xlink:href="classSX126x.html" target="_top" xlink:title="Base class for SX126x series. All derived classes for SX126x (e.g. SX1262 or SX1268) inherit from thi...">
<polygon fill="white" stroke="#666666" points="88,-129 35,-129 35,-110 88,-110 88,-129"/>
<text text-anchor="middle" x="61.5" y="-117" font-family="Helvetica,sans-Serif" font-size="10.00">SX126x</text>
</a>
</g>
</g>
<!-- Node2&#45;&gt;Node1 -->
<g id="edge1_Node000001_Node000002" class="edge">
<title>Node2&#45;&gt;Node1</title>
<g id="a_edge1_Node000001_Node000002"><a xlink:title=" ">
<path fill="none" stroke="#63b8ff" d="M61.5,-99.66C61.5,-90.93 61.5,-80.99 61.5,-74.09"/>
<polygon fill="#63b8ff" stroke="#63b8ff" points="58,-99.75 61.5,-109.75 65,-99.75 58,-99.75"/>
</a>
</g>
</g>
<!-- Node3 -->
<g id="Node000003" class="node">
<title>Node3</title>
<g id="a_Node000003"><a xlink:href="classPhysicalLayer.html" target="_top" xlink:title="Provides common interface for protocols that run on LoRa/FSK modules, such as RTTY or LoRaWAN....">
<polygon fill="white" stroke="#666666" points="103.5,-184 19.5,-184 19.5,-165 103.5,-165 103.5,-184"/>
<text text-anchor="middle" x="61.5" y="-172" font-family="Helvetica,sans-Serif" font-size="10.00">PhysicalLayer</text>
</a>
</g>
</g>
<!-- Node3&#45;&gt;Node2 -->
<g id="edge2_Node000002_Node000003" class="edge">
<title>Node3&#45;&gt;Node2</title>
<g id="a_edge2_Node000002_Node000003"><a xlink:title=" ">
<path fill="none" stroke="#63b8ff" d="M61.5,-154.66C61.5,-145.93 61.5,-135.99 61.5,-129.09"/>
<polygon fill="#63b8ff" stroke="#63b8ff" points="58,-154.75 61.5,-164.75 65,-154.75 58,-154.75"/>
</a>
</g>
</g>
</g>
</svg>
