<?xml version="1.0" encoding="UTF-8" standalone="no"?>
<!DOCTYPE svg PUBLIC "-//W3C//DTD SVG 1.1//EN"
 "http://www.w3.org/Graphics/SVG/1.1/DTD/svg11.dtd">
<!-- Generated by graphviz version 2.43.0 (0)
 -->
<!-- Title: detail::file_base&lt; F &gt; Pages: 1 -->
<svg width="430pt" height="82pt"
 viewBox="0.00 0.00 430.00 82.00" xmlns="http://www.w3.org/2000/svg" xmlns:xlink="http://www.w3.org/1999/xlink">
<g id="graph0" class="graph" transform="scale(1 1) rotate(0) translate(4 78)">
<title>detail::file_base&lt; F &gt;</title>
<!-- Node1 -->
<g id="Node000001" class="node">
<title>Node1</title>
<g id="a_Node000001"><a xlink:title=" ">
<polygon fill="#999999" stroke="#666666" points="274,-74 152,-74 152,-55 274,-55 274,-74"/>
<text text-anchor="middle" x="213" y="-62" font-family="Helvetica,sans-Serif" font-size="10.00">detail::file_base&lt; F &gt;</text>
</a>
</g>
</g>
<!-- Node2 -->
<g id="Node000002" class="node">
<title>Node2</title>
<g id="a_Node000002"><a xlink:href="classdetail_1_1apple__file.html" target="_top" xlink:title=" ">
<polygon fill="white" stroke="#666666" points="126,-19 0,-19 0,0 126,0 126,-19"/>
<text text-anchor="middle" x="63" y="-7" font-family="Helvetica,sans-Serif" font-size="10.00">detail::apple_file&lt; F &gt;</text>
</a>
</g>
</g>
<!-- Node1&#45;&gt;Node2 -->
<g id="edge1_Node000001_Node000002" class="edge">
<title>Node1&#45;&gt;Node2</title>
<g id="a_edge1_Node000001_Node000002"><a xlink:title=" ">
<path fill="none" stroke="#63b8ff" d="M179.18,-51.55C151.32,-41.71 112.49,-27.98 87.54,-19.17"/>
<polygon fill="#63b8ff" stroke="#63b8ff" points="178.31,-54.95 188.9,-54.98 180.64,-48.35 178.31,-54.95"/>
</a>
</g>
</g>
<!-- Node3 -->
<g id="Node000003" class="node">
<title>Node3</title>
<g id="a_Node000003"><a xlink:href="classdetail_1_1fallback__file.html" target="_top" xlink:title=" ">
<polygon fill="white" stroke="#666666" points="282,-19 144,-19 144,0 282,0 282,-19"/>
<text text-anchor="middle" x="213" y="-7" font-family="Helvetica,sans-Serif" font-size="10.00">detail::fallback_file&lt; F &gt;</text>
</a>
</g>
</g>
<!-- Node1&#45;&gt;Node3 -->
<g id="edge2_Node000001_Node000003" class="edge">
<title>Node1&#45;&gt;Node3</title>
<g id="a_edge2_Node000001_Node000003"><a xlink:title=" ">
<path fill="none" stroke="#63b8ff" d="M213,-44.66C213,-35.93 213,-25.99 213,-19.09"/>
<polygon fill="#63b8ff" stroke="#63b8ff" points="209.5,-44.75 213,-54.75 216.5,-44.75 209.5,-44.75"/>
</a>
</g>
</g>
<!-- Node4 -->
<g id="Node000004" class="node">
<title>Node4</title>
<g id="a_Node000004"><a xlink:href="classdetail_1_1glibc__file.html" target="_top" xlink:title=" ">
<polygon fill="white" stroke="#666666" points="422,-19 300,-19 300,0 422,0 422,-19"/>
<text text-anchor="middle" x="361" y="-7" font-family="Helvetica,sans-Serif" font-size="10.00">detail::glibc_file&lt; F &gt;</text>
</a>
</g>
</g>
<!-- Node1&#45;&gt;Node4 -->
<g id="edge3_Node000001_Node000004" class="edge">
<title>Node1&#45;&gt;Node4</title>
<g id="a_edge3_Node000001_Node000004"><a xlink:title=" ">
<path fill="none" stroke="#63b8ff" d="M246.37,-51.55C273.85,-41.71 312.17,-27.98 336.79,-19.17"/>
<polygon fill="#63b8ff" stroke="#63b8ff" points="245.01,-48.32 236.78,-54.98 247.37,-54.91 245.01,-48.32"/>
</a>
</g>
</g>
</g>
</svg>
