<?xml version="1.0" encoding="UTF-8" standalone="no"?>
<!DOCTYPE svg PUBLIC "-//W3C//DTD SVG 1.1//EN"
 "http://www.w3.org/Graphics/SVG/1.1/DTD/svg11.dtd">
<!-- Generated by graphviz version 2.43.0 (0)
 -->
<!-- Title: basic_specs::align Pages: 1 -->
<svg width="281pt" height="258pt"
 viewBox="0.00 0.00 281.00 257.50" xmlns="http://www.w3.org/2000/svg" xmlns:xlink="http://www.w3.org/1999/xlink">
<g id="graph0" class="graph" transform="scale(1 1) rotate(0) translate(4 253.5)">
<title>basic_specs::align</title>
<!-- Node1 -->
<g id="Node000001" class="node">
<title>Node1</title>
<g id="a_Node000001"><a xlink:title=" ">
<polygon fill="#999999" stroke="#666666" points="273,-126 168,-126 168,-107 273,-107 273,-126"/>
<text text-anchor="middle" x="220.5" y="-114" font-family="Helvetica,sans-Serif" font-size="10.00">basic_specs::align</text>
</a>
</g>
</g>
<!-- Node2 -->
<g id="Node000002" class="node">
<title>Node2</title>
<g id="a_Node000002"><a xlink:href="namespacedetail.html#a56f8ff16a82c38da1e1f7ac0b823f526" target="_top" xlink:title=" ">
<polygon fill="white" stroke="#666666" points="118.5,-249.5 13.5,-249.5 13.5,-219.5 118.5,-219.5 118.5,-249.5"/>
<text text-anchor="start" x="21.5" y="-237.5" font-family="Helvetica,sans-Serif" font-size="10.00">detail::check_char</text>
<text text-anchor="middle" x="66" y="-226.5" font-family="Helvetica,sans-Serif" font-size="10.00">_specs</text>
</a>
</g>
</g>
<!-- Node1&#45;&gt;Node2 -->
<g id="edge1_Node000001_Node000002" class="edge">
<title>Node1&#45;&gt;Node2</title>
<g id="a_edge1_Node000001_Node000002"><a xlink:title=" ">
<path fill="none" stroke="#63b8ff" d="M206.92,-134.46C191.45,-155.34 163.36,-189.62 132,-210.5 126.99,-213.83 121.46,-216.78 115.8,-219.36"/>
<polygon fill="#63b8ff" stroke="#63b8ff" points="209.9,-136.31 212.92,-126.15 204.23,-132.2 209.9,-136.31"/>
</a>
</g>
</g>
<!-- Node3 -->
<g id="Node000003" class="node">
<title>Node3</title>
<g id="a_Node000003"><a xlink:href="classdetail_1_1printf__arg__formatter.html#a82813713e45cd2a260d77658511c55c1" target="_top" xlink:title=" ">
<polygon fill="white" stroke="#666666" points="127.5,-201.5 4.5,-201.5 4.5,-171.5 127.5,-171.5 127.5,-201.5"/>
<text text-anchor="start" x="12.5" y="-189.5" font-family="Helvetica,sans-Serif" font-size="10.00">detail::printf_arg</text>
<text text-anchor="middle" x="66" y="-178.5" font-family="Helvetica,sans-Serif" font-size="10.00">_formatter::operator()</text>
</a>
</g>
</g>
<!-- Node1&#45;&gt;Node3 -->
<g id="edge2_Node000001_Node000003" class="edge">
<title>Node1&#45;&gt;Node3</title>
<g id="a_edge2_Node000001_Node000003"><a xlink:title=" ">
<path fill="none" stroke="#63b8ff" d="M193.84,-131.12C176.63,-140.65 153.3,-153.02 132,-162.5 125.08,-165.58 117.62,-168.6 110.32,-171.4"/>
<polygon fill="#63b8ff" stroke="#63b8ff" points="195.7,-134.09 202.72,-126.16 192.29,-127.98 195.7,-134.09"/>
</a>
</g>
</g>
<!-- Node4 -->
<g id="Node000004" class="node">
<title>Node4</title>
<g id="a_Node000004"><a xlink:href="structdetail_1_1size__padding.html#a723641b5498ce077eebe844ea355f15c" target="_top" xlink:title=" ">
<polygon fill="white" stroke="#666666" points="123,-153.5 9,-153.5 9,-123.5 123,-123.5 123,-153.5"/>
<text text-anchor="start" x="17" y="-141.5" font-family="Helvetica,sans-Serif" font-size="10.00">detail::size_padding</text>
<text text-anchor="middle" x="66" y="-130.5" font-family="Helvetica,sans-Serif" font-size="10.00">::size_padding</text>
</a>
</g>
</g>
<!-- Node1&#45;&gt;Node4 -->
<g id="edge3_Node000001_Node000004" class="edge">
<title>Node1&#45;&gt;Node4</title>
<g id="a_edge3_Node000001_Node000004"><a xlink:title=" ">
<path fill="none" stroke="#63b8ff" d="M157.89,-125.39C146.36,-127.05 134.37,-128.78 123.02,-130.42"/>
<polygon fill="#63b8ff" stroke="#63b8ff" points="158.47,-128.84 167.87,-123.95 157.47,-121.91 158.47,-128.84"/>
</a>
</g>
</g>
<!-- Node5 -->
<g id="Node000005" class="node">
<title>Node5</title>
<g id="a_Node000005"><a xlink:href="namespacedetail.html#a1c8c2218e4c822aa8f743fb9c573717f" target="_top" xlink:title=" ">
<polygon fill="white" stroke="#666666" points="107.5,-105 24.5,-105 24.5,-86 107.5,-86 107.5,-105"/>
<text text-anchor="middle" x="66" y="-93" font-family="Helvetica,sans-Serif" font-size="10.00">detail::vprintf</text>
</a>
</g>
</g>
<!-- Node1&#45;&gt;Node5 -->
<g id="edge4_Node000001_Node000005" class="edge">
<title>Node1&#45;&gt;Node5</title>
<g id="a_edge4_Node000001_Node000005"><a xlink:title=" ">
<path fill="none" stroke="#63b8ff" d="M157.62,-107.98C140.9,-105.68 123.23,-103.24 107.98,-101.14"/>
<polygon fill="#63b8ff" stroke="#63b8ff" points="157.49,-111.49 167.87,-109.39 158.44,-104.56 157.49,-111.49"/>
</a>
</g>
</g>
<!-- Node6 -->
<g id="Node000006" class="node">
<title>Node6</title>
<g id="a_Node000006"><a xlink:href="structnested__formatter.html#a6ab579c8e01e2a080d1cab4173991348" target="_top" xlink:title=" ">
<polygon fill="white" stroke="#666666" points="132,-67.5 0,-67.5 0,-37.5 132,-37.5 132,-67.5"/>
<text text-anchor="start" x="8" y="-55.5" font-family="Helvetica,sans-Serif" font-size="10.00">nested_formatter::write</text>
<text text-anchor="middle" x="66" y="-44.5" font-family="Helvetica,sans-Serif" font-size="10.00">_padded</text>
</a>
</g>
</g>
<!-- Node1&#45;&gt;Node6 -->
<g id="edge5_Node000001_Node000006" class="edge">
<title>Node1&#45;&gt;Node6</title>
<g id="a_edge5_Node000001_Node000006"><a xlink:title=" ">
<path fill="none" stroke="#63b8ff" d="M189.45,-102.64C172.65,-95.01 151.26,-85.49 132,-77.5 123.96,-74.16 115.3,-70.73 107.01,-67.51"/>
<polygon fill="#63b8ff" stroke="#63b8ff" points="188.22,-105.93 198.77,-106.89 191.13,-99.56 188.22,-105.93"/>
</a>
</g>
</g>
<!-- Node7 -->
<g id="Node000007" class="node">
<title>Node7</title>
<g id="a_Node000007"><a xlink:href="namespacedetail.html#a0eaaee0f61fbc947ad6faa742d576f71" target="_top" xlink:title=" ">
<polygon fill="white" stroke="#666666" points="124,-19 8,-19 8,0 124,0 124,-19"/>
<text text-anchor="middle" x="66" y="-7" font-family="Helvetica,sans-Serif" font-size="10.00">detail::write_padded</text>
</a>
</g>
</g>
<!-- Node1&#45;&gt;Node7 -->
<g id="edge6_Node000001_Node000007" class="edge">
<title>Node1&#45;&gt;Node7</title>
<g id="a_edge6_Node000001_Node000007"><a xlink:title=" ">
<path fill="none" stroke="#63b8ff" d="M206.44,-98.78C190.86,-78.87 163,-46.93 132,-28.5 125.53,-24.66 118.24,-21.55 110.93,-19.04"/>
<polygon fill="#63b8ff" stroke="#63b8ff" points="203.86,-101.17 212.7,-106.99 209.42,-96.92 203.86,-101.17"/>
</a>
</g>
</g>
</g>
</svg>
