<?xml version="1.0" encoding="UTF-8" standalone="no"?>
<!DOCTYPE svg PUBLIC "-//W3C//DTD SVG 1.1//EN"
 "http://www.w3.org/Graphics/SVG/1.1/DTD/svg11.dtd">
<!-- Generated by graphviz version 2.43.0 (0)
 -->
<!-- Title: locale_ref::locale_ref Pages: 1 -->
<svg width="474pt" height="357pt"
 viewBox="0.00 0.00 474.00 357.00" xmlns="http://www.w3.org/2000/svg" xmlns:xlink="http://www.w3.org/1999/xlink">
<g id="graph0" class="graph" transform="scale(1 1) rotate(0) translate(4 353)">
<title>locale_ref::locale_ref</title>
<!-- Node1 -->
<g id="Node000001" class="node">
<title>Node1</title>
<g id="a_Node000001"><a xlink:title=" ">
<polygon fill="#999999" stroke="#666666" points="466,-167 348,-167 348,-148 466,-148 466,-167"/>
<text text-anchor="middle" x="407" y="-155" font-family="Helvetica,sans-Serif" font-size="10.00">locale_ref::locale_ref</text>
</a>
</g>
</g>
<!-- Node2 -->
<g id="Node000002" class="node">
<title>Node2</title>
<g id="a_Node000002"><a xlink:href="classcontext.html#a199d2512ee91a3a3ddcd691f9ce706a3" target="_top" xlink:title=" ">
<polygon fill="white" stroke="#666666" points="285,-349 189,-349 189,-330 285,-330 285,-349"/>
<text text-anchor="middle" x="237" y="-337" font-family="Helvetica,sans-Serif" font-size="10.00">context::context</text>
</a>
</g>
</g>
<!-- Node1&#45;&gt;Node2 -->
<g id="edge1_Node000001_Node000002" class="edge">
<title>Node1&#45;&gt;Node2</title>
<g id="a_edge1_Node000001_Node000002"><a xlink:title=" ">
<path fill="none" stroke="#63b8ff" d="M400.24,-177.21C389.12,-211.74 361.3,-283.06 312,-320.5 304.18,-326.44 294.7,-330.53 285.17,-333.35"/>
<polygon fill="#63b8ff" stroke="#63b8ff" points="403.67,-177.97 403.28,-167.38 396.98,-175.9 403.67,-177.97"/>
</a>
</g>
</g>
<!-- Node3 -->
<g id="Node000003" class="node">
<title>Node3</title>
<g id="a_Node000003"><a xlink:href="structformatter_3_01std_1_1tm_00_01Char_01_4.html#a9b5eac325370d60c8293386b1331ca69" target="_top" xlink:title=" ">
<polygon fill="white" stroke="#666666" points="293,-311.5 181,-311.5 181,-281.5 293,-281.5 293,-311.5"/>
<text text-anchor="start" x="189" y="-299.5" font-family="Helvetica,sans-Serif" font-size="10.00">formatter&lt; std::tm,</text>
<text text-anchor="middle" x="237" y="-288.5" font-family="Helvetica,sans-Serif" font-size="10.00"> Char &gt;::do_format</text>
</a>
</g>
</g>
<!-- Node1&#45;&gt;Node3 -->
<g id="edge2_Node000001_Node000003" class="edge">
<title>Node1&#45;&gt;Node3</title>
<g id="a_edge2_Node000001_Node000003"><a xlink:title=" ">
<path fill="none" stroke="#63b8ff" d="M395.55,-176.05C380.35,-201.4 349.78,-246.68 312,-272.5 306.2,-276.46 299.71,-279.81 293.04,-282.62"/>
<polygon fill="#63b8ff" stroke="#63b8ff" points="398.76,-177.49 400.77,-167.09 392.71,-173.97 398.76,-177.49"/>
</a>
</g>
</g>
<!-- Node4 -->
<g id="Node000004" class="node">
<title>Node4</title>
<g id="a_Node000004"><a xlink:href="classgeneric__context.html#a547c8ed07af608bfaa1a932817308efe" target="_top" xlink:title=" ">
<polygon fill="white" stroke="#666666" points="305.5,-263.5 168.5,-263.5 168.5,-233.5 305.5,-233.5 305.5,-263.5"/>
<text text-anchor="start" x="176.5" y="-251.5" font-family="Helvetica,sans-Serif" font-size="10.00">generic_context::generic</text>
<text text-anchor="middle" x="237" y="-240.5" font-family="Helvetica,sans-Serif" font-size="10.00">_context</text>
</a>
</g>
</g>
<!-- Node1&#45;&gt;Node4 -->
<g id="edge3_Node000001_Node000004" class="edge">
<title>Node1&#45;&gt;Node4</title>
<g id="a_edge3_Node000001_Node000004"><a xlink:title=" ">
<path fill="none" stroke="#63b8ff" d="M386.8,-173.88C368.55,-188.76 339.84,-210.48 312,-224.5 305.49,-227.78 298.43,-230.74 291.34,-233.38"/>
<polygon fill="#63b8ff" stroke="#63b8ff" points="389.41,-176.26 394.87,-167.18 384.94,-170.88 389.41,-176.26"/>
</a>
</g>
</g>
<!-- Node5 -->
<g id="Node000005" class="node">
<title>Node5</title>
<g id="a_Node000005"><a xlink:href="classbasic__printf__context.html#acf3064592a262c1cb2ee7ece10e42f98" target="_top" xlink:title=" ">
<polygon fill="white" stroke="#666666" points="295,-215.5 179,-215.5 179,-185.5 295,-185.5 295,-215.5"/>
<text text-anchor="start" x="187" y="-203.5" font-family="Helvetica,sans-Serif" font-size="10.00">basic_printf_context</text>
<text text-anchor="middle" x="237" y="-192.5" font-family="Helvetica,sans-Serif" font-size="10.00">::locale</text>
</a>
</g>
</g>
<!-- Node1&#45;&gt;Node5 -->
<g id="edge4_Node000001_Node000005" class="edge">
<title>Node1&#45;&gt;Node5</title>
<g id="a_edge4_Node000001_Node000005"><a xlink:title=" ">
<path fill="none" stroke="#63b8ff" d="M359.02,-169.52C339.26,-174.58 316.08,-180.52 295.32,-185.83"/>
<polygon fill="#63b8ff" stroke="#63b8ff" points="359.9,-172.91 368.72,-167.04 358.16,-166.13 359.9,-172.91"/>
</a>
</g>
</g>
<!-- Node6 -->
<g id="Node000006" class="node">
<title>Node6</title>
<g id="a_Node000006"><a xlink:href="namespacedetail.html#a1ceb6e1ac6f915edf1558d0b05fd1fe6" target="_top" xlink:title=" ">
<polygon fill="white" stroke="#666666" points="312,-167 162,-167 162,-148 312,-148 312,-167"/>
<text text-anchor="middle" x="237" y="-155" font-family="Helvetica,sans-Serif" font-size="10.00">detail::make_arg_formatter</text>
</a>
</g>
</g>
<!-- Node1&#45;&gt;Node6 -->
<g id="edge5_Node000001_Node000006" class="edge">
<title>Node1&#45;&gt;Node6</title>
<g id="a_edge5_Node000001_Node000006"><a xlink:title=" ">
<path fill="none" stroke="#63b8ff" d="M337.62,-157.5C329.23,-157.5 320.63,-157.5 312.16,-157.5"/>
<polygon fill="#63b8ff" stroke="#63b8ff" points="337.71,-161 347.71,-157.5 337.71,-154 337.71,-161"/>
</a>
</g>
</g>
<!-- Node7 -->
<g id="Node000007" class="node">
<title>Node7</title>
<g id="a_Node000007"><a xlink:href="namespacedetail.html#a41fb5bb9af5723fb3f88a9c454e27e87" target="_top" xlink:title=" ">
<polygon fill="white" stroke="#666666" points="289,-130 185,-130 185,-111 289,-111 289,-130"/>
<text text-anchor="middle" x="237" y="-118" font-family="Helvetica,sans-Serif" font-size="10.00">detail::vformat_to</text>
</a>
</g>
</g>
<!-- Node1&#45;&gt;Node7 -->
<g id="edge6_Node000001_Node000007" class="edge">
<title>Node1&#45;&gt;Node7</title>
<g id="a_edge6_Node000001_Node000007"><a xlink:title=" ">
<path fill="none" stroke="#63b8ff" d="M352.78,-145.78C329.78,-140.71 303.2,-134.86 281.41,-130.06"/>
<polygon fill="#63b8ff" stroke="#63b8ff" points="352.22,-149.24 362.74,-147.97 353.72,-142.4 352.22,-149.24"/>
</a>
</g>
</g>
<!-- Node11 -->
<g id="Node000011" class="node">
<title>Node11</title>
<g id="a_Node000011"><a xlink:href="namespacedetail.html#a2d986f1962ccdc70080137327247a727" target="_top" xlink:title=" ">
<polygon fill="white" stroke="#666666" points="274.5,-93 199.5,-93 199.5,-74 274.5,-74 274.5,-93"/>
<text text-anchor="middle" x="237" y="-81" font-family="Helvetica,sans-Serif" font-size="10.00">detail::write</text>
</a>
</g>
</g>
<!-- Node1&#45;&gt;Node11 -->
<g id="edge10_Node000001_Node000011" class="edge">
<title>Node1&#45;&gt;Node11</title>
<g id="a_edge10_Node000001_Node000011"><a xlink:title=" ">
<path fill="none" stroke="#63b8ff" d="M383.99,-142.24C365.5,-130.02 338,-113.2 312,-102.5 300.22,-97.65 286.87,-93.77 274.79,-90.81"/>
<polygon fill="#63b8ff" stroke="#63b8ff" points="382.05,-145.16 392.3,-147.83 385.96,-139.35 382.05,-145.16"/>
</a>
</g>
</g>
<!-- Node12 -->
<g id="Node000012" class="node">
<title>Node12</title>
<g id="a_Node000012"><a xlink:href="namespacedetail.html#a55c197db596d610e76055a30803e8c49" target="_top" xlink:title=" ">
<polygon fill="white" stroke="#666666" points="274.5,-56 199.5,-56 199.5,-37 274.5,-37 274.5,-56"/>
<text text-anchor="middle" x="237" y="-44" font-family="Helvetica,sans-Serif" font-size="10.00">detail::write</text>
</a>
</g>
</g>
<!-- Node1&#45;&gt;Node12 -->
<g id="edge11_Node000001_Node000012" class="edge">
<title>Node1&#45;&gt;Node12</title>
<g id="a_edge11_Node000001_Node000012"><a xlink:title=" ">
<path fill="none" stroke="#63b8ff" d="M393.02,-139.74C376.57,-118.55 346.2,-83.6 312,-64.5 300.69,-58.18 287.19,-54.06 274.84,-51.39"/>
<polygon fill="#63b8ff" stroke="#63b8ff" points="390.36,-142.03 399.19,-147.89 395.95,-137.81 390.36,-142.03"/>
</a>
</g>
</g>
<!-- Node13 -->
<g id="Node000013" class="node">
<title>Node13</title>
<g id="a_Node000013"><a xlink:href="namespacedetail.html#afa425d218f33c35cb1649f8556db3236" target="_top" xlink:title=" ">
<polygon fill="white" stroke="#666666" points="289,-19 185,-19 185,0 289,0 289,-19"/>
<text text-anchor="middle" x="237" y="-7" font-family="Helvetica,sans-Serif" font-size="10.00">detail::write_fixed</text>
</a>
</g>
</g>
<!-- Node1&#45;&gt;Node13 -->
<g id="edge12_Node000001_Node000013" class="edge">
<title>Node1&#45;&gt;Node13</title>
<g id="a_edge12_Node000001_Node000013"><a xlink:title=" ">
<path fill="none" stroke="#63b8ff" d="M397.65,-138.55C384.02,-109.89 354.21,-55.86 312,-27.5 305.2,-22.93 297.35,-19.51 289.36,-16.97"/>
<polygon fill="#63b8ff" stroke="#63b8ff" points="394.58,-140.24 401.94,-147.87 400.94,-137.32 394.58,-140.24"/>
</a>
</g>
</g>
<!-- Node8 -->
<g id="Node000008" class="node">
<title>Node8</title>
<g id="a_Node000008"><a xlink:href="xchar_8h.html#ad59e14d924bf2fe1d17939ad9d8b8d4a" target="_top" xlink:title=" ">
<polygon fill="white" stroke="#666666" points="126,-148 81,-148 81,-129 126,-129 126,-148"/>
<text text-anchor="middle" x="103.5" y="-136" font-family="Helvetica,sans-Serif" font-size="10.00">vprint</text>
</a>
</g>
</g>
<!-- Node7&#45;&gt;Node8 -->
<g id="edge7_Node000007_Node000008" class="edge">
<title>Node7&#45;&gt;Node8</title>
<g id="a_edge7_Node000007_Node000008"><a xlink:title=" ">
<path fill="none" stroke="#63b8ff" d="M174.65,-128.9C157.3,-131.27 139.54,-133.7 126.24,-135.52"/>
<polygon fill="#63b8ff" stroke="#63b8ff" points="175.35,-132.33 184.78,-127.51 174.4,-125.4 175.35,-132.33"/>
</a>
</g>
</g>
<!-- Node10 -->
<g id="Node000010" class="node">
<title>Node10</title>
<g id="a_Node000010"><a xlink:href="xchar_8h.html#aae096773ff6c45b6cc1555e3bb92c3d3" target="_top" xlink:title=" ">
<polygon fill="white" stroke="#666666" points="126,-111 81,-111 81,-92 126,-92 126,-111"/>
<text text-anchor="middle" x="103.5" y="-99" font-family="Helvetica,sans-Serif" font-size="10.00">vprint</text>
</a>
</g>
</g>
<!-- Node7&#45;&gt;Node10 -->
<g id="edge9_Node000007_Node000010" class="edge">
<title>Node7&#45;&gt;Node10</title>
<g id="a_edge9_Node000007_Node000010"><a xlink:title=" ">
<path fill="none" stroke="#63b8ff" d="M174.65,-111.64C157.3,-109.13 139.54,-106.56 126.24,-104.64"/>
<polygon fill="#63b8ff" stroke="#63b8ff" points="174.38,-115.13 184.78,-113.1 175.39,-108.21 174.38,-115.13"/>
</a>
</g>
</g>
<!-- Node9 -->
<g id="Node000009" class="node">
<title>Node9</title>
<g id="a_Node000009"><a xlink:href="xchar_8h.html#ab357e28df4fee8293636aaf7a1662508" target="_top" xlink:title=" ">
<polygon fill="white" stroke="#666666" points="45,-148 0,-148 0,-129 45,-129 45,-148"/>
<text text-anchor="middle" x="22.5" y="-136" font-family="Helvetica,sans-Serif" font-size="10.00">vprint</text>
</a>
</g>
</g>
<!-- Node8&#45;&gt;Node9 -->
<g id="edge8_Node000008_Node000009" class="edge">
<title>Node8&#45;&gt;Node9</title>
<g id="a_edge8_Node000008_Node000009"><a xlink:title=" ">
<path fill="none" stroke="#63b8ff" d="M70.76,-138.5C62.13,-138.5 52.98,-138.5 45.06,-138.5"/>
<polygon fill="#63b8ff" stroke="#63b8ff" points="70.91,-142 80.91,-138.5 70.91,-135 70.91,-142"/>
</a>
</g>
</g>
</g>
</svg>
