<?xml version="1.0" encoding="UTF-8" standalone="no"?>
<!DOCTYPE svg PUBLIC "-//W3C//DTD SVG 1.1//EN"
 "http://www.w3.org/Graphics/SVG/1.1/DTD/svg11.dtd">
<!-- Generated by graphviz version 2.43.0 (0)
 -->
<!-- Title: detail::buffer::push_back Pages: 1 -->
<svg width="787pt" height="472pt"
 viewBox="0.00 0.00 787.00 471.50" xmlns="http://www.w3.org/2000/svg" xmlns:xlink="http://www.w3.org/1999/xlink">
<g id="graph0" class="graph" transform="scale(1 1) rotate(0) translate(4 467.5)">
<title>detail::buffer::push_back</title>
<!-- Node1 -->
<g id="Node000001" class="node">
<title>Node1</title>
<g id="a_Node000001"><a xlink:title=" ">
<polygon fill="#999999" stroke="#666666" points="779,-236 642,-236 642,-217 779,-217 779,-236"/>
<text text-anchor="middle" x="710.5" y="-224" font-family="Helvetica,sans-Serif" font-size="10.00">detail::buffer::push_back</text>
</a>
</g>
</g>
<!-- Node2 -->
<g id="Node000002" class="node">
<title>Node2</title>
<g id="a_Node000002"><a xlink:href="classdetail_1_1digit__grouping.html#a0f6b16f6c24b8a79c3415aff8724e5b3" target="_top" xlink:title=" ">
<polygon fill="white" stroke="#666666" points="591,-463.5 471,-463.5 471,-433.5 591,-433.5 591,-463.5"/>
<text text-anchor="start" x="479" y="-451.5" font-family="Helvetica,sans-Serif" font-size="10.00">detail::digit_grouping</text>
<text text-anchor="middle" x="531" y="-440.5" font-family="Helvetica,sans-Serif" font-size="10.00">::apply</text>
</a>
</g>
</g>
<!-- Node1&#45;&gt;Node2 -->
<g id="edge1_Node000001_Node000002" class="edge">
<title>Node1&#45;&gt;Node2</title>
<g id="a_edge1_Node000001_Node000002"><a xlink:title=" ">
<path fill="none" stroke="#63b8ff" d="M704.62,-246.18C693.78,-285.8 663.96,-375.54 606,-424.5 601.56,-428.25 596.53,-431.41 591.22,-434.09"/>
<polygon fill="#63b8ff" stroke="#63b8ff" points="708.03,-246.98 707.18,-236.41 701.25,-245.2 708.03,-246.98"/>
</a>
</g>
</g>
<!-- Node3 -->
<g id="Node000003" class="node">
<title>Node3</title>
<g id="a_Node000003"><a xlink:href="structformatter_3_01std_1_1error__code_01_4.html#a470063b0427cac0f4618f8efe71656ac" target="_top" xlink:title=" ">
<polygon fill="white" stroke="#666666" points="590.5,-415.5 471.5,-415.5 471.5,-385.5 590.5,-385.5 590.5,-415.5"/>
<text text-anchor="start" x="479.5" y="-403.5" font-family="Helvetica,sans-Serif" font-size="10.00">formatter&lt; std::error</text>
<text text-anchor="middle" x="531" y="-392.5" font-family="Helvetica,sans-Serif" font-size="10.00">_code &gt;::format</text>
</a>
</g>
</g>
<!-- Node1&#45;&gt;Node3 -->
<g id="edge2_Node000001_Node000003" class="edge">
<title>Node1&#45;&gt;Node3</title>
<g id="a_edge2_Node000001_Node000003"><a xlink:title=" ">
<path fill="none" stroke="#63b8ff" d="M700.69,-245.17C685.44,-275.63 651.36,-336.13 606,-371.5 598.93,-377.01 590.67,-381.6 582.3,-385.37"/>
<polygon fill="#63b8ff" stroke="#63b8ff" points="703.89,-246.6 705.13,-236.08 697.59,-243.53 703.89,-246.6"/>
</a>
</g>
</g>
<!-- Node4 -->
<g id="Node000004" class="node">
<title>Node4</title>
<g id="a_Node000004"><a xlink:href="namespacedetail.html#af3eae8fdebff07dc2edca668eaf2f8bd" target="_top" xlink:title=" ">
<polygon fill="white" stroke="#666666" points="268,-303 146,-303 146,-284 268,-284 268,-303"/>
<text text-anchor="middle" x="207" y="-291" font-family="Helvetica,sans-Serif" font-size="10.00">detail::format_dragon</text>
</a>
</g>
</g>
<!-- Node1&#45;&gt;Node4 -->
<g id="edge3_Node000001_Node000004" class="edge">
<title>Node1&#45;&gt;Node4</title>
<g id="a_edge3_Node000001_Node000004"><a xlink:title=" ">
<path fill="none" stroke="#63b8ff" d="M679.31,-212.99C659.04,-204.67 631.47,-194.8 606,-190.5 540.26,-179.39 521.38,-177.46 456,-190.5 363.87,-208.87 263.13,-262.13 224.41,-283.98"/>
<polygon fill="#63b8ff" stroke="#63b8ff" points="678.07,-216.26 688.64,-216.91 680.78,-209.81 678.07,-216.26"/>
</a>
</g>
</g>
<!-- Node5 -->
<g id="Node000005" class="node">
<title>Node5</title>
<g id="a_Node000005"><a xlink:href="namespacedetail.html#add861c358ea50b446b1a06080adb44ba" target="_top" xlink:title=" ">
<polygon fill="white" stroke="#666666" points="110,-324 0,-324 0,-305 110,-305 110,-324"/>
<text text-anchor="middle" x="55" y="-312" font-family="Helvetica,sans-Serif" font-size="10.00">detail::format_float</text>
</a>
</g>
</g>
<!-- Node1&#45;&gt;Node5 -->
<g id="edge5_Node000001_Node000005" class="edge">
<title>Node1&#45;&gt;Node5</title>
<g id="a_edge5_Node000001_Node000005"><a xlink:title=" ">
<path fill="none" stroke="#63b8ff" d="M699.31,-244.85C683.39,-271.37 649.85,-319.31 606,-338.5 421.46,-419.24 168.01,-350.78 84.18,-324.05"/>
<polygon fill="#63b8ff" stroke="#63b8ff" points="702.37,-246.55 704.36,-236.14 696.31,-243.04 702.37,-246.55"/>
</a>
</g>
</g>
<!-- Node6 -->
<g id="Node000006" class="node">
<title>Node6</title>
<g id="a_Node000006"><a xlink:href="namespacedetail.html#a718888554bf1561a88969b304e570395" target="_top" xlink:title=" ">
<polygon fill="white" stroke="#666666" points="595,-292 467,-292 467,-273 595,-273 595,-292"/>
<text text-anchor="middle" x="531" y="-280" font-family="Helvetica,sans-Serif" font-size="10.00">detail::format_hexfloat</text>
</a>
</g>
</g>
<!-- Node1&#45;&gt;Node6 -->
<g id="edge6_Node000001_Node000006" class="edge">
<title>Node1&#45;&gt;Node6</title>
<g id="a_edge6_Node000001_Node000006"><a xlink:title=" ">
<path fill="none" stroke="#63b8ff" d="M676.55,-239.68C656.38,-247.48 629.92,-257.22 606,-264.5 596.01,-267.54 585.13,-270.42 574.88,-272.94"/>
<polygon fill="#63b8ff" stroke="#63b8ff" points="677.87,-242.92 685.92,-236.03 675.33,-236.4 677.87,-242.92"/>
</a>
</g>
</g>
<!-- Node7 -->
<g id="Node000007" class="node">
<title>Node7</title>
<g id="a_Node000007"><a xlink:href="classdetail_1_1bigint.html#a3b3f124ea4a98e02a66258e08226e10a" target="_top" xlink:title=" ">
<polygon fill="white" stroke="#666666" points="593.5,-255 468.5,-255 468.5,-236 593.5,-236 593.5,-255"/>
<text text-anchor="middle" x="531" y="-243" font-family="Helvetica,sans-Serif" font-size="10.00">detail::bigint::multiply</text>
</a>
</g>
</g>
<!-- Node1&#45;&gt;Node7 -->
<g id="edge7_Node000001_Node000007" class="edge">
<title>Node1&#45;&gt;Node7</title>
<g id="a_edge7_Node000001_Node000007"><a xlink:title=" ">
<path fill="none" stroke="#63b8ff" d="M631.74,-234.82C618.97,-236.19 605.9,-237.59 593.6,-238.91"/>
<polygon fill="#63b8ff" stroke="#63b8ff" points="632.32,-238.28 641.89,-233.74 631.57,-231.32 632.32,-238.28"/>
</a>
</g>
</g>
<!-- Node8 -->
<g id="Node000008" class="node">
<title>Node8</title>
<g id="a_Node000008"><a xlink:href="classdetail_1_1bigint.html#aeeaadae8fc82627007136abe7599f674" target="_top" xlink:title=" ">
<polygon fill="white" stroke="#666666" points="593.5,-218 468.5,-218 468.5,-199 593.5,-199 593.5,-218"/>
<text text-anchor="middle" x="531" y="-206" font-family="Helvetica,sans-Serif" font-size="10.00">detail::bigint::multiply</text>
</a>
</g>
</g>
<!-- Node1&#45;&gt;Node8 -->
<g id="edge8_Node000001_Node000008" class="edge">
<title>Node1&#45;&gt;Node8</title>
<g id="a_edge8_Node000001_Node000008"><a xlink:title=" ">
<path fill="none" stroke="#63b8ff" d="M631.74,-218.61C618.97,-217.32 605.9,-215.99 593.6,-214.75"/>
<polygon fill="#63b8ff" stroke="#63b8ff" points="631.59,-222.12 641.89,-219.64 632.29,-215.15 631.59,-222.12"/>
</a>
</g>
</g>
<!-- Node9 -->
<g id="Node000009" class="node">
<title>Node9</title>
<g id="a_Node000009"><a xlink:href="classdetail_1_1bigint.html#a0e86af8a4597a9f220f7c0ab7cbe026f" target="_top" xlink:title=" ">
<polygon fill="white" stroke="#666666" points="606,-329 456,-329 456,-310 606,-310 606,-329"/>
<text text-anchor="middle" x="531" y="-317" font-family="Helvetica,sans-Serif" font-size="10.00">detail::bigint::operator&lt;&lt;=</text>
</a>
</g>
</g>
<!-- Node1&#45;&gt;Node9 -->
<g id="edge9_Node000001_Node000009" class="edge">
<title>Node1&#45;&gt;Node9</title>
<g id="a_edge9_Node000001_Node000009"><a xlink:title=" ">
<path fill="none" stroke="#63b8ff" d="M691.67,-242.8C672.07,-259.87 638.96,-286.27 606,-301.5 598.68,-304.88 590.64,-307.68 582.65,-309.97"/>
<polygon fill="#63b8ff" stroke="#63b8ff" points="694.05,-245.37 699.21,-236.12 689.4,-240.13 694.05,-245.37"/>
</a>
</g>
</g>
<!-- Node11 -->
<g id="Node000011" class="node">
<title>Node11</title>
<g id="a_Node000011"><a xlink:href="namespacedetail.html#ab53b6d81e91fff3619f7c8a53bb93f34" target="_top" xlink:title=" ">
<polygon fill="white" stroke="#666666" points="592.5,-142 469.5,-142 469.5,-123 592.5,-123 592.5,-142"/>
<text text-anchor="middle" x="531" y="-130" font-family="Helvetica,sans-Serif" font-size="10.00">detail::to_utf8_3bytes</text>
</a>
</g>
</g>
<!-- Node1&#45;&gt;Node11 -->
<g id="edge13_Node000001_Node000011" class="edge">
<title>Node1&#45;&gt;Node11</title>
<g id="a_edge13_Node000001_Node000011"><a xlink:title=" ">
<path fill="none" stroke="#63b8ff" d="M689.69,-210.6C669.58,-195.09 637.07,-171.67 606,-156.5 594.11,-150.69 580.47,-145.82 568.18,-142.01"/>
<polygon fill="#63b8ff" stroke="#63b8ff" points="687.72,-213.51 697.75,-216.92 692.04,-208 687.72,-213.51"/>
</a>
</g>
</g>
<!-- Node12 -->
<g id="Node000012" class="node">
<title>Node12</title>
<g id="a_Node000012"><a xlink:href="classdetail_1_1utf8__to__utf16.html#aabad25a649e8f141b998e38abd970721" target="_top" xlink:title=" ">
<polygon fill="white" stroke="#666666" points="589,-104.5 473,-104.5 473,-74.5 589,-74.5 589,-104.5"/>
<text text-anchor="start" x="481" y="-92.5" font-family="Helvetica,sans-Serif" font-size="10.00">detail::utf8_to_utf16</text>
<text text-anchor="middle" x="531" y="-81.5" font-family="Helvetica,sans-Serif" font-size="10.00">::utf8_to_utf16</text>
</a>
</g>
</g>
<!-- Node1&#45;&gt;Node12 -->
<g id="edge14_Node000001_Node000012" class="edge">
<title>Node1&#45;&gt;Node12</title>
<g id="a_edge14_Node000001_Node000012"><a xlink:title=" ">
<path fill="none" stroke="#63b8ff" d="M697.35,-208.51C679.88,-183.95 645.39,-140.05 606,-114.5 600.08,-110.66 593.52,-107.35 586.81,-104.52"/>
<polygon fill="#63b8ff" stroke="#63b8ff" points="694.6,-210.69 703.19,-216.9 700.35,-206.7 694.6,-210.69"/>
</a>
</g>
</g>
<!-- Node14 -->
<g id="Node000014" class="node">
<title>Node14</title>
<g id="a_Node000014"><a xlink:href="xchar_8h.html#ad59e14d924bf2fe1d17939ad9d8b8d4a" target="_top" xlink:title=" ">
<polygon fill="white" stroke="#666666" points="553.5,-56 508.5,-56 508.5,-37 553.5,-37 553.5,-56"/>
<text text-anchor="middle" x="531" y="-44" font-family="Helvetica,sans-Serif" font-size="10.00">vprint</text>
</a>
</g>
</g>
<!-- Node1&#45;&gt;Node14 -->
<g id="edge16_Node000001_Node000014" class="edge">
<title>Node1&#45;&gt;Node14</title>
<g id="a_edge16_Node000001_Node000014"><a xlink:title=" ">
<path fill="none" stroke="#63b8ff" d="M702.51,-207.01C689.23,-172.87 657.05,-102.36 606,-65.5 590.62,-54.4 569.33,-49.77 553.54,-47.85"/>
<polygon fill="#63b8ff" stroke="#63b8ff" points="699.37,-208.6 706.16,-216.73 705.92,-206.14 699.37,-208.6"/>
</a>
</g>
</g>
<!-- Node16 -->
<g id="Node000016" class="node">
<title>Node16</title>
<g id="a_Node000016"><a xlink:href="format-inl_8h.html#a71033730e1d1c2c72b7905f21929df93" target="_top" xlink:title=" ">
<polygon fill="white" stroke="#666666" points="558,-19 504,-19 504,0 558,0 558,-19"/>
<text text-anchor="middle" x="531" y="-7" font-family="Helvetica,sans-Serif" font-size="10.00">vprintln</text>
</a>
</g>
</g>
<!-- Node1&#45;&gt;Node16 -->
<g id="edge18_Node000001_Node000016" class="edge">
<title>Node1&#45;&gt;Node16</title>
<g id="a_edge18_Node000001_Node000016"><a xlink:title=" ">
<path fill="none" stroke="#63b8ff" d="M705.09,-206.91C694.98,-166.71 666.23,-74.72 606,-27.5 592.47,-16.9 573.6,-12.42 558.3,-10.58"/>
<polygon fill="#63b8ff" stroke="#63b8ff" points="701.72,-207.89 707.46,-216.8 708.53,-206.26 701.72,-207.89"/>
</a>
</g>
</g>
<!-- Node4&#45;&gt;Node5 -->
<g id="edge4_Node000004_Node000005" class="edge">
<title>Node4&#45;&gt;Node5</title>
<g id="a_edge4_Node000004_Node000005"><a xlink:title=" ">
<path fill="none" stroke="#63b8ff" d="M135.86,-303.32C127.29,-304.52 118.63,-305.73 110.34,-306.89"/>
<polygon fill="#63b8ff" stroke="#63b8ff" points="136.44,-306.77 145.85,-301.92 135.46,-299.84 136.44,-306.77"/>
</a>
</g>
</g>
<!-- Node9&#45;&gt;Node4 -->
<g id="edge12_Node000009_Node000004" class="edge">
<title>Node9&#45;&gt;Node4</title>
<g id="a_edge12_Node000009_Node000004"><a xlink:title=" ">
<path fill="none" stroke="#63b8ff" d="M478.83,-307.46C471.16,-305.54 463.36,-303.52 456,-301.5 439.87,-297.08 436.55,-292.97 420,-290.5 369.01,-282.88 355.55,-289.69 304,-290.5 292.41,-290.68 280.04,-290.98 268.17,-291.33"/>
<polygon fill="#63b8ff" stroke="#63b8ff" points="478.24,-310.92 488.79,-309.92 479.92,-304.13 478.24,-310.92"/>
</a>
</g>
</g>
<!-- Node10 -->
<g id="Node000010" class="node">
<title>Node10</title>
<g id="a_Node000010"><a xlink:href="classdetail_1_1bigint.html#a8351139b55eb772c8f1c9f86e8e66e8f" target="_top" xlink:title=" ">
<polygon fill="white" stroke="#666666" points="420,-329.5 304,-329.5 304,-299.5 420,-299.5 420,-329.5"/>
<text text-anchor="start" x="312" y="-317.5" font-family="Helvetica,sans-Serif" font-size="10.00">detail::bigint::assign</text>
<text text-anchor="middle" x="362" y="-306.5" font-family="Helvetica,sans-Serif" font-size="10.00">_pow10</text>
</a>
</g>
</g>
<!-- Node9&#45;&gt;Node10 -->
<g id="edge10_Node000009_Node000010" class="edge">
<title>Node9&#45;&gt;Node10</title>
<g id="a_edge10_Node000009_Node000010"><a xlink:title=" ">
<path fill="none" stroke="#63b8ff" d="M445.67,-316.98C437.05,-316.72 428.43,-316.46 420.2,-316.21"/>
<polygon fill="#63b8ff" stroke="#63b8ff" points="445.68,-320.48 455.78,-317.28 445.89,-313.48 445.68,-320.48"/>
</a>
</g>
</g>
<!-- Node10&#45;&gt;Node4 -->
<g id="edge11_Node000010_Node000004" class="edge">
<title>Node10&#45;&gt;Node4</title>
<g id="a_edge11_Node000010_Node000004"><a xlink:title=" ">
<path fill="none" stroke="#63b8ff" d="M293.67,-305.26C285.13,-304.09 276.44,-302.89 268.03,-301.74"/>
<polygon fill="#63b8ff" stroke="#63b8ff" points="293.21,-308.73 303.59,-306.62 294.16,-301.79 293.21,-308.73"/>
</a>
</g>
</g>
<!-- Node13 -->
<g id="Node000013" class="node">
<title>Node13</title>
<g id="a_Node000013"><a xlink:href="namespacedetail.html#a6e87de2a7463d1a9afe229703795ce22" target="_top" xlink:title=" ">
<polygon fill="white" stroke="#666666" points="411,-99 313,-99 313,-80 411,-80 411,-99"/>
<text text-anchor="middle" x="362" y="-87" font-family="Helvetica,sans-Serif" font-size="10.00">detail::copy_unit</text>
</a>
</g>
</g>
<!-- Node12&#45;&gt;Node13 -->
<g id="edge15_Node000012_Node000013" class="edge">
<title>Node12&#45;&gt;Node13</title>
<g id="a_edge15_Node000012_Node000013"><a xlink:title=" ">
<path fill="none" stroke="#63b8ff" d="M462.93,-89.5C445.6,-89.5 427.28,-89.5 411.13,-89.5"/>
<polygon fill="#63b8ff" stroke="#63b8ff" points="463,-93 473,-89.5 463,-86 463,-93"/>
</a>
</g>
</g>
<!-- Node15 -->
<g id="Node000015" class="node">
<title>Node15</title>
<g id="a_Node000015"><a xlink:href="xchar_8h.html#ab357e28df4fee8293636aaf7a1662508" target="_top" xlink:title=" ">
<polygon fill="white" stroke="#666666" points="384.5,-56 339.5,-56 339.5,-37 384.5,-37 384.5,-56"/>
<text text-anchor="middle" x="362" y="-44" font-family="Helvetica,sans-Serif" font-size="10.00">vprint</text>
</a>
</g>
</g>
<!-- Node14&#45;&gt;Node15 -->
<g id="edge17_Node000014_Node000015" class="edge">
<title>Node14&#45;&gt;Node15</title>
<g id="a_edge17_Node000014_Node000015"><a xlink:title=" ">
<path fill="none" stroke="#63b8ff" d="M498.03,-46.5C464.71,-46.5 413.4,-46.5 384.57,-46.5"/>
<polygon fill="#63b8ff" stroke="#63b8ff" points="498.17,-50 508.17,-46.5 498.17,-43 498.17,-50"/>
</a>
</g>
</g>
</g>
</svg>
