<?xml version="1.0" encoding="UTF-8" standalone="no"?>
<!DOCTYPE svg PUBLIC "-//W3C//DTD SVG 1.1//EN"
 "http://www.w3.org/Graphics/SVG/1.1/DTD/svg11.dtd">
<!-- Generated by graphviz version 2.43.0 (0)
 -->
<!-- Title: basic_specs::clear_alt Pages: 1 -->
<svg width="290pt" height="76pt"
 viewBox="0.00 0.00 290.00 75.50" xmlns="http://www.w3.org/2000/svg" xmlns:xlink="http://www.w3.org/1999/xlink">
<g id="graph0" class="graph" transform="scale(1 1) rotate(0) translate(4 71.5)">
<title>basic_specs::clear_alt</title>
<!-- Node1 -->
<g id="Node000001" class="node">
<title>Node1</title>
<g id="a_Node000001"><a xlink:title=" ">
<polygon fill="#999999" stroke="#666666" points="282,-40 159,-40 159,-21 282,-21 282,-40"/>
<text text-anchor="middle" x="220.5" y="-28" font-family="Helvetica,sans-Serif" font-size="10.00">basic_specs::clear_alt</text>
</a>
</g>
</g>
<!-- Node2 -->
<g id="Node000002" class="node">
<title>Node2</title>
<g id="a_Node000002"><a xlink:href="classdetail_1_1printf__arg__formatter.html#a82813713e45cd2a260d77658511c55c1" target="_top" xlink:title=" ">
<polygon fill="white" stroke="#666666" points="123,-67.5 0,-67.5 0,-37.5 123,-37.5 123,-67.5"/>
<text text-anchor="start" x="8" y="-55.5" font-family="Helvetica,sans-Serif" font-size="10.00">detail::printf_arg</text>
<text text-anchor="middle" x="61.5" y="-44.5" font-family="Helvetica,sans-Serif" font-size="10.00">_formatter::operator()</text>
</a>
</g>
</g>
<!-- Node1&#45;&gt;Node2 -->
<g id="edge1_Node000001_Node000002" class="edge">
<title>Node1&#45;&gt;Node2</title>
<g id="a_edge1_Node000001_Node000002"><a xlink:title=" ">
<path fill="none" stroke="#63b8ff" d="M148.79,-40.41C140.19,-41.61 131.47,-42.84 123.04,-44.02"/>
<polygon fill="#63b8ff" stroke="#63b8ff" points="149.38,-43.86 158.8,-39.01 148.41,-36.93 149.38,-43.86"/>
</a>
</g>
</g>
<!-- Node3 -->
<g id="Node000003" class="node">
<title>Node3</title>
<g id="a_Node000003"><a xlink:href="namespacedetail.html#a1c8c2218e4c822aa8f743fb9c573717f" target="_top" xlink:title=" ">
<polygon fill="white" stroke="#666666" points="103,-19 20,-19 20,0 103,0 103,-19"/>
<text text-anchor="middle" x="61.5" y="-7" font-family="Helvetica,sans-Serif" font-size="10.00">detail::vprintf</text>
</a>
</g>
</g>
<!-- Node1&#45;&gt;Node3 -->
<g id="edge2_Node000001_Node000003" class="edge">
<title>Node1&#45;&gt;Node3</title>
<g id="a_edge2_Node000001_Node000003"><a xlink:title=" ">
<path fill="none" stroke="#63b8ff" d="M148.64,-21.02C133.06,-18.94 117.06,-16.8 103.15,-14.94"/>
<polygon fill="#63b8ff" stroke="#63b8ff" points="148.42,-24.52 158.8,-22.38 149.35,-17.59 148.42,-24.52"/>
</a>
</g>
</g>
</g>
</svg>
