<?xml version="1.0" encoding="UTF-8" standalone="no"?>
<!DOCTYPE svg PUBLIC "-//W3C//DTD SVG 1.1//EN"
 "http://www.w3.org/Graphics/SVG/1.1/DTD/svg11.dtd">
<!-- Generated by graphviz version 2.43.0 (0)
 -->
<!-- Title: basic_specs::type Pages: 1 -->
<svg width="270pt" height="433pt"
 viewBox="0.00 0.00 270.00 432.50" xmlns="http://www.w3.org/2000/svg" xmlns:xlink="http://www.w3.org/1999/xlink">
<g id="graph0" class="graph" transform="scale(1 1) rotate(0) translate(4 428.5)">
<title>basic_specs::type</title>
<!-- Node1 -->
<g id="Node000001" class="node">
<title>Node1</title>
<g id="a_Node000001"><a xlink:title=" ">
<polygon fill="#999999" stroke="#666666" points="262,-204 159,-204 159,-185 262,-185 262,-204"/>
<text text-anchor="middle" x="210.5" y="-192" font-family="Helvetica,sans-Serif" font-size="10.00">basic_specs::type</text>
</a>
</g>
</g>
<!-- Node2 -->
<g id="Node000002" class="node">
<title>Node2</title>
<g id="a_Node000002"><a xlink:href="namespacedetail.html#a56f8ff16a82c38da1e1f7ac0b823f526" target="_top" xlink:title=" ">
<polygon fill="white" stroke="#666666" points="114,-424.5 9,-424.5 9,-394.5 114,-394.5 114,-424.5"/>
<text text-anchor="start" x="17" y="-412.5" font-family="Helvetica,sans-Serif" font-size="10.00">detail::check_char</text>
<text text-anchor="middle" x="61.5" y="-401.5" font-family="Helvetica,sans-Serif" font-size="10.00">_specs</text>
</a>
</g>
</g>
<!-- Node1&#45;&gt;Node2 -->
<g id="edge1_Node000001_Node000002" class="edge">
<title>Node1&#45;&gt;Node2</title>
<g id="a_edge1_Node000001_Node000002"><a xlink:title=" ">
<path fill="none" stroke="#63b8ff" d="M205.71,-214.19C197.4,-252.33 174.07,-336.8 123,-385.5 119.4,-388.93 115.25,-391.89 110.85,-394.44"/>
<polygon fill="#63b8ff" stroke="#63b8ff" points="209.15,-214.83 207.75,-204.33 202.3,-213.41 209.15,-214.83"/>
</a>
</g>
</g>
<!-- Node3 -->
<g id="Node000003" class="node">
<title>Node3</title>
<g id="a_Node000003"><a xlink:href="namespacedetail.html#af15358b6464bf066f4d6e03cb61dc36b" target="_top" xlink:title=" ">
<polygon fill="white" stroke="#666666" points="121,-376 2,-376 2,-357 121,-357 121,-376"/>
<text text-anchor="middle" x="61.5" y="-364" font-family="Helvetica,sans-Serif" font-size="10.00">detail::do_write_float</text>
</a>
</g>
</g>
<!-- Node1&#45;&gt;Node3 -->
<g id="edge2_Node000001_Node000003" class="edge">
<title>Node1&#45;&gt;Node3</title>
<g id="a_edge2_Node000001_Node000003"><a xlink:title=" ">
<path fill="none" stroke="#63b8ff" d="M203.83,-213.63C193.28,-245.97 167.54,-311.46 123,-347.5 118.21,-351.38 112.62,-354.47 106.81,-356.93"/>
<polygon fill="#63b8ff" stroke="#63b8ff" points="207.19,-214.61 206.84,-204.02 200.51,-212.52 207.19,-214.61"/>
</a>
</g>
</g>
<!-- Node4 -->
<g id="Node000004" class="node">
<title>Node4</title>
<g id="a_Node000004"><a xlink:href="structformatter_3_01std_1_1error__code_01_4.html#a470063b0427cac0f4618f8efe71656ac" target="_top" xlink:title=" ">
<polygon fill="white" stroke="#666666" points="121,-338.5 2,-338.5 2,-308.5 121,-308.5 121,-338.5"/>
<text text-anchor="start" x="10" y="-326.5" font-family="Helvetica,sans-Serif" font-size="10.00">formatter&lt; std::error</text>
<text text-anchor="middle" x="61.5" y="-315.5" font-family="Helvetica,sans-Serif" font-size="10.00">_code &gt;::format</text>
</a>
</g>
</g>
<!-- Node1&#45;&gt;Node4 -->
<g id="edge3_Node000001_Node000004" class="edge">
<title>Node1&#45;&gt;Node4</title>
<g id="a_edge3_Node000001_Node000004"><a xlink:title=" ">
<path fill="none" stroke="#63b8ff" d="M198.57,-212.81C183.96,-235.88 156.05,-275.42 123,-299.5 118.43,-302.83 113.34,-305.77 108.11,-308.35"/>
<polygon fill="#63b8ff" stroke="#63b8ff" points="201.55,-214.64 203.83,-204.29 195.59,-210.96 201.55,-214.64"/>
</a>
</g>
</g>
<!-- Node5 -->
<g id="Node000005" class="node">
<title>Node5</title>
<g id="a_Node000005"><a xlink:href="namespacedetail.html#add861c358ea50b446b1a06080adb44ba" target="_top" xlink:title=" ">
<polygon fill="white" stroke="#666666" points="116.5,-290 6.5,-290 6.5,-271 116.5,-271 116.5,-290"/>
<text text-anchor="middle" x="61.5" y="-278" font-family="Helvetica,sans-Serif" font-size="10.00">detail::format_float</text>
</a>
</g>
</g>
<!-- Node1&#45;&gt;Node5 -->
<g id="edge4_Node000001_Node000005" class="edge">
<title>Node1&#45;&gt;Node5</title>
<g id="a_edge4_Node000001_Node000005"><a xlink:title=" ">
<path fill="none" stroke="#63b8ff" d="M191.91,-211.19C175.29,-226.18 149.09,-247.86 123,-261.5 115.88,-265.22 107.9,-268.37 100.13,-270.96"/>
<polygon fill="#63b8ff" stroke="#63b8ff" points="194.69,-213.39 199.68,-204.04 189.95,-208.24 194.69,-213.39"/>
</a>
</g>
</g>
<!-- Node6 -->
<g id="Node000006" class="node">
<title>Node6</title>
<g id="a_Node000006"><a xlink:href="classdetail_1_1printf__arg__formatter.html#a82813713e45cd2a260d77658511c55c1" target="_top" xlink:title=" ">
<polygon fill="white" stroke="#666666" points="123,-252.5 0,-252.5 0,-222.5 123,-222.5 123,-252.5"/>
<text text-anchor="start" x="8" y="-240.5" font-family="Helvetica,sans-Serif" font-size="10.00">detail::printf_arg</text>
<text text-anchor="middle" x="61.5" y="-229.5" font-family="Helvetica,sans-Serif" font-size="10.00">_formatter::operator()</text>
</a>
</g>
</g>
<!-- Node1&#45;&gt;Node6 -->
<g id="edge5_Node000001_Node000006" class="edge">
<title>Node1&#45;&gt;Node6</title>
<g id="a_edge5_Node000001_Node000006"><a xlink:title=" ">
<path fill="none" stroke="#63b8ff" d="M166.91,-206.96C150.32,-211.81 131.15,-217.42 113.8,-222.49"/>
<polygon fill="#63b8ff" stroke="#63b8ff" points="168.26,-210.21 176.88,-204.04 166.3,-203.49 168.26,-210.21"/>
</a>
</g>
</g>
<!-- Node7 -->
<g id="Node000007" class="node">
<title>Node7</title>
<g id="a_Node000007"><a xlink:href="namespacedetail.html#a1c8c2218e4c822aa8f743fb9c573717f" target="_top" xlink:title=" ">
<polygon fill="white" stroke="#666666" points="103,-204 20,-204 20,-185 103,-185 103,-204"/>
<text text-anchor="middle" x="61.5" y="-192" font-family="Helvetica,sans-Serif" font-size="10.00">detail::vprintf</text>
</a>
</g>
</g>
<!-- Node1&#45;&gt;Node7 -->
<g id="edge6_Node000001_Node000007" class="edge">
<title>Node1&#45;&gt;Node7</title>
<g id="a_edge6_Node000001_Node000007"><a xlink:title=" ">
<path fill="none" stroke="#63b8ff" d="M148.54,-194.5C133.35,-194.5 117.42,-194.5 103.45,-194.5"/>
<polygon fill="#63b8ff" stroke="#63b8ff" points="148.91,-198 158.91,-194.5 148.91,-191 148.91,-198"/>
</a>
</g>
</g>
<!-- Node8 -->
<g id="Node000008" class="node">
<title>Node8</title>
<g id="a_Node000008"><a xlink:href="namespacedetail.html#a8982f9880f97e5151198dd1b6c708ae5" target="_top" xlink:title=" ">
<polygon fill="white" stroke="#666666" points="99,-167 24,-167 24,-148 99,-148 99,-167"/>
<text text-anchor="middle" x="61.5" y="-155" font-family="Helvetica,sans-Serif" font-size="10.00">detail::write</text>
</a>
</g>
</g>
<!-- Node1&#45;&gt;Node8 -->
<g id="edge7_Node000001_Node000008" class="edge">
<title>Node1&#45;&gt;Node8</title>
<g id="a_edge7_Node000001_Node000008"><a xlink:title=" ">
<path fill="none" stroke="#63b8ff" d="M161.93,-182.53C141.58,-177.41 118.19,-171.52 99.21,-166.74"/>
<polygon fill="#63b8ff" stroke="#63b8ff" points="161.09,-185.92 171.64,-184.97 162.8,-179.14 161.09,-185.92"/>
</a>
</g>
</g>
<!-- Node9 -->
<g id="Node000009" class="node">
<title>Node9</title>
<g id="a_Node000009"><a xlink:href="namespacedetail.html#a777e6fe73ebbbc35d915d2d20f1dfd44" target="_top" xlink:title=" ">
<polygon fill="white" stroke="#666666" points="99,-130 24,-130 24,-111 99,-111 99,-130"/>
<text text-anchor="middle" x="61.5" y="-118" font-family="Helvetica,sans-Serif" font-size="10.00">detail::write</text>
</a>
</g>
</g>
<!-- Node1&#45;&gt;Node9 -->
<g id="edge8_Node000001_Node000009" class="edge">
<title>Node1&#45;&gt;Node9</title>
<g id="a_edge8_Node000001_Node000009"><a xlink:title=" ">
<path fill="none" stroke="#63b8ff" d="M188.35,-178.82C171.37,-166.8 146.55,-150.45 123,-139.5 115.21,-135.88 106.56,-132.7 98.28,-130.03"/>
<polygon fill="#63b8ff" stroke="#63b8ff" points="186.76,-181.99 196.92,-185 190.85,-176.31 186.76,-181.99"/>
</a>
</g>
</g>
<!-- Node10 -->
<g id="Node000010" class="node">
<title>Node10</title>
<g id="a_Node000010"><a xlink:href="namespacedetail.html#ab0aae7ee7bba24d57deb4b504354ecff" target="_top" xlink:title=" ">
<polygon fill="white" stroke="#666666" points="112,-93 11,-93 11,-74 112,-74 112,-93"/>
<text text-anchor="middle" x="61.5" y="-81" font-family="Helvetica,sans-Serif" font-size="10.00">detail::write_char</text>
</a>
</g>
</g>
<!-- Node1&#45;&gt;Node10 -->
<g id="edge9_Node000001_Node000010" class="edge">
<title>Node1&#45;&gt;Node10</title>
<g id="a_edge9_Node000001_Node000010"><a xlink:title=" ">
<path fill="none" stroke="#63b8ff" d="M197.19,-176.66C182.03,-155.97 154.38,-122.19 123,-102.5 116.94,-98.7 110.05,-95.6 103.16,-93.1"/>
<polygon fill="#63b8ff" stroke="#63b8ff" points="194.42,-178.8 203.08,-184.9 200.11,-174.73 194.42,-178.8"/>
</a>
</g>
</g>
<!-- Node11 -->
<g id="Node000011" class="node">
<title>Node11</title>
<g id="a_Node000011"><a xlink:href="namespacedetail.html#a53f64cca161818cc3e0d8ebce2a36335" target="_top" xlink:title=" ">
<polygon fill="white" stroke="#666666" points="108,-56 15,-56 15,-37 108,-37 108,-56"/>
<text text-anchor="middle" x="61.5" y="-44" font-family="Helvetica,sans-Serif" font-size="10.00">detail::write_int</text>
</a>
</g>
</g>
<!-- Node1&#45;&gt;Node11 -->
<g id="edge10_Node000001_Node000011" class="edge">
<title>Node1&#45;&gt;Node11</title>
<g id="a_edge10_Node000001_Node000011"><a xlink:title=" ">
<path fill="none" stroke="#63b8ff" d="M201.62,-175.25C189.11,-147.05 162.06,-94.72 123,-65.5 117.8,-61.61 111.78,-58.5 105.6,-56.03"/>
<polygon fill="#63b8ff" stroke="#63b8ff" points="198.54,-176.96 205.7,-184.77 204.98,-174.2 198.54,-176.96"/>
</a>
</g>
</g>
<!-- Node12 -->
<g id="Node000012" class="node">
<title>Node12</title>
<g id="a_Node000012"><a xlink:href="namespacedetail.html#a4604c5f0e986ec57fd58b28697d303d8" target="_top" xlink:title=" ">
<polygon fill="white" stroke="#666666" points="108,-19 15,-19 15,0 108,0 108,-19"/>
<text text-anchor="middle" x="61.5" y="-7" font-family="Helvetica,sans-Serif" font-size="10.00">detail::write_int</text>
</a>
</g>
</g>
<!-- Node1&#45;&gt;Node12 -->
<g id="edge11_Node000001_Node000012" class="edge">
<title>Node1&#45;&gt;Node12</title>
<g id="a_edge11_Node000001_Node000012"><a xlink:title=" ">
<path fill="none" stroke="#63b8ff" d="M204.71,-175.21C195.16,-140.69 170.43,-68.23 123,-28.5 118.36,-24.61 112.92,-21.52 107.24,-19.05"/>
<polygon fill="#63b8ff" stroke="#63b8ff" points="201.36,-176.22 207.29,-185 208.13,-174.44 201.36,-176.22"/>
</a>
</g>
</g>
</g>
</svg>
