<?xml version="1.0" encoding="UTF-8" standalone="no"?>
<!DOCTYPE svg PUBLIC "-//W3C//DTD SVG 1.1//EN"
 "http://www.w3.org/Graphics/SVG/1.1/DTD/svg11.dtd">
<!-- Generated by graphviz version 2.43.0 (0)
 -->
<!-- Title: SX127x Pages: 1 -->
<svg width="274pt" height="192pt"
 viewBox="0.00 0.00 274.00 192.00" xmlns="http://www.w3.org/2000/svg" xmlns:xlink="http://www.w3.org/1999/xlink">
<g id="graph0" class="graph" transform="scale(1 1) rotate(0) translate(4 188)">
<title>SX127x</title>
<!-- Node1 -->
<g id="Node000001" class="node">
<title>Node1</title>
<g id="a_Node000001"><a xlink:title="Base class for SX127x series. All derived classes for SX127x (e.g. SX1278 or SX1272) inherit from thi...">
<polygon fill="#999999" stroke="#666666" points="88,-129 35,-129 35,-110 88,-110 88,-129"/>
<text text-anchor="middle" x="61.5" y="-117" font-family="Helvetica,sans-Serif" font-size="10.00">SX127x</text>
</a>
</g>
</g>
<!-- Node3 -->
<g id="Node000003" class="node">
<title>Node3</title>
<g id="a_Node000003"><a xlink:href="classSX1272.html" target="_top" xlink:title="Derived class for SX1272 modules. Also used as base class for SX1273. Both modules use the same basic...">
<polygon fill="white" stroke="#666666" points="53,-74 0,-74 0,-55 53,-55 53,-74"/>
<text text-anchor="middle" x="26.5" y="-62" font-family="Helvetica,sans-Serif" font-size="10.00">SX1272</text>
</a>
</g>
</g>
<!-- Node1&#45;&gt;Node3 -->
<g id="edge2_Node000001_Node000003" class="edge">
<title>Node1&#45;&gt;Node3</title>
<g id="a_edge2_Node000001_Node000003"><a xlink:title=" ">
<path fill="none" stroke="#63b8ff" d="M50.2,-101.39C44.18,-92.27 37.03,-81.45 32.17,-74.09"/>
<polygon fill="#63b8ff" stroke="#63b8ff" points="47.29,-103.33 55.72,-109.75 53.13,-99.47 47.29,-103.33"/>
</a>
</g>
</g>
<!-- Node5 -->
<g id="Node000005" class="node">
<title>Node5</title>
<g id="a_Node000005"><a xlink:href="classSX1278.html" target="_top" xlink:title="Derived class for SX1278 modules. Also used as base class for SX1276, SX1277, SX1279,...">
<polygon fill="white" stroke="#666666" points="159,-74 106,-74 106,-55 159,-55 159,-74"/>
<text text-anchor="middle" x="132.5" y="-62" font-family="Helvetica,sans-Serif" font-size="10.00">SX1278</text>
</a>
</g>
</g>
<!-- Node1&#45;&gt;Node5 -->
<g id="edge4_Node000001_Node000005" class="edge">
<title>Node1&#45;&gt;Node5</title>
<g id="a_edge4_Node000001_Node000005"><a xlink:title=" ">
<path fill="none" stroke="#63b8ff" d="M81.09,-103.88C93.87,-94.34 110.11,-82.21 120.89,-74.17"/>
<polygon fill="#63b8ff" stroke="#63b8ff" points="78.83,-101.2 72.91,-109.98 83.01,-106.81 78.83,-101.2"/>
</a>
</g>
</g>
<!-- Node2 -->
<g id="Node000002" class="node">
<title>Node2</title>
<g id="a_Node000002"><a xlink:href="classPhysicalLayer.html" target="_top" xlink:title="Provides common interface for protocols that run on LoRa/FSK modules, such as RTTY or LoRaWAN....">
<polygon fill="white" stroke="#666666" points="103.5,-184 19.5,-184 19.5,-165 103.5,-165 103.5,-184"/>
<text text-anchor="middle" x="61.5" y="-172" font-family="Helvetica,sans-Serif" font-size="10.00">PhysicalLayer</text>
</a>
</g>
</g>
<!-- Node2&#45;&gt;Node1 -->
<g id="edge1_Node000001_Node000002" class="edge">
<title>Node2&#45;&gt;Node1</title>
<g id="a_edge1_Node000001_Node000002"><a xlink:title=" ">
<path fill="none" stroke="#63b8ff" d="M61.5,-154.66C61.5,-145.93 61.5,-135.99 61.5,-129.09"/>
<polygon fill="#63b8ff" stroke="#63b8ff" points="58,-154.75 61.5,-164.75 65,-154.75 58,-154.75"/>
</a>
</g>
</g>
<!-- Node4 -->
<g id="Node000004" class="node">
<title>Node4</title>
<g id="a_Node000004"><a xlink:href="classSX1273.html" target="_top" xlink:title="Derived class for SX1273 modules. Overrides some methods from SX1272 due to different parameter range...">
<polygon fill="white" stroke="#666666" points="53,-19 0,-19 0,0 53,0 53,-19"/>
<text text-anchor="middle" x="26.5" y="-7" font-family="Helvetica,sans-Serif" font-size="10.00">SX1273</text>
</a>
</g>
</g>
<!-- Node3&#45;&gt;Node4 -->
<g id="edge3_Node000003_Node000004" class="edge">
<title>Node3&#45;&gt;Node4</title>
<g id="a_edge3_Node000003_Node000004"><a xlink:title=" ">
<path fill="none" stroke="#63b8ff" d="M26.5,-44.66C26.5,-35.93 26.5,-25.99 26.5,-19.09"/>
<polygon fill="#63b8ff" stroke="#63b8ff" points="23,-44.75 26.5,-54.75 30,-44.75 23,-44.75"/>
</a>
</g>
</g>
<!-- Node6 -->
<g id="Node000006" class="node">
<title>Node6</title>
<g id="a_Node000006"><a xlink:href="classSX1276.html" target="_top" xlink:title="Derived class for SX1276 modules. Overrides some methods from SX1278 due to different parameter range...">
<polygon fill="white" stroke="#666666" points="124,-19 71,-19 71,0 124,0 124,-19"/>
<text text-anchor="middle" x="97.5" y="-7" font-family="Helvetica,sans-Serif" font-size="10.00">SX1276</text>
</a>
</g>
</g>
<!-- Node5&#45;&gt;Node6 -->
<g id="edge5_Node000005_Node000006" class="edge">
<title>Node5&#45;&gt;Node6</title>
<g id="a_edge5_Node000005_Node000006"><a xlink:title=" ">
<path fill="none" stroke="#63b8ff" d="M121.2,-46.39C115.18,-37.27 108.03,-26.45 103.17,-19.09"/>
<polygon fill="#63b8ff" stroke="#63b8ff" points="118.29,-48.33 126.72,-54.75 124.13,-44.47 118.29,-48.33"/>
</a>
</g>
</g>
<!-- Node7 -->
<g id="Node000007" class="node">
<title>Node7</title>
<g id="a_Node000007"><a xlink:href="classSX1277.html" target="_top" xlink:title="Derived class for SX1277 modules. Overrides some methods from SX1278 due to different parameter range...">
<polygon fill="white" stroke="#666666" points="195,-19 142,-19 142,0 195,0 195,-19"/>
<text text-anchor="middle" x="168.5" y="-7" font-family="Helvetica,sans-Serif" font-size="10.00">SX1277</text>
</a>
</g>
</g>
<!-- Node5&#45;&gt;Node7 -->
<g id="edge6_Node000005_Node000007" class="edge">
<title>Node5&#45;&gt;Node7</title>
<g id="a_edge6_Node000005_Node000007"><a xlink:title=" ">
<path fill="none" stroke="#63b8ff" d="M144.12,-46.39C150.32,-37.27 157.67,-26.45 162.67,-19.09"/>
<polygon fill="#63b8ff" stroke="#63b8ff" points="141.17,-44.51 138.44,-54.75 146.96,-48.44 141.17,-44.51"/>
</a>
</g>
</g>
<!-- Node8 -->
<g id="Node000008" class="node">
<title>Node8</title>
<g id="a_Node000008"><a xlink:href="classSX1279.html" target="_top" xlink:title="Derived class for SX1279 modules. Overrides some methods from SX1278 due to different parameter range...">
<polygon fill="white" stroke="#666666" points="266,-19 213,-19 213,0 266,0 266,-19"/>
<text text-anchor="middle" x="239.5" y="-7" font-family="Helvetica,sans-Serif" font-size="10.00">SX1279</text>
</a>
</g>
</g>
<!-- Node5&#45;&gt;Node8 -->
<g id="edge7_Node000005_Node000008" class="edge">
<title>Node5&#45;&gt;Node8</title>
<g id="a_edge7_Node000005_Node000008"><a xlink:title=" ">
<path fill="none" stroke="#63b8ff" d="M158.74,-50.5C178.43,-40.75 204.82,-27.68 222,-19.17"/>
<polygon fill="#63b8ff" stroke="#63b8ff" points="157.1,-47.41 149.69,-54.98 160.21,-53.68 157.1,-47.41"/>
</a>
</g>
</g>
</g>
</svg>
