<?xml version="1.0" encoding="UTF-8" standalone="no"?>
<!DOCTYPE svg PUBLIC "-//W3C//DTD SVG 1.1//EN"
 "http://www.w3.org/Graphics/SVG/1.1/DTD/svg11.dtd">
<!-- Generated by graphviz version 2.43.0 (0)
 -->
<!-- Title: cxxopts::exceptions::gratuitous_argument_for_option::gratuitous_argument_for_option Pages: 1 -->
<svg width="445pt" height="60pt"
 viewBox="0.00 0.00 445.00 60.00" xmlns="http://www.w3.org/2000/svg" xmlns:xlink="http://www.w3.org/1999/xlink">
<g id="graph0" class="graph" transform="scale(1 1) rotate(0) translate(4 56)">
<title>cxxopts::exceptions::gratuitous_argument_for_option::gratuitous_argument_for_option</title>
<!-- Node1 -->
<g id="Node000001" class="node">
<title>Node1</title>
<g id="a_Node000001"><a xlink:title=" ">
<polygon fill="#999999" stroke="#666666" points="127,-52 0,-52 0,0 127,0 127,-52"/>
<text text-anchor="start" x="8" y="-40" font-family="Helvetica,sans-Serif" font-size="10.00">cxxopts::exceptions</text>
<text text-anchor="start" x="8" y="-29" font-family="Helvetica,sans-Serif" font-size="10.00">::gratuitous_argument</text>
<text text-anchor="start" x="8" y="-18" font-family="Helvetica,sans-Serif" font-size="10.00">_for_option::gratuitous</text>
<text text-anchor="middle" x="63.5" y="-7" font-family="Helvetica,sans-Serif" font-size="10.00">_argument_for_option</text>
</a>
</g>
</g>
<!-- Node2 -->
<g id="Node000002" class="node">
<title>Node2</title>
<g id="a_Node000002"><a xlink:href="classcxxopts_1_1exceptions_1_1parsing.html#ad40b741e8c5aba5e4be33c37d84cb09e" target="_top" xlink:title=" ">
<polygon fill="white" stroke="#666666" points="276,-41 163,-41 163,-11 276,-11 276,-41"/>
<text text-anchor="start" x="171" y="-29" font-family="Helvetica,sans-Serif" font-size="10.00">cxxopts::exceptions</text>
<text text-anchor="middle" x="219.5" y="-18" font-family="Helvetica,sans-Serif" font-size="10.00">::parsing::parsing</text>
</a>
</g>
</g>
<!-- Node1&#45;&gt;Node2 -->
<g id="edge1_Node000001_Node000002" class="edge">
<title>Node1&#45;&gt;Node2</title>
<g id="a_edge1_Node000001_Node000002"><a xlink:title=" ">
<path fill="none" stroke="#63b8ff" d="M127.14,-26C135.54,-26 144.19,-26 152.65,-26"/>
<polygon fill="#63b8ff" stroke="#63b8ff" points="152.85,-29.5 162.85,-26 152.85,-22.5 152.85,-29.5"/>
</a>
</g>
</g>
<!-- Node3 -->
<g id="Node000003" class="node">
<title>Node3</title>
<g id="a_Node000003"><a xlink:href="classcxxopts_1_1exceptions_1_1exception.html#a4f28a7e472811e1917d3c69c972ef832" target="_top" xlink:title=" ">
<polygon fill="white" stroke="#666666" points="437,-41 312,-41 312,-11 437,-11 437,-41"/>
<text text-anchor="start" x="320" y="-29" font-family="Helvetica,sans-Serif" font-size="10.00">cxxopts::exceptions</text>
<text text-anchor="middle" x="374.5" y="-18" font-family="Helvetica,sans-Serif" font-size="10.00">::exception::exception</text>
</a>
</g>
</g>
<!-- Node2&#45;&gt;Node3 -->
<g id="edge2_Node000002_Node000003" class="edge">
<title>Node2&#45;&gt;Node3</title>
<g id="a_edge2_Node000002_Node000003"><a xlink:title=" ">
<path fill="none" stroke="#63b8ff" d="M276.17,-26C284.52,-26 293.23,-26 301.86,-26"/>
<polygon fill="#63b8ff" stroke="#63b8ff" points="301.92,-29.5 311.92,-26 301.92,-22.5 301.92,-29.5"/>
</a>
</g>
</g>
</g>
</svg>
