<?xml version="1.0" encoding="UTF-8" standalone="no"?>
<!DOCTYPE svg PUBLIC "-//W3C//DTD SVG 1.1//EN"
 "http://www.w3.org/Graphics/SVG/1.1/DTD/svg11.dtd">
<!-- Generated by graphviz version 2.43.0 (0)
 -->
<!-- Title: BellClient Pages: 1 -->
<svg width="283pt" height="159pt"
 viewBox="0.00 0.00 282.50 159.00" xmlns="http://www.w3.org/2000/svg" xmlns:xlink="http://www.w3.org/1999/xlink">
<g id="graph0" class="graph" transform="scale(1 1) rotate(0) translate(4 155)">
<title>BellClient</title>
<!-- Node1 -->
<g id="Node000001" class="node">
<title>Node1</title>
<g id="a_Node000001"><a xlink:title="Client for Bell modem communication. The public interface is the same as Arduino Serial.">
<polygon fill="#999999" stroke="#666666" points="167,-19 103,-19 103,0 167,0 167,-19"/>
<text text-anchor="middle" x="135" y="-7" font-family="Helvetica,sans-Serif" font-size="10.00">BellClient</text>
</a>
</g>
</g>
<!-- Node2 -->
<g id="Node000002" class="node">
<title>Node2</title>
<g id="a_Node000002"><a xlink:href="classAFSKClient.html" target="_top" xlink:title="Client for audio&#45;based transmissions. Requires Arduino tone() function, and a module capable of direc...">
<polygon fill="white" stroke="#666666" points="76.5,-85 7.5,-85 7.5,-66 76.5,-66 76.5,-85"/>
<text text-anchor="middle" x="42" y="-73" font-family="Helvetica,sans-Serif" font-size="10.00">AFSKClient</text>
</a>
</g>
</g>
<!-- Node2&#45;&gt;Node1 -->
<g id="edge1_Node000001_Node000002" class="edge">
<title>Node2&#45;&gt;Node1</title>
<g id="a_edge1_Node000001_Node000002"><a xlink:title=" ">
<path fill="none" stroke="#63b8ff" d="M62.81,-60.18C81.08,-47.61 107.06,-29.73 122.36,-19.2"/>
<polygon fill="#63b8ff" stroke="#63b8ff" points="60.8,-57.32 54.54,-65.87 64.76,-63.08 60.8,-57.32"/>
</a>
</g>
</g>
<!-- Node3 -->
<g id="Node000003" class="node">
<title>Node3</title>
<g id="a_Node000003"><a xlink:href="classPhysicalLayer.html" target="_top" xlink:title="Provides common interface for protocols that run on LoRa/FSK modules, such as RTTY or LoRaWAN....">
<polygon fill="white" stroke="#666666" points="84,-151 0,-151 0,-132 84,-132 84,-151"/>
<text text-anchor="middle" x="42" y="-139" font-family="Helvetica,sans-Serif" font-size="10.00">PhysicalLayer</text>
</a>
</g>
</g>
<!-- Node3&#45;&gt;Node2 -->
<g id="edge2_Node000002_Node000003" class="edge">
<title>Node3&#45;&gt;Node2</title>
<g id="a_edge2_Node000002_Node000003"><a xlink:title=" ">
<path fill="none" stroke="#9a32cd" stroke-dasharray="5,2" d="M42,-121.58C42,-109.63 42,-94.72 42,-85.41"/>
<polygon fill="#9a32cd" stroke="#9a32cd" points="38.5,-121.87 42,-131.87 45.5,-121.87 38.5,-121.87"/>
</a>
</g>
<text text-anchor="middle" x="66.5" y="-106" font-family="Helvetica,sans-Serif" font-size="10.00" fill="grey"> phyLayer</text>
</g>
<!-- Node4 -->
<g id="Node000004" class="node">
<title>Node4</title>
<g id="a_Node000004"><a xlink:href="classRadioLibPrint.html" target="_top" xlink:title="Printing class, based on Arduino Print class with additional encodings.">
<polygon fill="white" stroke="#666666" points="175.5,-85 94.5,-85 94.5,-66 175.5,-66 175.5,-85"/>
<text text-anchor="middle" x="135" y="-73" font-family="Helvetica,sans-Serif" font-size="10.00">RadioLibPrint</text>
</a>
</g>
</g>
<!-- Node4&#45;&gt;Node1 -->
<g id="edge3_Node000001_Node000004" class="edge">
<title>Node4&#45;&gt;Node1</title>
<g id="a_edge3_Node000001_Node000004"><a xlink:title=" ">
<path fill="none" stroke="#63b8ff" d="M135,-55.58C135,-43.63 135,-28.72 135,-19.41"/>
<polygon fill="#63b8ff" stroke="#63b8ff" points="131.5,-55.87 135,-65.87 138.5,-55.87 131.5,-55.87"/>
</a>
</g>
</g>
<!-- Node5 -->
<g id="Node000005" class="node">
<title>Node5</title>
<g id="a_Node000005"><a xlink:href="structBellModem__t.html" target="_top" xlink:title="Definition of the Bell&#45;compatible modem.">
<polygon fill="white" stroke="#666666" points="274.5,-85 193.5,-85 193.5,-66 274.5,-66 274.5,-85"/>
<text text-anchor="middle" x="234" y="-73" font-family="Helvetica,sans-Serif" font-size="10.00">BellModem_t</text>
</a>
</g>
</g>
<!-- Node5&#45;&gt;Node1 -->
<g id="edge4_Node000001_Node000005" class="edge">
<title>Node5&#45;&gt;Node1</title>
<g id="a_edge4_Node000001_Node000005"><a xlink:title=" ">
<path fill="none" stroke="#9a32cd" stroke-dasharray="5,2" d="M212.11,-60.35C192.65,-47.77 164.82,-29.78 148.46,-19.2"/>
<polygon fill="#9a32cd" stroke="#9a32cd" points="210.35,-63.38 220.65,-65.87 214.15,-57.5 210.35,-63.38"/>
</a>
</g>
<text text-anchor="middle" x="222" y="-40" font-family="Helvetica,sans-Serif" font-size="10.00" fill="grey"> modemType</text>
</g>
</g>
</svg>
