<?xml version="1.0" encoding="UTF-8" standalone="no"?>
<!DOCTYPE svg PUBLIC "-//W3C//DTD SVG 1.1//EN"
 "http://www.w3.org/Graphics/SVG/1.1/DTD/svg11.dtd">
<!-- Generated by graphviz version 2.43.0 (0)
 -->
<!-- Title: detail::file_print_buffer&lt; F, enable_if_t&lt; has_flockfile&lt; F &gt;::value &gt; &gt;::file_print_buffer Pages: 1 -->
<svg width="325pt" height="194pt"
 viewBox="0.00 0.00 325.00 193.50" xmlns="http://www.w3.org/2000/svg" xmlns:xlink="http://www.w3.org/1999/xlink">
<g id="graph0" class="graph" transform="scale(1 1) rotate(0) translate(4 189.5)">
<title>detail::file_print_buffer&lt; F, enable_if_t&lt; has_flockfile&lt; F &gt;::value &gt; &gt;::file_print_buffer</title>
<!-- Node1 -->
<g id="Node000001" class="node">
<title>Node1</title>
<g id="a_Node000001"><a xlink:title=" ">
<polygon fill="#999999" stroke="#666666" points="155,-107.5 0,-107.5 0,-55.5 155,-55.5 155,-107.5"/>
<text text-anchor="start" x="8" y="-95.5" font-family="Helvetica,sans-Serif" font-size="10.00">detail::file_print</text>
<text text-anchor="start" x="8" y="-84.5" font-family="Helvetica,sans-Serif" font-size="10.00">_buffer&lt; F, enable_if</text>
<text text-anchor="start" x="8" y="-73.5" font-family="Helvetica,sans-Serif" font-size="10.00">_t&lt; has_flockfile&lt; F &gt;</text>
<text text-anchor="middle" x="77.5" y="-62.5" font-family="Helvetica,sans-Serif" font-size="10.00">::value &gt; &gt;::file_print_buffer</text>
</a>
</g>
</g>
<!-- Node2 -->
<g id="Node000002" class="node">
<title>Node2</title>
<g id="a_Node000002"><a xlink:href="classdetail_1_1glibc__file.html#a7ae0705516b69ef00a3b5f2471cae89f" target="_top" xlink:title=" ">
<polygon fill="white" stroke="#666666" points="305,-185.5 203,-185.5 203,-155.5 305,-155.5 305,-185.5"/>
<text text-anchor="start" x="211" y="-173.5" font-family="Helvetica,sans-Serif" font-size="10.00">detail::glibc_file</text>
<text text-anchor="middle" x="254" y="-162.5" font-family="Helvetica,sans-Serif" font-size="10.00">::get_write_buffer</text>
</a>
</g>
</g>
<!-- Node1&#45;&gt;Node2 -->
<g id="edge1_Node000001_Node000002" class="edge">
<title>Node1&#45;&gt;Node2</title>
<g id="a_edge1_Node000001_Node000002"><a xlink:title=" ">
<path fill="none" stroke="#63b8ff" d="M120.14,-107.62C141,-120.17 166.89,-134.95 191,-146.5 194.53,-148.19 198.21,-149.85 201.94,-151.47"/>
<polygon fill="#63b8ff" stroke="#63b8ff" points="200.69,-154.74 211.27,-155.37 203.39,-148.28 200.69,-154.74"/>
</a>
</g>
</g>
<!-- Node3 -->
<g id="Node000003" class="node">
<title>Node3</title>
<g id="a_Node000003"><a xlink:href="classdetail_1_1file__print__buffer_3_01F_00_01enable__if__t_3_01has__flockfile_3_01F_01_4_1_1value_01_4_01_4.html#ace1b23a918aeccf0fe526c220fd662ba" target="_top" xlink:title=" ">
<polygon fill="white" stroke="#666666" points="317,-137.5 191,-137.5 191,-85.5 317,-85.5 317,-137.5"/>
<text text-anchor="start" x="199" y="-125.5" font-family="Helvetica,sans-Serif" font-size="10.00">detail::file_print</text>
<text text-anchor="start" x="199" y="-114.5" font-family="Helvetica,sans-Serif" font-size="10.00">_buffer&lt; F, enable_if</text>
<text text-anchor="start" x="199" y="-103.5" font-family="Helvetica,sans-Serif" font-size="10.00">_t&lt; has_flockfile&lt; F &gt;</text>
<text text-anchor="middle" x="254" y="-92.5" font-family="Helvetica,sans-Serif" font-size="10.00">::value &gt; &gt;::grow</text>
</a>
</g>
</g>
<!-- Node1&#45;&gt;Node3 -->
<g id="edge2_Node000001_Node000003" class="edge">
<title>Node1&#45;&gt;Node3</title>
<g id="a_edge2_Node000001_Node000003"><a xlink:title=" ">
<path fill="none" stroke="#63b8ff" d="M155.04,-94.66C163.66,-96.14 172.42,-97.65 180.99,-99.12"/>
<polygon fill="#63b8ff" stroke="#63b8ff" points="180.48,-102.58 190.92,-100.83 181.66,-95.68 180.48,-102.58"/>
</a>
</g>
</g>
<!-- Node4 -->
<g id="Node000004" class="node">
<title>Node4</title>
<g id="a_Node000004"><a xlink:href="classdetail_1_1glibc__file.html#a9e7ae4b36567fa56243ab680d6ee53b0" target="_top" xlink:title=" ">
<polygon fill="white" stroke="#666666" points="301,-67.5 207,-67.5 207,-37.5 301,-37.5 301,-67.5"/>
<text text-anchor="start" x="215" y="-55.5" font-family="Helvetica,sans-Serif" font-size="10.00">detail::glibc_file</text>
<text text-anchor="middle" x="254" y="-44.5" font-family="Helvetica,sans-Serif" font-size="10.00">::init_buffer</text>
</a>
</g>
</g>
<!-- Node1&#45;&gt;Node4 -->
<g id="edge3_Node000001_Node000004" class="edge">
<title>Node1&#45;&gt;Node4</title>
<g id="a_edge3_Node000001_Node000004"><a xlink:title=" ">
<path fill="none" stroke="#63b8ff" d="M155.04,-68.78C169.05,-66.45 183.43,-64.06 196.72,-61.85"/>
<polygon fill="#63b8ff" stroke="#63b8ff" points="197.35,-65.3 206.64,-60.2 196.2,-58.39 197.35,-65.3"/>
</a>
</g>
</g>
<!-- Node5 -->
<g id="Node000005" class="node">
<title>Node5</title>
<g id="a_Node000005"><a xlink:href="classdetail_1_1buffer.html#a5c82aec716b07079ac88194eb9aa7feb" target="_top" xlink:title="Sets the buffer data and capacity.">
<polygon fill="white" stroke="#666666" points="304,-19 204,-19 204,0 304,0 304,-19"/>
<text text-anchor="middle" x="254" y="-7" font-family="Helvetica,sans-Serif" font-size="10.00">detail::buffer::set</text>
</a>
</g>
</g>
<!-- Node1&#45;&gt;Node5 -->
<g id="edge4_Node000001_Node000005" class="edge">
<title>Node1&#45;&gt;Node5</title>
<g id="a_edge4_Node000001_Node000005"><a xlink:title=" ">
<path fill="none" stroke="#63b8ff" d="M129.91,-55.39C148.86,-46.27 170.66,-36.36 191,-28.5 196.65,-26.32 202.67,-24.21 208.64,-22.25"/>
<polygon fill="#63b8ff" stroke="#63b8ff" points="210.12,-25.45 218.59,-19.09 208,-18.78 210.12,-25.45"/>
</a>
</g>
</g>
</g>
</svg>
