<?xml version="1.0" encoding="UTF-8" standalone="no"?>
<!DOCTYPE svg PUBLIC "-//W3C//DTD SVG 1.1//EN"
 "http://www.w3.org/Graphics/SVG/1.1/DTD/svg11.dtd">
<!-- Generated by graphviz version 2.43.0 (0)
 -->
<!-- Title: SX1233 Pages: 1 -->
<svg width="267pt" height="271pt"
 viewBox="0.00 0.00 266.50 271.00" xmlns="http://www.w3.org/2000/svg" xmlns:xlink="http://www.w3.org/1999/xlink">
<g id="graph0" class="graph" transform="scale(1 1) rotate(0) translate(4 267)">
<title>SX1233</title>
<!-- Node1 -->
<g id="Node000001" class="node">
<title>Node1</title>
<g id="a_Node000001"><a xlink:title="Control class for SX1233 module. Overrides some methods from SX1231/RF69 due to different register va...">
<polygon fill="#999999" stroke="#666666" points="84.5,-19 31.5,-19 31.5,0 84.5,0 84.5,-19"/>
<text text-anchor="middle" x="58" y="-7" font-family="Helvetica,sans-Serif" font-size="10.00">SX1233</text>
</a>
</g>
</g>
<!-- Node2 -->
<g id="Node000002" class="node">
<title>Node2</title>
<g id="a_Node000002"><a xlink:href="classSX1231.html" target="_top" xlink:title="Control class for SX1231 module. Overrides some methods from RF69 due to different register values.">
<polygon fill="white" stroke="#666666" points="84.5,-75 31.5,-75 31.5,-56 84.5,-56 84.5,-75"/>
<text text-anchor="middle" x="58" y="-63" font-family="Helvetica,sans-Serif" font-size="10.00">SX1231</text>
</a>
</g>
</g>
<!-- Node2&#45;&gt;Node1 -->
<g id="edge1_Node000001_Node000002" class="edge">
<title>Node2&#45;&gt;Node1</title>
<g id="a_edge1_Node000001_Node000002"><a xlink:title=" ">
<path fill="none" stroke="#63b8ff" d="M58,-45.3C58,-36.41 58,-26.28 58,-19.25"/>
<polygon fill="#63b8ff" stroke="#63b8ff" points="54.5,-45.58 58,-55.58 61.5,-45.58 54.5,-45.58"/>
</a>
</g>
</g>
<!-- Node3 -->
<g id="Node000003" class="node">
<title>Node3</title>
<g id="a_Node000003"><a xlink:href="classRF69.html" target="_top" xlink:title="Control class for RF69 module. Also serves as base class for SX1231.">
<polygon fill="white" stroke="#666666" points="78.5,-131 37.5,-131 37.5,-112 78.5,-112 78.5,-131"/>
<text text-anchor="middle" x="58" y="-119" font-family="Helvetica,sans-Serif" font-size="10.00">RF69</text>
</a>
</g>
</g>
<!-- Node3&#45;&gt;Node2 -->
<g id="edge2_Node000002_Node000003" class="edge">
<title>Node3&#45;&gt;Node2</title>
<g id="a_edge2_Node000002_Node000003"><a xlink:title=" ">
<path fill="none" stroke="#63b8ff" d="M58,-101.3C58,-92.41 58,-82.28 58,-75.25"/>
<polygon fill="#63b8ff" stroke="#63b8ff" points="54.5,-101.58 58,-111.58 61.5,-101.58 54.5,-101.58"/>
</a>
</g>
</g>
<!-- Node4 -->
<g id="Node000004" class="node">
<title>Node4</title>
<g id="a_Node000004"><a xlink:href="classPhysicalLayer.html" target="_top" xlink:title="Provides common interface for protocols that run on LoRa/FSK modules, such as RTTY or LoRaWAN....">
<polygon fill="white" stroke="#666666" points="84,-197 0,-197 0,-178 84,-178 84,-197"/>
<text text-anchor="middle" x="42" y="-185" font-family="Helvetica,sans-Serif" font-size="10.00">PhysicalLayer</text>
</a>
</g>
</g>
<!-- Node4&#45;&gt;Node3 -->
<g id="edge3_Node000003_Node000004" class="edge">
<title>Node4&#45;&gt;Node3</title>
<g id="a_edge3_Node000003_Node000004"><a xlink:title=" ">
<path fill="none" stroke="#63b8ff" d="M46.64,-167.95C49.64,-155.93 53.42,-140.82 55.77,-131.41"/>
<polygon fill="#63b8ff" stroke="#63b8ff" points="43.19,-167.32 44.16,-177.87 49.98,-169.02 43.19,-167.32"/>
</a>
</g>
</g>
<!-- Node5 -->
<g id="Node000005" class="node">
<title>Node5</title>
<g id="a_Node000005"><a xlink:href="classModule.html" target="_top" xlink:title="Implements all common low&#45;level methods to control the wireless module. Every module class contains o...">
<polygon fill="white" stroke="#666666" points="154.5,-197 101.5,-197 101.5,-178 154.5,-178 154.5,-197"/>
<text text-anchor="middle" x="128" y="-185" font-family="Helvetica,sans-Serif" font-size="10.00">Module</text>
</a>
</g>
</g>
<!-- Node5&#45;&gt;Node3 -->
<g id="edge4_Node000003_Node000005" class="edge">
<title>Node5&#45;&gt;Node3</title>
<g id="a_edge4_Node000003_Node000005"><a xlink:title=" ">
<path fill="none" stroke="#9a32cd" stroke-dasharray="5,2" d="M105.46,-172.2C100.19,-168.47 94.73,-164.29 90,-160 80.11,-151.03 70.39,-139.07 64.31,-131.09"/>
<polygon fill="#9a32cd" stroke="#9a32cd" points="103.76,-175.27 114,-177.97 107.68,-169.47 103.76,-175.27"/>
</a>
</g>
<text text-anchor="middle" x="102.5" y="-152" font-family="Helvetica,sans-Serif" font-size="10.00" fill="grey"> mod</text>
</g>
<!-- Node7 -->
<g id="Node000007" class="node">
<title>Node7</title>
<g id="a_Node000007"><a xlink:href="structModule_1_1SPIConfig__t.html" target="_top" xlink:title="SPI configuration structure.">
<polygon fill="white" stroke="#666666" points="251.5,-131 138.5,-131 138.5,-112 251.5,-112 251.5,-131"/>
<text text-anchor="middle" x="195" y="-119" font-family="Helvetica,sans-Serif" font-size="10.00">Module::SPIConfig_t</text>
</a>
</g>
</g>
<!-- Node5&#45;&gt;Node7 -->
<g id="edge7_Node000007_Node000005" class="edge">
<title>Node5&#45;&gt;Node7</title>
<g id="a_edge7_Node000007_Node000005"><a xlink:title=" ">
<path fill="none" stroke="#9a32cd" stroke-dasharray="5,2" d="M120.66,-168.4C119.18,-161.8 119.1,-154.59 123,-149 128.79,-140.7 137.49,-134.99 146.86,-131.07"/>
<polygon fill="#9a32cd" stroke="#9a32cd" points="117.34,-169.53 123.75,-177.96 124,-167.37 117.34,-169.53"/>
</a>
</g>
<text text-anchor="middle" x="161" y="-152" font-family="Helvetica,sans-Serif" font-size="10.00" fill="grey"> checkStatusCb</text>
</g>
<!-- Node6 -->
<g id="Node000006" class="node">
<title>Node6</title>
<g id="a_Node000006"><a xlink:href="classRadioLibHal.html" target="_top" xlink:title="Hardware abstraction library base interface.">
<polygon fill="white" stroke="#666666" points="103.5,-263 28.5,-263 28.5,-244 103.5,-244 103.5,-263"/>
<text text-anchor="middle" x="66" y="-251" font-family="Helvetica,sans-Serif" font-size="10.00">RadioLibHal</text>
</a>
</g>
</g>
<!-- Node6&#45;&gt;Node5 -->
<g id="edge5_Node000005_Node000006" class="edge">
<title>Node6&#45;&gt;Node5</title>
<g id="a_edge5_Node000005_Node000006"><a xlink:title=" ">
<path fill="none" stroke="#9a32cd" stroke-dasharray="5,2" d="M81.52,-236.48C93.49,-224.12 109.6,-207.49 119.37,-197.41"/>
<polygon fill="#9a32cd" stroke="#9a32cd" points="78.81,-234.25 74.36,-243.87 83.83,-239.12 78.81,-234.25"/>
</a>
</g>
<text text-anchor="middle" x="110.5" y="-218" font-family="Helvetica,sans-Serif" font-size="10.00" fill="grey"> hal</text>
</g>
<!-- Node7&#45;&gt;Node5 -->
<g id="edge6_Node000005_Node000007" class="edge">
<title>Node7&#45;&gt;Node5</title>
<g id="a_edge6_Node000005_Node000007"><a xlink:title=" ">
<path fill="none" stroke="#9a32cd" stroke-dasharray="5,2" d="M204.36,-140.54C206.43,-147.14 206.99,-154.36 203,-160 192.16,-175.33 171.67,-181.85 154.84,-184.6"/>
<polygon fill="#9a32cd" stroke="#9a32cd" points="207.43,-138.83 200.29,-131 200.99,-141.58 207.43,-138.83"/>
</a>
</g>
<text text-anchor="middle" x="229.5" y="-152" font-family="Helvetica,sans-Serif" font-size="10.00" fill="grey"> spiConfig</text>
</g>
<!-- Node8 -->
<g id="Node000008" class="node">
<title>Node8</title>
<g id="a_Node000008"><a xlink:href="structModule_1_1RfSwitchMode__t.html" target="_top" xlink:title="Description of RF switch pin states for a single mode. See setRfSwitchTable for details.">
<polygon fill="white" stroke="#666666" points="258.5,-263 121.5,-263 121.5,-244 258.5,-244 258.5,-263"/>
<text text-anchor="middle" x="190" y="-251" font-family="Helvetica,sans-Serif" font-size="10.00">Module::RfSwitchMode_t</text>
</a>
</g>
</g>
<!-- Node8&#45;&gt;Node5 -->
<g id="edge8_Node000005_Node000008" class="edge">
<title>Node8&#45;&gt;Node5</title>
<g id="a_edge8_Node000005_Node000008"><a xlink:title=" ">
<path fill="none" stroke="#9a32cd" stroke-dasharray="5,2" d="M174.48,-236.48C162.51,-224.12 146.4,-207.49 136.63,-197.41"/>
<polygon fill="#9a32cd" stroke="#9a32cd" points="172.17,-239.12 181.64,-243.87 177.19,-234.25 172.17,-239.12"/>
</a>
</g>
<text text-anchor="middle" x="196.5" y="-218" font-family="Helvetica,sans-Serif" font-size="10.00" fill="grey"> rfSwitchTable</text>
</g>
</g>
</svg>
