<?xml version="1.0" encoding="UTF-8" standalone="no"?>
<!DOCTYPE svg PUBLIC "-//W3C//DTD SVG 1.1//EN"
 "http://www.w3.org/Graphics/SVG/1.1/DTD/svg11.dtd">
<!-- Generated by graphviz version 2.43.0 (0)
 -->
<!-- Title: detail::tm_writer::tm_wday Pages: 1 -->
<svg width="486pt" height="422pt"
 viewBox="0.00 0.00 486.00 422.00" xmlns="http://www.w3.org/2000/svg" xmlns:xlink="http://www.w3.org/1999/xlink">
<g id="graph0" class="graph" transform="scale(1 1) rotate(0) translate(4 418)">
<title>detail::tm_writer::tm_wday</title>
<!-- Node1 -->
<g id="Node000001" class="node">
<title>Node1</title>
<g id="a_Node000001"><a xlink:title=" ">
<polygon fill="#999999" stroke="#666666" points="478,-246 374,-246 374,-216 478,-216 478,-246"/>
<text text-anchor="start" x="382" y="-234" font-family="Helvetica,sans-Serif" font-size="10.00">detail::tm_writer::</text>
<text text-anchor="middle" x="426" y="-223" font-family="Helvetica,sans-Serif" font-size="10.00">tm_wday</text>
</a>
</g>
</g>
<!-- Node2 -->
<g id="Node000002" class="node">
<title>Node2</title>
<g id="a_Node000002"><a xlink:href="classdetail_1_1tm__writer.html#a3220714c4f548444f3ea7dbcdcd906c5" target="_top" xlink:title=" ">
<polygon fill="white" stroke="#666666" points="325,-414 220,-414 220,-384 325,-384 325,-414"/>
<text text-anchor="start" x="228" y="-402" font-family="Helvetica,sans-Serif" font-size="10.00">detail::tm_writer::</text>
<text text-anchor="middle" x="272.5" y="-391" font-family="Helvetica,sans-Serif" font-size="10.00">on_abbr_weekday</text>
</a>
</g>
</g>
<!-- Node1&#45;&gt;Node2 -->
<g id="edge1_Node000001_Node000002" class="edge">
<title>Node1&#45;&gt;Node2</title>
<g id="a_edge1_Node000001_Node000002"><a xlink:title=" ">
<path fill="none" stroke="#63b8ff" d="M416.02,-255.8C403.31,-287.61 377.17,-342.55 338,-375 333.86,-378.43 329.18,-381.4 324.28,-383.95"/>
<polygon fill="#63b8ff" stroke="#63b8ff" points="419.34,-256.93 419.67,-246.34 412.81,-254.4 419.34,-256.93"/>
</a>
</g>
</g>
<!-- Node4 -->
<g id="Node000004" class="node">
<title>Node4</title>
<g id="a_Node000004"><a xlink:href="classdetail_1_1tm__writer.html#a13b7b4b07ac04aefb6e96bdb1af8f513" target="_top" xlink:title=" ">
<polygon fill="white" stroke="#666666" points="338,-366 207,-366 207,-336 338,-336 338,-366"/>
<text text-anchor="start" x="215" y="-354" font-family="Helvetica,sans-Serif" font-size="10.00">detail::tm_writer::</text>
<text text-anchor="middle" x="272.5" y="-343" font-family="Helvetica,sans-Serif" font-size="10.00">on_dec0_week_of_year</text>
</a>
</g>
</g>
<!-- Node1&#45;&gt;Node4 -->
<g id="edge3_Node000001_Node000004" class="edge">
<title>Node1&#45;&gt;Node4</title>
<g id="a_edge3_Node000001_Node000004"><a xlink:title=" ">
<path fill="none" stroke="#63b8ff" d="M408.98,-254.31C393.15,-275.8 367.13,-307.27 338,-327 333.05,-330.35 327.58,-333.31 321.97,-335.9"/>
<polygon fill="#63b8ff" stroke="#63b8ff" points="411.92,-256.21 414.92,-246.05 406.24,-252.12 411.92,-256.21"/>
</a>
</g>
</g>
<!-- Node5 -->
<g id="Node000005" class="node">
<title>Node5</title>
<g id="a_Node000005"><a xlink:href="classdetail_1_1tm__writer.html#a422f16ffbd495ff610191c427bd18ebc" target="_top" xlink:title=" ">
<polygon fill="white" stroke="#666666" points="326,-318 219,-318 219,-288 326,-288 326,-318"/>
<text text-anchor="start" x="227" y="-306" font-family="Helvetica,sans-Serif" font-size="10.00">detail::tm_writer::</text>
<text text-anchor="middle" x="272.5" y="-295" font-family="Helvetica,sans-Serif" font-size="10.00">on_dec0_weekday</text>
</a>
</g>
</g>
<!-- Node1&#45;&gt;Node5 -->
<g id="edge4_Node000001_Node000005" class="edge">
<title>Node1&#45;&gt;Node5</title>
<g id="a_edge4_Node000001_Node000005"><a xlink:title=" ">
<path fill="none" stroke="#63b8ff" d="M391.11,-251.23C375.26,-260.29 355.96,-270.76 338,-279 331.16,-282.14 323.78,-285.19 316.54,-288"/>
<polygon fill="#63b8ff" stroke="#63b8ff" points="393.1,-254.12 400,-246.08 389.6,-248.06 393.1,-254.12"/>
</a>
</g>
</g>
<!-- Node6 -->
<g id="Node000006" class="node">
<title>Node6</title>
<g id="a_Node000006"><a xlink:href="classdetail_1_1tm__writer.html#ab1e88baccb22446f04ffdcdf74267615" target="_top" xlink:title=" ">
<polygon fill="white" stroke="#666666" points="338,-270 207,-270 207,-240 338,-240 338,-270"/>
<text text-anchor="start" x="215" y="-258" font-family="Helvetica,sans-Serif" font-size="10.00">detail::tm_writer::</text>
<text text-anchor="middle" x="272.5" y="-247" font-family="Helvetica,sans-Serif" font-size="10.00">on_dec1_week_of_year</text>
</a>
</g>
</g>
<!-- Node1&#45;&gt;Node6 -->
<g id="edge5_Node000001_Node000006" class="edge">
<title>Node1&#45;&gt;Node6</title>
<g id="a_edge5_Node000001_Node000006"><a xlink:title=" ">
<path fill="none" stroke="#63b8ff" d="M363.63,-240.72C355.24,-242.05 346.61,-243.42 338.17,-244.76"/>
<polygon fill="#63b8ff" stroke="#63b8ff" points="364.38,-244.15 373.71,-239.13 363.28,-237.23 364.38,-244.15"/>
</a>
</g>
</g>
<!-- Node7 -->
<g id="Node000007" class="node">
<title>Node7</title>
<g id="a_Node000007"><a xlink:href="classdetail_1_1tm__writer.html#ab7e21c09adf00d337e311afcaa51bde3" target="_top" xlink:title=" ">
<polygon fill="white" stroke="#666666" points="326,-222 219,-222 219,-192 326,-192 326,-222"/>
<text text-anchor="start" x="227" y="-210" font-family="Helvetica,sans-Serif" font-size="10.00">detail::tm_writer::</text>
<text text-anchor="middle" x="272.5" y="-199" font-family="Helvetica,sans-Serif" font-size="10.00">on_dec1_weekday</text>
</a>
</g>
</g>
<!-- Node1&#45;&gt;Node7 -->
<g id="edge6_Node000001_Node000007" class="edge">
<title>Node1&#45;&gt;Node7</title>
<g id="a_edge6_Node000001_Node000007"><a xlink:title=" ">
<path fill="none" stroke="#63b8ff" d="M363.81,-221.31C351.29,-219.32 338.22,-217.25 326.03,-215.32"/>
<polygon fill="#63b8ff" stroke="#63b8ff" points="363.28,-224.77 373.71,-222.87 364.38,-217.85 363.28,-224.77"/>
</a>
</g>
</g>
<!-- Node8 -->
<g id="Node000008" class="node">
<title>Node8</title>
<g id="a_Node000008"><a xlink:href="classdetail_1_1tm__writer.html#a59eb3c2211d7aa292a371c6fdf835f1c" target="_top" xlink:title=" ">
<polygon fill="white" stroke="#666666" points="324.5,-174 220.5,-174 220.5,-144 324.5,-144 324.5,-174"/>
<text text-anchor="start" x="228.5" y="-162" font-family="Helvetica,sans-Serif" font-size="10.00">detail::tm_writer::</text>
<text text-anchor="middle" x="272.5" y="-151" font-family="Helvetica,sans-Serif" font-size="10.00">on_full_weekday</text>
</a>
</g>
</g>
<!-- Node1&#45;&gt;Node8 -->
<g id="edge7_Node000001_Node000008" class="edge">
<title>Node1&#45;&gt;Node8</title>
<g id="a_edge7_Node000001_Node000008"><a xlink:title=" ">
<path fill="none" stroke="#63b8ff" d="M391.11,-210.77C375.26,-201.71 355.96,-191.24 338,-183 331.16,-179.86 323.78,-176.81 316.54,-174"/>
<polygon fill="#63b8ff" stroke="#63b8ff" points="389.6,-213.94 400,-215.92 393.1,-207.88 389.6,-213.94"/>
</a>
</g>
</g>
<!-- Node9 -->
<g id="Node000009" class="node">
<title>Node9</title>
<g id="a_Node000009"><a xlink:href="classdetail_1_1tm__writer.html#a4285acc2899bf1a942bfbc8c777adfef" target="_top" xlink:title=" ">
<polygon fill="white" stroke="#666666" points="334,-126 211,-126 211,-96 334,-96 334,-126"/>
<text text-anchor="start" x="219" y="-114" font-family="Helvetica,sans-Serif" font-size="10.00">detail::tm_writer::</text>
<text text-anchor="middle" x="272.5" y="-103" font-family="Helvetica,sans-Serif" font-size="10.00">tm_iso_week_of_year</text>
</a>
</g>
</g>
<!-- Node1&#45;&gt;Node9 -->
<g id="edge8_Node000001_Node000009" class="edge">
<title>Node1&#45;&gt;Node9</title>
<g id="a_edge8_Node000001_Node000009"><a xlink:title=" ">
<path fill="none" stroke="#63b8ff" d="M408.98,-207.69C393.15,-186.2 367.13,-154.73 338,-135 333.05,-131.65 327.58,-128.69 321.97,-126.1"/>
<polygon fill="#63b8ff" stroke="#63b8ff" points="406.24,-209.88 414.92,-215.95 411.92,-205.79 406.24,-209.88"/>
</a>
</g>
</g>
<!-- Node11 -->
<g id="Node000011" class="node">
<title>Node11</title>
<g id="a_Node000011"><a xlink:href="classdetail_1_1tm__writer.html#a73adb4c23c197bf3403a9ea4aa82d842" target="_top" xlink:title=" ">
<polygon fill="white" stroke="#666666" points="326.5,-78 218.5,-78 218.5,-48 326.5,-48 326.5,-78"/>
<text text-anchor="start" x="226.5" y="-66" font-family="Helvetica,sans-Serif" font-size="10.00">detail::tm_writer::</text>
<text text-anchor="middle" x="272.5" y="-55" font-family="Helvetica,sans-Serif" font-size="10.00">tm_iso_week_year</text>
</a>
</g>
</g>
<!-- Node1&#45;&gt;Node11 -->
<g id="edge10_Node000001_Node000011" class="edge">
<title>Node1&#45;&gt;Node11</title>
<g id="a_edge10_Node000001_Node000011"><a xlink:title=" ">
<path fill="none" stroke="#63b8ff" d="M416.02,-206.2C403.31,-174.39 377.17,-119.45 338,-87 333.86,-83.57 329.18,-80.6 324.28,-78.05"/>
<polygon fill="#63b8ff" stroke="#63b8ff" points="412.81,-207.6 419.67,-215.66 419.34,-205.07 412.81,-207.6"/>
</a>
</g>
</g>
<!-- Node3 -->
<g id="Node000003" class="node">
<title>Node3</title>
<g id="a_Node000003"><a xlink:href="classdetail_1_1tm__writer.html#af53d115957cdef5079ea641b12d8dce9" target="_top" xlink:title=" ">
<polygon fill="white" stroke="#666666" points="137.5,-414 33.5,-414 33.5,-384 137.5,-384 137.5,-414"/>
<text text-anchor="start" x="41.5" y="-402" font-family="Helvetica,sans-Serif" font-size="10.00">detail::tm_writer::</text>
<text text-anchor="middle" x="85.5" y="-391" font-family="Helvetica,sans-Serif" font-size="10.00">on_datetime</text>
</a>
</g>
</g>
<!-- Node2&#45;&gt;Node3 -->
<g id="edge2_Node000002_Node000003" class="edge">
<title>Node2&#45;&gt;Node3</title>
<g id="a_edge2_Node000002_Node000003"><a xlink:title=" ">
<path fill="none" stroke="#63b8ff" d="M209.8,-399C186.42,-399 160.08,-399 137.76,-399"/>
<polygon fill="#63b8ff" stroke="#63b8ff" points="209.97,-402.5 219.97,-399 209.97,-395.5 209.97,-402.5"/>
</a>
</g>
</g>
<!-- Node10 -->
<g id="Node000010" class="node">
<title>Node10</title>
<g id="a_Node000010"><a xlink:href="classdetail_1_1tm__writer.html#afbb39bf7dba827d53464b089fbb4f6b5" target="_top" xlink:title=" ">
<polygon fill="white" stroke="#666666" points="146.5,-126 24.5,-126 24.5,-96 146.5,-96 146.5,-126"/>
<text text-anchor="start" x="32.5" y="-114" font-family="Helvetica,sans-Serif" font-size="10.00">detail::tm_writer::</text>
<text text-anchor="middle" x="85.5" y="-103" font-family="Helvetica,sans-Serif" font-size="10.00">on_iso_week_of_year</text>
</a>
</g>
</g>
<!-- Node9&#45;&gt;Node10 -->
<g id="edge9_Node000009_Node000010" class="edge">
<title>Node9&#45;&gt;Node10</title>
<g id="a_edge9_Node000009_Node000010"><a xlink:title=" ">
<path fill="none" stroke="#63b8ff" d="M200.58,-111C182.76,-111 163.81,-111 146.58,-111"/>
<polygon fill="#63b8ff" stroke="#63b8ff" points="200.92,-114.5 210.92,-111 200.92,-107.5 200.92,-114.5"/>
</a>
</g>
</g>
<!-- Node12 -->
<g id="Node000012" class="node">
<title>Node12</title>
<g id="a_Node000012"><a xlink:href="classdetail_1_1tm__writer.html#a9343bd2d81bbbf6e86c1a33af1b067c1" target="_top" xlink:title=" ">
<polygon fill="white" stroke="#666666" points="171,-78 0,-78 0,-48 171,-48 171,-78"/>
<text text-anchor="start" x="8" y="-66" font-family="Helvetica,sans-Serif" font-size="10.00">detail::tm_writer::</text>
<text text-anchor="middle" x="85.5" y="-55" font-family="Helvetica,sans-Serif" font-size="10.00">on_iso_week_based_short_year</text>
</a>
</g>
</g>
<!-- Node11&#45;&gt;Node12 -->
<g id="edge11_Node000011_Node000012" class="edge">
<title>Node11&#45;&gt;Node12</title>
<g id="a_edge11_Node000011_Node000012"><a xlink:title=" ">
<path fill="none" stroke="#63b8ff" d="M208.24,-63C196.35,-63 183.73,-63 171.3,-63"/>
<polygon fill="#63b8ff" stroke="#63b8ff" points="208.49,-66.5 218.49,-63 208.49,-59.5 208.49,-66.5"/>
</a>
</g>
</g>
<!-- Node13 -->
<g id="Node000013" class="node">
<title>Node13</title>
<g id="a_Node000013"><a xlink:href="classdetail_1_1tm__writer.html#a286b8e12c2a447aa2a43fbc0253b834c" target="_top" xlink:title=" ">
<polygon fill="white" stroke="#666666" points="156,-30 15,-30 15,0 156,0 156,-30"/>
<text text-anchor="start" x="23" y="-18" font-family="Helvetica,sans-Serif" font-size="10.00">detail::tm_writer::</text>
<text text-anchor="middle" x="85.5" y="-7" font-family="Helvetica,sans-Serif" font-size="10.00">on_iso_week_based_year</text>
</a>
</g>
</g>
<!-- Node11&#45;&gt;Node13 -->
<g id="edge12_Node000011_Node000013" class="edge">
<title>Node11&#45;&gt;Node13</title>
<g id="a_edge12_Node000011_Node000013"><a xlink:title=" ">
<path fill="none" stroke="#63b8ff" d="M208.77,-46.73C187.94,-41.32 164.84,-35.33 144.38,-30.02"/>
<polygon fill="#63b8ff" stroke="#63b8ff" points="207.93,-50.12 218.49,-49.25 209.69,-43.35 207.93,-50.12"/>
</a>
</g>
</g>
</g>
</svg>
