<?xml version="1.0" encoding="UTF-8" standalone="no"?>
<!DOCTYPE svg PUBLIC "-//W3C//DTD SVG 1.1//EN"
 "http://www.w3.org/Graphics/SVG/1.1/DTD/svg11.dtd">
<!-- Generated by graphviz version 2.43.0 (0)
 -->
<!-- Title: detail::digit_grouping::apply Pages: 1 -->
<svg width="781pt" height="301pt"
 viewBox="0.00 0.00 781.00 301.00" xmlns="http://www.w3.org/2000/svg" xmlns:xlink="http://www.w3.org/1999/xlink">
<g id="graph0" class="graph" transform="scale(1 1) rotate(0) translate(4 297)">
<title>detail::digit_grouping::apply</title>
<!-- Node1 -->
<g id="Node000001" class="node">
<title>Node1</title>
<g id="a_Node000001"><a xlink:title=" ">
<polygon fill="#999999" stroke="#666666" points="120,-119.5 0,-119.5 0,-89.5 120,-89.5 120,-119.5"/>
<text text-anchor="start" x="8" y="-107.5" font-family="Helvetica,sans-Serif" font-size="10.00">detail::digit_grouping</text>
<text text-anchor="middle" x="60" y="-96.5" font-family="Helvetica,sans-Serif" font-size="10.00">::apply</text>
</a>
</g>
</g>
<!-- Node2 -->
<g id="Node000002" class="node">
<title>Node2</title>
<g id="a_Node000002"><a xlink:href="classbasic__memory__buffer.html#a7a9300acfadb00a835b36a86a198f433" target="_top" xlink:title=" ">
<polygon fill="white" stroke="#666666" points="288.5,-237.5 160.5,-237.5 160.5,-207.5 288.5,-207.5 288.5,-237.5"/>
<text text-anchor="start" x="168.5" y="-225.5" font-family="Helvetica,sans-Serif" font-size="10.00">basic_memory_buffer</text>
<text text-anchor="middle" x="224.5" y="-214.5" font-family="Helvetica,sans-Serif" font-size="10.00">::basic_memory_buffer</text>
</a>
</g>
</g>
<!-- Node1&#45;&gt;Node2 -->
<g id="edge1_Node000001_Node000002" class="edge">
<title>Node1&#45;&gt;Node2</title>
<g id="a_edge1_Node000001_Node000002"><a xlink:title=" ">
<path fill="none" stroke="#63b8ff" d="M72.62,-119.59C89.12,-140.08 121.22,-176.66 156,-198.5 158.6,-200.13 161.33,-201.68 164.14,-203.13"/>
<polygon fill="#63b8ff" stroke="#63b8ff" points="162.77,-206.35 173.3,-207.47 165.76,-200.03 162.77,-206.35"/>
</a>
</g>
</g>
<!-- Node9 -->
<g id="Node000009" class="node">
<title>Node9</title>
<g id="a_Node000009"><a xlink:href="classdetail_1_1digit__grouping.html#a35896d09fe42092f3fcc1d510458660f" target="_top" xlink:title=" ">
<polygon fill="white" stroke="#666666" points="284.5,-189.5 164.5,-189.5 164.5,-159.5 284.5,-159.5 284.5,-189.5"/>
<text text-anchor="start" x="172.5" y="-177.5" font-family="Helvetica,sans-Serif" font-size="10.00">detail::digit_grouping</text>
<text text-anchor="middle" x="224.5" y="-166.5" font-family="Helvetica,sans-Serif" font-size="10.00">::initial_state</text>
</a>
</g>
</g>
<!-- Node1&#45;&gt;Node9 -->
<g id="edge8_Node000001_Node000009" class="edge">
<title>Node1&#45;&gt;Node9</title>
<g id="a_edge8_Node000001_Node000009"><a xlink:title=" ">
<path fill="none" stroke="#63b8ff" d="M90.15,-119.64C108.75,-129.04 133.52,-141.09 156,-150.5 160.36,-152.32 164.91,-154.14 169.51,-155.9"/>
<polygon fill="#63b8ff" stroke="#63b8ff" points="168.35,-159.2 178.94,-159.43 170.8,-152.65 168.35,-159.2"/>
</a>
</g>
</g>
<!-- Node10 -->
<g id="Node000010" class="node">
<title>Node10</title>
<g id="a_Node000010"><a xlink:href="classdetail_1_1digit__grouping.html#abd1d32b1db7e21849b55dea24882a82a" target="_top" xlink:title=" ">
<polygon fill="white" stroke="#666666" points="284.5,-141.5 164.5,-141.5 164.5,-111.5 284.5,-111.5 284.5,-141.5"/>
<text text-anchor="start" x="172.5" y="-129.5" font-family="Helvetica,sans-Serif" font-size="10.00">detail::digit_grouping</text>
<text text-anchor="middle" x="224.5" y="-118.5" font-family="Helvetica,sans-Serif" font-size="10.00">::next</text>
</a>
</g>
</g>
<!-- Node1&#45;&gt;Node10 -->
<g id="edge9_Node000001_Node000010" class="edge">
<title>Node1&#45;&gt;Node10</title>
<g id="a_edge9_Node000001_Node000010"><a xlink:title=" ">
<path fill="none" stroke="#63b8ff" d="M120.13,-112.5C131.29,-114.02 143.05,-115.61 154.48,-117.16"/>
<polygon fill="#63b8ff" stroke="#63b8ff" points="154.04,-120.63 164.42,-118.5 154.98,-113.69 154.04,-120.63"/>
</a>
</g>
</g>
<!-- Node12 -->
<g id="Node000012" class="node">
<title>Node12</title>
<g id="a_Node000012"><a xlink:href="classdetail_1_1buffer.html#a49016d0c600f79917e00d9e3458c8c92" target="_top" xlink:title=" ">
<polygon fill="white" stroke="#666666" points="293,-93 156,-93 156,-74 293,-74 293,-93"/>
<text text-anchor="middle" x="224.5" y="-81" font-family="Helvetica,sans-Serif" font-size="10.00">detail::buffer::push_back</text>
</a>
</g>
</g>
<!-- Node1&#45;&gt;Node12 -->
<g id="edge11_Node000001_Node000012" class="edge">
<title>Node1&#45;&gt;Node12</title>
<g id="a_edge11_Node000001_Node000012"><a xlink:title=" ">
<path fill="none" stroke="#63b8ff" d="M120.13,-96.86C128.47,-95.78 137.16,-94.66 145.79,-93.54"/>
<polygon fill="#63b8ff" stroke="#63b8ff" points="146.41,-96.99 155.88,-92.24 145.51,-90.05 146.41,-96.99"/>
</a>
</g>
</g>
<!-- Node14 -->
<g id="Node000014" class="node">
<title>Node14</title>
<g id="a_Node000014"><a xlink:href="classdetail_1_1buffer.html#a8685285932360c284d19003fc4ba3edc" target="_top" xlink:title="Returns the size of this buffer.">
<polygon fill="white" stroke="#666666" points="276.5,-56 172.5,-56 172.5,-37 276.5,-37 276.5,-56"/>
<text text-anchor="middle" x="224.5" y="-44" font-family="Helvetica,sans-Serif" font-size="10.00">detail::buffer::size</text>
</a>
</g>
</g>
<!-- Node1&#45;&gt;Node14 -->
<g id="edge13_Node000001_Node000014" class="edge">
<title>Node1&#45;&gt;Node14</title>
<g id="a_edge13_Node000001_Node000014"><a xlink:title=" ">
<path fill="none" stroke="#63b8ff" d="M93.54,-89.48C111.69,-81.45 134.83,-71.74 156,-64.5 161.87,-62.49 168.1,-60.57 174.3,-58.77"/>
<polygon fill="#63b8ff" stroke="#63b8ff" points="175.28,-62.13 183.96,-56.06 173.39,-55.39 175.28,-62.13"/>
</a>
</g>
</g>
<!-- Node15 -->
<g id="Node000015" class="node">
<title>Node15</title>
<g id="a_Node000015"><a xlink:href="namespacedetail.html#a4855e668246c731a97484efc329f2aac" target="_top" xlink:title=" ">
<polygon fill="white" stroke="#666666" points="279.5,-19 169.5,-19 169.5,0 279.5,0 279.5,-19"/>
<text text-anchor="middle" x="224.5" y="-7" font-family="Helvetica,sans-Serif" font-size="10.00">detail::to_unsigned</text>
</a>
</g>
</g>
<!-- Node1&#45;&gt;Node15 -->
<g id="edge14_Node000001_Node000015" class="edge">
<title>Node1&#45;&gt;Node15</title>
<g id="a_edge14_Node000001_Node000015"><a xlink:title=" ">
<path fill="none" stroke="#63b8ff" d="M75.69,-89.2C93.23,-71.79 124.21,-43.68 156,-27.5 159.71,-25.61 163.64,-23.91 167.66,-22.37"/>
<polygon fill="#63b8ff" stroke="#63b8ff" points="168.85,-25.66 177.15,-19.08 166.55,-19.05 168.85,-25.66"/>
</a>
</g>
</g>
<!-- Node3 -->
<g id="Node000003" class="node">
<title>Node3</title>
<g id="a_Node000003"><a xlink:href="classbasic__memory__buffer.html#a97d9a0a0f9827c9277e2eea97fa0309b" target="_top" xlink:title=" ">
<polygon fill="white" stroke="#666666" points="451,-261.5 329,-261.5 329,-231.5 451,-231.5 451,-261.5"/>
<text text-anchor="start" x="337" y="-249.5" font-family="Helvetica,sans-Serif" font-size="10.00">basic_memory_buffer</text>
<text text-anchor="middle" x="390" y="-238.5" font-family="Helvetica,sans-Serif" font-size="10.00">::grow</text>
</a>
</g>
</g>
<!-- Node2&#45;&gt;Node3 -->
<g id="edge2_Node000002_Node000003" class="edge">
<title>Node2&#45;&gt;Node3</title>
<g id="a_edge2_Node000002_Node000003"><a xlink:title=" ">
<path fill="none" stroke="#63b8ff" d="M288.71,-231.78C298.62,-233.23 308.91,-234.74 318.96,-236.22"/>
<polygon fill="#63b8ff" stroke="#63b8ff" points="318.5,-239.69 328.91,-237.68 319.52,-232.76 318.5,-239.69"/>
</a>
</g>
</g>
<!-- Node8 -->
<g id="Node000008" class="node">
<title>Node8</title>
<g id="a_Node000008"><a xlink:href="namespacedetail.html#a75ed2634319883d038944529dbb954e2" target="_top" xlink:title=" ">
<polygon fill="white" stroke="#666666" points="443,-213.5 337,-213.5 337,-183.5 443,-183.5 443,-213.5"/>
<text text-anchor="start" x="345" y="-201.5" font-family="Helvetica,sans-Serif" font-size="10.00">detail::is_constant</text>
<text text-anchor="middle" x="390" y="-190.5" font-family="Helvetica,sans-Serif" font-size="10.00">_evaluated</text>
</a>
</g>
</g>
<!-- Node2&#45;&gt;Node8 -->
<g id="edge7_Node000002_Node000008" class="edge">
<title>Node2&#45;&gt;Node8</title>
<g id="a_edge7_Node000002_Node000008"><a xlink:title=" ">
<path fill="none" stroke="#63b8ff" d="M288.71,-213.22C301.14,-211.4 314.17,-209.48 326.57,-207.66"/>
<polygon fill="#63b8ff" stroke="#63b8ff" points="327.42,-211.08 336.81,-206.16 326.41,-204.15 327.42,-211.08"/>
</a>
</g>
</g>
<!-- Node4 -->
<g id="Node000004" class="node">
<title>Node4</title>
<g id="a_Node000004"><a xlink:href="namespacedetail.html#a9d0b4b56d52390d7c8a4be7baa5e2382" target="_top" xlink:title=" ">
<polygon fill="white" stroke="#666666" points="615,-293 487,-293 487,-274 615,-274 615,-293"/>
<text text-anchor="middle" x="551" y="-281" font-family="Helvetica,sans-Serif" font-size="10.00">detail::abort_fuzzing_if</text>
</a>
</g>
</g>
<!-- Node3&#45;&gt;Node4 -->
<g id="edge3_Node000003_Node000004" class="edge">
<title>Node3&#45;&gt;Node4</title>
<g id="a_edge3_Node000003_Node000004"><a xlink:title=" ">
<path fill="none" stroke="#63b8ff" d="M451.11,-260.49C466.98,-264.18 483.95,-268.13 499.27,-271.7"/>
<polygon fill="#63b8ff" stroke="#63b8ff" points="498.54,-275.12 509.07,-273.98 500.13,-268.3 498.54,-275.12"/>
</a>
</g>
</g>
<!-- Node6 -->
<g id="Node000006" class="node">
<title>Node6</title>
<g id="a_Node000006"><a xlink:href="namespacedetail.html#a208b54c1c61a9bce9df4531a657a0c64" target="_top" xlink:title=" ">
<polygon fill="white" stroke="#666666" points="595.5,-256 506.5,-256 506.5,-237 595.5,-237 595.5,-256"/>
<text text-anchor="middle" x="551" y="-244" font-family="Helvetica,sans-Serif" font-size="10.00">detail::assume</text>
</a>
</g>
</g>
<!-- Node3&#45;&gt;Node6 -->
<g id="edge5_Node000003_Node000006" class="edge">
<title>Node3&#45;&gt;Node6</title>
<g id="a_edge5_Node000003_Node000006"><a xlink:title=" ">
<path fill="none" stroke="#63b8ff" d="M451.11,-246.5C465.83,-246.5 481.49,-246.5 495.91,-246.5"/>
<polygon fill="#63b8ff" stroke="#63b8ff" points="496.16,-250 506.16,-246.5 496.16,-243 496.16,-250"/>
</a>
</g>
</g>
<!-- Node7 -->
<g id="Node000007" class="node">
<title>Node7</title>
<g id="a_Node000007"><a xlink:href="base_8h.html#a67ebc2a5b1748c4692931267cd6f89bf" target="_top" xlink:title=" ">
<polygon fill="white" stroke="#666666" points="577.5,-219 524.5,-219 524.5,-200 577.5,-200 577.5,-219"/>
<text text-anchor="middle" x="551" y="-207" font-family="Helvetica,sans-Serif" font-size="10.00">max_of</text>
</a>
</g>
</g>
<!-- Node3&#45;&gt;Node7 -->
<g id="edge6_Node000003_Node000007" class="edge">
<title>Node3&#45;&gt;Node7</title>
<g id="a_edge6_Node000003_Node000007"><a xlink:title=" ">
<path fill="none" stroke="#63b8ff" d="M451.11,-232.51C472.48,-227.54 495.84,-222.1 514.49,-217.76"/>
<polygon fill="#63b8ff" stroke="#63b8ff" points="515.37,-221.15 524.32,-215.48 513.79,-214.33 515.37,-221.15"/>
</a>
</g>
</g>
<!-- Node5 -->
<g id="Node000005" class="node">
<title>Node5</title>
<g id="a_Node000005"><a xlink:href="namespacedetail.html#a1fe84ebaf96215ce0665d95b3124c2df" target="_top" xlink:title=" ">
<polygon fill="white" stroke="#666666" points="773,-293 651,-293 651,-274 773,-274 773,-293"/>
<text text-anchor="middle" x="712" y="-281" font-family="Helvetica,sans-Serif" font-size="10.00">detail::ignore_unused</text>
</a>
</g>
</g>
<!-- Node4&#45;&gt;Node5 -->
<g id="edge4_Node000004_Node000005" class="edge">
<title>Node4&#45;&gt;Node5</title>
<g id="a_edge4_Node000004_Node000005"><a xlink:title=" ">
<path fill="none" stroke="#63b8ff" d="M615.3,-283.5C623.61,-283.5 632.17,-283.5 640.59,-283.5"/>
<polygon fill="#63b8ff" stroke="#63b8ff" points="640.77,-287 650.77,-283.5 640.77,-280 640.77,-287"/>
</a>
</g>
</g>
<!-- Node11 -->
<g id="Node000011" class="node">
<title>Node11</title>
<g id="a_Node000011"><a xlink:href="namespacedetail.html#a45c2130c44ebe54179eafcee3cda2bfb" target="_top" xlink:title=" ">
<polygon fill="white" stroke="#666666" points="442,-136 338,-136 338,-117 442,-117 442,-136"/>
<text text-anchor="middle" x="390" y="-124" font-family="Helvetica,sans-Serif" font-size="10.00">detail::max_value</text>
</a>
</g>
</g>
<!-- Node10&#45;&gt;Node11 -->
<g id="edge10_Node000010_Node000011" class="edge">
<title>Node10&#45;&gt;Node11</title>
<g id="a_edge10_Node000010_Node000011"><a xlink:title=" ">
<path fill="none" stroke="#63b8ff" d="M284.53,-126.5C298.59,-126.5 313.62,-126.5 327.77,-126.5"/>
<polygon fill="#63b8ff" stroke="#63b8ff" points="327.9,-130 337.9,-126.5 327.9,-123 327.9,-130"/>
</a>
</g>
</g>
<!-- Node13 -->
<g id="Node000013" class="node">
<title>Node13</title>
<g id="a_Node000013"><a xlink:href="classdetail_1_1buffer.html#a91bcecc177b01b84d693028111fbd8eb" target="_top" xlink:title=" ">
<polygon fill="white" stroke="#666666" points="439,-98.5 341,-98.5 341,-68.5 439,-68.5 439,-98.5"/>
<text text-anchor="start" x="349" y="-86.5" font-family="Helvetica,sans-Serif" font-size="10.00">detail::buffer::try</text>
<text text-anchor="middle" x="390" y="-75.5" font-family="Helvetica,sans-Serif" font-size="10.00">_reserve</text>
</a>
</g>
</g>
<!-- Node12&#45;&gt;Node13 -->
<g id="edge12_Node000012_Node000013" class="edge">
<title>Node12&#45;&gt;Node13</title>
<g id="a_edge12_Node000012_Node000013"><a xlink:title=" ">
<path fill="none" stroke="#63b8ff" d="M293.42,-83.5C305.89,-83.5 318.81,-83.5 330.96,-83.5"/>
<polygon fill="#63b8ff" stroke="#63b8ff" points="330.97,-87 340.96,-83.5 330.96,-80 330.97,-87"/>
</a>
</g>
</g>
</g>
</svg>
