<?xml version="1.0" encoding="UTF-8" standalone="no"?>
<!DOCTYPE svg PUBLIC "-//W3C//DTD SVG 1.1//EN"
 "http://www.w3.org/Graphics/SVG/1.1/DTD/svg11.dtd">
<!-- Generated by graphviz version 2.43.0 (0)
 -->
<!-- Title: basic_specs::sign Pages: 1 -->
<svg width="279pt" height="246pt"
 viewBox="0.00 0.00 279.00 245.50" xmlns="http://www.w3.org/2000/svg" xmlns:xlink="http://www.w3.org/1999/xlink">
<g id="graph0" class="graph" transform="scale(1 1) rotate(0) translate(4 241.5)">
<title>basic_specs::sign</title>
<!-- Node1 -->
<g id="Node000001" class="node">
<title>Node1</title>
<g id="a_Node000001"><a xlink:title=" ">
<polygon fill="#999999" stroke="#666666" points="271,-114 170,-114 170,-95 271,-95 271,-114"/>
<text text-anchor="middle" x="220.5" y="-102" font-family="Helvetica,sans-Serif" font-size="10.00">basic_specs::sign</text>
</a>
</g>
</g>
<!-- Node2 -->
<g id="Node000002" class="node">
<title>Node2</title>
<g id="a_Node000002"><a xlink:href="namespacedetail.html#a56f8ff16a82c38da1e1f7ac0b823f526" target="_top" xlink:title=" ">
<polygon fill="white" stroke="#666666" points="119.5,-237.5 14.5,-237.5 14.5,-207.5 119.5,-207.5 119.5,-237.5"/>
<text text-anchor="start" x="22.5" y="-225.5" font-family="Helvetica,sans-Serif" font-size="10.00">detail::check_char</text>
<text text-anchor="middle" x="67" y="-214.5" font-family="Helvetica,sans-Serif" font-size="10.00">_specs</text>
</a>
</g>
</g>
<!-- Node1&#45;&gt;Node2 -->
<g id="edge1_Node000001_Node000002" class="edge">
<title>Node1&#45;&gt;Node2</title>
<g id="a_edge1_Node000001_Node000002"><a xlink:title=" ">
<path fill="none" stroke="#63b8ff" d="M207.31,-122.5C192.3,-143.42 164.96,-177.74 134,-198.5 128.94,-201.9 123.33,-204.88 117.6,-207.48"/>
<polygon fill="#63b8ff" stroke="#63b8ff" points="210.27,-124.38 213.14,-114.18 204.54,-120.36 210.27,-124.38"/>
</a>
</g>
</g>
<!-- Node3 -->
<g id="Node000003" class="node">
<title>Node3</title>
<g id="a_Node000003"><a xlink:href="structformatter_3_01group__digits__view_3_01T_01_4_01_4.html#ad4a94105ce2e3ca473930da056b3edbb" target="_top" xlink:title=" ">
<polygon fill="white" stroke="#666666" points="134,-189.5 0,-189.5 0,-159.5 134,-159.5 134,-189.5"/>
<text text-anchor="start" x="8" y="-177.5" font-family="Helvetica,sans-Serif" font-size="10.00">formatter&lt; group_digits</text>
<text text-anchor="middle" x="67" y="-166.5" font-family="Helvetica,sans-Serif" font-size="10.00">_view&lt; T &gt; &gt;::format</text>
</a>
</g>
</g>
<!-- Node1&#45;&gt;Node3 -->
<g id="edge2_Node000001_Node000003" class="edge">
<title>Node1&#45;&gt;Node3</title>
<g id="a_edge2_Node000001_Node000003"><a xlink:title=" ">
<path fill="none" stroke="#63b8ff" d="M194.33,-119.29C177.55,-128.84 154.83,-141.17 134,-150.5 126.99,-153.64 119.43,-156.69 112.02,-159.5"/>
<polygon fill="#63b8ff" stroke="#63b8ff" points="196.54,-122.06 203.46,-114.04 193.05,-115.99 196.54,-122.06"/>
</a>
</g>
</g>
<!-- Node4 -->
<g id="Node000004" class="node">
<title>Node4</title>
<g id="a_Node000004"><a xlink:href="structdetail_1_1loc__writer.html#a4fdaad02f378db270995e15f4ed6d2a4" target="_top" xlink:title=" ">
<polygon fill="white" stroke="#666666" points="116,-141.5 18,-141.5 18,-111.5 116,-111.5 116,-141.5"/>
<text text-anchor="start" x="26" y="-129.5" font-family="Helvetica,sans-Serif" font-size="10.00">detail::loc_writer</text>
<text text-anchor="middle" x="67" y="-118.5" font-family="Helvetica,sans-Serif" font-size="10.00">::operator()</text>
</a>
</g>
</g>
<!-- Node1&#45;&gt;Node4 -->
<g id="edge3_Node000001_Node000004" class="edge">
<title>Node1&#45;&gt;Node4</title>
<g id="a_edge3_Node000001_Node000004"><a xlink:title=" ">
<path fill="none" stroke="#63b8ff" d="M160,-113.14C145.46,-115.25 130.1,-117.48 116.17,-119.51"/>
<polygon fill="#63b8ff" stroke="#63b8ff" points="160.5,-116.6 169.89,-111.7 159.49,-109.68 160.5,-116.6"/>
</a>
</g>
</g>
<!-- Node5 -->
<g id="Node000005" class="node">
<title>Node5</title>
<g id="a_Node000005"><a xlink:href="namespacedetail.html#a4213daed116a37e1767881da51238261" target="_top" xlink:title=" ">
<polygon fill="white" stroke="#666666" points="120,-93 14,-93 14,-74 120,-74 120,-93"/>
<text text-anchor="middle" x="67" y="-81" font-family="Helvetica,sans-Serif" font-size="10.00">detail::parse_flags</text>
</a>
</g>
</g>
<!-- Node1&#45;&gt;Node5 -->
<g id="edge4_Node000001_Node000005" class="edge">
<title>Node1&#45;&gt;Node5</title>
<g id="a_edge4_Node000001_Node000005"><a xlink:title=" ">
<path fill="none" stroke="#63b8ff" d="M159.97,-96.25C146.79,-94.42 132.92,-92.5 120.06,-90.72"/>
<polygon fill="#63b8ff" stroke="#63b8ff" points="159.51,-99.72 169.89,-97.62 160.47,-92.78 159.51,-99.72"/>
</a>
</g>
</g>
<!-- Node6 -->
<g id="Node000006" class="node">
<title>Node6</title>
<g id="a_Node000006"><a xlink:href="namespacedetail.html#ad1a9d2e2b53507899d0ef386e8196d4d" target="_top" xlink:title=" ">
<polygon fill="white" stroke="#666666" points="104.5,-56 29.5,-56 29.5,-37 104.5,-37 104.5,-56"/>
<text text-anchor="middle" x="67" y="-44" font-family="Helvetica,sans-Serif" font-size="10.00">detail::write</text>
</a>
</g>
</g>
<!-- Node1&#45;&gt;Node6 -->
<g id="edge5_Node000001_Node000006" class="edge">
<title>Node1&#45;&gt;Node6</title>
<g id="a_edge5_Node000001_Node000006"><a xlink:title=" ">
<path fill="none" stroke="#63b8ff" d="M191.4,-90.41C174.93,-82.48 153.57,-72.74 134,-65.5 124.61,-62.03 114.27,-58.79 104.62,-56"/>
<polygon fill="#63b8ff" stroke="#63b8ff" points="189.96,-93.61 200.49,-94.84 193.03,-87.31 189.96,-93.61"/>
</a>
</g>
</g>
<!-- Node7 -->
<g id="Node000007" class="node">
<title>Node7</title>
<g id="a_Node000007"><a xlink:href="namespacedetail.html#aa7bb4a36207a43095b49d35efaf89160" target="_top" xlink:title=" ">
<polygon fill="white" stroke="#666666" points="104.5,-19 29.5,-19 29.5,0 104.5,0 104.5,-19"/>
<text text-anchor="middle" x="67" y="-7" font-family="Helvetica,sans-Serif" font-size="10.00">detail::write</text>
</a>
</g>
</g>
<!-- Node1&#45;&gt;Node7 -->
<g id="edge6_Node000001_Node000007" class="edge">
<title>Node1&#45;&gt;Node7</title>
<g id="a_edge6_Node000001_Node000007"><a xlink:title=" ">
<path fill="none" stroke="#63b8ff" d="M204.4,-87.15C188.51,-69.91 161.96,-43.9 134,-28.5 125.02,-23.55 114.62,-19.78 104.78,-16.96"/>
<polygon fill="#63b8ff" stroke="#63b8ff" points="202.01,-89.73 211.3,-94.82 207.21,-85.04 202.01,-89.73"/>
</a>
</g>
</g>
</g>
</svg>
