<?xml version="1.0" encoding="UTF-8" standalone="no"?>
<!DOCTYPE svg PUBLIC "-//W3C//DTD SVG 1.1//EN"
 "http://www.w3.org/Graphics/SVG/1.1/DTD/svg11.dtd">
<!-- Generated by graphviz version 2.43.0 (0)
 -->
<!-- Title: Magick::DrawableFillColor Pages: 1 -->
<svg width="196pt" height="159pt"
 viewBox="0.00 0.00 196.00 159.00" xmlns="http://www.w3.org/2000/svg" xmlns:xlink="http://www.w3.org/1999/xlink">
<g id="graph0" class="graph" transform="scale(1 1) rotate(0) translate(4 155)">
<title>Magick::DrawableFillColor</title>
<!-- Node1 -->
<g id="Node000001" class="node">
<title>Node1</title>
<g id="a_Node000001"><a xlink:title=" ">
<polygon fill="#999999" stroke="#666666" points="149.5,-19 5.5,-19 5.5,0 149.5,0 149.5,-19"/>
<text text-anchor="middle" x="77.5" y="-7" font-family="Helvetica,sans-Serif" font-size="10.00">Magick::DrawableFillColor</text>
</a>
</g>
</g>
<!-- Node2 -->
<g id="Node000002" class="node">
<title>Node2</title>
<g id="a_Node000002"><a xlink:title=" ">
<polygon fill="white" stroke="#666666" points="87,-85 0,-85 0,-66 87,-66 87,-85"/>
<text text-anchor="middle" x="43.5" y="-73" font-family="Helvetica,sans-Serif" font-size="10.00">DrawableBase</text>
</a>
</g>
</g>
<!-- Node2&#45;&gt;Node1 -->
<g id="edge1_Node000001_Node000002" class="edge">
<title>Node2&#45;&gt;Node1</title>
<g id="a_edge1_Node000001_Node000002"><a xlink:title=" ">
<path fill="none" stroke="#63b8ff" d="M52.96,-56.68C59.41,-44.55 67.67,-29.01 72.77,-19.41"/>
<polygon fill="#63b8ff" stroke="#63b8ff" points="49.69,-55.4 48.09,-65.87 55.87,-58.68 49.69,-55.4"/>
</a>
</g>
</g>
<!-- Node3 -->
<g id="Node000003" class="node">
<title>Node3</title>
<g id="a_Node000003"><a xlink:href="classMagick_1_1Color.html" target="_top" xlink:title=" ">
<polygon fill="white" stroke="#666666" points="188,-85 105,-85 105,-66 188,-66 188,-85"/>
<text text-anchor="middle" x="146.5" y="-73" font-family="Helvetica,sans-Serif" font-size="10.00">Magick::Color</text>
</a>
</g>
</g>
<!-- Node3&#45;&gt;Node1 -->
<g id="edge2_Node000001_Node000003" class="edge">
<title>Node3&#45;&gt;Node1</title>
<g id="a_edge2_Node000001_Node000003"><a xlink:title=" ">
<path fill="none" stroke="#9a32cd" stroke-dasharray="5,2" d="M129.61,-58.83C116.25,-46.44 98.08,-29.59 87.1,-19.41"/>
<polygon fill="#9a32cd" stroke="#9a32cd" points="127.48,-61.63 137.19,-65.87 132.24,-56.5 127.48,-61.63"/>
</a>
</g>
<text text-anchor="middle" x="132" y="-40" font-family="Helvetica,sans-Serif" font-size="10.00" fill="grey"> _color</text>
</g>
<!-- Node4 -->
<g id="Node000004" class="node">
<title>Node4</title>
<g id="a_Node000004"><a xlink:title=" ">
<polygon fill="white" stroke="#666666" points="182,-151 111,-151 111,-132 182,-132 182,-151"/>
<text text-anchor="middle" x="146.5" y="-139" font-family="Helvetica,sans-Serif" font-size="10.00">PixelPacket</text>
</a>
</g>
</g>
<!-- Node4&#45;&gt;Node3 -->
<g id="edge3_Node000003_Node000004" class="edge">
<title>Node4&#45;&gt;Node3</title>
<g id="a_edge3_Node000003_Node000004"><a xlink:title=" ">
<path fill="none" stroke="#9a32cd" stroke-dasharray="5,2" d="M146.5,-121.58C146.5,-109.63 146.5,-94.72 146.5,-85.41"/>
<polygon fill="#9a32cd" stroke="#9a32cd" points="143,-121.87 146.5,-131.87 150,-121.87 143,-121.87"/>
</a>
</g>
<text text-anchor="middle" x="162.5" y="-106" font-family="Helvetica,sans-Serif" font-size="10.00" fill="grey"> _pixel</text>
</g>
</g>
</svg>
