<?xml version="1.0" encoding="UTF-8" standalone="no"?>
<!DOCTYPE svg PUBLIC "-//W3C//DTD SVG 1.1//EN"
 "http://www.w3.org/Graphics/SVG/1.1/DTD/svg11.dtd">
<!-- Generated by graphviz version 2.43.0 (0)
 -->
<!-- Title: basic_specs::dynamic_precision Pages: 1 -->
<svg width="301pt" height="194pt"
 viewBox="0.00 0.00 301.00 193.50" xmlns="http://www.w3.org/2000/svg" xmlns:xlink="http://www.w3.org/1999/xlink">
<g id="graph0" class="graph" transform="scale(1 1) rotate(0) translate(4 189.5)">
<title>basic_specs::dynamic_precision</title>
<!-- Node1 -->
<g id="Node000001" class="node">
<title>Node1</title>
<g id="a_Node000001"><a xlink:title=" ">
<polygon fill="#999999" stroke="#666666" points="293,-113.5 170,-113.5 170,-83.5 293,-83.5 293,-113.5"/>
<text text-anchor="start" x="178" y="-101.5" font-family="Helvetica,sans-Serif" font-size="10.00">basic_specs::dynamic</text>
<text text-anchor="middle" x="231.5" y="-90.5" font-family="Helvetica,sans-Serif" font-size="10.00">_precision</text>
</a>
</g>
</g>
<!-- Node2 -->
<g id="Node000002" class="node">
<title>Node2</title>
<g id="a_Node000002"><a xlink:href="structformatter_3_01bytes_01_4.html#a241e55955c26ece96e7df9029b3cf5a4" target="_top" xlink:title=" ">
<polygon fill="white" stroke="#666666" points="123.5,-185.5 10.5,-185.5 10.5,-155.5 123.5,-155.5 123.5,-185.5"/>
<text text-anchor="start" x="18.5" y="-173.5" font-family="Helvetica,sans-Serif" font-size="10.00">formatter&lt; bytes &gt;</text>
<text text-anchor="middle" x="67" y="-162.5" font-family="Helvetica,sans-Serif" font-size="10.00">::format</text>
</a>
</g>
</g>
<!-- Node1&#45;&gt;Node2 -->
<g id="edge1_Node000001_Node000002" class="edge">
<title>Node1&#45;&gt;Node2</title>
<g id="a_edge1_Node000001_Node000002"><a xlink:title=" ">
<path fill="none" stroke="#63b8ff" d="M193.3,-118.23C175.56,-127.32 153.92,-137.96 134,-146.5 126.83,-149.58 119.12,-152.61 111.59,-155.44"/>
<polygon fill="#63b8ff" stroke="#63b8ff" points="194.91,-121.34 202.18,-113.64 191.69,-115.12 194.91,-121.34"/>
</a>
</g>
</g>
<!-- Node3 -->
<g id="Node000003" class="node">
<title>Node3</title>
<g id="a_Node000003"><a xlink:href="structdetail_1_1native__formatter.html#af6f15bad58e42d84e9e3a55324b30492" target="_top" xlink:title=" ">
<polygon fill="white" stroke="#666666" points="133.5,-137.5 0.5,-137.5 0.5,-107.5 133.5,-107.5 133.5,-137.5"/>
<text text-anchor="start" x="8.5" y="-125.5" font-family="Helvetica,sans-Serif" font-size="10.00">detail::native_formatter</text>
<text text-anchor="middle" x="67" y="-114.5" font-family="Helvetica,sans-Serif" font-size="10.00">::format</text>
</a>
</g>
</g>
<!-- Node1&#45;&gt;Node3 -->
<g id="edge2_Node000001_Node000003" class="edge">
<title>Node1&#45;&gt;Node3</title>
<g id="a_edge2_Node000001_Node000003"><a xlink:title=" ">
<path fill="none" stroke="#63b8ff" d="M159.89,-108.93C151.2,-110.21 142.35,-111.52 133.74,-112.79"/>
<polygon fill="#63b8ff" stroke="#63b8ff" points="160.61,-112.36 169.99,-107.44 159.59,-105.44 160.61,-112.36"/>
</a>
</g>
</g>
<!-- Node4 -->
<g id="Node000004" class="node">
<title>Node4</title>
<g id="a_Node000004"><a xlink:href="structformatter_3_01group__digits__view_3_01T_01_4_01_4.html#ad4a94105ce2e3ca473930da056b3edbb" target="_top" xlink:title=" ">
<polygon fill="white" stroke="#666666" points="134,-89.5 0,-89.5 0,-59.5 134,-59.5 134,-89.5"/>
<text text-anchor="start" x="8" y="-77.5" font-family="Helvetica,sans-Serif" font-size="10.00">formatter&lt; group_digits</text>
<text text-anchor="middle" x="67" y="-66.5" font-family="Helvetica,sans-Serif" font-size="10.00">_view&lt; T &gt; &gt;::format</text>
</a>
</g>
</g>
<!-- Node1&#45;&gt;Node4 -->
<g id="edge3_Node000001_Node000004" class="edge">
<title>Node1&#45;&gt;Node4</title>
<g id="a_edge3_Node000001_Node000004"><a xlink:title=" ">
<path fill="none" stroke="#63b8ff" d="M159.97,-88.08C151.35,-86.81 142.57,-85.51 134.01,-84.25"/>
<polygon fill="#63b8ff" stroke="#63b8ff" points="159.59,-91.56 169.99,-89.56 160.61,-84.64 159.59,-91.56"/>
</a>
</g>
</g>
<!-- Node5 -->
<g id="Node000005" class="node">
<title>Node5</title>
<g id="a_Node000005"><a xlink:href="structformatter_3_01std_1_1chrono_1_1duration_3_01Rep_00_01Period_01_4_00_01Char_01_4.html#a4a5f18da796aba79bd0604170d0d3b4e" target="_top" xlink:title=" ">
<polygon fill="white" stroke="#666666" points="132,-41 2,-41 2,0 132,0 132,-41"/>
<text text-anchor="start" x="10" y="-29" font-family="Helvetica,sans-Serif" font-size="10.00">formatter&lt; std::chrono</text>
<text text-anchor="start" x="10" y="-18" font-family="Helvetica,sans-Serif" font-size="10.00">::duration&lt; Rep, Period</text>
<text text-anchor="middle" x="67" y="-7" font-family="Helvetica,sans-Serif" font-size="10.00"> &gt;, Char &gt;::format</text>
</a>
</g>
</g>
<!-- Node1&#45;&gt;Node5 -->
<g id="edge4_Node000001_Node000005" class="edge">
<title>Node1&#45;&gt;Node5</title>
<g id="a_edge4_Node000001_Node000005"><a xlink:title=" ">
<path fill="none" stroke="#63b8ff" d="M191.32,-78.62C173.84,-69.86 152.96,-59.52 134,-50.5 127.52,-47.42 120.66,-44.22 113.9,-41.11"/>
<polygon fill="#63b8ff" stroke="#63b8ff" points="190.13,-81.94 200.64,-83.31 193.28,-75.69 190.13,-81.94"/>
</a>
</g>
</g>
</g>
</svg>
