<?xml version="1.0" encoding="UTF-8" standalone="no"?>
<!DOCTYPE svg PUBLIC "-//W3C//DTD SVG 1.1//EN"
 "http://www.w3.org/Graphics/SVG/1.1/DTD/svg11.dtd">
<!-- Generated by graphviz version 2.43.0 (0)
 -->
<!-- Title: Magick::ColorRGB::green Pages: 1 -->
<svg width="344pt" height="76pt"
 viewBox="0.00 0.00 344.00 75.50" xmlns="http://www.w3.org/2000/svg" xmlns:xlink="http://www.w3.org/1999/xlink">
<g id="graph0" class="graph" transform="scale(1 1) rotate(0) translate(4 71.5)">
<title>Magick::ColorRGB::green</title>
<!-- Node1 -->
<g id="Node000001" class="node">
<title>Node1</title>
<g id="a_Node000001"><a xlink:title=" ">
<polygon fill="#999999" stroke="#666666" points="138,-45.5 0,-45.5 0,-26.5 138,-26.5 138,-45.5"/>
<text text-anchor="middle" x="69" y="-33.5" font-family="Helvetica,sans-Serif" font-size="10.00">Magick::ColorRGB::green</text>
</a>
</g>
</g>
<!-- Node2 -->
<g id="Node000002" class="node">
<title>Node2</title>
<g id="a_Node000002"><a xlink:href="classMagick_1_1Color.html#aaefb83268c72fe422af0812e98b69725" target="_top" xlink:title=" ">
<polygon fill="white" stroke="#666666" points="336,-67.5 174,-67.5 174,-48.5 336,-48.5 336,-67.5"/>
<text text-anchor="middle" x="255" y="-55.5" font-family="Helvetica,sans-Serif" font-size="10.00">Magick::Color::greenQuantum</text>
</a>
</g>
</g>
<!-- Node1&#45;&gt;Node2 -->
<g id="edge1_Node000001_Node000002" class="edge">
<title>Node1&#45;&gt;Node2</title>
<g id="a_edge1_Node000001_Node000002"><a xlink:title=" ">
<path fill="none" stroke="#63b8ff" d="M138.25,-44.16C146.71,-45.17 155.45,-46.22 164.16,-47.26"/>
<polygon fill="#63b8ff" stroke="#63b8ff" points="164.02,-50.77 174.36,-48.48 164.85,-43.82 164.02,-50.77"/>
</a>
</g>
</g>
<!-- Node3 -->
<g id="Node000003" class="node">
<title>Node3</title>
<g id="a_Node000003"><a xlink:href="classMagick_1_1Color.html#ad645ba5bc56ebd8aa00b1222a5154c40" target="_top" xlink:title=" ">
<polygon fill="white" stroke="#666666" points="329.5,-30 180.5,-30 180.5,0 329.5,0 329.5,-30"/>
<text text-anchor="start" x="188.5" y="-18" font-family="Helvetica,sans-Serif" font-size="10.00">Magick::Color::scaleDouble</text>
<text text-anchor="middle" x="255" y="-7" font-family="Helvetica,sans-Serif" font-size="10.00">ToQuantum</text>
</a>
</g>
</g>
<!-- Node1&#45;&gt;Node3 -->
<g id="edge2_Node000001_Node000003" class="edge">
<title>Node1&#45;&gt;Node3</title>
<g id="a_edge2_Node000001_Node000003"><a xlink:title=" ">
<path fill="none" stroke="#63b8ff" d="M138.25,-28.21C148.64,-27.02 159.46,-25.79 170.13,-24.57"/>
<polygon fill="#63b8ff" stroke="#63b8ff" points="170.76,-28.02 180.3,-23.41 169.97,-21.07 170.76,-28.02"/>
</a>
</g>
</g>
</g>
</svg>
