<?xml version="1.0" encoding="UTF-8" standalone="no"?>
<!DOCTYPE svg PUBLIC "-//W3C//DTD SVG 1.1//EN"
 "http://www.w3.org/Graphics/SVG/1.1/DTD/svg11.dtd">
<!-- Generated by graphviz version 2.43.0 (0)
 -->
<!-- Title: cxxopts::OptionParser::consume_positional Pages: 1 -->
<svg width="965pt" height="342pt"
 viewBox="0.00 0.00 965.00 341.50" xmlns="http://www.w3.org/2000/svg" xmlns:xlink="http://www.w3.org/1999/xlink">
<g id="graph0" class="graph" transform="scale(1 1) rotate(0) translate(4 337.5)">
<title>cxxopts::OptionParser::consume_positional</title>
<!-- Node1 -->
<g id="Node000001" class="node">
<title>Node1</title>
<g id="a_Node000001"><a xlink:title=" ">
<polygon fill="#999999" stroke="#666666" points="122,-140 0,-140 0,-110 122,-110 122,-140"/>
<text text-anchor="start" x="8" y="-128" font-family="Helvetica,sans-Serif" font-size="10.00">cxxopts::OptionParser</text>
<text text-anchor="middle" x="61" y="-117" font-family="Helvetica,sans-Serif" font-size="10.00">::consume_positional</text>
</a>
</g>
</g>
<!-- Node2 -->
<g id="Node000002" class="node">
<title>Node2</title>
<g id="a_Node000002"><a xlink:href="classcxxopts_1_1OptionParser.html#a6445f8081bffcb7ab31d241a200b9f04" target="_top" xlink:title=" ">
<polygon fill="white" stroke="#666666" points="288.5,-252 166.5,-252 166.5,-222 288.5,-222 288.5,-252"/>
<text text-anchor="start" x="174.5" y="-240" font-family="Helvetica,sans-Serif" font-size="10.00">cxxopts::OptionParser</text>
<text text-anchor="middle" x="227.5" y="-229" font-family="Helvetica,sans-Serif" font-size="10.00">::add_to_option</text>
</a>
</g>
</g>
<!-- Node1&#45;&gt;Node2 -->
<g id="edge1_Node000001_Node000002" class="edge">
<title>Node1&#45;&gt;Node2</title>
<g id="a_edge1_Node000001_Node000002"><a xlink:title=" ">
<path fill="none" stroke="#63b8ff" d="M77.25,-140.2C95.36,-157.68 127.02,-186.45 158,-206 164.6,-210.16 171.85,-214.07 179.09,-217.62"/>
<polygon fill="#63b8ff" stroke="#63b8ff" points="177.66,-220.82 188.2,-221.91 180.64,-214.48 177.66,-220.82"/>
</a>
</g>
</g>
<!-- Node10 -->
<g id="Node000010" class="node">
<title>Node10</title>
<g id="a_Node000010"><a xlink:href="classcxxopts_1_1OptionDetails.html#a3e5d1e478cc4a241d710f9ab792fcafb" target="_top" xlink:title=" ">
<polygon fill="white" stroke="#666666" points="468,-205 341,-205 341,-175 468,-175 468,-205"/>
<text text-anchor="start" x="349" y="-193" font-family="Helvetica,sans-Serif" font-size="10.00">cxxopts::OptionDetails</text>
<text text-anchor="middle" x="404.5" y="-182" font-family="Helvetica,sans-Serif" font-size="10.00">::hash</text>
</a>
</g>
</g>
<!-- Node1&#45;&gt;Node10 -->
<g id="edge11_Node000001_Node000010" class="edge">
<title>Node1&#45;&gt;Node10</title>
<g id="a_edge11_Node000001_Node000010"><a xlink:title=" ">
<path fill="none" stroke="#63b8ff" d="M85.4,-140C104.22,-151.23 131.75,-165.84 158,-173 214.56,-188.44 281.04,-192.21 330.54,-192.38"/>
<polygon fill="#63b8ff" stroke="#63b8ff" points="330.84,-195.88 340.83,-192.37 330.83,-188.88 330.84,-195.88"/>
</a>
</g>
</g>
<!-- Node11 -->
<g id="Node000011" class="node">
<title>Node11</title>
<g id="a_Node000011"><a xlink:href="classcxxopts_1_1OptionValue.html#a9d8fc19cfc051a4d1d435c424deb6b49" target="_top" xlink:title=" ">
<polygon fill="white" stroke="#666666" points="287,-164 168,-164 168,-134 287,-134 287,-164"/>
<text text-anchor="start" x="176" y="-152" font-family="Helvetica,sans-Serif" font-size="10.00">cxxopts::OptionValue</text>
<text text-anchor="middle" x="227.5" y="-141" font-family="Helvetica,sans-Serif" font-size="10.00">::count</text>
</a>
</g>
</g>
<!-- Node1&#45;&gt;Node11 -->
<g id="edge10_Node000001_Node000011" class="edge">
<title>Node1&#45;&gt;Node11</title>
<g id="a_edge10_Node000001_Node000011"><a xlink:title=" ">
<path fill="none" stroke="#63b8ff" d="M122.32,-133.8C133.81,-135.48 145.91,-137.24 157.65,-138.95"/>
<polygon fill="#63b8ff" stroke="#63b8ff" points="157.43,-142.46 167.83,-140.44 158.44,-135.53 157.43,-142.46"/>
</a>
</g>
</g>
<!-- Node12 -->
<g id="Node000012" class="node">
<title>Node12</title>
<g id="a_Node000012"><a xlink:href="classcxxopts_1_1Value.html#a632f3263dd598e30999a6bcff0652132" target="_top" xlink:title=" ">
<polygon fill="white" stroke="#666666" points="278,-116 177,-116 177,-86 278,-86 278,-116"/>
<text text-anchor="start" x="185" y="-104" font-family="Helvetica,sans-Serif" font-size="10.00">cxxopts::Value::is</text>
<text text-anchor="middle" x="227.5" y="-93" font-family="Helvetica,sans-Serif" font-size="10.00">_container</text>
</a>
</g>
</g>
<!-- Node1&#45;&gt;Node12 -->
<g id="edge12_Node000001_Node000012" class="edge">
<title>Node1&#45;&gt;Node12</title>
<g id="a_edge12_Node000001_Node000012"><a xlink:title=" ">
<path fill="none" stroke="#63b8ff" d="M122.32,-116.2C136.78,-114.09 152.22,-111.84 166.66,-109.73"/>
<polygon fill="#63b8ff" stroke="#63b8ff" points="167.58,-113.13 176.97,-108.23 166.57,-106.21 167.58,-113.13"/>
</a>
</g>
</g>
<!-- Node13 -->
<g id="Node000013" class="node">
<title>Node13</title>
<g id="a_Node000013"><a xlink:href="namespacecxxopts.html#a466f47408560fa08e43bf48ec2366b22" target="_top" xlink:title=" ">
<polygon fill="white" stroke="#666666" points="297,-67.5 158,-67.5 158,-48.5 297,-48.5 297,-67.5"/>
<text text-anchor="middle" x="227.5" y="-55.5" font-family="Helvetica,sans-Serif" font-size="10.00">cxxopts::throw_or_mimic</text>
</a>
</g>
</g>
<!-- Node1&#45;&gt;Node13 -->
<g id="edge13_Node000001_Node000013" class="edge">
<title>Node1&#45;&gt;Node13</title>
<g id="a_edge13_Node000001_Node000013"><a xlink:title=" ">
<path fill="none" stroke="#63b8ff" d="M88.68,-109.91C107.6,-99.65 133.82,-86.3 158,-77 164.05,-74.67 170.5,-72.5 176.93,-70.52"/>
<polygon fill="#63b8ff" stroke="#63b8ff" points="178.35,-73.75 186.95,-67.57 176.37,-67.04 178.35,-73.75"/>
</a>
</g>
</g>
<!-- Node14 -->
<g id="Node000014" class="node">
<title>Node14</title>
<g id="a_Node000014"><a xlink:href="classcxxopts_1_1OptionDetails.html#a3f90596c7b7634449a51370f211163a8" target="_top" xlink:title=" ">
<polygon fill="white" stroke="#666666" points="291,-30 164,-30 164,0 291,0 291,-30"/>
<text text-anchor="start" x="172" y="-18" font-family="Helvetica,sans-Serif" font-size="10.00">cxxopts::OptionDetails</text>
<text text-anchor="middle" x="227.5" y="-7" font-family="Helvetica,sans-Serif" font-size="10.00">::value</text>
</a>
</g>
</g>
<!-- Node1&#45;&gt;Node14 -->
<g id="edge14_Node000001_Node000014" class="edge">
<title>Node1&#45;&gt;Node14</title>
<g id="a_edge14_Node000001_Node000014"><a xlink:title=" ">
<path fill="none" stroke="#63b8ff" d="M75.22,-109.95C92.55,-91.05 124.67,-58.69 158,-39 160.82,-37.33 163.77,-35.76 166.81,-34.27"/>
<polygon fill="#63b8ff" stroke="#63b8ff" points="168.41,-37.39 176.08,-30.08 165.52,-31.01 168.41,-37.39"/>
</a>
</g>
</g>
<!-- Node3 -->
<g id="Node000003" class="node">
<title>Node3</title>
<g id="a_Node000003"><a xlink:href="classcxxopts_1_1OptionValue.html#aeec2951c8666eb4f7f562cf526fb656b" target="_top" xlink:title=" ">
<polygon fill="white" stroke="#666666" points="476,-290.5 333,-290.5 333,-271.5 476,-271.5 476,-290.5"/>
<text text-anchor="middle" x="404.5" y="-278.5" font-family="Helvetica,sans-Serif" font-size="10.00">cxxopts::OptionValue::add</text>
</a>
</g>
</g>
<!-- Node2&#45;&gt;Node3 -->
<g id="edge2_Node000002_Node000003" class="edge">
<title>Node2&#45;&gt;Node3</title>
<g id="a_edge2_Node000002_Node000003"><a xlink:title=" ">
<path fill="none" stroke="#63b8ff" d="M288.24,-252.02C310.27,-257.56 334.93,-263.76 355.77,-269"/>
<polygon fill="#63b8ff" stroke="#63b8ff" points="355.11,-272.44 365.67,-271.49 356.82,-265.65 355.11,-272.44"/>
</a>
</g>
</g>
<!-- Node9 -->
<g id="Node000009" class="node">
<title>Node9</title>
<g id="a_Node000009"><a xlink:href="classcxxopts_1_1OptionDetails.html#a02b918ea1873a2716cfd5ad909be3034" target="_top" xlink:title=" ">
<polygon fill="white" stroke="#666666" points="468,-253 341,-253 341,-223 468,-223 468,-253"/>
<text text-anchor="start" x="349" y="-241" font-family="Helvetica,sans-Serif" font-size="10.00">cxxopts::OptionDetails</text>
<text text-anchor="middle" x="404.5" y="-230" font-family="Helvetica,sans-Serif" font-size="10.00">::essential_name</text>
</a>
</g>
</g>
<!-- Node2&#45;&gt;Node9 -->
<g id="edge8_Node000002_Node000009" class="edge">
<title>Node2&#45;&gt;Node9</title>
<g id="a_edge8_Node000002_Node000009"><a xlink:title=" ">
<path fill="none" stroke="#63b8ff" d="M288.73,-237.34C302.25,-237.42 316.74,-237.5 330.72,-237.58"/>
<polygon fill="#63b8ff" stroke="#63b8ff" points="330.76,-241.08 340.78,-237.64 330.8,-234.08 330.76,-241.08"/>
</a>
</g>
</g>
<!-- Node2&#45;&gt;Node10 -->
<g id="edge9_Node000002_Node000010" class="edge">
<title>Node2&#45;&gt;Node10</title>
<g id="a_edge9_Node000002_Node000010"><a xlink:title=" ">
<path fill="none" stroke="#63b8ff" d="M284.35,-222C301.24,-217.46 319.95,-212.44 337.44,-207.74"/>
<polygon fill="#63b8ff" stroke="#63b8ff" points="338.83,-210.99 347.58,-205.02 337.01,-204.23 338.83,-210.99"/>
</a>
</g>
</g>
<!-- Node4 -->
<g id="Node000004" class="node">
<title>Node4</title>
<g id="a_Node000004"><a xlink:href="classcxxopts_1_1Value.html#ac7298b94e9168291835c18dab0b11799" target="_top" xlink:title=" ">
<polygon fill="white" stroke="#666666" points="631,-333.5 520,-333.5 520,-314.5 631,-314.5 631,-333.5"/>
<text text-anchor="middle" x="575.5" y="-321.5" font-family="Helvetica,sans-Serif" font-size="10.00">cxxopts::Value::add</text>
</a>
</g>
</g>
<!-- Node3&#45;&gt;Node4 -->
<g id="edge3_Node000003_Node000004" class="edge">
<title>Node3&#45;&gt;Node4</title>
<g id="a_edge3_Node000003_Node000004"><a xlink:title=" ">
<path fill="none" stroke="#63b8ff" d="M443.01,-290.54C467.84,-296.86 500.61,-305.2 527.23,-311.97"/>
<polygon fill="#63b8ff" stroke="#63b8ff" points="526.54,-315.41 537.1,-314.48 528.27,-308.63 526.54,-315.41"/>
</a>
</g>
</g>
<!-- Node5 -->
<g id="Node000005" class="node">
<title>Node5</title>
<g id="a_Node000005"><a xlink:href="classcxxopts_1_1OptionValue.html#a5e62e7e64679e627ba8946c36a559f2a" target="_top" xlink:title=" ">
<polygon fill="white" stroke="#666666" points="635,-296 516,-296 516,-266 635,-266 635,-296"/>
<text text-anchor="start" x="524" y="-284" font-family="Helvetica,sans-Serif" font-size="10.00">cxxopts::OptionValue</text>
<text text-anchor="middle" x="575.5" y="-273" font-family="Helvetica,sans-Serif" font-size="10.00">::ensure_value</text>
</a>
</g>
</g>
<!-- Node3&#45;&gt;Node5 -->
<g id="edge4_Node000003_Node000005" class="edge">
<title>Node3&#45;&gt;Node5</title>
<g id="a_edge4_Node000003_Node000005"><a xlink:title=" ">
<path fill="none" stroke="#63b8ff" d="M476.19,-281C485.99,-281 496.05,-281 505.81,-281"/>
<polygon fill="#63b8ff" stroke="#63b8ff" points="505.86,-284.5 515.86,-281 505.86,-277.5 505.86,-284.5"/>
</a>
</g>
</g>
<!-- Node8 -->
<g id="Node000008" class="node">
<title>Node8</title>
<g id="a_Node000008"><a xlink:href="classcxxopts_1_1OptionDetails.html#a1b61b4570ee040ce1b9fc6e358e08b2d" target="_top" xlink:title=" ">
<polygon fill="white" stroke="#666666" points="639,-248 512,-248 512,-218 639,-218 639,-248"/>
<text text-anchor="start" x="520" y="-236" font-family="Helvetica,sans-Serif" font-size="10.00">cxxopts::OptionDetails</text>
<text text-anchor="middle" x="575.5" y="-225" font-family="Helvetica,sans-Serif" font-size="10.00">::long_names</text>
</a>
</g>
</g>
<!-- Node3&#45;&gt;Node8 -->
<g id="edge7_Node000003_Node000008" class="edge">
<title>Node3&#45;&gt;Node8</title>
<g id="a_edge7_Node000003_Node000008"><a xlink:title=" ">
<path fill="none" stroke="#63b8ff" d="M441.41,-271.49C452.51,-268.51 464.78,-265.16 476,-262 488.39,-258.51 501.62,-254.68 514.24,-250.98"/>
<polygon fill="#63b8ff" stroke="#63b8ff" points="515.6,-254.23 524.2,-248.05 513.62,-247.51 515.6,-254.23"/>
</a>
</g>
</g>
<!-- Node6 -->
<g id="Node000006" class="node">
<title>Node6</title>
<g id="a_Node000006"><a xlink:href="classcxxopts_1_1OptionDetails.html#a3ff160262711ae6eebb41649491e75e6" target="_top" xlink:title=" ">
<polygon fill="white" stroke="#666666" points="802,-296 675,-296 675,-266 802,-266 802,-296"/>
<text text-anchor="start" x="683" y="-284" font-family="Helvetica,sans-Serif" font-size="10.00">cxxopts::OptionDetails</text>
<text text-anchor="middle" x="738.5" y="-273" font-family="Helvetica,sans-Serif" font-size="10.00">::make_storage</text>
</a>
</g>
</g>
<!-- Node5&#45;&gt;Node6 -->
<g id="edge5_Node000005_Node000006" class="edge">
<title>Node5&#45;&gt;Node6</title>
<g id="a_edge5_Node000005_Node000006"><a xlink:title=" ">
<path fill="none" stroke="#63b8ff" d="M635.08,-281C644.69,-281 654.75,-281 664.65,-281"/>
<polygon fill="#63b8ff" stroke="#63b8ff" points="664.89,-284.5 674.89,-281 664.89,-277.5 664.89,-284.5"/>
</a>
</g>
</g>
<!-- Node7 -->
<g id="Node000007" class="node">
<title>Node7</title>
<g id="a_Node000007"><a xlink:href="classcxxopts_1_1Value.html#a17916d6a48e57c999c2dc23fa6b22539" target="_top" xlink:title=" ">
<polygon fill="white" stroke="#666666" points="957,-290.5 838,-290.5 838,-271.5 957,-271.5 957,-290.5"/>
<text text-anchor="middle" x="897.5" y="-278.5" font-family="Helvetica,sans-Serif" font-size="10.00">cxxopts::Value::clone</text>
</a>
</g>
</g>
<!-- Node6&#45;&gt;Node7 -->
<g id="edge6_Node000006_Node000007" class="edge">
<title>Node6&#45;&gt;Node7</title>
<g id="a_edge6_Node000006_Node000007"><a xlink:title=" ">
<path fill="none" stroke="#63b8ff" d="M802,-281C810.39,-281 819.04,-281 827.53,-281"/>
<polygon fill="#63b8ff" stroke="#63b8ff" points="827.79,-284.5 837.79,-281 827.79,-277.5 827.79,-284.5"/>
</a>
</g>
</g>
</g>
</svg>
