<?xml version="1.0" encoding="UTF-8" standalone="no"?>
<!DOCTYPE svg PUBLIC "-//W3C//DTD SVG 1.1//EN"
 "http://www.w3.org/Graphics/SVG/1.1/DTD/svg11.dtd">
<!-- Generated by graphviz version 2.43.0 (0)
 -->
<!-- Title: SX1268 Pages: 1 -->
<svg width="92pt" height="137pt"
 viewBox="0.00 0.00 92.00 137.00" xmlns="http://www.w3.org/2000/svg" xmlns:xlink="http://www.w3.org/1999/xlink">
<g id="graph0" class="graph" transform="scale(1 1) rotate(0) translate(4 133)">
<title>SX1268</title>
<!-- Node1 -->
<g id="Node000001" class="node">
<title>Node1</title>
<g id="a_Node000001"><a xlink:title="Derived class for SX1268 modules.">
<polygon fill="#999999" stroke="#666666" points="68.5,-19 15.5,-19 15.5,0 68.5,0 68.5,-19"/>
<text text-anchor="middle" x="42" y="-7" font-family="Helvetica,sans-Serif" font-size="10.00">SX1268</text>
</a>
</g>
</g>
<!-- Node2 -->
<g id="Node000002" class="node">
<title>Node2</title>
<g id="a_Node000002"><a xlink:href="classSX126x.html" target="_top" xlink:title="Base class for SX126x series. All derived classes for SX126x (e.g. SX1262 or SX1268) inherit from thi...">
<polygon fill="white" stroke="#666666" points="68.5,-74 15.5,-74 15.5,-55 68.5,-55 68.5,-74"/>
<text text-anchor="middle" x="42" y="-62" font-family="Helvetica,sans-Serif" font-size="10.00">SX126x</text>
</a>
</g>
</g>
<!-- Node2&#45;&gt;Node1 -->
<g id="edge1_Node000001_Node000002" class="edge">
<title>Node2&#45;&gt;Node1</title>
<g id="a_edge1_Node000001_Node000002"><a xlink:title=" ">
<path fill="none" stroke="#63b8ff" d="M42,-44.66C42,-35.93 42,-25.99 42,-19.09"/>
<polygon fill="#63b8ff" stroke="#63b8ff" points="38.5,-44.75 42,-54.75 45.5,-44.75 38.5,-44.75"/>
</a>
</g>
</g>
<!-- Node3 -->
<g id="Node000003" class="node">
<title>Node3</title>
<g id="a_Node000003"><a xlink:href="classPhysicalLayer.html" target="_top" xlink:title="Provides common interface for protocols that run on LoRa/FSK modules, such as RTTY or LoRaWAN....">
<polygon fill="white" stroke="#666666" points="84,-129 0,-129 0,-110 84,-110 84,-129"/>
<text text-anchor="middle" x="42" y="-117" font-family="Helvetica,sans-Serif" font-size="10.00">PhysicalLayer</text>
</a>
</g>
</g>
<!-- Node3&#45;&gt;Node2 -->
<g id="edge2_Node000002_Node000003" class="edge">
<title>Node3&#45;&gt;Node2</title>
<g id="a_edge2_Node000002_Node000003"><a xlink:title=" ">
<path fill="none" stroke="#63b8ff" d="M42,-99.66C42,-90.93 42,-80.99 42,-74.09"/>
<polygon fill="#63b8ff" stroke="#63b8ff" points="38.5,-99.75 42,-109.75 45.5,-99.75 38.5,-99.75"/>
</a>
</g>
</g>
</g>
</svg>
