<?xml version="1.0" encoding="UTF-8" standalone="no"?>
<!DOCTYPE svg PUBLIC "-//W3C//DTD SVG 1.1//EN"
 "http://www.w3.org/Graphics/SVG/1.1/DTD/svg11.dtd">
<!-- Generated by graphviz version 2.43.0 (0)
 -->
<!-- Title: Si4432 Pages: 1 -->
<svg width="267pt" height="215pt"
 viewBox="0.00 0.00 266.50 215.00" xmlns="http://www.w3.org/2000/svg" xmlns:xlink="http://www.w3.org/1999/xlink">
<g id="graph0" class="graph" transform="scale(1 1) rotate(0) translate(4 211)">
<title>Si4432</title>
<!-- Node1 -->
<g id="Node000001" class="node">
<title>Node1</title>
<g id="a_Node000001"><a xlink:title="Derived class for Si4432 modules.">
<polygon fill="#999999" stroke="#666666" points="83,-19 33,-19 33,0 83,0 83,-19"/>
<text text-anchor="middle" x="58" y="-7" font-family="Helvetica,sans-Serif" font-size="10.00">Si4432</text>
</a>
</g>
</g>
<!-- Node2 -->
<g id="Node000002" class="node">
<title>Node2</title>
<g id="a_Node000002"><a xlink:href="classSi443x.html" target="_top" xlink:title="Base class for Si443x series. All derived classes for Si443x (e.g. Si4431 or Si4432) inherit from thi...">
<polygon fill="white" stroke="#666666" points="83,-75 33,-75 33,-56 83,-56 83,-75"/>
<text text-anchor="middle" x="58" y="-63" font-family="Helvetica,sans-Serif" font-size="10.00">Si443x</text>
</a>
</g>
</g>
<!-- Node2&#45;&gt;Node1 -->
<g id="edge1_Node000001_Node000002" class="edge">
<title>Node2&#45;&gt;Node1</title>
<g id="a_edge1_Node000001_Node000002"><a xlink:title=" ">
<path fill="none" stroke="#63b8ff" d="M58,-45.3C58,-36.41 58,-26.28 58,-19.25"/>
<polygon fill="#63b8ff" stroke="#63b8ff" points="54.5,-45.58 58,-55.58 61.5,-45.58 54.5,-45.58"/>
</a>
</g>
</g>
<!-- Node3 -->
<g id="Node000003" class="node">
<title>Node3</title>
<g id="a_Node000003"><a xlink:href="classPhysicalLayer.html" target="_top" xlink:title="Provides common interface for protocols that run on LoRa/FSK modules, such as RTTY or LoRaWAN....">
<polygon fill="white" stroke="#666666" points="84,-141 0,-141 0,-122 84,-122 84,-141"/>
<text text-anchor="middle" x="42" y="-129" font-family="Helvetica,sans-Serif" font-size="10.00">PhysicalLayer</text>
</a>
</g>
</g>
<!-- Node3&#45;&gt;Node2 -->
<g id="edge2_Node000002_Node000003" class="edge">
<title>Node3&#45;&gt;Node2</title>
<g id="a_edge2_Node000002_Node000003"><a xlink:title=" ">
<path fill="none" stroke="#63b8ff" d="M46.64,-111.95C49.64,-99.93 53.42,-84.82 55.77,-75.41"/>
<polygon fill="#63b8ff" stroke="#63b8ff" points="43.19,-111.32 44.16,-121.87 49.98,-113.02 43.19,-111.32"/>
</a>
</g>
</g>
<!-- Node4 -->
<g id="Node000004" class="node">
<title>Node4</title>
<g id="a_Node000004"><a xlink:href="classModule.html" target="_top" xlink:title="Implements all common low&#45;level methods to control the wireless module. Every module class contains o...">
<polygon fill="white" stroke="#666666" points="154.5,-141 101.5,-141 101.5,-122 154.5,-122 154.5,-141"/>
<text text-anchor="middle" x="128" y="-129" font-family="Helvetica,sans-Serif" font-size="10.00">Module</text>
</a>
</g>
</g>
<!-- Node4&#45;&gt;Node2 -->
<g id="edge3_Node000002_Node000004" class="edge">
<title>Node4&#45;&gt;Node2</title>
<g id="a_edge3_Node000002_Node000004"><a xlink:title=" ">
<path fill="none" stroke="#9a32cd" stroke-dasharray="5,2" d="M106.12,-116.08C100.98,-112.36 95.65,-108.21 91,-104 80.97,-94.92 70.91,-82.98 64.58,-75.04"/>
<polygon fill="#9a32cd" stroke="#9a32cd" points="104.22,-119.02 114.43,-121.87 108.23,-113.28 104.22,-119.02"/>
</a>
</g>
<text text-anchor="middle" x="103.5" y="-96" font-family="Helvetica,sans-Serif" font-size="10.00" fill="grey"> mod</text>
</g>
<!-- Node6 -->
<g id="Node000006" class="node">
<title>Node6</title>
<g id="a_Node000006"><a xlink:href="structModule_1_1SPIConfig__t.html" target="_top" xlink:title="SPI configuration structure.">
<polygon fill="white" stroke="#666666" points="247.5,-75 134.5,-75 134.5,-56 247.5,-56 247.5,-75"/>
<text text-anchor="middle" x="191" y="-63" font-family="Helvetica,sans-Serif" font-size="10.00">Module::SPIConfig_t</text>
</a>
</g>
</g>
<!-- Node4&#45;&gt;Node6 -->
<g id="edge6_Node000006_Node000004" class="edge">
<title>Node4&#45;&gt;Node6</title>
<g id="a_edge6_Node000006_Node000004"><a xlink:title=" ">
<path fill="none" stroke="#9a32cd" stroke-dasharray="5,2" d="M120.72,-112.44C119.25,-105.84 119.16,-98.62 123,-93 128.65,-84.74 137.29,-79.05 146.53,-75.14"/>
<polygon fill="#9a32cd" stroke="#9a32cd" points="117.39,-113.54 123.79,-121.99 124.05,-111.4 117.39,-113.54"/>
</a>
</g>
<text text-anchor="middle" x="161" y="-96" font-family="Helvetica,sans-Serif" font-size="10.00" fill="grey"> checkStatusCb</text>
</g>
<!-- Node5 -->
<g id="Node000005" class="node">
<title>Node5</title>
<g id="a_Node000005"><a xlink:href="classRadioLibHal.html" target="_top" xlink:title="Hardware abstraction library base interface.">
<polygon fill="white" stroke="#666666" points="103.5,-207 28.5,-207 28.5,-188 103.5,-188 103.5,-207"/>
<text text-anchor="middle" x="66" y="-195" font-family="Helvetica,sans-Serif" font-size="10.00">RadioLibHal</text>
</a>
</g>
</g>
<!-- Node5&#45;&gt;Node4 -->
<g id="edge4_Node000004_Node000005" class="edge">
<title>Node5&#45;&gt;Node4</title>
<g id="a_edge4_Node000004_Node000005"><a xlink:title=" ">
<path fill="none" stroke="#9a32cd" stroke-dasharray="5,2" d="M81.52,-180.48C93.49,-168.12 109.6,-151.49 119.37,-141.41"/>
<polygon fill="#9a32cd" stroke="#9a32cd" points="78.81,-178.25 74.36,-187.87 83.83,-183.12 78.81,-178.25"/>
</a>
</g>
<text text-anchor="middle" x="110.5" y="-162" font-family="Helvetica,sans-Serif" font-size="10.00" fill="grey"> hal</text>
</g>
<!-- Node6&#45;&gt;Node4 -->
<g id="edge5_Node000004_Node000006" class="edge">
<title>Node6&#45;&gt;Node4</title>
<g id="a_edge5_Node000004_Node000006"><a xlink:title=" ">
<path fill="none" stroke="#9a32cd" stroke-dasharray="5,2" d="M202.94,-84.17C205.87,-90.8 207.14,-98.15 203,-104 192.16,-119.33 171.67,-125.85 154.84,-128.6"/>
<polygon fill="#9a32cd" stroke="#9a32cd" points="205.85,-82.2 197.88,-75.21 199.75,-85.64 205.85,-82.2"/>
</a>
</g>
<text text-anchor="middle" x="229.5" y="-96" font-family="Helvetica,sans-Serif" font-size="10.00" fill="grey"> spiConfig</text>
</g>
<!-- Node7 -->
<g id="Node000007" class="node">
<title>Node7</title>
<g id="a_Node000007"><a xlink:href="structModule_1_1RfSwitchMode__t.html" target="_top" xlink:title="Description of RF switch pin states for a single mode. See setRfSwitchTable for details.">
<polygon fill="white" stroke="#666666" points="258.5,-207 121.5,-207 121.5,-188 258.5,-188 258.5,-207"/>
<text text-anchor="middle" x="190" y="-195" font-family="Helvetica,sans-Serif" font-size="10.00">Module::RfSwitchMode_t</text>
</a>
</g>
</g>
<!-- Node7&#45;&gt;Node4 -->
<g id="edge7_Node000004_Node000007" class="edge">
<title>Node7&#45;&gt;Node4</title>
<g id="a_edge7_Node000004_Node000007"><a xlink:title=" ">
<path fill="none" stroke="#9a32cd" stroke-dasharray="5,2" d="M174.48,-180.48C162.51,-168.12 146.4,-151.49 136.63,-141.41"/>
<polygon fill="#9a32cd" stroke="#9a32cd" points="172.17,-183.12 181.64,-187.87 177.19,-178.25 172.17,-183.12"/>
</a>
</g>
<text text-anchor="middle" x="196.5" y="-162" font-family="Helvetica,sans-Serif" font-size="10.00" fill="grey"> rfSwitchTable</text>
</g>
</g>
</svg>
