<?xml version="1.0" encoding="UTF-8" standalone="no"?>
<!DOCTYPE svg PUBLIC "-//W3C//DTD SVG 1.1//EN"
 "http://www.w3.org/Graphics/SVG/1.1/DTD/svg11.dtd">
<!-- Generated by graphviz version 2.43.0 (0)
 -->
<!-- Title: cxxopts::ParseResult::Iterator::Iterator Pages: 1 -->
<svg width="302pt" height="76pt"
 viewBox="0.00 0.00 302.00 75.50" xmlns="http://www.w3.org/2000/svg" xmlns:xlink="http://www.w3.org/1999/xlink">
<g id="graph0" class="graph" transform="scale(1 1) rotate(0) translate(4 71.5)">
<title>cxxopts::ParseResult::Iterator::Iterator</title>
<!-- Node1 -->
<g id="Node000001" class="node">
<title>Node1</title>
<g id="a_Node000001"><a xlink:title=" ">
<polygon fill="#999999" stroke="#666666" points="294,-45.5 177,-45.5 177,-15.5 294,-15.5 294,-45.5"/>
<text text-anchor="start" x="185" y="-33.5" font-family="Helvetica,sans-Serif" font-size="10.00">cxxopts::ParseResult</text>
<text text-anchor="middle" x="235.5" y="-22.5" font-family="Helvetica,sans-Serif" font-size="10.00">::Iterator::Iterator</text>
</a>
</g>
</g>
<!-- Node2 -->
<g id="Node000002" class="node">
<title>Node2</title>
<g id="a_Node000002"><a xlink:href="classcxxopts_1_1ParseResult.html#a04bc1c49adacb8ded2d4f615a1b8bc82" target="_top" xlink:title=" ">
<polygon fill="white" stroke="#666666" points="129,-67.5 12,-67.5 12,-37.5 129,-37.5 129,-67.5"/>
<text text-anchor="start" x="20" y="-55.5" font-family="Helvetica,sans-Serif" font-size="10.00">cxxopts::ParseResult</text>
<text text-anchor="middle" x="70.5" y="-44.5" font-family="Helvetica,sans-Serif" font-size="10.00">::begin</text>
</a>
</g>
</g>
<!-- Node1&#45;&gt;Node2 -->
<g id="edge1_Node000001_Node000002" class="edge">
<title>Node1&#45;&gt;Node2</title>
<g id="a_edge1_Node000001_Node000002"><a xlink:title=" ">
<path fill="none" stroke="#63b8ff" d="M166.33,-39.7C154,-41.37 141.24,-43.09 129.24,-44.71"/>
<polygon fill="#63b8ff" stroke="#63b8ff" points="167.13,-43.12 176.57,-38.32 166.2,-36.19 167.13,-43.12"/>
</a>
</g>
</g>
<!-- Node3 -->
<g id="Node000003" class="node">
<title>Node3</title>
<g id="a_Node000003"><a xlink:href="classcxxopts_1_1ParseResult.html#a63ac972d67d59d5d6f2b6810ee1ad3c3" target="_top" xlink:title=" ">
<polygon fill="white" stroke="#666666" points="141,-19 0,-19 0,0 141,0 141,-19"/>
<text text-anchor="middle" x="70.5" y="-7" font-family="Helvetica,sans-Serif" font-size="10.00">cxxopts::ParseResult::end</text>
</a>
</g>
</g>
<!-- Node1&#45;&gt;Node3 -->
<g id="edge2_Node000001_Node000003" class="edge">
<title>Node1&#45;&gt;Node3</title>
<g id="a_edge2_Node000001_Node000003"><a xlink:title=" ">
<path fill="none" stroke="#63b8ff" d="M166.51,-21.74C158.16,-20.66 149.61,-19.56 141.24,-18.48"/>
<polygon fill="#63b8ff" stroke="#63b8ff" points="166.21,-25.23 176.57,-23.04 167.1,-18.29 166.21,-25.23"/>
</a>
</g>
</g>
</g>
</svg>
