<?xml version="1.0" encoding="UTF-8" standalone="no"?>
<!DOCTYPE svg PUBLIC "-//W3C//DTD SVG 1.1//EN"
 "http://www.w3.org/Graphics/SVG/1.1/DTD/svg11.dtd">
<!-- Generated by graphviz version 2.43.0 (0)
 -->
<!-- Title: PhysicalLayer Pages: 1 -->
<svg width="837pt" height="247pt"
 viewBox="0.00 0.00 836.50 247.00" xmlns="http://www.w3.org/2000/svg" xmlns:xlink="http://www.w3.org/1999/xlink">
<g id="graph0" class="graph" transform="scale(1 1) rotate(0) translate(4 243)">
<title>PhysicalLayer</title>
<!-- Node1 -->
<g id="Node000001" class="node">
<title>Node1</title>
<g id="a_Node000001"><a xlink:title="Provides common interface for protocols that run on LoRa/FSK modules, such as RTTY or LoRaWAN....">
<polygon fill="#999999" stroke="#666666" points="423.5,-239 339.5,-239 339.5,-220 423.5,-220 423.5,-239"/>
<text text-anchor="middle" x="381.5" y="-227" font-family="Helvetica,sans-Serif" font-size="10.00">PhysicalLayer</text>
</a>
</g>
</g>
<!-- Node2 -->
<g id="Node000002" class="node">
<title>Node2</title>
<g id="a_Node000002"><a xlink:href="classCC1101.html" target="_top" xlink:title="Control class for CC1101 module.">
<polygon fill="white" stroke="#666666" points="103.5,-184 49.5,-184 49.5,-165 103.5,-165 103.5,-184"/>
<text text-anchor="middle" x="76.5" y="-172" font-family="Helvetica,sans-Serif" font-size="10.00">CC1101</text>
</a>
</g>
</g>
<!-- Node1&#45;&gt;Node2 -->
<g id="edge1_Node000001_Node000002" class="edge">
<title>Node1&#45;&gt;Node2</title>
<g id="a_edge1_Node000001_Node000002"><a xlink:title=" ">
<path fill="none" stroke="#63b8ff" d="M329.32,-220.94C274.99,-212.82 187.5,-199.04 112.5,-184 109.6,-183.42 106.59,-182.77 103.58,-182.1"/>
<polygon fill="#63b8ff" stroke="#63b8ff" points="329,-224.43 339.4,-222.44 330.03,-217.51 329,-224.43"/>
</a>
</g>
</g>
<!-- Node3 -->
<g id="Node000003" class="node">
<title>Node3</title>
<g id="a_Node000003"><a xlink:href="classExternalRadio.html" target="_top" xlink:title="Class to interface with external radio hardware.">
<polygon fill="white" stroke="#666666" points="207,-184 122,-184 122,-165 207,-165 207,-184"/>
<text text-anchor="middle" x="164.5" y="-172" font-family="Helvetica,sans-Serif" font-size="10.00">ExternalRadio</text>
</a>
</g>
</g>
<!-- Node1&#45;&gt;Node3 -->
<g id="edge2_Node000001_Node000003" class="edge">
<title>Node1&#45;&gt;Node3</title>
<g id="a_edge2_Node000001_Node000003"><a xlink:title=" ">
<path fill="none" stroke="#63b8ff" d="M336.73,-217.56C296.08,-207.64 236.97,-193.2 199.64,-184.08"/>
<polygon fill="#63b8ff" stroke="#63b8ff" points="336.09,-221.01 346.64,-219.98 337.75,-214.21 336.09,-221.01"/>
</a>
</g>
</g>
<!-- Node4 -->
<g id="Node000004" class="node">
<title>Node4</title>
<g id="a_Node000004"><a xlink:href="classLRxxxx.html" target="_top" xlink:title=" ">
<polygon fill="white" stroke="#666666" points="278,-184 225,-184 225,-165 278,-165 278,-184"/>
<text text-anchor="middle" x="251.5" y="-172" font-family="Helvetica,sans-Serif" font-size="10.00">LRxxxx</text>
</a>
</g>
</g>
<!-- Node1&#45;&gt;Node4 -->
<g id="edge3_Node000001_Node000004" class="edge">
<title>Node1&#45;&gt;Node4</title>
<g id="a_edge3_Node000001_Node000004"><a xlink:title=" ">
<path fill="none" stroke="#63b8ff" d="M351.23,-216.16C327.16,-206.35 294.1,-192.87 272.77,-184.17"/>
<polygon fill="#63b8ff" stroke="#63b8ff" points="350.03,-219.45 360.61,-219.98 352.67,-212.97 350.03,-219.45"/>
</a>
</g>
</g>
<!-- Node10 -->
<g id="Node000010" class="node">
<title>Node10</title>
<g id="a_Node000010"><a xlink:href="classRF69.html" target="_top" xlink:title="Control class for RF69 module. Also serves as base class for SX1231.">
<polygon fill="white" stroke="#666666" points="337,-184 296,-184 296,-165 337,-165 337,-184"/>
<text text-anchor="middle" x="316.5" y="-172" font-family="Helvetica,sans-Serif" font-size="10.00">RF69</text>
</a>
</g>
</g>
<!-- Node1&#45;&gt;Node10 -->
<g id="edge9_Node000001_Node000010" class="edge">
<title>Node1&#45;&gt;Node10</title>
<g id="a_edge9_Node000001_Node000010"><a xlink:title=" ">
<path fill="none" stroke="#63b8ff" d="M363.23,-213.6C351.58,-204.11 336.9,-192.13 327.13,-184.17"/>
<polygon fill="#63b8ff" stroke="#63b8ff" points="361.09,-216.38 371.06,-219.98 365.52,-210.95 361.09,-216.38"/>
</a>
</g>
</g>
<!-- Node13 -->
<g id="Node000013" class="node">
<title>Node13</title>
<g id="a_Node000013"><a xlink:href="classSX126x.html" target="_top" xlink:title="Base class for SX126x series. All derived classes for SX126x (e.g. SX1262 or SX1268) inherit from thi...">
<polygon fill="white" stroke="#666666" points="408,-184 355,-184 355,-165 408,-165 408,-184"/>
<text text-anchor="middle" x="381.5" y="-172" font-family="Helvetica,sans-Serif" font-size="10.00">SX126x</text>
</a>
</g>
</g>
<!-- Node1&#45;&gt;Node13 -->
<g id="edge12_Node000001_Node000013" class="edge">
<title>Node1&#45;&gt;Node13</title>
<g id="a_edge12_Node000001_Node000013"><a xlink:title=" ">
<path fill="none" stroke="#63b8ff" d="M381.5,-209.66C381.5,-200.93 381.5,-190.99 381.5,-184.09"/>
<polygon fill="#63b8ff" stroke="#63b8ff" points="378,-209.75 381.5,-219.75 385,-209.75 378,-209.75"/>
</a>
</g>
</g>
<!-- Node18 -->
<g id="Node000018" class="node">
<title>Node18</title>
<g id="a_Node000018"><a xlink:href="classSX127x.html" target="_top" xlink:title="Base class for SX127x series. All derived classes for SX127x (e.g. SX1278 or SX1272) inherit from thi...">
<polygon fill="white" stroke="#666666" points="479,-184 426,-184 426,-165 479,-165 479,-184"/>
<text text-anchor="middle" x="452.5" y="-172" font-family="Helvetica,sans-Serif" font-size="10.00">SX127x</text>
</a>
</g>
</g>
<!-- Node1&#45;&gt;Node18 -->
<g id="edge17_Node000001_Node000018" class="edge">
<title>Node1&#45;&gt;Node18</title>
<g id="a_edge17_Node000001_Node000018"><a xlink:title=" ">
<path fill="none" stroke="#63b8ff" d="M401.09,-213.88C413.87,-204.34 430.11,-192.21 440.89,-184.17"/>
<polygon fill="#63b8ff" stroke="#63b8ff" points="398.83,-211.2 392.91,-219.98 403.01,-216.81 398.83,-211.2"/>
</a>
</g>
</g>
<!-- Node25 -->
<g id="Node000025" class="node">
<title>Node25</title>
<g id="a_Node000025"><a xlink:href="classSX128x.html" target="_top" xlink:title="Base class for SX128x series. All derived classes for SX128x (e.g. SX1280 or SX1281) inherit from thi...">
<polygon fill="white" stroke="#666666" points="550,-184 497,-184 497,-165 550,-165 550,-184"/>
<text text-anchor="middle" x="523.5" y="-172" font-family="Helvetica,sans-Serif" font-size="10.00">SX128x</text>
</a>
</g>
</g>
<!-- Node1&#45;&gt;Node25 -->
<g id="edge24_Node000001_Node000025" class="edge">
<title>Node1&#45;&gt;Node25</title>
<g id="a_edge24_Node000001_Node000025"><a xlink:title=" ">
<path fill="none" stroke="#63b8ff" d="M413.86,-216.42C440.21,-206.59 476.76,-192.95 500.27,-184.17"/>
<polygon fill="#63b8ff" stroke="#63b8ff" points="412.46,-213.21 404.31,-219.98 414.91,-219.77 412.46,-213.21"/>
</a>
</g>
</g>
<!-- Node29 -->
<g id="Node000029" class="node">
<title>Node29</title>
<g id="a_Node000029"><a xlink:href="classSi443x.html" target="_top" xlink:title="Base class for Si443x series. All derived classes for Si443x (e.g. Si4431 or Si4432) inherit from thi...">
<polygon fill="white" stroke="#666666" points="618.5,-184 568.5,-184 568.5,-165 618.5,-165 618.5,-184"/>
<text text-anchor="middle" x="593.5" y="-172" font-family="Helvetica,sans-Serif" font-size="10.00">Si443x</text>
</a>
</g>
</g>
<!-- Node1&#45;&gt;Node29 -->
<g id="edge28_Node000001_Node000029" class="edge">
<title>Node1&#45;&gt;Node29</title>
<g id="a_edge28_Node000001_Node000029"><a xlink:title=" ">
<path fill="none" stroke="#63b8ff" d="M425.54,-217.49C468.82,-206.67 533.34,-190.54 568.48,-181.75"/>
<polygon fill="#63b8ff" stroke="#63b8ff" points="424.41,-214.16 415.56,-219.98 426.11,-220.95 424.41,-214.16"/>
</a>
</g>
</g>
<!-- Node33 -->
<g id="Node000033" class="node">
<title>Node33</title>
<g id="a_Node000033"><a xlink:href="classnRF24.html" target="_top" xlink:title="Control class for nRF24 module.">
<polygon fill="white" stroke="#666666" points="684,-184 637,-184 637,-165 684,-165 684,-184"/>
<text text-anchor="middle" x="660.5" y="-172" font-family="Helvetica,sans-Serif" font-size="10.00">nRF24</text>
</a>
</g>
</g>
<!-- Node1&#45;&gt;Node33 -->
<g id="edge32_Node000001_Node000033" class="edge">
<title>Node1&#45;&gt;Node33</title>
<g id="a_edge32_Node000001_Node000033"><a xlink:title=" ">
<path fill="none" stroke="#63b8ff" d="M433.83,-220.17C483.78,-211.96 561.06,-198.55 627.5,-184 630.51,-183.34 633.65,-182.6 636.76,-181.84"/>
<polygon fill="#63b8ff" stroke="#63b8ff" points="433.21,-216.73 423.91,-221.8 434.34,-223.64 433.21,-216.73"/>
</a>
</g>
</g>
<!-- Node5 -->
<g id="Node000005" class="node">
<title>Node5</title>
<g id="a_Node000005"><a xlink:href="classLR11x0.html" target="_top" xlink:title="Base class for LR11x0 series. All derived classes for LR11x0 (e.g. LR1110 or LR1120) inherit from thi...">
<polygon fill="white" stroke="#666666" points="124,-129 71,-129 71,-110 124,-110 124,-129"/>
<text text-anchor="middle" x="97.5" y="-117" font-family="Helvetica,sans-Serif" font-size="10.00">LR11x0</text>
</a>
</g>
</g>
<!-- Node4&#45;&gt;Node5 -->
<g id="edge4_Node000004_Node000005" class="edge">
<title>Node4&#45;&gt;Node5</title>
<g id="a_edge4_Node000004_Node000005"><a xlink:title=" ">
<path fill="none" stroke="#63b8ff" d="M217.12,-161.67C188.41,-151.79 148.14,-137.93 122.44,-129.08"/>
<polygon fill="#63b8ff" stroke="#63b8ff" points="216.16,-165.04 226.76,-164.98 218.44,-158.42 216.16,-165.04"/>
</a>
</g>
</g>
<!-- Node9 -->
<g id="Node000009" class="node">
<title>Node9</title>
<g id="a_Node000009"><a xlink:href="classLR2021.html" target="_top" xlink:title=" ">
<polygon fill="white" stroke="#666666" points="195,-129 142,-129 142,-110 195,-110 195,-129"/>
<text text-anchor="middle" x="168.5" y="-117" font-family="Helvetica,sans-Serif" font-size="10.00">LR2021</text>
</a>
</g>
</g>
<!-- Node4&#45;&gt;Node9 -->
<g id="edge8_Node000004_Node000009" class="edge">
<title>Node4&#45;&gt;Node9</title>
<g id="a_edge8_Node000004_Node000009"><a xlink:title=" ">
<path fill="none" stroke="#63b8ff" d="M229.46,-159.42C214.39,-149.81 194.91,-137.37 182.08,-129.17"/>
<polygon fill="#63b8ff" stroke="#63b8ff" points="227.85,-162.55 238.16,-164.98 231.62,-156.65 227.85,-162.55"/>
</a>
</g>
</g>
<!-- Node6 -->
<g id="Node000006" class="node">
<title>Node6</title>
<g id="a_Node000006"><a xlink:href="classLR1110.html" target="_top" xlink:title="Derived class for LR1110 modules.">
<polygon fill="white" stroke="#666666" points="53,-74 0,-74 0,-55 53,-55 53,-74"/>
<text text-anchor="middle" x="26.5" y="-62" font-family="Helvetica,sans-Serif" font-size="10.00">LR1110</text>
</a>
</g>
</g>
<!-- Node5&#45;&gt;Node6 -->
<g id="edge5_Node000005_Node000006" class="edge">
<title>Node5&#45;&gt;Node6</title>
<g id="a_edge5_Node000005_Node000006"><a xlink:title=" ">
<path fill="none" stroke="#63b8ff" d="M77.91,-103.88C65.13,-94.34 48.89,-82.21 38.11,-74.17"/>
<polygon fill="#63b8ff" stroke="#63b8ff" points="75.99,-106.81 86.09,-109.98 80.17,-101.2 75.99,-106.81"/>
</a>
</g>
</g>
<!-- Node7 -->
<g id="Node000007" class="node">
<title>Node7</title>
<g id="a_Node000007"><a xlink:href="classLR1120.html" target="_top" xlink:title="Derived class for LR1120 modules.">
<polygon fill="white" stroke="#666666" points="124,-74 71,-74 71,-55 124,-55 124,-74"/>
<text text-anchor="middle" x="97.5" y="-62" font-family="Helvetica,sans-Serif" font-size="10.00">LR1120</text>
</a>
</g>
</g>
<!-- Node5&#45;&gt;Node7 -->
<g id="edge6_Node000005_Node000007" class="edge">
<title>Node5&#45;&gt;Node7</title>
<g id="a_edge6_Node000005_Node000007"><a xlink:title=" ">
<path fill="none" stroke="#63b8ff" d="M97.5,-99.66C97.5,-90.93 97.5,-80.99 97.5,-74.09"/>
<polygon fill="#63b8ff" stroke="#63b8ff" points="94,-99.75 97.5,-109.75 101,-99.75 94,-99.75"/>
</a>
</g>
</g>
<!-- Node8 -->
<g id="Node000008" class="node">
<title>Node8</title>
<g id="a_Node000008"><a xlink:href="classLR1121.html" target="_top" xlink:title="Derived class for LR1121 modules.">
<polygon fill="white" stroke="#666666" points="124,-19 71,-19 71,0 124,0 124,-19"/>
<text text-anchor="middle" x="97.5" y="-7" font-family="Helvetica,sans-Serif" font-size="10.00">LR1121</text>
</a>
</g>
</g>
<!-- Node7&#45;&gt;Node8 -->
<g id="edge7_Node000007_Node000008" class="edge">
<title>Node7&#45;&gt;Node8</title>
<g id="a_edge7_Node000007_Node000008"><a xlink:title=" ">
<path fill="none" stroke="#63b8ff" d="M97.5,-44.66C97.5,-35.93 97.5,-25.99 97.5,-19.09"/>
<polygon fill="#63b8ff" stroke="#63b8ff" points="94,-44.75 97.5,-54.75 101,-44.75 94,-44.75"/>
</a>
</g>
</g>
<!-- Node11 -->
<g id="Node000011" class="node">
<title>Node11</title>
<g id="a_Node000011"><a xlink:href="classSX1231.html" target="_top" xlink:title="Control class for SX1231 module. Overrides some methods from RF69 due to different register values.">
<polygon fill="white" stroke="#666666" points="266,-129 213,-129 213,-110 266,-110 266,-129"/>
<text text-anchor="middle" x="239.5" y="-117" font-family="Helvetica,sans-Serif" font-size="10.00">SX1231</text>
</a>
</g>
</g>
<!-- Node10&#45;&gt;Node11 -->
<g id="edge10_Node000010_Node000011" class="edge">
<title>Node10&#45;&gt;Node11</title>
<g id="a_edge10_Node000010_Node000011"><a xlink:title=" ">
<path fill="none" stroke="#63b8ff" d="M295.65,-159.15C281.74,-149.57 263.89,-137.29 252.1,-129.17"/>
<polygon fill="#63b8ff" stroke="#63b8ff" points="293.91,-162.2 304.13,-164.98 297.88,-156.43 293.91,-162.2"/>
</a>
</g>
</g>
<!-- Node12 -->
<g id="Node000012" class="node">
<title>Node12</title>
<g id="a_Node000012"><a xlink:href="classSX1233.html" target="_top" xlink:title="Control class for SX1233 module. Overrides some methods from SX1231/RF69 due to different register va...">
<polygon fill="white" stroke="#666666" points="195,-74 142,-74 142,-55 195,-55 195,-74"/>
<text text-anchor="middle" x="168.5" y="-62" font-family="Helvetica,sans-Serif" font-size="10.00">SX1233</text>
</a>
</g>
</g>
<!-- Node11&#45;&gt;Node12 -->
<g id="edge11_Node000011_Node000012" class="edge">
<title>Node11&#45;&gt;Node12</title>
<g id="a_edge11_Node000011_Node000012"><a xlink:title=" ">
<path fill="none" stroke="#63b8ff" d="M219.91,-103.88C207.13,-94.34 190.89,-82.21 180.11,-74.17"/>
<polygon fill="#63b8ff" stroke="#63b8ff" points="217.99,-106.81 228.09,-109.98 222.17,-101.2 217.99,-106.81"/>
</a>
</g>
</g>
<!-- Node14 -->
<g id="Node000014" class="node">
<title>Node14</title>
<g id="a_Node000014"><a xlink:href="classSX1262.html" target="_top" xlink:title="Derived class for SX1262 modules.">
<polygon fill="white" stroke="#666666" points="337,-129 284,-129 284,-110 337,-110 337,-129"/>
<text text-anchor="middle" x="310.5" y="-117" font-family="Helvetica,sans-Serif" font-size="10.00">SX1262</text>
</a>
</g>
</g>
<!-- Node13&#45;&gt;Node14 -->
<g id="edge13_Node000013_Node000014" class="edge">
<title>Node13&#45;&gt;Node14</title>
<g id="a_edge13_Node000013_Node000014"><a xlink:title=" ">
<path fill="none" stroke="#63b8ff" d="M361.91,-158.88C349.13,-149.34 332.89,-137.21 322.11,-129.17"/>
<polygon fill="#63b8ff" stroke="#63b8ff" points="359.99,-161.81 370.09,-164.98 364.17,-156.2 359.99,-161.81"/>
</a>
</g>
</g>
<!-- Node17 -->
<g id="Node000017" class="node">
<title>Node17</title>
<g id="a_Node000017"><a xlink:href="classSX1268.html" target="_top" xlink:title="Derived class for SX1268 modules.">
<polygon fill="white" stroke="#666666" points="408,-129 355,-129 355,-110 408,-110 408,-129"/>
<text text-anchor="middle" x="381.5" y="-117" font-family="Helvetica,sans-Serif" font-size="10.00">SX1268</text>
</a>
</g>
</g>
<!-- Node13&#45;&gt;Node17 -->
<g id="edge16_Node000013_Node000017" class="edge">
<title>Node13&#45;&gt;Node17</title>
<g id="a_edge16_Node000013_Node000017"><a xlink:title=" ">
<path fill="none" stroke="#63b8ff" d="M381.5,-154.66C381.5,-145.93 381.5,-135.99 381.5,-129.09"/>
<polygon fill="#63b8ff" stroke="#63b8ff" points="378,-154.75 381.5,-164.75 385,-154.75 378,-154.75"/>
</a>
</g>
</g>
<!-- Node15 -->
<g id="Node000015" class="node">
<title>Node15</title>
<g id="a_Node000015"><a xlink:href="classLLCC68.html" target="_top" xlink:title="Derived class for LLCC68 modules.">
<polygon fill="white" stroke="#666666" points="266,-74 213,-74 213,-55 266,-55 266,-74"/>
<text text-anchor="middle" x="239.5" y="-62" font-family="Helvetica,sans-Serif" font-size="10.00">LLCC68</text>
</a>
</g>
</g>
<!-- Node14&#45;&gt;Node15 -->
<g id="edge14_Node000014_Node000015" class="edge">
<title>Node14&#45;&gt;Node15</title>
<g id="a_edge14_Node000014_Node000015"><a xlink:title=" ">
<path fill="none" stroke="#63b8ff" d="M290.91,-103.88C278.13,-94.34 261.89,-82.21 251.11,-74.17"/>
<polygon fill="#63b8ff" stroke="#63b8ff" points="288.99,-106.81 299.09,-109.98 293.17,-101.2 288.99,-106.81"/>
</a>
</g>
</g>
<!-- Node16 -->
<g id="Node000016" class="node">
<title>Node16</title>
<g id="a_Node000016"><a xlink:href="classSX1261.html" target="_top" xlink:title="Derived class for SX1261 modules.">
<polygon fill="white" stroke="#666666" points="337,-74 284,-74 284,-55 337,-55 337,-74"/>
<text text-anchor="middle" x="310.5" y="-62" font-family="Helvetica,sans-Serif" font-size="10.00">SX1261</text>
</a>
</g>
</g>
<!-- Node14&#45;&gt;Node16 -->
<g id="edge15_Node000014_Node000016" class="edge">
<title>Node14&#45;&gt;Node16</title>
<g id="a_edge15_Node000014_Node000016"><a xlink:title=" ">
<path fill="none" stroke="#63b8ff" d="M310.5,-99.66C310.5,-90.93 310.5,-80.99 310.5,-74.09"/>
<polygon fill="#63b8ff" stroke="#63b8ff" points="307,-99.75 310.5,-109.75 314,-99.75 307,-99.75"/>
</a>
</g>
</g>
<!-- Node19 -->
<g id="Node000019" class="node">
<title>Node19</title>
<g id="a_Node000019"><a xlink:href="classSX1272.html" target="_top" xlink:title="Derived class for SX1272 modules. Also used as base class for SX1273. Both modules use the same basic...">
<polygon fill="white" stroke="#666666" points="479,-129 426,-129 426,-110 479,-110 479,-129"/>
<text text-anchor="middle" x="452.5" y="-117" font-family="Helvetica,sans-Serif" font-size="10.00">SX1272</text>
</a>
</g>
</g>
<!-- Node18&#45;&gt;Node19 -->
<g id="edge18_Node000018_Node000019" class="edge">
<title>Node18&#45;&gt;Node19</title>
<g id="a_edge18_Node000018_Node000019"><a xlink:title=" ">
<path fill="none" stroke="#63b8ff" d="M452.5,-154.66C452.5,-145.93 452.5,-135.99 452.5,-129.09"/>
<polygon fill="#63b8ff" stroke="#63b8ff" points="449,-154.75 452.5,-164.75 456,-154.75 449,-154.75"/>
</a>
</g>
</g>
<!-- Node21 -->
<g id="Node000021" class="node">
<title>Node21</title>
<g id="a_Node000021"><a xlink:href="classSX1278.html" target="_top" xlink:title="Derived class for SX1278 modules. Also used as base class for SX1276, SX1277, SX1279,...">
<polygon fill="white" stroke="#666666" points="550,-129 497,-129 497,-110 550,-110 550,-129"/>
<text text-anchor="middle" x="523.5" y="-117" font-family="Helvetica,sans-Serif" font-size="10.00">SX1278</text>
</a>
</g>
</g>
<!-- Node18&#45;&gt;Node21 -->
<g id="edge20_Node000018_Node000021" class="edge">
<title>Node18&#45;&gt;Node21</title>
<g id="a_edge20_Node000018_Node000021"><a xlink:title=" ">
<path fill="none" stroke="#63b8ff" d="M472.09,-158.88C484.87,-149.34 501.11,-137.21 511.89,-129.17"/>
<polygon fill="#63b8ff" stroke="#63b8ff" points="469.83,-156.2 463.91,-164.98 474.01,-161.81 469.83,-156.2"/>
</a>
</g>
</g>
<!-- Node20 -->
<g id="Node000020" class="node">
<title>Node20</title>
<g id="a_Node000020"><a xlink:href="classSX1273.html" target="_top" xlink:title="Derived class for SX1273 modules. Overrides some methods from SX1272 due to different parameter range...">
<polygon fill="white" stroke="#666666" points="408,-74 355,-74 355,-55 408,-55 408,-74"/>
<text text-anchor="middle" x="381.5" y="-62" font-family="Helvetica,sans-Serif" font-size="10.00">SX1273</text>
</a>
</g>
</g>
<!-- Node19&#45;&gt;Node20 -->
<g id="edge19_Node000019_Node000020" class="edge">
<title>Node19&#45;&gt;Node20</title>
<g id="a_edge19_Node000019_Node000020"><a xlink:title=" ">
<path fill="none" stroke="#63b8ff" d="M432.91,-103.88C420.13,-94.34 403.89,-82.21 393.11,-74.17"/>
<polygon fill="#63b8ff" stroke="#63b8ff" points="430.99,-106.81 441.09,-109.98 435.17,-101.2 430.99,-106.81"/>
</a>
</g>
</g>
<!-- Node22 -->
<g id="Node000022" class="node">
<title>Node22</title>
<g id="a_Node000022"><a xlink:href="classSX1276.html" target="_top" xlink:title="Derived class for SX1276 modules. Overrides some methods from SX1278 due to different parameter range...">
<polygon fill="white" stroke="#666666" points="479,-74 426,-74 426,-55 479,-55 479,-74"/>
<text text-anchor="middle" x="452.5" y="-62" font-family="Helvetica,sans-Serif" font-size="10.00">SX1276</text>
</a>
</g>
</g>
<!-- Node21&#45;&gt;Node22 -->
<g id="edge21_Node000021_Node000022" class="edge">
<title>Node21&#45;&gt;Node22</title>
<g id="a_edge21_Node000021_Node000022"><a xlink:title=" ">
<path fill="none" stroke="#63b8ff" d="M503.91,-103.88C491.13,-94.34 474.89,-82.21 464.11,-74.17"/>
<polygon fill="#63b8ff" stroke="#63b8ff" points="501.99,-106.81 512.09,-109.98 506.17,-101.2 501.99,-106.81"/>
</a>
</g>
</g>
<!-- Node23 -->
<g id="Node000023" class="node">
<title>Node23</title>
<g id="a_Node000023"><a xlink:href="classSX1277.html" target="_top" xlink:title="Derived class for SX1277 modules. Overrides some methods from SX1278 due to different parameter range...">
<polygon fill="white" stroke="#666666" points="550,-74 497,-74 497,-55 550,-55 550,-74"/>
<text text-anchor="middle" x="523.5" y="-62" font-family="Helvetica,sans-Serif" font-size="10.00">SX1277</text>
</a>
</g>
</g>
<!-- Node21&#45;&gt;Node23 -->
<g id="edge22_Node000021_Node000023" class="edge">
<title>Node21&#45;&gt;Node23</title>
<g id="a_edge22_Node000021_Node000023"><a xlink:title=" ">
<path fill="none" stroke="#63b8ff" d="M523.5,-99.66C523.5,-90.93 523.5,-80.99 523.5,-74.09"/>
<polygon fill="#63b8ff" stroke="#63b8ff" points="520,-99.75 523.5,-109.75 527,-99.75 520,-99.75"/>
</a>
</g>
</g>
<!-- Node24 -->
<g id="Node000024" class="node">
<title>Node24</title>
<g id="a_Node000024"><a xlink:href="classSX1279.html" target="_top" xlink:title="Derived class for SX1279 modules. Overrides some methods from SX1278 due to different parameter range...">
<polygon fill="white" stroke="#666666" points="621,-74 568,-74 568,-55 621,-55 621,-74"/>
<text text-anchor="middle" x="594.5" y="-62" font-family="Helvetica,sans-Serif" font-size="10.00">SX1279</text>
</a>
</g>
</g>
<!-- Node21&#45;&gt;Node24 -->
<g id="edge23_Node000021_Node000024" class="edge">
<title>Node21&#45;&gt;Node24</title>
<g id="a_edge23_Node000021_Node000024"><a xlink:title=" ">
<path fill="none" stroke="#63b8ff" d="M543.09,-103.88C555.87,-94.34 572.11,-82.21 582.89,-74.17"/>
<polygon fill="#63b8ff" stroke="#63b8ff" points="540.83,-101.2 534.91,-109.98 545.01,-106.81 540.83,-101.2"/>
</a>
</g>
</g>
<!-- Node26 -->
<g id="Node000026" class="node">
<title>Node26</title>
<g id="a_Node000026"><a xlink:href="classSX1281.html" target="_top" xlink:title="Derived class for SX1281 modules.">
<polygon fill="white" stroke="#666666" points="657,-129 604,-129 604,-110 657,-110 657,-129"/>
<text text-anchor="middle" x="630.5" y="-117" font-family="Helvetica,sans-Serif" font-size="10.00">SX1281</text>
</a>
</g>
</g>
<!-- Node25&#45;&gt;Node26 -->
<g id="edge25_Node000025_Node000026" class="edge">
<title>Node25&#45;&gt;Node26</title>
<g id="a_edge25_Node000025_Node000026"><a xlink:title=" ">
<path fill="none" stroke="#63b8ff" d="M549.74,-160.5C569.43,-150.75 595.82,-137.68 613,-129.17"/>
<polygon fill="#63b8ff" stroke="#63b8ff" points="548.1,-157.41 540.69,-164.98 551.21,-163.68 548.1,-157.41"/>
</a>
</g>
</g>
<!-- Node27 -->
<g id="Node000027" class="node">
<title>Node27</title>
<g id="a_Node000027"><a xlink:href="classSX1280.html" target="_top" xlink:title="Derived class for SX1280 modules.">
<polygon fill="white" stroke="#666666" points="692,-74 639,-74 639,-55 692,-55 692,-74"/>
<text text-anchor="middle" x="665.5" y="-62" font-family="Helvetica,sans-Serif" font-size="10.00">SX1280</text>
</a>
</g>
</g>
<!-- Node26&#45;&gt;Node27 -->
<g id="edge26_Node000026_Node000027" class="edge">
<title>Node26&#45;&gt;Node27</title>
<g id="a_edge26_Node000026_Node000027"><a xlink:title=" ">
<path fill="none" stroke="#63b8ff" d="M641.8,-101.39C647.82,-92.27 654.97,-81.45 659.83,-74.09"/>
<polygon fill="#63b8ff" stroke="#63b8ff" points="638.87,-99.47 636.28,-109.75 644.71,-103.33 638.87,-99.47"/>
</a>
</g>
</g>
<!-- Node28 -->
<g id="Node000028" class="node">
<title>Node28</title>
<g id="a_Node000028"><a xlink:href="classSX1282.html" target="_top" xlink:title="Derived class for SX1282 modules.">
<polygon fill="white" stroke="#666666" points="692,-19 639,-19 639,0 692,0 692,-19"/>
<text text-anchor="middle" x="665.5" y="-7" font-family="Helvetica,sans-Serif" font-size="10.00">SX1282</text>
</a>
</g>
</g>
<!-- Node27&#45;&gt;Node28 -->
<g id="edge27_Node000027_Node000028" class="edge">
<title>Node27&#45;&gt;Node28</title>
<g id="a_edge27_Node000027_Node000028"><a xlink:title=" ">
<path fill="none" stroke="#63b8ff" d="M665.5,-44.66C665.5,-35.93 665.5,-25.99 665.5,-19.09"/>
<polygon fill="#63b8ff" stroke="#63b8ff" points="662,-44.75 665.5,-54.75 669,-44.75 662,-44.75"/>
</a>
</g>
</g>
<!-- Node30 -->
<g id="Node000030" class="node">
<title>Node30</title>
<g id="a_Node000030"><a xlink:href="classSi4432.html" target="_top" xlink:title="Derived class for Si4432 modules.">
<polygon fill="white" stroke="#666666" points="760.5,-129 710.5,-129 710.5,-110 760.5,-110 760.5,-129"/>
<text text-anchor="middle" x="735.5" y="-117" font-family="Helvetica,sans-Serif" font-size="10.00">Si4432</text>
</a>
</g>
</g>
<!-- Node29&#45;&gt;Node30 -->
<g id="edge29_Node000029_Node000030" class="edge">
<title>Node29&#45;&gt;Node30</title>
<g id="a_edge29_Node000029_Node000030"><a xlink:title=" ">
<path fill="none" stroke="#63b8ff" d="M625.86,-161.42C652.21,-151.59 688.76,-137.95 712.27,-129.17"/>
<polygon fill="#63b8ff" stroke="#63b8ff" points="624.46,-158.21 616.31,-164.98 626.91,-164.77 624.46,-158.21"/>
</a>
</g>
</g>
<!-- Node31 -->
<g id="Node000031" class="node">
<title>Node31</title>
<g id="a_Node000031"><a xlink:href="classSi4430.html" target="_top" xlink:title="Derived class for Si4430 modules.">
<polygon fill="white" stroke="#666666" points="760.5,-74 710.5,-74 710.5,-55 760.5,-55 760.5,-74"/>
<text text-anchor="middle" x="735.5" y="-62" font-family="Helvetica,sans-Serif" font-size="10.00">Si4430</text>
</a>
</g>
</g>
<!-- Node30&#45;&gt;Node31 -->
<g id="edge30_Node000030_Node000031" class="edge">
<title>Node30&#45;&gt;Node31</title>
<g id="a_edge30_Node000030_Node000031"><a xlink:title=" ">
<path fill="none" stroke="#63b8ff" d="M735.5,-99.66C735.5,-90.93 735.5,-80.99 735.5,-74.09"/>
<polygon fill="#63b8ff" stroke="#63b8ff" points="732,-99.75 735.5,-109.75 739,-99.75 732,-99.75"/>
</a>
</g>
</g>
<!-- Node32 -->
<g id="Node000032" class="node">
<title>Node32</title>
<g id="a_Node000032"><a xlink:href="classSi4431.html" target="_top" xlink:title="Derived class for Si4431 modules.">
<polygon fill="white" stroke="#666666" points="828.5,-74 778.5,-74 778.5,-55 828.5,-55 828.5,-74"/>
<text text-anchor="middle" x="803.5" y="-62" font-family="Helvetica,sans-Serif" font-size="10.00">Si4431</text>
</a>
</g>
</g>
<!-- Node30&#45;&gt;Node32 -->
<g id="edge31_Node000030_Node000032" class="edge">
<title>Node30&#45;&gt;Node32</title>
<g id="a_edge31_Node000030_Node000032"><a xlink:title=" ">
<path fill="none" stroke="#63b8ff" d="M754.62,-103.6C766.8,-94.11 782.16,-82.13 792.38,-74.17"/>
<polygon fill="#63b8ff" stroke="#63b8ff" points="752.16,-101.08 746.43,-109.98 756.46,-106.6 752.16,-101.08"/>
</a>
</g>
</g>
</g>
</svg>
