<?xml version="1.0" encoding="UTF-8" standalone="no"?>
<!DOCTYPE svg PUBLIC "-//W3C//DTD SVG 1.1//EN"
 "http://www.w3.org/Graphics/SVG/1.1/DTD/svg11.dtd">
<!-- Generated by graphviz version 2.43.0 (0)
 -->
<!-- Title: basic_format_args::is_packed Pages: 1 -->
<svg width="824pt" height="434pt"
 viewBox="0.00 0.00 824.00 434.00" xmlns="http://www.w3.org/2000/svg" xmlns:xlink="http://www.w3.org/1999/xlink">
<g id="graph0" class="graph" transform="scale(1 1) rotate(0) translate(4 430)">
<title>basic_format_args::is_packed</title>
<!-- Node1 -->
<g id="Node000001" class="node">
<title>Node1</title>
<g id="a_Node000001"><a xlink:title=" ">
<polygon fill="#999999" stroke="#666666" points="816,-248.5 703,-248.5 703,-218.5 816,-218.5 816,-248.5"/>
<text text-anchor="start" x="711" y="-236.5" font-family="Helvetica,sans-Serif" font-size="10.00">basic_format_args::</text>
<text text-anchor="middle" x="759.5" y="-225.5" font-family="Helvetica,sans-Serif" font-size="10.00">is_packed</text>
</a>
</g>
</g>
<!-- Node2 -->
<g id="Node000002" class="node">
<title>Node2</title>
<g id="a_Node000002"><a xlink:href="classbasic__format__args.html#a3339d3a4e4daaf7bb0de1a8084e7f086" target="_top" xlink:title="Returns the argument with the specified id.">
<polygon fill="white" stroke="#666666" points="518,-240 390,-240 390,-221 518,-221 518,-240"/>
<text text-anchor="middle" x="454" y="-228" font-family="Helvetica,sans-Serif" font-size="10.00">basic_format_args::get</text>
</a>
</g>
</g>
<!-- Node1&#45;&gt;Node2 -->
<g id="edge1_Node000001_Node000002" class="edge">
<title>Node1&#45;&gt;Node2</title>
<g id="a_edge1_Node000001_Node000002"><a xlink:title=" ">
<path fill="none" stroke="#63b8ff" d="M700.55,-251.08C689.51,-253.75 677.97,-256.08 667,-257.5 617.19,-263.92 603.78,-264.17 554,-257.5 529.28,-254.19 501.99,-246.42 482.33,-240.07"/>
<polygon fill="#63b8ff" stroke="#63b8ff" points="701.69,-254.41 710.52,-248.55 699.97,-247.62 701.69,-254.41"/>
</a>
</g>
</g>
<!-- Node18 -->
<g id="Node000018" class="node">
<title>Node18</title>
<g id="a_Node000018"><a xlink:href="classbasic__format__args.html#a46c50be7d2d5cb389f25404bb0b030ee" target="_top" xlink:title=" ">
<polygon fill="white" stroke="#666666" points="667,-248.5 554,-248.5 554,-218.5 667,-218.5 667,-248.5"/>
<text text-anchor="start" x="562" y="-236.5" font-family="Helvetica,sans-Serif" font-size="10.00">basic_format_args::</text>
<text text-anchor="middle" x="610.5" y="-225.5" font-family="Helvetica,sans-Serif" font-size="10.00">get_id</text>
</a>
</g>
</g>
<!-- Node1&#45;&gt;Node18 -->
<g id="edge17_Node000001_Node000018" class="edge">
<title>Node1&#45;&gt;Node18</title>
<g id="a_edge17_Node000001_Node000018"><a xlink:title=" ">
<path fill="none" stroke="#63b8ff" d="M692.92,-233.5C684.32,-233.5 675.57,-233.5 667.15,-233.5"/>
<polygon fill="#63b8ff" stroke="#63b8ff" points="692.93,-237 702.93,-233.5 692.93,-230 692.93,-237"/>
</a>
</g>
</g>
<!-- Node19 -->
<g id="Node000019" class="node">
<title>Node19</title>
<g id="a_Node000019"><a xlink:href="classbasic__format__args.html#a7747894fe7c14fb78260b53ca7702782" target="_top" xlink:title=" ">
<polygon fill="white" stroke="#666666" points="667,-200.5 554,-200.5 554,-170.5 667,-170.5 667,-200.5"/>
<text text-anchor="start" x="562" y="-188.5" font-family="Helvetica,sans-Serif" font-size="10.00">basic_format_args::</text>
<text text-anchor="middle" x="610.5" y="-177.5" font-family="Helvetica,sans-Serif" font-size="10.00">max_size</text>
</a>
</g>
</g>
<!-- Node1&#45;&gt;Node19 -->
<g id="edge18_Node000001_Node000019" class="edge">
<title>Node1&#45;&gt;Node19</title>
<g id="a_edge18_Node000001_Node000019"><a xlink:title=" ">
<path fill="none" stroke="#63b8ff" d="M702.74,-215.29C687.79,-210.41 671.8,-205.19 657.44,-200.5"/>
<polygon fill="#63b8ff" stroke="#63b8ff" points="701.8,-218.67 712.39,-218.44 703.97,-212.01 701.8,-218.67"/>
</a>
</g>
</g>
<!-- Node3 -->
<g id="Node000003" class="node">
<title>Node3</title>
<g id="a_Node000003"><a xlink:href="classcontext.html#affbf0489e1c9f6d7273f1ca331cf9317" target="_top" xlink:title=" ">
<polygon fill="white" stroke="#666666" points="339.5,-259 264.5,-259 264.5,-240 339.5,-240 339.5,-259"/>
<text text-anchor="middle" x="302" y="-247" font-family="Helvetica,sans-Serif" font-size="10.00">context::arg</text>
</a>
</g>
</g>
<!-- Node2&#45;&gt;Node3 -->
<g id="edge2_Node000002_Node000003" class="edge">
<title>Node2&#45;&gt;Node3</title>
<g id="a_edge2_Node000002_Node000003"><a xlink:title=" ">
<path fill="none" stroke="#63b8ff" d="M379.71,-239.78C365.77,-241.55 351.75,-243.32 339.58,-244.87"/>
<polygon fill="#63b8ff" stroke="#63b8ff" points="380.34,-243.23 389.82,-238.5 379.46,-236.29 380.34,-243.23"/>
</a>
</g>
</g>
<!-- Node4 -->
<g id="Node000004" class="node">
<title>Node4</title>
<g id="a_Node000004"><a xlink:href="namespacedetail.html#a374a461d344b73468831b40acf5e4635" target="_top" xlink:title=" ">
<polygon fill="white" stroke="#666666" points="354,-222 250,-222 250,-203 354,-203 354,-222"/>
<text text-anchor="middle" x="302" y="-210" font-family="Helvetica,sans-Serif" font-size="10.00">detail::vformat_to</text>
</a>
</g>
</g>
<!-- Node2&#45;&gt;Node4 -->
<g id="edge3_Node000002_Node000004" class="edge">
<title>Node2&#45;&gt;Node4</title>
<g id="a_edge3_Node000002_Node000004"><a xlink:title=" ">
<path fill="none" stroke="#63b8ff" d="M379.75,-221.71C371.14,-220.68 362.5,-219.64 354.28,-218.65"/>
<polygon fill="#63b8ff" stroke="#63b8ff" points="379.48,-225.2 389.82,-222.92 380.31,-218.25 379.48,-225.2"/>
</a>
</g>
</g>
<!-- Node5 -->
<g id="Node000005" class="node">
<title>Node5</title>
<g id="a_Node000005"><a xlink:href="base_8h.html#a0f9a011c5e8bf359e75651cbdc411941" target="_top" xlink:title="Returns the number of chars in the output of format(fmt, args...).">
<polygon fill="white" stroke="#666666" points="213.5,-426 123.5,-426 123.5,-407 213.5,-407 213.5,-426"/>
<text text-anchor="middle" x="168.5" y="-414" font-family="Helvetica,sans-Serif" font-size="10.00">formatted_size</text>
</a>
</g>
</g>
<!-- Node4&#45;&gt;Node5 -->
<g id="edge4_Node000004_Node000005" class="edge">
<title>Node4&#45;&gt;Node5</title>
<g id="a_edge4_Node000004_Node000005"><a xlink:title=" ">
<path fill="none" stroke="#63b8ff" d="M252.41,-228.03C251.56,-228.81 250.76,-229.64 250,-230.5 199.83,-287.49 262.32,-338.93 214,-397.5 210.79,-401.39 206.64,-404.5 202.17,-406.98"/>
<polygon fill="#63b8ff" stroke="#63b8ff" points="254.75,-230.66 260.85,-222 250.68,-224.96 254.75,-230.66"/>
</a>
</g>
</g>
<!-- Node6 -->
<g id="Node000006" class="node">
<title>Node6</title>
<g id="a_Node000006"><a xlink:href="format_8h.html#ab1aace0cb1b8ea506c95aa46d713e881" target="_top" xlink:title=" ">
<polygon fill="white" stroke="#666666" points="213.5,-389 123.5,-389 123.5,-370 213.5,-370 213.5,-389"/>
<text text-anchor="middle" x="168.5" y="-377" font-family="Helvetica,sans-Serif" font-size="10.00">formatted_size</text>
</a>
</g>
</g>
<!-- Node4&#45;&gt;Node6 -->
<g id="edge5_Node000004_Node000006" class="edge">
<title>Node4&#45;&gt;Node6</title>
<g id="a_edge5_Node000004_Node000006"><a xlink:title=" ">
<path fill="none" stroke="#63b8ff" d="M252.86,-227.76C251.86,-228.62 250.9,-229.53 250,-230.5 209.1,-274.33 253.47,-315.38 214,-360.5 210.68,-364.29 206.47,-367.35 201.98,-369.81"/>
<polygon fill="#63b8ff" stroke="#63b8ff" points="254.98,-230.55 261.3,-222.04 251.06,-224.75 254.98,-230.55"/>
</a>
</g>
</g>
<!-- Node7 -->
<g id="Node000007" class="node">
<title>Node7</title>
<g id="a_Node000007"><a xlink:href="ostream_8h.html#a3883cc4dedb6840173d3ca9699e7693c" target="_top" xlink:title=" ">
<polygon fill="white" stroke="#666666" points="188,-352 149,-352 149,-333 188,-333 188,-352"/>
<text text-anchor="middle" x="168.5" y="-340" font-family="Helvetica,sans-Serif" font-size="10.00">print</text>
</a>
</g>
</g>
<!-- Node4&#45;&gt;Node7 -->
<g id="edge6_Node000004_Node000007" class="edge">
<title>Node4&#45;&gt;Node7</title>
<g id="a_edge6_Node000004_Node000007"><a xlink:title=" ">
<path fill="none" stroke="#63b8ff" d="M253.47,-227.5C252.26,-228.44 251.09,-229.44 250,-230.5 218.19,-261.37 244.8,-291.63 214,-323.5 207.11,-330.63 197.12,-335.22 188.35,-338.1"/>
<polygon fill="#63b8ff" stroke="#63b8ff" points="255.5,-230.36 262.13,-222.1 251.8,-224.42 255.5,-230.36"/>
</a>
</g>
</g>
<!-- Node8 -->
<g id="Node000008" class="node">
<title>Node8</title>
<g id="a_Node000008"><a xlink:href="format_8h.html#a5ef22e73c121e5454e75a221470d3214" target="_top" xlink:title=" ">
<polygon fill="white" stroke="#666666" points="196.5,-315 140.5,-315 140.5,-296 196.5,-296 196.5,-315"/>
<text text-anchor="middle" x="168.5" y="-303" font-family="Helvetica,sans-Serif" font-size="10.00">vformat</text>
</a>
</g>
</g>
<!-- Node4&#45;&gt;Node8 -->
<g id="edge7_Node000004_Node000008" class="edge">
<title>Node4&#45;&gt;Node8</title>
<g id="a_edge7_Node000004_Node000008"><a xlink:title=" ">
<path fill="none" stroke="#63b8ff" d="M255.06,-226.95C253.3,-228.05 251.6,-229.23 250,-230.5 226.8,-248.86 236.6,-267.4 214,-286.5 208.99,-290.73 202.91,-294.14 196.86,-296.85"/>
<polygon fill="#63b8ff" stroke="#63b8ff" points="257.11,-229.83 264.33,-222.08 253.85,-223.63 257.11,-229.83"/>
</a>
</g>
</g>
<!-- Node9 -->
<g id="Node000009" class="node">
<title>Node9</title>
<g id="a_Node000009"><a xlink:href="format-inl_8h.html#a7d363bad28ecb7c5fda462edcafa09cb" target="_top" xlink:title=" ">
<polygon fill="white" stroke="#666666" points="196.5,-278 140.5,-278 140.5,-259 196.5,-259 196.5,-278"/>
<text text-anchor="middle" x="168.5" y="-266" font-family="Helvetica,sans-Serif" font-size="10.00">vformat</text>
</a>
</g>
</g>
<!-- Node4&#45;&gt;Node9 -->
<g id="edge8_Node000004_Node000009" class="edge">
<title>Node4&#45;&gt;Node9</title>
<g id="a_edge8_Node000004_Node000009"><a xlink:title=" ">
<path fill="none" stroke="#63b8ff" d="M262.06,-225.58C257.96,-227.15 253.87,-228.81 250,-230.5 233.43,-237.75 230.33,-241.72 214,-249.5 207.17,-252.75 199.65,-256.07 192.76,-259"/>
<polygon fill="#63b8ff" stroke="#63b8ff" points="263.42,-228.8 271.59,-222.06 260.99,-222.24 263.42,-228.8"/>
</a>
</g>
</g>
<!-- Node11 -->
<g id="Node000011" class="node">
<title>Node11</title>
<g id="a_Node000011"><a xlink:href="base_8h.html#a3683dd5284154b2cc412c5623a3a850c" target="_top" xlink:title="Formats a string and writes the output to out.">
<polygon fill="white" stroke="#666666" points="204,-241 133,-241 133,-222 204,-222 204,-241"/>
<text text-anchor="middle" x="168.5" y="-229" font-family="Helvetica,sans-Serif" font-size="10.00">vformat_to</text>
</a>
</g>
</g>
<!-- Node4&#45;&gt;Node11 -->
<g id="edge10_Node000004_Node000011" class="edge">
<title>Node4&#45;&gt;Node11</title>
<g id="a_edge10_Node000004_Node000011"><a xlink:title=" ">
<path fill="none" stroke="#63b8ff" d="M239.63,-221.37C227.44,-223.13 215.05,-224.92 204.14,-226.49"/>
<polygon fill="#63b8ff" stroke="#63b8ff" points="240.39,-224.79 249.78,-219.9 239.38,-217.87 240.39,-224.79"/>
</a>
</g>
</g>
<!-- Node12 -->
<g id="Node000012" class="node">
<title>Node12</title>
<g id="a_Node000012"><a xlink:href="format_8h.html#a638dbdb7adfce93e0439e764bdd1433a" target="_top" xlink:title=" ">
<polygon fill="white" stroke="#666666" points="204,-204 133,-204 133,-185 204,-185 204,-204"/>
<text text-anchor="middle" x="168.5" y="-192" font-family="Helvetica,sans-Serif" font-size="10.00">vformat_to</text>
</a>
</g>
</g>
<!-- Node4&#45;&gt;Node12 -->
<g id="edge11_Node000004_Node000012" class="edge">
<title>Node4&#45;&gt;Node12</title>
<g id="a_edge11_Node000004_Node000012"><a xlink:title=" ">
<path fill="none" stroke="#63b8ff" d="M239.63,-204.1C227.44,-202.43 215.05,-200.73 204.14,-199.24"/>
<polygon fill="#63b8ff" stroke="#63b8ff" points="239.4,-207.6 249.78,-205.49 240.35,-200.67 239.4,-207.6"/>
</a>
</g>
</g>
<!-- Node13 -->
<g id="Node000013" class="node">
<title>Node13</title>
<g id="a_Node000013"><a xlink:href="base_8h.html#a45a3c74fd5764c3be13025cacbcb02b2" target="_top" xlink:title=" ">
<polygon fill="white" stroke="#666666" points="209.5,-167 127.5,-167 127.5,-148 209.5,-148 209.5,-167"/>
<text text-anchor="middle" x="168.5" y="-155" font-family="Helvetica,sans-Serif" font-size="10.00">vformat_to_n</text>
</a>
</g>
</g>
<!-- Node4&#45;&gt;Node13 -->
<g id="edge12_Node000004_Node000013" class="edge">
<title>Node4&#45;&gt;Node13</title>
<g id="a_edge12_Node000004_Node000013"><a xlink:title=" ">
<path fill="none" stroke="#63b8ff" d="M269.67,-199.02C253.14,-191.94 232.5,-183.18 214,-175.5 207.38,-172.75 200.19,-169.82 193.55,-167.14"/>
<polygon fill="#63b8ff" stroke="#63b8ff" points="268.31,-202.24 278.88,-202.96 271.06,-195.81 268.31,-202.24"/>
</a>
</g>
</g>
<!-- Node14 -->
<g id="Node000014" class="node">
<title>Node14</title>
<g id="a_Node000014"><a xlink:href="format-inl_8h.html#a580ab08e935e90e4c3a3cdf45da3cf3a" target="_top" xlink:title=" ">
<polygon fill="white" stroke="#666666" points="191,-130 146,-130 146,-111 191,-111 191,-130"/>
<text text-anchor="middle" x="168.5" y="-118" font-family="Helvetica,sans-Serif" font-size="10.00">vprint</text>
</a>
</g>
</g>
<!-- Node4&#45;&gt;Node14 -->
<g id="edge13_Node000004_Node000014" class="edge">
<title>Node4&#45;&gt;Node14</title>
<g id="a_edge13_Node000004_Node000014"><a xlink:title=" ">
<path fill="none" stroke="#63b8ff" d="M284.33,-195.44C267.7,-179.15 240.82,-154.74 214,-138.5 207.01,-134.27 198.86,-130.64 191.45,-127.77"/>
<polygon fill="#63b8ff" stroke="#63b8ff" points="282.08,-198.14 291.63,-202.72 287.02,-193.18 282.08,-198.14"/>
</a>
</g>
</g>
<!-- Node15 -->
<g id="Node000015" class="node">
<title>Node15</title>
<g id="a_Node000015"><a xlink:href="ostream_8h.html#a5a12ace2368ad2613bac4c16637a97ec" target="_top" xlink:title=" ">
<polygon fill="white" stroke="#666666" points="191,-93 146,-93 146,-74 191,-74 191,-93"/>
<text text-anchor="middle" x="168.5" y="-81" font-family="Helvetica,sans-Serif" font-size="10.00">vprint</text>
</a>
</g>
</g>
<!-- Node4&#45;&gt;Node15 -->
<g id="edge14_Node000004_Node000015" class="edge">
<title>Node4&#45;&gt;Node15</title>
<g id="a_edge14_Node000004_Node000015"><a xlink:title=" ">
<path fill="none" stroke="#63b8ff" d="M290.64,-193.89C276.29,-169.63 248.22,-127.25 214,-101.5 207.21,-96.39 198.76,-92.49 191.06,-89.65"/>
<polygon fill="#63b8ff" stroke="#63b8ff" points="287.75,-195.88 295.77,-202.8 293.81,-192.39 287.75,-195.88"/>
</a>
</g>
</g>
<!-- Node16 -->
<g id="Node000016" class="node">
<title>Node16</title>
<g id="a_Node000016"><a xlink:href="format-inl_8h.html#a3774f0f4816097d469f11407f83ee394" target="_top" xlink:title=" ">
<polygon fill="white" stroke="#666666" points="214,-56 123,-56 123,-37 214,-37 214,-56"/>
<text text-anchor="middle" x="168.5" y="-44" font-family="Helvetica,sans-Serif" font-size="10.00">vprint_buffered</text>
</a>
</g>
</g>
<!-- Node4&#45;&gt;Node16 -->
<g id="edge15_Node000004_Node000016" class="edge">
<title>Node4&#45;&gt;Node16</title>
<g id="a_edge15_Node000004_Node000016"><a xlink:title=" ">
<path fill="none" stroke="#63b8ff" d="M294.3,-193.06C282.64,-161.88 255.79,-100.55 214,-64.5 210.09,-61.12 205.46,-58.33 200.69,-56.03"/>
<polygon fill="#63b8ff" stroke="#63b8ff" points="291.11,-194.52 297.79,-202.74 297.69,-192.14 291.11,-194.52"/>
</a>
</g>
</g>
<!-- Node17 -->
<g id="Node000017" class="node">
<title>Node17</title>
<g id="a_Node000017"><a xlink:href="format-inl_8h.html#a71033730e1d1c2c72b7905f21929df93" target="_top" xlink:title=" ">
<polygon fill="white" stroke="#666666" points="195.5,-19 141.5,-19 141.5,0 195.5,0 195.5,-19"/>
<text text-anchor="middle" x="168.5" y="-7" font-family="Helvetica,sans-Serif" font-size="10.00">vprintln</text>
</a>
</g>
</g>
<!-- Node4&#45;&gt;Node17 -->
<g id="edge16_Node000004_Node000017" class="edge">
<title>Node4&#45;&gt;Node17</title>
<g id="a_edge16_Node000004_Node000017"><a xlink:title=" ">
<path fill="none" stroke="#63b8ff" d="M296.83,-192.97C287.95,-155.85 263.76,-74.59 214,-27.5 208.92,-22.69 202.38,-19.1 195.88,-16.44"/>
<polygon fill="#63b8ff" stroke="#63b8ff" points="293.48,-194.02 299.11,-202.99 300.3,-192.47 293.48,-194.02"/>
</a>
</g>
</g>
<!-- Node10 -->
<g id="Node000010" class="node">
<title>Node10</title>
<g id="a_Node000010"><a xlink:href="format-inl_8h.html#ab41bf8cae80639f211595a96bc63c343" target="_top" xlink:title=" ">
<polygon fill="white" stroke="#666666" points="87,-278 0,-278 0,-259 87,-259 87,-278"/>
<text text-anchor="middle" x="43.5" y="-266" font-family="Helvetica,sans-Serif" font-size="10.00">vsystem_error</text>
</a>
</g>
</g>
<!-- Node9&#45;&gt;Node10 -->
<g id="edge9_Node000009_Node000010" class="edge">
<title>Node9&#45;&gt;Node10</title>
<g id="a_edge9_Node000009_Node000010"><a xlink:title=" ">
<path fill="none" stroke="#63b8ff" d="M129.84,-268.5C116.35,-268.5 101.06,-268.5 87.19,-268.5"/>
<polygon fill="#63b8ff" stroke="#63b8ff" points="130.2,-272 140.2,-268.5 130.2,-265 130.2,-272"/>
</a>
</g>
</g>
<!-- Node19&#45;&gt;Node2 -->
<g id="edge19_Node000019_Node000002" class="edge">
<title>Node19&#45;&gt;Node2</title>
<g id="a_edge19_Node000019_Node000002"><a xlink:title=" ">
<path fill="none" stroke="#63b8ff" d="M547.96,-203.42C527.33,-209.43 505.14,-215.9 487.62,-221"/>
<polygon fill="#63b8ff" stroke="#63b8ff" points="549,-206.77 557.62,-200.61 547.04,-200.05 549,-206.77"/>
</a>
</g>
</g>
</g>
</svg>
