<?xml version="1.0" encoding="UTF-8" standalone="no"?>
<!DOCTYPE svg PUBLIC "-//W3C//DTD SVG 1.1//EN"
 "http://www.w3.org/Graphics/SVG/1.1/DTD/svg11.dtd">
<!-- Generated by graphviz version 2.43.0 (0)
 -->
<!-- Title: detail::tm_writer::on_second Pages: 1 -->
<svg width="756pt" height="303pt"
 viewBox="0.00 0.00 756.00 302.50" xmlns="http://www.w3.org/2000/svg" xmlns:xlink="http://www.w3.org/1999/xlink">
<g id="graph0" class="graph" transform="scale(1 1) rotate(0) translate(4 298.5)">
<title>detail::tm_writer::on_second</title>
<!-- Node1 -->
<g id="Node000001" class="node">
<title>Node1</title>
<g id="a_Node000001"><a xlink:title=" ">
<polygon fill="#999999" stroke="#666666" points="104,-137 0,-137 0,-107 104,-107 104,-137"/>
<text text-anchor="start" x="8" y="-125" font-family="Helvetica,sans-Serif" font-size="10.00">detail::tm_writer::</text>
<text text-anchor="middle" x="52" y="-114" font-family="Helvetica,sans-Serif" font-size="10.00">on_second</text>
</a>
</g>
</g>
<!-- Node2 -->
<g id="Node000002" class="node">
<title>Node2</title>
<g id="a_Node000002"><a xlink:href="classbasic__memory__buffer.html#a7a9300acfadb00a835b36a86a198f433" target="_top" xlink:title=" ">
<polygon fill="white" stroke="#666666" points="268,-239 140,-239 140,-209 268,-209 268,-239"/>
<text text-anchor="start" x="148" y="-227" font-family="Helvetica,sans-Serif" font-size="10.00">basic_memory_buffer</text>
<text text-anchor="middle" x="204" y="-216" font-family="Helvetica,sans-Serif" font-size="10.00">::basic_memory_buffer</text>
</a>
</g>
</g>
<!-- Node1&#45;&gt;Node2 -->
<g id="edge1_Node000001_Node000002" class="edge">
<title>Node1&#45;&gt;Node2</title>
<g id="a_edge1_Node000001_Node000002"><a xlink:title=" ">
<path fill="none" stroke="#63b8ff" d="M66.83,-137.05C83.02,-153.97 111.3,-181.36 140,-199 143.2,-200.96 146.57,-202.83 150.03,-204.58"/>
<polygon fill="#63b8ff" stroke="#63b8ff" points="148.8,-207.87 159.34,-208.98 151.79,-201.54 148.8,-207.87"/>
</a>
</g>
</g>
<!-- Node9 -->
<g id="Node000009" class="node">
<title>Node9</title>
<g id="a_Node000009"><a xlink:href="classdetail_1_1buffer.html#adf353302bef0b99c405ca999d07b39ed" target="_top" xlink:title=" ">
<polygon fill="white" stroke="#666666" points="260,-190.5 148,-190.5 148,-171.5 260,-171.5 260,-190.5"/>
<text text-anchor="middle" x="204" y="-178.5" font-family="Helvetica,sans-Serif" font-size="10.00">detail::buffer::begin</text>
</a>
</g>
</g>
<!-- Node1&#45;&gt;Node9 -->
<g id="edge8_Node000001_Node000009" class="edge">
<title>Node1&#45;&gt;Node9</title>
<g id="a_edge8_Node000001_Node000009"><a xlink:title=" ">
<path fill="none" stroke="#63b8ff" d="M83.16,-137.12C99.71,-145.09 120.72,-154.7 140,-162 145.96,-164.26 152.31,-166.43 158.61,-168.45"/>
<polygon fill="#63b8ff" stroke="#63b8ff" points="157.79,-171.87 168.38,-171.5 159.87,-165.18 157.79,-171.87"/>
</a>
</g>
</g>
<!-- Node10 -->
<g id="Node000010" class="node">
<title>Node10</title>
<g id="a_Node000010"><a xlink:href="classdetail_1_1buffer.html#ac2b183d544845677a3b7d1137b17d16d" target="_top" xlink:title=" ">
<polygon fill="white" stroke="#666666" points="255.5,-153.5 152.5,-153.5 152.5,-134.5 255.5,-134.5 255.5,-153.5"/>
<text text-anchor="middle" x="204" y="-141.5" font-family="Helvetica,sans-Serif" font-size="10.00">detail::buffer::end</text>
</a>
</g>
</g>
<!-- Node1&#45;&gt;Node10 -->
<g id="edge9_Node000001_Node000010" class="edge">
<title>Node1&#45;&gt;Node10</title>
<g id="a_edge9_Node000001_Node000010"><a xlink:title=" ">
<path fill="none" stroke="#63b8ff" d="M104.2,-129.51C116.46,-131.31 129.66,-133.24 142.3,-135.1"/>
<polygon fill="#63b8ff" stroke="#63b8ff" points="141.88,-138.57 152.28,-136.56 142.9,-131.65 141.88,-138.57"/>
</a>
</g>
</g>
<!-- Node11 -->
<g id="Node000011" class="node">
<title>Node11</title>
<g id="a_Node000011"><a xlink:href="classdetail_1_1tm__writer.html#ab8f9095299300945a550e457b970f763" target="_top" xlink:title=" ">
<polygon fill="white" stroke="#666666" points="256,-116 152,-116 152,-86 256,-86 256,-116"/>
<text text-anchor="start" x="160" y="-104" font-family="Helvetica,sans-Serif" font-size="10.00">detail::tm_writer::</text>
<text text-anchor="middle" x="204" y="-93" font-family="Helvetica,sans-Serif" font-size="10.00">format_localized</text>
</a>
</g>
</g>
<!-- Node1&#45;&gt;Node11 -->
<g id="edge10_Node000001_Node000011" class="edge">
<title>Node1&#45;&gt;Node11</title>
<g id="a_edge10_Node000001_Node000011"><a xlink:title=" ">
<path fill="none" stroke="#63b8ff" d="M104.2,-114.83C116.2,-113.15 129.11,-111.34 141.51,-109.61"/>
<polygon fill="#63b8ff" stroke="#63b8ff" points="142.36,-113.02 151.77,-108.17 141.39,-106.09 142.36,-113.02"/>
</a>
</g>
</g>
<!-- Node12 -->
<g id="Node000012" class="node">
<title>Node12</title>
<g id="a_Node000012"><a xlink:href="classdetail_1_1buffer.html#a8685285932360c284d19003fc4ba3edc" target="_top" xlink:title="Returns the size of this buffer.">
<polygon fill="white" stroke="#666666" points="256,-67.5 152,-67.5 152,-48.5 256,-48.5 256,-67.5"/>
<text text-anchor="middle" x="204" y="-55.5" font-family="Helvetica,sans-Serif" font-size="10.00">detail::buffer::size</text>
</a>
</g>
</g>
<!-- Node1&#45;&gt;Node12 -->
<g id="edge11_Node000001_Node000012" class="edge">
<title>Node1&#45;&gt;Node12</title>
<g id="a_edge11_Node000001_Node000012"><a xlink:title=" ">
<path fill="none" stroke="#63b8ff" d="M79.06,-106.91C96.04,-97.49 118.88,-85.56 140,-77 145.56,-74.75 151.49,-72.62 157.41,-70.66"/>
<polygon fill="#63b8ff" stroke="#63b8ff" points="158.81,-73.88 167.28,-67.52 156.69,-67.21 158.81,-73.88"/>
</a>
</g>
</g>
<!-- Node13 -->
<g id="Node000013" class="node">
<title>Node13</title>
<g id="a_Node000013"><a xlink:href="classdetail_1_1tm__writer.html#a34eec6b5c9584aa781340fe01cd75e07" target="_top" xlink:title=" ">
<polygon fill="white" stroke="#666666" points="256,-30 152,-30 152,0 256,0 256,-30"/>
<text text-anchor="start" x="160" y="-18" font-family="Helvetica,sans-Serif" font-size="10.00">detail::tm_writer::</text>
<text text-anchor="middle" x="204" y="-7" font-family="Helvetica,sans-Serif" font-size="10.00">tm_sec</text>
</a>
</g>
</g>
<!-- Node1&#45;&gt;Node13 -->
<g id="edge12_Node000001_Node000013" class="edge">
<title>Node1&#45;&gt;Node13</title>
<g id="a_edge12_Node000001_Node000013"><a xlink:title=" ">
<path fill="none" stroke="#63b8ff" d="M65.42,-106.93C81.14,-88.68 109.81,-58.05 140,-39 142.46,-37.45 145.03,-35.97 147.68,-34.57"/>
<polygon fill="#63b8ff" stroke="#63b8ff" points="149.42,-37.62 156.88,-30.1 146.36,-31.32 149.42,-37.62"/>
</a>
</g>
</g>
<!-- Node3 -->
<g id="Node000003" class="node">
<title>Node3</title>
<g id="a_Node000003"><a xlink:href="classbasic__memory__buffer.html#a97d9a0a0f9827c9277e2eea97fa0309b" target="_top" xlink:title=" ">
<polygon fill="white" stroke="#666666" points="426,-263 304,-263 304,-233 426,-233 426,-263"/>
<text text-anchor="start" x="312" y="-251" font-family="Helvetica,sans-Serif" font-size="10.00">basic_memory_buffer</text>
<text text-anchor="middle" x="365" y="-240" font-family="Helvetica,sans-Serif" font-size="10.00">::grow</text>
</a>
</g>
</g>
<!-- Node2&#45;&gt;Node3 -->
<g id="edge2_Node000002_Node000003" class="edge">
<title>Node2&#45;&gt;Node3</title>
<g id="a_edge2_Node000002_Node000003"><a xlink:title=" ">
<path fill="none" stroke="#63b8ff" d="M268.3,-233.55C276.7,-234.82 285.36,-236.13 293.87,-237.41"/>
<polygon fill="#63b8ff" stroke="#63b8ff" points="293.36,-240.88 303.77,-238.91 294.4,-233.95 293.36,-240.88"/>
</a>
</g>
</g>
<!-- Node8 -->
<g id="Node000008" class="node">
<title>Node8</title>
<g id="a_Node000008"><a xlink:href="namespacedetail.html#a75ed2634319883d038944529dbb954e2" target="_top" xlink:title=" ">
<polygon fill="white" stroke="#666666" points="418,-215 312,-215 312,-185 418,-185 418,-215"/>
<text text-anchor="start" x="320" y="-203" font-family="Helvetica,sans-Serif" font-size="10.00">detail::is_constant</text>
<text text-anchor="middle" x="365" y="-192" font-family="Helvetica,sans-Serif" font-size="10.00">_evaluated</text>
</a>
</g>
</g>
<!-- Node2&#45;&gt;Node8 -->
<g id="edge7_Node000002_Node000008" class="edge">
<title>Node2&#45;&gt;Node8</title>
<g id="a_edge7_Node000002_Node000008"><a xlink:title=" ">
<path fill="none" stroke="#63b8ff" d="M268.3,-214.45C279.37,-212.77 290.88,-211.04 301.92,-209.37"/>
<polygon fill="#63b8ff" stroke="#63b8ff" points="302.53,-212.82 311.9,-207.86 301.49,-205.9 302.53,-212.82"/>
</a>
</g>
</g>
<!-- Node4 -->
<g id="Node000004" class="node">
<title>Node4</title>
<g id="a_Node000004"><a xlink:href="namespacedetail.html#a9d0b4b56d52390d7c8a4be7baa5e2382" target="_top" xlink:title=" ">
<polygon fill="white" stroke="#666666" points="590,-294.5 462,-294.5 462,-275.5 590,-275.5 590,-294.5"/>
<text text-anchor="middle" x="526" y="-282.5" font-family="Helvetica,sans-Serif" font-size="10.00">detail::abort_fuzzing_if</text>
</a>
</g>
</g>
<!-- Node3&#45;&gt;Node4 -->
<g id="edge3_Node000003_Node000004" class="edge">
<title>Node3&#45;&gt;Node4</title>
<g id="a_edge3_Node000003_Node000004"><a xlink:title=" ">
<path fill="none" stroke="#63b8ff" d="M426.11,-261.99C441.98,-265.68 458.95,-269.63 474.27,-273.2"/>
<polygon fill="#63b8ff" stroke="#63b8ff" points="473.54,-276.62 484.07,-275.48 475.13,-269.8 473.54,-276.62"/>
</a>
</g>
</g>
<!-- Node6 -->
<g id="Node000006" class="node">
<title>Node6</title>
<g id="a_Node000006"><a xlink:href="namespacedetail.html#a208b54c1c61a9bce9df4531a657a0c64" target="_top" xlink:title=" ">
<polygon fill="white" stroke="#666666" points="570.5,-257.5 481.5,-257.5 481.5,-238.5 570.5,-238.5 570.5,-257.5"/>
<text text-anchor="middle" x="526" y="-245.5" font-family="Helvetica,sans-Serif" font-size="10.00">detail::assume</text>
</a>
</g>
</g>
<!-- Node3&#45;&gt;Node6 -->
<g id="edge5_Node000003_Node000006" class="edge">
<title>Node3&#45;&gt;Node6</title>
<g id="a_edge5_Node000003_Node000006"><a xlink:title=" ">
<path fill="none" stroke="#63b8ff" d="M426.11,-248C440.83,-248 456.49,-248 470.91,-248"/>
<polygon fill="#63b8ff" stroke="#63b8ff" points="471.16,-251.5 481.16,-248 471.16,-244.5 471.16,-251.5"/>
</a>
</g>
</g>
<!-- Node7 -->
<g id="Node000007" class="node">
<title>Node7</title>
<g id="a_Node000007"><a xlink:href="base_8h.html#a67ebc2a5b1748c4692931267cd6f89bf" target="_top" xlink:title=" ">
<polygon fill="white" stroke="#666666" points="552.5,-220.5 499.5,-220.5 499.5,-201.5 552.5,-201.5 552.5,-220.5"/>
<text text-anchor="middle" x="526" y="-208.5" font-family="Helvetica,sans-Serif" font-size="10.00">max_of</text>
</a>
</g>
</g>
<!-- Node3&#45;&gt;Node7 -->
<g id="edge6_Node000003_Node000007" class="edge">
<title>Node3&#45;&gt;Node7</title>
<g id="a_edge6_Node000003_Node000007"><a xlink:title=" ">
<path fill="none" stroke="#63b8ff" d="M426.11,-234.01C447.48,-229.04 470.84,-223.6 489.49,-219.26"/>
<polygon fill="#63b8ff" stroke="#63b8ff" points="490.37,-222.65 499.32,-216.98 488.79,-215.83 490.37,-222.65"/>
</a>
</g>
</g>
<!-- Node5 -->
<g id="Node000005" class="node">
<title>Node5</title>
<g id="a_Node000005"><a xlink:href="namespacedetail.html#a1fe84ebaf96215ce0665d95b3124c2df" target="_top" xlink:title=" ">
<polygon fill="white" stroke="#666666" points="748,-294.5 626,-294.5 626,-275.5 748,-275.5 748,-294.5"/>
<text text-anchor="middle" x="687" y="-282.5" font-family="Helvetica,sans-Serif" font-size="10.00">detail::ignore_unused</text>
</a>
</g>
</g>
<!-- Node4&#45;&gt;Node5 -->
<g id="edge4_Node000004_Node000005" class="edge">
<title>Node4&#45;&gt;Node5</title>
<g id="a_edge4_Node000004_Node000005"><a xlink:title=" ">
<path fill="none" stroke="#63b8ff" d="M590.3,-285C598.61,-285 607.17,-285 615.59,-285"/>
<polygon fill="#63b8ff" stroke="#63b8ff" points="615.77,-288.5 625.77,-285 615.77,-281.5 615.77,-288.5"/>
</a>
</g>
</g>
</g>
</svg>
