<?xml version="1.0" encoding="UTF-8" standalone="no"?>
<!DOCTYPE svg PUBLIC "-//W3C//DTD SVG 1.1//EN"
 "http://www.w3.org/Graphics/SVG/1.1/DTD/svg11.dtd">
<!-- Generated by graphviz version 2.43.0 (0)
 -->
<!-- Title: detail::tm_writer::on_iso_week_based_short_year Pages: 1 -->
<svg width="463pt" height="230pt"
 viewBox="0.00 0.00 463.00 230.00" xmlns="http://www.w3.org/2000/svg" xmlns:xlink="http://www.w3.org/1999/xlink">
<g id="graph0" class="graph" transform="scale(1 1) rotate(0) translate(4 226)">
<title>detail::tm_writer::on_iso_week_based_short_year</title>
<!-- Node1 -->
<g id="Node000001" class="node">
<title>Node1</title>
<g id="a_Node000001"><a xlink:title=" ">
<polygon fill="#999999" stroke="#666666" points="171,-150 0,-150 0,-120 171,-120 171,-150"/>
<text text-anchor="start" x="8" y="-138" font-family="Helvetica,sans-Serif" font-size="10.00">detail::tm_writer::</text>
<text text-anchor="middle" x="85.5" y="-127" font-family="Helvetica,sans-Serif" font-size="10.00">on_iso_week_based_short_year</text>
</a>
</g>
</g>
<!-- Node2 -->
<g id="Node000002" class="node">
<title>Node2</title>
<g id="a_Node000002"><a xlink:href="classdetail_1_1tm__writer.html#a99d7ce114df249b93ff4721a1c244351" target="_top" xlink:title=" ">
<polygon fill="white" stroke="#666666" points="313,-174 209,-174 209,-144 313,-144 313,-174"/>
<text text-anchor="start" x="217" y="-162" font-family="Helvetica,sans-Serif" font-size="10.00">detail::tm_writer::</text>
<text text-anchor="middle" x="261" y="-151" font-family="Helvetica,sans-Serif" font-size="10.00">split_year_lower</text>
</a>
</g>
</g>
<!-- Node1&#45;&gt;Node2 -->
<g id="edge1_Node000001_Node000002" class="edge">
<title>Node1&#45;&gt;Node2</title>
<g id="a_edge1_Node000001_Node000002"><a xlink:title=" ">
<path fill="none" stroke="#63b8ff" d="M171.22,-146.72C180.59,-148.02 190,-149.32 199,-150.56"/>
<polygon fill="#63b8ff" stroke="#63b8ff" points="198.58,-154.04 208.96,-151.94 199.54,-147.1 198.58,-154.04"/>
</a>
</g>
</g>
<!-- Node3 -->
<g id="Node000003" class="node">
<title>Node3</title>
<g id="a_Node000003"><a xlink:href="classdetail_1_1tm__writer.html#a73adb4c23c197bf3403a9ea4aa82d842" target="_top" xlink:title=" ">
<polygon fill="white" stroke="#666666" points="315,-126 207,-126 207,-96 315,-96 315,-126"/>
<text text-anchor="start" x="215" y="-114" font-family="Helvetica,sans-Serif" font-size="10.00">detail::tm_writer::</text>
<text text-anchor="middle" x="261" y="-103" font-family="Helvetica,sans-Serif" font-size="10.00">tm_iso_week_year</text>
</a>
</g>
</g>
<!-- Node1&#45;&gt;Node3 -->
<g id="edge2_Node000001_Node000003" class="edge">
<title>Node1&#45;&gt;Node3</title>
<g id="a_edge2_Node000001_Node000003"><a xlink:title=" ">
<path fill="none" stroke="#63b8ff" d="M171.22,-123.28C179.78,-122.1 188.37,-120.91 196.65,-119.76"/>
<polygon fill="#63b8ff" stroke="#63b8ff" points="197.15,-123.23 206.57,-118.39 196.19,-116.29 197.15,-123.23"/>
</a>
</g>
</g>
<!-- Node4 -->
<g id="Node000004" class="node">
<title>Node4</title>
<g id="a_Node000004"><a xlink:href="classdetail_1_1tm__writer.html#aea0848bf23ac12ecc1fc231def813bc8" target="_top" xlink:title=" ">
<polygon fill="white" stroke="#666666" points="455,-222 351,-222 351,-192 455,-192 455,-222"/>
<text text-anchor="start" x="359" y="-210" font-family="Helvetica,sans-Serif" font-size="10.00">detail::tm_writer::</text>
<text text-anchor="middle" x="403" y="-199" font-family="Helvetica,sans-Serif" font-size="10.00">iso_week_num</text>
</a>
</g>
</g>
<!-- Node3&#45;&gt;Node4 -->
<g id="edge3_Node000003_Node000004" class="edge">
<title>Node3&#45;&gt;Node4</title>
<g id="a_edge3_Node000003_Node000004"><a xlink:title=" ">
<path fill="none" stroke="#63b8ff" d="M301.25,-126.02C306.11,-128.66 310.82,-131.65 315,-135 335.8,-151.69 330.32,-166.16 351,-183 352.54,-184.25 354.15,-185.46 355.82,-186.61"/>
<polygon fill="#63b8ff" stroke="#63b8ff" points="354.16,-189.7 364.5,-191.99 357.84,-183.75 354.16,-189.7"/>
</a>
</g>
</g>
<!-- Node5 -->
<g id="Node000005" class="node">
<title>Node5</title>
<g id="a_Node000005"><a xlink:href="classdetail_1_1tm__writer.html#ac6bcd1b35ef246a2366e37f4738b095e" target="_top" xlink:title=" ">
<polygon fill="white" stroke="#666666" points="455,-174 351,-174 351,-144 455,-144 455,-174"/>
<text text-anchor="start" x="359" y="-162" font-family="Helvetica,sans-Serif" font-size="10.00">detail::tm_writer::</text>
<text text-anchor="middle" x="403" y="-151" font-family="Helvetica,sans-Serif" font-size="10.00">iso_year_weeks</text>
</a>
</g>
</g>
<!-- Node3&#45;&gt;Node5 -->
<g id="edge4_Node000003_Node000005" class="edge">
<title>Node3&#45;&gt;Node5</title>
<g id="a_edge4_Node000003_Node000005"><a xlink:title=" ">
<path fill="none" stroke="#63b8ff" d="M305.91,-126.06C319.46,-130.7 334.54,-135.87 348.65,-140.71"/>
<polygon fill="#63b8ff" stroke="#63b8ff" points="347.65,-144.07 358.24,-144 349.92,-137.44 347.65,-144.07"/>
</a>
</g>
</g>
<!-- Node6 -->
<g id="Node000006" class="node">
<title>Node6</title>
<g id="a_Node000006"><a xlink:href="classdetail_1_1tm__writer.html#a1b267d2dee9041f4858847d49d87dabf" target="_top" xlink:title=" ">
<polygon fill="white" stroke="#666666" points="455,-126 351,-126 351,-96 455,-96 455,-126"/>
<text text-anchor="start" x="359" y="-114" font-family="Helvetica,sans-Serif" font-size="10.00">detail::tm_writer::</text>
<text text-anchor="middle" x="403" y="-103" font-family="Helvetica,sans-Serif" font-size="10.00">tm_wday</text>
</a>
</g>
</g>
<!-- Node3&#45;&gt;Node6 -->
<g id="edge5_Node000003_Node000006" class="edge">
<title>Node3&#45;&gt;Node6</title>
<g id="a_edge5_Node000003_Node000006"><a xlink:title=" ">
<path fill="none" stroke="#63b8ff" d="M315.33,-111C323.57,-111 332.14,-111 340.54,-111"/>
<polygon fill="#63b8ff" stroke="#63b8ff" points="340.67,-114.5 350.67,-111 340.67,-107.5 340.67,-114.5"/>
</a>
</g>
</g>
<!-- Node7 -->
<g id="Node000007" class="node">
<title>Node7</title>
<g id="a_Node000007"><a xlink:href="classdetail_1_1tm__writer.html#ad3f344b40cfb8d03c73022000f799c72" target="_top" xlink:title=" ">
<polygon fill="white" stroke="#666666" points="455,-78 351,-78 351,-48 455,-48 455,-78"/>
<text text-anchor="start" x="359" y="-66" font-family="Helvetica,sans-Serif" font-size="10.00">detail::tm_writer::</text>
<text text-anchor="middle" x="403" y="-55" font-family="Helvetica,sans-Serif" font-size="10.00">tm_yday</text>
</a>
</g>
</g>
<!-- Node3&#45;&gt;Node7 -->
<g id="edge6_Node000003_Node000007" class="edge">
<title>Node3&#45;&gt;Node7</title>
<g id="a_edge6_Node000003_Node000007"><a xlink:title=" ">
<path fill="none" stroke="#63b8ff" d="M305.91,-95.94C319.46,-91.3 334.54,-86.13 348.65,-81.29"/>
<polygon fill="#63b8ff" stroke="#63b8ff" points="349.92,-84.56 358.24,-78 347.65,-77.93 349.92,-84.56"/>
</a>
</g>
</g>
<!-- Node8 -->
<g id="Node000008" class="node">
<title>Node8</title>
<g id="a_Node000008"><a xlink:href="classdetail_1_1tm__writer.html#a82bed31c275dcb4710557360e5d3ab58" target="_top" xlink:title=" ">
<polygon fill="white" stroke="#666666" points="455,-30 351,-30 351,0 455,0 455,-30"/>
<text text-anchor="start" x="359" y="-18" font-family="Helvetica,sans-Serif" font-size="10.00">detail::tm_writer::</text>
<text text-anchor="middle" x="403" y="-7" font-family="Helvetica,sans-Serif" font-size="10.00">tm_year</text>
</a>
</g>
</g>
<!-- Node3&#45;&gt;Node8 -->
<g id="edge7_Node000003_Node000008" class="edge">
<title>Node3&#45;&gt;Node8</title>
<g id="a_edge7_Node000003_Node000008"><a xlink:title=" ">
<path fill="none" stroke="#63b8ff" d="M278.15,-95.92C295.33,-80.39 323.72,-56.1 351,-39 353.29,-37.56 355.68,-36.16 358.13,-34.79"/>
<polygon fill="#63b8ff" stroke="#63b8ff" points="359.9,-37.81 367.11,-30.04 356.63,-31.62 359.9,-37.81"/>
</a>
</g>
</g>
</g>
</svg>
