<?xml version="1.0" encoding="UTF-8" standalone="no"?>
<!DOCTYPE svg PUBLIC "-//W3C//DTD SVG 1.1//EN"
 "http://www.w3.org/Graphics/SVG/1.1/DTD/svg11.dtd">
<!-- Generated by graphviz version 2.43.0 (0)
 -->
<!-- Title: detail::container_buffer&lt; Container &gt; Pages: 1 -->
<svg width="181pt" height="171pt"
 viewBox="0.00 0.00 181.00 171.00" xmlns="http://www.w3.org/2000/svg" xmlns:xlink="http://www.w3.org/1999/xlink">
<g id="graph0" class="graph" transform="scale(1 1) rotate(0) translate(4 167)">
<title>detail::container_buffer&lt; Container &gt;</title>
<!-- Node1 -->
<g id="Node000001" class="node">
<title>Node1</title>
<g id="a_Node000001"><a xlink:title=" ">
<polygon fill="#999999" stroke="#666666" points="133.5,-30 3.5,-30 3.5,0 133.5,0 133.5,-30"/>
<text text-anchor="start" x="11.5" y="-18" font-family="Helvetica,sans-Serif" font-size="10.00">detail::container_buffer</text>
<text text-anchor="middle" x="68.5" y="-7" font-family="Helvetica,sans-Serif" font-size="10.00">&lt; Container &gt;</text>
</a>
</g>
</g>
<!-- Node2 -->
<g id="Node000002" class="node">
<title>Node2</title>
<g id="a_Node000002"><a xlink:href="classdetail_1_1buffer.html" target="_top" xlink:title=" ">
<polygon fill="white" stroke="#666666" points="137,-97 0,-97 0,-67 137,-67 137,-97"/>
<text text-anchor="start" x="8" y="-85" font-family="Helvetica,sans-Serif" font-size="10.00">detail::buffer&lt; Container</text>
<text text-anchor="middle" x="68.5" y="-74" font-family="Helvetica,sans-Serif" font-size="10.00">::value_type &gt;</text>
</a>
</g>
</g>
<!-- Node2&#45;&gt;Node1 -->
<g id="edge1_Node000001_Node000002" class="edge">
<title>Node2&#45;&gt;Node1</title>
<g id="a_edge1_Node000001_Node000002"><a xlink:title=" ">
<path fill="none" stroke="#63b8ff" d="M68.5,-56.61C68.5,-47.65 68.5,-37.82 68.5,-30.08"/>
<polygon fill="#63b8ff" stroke="#63b8ff" points="65,-56.9 68.5,-66.9 72,-56.9 65,-56.9"/>
</a>
</g>
</g>
<!-- Node3 -->
<g id="Node000003" class="node">
<title>Node3</title>
<g id="a_Node000003"><a xlink:href="classdetail_1_1buffer.html" target="_top" xlink:title=" ">
<polygon fill="white" stroke="#666666" points="122,-163 15,-163 15,-144 122,-144 122,-163"/>
<text text-anchor="middle" x="68.5" y="-151" font-family="Helvetica,sans-Serif" font-size="10.00">detail::buffer&lt; T &gt;</text>
</a>
</g>
</g>
<!-- Node3&#45;&gt;Node2 -->
<g id="edge2_Node000002_Node000003" class="edge">
<title>Node3&#45;&gt;Node2</title>
<g id="a_edge2_Node000002_Node000003"><a xlink:title=" ">
<path fill="none" stroke="#9a32cd" stroke-dasharray="5,2" d="M68.5,-133.71C68.5,-122.19 68.5,-107.68 68.5,-97.14"/>
<polygon fill="#9a32cd" stroke="#9a32cd" points="65,-133.98 68.5,-143.98 72,-133.98 65,-133.98"/>
</a>
</g>
<text text-anchor="middle" x="85" y="-118" font-family="Helvetica,sans-Serif" font-size="10.00" fill="grey"> grow_</text>
</g>
<!-- Node3&#45;&gt;Node3 -->
<g id="edge3_Node000003_Node000003" class="edge">
<title>Node3&#45;&gt;Node3</title>
<g id="a_edge3_Node000003_Node000003"><a xlink:title=" ">
<path fill="none" stroke="#9a32cd" stroke-dasharray="5,2" d="M132.38,-157.96C137.1,-156.96 140,-155.47 140,-153.5 140,-150.34 132.58,-148.43 122.13,-147.77"/>
<polygon fill="#9a32cd" stroke="#9a32cd" points="131.62,-154.53 122.13,-159.23 132.49,-161.47 131.62,-154.53"/>
</a>
</g>
<text text-anchor="middle" x="156.5" y="-151" font-family="Helvetica,sans-Serif" font-size="10.00" fill="grey"> grow_</text>
</g>
</g>
</svg>
