<?xml version="1.0" encoding="UTF-8" standalone="no"?>
<!DOCTYPE svg PUBLIC "-//W3C//DTD SVG 1.1//EN"
 "http://www.w3.org/Graphics/SVG/1.1/DTD/svg11.dtd">
<!-- Generated by graphviz version 2.43.0 (0)
 -->
<!-- Title: PiHal::pulseIn Pages: 1 -->
<svg width="231pt" height="101pt"
 viewBox="0.00 0.00 231.00 101.00" xmlns="http://www.w3.org/2000/svg" xmlns:xlink="http://www.w3.org/1999/xlink">
<g id="graph0" class="graph" transform="scale(1 1) rotate(0) translate(4 97)">
<title>PiHal::pulseIn</title>
<!-- Node1 -->
<g id="Node000001" class="node">
<title>Node1</title>
<g id="a_Node000001"><a xlink:title="Measure the length of incoming digital pulse in microseconds. Must be implemented by the platform&#45;spe...">
<polygon fill="#999999" stroke="#666666" points="83,-56 0,-56 0,-37 83,-37 83,-56"/>
<text text-anchor="middle" x="41.5" y="-44" font-family="Helvetica,sans-Serif" font-size="10.00">PiHal::pulseIn</text>
</a>
</g>
</g>
<!-- Node2 -->
<g id="Node000002" class="node">
<title>Node2</title>
<g id="a_Node000002"><a xlink:href="classPiHal.html#ab9a8fc4f0c7c5190db9d8770bc7d635e" target="_top" xlink:title="Digital read method. Must be implemented by the platform&#45;specific hardware abstraction!">
<polygon fill="white" stroke="#666666" points="223,-93 119,-93 119,-74 223,-74 223,-93"/>
<text text-anchor="middle" x="171" y="-81" font-family="Helvetica,sans-Serif" font-size="10.00">PiHal::digitalRead</text>
</a>
</g>
</g>
<!-- Node1&#45;&gt;Node2 -->
<g id="edge1_Node000001_Node000002" class="edge">
<title>Node1&#45;&gt;Node2</title>
<g id="a_edge1_Node000001_Node000002"><a xlink:title=" ">
<path fill="none" stroke="#63b8ff" d="M75.33,-56.03C91.12,-60.61 110.25,-66.16 127.17,-71.07"/>
<polygon fill="#63b8ff" stroke="#63b8ff" points="126.25,-74.45 136.83,-73.88 128.21,-67.73 126.25,-74.45"/>
</a>
</g>
</g>
<!-- Node3 -->
<g id="Node000003" class="node">
<title>Node3</title>
<g id="a_Node000003"><a xlink:href="classPiHal.html#a99893a968bd5789511154b559f349e60" target="_top" xlink:title="Get number of microseconds since start. Must be implemented by the platform&#45;specific hardware abstrac...">
<polygon fill="white" stroke="#666666" points="211.5,-56 130.5,-56 130.5,-37 211.5,-37 211.5,-56"/>
<text text-anchor="middle" x="171" y="-44" font-family="Helvetica,sans-Serif" font-size="10.00">PiHal::micros</text>
</a>
</g>
</g>
<!-- Node1&#45;&gt;Node3 -->
<g id="edge2_Node000001_Node000003" class="edge">
<title>Node1&#45;&gt;Node3</title>
<g id="a_edge2_Node000001_Node000003"><a xlink:title=" ">
<path fill="none" stroke="#63b8ff" d="M83.19,-46.5C94.92,-46.5 107.85,-46.5 120.07,-46.5"/>
<polygon fill="#63b8ff" stroke="#63b8ff" points="120.13,-50 130.13,-46.5 120.13,-43 120.13,-50"/>
</a>
</g>
</g>
<!-- Node4 -->
<g id="Node000004" class="node">
<title>Node4</title>
<g id="a_Node000004"><a xlink:href="classPiHal.html#ad2986ed862d4c429d6527bd54e472530" target="_top" xlink:title="GPIO pin mode (input/output/...) configuration method. Must be implemented by the platform&#45;specific h...">
<polygon fill="white" stroke="#666666" points="216,-19 126,-19 126,0 216,0 216,-19"/>
<text text-anchor="middle" x="171" y="-7" font-family="Helvetica,sans-Serif" font-size="10.00">PiHal::pinMode</text>
</a>
</g>
</g>
<!-- Node1&#45;&gt;Node4 -->
<g id="edge3_Node000001_Node000004" class="edge">
<title>Node1&#45;&gt;Node4</title>
<g id="a_edge3_Node000001_Node000004"><a xlink:title=" ">
<path fill="none" stroke="#63b8ff" d="M75.33,-36.97C91.12,-32.39 110.25,-26.84 127.17,-21.93"/>
<polygon fill="#63b8ff" stroke="#63b8ff" points="128.21,-25.27 136.83,-19.12 126.25,-18.55 128.21,-25.27"/>
</a>
</g>
</g>
</g>
</svg>
