<?xml version="1.0" encoding="UTF-8" standalone="no"?>
<!DOCTYPE svg PUBLIC "-//W3C//DTD SVG 1.1//EN"
 "http://www.w3.org/Graphics/SVG/1.1/DTD/svg11.dtd">
<!-- Generated by graphviz version 2.43.0 (0)
 -->
<!-- Title: cxxopts::OptionDetails::long_names Pages: 1 -->
<svg width="1032pt" height="263pt"
 viewBox="0.00 0.00 1032.00 263.00" xmlns="http://www.w3.org/2000/svg" xmlns:xlink="http://www.w3.org/1999/xlink">
<g id="graph0" class="graph" transform="scale(1 1) rotate(0) translate(4 259)">
<title>cxxopts::OptionDetails::long_names</title>
<!-- Node1 -->
<g id="Node000001" class="node">
<title>Node1</title>
<g id="a_Node000001"><a xlink:title=" ">
<polygon fill="#999999" stroke="#666666" points="1024,-159 897,-159 897,-129 1024,-129 1024,-159"/>
<text text-anchor="start" x="905" y="-147" font-family="Helvetica,sans-Serif" font-size="10.00">cxxopts::OptionDetails</text>
<text text-anchor="middle" x="960.5" y="-136" font-family="Helvetica,sans-Serif" font-size="10.00">::long_names</text>
</a>
</g>
</g>
<!-- Node2 -->
<g id="Node000002" class="node">
<title>Node2</title>
<g id="a_Node000002"><a xlink:href="classcxxopts_1_1OptionValue.html#aeec2951c8666eb4f7f562cf526fb656b" target="_top" xlink:title=" ">
<polygon fill="white" stroke="#666666" points="861,-241.5 718,-241.5 718,-222.5 861,-222.5 861,-241.5"/>
<text text-anchor="middle" x="789.5" y="-229.5" font-family="Helvetica,sans-Serif" font-size="10.00">cxxopts::OptionValue::add</text>
</a>
</g>
</g>
<!-- Node1&#45;&gt;Node2 -->
<g id="edge1_Node000001_Node000002" class="edge">
<title>Node1&#45;&gt;Node2</title>
<g id="a_edge1_Node000001_Node000002"><a xlink:title=" ">
<path fill="none" stroke="#63b8ff" d="M928.01,-164.5C909.01,-176.46 884.07,-191.43 861,-203 846.57,-210.24 829.88,-217.17 816.36,-222.43"/>
<polygon fill="#63b8ff" stroke="#63b8ff" points="930,-167.39 936.57,-159.07 926.25,-161.48 930,-167.39"/>
</a>
</g>
</g>
<!-- Node8 -->
<g id="Node000008" class="node">
<title>Node8</title>
<g id="a_Node000008"><a xlink:href="classcxxopts_1_1OptionParser.html#a375fff61bb08268e6deb81baa0514b27" target="_top" xlink:title=" ">
<polygon fill="white" stroke="#666666" points="524,-207 402,-207 402,-177 524,-177 524,-207"/>
<text text-anchor="start" x="410" y="-195" font-family="Helvetica,sans-Serif" font-size="10.00">cxxopts::OptionParser</text>
<text text-anchor="middle" x="463" y="-184" font-family="Helvetica,sans-Serif" font-size="10.00">::finalise_aliases</text>
</a>
</g>
</g>
<!-- Node1&#45;&gt;Node8 -->
<g id="edge7_Node000001_Node000008" class="edge">
<title>Node1&#45;&gt;Node8</title>
<g id="a_edge7_Node000001_Node000008"><a xlink:title=" ">
<path fill="none" stroke="#63b8ff" d="M895.5,-161.35C884.08,-163.94 872.24,-166.3 861,-168 742.54,-185.87 602.3,-190.54 524.21,-191.7"/>
<polygon fill="#63b8ff" stroke="#63b8ff" points="896.46,-164.71 905.4,-159.02 894.86,-157.9 896.46,-164.71"/>
</a>
</g>
</g>
<!-- Node9 -->
<g id="Node000009" class="node">
<title>Node9</title>
<g id="a_Node000009"><a xlink:href="classcxxopts_1_1OptionValue.html#a69645a46405198eea09f45137f1bcf8b" target="_top" xlink:title=" ">
<polygon fill="white" stroke="#666666" points="849,-159 730,-159 730,-129 849,-129 849,-159"/>
<text text-anchor="start" x="738" y="-147" font-family="Helvetica,sans-Serif" font-size="10.00">cxxopts::OptionValue</text>
<text text-anchor="middle" x="789.5" y="-136" font-family="Helvetica,sans-Serif" font-size="10.00">::parse</text>
</a>
</g>
</g>
<!-- Node1&#45;&gt;Node9 -->
<g id="edge9_Node000001_Node000009" class="edge">
<title>Node1&#45;&gt;Node9</title>
<g id="a_edge9_Node000001_Node000009"><a xlink:title=" ">
<path fill="none" stroke="#63b8ff" d="M886.22,-144C873.78,-144 861.01,-144 849.01,-144"/>
<polygon fill="#63b8ff" stroke="#63b8ff" points="886.57,-147.5 896.57,-144 886.57,-140.5 886.57,-147.5"/>
</a>
</g>
</g>
<!-- Node12 -->
<g id="Node000012" class="node">
<title>Node12</title>
<g id="a_Node000012"><a xlink:href="classcxxopts_1_1OptionValue.html#a58f4dc95f2a36c01f64c026baae6795f" target="_top" xlink:title=" ">
<polygon fill="white" stroke="#666666" points="849,-106 730,-106 730,-76 849,-76 849,-106"/>
<text text-anchor="start" x="738" y="-94" font-family="Helvetica,sans-Serif" font-size="10.00">cxxopts::OptionValue</text>
<text text-anchor="middle" x="789.5" y="-83" font-family="Helvetica,sans-Serif" font-size="10.00">::parse_default</text>
</a>
</g>
</g>
<!-- Node1&#45;&gt;Node12 -->
<g id="edge14_Node000001_Node000012" class="edge">
<title>Node1&#45;&gt;Node12</title>
<g id="a_edge14_Node000001_Node000012"><a xlink:title=" ">
<path fill="none" stroke="#63b8ff" d="M901.93,-125.95C881.32,-119.48 858.32,-112.27 838.6,-106.08"/>
<polygon fill="#63b8ff" stroke="#63b8ff" points="900.93,-129.3 911.52,-128.95 903.03,-122.62 900.93,-129.3"/>
</a>
</g>
</g>
<!-- Node14 -->
<g id="Node000014" class="node">
<title>Node14</title>
<g id="a_Node000014"><a xlink:href="classcxxopts_1_1OptionValue.html#a85af628f49023ea63e1983d1f350cb34" target="_top" xlink:title=" ">
<polygon fill="white" stroke="#666666" points="849,-49 730,-49 730,-19 849,-19 849,-49"/>
<text text-anchor="start" x="738" y="-37" font-family="Helvetica,sans-Serif" font-size="10.00">cxxopts::OptionValue</text>
<text text-anchor="middle" x="789.5" y="-26" font-family="Helvetica,sans-Serif" font-size="10.00">::parse_no_value</text>
</a>
</g>
</g>
<!-- Node1&#45;&gt;Node14 -->
<g id="edge17_Node000001_Node000014" class="edge">
<title>Node1&#45;&gt;Node14</title>
<g id="a_edge17_Node000001_Node000014"><a xlink:title=" ">
<path fill="none" stroke="#63b8ff" d="M934.88,-122.2C915.62,-105.79 887.71,-83.4 861,-67 850.29,-60.42 838.06,-54.27 826.82,-49.1"/>
<polygon fill="#63b8ff" stroke="#63b8ff" points="932.72,-124.96 942.58,-128.83 937.29,-119.65 932.72,-124.96"/>
</a>
</g>
</g>
<!-- Node3 -->
<g id="Node000003" class="node">
<title>Node3</title>
<g id="a_Node000003"><a xlink:href="classcxxopts_1_1OptionParser.html#a6445f8081bffcb7ab31d241a200b9f04" target="_top" xlink:title=" ">
<polygon fill="white" stroke="#666666" points="682,-251 560,-251 560,-221 682,-221 682,-251"/>
<text text-anchor="start" x="568" y="-239" font-family="Helvetica,sans-Serif" font-size="10.00">cxxopts::OptionParser</text>
<text text-anchor="middle" x="621" y="-228" font-family="Helvetica,sans-Serif" font-size="10.00">::add_to_option</text>
</a>
</g>
</g>
<!-- Node2&#45;&gt;Node3 -->
<g id="edge2_Node000002_Node000003" class="edge">
<title>Node2&#45;&gt;Node3</title>
<g id="a_edge2_Node000002_Node000003"><a xlink:title=" ">
<path fill="none" stroke="#63b8ff" d="M707.81,-233.94C699.19,-234.15 690.53,-234.35 682.2,-234.55"/>
<polygon fill="#63b8ff" stroke="#63b8ff" points="707.98,-237.44 717.89,-233.7 707.81,-230.44 707.98,-237.44"/>
</a>
</g>
</g>
<!-- Node4 -->
<g id="Node000004" class="node">
<title>Node4</title>
<g id="a_Node000004"><a xlink:href="classcxxopts_1_1OptionParser.html#a4d595d8f6f34760bc2248d1b96af53a4" target="_top" xlink:title=" ">
<polygon fill="white" stroke="#666666" points="524,-255 402,-255 402,-225 524,-225 524,-255"/>
<text text-anchor="start" x="410" y="-243" font-family="Helvetica,sans-Serif" font-size="10.00">cxxopts::OptionParser</text>
<text text-anchor="middle" x="463" y="-232" font-family="Helvetica,sans-Serif" font-size="10.00">::consume_positional</text>
</a>
</g>
</g>
<!-- Node3&#45;&gt;Node4 -->
<g id="edge3_Node000003_Node000004" class="edge">
<title>Node3&#45;&gt;Node4</title>
<g id="a_edge3_Node000003_Node000004"><a xlink:title=" ">
<path fill="none" stroke="#63b8ff" d="M549.46,-237.81C541.01,-238.03 532.44,-238.25 524.15,-238.46"/>
<polygon fill="#63b8ff" stroke="#63b8ff" points="549.78,-241.3 559.69,-237.55 549.6,-234.3 549.78,-241.3"/>
</a>
</g>
</g>
<!-- Node5 -->
<g id="Node000005" class="node">
<title>Node5</title>
<g id="a_Node000005"><a xlink:href="classcxxopts_1_1OptionParser.html#a4218816ce33c211b54acb9e71603ea0b" target="_top" xlink:title=" ">
<polygon fill="white" stroke="#666666" points="366,-142 244,-142 244,-112 366,-112 366,-142"/>
<text text-anchor="start" x="252" y="-130" font-family="Helvetica,sans-Serif" font-size="10.00">cxxopts::OptionParser</text>
<text text-anchor="middle" x="305" y="-119" font-family="Helvetica,sans-Serif" font-size="10.00">::parse</text>
</a>
</g>
</g>
<!-- Node4&#45;&gt;Node5 -->
<g id="edge4_Node000004_Node000005" class="edge">
<title>Node4&#45;&gt;Node5</title>
<g id="a_edge4_Node000004_Node000005"><a xlink:title=" ">
<path fill="none" stroke="#63b8ff" d="M409.63,-220.43C407,-219.02 404.44,-217.55 402,-216 368.58,-194.86 336.24,-161.34 318.95,-142.04"/>
<polygon fill="#63b8ff" stroke="#63b8ff" points="408.25,-223.65 418.76,-224.95 411.35,-217.38 408.25,-223.65"/>
</a>
</g>
</g>
<!-- Node6 -->
<g id="Node000006" class="node">
<title>Node6</title>
<g id="a_Node000006"><a xlink:href="classcxxopts_1_1Options.html#a3e740564cc4c991078f1451e1fcd082b" target="_top" xlink:title=" ">
<polygon fill="white" stroke="#666666" points="208,-136.5 77,-136.5 77,-117.5 208,-117.5 208,-136.5"/>
<text text-anchor="middle" x="142.5" y="-124.5" font-family="Helvetica,sans-Serif" font-size="10.00">cxxopts::Options::parse</text>
</a>
</g>
</g>
<!-- Node5&#45;&gt;Node6 -->
<g id="edge5_Node000005_Node000006" class="edge">
<title>Node5&#45;&gt;Node6</title>
<g id="a_edge5_Node000005_Node000006"><a xlink:title=" ">
<path fill="none" stroke="#63b8ff" d="M233.55,-127C225.08,-127 216.47,-127 208.09,-127"/>
<polygon fill="#63b8ff" stroke="#63b8ff" points="233.78,-130.5 243.78,-127 233.78,-123.5 233.78,-130.5"/>
</a>
</g>
</g>
<!-- Node7 -->
<g id="Node000007" class="node">
<title>Node7</title>
<g id="a_Node000007"><a xlink:href="receiver-normal_8cpp.html#a3c04138a5bfe5d72780bb7e82a18e627" target="_top" xlink:title=" ">
<polygon fill="white" stroke="#666666" points="41,-136.5 0,-136.5 0,-117.5 41,-117.5 41,-136.5"/>
<text text-anchor="middle" x="20.5" y="-124.5" font-family="Helvetica,sans-Serif" font-size="10.00">main</text>
</a>
</g>
</g>
<!-- Node6&#45;&gt;Node7 -->
<g id="edge6_Node000006_Node000007" class="edge">
<title>Node6&#45;&gt;Node7</title>
<g id="a_edge6_Node000006_Node000007"><a xlink:title=" ">
<path fill="none" stroke="#63b8ff" d="M66.91,-127C57.43,-127 48.46,-127 41.05,-127"/>
<polygon fill="#63b8ff" stroke="#63b8ff" points="66.93,-130.5 76.93,-127 66.93,-123.5 66.93,-130.5"/>
</a>
</g>
</g>
<!-- Node8&#45;&gt;Node5 -->
<g id="edge8_Node000008_Node000005" class="edge">
<title>Node8&#45;&gt;Node5</title>
<g id="a_edge8_Node000008_Node000005"><a xlink:title=" ">
<path fill="none" stroke="#63b8ff" d="M416.36,-172.98C392.76,-163.15 364.34,-151.31 342.26,-142.11"/>
<polygon fill="#63b8ff" stroke="#63b8ff" points="415.24,-176.31 425.82,-176.92 417.93,-169.85 415.24,-176.31"/>
</a>
</g>
</g>
<!-- Node10 -->
<g id="Node000010" class="node">
<title>Node10</title>
<g id="a_Node000010"><a xlink:href="classcxxopts_1_1OptionParser.html#a07db7b6bb2095df7b75b50ed2311ffe5" target="_top" xlink:title=" ">
<polygon fill="white" stroke="#666666" points="682,-159 560,-159 560,-129 682,-129 682,-159"/>
<text text-anchor="start" x="568" y="-147" font-family="Helvetica,sans-Serif" font-size="10.00">cxxopts::OptionParser</text>
<text text-anchor="middle" x="621" y="-136" font-family="Helvetica,sans-Serif" font-size="10.00">::parse_option</text>
</a>
</g>
</g>
<!-- Node9&#45;&gt;Node10 -->
<g id="edge10_Node000009_Node000010" class="edge">
<title>Node9&#45;&gt;Node10</title>
<g id="a_edge10_Node000009_Node000010"><a xlink:title=" ">
<path fill="none" stroke="#63b8ff" d="M719.51,-144C707.11,-144 694.27,-144 682.14,-144"/>
<polygon fill="#63b8ff" stroke="#63b8ff" points="719.8,-147.5 729.8,-144 719.8,-140.5 719.8,-147.5"/>
</a>
</g>
</g>
<!-- Node10&#45;&gt;Node5 -->
<g id="edge13_Node000010_Node000005" class="edge">
<title>Node10&#45;&gt;Node5</title>
<g id="a_edge13_Node000010_Node000005"><a xlink:title=" ">
<path fill="none" stroke="#63b8ff" d="M549.78,-140.2C494.63,-137.21 418.64,-133.1 366.23,-130.26"/>
<polygon fill="#63b8ff" stroke="#63b8ff" points="549.65,-143.7 559.83,-140.74 550.03,-136.71 549.65,-143.7"/>
</a>
</g>
</g>
<!-- Node11 -->
<g id="Node000011" class="node">
<title>Node11</title>
<g id="a_Node000011"><a xlink:href="classcxxopts_1_1OptionParser.html#a0c093ba32746de7c3b08715eab961aff" target="_top" xlink:title=" ">
<polygon fill="white" stroke="#666666" points="524,-121 402,-121 402,-91 524,-91 524,-121"/>
<text text-anchor="start" x="410" y="-109" font-family="Helvetica,sans-Serif" font-size="10.00">cxxopts::OptionParser</text>
<text text-anchor="middle" x="463" y="-98" font-family="Helvetica,sans-Serif" font-size="10.00">::checked_parse_arg</text>
</a>
</g>
</g>
<!-- Node10&#45;&gt;Node11 -->
<g id="edge11_Node000010_Node000011" class="edge">
<title>Node10&#45;&gt;Node11</title>
<g id="a_edge11_Node000010_Node000011"><a xlink:title=" ">
<path fill="none" stroke="#63b8ff" d="M549.74,-126.89C541.2,-124.8 532.53,-122.69 524.15,-120.65"/>
<polygon fill="#63b8ff" stroke="#63b8ff" points="549.14,-130.34 559.69,-129.31 550.8,-123.54 549.14,-130.34"/>
</a>
</g>
</g>
<!-- Node11&#45;&gt;Node5 -->
<g id="edge12_Node000011_Node000005" class="edge">
<title>Node11&#45;&gt;Node5</title>
<g id="a_edge12_Node000011_Node000005"><a xlink:title=" ">
<path fill="none" stroke="#63b8ff" d="M391.74,-115.46C383.2,-116.61 374.53,-117.77 366.15,-118.9"/>
<polygon fill="#63b8ff" stroke="#63b8ff" points="392.24,-118.92 401.69,-114.12 391.31,-111.98 392.24,-118.92"/>
</a>
</g>
</g>
<!-- Node13 -->
<g id="Node000013" class="node">
<title>Node13</title>
<g id="a_Node000013"><a xlink:href="classcxxopts_1_1OptionParser.html#a28026f132e532009842f11359fb08373" target="_top" xlink:title=" ">
<polygon fill="white" stroke="#666666" points="524,-73 402,-73 402,-43 524,-43 524,-73"/>
<text text-anchor="start" x="410" y="-61" font-family="Helvetica,sans-Serif" font-size="10.00">cxxopts::OptionParser</text>
<text text-anchor="middle" x="463" y="-50" font-family="Helvetica,sans-Serif" font-size="10.00">::parse_default</text>
</a>
</g>
</g>
<!-- Node12&#45;&gt;Node13 -->
<g id="edge15_Node000012_Node000013" class="edge">
<title>Node12&#45;&gt;Node13</title>
<g id="a_edge15_Node000012_Node000013"><a xlink:title=" ">
<path fill="none" stroke="#63b8ff" d="M719.57,-83.99C661.62,-78.1 579.61,-69.76 524.25,-64.13"/>
<polygon fill="#63b8ff" stroke="#63b8ff" points="719.43,-87.49 729.74,-85.02 720.14,-80.53 719.43,-87.49"/>
</a>
</g>
</g>
<!-- Node13&#45;&gt;Node5 -->
<g id="edge16_Node000013_Node000005" class="edge">
<title>Node13&#45;&gt;Node5</title>
<g id="a_edge16_Node000013_Node000005"><a xlink:title=" ">
<path fill="none" stroke="#63b8ff" d="M413.98,-76.92C409.92,-78.61 405.88,-80.32 402,-82 380.05,-91.53 355.64,-102.98 336.92,-111.95"/>
<polygon fill="#63b8ff" stroke="#63b8ff" points="415.53,-80.07 423.45,-73.04 412.87,-73.59 415.53,-80.07"/>
</a>
</g>
</g>
<!-- Node15 -->
<g id="Node000015" class="node">
<title>Node15</title>
<g id="a_Node000015"><a xlink:href="classcxxopts_1_1OptionParser.html#a80bbe1ff81b5d39bf6fda208e95a0d04" target="_top" xlink:title=" ">
<polygon fill="white" stroke="#666666" points="682,-30 560,-30 560,0 682,0 682,-30"/>
<text text-anchor="start" x="568" y="-18" font-family="Helvetica,sans-Serif" font-size="10.00">cxxopts::OptionParser</text>
<text text-anchor="middle" x="621" y="-7" font-family="Helvetica,sans-Serif" font-size="10.00">::parse_no_value</text>
</a>
</g>
</g>
<!-- Node14&#45;&gt;Node15 -->
<g id="edge18_Node000014_Node000015" class="edge">
<title>Node14&#45;&gt;Node15</title>
<g id="a_edge18_Node000014_Node000015"><a xlink:title=" ">
<path fill="none" stroke="#63b8ff" d="M719.51,-26.13C707.11,-24.71 694.27,-23.25 682.14,-21.86"/>
<polygon fill="#63b8ff" stroke="#63b8ff" points="719.47,-29.64 729.8,-27.3 720.26,-22.69 719.47,-29.64"/>
</a>
</g>
</g>
<!-- Node15&#45;&gt;Node5 -->
<g id="edge19_Node000015_Node000005" class="edge">
<title>Node15&#45;&gt;Node5</title>
<g id="a_edge19_Node000015_Node000005"><a xlink:title=" ">
<path fill="none" stroke="#63b8ff" d="M549.81,-9.42C505.52,-8.67 448.17,-12.92 402,-34 364,-51.34 331.98,-90.28 316.31,-111.86"/>
<polygon fill="#63b8ff" stroke="#63b8ff" points="549.82,-12.92 559.91,-9.68 550,-5.93 549.82,-12.92"/>
</a>
</g>
</g>
</g>
</svg>
