<?xml version="1.0" encoding="UTF-8" standalone="no"?>
<!DOCTYPE svg PUBLIC "-//W3C//DTD SVG 1.1//EN"
 "http://www.w3.org/Graphics/SVG/1.1/DTD/svg11.dtd">
<!-- Generated by graphviz version 2.43.0 (0)
 -->
<!-- Title: cxxopts::Options::add_options Pages: 1 -->
<svg width="800pt" height="455pt"
 viewBox="0.00 0.00 800.00 455.00" xmlns="http://www.w3.org/2000/svg" xmlns:xlink="http://www.w3.org/1999/xlink">
<g id="graph0" class="graph" transform="scale(1 1) rotate(0) translate(4 451)">
<title>cxxopts::Options::add_options</title>
<!-- Node1 -->
<g id="Node000001" class="node">
<title>Node1</title>
<g id="a_Node000001"><a xlink:title=" ">
<polygon fill="#999999" stroke="#666666" points="122,-54 0,-54 0,-24 122,-24 122,-54"/>
<text text-anchor="start" x="8" y="-42" font-family="Helvetica,sans-Serif" font-size="10.00">cxxopts::Options::add</text>
<text text-anchor="middle" x="61" y="-31" font-family="Helvetica,sans-Serif" font-size="10.00">_options</text>
</a>
</g>
</g>
<!-- Node2 -->
<g id="Node000002" class="node">
<title>Node2</title>
<g id="a_Node000002"><a xlink:href="classcxxopts_1_1OptionAdder.html#a4feb747760c5fbaa807a4c8e1c335ac5" target="_top" xlink:title=" ">
<polygon fill="white" stroke="#666666" points="279,-78 158,-78 158,-48 279,-48 279,-78"/>
<text text-anchor="start" x="166" y="-66" font-family="Helvetica,sans-Serif" font-size="10.00">cxxopts::OptionAdder</text>
<text text-anchor="middle" x="218.5" y="-55" font-family="Helvetica,sans-Serif" font-size="10.00">::operator()</text>
</a>
</g>
</g>
<!-- Node1&#45;&gt;Node2 -->
<g id="edge1_Node000001_Node000002" class="edge">
<title>Node1&#45;&gt;Node2</title>
<g id="a_edge1_Node000001_Node000002"><a xlink:title=" ">
<path fill="none" stroke="#63b8ff" d="M122.12,-48.28C130.54,-49.58 139.24,-50.92 147.82,-52.24"/>
<polygon fill="#63b8ff" stroke="#63b8ff" points="147.38,-55.72 157.8,-53.79 148.45,-48.8 147.38,-55.72"/>
</a>
</g>
</g>
<!-- Node14 -->
<g id="Node000014" class="node">
<title>Node14</title>
<g id="a_Node000014"><a xlink:href="classcxxopts_1_1OptionAdder.html#ac9da55d72245e55eed70486200a60728" target="_top" xlink:title=" ">
<polygon fill="white" stroke="#666666" points="279,-30 158,-30 158,0 279,0 279,-30"/>
<text text-anchor="start" x="166" y="-18" font-family="Helvetica,sans-Serif" font-size="10.00">cxxopts::OptionAdder</text>
<text text-anchor="middle" x="218.5" y="-7" font-family="Helvetica,sans-Serif" font-size="10.00">::OptionAdder</text>
</a>
</g>
</g>
<!-- Node1&#45;&gt;Node14 -->
<g id="edge15_Node000001_Node000014" class="edge">
<title>Node1&#45;&gt;Node14</title>
<g id="a_edge15_Node000001_Node000014"><a xlink:title=" ">
<path fill="none" stroke="#63b8ff" d="M122.12,-29.72C130.54,-28.42 139.24,-27.08 147.82,-25.76"/>
<polygon fill="#63b8ff" stroke="#63b8ff" points="148.45,-29.2 157.8,-24.21 147.38,-22.28 148.45,-29.2"/>
</a>
</g>
</g>
<!-- Node3 -->
<g id="Node000003" class="node">
<title>Node3</title>
<g id="a_Node000003"><a xlink:href="classcxxopts_1_1Options.html#a353100b81684422664822103672a841a" target="_top" xlink:title=" ">
<polygon fill="white" stroke="#666666" points="447,-255 325,-255 325,-225 447,-225 447,-255"/>
<text text-anchor="start" x="333" y="-243" font-family="Helvetica,sans-Serif" font-size="10.00">cxxopts::Options::add</text>
<text text-anchor="middle" x="386" y="-232" font-family="Helvetica,sans-Serif" font-size="10.00">_option</text>
</a>
</g>
</g>
<!-- Node2&#45;&gt;Node3 -->
<g id="edge2_Node000002_Node000003" class="edge">
<title>Node2&#45;&gt;Node3</title>
<g id="a_edge2_Node000002_Node000003"><a xlink:title=" ">
<path fill="none" stroke="#63b8ff" d="M233.61,-78.09C262.68,-109.18 329.39,-180.52 363.72,-217.24"/>
<polygon fill="#63b8ff" stroke="#63b8ff" points="361.54,-220.03 370.93,-224.95 366.65,-215.25 361.54,-220.03"/>
</a>
</g>
</g>
<!-- Node5 -->
<g id="Node000005" class="node">
<title>Node5</title>
<g id="a_Node000005"><a xlink:href="namespacecxxopts.html#a466f47408560fa08e43bf48ec2366b22" target="_top" xlink:title=" ">
<polygon fill="white" stroke="#666666" points="792,-72.5 653,-72.5 653,-53.5 792,-53.5 792,-72.5"/>
<text text-anchor="middle" x="722.5" y="-60.5" font-family="Helvetica,sans-Serif" font-size="10.00">cxxopts::throw_or_mimic</text>
</a>
</g>
</g>
<!-- Node2&#45;&gt;Node5 -->
<g id="edge14_Node000002_Node000005" class="edge">
<title>Node2&#45;&gt;Node5</title>
<g id="a_edge14_Node000002_Node000005"><a xlink:title=" ">
<path fill="none" stroke="#63b8ff" d="M279.06,-63C369.58,-63 541.88,-63 642.68,-63"/>
<polygon fill="#63b8ff" stroke="#63b8ff" points="642.8,-66.5 652.8,-63 642.8,-59.5 642.8,-66.5"/>
</a>
</g>
</g>
<!-- Node13 -->
<g id="Node000013" class="node">
<title>Node13</title>
<g id="a_Node000013"><a xlink:href="namespacecxxopts_1_1values_1_1parser__tool.html#a3aaed7a5c0641e8eb84f2888ff499bbb" target="_top" xlink:title=" ">
<polygon fill="white" stroke="#666666" points="457,-35 315,-35 315,-5 457,-5 457,-35"/>
<text text-anchor="start" x="323" y="-23" font-family="Helvetica,sans-Serif" font-size="10.00">cxxopts::values::parser</text>
<text text-anchor="middle" x="386" y="-12" font-family="Helvetica,sans-Serif" font-size="10.00">_tool::split_option_names</text>
</a>
</g>
</g>
<!-- Node2&#45;&gt;Node13 -->
<g id="edge12_Node000002_Node000013" class="edge">
<title>Node2&#45;&gt;Node13</title>
<g id="a_edge12_Node000002_Node000013"><a xlink:title=" ">
<path fill="none" stroke="#63b8ff" d="M277.38,-47.96C290.23,-44.62 303.97,-41.05 317.17,-37.62"/>
<polygon fill="#63b8ff" stroke="#63b8ff" points="318.35,-40.93 327.15,-35.03 316.59,-34.16 318.35,-40.93"/>
</a>
</g>
</g>
<!-- Node4 -->
<g id="Node000004" class="node">
<title>Node4</title>
<g id="a_Node000004"><a xlink:href="classcxxopts_1_1Options.html#a6a7ca6845bfe17a801b0c3f229655f42" target="_top" xlink:title=" ">
<polygon fill="white" stroke="#666666" points="616,-447 494,-447 494,-417 616,-417 616,-447"/>
<text text-anchor="start" x="502" y="-435" font-family="Helvetica,sans-Serif" font-size="10.00">cxxopts::Options::add</text>
<text text-anchor="middle" x="555" y="-424" font-family="Helvetica,sans-Serif" font-size="10.00">_one_option</text>
</a>
</g>
</g>
<!-- Node3&#45;&gt;Node4 -->
<g id="edge3_Node000003_Node000004" class="edge">
<title>Node3&#45;&gt;Node4</title>
<g id="a_edge3_Node000003_Node000004"><a xlink:title=" ">
<path fill="none" stroke="#63b8ff" d="M392.76,-255.26C405.75,-287.77 440.4,-364.46 493,-408 494.55,-409.28 496.17,-410.5 497.85,-411.65"/>
<polygon fill="#63b8ff" stroke="#63b8ff" points="496.28,-414.79 506.65,-416.95 499.89,-408.8 496.28,-414.79"/>
</a>
</g>
</g>
<!-- Node6 -->
<g id="Node000006" class="node">
<title>Node6</title>
<g id="a_Node000006"><a xlink:href="classcxxopts_1_1Value.html#a25ac95c499771a6f5ca295e01452f380" target="_top" xlink:title=" ">
<polygon fill="white" stroke="#666666" points="609.5,-399 500.5,-399 500.5,-369 609.5,-369 609.5,-399"/>
<text text-anchor="start" x="508.5" y="-387" font-family="Helvetica,sans-Serif" font-size="10.00">cxxopts::Value::get</text>
<text text-anchor="middle" x="555" y="-376" font-family="Helvetica,sans-Serif" font-size="10.00">_default_value</text>
</a>
</g>
</g>
<!-- Node3&#45;&gt;Node6 -->
<g id="edge5_Node000003_Node000006" class="edge">
<title>Node3&#45;&gt;Node6</title>
<g id="a_edge5_Node000003_Node000006"><a xlink:title=" ">
<path fill="none" stroke="#63b8ff" d="M396.94,-255.36C413.88,-280.43 450.65,-330.34 493,-360 495.08,-361.46 497.26,-362.84 499.51,-364.16"/>
<polygon fill="#63b8ff" stroke="#63b8ff" points="497.97,-367.3 508.44,-368.88 501.24,-361.11 497.97,-367.3"/>
</a>
</g>
</g>
<!-- Node7 -->
<g id="Node000007" class="node">
<title>Node7</title>
<g id="a_Node000007"><a xlink:href="classcxxopts_1_1Value.html#a436f0a8a6621de420088839f4c728230" target="_top" xlink:title=" ">
<polygon fill="white" stroke="#666666" points="609.5,-351 500.5,-351 500.5,-321 609.5,-321 609.5,-351"/>
<text text-anchor="start" x="508.5" y="-339" font-family="Helvetica,sans-Serif" font-size="10.00">cxxopts::Value::get</text>
<text text-anchor="middle" x="555" y="-328" font-family="Helvetica,sans-Serif" font-size="10.00">_implicit_value</text>
</a>
</g>
</g>
<!-- Node3&#45;&gt;Node7 -->
<g id="edge6_Node000003_Node000007" class="edge">
<title>Node3&#45;&gt;Node7</title>
<g id="a_edge6_Node000003_Node000007"><a xlink:title=" ">
<path fill="none" stroke="#63b8ff" d="M406.49,-255.19C427.15,-270.81 461.13,-295.17 493,-312 496.11,-313.64 499.37,-315.24 502.68,-316.78"/>
<polygon fill="#63b8ff" stroke="#63b8ff" points="501.54,-320.1 512.1,-320.94 504.37,-313.7 501.54,-320.1"/>
</a>
</g>
</g>
<!-- Node8 -->
<g id="Node000008" class="node">
<title>Node8</title>
<g id="a_Node000008"><a xlink:href="classcxxopts_1_1Value.html#aac3233a0414ac39d54ed0b98365afc7e" target="_top" xlink:title=" ">
<polygon fill="white" stroke="#666666" points="610,-303 500,-303 500,-273 610,-273 610,-303"/>
<text text-anchor="start" x="508" y="-291" font-family="Helvetica,sans-Serif" font-size="10.00">cxxopts::Value::has</text>
<text text-anchor="middle" x="555" y="-280" font-family="Helvetica,sans-Serif" font-size="10.00">_default</text>
</a>
</g>
</g>
<!-- Node3&#45;&gt;Node8 -->
<g id="edge7_Node000003_Node000008" class="edge">
<title>Node3&#45;&gt;Node8</title>
<g id="a_edge7_Node000003_Node000008"><a xlink:title=" ">
<path fill="none" stroke="#63b8ff" d="M439.38,-255.06C456.01,-259.84 474.57,-265.17 491.82,-270.13"/>
<polygon fill="#63b8ff" stroke="#63b8ff" points="491.23,-273.6 501.8,-273 493.16,-266.87 491.23,-273.6"/>
</a>
</g>
</g>
<!-- Node9 -->
<g id="Node000009" class="node">
<title>Node9</title>
<g id="a_Node000009"><a xlink:href="classcxxopts_1_1Value.html#aac3425b87db8ef41157892449999b183" target="_top" xlink:title=" ">
<polygon fill="white" stroke="#666666" points="610,-255 500,-255 500,-225 610,-225 610,-255"/>
<text text-anchor="start" x="508" y="-243" font-family="Helvetica,sans-Serif" font-size="10.00">cxxopts::Value::has</text>
<text text-anchor="middle" x="555" y="-232" font-family="Helvetica,sans-Serif" font-size="10.00">_implicit</text>
</a>
</g>
</g>
<!-- Node3&#45;&gt;Node9 -->
<g id="edge8_Node000003_Node000009" class="edge">
<title>Node3&#45;&gt;Node9</title>
<g id="a_edge8_Node000003_Node000009"><a xlink:title=" ">
<path fill="none" stroke="#63b8ff" d="M447.29,-240C461.12,-240 475.88,-240 489.87,-240"/>
<polygon fill="#63b8ff" stroke="#63b8ff" points="489.9,-243.5 499.9,-240 489.9,-236.5 489.9,-243.5"/>
</a>
</g>
</g>
<!-- Node10 -->
<g id="Node000010" class="node">
<title>Node10</title>
<g id="a_Node000010"><a xlink:href="classcxxopts_1_1Value.html#a77a4a731bcbbd95afca43f82affe5aaa" target="_top" xlink:title=" ">
<polygon fill="white" stroke="#666666" points="605.5,-207 504.5,-207 504.5,-177 605.5,-177 605.5,-207"/>
<text text-anchor="start" x="512.5" y="-195" font-family="Helvetica,sans-Serif" font-size="10.00">cxxopts::Value::is</text>
<text text-anchor="middle" x="555" y="-184" font-family="Helvetica,sans-Serif" font-size="10.00">_boolean</text>
</a>
</g>
</g>
<!-- Node3&#45;&gt;Node10 -->
<g id="edge9_Node000003_Node000010" class="edge">
<title>Node3&#45;&gt;Node10</title>
<g id="a_edge9_Node000003_Node000010"><a xlink:title=" ">
<path fill="none" stroke="#63b8ff" d="M439.38,-224.94C456.9,-219.91 476.54,-214.26 494.55,-209.09"/>
<polygon fill="#63b8ff" stroke="#63b8ff" points="495.72,-212.39 504.37,-206.27 493.79,-205.66 495.72,-212.39"/>
</a>
</g>
</g>
<!-- Node11 -->
<g id="Node000011" class="node">
<title>Node11</title>
<g id="a_Node000011"><a xlink:href="classcxxopts_1_1Value.html#a632f3263dd598e30999a6bcff0652132" target="_top" xlink:title=" ">
<polygon fill="white" stroke="#666666" points="605.5,-159 504.5,-159 504.5,-129 605.5,-129 605.5,-159"/>
<text text-anchor="start" x="512.5" y="-147" font-family="Helvetica,sans-Serif" font-size="10.00">cxxopts::Value::is</text>
<text text-anchor="middle" x="555" y="-136" font-family="Helvetica,sans-Serif" font-size="10.00">_container</text>
</a>
</g>
</g>
<!-- Node3&#45;&gt;Node11 -->
<g id="edge10_Node000003_Node000011" class="edge">
<title>Node3&#45;&gt;Node11</title>
<g id="a_edge10_Node000003_Node000011"><a xlink:title=" ">
<path fill="none" stroke="#63b8ff" d="M406.49,-224.81C427.15,-209.19 461.13,-184.83 493,-168 496.11,-166.36 499.37,-164.76 502.68,-163.22"/>
<polygon fill="#63b8ff" stroke="#63b8ff" points="504.37,-166.3 512.1,-159.06 501.54,-159.9 504.37,-166.3"/>
</a>
</g>
</g>
<!-- Node12 -->
<g id="Node000012" class="node">
<title>Node12</title>
<g id="a_Node000012"><a xlink:href="namespacecxxopts.html#ac8ee50fdeb30245d157343a3bade9ede" target="_top" xlink:title=" ">
<polygon fill="white" stroke="#666666" points="617,-110.5 493,-110.5 493,-91.5 617,-91.5 617,-110.5"/>
<text text-anchor="middle" x="555" y="-98.5" font-family="Helvetica,sans-Serif" font-size="10.00">cxxopts::toLocalString</text>
</a>
</g>
</g>
<!-- Node3&#45;&gt;Node12 -->
<g id="edge11_Node000003_Node000012" class="edge">
<title>Node3&#45;&gt;Node12</title>
<g id="a_edge11_Node000003_Node000012"><a xlink:title=" ">
<path fill="none" stroke="#63b8ff" d="M396.44,-224.7C412.92,-199.26 449.37,-148.25 493,-120 496.17,-117.95 499.57,-116.11 503.08,-114.46"/>
<polygon fill="#63b8ff" stroke="#63b8ff" points="504.69,-117.58 512.59,-110.52 502.01,-111.12 504.69,-117.58"/>
</a>
</g>
</g>
<!-- Node4&#45;&gt;Node5 -->
<g id="edge4_Node000004_Node000005" class="edge">
<title>Node4&#45;&gt;Node5</title>
<g id="a_edge4_Node000004_Node000005"><a xlink:title=" ">
<path fill="none" stroke="#63b8ff" d="M606.11,-416.91C610.12,-414.38 613.84,-411.43 617,-408 706.12,-311.38 719.35,-141.08 721.22,-83.03"/>
<polygon fill="#63b8ff" stroke="#63b8ff" points="724.73,-82.77 721.47,-72.69 717.73,-82.61 724.73,-82.77"/>
</a>
</g>
</g>
<!-- Node13&#45;&gt;Node5 -->
<g id="edge13_Node000013_Node000005" class="edge">
<title>Node13&#45;&gt;Node5</title>
<g id="a_edge13_Node000013_Node000005"><a xlink:title=" ">
<path fill="none" stroke="#63b8ff" d="M457.23,-28.71C502.78,-34.4 563.42,-42.03 617,-49 625.35,-50.09 634.07,-51.23 642.77,-52.39"/>
<polygon fill="#63b8ff" stroke="#63b8ff" points="642.56,-55.89 652.93,-53.74 643.48,-48.95 642.56,-55.89"/>
</a>
</g>
</g>
</g>
</svg>
