<?xml version="1.0" encoding="UTF-8" standalone="no"?>
<!DOCTYPE svg PUBLIC "-//W3C//DTD SVG 1.1//EN"
 "http://www.w3.org/Graphics/SVG/1.1/DTD/svg11.dtd">
<!-- Generated by graphviz version 2.43.0 (0)
 -->
<!-- Title: detail::tm_writer::on_us_date Pages: 1 -->
<svg width="252pt" height="182pt"
 viewBox="0.00 0.00 252.00 182.00" xmlns="http://www.w3.org/2000/svg" xmlns:xlink="http://www.w3.org/1999/xlink">
<g id="graph0" class="graph" transform="scale(1 1) rotate(0) translate(4 178)">
<title>detail::tm_writer::on_us_date</title>
<!-- Node1 -->
<g id="Node000001" class="node">
<title>Node1</title>
<g id="a_Node000001"><a xlink:title=" ">
<polygon fill="#999999" stroke="#666666" points="104,-102 0,-102 0,-72 104,-72 104,-102"/>
<text text-anchor="start" x="8" y="-90" font-family="Helvetica,sans-Serif" font-size="10.00">detail::tm_writer::</text>
<text text-anchor="middle" x="52" y="-79" font-family="Helvetica,sans-Serif" font-size="10.00">on_us_date</text>
</a>
</g>
</g>
<!-- Node2 -->
<g id="Node000002" class="node">
<title>Node2</title>
<g id="a_Node000002"><a xlink:href="classdetail_1_1tm__writer.html#a99d7ce114df249b93ff4721a1c244351" target="_top" xlink:title=" ">
<polygon fill="white" stroke="#666666" points="244,-174 140,-174 140,-144 244,-144 244,-174"/>
<text text-anchor="start" x="148" y="-162" font-family="Helvetica,sans-Serif" font-size="10.00">detail::tm_writer::</text>
<text text-anchor="middle" x="192" y="-151" font-family="Helvetica,sans-Serif" font-size="10.00">split_year_lower</text>
</a>
</g>
</g>
<!-- Node1&#45;&gt;Node2 -->
<g id="edge1_Node000001_Node000002" class="edge">
<title>Node1&#45;&gt;Node2</title>
<g id="a_edge1_Node000001_Node000002"><a xlink:title=" ">
<path fill="none" stroke="#63b8ff" d="M79.42,-102.15C96.54,-111.83 119.41,-124.49 140,-135 142.92,-136.49 145.95,-138 149.01,-139.5"/>
<polygon fill="#63b8ff" stroke="#63b8ff" points="147.67,-142.75 158.2,-143.95 150.72,-136.44 147.67,-142.75"/>
</a>
</g>
</g>
<!-- Node3 -->
<g id="Node000003" class="node">
<title>Node3</title>
<g id="a_Node000003"><a xlink:href="classdetail_1_1tm__writer.html#a315a3d867c7f3e1aaa567c45a65f04da" target="_top" xlink:title=" ">
<polygon fill="white" stroke="#666666" points="244,-126 140,-126 140,-96 244,-96 244,-126"/>
<text text-anchor="start" x="148" y="-114" font-family="Helvetica,sans-Serif" font-size="10.00">detail::tm_writer::</text>
<text text-anchor="middle" x="192" y="-103" font-family="Helvetica,sans-Serif" font-size="10.00">tm_mday</text>
</a>
</g>
</g>
<!-- Node1&#45;&gt;Node3 -->
<g id="edge2_Node000001_Node000003" class="edge">
<title>Node1&#45;&gt;Node3</title>
<g id="a_edge2_Node000001_Node000003"><a xlink:title=" ">
<path fill="none" stroke="#63b8ff" d="M104.39,-95.94C112.56,-97.36 121.08,-98.84 129.46,-100.3"/>
<polygon fill="#63b8ff" stroke="#63b8ff" points="129.12,-103.79 139.57,-102.06 130.32,-96.89 129.12,-103.79"/>
</a>
</g>
</g>
<!-- Node4 -->
<g id="Node000004" class="node">
<title>Node4</title>
<g id="a_Node000004"><a xlink:href="classdetail_1_1tm__writer.html#a552699b68cca33b8a1e2f9fd4273a848" target="_top" xlink:title=" ">
<polygon fill="white" stroke="#666666" points="244,-78 140,-78 140,-48 244,-48 244,-78"/>
<text text-anchor="start" x="148" y="-66" font-family="Helvetica,sans-Serif" font-size="10.00">detail::tm_writer::</text>
<text text-anchor="middle" x="192" y="-55" font-family="Helvetica,sans-Serif" font-size="10.00">tm_mon</text>
</a>
</g>
</g>
<!-- Node1&#45;&gt;Node4 -->
<g id="edge3_Node000001_Node000004" class="edge">
<title>Node1&#45;&gt;Node4</title>
<g id="a_edge3_Node000001_Node000004"><a xlink:title=" ">
<path fill="none" stroke="#63b8ff" d="M104.39,-78.06C112.56,-76.64 121.08,-75.16 129.46,-73.7"/>
<polygon fill="#63b8ff" stroke="#63b8ff" points="130.32,-77.11 139.57,-71.94 129.12,-70.21 130.32,-77.11"/>
</a>
</g>
</g>
<!-- Node5 -->
<g id="Node000005" class="node">
<title>Node5</title>
<g id="a_Node000005"><a xlink:href="classdetail_1_1tm__writer.html#a82bed31c275dcb4710557360e5d3ab58" target="_top" xlink:title=" ">
<polygon fill="white" stroke="#666666" points="244,-30 140,-30 140,0 244,0 244,-30"/>
<text text-anchor="start" x="148" y="-18" font-family="Helvetica,sans-Serif" font-size="10.00">detail::tm_writer::</text>
<text text-anchor="middle" x="192" y="-7" font-family="Helvetica,sans-Serif" font-size="10.00">tm_year</text>
</a>
</g>
</g>
<!-- Node1&#45;&gt;Node5 -->
<g id="edge4_Node000001_Node000005" class="edge">
<title>Node1&#45;&gt;Node5</title>
<g id="a_edge4_Node000001_Node000005"><a xlink:title=" ">
<path fill="none" stroke="#63b8ff" d="M79.42,-71.85C96.54,-62.17 119.41,-49.51 140,-39 142.92,-37.51 145.95,-36 149.01,-34.5"/>
<polygon fill="#63b8ff" stroke="#63b8ff" points="150.72,-37.56 158.2,-30.05 147.67,-31.25 150.72,-37.56"/>
</a>
</g>
</g>
</g>
</svg>
