<?xml version="1.0" encoding="UTF-8" standalone="no"?>
<!DOCTYPE svg PUBLIC "-//W3C//DTD SVG 1.1//EN"
 "http://www.w3.org/Graphics/SVG/1.1/DTD/svg11.dtd">
<!-- Generated by graphviz version 2.43.0 (0)
 -->
<!-- Title: detail::bigint::bigint Pages: 1 -->
<svg width="430pt" height="38pt"
 viewBox="0.00 0.00 430.00 38.00" xmlns="http://www.w3.org/2000/svg" xmlns:xlink="http://www.w3.org/1999/xlink">
<g id="graph0" class="graph" transform="scale(1 1) rotate(0) translate(4 34)">
<title>detail::bigint::bigint</title>
<!-- Node1 -->
<g id="Node000001" class="node">
<title>Node1</title>
<g id="a_Node000001"><a xlink:title=" ">
<polygon fill="#999999" stroke="#666666" points="112,-24.5 0,-24.5 0,-5.5 112,-5.5 112,-24.5"/>
<text text-anchor="middle" x="56" y="-12.5" font-family="Helvetica,sans-Serif" font-size="10.00">detail::bigint::bigint</text>
</a>
</g>
</g>
<!-- Node2 -->
<g id="Node000002" class="node">
<title>Node2</title>
<g id="a_Node000002"><a xlink:href="classdetail_1_1bigint.html#a62ed5a1bdd5440d1e1e230453d566f6e" target="_top" xlink:title=" ">
<polygon fill="white" stroke="#666666" points="264,-24.5 148,-24.5 148,-5.5 264,-5.5 264,-24.5"/>
<text text-anchor="middle" x="206" y="-12.5" font-family="Helvetica,sans-Serif" font-size="10.00">detail::bigint::assign</text>
</a>
</g>
</g>
<!-- Node1&#45;&gt;Node2 -->
<g id="edge1_Node000001_Node000002" class="edge">
<title>Node1&#45;&gt;Node2</title>
<g id="a_edge1_Node000001_Node000002"><a xlink:title=" ">
<path fill="none" stroke="#63b8ff" d="M112.11,-15C120.5,-15 129.23,-15 137.84,-15"/>
<polygon fill="#63b8ff" stroke="#63b8ff" points="137.87,-18.5 147.87,-15 137.87,-11.5 137.87,-18.5"/>
</a>
</g>
</g>
<!-- Node3 -->
<g id="Node000003" class="node">
<title>Node3</title>
<g id="a_Node000003"><a xlink:href="classbasic__memory__buffer.html#a9a5d3f229ccaf48e4176d7cdcfd84383" target="_top" xlink:title=" ">
<polygon fill="white" stroke="#666666" points="422,-30 300,-30 300,0 422,0 422,-30"/>
<text text-anchor="start" x="308" y="-18" font-family="Helvetica,sans-Serif" font-size="10.00">basic_memory_buffer</text>
<text text-anchor="middle" x="361" y="-7" font-family="Helvetica,sans-Serif" font-size="10.00">::resize</text>
</a>
</g>
</g>
<!-- Node2&#45;&gt;Node3 -->
<g id="edge2_Node000002_Node000003" class="edge">
<title>Node2&#45;&gt;Node3</title>
<g id="a_edge2_Node000002_Node000003"><a xlink:title=" ">
<path fill="none" stroke="#63b8ff" d="M264.41,-15C272.67,-15 281.24,-15 289.72,-15"/>
<polygon fill="#63b8ff" stroke="#63b8ff" points="289.97,-18.5 299.97,-15 289.97,-11.5 289.97,-18.5"/>
</a>
</g>
</g>
</g>
</svg>
