<?xml version="1.0" encoding="UTF-8" standalone="no"?>
<!DOCTYPE svg PUBLIC "-//W3C//DTD SVG 1.1//EN"
 "http://www.w3.org/Graphics/SVG/1.1/DTD/svg11.dtd">
<!-- Generated by graphviz version 2.43.0 (0)
 -->
<!-- Title: APRSClient Pages: 1 -->
<svg width="381pt" height="291pt"
 viewBox="0.00 0.00 380.50 291.00" xmlns="http://www.w3.org/2000/svg" xmlns:xlink="http://www.w3.org/1999/xlink">
<g id="graph0" class="graph" transform="scale(1 1) rotate(0) translate(4 287)">
<title>APRSClient</title>
<!-- Node1 -->
<g id="Node000001" class="node">
<title>Node1</title>
<g id="a_Node000001"><a xlink:title="Client for APRS communication.">
<polygon fill="#999999" stroke="#666666" points="78.5,-19 7.5,-19 7.5,0 78.5,0 78.5,-19"/>
<text text-anchor="middle" x="43" y="-7" font-family="Helvetica,sans-Serif" font-size="10.00">APRSClient</text>
</a>
</g>
</g>
<!-- Node2 -->
<g id="Node000002" class="node">
<title>Node2</title>
<g id="a_Node000002"><a xlink:href="classAX25Client.html" target="_top" xlink:title="Client for AX25 communication.">
<polygon fill="white" stroke="#666666" points="149.5,-85 78.5,-85 78.5,-66 149.5,-66 149.5,-85"/>
<text text-anchor="middle" x="114" y="-73" font-family="Helvetica,sans-Serif" font-size="10.00">AX25Client</text>
</a>
</g>
</g>
<!-- Node2&#45;&gt;Node1 -->
<g id="edge1_Node000001_Node000002" class="edge">
<title>Node2&#45;&gt;Node1</title>
<g id="a_edge1_Node000001_Node000002"><a xlink:title=" ">
<path fill="none" stroke="#9a32cd" stroke-dasharray="5,2" d="M96.62,-58.83C82.87,-46.44 64.17,-29.59 52.88,-19.41"/>
<polygon fill="#9a32cd" stroke="#9a32cd" points="94.65,-61.77 104.42,-65.87 99.34,-56.57 94.65,-61.77"/>
</a>
</g>
<text text-anchor="middle" x="105" y="-40" font-family="Helvetica,sans-Serif" font-size="10.00" fill="grey"> axClient</text>
</g>
<!-- Node3 -->
<g id="Node000003" class="node">
<title>Node3</title>
<g id="a_Node000003"><a xlink:href="classPhysicalLayer.html" target="_top" xlink:title="Provides common interface for protocols that run on LoRa/FSK modules, such as RTTY or LoRaWAN....">
<polygon fill="white" stroke="#666666" points="119,-283 35,-283 35,-264 119,-264 119,-283"/>
<text text-anchor="middle" x="77" y="-271" font-family="Helvetica,sans-Serif" font-size="10.00">PhysicalLayer</text>
</a>
</g>
</g>
<!-- Node3&#45;&gt;Node1 -->
<g id="edge9_Node000001_Node000003" class="edge">
<title>Node3&#45;&gt;Node1</title>
<g id="a_edge9_Node000001_Node000003"><a xlink:title=" ">
<path fill="none" stroke="#9a32cd" stroke-dasharray="5,2" d="M43.34,-259.7C22.62,-249.39 0,-232.62 0,-208.5 0,-208.5 0,-208.5 0,-74.5 0,-51.48 19.41,-30.5 32.15,-19.21"/>
<polygon fill="#9a32cd" stroke="#9a32cd" points="42.09,-262.98 52.64,-263.98 45.02,-256.62 42.09,-262.98"/>
</a>
</g>
<text text-anchor="middle" x="24.5" y="-139" font-family="Helvetica,sans-Serif" font-size="10.00" fill="grey"> phyLayer</text>
</g>
<!-- Node3&#45;&gt;Node2 -->
<g id="edge2_Node000002_Node000003" class="edge">
<title>Node3&#45;&gt;Node2</title>
<g id="a_edge2_Node000002_Node000003"><a xlink:title=" ">
<path fill="none" stroke="#9a32cd" stroke-dasharray="5,2" d="M75.74,-253.75C74.76,-232.86 74.37,-198.19 80,-169 86.19,-136.91 102.07,-101.21 109.73,-85.16"/>
<polygon fill="#9a32cd" stroke="#9a32cd" points="72.25,-254.03 76.32,-263.81 79.24,-253.63 72.25,-254.03"/>
</a>
</g>
<text text-anchor="middle" x="104.5" y="-172" font-family="Helvetica,sans-Serif" font-size="10.00" fill="grey"> phyLayer</text>
</g>
<!-- Node4 -->
<g id="Node000004" class="node">
<title>Node4</title>
<g id="a_Node000004"><a xlink:href="classAFSKClient.html" target="_top" xlink:title="Client for audio&#45;based transmissions. Requires Arduino tone() function, and a module capable of direc...">
<polygon fill="white" stroke="#666666" points="174.5,-217 105.5,-217 105.5,-198 174.5,-198 174.5,-217"/>
<text text-anchor="middle" x="140" y="-205" font-family="Helvetica,sans-Serif" font-size="10.00">AFSKClient</text>
</a>
</g>
</g>
<!-- Node3&#45;&gt;Node4 -->
<g id="edge4_Node000004_Node000003" class="edge">
<title>Node3&#45;&gt;Node4</title>
<g id="a_edge4_Node000004_Node000003"><a xlink:title=" ">
<path fill="none" stroke="#9a32cd" stroke-dasharray="5,2" d="M92.77,-256.48C104.94,-244.12 121.31,-227.49 131.23,-217.41"/>
<polygon fill="#9a32cd" stroke="#9a32cd" points="90.02,-254.29 85.5,-263.87 95.01,-259.2 90.02,-254.29"/>
</a>
</g>
<text text-anchor="middle" x="137.5" y="-238" font-family="Helvetica,sans-Serif" font-size="10.00" fill="grey"> phyLayer</text>
</g>
<!-- Node4&#45;&gt;Node2 -->
<g id="edge3_Node000002_Node000004" class="edge">
<title>Node4&#45;&gt;Node2</title>
<g id="a_edge3_Node000002_Node000004"><a xlink:title=" ">
<path fill="none" stroke="#9a32cd" stroke-dasharray="5,2" d="M136.32,-188.11C130.64,-159.69 119.94,-106.19 115.75,-85.23"/>
<polygon fill="#9a32cd" stroke="#9a32cd" points="132.9,-188.85 138.29,-197.97 139.76,-187.48 132.9,-188.85"/>
</a>
</g>
<text text-anchor="middle" x="144.5" y="-139" font-family="Helvetica,sans-Serif" font-size="10.00" fill="grey"> audio</text>
</g>
<!-- Node5 -->
<g id="Node000005" class="node">
<title>Node5</title>
<g id="a_Node000005"><a xlink:href="classBellClient.html" target="_top" xlink:title="Client for Bell modem communication. The public interface is the same as Arduino Serial.">
<polygon fill="white" stroke="#666666" points="260,-151 196,-151 196,-132 260,-132 260,-151"/>
<text text-anchor="middle" x="228" y="-139" font-family="Helvetica,sans-Serif" font-size="10.00">BellClient</text>
</a>
</g>
</g>
<!-- Node4&#45;&gt;Node5 -->
<g id="edge6_Node000005_Node000004" class="edge">
<title>Node4&#45;&gt;Node5</title>
<g id="a_edge6_Node000005_Node000004"><a xlink:title=" ">
<path fill="none" stroke="#63b8ff" d="M160.17,-191.83C177.43,-179.28 201.69,-161.63 216.04,-151.2"/>
<polygon fill="#63b8ff" stroke="#63b8ff" points="157.9,-189.16 151.87,-197.87 162.01,-194.82 157.9,-189.16"/>
</a>
</g>
</g>
<!-- Node5&#45;&gt;Node2 -->
<g id="edge5_Node000002_Node000005" class="edge">
<title>Node5&#45;&gt;Node2</title>
<g id="a_edge5_Node000002_Node000005"><a xlink:title=" ">
<path fill="none" stroke="#9a32cd" stroke-dasharray="5,2" d="M203.7,-126.86C181.26,-114.26 148.59,-95.92 129.5,-85.2"/>
<polygon fill="#9a32cd" stroke="#9a32cd" points="202.19,-130.03 212.63,-131.87 205.62,-123.92 202.19,-130.03"/>
</a>
</g>
<text text-anchor="middle" x="207" y="-106" font-family="Helvetica,sans-Serif" font-size="10.00" fill="grey"> bellModem</text>
</g>
<!-- Node6 -->
<g id="Node000006" class="node">
<title>Node6</title>
<g id="a_Node000006"><a xlink:href="classRadioLibPrint.html" target="_top" xlink:title="Printing class, based on Arduino Print class with additional encodings.">
<polygon fill="white" stroke="#666666" points="273.5,-217 192.5,-217 192.5,-198 273.5,-198 273.5,-217"/>
<text text-anchor="middle" x="233" y="-205" font-family="Helvetica,sans-Serif" font-size="10.00">RadioLibPrint</text>
</a>
</g>
</g>
<!-- Node6&#45;&gt;Node5 -->
<g id="edge7_Node000005_Node000006" class="edge">
<title>Node6&#45;&gt;Node5</title>
<g id="a_edge7_Node000005_Node000006"><a xlink:title=" ">
<path fill="none" stroke="#63b8ff" d="M231.52,-187.58C230.59,-175.63 229.42,-160.72 228.7,-151.41"/>
<polygon fill="#63b8ff" stroke="#63b8ff" points="228.06,-188.17 232.33,-197.87 235.04,-187.63 228.06,-188.17"/>
</a>
</g>
</g>
<!-- Node7 -->
<g id="Node000007" class="node">
<title>Node7</title>
<g id="a_Node000007"><a xlink:href="structBellModem__t.html" target="_top" xlink:title="Definition of the Bell&#45;compatible modem.">
<polygon fill="white" stroke="#666666" points="372.5,-217 291.5,-217 291.5,-198 372.5,-198 372.5,-217"/>
<text text-anchor="middle" x="332" y="-205" font-family="Helvetica,sans-Serif" font-size="10.00">BellModem_t</text>
</a>
</g>
</g>
<!-- Node7&#45;&gt;Node5 -->
<g id="edge8_Node000005_Node000007" class="edge">
<title>Node7&#45;&gt;Node5</title>
<g id="a_edge8_Node000005_Node000007"><a xlink:title=" ">
<path fill="none" stroke="#9a32cd" stroke-dasharray="5,2" d="M309.28,-192.52C288.83,-179.93 259.4,-161.82 242.14,-151.2"/>
<polygon fill="#9a32cd" stroke="#9a32cd" points="307.62,-195.61 317.97,-197.87 311.29,-189.65 307.62,-195.61"/>
</a>
</g>
<text text-anchor="middle" x="319" y="-172" font-family="Helvetica,sans-Serif" font-size="10.00" fill="grey"> modemType</text>
</g>
</g>
</svg>
