<?xml version="1.0" encoding="UTF-8" standalone="no"?>
<!DOCTYPE svg PUBLIC "-//W3C//DTD SVG 1.1//EN"
 "http://www.w3.org/Graphics/SVG/1.1/DTD/svg11.dtd">
<!-- Generated by graphviz version 2.43.0 (0)
 -->
<!-- Title: cxxopts::Options::add_option Pages: 1 -->
<svg width="465pt" height="364pt"
 viewBox="0.00 0.00 465.00 363.50" xmlns="http://www.w3.org/2000/svg" xmlns:xlink="http://www.w3.org/1999/xlink">
<g id="graph0" class="graph" transform="scale(1 1) rotate(0) translate(4 359.5)">
<title>cxxopts::Options::add_option</title>
<!-- Node1 -->
<g id="Node000001" class="node">
<title>Node1</title>
<g id="a_Node000001"><a xlink:title=" ">
<polygon fill="#999999" stroke="#666666" points="122,-187.5 0,-187.5 0,-157.5 122,-157.5 122,-187.5"/>
<text text-anchor="start" x="8" y="-175.5" font-family="Helvetica,sans-Serif" font-size="10.00">cxxopts::Options::add</text>
<text text-anchor="middle" x="61" y="-164.5" font-family="Helvetica,sans-Serif" font-size="10.00">_option</text>
</a>
</g>
</g>
<!-- Node2 -->
<g id="Node000002" class="node">
<title>Node2</title>
<g id="a_Node000002"><a xlink:href="classcxxopts_1_1Options.html#a6a7ca6845bfe17a801b0c3f229655f42" target="_top" xlink:title=" ">
<polygon fill="white" stroke="#666666" points="281,-355.5 159,-355.5 159,-325.5 281,-325.5 281,-355.5"/>
<text text-anchor="start" x="167" y="-343.5" font-family="Helvetica,sans-Serif" font-size="10.00">cxxopts::Options::add</text>
<text text-anchor="middle" x="220" y="-332.5" font-family="Helvetica,sans-Serif" font-size="10.00">_one_option</text>
</a>
</g>
</g>
<!-- Node1&#45;&gt;Node2 -->
<g id="edge1_Node000001_Node000002" class="edge">
<title>Node1&#45;&gt;Node2</title>
<g id="a_edge1_Node000001_Node000002"><a xlink:title=" ">
<path fill="none" stroke="#63b8ff" d="M68.38,-187.76C81.22,-216.73 112.87,-280.09 158,-316.5 159.56,-317.76 161.2,-318.96 162.89,-320.1"/>
<polygon fill="#63b8ff" stroke="#63b8ff" points="161.35,-323.26 171.74,-325.35 164.92,-317.24 161.35,-323.26"/>
</a>
</g>
</g>
<!-- Node4 -->
<g id="Node000004" class="node">
<title>Node4</title>
<g id="a_Node000004"><a xlink:href="classcxxopts_1_1Value.html#a25ac95c499771a6f5ca295e01452f380" target="_top" xlink:title=" ">
<polygon fill="white" stroke="#666666" points="274.5,-307.5 165.5,-307.5 165.5,-277.5 274.5,-277.5 274.5,-307.5"/>
<text text-anchor="start" x="173.5" y="-295.5" font-family="Helvetica,sans-Serif" font-size="10.00">cxxopts::Value::get</text>
<text text-anchor="middle" x="220" y="-284.5" font-family="Helvetica,sans-Serif" font-size="10.00">_default_value</text>
</a>
</g>
</g>
<!-- Node1&#45;&gt;Node4 -->
<g id="edge3_Node000001_Node000004" class="edge">
<title>Node1&#45;&gt;Node4</title>
<g id="a_edge3_Node000001_Node000004"><a xlink:title=" ">
<path fill="none" stroke="#63b8ff" d="M73.82,-187.75C90.57,-208.49 123.11,-245.63 158,-268.5 160.29,-270 162.68,-271.43 165.14,-272.78"/>
<polygon fill="#63b8ff" stroke="#63b8ff" points="163.77,-276.01 174.28,-277.4 166.93,-269.77 163.77,-276.01"/>
</a>
</g>
</g>
<!-- Node5 -->
<g id="Node000005" class="node">
<title>Node5</title>
<g id="a_Node000005"><a xlink:href="classcxxopts_1_1Value.html#a436f0a8a6621de420088839f4c728230" target="_top" xlink:title=" ">
<polygon fill="white" stroke="#666666" points="274.5,-259.5 165.5,-259.5 165.5,-229.5 274.5,-229.5 274.5,-259.5"/>
<text text-anchor="start" x="173.5" y="-247.5" font-family="Helvetica,sans-Serif" font-size="10.00">cxxopts::Value::get</text>
<text text-anchor="middle" x="220" y="-236.5" font-family="Helvetica,sans-Serif" font-size="10.00">_implicit_value</text>
</a>
</g>
</g>
<!-- Node1&#45;&gt;Node5 -->
<g id="edge4_Node000001_Node000005" class="edge">
<title>Node1&#45;&gt;Node5</title>
<g id="a_edge4_Node000001_Node000005"><a xlink:title=" ">
<path fill="none" stroke="#63b8ff" d="M90.67,-187.67C109.58,-197.47 135.02,-210.26 158,-220.5 161.8,-222.19 165.76,-223.89 169.76,-225.56"/>
<polygon fill="#63b8ff" stroke="#63b8ff" points="168.5,-228.83 179.08,-229.38 171.16,-222.35 168.5,-228.83"/>
</a>
</g>
</g>
<!-- Node6 -->
<g id="Node000006" class="node">
<title>Node6</title>
<g id="a_Node000006"><a xlink:href="classcxxopts_1_1Value.html#aac3233a0414ac39d54ed0b98365afc7e" target="_top" xlink:title=" ">
<polygon fill="white" stroke="#666666" points="275,-211.5 165,-211.5 165,-181.5 275,-181.5 275,-211.5"/>
<text text-anchor="start" x="173" y="-199.5" font-family="Helvetica,sans-Serif" font-size="10.00">cxxopts::Value::has</text>
<text text-anchor="middle" x="220" y="-188.5" font-family="Helvetica,sans-Serif" font-size="10.00">_default</text>
</a>
</g>
</g>
<!-- Node1&#45;&gt;Node6 -->
<g id="edge5_Node000001_Node000006" class="edge">
<title>Node1&#45;&gt;Node6</title>
<g id="a_edge5_Node000001_Node000006"><a xlink:title=" ">
<path fill="none" stroke="#63b8ff" d="M122.25,-181.71C132.87,-183.33 143.95,-185.03 154.68,-186.67"/>
<polygon fill="#63b8ff" stroke="#63b8ff" points="154.4,-190.17 164.82,-188.22 155.46,-183.25 154.4,-190.17"/>
</a>
</g>
</g>
<!-- Node7 -->
<g id="Node000007" class="node">
<title>Node7</title>
<g id="a_Node000007"><a xlink:href="classcxxopts_1_1Value.html#aac3425b87db8ef41157892449999b183" target="_top" xlink:title=" ">
<polygon fill="white" stroke="#666666" points="275,-163.5 165,-163.5 165,-133.5 275,-133.5 275,-163.5"/>
<text text-anchor="start" x="173" y="-151.5" font-family="Helvetica,sans-Serif" font-size="10.00">cxxopts::Value::has</text>
<text text-anchor="middle" x="220" y="-140.5" font-family="Helvetica,sans-Serif" font-size="10.00">_implicit</text>
</a>
</g>
</g>
<!-- Node1&#45;&gt;Node7 -->
<g id="edge6_Node000001_Node000007" class="edge">
<title>Node1&#45;&gt;Node7</title>
<g id="a_edge6_Node000001_Node000007"><a xlink:title=" ">
<path fill="none" stroke="#63b8ff" d="M122.25,-163.29C132.87,-161.67 143.95,-159.97 154.68,-158.33"/>
<polygon fill="#63b8ff" stroke="#63b8ff" points="155.46,-161.75 164.82,-156.78 154.4,-154.83 155.46,-161.75"/>
</a>
</g>
</g>
<!-- Node8 -->
<g id="Node000008" class="node">
<title>Node8</title>
<g id="a_Node000008"><a xlink:href="classcxxopts_1_1Value.html#a77a4a731bcbbd95afca43f82affe5aaa" target="_top" xlink:title=" ">
<polygon fill="white" stroke="#666666" points="270.5,-115.5 169.5,-115.5 169.5,-85.5 270.5,-85.5 270.5,-115.5"/>
<text text-anchor="start" x="177.5" y="-103.5" font-family="Helvetica,sans-Serif" font-size="10.00">cxxopts::Value::is</text>
<text text-anchor="middle" x="220" y="-92.5" font-family="Helvetica,sans-Serif" font-size="10.00">_boolean</text>
</a>
</g>
</g>
<!-- Node1&#45;&gt;Node8 -->
<g id="edge7_Node000001_Node000008" class="edge">
<title>Node1&#45;&gt;Node8</title>
<g id="a_edge7_Node000001_Node000008"><a xlink:title=" ">
<path fill="none" stroke="#63b8ff" d="M90.67,-157.33C109.58,-147.53 135.02,-134.74 158,-124.5 161.8,-122.81 165.76,-121.11 169.76,-119.44"/>
<polygon fill="#63b8ff" stroke="#63b8ff" points="171.16,-122.65 179.08,-115.62 168.5,-116.17 171.16,-122.65"/>
</a>
</g>
</g>
<!-- Node9 -->
<g id="Node000009" class="node">
<title>Node9</title>
<g id="a_Node000009"><a xlink:href="classcxxopts_1_1Value.html#a632f3263dd598e30999a6bcff0652132" target="_top" xlink:title=" ">
<polygon fill="white" stroke="#666666" points="270.5,-67.5 169.5,-67.5 169.5,-37.5 270.5,-37.5 270.5,-67.5"/>
<text text-anchor="start" x="177.5" y="-55.5" font-family="Helvetica,sans-Serif" font-size="10.00">cxxopts::Value::is</text>
<text text-anchor="middle" x="220" y="-44.5" font-family="Helvetica,sans-Serif" font-size="10.00">_container</text>
</a>
</g>
</g>
<!-- Node1&#45;&gt;Node9 -->
<g id="edge8_Node000001_Node000009" class="edge">
<title>Node1&#45;&gt;Node9</title>
<g id="a_edge8_Node000001_Node000009"><a xlink:title=" ">
<path fill="none" stroke="#63b8ff" d="M73.82,-157.25C90.57,-136.51 123.11,-99.37 158,-76.5 160.29,-75 162.68,-73.57 165.14,-72.22"/>
<polygon fill="#63b8ff" stroke="#63b8ff" points="166.93,-75.23 174.28,-67.6 163.77,-68.99 166.93,-75.23"/>
</a>
</g>
</g>
<!-- Node10 -->
<g id="Node000010" class="node">
<title>Node10</title>
<g id="a_Node000010"><a xlink:href="namespacecxxopts.html#ac8ee50fdeb30245d157343a3bade9ede" target="_top" xlink:title=" ">
<polygon fill="white" stroke="#666666" points="282,-19 158,-19 158,0 282,0 282,-19"/>
<text text-anchor="middle" x="220" y="-7" font-family="Helvetica,sans-Serif" font-size="10.00">cxxopts::toLocalString</text>
</a>
</g>
</g>
<!-- Node1&#45;&gt;Node10 -->
<g id="edge9_Node000001_Node000010" class="edge">
<title>Node1&#45;&gt;Node10</title>
<g id="a_edge9_Node000001_Node000010"><a xlink:title=" ">
<path fill="none" stroke="#63b8ff" d="M67.95,-157.4C80.26,-128.11 111.33,-63.42 158,-28.5 160.5,-26.63 163.18,-24.95 165.98,-23.42"/>
<polygon fill="#63b8ff" stroke="#63b8ff" points="167.65,-26.51 175.22,-19.1 164.68,-20.17 167.65,-26.51"/>
</a>
</g>
</g>
<!-- Node3 -->
<g id="Node000003" class="node">
<title>Node3</title>
<g id="a_Node000003"><a xlink:href="namespacecxxopts.html#a466f47408560fa08e43bf48ec2366b22" target="_top" xlink:title=" ">
<polygon fill="white" stroke="#666666" points="457,-350 318,-350 318,-331 457,-331 457,-350"/>
<text text-anchor="middle" x="387.5" y="-338" font-family="Helvetica,sans-Serif" font-size="10.00">cxxopts::throw_or_mimic</text>
</a>
</g>
</g>
<!-- Node2&#45;&gt;Node3 -->
<g id="edge2_Node000002_Node000003" class="edge">
<title>Node2&#45;&gt;Node3</title>
<g id="a_edge2_Node000002_Node000003"><a xlink:title=" ">
<path fill="none" stroke="#63b8ff" d="M281.22,-340.5C289.88,-340.5 298.9,-340.5 307.85,-340.5"/>
<polygon fill="#63b8ff" stroke="#63b8ff" points="307.91,-344 317.91,-340.5 307.91,-337 307.91,-344"/>
</a>
</g>
</g>
</g>
</svg>
