<?xml version="1.0" encoding="UTF-8" standalone="no"?>
<!DOCTYPE svg PUBLIC "-//W3C//DTD SVG 1.1//EN"
 "http://www.w3.org/Graphics/SVG/1.1/DTD/svg11.dtd">
<!-- Generated by graphviz version 2.43.0 (0)
 -->
<!-- Title: RadioLibPrint::write Pages: 1 -->
<svg width="268pt" height="64pt"
 viewBox="0.00 0.00 268.00 64.00" xmlns="http://www.w3.org/2000/svg" xmlns:xlink="http://www.w3.org/1999/xlink">
<g id="graph0" class="graph" transform="scale(1 1) rotate(0) translate(4 60)">
<title>RadioLibPrint::write</title>
<!-- Node1 -->
<g id="Node000001" class="node">
<title>Node1</title>
<g id="a_Node000001"><a xlink:title=" ">
<polygon fill="#999999" stroke="#666666" points="260,-37 148,-37 148,-18 260,-18 260,-37"/>
<text text-anchor="middle" x="204" y="-25" font-family="Helvetica,sans-Serif" font-size="10.00">RadioLibPrint::write</text>
</a>
</g>
</g>
<!-- Node2 -->
<g id="Node000002" class="node">
<title>Node2</title>
<g id="a_Node000002"><a xlink:href="classRadioLibPrint.html#ad2c5435bea28e97f4893002f01549c80" target="_top" xlink:title=" ">
<polygon fill="white" stroke="#666666" points="112,-56 0,-56 0,-37 112,-37 112,-56"/>
<text text-anchor="middle" x="56" y="-44" font-family="Helvetica,sans-Serif" font-size="10.00">RadioLibPrint::write</text>
</a>
</g>
</g>
<!-- Node1&#45;&gt;Node2 -->
<g id="edge1_Node000001_Node000002" class="edge">
<title>Node1&#45;&gt;Node2</title>
<g id="a_edge1_Node000001_Node000002"><a xlink:title=" ">
<path fill="none" stroke="#63b8ff" d="M137.87,-35.98C129.32,-37.09 120.63,-38.22 112.27,-39.31"/>
<polygon fill="#63b8ff" stroke="#63b8ff" points="138.34,-39.44 147.8,-34.68 137.44,-32.5 138.34,-39.44"/>
</a>
</g>
</g>
<!-- Node3 -->
<g id="Node000003" class="node">
<title>Node3</title>
<g id="a_Node000003"><a xlink:href="classRadioLibPrint.html#a6e1803a39074e658e54931f13bd2d641" target="_top" xlink:title=" ">
<polygon fill="white" stroke="#666666" points="112,-19 0,-19 0,0 112,0 112,-19"/>
<text text-anchor="middle" x="56" y="-7" font-family="Helvetica,sans-Serif" font-size="10.00">RadioLibPrint::write</text>
</a>
</g>
</g>
<!-- Node1&#45;&gt;Node3 -->
<g id="edge2_Node000001_Node000003" class="edge">
<title>Node1&#45;&gt;Node3</title>
<g id="a_edge2_Node000001_Node000003"><a xlink:title=" ">
<path fill="none" stroke="#63b8ff" d="M137.87,-19.47C129.32,-18.42 120.63,-17.35 112.27,-16.31"/>
<polygon fill="#63b8ff" stroke="#63b8ff" points="137.45,-22.94 147.8,-20.69 138.31,-16 137.45,-22.94"/>
</a>
</g>
</g>
</g>
</svg>
