<?xml version="1.0" encoding="UTF-8" standalone="no"?>
<!DOCTYPE svg PUBLIC "-//W3C//DTD SVG 1.1//EN"
 "http://www.w3.org/Graphics/SVG/1.1/DTD/svg11.dtd">
<!-- Generated by graphviz version 2.43.0 (0)
 -->
<!-- Title: cxxopts::OptionAdder::operator() Pages: 1 -->
<svg width="642pt" height="450pt"
 viewBox="0.00 0.00 642.00 450.00" xmlns="http://www.w3.org/2000/svg" xmlns:xlink="http://www.w3.org/1999/xlink">
<g id="graph0" class="graph" transform="scale(1 1) rotate(0) translate(4 446)">
<title>cxxopts::OptionAdder::operator()</title>
<!-- Node1 -->
<g id="Node000001" class="node">
<title>Node1</title>
<g id="a_Node000001"><a xlink:title=" ">
<polygon fill="#999999" stroke="#666666" points="121,-73 0,-73 0,-43 121,-43 121,-73"/>
<text text-anchor="start" x="8" y="-61" font-family="Helvetica,sans-Serif" font-size="10.00">cxxopts::OptionAdder</text>
<text text-anchor="middle" x="60.5" y="-50" font-family="Helvetica,sans-Serif" font-size="10.00">::operator()</text>
</a>
</g>
</g>
<!-- Node2 -->
<g id="Node000002" class="node">
<title>Node2</title>
<g id="a_Node000002"><a xlink:href="classcxxopts_1_1Options.html#a353100b81684422664822103672a841a" target="_top" xlink:title=" ">
<polygon fill="white" stroke="#666666" points="289,-250 167,-250 167,-220 289,-220 289,-250"/>
<text text-anchor="start" x="175" y="-238" font-family="Helvetica,sans-Serif" font-size="10.00">cxxopts::Options::add</text>
<text text-anchor="middle" x="228" y="-227" font-family="Helvetica,sans-Serif" font-size="10.00">_option</text>
</a>
</g>
</g>
<!-- Node1&#45;&gt;Node2 -->
<g id="edge1_Node000001_Node000002" class="edge">
<title>Node1&#45;&gt;Node2</title>
<g id="a_edge1_Node000001_Node000002"><a xlink:title=" ">
<path fill="none" stroke="#63b8ff" d="M75.61,-73.09C104.68,-104.18 171.39,-175.52 205.72,-212.24"/>
<polygon fill="#63b8ff" stroke="#63b8ff" points="203.54,-215.03 212.93,-219.95 208.65,-210.25 203.54,-215.03"/>
</a>
</g>
</g>
<!-- Node4 -->
<g id="Node000004" class="node">
<title>Node4</title>
<g id="a_Node000004"><a xlink:href="namespacecxxopts.html#a466f47408560fa08e43bf48ec2366b22" target="_top" xlink:title=" ">
<polygon fill="white" stroke="#666666" points="634,-67.5 495,-67.5 495,-48.5 634,-48.5 634,-67.5"/>
<text text-anchor="middle" x="564.5" y="-55.5" font-family="Helvetica,sans-Serif" font-size="10.00">cxxopts::throw_or_mimic</text>
</a>
</g>
</g>
<!-- Node1&#45;&gt;Node4 -->
<g id="edge13_Node000001_Node000004" class="edge">
<title>Node1&#45;&gt;Node4</title>
<g id="a_edge13_Node000001_Node000004"><a xlink:title=" ">
<path fill="none" stroke="#63b8ff" d="M121.06,-58C211.58,-58 383.88,-58 484.68,-58"/>
<polygon fill="#63b8ff" stroke="#63b8ff" points="484.8,-61.5 494.8,-58 484.8,-54.5 484.8,-61.5"/>
</a>
</g>
</g>
<!-- Node12 -->
<g id="Node000012" class="node">
<title>Node12</title>
<g id="a_Node000012"><a xlink:href="namespacecxxopts_1_1values_1_1parser__tool.html#a3aaed7a5c0641e8eb84f2888ff499bbb" target="_top" xlink:title=" ">
<polygon fill="white" stroke="#666666" points="299,-30 157,-30 157,0 299,0 299,-30"/>
<text text-anchor="start" x="165" y="-18" font-family="Helvetica,sans-Serif" font-size="10.00">cxxopts::values::parser</text>
<text text-anchor="middle" x="228" y="-7" font-family="Helvetica,sans-Serif" font-size="10.00">_tool::split_option_names</text>
</a>
</g>
</g>
<!-- Node1&#45;&gt;Node12 -->
<g id="edge11_Node000001_Node000012" class="edge">
<title>Node1&#45;&gt;Node12</title>
<g id="a_edge11_Node000001_Node000012"><a xlink:title=" ">
<path fill="none" stroke="#63b8ff" d="M119.38,-42.96C132.23,-39.62 145.97,-36.05 159.17,-32.62"/>
<polygon fill="#63b8ff" stroke="#63b8ff" points="160.35,-35.93 169.15,-30.03 158.59,-29.16 160.35,-35.93"/>
</a>
</g>
</g>
<!-- Node3 -->
<g id="Node000003" class="node">
<title>Node3</title>
<g id="a_Node000003"><a xlink:href="classcxxopts_1_1Options.html#a6a7ca6845bfe17a801b0c3f229655f42" target="_top" xlink:title=" ">
<polygon fill="white" stroke="#666666" points="458,-442 336,-442 336,-412 458,-412 458,-442"/>
<text text-anchor="start" x="344" y="-430" font-family="Helvetica,sans-Serif" font-size="10.00">cxxopts::Options::add</text>
<text text-anchor="middle" x="397" y="-419" font-family="Helvetica,sans-Serif" font-size="10.00">_one_option</text>
</a>
</g>
</g>
<!-- Node2&#45;&gt;Node3 -->
<g id="edge2_Node000002_Node000003" class="edge">
<title>Node2&#45;&gt;Node3</title>
<g id="a_edge2_Node000002_Node000003"><a xlink:title=" ">
<path fill="none" stroke="#63b8ff" d="M234.76,-250.26C247.75,-282.77 282.4,-359.46 335,-403 336.55,-404.28 338.17,-405.5 339.85,-406.65"/>
<polygon fill="#63b8ff" stroke="#63b8ff" points="338.28,-409.79 348.65,-411.95 341.89,-403.8 338.28,-409.79"/>
</a>
</g>
</g>
<!-- Node5 -->
<g id="Node000005" class="node">
<title>Node5</title>
<g id="a_Node000005"><a xlink:href="classcxxopts_1_1Value.html#a25ac95c499771a6f5ca295e01452f380" target="_top" xlink:title=" ">
<polygon fill="white" stroke="#666666" points="451.5,-394 342.5,-394 342.5,-364 451.5,-364 451.5,-394"/>
<text text-anchor="start" x="350.5" y="-382" font-family="Helvetica,sans-Serif" font-size="10.00">cxxopts::Value::get</text>
<text text-anchor="middle" x="397" y="-371" font-family="Helvetica,sans-Serif" font-size="10.00">_default_value</text>
</a>
</g>
</g>
<!-- Node2&#45;&gt;Node5 -->
<g id="edge4_Node000002_Node000005" class="edge">
<title>Node2&#45;&gt;Node5</title>
<g id="a_edge4_Node000002_Node000005"><a xlink:title=" ">
<path fill="none" stroke="#63b8ff" d="M238.94,-250.36C255.88,-275.43 292.65,-325.34 335,-355 337.08,-356.46 339.26,-357.84 341.51,-359.16"/>
<polygon fill="#63b8ff" stroke="#63b8ff" points="339.97,-362.3 350.44,-363.88 343.24,-356.11 339.97,-362.3"/>
</a>
</g>
</g>
<!-- Node6 -->
<g id="Node000006" class="node">
<title>Node6</title>
<g id="a_Node000006"><a xlink:href="classcxxopts_1_1Value.html#a436f0a8a6621de420088839f4c728230" target="_top" xlink:title=" ">
<polygon fill="white" stroke="#666666" points="451.5,-346 342.5,-346 342.5,-316 451.5,-316 451.5,-346"/>
<text text-anchor="start" x="350.5" y="-334" font-family="Helvetica,sans-Serif" font-size="10.00">cxxopts::Value::get</text>
<text text-anchor="middle" x="397" y="-323" font-family="Helvetica,sans-Serif" font-size="10.00">_implicit_value</text>
</a>
</g>
</g>
<!-- Node2&#45;&gt;Node6 -->
<g id="edge5_Node000002_Node000006" class="edge">
<title>Node2&#45;&gt;Node6</title>
<g id="a_edge5_Node000002_Node000006"><a xlink:title=" ">
<path fill="none" stroke="#63b8ff" d="M248.49,-250.19C269.15,-265.81 303.13,-290.17 335,-307 338.11,-308.64 341.37,-310.24 344.68,-311.78"/>
<polygon fill="#63b8ff" stroke="#63b8ff" points="343.54,-315.1 354.1,-315.94 346.37,-308.7 343.54,-315.1"/>
</a>
</g>
</g>
<!-- Node7 -->
<g id="Node000007" class="node">
<title>Node7</title>
<g id="a_Node000007"><a xlink:href="classcxxopts_1_1Value.html#aac3233a0414ac39d54ed0b98365afc7e" target="_top" xlink:title=" ">
<polygon fill="white" stroke="#666666" points="452,-298 342,-298 342,-268 452,-268 452,-298"/>
<text text-anchor="start" x="350" y="-286" font-family="Helvetica,sans-Serif" font-size="10.00">cxxopts::Value::has</text>
<text text-anchor="middle" x="397" y="-275" font-family="Helvetica,sans-Serif" font-size="10.00">_default</text>
</a>
</g>
</g>
<!-- Node2&#45;&gt;Node7 -->
<g id="edge6_Node000002_Node000007" class="edge">
<title>Node2&#45;&gt;Node7</title>
<g id="a_edge6_Node000002_Node000007"><a xlink:title=" ">
<path fill="none" stroke="#63b8ff" d="M281.38,-250.06C298.01,-254.84 316.57,-260.17 333.82,-265.13"/>
<polygon fill="#63b8ff" stroke="#63b8ff" points="333.23,-268.6 343.8,-268 335.16,-261.87 333.23,-268.6"/>
</a>
</g>
</g>
<!-- Node8 -->
<g id="Node000008" class="node">
<title>Node8</title>
<g id="a_Node000008"><a xlink:href="classcxxopts_1_1Value.html#aac3425b87db8ef41157892449999b183" target="_top" xlink:title=" ">
<polygon fill="white" stroke="#666666" points="452,-250 342,-250 342,-220 452,-220 452,-250"/>
<text text-anchor="start" x="350" y="-238" font-family="Helvetica,sans-Serif" font-size="10.00">cxxopts::Value::has</text>
<text text-anchor="middle" x="397" y="-227" font-family="Helvetica,sans-Serif" font-size="10.00">_implicit</text>
</a>
</g>
</g>
<!-- Node2&#45;&gt;Node8 -->
<g id="edge7_Node000002_Node000008" class="edge">
<title>Node2&#45;&gt;Node8</title>
<g id="a_edge7_Node000002_Node000008"><a xlink:title=" ">
<path fill="none" stroke="#63b8ff" d="M289.29,-235C303.12,-235 317.88,-235 331.87,-235"/>
<polygon fill="#63b8ff" stroke="#63b8ff" points="331.9,-238.5 341.9,-235 331.9,-231.5 331.9,-238.5"/>
</a>
</g>
</g>
<!-- Node9 -->
<g id="Node000009" class="node">
<title>Node9</title>
<g id="a_Node000009"><a xlink:href="classcxxopts_1_1Value.html#a77a4a731bcbbd95afca43f82affe5aaa" target="_top" xlink:title=" ">
<polygon fill="white" stroke="#666666" points="447.5,-202 346.5,-202 346.5,-172 447.5,-172 447.5,-202"/>
<text text-anchor="start" x="354.5" y="-190" font-family="Helvetica,sans-Serif" font-size="10.00">cxxopts::Value::is</text>
<text text-anchor="middle" x="397" y="-179" font-family="Helvetica,sans-Serif" font-size="10.00">_boolean</text>
</a>
</g>
</g>
<!-- Node2&#45;&gt;Node9 -->
<g id="edge8_Node000002_Node000009" class="edge">
<title>Node2&#45;&gt;Node9</title>
<g id="a_edge8_Node000002_Node000009"><a xlink:title=" ">
<path fill="none" stroke="#63b8ff" d="M281.38,-219.94C298.9,-214.91 318.54,-209.26 336.55,-204.09"/>
<polygon fill="#63b8ff" stroke="#63b8ff" points="337.72,-207.39 346.37,-201.27 335.79,-200.66 337.72,-207.39"/>
</a>
</g>
</g>
<!-- Node10 -->
<g id="Node000010" class="node">
<title>Node10</title>
<g id="a_Node000010"><a xlink:href="classcxxopts_1_1Value.html#a632f3263dd598e30999a6bcff0652132" target="_top" xlink:title=" ">
<polygon fill="white" stroke="#666666" points="447.5,-154 346.5,-154 346.5,-124 447.5,-124 447.5,-154"/>
<text text-anchor="start" x="354.5" y="-142" font-family="Helvetica,sans-Serif" font-size="10.00">cxxopts::Value::is</text>
<text text-anchor="middle" x="397" y="-131" font-family="Helvetica,sans-Serif" font-size="10.00">_container</text>
</a>
</g>
</g>
<!-- Node2&#45;&gt;Node10 -->
<g id="edge9_Node000002_Node000010" class="edge">
<title>Node2&#45;&gt;Node10</title>
<g id="a_edge9_Node000002_Node000010"><a xlink:title=" ">
<path fill="none" stroke="#63b8ff" d="M248.49,-219.81C269.15,-204.19 303.13,-179.83 335,-163 338.11,-161.36 341.37,-159.76 344.68,-158.22"/>
<polygon fill="#63b8ff" stroke="#63b8ff" points="346.37,-161.3 354.1,-154.06 343.54,-154.9 346.37,-161.3"/>
</a>
</g>
</g>
<!-- Node11 -->
<g id="Node000011" class="node">
<title>Node11</title>
<g id="a_Node000011"><a xlink:href="namespacecxxopts.html#ac8ee50fdeb30245d157343a3bade9ede" target="_top" xlink:title=" ">
<polygon fill="white" stroke="#666666" points="459,-105.5 335,-105.5 335,-86.5 459,-86.5 459,-105.5"/>
<text text-anchor="middle" x="397" y="-93.5" font-family="Helvetica,sans-Serif" font-size="10.00">cxxopts::toLocalString</text>
</a>
</g>
</g>
<!-- Node2&#45;&gt;Node11 -->
<g id="edge10_Node000002_Node000011" class="edge">
<title>Node2&#45;&gt;Node11</title>
<g id="a_edge10_Node000002_Node000011"><a xlink:title=" ">
<path fill="none" stroke="#63b8ff" d="M238.44,-219.7C254.92,-194.26 291.37,-143.25 335,-115 338.17,-112.95 341.57,-111.11 345.08,-109.46"/>
<polygon fill="#63b8ff" stroke="#63b8ff" points="346.69,-112.58 354.59,-105.52 344.01,-106.12 346.69,-112.58"/>
</a>
</g>
</g>
<!-- Node3&#45;&gt;Node4 -->
<g id="edge3_Node000003_Node000004" class="edge">
<title>Node3&#45;&gt;Node4</title>
<g id="a_edge3_Node000003_Node000004"><a xlink:title=" ">
<path fill="none" stroke="#63b8ff" d="M448.11,-411.91C452.12,-409.38 455.84,-406.43 459,-403 548.12,-306.38 561.35,-136.08 563.22,-78.03"/>
<polygon fill="#63b8ff" stroke="#63b8ff" points="566.73,-77.77 563.47,-67.69 559.73,-77.61 566.73,-77.77"/>
</a>
</g>
</g>
<!-- Node12&#45;&gt;Node4 -->
<g id="edge12_Node000012_Node000004" class="edge">
<title>Node12&#45;&gt;Node4</title>
<g id="a_edge12_Node000012_Node000004"><a xlink:title=" ">
<path fill="none" stroke="#63b8ff" d="M299.23,-23.71C344.78,-29.4 405.42,-37.03 459,-44 467.35,-45.09 476.07,-46.23 484.77,-47.39"/>
<polygon fill="#63b8ff" stroke="#63b8ff" points="484.56,-50.89 494.93,-48.74 485.48,-43.95 484.56,-50.89"/>
</a>
</g>
</g>
</g>
</svg>
