<?xml version="1.0" encoding="UTF-8" standalone="no"?>
<!DOCTYPE svg PUBLIC "-//W3C//DTD SVG 1.1//EN"
 "http://www.w3.org/Graphics/SVG/1.1/DTD/svg11.dtd">
<!-- Generated by graphviz version 2.43.0 (0)
 -->
<!-- Title: FSK4Client Pages: 1 -->
<svg width="171pt" height="159pt"
 viewBox="0.00 0.00 170.50 159.00" xmlns="http://www.w3.org/2000/svg" xmlns:xlink="http://www.w3.org/1999/xlink">
<g id="graph0" class="graph" transform="scale(1 1) rotate(0) translate(4 155)">
<title>FSK4Client</title>
<!-- Node1 -->
<g id="Node000001" class="node">
<title>Node1</title>
<g id="a_Node000001"><a xlink:title="Client for FSK&#45;4 communication. The public interface is the same as Arduino Serial.">
<polygon fill="#999999" stroke="#666666" points="76.5,-19 7.5,-19 7.5,0 76.5,0 76.5,-19"/>
<text text-anchor="middle" x="42" y="-7" font-family="Helvetica,sans-Serif" font-size="10.00">FSK4Client</text>
</a>
</g>
</g>
<!-- Node2 -->
<g id="Node000002" class="node">
<title>Node2</title>
<g id="a_Node000002"><a xlink:href="classPhysicalLayer.html" target="_top" xlink:title="Provides common interface for protocols that run on LoRa/FSK modules, such as RTTY or LoRaWAN....">
<polygon fill="white" stroke="#666666" points="84,-151 0,-151 0,-132 84,-132 84,-151"/>
<text text-anchor="middle" x="42" y="-139" font-family="Helvetica,sans-Serif" font-size="10.00">PhysicalLayer</text>
</a>
</g>
</g>
<!-- Node2&#45;&gt;Node1 -->
<g id="edge1_Node000001_Node000002" class="edge">
<title>Node2&#45;&gt;Node1</title>
<g id="a_edge1_Node000001_Node000002"><a xlink:title=" ">
<path fill="none" stroke="#9a32cd" stroke-dasharray="5,2" d="M39.09,-121.73C37.09,-106.67 34.98,-85 36,-66 36.9,-49.35 39.3,-30.02 40.78,-19.13"/>
<polygon fill="#9a32cd" stroke="#9a32cd" points="35.65,-122.39 40.54,-131.79 42.58,-121.4 35.65,-122.39"/>
</a>
</g>
<text text-anchor="middle" x="60.5" y="-73" font-family="Helvetica,sans-Serif" font-size="10.00" fill="grey"> phyLayer</text>
</g>
<!-- Node3 -->
<g id="Node000003" class="node">
<title>Node3</title>
<g id="a_Node000003"><a xlink:href="classAFSKClient.html" target="_top" xlink:title="Client for audio&#45;based transmissions. Requires Arduino tone() function, and a module capable of direc...">
<polygon fill="white" stroke="#666666" points="162.5,-85 93.5,-85 93.5,-66 162.5,-66 162.5,-85"/>
<text text-anchor="middle" x="128" y="-73" font-family="Helvetica,sans-Serif" font-size="10.00">AFSKClient</text>
</a>
</g>
</g>
<!-- Node2&#45;&gt;Node3 -->
<g id="edge3_Node000003_Node000002" class="edge">
<title>Node2&#45;&gt;Node3</title>
<g id="a_edge3_Node000003_Node000002"><a xlink:title=" ">
<path fill="none" stroke="#9a32cd" stroke-dasharray="5,2" d="M61.71,-125.83C78.57,-113.28 102.29,-95.63 116.31,-85.2"/>
<polygon fill="#9a32cd" stroke="#9a32cd" points="59.53,-123.09 53.6,-131.87 63.71,-128.71 59.53,-123.09"/>
</a>
</g>
<text text-anchor="middle" x="114.5" y="-106" font-family="Helvetica,sans-Serif" font-size="10.00" fill="grey"> phyLayer</text>
</g>
<!-- Node3&#45;&gt;Node1 -->
<g id="edge2_Node000001_Node000003" class="edge">
<title>Node3&#45;&gt;Node1</title>
<g id="a_edge2_Node000001_Node000003"><a xlink:title=" ">
<path fill="none" stroke="#9a32cd" stroke-dasharray="5,2" d="M108.29,-59.83C91.43,-47.28 67.71,-29.63 53.69,-19.2"/>
<polygon fill="#9a32cd" stroke="#9a32cd" points="106.29,-62.71 116.4,-65.87 110.47,-57.09 106.29,-62.71"/>
</a>
</g>
<text text-anchor="middle" x="119.5" y="-40" font-family="Helvetica,sans-Serif" font-size="10.00" fill="grey"> audioClient</text>
</g>
</g>
</svg>
