<?xml version="1.0" encoding="UTF-8" standalone="no"?>
<!DOCTYPE svg PUBLIC "-//W3C//DTD SVG 1.1//EN"
 "http://www.w3.org/Graphics/SVG/1.1/DTD/svg11.dtd">
<!-- Generated by graphviz version 2.43.0 (0)
 -->
<!-- Title: cxxopts::Options::parse Pages: 1 -->
<svg width="1297pt" height="751pt"
 viewBox="0.00 0.00 1297.00 751.00" xmlns="http://www.w3.org/2000/svg" xmlns:xlink="http://www.w3.org/1999/xlink">
<g id="graph0" class="graph" transform="scale(1 1) rotate(0) translate(4 747)">
<title>cxxopts::Options::parse</title>
<!-- Node1 -->
<g id="Node000001" class="node">
<title>Node1</title>
<g id="a_Node000001"><a xlink:title=" ">
<polygon fill="#999999" stroke="#666666" points="131,-375.5 0,-375.5 0,-356.5 131,-356.5 131,-375.5"/>
<text text-anchor="middle" x="65.5" y="-363.5" font-family="Helvetica,sans-Serif" font-size="10.00">cxxopts::Options::parse</text>
</a>
</g>
</g>
<!-- Node2 -->
<g id="Node000002" class="node">
<title>Node2</title>
<g id="a_Node000002"><a xlink:href="classcxxopts_1_1OptionParser.html#a0b61e22df2480c2c91f2793f3c1452ff" target="_top" xlink:title=" ">
<polygon fill="white" stroke="#666666" points="289,-405 167,-405 167,-375 289,-375 289,-405"/>
<text text-anchor="start" x="175" y="-393" font-family="Helvetica,sans-Serif" font-size="10.00">cxxopts::OptionParser</text>
<text text-anchor="middle" x="228" y="-382" font-family="Helvetica,sans-Serif" font-size="10.00">::OptionParser</text>
</a>
</g>
</g>
<!-- Node1&#45;&gt;Node2 -->
<g id="edge1_Node000001_Node000002" class="edge">
<title>Node1&#45;&gt;Node2</title>
<g id="a_edge1_Node000001_Node000002"><a xlink:title=" ">
<path fill="none" stroke="#63b8ff" d="M130.4,-375.55C139.16,-376.87 148.2,-378.22 157.06,-379.54"/>
<polygon fill="#63b8ff" stroke="#63b8ff" points="156.57,-383.01 166.98,-381.02 157.6,-376.08 156.57,-383.01"/>
</a>
</g>
</g>
<!-- Node3 -->
<g id="Node000003" class="node">
<title>Node3</title>
<g id="a_Node000003"><a xlink:href="classcxxopts_1_1OptionParser.html#a4218816ce33c211b54acb9e71603ea0b" target="_top" xlink:title=" ">
<polygon fill="white" stroke="#666666" points="289,-357 167,-357 167,-327 289,-327 289,-357"/>
<text text-anchor="start" x="175" y="-345" font-family="Helvetica,sans-Serif" font-size="10.00">cxxopts::OptionParser</text>
<text text-anchor="middle" x="228" y="-334" font-family="Helvetica,sans-Serif" font-size="10.00">::parse</text>
</a>
</g>
</g>
<!-- Node1&#45;&gt;Node3 -->
<g id="edge2_Node000001_Node000003" class="edge">
<title>Node1&#45;&gt;Node3</title>
<g id="a_edge2_Node000001_Node000003"><a xlink:title=" ">
<path fill="none" stroke="#63b8ff" d="M130.4,-356.45C139.16,-355.13 148.2,-353.78 157.06,-352.46"/>
<polygon fill="#63b8ff" stroke="#63b8ff" points="157.6,-355.92 166.98,-350.98 156.57,-348.99 157.6,-355.92"/>
</a>
</g>
</g>
<!-- Node4 -->
<g id="Node000004" class="node">
<title>Node4</title>
<g id="a_Node000004"><a xlink:href="classcxxopts_1_1OptionParser.html#a0c093ba32746de7c3b08715eab961aff" target="_top" xlink:title=" ">
<polygon fill="white" stroke="#666666" points="450.5,-604 328.5,-604 328.5,-574 450.5,-574 450.5,-604"/>
<text text-anchor="start" x="336.5" y="-592" font-family="Helvetica,sans-Serif" font-size="10.00">cxxopts::OptionParser</text>
<text text-anchor="middle" x="389.5" y="-581" font-family="Helvetica,sans-Serif" font-size="10.00">::checked_parse_arg</text>
</a>
</g>
</g>
<!-- Node3&#45;&gt;Node4 -->
<g id="edge3_Node000003_Node000004" class="edge">
<title>Node3&#45;&gt;Node4</title>
<g id="a_edge3_Node000003_Node000004"><a xlink:title=" ">
<path fill="none" stroke="#63b8ff" d="M278.89,-357.09C282.66,-359.62 286.11,-362.57 289,-366 338.72,-425.1 285.16,-469.84 325,-536 332.44,-548.35 343.81,-559.17 354.88,-567.75"/>
<polygon fill="#63b8ff" stroke="#63b8ff" points="353.09,-570.78 363.23,-573.87 357.23,-565.13 353.09,-570.78"/>
</a>
</g>
</g>
<!-- Node5 -->
<g id="Node000005" class="node">
<title>Node5</title>
<g id="a_Node000005"><a xlink:href="classcxxopts_1_1Value.html#a436f0a8a6621de420088839f4c728230" target="_top" xlink:title=" ">
<polygon fill="white" stroke="#666666" points="614,-743 505,-743 505,-713 614,-713 614,-743"/>
<text text-anchor="start" x="513" y="-731" font-family="Helvetica,sans-Serif" font-size="10.00">cxxopts::Value::get</text>
<text text-anchor="middle" x="559.5" y="-720" font-family="Helvetica,sans-Serif" font-size="10.00">_implicit_value</text>
</a>
</g>
</g>
<!-- Node3&#45;&gt;Node5 -->
<g id="edge35_Node000003_Node000005" class="edge">
<title>Node3&#45;&gt;Node5</title>
<g id="a_edge35_Node000003_Node000005"><a xlink:title=" ">
<path fill="none" stroke="#63b8ff" d="M279.52,-357C283.11,-359.55 286.34,-362.52 289,-366 374.51,-478 229.68,-577.22 325,-681 367.31,-727.06 441.13,-735.1 494.46,-733.97"/>
<polygon fill="#63b8ff" stroke="#63b8ff" points="494.62,-737.46 504.51,-733.64 494.4,-730.47 494.62,-737.46"/>
</a>
</g>
</g>
<!-- Node6 -->
<g id="Node000006" class="node">
<title>Node6</title>
<g id="a_Node000006"><a xlink:href="classcxxopts_1_1Value.html#aac3425b87db8ef41157892449999b183" target="_top" xlink:title=" ">
<polygon fill="white" stroke="#666666" points="614.5,-695 504.5,-695 504.5,-665 614.5,-665 614.5,-695"/>
<text text-anchor="start" x="512.5" y="-683" font-family="Helvetica,sans-Serif" font-size="10.00">cxxopts::Value::has</text>
<text text-anchor="middle" x="559.5" y="-672" font-family="Helvetica,sans-Serif" font-size="10.00">_implicit</text>
</a>
</g>
</g>
<!-- Node3&#45;&gt;Node6 -->
<g id="edge38_Node000003_Node000006" class="edge">
<title>Node3&#45;&gt;Node6</title>
<g id="a_edge38_Node000003_Node000006"><a xlink:title=" ">
<path fill="none" stroke="#63b8ff" d="M279.47,-357.04C283.06,-359.58 286.32,-362.54 289,-366 365.59,-464.82 237.5,-555.69 325,-645 368.25,-689.15 441.56,-693.43 494.51,-689.5"/>
<polygon fill="#63b8ff" stroke="#63b8ff" points="494.82,-692.98 504.48,-688.64 494.22,-686.01 494.82,-692.98"/>
</a>
</g>
</g>
<!-- Node7 -->
<g id="Node000007" class="node">
<title>Node7</title>
<g id="a_Node000007"><a xlink:href="classcxxopts_1_1OptionParser.html#a07db7b6bb2095df7b75b50ed2311ffe5" target="_top" xlink:title=" ">
<polygon fill="white" stroke="#666666" points="620.5,-647 498.5,-647 498.5,-617 620.5,-617 620.5,-647"/>
<text text-anchor="start" x="506.5" y="-635" font-family="Helvetica,sans-Serif" font-size="10.00">cxxopts::OptionParser</text>
<text text-anchor="middle" x="559.5" y="-624" font-family="Helvetica,sans-Serif" font-size="10.00">::parse_option</text>
</a>
</g>
</g>
<!-- Node3&#45;&gt;Node7 -->
<g id="edge53_Node000003_Node000007" class="edge">
<title>Node3&#45;&gt;Node7</title>
<g id="a_edge53_Node000003_Node000007"><a xlink:title=" ">
<path fill="none" stroke="#63b8ff" d="M279.41,-357.09C283.02,-359.62 286.29,-362.56 289,-366 357.67,-453.13 244.1,-537.09 325,-613 367.75,-653.12 436.38,-654.08 488.2,-647.27"/>
<polygon fill="#63b8ff" stroke="#63b8ff" points="488.93,-650.7 498.33,-645.81 487.93,-643.77 488.93,-650.7"/>
</a>
</g>
</g>
<!-- Node9 -->
<g id="Node000009" class="node">
<title>Node9</title>
<g id="a_Node000009"><a xlink:href="classcxxopts_1_1OptionDetails.html#a3e5d1e478cc4a241d710f9ab792fcafb" target="_top" xlink:title=" ">
<polygon fill="white" stroke="#666666" points="800,-298 673,-298 673,-268 800,-268 800,-298"/>
<text text-anchor="start" x="681" y="-286" font-family="Helvetica,sans-Serif" font-size="10.00">cxxopts::OptionDetails</text>
<text text-anchor="middle" x="736.5" y="-275" font-family="Helvetica,sans-Serif" font-size="10.00">::hash</text>
</a>
</g>
</g>
<!-- Node3&#45;&gt;Node9 -->
<g id="edge39_Node000003_Node000009" class="edge">
<title>Node3&#45;&gt;Node9</title>
<g id="a_edge39_Node000003_Node000009"><a xlink:title=" ">
<path fill="none" stroke="#63b8ff" d="M258.87,-326.9C277.62,-317.7 302.44,-306.01 325,-297 381.12,-274.58 403.03,-286.46 454,-254 473.62,-241.5 468.63,-225.19 490,-216 546.75,-191.59 571.92,-192.36 629,-216 649.91,-224.66 646.32,-239.23 665,-252 671.15,-256.2 677.95,-260.04 684.85,-263.48"/>
<polygon fill="#63b8ff" stroke="#63b8ff" points="683.7,-266.81 694.24,-267.92 686.69,-260.48 683.7,-266.81"/>
</a>
</g>
</g>
<!-- Node16 -->
<g id="Node000016" class="node">
<title>Node16</title>
<g id="a_Node000016"><a xlink:href="namespacecxxopts.html#a466f47408560fa08e43bf48ec2366b22" target="_top" xlink:title=" ">
<polygon fill="white" stroke="#666666" points="629,-598.5 490,-598.5 490,-579.5 629,-579.5 629,-598.5"/>
<text text-anchor="middle" x="559.5" y="-586.5" font-family="Helvetica,sans-Serif" font-size="10.00">cxxopts::throw_or_mimic</text>
</a>
</g>
</g>
<!-- Node3&#45;&gt;Node16 -->
<g id="edge56_Node000003_Node000016" class="edge">
<title>Node3&#45;&gt;Node16</title>
<g id="a_edge56_Node000003_Node000016"><a xlink:title=" ">
<path fill="none" stroke="#63b8ff" d="M277.96,-357.04C282.02,-359.59 285.79,-362.55 289,-366 324.9,-404.59 291.55,-438.27 325,-479 369.75,-533.49 447.71,-562.55 501.15,-576.86"/>
<polygon fill="#63b8ff" stroke="#63b8ff" points="500.6,-580.34 511.16,-579.45 502.35,-573.56 500.6,-580.34"/>
</a>
</g>
</g>
<!-- Node17 -->
<g id="Node000017" class="node">
<title>Node17</title>
<g id="a_Node000017"><a xlink:href="classcxxopts_1_1OptionDetails.html#a3f90596c7b7634449a51370f211163a8" target="_top" xlink:title=" ">
<polygon fill="white" stroke="#666666" points="623,-427 496,-427 496,-397 623,-397 623,-427"/>
<text text-anchor="start" x="504" y="-415" font-family="Helvetica,sans-Serif" font-size="10.00">cxxopts::OptionDetails</text>
<text text-anchor="middle" x="559.5" y="-404" font-family="Helvetica,sans-Serif" font-size="10.00">::value</text>
</a>
</g>
</g>
<!-- Node3&#45;&gt;Node17 -->
<g id="edge57_Node000003_Node000017" class="edge">
<title>Node3&#45;&gt;Node17</title>
<g id="a_edge57_Node000003_Node000017"><a xlink:title=" ">
<path fill="none" stroke="#63b8ff" d="M284.18,-357.02C297.51,-360.47 311.73,-364 325,-367 378.64,-379.14 439.69,-390.83 485.91,-399.25"/>
<polygon fill="#63b8ff" stroke="#63b8ff" points="485.37,-402.71 495.84,-401.05 486.62,-395.83 485.37,-402.71"/>
</a>
</g>
</g>
<!-- Node18 -->
<g id="Node000018" class="node">
<title>Node18</title>
<g id="a_Node000018"><a xlink:href="classcxxopts_1_1OptionParser.html#a4d595d8f6f34760bc2248d1b96af53a4" target="_top" xlink:title=" ">
<polygon fill="white" stroke="#666666" points="450.5,-470 328.5,-470 328.5,-440 450.5,-440 450.5,-470"/>
<text text-anchor="start" x="336.5" y="-458" font-family="Helvetica,sans-Serif" font-size="10.00">cxxopts::OptionParser</text>
<text text-anchor="middle" x="389.5" y="-447" font-family="Helvetica,sans-Serif" font-size="10.00">::consume_positional</text>
</a>
</g>
</g>
<!-- Node3&#45;&gt;Node18 -->
<g id="edge17_Node000003_Node000018" class="edge">
<title>Node3&#45;&gt;Node18</title>
<g id="a_edge17_Node000003_Node000018"><a xlink:title=" ">
<path fill="none" stroke="#63b8ff" d="M275.21,-357.03C280.12,-359.61 284.83,-362.59 289,-366 311.61,-384.5 303.45,-401.27 325,-421 330.58,-426.11 337.07,-430.7 343.73,-434.74"/>
<polygon fill="#63b8ff" stroke="#63b8ff" points="342.41,-438.02 352.84,-439.89 345.86,-431.92 342.41,-438.02"/>
</a>
</g>
</g>
<!-- Node22 -->
<g id="Node000022" class="node">
<title>Node22</title>
<g id="a_Node000022"><a xlink:href="classcxxopts_1_1OptionValue.html#a9d8fc19cfc051a4d1d435c424deb6b49" target="_top" xlink:title=" ">
<polygon fill="white" stroke="#666666" points="619,-379 500,-379 500,-349 619,-349 619,-379"/>
<text text-anchor="start" x="508" y="-367" font-family="Helvetica,sans-Serif" font-size="10.00">cxxopts::OptionValue</text>
<text text-anchor="middle" x="559.5" y="-356" font-family="Helvetica,sans-Serif" font-size="10.00">::count</text>
</a>
</g>
</g>
<!-- Node3&#45;&gt;Node22 -->
<g id="edge30_Node000003_Node000022" class="edge">
<title>Node3&#45;&gt;Node22</title>
<g id="a_edge30_Node000003_Node000022"><a xlink:title=" ">
<path fill="none" stroke="#63b8ff" d="M289.05,-346.01C345.73,-349.79 430.63,-355.46 489.94,-359.42"/>
<polygon fill="#63b8ff" stroke="#63b8ff" points="489.76,-362.92 499.97,-360.09 490.22,-355.93 489.76,-362.92"/>
</a>
</g>
</g>
<!-- Node24 -->
<g id="Node000024" class="node">
<title>Node24</title>
<g id="a_Node000024"><a xlink:href="classcxxopts_1_1OptionParser.html#a375fff61bb08268e6deb81baa0514b27" target="_top" xlink:title=" ">
<polygon fill="white" stroke="#666666" points="620.5,-83 498.5,-83 498.5,-53 620.5,-53 620.5,-83"/>
<text text-anchor="start" x="506.5" y="-71" font-family="Helvetica,sans-Serif" font-size="10.00">cxxopts::OptionParser</text>
<text text-anchor="middle" x="559.5" y="-60" font-family="Helvetica,sans-Serif" font-size="10.00">::finalise_aliases</text>
</a>
</g>
</g>
<!-- Node3&#45;&gt;Node24 -->
<g id="edge31_Node000003_Node000024" class="edge">
<title>Node3&#45;&gt;Node24</title>
<g id="a_edge31_Node000003_Node000024"><a xlink:title=" ">
<path fill="none" stroke="#63b8ff" d="M236.17,-326.95C249.66,-300.29 281.44,-244.86 325,-216 374.34,-183.32 409.6,-222.12 454,-183 486.63,-154.25 458.64,-122.14 490,-92 491.11,-90.94 492.26,-89.92 493.46,-88.95"/>
<polygon fill="#63b8ff" stroke="#63b8ff" points="495.65,-91.69 501.92,-83.16 491.69,-85.92 495.65,-91.69"/>
</a>
</g>
</g>
<!-- Node26 -->
<g id="Node000026" class="node">
<title>Node26</title>
<g id="a_Node000026"><a xlink:href="classcxxopts_1_1Value.html#aac3233a0414ac39d54ed0b98365afc7e" target="_top" xlink:title=" ">
<polygon fill="white" stroke="#666666" points="444.5,-174 334.5,-174 334.5,-144 444.5,-144 444.5,-174"/>
<text text-anchor="start" x="342.5" y="-162" font-family="Helvetica,sans-Serif" font-size="10.00">cxxopts::Value::has</text>
<text text-anchor="middle" x="389.5" y="-151" font-family="Helvetica,sans-Serif" font-size="10.00">_default</text>
</a>
</g>
</g>
<!-- Node3&#45;&gt;Node26 -->
<g id="edge36_Node000003_Node000026" class="edge">
<title>Node3&#45;&gt;Node26</title>
<g id="a_edge36_Node000003_Node000026"><a xlink:title=" ">
<path fill="none" stroke="#63b8ff" d="M234.89,-326.84C247.31,-296.68 278.85,-228.55 325,-188 328.68,-184.77 332.77,-181.84 337.06,-179.19"/>
<polygon fill="#63b8ff" stroke="#63b8ff" points="339.06,-182.08 346.08,-174.15 335.64,-175.97 339.06,-182.08"/>
</a>
</g>
</g>
<!-- Node27 -->
<g id="Node000027" class="node">
<title>Node27</title>
<g id="a_Node000027"><a xlink:href="classcxxopts_1_1OptionValue.html#ab36579e07e3f29af87aa870f996a7906" target="_top" xlink:title=" ">
<polygon fill="white" stroke="#666666" points="449,-126 330,-126 330,-96 449,-96 449,-126"/>
<text text-anchor="start" x="338" y="-114" font-family="Helvetica,sans-Serif" font-size="10.00">cxxopts::OptionValue</text>
<text text-anchor="middle" x="389.5" y="-103" font-family="Helvetica,sans-Serif" font-size="10.00">::has_default</text>
</a>
</g>
</g>
<!-- Node3&#45;&gt;Node27 -->
<g id="edge37_Node000003_Node000027" class="edge">
<title>Node3&#45;&gt;Node27</title>
<g id="a_edge37_Node000003_Node000027"><a xlink:title=" ">
<path fill="none" stroke="#63b8ff" d="M231.89,-326.94C239.87,-289.28 265.67,-190.16 325,-135 326.28,-133.81 327.62,-132.68 329.01,-131.61"/>
<polygon fill="#63b8ff" stroke="#63b8ff" points="331.05,-134.45 337.48,-126.03 327.2,-128.61 331.05,-134.45"/>
</a>
</g>
</g>
<!-- Node28 -->
<g id="Node000028" class="node">
<title>Node28</title>
<g id="a_Node000028"><a xlink:href="classcxxopts_1_1OptionParser.html#a28026f132e532009842f11359fb08373" target="_top" xlink:title=" ">
<polygon fill="white" stroke="#666666" points="450.5,-336 328.5,-336 328.5,-306 450.5,-306 450.5,-336"/>
<text text-anchor="start" x="336.5" y="-324" font-family="Helvetica,sans-Serif" font-size="10.00">cxxopts::OptionParser</text>
<text text-anchor="middle" x="389.5" y="-313" font-family="Helvetica,sans-Serif" font-size="10.00">::parse_default</text>
</a>
</g>
</g>
<!-- Node3&#45;&gt;Node28 -->
<g id="edge40_Node000003_Node000028" class="edge">
<title>Node3&#45;&gt;Node28</title>
<g id="a_edge40_Node000003_Node000028"><a xlink:title=" ">
<path fill="none" stroke="#63b8ff" d="M289.3,-334.06C298.79,-332.81 308.68,-331.51 318.37,-330.23"/>
<polygon fill="#63b8ff" stroke="#63b8ff" points="318.92,-333.69 328.38,-328.92 318.01,-326.75 318.92,-333.69"/>
</a>
</g>
</g>
<!-- Node32 -->
<g id="Node000032" class="node">
<title>Node32</title>
<g id="a_Node000032"><a xlink:href="classcxxopts_1_1OptionParser.html#a80bbe1ff81b5d39bf6fda208e95a0d04" target="_top" xlink:title=" ">
<polygon fill="white" stroke="#666666" points="620.5,-131 498.5,-131 498.5,-101 620.5,-101 620.5,-131"/>
<text text-anchor="start" x="506.5" y="-119" font-family="Helvetica,sans-Serif" font-size="10.00">cxxopts::OptionParser</text>
<text text-anchor="middle" x="559.5" y="-108" font-family="Helvetica,sans-Serif" font-size="10.00">::parse_no_value</text>
</a>
</g>
</g>
<!-- Node3&#45;&gt;Node32 -->
<g id="edge49_Node000003_Node000032" class="edge">
<title>Node3&#45;&gt;Node32</title>
<g id="a_edge49_Node000003_Node000032"><a xlink:title=" ">
<path fill="none" stroke="#63b8ff" d="M244.45,-326.73C262.5,-309.57 293.86,-281.8 325,-264 378.11,-233.64 402.16,-248.48 454,-216 487.92,-194.74 520.12,-161.18 539.59,-138.88"/>
<polygon fill="#63b8ff" stroke="#63b8ff" points="542.31,-141.09 546.16,-131.22 536.99,-136.53 542.31,-141.09"/>
</a>
</g>
</g>
<!-- Node34 -->
<g id="Node000034" class="node">
<title>Node34</title>
<g id="a_Node000034"><a xlink:href="namespacecxxopts_1_1values_1_1parser__tool.html#a0c95fda26d85865d26182d1df061ed8a" target="_top" xlink:title=" ">
<polygon fill="white" stroke="#666666" points="454,-78 325,-78 325,-48 454,-48 454,-78"/>
<text text-anchor="start" x="333" y="-66" font-family="Helvetica,sans-Serif" font-size="10.00">cxxopts::values::parser</text>
<text text-anchor="middle" x="389.5" y="-55" font-family="Helvetica,sans-Serif" font-size="10.00">_tool::ParseArgument</text>
</a>
</g>
</g>
<!-- Node3&#45;&gt;Node34 -->
<g id="edge54_Node000003_Node000034" class="edge">
<title>Node3&#45;&gt;Node34</title>
<g id="a_edge54_Node000003_Node000034"><a xlink:title=" ">
<path fill="none" stroke="#63b8ff" d="M230.42,-326.76C235.27,-283.25 254.97,-157.12 325,-87 326.07,-85.93 327.19,-84.91 328.35,-83.93"/>
<polygon fill="#63b8ff" stroke="#63b8ff" points="330.44,-86.74 336.59,-78.12 326.4,-81.02 330.44,-86.74"/>
</a>
</g>
</g>
<!-- Node35 -->
<g id="Node000035" class="node">
<title>Node35</title>
<g id="a_Node000035"><a xlink:href="classcxxopts_1_1ParseResult.html#a1f05143f599a9c92a0321dd802988ba7" target="_top" xlink:title=" ">
<polygon fill="white" stroke="#666666" points="448,-30 331,-30 331,0 448,0 448,-30"/>
<text text-anchor="start" x="339" y="-18" font-family="Helvetica,sans-Serif" font-size="10.00">cxxopts::ParseResult</text>
<text text-anchor="middle" x="389.5" y="-7" font-family="Helvetica,sans-Serif" font-size="10.00">::ParseResult</text>
</a>
</g>
</g>
<!-- Node3&#45;&gt;Node35 -->
<g id="edge55_Node000003_Node000035" class="edge">
<title>Node3&#45;&gt;Node35</title>
<g id="a_edge55_Node000003_Node000035"><a xlink:title=" ">
<path fill="none" stroke="#63b8ff" d="M229.36,-326.79C231.33,-278.15 244,-124.55 325,-39 325.91,-38.04 326.87,-37.11 327.86,-36.23"/>
<polygon fill="#63b8ff" stroke="#63b8ff" points="330.15,-38.89 336.09,-30.11 325.97,-33.26 330.15,-38.89"/>
</a>
</g>
</g>
<!-- Node4&#45;&gt;Node5 -->
<g id="edge4_Node000004_Node000005" class="edge">
<title>Node4&#45;&gt;Node5</title>
<g id="a_edge4_Node000004_Node000005"><a xlink:title=" ">
<path fill="none" stroke="#63b8ff" d="M399.9,-604.29C415.64,-628.71 449.61,-676.53 490,-704 492.27,-705.54 494.64,-706.99 497.09,-708.36"/>
<polygon fill="#63b8ff" stroke="#63b8ff" points="495.72,-711.59 506.23,-712.95 498.86,-705.33 495.72,-711.59"/>
</a>
</g>
</g>
<!-- Node4&#45;&gt;Node6 -->
<g id="edge5_Node000004_Node000006" class="edge">
<title>Node4&#45;&gt;Node6</title>
<g id="a_edge5_Node000004_Node000006"><a xlink:title=" ">
<path fill="none" stroke="#63b8ff" d="M409.78,-604.18C429.19,-618.91 460.4,-641.16 490,-656 493.51,-657.76 497.18,-659.45 500.92,-661.06"/>
<polygon fill="#63b8ff" stroke="#63b8ff" points="499.73,-664.35 510.31,-664.88 502.37,-657.87 499.73,-664.35"/>
</a>
</g>
</g>
<!-- Node4&#45;&gt;Node7 -->
<g id="edge6_Node000004_Node000007" class="edge">
<title>Node4&#45;&gt;Node7</title>
<g id="a_edge6_Node000004_Node000007"><a xlink:title=" ">
<path fill="none" stroke="#63b8ff" d="M449.26,-604.04C462.43,-607.41 476.52,-611.02 490.04,-614.48"/>
<polygon fill="#63b8ff" stroke="#63b8ff" points="489.22,-617.88 499.77,-616.97 490.96,-611.1 489.22,-617.88"/>
</a>
</g>
</g>
<!-- Node4&#45;&gt;Node16 -->
<g id="edge15_Node000004_Node000016" class="edge">
<title>Node4&#45;&gt;Node16</title>
<g id="a_edge15_Node000004_Node000016"><a xlink:title=" ">
<path fill="none" stroke="#63b8ff" d="M450.68,-589C460.11,-589 469.98,-589 479.76,-589"/>
<polygon fill="#63b8ff" stroke="#63b8ff" points="479.89,-592.5 489.89,-589 479.89,-585.5 479.89,-592.5"/>
</a>
</g>
</g>
<!-- Node4&#45;&gt;Node17 -->
<g id="edge16_Node000004_Node000017" class="edge">
<title>Node4&#45;&gt;Node17</title>
<g id="a_edge16_Node000004_Node000017"><a xlink:title=" ">
<path fill="none" stroke="#63b8ff" d="M402.51,-573.97C420.68,-551.51 456.59,-508.17 490,-474 503.56,-460.13 519.59,-445.54 532.73,-433.99"/>
<polygon fill="#63b8ff" stroke="#63b8ff" points="535.25,-436.44 540.5,-427.23 530.66,-431.16 535.25,-436.44"/>
</a>
</g>
</g>
<!-- Node8 -->
<g id="Node000008" class="node">
<title>Node8</title>
<g id="a_Node000008"><a xlink:href="classcxxopts_1_1OptionDetails.html#a02b918ea1873a2716cfd5ad909be3034" target="_top" xlink:title=" ">
<polygon fill="white" stroke="#666666" points="800,-408 673,-408 673,-378 800,-378 800,-408"/>
<text text-anchor="start" x="681" y="-396" font-family="Helvetica,sans-Serif" font-size="10.00">cxxopts::OptionDetails</text>
<text text-anchor="middle" x="736.5" y="-385" font-family="Helvetica,sans-Serif" font-size="10.00">::essential_name</text>
</a>
</g>
</g>
<!-- Node7&#45;&gt;Node8 -->
<g id="edge7_Node000007_Node000008" class="edge">
<title>Node7&#45;&gt;Node8</title>
<g id="a_edge7_Node000007_Node000008"><a xlink:title=" ">
<path fill="none" stroke="#63b8ff" d="M618.76,-616.91C622.56,-614.38 626.04,-611.44 629,-608 685.06,-542.85 609.07,-483.26 665,-418 666.03,-416.8 667.12,-415.65 668.27,-414.57"/>
<polygon fill="#63b8ff" stroke="#63b8ff" points="670.77,-417.05 676.52,-408.15 666.47,-411.53 670.77,-417.05"/>
</a>
</g>
</g>
<!-- Node7&#45;&gt;Node9 -->
<g id="edge8_Node000007_Node000009" class="edge">
<title>Node7&#45;&gt;Node9</title>
<g id="a_edge8_Node000007_Node000009"><a xlink:title=" ">
<path fill="none" stroke="#63b8ff" d="M619.22,-616.82C622.86,-614.31 626.19,-611.4 629,-608 697.51,-525.27 621.39,-467.17 665,-369 675.85,-344.59 695.56,-321.44 711.39,-305.33"/>
<polygon fill="#63b8ff" stroke="#63b8ff" points="714.15,-307.52 718.79,-298 709.22,-302.55 714.15,-307.52"/>
</a>
</g>
</g>
<!-- Node10 -->
<g id="Node000010" class="node">
<title>Node10</title>
<g id="a_Node000010"><a xlink:href="classcxxopts_1_1OptionValue.html#a69645a46405198eea09f45137f1bcf8b" target="_top" xlink:title=" ">
<polygon fill="white" stroke="#666666" points="796,-494 677,-494 677,-464 796,-464 796,-494"/>
<text text-anchor="start" x="685" y="-482" font-family="Helvetica,sans-Serif" font-size="10.00">cxxopts::OptionValue</text>
<text text-anchor="middle" x="736.5" y="-471" font-family="Helvetica,sans-Serif" font-size="10.00">::parse</text>
</a>
</g>
</g>
<!-- Node7&#45;&gt;Node10 -->
<g id="edge9_Node000007_Node000010" class="edge">
<title>Node7&#45;&gt;Node10</title>
<g id="a_edge9_Node000007_Node000010"><a xlink:title=" ">
<path fill="none" stroke="#63b8ff" d="M613.21,-616.9C618.76,-614.34 624.14,-611.39 629,-608 669.84,-579.52 703.75,-531.33 721.69,-502.6"/>
<polygon fill="#63b8ff" stroke="#63b8ff" points="724.71,-504.37 726.94,-494.01 718.74,-500.72 724.71,-504.37"/>
</a>
</g>
</g>
<!-- Node11 -->
<g id="Node000011" class="node">
<title>Node11</title>
<g id="a_Node000011"><a xlink:href="classcxxopts_1_1OptionValue.html#a5e62e7e64679e627ba8946c36a559f2a" target="_top" xlink:title=" ">
<polygon fill="white" stroke="#666666" points="967,-411 848,-411 848,-381 967,-381 967,-411"/>
<text text-anchor="start" x="856" y="-399" font-family="Helvetica,sans-Serif" font-size="10.00">cxxopts::OptionValue</text>
<text text-anchor="middle" x="907.5" y="-388" font-family="Helvetica,sans-Serif" font-size="10.00">::ensure_value</text>
</a>
</g>
</g>
<!-- Node10&#45;&gt;Node11 -->
<g id="edge10_Node000010_Node000011" class="edge">
<title>Node10&#45;&gt;Node11</title>
<g id="a_edge10_Node000010_Node000011"><a xlink:title=" ">
<path fill="none" stroke="#63b8ff" d="M790.23,-463.87C796.4,-461.29 802.46,-458.34 808,-455 826.85,-443.64 825.46,-432.85 844,-421 847.09,-419.03 850.35,-417.16 853.71,-415.41"/>
<polygon fill="#63b8ff" stroke="#63b8ff" points="855.28,-418.54 862.75,-411.03 852.22,-412.24 855.28,-418.54"/>
</a>
</g>
</g>
<!-- Node14 -->
<g id="Node000014" class="node">
<title>Node14</title>
<g id="a_Node000014"><a xlink:href="classcxxopts_1_1OptionDetails.html#a1b61b4570ee040ce1b9fc6e358e08b2d" target="_top" xlink:title=" ">
<polygon fill="white" stroke="#666666" points="971,-264 844,-264 844,-234 971,-234 971,-264"/>
<text text-anchor="start" x="852" y="-252" font-family="Helvetica,sans-Serif" font-size="10.00">cxxopts::OptionDetails</text>
<text text-anchor="middle" x="907.5" y="-241" font-family="Helvetica,sans-Serif" font-size="10.00">::long_names</text>
</a>
</g>
</g>
<!-- Node10&#45;&gt;Node14 -->
<g id="edge13_Node000010_Node000014" class="edge">
<title>Node10&#45;&gt;Node14</title>
<g id="a_edge13_Node000010_Node000014"><a xlink:title=" ">
<path fill="none" stroke="#63b8ff" d="M795.6,-463.87C800.08,-461.35 804.29,-458.42 808,-455 837.56,-427.74 826.88,-408.38 844,-372 860.38,-337.18 880.82,-297.61 893.77,-272.98"/>
<polygon fill="#63b8ff" stroke="#63b8ff" points="896.93,-274.48 898.5,-264 890.74,-271.21 896.93,-274.48"/>
</a>
</g>
</g>
<!-- Node15 -->
<g id="Node000015" class="node">
<title>Node15</title>
<g id="a_Node000015"><a xlink:href="classcxxopts_1_1Value.html#a3c962e4ff3294721f5c9f6ac3fc00cc7" target="_top" xlink:title=" ">
<polygon fill="white" stroke="#666666" points="967.5,-488.5 847.5,-488.5 847.5,-469.5 967.5,-469.5 967.5,-488.5"/>
<text text-anchor="middle" x="907.5" y="-476.5" font-family="Helvetica,sans-Serif" font-size="10.00">cxxopts::Value::parse</text>
</a>
</g>
</g>
<!-- Node10&#45;&gt;Node15 -->
<g id="edge14_Node000010_Node000015" class="edge">
<title>Node10&#45;&gt;Node15</title>
<g id="a_edge14_Node000010_Node000015"><a xlink:title=" ">
<path fill="none" stroke="#63b8ff" d="M796.13,-479C809.35,-479 823.51,-479 837.12,-479"/>
<polygon fill="#63b8ff" stroke="#63b8ff" points="837.4,-482.5 847.4,-479 837.4,-475.5 837.4,-482.5"/>
</a>
</g>
</g>
<!-- Node12 -->
<g id="Node000012" class="node">
<title>Node12</title>
<g id="a_Node000012"><a xlink:href="classcxxopts_1_1OptionDetails.html#a3ff160262711ae6eebb41649491e75e6" target="_top" xlink:title=" ">
<polygon fill="white" stroke="#666666" points="1134,-411 1007,-411 1007,-381 1134,-381 1134,-411"/>
<text text-anchor="start" x="1015" y="-399" font-family="Helvetica,sans-Serif" font-size="10.00">cxxopts::OptionDetails</text>
<text text-anchor="middle" x="1070.5" y="-388" font-family="Helvetica,sans-Serif" font-size="10.00">::make_storage</text>
</a>
</g>
</g>
<!-- Node11&#45;&gt;Node12 -->
<g id="edge11_Node000011_Node000012" class="edge">
<title>Node11&#45;&gt;Node12</title>
<g id="a_edge11_Node000011_Node000012"><a xlink:title=" ">
<path fill="none" stroke="#63b8ff" d="M967.08,-396C976.69,-396 986.75,-396 996.65,-396"/>
<polygon fill="#63b8ff" stroke="#63b8ff" points="996.89,-399.5 1006.89,-396 996.89,-392.5 996.89,-399.5"/>
</a>
</g>
</g>
<!-- Node13 -->
<g id="Node000013" class="node">
<title>Node13</title>
<g id="a_Node000013"><a xlink:href="classcxxopts_1_1Value.html#a17916d6a48e57c999c2dc23fa6b22539" target="_top" xlink:title=" ">
<polygon fill="white" stroke="#666666" points="1289,-405.5 1170,-405.5 1170,-386.5 1289,-386.5 1289,-405.5"/>
<text text-anchor="middle" x="1229.5" y="-393.5" font-family="Helvetica,sans-Serif" font-size="10.00">cxxopts::Value::clone</text>
</a>
</g>
</g>
<!-- Node12&#45;&gt;Node13 -->
<g id="edge12_Node000012_Node000013" class="edge">
<title>Node12&#45;&gt;Node13</title>
<g id="a_edge12_Node000012_Node000013"><a xlink:title=" ">
<path fill="none" stroke="#63b8ff" d="M1134,-396C1142.39,-396 1151.04,-396 1159.53,-396"/>
<polygon fill="#63b8ff" stroke="#63b8ff" points="1159.79,-399.5 1169.79,-396 1159.79,-392.5 1159.79,-399.5"/>
</a>
</g>
</g>
<!-- Node18&#45;&gt;Node9 -->
<g id="edge26_Node000018_Node000009" class="edge">
<title>Node18&#45;&gt;Node9</title>
<g id="a_edge26_Node000018_Node000009"><a xlink:title=" ">
<path fill="none" stroke="#63b8ff" d="M450.69,-465.26C502.22,-470.75 576.23,-470.47 629,-436 657.3,-417.51 646.2,-397.09 665,-369 680.14,-346.39 699.97,-322.61 714.75,-305.8"/>
<polygon fill="#63b8ff" stroke="#63b8ff" points="717.53,-307.94 721.55,-298.14 712.29,-303.29 717.53,-307.94"/>
</a>
</g>
</g>
<!-- Node18&#45;&gt;Node16 -->
<g id="edge28_Node000018_Node000016" class="edge">
<title>Node18&#45;&gt;Node16</title>
<g id="a_edge28_Node000018_Node000016"><a xlink:title=" ">
<path fill="none" stroke="#63b8ff" d="M412.16,-470.06C425.28,-479.87 441.78,-493.51 454,-508 474.54,-532.36 464.78,-550.52 490,-570 492.34,-571.8 494.83,-573.44 497.44,-574.91"/>
<polygon fill="#63b8ff" stroke="#63b8ff" points="496.13,-578.17 506.66,-579.36 499.17,-571.86 496.13,-578.17"/>
</a>
</g>
</g>
<!-- Node18&#45;&gt;Node17 -->
<g id="edge29_Node000018_Node000017" class="edge">
<title>Node18&#45;&gt;Node17</title>
<g id="a_edge29_Node000018_Node000017"><a xlink:title=" ">
<path fill="none" stroke="#63b8ff" d="M449.26,-439.96C462.43,-436.59 476.52,-432.98 490.04,-429.52"/>
<polygon fill="#63b8ff" stroke="#63b8ff" points="490.96,-432.9 499.77,-427.03 489.22,-426.12 490.96,-432.9"/>
</a>
</g>
</g>
<!-- Node19 -->
<g id="Node000019" class="node">
<title>Node19</title>
<g id="a_Node000019"><a xlink:href="classcxxopts_1_1OptionParser.html#a6445f8081bffcb7ab31d241a200b9f04" target="_top" xlink:title=" ">
<polygon fill="white" stroke="#666666" points="620.5,-513 498.5,-513 498.5,-483 620.5,-483 620.5,-513"/>
<text text-anchor="start" x="506.5" y="-501" font-family="Helvetica,sans-Serif" font-size="10.00">cxxopts::OptionParser</text>
<text text-anchor="middle" x="559.5" y="-490" font-family="Helvetica,sans-Serif" font-size="10.00">::add_to_option</text>
</a>
</g>
</g>
<!-- Node18&#45;&gt;Node19 -->
<g id="edge18_Node000018_Node000019" class="edge">
<title>Node18&#45;&gt;Node19</title>
<g id="a_edge18_Node000018_Node000019"><a xlink:title=" ">
<path fill="none" stroke="#63b8ff" d="M449.26,-470.04C462.43,-473.41 476.52,-477.02 490.04,-480.48"/>
<polygon fill="#63b8ff" stroke="#63b8ff" points="489.22,-483.88 499.77,-482.97 490.96,-477.1 489.22,-483.88"/>
</a>
</g>
</g>
<!-- Node18&#45;&gt;Node22 -->
<g id="edge25_Node000018_Node000022" class="edge">
<title>Node18&#45;&gt;Node22</title>
<g id="a_edge25_Node000018_Node000022"><a xlink:title=" ">
<path fill="none" stroke="#63b8ff" d="M409.78,-439.82C429.19,-425.09 460.4,-402.84 490,-388 493.51,-386.24 497.18,-384.55 500.92,-382.94"/>
<polygon fill="#63b8ff" stroke="#63b8ff" points="502.37,-386.13 510.31,-379.12 499.73,-379.65 502.37,-386.13"/>
</a>
</g>
</g>
<!-- Node23 -->
<g id="Node000023" class="node">
<title>Node23</title>
<g id="a_Node000023"><a xlink:href="classcxxopts_1_1Value.html#a632f3263dd598e30999a6bcff0652132" target="_top" xlink:title=" ">
<polygon fill="white" stroke="#666666" points="610,-561 509,-561 509,-531 610,-531 610,-561"/>
<text text-anchor="start" x="517" y="-549" font-family="Helvetica,sans-Serif" font-size="10.00">cxxopts::Value::is</text>
<text text-anchor="middle" x="559.5" y="-538" font-family="Helvetica,sans-Serif" font-size="10.00">_container</text>
</a>
</g>
</g>
<!-- Node18&#45;&gt;Node23 -->
<g id="edge27_Node000018_Node000023" class="edge">
<title>Node18&#45;&gt;Node23</title>
<g id="a_edge27_Node000018_Node000023"><a xlink:title=" ">
<path fill="none" stroke="#63b8ff" d="M409.78,-470.18C429.19,-484.91 460.4,-507.16 490,-522 493.51,-523.76 497.18,-525.45 500.92,-527.06"/>
<polygon fill="#63b8ff" stroke="#63b8ff" points="499.73,-530.35 510.31,-530.88 502.37,-523.87 499.73,-530.35"/>
</a>
</g>
</g>
<!-- Node19&#45;&gt;Node8 -->
<g id="edge23_Node000019_Node000008" class="edge">
<title>Node19&#45;&gt;Node8</title>
<g id="a_edge23_Node000019_Node000008"><a xlink:title=" ">
<path fill="none" stroke="#63b8ff" d="M606.01,-482.97C614.12,-479.14 622.16,-474.51 629,-469 650.6,-451.59 642.89,-434.76 665,-418 667.46,-416.14 670.06,-414.41 672.77,-412.8"/>
<polygon fill="#63b8ff" stroke="#63b8ff" points="674.51,-415.84 681.71,-408.06 671.23,-409.65 674.51,-415.84"/>
</a>
</g>
</g>
<!-- Node19&#45;&gt;Node9 -->
<g id="edge24_Node000019_Node000009" class="edge">
<title>Node19&#45;&gt;Node9</title>
<g id="a_edge24_Node000019_Node000009"><a xlink:title=" ">
<path fill="none" stroke="#63b8ff" d="M610.11,-482.93C617.08,-479.21 623.67,-474.63 629,-469 661.47,-434.69 641.69,-410.08 665,-369 678.26,-345.62 697.95,-322.24 713.15,-305.77"/>
<polygon fill="#63b8ff" stroke="#63b8ff" points="715.91,-307.95 720.21,-298.27 710.81,-303.15 715.91,-307.95"/>
</a>
</g>
</g>
<!-- Node20 -->
<g id="Node000020" class="node">
<title>Node20</title>
<g id="a_Node000020"><a xlink:href="classcxxopts_1_1OptionValue.html#aeec2951c8666eb4f7f562cf526fb656b" target="_top" xlink:title=" ">
<polygon fill="white" stroke="#666666" points="808,-445.5 665,-445.5 665,-426.5 808,-426.5 808,-445.5"/>
<text text-anchor="middle" x="736.5" y="-433.5" font-family="Helvetica,sans-Serif" font-size="10.00">cxxopts::OptionValue::add</text>
</a>
</g>
</g>
<!-- Node19&#45;&gt;Node20 -->
<g id="edge19_Node000019_Node000020" class="edge">
<title>Node19&#45;&gt;Node20</title>
<g id="a_edge19_Node000019_Node000020"><a xlink:title=" ">
<path fill="none" stroke="#63b8ff" d="M595.84,-482.89C620.67,-472.39 651.72,-459.5 665,-455 671.93,-452.65 679.33,-450.39 686.62,-448.31"/>
<polygon fill="#63b8ff" stroke="#63b8ff" points="687.75,-451.63 696.45,-445.58 685.88,-444.88 687.75,-451.63"/>
</a>
</g>
</g>
<!-- Node20&#45;&gt;Node11 -->
<g id="edge21_Node000020_Node000011" class="edge">
<title>Node20&#45;&gt;Node11</title>
<g id="a_edge21_Node000020_Node000011"><a xlink:title=" ">
<path fill="none" stroke="#63b8ff" d="M777.98,-426.42C795.94,-422.17 817.58,-417.05 837.94,-412.23"/>
<polygon fill="#63b8ff" stroke="#63b8ff" points="838.88,-415.6 847.81,-409.89 837.27,-408.79 838.88,-415.6"/>
</a>
</g>
</g>
<!-- Node20&#45;&gt;Node14 -->
<g id="edge22_Node000020_Node000014" class="edge">
<title>Node20&#45;&gt;Node14</title>
<g id="a_edge22_Node000020_Node000014"><a xlink:title=" ">
<path fill="none" stroke="#63b8ff" d="M791.19,-426.36C797.2,-423.91 802.96,-420.85 808,-417 833.44,-397.58 875.12,-315 895.11,-273.3"/>
<polygon fill="#63b8ff" stroke="#63b8ff" points="898.35,-274.65 899.48,-264.12 892.03,-271.64 898.35,-274.65"/>
</a>
</g>
</g>
<!-- Node21 -->
<g id="Node000021" class="node">
<title>Node21</title>
<g id="a_Node000021"><a xlink:href="classcxxopts_1_1Value.html#ac7298b94e9168291835c18dab0b11799" target="_top" xlink:title=" ">
<polygon fill="white" stroke="#666666" points="963,-448.5 852,-448.5 852,-429.5 963,-429.5 963,-448.5"/>
<text text-anchor="middle" x="907.5" y="-436.5" font-family="Helvetica,sans-Serif" font-size="10.00">cxxopts::Value::add</text>
</a>
</g>
</g>
<!-- Node20&#45;&gt;Node21 -->
<g id="edge20_Node000020_Node000021" class="edge">
<title>Node20&#45;&gt;Node21</title>
<g id="a_edge20_Node000020_Node000021"><a xlink:title=" ">
<path fill="none" stroke="#63b8ff" d="M808.19,-437.25C819.23,-437.45 830.59,-437.65 841.49,-437.85"/>
<polygon fill="#63b8ff" stroke="#63b8ff" points="841.71,-441.35 851.77,-438.03 841.84,-434.35 841.71,-441.35"/>
</a>
</g>
</g>
<!-- Node24&#45;&gt;Node9 -->
<g id="edge32_Node000024_Node000009" class="edge">
<title>Node24&#45;&gt;Node9</title>
<g id="a_edge32_Node000024_Node000009"><a xlink:title=" ">
<path fill="none" stroke="#63b8ff" d="M618.63,-83.2C622.46,-85.7 625.98,-88.61 629,-92 677.47,-146.43 618.66,-195.73 665,-252 668.31,-256.03 672.26,-259.54 676.56,-262.62"/>
<polygon fill="#63b8ff" stroke="#63b8ff" points="674.86,-265.68 685.2,-267.99 678.55,-259.74 674.86,-265.68"/>
</a>
</g>
</g>
<!-- Node24&#45;&gt;Node14 -->
<g id="edge33_Node000024_Node000014" class="edge">
<title>Node24&#45;&gt;Node14</title>
<g id="a_edge33_Node000024_Node000014"><a xlink:title=" ">
<path fill="none" stroke="#63b8ff" d="M620.66,-54.72C675.76,-46.3 756.37,-43.94 808,-87 856.34,-127.33 802.32,-176.82 844,-224 845.17,-225.32 846.42,-226.58 847.74,-227.77"/>
<polygon fill="#63b8ff" stroke="#63b8ff" points="845.81,-230.7 855.91,-233.89 850,-225.09 845.81,-230.7"/>
</a>
</g>
</g>
<!-- Node25 -->
<g id="Node000025" class="node">
<title>Node25</title>
<g id="a_Node000025"><a xlink:href="classcxxopts_1_1OptionDetails.html#a814a9b4b5d3bfc6324c10c7b92a87bef" target="_top" xlink:title=" ">
<polygon fill="white" stroke="#666666" points="800,-126 673,-126 673,-96 800,-96 800,-126"/>
<text text-anchor="start" x="681" y="-114" font-family="Helvetica,sans-Serif" font-size="10.00">cxxopts::OptionDetails</text>
<text text-anchor="middle" x="736.5" y="-103" font-family="Helvetica,sans-Serif" font-size="10.00">::short_name</text>
</a>
</g>
</g>
<!-- Node24&#45;&gt;Node25 -->
<g id="edge34_Node000024_Node000025" class="edge">
<title>Node24&#45;&gt;Node25</title>
<g id="a_edge34_Node000024_Node000025"><a xlink:title=" ">
<path fill="none" stroke="#63b8ff" d="M620.73,-82.8C634.78,-86.25 649.88,-89.96 664.37,-93.52"/>
<polygon fill="#63b8ff" stroke="#63b8ff" points="663.73,-96.97 674.27,-95.96 665.4,-90.17 663.73,-96.97"/>
</a>
</g>
</g>
<!-- Node28&#45;&gt;Node8 -->
<g id="edge41_Node000028_Node000008" class="edge">
<title>Node28&#45;&gt;Node8</title>
<g id="a_edge41_Node000028_Node000008"><a xlink:title=" ">
<path fill="none" stroke="#63b8ff" d="M450.9,-319.52C499.78,-319.81 569.96,-323.62 629,-340 655.06,-347.23 682.32,-360.93 702.74,-372.59"/>
<polygon fill="#63b8ff" stroke="#63b8ff" points="701.21,-375.75 711.61,-377.77 704.75,-369.71 701.21,-375.75"/>
</a>
</g>
</g>
<!-- Node28&#45;&gt;Node9 -->
<g id="edge43_Node000028_Node000009" class="edge">
<title>Node28&#45;&gt;Node9</title>
<g id="a_edge43_Node000028_Node000009"><a xlink:title=" ">
<path fill="none" stroke="#63b8ff" d="M450.69,-312.11C463.65,-310.32 477.27,-308.52 490,-307 547.96,-300.09 613.8,-293.74 662.69,-289.3"/>
<polygon fill="#63b8ff" stroke="#63b8ff" points="663.21,-292.77 672.86,-288.39 662.59,-285.8 663.21,-292.77"/>
</a>
</g>
</g>
<!-- Node28&#45;&gt;Node17 -->
<g id="edge48_Node000028_Node000017" class="edge">
<title>Node28&#45;&gt;Node17</title>
<g id="a_edge48_Node000028_Node000017"><a xlink:title=" ">
<path fill="none" stroke="#63b8ff" d="M409.78,-336.18C429.19,-350.91 460.4,-373.16 490,-388 493.51,-389.76 497.18,-391.45 500.92,-393.06"/>
<polygon fill="#63b8ff" stroke="#63b8ff" points="499.73,-396.35 510.31,-396.88 502.37,-389.87 499.73,-396.35"/>
</a>
</g>
</g>
<!-- Node29 -->
<g id="Node000029" class="node">
<title>Node29</title>
<g id="a_Node000029"><a xlink:href="classcxxopts_1_1Value.html#a25ac95c499771a6f5ca295e01452f380" target="_top" xlink:title=" ">
<polygon fill="white" stroke="#666666" points="614,-255 505,-255 505,-225 614,-225 614,-255"/>
<text text-anchor="start" x="513" y="-243" font-family="Helvetica,sans-Serif" font-size="10.00">cxxopts::Value::get</text>
<text text-anchor="middle" x="559.5" y="-232" font-family="Helvetica,sans-Serif" font-size="10.00">_default_value</text>
</a>
</g>
</g>
<!-- Node28&#45;&gt;Node29 -->
<g id="edge42_Node000028_Node000029" class="edge">
<title>Node28&#45;&gt;Node29</title>
<g id="a_edge42_Node000028_Node000029"><a xlink:title=" ">
<path fill="none" stroke="#63b8ff" d="M425.87,-305.91C435.15,-301.66 445.06,-296.87 454,-292 470.68,-282.92 473.2,-277.84 490,-269 496.44,-265.61 503.37,-262.31 510.25,-259.21"/>
<polygon fill="#63b8ff" stroke="#63b8ff" points="511.81,-262.36 519.57,-255.14 509,-255.94 511.81,-262.36"/>
</a>
</g>
</g>
<!-- Node30 -->
<g id="Node000030" class="node">
<title>Node30</title>
<g id="a_Node000030"><a xlink:href="classcxxopts_1_1OptionValue.html#a58f4dc95f2a36c01f64c026baae6795f" target="_top" xlink:title=" ">
<polygon fill="white" stroke="#666666" points="796,-243 677,-243 677,-213 796,-213 796,-243"/>
<text text-anchor="start" x="685" y="-231" font-family="Helvetica,sans-Serif" font-size="10.00">cxxopts::OptionValue</text>
<text text-anchor="middle" x="736.5" y="-220" font-family="Helvetica,sans-Serif" font-size="10.00">::parse_default</text>
</a>
</g>
</g>
<!-- Node28&#45;&gt;Node30 -->
<g id="edge44_Node000028_Node000030" class="edge">
<title>Node28&#45;&gt;Node30</title>
<g id="a_edge44_Node000028_Node000030"><a xlink:title=" ">
<path fill="none" stroke="#63b8ff" d="M404.76,-305.96C432.27,-276.92 490,-216 490,-216 548.98,-190.63 623.44,-199.23 674.81,-210.63"/>
<polygon fill="#63b8ff" stroke="#63b8ff" points="674.23,-214.09 684.76,-212.94 675.81,-207.27 674.23,-214.09"/>
</a>
</g>
</g>
<!-- Node30&#45;&gt;Node11 -->
<g id="edge45_Node000030_Node000011" class="edge">
<title>Node30&#45;&gt;Node11</title>
<g id="a_edge45_Node000030_Node000011"><a xlink:title=" ">
<path fill="none" stroke="#63b8ff" d="M781.71,-243.11C790.93,-247.41 800.21,-252.69 808,-259 847.23,-290.78 878.28,-341.86 894.39,-371.86"/>
<polygon fill="#63b8ff" stroke="#63b8ff" points="891.34,-373.57 899.08,-380.8 897.53,-370.32 891.34,-373.57"/>
</a>
</g>
</g>
<!-- Node30&#45;&gt;Node14 -->
<g id="edge46_Node000030_Node000014" class="edge">
<title>Node30&#45;&gt;Node14</title>
<g id="a_edge46_Node000030_Node000014"><a xlink:title=" ">
<path fill="none" stroke="#63b8ff" d="M796.13,-235.29C808.32,-236.8 821.3,-238.41 833.92,-239.98"/>
<polygon fill="#63b8ff" stroke="#63b8ff" points="833.58,-243.47 843.94,-241.23 834.45,-236.52 833.58,-243.47"/>
</a>
</g>
</g>
<!-- Node31 -->
<g id="Node000031" class="node">
<title>Node31</title>
<g id="a_Node000031"><a xlink:href="classcxxopts_1_1Value.html#a9246a55e299ea5ef34346af46977fab4" target="_top" xlink:title=" ">
<polygon fill="white" stroke="#666666" points="967.5,-215.5 847.5,-215.5 847.5,-196.5 967.5,-196.5 967.5,-215.5"/>
<text text-anchor="middle" x="907.5" y="-203.5" font-family="Helvetica,sans-Serif" font-size="10.00">cxxopts::Value::parse</text>
</a>
</g>
</g>
<!-- Node30&#45;&gt;Node31 -->
<g id="edge47_Node000030_Node000031" class="edge">
<title>Node30&#45;&gt;Node31</title>
<g id="a_edge47_Node000030_Node000031"><a xlink:title=" ">
<path fill="none" stroke="#63b8ff" d="M796.13,-220.37C809.35,-218.65 823.51,-216.8 837.12,-215.03"/>
<polygon fill="#63b8ff" stroke="#63b8ff" points="837.93,-218.46 847.4,-213.69 837.03,-211.51 837.93,-218.46"/>
</a>
</g>
</g>
<!-- Node32&#45;&gt;Node9 -->
<g id="edge50_Node000032_Node000009" class="edge">
<title>Node32&#45;&gt;Node9</title>
<g id="a_edge50_Node000032_Node000009"><a xlink:title=" ">
<path fill="none" stroke="#63b8ff" d="M578.95,-131.16C593.72,-143.93 614.32,-163.23 629,-183 649.62,-210.77 639.74,-228.37 665,-252 669.55,-256.26 674.78,-259.99 680.29,-263.25"/>
<polygon fill="#63b8ff" stroke="#63b8ff" points="678.66,-266.35 689.12,-267.99 681.97,-260.18 678.66,-266.35"/>
</a>
</g>
</g>
<!-- Node33 -->
<g id="Node000033" class="node">
<title>Node33</title>
<g id="a_Node000033"><a xlink:href="classcxxopts_1_1OptionValue.html#a85af628f49023ea63e1983d1f350cb34" target="_top" xlink:title=" ">
<polygon fill="white" stroke="#666666" points="796,-181 677,-181 677,-151 796,-151 796,-181"/>
<text text-anchor="start" x="685" y="-169" font-family="Helvetica,sans-Serif" font-size="10.00">cxxopts::OptionValue</text>
<text text-anchor="middle" x="736.5" y="-158" font-family="Helvetica,sans-Serif" font-size="10.00">::parse_no_value</text>
</a>
</g>
</g>
<!-- Node32&#45;&gt;Node33 -->
<g id="edge51_Node000032_Node000033" class="edge">
<title>Node32&#45;&gt;Node33</title>
<g id="a_edge51_Node000032_Node000033"><a xlink:title=" ">
<path fill="none" stroke="#63b8ff" d="M613.01,-131C631.87,-136.39 653.33,-142.52 672.96,-148.13"/>
<polygon fill="#63b8ff" stroke="#63b8ff" points="672.15,-151.54 682.73,-150.92 674.08,-144.81 672.15,-151.54"/>
</a>
</g>
</g>
<!-- Node33&#45;&gt;Node14 -->
<g id="edge52_Node000033_Node000014" class="edge">
<title>Node33&#45;&gt;Node14</title>
<g id="a_edge52_Node000033_Node000014"><a xlink:title=" ">
<path fill="none" stroke="#63b8ff" d="M765.68,-181.08C778.59,-188.02 794.1,-196.39 808,-204 824.06,-212.79 827.47,-216.14 844,-224 848.26,-226.03 852.73,-228.03 857.24,-229.98"/>
<polygon fill="#63b8ff" stroke="#63b8ff" points="855.92,-233.22 866.5,-233.88 858.64,-226.77 855.92,-233.22"/>
</a>
</g>
</g>
</g>
</svg>
