<?xml version="1.0" encoding="UTF-8" standalone="no"?>
<!DOCTYPE svg PUBLIC "-//W3C//DTD SVG 1.1//EN"
 "http://www.w3.org/Graphics/SVG/1.1/DTD/svg11.dtd">
<!-- Generated by graphviz version 2.43.0 (0)
 -->
<!-- Title: detail::uint128::high Pages: 1 -->
<svg width="483pt" height="471pt"
 viewBox="0.00 0.00 483.00 470.93" xmlns="http://www.w3.org/2000/svg" xmlns:xlink="http://www.w3.org/1999/xlink">
<g id="graph0" class="graph" transform="scale(1 1) rotate(0) translate(4 466.93)">
<title>detail::uint128::high</title>
<!-- Node1 -->
<g id="Node000001" class="node">
<title>Node1</title>
<g id="a_Node000001"><a xlink:title=" ">
<polygon fill="#999999" stroke="#666666" points="475,-230.93 361,-230.93 361,-211.93 475,-211.93 475,-230.93"/>
<text text-anchor="middle" x="418" y="-218.93" font-family="Helvetica,sans-Serif" font-size="10.00">detail::uint128::high</text>
</a>
</g>
</g>
<!-- Node2 -->
<g id="Node000002" class="node">
<title>Node2</title>
<g id="a_Node000002"><a xlink:href="structdetail_1_1dragonbox_1_1cache__accessor_3_01double_01_4.html#a12bd879453603d1ff68d19c2294f0f34" target="_top" xlink:title=" ">
<polygon fill="white" stroke="#666666" points="317.5,-462.93 180.5,-462.93 180.5,-421.93 317.5,-421.93 317.5,-462.93"/>
<text text-anchor="start" x="188.5" y="-450.93" font-family="Helvetica,sans-Serif" font-size="10.00">detail::dragonbox::</text>
<text text-anchor="start" x="188.5" y="-439.93" font-family="Helvetica,sans-Serif" font-size="10.00">cache_accessor&lt; double</text>
<text text-anchor="middle" x="249" y="-428.93" font-family="Helvetica,sans-Serif" font-size="10.00"> &gt;::compute_delta</text>
</a>
</g>
</g>
<!-- Node1&#45;&gt;Node2 -->
<g id="edge1_Node000001_Node000002" class="edge">
<title>Node1&#45;&gt;Node2</title>
<g id="a_edge1_Node000001_Node000002"><a xlink:title=" ">
<path fill="none" stroke="#63b8ff" d="M412.59,-241.12C403.07,-279.26 377.15,-363.73 325,-412.43 321.21,-415.97 316.94,-419.12 312.43,-421.9"/>
<polygon fill="#63b8ff" stroke="#63b8ff" points="416.02,-241.8 414.93,-231.26 409.21,-240.17 416.02,-241.8"/>
</a>
</g>
</g>
<!-- Node3 -->
<g id="Node000003" class="node">
<title>Node3</title>
<g id="a_Node000003"><a xlink:href="structdetail_1_1dragonbox_1_1cache__accessor_3_01double_01_4.html#a4e6007b40fb31fbad47de9f9d35f0b2d" target="_top" xlink:title=" ">
<polygon fill="white" stroke="#666666" points="322,-403.43 176,-403.43 176,-351.43 322,-351.43 322,-403.43"/>
<text text-anchor="start" x="184" y="-391.43" font-family="Helvetica,sans-Serif" font-size="10.00">detail::dragonbox::</text>
<text text-anchor="start" x="184" y="-380.43" font-family="Helvetica,sans-Serif" font-size="10.00">cache_accessor&lt; double</text>
<text text-anchor="start" x="184" y="-369.43" font-family="Helvetica,sans-Serif" font-size="10.00"> &gt;::compute_left_endpoint</text>
<text text-anchor="middle" x="249" y="-358.43" font-family="Helvetica,sans-Serif" font-size="10.00">_for_shorter_interval_case</text>
</a>
</g>
</g>
<!-- Node1&#45;&gt;Node3 -->
<g id="edge2_Node000001_Node000003" class="edge">
<title>Node1&#45;&gt;Node3</title>
<g id="a_edge2_Node000001_Node000003"><a xlink:title=" ">
<path fill="none" stroke="#63b8ff" d="M406.82,-239.97C391.84,-265.84 361.61,-312.9 325,-342.43 321.09,-345.59 316.84,-348.54 312.43,-351.27"/>
<polygon fill="#63b8ff" stroke="#63b8ff" points="409.92,-241.6 411.8,-231.17 403.83,-238.15 409.92,-241.6"/>
</a>
</g>
</g>
<!-- Node4 -->
<g id="Node000004" class="node">
<title>Node4</title>
<g id="a_Node000004"><a xlink:href="structdetail_1_1dragonbox_1_1cache__accessor_3_01double_01_4.html#ae8b6d9661e9f0a2f71dc0db3c742588b" target="_top" xlink:title=" ">
<polygon fill="white" stroke="#666666" points="137,-98.93 0,-98.93 0,-57.93 137,-57.93 137,-98.93"/>
<text text-anchor="start" x="8" y="-86.93" font-family="Helvetica,sans-Serif" font-size="10.00">detail::dragonbox::</text>
<text text-anchor="start" x="8" y="-75.93" font-family="Helvetica,sans-Serif" font-size="10.00">cache_accessor&lt; double</text>
<text text-anchor="middle" x="68.5" y="-64.93" font-family="Helvetica,sans-Serif" font-size="10.00"> &gt;::compute_mul</text>
</a>
</g>
</g>
<!-- Node1&#45;&gt;Node4 -->
<g id="edge3_Node000001_Node000004" class="edge">
<title>Node1&#45;&gt;Node4</title>
<g id="a_edge3_Node000001_Node000004"><a xlink:title=" ">
<path fill="none" stroke="#63b8ff" d="M406.58,-202.97C391.81,-178.72 362.4,-136.84 325,-116.43 293.51,-99.25 201.58,-88.7 137.06,-83.2"/>
<polygon fill="#63b8ff" stroke="#63b8ff" points="403.74,-205.05 411.83,-211.89 409.77,-201.49 403.74,-205.05"/>
</a>
</g>
</g>
<!-- Node5 -->
<g id="Node000005" class="node">
<title>Node5</title>
<g id="a_Node000005"><a xlink:href="structdetail_1_1dragonbox_1_1cache__accessor_3_01double_01_4.html#a08dcaeba4527995a6cec582f36782687" target="_top" xlink:title=" ">
<polygon fill="white" stroke="#666666" points="137,-316.93 0,-316.93 0,-275.93 137,-275.93 137,-316.93"/>
<text text-anchor="start" x="8" y="-304.93" font-family="Helvetica,sans-Serif" font-size="10.00">detail::dragonbox::</text>
<text text-anchor="start" x="8" y="-293.93" font-family="Helvetica,sans-Serif" font-size="10.00">cache_accessor&lt; double</text>
<text text-anchor="middle" x="68.5" y="-282.93" font-family="Helvetica,sans-Serif" font-size="10.00"> &gt;::compute_mul_parity</text>
</a>
</g>
</g>
<!-- Node1&#45;&gt;Node5 -->
<g id="edge4_Node000001_Node000005" class="edge">
<title>Node1&#45;&gt;Node5</title>
<g id="a_edge4_Node000001_Node000005"><a xlink:title=" ">
<path fill="none" stroke="#63b8ff" d="M386.26,-234.97C368.63,-242.27 345.9,-250.88 325,-256.43 262.4,-273.04 189.23,-283.63 137.27,-289.72"/>
<polygon fill="#63b8ff" stroke="#63b8ff" points="387.63,-238.19 395.49,-231.08 384.91,-231.74 387.63,-238.19"/>
</a>
</g>
</g>
<!-- Node6 -->
<g id="Node000006" class="node">
<title>Node6</title>
<g id="a_Node000006"><a xlink:href="structdetail_1_1dragonbox_1_1cache__accessor_3_01double_01_4.html#a806fff5c96c128ed929494071c1ecd27" target="_top" xlink:title=" ">
<polygon fill="white" stroke="#666666" points="325,-247.43 173,-247.43 173,-195.43 325,-195.43 325,-247.43"/>
<text text-anchor="start" x="181" y="-235.43" font-family="Helvetica,sans-Serif" font-size="10.00">detail::dragonbox::</text>
<text text-anchor="start" x="181" y="-224.43" font-family="Helvetica,sans-Serif" font-size="10.00">cache_accessor&lt; double</text>
<text text-anchor="start" x="181" y="-213.43" font-family="Helvetica,sans-Serif" font-size="10.00"> &gt;::compute_right_endpoint</text>
<text text-anchor="middle" x="249" y="-202.43" font-family="Helvetica,sans-Serif" font-size="10.00">_for_shorter_interval_case</text>
</a>
</g>
</g>
<!-- Node1&#45;&gt;Node6 -->
<g id="edge5_Node000001_Node000006" class="edge">
<title>Node1&#45;&gt;Node6</title>
<g id="a_edge5_Node000001_Node000006"><a xlink:title=" ">
<path fill="none" stroke="#63b8ff" d="M350.81,-221.43C342.4,-221.43 333.75,-221.43 325.21,-221.43"/>
<polygon fill="#63b8ff" stroke="#63b8ff" points="350.93,-224.93 360.93,-221.43 350.93,-217.93 350.93,-224.93"/>
</a>
</g>
</g>
<!-- Node7 -->
<g id="Node000007" class="node">
<title>Node7</title>
<g id="a_Node000007"><a xlink:href="structdetail_1_1dragonbox_1_1cache__accessor_3_01double_01_4.html#ac61980cf0cd6b5eb717410fa727e1921" target="_top" xlink:title=" ">
<polygon fill="white" stroke="#666666" points="322,-177.43 176,-177.43 176,-125.43 322,-125.43 322,-177.43"/>
<text text-anchor="start" x="184" y="-165.43" font-family="Helvetica,sans-Serif" font-size="10.00">detail::dragonbox::</text>
<text text-anchor="start" x="184" y="-154.43" font-family="Helvetica,sans-Serif" font-size="10.00">cache_accessor&lt; double</text>
<text text-anchor="start" x="184" y="-143.43" font-family="Helvetica,sans-Serif" font-size="10.00"> &gt;::compute_round_up_for</text>
<text text-anchor="middle" x="249" y="-132.43" font-family="Helvetica,sans-Serif" font-size="10.00">_shorter_interval_case</text>
</a>
</g>
</g>
<!-- Node1&#45;&gt;Node7 -->
<g id="edge6_Node000001_Node000007" class="edge">
<title>Node1&#45;&gt;Node7</title>
<g id="a_edge6_Node000001_Node000007"><a xlink:title=" ">
<path fill="none" stroke="#63b8ff" d="M384.89,-207.97C364.29,-199.34 336.86,-187.84 312.11,-177.47"/>
<polygon fill="#63b8ff" stroke="#63b8ff" points="383.55,-211.21 394.13,-211.84 386.26,-204.75 383.55,-211.21"/>
</a>
</g>
</g>
<!-- Node8 -->
<g id="Node000008" class="node">
<title>Node8</title>
<g id="a_Node000008"><a xlink:href="namespacedetail.html#add861c358ea50b446b1a06080adb44ba" target="_top" xlink:title=" ">
<polygon fill="white" stroke="#666666" points="123.5,-30.93 13.5,-30.93 13.5,-11.93 123.5,-11.93 123.5,-30.93"/>
<text text-anchor="middle" x="68.5" y="-18.93" font-family="Helvetica,sans-Serif" font-size="10.00">detail::format_float</text>
</a>
</g>
</g>
<!-- Node1&#45;&gt;Node8 -->
<g id="edge7_Node000001_Node000008" class="edge">
<title>Node1&#45;&gt;Node8</title>
<g id="a_edge7_Node000001_Node000008"><a xlink:title=" ">
<path fill="none" stroke="#63b8ff" d="M414.22,-201.7C407.36,-161.37 385.56,-69.98 325,-30.43 257.92,13.38 158.42,-0.12 105.56,-11.89"/>
<polygon fill="#63b8ff" stroke="#63b8ff" points="410.77,-202.29 415.77,-211.63 417.68,-201.21 410.77,-202.29"/>
</a>
</g>
</g>
<!-- Node9 -->
<g id="Node000009" class="node">
<title>Node9</title>
<g id="a_Node000009"><a xlink:href="namespacedetail_1_1dragonbox.html#ac836659b351ddf33f74fee7f87cbeefc" target="_top" xlink:title=" ">
<polygon fill="white" stroke="#666666" points="304,-333.43 194,-333.43 194,-303.43 304,-303.43 304,-333.43"/>
<text text-anchor="start" x="202" y="-321.43" font-family="Helvetica,sans-Serif" font-size="10.00">detail::dragonbox::</text>
<text text-anchor="middle" x="249" y="-310.43" font-family="Helvetica,sans-Serif" font-size="10.00">umul192_lower128</text>
</a>
</g>
</g>
<!-- Node1&#45;&gt;Node9 -->
<g id="edge8_Node000001_Node000009" class="edge">
<title>Node1&#45;&gt;Node9</title>
<g id="a_edge8_Node000001_Node000009"><a xlink:title=" ">
<path fill="none" stroke="#63b8ff" d="M398.13,-237.75C380.21,-252.64 352.07,-274.54 325,-289.43 315.58,-294.61 305.04,-299.3 294.91,-303.32"/>
<polygon fill="#63b8ff" stroke="#63b8ff" points="400.66,-240.18 406.05,-231.06 396.15,-234.84 400.66,-240.18"/>
</a>
</g>
</g>
<!-- Node10 -->
<g id="Node000010" class="node">
<title>Node10</title>
<g id="a_Node000010"><a xlink:href="namespacedetail_1_1dragonbox.html#ab9470405474ffc0d7b8bc15071b7d515" target="_top" xlink:title=" ">
<polygon fill="white" stroke="#666666" points="304,-69.43 194,-69.43 194,-39.43 304,-39.43 304,-69.43"/>
<text text-anchor="start" x="202" y="-57.43" font-family="Helvetica,sans-Serif" font-size="10.00">detail::dragonbox::</text>
<text text-anchor="middle" x="249" y="-46.43" font-family="Helvetica,sans-Serif" font-size="10.00">umul192_upper128</text>
</a>
</g>
</g>
<!-- Node1&#45;&gt;Node10 -->
<g id="edge10_Node000001_Node000010" class="edge">
<title>Node1&#45;&gt;Node10</title>
<g id="a_edge10_Node000001_Node000010"><a xlink:title=" ">
<path fill="none" stroke="#63b8ff" d="M408.94,-202.39C395.58,-172.98 366.19,-116.46 325,-83.43 318.03,-77.84 309.86,-73.23 301.52,-69.47"/>
<polygon fill="#63b8ff" stroke="#63b8ff" points="405.75,-203.84 412.98,-211.58 412.15,-201.02 405.75,-203.84"/>
</a>
</g>
</g>
<!-- Node9&#45;&gt;Node5 -->
<g id="edge9_Node000009_Node000005" class="edge">
<title>Node9&#45;&gt;Node5</title>
<g id="a_edge9_Node000009_Node000005"><a xlink:title=" ">
<path fill="none" stroke="#63b8ff" d="M183.7,-310.51C168.62,-308.65 152.5,-306.66 137.26,-304.78"/>
<polygon fill="#63b8ff" stroke="#63b8ff" points="183.61,-314.02 193.96,-311.77 184.46,-307.07 183.61,-314.02"/>
</a>
</g>
</g>
<!-- Node10&#45;&gt;Node4 -->
<g id="edge11_Node000010_Node000004" class="edge">
<title>Node10&#45;&gt;Node4</title>
<g id="a_edge11_Node000010_Node000004"><a xlink:title=" ">
<path fill="none" stroke="#63b8ff" d="M183.7,-63.07C168.62,-65.1 152.5,-67.27 137.26,-69.32"/>
<polygon fill="#63b8ff" stroke="#63b8ff" points="184.52,-66.5 193.96,-61.7 183.58,-59.56 184.52,-66.5"/>
</a>
</g>
</g>
<!-- Node10&#45;&gt;Node8 -->
<g id="edge12_Node000010_Node000008" class="edge">
<title>Node10&#45;&gt;Node8</title>
<g id="a_edge12_Node000010_Node000008"><a xlink:title=" ">
<path fill="none" stroke="#63b8ff" d="M183.97,-42.59C163.27,-38.76 140.58,-34.57 120.91,-30.93"/>
<polygon fill="#63b8ff" stroke="#63b8ff" points="183.49,-46.06 193.96,-44.44 184.76,-39.18 183.49,-46.06"/>
</a>
</g>
</g>
</g>
</svg>
