<?xml version="1.0" encoding="UTF-8" standalone="no"?>
<!DOCTYPE svg PUBLIC "-//W3C//DTD SVG 1.1//EN"
 "http://www.w3.org/Graphics/SVG/1.1/DTD/svg11.dtd">
<!-- Generated by graphviz version 2.43.0 (0)
 -->
<!-- Title: Magick::Pixels Pages: 1 -->
<svg width="644pt" height="364pt"
 viewBox="0.00 0.00 644.00 363.50" xmlns="http://www.w3.org/2000/svg" xmlns:xlink="http://www.w3.org/1999/xlink">
<g id="graph0" class="graph" transform="scale(1 1) rotate(0) translate(4 359.5)">
<title>Magick::Pixels</title>
<!-- Node1 -->
<g id="Node000001" class="node">
<title>Node1</title>
<g id="a_Node000001"><a xlink:title=" ">
<polygon fill="#999999" stroke="#666666" points="636,-67 550,-67 550,-48 636,-48 636,-67"/>
<text text-anchor="middle" x="593" y="-55" font-family="Helvetica,sans-Serif" font-size="10.00">Magick::Pixels</text>
</a>
</g>
</g>
<!-- Node2 -->
<g id="Node000002" class="node">
<title>Node2</title>
<g id="a_Node000002"><a xlink:href="struct__Image.html" target="_top" xlink:title=" ">
<polygon fill="white" stroke="#666666" points="472,-169 419,-169 419,-150 472,-150 472,-169"/>
<text text-anchor="middle" x="445.5" y="-157" font-family="Helvetica,sans-Serif" font-size="10.00">_Image</text>
</a>
</g>
</g>
<!-- Node2&#45;&gt;Node1 -->
<g id="edge1_Node000001_Node000002" class="edge">
<title>Node2&#45;&gt;Node1</title>
<g id="a_edge1_Node000001_Node000002"><a xlink:title=" ">
<path fill="none" stroke="#9a32cd" stroke-dasharray="5,2" d="M468.46,-144.11C498.88,-122.78 552.95,-84.88 578.24,-67.14"/>
<polygon fill="#9a32cd" stroke="#9a32cd" points="466.37,-141.3 460.19,-149.9 470.39,-147.03 466.37,-141.3"/>
</a>
</g>
<text text-anchor="middle" x="512" y="-129.5" font-family="Helvetica,sans-Serif" font-size="10.00" fill="grey"> _image</text>
</g>
<!-- Node2&#45;&gt;Node2 -->
<g id="edge10_Node000002_Node000002" class="edge">
<title>Node2&#45;&gt;Node2</title>
<g id="a_edge10_Node000002_Node000002"><a xlink:title=" ">
<path fill="none" stroke="#9a32cd" stroke-dasharray="5,2" d="M433.35,-178.91C434.3,-183.56 438.35,-187 445.5,-187 457.23,-187 460.62,-177.73 455.67,-169.08"/>
<polygon fill="#9a32cd" stroke="#9a32cd" points="436.78,-179.58 435.33,-169.08 429.92,-178.19 436.78,-179.58"/>
</a>
</g>
<text text-anchor="middle" x="445.5" y="-212" font-family="Helvetica,sans-Serif" font-size="10.00" fill="grey"> list</text>
<text text-anchor="middle" x="445.5" y="-201" font-family="Helvetica,sans-Serif" font-size="10.00" fill="grey">next</text>
<text text-anchor="middle" x="445.5" y="-190" font-family="Helvetica,sans-Serif" font-size="10.00" fill="grey">previous</text>
</g>
<!-- Node3 -->
<g id="Node000003" class="node">
<title>Node3</title>
<g id="a_Node000003"><a xlink:href="struct__PixelPacket.html" target="_top" xlink:title=" ">
<polygon fill="white" stroke="#666666" points="277.5,-282 200.5,-282 200.5,-263 277.5,-263 277.5,-282"/>
<text text-anchor="middle" x="239" y="-270" font-family="Helvetica,sans-Serif" font-size="10.00">_PixelPacket</text>
</a>
</g>
</g>
<!-- Node3&#45;&gt;Node2 -->
<g id="edge2_Node000002_Node000003" class="edge">
<title>Node3&#45;&gt;Node2</title>
<g id="a_edge2_Node000002_Node000003"><a xlink:title=" ">
<path fill="none" stroke="#9a32cd" stroke-dasharray="5,2" d="M287.96,-270.72C328.15,-268.37 381.66,-262.94 399,-250.5 426.99,-230.42 438.74,-188.13 442.75,-169.12"/>
<polygon fill="#9a32cd" stroke="#9a32cd" points="287.6,-267.24 277.8,-271.27 287.98,-274.23 287.6,-267.24"/>
</a>
</g>
<text text-anchor="middle" x="354" y="-304.5" font-family="Helvetica,sans-Serif" font-size="10.00" fill="grey"> background_color</text>
<text text-anchor="middle" x="354" y="-293.5" font-family="Helvetica,sans-Serif" font-size="10.00" fill="grey">border_color</text>
<text text-anchor="middle" x="354" y="-282.5" font-family="Helvetica,sans-Serif" font-size="10.00" fill="grey">colormap</text>
<text text-anchor="middle" x="354" y="-271.5" font-family="Helvetica,sans-Serif" font-size="10.00" fill="grey">matte_color</text>
</g>
<!-- Node4 -->
<g id="Node000004" class="node">
<title>Node4</title>
<g id="a_Node000004"><a xlink:href="struct__ChromaticityInfo.html" target="_top" xlink:title=" ">
<polygon fill="white" stroke="#666666" points="291,-245 187,-245 187,-226 291,-226 291,-245"/>
<text text-anchor="middle" x="239" y="-233" font-family="Helvetica,sans-Serif" font-size="10.00">_ChromaticityInfo</text>
</a>
</g>
</g>
<!-- Node4&#45;&gt;Node2 -->
<g id="edge3_Node000002_Node000004" class="edge">
<title>Node4&#45;&gt;Node2</title>
<g id="a_edge3_Node000002_Node000004"><a xlink:title=" ">
<path fill="none" stroke="#9a32cd" stroke-dasharray="5,2" d="M301.46,-236.61C332.38,-234.77 369.46,-228.73 399,-212.5 417.49,-202.34 431.87,-181.5 439.18,-169.2"/>
<polygon fill="#9a32cd" stroke="#9a32cd" points="301.06,-233.13 291.23,-237.09 301.38,-240.12 301.06,-233.13"/>
</a>
</g>
<text text-anchor="middle" x="354" y="-238.5" font-family="Helvetica,sans-Serif" font-size="10.00" fill="grey"> chromaticity</text>
</g>
<!-- Node5 -->
<g id="Node000005" class="node">
<title>Node5</title>
<g id="a_Node000005"><a xlink:href="struct__PrimaryInfo.html" target="_top" xlink:title=" ">
<polygon fill="white" stroke="#666666" points="79,-245 0,-245 0,-226 79,-226 79,-245"/>
<text text-anchor="middle" x="39.5" y="-233" font-family="Helvetica,sans-Serif" font-size="10.00">_PrimaryInfo</text>
</a>
</g>
</g>
<!-- Node5&#45;&gt;Node4 -->
<g id="edge4_Node000004_Node000005" class="edge">
<title>Node5&#45;&gt;Node4</title>
<g id="a_edge4_Node000004_Node000005"><a xlink:title=" ">
<path fill="none" stroke="#9a32cd" stroke-dasharray="5,2" d="M89.18,-235.5C118.85,-235.5 156.72,-235.5 186.83,-235.5"/>
<polygon fill="#9a32cd" stroke="#9a32cd" points="89.05,-232 79.05,-235.5 89.05,-239 89.05,-232"/>
</a>
</g>
<text text-anchor="middle" x="133" y="-271.5" font-family="Helvetica,sans-Serif" font-size="10.00" fill="grey"> blue_primary</text>
<text text-anchor="middle" x="133" y="-260.5" font-family="Helvetica,sans-Serif" font-size="10.00" fill="grey">green_primary</text>
<text text-anchor="middle" x="133" y="-249.5" font-family="Helvetica,sans-Serif" font-size="10.00" fill="grey">red_primary</text>
<text text-anchor="middle" x="133" y="-238.5" font-family="Helvetica,sans-Serif" font-size="10.00" fill="grey">white_point</text>
</g>
<!-- Node6 -->
<g id="Node000006" class="node">
<title>Node6</title>
<g id="a_Node000006"><a xlink:href="struct__RectangleInfo.html" target="_top" xlink:title=" ">
<polygon fill="white" stroke="#666666" points="283.5,-207 194.5,-207 194.5,-188 283.5,-188 283.5,-207"/>
<text text-anchor="middle" x="239" y="-195" font-family="Helvetica,sans-Serif" font-size="10.00">_RectangleInfo</text>
</a>
</g>
</g>
<!-- Node6&#45;&gt;Node2 -->
<g id="edge5_Node000002_Node000006" class="edge">
<title>Node6&#45;&gt;Node2</title>
<g id="a_edge5_Node000002_Node000006"><a xlink:title=" ">
<path fill="none" stroke="#9a32cd" stroke-dasharray="5,2" d="M293.87,-190C324.77,-185.37 364.22,-178.91 399,-171.5 405.39,-170.14 412.23,-168.46 418.62,-166.79"/>
<polygon fill="#9a32cd" stroke="#9a32cd" points="293.12,-186.58 283.74,-191.5 294.14,-193.5 293.12,-186.58"/>
</a>
</g>
<text text-anchor="middle" x="354" y="-200.5" font-family="Helvetica,sans-Serif" font-size="10.00" fill="grey"> page</text>
<text text-anchor="middle" x="354" y="-189.5" font-family="Helvetica,sans-Serif" font-size="10.00" fill="grey">tile_info</text>
</g>
<!-- Node7 -->
<g id="Node000007" class="node">
<title>Node7</title>
<g id="a_Node000007"><a xlink:href="struct__ErrorInfo.html" target="_top" xlink:title=" ">
<polygon fill="white" stroke="#666666" points="271,-170 207,-170 207,-151 271,-151 271,-170"/>
<text text-anchor="middle" x="239" y="-158" font-family="Helvetica,sans-Serif" font-size="10.00">_ErrorInfo</text>
</a>
</g>
</g>
<!-- Node7&#45;&gt;Node2 -->
<g id="edge6_Node000002_Node000007" class="edge">
<title>Node7&#45;&gt;Node2</title>
<g id="a_edge6_Node000002_Node000007"><a xlink:title=" ">
<path fill="none" stroke="#9a32cd" stroke-dasharray="5,2" d="M281.31,-160.3C322.5,-160.1 384.47,-159.79 418.98,-159.62"/>
<polygon fill="#9a32cd" stroke="#9a32cd" points="281.04,-156.8 271.06,-160.35 281.08,-163.8 281.04,-156.8"/>
</a>
</g>
<text text-anchor="middle" x="354" y="-162.5" font-family="Helvetica,sans-Serif" font-size="10.00" fill="grey"> error</text>
</g>
<!-- Node8 -->
<g id="Node000008" class="node">
<title>Node8</title>
<g id="a_Node000008"><a xlink:href="struct__TimerInfo.html" target="_top" xlink:title=" ">
<polygon fill="white" stroke="#666666" points="273.5,-133 204.5,-133 204.5,-114 273.5,-114 273.5,-133"/>
<text text-anchor="middle" x="239" y="-121" font-family="Helvetica,sans-Serif" font-size="10.00">_TimerInfo</text>
</a>
</g>
</g>
<!-- Node8&#45;&gt;Node2 -->
<g id="edge7_Node000002_Node000008" class="edge">
<title>Node8&#45;&gt;Node2</title>
<g id="a_edge7_Node000002_Node000008"><a xlink:title=" ">
<path fill="none" stroke="#9a32cd" stroke-dasharray="5,2" d="M283.5,-127.03C315.68,-130.18 360.42,-135.68 399,-144.5 405.49,-145.98 412.36,-148.01 418.75,-150.08"/>
<polygon fill="#9a32cd" stroke="#9a32cd" points="283.8,-123.54 273.52,-126.09 283.14,-130.51 283.8,-123.54"/>
</a>
</g>
<text text-anchor="middle" x="354" y="-147.5" font-family="Helvetica,sans-Serif" font-size="10.00" fill="grey"> timer</text>
</g>
<!-- Node9 -->
<g id="Node000009" class="node">
<title>Node9</title>
<g id="a_Node000009"><a xlink:href="struct__Timer.html" target="_top" xlink:title=" ">
<polygon fill="white" stroke="#666666" points="64.5,-133 14.5,-133 14.5,-114 64.5,-114 64.5,-133"/>
<text text-anchor="middle" x="39.5" y="-121" font-family="Helvetica,sans-Serif" font-size="10.00">_Timer</text>
</a>
</g>
</g>
<!-- Node9&#45;&gt;Node8 -->
<g id="edge8_Node000008_Node000009" class="edge">
<title>Node9&#45;&gt;Node8</title>
<g id="a_edge8_Node000008_Node000009"><a xlink:title=" ">
<path fill="none" stroke="#9a32cd" stroke-dasharray="5,2" d="M74.84,-123.5C111.2,-123.5 168.23,-123.5 204.33,-123.5"/>
<polygon fill="#9a32cd" stroke="#9a32cd" points="74.72,-120 64.72,-123.5 74.72,-127 74.72,-120"/>
</a>
</g>
<text text-anchor="middle" x="133" y="-137.5" font-family="Helvetica,sans-Serif" font-size="10.00" fill="grey"> elapsed</text>
<text text-anchor="middle" x="133" y="-126.5" font-family="Helvetica,sans-Serif" font-size="10.00" fill="grey">user</text>
</g>
<!-- Node10 -->
<g id="Node000010" class="node">
<title>Node10</title>
<g id="a_Node000010"><a xlink:href="struct__ExceptionInfo.html" target="_top" xlink:title=" ">
<polygon fill="white" stroke="#666666" points="283.5,-19 194.5,-19 194.5,0 283.5,0 283.5,-19"/>
<text text-anchor="middle" x="239" y="-7" font-family="Helvetica,sans-Serif" font-size="10.00">_ExceptionInfo</text>
</a>
</g>
</g>
<!-- Node10&#45;&gt;Node1 -->
<g id="edge14_Node000001_Node000010" class="edge">
<title>Node10&#45;&gt;Node1</title>
<g id="a_edge14_Node000001_Node000010"><a xlink:title=" ">
<path fill="none" stroke="#9a32cd" stroke-dasharray="5,2" d="M293.72,-14.53C324.57,-17.6 364.02,-21.82 399,-26.5 451.14,-33.47 510.89,-43.36 549.93,-50.09"/>
<polygon fill="#9a32cd" stroke="#9a32cd" points="293.9,-11.03 283.6,-13.54 293.21,-18 293.9,-11.03"/>
</a>
</g>
<text text-anchor="middle" x="445.5" y="-40.5" font-family="Helvetica,sans-Serif" font-size="10.00" fill="grey"> _exception</text>
</g>
<!-- Node10&#45;&gt;Node2 -->
<g id="edge9_Node000002_Node000010" class="edge">
<title>Node10&#45;&gt;Node2</title>
<g id="a_edge9_Node000002_Node000010"><a xlink:title=" ">
<path fill="none" stroke="#9a32cd" stroke-dasharray="5,2" d="M289.32,-21.53C332.8,-32.49 390.53,-48.07 399,-55.5 428.34,-81.23 439.51,-129.37 443.07,-149.87"/>
<polygon fill="#9a32cd" stroke="#9a32cd" points="290,-18.09 279.45,-19.05 288.3,-24.88 290,-18.09"/>
</a>
</g>
<text text-anchor="middle" x="354" y="-58.5" font-family="Helvetica,sans-Serif" font-size="10.00" fill="grey"> exception</text>
</g>
<!-- Node11 -->
<g id="Node000011" class="node">
<title>Node11</title>
<g id="a_Node000011"><a xlink:href="struct__ImageAttribute.html" target="_top" xlink:title=" ">
<polygon fill="white" stroke="#666666" points="286.5,-56 191.5,-56 191.5,-37 286.5,-37 286.5,-56"/>
<text text-anchor="middle" x="239" y="-44" font-family="Helvetica,sans-Serif" font-size="10.00">_ImageAttribute</text>
</a>
</g>
</g>
<!-- Node11&#45;&gt;Node2 -->
<g id="edge11_Node000002_Node000011" class="edge">
<title>Node11&#45;&gt;Node2</title>
<g id="a_edge11_Node000002_Node000011"><a xlink:title=" ">
<path fill="none" stroke="#9a32cd" stroke-dasharray="5,2" d="M281.52,-59.42C314.93,-70.92 362.2,-89.75 399,-114.5 413.94,-124.54 428.19,-139.9 436.64,-149.82"/>
<polygon fill="#9a32cd" stroke="#9a32cd" points="282.22,-55.97 271.63,-56.09 279.99,-62.6 282.22,-55.97"/>
</a>
</g>
<text text-anchor="middle" x="354" y="-117.5" font-family="Helvetica,sans-Serif" font-size="10.00" fill="grey"> attributes</text>
</g>
<!-- Node11&#45;&gt;Node11 -->
<g id="edge12_Node000011_Node000011" class="edge">
<title>Node11&#45;&gt;Node11</title>
<g id="a_edge12_Node000011_Node000011"><a xlink:title=" ">
<path fill="none" stroke="#9a32cd" stroke-dasharray="5,2" d="M219.37,-65.55C220.68,-70.38 227.23,-74 239,-74 257.84,-74 263.29,-64.73 255.34,-56.08"/>
<polygon fill="#9a32cd" stroke="#9a32cd" points="222.69,-66.68 222.66,-56.08 216.07,-64.38 222.69,-66.68"/>
</a>
</g>
<text text-anchor="middle" x="239" y="-88" font-family="Helvetica,sans-Serif" font-size="10.00" fill="grey"> next</text>
<text text-anchor="middle" x="239" y="-77" font-family="Helvetica,sans-Serif" font-size="10.00" fill="grey">previous</text>
</g>
<!-- Node12 -->
<g id="Node000012" class="node">
<title>Node12</title>
<g id="a_Node000012"><a xlink:href="struct__Ascii85Info.html" target="_top" xlink:title=" ">
<polygon fill="white" stroke="#666666" points="277,-349 201,-349 201,-330 277,-330 277,-349"/>
<text text-anchor="middle" x="239" y="-337" font-family="Helvetica,sans-Serif" font-size="10.00">_Ascii85Info</text>
</a>
</g>
</g>
<!-- Node12&#45;&gt;Node2 -->
<g id="edge13_Node000002_Node000012" class="edge">
<title>Node12&#45;&gt;Node2</title>
<g id="a_edge13_Node000002_Node000012"><a xlink:title=" ">
<path fill="none" stroke="#9a32cd" stroke-dasharray="5,2" d="M287.54,-345.3C322.41,-346.83 368.78,-342.8 399,-316.5 443.95,-277.38 445.77,-196.79 444.97,-169.1"/>
<polygon fill="#9a32cd" stroke="#9a32cd" points="287.31,-341.78 277.11,-344.66 286.88,-348.76 287.31,-341.78"/>
</a>
</g>
<text text-anchor="middle" x="354" y="-347.5" font-family="Helvetica,sans-Serif" font-size="10.00" fill="grey"> ascii85</text>
</g>
</g>
</svg>
