<?xml version="1.0" encoding="UTF-8" standalone="no"?>
<!DOCTYPE svg PUBLIC "-//W3C//DTD SVG 1.1//EN"
 "http://www.w3.org/Graphics/SVG/1.1/DTD/svg11.dtd">
<!-- Generated by graphviz version 2.43.0 (0)
 -->
<!-- Title: basic_memory_buffer::grow Pages: 1 -->
<svg width="956pt" height="744pt"
 viewBox="0.00 0.00 956.00 743.50" xmlns="http://www.w3.org/2000/svg" xmlns:xlink="http://www.w3.org/1999/xlink">
<g id="graph0" class="graph" transform="scale(1 1) rotate(0) translate(4 739.5)">
<title>basic_memory_buffer::grow</title>
<!-- Node1 -->
<g id="Node000001" class="node">
<title>Node1</title>
<g id="a_Node000001"><a xlink:title=" ">
<polygon fill="#999999" stroke="#666666" points="948,-381.5 826,-381.5 826,-351.5 948,-351.5 948,-381.5"/>
<text text-anchor="start" x="834" y="-369.5" font-family="Helvetica,sans-Serif" font-size="10.00">basic_memory_buffer</text>
<text text-anchor="middle" x="887" y="-358.5" font-family="Helvetica,sans-Serif" font-size="10.00">::grow</text>
</a>
</g>
</g>
<!-- Node2 -->
<g id="Node000002" class="node">
<title>Node2</title>
<g id="a_Node000002"><a xlink:href="classbasic__memory__buffer.html#ade18cff12fc914085665a07af2e8fb7b" target="_top" xlink:title=" ">
<polygon fill="white" stroke="#666666" points="790,-570.5 662,-570.5 662,-540.5 790,-540.5 790,-570.5"/>
<text text-anchor="start" x="670" y="-558.5" font-family="Helvetica,sans-Serif" font-size="10.00">basic_memory_buffer</text>
<text text-anchor="middle" x="726" y="-547.5" font-family="Helvetica,sans-Serif" font-size="10.00">::basic_memory_buffer</text>
</a>
</g>
</g>
<!-- Node1&#45;&gt;Node2 -->
<g id="edge1_Node000001_Node000002" class="edge">
<title>Node1&#45;&gt;Node2</title>
<g id="a_edge1_Node000001_Node000002"><a xlink:title=" ">
<path fill="none" stroke="#63b8ff" d="M866.77,-389.36C833.87,-428.46 767.65,-507.18 739.8,-540.28"/>
<polygon fill="#63b8ff" stroke="#63b8ff" points="869.5,-391.55 873.26,-381.65 864.14,-387.05 869.5,-391.55"/>
</a>
</g>
</g>
<!-- Node7 -->
<g id="Node000007" class="node">
<title>Node7</title>
<g id="a_Node000007"><a xlink:href="classbasic__memory__buffer.html#a7a9300acfadb00a835b36a86a198f433" target="_top" xlink:title=" ">
<polygon fill="white" stroke="#666666" points="790,-357.5 662,-357.5 662,-327.5 790,-327.5 790,-357.5"/>
<text text-anchor="start" x="670" y="-345.5" font-family="Helvetica,sans-Serif" font-size="10.00">basic_memory_buffer</text>
<text text-anchor="middle" x="726" y="-334.5" font-family="Helvetica,sans-Serif" font-size="10.00">::basic_memory_buffer</text>
</a>
</g>
</g>
<!-- Node1&#45;&gt;Node7 -->
<g id="edge6_Node000001_Node000007" class="edge">
<title>Node1&#45;&gt;Node7</title>
<g id="a_edge6_Node000001_Node000007"><a xlink:title=" ">
<path fill="none" stroke="#63b8ff" d="M815.9,-355.92C807.32,-354.62 798.58,-353.31 790.11,-352.03"/>
<polygon fill="#63b8ff" stroke="#63b8ff" points="815.48,-359.39 825.89,-357.43 816.52,-352.47 815.48,-359.39"/>
</a>
</g>
</g>
<!-- Node3 -->
<g id="Node000003" class="node">
<title>Node3</title>
<g id="a_Node000003"><a xlink:href="classdetail_1_1bigint.html#a15833eda9c0cc326a77b0a37ac208a20" target="_top" xlink:title=" ">
<polygon fill="white" stroke="#666666" points="613,-730 496,-730 496,-711 613,-711 613,-730"/>
<text text-anchor="middle" x="554.5" y="-718" font-family="Helvetica,sans-Serif" font-size="10.00">detail::bigint::square</text>
</a>
</g>
</g>
<!-- Node2&#45;&gt;Node3 -->
<g id="edge2_Node000002_Node000003" class="edge">
<title>Node2&#45;&gt;Node3</title>
<g id="a_edge2_Node000002_Node000003"><a xlink:title=" ">
<path fill="none" stroke="#63b8ff" d="M715.08,-579.8C700.48,-612.48 670.08,-670.09 626,-701.5 620.53,-705.4 614.3,-708.5 607.86,-710.96"/>
<polygon fill="#63b8ff" stroke="#63b8ff" points="718.34,-581.08 719.1,-570.52 711.91,-578.3 718.34,-581.08"/>
</a>
</g>
</g>
<!-- Node4 -->
<g id="Node000004" class="node">
<title>Node4</title>
<g id="a_Node000004"><a xlink:href="classdetail_1_1bigint.html#a8351139b55eb772c8f1c9f86e8e66e8f" target="_top" xlink:title=" ">
<polygon fill="white" stroke="#666666" points="433.5,-735.5 317.5,-735.5 317.5,-705.5 433.5,-705.5 433.5,-735.5"/>
<text text-anchor="start" x="325.5" y="-723.5" font-family="Helvetica,sans-Serif" font-size="10.00">detail::bigint::assign</text>
<text text-anchor="middle" x="375.5" y="-712.5" font-family="Helvetica,sans-Serif" font-size="10.00">_pow10</text>
</a>
</g>
</g>
<!-- Node3&#45;&gt;Node4 -->
<g id="edge3_Node000003_Node000004" class="edge">
<title>Node3&#45;&gt;Node4</title>
<g id="a_edge3_Node000003_Node000004"><a xlink:title=" ">
<path fill="none" stroke="#63b8ff" d="M485.12,-720.5C468.12,-720.5 450.08,-720.5 433.68,-720.5"/>
<polygon fill="#63b8ff" stroke="#63b8ff" points="485.54,-724 495.54,-720.5 485.54,-717 485.54,-724"/>
</a>
</g>
</g>
<!-- Node5 -->
<g id="Node000005" class="node">
<title>Node5</title>
<g id="a_Node000005"><a xlink:href="namespacedetail.html#af3eae8fdebff07dc2edca668eaf2f8bd" target="_top" xlink:title=" ">
<polygon fill="white" stroke="#666666" points="268,-730 146,-730 146,-711 268,-711 268,-730"/>
<text text-anchor="middle" x="207" y="-718" font-family="Helvetica,sans-Serif" font-size="10.00">detail::format_dragon</text>
</a>
</g>
</g>
<!-- Node4&#45;&gt;Node5 -->
<g id="edge4_Node000004_Node000005" class="edge">
<title>Node4&#45;&gt;Node5</title>
<g id="a_edge4_Node000004_Node000005"><a xlink:title=" ">
<path fill="none" stroke="#63b8ff" d="M307.04,-720.5C294.2,-720.5 280.84,-720.5 268.24,-720.5"/>
<polygon fill="#63b8ff" stroke="#63b8ff" points="307.2,-724 317.2,-720.5 307.2,-717 307.2,-724"/>
</a>
</g>
</g>
<!-- Node6 -->
<g id="Node000006" class="node">
<title>Node6</title>
<g id="a_Node000006"><a xlink:href="namespacedetail.html#add861c358ea50b446b1a06080adb44ba" target="_top" xlink:title=" ">
<polygon fill="white" stroke="#666666" points="110,-730 0,-730 0,-711 110,-711 110,-730"/>
<text text-anchor="middle" x="55" y="-718" font-family="Helvetica,sans-Serif" font-size="10.00">detail::format_float</text>
</a>
</g>
</g>
<!-- Node5&#45;&gt;Node6 -->
<g id="edge5_Node000005_Node000006" class="edge">
<title>Node5&#45;&gt;Node6</title>
<g id="a_edge5_Node000005_Node000006"><a xlink:title=" ">
<path fill="none" stroke="#63b8ff" d="M135.58,-720.5C127.1,-720.5 118.54,-720.5 110.34,-720.5"/>
<polygon fill="#63b8ff" stroke="#63b8ff" points="135.85,-724 145.85,-720.5 135.85,-717 135.85,-724"/>
</a>
</g>
</g>
<!-- Node8 -->
<g id="Node000008" class="node">
<title>Node8</title>
<g id="a_Node000008"><a xlink:href="classdetail_1_1digit__grouping.html#a0f6b16f6c24b8a79c3415aff8724e5b3" target="_top" xlink:title=" ">
<polygon fill="white" stroke="#666666" points="614.5,-692.5 494.5,-692.5 494.5,-662.5 614.5,-662.5 614.5,-692.5"/>
<text text-anchor="start" x="502.5" y="-680.5" font-family="Helvetica,sans-Serif" font-size="10.00">detail::digit_grouping</text>
<text text-anchor="middle" x="554.5" y="-669.5" font-family="Helvetica,sans-Serif" font-size="10.00">::apply</text>
</a>
</g>
</g>
<!-- Node7&#45;&gt;Node8 -->
<g id="edge7_Node000007_Node000008" class="edge">
<title>Node7&#45;&gt;Node8</title>
<g id="a_edge7_Node000007_Node000008"><a xlink:title=" ">
<path fill="none" stroke="#63b8ff" d="M716.43,-367.3C704.04,-403.33 680.58,-472.33 662,-531.5 645.06,-585.44 665.14,-612.71 626,-653.5 622.69,-656.95 618.86,-659.91 614.74,-662.44"/>
<polygon fill="#63b8ff" stroke="#63b8ff" points="719.81,-368.23 719.76,-357.63 713.19,-365.95 719.81,-368.23"/>
</a>
</g>
</g>
<!-- Node9 -->
<g id="Node000009" class="node">
<title>Node9</title>
<g id="a_Node000009"><a xlink:href="structformatter_3_01std_1_1error__code_01_4.html#a470063b0427cac0f4618f8efe71656ac" target="_top" xlink:title=" ">
<polygon fill="white" stroke="#666666" points="614,-644.5 495,-644.5 495,-614.5 614,-614.5 614,-644.5"/>
<text text-anchor="start" x="503" y="-632.5" font-family="Helvetica,sans-Serif" font-size="10.00">formatter&lt; std::error</text>
<text text-anchor="middle" x="554.5" y="-621.5" font-family="Helvetica,sans-Serif" font-size="10.00">_code &gt;::format</text>
</a>
</g>
</g>
<!-- Node7&#45;&gt;Node9 -->
<g id="edge8_Node000007_Node000009" class="edge">
<title>Node7&#45;&gt;Node9</title>
<g id="a_edge8_Node000007_Node000009"><a xlink:title=" ">
<path fill="none" stroke="#63b8ff" d="M716.96,-367.46C696.71,-429.71 643.97,-588.09 626,-605.5 622.47,-608.92 618.44,-611.85 614.12,-614.37"/>
<polygon fill="#63b8ff" stroke="#63b8ff" points="720.38,-368.26 720.13,-357.67 713.72,-366.1 720.38,-368.26"/>
</a>
</g>
</g>
<!-- Node10 -->
<g id="Node000010" class="node">
<title>Node10</title>
<g id="a_Node000010"><a xlink:href="classdetail_1_1tm__writer.html#a57084e1a4311b7439ef4217fa3018285" target="_top" xlink:title=" ">
<polygon fill="white" stroke="#666666" points="606.5,-596.5 502.5,-596.5 502.5,-566.5 606.5,-566.5 606.5,-596.5"/>
<text text-anchor="start" x="510.5" y="-584.5" font-family="Helvetica,sans-Serif" font-size="10.00">detail::tm_writer::</text>
<text text-anchor="middle" x="554.5" y="-573.5" font-family="Helvetica,sans-Serif" font-size="10.00">on_second</text>
</a>
</g>
</g>
<!-- Node7&#45;&gt;Node10 -->
<g id="edge9_Node000007_Node000010" class="edge">
<title>Node7&#45;&gt;Node10</title>
<g id="a_edge9_Node000007_Node000010"><a xlink:title=" ">
<path fill="none" stroke="#63b8ff" d="M720.19,-367.69C710.39,-412.26 683.94,-505.26 626,-557.5 620.43,-562.52 613.77,-566.5 606.79,-569.65"/>
<polygon fill="#63b8ff" stroke="#63b8ff" points="723.66,-368.2 722.28,-357.7 716.81,-366.77 723.66,-368.2"/>
</a>
</g>
</g>
<!-- Node14 -->
<g id="Node000014" class="node">
<title>Node14</title>
<g id="a_Node000014"><a xlink:href="structdetail_1_1duration__formatter.html#a5eaa3651f2774bf273f23c4a6cb232a2" target="_top" xlink:title=" ">
<polygon fill="white" stroke="#666666" points="626,-548.5 483,-548.5 483,-518.5 626,-518.5 626,-548.5"/>
<text text-anchor="start" x="491" y="-536.5" font-family="Helvetica,sans-Serif" font-size="10.00">detail::duration_formatter</text>
<text text-anchor="middle" x="554.5" y="-525.5" font-family="Helvetica,sans-Serif" font-size="10.00">::on_second</text>
</a>
</g>
</g>
<!-- Node7&#45;&gt;Node14 -->
<g id="edge13_Node000007_Node000014" class="edge">
<title>Node7&#45;&gt;Node14</title>
<g id="a_edge13_Node000007_Node000014"><a xlink:title=" ">
<path fill="none" stroke="#63b8ff" d="M716.51,-367.68C702.98,-404.08 673.16,-471.22 626,-509.5 621.78,-512.92 617.05,-515.87 612.09,-518.4"/>
<polygon fill="#63b8ff" stroke="#63b8ff" points="719.95,-368.45 720.04,-357.86 713.36,-366.08 719.95,-368.45"/>
</a>
</g>
</g>
<!-- Node16 -->
<g id="Node000016" class="node">
<title>Node16</title>
<g id="a_Node000016"><a xlink:href="compile_8h.html#aafd70447a5d15c593712be146611663d" target="_top" xlink:title=" ">
<polygon fill="white" stroke="#666666" points="574,-500 535,-500 535,-481 574,-481 574,-500"/>
<text text-anchor="middle" x="554.5" y="-488" font-family="Helvetica,sans-Serif" font-size="10.00">print</text>
</a>
</g>
</g>
<!-- Node7&#45;&gt;Node16 -->
<g id="edge15_Node000007_Node000016" class="edge">
<title>Node7&#45;&gt;Node16</title>
<g id="a_edge15_Node000007_Node000016"><a xlink:title=" ">
<path fill="none" stroke="#63b8ff" d="M713.05,-366.81C697.25,-396.36 666.59,-445.62 626,-472.5 610.41,-482.82 589.29,-487.23 574.23,-489.1"/>
<polygon fill="#63b8ff" stroke="#63b8ff" points="716.33,-368.09 717.83,-357.6 710.12,-364.86 716.33,-368.09"/>
</a>
</g>
</g>
<!-- Node17 -->
<g id="Node000017" class="node">
<title>Node17</title>
<g id="a_Node000017"><a xlink:href="ostream_8h.html#a3883cc4dedb6840173d3ca9699e7693c" target="_top" xlink:title=" ">
<polygon fill="white" stroke="#666666" points="574,-463 535,-463 535,-444 574,-444 574,-463"/>
<text text-anchor="middle" x="554.5" y="-451" font-family="Helvetica,sans-Serif" font-size="10.00">print</text>
</a>
</g>
</g>
<!-- Node7&#45;&gt;Node17 -->
<g id="edge16_Node000007_Node000017" class="edge">
<title>Node7&#45;&gt;Node17</title>
<g id="a_edge16_Node000007_Node000017"><a xlink:title=" ">
<path fill="none" stroke="#63b8ff" d="M706.64,-365.42C688.39,-386.69 658.48,-417.67 626,-435.5 609.72,-444.44 588.89,-449.04 574.11,-451.35"/>
<polygon fill="#63b8ff" stroke="#63b8ff" points="709.53,-367.42 713.28,-357.51 704.17,-362.92 709.53,-367.42"/>
</a>
</g>
</g>
<!-- Node18 -->
<g id="Node000018" class="node">
<title>Node18</title>
<g id="a_Node000018"><a xlink:href="format_8h.html#a5ef22e73c121e5454e75a221470d3214" target="_top" xlink:title=" ">
<polygon fill="white" stroke="#666666" points="582.5,-426 526.5,-426 526.5,-407 582.5,-407 582.5,-426"/>
<text text-anchor="middle" x="554.5" y="-414" font-family="Helvetica,sans-Serif" font-size="10.00">vformat</text>
</a>
</g>
</g>
<!-- Node7&#45;&gt;Node18 -->
<g id="edge17_Node000007_Node000018" class="edge">
<title>Node7&#45;&gt;Node18</title>
<g id="a_edge17_Node000007_Node000018"><a xlink:title=" ">
<path fill="none" stroke="#63b8ff" d="M693.75,-363.02C674.78,-374.74 649.72,-388.96 626,-398.5 612.17,-404.06 596.11,-408.32 582.82,-411.3"/>
<polygon fill="#63b8ff" stroke="#63b8ff" points="695.66,-365.95 702.27,-357.67 691.94,-360.02 695.66,-365.95"/>
</a>
</g>
</g>
<!-- Node19 -->
<g id="Node000019" class="node">
<title>Node19</title>
<g id="a_Node000019"><a xlink:href="format-inl_8h.html#a7d363bad28ecb7c5fda462edcafa09cb" target="_top" xlink:title=" ">
<polygon fill="white" stroke="#666666" points="582.5,-389 526.5,-389 526.5,-370 582.5,-370 582.5,-389"/>
<text text-anchor="middle" x="554.5" y="-377" font-family="Helvetica,sans-Serif" font-size="10.00">vformat</text>
</a>
</g>
</g>
<!-- Node7&#45;&gt;Node19 -->
<g id="edge18_Node000007_Node000019" class="edge">
<title>Node7&#45;&gt;Node19</title>
<g id="a_edge18_Node000007_Node000019"><a xlink:title=" ">
<path fill="none" stroke="#63b8ff" d="M651.85,-358.47C627.34,-363.82 601.5,-369.46 582.76,-373.55"/>
<polygon fill="#63b8ff" stroke="#63b8ff" points="652.86,-361.83 661.88,-356.28 651.37,-354.99 652.86,-361.83"/>
</a>
</g>
</g>
<!-- Node21 -->
<g id="Node000021" class="node">
<title>Node21</title>
<g id="a_Node000021"><a xlink:href="home_2runner_2work_2CHRONOS-LoRa_2CHRONOS-LoRa_2thirdparty_2fmt_2include_2fmt_2color_8h.html#aadf71aa39d12c7a1ca08c8596c513edd" target="_top" xlink:title=" ">
<polygon fill="white" stroke="#666666" points="582.5,-352 526.5,-352 526.5,-333 582.5,-333 582.5,-352"/>
<text text-anchor="middle" x="554.5" y="-340" font-family="Helvetica,sans-Serif" font-size="10.00">vformat</text>
</a>
</g>
</g>
<!-- Node7&#45;&gt;Node21 -->
<g id="edge20_Node000007_Node000021" class="edge">
<title>Node7&#45;&gt;Node21</title>
<g id="a_edge20_Node000007_Node000021"><a xlink:title=" ">
<path fill="none" stroke="#63b8ff" d="M651.85,-342.5C627.34,-342.5 601.5,-342.5 582.76,-342.5"/>
<polygon fill="#63b8ff" stroke="#63b8ff" points="651.88,-346 661.88,-342.5 651.88,-339 651.88,-346"/>
</a>
</g>
</g>
<!-- Node22 -->
<g id="Node000022" class="node">
<title>Node22</title>
<g id="a_Node000022"><a xlink:href="xchar_8h.html#a0787317722f2961c0ee550a845cfb966" target="_top" xlink:title=" ">
<polygon fill="white" stroke="#666666" points="582.5,-315 526.5,-315 526.5,-296 582.5,-296 582.5,-315"/>
<text text-anchor="middle" x="554.5" y="-303" font-family="Helvetica,sans-Serif" font-size="10.00">vformat</text>
</a>
</g>
</g>
<!-- Node7&#45;&gt;Node22 -->
<g id="edge21_Node000007_Node000022" class="edge">
<title>Node7&#45;&gt;Node22</title>
<g id="a_edge21_Node000007_Node000022"><a xlink:title=" ">
<path fill="none" stroke="#63b8ff" d="M651.85,-326.53C627.34,-321.18 601.5,-315.54 582.76,-311.45"/>
<polygon fill="#63b8ff" stroke="#63b8ff" points="651.37,-330.01 661.88,-328.72 652.86,-323.17 651.37,-330.01"/>
</a>
</g>
</g>
<!-- Node23 -->
<g id="Node000023" class="node">
<title>Node23</title>
<g id="a_Node000023"><a xlink:href="home_2runner_2work_2CHRONOS-LoRa_2CHRONOS-LoRa_2thirdparty_2fmt_2include_2fmt_2color_8h.html#a86192aabb5e3ab5d0461f757afbbfb4e" target="_top" xlink:title=" ">
<polygon fill="white" stroke="#666666" points="577,-278 532,-278 532,-259 577,-259 577,-278"/>
<text text-anchor="middle" x="554.5" y="-266" font-family="Helvetica,sans-Serif" font-size="10.00">vprint</text>
</a>
</g>
</g>
<!-- Node7&#45;&gt;Node23 -->
<g id="edge22_Node000007_Node000023" class="edge">
<title>Node7&#45;&gt;Node23</title>
<g id="a_edge22_Node000007_Node000023"><a xlink:title=" ">
<path fill="none" stroke="#63b8ff" d="M693.01,-322.1C674.09,-310.72 649.33,-296.96 626,-287.5 610.14,-281.07 591.4,-276.14 577.23,-272.91"/>
<polygon fill="#63b8ff" stroke="#63b8ff" points="691.44,-325.25 701.8,-327.48 695.09,-319.27 691.44,-325.25"/>
</a>
</g>
</g>
<!-- Node24 -->
<g id="Node000024" class="node">
<title>Node24</title>
<g id="a_Node000024"><a xlink:href="xchar_8h.html#ad59e14d924bf2fe1d17939ad9d8b8d4a" target="_top" xlink:title=" ">
<polygon fill="white" stroke="#666666" points="577,-241 532,-241 532,-222 577,-222 577,-241"/>
<text text-anchor="middle" x="554.5" y="-229" font-family="Helvetica,sans-Serif" font-size="10.00">vprint</text>
</a>
</g>
</g>
<!-- Node7&#45;&gt;Node24 -->
<g id="edge23_Node000007_Node000024" class="edge">
<title>Node7&#45;&gt;Node24</title>
<g id="a_edge23_Node000007_Node000024"><a xlink:title=" ">
<path fill="none" stroke="#63b8ff" d="M706.64,-319.58C688.39,-298.31 658.48,-267.33 626,-249.5 610.83,-241.17 591.71,-236.6 577.2,-234.15"/>
<polygon fill="#63b8ff" stroke="#63b8ff" points="704.17,-322.08 713.28,-327.49 709.53,-317.58 704.17,-322.08"/>
</a>
</g>
</g>
<!-- Node26 -->
<g id="Node000026" class="node">
<title>Node26</title>
<g id="a_Node000026"><a xlink:href="ostream_8h.html#a5a12ace2368ad2613bac4c16637a97ec" target="_top" xlink:title=" ">
<polygon fill="white" stroke="#666666" points="577,-204 532,-204 532,-185 577,-185 577,-204"/>
<text text-anchor="middle" x="554.5" y="-192" font-family="Helvetica,sans-Serif" font-size="10.00">vprint</text>
</a>
</g>
</g>
<!-- Node7&#45;&gt;Node26 -->
<g id="edge25_Node000007_Node000026" class="edge">
<title>Node7&#45;&gt;Node26</title>
<g id="a_edge25_Node000007_Node000026"><a xlink:title=" ">
<path fill="none" stroke="#63b8ff" d="M713.05,-318.19C697.25,-288.64 666.59,-239.38 626,-212.5 611.36,-202.8 591.83,-198.33 577.04,-196.27"/>
<polygon fill="#63b8ff" stroke="#63b8ff" points="710.12,-320.14 717.83,-327.4 716.33,-316.91 710.12,-320.14"/>
</a>
</g>
</g>
<!-- Node27 -->
<g id="Node000027" class="node">
<title>Node27</title>
<g id="a_Node000027"><a xlink:href="xchar_8h.html#aae096773ff6c45b6cc1555e3bb92c3d3" target="_top" xlink:title=" ">
<polygon fill="white" stroke="#666666" points="577,-167 532,-167 532,-148 577,-148 577,-167"/>
<text text-anchor="middle" x="554.5" y="-155" font-family="Helvetica,sans-Serif" font-size="10.00">vprint</text>
</a>
</g>
</g>
<!-- Node7&#45;&gt;Node27 -->
<g id="edge26_Node000007_Node000027" class="edge">
<title>Node7&#45;&gt;Node27</title>
<g id="a_edge26_Node000007_Node000027"><a xlink:title=" ">
<path fill="none" stroke="#63b8ff" d="M717.09,-317.39C704.14,-280.5 674.86,-212.09 626,-175.5 611.84,-164.9 592.09,-160.51 577.09,-158.71"/>
<polygon fill="#63b8ff" stroke="#63b8ff" points="713.93,-318.98 720.45,-327.33 720.56,-316.74 713.93,-318.98"/>
</a>
</g>
</g>
<!-- Node28 -->
<g id="Node000028" class="node">
<title>Node28</title>
<g id="a_Node000028"><a xlink:href="format-inl_8h.html#a3774f0f4816097d469f11407f83ee394" target="_top" xlink:title=" ">
<polygon fill="white" stroke="#666666" points="600,-130 509,-130 509,-111 600,-111 600,-130"/>
<text text-anchor="middle" x="554.5" y="-118" font-family="Helvetica,sans-Serif" font-size="10.00">vprint_buffered</text>
</a>
</g>
</g>
<!-- Node7&#45;&gt;Node28 -->
<g id="edge27_Node000007_Node000028" class="edge">
<title>Node7&#45;&gt;Node28</title>
<g id="a_edge27_Node000007_Node000028"><a xlink:title=" ">
<path fill="none" stroke="#63b8ff" d="M719.98,-317.23C710,-273.87 683.5,-185.42 626,-138.5 618.56,-132.43 609.33,-128.38 600.02,-125.68"/>
<polygon fill="#63b8ff" stroke="#63b8ff" points="716.61,-318.21 722.16,-327.23 723.45,-316.72 716.61,-318.21"/>
</a>
</g>
</g>
<!-- Node29 -->
<g id="Node000029" class="node">
<title>Node29</title>
<g id="a_Node000029"><a xlink:href="format-inl_8h.html#a71033730e1d1c2c72b7905f21929df93" target="_top" xlink:title=" ">
<polygon fill="white" stroke="#666666" points="581.5,-93 527.5,-93 527.5,-74 581.5,-74 581.5,-93"/>
<text text-anchor="middle" x="554.5" y="-81" font-family="Helvetica,sans-Serif" font-size="10.00">vprintln</text>
</a>
</g>
</g>
<!-- Node7&#45;&gt;Node29 -->
<g id="edge28_Node000007_Node000029" class="edge">
<title>Node7&#45;&gt;Node29</title>
<g id="a_edge28_Node000007_Node000029"><a xlink:title=" ">
<path fill="none" stroke="#63b8ff" d="M722.08,-317.3C715.01,-268.13 692.34,-159.16 626,-101.5 613.8,-90.89 596.17,-86.39 581.6,-84.54"/>
<polygon fill="#63b8ff" stroke="#63b8ff" points="718.63,-317.94 723.43,-327.38 725.57,-317.01 718.63,-317.94"/>
</a>
</g>
</g>
<!-- Node30 -->
<g id="Node000030" class="node">
<title>Node30</title>
<g id="a_Node000030"><a xlink:href="namespacedetail.html#a53f64cca161818cc3e0d8ebce2a36335" target="_top" xlink:title=" ">
<polygon fill="white" stroke="#666666" points="601,-56 508,-56 508,-37 601,-37 601,-56"/>
<text text-anchor="middle" x="554.5" y="-44" font-family="Helvetica,sans-Serif" font-size="10.00">detail::write_int</text>
</a>
</g>
</g>
<!-- Node7&#45;&gt;Node30 -->
<g id="edge29_Node000007_Node000030" class="edge">
<title>Node7&#45;&gt;Node30</title>
<g id="a_edge29_Node000007_Node000030"><a xlink:title=" ">
<path fill="none" stroke="#63b8ff" d="M723.62,-316.96C719.25,-262.21 701.08,-132.97 626,-64.5 619.09,-58.2 610.29,-54.04 601.26,-51.31"/>
<polygon fill="#63b8ff" stroke="#63b8ff" points="720.15,-317.44 724.34,-327.17 727.13,-316.95 720.15,-317.44"/>
</a>
</g>
</g>
<!-- Node31 -->
<g id="Node000031" class="node">
<title>Node31</title>
<g id="a_Node000031"><a xlink:href="namespacedetail.html#a289cb079ced65a67e9c17bef575ece59" target="_top" xlink:title=" ">
<polygon fill="white" stroke="#666666" points="621,-19 488,-19 488,0 621,0 621,-19"/>
<text text-anchor="middle" x="554.5" y="-7" font-family="Helvetica,sans-Serif" font-size="10.00">detail::write_significand</text>
</a>
</g>
</g>
<!-- Node7&#45;&gt;Node31 -->
<g id="edge30_Node000007_Node000031" class="edge">
<title>Node7&#45;&gt;Node31</title>
<g id="a_edge30_Node000007_Node000031"><a xlink:title=" ">
<path fill="none" stroke="#63b8ff" d="M724.88,-317.35C723.16,-257.81 710.25,-107.28 626,-27.5 622.42,-24.11 618.3,-21.34 613.88,-19.07"/>
<polygon fill="#63b8ff" stroke="#63b8ff" points="721.38,-317.44 725.08,-327.37 728.38,-317.3 721.38,-317.44"/>
</a>
</g>
</g>
<!-- Node11 -->
<g id="Node000011" class="node">
<title>Node11</title>
<g id="a_Node000011"><a xlink:href="classdetail_1_1tm__writer.html#a4a0487e028e1502e59e0f29f896ff740" target="_top" xlink:title=" ">
<polygon fill="white" stroke="#666666" points="427.5,-596.5 323.5,-596.5 323.5,-566.5 427.5,-566.5 427.5,-596.5"/>
<text text-anchor="start" x="331.5" y="-584.5" font-family="Helvetica,sans-Serif" font-size="10.00">detail::tm_writer::</text>
<text text-anchor="middle" x="375.5" y="-573.5" font-family="Helvetica,sans-Serif" font-size="10.00">on_iso_time</text>
</a>
</g>
</g>
<!-- Node10&#45;&gt;Node11 -->
<g id="edge10_Node000010_Node000011" class="edge">
<title>Node10&#45;&gt;Node11</title>
<g id="a_edge10_Node000010_Node000011"><a xlink:title=" ">
<path fill="none" stroke="#63b8ff" d="M492.17,-581.5C471.1,-581.5 447.75,-581.5 427.58,-581.5"/>
<polygon fill="#63b8ff" stroke="#63b8ff" points="492.3,-585 502.3,-581.5 492.3,-578 492.3,-585"/>
</a>
</g>
</g>
<!-- Node12 -->
<g id="Node000012" class="node">
<title>Node12</title>
<g id="a_Node000012"><a xlink:href="classdetail_1_1tm__writer.html#af53d115957cdef5079ea641b12d8dce9" target="_top" xlink:title=" ">
<polygon fill="white" stroke="#666666" points="259,-620.5 155,-620.5 155,-590.5 259,-590.5 259,-620.5"/>
<text text-anchor="start" x="163" y="-608.5" font-family="Helvetica,sans-Serif" font-size="10.00">detail::tm_writer::</text>
<text text-anchor="middle" x="207" y="-597.5" font-family="Helvetica,sans-Serif" font-size="10.00">on_datetime</text>
</a>
</g>
</g>
<!-- Node11&#45;&gt;Node12 -->
<g id="edge11_Node000011_Node000012" class="edge">
<title>Node11&#45;&gt;Node12</title>
<g id="a_edge11_Node000011_Node000012"><a xlink:title=" ">
<path fill="none" stroke="#63b8ff" d="M312.95,-590.37C295.25,-592.92 276.14,-595.68 259.14,-598.13"/>
<polygon fill="#63b8ff" stroke="#63b8ff" points="313.79,-593.79 323.19,-588.9 312.79,-586.86 313.79,-593.79"/>
</a>
</g>
</g>
<!-- Node13 -->
<g id="Node000013" class="node">
<title>Node13</title>
<g id="a_Node000013"><a xlink:href="classdetail_1_1tm__writer.html#a67832bfe5da8fdfae46367a14fb35d48" target="_top" xlink:title=" ">
<polygon fill="white" stroke="#666666" points="259,-572.5 155,-572.5 155,-542.5 259,-542.5 259,-572.5"/>
<text text-anchor="start" x="163" y="-560.5" font-family="Helvetica,sans-Serif" font-size="10.00">detail::tm_writer::</text>
<text text-anchor="middle" x="207" y="-549.5" font-family="Helvetica,sans-Serif" font-size="10.00">on_loc_time</text>
</a>
</g>
</g>
<!-- Node11&#45;&gt;Node13 -->
<g id="edge12_Node000011_Node000013" class="edge">
<title>Node11&#45;&gt;Node13</title>
<g id="a_edge12_Node000011_Node000013"><a xlink:title=" ">
<path fill="none" stroke="#63b8ff" d="M312.95,-572.63C295.25,-570.08 276.14,-567.32 259.14,-564.87"/>
<polygon fill="#63b8ff" stroke="#63b8ff" points="312.79,-576.14 323.19,-574.1 313.79,-569.21 312.79,-576.14"/>
</a>
</g>
</g>
<!-- Node15 -->
<g id="Node000015" class="node">
<title>Node15</title>
<g id="a_Node000015"><a xlink:href="structdetail_1_1duration__formatter.html#a8044d0b686a0080acbb954da3cab168d" target="_top" xlink:title=" ">
<polygon fill="white" stroke="#666666" points="447,-548.5 304,-548.5 304,-518.5 447,-518.5 447,-548.5"/>
<text text-anchor="start" x="312" y="-536.5" font-family="Helvetica,sans-Serif" font-size="10.00">detail::duration_formatter</text>
<text text-anchor="middle" x="375.5" y="-525.5" font-family="Helvetica,sans-Serif" font-size="10.00">::on_iso_time</text>
</a>
</g>
</g>
<!-- Node14&#45;&gt;Node15 -->
<g id="edge14_Node000014_Node000015" class="edge">
<title>Node14&#45;&gt;Node15</title>
<g id="a_edge14_Node000014_Node000015"><a xlink:title=" ">
<path fill="none" stroke="#63b8ff" d="M472.51,-533.5C464.03,-533.5 455.46,-533.5 447.11,-533.5"/>
<polygon fill="#63b8ff" stroke="#63b8ff" points="472.78,-537 482.78,-533.5 472.78,-530 472.78,-537"/>
</a>
</g>
</g>
<!-- Node20 -->
<g id="Node000020" class="node">
<title>Node20</title>
<g id="a_Node000020"><a xlink:href="format-inl_8h.html#ab41bf8cae80639f211595a96bc63c343" target="_top" xlink:title=" ">
<polygon fill="white" stroke="#666666" points="419,-389 332,-389 332,-370 419,-370 419,-389"/>
<text text-anchor="middle" x="375.5" y="-377" font-family="Helvetica,sans-Serif" font-size="10.00">vsystem_error</text>
</a>
</g>
</g>
<!-- Node19&#45;&gt;Node20 -->
<g id="edge19_Node000019_Node000020" class="edge">
<title>Node19&#45;&gt;Node20</title>
<g id="a_edge19_Node000019_Node000020"><a xlink:title=" ">
<path fill="none" stroke="#63b8ff" d="M515.94,-379.5C487.65,-379.5 448.81,-379.5 419.31,-379.5"/>
<polygon fill="#63b8ff" stroke="#63b8ff" points="516.23,-383 526.23,-379.5 516.23,-376 516.23,-383"/>
</a>
</g>
</g>
<!-- Node25 -->
<g id="Node000025" class="node">
<title>Node25</title>
<g id="a_Node000025"><a xlink:href="xchar_8h.html#ab357e28df4fee8293636aaf7a1662508" target="_top" xlink:title=" ">
<polygon fill="white" stroke="#666666" points="398,-241 353,-241 353,-222 398,-222 398,-241"/>
<text text-anchor="middle" x="375.5" y="-229" font-family="Helvetica,sans-Serif" font-size="10.00">vprint</text>
</a>
</g>
</g>
<!-- Node24&#45;&gt;Node25 -->
<g id="edge24_Node000024_Node000025" class="edge">
<title>Node24&#45;&gt;Node25</title>
<g id="a_edge24_Node000024_Node000025"><a xlink:title=" ">
<path fill="none" stroke="#63b8ff" d="M521.44,-231.5C485.71,-231.5 428.92,-231.5 398.1,-231.5"/>
<polygon fill="#63b8ff" stroke="#63b8ff" points="521.8,-235 531.8,-231.5 521.8,-228 521.8,-235"/>
</a>
</g>
</g>
</g>
</svg>
