<?xml version="1.0" encoding="UTF-8" standalone="no"?>
<!DOCTYPE svg PUBLIC "-//W3C//DTD SVG 1.1//EN"
 "http://www.w3.org/Graphics/SVG/1.1/DTD/svg11.dtd">
<!-- Generated by graphviz version 2.43.0 (0)
 -->
<!-- Title: basic_specs::set_align Pages: 1 -->
<svg width="306pt" height="257pt"
 viewBox="0.00 0.00 306.00 257.00" xmlns="http://www.w3.org/2000/svg" xmlns:xlink="http://www.w3.org/1999/xlink">
<g id="graph0" class="graph" transform="scale(1 1) rotate(0) translate(4 253)">
<title>basic_specs::set_align</title>
<!-- Node1 -->
<g id="Node000001" class="node">
<title>Node1</title>
<g id="a_Node000001"><a xlink:title=" ">
<polygon fill="#999999" stroke="#666666" points="298,-125.5 173,-125.5 173,-106.5 298,-106.5 298,-125.5"/>
<text text-anchor="middle" x="235.5" y="-113.5" font-family="Helvetica,sans-Serif" font-size="10.00">basic_specs::set_align</text>
</a>
</g>
</g>
<!-- Node2 -->
<g id="Node000002" class="node">
<title>Node2</title>
<g id="a_Node000002"><a xlink:href="structformatter_3_01std_1_1complex_3_01T_01_4_00_01Char_01_4.html#aa62b28a5bebe60b586c9936443e3669b" target="_top" xlink:title=" ">
<polygon fill="white" stroke="#666666" points="137,-249 0,-249 0,-219 137,-219 137,-249"/>
<text text-anchor="start" x="8" y="-237" font-family="Helvetica,sans-Serif" font-size="10.00">formatter&lt; std::complex</text>
<text text-anchor="middle" x="68.5" y="-226" font-family="Helvetica,sans-Serif" font-size="10.00">&lt; T &gt;, Char &gt;::format</text>
</a>
</g>
</g>
<!-- Node1&#45;&gt;Node2 -->
<g id="edge1_Node000001_Node000002" class="edge">
<title>Node1&#45;&gt;Node2</title>
<g id="a_edge1_Node000001_Node000002"><a xlink:title=" ">
<path fill="none" stroke="#63b8ff" d="M220.55,-133.39C203.02,-154.2 171.09,-188.9 137,-210 131.61,-213.34 125.68,-216.3 119.66,-218.9"/>
<polygon fill="#63b8ff" stroke="#63b8ff" points="223.27,-135.58 226.94,-125.64 217.87,-131.13 223.27,-135.58"/>
</a>
</g>
</g>
<!-- Node3 -->
<g id="Node000003" class="node">
<title>Node3</title>
<g id="a_Node000003"><a xlink:href="classdetail_1_1printf__arg__formatter.html#a82813713e45cd2a260d77658511c55c1" target="_top" xlink:title=" ">
<polygon fill="white" stroke="#666666" points="130,-201 7,-201 7,-171 130,-171 130,-201"/>
<text text-anchor="start" x="15" y="-189" font-family="Helvetica,sans-Serif" font-size="10.00">detail::printf_arg</text>
<text text-anchor="middle" x="68.5" y="-178" font-family="Helvetica,sans-Serif" font-size="10.00">_formatter::operator()</text>
</a>
</g>
</g>
<!-- Node1&#45;&gt;Node3 -->
<g id="edge2_Node000001_Node000003" class="edge">
<title>Node1&#45;&gt;Node3</title>
<g id="a_edge2_Node000001_Node000003"><a xlink:title=" ">
<path fill="none" stroke="#63b8ff" d="M206.56,-130.09C187.24,-139.6 160.83,-152.17 137,-162 129.64,-165.04 121.74,-168.05 114.04,-170.87"/>
<polygon fill="#63b8ff" stroke="#63b8ff" points="208.29,-133.14 215.69,-125.56 205.18,-126.86 208.29,-133.14"/>
</a>
</g>
</g>
<!-- Node4 -->
<g id="Node000004" class="node">
<title>Node4</title>
<g id="a_Node000004"><a xlink:href="classdetail_1_1printf__width__handler.html#ae162f5f58b78a74741b038600efb038e" target="_top" xlink:title=" ">
<polygon fill="white" stroke="#666666" points="125,-153 12,-153 12,-123 125,-123 125,-153"/>
<text text-anchor="start" x="20" y="-141" font-family="Helvetica,sans-Serif" font-size="10.00">detail::printf_width</text>
<text text-anchor="middle" x="68.5" y="-130" font-family="Helvetica,sans-Serif" font-size="10.00">_handler::operator()</text>
</a>
</g>
</g>
<!-- Node1&#45;&gt;Node4 -->
<g id="edge3_Node000001_Node000004" class="edge">
<title>Node1&#45;&gt;Node4</title>
<g id="a_edge3_Node000001_Node000004"><a xlink:title=" ">
<path fill="none" stroke="#63b8ff" d="M162.64,-125.58C150.11,-127.25 137.25,-128.97 125.23,-130.57"/>
<polygon fill="#63b8ff" stroke="#63b8ff" points="163.14,-129.05 172.59,-124.25 162.22,-122.11 163.14,-129.05"/>
</a>
</g>
</g>
<!-- Node5 -->
<g id="Node000005" class="node">
<title>Node5</title>
<g id="a_Node000005"><a xlink:href="namespacedetail.html#a4213daed116a37e1767881da51238261" target="_top" xlink:title=" ">
<polygon fill="white" stroke="#666666" points="121.5,-104.5 15.5,-104.5 15.5,-85.5 121.5,-85.5 121.5,-104.5"/>
<text text-anchor="middle" x="68.5" y="-92.5" font-family="Helvetica,sans-Serif" font-size="10.00">detail::parse_flags</text>
</a>
</g>
</g>
<!-- Node1&#45;&gt;Node5 -->
<g id="edge4_Node000001_Node000005" class="edge">
<title>Node1&#45;&gt;Node5</title>
<g id="a_edge4_Node000001_Node000005"><a xlink:title=" ">
<path fill="none" stroke="#63b8ff" d="M162.61,-106.85C148.79,-105.09 134.55,-103.28 121.5,-101.62"/>
<polygon fill="#63b8ff" stroke="#63b8ff" points="162.23,-110.33 172.59,-108.12 163.11,-103.39 162.23,-110.33"/>
</a>
</g>
</g>
<!-- Node6 -->
<g id="Node000006" class="node">
<title>Node6</title>
<g id="a_Node000006"><a xlink:href="namespacedetail.html#a1c8c2218e4c822aa8f743fb9c573717f" target="_top" xlink:title=" ">
<polygon fill="white" stroke="#666666" points="110,-67.5 27,-67.5 27,-48.5 110,-48.5 110,-67.5"/>
<text text-anchor="middle" x="68.5" y="-55.5" font-family="Helvetica,sans-Serif" font-size="10.00">detail::vprintf</text>
</a>
</g>
</g>
<!-- Node1&#45;&gt;Node6 -->
<g id="edge5_Node000001_Node000006" class="edge">
<title>Node1&#45;&gt;Node6</title>
<g id="a_edge5_Node000001_Node000006"><a xlink:title=" ">
<path fill="none" stroke="#63b8ff" d="M203.33,-102.55C184.34,-94.6 159.49,-84.64 137,-77 127.09,-73.63 116.22,-70.38 106.15,-67.55"/>
<polygon fill="#63b8ff" stroke="#63b8ff" points="202.1,-105.83 212.68,-106.5 204.83,-99.38 202.1,-105.83"/>
</a>
</g>
</g>
<!-- Node7 -->
<g id="Node000007" class="node">
<title>Node7</title>
<g id="a_Node000007"><a xlink:href="structnested__formatter.html#a6ab579c8e01e2a080d1cab4173991348" target="_top" xlink:title=" ">
<polygon fill="white" stroke="#666666" points="134.5,-30 2.5,-30 2.5,0 134.5,0 134.5,-30"/>
<text text-anchor="start" x="10.5" y="-18" font-family="Helvetica,sans-Serif" font-size="10.00">nested_formatter::write</text>
<text text-anchor="middle" x="68.5" y="-7" font-family="Helvetica,sans-Serif" font-size="10.00">_padded</text>
</a>
</g>
</g>
<!-- Node1&#45;&gt;Node7 -->
<g id="edge6_Node000001_Node000007" class="edge">
<title>Node1&#45;&gt;Node7</title>
<g id="a_edge6_Node000001_Node000007"><a xlink:title=" ">
<path fill="none" stroke="#63b8ff" d="M217.01,-99.64C198.36,-82.87 167.38,-56.93 137,-40 130.45,-36.35 123.26,-33.04 116.1,-30.11"/>
<polygon fill="#63b8ff" stroke="#63b8ff" points="214.69,-102.26 224.44,-106.42 219.41,-97.09 214.69,-102.26"/>
</a>
</g>
</g>
</g>
</svg>
