<?xml version="1.0" encoding="UTF-8" standalone="no"?>
<!DOCTYPE svg PUBLIC "-//W3C//DTD SVG 1.1//EN"
 "http://www.w3.org/Graphics/SVG/1.1/DTD/svg11.dtd">
<!-- Generated by graphviz version 2.43.0 (0)
 -->
<!-- Title: Magick::DrawableFillRule Pages: 1 -->
<svg width="166pt" height="93pt"
 viewBox="0.00 0.00 166.00 93.00" xmlns="http://www.w3.org/2000/svg" xmlns:xlink="http://www.w3.org/1999/xlink">
<g id="graph0" class="graph" transform="scale(1 1) rotate(0) translate(4 89)">
<title>Magick::DrawableFillRule</title>
<!-- Node1 -->
<g id="Node000001" class="node">
<title>Node1</title>
<g id="a_Node000001"><a xlink:title=" ">
<polygon fill="#999999" stroke="#666666" points="157.5,-19 17.5,-19 17.5,0 157.5,0 157.5,-19"/>
<text text-anchor="middle" x="87.5" y="-7" font-family="Helvetica,sans-Serif" font-size="10.00">Magick::DrawableFillRule</text>
</a>
</g>
</g>
<!-- Node2 -->
<g id="Node000002" class="node">
<title>Node2</title>
<g id="a_Node000002"><a xlink:title=" ">
<polygon fill="white" stroke="#666666" points="87,-85 0,-85 0,-66 87,-66 87,-85"/>
<text text-anchor="middle" x="43.5" y="-73" font-family="Helvetica,sans-Serif" font-size="10.00">DrawableBase</text>
</a>
</g>
</g>
<!-- Node2&#45;&gt;Node1 -->
<g id="edge1_Node000001_Node000002" class="edge">
<title>Node2&#45;&gt;Node1</title>
<g id="a_edge1_Node000001_Node000002"><a xlink:title=" ">
<path fill="none" stroke="#63b8ff" d="M55.25,-57.41C63.66,-45.18 74.64,-29.2 81.38,-19.41"/>
<polygon fill="#63b8ff" stroke="#63b8ff" points="52.22,-55.65 49.43,-65.87 57.98,-59.61 52.22,-55.65"/>
</a>
</g>
</g>
<!-- Node3 -->
<g id="Node000003" class="node">
<title>Node3</title>
<g id="a_Node000003"><a xlink:title=" ">
<polygon fill="white" stroke="#666666" points="158,-85 105,-85 105,-66 158,-66 158,-85"/>
<text text-anchor="middle" x="131.5" y="-73" font-family="Helvetica,sans-Serif" font-size="10.00">FillRule</text>
</a>
</g>
</g>
<!-- Node3&#45;&gt;Node1 -->
<g id="edge2_Node000001_Node000003" class="edge">
<title>Node3&#45;&gt;Node1</title>
<g id="a_edge2_Node000001_Node000003"><a xlink:title=" ">
<path fill="none" stroke="#9a32cd" stroke-dasharray="5,2" d="M119.75,-57.41C111.34,-45.18 100.36,-29.2 93.62,-19.41"/>
<polygon fill="#9a32cd" stroke="#9a32cd" points="117.02,-59.61 125.57,-65.87 122.78,-55.65 117.02,-59.61"/>
</a>
</g>
<text text-anchor="middle" x="133" y="-40" font-family="Helvetica,sans-Serif" font-size="10.00" fill="grey"> _fillRule</text>
</g>
</g>
</svg>
