<?xml version="1.0" encoding="UTF-8" standalone="no"?>
<!DOCTYPE svg PUBLIC "-//W3C//DTD SVG 1.1//EN"
 "http://www.w3.org/Graphics/SVG/1.1/DTD/svg11.dtd">
<!-- Generated by graphviz version 2.43.0 (0)
 -->
<!-- Title: basic_string_view::basic_string_view Pages: 1 -->
<svg width="306pt" height="349pt"
 viewBox="0.00 0.00 306.00 349.00" xmlns="http://www.w3.org/2000/svg" xmlns:xlink="http://www.w3.org/1999/xlink">
<g id="graph0" class="graph" transform="scale(1 1) rotate(0) translate(4 345)">
<title>basic_string_view::basic_string_view</title>
<!-- Node1 -->
<g id="Node000001" class="node">
<title>Node1</title>
<g id="a_Node000001"><a xlink:title=" ">
<polygon fill="#999999" stroke="#666666" points="298,-185.5 189,-185.5 189,-155.5 298,-155.5 298,-185.5"/>
<text text-anchor="start" x="197" y="-173.5" font-family="Helvetica,sans-Serif" font-size="10.00">basic_string_view::</text>
<text text-anchor="middle" x="243.5" y="-162.5" font-family="Helvetica,sans-Serif" font-size="10.00">basic_string_view</text>
</a>
</g>
</g>
<!-- Node2 -->
<g id="Node000002" class="node">
<title>Node2</title>
<g id="a_Node000002"><a xlink:href="structdetail_1_1ansi__color__escape.html#a0e7615921adbb653129f1c967851e443" target="_top" xlink:title=" ">
<polygon fill="white" stroke="#666666" points="132.5,-341 20.5,-341 20.5,-300 132.5,-300 132.5,-341"/>
<text text-anchor="start" x="28.5" y="-329" font-family="Helvetica,sans-Serif" font-size="10.00">detail::ansi_color</text>
<text text-anchor="start" x="28.5" y="-318" font-family="Helvetica,sans-Serif" font-size="10.00">_escape::ansi_color</text>
<text text-anchor="middle" x="76.5" y="-307" font-family="Helvetica,sans-Serif" font-size="10.00">_escape</text>
</a>
</g>
</g>
<!-- Node1&#45;&gt;Node2 -->
<g id="edge1_Node000001_Node000002" class="edge">
<title>Node1&#45;&gt;Node2</title>
<g id="a_edge1_Node000001_Node000002"><a xlink:title=" ">
<path fill="none" stroke="#63b8ff" d="M230.24,-194.49C215.33,-221.49 187.79,-265.04 153,-291.5 146.85,-296.18 139.86,-300.18 132.68,-303.59"/>
<polygon fill="#63b8ff" stroke="#63b8ff" points="233.32,-196.15 234.97,-185.68 227.15,-192.83 233.32,-196.15"/>
</a>
</g>
</g>
<!-- Node3 -->
<g id="Node000003" class="node">
<title>Node3</title>
<g id="a_Node000003"><a xlink:href="classdetail_1_1to__utf8.html#a6171f2fd39d0df3575ee3d8247ccc99f" target="_top" xlink:title=" ">
<polygon fill="white" stroke="#666666" points="140.5,-282 12.5,-282 12.5,-263 140.5,-263 140.5,-282"/>
<text text-anchor="middle" x="76.5" y="-270" font-family="Helvetica,sans-Serif" font-size="10.00">detail::to_utf8::convert</text>
</a>
</g>
</g>
<!-- Node1&#45;&gt;Node3 -->
<g id="edge2_Node000001_Node000003" class="edge">
<title>Node1&#45;&gt;Node3</title>
<g id="a_edge2_Node000001_Node000003"><a xlink:title=" ">
<path fill="none" stroke="#63b8ff" d="M224.1,-193.46C207.51,-212.63 181.4,-239.21 153,-254.5 146.71,-257.89 139.79,-260.64 132.77,-262.88"/>
<polygon fill="#63b8ff" stroke="#63b8ff" points="226.84,-195.65 230.61,-185.75 221.49,-191.14 226.84,-195.65"/>
</a>
</g>
</g>
<!-- Node4 -->
<g id="Node000004" class="node">
<title>Node4</title>
<g id="a_Node000004"><a xlink:href="structformatter_3_01detail_1_1styled__arg_3_01T_01_4_00_01Char_01_4.html#a66c75e987c7cdbb492a5ebe0f493c671" target="_top" xlink:title=" ">
<polygon fill="white" stroke="#666666" points="139,-245 14,-245 14,-204 139,-204 139,-245"/>
<text text-anchor="start" x="22" y="-233" font-family="Helvetica,sans-Serif" font-size="10.00">formatter&lt; detail::</text>
<text text-anchor="start" x="22" y="-222" font-family="Helvetica,sans-Serif" font-size="10.00">styled_arg&lt; T &gt;, Char</text>
<text text-anchor="middle" x="76.5" y="-211" font-family="Helvetica,sans-Serif" font-size="10.00"> &gt;::format</text>
</a>
</g>
</g>
<!-- Node1&#45;&gt;Node4 -->
<g id="edge3_Node000001_Node000004" class="edge">
<title>Node1&#45;&gt;Node4</title>
<g id="a_edge3_Node000001_Node000004"><a xlink:title=" ">
<path fill="none" stroke="#63b8ff" d="M186.73,-188.75C171.46,-193.75 154.83,-199.19 139.25,-204.29"/>
<polygon fill="#63b8ff" stroke="#63b8ff" points="188.12,-191.98 196.54,-185.54 185.95,-185.33 188.12,-191.98"/>
</a>
</g>
</g>
<!-- Node5 -->
<g id="Node000005" class="node">
<title>Node5</title>
<g id="a_Node000005"><a xlink:href="structformatter_3_01std_1_1error__code_01_4.html#a470063b0427cac0f4618f8efe71656ac" target="_top" xlink:title=" ">
<polygon fill="white" stroke="#666666" points="136,-185.5 17,-185.5 17,-155.5 136,-155.5 136,-185.5"/>
<text text-anchor="start" x="25" y="-173.5" font-family="Helvetica,sans-Serif" font-size="10.00">formatter&lt; std::error</text>
<text text-anchor="middle" x="76.5" y="-162.5" font-family="Helvetica,sans-Serif" font-size="10.00">_code &gt;::format</text>
</a>
</g>
</g>
<!-- Node1&#45;&gt;Node5 -->
<g id="edge4_Node000001_Node000005" class="edge">
<title>Node1&#45;&gt;Node5</title>
<g id="a_edge4_Node000001_Node000005"><a xlink:title=" ">
<path fill="none" stroke="#63b8ff" d="M178.87,-170.5C164.84,-170.5 150.04,-170.5 136.22,-170.5"/>
<polygon fill="#63b8ff" stroke="#63b8ff" points="178.93,-174 188.93,-170.5 178.93,-167 178.93,-174"/>
</a>
</g>
</g>
<!-- Node6 -->
<g id="Node000006" class="node">
<title>Node6</title>
<g id="a_Node000006"><a xlink:href="structformatter_3_01T_00_01char_00_01typename_01std_1_1enable__if_3_01std_1_1is__base__of_3_01std369b0d8e9c4d722950acabeda16337b.html#a4ef348cfedc93ef62177762991ae2272" target="_top" xlink:title=" ">
<polygon fill="white" stroke="#666666" points="149,-137 4,-137 4,-74 149,-74 149,-137"/>
<text text-anchor="start" x="12" y="-125" font-family="Helvetica,sans-Serif" font-size="10.00">formatter&lt; T, char,</text>
<text text-anchor="start" x="12" y="-114" font-family="Helvetica,sans-Serif" font-size="10.00"> typename std::enable</text>
<text text-anchor="start" x="12" y="-103" font-family="Helvetica,sans-Serif" font-size="10.00">_if&lt; std::is_base_of&lt;</text>
<text text-anchor="start" x="12" y="-92" font-family="Helvetica,sans-Serif" font-size="10.00"> std::exception, T &gt;::value</text>
<text text-anchor="middle" x="76.5" y="-81" font-family="Helvetica,sans-Serif" font-size="10.00"> &gt;::type &gt;::format</text>
</a>
</g>
</g>
<!-- Node1&#45;&gt;Node6 -->
<g id="edge5_Node000001_Node000006" class="edge">
<title>Node1&#45;&gt;Node6</title>
<g id="a_edge5_Node000001_Node000006"><a xlink:title=" ">
<path fill="none" stroke="#63b8ff" d="M194.7,-151.67C180.51,-146.08 164.64,-139.83 149.27,-133.77"/>
<polygon fill="#63b8ff" stroke="#63b8ff" points="193.64,-155.02 204.23,-155.42 196.21,-148.5 193.64,-155.02"/>
</a>
</g>
</g>
<!-- Node7 -->
<g id="Node000007" class="node">
<title>Node7</title>
<g id="a_Node000007"><a xlink:href="namespacedetail.html#a4529b1fbc3ea6083c4bc9e231534ea14" target="_top" xlink:title=" ">
<polygon fill="white" stroke="#666666" points="153,-56 0,-56 0,-37 153,-37 153,-56"/>
<text text-anchor="middle" x="76.5" y="-44" font-family="Helvetica,sans-Serif" font-size="10.00">detail::format_duration_unit</text>
</a>
</g>
</g>
<!-- Node1&#45;&gt;Node7 -->
<g id="edge6_Node000001_Node000007" class="edge">
<title>Node1&#45;&gt;Node7</title>
<g id="a_edge6_Node000001_Node000007"><a xlink:title=" ">
<path fill="none" stroke="#63b8ff" d="M228.57,-146.83C213.14,-122.7 186.02,-86.01 153,-65.5 146.8,-61.65 139.86,-58.58 132.76,-56.13"/>
<polygon fill="#63b8ff" stroke="#63b8ff" points="225.65,-148.75 233.9,-155.4 231.59,-145.06 225.65,-148.75"/>
</a>
</g>
</g>
<!-- Node8 -->
<g id="Node000008" class="node">
<title>Node8</title>
<g id="a_Node000008"><a xlink:href="namespacedetail.html#afd2dbb825f85c252c1843cc759ef2b7b" target="_top" xlink:title=" ">
<polygon fill="white" stroke="#666666" points="128.5,-19 24.5,-19 24.5,0 128.5,0 128.5,-19"/>
<text text-anchor="middle" x="76.5" y="-7" font-family="Helvetica,sans-Serif" font-size="10.00">detail::reset_color</text>
</a>
</g>
</g>
<!-- Node1&#45;&gt;Node8 -->
<g id="edge7_Node000001_Node000008" class="edge">
<title>Node1&#45;&gt;Node8</title>
<g id="a_edge7_Node000001_Node000008"><a xlink:title=" ">
<path fill="none" stroke="#63b8ff" d="M233.7,-145.87C220.96,-113.84 194.3,-58.45 153,-28.5 145.78,-23.26 137.26,-19.46 128.6,-16.71"/>
<polygon fill="#63b8ff" stroke="#63b8ff" points="230.5,-147.3 237.35,-155.39 237.04,-144.8 230.5,-147.3"/>
</a>
</g>
</g>
</g>
</svg>
