<?xml version="1.0" encoding="UTF-8" standalone="no"?>
<!DOCTYPE svg PUBLIC "-//W3C//DTD SVG 1.1//EN"
 "http://www.w3.org/Graphics/SVG/1.1/DTD/svg11.dtd">
<!-- Generated by graphviz version 2.43.0 (0)
 -->
<!-- Title: Magick::DrawableStrokeLineCap Pages: 1 -->
<svg width="184pt" height="93pt"
 viewBox="0.00 0.00 183.50 93.00" xmlns="http://www.w3.org/2000/svg" xmlns:xlink="http://www.w3.org/1999/xlink">
<g id="graph0" class="graph" transform="scale(1 1) rotate(0) translate(4 89)">
<title>Magick::DrawableStrokeLineCap</title>
<!-- Node1 -->
<g id="Node000001" class="node">
<title>Node1</title>
<g id="a_Node000001"><a xlink:title=" ">
<polygon fill="#999999" stroke="#666666" points="175.5,-19 1.5,-19 1.5,0 175.5,0 175.5,-19"/>
<text text-anchor="middle" x="88.5" y="-7" font-family="Helvetica,sans-Serif" font-size="10.00">Magick::DrawableStrokeLineCap</text>
</a>
</g>
</g>
<!-- Node2 -->
<g id="Node000002" class="node">
<title>Node2</title>
<g id="a_Node000002"><a xlink:title=" ">
<polygon fill="white" stroke="#666666" points="87,-85 0,-85 0,-66 87,-66 87,-85"/>
<text text-anchor="middle" x="43.5" y="-73" font-family="Helvetica,sans-Serif" font-size="10.00">DrawableBase</text>
</a>
</g>
</g>
<!-- Node2&#45;&gt;Node1 -->
<g id="edge1_Node000001_Node000002" class="edge">
<title>Node2&#45;&gt;Node1</title>
<g id="a_edge1_Node000001_Node000002"><a xlink:title=" ">
<path fill="none" stroke="#63b8ff" d="M55.52,-57.41C64.12,-45.18 75.35,-29.2 82.24,-19.41"/>
<polygon fill="#63b8ff" stroke="#63b8ff" points="52.46,-55.68 49.57,-65.87 58.18,-59.7 52.46,-55.68"/>
</a>
</g>
</g>
<!-- Node3 -->
<g id="Node000003" class="node">
<title>Node3</title>
<g id="a_Node000003"><a xlink:title=" ">
<polygon fill="white" stroke="#666666" points="161.5,-85 105.5,-85 105.5,-66 161.5,-66 161.5,-85"/>
<text text-anchor="middle" x="133.5" y="-73" font-family="Helvetica,sans-Serif" font-size="10.00">LineCap</text>
</a>
</g>
</g>
<!-- Node3&#45;&gt;Node1 -->
<g id="edge2_Node000001_Node000003" class="edge">
<title>Node3&#45;&gt;Node1</title>
<g id="a_edge2_Node000001_Node000003"><a xlink:title=" ">
<path fill="none" stroke="#9a32cd" stroke-dasharray="5,2" d="M121.48,-57.41C112.88,-45.18 101.65,-29.2 94.76,-19.41"/>
<polygon fill="#9a32cd" stroke="#9a32cd" points="118.82,-59.7 127.43,-65.87 124.54,-55.68 118.82,-59.7"/>
</a>
</g>
<text text-anchor="middle" x="135.5" y="-40" font-family="Helvetica,sans-Serif" font-size="10.00" fill="grey"> _linecap</text>
</g>
</g>
</svg>
