<?xml version="1.0" encoding="UTF-8" standalone="no"?>
<!DOCTYPE svg PUBLIC "-//W3C//DTD SVG 1.1//EN"
 "http://www.w3.org/Graphics/SVG/1.1/DTD/svg11.dtd">
<!-- Generated by graphviz version 2.43.0 (0)
 -->
<!-- Title: Magick::ColorRGB::red Pages: 1 -->
<svg width="330pt" height="76pt"
 viewBox="0.00 0.00 330.00 75.50" xmlns="http://www.w3.org/2000/svg" xmlns:xlink="http://www.w3.org/1999/xlink">
<g id="graph0" class="graph" transform="scale(1 1) rotate(0) translate(4 71.5)">
<title>Magick::ColorRGB::red</title>
<!-- Node1 -->
<g id="Node000001" class="node">
<title>Node1</title>
<g id="a_Node000001"><a xlink:title=" ">
<polygon fill="#999999" stroke="#666666" points="126,-45.5 0,-45.5 0,-26.5 126,-26.5 126,-45.5"/>
<text text-anchor="middle" x="63" y="-33.5" font-family="Helvetica,sans-Serif" font-size="10.00">Magick::ColorRGB::red</text>
</a>
</g>
</g>
<!-- Node2 -->
<g id="Node000002" class="node">
<title>Node2</title>
<g id="a_Node000002"><a xlink:href="classMagick_1_1Color.html#ad04010f0ea4115600a7ead586ea0c378" target="_top" xlink:title=" ">
<polygon fill="white" stroke="#666666" points="317,-67.5 167,-67.5 167,-48.5 317,-48.5 317,-67.5"/>
<text text-anchor="middle" x="242" y="-55.5" font-family="Helvetica,sans-Serif" font-size="10.00">Magick::Color::redQuantum</text>
</a>
</g>
</g>
<!-- Node1&#45;&gt;Node2 -->
<g id="edge1_Node000001_Node000002" class="edge">
<title>Node1&#45;&gt;Node2</title>
<g id="a_edge1_Node000001_Node000002"><a xlink:title=" ">
<path fill="none" stroke="#63b8ff" d="M126.4,-43.76C136.18,-44.97 146.43,-46.25 156.6,-47.51"/>
<polygon fill="#63b8ff" stroke="#63b8ff" points="156.38,-51.01 166.73,-48.77 157.24,-44.06 156.38,-51.01"/>
</a>
</g>
</g>
<!-- Node3 -->
<g id="Node000003" class="node">
<title>Node3</title>
<g id="a_Node000003"><a xlink:href="classMagick_1_1Color.html#acfd4d5d398ad516438fa89a51570b0a4" target="_top" xlink:title=" ">
<polygon fill="white" stroke="#666666" points="322,-30 162,-30 162,0 322,0 322,-30"/>
<text text-anchor="start" x="170" y="-18" font-family="Helvetica,sans-Serif" font-size="10.00">Magick::Color::scaleQuantum</text>
<text text-anchor="middle" x="242" y="-7" font-family="Helvetica,sans-Serif" font-size="10.00">ToDouble</text>
</a>
</g>
</g>
<!-- Node1&#45;&gt;Node3 -->
<g id="edge2_Node000001_Node000003" class="edge">
<title>Node1&#45;&gt;Node3</title>
<g id="a_edge2_Node000001_Node000003"><a xlink:title=" ">
<path fill="none" stroke="#63b8ff" d="M126.4,-28.6C134.63,-27.62 143.19,-26.6 151.75,-25.59"/>
<polygon fill="#63b8ff" stroke="#63b8ff" points="152.28,-29.05 161.8,-24.4 151.45,-22.1 152.28,-29.05"/>
</a>
</g>
</g>
</g>
</svg>
