<?xml version="1.0" encoding="UTF-8" standalone="no"?>
<!DOCTYPE svg PUBLIC "-//W3C//DTD SVG 1.1//EN"
 "http://www.w3.org/Graphics/SVG/1.1/DTD/svg11.dtd">
<!-- Generated by graphviz version 2.43.0 (0)
 -->
<!-- Title: SX126x Pages: 1 -->
<svg width="167pt" height="192pt"
 viewBox="0.00 0.00 167.00 192.00" xmlns="http://www.w3.org/2000/svg" xmlns:xlink="http://www.w3.org/1999/xlink">
<g id="graph0" class="graph" transform="scale(1 1) rotate(0) translate(4 188)">
<title>SX126x</title>
<!-- Node1 -->
<g id="Node000001" class="node">
<title>Node1</title>
<g id="a_Node000001"><a xlink:title="Base class for SX126x series. All derived classes for SX126x (e.g. SX1262 or SX1268) inherit from thi...">
<polygon fill="#999999" stroke="#666666" points="123,-129 70,-129 70,-110 123,-110 123,-129"/>
<text text-anchor="middle" x="96.5" y="-117" font-family="Helvetica,sans-Serif" font-size="10.00">SX126x</text>
</a>
</g>
</g>
<!-- Node3 -->
<g id="Node000003" class="node">
<title>Node3</title>
<g id="a_Node000003"><a xlink:href="classSX1262.html" target="_top" xlink:title="Derived class for SX1262 modules.">
<polygon fill="white" stroke="#666666" points="88,-74 35,-74 35,-55 88,-55 88,-74"/>
<text text-anchor="middle" x="61.5" y="-62" font-family="Helvetica,sans-Serif" font-size="10.00">SX1262</text>
</a>
</g>
</g>
<!-- Node1&#45;&gt;Node3 -->
<g id="edge2_Node000001_Node000003" class="edge">
<title>Node1&#45;&gt;Node3</title>
<g id="a_edge2_Node000001_Node000003"><a xlink:title=" ">
<path fill="none" stroke="#63b8ff" d="M85.2,-101.39C79.18,-92.27 72.03,-81.45 67.17,-74.09"/>
<polygon fill="#63b8ff" stroke="#63b8ff" points="82.29,-103.33 90.72,-109.75 88.13,-99.47 82.29,-103.33"/>
</a>
</g>
</g>
<!-- Node6 -->
<g id="Node000006" class="node">
<title>Node6</title>
<g id="a_Node000006"><a xlink:href="classSX1268.html" target="_top" xlink:title="Derived class for SX1268 modules.">
<polygon fill="white" stroke="#666666" points="159,-74 106,-74 106,-55 159,-55 159,-74"/>
<text text-anchor="middle" x="132.5" y="-62" font-family="Helvetica,sans-Serif" font-size="10.00">SX1268</text>
</a>
</g>
</g>
<!-- Node1&#45;&gt;Node6 -->
<g id="edge5_Node000001_Node000006" class="edge">
<title>Node1&#45;&gt;Node6</title>
<g id="a_edge5_Node000001_Node000006"><a xlink:title=" ">
<path fill="none" stroke="#63b8ff" d="M108.12,-101.39C114.32,-92.27 121.67,-81.45 126.67,-74.09"/>
<polygon fill="#63b8ff" stroke="#63b8ff" points="105.17,-99.51 102.44,-109.75 110.96,-103.44 105.17,-99.51"/>
</a>
</g>
</g>
<!-- Node2 -->
<g id="Node000002" class="node">
<title>Node2</title>
<g id="a_Node000002"><a xlink:href="classPhysicalLayer.html" target="_top" xlink:title="Provides common interface for protocols that run on LoRa/FSK modules, such as RTTY or LoRaWAN....">
<polygon fill="white" stroke="#666666" points="138.5,-184 54.5,-184 54.5,-165 138.5,-165 138.5,-184"/>
<text text-anchor="middle" x="96.5" y="-172" font-family="Helvetica,sans-Serif" font-size="10.00">PhysicalLayer</text>
</a>
</g>
</g>
<!-- Node2&#45;&gt;Node1 -->
<g id="edge1_Node000001_Node000002" class="edge">
<title>Node2&#45;&gt;Node1</title>
<g id="a_edge1_Node000001_Node000002"><a xlink:title=" ">
<path fill="none" stroke="#63b8ff" d="M96.5,-154.66C96.5,-145.93 96.5,-135.99 96.5,-129.09"/>
<polygon fill="#63b8ff" stroke="#63b8ff" points="93,-154.75 96.5,-164.75 100,-154.75 93,-154.75"/>
</a>
</g>
</g>
<!-- Node4 -->
<g id="Node000004" class="node">
<title>Node4</title>
<g id="a_Node000004"><a xlink:href="classLLCC68.html" target="_top" xlink:title="Derived class for LLCC68 modules.">
<polygon fill="white" stroke="#666666" points="53,-19 0,-19 0,0 53,0 53,-19"/>
<text text-anchor="middle" x="26.5" y="-7" font-family="Helvetica,sans-Serif" font-size="10.00">LLCC68</text>
</a>
</g>
</g>
<!-- Node3&#45;&gt;Node4 -->
<g id="edge3_Node000003_Node000004" class="edge">
<title>Node3&#45;&gt;Node4</title>
<g id="a_edge3_Node000003_Node000004"><a xlink:title=" ">
<path fill="none" stroke="#63b8ff" d="M50.2,-46.39C44.18,-37.27 37.03,-26.45 32.17,-19.09"/>
<polygon fill="#63b8ff" stroke="#63b8ff" points="47.29,-48.33 55.72,-54.75 53.13,-44.47 47.29,-48.33"/>
</a>
</g>
</g>
<!-- Node5 -->
<g id="Node000005" class="node">
<title>Node5</title>
<g id="a_Node000005"><a xlink:href="classSX1261.html" target="_top" xlink:title="Derived class for SX1261 modules.">
<polygon fill="white" stroke="#666666" points="124,-19 71,-19 71,0 124,0 124,-19"/>
<text text-anchor="middle" x="97.5" y="-7" font-family="Helvetica,sans-Serif" font-size="10.00">SX1261</text>
</a>
</g>
</g>
<!-- Node3&#45;&gt;Node5 -->
<g id="edge4_Node000003_Node000005" class="edge">
<title>Node3&#45;&gt;Node5</title>
<g id="a_edge4_Node000003_Node000005"><a xlink:title=" ">
<path fill="none" stroke="#63b8ff" d="M73.12,-46.39C79.32,-37.27 86.67,-26.45 91.67,-19.09"/>
<polygon fill="#63b8ff" stroke="#63b8ff" points="70.17,-44.51 67.44,-54.75 75.96,-48.44 70.17,-44.51"/>
</a>
</g>
</g>
</g>
</svg>
