<?xml version="1.0" encoding="UTF-8" standalone="no"?>
<!DOCTYPE svg PUBLIC "-//W3C//DTD SVG 1.1//EN"
 "http://www.w3.org/Graphics/SVG/1.1/DTD/svg11.dtd">
<!-- Generated by graphviz version 2.43.0 (0)
 -->
<!-- Title: detail::counting_buffer::grow Pages: 1 -->
<svg width="422pt" height="101pt"
 viewBox="0.00 0.00 422.00 101.00" xmlns="http://www.w3.org/2000/svg" xmlns:xlink="http://www.w3.org/1999/xlink">
<g id="graph0" class="graph" transform="scale(1 1) rotate(0) translate(4 97)">
<title>detail::counting_buffer::grow</title>
<!-- Node1 -->
<g id="Node000001" class="node">
<title>Node1</title>
<g id="a_Node000001"><a xlink:title=" ">
<polygon fill="#999999" stroke="#666666" points="414,-61.5 288,-61.5 288,-31.5 414,-31.5 414,-61.5"/>
<text text-anchor="start" x="296" y="-49.5" font-family="Helvetica,sans-Serif" font-size="10.00">detail::counting_buffer</text>
<text text-anchor="middle" x="351" y="-38.5" font-family="Helvetica,sans-Serif" font-size="10.00">::grow</text>
</a>
</g>
</g>
<!-- Node2 -->
<g id="Node000002" class="node">
<title>Node2</title>
<g id="a_Node000002"><a xlink:href="classdetail_1_1counting__buffer.html#adafc31050da4053e1593583cdcdd33f1" target="_top" xlink:title=" ">
<polygon fill="white" stroke="#666666" points="252,-61.5 126,-61.5 126,-31.5 252,-31.5 252,-61.5"/>
<text text-anchor="start" x="134" y="-49.5" font-family="Helvetica,sans-Serif" font-size="10.00">detail::counting_buffer</text>
<text text-anchor="middle" x="189" y="-38.5" font-family="Helvetica,sans-Serif" font-size="10.00">::counting_buffer</text>
</a>
</g>
</g>
<!-- Node1&#45;&gt;Node2 -->
<g id="edge1_Node000001_Node000002" class="edge">
<title>Node1&#45;&gt;Node2</title>
<g id="a_edge1_Node000001_Node000002"><a xlink:title=" ">
<path fill="none" stroke="#63b8ff" d="M277.45,-46.5C269,-46.5 260.44,-46.5 252.15,-46.5"/>
<polygon fill="#63b8ff" stroke="#63b8ff" points="277.68,-50 287.68,-46.5 277.68,-43 277.68,-50"/>
</a>
</g>
</g>
<!-- Node3 -->
<g id="Node000003" class="node">
<title>Node3</title>
<g id="a_Node000003"><a xlink:href="compile_8h.html#ab898fdcb82003fc6fbac14d5da66cbbb" target="_top" xlink:title=" ">
<polygon fill="white" stroke="#666666" points="90,-93 0,-93 0,-74 90,-74 90,-93"/>
<text text-anchor="middle" x="45" y="-81" font-family="Helvetica,sans-Serif" font-size="10.00">formatted_size</text>
</a>
</g>
</g>
<!-- Node2&#45;&gt;Node3 -->
<g id="edge2_Node000002_Node000003" class="edge">
<title>Node2&#45;&gt;Node3</title>
<g id="a_edge2_Node000002_Node000003"><a xlink:title=" ">
<path fill="none" stroke="#63b8ff" d="M120.33,-64.13C107.29,-67.53 94.1,-70.97 82.52,-73.98"/>
<polygon fill="#63b8ff" stroke="#63b8ff" points="121.45,-67.46 130.24,-61.55 119.68,-60.68 121.45,-67.46"/>
</a>
</g>
</g>
<!-- Node4 -->
<g id="Node000004" class="node">
<title>Node4</title>
<g id="a_Node000004"><a xlink:href="base_8h.html#a0f9a011c5e8bf359e75651cbdc411941" target="_top" xlink:title="Returns the number of chars in the output of format(fmt, args...).">
<polygon fill="white" stroke="#666666" points="90,-56 0,-56 0,-37 90,-37 90,-56"/>
<text text-anchor="middle" x="45" y="-44" font-family="Helvetica,sans-Serif" font-size="10.00">formatted_size</text>
</a>
</g>
</g>
<!-- Node2&#45;&gt;Node4 -->
<g id="edge3_Node000002_Node000004" class="edge">
<title>Node2&#45;&gt;Node4</title>
<g id="a_edge3_Node000002_Node000004"><a xlink:title=" ">
<path fill="none" stroke="#63b8ff" d="M115.61,-46.5C106.98,-46.5 98.38,-46.5 90.32,-46.5"/>
<polygon fill="#63b8ff" stroke="#63b8ff" points="115.72,-50 125.72,-46.5 115.72,-43 115.72,-50"/>
</a>
</g>
</g>
<!-- Node5 -->
<g id="Node000005" class="node">
<title>Node5</title>
<g id="a_Node000005"><a xlink:href="format_8h.html#ab1aace0cb1b8ea506c95aa46d713e881" target="_top" xlink:title=" ">
<polygon fill="white" stroke="#666666" points="90,-19 0,-19 0,0 90,0 90,-19"/>
<text text-anchor="middle" x="45" y="-7" font-family="Helvetica,sans-Serif" font-size="10.00">formatted_size</text>
</a>
</g>
</g>
<!-- Node2&#45;&gt;Node5 -->
<g id="edge4_Node000002_Node000005" class="edge">
<title>Node2&#45;&gt;Node5</title>
<g id="a_edge4_Node000002_Node000005"><a xlink:title=" ">
<path fill="none" stroke="#63b8ff" d="M120.33,-28.87C107.29,-25.47 94.1,-22.03 82.52,-19.02"/>
<polygon fill="#63b8ff" stroke="#63b8ff" points="119.68,-32.32 130.24,-31.45 121.45,-25.54 119.68,-32.32"/>
</a>
</g>
</g>
</g>
</svg>
