<?xml version="1.0" encoding="UTF-8" standalone="no"?>
<!DOCTYPE svg PUBLIC "-//W3C//DTD SVG 1.1//EN"
 "http://www.w3.org/Graphics/SVG/1.1/DTD/svg11.dtd">
<!-- Generated by graphviz version 2.43.0 (0)
 -->
<!-- Title: Magick::ColorRGB::blue Pages: 1 -->
<svg width="335pt" height="76pt"
 viewBox="0.00 0.00 335.00 75.50" xmlns="http://www.w3.org/2000/svg" xmlns:xlink="http://www.w3.org/1999/xlink">
<g id="graph0" class="graph" transform="scale(1 1) rotate(0) translate(4 71.5)">
<title>Magick::ColorRGB::blue</title>
<!-- Node1 -->
<g id="Node000001" class="node">
<title>Node1</title>
<g id="a_Node000001"><a xlink:title=" ">
<polygon fill="#999999" stroke="#666666" points="131,-45.5 0,-45.5 0,-26.5 131,-26.5 131,-45.5"/>
<text text-anchor="middle" x="65.5" y="-33.5" font-family="Helvetica,sans-Serif" font-size="10.00">Magick::ColorRGB::blue</text>
</a>
</g>
</g>
<!-- Node2 -->
<g id="Node000002" class="node">
<title>Node2</title>
<g id="a_Node000002"><a xlink:href="classMagick_1_1Color.html#a0e9252a6d89fb4fb65a1fd1ff7895b14" target="_top" xlink:title=" ">
<polygon fill="white" stroke="#666666" points="324.5,-67.5 169.5,-67.5 169.5,-48.5 324.5,-48.5 324.5,-67.5"/>
<text text-anchor="middle" x="247" y="-55.5" font-family="Helvetica,sans-Serif" font-size="10.00">Magick::Color::blueQuantum</text>
</a>
</g>
</g>
<!-- Node1&#45;&gt;Node2 -->
<g id="edge1_Node000001_Node000002" class="edge">
<title>Node1&#45;&gt;Node2</title>
<g id="a_edge1_Node000001_Node000002"><a xlink:title=" ">
<path fill="none" stroke="#63b8ff" d="M131.05,-43.91C140.3,-45.05 149.94,-46.23 159.53,-47.4"/>
<polygon fill="#63b8ff" stroke="#63b8ff" points="159.13,-50.88 169.48,-48.62 159.98,-43.93 159.13,-50.88"/>
</a>
</g>
</g>
<!-- Node3 -->
<g id="Node000003" class="node">
<title>Node3</title>
<g id="a_Node000003"><a xlink:href="classMagick_1_1Color.html#acfd4d5d398ad516438fa89a51570b0a4" target="_top" xlink:title=" ">
<polygon fill="white" stroke="#666666" points="327,-30 167,-30 167,0 327,0 327,-30"/>
<text text-anchor="start" x="175" y="-18" font-family="Helvetica,sans-Serif" font-size="10.00">Magick::Color::scaleQuantum</text>
<text text-anchor="middle" x="247" y="-7" font-family="Helvetica,sans-Serif" font-size="10.00">ToDouble</text>
</a>
</g>
</g>
<!-- Node1&#45;&gt;Node3 -->
<g id="edge2_Node000001_Node000003" class="edge">
<title>Node1&#45;&gt;Node3</title>
<g id="a_edge2_Node000001_Node000003"><a xlink:title=" ">
<path fill="none" stroke="#63b8ff" d="M131.05,-28.45C139.36,-27.48 147.98,-26.47 156.6,-25.46"/>
<polygon fill="#63b8ff" stroke="#63b8ff" points="157.17,-28.92 166.69,-24.28 156.35,-21.96 157.17,-28.92"/>
</a>
</g>
</g>
</g>
</svg>
