<?xml version="1.0" encoding="UTF-8" standalone="no"?>
<!DOCTYPE svg PUBLIC "-//W3C//DTD SVG 1.1//EN"
 "http://www.w3.org/Graphics/SVG/1.1/DTD/svg11.dtd">
<!-- Generated by graphviz version 2.43.0 (0)
 -->
<!-- Title: cxxopts::exceptions::exception Pages: 1 -->
<svg width="591pt" height="446pt"
 viewBox="0.00 0.00 591.00 445.50" xmlns="http://www.w3.org/2000/svg" xmlns:xlink="http://www.w3.org/1999/xlink">
<g id="graph0" class="graph" transform="scale(1 1) rotate(0) translate(4 441.5)">
<title>cxxopts::exceptions::exception</title>
<!-- Node1 -->
<g id="Node000001" class="node">
<title>Node1</title>
<g id="a_Node000001"><a xlink:title=" ">
<polygon fill="#999999" stroke="#666666" points="235,-258 122,-258 122,-228 235,-228 235,-258"/>
<text text-anchor="start" x="130" y="-246" font-family="Helvetica,sans-Serif" font-size="10.00">cxxopts::exceptions</text>
<text text-anchor="middle" x="178.5" y="-235" font-family="Helvetica,sans-Serif" font-size="10.00">::exception</text>
</a>
</g>
</g>
<!-- Node3 -->
<g id="Node000003" class="node">
<title>Node3</title>
<g id="a_Node000003"><a xlink:href="classcxxopts_1_1exceptions_1_1option__has__no__value.html" target="_top" xlink:title=" ">
<polygon fill="white" stroke="#666666" points="396,-306 271,-306 271,-276 396,-276 396,-306"/>
<text text-anchor="start" x="279" y="-294" font-family="Helvetica,sans-Serif" font-size="10.00">cxxopts::exceptions</text>
<text text-anchor="middle" x="333.5" y="-283" font-family="Helvetica,sans-Serif" font-size="10.00">::option_has_no_value</text>
</a>
</g>
</g>
<!-- Node1&#45;&gt;Node3 -->
<g id="edge2_Node000001_Node000003" class="edge">
<title>Node1&#45;&gt;Node3</title>
<g id="a_edge2_Node000001_Node000003"><a xlink:title=" ">
<path fill="none" stroke="#63b8ff" d="M237.09,-261.07C252.78,-265.99 269.6,-271.27 284.68,-276"/>
<polygon fill="#63b8ff" stroke="#63b8ff" points="238.08,-257.71 227.49,-258.06 235.98,-264.39 238.08,-257.71"/>
</a>
</g>
</g>
<!-- Node4 -->
<g id="Node000004" class="node">
<title>Node4</title>
<g id="a_Node000004"><a xlink:href="classcxxopts_1_1exceptions_1_1parsing.html" target="_top" xlink:title=" ">
<polygon fill="white" stroke="#666666" points="390,-258 277,-258 277,-228 390,-228 390,-258"/>
<text text-anchor="start" x="285" y="-246" font-family="Helvetica,sans-Serif" font-size="10.00">cxxopts::exceptions</text>
<text text-anchor="middle" x="333.5" y="-235" font-family="Helvetica,sans-Serif" font-size="10.00">::parsing</text>
</a>
</g>
</g>
<!-- Node1&#45;&gt;Node4 -->
<g id="edge3_Node000001_Node000004" class="edge">
<title>Node1&#45;&gt;Node4</title>
<g id="a_edge3_Node000001_Node000004"><a xlink:title=" ">
<path fill="none" stroke="#63b8ff" d="M245.18,-243C255.74,-243 266.58,-243 276.87,-243"/>
<polygon fill="#63b8ff" stroke="#63b8ff" points="245.17,-239.5 235.17,-243 245.17,-246.5 245.17,-239.5"/>
</a>
</g>
</g>
<!-- Node12 -->
<g id="Node000012" class="node">
<title>Node12</title>
<g id="a_Node000012"><a xlink:href="classcxxopts_1_1exceptions_1_1specification.html" target="_top" xlink:title=" ">
<polygon fill="white" stroke="#666666" points="390,-78 277,-78 277,-48 390,-48 390,-78"/>
<text text-anchor="start" x="285" y="-66" font-family="Helvetica,sans-Serif" font-size="10.00">cxxopts::exceptions</text>
<text text-anchor="middle" x="333.5" y="-55" font-family="Helvetica,sans-Serif" font-size="10.00">::specification</text>
</a>
</g>
</g>
<!-- Node1&#45;&gt;Node12 -->
<g id="edge11_Node000001_Node000012" class="edge">
<title>Node1&#45;&gt;Node12</title>
<g id="a_edge11_Node000001_Node000012"><a xlink:title=" ">
<path fill="none" stroke="#63b8ff" d="M198.93,-220.14C230.68,-182.79 292.81,-109.69 319.65,-78.12"/>
<polygon fill="#63b8ff" stroke="#63b8ff" points="196.09,-218.08 192.28,-227.96 201.42,-222.61 196.09,-218.08"/>
</a>
</g>
</g>
<!-- Node2 -->
<g id="Node000002" class="node">
<title>Node2</title>
<g id="a_Node000002"><a xlink:title=" ">
<polygon fill="white" stroke="#666666" points="86,-252.5 0,-252.5 0,-233.5 86,-233.5 86,-252.5"/>
<text text-anchor="middle" x="43" y="-240.5" font-family="Helvetica,sans-Serif" font-size="10.00">std::exception</text>
</a>
</g>
</g>
<!-- Node2&#45;&gt;Node1 -->
<g id="edge1_Node000001_Node000002" class="edge">
<title>Node2&#45;&gt;Node1</title>
<g id="a_edge1_Node000001_Node000002"><a xlink:title=" ">
<path fill="none" stroke="#63b8ff" d="M96.28,-243C104.67,-243 113.38,-243 121.85,-243"/>
<polygon fill="#63b8ff" stroke="#63b8ff" points="96.24,-239.5 86.24,-243 96.24,-246.5 96.24,-239.5"/>
</a>
</g>
</g>
<!-- Node5 -->
<g id="Node000005" class="node">
<title>Node5</title>
<g id="a_Node000005"><a xlink:href="classcxxopts_1_1exceptions_1_1gratuitous__argument__for__option.html" target="_top" xlink:title=" ">
<polygon fill="white" stroke="#666666" points="570,-437.5 445,-437.5 445,-396.5 570,-396.5 570,-437.5"/>
<text text-anchor="start" x="453" y="-425.5" font-family="Helvetica,sans-Serif" font-size="10.00">cxxopts::exceptions</text>
<text text-anchor="start" x="453" y="-414.5" font-family="Helvetica,sans-Serif" font-size="10.00">::gratuitous_argument</text>
<text text-anchor="middle" x="507.5" y="-403.5" font-family="Helvetica,sans-Serif" font-size="10.00">_for_option</text>
</a>
</g>
</g>
<!-- Node4&#45;&gt;Node5 -->
<g id="edge4_Node000004_Node000005" class="edge">
<title>Node4&#45;&gt;Node5</title>
<g id="a_edge4_Node000004_Node000005"><a xlink:title=" ">
<path fill="none" stroke="#63b8ff" d="M393.19,-264.2C394.16,-265.1 395.1,-266.03 396,-267 433.75,-307.93 394.47,-345.87 432,-387 435.76,-391.12 440.16,-394.68 444.92,-397.77"/>
<polygon fill="#63b8ff" stroke="#63b8ff" points="395.12,-261.28 385.03,-258.04 390.9,-266.86 395.12,-261.28"/>
</a>
</g>
</g>
<!-- Node6 -->
<g id="Node000006" class="node">
<title>Node6</title>
<g id="a_Node000006"><a xlink:href="classcxxopts_1_1exceptions_1_1incorrect__argument__type.html" target="_top" xlink:title=" ">
<polygon fill="white" stroke="#666666" points="580,-378 435,-378 435,-348 580,-348 580,-378"/>
<text text-anchor="start" x="443" y="-366" font-family="Helvetica,sans-Serif" font-size="10.00">cxxopts::exceptions</text>
<text text-anchor="middle" x="507.5" y="-355" font-family="Helvetica,sans-Serif" font-size="10.00">::incorrect_argument_type</text>
</a>
</g>
</g>
<!-- Node4&#45;&gt;Node6 -->
<g id="edge5_Node000004_Node000006" class="edge">
<title>Node4&#45;&gt;Node6</title>
<g id="a_edge5_Node000004_Node000006"><a xlink:title=" ">
<path fill="none" stroke="#63b8ff" d="M391.98,-263.66C393.38,-264.72 394.72,-265.83 396,-267 422.43,-291.11 404.85,-315.7 432,-339 436.02,-342.45 440.55,-345.41 445.33,-347.94"/>
<polygon fill="#63b8ff" stroke="#63b8ff" points="393.8,-260.66 383.51,-258.12 389.97,-266.52 393.8,-260.66"/>
</a>
</g>
</g>
<!-- Node7 -->
<g id="Node000007" class="node">
<title>Node7</title>
<g id="a_Node000007"><a xlink:href="classcxxopts_1_1exceptions_1_1invalid__option__syntax.html" target="_top" xlink:title=" ">
<polygon fill="white" stroke="#666666" points="572.5,-330 442.5,-330 442.5,-300 572.5,-300 572.5,-330"/>
<text text-anchor="start" x="450.5" y="-318" font-family="Helvetica,sans-Serif" font-size="10.00">cxxopts::exceptions</text>
<text text-anchor="middle" x="507.5" y="-307" font-family="Helvetica,sans-Serif" font-size="10.00">::invalid_option_syntax</text>
</a>
</g>
</g>
<!-- Node4&#45;&gt;Node7 -->
<g id="edge6_Node000004_Node000007" class="edge">
<title>Node4&#45;&gt;Node7</title>
<g id="a_edge6_Node000004_Node000007"><a xlink:title=" ">
<path fill="none" stroke="#63b8ff" d="M385.93,-262.1C389.37,-263.67 392.76,-265.31 396,-267 413.06,-275.88 414.68,-282.64 432,-291 438.73,-294.25 446.01,-297.21 453.29,-299.86"/>
<polygon fill="#63b8ff" stroke="#63b8ff" points="387.29,-258.87 376.72,-258.08 384.49,-265.29 387.29,-258.87"/>
</a>
</g>
</g>
<!-- Node8 -->
<g id="Node000008" class="node">
<title>Node8</title>
<g id="a_Node000008"><a xlink:href="classcxxopts_1_1exceptions_1_1missing__argument.html" target="_top" xlink:title=" ">
<polygon fill="white" stroke="#666666" points="564,-282 451,-282 451,-252 564,-252 564,-282"/>
<text text-anchor="start" x="459" y="-270" font-family="Helvetica,sans-Serif" font-size="10.00">cxxopts::exceptions</text>
<text text-anchor="middle" x="507.5" y="-259" font-family="Helvetica,sans-Serif" font-size="10.00">::missing_argument</text>
</a>
</g>
</g>
<!-- Node4&#45;&gt;Node8 -->
<g id="edge7_Node000004_Node000008" class="edge">
<title>Node4&#45;&gt;Node8</title>
<g id="a_edge7_Node000004_Node000008"><a xlink:title=" ">
<path fill="none" stroke="#63b8ff" d="M400.54,-252.22C417.18,-254.54 434.87,-257.01 450.94,-259.25"/>
<polygon fill="#63b8ff" stroke="#63b8ff" points="400.73,-248.71 390.34,-250.79 399.76,-255.64 400.73,-248.71"/>
</a>
</g>
</g>
<!-- Node9 -->
<g id="Node000009" class="node">
<title>Node9</title>
<g id="a_Node000009"><a xlink:href="classcxxopts_1_1exceptions_1_1no__such__option.html" target="_top" xlink:title=" ">
<polygon fill="white" stroke="#666666" points="564,-234 451,-234 451,-204 564,-204 564,-234"/>
<text text-anchor="start" x="459" y="-222" font-family="Helvetica,sans-Serif" font-size="10.00">cxxopts::exceptions</text>
<text text-anchor="middle" x="507.5" y="-211" font-family="Helvetica,sans-Serif" font-size="10.00">::no_such_option</text>
</a>
</g>
</g>
<!-- Node4&#45;&gt;Node9 -->
<g id="edge8_Node000004_Node000009" class="edge">
<title>Node4&#45;&gt;Node9</title>
<g id="a_edge8_Node000004_Node000009"><a xlink:title=" ">
<path fill="none" stroke="#63b8ff" d="M400.54,-233.78C417.18,-231.46 434.87,-228.99 450.94,-226.75"/>
<polygon fill="#63b8ff" stroke="#63b8ff" points="399.76,-230.36 390.34,-235.21 400.73,-237.29 399.76,-230.36"/>
</a>
</g>
</g>
<!-- Node10 -->
<g id="Node000010" class="node">
<title>Node10</title>
<g id="a_Node000010"><a xlink:href="classcxxopts_1_1exceptions_1_1option__requires__argument.html" target="_top" xlink:title=" ">
<polygon fill="white" stroke="#666666" points="583,-186 432,-186 432,-156 583,-156 583,-186"/>
<text text-anchor="start" x="440" y="-174" font-family="Helvetica,sans-Serif" font-size="10.00">cxxopts::exceptions</text>
<text text-anchor="middle" x="507.5" y="-163" font-family="Helvetica,sans-Serif" font-size="10.00">::option_requires_argument</text>
</a>
</g>
</g>
<!-- Node4&#45;&gt;Node10 -->
<g id="edge9_Node000004_Node000010" class="edge">
<title>Node4&#45;&gt;Node10</title>
<g id="a_edge9_Node000004_Node000010"><a xlink:title=" ">
<path fill="none" stroke="#63b8ff" d="M371.58,-223.16C389.54,-213.96 411.6,-203.26 432,-195 439.81,-191.84 448.21,-188.8 456.45,-186.01"/>
<polygon fill="#63b8ff" stroke="#63b8ff" points="369.86,-220.11 362.58,-227.81 373.07,-226.32 369.86,-220.11"/>
</a>
</g>
</g>
<!-- Node11 -->
<g id="Node000011" class="node">
<title>Node11</title>
<g id="a_Node000011"><a xlink:href="classcxxopts_1_1exceptions_1_1requested__option__not__present.html" target="_top" xlink:title=" ">
<polygon fill="white" stroke="#666666" points="571.5,-137.5 443.5,-137.5 443.5,-96.5 571.5,-96.5 571.5,-137.5"/>
<text text-anchor="start" x="451.5" y="-125.5" font-family="Helvetica,sans-Serif" font-size="10.00">cxxopts::exceptions</text>
<text text-anchor="start" x="451.5" y="-114.5" font-family="Helvetica,sans-Serif" font-size="10.00">::requested_option_not</text>
<text text-anchor="middle" x="507.5" y="-103.5" font-family="Helvetica,sans-Serif" font-size="10.00">_present</text>
</a>
</g>
</g>
<!-- Node4&#45;&gt;Node11 -->
<g id="edge10_Node000004_Node000011" class="edge">
<title>Node4&#45;&gt;Node11</title>
<g id="a_edge10_Node000004_Node000011"><a xlink:title=" ">
<path fill="none" stroke="#63b8ff" d="M353.23,-219.9C371.48,-198.62 400.96,-167.35 432,-147 437.25,-143.56 442.95,-140.4 448.79,-137.53"/>
<polygon fill="#63b8ff" stroke="#63b8ff" points="350.34,-217.9 346.58,-227.8 355.7,-222.41 350.34,-217.9"/>
</a>
</g>
</g>
<!-- Node13 -->
<g id="Node000013" class="node">
<title>Node13</title>
<g id="a_Node000013"><a xlink:href="classcxxopts_1_1exceptions_1_1invalid__option__format.html" target="_top" xlink:title=" ">
<polygon fill="white" stroke="#666666" points="572.5,-78 442.5,-78 442.5,-48 572.5,-48 572.5,-78"/>
<text text-anchor="start" x="450.5" y="-66" font-family="Helvetica,sans-Serif" font-size="10.00">cxxopts::exceptions</text>
<text text-anchor="middle" x="507.5" y="-55" font-family="Helvetica,sans-Serif" font-size="10.00">::invalid_option_format</text>
</a>
</g>
</g>
<!-- Node12&#45;&gt;Node13 -->
<g id="edge12_Node000012_Node000013" class="edge">
<title>Node12&#45;&gt;Node13</title>
<g id="a_edge12_Node000012_Node000013"><a xlink:title=" ">
<path fill="none" stroke="#63b8ff" d="M400.63,-63C414.3,-63 428.68,-63 442.27,-63"/>
<polygon fill="#63b8ff" stroke="#63b8ff" points="400.34,-59.5 390.34,-63 400.34,-66.5 400.34,-59.5"/>
</a>
</g>
</g>
<!-- Node14 -->
<g id="Node000014" class="node">
<title>Node14</title>
<g id="a_Node000014"><a xlink:href="classcxxopts_1_1exceptions_1_1option__already__exists.html" target="_top" xlink:title=" ">
<polygon fill="white" stroke="#666666" points="572.5,-30 442.5,-30 442.5,0 572.5,0 572.5,-30"/>
<text text-anchor="start" x="450.5" y="-18" font-family="Helvetica,sans-Serif" font-size="10.00">cxxopts::exceptions</text>
<text text-anchor="middle" x="507.5" y="-7" font-family="Helvetica,sans-Serif" font-size="10.00">::option_already_exists</text>
</a>
</g>
</g>
<!-- Node12&#45;&gt;Node14 -->
<g id="edge13_Node000012_Node000014" class="edge">
<title>Node12&#45;&gt;Node14</title>
<g id="a_edge13_Node000012_Node000014"><a xlink:title=" ">
<path fill="none" stroke="#63b8ff" d="M398.24,-45.21C416.16,-40.21 435.47,-34.82 452.74,-30"/>
<polygon fill="#63b8ff" stroke="#63b8ff" points="397.14,-41.88 388.45,-47.94 399.02,-48.63 397.14,-41.88"/>
</a>
</g>
</g>
</g>
</svg>
