<?xml version="1.0" encoding="UTF-8" standalone="no"?>
<!DOCTYPE svg PUBLIC "-//W3C//DTD SVG 1.1//EN"
 "http://www.w3.org/Graphics/SVG/1.1/DTD/svg11.dtd">
<!-- Generated by graphviz version 2.43.0 (0)
 -->
<!-- Title: detail::iterator_buffer&lt; T *, T, fixed_buffer_traits &gt; Pages: 1 -->
<svg width="291pt" height="182pt"
 viewBox="0.00 0.00 291.00 182.00" xmlns="http://www.w3.org/2000/svg" xmlns:xlink="http://www.w3.org/1999/xlink">
<g id="graph0" class="graph" transform="scale(1 1) rotate(0) translate(4 178)">
<title>detail::iterator_buffer&lt; T *, T, fixed_buffer_traits &gt;</title>
<!-- Node1 -->
<g id="Node000001" class="node">
<title>Node1</title>
<g id="a_Node000001"><a xlink:title=" ">
<polygon fill="#999999" stroke="#666666" points="150.5,-41 30.5,-41 30.5,0 150.5,0 150.5,-41"/>
<text text-anchor="start" x="38.5" y="-29" font-family="Helvetica,sans-Serif" font-size="10.00">detail::iterator_buffer</text>
<text text-anchor="start" x="38.5" y="-18" font-family="Helvetica,sans-Serif" font-size="10.00">&lt; T *, T, fixed_buffer</text>
<text text-anchor="middle" x="90.5" y="-7" font-family="Helvetica,sans-Serif" font-size="10.00">_traits &gt;</text>
</a>
</g>
</g>
<!-- Node2 -->
<g id="Node000002" class="node">
<title>Node2</title>
<g id="a_Node000002"><a xlink:href="classdetail_1_1fixed__buffer__traits.html" target="_top" xlink:title=" ">
<polygon fill="white" stroke="#666666" points="107,-108 0,-108 0,-78 107,-78 107,-108"/>
<text text-anchor="start" x="8" y="-96" font-family="Helvetica,sans-Serif" font-size="10.00">detail::fixed_buffer</text>
<text text-anchor="middle" x="53.5" y="-85" font-family="Helvetica,sans-Serif" font-size="10.00">_traits</text>
</a>
</g>
</g>
<!-- Node2&#45;&gt;Node1 -->
<g id="edge1_Node000001_Node000002" class="edge">
<title>Node2&#45;&gt;Node1</title>
<g id="a_edge1_Node000001_Node000002"><a xlink:title=" ">
<path fill="none" stroke="#63b8ff" d="M65.77,-68.63C70.45,-59.7 75.74,-49.63 80.22,-41.09"/>
<polygon fill="#63b8ff" stroke="#63b8ff" points="62.54,-67.25 60.99,-77.73 68.73,-70.51 62.54,-67.25"/>
</a>
</g>
</g>
<!-- Node3 -->
<g id="Node000003" class="node">
<title>Node3</title>
<g id="a_Node000003"><a xlink:href="classdetail_1_1buffer.html" target="_top" xlink:title=" ">
<polygon fill="white" stroke="#666666" points="232,-102.5 125,-102.5 125,-83.5 232,-83.5 232,-102.5"/>
<text text-anchor="middle" x="178.5" y="-90.5" font-family="Helvetica,sans-Serif" font-size="10.00">detail::buffer&lt; T &gt;</text>
</a>
</g>
</g>
<!-- Node3&#45;&gt;Node1 -->
<g id="edge2_Node000001_Node000003" class="edge">
<title>Node3&#45;&gt;Node1</title>
<g id="a_edge2_Node000001_Node000003"><a xlink:title=" ">
<path fill="none" stroke="#63b8ff" d="M159.87,-77.07C146.81,-66.61 129.24,-52.53 115.04,-41.16"/>
<polygon fill="#63b8ff" stroke="#63b8ff" points="157.72,-79.83 167.71,-83.36 162.09,-74.37 157.72,-79.83"/>
</a>
</g>
</g>
<!-- Node4 -->
<g id="Node000004" class="node">
<title>Node4</title>
<g id="a_Node000004"><a xlink:href="classdetail_1_1buffer.html" target="_top" xlink:title=" ">
<polygon fill="white" stroke="#666666" points="232,-174 125,-174 125,-155 232,-155 232,-174"/>
<text text-anchor="middle" x="178.5" y="-162" font-family="Helvetica,sans-Serif" font-size="10.00">detail::buffer&lt; T &gt;</text>
</a>
</g>
</g>
<!-- Node4&#45;&gt;Node3 -->
<g id="edge3_Node000003_Node000004" class="edge">
<title>Node4&#45;&gt;Node3</title>
<g id="a_edge3_Node000003_Node000004"><a xlink:title=" ">
<path fill="none" stroke="#9a32cd" stroke-dasharray="5,2" d="M178.5,-144.71C178.5,-131 178.5,-113.05 178.5,-102.59"/>
<polygon fill="#9a32cd" stroke="#9a32cd" points="175,-144.98 178.5,-154.98 182,-144.98 175,-144.98"/>
</a>
</g>
<text text-anchor="middle" x="195" y="-129" font-family="Helvetica,sans-Serif" font-size="10.00" fill="grey"> grow_</text>
</g>
<!-- Node4&#45;&gt;Node4 -->
<g id="edge4_Node000004_Node000004" class="edge">
<title>Node4&#45;&gt;Node4</title>
<g id="a_edge4_Node000004_Node000004"><a xlink:title=" ">
<path fill="none" stroke="#9a32cd" stroke-dasharray="5,2" d="M242.38,-168.96C247.1,-167.96 250,-166.47 250,-164.5 250,-161.34 242.58,-159.43 232.13,-158.77"/>
<polygon fill="#9a32cd" stroke="#9a32cd" points="241.62,-165.53 232.13,-170.23 242.49,-172.47 241.62,-165.53"/>
</a>
</g>
<text text-anchor="middle" x="266.5" y="-162" font-family="Helvetica,sans-Serif" font-size="10.00" fill="grey"> grow_</text>
</g>
</g>
</svg>
