<?xml version="1.0" encoding="UTF-8" standalone="no"?>
<!DOCTYPE svg PUBLIC "-//W3C//DTD SVG 1.1//EN"
 "http://www.w3.org/Graphics/SVG/1.1/DTD/svg11.dtd">
<!-- Generated by graphviz version 2.43.0 (0)
 -->
<!-- Title: ExternalRadio Pages: 1 -->
<svg width="271pt" height="159pt"
 viewBox="0.00 0.00 270.50 159.00" xmlns="http://www.w3.org/2000/svg" xmlns:xlink="http://www.w3.org/1999/xlink">
<g id="graph0" class="graph" transform="scale(1 1) rotate(0) translate(4 155)">
<title>ExternalRadio</title>
<!-- Node1 -->
<g id="Node000001" class="node">
<title>Node1</title>
<g id="a_Node000001"><a xlink:title="Class to interface with external radio hardware.">
<polygon fill="#999999" stroke="#666666" points="100.5,-19 15.5,-19 15.5,0 100.5,0 100.5,-19"/>
<text text-anchor="middle" x="58" y="-7" font-family="Helvetica,sans-Serif" font-size="10.00">ExternalRadio</text>
</a>
</g>
</g>
<!-- Node2 -->
<g id="Node000002" class="node">
<title>Node2</title>
<g id="a_Node000002"><a xlink:href="classPhysicalLayer.html" target="_top" xlink:title="Provides common interface for protocols that run on LoRa/FSK modules, such as RTTY or LoRaWAN....">
<polygon fill="white" stroke="#666666" points="84,-85 0,-85 0,-66 84,-66 84,-85"/>
<text text-anchor="middle" x="42" y="-73" font-family="Helvetica,sans-Serif" font-size="10.00">PhysicalLayer</text>
</a>
</g>
</g>
<!-- Node2&#45;&gt;Node1 -->
<g id="edge1_Node000001_Node000002" class="edge">
<title>Node2&#45;&gt;Node1</title>
<g id="a_edge1_Node000001_Node000002"><a xlink:title=" ">
<path fill="none" stroke="#63b8ff" d="M46.64,-55.95C49.64,-43.93 53.42,-28.82 55.77,-19.41"/>
<polygon fill="#63b8ff" stroke="#63b8ff" points="43.19,-55.32 44.16,-65.87 49.98,-57.02 43.19,-55.32"/>
</a>
</g>
</g>
<!-- Node3 -->
<g id="Node000003" class="node">
<title>Node3</title>
<g id="a_Node000003"><a xlink:href="classModule.html" target="_top" xlink:title="Implements all common low&#45;level methods to control the wireless module. Every module class contains o...">
<polygon fill="white" stroke="#666666" points="154.5,-85 101.5,-85 101.5,-66 154.5,-66 154.5,-85"/>
<text text-anchor="middle" x="128" y="-73" font-family="Helvetica,sans-Serif" font-size="10.00">Module</text>
</a>
</g>
</g>
<!-- Node3&#45;&gt;Node1 -->
<g id="edge2_Node000001_Node000003" class="edge">
<title>Node3&#45;&gt;Node1</title>
<g id="a_edge2_Node000001_Node000003"><a xlink:title=" ">
<path fill="none" stroke="#9a32cd" stroke-dasharray="5,2" d="M96.96,-61.16C90.55,-57.5 84.18,-53.11 79,-48 70.6,-39.73 64.57,-27.38 61.18,-19.14"/>
<polygon fill="#9a32cd" stroke="#9a32cd" points="95.77,-64.48 106.25,-66 99,-58.27 95.77,-64.48"/>
</a>
</g>
<text text-anchor="middle" x="91.5" y="-40" font-family="Helvetica,sans-Serif" font-size="10.00" fill="grey"> mod</text>
</g>
<!-- Node5 -->
<g id="Node000005" class="node">
<title>Node5</title>
<g id="a_Node000005"><a xlink:href="structModule_1_1SPIConfig__t.html" target="_top" xlink:title="SPI configuration structure.">
<polygon fill="white" stroke="#666666" points="262.5,-19 149.5,-19 149.5,0 262.5,0 262.5,-19"/>
<text text-anchor="middle" x="206" y="-7" font-family="Helvetica,sans-Serif" font-size="10.00">Module::SPIConfig_t</text>
</a>
</g>
</g>
<!-- Node3&#45;&gt;Node5 -->
<g id="edge5_Node000005_Node000003" class="edge">
<title>Node3&#45;&gt;Node5</title>
<g id="a_edge5_Node000005_Node000003"><a xlink:title=" ">
<path fill="none" stroke="#9a32cd" stroke-dasharray="5,2" d="M120.53,-56.31C119.04,-49.7 118.98,-42.5 123,-37 129.51,-28.08 139.06,-22.1 149.38,-18.1"/>
<polygon fill="#9a32cd" stroke="#9a32cd" points="117.23,-57.49 123.67,-65.91 123.89,-55.31 117.23,-57.49"/>
</a>
</g>
<text text-anchor="middle" x="161" y="-40" font-family="Helvetica,sans-Serif" font-size="10.00" fill="grey"> checkStatusCb</text>
</g>
<!-- Node4 -->
<g id="Node000004" class="node">
<title>Node4</title>
<g id="a_Node000004"><a xlink:href="classRadioLibHal.html" target="_top" xlink:title="Hardware abstraction library base interface.">
<polygon fill="white" stroke="#666666" points="103.5,-151 28.5,-151 28.5,-132 103.5,-132 103.5,-151"/>
<text text-anchor="middle" x="66" y="-139" font-family="Helvetica,sans-Serif" font-size="10.00">RadioLibHal</text>
</a>
</g>
</g>
<!-- Node4&#45;&gt;Node3 -->
<g id="edge3_Node000003_Node000004" class="edge">
<title>Node4&#45;&gt;Node3</title>
<g id="a_edge3_Node000003_Node000004"><a xlink:title=" ">
<path fill="none" stroke="#9a32cd" stroke-dasharray="5,2" d="M81.52,-124.48C93.49,-112.12 109.6,-95.49 119.37,-85.41"/>
<polygon fill="#9a32cd" stroke="#9a32cd" points="78.81,-122.25 74.36,-131.87 83.83,-127.12 78.81,-122.25"/>
</a>
</g>
<text text-anchor="middle" x="110.5" y="-106" font-family="Helvetica,sans-Serif" font-size="10.00" fill="grey"> hal</text>
</g>
<!-- Node5&#45;&gt;Node3 -->
<g id="edge4_Node000003_Node000005" class="edge">
<title>Node5&#45;&gt;Node3</title>
<g id="a_edge4_Node000003_Node000005"><a xlink:title=" ">
<path fill="none" stroke="#9a32cd" stroke-dasharray="5,2" d="M208.46,-29.3C208.34,-35.8 207.03,-42.76 203,-48 191.64,-62.78 171.4,-69.34 154.81,-72.24"/>
<polygon fill="#9a32cd" stroke="#9a32cd" points="211.94,-28.93 207.78,-19.18 204.95,-29.39 211.94,-28.93"/>
</a>
</g>
<text text-anchor="middle" x="231.5" y="-40" font-family="Helvetica,sans-Serif" font-size="10.00" fill="grey"> spiConfig</text>
</g>
<!-- Node6 -->
<g id="Node000006" class="node">
<title>Node6</title>
<g id="a_Node000006"><a xlink:href="structModule_1_1RfSwitchMode__t.html" target="_top" xlink:title="Description of RF switch pin states for a single mode. See setRfSwitchTable for details.">
<polygon fill="white" stroke="#666666" points="258.5,-151 121.5,-151 121.5,-132 258.5,-132 258.5,-151"/>
<text text-anchor="middle" x="190" y="-139" font-family="Helvetica,sans-Serif" font-size="10.00">Module::RfSwitchMode_t</text>
</a>
</g>
</g>
<!-- Node6&#45;&gt;Node3 -->
<g id="edge6_Node000003_Node000006" class="edge">
<title>Node6&#45;&gt;Node3</title>
<g id="a_edge6_Node000003_Node000006"><a xlink:title=" ">
<path fill="none" stroke="#9a32cd" stroke-dasharray="5,2" d="M174.48,-124.48C162.51,-112.12 146.4,-95.49 136.63,-85.41"/>
<polygon fill="#9a32cd" stroke="#9a32cd" points="172.17,-127.12 181.64,-131.87 177.19,-122.25 172.17,-127.12"/>
</a>
</g>
<text text-anchor="middle" x="196.5" y="-106" font-family="Helvetica,sans-Serif" font-size="10.00" fill="grey"> rfSwitchTable</text>
</g>
</g>
</svg>
