<?xml version="1.0" encoding="UTF-8" standalone="no"?>
<!DOCTYPE svg PUBLIC "-//W3C//DTD SVG 1.1//EN"
 "http://www.w3.org/Graphics/SVG/1.1/DTD/svg11.dtd">
<!-- Generated by graphviz version 2.43.0 (0)
 -->
<!-- Title: Magick::TypeMetric Pages: 1 -->
<svg width="180pt" height="159pt"
 viewBox="0.00 0.00 179.50 159.00" xmlns="http://www.w3.org/2000/svg" xmlns:xlink="http://www.w3.org/1999/xlink">
<g id="graph0" class="graph" transform="scale(1 1) rotate(0) translate(4 155)">
<title>Magick::TypeMetric</title>
<!-- Node1 -->
<g id="Node000001" class="node">
<title>Node1</title>
<g id="a_Node000001"><a xlink:title=" ">
<polygon fill="#999999" stroke="#666666" points="136,-19 25,-19 25,0 136,0 136,-19"/>
<text text-anchor="middle" x="80.5" y="-7" font-family="Helvetica,sans-Serif" font-size="10.00">Magick::TypeMetric</text>
</a>
</g>
</g>
<!-- Node2 -->
<g id="Node000002" class="node">
<title>Node2</title>
<g id="a_Node000002"><a xlink:href="struct__TypeMetric.html" target="_top" xlink:title=" ">
<polygon fill="white" stroke="#666666" points="118,-85 43,-85 43,-66 118,-66 118,-85"/>
<text text-anchor="middle" x="80.5" y="-73" font-family="Helvetica,sans-Serif" font-size="10.00">_TypeMetric</text>
</a>
</g>
</g>
<!-- Node2&#45;&gt;Node1 -->
<g id="edge1_Node000001_Node000002" class="edge">
<title>Node2&#45;&gt;Node1</title>
<g id="a_edge1_Node000001_Node000002"><a xlink:title=" ">
<path fill="none" stroke="#9a32cd" stroke-dasharray="5,2" d="M80.5,-55.58C80.5,-43.63 80.5,-28.72 80.5,-19.41"/>
<polygon fill="#9a32cd" stroke="#9a32cd" points="77,-55.87 80.5,-65.87 84,-55.87 77,-55.87"/>
</a>
</g>
<text text-anchor="middle" x="111" y="-40" font-family="Helvetica,sans-Serif" font-size="10.00" fill="grey"> _typeMetric</text>
</g>
<!-- Node3 -->
<g id="Node000003" class="node">
<title>Node3</title>
<g id="a_Node000003"><a xlink:href="struct__PointInfo.html" target="_top" xlink:title=" ">
<polygon fill="white" stroke="#666666" points="65,-151 0,-151 0,-132 65,-132 65,-151"/>
<text text-anchor="middle" x="32.5" y="-139" font-family="Helvetica,sans-Serif" font-size="10.00">_PointInfo</text>
</a>
</g>
</g>
<!-- Node3&#45;&gt;Node2 -->
<g id="edge2_Node000002_Node000003" class="edge">
<title>Node3&#45;&gt;Node2</title>
<g id="a_edge2_Node000002_Node000003"><a xlink:title=" ">
<path fill="none" stroke="#9a32cd" stroke-dasharray="5,2" d="M29.41,-121.43C29.3,-115.18 30.22,-108.44 33.5,-103 38.33,-94.98 46.56,-89.18 54.8,-85.09"/>
<polygon fill="#9a32cd" stroke="#9a32cd" points="25.97,-122.18 30.44,-131.79 32.93,-121.49 25.97,-122.18"/>
</a>
</g>
<text text-anchor="middle" x="70.5" y="-106" font-family="Helvetica,sans-Serif" font-size="10.00" fill="grey"> pixels_per_em</text>
</g>
<!-- Node4 -->
<g id="Node000004" class="node">
<title>Node4</title>
<g id="a_Node000004"><a xlink:href="struct__SegmentInfo.html" target="_top" xlink:title=" ">
<polygon fill="white" stroke="#666666" points="171.5,-151 87.5,-151 87.5,-132 171.5,-132 171.5,-151"/>
<text text-anchor="middle" x="129.5" y="-139" font-family="Helvetica,sans-Serif" font-size="10.00">_SegmentInfo</text>
</a>
</g>
</g>
<!-- Node4&#45;&gt;Node2 -->
<g id="edge3_Node000002_Node000004" class="edge">
<title>Node4&#45;&gt;Node2</title>
<g id="a_edge3_Node000002_Node000004"><a xlink:title=" ">
<path fill="none" stroke="#9a32cd" stroke-dasharray="5,2" d="M120.24,-122.53C116.61,-116.12 112.19,-109.01 107.5,-103 102.41,-96.48 95.79,-89.95 90.38,-85.01"/>
<polygon fill="#9a32cd" stroke="#9a32cd" points="117.38,-124.61 125.21,-131.75 123.54,-121.29 117.38,-124.61"/>
</a>
</g>
<text text-anchor="middle" x="134" y="-106" font-family="Helvetica,sans-Serif" font-size="10.00" fill="grey"> bounds</text>
</g>
</g>
</svg>
