<?xml version="1.0" encoding="UTF-8" standalone="no"?>
<!DOCTYPE svg PUBLIC "-//W3C//DTD SVG 1.1//EN"
 "http://www.w3.org/Graphics/SVG/1.1/DTD/svg11.dtd">
<!-- Generated by graphviz version 2.43.0 (0)
 -->
<!-- Title: basic_specs::dynamic_width Pages: 1 -->
<svg width="301pt" height="290pt"
 viewBox="0.00 0.00 301.00 289.50" xmlns="http://www.w3.org/2000/svg" xmlns:xlink="http://www.w3.org/1999/xlink">
<g id="graph0" class="graph" transform="scale(1 1) rotate(0) translate(4 285.5)">
<title>basic_specs::dynamic_width</title>
<!-- Node1 -->
<g id="Node000001" class="node">
<title>Node1</title>
<g id="a_Node000001"><a xlink:title=" ">
<polygon fill="#999999" stroke="#666666" points="293,-161.5 170,-161.5 170,-131.5 293,-131.5 293,-161.5"/>
<text text-anchor="start" x="178" y="-149.5" font-family="Helvetica,sans-Serif" font-size="10.00">basic_specs::dynamic</text>
<text text-anchor="middle" x="231.5" y="-138.5" font-family="Helvetica,sans-Serif" font-size="10.00">_width</text>
</a>
</g>
</g>
<!-- Node2 -->
<g id="Node000002" class="node">
<title>Node2</title>
<g id="a_Node000002"><a xlink:href="structformatter_3_01std_1_1tm_00_01Char_01_4.html#a9b5eac325370d60c8293386b1331ca69" target="_top" xlink:title=" ">
<polygon fill="white" stroke="#666666" points="123,-281.5 11,-281.5 11,-251.5 123,-251.5 123,-281.5"/>
<text text-anchor="start" x="19" y="-269.5" font-family="Helvetica,sans-Serif" font-size="10.00">formatter&lt; std::tm,</text>
<text text-anchor="middle" x="67" y="-258.5" font-family="Helvetica,sans-Serif" font-size="10.00"> Char &gt;::do_format</text>
</a>
</g>
</g>
<!-- Node1&#45;&gt;Node2 -->
<g id="edge1_Node000001_Node000002" class="edge">
<title>Node1&#45;&gt;Node2</title>
<g id="a_edge1_Node000001_Node000002"><a xlink:title=" ">
<path fill="none" stroke="#63b8ff" d="M212.47,-169.49C194.57,-190.95 165.35,-222.59 134,-242.5 128.75,-245.83 122.97,-248.79 117.09,-251.39"/>
<polygon fill="#63b8ff" stroke="#63b8ff" points="215.35,-171.48 218.97,-161.53 209.93,-167.05 215.35,-171.48"/>
</a>
</g>
</g>
<!-- Node3 -->
<g id="Node000003" class="node">
<title>Node3</title>
<g id="a_Node000003"><a xlink:href="structformatter_3_01bytes_01_4.html#a241e55955c26ece96e7df9029b3cf5a4" target="_top" xlink:title=" ">
<polygon fill="white" stroke="#666666" points="123.5,-233.5 10.5,-233.5 10.5,-203.5 123.5,-203.5 123.5,-233.5"/>
<text text-anchor="start" x="18.5" y="-221.5" font-family="Helvetica,sans-Serif" font-size="10.00">formatter&lt; bytes &gt;</text>
<text text-anchor="middle" x="67" y="-210.5" font-family="Helvetica,sans-Serif" font-size="10.00">::format</text>
</a>
</g>
</g>
<!-- Node1&#45;&gt;Node3 -->
<g id="edge2_Node000001_Node000003" class="edge">
<title>Node1&#45;&gt;Node3</title>
<g id="a_edge2_Node000001_Node000003"><a xlink:title=" ">
<path fill="none" stroke="#63b8ff" d="M193.3,-166.23C175.56,-175.32 153.92,-185.96 134,-194.5 126.83,-197.58 119.12,-200.61 111.59,-203.44"/>
<polygon fill="#63b8ff" stroke="#63b8ff" points="194.91,-169.34 202.18,-161.64 191.69,-163.12 194.91,-169.34"/>
</a>
</g>
</g>
<!-- Node4 -->
<g id="Node000004" class="node">
<title>Node4</title>
<g id="a_Node000004"><a xlink:href="structformatter_3_01std_1_1error__code_01_4.html#a470063b0427cac0f4618f8efe71656ac" target="_top" xlink:title=" ">
<polygon fill="white" stroke="#666666" points="126.5,-185.5 7.5,-185.5 7.5,-155.5 126.5,-155.5 126.5,-185.5"/>
<text text-anchor="start" x="15.5" y="-173.5" font-family="Helvetica,sans-Serif" font-size="10.00">formatter&lt; std::error</text>
<text text-anchor="middle" x="67" y="-162.5" font-family="Helvetica,sans-Serif" font-size="10.00">_code &gt;::format</text>
</a>
</g>
</g>
<!-- Node1&#45;&gt;Node4 -->
<g id="edge3_Node000001_Node000004" class="edge">
<title>Node1&#45;&gt;Node4</title>
<g id="a_edge3_Node000001_Node000004"><a xlink:title=" ">
<path fill="none" stroke="#63b8ff" d="M159.91,-156.93C148.81,-158.56 137.45,-160.24 126.67,-161.83"/>
<polygon fill="#63b8ff" stroke="#63b8ff" points="160.61,-160.36 169.99,-155.44 159.59,-153.44 160.61,-160.36"/>
</a>
</g>
</g>
<!-- Node5 -->
<g id="Node000005" class="node">
<title>Node5</title>
<g id="a_Node000005"><a xlink:href="structdetail_1_1native__formatter.html#af6f15bad58e42d84e9e3a55324b30492" target="_top" xlink:title=" ">
<polygon fill="white" stroke="#666666" points="133.5,-137.5 0.5,-137.5 0.5,-107.5 133.5,-107.5 133.5,-137.5"/>
<text text-anchor="start" x="8.5" y="-125.5" font-family="Helvetica,sans-Serif" font-size="10.00">detail::native_formatter</text>
<text text-anchor="middle" x="67" y="-114.5" font-family="Helvetica,sans-Serif" font-size="10.00">::format</text>
</a>
</g>
</g>
<!-- Node1&#45;&gt;Node5 -->
<g id="edge4_Node000001_Node000005" class="edge">
<title>Node1&#45;&gt;Node5</title>
<g id="a_edge4_Node000001_Node000005"><a xlink:title=" ">
<path fill="none" stroke="#63b8ff" d="M159.89,-136.07C151.2,-134.79 142.35,-133.48 133.74,-132.21"/>
<polygon fill="#63b8ff" stroke="#63b8ff" points="159.59,-139.56 169.99,-137.56 160.61,-132.64 159.59,-139.56"/>
</a>
</g>
</g>
<!-- Node6 -->
<g id="Node000006" class="node">
<title>Node6</title>
<g id="a_Node000006"><a xlink:href="structformatter_3_01group__digits__view_3_01T_01_4_01_4.html#ad4a94105ce2e3ca473930da056b3edbb" target="_top" xlink:title=" ">
<polygon fill="white" stroke="#666666" points="134,-89.5 0,-89.5 0,-59.5 134,-59.5 134,-89.5"/>
<text text-anchor="start" x="8" y="-77.5" font-family="Helvetica,sans-Serif" font-size="10.00">formatter&lt; group_digits</text>
<text text-anchor="middle" x="67" y="-66.5" font-family="Helvetica,sans-Serif" font-size="10.00">_view&lt; T &gt; &gt;::format</text>
</a>
</g>
</g>
<!-- Node1&#45;&gt;Node6 -->
<g id="edge5_Node000001_Node000006" class="edge">
<title>Node1&#45;&gt;Node6</title>
<g id="a_edge5_Node000001_Node000006"><a xlink:title=" ">
<path fill="none" stroke="#63b8ff" d="M193.3,-126.77C175.56,-117.68 153.92,-107.04 134,-98.5 126.83,-95.42 119.12,-92.39 111.59,-89.56"/>
<polygon fill="#63b8ff" stroke="#63b8ff" points="191.69,-129.88 202.18,-131.36 194.91,-123.66 191.69,-129.88"/>
</a>
</g>
</g>
<!-- Node7 -->
<g id="Node000007" class="node">
<title>Node7</title>
<g id="a_Node000007"><a xlink:href="structformatter_3_01std_1_1chrono_1_1duration_3_01Rep_00_01Period_01_4_00_01Char_01_4.html#a4a5f18da796aba79bd0604170d0d3b4e" target="_top" xlink:title=" ">
<polygon fill="white" stroke="#666666" points="132,-41 2,-41 2,0 132,0 132,-41"/>
<text text-anchor="start" x="10" y="-29" font-family="Helvetica,sans-Serif" font-size="10.00">formatter&lt; std::chrono</text>
<text text-anchor="start" x="10" y="-18" font-family="Helvetica,sans-Serif" font-size="10.00">::duration&lt; Rep, Period</text>
<text text-anchor="middle" x="67" y="-7" font-family="Helvetica,sans-Serif" font-size="10.00"> &gt;, Char &gt;::format</text>
</a>
</g>
</g>
<!-- Node1&#45;&gt;Node7 -->
<g id="edge6_Node000001_Node000007" class="edge">
<title>Node1&#45;&gt;Node7</title>
<g id="a_edge6_Node000001_Node000007"><a xlink:title=" ">
<path fill="none" stroke="#63b8ff" d="M211.49,-123.34C193.29,-102.27 164.21,-71.38 134,-50.5 129.13,-47.14 123.83,-44 118.41,-41.11"/>
<polygon fill="#63b8ff" stroke="#63b8ff" points="209,-125.81 218.14,-131.16 214.33,-121.28 209,-125.81"/>
</a>
</g>
</g>
</g>
</svg>
