<?xml version="1.0" encoding="UTF-8" standalone="no"?>
<!DOCTYPE svg PUBLIC "-//W3C//DTD SVG 1.1//EN"
 "http://www.w3.org/Graphics/SVG/1.1/DTD/svg11.dtd">
<!-- Generated by graphviz version 2.43.0 (0)
 -->
<!-- Title: parse_context::next_arg_id Pages: 1 -->
<svg width="294pt" height="76pt"
 viewBox="0.00 0.00 294.00 75.50" xmlns="http://www.w3.org/2000/svg" xmlns:xlink="http://www.w3.org/1999/xlink">
<g id="graph0" class="graph" transform="scale(1 1) rotate(0) translate(4 71.5)">
<title>parse_context::next_arg_id</title>
<!-- Node1 -->
<g id="Node000001" class="node">
<title>Node1</title>
<g id="a_Node000001"><a xlink:title=" ">
<polygon fill="#999999" stroke="#666666" points="113,-45.5 0,-45.5 0,-15.5 113,-15.5 113,-45.5"/>
<text text-anchor="start" x="8" y="-33.5" font-family="Helvetica,sans-Serif" font-size="10.00">parse_context::next</text>
<text text-anchor="middle" x="56.5" y="-22.5" font-family="Helvetica,sans-Serif" font-size="10.00">_arg_id</text>
</a>
</g>
</g>
<!-- Node2 -->
<g id="Node000002" class="node">
<title>Node2</title>
<g id="a_Node000002"><a xlink:href="classparse__context.html#a5298c126aff0752158bc2e332e4de156" target="_top" xlink:title=" ">
<polygon fill="white" stroke="#666666" points="286,-67.5 149,-67.5 149,-37.5 286,-37.5 286,-67.5"/>
<text text-anchor="start" x="157" y="-55.5" font-family="Helvetica,sans-Serif" font-size="10.00">parse_context::do_check</text>
<text text-anchor="middle" x="217.5" y="-44.5" font-family="Helvetica,sans-Serif" font-size="10.00">_arg_id</text>
</a>
</g>
</g>
<!-- Node1&#45;&gt;Node2 -->
<g id="edge1_Node000001_Node000002" class="edge">
<title>Node1&#45;&gt;Node2</title>
<g id="a_edge1_Node000001_Node000002"><a xlink:title=" ">
<path fill="none" stroke="#63b8ff" d="M113.11,-38.19C121.41,-39.34 130.1,-40.55 138.76,-41.74"/>
<polygon fill="#63b8ff" stroke="#63b8ff" points="138.5,-45.24 148.89,-43.14 139.46,-38.31 138.5,-45.24"/>
</a>
</g>
</g>
<!-- Node3 -->
<g id="Node000003" class="node">
<title>Node3</title>
<g id="a_Node000003"><a xlink:href="format-inl_8h.html#a5555893692b00b61b3886349332fd01f" target="_top" xlink:title=" ">
<polygon fill="white" stroke="#666666" points="254.5,-19 180.5,-19 180.5,0 254.5,0 254.5,-19"/>
<text text-anchor="middle" x="217.5" y="-7" font-family="Helvetica,sans-Serif" font-size="10.00">report_error</text>
</a>
</g>
</g>
<!-- Node1&#45;&gt;Node3 -->
<g id="edge2_Node000001_Node000003" class="edge">
<title>Node1&#45;&gt;Node3</title>
<g id="a_edge2_Node000001_Node000003"><a xlink:title=" ">
<path fill="none" stroke="#63b8ff" d="M113.11,-23.16C131.68,-20.7 152.16,-18 169.96,-15.65"/>
<polygon fill="#63b8ff" stroke="#63b8ff" points="170.64,-19.09 180.1,-14.31 169.72,-12.15 170.64,-19.09"/>
</a>
</g>
</g>
</g>
</svg>
