<?xml version="1.0" encoding="UTF-8" standalone="no"?>
<!DOCTYPE svg PUBLIC "-//W3C//DTD SVG 1.1//EN"
 "http://www.w3.org/Graphics/SVG/1.1/DTD/svg11.dtd">
<!-- Generated by graphviz version 2.43.0 (0)
 -->
<!-- Title: detail::tm_writer::on_iso_date Pages: 1 -->
<svg width="559pt" height="250pt"
 viewBox="0.00 0.00 559.00 249.50" xmlns="http://www.w3.org/2000/svg" xmlns:xlink="http://www.w3.org/1999/xlink">
<g id="graph0" class="graph" transform="scale(1 1) rotate(0) translate(4 245.5)">
<title>detail::tm_writer::on_iso_date</title>
<!-- Node1 -->
<g id="Node000001" class="node">
<title>Node1</title>
<g id="a_Node000001"><a xlink:title=" ">
<polygon fill="#999999" stroke="#666666" points="104,-145.5 0,-145.5 0,-115.5 104,-115.5 104,-145.5"/>
<text text-anchor="start" x="8" y="-133.5" font-family="Helvetica,sans-Serif" font-size="10.00">detail::tm_writer::</text>
<text text-anchor="middle" x="52" y="-122.5" font-family="Helvetica,sans-Serif" font-size="10.00">on_iso_date</text>
</a>
</g>
</g>
<!-- Node2 -->
<g id="Node000002" class="node">
<title>Node2</title>
<g id="a_Node000002"><a xlink:href="classdetail_1_1tm__writer.html#a315a3d867c7f3e1aaa567c45a65f04da" target="_top" xlink:title=" ">
<polygon fill="white" stroke="#666666" points="251.5,-241.5 147.5,-241.5 147.5,-211.5 251.5,-211.5 251.5,-241.5"/>
<text text-anchor="start" x="155.5" y="-229.5" font-family="Helvetica,sans-Serif" font-size="10.00">detail::tm_writer::</text>
<text text-anchor="middle" x="199.5" y="-218.5" font-family="Helvetica,sans-Serif" font-size="10.00">tm_mday</text>
</a>
</g>
</g>
<!-- Node1&#45;&gt;Node2 -->
<g id="edge1_Node000001_Node000002" class="edge">
<title>Node1&#45;&gt;Node2</title>
<g id="a_edge1_Node000001_Node000002"><a xlink:title=" ">
<path fill="none" stroke="#63b8ff" d="M68.25,-145.59C84.82,-161.37 112.6,-186.06 140,-202.5 142.6,-204.06 145.32,-205.56 148.1,-207"/>
<polygon fill="#63b8ff" stroke="#63b8ff" points="146.61,-210.17 157.14,-211.37 149.66,-203.87 146.61,-210.17"/>
</a>
</g>
</g>
<!-- Node3 -->
<g id="Node000003" class="node">
<title>Node3</title>
<g id="a_Node000003"><a xlink:href="classdetail_1_1tm__writer.html#a552699b68cca33b8a1e2f9fd4273a848" target="_top" xlink:title=" ">
<polygon fill="white" stroke="#666666" points="251.5,-193.5 147.5,-193.5 147.5,-163.5 251.5,-163.5 251.5,-193.5"/>
<text text-anchor="start" x="155.5" y="-181.5" font-family="Helvetica,sans-Serif" font-size="10.00">detail::tm_writer::</text>
<text text-anchor="middle" x="199.5" y="-170.5" font-family="Helvetica,sans-Serif" font-size="10.00">tm_mon</text>
</a>
</g>
</g>
<!-- Node1&#45;&gt;Node3 -->
<g id="edge2_Node000001_Node000003" class="edge">
<title>Node1&#45;&gt;Node3</title>
<g id="a_edge2_Node000001_Node000003"><a xlink:title=" ">
<path fill="none" stroke="#63b8ff" d="M98.64,-145.56C112.86,-150.25 128.69,-155.47 143.48,-160.35"/>
<polygon fill="#63b8ff" stroke="#63b8ff" points="142.43,-163.69 153.02,-163.5 144.62,-157.04 142.43,-163.69"/>
</a>
</g>
</g>
<!-- Node4 -->
<g id="Node000004" class="node">
<title>Node4</title>
<g id="a_Node000004"><a xlink:href="classdetail_1_1tm__writer.html#a82bed31c275dcb4710557360e5d3ab58" target="_top" xlink:title=" ">
<polygon fill="white" stroke="#666666" points="251.5,-145.5 147.5,-145.5 147.5,-115.5 251.5,-115.5 251.5,-145.5"/>
<text text-anchor="start" x="155.5" y="-133.5" font-family="Helvetica,sans-Serif" font-size="10.00">detail::tm_writer::</text>
<text text-anchor="middle" x="199.5" y="-122.5" font-family="Helvetica,sans-Serif" font-size="10.00">tm_year</text>
</a>
</g>
</g>
<!-- Node1&#45;&gt;Node4 -->
<g id="edge3_Node000001_Node000004" class="edge">
<title>Node1&#45;&gt;Node4</title>
<g id="a_edge3_Node000001_Node000004"><a xlink:title=" ">
<path fill="none" stroke="#63b8ff" d="M104.3,-130.5C114.84,-130.5 126.04,-130.5 136.9,-130.5"/>
<polygon fill="#63b8ff" stroke="#63b8ff" points="137.17,-134 147.17,-130.5 137.17,-127 137.17,-134"/>
</a>
</g>
</g>
<!-- Node5 -->
<g id="Node000005" class="node">
<title>Node5</title>
<g id="a_Node000005"><a xlink:href="namespacedetail.html#ade16648d662a4c70e2500ae74ef7e671" target="_top" xlink:title=" ">
<polygon fill="white" stroke="#666666" points="253.5,-97 145.5,-97 145.5,-78 253.5,-78 253.5,-97"/>
<text text-anchor="middle" x="199.5" y="-85" font-family="Helvetica,sans-Serif" font-size="10.00">detail::write2digits</text>
</a>
</g>
</g>
<!-- Node1&#45;&gt;Node5 -->
<g id="edge4_Node000001_Node000005" class="edge">
<title>Node1&#45;&gt;Node5</title>
<g id="a_edge4_Node000001_Node000005"><a xlink:title=" ">
<path fill="none" stroke="#63b8ff" d="M103.89,-115.46C120.99,-110.41 139.87,-104.83 156.24,-99.99"/>
<polygon fill="#63b8ff" stroke="#63b8ff" points="157.46,-103.28 166.06,-97.09 155.48,-96.56 157.46,-103.28"/>
</a>
</g>
</g>
<!-- Node8 -->
<g id="Node000008" class="node">
<title>Node8</title>
<g id="a_Node000008"><a xlink:href="classdetail_1_1tm__writer.html#afebe1080f809fce7f9929aac3b0b9111" target="_top" xlink:title=" ">
<polygon fill="white" stroke="#666666" points="259,-59.5 140,-59.5 140,-29.5 259,-29.5 259,-59.5"/>
<text text-anchor="start" x="148" y="-47.5" font-family="Helvetica,sans-Serif" font-size="10.00">detail::tm_writer::</text>
<text text-anchor="middle" x="199.5" y="-36.5" font-family="Helvetica,sans-Serif" font-size="10.00">write_year_extended</text>
</a>
</g>
</g>
<!-- Node1&#45;&gt;Node8 -->
<g id="edge7_Node000001_Node000008" class="edge">
<title>Node1&#45;&gt;Node8</title>
<g id="a_edge7_Node000001_Node000008"><a xlink:title=" ">
<path fill="none" stroke="#63b8ff" d="M71.94,-115.49C89.08,-102.33 115.34,-83.22 140,-69.5 143.48,-67.56 147.15,-65.67 150.87,-63.86"/>
<polygon fill="#63b8ff" stroke="#63b8ff" points="152.6,-66.91 160.19,-59.52 149.64,-60.57 152.6,-66.91"/>
</a>
</g>
</g>
<!-- Node6 -->
<g id="Node000006" class="node">
<title>Node6</title>
<g id="a_Node000006"><a xlink:href="namespacedetail.html#abcb0aad14fe5c9d85a83f3ad59fad077" target="_top" xlink:title=" ">
<polygon fill="white" stroke="#666666" points="391.5,-134 308.5,-134 308.5,-115 391.5,-115 391.5,-134"/>
<text text-anchor="middle" x="350" y="-122" font-family="Helvetica,sans-Serif" font-size="10.00">detail::digits2</text>
</a>
</g>
</g>
<!-- Node5&#45;&gt;Node6 -->
<g id="edge5_Node000005_Node000006" class="edge">
<title>Node5&#45;&gt;Node6</title>
<g id="a_edge5_Node000005_Node000006"><a xlink:title=" ">
<path fill="none" stroke="#63b8ff" d="M238.74,-97.03C257.64,-101.74 280.63,-107.47 300.73,-112.47"/>
<polygon fill="#63b8ff" stroke="#63b8ff" points="300.08,-115.92 310.63,-114.94 301.77,-109.13 300.08,-115.92"/>
</a>
</g>
</g>
<!-- Node7 -->
<g id="Node000007" class="node">
<title>Node7</title>
<g id="a_Node000007"><a xlink:href="namespacedetail.html#a75ed2634319883d038944529dbb954e2" target="_top" xlink:title=" ">
<polygon fill="white" stroke="#666666" points="549,-101.5 443,-101.5 443,-71.5 549,-71.5 549,-101.5"/>
<text text-anchor="start" x="451" y="-89.5" font-family="Helvetica,sans-Serif" font-size="10.00">detail::is_constant</text>
<text text-anchor="middle" x="496" y="-78.5" font-family="Helvetica,sans-Serif" font-size="10.00">_evaluated</text>
</a>
</g>
</g>
<!-- Node5&#45;&gt;Node7 -->
<g id="edge6_Node000005_Node000007" class="edge">
<title>Node5&#45;&gt;Node7</title>
<g id="a_edge6_Node000005_Node000007"><a xlink:title=" ">
<path fill="none" stroke="#63b8ff" d="M253.83,-87.32C304.02,-87.15 379.2,-86.89 432.26,-86.71"/>
<polygon fill="#63b8ff" stroke="#63b8ff" points="432.57,-90.21 442.56,-86.68 432.55,-83.21 432.57,-90.21"/>
</a>
</g>
</g>
<!-- Node9 -->
<g id="Node000009" class="node">
<title>Node9</title>
<g id="a_Node000009"><a xlink:href="namespacedetail.html#ae970ad8cf6b25d7896f788089ca1b0eb" target="_top" xlink:title=" ">
<polygon fill="white" stroke="#666666" points="405,-56 295,-56 295,-37 405,-37 405,-56"/>
<text text-anchor="middle" x="350" y="-44" font-family="Helvetica,sans-Serif" font-size="10.00">detail::count_digits</text>
</a>
</g>
</g>
<!-- Node8&#45;&gt;Node9 -->
<g id="edge8_Node000008_Node000009" class="edge">
<title>Node8&#45;&gt;Node9</title>
<g id="a_edge8_Node000008_Node000009"><a xlink:title=" ">
<path fill="none" stroke="#63b8ff" d="M259.19,-45.29C267.49,-45.4 276.06,-45.52 284.46,-45.63"/>
<polygon fill="#63b8ff" stroke="#63b8ff" points="284.55,-49.13 294.6,-45.77 284.65,-42.13 284.55,-49.13"/>
</a>
</g>
</g>
<!-- Node11 -->
<g id="Node000011" class="node">
<title>Node11</title>
<g id="a_Node000011"><a xlink:href="namespacedetail.html#a4855e668246c731a97484efc329f2aac" target="_top" xlink:title=" ">
<polygon fill="white" stroke="#666666" points="405,-19 295,-19 295,0 405,0 405,-19"/>
<text text-anchor="middle" x="350" y="-7" font-family="Helvetica,sans-Serif" font-size="10.00">detail::to_unsigned</text>
</a>
</g>
</g>
<!-- Node8&#45;&gt;Node11 -->
<g id="edge11_Node000008_Node000011" class="edge">
<title>Node8&#45;&gt;Node11</title>
<g id="a_edge11_Node000008_Node000011"><a xlink:title=" ">
<path fill="none" stroke="#63b8ff" d="M259.19,-30.67C272.24,-27.59 285.96,-24.36 298.64,-21.37"/>
<polygon fill="#63b8ff" stroke="#63b8ff" points="299.63,-24.73 308.56,-19.03 298.02,-17.92 299.63,-24.73"/>
</a>
</g>
</g>
<!-- Node9&#45;&gt;Node7 -->
<g id="edge10_Node000009_Node000007" class="edge">
<title>Node9&#45;&gt;Node7</title>
<g id="a_edge10_Node000009_Node000007"><a xlink:title=" ">
<path fill="none" stroke="#63b8ff" d="M385.49,-56.08C399.69,-60.02 416.58,-64.72 432.8,-69.22"/>
<polygon fill="#63b8ff" stroke="#63b8ff" points="432.2,-72.69 442.78,-71.99 434.08,-65.94 432.2,-72.69"/>
</a>
</g>
</g>
<!-- Node10 -->
<g id="Node000010" class="node">
<title>Node10</title>
<g id="a_Node000010"><a xlink:href="namespacedetail.html#a300bc96ee936e9f6ef3565c8dff68a72" target="_top" xlink:title=" ">
<polygon fill="white" stroke="#666666" points="551,-53.5 441,-53.5 441,-23.5 551,-23.5 551,-53.5"/>
<text text-anchor="start" x="449" y="-41.5" font-family="Helvetica,sans-Serif" font-size="10.00">detail::count_digits</text>
<text text-anchor="middle" x="496" y="-30.5" font-family="Helvetica,sans-Serif" font-size="10.00">_fallback</text>
</a>
</g>
</g>
<!-- Node9&#45;&gt;Node10 -->
<g id="edge9_Node000009_Node000010" class="edge">
<title>Node9&#45;&gt;Node10</title>
<g id="a_edge9_Node000009_Node000010"><a xlink:title=" ">
<path fill="none" stroke="#63b8ff" d="M405.03,-43.5C413.31,-43.04 421.94,-42.56 430.42,-42.09"/>
<polygon fill="#63b8ff" stroke="#63b8ff" points="430.88,-45.57 440.67,-41.52 430.49,-38.58 430.88,-45.57"/>
</a>
</g>
</g>
</g>
</svg>
