<?xml version="1.0" encoding="UTF-8" standalone="no"?>
<!DOCTYPE svg PUBLIC "-//W3C//DTD SVG 1.1//EN"
 "http://www.w3.org/Graphics/SVG/1.1/DTD/svg11.dtd">
<!-- Generated by graphviz version 2.43.0 (0)
 -->
<!-- Title: basic_appender::basic_appender Pages: 1 -->
<svg width="616pt" height="521pt"
 viewBox="0.00 0.00 616.00 520.50" xmlns="http://www.w3.org/2000/svg" xmlns:xlink="http://www.w3.org/1999/xlink">
<g id="graph0" class="graph" transform="scale(1 1) rotate(0) translate(4 516.5)">
<title>basic_appender::basic_appender</title>
<!-- Node1 -->
<g id="Node000001" class="node">
<title>Node1</title>
<g id="a_Node000001"><a xlink:title=" ">
<polygon fill="#999999" stroke="#666666" points="608,-319.5 483,-319.5 483,-289.5 608,-289.5 608,-319.5"/>
<text text-anchor="start" x="491" y="-307.5" font-family="Helvetica,sans-Serif" font-size="10.00">basic_appender::basic</text>
<text text-anchor="middle" x="545.5" y="-296.5" font-family="Helvetica,sans-Serif" font-size="10.00">_appender</text>
</a>
</g>
</g>
<!-- Node2 -->
<g id="Node000002" class="node">
<title>Node2</title>
<g id="a_Node000002"><a xlink:href="structformatter_3_01std_1_1error__code_01_4.html#a470063b0427cac0f4618f8efe71656ac" target="_top" xlink:title=" ">
<polygon fill="white" stroke="#666666" points="436.5,-512.5 317.5,-512.5 317.5,-482.5 436.5,-482.5 436.5,-512.5"/>
<text text-anchor="start" x="325.5" y="-500.5" font-family="Helvetica,sans-Serif" font-size="10.00">formatter&lt; std::error</text>
<text text-anchor="middle" x="377" y="-489.5" font-family="Helvetica,sans-Serif" font-size="10.00">_code &gt;::format</text>
</a>
</g>
</g>
<!-- Node1&#45;&gt;Node2 -->
<g id="edge1_Node000001_Node000002" class="edge">
<title>Node1&#45;&gt;Node2</title>
<g id="a_edge1_Node000001_Node000002"><a xlink:title=" ">
<path fill="none" stroke="#63b8ff" d="M536.49,-329.38C523.46,-366.03 494.27,-434.39 447,-473.5 442.9,-476.9 438.28,-479.82 433.43,-482.34"/>
<polygon fill="#63b8ff" stroke="#63b8ff" points="539.94,-330.11 539.88,-319.51 533.32,-327.84 539.94,-330.11"/>
</a>
</g>
</g>
<!-- Node3 -->
<g id="Node000003" class="node">
<title>Node3</title>
<g id="a_Node000003"><a xlink:href="namespacedetail.html#a609d7411f77817f2def78afbbfdda40e" target="_top" xlink:title=" ">
<polygon fill="white" stroke="#666666" points="447,-464 307,-464 307,-445 447,-445 447,-464"/>
<text text-anchor="middle" x="377" y="-452" font-family="Helvetica,sans-Serif" font-size="10.00">detail::format_error_code</text>
</a>
</g>
</g>
<!-- Node1&#45;&gt;Node3 -->
<g id="edge2_Node000001_Node000003" class="edge">
<title>Node1&#45;&gt;Node3</title>
<g id="a_edge2_Node000001_Node000003"><a xlink:title=" ">
<path fill="none" stroke="#63b8ff" d="M531.75,-328.41C515.57,-356.6 485.13,-403.08 447,-430.5 438.35,-436.72 427.95,-441.44 417.88,-444.98"/>
<polygon fill="#63b8ff" stroke="#63b8ff" points="534.85,-330.04 536.68,-319.6 528.74,-326.62 534.85,-330.04"/>
</a>
</g>
</g>
<!-- Node4 -->
<g id="Node000004" class="node">
<title>Node4</title>
<g id="a_Node000004"><a xlink:href="format-inl_8h.html#a7f93bbdee51ea567c2cdf8532c0c1fc1" target="_top" xlink:title=" ">
<polygon fill="white" stroke="#666666" points="271,-464 152,-464 152,-445 271,-445 271,-464"/>
<text text-anchor="middle" x="211.5" y="-452" font-family="Helvetica,sans-Serif" font-size="10.00">format_system_error</text>
</a>
</g>
</g>
<!-- Node1&#45;&gt;Node4 -->
<g id="edge6_Node000001_Node000004" class="edge">
<title>Node1&#45;&gt;Node4</title>
<g id="a_edge6_Node000001_Node000004"><a xlink:title=" ">
<path fill="none" stroke="#63b8ff" d="M526.54,-327.51C508.65,-348.84 479.26,-379.87 447,-397.5 430.39,-406.58 320.33,-431.25 257.07,-444.97"/>
<polygon fill="#63b8ff" stroke="#63b8ff" points="529.41,-329.53 533.04,-319.58 523.99,-325.1 529.41,-329.53"/>
</a>
</g>
</g>
<!-- Node6 -->
<g id="Node000006" class="node">
<title>Node6</title>
<g id="a_Node000006"><a xlink:href="namespacedetail.html#a718888554bf1561a88969b304e570395" target="_top" xlink:title=" ">
<polygon fill="white" stroke="#666666" points="441,-388 313,-388 313,-369 441,-369 441,-388"/>
<text text-anchor="middle" x="377" y="-376" font-family="Helvetica,sans-Serif" font-size="10.00">detail::format_hexfloat</text>
</a>
</g>
</g>
<!-- Node1&#45;&gt;Node6 -->
<g id="edge5_Node000001_Node000006" class="edge">
<title>Node1&#45;&gt;Node6</title>
<g id="a_edge5_Node000001_Node000006"><a xlink:title=" ">
<path fill="none" stroke="#63b8ff" d="M513.49,-325.16C494.85,-336.84 470.29,-350.97 447,-360.5 438.98,-363.78 430.19,-366.61 421.64,-369"/>
<polygon fill="#63b8ff" stroke="#63b8ff" points="515.58,-327.98 522.13,-319.65 511.82,-322.07 515.58,-327.98"/>
</a>
</g>
</g>
<!-- Node7 -->
<g id="Node000007" class="node">
<title>Node7</title>
<g id="a_Node000007"><a xlink:href="compile_8h.html#ab898fdcb82003fc6fbac14d5da66cbbb" target="_top" xlink:title=" ">
<polygon fill="white" stroke="#666666" points="422,-351 332,-351 332,-332 422,-332 422,-351"/>
<text text-anchor="middle" x="377" y="-339" font-family="Helvetica,sans-Serif" font-size="10.00">formatted_size</text>
</a>
</g>
</g>
<!-- Node1&#45;&gt;Node7 -->
<g id="edge7_Node000001_Node000007" class="edge">
<title>Node1&#45;&gt;Node7</title>
<g id="a_edge7_Node000001_Node000007"><a xlink:title=" ">
<path fill="none" stroke="#63b8ff" d="M473.17,-320.35C455.35,-324.31 436.79,-328.44 420.83,-331.98"/>
<polygon fill="#63b8ff" stroke="#63b8ff" points="473.97,-323.76 482.97,-318.17 472.45,-316.93 473.97,-323.76"/>
</a>
</g>
</g>
<!-- Node8 -->
<g id="Node000008" class="node">
<title>Node8</title>
<g id="a_Node000008"><a xlink:href="classwriter.html#a1d0ad25c23e761314623871c90d8a5a5" target="_top" xlink:title=" ">
<polygon fill="white" stroke="#666666" points="414,-314 340,-314 340,-295 414,-295 414,-314"/>
<text text-anchor="middle" x="377" y="-302" font-family="Helvetica,sans-Serif" font-size="10.00">writer::print</text>
</a>
</g>
</g>
<!-- Node1&#45;&gt;Node8 -->
<g id="edge8_Node000001_Node000008" class="edge">
<title>Node1&#45;&gt;Node8</title>
<g id="a_edge8_Node000001_Node000008"><a xlink:title=" ">
<path fill="none" stroke="#63b8ff" d="M472.81,-304.5C452.54,-304.5 431.34,-304.5 414.14,-304.5"/>
<polygon fill="#63b8ff" stroke="#63b8ff" points="472.97,-308 482.97,-304.5 472.97,-301 472.97,-308"/>
</a>
</g>
</g>
<!-- Node9 -->
<g id="Node000009" class="node">
<title>Node9</title>
<g id="a_Node000009"><a xlink:href="compile_8h.html#aafd70447a5d15c593712be146611663d" target="_top" xlink:title=" ">
<polygon fill="white" stroke="#666666" points="396.5,-277 357.5,-277 357.5,-258 396.5,-258 396.5,-277"/>
<text text-anchor="middle" x="377" y="-265" font-family="Helvetica,sans-Serif" font-size="10.00">print</text>
</a>
</g>
</g>
<!-- Node1&#45;&gt;Node9 -->
<g id="edge9_Node000001_Node000009" class="edge">
<title>Node1&#45;&gt;Node9</title>
<g id="a_edge9_Node000001_Node000009"><a xlink:title=" ">
<path fill="none" stroke="#63b8ff" d="M473.18,-288.65C445.22,-282.44 415.43,-275.82 396.77,-271.67"/>
<polygon fill="#63b8ff" stroke="#63b8ff" points="472.45,-292.07 482.97,-290.83 473.97,-285.24 472.45,-292.07"/>
</a>
</g>
</g>
<!-- Node10 -->
<g id="Node000010" class="node">
<title>Node10</title>
<g id="a_Node000010"><a xlink:href="namespacedetail.html#a374a461d344b73468831b40acf5e4635" target="_top" xlink:title=" ">
<polygon fill="white" stroke="#666666" points="429,-240 325,-240 325,-221 429,-221 429,-240"/>
<text text-anchor="middle" x="377" y="-228" font-family="Helvetica,sans-Serif" font-size="10.00">detail::vformat_to</text>
</a>
</g>
</g>
<!-- Node1&#45;&gt;Node10 -->
<g id="edge10_Node000001_Node000010" class="edge">
<title>Node1&#45;&gt;Node10</title>
<g id="a_edge10_Node000001_Node000010"><a xlink:title=" ">
<path fill="none" stroke="#63b8ff" d="M513.02,-284.13C494.39,-272.74 470.01,-258.99 447,-249.5 438.16,-245.85 428.39,-242.68 419.06,-240.03"/>
<polygon fill="#63b8ff" stroke="#63b8ff" points="511.33,-287.2 521.67,-289.49 515.02,-281.25 511.33,-287.2"/>
</a>
</g>
</g>
<!-- Node24 -->
<g id="Node000024" class="node">
<title>Node24</title>
<g id="a_Node000024"><a xlink:href="namespacedetail.html#a8982f9880f97e5151198dd1b6c708ae5" target="_top" xlink:title=" ">
<polygon fill="white" stroke="#666666" points="414.5,-203 339.5,-203 339.5,-184 414.5,-184 414.5,-203"/>
<text text-anchor="middle" x="377" y="-191" font-family="Helvetica,sans-Serif" font-size="10.00">detail::write</text>
</a>
</g>
</g>
<!-- Node1&#45;&gt;Node24 -->
<g id="edge24_Node000001_Node000024" class="edge">
<title>Node1&#45;&gt;Node24</title>
<g id="a_edge24_Node000001_Node000024"><a xlink:title=" ">
<path fill="none" stroke="#63b8ff" d="M526.06,-281.61C508.02,-260.67 478.69,-230.33 447,-212.5 437.15,-206.96 425.58,-202.95 414.76,-200.09"/>
<polygon fill="#63b8ff" stroke="#63b8ff" points="523.51,-284.01 532.63,-289.4 528.86,-279.49 523.51,-284.01"/>
</a>
</g>
</g>
<!-- Node25 -->
<g id="Node000025" class="node">
<title>Node25</title>
<g id="a_Node000025"><a xlink:href="namespacedetail.html#a53f64cca161818cc3e0d8ebce2a36335" target="_top" xlink:title=" ">
<polygon fill="white" stroke="#666666" points="423.5,-166 330.5,-166 330.5,-147 423.5,-147 423.5,-166"/>
<text text-anchor="middle" x="377" y="-154" font-family="Helvetica,sans-Serif" font-size="10.00">detail::write_int</text>
</a>
</g>
</g>
<!-- Node1&#45;&gt;Node25 -->
<g id="edge25_Node000001_Node000025" class="edge">
<title>Node1&#45;&gt;Node25</title>
<g id="a_edge25_Node000001_Node000025"><a xlink:title=" ">
<path fill="none" stroke="#63b8ff" d="M532.45,-280.04C516.78,-250.79 486.66,-202.41 447,-175.5 440.01,-170.76 431.86,-167.19 423.67,-164.52"/>
<polygon fill="#63b8ff" stroke="#63b8ff" points="529.48,-281.92 537.2,-289.17 535.69,-278.68 529.48,-281.92"/>
</a>
</g>
</g>
<!-- Node26 -->
<g id="Node000026" class="node">
<title>Node26</title>
<g id="a_Node000026"><a xlink:href="namespacedetail.html#a289cb079ced65a67e9c17bef575ece59" target="_top" xlink:title=" ">
<polygon fill="white" stroke="#666666" points="443.5,-129 310.5,-129 310.5,-110 443.5,-110 443.5,-129"/>
<text text-anchor="middle" x="377" y="-117" font-family="Helvetica,sans-Serif" font-size="10.00">detail::write_significand</text>
</a>
</g>
</g>
<!-- Node1&#45;&gt;Node26 -->
<g id="edge26_Node000001_Node000026" class="edge">
<title>Node1&#45;&gt;Node26</title>
<g id="a_edge26_Node000001_Node000026"><a xlink:title=" ">
<path fill="none" stroke="#63b8ff" d="M536.68,-279.66C523.91,-243.14 495.04,-175.34 447,-138.5 441.97,-134.64 436.21,-131.57 430.2,-129.12"/>
<polygon fill="#63b8ff" stroke="#63b8ff" points="533.49,-281.14 540,-289.5 540.12,-278.9 533.49,-281.14"/>
</a>
</g>
</g>
<!-- Node3&#45;&gt;Node4 -->
<g id="edge3_Node000003_Node000004" class="edge">
<title>Node3&#45;&gt;Node4</title>
<g id="a_edge3_Node000003_Node000004"><a xlink:title=" ">
<path fill="none" stroke="#63b8ff" d="M296.61,-454.5C288.02,-454.5 279.39,-454.5 271.11,-454.5"/>
<polygon fill="#63b8ff" stroke="#63b8ff" points="296.66,-458 306.66,-454.5 296.66,-451 296.66,-458"/>
</a>
</g>
</g>
<!-- Node5 -->
<g id="Node000005" class="node">
<title>Node5</title>
<g id="a_Node000005"><a xlink:href="format-inl_8h.html#af135c0ecc93e827e4ef51b18a4b0da74" target="_top" xlink:title=" ">
<polygon fill="white" stroke="#666666" points="116,-464 0,-464 0,-445 116,-445 116,-464"/>
<text text-anchor="middle" x="58" y="-452" font-family="Helvetica,sans-Serif" font-size="10.00">report_system_error</text>
</a>
</g>
</g>
<!-- Node4&#45;&gt;Node5 -->
<g id="edge4_Node000004_Node000005" class="edge">
<title>Node4&#45;&gt;Node5</title>
<g id="a_edge4_Node000004_Node000005"><a xlink:title=" ">
<path fill="none" stroke="#63b8ff" d="M141.7,-454.5C133.25,-454.5 124.68,-454.5 116.42,-454.5"/>
<polygon fill="#63b8ff" stroke="#63b8ff" points="141.93,-458 151.93,-454.5 141.93,-451 141.93,-458"/>
</a>
</g>
</g>
<!-- Node11 -->
<g id="Node000011" class="node">
<title>Node11</title>
<g id="a_Node000011"><a xlink:href="base_8h.html#a0f9a011c5e8bf359e75651cbdc411941" target="_top" xlink:title="Returns the number of chars in the output of format(fmt, args...).">
<polygon fill="white" stroke="#666666" points="256.5,-426 166.5,-426 166.5,-407 256.5,-407 256.5,-426"/>
<text text-anchor="middle" x="211.5" y="-414" font-family="Helvetica,sans-Serif" font-size="10.00">formatted_size</text>
</a>
</g>
</g>
<!-- Node10&#45;&gt;Node11 -->
<g id="edge11_Node000010_Node000011" class="edge">
<title>Node10&#45;&gt;Node11</title>
<g id="a_edge11_Node000010_Node000011"><a xlink:title=" ">
<path fill="none" stroke="#63b8ff" d="M315.77,-242.46C312.58,-244.47 309.62,-246.8 307,-249.5 259.59,-298.43 317.67,-348.87 271,-398.5 267,-402.76 262.01,-406.02 256.66,-408.51"/>
<polygon fill="#63b8ff" stroke="#63b8ff" points="317.39,-245.57 324.67,-237.87 314.18,-239.35 317.39,-245.57"/>
</a>
</g>
</g>
<!-- Node12 -->
<g id="Node000012" class="node">
<title>Node12</title>
<g id="a_Node000012"><a xlink:href="format_8h.html#ab1aace0cb1b8ea506c95aa46d713e881" target="_top" xlink:title=" ">
<polygon fill="white" stroke="#666666" points="256.5,-389 166.5,-389 166.5,-370 256.5,-370 256.5,-389"/>
<text text-anchor="middle" x="211.5" y="-377" font-family="Helvetica,sans-Serif" font-size="10.00">formatted_size</text>
</a>
</g>
</g>
<!-- Node10&#45;&gt;Node12 -->
<g id="edge12_Node000010_Node000012" class="edge">
<title>Node10&#45;&gt;Node12</title>
<g id="a_edge12_Node000010_Node000012"><a xlink:title=" ">
<path fill="none" stroke="#63b8ff" d="M315.55,-242.97C312.47,-244.85 309.59,-247.02 307,-249.5 269.25,-285.68 308.2,-324.76 271,-361.5 266.92,-365.53 261.95,-368.66 256.66,-371.1"/>
<polygon fill="#63b8ff" stroke="#63b8ff" points="317.32,-245.99 324.66,-238.35 314.16,-239.75 317.32,-245.99"/>
</a>
</g>
</g>
<!-- Node13 -->
<g id="Node000013" class="node">
<title>Node13</title>
<g id="a_Node000013"><a xlink:href="ostream_8h.html#a3883cc4dedb6840173d3ca9699e7693c" target="_top" xlink:title=" ">
<polygon fill="white" stroke="#666666" points="231,-352 192,-352 192,-333 231,-333 231,-352"/>
<text text-anchor="middle" x="211.5" y="-340" font-family="Helvetica,sans-Serif" font-size="10.00">print</text>
</a>
</g>
</g>
<!-- Node10&#45;&gt;Node13 -->
<g id="edge13_Node000010_Node000013" class="edge">
<title>Node10&#45;&gt;Node13</title>
<g id="a_edge13_Node000010_Node000013"><a xlink:title=" ">
<path fill="none" stroke="#63b8ff" d="M315.77,-243.49C312.66,-245.25 309.7,-247.24 307,-249.5 278.63,-273.21 299.02,-300.37 271,-324.5 259.89,-334.07 243.76,-338.55 231.25,-340.65"/>
<polygon fill="#63b8ff" stroke="#63b8ff" points="317.37,-246.61 324.89,-239.14 314.35,-240.29 317.37,-246.61"/>
</a>
</g>
</g>
<!-- Node14 -->
<g id="Node000014" class="node">
<title>Node14</title>
<g id="a_Node000014"><a xlink:href="format_8h.html#a5ef22e73c121e5454e75a221470d3214" target="_top" xlink:title=" ">
<polygon fill="white" stroke="#666666" points="239.5,-315 183.5,-315 183.5,-296 239.5,-296 239.5,-315"/>
<text text-anchor="middle" x="211.5" y="-303" font-family="Helvetica,sans-Serif" font-size="10.00">vformat</text>
</a>
</g>
</g>
<!-- Node10&#45;&gt;Node14 -->
<g id="edge14_Node000010_Node000014" class="edge">
<title>Node10&#45;&gt;Node14</title>
<g id="a_edge14_Node000010_Node000014"><a xlink:title=" ">
<path fill="none" stroke="#63b8ff" d="M318.41,-243.72C314.44,-245.42 310.6,-247.34 307,-249.5 287.05,-261.47 290.77,-275.23 271,-287.5 261.52,-293.38 249.98,-297.47 239.65,-300.24"/>
<polygon fill="#63b8ff" stroke="#63b8ff" points="319.75,-246.95 327.83,-240.11 317.24,-240.42 319.75,-246.95"/>
</a>
</g>
</g>
<!-- Node15 -->
<g id="Node000015" class="node">
<title>Node15</title>
<g id="a_Node000015"><a xlink:href="format-inl_8h.html#a7d363bad28ecb7c5fda462edcafa09cb" target="_top" xlink:title=" ">
<polygon fill="white" stroke="#666666" points="239.5,-278 183.5,-278 183.5,-259 239.5,-259 239.5,-278"/>
<text text-anchor="middle" x="211.5" y="-266" font-family="Helvetica,sans-Serif" font-size="10.00">vformat</text>
</a>
</g>
</g>
<!-- Node10&#45;&gt;Node15 -->
<g id="edge15_Node000010_Node000015" class="edge">
<title>Node10&#45;&gt;Node15</title>
<g id="a_edge15_Node000010_Node000015"><a xlink:title=" ">
<path fill="none" stroke="#63b8ff" d="M324.68,-242.43C296.61,-248.95 262.96,-256.77 239.88,-262.14"/>
<polygon fill="#63b8ff" stroke="#63b8ff" points="325.79,-245.76 334.74,-240.09 324.21,-238.94 325.79,-245.76"/>
</a>
</g>
</g>
<!-- Node17 -->
<g id="Node000017" class="node">
<title>Node17</title>
<g id="a_Node000017"><a xlink:href="base_8h.html#a3683dd5284154b2cc412c5623a3a850c" target="_top" xlink:title="Formats a string and writes the output to out.">
<polygon fill="white" stroke="#666666" points="247,-241 176,-241 176,-222 247,-222 247,-241"/>
<text text-anchor="middle" x="211.5" y="-229" font-family="Helvetica,sans-Serif" font-size="10.00">vformat_to</text>
</a>
</g>
</g>
<!-- Node10&#45;&gt;Node17 -->
<g id="edge17_Node000010_Node000017" class="edge">
<title>Node10&#45;&gt;Node17</title>
<g id="a_edge17_Node000010_Node000017"><a xlink:title=" ">
<path fill="none" stroke="#63b8ff" d="M314.43,-230.88C291.64,-231.02 266.61,-231.17 247.06,-231.29"/>
<polygon fill="#63b8ff" stroke="#63b8ff" points="314.74,-234.37 324.72,-230.81 314.69,-227.37 314.74,-234.37"/>
</a>
</g>
</g>
<!-- Node18 -->
<g id="Node000018" class="node">
<title>Node18</title>
<g id="a_Node000018"><a xlink:href="format_8h.html#a638dbdb7adfce93e0439e764bdd1433a" target="_top" xlink:title=" ">
<polygon fill="white" stroke="#666666" points="247,-204 176,-204 176,-185 247,-185 247,-204"/>
<text text-anchor="middle" x="211.5" y="-192" font-family="Helvetica,sans-Serif" font-size="10.00">vformat_to</text>
</a>
</g>
</g>
<!-- Node10&#45;&gt;Node18 -->
<g id="edge18_Node000010_Node000018" class="edge">
<title>Node10&#45;&gt;Node18</title>
<g id="a_edge18_Node000010_Node000018"><a xlink:title=" ">
<path fill="none" stroke="#63b8ff" d="M322.6,-218.74C297.77,-213.27 268.95,-206.93 247.02,-202.1"/>
<polygon fill="#63b8ff" stroke="#63b8ff" points="322.1,-222.21 332.61,-220.95 323.6,-215.38 322.1,-222.21"/>
</a>
</g>
</g>
<!-- Node19 -->
<g id="Node000019" class="node">
<title>Node19</title>
<g id="a_Node000019"><a xlink:href="base_8h.html#a45a3c74fd5764c3be13025cacbcb02b2" target="_top" xlink:title=" ">
<polygon fill="white" stroke="#666666" points="252.5,-167 170.5,-167 170.5,-148 252.5,-148 252.5,-167"/>
<text text-anchor="middle" x="211.5" y="-155" font-family="Helvetica,sans-Serif" font-size="10.00">vformat_to_n</text>
</a>
</g>
</g>
<!-- Node10&#45;&gt;Node19 -->
<g id="edge19_Node000010_Node000019" class="edge">
<title>Node10&#45;&gt;Node19</title>
<g id="a_edge19_Node000010_Node000019"><a xlink:title=" ">
<path fill="none" stroke="#63b8ff" d="M316.58,-217.25C313.26,-215.82 310.05,-214.25 307,-212.5 287.37,-201.25 290.29,-188.32 271,-176.5 264.81,-172.71 257.78,-169.59 250.79,-167.05"/>
<polygon fill="#63b8ff" stroke="#63b8ff" points="315.52,-220.6 326.11,-220.9 318.02,-214.06 315.52,-220.6"/>
</a>
</g>
</g>
<!-- Node20 -->
<g id="Node000020" class="node">
<title>Node20</title>
<g id="a_Node000020"><a xlink:href="format-inl_8h.html#a580ab08e935e90e4c3a3cdf45da3cf3a" target="_top" xlink:title=" ">
<polygon fill="white" stroke="#666666" points="234,-130 189,-130 189,-111 234,-111 234,-130"/>
<text text-anchor="middle" x="211.5" y="-118" font-family="Helvetica,sans-Serif" font-size="10.00">vprint</text>
</a>
</g>
</g>
<!-- Node10&#45;&gt;Node20 -->
<g id="edge20_Node000010_Node000020" class="edge">
<title>Node10&#45;&gt;Node20</title>
<g id="a_edge20_Node000010_Node000020"><a xlink:title=" ">
<path fill="none" stroke="#63b8ff" d="M315.81,-218.38C312.69,-216.67 309.72,-214.72 307,-212.5 278.96,-189.64 298.35,-163.17 271,-139.5 260.74,-130.63 246.27,-125.88 234.28,-123.35"/>
<polygon fill="#63b8ff" stroke="#63b8ff" points="314.4,-221.58 324.95,-222.59 317.33,-215.22 314.4,-221.58"/>
</a>
</g>
</g>
<!-- Node21 -->
<g id="Node000021" class="node">
<title>Node21</title>
<g id="a_Node000021"><a xlink:href="ostream_8h.html#a5a12ace2368ad2613bac4c16637a97ec" target="_top" xlink:title=" ">
<polygon fill="white" stroke="#666666" points="234,-93 189,-93 189,-74 234,-74 234,-93"/>
<text text-anchor="middle" x="211.5" y="-81" font-family="Helvetica,sans-Serif" font-size="10.00">vprint</text>
</a>
</g>
</g>
<!-- Node10&#45;&gt;Node21 -->
<g id="edge21_Node000010_Node000021" class="edge">
<title>Node10&#45;&gt;Node21</title>
<g id="a_edge21_Node000010_Node000021"><a xlink:title=" ">
<path fill="none" stroke="#63b8ff" d="M315.58,-218.92C312.5,-217.08 309.6,-214.95 307,-212.5 269.53,-177.25 307.41,-138.83 271,-102.5 261.25,-92.77 246.47,-88.02 234.21,-85.71"/>
<polygon fill="#63b8ff" stroke="#63b8ff" points="314.19,-222.13 324.71,-223.41 317.28,-215.85 314.19,-222.13"/>
</a>
</g>
</g>
<!-- Node22 -->
<g id="Node000022" class="node">
<title>Node22</title>
<g id="a_Node000022"><a xlink:href="format-inl_8h.html#a3774f0f4816097d469f11407f83ee394" target="_top" xlink:title=" ">
<polygon fill="white" stroke="#666666" points="257,-56 166,-56 166,-37 257,-37 257,-56"/>
<text text-anchor="middle" x="211.5" y="-44" font-family="Helvetica,sans-Serif" font-size="10.00">vprint_buffered</text>
</a>
</g>
</g>
<!-- Node10&#45;&gt;Node22 -->
<g id="edge22_Node000010_Node000022" class="edge">
<title>Node10&#45;&gt;Node22</title>
<g id="a_edge22_Node000010_Node000022"><a xlink:title=" ">
<path fill="none" stroke="#63b8ff" d="M315.52,-219.25C312.43,-217.33 309.55,-215.09 307,-212.5 259.8,-164.58 316.77,-114.79 271,-65.5 267.15,-61.35 262.38,-58.11 257.25,-55.57"/>
<polygon fill="#63b8ff" stroke="#63b8ff" points="314.21,-222.51 324.72,-223.89 317.37,-216.26 314.21,-222.51"/>
</a>
</g>
</g>
<!-- Node23 -->
<g id="Node000023" class="node">
<title>Node23</title>
<g id="a_Node000023"><a xlink:href="format-inl_8h.html#a71033730e1d1c2c72b7905f21929df93" target="_top" xlink:title=" ">
<polygon fill="white" stroke="#666666" points="238.5,-19 184.5,-19 184.5,0 238.5,0 238.5,-19"/>
<text text-anchor="middle" x="211.5" y="-7" font-family="Helvetica,sans-Serif" font-size="10.00">vprintln</text>
</a>
</g>
</g>
<!-- Node10&#45;&gt;Node23 -->
<g id="edge23_Node000010_Node000023" class="edge">
<title>Node10&#45;&gt;Node23</title>
<g id="a_edge23_Node000010_Node000023"><a xlink:title=" ">
<path fill="none" stroke="#63b8ff" d="M315.82,-219.67C312.6,-217.65 309.61,-215.28 307,-212.5 249.93,-151.78 326.26,-90.87 271,-28.5 262.86,-19.31 250.22,-14.54 238.78,-12.08"/>
<polygon fill="#63b8ff" stroke="#63b8ff" points="314.34,-222.85 324.85,-224.24 317.51,-216.6 314.34,-222.85"/>
</a>
</g>
</g>
<!-- Node16 -->
<g id="Node000016" class="node">
<title>Node16</title>
<g id="a_Node000016"><a xlink:href="format-inl_8h.html#ab41bf8cae80639f211595a96bc63c343" target="_top" xlink:title=" ">
<polygon fill="white" stroke="#666666" points="101.5,-278 14.5,-278 14.5,-259 101.5,-259 101.5,-278"/>
<text text-anchor="middle" x="58" y="-266" font-family="Helvetica,sans-Serif" font-size="10.00">vsystem_error</text>
</a>
</g>
</g>
<!-- Node15&#45;&gt;Node16 -->
<g id="edge16_Node000015_Node000016" class="edge">
<title>Node15&#45;&gt;Node16</title>
<g id="a_edge16_Node000015_Node000016"><a xlink:title=" ">
<path fill="none" stroke="#63b8ff" d="M173.27,-268.5C151.58,-268.5 124.14,-268.5 101.59,-268.5"/>
<polygon fill="#63b8ff" stroke="#63b8ff" points="173.41,-272 183.41,-268.5 173.41,-265 173.41,-272"/>
</a>
</g>
</g>
</g>
</svg>
