<?xml version="1.0" encoding="UTF-8" standalone="no"?>
<!DOCTYPE svg PUBLIC "-//W3C//DTD SVG 1.1//EN"
 "http://www.w3.org/Graphics/SVG/1.1/DTD/svg11.dtd">
<!-- Generated by graphviz version 2.43.0 (0)
 -->
<!-- Title: detail::tm_writer::on_iso_time Pages: 1 -->
<svg width="896pt" height="343pt"
 viewBox="0.00 0.00 896.00 343.00" xmlns="http://www.w3.org/2000/svg" xmlns:xlink="http://www.w3.org/1999/xlink">
<g id="graph0" class="graph" transform="scale(1 1) rotate(0) translate(4 339)">
<title>detail::tm_writer::on_iso_time</title>
<!-- Node1 -->
<g id="Node000001" class="node">
<title>Node1</title>
<g id="a_Node000001"><a xlink:title=" ">
<polygon fill="#999999" stroke="#666666" points="104,-223 0,-223 0,-193 104,-193 104,-223"/>
<text text-anchor="start" x="8" y="-211" font-family="Helvetica,sans-Serif" font-size="10.00">detail::tm_writer::</text>
<text text-anchor="middle" x="52" y="-200" font-family="Helvetica,sans-Serif" font-size="10.00">on_iso_time</text>
</a>
</g>
</g>
<!-- Node2 -->
<g id="Node000002" class="node">
<title>Node2</title>
<g id="a_Node000002"><a xlink:href="classdetail_1_1tm__writer.html#a563b39fdbd28a76257c855bfdca1d70a" target="_top" xlink:title=" ">
<polygon fill="white" stroke="#666666" points="244,-287 140,-287 140,-257 244,-257 244,-287"/>
<text text-anchor="start" x="148" y="-275" font-family="Helvetica,sans-Serif" font-size="10.00">detail::tm_writer::</text>
<text text-anchor="middle" x="192" y="-264" font-family="Helvetica,sans-Serif" font-size="10.00">on_24_hour_time</text>
</a>
</g>
</g>
<!-- Node1&#45;&gt;Node2 -->
<g id="edge1_Node000001_Node000002" class="edge">
<title>Node1&#45;&gt;Node2</title>
<g id="a_edge1_Node000001_Node000002"><a xlink:title=" ">
<path fill="none" stroke="#63b8ff" d="M85.35,-223.01C104.42,-231.85 128.75,-243.13 149.25,-252.64"/>
<polygon fill="#63b8ff" stroke="#63b8ff" points="147.83,-255.83 158.37,-256.87 150.77,-249.48 147.83,-255.83"/>
</a>
</g>
</g>
<!-- Node5 -->
<g id="Node000005" class="node">
<title>Node5</title>
<g id="a_Node000005"><a xlink:href="classdetail_1_1tm__writer.html#a57084e1a4311b7439ef4217fa3018285" target="_top" xlink:title=" ">
<polygon fill="white" stroke="#666666" points="244,-159 140,-159 140,-129 244,-129 244,-159"/>
<text text-anchor="start" x="148" y="-147" font-family="Helvetica,sans-Serif" font-size="10.00">detail::tm_writer::</text>
<text text-anchor="middle" x="192" y="-136" font-family="Helvetica,sans-Serif" font-size="10.00">on_second</text>
</a>
</g>
</g>
<!-- Node1&#45;&gt;Node5 -->
<g id="edge4_Node000001_Node000005" class="edge">
<title>Node1&#45;&gt;Node5</title>
<g id="a_edge4_Node000001_Node000005"><a xlink:title=" ">
<path fill="none" stroke="#63b8ff" d="M85.35,-192.99C104.42,-184.15 128.75,-172.87 149.25,-163.36"/>
<polygon fill="#63b8ff" stroke="#63b8ff" points="150.77,-166.52 158.37,-159.13 147.83,-160.17 150.77,-166.52"/>
</a>
</g>
</g>
<!-- Node3 -->
<g id="Node000003" class="node">
<title>Node3</title>
<g id="a_Node000003"><a xlink:href="classdetail_1_1tm__writer.html#a1cabc65ab2cc70f017f44a37c6ccb83e" target="_top" xlink:title=" ">
<polygon fill="white" stroke="#666666" points="396,-335 292,-335 292,-305 396,-305 396,-335"/>
<text text-anchor="start" x="300" y="-323" font-family="Helvetica,sans-Serif" font-size="10.00">detail::tm_writer::</text>
<text text-anchor="middle" x="344" y="-312" font-family="Helvetica,sans-Serif" font-size="10.00">tm_hour</text>
</a>
</g>
</g>
<!-- Node2&#45;&gt;Node3 -->
<g id="edge2_Node000002_Node000003" class="edge">
<title>Node2&#45;&gt;Node3</title>
<g id="a_edge2_Node000002_Node000003"><a xlink:title=" ">
<path fill="none" stroke="#63b8ff" d="M240.05,-287.06C254.71,-291.75 271.03,-296.97 286.28,-301.85"/>
<polygon fill="#63b8ff" stroke="#63b8ff" points="285.53,-305.28 296.12,-305 287.66,-298.62 285.53,-305.28"/>
</a>
</g>
</g>
<!-- Node4 -->
<g id="Node000004" class="node">
<title>Node4</title>
<g id="a_Node000004"><a xlink:href="classdetail_1_1tm__writer.html#ab4c610dbee60f8ca391e2365848019ea" target="_top" xlink:title=" ">
<polygon fill="white" stroke="#666666" points="396,-287 292,-287 292,-257 396,-257 396,-287"/>
<text text-anchor="start" x="300" y="-275" font-family="Helvetica,sans-Serif" font-size="10.00">detail::tm_writer::</text>
<text text-anchor="middle" x="344" y="-264" font-family="Helvetica,sans-Serif" font-size="10.00">tm_min</text>
</a>
</g>
</g>
<!-- Node2&#45;&gt;Node4 -->
<g id="edge3_Node000002_Node000004" class="edge">
<title>Node2&#45;&gt;Node4</title>
<g id="a_edge3_Node000002_Node000004"><a xlink:title=" ">
<path fill="none" stroke="#63b8ff" d="M244.2,-272C256.2,-272 269.11,-272 281.51,-272"/>
<polygon fill="#63b8ff" stroke="#63b8ff" points="281.77,-275.5 291.77,-272 281.77,-268.5 281.77,-275.5"/>
</a>
</g>
</g>
<!-- Node6 -->
<g id="Node000006" class="node">
<title>Node6</title>
<g id="a_Node000006"><a xlink:href="classbasic__memory__buffer.html#a7a9300acfadb00a835b36a86a198f433" target="_top" xlink:title=" ">
<polygon fill="white" stroke="#666666" points="408,-239 280,-239 280,-209 408,-209 408,-239"/>
<text text-anchor="start" x="288" y="-227" font-family="Helvetica,sans-Serif" font-size="10.00">basic_memory_buffer</text>
<text text-anchor="middle" x="344" y="-216" font-family="Helvetica,sans-Serif" font-size="10.00">::basic_memory_buffer</text>
</a>
</g>
</g>
<!-- Node5&#45;&gt;Node6 -->
<g id="edge5_Node000005_Node000006" class="edge">
<title>Node5&#45;&gt;Node6</title>
<g id="a_edge5_Node000005_Node000006"><a xlink:title=" ">
<path fill="none" stroke="#63b8ff" d="M214.51,-159.18C231.72,-170.94 256.75,-187.17 280,-199 284,-201.04 288.21,-203.02 292.47,-204.92"/>
<polygon fill="#63b8ff" stroke="#63b8ff" points="291.27,-208.22 301.84,-208.95 294.04,-201.79 291.27,-208.22"/>
</a>
</g>
</g>
<!-- Node13 -->
<g id="Node000013" class="node">
<title>Node13</title>
<g id="a_Node000013"><a xlink:href="classdetail_1_1buffer.html#adf353302bef0b99c405ca999d07b39ed" target="_top" xlink:title=" ">
<polygon fill="white" stroke="#666666" points="400,-190.5 288,-190.5 288,-171.5 400,-171.5 400,-190.5"/>
<text text-anchor="middle" x="344" y="-178.5" font-family="Helvetica,sans-Serif" font-size="10.00">detail::buffer::begin</text>
</a>
</g>
</g>
<!-- Node5&#45;&gt;Node13 -->
<g id="edge12_Node000005_Node000013" class="edge">
<title>Node5&#45;&gt;Node13</title>
<g id="a_edge12_Node000005_Node000013"><a xlink:title=" ">
<path fill="none" stroke="#63b8ff" d="M244.2,-156.63C260.51,-160.65 278.49,-165.09 294.59,-169.06"/>
<polygon fill="#63b8ff" stroke="#63b8ff" points="293.79,-172.47 304.34,-171.46 295.47,-165.67 293.79,-172.47"/>
</a>
</g>
</g>
<!-- Node14 -->
<g id="Node000014" class="node">
<title>Node14</title>
<g id="a_Node000014"><a xlink:href="classdetail_1_1buffer.html#ac2b183d544845677a3b7d1137b17d16d" target="_top" xlink:title=" ">
<polygon fill="white" stroke="#666666" points="395.5,-153.5 292.5,-153.5 292.5,-134.5 395.5,-134.5 395.5,-153.5"/>
<text text-anchor="middle" x="344" y="-141.5" font-family="Helvetica,sans-Serif" font-size="10.00">detail::buffer::end</text>
</a>
</g>
</g>
<!-- Node5&#45;&gt;Node14 -->
<g id="edge13_Node000005_Node000014" class="edge">
<title>Node5&#45;&gt;Node14</title>
<g id="a_edge13_Node000005_Node000014"><a xlink:title=" ">
<path fill="none" stroke="#63b8ff" d="M244.2,-144C256.34,-144 269.4,-144 281.92,-144"/>
<polygon fill="#63b8ff" stroke="#63b8ff" points="282.28,-147.5 292.28,-144 282.28,-140.5 282.28,-147.5"/>
</a>
</g>
</g>
<!-- Node15 -->
<g id="Node000015" class="node">
<title>Node15</title>
<g id="a_Node000015"><a xlink:href="classdetail_1_1tm__writer.html#ab8f9095299300945a550e457b970f763" target="_top" xlink:title=" ">
<polygon fill="white" stroke="#666666" points="396,-116 292,-116 292,-86 396,-86 396,-116"/>
<text text-anchor="start" x="300" y="-104" font-family="Helvetica,sans-Serif" font-size="10.00">detail::tm_writer::</text>
<text text-anchor="middle" x="344" y="-93" font-family="Helvetica,sans-Serif" font-size="10.00">format_localized</text>
</a>
</g>
</g>
<!-- Node5&#45;&gt;Node15 -->
<g id="edge14_Node000005_Node000015" class="edge">
<title>Node5&#45;&gt;Node15</title>
<g id="a_edge14_Node000005_Node000015"><a xlink:title=" ">
<path fill="none" stroke="#63b8ff" d="M244.2,-129.32C256.32,-125.85 269.37,-122.11 281.88,-118.52"/>
<polygon fill="#63b8ff" stroke="#63b8ff" points="283.13,-121.8 291.77,-115.68 281.2,-115.08 283.13,-121.8"/>
</a>
</g>
</g>
<!-- Node16 -->
<g id="Node000016" class="node">
<title>Node16</title>
<g id="a_Node000016"><a xlink:href="classdetail_1_1buffer.html#a8685285932360c284d19003fc4ba3edc" target="_top" xlink:title="Returns the size of this buffer.">
<polygon fill="white" stroke="#666666" points="396,-67.5 292,-67.5 292,-48.5 396,-48.5 396,-67.5"/>
<text text-anchor="middle" x="344" y="-55.5" font-family="Helvetica,sans-Serif" font-size="10.00">detail::buffer::size</text>
</a>
</g>
</g>
<!-- Node5&#45;&gt;Node16 -->
<g id="edge15_Node000005_Node000016" class="edge">
<title>Node5&#45;&gt;Node16</title>
<g id="a_edge15_Node000005_Node000016"><a xlink:title=" ">
<path fill="none" stroke="#63b8ff" d="M208.77,-128.96C225.33,-113.91 252.7,-91.03 280,-77 284.34,-74.77 288.99,-72.75 293.73,-70.94"/>
<polygon fill="#63b8ff" stroke="#63b8ff" points="295.21,-74.13 303.49,-67.51 292.89,-67.53 295.21,-74.13"/>
</a>
</g>
</g>
<!-- Node17 -->
<g id="Node000017" class="node">
<title>Node17</title>
<g id="a_Node000017"><a xlink:href="classdetail_1_1tm__writer.html#a34eec6b5c9584aa781340fe01cd75e07" target="_top" xlink:title=" ">
<polygon fill="white" stroke="#666666" points="396,-30 292,-30 292,0 396,0 396,-30"/>
<text text-anchor="start" x="300" y="-18" font-family="Helvetica,sans-Serif" font-size="10.00">detail::tm_writer::</text>
<text text-anchor="middle" x="344" y="-7" font-family="Helvetica,sans-Serif" font-size="10.00">tm_sec</text>
</a>
</g>
</g>
<!-- Node5&#45;&gt;Node17 -->
<g id="edge16_Node000005_Node000017" class="edge">
<title>Node5&#45;&gt;Node17</title>
<g id="a_edge16_Node000005_Node000017"><a xlink:title=" ">
<path fill="none" stroke="#63b8ff" d="M202.06,-128.67C216.1,-106.11 245.16,-63.95 280,-39 281.89,-37.64 283.87,-36.35 285.92,-35.13"/>
<polygon fill="#63b8ff" stroke="#63b8ff" points="288.03,-37.96 295.19,-30.15 284.72,-31.8 288.03,-37.96"/>
</a>
</g>
</g>
<!-- Node7 -->
<g id="Node000007" class="node">
<title>Node7</title>
<g id="a_Node000007"><a xlink:href="classbasic__memory__buffer.html#a97d9a0a0f9827c9277e2eea97fa0309b" target="_top" xlink:title=" ">
<polygon fill="white" stroke="#666666" points="566,-263 444,-263 444,-233 566,-233 566,-263"/>
<text text-anchor="start" x="452" y="-251" font-family="Helvetica,sans-Serif" font-size="10.00">basic_memory_buffer</text>
<text text-anchor="middle" x="505" y="-240" font-family="Helvetica,sans-Serif" font-size="10.00">::grow</text>
</a>
</g>
</g>
<!-- Node6&#45;&gt;Node7 -->
<g id="edge6_Node000006_Node000007" class="edge">
<title>Node6&#45;&gt;Node7</title>
<g id="a_edge6_Node000006_Node000007"><a xlink:title=" ">
<path fill="none" stroke="#63b8ff" d="M408.3,-233.55C416.7,-234.82 425.36,-236.13 433.87,-237.41"/>
<polygon fill="#63b8ff" stroke="#63b8ff" points="433.36,-240.88 443.77,-238.91 434.4,-233.95 433.36,-240.88"/>
</a>
</g>
</g>
<!-- Node12 -->
<g id="Node000012" class="node">
<title>Node12</title>
<g id="a_Node000012"><a xlink:href="namespacedetail.html#a75ed2634319883d038944529dbb954e2" target="_top" xlink:title=" ">
<polygon fill="white" stroke="#666666" points="558,-215 452,-215 452,-185 558,-185 558,-215"/>
<text text-anchor="start" x="460" y="-203" font-family="Helvetica,sans-Serif" font-size="10.00">detail::is_constant</text>
<text text-anchor="middle" x="505" y="-192" font-family="Helvetica,sans-Serif" font-size="10.00">_evaluated</text>
</a>
</g>
</g>
<!-- Node6&#45;&gt;Node12 -->
<g id="edge11_Node000006_Node000012" class="edge">
<title>Node6&#45;&gt;Node12</title>
<g id="a_edge11_Node000006_Node000012"><a xlink:title=" ">
<path fill="none" stroke="#63b8ff" d="M408.3,-214.45C419.37,-212.77 430.88,-211.04 441.92,-209.37"/>
<polygon fill="#63b8ff" stroke="#63b8ff" points="442.53,-212.82 451.9,-207.86 441.49,-205.9 442.53,-212.82"/>
</a>
</g>
</g>
<!-- Node8 -->
<g id="Node000008" class="node">
<title>Node8</title>
<g id="a_Node000008"><a xlink:href="namespacedetail.html#a9d0b4b56d52390d7c8a4be7baa5e2382" target="_top" xlink:title=" ">
<polygon fill="white" stroke="#666666" points="730,-294.5 602,-294.5 602,-275.5 730,-275.5 730,-294.5"/>
<text text-anchor="middle" x="666" y="-282.5" font-family="Helvetica,sans-Serif" font-size="10.00">detail::abort_fuzzing_if</text>
</a>
</g>
</g>
<!-- Node7&#45;&gt;Node8 -->
<g id="edge7_Node000007_Node000008" class="edge">
<title>Node7&#45;&gt;Node8</title>
<g id="a_edge7_Node000007_Node000008"><a xlink:title=" ">
<path fill="none" stroke="#63b8ff" d="M566.11,-261.99C581.98,-265.68 598.95,-269.63 614.27,-273.2"/>
<polygon fill="#63b8ff" stroke="#63b8ff" points="613.54,-276.62 624.07,-275.48 615.13,-269.8 613.54,-276.62"/>
</a>
</g>
</g>
<!-- Node10 -->
<g id="Node000010" class="node">
<title>Node10</title>
<g id="a_Node000010"><a xlink:href="namespacedetail.html#a208b54c1c61a9bce9df4531a657a0c64" target="_top" xlink:title=" ">
<polygon fill="white" stroke="#666666" points="710.5,-257.5 621.5,-257.5 621.5,-238.5 710.5,-238.5 710.5,-257.5"/>
<text text-anchor="middle" x="666" y="-245.5" font-family="Helvetica,sans-Serif" font-size="10.00">detail::assume</text>
</a>
</g>
</g>
<!-- Node7&#45;&gt;Node10 -->
<g id="edge9_Node000007_Node000010" class="edge">
<title>Node7&#45;&gt;Node10</title>
<g id="a_edge9_Node000007_Node000010"><a xlink:title=" ">
<path fill="none" stroke="#63b8ff" d="M566.11,-248C580.83,-248 596.49,-248 610.91,-248"/>
<polygon fill="#63b8ff" stroke="#63b8ff" points="611.16,-251.5 621.16,-248 611.16,-244.5 611.16,-251.5"/>
</a>
</g>
</g>
<!-- Node11 -->
<g id="Node000011" class="node">
<title>Node11</title>
<g id="a_Node000011"><a xlink:href="base_8h.html#a67ebc2a5b1748c4692931267cd6f89bf" target="_top" xlink:title=" ">
<polygon fill="white" stroke="#666666" points="692.5,-220.5 639.5,-220.5 639.5,-201.5 692.5,-201.5 692.5,-220.5"/>
<text text-anchor="middle" x="666" y="-208.5" font-family="Helvetica,sans-Serif" font-size="10.00">max_of</text>
</a>
</g>
</g>
<!-- Node7&#45;&gt;Node11 -->
<g id="edge10_Node000007_Node000011" class="edge">
<title>Node7&#45;&gt;Node11</title>
<g id="a_edge10_Node000007_Node000011"><a xlink:title=" ">
<path fill="none" stroke="#63b8ff" d="M566.11,-234.01C587.48,-229.04 610.84,-223.6 629.49,-219.26"/>
<polygon fill="#63b8ff" stroke="#63b8ff" points="630.37,-222.65 639.32,-216.98 628.79,-215.83 630.37,-222.65"/>
</a>
</g>
</g>
<!-- Node9 -->
<g id="Node000009" class="node">
<title>Node9</title>
<g id="a_Node000009"><a xlink:href="namespacedetail.html#a1fe84ebaf96215ce0665d95b3124c2df" target="_top" xlink:title=" ">
<polygon fill="white" stroke="#666666" points="888,-294.5 766,-294.5 766,-275.5 888,-275.5 888,-294.5"/>
<text text-anchor="middle" x="827" y="-282.5" font-family="Helvetica,sans-Serif" font-size="10.00">detail::ignore_unused</text>
</a>
</g>
</g>
<!-- Node8&#45;&gt;Node9 -->
<g id="edge8_Node000008_Node000009" class="edge">
<title>Node8&#45;&gt;Node9</title>
<g id="a_edge8_Node000008_Node000009"><a xlink:title=" ">
<path fill="none" stroke="#63b8ff" d="M730.3,-285C738.61,-285 747.17,-285 755.59,-285"/>
<polygon fill="#63b8ff" stroke="#63b8ff" points="755.77,-288.5 765.77,-285 755.77,-281.5 755.77,-288.5"/>
</a>
</g>
</g>
</g>
</svg>
