<?xml version="1.0" encoding="UTF-8" standalone="no"?>
<!DOCTYPE svg PUBLIC "-//W3C//DTD SVG 1.1//EN"
 "http://www.w3.org/Graphics/SVG/1.1/DTD/svg11.dtd">
<!-- Generated by graphviz version 2.43.0 (0)
 -->
<!-- Title: basic_format_args::get Pages: 1 -->
<svg width="455pt" height="97pt"
 viewBox="0.00 0.00 455.00 96.50" xmlns="http://www.w3.org/2000/svg" xmlns:xlink="http://www.w3.org/1999/xlink">
<g id="graph0" class="graph" transform="scale(1 1) rotate(0) translate(4 92.5)">
<title>basic_format_args::get</title>
<!-- Node1 -->
<g id="Node000001" class="node">
<title>Node1</title>
<g id="a_Node000001"><a xlink:title="Returns the argument with the specified id.">
<polygon fill="#999999" stroke="#666666" points="128,-62 0,-62 0,-43 128,-43 128,-62"/>
<text text-anchor="middle" x="64" y="-50" font-family="Helvetica,sans-Serif" font-size="10.00">basic_format_args::get</text>
</a>
</g>
</g>
<!-- Node2 -->
<g id="Node000002" class="node">
<title>Node2</title>
<g id="a_Node000002"><a xlink:href="classbasic__format__args.html#a812f954be08646744a14d71f20b97830" target="_top" xlink:title=" ">
<polygon fill="white" stroke="#666666" points="447,-88.5 334,-88.5 334,-58.5 447,-58.5 447,-88.5"/>
<text text-anchor="start" x="342" y="-76.5" font-family="Helvetica,sans-Serif" font-size="10.00">basic_format_args::</text>
<text text-anchor="middle" x="390.5" y="-65.5" font-family="Helvetica,sans-Serif" font-size="10.00">is_packed</text>
</a>
</g>
</g>
<!-- Node1&#45;&gt;Node2 -->
<g id="edge1_Node000001_Node000002" class="edge">
<title>Node1&#45;&gt;Node2</title>
<g id="a_edge1_Node000001_Node000002"><a xlink:title=" ">
<path fill="none" stroke="#63b8ff" d="M96.31,-62.11C115.61,-67.53 141,-73.75 164,-76.5 217.38,-82.88 278.37,-81.55 323.45,-78.95"/>
<polygon fill="#63b8ff" stroke="#63b8ff" points="323.91,-82.43 333.68,-78.32 323.49,-75.44 323.91,-82.43"/>
</a>
</g>
</g>
<!-- Node3 -->
<g id="Node000003" class="node">
<title>Node3</title>
<g id="a_Node000003"><a xlink:href="classbasic__format__args.html#a7747894fe7c14fb78260b53ca7702782" target="_top" xlink:title=" ">
<polygon fill="white" stroke="#666666" points="287.5,-67.5 174.5,-67.5 174.5,-37.5 287.5,-37.5 287.5,-67.5"/>
<text text-anchor="start" x="182.5" y="-55.5" font-family="Helvetica,sans-Serif" font-size="10.00">basic_format_args::</text>
<text text-anchor="middle" x="231" y="-44.5" font-family="Helvetica,sans-Serif" font-size="10.00">max_size</text>
</a>
</g>
</g>
<!-- Node1&#45;&gt;Node3 -->
<g id="edge2_Node000001_Node000003" class="edge">
<title>Node1&#45;&gt;Node3</title>
<g id="a_edge2_Node000001_Node000003"><a xlink:title=" ">
<path fill="none" stroke="#63b8ff" d="M128.32,-52.5C140.06,-52.5 152.35,-52.5 164.16,-52.5"/>
<polygon fill="#63b8ff" stroke="#63b8ff" points="164.39,-56 174.39,-52.5 164.39,-49 164.39,-56"/>
</a>
</g>
</g>
<!-- Node4 -->
<g id="Node000004" class="node">
<title>Node4</title>
<g id="a_Node000004"><a xlink:href="classbasic__format__args.html#a4d5e597c31ce51609d7fa770c83dad39" target="_top" xlink:title=" ">
<polygon fill="white" stroke="#666666" points="298,-19 164,-19 164,0 298,0 298,-19"/>
<text text-anchor="middle" x="231" y="-7" font-family="Helvetica,sans-Serif" font-size="10.00">basic_format_args::type</text>
</a>
</g>
</g>
<!-- Node1&#45;&gt;Node4 -->
<g id="edge4_Node000001_Node000004" class="edge">
<title>Node1&#45;&gt;Node4</title>
<g id="a_edge4_Node000001_Node000004"><a xlink:title=" ">
<path fill="none" stroke="#63b8ff" d="M101.62,-42.96C125.76,-36.67 157.58,-28.37 183.5,-21.62"/>
<polygon fill="#63b8ff" stroke="#63b8ff" points="184.69,-24.93 193.48,-19.02 182.92,-18.15 184.69,-24.93"/>
</a>
</g>
</g>
<!-- Node3&#45;&gt;Node2 -->
<g id="edge3_Node000003_Node000002" class="edge">
<title>Node3&#45;&gt;Node2</title>
<g id="a_edge3_Node000003_Node000002"><a xlink:title=" ">
<path fill="none" stroke="#63b8ff" d="M287.53,-59.9C299.29,-61.47 311.81,-63.14 323.91,-64.75"/>
<polygon fill="#63b8ff" stroke="#63b8ff" points="323.57,-68.24 333.94,-66.09 324.49,-61.3 323.57,-68.24"/>
</a>
</g>
</g>
</g>
</svg>
