<?xml version="1.0" encoding="UTF-8" standalone="no"?>
<!DOCTYPE svg PUBLIC "-//W3C//DTD SVG 1.1//EN"
 "http://www.w3.org/Graphics/SVG/1.1/DTD/svg11.dtd">
<!-- Generated by graphviz version 2.43.0 (0)
 -->
<!-- Title: Magick::Error Pages: 1 -->
<svg width="552pt" height="693pt"
 viewBox="0.00 0.00 552.00 693.00" xmlns="http://www.w3.org/2000/svg" xmlns:xlink="http://www.w3.org/1999/xlink">
<g id="graph0" class="graph" transform="scale(1 1) rotate(0) translate(4 689)">
<title>Magick::Error</title>
<!-- Node1 -->
<g id="Node000001" class="node">
<title>Node1</title>
<g id="a_Node000001"><a xlink:title=" ">
<polygon fill="#999999" stroke="#666666" points="345,-352 264,-352 264,-333 345,-333 345,-352"/>
<text text-anchor="middle" x="304.5" y="-340" font-family="Helvetica,sans-Serif" font-size="10.00">Magick::Error</text>
</a>
</g>
</g>
<!-- Node4 -->
<g id="Node000004" class="node">
<title>Node4</title>
<g id="a_Node000004"><a xlink:href="classMagick_1_1ErrorBlob.html" target="_top" xlink:title=" ">
<polygon fill="white" stroke="#666666" points="514,-685 411,-685 411,-666 514,-666 514,-685"/>
<text text-anchor="middle" x="462.5" y="-673" font-family="Helvetica,sans-Serif" font-size="10.00">Magick::ErrorBlob</text>
</a>
</g>
</g>
<!-- Node1&#45;&gt;Node4 -->
<g id="edge3_Node000001_Node000004" class="edge">
<title>Node1&#45;&gt;Node4</title>
<g id="a_edge3_Node000001_Node000004"><a xlink:title=" ">
<path fill="none" stroke="#63b8ff" d="M307.54,-362.42C314.35,-424.91 338.28,-615.43 381,-657.5 389.06,-665.44 399.81,-670.19 410.83,-672.97"/>
<polygon fill="#63b8ff" stroke="#63b8ff" points="311,-361.88 306.47,-352.3 304.04,-362.62 311,-361.88"/>
</a>
</g>
</g>
<!-- Node5 -->
<g id="Node000005" class="node">
<title>Node5</title>
<g id="a_Node000005"><a xlink:href="classMagick_1_1ErrorCache.html" target="_top" xlink:title=" ">
<polygon fill="white" stroke="#666666" points="518,-648 407,-648 407,-629 518,-629 518,-648"/>
<text text-anchor="middle" x="462.5" y="-636" font-family="Helvetica,sans-Serif" font-size="10.00">Magick::ErrorCache</text>
</a>
</g>
</g>
<!-- Node1&#45;&gt;Node5 -->
<g id="edge4_Node000001_Node000005" class="edge">
<title>Node1&#45;&gt;Node5</title>
<g id="a_edge4_Node000001_Node000005"><a xlink:title=" ">
<path fill="none" stroke="#63b8ff" d="M308.2,-362.28C316.43,-419.61 342.95,-584.13 381,-620.5 388.14,-627.33 397.28,-631.78 406.83,-634.65"/>
<polygon fill="#63b8ff" stroke="#63b8ff" points="311.62,-361.45 306.76,-352.03 304.69,-362.42 311.62,-361.45"/>
</a>
</g>
</g>
<!-- Node6 -->
<g id="Node000006" class="node">
<title>Node6</title>
<g id="a_Node000006"><a xlink:href="classMagick_1_1ErrorCoder.html" target="_top" xlink:title=" ">
<polygon fill="white" stroke="#666666" points="517.5,-611 407.5,-611 407.5,-592 517.5,-592 517.5,-611"/>
<text text-anchor="middle" x="462.5" y="-599" font-family="Helvetica,sans-Serif" font-size="10.00">Magick::ErrorCoder</text>
</a>
</g>
</g>
<!-- Node1&#45;&gt;Node6 -->
<g id="edge5_Node000001_Node000006" class="edge">
<title>Node1&#45;&gt;Node6</title>
<g id="a_edge5_Node000001_Node000006"><a xlink:title=" ">
<path fill="none" stroke="#63b8ff" d="M305.46,-362.22C306.5,-408.28 315.85,-523.58 381,-583.5 388.38,-590.29 397.74,-594.71 407.45,-597.55"/>
<polygon fill="#63b8ff" stroke="#63b8ff" points="308.96,-362.03 305.35,-352.07 301.96,-362.11 308.96,-362.03"/>
</a>
</g>
</g>
<!-- Node7 -->
<g id="Node000007" class="node">
<title>Node7</title>
<g id="a_Node000007"><a xlink:href="classMagick_1_1ErrorConfigure.html" target="_top" xlink:title=" ">
<polygon fill="white" stroke="#666666" points="526.5,-574 398.5,-574 398.5,-555 526.5,-555 526.5,-574"/>
<text text-anchor="middle" x="462.5" y="-562" font-family="Helvetica,sans-Serif" font-size="10.00">Magick::ErrorConfigure</text>
</a>
</g>
</g>
<!-- Node1&#45;&gt;Node7 -->
<g id="edge6_Node000001_Node000007" class="edge">
<title>Node1&#45;&gt;Node7</title>
<g id="a_edge6_Node000001_Node000007"><a xlink:title=" ">
<path fill="none" stroke="#63b8ff" d="M306.78,-362.51C310.54,-403.59 325.11,-497.67 381,-546.5 386.07,-550.93 391.99,-554.34 398.28,-556.95"/>
<polygon fill="#63b8ff" stroke="#63b8ff" points="310.26,-362.1 305.98,-352.41 303.28,-362.66 310.26,-362.1"/>
</a>
</g>
</g>
<!-- Node8 -->
<g id="Node000008" class="node">
<title>Node8</title>
<g id="a_Node000008"><a xlink:href="classMagick_1_1ErrorCorruptImage.html" target="_top" xlink:title=" ">
<polygon fill="white" stroke="#666666" points="536.5,-537 388.5,-537 388.5,-518 536.5,-518 536.5,-537"/>
<text text-anchor="middle" x="462.5" y="-525" font-family="Helvetica,sans-Serif" font-size="10.00">Magick::ErrorCorruptImage</text>
</a>
</g>
</g>
<!-- Node1&#45;&gt;Node8 -->
<g id="edge7_Node000001_Node000008" class="edge">
<title>Node1&#45;&gt;Node8</title>
<g id="a_edge7_Node000001_Node000008"><a xlink:title=" ">
<path fill="none" stroke="#63b8ff" d="M308.58,-362.25C315.16,-397.53 334.01,-471.26 381,-509.5 385.11,-512.84 389.71,-515.6 394.58,-517.86"/>
<polygon fill="#63b8ff" stroke="#63b8ff" points="312,-361.5 306.85,-352.24 305.1,-362.69 312,-361.5"/>
</a>
</g>
</g>
<!-- Node9 -->
<g id="Node000009" class="node">
<title>Node9</title>
<g id="a_Node000009"><a xlink:href="classMagick_1_1ErrorDelegate.html" target="_top" xlink:title=" ">
<polygon fill="white" stroke="#666666" points="525,-500 400,-500 400,-481 525,-481 525,-500"/>
<text text-anchor="middle" x="462.5" y="-488" font-family="Helvetica,sans-Serif" font-size="10.00">Magick::ErrorDelegate</text>
</a>
</g>
</g>
<!-- Node1&#45;&gt;Node9 -->
<g id="edge8_Node000001_Node000009" class="edge">
<title>Node1&#45;&gt;Node9</title>
<g id="a_edge8_Node000001_Node000009"><a xlink:title=" ">
<path fill="none" stroke="#63b8ff" d="M311.21,-361.88C320.74,-390.7 342.73,-444.46 381,-472.5 386.66,-476.65 393.1,-479.87 399.82,-482.36"/>
<polygon fill="#63b8ff" stroke="#63b8ff" points="314.49,-360.65 308.16,-352.16 307.81,-362.75 314.49,-360.65"/>
</a>
</g>
</g>
<!-- Node10 -->
<g id="Node000010" class="node">
<title>Node10</title>
<g id="a_Node000010"><a xlink:href="classMagick_1_1ErrorDraw.html" target="_top" xlink:title=" ">
<polygon fill="white" stroke="#666666" points="516,-463 409,-463 409,-444 516,-444 516,-463"/>
<text text-anchor="middle" x="462.5" y="-451" font-family="Helvetica,sans-Serif" font-size="10.00">Magick::ErrorDraw</text>
</a>
</g>
</g>
<!-- Node1&#45;&gt;Node10 -->
<g id="edge9_Node000001_Node000010" class="edge">
<title>Node1&#45;&gt;Node10</title>
<g id="a_edge9_Node000001_Node000010"><a xlink:title=" ">
<path fill="none" stroke="#63b8ff" d="M315.36,-360.97C327.76,-382.35 351.1,-416.99 381,-435.5 389.4,-440.7 399.12,-444.41 408.84,-447.05"/>
<polygon fill="#63b8ff" stroke="#63b8ff" points="318.38,-359.21 310.44,-352.19 312.27,-362.62 318.38,-359.21"/>
</a>
</g>
</g>
<!-- Node11 -->
<g id="Node000011" class="node">
<title>Node11</title>
<g id="a_Node000011"><a xlink:href="classMagick_1_1ErrorFileOpen.html" target="_top" xlink:title=" ">
<polygon fill="white" stroke="#666666" points="524.5,-426 400.5,-426 400.5,-407 524.5,-407 524.5,-426"/>
<text text-anchor="middle" x="462.5" y="-414" font-family="Helvetica,sans-Serif" font-size="10.00">Magick::ErrorFileOpen</text>
</a>
</g>
</g>
<!-- Node1&#45;&gt;Node11 -->
<g id="edge10_Node000001_Node000011" class="edge">
<title>Node1&#45;&gt;Node11</title>
<g id="a_edge10_Node000001_Node000011"><a xlink:title=" ">
<path fill="none" stroke="#63b8ff" d="M323.5,-359.28C337.98,-371.89 359.41,-388.62 381,-398.5 388.42,-401.9 396.53,-404.67 404.65,-406.94"/>
<polygon fill="#63b8ff" stroke="#63b8ff" points="325.61,-356.48 315.83,-352.42 320.95,-361.7 325.61,-356.48"/>
</a>
</g>
</g>
<!-- Node12 -->
<g id="Node000012" class="node">
<title>Node12</title>
<g id="a_Node000012"><a xlink:href="classMagick_1_1ErrorImage.html" target="_top" xlink:title=" ">
<polygon fill="white" stroke="#666666" points="518.5,-389 406.5,-389 406.5,-370 518.5,-370 518.5,-389"/>
<text text-anchor="middle" x="462.5" y="-377" font-family="Helvetica,sans-Serif" font-size="10.00">Magick::ErrorImage</text>
</a>
</g>
</g>
<!-- Node1&#45;&gt;Node12 -->
<g id="edge11_Node000001_Node000012" class="edge">
<title>Node1&#45;&gt;Node12</title>
<g id="a_edge11_Node000001_Node000012"><a xlink:title=" ">
<path fill="none" stroke="#63b8ff" d="M352.67,-354.58C362.04,-356.92 371.83,-359.32 381,-361.5 392.98,-364.35 406,-367.31 418,-370"/>
<polygon fill="#63b8ff" stroke="#63b8ff" points="353.25,-351.11 342.7,-352.07 351.55,-357.9 353.25,-351.11"/>
</a>
</g>
</g>
<!-- Node13 -->
<g id="Node000013" class="node">
<title>Node13</title>
<g id="a_Node000013"><a xlink:href="classMagick_1_1ErrorMissingDelegate.html" target="_top" xlink:title=" ">
<polygon fill="white" stroke="#666666" points="544,-352 381,-352 381,-333 544,-333 544,-352"/>
<text text-anchor="middle" x="462.5" y="-340" font-family="Helvetica,sans-Serif" font-size="10.00">Magick::ErrorMissingDelegate</text>
</a>
</g>
</g>
<!-- Node1&#45;&gt;Node13 -->
<g id="edge12_Node000001_Node000013" class="edge">
<title>Node1&#45;&gt;Node13</title>
<g id="a_edge12_Node000001_Node000013"><a xlink:title=" ">
<path fill="none" stroke="#63b8ff" d="M355.32,-342.5C363.47,-342.5 372.11,-342.5 380.79,-342.5"/>
<polygon fill="#63b8ff" stroke="#63b8ff" points="355.27,-339 345.27,-342.5 355.27,-346 355.27,-339"/>
</a>
</g>
</g>
<!-- Node14 -->
<g id="Node000014" class="node">
<title>Node14</title>
<g id="a_Node000014"><a xlink:href="classMagick_1_1ErrorModule.html" target="_top" xlink:title=" ">
<polygon fill="white" stroke="#666666" points="521,-315 404,-315 404,-296 521,-296 521,-315"/>
<text text-anchor="middle" x="462.5" y="-303" font-family="Helvetica,sans-Serif" font-size="10.00">Magick::ErrorModule</text>
</a>
</g>
</g>
<!-- Node1&#45;&gt;Node14 -->
<g id="edge13_Node000001_Node000014" class="edge">
<title>Node1&#45;&gt;Node14</title>
<g id="a_edge13_Node000001_Node000014"><a xlink:title=" ">
<path fill="none" stroke="#63b8ff" d="M352.67,-330.42C362.04,-328.08 371.83,-325.68 381,-323.5 392.98,-320.65 406,-317.69 418,-315"/>
<polygon fill="#63b8ff" stroke="#63b8ff" points="351.55,-327.1 342.7,-332.93 353.25,-333.89 351.55,-327.1"/>
</a>
</g>
</g>
<!-- Node15 -->
<g id="Node000015" class="node">
<title>Node15</title>
<g id="a_Node000015"><a xlink:href="classMagick_1_1ErrorMonitor.html" target="_top" xlink:title=" ">
<polygon fill="white" stroke="#666666" points="522,-278 403,-278 403,-259 522,-259 522,-278"/>
<text text-anchor="middle" x="462.5" y="-266" font-family="Helvetica,sans-Serif" font-size="10.00">Magick::ErrorMonitor</text>
</a>
</g>
</g>
<!-- Node1&#45;&gt;Node15 -->
<g id="edge14_Node000001_Node000015" class="edge">
<title>Node1&#45;&gt;Node15</title>
<g id="a_edge14_Node000001_Node000015"><a xlink:title=" ">
<path fill="none" stroke="#63b8ff" d="M323.5,-325.72C337.98,-313.11 359.41,-296.38 381,-286.5 388.42,-283.1 396.53,-280.33 404.65,-278.06"/>
<polygon fill="#63b8ff" stroke="#63b8ff" points="320.95,-323.3 315.83,-332.58 325.61,-328.52 320.95,-323.3"/>
</a>
</g>
</g>
<!-- Node16 -->
<g id="Node000016" class="node">
<title>Node16</title>
<g id="a_Node000016"><a xlink:href="classMagick_1_1ErrorOption.html" target="_top" xlink:title=" ">
<polygon fill="white" stroke="#666666" points="519,-241 406,-241 406,-222 519,-222 519,-241"/>
<text text-anchor="middle" x="462.5" y="-229" font-family="Helvetica,sans-Serif" font-size="10.00">Magick::ErrorOption</text>
</a>
</g>
</g>
<!-- Node1&#45;&gt;Node16 -->
<g id="edge15_Node000001_Node000016" class="edge">
<title>Node1&#45;&gt;Node16</title>
<g id="a_edge15_Node000001_Node000016"><a xlink:title=" ">
<path fill="none" stroke="#63b8ff" d="M315.36,-324.03C327.76,-302.65 351.1,-268.01 381,-249.5 388.55,-244.83 397.16,-241.36 405.88,-238.79"/>
<polygon fill="#63b8ff" stroke="#63b8ff" points="312.27,-322.38 310.44,-332.81 318.38,-325.79 312.27,-322.38"/>
</a>
</g>
</g>
<!-- Node17 -->
<g id="Node000017" class="node">
<title>Node17</title>
<g id="a_Node000017"><a xlink:href="classMagick_1_1ErrorRegistry.html" target="_top" xlink:title=" ">
<polygon fill="white" stroke="#666666" points="523.5,-204 401.5,-204 401.5,-185 523.5,-185 523.5,-204"/>
<text text-anchor="middle" x="462.5" y="-192" font-family="Helvetica,sans-Serif" font-size="10.00">Magick::ErrorRegistry</text>
</a>
</g>
</g>
<!-- Node1&#45;&gt;Node17 -->
<g id="edge16_Node000001_Node000017" class="edge">
<title>Node1&#45;&gt;Node17</title>
<g id="a_edge16_Node000001_Node000017"><a xlink:title=" ">
<path fill="none" stroke="#63b8ff" d="M311.21,-323.12C320.74,-294.3 342.73,-240.54 381,-212.5 387.12,-208.01 394.16,-204.61 401.47,-202.04"/>
<polygon fill="#63b8ff" stroke="#63b8ff" points="307.81,-322.25 308.16,-332.84 314.49,-324.35 307.81,-322.25"/>
</a>
</g>
</g>
<!-- Node18 -->
<g id="Node000018" class="node">
<title>Node18</title>
<g id="a_Node000018"><a xlink:href="classMagick_1_1ErrorResourceLimit.html" target="_top" xlink:title=" ">
<polygon fill="white" stroke="#666666" points="538,-167 387,-167 387,-148 538,-148 538,-167"/>
<text text-anchor="middle" x="462.5" y="-155" font-family="Helvetica,sans-Serif" font-size="10.00">Magick::ErrorResourceLimit</text>
</a>
</g>
</g>
<!-- Node1&#45;&gt;Node18 -->
<g id="edge17_Node000001_Node000018" class="edge">
<title>Node1&#45;&gt;Node18</title>
<g id="a_edge17_Node000001_Node000018"><a xlink:title=" ">
<path fill="none" stroke="#63b8ff" d="M308.58,-322.75C315.16,-287.47 334.01,-213.74 381,-175.5 385.11,-172.16 389.71,-169.4 394.58,-167.14"/>
<polygon fill="#63b8ff" stroke="#63b8ff" points="305.1,-322.31 306.85,-332.76 312,-323.5 305.1,-322.31"/>
</a>
</g>
</g>
<!-- Node19 -->
<g id="Node000019" class="node">
<title>Node19</title>
<g id="a_Node000019"><a xlink:href="classMagick_1_1ErrorStream.html" target="_top" xlink:title=" ">
<polygon fill="white" stroke="#666666" points="520.5,-130 404.5,-130 404.5,-111 520.5,-111 520.5,-130"/>
<text text-anchor="middle" x="462.5" y="-118" font-family="Helvetica,sans-Serif" font-size="10.00">Magick::ErrorStream</text>
</a>
</g>
</g>
<!-- Node1&#45;&gt;Node19 -->
<g id="edge18_Node000001_Node000019" class="edge">
<title>Node1&#45;&gt;Node19</title>
<g id="a_edge18_Node000001_Node000019"><a xlink:title=" ">
<path fill="none" stroke="#63b8ff" d="M306.78,-322.49C310.54,-281.41 325.11,-187.33 381,-138.5 387.69,-132.66 395.86,-128.59 404.4,-125.78"/>
<polygon fill="#63b8ff" stroke="#63b8ff" points="303.28,-322.34 305.98,-332.59 310.26,-322.9 303.28,-322.34"/>
</a>
</g>
</g>
<!-- Node20 -->
<g id="Node000020" class="node">
<title>Node20</title>
<g id="a_Node000020"><a xlink:href="classMagick_1_1ErrorType.html" target="_top" xlink:title=" ">
<polygon fill="white" stroke="#666666" points="514.5,-93 410.5,-93 410.5,-74 514.5,-74 514.5,-93"/>
<text text-anchor="middle" x="462.5" y="-81" font-family="Helvetica,sans-Serif" font-size="10.00">Magick::ErrorType</text>
</a>
</g>
</g>
<!-- Node1&#45;&gt;Node20 -->
<g id="edge19_Node000001_Node000020" class="edge">
<title>Node1&#45;&gt;Node20</title>
<g id="a_edge19_Node000001_Node000020"><a xlink:title=" ">
<path fill="none" stroke="#63b8ff" d="M305.46,-322.78C306.5,-276.72 315.85,-161.42 381,-101.5 389.12,-94.04 399.63,-89.43 410.37,-86.65"/>
<polygon fill="#63b8ff" stroke="#63b8ff" points="301.96,-322.89 305.35,-332.93 308.96,-322.97 301.96,-322.89"/>
</a>
</g>
</g>
<!-- Node21 -->
<g id="Node000021" class="node">
<title>Node21</title>
<g id="a_Node000021"><a xlink:href="classMagick_1_1ErrorUndefined.html" target="_top" xlink:title=" ">
<polygon fill="white" stroke="#666666" points="528,-56 397,-56 397,-37 528,-37 528,-56"/>
<text text-anchor="middle" x="462.5" y="-44" font-family="Helvetica,sans-Serif" font-size="10.00">Magick::ErrorUndefined</text>
</a>
</g>
</g>
<!-- Node1&#45;&gt;Node21 -->
<g id="edge20_Node000001_Node000021" class="edge">
<title>Node1&#45;&gt;Node21</title>
<g id="a_edge20_Node000001_Node000021"><a xlink:title=" ">
<path fill="none" stroke="#63b8ff" d="M308.2,-322.72C316.43,-265.39 342.95,-100.87 381,-64.5 385.56,-60.15 390.92,-56.76 396.69,-54.13"/>
<polygon fill="#63b8ff" stroke="#63b8ff" points="304.69,-322.58 306.76,-332.97 311.62,-323.55 304.69,-322.58"/>
</a>
</g>
</g>
<!-- Node22 -->
<g id="Node000022" class="node">
<title>Node22</title>
<g id="a_Node000022"><a xlink:href="classMagick_1_1ErrorXServer.html" target="_top" xlink:title=" ">
<polygon fill="white" stroke="#666666" points="522,-19 403,-19 403,0 522,0 522,-19"/>
<text text-anchor="middle" x="462.5" y="-7" font-family="Helvetica,sans-Serif" font-size="10.00">Magick::ErrorXServer</text>
</a>
</g>
</g>
<!-- Node1&#45;&gt;Node22 -->
<g id="edge21_Node000001_Node000022" class="edge">
<title>Node1&#45;&gt;Node22</title>
<g id="a_edge21_Node000001_Node000022"><a xlink:title=" ">
<path fill="none" stroke="#63b8ff" d="M307.54,-322.58C314.35,-260.09 338.28,-69.57 381,-27.5 387.12,-21.47 394.8,-17.28 402.96,-14.39"/>
<polygon fill="#63b8ff" stroke="#63b8ff" points="304.04,-322.38 306.47,-332.7 311,-323.12 304.04,-322.38"/>
</a>
</g>
</g>
<!-- Node2 -->
<g id="Node000002" class="node">
<title>Node2</title>
<g id="a_Node000002"><a xlink:href="classMagick_1_1Exception.html" target="_top" xlink:title=" ">
<polygon fill="white" stroke="#666666" points="228,-352 122,-352 122,-333 228,-333 228,-352"/>
<text text-anchor="middle" x="175" y="-340" font-family="Helvetica,sans-Serif" font-size="10.00">Magick::Exception</text>
</a>
</g>
</g>
<!-- Node2&#45;&gt;Node1 -->
<g id="edge1_Node000001_Node000002" class="edge">
<title>Node2&#45;&gt;Node1</title>
<g id="a_edge1_Node000001_Node000002"><a xlink:title=" ">
<path fill="none" stroke="#63b8ff" d="M238.3,-342.5C246.93,-342.5 255.59,-342.5 263.65,-342.5"/>
<polygon fill="#63b8ff" stroke="#63b8ff" points="238.23,-339 228.23,-342.5 238.23,-346 238.23,-339"/>
</a>
</g>
</g>
<!-- Node3 -->
<g id="Node000003" class="node">
<title>Node3</title>
<g id="a_Node000003"><a xlink:title=" ">
<polygon fill="white" stroke="#666666" points="86,-352 0,-352 0,-333 86,-333 86,-352"/>
<text text-anchor="middle" x="43" y="-340" font-family="Helvetica,sans-Serif" font-size="10.00">std::exception</text>
</a>
</g>
</g>
<!-- Node3&#45;&gt;Node2 -->
<g id="edge2_Node000002_Node000003" class="edge">
<title>Node3&#45;&gt;Node2</title>
<g id="a_edge2_Node000002_Node000003"><a xlink:title=" ">
<path fill="none" stroke="#63b8ff" d="M96.48,-342.5C104.74,-342.5 113.28,-342.5 121.54,-342.5"/>
<polygon fill="#63b8ff" stroke="#63b8ff" points="96.21,-339 86.21,-342.5 96.21,-346 96.21,-339"/>
</a>
</g>
</g>
</g>
</svg>
