<?xml version="1.0" encoding="UTF-8" standalone="no"?>
<!DOCTYPE svg PUBLIC "-//W3C//DTD SVG 1.1//EN"
 "http://www.w3.org/Graphics/SVG/1.1/DTD/svg11.dtd">
<!-- Generated by graphviz version 2.43.0 (0)
 -->
<!-- Title: LoRaWANPackage Pages: 1 -->
<svg width="294pt" height="82pt"
 viewBox="0.00 0.00 294.00 82.00" xmlns="http://www.w3.org/2000/svg" xmlns:xlink="http://www.w3.org/1999/xlink">
<g id="graph0" class="graph" transform="scale(1 1) rotate(0) translate(4 78)">
<title>LoRaWANPackage</title>
<!-- Node1 -->
<g id="Node000001" class="node">
<title>Node1</title>
<g id="a_Node000001"><a xlink:title="Common interface for all application packages.">
<polygon fill="#999999" stroke="#666666" points="195,-74 91,-74 91,-55 195,-55 195,-74"/>
<text text-anchor="middle" x="143" y="-62" font-family="Helvetica,sans-Serif" font-size="10.00">LoRaWANPackage</text>
</a>
</g>
</g>
<!-- Node2 -->
<g id="Node000002" class="node">
<title>Node2</title>
<g id="a_Node000002"><a xlink:href="classLoRaWANPackageTS003.html" target="_top" xlink:title="LoRaWAN Application package for TS003 Application Time.">
<polygon fill="white" stroke="#666666" points="134,-19 0,-19 0,0 134,0 134,-19"/>
<text text-anchor="middle" x="67" y="-7" font-family="Helvetica,sans-Serif" font-size="10.00">LoRaWANPackageTS003</text>
</a>
</g>
</g>
<!-- Node1&#45;&gt;Node2 -->
<g id="edge1_Node000001_Node000002" class="edge">
<title>Node1&#45;&gt;Node2</title>
<g id="a_edge1_Node000001_Node000002"><a xlink:title=" ">
<path fill="none" stroke="#63b8ff" d="M122.42,-49.15C108.69,-39.57 91.07,-27.29 79.43,-19.17"/>
<polygon fill="#63b8ff" stroke="#63b8ff" points="120.58,-52.14 130.79,-54.98 124.59,-46.39 120.58,-52.14"/>
</a>
</g>
</g>
<!-- Node3 -->
<g id="Node000003" class="node">
<title>Node3</title>
<g id="a_Node000003"><a xlink:href="classLoRaWANPackageTS009.html" target="_top" xlink:title="LoRaWAN Application package for TS009 Certification testing.">
<polygon fill="white" stroke="#666666" points="286,-19 152,-19 152,0 286,0 286,-19"/>
<text text-anchor="middle" x="219" y="-7" font-family="Helvetica,sans-Serif" font-size="10.00">LoRaWANPackageTS009</text>
</a>
</g>
</g>
<!-- Node1&#45;&gt;Node3 -->
<g id="edge2_Node000001_Node000003" class="edge">
<title>Node1&#45;&gt;Node3</title>
<g id="a_edge2_Node000001_Node000003"><a xlink:title=" ">
<path fill="none" stroke="#63b8ff" d="M163.58,-49.15C177.31,-39.57 194.93,-27.29 206.57,-19.17"/>
<polygon fill="#63b8ff" stroke="#63b8ff" points="161.41,-46.39 155.21,-54.98 165.42,-52.14 161.41,-46.39"/>
</a>
</g>
</g>
</g>
</svg>
