<?xml version="1.0" encoding="UTF-8" standalone="no"?>
<!DOCTYPE svg PUBLIC "-//W3C//DTD SVG 1.1//EN"
 "http://www.w3.org/Graphics/SVG/1.1/DTD/svg11.dtd">
<!-- Generated by graphviz version 2.43.0 (0)
 -->
<!-- Title: detail::buffer::end Pages: 1 -->
<svg width="609pt" height="110pt"
 viewBox="0.00 0.00 609.00 110.00" xmlns="http://www.w3.org/2000/svg" xmlns:xlink="http://www.w3.org/1999/xlink">
<g id="graph0" class="graph" transform="scale(1 1) rotate(0) translate(4 106)">
<title>detail::buffer::end</title>
<!-- Node1 -->
<g id="Node000001" class="node">
<title>Node1</title>
<g id="a_Node000001"><a xlink:title=" ">
<polygon fill="#999999" stroke="#666666" points="601,-48.5 498,-48.5 498,-29.5 601,-29.5 601,-48.5"/>
<text text-anchor="middle" x="549.5" y="-36.5" font-family="Helvetica,sans-Serif" font-size="10.00">detail::buffer::end</text>
</a>
</g>
</g>
<!-- Node2 -->
<g id="Node000002" class="node">
<title>Node2</title>
<g id="a_Node000002"><a xlink:href="classdetail_1_1tm__writer.html#a57084e1a4311b7439ef4217fa3018285" target="_top" xlink:title=" ">
<polygon fill="white" stroke="#666666" points="442.5,-78 338.5,-78 338.5,-48 442.5,-48 442.5,-78"/>
<text text-anchor="start" x="346.5" y="-66" font-family="Helvetica,sans-Serif" font-size="10.00">detail::tm_writer::</text>
<text text-anchor="middle" x="390.5" y="-55" font-family="Helvetica,sans-Serif" font-size="10.00">on_second</text>
</a>
</g>
</g>
<!-- Node1&#45;&gt;Node2 -->
<g id="edge1_Node000001_Node000002" class="edge">
<title>Node1&#45;&gt;Node2</title>
<g id="a_edge1_Node000001_Node000002"><a xlink:title=" ">
<path fill="none" stroke="#63b8ff" d="M487.83,-48.28C472.94,-50.55 457.15,-52.96 442.75,-55.17"/>
<polygon fill="#63b8ff" stroke="#63b8ff" points="488.6,-51.7 497.96,-46.73 487.55,-44.78 488.6,-51.7"/>
</a>
</g>
</g>
<!-- Node6 -->
<g id="Node000006" class="node">
<title>Node6</title>
<g id="a_Node000006"><a xlink:href="structdetail_1_1duration__formatter.html#a5eaa3651f2774bf273f23c4a6cb232a2" target="_top" xlink:title=" ">
<polygon fill="white" stroke="#666666" points="462,-30 319,-30 319,0 462,0 462,-30"/>
<text text-anchor="start" x="327" y="-18" font-family="Helvetica,sans-Serif" font-size="10.00">detail::duration_formatter</text>
<text text-anchor="middle" x="390.5" y="-7" font-family="Helvetica,sans-Serif" font-size="10.00">::on_second</text>
</a>
</g>
</g>
<!-- Node1&#45;&gt;Node6 -->
<g id="edge5_Node000001_Node000006" class="edge">
<title>Node1&#45;&gt;Node6</title>
<g id="a_edge5_Node000001_Node000006"><a xlink:title=" ">
<path fill="none" stroke="#63b8ff" d="M487.89,-29.73C479.49,-28.45 470.81,-27.12 462.25,-25.81"/>
<polygon fill="#63b8ff" stroke="#63b8ff" points="487.55,-33.22 497.96,-31.27 488.6,-26.3 487.55,-33.22"/>
</a>
</g>
</g>
<!-- Node3 -->
<g id="Node000003" class="node">
<title>Node3</title>
<g id="a_Node000003"><a xlink:href="classdetail_1_1tm__writer.html#a4a0487e028e1502e59e0f29f896ff740" target="_top" xlink:title=" ">
<polygon fill="white" stroke="#666666" points="263.5,-78 159.5,-78 159.5,-48 263.5,-48 263.5,-78"/>
<text text-anchor="start" x="167.5" y="-66" font-family="Helvetica,sans-Serif" font-size="10.00">detail::tm_writer::</text>
<text text-anchor="middle" x="211.5" y="-55" font-family="Helvetica,sans-Serif" font-size="10.00">on_iso_time</text>
</a>
</g>
</g>
<!-- Node2&#45;&gt;Node3 -->
<g id="edge2_Node000002_Node000003" class="edge">
<title>Node2&#45;&gt;Node3</title>
<g id="a_edge2_Node000002_Node000003"><a xlink:title=" ">
<path fill="none" stroke="#63b8ff" d="M328.17,-63C307.1,-63 283.75,-63 263.58,-63"/>
<polygon fill="#63b8ff" stroke="#63b8ff" points="328.3,-66.5 338.3,-63 328.3,-59.5 328.3,-66.5"/>
</a>
</g>
</g>
<!-- Node4 -->
<g id="Node000004" class="node">
<title>Node4</title>
<g id="a_Node000004"><a xlink:href="classdetail_1_1tm__writer.html#af53d115957cdef5079ea641b12d8dce9" target="_top" xlink:title=" ">
<polygon fill="white" stroke="#666666" points="104,-102 0,-102 0,-72 104,-72 104,-102"/>
<text text-anchor="start" x="8" y="-90" font-family="Helvetica,sans-Serif" font-size="10.00">detail::tm_writer::</text>
<text text-anchor="middle" x="52" y="-79" font-family="Helvetica,sans-Serif" font-size="10.00">on_datetime</text>
</a>
</g>
</g>
<!-- Node3&#45;&gt;Node4 -->
<g id="edge3_Node000003_Node000004" class="edge">
<title>Node3&#45;&gt;Node4</title>
<g id="a_edge3_Node000003_Node000004"><a xlink:title=" ">
<path fill="none" stroke="#63b8ff" d="M149.21,-72.34C134.31,-74.61 118.53,-77.02 104.15,-79.21"/>
<polygon fill="#63b8ff" stroke="#63b8ff" points="150.01,-75.76 159.36,-70.79 148.95,-68.84 150.01,-75.76"/>
</a>
</g>
</g>
<!-- Node5 -->
<g id="Node000005" class="node">
<title>Node5</title>
<g id="a_Node000005"><a xlink:href="classdetail_1_1tm__writer.html#a67832bfe5da8fdfae46367a14fb35d48" target="_top" xlink:title=" ">
<polygon fill="white" stroke="#666666" points="104,-54 0,-54 0,-24 104,-24 104,-54"/>
<text text-anchor="start" x="8" y="-42" font-family="Helvetica,sans-Serif" font-size="10.00">detail::tm_writer::</text>
<text text-anchor="middle" x="52" y="-31" font-family="Helvetica,sans-Serif" font-size="10.00">on_loc_time</text>
</a>
</g>
</g>
<!-- Node3&#45;&gt;Node5 -->
<g id="edge4_Node000003_Node000005" class="edge">
<title>Node3&#45;&gt;Node5</title>
<g id="a_edge4_Node000003_Node000005"><a xlink:title=" ">
<path fill="none" stroke="#63b8ff" d="M149.21,-53.66C134.31,-51.39 118.53,-48.98 104.15,-46.79"/>
<polygon fill="#63b8ff" stroke="#63b8ff" points="148.95,-57.16 159.36,-55.21 150.01,-50.24 148.95,-57.16"/>
</a>
</g>
</g>
<!-- Node7 -->
<g id="Node000007" class="node">
<title>Node7</title>
<g id="a_Node000007"><a xlink:href="structdetail_1_1duration__formatter.html#a8044d0b686a0080acbb954da3cab168d" target="_top" xlink:title=" ">
<polygon fill="white" stroke="#666666" points="283,-30 140,-30 140,0 283,0 283,-30"/>
<text text-anchor="start" x="148" y="-18" font-family="Helvetica,sans-Serif" font-size="10.00">detail::duration_formatter</text>
<text text-anchor="middle" x="211.5" y="-7" font-family="Helvetica,sans-Serif" font-size="10.00">::on_iso_time</text>
</a>
</g>
</g>
<!-- Node6&#45;&gt;Node7 -->
<g id="edge6_Node000006_Node000007" class="edge">
<title>Node6&#45;&gt;Node7</title>
<g id="a_edge6_Node000006_Node000007"><a xlink:title=" ">
<path fill="none" stroke="#63b8ff" d="M308.51,-15C300.03,-15 291.46,-15 283.11,-15"/>
<polygon fill="#63b8ff" stroke="#63b8ff" points="308.78,-18.5 318.78,-15 308.78,-11.5 308.78,-18.5"/>
</a>
</g>
</g>
</g>
</svg>
