<?xml version="1.0" encoding="UTF-8" standalone="no"?>
<!DOCTYPE svg PUBLIC "-//W3C//DTD SVG 1.1//EN"
 "http://www.w3.org/Graphics/SVG/1.1/DTD/svg11.dtd">
<!-- Generated by graphviz version 2.43.0 (0)
 -->
<!-- Title: SX1282 Pages: 1 -->
<svg width="267pt" height="327pt"
 viewBox="0.00 0.00 266.50 327.00" xmlns="http://www.w3.org/2000/svg" xmlns:xlink="http://www.w3.org/1999/xlink">
<g id="graph0" class="graph" transform="scale(1 1) rotate(0) translate(4 323)">
<title>SX1282</title>
<!-- Node1 -->
<g id="Node000001" class="node">
<title>Node1</title>
<g id="a_Node000001"><a xlink:title="Derived class for SX1282 modules.">
<polygon fill="#999999" stroke="#666666" points="84.5,-19 31.5,-19 31.5,0 84.5,0 84.5,-19"/>
<text text-anchor="middle" x="58" y="-7" font-family="Helvetica,sans-Serif" font-size="10.00">SX1282</text>
</a>
</g>
</g>
<!-- Node2 -->
<g id="Node000002" class="node">
<title>Node2</title>
<g id="a_Node000002"><a xlink:href="classSX1280.html" target="_top" xlink:title="Derived class for SX1280 modules.">
<polygon fill="white" stroke="#666666" points="84.5,-75 31.5,-75 31.5,-56 84.5,-56 84.5,-75"/>
<text text-anchor="middle" x="58" y="-63" font-family="Helvetica,sans-Serif" font-size="10.00">SX1280</text>
</a>
</g>
</g>
<!-- Node2&#45;&gt;Node1 -->
<g id="edge1_Node000001_Node000002" class="edge">
<title>Node2&#45;&gt;Node1</title>
<g id="a_edge1_Node000001_Node000002"><a xlink:title=" ">
<path fill="none" stroke="#63b8ff" d="M58,-45.3C58,-36.41 58,-26.28 58,-19.25"/>
<polygon fill="#63b8ff" stroke="#63b8ff" points="54.5,-45.58 58,-55.58 61.5,-45.58 54.5,-45.58"/>
</a>
</g>
</g>
<!-- Node3 -->
<g id="Node000003" class="node">
<title>Node3</title>
<g id="a_Node000003"><a xlink:href="classSX1281.html" target="_top" xlink:title="Derived class for SX1281 modules.">
<polygon fill="white" stroke="#666666" points="84.5,-131 31.5,-131 31.5,-112 84.5,-112 84.5,-131"/>
<text text-anchor="middle" x="58" y="-119" font-family="Helvetica,sans-Serif" font-size="10.00">SX1281</text>
</a>
</g>
</g>
<!-- Node3&#45;&gt;Node2 -->
<g id="edge2_Node000002_Node000003" class="edge">
<title>Node3&#45;&gt;Node2</title>
<g id="a_edge2_Node000002_Node000003"><a xlink:title=" ">
<path fill="none" stroke="#63b8ff" d="M58,-101.3C58,-92.41 58,-82.28 58,-75.25"/>
<polygon fill="#63b8ff" stroke="#63b8ff" points="54.5,-101.58 58,-111.58 61.5,-101.58 54.5,-101.58"/>
</a>
</g>
</g>
<!-- Node4 -->
<g id="Node000004" class="node">
<title>Node4</title>
<g id="a_Node000004"><a xlink:href="classSX128x.html" target="_top" xlink:title="Base class for SX128x series. All derived classes for SX128x (e.g. SX1280 or SX1281) inherit from thi...">
<polygon fill="white" stroke="#666666" points="84.5,-187 31.5,-187 31.5,-168 84.5,-168 84.5,-187"/>
<text text-anchor="middle" x="58" y="-175" font-family="Helvetica,sans-Serif" font-size="10.00">SX128x</text>
</a>
</g>
</g>
<!-- Node4&#45;&gt;Node3 -->
<g id="edge3_Node000003_Node000004" class="edge">
<title>Node4&#45;&gt;Node3</title>
<g id="a_edge3_Node000003_Node000004"><a xlink:title=" ">
<path fill="none" stroke="#63b8ff" d="M58,-157.3C58,-148.41 58,-138.28 58,-131.25"/>
<polygon fill="#63b8ff" stroke="#63b8ff" points="54.5,-157.58 58,-167.58 61.5,-157.58 54.5,-157.58"/>
</a>
</g>
</g>
<!-- Node5 -->
<g id="Node000005" class="node">
<title>Node5</title>
<g id="a_Node000005"><a xlink:href="classPhysicalLayer.html" target="_top" xlink:title="Provides common interface for protocols that run on LoRa/FSK modules, such as RTTY or LoRaWAN....">
<polygon fill="white" stroke="#666666" points="84,-253 0,-253 0,-234 84,-234 84,-253"/>
<text text-anchor="middle" x="42" y="-241" font-family="Helvetica,sans-Serif" font-size="10.00">PhysicalLayer</text>
</a>
</g>
</g>
<!-- Node5&#45;&gt;Node4 -->
<g id="edge4_Node000004_Node000005" class="edge">
<title>Node5&#45;&gt;Node4</title>
<g id="a_edge4_Node000004_Node000005"><a xlink:title=" ">
<path fill="none" stroke="#63b8ff" d="M46.64,-223.95C49.64,-211.93 53.42,-196.82 55.77,-187.41"/>
<polygon fill="#63b8ff" stroke="#63b8ff" points="43.19,-223.32 44.16,-233.87 49.98,-225.02 43.19,-223.32"/>
</a>
</g>
</g>
<!-- Node6 -->
<g id="Node000006" class="node">
<title>Node6</title>
<g id="a_Node000006"><a xlink:href="classModule.html" target="_top" xlink:title="Implements all common low&#45;level methods to control the wireless module. Every module class contains o...">
<polygon fill="white" stroke="#666666" points="154.5,-253 101.5,-253 101.5,-234 154.5,-234 154.5,-253"/>
<text text-anchor="middle" x="128" y="-241" font-family="Helvetica,sans-Serif" font-size="10.00">Module</text>
</a>
</g>
</g>
<!-- Node6&#45;&gt;Node4 -->
<g id="edge5_Node000004_Node000006" class="edge">
<title>Node6&#45;&gt;Node4</title>
<g id="a_edge5_Node000004_Node000006"><a xlink:title=" ">
<path fill="none" stroke="#9a32cd" stroke-dasharray="5,2" d="M96.96,-229.16C90.55,-225.5 84.18,-221.11 79,-216 70.6,-207.73 64.57,-195.38 61.18,-187.14"/>
<polygon fill="#9a32cd" stroke="#9a32cd" points="95.77,-232.48 106.25,-234 99,-226.27 95.77,-232.48"/>
</a>
</g>
<text text-anchor="middle" x="91.5" y="-208" font-family="Helvetica,sans-Serif" font-size="10.00" fill="grey"> mod</text>
</g>
<!-- Node8 -->
<g id="Node000008" class="node">
<title>Node8</title>
<g id="a_Node000008"><a xlink:href="structModule_1_1SPIConfig__t.html" target="_top" xlink:title="SPI configuration structure.">
<polygon fill="white" stroke="#666666" points="254.5,-187 141.5,-187 141.5,-168 254.5,-168 254.5,-187"/>
<text text-anchor="middle" x="198" y="-175" font-family="Helvetica,sans-Serif" font-size="10.00">Module::SPIConfig_t</text>
</a>
</g>
</g>
<!-- Node6&#45;&gt;Node8 -->
<g id="edge8_Node000008_Node000006" class="edge">
<title>Node6&#45;&gt;Node8</title>
<g id="a_edge8_Node000008_Node000006"><a xlink:title=" ">
<path fill="none" stroke="#9a32cd" stroke-dasharray="5,2" d="M120.62,-224.38C119.14,-217.77 119.07,-210.56 123,-205 128.82,-196.77 137.42,-191.08 146.74,-187.15"/>
<polygon fill="#9a32cd" stroke="#9a32cd" points="117.31,-225.52 123.73,-233.95 123.97,-223.35 117.31,-225.52"/>
</a>
</g>
<text text-anchor="middle" x="161" y="-208" font-family="Helvetica,sans-Serif" font-size="10.00" fill="grey"> checkStatusCb</text>
</g>
<!-- Node7 -->
<g id="Node000007" class="node">
<title>Node7</title>
<g id="a_Node000007"><a xlink:href="classRadioLibHal.html" target="_top" xlink:title="Hardware abstraction library base interface.">
<polygon fill="white" stroke="#666666" points="103.5,-319 28.5,-319 28.5,-300 103.5,-300 103.5,-319"/>
<text text-anchor="middle" x="66" y="-307" font-family="Helvetica,sans-Serif" font-size="10.00">RadioLibHal</text>
</a>
</g>
</g>
<!-- Node7&#45;&gt;Node6 -->
<g id="edge6_Node000006_Node000007" class="edge">
<title>Node7&#45;&gt;Node6</title>
<g id="a_edge6_Node000006_Node000007"><a xlink:title=" ">
<path fill="none" stroke="#9a32cd" stroke-dasharray="5,2" d="M81.52,-292.48C93.49,-280.12 109.6,-263.49 119.37,-253.41"/>
<polygon fill="#9a32cd" stroke="#9a32cd" points="78.81,-290.25 74.36,-299.87 83.83,-295.12 78.81,-290.25"/>
</a>
</g>
<text text-anchor="middle" x="110.5" y="-274" font-family="Helvetica,sans-Serif" font-size="10.00" fill="grey"> hal</text>
</g>
<!-- Node8&#45;&gt;Node6 -->
<g id="edge7_Node000006_Node000008" class="edge">
<title>Node8&#45;&gt;Node6</title>
<g id="a_edge7_Node000006_Node000008"><a xlink:title=" ">
<path fill="none" stroke="#9a32cd" stroke-dasharray="5,2" d="M205.38,-196.62C206.86,-203.23 206.93,-210.44 203,-216 192.16,-231.33 171.67,-237.85 154.84,-240.6"/>
<polygon fill="#9a32cd" stroke="#9a32cd" points="208.69,-195.48 202.27,-187.05 202.03,-197.65 208.69,-195.48"/>
</a>
</g>
<text text-anchor="middle" x="230.5" y="-208" font-family="Helvetica,sans-Serif" font-size="10.00" fill="grey"> spiConfig</text>
</g>
<!-- Node9 -->
<g id="Node000009" class="node">
<title>Node9</title>
<g id="a_Node000009"><a xlink:href="structModule_1_1RfSwitchMode__t.html" target="_top" xlink:title="Description of RF switch pin states for a single mode. See setRfSwitchTable for details.">
<polygon fill="white" stroke="#666666" points="258.5,-319 121.5,-319 121.5,-300 258.5,-300 258.5,-319"/>
<text text-anchor="middle" x="190" y="-307" font-family="Helvetica,sans-Serif" font-size="10.00">Module::RfSwitchMode_t</text>
</a>
</g>
</g>
<!-- Node9&#45;&gt;Node6 -->
<g id="edge9_Node000006_Node000009" class="edge">
<title>Node9&#45;&gt;Node6</title>
<g id="a_edge9_Node000006_Node000009"><a xlink:title=" ">
<path fill="none" stroke="#9a32cd" stroke-dasharray="5,2" d="M174.48,-292.48C162.51,-280.12 146.4,-263.49 136.63,-253.41"/>
<polygon fill="#9a32cd" stroke="#9a32cd" points="172.17,-295.12 181.64,-299.87 177.19,-290.25 172.17,-295.12"/>
</a>
</g>
<text text-anchor="middle" x="196.5" y="-274" font-family="Helvetica,sans-Serif" font-size="10.00" fill="grey"> rfSwitchTable</text>
</g>
</g>
</svg>
