<?xml version="1.0" encoding="UTF-8" standalone="no"?>
<!DOCTYPE svg PUBLIC "-//W3C//DTD SVG 1.1//EN"
 "http://www.w3.org/Graphics/SVG/1.1/DTD/svg11.dtd">
<!-- Generated by graphviz version 2.43.0 (0)
 -->
<!-- Title: generic_context&lt; OutputIt, Char &gt; Pages: 1 -->
<svg width="1177pt" height="172pt"
 viewBox="0.00 0.00 1177.00 171.50" xmlns="http://www.w3.org/2000/svg" xmlns:xlink="http://www.w3.org/1999/xlink">
<g id="graph0" class="graph" transform="scale(1 1) rotate(0) translate(4 167.5)">
<title>generic_context&lt; OutputIt, Char &gt;</title>
<!-- Node1 -->
<g id="Node000001" class="node">
<title>Node1</title>
<g id="a_Node000001"><a xlink:title=" ">
<polygon fill="#999999" stroke="#666666" points="1169,-82 1020,-82 1020,-52 1169,-52 1169,-82"/>
<text text-anchor="start" x="1028" y="-70" font-family="Helvetica,sans-Serif" font-size="10.00">generic_context&lt; OutputIt,</text>
<text text-anchor="middle" x="1094.5" y="-59" font-family="Helvetica,sans-Serif" font-size="10.00"> Char &gt;</text>
</a>
</g>
</g>
<!-- Node2 -->
<g id="Node000002" class="node">
<title>Node2</title>
<g id="a_Node000002"><a xlink:href="classbasic__format__args.html" target="_top" xlink:title=" ">
<polygon fill="white" stroke="#666666" points="954,-108 839,-108 839,-78 954,-78 954,-108"/>
<text text-anchor="start" x="847" y="-96" font-family="Helvetica,sans-Serif" font-size="10.00">basic_format_args&lt;</text>
<text text-anchor="middle" x="896.5" y="-85" font-family="Helvetica,sans-Serif" font-size="10.00"> generic_context &gt;</text>
</a>
</g>
</g>
<!-- Node2&#45;&gt;Node1 -->
<g id="edge1_Node000001_Node000002" class="edge">
<title>Node2&#45;&gt;Node1</title>
<g id="a_edge1_Node000001_Node000002"><a xlink:title=" ">
<path fill="none" stroke="#9a32cd" stroke-dasharray="5,2" d="M964.48,-84.11C982.29,-81.75 1001.62,-79.19 1019.77,-76.78"/>
<polygon fill="#9a32cd" stroke="#9a32cd" points="963.64,-80.7 954.19,-85.48 964.56,-87.63 963.64,-80.7"/>
</a>
</g>
<text text-anchor="middle" x="987" y="-86" font-family="Helvetica,sans-Serif" font-size="10.00" fill="grey"> args_</text>
</g>
<!-- Node3 -->
<g id="Node000003" class="node">
<title>Node3</title>
<g id="a_Node000003"><a xlink:href="classdetail_1_1value.html" target="_top" xlink:title=" ">
<polygon fill="white" stroke="#666666" points="552,-102 427,-102 427,-72 552,-72 552,-102"/>
<text text-anchor="start" x="435" y="-90" font-family="Helvetica,sans-Serif" font-size="10.00">detail::value&lt; generic</text>
<text text-anchor="middle" x="489.5" y="-79" font-family="Helvetica,sans-Serif" font-size="10.00">_context &gt;</text>
</a>
</g>
</g>
<!-- Node3&#45;&gt;Node2 -->
<g id="edge2_Node000002_Node000003" class="edge">
<title>Node3&#45;&gt;Node2</title>
<g id="a_edge2_Node000002_Node000003"><a xlink:title=" ">
<path fill="none" stroke="#9a32cd" stroke-dasharray="5,2" d="M562.27,-90.72C564.88,-90.82 567.46,-90.91 570,-91 681.5,-94.81 709.44,-96.5 821,-95 826.82,-94.92 832.9,-94.81 838.96,-94.68"/>
<polygon fill="#9a32cd" stroke="#9a32cd" points="562.26,-87.21 552.12,-90.3 561.97,-94.21 562.26,-87.21"/>
</a>
</g>
<text text-anchor="middle" x="698.5" y="-98" font-family="Helvetica,sans-Serif" font-size="10.00" fill="grey"> values_</text>
</g>
<!-- Node9 -->
<g id="Node000009" class="node">
<title>Node9</title>
<g id="a_Node000009"><a xlink:href="classbasic__format__arg.html" target="_top" xlink:title=" ">
<polygon fill="white" stroke="#666666" points="773,-76 624,-76 624,-46 773,-46 773,-76"/>
<text text-anchor="start" x="632" y="-64" font-family="Helvetica,sans-Serif" font-size="10.00">basic_format_arg&lt; generic</text>
<text text-anchor="middle" x="698.5" y="-53" font-family="Helvetica,sans-Serif" font-size="10.00">_context &gt;</text>
</a>
</g>
</g>
<!-- Node3&#45;&gt;Node9 -->
<g id="edge9_Node000009_Node000003" class="edge">
<title>Node3&#45;&gt;Node9</title>
<g id="a_edge9_Node000009_Node000003"><a xlink:title=" ">
<path fill="none" stroke="#9a32cd" stroke-dasharray="5,2" d="M562,-78.02C581.96,-75.51 603.68,-72.78 623.77,-70.26"/>
<polygon fill="#9a32cd" stroke="#9a32cd" points="561.53,-74.55 552.05,-79.27 562.4,-81.5 561.53,-74.55"/>
</a>
</g>
<text text-anchor="middle" x="588" y="-79" font-family="Helvetica,sans-Serif" font-size="10.00" fill="grey"> value_</text>
</g>
<!-- Node4 -->
<g id="Node000004" class="node">
<title>Node4</title>
<g id="a_Node000004"><a xlink:href="structmonostate.html" target="_top" xlink:title=" ">
<polygon fill="white" stroke="#666666" points="293,-163.5 224,-163.5 224,-144.5 293,-144.5 293,-163.5"/>
<text text-anchor="middle" x="258.5" y="-151.5" font-family="Helvetica,sans-Serif" font-size="10.00">monostate</text>
</a>
</g>
</g>
<!-- Node4&#45;&gt;Node3 -->
<g id="edge3_Node000003_Node000004" class="edge">
<title>Node4&#45;&gt;Node3</title>
<g id="a_edge3_Node000003_Node000004"><a xlink:title=" ">
<path fill="none" stroke="#9a32cd" stroke-dasharray="5,2" d="M302.77,-144.22C332.79,-137.14 373.59,-126.93 409,-116 422.34,-111.88 436.72,-106.83 449.54,-102.1"/>
<polygon fill="#9a32cd" stroke="#9a32cd" points="301.96,-140.82 293.02,-146.5 303.55,-147.63 301.96,-140.82"/>
</a>
</g>
<text text-anchor="middle" x="377" y="-136" font-family="Helvetica,sans-Serif" font-size="10.00" fill="grey"> no_value</text>
</g>
<!-- Node5 -->
<g id="Node000005" class="node">
<title>Node5</title>
<g id="a_Node000005"><a xlink:href="structdetail_1_1string__value.html" target="_top" xlink:title=" ">
<polygon fill="white" stroke="#666666" points="313.5,-126 203.5,-126 203.5,-96 313.5,-96 313.5,-126"/>
<text text-anchor="start" x="211.5" y="-114" font-family="Helvetica,sans-Serif" font-size="10.00">detail::string_value</text>
<text text-anchor="middle" x="258.5" y="-103" font-family="Helvetica,sans-Serif" font-size="10.00">&lt; char_type &gt;</text>
</a>
</g>
</g>
<!-- Node5&#45;&gt;Node3 -->
<g id="edge4_Node000003_Node000005" class="edge">
<title>Node5&#45;&gt;Node3</title>
<g id="a_edge4_Node000003_Node000005"><a xlink:title=" ">
<path fill="none" stroke="#9a32cd" stroke-dasharray="5,2" d="M323.99,-104.24C356.25,-100.86 395.1,-96.79 426.94,-93.45"/>
<polygon fill="#9a32cd" stroke="#9a32cd" points="323.35,-100.79 313.77,-105.31 324.08,-107.75 323.35,-100.79"/>
</a>
</g>
<text text-anchor="middle" x="377" y="-104" font-family="Helvetica,sans-Serif" font-size="10.00" fill="grey"> string</text>
</g>
<!-- Node6 -->
<g id="Node000006" class="node">
<title>Node6</title>
<g id="a_Node000006"><a xlink:href="structdetail_1_1custom__value.html" target="_top" xlink:title=" ">
<polygon fill="white" stroke="#666666" points="318,-78 199,-78 199,-48 318,-48 318,-78"/>
<text text-anchor="start" x="207" y="-66" font-family="Helvetica,sans-Serif" font-size="10.00">detail::custom_value</text>
<text text-anchor="middle" x="258.5" y="-55" font-family="Helvetica,sans-Serif" font-size="10.00">&lt; generic_context &gt;</text>
</a>
</g>
</g>
<!-- Node6&#45;&gt;Node3 -->
<g id="edge5_Node000003_Node000006" class="edge">
<title>Node6&#45;&gt;Node3</title>
<g id="a_edge5_Node000003_Node000006"><a xlink:title=" ">
<path fill="none" stroke="#9a32cd" stroke-dasharray="5,2" d="M328.14,-70.19C359.49,-73.48 396.32,-77.34 426.77,-80.53"/>
<polygon fill="#9a32cd" stroke="#9a32cd" points="328.49,-66.71 318.18,-69.15 327.76,-73.67 328.49,-66.71"/>
</a>
</g>
<text text-anchor="middle" x="377" y="-81" font-family="Helvetica,sans-Serif" font-size="10.00" fill="grey"> custom</text>
</g>
<!-- Node7 -->
<g id="Node000007" class="node">
<title>Node7</title>
<g id="a_Node000007"><a xlink:href="structdetail_1_1named__arg__value.html" target="_top" xlink:title=" ">
<polygon fill="white" stroke="#666666" points="327,-30 190,-30 190,0 327,0 327,-30"/>
<text text-anchor="start" x="198" y="-18" font-family="Helvetica,sans-Serif" font-size="10.00">detail::named_arg_value</text>
<text text-anchor="middle" x="258.5" y="-7" font-family="Helvetica,sans-Serif" font-size="10.00">&lt; char_type &gt;</text>
</a>
</g>
</g>
<!-- Node7&#45;&gt;Node3 -->
<g id="edge6_Node000003_Node000007" class="edge">
<title>Node7&#45;&gt;Node3</title>
<g id="a_edge6_Node000003_Node000007"><a xlink:title=" ">
<path fill="none" stroke="#9a32cd" stroke-dasharray="5,2" d="M327.37,-32.73C353.09,-39.79 382.54,-48.31 409,-57 422.74,-61.51 437.6,-66.97 450.73,-71.98"/>
<polygon fill="#9a32cd" stroke="#9a32cd" points="328.28,-29.35 317.71,-30.09 326.44,-36.1 328.28,-29.35"/>
</a>
</g>
<text text-anchor="middle" x="377" y="-60" font-family="Helvetica,sans-Serif" font-size="10.00" fill="grey"> named_args</text>
</g>
<!-- Node8 -->
<g id="Node000008" class="node">
<title>Node8</title>
<g id="a_Node000008"><a xlink:href="structdetail_1_1named__arg__info.html" target="_top" xlink:title=" ">
<polygon fill="white" stroke="#666666" points="129,-30 0,-30 0,0 129,0 129,-30"/>
<text text-anchor="start" x="8" y="-18" font-family="Helvetica,sans-Serif" font-size="10.00">detail::named_arg_info</text>
<text text-anchor="middle" x="64.5" y="-7" font-family="Helvetica,sans-Serif" font-size="10.00">&lt; char_type &gt;</text>
</a>
</g>
</g>
<!-- Node8&#45;&gt;Node7 -->
<g id="edge7_Node000007_Node000008" class="edge">
<title>Node8&#45;&gt;Node7</title>
<g id="a_edge7_Node000007_Node000008"><a xlink:title=" ">
<path fill="none" stroke="#9a32cd" stroke-dasharray="5,2" d="M139.34,-15C155.91,-15 173.41,-15 189.72,-15"/>
<polygon fill="#9a32cd" stroke="#9a32cd" points="139.17,-11.5 129.17,-15 139.17,-18.5 139.17,-11.5"/>
</a>
</g>
<text text-anchor="middle" x="159.5" y="-18" font-family="Helvetica,sans-Serif" font-size="10.00" fill="grey"> data</text>
</g>
<!-- Node9&#45;&gt;Node2 -->
<g id="edge8_Node000002_Node000009" class="edge">
<title>Node9&#45;&gt;Node2</title>
<g id="a_edge8_Node000002_Node000009"><a xlink:title=" ">
<path fill="none" stroke="#9a32cd" stroke-dasharray="5,2" d="M783.07,-74.64C801.84,-77.71 821.33,-80.89 838.7,-83.73"/>
<polygon fill="#9a32cd" stroke="#9a32cd" points="783.47,-71.16 773.04,-73.01 782.35,-78.07 783.47,-71.16"/>
</a>
</g>
<text text-anchor="middle" x="806" y="-83" font-family="Helvetica,sans-Serif" font-size="10.00" fill="grey"> args_</text>
</g>
<!-- Node10 -->
<g id="Node000010" class="node">
<title>Node10</title>
<g id="a_Node000010"><a xlink:href="classlocale__ref.html" target="_top" xlink:title=" ">
<polygon fill="white" stroke="#666666" points="929,-59.5 864,-59.5 864,-40.5 929,-40.5 929,-59.5"/>
<text text-anchor="middle" x="896.5" y="-47.5" font-family="Helvetica,sans-Serif" font-size="10.00">locale_ref</text>
</a>
</g>
</g>
<!-- Node10&#45;&gt;Node1 -->
<g id="edge10_Node000001_Node000010" class="edge">
<title>Node10&#45;&gt;Node1</title>
<g id="a_edge10_Node000001_Node000010"><a xlink:title=" ">
<path fill="none" stroke="#9a32cd" stroke-dasharray="5,2" d="M939.3,-51.21C958.44,-51.97 981.39,-53.16 1002,-55 1007.74,-55.51 1013.68,-56.12 1019.65,-56.78"/>
<polygon fill="#9a32cd" stroke="#9a32cd" points="939.22,-47.7 929.1,-50.83 938.96,-54.7 939.22,-47.7"/>
</a>
</g>
<text text-anchor="middle" x="987" y="-58" font-family="Helvetica,sans-Serif" font-size="10.00" fill="grey"> loc_</text>
</g>
</g>
</svg>
