<?xml version="1.0" encoding="UTF-8" standalone="no"?>
<!DOCTYPE svg PUBLIC "-//W3C//DTD SVG 1.1//EN"
 "http://www.w3.org/Graphics/SVG/1.1/DTD/svg11.dtd">
<!-- Generated by graphviz version 2.43.0 (0)
 -->
<!-- Title: detail::bigint Pages: 1 -->
<svg width="295pt" height="247pt"
 viewBox="0.00 0.00 294.50 247.00" xmlns="http://www.w3.org/2000/svg" xmlns:xlink="http://www.w3.org/1999/xlink">
<g id="graph0" class="graph" transform="scale(1 1) rotate(0) translate(4 243)">
<title>detail::bigint</title>
<!-- Node1 -->
<g id="Node000001" class="node">
<title>Node1</title>
<g id="a_Node000001"><a xlink:title=" ">
<polygon fill="#999999" stroke="#666666" points="187.5,-19 109.5,-19 109.5,0 187.5,0 187.5,-19"/>
<text text-anchor="middle" x="148.5" y="-7" font-family="Helvetica,sans-Serif" font-size="10.00">detail::bigint</text>
</a>
</g>
</g>
<!-- Node2 -->
<g id="Node000002" class="node">
<title>Node2</title>
<g id="a_Node000002"><a xlink:href="classbasic__memory__buffer.html" target="_top" xlink:title=" ">
<polygon fill="white" stroke="#666666" points="218.5,-96 78.5,-96 78.5,-66 218.5,-66 218.5,-96"/>
<text text-anchor="start" x="86.5" y="-84" font-family="Helvetica,sans-Serif" font-size="10.00">basic_memory_buffer</text>
<text text-anchor="middle" x="148.5" y="-73" font-family="Helvetica,sans-Serif" font-size="10.00">&lt; bigit, bigits_capacity &gt;</text>
</a>
</g>
</g>
<!-- Node2&#45;&gt;Node1 -->
<g id="edge1_Node000001_Node000002" class="edge">
<title>Node2&#45;&gt;Node1</title>
<g id="a_edge1_Node000001_Node000002"><a xlink:title=" ">
<path fill="none" stroke="#9a32cd" stroke-dasharray="5,2" d="M148.5,-55.56C148.5,-42.95 148.5,-28.35 148.5,-19.27"/>
<polygon fill="#9a32cd" stroke="#9a32cd" points="145,-55.94 148.5,-65.94 152,-55.94 145,-55.94"/>
</a>
</g>
<text text-anchor="middle" x="166.5" y="-40" font-family="Helvetica,sans-Serif" font-size="10.00" fill="grey"> bigits_</text>
</g>
<!-- Node3 -->
<g id="Node000003" class="node">
<title>Node3</title>
<g id="a_Node000003"><a xlink:href="classdetail_1_1buffer.html" target="_top" xlink:title=" ">
<polygon fill="white" stroke="#666666" points="142,-167.5 35,-167.5 35,-148.5 142,-148.5 142,-167.5"/>
<text text-anchor="middle" x="88.5" y="-155.5" font-family="Helvetica,sans-Serif" font-size="10.00">detail::buffer&lt; T &gt;</text>
</a>
</g>
</g>
<!-- Node3&#45;&gt;Node2 -->
<g id="edge2_Node000002_Node000003" class="edge">
<title>Node3&#45;&gt;Node2</title>
<g id="a_edge2_Node000002_Node000003"><a xlink:title=" ">
<path fill="none" stroke="#63b8ff" d="M101.68,-140.53C112.31,-127.23 127.11,-108.73 137.21,-96.11"/>
<polygon fill="#63b8ff" stroke="#63b8ff" points="98.9,-138.4 95.38,-148.4 104.36,-142.77 98.9,-138.4"/>
</a>
</g>
</g>
<!-- Node4 -->
<g id="Node000004" class="node">
<title>Node4</title>
<g id="a_Node000004"><a xlink:href="classdetail_1_1buffer.html" target="_top" xlink:title=" ">
<polygon fill="white" stroke="#666666" points="107,-239 0,-239 0,-220 107,-220 107,-239"/>
<text text-anchor="middle" x="53.5" y="-227" font-family="Helvetica,sans-Serif" font-size="10.00">detail::buffer&lt; T &gt;</text>
</a>
</g>
</g>
<!-- Node4&#45;&gt;Node3 -->
<g id="edge3_Node000003_Node000004" class="edge">
<title>Node4&#45;&gt;Node3</title>
<g id="a_edge3_Node000003_Node000004"><a xlink:title=" ">
<path fill="none" stroke="#9a32cd" stroke-dasharray="5,2" d="M62.35,-210.93C69.32,-197.08 78.75,-178.36 84.17,-167.59"/>
<polygon fill="#9a32cd" stroke="#9a32cd" points="59.16,-209.47 57.79,-219.98 65.42,-212.62 59.16,-209.47"/>
</a>
</g>
<text text-anchor="middle" x="89" y="-194" font-family="Helvetica,sans-Serif" font-size="10.00" fill="grey"> grow_</text>
</g>
<!-- Node4&#45;&gt;Node4 -->
<g id="edge4_Node000004_Node000004" class="edge">
<title>Node4&#45;&gt;Node4</title>
<g id="a_edge4_Node000004_Node000004"><a xlink:title=" ">
<path fill="none" stroke="#9a32cd" stroke-dasharray="5,2" d="M117.38,-233.96C122.1,-232.96 125,-231.47 125,-229.5 125,-226.34 117.58,-224.43 107.13,-223.77"/>
<polygon fill="#9a32cd" stroke="#9a32cd" points="116.62,-230.53 107.13,-235.23 117.49,-237.47 116.62,-230.53"/>
</a>
</g>
<text text-anchor="middle" x="141.5" y="-227" font-family="Helvetica,sans-Serif" font-size="10.00" fill="grey"> grow_</text>
</g>
<!-- Node5 -->
<g id="Node000005" class="node">
<title>Node5</title>
<g id="a_Node000005"><a xlink:href="structdetail_1_1allocator.html" target="_top" xlink:title=" ">
<polygon fill="white" stroke="#666666" points="275,-173 174,-173 174,-143 275,-143 275,-173"/>
<text text-anchor="start" x="182" y="-161" font-family="Helvetica,sans-Serif" font-size="10.00">detail::allocator&lt;</text>
<text text-anchor="middle" x="224.5" y="-150" font-family="Helvetica,sans-Serif" font-size="10.00"> bigit &gt;</text>
</a>
</g>
</g>
<!-- Node5&#45;&gt;Node2 -->
<g id="edge5_Node000002_Node000005" class="edge">
<title>Node5&#45;&gt;Node2</title>
<g id="a_edge5_Node000002_Node000005"><a xlink:title=" ">
<path fill="none" stroke="#9a32cd" stroke-dasharray="5,2" d="M203.03,-135.82C190.13,-123.08 174.07,-107.24 162.73,-96.04"/>
<polygon fill="#9a32cd" stroke="#9a32cd" points="200.63,-138.36 210.2,-142.89 205.55,-133.38 200.63,-138.36"/>
</a>
</g>
<text text-anchor="middle" x="207.5" y="-117" font-family="Helvetica,sans-Serif" font-size="10.00" fill="grey"> alloc_</text>
</g>
<!-- Node6 -->
<g id="Node000006" class="node">
<title>Node6</title>
<g id="a_Node000006"><a xlink:title=" ">
<polygon fill="white" stroke="#666666" points="286.5,-239 176.5,-239 176.5,-220 286.5,-220 286.5,-239"/>
<text text-anchor="middle" x="231.5" y="-227" font-family="Helvetica,sans-Serif" font-size="10.00">std::decay&lt; void &gt;</text>
</a>
</g>
</g>
<!-- Node6&#45;&gt;Node5 -->
<g id="edge6_Node000005_Node000006" class="edge">
<title>Node6&#45;&gt;Node5</title>
<g id="a_edge6_Node000005_Node000006"><a xlink:title=" ">
<path fill="none" stroke="#8b1a1a" d="M229.61,-209.71C228.45,-198.19 226.99,-183.68 225.92,-173.14"/>
<polygon fill="#8b1a1a" stroke="#8b1a1a" points="226.16,-210.38 230.64,-219.98 233.12,-209.68 226.16,-210.38"/>
</a>
</g>
</g>
</g>
</svg>
