<?xml version="1.0" encoding="UTF-8" standalone="no"?>
<!DOCTYPE svg PUBLIC "-//W3C//DTD SVG 1.1//EN"
 "http://www.w3.org/Graphics/SVG/1.1/DTD/svg11.dtd">
<!-- Generated by graphviz version 2.43.0 (0)
 -->
<!-- Title: Module Pages: 1 -->
<svg width="238pt" height="159pt"
 viewBox="0.00 0.00 238.00 159.00" xmlns="http://www.w3.org/2000/svg" xmlns:xlink="http://www.w3.org/1999/xlink">
<g id="graph0" class="graph" transform="scale(1 1) rotate(0) translate(4 155)">
<title>Module</title>
<!-- Node1 -->
<g id="Node000001" class="node">
<title>Node1</title>
<g id="a_Node000001"><a xlink:title="Implements all common low&#45;level methods to control the wireless module. Every module class contains o...">
<polygon fill="#999999" stroke="#666666" points="126,-85 73,-85 73,-66 126,-66 126,-85"/>
<text text-anchor="middle" x="99.5" y="-73" font-family="Helvetica,sans-Serif" font-size="10.00">Module</text>
</a>
</g>
</g>
<!-- Node3 -->
<g id="Node000003" class="node">
<title>Node3</title>
<g id="a_Node000003"><a xlink:href="structModule_1_1SPIConfig__t.html" target="_top" xlink:title="SPI configuration structure.">
<polygon fill="white" stroke="#666666" points="156,-19 43,-19 43,0 156,0 156,-19"/>
<text text-anchor="middle" x="99.5" y="-7" font-family="Helvetica,sans-Serif" font-size="10.00">Module::SPIConfig_t</text>
</a>
</g>
</g>
<!-- Node1&#45;&gt;Node3 -->
<g id="edge3_Node000003_Node000001" class="edge">
<title>Node1&#45;&gt;Node3</title>
<g id="a_edge3_Node000003_Node000001"><a xlink:title=" ">
<path fill="none" stroke="#9a32cd" stroke-dasharray="5,2" d="M63.85,-62.99C57.34,-59.25 51.39,-54.36 47.5,-48 39.65,-35.19 54.54,-25.46 70.37,-19.13"/>
<polygon fill="#9a32cd" stroke="#9a32cd" points="62.39,-66.18 72.92,-67.41 65.46,-59.88 62.39,-66.18"/>
</a>
</g>
<text text-anchor="middle" x="85.5" y="-40" font-family="Helvetica,sans-Serif" font-size="10.00" fill="grey"> checkStatusCb</text>
</g>
<!-- Node2 -->
<g id="Node000002" class="node">
<title>Node2</title>
<g id="a_Node000002"><a xlink:href="classRadioLibHal.html" target="_top" xlink:title="Hardware abstraction library base interface.">
<polygon fill="white" stroke="#666666" points="75,-151 0,-151 0,-132 75,-132 75,-151"/>
<text text-anchor="middle" x="37.5" y="-139" font-family="Helvetica,sans-Serif" font-size="10.00">RadioLibHal</text>
</a>
</g>
</g>
<!-- Node2&#45;&gt;Node1 -->
<g id="edge1_Node000001_Node000002" class="edge">
<title>Node2&#45;&gt;Node1</title>
<g id="a_edge1_Node000001_Node000002"><a xlink:title=" ">
<path fill="none" stroke="#9a32cd" stroke-dasharray="5,2" d="M53.02,-124.48C64.99,-112.12 81.1,-95.49 90.87,-85.41"/>
<polygon fill="#9a32cd" stroke="#9a32cd" points="50.31,-122.25 45.86,-131.87 55.33,-127.12 50.31,-122.25"/>
</a>
</g>
<text text-anchor="middle" x="82" y="-106" font-family="Helvetica,sans-Serif" font-size="10.00" fill="grey"> hal</text>
</g>
<!-- Node3&#45;&gt;Node1 -->
<g id="edge2_Node000001_Node000003" class="edge">
<title>Node3&#45;&gt;Node1</title>
<g id="a_edge2_Node000001_Node000003"><a xlink:title=" ">
<path fill="none" stroke="#9a32cd" stroke-dasharray="5,2" d="M120.09,-26.03C123.11,-29.3 125.77,-32.99 127.5,-37 132.19,-47.9 122.42,-58.56 113.16,-65.71"/>
<polygon fill="#9a32cd" stroke="#9a32cd" points="122.43,-23.42 112.71,-19.21 117.68,-28.57 122.43,-23.42"/>
</a>
</g>
<text text-anchor="middle" x="153" y="-40" font-family="Helvetica,sans-Serif" font-size="10.00" fill="grey"> spiConfig</text>
</g>
<!-- Node4 -->
<g id="Node000004" class="node">
<title>Node4</title>
<g id="a_Node000004"><a xlink:href="structModule_1_1RfSwitchMode__t.html" target="_top" xlink:title="Description of RF switch pin states for a single mode. See setRfSwitchTable for details.">
<polygon fill="white" stroke="#666666" points="230,-151 93,-151 93,-132 230,-132 230,-151"/>
<text text-anchor="middle" x="161.5" y="-139" font-family="Helvetica,sans-Serif" font-size="10.00">Module::RfSwitchMode_t</text>
</a>
</g>
</g>
<!-- Node4&#45;&gt;Node1 -->
<g id="edge4_Node000001_Node000004" class="edge">
<title>Node4&#45;&gt;Node1</title>
<g id="a_edge4_Node000001_Node000004"><a xlink:title=" ">
<path fill="none" stroke="#9a32cd" stroke-dasharray="5,2" d="M145.98,-124.48C134.01,-112.12 117.9,-95.49 108.13,-85.41"/>
<polygon fill="#9a32cd" stroke="#9a32cd" points="143.67,-127.12 153.14,-131.87 148.69,-122.25 143.67,-127.12"/>
</a>
</g>
<text text-anchor="middle" x="168" y="-106" font-family="Helvetica,sans-Serif" font-size="10.00" fill="grey"> rfSwitchTable</text>
</g>
</g>
</svg>
