<?xml version="1.0" encoding="UTF-8" standalone="no"?>
<!DOCTYPE svg PUBLIC "-//W3C//DTD SVG 1.1//EN"
 "http://www.w3.org/Graphics/SVG/1.1/DTD/svg11.dtd">
<!-- Generated by graphviz version 2.43.0 (0)
 -->
<!-- Title: basic_specs::set_fill Pages: 1 -->
<svg width="280pt" height="187pt"
 viewBox="0.00 0.00 280.00 186.50" xmlns="http://www.w3.org/2000/svg" xmlns:xlink="http://www.w3.org/1999/xlink">
<g id="graph0" class="graph" transform="scale(1 1) rotate(0) translate(4 182.5)">
<title>basic_specs::set_fill</title>
<!-- Node1 -->
<g id="Node000001" class="node">
<title>Node1</title>
<g id="a_Node000001"><a xlink:title=" ">
<polygon fill="#999999" stroke="#666666" points="272,-93 159,-93 159,-74 272,-74 272,-93"/>
<text text-anchor="middle" x="215.5" y="-81" font-family="Helvetica,sans-Serif" font-size="10.00">basic_specs::set_fill</text>
</a>
</g>
</g>
<!-- Node2 -->
<g id="Node000002" class="node">
<title>Node2</title>
<g id="a_Node000002"><a xlink:href="classdetail_1_1printf__arg__formatter.html#a82813713e45cd2a260d77658511c55c1" target="_top" xlink:title=" ">
<polygon fill="white" stroke="#666666" points="123,-178.5 0,-178.5 0,-148.5 123,-148.5 123,-178.5"/>
<text text-anchor="start" x="8" y="-166.5" font-family="Helvetica,sans-Serif" font-size="10.00">detail::printf_arg</text>
<text text-anchor="middle" x="61.5" y="-155.5" font-family="Helvetica,sans-Serif" font-size="10.00">_formatter::operator()</text>
</a>
</g>
</g>
<!-- Node1&#45;&gt;Node2 -->
<g id="edge1_Node000001_Node000002" class="edge">
<title>Node1&#45;&gt;Node2</title>
<g id="a_edge1_Node000001_Node000002"><a xlink:title=" ">
<path fill="none" stroke="#63b8ff" d="M191.98,-98.79C173.83,-110.73 147.4,-127.31 123,-139.5 116.73,-142.63 109.95,-145.65 103.28,-148.44"/>
<polygon fill="#63b8ff" stroke="#63b8ff" points="194.28,-101.46 200.67,-93.01 190.4,-95.63 194.28,-101.46"/>
</a>
</g>
</g>
<!-- Node3 -->
<g id="Node000003" class="node">
<title>Node3</title>
<g id="a_Node000003"><a xlink:href="namespacedetail.html#a4213daed116a37e1767881da51238261" target="_top" xlink:title=" ">
<polygon fill="white" stroke="#666666" points="114.5,-130 8.5,-130 8.5,-111 114.5,-111 114.5,-130"/>
<text text-anchor="middle" x="61.5" y="-118" font-family="Helvetica,sans-Serif" font-size="10.00">detail::parse_flags</text>
</a>
</g>
</g>
<!-- Node1&#45;&gt;Node3 -->
<g id="edge2_Node000001_Node000003" class="edge">
<title>Node1&#45;&gt;Node3</title>
<g id="a_edge2_Node000001_Node000003"><a xlink:title=" ">
<path fill="none" stroke="#63b8ff" d="M165.51,-95.43C144.89,-100.44 121.22,-106.21 101.78,-110.94"/>
<polygon fill="#63b8ff" stroke="#63b8ff" points="166.47,-98.79 175.36,-93.03 164.81,-91.99 166.47,-98.79"/>
</a>
</g>
</g>
<!-- Node4 -->
<g id="Node000004" class="node">
<title>Node4</title>
<g id="a_Node000004"><a xlink:href="namespacedetail.html#afc9d93e58b8edb8077f8bc8eee7f4035" target="_top" xlink:title=" ">
<polygon fill="white" stroke="#666666" points="119.5,-93 3.5,-93 3.5,-74 119.5,-74 119.5,-93"/>
<text text-anchor="middle" x="61.5" y="-81" font-family="Helvetica,sans-Serif" font-size="10.00">detail::parse_header</text>
</a>
</g>
</g>
<!-- Node1&#45;&gt;Node4 -->
<g id="edge3_Node000001_Node000004" class="edge">
<title>Node1&#45;&gt;Node4</title>
<g id="a_edge3_Node000001_Node000004"><a xlink:title=" ">
<path fill="none" stroke="#63b8ff" d="M148.73,-83.5C139,-83.5 129.04,-83.5 119.5,-83.5"/>
<polygon fill="#63b8ff" stroke="#63b8ff" points="148.76,-87 158.76,-83.5 148.76,-80 148.76,-87"/>
</a>
</g>
</g>
<!-- Node5 -->
<g id="Node000005" class="node">
<title>Node5</title>
<g id="a_Node000005"><a xlink:href="namespacedetail.html#a1c8c2218e4c822aa8f743fb9c573717f" target="_top" xlink:title=" ">
<polygon fill="white" stroke="#666666" points="103,-56 20,-56 20,-37 103,-37 103,-56"/>
<text text-anchor="middle" x="61.5" y="-44" font-family="Helvetica,sans-Serif" font-size="10.00">detail::vprintf</text>
</a>
</g>
</g>
<!-- Node1&#45;&gt;Node5 -->
<g id="edge4_Node000001_Node000005" class="edge">
<title>Node1&#45;&gt;Node5</title>
<g id="a_edge4_Node000001_Node000005"><a xlink:title=" ">
<path fill="none" stroke="#63b8ff" d="M165.51,-71.57C144.89,-66.56 121.22,-60.79 101.78,-56.06"/>
<polygon fill="#63b8ff" stroke="#63b8ff" points="164.81,-75.01 175.36,-73.97 166.47,-68.21 164.81,-75.01"/>
</a>
</g>
</g>
<!-- Node6 -->
<g id="Node000006" class="node">
<title>Node6</title>
<g id="a_Node000006"><a xlink:href="namespacedetail.html#aa3fa8ab9788fc551cccea4630089449a" target="_top" xlink:title=" ">
<polygon fill="white" stroke="#666666" points="123,-19 0,-19 0,0 123,0 123,-19"/>
<text text-anchor="middle" x="61.5" y="-7" font-family="Helvetica,sans-Serif" font-size="10.00">detail::write_nonfinite</text>
</a>
</g>
</g>
<!-- Node1&#45;&gt;Node6 -->
<g id="edge5_Node000001_Node000006" class="edge">
<title>Node1&#45;&gt;Node6</title>
<g id="a_edge5_Node000001_Node000006"><a xlink:title=" ">
<path fill="none" stroke="#63b8ff" d="M192.18,-68.03C174.14,-56.03 147.76,-39.64 123,-28.5 115.07,-24.93 106.27,-21.76 97.9,-19.07"/>
<polygon fill="#63b8ff" stroke="#63b8ff" points="190.55,-71.15 200.8,-73.85 194.47,-65.35 190.55,-71.15"/>
</a>
</g>
</g>
</g>
</svg>
