<?xml version="1.0" encoding="UTF-8" standalone="no"?>
<!DOCTYPE svg PUBLIC "-//W3C//DTD SVG 1.1//EN"
 "http://www.w3.org/Graphics/SVG/1.1/DTD/svg11.dtd">
<!-- Generated by graphviz version 2.43.0 (0)
 -->
<!-- Title: cxxopts::OptionDetails::essential_name Pages: 1 -->
<svg width="853pt" height="172pt"
 viewBox="0.00 0.00 853.00 172.00" xmlns="http://www.w3.org/2000/svg" xmlns:xlink="http://www.w3.org/1999/xlink">
<g id="graph0" class="graph" transform="scale(1 1) rotate(0) translate(4 168)">
<title>cxxopts::OptionDetails::essential_name</title>
<!-- Node1 -->
<g id="Node000001" class="node">
<title>Node1</title>
<g id="a_Node000001"><a xlink:title=" ">
<polygon fill="#999999" stroke="#666666" points="845,-116 718,-116 718,-86 845,-86 845,-116"/>
<text text-anchor="start" x="726" y="-104" font-family="Helvetica,sans-Serif" font-size="10.00">cxxopts::OptionDetails</text>
<text text-anchor="middle" x="781.5" y="-93" font-family="Helvetica,sans-Serif" font-size="10.00">::essential_name</text>
</a>
</g>
</g>
<!-- Node2 -->
<g id="Node000002" class="node">
<title>Node2</title>
<g id="a_Node000002"><a xlink:href="classcxxopts_1_1OptionParser.html#a6445f8081bffcb7ab31d241a200b9f04" target="_top" xlink:title=" ">
<polygon fill="white" stroke="#666666" points="682,-161 560,-161 560,-131 682,-131 682,-161"/>
<text text-anchor="start" x="568" y="-149" font-family="Helvetica,sans-Serif" font-size="10.00">cxxopts::OptionParser</text>
<text text-anchor="middle" x="621" y="-138" font-family="Helvetica,sans-Serif" font-size="10.00">::add_to_option</text>
</a>
</g>
</g>
<!-- Node1&#45;&gt;Node2 -->
<g id="edge1_Node000001_Node000002" class="edge">
<title>Node1&#45;&gt;Node2</title>
<g id="a_edge1_Node000001_Node000002"><a xlink:title=" ">
<path fill="none" stroke="#63b8ff" d="M717.66,-118.84C703.56,-122.84 688.73,-127.05 675.08,-130.93"/>
<polygon fill="#63b8ff" stroke="#63b8ff" points="718.62,-122.21 727.28,-116.11 716.71,-115.47 718.62,-122.21"/>
</a>
</g>
</g>
<!-- Node7 -->
<g id="Node000007" class="node">
<title>Node7</title>
<g id="a_Node000007"><a xlink:href="classcxxopts_1_1OptionParser.html#a28026f132e532009842f11359fb08373" target="_top" xlink:title=" ">
<polygon fill="white" stroke="#666666" points="524,-116 402,-116 402,-86 524,-86 524,-116"/>
<text text-anchor="start" x="410" y="-104" font-family="Helvetica,sans-Serif" font-size="10.00">cxxopts::OptionParser</text>
<text text-anchor="middle" x="463" y="-93" font-family="Helvetica,sans-Serif" font-size="10.00">::parse_default</text>
</a>
</g>
</g>
<!-- Node1&#45;&gt;Node7 -->
<g id="edge6_Node000001_Node000007" class="edge">
<title>Node1&#45;&gt;Node7</title>
<g id="a_edge6_Node000001_Node000007"><a xlink:title=" ">
<path fill="none" stroke="#63b8ff" d="M707.83,-101C652.24,-101 576.5,-101 524.25,-101"/>
<polygon fill="#63b8ff" stroke="#63b8ff" points="707.97,-104.5 717.97,-101 707.97,-97.5 707.97,-104.5"/>
</a>
</g>
</g>
<!-- Node8 -->
<g id="Node000008" class="node">
<title>Node8</title>
<g id="a_Node000008"><a xlink:href="classcxxopts_1_1OptionParser.html#a07db7b6bb2095df7b75b50ed2311ffe5" target="_top" xlink:title=" ">
<polygon fill="white" stroke="#666666" points="682,-73 560,-73 560,-43 682,-43 682,-73"/>
<text text-anchor="start" x="568" y="-61" font-family="Helvetica,sans-Serif" font-size="10.00">cxxopts::OptionParser</text>
<text text-anchor="middle" x="621" y="-50" font-family="Helvetica,sans-Serif" font-size="10.00">::parse_option</text>
</a>
</g>
</g>
<!-- Node1&#45;&gt;Node8 -->
<g id="edge8_Node000001_Node000008" class="edge">
<title>Node1&#45;&gt;Node8</title>
<g id="a_edge8_Node000001_Node000008"><a xlink:title=" ">
<path fill="none" stroke="#63b8ff" d="M715.14,-83.27C702.6,-79.87 689.59,-76.34 677.4,-73.03"/>
<polygon fill="#63b8ff" stroke="#63b8ff" points="714.5,-86.72 725.06,-85.96 716.33,-79.96 714.5,-86.72"/>
</a>
</g>
</g>
<!-- Node3 -->
<g id="Node000003" class="node">
<title>Node3</title>
<g id="a_Node000003"><a xlink:href="classcxxopts_1_1OptionParser.html#a4d595d8f6f34760bc2248d1b96af53a4" target="_top" xlink:title=" ">
<polygon fill="white" stroke="#666666" points="524,-164 402,-164 402,-134 524,-134 524,-164"/>
<text text-anchor="start" x="410" y="-152" font-family="Helvetica,sans-Serif" font-size="10.00">cxxopts::OptionParser</text>
<text text-anchor="middle" x="463" y="-141" font-family="Helvetica,sans-Serif" font-size="10.00">::consume_positional</text>
</a>
</g>
</g>
<!-- Node2&#45;&gt;Node3 -->
<g id="edge2_Node000002_Node000003" class="edge">
<title>Node2&#45;&gt;Node3</title>
<g id="a_edge2_Node000002_Node000003"><a xlink:title=" ">
<path fill="none" stroke="#63b8ff" d="M549.46,-147.36C541.01,-147.52 532.44,-147.68 524.15,-147.84"/>
<polygon fill="#63b8ff" stroke="#63b8ff" points="549.76,-150.85 559.69,-147.16 549.62,-143.85 549.76,-150.85"/>
</a>
</g>
</g>
<!-- Node4 -->
<g id="Node000004" class="node">
<title>Node4</title>
<g id="a_Node000004"><a xlink:href="classcxxopts_1_1OptionParser.html#a4218816ce33c211b54acb9e71603ea0b" target="_top" xlink:title=" ">
<polygon fill="white" stroke="#666666" points="366,-94 244,-94 244,-64 366,-64 366,-94"/>
<text text-anchor="start" x="252" y="-82" font-family="Helvetica,sans-Serif" font-size="10.00">cxxopts::OptionParser</text>
<text text-anchor="middle" x="305" y="-71" font-family="Helvetica,sans-Serif" font-size="10.00">::parse</text>
</a>
</g>
</g>
<!-- Node3&#45;&gt;Node4 -->
<g id="edge3_Node000003_Node000004" class="edge">
<title>Node3&#45;&gt;Node4</title>
<g id="a_edge3_Node000003_Node000004"><a xlink:title=" ">
<path fill="none" stroke="#63b8ff" d="M413.78,-130.04C409.78,-128.37 405.81,-126.67 402,-125 379.66,-115.19 354.84,-103.27 336.03,-94.02"/>
<polygon fill="#63b8ff" stroke="#63b8ff" points="412.53,-133.31 423.11,-133.88 415.2,-126.84 412.53,-133.31"/>
</a>
</g>
</g>
<!-- Node5 -->
<g id="Node000005" class="node">
<title>Node5</title>
<g id="a_Node000005"><a xlink:href="classcxxopts_1_1Options.html#a3e740564cc4c991078f1451e1fcd082b" target="_top" xlink:title=" ">
<polygon fill="white" stroke="#666666" points="208,-88.5 77,-88.5 77,-69.5 208,-69.5 208,-88.5"/>
<text text-anchor="middle" x="142.5" y="-76.5" font-family="Helvetica,sans-Serif" font-size="10.00">cxxopts::Options::parse</text>
</a>
</g>
</g>
<!-- Node4&#45;&gt;Node5 -->
<g id="edge4_Node000004_Node000005" class="edge">
<title>Node4&#45;&gt;Node5</title>
<g id="a_edge4_Node000004_Node000005"><a xlink:title=" ">
<path fill="none" stroke="#63b8ff" d="M233.55,-79C225.08,-79 216.47,-79 208.09,-79"/>
<polygon fill="#63b8ff" stroke="#63b8ff" points="233.78,-82.5 243.78,-79 233.78,-75.5 233.78,-82.5"/>
</a>
</g>
</g>
<!-- Node6 -->
<g id="Node000006" class="node">
<title>Node6</title>
<g id="a_Node000006"><a xlink:href="transmitter-normal_8cpp.html#a3c04138a5bfe5d72780bb7e82a18e627" target="_top" xlink:title=" ">
<polygon fill="white" stroke="#666666" points="41,-88.5 0,-88.5 0,-69.5 41,-69.5 41,-88.5"/>
<text text-anchor="middle" x="20.5" y="-76.5" font-family="Helvetica,sans-Serif" font-size="10.00">main</text>
</a>
</g>
</g>
<!-- Node5&#45;&gt;Node6 -->
<g id="edge5_Node000005_Node000006" class="edge">
<title>Node5&#45;&gt;Node6</title>
<g id="a_edge5_Node000005_Node000006"><a xlink:title=" ">
<path fill="none" stroke="#63b8ff" d="M66.91,-79C57.43,-79 48.46,-79 41.05,-79"/>
<polygon fill="#63b8ff" stroke="#63b8ff" points="66.93,-82.5 76.93,-79 66.93,-75.5 66.93,-82.5"/>
</a>
</g>
</g>
<!-- Node7&#45;&gt;Node4 -->
<g id="edge7_Node000007_Node000004" class="edge">
<title>Node7&#45;&gt;Node4</title>
<g id="a_edge7_Node000007_Node000004"><a xlink:title=" ">
<path fill="none" stroke="#63b8ff" d="M391.74,-91.09C383.2,-89.89 374.53,-88.66 366.15,-87.48"/>
<polygon fill="#63b8ff" stroke="#63b8ff" points="391.3,-94.56 401.69,-92.49 392.27,-87.63 391.3,-94.56"/>
</a>
</g>
</g>
<!-- Node8&#45;&gt;Node4 -->
<g id="edge11_Node000008_Node000004" class="edge">
<title>Node8&#45;&gt;Node4</title>
<g id="a_edge11_Node000008_Node000004"><a xlink:title=" ">
<path fill="none" stroke="#63b8ff" d="M549.78,-62.7C494.63,-66.38 418.64,-71.47 366.23,-74.97"/>
<polygon fill="#63b8ff" stroke="#63b8ff" points="550.09,-66.18 559.83,-62.02 549.62,-59.2 550.09,-66.18"/>
</a>
</g>
</g>
<!-- Node9 -->
<g id="Node000009" class="node">
<title>Node9</title>
<g id="a_Node000009"><a xlink:href="classcxxopts_1_1OptionParser.html#a0c093ba32746de7c3b08715eab961aff" target="_top" xlink:title=" ">
<polygon fill="white" stroke="#666666" points="524,-30 402,-30 402,0 524,0 524,-30"/>
<text text-anchor="start" x="410" y="-18" font-family="Helvetica,sans-Serif" font-size="10.00">cxxopts::OptionParser</text>
<text text-anchor="middle" x="463" y="-7" font-family="Helvetica,sans-Serif" font-size="10.00">::checked_parse_arg</text>
</a>
</g>
</g>
<!-- Node8&#45;&gt;Node9 -->
<g id="edge9_Node000008_Node000009" class="edge">
<title>Node8&#45;&gt;Node9</title>
<g id="a_edge9_Node000008_Node000009"><a xlink:title=" ">
<path fill="none" stroke="#63b8ff" d="M555.67,-40.27C543.33,-36.87 530.52,-33.34 518.53,-30.03"/>
<polygon fill="#63b8ff" stroke="#63b8ff" points="554.87,-43.68 565.44,-42.96 556.73,-36.93 554.87,-43.68"/>
</a>
</g>
</g>
<!-- Node9&#45;&gt;Node4 -->
<g id="edge10_Node000009_Node000004" class="edge">
<title>Node9&#45;&gt;Node4</title>
<g id="a_edge10_Node000009_Node000004"><a xlink:title=" ">
<path fill="none" stroke="#63b8ff" d="M416.04,-33.86C392.63,-43.46 364.55,-54.98 342.62,-63.98"/>
<polygon fill="#63b8ff" stroke="#63b8ff" points="417.5,-37.04 425.42,-30.01 414.84,-30.56 417.5,-37.04"/>
</a>
</g>
</g>
</g>
</svg>
