<?xml version="1.0" encoding="UTF-8" standalone="no"?>
<!DOCTYPE svg PUBLIC "-//W3C//DTD SVG 1.1//EN"
 "http://www.w3.org/Graphics/SVG/1.1/DTD/svg11.dtd">
<!-- Generated by graphviz version 2.43.0 (0)
 -->
<!-- Title: cxxopts::exceptions::exception::exception Pages: 1 -->
<svg width="529pt" height="545pt"
 viewBox="0.00 0.00 529.00 544.50" xmlns="http://www.w3.org/2000/svg" xmlns:xlink="http://www.w3.org/1999/xlink">
<g id="graph0" class="graph" transform="scale(1 1) rotate(0) translate(4 540.5)">
<title>cxxopts::exceptions::exception::exception</title>
<!-- Node1 -->
<g id="Node000001" class="node">
<title>Node1</title>
<g id="a_Node000001"><a xlink:title=" ">
<polygon fill="#999999" stroke="#666666" points="521,-312.5 396,-312.5 396,-282.5 521,-282.5 521,-312.5"/>
<text text-anchor="start" x="404" y="-300.5" font-family="Helvetica,sans-Serif" font-size="10.00">cxxopts::exceptions</text>
<text text-anchor="middle" x="458.5" y="-289.5" font-family="Helvetica,sans-Serif" font-size="10.00">::exception::exception</text>
</a>
</g>
</g>
<!-- Node2 -->
<g id="Node000002" class="node">
<title>Node2</title>
<g id="a_Node000002"><a xlink:href="classcxxopts_1_1exceptions_1_1option__has__no__value.html#a565b705e844358a5265208dd2b94dd87" target="_top" xlink:title=" ">
<polygon fill="white" stroke="#666666" points="346.5,-372 221.5,-372 221.5,-331 346.5,-331 346.5,-372"/>
<text text-anchor="start" x="229.5" y="-360" font-family="Helvetica,sans-Serif" font-size="10.00">cxxopts::exceptions</text>
<text text-anchor="start" x="229.5" y="-349" font-family="Helvetica,sans-Serif" font-size="10.00">::option_has_no_value</text>
<text text-anchor="middle" x="284" y="-338" font-family="Helvetica,sans-Serif" font-size="10.00">::option_has_no_value</text>
</a>
</g>
</g>
<!-- Node1&#45;&gt;Node2 -->
<g id="edge1_Node000001_Node000002" class="edge">
<title>Node1&#45;&gt;Node2</title>
<g id="a_edge1_Node000001_Node000002"><a xlink:title=" ">
<path fill="none" stroke="#63b8ff" d="M399.64,-315.61C382.62,-320.94 363.94,-326.79 346.69,-332.19"/>
<polygon fill="#63b8ff" stroke="#63b8ff" points="400.95,-318.87 409.45,-312.54 398.86,-312.19 400.95,-318.87"/>
</a>
</g>
</g>
<!-- Node3 -->
<g id="Node000003" class="node">
<title>Node3</title>
<g id="a_Node000003"><a xlink:href="classcxxopts_1_1exceptions_1_1parsing.html#ad40b741e8c5aba5e4be33c37d84cb09e" target="_top" xlink:title=" ">
<polygon fill="white" stroke="#666666" points="340.5,-312.5 227.5,-312.5 227.5,-282.5 340.5,-282.5 340.5,-312.5"/>
<text text-anchor="start" x="235.5" y="-300.5" font-family="Helvetica,sans-Serif" font-size="10.00">cxxopts::exceptions</text>
<text text-anchor="middle" x="284" y="-289.5" font-family="Helvetica,sans-Serif" font-size="10.00">::parsing::parsing</text>
</a>
</g>
</g>
<!-- Node1&#45;&gt;Node3 -->
<g id="edge2_Node000001_Node000003" class="edge">
<title>Node1&#45;&gt;Node3</title>
<g id="a_edge2_Node000001_Node000003"><a xlink:title=" ">
<path fill="none" stroke="#63b8ff" d="M385.46,-297.5C370.48,-297.5 354.91,-297.5 340.62,-297.5"/>
<polygon fill="#63b8ff" stroke="#63b8ff" points="385.71,-301 395.71,-297.5 385.71,-294 385.71,-301"/>
</a>
</g>
</g>
<!-- Node11 -->
<g id="Node000011" class="node">
<title>Node11</title>
<g id="a_Node000011"><a xlink:href="classcxxopts_1_1exceptions_1_1specification.html#ade2f55e107104e36d4f35abf6f92424c" target="_top" xlink:title=" ">
<polygon fill="white" stroke="#666666" points="360,-94.5 208,-94.5 208,-64.5 360,-64.5 360,-94.5"/>
<text text-anchor="start" x="216" y="-82.5" font-family="Helvetica,sans-Serif" font-size="10.00">cxxopts::exceptions</text>
<text text-anchor="middle" x="284" y="-71.5" font-family="Helvetica,sans-Serif" font-size="10.00">::specification::specification</text>
</a>
</g>
</g>
<!-- Node1&#45;&gt;Node11 -->
<g id="edge10_Node000001_Node000011" class="edge">
<title>Node1&#45;&gt;Node11</title>
<g id="a_edge10_Node000001_Node000011"><a xlink:title=" ">
<path fill="none" stroke="#63b8ff" d="M439.04,-274.17C403.49,-229.25 326.46,-131.89 296.89,-94.52"/>
<polygon fill="#63b8ff" stroke="#63b8ff" points="436.42,-276.5 445.37,-282.17 441.91,-272.16 436.42,-276.5"/>
</a>
</g>
</g>
<!-- Node4 -->
<g id="Node000004" class="node">
<title>Node4</title>
<g id="a_Node000004"><a xlink:href="classcxxopts_1_1exceptions_1_1gratuitous__argument__for__option.html#a3dda22bb1c74c6c5ade04692266f2f84" target="_top" xlink:title=" ">
<polygon fill="white" stroke="#666666" points="149.5,-536.5 22.5,-536.5 22.5,-484.5 149.5,-484.5 149.5,-536.5"/>
<text text-anchor="start" x="30.5" y="-524.5" font-family="Helvetica,sans-Serif" font-size="10.00">cxxopts::exceptions</text>
<text text-anchor="start" x="30.5" y="-513.5" font-family="Helvetica,sans-Serif" font-size="10.00">::gratuitous_argument</text>
<text text-anchor="start" x="30.5" y="-502.5" font-family="Helvetica,sans-Serif" font-size="10.00">_for_option::gratuitous</text>
<text text-anchor="middle" x="86" y="-491.5" font-family="Helvetica,sans-Serif" font-size="10.00">_argument_for_option</text>
</a>
</g>
</g>
<!-- Node3&#45;&gt;Node4 -->
<g id="edge3_Node000003_Node000004" class="edge">
<title>Node3&#45;&gt;Node4</title>
<g id="a_edge3_Node000003_Node000004"><a xlink:title=" ">
<path fill="none" stroke="#63b8ff" d="M218.55,-313.63C214.68,-316.16 211.1,-319.1 208,-322.5 160.89,-374.08 217.3,-422.33 172,-475.5 165.89,-482.67 158.09,-488.39 149.69,-492.95"/>
<polygon fill="#63b8ff" stroke="#63b8ff" points="220.4,-316.6 227.44,-308.68 217,-310.49 220.4,-316.6"/>
</a>
</g>
</g>
<!-- Node5 -->
<g id="Node000005" class="node">
<title>Node5</title>
<g id="a_Node000005"><a xlink:href="classcxxopts_1_1exceptions_1_1incorrect__argument__type.html#a234feb9ae9c4c2e0060e743778af22bf" target="_top" xlink:title=" ">
<polygon fill="white" stroke="#666666" points="172,-466 0,-466 0,-425 172,-425 172,-466"/>
<text text-anchor="start" x="8" y="-454" font-family="Helvetica,sans-Serif" font-size="10.00">cxxopts::exceptions</text>
<text text-anchor="start" x="8" y="-443" font-family="Helvetica,sans-Serif" font-size="10.00">::incorrect_argument</text>
<text text-anchor="middle" x="86" y="-432" font-family="Helvetica,sans-Serif" font-size="10.00">_type::incorrect_argument_type</text>
</a>
</g>
</g>
<!-- Node3&#45;&gt;Node5 -->
<g id="edge4_Node000003_Node000005" class="edge">
<title>Node3&#45;&gt;Node5</title>
<g id="a_edge4_Node000003_Node000005"><a xlink:title=" ">
<path fill="none" stroke="#63b8ff" d="M218.33,-314.56C214.61,-316.88 211.12,-319.51 208,-322.5 175.68,-353.43 204.21,-385.46 172,-416.5 168.74,-419.64 165.14,-422.44 161.29,-424.93"/>
<polygon fill="#63b8ff" stroke="#63b8ff" points="220.22,-317.52 227.36,-309.7 216.9,-311.36 220.22,-317.52"/>
</a>
</g>
</g>
<!-- Node6 -->
<g id="Node000006" class="node">
<title>Node6</title>
<g id="a_Node000006"><a xlink:href="classcxxopts_1_1exceptions_1_1invalid__option__syntax.html#a023b78b16ff3b18c19aff7ac1a3bd266" target="_top" xlink:title=" ">
<polygon fill="white" stroke="#666666" points="151,-407 21,-407 21,-366 151,-366 151,-407"/>
<text text-anchor="start" x="29" y="-395" font-family="Helvetica,sans-Serif" font-size="10.00">cxxopts::exceptions</text>
<text text-anchor="start" x="29" y="-384" font-family="Helvetica,sans-Serif" font-size="10.00">::invalid_option_syntax</text>
<text text-anchor="middle" x="86" y="-373" font-family="Helvetica,sans-Serif" font-size="10.00">::invalid_option_syntax</text>
</a>
</g>
</g>
<!-- Node3&#45;&gt;Node6 -->
<g id="edge5_Node000003_Node000006" class="edge">
<title>Node3&#45;&gt;Node6</title>
<g id="a_edge5_Node000003_Node000006"><a xlink:title=" ">
<path fill="none" stroke="#63b8ff" d="M218.68,-316.73C214.99,-318.51 211.4,-320.43 208,-322.5 188.94,-334.1 191.02,-345.84 172,-357.5 165.49,-361.49 158.35,-365.02 151.07,-368.11"/>
<polygon fill="#63b8ff" stroke="#63b8ff" points="220.31,-319.84 228.04,-312.6 217.48,-313.44 220.31,-319.84"/>
</a>
</g>
</g>
<!-- Node7 -->
<g id="Node000007" class="node">
<title>Node7</title>
<g id="a_Node000007"><a xlink:href="classcxxopts_1_1exceptions_1_1missing__argument.html#ab02c55fc0dc1c6183c869b73d3b59a4c" target="_top" xlink:title=" ">
<polygon fill="white" stroke="#666666" points="145.5,-348 26.5,-348 26.5,-307 145.5,-307 145.5,-348"/>
<text text-anchor="start" x="34.5" y="-336" font-family="Helvetica,sans-Serif" font-size="10.00">cxxopts::exceptions</text>
<text text-anchor="start" x="34.5" y="-325" font-family="Helvetica,sans-Serif" font-size="10.00">::missing_argument::</text>
<text text-anchor="middle" x="86" y="-314" font-family="Helvetica,sans-Serif" font-size="10.00">missing_argument</text>
</a>
</g>
</g>
<!-- Node3&#45;&gt;Node7 -->
<g id="edge6_Node000003_Node000007" class="edge">
<title>Node3&#45;&gt;Node7</title>
<g id="a_edge6_Node000003_Node000007"><a xlink:title=" ">
<path fill="none" stroke="#63b8ff" d="M217.25,-307.56C194.03,-311.12 168.09,-315.09 145.52,-318.54"/>
<polygon fill="#63b8ff" stroke="#63b8ff" points="218,-310.99 227.36,-306.02 216.94,-304.07 218,-310.99"/>
</a>
</g>
</g>
<!-- Node8 -->
<g id="Node000008" class="node">
<title>Node8</title>
<g id="a_Node000008"><a xlink:href="classcxxopts_1_1exceptions_1_1no__such__option.html#ae4982f66fe07b50b9a3f27b8a329d148" target="_top" xlink:title=" ">
<polygon fill="white" stroke="#666666" points="144,-289 28,-289 28,-248 144,-248 144,-289"/>
<text text-anchor="start" x="36" y="-277" font-family="Helvetica,sans-Serif" font-size="10.00">cxxopts::exceptions</text>
<text text-anchor="start" x="36" y="-266" font-family="Helvetica,sans-Serif" font-size="10.00">::no_such_option::no</text>
<text text-anchor="middle" x="86" y="-255" font-family="Helvetica,sans-Serif" font-size="10.00">_such_option</text>
</a>
</g>
</g>
<!-- Node3&#45;&gt;Node8 -->
<g id="edge7_Node000003_Node000008" class="edge">
<title>Node3&#45;&gt;Node8</title>
<g id="a_edge7_Node000003_Node000008"><a xlink:title=" ">
<path fill="none" stroke="#63b8ff" d="M217.38,-287.79C193.66,-284.28 167.08,-280.35 144.14,-276.95"/>
<polygon fill="#63b8ff" stroke="#63b8ff" points="216.95,-291.27 227.36,-289.27 217.98,-284.34 216.95,-291.27"/>
</a>
</g>
</g>
<!-- Node9 -->
<g id="Node000009" class="node">
<title>Node9</title>
<g id="a_Node000009"><a xlink:href="classcxxopts_1_1exceptions_1_1option__requires__argument.html#af10356dd998a4886dbfdf15ca7b68707" target="_top" xlink:title=" ">
<polygon fill="white" stroke="#666666" points="161.5,-230 10.5,-230 10.5,-189 161.5,-189 161.5,-230"/>
<text text-anchor="start" x="18.5" y="-218" font-family="Helvetica,sans-Serif" font-size="10.00">cxxopts::exceptions</text>
<text text-anchor="start" x="18.5" y="-207" font-family="Helvetica,sans-Serif" font-size="10.00">::option_requires_argument</text>
<text text-anchor="middle" x="86" y="-196" font-family="Helvetica,sans-Serif" font-size="10.00">::option_requires_argument</text>
</a>
</g>
</g>
<!-- Node3&#45;&gt;Node9 -->
<g id="edge8_Node000003_Node000009" class="edge">
<title>Node3&#45;&gt;Node9</title>
<g id="a_edge8_Node000003_Node000009"><a xlink:title=" ">
<path fill="none" stroke="#63b8ff" d="M247.82,-277.48C226.3,-265.64 197.99,-250.81 172,-239.5 164.54,-236.25 156.6,-233.09 148.69,-230.1"/>
<polygon fill="#63b8ff" stroke="#63b8ff" points="246.16,-280.56 256.6,-282.35 249.56,-274.44 246.16,-280.56"/>
</a>
</g>
</g>
<!-- Node10 -->
<g id="Node000010" class="node">
<title>Node10</title>
<g id="a_Node000010"><a xlink:href="classcxxopts_1_1exceptions_1_1requested__option__not__present.html#aaf93c05e24c49edab256858dc61d8d16" target="_top" xlink:title=" ">
<polygon fill="white" stroke="#666666" points="160.5,-170.5 11.5,-170.5 11.5,-118.5 160.5,-118.5 160.5,-170.5"/>
<text text-anchor="start" x="19.5" y="-158.5" font-family="Helvetica,sans-Serif" font-size="10.00">cxxopts::exceptions</text>
<text text-anchor="start" x="19.5" y="-147.5" font-family="Helvetica,sans-Serif" font-size="10.00">::requested_option_not</text>
<text text-anchor="start" x="19.5" y="-136.5" font-family="Helvetica,sans-Serif" font-size="10.00">_present::requested_option</text>
<text text-anchor="middle" x="86" y="-125.5" font-family="Helvetica,sans-Serif" font-size="10.00">_not_present</text>
</a>
</g>
</g>
<!-- Node3&#45;&gt;Node10 -->
<g id="edge9_Node000003_Node000010" class="edge">
<title>Node3&#45;&gt;Node10</title>
<g id="a_edge9_Node000003_Node000010"><a xlink:title=" ">
<path fill="none" stroke="#63b8ff" d="M265.73,-274.2C245.62,-248.42 210.25,-207.01 172,-180.5 166.86,-176.94 161.32,-173.63 155.61,-170.57"/>
<polygon fill="#63b8ff" stroke="#63b8ff" points="263.08,-276.5 271.95,-282.3 268.63,-272.24 263.08,-276.5"/>
</a>
</g>
</g>
<!-- Node12 -->
<g id="Node000012" class="node">
<title>Node12</title>
<g id="a_Node000012"><a xlink:href="classcxxopts_1_1exceptions_1_1invalid__option__format.html#a4fbd03cbee7762eb7e4cfc4c9f31cf68" target="_top" xlink:title=" ">
<polygon fill="white" stroke="#666666" points="151,-100 21,-100 21,-59 151,-59 151,-100"/>
<text text-anchor="start" x="29" y="-88" font-family="Helvetica,sans-Serif" font-size="10.00">cxxopts::exceptions</text>
<text text-anchor="start" x="29" y="-77" font-family="Helvetica,sans-Serif" font-size="10.00">::invalid_option_format</text>
<text text-anchor="middle" x="86" y="-66" font-family="Helvetica,sans-Serif" font-size="10.00">::invalid_option_format</text>
</a>
</g>
</g>
<!-- Node11&#45;&gt;Node12 -->
<g id="edge11_Node000011_Node000012" class="edge">
<title>Node11&#45;&gt;Node12</title>
<g id="a_edge11_Node000011_Node000012"><a xlink:title=" ">
<path fill="none" stroke="#63b8ff" d="M197.62,-79.5C182.03,-79.5 166.01,-79.5 151.17,-79.5"/>
<polygon fill="#63b8ff" stroke="#63b8ff" points="197.78,-83 207.78,-79.5 197.78,-76 197.78,-83"/>
</a>
</g>
</g>
<!-- Node13 -->
<g id="Node000013" class="node">
<title>Node13</title>
<g id="a_Node000013"><a xlink:href="classcxxopts_1_1exceptions_1_1option__already__exists.html#aeb541fc52c1d0c3da3e1be4c805bf448" target="_top" xlink:title=" ">
<polygon fill="white" stroke="#666666" points="151,-41 21,-41 21,0 151,0 151,-41"/>
<text text-anchor="start" x="29" y="-29" font-family="Helvetica,sans-Serif" font-size="10.00">cxxopts::exceptions</text>
<text text-anchor="start" x="29" y="-18" font-family="Helvetica,sans-Serif" font-size="10.00">::option_already_exists</text>
<text text-anchor="middle" x="86" y="-7" font-family="Helvetica,sans-Serif" font-size="10.00">::option_already_exists</text>
</a>
</g>
</g>
<!-- Node11&#45;&gt;Node13 -->
<g id="edge12_Node000011_Node000013" class="edge">
<title>Node11&#45;&gt;Node13</title>
<g id="a_edge12_Node000011_Node000013"><a xlink:title=" ">
<path fill="none" stroke="#63b8ff" d="M223.18,-61.49C200.44,-54.65 174.46,-46.83 151.33,-39.87"/>
<polygon fill="#63b8ff" stroke="#63b8ff" points="222.45,-64.93 233.03,-64.46 224.47,-58.23 222.45,-64.93"/>
</a>
</g>
</g>
</g>
</svg>
