<?xml version="1.0" encoding="UTF-8" standalone="no"?>
<!DOCTYPE svg PUBLIC "-//W3C//DTD SVG 1.1//EN"
 "http://www.w3.org/Graphics/SVG/1.1/DTD/svg11.dtd">
<!-- Generated by graphviz version 2.43.0 (0)
 -->
<!-- Title: SX1273 Pages: 1 -->
<svg width="267pt" height="271pt"
 viewBox="0.00 0.00 266.50 271.00" xmlns="http://www.w3.org/2000/svg" xmlns:xlink="http://www.w3.org/1999/xlink">
<g id="graph0" class="graph" transform="scale(1 1) rotate(0) translate(4 267)">
<title>SX1273</title>
<!-- Node1 -->
<g id="Node000001" class="node">
<title>Node1</title>
<g id="a_Node000001"><a xlink:title="Derived class for SX1273 modules. Overrides some methods from SX1272 due to different parameter range...">
<polygon fill="#999999" stroke="#666666" points="84.5,-19 31.5,-19 31.5,0 84.5,0 84.5,-19"/>
<text text-anchor="middle" x="58" y="-7" font-family="Helvetica,sans-Serif" font-size="10.00">SX1273</text>
</a>
</g>
</g>
<!-- Node2 -->
<g id="Node000002" class="node">
<title>Node2</title>
<g id="a_Node000002"><a xlink:href="classSX1272.html" target="_top" xlink:title="Derived class for SX1272 modules. Also used as base class for SX1273. Both modules use the same basic...">
<polygon fill="white" stroke="#666666" points="84.5,-75 31.5,-75 31.5,-56 84.5,-56 84.5,-75"/>
<text text-anchor="middle" x="58" y="-63" font-family="Helvetica,sans-Serif" font-size="10.00">SX1272</text>
</a>
</g>
</g>
<!-- Node2&#45;&gt;Node1 -->
<g id="edge1_Node000001_Node000002" class="edge">
<title>Node2&#45;&gt;Node1</title>
<g id="a_edge1_Node000001_Node000002"><a xlink:title=" ">
<path fill="none" stroke="#63b8ff" d="M58,-45.3C58,-36.41 58,-26.28 58,-19.25"/>
<polygon fill="#63b8ff" stroke="#63b8ff" points="54.5,-45.58 58,-55.58 61.5,-45.58 54.5,-45.58"/>
</a>
</g>
</g>
<!-- Node3 -->
<g id="Node000003" class="node">
<title>Node3</title>
<g id="a_Node000003"><a xlink:href="classSX127x.html" target="_top" xlink:title="Base class for SX127x series. All derived classes for SX127x (e.g. SX1278 or SX1272) inherit from thi...">
<polygon fill="white" stroke="#666666" points="84.5,-131 31.5,-131 31.5,-112 84.5,-112 84.5,-131"/>
<text text-anchor="middle" x="58" y="-119" font-family="Helvetica,sans-Serif" font-size="10.00">SX127x</text>
</a>
</g>
</g>
<!-- Node3&#45;&gt;Node2 -->
<g id="edge2_Node000002_Node000003" class="edge">
<title>Node3&#45;&gt;Node2</title>
<g id="a_edge2_Node000002_Node000003"><a xlink:title=" ">
<path fill="none" stroke="#63b8ff" d="M58,-101.3C58,-92.41 58,-82.28 58,-75.25"/>
<polygon fill="#63b8ff" stroke="#63b8ff" points="54.5,-101.58 58,-111.58 61.5,-101.58 54.5,-101.58"/>
</a>
</g>
</g>
<!-- Node4 -->
<g id="Node000004" class="node">
<title>Node4</title>
<g id="a_Node000004"><a xlink:href="classPhysicalLayer.html" target="_top" xlink:title="Provides common interface for protocols that run on LoRa/FSK modules, such as RTTY or LoRaWAN....">
<polygon fill="white" stroke="#666666" points="84,-197 0,-197 0,-178 84,-178 84,-197"/>
<text text-anchor="middle" x="42" y="-185" font-family="Helvetica,sans-Serif" font-size="10.00">PhysicalLayer</text>
</a>
</g>
</g>
<!-- Node4&#45;&gt;Node3 -->
<g id="edge3_Node000003_Node000004" class="edge">
<title>Node4&#45;&gt;Node3</title>
<g id="a_edge3_Node000003_Node000004"><a xlink:title=" ">
<path fill="none" stroke="#63b8ff" d="M46.64,-167.95C49.64,-155.93 53.42,-140.82 55.77,-131.41"/>
<polygon fill="#63b8ff" stroke="#63b8ff" points="43.19,-167.32 44.16,-177.87 49.98,-169.02 43.19,-167.32"/>
</a>
</g>
</g>
<!-- Node5 -->
<g id="Node000005" class="node">
<title>Node5</title>
<g id="a_Node000005"><a xlink:href="classModule.html" target="_top" xlink:title="Implements all common low&#45;level methods to control the wireless module. Every module class contains o...">
<polygon fill="white" stroke="#666666" points="154.5,-197 101.5,-197 101.5,-178 154.5,-178 154.5,-197"/>
<text text-anchor="middle" x="128" y="-185" font-family="Helvetica,sans-Serif" font-size="10.00">Module</text>
</a>
</g>
</g>
<!-- Node5&#45;&gt;Node3 -->
<g id="edge4_Node000003_Node000005" class="edge">
<title>Node5&#45;&gt;Node3</title>
<g id="a_edge4_Node000003_Node000005"><a xlink:title=" ">
<path fill="none" stroke="#9a32cd" stroke-dasharray="5,2" d="M96.96,-173.16C90.55,-169.5 84.18,-165.11 79,-160 70.6,-151.73 64.57,-139.38 61.18,-131.14"/>
<polygon fill="#9a32cd" stroke="#9a32cd" points="95.77,-176.48 106.25,-178 99,-170.27 95.77,-176.48"/>
</a>
</g>
<text text-anchor="middle" x="91.5" y="-152" font-family="Helvetica,sans-Serif" font-size="10.00" fill="grey"> mod</text>
</g>
<!-- Node7 -->
<g id="Node000007" class="node">
<title>Node7</title>
<g id="a_Node000007"><a xlink:href="structModule_1_1SPIConfig__t.html" target="_top" xlink:title="SPI configuration structure.">
<polygon fill="white" stroke="#666666" points="254.5,-131 141.5,-131 141.5,-112 254.5,-112 254.5,-131"/>
<text text-anchor="middle" x="198" y="-119" font-family="Helvetica,sans-Serif" font-size="10.00">Module::SPIConfig_t</text>
</a>
</g>
</g>
<!-- Node5&#45;&gt;Node7 -->
<g id="edge7_Node000007_Node000005" class="edge">
<title>Node5&#45;&gt;Node7</title>
<g id="a_edge7_Node000007_Node000005"><a xlink:title=" ">
<path fill="none" stroke="#9a32cd" stroke-dasharray="5,2" d="M120.62,-168.38C119.14,-161.77 119.07,-154.56 123,-149 128.82,-140.77 137.42,-135.08 146.74,-131.15"/>
<polygon fill="#9a32cd" stroke="#9a32cd" points="117.31,-169.52 123.73,-177.95 123.97,-167.35 117.31,-169.52"/>
</a>
</g>
<text text-anchor="middle" x="161" y="-152" font-family="Helvetica,sans-Serif" font-size="10.00" fill="grey"> checkStatusCb</text>
</g>
<!-- Node6 -->
<g id="Node000006" class="node">
<title>Node6</title>
<g id="a_Node000006"><a xlink:href="classRadioLibHal.html" target="_top" xlink:title="Hardware abstraction library base interface.">
<polygon fill="white" stroke="#666666" points="103.5,-263 28.5,-263 28.5,-244 103.5,-244 103.5,-263"/>
<text text-anchor="middle" x="66" y="-251" font-family="Helvetica,sans-Serif" font-size="10.00">RadioLibHal</text>
</a>
</g>
</g>
<!-- Node6&#45;&gt;Node5 -->
<g id="edge5_Node000005_Node000006" class="edge">
<title>Node6&#45;&gt;Node5</title>
<g id="a_edge5_Node000005_Node000006"><a xlink:title=" ">
<path fill="none" stroke="#9a32cd" stroke-dasharray="5,2" d="M81.52,-236.48C93.49,-224.12 109.6,-207.49 119.37,-197.41"/>
<polygon fill="#9a32cd" stroke="#9a32cd" points="78.81,-234.25 74.36,-243.87 83.83,-239.12 78.81,-234.25"/>
</a>
</g>
<text text-anchor="middle" x="110.5" y="-218" font-family="Helvetica,sans-Serif" font-size="10.00" fill="grey"> hal</text>
</g>
<!-- Node7&#45;&gt;Node5 -->
<g id="edge6_Node000005_Node000007" class="edge">
<title>Node7&#45;&gt;Node5</title>
<g id="a_edge6_Node000005_Node000007"><a xlink:title=" ">
<path fill="none" stroke="#9a32cd" stroke-dasharray="5,2" d="M205.38,-140.62C206.86,-147.23 206.93,-154.44 203,-160 192.16,-175.33 171.67,-181.85 154.84,-184.6"/>
<polygon fill="#9a32cd" stroke="#9a32cd" points="208.69,-139.48 202.27,-131.05 202.03,-141.65 208.69,-139.48"/>
</a>
</g>
<text text-anchor="middle" x="230.5" y="-152" font-family="Helvetica,sans-Serif" font-size="10.00" fill="grey"> spiConfig</text>
</g>
<!-- Node8 -->
<g id="Node000008" class="node">
<title>Node8</title>
<g id="a_Node000008"><a xlink:href="structModule_1_1RfSwitchMode__t.html" target="_top" xlink:title="Description of RF switch pin states for a single mode. See setRfSwitchTable for details.">
<polygon fill="white" stroke="#666666" points="258.5,-263 121.5,-263 121.5,-244 258.5,-244 258.5,-263"/>
<text text-anchor="middle" x="190" y="-251" font-family="Helvetica,sans-Serif" font-size="10.00">Module::RfSwitchMode_t</text>
</a>
</g>
</g>
<!-- Node8&#45;&gt;Node5 -->
<g id="edge8_Node000005_Node000008" class="edge">
<title>Node8&#45;&gt;Node5</title>
<g id="a_edge8_Node000005_Node000008"><a xlink:title=" ">
<path fill="none" stroke="#9a32cd" stroke-dasharray="5,2" d="M174.48,-236.48C162.51,-224.12 146.4,-207.49 136.63,-197.41"/>
<polygon fill="#9a32cd" stroke="#9a32cd" points="172.17,-239.12 181.64,-243.87 177.19,-234.25 172.17,-239.12"/>
</a>
</g>
<text text-anchor="middle" x="196.5" y="-218" font-family="Helvetica,sans-Serif" font-size="10.00" fill="grey"> rfSwitchTable</text>
</g>
</g>
</svg>
