<?xml version="1.0" encoding="UTF-8" standalone="no"?>
<!DOCTYPE svg PUBLIC "-//W3C//DTD SVG 1.1//EN"
 "http://www.w3.org/Graphics/SVG/1.1/DTD/svg11.dtd">
<!-- Generated by graphviz version 2.43.0 (0)
 -->
<!-- Title: Magick::DrawableTextUnderColor Pages: 1 -->
<svg width="196pt" height="170pt"
 viewBox="0.00 0.00 196.00 170.00" xmlns="http://www.w3.org/2000/svg" xmlns:xlink="http://www.w3.org/1999/xlink">
<g id="graph0" class="graph" transform="scale(1 1) rotate(0) translate(4 166)">
<title>Magick::DrawableTextUnderColor</title>
<!-- Node1 -->
<g id="Node000001" class="node">
<title>Node1</title>
<g id="a_Node000001"><a xlink:title=" ">
<polygon fill="#999999" stroke="#666666" points="154.5,-30 0.5,-30 0.5,0 154.5,0 154.5,-30"/>
<text text-anchor="start" x="8.5" y="-18" font-family="Helvetica,sans-Serif" font-size="10.00">Magick::DrawableTextUnder</text>
<text text-anchor="middle" x="77.5" y="-7" font-family="Helvetica,sans-Serif" font-size="10.00">Color</text>
</a>
</g>
</g>
<!-- Node2 -->
<g id="Node000002" class="node">
<title>Node2</title>
<g id="a_Node000002"><a xlink:title=" ">
<polygon fill="white" stroke="#666666" points="87,-96 0,-96 0,-77 87,-77 87,-96"/>
<text text-anchor="middle" x="43.5" y="-84" font-family="Helvetica,sans-Serif" font-size="10.00">DrawableBase</text>
</a>
</g>
</g>
<!-- Node2&#45;&gt;Node1 -->
<g id="edge1_Node000001_Node000002" class="edge">
<title>Node2&#45;&gt;Node1</title>
<g id="a_edge1_Node000001_Node000002"><a xlink:title=" ">
<path fill="none" stroke="#63b8ff" d="M52.17,-67.78C57.88,-56.1 65.26,-41.01 70.58,-30.14"/>
<polygon fill="#63b8ff" stroke="#63b8ff" points="48.92,-66.46 47.67,-76.98 55.21,-69.53 48.92,-66.46"/>
</a>
</g>
</g>
<!-- Node3 -->
<g id="Node000003" class="node">
<title>Node3</title>
<g id="a_Node000003"><a xlink:href="classMagick_1_1Color.html" target="_top" xlink:title=" ">
<polygon fill="white" stroke="#666666" points="188,-96 105,-96 105,-77 188,-77 188,-96"/>
<text text-anchor="middle" x="146.5" y="-84" font-family="Helvetica,sans-Serif" font-size="10.00">Magick::Color</text>
</a>
</g>
</g>
<!-- Node3&#45;&gt;Node1 -->
<g id="edge2_Node000001_Node000003" class="edge">
<title>Node3&#45;&gt;Node1</title>
<g id="a_edge2_Node000001_Node000003"><a xlink:title=" ">
<path fill="none" stroke="#9a32cd" stroke-dasharray="5,2" d="M130.98,-69.87C119.15,-57.95 102.99,-41.67 91.54,-30.14"/>
<polygon fill="#9a32cd" stroke="#9a32cd" points="128.51,-72.35 138.04,-76.98 133.48,-67.42 128.51,-72.35"/>
</a>
</g>
<text text-anchor="middle" x="134" y="-51" font-family="Helvetica,sans-Serif" font-size="10.00" fill="grey"> _color</text>
</g>
<!-- Node4 -->
<g id="Node000004" class="node">
<title>Node4</title>
<g id="a_Node000004"><a xlink:title=" ">
<polygon fill="white" stroke="#666666" points="182,-162 111,-162 111,-143 182,-143 182,-162"/>
<text text-anchor="middle" x="146.5" y="-150" font-family="Helvetica,sans-Serif" font-size="10.00">PixelPacket</text>
</a>
</g>
</g>
<!-- Node4&#45;&gt;Node3 -->
<g id="edge3_Node000003_Node000004" class="edge">
<title>Node4&#45;&gt;Node3</title>
<g id="a_edge3_Node000003_Node000004"><a xlink:title=" ">
<path fill="none" stroke="#9a32cd" stroke-dasharray="5,2" d="M146.5,-132.58C146.5,-120.63 146.5,-105.72 146.5,-96.41"/>
<polygon fill="#9a32cd" stroke="#9a32cd" points="143,-132.87 146.5,-142.87 150,-132.87 143,-132.87"/>
</a>
</g>
<text text-anchor="middle" x="162.5" y="-117" font-family="Helvetica,sans-Serif" font-size="10.00" fill="grey"> _pixel</text>
</g>
</g>
</svg>
