<?xml version="1.0" encoding="UTF-8" standalone="no"?>
<!DOCTYPE svg PUBLIC "-//W3C//DTD SVG 1.1//EN"
 "http://www.w3.org/Graphics/SVG/1.1/DTD/svg11.dtd">
<!-- Generated by graphviz version 2.43.0 (0)
 -->
<!-- Title: Magick::DrawableGravity Pages: 1 -->
<svg width="188pt" height="93pt"
 viewBox="0.00 0.00 188.00 93.00" xmlns="http://www.w3.org/2000/svg" xmlns:xlink="http://www.w3.org/1999/xlink">
<g id="graph0" class="graph" transform="scale(1 1) rotate(0) translate(4 89)">
<title>Magick::DrawableGravity</title>
<!-- Node1 -->
<g id="Node000001" class="node">
<title>Node1</title>
<g id="a_Node000001"><a xlink:title=" ">
<polygon fill="#999999" stroke="#666666" points="162.5,-19 22.5,-19 22.5,0 162.5,0 162.5,-19"/>
<text text-anchor="middle" x="92.5" y="-7" font-family="Helvetica,sans-Serif" font-size="10.00">Magick::DrawableGravity</text>
</a>
</g>
</g>
<!-- Node2 -->
<g id="Node000002" class="node">
<title>Node2</title>
<g id="a_Node000002"><a xlink:title=" ">
<polygon fill="white" stroke="#666666" points="87,-85 0,-85 0,-66 87,-66 87,-85"/>
<text text-anchor="middle" x="43.5" y="-73" font-family="Helvetica,sans-Serif" font-size="10.00">DrawableBase</text>
</a>
</g>
</g>
<!-- Node2&#45;&gt;Node1 -->
<g id="edge1_Node000001_Node000002" class="edge">
<title>Node2&#45;&gt;Node1</title>
<g id="a_edge1_Node000001_Node000002"><a xlink:title=" ">
<path fill="none" stroke="#63b8ff" d="M56.31,-57.77C65.71,-45.49 78.11,-29.3 85.68,-19.41"/>
<polygon fill="#63b8ff" stroke="#63b8ff" points="53.41,-55.8 50.11,-65.87 58.97,-60.06 53.41,-55.8"/>
</a>
</g>
</g>
<!-- Node3 -->
<g id="Node000003" class="node">
<title>Node3</title>
<g id="a_Node000003"><a xlink:title=" ">
<polygon fill="white" stroke="#666666" points="180,-85 105,-85 105,-66 180,-66 180,-85"/>
<text text-anchor="middle" x="142.5" y="-73" font-family="Helvetica,sans-Serif" font-size="10.00">GravityType</text>
</a>
</g>
</g>
<!-- Node3&#45;&gt;Node1 -->
<g id="edge2_Node000001_Node000003" class="edge">
<title>Node3&#45;&gt;Node1</title>
<g id="a_edge2_Node000001_Node000003"><a xlink:title=" ">
<path fill="none" stroke="#9a32cd" stroke-dasharray="5,2" d="M129.43,-57.77C119.84,-45.49 107.19,-29.3 99.46,-19.41"/>
<polygon fill="#9a32cd" stroke="#9a32cd" points="126.84,-60.14 135.76,-65.87 132.36,-55.83 126.84,-60.14"/>
</a>
</g>
<text text-anchor="middle" x="141" y="-40" font-family="Helvetica,sans-Serif" font-size="10.00" fill="grey"> _gravity</text>
</g>
</g>
</svg>
