<?xml version="1.0" encoding="UTF-8" standalone="no"?>
<!DOCTYPE svg PUBLIC "-//W3C//DTD SVG 1.1//EN"
 "http://www.w3.org/Graphics/SVG/1.1/DTD/svg11.dtd">
<!-- Generated by graphviz version 2.43.0 (0)
 -->
<!-- Title: cxxopts::Value::get_implicit_value Pages: 1 -->
<svg width="758pt" height="145pt"
 viewBox="0.00 0.00 758.00 145.00" xmlns="http://www.w3.org/2000/svg" xmlns:xlink="http://www.w3.org/1999/xlink">
<g id="graph0" class="graph" transform="scale(1 1) rotate(0) translate(4 141)">
<title>cxxopts::Value::get_implicit_value</title>
<!-- Node1 -->
<g id="Node000001" class="node">
<title>Node1</title>
<g id="a_Node000001"><a xlink:title=" ">
<polygon fill="#999999" stroke="#666666" points="750,-52 641,-52 641,-22 750,-22 750,-52"/>
<text text-anchor="start" x="649" y="-40" font-family="Helvetica,sans-Serif" font-size="10.00">cxxopts::Value::get</text>
<text text-anchor="middle" x="695.5" y="-29" font-family="Helvetica,sans-Serif" font-size="10.00">_implicit_value</text>
</a>
</g>
</g>
<!-- Node2 -->
<g id="Node000002" class="node">
<title>Node2</title>
<g id="a_Node000002"><a xlink:href="classcxxopts_1_1Options.html#a353100b81684422664822103672a841a" target="_top" xlink:title=" ">
<polygon fill="white" stroke="#666666" points="605,-100 483,-100 483,-70 605,-70 605,-100"/>
<text text-anchor="start" x="491" y="-88" font-family="Helvetica,sans-Serif" font-size="10.00">cxxopts::Options::add</text>
<text text-anchor="middle" x="544" y="-77" font-family="Helvetica,sans-Serif" font-size="10.00">_option</text>
</a>
</g>
</g>
<!-- Node1&#45;&gt;Node2 -->
<g id="edge1_Node000001_Node000002" class="edge">
<title>Node1&#45;&gt;Node2</title>
<g id="a_edge1_Node000001_Node000002"><a xlink:title=" ">
<path fill="none" stroke="#63b8ff" d="M637.8,-55.21C622.59,-60.09 606.32,-65.31 591.73,-70"/>
<polygon fill="#63b8ff" stroke="#63b8ff" points="639.16,-58.45 647.61,-52.06 637.02,-51.78 639.16,-58.45"/>
</a>
</g>
</g>
<!-- Node8 -->
<g id="Node000008" class="node">
<title>Node8</title>
<g id="a_Node000008"><a xlink:href="classcxxopts_1_1OptionParser.html#a0c093ba32746de7c3b08715eab961aff" target="_top" xlink:title=" ">
<polygon fill="white" stroke="#666666" points="605,-52 483,-52 483,-22 605,-22 605,-52"/>
<text text-anchor="start" x="491" y="-40" font-family="Helvetica,sans-Serif" font-size="10.00">cxxopts::OptionParser</text>
<text text-anchor="middle" x="544" y="-29" font-family="Helvetica,sans-Serif" font-size="10.00">::checked_parse_arg</text>
</a>
</g>
</g>
<!-- Node1&#45;&gt;Node8 -->
<g id="edge7_Node000001_Node000008" class="edge">
<title>Node1&#45;&gt;Node8</title>
<g id="a_edge7_Node000001_Node000008"><a xlink:title=" ">
<path fill="none" stroke="#63b8ff" d="M630.69,-37C622.18,-37 613.48,-37 605.03,-37"/>
<polygon fill="#63b8ff" stroke="#63b8ff" points="630.95,-40.5 640.95,-37 630.95,-33.5 630.95,-40.5"/>
</a>
</g>
</g>
<!-- Node9 -->
<g id="Node000009" class="node">
<title>Node9</title>
<g id="a_Node000009"><a xlink:href="classcxxopts_1_1OptionParser.html#a4218816ce33c211b54acb9e71603ea0b" target="_top" xlink:title=" ">
<polygon fill="white" stroke="#666666" points="447,-30 325,-30 325,0 447,0 447,-30"/>
<text text-anchor="start" x="333" y="-18" font-family="Helvetica,sans-Serif" font-size="10.00">cxxopts::OptionParser</text>
<text text-anchor="middle" x="386" y="-7" font-family="Helvetica,sans-Serif" font-size="10.00">::parse</text>
</a>
</g>
</g>
<!-- Node1&#45;&gt;Node9 -->
<g id="edge11_Node000001_Node000009" class="edge">
<title>Node1&#45;&gt;Node9</title>
<g id="a_edge11_Node000001_Node000009"><a xlink:title=" ">
<path fill="none" stroke="#63b8ff" d="M637.84,-19.42C627.03,-16.75 615.75,-14.42 605,-13 552.09,-6.03 491.33,-7.34 447.42,-9.93"/>
<polygon fill="#63b8ff" stroke="#63b8ff" points="637.03,-22.82 647.59,-21.95 638.79,-16.05 637.03,-22.82"/>
</a>
</g>
</g>
<!-- Node3 -->
<g id="Node000003" class="node">
<title>Node3</title>
<g id="a_Node000003"><a xlink:href="classcxxopts_1_1Options.html#ac9aef634db43a56f369749f2710e1066" target="_top" xlink:title=" ">
<polygon fill="white" stroke="#666666" points="447,-137 325,-137 325,-107 447,-107 447,-137"/>
<text text-anchor="start" x="333" y="-125" font-family="Helvetica,sans-Serif" font-size="10.00">cxxopts::Options::add</text>
<text text-anchor="middle" x="386" y="-114" font-family="Helvetica,sans-Serif" font-size="10.00">_option</text>
</a>
</g>
</g>
<!-- Node2&#45;&gt;Node3 -->
<g id="edge2_Node000002_Node000003" class="edge">
<title>Node2&#45;&gt;Node3</title>
<g id="a_edge2_Node000002_Node000003"><a xlink:title=" ">
<path fill="none" stroke="#63b8ff" d="M472.74,-101.66C464.2,-103.69 455.53,-105.75 447.15,-107.73"/>
<polygon fill="#63b8ff" stroke="#63b8ff" points="473.76,-105.02 482.69,-99.31 472.15,-98.21 473.76,-105.02"/>
</a>
</g>
</g>
<!-- Node4 -->
<g id="Node000004" class="node">
<title>Node4</title>
<g id="a_Node000004"><a xlink:href="classcxxopts_1_1OptionAdder.html#a4feb747760c5fbaa807a4c8e1c335ac5" target="_top" xlink:title=" ">
<polygon fill="white" stroke="#666666" points="446.5,-89 325.5,-89 325.5,-59 446.5,-59 446.5,-89"/>
<text text-anchor="start" x="333.5" y="-77" font-family="Helvetica,sans-Serif" font-size="10.00">cxxopts::OptionAdder</text>
<text text-anchor="middle" x="386" y="-66" font-family="Helvetica,sans-Serif" font-size="10.00">::operator()</text>
</a>
</g>
</g>
<!-- Node2&#45;&gt;Node4 -->
<g id="edge3_Node000002_Node000004" class="edge">
<title>Node2&#45;&gt;Node4</title>
<g id="a_edge3_Node000002_Node000004"><a xlink:title=" ">
<path fill="none" stroke="#63b8ff" d="M472.59,-80.04C463.92,-79.42 455.13,-78.8 446.64,-78.21"/>
<polygon fill="#63b8ff" stroke="#63b8ff" points="472.46,-83.53 482.69,-80.75 472.96,-76.55 472.46,-83.53"/>
</a>
</g>
</g>
<!-- Node5 -->
<g id="Node000005" class="node">
<title>Node5</title>
<g id="a_Node000005"><a xlink:href="classcxxopts_1_1Options.html#a95878aa582f2ed8e0a2b73e735eb287d" target="_top" xlink:title=" ">
<polygon fill="white" stroke="#666666" points="284.5,-111 162.5,-111 162.5,-81 284.5,-81 284.5,-111"/>
<text text-anchor="start" x="170.5" y="-99" font-family="Helvetica,sans-Serif" font-size="10.00">cxxopts::Options::add</text>
<text text-anchor="middle" x="223.5" y="-88" font-family="Helvetica,sans-Serif" font-size="10.00">_options</text>
</a>
</g>
</g>
<!-- Node4&#45;&gt;Node5 -->
<g id="edge4_Node000004_Node000005" class="edge">
<title>Node4&#45;&gt;Node5</title>
<g id="a_edge4_Node000004_Node000005"><a xlink:title=" ">
<path fill="none" stroke="#63b8ff" d="M315.15,-83.57C304.96,-84.97 294.55,-86.4 284.58,-87.76"/>
<polygon fill="#63b8ff" stroke="#63b8ff" points="315.8,-87.02 325.24,-82.19 314.85,-80.08 315.8,-87.02"/>
</a>
</g>
</g>
<!-- Node7 -->
<g id="Node000007" class="node">
<title>Node7</title>
<g id="a_Node000007"><a xlink:href="transmitter-normal_8cpp.html#a3c04138a5bfe5d72780bb7e82a18e627" target="_top" xlink:title=" ">
<polygon fill="white" stroke="#666666" points="81.5,-43.5 40.5,-43.5 40.5,-24.5 81.5,-24.5 81.5,-43.5"/>
<text text-anchor="middle" x="61" y="-31.5" font-family="Helvetica,sans-Serif" font-size="10.00">main</text>
</a>
</g>
</g>
<!-- Node4&#45;&gt;Node7 -->
<g id="edge6_Node000004_Node000007" class="edge">
<title>Node4&#45;&gt;Node7</title>
<g id="a_edge6_Node000004_Node000007"><a xlink:title=" ">
<path fill="none" stroke="#63b8ff" d="M315.13,-65.35C240.54,-56.11 126.99,-42.05 81.68,-36.44"/>
<polygon fill="#63b8ff" stroke="#63b8ff" points="315.03,-68.86 325.38,-66.62 315.89,-61.91 315.03,-68.86"/>
</a>
</g>
</g>
<!-- Node6 -->
<g id="Node000006" class="node">
<title>Node6</title>
<g id="a_Node000006"><a xlink:href="classcxxopts_1_1Options.html#ac698adfe5b5ca50d36017a52b27fb828" target="_top" xlink:title=" ">
<polygon fill="white" stroke="#666666" points="122,-111 0,-111 0,-81 122,-81 122,-111"/>
<text text-anchor="start" x="8" y="-99" font-family="Helvetica,sans-Serif" font-size="10.00">cxxopts::Options::add</text>
<text text-anchor="middle" x="61" y="-88" font-family="Helvetica,sans-Serif" font-size="10.00">_option</text>
</a>
</g>
</g>
<!-- Node5&#45;&gt;Node6 -->
<g id="edge5_Node000005_Node000006" class="edge">
<title>Node5&#45;&gt;Node6</title>
<g id="a_edge5_Node000005_Node000006"><a xlink:title=" ">
<path fill="none" stroke="#63b8ff" d="M151.97,-96C141.98,-96 131.79,-96 122.02,-96"/>
<polygon fill="#63b8ff" stroke="#63b8ff" points="152.28,-99.5 162.28,-96 152.28,-92.5 152.28,-99.5"/>
</a>
</g>
</g>
<!-- Node8&#45;&gt;Node9 -->
<g id="edge8_Node000008_Node000009" class="edge">
<title>Node8&#45;&gt;Node9</title>
<g id="a_edge8_Node000008_Node000009"><a xlink:title=" ">
<path fill="none" stroke="#63b8ff" d="M472.74,-27.09C464.2,-25.89 455.53,-24.66 447.15,-23.48"/>
<polygon fill="#63b8ff" stroke="#63b8ff" points="472.3,-30.56 482.69,-28.49 473.27,-23.63 472.3,-30.56"/>
</a>
</g>
</g>
<!-- Node10 -->
<g id="Node000010" class="node">
<title>Node10</title>
<g id="a_Node000010"><a xlink:href="classcxxopts_1_1Options.html#a3e740564cc4c991078f1451e1fcd082b" target="_top" xlink:title=" ">
<polygon fill="white" stroke="#666666" points="289,-24.5 158,-24.5 158,-5.5 289,-5.5 289,-24.5"/>
<text text-anchor="middle" x="223.5" y="-12.5" font-family="Helvetica,sans-Serif" font-size="10.00">cxxopts::Options::parse</text>
</a>
</g>
</g>
<!-- Node9&#45;&gt;Node10 -->
<g id="edge9_Node000009_Node000010" class="edge">
<title>Node9&#45;&gt;Node10</title>
<g id="a_edge9_Node000009_Node000010"><a xlink:title=" ">
<path fill="none" stroke="#63b8ff" d="M314.55,-15C306.08,-15 297.47,-15 289.09,-15"/>
<polygon fill="#63b8ff" stroke="#63b8ff" points="314.78,-18.5 324.78,-15 314.78,-11.5 314.78,-18.5"/>
</a>
</g>
</g>
<!-- Node10&#45;&gt;Node7 -->
<g id="edge10_Node000010_Node000007" class="edge">
<title>Node10&#45;&gt;Node7</title>
<g id="a_edge10_Node000010_Node000007"><a xlink:title=" ">
<path fill="none" stroke="#63b8ff" d="M147.67,-23.86C123.31,-26.74 98.27,-29.71 81.6,-31.68"/>
<polygon fill="#63b8ff" stroke="#63b8ff" points="148.16,-27.32 157.68,-22.67 147.34,-20.37 148.16,-27.32"/>
</a>
</g>
</g>
</g>
</svg>
