<?xml version="1.0" encoding="UTF-8" standalone="no"?>
<!DOCTYPE svg PUBLIC "-//W3C//DTD SVG 1.1//EN"
 "http://www.w3.org/Graphics/SVG/1.1/DTD/svg11.dtd">
<!-- Generated by graphviz version 2.43.0 (0)
 -->
<!-- Title: detail::tm_format_checker::tm_format_checker Pages: 1 -->
<svg width="449pt" height="38pt"
 viewBox="0.00 0.00 449.00 38.00" xmlns="http://www.w3.org/2000/svg" xmlns:xlink="http://www.w3.org/1999/xlink">
<g id="graph0" class="graph" transform="scale(1 1) rotate(0) translate(4 34)">
<title>detail::tm_format_checker::tm_format_checker</title>
<!-- Node1 -->
<g id="Node000001" class="node">
<title>Node1</title>
<g id="a_Node000001"><a xlink:title=" ">
<polygon fill="#999999" stroke="#666666" points="441,-30 296,-30 296,0 441,0 441,-30"/>
<text text-anchor="start" x="304" y="-18" font-family="Helvetica,sans-Serif" font-size="10.00">detail::tm_format_checker</text>
<text text-anchor="middle" x="368.5" y="-7" font-family="Helvetica,sans-Serif" font-size="10.00">::tm_format_checker</text>
</a>
</g>
</g>
<!-- Node2 -->
<g id="Node000002" class="node">
<title>Node2</title>
<g id="a_Node000002"><a xlink:href="structformatter_3_01std_1_1tm_00_01Char_01_4.html#a129b6aab54742e2da9ec4555d18aadf0" target="_top" xlink:title=" ">
<polygon fill="white" stroke="#666666" points="260,-30 148,-30 148,0 260,0 260,-30"/>
<text text-anchor="start" x="156" y="-18" font-family="Helvetica,sans-Serif" font-size="10.00">formatter&lt; std::tm,</text>
<text text-anchor="middle" x="204" y="-7" font-family="Helvetica,sans-Serif" font-size="10.00"> Char &gt;::do_parse</text>
</a>
</g>
</g>
<!-- Node1&#45;&gt;Node2 -->
<g id="edge1_Node000001_Node000002" class="edge">
<title>Node1&#45;&gt;Node2</title>
<g id="a_edge1_Node000001_Node000002"><a xlink:title=" ">
<path fill="none" stroke="#63b8ff" d="M285.67,-15C277.06,-15 268.46,-15 260.26,-15"/>
<polygon fill="#63b8ff" stroke="#63b8ff" points="285.75,-18.5 295.75,-15 285.75,-11.5 285.75,-18.5"/>
</a>
</g>
</g>
<!-- Node3 -->
<g id="Node000003" class="node">
<title>Node3</title>
<g id="a_Node000003"><a xlink:href="structformatter_3_01std_1_1tm_00_01Char_01_4.html#adaabc9598d22ac90e7c169cced052324" target="_top" xlink:title=" ">
<polygon fill="white" stroke="#666666" points="112,-30 0,-30 0,0 112,0 112,-30"/>
<text text-anchor="start" x="8" y="-18" font-family="Helvetica,sans-Serif" font-size="10.00">formatter&lt; std::tm,</text>
<text text-anchor="middle" x="56" y="-7" font-family="Helvetica,sans-Serif" font-size="10.00"> Char &gt;::parse</text>
</a>
</g>
</g>
<!-- Node2&#45;&gt;Node3 -->
<g id="edge2_Node000002_Node000003" class="edge">
<title>Node2&#45;&gt;Node3</title>
<g id="a_edge2_Node000002_Node000003"><a xlink:title=" ">
<path fill="none" stroke="#63b8ff" d="M137.59,-15C129.14,-15 120.54,-15 112.27,-15"/>
<polygon fill="#63b8ff" stroke="#63b8ff" points="137.8,-18.5 147.8,-15 137.8,-11.5 137.8,-18.5"/>
</a>
</g>
</g>
</g>
</svg>
