<?xml version="1.0" encoding="UTF-8" standalone="no"?>
<!DOCTYPE svg PUBLIC "-//W3C//DTD SVG 1.1//EN"
 "http://www.w3.org/Graphics/SVG/1.1/DTD/svg11.dtd">
<!-- Generated by graphviz version 2.43.0 (0)
 -->
<!-- Title: detail::tm_writer::on_iso_week_based_year Pages: 1 -->
<svg width="740pt" height="291pt"
 viewBox="0.00 0.00 740.00 290.50" xmlns="http://www.w3.org/2000/svg" xmlns:xlink="http://www.w3.org/1999/xlink">
<g id="graph0" class="graph" transform="scale(1 1) rotate(0) translate(4 286.5)">
<title>detail::tm_writer::on_iso_week_based_year</title>
<!-- Node1 -->
<g id="Node000001" class="node">
<title>Node1</title>
<g id="a_Node000001"><a xlink:title=" ">
<polygon fill="#999999" stroke="#666666" points="141,-114.5 0,-114.5 0,-84.5 141,-84.5 141,-114.5"/>
<text text-anchor="start" x="8" y="-102.5" font-family="Helvetica,sans-Serif" font-size="10.00">detail::tm_writer::</text>
<text text-anchor="middle" x="70.5" y="-91.5" font-family="Helvetica,sans-Serif" font-size="10.00">on_iso_week_based_year</text>
</a>
</g>
</g>
<!-- Node2 -->
<g id="Node000002" class="node">
<title>Node2</title>
<g id="a_Node000002"><a xlink:href="classdetail_1_1tm__writer.html#a73adb4c23c197bf3403a9ea4aa82d842" target="_top" xlink:title=" ">
<polygon fill="white" stroke="#666666" points="285,-162.5 177,-162.5 177,-132.5 285,-132.5 285,-162.5"/>
<text text-anchor="start" x="185" y="-150.5" font-family="Helvetica,sans-Serif" font-size="10.00">detail::tm_writer::</text>
<text text-anchor="middle" x="231" y="-139.5" font-family="Helvetica,sans-Serif" font-size="10.00">tm_iso_week_year</text>
</a>
</g>
</g>
<!-- Node1&#45;&gt;Node2 -->
<g id="edge1_Node000001_Node000002" class="edge">
<title>Node1&#45;&gt;Node2</title>
<g id="a_edge1_Node000001_Node000002"><a xlink:title=" ">
<path fill="none" stroke="#63b8ff" d="M121.22,-114.56C136.85,-119.29 154.28,-124.57 170.53,-129.49"/>
<polygon fill="#63b8ff" stroke="#63b8ff" points="169.88,-132.95 180.46,-132.5 171.9,-126.25 169.88,-132.95"/>
</a>
</g>
</g>
<!-- Node8 -->
<g id="Node000008" class="node">
<title>Node8</title>
<g id="a_Node000008"><a xlink:href="classdetail_1_1tm__writer.html#aeccc3597d5e9f4f0dd497bab3214340a" target="_top" xlink:title=" ">
<polygon fill="white" stroke="#666666" points="283,-90.5 179,-90.5 179,-60.5 283,-60.5 283,-90.5"/>
<text text-anchor="start" x="187" y="-78.5" font-family="Helvetica,sans-Serif" font-size="10.00">detail::tm_writer::</text>
<text text-anchor="middle" x="231" y="-67.5" font-family="Helvetica,sans-Serif" font-size="10.00">write_year</text>
</a>
</g>
</g>
<!-- Node1&#45;&gt;Node8 -->
<g id="edge7_Node000001_Node000008" class="edge">
<title>Node1&#45;&gt;Node8</title>
<g id="a_edge7_Node000001_Node000008"><a xlink:title=" ">
<path fill="none" stroke="#63b8ff" d="M141.02,-88.97C150.21,-87.58 159.57,-86.16 168.61,-84.8"/>
<polygon fill="#63b8ff" stroke="#63b8ff" points="169.28,-88.23 178.64,-83.28 168.23,-81.31 169.28,-88.23"/>
</a>
</g>
</g>
<!-- Node3 -->
<g id="Node000003" class="node">
<title>Node3</title>
<g id="a_Node000003"><a xlink:href="classdetail_1_1tm__writer.html#aea0848bf23ac12ecc1fc231def813bc8" target="_top" xlink:title=" ">
<polygon fill="white" stroke="#666666" points="432.5,-282.5 328.5,-282.5 328.5,-252.5 432.5,-252.5 432.5,-282.5"/>
<text text-anchor="start" x="336.5" y="-270.5" font-family="Helvetica,sans-Serif" font-size="10.00">detail::tm_writer::</text>
<text text-anchor="middle" x="380.5" y="-259.5" font-family="Helvetica,sans-Serif" font-size="10.00">iso_week_num</text>
</a>
</g>
</g>
<!-- Node2&#45;&gt;Node3 -->
<g id="edge2_Node000002_Node000003" class="edge">
<title>Node2&#45;&gt;Node3</title>
<g id="a_edge2_Node000002_Node000003"><a xlink:title=" ">
<path fill="none" stroke="#63b8ff" d="M242.75,-162.74C258.05,-183.46 287.94,-220.58 321,-243.5 323.09,-244.95 325.28,-246.33 327.54,-247.65"/>
<polygon fill="#63b8ff" stroke="#63b8ff" points="326.03,-250.81 336.5,-252.41 329.31,-244.63 326.03,-250.81"/>
</a>
</g>
</g>
<!-- Node4 -->
<g id="Node000004" class="node">
<title>Node4</title>
<g id="a_Node000004"><a xlink:href="classdetail_1_1tm__writer.html#ac6bcd1b35ef246a2366e37f4738b095e" target="_top" xlink:title=" ">
<polygon fill="white" stroke="#666666" points="432.5,-234.5 328.5,-234.5 328.5,-204.5 432.5,-204.5 432.5,-234.5"/>
<text text-anchor="start" x="336.5" y="-222.5" font-family="Helvetica,sans-Serif" font-size="10.00">detail::tm_writer::</text>
<text text-anchor="middle" x="380.5" y="-211.5" font-family="Helvetica,sans-Serif" font-size="10.00">iso_year_weeks</text>
</a>
</g>
</g>
<!-- Node2&#45;&gt;Node4 -->
<g id="edge3_Node000002_Node000004" class="edge">
<title>Node2&#45;&gt;Node4</title>
<g id="a_edge3_Node000002_Node000004"><a xlink:title=" ">
<path fill="none" stroke="#63b8ff" d="M258.11,-162.52C275.65,-172.38 299.42,-185.29 321,-195.5 324.53,-197.17 328.2,-198.84 331.92,-200.47"/>
<polygon fill="#63b8ff" stroke="#63b8ff" points="330.6,-203.72 341.17,-204.45 333.37,-197.29 330.6,-203.72"/>
</a>
</g>
</g>
<!-- Node5 -->
<g id="Node000005" class="node">
<title>Node5</title>
<g id="a_Node000005"><a xlink:href="classdetail_1_1tm__writer.html#a1b267d2dee9041f4858847d49d87dabf" target="_top" xlink:title=" ">
<polygon fill="white" stroke="#666666" points="432.5,-186.5 328.5,-186.5 328.5,-156.5 432.5,-156.5 432.5,-186.5"/>
<text text-anchor="start" x="336.5" y="-174.5" font-family="Helvetica,sans-Serif" font-size="10.00">detail::tm_writer::</text>
<text text-anchor="middle" x="380.5" y="-163.5" font-family="Helvetica,sans-Serif" font-size="10.00">tm_wday</text>
</a>
</g>
</g>
<!-- Node2&#45;&gt;Node5 -->
<g id="edge4_Node000002_Node000005" class="edge">
<title>Node2&#45;&gt;Node5</title>
<g id="a_edge4_Node000002_Node000005"><a xlink:title=" ">
<path fill="none" stroke="#63b8ff" d="M285.25,-156.16C295.99,-157.91 307.36,-159.76 318.35,-161.55"/>
<polygon fill="#63b8ff" stroke="#63b8ff" points="317.87,-165.02 328.3,-163.17 318.99,-158.11 317.87,-165.02"/>
</a>
</g>
</g>
<!-- Node6 -->
<g id="Node000006" class="node">
<title>Node6</title>
<g id="a_Node000006"><a xlink:href="classdetail_1_1tm__writer.html#ad3f344b40cfb8d03c73022000f799c72" target="_top" xlink:title=" ">
<polygon fill="white" stroke="#666666" points="432.5,-138.5 328.5,-138.5 328.5,-108.5 432.5,-108.5 432.5,-138.5"/>
<text text-anchor="start" x="336.5" y="-126.5" font-family="Helvetica,sans-Serif" font-size="10.00">detail::tm_writer::</text>
<text text-anchor="middle" x="380.5" y="-115.5" font-family="Helvetica,sans-Serif" font-size="10.00">tm_yday</text>
</a>
</g>
</g>
<!-- Node2&#45;&gt;Node6 -->
<g id="edge5_Node000002_Node000006" class="edge">
<title>Node2&#45;&gt;Node6</title>
<g id="a_edge5_Node000002_Node000006"><a xlink:title=" ">
<path fill="none" stroke="#63b8ff" d="M285.25,-138.84C295.99,-137.09 307.36,-135.24 318.35,-133.45"/>
<polygon fill="#63b8ff" stroke="#63b8ff" points="318.99,-136.89 328.3,-131.83 317.87,-129.98 318.99,-136.89"/>
</a>
</g>
</g>
<!-- Node7 -->
<g id="Node000007" class="node">
<title>Node7</title>
<g id="a_Node000007"><a xlink:href="classdetail_1_1tm__writer.html#a82bed31c275dcb4710557360e5d3ab58" target="_top" xlink:title=" ">
<polygon fill="white" stroke="#666666" points="432.5,-90.5 328.5,-90.5 328.5,-60.5 432.5,-60.5 432.5,-90.5"/>
<text text-anchor="start" x="336.5" y="-78.5" font-family="Helvetica,sans-Serif" font-size="10.00">detail::tm_writer::</text>
<text text-anchor="middle" x="380.5" y="-67.5" font-family="Helvetica,sans-Serif" font-size="10.00">tm_year</text>
</a>
</g>
</g>
<!-- Node2&#45;&gt;Node7 -->
<g id="edge6_Node000002_Node000007" class="edge">
<title>Node2&#45;&gt;Node7</title>
<g id="a_edge6_Node000002_Node000007"><a xlink:title=" ">
<path fill="none" stroke="#63b8ff" d="M258.11,-132.48C275.65,-122.62 299.42,-109.71 321,-99.5 324.53,-97.83 328.2,-96.16 331.92,-94.53"/>
<polygon fill="#63b8ff" stroke="#63b8ff" points="333.37,-97.71 341.17,-90.55 330.6,-91.28 333.37,-97.71"/>
</a>
</g>
</g>
<!-- Node9 -->
<g id="Node000009" class="node">
<title>Node9</title>
<g id="a_Node000009"><a xlink:href="classdetail_1_1tm__writer.html#afebe1080f809fce7f9929aac3b0b9111" target="_top" xlink:title=" ">
<polygon fill="white" stroke="#666666" points="440,-42.5 321,-42.5 321,-12.5 440,-12.5 440,-42.5"/>
<text text-anchor="start" x="329" y="-30.5" font-family="Helvetica,sans-Serif" font-size="10.00">detail::tm_writer::</text>
<text text-anchor="middle" x="380.5" y="-19.5" font-family="Helvetica,sans-Serif" font-size="10.00">write_year_extended</text>
</a>
</g>
</g>
<!-- Node8&#45;&gt;Node9 -->
<g id="edge8_Node000008_Node000009" class="edge">
<title>Node8&#45;&gt;Node9</title>
<g id="a_edge8_Node000008_Node000009"><a xlink:title=" ">
<path fill="none" stroke="#63b8ff" d="M278.27,-60.44C292.68,-55.75 308.73,-50.53 323.73,-45.65"/>
<polygon fill="#63b8ff" stroke="#63b8ff" points="324.97,-48.93 333.4,-42.5 322.81,-42.27 324.97,-48.93"/>
</a>
</g>
</g>
<!-- Node10 -->
<g id="Node000010" class="node">
<title>Node10</title>
<g id="a_Node000010"><a xlink:href="namespacedetail.html#ae970ad8cf6b25d7896f788089ca1b0eb" target="_top" xlink:title=" ">
<polygon fill="white" stroke="#666666" points="586,-56 476,-56 476,-37 586,-37 586,-56"/>
<text text-anchor="middle" x="531" y="-44" font-family="Helvetica,sans-Serif" font-size="10.00">detail::count_digits</text>
</a>
</g>
</g>
<!-- Node9&#45;&gt;Node10 -->
<g id="edge9_Node000009_Node000010" class="edge">
<title>Node9&#45;&gt;Node10</title>
<g id="a_edge9_Node000009_Node000010"><a xlink:title=" ">
<path fill="none" stroke="#63b8ff" d="M440.19,-35.01C448.49,-36.07 457.06,-37.17 465.46,-38.24"/>
<polygon fill="#63b8ff" stroke="#63b8ff" points="465.24,-41.74 475.6,-39.54 466.13,-34.8 465.24,-41.74"/>
</a>
</g>
</g>
<!-- Node13 -->
<g id="Node000013" class="node">
<title>Node13</title>
<g id="a_Node000013"><a xlink:href="namespacedetail.html#a4855e668246c731a97484efc329f2aac" target="_top" xlink:title=" ">
<polygon fill="white" stroke="#666666" points="586,-19 476,-19 476,0 586,0 586,-19"/>
<text text-anchor="middle" x="531" y="-7" font-family="Helvetica,sans-Serif" font-size="10.00">detail::to_unsigned</text>
</a>
</g>
</g>
<!-- Node9&#45;&gt;Node13 -->
<g id="edge12_Node000009_Node000013" class="edge">
<title>Node9&#45;&gt;Node13</title>
<g id="a_edge12_Node000009_Node000013"><a xlink:title=" ">
<path fill="none" stroke="#63b8ff" d="M440.19,-20.39C448.49,-19.38 457.06,-18.34 465.46,-17.32"/>
<polygon fill="#63b8ff" stroke="#63b8ff" points="466.09,-20.77 475.6,-16.09 465.25,-13.82 466.09,-20.77"/>
</a>
</g>
</g>
<!-- Node11 -->
<g id="Node000011" class="node">
<title>Node11</title>
<g id="a_Node000011"><a xlink:href="namespacedetail.html#a300bc96ee936e9f6ef3565c8dff68a72" target="_top" xlink:title=" ">
<polygon fill="white" stroke="#666666" points="732,-85.5 622,-85.5 622,-55.5 732,-55.5 732,-85.5"/>
<text text-anchor="start" x="630" y="-73.5" font-family="Helvetica,sans-Serif" font-size="10.00">detail::count_digits</text>
<text text-anchor="middle" x="677" y="-62.5" font-family="Helvetica,sans-Serif" font-size="10.00">_fallback</text>
</a>
</g>
</g>
<!-- Node10&#45;&gt;Node11 -->
<g id="edge10_Node000010_Node000011" class="edge">
<title>Node10&#45;&gt;Node11</title>
<g id="a_edge10_Node000010_Node000011"><a xlink:title=" ">
<path fill="none" stroke="#63b8ff" d="M586.03,-55.5C594.4,-56.9 603.13,-58.35 611.7,-59.78"/>
<polygon fill="#63b8ff" stroke="#63b8ff" points="611.23,-63.25 621.67,-61.44 612.38,-56.35 611.23,-63.25"/>
</a>
</g>
</g>
<!-- Node12 -->
<g id="Node000012" class="node">
<title>Node12</title>
<g id="a_Node000012"><a xlink:href="namespacedetail.html#a75ed2634319883d038944529dbb954e2" target="_top" xlink:title=" ">
<polygon fill="white" stroke="#666666" points="730,-37.5 624,-37.5 624,-7.5 730,-7.5 730,-37.5"/>
<text text-anchor="start" x="632" y="-25.5" font-family="Helvetica,sans-Serif" font-size="10.00">detail::is_constant</text>
<text text-anchor="middle" x="677" y="-14.5" font-family="Helvetica,sans-Serif" font-size="10.00">_evaluated</text>
</a>
</g>
</g>
<!-- Node10&#45;&gt;Node12 -->
<g id="edge11_Node000010_Node000012" class="edge">
<title>Node10&#45;&gt;Node12</title>
<g id="a_edge11_Node000010_Node000012"><a xlink:title=" ">
<path fill="none" stroke="#63b8ff" d="M586.03,-37.5C595.06,-35.99 604.48,-34.42 613.7,-32.88"/>
<polygon fill="#63b8ff" stroke="#63b8ff" points="614.29,-36.33 623.58,-31.24 613.14,-29.43 614.29,-36.33"/>
</a>
</g>
</g>
</g>
</svg>
