<?xml version="1.0" encoding="UTF-8" standalone="no"?>
<!DOCTYPE svg PUBLIC "-//W3C//DTD SVG 1.1//EN"
 "http://www.w3.org/Graphics/SVG/1.1/DTD/svg11.dtd">
<!-- Generated by graphviz version 2.43.0 (0)
 -->
<!-- Title: detail::utf8_to_utf16::utf8_to_utf16 Pages: 1 -->
<svg width="473pt" height="235pt"
 viewBox="0.00 0.00 473.00 235.00" xmlns="http://www.w3.org/2000/svg" xmlns:xlink="http://www.w3.org/1999/xlink">
<g id="graph0" class="graph" transform="scale(1 1) rotate(0) translate(4 231)">
<title>detail::utf8_to_utf16::utf8_to_utf16</title>
<!-- Node1 -->
<g id="Node000001" class="node">
<title>Node1</title>
<g id="a_Node000001"><a xlink:title=" ">
<polygon fill="#999999" stroke="#666666" points="116,-88 0,-88 0,-58 116,-58 116,-88"/>
<text text-anchor="start" x="8" y="-76" font-family="Helvetica,sans-Serif" font-size="10.00">detail::utf8_to_utf16</text>
<text text-anchor="middle" x="58" y="-65" font-family="Helvetica,sans-Serif" font-size="10.00">::utf8_to_utf16</text>
</a>
</g>
</g>
<!-- Node2 -->
<g id="Node000002" class="node">
<title>Node2</title>
<g id="a_Node000002"><a xlink:href="namespacedetail.html#ac7952761a4b6255293c82b7fb3a61d50" target="_top" xlink:title=" ">
<polygon fill="white" stroke="#666666" points="298,-122.5 152,-122.5 152,-103.5 298,-103.5 298,-122.5"/>
<text text-anchor="middle" x="225" y="-110.5" font-family="Helvetica,sans-Serif" font-size="10.00">detail::for_each_codepoint</text>
</a>
</g>
</g>
<!-- Node1&#45;&gt;Node2 -->
<g id="edge1_Node000001_Node000002" class="edge">
<title>Node1&#45;&gt;Node2</title>
<g id="a_edge1_Node000001_Node000002"><a xlink:title=" ">
<path fill="none" stroke="#63b8ff" d="M116.25,-86.88C135.33,-91.5 156.41,-96.61 174.83,-101.08"/>
<polygon fill="#63b8ff" stroke="#63b8ff" points="174.21,-104.53 184.75,-103.49 175.86,-97.73 174.21,-104.53"/>
</a>
</g>
</g>
<!-- Node8 -->
<g id="Node000008" class="node">
<title>Node8</title>
<g id="a_Node000008"><a xlink:href="classdetail_1_1buffer.html#a49016d0c600f79917e00d9e3458c8c92" target="_top" xlink:title=" ">
<polygon fill="white" stroke="#666666" points="293.5,-64.5 156.5,-64.5 156.5,-45.5 293.5,-45.5 293.5,-64.5"/>
<text text-anchor="middle" x="225" y="-52.5" font-family="Helvetica,sans-Serif" font-size="10.00">detail::buffer::push_back</text>
</a>
</g>
</g>
<!-- Node1&#45;&gt;Node8 -->
<g id="edge7_Node000001_Node000008" class="edge">
<title>Node1&#45;&gt;Node8</title>
<g id="a_edge7_Node000001_Node000008"><a xlink:title=" ">
<path fill="none" stroke="#63b8ff" d="M116.25,-66.75C125.95,-65.7 136.17,-64.58 146.29,-63.48"/>
<polygon fill="#63b8ff" stroke="#63b8ff" points="146.8,-66.94 156.36,-62.38 146.04,-59.98 146.8,-66.94"/>
</a>
</g>
</g>
<!-- Node3 -->
<g id="Node000003" class="node">
<title>Node3</title>
<g id="a_Node000003"><a xlink:href="classbasic__string__view.html#aae708273ca864680a424c10441799605" target="_top" xlink:title=" ">
<polygon fill="white" stroke="#666666" points="454,-227 345,-227 345,-197 454,-197 454,-227"/>
<text text-anchor="start" x="353" y="-215" font-family="Helvetica,sans-Serif" font-size="10.00">basic_string_view::</text>
<text text-anchor="middle" x="399.5" y="-204" font-family="Helvetica,sans-Serif" font-size="10.00">basic_string_view</text>
</a>
</g>
</g>
<!-- Node2&#45;&gt;Node3 -->
<g id="edge2_Node000002_Node000003" class="edge">
<title>Node2&#45;&gt;Node3</title>
<g id="a_edge2_Node000002_Node000003"><a xlink:title=" ">
<path fill="none" stroke="#63b8ff" d="M237.68,-122.59C256.84,-137.98 296.57,-168.44 334,-188 337.26,-189.71 340.67,-191.35 344.15,-192.92"/>
<polygon fill="#63b8ff" stroke="#63b8ff" points="342.88,-196.18 353.45,-196.9 345.64,-189.75 342.88,-196.18"/>
</a>
</g>
</g>
<!-- Node4 -->
<g id="Node000004" class="node">
<title>Node4</title>
<g id="a_Node000004"><a xlink:href="classbasic__string__view.html#a39cdfe061dc6d64a3adc230b62d8a026" target="_top" xlink:title=" ">
<polygon fill="white" stroke="#666666" points="465,-178.5 334,-178.5 334,-159.5 465,-159.5 465,-178.5"/>
<text text-anchor="middle" x="399.5" y="-166.5" font-family="Helvetica,sans-Serif" font-size="10.00">basic_string_view::data</text>
</a>
</g>
</g>
<!-- Node2&#45;&gt;Node4 -->
<g id="edge3_Node000002_Node000004" class="edge">
<title>Node2&#45;&gt;Node4</title>
<g id="a_edge3_Node000002_Node000004"><a xlink:title=" ">
<path fill="none" stroke="#63b8ff" d="M251.59,-122.54C273.37,-130.53 305.56,-142.04 334,-151 340.04,-152.9 346.43,-154.81 352.75,-156.64"/>
<polygon fill="#63b8ff" stroke="#63b8ff" points="351.98,-160.06 362.55,-159.42 353.89,-153.32 351.98,-160.06"/>
</a>
</g>
</g>
<!-- Node5 -->
<g id="Node000005" class="node">
<title>Node5</title>
<g id="a_Node000005"><a xlink:href="classbasic__string__view.html#a216bbe1b012b590698d7bb4e96d1af3f" target="_top" xlink:title=" ">
<polygon fill="white" stroke="#666666" points="463.5,-141.5 335.5,-141.5 335.5,-122.5 463.5,-122.5 463.5,-141.5"/>
<text text-anchor="middle" x="399.5" y="-129.5" font-family="Helvetica,sans-Serif" font-size="10.00">basic_string_view::size</text>
</a>
</g>
</g>
<!-- Node2&#45;&gt;Node5 -->
<g id="edge4_Node000002_Node000005" class="edge">
<title>Node2&#45;&gt;Node5</title>
<g id="a_edge4_Node000002_Node000005"><a xlink:title=" ">
<path fill="none" stroke="#63b8ff" d="M298.16,-120.95C307.14,-121.94 316.34,-122.95 325.35,-123.94"/>
<polygon fill="#63b8ff" stroke="#63b8ff" points="325.08,-127.43 335.41,-125.05 325.85,-120.48 325.08,-127.43"/>
</a>
</g>
</g>
<!-- Node6 -->
<g id="Node000006" class="node">
<title>Node6</title>
<g id="a_Node000006"><a xlink:href="namespacedetail.html#a4855e668246c731a97484efc329f2aac" target="_top" xlink:title=" ">
<polygon fill="white" stroke="#666666" points="454.5,-104.5 344.5,-104.5 344.5,-85.5 454.5,-85.5 454.5,-104.5"/>
<text text-anchor="middle" x="399.5" y="-92.5" font-family="Helvetica,sans-Serif" font-size="10.00">detail::to_unsigned</text>
</a>
</g>
</g>
<!-- Node2&#45;&gt;Node6 -->
<g id="edge5_Node000002_Node000006" class="edge">
<title>Node2&#45;&gt;Node6</title>
<g id="a_edge5_Node000002_Node000006"><a xlink:title=" ">
<path fill="none" stroke="#63b8ff" d="M298.16,-105.47C310.15,-104.22 322.52,-102.93 334.3,-101.7"/>
<polygon fill="#63b8ff" stroke="#63b8ff" points="334.9,-105.16 344.48,-100.64 334.17,-98.19 334.9,-105.16"/>
</a>
</g>
</g>
<!-- Node7 -->
<g id="Node000007" class="node">
<title>Node7</title>
<g id="a_Node000007"><a xlink:href="namespacedetail.html#a9cd935fa9e8ecf106e59bee1411440b9" target="_top" xlink:title=" ">
<polygon fill="white" stroke="#666666" points="454.5,-67.5 344.5,-67.5 344.5,-48.5 454.5,-48.5 454.5,-67.5"/>
<text text-anchor="middle" x="399.5" y="-55.5" font-family="Helvetica,sans-Serif" font-size="10.00">detail::utf8_decode</text>
</a>
</g>
</g>
<!-- Node2&#45;&gt;Node7 -->
<g id="edge6_Node000002_Node000007" class="edge">
<title>Node2&#45;&gt;Node7</title>
<g id="a_edge6_Node000002_Node000007"><a xlink:title=" ">
<path fill="none" stroke="#63b8ff" d="M253.88,-103.4C275.64,-95.99 306.66,-85.58 334,-77 340.97,-74.81 348.38,-72.56 355.61,-70.4"/>
<polygon fill="#63b8ff" stroke="#63b8ff" points="356.69,-73.73 365.29,-67.54 354.71,-67.02 356.69,-73.73"/>
</a>
</g>
</g>
<!-- Node9 -->
<g id="Node000009" class="node">
<title>Node9</title>
<g id="a_Node000009"><a xlink:href="classdetail_1_1buffer.html#a91bcecc177b01b84d693028111fbd8eb" target="_top" xlink:title=" ">
<polygon fill="white" stroke="#666666" points="448.5,-30 350.5,-30 350.5,0 448.5,0 448.5,-30"/>
<text text-anchor="start" x="358.5" y="-18" font-family="Helvetica,sans-Serif" font-size="10.00">detail::buffer::try</text>
<text text-anchor="middle" x="399.5" y="-7" font-family="Helvetica,sans-Serif" font-size="10.00">_reserve</text>
</a>
</g>
</g>
<!-- Node8&#45;&gt;Node9 -->
<g id="edge8_Node000008_Node000009" class="edge">
<title>Node8&#45;&gt;Node9</title>
<g id="a_edge8_Node000008_Node000009"><a xlink:title=" ">
<path fill="none" stroke="#63b8ff" d="M267.32,-45.42C289.21,-40.34 316.46,-34.02 340.44,-28.46"/>
<polygon fill="#63b8ff" stroke="#63b8ff" points="341.54,-31.8 350.49,-26.13 339.96,-24.98 341.54,-31.8"/>
</a>
</g>
</g>
</g>
</svg>
