<?xml version="1.0" encoding="UTF-8" standalone="no"?>
<!DOCTYPE svg PUBLIC "-//W3C//DTD SVG 1.1//EN"
 "http://www.w3.org/Graphics/SVG/1.1/DTD/svg11.dtd">
<!-- Generated by graphviz version 2.43.0 (0)
 -->
<!-- Title: detail::bigint::assign Pages: 1 -->
<svg width="282pt" height="150pt"
 viewBox="0.00 0.00 282.00 150.00" xmlns="http://www.w3.org/2000/svg" xmlns:xlink="http://www.w3.org/1999/xlink">
<g id="graph0" class="graph" transform="scale(1 1) rotate(0) translate(4 146)">
<title>detail::bigint::assign</title>
<!-- Node1 -->
<g id="Node000001" class="node">
<title>Node1</title>
<g id="a_Node000001"><a xlink:title=" ">
<polygon fill="#999999" stroke="#666666" points="116,-83 0,-83 0,-64 116,-64 116,-83"/>
<text text-anchor="middle" x="58" y="-71" font-family="Helvetica,sans-Serif" font-size="10.00">detail::bigint::assign</text>
</a>
</g>
</g>
<!-- Node2 -->
<g id="Node000002" class="node">
<title>Node2</title>
<g id="a_Node000002"><a xlink:href="classdetail_1_1buffer.html#a9236804846c0d435c8d7c7201da20c62" target="_top" xlink:title=" ">
<polygon fill="white" stroke="#666666" points="266.5,-142 159.5,-142 159.5,-123 266.5,-123 266.5,-142"/>
<text text-anchor="middle" x="213" y="-130" font-family="Helvetica,sans-Serif" font-size="10.00">detail::buffer::data</text>
</a>
</g>
</g>
<!-- Node1&#45;&gt;Node2 -->
<g id="edge1_Node000001_Node000002" class="edge">
<title>Node1&#45;&gt;Node2</title>
<g id="a_edge1_Node000001_Node000002"><a xlink:title=" ">
<path fill="none" stroke="#63b8ff" d="M78.66,-83.02C97.29,-91.83 126.17,-104.97 152,-114.5 157.1,-116.38 162.5,-118.21 167.88,-119.95"/>
<polygon fill="#63b8ff" stroke="#63b8ff" points="166.9,-123.31 177.49,-122.94 168.99,-116.62 166.9,-123.31"/>
</a>
</g>
</g>
<!-- Node3 -->
<g id="Node000003" class="node">
<title>Node3</title>
<g id="a_Node000003"><a xlink:href="classdetail_1_1buffer.html#aeb33e0a2d2be2bbca9e0236c148089c8" target="_top" xlink:title="Returns a pointer to the buffer data (not null&#45;terminated).">
<polygon fill="white" stroke="#666666" points="266.5,-105 159.5,-105 159.5,-86 266.5,-86 266.5,-105"/>
<text text-anchor="middle" x="213" y="-93" font-family="Helvetica,sans-Serif" font-size="10.00">detail::buffer::data</text>
</a>
</g>
</g>
<!-- Node1&#45;&gt;Node3 -->
<g id="edge2_Node000001_Node000003" class="edge">
<title>Node1&#45;&gt;Node3</title>
<g id="a_edge2_Node000001_Node000003"><a xlink:title=" ">
<path fill="none" stroke="#63b8ff" d="M116.41,-81.75C127.07,-83.29 138.27,-84.9 149.09,-86.45"/>
<polygon fill="#63b8ff" stroke="#63b8ff" points="148.92,-89.97 159.32,-87.93 149.92,-83.04 148.92,-89.97"/>
</a>
</g>
</g>
<!-- Node4 -->
<g id="Node000004" class="node">
<title>Node4</title>
<g id="a_Node000004"><a xlink:href="classbasic__memory__buffer.html#a9a5d3f229ccaf48e4176d7cdcfd84383" target="_top" xlink:title=" ">
<polygon fill="white" stroke="#666666" points="274,-67.5 152,-67.5 152,-37.5 274,-37.5 274,-67.5"/>
<text text-anchor="start" x="160" y="-55.5" font-family="Helvetica,sans-Serif" font-size="10.00">basic_memory_buffer</text>
<text text-anchor="middle" x="213" y="-44.5" font-family="Helvetica,sans-Serif" font-size="10.00">::resize</text>
</a>
</g>
</g>
<!-- Node1&#45;&gt;Node4 -->
<g id="edge3_Node000001_Node000004" class="edge">
<title>Node1&#45;&gt;Node4</title>
<g id="a_edge3_Node000001_Node000004"><a xlink:title=" ">
<path fill="none" stroke="#63b8ff" d="M116.41,-65.62C124.76,-64.47 133.43,-63.28 141.99,-62.11"/>
<polygon fill="#63b8ff" stroke="#63b8ff" points="142.54,-65.57 151.97,-60.74 141.59,-58.63 142.54,-65.57"/>
</a>
</g>
</g>
<!-- Node5 -->
<g id="Node000005" class="node">
<title>Node5</title>
<g id="a_Node000005"><a xlink:href="classdetail_1_1buffer.html#a8685285932360c284d19003fc4ba3edc" target="_top" xlink:title="Returns the size of this buffer.">
<polygon fill="white" stroke="#666666" points="265,-19 161,-19 161,0 265,0 265,-19"/>
<text text-anchor="middle" x="213" y="-7" font-family="Helvetica,sans-Serif" font-size="10.00">detail::buffer::size</text>
</a>
</g>
</g>
<!-- Node1&#45;&gt;Node5 -->
<g id="edge4_Node000001_Node000005" class="edge">
<title>Node1&#45;&gt;Node5</title>
<g id="a_edge4_Node000001_Node000005"><a xlink:title=" ">
<path fill="none" stroke="#63b8ff" d="M76.83,-63.92C95.3,-54.22 125.17,-39.18 152,-28.5 157.53,-26.3 163.42,-24.18 169.27,-22.2"/>
<polygon fill="#63b8ff" stroke="#63b8ff" points="170.59,-25.45 179,-19.01 168.41,-18.8 170.59,-25.45"/>
</a>
</g>
</g>
</g>
</svg>
