<?xml version="1.0" encoding="UTF-8" standalone="no"?>
<!DOCTYPE svg PUBLIC "-//W3C//DTD SVG 1.1//EN"
 "http://www.w3.org/Graphics/SVG/1.1/DTD/svg11.dtd">
<!-- Generated by graphviz version 2.43.0 (0)
 -->
<!-- Title: format_int::format_signed Pages: 1 -->
<svg width="276pt" height="101pt"
 viewBox="0.00 0.00 276.00 101.00" xmlns="http://www.w3.org/2000/svg" xmlns:xlink="http://www.w3.org/1999/xlink">
<g id="graph0" class="graph" transform="scale(1 1) rotate(0) translate(4 97)">
<title>format_int::format_signed</title>
<!-- Node1 -->
<g id="Node000001" class="node">
<title>Node1</title>
<g id="a_Node000001"><a xlink:title=" ">
<polygon fill="#999999" stroke="#666666" points="268,-61.5 161,-61.5 161,-31.5 268,-31.5 268,-61.5"/>
<text text-anchor="start" x="169" y="-49.5" font-family="Helvetica,sans-Serif" font-size="10.00">format_int::format</text>
<text text-anchor="middle" x="214.5" y="-38.5" font-family="Helvetica,sans-Serif" font-size="10.00">_signed</text>
</a>
</g>
</g>
<!-- Node2 -->
<g id="Node000002" class="node">
<title>Node2</title>
<g id="a_Node000002"><a xlink:href="classformat__int.html#a0ab789f835381b927f9f833bfb1e5caa" target="_top" xlink:title=" ">
<polygon fill="white" stroke="#666666" points="125,-93 0,-93 0,-74 125,-74 125,-93"/>
<text text-anchor="middle" x="62.5" y="-81" font-family="Helvetica,sans-Serif" font-size="10.00">format_int::format_int</text>
</a>
</g>
</g>
<!-- Node1&#45;&gt;Node2 -->
<g id="edge1_Node000001_Node000002" class="edge">
<title>Node1&#45;&gt;Node2</title>
<g id="a_edge1_Node000001_Node000002"><a xlink:title=" ">
<path fill="none" stroke="#63b8ff" d="M150.54,-62.03C134.15,-66.07 116.97,-70.31 102.24,-73.94"/>
<polygon fill="#63b8ff" stroke="#63b8ff" points="151.74,-65.34 160.62,-59.54 150.07,-58.54 151.74,-65.34"/>
</a>
</g>
</g>
<!-- Node3 -->
<g id="Node000003" class="node">
<title>Node3</title>
<g id="a_Node000003"><a xlink:href="classformat__int.html#a03904ce88ff7828c072cdc96749a28b3" target="_top" xlink:title=" ">
<polygon fill="white" stroke="#666666" points="125,-56 0,-56 0,-37 125,-37 125,-56"/>
<text text-anchor="middle" x="62.5" y="-44" font-family="Helvetica,sans-Serif" font-size="10.00">format_int::format_int</text>
</a>
</g>
</g>
<!-- Node1&#45;&gt;Node3 -->
<g id="edge2_Node000001_Node000003" class="edge">
<title>Node1&#45;&gt;Node3</title>
<g id="a_edge2_Node000001_Node000003"><a xlink:title=" ">
<path fill="none" stroke="#63b8ff" d="M150.51,-46.5C142.11,-46.5 133.51,-46.5 125.14,-46.5"/>
<polygon fill="#63b8ff" stroke="#63b8ff" points="150.62,-50 160.62,-46.5 150.62,-43 150.62,-50"/>
</a>
</g>
</g>
<!-- Node4 -->
<g id="Node000004" class="node">
<title>Node4</title>
<g id="a_Node000004"><a xlink:href="classformat__int.html#a6346fd547b5ad02bc9e8bbebcd4557bf" target="_top" xlink:title=" ">
<polygon fill="white" stroke="#666666" points="125,-19 0,-19 0,0 125,0 125,-19"/>
<text text-anchor="middle" x="62.5" y="-7" font-family="Helvetica,sans-Serif" font-size="10.00">format_int::format_int</text>
</a>
</g>
</g>
<!-- Node1&#45;&gt;Node4 -->
<g id="edge3_Node000001_Node000004" class="edge">
<title>Node1&#45;&gt;Node4</title>
<g id="a_edge3_Node000001_Node000004"><a xlink:title=" ">
<path fill="none" stroke="#63b8ff" d="M150.54,-30.97C134.15,-26.93 116.97,-22.69 102.24,-19.06"/>
<polygon fill="#63b8ff" stroke="#63b8ff" points="150.07,-34.46 160.62,-33.46 151.74,-27.66 150.07,-34.46"/>
</a>
</g>
</g>
</g>
</svg>
