<?xml version="1.0" encoding="UTF-8" standalone="no"?>
<!DOCTYPE svg PUBLIC "-//W3C//DTD SVG 1.1//EN"
 "http://www.w3.org/Graphics/SVG/1.1/DTD/svg11.dtd">
<!-- Generated by graphviz version 2.43.0 (0)
 -->
<!-- Title: MorseClient Pages: 1 -->
<svg width="262pt" height="159pt"
 viewBox="0.00 0.00 262.00 159.00" xmlns="http://www.w3.org/2000/svg" xmlns:xlink="http://www.w3.org/1999/xlink">
<g id="graph0" class="graph" transform="scale(1 1) rotate(0) translate(4 155)">
<title>MorseClient</title>
<!-- Node1 -->
<g id="Node000001" class="node">
<title>Node1</title>
<g id="a_Node000001"><a xlink:title="Client for Morse Code communication. The public interface is the same as Arduino Serial.">
<polygon fill="#999999" stroke="#666666" points="155,-19 80,-19 80,0 155,0 155,-19"/>
<text text-anchor="middle" x="117.5" y="-7" font-family="Helvetica,sans-Serif" font-size="10.00">MorseClient</text>
</a>
</g>
</g>
<!-- Node2 -->
<g id="Node000002" class="node">
<title>Node2</title>
<g id="a_Node000002"><a xlink:href="classRadioLibPrint.html" target="_top" xlink:title="Printing class, based on Arduino Print class with additional encodings.">
<polygon fill="white" stroke="#666666" points="81,-85 0,-85 0,-66 81,-66 81,-85"/>
<text text-anchor="middle" x="40.5" y="-73" font-family="Helvetica,sans-Serif" font-size="10.00">RadioLibPrint</text>
</a>
</g>
</g>
<!-- Node2&#45;&gt;Node1 -->
<g id="edge1_Node000001_Node000002" class="edge">
<title>Node2&#45;&gt;Node1</title>
<g id="a_edge1_Node000001_Node000002"><a xlink:title=" ">
<path fill="none" stroke="#63b8ff" d="M58.93,-59.18C73.88,-46.76 94.42,-29.68 106.79,-19.41"/>
<polygon fill="#63b8ff" stroke="#63b8ff" points="56.34,-56.78 50.88,-65.87 60.81,-62.17 56.34,-56.78"/>
</a>
</g>
</g>
<!-- Node3 -->
<g id="Node000003" class="node">
<title>Node3</title>
<g id="a_Node000003"><a xlink:href="classPhysicalLayer.html" target="_top" xlink:title="Provides common interface for protocols that run on LoRa/FSK modules, such as RTTY or LoRaWAN....">
<polygon fill="white" stroke="#666666" points="175.5,-151 91.5,-151 91.5,-132 175.5,-132 175.5,-151"/>
<text text-anchor="middle" x="133.5" y="-139" font-family="Helvetica,sans-Serif" font-size="10.00">PhysicalLayer</text>
</a>
</g>
</g>
<!-- Node3&#45;&gt;Node1 -->
<g id="edge2_Node000001_Node000003" class="edge">
<title>Node3&#45;&gt;Node1</title>
<g id="a_edge2_Node000001_Node000003"><a xlink:title=" ">
<path fill="none" stroke="#9a32cd" stroke-dasharray="5,2" d="M131.19,-121.73C127.68,-93.22 121.14,-40.09 118.57,-19.23"/>
<polygon fill="#9a32cd" stroke="#9a32cd" points="127.75,-122.47 132.45,-131.97 134.7,-121.62 127.75,-122.47"/>
</a>
</g>
<text text-anchor="middle" x="152" y="-73" font-family="Helvetica,sans-Serif" font-size="10.00" fill="grey"> phyLayer</text>
</g>
<!-- Node4 -->
<g id="Node000004" class="node">
<title>Node4</title>
<g id="a_Node000004"><a xlink:href="classAFSKClient.html" target="_top" xlink:title="Client for audio&#45;based transmissions. Requires Arduino tone() function, and a module capable of direc...">
<polygon fill="white" stroke="#666666" points="254,-85 185,-85 185,-66 254,-66 254,-85"/>
<text text-anchor="middle" x="219.5" y="-73" font-family="Helvetica,sans-Serif" font-size="10.00">AFSKClient</text>
</a>
</g>
</g>
<!-- Node3&#45;&gt;Node4 -->
<g id="edge4_Node000004_Node000003" class="edge">
<title>Node3&#45;&gt;Node4</title>
<g id="a_edge4_Node000004_Node000003"><a xlink:title=" ">
<path fill="none" stroke="#9a32cd" stroke-dasharray="5,2" d="M153.21,-125.83C170.07,-113.28 193.79,-95.63 207.81,-85.2"/>
<polygon fill="#9a32cd" stroke="#9a32cd" points="151.03,-123.09 145.1,-131.87 155.21,-128.71 151.03,-123.09"/>
</a>
</g>
<text text-anchor="middle" x="206" y="-106" font-family="Helvetica,sans-Serif" font-size="10.00" fill="grey"> phyLayer</text>
</g>
<!-- Node4&#45;&gt;Node1 -->
<g id="edge3_Node000001_Node000004" class="edge">
<title>Node4&#45;&gt;Node1</title>
<g id="a_edge3_Node000001_Node000004"><a xlink:title=" ">
<path fill="none" stroke="#9a32cd" stroke-dasharray="5,2" d="M197.22,-60.52C177.16,-47.93 148.3,-29.82 131.36,-19.2"/>
<polygon fill="#9a32cd" stroke="#9a32cd" points="195.41,-63.52 205.74,-65.87 199.13,-57.59 195.41,-63.52"/>
</a>
</g>
<text text-anchor="middle" x="204" y="-40" font-family="Helvetica,sans-Serif" font-size="10.00" fill="grey"> audioClient</text>
</g>
</g>
</svg>
