<?xml version="1.0" encoding="UTF-8" standalone="no"?>
<!DOCTYPE svg PUBLIC "-//W3C//DTD SVG 1.1//EN"
 "http://www.w3.org/Graphics/SVG/1.1/DTD/svg11.dtd">
<!-- Generated by graphviz version 2.43.0 (0)
 -->
<!-- Title: cxxopts::exceptions::no_such_option::no_such_option Pages: 1 -->
<svg width="434pt" height="49pt"
 viewBox="0.00 0.00 434.00 49.00" xmlns="http://www.w3.org/2000/svg" xmlns:xlink="http://www.w3.org/1999/xlink">
<g id="graph0" class="graph" transform="scale(1 1) rotate(0) translate(4 45)">
<title>cxxopts::exceptions::no_such_option::no_such_option</title>
<!-- Node1 -->
<g id="Node000001" class="node">
<title>Node1</title>
<g id="a_Node000001"><a xlink:title=" ">
<polygon fill="#999999" stroke="#666666" points="116,-41 0,-41 0,0 116,0 116,-41"/>
<text text-anchor="start" x="8" y="-29" font-family="Helvetica,sans-Serif" font-size="10.00">cxxopts::exceptions</text>
<text text-anchor="start" x="8" y="-18" font-family="Helvetica,sans-Serif" font-size="10.00">::no_such_option::no</text>
<text text-anchor="middle" x="58" y="-7" font-family="Helvetica,sans-Serif" font-size="10.00">_such_option</text>
</a>
</g>
</g>
<!-- Node2 -->
<g id="Node000002" class="node">
<title>Node2</title>
<g id="a_Node000002"><a xlink:href="classcxxopts_1_1exceptions_1_1parsing.html#ad40b741e8c5aba5e4be33c37d84cb09e" target="_top" xlink:title=" ">
<polygon fill="white" stroke="#666666" points="265,-35.5 152,-35.5 152,-5.5 265,-5.5 265,-35.5"/>
<text text-anchor="start" x="160" y="-23.5" font-family="Helvetica,sans-Serif" font-size="10.00">cxxopts::exceptions</text>
<text text-anchor="middle" x="208.5" y="-12.5" font-family="Helvetica,sans-Serif" font-size="10.00">::parsing::parsing</text>
</a>
</g>
</g>
<!-- Node1&#45;&gt;Node2 -->
<g id="edge1_Node000001_Node000002" class="edge">
<title>Node1&#45;&gt;Node2</title>
<g id="a_edge1_Node000001_Node000002"><a xlink:title=" ">
<path fill="none" stroke="#63b8ff" d="M116.41,-20.5C124.65,-20.5 133.18,-20.5 141.57,-20.5"/>
<polygon fill="#63b8ff" stroke="#63b8ff" points="141.7,-24 151.7,-20.5 141.7,-17 141.7,-24"/>
</a>
</g>
</g>
<!-- Node3 -->
<g id="Node000003" class="node">
<title>Node3</title>
<g id="a_Node000003"><a xlink:href="classcxxopts_1_1exceptions_1_1exception.html#a4f28a7e472811e1917d3c69c972ef832" target="_top" xlink:title=" ">
<polygon fill="white" stroke="#666666" points="426,-35.5 301,-35.5 301,-5.5 426,-5.5 426,-35.5"/>
<text text-anchor="start" x="309" y="-23.5" font-family="Helvetica,sans-Serif" font-size="10.00">cxxopts::exceptions</text>
<text text-anchor="middle" x="363.5" y="-12.5" font-family="Helvetica,sans-Serif" font-size="10.00">::exception::exception</text>
</a>
</g>
</g>
<!-- Node2&#45;&gt;Node3 -->
<g id="edge2_Node000002_Node000003" class="edge">
<title>Node2&#45;&gt;Node3</title>
<g id="a_edge2_Node000002_Node000003"><a xlink:title=" ">
<path fill="none" stroke="#63b8ff" d="M265.17,-20.5C273.52,-20.5 282.23,-20.5 290.86,-20.5"/>
<polygon fill="#63b8ff" stroke="#63b8ff" points="290.92,-24 300.92,-20.5 290.92,-17 290.92,-24"/>
</a>
</g>
</g>
</g>
</svg>
