<?xml version="1.0" encoding="UTF-8" standalone="no"?>
<!DOCTYPE svg PUBLIC "-//W3C//DTD SVG 1.1//EN"
 "http://www.w3.org/Graphics/SVG/1.1/DTD/svg11.dtd">
<!-- Generated by graphviz version 2.43.0 (0)
 -->
<!-- Title: cxxopts::OptionParser::finalise_aliases Pages: 1 -->
<svg width="293pt" height="134pt"
 viewBox="0.00 0.00 293.00 134.00" xmlns="http://www.w3.org/2000/svg" xmlns:xlink="http://www.w3.org/1999/xlink">
<g id="graph0" class="graph" transform="scale(1 1) rotate(0) translate(4 130)">
<title>cxxopts::OptionParser::finalise_aliases</title>
<!-- Node1 -->
<g id="Node000001" class="node">
<title>Node1</title>
<g id="a_Node000001"><a xlink:title=" ">
<polygon fill="#999999" stroke="#666666" points="122,-78 0,-78 0,-48 122,-48 122,-78"/>
<text text-anchor="start" x="8" y="-66" font-family="Helvetica,sans-Serif" font-size="10.00">cxxopts::OptionParser</text>
<text text-anchor="middle" x="61" y="-55" font-family="Helvetica,sans-Serif" font-size="10.00">::finalise_aliases</text>
</a>
</g>
</g>
<!-- Node2 -->
<g id="Node000002" class="node">
<title>Node2</title>
<g id="a_Node000002"><a xlink:href="classcxxopts_1_1OptionDetails.html#a3e5d1e478cc4a241d710f9ab792fcafb" target="_top" xlink:title=" ">
<polygon fill="white" stroke="#666666" points="285,-126 158,-126 158,-96 285,-96 285,-126"/>
<text text-anchor="start" x="166" y="-114" font-family="Helvetica,sans-Serif" font-size="10.00">cxxopts::OptionDetails</text>
<text text-anchor="middle" x="221.5" y="-103" font-family="Helvetica,sans-Serif" font-size="10.00">::hash</text>
</a>
</g>
</g>
<!-- Node1&#45;&gt;Node2 -->
<g id="edge1_Node000001_Node000002" class="edge">
<title>Node1&#45;&gt;Node2</title>
<g id="a_edge1_Node000001_Node000002"><a xlink:title=" ">
<path fill="none" stroke="#63b8ff" d="M111.72,-78.06C127.35,-82.79 144.78,-88.07 161.03,-92.99"/>
<polygon fill="#63b8ff" stroke="#63b8ff" points="160.38,-96.45 170.96,-96 162.4,-89.75 160.38,-96.45"/>
</a>
</g>
</g>
<!-- Node3 -->
<g id="Node000003" class="node">
<title>Node3</title>
<g id="a_Node000003"><a xlink:href="classcxxopts_1_1OptionDetails.html#a1b61b4570ee040ce1b9fc6e358e08b2d" target="_top" xlink:title=" ">
<polygon fill="white" stroke="#666666" points="285,-78 158,-78 158,-48 285,-48 285,-78"/>
<text text-anchor="start" x="166" y="-66" font-family="Helvetica,sans-Serif" font-size="10.00">cxxopts::OptionDetails</text>
<text text-anchor="middle" x="221.5" y="-55" font-family="Helvetica,sans-Serif" font-size="10.00">::long_names</text>
</a>
</g>
</g>
<!-- Node1&#45;&gt;Node3 -->
<g id="edge2_Node000001_Node000003" class="edge">
<title>Node1&#45;&gt;Node3</title>
<g id="a_edge2_Node000001_Node000003"><a xlink:title=" ">
<path fill="none" stroke="#63b8ff" d="M122.37,-63C130.65,-63 139.21,-63 147.67,-63"/>
<polygon fill="#63b8ff" stroke="#63b8ff" points="147.93,-66.5 157.93,-63 147.93,-59.5 147.93,-66.5"/>
</a>
</g>
</g>
<!-- Node4 -->
<g id="Node000004" class="node">
<title>Node4</title>
<g id="a_Node000004"><a xlink:href="classcxxopts_1_1OptionDetails.html#a814a9b4b5d3bfc6324c10c7b92a87bef" target="_top" xlink:title=" ">
<polygon fill="white" stroke="#666666" points="285,-30 158,-30 158,0 285,0 285,-30"/>
<text text-anchor="start" x="166" y="-18" font-family="Helvetica,sans-Serif" font-size="10.00">cxxopts::OptionDetails</text>
<text text-anchor="middle" x="221.5" y="-7" font-family="Helvetica,sans-Serif" font-size="10.00">::short_name</text>
</a>
</g>
</g>
<!-- Node1&#45;&gt;Node4 -->
<g id="edge3_Node000001_Node000004" class="edge">
<title>Node1&#45;&gt;Node4</title>
<g id="a_edge3_Node000001_Node000004"><a xlink:title=" ">
<path fill="none" stroke="#63b8ff" d="M111.72,-47.94C127.35,-43.21 144.78,-37.93 161.03,-33.01"/>
<polygon fill="#63b8ff" stroke="#63b8ff" points="162.4,-36.25 170.96,-30 160.38,-29.55 162.4,-36.25"/>
</a>
</g>
</g>
</g>
</svg>
