<?xml version="1.0" encoding="UTF-8" standalone="no"?>
<!DOCTYPE svg PUBLIC "-//W3C//DTD SVG 1.1//EN"
 "http://www.w3.org/Graphics/SVG/1.1/DTD/svg11.dtd">
<!-- Generated by graphviz version 2.43.0 (0)
 -->
<!-- Title: cxxopts::ParseResult::arguments_string Pages: 1 -->
<svg width="289pt" height="76pt"
 viewBox="0.00 0.00 289.00 75.50" xmlns="http://www.w3.org/2000/svg" xmlns:xlink="http://www.w3.org/1999/xlink">
<g id="graph0" class="graph" transform="scale(1 1) rotate(0) translate(4 71.5)">
<title>cxxopts::ParseResult::arguments_string</title>
<!-- Node1 -->
<g id="Node000001" class="node">
<title>Node1</title>
<g id="a_Node000001"><a xlink:title=" ">
<polygon fill="#999999" stroke="#666666" points="117,-51 0,-51 0,-21 117,-21 117,-51"/>
<text text-anchor="start" x="8" y="-39" font-family="Helvetica,sans-Serif" font-size="10.00">cxxopts::ParseResult</text>
<text text-anchor="middle" x="58.5" y="-28" font-family="Helvetica,sans-Serif" font-size="10.00">::arguments_string</text>
</a>
</g>
</g>
<!-- Node2 -->
<g id="Node000002" class="node">
<title>Node2</title>
<g id="a_Node000002"><a xlink:href="classcxxopts_1_1KeyValue.html#a07faf052403faa9e2abd10a1adbf6e9c" target="_top" xlink:title=" ">
<polygon fill="white" stroke="#666666" points="281,-67.5 153,-67.5 153,-48.5 281,-48.5 281,-67.5"/>
<text text-anchor="middle" x="217" y="-55.5" font-family="Helvetica,sans-Serif" font-size="10.00">cxxopts::KeyValue::key</text>
</a>
</g>
</g>
<!-- Node1&#45;&gt;Node2 -->
<g id="edge1_Node000001_Node000002" class="edge">
<title>Node1&#45;&gt;Node2</title>
<g id="a_edge1_Node000001_Node000002"><a xlink:title=" ">
<path fill="none" stroke="#63b8ff" d="M117.33,-44.13C125.65,-45.3 134.31,-46.52 142.88,-47.72"/>
<polygon fill="#63b8ff" stroke="#63b8ff" points="142.49,-51.2 152.88,-49.13 143.47,-44.27 142.49,-51.2"/>
</a>
</g>
</g>
<!-- Node3 -->
<g id="Node000003" class="node">
<title>Node3</title>
<g id="a_Node000003"><a xlink:href="classcxxopts_1_1KeyValue.html#a6d647e665fee87204926a244fe94e343" target="_top" xlink:title=" ">
<polygon fill="white" stroke="#666666" points="272.5,-30 161.5,-30 161.5,0 272.5,0 272.5,-30"/>
<text text-anchor="start" x="169.5" y="-18" font-family="Helvetica,sans-Serif" font-size="10.00">cxxopts::KeyValue::</text>
<text text-anchor="middle" x="217" y="-7" font-family="Helvetica,sans-Serif" font-size="10.00">value</text>
</a>
</g>
</g>
<!-- Node1&#45;&gt;Node3 -->
<g id="edge2_Node000001_Node000003" class="edge">
<title>Node1&#45;&gt;Node3</title>
<g id="a_edge2_Node000001_Node000003"><a xlink:title=" ">
<path fill="none" stroke="#63b8ff" d="M117.33,-28.24C128.33,-26.76 139.91,-25.21 151.11,-23.71"/>
<polygon fill="#63b8ff" stroke="#63b8ff" points="151.82,-27.14 161.26,-22.34 150.89,-20.21 151.82,-27.14"/>
</a>
</g>
</g>
</g>
</svg>
