<?xml version="1.0" encoding="UTF-8" standalone="no"?>
<!DOCTYPE svg PUBLIC "-//W3C//DTD SVG 1.1//EN"
 "http://www.w3.org/Graphics/SVG/1.1/DTD/svg11.dtd">
<!-- Generated by graphviz version 2.43.0 (0)
 -->
<!-- Title: detail::tm_writer::tm_yday Pages: 1 -->
<svg width="486pt" height="278pt"
 viewBox="0.00 0.00 486.00 278.00" xmlns="http://www.w3.org/2000/svg" xmlns:xlink="http://www.w3.org/1999/xlink">
<g id="graph0" class="graph" transform="scale(1 1) rotate(0) translate(4 274)">
<title>detail::tm_writer::tm_yday</title>
<!-- Node1 -->
<g id="Node000001" class="node">
<title>Node1</title>
<g id="a_Node000001"><a xlink:title=" ">
<polygon fill="#999999" stroke="#666666" points="478,-174 374,-174 374,-144 478,-144 478,-174"/>
<text text-anchor="start" x="382" y="-162" font-family="Helvetica,sans-Serif" font-size="10.00">detail::tm_writer::</text>
<text text-anchor="middle" x="426" y="-151" font-family="Helvetica,sans-Serif" font-size="10.00">tm_yday</text>
</a>
</g>
</g>
<!-- Node2 -->
<g id="Node000002" class="node">
<title>Node2</title>
<g id="a_Node000002"><a xlink:href="classdetail_1_1tm__writer.html#a7f007c05f59ed7503b7432b77d7f0200" target="_top" xlink:title=" ">
<polygon fill="white" stroke="#666666" points="324.5,-270 220.5,-270 220.5,-240 324.5,-240 324.5,-270"/>
<text text-anchor="start" x="228.5" y="-258" font-family="Helvetica,sans-Serif" font-size="10.00">detail::tm_writer::</text>
<text text-anchor="middle" x="272.5" y="-247" font-family="Helvetica,sans-Serif" font-size="10.00">on_day_of_year</text>
</a>
</g>
</g>
<!-- Node1&#45;&gt;Node2 -->
<g id="edge1_Node000001_Node000002" class="edge">
<title>Node1&#45;&gt;Node2</title>
<g id="a_edge1_Node000001_Node000002"><a xlink:title=" ">
<path fill="none" stroke="#63b8ff" d="M402.27,-181.47C385.59,-197 361.78,-217.26 338,-231 332.31,-234.29 326.09,-237.27 319.82,-239.93"/>
<polygon fill="#63b8ff" stroke="#63b8ff" points="405.01,-183.7 409.85,-174.27 400.19,-178.62 405.01,-183.7"/>
</a>
</g>
</g>
<!-- Node3 -->
<g id="Node000003" class="node">
<title>Node3</title>
<g id="a_Node000003"><a xlink:href="classdetail_1_1tm__writer.html#a13b7b4b07ac04aefb6e96bdb1af8f513" target="_top" xlink:title=" ">
<polygon fill="white" stroke="#666666" points="338,-222 207,-222 207,-192 338,-192 338,-222"/>
<text text-anchor="start" x="215" y="-210" font-family="Helvetica,sans-Serif" font-size="10.00">detail::tm_writer::</text>
<text text-anchor="middle" x="272.5" y="-199" font-family="Helvetica,sans-Serif" font-size="10.00">on_dec0_week_of_year</text>
</a>
</g>
</g>
<!-- Node1&#45;&gt;Node3 -->
<g id="edge2_Node000001_Node000003" class="edge">
<title>Node1&#45;&gt;Node3</title>
<g id="a_edge2_Node000001_Node000003"><a xlink:title=" ">
<path fill="none" stroke="#63b8ff" d="M367.54,-177.21C352.13,-182.09 335.64,-187.31 320.85,-192"/>
<polygon fill="#63b8ff" stroke="#63b8ff" points="369,-180.41 377.48,-174.06 366.89,-173.74 369,-180.41"/>
</a>
</g>
</g>
<!-- Node4 -->
<g id="Node000004" class="node">
<title>Node4</title>
<g id="a_Node000004"><a xlink:href="classdetail_1_1tm__writer.html#ab1e88baccb22446f04ffdcdf74267615" target="_top" xlink:title=" ">
<polygon fill="white" stroke="#666666" points="338,-174 207,-174 207,-144 338,-144 338,-174"/>
<text text-anchor="start" x="215" y="-162" font-family="Helvetica,sans-Serif" font-size="10.00">detail::tm_writer::</text>
<text text-anchor="middle" x="272.5" y="-151" font-family="Helvetica,sans-Serif" font-size="10.00">on_dec1_week_of_year</text>
</a>
</g>
</g>
<!-- Node1&#45;&gt;Node4 -->
<g id="edge3_Node000001_Node000004" class="edge">
<title>Node1&#45;&gt;Node4</title>
<g id="a_edge3_Node000001_Node000004"><a xlink:title=" ">
<path fill="none" stroke="#63b8ff" d="M363.63,-159C355.24,-159 346.61,-159 338.17,-159"/>
<polygon fill="#63b8ff" stroke="#63b8ff" points="363.71,-162.5 373.71,-159 363.71,-155.5 363.71,-162.5"/>
</a>
</g>
</g>
<!-- Node5 -->
<g id="Node000005" class="node">
<title>Node5</title>
<g id="a_Node000005"><a xlink:href="classdetail_1_1tm__writer.html#a4285acc2899bf1a942bfbc8c777adfef" target="_top" xlink:title=" ">
<polygon fill="white" stroke="#666666" points="334,-126 211,-126 211,-96 334,-96 334,-126"/>
<text text-anchor="start" x="219" y="-114" font-family="Helvetica,sans-Serif" font-size="10.00">detail::tm_writer::</text>
<text text-anchor="middle" x="272.5" y="-103" font-family="Helvetica,sans-Serif" font-size="10.00">tm_iso_week_of_year</text>
</a>
</g>
</g>
<!-- Node1&#45;&gt;Node5 -->
<g id="edge4_Node000001_Node000005" class="edge">
<title>Node1&#45;&gt;Node5</title>
<g id="a_edge4_Node000001_Node000005"><a xlink:title=" ">
<path fill="none" stroke="#63b8ff" d="M367.54,-140.79C352.13,-135.91 335.64,-130.69 320.85,-126"/>
<polygon fill="#63b8ff" stroke="#63b8ff" points="366.89,-144.26 377.48,-143.94 369,-137.59 366.89,-144.26"/>
</a>
</g>
</g>
<!-- Node7 -->
<g id="Node000007" class="node">
<title>Node7</title>
<g id="a_Node000007"><a xlink:href="classdetail_1_1tm__writer.html#a73adb4c23c197bf3403a9ea4aa82d842" target="_top" xlink:title=" ">
<polygon fill="white" stroke="#666666" points="326.5,-78 218.5,-78 218.5,-48 326.5,-48 326.5,-78"/>
<text text-anchor="start" x="226.5" y="-66" font-family="Helvetica,sans-Serif" font-size="10.00">detail::tm_writer::</text>
<text text-anchor="middle" x="272.5" y="-55" font-family="Helvetica,sans-Serif" font-size="10.00">tm_iso_week_year</text>
</a>
</g>
</g>
<!-- Node1&#45;&gt;Node7 -->
<g id="edge6_Node000001_Node000007" class="edge">
<title>Node1&#45;&gt;Node7</title>
<g id="a_edge6_Node000001_Node000007"><a xlink:title=" ">
<path fill="none" stroke="#63b8ff" d="M402.27,-136.53C385.59,-121 361.78,-100.74 338,-87 332.31,-83.71 326.09,-80.73 319.82,-78.07"/>
<polygon fill="#63b8ff" stroke="#63b8ff" points="400.19,-139.38 409.85,-143.73 405.01,-134.3 400.19,-139.38"/>
</a>
</g>
</g>
<!-- Node6 -->
<g id="Node000006" class="node">
<title>Node6</title>
<g id="a_Node000006"><a xlink:href="classdetail_1_1tm__writer.html#afbb39bf7dba827d53464b089fbb4f6b5" target="_top" xlink:title=" ">
<polygon fill="white" stroke="#666666" points="146.5,-126 24.5,-126 24.5,-96 146.5,-96 146.5,-126"/>
<text text-anchor="start" x="32.5" y="-114" font-family="Helvetica,sans-Serif" font-size="10.00">detail::tm_writer::</text>
<text text-anchor="middle" x="85.5" y="-103" font-family="Helvetica,sans-Serif" font-size="10.00">on_iso_week_of_year</text>
</a>
</g>
</g>
<!-- Node5&#45;&gt;Node6 -->
<g id="edge5_Node000005_Node000006" class="edge">
<title>Node5&#45;&gt;Node6</title>
<g id="a_edge5_Node000005_Node000006"><a xlink:title=" ">
<path fill="none" stroke="#63b8ff" d="M200.58,-111C182.76,-111 163.81,-111 146.58,-111"/>
<polygon fill="#63b8ff" stroke="#63b8ff" points="200.92,-114.5 210.92,-111 200.92,-107.5 200.92,-114.5"/>
</a>
</g>
</g>
<!-- Node8 -->
<g id="Node000008" class="node">
<title>Node8</title>
<g id="a_Node000008"><a xlink:href="classdetail_1_1tm__writer.html#a9343bd2d81bbbf6e86c1a33af1b067c1" target="_top" xlink:title=" ">
<polygon fill="white" stroke="#666666" points="171,-78 0,-78 0,-48 171,-48 171,-78"/>
<text text-anchor="start" x="8" y="-66" font-family="Helvetica,sans-Serif" font-size="10.00">detail::tm_writer::</text>
<text text-anchor="middle" x="85.5" y="-55" font-family="Helvetica,sans-Serif" font-size="10.00">on_iso_week_based_short_year</text>
</a>
</g>
</g>
<!-- Node7&#45;&gt;Node8 -->
<g id="edge7_Node000007_Node000008" class="edge">
<title>Node7&#45;&gt;Node8</title>
<g id="a_edge7_Node000007_Node000008"><a xlink:title=" ">
<path fill="none" stroke="#63b8ff" d="M208.24,-63C196.35,-63 183.73,-63 171.3,-63"/>
<polygon fill="#63b8ff" stroke="#63b8ff" points="208.49,-66.5 218.49,-63 208.49,-59.5 208.49,-66.5"/>
</a>
</g>
</g>
<!-- Node9 -->
<g id="Node000009" class="node">
<title>Node9</title>
<g id="a_Node000009"><a xlink:href="classdetail_1_1tm__writer.html#a286b8e12c2a447aa2a43fbc0253b834c" target="_top" xlink:title=" ">
<polygon fill="white" stroke="#666666" points="156,-30 15,-30 15,0 156,0 156,-30"/>
<text text-anchor="start" x="23" y="-18" font-family="Helvetica,sans-Serif" font-size="10.00">detail::tm_writer::</text>
<text text-anchor="middle" x="85.5" y="-7" font-family="Helvetica,sans-Serif" font-size="10.00">on_iso_week_based_year</text>
</a>
</g>
</g>
<!-- Node7&#45;&gt;Node9 -->
<g id="edge8_Node000007_Node000009" class="edge">
<title>Node7&#45;&gt;Node9</title>
<g id="a_edge8_Node000007_Node000009"><a xlink:title=" ">
<path fill="none" stroke="#63b8ff" d="M208.77,-46.73C187.94,-41.32 164.84,-35.33 144.38,-30.02"/>
<polygon fill="#63b8ff" stroke="#63b8ff" points="207.93,-50.12 218.49,-49.25 209.69,-43.35 207.93,-50.12"/>
</a>
</g>
</g>
</g>
</svg>
