<?xml version="1.0" encoding="UTF-8" standalone="no"?>
<!DOCTYPE svg PUBLIC "-//W3C//DTD SVG 1.1//EN"
 "http://www.w3.org/Graphics/SVG/1.1/DTD/svg11.dtd">
<!-- Generated by graphviz version 2.43.0 (0)
 -->
<!-- Title: detail::iterator_buffer&lt; OutputIt, enable_if_t&lt; is_back_insert_iterator&lt; OutputIt &gt;::value &amp;&amp;is_contiguous&lt; typename OutputIt::container_type &gt;::value, typename OutputIt::container_type::value_type &gt; &gt; Pages: 1 -->
<svg width="219pt" height="293pt"
 viewBox="0.00 0.00 219.00 293.00" xmlns="http://www.w3.org/2000/svg" xmlns:xlink="http://www.w3.org/1999/xlink">
<g id="graph0" class="graph" transform="scale(1 1) rotate(0) translate(4 289)">
<title>detail::iterator_buffer&lt; OutputIt, enable_if_t&lt; is_back_insert_iterator&lt; OutputIt &gt;::value &amp;&amp;is_contiguous&lt; typename OutputIt::container_type &gt;::value, typename OutputIt::container_type::value_type &gt; &gt;</title>
<!-- Node1 -->
<g id="Node000001" class="node">
<title>Node1</title>
<g id="a_Node000001"><a xlink:title=" ">
<polygon fill="#999999" stroke="#666666" points="211,-85 0,-85 0,0 211,0 211,-85"/>
<text text-anchor="start" x="8" y="-73" font-family="Helvetica,sans-Serif" font-size="10.00">detail::iterator_buffer</text>
<text text-anchor="start" x="8" y="-62" font-family="Helvetica,sans-Serif" font-size="10.00">&lt; OutputIt, enable_if</text>
<text text-anchor="start" x="8" y="-51" font-family="Helvetica,sans-Serif" font-size="10.00">_t&lt; is_back_insert_iterator</text>
<text text-anchor="start" x="8" y="-40" font-family="Helvetica,sans-Serif" font-size="10.00">&lt; OutputIt &gt;::value &amp;&amp;is_contiguous</text>
<text text-anchor="start" x="8" y="-29" font-family="Helvetica,sans-Serif" font-size="10.00">&lt; typename OutputIt::container_type</text>
<text text-anchor="start" x="8" y="-18" font-family="Helvetica,sans-Serif" font-size="10.00"> &gt;::value, typename OutputIt::container</text>
<text text-anchor="middle" x="105.5" y="-7" font-family="Helvetica,sans-Serif" font-size="10.00">_type::value_type &gt; &gt;</text>
</a>
</g>
</g>
<!-- Node2 -->
<g id="Node000002" class="node">
<title>Node2</title>
<g id="a_Node000002"><a xlink:href="classdetail_1_1container__buffer.html" target="_top" xlink:title=" ">
<polygon fill="white" stroke="#666666" points="184.5,-152 26.5,-152 26.5,-122 184.5,-122 184.5,-152"/>
<text text-anchor="start" x="34.5" y="-140" font-family="Helvetica,sans-Serif" font-size="10.00">detail::container_buffer</text>
<text text-anchor="middle" x="105.5" y="-129" font-family="Helvetica,sans-Serif" font-size="10.00">&lt; OutputIt::container_type &gt;</text>
</a>
</g>
</g>
<!-- Node2&#45;&gt;Node1 -->
<g id="edge1_Node000001_Node000002" class="edge">
<title>Node2&#45;&gt;Node1</title>
<g id="a_edge1_Node000001_Node000002"><a xlink:title=" ">
<path fill="none" stroke="#63b8ff" d="M105.5,-111.77C105.5,-103.67 105.5,-94.4 105.5,-85.35"/>
<polygon fill="#63b8ff" stroke="#63b8ff" points="102,-111.95 105.5,-121.95 109,-111.95 102,-111.95"/>
</a>
</g>
</g>
<!-- Node3 -->
<g id="Node000003" class="node">
<title>Node3</title>
<g id="a_Node000003"><a xlink:href="classdetail_1_1buffer.html" target="_top" xlink:title=" ">
<polygon fill="white" stroke="#666666" points="174,-219 37,-219 37,-189 174,-189 174,-219"/>
<text text-anchor="start" x="45" y="-207" font-family="Helvetica,sans-Serif" font-size="10.00">detail::buffer&lt; Container</text>
<text text-anchor="middle" x="105.5" y="-196" font-family="Helvetica,sans-Serif" font-size="10.00">::value_type &gt;</text>
</a>
</g>
</g>
<!-- Node3&#45;&gt;Node2 -->
<g id="edge2_Node000002_Node000003" class="edge">
<title>Node3&#45;&gt;Node2</title>
<g id="a_edge2_Node000002_Node000003"><a xlink:title=" ">
<path fill="none" stroke="#63b8ff" d="M105.5,-178.61C105.5,-169.65 105.5,-159.82 105.5,-152.08"/>
<polygon fill="#63b8ff" stroke="#63b8ff" points="102,-178.9 105.5,-188.9 109,-178.9 102,-178.9"/>
</a>
</g>
</g>
<!-- Node4 -->
<g id="Node000004" class="node">
<title>Node4</title>
<g id="a_Node000004"><a xlink:href="classdetail_1_1buffer.html" target="_top" xlink:title=" ">
<polygon fill="white" stroke="#666666" points="159,-285 52,-285 52,-266 159,-266 159,-285"/>
<text text-anchor="middle" x="105.5" y="-273" font-family="Helvetica,sans-Serif" font-size="10.00">detail::buffer&lt; T &gt;</text>
</a>
</g>
</g>
<!-- Node4&#45;&gt;Node3 -->
<g id="edge3_Node000003_Node000004" class="edge">
<title>Node4&#45;&gt;Node3</title>
<g id="a_edge3_Node000003_Node000004"><a xlink:title=" ">
<path fill="none" stroke="#9a32cd" stroke-dasharray="5,2" d="M105.5,-255.71C105.5,-244.19 105.5,-229.68 105.5,-219.14"/>
<polygon fill="#9a32cd" stroke="#9a32cd" points="102,-255.98 105.5,-265.98 109,-255.98 102,-255.98"/>
</a>
</g>
<text text-anchor="middle" x="122" y="-240" font-family="Helvetica,sans-Serif" font-size="10.00" fill="grey"> grow_</text>
</g>
<!-- Node4&#45;&gt;Node4 -->
<g id="edge4_Node000004_Node000004" class="edge">
<title>Node4&#45;&gt;Node4</title>
<g id="a_edge4_Node000004_Node000004"><a xlink:title=" ">
<path fill="none" stroke="#9a32cd" stroke-dasharray="5,2" d="M169.38,-279.96C174.1,-278.96 177,-277.47 177,-275.5 177,-272.34 169.58,-270.43 159.13,-269.77"/>
<polygon fill="#9a32cd" stroke="#9a32cd" points="168.62,-276.53 159.13,-281.23 169.49,-283.47 168.62,-276.53"/>
</a>
</g>
<text text-anchor="middle" x="193.5" y="-273" font-family="Helvetica,sans-Serif" font-size="10.00" fill="grey"> grow_</text>
</g>
</g>
</svg>
