<?xml version="1.0" encoding="UTF-8" standalone="no"?>
<!DOCTYPE svg PUBLIC "-//W3C//DTD SVG 1.1//EN"
 "http://www.w3.org/Graphics/SVG/1.1/DTD/svg11.dtd">
<!-- Generated by graphviz version 2.43.0 (0)
 -->
<!-- Title: detail::file_print_buffer&lt; F, enable_if_t&lt; has_flockfile&lt; F &gt;::value &gt; &gt; Pages: 1 -->
<svg width="176pt" height="182pt"
 viewBox="0.00 0.00 175.50 182.00" xmlns="http://www.w3.org/2000/svg" xmlns:xlink="http://www.w3.org/1999/xlink">
<g id="graph0" class="graph" transform="scale(1 1) rotate(0) translate(4 178)">
<title>detail::file_print_buffer&lt; F, enable_if_t&lt; has_flockfile&lt; F &gt;::value &gt; &gt;</title>
<!-- Node1 -->
<g id="Node000001" class="node">
<title>Node1</title>
<g id="a_Node000001"><a xlink:title=" ">
<polygon fill="#999999" stroke="#666666" points="126,-52 0,-52 0,0 126,0 126,-52"/>
<text text-anchor="start" x="8" y="-40" font-family="Helvetica,sans-Serif" font-size="10.00">detail::file_print</text>
<text text-anchor="start" x="8" y="-29" font-family="Helvetica,sans-Serif" font-size="10.00">_buffer&lt; F, enable_if</text>
<text text-anchor="start" x="8" y="-18" font-family="Helvetica,sans-Serif" font-size="10.00">_t&lt; has_flockfile&lt; F &gt;</text>
<text text-anchor="middle" x="63" y="-7" font-family="Helvetica,sans-Serif" font-size="10.00">::value &gt; &gt;</text>
</a>
</g>
</g>
<!-- Node2 -->
<g id="Node000002" class="node">
<title>Node2</title>
<g id="a_Node000002"><a xlink:href="classdetail_1_1buffer.html" target="_top" xlink:title=" ">
<polygon fill="white" stroke="#666666" points="124,-108 2,-108 2,-89 124,-89 124,-108"/>
<text text-anchor="middle" x="63" y="-96" font-family="Helvetica,sans-Serif" font-size="10.00">detail::buffer&lt; char &gt;</text>
</a>
</g>
</g>
<!-- Node2&#45;&gt;Node1 -->
<g id="edge1_Node000001_Node000002" class="edge">
<title>Node2&#45;&gt;Node1</title>
<g id="a_edge1_Node000001_Node000002"><a xlink:title=" ">
<path fill="none" stroke="#63b8ff" d="M63,-78.6C63,-70.46 63,-60.83 63,-52.1"/>
<polygon fill="#63b8ff" stroke="#63b8ff" points="59.5,-78.86 63,-88.86 66.5,-78.86 59.5,-78.86"/>
</a>
</g>
</g>
<!-- Node3 -->
<g id="Node000003" class="node">
<title>Node3</title>
<g id="a_Node000003"><a xlink:href="classdetail_1_1buffer.html" target="_top" xlink:title=" ">
<polygon fill="white" stroke="#666666" points="116.5,-174 9.5,-174 9.5,-155 116.5,-155 116.5,-174"/>
<text text-anchor="middle" x="63" y="-162" font-family="Helvetica,sans-Serif" font-size="10.00">detail::buffer&lt; T &gt;</text>
</a>
</g>
</g>
<!-- Node3&#45;&gt;Node2 -->
<g id="edge2_Node000002_Node000003" class="edge">
<title>Node3&#45;&gt;Node2</title>
<g id="a_edge2_Node000002_Node000003"><a xlink:title=" ">
<path fill="none" stroke="#9a32cd" stroke-dasharray="5,2" d="M63,-144.58C63,-132.63 63,-117.72 63,-108.41"/>
<polygon fill="#9a32cd" stroke="#9a32cd" points="59.5,-144.87 63,-154.87 66.5,-144.87 59.5,-144.87"/>
</a>
</g>
<text text-anchor="middle" x="79.5" y="-129" font-family="Helvetica,sans-Serif" font-size="10.00" fill="grey"> grow_</text>
</g>
<!-- Node3&#45;&gt;Node3 -->
<g id="edge3_Node000003_Node000003" class="edge">
<title>Node3&#45;&gt;Node3</title>
<g id="a_edge3_Node000003_Node000003"><a xlink:title=" ">
<path fill="none" stroke="#9a32cd" stroke-dasharray="5,2" d="M126.88,-168.96C131.6,-167.96 134.5,-166.47 134.5,-164.5 134.5,-161.34 127.08,-159.43 116.63,-158.77"/>
<polygon fill="#9a32cd" stroke="#9a32cd" points="126.12,-165.53 116.63,-170.23 126.99,-172.47 126.12,-165.53"/>
</a>
</g>
<text text-anchor="middle" x="151" y="-162" font-family="Helvetica,sans-Serif" font-size="10.00" fill="grey"> grow_</text>
</g>
</g>
</svg>
