<?xml version="1.0" encoding="UTF-8" standalone="no"?>
<!DOCTYPE svg PUBLIC "-//W3C//DTD SVG 1.1//EN"
 "http://www.w3.org/Graphics/SVG/1.1/DTD/svg11.dtd">
<!-- Generated by graphviz version 2.43.0 (0)
 -->
<!-- Title: string_buffer::string_buffer Pages: 1 -->
<svg width="452pt" height="38pt"
 viewBox="0.00 0.00 452.00 38.00" xmlns="http://www.w3.org/2000/svg" xmlns:xlink="http://www.w3.org/1999/xlink">
<g id="graph0" class="graph" transform="scale(1 1) rotate(0) translate(4 34)">
<title>string_buffer::string_buffer</title>
<!-- Node1 -->
<g id="Node000001" class="node">
<title>Node1</title>
<g id="a_Node000001"><a xlink:title=" ">
<polygon fill="#999999" stroke="#666666" points="112,-30 0,-30 0,0 112,0 112,-30"/>
<text text-anchor="start" x="8" y="-18" font-family="Helvetica,sans-Serif" font-size="10.00">string_buffer::string</text>
<text text-anchor="middle" x="56" y="-7" font-family="Helvetica,sans-Serif" font-size="10.00">_buffer</text>
</a>
</g>
</g>
<!-- Node2 -->
<g id="Node000002" class="node">
<title>Node2</title>
<g id="a_Node000002"><a xlink:href="classdetail_1_1container__buffer.html#ad8dcf343f45bad43630adc50cbc65684" target="_top" xlink:title=" ">
<polygon fill="white" stroke="#666666" points="278,-30 148,-30 148,0 278,0 278,-30"/>
<text text-anchor="start" x="156" y="-18" font-family="Helvetica,sans-Serif" font-size="10.00">detail::container_buffer</text>
<text text-anchor="middle" x="213" y="-7" font-family="Helvetica,sans-Serif" font-size="10.00">::container_buffer</text>
</a>
</g>
</g>
<!-- Node1&#45;&gt;Node2 -->
<g id="edge1_Node000001_Node000002" class="edge">
<title>Node1&#45;&gt;Node2</title>
<g id="a_edge1_Node000001_Node000002"><a xlink:title=" ">
<path fill="none" stroke="#63b8ff" d="M112.08,-15C120.4,-15 129.1,-15 137.74,-15"/>
<polygon fill="#63b8ff" stroke="#63b8ff" points="137.83,-18.5 147.83,-15 137.83,-11.5 137.83,-18.5"/>
</a>
</g>
</g>
<!-- Node3 -->
<g id="Node000003" class="node">
<title>Node3</title>
<g id="a_Node000003"><a xlink:href="classdetail_1_1container__buffer.html#a0364143a92d65be2c676679ec03d6e88" target="_top" xlink:title=" ">
<polygon fill="white" stroke="#666666" points="444,-30 314,-30 314,0 444,0 444,-30"/>
<text text-anchor="start" x="322" y="-18" font-family="Helvetica,sans-Serif" font-size="10.00">detail::container_buffer</text>
<text text-anchor="middle" x="379" y="-7" font-family="Helvetica,sans-Serif" font-size="10.00">::grow</text>
</a>
</g>
</g>
<!-- Node2&#45;&gt;Node3 -->
<g id="edge2_Node000002_Node000003" class="edge">
<title>Node2&#45;&gt;Node3</title>
<g id="a_edge2_Node000002_Node000003"><a xlink:title=" ">
<path fill="none" stroke="#63b8ff" d="M278.35,-15C286.64,-15 295.19,-15 303.62,-15"/>
<polygon fill="#63b8ff" stroke="#63b8ff" points="303.84,-18.5 313.84,-15 303.84,-11.5 303.84,-18.5"/>
</a>
</g>
</g>
</g>
</svg>
