<?xml version="1.0" encoding="UTF-8" standalone="no"?>
<!DOCTYPE svg PUBLIC "-//W3C//DTD SVG 1.1//EN"
 "http://www.w3.org/Graphics/SVG/1.1/DTD/svg11.dtd">
<!-- Generated by graphviz version 2.43.0 (0)
 -->
<!-- Title: detail::tm_writer::on_12_hour_time Pages: 1 -->
<svg width="392pt" height="204pt"
 viewBox="0.00 0.00 392.00 203.70" xmlns="http://www.w3.org/2000/svg" xmlns:xlink="http://www.w3.org/1999/xlink">
<g id="graph0" class="graph" transform="scale(1 1) rotate(0) translate(4 199.7)">
<title>detail::tm_writer::on_12_hour_time</title>
<!-- Node1 -->
<g id="Node000001" class="node">
<title>Node1</title>
<g id="a_Node000001"><a xlink:title=" ">
<polygon fill="#999999" stroke="#666666" points="104,-126 0,-126 0,-96 104,-96 104,-126"/>
<text text-anchor="start" x="8" y="-114" font-family="Helvetica,sans-Serif" font-size="10.00">detail::tm_writer::</text>
<text text-anchor="middle" x="52" y="-103" font-family="Helvetica,sans-Serif" font-size="10.00">on_12_hour_time</text>
</a>
</g>
</g>
<!-- Node2 -->
<g id="Node000002" class="node">
<title>Node2</title>
<g id="a_Node000002"><a xlink:href="classdetail_1_1tm__writer.html#ab8f9095299300945a550e457b970f763" target="_top" xlink:title=" ">
<polygon fill="white" stroke="#666666" points="384,-195 280,-195 280,-165 384,-165 384,-195"/>
<text text-anchor="start" x="288" y="-183" font-family="Helvetica,sans-Serif" font-size="10.00">detail::tm_writer::</text>
<text text-anchor="middle" x="332" y="-172" font-family="Helvetica,sans-Serif" font-size="10.00">format_localized</text>
</a>
</g>
</g>
<!-- Node1&#45;&gt;Node2 -->
<g id="edge1_Node000001_Node000002" class="edge">
<title>Node1&#45;&gt;Node2</title>
<g id="a_edge1_Node000001_Node000002"><a xlink:title=" ">
<path fill="none" stroke="#63b8ff" d="M65.24,-126.09C80.57,-143.66 108.64,-171.71 140,-183 181.53,-197.96 231.51,-196.55 269.92,-191.75"/>
<polygon fill="#63b8ff" stroke="#63b8ff" points="270.49,-195.21 279.93,-190.39 269.55,-188.27 270.49,-195.21"/>
</a>
</g>
</g>
<!-- Node3 -->
<g id="Node000003" class="node">
<title>Node3</title>
<g id="a_Node000003"><a xlink:href="classdetail_1_1tm__writer.html#a3a496baade233fae1a2024df67a60a73" target="_top" xlink:title=" ">
<polygon fill="white" stroke="#666666" points="244,-174 140,-174 140,-144 244,-144 244,-174"/>
<text text-anchor="start" x="148" y="-162" font-family="Helvetica,sans-Serif" font-size="10.00">detail::tm_writer::</text>
<text text-anchor="middle" x="192" y="-151" font-family="Helvetica,sans-Serif" font-size="10.00">on_am_pm</text>
</a>
</g>
</g>
<!-- Node1&#45;&gt;Node3 -->
<g id="edge2_Node000001_Node000003" class="edge">
<title>Node1&#45;&gt;Node3</title>
<g id="a_edge2_Node000001_Node000003"><a xlink:title=" ">
<path fill="none" stroke="#63b8ff" d="M96.29,-126.06C109.64,-130.7 124.5,-135.87 138.42,-140.71"/>
<polygon fill="#63b8ff" stroke="#63b8ff" points="137.27,-144.02 147.87,-144 139.57,-137.41 137.27,-144.02"/>
</a>
</g>
</g>
<!-- Node5 -->
<g id="Node000005" class="node">
<title>Node5</title>
<g id="a_Node000005"><a xlink:href="classdetail_1_1tm__writer.html#a8d42b2b58c1f1481fa5de5ccabaefa3f" target="_top" xlink:title=" ">
<polygon fill="white" stroke="#666666" points="244,-126 140,-126 140,-96 244,-96 244,-126"/>
<text text-anchor="start" x="148" y="-114" font-family="Helvetica,sans-Serif" font-size="10.00">detail::tm_writer::</text>
<text text-anchor="middle" x="192" y="-103" font-family="Helvetica,sans-Serif" font-size="10.00">tm_hour12</text>
</a>
</g>
</g>
<!-- Node1&#45;&gt;Node5 -->
<g id="edge5_Node000001_Node000005" class="edge">
<title>Node1&#45;&gt;Node5</title>
<g id="a_edge5_Node000001_Node000005"><a xlink:title=" ">
<path fill="none" stroke="#63b8ff" d="M104.39,-111C112.56,-111 121.08,-111 129.46,-111"/>
<polygon fill="#63b8ff" stroke="#63b8ff" points="129.57,-114.5 139.57,-111 129.57,-107.5 129.57,-114.5"/>
</a>
</g>
</g>
<!-- Node6 -->
<g id="Node000006" class="node">
<title>Node6</title>
<g id="a_Node000006"><a xlink:href="classdetail_1_1tm__writer.html#ab4c610dbee60f8ca391e2365848019ea" target="_top" xlink:title=" ">
<polygon fill="white" stroke="#666666" points="244,-78 140,-78 140,-48 244,-48 244,-78"/>
<text text-anchor="start" x="148" y="-66" font-family="Helvetica,sans-Serif" font-size="10.00">detail::tm_writer::</text>
<text text-anchor="middle" x="192" y="-55" font-family="Helvetica,sans-Serif" font-size="10.00">tm_min</text>
</a>
</g>
</g>
<!-- Node1&#45;&gt;Node6 -->
<g id="edge7_Node000001_Node000006" class="edge">
<title>Node1&#45;&gt;Node6</title>
<g id="a_edge7_Node000001_Node000006"><a xlink:title=" ">
<path fill="none" stroke="#63b8ff" d="M96.29,-95.94C109.64,-91.3 124.5,-86.13 138.42,-81.29"/>
<polygon fill="#63b8ff" stroke="#63b8ff" points="139.57,-84.59 147.87,-78 137.27,-77.98 139.57,-84.59"/>
</a>
</g>
</g>
<!-- Node7 -->
<g id="Node000007" class="node">
<title>Node7</title>
<g id="a_Node000007"><a xlink:href="classdetail_1_1tm__writer.html#a34eec6b5c9584aa781340fe01cd75e07" target="_top" xlink:title=" ">
<polygon fill="white" stroke="#666666" points="244,-30 140,-30 140,0 244,0 244,-30"/>
<text text-anchor="start" x="148" y="-18" font-family="Helvetica,sans-Serif" font-size="10.00">detail::tm_writer::</text>
<text text-anchor="middle" x="192" y="-7" font-family="Helvetica,sans-Serif" font-size="10.00">tm_sec</text>
</a>
</g>
</g>
<!-- Node1&#45;&gt;Node7 -->
<g id="edge8_Node000001_Node000007" class="edge">
<title>Node1&#45;&gt;Node7</title>
<g id="a_edge8_Node000001_Node000007"><a xlink:title=" ">
<path fill="none" stroke="#63b8ff" d="M68.73,-95.89C85.47,-80.33 113.18,-56.02 140,-39 142.17,-37.62 144.43,-36.28 146.74,-34.97"/>
<polygon fill="#63b8ff" stroke="#63b8ff" points="148.63,-37.92 155.81,-30.13 145.34,-31.75 148.63,-37.92"/>
</a>
</g>
</g>
<!-- Node3&#45;&gt;Node2 -->
<g id="edge3_Node000003_Node000002" class="edge">
<title>Node3&#45;&gt;Node2</title>
<g id="a_edge3_Node000003_Node000002"><a xlink:title=" ">
<path fill="none" stroke="#63b8ff" d="M244.39,-166.82C252.56,-168.06 261.08,-169.36 269.46,-170.64"/>
<polygon fill="#63b8ff" stroke="#63b8ff" points="269.16,-174.13 279.57,-172.17 270.21,-167.21 269.16,-174.13"/>
</a>
</g>
</g>
<!-- Node4 -->
<g id="Node000004" class="node">
<title>Node4</title>
<g id="a_Node000004"><a xlink:href="classdetail_1_1tm__writer.html#a1cabc65ab2cc70f017f44a37c6ccb83e" target="_top" xlink:title=" ">
<polygon fill="white" stroke="#666666" points="384,-147 280,-147 280,-117 384,-117 384,-147"/>
<text text-anchor="start" x="288" y="-135" font-family="Helvetica,sans-Serif" font-size="10.00">detail::tm_writer::</text>
<text text-anchor="middle" x="332" y="-124" font-family="Helvetica,sans-Serif" font-size="10.00">tm_hour</text>
</a>
</g>
</g>
<!-- Node3&#45;&gt;Node4 -->
<g id="edge4_Node000003_Node000004" class="edge">
<title>Node3&#45;&gt;Node4</title>
<g id="a_edge4_Node000003_Node000004"><a xlink:title=" ">
<path fill="none" stroke="#63b8ff" d="M244.39,-148.95C252.65,-147.33 261.27,-145.64 269.74,-143.99"/>
<polygon fill="#63b8ff" stroke="#63b8ff" points="270.43,-147.42 279.57,-142.06 269.08,-140.55 270.43,-147.42"/>
</a>
</g>
</g>
<!-- Node5&#45;&gt;Node4 -->
<g id="edge6_Node000005_Node000004" class="edge">
<title>Node5&#45;&gt;Node4</title>
<g id="a_edge6_Node000005_Node000004"><a xlink:title=" ">
<path fill="none" stroke="#63b8ff" d="M244.39,-118.82C252.56,-120.06 261.08,-121.36 269.46,-122.64"/>
<polygon fill="#63b8ff" stroke="#63b8ff" points="269.16,-126.13 279.57,-124.17 270.21,-119.21 269.16,-126.13"/>
</a>
</g>
</g>
</g>
</svg>
