<?xml version="1.0" encoding="UTF-8" standalone="no"?>
<!DOCTYPE svg PUBLIC "-//W3C//DTD SVG 1.1//EN"
 "http://www.w3.org/Graphics/SVG/1.1/DTD/svg11.dtd">
<!-- Generated by graphviz version 2.43.0 (0)
 -->
<!-- Title: RadioLibPrint Pages: 1 -->
<svg width="335pt" height="82pt"
 viewBox="0.00 0.00 335.00 82.00" xmlns="http://www.w3.org/2000/svg" xmlns:xlink="http://www.w3.org/1999/xlink">
<g id="graph0" class="graph" transform="scale(1 1) rotate(0) translate(4 78)">
<title>RadioLibPrint</title>
<!-- Node1 -->
<g id="Node000001" class="node">
<title>Node1</title>
<g id="a_Node000001"><a xlink:title="Printing class, based on Arduino Print class with additional encodings.">
<polygon fill="#999999" stroke="#666666" points="199.5,-74 118.5,-74 118.5,-55 199.5,-55 199.5,-74"/>
<text text-anchor="middle" x="159" y="-62" font-family="Helvetica,sans-Serif" font-size="10.00">RadioLibPrint</text>
</a>
</g>
</g>
<!-- Node2 -->
<g id="Node000002" class="node">
<title>Node2</title>
<g id="a_Node000002"><a xlink:href="classBellClient.html" target="_top" xlink:title="Client for Bell modem communication. The public interface is the same as Arduino Serial.">
<polygon fill="white" stroke="#666666" points="64,-19 0,-19 0,0 64,0 64,-19"/>
<text text-anchor="middle" x="32" y="-7" font-family="Helvetica,sans-Serif" font-size="10.00">BellClient</text>
</a>
</g>
</g>
<!-- Node1&#45;&gt;Node2 -->
<g id="edge1_Node000001_Node000002" class="edge">
<title>Node1&#45;&gt;Node2</title>
<g id="a_edge1_Node000001_Node000002"><a xlink:title=" ">
<path fill="none" stroke="#63b8ff" d="M129.12,-51.03C105.63,-41.23 73.53,-27.83 52.78,-19.17"/>
<polygon fill="#63b8ff" stroke="#63b8ff" points="128.02,-54.36 138.6,-54.98 130.71,-47.9 128.02,-54.36"/>
</a>
</g>
</g>
<!-- Node3 -->
<g id="Node000003" class="node">
<title>Node3</title>
<g id="a_Node000003"><a xlink:href="classHellClient.html" target="_top" xlink:title="Client for Hellschreiber transmissions.">
<polygon fill="white" stroke="#666666" points="147.5,-19 82.5,-19 82.5,0 147.5,0 147.5,-19"/>
<text text-anchor="middle" x="115" y="-7" font-family="Helvetica,sans-Serif" font-size="10.00">HellClient</text>
</a>
</g>
</g>
<!-- Node1&#45;&gt;Node3 -->
<g id="edge2_Node000001_Node000003" class="edge">
<title>Node1&#45;&gt;Node3</title>
<g id="a_edge2_Node000001_Node000003"><a xlink:title=" ">
<path fill="none" stroke="#63b8ff" d="M145.27,-46.96C137.6,-37.72 128.37,-26.6 122.13,-19.09"/>
<polygon fill="#63b8ff" stroke="#63b8ff" points="142.65,-49.29 151.73,-54.75 148.04,-44.82 142.65,-49.29"/>
</a>
</g>
</g>
<!-- Node4 -->
<g id="Node000004" class="node">
<title>Node4</title>
<g id="a_Node000004"><a xlink:href="classMorseClient.html" target="_top" xlink:title="Client for Morse Code communication. The public interface is the same as Arduino Serial.">
<polygon fill="white" stroke="#666666" points="240.5,-19 165.5,-19 165.5,0 240.5,0 240.5,-19"/>
<text text-anchor="middle" x="203" y="-7" font-family="Helvetica,sans-Serif" font-size="10.00">MorseClient</text>
</a>
</g>
</g>
<!-- Node1&#45;&gt;Node4 -->
<g id="edge3_Node000001_Node000004" class="edge">
<title>Node1&#45;&gt;Node4</title>
<g id="a_edge3_Node000001_Node000004"><a xlink:title=" ">
<path fill="none" stroke="#63b8ff" d="M172.73,-46.96C180.4,-37.72 189.63,-26.6 195.87,-19.09"/>
<polygon fill="#63b8ff" stroke="#63b8ff" points="169.96,-44.82 166.27,-54.75 175.35,-49.29 169.96,-44.82"/>
</a>
</g>
</g>
<!-- Node5 -->
<g id="Node000005" class="node">
<title>Node5</title>
<g id="a_Node000005"><a xlink:href="classRTTYClient.html" target="_top" xlink:title="Client for RTTY communication. The public interface is the same as Arduino Serial.">
<polygon fill="white" stroke="#666666" points="327,-19 259,-19 259,0 327,0 327,-19"/>
<text text-anchor="middle" x="293" y="-7" font-family="Helvetica,sans-Serif" font-size="10.00">RTTYClient</text>
</a>
</g>
</g>
<!-- Node1&#45;&gt;Node5 -->
<g id="edge4_Node000001_Node000005" class="edge">
<title>Node1&#45;&gt;Node5</title>
<g id="a_edge4_Node000001_Node000005"><a xlink:title=" ">
<path fill="none" stroke="#63b8ff" d="M189.87,-51.29C214.7,-41.47 248.99,-27.91 271.08,-19.17"/>
<polygon fill="#63b8ff" stroke="#63b8ff" points="188.54,-48.05 180.53,-54.98 191.12,-54.56 188.54,-48.05"/>
</a>
</g>
</g>
</g>
</svg>
