<?xml version="1.0" encoding="UTF-8" standalone="no"?>
<!DOCTYPE svg PUBLIC "-//W3C//DTD SVG 1.1//EN"
 "http://www.w3.org/Graphics/SVG/1.1/DTD/svg11.dtd">
<!-- Generated by graphviz version 2.43.0 (0)
 -->
<!-- Title: Magick::Color::Color Pages: 1 -->
<svg width="316pt" height="199pt"
 viewBox="0.00 0.00 316.00 198.50" xmlns="http://www.w3.org/2000/svg" xmlns:xlink="http://www.w3.org/1999/xlink">
<g id="graph0" class="graph" transform="scale(1 1) rotate(0) translate(4 194.5)">
<title>Magick::Color::Color</title>
<!-- Node1 -->
<g id="Node000001" class="node">
<title>Node1</title>
<g id="a_Node000001"><a xlink:title=" ">
<polygon fill="#999999" stroke="#666666" points="308,-99 193,-99 193,-80 308,-80 308,-99"/>
<text text-anchor="middle" x="250.5" y="-87" font-family="Helvetica,sans-Serif" font-size="10.00">Magick::Color::Color</text>
</a>
</g>
</g>
<!-- Node2 -->
<g id="Node000002" class="node">
<title>Node2</title>
<g id="a_Node000002"><a xlink:href="classMagick_1_1ColorGray.html#ad41099c75e8b1a59276d60eed960da70" target="_top" xlink:title=" ">
<polygon fill="white" stroke="#666666" points="134.5,-190.5 22.5,-190.5 22.5,-160.5 134.5,-160.5 134.5,-190.5"/>
<text text-anchor="start" x="30.5" y="-178.5" font-family="Helvetica,sans-Serif" font-size="10.00">Magick::ColorGray::</text>
<text text-anchor="middle" x="78.5" y="-167.5" font-family="Helvetica,sans-Serif" font-size="10.00">ColorGray</text>
</a>
</g>
</g>
<!-- Node1&#45;&gt;Node2 -->
<g id="edge1_Node000001_Node000002" class="edge">
<title>Node1&#45;&gt;Node2</title>
<g id="a_edge1_Node000001_Node000002"><a xlink:title=" ">
<path fill="none" stroke="#63b8ff" d="M229.58,-105.35C211.51,-119.11 183.69,-138.76 157,-151.5 150.01,-154.84 142.44,-157.85 134.88,-160.52"/>
<polygon fill="#63b8ff" stroke="#63b8ff" points="231.85,-108.02 237.62,-99.13 227.57,-102.48 231.85,-108.02"/>
</a>
</g>
</g>
<!-- Node3 -->
<g id="Node000003" class="node">
<title>Node3</title>
<g id="a_Node000003"><a xlink:href="classMagick_1_1ColorHSL.html#a1090c147769728dde42dfc842a4f3a0e" target="_top" xlink:title=" ">
<polygon fill="white" stroke="#666666" points="154.5,-142 2.5,-142 2.5,-123 154.5,-123 154.5,-142"/>
<text text-anchor="middle" x="78.5" y="-130" font-family="Helvetica,sans-Serif" font-size="10.00">Magick::ColorHSL::ColorHSL</text>
</a>
</g>
</g>
<!-- Node1&#45;&gt;Node3 -->
<g id="edge2_Node000001_Node000003" class="edge">
<title>Node1&#45;&gt;Node3</title>
<g id="a_edge2_Node000001_Node000003"><a xlink:title=" ">
<path fill="none" stroke="#63b8ff" d="M203.16,-101.65C188.41,-105.49 172.03,-109.71 157,-113.5 144.64,-116.62 131.16,-119.95 118.95,-122.94"/>
<polygon fill="#63b8ff" stroke="#63b8ff" points="204.27,-104.98 213.06,-99.07 202.51,-98.21 204.27,-104.98"/>
</a>
</g>
</g>
<!-- Node4 -->
<g id="Node000004" class="node">
<title>Node4</title>
<g id="a_Node000004"><a xlink:href="classMagick_1_1ColorMono.html#a7160e790ea0ec8b508893946bf3cd3b6" target="_top" xlink:title=" ">
<polygon fill="white" stroke="#666666" points="136.5,-104.5 20.5,-104.5 20.5,-74.5 136.5,-74.5 136.5,-104.5"/>
<text text-anchor="start" x="28.5" y="-92.5" font-family="Helvetica,sans-Serif" font-size="10.00">Magick::ColorMono::</text>
<text text-anchor="middle" x="78.5" y="-81.5" font-family="Helvetica,sans-Serif" font-size="10.00">ColorMono</text>
</a>
</g>
</g>
<!-- Node1&#45;&gt;Node4 -->
<g id="edge3_Node000001_Node000004" class="edge">
<title>Node1&#45;&gt;Node4</title>
<g id="a_edge3_Node000001_Node000004"><a xlink:title=" ">
<path fill="none" stroke="#63b8ff" d="M182.55,-89.5C167.4,-89.5 151.44,-89.5 136.73,-89.5"/>
<polygon fill="#63b8ff" stroke="#63b8ff" points="182.89,-93 192.89,-89.5 182.89,-86 182.89,-93"/>
</a>
</g>
</g>
<!-- Node5 -->
<g id="Node000005" class="node">
<title>Node5</title>
<g id="a_Node000005"><a xlink:href="classMagick_1_1ColorRGB.html#ae86ba9f44c6abced4698d19cc31ae0f0" target="_top" xlink:title=" ">
<polygon fill="white" stroke="#666666" points="157,-56 0,-56 0,-37 157,-37 157,-56"/>
<text text-anchor="middle" x="78.5" y="-44" font-family="Helvetica,sans-Serif" font-size="10.00">Magick::ColorRGB::ColorRGB</text>
</a>
</g>
</g>
<!-- Node1&#45;&gt;Node5 -->
<g id="edge4_Node000001_Node000005" class="edge">
<title>Node1&#45;&gt;Node5</title>
<g id="a_edge4_Node000001_Node000005"><a xlink:title=" ">
<path fill="none" stroke="#63b8ff" d="M203.16,-77.35C188.41,-73.51 172.03,-69.29 157,-65.5 144.64,-62.38 131.16,-59.05 118.95,-56.06"/>
<polygon fill="#63b8ff" stroke="#63b8ff" points="202.51,-80.79 213.06,-79.93 204.27,-74.02 202.51,-80.79"/>
</a>
</g>
</g>
<!-- Node6 -->
<g id="Node000006" class="node">
<title>Node6</title>
<g id="a_Node000006"><a xlink:href="classMagick_1_1ColorYUV.html#a63f3234a177daba219bc03fe6abd8c50" target="_top" xlink:title=" ">
<polygon fill="white" stroke="#666666" points="156,-19 1,-19 1,0 156,0 156,-19"/>
<text text-anchor="middle" x="78.5" y="-7" font-family="Helvetica,sans-Serif" font-size="10.00">Magick::ColorYUV::ColorYUV</text>
</a>
</g>
</g>
<!-- Node1&#45;&gt;Node6 -->
<g id="edge5_Node000001_Node000006" class="edge">
<title>Node1&#45;&gt;Node6</title>
<g id="a_edge5_Node000001_Node000006"><a xlink:title=" ">
<path fill="none" stroke="#63b8ff" d="M229.72,-73.53C211.73,-59.76 183.97,-40.28 157,-28.5 148.37,-24.73 138.85,-21.62 129.53,-19.09"/>
<polygon fill="#63b8ff" stroke="#63b8ff" points="227.68,-76.38 237.71,-79.78 231.98,-70.86 227.68,-76.38"/>
</a>
</g>
</g>
</g>
</svg>
