<?xml version="1.0" encoding="UTF-8" standalone="no"?>
<!DOCTYPE svg PUBLIC "-//W3C//DTD SVG 1.1//EN"
 "http://www.w3.org/Graphics/SVG/1.1/DTD/svg11.dtd">
<!-- Generated by graphviz version 2.43.0 (0)
 -->
<!-- Title: Magick::VPathBase Pages: 1 -->
<svg width="336pt" height="716pt"
 viewBox="0.00 0.00 336.00 715.50" xmlns="http://www.w3.org/2000/svg" xmlns:xlink="http://www.w3.org/1999/xlink">
<g id="graph0" class="graph" transform="scale(1 1) rotate(0) translate(4 711.5)">
<title>Magick::VPathBase</title>
<!-- Node1 -->
<g id="Node000001" class="node">
<title>Node1</title>
<g id="a_Node000001"><a xlink:title=" ">
<polygon fill="#999999" stroke="#666666" points="110,-374.5 0,-374.5 0,-355.5 110,-355.5 110,-374.5"/>
<text text-anchor="middle" x="55" y="-362.5" font-family="Helvetica,sans-Serif" font-size="10.00">Magick::VPathBase</text>
</a>
</g>
</g>
<!-- Node2 -->
<g id="Node000002" class="node">
<title>Node2</title>
<g id="a_Node000002"><a xlink:href="classMagick_1_1PathArcAbs.html" target="_top" xlink:title=" ">
<polygon fill="white" stroke="#666666" points="293.5,-707.5 180.5,-707.5 180.5,-688.5 293.5,-688.5 293.5,-707.5"/>
<text text-anchor="middle" x="237" y="-695.5" font-family="Helvetica,sans-Serif" font-size="10.00">Magick::PathArcAbs</text>
</a>
</g>
</g>
<!-- Node1&#45;&gt;Node2 -->
<g id="edge1_Node000001_Node000002" class="edge">
<title>Node1&#45;&gt;Node2</title>
<g id="a_edge1_Node000001_Node000002"><a xlink:title=" ">
<path fill="none" stroke="#63b8ff" d="M55.14,-385.08C53.94,-440.98 58.76,-599.55 146,-680 155.37,-688.64 167.67,-693.64 180.16,-696.43"/>
<polygon fill="#63b8ff" stroke="#63b8ff" points="58.65,-384.88 55.47,-374.77 51.66,-384.66 58.65,-384.88"/>
</a>
</g>
</g>
<!-- Node3 -->
<g id="Node000003" class="node">
<title>Node3</title>
<g id="a_Node000003"><a xlink:href="classMagick_1_1PathArcRel.html" target="_top" xlink:title=" ">
<polygon fill="white" stroke="#666666" points="292,-670.5 182,-670.5 182,-651.5 292,-651.5 292,-670.5"/>
<text text-anchor="middle" x="237" y="-658.5" font-family="Helvetica,sans-Serif" font-size="10.00">Magick::PathArcRel</text>
</a>
</g>
</g>
<!-- Node1&#45;&gt;Node3 -->
<g id="edge2_Node000001_Node000003" class="edge">
<title>Node1&#45;&gt;Node3</title>
<g id="a_edge2_Node000001_Node000003"><a xlink:title=" ">
<path fill="none" stroke="#63b8ff" d="M56.03,-384.77C57.24,-435.94 67.98,-573.53 146,-643 155.88,-651.8 168.81,-656.78 181.78,-659.5"/>
<polygon fill="#63b8ff" stroke="#63b8ff" points="59.53,-384.67 55.89,-374.71 52.53,-384.76 59.53,-384.67"/>
</a>
</g>
</g>
<!-- Node4 -->
<g id="Node000004" class="node">
<title>Node4</title>
<g id="a_Node000004"><a xlink:href="classMagick_1_1PathClosePath.html" target="_top" xlink:title=" ">
<polygon fill="white" stroke="#666666" points="300.5,-633.5 173.5,-633.5 173.5,-614.5 300.5,-614.5 300.5,-633.5"/>
<text text-anchor="middle" x="237" y="-621.5" font-family="Helvetica,sans-Serif" font-size="10.00">Magick::PathClosePath</text>
</a>
</g>
</g>
<!-- Node1&#45;&gt;Node4 -->
<g id="edge3_Node000001_Node000004" class="edge">
<title>Node1&#45;&gt;Node4</title>
<g id="a_edge3_Node000001_Node000004"><a xlink:title=" ">
<path fill="none" stroke="#63b8ff" d="M57.16,-384.91C61,-431.4 77.35,-547.54 146,-606 153.76,-612.61 163.27,-617.04 173.16,-619.97"/>
<polygon fill="#63b8ff" stroke="#63b8ff" points="60.63,-384.4 56.43,-374.67 53.65,-384.9 60.63,-384.4"/>
</a>
</g>
</g>
<!-- Node5 -->
<g id="Node000005" class="node">
<title>Node5</title>
<g id="a_Node000005"><a xlink:href="classMagick_1_1PathCurvetoAbs.html" target="_top" xlink:title=" ">
<polygon fill="white" stroke="#666666" points="304.5,-596.5 169.5,-596.5 169.5,-577.5 304.5,-577.5 304.5,-596.5"/>
<text text-anchor="middle" x="237" y="-584.5" font-family="Helvetica,sans-Serif" font-size="10.00">Magick::PathCurvetoAbs</text>
</a>
</g>
</g>
<!-- Node1&#45;&gt;Node5 -->
<g id="edge4_Node000001_Node000005" class="edge">
<title>Node1&#45;&gt;Node5</title>
<g id="a_edge4_Node000001_Node000005"><a xlink:title=" ">
<path fill="none" stroke="#63b8ff" d="M58.62,-384.63C65.2,-425.77 86.4,-521.16 146,-569 152.83,-574.49 160.89,-578.45 169.32,-581.28"/>
<polygon fill="#63b8ff" stroke="#63b8ff" points="62.05,-383.93 57.13,-374.55 55.13,-384.96 62.05,-383.93"/>
</a>
</g>
</g>
<!-- Node6 -->
<g id="Node000006" class="node">
<title>Node6</title>
<g id="a_Node000006"><a xlink:href="classMagick_1_1PathCurvetoRel.html" target="_top" xlink:title=" ">
<polygon fill="white" stroke="#666666" points="303.5,-559.5 170.5,-559.5 170.5,-540.5 303.5,-540.5 303.5,-559.5"/>
<text text-anchor="middle" x="237" y="-547.5" font-family="Helvetica,sans-Serif" font-size="10.00">Magick::PathCurvetoRel</text>
</a>
</g>
</g>
<!-- Node1&#45;&gt;Node6 -->
<g id="edge5_Node000001_Node000006" class="edge">
<title>Node1&#45;&gt;Node6</title>
<g id="a_edge5_Node000001_Node000006"><a xlink:title=" ">
<path fill="none" stroke="#63b8ff" d="M60.77,-384.93C70.38,-420.51 95.59,-494.71 146,-532 153.17,-537.31 161.52,-541.15 170.17,-543.92"/>
<polygon fill="#63b8ff" stroke="#63b8ff" points="64.06,-383.66 58.19,-374.84 57.27,-385.39 64.06,-383.66"/>
</a>
</g>
</g>
<!-- Node7 -->
<g id="Node000007" class="node">
<title>Node7</title>
<g id="a_Node000007"><a xlink:href="classMagick_1_1PathLinetoAbs.html" target="_top" xlink:title=" ">
<polygon fill="white" stroke="#666666" points="300.5,-522.5 173.5,-522.5 173.5,-503.5 300.5,-503.5 300.5,-522.5"/>
<text text-anchor="middle" x="237" y="-510.5" font-family="Helvetica,sans-Serif" font-size="10.00">Magick::PathLinetoAbs</text>
</a>
</g>
</g>
<!-- Node1&#45;&gt;Node7 -->
<g id="edge6_Node000001_Node000007" class="edge">
<title>Node1&#45;&gt;Node7</title>
<g id="a_edge6_Node000001_Node000007"><a xlink:title=" ">
<path fill="none" stroke="#63b8ff" d="M63.63,-384.15C76.2,-413.09 104.11,-467.48 146,-495 154.12,-500.34 163.49,-504.15 173.03,-506.87"/>
<polygon fill="#63b8ff" stroke="#63b8ff" points="66.78,-382.62 59.69,-374.74 60.32,-385.32 66.78,-382.62"/>
</a>
</g>
</g>
<!-- Node8 -->
<g id="Node000008" class="node">
<title>Node8</title>
<g id="a_Node000008"><a xlink:href="classMagick_1_1PathLinetoHorizontalAbs.html" target="_top" xlink:title=" ">
<polygon fill="white" stroke="#666666" points="325.5,-485.5 148.5,-485.5 148.5,-466.5 325.5,-466.5 325.5,-485.5"/>
<text text-anchor="middle" x="237" y="-473.5" font-family="Helvetica,sans-Serif" font-size="10.00">Magick::PathLinetoHorizontalAbs</text>
</a>
</g>
</g>
<!-- Node1&#45;&gt;Node8 -->
<g id="edge7_Node000001_Node000008" class="edge">
<title>Node1&#45;&gt;Node8</title>
<g id="a_edge7_Node000001_Node000008"><a xlink:title=" ">
<path fill="none" stroke="#63b8ff" d="M68.12,-383C83.57,-404.44 112.35,-439.63 146,-458 152.29,-461.44 159.16,-464.22 166.19,-466.47"/>
<polygon fill="#63b8ff" stroke="#63b8ff" points="70.95,-380.93 62.34,-374.75 65.21,-384.95 70.95,-380.93"/>
</a>
</g>
</g>
<!-- Node9 -->
<g id="Node000009" class="node">
<title>Node9</title>
<g id="a_Node000009"><a xlink:href="classMagick_1_1PathLinetoHorizontalRel.html" target="_top" xlink:title=" ">
<polygon fill="white" stroke="#666666" points="324.5,-448.5 149.5,-448.5 149.5,-429.5 324.5,-429.5 324.5,-448.5"/>
<text text-anchor="middle" x="237" y="-436.5" font-family="Helvetica,sans-Serif" font-size="10.00">Magick::PathLinetoHorizontalRel</text>
</a>
</g>
</g>
<!-- Node1&#45;&gt;Node9 -->
<g id="edge8_Node000001_Node000009" class="edge">
<title>Node1&#45;&gt;Node9</title>
<g id="a_edge8_Node000001_Node000009"><a xlink:title=" ">
<path fill="none" stroke="#63b8ff" d="M76.66,-380.87C94.19,-393.59 120.5,-410.9 146,-421 154.59,-424.4 163.91,-427.19 173.19,-429.46"/>
<polygon fill="#63b8ff" stroke="#63b8ff" points="78.45,-377.85 68.34,-374.71 74.29,-383.48 78.45,-377.85"/>
</a>
</g>
</g>
<!-- Node10 -->
<g id="Node000010" class="node">
<title>Node10</title>
<g id="a_Node000010"><a xlink:href="classMagick_1_1PathLinetoRel.html" target="_top" xlink:title=" ">
<polygon fill="white" stroke="#666666" points="299.5,-411.5 174.5,-411.5 174.5,-392.5 299.5,-392.5 299.5,-411.5"/>
<text text-anchor="middle" x="237" y="-399.5" font-family="Helvetica,sans-Serif" font-size="10.00">Magick::PathLinetoRel</text>
</a>
</g>
</g>
<!-- Node1&#45;&gt;Node10 -->
<g id="edge9_Node000001_Node000010" class="edge">
<title>Node1&#45;&gt;Node10</title>
<g id="a_edge9_Node000001_Node000010"><a xlink:title=" ">
<path fill="none" stroke="#63b8ff" d="M110.86,-376.68C122.46,-379.12 134.63,-381.66 146,-384 159.58,-386.79 174.32,-389.76 187.87,-392.47"/>
<polygon fill="#63b8ff" stroke="#63b8ff" points="111.35,-373.21 100.84,-374.57 109.91,-380.05 111.35,-373.21"/>
</a>
</g>
</g>
<!-- Node11 -->
<g id="Node000011" class="node">
<title>Node11</title>
<g id="a_Node000011"><a xlink:href="classMagick_1_1PathLinetoVerticalAbs.html" target="_top" xlink:title=" ">
<polygon fill="white" stroke="#666666" points="319,-374.5 155,-374.5 155,-355.5 319,-355.5 319,-374.5"/>
<text text-anchor="middle" x="237" y="-362.5" font-family="Helvetica,sans-Serif" font-size="10.00">Magick::PathLinetoVerticalAbs</text>
</a>
</g>
</g>
<!-- Node1&#45;&gt;Node11 -->
<g id="edge10_Node000001_Node000011" class="edge">
<title>Node1&#45;&gt;Node11</title>
<g id="a_edge10_Node000001_Node000011"><a xlink:title=" ">
<path fill="none" stroke="#63b8ff" d="M120.12,-365C131.33,-365 143.13,-365 154.74,-365"/>
<polygon fill="#63b8ff" stroke="#63b8ff" points="120.01,-361.5 110.01,-365 120.01,-368.5 120.01,-361.5"/>
</a>
</g>
</g>
<!-- Node12 -->
<g id="Node000012" class="node">
<title>Node12</title>
<g id="a_Node000012"><a xlink:href="classMagick_1_1PathLinetoVerticalRel.html" target="_top" xlink:title=" ">
<polygon fill="white" stroke="#666666" points="317.5,-337.5 156.5,-337.5 156.5,-318.5 317.5,-318.5 317.5,-337.5"/>
<text text-anchor="middle" x="237" y="-325.5" font-family="Helvetica,sans-Serif" font-size="10.00">Magick::PathLinetoVerticalRel</text>
</a>
</g>
</g>
<!-- Node1&#45;&gt;Node12 -->
<g id="edge11_Node000001_Node000012" class="edge">
<title>Node1&#45;&gt;Node12</title>
<g id="a_edge11_Node000001_Node000012"><a xlink:title=" ">
<path fill="none" stroke="#63b8ff" d="M112.35,-353.42C137.16,-348.32 165.94,-342.4 189.49,-337.56"/>
<polygon fill="#63b8ff" stroke="#63b8ff" points="111.44,-350.03 102.35,-355.47 112.85,-356.89 111.44,-350.03"/>
</a>
</g>
</g>
<!-- Node13 -->
<g id="Node000013" class="node">
<title>Node13</title>
<g id="a_Node000013"><a xlink:href="classMagick_1_1PathMovetoAbs.html" target="_top" xlink:title=" ">
<polygon fill="white" stroke="#666666" points="304,-300.5 170,-300.5 170,-281.5 304,-281.5 304,-300.5"/>
<text text-anchor="middle" x="237" y="-288.5" font-family="Helvetica,sans-Serif" font-size="10.00">Magick::PathMovetoAbs</text>
</a>
</g>
</g>
<!-- Node1&#45;&gt;Node13 -->
<g id="edge12_Node000001_Node000013" class="edge">
<title>Node1&#45;&gt;Node13</title>
<g id="a_edge12_Node000001_Node000013"><a xlink:title=" ">
<path fill="none" stroke="#63b8ff" d="M77.03,-349.28C94.61,-336.87 120.79,-320.02 146,-310 155.65,-306.17 166.2,-303.05 176.57,-300.54"/>
<polygon fill="#63b8ff" stroke="#63b8ff" points="74.74,-346.62 68.67,-355.31 78.83,-352.3 74.74,-346.62"/>
</a>
</g>
</g>
<!-- Node14 -->
<g id="Node000014" class="node">
<title>Node14</title>
<g id="a_Node000014"><a xlink:href="classMagick_1_1PathMovetoRel.html" target="_top" xlink:title=" ">
<polygon fill="white" stroke="#666666" points="302.5,-263.5 171.5,-263.5 171.5,-244.5 302.5,-244.5 302.5,-263.5"/>
<text text-anchor="middle" x="237" y="-251.5" font-family="Helvetica,sans-Serif" font-size="10.00">Magick::PathMovetoRel</text>
</a>
</g>
</g>
<!-- Node1&#45;&gt;Node14 -->
<g id="edge13_Node000001_Node000014" class="edge">
<title>Node1&#45;&gt;Node14</title>
<g id="a_edge13_Node000001_Node000014"><a xlink:title=" ">
<path fill="none" stroke="#63b8ff" d="M68.2,-347.25C83.73,-326.11 112.58,-291.35 146,-273 153.84,-268.7 162.55,-265.36 171.39,-262.79"/>
<polygon fill="#63b8ff" stroke="#63b8ff" points="65.35,-345.22 62.39,-355.39 71.05,-349.29 65.35,-345.22"/>
</a>
</g>
</g>
<!-- Node15 -->
<g id="Node000015" class="node">
<title>Node15</title>
<g id="a_Node000015"><a xlink:href="classMagick_1_1PathQuadraticCurvetoAbs.html" target="_top" xlink:title=" ">
<polygon fill="white" stroke="#666666" points="328,-226.5 146,-226.5 146,-207.5 328,-207.5 328,-226.5"/>
<text text-anchor="middle" x="237" y="-214.5" font-family="Helvetica,sans-Serif" font-size="10.00">Magick::PathQuadraticCurvetoAbs</text>
</a>
</g>
</g>
<!-- Node1&#45;&gt;Node15 -->
<g id="edge14_Node000001_Node000015" class="edge">
<title>Node1&#45;&gt;Node15</title>
<g id="a_edge14_Node000001_Node000015"><a xlink:title=" ">
<path fill="none" stroke="#63b8ff" d="M63.7,-346.05C76.38,-317.4 104.43,-263.53 146,-236 151.86,-232.12 158.36,-229.01 165.12,-226.53"/>
<polygon fill="#63b8ff" stroke="#63b8ff" points="60.44,-344.79 59.74,-355.36 66.88,-347.53 60.44,-344.79"/>
</a>
</g>
</g>
<!-- Node16 -->
<g id="Node000016" class="node">
<title>Node16</title>
<g id="a_Node000016"><a xlink:href="classMagick_1_1PathQuadraticCurvetoRel.html" target="_top" xlink:title=" ">
<polygon fill="white" stroke="#666666" points="327,-189.5 147,-189.5 147,-170.5 327,-170.5 327,-189.5"/>
<text text-anchor="middle" x="237" y="-177.5" font-family="Helvetica,sans-Serif" font-size="10.00">Magick::PathQuadraticCurvetoRel</text>
</a>
</g>
</g>
<!-- Node1&#45;&gt;Node16 -->
<g id="edge15_Node000001_Node000016" class="edge">
<title>Node1&#45;&gt;Node16</title>
<g id="a_edge15_Node000001_Node000016"><a xlink:title=" ">
<path fill="none" stroke="#63b8ff" d="M60.85,-345.24C70.58,-309.95 95.97,-236.33 146,-199 151.12,-195.18 156.84,-192.09 162.84,-189.59"/>
<polygon fill="#63b8ff" stroke="#63b8ff" points="57.37,-344.69 58.23,-355.25 64.14,-346.46 57.37,-344.69"/>
</a>
</g>
</g>
<!-- Node17 -->
<g id="Node000017" class="node">
<title>Node17</title>
<g id="a_Node000017"><a xlink:href="classMagick_1_1PathSmoothCurvetoAbs.html" target="_top" xlink:title=" ">
<polygon fill="white" stroke="#666666" points="323.5,-152.5 150.5,-152.5 150.5,-133.5 323.5,-133.5 323.5,-152.5"/>
<text text-anchor="middle" x="237" y="-140.5" font-family="Helvetica,sans-Serif" font-size="10.00">Magick::PathSmoothCurvetoAbs</text>
</a>
</g>
</g>
<!-- Node1&#45;&gt;Node17 -->
<g id="edge16_Node000001_Node000017" class="edge">
<title>Node1&#45;&gt;Node17</title>
<g id="a_edge16_Node000001_Node000017"><a xlink:title=" ">
<path fill="none" stroke="#63b8ff" d="M58.78,-344.94C65.6,-303.79 87.13,-209.68 146,-162 150.72,-158.18 156.01,-155.08 161.62,-152.56"/>
<polygon fill="#63b8ff" stroke="#63b8ff" points="55.29,-344.65 57.23,-355.06 62.21,-345.71 55.29,-344.65"/>
</a>
</g>
</g>
<!-- Node18 -->
<g id="Node000018" class="node">
<title>Node18</title>
<g id="a_Node000018"><a xlink:href="classMagick_1_1PathSmoothCurvetoRel.html" target="_top" xlink:title=" ">
<polygon fill="white" stroke="#666666" points="322,-115.5 152,-115.5 152,-96.5 322,-96.5 322,-115.5"/>
<text text-anchor="middle" x="237" y="-103.5" font-family="Helvetica,sans-Serif" font-size="10.00">Magick::PathSmoothCurvetoRel</text>
</a>
</g>
</g>
<!-- Node1&#45;&gt;Node18 -->
<g id="edge17_Node000001_Node000018" class="edge">
<title>Node1&#45;&gt;Node18</title>
<g id="a_edge17_Node000001_Node000018"><a xlink:title=" ">
<path fill="none" stroke="#63b8ff" d="M57.23,-345.22C61.22,-299.02 77.87,-183.56 146,-125 150.36,-121.25 155.27,-118.18 160.5,-115.68"/>
<polygon fill="#63b8ff" stroke="#63b8ff" points="53.73,-345.16 56.47,-355.39 60.71,-345.68 53.73,-345.16"/>
</a>
</g>
</g>
<!-- Node19 -->
<g id="Node000019" class="node">
<title>Node19</title>
<g id="a_Node000019"><a xlink:href="classMagick_1_1PathSmoothQuadraticCurvetoAbs.html" target="_top" xlink:title=" ">
<polygon fill="white" stroke="#666666" points="319,-78 155,-78 155,-48 319,-48 319,-78"/>
<text text-anchor="start" x="163" y="-66" font-family="Helvetica,sans-Serif" font-size="10.00">Magick::PathSmoothQuadratic</text>
<text text-anchor="middle" x="237" y="-55" font-family="Helvetica,sans-Serif" font-size="10.00">CurvetoAbs</text>
</a>
</g>
</g>
<!-- Node1&#45;&gt;Node19 -->
<g id="edge18_Node000001_Node000019" class="edge">
<title>Node1&#45;&gt;Node19</title>
<g id="a_edge18_Node000001_Node000019"><a xlink:title=" ">
<path fill="none" stroke="#63b8ff" d="M56.36,-345.3C58.4,-294.84 70.96,-159.87 146,-88 149.98,-84.19 154.49,-80.94 159.32,-78.19"/>
<polygon fill="#63b8ff" stroke="#63b8ff" points="52.86,-345.38 56.06,-355.48 59.86,-345.59 52.86,-345.38"/>
</a>
</g>
</g>
<!-- Node20 -->
<g id="Node000020" class="node">
<title>Node20</title>
<g id="a_Node000020"><a xlink:href="classMagick_1_1PathSmoothQuadraticCurvetoRel.html" target="_top" xlink:title=" ">
<polygon fill="white" stroke="#666666" points="319,-30 155,-30 155,0 319,0 319,-30"/>
<text text-anchor="start" x="163" y="-18" font-family="Helvetica,sans-Serif" font-size="10.00">Magick::PathSmoothQuadratic</text>
<text text-anchor="middle" x="237" y="-7" font-family="Helvetica,sans-Serif" font-size="10.00">CurvetoRel</text>
</a>
</g>
</g>
<!-- Node1&#45;&gt;Node20 -->
<g id="edge19_Node000001_Node000020" class="edge">
<title>Node1&#45;&gt;Node20</title>
<g id="a_edge19_Node000001_Node000020"><a xlink:title=" ">
<path fill="none" stroke="#63b8ff" d="M55.18,-345.26C53.99,-288.88 58.61,-125.62 146,-39 149.45,-35.58 153.32,-32.64 157.47,-30.1"/>
<polygon fill="#63b8ff" stroke="#63b8ff" points="51.69,-345.44 55.49,-355.33 58.68,-345.23 51.69,-345.44"/>
</a>
</g>
</g>
</g>
</svg>
