<?xml version="1.0" encoding="UTF-8" standalone="no"?>
<!DOCTYPE svg PUBLIC "-//W3C//DTD SVG 1.1//EN"
 "http://www.w3.org/Graphics/SVG/1.1/DTD/svg11.dtd">
<!-- Generated by graphviz version 2.43.0 (0)
 -->
<!-- Title: cxxopts::Options::add_option Pages: 1 -->
<svg width="958pt" height="455pt"
 viewBox="0.00 0.00 958.00 455.00" xmlns="http://www.w3.org/2000/svg" xmlns:xlink="http://www.w3.org/1999/xlink">
<g id="graph0" class="graph" transform="scale(1 1) rotate(0) translate(4 451)">
<title>cxxopts::Options::add_option</title>
<!-- Node1 -->
<g id="Node000001" class="node">
<title>Node1</title>
<g id="a_Node000001"><a xlink:title=" ">
<polygon fill="#999999" stroke="#666666" points="122,-54 0,-54 0,-24 122,-24 122,-54"/>
<text text-anchor="start" x="8" y="-42" font-family="Helvetica,sans-Serif" font-size="10.00">cxxopts::Options::add</text>
<text text-anchor="middle" x="61" y="-31" font-family="Helvetica,sans-Serif" font-size="10.00">_option</text>
</a>
</g>
</g>
<!-- Node2 -->
<g id="Node000002" class="node">
<title>Node2</title>
<g id="a_Node000002"><a xlink:href="classcxxopts_1_1Options.html#a95878aa582f2ed8e0a2b73e735eb287d" target="_top" xlink:title=" ">
<polygon fill="white" stroke="#666666" points="280,-54 158,-54 158,-24 280,-24 280,-54"/>
<text text-anchor="start" x="166" y="-42" font-family="Helvetica,sans-Serif" font-size="10.00">cxxopts::Options::add</text>
<text text-anchor="middle" x="219" y="-31" font-family="Helvetica,sans-Serif" font-size="10.00">_options</text>
</a>
</g>
</g>
<!-- Node1&#45;&gt;Node2 -->
<g id="edge1_Node000001_Node000002" class="edge">
<title>Node1&#45;&gt;Node2</title>
<g id="a_edge1_Node000001_Node000002"><a xlink:title=" ">
<path fill="none" stroke="#63b8ff" d="M122.31,-39C130.6,-39 139.17,-39 147.63,-39"/>
<polygon fill="#63b8ff" stroke="#63b8ff" points="147.85,-42.5 157.85,-39 147.85,-35.5 147.85,-42.5"/>
</a>
</g>
</g>
<!-- Node3 -->
<g id="Node000003" class="node">
<title>Node3</title>
<g id="a_Node000003"><a xlink:href="classcxxopts_1_1OptionAdder.html#a4feb747760c5fbaa807a4c8e1c335ac5" target="_top" xlink:title=" ">
<polygon fill="white" stroke="#666666" points="437,-78 316,-78 316,-48 437,-48 437,-78"/>
<text text-anchor="start" x="324" y="-66" font-family="Helvetica,sans-Serif" font-size="10.00">cxxopts::OptionAdder</text>
<text text-anchor="middle" x="376.5" y="-55" font-family="Helvetica,sans-Serif" font-size="10.00">::operator()</text>
</a>
</g>
</g>
<!-- Node2&#45;&gt;Node3 -->
<g id="edge2_Node000002_Node000003" class="edge">
<title>Node2&#45;&gt;Node3</title>
<g id="a_edge2_Node000002_Node000003"><a xlink:title=" ">
<path fill="none" stroke="#63b8ff" d="M280.12,-48.28C288.54,-49.58 297.24,-50.92 305.82,-52.24"/>
<polygon fill="#63b8ff" stroke="#63b8ff" points="305.38,-55.72 315.8,-53.79 306.45,-48.8 305.38,-55.72"/>
</a>
</g>
</g>
<!-- Node15 -->
<g id="Node000015" class="node">
<title>Node15</title>
<g id="a_Node000015"><a xlink:href="classcxxopts_1_1OptionAdder.html#ac9da55d72245e55eed70486200a60728" target="_top" xlink:title=" ">
<polygon fill="white" stroke="#666666" points="437,-30 316,-30 316,0 437,0 437,-30"/>
<text text-anchor="start" x="324" y="-18" font-family="Helvetica,sans-Serif" font-size="10.00">cxxopts::OptionAdder</text>
<text text-anchor="middle" x="376.5" y="-7" font-family="Helvetica,sans-Serif" font-size="10.00">::OptionAdder</text>
</a>
</g>
</g>
<!-- Node2&#45;&gt;Node15 -->
<g id="edge16_Node000002_Node000015" class="edge">
<title>Node2&#45;&gt;Node15</title>
<g id="a_edge16_Node000002_Node000015"><a xlink:title=" ">
<path fill="none" stroke="#63b8ff" d="M280.12,-29.72C288.54,-28.42 297.24,-27.08 305.82,-25.76"/>
<polygon fill="#63b8ff" stroke="#63b8ff" points="306.45,-29.2 315.8,-24.21 305.38,-22.28 306.45,-29.2"/>
</a>
</g>
</g>
<!-- Node4 -->
<g id="Node000004" class="node">
<title>Node4</title>
<g id="a_Node000004"><a xlink:href="classcxxopts_1_1Options.html#a353100b81684422664822103672a841a" target="_top" xlink:title=" ">
<polygon fill="white" stroke="#666666" points="605,-255 483,-255 483,-225 605,-225 605,-255"/>
<text text-anchor="start" x="491" y="-243" font-family="Helvetica,sans-Serif" font-size="10.00">cxxopts::Options::add</text>
<text text-anchor="middle" x="544" y="-232" font-family="Helvetica,sans-Serif" font-size="10.00">_option</text>
</a>
</g>
</g>
<!-- Node3&#45;&gt;Node4 -->
<g id="edge3_Node000003_Node000004" class="edge">
<title>Node3&#45;&gt;Node4</title>
<g id="a_edge3_Node000003_Node000004"><a xlink:title=" ">
<path fill="none" stroke="#63b8ff" d="M391.61,-78.09C420.68,-109.18 487.39,-180.52 521.72,-217.24"/>
<polygon fill="#63b8ff" stroke="#63b8ff" points="519.54,-220.03 528.93,-224.95 524.65,-215.25 519.54,-220.03"/>
</a>
</g>
</g>
<!-- Node6 -->
<g id="Node000006" class="node">
<title>Node6</title>
<g id="a_Node000006"><a xlink:href="namespacecxxopts.html#a466f47408560fa08e43bf48ec2366b22" target="_top" xlink:title=" ">
<polygon fill="white" stroke="#666666" points="950,-72.5 811,-72.5 811,-53.5 950,-53.5 950,-72.5"/>
<text text-anchor="middle" x="880.5" y="-60.5" font-family="Helvetica,sans-Serif" font-size="10.00">cxxopts::throw_or_mimic</text>
</a>
</g>
</g>
<!-- Node3&#45;&gt;Node6 -->
<g id="edge15_Node000003_Node000006" class="edge">
<title>Node3&#45;&gt;Node6</title>
<g id="a_edge15_Node000003_Node000006"><a xlink:title=" ">
<path fill="none" stroke="#63b8ff" d="M437.06,-63C527.58,-63 699.88,-63 800.68,-63"/>
<polygon fill="#63b8ff" stroke="#63b8ff" points="800.8,-66.5 810.8,-63 800.8,-59.5 800.8,-66.5"/>
</a>
</g>
</g>
<!-- Node14 -->
<g id="Node000014" class="node">
<title>Node14</title>
<g id="a_Node000014"><a xlink:href="namespacecxxopts_1_1values_1_1parser__tool.html#a3aaed7a5c0641e8eb84f2888ff499bbb" target="_top" xlink:title=" ">
<polygon fill="white" stroke="#666666" points="615,-35 473,-35 473,-5 615,-5 615,-35"/>
<text text-anchor="start" x="481" y="-23" font-family="Helvetica,sans-Serif" font-size="10.00">cxxopts::values::parser</text>
<text text-anchor="middle" x="544" y="-12" font-family="Helvetica,sans-Serif" font-size="10.00">_tool::split_option_names</text>
</a>
</g>
</g>
<!-- Node3&#45;&gt;Node14 -->
<g id="edge13_Node000003_Node000014" class="edge">
<title>Node3&#45;&gt;Node14</title>
<g id="a_edge13_Node000003_Node000014"><a xlink:title=" ">
<path fill="none" stroke="#63b8ff" d="M435.38,-47.96C448.23,-44.62 461.97,-41.05 475.17,-37.62"/>
<polygon fill="#63b8ff" stroke="#63b8ff" points="476.35,-40.93 485.15,-35.03 474.59,-34.16 476.35,-40.93"/>
</a>
</g>
</g>
<!-- Node5 -->
<g id="Node000005" class="node">
<title>Node5</title>
<g id="a_Node000005"><a xlink:href="classcxxopts_1_1Options.html#a6a7ca6845bfe17a801b0c3f229655f42" target="_top" xlink:title=" ">
<polygon fill="white" stroke="#666666" points="774,-447 652,-447 652,-417 774,-417 774,-447"/>
<text text-anchor="start" x="660" y="-435" font-family="Helvetica,sans-Serif" font-size="10.00">cxxopts::Options::add</text>
<text text-anchor="middle" x="713" y="-424" font-family="Helvetica,sans-Serif" font-size="10.00">_one_option</text>
</a>
</g>
</g>
<!-- Node4&#45;&gt;Node5 -->
<g id="edge4_Node000004_Node000005" class="edge">
<title>Node4&#45;&gt;Node5</title>
<g id="a_edge4_Node000004_Node000005"><a xlink:title=" ">
<path fill="none" stroke="#63b8ff" d="M550.76,-255.26C563.75,-287.77 598.4,-364.46 651,-408 652.55,-409.28 654.17,-410.5 655.85,-411.65"/>
<polygon fill="#63b8ff" stroke="#63b8ff" points="654.28,-414.79 664.65,-416.95 657.89,-408.8 654.28,-414.79"/>
</a>
</g>
</g>
<!-- Node7 -->
<g id="Node000007" class="node">
<title>Node7</title>
<g id="a_Node000007"><a xlink:href="classcxxopts_1_1Value.html#a25ac95c499771a6f5ca295e01452f380" target="_top" xlink:title=" ">
<polygon fill="white" stroke="#666666" points="767.5,-399 658.5,-399 658.5,-369 767.5,-369 767.5,-399"/>
<text text-anchor="start" x="666.5" y="-387" font-family="Helvetica,sans-Serif" font-size="10.00">cxxopts::Value::get</text>
<text text-anchor="middle" x="713" y="-376" font-family="Helvetica,sans-Serif" font-size="10.00">_default_value</text>
</a>
</g>
</g>
<!-- Node4&#45;&gt;Node7 -->
<g id="edge6_Node000004_Node000007" class="edge">
<title>Node4&#45;&gt;Node7</title>
<g id="a_edge6_Node000004_Node000007"><a xlink:title=" ">
<path fill="none" stroke="#63b8ff" d="M554.94,-255.36C571.88,-280.43 608.65,-330.34 651,-360 653.08,-361.46 655.26,-362.84 657.51,-364.16"/>
<polygon fill="#63b8ff" stroke="#63b8ff" points="655.97,-367.3 666.44,-368.88 659.24,-361.11 655.97,-367.3"/>
</a>
</g>
</g>
<!-- Node8 -->
<g id="Node000008" class="node">
<title>Node8</title>
<g id="a_Node000008"><a xlink:href="classcxxopts_1_1Value.html#a436f0a8a6621de420088839f4c728230" target="_top" xlink:title=" ">
<polygon fill="white" stroke="#666666" points="767.5,-351 658.5,-351 658.5,-321 767.5,-321 767.5,-351"/>
<text text-anchor="start" x="666.5" y="-339" font-family="Helvetica,sans-Serif" font-size="10.00">cxxopts::Value::get</text>
<text text-anchor="middle" x="713" y="-328" font-family="Helvetica,sans-Serif" font-size="10.00">_implicit_value</text>
</a>
</g>
</g>
<!-- Node4&#45;&gt;Node8 -->
<g id="edge7_Node000004_Node000008" class="edge">
<title>Node4&#45;&gt;Node8</title>
<g id="a_edge7_Node000004_Node000008"><a xlink:title=" ">
<path fill="none" stroke="#63b8ff" d="M564.49,-255.19C585.15,-270.81 619.13,-295.17 651,-312 654.11,-313.64 657.37,-315.24 660.68,-316.78"/>
<polygon fill="#63b8ff" stroke="#63b8ff" points="659.54,-320.1 670.1,-320.94 662.37,-313.7 659.54,-320.1"/>
</a>
</g>
</g>
<!-- Node9 -->
<g id="Node000009" class="node">
<title>Node9</title>
<g id="a_Node000009"><a xlink:href="classcxxopts_1_1Value.html#aac3233a0414ac39d54ed0b98365afc7e" target="_top" xlink:title=" ">
<polygon fill="white" stroke="#666666" points="768,-303 658,-303 658,-273 768,-273 768,-303"/>
<text text-anchor="start" x="666" y="-291" font-family="Helvetica,sans-Serif" font-size="10.00">cxxopts::Value::has</text>
<text text-anchor="middle" x="713" y="-280" font-family="Helvetica,sans-Serif" font-size="10.00">_default</text>
</a>
</g>
</g>
<!-- Node4&#45;&gt;Node9 -->
<g id="edge8_Node000004_Node000009" class="edge">
<title>Node4&#45;&gt;Node9</title>
<g id="a_edge8_Node000004_Node000009"><a xlink:title=" ">
<path fill="none" stroke="#63b8ff" d="M597.38,-255.06C614.01,-259.84 632.57,-265.17 649.82,-270.13"/>
<polygon fill="#63b8ff" stroke="#63b8ff" points="649.23,-273.6 659.8,-273 651.16,-266.87 649.23,-273.6"/>
</a>
</g>
</g>
<!-- Node10 -->
<g id="Node000010" class="node">
<title>Node10</title>
<g id="a_Node000010"><a xlink:href="classcxxopts_1_1Value.html#aac3425b87db8ef41157892449999b183" target="_top" xlink:title=" ">
<polygon fill="white" stroke="#666666" points="768,-255 658,-255 658,-225 768,-225 768,-255"/>
<text text-anchor="start" x="666" y="-243" font-family="Helvetica,sans-Serif" font-size="10.00">cxxopts::Value::has</text>
<text text-anchor="middle" x="713" y="-232" font-family="Helvetica,sans-Serif" font-size="10.00">_implicit</text>
</a>
</g>
</g>
<!-- Node4&#45;&gt;Node10 -->
<g id="edge9_Node000004_Node000010" class="edge">
<title>Node4&#45;&gt;Node10</title>
<g id="a_edge9_Node000004_Node000010"><a xlink:title=" ">
<path fill="none" stroke="#63b8ff" d="M605.29,-240C619.12,-240 633.88,-240 647.87,-240"/>
<polygon fill="#63b8ff" stroke="#63b8ff" points="647.9,-243.5 657.9,-240 647.9,-236.5 647.9,-243.5"/>
</a>
</g>
</g>
<!-- Node11 -->
<g id="Node000011" class="node">
<title>Node11</title>
<g id="a_Node000011"><a xlink:href="classcxxopts_1_1Value.html#a77a4a731bcbbd95afca43f82affe5aaa" target="_top" xlink:title=" ">
<polygon fill="white" stroke="#666666" points="763.5,-207 662.5,-207 662.5,-177 763.5,-177 763.5,-207"/>
<text text-anchor="start" x="670.5" y="-195" font-family="Helvetica,sans-Serif" font-size="10.00">cxxopts::Value::is</text>
<text text-anchor="middle" x="713" y="-184" font-family="Helvetica,sans-Serif" font-size="10.00">_boolean</text>
</a>
</g>
</g>
<!-- Node4&#45;&gt;Node11 -->
<g id="edge10_Node000004_Node000011" class="edge">
<title>Node4&#45;&gt;Node11</title>
<g id="a_edge10_Node000004_Node000011"><a xlink:title=" ">
<path fill="none" stroke="#63b8ff" d="M597.38,-224.94C614.9,-219.91 634.54,-214.26 652.55,-209.09"/>
<polygon fill="#63b8ff" stroke="#63b8ff" points="653.72,-212.39 662.37,-206.27 651.79,-205.66 653.72,-212.39"/>
</a>
</g>
</g>
<!-- Node12 -->
<g id="Node000012" class="node">
<title>Node12</title>
<g id="a_Node000012"><a xlink:href="classcxxopts_1_1Value.html#a632f3263dd598e30999a6bcff0652132" target="_top" xlink:title=" ">
<polygon fill="white" stroke="#666666" points="763.5,-159 662.5,-159 662.5,-129 763.5,-129 763.5,-159"/>
<text text-anchor="start" x="670.5" y="-147" font-family="Helvetica,sans-Serif" font-size="10.00">cxxopts::Value::is</text>
<text text-anchor="middle" x="713" y="-136" font-family="Helvetica,sans-Serif" font-size="10.00">_container</text>
</a>
</g>
</g>
<!-- Node4&#45;&gt;Node12 -->
<g id="edge11_Node000004_Node000012" class="edge">
<title>Node4&#45;&gt;Node12</title>
<g id="a_edge11_Node000004_Node000012"><a xlink:title=" ">
<path fill="none" stroke="#63b8ff" d="M564.49,-224.81C585.15,-209.19 619.13,-184.83 651,-168 654.11,-166.36 657.37,-164.76 660.68,-163.22"/>
<polygon fill="#63b8ff" stroke="#63b8ff" points="662.37,-166.3 670.1,-159.06 659.54,-159.9 662.37,-166.3"/>
</a>
</g>
</g>
<!-- Node13 -->
<g id="Node000013" class="node">
<title>Node13</title>
<g id="a_Node000013"><a xlink:href="namespacecxxopts.html#ac8ee50fdeb30245d157343a3bade9ede" target="_top" xlink:title=" ">
<polygon fill="white" stroke="#666666" points="775,-110.5 651,-110.5 651,-91.5 775,-91.5 775,-110.5"/>
<text text-anchor="middle" x="713" y="-98.5" font-family="Helvetica,sans-Serif" font-size="10.00">cxxopts::toLocalString</text>
</a>
</g>
</g>
<!-- Node4&#45;&gt;Node13 -->
<g id="edge12_Node000004_Node000013" class="edge">
<title>Node4&#45;&gt;Node13</title>
<g id="a_edge12_Node000004_Node000013"><a xlink:title=" ">
<path fill="none" stroke="#63b8ff" d="M554.44,-224.7C570.92,-199.26 607.37,-148.25 651,-120 654.17,-117.95 657.57,-116.11 661.08,-114.46"/>
<polygon fill="#63b8ff" stroke="#63b8ff" points="662.69,-117.58 670.59,-110.52 660.01,-111.12 662.69,-117.58"/>
</a>
</g>
</g>
<!-- Node5&#45;&gt;Node6 -->
<g id="edge5_Node000005_Node000006" class="edge">
<title>Node5&#45;&gt;Node6</title>
<g id="a_edge5_Node000005_Node000006"><a xlink:title=" ">
<path fill="none" stroke="#63b8ff" d="M764.11,-416.91C768.12,-414.38 771.84,-411.43 775,-408 864.12,-311.38 877.35,-141.08 879.22,-83.03"/>
<polygon fill="#63b8ff" stroke="#63b8ff" points="882.73,-82.77 879.47,-72.69 875.73,-82.61 882.73,-82.77"/>
</a>
</g>
</g>
<!-- Node14&#45;&gt;Node6 -->
<g id="edge14_Node000014_Node000006" class="edge">
<title>Node14&#45;&gt;Node6</title>
<g id="a_edge14_Node000014_Node000006"><a xlink:title=" ">
<path fill="none" stroke="#63b8ff" d="M615.23,-28.71C660.78,-34.4 721.42,-42.03 775,-49 783.35,-50.09 792.07,-51.23 800.77,-52.39"/>
<polygon fill="#63b8ff" stroke="#63b8ff" points="800.56,-55.89 810.93,-53.74 801.48,-48.95 800.56,-55.89"/>
</a>
</g>
</g>
</g>
</svg>
