<?xml version="1.0" encoding="UTF-8" standalone="no"?>
<!DOCTYPE svg PUBLIC "-//W3C//DTD SVG 1.1//EN"
 "http://www.w3.org/Graphics/SVG/1.1/DTD/svg11.dtd">
<!-- Generated by graphviz version 2.43.0 (0)
 -->
<!-- Title: basic_specs::upper Pages: 1 -->
<svg width="281pt" height="175pt"
 viewBox="0.00 0.00 281.00 175.00" xmlns="http://www.w3.org/2000/svg" xmlns:xlink="http://www.w3.org/1999/xlink">
<g id="graph0" class="graph" transform="scale(1 1) rotate(0) translate(4 171)">
<title>basic_specs::upper</title>
<!-- Node1 -->
<g id="Node000001" class="node">
<title>Node1</title>
<g id="a_Node000001"><a xlink:title=" ">
<polygon fill="#999999" stroke="#666666" points="273,-93 164,-93 164,-74 273,-74 273,-93"/>
<text text-anchor="middle" x="218.5" y="-81" font-family="Helvetica,sans-Serif" font-size="10.00">basic_specs::upper</text>
</a>
</g>
</g>
<!-- Node2 -->
<g id="Node000002" class="node">
<title>Node2</title>
<g id="a_Node000002"><a xlink:href="namespacedetail.html#af15358b6464bf066f4d6e03cb61dc36b" target="_top" xlink:title=" ">
<polygon fill="white" stroke="#666666" points="123.5,-167 4.5,-167 4.5,-148 123.5,-148 123.5,-167"/>
<text text-anchor="middle" x="64" y="-155" font-family="Helvetica,sans-Serif" font-size="10.00">detail::do_write_float</text>
</a>
</g>
</g>
<!-- Node1&#45;&gt;Node2 -->
<g id="edge1_Node000001_Node000002" class="edge">
<title>Node1&#45;&gt;Node2</title>
<g id="a_edge1_Node000001_Node000002"><a xlink:title=" ">
<path fill="none" stroke="#63b8ff" d="M196.45,-99.06C178.89,-111.44 152.81,-128.46 128,-139.5 120.73,-142.74 112.72,-145.55 104.92,-147.93"/>
<polygon fill="#63b8ff" stroke="#63b8ff" points="198.72,-101.74 204.8,-93.06 194.64,-96.05 198.72,-101.74"/>
</a>
</g>
</g>
<!-- Node3 -->
<g id="Node000003" class="node">
<title>Node3</title>
<g id="a_Node000003"><a xlink:href="namespacedetail.html#a718888554bf1561a88969b304e570395" target="_top" xlink:title=" ">
<polygon fill="white" stroke="#666666" points="128,-130 0,-130 0,-111 128,-111 128,-130"/>
<text text-anchor="middle" x="64" y="-118" font-family="Helvetica,sans-Serif" font-size="10.00">detail::format_hexfloat</text>
</a>
</g>
</g>
<!-- Node1&#45;&gt;Node3 -->
<g id="edge2_Node000001_Node000003" class="edge">
<title>Node1&#45;&gt;Node3</title>
<g id="a_edge2_Node000001_Node000003"><a xlink:title=" ">
<path fill="none" stroke="#63b8ff" d="M168.35,-95.43C147.66,-100.44 123.91,-106.21 104.4,-110.94"/>
<polygon fill="#63b8ff" stroke="#63b8ff" points="169.33,-98.79 178.23,-93.03 167.68,-91.98 169.33,-98.79"/>
</a>
</g>
</g>
<!-- Node4 -->
<g id="Node000004" class="node">
<title>Node4</title>
<g id="a_Node000004"><a xlink:href="namespacedetail.html#a53f64cca161818cc3e0d8ebce2a36335" target="_top" xlink:title=" ">
<polygon fill="white" stroke="#666666" points="110.5,-93 17.5,-93 17.5,-74 110.5,-74 110.5,-93"/>
<text text-anchor="middle" x="64" y="-81" font-family="Helvetica,sans-Serif" font-size="10.00">detail::write_int</text>
</a>
</g>
</g>
<!-- Node1&#45;&gt;Node4 -->
<g id="edge3_Node000001_Node000004" class="edge">
<title>Node1&#45;&gt;Node4</title>
<g id="a_edge3_Node000001_Node000004"><a xlink:title=" ">
<path fill="none" stroke="#63b8ff" d="M153.42,-83.5C139.07,-83.5 124.13,-83.5 110.7,-83.5"/>
<polygon fill="#63b8ff" stroke="#63b8ff" points="153.73,-87 163.73,-83.5 153.73,-80 153.73,-87"/>
</a>
</g>
</g>
<!-- Node5 -->
<g id="Node000005" class="node">
<title>Node5</title>
<g id="a_Node000005"><a xlink:href="namespacedetail.html#a4604c5f0e986ec57fd58b28697d303d8" target="_top" xlink:title=" ">
<polygon fill="white" stroke="#666666" points="110.5,-56 17.5,-56 17.5,-37 110.5,-37 110.5,-56"/>
<text text-anchor="middle" x="64" y="-44" font-family="Helvetica,sans-Serif" font-size="10.00">detail::write_int</text>
</a>
</g>
</g>
<!-- Node1&#45;&gt;Node5 -->
<g id="edge4_Node000001_Node000005" class="edge">
<title>Node1&#45;&gt;Node5</title>
<g id="a_edge4_Node000001_Node000005"><a xlink:title=" ">
<path fill="none" stroke="#63b8ff" d="M168.35,-71.57C147.66,-66.56 123.91,-60.79 104.4,-56.06"/>
<polygon fill="#63b8ff" stroke="#63b8ff" points="167.68,-75.02 178.23,-73.97 169.33,-68.21 167.68,-75.02"/>
</a>
</g>
</g>
<!-- Node6 -->
<g id="Node000006" class="node">
<title>Node6</title>
<g id="a_Node000006"><a xlink:href="namespacedetail.html#aa3fa8ab9788fc551cccea4630089449a" target="_top" xlink:title=" ">
<polygon fill="white" stroke="#666666" points="125.5,-19 2.5,-19 2.5,0 125.5,0 125.5,-19"/>
<text text-anchor="middle" x="64" y="-7" font-family="Helvetica,sans-Serif" font-size="10.00">detail::write_nonfinite</text>
</a>
</g>
</g>
<!-- Node1&#45;&gt;Node6 -->
<g id="edge5_Node000001_Node000006" class="edge">
<title>Node1&#45;&gt;Node6</title>
<g id="a_edge5_Node000001_Node000006"><a xlink:title=" ">
<path fill="none" stroke="#63b8ff" d="M196.06,-68.13C178.45,-56.06 152.51,-39.5 128,-28.5 119.98,-24.9 111.08,-21.74 102.56,-19.09"/>
<polygon fill="#63b8ff" stroke="#63b8ff" points="194.25,-71.13 204.45,-73.98 198.25,-65.39 194.25,-71.13"/>
</a>
</g>
</g>
</g>
</svg>
