<?xml version="1.0" encoding="UTF-8" standalone="no"?>
<!DOCTYPE svg PUBLIC "-//W3C//DTD SVG 1.1//EN"
 "http://www.w3.org/Graphics/SVG/1.1/DTD/svg11.dtd">
<!-- Generated by graphviz version 2.43.0 (0)
 -->
<!-- Title: basic_specs::set_localized Pages: 1 -->
<svg width="467pt" height="146pt"
 viewBox="0.00 0.00 467.00 146.00" xmlns="http://www.w3.org/2000/svg" xmlns:xlink="http://www.w3.org/1999/xlink">
<g id="graph0" class="graph" transform="scale(1 1) rotate(0) translate(4 142)">
<title>basic_specs::set_localized</title>
<!-- Node1 -->
<g id="Node000001" class="node">
<title>Node1</title>
<g id="a_Node000001"><a xlink:title=" ">
<polygon fill="#999999" stroke="#666666" points="459,-78.5 314,-78.5 314,-59.5 459,-59.5 459,-78.5"/>
<text text-anchor="middle" x="386.5" y="-66.5" font-family="Helvetica,sans-Serif" font-size="10.00">basic_specs::set_localized</text>
</a>
</g>
</g>
<!-- Node2 -->
<g id="Node000002" class="node">
<title>Node2</title>
<g id="a_Node000002"><a xlink:href="structformatter_3_01std_1_1tm_00_01Char_01_4.html#a129b6aab54742e2da9ec4555d18aadf0" target="_top" xlink:title=" ">
<polygon fill="white" stroke="#666666" points="269,-138 157,-138 157,-108 269,-108 269,-138"/>
<text text-anchor="start" x="165" y="-126" font-family="Helvetica,sans-Serif" font-size="10.00">formatter&lt; std::tm,</text>
<text text-anchor="middle" x="213" y="-115" font-family="Helvetica,sans-Serif" font-size="10.00"> Char &gt;::do_parse</text>
</a>
</g>
</g>
<!-- Node1&#45;&gt;Node2 -->
<g id="edge1_Node000001_Node000002" class="edge">
<title>Node1&#45;&gt;Node2</title>
<g id="a_edge1_Node000001_Node000002"><a xlink:title=" ">
<path fill="none" stroke="#63b8ff" d="M345.69,-81.54C320.64,-89.42 288.19,-99.64 261.76,-107.96"/>
<polygon fill="#63b8ff" stroke="#63b8ff" points="346.75,-84.87 355.23,-78.53 344.64,-78.19 346.75,-84.87"/>
</a>
</g>
</g>
<!-- Node4 -->
<g id="Node000004" class="node">
<title>Node4</title>
<g id="a_Node000004"><a xlink:href="structformatter_3_01std_1_1chrono_1_1duration_3_01Rep_00_01Period_01_4_00_01Char_01_4.html#acaf11fe44bb589d39da3151b44a28202" target="_top" xlink:title=" ">
<polygon fill="white" stroke="#666666" points="278,-89.5 148,-89.5 148,-48.5 278,-48.5 278,-89.5"/>
<text text-anchor="start" x="156" y="-77.5" font-family="Helvetica,sans-Serif" font-size="10.00">formatter&lt; std::chrono</text>
<text text-anchor="start" x="156" y="-66.5" font-family="Helvetica,sans-Serif" font-size="10.00">::duration&lt; Rep, Period</text>
<text text-anchor="middle" x="213" y="-55.5" font-family="Helvetica,sans-Serif" font-size="10.00"> &gt;, Char &gt;::parse</text>
</a>
</g>
</g>
<!-- Node1&#45;&gt;Node4 -->
<g id="edge3_Node000001_Node000004" class="edge">
<title>Node1&#45;&gt;Node4</title>
<g id="a_edge3_Node000001_Node000004"><a xlink:title=" ">
<path fill="none" stroke="#63b8ff" d="M303.71,-69C295.1,-69 286.44,-69 278.08,-69"/>
<polygon fill="#63b8ff" stroke="#63b8ff" points="303.76,-72.5 313.76,-69 303.76,-65.5 303.76,-72.5"/>
</a>
</g>
</g>
<!-- Node5 -->
<g id="Node000005" class="node">
<title>Node5</title>
<g id="a_Node000005"><a xlink:href="structformatter_3_01std_1_1tm_00_01Char_01_4.html#ad1294c6a216c8376276856f8afa32b63" target="_top" xlink:title=" ">
<polygon fill="white" stroke="#666666" points="274.5,-30 151.5,-30 151.5,0 274.5,0 274.5,-30"/>
<text text-anchor="start" x="159.5" y="-18" font-family="Helvetica,sans-Serif" font-size="10.00">formatter&lt; std::tm,</text>
<text text-anchor="middle" x="213" y="-7" font-family="Helvetica,sans-Serif" font-size="10.00"> Char &gt;::set_localized</text>
</a>
</g>
</g>
<!-- Node1&#45;&gt;Node5 -->
<g id="edge4_Node000001_Node000005" class="edge">
<title>Node1&#45;&gt;Node5</title>
<g id="a_edge4_Node000001_Node000005"><a xlink:title=" ">
<path fill="none" stroke="#63b8ff" d="M345.69,-56.46C320.64,-48.58 288.19,-38.36 261.76,-30.04"/>
<polygon fill="#63b8ff" stroke="#63b8ff" points="344.64,-59.81 355.23,-59.47 346.75,-53.13 344.64,-59.81"/>
</a>
</g>
</g>
<!-- Node3 -->
<g id="Node000003" class="node">
<title>Node3</title>
<g id="a_Node000003"><a xlink:href="structformatter_3_01std_1_1tm_00_01Char_01_4.html#adaabc9598d22ac90e7c169cced052324" target="_top" xlink:title=" ">
<polygon fill="white" stroke="#666666" points="112,-138 0,-138 0,-108 112,-108 112,-138"/>
<text text-anchor="start" x="8" y="-126" font-family="Helvetica,sans-Serif" font-size="10.00">formatter&lt; std::tm,</text>
<text text-anchor="middle" x="56" y="-115" font-family="Helvetica,sans-Serif" font-size="10.00"> Char &gt;::parse</text>
</a>
</g>
</g>
<!-- Node2&#45;&gt;Node3 -->
<g id="edge2_Node000002_Node000003" class="edge">
<title>Node2&#45;&gt;Node3</title>
<g id="a_edge2_Node000002_Node000003"><a xlink:title=" ">
<path fill="none" stroke="#63b8ff" d="M146.89,-123C135.34,-123 123.41,-123 112.17,-123"/>
<polygon fill="#63b8ff" stroke="#63b8ff" points="146.92,-126.5 156.92,-123 146.92,-119.5 146.92,-126.5"/>
</a>
</g>
</g>
</g>
</svg>
