<?xml version="1.0" encoding="UTF-8" standalone="no"?>
<!DOCTYPE svg PUBLIC "-//W3C//DTD SVG 1.1//EN"
 "http://www.w3.org/Graphics/SVG/1.1/DTD/svg11.dtd">
<!-- Generated by graphviz version 2.43.0 (0)
 -->
<!-- Title: loc_value Pages: 1 -->
<svg width="940pt" height="172pt"
 viewBox="0.00 0.00 940.00 171.50" xmlns="http://www.w3.org/2000/svg" xmlns:xlink="http://www.w3.org/1999/xlink">
<g id="graph0" class="graph" transform="scale(1 1) rotate(0) translate(4 167.5)">
<title>loc_value</title>
<!-- Node1 -->
<g id="Node000001" class="node">
<title>Node1</title>
<g id="a_Node000001"><a xlink:title=" ">
<polygon fill="#999999" stroke="#666666" points="932,-96.5 869,-96.5 869,-77.5 932,-77.5 932,-96.5"/>
<text text-anchor="middle" x="900.5" y="-84.5" font-family="Helvetica,sans-Serif" font-size="10.00">loc_value</text>
</a>
</g>
</g>
<!-- Node2 -->
<g id="Node000002" class="node">
<title>Node2</title>
<g id="a_Node000002"><a xlink:href="classbasic__format__arg.html" target="_top" xlink:title=" ">
<polygon fill="white" stroke="#666666" points="797,-96.5 636,-96.5 636,-77.5 797,-77.5 797,-96.5"/>
<text text-anchor="middle" x="716.5" y="-84.5" font-family="Helvetica,sans-Serif" font-size="10.00">basic_format_arg&lt; context &gt;</text>
</a>
</g>
</g>
<!-- Node2&#45;&gt;Node1 -->
<g id="edge1_Node000001_Node000002" class="edge">
<title>Node2&#45;&gt;Node1</title>
<g id="a_edge1_Node000001_Node000002"><a xlink:title=" ">
<path fill="none" stroke="#9a32cd" stroke-dasharray="5,2" d="M807.25,-87C829.46,-87 851.78,-87 868.9,-87"/>
<polygon fill="#9a32cd" stroke="#9a32cd" points="807.06,-83.5 797.06,-87 807.06,-90.5 807.06,-83.5"/>
</a>
</g>
<text text-anchor="middle" x="833" y="-90" font-family="Helvetica,sans-Serif" font-size="10.00" fill="grey"> value_</text>
</g>
<!-- Node3 -->
<g id="Node000003" class="node">
<title>Node3</title>
<g id="a_Node000003"><a xlink:href="classdetail_1_1value.html" target="_top" xlink:title=" ">
<polygon fill="white" stroke="#666666" points="564,-96.5 427,-96.5 427,-77.5 564,-77.5 564,-96.5"/>
<text text-anchor="middle" x="495.5" y="-84.5" font-family="Helvetica,sans-Serif" font-size="10.00">detail::value&lt; context &gt;</text>
</a>
</g>
</g>
<!-- Node3&#45;&gt;Node2 -->
<g id="edge2_Node000002_Node000003" class="edge">
<title>Node3&#45;&gt;Node2</title>
<g id="a_edge2_Node000002_Node000003"><a xlink:title=" ">
<path fill="none" stroke="#9a32cd" stroke-dasharray="5,2" d="M574.53,-87C594.4,-87 615.79,-87 635.74,-87"/>
<polygon fill="#9a32cd" stroke="#9a32cd" points="574.29,-83.5 564.29,-87 574.29,-90.5 574.29,-83.5"/>
</a>
</g>
<text text-anchor="middle" x="600" y="-90" font-family="Helvetica,sans-Serif" font-size="10.00" fill="grey"> value_</text>
</g>
<!-- Node4 -->
<g id="Node000004" class="node">
<title>Node4</title>
<g id="a_Node000004"><a xlink:href="structmonostate.html" target="_top" xlink:title=" ">
<polygon fill="white" stroke="#666666" points="293,-163.5 224,-163.5 224,-144.5 293,-144.5 293,-163.5"/>
<text text-anchor="middle" x="258.5" y="-151.5" font-family="Helvetica,sans-Serif" font-size="10.00">monostate</text>
</a>
</g>
</g>
<!-- Node4&#45;&gt;Node3 -->
<g id="edge3_Node000003_Node000004" class="edge">
<title>Node4&#45;&gt;Node3</title>
<g id="a_edge3_Node000003_Node000004"><a xlink:title=" ">
<path fill="none" stroke="#9a32cd" stroke-dasharray="5,2" d="M302.98,-143.9C332.94,-136.7 373.59,-126.49 409,-116 428.99,-110.08 451.29,-102.48 468.1,-96.55"/>
<polygon fill="#9a32cd" stroke="#9a32cd" points="302.17,-140.49 293.25,-146.22 303.79,-147.3 302.17,-140.49"/>
</a>
</g>
<text text-anchor="middle" x="377" y="-135" font-family="Helvetica,sans-Serif" font-size="10.00" fill="grey"> no_value</text>
</g>
<!-- Node5 -->
<g id="Node000005" class="node">
<title>Node5</title>
<g id="a_Node000005"><a xlink:href="structdetail_1_1string__value.html" target="_top" xlink:title=" ">
<polygon fill="white" stroke="#666666" points="313.5,-126 203.5,-126 203.5,-96 313.5,-96 313.5,-126"/>
<text text-anchor="start" x="211.5" y="-114" font-family="Helvetica,sans-Serif" font-size="10.00">detail::string_value</text>
<text text-anchor="middle" x="258.5" y="-103" font-family="Helvetica,sans-Serif" font-size="10.00">&lt; char_type &gt;</text>
</a>
</g>
</g>
<!-- Node5&#45;&gt;Node3 -->
<g id="edge4_Node000003_Node000005" class="edge">
<title>Node5&#45;&gt;Node3</title>
<g id="a_edge4_Node000003_Node000005"><a xlink:title=" ">
<path fill="none" stroke="#9a32cd" stroke-dasharray="5,2" d="M323.82,-104.43C355.74,-101.17 394.3,-97.23 426.68,-93.93"/>
<polygon fill="#9a32cd" stroke="#9a32cd" points="323.3,-100.97 313.71,-105.46 324.01,-107.93 323.3,-100.97"/>
</a>
</g>
<text text-anchor="middle" x="377" y="-104" font-family="Helvetica,sans-Serif" font-size="10.00" fill="grey"> string</text>
</g>
<!-- Node6 -->
<g id="Node000006" class="node">
<title>Node6</title>
<g id="a_Node000006"><a xlink:href="structdetail_1_1custom__value.html" target="_top" xlink:title=" ">
<polygon fill="white" stroke="#666666" points="318,-78 199,-78 199,-48 318,-48 318,-78"/>
<text text-anchor="start" x="207" y="-66" font-family="Helvetica,sans-Serif" font-size="10.00">detail::custom_value</text>
<text text-anchor="middle" x="258.5" y="-55" font-family="Helvetica,sans-Serif" font-size="10.00">&lt; context &gt;</text>
</a>
</g>
</g>
<!-- Node6&#45;&gt;Node3 -->
<g id="edge5_Node000003_Node000006" class="edge">
<title>Node6&#45;&gt;Node3</title>
<g id="a_edge5_Node000003_Node000006"><a xlink:title=" ">
<path fill="none" stroke="#9a32cd" stroke-dasharray="5,2" d="M328.5,-70.05C359.56,-73.22 396.11,-76.95 426.99,-80.11"/>
<polygon fill="#9a32cd" stroke="#9a32cd" points="328.5,-66.53 318.19,-68.99 327.79,-73.49 328.5,-66.53"/>
</a>
</g>
<text text-anchor="middle" x="377" y="-80" font-family="Helvetica,sans-Serif" font-size="10.00" fill="grey"> custom</text>
</g>
<!-- Node7 -->
<g id="Node000007" class="node">
<title>Node7</title>
<g id="a_Node000007"><a xlink:href="structdetail_1_1named__arg__value.html" target="_top" xlink:title=" ">
<polygon fill="white" stroke="#666666" points="327,-30 190,-30 190,0 327,0 327,-30"/>
<text text-anchor="start" x="198" y="-18" font-family="Helvetica,sans-Serif" font-size="10.00">detail::named_arg_value</text>
<text text-anchor="middle" x="258.5" y="-7" font-family="Helvetica,sans-Serif" font-size="10.00">&lt; char_type &gt;</text>
</a>
</g>
</g>
<!-- Node7&#45;&gt;Node3 -->
<g id="edge6_Node000003_Node000007" class="edge">
<title>Node7&#45;&gt;Node3</title>
<g id="a_edge6_Node000003_Node000007"><a xlink:title=" ">
<path fill="none" stroke="#9a32cd" stroke-dasharray="5,2" d="M325.95,-32.69C351.96,-39.87 381.98,-48.48 409,-57 429.1,-63.34 451.59,-71.27 468.45,-77.38"/>
<polygon fill="#9a32cd" stroke="#9a32cd" points="326.76,-29.29 316.19,-30.01 324.91,-36.04 326.76,-29.29"/>
</a>
</g>
<text text-anchor="middle" x="377" y="-60" font-family="Helvetica,sans-Serif" font-size="10.00" fill="grey"> named_args</text>
</g>
<!-- Node8 -->
<g id="Node000008" class="node">
<title>Node8</title>
<g id="a_Node000008"><a xlink:href="structdetail_1_1named__arg__info.html" target="_top" xlink:title=" ">
<polygon fill="white" stroke="#666666" points="129,-30 0,-30 0,0 129,0 129,-30"/>
<text text-anchor="start" x="8" y="-18" font-family="Helvetica,sans-Serif" font-size="10.00">detail::named_arg_info</text>
<text text-anchor="middle" x="64.5" y="-7" font-family="Helvetica,sans-Serif" font-size="10.00">&lt; char_type &gt;</text>
</a>
</g>
</g>
<!-- Node8&#45;&gt;Node7 -->
<g id="edge7_Node000007_Node000008" class="edge">
<title>Node8&#45;&gt;Node7</title>
<g id="a_edge7_Node000007_Node000008"><a xlink:title=" ">
<path fill="none" stroke="#9a32cd" stroke-dasharray="5,2" d="M139.34,-15C155.91,-15 173.41,-15 189.72,-15"/>
<polygon fill="#9a32cd" stroke="#9a32cd" points="139.17,-11.5 129.17,-15 139.17,-18.5 139.17,-11.5"/>
</a>
</g>
<text text-anchor="middle" x="159.5" y="-18" font-family="Helvetica,sans-Serif" font-size="10.00" fill="grey"> data</text>
</g>
</g>
</svg>
