<?xml version="1.0" encoding="UTF-8" standalone="no"?>
<!DOCTYPE svg PUBLIC "-//W3C//DTD SVG 1.1//EN"
 "http://www.w3.org/Graphics/SVG/1.1/DTD/svg11.dtd">
<!-- Generated by graphviz version 2.43.0 (0)
 -->
<!-- Title: LR11x0 Pages: 1 -->
<svg width="132pt" height="247pt"
 viewBox="0.00 0.00 132.00 247.00" xmlns="http://www.w3.org/2000/svg" xmlns:xlink="http://www.w3.org/1999/xlink">
<g id="graph0" class="graph" transform="scale(1 1) rotate(0) translate(4 243)">
<title>LR11x0</title>
<!-- Node1 -->
<g id="Node000001" class="node">
<title>Node1</title>
<g id="a_Node000001"><a xlink:title="Base class for LR11x0 series. All derived classes for LR11x0 (e.g. LR1110 or LR1120) inherit from thi...">
<polygon fill="#999999" stroke="#666666" points="88,-129 35,-129 35,-110 88,-110 88,-129"/>
<text text-anchor="middle" x="61.5" y="-117" font-family="Helvetica,sans-Serif" font-size="10.00">LR11x0</text>
</a>
</g>
</g>
<!-- Node4 -->
<g id="Node000004" class="node">
<title>Node4</title>
<g id="a_Node000004"><a xlink:href="classLR1110.html" target="_top" xlink:title="Derived class for LR1110 modules.">
<polygon fill="white" stroke="#666666" points="53,-74 0,-74 0,-55 53,-55 53,-74"/>
<text text-anchor="middle" x="26.5" y="-62" font-family="Helvetica,sans-Serif" font-size="10.00">LR1110</text>
</a>
</g>
</g>
<!-- Node1&#45;&gt;Node4 -->
<g id="edge3_Node000001_Node000004" class="edge">
<title>Node1&#45;&gt;Node4</title>
<g id="a_edge3_Node000001_Node000004"><a xlink:title=" ">
<path fill="none" stroke="#63b8ff" d="M50.2,-101.39C44.18,-92.27 37.03,-81.45 32.17,-74.09"/>
<polygon fill="#63b8ff" stroke="#63b8ff" points="47.29,-103.33 55.72,-109.75 53.13,-99.47 47.29,-103.33"/>
</a>
</g>
</g>
<!-- Node5 -->
<g id="Node000005" class="node">
<title>Node5</title>
<g id="a_Node000005"><a xlink:href="classLR1120.html" target="_top" xlink:title="Derived class for LR1120 modules.">
<polygon fill="white" stroke="#666666" points="124,-74 71,-74 71,-55 124,-55 124,-74"/>
<text text-anchor="middle" x="97.5" y="-62" font-family="Helvetica,sans-Serif" font-size="10.00">LR1120</text>
</a>
</g>
</g>
<!-- Node1&#45;&gt;Node5 -->
<g id="edge4_Node000001_Node000005" class="edge">
<title>Node1&#45;&gt;Node5</title>
<g id="a_edge4_Node000001_Node000005"><a xlink:title=" ">
<path fill="none" stroke="#63b8ff" d="M73.12,-101.39C79.32,-92.27 86.67,-81.45 91.67,-74.09"/>
<polygon fill="#63b8ff" stroke="#63b8ff" points="70.17,-99.51 67.44,-109.75 75.96,-103.44 70.17,-99.51"/>
</a>
</g>
</g>
<!-- Node2 -->
<g id="Node000002" class="node">
<title>Node2</title>
<g id="a_Node000002"><a xlink:href="classLRxxxx.html" target="_top" xlink:title=" ">
<polygon fill="white" stroke="#666666" points="88,-184 35,-184 35,-165 88,-165 88,-184"/>
<text text-anchor="middle" x="61.5" y="-172" font-family="Helvetica,sans-Serif" font-size="10.00">LRxxxx</text>
</a>
</g>
</g>
<!-- Node2&#45;&gt;Node1 -->
<g id="edge1_Node000001_Node000002" class="edge">
<title>Node2&#45;&gt;Node1</title>
<g id="a_edge1_Node000001_Node000002"><a xlink:title=" ">
<path fill="none" stroke="#63b8ff" d="M61.5,-154.66C61.5,-145.93 61.5,-135.99 61.5,-129.09"/>
<polygon fill="#63b8ff" stroke="#63b8ff" points="58,-154.75 61.5,-164.75 65,-154.75 58,-154.75"/>
</a>
</g>
</g>
<!-- Node3 -->
<g id="Node000003" class="node">
<title>Node3</title>
<g id="a_Node000003"><a xlink:href="classPhysicalLayer.html" target="_top" xlink:title="Provides common interface for protocols that run on LoRa/FSK modules, such as RTTY or LoRaWAN....">
<polygon fill="white" stroke="#666666" points="103.5,-239 19.5,-239 19.5,-220 103.5,-220 103.5,-239"/>
<text text-anchor="middle" x="61.5" y="-227" font-family="Helvetica,sans-Serif" font-size="10.00">PhysicalLayer</text>
</a>
</g>
</g>
<!-- Node3&#45;&gt;Node2 -->
<g id="edge2_Node000002_Node000003" class="edge">
<title>Node3&#45;&gt;Node2</title>
<g id="a_edge2_Node000002_Node000003"><a xlink:title=" ">
<path fill="none" stroke="#63b8ff" d="M61.5,-209.66C61.5,-200.93 61.5,-190.99 61.5,-184.09"/>
<polygon fill="#63b8ff" stroke="#63b8ff" points="58,-209.75 61.5,-219.75 65,-209.75 58,-209.75"/>
</a>
</g>
</g>
<!-- Node6 -->
<g id="Node000006" class="node">
<title>Node6</title>
<g id="a_Node000006"><a xlink:href="classLR1121.html" target="_top" xlink:title="Derived class for LR1121 modules.">
<polygon fill="white" stroke="#666666" points="124,-19 71,-19 71,0 124,0 124,-19"/>
<text text-anchor="middle" x="97.5" y="-7" font-family="Helvetica,sans-Serif" font-size="10.00">LR1121</text>
</a>
</g>
</g>
<!-- Node5&#45;&gt;Node6 -->
<g id="edge5_Node000005_Node000006" class="edge">
<title>Node5&#45;&gt;Node6</title>
<g id="a_edge5_Node000005_Node000006"><a xlink:title=" ">
<path fill="none" stroke="#63b8ff" d="M97.5,-44.66C97.5,-35.93 97.5,-25.99 97.5,-19.09"/>
<polygon fill="#63b8ff" stroke="#63b8ff" points="94,-44.75 97.5,-54.75 101,-44.75 94,-44.75"/>
</a>
</g>
</g>
</g>
</svg>
