<?xml version="1.0" encoding="UTF-8" standalone="no"?>
<!DOCTYPE svg PUBLIC "-//W3C//DTD SVG 1.1//EN"
 "http://www.w3.org/Graphics/SVG/1.1/DTD/svg11.dtd">
<!-- Generated by graphviz version 2.43.0 (0)
 -->
<!-- Title: Magick::Warning Pages: 1 -->
<svg width="585pt" height="693pt"
 viewBox="0.00 0.00 585.00 693.00" xmlns="http://www.w3.org/2000/svg" xmlns:xlink="http://www.w3.org/1999/xlink">
<g id="graph0" class="graph" transform="scale(1 1) rotate(0) translate(4 689)">
<title>Magick::Warning</title>
<!-- Node1 -->
<g id="Node000001" class="node">
<title>Node1</title>
<g id="a_Node000001"><a xlink:title=" ">
<polygon fill="#999999" stroke="#666666" points="362,-352 264,-352 264,-333 362,-333 362,-352"/>
<text text-anchor="middle" x="313" y="-340" font-family="Helvetica,sans-Serif" font-size="10.00">Magick::Warning</text>
</a>
</g>
</g>
<!-- Node4 -->
<g id="Node000004" class="node">
<title>Node4</title>
<g id="a_Node000004"><a xlink:href="classMagick_1_1WarningBlob.html" target="_top" xlink:title=" ">
<polygon fill="white" stroke="#666666" points="547,-685 428,-685 428,-666 547,-666 547,-685"/>
<text text-anchor="middle" x="487.5" y="-673" font-family="Helvetica,sans-Serif" font-size="10.00">Magick::WarningBlob</text>
</a>
</g>
</g>
<!-- Node1&#45;&gt;Node4 -->
<g id="edge3_Node000001_Node000004" class="edge">
<title>Node1&#45;&gt;Node4</title>
<g id="a_edge3_Node000001_Node000004"><a xlink:title=" ">
<path fill="none" stroke="#63b8ff" d="M316.52,-362.06C324.92,-424.3 353.98,-616.04 398,-657.5 406.22,-665.24 416.81,-670.05 427.8,-672.97"/>
<polygon fill="#63b8ff" stroke="#63b8ff" points="319.97,-361.47 315.19,-352.02 313.03,-362.39 319.97,-361.47"/>
</a>
</g>
</g>
<!-- Node5 -->
<g id="Node000005" class="node">
<title>Node5</title>
<g id="a_Node000005"><a xlink:href="classMagick_1_1WarningCache.html" target="_top" xlink:title=" ">
<polygon fill="white" stroke="#666666" points="551.5,-648 423.5,-648 423.5,-629 551.5,-629 551.5,-648"/>
<text text-anchor="middle" x="487.5" y="-636" font-family="Helvetica,sans-Serif" font-size="10.00">Magick::WarningCache</text>
</a>
</g>
</g>
<!-- Node1&#45;&gt;Node5 -->
<g id="edge4_Node000001_Node000005" class="edge">
<title>Node1&#45;&gt;Node5</title>
<g id="a_edge4_Node000001_Node000005"><a xlink:title=" ">
<path fill="none" stroke="#63b8ff" d="M313.58,-362.22C313.63,-413.26 321.26,-550.57 398,-620.5 405.19,-627.05 414.08,-631.48 423.44,-634.44"/>
<polygon fill="#63b8ff" stroke="#63b8ff" points="317.08,-362.22 313.67,-352.19 310.08,-362.15 317.08,-362.22"/>
</a>
</g>
</g>
<!-- Node6 -->
<g id="Node000006" class="node">
<title>Node6</title>
<g id="a_Node000006"><a xlink:href="classMagick_1_1WarningCoder.html" target="_top" xlink:title=" ">
<polygon fill="white" stroke="#666666" points="550.5,-611 424.5,-611 424.5,-592 550.5,-592 550.5,-611"/>
<text text-anchor="middle" x="487.5" y="-599" font-family="Helvetica,sans-Serif" font-size="10.00">Magick::WarningCoder</text>
</a>
</g>
</g>
<!-- Node1&#45;&gt;Node6 -->
<g id="edge5_Node000001_Node000006" class="edge">
<title>Node1&#45;&gt;Node6</title>
<g id="a_edge5_Node000001_Node000006"><a xlink:title=" ">
<path fill="none" stroke="#63b8ff" d="M314.64,-362.36C317.28,-408.73 330.63,-524.65 398,-583.5 405.44,-590 414.58,-594.39 424.13,-597.31"/>
<polygon fill="#63b8ff" stroke="#63b8ff" points="318.13,-361.98 314.18,-352.15 311.14,-362.3 318.13,-361.98"/>
</a>
</g>
</g>
<!-- Node7 -->
<g id="Node000007" class="node">
<title>Node7</title>
<g id="a_Node000007"><a xlink:href="classMagick_1_1WarningConfigure.html" target="_top" xlink:title=" ">
<polygon fill="white" stroke="#666666" points="559.5,-574 415.5,-574 415.5,-555 559.5,-555 559.5,-574"/>
<text text-anchor="middle" x="487.5" y="-562" font-family="Helvetica,sans-Serif" font-size="10.00">Magick::WarningConfigure</text>
</a>
</g>
</g>
<!-- Node1&#45;&gt;Node7 -->
<g id="edge6_Node000001_Node000007" class="edge">
<title>Node1&#45;&gt;Node7</title>
<g id="a_edge6_Node000001_Node000007"><a xlink:title=" ">
<path fill="none" stroke="#63b8ff" d="M316.02,-362.08C321.36,-403.12 339.7,-498.34 398,-546.5 403.2,-550.79 409.15,-554.15 415.45,-556.77"/>
<polygon fill="#63b8ff" stroke="#63b8ff" points="319.48,-361.55 314.84,-352.03 312.53,-362.37 319.48,-361.55"/>
</a>
</g>
</g>
<!-- Node8 -->
<g id="Node000008" class="node">
<title>Node8</title>
<g id="a_Node000008"><a xlink:href="classMagick_1_1WarningCorruptImage.html" target="_top" xlink:title=" ">
<polygon fill="white" stroke="#666666" points="569.5,-537 405.5,-537 405.5,-518 569.5,-518 569.5,-537"/>
<text text-anchor="middle" x="487.5" y="-525" font-family="Helvetica,sans-Serif" font-size="10.00">Magick::WarningCorruptImage</text>
</a>
</g>
</g>
<!-- Node1&#45;&gt;Node8 -->
<g id="edge7_Node000001_Node000008" class="edge">
<title>Node1&#45;&gt;Node8</title>
<g id="a_edge7_Node000001_Node000008"><a xlink:title=" ">
<path fill="none" stroke="#63b8ff" d="M318.05,-362.39C326.38,-397.89 348.91,-471.97 398,-509.5 402.36,-512.83 407.18,-515.59 412.26,-517.87"/>
<polygon fill="#63b8ff" stroke="#63b8ff" points="321.4,-361.32 315.83,-352.31 314.56,-362.83 321.4,-361.32"/>
</a>
</g>
</g>
<!-- Node9 -->
<g id="Node000009" class="node">
<title>Node9</title>
<g id="a_Node000009"><a xlink:href="classMagick_1_1WarningDelegate.html" target="_top" xlink:title=" ">
<polygon fill="white" stroke="#666666" points="558.5,-500 416.5,-500 416.5,-481 558.5,-481 558.5,-500"/>
<text text-anchor="middle" x="487.5" y="-488" font-family="Helvetica,sans-Serif" font-size="10.00">Magick::WarningDelegate</text>
</a>
</g>
</g>
<!-- Node1&#45;&gt;Node9 -->
<g id="edge8_Node000001_Node000009" class="edge">
<title>Node1&#45;&gt;Node9</title>
<g id="a_edge8_Node000001_Node000009"><a xlink:title=" ">
<path fill="none" stroke="#63b8ff" d="M320.77,-361.62C332.03,-390.51 357.48,-444.84 398,-472.5 403.57,-476.3 409.76,-479.33 416.22,-481.75"/>
<polygon fill="#63b8ff" stroke="#63b8ff" points="324.03,-360.37 317.26,-352.23 317.48,-362.82 324.03,-360.37"/>
</a>
</g>
</g>
<!-- Node10 -->
<g id="Node000010" class="node">
<title>Node10</title>
<g id="a_Node000010"><a xlink:href="classMagick_1_1WarningDraw.html" target="_top" xlink:title=" ">
<polygon fill="white" stroke="#666666" points="549,-463 426,-463 426,-444 549,-444 549,-463"/>
<text text-anchor="middle" x="487.5" y="-451" font-family="Helvetica,sans-Serif" font-size="10.00">Magick::WarningDraw</text>
</a>
</g>
</g>
<!-- Node1&#45;&gt;Node10 -->
<g id="edge9_Node000001_Node000010" class="edge">
<title>Node1&#45;&gt;Node10</title>
<g id="a_edge9_Node000001_Node000010"><a xlink:title=" ">
<path fill="none" stroke="#63b8ff" d="M325.23,-360.78C339.42,-382.23 365.9,-417.19 398,-435.5 406.44,-440.32 415.99,-443.86 425.61,-446.45"/>
<polygon fill="#63b8ff" stroke="#63b8ff" points="328.1,-358.78 319.76,-352.24 322.21,-362.55 328.1,-358.78"/>
</a>
</g>
</g>
<!-- Node11 -->
<g id="Node000011" class="node">
<title>Node11</title>
<g id="a_Node000011"><a xlink:href="classMagick_1_1WarningFileOpen.html" target="_top" xlink:title=" ">
<polygon fill="white" stroke="#666666" points="557.5,-426 417.5,-426 417.5,-407 557.5,-407 557.5,-426"/>
<text text-anchor="middle" x="487.5" y="-414" font-family="Helvetica,sans-Serif" font-size="10.00">Magick::WarningFileOpen</text>
</a>
</g>
</g>
<!-- Node1&#45;&gt;Node11 -->
<g id="edge10_Node000001_Node000011" class="edge">
<title>Node1&#45;&gt;Node11</title>
<g id="a_edge10_Node000001_Node000011"><a xlink:title=" ">
<path fill="none" stroke="#63b8ff" d="M333.28,-358.54C349.55,-371.26 373.97,-388.5 398,-398.5 406.11,-401.87 414.9,-404.63 423.7,-406.88"/>
<polygon fill="#63b8ff" stroke="#63b8ff" points="335.13,-355.54 325.14,-352.02 330.76,-361 335.13,-355.54"/>
</a>
</g>
</g>
<!-- Node12 -->
<g id="Node000012" class="node">
<title>Node12</title>
<g id="a_Node000012"><a xlink:href="classMagick_1_1WarningImage.html" target="_top" xlink:title=" ">
<polygon fill="white" stroke="#666666" points="551.5,-389 423.5,-389 423.5,-370 551.5,-370 551.5,-389"/>
<text text-anchor="middle" x="487.5" y="-377" font-family="Helvetica,sans-Serif" font-size="10.00">Magick::WarningImage</text>
</a>
</g>
</g>
<!-- Node1&#45;&gt;Node12 -->
<g id="edge11_Node000001_Node000012" class="edge">
<title>Node1&#45;&gt;Node12</title>
<g id="a_edge11_Node000001_Node000012"><a xlink:title=" ">
<path fill="none" stroke="#63b8ff" d="M365.16,-354.26C376,-356.7 387.37,-359.22 398,-361.5 411.18,-364.33 425.5,-367.29 438.69,-369.97"/>
<polygon fill="#63b8ff" stroke="#63b8ff" points="365.93,-350.84 355.4,-352.05 364.39,-357.67 365.93,-350.84"/>
</a>
</g>
</g>
<!-- Node13 -->
<g id="Node000013" class="node">
<title>Node13</title>
<g id="a_Node000013"><a xlink:href="classMagick_1_1WarningMissingDelegate.html" target="_top" xlink:title=" ">
<polygon fill="white" stroke="#666666" points="577,-352 398,-352 398,-333 577,-333 577,-352"/>
<text text-anchor="middle" x="487.5" y="-340" font-family="Helvetica,sans-Serif" font-size="10.00">Magick::WarningMissingDelegate</text>
</a>
</g>
</g>
<!-- Node1&#45;&gt;Node13 -->
<g id="edge12_Node000001_Node000013" class="edge">
<title>Node1&#45;&gt;Node13</title>
<g id="a_edge12_Node000001_Node000013"><a xlink:title=" ">
<path fill="none" stroke="#63b8ff" d="M372.25,-342.5C380.49,-342.5 389.1,-342.5 397.76,-342.5"/>
<polygon fill="#63b8ff" stroke="#63b8ff" points="372.05,-339 362.05,-342.5 372.05,-346 372.05,-339"/>
</a>
</g>
</g>
<!-- Node14 -->
<g id="Node000014" class="node">
<title>Node14</title>
<g id="a_Node000014"><a xlink:href="classMagick_1_1WarningModule.html" target="_top" xlink:title=" ">
<polygon fill="white" stroke="#666666" points="554.5,-315 420.5,-315 420.5,-296 554.5,-296 554.5,-315"/>
<text text-anchor="middle" x="487.5" y="-303" font-family="Helvetica,sans-Serif" font-size="10.00">Magick::WarningModule</text>
</a>
</g>
</g>
<!-- Node1&#45;&gt;Node14 -->
<g id="edge13_Node000001_Node000014" class="edge">
<title>Node1&#45;&gt;Node14</title>
<g id="a_edge13_Node000001_Node000014"><a xlink:title=" ">
<path fill="none" stroke="#63b8ff" d="M365.16,-330.74C376,-328.3 387.37,-325.78 398,-323.5 411.18,-320.67 425.5,-317.71 438.69,-315.03"/>
<polygon fill="#63b8ff" stroke="#63b8ff" points="364.39,-327.33 355.4,-332.95 365.93,-334.16 364.39,-327.33"/>
</a>
</g>
</g>
<!-- Node15 -->
<g id="Node000015" class="node">
<title>Node15</title>
<g id="a_Node000015"><a xlink:href="classMagick_1_1WarningMonitor.html" target="_top" xlink:title=" ">
<polygon fill="white" stroke="#666666" points="555,-278 420,-278 420,-259 555,-259 555,-278"/>
<text text-anchor="middle" x="487.5" y="-266" font-family="Helvetica,sans-Serif" font-size="10.00">Magick::WarningMonitor</text>
</a>
</g>
</g>
<!-- Node1&#45;&gt;Node15 -->
<g id="edge14_Node000001_Node000015" class="edge">
<title>Node1&#45;&gt;Node15</title>
<g id="a_edge14_Node000001_Node000015"><a xlink:title=" ">
<path fill="none" stroke="#63b8ff" d="M333.28,-326.46C349.55,-313.74 373.97,-296.5 398,-286.5 406.11,-283.13 414.9,-280.37 423.7,-278.12"/>
<polygon fill="#63b8ff" stroke="#63b8ff" points="330.76,-324 325.14,-332.98 335.13,-329.46 330.76,-324"/>
</a>
</g>
</g>
<!-- Node16 -->
<g id="Node000016" class="node">
<title>Node16</title>
<g id="a_Node000016"><a xlink:href="classMagick_1_1WarningOption.html" target="_top" xlink:title=" ">
<polygon fill="white" stroke="#666666" points="552.5,-241 422.5,-241 422.5,-222 552.5,-222 552.5,-241"/>
<text text-anchor="middle" x="487.5" y="-229" font-family="Helvetica,sans-Serif" font-size="10.00">Magick::WarningOption</text>
</a>
</g>
</g>
<!-- Node1&#45;&gt;Node16 -->
<g id="edge15_Node000001_Node000016" class="edge">
<title>Node1&#45;&gt;Node16</title>
<g id="a_edge15_Node000001_Node000016"><a xlink:title=" ">
<path fill="none" stroke="#63b8ff" d="M325.23,-324.22C339.42,-302.77 365.9,-267.81 398,-249.5 405.49,-245.23 413.85,-241.96 422.35,-239.46"/>
<polygon fill="#63b8ff" stroke="#63b8ff" points="322.21,-322.45 319.76,-332.76 328.1,-326.22 322.21,-322.45"/>
</a>
</g>
</g>
<!-- Node17 -->
<g id="Node000017" class="node">
<title>Node17</title>
<g id="a_Node000017"><a xlink:href="classMagick_1_1WarningRegistry.html" target="_top" xlink:title=" ">
<polygon fill="white" stroke="#666666" points="556.5,-204 418.5,-204 418.5,-185 556.5,-185 556.5,-204"/>
<text text-anchor="middle" x="487.5" y="-192" font-family="Helvetica,sans-Serif" font-size="10.00">Magick::WarningRegistry</text>
</a>
</g>
</g>
<!-- Node1&#45;&gt;Node17 -->
<g id="edge16_Node000001_Node000017" class="edge">
<title>Node1&#45;&gt;Node17</title>
<g id="a_edge16_Node000001_Node000017"><a xlink:title=" ">
<path fill="none" stroke="#63b8ff" d="M320.77,-323.38C332.03,-294.49 357.48,-240.16 398,-212.5 404.22,-208.26 411.21,-204.97 418.48,-202.44"/>
<polygon fill="#63b8ff" stroke="#63b8ff" points="317.48,-322.18 317.26,-332.77 324.03,-324.63 317.48,-322.18"/>
</a>
</g>
</g>
<!-- Node18 -->
<g id="Node000018" class="node">
<title>Node18</title>
<g id="a_Node000018"><a xlink:href="classMagick_1_1WarningResourceLimit.html" target="_top" xlink:title=" ">
<polygon fill="white" stroke="#666666" points="571,-167 404,-167 404,-148 571,-148 571,-167"/>
<text text-anchor="middle" x="487.5" y="-155" font-family="Helvetica,sans-Serif" font-size="10.00">Magick::WarningResourceLimit</text>
</a>
</g>
</g>
<!-- Node1&#45;&gt;Node18 -->
<g id="edge17_Node000001_Node000018" class="edge">
<title>Node1&#45;&gt;Node18</title>
<g id="a_edge17_Node000001_Node000018"><a xlink:title=" ">
<path fill="none" stroke="#63b8ff" d="M318.05,-322.61C326.38,-287.11 348.91,-213.03 398,-175.5 402.36,-172.17 407.18,-169.41 412.26,-167.13"/>
<polygon fill="#63b8ff" stroke="#63b8ff" points="314.56,-322.17 315.83,-332.69 321.4,-323.68 314.56,-322.17"/>
</a>
</g>
</g>
<!-- Node19 -->
<g id="Node000019" class="node">
<title>Node19</title>
<g id="a_Node000019"><a xlink:href="classMagick_1_1WarningStream.html" target="_top" xlink:title=" ">
<polygon fill="white" stroke="#666666" points="554,-130 421,-130 421,-111 554,-111 554,-130"/>
<text text-anchor="middle" x="487.5" y="-118" font-family="Helvetica,sans-Serif" font-size="10.00">Magick::WarningStream</text>
</a>
</g>
</g>
<!-- Node1&#45;&gt;Node19 -->
<g id="edge18_Node000001_Node000019" class="edge">
<title>Node1&#45;&gt;Node19</title>
<g id="a_edge18_Node000001_Node000019"><a xlink:title=" ">
<path fill="none" stroke="#63b8ff" d="M316.02,-322.92C321.36,-281.88 339.7,-186.66 398,-138.5 404.65,-133.01 412.53,-129.04 420.8,-126.21"/>
<polygon fill="#63b8ff" stroke="#63b8ff" points="312.53,-322.63 314.84,-332.97 319.48,-323.45 312.53,-322.63"/>
</a>
</g>
</g>
<!-- Node20 -->
<g id="Node000020" class="node">
<title>Node20</title>
<g id="a_Node000020"><a xlink:href="classMagick_1_1WarningType.html" target="_top" xlink:title=" ">
<polygon fill="white" stroke="#666666" points="547.5,-93 427.5,-93 427.5,-74 547.5,-74 547.5,-93"/>
<text text-anchor="middle" x="487.5" y="-81" font-family="Helvetica,sans-Serif" font-size="10.00">Magick::WarningType</text>
</a>
</g>
</g>
<!-- Node1&#45;&gt;Node20 -->
<g id="edge19_Node000001_Node000020" class="edge">
<title>Node1&#45;&gt;Node20</title>
<g id="a_edge19_Node000001_Node000020"><a xlink:title=" ">
<path fill="none" stroke="#63b8ff" d="M314.64,-322.64C317.28,-276.27 330.63,-160.35 398,-101.5 406.27,-94.28 416.63,-89.66 427.32,-86.76"/>
<polygon fill="#63b8ff" stroke="#63b8ff" points="311.14,-322.7 314.18,-332.85 318.13,-323.02 311.14,-322.7"/>
</a>
</g>
</g>
<!-- Node21 -->
<g id="Node000021" class="node">
<title>Node21</title>
<g id="a_Node000021"><a xlink:href="classMagick_1_1WarningUndefined.html" target="_top" xlink:title=" ">
<polygon fill="white" stroke="#666666" points="561,-56 414,-56 414,-37 561,-37 561,-56"/>
<text text-anchor="middle" x="487.5" y="-44" font-family="Helvetica,sans-Serif" font-size="10.00">Magick::WarningUndefined</text>
</a>
</g>
</g>
<!-- Node1&#45;&gt;Node21 -->
<g id="edge20_Node000001_Node000021" class="edge">
<title>Node1&#45;&gt;Node21</title>
<g id="a_edge20_Node000001_Node000021"><a xlink:title=" ">
<path fill="none" stroke="#63b8ff" d="M313.58,-322.78C313.63,-271.74 321.26,-134.43 398,-64.5 402.64,-60.28 407.98,-56.93 413.71,-54.3"/>
<polygon fill="#63b8ff" stroke="#63b8ff" points="310.08,-322.85 313.67,-332.81 317.08,-322.78 310.08,-322.85"/>
</a>
</g>
</g>
<!-- Node22 -->
<g id="Node000022" class="node">
<title>Node22</title>
<g id="a_Node000022"><a xlink:href="classMagick_1_1WarningXServer.html" target="_top" xlink:title=" ">
<polygon fill="white" stroke="#666666" points="555.5,-19 419.5,-19 419.5,0 555.5,0 555.5,-19"/>
<text text-anchor="middle" x="487.5" y="-7" font-family="Helvetica,sans-Serif" font-size="10.00">Magick::WarningXServer</text>
</a>
</g>
</g>
<!-- Node1&#45;&gt;Node22 -->
<g id="edge21_Node000001_Node000022" class="edge">
<title>Node1&#45;&gt;Node22</title>
<g id="a_edge21_Node000001_Node000022"><a xlink:title=" ">
<path fill="none" stroke="#63b8ff" d="M316.52,-322.94C324.92,-260.7 353.98,-68.96 398,-27.5 404.05,-21.8 411.39,-17.69 419.22,-14.76"/>
<polygon fill="#63b8ff" stroke="#63b8ff" points="313.03,-322.61 315.19,-332.98 319.97,-323.53 313.03,-322.61"/>
</a>
</g>
</g>
<!-- Node2 -->
<g id="Node000002" class="node">
<title>Node2</title>
<g id="a_Node000002"><a xlink:href="classMagick_1_1Exception.html" target="_top" xlink:title=" ">
<polygon fill="white" stroke="#666666" points="228,-352 122,-352 122,-333 228,-333 228,-352"/>
<text text-anchor="middle" x="175" y="-340" font-family="Helvetica,sans-Serif" font-size="10.00">Magick::Exception</text>
</a>
</g>
</g>
<!-- Node2&#45;&gt;Node1 -->
<g id="edge1_Node000001_Node000002" class="edge">
<title>Node2&#45;&gt;Node1</title>
<g id="a_edge1_Node000001_Node000002"><a xlink:title=" ">
<path fill="none" stroke="#63b8ff" d="M238.46,-342.5C246.95,-342.5 255.55,-342.5 263.74,-342.5"/>
<polygon fill="#63b8ff" stroke="#63b8ff" points="238.19,-339 228.19,-342.5 238.19,-346 238.19,-339"/>
</a>
</g>
</g>
<!-- Node3 -->
<g id="Node000003" class="node">
<title>Node3</title>
<g id="a_Node000003"><a xlink:title=" ">
<polygon fill="white" stroke="#666666" points="86,-352 0,-352 0,-333 86,-333 86,-352"/>
<text text-anchor="middle" x="43" y="-340" font-family="Helvetica,sans-Serif" font-size="10.00">std::exception</text>
</a>
</g>
</g>
<!-- Node3&#45;&gt;Node2 -->
<g id="edge2_Node000002_Node000003" class="edge">
<title>Node3&#45;&gt;Node2</title>
<g id="a_edge2_Node000002_Node000003"><a xlink:title=" ">
<path fill="none" stroke="#63b8ff" d="M96.48,-342.5C104.74,-342.5 113.28,-342.5 121.54,-342.5"/>
<polygon fill="#63b8ff" stroke="#63b8ff" points="96.21,-339 86.21,-342.5 96.21,-346 96.21,-339"/>
</a>
</g>
</g>
</g>
</svg>
