<?xml version="1.0" encoding="UTF-8" standalone="no"?>
<!DOCTYPE svg PUBLIC "-//W3C//DTD SVG 1.1//EN"
 "http://www.w3.org/Graphics/SVG/1.1/DTD/svg11.dtd">
<!-- Generated by graphviz version 2.43.0 (0)
 -->
<!-- Title: cxxopts::exceptions::requested_option_not_present Pages: 1 -->
<svg width="136pt" height="236pt"
 viewBox="0.00 0.00 136.00 236.00" xmlns="http://www.w3.org/2000/svg" xmlns:xlink="http://www.w3.org/1999/xlink">
<g id="graph0" class="graph" transform="scale(1 1) rotate(0) translate(4 232)">
<title>cxxopts::exceptions::requested_option_not_present</title>
<!-- Node1 -->
<g id="Node000001" class="node">
<title>Node1</title>
<g id="a_Node000001"><a xlink:title=" ">
<polygon fill="#999999" stroke="#666666" points="128,-41 0,-41 0,0 128,0 128,-41"/>
<text text-anchor="start" x="8" y="-29" font-family="Helvetica,sans-Serif" font-size="10.00">cxxopts::exceptions</text>
<text text-anchor="start" x="8" y="-18" font-family="Helvetica,sans-Serif" font-size="10.00">::requested_option_not</text>
<text text-anchor="middle" x="64" y="-7" font-family="Helvetica,sans-Serif" font-size="10.00">_present</text>
</a>
</g>
</g>
<!-- Node2 -->
<g id="Node000002" class="node">
<title>Node2</title>
<g id="a_Node000002"><a xlink:href="classcxxopts_1_1exceptions_1_1parsing.html" target="_top" xlink:title=" ">
<polygon fill="white" stroke="#666666" points="120.5,-107 7.5,-107 7.5,-77 120.5,-77 120.5,-107"/>
<text text-anchor="start" x="15.5" y="-95" font-family="Helvetica,sans-Serif" font-size="10.00">cxxopts::exceptions</text>
<text text-anchor="middle" x="64" y="-84" font-family="Helvetica,sans-Serif" font-size="10.00">::parsing</text>
</a>
</g>
</g>
<!-- Node2&#45;&gt;Node1 -->
<g id="edge1_Node000001_Node000002" class="edge">
<title>Node2&#45;&gt;Node1</title>
<g id="a_edge1_Node000001_Node000002"><a xlink:title=" ">
<path fill="none" stroke="#63b8ff" d="M64,-66.91C64,-58.47 64,-49.1 64,-41.07"/>
<polygon fill="#63b8ff" stroke="#63b8ff" points="60.5,-66.94 64,-76.94 67.5,-66.94 60.5,-66.94"/>
</a>
</g>
</g>
<!-- Node3 -->
<g id="Node000003" class="node">
<title>Node3</title>
<g id="a_Node000003"><a xlink:href="classcxxopts_1_1exceptions_1_1exception.html" target="_top" xlink:title=" ">
<polygon fill="white" stroke="#666666" points="120.5,-173 7.5,-173 7.5,-143 120.5,-143 120.5,-173"/>
<text text-anchor="start" x="15.5" y="-161" font-family="Helvetica,sans-Serif" font-size="10.00">cxxopts::exceptions</text>
<text text-anchor="middle" x="64" y="-150" font-family="Helvetica,sans-Serif" font-size="10.00">::exception</text>
</a>
</g>
</g>
<!-- Node3&#45;&gt;Node2 -->
<g id="edge2_Node000002_Node000003" class="edge">
<title>Node3&#45;&gt;Node2</title>
<g id="a_edge2_Node000002_Node000003"><a xlink:title=" ">
<path fill="none" stroke="#63b8ff" d="M64,-132.54C64,-123.96 64,-114.61 64,-107.16"/>
<polygon fill="#63b8ff" stroke="#63b8ff" points="60.5,-132.8 64,-142.8 67.5,-132.8 60.5,-132.8"/>
</a>
</g>
</g>
<!-- Node4 -->
<g id="Node000004" class="node">
<title>Node4</title>
<g id="a_Node000004"><a xlink:title=" ">
<polygon fill="white" stroke="#666666" points="107,-228 21,-228 21,-209 107,-209 107,-228"/>
<text text-anchor="middle" x="64" y="-216" font-family="Helvetica,sans-Serif" font-size="10.00">std::exception</text>
</a>
</g>
</g>
<!-- Node4&#45;&gt;Node3 -->
<g id="edge3_Node000003_Node000004" class="edge">
<title>Node4&#45;&gt;Node3</title>
<g id="a_edge3_Node000003_Node000004"><a xlink:title=" ">
<path fill="none" stroke="#63b8ff" d="M64,-198.65C64,-190.36 64,-180.78 64,-173.11"/>
<polygon fill="#63b8ff" stroke="#63b8ff" points="60.5,-198.87 64,-208.87 67.5,-198.87 60.5,-198.87"/>
</a>
</g>
</g>
</g>
</svg>
