<?xml version="1.0" encoding="UTF-8" standalone="no"?>
<!DOCTYPE svg PUBLIC "-//W3C//DTD SVG 1.1//EN"
 "http://www.w3.org/Graphics/SVG/1.1/DTD/svg11.dtd">
<!-- Generated by graphviz version 2.43.0 (0)
 -->
<!-- Title: cxxopts::OptionValue::parse_default Pages: 1 -->
<svg width="608pt" height="124pt"
 viewBox="0.00 0.00 608.00 123.50" xmlns="http://www.w3.org/2000/svg" xmlns:xlink="http://www.w3.org/1999/xlink">
<g id="graph0" class="graph" transform="scale(1 1) rotate(0) translate(4 119.5)">
<title>cxxopts::OptionValue::parse_default</title>
<!-- Node1 -->
<g id="Node000001" class="node">
<title>Node1</title>
<g id="a_Node000001"><a xlink:title=" ">
<polygon fill="#999999" stroke="#666666" points="119,-67.5 0,-67.5 0,-37.5 119,-37.5 119,-67.5"/>
<text text-anchor="start" x="8" y="-55.5" font-family="Helvetica,sans-Serif" font-size="10.00">cxxopts::OptionValue</text>
<text text-anchor="middle" x="59.5" y="-44.5" font-family="Helvetica,sans-Serif" font-size="10.00">::parse_default</text>
</a>
</g>
</g>
<!-- Node2 -->
<g id="Node000002" class="node">
<title>Node2</title>
<g id="a_Node000002"><a xlink:href="classcxxopts_1_1OptionValue.html#a5e62e7e64679e627ba8946c36a559f2a" target="_top" xlink:title=" ">
<polygon fill="white" stroke="#666666" points="278,-115.5 159,-115.5 159,-85.5 278,-85.5 278,-115.5"/>
<text text-anchor="start" x="167" y="-103.5" font-family="Helvetica,sans-Serif" font-size="10.00">cxxopts::OptionValue</text>
<text text-anchor="middle" x="218.5" y="-92.5" font-family="Helvetica,sans-Serif" font-size="10.00">::ensure_value</text>
</a>
</g>
</g>
<!-- Node1&#45;&gt;Node2 -->
<g id="edge1_Node000001_Node000002" class="edge">
<title>Node1&#45;&gt;Node2</title>
<g id="a_edge1_Node000001_Node000002"><a xlink:title=" ">
<path fill="none" stroke="#63b8ff" d="M109.75,-67.56C125.24,-72.29 142.5,-77.57 158.59,-82.49"/>
<polygon fill="#63b8ff" stroke="#63b8ff" points="157.84,-85.92 168.43,-85.5 159.89,-79.23 157.84,-85.92"/>
</a>
</g>
</g>
<!-- Node5 -->
<g id="Node000005" class="node">
<title>Node5</title>
<g id="a_Node000005"><a xlink:href="classcxxopts_1_1OptionDetails.html#a1b61b4570ee040ce1b9fc6e358e08b2d" target="_top" xlink:title=" ">
<polygon fill="white" stroke="#666666" points="282,-67.5 155,-67.5 155,-37.5 282,-37.5 282,-67.5"/>
<text text-anchor="start" x="163" y="-55.5" font-family="Helvetica,sans-Serif" font-size="10.00">cxxopts::OptionDetails</text>
<text text-anchor="middle" x="218.5" y="-44.5" font-family="Helvetica,sans-Serif" font-size="10.00">::long_names</text>
</a>
</g>
</g>
<!-- Node1&#45;&gt;Node5 -->
<g id="edge4_Node000001_Node000005" class="edge">
<title>Node1&#45;&gt;Node5</title>
<g id="a_edge4_Node000001_Node000005"><a xlink:title=" ">
<path fill="none" stroke="#63b8ff" d="M119.41,-52.5C127.63,-52.5 136.17,-52.5 144.62,-52.5"/>
<polygon fill="#63b8ff" stroke="#63b8ff" points="144.85,-56 154.85,-52.5 144.85,-49 144.85,-56"/>
</a>
</g>
</g>
<!-- Node6 -->
<g id="Node000006" class="node">
<title>Node6</title>
<g id="a_Node000006"><a xlink:href="classcxxopts_1_1Value.html#a9246a55e299ea5ef34346af46977fab4" target="_top" xlink:title=" ">
<polygon fill="white" stroke="#666666" points="278.5,-19 158.5,-19 158.5,0 278.5,0 278.5,-19"/>
<text text-anchor="middle" x="218.5" y="-7" font-family="Helvetica,sans-Serif" font-size="10.00">cxxopts::Value::parse</text>
</a>
</g>
</g>
<!-- Node1&#45;&gt;Node6 -->
<g id="edge5_Node000001_Node000006" class="edge">
<title>Node1&#45;&gt;Node6</title>
<g id="a_edge5_Node000001_Node000006"><a xlink:title=" ">
<path fill="none" stroke="#63b8ff" d="M115.41,-37.46C134.04,-32.36 154.62,-26.72 172.39,-21.85"/>
<polygon fill="#63b8ff" stroke="#63b8ff" points="173.78,-25.1 182.5,-19.09 171.93,-18.35 173.78,-25.1"/>
</a>
</g>
</g>
<!-- Node3 -->
<g id="Node000003" class="node">
<title>Node3</title>
<g id="a_Node000003"><a xlink:href="classcxxopts_1_1OptionDetails.html#a3ff160262711ae6eebb41649491e75e6" target="_top" xlink:title=" ">
<polygon fill="white" stroke="#666666" points="445,-115.5 318,-115.5 318,-85.5 445,-85.5 445,-115.5"/>
<text text-anchor="start" x="326" y="-103.5" font-family="Helvetica,sans-Serif" font-size="10.00">cxxopts::OptionDetails</text>
<text text-anchor="middle" x="381.5" y="-92.5" font-family="Helvetica,sans-Serif" font-size="10.00">::make_storage</text>
</a>
</g>
</g>
<!-- Node2&#45;&gt;Node3 -->
<g id="edge2_Node000002_Node000003" class="edge">
<title>Node2&#45;&gt;Node3</title>
<g id="a_edge2_Node000002_Node000003"><a xlink:title=" ">
<path fill="none" stroke="#63b8ff" d="M278.08,-100.5C287.69,-100.5 297.75,-100.5 307.65,-100.5"/>
<polygon fill="#63b8ff" stroke="#63b8ff" points="307.89,-104 317.89,-100.5 307.89,-97 307.89,-104"/>
</a>
</g>
</g>
<!-- Node4 -->
<g id="Node000004" class="node">
<title>Node4</title>
<g id="a_Node000004"><a xlink:href="classcxxopts_1_1Value.html#a17916d6a48e57c999c2dc23fa6b22539" target="_top" xlink:title=" ">
<polygon fill="white" stroke="#666666" points="600,-110 481,-110 481,-91 600,-91 600,-110"/>
<text text-anchor="middle" x="540.5" y="-98" font-family="Helvetica,sans-Serif" font-size="10.00">cxxopts::Value::clone</text>
</a>
</g>
</g>
<!-- Node3&#45;&gt;Node4 -->
<g id="edge3_Node000003_Node000004" class="edge">
<title>Node3&#45;&gt;Node4</title>
<g id="a_edge3_Node000003_Node000004"><a xlink:title=" ">
<path fill="none" stroke="#63b8ff" d="M445,-100.5C453.39,-100.5 462.04,-100.5 470.53,-100.5"/>
<polygon fill="#63b8ff" stroke="#63b8ff" points="470.79,-104 480.79,-100.5 470.79,-97 470.79,-104"/>
</a>
</g>
</g>
</g>
</svg>
