<?xml version="1.0" encoding="UTF-8" standalone="no"?>
<!DOCTYPE svg PUBLIC "-//W3C//DTD SVG 1.1//EN"
 "http://www.w3.org/Graphics/SVG/1.1/DTD/svg11.dtd">
<!-- Generated by graphviz version 2.43.0 (0)
 -->
<!-- Title: detail::tm_writer::on_dec1_week_of_year Pages: 1 -->
<svg width="279pt" height="134pt"
 viewBox="0.00 0.00 279.00 134.00" xmlns="http://www.w3.org/2000/svg" xmlns:xlink="http://www.w3.org/1999/xlink">
<g id="graph0" class="graph" transform="scale(1 1) rotate(0) translate(4 130)">
<title>detail::tm_writer::on_dec1_week_of_year</title>
<!-- Node1 -->
<g id="Node000001" class="node">
<title>Node1</title>
<g id="a_Node000001"><a xlink:title=" ">
<polygon fill="#999999" stroke="#666666" points="131,-78 0,-78 0,-48 131,-48 131,-78"/>
<text text-anchor="start" x="8" y="-66" font-family="Helvetica,sans-Serif" font-size="10.00">detail::tm_writer::</text>
<text text-anchor="middle" x="65.5" y="-55" font-family="Helvetica,sans-Serif" font-size="10.00">on_dec1_week_of_year</text>
</a>
</g>
</g>
<!-- Node2 -->
<g id="Node000002" class="node">
<title>Node2</title>
<g id="a_Node000002"><a xlink:href="classdetail_1_1tm__writer.html#ab8f9095299300945a550e457b970f763" target="_top" xlink:title=" ">
<polygon fill="white" stroke="#666666" points="271,-126 167,-126 167,-96 271,-96 271,-126"/>
<text text-anchor="start" x="175" y="-114" font-family="Helvetica,sans-Serif" font-size="10.00">detail::tm_writer::</text>
<text text-anchor="middle" x="219" y="-103" font-family="Helvetica,sans-Serif" font-size="10.00">format_localized</text>
</a>
</g>
</g>
<!-- Node1&#45;&gt;Node2 -->
<g id="edge1_Node000001_Node000002" class="edge">
<title>Node1&#45;&gt;Node2</title>
<g id="a_edge1_Node000001_Node000002"><a xlink:title=" ">
<path fill="none" stroke="#63b8ff" d="M114.02,-78.06C128.83,-82.75 145.31,-87.97 160.71,-92.85"/>
<polygon fill="#63b8ff" stroke="#63b8ff" points="160.06,-96.31 170.65,-96 162.17,-89.64 160.06,-96.31"/>
</a>
</g>
</g>
<!-- Node3 -->
<g id="Node000003" class="node">
<title>Node3</title>
<g id="a_Node000003"><a xlink:href="classdetail_1_1tm__writer.html#a1b267d2dee9041f4858847d49d87dabf" target="_top" xlink:title=" ">
<polygon fill="white" stroke="#666666" points="271,-78 167,-78 167,-48 271,-48 271,-78"/>
<text text-anchor="start" x="175" y="-66" font-family="Helvetica,sans-Serif" font-size="10.00">detail::tm_writer::</text>
<text text-anchor="middle" x="219" y="-55" font-family="Helvetica,sans-Serif" font-size="10.00">tm_wday</text>
</a>
</g>
</g>
<!-- Node1&#45;&gt;Node3 -->
<g id="edge2_Node000001_Node000003" class="edge">
<title>Node1&#45;&gt;Node3</title>
<g id="a_edge2_Node000001_Node000003"><a xlink:title=" ">
<path fill="none" stroke="#63b8ff" d="M131.19,-63C139.65,-63 148.3,-63 156.71,-63"/>
<polygon fill="#63b8ff" stroke="#63b8ff" points="156.8,-66.5 166.8,-63 156.8,-59.5 156.8,-66.5"/>
</a>
</g>
</g>
<!-- Node4 -->
<g id="Node000004" class="node">
<title>Node4</title>
<g id="a_Node000004"><a xlink:href="classdetail_1_1tm__writer.html#ad3f344b40cfb8d03c73022000f799c72" target="_top" xlink:title=" ">
<polygon fill="white" stroke="#666666" points="271,-30 167,-30 167,0 271,0 271,-30"/>
<text text-anchor="start" x="175" y="-18" font-family="Helvetica,sans-Serif" font-size="10.00">detail::tm_writer::</text>
<text text-anchor="middle" x="219" y="-7" font-family="Helvetica,sans-Serif" font-size="10.00">tm_yday</text>
</a>
</g>
</g>
<!-- Node1&#45;&gt;Node4 -->
<g id="edge3_Node000001_Node000004" class="edge">
<title>Node1&#45;&gt;Node4</title>
<g id="a_edge3_Node000001_Node000004"><a xlink:title=" ">
<path fill="none" stroke="#63b8ff" d="M114.02,-47.94C128.83,-43.25 145.31,-38.03 160.71,-33.15"/>
<polygon fill="#63b8ff" stroke="#63b8ff" points="162.17,-36.36 170.65,-30 160.06,-29.69 162.17,-36.36"/>
</a>
</g>
</g>
</g>
</svg>
