<?xml version="1.0" encoding="UTF-8" standalone="no"?>
<!DOCTYPE svg PUBLIC "-//W3C//DTD SVG 1.1//EN"
 "http://www.w3.org/Graphics/SVG/1.1/DTD/svg11.dtd">
<!-- Generated by graphviz version 2.43.0 (0)
 -->
<!-- Title: detail::iterator_buffer&lt; OutputIt, T, Traits &gt; Pages: 1 -->
<svg width="295pt" height="160pt"
 viewBox="0.00 0.00 294.50 160.00" xmlns="http://www.w3.org/2000/svg" xmlns:xlink="http://www.w3.org/1999/xlink">
<g id="graph0" class="graph" transform="scale(1 1) rotate(0) translate(4 156)">
<title>detail::iterator_buffer&lt; OutputIt, T, Traits &gt;</title>
<!-- Node1 -->
<g id="Node000001" class="node">
<title>Node1</title>
<g id="a_Node000001"><a xlink:title=" ">
<polygon fill="#999999" stroke="#666666" points="128.5,-30 5.5,-30 5.5,0 128.5,0 128.5,-30"/>
<text text-anchor="start" x="13.5" y="-18" font-family="Helvetica,sans-Serif" font-size="10.00">detail::iterator_buffer</text>
<text text-anchor="middle" x="67" y="-7" font-family="Helvetica,sans-Serif" font-size="10.00">&lt; OutputIt, T, Traits &gt;</text>
</a>
</g>
</g>
<!-- Node2 -->
<g id="Node000002" class="node">
<title>Node2</title>
<g id="a_Node000002"><a xlink:href="structdetail_1_1buffer__traits.html" target="_top" xlink:title=" ">
<polygon fill="white" stroke="#666666" points="110,-86 0,-86 0,-67 110,-67 110,-86"/>
<text text-anchor="middle" x="55" y="-74" font-family="Helvetica,sans-Serif" font-size="10.00">detail::buffer_traits</text>
</a>
</g>
</g>
<!-- Node2&#45;&gt;Node1 -->
<g id="edge1_Node000001_Node000002" class="edge">
<title>Node2&#45;&gt;Node1</title>
<g id="a_edge1_Node000001_Node000002"><a xlink:title=" ">
<path fill="none" stroke="#63b8ff" d="M58.73,-57.03C60.48,-48.31 62.55,-38.09 64.17,-30.02"/>
<polygon fill="#63b8ff" stroke="#63b8ff" points="55.27,-56.48 56.72,-66.98 62.13,-57.86 55.27,-56.48"/>
</a>
</g>
</g>
<!-- Node3 -->
<g id="Node000003" class="node">
<title>Node3</title>
<g id="a_Node000003"><a xlink:href="classdetail_1_1buffer.html" target="_top" xlink:title=" ">
<polygon fill="white" stroke="#666666" points="235.5,-86 128.5,-86 128.5,-67 235.5,-67 235.5,-86"/>
<text text-anchor="middle" x="182" y="-74" font-family="Helvetica,sans-Serif" font-size="10.00">detail::buffer&lt; T &gt;</text>
</a>
</g>
</g>
<!-- Node3&#45;&gt;Node1 -->
<g id="edge2_Node000001_Node000003" class="edge">
<title>Node3&#45;&gt;Node1</title>
<g id="a_edge2_Node000001_Node000003"><a xlink:title=" ">
<path fill="none" stroke="#63b8ff" d="M156.5,-62.31C137.99,-52.73 112.98,-39.79 94.1,-30.02"/>
<polygon fill="#63b8ff" stroke="#63b8ff" points="155.03,-65.49 165.52,-66.98 158.25,-59.27 155.03,-65.49"/>
</a>
</g>
</g>
<!-- Node4 -->
<g id="Node000004" class="node">
<title>Node4</title>
<g id="a_Node000004"><a xlink:href="classdetail_1_1buffer.html" target="_top" xlink:title=" ">
<polygon fill="white" stroke="#666666" points="235.5,-152 128.5,-152 128.5,-133 235.5,-133 235.5,-152"/>
<text text-anchor="middle" x="182" y="-140" font-family="Helvetica,sans-Serif" font-size="10.00">detail::buffer&lt; T &gt;</text>
</a>
</g>
</g>
<!-- Node4&#45;&gt;Node3 -->
<g id="edge3_Node000003_Node000004" class="edge">
<title>Node4&#45;&gt;Node3</title>
<g id="a_edge3_Node000003_Node000004"><a xlink:title=" ">
<path fill="none" stroke="#9a32cd" stroke-dasharray="5,2" d="M182,-122.58C182,-110.63 182,-95.72 182,-86.41"/>
<polygon fill="#9a32cd" stroke="#9a32cd" points="178.5,-122.87 182,-132.87 185.5,-122.87 178.5,-122.87"/>
</a>
</g>
<text text-anchor="middle" x="198.5" y="-107" font-family="Helvetica,sans-Serif" font-size="10.00" fill="grey"> grow_</text>
</g>
<!-- Node4&#45;&gt;Node4 -->
<g id="edge4_Node000004_Node000004" class="edge">
<title>Node4&#45;&gt;Node4</title>
<g id="a_edge4_Node000004_Node000004"><a xlink:title=" ">
<path fill="none" stroke="#9a32cd" stroke-dasharray="5,2" d="M245.88,-146.96C250.6,-145.96 253.5,-144.47 253.5,-142.5 253.5,-139.34 246.08,-137.43 235.63,-136.77"/>
<polygon fill="#9a32cd" stroke="#9a32cd" points="245.12,-143.53 235.63,-148.23 245.99,-150.47 245.12,-143.53"/>
</a>
</g>
<text text-anchor="middle" x="270" y="-140" font-family="Helvetica,sans-Serif" font-size="10.00" fill="grey"> grow_</text>
</g>
</g>
</svg>
