<?xml version="1.0" encoding="UTF-8" standalone="no"?>
<!DOCTYPE svg PUBLIC "-//W3C//DTD SVG 1.1//EN"
 "http://www.w3.org/Graphics/SVG/1.1/DTD/svg11.dtd">
<!-- Generated by graphviz version 2.43.0 (0)
 -->
<!-- Title: locale_ref::get Pages: 1 -->
<svg width="459pt" height="224pt"
 viewBox="0.00 0.00 459.00 224.00" xmlns="http://www.w3.org/2000/svg" xmlns:xlink="http://www.w3.org/1999/xlink">
<g id="graph0" class="graph" transform="scale(1 1) rotate(0) translate(4 220)">
<title>locale_ref::get</title>
<!-- Node1 -->
<g id="Node000001" class="node">
<title>Node1</title>
<g id="a_Node000001"><a xlink:title=" ">
<polygon fill="#999999" stroke="#666666" points="451,-93 365,-93 365,-74 451,-74 451,-93"/>
<text text-anchor="middle" x="408" y="-81" font-family="Helvetica,sans-Serif" font-size="10.00">locale_ref::get</text>
</a>
</g>
</g>
<!-- Node2 -->
<g id="Node000002" class="node">
<title>Node2</title>
<g id="a_Node000002"><a xlink:href="namespacedetail.html#a5423d77808dfb79e15664b2ee4d8950c" target="_top" xlink:title=" ">
<polygon fill="white" stroke="#666666" points="327,-179 181,-179 181,-160 327,-160 327,-179"/>
<text text-anchor="middle" x="254" y="-167" font-family="Helvetica,sans-Serif" font-size="10.00">detail::decimal_point_impl</text>
</a>
</g>
</g>
<!-- Node1&#45;&gt;Node2 -->
<g id="edge1_Node000001_Node000002" class="edge">
<title>Node1&#45;&gt;Node2</title>
<g id="a_edge1_Node000001_Node000002"><a xlink:title=" ">
<path fill="none" stroke="#63b8ff" d="M391.2,-101.01C376.52,-116.25 353.31,-137.83 329,-150.5 321.59,-154.36 313.35,-157.47 305.13,-159.97"/>
<polygon fill="#63b8ff" stroke="#63b8ff" points="394.15,-102.98 398.44,-93.29 389.05,-98.2 394.15,-102.98"/>
</a>
</g>
</g>
<!-- Node5 -->
<g id="Node000005" class="node">
<title>Node5</title>
<g id="a_Node000005"><a xlink:href="classdetail_1_1get__locale.html#a7d733f4bf68a0b6e7e5266518571207a" target="_top" xlink:title=" ">
<polygon fill="white" stroke="#666666" points="304.5,-141.5 203.5,-141.5 203.5,-111.5 304.5,-111.5 304.5,-141.5"/>
<text text-anchor="start" x="211.5" y="-129.5" font-family="Helvetica,sans-Serif" font-size="10.00">detail::get_locale</text>
<text text-anchor="middle" x="254" y="-118.5" font-family="Helvetica,sans-Serif" font-size="10.00">::get_locale</text>
</a>
</g>
</g>
<!-- Node1&#45;&gt;Node5 -->
<g id="edge4_Node000001_Node000005" class="edge">
<title>Node1&#45;&gt;Node5</title>
<g id="a_edge4_Node000001_Node000005"><a xlink:title=" ">
<path fill="none" stroke="#63b8ff" d="M363.4,-95.83C345.01,-101.04 323.5,-107.12 304.51,-112.49"/>
<polygon fill="#63b8ff" stroke="#63b8ff" points="364.6,-99.13 373.27,-93.04 362.69,-92.4 364.6,-99.13"/>
</a>
</g>
</g>
<!-- Node7 -->
<g id="Node000007" class="node">
<title>Node7</title>
<g id="a_Node000007"><a xlink:href="namespacedetail.html#ac00194d36bc9f79956df8ef75ce8d6bf" target="_top" xlink:title=" ">
<polygon fill="white" stroke="#666666" points="329,-93 179,-93 179,-74 329,-74 329,-93"/>
<text text-anchor="middle" x="254" y="-81" font-family="Helvetica,sans-Serif" font-size="10.00">detail::thousands_sep_impl</text>
</a>
</g>
</g>
<!-- Node1&#45;&gt;Node7 -->
<g id="edge6_Node000001_Node000007" class="edge">
<title>Node1&#45;&gt;Node7</title>
<g id="a_edge6_Node000001_Node000007"><a xlink:title=" ">
<path fill="none" stroke="#63b8ff" d="M354.52,-83.5C346.32,-83.5 337.71,-83.5 329.13,-83.5"/>
<polygon fill="#63b8ff" stroke="#63b8ff" points="354.66,-87 364.66,-83.5 354.66,-80 354.66,-87"/>
</a>
</g>
</g>
<!-- Node10 -->
<g id="Node000010" class="node">
<title>Node10</title>
<g id="a_Node000010"><a xlink:href="namespacedetail.html#ab942362d8dd1e8049541fca6fda70c1f" target="_top" xlink:title=" ">
<polygon fill="white" stroke="#666666" points="301.5,-56 206.5,-56 206.5,-37 301.5,-37 301.5,-56"/>
<text text-anchor="middle" x="254" y="-44" font-family="Helvetica,sans-Serif" font-size="10.00">detail::write_loc</text>
</a>
</g>
</g>
<!-- Node1&#45;&gt;Node10 -->
<g id="edge9_Node000001_Node000010" class="edge">
<title>Node1&#45;&gt;Node10</title>
<g id="a_edge9_Node000001_Node000010"><a xlink:title=" ">
<path fill="none" stroke="#63b8ff" d="M357.91,-71.54C348.32,-69.2 338.35,-66.78 329,-64.5 317.69,-61.75 305.42,-58.76 294.17,-56.03"/>
<polygon fill="#63b8ff" stroke="#63b8ff" points="357.18,-74.96 367.72,-73.93 358.83,-68.16 357.18,-74.96"/>
</a>
</g>
</g>
<!-- Node11 -->
<g id="Node000011" class="node">
<title>Node11</title>
<g id="a_Node000011"><a xlink:href="namespacedetail.html#ae3c180dc4d278a6f480320bc5f486eb1" target="_top" xlink:title=" ">
<polygon fill="white" stroke="#666666" points="301.5,-19 206.5,-19 206.5,0 301.5,0 301.5,-19"/>
<text text-anchor="middle" x="254" y="-7" font-family="Helvetica,sans-Serif" font-size="10.00">detail::write_loc</text>
</a>
</g>
</g>
<!-- Node1&#45;&gt;Node11 -->
<g id="edge10_Node000001_Node000011" class="edge">
<title>Node1&#45;&gt;Node11</title>
<g id="a_edge10_Node000001_Node000011"><a xlink:title=" ">
<path fill="none" stroke="#63b8ff" d="M388.25,-66.85C373.21,-54.32 351.03,-37.62 329,-27.5 320.47,-23.58 310.98,-20.45 301.72,-17.97"/>
<polygon fill="#63b8ff" stroke="#63b8ff" points="386.36,-69.84 396.23,-73.67 390.9,-64.51 386.36,-69.84"/>
</a>
</g>
</g>
<!-- Node3 -->
<g id="Node000003" class="node">
<title>Node3</title>
<g id="a_Node000003"><a xlink:href="namespacedetail.html#a20895bb8c834c25802f4ef81ef1d834e" target="_top" xlink:title=" ">
<polygon fill="white" stroke="#666666" points="131,-216 12,-216 12,-197 131,-197 131,-216"/>
<text text-anchor="middle" x="71.5" y="-204" font-family="Helvetica,sans-Serif" font-size="10.00">detail::decimal_point</text>
</a>
</g>
</g>
<!-- Node2&#45;&gt;Node3 -->
<g id="edge2_Node000002_Node000003" class="edge">
<title>Node2&#45;&gt;Node3</title>
<g id="a_edge2_Node000002_Node000003"><a xlink:title=" ">
<path fill="none" stroke="#63b8ff" d="M196.49,-181.08C171.62,-186.18 142.76,-192.1 119.14,-196.94"/>
<polygon fill="#63b8ff" stroke="#63b8ff" points="197.42,-184.47 206.52,-179.03 196.02,-177.61 197.42,-184.47"/>
</a>
</g>
</g>
<!-- Node4 -->
<g id="Node000004" class="node">
<title>Node4</title>
<g id="a_Node000004"><a xlink:href="namespacedetail.html#a6b02fe642098dfc4f477a75c088f2031" target="_top" xlink:title=" ">
<polygon fill="white" stroke="#666666" points="131,-179 12,-179 12,-160 131,-160 131,-179"/>
<text text-anchor="middle" x="71.5" y="-167" font-family="Helvetica,sans-Serif" font-size="10.00">detail::decimal_point</text>
</a>
</g>
</g>
<!-- Node2&#45;&gt;Node4 -->
<g id="edge3_Node000002_Node000004" class="edge">
<title>Node2&#45;&gt;Node4</title>
<g id="a_edge3_Node000002_Node000004"><a xlink:title=" ">
<path fill="none" stroke="#63b8ff" d="M170.75,-169.5C157.4,-169.5 143.83,-169.5 131.19,-169.5"/>
<polygon fill="#63b8ff" stroke="#63b8ff" points="170.88,-173 180.88,-169.5 170.88,-166 170.88,-173"/>
</a>
</g>
</g>
<!-- Node6 -->
<g id="Node000006" class="node">
<title>Node6</title>
<g id="a_Node000006"><a xlink:href="structdetail_1_1duration__formatter.html#a6dc31e10bdf9402a78ad29aa70a93340" target="_top" xlink:title=" ">
<polygon fill="white" stroke="#666666" points="143,-141.5 0,-141.5 0,-111.5 143,-111.5 143,-141.5"/>
<text text-anchor="start" x="8" y="-129.5" font-family="Helvetica,sans-Serif" font-size="10.00">detail::duration_formatter</text>
<text text-anchor="middle" x="71.5" y="-118.5" font-family="Helvetica,sans-Serif" font-size="10.00">::format_tm</text>
</a>
</g>
</g>
<!-- Node5&#45;&gt;Node6 -->
<g id="edge5_Node000005_Node000006" class="edge">
<title>Node5&#45;&gt;Node6</title>
<g id="a_edge5_Node000005_Node000006"><a xlink:title=" ">
<path fill="none" stroke="#63b8ff" d="M192.93,-126.5C176.96,-126.5 159.56,-126.5 143.08,-126.5"/>
<polygon fill="#63b8ff" stroke="#63b8ff" points="193.2,-130 203.2,-126.5 193.2,-123 193.2,-130"/>
</a>
</g>
</g>
<!-- Node8 -->
<g id="Node000008" class="node">
<title>Node8</title>
<g id="a_Node000008"><a xlink:href="namespacedetail.html#a7dd77ce4fe6f606448a057de45122507" target="_top" xlink:title=" ">
<polygon fill="white" stroke="#666666" points="133,-93 10,-93 10,-74 133,-74 133,-93"/>
<text text-anchor="middle" x="71.5" y="-81" font-family="Helvetica,sans-Serif" font-size="10.00">detail::thousands_sep</text>
</a>
</g>
</g>
<!-- Node7&#45;&gt;Node8 -->
<g id="edge7_Node000007_Node000008" class="edge">
<title>Node7&#45;&gt;Node8</title>
<g id="a_edge7_Node000007_Node000008"><a xlink:title=" ">
<path fill="none" stroke="#63b8ff" d="M168.78,-83.5C156.78,-83.5 144.64,-83.5 133.21,-83.5"/>
<polygon fill="#63b8ff" stroke="#63b8ff" points="168.8,-87 178.8,-83.5 168.8,-80 168.8,-87"/>
</a>
</g>
</g>
<!-- Node9 -->
<g id="Node000009" class="node">
<title>Node9</title>
<g id="a_Node000009"><a xlink:href="namespacedetail.html#a47863529abba32bd914c86781bc5a2df" target="_top" xlink:title=" ">
<polygon fill="white" stroke="#666666" points="133,-56 10,-56 10,-37 133,-37 133,-56"/>
<text text-anchor="middle" x="71.5" y="-44" font-family="Helvetica,sans-Serif" font-size="10.00">detail::thousands_sep</text>
</a>
</g>
</g>
<!-- Node7&#45;&gt;Node9 -->
<g id="edge8_Node000007_Node000009" class="edge">
<title>Node7&#45;&gt;Node9</title>
<g id="a_edge8_Node000007_Node000009"><a xlink:title=" ">
<path fill="none" stroke="#63b8ff" d="M196.49,-71.92C171.62,-66.82 142.76,-60.9 119.14,-56.06"/>
<polygon fill="#63b8ff" stroke="#63b8ff" points="196.02,-75.39 206.52,-73.97 197.42,-68.53 196.02,-75.39"/>
</a>
</g>
</g>
</g>
</svg>
