<?xml version="1.0" encoding="UTF-8" standalone="no"?>
<!DOCTYPE svg PUBLIC "-//W3C//DTD SVG 1.1//EN"
 "http://www.w3.org/Graphics/SVG/1.1/DTD/svg11.dtd">
<!-- Generated by graphviz version 2.43.0 (0)
 -->
<!-- Title: format_facet::format_facet Pages: 1 -->
<svg width="294pt" height="64pt"
 viewBox="0.00 0.00 294.00 64.00" xmlns="http://www.w3.org/2000/svg" xmlns:xlink="http://www.w3.org/1999/xlink">
<g id="graph0" class="graph" transform="scale(1 1) rotate(0) translate(4 60)">
<title>format_facet::format_facet</title>
<!-- Node1 -->
<g id="Node000001" class="node">
<title>Node1</title>
<g id="a_Node000001"><a xlink:title=" ">
<polygon fill="#999999" stroke="#666666" points="119,-42.5 0,-42.5 0,-12.5 119,-12.5 119,-42.5"/>
<text text-anchor="start" x="8" y="-30.5" font-family="Helvetica,sans-Serif" font-size="10.00">format_facet::format</text>
<text text-anchor="middle" x="59.5" y="-19.5" font-family="Helvetica,sans-Serif" font-size="10.00">_facet</text>
</a>
</g>
</g>
<!-- Node2 -->
<g id="Node000002" class="node">
<title>Node2</title>
<g id="a_Node000002"><a xlink:href="classbasic__string__view.html#a39cdfe061dc6d64a3adc230b62d8a026" target="_top" xlink:title=" ">
<polygon fill="white" stroke="#666666" points="286,-56 155,-56 155,-37 286,-37 286,-56"/>
<text text-anchor="middle" x="220.5" y="-44" font-family="Helvetica,sans-Serif" font-size="10.00">basic_string_view::data</text>
</a>
</g>
</g>
<!-- Node1&#45;&gt;Node2 -->
<g id="edge1_Node000001_Node000002" class="edge">
<title>Node1&#45;&gt;Node2</title>
<g id="a_edge1_Node000001_Node000002"><a xlink:title=" ">
<path fill="none" stroke="#63b8ff" d="M119.25,-34.52C127.58,-35.52 136.24,-36.55 144.82,-37.58"/>
<polygon fill="#63b8ff" stroke="#63b8ff" points="144.49,-41.06 154.83,-38.77 145.32,-34.11 144.49,-41.06"/>
</a>
</g>
</g>
<!-- Node3 -->
<g id="Node000003" class="node">
<title>Node3</title>
<g id="a_Node000003"><a xlink:href="classbasic__string__view.html#a216bbe1b012b590698d7bb4e96d1af3f" target="_top" xlink:title=" ">
<polygon fill="white" stroke="#666666" points="284.5,-19 156.5,-19 156.5,0 284.5,0 284.5,-19"/>
<text text-anchor="middle" x="220.5" y="-7" font-family="Helvetica,sans-Serif" font-size="10.00">basic_string_view::size</text>
</a>
</g>
</g>
<!-- Node1&#45;&gt;Node3 -->
<g id="edge2_Node000001_Node000003" class="edge">
<title>Node1&#45;&gt;Node3</title>
<g id="a_edge2_Node000001_Node000003"><a xlink:title=" ">
<path fill="none" stroke="#63b8ff" d="M119.25,-20.85C128.06,-19.85 137.23,-18.81 146.29,-17.79"/>
<polygon fill="#63b8ff" stroke="#63b8ff" points="146.91,-21.24 156.45,-16.64 146.12,-14.28 146.91,-21.24"/>
</a>
</g>
</g>
</g>
</svg>
