<?xml version="1.0" encoding="UTF-8" standalone="no"?>
<!DOCTYPE svg PUBLIC "-//W3C//DTD SVG 1.1//EN"
 "http://www.w3.org/Graphics/SVG/1.1/DTD/svg11.dtd">
<!-- Generated by graphviz version 2.43.0 (0)
 -->
<!-- Title: detail::tm_writer::format_localized Pages: 1 -->
<svg width="560pt" height="1083pt"
 viewBox="0.00 0.00 560.00 1083.03" xmlns="http://www.w3.org/2000/svg" xmlns:xlink="http://www.w3.org/1999/xlink">
<g id="graph0" class="graph" transform="scale(1 1) rotate(0) translate(4 1079.03)">
<title>detail::tm_writer::format_localized</title>
<!-- Node1 -->
<g id="Node000001" class="node">
<title>Node1</title>
<g id="a_Node000001"><a xlink:title=" ">
<polygon fill="#999999" stroke="#666666" points="552,-573.03 448,-573.03 448,-543.03 552,-543.03 552,-573.03"/>
<text text-anchor="start" x="456" y="-561.03" font-family="Helvetica,sans-Serif" font-size="10.00">detail::tm_writer::</text>
<text text-anchor="middle" x="500" y="-550.03" font-family="Helvetica,sans-Serif" font-size="10.00">format_localized</text>
</a>
</g>
</g>
<!-- Node2 -->
<g id="Node000002" class="node">
<title>Node2</title>
<g id="a_Node000002"><a xlink:href="classdetail_1_1tm__writer.html#a5a27ddb95af259a5da8c6403c594a50c" target="_top" xlink:title=" ">
<polygon fill="white" stroke="#666666" points="398.5,-1075.03 294.5,-1075.03 294.5,-1045.03 398.5,-1045.03 398.5,-1075.03"/>
<text text-anchor="start" x="302.5" y="-1063.03" font-family="Helvetica,sans-Serif" font-size="10.00">detail::tm_writer::</text>
<text text-anchor="middle" x="346.5" y="-1052.03" font-family="Helvetica,sans-Serif" font-size="10.00">on_12_hour</text>
</a>
</g>
</g>
<!-- Node1&#45;&gt;Node2 -->
<g id="edge1_Node000001_Node000002" class="edge">
<title>Node1&#45;&gt;Node2</title>
<g id="a_edge1_Node000001_Node000002"><a xlink:title=" ">
<path fill="none" stroke="#63b8ff" d="M497.39,-583.56C491.38,-671.46 467.71,-960 412,-1031.03 407.61,-1036.64 401.89,-1041.19 395.68,-1044.88"/>
<polygon fill="#63b8ff" stroke="#63b8ff" points="500.89,-583.63 498.06,-573.42 493.91,-583.17 500.89,-583.63"/>
</a>
</g>
</g>
<!-- Node3 -->
<g id="Node000003" class="node">
<title>Node3</title>
<g id="a_Node000003"><a xlink:href="classdetail_1_1tm__writer.html#a0bde45708906c93315b487f53fcf4057" target="_top" xlink:title=" ">
<polygon fill="white" stroke="#666666" points="244.5,-944.03 140.5,-944.03 140.5,-914.03 244.5,-914.03 244.5,-944.03"/>
<text text-anchor="start" x="148.5" y="-932.03" font-family="Helvetica,sans-Serif" font-size="10.00">detail::tm_writer::</text>
<text text-anchor="middle" x="192.5" y="-921.03" font-family="Helvetica,sans-Serif" font-size="10.00">on_12_hour_time</text>
</a>
</g>
</g>
<!-- Node1&#45;&gt;Node3 -->
<g id="edge2_Node000001_Node000003" class="edge">
<title>Node1&#45;&gt;Node3</title>
<g id="a_edge2_Node000001_Node000003"><a xlink:title=" ">
<path fill="none" stroke="#63b8ff" d="M498.03,-583.53C494.17,-669.25 476.84,-944.76 412,-998.03 367.01,-1035 336.01,-1017.11 281,-998.03 250.29,-987.38 222.21,-961 206.52,-944.11"/>
<polygon fill="#63b8ff" stroke="#63b8ff" points="501.53,-583.52 498.46,-573.38 494.54,-583.22 501.53,-583.52"/>
</a>
</g>
</g>
<!-- Node4 -->
<g id="Node000004" class="node">
<title>Node4</title>
<g id="a_Node000004"><a xlink:href="classdetail_1_1tm__writer.html#af168628f5995310e5588fe79d0374469" target="_top" xlink:title=" ">
<polygon fill="white" stroke="#666666" points="398.5,-989.03 294.5,-989.03 294.5,-959.03 398.5,-959.03 398.5,-989.03"/>
<text text-anchor="start" x="302.5" y="-977.03" font-family="Helvetica,sans-Serif" font-size="10.00">detail::tm_writer::</text>
<text text-anchor="middle" x="346.5" y="-966.03" font-family="Helvetica,sans-Serif" font-size="10.00">on_24_hour</text>
</a>
</g>
</g>
<!-- Node1&#45;&gt;Node4 -->
<g id="edge3_Node000001_Node000004" class="edge">
<title>Node1&#45;&gt;Node4</title>
<g id="a_edge3_Node000001_Node000004"><a xlink:title=" ">
<path fill="none" stroke="#63b8ff" d="M496.48,-583.78C488.36,-661.89 460.55,-894.29 412,-950.03 408.23,-954.36 403.61,-957.91 398.59,-960.81"/>
<polygon fill="#63b8ff" stroke="#63b8ff" points="500.01,-583.71 497.54,-573.41 493.04,-583 500.01,-583.71"/>
</a>
</g>
</g>
<!-- Node5 -->
<g id="Node000005" class="node">
<title>Node5</title>
<g id="a_Node000005"><a xlink:href="classdetail_1_1tm__writer.html#a20af039c85605e8764b9efd0417e2b12" target="_top" xlink:title=" ">
<polygon fill="white" stroke="#666666" points="244.5,-742.03 140.5,-742.03 140.5,-712.03 244.5,-712.03 244.5,-742.03"/>
<text text-anchor="start" x="148.5" y="-730.03" font-family="Helvetica,sans-Serif" font-size="10.00">detail::tm_writer::</text>
<text text-anchor="middle" x="192.5" y="-719.03" font-family="Helvetica,sans-Serif" font-size="10.00">on_abbr_month</text>
</a>
</g>
</g>
<!-- Node1&#45;&gt;Node5 -->
<g id="edge4_Node000001_Node000005" class="edge">
<title>Node1&#45;&gt;Node5</title>
<g id="a_edge4_Node000001_Node000005"><a xlink:title=" ">
<path fill="none" stroke="#63b8ff" d="M491.49,-583.32C480.15,-616.64 455.25,-674.27 412,-702.03 361.87,-734.21 291.7,-736.45 244.53,-733.3"/>
<polygon fill="#63b8ff" stroke="#63b8ff" points="494.94,-584.02 494.7,-573.42 488.28,-581.86 494.94,-584.02"/>
</a>
</g>
</g>
<!-- Node6 -->
<g id="Node000006" class="node">
<title>Node6</title>
<g id="a_Node000006"><a xlink:href="classdetail_1_1tm__writer.html#af53d115957cdef5079ea641b12d8dce9" target="_top" xlink:title=" ">
<polygon fill="white" stroke="#666666" points="104,-772.03 0,-772.03 0,-742.03 104,-742.03 104,-772.03"/>
<text text-anchor="start" x="8" y="-760.03" font-family="Helvetica,sans-Serif" font-size="10.00">detail::tm_writer::</text>
<text text-anchor="middle" x="52" y="-749.03" font-family="Helvetica,sans-Serif" font-size="10.00">on_datetime</text>
</a>
</g>
</g>
<!-- Node1&#45;&gt;Node6 -->
<g id="edge11_Node000001_Node000006" class="edge">
<title>Node1&#45;&gt;Node6</title>
<g id="a_edge11_Node000001_Node000006"><a xlink:title=" ">
<path fill="none" stroke="#63b8ff" d="M495.22,-532.67C485.09,-468.41 455.11,-302.04 412,-270.03 365.26,-235.32 330.13,-238.79 281,-270.03 104.15,-382.51 62.14,-672.24 54.47,-741.84"/>
<polygon fill="#63b8ff" stroke="#63b8ff" points="491.8,-533.4 496.78,-542.75 498.71,-532.33 491.8,-533.4"/>
</a>
</g>
</g>
<!-- Node7 -->
<g id="Node000007" class="node">
<title>Node7</title>
<g id="a_Node000007"><a xlink:href="classdetail_1_1tm__writer.html#a3220714c4f548444f3ea7dbcdcd906c5" target="_top" xlink:title=" ">
<polygon fill="white" stroke="#666666" points="245,-895.03 140,-895.03 140,-865.03 245,-865.03 245,-895.03"/>
<text text-anchor="start" x="148" y="-883.03" font-family="Helvetica,sans-Serif" font-size="10.00">detail::tm_writer::</text>
<text text-anchor="middle" x="192.5" y="-872.03" font-family="Helvetica,sans-Serif" font-size="10.00">on_abbr_weekday</text>
</a>
</g>
</g>
<!-- Node1&#45;&gt;Node7 -->
<g id="edge6_Node000001_Node000007" class="edge">
<title>Node1&#45;&gt;Node7</title>
<g id="a_edge6_Node000001_Node000007"><a xlink:title=" ">
<path fill="none" stroke="#63b8ff" d="M499.43,-583.33C498.91,-639.27 489.22,-773.91 412,-842.03 366.52,-882.15 294.3,-887.29 245.45,-885.3"/>
<polygon fill="#63b8ff" stroke="#63b8ff" points="502.93,-583.23 499.43,-573.23 495.93,-583.23 502.93,-583.23"/>
</a>
</g>
</g>
<!-- Node8 -->
<g id="Node000008" class="node">
<title>Node8</title>
<g id="a_Node000008"><a xlink:href="classdetail_1_1tm__writer.html#a3a496baade233fae1a2024df67a60a73" target="_top" xlink:title=" ">
<polygon fill="white" stroke="#666666" points="398.5,-941.03 294.5,-941.03 294.5,-911.03 398.5,-911.03 398.5,-941.03"/>
<text text-anchor="start" x="302.5" y="-929.03" font-family="Helvetica,sans-Serif" font-size="10.00">detail::tm_writer::</text>
<text text-anchor="middle" x="346.5" y="-918.03" font-family="Helvetica,sans-Serif" font-size="10.00">on_am_pm</text>
</a>
</g>
</g>
<!-- Node1&#45;&gt;Node8 -->
<g id="edge8_Node000001_Node000008" class="edge">
<title>Node1&#45;&gt;Node8</title>
<g id="a_edge8_Node000001_Node000008"><a xlink:title=" ">
<path fill="none" stroke="#63b8ff" d="M499.57,-583.59C499.59,-645 491.39,-802.73 412,-897.03 407.26,-902.67 401.19,-907.26 394.69,-910.98"/>
<polygon fill="#63b8ff" stroke="#63b8ff" points="503.07,-583.25 499.49,-573.28 496.07,-583.31 503.07,-583.25"/>
</a>
</g>
</g>
<!-- Node9 -->
<g id="Node000009" class="node">
<title>Node9</title>
<g id="a_Node000009"><a xlink:href="classdetail_1_1tm__writer.html#a9f26f90a1a3d4cc5ecccd639a0bf4faf" target="_top" xlink:title=" ">
<polygon fill="white" stroke="#666666" points="398.5,-779.03 294.5,-779.03 294.5,-749.03 398.5,-749.03 398.5,-779.03"/>
<text text-anchor="start" x="302.5" y="-767.03" font-family="Helvetica,sans-Serif" font-size="10.00">detail::tm_writer::</text>
<text text-anchor="middle" x="346.5" y="-756.03" font-family="Helvetica,sans-Serif" font-size="10.00">on_century</text>
</a>
</g>
</g>
<!-- Node1&#45;&gt;Node9 -->
<g id="edge10_Node000001_Node000009" class="edge">
<title>Node1&#45;&gt;Node9</title>
<g id="a_edge10_Node000001_Node000009"><a xlink:title=" ">
<path fill="none" stroke="#63b8ff" d="M492.55,-583.26C481.76,-620.87 456.71,-691.83 412,-735.03 406.26,-740.58 399.28,-745.18 392.05,-748.95"/>
<polygon fill="#63b8ff" stroke="#63b8ff" points="496.05,-583.73 495.34,-573.16 489.31,-581.87 496.05,-583.73"/>
</a>
</g>
</g>
<!-- Node10 -->
<g id="Node000010" class="node">
<title>Node10</title>
<g id="a_Node000010"><a xlink:href="classdetail_1_1tm__writer.html#a766dd2eed8f3d3c527391b6159592fe1" target="_top" xlink:title=" ">
<polygon fill="white" stroke="#666666" points="244.5,-845.03 140.5,-845.03 140.5,-815.03 244.5,-815.03 244.5,-845.03"/>
<text text-anchor="start" x="148.5" y="-833.03" font-family="Helvetica,sans-Serif" font-size="10.00">detail::tm_writer::</text>
<text text-anchor="middle" x="192.5" y="-822.03" font-family="Helvetica,sans-Serif" font-size="10.00">on_day_of_month</text>
</a>
</g>
</g>
<!-- Node1&#45;&gt;Node10 -->
<g id="edge12_Node000001_Node000010" class="edge">
<title>Node1&#45;&gt;Node10</title>
<g id="a_edge12_Node000001_Node000010"><a xlink:title=" ">
<path fill="none" stroke="#63b8ff" d="M498.87,-583.43C497.08,-636.01 484.8,-756.55 412,-813.03 364.65,-849.77 292.86,-847.74 244.62,-840.73"/>
<polygon fill="#63b8ff" stroke="#63b8ff" points="502.37,-583.37 499.11,-573.29 495.37,-583.21 502.37,-583.37"/>
</a>
</g>
</g>
<!-- Node11 -->
<g id="Node000011" class="node">
<title>Node11</title>
<g id="a_Node000011"><a xlink:href="classdetail_1_1tm__writer.html#a13b7b4b07ac04aefb6e96bdb1af8f513" target="_top" xlink:title=" ">
<polygon fill="white" stroke="#666666" points="412,-693.03 281,-693.03 281,-663.03 412,-663.03 412,-693.03"/>
<text text-anchor="start" x="289" y="-681.03" font-family="Helvetica,sans-Serif" font-size="10.00">detail::tm_writer::</text>
<text text-anchor="middle" x="346.5" y="-670.03" font-family="Helvetica,sans-Serif" font-size="10.00">on_dec0_week_of_year</text>
</a>
</g>
</g>
<!-- Node1&#45;&gt;Node11 -->
<g id="edge14_Node000001_Node000011" class="edge">
<title>Node1&#45;&gt;Node11</title>
<g id="a_edge14_Node000001_Node000011"><a xlink:title=" ">
<path fill="none" stroke="#63b8ff" d="M482.98,-581.34C467.15,-602.83 441.13,-634.3 412,-654.03 407.05,-657.38 401.58,-660.34 395.97,-662.93"/>
<polygon fill="#63b8ff" stroke="#63b8ff" points="485.92,-583.25 488.92,-573.09 480.24,-579.16 485.92,-583.25"/>
</a>
</g>
</g>
<!-- Node12 -->
<g id="Node000012" class="node">
<title>Node12</title>
<g id="a_Node000012"><a xlink:href="classdetail_1_1tm__writer.html#a422f16ffbd495ff610191c427bd18ebc" target="_top" xlink:title=" ">
<polygon fill="white" stroke="#666666" points="400,-645.03 293,-645.03 293,-615.03 400,-615.03 400,-645.03"/>
<text text-anchor="start" x="301" y="-633.03" font-family="Helvetica,sans-Serif" font-size="10.00">detail::tm_writer::</text>
<text text-anchor="middle" x="346.5" y="-622.03" font-family="Helvetica,sans-Serif" font-size="10.00">on_dec0_weekday</text>
</a>
</g>
</g>
<!-- Node1&#45;&gt;Node12 -->
<g id="edge15_Node000001_Node000012" class="edge">
<title>Node1&#45;&gt;Node12</title>
<g id="a_edge15_Node000001_Node000012"><a xlink:title=" ">
<path fill="none" stroke="#63b8ff" d="M465.11,-578.26C449.26,-587.32 429.96,-597.79 412,-606.03 405.16,-609.17 397.78,-612.22 390.54,-615.03"/>
<polygon fill="#63b8ff" stroke="#63b8ff" points="467.1,-581.15 474,-573.12 463.6,-575.09 467.1,-581.15"/>
</a>
</g>
</g>
<!-- Node13 -->
<g id="Node000013" class="node">
<title>Node13</title>
<g id="a_Node000013"><a xlink:href="classdetail_1_1tm__writer.html#ab1e88baccb22446f04ffdcdf74267615" target="_top" xlink:title=" ">
<polygon fill="white" stroke="#666666" points="412,-597.03 281,-597.03 281,-567.03 412,-567.03 412,-597.03"/>
<text text-anchor="start" x="289" y="-585.03" font-family="Helvetica,sans-Serif" font-size="10.00">detail::tm_writer::</text>
<text text-anchor="middle" x="346.5" y="-574.03" font-family="Helvetica,sans-Serif" font-size="10.00">on_dec1_week_of_year</text>
</a>
</g>
</g>
<!-- Node1&#45;&gt;Node13 -->
<g id="edge16_Node000001_Node000013" class="edge">
<title>Node1&#45;&gt;Node13</title>
<g id="a_edge16_Node000001_Node000013"><a xlink:title=" ">
<path fill="none" stroke="#63b8ff" d="M437.63,-567.76C429.24,-569.08 420.61,-570.45 412.17,-571.79"/>
<polygon fill="#63b8ff" stroke="#63b8ff" points="438.38,-571.18 447.71,-566.16 437.28,-564.27 438.38,-571.18"/>
</a>
</g>
</g>
<!-- Node14 -->
<g id="Node000014" class="node">
<title>Node14</title>
<g id="a_Node000014"><a xlink:href="classdetail_1_1tm__writer.html#ab7e21c09adf00d337e311afcaa51bde3" target="_top" xlink:title=" ">
<polygon fill="white" stroke="#666666" points="400,-549.03 293,-549.03 293,-519.03 400,-519.03 400,-549.03"/>
<text text-anchor="start" x="301" y="-537.03" font-family="Helvetica,sans-Serif" font-size="10.00">detail::tm_writer::</text>
<text text-anchor="middle" x="346.5" y="-526.03" font-family="Helvetica,sans-Serif" font-size="10.00">on_dec1_weekday</text>
</a>
</g>
</g>
<!-- Node1&#45;&gt;Node14 -->
<g id="edge17_Node000001_Node000014" class="edge">
<title>Node1&#45;&gt;Node14</title>
<g id="a_edge17_Node000001_Node000014"><a xlink:title=" ">
<path fill="none" stroke="#63b8ff" d="M437.81,-548.34C425.29,-546.36 412.22,-544.29 400.03,-542.36"/>
<polygon fill="#63b8ff" stroke="#63b8ff" points="437.28,-551.8 447.71,-549.91 438.38,-544.89 437.28,-551.8"/>
</a>
</g>
</g>
<!-- Node15 -->
<g id="Node000015" class="node">
<title>Node15</title>
<g id="a_Node000015"><a xlink:href="classdetail_1_1tm__writer.html#a2be5b7ffe3afee0401124f3b27172b24" target="_top" xlink:title=" ">
<polygon fill="white" stroke="#666666" points="398.5,-501.03 294.5,-501.03 294.5,-471.03 398.5,-471.03 398.5,-501.03"/>
<text text-anchor="start" x="302.5" y="-489.03" font-family="Helvetica,sans-Serif" font-size="10.00">detail::tm_writer::</text>
<text text-anchor="middle" x="346.5" y="-478.03" font-family="Helvetica,sans-Serif" font-size="10.00">on_dec_month</text>
</a>
</g>
</g>
<!-- Node1&#45;&gt;Node15 -->
<g id="edge18_Node000001_Node000015" class="edge">
<title>Node1&#45;&gt;Node15</title>
<g id="a_edge18_Node000001_Node000015"><a xlink:title=" ">
<path fill="none" stroke="#63b8ff" d="M465.11,-537.81C449.26,-528.75 429.96,-518.27 412,-510.03 405.16,-506.89 397.78,-503.85 390.54,-501.04"/>
<polygon fill="#63b8ff" stroke="#63b8ff" points="463.6,-540.97 474,-542.95 467.1,-534.91 463.6,-540.97"/>
</a>
</g>
</g>
<!-- Node16 -->
<g id="Node000016" class="node">
<title>Node16</title>
<g id="a_Node000016"><a xlink:href="classdetail_1_1tm__writer.html#ad9dec04f13065358f9eb4a6019c84963" target="_top" xlink:title=" ">
<polygon fill="white" stroke="#666666" points="398.5,-453.03 294.5,-453.03 294.5,-423.03 398.5,-423.03 398.5,-453.03"/>
<text text-anchor="start" x="302.5" y="-441.03" font-family="Helvetica,sans-Serif" font-size="10.00">detail::tm_writer::</text>
<text text-anchor="middle" x="346.5" y="-430.03" font-family="Helvetica,sans-Serif" font-size="10.00">on_full_month</text>
</a>
</g>
</g>
<!-- Node1&#45;&gt;Node16 -->
<g id="edge19_Node000001_Node000016" class="edge">
<title>Node1&#45;&gt;Node16</title>
<g id="a_edge19_Node000001_Node000016"><a xlink:title=" ">
<path fill="none" stroke="#63b8ff" d="M482.98,-534.72C467.15,-513.23 441.13,-481.77 412,-462.03 407.05,-458.68 401.58,-455.73 395.97,-453.14"/>
<polygon fill="#63b8ff" stroke="#63b8ff" points="480.24,-536.91 488.92,-542.98 485.92,-532.82 480.24,-536.91"/>
</a>
</g>
</g>
<!-- Node17 -->
<g id="Node000017" class="node">
<title>Node17</title>
<g id="a_Node000017"><a xlink:href="classdetail_1_1tm__writer.html#a59eb3c2211d7aa292a371c6fdf835f1c" target="_top" xlink:title=" ">
<polygon fill="white" stroke="#666666" points="398.5,-405.03 294.5,-405.03 294.5,-375.03 398.5,-375.03 398.5,-405.03"/>
<text text-anchor="start" x="302.5" y="-393.03" font-family="Helvetica,sans-Serif" font-size="10.00">detail::tm_writer::</text>
<text text-anchor="middle" x="346.5" y="-382.03" font-family="Helvetica,sans-Serif" font-size="10.00">on_full_weekday</text>
</a>
</g>
</g>
<!-- Node1&#45;&gt;Node17 -->
<g id="edge20_Node000001_Node000017" class="edge">
<title>Node1&#45;&gt;Node17</title>
<g id="a_edge20_Node000001_Node000017"><a xlink:title=" ">
<path fill="none" stroke="#63b8ff" d="M490.02,-533.24C477.31,-501.42 451.17,-446.48 412,-414.03 407.86,-410.6 403.18,-407.64 398.28,-405.08"/>
<polygon fill="#63b8ff" stroke="#63b8ff" points="486.81,-534.63 493.67,-542.7 493.34,-532.11 486.81,-534.63"/>
</a>
</g>
</g>
<!-- Node18 -->
<g id="Node000018" class="node">
<title>Node18</title>
<g id="a_Node000018"><a xlink:href="classdetail_1_1tm__writer.html#afbb39bf7dba827d53464b089fbb4f6b5" target="_top" xlink:title=" ">
<polygon fill="white" stroke="#666666" points="407.5,-357.03 285.5,-357.03 285.5,-327.03 407.5,-327.03 407.5,-357.03"/>
<text text-anchor="start" x="293.5" y="-345.03" font-family="Helvetica,sans-Serif" font-size="10.00">detail::tm_writer::</text>
<text text-anchor="middle" x="346.5" y="-334.03" font-family="Helvetica,sans-Serif" font-size="10.00">on_iso_week_of_year</text>
</a>
</g>
</g>
<!-- Node1&#45;&gt;Node18 -->
<g id="edge21_Node000001_Node000018" class="edge">
<title>Node1&#45;&gt;Node18</title>
<g id="a_edge21_Node000001_Node000018"><a xlink:title=" ">
<path fill="none" stroke="#63b8ff" d="M494.19,-533.16C485.12,-492.69 461.74,-412.44 412,-366.03 408.33,-362.61 404.13,-359.66 399.67,-357.13"/>
<polygon fill="#63b8ff" stroke="#63b8ff" points="490.78,-533.96 496.29,-543.01 497.63,-532.5 490.78,-533.96"/>
</a>
</g>
</g>
<!-- Node19 -->
<g id="Node000019" class="node">
<title>Node19</title>
<g id="a_Node000019"><a xlink:href="classdetail_1_1tm__writer.html#ad3f81bfcf9ee2f4be505b0b80e17f38c" target="_top" xlink:title=" ">
<polygon fill="white" stroke="#666666" points="398.5,-309.03 294.5,-309.03 294.5,-279.03 398.5,-279.03 398.5,-309.03"/>
<text text-anchor="start" x="302.5" y="-297.03" font-family="Helvetica,sans-Serif" font-size="10.00">detail::tm_writer::</text>
<text text-anchor="middle" x="346.5" y="-286.03" font-family="Helvetica,sans-Serif" font-size="10.00">on_loc_date</text>
</a>
</g>
</g>
<!-- Node1&#45;&gt;Node19 -->
<g id="edge22_Node000001_Node000019" class="edge">
<title>Node1&#45;&gt;Node19</title>
<g id="a_edge22_Node000001_Node000019"><a xlink:title=" ">
<path fill="none" stroke="#63b8ff" d="M496.73,-532.59C491.09,-484.3 472.22,-378.76 412,-318.03 408.13,-314.13 403.57,-310.86 398.69,-308.11"/>
<polygon fill="#63b8ff" stroke="#63b8ff" points="493.27,-533.22 497.82,-542.79 500.23,-532.47 493.27,-533.22"/>
</a>
</g>
</g>
<!-- Node20 -->
<g id="Node000020" class="node">
<title>Node20</title>
<g id="a_Node000020"><a xlink:href="classdetail_1_1tm__writer.html#a67832bfe5da8fdfae46367a14fb35d48" target="_top" xlink:title=" ">
<polygon fill="white" stroke="#666666" points="104,-82.03 0,-82.03 0,-52.03 104,-52.03 104,-82.03"/>
<text text-anchor="start" x="8" y="-70.03" font-family="Helvetica,sans-Serif" font-size="10.00">detail::tm_writer::</text>
<text text-anchor="middle" x="52" y="-59.03" font-family="Helvetica,sans-Serif" font-size="10.00">on_loc_time</text>
</a>
</g>
</g>
<!-- Node1&#45;&gt;Node20 -->
<g id="edge23_Node000001_Node000020" class="edge">
<title>Node1&#45;&gt;Node20</title>
<g id="a_edge23_Node000001_Node000020"><a xlink:title=" ">
<path fill="none" stroke="#63b8ff" d="M498.85,-532.84C497.71,-437.99 488.26,-104.55 412,-40.03 316.69,40.61 151.55,-21.03 83.58,-52.02"/>
<polygon fill="#63b8ff" stroke="#63b8ff" points="495.35,-532.99 498.95,-542.95 502.35,-532.92 495.35,-532.99"/>
</a>
</g>
</g>
<!-- Node21 -->
<g id="Node000021" class="node">
<title>Node21</title>
<g id="a_Node000021"><a xlink:href="classdetail_1_1tm__writer.html#ab30118f298af7d816302860044a6bb88" target="_top" xlink:title=" ">
<polygon fill="white" stroke="#666666" points="398.5,-223.03 294.5,-223.03 294.5,-193.03 398.5,-193.03 398.5,-223.03"/>
<text text-anchor="start" x="302.5" y="-211.03" font-family="Helvetica,sans-Serif" font-size="10.00">detail::tm_writer::</text>
<text text-anchor="middle" x="346.5" y="-200.03" font-family="Helvetica,sans-Serif" font-size="10.00">on_minute</text>
</a>
</g>
</g>
<!-- Node1&#45;&gt;Node21 -->
<g id="edge24_Node000001_Node000021" class="edge">
<title>Node1&#45;&gt;Node21</title>
<g id="a_edge24_Node000001_Node000021"><a xlink:title=" ">
<path fill="none" stroke="#63b8ff" d="M499.12,-532.63C498.06,-473.61 487.53,-325.54 412,-237.03 407.22,-231.43 401.13,-226.86 394.62,-223.15"/>
<polygon fill="#63b8ff" stroke="#63b8ff" points="495.62,-532.92 499.22,-542.89 502.62,-532.85 495.62,-532.92"/>
</a>
</g>
</g>
<!-- Node22 -->
<g id="Node000022" class="node">
<title>Node22</title>
<g id="a_Node000022"><a xlink:href="classdetail_1_1tm__writer.html#a045a4743f21ead52b44af8b783664a0e" target="_top" xlink:title=" ">
<polygon fill="white" stroke="#666666" points="398.5,-175.03 294.5,-175.03 294.5,-145.03 398.5,-145.03 398.5,-175.03"/>
<text text-anchor="start" x="302.5" y="-163.03" font-family="Helvetica,sans-Serif" font-size="10.00">detail::tm_writer::</text>
<text text-anchor="middle" x="346.5" y="-152.03" font-family="Helvetica,sans-Serif" font-size="10.00">on_offset_year</text>
</a>
</g>
</g>
<!-- Node1&#45;&gt;Node22 -->
<g id="edge25_Node000001_Node000022" class="edge">
<title>Node1&#45;&gt;Node22</title>
<g id="a_edge25_Node000001_Node000022"><a xlink:title=" ">
<path fill="none" stroke="#63b8ff" d="M496.26,-532.96C487.6,-457.91 458.59,-236.98 412,-184.03 408.21,-179.73 403.58,-176.19 398.54,-173.29"/>
<polygon fill="#63b8ff" stroke="#63b8ff" points="492.79,-533.39 497.39,-542.93 499.74,-532.6 492.79,-533.39"/>
</a>
</g>
</g>
<!-- Node23 -->
<g id="Node000023" class="node">
<title>Node23</title>
<g id="a_Node000023"><a xlink:href="classdetail_1_1tm__writer.html#a57084e1a4311b7439ef4217fa3018285" target="_top" xlink:title=" ">
<polygon fill="white" stroke="#666666" points="398.5,-127.03 294.5,-127.03 294.5,-97.03 398.5,-97.03 398.5,-127.03"/>
<text text-anchor="start" x="302.5" y="-115.03" font-family="Helvetica,sans-Serif" font-size="10.00">detail::tm_writer::</text>
<text text-anchor="middle" x="346.5" y="-104.03" font-family="Helvetica,sans-Serif" font-size="10.00">on_second</text>
</a>
</g>
</g>
<!-- Node1&#45;&gt;Node23 -->
<g id="edge26_Node000001_Node000023" class="edge">
<title>Node1&#45;&gt;Node23</title>
<g id="a_edge26_Node000001_Node000023"><a xlink:title=" ">
<path fill="none" stroke="#63b8ff" d="M496.94,-532.52C489.88,-450.71 464.09,-196.77 412,-136.03 408.27,-131.68 403.67,-128.12 398.65,-125.2"/>
<polygon fill="#63b8ff" stroke="#63b8ff" points="493.49,-533.21 497.82,-542.88 500.47,-532.62 493.49,-533.21"/>
</a>
</g>
</g>
<!-- Node25 -->
<g id="Node000025" class="node">
<title>Node25</title>
<g id="a_Node000025"><a xlink:href="classdetail_1_1tm__writer.html#a8d4ef193ee061f07df1be84ae8facf97" target="_top" xlink:title=" ">
<polygon fill="white" stroke="#666666" points="398.5,-79.03 294.5,-79.03 294.5,-49.03 398.5,-49.03 398.5,-79.03"/>
<text text-anchor="start" x="302.5" y="-67.03" font-family="Helvetica,sans-Serif" font-size="10.00">detail::tm_writer::</text>
<text text-anchor="middle" x="346.5" y="-56.03" font-family="Helvetica,sans-Serif" font-size="10.00">on_short_year</text>
</a>
</g>
</g>
<!-- Node1&#45;&gt;Node25 -->
<g id="edge30_Node000001_Node000025" class="edge">
<title>Node1&#45;&gt;Node25</title>
<g id="a_edge30_Node000001_Node000025"><a xlink:title=" ">
<path fill="none" stroke="#63b8ff" d="M497.53,-532.53C492.01,-444.74 469.72,-156.73 412,-88.03 408.31,-83.64 403.74,-80.05 398.74,-77.12"/>
<polygon fill="#63b8ff" stroke="#63b8ff" points="494.05,-532.89 498.15,-542.66 501.04,-532.46 494.05,-532.89"/>
</a>
</g>
</g>
<!-- Node26 -->
<g id="Node000026" class="node">
<title>Node26</title>
<g id="a_Node000026"><a xlink:href="classdetail_1_1tm__writer.html#ac00a57863b399a1d7f02bed57867e4d7" target="_top" xlink:title=" ">
<polygon fill="white" stroke="#666666" points="244.5,-794.03 140.5,-794.03 140.5,-764.03 244.5,-764.03 244.5,-794.03"/>
<text text-anchor="start" x="148.5" y="-782.03" font-family="Helvetica,sans-Serif" font-size="10.00">detail::tm_writer::</text>
<text text-anchor="middle" x="192.5" y="-771.03" font-family="Helvetica,sans-Serif" font-size="10.00">on_year</text>
</a>
</g>
</g>
<!-- Node1&#45;&gt;Node26 -->
<g id="edge31_Node000001_Node000026" class="edge">
<title>Node1&#45;&gt;Node26</title>
<g id="a_edge31_Node000001_Node000026"><a xlink:title=" ">
<path fill="none" stroke="#63b8ff" d="M498.17,-583.45C495.01,-632.81 480.25,-740.88 412,-788.03 359.21,-824.51 280.9,-808.9 233.76,-794.08"/>
<polygon fill="#63b8ff" stroke="#63b8ff" points="501.67,-583.49 498.7,-573.32 494.68,-583.12 501.67,-583.49"/>
</a>
</g>
</g>
<!-- Node5&#45;&gt;Node6 -->
<g id="edge5_Node000005_Node000006" class="edge">
<title>Node5&#45;&gt;Node6</title>
<g id="a_edge5_Node000005_Node000006"><a xlink:title=" ">
<path fill="none" stroke="#63b8ff" d="M130.3,-740.29C121.66,-742.16 112.86,-744.07 104.43,-745.89"/>
<polygon fill="#63b8ff" stroke="#63b8ff" points="131.29,-743.66 140.32,-738.12 129.81,-736.82 131.29,-743.66"/>
</a>
</g>
</g>
<!-- Node7&#45;&gt;Node6 -->
<g id="edge7_Node000007_Node000006" class="edge">
<title>Node7&#45;&gt;Node6</title>
<g id="a_edge7_Node000007_Node000006"><a xlink:title=" ">
<path fill="none" stroke="#63b8ff" d="M148.32,-859.79C145.43,-857.97 142.62,-856.04 140,-854.03 108.21,-829.69 78.79,-792.64 63.66,-772.09"/>
<polygon fill="#63b8ff" stroke="#63b8ff" points="146.78,-862.95 157.18,-864.97 150.31,-856.9 146.78,-862.95"/>
</a>
</g>
</g>
<!-- Node8&#45;&gt;Node3 -->
<g id="edge9_Node000008_Node000003" class="edge">
<title>Node8&#45;&gt;Node3</title>
<g id="a_edge9_Node000008_Node000003"><a xlink:title=" ">
<path fill="none" stroke="#63b8ff" d="M284.12,-927.25C271.02,-927.5 257.33,-927.77 244.66,-928.02"/>
<polygon fill="#63b8ff" stroke="#63b8ff" points="284.53,-930.74 294.46,-927.04 284.4,-923.74 284.53,-930.74"/>
</a>
</g>
</g>
<!-- Node10&#45;&gt;Node6 -->
<g id="edge13_Node000010_Node000006" class="edge">
<title>Node10&#45;&gt;Node6</title>
<g id="a_edge13_Node000010_Node000006"><a xlink:title=" ">
<path fill="none" stroke="#63b8ff" d="M153.44,-810.1C148.91,-807.72 144.35,-805.32 140,-803.03 120.5,-792.77 98.56,-781.17 81.59,-772.18"/>
<polygon fill="#63b8ff" stroke="#63b8ff" points="152.14,-813.37 162.62,-814.91 155.39,-807.17 152.14,-813.37"/>
</a>
</g>
</g>
<!-- Node24 -->
<g id="Node000024" class="node">
<title>Node24</title>
<g id="a_Node000024"><a xlink:href="classdetail_1_1tm__writer.html#a4a0487e028e1502e59e0f29f896ff740" target="_top" xlink:title=" ">
<polygon fill="white" stroke="#666666" points="244.5,-127.03 140.5,-127.03 140.5,-97.03 244.5,-97.03 244.5,-127.03"/>
<text text-anchor="start" x="148.5" y="-115.03" font-family="Helvetica,sans-Serif" font-size="10.00">detail::tm_writer::</text>
<text text-anchor="middle" x="192.5" y="-104.03" font-family="Helvetica,sans-Serif" font-size="10.00">on_iso_time</text>
</a>
</g>
</g>
<!-- Node23&#45;&gt;Node24 -->
<g id="edge27_Node000023_Node000024" class="edge">
<title>Node23&#45;&gt;Node24</title>
<g id="a_edge27_Node000023_Node000024"><a xlink:title=" ">
<path fill="none" stroke="#63b8ff" d="M284.12,-112.03C271.02,-112.03 257.33,-112.03 244.66,-112.03"/>
<polygon fill="#63b8ff" stroke="#63b8ff" points="284.46,-115.53 294.46,-112.03 284.46,-108.53 284.46,-115.53"/>
</a>
</g>
</g>
<!-- Node24&#45;&gt;Node6 -->
<g id="edge28_Node000024_Node000006" class="edge">
<title>Node24&#45;&gt;Node6</title>
<g id="a_edge28_Node000024_Node000006"><a xlink:title=" ">
<path fill="none" stroke="#63b8ff" d="M179.51,-136.45C167.81,-161.23 150.3,-200.97 140,-237.03 84.3,-431.98 59.86,-678.87 54.28,-741.87"/>
<polygon fill="#63b8ff" stroke="#63b8ff" points="182.67,-137.95 183.83,-127.42 176.36,-134.92 182.67,-137.95"/>
</a>
</g>
</g>
<!-- Node24&#45;&gt;Node20 -->
<g id="edge29_Node000024_Node000020" class="edge">
<title>Node24&#45;&gt;Node20</title>
<g id="a_edge29_Node000024_Node000020"><a xlink:title=" ">
<path fill="none" stroke="#63b8ff" d="M135.22,-93.75C123.39,-89.9 111.04,-85.89 99.62,-82.18"/>
<polygon fill="#63b8ff" stroke="#63b8ff" points="134.4,-97.16 145,-96.92 136.57,-90.51 134.4,-97.16"/>
</a>
</g>
</g>
<!-- Node26&#45;&gt;Node6 -->
<g id="edge32_Node000026_Node000006" class="edge">
<title>Node26&#45;&gt;Node6</title>
<g id="a_edge32_Node000026_Node000006"><a xlink:title=" ">
<path fill="none" stroke="#63b8ff" d="M130.3,-769.31C121.66,-767.94 112.86,-766.54 104.43,-765.2"/>
<polygon fill="#63b8ff" stroke="#63b8ff" points="129.9,-772.79 140.32,-770.9 130.99,-765.88 129.9,-772.79"/>
</a>
</g>
</g>
</g>
</svg>
