<?xml version="1.0" encoding="UTF-8" standalone="no"?>
<!DOCTYPE svg PUBLIC "-//W3C//DTD SVG 1.1//EN"
 "http://www.w3.org/Graphics/SVG/1.1/DTD/svg11.dtd">
<!-- Generated by graphviz version 2.43.0 (0)
 -->
<!-- Title: cxxopts::OptionParser::checked_parse_arg Pages: 1 -->
<svg width="949pt" height="220pt"
 viewBox="0.00 0.00 949.00 220.00" xmlns="http://www.w3.org/2000/svg" xmlns:xlink="http://www.w3.org/1999/xlink">
<g id="graph0" class="graph" transform="scale(1 1) rotate(0) translate(4 216)">
<title>cxxopts::OptionParser::checked_parse_arg</title>
<!-- Node1 -->
<g id="Node000001" class="node">
<title>Node1</title>
<g id="a_Node000001"><a xlink:title=" ">
<polygon fill="#999999" stroke="#666666" points="122,-116 0,-116 0,-86 122,-86 122,-116"/>
<text text-anchor="start" x="8" y="-104" font-family="Helvetica,sans-Serif" font-size="10.00">cxxopts::OptionParser</text>
<text text-anchor="middle" x="61" y="-93" font-family="Helvetica,sans-Serif" font-size="10.00">::checked_parse_arg</text>
</a>
</g>
</g>
<!-- Node2 -->
<g id="Node000002" class="node">
<title>Node2</title>
<g id="a_Node000002"><a xlink:href="classcxxopts_1_1Value.html#a436f0a8a6621de420088839f4c728230" target="_top" xlink:title=" ">
<polygon fill="white" stroke="#666666" points="282,-212 173,-212 173,-182 282,-182 282,-212"/>
<text text-anchor="start" x="181" y="-200" font-family="Helvetica,sans-Serif" font-size="10.00">cxxopts::Value::get</text>
<text text-anchor="middle" x="227.5" y="-189" font-family="Helvetica,sans-Serif" font-size="10.00">_implicit_value</text>
</a>
</g>
</g>
<!-- Node1&#45;&gt;Node2 -->
<g id="edge1_Node000001_Node000002" class="edge">
<title>Node1&#45;&gt;Node2</title>
<g id="a_edge1_Node000001_Node000002"><a xlink:title=" ">
<path fill="none" stroke="#63b8ff" d="M78.94,-116.27C97.31,-132.19 128.04,-157.01 158,-173 161.25,-174.73 164.65,-176.38 168.12,-177.95"/>
<polygon fill="#63b8ff" stroke="#63b8ff" points="166.86,-181.22 177.43,-181.88 169.58,-174.77 166.86,-181.22"/>
</a>
</g>
</g>
<!-- Node3 -->
<g id="Node000003" class="node">
<title>Node3</title>
<g id="a_Node000003"><a xlink:href="classcxxopts_1_1Value.html#aac3425b87db8ef41157892449999b183" target="_top" xlink:title=" ">
<polygon fill="white" stroke="#666666" points="282.5,-164 172.5,-164 172.5,-134 282.5,-134 282.5,-164"/>
<text text-anchor="start" x="180.5" y="-152" font-family="Helvetica,sans-Serif" font-size="10.00">cxxopts::Value::has</text>
<text text-anchor="middle" x="227.5" y="-141" font-family="Helvetica,sans-Serif" font-size="10.00">_implicit</text>
</a>
</g>
</g>
<!-- Node1&#45;&gt;Node3 -->
<g id="edge2_Node000001_Node000003" class="edge">
<title>Node1&#45;&gt;Node3</title>
<g id="a_edge2_Node000001_Node000003"><a xlink:title=" ">
<path fill="none" stroke="#63b8ff" d="M113.6,-116.06C129.98,-120.84 148.26,-126.17 165.25,-131.13"/>
<polygon fill="#63b8ff" stroke="#63b8ff" points="164.51,-134.56 175.09,-134 166.47,-127.84 164.51,-134.56"/>
</a>
</g>
</g>
<!-- Node4 -->
<g id="Node000004" class="node">
<title>Node4</title>
<g id="a_Node000004"><a xlink:href="classcxxopts_1_1OptionParser.html#a07db7b6bb2095df7b75b50ed2311ffe5" target="_top" xlink:title=" ">
<polygon fill="white" stroke="#666666" points="288.5,-116 166.5,-116 166.5,-86 288.5,-86 288.5,-116"/>
<text text-anchor="start" x="174.5" y="-104" font-family="Helvetica,sans-Serif" font-size="10.00">cxxopts::OptionParser</text>
<text text-anchor="middle" x="227.5" y="-93" font-family="Helvetica,sans-Serif" font-size="10.00">::parse_option</text>
</a>
</g>
</g>
<!-- Node1&#45;&gt;Node4 -->
<g id="edge3_Node000001_Node000004" class="edge">
<title>Node1&#45;&gt;Node4</title>
<g id="a_edge3_Node000001_Node000004"><a xlink:title=" ">
<path fill="none" stroke="#63b8ff" d="M122.32,-101C133.34,-101 144.93,-101 156.21,-101"/>
<polygon fill="#63b8ff" stroke="#63b8ff" points="156.46,-104.5 166.46,-101 156.46,-97.5 156.46,-104.5"/>
</a>
</g>
</g>
<!-- Node13 -->
<g id="Node000013" class="node">
<title>Node13</title>
<g id="a_Node000013"><a xlink:href="namespacecxxopts.html#a466f47408560fa08e43bf48ec2366b22" target="_top" xlink:title=" ">
<polygon fill="white" stroke="#666666" points="297,-67.5 158,-67.5 158,-48.5 297,-48.5 297,-67.5"/>
<text text-anchor="middle" x="227.5" y="-55.5" font-family="Helvetica,sans-Serif" font-size="10.00">cxxopts::throw_or_mimic</text>
</a>
</g>
</g>
<!-- Node1&#45;&gt;Node13 -->
<g id="edge12_Node000001_Node000013" class="edge">
<title>Node1&#45;&gt;Node13</title>
<g id="a_edge12_Node000001_Node000013"><a xlink:title=" ">
<path fill="none" stroke="#63b8ff" d="M119.53,-85.96C139.33,-80.79 161.22,-75.06 180.02,-70.15"/>
<polygon fill="#63b8ff" stroke="#63b8ff" points="181.04,-73.5 189.83,-67.59 179.27,-66.73 181.04,-73.5"/>
</a>
</g>
</g>
<!-- Node14 -->
<g id="Node000014" class="node">
<title>Node14</title>
<g id="a_Node000014"><a xlink:href="classcxxopts_1_1OptionDetails.html#a3f90596c7b7634449a51370f211163a8" target="_top" xlink:title=" ">
<polygon fill="white" stroke="#666666" points="291,-30 164,-30 164,0 291,0 291,-30"/>
<text text-anchor="start" x="172" y="-18" font-family="Helvetica,sans-Serif" font-size="10.00">cxxopts::OptionDetails</text>
<text text-anchor="middle" x="227.5" y="-7" font-family="Helvetica,sans-Serif" font-size="10.00">::value</text>
</a>
</g>
</g>
<!-- Node1&#45;&gt;Node14 -->
<g id="edge13_Node000001_Node000014" class="edge">
<title>Node1&#45;&gt;Node14</title>
<g id="a_edge13_Node000001_Node000014"><a xlink:title=" ">
<path fill="none" stroke="#63b8ff" d="M82.96,-85.81C101.9,-72.54 130.9,-53.36 158,-40 162.31,-37.87 166.86,-35.83 171.47,-33.88"/>
<polygon fill="#63b8ff" stroke="#63b8ff" points="173,-37.04 180.97,-30.05 170.38,-30.55 173,-37.04"/>
</a>
</g>
</g>
<!-- Node5 -->
<g id="Node000005" class="node">
<title>Node5</title>
<g id="a_Node000005"><a xlink:href="classcxxopts_1_1OptionDetails.html#a02b918ea1873a2716cfd5ad909be3034" target="_top" xlink:title=" ">
<polygon fill="white" stroke="#666666" points="460,-164 333,-164 333,-134 460,-134 460,-164"/>
<text text-anchor="start" x="341" y="-152" font-family="Helvetica,sans-Serif" font-size="10.00">cxxopts::OptionDetails</text>
<text text-anchor="middle" x="396.5" y="-141" font-family="Helvetica,sans-Serif" font-size="10.00">::essential_name</text>
</a>
</g>
</g>
<!-- Node4&#45;&gt;Node5 -->
<g id="edge4_Node000004_Node000005" class="edge">
<title>Node4&#45;&gt;Node5</title>
<g id="a_edge4_Node000004_Node000005"><a xlink:title=" ">
<path fill="none" stroke="#63b8ff" d="M280.88,-116.06C297.51,-120.84 316.07,-126.17 333.32,-131.13"/>
<polygon fill="#63b8ff" stroke="#63b8ff" points="332.73,-134.6 343.3,-134 334.66,-127.87 332.73,-134.6"/>
</a>
</g>
</g>
<!-- Node6 -->
<g id="Node000006" class="node">
<title>Node6</title>
<g id="a_Node000006"><a xlink:href="classcxxopts_1_1OptionDetails.html#a3e5d1e478cc4a241d710f9ab792fcafb" target="_top" xlink:title=" ">
<polygon fill="white" stroke="#666666" points="460,-116 333,-116 333,-86 460,-86 460,-116"/>
<text text-anchor="start" x="341" y="-104" font-family="Helvetica,sans-Serif" font-size="10.00">cxxopts::OptionDetails</text>
<text text-anchor="middle" x="396.5" y="-93" font-family="Helvetica,sans-Serif" font-size="10.00">::hash</text>
</a>
</g>
</g>
<!-- Node4&#45;&gt;Node6 -->
<g id="edge5_Node000004_Node000006" class="edge">
<title>Node4&#45;&gt;Node6</title>
<g id="a_edge5_Node000004_Node000006"><a xlink:title=" ">
<path fill="none" stroke="#63b8ff" d="M288.79,-101C299.74,-101 311.26,-101 322.52,-101"/>
<polygon fill="#63b8ff" stroke="#63b8ff" points="322.77,-104.5 332.77,-101 322.77,-97.5 322.77,-104.5"/>
</a>
</g>
</g>
<!-- Node7 -->
<g id="Node000007" class="node">
<title>Node7</title>
<g id="a_Node000007"><a xlink:href="classcxxopts_1_1OptionValue.html#a69645a46405198eea09f45137f1bcf8b" target="_top" xlink:title=" ">
<polygon fill="white" stroke="#666666" points="456,-68 337,-68 337,-38 456,-38 456,-68"/>
<text text-anchor="start" x="345" y="-56" font-family="Helvetica,sans-Serif" font-size="10.00">cxxopts::OptionValue</text>
<text text-anchor="middle" x="396.5" y="-45" font-family="Helvetica,sans-Serif" font-size="10.00">::parse</text>
</a>
</g>
</g>
<!-- Node4&#45;&gt;Node7 -->
<g id="edge6_Node000004_Node000007" class="edge">
<title>Node4&#45;&gt;Node7</title>
<g id="a_edge6_Node000004_Node000007"><a xlink:title=" ">
<path fill="none" stroke="#63b8ff" d="M280.88,-85.94C297.51,-81.16 316.07,-75.83 333.32,-70.87"/>
<polygon fill="#63b8ff" stroke="#63b8ff" points="334.66,-74.13 343.3,-68 332.73,-67.4 334.66,-74.13"/>
</a>
</g>
</g>
<!-- Node8 -->
<g id="Node000008" class="node">
<title>Node8</title>
<g id="a_Node000008"><a xlink:href="classcxxopts_1_1OptionValue.html#a5e62e7e64679e627ba8946c36a559f2a" target="_top" xlink:title=" ">
<polygon fill="white" stroke="#666666" points="619,-116 500,-116 500,-86 619,-86 619,-116"/>
<text text-anchor="start" x="508" y="-104" font-family="Helvetica,sans-Serif" font-size="10.00">cxxopts::OptionValue</text>
<text text-anchor="middle" x="559.5" y="-93" font-family="Helvetica,sans-Serif" font-size="10.00">::ensure_value</text>
</a>
</g>
</g>
<!-- Node7&#45;&gt;Node8 -->
<g id="edge7_Node000007_Node000008" class="edge">
<title>Node7&#45;&gt;Node8</title>
<g id="a_edge7_Node000007_Node000008"><a xlink:title=" ">
<path fill="none" stroke="#63b8ff" d="M448,-68.06C464.03,-72.84 481.92,-78.17 498.55,-83.13"/>
<polygon fill="#63b8ff" stroke="#63b8ff" points="497.6,-86.49 508.18,-86 499.6,-79.79 497.6,-86.49"/>
</a>
</g>
</g>
<!-- Node11 -->
<g id="Node000011" class="node">
<title>Node11</title>
<g id="a_Node000011"><a xlink:href="classcxxopts_1_1OptionDetails.html#a1b61b4570ee040ce1b9fc6e358e08b2d" target="_top" xlink:title=" ">
<polygon fill="white" stroke="#666666" points="623,-68 496,-68 496,-38 623,-38 623,-68"/>
<text text-anchor="start" x="504" y="-56" font-family="Helvetica,sans-Serif" font-size="10.00">cxxopts::OptionDetails</text>
<text text-anchor="middle" x="559.5" y="-45" font-family="Helvetica,sans-Serif" font-size="10.00">::long_names</text>
</a>
</g>
</g>
<!-- Node7&#45;&gt;Node11 -->
<g id="edge10_Node000007_Node000011" class="edge">
<title>Node7&#45;&gt;Node11</title>
<g id="a_edge10_Node000007_Node000011"><a xlink:title=" ">
<path fill="none" stroke="#63b8ff" d="M456.08,-53C465.69,-53 475.75,-53 485.65,-53"/>
<polygon fill="#63b8ff" stroke="#63b8ff" points="485.89,-56.5 495.89,-53 485.89,-49.5 485.89,-56.5"/>
</a>
</g>
</g>
<!-- Node12 -->
<g id="Node000012" class="node">
<title>Node12</title>
<g id="a_Node000012"><a xlink:href="classcxxopts_1_1Value.html#a3c962e4ff3294721f5c9f6ac3fc00cc7" target="_top" xlink:title=" ">
<polygon fill="white" stroke="#666666" points="619.5,-19.5 499.5,-19.5 499.5,-0.5 619.5,-0.5 619.5,-19.5"/>
<text text-anchor="middle" x="559.5" y="-7.5" font-family="Helvetica,sans-Serif" font-size="10.00">cxxopts::Value::parse</text>
</a>
</g>
</g>
<!-- Node7&#45;&gt;Node12 -->
<g id="edge11_Node000007_Node000012" class="edge">
<title>Node7&#45;&gt;Node12</title>
<g id="a_edge11_Node000007_Node000012"><a xlink:title=" ">
<path fill="none" stroke="#63b8ff" d="M453.81,-37.96C473.09,-32.81 494.41,-27.12 512.75,-22.22"/>
<polygon fill="#63b8ff" stroke="#63b8ff" points="513.85,-25.55 522.61,-19.59 512.04,-18.79 513.85,-25.55"/>
</a>
</g>
</g>
<!-- Node9 -->
<g id="Node000009" class="node">
<title>Node9</title>
<g id="a_Node000009"><a xlink:href="classcxxopts_1_1OptionDetails.html#a3ff160262711ae6eebb41649491e75e6" target="_top" xlink:title=" ">
<polygon fill="white" stroke="#666666" points="786,-116 659,-116 659,-86 786,-86 786,-116"/>
<text text-anchor="start" x="667" y="-104" font-family="Helvetica,sans-Serif" font-size="10.00">cxxopts::OptionDetails</text>
<text text-anchor="middle" x="722.5" y="-93" font-family="Helvetica,sans-Serif" font-size="10.00">::make_storage</text>
</a>
</g>
</g>
<!-- Node8&#45;&gt;Node9 -->
<g id="edge8_Node000008_Node000009" class="edge">
<title>Node8&#45;&gt;Node9</title>
<g id="a_edge8_Node000008_Node000009"><a xlink:title=" ">
<path fill="none" stroke="#63b8ff" d="M619.08,-101C628.69,-101 638.75,-101 648.65,-101"/>
<polygon fill="#63b8ff" stroke="#63b8ff" points="648.89,-104.5 658.89,-101 648.89,-97.5 648.89,-104.5"/>
</a>
</g>
</g>
<!-- Node10 -->
<g id="Node000010" class="node">
<title>Node10</title>
<g id="a_Node000010"><a xlink:href="classcxxopts_1_1Value.html#a17916d6a48e57c999c2dc23fa6b22539" target="_top" xlink:title=" ">
<polygon fill="white" stroke="#666666" points="941,-110.5 822,-110.5 822,-91.5 941,-91.5 941,-110.5"/>
<text text-anchor="middle" x="881.5" y="-98.5" font-family="Helvetica,sans-Serif" font-size="10.00">cxxopts::Value::clone</text>
</a>
</g>
</g>
<!-- Node9&#45;&gt;Node10 -->
<g id="edge9_Node000009_Node000010" class="edge">
<title>Node9&#45;&gt;Node10</title>
<g id="a_edge9_Node000009_Node000010"><a xlink:title=" ">
<path fill="none" stroke="#63b8ff" d="M786,-101C794.39,-101 803.04,-101 811.53,-101"/>
<polygon fill="#63b8ff" stroke="#63b8ff" points="811.79,-104.5 821.79,-101 811.79,-97.5 811.79,-104.5"/>
</a>
</g>
</g>
</g>
</svg>
