<?xml version="1.0" encoding="UTF-8" standalone="no"?>
<!DOCTYPE svg PUBLIC "-//W3C//DTD SVG 1.1//EN"
 "http://www.w3.org/Graphics/SVG/1.1/DTD/svg11.dtd">
<!-- Generated by graphviz version 2.43.0 (0)
 -->
<!-- Title: detail::formatbuf&lt; StreamBuf &gt; Pages: 1 -->
<svg width="258pt" height="181pt"
 viewBox="0.00 0.00 258.00 181.00" xmlns="http://www.w3.org/2000/svg" xmlns:xlink="http://www.w3.org/1999/xlink">
<g id="graph0" class="graph" transform="scale(1 1) rotate(0) translate(4 177)">
<title>detail::formatbuf&lt; StreamBuf &gt;</title>
<!-- Node1 -->
<g id="Node000001" class="node">
<title>Node1</title>
<g id="a_Node000001"><a xlink:title=" ">
<polygon fill="#999999" stroke="#666666" points="107,-30 0,-30 0,0 107,0 107,-30"/>
<text text-anchor="start" x="8" y="-18" font-family="Helvetica,sans-Serif" font-size="10.00">detail::formatbuf&lt;</text>
<text text-anchor="middle" x="53.5" y="-7" font-family="Helvetica,sans-Serif" font-size="10.00"> StreamBuf &gt;</text>
</a>
</g>
</g>
<!-- Node2 -->
<g id="Node000002" class="node">
<title>Node2</title>
<g id="a_Node000002"><a xlink:title=" ">
<polygon fill="white" stroke="#666666" points="71.5,-101.5 3.5,-101.5 3.5,-82.5 71.5,-82.5 71.5,-101.5"/>
<text text-anchor="middle" x="37.5" y="-89.5" font-family="Helvetica,sans-Serif" font-size="10.00">StreamBuf</text>
</a>
</g>
</g>
<!-- Node2&#45;&gt;Node1 -->
<g id="edge1_Node000001_Node000002" class="edge">
<title>Node2&#45;&gt;Node1</title>
<g id="a_edge1_Node000001_Node000002"><a xlink:title=" ">
<path fill="none" stroke="#63b8ff" d="M41.43,-72.59C44.22,-59.49 47.93,-42.13 50.49,-30.11"/>
<polygon fill="#63b8ff" stroke="#63b8ff" points="38,-71.89 39.34,-82.4 44.84,-73.35 38,-71.89"/>
</a>
</g>
</g>
<!-- Node3 -->
<g id="Node000003" class="node">
<title>Node3</title>
<g id="a_Node000003"><a xlink:href="classdetail_1_1buffer.html" target="_top" xlink:title=" ">
<polygon fill="white" stroke="#666666" points="201,-107 90,-107 90,-77 201,-77 201,-107"/>
<text text-anchor="start" x="98" y="-95" font-family="Helvetica,sans-Serif" font-size="10.00">detail::buffer&lt; char</text>
<text text-anchor="middle" x="145.5" y="-84" font-family="Helvetica,sans-Serif" font-size="10.00">_type &gt;</text>
</a>
</g>
</g>
<!-- Node3&#45;&gt;Node1 -->
<g id="edge2_Node000001_Node000003" class="edge">
<title>Node3&#45;&gt;Node1</title>
<g id="a_edge2_Node000001_Node000003"><a xlink:title=" ">
<path fill="none" stroke="#9a32cd" stroke-dasharray="5,2" d="M120.39,-70.53C104.62,-57.68 84.71,-41.44 70.73,-30.04"/>
<polygon fill="#9a32cd" stroke="#9a32cd" points="118.23,-73.29 128.2,-76.89 122.66,-67.86 118.23,-73.29"/>
</a>
</g>
<text text-anchor="middle" x="123" y="-51" font-family="Helvetica,sans-Serif" font-size="10.00" fill="grey"> buffer_</text>
</g>
<!-- Node4 -->
<g id="Node000004" class="node">
<title>Node4</title>
<g id="a_Node000004"><a xlink:href="classdetail_1_1buffer.html" target="_top" xlink:title=" ">
<polygon fill="white" stroke="#666666" points="199,-173 92,-173 92,-154 199,-154 199,-173"/>
<text text-anchor="middle" x="145.5" y="-161" font-family="Helvetica,sans-Serif" font-size="10.00">detail::buffer&lt; T &gt;</text>
</a>
</g>
</g>
<!-- Node4&#45;&gt;Node3 -->
<g id="edge3_Node000003_Node000004" class="edge">
<title>Node4&#45;&gt;Node3</title>
<g id="a_edge3_Node000003_Node000004"><a xlink:title=" ">
<path fill="none" stroke="#9a32cd" stroke-dasharray="5,2" d="M145.5,-143.71C145.5,-132.19 145.5,-117.68 145.5,-107.14"/>
<polygon fill="#9a32cd" stroke="#9a32cd" points="142,-143.98 145.5,-153.98 149,-143.98 142,-143.98"/>
</a>
</g>
<text text-anchor="middle" x="162" y="-128" font-family="Helvetica,sans-Serif" font-size="10.00" fill="grey"> grow_</text>
</g>
<!-- Node4&#45;&gt;Node4 -->
<g id="edge4_Node000004_Node000004" class="edge">
<title>Node4&#45;&gt;Node4</title>
<g id="a_edge4_Node000004_Node000004"><a xlink:title=" ">
<path fill="none" stroke="#9a32cd" stroke-dasharray="5,2" d="M209.38,-167.96C214.1,-166.96 217,-165.47 217,-163.5 217,-160.34 209.58,-158.43 199.13,-157.77"/>
<polygon fill="#9a32cd" stroke="#9a32cd" points="208.62,-164.53 199.13,-169.23 209.49,-171.47 208.62,-164.53"/>
</a>
</g>
<text text-anchor="middle" x="233.5" y="-161" font-family="Helvetica,sans-Serif" font-size="10.00" fill="grey"> grow_</text>
</g>
</g>
</svg>
