<?xml version="1.0" encoding="UTF-8" standalone="no"?>
<!DOCTYPE svg PUBLIC "-//W3C//DTD SVG 1.1//EN"
 "http://www.w3.org/Graphics/SVG/1.1/DTD/svg11.dtd">
<!-- Generated by graphviz version 2.43.0 (0)
 -->
<!-- Title: basic_memory_buffer::basic_memory_buffer Pages: 1 -->
<svg width="634pt" height="701pt"
 viewBox="0.00 0.00 634.00 700.50" xmlns="http://www.w3.org/2000/svg" xmlns:xlink="http://www.w3.org/1999/xlink">
<g id="graph0" class="graph" transform="scale(1 1) rotate(0) translate(4 696.5)">
<title>basic_memory_buffer::basic_memory_buffer</title>
<!-- Node1 -->
<g id="Node000001" class="node">
<title>Node1</title>
<g id="a_Node000001"><a xlink:title=" ">
<polygon fill="#999999" stroke="#666666" points="626,-338.5 498,-338.5 498,-308.5 626,-308.5 626,-338.5"/>
<text text-anchor="start" x="506" y="-326.5" font-family="Helvetica,sans-Serif" font-size="10.00">basic_memory_buffer</text>
<text text-anchor="middle" x="562" y="-315.5" font-family="Helvetica,sans-Serif" font-size="10.00">::basic_memory_buffer</text>
</a>
</g>
</g>
<!-- Node2 -->
<g id="Node000002" class="node">
<title>Node2</title>
<g id="a_Node000002"><a xlink:href="classdetail_1_1digit__grouping.html#a0f6b16f6c24b8a79c3415aff8724e5b3" target="_top" xlink:title=" ">
<polygon fill="white" stroke="#666666" points="450.5,-692.5 330.5,-692.5 330.5,-662.5 450.5,-662.5 450.5,-692.5"/>
<text text-anchor="start" x="338.5" y="-680.5" font-family="Helvetica,sans-Serif" font-size="10.00">detail::digit_grouping</text>
<text text-anchor="middle" x="390.5" y="-669.5" font-family="Helvetica,sans-Serif" font-size="10.00">::apply</text>
</a>
</g>
</g>
<!-- Node1&#45;&gt;Node2 -->
<g id="edge1_Node000001_Node000002" class="edge">
<title>Node1&#45;&gt;Node2</title>
<g id="a_edge1_Node000001_Node000002"><a xlink:title=" ">
<path fill="none" stroke="#63b8ff" d="M560.86,-348.95C559.13,-409.99 546.22,-566.14 462,-653.5 458.68,-656.94 454.85,-659.89 450.72,-662.42"/>
<polygon fill="#63b8ff" stroke="#63b8ff" points="564.36,-348.77 561.07,-338.7 557.37,-348.62 564.36,-348.77"/>
</a>
</g>
</g>
<!-- Node3 -->
<g id="Node000003" class="node">
<title>Node3</title>
<g id="a_Node000003"><a xlink:href="structformatter_3_01std_1_1error__code_01_4.html#a470063b0427cac0f4618f8efe71656ac" target="_top" xlink:title=" ">
<polygon fill="white" stroke="#666666" points="450,-644.5 331,-644.5 331,-614.5 450,-614.5 450,-644.5"/>
<text text-anchor="start" x="339" y="-632.5" font-family="Helvetica,sans-Serif" font-size="10.00">formatter&lt; std::error</text>
<text text-anchor="middle" x="390.5" y="-621.5" font-family="Helvetica,sans-Serif" font-size="10.00">_code &gt;::format</text>
</a>
</g>
</g>
<!-- Node1&#45;&gt;Node3 -->
<g id="edge2_Node000001_Node000003" class="edge">
<title>Node1&#45;&gt;Node3</title>
<g id="a_edge2_Node000001_Node000003"><a xlink:title=" ">
<path fill="none" stroke="#63b8ff" d="M559.32,-348.95C554.36,-403.61 535.11,-533.08 462,-605.5 458.51,-608.96 454.5,-611.92 450.21,-614.45"/>
<polygon fill="#63b8ff" stroke="#63b8ff" points="562.83,-349.02 560.16,-338.77 555.85,-348.45 562.83,-349.02"/>
</a>
</g>
</g>
<!-- Node4 -->
<g id="Node000004" class="node">
<title>Node4</title>
<g id="a_Node000004"><a xlink:href="classdetail_1_1tm__writer.html#a57084e1a4311b7439ef4217fa3018285" target="_top" xlink:title=" ">
<polygon fill="white" stroke="#666666" points="442.5,-596.5 338.5,-596.5 338.5,-566.5 442.5,-566.5 442.5,-596.5"/>
<text text-anchor="start" x="346.5" y="-584.5" font-family="Helvetica,sans-Serif" font-size="10.00">detail::tm_writer::</text>
<text text-anchor="middle" x="390.5" y="-573.5" font-family="Helvetica,sans-Serif" font-size="10.00">on_second</text>
</a>
</g>
</g>
<!-- Node1&#45;&gt;Node4 -->
<g id="edge3_Node000001_Node000004" class="edge">
<title>Node1&#45;&gt;Node4</title>
<g id="a_edge3_Node000001_Node000004"><a xlink:title=" ">
<path fill="none" stroke="#63b8ff" d="M557.28,-348.53C548.94,-395.99 524.32,-499.52 462,-557.5 456.41,-562.7 449.66,-566.77 442.57,-569.97"/>
<polygon fill="#63b8ff" stroke="#63b8ff" points="560.76,-348.94 558.95,-338.5 553.86,-347.8 560.76,-348.94"/>
</a>
</g>
</g>
<!-- Node8 -->
<g id="Node000008" class="node">
<title>Node8</title>
<g id="a_Node000008"><a xlink:href="structdetail_1_1duration__formatter.html#a5eaa3651f2774bf273f23c4a6cb232a2" target="_top" xlink:title=" ">
<polygon fill="white" stroke="#666666" points="462,-548.5 319,-548.5 319,-518.5 462,-518.5 462,-548.5"/>
<text text-anchor="start" x="327" y="-536.5" font-family="Helvetica,sans-Serif" font-size="10.00">detail::duration_formatter</text>
<text text-anchor="middle" x="390.5" y="-525.5" font-family="Helvetica,sans-Serif" font-size="10.00">::on_second</text>
</a>
</g>
</g>
<!-- Node1&#45;&gt;Node8 -->
<g id="edge7_Node000001_Node000008" class="edge">
<title>Node1&#45;&gt;Node8</title>
<g id="a_edge7_Node000001_Node000008"><a xlink:title=" ">
<path fill="none" stroke="#63b8ff" d="M554.27,-348.39C542.28,-388.07 513.54,-465.66 462,-509.5 457.96,-512.93 453.41,-515.89 448.61,-518.42"/>
<polygon fill="#63b8ff" stroke="#63b8ff" points="557.65,-349.29 557.08,-338.71 550.93,-347.33 557.65,-349.29"/>
</a>
</g>
</g>
<!-- Node10 -->
<g id="Node000010" class="node">
<title>Node10</title>
<g id="a_Node000010"><a xlink:href="compile_8h.html#aafd70447a5d15c593712be146611663d" target="_top" xlink:title=" ">
<polygon fill="white" stroke="#666666" points="410,-500 371,-500 371,-481 410,-481 410,-500"/>
<text text-anchor="middle" x="390.5" y="-488" font-family="Helvetica,sans-Serif" font-size="10.00">print</text>
</a>
</g>
</g>
<!-- Node1&#45;&gt;Node10 -->
<g id="edge9_Node000001_Node000010" class="edge">
<title>Node1&#45;&gt;Node10</title>
<g id="a_edge9_Node000001_Node000010"><a xlink:title=" ">
<path fill="none" stroke="#63b8ff" d="M551.27,-348.38C536.9,-381.82 506.76,-440.74 462,-472.5 446.65,-483.39 425.29,-487.7 410.11,-489.4"/>
<polygon fill="#63b8ff" stroke="#63b8ff" points="554.62,-349.46 555.23,-338.88 548.16,-346.77 554.62,-349.46"/>
</a>
</g>
</g>
<!-- Node11 -->
<g id="Node000011" class="node">
<title>Node11</title>
<g id="a_Node000011"><a xlink:href="ostream_8h.html#a3883cc4dedb6840173d3ca9699e7693c" target="_top" xlink:title=" ">
<polygon fill="white" stroke="#666666" points="410,-463 371,-463 371,-444 410,-444 410,-463"/>
<text text-anchor="middle" x="390.5" y="-451" font-family="Helvetica,sans-Serif" font-size="10.00">print</text>
</a>
</g>
</g>
<!-- Node1&#45;&gt;Node11 -->
<g id="edge10_Node000001_Node000011" class="edge">
<title>Node1&#45;&gt;Node11</title>
<g id="a_edge10_Node000001_Node000011"><a xlink:title=" ">
<path fill="none" stroke="#63b8ff" d="M546.37,-347.2C529.29,-372.86 498.65,-413.11 462,-435.5 446.05,-445.25 424.98,-449.74 410.04,-451.8"/>
<polygon fill="#63b8ff" stroke="#63b8ff" points="549.32,-349.08 551.83,-338.79 543.45,-345.27 549.32,-349.08"/>
</a>
</g>
</g>
<!-- Node12 -->
<g id="Node000012" class="node">
<title>Node12</title>
<g id="a_Node000012"><a xlink:href="format_8h.html#a5ef22e73c121e5454e75a221470d3214" target="_top" xlink:title=" ">
<polygon fill="white" stroke="#666666" points="418.5,-426 362.5,-426 362.5,-407 418.5,-407 418.5,-426"/>
<text text-anchor="middle" x="390.5" y="-414" font-family="Helvetica,sans-Serif" font-size="10.00">vformat</text>
</a>
</g>
</g>
<!-- Node1&#45;&gt;Node12 -->
<g id="edge11_Node000001_Node000012" class="edge">
<title>Node1&#45;&gt;Node12</title>
<g id="a_edge11_Node000001_Node000012"><a xlink:title=" ">
<path fill="none" stroke="#63b8ff" d="M537.63,-345.53C518.62,-362.32 490.38,-384.82 462,-398.5 448.46,-405.03 432.27,-409.38 418.83,-412.16"/>
<polygon fill="#63b8ff" stroke="#63b8ff" points="540.1,-348.02 545.18,-338.72 535.41,-342.81 540.1,-348.02"/>
</a>
</g>
</g>
<!-- Node13 -->
<g id="Node000013" class="node">
<title>Node13</title>
<g id="a_Node000013"><a xlink:href="format-inl_8h.html#a7d363bad28ecb7c5fda462edcafa09cb" target="_top" xlink:title=" ">
<polygon fill="white" stroke="#666666" points="418.5,-389 362.5,-389 362.5,-370 418.5,-370 418.5,-389"/>
<text text-anchor="middle" x="390.5" y="-377" font-family="Helvetica,sans-Serif" font-size="10.00">vformat</text>
</a>
</g>
</g>
<!-- Node1&#45;&gt;Node13 -->
<g id="edge12_Node000001_Node000013" class="edge">
<title>Node1&#45;&gt;Node13</title>
<g id="a_edge12_Node000001_Node000013"><a xlink:title=" ">
<path fill="none" stroke="#63b8ff" d="M515.21,-342.35C498.6,-348.85 479.6,-355.9 462,-361.5 447.92,-365.98 431.98,-370.13 418.83,-373.31"/>
<polygon fill="#63b8ff" stroke="#63b8ff" points="516.68,-345.54 524.69,-338.6 514.1,-339.03 516.68,-345.54"/>
</a>
</g>
</g>
<!-- Node15 -->
<g id="Node000015" class="node">
<title>Node15</title>
<g id="a_Node000015"><a xlink:href="home_2runner_2work_2CHRONOS-LoRa_2CHRONOS-LoRa_2thirdparty_2fmt_2include_2fmt_2color_8h.html#aadf71aa39d12c7a1ca08c8596c513edd" target="_top" xlink:title=" ">
<polygon fill="white" stroke="#666666" points="418.5,-352 362.5,-352 362.5,-333 418.5,-333 418.5,-352"/>
<text text-anchor="middle" x="390.5" y="-340" font-family="Helvetica,sans-Serif" font-size="10.00">vformat</text>
</a>
</g>
</g>
<!-- Node1&#45;&gt;Node15 -->
<g id="edge14_Node000001_Node000015" class="edge">
<title>Node1&#45;&gt;Node15</title>
<g id="a_edge14_Node000001_Node000015"><a xlink:title=" ">
<path fill="none" stroke="#63b8ff" d="M487.85,-331.7C463.34,-334.45 437.5,-337.34 418.76,-339.44"/>
<polygon fill="#63b8ff" stroke="#63b8ff" points="488.34,-335.17 497.88,-330.57 487.56,-328.21 488.34,-335.17"/>
</a>
</g>
</g>
<!-- Node16 -->
<g id="Node000016" class="node">
<title>Node16</title>
<g id="a_Node000016"><a xlink:href="xchar_8h.html#a0787317722f2961c0ee550a845cfb966" target="_top" xlink:title=" ">
<polygon fill="white" stroke="#666666" points="418.5,-315 362.5,-315 362.5,-296 418.5,-296 418.5,-315"/>
<text text-anchor="middle" x="390.5" y="-303" font-family="Helvetica,sans-Serif" font-size="10.00">vformat</text>
</a>
</g>
</g>
<!-- Node1&#45;&gt;Node16 -->
<g id="edge15_Node000001_Node000016" class="edge">
<title>Node1&#45;&gt;Node16</title>
<g id="a_edge15_Node000001_Node000016"><a xlink:title=" ">
<path fill="none" stroke="#63b8ff" d="M487.85,-315.73C463.34,-313.13 437.5,-310.39 418.76,-308.4"/>
<polygon fill="#63b8ff" stroke="#63b8ff" points="487.57,-319.22 497.88,-316.8 488.31,-312.26 487.57,-319.22"/>
</a>
</g>
</g>
<!-- Node17 -->
<g id="Node000017" class="node">
<title>Node17</title>
<g id="a_Node000017"><a xlink:href="home_2runner_2work_2CHRONOS-LoRa_2CHRONOS-LoRa_2thirdparty_2fmt_2include_2fmt_2color_8h.html#a86192aabb5e3ab5d0461f757afbbfb4e" target="_top" xlink:title=" ">
<polygon fill="white" stroke="#666666" points="413,-278 368,-278 368,-259 413,-259 413,-278"/>
<text text-anchor="middle" x="390.5" y="-266" font-family="Helvetica,sans-Serif" font-size="10.00">vprint</text>
</a>
</g>
</g>
<!-- Node1&#45;&gt;Node17 -->
<g id="edge16_Node000001_Node000017" class="edge">
<title>Node1&#45;&gt;Node17</title>
<g id="a_edge16_Node000001_Node000017"><a xlink:title=" ">
<path fill="none" stroke="#63b8ff" d="M514.34,-304.88C497.93,-298.65 479.27,-291.91 462,-286.5 445.85,-281.44 427.29,-276.74 413.27,-273.42"/>
<polygon fill="#63b8ff" stroke="#63b8ff" points="513.13,-308.17 523.72,-308.48 515.64,-301.63 513.13,-308.17"/>
</a>
</g>
</g>
<!-- Node18 -->
<g id="Node000018" class="node">
<title>Node18</title>
<g id="a_Node000018"><a xlink:href="xchar_8h.html#ad59e14d924bf2fe1d17939ad9d8b8d4a" target="_top" xlink:title=" ">
<polygon fill="white" stroke="#666666" points="413,-241 368,-241 368,-222 413,-222 413,-241"/>
<text text-anchor="middle" x="390.5" y="-229" font-family="Helvetica,sans-Serif" font-size="10.00">vprint</text>
</a>
</g>
</g>
<!-- Node1&#45;&gt;Node18 -->
<g id="edge17_Node000001_Node000018" class="edge">
<title>Node1&#45;&gt;Node18</title>
<g id="a_edge17_Node000001_Node000018"><a xlink:title=" ">
<path fill="none" stroke="#63b8ff" d="M537.58,-301.78C518.54,-285.22 490.29,-263.02 462,-249.5 446.5,-242.09 427.57,-237.47 413.23,-234.77"/>
<polygon fill="#63b8ff" stroke="#63b8ff" points="535.34,-304.48 545.15,-308.49 539.99,-299.24 535.34,-304.48"/>
</a>
</g>
</g>
<!-- Node20 -->
<g id="Node000020" class="node">
<title>Node20</title>
<g id="a_Node000020"><a xlink:href="ostream_8h.html#a5a12ace2368ad2613bac4c16637a97ec" target="_top" xlink:title=" ">
<polygon fill="white" stroke="#666666" points="413,-204 368,-204 368,-185 413,-185 413,-204"/>
<text text-anchor="middle" x="390.5" y="-192" font-family="Helvetica,sans-Serif" font-size="10.00">vprint</text>
</a>
</g>
</g>
<!-- Node1&#45;&gt;Node20 -->
<g id="edge19_Node000001_Node000020" class="edge">
<title>Node1&#45;&gt;Node20</title>
<g id="a_edge19_Node000001_Node000020"><a xlink:title=" ">
<path fill="none" stroke="#63b8ff" d="M546.09,-299.68C528.92,-274.23 498.35,-234.6 462,-212.5 447.1,-203.44 427.78,-198.92 413.13,-196.68"/>
<polygon fill="#63b8ff" stroke="#63b8ff" points="543.38,-301.92 551.8,-308.35 549.23,-298.07 543.38,-301.92"/>
</a>
</g>
</g>
<!-- Node21 -->
<g id="Node000021" class="node">
<title>Node21</title>
<g id="a_Node000021"><a xlink:href="xchar_8h.html#aae096773ff6c45b6cc1555e3bb92c3d3" target="_top" xlink:title=" ">
<polygon fill="white" stroke="#666666" points="413,-167 368,-167 368,-148 413,-148 413,-167"/>
<text text-anchor="middle" x="390.5" y="-155" font-family="Helvetica,sans-Serif" font-size="10.00">vprint</text>
</a>
</g>
</g>
<!-- Node1&#45;&gt;Node21 -->
<g id="edge20_Node000001_Node000021" class="edge">
<title>Node1&#45;&gt;Node21</title>
<g id="a_edge20_Node000001_Node000021"><a xlink:title=" ">
<path fill="none" stroke="#63b8ff" d="M551.23,-298.78C536.8,-265.56 506.6,-207.05 462,-175.5 447.66,-165.36 428.11,-160.93 413.23,-158.99"/>
<polygon fill="#63b8ff" stroke="#63b8ff" points="548.1,-300.36 555.2,-308.22 554.55,-297.65 548.1,-300.36"/>
</a>
</g>
</g>
<!-- Node22 -->
<g id="Node000022" class="node">
<title>Node22</title>
<g id="a_Node000022"><a xlink:href="format-inl_8h.html#a3774f0f4816097d469f11407f83ee394" target="_top" xlink:title=" ">
<polygon fill="white" stroke="#666666" points="436,-130 345,-130 345,-111 436,-111 436,-130"/>
<text text-anchor="middle" x="390.5" y="-118" font-family="Helvetica,sans-Serif" font-size="10.00">vprint_buffered</text>
</a>
</g>
</g>
<!-- Node1&#45;&gt;Node22 -->
<g id="edge21_Node000001_Node000022" class="edge">
<title>Node1&#45;&gt;Node22</title>
<g id="a_edge21_Node000001_Node000022"><a xlink:title=" ">
<path fill="none" stroke="#63b8ff" d="M554.7,-298.57C543.25,-258.53 515.17,-180.17 462,-138.5 454.54,-132.66 445.4,-128.69 436.21,-126.01"/>
<polygon fill="#63b8ff" stroke="#63b8ff" points="551.36,-299.62 557.37,-308.34 558.11,-297.77 551.36,-299.62"/>
</a>
</g>
</g>
<!-- Node23 -->
<g id="Node000023" class="node">
<title>Node23</title>
<g id="a_Node000023"><a xlink:href="format-inl_8h.html#a71033730e1d1c2c72b7905f21929df93" target="_top" xlink:title=" ">
<polygon fill="white" stroke="#666666" points="417.5,-93 363.5,-93 363.5,-74 417.5,-74 417.5,-93"/>
<text text-anchor="middle" x="390.5" y="-81" font-family="Helvetica,sans-Serif" font-size="10.00">vprintln</text>
</a>
</g>
</g>
<!-- Node1&#45;&gt;Node23 -->
<g id="edge22_Node000001_Node000023" class="edge">
<title>Node1&#45;&gt;Node23</title>
<g id="a_edge22_Node000001_Node000023"><a xlink:title=" ">
<path fill="none" stroke="#63b8ff" d="M557.1,-298.34C548.56,-252.12 523.82,-153.64 462,-101.5 449.74,-91.16 432.29,-86.65 417.82,-84.73"/>
<polygon fill="#63b8ff" stroke="#63b8ff" points="553.68,-299.15 558.85,-308.4 560.58,-297.95 553.68,-299.15"/>
</a>
</g>
</g>
<!-- Node24 -->
<g id="Node000024" class="node">
<title>Node24</title>
<g id="a_Node000024"><a xlink:href="namespacedetail.html#a53f64cca161818cc3e0d8ebce2a36335" target="_top" xlink:title=" ">
<polygon fill="white" stroke="#666666" points="437,-56 344,-56 344,-37 437,-37 437,-56"/>
<text text-anchor="middle" x="390.5" y="-44" font-family="Helvetica,sans-Serif" font-size="10.00">detail::write_int</text>
</a>
</g>
</g>
<!-- Node1&#45;&gt;Node24 -->
<g id="edge23_Node000001_Node000024" class="edge">
<title>Node1&#45;&gt;Node24</title>
<g id="a_edge23_Node000001_Node000024"><a xlink:title=" ">
<path fill="none" stroke="#63b8ff" d="M558.89,-298.25C553.16,-246.37 532.63,-127.43 462,-64.5 455.02,-58.28 446.19,-54.15 437.15,-51.43"/>
<polygon fill="#63b8ff" stroke="#63b8ff" points="555.41,-298.65 559.9,-308.25 562.38,-297.95 555.41,-298.65"/>
</a>
</g>
</g>
<!-- Node25 -->
<g id="Node000025" class="node">
<title>Node25</title>
<g id="a_Node000025"><a xlink:href="namespacedetail.html#a289cb079ced65a67e9c17bef575ece59" target="_top" xlink:title=" ">
<polygon fill="white" stroke="#666666" points="457,-19 324,-19 324,0 457,0 457,-19"/>
<text text-anchor="middle" x="390.5" y="-7" font-family="Helvetica,sans-Serif" font-size="10.00">detail::write_significand</text>
</a>
</g>
</g>
<!-- Node1&#45;&gt;Node25 -->
<g id="edge24_Node000001_Node000025" class="edge">
<title>Node1&#45;&gt;Node25</title>
<g id="a_edge24_Node000001_Node000025"><a xlink:title=" ">
<path fill="none" stroke="#63b8ff" d="M560.26,-297.93C557.17,-240.67 541.43,-101.35 462,-27.5 458.39,-24.15 454.25,-21.4 449.81,-19.14"/>
<polygon fill="#63b8ff" stroke="#63b8ff" points="556.78,-298.42 560.73,-308.25 563.77,-298.1 556.78,-298.42"/>
</a>
</g>
</g>
<!-- Node5 -->
<g id="Node000005" class="node">
<title>Node5</title>
<g id="a_Node000005"><a xlink:href="classdetail_1_1tm__writer.html#a4a0487e028e1502e59e0f29f896ff740" target="_top" xlink:title=" ">
<polygon fill="white" stroke="#666666" points="263.5,-596.5 159.5,-596.5 159.5,-566.5 263.5,-566.5 263.5,-596.5"/>
<text text-anchor="start" x="167.5" y="-584.5" font-family="Helvetica,sans-Serif" font-size="10.00">detail::tm_writer::</text>
<text text-anchor="middle" x="211.5" y="-573.5" font-family="Helvetica,sans-Serif" font-size="10.00">on_iso_time</text>
</a>
</g>
</g>
<!-- Node4&#45;&gt;Node5 -->
<g id="edge4_Node000004_Node000005" class="edge">
<title>Node4&#45;&gt;Node5</title>
<g id="a_edge4_Node000004_Node000005"><a xlink:title=" ">
<path fill="none" stroke="#63b8ff" d="M328.17,-581.5C307.1,-581.5 283.75,-581.5 263.58,-581.5"/>
<polygon fill="#63b8ff" stroke="#63b8ff" points="328.3,-585 338.3,-581.5 328.3,-578 328.3,-585"/>
</a>
</g>
</g>
<!-- Node6 -->
<g id="Node000006" class="node">
<title>Node6</title>
<g id="a_Node000006"><a xlink:href="classdetail_1_1tm__writer.html#af53d115957cdef5079ea641b12d8dce9" target="_top" xlink:title=" ">
<polygon fill="white" stroke="#666666" points="104,-620.5 0,-620.5 0,-590.5 104,-590.5 104,-620.5"/>
<text text-anchor="start" x="8" y="-608.5" font-family="Helvetica,sans-Serif" font-size="10.00">detail::tm_writer::</text>
<text text-anchor="middle" x="52" y="-597.5" font-family="Helvetica,sans-Serif" font-size="10.00">on_datetime</text>
</a>
</g>
</g>
<!-- Node5&#45;&gt;Node6 -->
<g id="edge5_Node000005_Node000006" class="edge">
<title>Node5&#45;&gt;Node6</title>
<g id="a_edge5_Node000005_Node000006"><a xlink:title=" ">
<path fill="none" stroke="#63b8ff" d="M149.21,-590.84C134.31,-593.11 118.53,-595.52 104.15,-597.71"/>
<polygon fill="#63b8ff" stroke="#63b8ff" points="150.01,-594.26 159.36,-589.29 148.95,-587.34 150.01,-594.26"/>
</a>
</g>
</g>
<!-- Node7 -->
<g id="Node000007" class="node">
<title>Node7</title>
<g id="a_Node000007"><a xlink:href="classdetail_1_1tm__writer.html#a67832bfe5da8fdfae46367a14fb35d48" target="_top" xlink:title=" ">
<polygon fill="white" stroke="#666666" points="104,-572.5 0,-572.5 0,-542.5 104,-542.5 104,-572.5"/>
<text text-anchor="start" x="8" y="-560.5" font-family="Helvetica,sans-Serif" font-size="10.00">detail::tm_writer::</text>
<text text-anchor="middle" x="52" y="-549.5" font-family="Helvetica,sans-Serif" font-size="10.00">on_loc_time</text>
</a>
</g>
</g>
<!-- Node5&#45;&gt;Node7 -->
<g id="edge6_Node000005_Node000007" class="edge">
<title>Node5&#45;&gt;Node7</title>
<g id="a_edge6_Node000005_Node000007"><a xlink:title=" ">
<path fill="none" stroke="#63b8ff" d="M149.21,-572.16C134.31,-569.89 118.53,-567.48 104.15,-565.29"/>
<polygon fill="#63b8ff" stroke="#63b8ff" points="148.95,-575.66 159.36,-573.71 150.01,-568.74 148.95,-575.66"/>
</a>
</g>
</g>
<!-- Node9 -->
<g id="Node000009" class="node">
<title>Node9</title>
<g id="a_Node000009"><a xlink:href="structdetail_1_1duration__formatter.html#a8044d0b686a0080acbb954da3cab168d" target="_top" xlink:title=" ">
<polygon fill="white" stroke="#666666" points="283,-548.5 140,-548.5 140,-518.5 283,-518.5 283,-548.5"/>
<text text-anchor="start" x="148" y="-536.5" font-family="Helvetica,sans-Serif" font-size="10.00">detail::duration_formatter</text>
<text text-anchor="middle" x="211.5" y="-525.5" font-family="Helvetica,sans-Serif" font-size="10.00">::on_iso_time</text>
</a>
</g>
</g>
<!-- Node8&#45;&gt;Node9 -->
<g id="edge8_Node000008_Node000009" class="edge">
<title>Node8&#45;&gt;Node9</title>
<g id="a_edge8_Node000008_Node000009"><a xlink:title=" ">
<path fill="none" stroke="#63b8ff" d="M308.51,-533.5C300.03,-533.5 291.46,-533.5 283.11,-533.5"/>
<polygon fill="#63b8ff" stroke="#63b8ff" points="308.78,-537 318.78,-533.5 308.78,-530 308.78,-537"/>
</a>
</g>
</g>
<!-- Node14 -->
<g id="Node000014" class="node">
<title>Node14</title>
<g id="a_Node000014"><a xlink:href="format-inl_8h.html#ab41bf8cae80639f211595a96bc63c343" target="_top" xlink:title=" ">
<polygon fill="white" stroke="#666666" points="255,-389 168,-389 168,-370 255,-370 255,-389"/>
<text text-anchor="middle" x="211.5" y="-377" font-family="Helvetica,sans-Serif" font-size="10.00">vsystem_error</text>
</a>
</g>
</g>
<!-- Node13&#45;&gt;Node14 -->
<g id="edge13_Node000013_Node000014" class="edge">
<title>Node13&#45;&gt;Node14</title>
<g id="a_edge13_Node000013_Node000014"><a xlink:title=" ">
<path fill="none" stroke="#63b8ff" d="M351.94,-379.5C323.65,-379.5 284.81,-379.5 255.31,-379.5"/>
<polygon fill="#63b8ff" stroke="#63b8ff" points="352.23,-383 362.23,-379.5 352.23,-376 352.23,-383"/>
</a>
</g>
</g>
<!-- Node19 -->
<g id="Node000019" class="node">
<title>Node19</title>
<g id="a_Node000019"><a xlink:href="xchar_8h.html#ab357e28df4fee8293636aaf7a1662508" target="_top" xlink:title=" ">
<polygon fill="white" stroke="#666666" points="234,-241 189,-241 189,-222 234,-222 234,-241"/>
<text text-anchor="middle" x="211.5" y="-229" font-family="Helvetica,sans-Serif" font-size="10.00">vprint</text>
</a>
</g>
</g>
<!-- Node18&#45;&gt;Node19 -->
<g id="edge18_Node000018_Node000019" class="edge">
<title>Node18&#45;&gt;Node19</title>
<g id="a_edge18_Node000018_Node000019"><a xlink:title=" ">
<path fill="none" stroke="#63b8ff" d="M357.44,-231.5C321.71,-231.5 264.92,-231.5 234.1,-231.5"/>
<polygon fill="#63b8ff" stroke="#63b8ff" points="357.8,-235 367.8,-231.5 357.8,-228 357.8,-235"/>
</a>
</g>
</g>
</g>
</svg>
