<?xml version="1.0" encoding="UTF-8" standalone="no"?>
<!DOCTYPE svg PUBLIC "-//W3C//DTD SVG 1.1//EN"
 "http://www.w3.org/Graphics/SVG/1.1/DTD/svg11.dtd">
<!-- Generated by graphviz version 2.43.0 (0)
 -->
<!-- Title: detail::glibc_file::get_write_buffer Pages: 1 -->
<svg width="382pt" height="60pt"
 viewBox="0.00 0.00 382.00 60.00" xmlns="http://www.w3.org/2000/svg" xmlns:xlink="http://www.w3.org/1999/xlink">
<g id="graph0" class="graph" transform="scale(1 1) rotate(0) translate(4 56)">
<title>detail::glibc_file::get_write_buffer</title>
<!-- Node1 -->
<g id="Node000001" class="node">
<title>Node1</title>
<g id="a_Node000001"><a xlink:title=" ">
<polygon fill="#999999" stroke="#666666" points="374,-41 272,-41 272,-11 374,-11 374,-41"/>
<text text-anchor="start" x="280" y="-29" font-family="Helvetica,sans-Serif" font-size="10.00">detail::glibc_file</text>
<text text-anchor="middle" x="323" y="-18" font-family="Helvetica,sans-Serif" font-size="10.00">::get_write_buffer</text>
</a>
</g>
</g>
<!-- Node2 -->
<g id="Node000002" class="node">
<title>Node2</title>
<g id="a_Node000002"><a xlink:href="classdetail_1_1file__print__buffer_3_01F_00_01enable__if__t_3_01has__flockfile_3_01F_01_4_1_1value_01_4_01_4.html#adbb0888fc63b72c0b222a9e89dfed742" target="_top" xlink:title=" ">
<polygon fill="white" stroke="#666666" points="236,-52 81,-52 81,0 236,0 236,-52"/>
<text text-anchor="start" x="89" y="-40" font-family="Helvetica,sans-Serif" font-size="10.00">detail::file_print</text>
<text text-anchor="start" x="89" y="-29" font-family="Helvetica,sans-Serif" font-size="10.00">_buffer&lt; F, enable_if</text>
<text text-anchor="start" x="89" y="-18" font-family="Helvetica,sans-Serif" font-size="10.00">_t&lt; has_flockfile&lt; F &gt;</text>
<text text-anchor="middle" x="158.5" y="-7" font-family="Helvetica,sans-Serif" font-size="10.00">::value &gt; &gt;::file_print_buffer</text>
</a>
</g>
</g>
<!-- Node1&#45;&gt;Node2 -->
<g id="edge1_Node000001_Node000002" class="edge">
<title>Node1&#45;&gt;Node2</title>
<g id="a_edge1_Node000001_Node000002"><a xlink:title=" ">
<path fill="none" stroke="#63b8ff" d="M261.84,-26C253.42,-26 244.68,-26 236.01,-26"/>
<polygon fill="#63b8ff" stroke="#63b8ff" points="261.92,-29.5 271.92,-26 261.92,-22.5 261.92,-29.5"/>
</a>
</g>
</g>
<!-- Node3 -->
<g id="Node000003" class="node">
<title>Node3</title>
<g id="a_Node000003"><a xlink:href="format-inl_8h.html#a580ab08e935e90e4c3a3cdf45da3cf3a" target="_top" xlink:title=" ">
<polygon fill="white" stroke="#666666" points="45,-35.5 0,-35.5 0,-16.5 45,-16.5 45,-35.5"/>
<text text-anchor="middle" x="22.5" y="-23.5" font-family="Helvetica,sans-Serif" font-size="10.00">vprint</text>
</a>
</g>
</g>
<!-- Node2&#45;&gt;Node3 -->
<g id="edge2_Node000002_Node000003" class="edge">
<title>Node2&#45;&gt;Node3</title>
<g id="a_edge2_Node000002_Node000003"><a xlink:title=" ">
<path fill="none" stroke="#63b8ff" d="M70.43,-26C61.11,-26 52.37,-26 45.01,-26"/>
<polygon fill="#63b8ff" stroke="#63b8ff" points="70.72,-29.5 80.72,-26 70.72,-22.5 70.72,-29.5"/>
</a>
</g>
</g>
</g>
</svg>
