<?xml version="1.0" encoding="UTF-8" standalone="no"?>
<!DOCTYPE svg PUBLIC "-//W3C//DTD SVG 1.1//EN"
 "http://www.w3.org/Graphics/SVG/1.1/DTD/svg11.dtd">
<!-- Generated by graphviz version 2.43.0 (0)
 -->
<!-- Title: cxxopts::exceptions::option_requires_argument::option_requires_argument Pages: 1 -->
<svg width="469pt" height="49pt"
 viewBox="0.00 0.00 469.00 49.00" xmlns="http://www.w3.org/2000/svg" xmlns:xlink="http://www.w3.org/1999/xlink">
<g id="graph0" class="graph" transform="scale(1 1) rotate(0) translate(4 45)">
<title>cxxopts::exceptions::option_requires_argument::option_requires_argument</title>
<!-- Node1 -->
<g id="Node000001" class="node">
<title>Node1</title>
<g id="a_Node000001"><a xlink:title=" ">
<polygon fill="#999999" stroke="#666666" points="151,-41 0,-41 0,0 151,0 151,-41"/>
<text text-anchor="start" x="8" y="-29" font-family="Helvetica,sans-Serif" font-size="10.00">cxxopts::exceptions</text>
<text text-anchor="start" x="8" y="-18" font-family="Helvetica,sans-Serif" font-size="10.00">::option_requires_argument</text>
<text text-anchor="middle" x="75.5" y="-7" font-family="Helvetica,sans-Serif" font-size="10.00">::option_requires_argument</text>
</a>
</g>
</g>
<!-- Node2 -->
<g id="Node000002" class="node">
<title>Node2</title>
<g id="a_Node000002"><a xlink:href="classcxxopts_1_1exceptions_1_1parsing.html#ad40b741e8c5aba5e4be33c37d84cb09e" target="_top" xlink:title=" ">
<polygon fill="white" stroke="#666666" points="300,-35.5 187,-35.5 187,-5.5 300,-5.5 300,-35.5"/>
<text text-anchor="start" x="195" y="-23.5" font-family="Helvetica,sans-Serif" font-size="10.00">cxxopts::exceptions</text>
<text text-anchor="middle" x="243.5" y="-12.5" font-family="Helvetica,sans-Serif" font-size="10.00">::parsing::parsing</text>
</a>
</g>
</g>
<!-- Node1&#45;&gt;Node2 -->
<g id="edge1_Node000001_Node000002" class="edge">
<title>Node1&#45;&gt;Node2</title>
<g id="a_edge1_Node000001_Node000002"><a xlink:title=" ">
<path fill="none" stroke="#63b8ff" d="M151.24,-20.5C159.69,-20.5 168.25,-20.5 176.56,-20.5"/>
<polygon fill="#63b8ff" stroke="#63b8ff" points="176.57,-24 186.57,-20.5 176.57,-17 176.57,-24"/>
</a>
</g>
</g>
<!-- Node3 -->
<g id="Node000003" class="node">
<title>Node3</title>
<g id="a_Node000003"><a xlink:href="classcxxopts_1_1exceptions_1_1exception.html#a4f28a7e472811e1917d3c69c972ef832" target="_top" xlink:title=" ">
<polygon fill="white" stroke="#666666" points="461,-35.5 336,-35.5 336,-5.5 461,-5.5 461,-35.5"/>
<text text-anchor="start" x="344" y="-23.5" font-family="Helvetica,sans-Serif" font-size="10.00">cxxopts::exceptions</text>
<text text-anchor="middle" x="398.5" y="-12.5" font-family="Helvetica,sans-Serif" font-size="10.00">::exception::exception</text>
</a>
</g>
</g>
<!-- Node2&#45;&gt;Node3 -->
<g id="edge2_Node000002_Node000003" class="edge">
<title>Node2&#45;&gt;Node3</title>
<g id="a_edge2_Node000002_Node000003"><a xlink:title=" ">
<path fill="none" stroke="#63b8ff" d="M300.17,-20.5C308.52,-20.5 317.23,-20.5 325.86,-20.5"/>
<polygon fill="#63b8ff" stroke="#63b8ff" points="325.92,-24 335.92,-20.5 325.92,-17 325.92,-24"/>
</a>
</g>
</g>
</g>
</svg>
