<?xml version="1.0" encoding="UTF-8" standalone="no"?>
<!DOCTYPE svg PUBLIC "-//W3C//DTD SVG 1.1//EN"
 "http://www.w3.org/Graphics/SVG/1.1/DTD/svg11.dtd">
<!-- Generated by graphviz version 2.43.0 (0)
 -->
<!-- Title: detail::bigint::subtract_aligned Pages: 1 -->
<svg width="450pt" height="165pt"
 viewBox="0.00 0.00 450.00 165.00" xmlns="http://www.w3.org/2000/svg" xmlns:xlink="http://www.w3.org/1999/xlink">
<g id="graph0" class="graph" transform="scale(1 1) rotate(0) translate(4 161)">
<title>detail::bigint::subtract_aligned</title>
<!-- Node1 -->
<g id="Node000001" class="node">
<title>Node1</title>
<g id="a_Node000001"><a xlink:title=" ">
<polygon fill="#999999" stroke="#666666" points="124,-73 0,-73 0,-43 124,-43 124,-73"/>
<text text-anchor="start" x="8" y="-61" font-family="Helvetica,sans-Serif" font-size="10.00">detail::bigint::subtract</text>
<text text-anchor="middle" x="62" y="-50" font-family="Helvetica,sans-Serif" font-size="10.00">_aligned</text>
</a>
</g>
</g>
<!-- Node2 -->
<g id="Node000002" class="node">
<title>Node2</title>
<g id="a_Node000002"><a xlink:href="classdetail_1_1bigint.html#ae750f01e552f13e9f3e7001ac78163d1" target="_top" xlink:title=" ">
<polygon fill="white" stroke="#666666" points="283,-116 161,-116 161,-86 283,-86 283,-116"/>
<text text-anchor="start" x="169" y="-104" font-family="Helvetica,sans-Serif" font-size="10.00">detail::bigint::remove</text>
<text text-anchor="middle" x="222" y="-93" font-family="Helvetica,sans-Serif" font-size="10.00">_leading_zeros</text>
</a>
</g>
</g>
<!-- Node1&#45;&gt;Node2 -->
<g id="edge1_Node000001_Node000002" class="edge">
<title>Node1&#45;&gt;Node2</title>
<g id="a_edge1_Node000001_Node000002"><a xlink:title=" ">
<path fill="none" stroke="#63b8ff" d="M118.26,-73.04C130.41,-76.35 143.38,-79.88 155.88,-83.28"/>
<polygon fill="#63b8ff" stroke="#63b8ff" points="155.2,-86.72 165.77,-85.97 157.04,-79.97 155.2,-86.72"/>
</a>
</g>
</g>
<!-- Node4 -->
<g id="Node000004" class="node">
<title>Node4</title>
<g id="a_Node000004"><a xlink:href="classdetail_1_1buffer.html#a8685285932360c284d19003fc4ba3edc" target="_top" xlink:title="Returns the size of this buffer.">
<polygon fill="white" stroke="#666666" points="433,-70.5 329,-70.5 329,-51.5 433,-51.5 433,-70.5"/>
<text text-anchor="middle" x="381" y="-58.5" font-family="Helvetica,sans-Serif" font-size="10.00">detail::buffer::size</text>
</a>
</g>
</g>
<!-- Node1&#45;&gt;Node4 -->
<g id="edge5_Node000001_Node000004" class="edge">
<title>Node1&#45;&gt;Node4</title>
<g id="a_edge5_Node000001_Node000004"><a xlink:title=" ">
<path fill="none" stroke="#63b8ff" d="M124.12,-58.58C180.1,-59.11 262.53,-59.89 318.6,-60.42"/>
<polygon fill="#63b8ff" stroke="#63b8ff" points="318.72,-63.92 328.75,-60.51 318.78,-56.92 318.72,-63.92"/>
</a>
</g>
</g>
<!-- Node6 -->
<g id="Node000006" class="node">
<title>Node6</title>
<g id="a_Node000006"><a xlink:href="classdetail_1_1bigint.html#a58e6d906eab89170f8d83865302bb8cb" target="_top" xlink:title=" ">
<polygon fill="white" stroke="#666666" points="284,-30 160,-30 160,0 284,0 284,-30"/>
<text text-anchor="start" x="168" y="-18" font-family="Helvetica,sans-Serif" font-size="10.00">detail::bigint::subtract</text>
<text text-anchor="middle" x="222" y="-7" font-family="Helvetica,sans-Serif" font-size="10.00">_bigits</text>
</a>
</g>
</g>
<!-- Node1&#45;&gt;Node6 -->
<g id="edge6_Node000001_Node000006" class="edge">
<title>Node1&#45;&gt;Node6</title>
<g id="a_edge6_Node000001_Node000006"><a xlink:title=" ">
<path fill="none" stroke="#63b8ff" d="M118.26,-42.96C130.41,-39.65 143.38,-36.12 155.88,-32.72"/>
<polygon fill="#63b8ff" stroke="#63b8ff" points="157.04,-36.03 165.77,-30.03 155.2,-29.28 157.04,-36.03"/>
</a>
</g>
</g>
<!-- Node3 -->
<g id="Node000003" class="node">
<title>Node3</title>
<g id="a_Node000003"><a xlink:href="classbasic__memory__buffer.html#a9a5d3f229ccaf48e4176d7cdcfd84383" target="_top" xlink:title=" ">
<polygon fill="white" stroke="#666666" points="442,-157 320,-157 320,-127 442,-127 442,-157"/>
<text text-anchor="start" x="328" y="-145" font-family="Helvetica,sans-Serif" font-size="10.00">basic_memory_buffer</text>
<text text-anchor="middle" x="381" y="-134" font-family="Helvetica,sans-Serif" font-size="10.00">::resize</text>
</a>
</g>
</g>
<!-- Node2&#45;&gt;Node3 -->
<g id="edge2_Node000002_Node000003" class="edge">
<title>Node2&#45;&gt;Node3</title>
<g id="a_edge2_Node000002_Node000003"><a xlink:title=" ">
<path fill="none" stroke="#63b8ff" d="M280.57,-116.03C291.02,-118.76 302.01,-121.63 312.71,-124.43"/>
<polygon fill="#63b8ff" stroke="#63b8ff" points="311.88,-127.83 322.44,-126.97 313.65,-121.05 311.88,-127.83"/>
</a>
</g>
</g>
<!-- Node2&#45;&gt;Node4 -->
<g id="edge3_Node000002_Node000004" class="edge">
<title>Node2&#45;&gt;Node4</title>
<g id="a_edge3_Node000002_Node000004"><a xlink:title=" ">
<path fill="none" stroke="#63b8ff" d="M281.91,-85.99C298.61,-81.74 316.58,-77.16 332.51,-73.1"/>
<polygon fill="#63b8ff" stroke="#63b8ff" points="333.83,-76.38 342.65,-70.51 332.1,-69.59 333.83,-76.38"/>
</a>
</g>
</g>
<!-- Node5 -->
<g id="Node000005" class="node">
<title>Node5</title>
<g id="a_Node000005"><a xlink:href="namespacedetail.html#a4855e668246c731a97484efc329f2aac" target="_top" xlink:title=" ">
<polygon fill="white" stroke="#666666" points="436,-108.5 326,-108.5 326,-89.5 436,-89.5 436,-108.5"/>
<text text-anchor="middle" x="381" y="-96.5" font-family="Helvetica,sans-Serif" font-size="10.00">detail::to_unsigned</text>
</a>
</g>
</g>
<!-- Node2&#45;&gt;Node5 -->
<g id="edge4_Node000002_Node000005" class="edge">
<title>Node2&#45;&gt;Node5</title>
<g id="a_edge4_Node000002_Node000005"><a xlink:title=" ">
<path fill="none" stroke="#63b8ff" d="M283.25,-100.23C293.87,-100.1 304.95,-99.96 315.68,-99.82"/>
<polygon fill="#63b8ff" stroke="#63b8ff" points="315.86,-103.32 325.82,-99.69 315.77,-96.32 315.86,-103.32"/>
</a>
</g>
</g>
</g>
</svg>
