<?xml version="1.0" encoding="UTF-8" standalone="no"?>
<!DOCTYPE svg PUBLIC "-//W3C//DTD SVG 1.1//EN"
 "http://www.w3.org/Graphics/SVG/1.1/DTD/svg11.dtd">
<!-- Generated by graphviz version 2.43.0 (0)
 -->
<!-- Title: detail::bigint::align Pages: 1 -->
<svg width="274pt" height="187pt"
 viewBox="0.00 0.00 274.00 187.00" xmlns="http://www.w3.org/2000/svg" xmlns:xlink="http://www.w3.org/1999/xlink">
<g id="graph0" class="graph" transform="scale(1 1) rotate(0) translate(4 183)">
<title>detail::bigint::align</title>
<!-- Node1 -->
<g id="Node000001" class="node">
<title>Node1</title>
<g id="a_Node000001"><a xlink:title=" ">
<polygon fill="#999999" stroke="#666666" points="108,-99 0,-99 0,-80 108,-80 108,-99"/>
<text text-anchor="middle" x="54" y="-87" font-family="Helvetica,sans-Serif" font-size="10.00">detail::bigint::align</text>
</a>
</g>
</g>
<!-- Node2 -->
<g id="Node000002" class="node">
<title>Node2</title>
<g id="a_Node000002"><a xlink:href="classdetail_1_1buffer.html#aeb33e0a2d2be2bbca9e0236c148089c8" target="_top" xlink:title="Returns a pointer to the buffer data (not null&#45;terminated).">
<polygon fill="white" stroke="#666666" points="258.5,-179 151.5,-179 151.5,-160 258.5,-160 258.5,-179"/>
<text text-anchor="middle" x="205" y="-167" font-family="Helvetica,sans-Serif" font-size="10.00">detail::buffer::data</text>
</a>
</g>
</g>
<!-- Node1&#45;&gt;Node2 -->
<g id="edge1_Node000001_Node000002" class="edge">
<title>Node1&#45;&gt;Node2</title>
<g id="a_edge1_Node000001_Node000002"><a xlink:title=" ">
<path fill="none" stroke="#63b8ff" d="M66.35,-99.2C82.58,-112.64 113.82,-136.92 144,-151.5 147.8,-153.34 151.83,-155.03 155.93,-156.58"/>
<polygon fill="#63b8ff" stroke="#63b8ff" points="154.95,-159.95 165.54,-159.94 157.26,-153.34 154.95,-159.95"/>
</a>
</g>
</g>
<!-- Node3 -->
<g id="Node000003" class="node">
<title>Node3</title>
<g id="a_Node000003"><a xlink:href="namespacedetail.html#a818b390bd30ad25b638f7b067cb50f15" target="_top" xlink:title=" ">
<polygon fill="white" stroke="#666666" points="242,-142 168,-142 168,-123 242,-123 242,-142"/>
<text text-anchor="middle" x="205" y="-130" font-family="Helvetica,sans-Serif" font-size="10.00">detail::fill_n</text>
</a>
</g>
</g>
<!-- Node1&#45;&gt;Node3 -->
<g id="edge2_Node000001_Node000003" class="edge">
<title>Node1&#45;&gt;Node3</title>
<g id="a_edge2_Node000001_Node000003"><a xlink:title=" ">
<path fill="none" stroke="#63b8ff" d="M88.07,-99.04C109.67,-105.28 138.1,-113.48 161.39,-120.2"/>
<polygon fill="#63b8ff" stroke="#63b8ff" points="160.45,-123.57 171.02,-122.98 162.39,-116.85 160.45,-123.57"/>
</a>
</g>
</g>
<!-- Node4 -->
<g id="Node000004" class="node">
<title>Node4</title>
<g id="a_Node000004"><a xlink:href="classbasic__memory__buffer.html#a9a5d3f229ccaf48e4176d7cdcfd84383" target="_top" xlink:title=" ">
<polygon fill="white" stroke="#666666" points="266,-104.5 144,-104.5 144,-74.5 266,-74.5 266,-104.5"/>
<text text-anchor="start" x="152" y="-92.5" font-family="Helvetica,sans-Serif" font-size="10.00">basic_memory_buffer</text>
<text text-anchor="middle" x="205" y="-81.5" font-family="Helvetica,sans-Serif" font-size="10.00">::resize</text>
</a>
</g>
</g>
<!-- Node1&#45;&gt;Node4 -->
<g id="edge3_Node000001_Node000004" class="edge">
<title>Node1&#45;&gt;Node4</title>
<g id="a_edge3_Node000001_Node000004"><a xlink:title=" ">
<path fill="none" stroke="#63b8ff" d="M108.37,-89.5C116.65,-89.5 125.32,-89.5 133.9,-89.5"/>
<polygon fill="#63b8ff" stroke="#63b8ff" points="133.91,-93 143.91,-89.5 133.91,-86 133.91,-93"/>
</a>
</g>
</g>
<!-- Node5 -->
<g id="Node000005" class="node">
<title>Node5</title>
<g id="a_Node000005"><a xlink:href="classdetail_1_1buffer.html#a8685285932360c284d19003fc4ba3edc" target="_top" xlink:title="Returns the size of this buffer.">
<polygon fill="white" stroke="#666666" points="257,-56 153,-56 153,-37 257,-37 257,-56"/>
<text text-anchor="middle" x="205" y="-44" font-family="Helvetica,sans-Serif" font-size="10.00">detail::buffer::size</text>
</a>
</g>
</g>
<!-- Node1&#45;&gt;Node5 -->
<g id="edge4_Node000001_Node000005" class="edge">
<title>Node1&#45;&gt;Node5</title>
<g id="a_edge4_Node000001_Node000005"><a xlink:title=" ">
<path fill="none" stroke="#63b8ff" d="M88.07,-79.96C109.67,-73.72 138.1,-65.52 161.39,-58.8"/>
<polygon fill="#63b8ff" stroke="#63b8ff" points="162.39,-62.15 171.02,-56.02 160.45,-55.43 162.39,-62.15"/>
</a>
</g>
</g>
<!-- Node6 -->
<g id="Node000006" class="node">
<title>Node6</title>
<g id="a_Node000006"><a xlink:href="namespacedetail.html#a4855e668246c731a97484efc329f2aac" target="_top" xlink:title=" ">
<polygon fill="white" stroke="#666666" points="260,-19 150,-19 150,0 260,0 260,-19"/>
<text text-anchor="middle" x="205" y="-7" font-family="Helvetica,sans-Serif" font-size="10.00">detail::to_unsigned</text>
</a>
</g>
</g>
<!-- Node1&#45;&gt;Node6 -->
<g id="edge5_Node000001_Node000006" class="edge">
<title>Node1&#45;&gt;Node6</title>
<g id="a_edge5_Node000001_Node000006"><a xlink:title=" ">
<path fill="none" stroke="#63b8ff" d="M66.68,-79.81C83.06,-66.63 114.2,-43.03 144,-28.5 148.55,-26.28 153.41,-24.24 158.33,-22.39"/>
<polygon fill="#63b8ff" stroke="#63b8ff" points="159.52,-25.69 167.79,-19.07 157.2,-19.08 159.52,-25.69"/>
</a>
</g>
</g>
</g>
</svg>
