<?xml version="1.0" encoding="UTF-8" standalone="no"?>
<!DOCTYPE svg PUBLIC "-//W3C//DTD SVG 1.1//EN"
 "http://www.w3.org/Graphics/SVG/1.1/DTD/svg11.dtd">
<!-- Generated by graphviz version 2.43.0 (0)
 -->
<!-- Title: basic_format_args::max_size Pages: 1 -->
<svg width="675pt" height="434pt"
 viewBox="0.00 0.00 675.00 434.00" xmlns="http://www.w3.org/2000/svg" xmlns:xlink="http://www.w3.org/1999/xlink">
<g id="graph0" class="graph" transform="scale(1 1) rotate(0) translate(4 430)">
<title>basic_format_args::max_size</title>
<!-- Node1 -->
<g id="Node000001" class="node">
<title>Node1</title>
<g id="a_Node000001"><a xlink:title=" ">
<polygon fill="#999999" stroke="#666666" points="667,-245.5 554,-245.5 554,-215.5 667,-215.5 667,-245.5"/>
<text text-anchor="start" x="562" y="-233.5" font-family="Helvetica,sans-Serif" font-size="10.00">basic_format_args::</text>
<text text-anchor="middle" x="610.5" y="-222.5" font-family="Helvetica,sans-Serif" font-size="10.00">max_size</text>
</a>
</g>
</g>
<!-- Node2 -->
<g id="Node000002" class="node">
<title>Node2</title>
<g id="a_Node000002"><a xlink:href="classbasic__format__args.html#a3339d3a4e4daaf7bb0de1a8084e7f086" target="_top" xlink:title="Returns the argument with the specified id.">
<polygon fill="white" stroke="#666666" points="518,-240 390,-240 390,-221 518,-221 518,-240"/>
<text text-anchor="middle" x="454" y="-228" font-family="Helvetica,sans-Serif" font-size="10.00">basic_format_args::get</text>
</a>
</g>
</g>
<!-- Node1&#45;&gt;Node2 -->
<g id="edge1_Node000001_Node000002" class="edge">
<title>Node1&#45;&gt;Node2</title>
<g id="a_edge1_Node000001_Node000002"><a xlink:title=" ">
<path fill="none" stroke="#63b8ff" d="M543.53,-230.5C535.08,-230.5 526.44,-230.5 518.04,-230.5"/>
<polygon fill="#63b8ff" stroke="#63b8ff" points="543.72,-234 553.72,-230.5 543.72,-227 543.72,-234"/>
</a>
</g>
</g>
<!-- Node3 -->
<g id="Node000003" class="node">
<title>Node3</title>
<g id="a_Node000003"><a xlink:href="classcontext.html#affbf0489e1c9f6d7273f1ca331cf9317" target="_top" xlink:title=" ">
<polygon fill="white" stroke="#666666" points="339.5,-259 264.5,-259 264.5,-240 339.5,-240 339.5,-259"/>
<text text-anchor="middle" x="302" y="-247" font-family="Helvetica,sans-Serif" font-size="10.00">context::arg</text>
</a>
</g>
</g>
<!-- Node2&#45;&gt;Node3 -->
<g id="edge2_Node000002_Node000003" class="edge">
<title>Node2&#45;&gt;Node3</title>
<g id="a_edge2_Node000002_Node000003"><a xlink:title=" ">
<path fill="none" stroke="#63b8ff" d="M379.71,-239.78C365.77,-241.55 351.75,-243.32 339.58,-244.87"/>
<polygon fill="#63b8ff" stroke="#63b8ff" points="380.34,-243.23 389.82,-238.5 379.46,-236.29 380.34,-243.23"/>
</a>
</g>
</g>
<!-- Node4 -->
<g id="Node000004" class="node">
<title>Node4</title>
<g id="a_Node000004"><a xlink:href="namespacedetail.html#a374a461d344b73468831b40acf5e4635" target="_top" xlink:title=" ">
<polygon fill="white" stroke="#666666" points="354,-222 250,-222 250,-203 354,-203 354,-222"/>
<text text-anchor="middle" x="302" y="-210" font-family="Helvetica,sans-Serif" font-size="10.00">detail::vformat_to</text>
</a>
</g>
</g>
<!-- Node2&#45;&gt;Node4 -->
<g id="edge3_Node000002_Node000004" class="edge">
<title>Node2&#45;&gt;Node4</title>
<g id="a_edge3_Node000002_Node000004"><a xlink:title=" ">
<path fill="none" stroke="#63b8ff" d="M379.75,-221.71C371.14,-220.68 362.5,-219.64 354.28,-218.65"/>
<polygon fill="#63b8ff" stroke="#63b8ff" points="379.48,-225.2 389.82,-222.92 380.31,-218.25 379.48,-225.2"/>
</a>
</g>
</g>
<!-- Node5 -->
<g id="Node000005" class="node">
<title>Node5</title>
<g id="a_Node000005"><a xlink:href="base_8h.html#a0f9a011c5e8bf359e75651cbdc411941" target="_top" xlink:title="Returns the number of chars in the output of format(fmt, args...).">
<polygon fill="white" stroke="#666666" points="213.5,-426 123.5,-426 123.5,-407 213.5,-407 213.5,-426"/>
<text text-anchor="middle" x="168.5" y="-414" font-family="Helvetica,sans-Serif" font-size="10.00">formatted_size</text>
</a>
</g>
</g>
<!-- Node4&#45;&gt;Node5 -->
<g id="edge4_Node000004_Node000005" class="edge">
<title>Node4&#45;&gt;Node5</title>
<g id="a_edge4_Node000004_Node000005"><a xlink:title=" ">
<path fill="none" stroke="#63b8ff" d="M253.73,-227.79C252.4,-228.94 251.15,-230.17 250,-231.5 200.32,-288.92 262.88,-340.4 214,-398.5 211.1,-401.94 207.45,-404.74 203.48,-407"/>
<polygon fill="#63b8ff" stroke="#63b8ff" points="255.78,-230.63 262.09,-222.11 251.85,-224.84 255.78,-230.63"/>
</a>
</g>
</g>
<!-- Node6 -->
<g id="Node000006" class="node">
<title>Node6</title>
<g id="a_Node000006"><a xlink:href="format_8h.html#ab1aace0cb1b8ea506c95aa46d713e881" target="_top" xlink:title=" ">
<polygon fill="white" stroke="#666666" points="213.5,-389 123.5,-389 123.5,-370 213.5,-370 213.5,-389"/>
<text text-anchor="middle" x="168.5" y="-377" font-family="Helvetica,sans-Serif" font-size="10.00">formatted_size</text>
</a>
</g>
</g>
<!-- Node4&#45;&gt;Node6 -->
<g id="edge5_Node000004_Node000006" class="edge">
<title>Node4&#45;&gt;Node6</title>
<g id="a_edge5_Node000004_Node000006"><a xlink:title=" ">
<path fill="none" stroke="#63b8ff" d="M254.36,-227.44C252.81,-228.69 251.34,-230.04 250,-231.5 209.48,-275.69 253.9,-316.76 214,-361.5 211,-364.86 207.29,-367.6 203.3,-369.84"/>
<polygon fill="#63b8ff" stroke="#63b8ff" points="256.27,-230.37 262.8,-222.03 252.49,-224.48 256.27,-230.37"/>
</a>
</g>
</g>
<!-- Node7 -->
<g id="Node000007" class="node">
<title>Node7</title>
<g id="a_Node000007"><a xlink:href="ostream_8h.html#a3883cc4dedb6840173d3ca9699e7693c" target="_top" xlink:title=" ">
<polygon fill="white" stroke="#666666" points="188,-352 149,-352 149,-333 188,-333 188,-352"/>
<text text-anchor="middle" x="168.5" y="-340" font-family="Helvetica,sans-Serif" font-size="10.00">print</text>
</a>
</g>
</g>
<!-- Node4&#45;&gt;Node7 -->
<g id="edge6_Node000004_Node000007" class="edge">
<title>Node4&#45;&gt;Node7</title>
<g id="a_edge6_Node000004_Node000007"><a xlink:title=" ">
<path fill="none" stroke="#63b8ff" d="M254.72,-227.48C253.04,-228.72 251.46,-230.06 250,-231.5 218.46,-262.64 245.1,-292.92 214,-324.5 207.1,-331.51 197.11,-335.88 188.34,-338.55"/>
<polygon fill="#63b8ff" stroke="#63b8ff" points="256.9,-230.26 263.67,-222.11 253.29,-224.26 256.9,-230.26"/>
</a>
</g>
</g>
<!-- Node8 -->
<g id="Node000008" class="node">
<title>Node8</title>
<g id="a_Node000008"><a xlink:href="format_8h.html#a5ef22e73c121e5454e75a221470d3214" target="_top" xlink:title=" ">
<polygon fill="white" stroke="#666666" points="196.5,-315 140.5,-315 140.5,-296 196.5,-296 196.5,-315"/>
<text text-anchor="middle" x="168.5" y="-303" font-family="Helvetica,sans-Serif" font-size="10.00">vformat</text>
</a>
</g>
</g>
<!-- Node4&#45;&gt;Node8 -->
<g id="edge7_Node000004_Node000008" class="edge">
<title>Node4&#45;&gt;Node8</title>
<g id="a_edge7_Node000004_Node000008"><a xlink:title=" ">
<path fill="none" stroke="#63b8ff" d="M257.22,-226.55C254.67,-228.05 252.24,-229.69 250,-231.5 226.96,-250.06 236.78,-268.62 214,-287.5 208.99,-291.65 202.91,-294.94 196.86,-297.51"/>
<polygon fill="#63b8ff" stroke="#63b8ff" points="258.84,-229.65 266.18,-222.01 255.68,-223.41 258.84,-229.65"/>
</a>
</g>
</g>
<!-- Node9 -->
<g id="Node000009" class="node">
<title>Node9</title>
<g id="a_Node000009"><a xlink:href="format-inl_8h.html#a7d363bad28ecb7c5fda462edcafa09cb" target="_top" xlink:title=" ">
<polygon fill="white" stroke="#666666" points="196.5,-278 140.5,-278 140.5,-259 196.5,-259 196.5,-278"/>
<text text-anchor="middle" x="168.5" y="-266" font-family="Helvetica,sans-Serif" font-size="10.00">vformat</text>
</a>
</g>
</g>
<!-- Node4&#45;&gt;Node9 -->
<g id="edge8_Node000004_Node000009" class="edge">
<title>Node4&#45;&gt;Node9</title>
<g id="a_edge8_Node000004_Node000009"><a xlink:title=" ">
<path fill="none" stroke="#63b8ff" d="M263.91,-225.68C259.19,-227.54 254.45,-229.5 250,-231.5 233.49,-238.9 230.41,-242.88 214,-250.5 207.8,-253.38 201.01,-256.26 194.64,-258.85"/>
<polygon fill="#63b8ff" stroke="#63b8ff" points="265.39,-228.86 273.48,-222.01 262.89,-222.32 265.39,-228.86"/>
</a>
</g>
</g>
<!-- Node11 -->
<g id="Node000011" class="node">
<title>Node11</title>
<g id="a_Node000011"><a xlink:href="base_8h.html#a3683dd5284154b2cc412c5623a3a850c" target="_top" xlink:title="Formats a string and writes the output to out.">
<polygon fill="white" stroke="#666666" points="204,-241 133,-241 133,-222 204,-222 204,-241"/>
<text text-anchor="middle" x="168.5" y="-229" font-family="Helvetica,sans-Serif" font-size="10.00">vformat_to</text>
</a>
</g>
</g>
<!-- Node4&#45;&gt;Node11 -->
<g id="edge10_Node000004_Node000011" class="edge">
<title>Node4&#45;&gt;Node11</title>
<g id="a_edge10_Node000004_Node000011"><a xlink:title=" ">
<path fill="none" stroke="#63b8ff" d="M239.63,-221.37C227.44,-223.13 215.05,-224.92 204.14,-226.49"/>
<polygon fill="#63b8ff" stroke="#63b8ff" points="240.39,-224.79 249.78,-219.9 239.38,-217.87 240.39,-224.79"/>
</a>
</g>
</g>
<!-- Node12 -->
<g id="Node000012" class="node">
<title>Node12</title>
<g id="a_Node000012"><a xlink:href="format_8h.html#a638dbdb7adfce93e0439e764bdd1433a" target="_top" xlink:title=" ">
<polygon fill="white" stroke="#666666" points="204,-204 133,-204 133,-185 204,-185 204,-204"/>
<text text-anchor="middle" x="168.5" y="-192" font-family="Helvetica,sans-Serif" font-size="10.00">vformat_to</text>
</a>
</g>
</g>
<!-- Node4&#45;&gt;Node12 -->
<g id="edge11_Node000004_Node000012" class="edge">
<title>Node4&#45;&gt;Node12</title>
<g id="a_edge11_Node000004_Node000012"><a xlink:title=" ">
<path fill="none" stroke="#63b8ff" d="M239.63,-204.1C227.44,-202.43 215.05,-200.73 204.14,-199.24"/>
<polygon fill="#63b8ff" stroke="#63b8ff" points="239.4,-207.6 249.78,-205.49 240.35,-200.67 239.4,-207.6"/>
</a>
</g>
</g>
<!-- Node13 -->
<g id="Node000013" class="node">
<title>Node13</title>
<g id="a_Node000013"><a xlink:href="base_8h.html#a45a3c74fd5764c3be13025cacbcb02b2" target="_top" xlink:title=" ">
<polygon fill="white" stroke="#666666" points="209.5,-167 127.5,-167 127.5,-148 209.5,-148 209.5,-167"/>
<text text-anchor="middle" x="168.5" y="-155" font-family="Helvetica,sans-Serif" font-size="10.00">vformat_to_n</text>
</a>
</g>
</g>
<!-- Node4&#45;&gt;Node13 -->
<g id="edge12_Node000004_Node000013" class="edge">
<title>Node4&#45;&gt;Node13</title>
<g id="a_edge12_Node000004_Node000013"><a xlink:title=" ">
<path fill="none" stroke="#63b8ff" d="M268.83,-199.05C245.23,-189.17 213.73,-176 192.58,-167.16"/>
<polygon fill="#63b8ff" stroke="#63b8ff" points="267.52,-202.29 278.09,-202.92 270.22,-195.83 267.52,-202.29"/>
</a>
</g>
</g>
<!-- Node14 -->
<g id="Node000014" class="node">
<title>Node14</title>
<g id="a_Node000014"><a xlink:href="format-inl_8h.html#a580ab08e935e90e4c3a3cdf45da3cf3a" target="_top" xlink:title=" ">
<polygon fill="white" stroke="#666666" points="191,-130 146,-130 146,-111 191,-111 191,-130"/>
<text text-anchor="middle" x="168.5" y="-118" font-family="Helvetica,sans-Serif" font-size="10.00">vprint</text>
</a>
</g>
</g>
<!-- Node4&#45;&gt;Node14 -->
<g id="edge13_Node000004_Node000014" class="edge">
<title>Node4&#45;&gt;Node14</title>
<g id="a_edge13_Node000004_Node000014"><a xlink:title=" ">
<path fill="none" stroke="#63b8ff" d="M284.22,-195.8C267.51,-179.83 240.57,-155.82 214,-139.5 206.99,-135.19 198.82,-131.4 191.41,-128.35"/>
<polygon fill="#63b8ff" stroke="#63b8ff" points="281.95,-198.47 291.56,-202.93 286.83,-193.45 281.95,-198.47"/>
</a>
</g>
</g>
<!-- Node15 -->
<g id="Node000015" class="node">
<title>Node15</title>
<g id="a_Node000015"><a xlink:href="ostream_8h.html#a5a12ace2368ad2613bac4c16637a97ec" target="_top" xlink:title=" ">
<polygon fill="white" stroke="#666666" points="191,-93 146,-93 146,-74 191,-74 191,-93"/>
<text text-anchor="middle" x="168.5" y="-81" font-family="Helvetica,sans-Serif" font-size="10.00">vprint</text>
</a>
</g>
</g>
<!-- Node4&#45;&gt;Node15 -->
<g id="edge14_Node000004_Node000015" class="edge">
<title>Node4&#45;&gt;Node15</title>
<g id="a_edge14_Node000004_Node000015"><a xlink:title=" ">
<path fill="none" stroke="#63b8ff" d="M290.53,-194.16C276.05,-170.23 247.84,-128.36 214,-102.5 207.19,-97.3 198.74,-93.22 191.05,-90.21"/>
<polygon fill="#63b8ff" stroke="#63b8ff" points="287.61,-196.11 295.71,-202.94 293.64,-192.55 287.61,-196.11"/>
</a>
</g>
</g>
<!-- Node16 -->
<g id="Node000016" class="node">
<title>Node16</title>
<g id="a_Node000016"><a xlink:href="format-inl_8h.html#a3774f0f4816097d469f11407f83ee394" target="_top" xlink:title=" ">
<polygon fill="white" stroke="#666666" points="214,-56 123,-56 123,-37 214,-37 214,-56"/>
<text text-anchor="middle" x="168.5" y="-44" font-family="Helvetica,sans-Serif" font-size="10.00">vprint_buffered</text>
</a>
</g>
</g>
<!-- Node4&#45;&gt;Node16 -->
<g id="edge15_Node000004_Node000016" class="edge">
<title>Node4&#45;&gt;Node16</title>
<g id="a_edge15_Node000004_Node000016"><a xlink:title=" ">
<path fill="none" stroke="#63b8ff" d="M294.19,-193.28C282.36,-162.44 255.28,-101.71 214,-65.5 209.71,-61.73 204.55,-58.63 199.3,-56.1"/>
<polygon fill="#63b8ff" stroke="#63b8ff" points="290.98,-194.69 297.73,-202.85 297.54,-192.26 290.98,-194.69"/>
</a>
</g>
</g>
<!-- Node17 -->
<g id="Node000017" class="node">
<title>Node17</title>
<g id="a_Node000017"><a xlink:href="format-inl_8h.html#a71033730e1d1c2c72b7905f21929df93" target="_top" xlink:title=" ">
<polygon fill="white" stroke="#666666" points="195.5,-19 141.5,-19 141.5,0 195.5,0 195.5,-19"/>
<text text-anchor="middle" x="168.5" y="-7" font-family="Helvetica,sans-Serif" font-size="10.00">vprintln</text>
</a>
</g>
</g>
<!-- Node4&#45;&gt;Node17 -->
<g id="edge16_Node000004_Node000017" class="edge">
<title>Node4&#45;&gt;Node17</title>
<g id="a_edge16_Node000004_Node000017"><a xlink:title=" ">
<path fill="none" stroke="#63b8ff" d="M296.59,-192.64C287.41,-155.63 262.91,-75.58 214,-28.5 208.92,-23.61 202.38,-19.88 195.89,-17.08"/>
<polygon fill="#63b8ff" stroke="#63b8ff" points="293.25,-193.74 298.96,-202.67 300.06,-192.13 293.25,-193.74"/>
</a>
</g>
</g>
<!-- Node10 -->
<g id="Node000010" class="node">
<title>Node10</title>
<g id="a_Node000010"><a xlink:href="format-inl_8h.html#ab41bf8cae80639f211595a96bc63c343" target="_top" xlink:title=" ">
<polygon fill="white" stroke="#666666" points="87,-278 0,-278 0,-259 87,-259 87,-278"/>
<text text-anchor="middle" x="43.5" y="-266" font-family="Helvetica,sans-Serif" font-size="10.00">vsystem_error</text>
</a>
</g>
</g>
<!-- Node9&#45;&gt;Node10 -->
<g id="edge9_Node000009_Node000010" class="edge">
<title>Node9&#45;&gt;Node10</title>
<g id="a_edge9_Node000009_Node000010"><a xlink:title=" ">
<path fill="none" stroke="#63b8ff" d="M129.84,-268.5C116.35,-268.5 101.06,-268.5 87.19,-268.5"/>
<polygon fill="#63b8ff" stroke="#63b8ff" points="130.2,-272 140.2,-268.5 130.2,-265 130.2,-272"/>
</a>
</g>
</g>
</g>
</svg>
