<?xml version="1.0" encoding="UTF-8" standalone="no"?>
<!DOCTYPE svg PUBLIC "-//W3C//DTD SVG 1.1//EN"
 "http://www.w3.org/Graphics/SVG/1.1/DTD/svg11.dtd">
<!-- Generated by graphviz version 2.43.0 (0)
 -->
<!-- Title: cxxopts::OptionParser::parse Pages: 1 -->
<svg width="1130pt" height="751pt"
 viewBox="0.00 0.00 1130.00 751.00" xmlns="http://www.w3.org/2000/svg" xmlns:xlink="http://www.w3.org/1999/xlink">
<g id="graph0" class="graph" transform="scale(1 1) rotate(0) translate(4 747)">
<title>cxxopts::OptionParser::parse</title>
<!-- Node1 -->
<g id="Node000001" class="node">
<title>Node1</title>
<g id="a_Node000001"><a xlink:title=" ">
<polygon fill="#999999" stroke="#666666" points="122,-357 0,-357 0,-327 122,-327 122,-357"/>
<text text-anchor="start" x="8" y="-345" font-family="Helvetica,sans-Serif" font-size="10.00">cxxopts::OptionParser</text>
<text text-anchor="middle" x="61" y="-334" font-family="Helvetica,sans-Serif" font-size="10.00">::parse</text>
</a>
</g>
</g>
<!-- Node2 -->
<g id="Node000002" class="node">
<title>Node2</title>
<g id="a_Node000002"><a xlink:href="classcxxopts_1_1OptionParser.html#a0c093ba32746de7c3b08715eab961aff" target="_top" xlink:title=" ">
<polygon fill="white" stroke="#666666" points="283.5,-604 161.5,-604 161.5,-574 283.5,-574 283.5,-604"/>
<text text-anchor="start" x="169.5" y="-592" font-family="Helvetica,sans-Serif" font-size="10.00">cxxopts::OptionParser</text>
<text text-anchor="middle" x="222.5" y="-581" font-family="Helvetica,sans-Serif" font-size="10.00">::checked_parse_arg</text>
</a>
</g>
</g>
<!-- Node1&#45;&gt;Node2 -->
<g id="edge1_Node000001_Node000002" class="edge">
<title>Node1&#45;&gt;Node2</title>
<g id="a_edge1_Node000001_Node000002"><a xlink:title=" ">
<path fill="none" stroke="#63b8ff" d="M67,-357.06C78.89,-391.34 111.37,-476.82 158,-536 167.37,-547.89 179.79,-558.97 191.16,-567.9"/>
<polygon fill="#63b8ff" stroke="#63b8ff" points="189.11,-570.74 199.19,-574 193.34,-565.17 189.11,-570.74"/>
</a>
</g>
</g>
<!-- Node3 -->
<g id="Node000003" class="node">
<title>Node3</title>
<g id="a_Node000003"><a xlink:href="classcxxopts_1_1Value.html#a436f0a8a6621de420088839f4c728230" target="_top" xlink:title=" ">
<polygon fill="white" stroke="#666666" points="447,-743 338,-743 338,-713 447,-713 447,-743"/>
<text text-anchor="start" x="346" y="-731" font-family="Helvetica,sans-Serif" font-size="10.00">cxxopts::Value::get</text>
<text text-anchor="middle" x="392.5" y="-720" font-family="Helvetica,sans-Serif" font-size="10.00">_implicit_value</text>
</a>
</g>
</g>
<!-- Node1&#45;&gt;Node3 -->
<g id="edge33_Node000001_Node000003" class="edge">
<title>Node1&#45;&gt;Node3</title>
<g id="a_edge33_Node000001_Node000003"><a xlink:title=" ">
<path fill="none" stroke="#63b8ff" d="M64.2,-357.01C73.17,-416.3 108.93,-633.28 158,-679 203.32,-721.22 275.36,-730.84 327.45,-731.53"/>
<polygon fill="#63b8ff" stroke="#63b8ff" points="327.57,-735.03 337.58,-731.56 327.59,-728.03 327.57,-735.03"/>
</a>
</g>
</g>
<!-- Node4 -->
<g id="Node000004" class="node">
<title>Node4</title>
<g id="a_Node000004"><a xlink:href="classcxxopts_1_1Value.html#aac3425b87db8ef41157892449999b183" target="_top" xlink:title=" ">
<polygon fill="white" stroke="#666666" points="447.5,-695 337.5,-695 337.5,-665 447.5,-665 447.5,-695"/>
<text text-anchor="start" x="345.5" y="-683" font-family="Helvetica,sans-Serif" font-size="10.00">cxxopts::Value::has</text>
<text text-anchor="middle" x="392.5" y="-672" font-family="Helvetica,sans-Serif" font-size="10.00">_implicit</text>
</a>
</g>
</g>
<!-- Node1&#45;&gt;Node4 -->
<g id="edge36_Node000001_Node000004" class="edge">
<title>Node1&#45;&gt;Node4</title>
<g id="a_edge36_Node000001_Node000004"><a xlink:title=" ">
<path fill="none" stroke="#63b8ff" d="M61.68,-357.19C61.54,-407.1 68.35,-567.26 158,-644 204.3,-683.64 275.52,-689.39 327.13,-687.24"/>
<polygon fill="#63b8ff" stroke="#63b8ff" points="327.38,-690.73 337.18,-686.71 327.01,-683.74 327.38,-690.73"/>
</a>
</g>
</g>
<!-- Node5 -->
<g id="Node000005" class="node">
<title>Node5</title>
<g id="a_Node000005"><a xlink:href="classcxxopts_1_1OptionParser.html#a07db7b6bb2095df7b75b50ed2311ffe5" target="_top" xlink:title=" ">
<polygon fill="white" stroke="#666666" points="453.5,-647 331.5,-647 331.5,-617 453.5,-617 453.5,-647"/>
<text text-anchor="start" x="339.5" y="-635" font-family="Helvetica,sans-Serif" font-size="10.00">cxxopts::OptionParser</text>
<text text-anchor="middle" x="392.5" y="-624" font-family="Helvetica,sans-Serif" font-size="10.00">::parse_option</text>
</a>
</g>
</g>
<!-- Node1&#45;&gt;Node5 -->
<g id="edge51_Node000001_Node000005" class="edge">
<title>Node1&#45;&gt;Node5</title>
<g id="a_edge51_Node000001_Node000005"><a xlink:title=" ">
<path fill="none" stroke="#63b8ff" d="M62.09,-357.21C63.28,-404.29 73.93,-548.32 158,-613 203.84,-648.27 270.8,-650.22 321.28,-644.98"/>
<polygon fill="#63b8ff" stroke="#63b8ff" points="321.93,-648.43 331.46,-643.8 321.13,-641.48 321.93,-648.43"/>
</a>
</g>
</g>
<!-- Node7 -->
<g id="Node000007" class="node">
<title>Node7</title>
<g id="a_Node000007"><a xlink:href="classcxxopts_1_1OptionDetails.html#a3e5d1e478cc4a241d710f9ab792fcafb" target="_top" xlink:title=" ">
<polygon fill="white" stroke="#666666" points="633,-298 506,-298 506,-268 633,-268 633,-298"/>
<text text-anchor="start" x="514" y="-286" font-family="Helvetica,sans-Serif" font-size="10.00">cxxopts::OptionDetails</text>
<text text-anchor="middle" x="569.5" y="-275" font-family="Helvetica,sans-Serif" font-size="10.00">::hash</text>
</a>
</g>
</g>
<!-- Node1&#45;&gt;Node7 -->
<g id="edge37_Node000001_Node000007" class="edge">
<title>Node1&#45;&gt;Node7</title>
<g id="a_edge37_Node000001_Node000007"><a xlink:title=" ">
<path fill="none" stroke="#63b8ff" d="M91.87,-326.9C110.62,-317.7 135.44,-306.01 158,-297 214.12,-274.58 236.03,-286.46 287,-254 306.62,-241.5 301.63,-225.19 323,-216 379.75,-191.59 404.92,-192.36 462,-216 482.91,-224.66 479.32,-239.23 498,-252 504.15,-256.2 510.95,-260.04 517.85,-263.48"/>
<polygon fill="#63b8ff" stroke="#63b8ff" points="516.7,-266.81 527.24,-267.92 519.69,-260.48 516.7,-266.81"/>
</a>
</g>
</g>
<!-- Node14 -->
<g id="Node000014" class="node">
<title>Node14</title>
<g id="a_Node000014"><a xlink:href="namespacecxxopts.html#a466f47408560fa08e43bf48ec2366b22" target="_top" xlink:title=" ">
<polygon fill="white" stroke="#666666" points="462,-598.5 323,-598.5 323,-579.5 462,-579.5 462,-598.5"/>
<text text-anchor="middle" x="392.5" y="-586.5" font-family="Helvetica,sans-Serif" font-size="10.00">cxxopts::throw_or_mimic</text>
</a>
</g>
</g>
<!-- Node1&#45;&gt;Node14 -->
<g id="edge54_Node000001_Node000014" class="edge">
<title>Node1&#45;&gt;Node14</title>
<g id="a_edge54_Node000001_Node000014"><a xlink:title=" ">
<path fill="none" stroke="#63b8ff" d="M69.67,-357.27C83.95,-384.52 116.95,-442.13 158,-479 220.31,-534.96 245.46,-538.37 323,-570 328.85,-572.39 335.1,-574.58 341.35,-576.56"/>
<polygon fill="#63b8ff" stroke="#63b8ff" points="340.55,-579.97 351.13,-579.49 342.56,-573.26 340.55,-579.97"/>
</a>
</g>
</g>
<!-- Node15 -->
<g id="Node000015" class="node">
<title>Node15</title>
<g id="a_Node000015"><a xlink:href="classcxxopts_1_1OptionDetails.html#a3f90596c7b7634449a51370f211163a8" target="_top" xlink:title=" ">
<polygon fill="white" stroke="#666666" points="456,-427 329,-427 329,-397 456,-397 456,-427"/>
<text text-anchor="start" x="337" y="-415" font-family="Helvetica,sans-Serif" font-size="10.00">cxxopts::OptionDetails</text>
<text text-anchor="middle" x="392.5" y="-404" font-family="Helvetica,sans-Serif" font-size="10.00">::value</text>
</a>
</g>
</g>
<!-- Node1&#45;&gt;Node15 -->
<g id="edge55_Node000001_Node000015" class="edge">
<title>Node1&#45;&gt;Node15</title>
<g id="a_edge55_Node000001_Node000015"><a xlink:title=" ">
<path fill="none" stroke="#63b8ff" d="M117.18,-357.02C130.51,-360.47 144.73,-364 158,-367 211.64,-379.14 272.69,-390.83 318.91,-399.25"/>
<polygon fill="#63b8ff" stroke="#63b8ff" points="318.37,-402.71 328.84,-401.05 319.62,-395.83 318.37,-402.71"/>
</a>
</g>
</g>
<!-- Node16 -->
<g id="Node000016" class="node">
<title>Node16</title>
<g id="a_Node000016"><a xlink:href="classcxxopts_1_1OptionParser.html#a4d595d8f6f34760bc2248d1b96af53a4" target="_top" xlink:title=" ">
<polygon fill="white" stroke="#666666" points="283.5,-470 161.5,-470 161.5,-440 283.5,-440 283.5,-470"/>
<text text-anchor="start" x="169.5" y="-458" font-family="Helvetica,sans-Serif" font-size="10.00">cxxopts::OptionParser</text>
<text text-anchor="middle" x="222.5" y="-447" font-family="Helvetica,sans-Serif" font-size="10.00">::consume_positional</text>
</a>
</g>
</g>
<!-- Node1&#45;&gt;Node16 -->
<g id="edge15_Node000001_Node000016" class="edge">
<title>Node1&#45;&gt;Node16</title>
<g id="a_edge15_Node000001_Node000016"><a xlink:title=" ">
<path fill="none" stroke="#63b8ff" d="M78.21,-357.03C96.7,-373.76 128.23,-401.06 158,-421 165.4,-425.95 173.59,-430.78 181.57,-435.17"/>
<polygon fill="#63b8ff" stroke="#63b8ff" points="179.96,-438.28 190.43,-439.93 183.27,-432.11 179.96,-438.28"/>
</a>
</g>
</g>
<!-- Node20 -->
<g id="Node000020" class="node">
<title>Node20</title>
<g id="a_Node000020"><a xlink:href="classcxxopts_1_1OptionValue.html#a9d8fc19cfc051a4d1d435c424deb6b49" target="_top" xlink:title=" ">
<polygon fill="white" stroke="#666666" points="452,-379 333,-379 333,-349 452,-349 452,-379"/>
<text text-anchor="start" x="341" y="-367" font-family="Helvetica,sans-Serif" font-size="10.00">cxxopts::OptionValue</text>
<text text-anchor="middle" x="392.5" y="-356" font-family="Helvetica,sans-Serif" font-size="10.00">::count</text>
</a>
</g>
</g>
<!-- Node1&#45;&gt;Node20 -->
<g id="edge28_Node000001_Node000020" class="edge">
<title>Node1&#45;&gt;Node20</title>
<g id="a_edge28_Node000001_Node000020"><a xlink:title=" ">
<path fill="none" stroke="#63b8ff" d="M122.05,-346.01C178.73,-349.79 263.63,-355.46 322.94,-359.42"/>
<polygon fill="#63b8ff" stroke="#63b8ff" points="322.76,-362.92 332.97,-360.09 323.22,-355.93 322.76,-362.92"/>
</a>
</g>
</g>
<!-- Node22 -->
<g id="Node000022" class="node">
<title>Node22</title>
<g id="a_Node000022"><a xlink:href="classcxxopts_1_1OptionParser.html#a375fff61bb08268e6deb81baa0514b27" target="_top" xlink:title=" ">
<polygon fill="white" stroke="#666666" points="453.5,-83 331.5,-83 331.5,-53 453.5,-53 453.5,-83"/>
<text text-anchor="start" x="339.5" y="-71" font-family="Helvetica,sans-Serif" font-size="10.00">cxxopts::OptionParser</text>
<text text-anchor="middle" x="392.5" y="-60" font-family="Helvetica,sans-Serif" font-size="10.00">::finalise_aliases</text>
</a>
</g>
</g>
<!-- Node1&#45;&gt;Node22 -->
<g id="edge29_Node000001_Node000022" class="edge">
<title>Node1&#45;&gt;Node22</title>
<g id="a_edge29_Node000001_Node000022"><a xlink:title=" ">
<path fill="none" stroke="#63b8ff" d="M69.17,-326.95C82.66,-300.29 114.44,-244.86 158,-216 207.34,-183.32 242.6,-222.12 287,-183 319.63,-154.25 291.64,-122.14 323,-92 324.11,-90.94 325.26,-89.92 326.46,-88.95"/>
<polygon fill="#63b8ff" stroke="#63b8ff" points="328.65,-91.69 334.92,-83.16 324.69,-85.92 328.65,-91.69"/>
</a>
</g>
</g>
<!-- Node24 -->
<g id="Node000024" class="node">
<title>Node24</title>
<g id="a_Node000024"><a xlink:href="classcxxopts_1_1Value.html#aac3233a0414ac39d54ed0b98365afc7e" target="_top" xlink:title=" ">
<polygon fill="white" stroke="#666666" points="277.5,-174 167.5,-174 167.5,-144 277.5,-144 277.5,-174"/>
<text text-anchor="start" x="175.5" y="-162" font-family="Helvetica,sans-Serif" font-size="10.00">cxxopts::Value::has</text>
<text text-anchor="middle" x="222.5" y="-151" font-family="Helvetica,sans-Serif" font-size="10.00">_default</text>
</a>
</g>
</g>
<!-- Node1&#45;&gt;Node24 -->
<g id="edge34_Node000001_Node000024" class="edge">
<title>Node1&#45;&gt;Node24</title>
<g id="a_edge34_Node000001_Node000024"><a xlink:title=" ">
<path fill="none" stroke="#63b8ff" d="M67.89,-326.84C80.31,-296.68 111.85,-228.55 158,-188 161.68,-184.77 165.77,-181.84 170.06,-179.19"/>
<polygon fill="#63b8ff" stroke="#63b8ff" points="172.06,-182.08 179.08,-174.15 168.64,-175.97 172.06,-182.08"/>
</a>
</g>
</g>
<!-- Node25 -->
<g id="Node000025" class="node">
<title>Node25</title>
<g id="a_Node000025"><a xlink:href="classcxxopts_1_1OptionValue.html#ab36579e07e3f29af87aa870f996a7906" target="_top" xlink:title=" ">
<polygon fill="white" stroke="#666666" points="282,-126 163,-126 163,-96 282,-96 282,-126"/>
<text text-anchor="start" x="171" y="-114" font-family="Helvetica,sans-Serif" font-size="10.00">cxxopts::OptionValue</text>
<text text-anchor="middle" x="222.5" y="-103" font-family="Helvetica,sans-Serif" font-size="10.00">::has_default</text>
</a>
</g>
</g>
<!-- Node1&#45;&gt;Node25 -->
<g id="edge35_Node000001_Node000025" class="edge">
<title>Node1&#45;&gt;Node25</title>
<g id="a_edge35_Node000001_Node000025"><a xlink:title=" ">
<path fill="none" stroke="#63b8ff" d="M64.89,-326.94C72.87,-289.28 98.67,-190.16 158,-135 159.28,-133.81 160.62,-132.68 162.01,-131.61"/>
<polygon fill="#63b8ff" stroke="#63b8ff" points="164.05,-134.45 170.48,-126.03 160.2,-128.61 164.05,-134.45"/>
</a>
</g>
</g>
<!-- Node26 -->
<g id="Node000026" class="node">
<title>Node26</title>
<g id="a_Node000026"><a xlink:href="classcxxopts_1_1OptionParser.html#a28026f132e532009842f11359fb08373" target="_top" xlink:title=" ">
<polygon fill="white" stroke="#666666" points="283.5,-336 161.5,-336 161.5,-306 283.5,-306 283.5,-336"/>
<text text-anchor="start" x="169.5" y="-324" font-family="Helvetica,sans-Serif" font-size="10.00">cxxopts::OptionParser</text>
<text text-anchor="middle" x="222.5" y="-313" font-family="Helvetica,sans-Serif" font-size="10.00">::parse_default</text>
</a>
</g>
</g>
<!-- Node1&#45;&gt;Node26 -->
<g id="edge38_Node000001_Node000026" class="edge">
<title>Node1&#45;&gt;Node26</title>
<g id="a_edge38_Node000001_Node000026"><a xlink:title=" ">
<path fill="none" stroke="#63b8ff" d="M122.3,-334.06C131.79,-332.81 141.68,-331.51 151.37,-330.23"/>
<polygon fill="#63b8ff" stroke="#63b8ff" points="151.92,-333.69 161.38,-328.92 151.01,-326.75 151.92,-333.69"/>
</a>
</g>
</g>
<!-- Node30 -->
<g id="Node000030" class="node">
<title>Node30</title>
<g id="a_Node000030"><a xlink:href="classcxxopts_1_1OptionParser.html#a80bbe1ff81b5d39bf6fda208e95a0d04" target="_top" xlink:title=" ">
<polygon fill="white" stroke="#666666" points="453.5,-131 331.5,-131 331.5,-101 453.5,-101 453.5,-131"/>
<text text-anchor="start" x="339.5" y="-119" font-family="Helvetica,sans-Serif" font-size="10.00">cxxopts::OptionParser</text>
<text text-anchor="middle" x="392.5" y="-108" font-family="Helvetica,sans-Serif" font-size="10.00">::parse_no_value</text>
</a>
</g>
</g>
<!-- Node1&#45;&gt;Node30 -->
<g id="edge47_Node000001_Node000030" class="edge">
<title>Node1&#45;&gt;Node30</title>
<g id="a_edge47_Node000001_Node000030"><a xlink:title=" ">
<path fill="none" stroke="#63b8ff" d="M77.45,-326.73C95.5,-309.57 126.86,-281.8 158,-264 211.11,-233.64 235.16,-248.48 287,-216 320.92,-194.74 353.12,-161.18 372.59,-138.88"/>
<polygon fill="#63b8ff" stroke="#63b8ff" points="375.31,-141.09 379.16,-131.22 369.99,-136.53 375.31,-141.09"/>
</a>
</g>
</g>
<!-- Node32 -->
<g id="Node000032" class="node">
<title>Node32</title>
<g id="a_Node000032"><a xlink:href="namespacecxxopts_1_1values_1_1parser__tool.html#a0c95fda26d85865d26182d1df061ed8a" target="_top" xlink:title=" ">
<polygon fill="white" stroke="#666666" points="287,-78 158,-78 158,-48 287,-48 287,-78"/>
<text text-anchor="start" x="166" y="-66" font-family="Helvetica,sans-Serif" font-size="10.00">cxxopts::values::parser</text>
<text text-anchor="middle" x="222.5" y="-55" font-family="Helvetica,sans-Serif" font-size="10.00">_tool::ParseArgument</text>
</a>
</g>
</g>
<!-- Node1&#45;&gt;Node32 -->
<g id="edge52_Node000001_Node000032" class="edge">
<title>Node1&#45;&gt;Node32</title>
<g id="a_edge52_Node000001_Node000032"><a xlink:title=" ">
<path fill="none" stroke="#63b8ff" d="M63.42,-326.76C68.27,-283.25 87.97,-157.12 158,-87 159.07,-85.93 160.19,-84.91 161.35,-83.93"/>
<polygon fill="#63b8ff" stroke="#63b8ff" points="163.44,-86.74 169.59,-78.12 159.4,-81.02 163.44,-86.74"/>
</a>
</g>
</g>
<!-- Node33 -->
<g id="Node000033" class="node">
<title>Node33</title>
<g id="a_Node000033"><a xlink:href="classcxxopts_1_1ParseResult.html#a1f05143f599a9c92a0321dd802988ba7" target="_top" xlink:title=" ">
<polygon fill="white" stroke="#666666" points="281,-30 164,-30 164,0 281,0 281,-30"/>
<text text-anchor="start" x="172" y="-18" font-family="Helvetica,sans-Serif" font-size="10.00">cxxopts::ParseResult</text>
<text text-anchor="middle" x="222.5" y="-7" font-family="Helvetica,sans-Serif" font-size="10.00">::ParseResult</text>
</a>
</g>
</g>
<!-- Node1&#45;&gt;Node33 -->
<g id="edge53_Node000001_Node000033" class="edge">
<title>Node1&#45;&gt;Node33</title>
<g id="a_edge53_Node000001_Node000033"><a xlink:title=" ">
<path fill="none" stroke="#63b8ff" d="M62.36,-326.79C64.33,-278.15 77,-124.55 158,-39 158.91,-38.04 159.87,-37.11 160.86,-36.23"/>
<polygon fill="#63b8ff" stroke="#63b8ff" points="163.15,-38.89 169.09,-30.11 158.97,-33.26 163.15,-38.89"/>
</a>
</g>
</g>
<!-- Node2&#45;&gt;Node3 -->
<g id="edge2_Node000002_Node000003" class="edge">
<title>Node2&#45;&gt;Node3</title>
<g id="a_edge2_Node000002_Node000003"><a xlink:title=" ">
<path fill="none" stroke="#63b8ff" d="M232.9,-604.29C248.64,-628.71 282.61,-676.53 323,-704 325.27,-705.54 327.64,-706.99 330.09,-708.36"/>
<polygon fill="#63b8ff" stroke="#63b8ff" points="328.72,-711.59 339.23,-712.95 331.86,-705.33 328.72,-711.59"/>
</a>
</g>
</g>
<!-- Node2&#45;&gt;Node4 -->
<g id="edge3_Node000002_Node000004" class="edge">
<title>Node2&#45;&gt;Node4</title>
<g id="a_edge3_Node000002_Node000004"><a xlink:title=" ">
<path fill="none" stroke="#63b8ff" d="M242.78,-604.18C262.19,-618.91 293.4,-641.16 323,-656 326.51,-657.76 330.18,-659.45 333.92,-661.06"/>
<polygon fill="#63b8ff" stroke="#63b8ff" points="332.73,-664.35 343.31,-664.88 335.37,-657.87 332.73,-664.35"/>
</a>
</g>
</g>
<!-- Node2&#45;&gt;Node5 -->
<g id="edge4_Node000002_Node000005" class="edge">
<title>Node2&#45;&gt;Node5</title>
<g id="a_edge4_Node000002_Node000005"><a xlink:title=" ">
<path fill="none" stroke="#63b8ff" d="M282.26,-604.04C295.43,-607.41 309.52,-611.02 323.04,-614.48"/>
<polygon fill="#63b8ff" stroke="#63b8ff" points="322.22,-617.88 332.77,-616.97 323.96,-611.1 322.22,-617.88"/>
</a>
</g>
</g>
<!-- Node2&#45;&gt;Node14 -->
<g id="edge13_Node000002_Node000014" class="edge">
<title>Node2&#45;&gt;Node14</title>
<g id="a_edge13_Node000002_Node000014"><a xlink:title=" ">
<path fill="none" stroke="#63b8ff" d="M283.68,-589C293.11,-589 302.98,-589 312.76,-589"/>
<polygon fill="#63b8ff" stroke="#63b8ff" points="312.89,-592.5 322.89,-589 312.89,-585.5 312.89,-592.5"/>
</a>
</g>
</g>
<!-- Node2&#45;&gt;Node15 -->
<g id="edge14_Node000002_Node000015" class="edge">
<title>Node2&#45;&gt;Node15</title>
<g id="a_edge14_Node000002_Node000015"><a xlink:title=" ">
<path fill="none" stroke="#63b8ff" d="M235.51,-573.97C253.68,-551.51 289.59,-508.17 323,-474 336.56,-460.13 352.59,-445.54 365.73,-433.99"/>
<polygon fill="#63b8ff" stroke="#63b8ff" points="368.25,-436.44 373.5,-427.23 363.66,-431.16 368.25,-436.44"/>
</a>
</g>
</g>
<!-- Node6 -->
<g id="Node000006" class="node">
<title>Node6</title>
<g id="a_Node000006"><a xlink:href="classcxxopts_1_1OptionDetails.html#a02b918ea1873a2716cfd5ad909be3034" target="_top" xlink:title=" ">
<polygon fill="white" stroke="#666666" points="633,-408 506,-408 506,-378 633,-378 633,-408"/>
<text text-anchor="start" x="514" y="-396" font-family="Helvetica,sans-Serif" font-size="10.00">cxxopts::OptionDetails</text>
<text text-anchor="middle" x="569.5" y="-385" font-family="Helvetica,sans-Serif" font-size="10.00">::essential_name</text>
</a>
</g>
</g>
<!-- Node5&#45;&gt;Node6 -->
<g id="edge5_Node000005_Node000006" class="edge">
<title>Node5&#45;&gt;Node6</title>
<g id="a_edge5_Node000005_Node000006"><a xlink:title=" ">
<path fill="none" stroke="#63b8ff" d="M451.76,-616.91C455.56,-614.38 459.04,-611.44 462,-608 518.06,-542.85 442.07,-483.26 498,-418 499.03,-416.8 500.12,-415.65 501.27,-414.57"/>
<polygon fill="#63b8ff" stroke="#63b8ff" points="503.77,-417.05 509.52,-408.15 499.47,-411.53 503.77,-417.05"/>
</a>
</g>
</g>
<!-- Node5&#45;&gt;Node7 -->
<g id="edge6_Node000005_Node000007" class="edge">
<title>Node5&#45;&gt;Node7</title>
<g id="a_edge6_Node000005_Node000007"><a xlink:title=" ">
<path fill="none" stroke="#63b8ff" d="M452.22,-616.82C455.86,-614.31 459.19,-611.4 462,-608 530.51,-525.27 454.39,-467.17 498,-369 508.85,-344.59 528.56,-321.44 544.39,-305.33"/>
<polygon fill="#63b8ff" stroke="#63b8ff" points="547.15,-307.52 551.79,-298 542.22,-302.55 547.15,-307.52"/>
</a>
</g>
</g>
<!-- Node8 -->
<g id="Node000008" class="node">
<title>Node8</title>
<g id="a_Node000008"><a xlink:href="classcxxopts_1_1OptionValue.html#a69645a46405198eea09f45137f1bcf8b" target="_top" xlink:title=" ">
<polygon fill="white" stroke="#666666" points="629,-494 510,-494 510,-464 629,-464 629,-494"/>
<text text-anchor="start" x="518" y="-482" font-family="Helvetica,sans-Serif" font-size="10.00">cxxopts::OptionValue</text>
<text text-anchor="middle" x="569.5" y="-471" font-family="Helvetica,sans-Serif" font-size="10.00">::parse</text>
</a>
</g>
</g>
<!-- Node5&#45;&gt;Node8 -->
<g id="edge7_Node000005_Node000008" class="edge">
<title>Node5&#45;&gt;Node8</title>
<g id="a_edge7_Node000005_Node000008"><a xlink:title=" ">
<path fill="none" stroke="#63b8ff" d="M446.21,-616.9C451.76,-614.34 457.14,-611.39 462,-608 502.84,-579.52 536.75,-531.33 554.69,-502.6"/>
<polygon fill="#63b8ff" stroke="#63b8ff" points="557.71,-504.37 559.94,-494.01 551.74,-500.72 557.71,-504.37"/>
</a>
</g>
</g>
<!-- Node9 -->
<g id="Node000009" class="node">
<title>Node9</title>
<g id="a_Node000009"><a xlink:href="classcxxopts_1_1OptionValue.html#a5e62e7e64679e627ba8946c36a559f2a" target="_top" xlink:title=" ">
<polygon fill="white" stroke="#666666" points="800,-411 681,-411 681,-381 800,-381 800,-411"/>
<text text-anchor="start" x="689" y="-399" font-family="Helvetica,sans-Serif" font-size="10.00">cxxopts::OptionValue</text>
<text text-anchor="middle" x="740.5" y="-388" font-family="Helvetica,sans-Serif" font-size="10.00">::ensure_value</text>
</a>
</g>
</g>
<!-- Node8&#45;&gt;Node9 -->
<g id="edge8_Node000008_Node000009" class="edge">
<title>Node8&#45;&gt;Node9</title>
<g id="a_edge8_Node000008_Node000009"><a xlink:title=" ">
<path fill="none" stroke="#63b8ff" d="M623.23,-463.87C629.4,-461.29 635.46,-458.34 641,-455 659.85,-443.64 658.46,-432.85 677,-421 680.09,-419.03 683.35,-417.16 686.71,-415.41"/>
<polygon fill="#63b8ff" stroke="#63b8ff" points="688.28,-418.54 695.75,-411.03 685.22,-412.24 688.28,-418.54"/>
</a>
</g>
</g>
<!-- Node12 -->
<g id="Node000012" class="node">
<title>Node12</title>
<g id="a_Node000012"><a xlink:href="classcxxopts_1_1OptionDetails.html#a1b61b4570ee040ce1b9fc6e358e08b2d" target="_top" xlink:title=" ">
<polygon fill="white" stroke="#666666" points="804,-264 677,-264 677,-234 804,-234 804,-264"/>
<text text-anchor="start" x="685" y="-252" font-family="Helvetica,sans-Serif" font-size="10.00">cxxopts::OptionDetails</text>
<text text-anchor="middle" x="740.5" y="-241" font-family="Helvetica,sans-Serif" font-size="10.00">::long_names</text>
</a>
</g>
</g>
<!-- Node8&#45;&gt;Node12 -->
<g id="edge11_Node000008_Node000012" class="edge">
<title>Node8&#45;&gt;Node12</title>
<g id="a_edge11_Node000008_Node000012"><a xlink:title=" ">
<path fill="none" stroke="#63b8ff" d="M628.6,-463.87C633.08,-461.35 637.29,-458.42 641,-455 670.56,-427.74 659.88,-408.38 677,-372 693.38,-337.18 713.82,-297.61 726.77,-272.98"/>
<polygon fill="#63b8ff" stroke="#63b8ff" points="729.93,-274.48 731.5,-264 723.74,-271.21 729.93,-274.48"/>
</a>
</g>
</g>
<!-- Node13 -->
<g id="Node000013" class="node">
<title>Node13</title>
<g id="a_Node000013"><a xlink:href="classcxxopts_1_1Value.html#a3c962e4ff3294721f5c9f6ac3fc00cc7" target="_top" xlink:title=" ">
<polygon fill="white" stroke="#666666" points="800.5,-488.5 680.5,-488.5 680.5,-469.5 800.5,-469.5 800.5,-488.5"/>
<text text-anchor="middle" x="740.5" y="-476.5" font-family="Helvetica,sans-Serif" font-size="10.00">cxxopts::Value::parse</text>
</a>
</g>
</g>
<!-- Node8&#45;&gt;Node13 -->
<g id="edge12_Node000008_Node000013" class="edge">
<title>Node8&#45;&gt;Node13</title>
<g id="a_edge12_Node000008_Node000013"><a xlink:title=" ">
<path fill="none" stroke="#63b8ff" d="M629.13,-479C642.35,-479 656.51,-479 670.12,-479"/>
<polygon fill="#63b8ff" stroke="#63b8ff" points="670.4,-482.5 680.4,-479 670.4,-475.5 670.4,-482.5"/>
</a>
</g>
</g>
<!-- Node10 -->
<g id="Node000010" class="node">
<title>Node10</title>
<g id="a_Node000010"><a xlink:href="classcxxopts_1_1OptionDetails.html#a3ff160262711ae6eebb41649491e75e6" target="_top" xlink:title=" ">
<polygon fill="white" stroke="#666666" points="967,-411 840,-411 840,-381 967,-381 967,-411"/>
<text text-anchor="start" x="848" y="-399" font-family="Helvetica,sans-Serif" font-size="10.00">cxxopts::OptionDetails</text>
<text text-anchor="middle" x="903.5" y="-388" font-family="Helvetica,sans-Serif" font-size="10.00">::make_storage</text>
</a>
</g>
</g>
<!-- Node9&#45;&gt;Node10 -->
<g id="edge9_Node000009_Node000010" class="edge">
<title>Node9&#45;&gt;Node10</title>
<g id="a_edge9_Node000009_Node000010"><a xlink:title=" ">
<path fill="none" stroke="#63b8ff" d="M800.08,-396C809.69,-396 819.75,-396 829.65,-396"/>
<polygon fill="#63b8ff" stroke="#63b8ff" points="829.89,-399.5 839.89,-396 829.89,-392.5 829.89,-399.5"/>
</a>
</g>
</g>
<!-- Node11 -->
<g id="Node000011" class="node">
<title>Node11</title>
<g id="a_Node000011"><a xlink:href="classcxxopts_1_1Value.html#a17916d6a48e57c999c2dc23fa6b22539" target="_top" xlink:title=" ">
<polygon fill="white" stroke="#666666" points="1122,-405.5 1003,-405.5 1003,-386.5 1122,-386.5 1122,-405.5"/>
<text text-anchor="middle" x="1062.5" y="-393.5" font-family="Helvetica,sans-Serif" font-size="10.00">cxxopts::Value::clone</text>
</a>
</g>
</g>
<!-- Node10&#45;&gt;Node11 -->
<g id="edge10_Node000010_Node000011" class="edge">
<title>Node10&#45;&gt;Node11</title>
<g id="a_edge10_Node000010_Node000011"><a xlink:title=" ">
<path fill="none" stroke="#63b8ff" d="M967,-396C975.39,-396 984.04,-396 992.53,-396"/>
<polygon fill="#63b8ff" stroke="#63b8ff" points="992.79,-399.5 1002.79,-396 992.79,-392.5 992.79,-399.5"/>
</a>
</g>
</g>
<!-- Node16&#45;&gt;Node7 -->
<g id="edge24_Node000016_Node000007" class="edge">
<title>Node16&#45;&gt;Node7</title>
<g id="a_edge24_Node000016_Node000007"><a xlink:title=" ">
<path fill="none" stroke="#63b8ff" d="M283.69,-465.26C335.22,-470.75 409.23,-470.47 462,-436 490.3,-417.51 479.2,-397.09 498,-369 513.14,-346.39 532.97,-322.61 547.75,-305.8"/>
<polygon fill="#63b8ff" stroke="#63b8ff" points="550.53,-307.94 554.55,-298.14 545.29,-303.29 550.53,-307.94"/>
</a>
</g>
</g>
<!-- Node16&#45;&gt;Node14 -->
<g id="edge26_Node000016_Node000014" class="edge">
<title>Node16&#45;&gt;Node14</title>
<g id="a_edge26_Node000016_Node000014"><a xlink:title=" ">
<path fill="none" stroke="#63b8ff" d="M245.16,-470.06C258.28,-479.87 274.78,-493.51 287,-508 307.54,-532.36 297.78,-550.52 323,-570 325.34,-571.8 327.83,-573.44 330.44,-574.91"/>
<polygon fill="#63b8ff" stroke="#63b8ff" points="329.13,-578.17 339.66,-579.36 332.17,-571.86 329.13,-578.17"/>
</a>
</g>
</g>
<!-- Node16&#45;&gt;Node15 -->
<g id="edge27_Node000016_Node000015" class="edge">
<title>Node16&#45;&gt;Node15</title>
<g id="a_edge27_Node000016_Node000015"><a xlink:title=" ">
<path fill="none" stroke="#63b8ff" d="M282.26,-439.96C295.43,-436.59 309.52,-432.98 323.04,-429.52"/>
<polygon fill="#63b8ff" stroke="#63b8ff" points="323.96,-432.9 332.77,-427.03 322.22,-426.12 323.96,-432.9"/>
</a>
</g>
</g>
<!-- Node17 -->
<g id="Node000017" class="node">
<title>Node17</title>
<g id="a_Node000017"><a xlink:href="classcxxopts_1_1OptionParser.html#a6445f8081bffcb7ab31d241a200b9f04" target="_top" xlink:title=" ">
<polygon fill="white" stroke="#666666" points="453.5,-513 331.5,-513 331.5,-483 453.5,-483 453.5,-513"/>
<text text-anchor="start" x="339.5" y="-501" font-family="Helvetica,sans-Serif" font-size="10.00">cxxopts::OptionParser</text>
<text text-anchor="middle" x="392.5" y="-490" font-family="Helvetica,sans-Serif" font-size="10.00">::add_to_option</text>
</a>
</g>
</g>
<!-- Node16&#45;&gt;Node17 -->
<g id="edge16_Node000016_Node000017" class="edge">
<title>Node16&#45;&gt;Node17</title>
<g id="a_edge16_Node000016_Node000017"><a xlink:title=" ">
<path fill="none" stroke="#63b8ff" d="M282.26,-470.04C295.43,-473.41 309.52,-477.02 323.04,-480.48"/>
<polygon fill="#63b8ff" stroke="#63b8ff" points="322.22,-483.88 332.77,-482.97 323.96,-477.1 322.22,-483.88"/>
</a>
</g>
</g>
<!-- Node16&#45;&gt;Node20 -->
<g id="edge23_Node000016_Node000020" class="edge">
<title>Node16&#45;&gt;Node20</title>
<g id="a_edge23_Node000016_Node000020"><a xlink:title=" ">
<path fill="none" stroke="#63b8ff" d="M242.78,-439.82C262.19,-425.09 293.4,-402.84 323,-388 326.51,-386.24 330.18,-384.55 333.92,-382.94"/>
<polygon fill="#63b8ff" stroke="#63b8ff" points="335.37,-386.13 343.31,-379.12 332.73,-379.65 335.37,-386.13"/>
</a>
</g>
</g>
<!-- Node21 -->
<g id="Node000021" class="node">
<title>Node21</title>
<g id="a_Node000021"><a xlink:href="classcxxopts_1_1Value.html#a632f3263dd598e30999a6bcff0652132" target="_top" xlink:title=" ">
<polygon fill="white" stroke="#666666" points="443,-561 342,-561 342,-531 443,-531 443,-561"/>
<text text-anchor="start" x="350" y="-549" font-family="Helvetica,sans-Serif" font-size="10.00">cxxopts::Value::is</text>
<text text-anchor="middle" x="392.5" y="-538" font-family="Helvetica,sans-Serif" font-size="10.00">_container</text>
</a>
</g>
</g>
<!-- Node16&#45;&gt;Node21 -->
<g id="edge25_Node000016_Node000021" class="edge">
<title>Node16&#45;&gt;Node21</title>
<g id="a_edge25_Node000016_Node000021"><a xlink:title=" ">
<path fill="none" stroke="#63b8ff" d="M242.78,-470.18C262.19,-484.91 293.4,-507.16 323,-522 326.51,-523.76 330.18,-525.45 333.92,-527.06"/>
<polygon fill="#63b8ff" stroke="#63b8ff" points="332.73,-530.35 343.31,-530.88 335.37,-523.87 332.73,-530.35"/>
</a>
</g>
</g>
<!-- Node17&#45;&gt;Node6 -->
<g id="edge21_Node000017_Node000006" class="edge">
<title>Node17&#45;&gt;Node6</title>
<g id="a_edge21_Node000017_Node000006"><a xlink:title=" ">
<path fill="none" stroke="#63b8ff" d="M439.01,-482.97C447.12,-479.14 455.16,-474.51 462,-469 483.6,-451.59 475.89,-434.76 498,-418 500.46,-416.14 503.06,-414.41 505.77,-412.8"/>
<polygon fill="#63b8ff" stroke="#63b8ff" points="507.51,-415.84 514.71,-408.06 504.23,-409.65 507.51,-415.84"/>
</a>
</g>
</g>
<!-- Node17&#45;&gt;Node7 -->
<g id="edge22_Node000017_Node000007" class="edge">
<title>Node17&#45;&gt;Node7</title>
<g id="a_edge22_Node000017_Node000007"><a xlink:title=" ">
<path fill="none" stroke="#63b8ff" d="M443.11,-482.93C450.08,-479.21 456.67,-474.63 462,-469 494.47,-434.69 474.69,-410.08 498,-369 511.26,-345.62 530.95,-322.24 546.15,-305.77"/>
<polygon fill="#63b8ff" stroke="#63b8ff" points="548.91,-307.95 553.21,-298.27 543.81,-303.15 548.91,-307.95"/>
</a>
</g>
</g>
<!-- Node18 -->
<g id="Node000018" class="node">
<title>Node18</title>
<g id="a_Node000018"><a xlink:href="classcxxopts_1_1OptionValue.html#aeec2951c8666eb4f7f562cf526fb656b" target="_top" xlink:title=" ">
<polygon fill="white" stroke="#666666" points="641,-445.5 498,-445.5 498,-426.5 641,-426.5 641,-445.5"/>
<text text-anchor="middle" x="569.5" y="-433.5" font-family="Helvetica,sans-Serif" font-size="10.00">cxxopts::OptionValue::add</text>
</a>
</g>
</g>
<!-- Node17&#45;&gt;Node18 -->
<g id="edge17_Node000017_Node000018" class="edge">
<title>Node17&#45;&gt;Node18</title>
<g id="a_edge17_Node000017_Node000018"><a xlink:title=" ">
<path fill="none" stroke="#63b8ff" d="M428.84,-482.89C453.67,-472.39 484.72,-459.5 498,-455 504.93,-452.65 512.33,-450.39 519.62,-448.31"/>
<polygon fill="#63b8ff" stroke="#63b8ff" points="520.75,-451.63 529.45,-445.58 518.88,-444.88 520.75,-451.63"/>
</a>
</g>
</g>
<!-- Node18&#45;&gt;Node9 -->
<g id="edge19_Node000018_Node000009" class="edge">
<title>Node18&#45;&gt;Node9</title>
<g id="a_edge19_Node000018_Node000009"><a xlink:title=" ">
<path fill="none" stroke="#63b8ff" d="M610.98,-426.42C628.94,-422.17 650.58,-417.05 670.94,-412.23"/>
<polygon fill="#63b8ff" stroke="#63b8ff" points="671.88,-415.6 680.81,-409.89 670.27,-408.79 671.88,-415.6"/>
</a>
</g>
</g>
<!-- Node18&#45;&gt;Node12 -->
<g id="edge20_Node000018_Node000012" class="edge">
<title>Node18&#45;&gt;Node12</title>
<g id="a_edge20_Node000018_Node000012"><a xlink:title=" ">
<path fill="none" stroke="#63b8ff" d="M624.19,-426.36C630.2,-423.91 635.96,-420.85 641,-417 666.44,-397.58 708.12,-315 728.11,-273.3"/>
<polygon fill="#63b8ff" stroke="#63b8ff" points="731.35,-274.65 732.48,-264.12 725.03,-271.64 731.35,-274.65"/>
</a>
</g>
</g>
<!-- Node19 -->
<g id="Node000019" class="node">
<title>Node19</title>
<g id="a_Node000019"><a xlink:href="classcxxopts_1_1Value.html#ac7298b94e9168291835c18dab0b11799" target="_top" xlink:title=" ">
<polygon fill="white" stroke="#666666" points="796,-448.5 685,-448.5 685,-429.5 796,-429.5 796,-448.5"/>
<text text-anchor="middle" x="740.5" y="-436.5" font-family="Helvetica,sans-Serif" font-size="10.00">cxxopts::Value::add</text>
</a>
</g>
</g>
<!-- Node18&#45;&gt;Node19 -->
<g id="edge18_Node000018_Node000019" class="edge">
<title>Node18&#45;&gt;Node19</title>
<g id="a_edge18_Node000018_Node000019"><a xlink:title=" ">
<path fill="none" stroke="#63b8ff" d="M641.19,-437.25C652.23,-437.45 663.59,-437.65 674.49,-437.85"/>
<polygon fill="#63b8ff" stroke="#63b8ff" points="674.71,-441.35 684.77,-438.03 674.84,-434.35 674.71,-441.35"/>
</a>
</g>
</g>
<!-- Node22&#45;&gt;Node7 -->
<g id="edge30_Node000022_Node000007" class="edge">
<title>Node22&#45;&gt;Node7</title>
<g id="a_edge30_Node000022_Node000007"><a xlink:title=" ">
<path fill="none" stroke="#63b8ff" d="M451.63,-83.2C455.46,-85.7 458.98,-88.61 462,-92 510.47,-146.43 451.66,-195.73 498,-252 501.31,-256.03 505.26,-259.54 509.56,-262.62"/>
<polygon fill="#63b8ff" stroke="#63b8ff" points="507.86,-265.68 518.2,-267.99 511.55,-259.74 507.86,-265.68"/>
</a>
</g>
</g>
<!-- Node22&#45;&gt;Node12 -->
<g id="edge31_Node000022_Node000012" class="edge">
<title>Node22&#45;&gt;Node12</title>
<g id="a_edge31_Node000022_Node000012"><a xlink:title=" ">
<path fill="none" stroke="#63b8ff" d="M453.66,-54.72C508.76,-46.3 589.37,-43.94 641,-87 689.34,-127.33 635.32,-176.82 677,-224 678.17,-225.32 679.42,-226.58 680.74,-227.77"/>
<polygon fill="#63b8ff" stroke="#63b8ff" points="678.81,-230.7 688.91,-233.89 683,-225.09 678.81,-230.7"/>
</a>
</g>
</g>
<!-- Node23 -->
<g id="Node000023" class="node">
<title>Node23</title>
<g id="a_Node000023"><a xlink:href="classcxxopts_1_1OptionDetails.html#a814a9b4b5d3bfc6324c10c7b92a87bef" target="_top" xlink:title=" ">
<polygon fill="white" stroke="#666666" points="633,-126 506,-126 506,-96 633,-96 633,-126"/>
<text text-anchor="start" x="514" y="-114" font-family="Helvetica,sans-Serif" font-size="10.00">cxxopts::OptionDetails</text>
<text text-anchor="middle" x="569.5" y="-103" font-family="Helvetica,sans-Serif" font-size="10.00">::short_name</text>
</a>
</g>
</g>
<!-- Node22&#45;&gt;Node23 -->
<g id="edge32_Node000022_Node000023" class="edge">
<title>Node22&#45;&gt;Node23</title>
<g id="a_edge32_Node000022_Node000023"><a xlink:title=" ">
<path fill="none" stroke="#63b8ff" d="M453.73,-82.8C467.78,-86.25 482.88,-89.96 497.37,-93.52"/>
<polygon fill="#63b8ff" stroke="#63b8ff" points="496.73,-96.97 507.27,-95.96 498.4,-90.17 496.73,-96.97"/>
</a>
</g>
</g>
<!-- Node26&#45;&gt;Node6 -->
<g id="edge39_Node000026_Node000006" class="edge">
<title>Node26&#45;&gt;Node6</title>
<g id="a_edge39_Node000026_Node000006"><a xlink:title=" ">
<path fill="none" stroke="#63b8ff" d="M283.9,-319.52C332.78,-319.81 402.96,-323.62 462,-340 488.06,-347.23 515.32,-360.93 535.74,-372.59"/>
<polygon fill="#63b8ff" stroke="#63b8ff" points="534.21,-375.75 544.61,-377.77 537.75,-369.71 534.21,-375.75"/>
</a>
</g>
</g>
<!-- Node26&#45;&gt;Node7 -->
<g id="edge41_Node000026_Node000007" class="edge">
<title>Node26&#45;&gt;Node7</title>
<g id="a_edge41_Node000026_Node000007"><a xlink:title=" ">
<path fill="none" stroke="#63b8ff" d="M283.69,-312.11C296.65,-310.32 310.27,-308.52 323,-307 380.96,-300.09 446.8,-293.74 495.69,-289.3"/>
<polygon fill="#63b8ff" stroke="#63b8ff" points="496.21,-292.77 505.86,-288.39 495.59,-285.8 496.21,-292.77"/>
</a>
</g>
</g>
<!-- Node26&#45;&gt;Node15 -->
<g id="edge46_Node000026_Node000015" class="edge">
<title>Node26&#45;&gt;Node15</title>
<g id="a_edge46_Node000026_Node000015"><a xlink:title=" ">
<path fill="none" stroke="#63b8ff" d="M242.78,-336.18C262.19,-350.91 293.4,-373.16 323,-388 326.51,-389.76 330.18,-391.45 333.92,-393.06"/>
<polygon fill="#63b8ff" stroke="#63b8ff" points="332.73,-396.35 343.31,-396.88 335.37,-389.87 332.73,-396.35"/>
</a>
</g>
</g>
<!-- Node27 -->
<g id="Node000027" class="node">
<title>Node27</title>
<g id="a_Node000027"><a xlink:href="classcxxopts_1_1Value.html#a25ac95c499771a6f5ca295e01452f380" target="_top" xlink:title=" ">
<polygon fill="white" stroke="#666666" points="447,-255 338,-255 338,-225 447,-225 447,-255"/>
<text text-anchor="start" x="346" y="-243" font-family="Helvetica,sans-Serif" font-size="10.00">cxxopts::Value::get</text>
<text text-anchor="middle" x="392.5" y="-232" font-family="Helvetica,sans-Serif" font-size="10.00">_default_value</text>
</a>
</g>
</g>
<!-- Node26&#45;&gt;Node27 -->
<g id="edge40_Node000026_Node000027" class="edge">
<title>Node26&#45;&gt;Node27</title>
<g id="a_edge40_Node000026_Node000027"><a xlink:title=" ">
<path fill="none" stroke="#63b8ff" d="M258.87,-305.91C268.15,-301.66 278.06,-296.87 287,-292 303.68,-282.92 306.2,-277.84 323,-269 329.44,-265.61 336.37,-262.31 343.25,-259.21"/>
<polygon fill="#63b8ff" stroke="#63b8ff" points="344.81,-262.36 352.57,-255.14 342,-255.94 344.81,-262.36"/>
</a>
</g>
</g>
<!-- Node28 -->
<g id="Node000028" class="node">
<title>Node28</title>
<g id="a_Node000028"><a xlink:href="classcxxopts_1_1OptionValue.html#a58f4dc95f2a36c01f64c026baae6795f" target="_top" xlink:title=" ">
<polygon fill="white" stroke="#666666" points="629,-243 510,-243 510,-213 629,-213 629,-243"/>
<text text-anchor="start" x="518" y="-231" font-family="Helvetica,sans-Serif" font-size="10.00">cxxopts::OptionValue</text>
<text text-anchor="middle" x="569.5" y="-220" font-family="Helvetica,sans-Serif" font-size="10.00">::parse_default</text>
</a>
</g>
</g>
<!-- Node26&#45;&gt;Node28 -->
<g id="edge42_Node000026_Node000028" class="edge">
<title>Node26&#45;&gt;Node28</title>
<g id="a_edge42_Node000026_Node000028"><a xlink:title=" ">
<path fill="none" stroke="#63b8ff" d="M237.76,-305.96C265.27,-276.92 323,-216 323,-216 381.98,-190.63 456.44,-199.23 507.81,-210.63"/>
<polygon fill="#63b8ff" stroke="#63b8ff" points="507.23,-214.09 517.76,-212.94 508.81,-207.27 507.23,-214.09"/>
</a>
</g>
</g>
<!-- Node28&#45;&gt;Node9 -->
<g id="edge43_Node000028_Node000009" class="edge">
<title>Node28&#45;&gt;Node9</title>
<g id="a_edge43_Node000028_Node000009"><a xlink:title=" ">
<path fill="none" stroke="#63b8ff" d="M614.71,-243.11C623.93,-247.41 633.21,-252.69 641,-259 680.23,-290.78 711.28,-341.86 727.39,-371.86"/>
<polygon fill="#63b8ff" stroke="#63b8ff" points="724.34,-373.57 732.08,-380.8 730.53,-370.32 724.34,-373.57"/>
</a>
</g>
</g>
<!-- Node28&#45;&gt;Node12 -->
<g id="edge44_Node000028_Node000012" class="edge">
<title>Node28&#45;&gt;Node12</title>
<g id="a_edge44_Node000028_Node000012"><a xlink:title=" ">
<path fill="none" stroke="#63b8ff" d="M629.13,-235.29C641.32,-236.8 654.3,-238.41 666.92,-239.98"/>
<polygon fill="#63b8ff" stroke="#63b8ff" points="666.58,-243.47 676.94,-241.23 667.45,-236.52 666.58,-243.47"/>
</a>
</g>
</g>
<!-- Node29 -->
<g id="Node000029" class="node">
<title>Node29</title>
<g id="a_Node000029"><a xlink:href="classcxxopts_1_1Value.html#a9246a55e299ea5ef34346af46977fab4" target="_top" xlink:title=" ">
<polygon fill="white" stroke="#666666" points="800.5,-215.5 680.5,-215.5 680.5,-196.5 800.5,-196.5 800.5,-215.5"/>
<text text-anchor="middle" x="740.5" y="-203.5" font-family="Helvetica,sans-Serif" font-size="10.00">cxxopts::Value::parse</text>
</a>
</g>
</g>
<!-- Node28&#45;&gt;Node29 -->
<g id="edge45_Node000028_Node000029" class="edge">
<title>Node28&#45;&gt;Node29</title>
<g id="a_edge45_Node000028_Node000029"><a xlink:title=" ">
<path fill="none" stroke="#63b8ff" d="M629.13,-220.37C642.35,-218.65 656.51,-216.8 670.12,-215.03"/>
<polygon fill="#63b8ff" stroke="#63b8ff" points="670.93,-218.46 680.4,-213.69 670.03,-211.51 670.93,-218.46"/>
</a>
</g>
</g>
<!-- Node30&#45;&gt;Node7 -->
<g id="edge48_Node000030_Node000007" class="edge">
<title>Node30&#45;&gt;Node7</title>
<g id="a_edge48_Node000030_Node000007"><a xlink:title=" ">
<path fill="none" stroke="#63b8ff" d="M411.95,-131.16C426.72,-143.93 447.32,-163.23 462,-183 482.62,-210.77 472.74,-228.37 498,-252 502.55,-256.26 507.78,-259.99 513.29,-263.25"/>
<polygon fill="#63b8ff" stroke="#63b8ff" points="511.66,-266.35 522.12,-267.99 514.97,-260.18 511.66,-266.35"/>
</a>
</g>
</g>
<!-- Node31 -->
<g id="Node000031" class="node">
<title>Node31</title>
<g id="a_Node000031"><a xlink:href="classcxxopts_1_1OptionValue.html#a85af628f49023ea63e1983d1f350cb34" target="_top" xlink:title=" ">
<polygon fill="white" stroke="#666666" points="629,-181 510,-181 510,-151 629,-151 629,-181"/>
<text text-anchor="start" x="518" y="-169" font-family="Helvetica,sans-Serif" font-size="10.00">cxxopts::OptionValue</text>
<text text-anchor="middle" x="569.5" y="-158" font-family="Helvetica,sans-Serif" font-size="10.00">::parse_no_value</text>
</a>
</g>
</g>
<!-- Node30&#45;&gt;Node31 -->
<g id="edge49_Node000030_Node000031" class="edge">
<title>Node30&#45;&gt;Node31</title>
<g id="a_edge49_Node000030_Node000031"><a xlink:title=" ">
<path fill="none" stroke="#63b8ff" d="M446.01,-131C464.87,-136.39 486.33,-142.52 505.96,-148.13"/>
<polygon fill="#63b8ff" stroke="#63b8ff" points="505.15,-151.54 515.73,-150.92 507.08,-144.81 505.15,-151.54"/>
</a>
</g>
</g>
<!-- Node31&#45;&gt;Node12 -->
<g id="edge50_Node000031_Node000012" class="edge">
<title>Node31&#45;&gt;Node12</title>
<g id="a_edge50_Node000031_Node000012"><a xlink:title=" ">
<path fill="none" stroke="#63b8ff" d="M598.68,-181.08C611.59,-188.02 627.1,-196.39 641,-204 657.06,-212.79 660.47,-216.14 677,-224 681.26,-226.03 685.73,-228.03 690.24,-229.98"/>
<polygon fill="#63b8ff" stroke="#63b8ff" points="688.92,-233.22 699.5,-233.88 691.64,-226.77 688.92,-233.22"/>
</a>
</g>
</g>
</g>
</svg>
