<?xml version="1.0" encoding="UTF-8" standalone="no"?>
<!DOCTYPE svg PUBLIC "-//W3C//DTD SVG 1.1//EN"
 "http://www.w3.org/Graphics/SVG/1.1/DTD/svg11.dtd">
<!-- Generated by graphviz version 2.43.0 (0)
 -->
<!-- Title: cxxopts::exceptions::specification Pages: 1 -->
<svg width="558pt" height="86pt"
 viewBox="0.00 0.00 558.00 86.00" xmlns="http://www.w3.org/2000/svg" xmlns:xlink="http://www.w3.org/1999/xlink">
<g id="graph0" class="graph" transform="scale(1 1) rotate(0) translate(4 82)">
<title>cxxopts::exceptions::specification</title>
<!-- Node1 -->
<g id="Node000001" class="node">
<title>Node1</title>
<g id="a_Node000001"><a xlink:title=" ">
<polygon fill="#999999" stroke="#666666" points="384,-54 271,-54 271,-24 384,-24 384,-54"/>
<text text-anchor="start" x="279" y="-42" font-family="Helvetica,sans-Serif" font-size="10.00">cxxopts::exceptions</text>
<text text-anchor="middle" x="327.5" y="-31" font-family="Helvetica,sans-Serif" font-size="10.00">::specification</text>
</a>
</g>
</g>
<!-- Node4 -->
<g id="Node000004" class="node">
<title>Node4</title>
<g id="a_Node000004"><a xlink:href="classcxxopts_1_1exceptions_1_1invalid__option__format.html" target="_top" xlink:title=" ">
<polygon fill="white" stroke="#666666" points="550,-78 420,-78 420,-48 550,-48 550,-78"/>
<text text-anchor="start" x="428" y="-66" font-family="Helvetica,sans-Serif" font-size="10.00">cxxopts::exceptions</text>
<text text-anchor="middle" x="485" y="-55" font-family="Helvetica,sans-Serif" font-size="10.00">::invalid_option_format</text>
</a>
</g>
</g>
<!-- Node1&#45;&gt;Node4 -->
<g id="edge3_Node000001_Node000004" class="edge">
<title>Node1&#45;&gt;Node4</title>
<g id="a_edge3_Node000001_Node000004"><a xlink:title=" ">
<path fill="none" stroke="#63b8ff" d="M394.12,-49.13C402.68,-50.45 411.43,-51.8 419.96,-53.12"/>
<polygon fill="#63b8ff" stroke="#63b8ff" points="394.62,-45.66 384.2,-47.6 393.55,-52.58 394.62,-45.66"/>
</a>
</g>
</g>
<!-- Node5 -->
<g id="Node000005" class="node">
<title>Node5</title>
<g id="a_Node000005"><a xlink:href="classcxxopts_1_1exceptions_1_1option__already__exists.html" target="_top" xlink:title=" ">
<polygon fill="white" stroke="#666666" points="550,-30 420,-30 420,0 550,0 550,-30"/>
<text text-anchor="start" x="428" y="-18" font-family="Helvetica,sans-Serif" font-size="10.00">cxxopts::exceptions</text>
<text text-anchor="middle" x="485" y="-7" font-family="Helvetica,sans-Serif" font-size="10.00">::option_already_exists</text>
</a>
</g>
</g>
<!-- Node1&#45;&gt;Node5 -->
<g id="edge4_Node000001_Node000005" class="edge">
<title>Node1&#45;&gt;Node5</title>
<g id="a_edge4_Node000001_Node000005"><a xlink:title=" ">
<path fill="none" stroke="#63b8ff" d="M394.12,-28.87C402.68,-27.55 411.43,-26.2 419.96,-24.88"/>
<polygon fill="#63b8ff" stroke="#63b8ff" points="393.55,-25.42 384.2,-30.4 394.62,-32.34 393.55,-25.42"/>
</a>
</g>
</g>
<!-- Node2 -->
<g id="Node000002" class="node">
<title>Node2</title>
<g id="a_Node000002"><a xlink:href="classcxxopts_1_1exceptions_1_1exception.html" target="_top" xlink:title=" ">
<polygon fill="white" stroke="#666666" points="235,-54 122,-54 122,-24 235,-24 235,-54"/>
<text text-anchor="start" x="130" y="-42" font-family="Helvetica,sans-Serif" font-size="10.00">cxxopts::exceptions</text>
<text text-anchor="middle" x="178.5" y="-31" font-family="Helvetica,sans-Serif" font-size="10.00">::exception</text>
</a>
</g>
</g>
<!-- Node2&#45;&gt;Node1 -->
<g id="edge1_Node000001_Node000002" class="edge">
<title>Node2&#45;&gt;Node1</title>
<g id="a_edge1_Node000001_Node000002"><a xlink:title=" ">
<path fill="none" stroke="#63b8ff" d="M245.08,-39C253.68,-39 262.43,-39 270.85,-39"/>
<polygon fill="#63b8ff" stroke="#63b8ff" points="245.07,-35.5 235.07,-39 245.07,-42.5 245.07,-35.5"/>
</a>
</g>
</g>
<!-- Node3 -->
<g id="Node000003" class="node">
<title>Node3</title>
<g id="a_Node000003"><a xlink:title=" ">
<polygon fill="white" stroke="#666666" points="86,-48.5 0,-48.5 0,-29.5 86,-29.5 86,-48.5"/>
<text text-anchor="middle" x="43" y="-36.5" font-family="Helvetica,sans-Serif" font-size="10.00">std::exception</text>
</a>
</g>
</g>
<!-- Node3&#45;&gt;Node2 -->
<g id="edge2_Node000002_Node000003" class="edge">
<title>Node3&#45;&gt;Node2</title>
<g id="a_edge2_Node000002_Node000003"><a xlink:title=" ">
<path fill="none" stroke="#63b8ff" d="M96.28,-39C104.67,-39 113.38,-39 121.85,-39"/>
<polygon fill="#63b8ff" stroke="#63b8ff" points="96.24,-35.5 86.24,-39 96.24,-42.5 96.24,-35.5"/>
</a>
</g>
</g>
</g>
</svg>
