<?xml version="1.0" encoding="UTF-8" standalone="no"?>
<!DOCTYPE svg PUBLIC "-//W3C//DTD SVG 1.1//EN"
 "http://www.w3.org/Graphics/SVG/1.1/DTD/svg11.dtd">
<!-- Generated by graphviz version 2.43.0 (0)
 -->
<!-- Title: basic_specs::set_fill_size Pages: 1 -->
<svg width="505pt" height="283pt"
 viewBox="0.00 0.00 505.00 282.50" xmlns="http://www.w3.org/2000/svg" xmlns:xlink="http://www.w3.org/1999/xlink">
<g id="graph0" class="graph" transform="scale(1 1) rotate(0) translate(4 278.5)">
<title>basic_specs::set_fill_size</title>
<!-- Node1 -->
<g id="Node000001" class="node">
<title>Node1</title>
<g id="a_Node000001"><a xlink:title=" ">
<polygon fill="#999999" stroke="#666666" points="497,-167 359,-167 359,-148 497,-148 497,-167"/>
<text text-anchor="middle" x="428" y="-155" font-family="Helvetica,sans-Serif" font-size="10.00">basic_specs::set_fill_size</text>
</a>
</g>
</g>
<!-- Node2 -->
<g id="Node000002" class="node">
<title>Node2</title>
<g id="a_Node000002"><a xlink:href="classbasic__specs.html#a0de009b467403e31a7006311e4f9927e" target="_top" xlink:title=" ">
<polygon fill="white" stroke="#666666" points="323,-221 173,-221 173,-202 323,-202 323,-221"/>
<text text-anchor="middle" x="248" y="-209" font-family="Helvetica,sans-Serif" font-size="10.00">basic_specs::copy_fill_from</text>
</a>
</g>
</g>
<!-- Node1&#45;&gt;Node2 -->
<g id="edge1_Node000001_Node000002" class="edge">
<title>Node1&#45;&gt;Node2</title>
<g id="a_edge1_Node000001_Node000002"><a xlink:title=" ">
<path fill="none" stroke="#63b8ff" d="M385.61,-170.06C353.49,-179.8 309.66,-193.1 280.4,-201.97"/>
<polygon fill="#63b8ff" stroke="#63b8ff" points="387.03,-173.28 395.59,-167.03 385,-166.58 387.03,-173.28"/>
</a>
</g>
</g>
<!-- Node5 -->
<g id="Node000005" class="node">
<title>Node5</title>
<g id="a_Node000005"><a xlink:href="classbasic__specs.html#a36614d1c3b2cc587e5b8d4d7156e0ed3" target="_top" xlink:title=" ">
<polygon fill="white" stroke="#666666" points="304.5,-167 191.5,-167 191.5,-148 304.5,-148 304.5,-167"/>
<text text-anchor="middle" x="248" y="-155" font-family="Helvetica,sans-Serif" font-size="10.00">basic_specs::set_fill</text>
</a>
</g>
</g>
<!-- Node1&#45;&gt;Node5 -->
<g id="edge4_Node000001_Node000005" class="edge">
<title>Node1&#45;&gt;Node5</title>
<g id="a_edge4_Node000001_Node000005"><a xlink:title=" ">
<path fill="none" stroke="#63b8ff" d="M348.73,-157.5C333.86,-157.5 318.59,-157.5 304.6,-157.5"/>
<polygon fill="#63b8ff" stroke="#63b8ff" points="348.94,-161 358.94,-157.5 348.94,-154 348.94,-161"/>
</a>
</g>
</g>
<!-- Node6 -->
<g id="Node000006" class="node">
<title>Node6</title>
<g id="a_Node000006"><a xlink:href="classbasic__specs.html#a1600987fb39fed5dfdac21b218061a9e" target="_top" xlink:title=" ">
<polygon fill="white" stroke="#666666" points="304.5,-112 191.5,-112 191.5,-93 304.5,-93 304.5,-112"/>
<text text-anchor="middle" x="248" y="-100" font-family="Helvetica,sans-Serif" font-size="10.00">basic_specs::set_fill</text>
</a>
</g>
</g>
<!-- Node1&#45;&gt;Node6 -->
<g id="edge5_Node000001_Node000006" class="edge">
<title>Node1&#45;&gt;Node6</title>
<g id="a_edge5_Node000001_Node000006"><a xlink:title=" ">
<path fill="none" stroke="#63b8ff" d="M386.38,-144.95C354.04,-134.96 309.45,-121.18 279.95,-112.06"/>
<polygon fill="#63b8ff" stroke="#63b8ff" points="385.41,-148.31 395.99,-147.92 387.47,-141.62 385.41,-148.31"/>
</a>
</g>
</g>
<!-- Node3 -->
<g id="Node000003" class="node">
<title>Node3</title>
<g id="a_Node000003"><a xlink:href="structformatter_3_01std_1_1complex_3_01T_01_4_00_01Char_01_4.html#aa62b28a5bebe60b586c9936443e3669b" target="_top" xlink:title=" ">
<polygon fill="white" stroke="#666666" points="137,-274.5 0,-274.5 0,-244.5 137,-244.5 137,-274.5"/>
<text text-anchor="start" x="8" y="-262.5" font-family="Helvetica,sans-Serif" font-size="10.00">formatter&lt; std::complex</text>
<text text-anchor="middle" x="68.5" y="-251.5" font-family="Helvetica,sans-Serif" font-size="10.00">&lt; T &gt;, Char &gt;::format</text>
</a>
</g>
</g>
<!-- Node2&#45;&gt;Node3 -->
<g id="edge2_Node000002_Node000003" class="edge">
<title>Node2&#45;&gt;Node3</title>
<g id="a_edge2_Node000002_Node000003"><a xlink:title=" ">
<path fill="none" stroke="#63b8ff" d="M201.56,-223.79C178.29,-230.08 149.78,-237.79 125.2,-244.44"/>
<polygon fill="#63b8ff" stroke="#63b8ff" points="202.77,-227.09 211.51,-221.1 200.94,-220.33 202.77,-227.09"/>
</a>
</g>
</g>
<!-- Node4 -->
<g id="Node000004" class="node">
<title>Node4</title>
<g id="a_Node000004"><a xlink:href="structnested__formatter.html#a6ab579c8e01e2a080d1cab4173991348" target="_top" xlink:title=" ">
<polygon fill="white" stroke="#666666" points="134.5,-226.5 2.5,-226.5 2.5,-196.5 134.5,-196.5 134.5,-226.5"/>
<text text-anchor="start" x="10.5" y="-214.5" font-family="Helvetica,sans-Serif" font-size="10.00">nested_formatter::write</text>
<text text-anchor="middle" x="68.5" y="-203.5" font-family="Helvetica,sans-Serif" font-size="10.00">_padded</text>
</a>
</g>
</g>
<!-- Node2&#45;&gt;Node4 -->
<g id="edge3_Node000002_Node000004" class="edge">
<title>Node2&#45;&gt;Node4</title>
<g id="a_edge3_Node000002_Node000004"><a xlink:title=" ">
<path fill="none" stroke="#63b8ff" d="M162.62,-211.5C153.24,-211.5 143.79,-211.5 134.7,-211.5"/>
<polygon fill="#63b8ff" stroke="#63b8ff" points="162.75,-215 172.75,-211.5 162.75,-208 162.75,-215"/>
</a>
</g>
</g>
<!-- Node7 -->
<g id="Node000007" class="node">
<title>Node7</title>
<g id="a_Node000007"><a xlink:href="classdetail_1_1printf__arg__formatter.html#a82813713e45cd2a260d77658511c55c1" target="_top" xlink:title=" ">
<polygon fill="white" stroke="#666666" points="130,-178.5 7,-178.5 7,-148.5 130,-148.5 130,-178.5"/>
<text text-anchor="start" x="15" y="-166.5" font-family="Helvetica,sans-Serif" font-size="10.00">detail::printf_arg</text>
<text text-anchor="middle" x="68.5" y="-155.5" font-family="Helvetica,sans-Serif" font-size="10.00">_formatter::operator()</text>
</a>
</g>
</g>
<!-- Node6&#45;&gt;Node7 -->
<g id="edge6_Node000006_Node000007" class="edge">
<title>Node6&#45;&gt;Node7</title>
<g id="a_edge6_Node000006_Node000007"><a xlink:title=" ">
<path fill="none" stroke="#63b8ff" d="M209.78,-115.29C181.63,-124.96 142.9,-138.28 113.26,-148.46"/>
<polygon fill="#63b8ff" stroke="#63b8ff" points="210.95,-118.59 219.27,-112.03 208.67,-111.97 210.95,-118.59"/>
</a>
</g>
</g>
<!-- Node8 -->
<g id="Node000008" class="node">
<title>Node8</title>
<g id="a_Node000008"><a xlink:href="namespacedetail.html#a4213daed116a37e1767881da51238261" target="_top" xlink:title=" ">
<polygon fill="white" stroke="#666666" points="121.5,-130 15.5,-130 15.5,-111 121.5,-111 121.5,-130"/>
<text text-anchor="middle" x="68.5" y="-118" font-family="Helvetica,sans-Serif" font-size="10.00">detail::parse_flags</text>
</a>
</g>
</g>
<!-- Node6&#45;&gt;Node8 -->
<g id="edge7_Node000006_Node000008" class="edge">
<title>Node6&#45;&gt;Node8</title>
<g id="a_edge7_Node000006_Node000008"><a xlink:title=" ">
<path fill="none" stroke="#63b8ff" d="M181.22,-109.17C161.57,-111.16 140.3,-113.32 121.65,-115.21"/>
<polygon fill="#63b8ff" stroke="#63b8ff" points="181.73,-112.64 191.32,-108.15 181.02,-105.67 181.73,-112.64"/>
</a>
</g>
</g>
<!-- Node9 -->
<g id="Node000009" class="node">
<title>Node9</title>
<g id="a_Node000009"><a xlink:href="namespacedetail.html#afc9d93e58b8edb8077f8bc8eee7f4035" target="_top" xlink:title=" ">
<polygon fill="white" stroke="#666666" points="126.5,-93 10.5,-93 10.5,-74 126.5,-74 126.5,-93"/>
<text text-anchor="middle" x="68.5" y="-81" font-family="Helvetica,sans-Serif" font-size="10.00">detail::parse_header</text>
</a>
</g>
</g>
<!-- Node6&#45;&gt;Node9 -->
<g id="edge8_Node000006_Node000009" class="edge">
<title>Node6&#45;&gt;Node9</title>
<g id="a_edge8_Node000006_Node000009"><a xlink:title=" ">
<path fill="none" stroke="#63b8ff" d="M181.22,-95.46C163.25,-93.54 143.94,-91.47 126.51,-89.6"/>
<polygon fill="#63b8ff" stroke="#63b8ff" points="181.01,-98.96 191.32,-96.54 181.75,-92 181.01,-98.96"/>
</a>
</g>
</g>
<!-- Node10 -->
<g id="Node000010" class="node">
<title>Node10</title>
<g id="a_Node000010"><a xlink:href="namespacedetail.html#a1c8c2218e4c822aa8f743fb9c573717f" target="_top" xlink:title=" ">
<polygon fill="white" stroke="#666666" points="110,-56 27,-56 27,-37 110,-37 110,-56"/>
<text text-anchor="middle" x="68.5" y="-44" font-family="Helvetica,sans-Serif" font-size="10.00">detail::vprintf</text>
</a>
</g>
</g>
<!-- Node6&#45;&gt;Node10 -->
<g id="edge9_Node000006_Node000010" class="edge">
<title>Node6&#45;&gt;Node10</title>
<g id="a_edge9_Node000006_Node000010"><a xlink:title=" ">
<path fill="none" stroke="#63b8ff" d="M211.29,-89.43C189.87,-81.78 162.02,-72.15 137,-64.5 127.37,-61.56 116.89,-58.63 107.13,-56.02"/>
<polygon fill="#63b8ff" stroke="#63b8ff" points="210.35,-92.82 220.95,-92.91 212.72,-86.23 210.35,-92.82"/>
</a>
</g>
</g>
<!-- Node11 -->
<g id="Node000011" class="node">
<title>Node11</title>
<g id="a_Node000011"><a xlink:href="namespacedetail.html#aa3fa8ab9788fc551cccea4630089449a" target="_top" xlink:title=" ">
<polygon fill="white" stroke="#666666" points="130,-19 7,-19 7,0 130,0 130,-19"/>
<text text-anchor="middle" x="68.5" y="-7" font-family="Helvetica,sans-Serif" font-size="10.00">detail::write_nonfinite</text>
</a>
</g>
</g>
<!-- Node6&#45;&gt;Node11 -->
<g id="edge10_Node000006_Node000011" class="edge">
<title>Node6&#45;&gt;Node11</title>
<g id="a_edge10_Node000006_Node000011"><a xlink:title=" ">
<path fill="none" stroke="#63b8ff" d="M227.74,-86.36C206.69,-69.46 171.35,-43.23 137,-27.5 129.72,-24.17 121.71,-21.36 113.83,-19.02"/>
<polygon fill="#63b8ff" stroke="#63b8ff" points="225.63,-89.15 235.59,-92.76 230.05,-83.73 225.63,-89.15"/>
</a>
</g>
</g>
</g>
</svg>
