<?xml version="1.0" encoding="UTF-8" standalone="no"?>
<!DOCTYPE svg PUBLIC "-//W3C//DTD SVG 1.1//EN"
 "http://www.w3.org/Graphics/SVG/1.1/DTD/svg11.dtd">
<!-- Generated by graphviz version 2.43.0 (0)
 -->
<!-- Title: detail::bigint::divmod_assign Pages: 1 -->
<svg width="607pt" height="195pt"
 viewBox="0.00 0.00 607.00 195.00" xmlns="http://www.w3.org/2000/svg" xmlns:xlink="http://www.w3.org/1999/xlink">
<g id="graph0" class="graph" transform="scale(1 1) rotate(0) translate(4 191)">
<title>detail::bigint::divmod_assign</title>
<!-- Node1 -->
<g id="Node000001" class="node">
<title>Node1</title>
<g id="a_Node000001"><a xlink:title=" ">
<polygon fill="#999999" stroke="#666666" points="121,-66.5 0,-66.5 0,-36.5 121,-36.5 121,-66.5"/>
<text text-anchor="start" x="8" y="-54.5" font-family="Helvetica,sans-Serif" font-size="10.00">detail::bigint::divmod</text>
<text text-anchor="middle" x="60.5" y="-43.5" font-family="Helvetica,sans-Serif" font-size="10.00">_assign</text>
</a>
</g>
</g>
<!-- Node2 -->
<g id="Node000002" class="node">
<title>Node2</title>
<g id="a_Node000002"><a xlink:href="classdetail_1_1bigint.html#a05de3beb2b414dbfc0bbe16b5deba657" target="_top" xlink:title=" ">
<polygon fill="white" stroke="#666666" points="433,-152 325,-152 325,-133 433,-133 433,-152"/>
<text text-anchor="middle" x="379" y="-140" font-family="Helvetica,sans-Serif" font-size="10.00">detail::bigint::align</text>
</a>
</g>
</g>
<!-- Node1&#45;&gt;Node2 -->
<g id="edge1_Node000001_Node000002" class="edge">
<title>Node1&#45;&gt;Node2</title>
<g id="a_edge1_Node000001_Node000002"><a xlink:title=" ">
<path fill="none" stroke="#63b8ff" d="M113.76,-66.53C175.54,-84.29 277.21,-113.52 334.76,-130.07"/>
<polygon fill="#63b8ff" stroke="#63b8ff" points="334.05,-133.51 344.63,-132.91 335.99,-126.78 334.05,-133.51"/>
</a>
</g>
</g>
<!-- Node6 -->
<g id="Node000006" class="node">
<title>Node6</title>
<g id="a_Node000006"><a xlink:href="classdetail_1_1buffer.html#a8685285932360c284d19003fc4ba3edc" target="_top" xlink:title="Returns the size of this buffer.">
<polygon fill="white" stroke="#666666" points="590,-19 486,-19 486,0 590,0 590,-19"/>
<text text-anchor="middle" x="538" y="-7" font-family="Helvetica,sans-Serif" font-size="10.00">detail::buffer::size</text>
</a>
</g>
</g>
<!-- Node1&#45;&gt;Node6 -->
<g id="edge7_Node000001_Node000006" class="edge">
<title>Node1&#45;&gt;Node6</title>
<g id="a_edge7_Node000001_Node000006"><a xlink:title=" ">
<path fill="none" stroke="#63b8ff" d="M115.76,-36.46C129.16,-33.14 143.54,-29.9 157,-27.5 268.01,-7.75 399.96,-6.34 475.54,-7.59"/>
<polygon fill="#63b8ff" stroke="#63b8ff" points="475.77,-11.09 485.83,-7.78 475.9,-4.09 475.77,-11.09"/>
</a>
</g>
</g>
<!-- Node8 -->
<g id="Node000008" class="node">
<title>Node8</title>
<g id="a_Node000008"><a xlink:href="classdetail_1_1bigint.html#a4cc50c379f6ee3a9a7dc19c1a864ae4f" target="_top" xlink:title=" ">
<polygon fill="white" stroke="#666666" points="281,-66.5 157,-66.5 157,-36.5 281,-36.5 281,-66.5"/>
<text text-anchor="start" x="165" y="-54.5" font-family="Helvetica,sans-Serif" font-size="10.00">detail::bigint::subtract</text>
<text text-anchor="middle" x="219" y="-43.5" font-family="Helvetica,sans-Serif" font-size="10.00">_aligned</text>
</a>
</g>
</g>
<!-- Node1&#45;&gt;Node8 -->
<g id="edge8_Node000001_Node000008" class="edge">
<title>Node1&#45;&gt;Node8</title>
<g id="a_edge8_Node000001_Node000008"><a xlink:title=" ">
<path fill="none" stroke="#63b8ff" d="M121.11,-51.5C129.56,-51.5 138.31,-51.5 146.94,-51.5"/>
<polygon fill="#63b8ff" stroke="#63b8ff" points="147,-55 157,-51.5 147,-48 147,-55"/>
</a>
</g>
</g>
<!-- Node3 -->
<g id="Node000003" class="node">
<title>Node3</title>
<g id="a_Node000003"><a xlink:href="classdetail_1_1buffer.html#aeb33e0a2d2be2bbca9e0236c148089c8" target="_top" xlink:title="Returns a pointer to the buffer data (not null&#45;terminated).">
<polygon fill="white" stroke="#666666" points="591.5,-150 484.5,-150 484.5,-131 591.5,-131 591.5,-150"/>
<text text-anchor="middle" x="538" y="-138" font-family="Helvetica,sans-Serif" font-size="10.00">detail::buffer::data</text>
</a>
</g>
</g>
<!-- Node2&#45;&gt;Node3 -->
<g id="edge2_Node000002_Node000003" class="edge">
<title>Node2&#45;&gt;Node3</title>
<g id="a_edge2_Node000002_Node000003"><a xlink:title=" ">
<path fill="none" stroke="#63b8ff" d="M433.15,-141.82C446.34,-141.65 460.59,-141.47 474.19,-141.3"/>
<polygon fill="#63b8ff" stroke="#63b8ff" points="474.48,-144.8 484.43,-141.17 474.39,-137.8 474.48,-144.8"/>
</a>
</g>
</g>
<!-- Node4 -->
<g id="Node000004" class="node">
<title>Node4</title>
<g id="a_Node000004"><a xlink:href="namespacedetail.html#a818b390bd30ad25b638f7b067cb50f15" target="_top" xlink:title=" ">
<polygon fill="white" stroke="#666666" points="575,-187 501,-187 501,-168 575,-168 575,-187"/>
<text text-anchor="middle" x="538" y="-175" font-family="Helvetica,sans-Serif" font-size="10.00">detail::fill_n</text>
</a>
</g>
</g>
<!-- Node2&#45;&gt;Node4 -->
<g id="edge3_Node000002_Node000004" class="edge">
<title>Node2&#45;&gt;Node4</title>
<g id="a_edge3_Node000002_Node000004"><a xlink:title=" ">
<path fill="none" stroke="#63b8ff" d="M422.9,-152.06C443.98,-156.76 469.41,-162.43 490.91,-167.23"/>
<polygon fill="#63b8ff" stroke="#63b8ff" points="490.27,-170.67 500.8,-169.43 491.8,-163.84 490.27,-170.67"/>
</a>
</g>
</g>
<!-- Node5 -->
<g id="Node000005" class="node">
<title>Node5</title>
<g id="a_Node000005"><a xlink:href="classbasic__memory__buffer.html#a9a5d3f229ccaf48e4176d7cdcfd84383" target="_top" xlink:title=" ">
<polygon fill="white" stroke="#666666" points="599,-67.5 477,-67.5 477,-37.5 599,-37.5 599,-67.5"/>
<text text-anchor="start" x="485" y="-55.5" font-family="Helvetica,sans-Serif" font-size="10.00">basic_memory_buffer</text>
<text text-anchor="middle" x="538" y="-44.5" font-family="Helvetica,sans-Serif" font-size="10.00">::resize</text>
</a>
</g>
</g>
<!-- Node2&#45;&gt;Node5 -->
<g id="edge4_Node000002_Node000005" class="edge">
<title>Node2&#45;&gt;Node5</title>
<g id="a_edge4_Node000002_Node000005"><a xlink:title=" ">
<path fill="none" stroke="#63b8ff" d="M421.42,-132.99C428.26,-130.49 435.05,-127.37 441,-123.5 461.34,-110.29 457.8,-97.31 477,-82.5 481.67,-78.9 486.83,-75.55 492.12,-72.5"/>
<polygon fill="#63b8ff" stroke="#63b8ff" points="493.95,-75.49 501.06,-67.63 490.61,-69.33 493.95,-75.49"/>
</a>
</g>
</g>
<!-- Node2&#45;&gt;Node6 -->
<g id="edge5_Node000002_Node000006" class="edge">
<title>Node2&#45;&gt;Node6</title>
<g id="a_edge5_Node000002_Node000006"><a xlink:title=" ">
<path fill="none" stroke="#63b8ff" d="M426.78,-132.92C431.98,-130.46 436.88,-127.38 441,-123.5 473.87,-92.55 444.2,-59.53 477,-28.5 478.68,-26.91 480.49,-25.46 482.39,-24.13"/>
<polygon fill="#63b8ff" stroke="#63b8ff" points="484.35,-27.04 491.28,-19.03 480.87,-20.97 484.35,-27.04"/>
</a>
</g>
</g>
<!-- Node7 -->
<g id="Node000007" class="node">
<title>Node7</title>
<g id="a_Node000007"><a xlink:href="namespacedetail.html#a4855e668246c731a97484efc329f2aac" target="_top" xlink:title=" ">
<polygon fill="white" stroke="#666666" points="593,-110 483,-110 483,-91 593,-91 593,-110"/>
<text text-anchor="middle" x="538" y="-98" font-family="Helvetica,sans-Serif" font-size="10.00">detail::to_unsigned</text>
</a>
</g>
</g>
<!-- Node2&#45;&gt;Node7 -->
<g id="edge6_Node000002_Node000007" class="edge">
<title>Node2&#45;&gt;Node7</title>
<g id="a_edge6_Node000002_Node000007"><a xlink:title=" ">
<path fill="none" stroke="#63b8ff" d="M415.63,-132.97C438.13,-126.95 467.41,-119.12 491.58,-112.65"/>
<polygon fill="#63b8ff" stroke="#63b8ff" points="492.49,-116.03 501.24,-110.07 490.68,-109.27 492.49,-116.03"/>
</a>
</g>
</g>
<!-- Node8&#45;&gt;Node6 -->
<g id="edge13_Node000008_Node000006" class="edge">
<title>Node8&#45;&gt;Node6</title>
<g id="a_edge13_Node000008_Node000006"><a xlink:title=" ">
<path fill="none" stroke="#63b8ff" d="M274.06,-36.49C287.96,-33.08 302.96,-29.8 317,-27.5 370.16,-18.81 431.26,-14.23 475.56,-11.88"/>
<polygon fill="#63b8ff" stroke="#63b8ff" points="475.79,-15.37 485.59,-11.37 475.43,-8.38 475.79,-15.37"/>
</a>
</g>
</g>
<!-- Node9 -->
<g id="Node000009" class="node">
<title>Node9</title>
<g id="a_Node000009"><a xlink:href="classdetail_1_1bigint.html#ae750f01e552f13e9f3e7001ac78163d1" target="_top" xlink:title=" ">
<polygon fill="white" stroke="#666666" points="440,-66.5 318,-66.5 318,-36.5 440,-36.5 440,-66.5"/>
<text text-anchor="start" x="326" y="-54.5" font-family="Helvetica,sans-Serif" font-size="10.00">detail::bigint::remove</text>
<text text-anchor="middle" x="379" y="-43.5" font-family="Helvetica,sans-Serif" font-size="10.00">_leading_zeros</text>
</a>
</g>
</g>
<!-- Node8&#45;&gt;Node9 -->
<g id="edge9_Node000008_Node000009" class="edge">
<title>Node8&#45;&gt;Node9</title>
<g id="a_edge9_Node000008_Node000009"><a xlink:title=" ">
<path fill="none" stroke="#63b8ff" d="M281.09,-51.5C289.76,-51.5 298.74,-51.5 307.58,-51.5"/>
<polygon fill="#63b8ff" stroke="#63b8ff" points="307.86,-55 317.86,-51.5 307.86,-48 307.86,-55"/>
</a>
</g>
</g>
<!-- Node10 -->
<g id="Node000010" class="node">
<title>Node10</title>
<g id="a_Node000010"><a xlink:href="classdetail_1_1bigint.html#a58e6d906eab89170f8d83865302bb8cb" target="_top" xlink:title=" ">
<polygon fill="white" stroke="#666666" points="441,-114.5 317,-114.5 317,-84.5 441,-84.5 441,-114.5"/>
<text text-anchor="start" x="325" y="-102.5" font-family="Helvetica,sans-Serif" font-size="10.00">detail::bigint::subtract</text>
<text text-anchor="middle" x="379" y="-91.5" font-family="Helvetica,sans-Serif" font-size="10.00">_bigits</text>
</a>
</g>
</g>
<!-- Node8&#45;&gt;Node10 -->
<g id="edge14_Node000008_Node000010" class="edge">
<title>Node8&#45;&gt;Node10</title>
<g id="a_edge14_Node000008_Node000010"><a xlink:title=" ">
<path fill="none" stroke="#63b8ff" d="M269.56,-66.56C285.15,-71.29 302.52,-76.57 318.71,-81.49"/>
<polygon fill="#63b8ff" stroke="#63b8ff" points="318.03,-84.94 328.62,-84.5 320.07,-78.24 318.03,-84.94"/>
</a>
</g>
</g>
<!-- Node9&#45;&gt;Node5 -->
<g id="edge10_Node000009_Node000005" class="edge">
<title>Node9&#45;&gt;Node5</title>
<g id="a_edge10_Node000009_Node000005"><a xlink:title=" ">
<path fill="none" stroke="#63b8ff" d="M440.25,-51.88C448.89,-51.94 457.84,-52 466.66,-52.05"/>
<polygon fill="#63b8ff" stroke="#63b8ff" points="466.89,-55.55 476.91,-52.12 466.93,-48.55 466.89,-55.55"/>
</a>
</g>
</g>
<!-- Node9&#45;&gt;Node6 -->
<g id="edge11_Node000009_Node000006" class="edge">
<title>Node9&#45;&gt;Node6</title>
<g id="a_edge11_Node000009_Node000006"><a xlink:title=" ">
<path fill="none" stroke="#63b8ff" d="M436.24,-36.46C454.33,-31.62 474.14,-26.31 491.38,-21.7"/>
<polygon fill="#63b8ff" stroke="#63b8ff" points="492.44,-25.04 501.19,-19.08 490.63,-18.28 492.44,-25.04"/>
</a>
</g>
</g>
<!-- Node9&#45;&gt;Node7 -->
<g id="edge12_Node000009_Node000007" class="edge">
<title>Node9&#45;&gt;Node7</title>
<g id="a_edge12_Node000009_Node000007"><a xlink:title=" ">
<path fill="none" stroke="#63b8ff" d="M428.39,-66.6C450.22,-73.42 475.72,-81.37 496.52,-87.87"/>
<polygon fill="#63b8ff" stroke="#63b8ff" points="495.73,-91.29 506.32,-90.92 497.82,-84.6 495.73,-91.29"/>
</a>
</g>
</g>
</g>
</svg>
