<?xml version="1.0" encoding="UTF-8" standalone="no"?>
<!DOCTYPE svg PUBLIC "-//W3C//DTD SVG 1.1//EN"
 "http://www.w3.org/Graphics/SVG/1.1/DTD/svg11.dtd">
<!-- Generated by graphviz version 2.43.0 (0)
 -->
<!-- Title: detail::uint128::low Pages: 1 -->
<svg width="437pt" height="179pt"
 viewBox="0.00 0.00 437.00 179.00" xmlns="http://www.w3.org/2000/svg" xmlns:xlink="http://www.w3.org/1999/xlink">
<g id="graph0" class="graph" transform="scale(1 1) rotate(0) translate(4 175)">
<title>detail::uint128::low</title>
<!-- Node1 -->
<g id="Node000001" class="node">
<title>Node1</title>
<g id="a_Node000001"><a xlink:title=" ">
<polygon fill="#999999" stroke="#666666" points="429,-96 319,-96 319,-77 429,-77 429,-96"/>
<text text-anchor="middle" x="374" y="-84" font-family="Helvetica,sans-Serif" font-size="10.00">detail::uint128::low</text>
</a>
</g>
</g>
<!-- Node2 -->
<g id="Node000002" class="node">
<title>Node2</title>
<g id="a_Node000002"><a xlink:href="structdetail_1_1dragonbox_1_1cache__accessor_3_01double_01_4.html#ae8b6d9661e9f0a2f71dc0db3c742588b" target="_top" xlink:title=" ">
<polygon fill="white" stroke="#666666" points="137,-97 0,-97 0,-56 137,-56 137,-97"/>
<text text-anchor="start" x="8" y="-85" font-family="Helvetica,sans-Serif" font-size="10.00">detail::dragonbox::</text>
<text text-anchor="start" x="8" y="-74" font-family="Helvetica,sans-Serif" font-size="10.00">cache_accessor&lt; double</text>
<text text-anchor="middle" x="68.5" y="-63" font-family="Helvetica,sans-Serif" font-size="10.00"> &gt;::compute_mul</text>
</a>
</g>
</g>
<!-- Node1&#45;&gt;Node2 -->
<g id="edge1_Node000001_Node000002" class="edge">
<title>Node1&#45;&gt;Node2</title>
<g id="a_edge1_Node000001_Node000002"><a xlink:title=" ">
<path fill="none" stroke="#63b8ff" d="M308.61,-84.38C258.21,-82.72 188.31,-80.41 137.1,-78.73"/>
<polygon fill="#63b8ff" stroke="#63b8ff" points="308.63,-87.88 318.74,-84.71 308.86,-80.88 308.63,-87.88"/>
</a>
</g>
</g>
<!-- Node3 -->
<g id="Node000003" class="node">
<title>Node3</title>
<g id="a_Node000003"><a xlink:href="structdetail_1_1dragonbox_1_1cache__accessor_3_01double_01_4.html#a08dcaeba4527995a6cec582f36782687" target="_top" xlink:title=" ">
<polygon fill="white" stroke="#666666" points="137,-171 0,-171 0,-130 137,-130 137,-171"/>
<text text-anchor="start" x="8" y="-159" font-family="Helvetica,sans-Serif" font-size="10.00">detail::dragonbox::</text>
<text text-anchor="start" x="8" y="-148" font-family="Helvetica,sans-Serif" font-size="10.00">cache_accessor&lt; double</text>
<text text-anchor="middle" x="68.5" y="-137" font-family="Helvetica,sans-Serif" font-size="10.00"> &gt;::compute_mul_parity</text>
</a>
</g>
</g>
<!-- Node1&#45;&gt;Node3 -->
<g id="edge2_Node000001_Node000003" class="edge">
<title>Node1&#45;&gt;Node3</title>
<g id="a_edge2_Node000001_Node000003"><a xlink:title=" ">
<path fill="none" stroke="#63b8ff" d="M356.96,-103.61C340.29,-120.02 312.56,-143.71 283,-153.5 236.02,-169.07 179.98,-167.58 137.1,-162.6"/>
<polygon fill="#63b8ff" stroke="#63b8ff" points="359.69,-105.82 364.21,-96.23 354.7,-100.91 359.69,-105.82"/>
</a>
</g>
</g>
<!-- Node4 -->
<g id="Node000004" class="node">
<title>Node4</title>
<g id="a_Node000004"><a xlink:href="namespacedetail.html#add861c358ea50b446b1a06080adb44ba" target="_top" xlink:title=" ">
<polygon fill="white" stroke="#666666" points="123.5,-19 13.5,-19 13.5,0 123.5,0 123.5,-19"/>
<text text-anchor="middle" x="68.5" y="-7" font-family="Helvetica,sans-Serif" font-size="10.00">detail::format_float</text>
</a>
</g>
</g>
<!-- Node1&#45;&gt;Node4 -->
<g id="edge3_Node000001_Node000004" class="edge">
<title>Node1&#45;&gt;Node4</title>
<g id="a_edge3_Node000001_Node000004"><a xlink:title=" ">
<path fill="none" stroke="#63b8ff" d="M356.86,-69.68C340.11,-53.5 312.32,-29.98 283,-19.5 231.29,-1.01 168.01,-0.56 123.82,-3.47"/>
<polygon fill="#63b8ff" stroke="#63b8ff" points="354.59,-72.37 364.15,-76.95 359.53,-67.41 354.59,-72.37"/>
</a>
</g>
</g>
<!-- Node5 -->
<g id="Node000005" class="node">
<title>Node5</title>
<g id="a_Node000005"><a xlink:href="namespacedetail_1_1dragonbox.html#ac836659b351ddf33f74fee7f87cbeefc" target="_top" xlink:title=" ">
<polygon fill="white" stroke="#666666" points="283,-144.5 173,-144.5 173,-114.5 283,-114.5 283,-144.5"/>
<text text-anchor="start" x="181" y="-132.5" font-family="Helvetica,sans-Serif" font-size="10.00">detail::dragonbox::</text>
<text text-anchor="middle" x="228" y="-121.5" font-family="Helvetica,sans-Serif" font-size="10.00">umul192_lower128</text>
</a>
</g>
</g>
<!-- Node1&#45;&gt;Node5 -->
<g id="edge4_Node000001_Node000005" class="edge">
<title>Node1&#45;&gt;Node5</title>
<g id="a_edge4_Node000001_Node000005"><a xlink:title=" ">
<path fill="none" stroke="#63b8ff" d="M331.28,-98.96C315.02,-103.81 296.25,-109.42 279.25,-114.49"/>
<polygon fill="#63b8ff" stroke="#63b8ff" points="332.46,-102.26 341.04,-96.04 330.46,-95.55 332.46,-102.26"/>
</a>
</g>
</g>
<!-- Node6 -->
<g id="Node000006" class="node">
<title>Node6</title>
<g id="a_Node000006"><a xlink:href="namespacedetail_1_1dragonbox.html#ab9470405474ffc0d7b8bc15071b7d515" target="_top" xlink:title=" ">
<polygon fill="white" stroke="#666666" points="283,-58.5 173,-58.5 173,-28.5 283,-28.5 283,-58.5"/>
<text text-anchor="start" x="181" y="-46.5" font-family="Helvetica,sans-Serif" font-size="10.00">detail::dragonbox::</text>
<text text-anchor="middle" x="228" y="-35.5" font-family="Helvetica,sans-Serif" font-size="10.00">umul192_upper128</text>
</a>
</g>
</g>
<!-- Node1&#45;&gt;Node6 -->
<g id="edge6_Node000001_Node000006" class="edge">
<title>Node1&#45;&gt;Node6</title>
<g id="a_edge6_Node000001_Node000006"><a xlink:title=" ">
<path fill="none" stroke="#63b8ff" d="M331.28,-74.04C315.02,-69.19 296.25,-63.58 279.25,-58.51"/>
<polygon fill="#63b8ff" stroke="#63b8ff" points="330.46,-77.45 341.04,-76.96 332.46,-70.74 330.46,-77.45"/>
</a>
</g>
</g>
<!-- Node5&#45;&gt;Node3 -->
<g id="edge5_Node000005_Node000003" class="edge">
<title>Node5&#45;&gt;Node3</title>
<g id="a_edge5_Node000005_Node000003"><a xlink:title=" ">
<path fill="none" stroke="#63b8ff" d="M162.68,-138.08C154.26,-139.2 145.62,-140.35 137.16,-141.48"/>
<polygon fill="#63b8ff" stroke="#63b8ff" points="163.35,-141.52 172.8,-136.73 162.42,-134.58 163.35,-141.52"/>
</a>
</g>
</g>
<!-- Node6&#45;&gt;Node2 -->
<g id="edge7_Node000006_Node000002" class="edge">
<title>Node6&#45;&gt;Node2</title>
<g id="a_edge7_Node000006_Node000002"><a xlink:title=" ">
<path fill="none" stroke="#63b8ff" d="M162.95,-56.92C154.45,-58.7 145.72,-60.53 137.16,-62.32"/>
<polygon fill="#63b8ff" stroke="#63b8ff" points="163.73,-60.33 172.8,-54.86 162.29,-53.48 163.73,-60.33"/>
</a>
</g>
</g>
<!-- Node6&#45;&gt;Node4 -->
<g id="edge8_Node000006_Node000004" class="edge">
<title>Node6&#45;&gt;Node4</title>
<g id="a_edge8_Node000006_Node000004"><a xlink:title=" ">
<path fill="none" stroke="#63b8ff" d="M162.67,-29.61C146.19,-26.06 128.84,-22.31 113.63,-19.03"/>
<polygon fill="#63b8ff" stroke="#63b8ff" points="162.28,-33.11 172.8,-31.8 163.76,-26.27 162.28,-33.11"/>
</a>
</g>
</g>
</g>
</svg>
