<?xml version="1.0" encoding="UTF-8" standalone="no"?>
<!DOCTYPE svg PUBLIC "-//W3C//DTD SVG 1.1//EN"
 "http://www.w3.org/Graphics/SVG/1.1/DTD/svg11.dtd">
<!-- Generated by graphviz version 2.43.0 (0)
 -->
<!-- Title: cxxopts::Value Pages: 1 -->
<svg width="308pt" height="225pt"
 viewBox="0.00 0.00 308.00 225.00" xmlns="http://www.w3.org/2000/svg" xmlns:xlink="http://www.w3.org/1999/xlink">
<g id="graph0" class="graph" transform="scale(1 1) rotate(0) translate(4 221)">
<title>cxxopts::Value</title>
<!-- Node1 -->
<g id="Node000001" class="node">
<title>Node1</title>
<g id="a_Node000001"><a xlink:title=" ">
<polygon fill="#999999" stroke="#666666" points="193,-151 106,-151 106,-132 193,-132 193,-151"/>
<text text-anchor="middle" x="149.5" y="-139" font-family="Helvetica,sans-Serif" font-size="10.00">cxxopts::Value</text>
</a>
</g>
</g>
<!-- Node3 -->
<g id="Node000003" class="node">
<title>Node3</title>
<g id="a_Node000003"><a xlink:href="classcxxopts_1_1values_1_1abstract__value.html" target="_top" xlink:title=" ">
<polygon fill="white" stroke="#666666" points="140.5,-96 2.5,-96 2.5,-66 140.5,-66 140.5,-96"/>
<text text-anchor="start" x="10.5" y="-84" font-family="Helvetica,sans-Serif" font-size="10.00">cxxopts::values::abstract</text>
<text text-anchor="middle" x="71.5" y="-73" font-family="Helvetica,sans-Serif" font-size="10.00">_value&lt; bool &gt;</text>
</a>
</g>
</g>
<!-- Node1&#45;&gt;Node3 -->
<g id="edge2_Node000001_Node000003" class="edge">
<title>Node1&#45;&gt;Node3</title>
<g id="a_edge2_Node000001_Node000003"><a xlink:title=" ">
<path fill="none" stroke="#63b8ff" d="M129.86,-125.77C117.74,-116.68 102.28,-105.09 90.32,-96.11"/>
<polygon fill="#63b8ff" stroke="#63b8ff" points="127.89,-128.67 137.99,-131.87 132.09,-123.07 127.89,-128.67"/>
</a>
</g>
</g>
<!-- Node5 -->
<g id="Node000005" class="node">
<title>Node5</title>
<g id="a_Node000005"><a xlink:href="classcxxopts_1_1values_1_1abstract__value.html" target="_top" xlink:title=" ">
<polygon fill="white" stroke="#666666" points="297.5,-96 159.5,-96 159.5,-66 297.5,-66 297.5,-96"/>
<text text-anchor="start" x="167.5" y="-84" font-family="Helvetica,sans-Serif" font-size="10.00">cxxopts::values::abstract</text>
<text text-anchor="middle" x="228.5" y="-73" font-family="Helvetica,sans-Serif" font-size="10.00">_value&lt; T &gt;</text>
</a>
</g>
</g>
<!-- Node1&#45;&gt;Node5 -->
<g id="edge4_Node000001_Node000005" class="edge">
<title>Node1&#45;&gt;Node5</title>
<g id="a_edge4_Node000001_Node000005"><a xlink:title=" ">
<path fill="none" stroke="#63b8ff" d="M169.4,-125.77C181.67,-116.68 197.32,-105.09 209.44,-96.11"/>
<polygon fill="#63b8ff" stroke="#63b8ff" points="167.11,-123.1 161.16,-131.87 171.28,-128.73 167.11,-123.1"/>
</a>
</g>
</g>
<!-- Node2 -->
<g id="Node000002" class="node">
<title>Node2</title>
<g id="a_Node000002"><a xlink:title=" ">
<polygon fill="white" stroke="#666666" points="208.5,-217 90.5,-217 90.5,-187 208.5,-187 208.5,-217"/>
<text text-anchor="start" x="98.5" y="-205" font-family="Helvetica,sans-Serif" font-size="10.00">std::enable_shared</text>
<text text-anchor="middle" x="149.5" y="-194" font-family="Helvetica,sans-Serif" font-size="10.00">_from_this&lt; Value &gt;</text>
</a>
</g>
</g>
<!-- Node2&#45;&gt;Node1 -->
<g id="edge1_Node000001_Node000002" class="edge">
<title>Node2&#45;&gt;Node1</title>
<g id="a_edge1_Node000001_Node000002"><a xlink:title=" ">
<path fill="none" stroke="#63b8ff" d="M149.5,-176.75C149.5,-167.72 149.5,-158.03 149.5,-151.27"/>
<polygon fill="#63b8ff" stroke="#63b8ff" points="146,-176.84 149.5,-186.84 153,-176.84 146,-176.84"/>
</a>
</g>
</g>
<!-- Node4 -->
<g id="Node000004" class="node">
<title>Node4</title>
<g id="a_Node000004"><a xlink:href="classcxxopts_1_1values_1_1standard__value_3_01bool_01_4.html" target="_top" xlink:title=" ">
<polygon fill="white" stroke="#666666" points="141,-30 0,-30 0,0 141,0 141,-30"/>
<text text-anchor="start" x="8" y="-18" font-family="Helvetica,sans-Serif" font-size="10.00">cxxopts::values::standard</text>
<text text-anchor="middle" x="70.5" y="-7" font-family="Helvetica,sans-Serif" font-size="10.00">_value&lt; bool &gt;</text>
</a>
</g>
</g>
<!-- Node3&#45;&gt;Node4 -->
<g id="edge3_Node000003_Node000004" class="edge">
<title>Node3&#45;&gt;Node4</title>
<g id="a_edge3_Node000003_Node000004"><a xlink:title=" ">
<path fill="none" stroke="#63b8ff" d="M71.12,-55.54C70.98,-46.96 70.84,-37.61 70.72,-30.16"/>
<polygon fill="#63b8ff" stroke="#63b8ff" points="67.62,-55.85 71.28,-65.8 74.62,-55.74 67.62,-55.85"/>
</a>
</g>
</g>
<!-- Node6 -->
<g id="Node000006" class="node">
<title>Node6</title>
<g id="a_Node000006"><a xlink:href="classcxxopts_1_1values_1_1standard__value.html" target="_top" xlink:title=" ">
<polygon fill="white" stroke="#666666" points="300,-30 159,-30 159,0 300,0 300,-30"/>
<text text-anchor="start" x="167" y="-18" font-family="Helvetica,sans-Serif" font-size="10.00">cxxopts::values::standard</text>
<text text-anchor="middle" x="229.5" y="-7" font-family="Helvetica,sans-Serif" font-size="10.00">_value&lt; T &gt;</text>
</a>
</g>
</g>
<!-- Node5&#45;&gt;Node6 -->
<g id="edge5_Node000005_Node000006" class="edge">
<title>Node5&#45;&gt;Node6</title>
<g id="a_edge5_Node000005_Node000006"><a xlink:title=" ">
<path fill="none" stroke="#63b8ff" d="M228.88,-55.54C229.02,-46.96 229.16,-37.61 229.28,-30.16"/>
<polygon fill="#63b8ff" stroke="#63b8ff" points="225.38,-55.74 228.72,-65.8 232.38,-55.85 225.38,-55.74"/>
</a>
</g>
</g>
</g>
</svg>
