<?xml version="1.0" encoding="UTF-8" standalone="no"?>
<!DOCTYPE svg PUBLIC "-//W3C//DTD SVG 1.1//EN"
 "http://www.w3.org/Graphics/SVG/1.1/DTD/svg11.dtd">
<!-- Generated by graphviz version 2.43.0 (0)
 -->
<!-- Title: cxxopts::Options::help_one_group Pages: 1 -->
<svg width="293pt" height="64pt"
 viewBox="0.00 0.00 293.00 64.00" xmlns="http://www.w3.org/2000/svg" xmlns:xlink="http://www.w3.org/1999/xlink">
<g id="graph0" class="graph" transform="scale(1 1) rotate(0) translate(4 60)">
<title>cxxopts::Options::help_one_group</title>
<!-- Node1 -->
<g id="Node000001" class="node">
<title>Node1</title>
<g id="a_Node000001"><a xlink:title=" ">
<polygon fill="#999999" stroke="#666666" points="125,-42.5 0,-42.5 0,-12.5 125,-12.5 125,-42.5"/>
<text text-anchor="start" x="8" y="-30.5" font-family="Helvetica,sans-Serif" font-size="10.00">cxxopts::Options::help</text>
<text text-anchor="middle" x="62.5" y="-19.5" font-family="Helvetica,sans-Serif" font-size="10.00">_one_group</text>
</a>
</g>
</g>
<!-- Node2 -->
<g id="Node000002" class="node">
<title>Node2</title>
<g id="a_Node000002"><a xlink:href="namespacecxxopts.html#a6024a5f0910116e34c0ccef1c1322531" target="_top" xlink:title=" ">
<polygon fill="white" stroke="#666666" points="283.5,-56 162.5,-56 162.5,-37 283.5,-37 283.5,-56"/>
<text text-anchor="middle" x="223" y="-44" font-family="Helvetica,sans-Serif" font-size="10.00">cxxopts::stringLength</text>
</a>
</g>
</g>
<!-- Node1&#45;&gt;Node2 -->
<g id="edge1_Node000001_Node000002" class="edge">
<title>Node1&#45;&gt;Node2</title>
<g id="a_edge1_Node000001_Node000002"><a xlink:title=" ">
<path fill="none" stroke="#63b8ff" d="M125.23,-34.9C134.08,-35.96 143.22,-37.06 152.21,-38.13"/>
<polygon fill="#63b8ff" stroke="#63b8ff" points="151.91,-41.62 162.25,-39.34 152.74,-34.67 151.91,-41.62"/>
</a>
</g>
</g>
<!-- Node3 -->
<g id="Node000003" class="node">
<title>Node3</title>
<g id="a_Node000003"><a xlink:href="namespacecxxopts.html#ac8ee50fdeb30245d157343a3bade9ede" target="_top" xlink:title=" ">
<polygon fill="white" stroke="#666666" points="285,-19 161,-19 161,0 285,0 285,-19"/>
<text text-anchor="middle" x="223" y="-7" font-family="Helvetica,sans-Serif" font-size="10.00">cxxopts::toLocalString</text>
</a>
</g>
</g>
<!-- Node1&#45;&gt;Node3 -->
<g id="edge2_Node000001_Node000003" class="edge">
<title>Node1&#45;&gt;Node3</title>
<g id="a_edge2_Node000001_Node000003"><a xlink:title=" ">
<path fill="none" stroke="#63b8ff" d="M125.23,-20.49C133.67,-19.53 142.38,-18.54 150.96,-17.57"/>
<polygon fill="#63b8ff" stroke="#63b8ff" points="151.41,-21.04 160.96,-16.43 150.62,-14.08 151.41,-21.04"/>
</a>
</g>
</g>
</g>
</svg>
