<?xml version="1.0" encoding="UTF-8" standalone="no"?>
<!DOCTYPE svg PUBLIC "-//W3C//DTD SVG 1.1//EN"
 "http://www.w3.org/Graphics/SVG/1.1/DTD/svg11.dtd">
<!-- Generated by graphviz version 2.43.0 (0)
 -->
<!-- Title: SX1280 Pages: 1 -->
<svg width="92pt" height="247pt"
 viewBox="0.00 0.00 92.00 247.00" xmlns="http://www.w3.org/2000/svg" xmlns:xlink="http://www.w3.org/1999/xlink">
<g id="graph0" class="graph" transform="scale(1 1) rotate(0) translate(4 243)">
<title>SX1280</title>
<!-- Node1 -->
<g id="Node000001" class="node">
<title>Node1</title>
<g id="a_Node000001"><a xlink:title="Derived class for SX1280 modules.">
<polygon fill="#999999" stroke="#666666" points="68.5,-74 15.5,-74 15.5,-55 68.5,-55 68.5,-74"/>
<text text-anchor="middle" x="42" y="-62" font-family="Helvetica,sans-Serif" font-size="10.00">SX1280</text>
</a>
</g>
</g>
<!-- Node5 -->
<g id="Node000005" class="node">
<title>Node5</title>
<g id="a_Node000005"><a xlink:href="classSX1282.html" target="_top" xlink:title="Derived class for SX1282 modules.">
<polygon fill="white" stroke="#666666" points="68.5,-19 15.5,-19 15.5,0 68.5,0 68.5,-19"/>
<text text-anchor="middle" x="42" y="-7" font-family="Helvetica,sans-Serif" font-size="10.00">SX1282</text>
</a>
</g>
</g>
<!-- Node1&#45;&gt;Node5 -->
<g id="edge4_Node000001_Node000005" class="edge">
<title>Node1&#45;&gt;Node5</title>
<g id="a_edge4_Node000001_Node000005"><a xlink:title=" ">
<path fill="none" stroke="#63b8ff" d="M42,-44.66C42,-35.93 42,-25.99 42,-19.09"/>
<polygon fill="#63b8ff" stroke="#63b8ff" points="38.5,-44.75 42,-54.75 45.5,-44.75 38.5,-44.75"/>
</a>
</g>
</g>
<!-- Node2 -->
<g id="Node000002" class="node">
<title>Node2</title>
<g id="a_Node000002"><a xlink:href="classSX1281.html" target="_top" xlink:title="Derived class for SX1281 modules.">
<polygon fill="white" stroke="#666666" points="68.5,-129 15.5,-129 15.5,-110 68.5,-110 68.5,-129"/>
<text text-anchor="middle" x="42" y="-117" font-family="Helvetica,sans-Serif" font-size="10.00">SX1281</text>
</a>
</g>
</g>
<!-- Node2&#45;&gt;Node1 -->
<g id="edge1_Node000001_Node000002" class="edge">
<title>Node2&#45;&gt;Node1</title>
<g id="a_edge1_Node000001_Node000002"><a xlink:title=" ">
<path fill="none" stroke="#63b8ff" d="M42,-99.66C42,-90.93 42,-80.99 42,-74.09"/>
<polygon fill="#63b8ff" stroke="#63b8ff" points="38.5,-99.75 42,-109.75 45.5,-99.75 38.5,-99.75"/>
</a>
</g>
</g>
<!-- Node3 -->
<g id="Node000003" class="node">
<title>Node3</title>
<g id="a_Node000003"><a xlink:href="classSX128x.html" target="_top" xlink:title="Base class for SX128x series. All derived classes for SX128x (e.g. SX1280 or SX1281) inherit from thi...">
<polygon fill="white" stroke="#666666" points="68.5,-184 15.5,-184 15.5,-165 68.5,-165 68.5,-184"/>
<text text-anchor="middle" x="42" y="-172" font-family="Helvetica,sans-Serif" font-size="10.00">SX128x</text>
</a>
</g>
</g>
<!-- Node3&#45;&gt;Node2 -->
<g id="edge2_Node000002_Node000003" class="edge">
<title>Node3&#45;&gt;Node2</title>
<g id="a_edge2_Node000002_Node000003"><a xlink:title=" ">
<path fill="none" stroke="#63b8ff" d="M42,-154.66C42,-145.93 42,-135.99 42,-129.09"/>
<polygon fill="#63b8ff" stroke="#63b8ff" points="38.5,-154.75 42,-164.75 45.5,-154.75 38.5,-154.75"/>
</a>
</g>
</g>
<!-- Node4 -->
<g id="Node000004" class="node">
<title>Node4</title>
<g id="a_Node000004"><a xlink:href="classPhysicalLayer.html" target="_top" xlink:title="Provides common interface for protocols that run on LoRa/FSK modules, such as RTTY or LoRaWAN....">
<polygon fill="white" stroke="#666666" points="84,-239 0,-239 0,-220 84,-220 84,-239"/>
<text text-anchor="middle" x="42" y="-227" font-family="Helvetica,sans-Serif" font-size="10.00">PhysicalLayer</text>
</a>
</g>
</g>
<!-- Node4&#45;&gt;Node3 -->
<g id="edge3_Node000003_Node000004" class="edge">
<title>Node4&#45;&gt;Node3</title>
<g id="a_edge3_Node000003_Node000004"><a xlink:title=" ">
<path fill="none" stroke="#63b8ff" d="M42,-209.66C42,-200.93 42,-190.99 42,-184.09"/>
<polygon fill="#63b8ff" stroke="#63b8ff" points="38.5,-209.75 42,-219.75 45.5,-209.75 38.5,-209.75"/>
</a>
</g>
</g>
</g>
</svg>
