<?xml version="1.0" encoding="UTF-8" standalone="no"?>
<!DOCTYPE svg PUBLIC "-//W3C//DTD SVG 1.1//EN"
 "http://www.w3.org/Graphics/SVG/1.1/DTD/svg11.dtd">
<!-- Generated by graphviz version 2.43.0 (0)
 -->
<!-- Title: Magick::MontageFramed Pages: 1 -->
<svg width="450pt" height="251pt"
 viewBox="0.00 0.00 450.00 251.00" xmlns="http://www.w3.org/2000/svg" xmlns:xlink="http://www.w3.org/1999/xlink">
<g id="graph0" class="graph" transform="scale(1 1) rotate(0) translate(4 247)">
<title>Magick::MontageFramed</title>
<!-- Node1 -->
<g id="Node000001" class="node">
<title>Node1</title>
<g id="a_Node000001"><a xlink:title=" ">
<polygon fill="#999999" stroke="#666666" points="282,-19 145,-19 145,0 282,0 282,-19"/>
<text text-anchor="middle" x="213.5" y="-7" font-family="Helvetica,sans-Serif" font-size="10.00">Magick::MontageFramed</text>
</a>
</g>
</g>
<!-- Node2 -->
<g id="Node000002" class="node">
<title>Node2</title>
<g id="a_Node000002"><a xlink:href="classMagick_1_1Montage.html" target="_top" xlink:title=" ">
<polygon fill="white" stroke="#666666" points="264,-76.5 163,-76.5 163,-57.5 264,-57.5 264,-76.5"/>
<text text-anchor="middle" x="213.5" y="-64.5" font-family="Helvetica,sans-Serif" font-size="10.00">Magick::Montage</text>
</a>
</g>
</g>
<!-- Node2&#45;&gt;Node1 -->
<g id="edge1_Node000001_Node000002" class="edge">
<title>Node2&#45;&gt;Node1</title>
<g id="a_edge1_Node000001_Node000002"><a xlink:title=" ">
<path fill="none" stroke="#63b8ff" d="M213.5,-47.25C213.5,-37.8 213.5,-26.78 213.5,-19.29"/>
<polygon fill="#63b8ff" stroke="#63b8ff" points="210,-47.33 213.5,-57.33 217,-47.33 210,-47.33"/>
</a>
</g>
</g>
<!-- Node3 -->
<g id="Node000003" class="node">
<title>Node3</title>
<g id="a_Node000003"><a xlink:href="classMagick_1_1Color.html" target="_top" xlink:title=" ">
<polygon fill="white" stroke="#666666" points="83,-177 0,-177 0,-158 83,-158 83,-177"/>
<text text-anchor="middle" x="41.5" y="-165" font-family="Helvetica,sans-Serif" font-size="10.00">Magick::Color</text>
</a>
</g>
</g>
<!-- Node3&#45;&gt;Node1 -->
<g id="edge7_Node000001_Node000003" class="edge">
<title>Node3&#45;&gt;Node1</title>
<g id="a_edge7_Node000001_Node000003"><a xlink:title=" ">
<path fill="none" stroke="#9a32cd" stroke-dasharray="5,2" d="M39.67,-147.4C39.06,-132.68 39.98,-112.17 47.5,-96 58.1,-73.2 66.28,-69.48 87.5,-56 115.28,-38.35 150.84,-26.31 177.1,-19.07"/>
<polygon fill="#9a32cd" stroke="#9a32cd" points="36.21,-148.04 40.4,-157.77 43.19,-147.55 36.21,-148.04"/>
</a>
</g>
<text text-anchor="middle" x="120.5" y="-70" font-family="Helvetica,sans-Serif" font-size="10.00" fill="grey"> _borderColor</text>
<text text-anchor="middle" x="120.5" y="-59" font-family="Helvetica,sans-Serif" font-size="10.00" fill="grey">_matteColor</text>
</g>
<!-- Node3&#45;&gt;Node2 -->
<g id="edge2_Node000002_Node000003" class="edge">
<title>Node3&#45;&gt;Node2</title>
<g id="a_edge2_Node000002_Node000003"><a xlink:title=" ">
<path fill="none" stroke="#9a32cd" stroke-dasharray="5,2" d="M45.06,-147.84C48.97,-129.38 55.72,-102.91 63.5,-96 78.06,-83.07 125.35,-75.75 162.99,-71.87"/>
<polygon fill="#9a32cd" stroke="#9a32cd" points="41.6,-147.32 43.06,-157.81 48.46,-148.7 41.6,-147.32"/>
</a>
</g>
<text text-anchor="middle" x="109" y="-132" font-family="Helvetica,sans-Serif" font-size="10.00" fill="grey"> _backgroundColor</text>
<text text-anchor="middle" x="109" y="-121" font-family="Helvetica,sans-Serif" font-size="10.00" fill="grey">_fill</text>
<text text-anchor="middle" x="109" y="-110" font-family="Helvetica,sans-Serif" font-size="10.00" fill="grey">_stroke</text>
<text text-anchor="middle" x="109" y="-99" font-family="Helvetica,sans-Serif" font-size="10.00" fill="grey">_transparentColor</text>
</g>
<!-- Node4 -->
<g id="Node000004" class="node">
<title>Node4</title>
<g id="a_Node000004"><a xlink:title=" ">
<polygon fill="white" stroke="#666666" points="77,-243 6,-243 6,-224 77,-224 77,-243"/>
<text text-anchor="middle" x="41.5" y="-231" font-family="Helvetica,sans-Serif" font-size="10.00">PixelPacket</text>
</a>
</g>
</g>
<!-- Node4&#45;&gt;Node3 -->
<g id="edge3_Node000003_Node000004" class="edge">
<title>Node4&#45;&gt;Node3</title>
<g id="a_edge3_Node000003_Node000004"><a xlink:title=" ">
<path fill="none" stroke="#9a32cd" stroke-dasharray="5,2" d="M41.5,-213.58C41.5,-201.63 41.5,-186.72 41.5,-177.41"/>
<polygon fill="#9a32cd" stroke="#9a32cd" points="38,-213.87 41.5,-223.87 45,-213.87 38,-213.87"/>
</a>
</g>
<text text-anchor="middle" x="57.5" y="-198" font-family="Helvetica,sans-Serif" font-size="10.00" fill="grey"> _pixel</text>
</g>
<!-- Node5 -->
<g id="Node000005" class="node">
<title>Node5</title>
<g id="a_Node000005"><a xlink:title=" ">
<polygon fill="white" stroke="#666666" points="307.5,-177 195.5,-177 195.5,-158 307.5,-158 307.5,-177"/>
<text text-anchor="middle" x="251.5" y="-165" font-family="Helvetica,sans-Serif" font-size="10.00">CompositeOperator</text>
</a>
</g>
</g>
<!-- Node5&#45;&gt;Node2 -->
<g id="edge4_Node000002_Node000005" class="edge">
<title>Node5&#45;&gt;Node2</title>
<g id="a_edge4_Node000002_Node000005"><a xlink:title=" ">
<path fill="none" stroke="#9a32cd" stroke-dasharray="5,2" d="M244.55,-148.23C239.13,-133.99 231.37,-113.72 224.5,-96 222.01,-89.57 219.16,-82.33 216.99,-76.82"/>
<polygon fill="#9a32cd" stroke="#9a32cd" points="241.37,-149.71 248.2,-157.81 247.91,-147.22 241.37,-149.71"/>
</a>
</g>
<text text-anchor="middle" x="267" y="-115.5" font-family="Helvetica,sans-Serif" font-size="10.00" fill="grey"> _compose</text>
</g>
<!-- Node6 -->
<g id="Node000006" class="node">
<title>Node6</title>
<g id="a_Node000006"><a xlink:href="classMagick_1_1Geometry.html" target="_top" xlink:title=" ">
<polygon fill="white" stroke="#666666" points="442,-177 335,-177 335,-158 442,-158 442,-177"/>
<text text-anchor="middle" x="388.5" y="-165" font-family="Helvetica,sans-Serif" font-size="10.00">Magick::Geometry</text>
</a>
</g>
</g>
<!-- Node6&#45;&gt;Node1 -->
<g id="edge8_Node000001_Node000006" class="edge">
<title>Node6&#45;&gt;Node1</title>
<g id="a_edge8_Node000001_Node000006"><a xlink:title=" ">
<path fill="none" stroke="#9a32cd" stroke-dasharray="5,2" d="M390.64,-147.5C391.35,-132.25 389.99,-110.98 379.5,-96 349.18,-52.72 290.17,-29.89 251.3,-19.02"/>
<polygon fill="#9a32cd" stroke="#9a32cd" points="387.12,-147.54 389.8,-157.79 394.1,-148.1 387.12,-147.54"/>
</a>
</g>
<text text-anchor="middle" x="381.5" y="-64.5" font-family="Helvetica,sans-Serif" font-size="10.00" fill="grey"> _frame</text>
</g>
<!-- Node6&#45;&gt;Node2 -->
<g id="edge5_Node000002_Node000006" class="edge">
<title>Node6&#45;&gt;Node2</title>
<g id="a_edge5_Node000002_Node000006"><a xlink:title=" ">
<path fill="none" stroke="#9a32cd" stroke-dasharray="5,2" d="M346.8,-154.2C338.5,-150.51 330.27,-145.84 323.5,-140 306.31,-125.16 315.17,-110.27 297.5,-96 286.26,-86.92 271.95,-80.73 258.34,-76.54"/>
<polygon fill="#9a32cd" stroke="#9a32cd" points="345.53,-157.47 356.12,-157.96 348.15,-150.98 345.53,-157.47"/>
</a>
</g>
<text text-anchor="middle" x="351.5" y="-121" font-family="Helvetica,sans-Serif" font-size="10.00" fill="grey"> _geometry</text>
<text text-anchor="middle" x="351.5" y="-110" font-family="Helvetica,sans-Serif" font-size="10.00" fill="grey">_tile</text>
</g>
<!-- Node7 -->
<g id="Node000007" class="node">
<title>Node7</title>
<g id="a_Node000007"><a xlink:title=" ">
<polygon fill="white" stroke="#666666" points="178,-177 103,-177 103,-158 178,-158 178,-177"/>
<text text-anchor="middle" x="140.5" y="-165" font-family="Helvetica,sans-Serif" font-size="10.00">GravityType</text>
</a>
</g>
</g>
<!-- Node7&#45;&gt;Node2 -->
<g id="edge6_Node000002_Node000007" class="edge">
<title>Node7&#45;&gt;Node2</title>
<g id="a_edge6_Node000002_Node000007"><a xlink:title=" ">
<path fill="none" stroke="#9a32cd" stroke-dasharray="5,2" d="M152.61,-149.69C154.68,-146.54 156.73,-143.22 158.5,-140 168.75,-121.33 164.46,-112.84 177.5,-96 183.41,-88.36 191.87,-81.64 199.1,-76.7"/>
<polygon fill="#9a32cd" stroke="#9a32cd" points="149.72,-147.71 146.93,-157.93 155.49,-151.68 149.72,-147.71"/>
</a>
</g>
<text text-anchor="middle" x="199" y="-115.5" font-family="Helvetica,sans-Serif" font-size="10.00" fill="grey"> _gravity</text>
</g>
</g>
</svg>
