<?xml version="1.0" encoding="UTF-8" standalone="no"?>
<!DOCTYPE svg PUBLIC "-//W3C//DTD SVG 1.1//EN"
 "http://www.w3.org/Graphics/SVG/1.1/DTD/svg11.dtd">
<!-- Generated by graphviz version 2.43.0 (0)
 -->
<!-- Title: parse_context::begin Pages: 1 -->
<svg width="311pt" height="301pt"
 viewBox="0.00 0.00 311.00 301.00" xmlns="http://www.w3.org/2000/svg" xmlns:xlink="http://www.w3.org/1999/xlink">
<g id="graph0" class="graph" transform="scale(1 1) rotate(0) translate(4 297)">
<title>parse_context::begin</title>
<!-- Node1 -->
<g id="Node000001" class="node">
<title>Node1</title>
<g id="a_Node000001"><a xlink:title=" ">
<polygon fill="#999999" stroke="#666666" points="303,-178 184,-178 184,-159 303,-159 303,-178"/>
<text text-anchor="middle" x="243.5" y="-166" font-family="Helvetica,sans-Serif" font-size="10.00">parse_context::begin</text>
</a>
</g>
</g>
<!-- Node2 -->
<g id="Node000002" class="node">
<title>Node2</title>
<g id="a_Node000002"><a xlink:href="classparse__context.html#aa797d1308d9cd7a7755327c6db352665" target="_top" xlink:title="Advances the begin iterator to it.">
<polygon fill="white" stroke="#666666" points="148,-293 0,-293 0,-274 148,-274 148,-293"/>
<text text-anchor="middle" x="74" y="-281" font-family="Helvetica,sans-Serif" font-size="10.00">parse_context::advance_to</text>
</a>
</g>
</g>
<!-- Node1&#45;&gt;Node2 -->
<g id="edge1_Node000001_Node000002" class="edge">
<title>Node1&#45;&gt;Node2</title>
<g id="a_edge1_Node000001_Node000002"><a xlink:title=" ">
<path fill="none" stroke="#63b8ff" d="M229.76,-186.41C213.34,-208.17 182.73,-244.43 148,-264.5 141.31,-268.37 133.83,-271.46 126.27,-273.93"/>
<polygon fill="#63b8ff" stroke="#63b8ff" points="232.79,-188.2 235.9,-178.07 227.15,-184.05 232.79,-188.2"/>
</a>
</g>
</g>
<!-- Node3 -->
<g id="Node000003" class="node">
<title>Node3</title>
<g id="a_Node000003"><a xlink:href="structformatter_3_01detail_1_1bigint_01_4.html#ad88d4d5adf9e68739c8e97cf24b7a39f" target="_top" xlink:title=" ">
<polygon fill="white" stroke="#666666" points="128,-255.5 20,-255.5 20,-225.5 128,-225.5 128,-255.5"/>
<text text-anchor="start" x="28" y="-243.5" font-family="Helvetica,sans-Serif" font-size="10.00">formatter&lt; detail::</text>
<text text-anchor="middle" x="74" y="-232.5" font-family="Helvetica,sans-Serif" font-size="10.00">bigint &gt;::parse</text>
</a>
</g>
</g>
<!-- Node1&#45;&gt;Node3 -->
<g id="edge2_Node000001_Node000003" class="edge">
<title>Node1&#45;&gt;Node3</title>
<g id="a_edge2_Node000001_Node000003"><a xlink:title=" ">
<path fill="none" stroke="#63b8ff" d="M216.65,-182.98C197.93,-193.13 171.84,-206.59 148,-216.5 140.48,-219.62 132.41,-222.62 124.46,-225.37"/>
<polygon fill="#63b8ff" stroke="#63b8ff" points="218.37,-186.03 225.46,-178.16 215,-179.89 218.37,-186.03"/>
</a>
</g>
</g>
<!-- Node4 -->
<g id="Node000004" class="node">
<title>Node4</title>
<g id="a_Node000004"><a xlink:href="structformatter_3_01bytes_01_4.html#aea6a86c93b8c788b275fcccb7a841123" target="_top" xlink:title=" ">
<polygon fill="white" stroke="#666666" points="130.5,-207.5 17.5,-207.5 17.5,-177.5 130.5,-177.5 130.5,-207.5"/>
<text text-anchor="start" x="25.5" y="-195.5" font-family="Helvetica,sans-Serif" font-size="10.00">formatter&lt; bytes &gt;</text>
<text text-anchor="middle" x="74" y="-184.5" font-family="Helvetica,sans-Serif" font-size="10.00">::parse</text>
</a>
</g>
</g>
<!-- Node1&#45;&gt;Node4 -->
<g id="edge3_Node000001_Node000004" class="edge">
<title>Node1&#45;&gt;Node4</title>
<g id="a_edge3_Node000001_Node000004"><a xlink:title=" ">
<path fill="none" stroke="#63b8ff" d="M173.65,-178.37C159.36,-180.41 144.48,-182.54 130.74,-184.51"/>
<polygon fill="#63b8ff" stroke="#63b8ff" points="174.51,-181.78 183.92,-176.89 173.52,-174.85 174.51,-181.78"/>
</a>
</g>
</g>
<!-- Node5 -->
<g id="Node000005" class="node">
<title>Node5</title>
<g id="a_Node000005"><a xlink:href="structformatter_3_01group__digits__view_3_01T_01_4_01_4.html#a226542969556b083f4f036307760a958" target="_top" xlink:title=" ">
<polygon fill="white" stroke="#666666" points="141,-159.5 7,-159.5 7,-129.5 141,-129.5 141,-159.5"/>
<text text-anchor="start" x="15" y="-147.5" font-family="Helvetica,sans-Serif" font-size="10.00">formatter&lt; group_digits</text>
<text text-anchor="middle" x="74" y="-136.5" font-family="Helvetica,sans-Serif" font-size="10.00">_view&lt; T &gt; &gt;::parse</text>
</a>
</g>
</g>
<!-- Node1&#45;&gt;Node5 -->
<g id="edge4_Node000001_Node000005" class="edge">
<title>Node1&#45;&gt;Node5</title>
<g id="a_edge4_Node000001_Node000005"><a xlink:title=" ">
<path fill="none" stroke="#63b8ff" d="M173.76,-158.65C163.03,-157.11 151.96,-155.53 141.28,-154"/>
<polygon fill="#63b8ff" stroke="#63b8ff" points="173.52,-162.15 183.92,-160.11 174.51,-155.22 173.52,-162.15"/>
</a>
</g>
</g>
<!-- Node6 -->
<g id="Node000006" class="node">
<title>Node6</title>
<g id="a_Node000006"><a xlink:href="structformatter_3_01std_1_1error__code_01_4.html#a9d24221c1766094aca57c5dec38fa67d" target="_top" xlink:title=" ">
<polygon fill="white" stroke="#666666" points="133.5,-111.5 14.5,-111.5 14.5,-81.5 133.5,-81.5 133.5,-111.5"/>
<text text-anchor="start" x="22.5" y="-99.5" font-family="Helvetica,sans-Serif" font-size="10.00">formatter&lt; std::error</text>
<text text-anchor="middle" x="74" y="-88.5" font-family="Helvetica,sans-Serif" font-size="10.00">_code &gt;::parse</text>
</a>
</g>
</g>
<!-- Node1&#45;&gt;Node6 -->
<g id="edge5_Node000001_Node000006" class="edge">
<title>Node1&#45;&gt;Node6</title>
<g id="a_edge5_Node000001_Node000006"><a xlink:title=" ">
<path fill="none" stroke="#63b8ff" d="M216.65,-154.02C197.93,-143.87 171.84,-130.41 148,-120.5 140.48,-117.38 132.41,-114.38 124.46,-111.63"/>
<polygon fill="#63b8ff" stroke="#63b8ff" points="215,-157.11 225.46,-158.84 218.37,-150.97 215,-157.11"/>
</a>
</g>
</g>
<!-- Node7 -->
<g id="Node000007" class="node">
<title>Node7</title>
<g id="a_Node000007"><a xlink:href="structformatter_3_01T_00_01char_00_01typename_01std_1_1enable__if_3_01std_1_1is__base__of_3_01std369b0d8e9c4d722950acabeda16337b.html#ab6bf2b1fb1fdd9f0f085b5415c3bcc90" target="_top" xlink:title=" ">
<polygon fill="white" stroke="#666666" points="146.5,-63 1.5,-63 1.5,0 146.5,0 146.5,-63"/>
<text text-anchor="start" x="9.5" y="-51" font-family="Helvetica,sans-Serif" font-size="10.00">formatter&lt; T, char,</text>
<text text-anchor="start" x="9.5" y="-40" font-family="Helvetica,sans-Serif" font-size="10.00"> typename std::enable</text>
<text text-anchor="start" x="9.5" y="-29" font-family="Helvetica,sans-Serif" font-size="10.00">_if&lt; std::is_base_of&lt;</text>
<text text-anchor="start" x="9.5" y="-18" font-family="Helvetica,sans-Serif" font-size="10.00"> std::exception, T &gt;::value</text>
<text text-anchor="middle" x="74" y="-7" font-family="Helvetica,sans-Serif" font-size="10.00"> &gt;::type &gt;::parse</text>
</a>
</g>
</g>
<!-- Node1&#45;&gt;Node7 -->
<g id="edge6_Node000001_Node000007" class="edge">
<title>Node1&#45;&gt;Node7</title>
<g id="a_edge6_Node000001_Node000007"><a xlink:title=" ">
<path fill="none" stroke="#63b8ff" d="M228.02,-151.04C210.48,-130.6 179.38,-96.48 148,-72.5 143.73,-69.23 139.16,-66.06 134.48,-63.01"/>
<polygon fill="#63b8ff" stroke="#63b8ff" points="225.53,-153.52 234.66,-158.9 230.88,-149 225.53,-153.52"/>
</a>
</g>
</g>
</g>
</svg>
