<?xml version="1.0" encoding="UTF-8" standalone="no"?>
<!DOCTYPE svg PUBLIC "-//W3C//DTD SVG 1.1//EN"
 "http://www.w3.org/Graphics/SVG/1.1/DTD/svg11.dtd">
<!-- Generated by graphviz version 2.43.0 (0)
 -->
<!-- Title: detail::tm_writer::on_loc_time Pages: 1 -->
<svg width="1036pt" height="343pt"
 viewBox="0.00 0.00 1036.00 343.00" xmlns="http://www.w3.org/2000/svg" xmlns:xlink="http://www.w3.org/1999/xlink">
<g id="graph0" class="graph" transform="scale(1 1) rotate(0) translate(4 339)">
<title>detail::tm_writer::on_loc_time</title>
<!-- Node1 -->
<g id="Node000001" class="node">
<title>Node1</title>
<g id="a_Node000001"><a xlink:title=" ">
<polygon fill="#999999" stroke="#666666" points="104,-253 0,-253 0,-223 104,-223 104,-253"/>
<text text-anchor="start" x="8" y="-241" font-family="Helvetica,sans-Serif" font-size="10.00">detail::tm_writer::</text>
<text text-anchor="middle" x="52" y="-230" font-family="Helvetica,sans-Serif" font-size="10.00">on_loc_time</text>
</a>
</g>
</g>
<!-- Node2 -->
<g id="Node000002" class="node">
<title>Node2</title>
<g id="a_Node000002"><a xlink:href="classdetail_1_1tm__writer.html#ab8f9095299300945a550e457b970f763" target="_top" xlink:title=" ">
<polygon fill="white" stroke="#666666" points="536,-335 432,-335 432,-305 536,-305 536,-335"/>
<text text-anchor="start" x="440" y="-323" font-family="Helvetica,sans-Serif" font-size="10.00">detail::tm_writer::</text>
<text text-anchor="middle" x="484" y="-312" font-family="Helvetica,sans-Serif" font-size="10.00">format_localized</text>
</a>
</g>
</g>
<!-- Node1&#45;&gt;Node2 -->
<g id="edge1_Node000001_Node000002" class="edge">
<title>Node1&#45;&gt;Node2</title>
<g id="a_edge1_Node000001_Node000002"><a xlink:title=" ">
<path fill="none" stroke="#63b8ff" d="M104.02,-247.73C183.43,-262.87 336.35,-292.03 421.66,-308.3"/>
<polygon fill="#63b8ff" stroke="#63b8ff" points="421.24,-311.79 431.72,-310.22 422.55,-304.91 421.24,-311.79"/>
</a>
</g>
</g>
<!-- Node3 -->
<g id="Node000003" class="node">
<title>Node3</title>
<g id="a_Node000003"><a xlink:href="classdetail_1_1tm__writer.html#a4a0487e028e1502e59e0f29f896ff740" target="_top" xlink:title=" ">
<polygon fill="white" stroke="#666666" points="244,-232 140,-232 140,-202 244,-202 244,-232"/>
<text text-anchor="start" x="148" y="-220" font-family="Helvetica,sans-Serif" font-size="10.00">detail::tm_writer::</text>
<text text-anchor="middle" x="192" y="-209" font-family="Helvetica,sans-Serif" font-size="10.00">on_iso_time</text>
</a>
</g>
</g>
<!-- Node1&#45;&gt;Node3 -->
<g id="edge2_Node000001_Node000003" class="edge">
<title>Node1&#45;&gt;Node3</title>
<g id="a_edge2_Node000001_Node000003"><a xlink:title=" ">
<path fill="none" stroke="#63b8ff" d="M104.39,-230.18C112.56,-228.94 121.08,-227.64 129.46,-226.36"/>
<polygon fill="#63b8ff" stroke="#63b8ff" points="130.21,-229.79 139.57,-224.83 129.16,-222.87 130.21,-229.79"/>
</a>
</g>
</g>
<!-- Node4 -->
<g id="Node000004" class="node">
<title>Node4</title>
<g id="a_Node000004"><a xlink:href="classdetail_1_1tm__writer.html#a563b39fdbd28a76257c855bfdca1d70a" target="_top" xlink:title=" ">
<polygon fill="white" stroke="#666666" points="384,-78 280,-78 280,-48 384,-48 384,-78"/>
<text text-anchor="start" x="288" y="-66" font-family="Helvetica,sans-Serif" font-size="10.00">detail::tm_writer::</text>
<text text-anchor="middle" x="332" y="-55" font-family="Helvetica,sans-Serif" font-size="10.00">on_24_hour_time</text>
</a>
</g>
</g>
<!-- Node3&#45;&gt;Node4 -->
<g id="edge3_Node000003_Node000004" class="edge">
<title>Node3&#45;&gt;Node4</title>
<g id="a_edge3_Node000003_Node000004"><a xlink:title=" ">
<path fill="none" stroke="#63b8ff" d="M206.48,-201.95C230.74,-174.88 281.88,-117.82 310.5,-85.88"/>
<polygon fill="#63b8ff" stroke="#63b8ff" points="313.19,-88.12 317.26,-78.34 307.98,-83.45 313.19,-88.12"/>
</a>
</g>
</g>
<!-- Node7 -->
<g id="Node000007" class="node">
<title>Node7</title>
<g id="a_Node000007"><a xlink:href="classdetail_1_1tm__writer.html#a57084e1a4311b7439ef4217fa3018285" target="_top" xlink:title=" ">
<polygon fill="white" stroke="#666666" points="384,-232 280,-232 280,-202 384,-202 384,-232"/>
<text text-anchor="start" x="288" y="-220" font-family="Helvetica,sans-Serif" font-size="10.00">detail::tm_writer::</text>
<text text-anchor="middle" x="332" y="-209" font-family="Helvetica,sans-Serif" font-size="10.00">on_second</text>
</a>
</g>
</g>
<!-- Node3&#45;&gt;Node7 -->
<g id="edge6_Node000003_Node000007" class="edge">
<title>Node3&#45;&gt;Node7</title>
<g id="a_edge6_Node000003_Node000007"><a xlink:title=" ">
<path fill="none" stroke="#63b8ff" d="M244.39,-217C252.56,-217 261.08,-217 269.46,-217"/>
<polygon fill="#63b8ff" stroke="#63b8ff" points="269.57,-220.5 279.57,-217 269.57,-213.5 269.57,-220.5"/>
</a>
</g>
</g>
<!-- Node5 -->
<g id="Node000005" class="node">
<title>Node5</title>
<g id="a_Node000005"><a xlink:href="classdetail_1_1tm__writer.html#a1cabc65ab2cc70f017f44a37c6ccb83e" target="_top" xlink:title=" ">
<polygon fill="white" stroke="#666666" points="536,-30 432,-30 432,0 536,0 536,-30"/>
<text text-anchor="start" x="440" y="-18" font-family="Helvetica,sans-Serif" font-size="10.00">detail::tm_writer::</text>
<text text-anchor="middle" x="484" y="-7" font-family="Helvetica,sans-Serif" font-size="10.00">tm_hour</text>
</a>
</g>
</g>
<!-- Node4&#45;&gt;Node5 -->
<g id="edge4_Node000004_Node000005" class="edge">
<title>Node4&#45;&gt;Node5</title>
<g id="a_edge4_Node000004_Node000005"><a xlink:title=" ">
<path fill="none" stroke="#63b8ff" d="M380.05,-47.94C394.71,-43.25 411.03,-38.03 426.28,-33.15"/>
<polygon fill="#63b8ff" stroke="#63b8ff" points="427.66,-36.38 436.12,-30 425.53,-29.72 427.66,-36.38"/>
</a>
</g>
</g>
<!-- Node6 -->
<g id="Node000006" class="node">
<title>Node6</title>
<g id="a_Node000006"><a xlink:href="classdetail_1_1tm__writer.html#ab4c610dbee60f8ca391e2365848019ea" target="_top" xlink:title=" ">
<polygon fill="white" stroke="#666666" points="536,-78 432,-78 432,-48 536,-48 536,-78"/>
<text text-anchor="start" x="440" y="-66" font-family="Helvetica,sans-Serif" font-size="10.00">detail::tm_writer::</text>
<text text-anchor="middle" x="484" y="-55" font-family="Helvetica,sans-Serif" font-size="10.00">tm_min</text>
</a>
</g>
</g>
<!-- Node4&#45;&gt;Node6 -->
<g id="edge5_Node000004_Node000006" class="edge">
<title>Node4&#45;&gt;Node6</title>
<g id="a_edge5_Node000004_Node000006"><a xlink:title=" ">
<path fill="none" stroke="#63b8ff" d="M384.2,-63C396.2,-63 409.11,-63 421.51,-63"/>
<polygon fill="#63b8ff" stroke="#63b8ff" points="421.77,-66.5 431.77,-63 421.77,-59.5 421.77,-66.5"/>
</a>
</g>
</g>
<!-- Node7&#45;&gt;Node2 -->
<g id="edge16_Node000007_Node000002" class="edge">
<title>Node7&#45;&gt;Node2</title>
<g id="a_edge16_Node000007_Node000002"><a xlink:title=" ">
<path fill="none" stroke="#63b8ff" d="M346.42,-232.23C362.45,-249.65 390.79,-278.07 420,-296 422.61,-297.6 425.34,-299.13 428.15,-300.57"/>
<polygon fill="#63b8ff" stroke="#63b8ff" points="426.75,-303.79 437.29,-304.93 429.77,-297.47 426.75,-303.79"/>
</a>
</g>
</g>
<!-- Node8 -->
<g id="Node000008" class="node">
<title>Node8</title>
<g id="a_Node000008"><a xlink:href="classbasic__memory__buffer.html#a7a9300acfadb00a835b36a86a198f433" target="_top" xlink:title=" ">
<polygon fill="white" stroke="#666666" points="548,-164 420,-164 420,-134 548,-134 548,-164"/>
<text text-anchor="start" x="428" y="-152" font-family="Helvetica,sans-Serif" font-size="10.00">basic_memory_buffer</text>
<text text-anchor="middle" x="484" y="-141" font-family="Helvetica,sans-Serif" font-size="10.00">::basic_memory_buffer</text>
</a>
</g>
</g>
<!-- Node7&#45;&gt;Node8 -->
<g id="edge7_Node000007_Node000008" class="edge">
<title>Node7&#45;&gt;Node8</title>
<g id="a_edge7_Node000007_Node000008"><a xlink:title=" ">
<path fill="none" stroke="#63b8ff" d="M360.85,-201.98C377.75,-193.1 399.87,-181.89 420,-173 423.91,-171.27 428,-169.55 432.12,-167.86"/>
<polygon fill="#63b8ff" stroke="#63b8ff" points="433.76,-170.97 441.74,-164.01 431.16,-164.47 433.76,-170.97"/>
</a>
</g>
</g>
<!-- Node15 -->
<g id="Node000015" class="node">
<title>Node15</title>
<g id="a_Node000015"><a xlink:href="classdetail_1_1buffer.html#adf353302bef0b99c405ca999d07b39ed" target="_top" xlink:title=" ">
<polygon fill="white" stroke="#666666" points="540,-115.5 428,-115.5 428,-96.5 540,-96.5 540,-115.5"/>
<text text-anchor="middle" x="484" y="-103.5" font-family="Helvetica,sans-Serif" font-size="10.00">detail::buffer::begin</text>
</a>
</g>
</g>
<!-- Node7&#45;&gt;Node15 -->
<g id="edge14_Node000007_Node000015" class="edge">
<title>Node7&#45;&gt;Node15</title>
<g id="a_edge14_Node000007_Node000015"><a xlink:title=" ">
<path fill="none" stroke="#63b8ff" d="M343.28,-201.96C357.98,-181.6 386.89,-145.44 420,-125 423.4,-122.9 427.05,-121.02 430.82,-119.34"/>
<polygon fill="#63b8ff" stroke="#63b8ff" points="432.34,-122.5 440.34,-115.55 429.76,-115.99 432.34,-122.5"/>
</a>
</g>
</g>
<!-- Node16 -->
<g id="Node000016" class="node">
<title>Node16</title>
<g id="a_Node000016"><a xlink:href="classdetail_1_1buffer.html#ac2b183d544845677a3b7d1137b17d16d" target="_top" xlink:title=" ">
<polygon fill="white" stroke="#666666" points="535.5,-286.5 432.5,-286.5 432.5,-267.5 535.5,-267.5 535.5,-286.5"/>
<text text-anchor="middle" x="484" y="-274.5" font-family="Helvetica,sans-Serif" font-size="10.00">detail::buffer::end</text>
</a>
</g>
</g>
<!-- Node7&#45;&gt;Node16 -->
<g id="edge15_Node000007_Node000016" class="edge">
<title>Node7&#45;&gt;Node16</title>
<g id="a_edge15_Node000007_Node000016"><a xlink:title=" ">
<path fill="none" stroke="#63b8ff" d="M361.06,-232.07C377.85,-240.69 399.78,-251.3 420,-259 425.12,-260.95 430.53,-262.8 435.96,-264.52"/>
<polygon fill="#63b8ff" stroke="#63b8ff" points="435.09,-267.92 445.68,-267.48 437.13,-261.22 435.09,-267.92"/>
</a>
</g>
</g>
<!-- Node17 -->
<g id="Node000017" class="node">
<title>Node17</title>
<g id="a_Node000017"><a xlink:href="classdetail_1_1buffer.html#a8685285932360c284d19003fc4ba3edc" target="_top" xlink:title="Returns the size of this buffer.">
<polygon fill="white" stroke="#666666" points="536,-249.5 432,-249.5 432,-230.5 536,-230.5 536,-249.5"/>
<text text-anchor="middle" x="484" y="-237.5" font-family="Helvetica,sans-Serif" font-size="10.00">detail::buffer::size</text>
</a>
</g>
</g>
<!-- Node7&#45;&gt;Node17 -->
<g id="edge17_Node000007_Node000017" class="edge">
<title>Node7&#45;&gt;Node17</title>
<g id="a_edge17_Node000007_Node000017"><a xlink:title=" ">
<path fill="none" stroke="#63b8ff" d="M384.2,-224.85C396.32,-226.71 409.37,-228.71 421.88,-230.63"/>
<polygon fill="#63b8ff" stroke="#63b8ff" points="421.36,-234.09 431.77,-232.15 422.42,-227.17 421.36,-234.09"/>
</a>
</g>
</g>
<!-- Node18 -->
<g id="Node000018" class="node">
<title>Node18</title>
<g id="a_Node000018"><a xlink:href="classdetail_1_1tm__writer.html#a34eec6b5c9584aa781340fe01cd75e07" target="_top" xlink:title=" ">
<polygon fill="white" stroke="#666666" points="536,-212 432,-212 432,-182 536,-182 536,-212"/>
<text text-anchor="start" x="440" y="-200" font-family="Helvetica,sans-Serif" font-size="10.00">detail::tm_writer::</text>
<text text-anchor="middle" x="484" y="-189" font-family="Helvetica,sans-Serif" font-size="10.00">tm_sec</text>
</a>
</g>
</g>
<!-- Node7&#45;&gt;Node18 -->
<g id="edge18_Node000007_Node000018" class="edge">
<title>Node7&#45;&gt;Node18</title>
<g id="a_edge18_Node000007_Node000018"><a xlink:title=" ">
<path fill="none" stroke="#63b8ff" d="M384.2,-210.17C396.2,-208.57 409.11,-206.85 421.51,-205.2"/>
<polygon fill="#63b8ff" stroke="#63b8ff" points="422.32,-208.62 431.77,-203.83 421.4,-201.68 422.32,-208.62"/>
</a>
</g>
</g>
<!-- Node9 -->
<g id="Node000009" class="node">
<title>Node9</title>
<g id="a_Node000009"><a xlink:href="classbasic__memory__buffer.html#a97d9a0a0f9827c9277e2eea97fa0309b" target="_top" xlink:title=" ">
<polygon fill="white" stroke="#666666" points="706,-188 584,-188 584,-158 706,-158 706,-188"/>
<text text-anchor="start" x="592" y="-176" font-family="Helvetica,sans-Serif" font-size="10.00">basic_memory_buffer</text>
<text text-anchor="middle" x="645" y="-165" font-family="Helvetica,sans-Serif" font-size="10.00">::grow</text>
</a>
</g>
</g>
<!-- Node8&#45;&gt;Node9 -->
<g id="edge8_Node000008_Node000009" class="edge">
<title>Node8&#45;&gt;Node9</title>
<g id="a_edge8_Node000008_Node000009"><a xlink:title=" ">
<path fill="none" stroke="#63b8ff" d="M548.3,-158.55C556.7,-159.82 565.36,-161.13 573.87,-162.41"/>
<polygon fill="#63b8ff" stroke="#63b8ff" points="573.36,-165.88 583.77,-163.91 574.4,-158.95 573.36,-165.88"/>
</a>
</g>
</g>
<!-- Node14 -->
<g id="Node000014" class="node">
<title>Node14</title>
<g id="a_Node000014"><a xlink:href="namespacedetail.html#a75ed2634319883d038944529dbb954e2" target="_top" xlink:title=" ">
<polygon fill="white" stroke="#666666" points="698,-140 592,-140 592,-110 698,-110 698,-140"/>
<text text-anchor="start" x="600" y="-128" font-family="Helvetica,sans-Serif" font-size="10.00">detail::is_constant</text>
<text text-anchor="middle" x="645" y="-117" font-family="Helvetica,sans-Serif" font-size="10.00">_evaluated</text>
</a>
</g>
</g>
<!-- Node8&#45;&gt;Node14 -->
<g id="edge13_Node000008_Node000014" class="edge">
<title>Node8&#45;&gt;Node14</title>
<g id="a_edge13_Node000008_Node000014"><a xlink:title=" ">
<path fill="none" stroke="#63b8ff" d="M548.3,-139.45C559.37,-137.77 570.88,-136.04 581.92,-134.37"/>
<polygon fill="#63b8ff" stroke="#63b8ff" points="582.53,-137.82 591.9,-132.86 581.49,-130.9 582.53,-137.82"/>
</a>
</g>
</g>
<!-- Node10 -->
<g id="Node000010" class="node">
<title>Node10</title>
<g id="a_Node000010"><a xlink:href="namespacedetail.html#a9d0b4b56d52390d7c8a4be7baa5e2382" target="_top" xlink:title=" ">
<polygon fill="white" stroke="#666666" points="870,-219.5 742,-219.5 742,-200.5 870,-200.5 870,-219.5"/>
<text text-anchor="middle" x="806" y="-207.5" font-family="Helvetica,sans-Serif" font-size="10.00">detail::abort_fuzzing_if</text>
</a>
</g>
</g>
<!-- Node9&#45;&gt;Node10 -->
<g id="edge9_Node000009_Node000010" class="edge">
<title>Node9&#45;&gt;Node10</title>
<g id="a_edge9_Node000009_Node000010"><a xlink:title=" ">
<path fill="none" stroke="#63b8ff" d="M706.11,-186.99C721.98,-190.68 738.95,-194.63 754.27,-198.2"/>
<polygon fill="#63b8ff" stroke="#63b8ff" points="753.54,-201.62 764.07,-200.48 755.13,-194.8 753.54,-201.62"/>
</a>
</g>
</g>
<!-- Node12 -->
<g id="Node000012" class="node">
<title>Node12</title>
<g id="a_Node000012"><a xlink:href="namespacedetail.html#a208b54c1c61a9bce9df4531a657a0c64" target="_top" xlink:title=" ">
<polygon fill="white" stroke="#666666" points="850.5,-182.5 761.5,-182.5 761.5,-163.5 850.5,-163.5 850.5,-182.5"/>
<text text-anchor="middle" x="806" y="-170.5" font-family="Helvetica,sans-Serif" font-size="10.00">detail::assume</text>
</a>
</g>
</g>
<!-- Node9&#45;&gt;Node12 -->
<g id="edge11_Node000009_Node000012" class="edge">
<title>Node9&#45;&gt;Node12</title>
<g id="a_edge11_Node000009_Node000012"><a xlink:title=" ">
<path fill="none" stroke="#63b8ff" d="M706.11,-173C720.83,-173 736.49,-173 750.91,-173"/>
<polygon fill="#63b8ff" stroke="#63b8ff" points="751.16,-176.5 761.16,-173 751.16,-169.5 751.16,-176.5"/>
</a>
</g>
</g>
<!-- Node13 -->
<g id="Node000013" class="node">
<title>Node13</title>
<g id="a_Node000013"><a xlink:href="base_8h.html#a67ebc2a5b1748c4692931267cd6f89bf" target="_top" xlink:title=" ">
<polygon fill="white" stroke="#666666" points="832.5,-145.5 779.5,-145.5 779.5,-126.5 832.5,-126.5 832.5,-145.5"/>
<text text-anchor="middle" x="806" y="-133.5" font-family="Helvetica,sans-Serif" font-size="10.00">max_of</text>
</a>
</g>
</g>
<!-- Node9&#45;&gt;Node13 -->
<g id="edge12_Node000009_Node000013" class="edge">
<title>Node9&#45;&gt;Node13</title>
<g id="a_edge12_Node000009_Node000013"><a xlink:title=" ">
<path fill="none" stroke="#63b8ff" d="M706.11,-159.01C727.48,-154.04 750.84,-148.6 769.49,-144.26"/>
<polygon fill="#63b8ff" stroke="#63b8ff" points="770.37,-147.65 779.32,-141.98 768.79,-140.83 770.37,-147.65"/>
</a>
</g>
</g>
<!-- Node11 -->
<g id="Node000011" class="node">
<title>Node11</title>
<g id="a_Node000011"><a xlink:href="namespacedetail.html#a1fe84ebaf96215ce0665d95b3124c2df" target="_top" xlink:title=" ">
<polygon fill="white" stroke="#666666" points="1028,-219.5 906,-219.5 906,-200.5 1028,-200.5 1028,-219.5"/>
<text text-anchor="middle" x="967" y="-207.5" font-family="Helvetica,sans-Serif" font-size="10.00">detail::ignore_unused</text>
</a>
</g>
</g>
<!-- Node10&#45;&gt;Node11 -->
<g id="edge10_Node000010_Node000011" class="edge">
<title>Node10&#45;&gt;Node11</title>
<g id="a_edge10_Node000010_Node000011"><a xlink:title=" ">
<path fill="none" stroke="#63b8ff" d="M870.3,-210C878.61,-210 887.17,-210 895.59,-210"/>
<polygon fill="#63b8ff" stroke="#63b8ff" points="895.77,-213.5 905.77,-210 895.77,-206.5 895.77,-213.5"/>
</a>
</g>
</g>
</g>
</svg>
