<?xml version="1.0" encoding="UTF-8" standalone="no"?>
<!DOCTYPE svg PUBLIC "-//W3C//DTD SVG 1.1//EN"
 "http://www.w3.org/Graphics/SVG/1.1/DTD/svg11.dtd">
<!-- Generated by graphviz version 2.43.0 (0)
 -->
<!-- Title: text_style::get_emphasis Pages: 1 -->
<svg width="380pt" height="101pt"
 viewBox="0.00 0.00 380.00 101.00" xmlns="http://www.w3.org/2000/svg" xmlns:xlink="http://www.w3.org/1999/xlink">
<g id="graph0" class="graph" transform="scale(1 1) rotate(0) translate(4 97)">
<title>text_style::get_emphasis</title>
<!-- Node1 -->
<g id="Node000001" class="node">
<title>Node1</title>
<g id="a_Node000001"><a xlink:title=" ">
<polygon fill="#999999" stroke="#666666" points="372,-56 232,-56 232,-37 372,-37 372,-56"/>
<text text-anchor="middle" x="302" y="-44" font-family="Helvetica,sans-Serif" font-size="10.00">text_style::get_emphasis</text>
</a>
</g>
</g>
<!-- Node2 -->
<g id="Node000002" class="node">
<title>Node2</title>
<g id="a_Node000002"><a xlink:href="namespacedetail.html#aa48f1dbc6e2079815bf8ca82d81abe8e" target="_top" xlink:title=" ">
<polygon fill="white" stroke="#666666" points="196,-56 92,-56 92,-37 196,-37 196,-56"/>
<text text-anchor="middle" x="144" y="-44" font-family="Helvetica,sans-Serif" font-size="10.00">detail::vformat_to</text>
</a>
</g>
</g>
<!-- Node1&#45;&gt;Node2 -->
<g id="edge1_Node000001_Node000002" class="edge">
<title>Node1&#45;&gt;Node2</title>
<g id="a_edge1_Node000001_Node000002"><a xlink:title=" ">
<path fill="none" stroke="#63b8ff" d="M221.6,-46.5C213.02,-46.5 204.46,-46.5 196.33,-46.5"/>
<polygon fill="#63b8ff" stroke="#63b8ff" points="221.67,-50 231.67,-46.5 221.67,-43 221.67,-50"/>
</a>
</g>
</g>
<!-- Node3 -->
<g id="Node000003" class="node">
<title>Node3</title>
<g id="a_Node000003"><a xlink:href="home_2runner_2work_2CHRONOS-LoRa_2CHRONOS-LoRa_2thirdparty_2fmt_2include_2fmt_2color_8h.html#aadf71aa39d12c7a1ca08c8596c513edd" target="_top" xlink:title=" ">
<polygon fill="white" stroke="#666666" points="56,-93 0,-93 0,-74 56,-74 56,-93"/>
<text text-anchor="middle" x="28" y="-81" font-family="Helvetica,sans-Serif" font-size="10.00">vformat</text>
</a>
</g>
</g>
<!-- Node2&#45;&gt;Node3 -->
<g id="edge2_Node000002_Node000003" class="edge">
<title>Node2&#45;&gt;Node3</title>
<g id="a_edge2_Node000002_Node000003"><a xlink:title=" ">
<path fill="none" stroke="#63b8ff" d="M103.71,-59.25C88.09,-64.32 70.49,-70.03 56.3,-74.64"/>
<polygon fill="#63b8ff" stroke="#63b8ff" points="105.21,-62.44 113.64,-56.03 103.05,-55.79 105.21,-62.44"/>
</a>
</g>
</g>
<!-- Node4 -->
<g id="Node000004" class="node">
<title>Node4</title>
<g id="a_Node000004"><a xlink:href="xchar_8h.html#a0787317722f2961c0ee550a845cfb966" target="_top" xlink:title=" ">
<polygon fill="white" stroke="#666666" points="56,-56 0,-56 0,-37 56,-37 56,-56"/>
<text text-anchor="middle" x="28" y="-44" font-family="Helvetica,sans-Serif" font-size="10.00">vformat</text>
</a>
</g>
</g>
<!-- Node2&#45;&gt;Node4 -->
<g id="edge3_Node000002_Node000004" class="edge">
<title>Node2&#45;&gt;Node4</title>
<g id="a_edge3_Node000002_Node000004"><a xlink:title=" ">
<path fill="none" stroke="#63b8ff" d="M81.55,-46.5C72.61,-46.5 63.81,-46.5 56.04,-46.5"/>
<polygon fill="#63b8ff" stroke="#63b8ff" points="81.67,-50 91.67,-46.5 81.67,-43 81.67,-50"/>
</a>
</g>
</g>
<!-- Node5 -->
<g id="Node000005" class="node">
<title>Node5</title>
<g id="a_Node000005"><a xlink:href="home_2runner_2work_2CHRONOS-LoRa_2CHRONOS-LoRa_2thirdparty_2fmt_2include_2fmt_2color_8h.html#a86192aabb5e3ab5d0461f757afbbfb4e" target="_top" xlink:title=" ">
<polygon fill="white" stroke="#666666" points="50.5,-19 5.5,-19 5.5,0 50.5,0 50.5,-19"/>
<text text-anchor="middle" x="28" y="-7" font-family="Helvetica,sans-Serif" font-size="10.00">vprint</text>
</a>
</g>
</g>
<!-- Node2&#45;&gt;Node5 -->
<g id="edge4_Node000002_Node000005" class="edge">
<title>Node2&#45;&gt;Node5</title>
<g id="a_edge4_Node000002_Node000005"><a xlink:title=" ">
<path fill="none" stroke="#63b8ff" d="M104.05,-33.86C86.22,-28.07 65.75,-21.43 50.7,-16.54"/>
<polygon fill="#63b8ff" stroke="#63b8ff" points="103.05,-37.21 113.64,-36.97 105.21,-30.56 103.05,-37.21"/>
</a>
</g>
</g>
</g>
</svg>
