<?xml version="1.0" encoding="UTF-8" standalone="no"?>
<!DOCTYPE svg PUBLIC "-//W3C//DTD SVG 1.1//EN"
 "http://www.w3.org/Graphics/SVG/1.1/DTD/svg11.dtd">
<!-- Generated by graphviz version 2.43.0 (0)
 -->
<!-- Title: detail::tm_writer::on_loc_date Pages: 1 -->
<svg width="392pt" height="182pt"
 viewBox="0.00 0.00 392.00 182.00" xmlns="http://www.w3.org/2000/svg" xmlns:xlink="http://www.w3.org/1999/xlink">
<g id="graph0" class="graph" transform="scale(1 1) rotate(0) translate(4 178)">
<title>detail::tm_writer::on_loc_date</title>
<!-- Node1 -->
<g id="Node000001" class="node">
<title>Node1</title>
<g id="a_Node000001"><a xlink:title=" ">
<polygon fill="#999999" stroke="#666666" points="104,-126 0,-126 0,-96 104,-96 104,-126"/>
<text text-anchor="start" x="8" y="-114" font-family="Helvetica,sans-Serif" font-size="10.00">detail::tm_writer::</text>
<text text-anchor="middle" x="52" y="-103" font-family="Helvetica,sans-Serif" font-size="10.00">on_loc_date</text>
</a>
</g>
</g>
<!-- Node2 -->
<g id="Node000002" class="node">
<title>Node2</title>
<g id="a_Node000002"><a xlink:href="classdetail_1_1tm__writer.html#ab8f9095299300945a550e457b970f763" target="_top" xlink:title=" ">
<polygon fill="white" stroke="#666666" points="244,-150 140,-150 140,-120 244,-120 244,-150"/>
<text text-anchor="start" x="148" y="-138" font-family="Helvetica,sans-Serif" font-size="10.00">detail::tm_writer::</text>
<text text-anchor="middle" x="192" y="-127" font-family="Helvetica,sans-Serif" font-size="10.00">format_localized</text>
</a>
</g>
</g>
<!-- Node1&#45;&gt;Node2 -->
<g id="edge1_Node000001_Node000002" class="edge">
<title>Node1&#45;&gt;Node2</title>
<g id="a_edge1_Node000001_Node000002"><a xlink:title=" ">
<path fill="none" stroke="#63b8ff" d="M104.39,-119.94C112.56,-121.36 121.08,-122.84 129.46,-124.3"/>
<polygon fill="#63b8ff" stroke="#63b8ff" points="129.12,-127.79 139.57,-126.06 130.32,-120.89 129.12,-127.79"/>
</a>
</g>
</g>
<!-- Node3 -->
<g id="Node000003" class="node">
<title>Node3</title>
<g id="a_Node000003"><a xlink:href="classdetail_1_1tm__writer.html#a472013df4de61a40940d291bb092b051" target="_top" xlink:title=" ">
<polygon fill="white" stroke="#666666" points="244,-102 140,-102 140,-72 244,-72 244,-102"/>
<text text-anchor="start" x="148" y="-90" font-family="Helvetica,sans-Serif" font-size="10.00">detail::tm_writer::</text>
<text text-anchor="middle" x="192" y="-79" font-family="Helvetica,sans-Serif" font-size="10.00">on_us_date</text>
</a>
</g>
</g>
<!-- Node1&#45;&gt;Node3 -->
<g id="edge2_Node000001_Node000003" class="edge">
<title>Node1&#45;&gt;Node3</title>
<g id="a_edge2_Node000001_Node000003"><a xlink:title=" ">
<path fill="none" stroke="#63b8ff" d="M104.39,-102.06C112.56,-100.64 121.08,-99.16 129.46,-97.7"/>
<polygon fill="#63b8ff" stroke="#63b8ff" points="130.32,-101.11 139.57,-95.94 129.12,-94.21 130.32,-101.11"/>
</a>
</g>
</g>
<!-- Node4 -->
<g id="Node000004" class="node">
<title>Node4</title>
<g id="a_Node000004"><a xlink:href="classdetail_1_1tm__writer.html#a99d7ce114df249b93ff4721a1c244351" target="_top" xlink:title=" ">
<polygon fill="white" stroke="#666666" points="384,-174 280,-174 280,-144 384,-144 384,-174"/>
<text text-anchor="start" x="288" y="-162" font-family="Helvetica,sans-Serif" font-size="10.00">detail::tm_writer::</text>
<text text-anchor="middle" x="332" y="-151" font-family="Helvetica,sans-Serif" font-size="10.00">split_year_lower</text>
</a>
</g>
</g>
<!-- Node3&#45;&gt;Node4 -->
<g id="edge3_Node000003_Node000004" class="edge">
<title>Node3&#45;&gt;Node4</title>
<g id="a_edge3_Node000003_Node000004"><a xlink:title=" ">
<path fill="none" stroke="#63b8ff" d="M226.83,-102.05C232.63,-104.88 238.55,-107.92 244,-111 260.75,-120.45 263.25,-125.55 280,-135 282.64,-136.49 285.39,-137.97 288.18,-139.43"/>
<polygon fill="#63b8ff" stroke="#63b8ff" points="286.67,-142.58 297.17,-143.95 289.81,-136.33 286.67,-142.58"/>
</a>
</g>
</g>
<!-- Node5 -->
<g id="Node000005" class="node">
<title>Node5</title>
<g id="a_Node000005"><a xlink:href="classdetail_1_1tm__writer.html#a315a3d867c7f3e1aaa567c45a65f04da" target="_top" xlink:title=" ">
<polygon fill="white" stroke="#666666" points="384,-126 280,-126 280,-96 384,-96 384,-126"/>
<text text-anchor="start" x="288" y="-114" font-family="Helvetica,sans-Serif" font-size="10.00">detail::tm_writer::</text>
<text text-anchor="middle" x="332" y="-103" font-family="Helvetica,sans-Serif" font-size="10.00">tm_mday</text>
</a>
</g>
</g>
<!-- Node3&#45;&gt;Node5 -->
<g id="edge4_Node000003_Node000005" class="edge">
<title>Node3&#45;&gt;Node5</title>
<g id="a_edge4_Node000003_Node000005"><a xlink:title=" ">
<path fill="none" stroke="#63b8ff" d="M244.39,-95.94C252.56,-97.36 261.08,-98.84 269.46,-100.3"/>
<polygon fill="#63b8ff" stroke="#63b8ff" points="269.12,-103.79 279.57,-102.06 270.32,-96.89 269.12,-103.79"/>
</a>
</g>
</g>
<!-- Node6 -->
<g id="Node000006" class="node">
<title>Node6</title>
<g id="a_Node000006"><a xlink:href="classdetail_1_1tm__writer.html#a552699b68cca33b8a1e2f9fd4273a848" target="_top" xlink:title=" ">
<polygon fill="white" stroke="#666666" points="384,-78 280,-78 280,-48 384,-48 384,-78"/>
<text text-anchor="start" x="288" y="-66" font-family="Helvetica,sans-Serif" font-size="10.00">detail::tm_writer::</text>
<text text-anchor="middle" x="332" y="-55" font-family="Helvetica,sans-Serif" font-size="10.00">tm_mon</text>
</a>
</g>
</g>
<!-- Node3&#45;&gt;Node6 -->
<g id="edge5_Node000003_Node000006" class="edge">
<title>Node3&#45;&gt;Node6</title>
<g id="a_edge5_Node000003_Node000006"><a xlink:title=" ">
<path fill="none" stroke="#63b8ff" d="M244.39,-78.06C252.56,-76.64 261.08,-75.16 269.46,-73.7"/>
<polygon fill="#63b8ff" stroke="#63b8ff" points="270.32,-77.11 279.57,-71.94 269.12,-70.21 270.32,-77.11"/>
</a>
</g>
</g>
<!-- Node7 -->
<g id="Node000007" class="node">
<title>Node7</title>
<g id="a_Node000007"><a xlink:href="classdetail_1_1tm__writer.html#a82bed31c275dcb4710557360e5d3ab58" target="_top" xlink:title=" ">
<polygon fill="white" stroke="#666666" points="384,-30 280,-30 280,0 384,0 384,-30"/>
<text text-anchor="start" x="288" y="-18" font-family="Helvetica,sans-Serif" font-size="10.00">detail::tm_writer::</text>
<text text-anchor="middle" x="332" y="-7" font-family="Helvetica,sans-Serif" font-size="10.00">tm_year</text>
</a>
</g>
</g>
<!-- Node3&#45;&gt;Node7 -->
<g id="edge6_Node000003_Node000007" class="edge">
<title>Node3&#45;&gt;Node7</title>
<g id="a_edge6_Node000003_Node000007"><a xlink:title=" ">
<path fill="none" stroke="#63b8ff" d="M219.42,-71.85C236.54,-62.17 259.41,-49.51 280,-39 282.92,-37.51 285.95,-36 289.01,-34.5"/>
<polygon fill="#63b8ff" stroke="#63b8ff" points="290.72,-37.56 298.2,-30.05 287.67,-31.25 290.72,-37.56"/>
</a>
</g>
</g>
</g>
</svg>
