<?xml version="1.0" encoding="UTF-8" standalone="no"?>
<!DOCTYPE svg PUBLIC "-//W3C//DTD SVG 1.1//EN"
 "http://www.w3.org/Graphics/SVG/1.1/DTD/svg11.dtd">
<!-- Generated by graphviz version 2.43.0 (0)
 -->
<!-- Title: LRxxxx Pages: 1 -->
<svg width="167pt" height="247pt"
 viewBox="0.00 0.00 167.00 247.00" xmlns="http://www.w3.org/2000/svg" xmlns:xlink="http://www.w3.org/1999/xlink">
<g id="graph0" class="graph" transform="scale(1 1) rotate(0) translate(4 243)">
<title>LRxxxx</title>
<!-- Node1 -->
<g id="Node000001" class="node">
<title>Node1</title>
<g id="a_Node000001"><a xlink:title=" ">
<polygon fill="#999999" stroke="#666666" points="123,-184 70,-184 70,-165 123,-165 123,-184"/>
<text text-anchor="middle" x="96.5" y="-172" font-family="Helvetica,sans-Serif" font-size="10.00">LRxxxx</text>
</a>
</g>
</g>
<!-- Node3 -->
<g id="Node000003" class="node">
<title>Node3</title>
<g id="a_Node000003"><a xlink:href="classLR11x0.html" target="_top" xlink:title="Base class for LR11x0 series. All derived classes for LR11x0 (e.g. LR1110 or LR1120) inherit from thi...">
<polygon fill="white" stroke="#666666" points="88,-129 35,-129 35,-110 88,-110 88,-129"/>
<text text-anchor="middle" x="61.5" y="-117" font-family="Helvetica,sans-Serif" font-size="10.00">LR11x0</text>
</a>
</g>
</g>
<!-- Node1&#45;&gt;Node3 -->
<g id="edge2_Node000001_Node000003" class="edge">
<title>Node1&#45;&gt;Node3</title>
<g id="a_edge2_Node000001_Node000003"><a xlink:title=" ">
<path fill="none" stroke="#63b8ff" d="M85.2,-156.39C79.18,-147.27 72.03,-136.45 67.17,-129.09"/>
<polygon fill="#63b8ff" stroke="#63b8ff" points="82.29,-158.33 90.72,-164.75 88.13,-154.47 82.29,-158.33"/>
</a>
</g>
</g>
<!-- Node7 -->
<g id="Node000007" class="node">
<title>Node7</title>
<g id="a_Node000007"><a xlink:href="classLR2021.html" target="_top" xlink:title=" ">
<polygon fill="white" stroke="#666666" points="159,-129 106,-129 106,-110 159,-110 159,-129"/>
<text text-anchor="middle" x="132.5" y="-117" font-family="Helvetica,sans-Serif" font-size="10.00">LR2021</text>
</a>
</g>
</g>
<!-- Node1&#45;&gt;Node7 -->
<g id="edge6_Node000001_Node000007" class="edge">
<title>Node1&#45;&gt;Node7</title>
<g id="a_edge6_Node000001_Node000007"><a xlink:title=" ">
<path fill="none" stroke="#63b8ff" d="M108.12,-156.39C114.32,-147.27 121.67,-136.45 126.67,-129.09"/>
<polygon fill="#63b8ff" stroke="#63b8ff" points="105.17,-154.51 102.44,-164.75 110.96,-158.44 105.17,-154.51"/>
</a>
</g>
</g>
<!-- Node2 -->
<g id="Node000002" class="node">
<title>Node2</title>
<g id="a_Node000002"><a xlink:href="classPhysicalLayer.html" target="_top" xlink:title="Provides common interface for protocols that run on LoRa/FSK modules, such as RTTY or LoRaWAN....">
<polygon fill="white" stroke="#666666" points="138.5,-239 54.5,-239 54.5,-220 138.5,-220 138.5,-239"/>
<text text-anchor="middle" x="96.5" y="-227" font-family="Helvetica,sans-Serif" font-size="10.00">PhysicalLayer</text>
</a>
</g>
</g>
<!-- Node2&#45;&gt;Node1 -->
<g id="edge1_Node000001_Node000002" class="edge">
<title>Node2&#45;&gt;Node1</title>
<g id="a_edge1_Node000001_Node000002"><a xlink:title=" ">
<path fill="none" stroke="#63b8ff" d="M96.5,-209.66C96.5,-200.93 96.5,-190.99 96.5,-184.09"/>
<polygon fill="#63b8ff" stroke="#63b8ff" points="93,-209.75 96.5,-219.75 100,-209.75 93,-209.75"/>
</a>
</g>
</g>
<!-- Node4 -->
<g id="Node000004" class="node">
<title>Node4</title>
<g id="a_Node000004"><a xlink:href="classLR1110.html" target="_top" xlink:title="Derived class for LR1110 modules.">
<polygon fill="white" stroke="#666666" points="53,-74 0,-74 0,-55 53,-55 53,-74"/>
<text text-anchor="middle" x="26.5" y="-62" font-family="Helvetica,sans-Serif" font-size="10.00">LR1110</text>
</a>
</g>
</g>
<!-- Node3&#45;&gt;Node4 -->
<g id="edge3_Node000003_Node000004" class="edge">
<title>Node3&#45;&gt;Node4</title>
<g id="a_edge3_Node000003_Node000004"><a xlink:title=" ">
<path fill="none" stroke="#63b8ff" d="M50.2,-101.39C44.18,-92.27 37.03,-81.45 32.17,-74.09"/>
<polygon fill="#63b8ff" stroke="#63b8ff" points="47.29,-103.33 55.72,-109.75 53.13,-99.47 47.29,-103.33"/>
</a>
</g>
</g>
<!-- Node5 -->
<g id="Node000005" class="node">
<title>Node5</title>
<g id="a_Node000005"><a xlink:href="classLR1120.html" target="_top" xlink:title="Derived class for LR1120 modules.">
<polygon fill="white" stroke="#666666" points="124,-74 71,-74 71,-55 124,-55 124,-74"/>
<text text-anchor="middle" x="97.5" y="-62" font-family="Helvetica,sans-Serif" font-size="10.00">LR1120</text>
</a>
</g>
</g>
<!-- Node3&#45;&gt;Node5 -->
<g id="edge4_Node000003_Node000005" class="edge">
<title>Node3&#45;&gt;Node5</title>
<g id="a_edge4_Node000003_Node000005"><a xlink:title=" ">
<path fill="none" stroke="#63b8ff" d="M73.12,-101.39C79.32,-92.27 86.67,-81.45 91.67,-74.09"/>
<polygon fill="#63b8ff" stroke="#63b8ff" points="70.17,-99.51 67.44,-109.75 75.96,-103.44 70.17,-99.51"/>
</a>
</g>
</g>
<!-- Node6 -->
<g id="Node000006" class="node">
<title>Node6</title>
<g id="a_Node000006"><a xlink:href="classLR1121.html" target="_top" xlink:title="Derived class for LR1121 modules.">
<polygon fill="white" stroke="#666666" points="124,-19 71,-19 71,0 124,0 124,-19"/>
<text text-anchor="middle" x="97.5" y="-7" font-family="Helvetica,sans-Serif" font-size="10.00">LR1121</text>
</a>
</g>
</g>
<!-- Node5&#45;&gt;Node6 -->
<g id="edge5_Node000005_Node000006" class="edge">
<title>Node5&#45;&gt;Node6</title>
<g id="a_edge5_Node000005_Node000006"><a xlink:title=" ">
<path fill="none" stroke="#63b8ff" d="M97.5,-44.66C97.5,-35.93 97.5,-25.99 97.5,-19.09"/>
<polygon fill="#63b8ff" stroke="#63b8ff" points="94,-44.75 97.5,-54.75 101,-44.75 94,-44.75"/>
</a>
</g>
</g>
</g>
</svg>
