<?xml version="1.0" encoding="UTF-8" standalone="no"?>
<!DOCTYPE svg PUBLIC "-//W3C//DTD SVG 1.1//EN"
 "http://www.w3.org/Graphics/SVG/1.1/DTD/svg11.dtd">
<!-- Generated by graphviz version 2.43.0 (0)
 -->
<!-- Title: basic_string_view::basic_string_view Pages: 1 -->
<svg width="585pt" height="449pt"
 viewBox="0.00 0.00 585.00 448.57" xmlns="http://www.w3.org/2000/svg" xmlns:xlink="http://www.w3.org/1999/xlink">
<g id="graph0" class="graph" transform="scale(1 1) rotate(0) translate(4 444.57)">
<title>basic_string_view::basic_string_view</title>
<!-- Node1 -->
<g id="Node000001" class="node">
<title>Node1</title>
<g id="a_Node000001"><a xlink:title=" ">
<polygon fill="#999999" stroke="#666666" points="577,-221.5 468,-221.5 468,-191.5 577,-191.5 577,-221.5"/>
<text text-anchor="start" x="476" y="-209.5" font-family="Helvetica,sans-Serif" font-size="10.00">basic_string_view::</text>
<text text-anchor="middle" x="522.5" y="-198.5" font-family="Helvetica,sans-Serif" font-size="10.00">basic_string_view</text>
</a>
</g>
</g>
<!-- Node2 -->
<g id="Node000002" class="node">
<title>Node2</title>
<g id="a_Node000002"><a xlink:href="namespacedetail.html#a58bd684d97381b18790d598a652a61b9" target="_top" xlink:title=" ">
<polygon fill="white" stroke="#666666" points="246,-436 138,-436 138,-417 246,-417 246,-436"/>
<text text-anchor="middle" x="192" y="-424" font-family="Helvetica,sans-Serif" font-size="10.00">detail::find_escape</text>
</a>
</g>
</g>
<!-- Node1&#45;&gt;Node2 -->
<g id="edge1_Node000001_Node000002" class="edge">
<title>Node1&#45;&gt;Node2</title>
<g id="a_edge1_Node000001_Node000002"><a xlink:title=" ">
<path fill="none" stroke="#63b8ff" d="M518.37,-231.89C511.48,-275.74 490.65,-364.92 432,-406.5 376.63,-445.76 294.88,-443.13 242.79,-436.04"/>
<polygon fill="#63b8ff" stroke="#63b8ff" points="521.86,-232.18 519.83,-221.78 514.94,-231.17 521.86,-232.18"/>
</a>
</g>
</g>
<!-- Node3 -->
<g id="Node000003" class="node">
<title>Node3</title>
<g id="a_Node000003"><a xlink:href="namespacedetail.html#ac7952761a4b6255293c82b7fb3a61d50" target="_top" xlink:title=" ">
<polygon fill="white" stroke="#666666" points="432,-398 286,-398 286,-379 432,-379 432,-398"/>
<text text-anchor="middle" x="359" y="-386" font-family="Helvetica,sans-Serif" font-size="10.00">detail::for_each_codepoint</text>
</a>
</g>
</g>
<!-- Node1&#45;&gt;Node3 -->
<g id="edge2_Node000001_Node000003" class="edge">
<title>Node1&#45;&gt;Node3</title>
<g id="a_edge2_Node000001_Node000003"><a xlink:title=" ">
<path fill="none" stroke="#63b8ff" d="M514.67,-231.48C503.49,-267.52 477.84,-333.68 432,-369.5 427.01,-373.4 421.29,-376.5 415.31,-378.97"/>
<polygon fill="#63b8ff" stroke="#63b8ff" points="518.06,-232.33 517.56,-221.75 511.35,-230.34 518.06,-232.33"/>
</a>
</g>
</g>
<!-- Node6 -->
<g id="Node000006" class="node">
<title>Node6</title>
<g id="a_Node000006"><a xlink:href="structformatter_3_01std_1_1error__code_01_4.html#a470063b0427cac0f4618f8efe71656ac" target="_top" xlink:title=" ">
<polygon fill="white" stroke="#666666" points="418.5,-360.5 299.5,-360.5 299.5,-330.5 418.5,-330.5 418.5,-360.5"/>
<text text-anchor="start" x="307.5" y="-348.5" font-family="Helvetica,sans-Serif" font-size="10.00">formatter&lt; std::error</text>
<text text-anchor="middle" x="359" y="-337.5" font-family="Helvetica,sans-Serif" font-size="10.00">_code &gt;::format</text>
</a>
</g>
</g>
<!-- Node1&#45;&gt;Node6 -->
<g id="edge6_Node000001_Node000006" class="edge">
<title>Node1&#45;&gt;Node6</title>
<g id="a_edge6_Node000001_Node000006"><a xlink:title=" ">
<path fill="none" stroke="#63b8ff" d="M508.36,-230.44C493.13,-256.11 465.75,-296.42 432,-320.5 426.61,-324.34 420.59,-327.64 414.37,-330.45"/>
<polygon fill="#63b8ff" stroke="#63b8ff" points="511.44,-232.11 513.41,-221.7 505.38,-228.61 511.44,-232.11"/>
</a>
</g>
</g>
<!-- Node7 -->
<g id="Node000007" class="node">
<title>Node7</title>
<g id="a_Node000007"><a xlink:href="classdetail_1_1utf8__to__utf16.html#a560db0cdd0a4e385cae46d78aa8427b3" target="_top" xlink:title=" ">
<polygon fill="white" stroke="#666666" points="421.5,-312 296.5,-312 296.5,-271 421.5,-271 421.5,-312"/>
<text text-anchor="start" x="304.5" y="-300" font-family="Helvetica,sans-Serif" font-size="10.00">detail::utf8_to_utf16</text>
<text text-anchor="start" x="304.5" y="-289" font-family="Helvetica,sans-Serif" font-size="10.00">::operator basic_string</text>
<text text-anchor="middle" x="359" y="-278" font-family="Helvetica,sans-Serif" font-size="10.00">_view&lt; wchar_t &gt;</text>
</a>
</g>
</g>
<!-- Node1&#45;&gt;Node7 -->
<g id="edge7_Node000001_Node000007" class="edge">
<title>Node1&#45;&gt;Node7</title>
<g id="a_edge7_Node000001_Node000007"><a xlink:title=" ">
<path fill="none" stroke="#63b8ff" d="M490.85,-226.99C473.87,-237.9 452.19,-251.17 432,-261.5 425.61,-264.77 418.78,-267.97 411.97,-270.99"/>
<polygon fill="#63b8ff" stroke="#63b8ff" points="492.78,-229.9 499.26,-221.52 488.96,-224.03 492.78,-229.9"/>
</a>
</g>
</g>
<!-- Node8 -->
<g id="Node000008" class="node">
<title>Node8</title>
<g id="a_Node000008"><a xlink:href="compile_8h.html#aafd70447a5d15c593712be146611663d" target="_top" xlink:title=" ">
<polygon fill="white" stroke="#666666" points="378.5,-253 339.5,-253 339.5,-234 378.5,-234 378.5,-253"/>
<text text-anchor="middle" x="359" y="-241" font-family="Helvetica,sans-Serif" font-size="10.00">print</text>
</a>
</g>
</g>
<!-- Node1&#45;&gt;Node8 -->
<g id="edge8_Node000001_Node000008" class="edge">
<title>Node1&#45;&gt;Node8</title>
<g id="a_edge8_Node000001_Node000008"><a xlink:title=" ">
<path fill="none" stroke="#63b8ff" d="M457.79,-221.1C429.31,-227.62 397.85,-234.83 378.51,-239.26"/>
<polygon fill="#63b8ff" stroke="#63b8ff" points="458.76,-224.47 467.72,-218.82 457.19,-217.64 458.76,-224.47"/>
</a>
</g>
</g>
<!-- Node9 -->
<g id="Node000009" class="node">
<title>Node9</title>
<g id="a_Node000009"><a xlink:href="home_2runner_2work_2CHRONOS-LoRa_2CHRONOS-LoRa_2thirdparty_2fmt_2include_2fmt_2color_8h.html#a86192aabb5e3ab5d0461f757afbbfb4e" target="_top" xlink:title=" ">
<polygon fill="white" stroke="#666666" points="381.5,-216 336.5,-216 336.5,-197 381.5,-197 381.5,-216"/>
<text text-anchor="middle" x="359" y="-204" font-family="Helvetica,sans-Serif" font-size="10.00">vprint</text>
</a>
</g>
</g>
<!-- Node1&#45;&gt;Node9 -->
<g id="edge9_Node000001_Node000009" class="edge">
<title>Node1&#45;&gt;Node9</title>
<g id="a_edge9_Node000001_Node000009"><a xlink:title=" ">
<path fill="none" stroke="#63b8ff" d="M457.56,-206.5C430.65,-206.5 401.14,-206.5 381.7,-206.5"/>
<polygon fill="#63b8ff" stroke="#63b8ff" points="457.72,-210 467.72,-206.5 457.72,-203 457.72,-210"/>
</a>
</g>
</g>
<!-- Node10 -->
<g id="Node000010" class="node">
<title>Node10</title>
<g id="a_Node000010"><a xlink:href="format-inl_8h.html#a3774f0f4816097d469f11407f83ee394" target="_top" xlink:title=" ">
<polygon fill="white" stroke="#666666" points="404.5,-179 313.5,-179 313.5,-160 404.5,-160 404.5,-179"/>
<text text-anchor="middle" x="359" y="-167" font-family="Helvetica,sans-Serif" font-size="10.00">vprint_buffered</text>
</a>
</g>
</g>
<!-- Node1&#45;&gt;Node10 -->
<g id="edge10_Node000001_Node000010" class="edge">
<title>Node1&#45;&gt;Node10</title>
<g id="a_edge10_Node000001_Node000010"><a xlink:title=" ">
<path fill="none" stroke="#63b8ff" d="M457.95,-191.94C438.99,-187.6 418.7,-182.95 401.54,-179.02"/>
<polygon fill="#63b8ff" stroke="#63b8ff" points="457.19,-195.36 467.72,-194.18 458.76,-188.53 457.19,-195.36"/>
</a>
</g>
</g>
<!-- Node11 -->
<g id="Node000011" class="node">
<title>Node11</title>
<g id="a_Node000011"><a xlink:href="format-inl_8h.html#a71033730e1d1c2c72b7905f21929df93" target="_top" xlink:title=" ">
<polygon fill="white" stroke="#666666" points="386,-142 332,-142 332,-123 386,-123 386,-142"/>
<text text-anchor="middle" x="359" y="-130" font-family="Helvetica,sans-Serif" font-size="10.00">vprintln</text>
</a>
</g>
</g>
<!-- Node1&#45;&gt;Node11 -->
<g id="edge11_Node000001_Node000011" class="edge">
<title>Node1&#45;&gt;Node11</title>
<g id="a_edge11_Node000001_Node000011"><a xlink:title=" ">
<path fill="none" stroke="#63b8ff" d="M493.18,-185.55C476.17,-173.81 453.69,-159.72 432,-150.5 417.42,-144.3 400.22,-139.9 386.3,-137.01"/>
<polygon fill="#63b8ff" stroke="#63b8ff" points="491.34,-188.54 501.54,-191.43 495.37,-182.81 491.34,-188.54"/>
</a>
</g>
</g>
<!-- Node12 -->
<g id="Node000012" class="node">
<title>Node12</title>
<g id="a_Node000012"><a xlink:href="namespacedetail.html#a4ebaa6b5e722d7f4f43eeae307ed578e" target="_top" xlink:title=" ">
<polygon fill="white" stroke="#666666" points="420,-104.5 298,-104.5 298,-74.5 420,-74.5 420,-104.5"/>
<text text-anchor="start" x="306" y="-92.5" font-family="Helvetica,sans-Serif" font-size="10.00">detail::write_encoded</text>
<text text-anchor="middle" x="359" y="-81.5" font-family="Helvetica,sans-Serif" font-size="10.00">_tm_str</text>
</a>
</g>
</g>
<!-- Node1&#45;&gt;Node12 -->
<g id="edge12_Node000001_Node000012" class="edge">
<title>Node1&#45;&gt;Node12</title>
<g id="a_edge12_Node000001_Node000012"><a xlink:title=" ">
<path fill="none" stroke="#63b8ff" d="M504.59,-183.38C488.18,-162.44 461.48,-132.11 432,-113.5 426.65,-110.12 420.78,-107.17 414.76,-104.6"/>
<polygon fill="#63b8ff" stroke="#63b8ff" points="501.91,-185.64 510.77,-191.45 507.47,-181.38 501.91,-185.64"/>
</a>
</g>
</g>
<!-- Node13 -->
<g id="Node000013" class="node">
<title>Node13</title>
<g id="a_Node000013"><a xlink:href="namespacedetail.html#a53f64cca161818cc3e0d8ebce2a36335" target="_top" xlink:title=" ">
<polygon fill="white" stroke="#666666" points="405.5,-56 312.5,-56 312.5,-37 405.5,-37 405.5,-56"/>
<text text-anchor="middle" x="359" y="-44" font-family="Helvetica,sans-Serif" font-size="10.00">detail::write_int</text>
</a>
</g>
</g>
<!-- Node1&#45;&gt;Node13 -->
<g id="edge13_Node000001_Node000013" class="edge">
<title>Node1&#45;&gt;Node13</title>
<g id="a_edge13_Node000001_Node000013"><a xlink:title=" ">
<path fill="none" stroke="#63b8ff" d="M512.4,-181.62C499.48,-149.82 472.75,-95.31 432,-65.5 424.28,-59.85 415.01,-55.88 405.72,-53.09"/>
<polygon fill="#63b8ff" stroke="#63b8ff" points="509.2,-183.06 516.11,-191.09 515.72,-180.5 509.2,-183.06"/>
</a>
</g>
</g>
<!-- Node14 -->
<g id="Node000014" class="node">
<title>Node14</title>
<g id="a_Node000014"><a xlink:href="namespacedetail.html#a289cb079ced65a67e9c17bef575ece59" target="_top" xlink:title=" ">
<polygon fill="white" stroke="#666666" points="425.5,-19 292.5,-19 292.5,0 425.5,0 425.5,-19"/>
<text text-anchor="middle" x="359" y="-7" font-family="Helvetica,sans-Serif" font-size="10.00">detail::write_significand</text>
</a>
</g>
</g>
<!-- Node1&#45;&gt;Node14 -->
<g id="edge14_Node000001_Node000014" class="edge">
<title>Node1&#45;&gt;Node14</title>
<g id="a_edge14_Node000001_Node000014"><a xlink:title=" ">
<path fill="none" stroke="#63b8ff" d="M516.03,-181.31C506.21,-142.25 481.79,-67.44 432,-27.5 427.78,-24.11 423,-21.35 417.97,-19.11"/>
<polygon fill="#63b8ff" stroke="#63b8ff" points="512.7,-182.4 518.43,-191.31 519.51,-180.77 512.7,-182.4"/>
</a>
</g>
</g>
<!-- Node3&#45;&gt;Node2 -->
<g id="edge3_Node000003_Node000002" class="edge">
<title>Node3&#45;&gt;Node2</title>
<g id="a_edge3_Node000003_Node000002"><a xlink:title=" ">
<path fill="none" stroke="#63b8ff" d="M306.35,-400.4C283.15,-405.74 256.16,-411.95 234.34,-416.98"/>
<polygon fill="#63b8ff" stroke="#63b8ff" points="307.4,-403.74 316.36,-398.09 305.83,-396.92 307.4,-403.74"/>
</a>
</g>
</g>
<!-- Node4 -->
<g id="Node000004" class="node">
<title>Node4</title>
<g id="a_Node000004"><a xlink:href="classdetail_1_1utf8__to__utf16.html#aabad25a649e8f141b998e38abd970721" target="_top" xlink:title=" ">
<polygon fill="white" stroke="#666666" points="250,-398.5 134,-398.5 134,-368.5 250,-368.5 250,-398.5"/>
<text text-anchor="start" x="142" y="-386.5" font-family="Helvetica,sans-Serif" font-size="10.00">detail::utf8_to_utf16</text>
<text text-anchor="middle" x="192" y="-375.5" font-family="Helvetica,sans-Serif" font-size="10.00">::utf8_to_utf16</text>
</a>
</g>
</g>
<!-- Node3&#45;&gt;Node4 -->
<g id="edge4_Node000003_Node000004" class="edge">
<title>Node3&#45;&gt;Node4</title>
<g id="a_edge4_Node000003_Node000004"><a xlink:title=" ">
<path fill="none" stroke="#63b8ff" d="M275.37,-386C266.94,-385.74 258.51,-385.49 250.44,-385.24"/>
<polygon fill="#63b8ff" stroke="#63b8ff" points="275.53,-389.5 285.63,-386.31 275.74,-382.51 275.53,-389.5"/>
</a>
</g>
</g>
<!-- Node5 -->
<g id="Node000005" class="node">
<title>Node5</title>
<g id="a_Node000005"><a xlink:href="namespacedetail.html#a6e87de2a7463d1a9afe229703795ce22" target="_top" xlink:title=" ">
<polygon fill="white" stroke="#666666" points="98,-393 0,-393 0,-374 98,-374 98,-393"/>
<text text-anchor="middle" x="49" y="-381" font-family="Helvetica,sans-Serif" font-size="10.00">detail::copy_unit</text>
</a>
</g>
</g>
<!-- Node4&#45;&gt;Node5 -->
<g id="edge5_Node000004_Node000005" class="edge">
<title>Node4&#45;&gt;Node5</title>
<g id="a_edge5_Node000004_Node000005"><a xlink:title=" ">
<path fill="none" stroke="#63b8ff" d="M123.37,-383.5C114.9,-383.5 106.37,-383.5 98.28,-383.5"/>
<polygon fill="#63b8ff" stroke="#63b8ff" points="123.65,-387 133.65,-383.5 123.65,-380 123.65,-387"/>
</a>
</g>
</g>
</g>
</svg>
