<?xml version="1.0" encoding="UTF-8" standalone="no"?>
<!DOCTYPE svg PUBLIC "-//W3C//DTD SVG 1.1//EN"
 "http://www.w3.org/Graphics/SVG/1.1/DTD/svg11.dtd">
<!-- Generated by graphviz version 2.43.0 (0)
 -->
<!-- Title: basic_specs::fill_size Pages: 1 -->
<svg width="485pt" height="168pt"
 viewBox="0.00 0.00 485.00 167.50" xmlns="http://www.w3.org/2000/svg" xmlns:xlink="http://www.w3.org/1999/xlink">
<g id="graph0" class="graph" transform="scale(1 1) rotate(0) translate(4 163.5)">
<title>basic_specs::fill_size</title>
<!-- Node1 -->
<g id="Node000001" class="node">
<title>Node1</title>
<g id="a_Node000001"><a xlink:title=" ">
<polygon fill="#999999" stroke="#666666" points="477,-74 359,-74 359,-55 477,-55 477,-74"/>
<text text-anchor="middle" x="418" y="-62" font-family="Helvetica,sans-Serif" font-size="10.00">basic_specs::fill_size</text>
</a>
</g>
</g>
<!-- Node2 -->
<g id="Node000002" class="node">
<title>Node2</title>
<g id="a_Node000002"><a xlink:href="classbasic__specs.html#a0de009b467403e31a7006311e4f9927e" target="_top" xlink:title=" ">
<polygon fill="white" stroke="#666666" points="323,-130 173,-130 173,-111 323,-111 323,-130"/>
<text text-anchor="middle" x="248" y="-118" font-family="Helvetica,sans-Serif" font-size="10.00">basic_specs::copy_fill_from</text>
</a>
</g>
</g>
<!-- Node1&#45;&gt;Node2 -->
<g id="edge1_Node000001_Node000002" class="edge">
<title>Node1&#45;&gt;Node2</title>
<g id="a_edge1_Node000001_Node000002"><a xlink:title=" ">
<path fill="none" stroke="#63b8ff" d="M386.44,-78.17C368.26,-85.97 344.59,-95.55 323,-102.5 313.31,-105.62 302.75,-108.49 292.73,-110.98"/>
<polygon fill="#63b8ff" stroke="#63b8ff" points="387.9,-81.35 395.67,-74.16 385.11,-74.93 387.9,-81.35"/>
</a>
</g>
</g>
<!-- Node5 -->
<g id="Node000005" class="node">
<title>Node5</title>
<g id="a_Node000005"><a xlink:href="namespacedetail.html#a156cdfe9d81e594123557a89dafd55d1" target="_top" xlink:title=" ">
<polygon fill="white" stroke="#666666" points="279,-93 217,-93 217,-74 279,-74 279,-93"/>
<text text-anchor="middle" x="248" y="-81" font-family="Helvetica,sans-Serif" font-size="10.00">detail::fill</text>
</a>
</g>
</g>
<!-- Node1&#45;&gt;Node5 -->
<g id="edge4_Node000001_Node000005" class="edge">
<title>Node1&#45;&gt;Node5</title>
<g id="a_edge4_Node000001_Node000005"><a xlink:title=" ">
<path fill="none" stroke="#63b8ff" d="M348.54,-72.24C324.48,-74.96 298.66,-77.88 279.35,-80.07"/>
<polygon fill="#63b8ff" stroke="#63b8ff" points="349.17,-75.69 358.71,-71.09 348.38,-68.74 349.17,-75.69"/>
</a>
</g>
</g>
<!-- Node6 -->
<g id="Node000006" class="node">
<title>Node6</title>
<g id="a_Node000006"><a xlink:href="namespacedetail.html#aa3fa8ab9788fc551cccea4630089449a" target="_top" xlink:title=" ">
<polygon fill="white" stroke="#666666" points="309.5,-56 186.5,-56 186.5,-37 309.5,-37 309.5,-56"/>
<text text-anchor="middle" x="248" y="-44" font-family="Helvetica,sans-Serif" font-size="10.00">detail::write_nonfinite</text>
</a>
</g>
</g>
<!-- Node1&#45;&gt;Node6 -->
<g id="edge5_Node000001_Node000006" class="edge">
<title>Node1&#45;&gt;Node6</title>
<g id="a_edge5_Node000001_Node000006"><a xlink:title=" ">
<path fill="none" stroke="#63b8ff" d="M348.54,-57.17C335.7,-55.79 322.35,-54.36 309.75,-53.01"/>
<polygon fill="#63b8ff" stroke="#63b8ff" points="348.4,-60.67 358.71,-58.25 349.14,-53.71 348.4,-60.67"/>
</a>
</g>
</g>
<!-- Node7 -->
<g id="Node000007" class="node">
<title>Node7</title>
<g id="a_Node000007"><a xlink:href="namespacedetail.html#a0eaaee0f61fbc947ad6faa742d576f71" target="_top" xlink:title=" ">
<polygon fill="white" stroke="#666666" points="306,-19 190,-19 190,0 306,0 306,-19"/>
<text text-anchor="middle" x="248" y="-7" font-family="Helvetica,sans-Serif" font-size="10.00">detail::write_padded</text>
</a>
</g>
</g>
<!-- Node1&#45;&gt;Node7 -->
<g id="edge6_Node000001_Node000007" class="edge">
<title>Node1&#45;&gt;Node7</title>
<g id="a_edge6_Node000001_Node000007"><a xlink:title=" ">
<path fill="none" stroke="#63b8ff" d="M385.8,-50.98C367.68,-43.44 344.3,-34.25 323,-27.5 313.29,-24.43 302.73,-21.57 292.71,-19.08"/>
<polygon fill="#63b8ff" stroke="#63b8ff" points="384.7,-54.31 395.27,-54.97 387.41,-47.86 384.7,-54.31"/>
</a>
</g>
</g>
<!-- Node3 -->
<g id="Node000003" class="node">
<title>Node3</title>
<g id="a_Node000003"><a xlink:href="structformatter_3_01std_1_1complex_3_01T_01_4_00_01Char_01_4.html#aa62b28a5bebe60b586c9936443e3669b" target="_top" xlink:title=" ">
<polygon fill="white" stroke="#666666" points="137,-159.5 0,-159.5 0,-129.5 137,-129.5 137,-159.5"/>
<text text-anchor="start" x="8" y="-147.5" font-family="Helvetica,sans-Serif" font-size="10.00">formatter&lt; std::complex</text>
<text text-anchor="middle" x="68.5" y="-136.5" font-family="Helvetica,sans-Serif" font-size="10.00">&lt; T &gt;, Char &gt;::format</text>
</a>
</g>
</g>
<!-- Node2&#45;&gt;Node3 -->
<g id="edge2_Node000002_Node000003" class="edge">
<title>Node2&#45;&gt;Node3</title>
<g id="a_edge2_Node000002_Node000003"><a xlink:title=" ">
<path fill="none" stroke="#63b8ff" d="M166.47,-131.39C156.69,-132.71 146.78,-134.05 137.22,-135.34"/>
<polygon fill="#63b8ff" stroke="#63b8ff" points="167.15,-134.83 176.59,-130.02 166.21,-127.89 167.15,-134.83"/>
</a>
</g>
</g>
<!-- Node4 -->
<g id="Node000004" class="node">
<title>Node4</title>
<g id="a_Node000004"><a xlink:href="structnested__formatter.html#a6ab579c8e01e2a080d1cab4173991348" target="_top" xlink:title=" ">
<polygon fill="white" stroke="#666666" points="134.5,-111.5 2.5,-111.5 2.5,-81.5 134.5,-81.5 134.5,-111.5"/>
<text text-anchor="start" x="10.5" y="-99.5" font-family="Helvetica,sans-Serif" font-size="10.00">nested_formatter::write</text>
<text text-anchor="middle" x="68.5" y="-88.5" font-family="Helvetica,sans-Serif" font-size="10.00">_padded</text>
</a>
</g>
</g>
<!-- Node2&#45;&gt;Node4 -->
<g id="edge3_Node000002_Node000004" class="edge">
<title>Node2&#45;&gt;Node4</title>
<g id="a_edge3_Node000002_Node000004"><a xlink:title=" ">
<path fill="none" stroke="#63b8ff" d="M166.45,-109.61C155.79,-108.17 144.98,-106.71 134.63,-105.31"/>
<polygon fill="#63b8ff" stroke="#63b8ff" points="166.21,-113.11 176.59,-110.98 167.15,-106.17 166.21,-113.11"/>
</a>
</g>
</g>
</g>
</svg>
