<?xml version="1.0" encoding="UTF-8" standalone="no"?>
<!DOCTYPE svg PUBLIC "-//W3C//DTD SVG 1.1//EN"
 "http://www.w3.org/Graphics/SVG/1.1/DTD/svg11.dtd">
<!-- Generated by graphviz version 2.43.0 (0)
 -->
<!-- Title: RF69 Pages: 1 -->
<svg width="92pt" height="192pt"
 viewBox="0.00 0.00 92.00 192.00" xmlns="http://www.w3.org/2000/svg" xmlns:xlink="http://www.w3.org/1999/xlink">
<g id="graph0" class="graph" transform="scale(1 1) rotate(0) translate(4 188)">
<title>RF69</title>
<!-- Node1 -->
<g id="Node000001" class="node">
<title>Node1</title>
<g id="a_Node000001"><a xlink:title="Control class for RF69 module. Also serves as base class for SX1231.">
<polygon fill="#999999" stroke="#666666" points="62.5,-129 21.5,-129 21.5,-110 62.5,-110 62.5,-129"/>
<text text-anchor="middle" x="42" y="-117" font-family="Helvetica,sans-Serif" font-size="10.00">RF69</text>
</a>
</g>
</g>
<!-- Node3 -->
<g id="Node000003" class="node">
<title>Node3</title>
<g id="a_Node000003"><a xlink:href="classSX1231.html" target="_top" xlink:title="Control class for SX1231 module. Overrides some methods from RF69 due to different register values.">
<polygon fill="white" stroke="#666666" points="68.5,-74 15.5,-74 15.5,-55 68.5,-55 68.5,-74"/>
<text text-anchor="middle" x="42" y="-62" font-family="Helvetica,sans-Serif" font-size="10.00">SX1231</text>
</a>
</g>
</g>
<!-- Node1&#45;&gt;Node3 -->
<g id="edge2_Node000001_Node000003" class="edge">
<title>Node1&#45;&gt;Node3</title>
<g id="a_edge2_Node000001_Node000003"><a xlink:title=" ">
<path fill="none" stroke="#63b8ff" d="M42,-99.66C42,-90.93 42,-80.99 42,-74.09"/>
<polygon fill="#63b8ff" stroke="#63b8ff" points="38.5,-99.75 42,-109.75 45.5,-99.75 38.5,-99.75"/>
</a>
</g>
</g>
<!-- Node2 -->
<g id="Node000002" class="node">
<title>Node2</title>
<g id="a_Node000002"><a xlink:href="classPhysicalLayer.html" target="_top" xlink:title="Provides common interface for protocols that run on LoRa/FSK modules, such as RTTY or LoRaWAN....">
<polygon fill="white" stroke="#666666" points="84,-184 0,-184 0,-165 84,-165 84,-184"/>
<text text-anchor="middle" x="42" y="-172" font-family="Helvetica,sans-Serif" font-size="10.00">PhysicalLayer</text>
</a>
</g>
</g>
<!-- Node2&#45;&gt;Node1 -->
<g id="edge1_Node000001_Node000002" class="edge">
<title>Node2&#45;&gt;Node1</title>
<g id="a_edge1_Node000001_Node000002"><a xlink:title=" ">
<path fill="none" stroke="#63b8ff" d="M42,-154.66C42,-145.93 42,-135.99 42,-129.09"/>
<polygon fill="#63b8ff" stroke="#63b8ff" points="38.5,-154.75 42,-164.75 45.5,-154.75 38.5,-154.75"/>
</a>
</g>
</g>
<!-- Node4 -->
<g id="Node000004" class="node">
<title>Node4</title>
<g id="a_Node000004"><a xlink:href="classSX1233.html" target="_top" xlink:title="Control class for SX1233 module. Overrides some methods from SX1231/RF69 due to different register va...">
<polygon fill="white" stroke="#666666" points="68.5,-19 15.5,-19 15.5,0 68.5,0 68.5,-19"/>
<text text-anchor="middle" x="42" y="-7" font-family="Helvetica,sans-Serif" font-size="10.00">SX1233</text>
</a>
</g>
</g>
<!-- Node3&#45;&gt;Node4 -->
<g id="edge3_Node000003_Node000004" class="edge">
<title>Node3&#45;&gt;Node4</title>
<g id="a_edge3_Node000003_Node000004"><a xlink:title=" ">
<path fill="none" stroke="#63b8ff" d="M42,-44.66C42,-35.93 42,-25.99 42,-19.09"/>
<polygon fill="#63b8ff" stroke="#63b8ff" points="38.5,-44.75 42,-54.75 45.5,-44.75 38.5,-44.75"/>
</a>
</g>
</g>
</g>
</svg>
