<?xml version="1.0" encoding="UTF-8" standalone="no"?>
<!DOCTYPE svg PUBLIC "-//W3C//DTD SVG 1.1//EN"
 "http://www.w3.org/Graphics/SVG/1.1/DTD/svg11.dtd">
<!-- Generated by graphviz version 2.43.0 (0)
 -->
<!-- Title: Magick::ColorHSL Pages: 1 -->
<svg width="110pt" height="149pt"
 viewBox="0.00 0.00 110.00 149.00" xmlns="http://www.w3.org/2000/svg" xmlns:xlink="http://www.w3.org/1999/xlink">
<g id="graph0" class="graph" transform="scale(1 1) rotate(0) translate(4 145)">
<title>Magick::ColorHSL</title>
<!-- Node1 -->
<g id="Node000001" class="node">
<title>Node1</title>
<g id="a_Node000001"><a xlink:title=" ">
<polygon fill="#999999" stroke="#666666" points="102,-19 0,-19 0,0 102,0 102,-19"/>
<text text-anchor="middle" x="51" y="-7" font-family="Helvetica,sans-Serif" font-size="10.00">Magick::ColorHSL</text>
</a>
</g>
</g>
<!-- Node2 -->
<g id="Node000002" class="node">
<title>Node2</title>
<g id="a_Node000002"><a xlink:href="classMagick_1_1Color.html" target="_top" xlink:title=" ">
<polygon fill="white" stroke="#666666" points="92.5,-75 9.5,-75 9.5,-56 92.5,-56 92.5,-75"/>
<text text-anchor="middle" x="51" y="-63" font-family="Helvetica,sans-Serif" font-size="10.00">Magick::Color</text>
</a>
</g>
</g>
<!-- Node2&#45;&gt;Node1 -->
<g id="edge1_Node000001_Node000002" class="edge">
<title>Node2&#45;&gt;Node1</title>
<g id="a_edge1_Node000001_Node000002"><a xlink:title=" ">
<path fill="none" stroke="#63b8ff" d="M51,-45.3C51,-36.41 51,-26.28 51,-19.25"/>
<polygon fill="#63b8ff" stroke="#63b8ff" points="47.5,-45.58 51,-55.58 54.5,-45.58 47.5,-45.58"/>
</a>
</g>
</g>
<!-- Node3 -->
<g id="Node000003" class="node">
<title>Node3</title>
<g id="a_Node000003"><a xlink:title=" ">
<polygon fill="white" stroke="#666666" points="86.5,-141 15.5,-141 15.5,-122 86.5,-122 86.5,-141"/>
<text text-anchor="middle" x="51" y="-129" font-family="Helvetica,sans-Serif" font-size="10.00">PixelPacket</text>
</a>
</g>
</g>
<!-- Node3&#45;&gt;Node2 -->
<g id="edge2_Node000002_Node000003" class="edge">
<title>Node3&#45;&gt;Node2</title>
<g id="a_edge2_Node000002_Node000003"><a xlink:title=" ">
<path fill="none" stroke="#9a32cd" stroke-dasharray="5,2" d="M51,-111.58C51,-99.63 51,-84.72 51,-75.41"/>
<polygon fill="#9a32cd" stroke="#9a32cd" points="47.5,-111.87 51,-121.87 54.5,-111.87 47.5,-111.87"/>
</a>
</g>
<text text-anchor="middle" x="67" y="-96" font-family="Helvetica,sans-Serif" font-size="10.00" fill="grey"> _pixel</text>
</g>
</g>
</svg>
