<?xml version="1.0" encoding="UTF-8" standalone="no"?>
<!DOCTYPE svg PUBLIC "-//W3C//DTD SVG 1.1//EN"
 "http://www.w3.org/Graphics/SVG/1.1/DTD/svg11.dtd">
<!-- Generated by graphviz version 2.43.0 (0)
 -->
<!-- Title: cxxopts::OptionParser::add_to_option Pages: 1 -->
<svg width="790pt" height="167pt"
 viewBox="0.00 0.00 790.00 166.50" xmlns="http://www.w3.org/2000/svg" xmlns:xlink="http://www.w3.org/1999/xlink">
<g id="graph0" class="graph" transform="scale(1 1) rotate(0) translate(4 162.5)">
<title>cxxopts::OptionParser::add_to_option</title>
<!-- Node1 -->
<g id="Node000001" class="node">
<title>Node1</title>
<g id="a_Node000001"><a xlink:title=" ">
<polygon fill="#999999" stroke="#666666" points="122,-78 0,-78 0,-48 122,-48 122,-78"/>
<text text-anchor="start" x="8" y="-66" font-family="Helvetica,sans-Serif" font-size="10.00">cxxopts::OptionParser</text>
<text text-anchor="middle" x="61" y="-55" font-family="Helvetica,sans-Serif" font-size="10.00">::add_to_option</text>
</a>
</g>
</g>
<!-- Node2 -->
<g id="Node000002" class="node">
<title>Node2</title>
<g id="a_Node000002"><a xlink:href="classcxxopts_1_1OptionValue.html#aeec2951c8666eb4f7f562cf526fb656b" target="_top" xlink:title=" ">
<polygon fill="white" stroke="#666666" points="301,-115.5 158,-115.5 158,-96.5 301,-96.5 301,-115.5"/>
<text text-anchor="middle" x="229.5" y="-103.5" font-family="Helvetica,sans-Serif" font-size="10.00">cxxopts::OptionValue::add</text>
</a>
</g>
</g>
<!-- Node1&#45;&gt;Node2 -->
<g id="edge1_Node000001_Node000002" class="edge">
<title>Node1&#45;&gt;Node2</title>
<g id="a_edge1_Node000001_Node000002"><a xlink:title=" ">
<path fill="none" stroke="#63b8ff" d="M120.23,-78.04C140.27,-83.21 162.43,-88.94 181.46,-93.85"/>
<polygon fill="#63b8ff" stroke="#63b8ff" points="180.82,-97.3 191.38,-96.41 182.57,-90.52 180.82,-97.3"/>
</a>
</g>
</g>
<!-- Node8 -->
<g id="Node000008" class="node">
<title>Node8</title>
<g id="a_Node000008"><a xlink:href="classcxxopts_1_1OptionDetails.html#a02b918ea1873a2716cfd5ad909be3034" target="_top" xlink:title=" ">
<polygon fill="white" stroke="#666666" points="293,-78 166,-78 166,-48 293,-48 293,-78"/>
<text text-anchor="start" x="174" y="-66" font-family="Helvetica,sans-Serif" font-size="10.00">cxxopts::OptionDetails</text>
<text text-anchor="middle" x="229.5" y="-55" font-family="Helvetica,sans-Serif" font-size="10.00">::essential_name</text>
</a>
</g>
</g>
<!-- Node1&#45;&gt;Node8 -->
<g id="edge7_Node000001_Node000008" class="edge">
<title>Node1&#45;&gt;Node8</title>
<g id="a_edge7_Node000001_Node000008"><a xlink:title=" ">
<path fill="none" stroke="#63b8ff" d="M122.11,-63C133.02,-63 144.51,-63 155.74,-63"/>
<polygon fill="#63b8ff" stroke="#63b8ff" points="155.95,-66.5 165.95,-63 155.95,-59.5 155.95,-66.5"/>
</a>
</g>
</g>
<!-- Node9 -->
<g id="Node000009" class="node">
<title>Node9</title>
<g id="a_Node000009"><a xlink:href="classcxxopts_1_1OptionDetails.html#a3e5d1e478cc4a241d710f9ab792fcafb" target="_top" xlink:title=" ">
<polygon fill="white" stroke="#666666" points="293,-30 166,-30 166,0 293,0 293,-30"/>
<text text-anchor="start" x="174" y="-18" font-family="Helvetica,sans-Serif" font-size="10.00">cxxopts::OptionDetails</text>
<text text-anchor="middle" x="229.5" y="-7" font-family="Helvetica,sans-Serif" font-size="10.00">::hash</text>
</a>
</g>
</g>
<!-- Node1&#45;&gt;Node9 -->
<g id="edge8_Node000001_Node000009" class="edge">
<title>Node1&#45;&gt;Node9</title>
<g id="a_edge8_Node000001_Node000009"><a xlink:title=" ">
<path fill="none" stroke="#63b8ff" d="M114.22,-47.94C130.81,-43.16 149.31,-37.83 166.51,-32.87"/>
<polygon fill="#63b8ff" stroke="#63b8ff" points="167.82,-36.14 176.46,-30 165.88,-29.41 167.82,-36.14"/>
</a>
</g>
</g>
<!-- Node3 -->
<g id="Node000003" class="node">
<title>Node3</title>
<g id="a_Node000003"><a xlink:href="classcxxopts_1_1Value.html#ac7298b94e9168291835c18dab0b11799" target="_top" xlink:title=" ">
<polygon fill="white" stroke="#666666" points="456,-158.5 345,-158.5 345,-139.5 456,-139.5 456,-158.5"/>
<text text-anchor="middle" x="400.5" y="-146.5" font-family="Helvetica,sans-Serif" font-size="10.00">cxxopts::Value::add</text>
</a>
</g>
</g>
<!-- Node2&#45;&gt;Node3 -->
<g id="edge2_Node000002_Node000003" class="edge">
<title>Node2&#45;&gt;Node3</title>
<g id="a_edge2_Node000002_Node000003"><a xlink:title=" ">
<path fill="none" stroke="#63b8ff" d="M268.01,-115.54C292.84,-121.86 325.61,-130.2 352.23,-136.97"/>
<polygon fill="#63b8ff" stroke="#63b8ff" points="351.54,-140.41 362.1,-139.48 353.27,-133.63 351.54,-140.41"/>
</a>
</g>
</g>
<!-- Node4 -->
<g id="Node000004" class="node">
<title>Node4</title>
<g id="a_Node000004"><a xlink:href="classcxxopts_1_1OptionValue.html#a5e62e7e64679e627ba8946c36a559f2a" target="_top" xlink:title=" ">
<polygon fill="white" stroke="#666666" points="460,-121 341,-121 341,-91 460,-91 460,-121"/>
<text text-anchor="start" x="349" y="-109" font-family="Helvetica,sans-Serif" font-size="10.00">cxxopts::OptionValue</text>
<text text-anchor="middle" x="400.5" y="-98" font-family="Helvetica,sans-Serif" font-size="10.00">::ensure_value</text>
</a>
</g>
</g>
<!-- Node2&#45;&gt;Node4 -->
<g id="edge3_Node000002_Node000004" class="edge">
<title>Node2&#45;&gt;Node4</title>
<g id="a_edge3_Node000002_Node000004"><a xlink:title=" ">
<path fill="none" stroke="#63b8ff" d="M301.19,-106C310.99,-106 321.05,-106 330.81,-106"/>
<polygon fill="#63b8ff" stroke="#63b8ff" points="330.86,-109.5 340.86,-106 330.86,-102.5 330.86,-109.5"/>
</a>
</g>
</g>
<!-- Node7 -->
<g id="Node000007" class="node">
<title>Node7</title>
<g id="a_Node000007"><a xlink:href="classcxxopts_1_1OptionDetails.html#a1b61b4570ee040ce1b9fc6e358e08b2d" target="_top" xlink:title=" ">
<polygon fill="white" stroke="#666666" points="464,-73 337,-73 337,-43 464,-43 464,-73"/>
<text text-anchor="start" x="345" y="-61" font-family="Helvetica,sans-Serif" font-size="10.00">cxxopts::OptionDetails</text>
<text text-anchor="middle" x="400.5" y="-50" font-family="Helvetica,sans-Serif" font-size="10.00">::long_names</text>
</a>
</g>
</g>
<!-- Node2&#45;&gt;Node7 -->
<g id="edge6_Node000002_Node000007" class="edge">
<title>Node2&#45;&gt;Node7</title>
<g id="a_edge6_Node000002_Node000007"><a xlink:title=" ">
<path fill="none" stroke="#63b8ff" d="M266.41,-96.49C277.51,-93.51 289.78,-90.16 301,-87 313.39,-83.51 326.62,-79.68 339.24,-75.98"/>
<polygon fill="#63b8ff" stroke="#63b8ff" points="340.6,-79.23 349.2,-73.05 338.62,-72.51 340.6,-79.23"/>
</a>
</g>
</g>
<!-- Node5 -->
<g id="Node000005" class="node">
<title>Node5</title>
<g id="a_Node000005"><a xlink:href="classcxxopts_1_1OptionDetails.html#a3ff160262711ae6eebb41649491e75e6" target="_top" xlink:title=" ">
<polygon fill="white" stroke="#666666" points="627,-121 500,-121 500,-91 627,-91 627,-121"/>
<text text-anchor="start" x="508" y="-109" font-family="Helvetica,sans-Serif" font-size="10.00">cxxopts::OptionDetails</text>
<text text-anchor="middle" x="563.5" y="-98" font-family="Helvetica,sans-Serif" font-size="10.00">::make_storage</text>
</a>
</g>
</g>
<!-- Node4&#45;&gt;Node5 -->
<g id="edge4_Node000004_Node000005" class="edge">
<title>Node4&#45;&gt;Node5</title>
<g id="a_edge4_Node000004_Node000005"><a xlink:title=" ">
<path fill="none" stroke="#63b8ff" d="M460.08,-106C469.69,-106 479.75,-106 489.65,-106"/>
<polygon fill="#63b8ff" stroke="#63b8ff" points="489.89,-109.5 499.89,-106 489.89,-102.5 489.89,-109.5"/>
</a>
</g>
</g>
<!-- Node6 -->
<g id="Node000006" class="node">
<title>Node6</title>
<g id="a_Node000006"><a xlink:href="classcxxopts_1_1Value.html#a17916d6a48e57c999c2dc23fa6b22539" target="_top" xlink:title=" ">
<polygon fill="white" stroke="#666666" points="782,-115.5 663,-115.5 663,-96.5 782,-96.5 782,-115.5"/>
<text text-anchor="middle" x="722.5" y="-103.5" font-family="Helvetica,sans-Serif" font-size="10.00">cxxopts::Value::clone</text>
</a>
</g>
</g>
<!-- Node5&#45;&gt;Node6 -->
<g id="edge5_Node000005_Node000006" class="edge">
<title>Node5&#45;&gt;Node6</title>
<g id="a_edge5_Node000005_Node000006"><a xlink:title=" ">
<path fill="none" stroke="#63b8ff" d="M627,-106C635.39,-106 644.04,-106 652.53,-106"/>
<polygon fill="#63b8ff" stroke="#63b8ff" points="652.79,-109.5 662.79,-106 652.79,-102.5 652.79,-109.5"/>
</a>
</g>
</g>
</g>
</svg>
