<?xml version="1.0" encoding="UTF-8" standalone="no"?>
<!DOCTYPE svg PUBLIC "-//W3C//DTD SVG 1.1//EN"
 "http://www.w3.org/Graphics/SVG/1.1/DTD/svg11.dtd">
<!-- Generated by graphviz version 2.43.0 (0)
 -->
<!-- Title: detail::printf_arg_formatter::operator() Pages: 1 -->
<svg width="466pt" height="212pt"
 viewBox="0.00 0.00 466.00 212.00" xmlns="http://www.w3.org/2000/svg" xmlns:xlink="http://www.w3.org/1999/xlink">
<g id="graph0" class="graph" transform="scale(1 1) rotate(0) translate(4 208)">
<title>detail::printf_arg_formatter::operator()</title>
<!-- Node1 -->
<g id="Node000001" class="node">
<title>Node1</title>
<g id="a_Node000001"><a xlink:title=" ">
<polygon fill="#999999" stroke="#666666" points="123,-116.5 0,-116.5 0,-86.5 123,-86.5 123,-116.5"/>
<text text-anchor="start" x="8" y="-104.5" font-family="Helvetica,sans-Serif" font-size="10.00">detail::printf_arg</text>
<text text-anchor="middle" x="61.5" y="-93.5" font-family="Helvetica,sans-Serif" font-size="10.00">_formatter::operator()</text>
</a>
</g>
</g>
<!-- Node2 -->
<g id="Node000002" class="node">
<title>Node2</title>
<g id="a_Node000002"><a xlink:href="classbasic__specs.html#a1ac4f03f18142c3a2ae6e709833b5e47" target="_top" xlink:title=" ">
<polygon fill="white" stroke="#666666" points="274,-204 169,-204 169,-185 274,-185 274,-204"/>
<text text-anchor="middle" x="221.5" y="-192" font-family="Helvetica,sans-Serif" font-size="10.00">basic_specs::align</text>
</a>
</g>
</g>
<!-- Node1&#45;&gt;Node2 -->
<g id="edge1_Node000001_Node000002" class="edge">
<title>Node1&#45;&gt;Node2</title>
<g id="a_edge1_Node000001_Node000002"><a xlink:title=" ">
<path fill="none" stroke="#63b8ff" d="M77.94,-116.54C96,-133.37 127.45,-160.37 159,-176.5 162.58,-178.33 166.36,-180 170.24,-181.52"/>
<polygon fill="#63b8ff" stroke="#63b8ff" points="169.36,-184.92 179.96,-185 171.72,-178.33 169.36,-184.92"/>
</a>
</g>
</g>
<!-- Node3 -->
<g id="Node000003" class="node">
<title>Node3</title>
<g id="a_Node000003"><a xlink:href="classbasic__specs.html#a8a65aeca9b7a627707840a2efdbf947c" target="_top" xlink:title=" ">
<polygon fill="white" stroke="#666666" points="283,-167 160,-167 160,-148 283,-148 283,-167"/>
<text text-anchor="middle" x="221.5" y="-155" font-family="Helvetica,sans-Serif" font-size="10.00">basic_specs::clear_alt</text>
</a>
</g>
</g>
<!-- Node1&#45;&gt;Node3 -->
<g id="edge2_Node000001_Node000003" class="edge">
<title>Node1&#45;&gt;Node3</title>
<g id="a_edge2_Node000001_Node000003"><a xlink:title=" ">
<path fill="none" stroke="#63b8ff" d="M98.41,-116.54C116.45,-123.86 138.73,-132.56 159,-139.5 164.53,-141.39 170.38,-143.27 176.18,-145.05"/>
<polygon fill="#63b8ff" stroke="#63b8ff" points="175.26,-148.43 185.85,-147.95 177.28,-141.72 175.26,-148.43"/>
</a>
</g>
</g>
<!-- Node4 -->
<g id="Node000004" class="node">
<title>Node4</title>
<g id="a_Node000004"><a xlink:href="classbasic__specs.html#ad73b6f854341aaabc744bf54e6ea6af6" target="_top" xlink:title=" ">
<polygon fill="white" stroke="#666666" points="284,-130 159,-130 159,-111 284,-111 284,-130"/>
<text text-anchor="middle" x="221.5" y="-118" font-family="Helvetica,sans-Serif" font-size="10.00">basic_specs::set_align</text>
</a>
</g>
</g>
<!-- Node1&#45;&gt;Node4 -->
<g id="edge3_Node000001_Node000004" class="edge">
<title>Node1&#45;&gt;Node4</title>
<g id="a_edge3_Node000001_Node000004"><a xlink:title=" ">
<path fill="none" stroke="#63b8ff" d="M123.14,-108.79C131.58,-109.81 140.32,-110.86 148.94,-111.89"/>
<polygon fill="#63b8ff" stroke="#63b8ff" points="148.64,-115.38 158.98,-113.1 149.47,-108.43 148.64,-115.38"/>
</a>
</g>
</g>
<!-- Node5 -->
<g id="Node000005" class="node">
<title>Node5</title>
<g id="a_Node000005"><a xlink:href="classbasic__specs.html#a1600987fb39fed5dfdac21b218061a9e" target="_top" xlink:title=" ">
<polygon fill="white" stroke="#666666" points="278,-93 165,-93 165,-74 278,-74 278,-93"/>
<text text-anchor="middle" x="221.5" y="-81" font-family="Helvetica,sans-Serif" font-size="10.00">basic_specs::set_fill</text>
</a>
</g>
</g>
<!-- Node1&#45;&gt;Node5 -->
<g id="edge4_Node000001_Node000005" class="edge">
<title>Node1&#45;&gt;Node5</title>
<g id="a_edge4_Node000001_Node000005"><a xlink:title=" ">
<path fill="none" stroke="#63b8ff" d="M123.14,-94.59C133.55,-93.41 144.43,-92.17 154.97,-90.97"/>
<polygon fill="#63b8ff" stroke="#63b8ff" points="155.41,-94.44 164.95,-89.83 154.62,-87.48 155.41,-94.44"/>
</a>
</g>
</g>
<!-- Node7 -->
<g id="Node000007" class="node">
<title>Node7</title>
<g id="a_Node000007"><a xlink:href="classbasic__specs.html#a7020ec66ba6918727e4102567c5c731a" target="_top" xlink:title=" ">
<polygon fill="white" stroke="#666666" points="282.5,-56 160.5,-56 160.5,-37 282.5,-37 282.5,-56"/>
<text text-anchor="middle" x="221.5" y="-44" font-family="Helvetica,sans-Serif" font-size="10.00">basic_specs::set_sign</text>
</a>
</g>
</g>
<!-- Node1&#45;&gt;Node7 -->
<g id="edge6_Node000001_Node000007" class="edge">
<title>Node1&#45;&gt;Node7</title>
<g id="a_edge6_Node000001_Node000007"><a xlink:title=" ">
<path fill="none" stroke="#63b8ff" d="M101.29,-86.45C118.83,-79.79 139.87,-72.02 159,-65.5 165.4,-63.32 172.2,-61.11 178.87,-59.01"/>
<polygon fill="#63b8ff" stroke="#63b8ff" points="179.96,-62.33 188.47,-56.01 177.88,-55.65 179.96,-62.33"/>
</a>
</g>
</g>
<!-- Node8 -->
<g id="Node000008" class="node">
<title>Node8</title>
<g id="a_Node000008"><a xlink:href="classbasic__specs.html#ab451ba98e651e28feab471f1871f1e5c" target="_top" xlink:title=" ">
<polygon fill="white" stroke="#666666" points="273,-19 170,-19 170,0 273,0 273,-19"/>
<text text-anchor="middle" x="221.5" y="-7" font-family="Helvetica,sans-Serif" font-size="10.00">basic_specs::type</text>
</a>
</g>
</g>
<!-- Node1&#45;&gt;Node8 -->
<g id="edge7_Node000001_Node000008" class="edge">
<title>Node1&#45;&gt;Node8</title>
<g id="a_edge7_Node000001_Node000008"><a xlink:title=" ">
<path fill="none" stroke="#63b8ff" d="M78.72,-86.38C96.98,-70.07 128.15,-44.31 159,-28.5 163.31,-26.29 167.92,-24.28 172.62,-22.48"/>
<polygon fill="#63b8ff" stroke="#63b8ff" points="174.03,-25.69 182.28,-19.04 171.68,-19.09 174.03,-25.69"/>
</a>
</g>
</g>
<!-- Node6 -->
<g id="Node000006" class="node">
<title>Node6</title>
<g id="a_Node000006"><a xlink:href="classbasic__specs.html#a4b36db5ad1e38169bd6653635d5e69cd" target="_top" xlink:title=" ">
<polygon fill="white" stroke="#666666" points="458,-93 320,-93 320,-74 458,-74 458,-93"/>
<text text-anchor="middle" x="389" y="-81" font-family="Helvetica,sans-Serif" font-size="10.00">basic_specs::set_fill_size</text>
</a>
</g>
</g>
<!-- Node5&#45;&gt;Node6 -->
<g id="edge5_Node000005_Node000006" class="edge">
<title>Node5&#45;&gt;Node6</title>
<g id="a_edge5_Node000005_Node000006"><a xlink:title=" ">
<path fill="none" stroke="#63b8ff" d="M278.07,-83.5C288.25,-83.5 299.04,-83.5 309.73,-83.5"/>
<polygon fill="#63b8ff" stroke="#63b8ff" points="309.93,-87 319.93,-83.5 309.93,-80 309.93,-87"/>
</a>
</g>
</g>
</g>
</svg>
