<?xml version="1.0" encoding="UTF-8" standalone="no"?>
<!DOCTYPE svg PUBLIC "-//W3C//DTD SVG 1.1//EN"
 "http://www.w3.org/Graphics/SVG/1.1/DTD/svg11.dtd">
<!-- Generated by graphviz version 2.43.0 (0)
 -->
<!-- Title: Magick::Montage Pages: 1 -->
<svg width="440pt" height="192pt"
 viewBox="0.00 0.00 440.00 192.00" xmlns="http://www.w3.org/2000/svg" xmlns:xlink="http://www.w3.org/1999/xlink">
<g id="graph0" class="graph" transform="scale(1 1) rotate(0) translate(4 188)">
<title>Magick::Montage</title>
<!-- Node1 -->
<g id="Node000001" class="node">
<title>Node1</title>
<g id="a_Node000001"><a xlink:title=" ">
<polygon fill="#999999" stroke="#666666" points="272,-19 171,-19 171,0 272,0 272,-19"/>
<text text-anchor="middle" x="221.5" y="-7" font-family="Helvetica,sans-Serif" font-size="10.00">Magick::Montage</text>
</a>
</g>
</g>
<!-- Node2 -->
<g id="Node000002" class="node">
<title>Node2</title>
<g id="a_Node000002"><a xlink:href="classMagick_1_1Color.html" target="_top" xlink:title=" ">
<polygon fill="white" stroke="#666666" points="83,-118 0,-118 0,-99 83,-99 83,-118"/>
<text text-anchor="middle" x="41.5" y="-106" font-family="Helvetica,sans-Serif" font-size="10.00">Magick::Color</text>
</a>
</g>
</g>
<!-- Node2&#45;&gt;Node1 -->
<g id="edge1_Node000001_Node000002" class="edge">
<title>Node2&#45;&gt;Node1</title>
<g id="a_edge1_Node000001_Node000002"><a xlink:title=" ">
<path fill="none" stroke="#9a32cd" stroke-dasharray="5,2" d="M46.78,-88.97C52.42,-72.68 63,-49.65 80.5,-37 94.78,-26.68 136.36,-19.67 170.68,-15.47"/>
<polygon fill="#9a32cd" stroke="#9a32cd" points="43.3,-88.37 43.64,-98.96 49.98,-90.47 43.3,-88.37"/>
</a>
</g>
<text text-anchor="middle" x="126" y="-73" font-family="Helvetica,sans-Serif" font-size="10.00" fill="grey"> _backgroundColor</text>
<text text-anchor="middle" x="126" y="-62" font-family="Helvetica,sans-Serif" font-size="10.00" fill="grey">_fill</text>
<text text-anchor="middle" x="126" y="-51" font-family="Helvetica,sans-Serif" font-size="10.00" fill="grey">_stroke</text>
<text text-anchor="middle" x="126" y="-40" font-family="Helvetica,sans-Serif" font-size="10.00" fill="grey">_transparentColor</text>
</g>
<!-- Node3 -->
<g id="Node000003" class="node">
<title>Node3</title>
<g id="a_Node000003"><a xlink:title=" ">
<polygon fill="white" stroke="#666666" points="77,-184 6,-184 6,-165 77,-165 77,-184"/>
<text text-anchor="middle" x="41.5" y="-172" font-family="Helvetica,sans-Serif" font-size="10.00">PixelPacket</text>
</a>
</g>
</g>
<!-- Node3&#45;&gt;Node2 -->
<g id="edge2_Node000002_Node000003" class="edge">
<title>Node3&#45;&gt;Node2</title>
<g id="a_edge2_Node000002_Node000003"><a xlink:title=" ">
<path fill="none" stroke="#9a32cd" stroke-dasharray="5,2" d="M41.5,-154.58C41.5,-142.63 41.5,-127.72 41.5,-118.41"/>
<polygon fill="#9a32cd" stroke="#9a32cd" points="38,-154.87 41.5,-164.87 45,-154.87 38,-154.87"/>
</a>
</g>
<text text-anchor="middle" x="57.5" y="-139" font-family="Helvetica,sans-Serif" font-size="10.00" fill="grey"> _pixel</text>
</g>
<!-- Node4 -->
<g id="Node000004" class="node">
<title>Node4</title>
<g id="a_Node000004"><a xlink:title=" ">
<polygon fill="white" stroke="#666666" points="213.5,-118 101.5,-118 101.5,-99 213.5,-99 213.5,-118"/>
<text text-anchor="middle" x="157.5" y="-106" font-family="Helvetica,sans-Serif" font-size="10.00">CompositeOperator</text>
</a>
</g>
</g>
<!-- Node4&#45;&gt;Node1 -->
<g id="edge3_Node000001_Node000004" class="edge">
<title>Node4&#45;&gt;Node1</title>
<g id="a_edge3_Node000001_Node000004"><a xlink:title=" ">
<path fill="none" stroke="#9a32cd" stroke-dasharray="5,2" d="M168.79,-90.4C182.52,-69.58 205.17,-35.24 215.74,-19.23"/>
<polygon fill="#9a32cd" stroke="#9a32cd" points="165.77,-88.62 163.18,-98.89 171.61,-92.47 165.77,-88.62"/>
</a>
</g>
<text text-anchor="middle" x="229" y="-56.5" font-family="Helvetica,sans-Serif" font-size="10.00" fill="grey"> _compose</text>
</g>
<!-- Node5 -->
<g id="Node000005" class="node">
<title>Node5</title>
<g id="a_Node000005"><a xlink:href="classMagick_1_1Geometry.html" target="_top" xlink:title=" ">
<polygon fill="white" stroke="#666666" points="339,-118 232,-118 232,-99 339,-99 339,-118"/>
<text text-anchor="middle" x="285.5" y="-106" font-family="Helvetica,sans-Serif" font-size="10.00">Magick::Geometry</text>
</a>
</g>
</g>
<!-- Node5&#45;&gt;Node1 -->
<g id="edge4_Node000001_Node000005" class="edge">
<title>Node5&#45;&gt;Node1</title>
<g id="a_edge4_Node000001_Node000005"><a xlink:title=" ">
<path fill="none" stroke="#9a32cd" stroke-dasharray="5,2" d="M281.84,-88.67C278.17,-73.52 271.32,-52.3 259.5,-37 253.9,-29.74 245.75,-23.69 238.43,-19.22"/>
<polygon fill="#9a32cd" stroke="#9a32cd" points="278.51,-89.85 284.06,-98.88 285.35,-88.36 278.51,-89.85"/>
</a>
</g>
<text text-anchor="middle" x="307.5" y="-62" font-family="Helvetica,sans-Serif" font-size="10.00" fill="grey"> _geometry</text>
<text text-anchor="middle" x="307.5" y="-51" font-family="Helvetica,sans-Serif" font-size="10.00" fill="grey">_tile</text>
</g>
<!-- Node6 -->
<g id="Node000006" class="node">
<title>Node6</title>
<g id="a_Node000006"><a xlink:title=" ">
<polygon fill="white" stroke="#666666" points="432,-118 357,-118 357,-99 432,-99 432,-118"/>
<text text-anchor="middle" x="394.5" y="-106" font-family="Helvetica,sans-Serif" font-size="10.00">GravityType</text>
</a>
</g>
</g>
<!-- Node6&#45;&gt;Node1 -->
<g id="edge5_Node000001_Node000006" class="edge">
<title>Node6&#45;&gt;Node1</title>
<g id="a_edge5_Node000001_Node000006"><a xlink:title=" ">
<path fill="none" stroke="#9a32cd" stroke-dasharray="5,2" d="M385.19,-89.47C375.84,-73.21 359.92,-49.93 339.5,-37 319.46,-24.3 294.12,-17.65 272.06,-14.18"/>
<polygon fill="#9a32cd" stroke="#9a32cd" points="382.27,-91.43 390.14,-98.53 388.42,-88.07 382.27,-91.43"/>
</a>
</g>
<text text-anchor="middle" x="401" y="-56.5" font-family="Helvetica,sans-Serif" font-size="10.00" fill="grey"> _gravity</text>
</g>
</g>
</svg>
