<?xml version="1.0" encoding="UTF-8" standalone="no"?>
<!DOCTYPE svg PUBLIC "-//W3C//DTD SVG 1.1//EN"
 "http://www.w3.org/Graphics/SVG/1.1/DTD/svg11.dtd">
<!-- Generated by graphviz version 2.43.0 (0)
 -->
<!-- Title: basic_printf_context&lt; Char &gt; Pages: 1 -->
<svg width="1165pt" height="195pt"
 viewBox="0.00 0.00 1165.00 194.50" xmlns="http://www.w3.org/2000/svg" xmlns:xlink="http://www.w3.org/1999/xlink">
<g id="graph0" class="graph" transform="scale(1 1) rotate(0) translate(4 190.5)">
<title>basic_printf_context&lt; Char &gt;</title>
<!-- Node1 -->
<g id="Node000001" class="node">
<title>Node1</title>
<g id="a_Node000001"><a xlink:title=" ">
<polygon fill="#999999" stroke="#666666" points="1157,-141 1041,-141 1041,-111 1157,-111 1157,-141"/>
<text text-anchor="start" x="1049" y="-129" font-family="Helvetica,sans-Serif" font-size="10.00">basic_printf_context</text>
<text text-anchor="middle" x="1099" y="-118" font-family="Helvetica,sans-Serif" font-size="10.00">&lt; Char &gt;</text>
</a>
</g>
</g>
<!-- Node2 -->
<g id="Node000002" class="node">
<title>Node2</title>
<g id="a_Node000002"><a xlink:href="classbasic__appender.html" target="_top" xlink:title=" ">
<polygon fill="white" stroke="#666666" points="975,-157.5 837,-157.5 837,-138.5 975,-138.5 975,-157.5"/>
<text text-anchor="middle" x="906" y="-145.5" font-family="Helvetica,sans-Serif" font-size="10.00">basic_appender&lt; Char &gt;</text>
</a>
</g>
</g>
<!-- Node2&#45;&gt;Node1 -->
<g id="edge1_Node000001_Node000002" class="edge">
<title>Node2&#45;&gt;Node1</title>
<g id="a_edge1_Node000001_Node000002"><a xlink:title=" ">
<path fill="none" stroke="#9a32cd" stroke-dasharray="5,2" d="M985.11,-139C1003.79,-136.85 1023.39,-134.59 1040.92,-132.57"/>
<polygon fill="#9a32cd" stroke="#9a32cd" points="984.68,-135.53 975.15,-140.15 985.48,-142.48 984.68,-135.53"/>
</a>
</g>
<text text-anchor="middle" x="1008" y="-140" font-family="Helvetica,sans-Serif" font-size="10.00" fill="grey"> out_</text>
</g>
<!-- Node3 -->
<g id="Node000003" class="node">
<title>Node3</title>
<g id="a_Node000003"><a xlink:href="classdetail_1_1buffer.html" target="_top" xlink:title=" ">
<polygon fill="white" stroke="#666666" points="745,-157.5 621,-157.5 621,-138.5 745,-138.5 745,-157.5"/>
<text text-anchor="middle" x="683" y="-145.5" font-family="Helvetica,sans-Serif" font-size="10.00">detail::buffer&lt; Char &gt;</text>
</a>
</g>
</g>
<!-- Node3&#45;&gt;Node2 -->
<g id="edge2_Node000002_Node000003" class="edge">
<title>Node3&#45;&gt;Node2</title>
<g id="a_edge2_Node000002_Node000003"><a xlink:title=" ">
<path fill="none" stroke="#9a32cd" stroke-dasharray="5,2" d="M755.45,-148C781.48,-148 810.84,-148 836.61,-148"/>
<polygon fill="#9a32cd" stroke="#9a32cd" points="755.27,-144.5 745.27,-148 755.27,-151.5 755.27,-144.5"/>
</a>
</g>
<text text-anchor="middle" x="794.5" y="-151" font-family="Helvetica,sans-Serif" font-size="10.00" fill="grey"> container</text>
</g>
<!-- Node4 -->
<g id="Node000004" class="node">
<title>Node4</title>
<g id="a_Node000004"><a xlink:href="classdetail_1_1buffer.html" target="_top" xlink:title=" ">
<polygon fill="white" stroke="#666666" points="538.5,-157.5 431.5,-157.5 431.5,-138.5 538.5,-138.5 538.5,-157.5"/>
<text text-anchor="middle" x="485" y="-145.5" font-family="Helvetica,sans-Serif" font-size="10.00">detail::buffer&lt; T &gt;</text>
</a>
</g>
</g>
<!-- Node4&#45;&gt;Node3 -->
<g id="edge3_Node000003_Node000004" class="edge">
<title>Node4&#45;&gt;Node3</title>
<g id="a_edge3_Node000003_Node000004"><a xlink:title=" ">
<path fill="none" stroke="#9a32cd" stroke-dasharray="5,2" d="M548.59,-148C571.75,-148 597.97,-148 620.99,-148"/>
<polygon fill="#9a32cd" stroke="#9a32cd" points="548.52,-144.5 538.52,-148 548.52,-151.5 548.52,-144.5"/>
</a>
</g>
<text text-anchor="middle" x="578" y="-151" font-family="Helvetica,sans-Serif" font-size="10.00" fill="grey"> grow_</text>
</g>
<!-- Node4&#45;&gt;Node4 -->
<g id="edge4_Node000004_Node000004" class="edge">
<title>Node4&#45;&gt;Node4</title>
<g id="a_edge4_Node000004_Node000004"><a xlink:title=" ">
<path fill="none" stroke="#9a32cd" stroke-dasharray="5,2" d="M468.06,-167.41C469.39,-172.06 475.04,-175.5 485,-175.5 501.35,-175.5 506.08,-166.23 499.18,-157.58"/>
<polygon fill="#9a32cd" stroke="#9a32cd" points="471.48,-168.16 470.82,-157.58 464.75,-166.26 471.48,-168.16"/>
</a>
</g>
<text text-anchor="middle" x="485" y="-178.5" font-family="Helvetica,sans-Serif" font-size="10.00" fill="grey"> grow_</text>
</g>
<!-- Node5 -->
<g id="Node000005" class="node">
<title>Node5</title>
<g id="a_Node000005"><a xlink:href="classbasic__format__args.html" target="_top" xlink:title=" ">
<polygon fill="white" stroke="#666666" points="971,-120 841,-120 841,-90 971,-90 971,-120"/>
<text text-anchor="start" x="849" y="-108" font-family="Helvetica,sans-Serif" font-size="10.00">basic_format_args&lt;</text>
<text text-anchor="middle" x="906" y="-97" font-family="Helvetica,sans-Serif" font-size="10.00"> basic_printf_context &gt;</text>
</a>
</g>
</g>
<!-- Node5&#45;&gt;Node1 -->
<g id="edge5_Node000001_Node000005" class="edge">
<title>Node5&#45;&gt;Node1</title>
<g id="a_edge5_Node000001_Node000005"><a xlink:title=" ">
<path fill="none" stroke="#9a32cd" stroke-dasharray="5,2" d="M981.27,-108.11C995.16,-109.08 1009.55,-110.34 1023,-112 1028.78,-112.71 1034.8,-113.59 1040.79,-114.56"/>
<polygon fill="#9a32cd" stroke="#9a32cd" points="981.46,-104.61 971.25,-107.45 981,-111.6 981.46,-104.61"/>
</a>
</g>
<text text-anchor="middle" x="1008" y="-115" font-family="Helvetica,sans-Serif" font-size="10.00" fill="grey"> args_</text>
</g>
<!-- Node6 -->
<g id="Node000006" class="node">
<title>Node6</title>
<g id="a_Node000006"><a xlink:href="classdetail_1_1value.html" target="_top" xlink:title=" ">
<polygon fill="white" stroke="#666666" points="542,-102 428,-102 428,-72 542,-72 542,-102"/>
<text text-anchor="start" x="436" y="-90" font-family="Helvetica,sans-Serif" font-size="10.00">detail::value&lt; basic</text>
<text text-anchor="middle" x="485" y="-79" font-family="Helvetica,sans-Serif" font-size="10.00">_printf_context &gt;</text>
</a>
</g>
</g>
<!-- Node6&#45;&gt;Node5 -->
<g id="edge6_Node000005_Node000006" class="edge">
<title>Node6&#45;&gt;Node5</title>
<g id="a_edge6_Node000005_Node000006"><a xlink:title=" ">
<path fill="none" stroke="#9a32cd" stroke-dasharray="5,2" d="M552.4,-89.85C631.44,-93.25 762.56,-98.88 840.68,-102.24"/>
<polygon fill="#9a32cd" stroke="#9a32cd" points="552.21,-86.34 542.07,-89.41 551.91,-93.33 552.21,-86.34"/>
</a>
</g>
<text text-anchor="middle" x="683" y="-101" font-family="Helvetica,sans-Serif" font-size="10.00" fill="grey"> values_</text>
</g>
<!-- Node12 -->
<g id="Node000012" class="node">
<title>Node12</title>
<g id="a_Node000012"><a xlink:href="classbasic__format__arg.html" target="_top" xlink:title=" ">
<polygon fill="white" stroke="#666666" points="752,-71 614,-71 614,-41 752,-41 752,-71"/>
<text text-anchor="start" x="622" y="-59" font-family="Helvetica,sans-Serif" font-size="10.00">basic_format_arg&lt; basic</text>
<text text-anchor="middle" x="683" y="-48" font-family="Helvetica,sans-Serif" font-size="10.00">_printf_context &gt;</text>
</a>
</g>
</g>
<!-- Node6&#45;&gt;Node12 -->
<g id="edge13_Node000012_Node000006" class="edge">
<title>Node6&#45;&gt;Node12</title>
<g id="a_edge13_Node000012_Node000006"><a xlink:title=" ">
<path fill="none" stroke="#9a32cd" stroke-dasharray="5,2" d="M552.3,-76.51C572.07,-73.39 593.76,-69.96 613.65,-66.81"/>
<polygon fill="#9a32cd" stroke="#9a32cd" points="551.5,-73.1 542.17,-78.12 552.59,-80.01 551.5,-73.1"/>
</a>
</g>
<text text-anchor="middle" x="578" y="-78" font-family="Helvetica,sans-Serif" font-size="10.00" fill="grey"> value_</text>
</g>
<!-- Node7 -->
<g id="Node000007" class="node">
<title>Node7</title>
<g id="a_Node000007"><a xlink:href="structmonostate.html" target="_top" xlink:title=" ">
<polygon fill="white" stroke="#666666" points="293.5,-163.5 224.5,-163.5 224.5,-144.5 293.5,-144.5 293.5,-163.5"/>
<text text-anchor="middle" x="259" y="-151.5" font-family="Helvetica,sans-Serif" font-size="10.00">monostate</text>
</a>
</g>
</g>
<!-- Node7&#45;&gt;Node6 -->
<g id="edge7_Node000006_Node000007" class="edge">
<title>Node7&#45;&gt;Node6</title>
<g id="a_edge7_Node000006_Node000007"><a xlink:title=" ">
<path fill="none" stroke="#9a32cd" stroke-dasharray="5,2" d="M303.5,-144.5C333.66,-137.55 374.61,-127.37 410,-116 422.61,-111.95 436.17,-106.86 448.19,-102.08"/>
<polygon fill="#9a32cd" stroke="#9a32cd" points="302.68,-141.1 293.7,-146.74 304.23,-147.92 302.68,-141.1"/>
</a>
</g>
<text text-anchor="middle" x="378" y="-136" font-family="Helvetica,sans-Serif" font-size="10.00" fill="grey"> no_value</text>
</g>
<!-- Node8 -->
<g id="Node000008" class="node">
<title>Node8</title>
<g id="a_Node000008"><a xlink:href="structdetail_1_1string__value.html" target="_top" xlink:title=" ">
<polygon fill="white" stroke="#666666" points="314,-126 204,-126 204,-96 314,-96 314,-126"/>
<text text-anchor="start" x="212" y="-114" font-family="Helvetica,sans-Serif" font-size="10.00">detail::string_value</text>
<text text-anchor="middle" x="259" y="-103" font-family="Helvetica,sans-Serif" font-size="10.00">&lt; char_type &gt;</text>
</a>
</g>
</g>
<!-- Node8&#45;&gt;Node6 -->
<g id="edge8_Node000006_Node000008" class="edge">
<title>Node8&#45;&gt;Node6</title>
<g id="a_edge8_Node000006_Node000008"><a xlink:title=" ">
<path fill="none" stroke="#9a32cd" stroke-dasharray="5,2" d="M324.58,-104.08C357.26,-100.58 396.54,-96.37 427.94,-93.01"/>
<polygon fill="#9a32cd" stroke="#9a32cd" points="323.79,-100.64 314.22,-105.19 324.54,-107.6 323.79,-100.64"/>
</a>
</g>
<text text-anchor="middle" x="378" y="-104" font-family="Helvetica,sans-Serif" font-size="10.00" fill="grey"> string</text>
</g>
<!-- Node9 -->
<g id="Node000009" class="node">
<title>Node9</title>
<g id="a_Node000009"><a xlink:href="structdetail_1_1custom__value.html" target="_top" xlink:title=" ">
<polygon fill="white" stroke="#666666" points="328,-78 190,-78 190,-48 328,-48 328,-78"/>
<text text-anchor="start" x="198" y="-66" font-family="Helvetica,sans-Serif" font-size="10.00">detail::custom_value</text>
<text text-anchor="middle" x="259" y="-55" font-family="Helvetica,sans-Serif" font-size="10.00">&lt; basic_printf_context &gt;</text>
</a>
</g>
</g>
<!-- Node9&#45;&gt;Node6 -->
<g id="edge9_Node000006_Node000009" class="edge">
<title>Node9&#45;&gt;Node6</title>
<g id="a_edge9_Node000006_Node000009"><a xlink:title=" ">
<path fill="none" stroke="#9a32cd" stroke-dasharray="5,2" d="M338.39,-71.4C367.88,-74.56 400.8,-78.09 427.87,-80.99"/>
<polygon fill="#9a32cd" stroke="#9a32cd" points="338.44,-67.88 328.12,-70.3 337.69,-74.84 338.44,-67.88"/>
</a>
</g>
<text text-anchor="middle" x="378" y="-81" font-family="Helvetica,sans-Serif" font-size="10.00" fill="grey"> custom</text>
</g>
<!-- Node10 -->
<g id="Node000010" class="node">
<title>Node10</title>
<g id="a_Node000010"><a xlink:href="structdetail_1_1named__arg__value.html" target="_top" xlink:title=" ">
<polygon fill="white" stroke="#666666" points="327.5,-30 190.5,-30 190.5,0 327.5,0 327.5,-30"/>
<text text-anchor="start" x="198.5" y="-18" font-family="Helvetica,sans-Serif" font-size="10.00">detail::named_arg_value</text>
<text text-anchor="middle" x="259" y="-7" font-family="Helvetica,sans-Serif" font-size="10.00">&lt; char_type &gt;</text>
</a>
</g>
</g>
<!-- Node10&#45;&gt;Node6 -->
<g id="edge10_Node000006_Node000010" class="edge">
<title>Node10&#45;&gt;Node6</title>
<g id="a_edge10_Node000006_Node000010"><a xlink:title=" ">
<path fill="none" stroke="#9a32cd" stroke-dasharray="5,2" d="M329.56,-32.73C355.05,-39.69 384.02,-48.13 410,-57 422.99,-61.44 437,-66.93 449.3,-71.99"/>
<polygon fill="#9a32cd" stroke="#9a32cd" points="330.17,-29.27 319.6,-30.04 328.34,-36.03 330.17,-29.27"/>
</a>
</g>
<text text-anchor="middle" x="378" y="-60" font-family="Helvetica,sans-Serif" font-size="10.00" fill="grey"> named_args</text>
</g>
<!-- Node11 -->
<g id="Node000011" class="node">
<title>Node11</title>
<g id="a_Node000011"><a xlink:href="structdetail_1_1named__arg__info.html" target="_top" xlink:title=" ">
<polygon fill="white" stroke="#666666" points="129,-30 0,-30 0,0 129,0 129,-30"/>
<text text-anchor="start" x="8" y="-18" font-family="Helvetica,sans-Serif" font-size="10.00">detail::named_arg_info</text>
<text text-anchor="middle" x="64.5" y="-7" font-family="Helvetica,sans-Serif" font-size="10.00">&lt; char_type &gt;</text>
</a>
</g>
</g>
<!-- Node11&#45;&gt;Node10 -->
<g id="edge11_Node000010_Node000011" class="edge">
<title>Node11&#45;&gt;Node10</title>
<g id="a_edge11_Node000010_Node000011"><a xlink:title=" ">
<path fill="none" stroke="#9a32cd" stroke-dasharray="5,2" d="M139.34,-15C156.06,-15 173.74,-15 190.2,-15"/>
<polygon fill="#9a32cd" stroke="#9a32cd" points="139.07,-11.5 129.07,-15 139.07,-18.5 139.07,-11.5"/>
</a>
</g>
<text text-anchor="middle" x="159.5" y="-18" font-family="Helvetica,sans-Serif" font-size="10.00" fill="grey"> data</text>
</g>
<!-- Node12&#45;&gt;Node5 -->
<g id="edge12_Node000005_Node000012" class="edge">
<title>Node12&#45;&gt;Node5</title>
<g id="a_edge12_Node000005_Node000012"><a xlink:title=" ">
<path fill="none" stroke="#9a32cd" stroke-dasharray="5,2" d="M762.13,-70.07C780.82,-73.7 800.66,-77.79 819,-82 829.39,-84.39 840.43,-87.16 851.01,-89.93"/>
<polygon fill="#9a32cd" stroke="#9a32cd" points="762.66,-66.61 752.18,-68.15 761.34,-73.48 762.66,-66.61"/>
</a>
</g>
<text text-anchor="middle" x="794.5" y="-85" font-family="Helvetica,sans-Serif" font-size="10.00" fill="grey"> args_</text>
</g>
</g>
</svg>
