<?xml version="1.0" encoding="UTF-8" standalone="no"?>
<!DOCTYPE svg PUBLIC "-//W3C//DTD SVG 1.1//EN"
 "http://www.w3.org/Graphics/SVG/1.1/DTD/svg11.dtd">
<!-- Generated by graphviz version 2.43.0 (0)
 -->
<!-- Title: LoRaWANPackageManager Pages: 1 -->
<svg width="1291pt" height="292pt"
 viewBox="0.00 0.00 1291.00 292.00" xmlns="http://www.w3.org/2000/svg" xmlns:xlink="http://www.w3.org/1999/xlink">
<g id="graph0" class="graph" transform="scale(1 1) rotate(0) translate(4 288)">
<title>LoRaWANPackageManager</title>
<!-- Node1 -->
<g id="Node000001" class="node">
<title>Node1</title>
<g id="a_Node000001"><a xlink:title="Interface to manage multiple LoRaWAN application packages.">
<polygon fill="#999999" stroke="#666666" points="1094,-198 948,-198 948,-179 1094,-179 1094,-198"/>
<text text-anchor="middle" x="1021" y="-186" font-family="Helvetica,sans-Serif" font-size="10.00">LoRaWANPackageManager</text>
</a>
</g>
</g>
<!-- Node18 -->
<g id="Node000018" class="node">
<title>Node18</title>
<g id="a_Node000018"><a xlink:href="classLoRaWANPackage.html" target="_top" xlink:title="Common interface for all application packages.">
<polygon fill="white" stroke="#666666" points="1283,-192 1179,-192 1179,-173 1283,-173 1283,-192"/>
<text text-anchor="middle" x="1231" y="-180" font-family="Helvetica,sans-Serif" font-size="10.00">LoRaWANPackage</text>
</a>
</g>
</g>
<!-- Node1&#45;&gt;Node18 -->
<g id="edge19_Node000018_Node000001" class="edge">
<title>Node1&#45;&gt;Node18</title>
<g id="a_edge19_Node000018_Node000001"><a xlink:title=" ">
<path fill="none" stroke="#9a32cd" stroke-dasharray="5,2" d="M1104.44,-195.57C1123.06,-196.19 1142.73,-196.08 1161,-194.5 1167.66,-193.92 1174.65,-193.04 1181.51,-192.01"/>
<polygon fill="#9a32cd" stroke="#9a32cd" points="1104.35,-192.06 1094.22,-195.15 1104.07,-199.06 1104.35,-192.06"/>
</a>
</g>
<text text-anchor="middle" x="1136.5" y="-199.5" font-family="Helvetica,sans-Serif" font-size="10.00" fill="grey"> pacMan</text>
</g>
<!-- Node2 -->
<g id="Node000002" class="node">
<title>Node2</title>
<g id="a_Node000002"><a xlink:href="classLoRaWANNode.html" target="_top" xlink:title="LoRaWAN&#45;compatible node (class A device).">
<polygon fill="white" stroke="#666666" points="844,-175 755,-175 755,-156 844,-156 844,-175"/>
<text text-anchor="middle" x="799.5" y="-163" font-family="Helvetica,sans-Serif" font-size="10.00">LoRaWANNode</text>
</a>
</g>
</g>
<!-- Node2&#45;&gt;Node1 -->
<g id="edge1_Node000001_Node000002" class="edge">
<title>Node2&#45;&gt;Node1</title>
<g id="a_edge1_Node000001_Node000002"><a xlink:title=" ">
<path fill="none" stroke="#9a32cd" stroke-dasharray="5,2" d="M854.2,-171.13C882.42,-174.08 917.39,-177.75 947.94,-180.95"/>
<polygon fill="#9a32cd" stroke="#9a32cd" points="854.44,-167.63 844.13,-170.07 853.71,-174.59 854.44,-167.63"/>
</a>
</g>
<text text-anchor="middle" x="896" y="-182.5" font-family="Helvetica,sans-Serif" font-size="10.00" fill="grey"> lorawanNode</text>
</g>
<!-- Node2&#45;&gt;Node18 -->
<g id="edge20_Node000018_Node000002" class="edge">
<title>Node2&#45;&gt;Node18</title>
<g id="a_edge20_Node000018_Node000002"><a xlink:title=" ">
<path fill="none" stroke="#9a32cd" stroke-dasharray="5,2" d="M854.55,-160.62C913.53,-156.14 1010.66,-151.2 1094,-158.5 1125.41,-161.25 1160.43,-167.51 1187.07,-172.94"/>
<polygon fill="#9a32cd" stroke="#9a32cd" points="854.05,-157.15 844.35,-161.42 854.6,-164.13 854.05,-157.15"/>
</a>
</g>
<text text-anchor="middle" x="1021" y="-161.5" font-family="Helvetica,sans-Serif" font-size="10.00" fill="grey"> lorawanNode</text>
</g>
<!-- Node3 -->
<g id="Node000003" class="node">
<title>Node3</title>
<g id="a_Node000003"><a xlink:href="classPhysicalLayer.html" target="_top" xlink:title="Provides common interface for protocols that run on LoRa/FSK modules, such as RTTY or LoRaWAN....">
<polygon fill="white" stroke="#666666" points="651.5,-284 567.5,-284 567.5,-265 651.5,-265 651.5,-284"/>
<text text-anchor="middle" x="609.5" y="-272" font-family="Helvetica,sans-Serif" font-size="10.00">PhysicalLayer</text>
</a>
</g>
</g>
<!-- Node3&#45;&gt;Node2 -->
<g id="edge2_Node000002_Node000003" class="edge">
<title>Node3&#45;&gt;Node2</title>
<g id="a_edge2_Node000002_Node000003"><a xlink:title=" ">
<path fill="none" stroke="#9a32cd" stroke-dasharray="5,2" d="M661.62,-267.11C685.88,-261.87 714.43,-253.09 737,-238.5 762.88,-221.76 783.62,-190.81 793.03,-175.14"/>
<polygon fill="#9a32cd" stroke="#9a32cd" points="660.62,-263.74 651.51,-269.14 662,-270.6 660.62,-263.74"/>
</a>
</g>
<text text-anchor="middle" x="710.5" y="-263.5" font-family="Helvetica,sans-Serif" font-size="10.00" fill="grey"> phyLayer</text>
</g>
<!-- Node4 -->
<g id="Node000004" class="node">
<title>Node4</title>
<g id="a_Node000004"><a xlink:href="structLoRaWANBand__t.html" target="_top" xlink:title="Structure to save information about LoRaWAN band.">
<polygon fill="white" stroke="#666666" points="658.5,-175 560.5,-175 560.5,-156 658.5,-156 658.5,-175"/>
<text text-anchor="middle" x="609.5" y="-163" font-family="Helvetica,sans-Serif" font-size="10.00">LoRaWANBand_t</text>
</a>
</g>
</g>
<!-- Node4&#45;&gt;Node2 -->
<g id="edge3_Node000002_Node000004" class="edge">
<title>Node4&#45;&gt;Node2</title>
<g id="a_edge3_Node000002_Node000004"><a xlink:title=" ">
<path fill="none" stroke="#9a32cd" stroke-dasharray="5,2" d="M669.25,-165.5C696.9,-165.5 729.3,-165.5 754.75,-165.5"/>
<polygon fill="#9a32cd" stroke="#9a32cd" points="668.91,-162 658.91,-165.5 668.91,-169 668.91,-162"/>
</a>
</g>
<text text-anchor="middle" x="710.5" y="-168.5" font-family="Helvetica,sans-Serif" font-size="10.00" fill="grey"> band</text>
</g>
<!-- Node5 -->
<g id="Node000005" class="node">
<title>Node5</title>
<g id="a_Node000005"><a xlink:href="structLoRaWANChannel__t.html" target="_top" xlink:title="Structure to save information about LoRaWAN channels. To save space, adjacent channels are saved in &quot;...">
<polygon fill="white" stroke="#666666" points="452,-204 339,-204 339,-185 452,-185 452,-204"/>
<text text-anchor="middle" x="395.5" y="-192" font-family="Helvetica,sans-Serif" font-size="10.00">LoRaWANChannel_t</text>
</a>
</g>
</g>
<!-- Node5&#45;&gt;Node2 -->
<g id="edge17_Node000002_Node000005" class="edge">
<title>Node5&#45;&gt;Node2</title>
<g id="a_edge17_Node000002_Node000005"><a xlink:title=" ">
<path fill="none" stroke="#9a32cd" stroke-dasharray="5,2" d="M448.75,-205.86C459.68,-207.79 471.18,-209.5 482,-210.5 586.45,-220.19 709.18,-191.04 766.27,-175.12"/>
<polygon fill="#9a32cd" stroke="#9a32cd" points="449.37,-202.42 438.9,-204.04 448.1,-209.3 449.37,-202.42"/>
</a>
</g>
<text text-anchor="middle" x="609.5" y="-226.5" font-family="Helvetica,sans-Serif" font-size="10.00" fill="grey"> channels</text>
<text text-anchor="middle" x="609.5" y="-215.5" font-family="Helvetica,sans-Serif" font-size="10.00" fill="grey">dynamicChannels</text>
</g>
<!-- Node5&#45;&gt;Node4 -->
<g id="edge4_Node000004_Node000005" class="edge">
<title>Node5&#45;&gt;Node4</title>
<g id="a_edge4_Node000004_Node000005"><a xlink:title=" ">
<path fill="none" stroke="#9a32cd" stroke-dasharray="5,2" d="M429,-181.23C444.73,-175.5 464.04,-169.44 482,-166.5 507.68,-162.3 536.7,-161.77 560.45,-162.42"/>
<polygon fill="#9a32cd" stroke="#9a32cd" points="427.36,-178.11 419.24,-184.92 429.83,-184.66 427.36,-178.11"/>
</a>
</g>
<text text-anchor="middle" x="508.5" y="-202.5" font-family="Helvetica,sans-Serif" font-size="10.00" fill="grey"> rx2</text>
<text text-anchor="middle" x="508.5" y="-191.5" font-family="Helvetica,sans-Serif" font-size="10.00" fill="grey">txAck</text>
<text text-anchor="middle" x="508.5" y="-180.5" font-family="Helvetica,sans-Serif" font-size="10.00" fill="grey">txFreqs</text>
<text text-anchor="middle" x="508.5" y="-169.5" font-family="Helvetica,sans-Serif" font-size="10.00" fill="grey">txWoR</text>
</g>
<!-- Node6 -->
<g id="Node000006" class="node">
<title>Node6</title>
<g id="a_Node000006"><a xlink:href="structLoRaWANChannelSpan__t.html" target="_top" xlink:title="Structure to save information about LoRaWAN channels. To save space, adjacent channels are saved in &quot;...">
<polygon fill="white" stroke="#666666" points="464,-130 327,-130 327,-111 464,-111 464,-130"/>
<text text-anchor="middle" x="395.5" y="-118" font-family="Helvetica,sans-Serif" font-size="10.00">LoRaWANChannelSpan_t</text>
</a>
</g>
</g>
<!-- Node6&#45;&gt;Node4 -->
<g id="edge5_Node000004_Node000006" class="edge">
<title>Node6&#45;&gt;Node4</title>
<g id="a_edge5_Node000004_Node000006"><a xlink:title=" ">
<path fill="none" stroke="#9a32cd" stroke-dasharray="5,2" d="M474.27,-124.09C494.38,-126.47 515.78,-130.32 535,-136.5 543.71,-139.3 544.64,-142.78 553,-146.5 560.72,-149.93 569.27,-153.14 577.3,-155.9"/>
<polygon fill="#9a32cd" stroke="#9a32cd" points="474.51,-120.59 464.2,-123 473.76,-127.55 474.51,-120.59"/>
</a>
</g>
<text text-anchor="middle" x="508.5" y="-150.5" font-family="Helvetica,sans-Serif" font-size="10.00" fill="grey"> rx1Span</text>
<text text-anchor="middle" x="508.5" y="-139.5" font-family="Helvetica,sans-Serif" font-size="10.00" fill="grey">txSpans</text>
</g>
<!-- Node7 -->
<g id="Node000007" class="node">
<title>Node7</title>
<g id="a_Node000007"><a xlink:href="structLoRaWANDataRate__t.html" target="_top" xlink:title=" ">
<polygon fill="white" stroke="#666666" points="455,-93 336,-93 336,-74 455,-74 455,-93"/>
<text text-anchor="middle" x="395.5" y="-81" font-family="Helvetica,sans-Serif" font-size="10.00">LoRaWANDataRate_t</text>
</a>
</g>
</g>
<!-- Node7&#45;&gt;Node4 -->
<g id="edge6_Node000004_Node000007" class="edge">
<title>Node7&#45;&gt;Node4</title>
<g id="a_edge6_Node000004_Node000007"><a xlink:title=" ">
<path fill="none" stroke="#9a32cd" stroke-dasharray="5,2" d="M465.32,-84.69C489.33,-88.1 515.2,-95.46 535,-110.5 549.24,-121.32 539.53,-134.72 553,-146.5 557.45,-150.39 562.73,-153.49 568.24,-155.96"/>
<polygon fill="#9a32cd" stroke="#9a32cd" points="465.51,-81.19 455.16,-83.47 464.67,-88.14 465.51,-81.19"/>
</a>
</g>
<text text-anchor="middle" x="508.5" y="-113.5" font-family="Helvetica,sans-Serif" font-size="10.00" fill="grey"> dataRates</text>
</g>
<!-- Node8 -->
<g id="Node000008" class="node">
<title>Node8</title>
<g id="a_Node000008"><a xlink:href="unionDataRate__t.html" target="_top" xlink:title="Common data rate structure.">
<polygon fill="white" stroke="#666666" points="267.5,-148 196.5,-148 196.5,-129 267.5,-129 267.5,-148"/>
<text text-anchor="middle" x="232" y="-136" font-family="Helvetica,sans-Serif" font-size="10.00">DataRate_t</text>
</a>
</g>
</g>
<!-- Node8&#45;&gt;Node7 -->
<g id="edge7_Node000007_Node000008" class="edge">
<title>Node8&#45;&gt;Node7</title>
<g id="a_edge7_Node000007_Node000008"><a xlink:title=" ">
<path fill="none" stroke="#9a32cd" stroke-dasharray="5,2" d="M264.62,-125.01C282.7,-117.56 305.91,-108.44 327,-101.5 336.22,-98.47 346.26,-95.57 355.72,-93.03"/>
<polygon fill="#9a32cd" stroke="#9a32cd" points="263.04,-121.88 255.15,-128.95 265.73,-128.34 263.04,-121.88"/>
</a>
</g>
<text text-anchor="middle" x="301.5" y="-116.5" font-family="Helvetica,sans-Serif" font-size="10.00" fill="grey"> dr</text>
</g>
<!-- Node9 -->
<g id="Node000009" class="node">
<title>Node9</title>
<g id="a_Node000009"><a xlink:href="structLoRaRate__t.html" target="_top" xlink:title="Data rate structure interpretation in case LoRa is used.">
<polygon fill="white" stroke="#666666" points="95.5,-204 23.5,-204 23.5,-185 95.5,-185 95.5,-204"/>
<text text-anchor="middle" x="59.5" y="-192" font-family="Helvetica,sans-Serif" font-size="10.00">LoRaRate_t</text>
</a>
</g>
</g>
<!-- Node9&#45;&gt;Node8 -->
<g id="edge8_Node000008_Node000009" class="edge">
<title>Node9&#45;&gt;Node8</title>
<g id="a_edge8_Node000008_Node000009"><a xlink:title=" ">
<path fill="none" stroke="#9a32cd" stroke-dasharray="5,2" d="M105.64,-183.6C125.56,-178.42 149.14,-171.77 170,-164.5 183.7,-159.73 198.69,-153.36 210.38,-148.11"/>
<polygon fill="#9a32cd" stroke="#9a32cd" points="104.7,-180.23 95.88,-186.1 106.44,-187.01 104.7,-180.23"/>
</a>
</g>
<text text-anchor="middle" x="153.5" y="-178.5" font-family="Helvetica,sans-Serif" font-size="10.00" fill="grey"> lora</text>
</g>
<!-- Node10 -->
<g id="Node000010" class="node">
<title>Node10</title>
<g id="a_Node000010"><a xlink:href="structFSKRate__t.html" target="_top" xlink:title="Data rate structure interpretation in case FSK is used.">
<polygon fill="white" stroke="#666666" points="92.5,-167 26.5,-167 26.5,-148 92.5,-148 92.5,-167"/>
<text text-anchor="middle" x="59.5" y="-155" font-family="Helvetica,sans-Serif" font-size="10.00">FSKRate_t</text>
</a>
</g>
</g>
<!-- Node10&#45;&gt;Node8 -->
<g id="edge9_Node000008_Node000010" class="edge">
<title>Node10&#45;&gt;Node8</title>
<g id="a_edge9_Node000008_Node000010"><a xlink:title=" ">
<path fill="none" stroke="#9a32cd" stroke-dasharray="5,2" d="M102.76,-152.79C131.62,-149.57 169.38,-145.37 196.44,-142.35"/>
<polygon fill="#9a32cd" stroke="#9a32cd" points="102.12,-149.34 92.57,-153.93 102.9,-156.3 102.12,-149.34"/>
</a>
</g>
<text text-anchor="middle" x="153.5" y="-152.5" font-family="Helvetica,sans-Serif" font-size="10.00" fill="grey"> fsk</text>
</g>
<!-- Node11 -->
<g id="Node000011" class="node">
<title>Node11</title>
<g id="a_Node000011"><a xlink:href="structLrFhssRate__t.html" target="_top" xlink:title="Data rate structure interpretation in case LR&#45;FHSS is used.">
<polygon fill="white" stroke="#666666" points="99.5,-130 19.5,-130 19.5,-111 99.5,-111 99.5,-130"/>
<text text-anchor="middle" x="59.5" y="-118" font-family="Helvetica,sans-Serif" font-size="10.00">LrFhssRate_t</text>
</a>
</g>
</g>
<!-- Node11&#45;&gt;Node8 -->
<g id="edge10_Node000008_Node000011" class="edge">
<title>Node11&#45;&gt;Node8</title>
<g id="a_edge10_Node000008_Node000011"><a xlink:title=" ">
<path fill="none" stroke="#9a32cd" stroke-dasharray="5,2" d="M109.84,-120.32C128.73,-120.77 150.43,-121.92 170,-124.5 178.62,-125.64 187.81,-127.43 196.37,-129.36"/>
<polygon fill="#9a32cd" stroke="#9a32cd" points="109.73,-116.82 99.67,-120.14 109.61,-123.82 109.73,-116.82"/>
</a>
</g>
<text text-anchor="middle" x="153.5" y="-127.5" font-family="Helvetica,sans-Serif" font-size="10.00" fill="grey"> lrFhss</text>
</g>
<!-- Node12 -->
<g id="Node000012" class="node">
<title>Node12</title>
<g id="a_Node000012"><a xlink:href="unionPacketConfig__t.html" target="_top" xlink:title="Common packet configuration structure.">
<polygon fill="white" stroke="#666666" points="276,-75 188,-75 188,-56 276,-56 276,-75"/>
<text text-anchor="middle" x="232" y="-63" font-family="Helvetica,sans-Serif" font-size="10.00">PacketConfig_t</text>
</a>
</g>
</g>
<!-- Node12&#45;&gt;Node7 -->
<g id="edge11_Node000007_Node000012" class="edge">
<title>Node12&#45;&gt;Node7</title>
<g id="a_edge11_Node000007_Node000012"><a xlink:title=" ">
<path fill="none" stroke="#9a32cd" stroke-dasharray="5,2" d="M286.09,-66.68C293.79,-67.12 301.61,-67.71 309,-68.5 321.29,-69.81 334.48,-71.83 346.73,-73.95"/>
<polygon fill="#9a32cd" stroke="#9a32cd" points="286.24,-63.19 276.08,-66.19 285.9,-70.18 286.24,-63.19"/>
</a>
</g>
<text text-anchor="middle" x="301.5" y="-71.5" font-family="Helvetica,sans-Serif" font-size="10.00" fill="grey"> pc</text>
</g>
<!-- Node13 -->
<g id="Node000013" class="node">
<title>Node13</title>
<g id="a_Node000013"><a xlink:href="structLoRaPacketConfig__t.html" target="_top" xlink:title=" ">
<polygon fill="white" stroke="#666666" points="115.5,-93 3.5,-93 3.5,-74 115.5,-74 115.5,-93"/>
<text text-anchor="middle" x="59.5" y="-81" font-family="Helvetica,sans-Serif" font-size="10.00">LoRaPacketConfig_t</text>
</a>
</g>
</g>
<!-- Node13&#45;&gt;Node12 -->
<g id="edge12_Node000012_Node000013" class="edge">
<title>Node13&#45;&gt;Node12</title>
<g id="a_edge12_Node000012_Node000013"><a xlink:title=" ">
<path fill="none" stroke="#9a32cd" stroke-dasharray="5,2" d="M125.88,-76.6C146.62,-74.41 169.02,-72.04 187.8,-70.06"/>
<polygon fill="#9a32cd" stroke="#9a32cd" points="125.43,-73.13 115.86,-77.66 126.17,-80.09 125.43,-73.13"/>
</a>
</g>
<text text-anchor="middle" x="153.5" y="-78.5" font-family="Helvetica,sans-Serif" font-size="10.00" fill="grey"> lora</text>
</g>
<!-- Node14 -->
<g id="Node000014" class="node">
<title>Node14</title>
<g id="a_Node000014"><a xlink:href="structFSKPacketConfig__t.html" target="_top" xlink:title=" ">
<polygon fill="white" stroke="#666666" points="112.5,-56 6.5,-56 6.5,-37 112.5,-37 112.5,-56"/>
<text text-anchor="middle" x="59.5" y="-44" font-family="Helvetica,sans-Serif" font-size="10.00">FSKPacketConfig_t</text>
</a>
</g>
</g>
<!-- Node14&#45;&gt;Node12 -->
<g id="edge13_Node000012_Node000014" class="edge">
<title>Node14&#45;&gt;Node12</title>
<g id="a_edge13_Node000012_Node000014"><a xlink:title=" ">
<path fill="none" stroke="#9a32cd" stroke-dasharray="5,2" d="M122.61,-52.41C138.1,-53.97 154.66,-55.72 170,-57.5 175.73,-58.16 181.76,-58.9 187.7,-59.66"/>
<polygon fill="#9a32cd" stroke="#9a32cd" points="122.91,-48.92 112.61,-51.41 122.22,-55.89 122.91,-48.92"/>
</a>
</g>
<text text-anchor="middle" x="153.5" y="-60.5" font-family="Helvetica,sans-Serif" font-size="10.00" fill="grey"> fsk</text>
</g>
<!-- Node15 -->
<g id="Node000015" class="node">
<title>Node15</title>
<g id="a_Node000015"><a xlink:href="structLrFhssPacketConfig__t.html" target="_top" xlink:title=" ">
<polygon fill="white" stroke="#666666" points="119,-19 0,-19 0,0 119,0 119,-19"/>
<text text-anchor="middle" x="59.5" y="-7" font-family="Helvetica,sans-Serif" font-size="10.00">LrFhssPacketConfig_t</text>
</a>
</g>
</g>
<!-- Node15&#45;&gt;Node12 -->
<g id="edge14_Node000012_Node000015" class="edge">
<title>Node15&#45;&gt;Node12</title>
<g id="a_edge14_Node000012_Node000015"><a xlink:title=" ">
<path fill="none" stroke="#9a32cd" stroke-dasharray="5,2" d="M110.31,-21.62C129.18,-26.61 150.75,-32.8 170,-39.5 183.7,-44.27 198.69,-50.64 210.38,-55.89"/>
<polygon fill="#9a32cd" stroke="#9a32cd" points="110.99,-18.18 100.43,-19.05 109.23,-24.96 110.99,-18.18"/>
</a>
</g>
<text text-anchor="middle" x="153.5" y="-42.5" font-family="Helvetica,sans-Serif" font-size="10.00" fill="grey"> lrFhss</text>
</g>
<!-- Node16 -->
<g id="Node000016" class="node">
<title>Node16</title>
<g id="a_Node000016"><a xlink:href="structMulticastGroup__t.html" target="_top" xlink:title=" ">
<polygon fill="white" stroke="#666666" points="659.5,-138 559.5,-138 559.5,-119 659.5,-119 659.5,-138"/>
<text text-anchor="middle" x="609.5" y="-126" font-family="Helvetica,sans-Serif" font-size="10.00">MulticastGroup_t</text>
</a>
</g>
</g>
<!-- Node16&#45;&gt;Node2 -->
<g id="edge15_Node000002_Node000016" class="edge">
<title>Node16&#45;&gt;Node2</title>
<g id="a_edge15_Node000002_Node000016"><a xlink:title=" ">
<path fill="none" stroke="#9a32cd" stroke-dasharray="5,2" d="M669.5,-137.92C690.83,-141.54 715.05,-145.92 737,-150.5 744.85,-152.14 753.23,-154.06 761.19,-155.98"/>
<polygon fill="#9a32cd" stroke="#9a32cd" points="670.05,-134.46 659.6,-136.25 668.89,-141.36 670.05,-134.46"/>
</a>
</g>
<text text-anchor="middle" x="710.5" y="-153.5" font-family="Helvetica,sans-Serif" font-size="10.00" fill="grey"> mcGroups</text>
</g>
<!-- Node17 -->
<g id="Node000017" class="node">
<title>Node17</title>
<g id="a_Node000017"><a xlink:href="structLoRaWANPackage__t.html" target="_top" xlink:title="LoRaWAN Packages structure (for TSxxx documents).">
<polygon fill="white" stroke="#666666" points="666,-101 553,-101 553,-82 666,-82 666,-101"/>
<text text-anchor="middle" x="609.5" y="-89" font-family="Helvetica,sans-Serif" font-size="10.00">LoRaWANPackage_t</text>
</a>
</g>
</g>
<!-- Node17&#45;&gt;Node2 -->
<g id="edge16_Node000002_Node000017" class="edge">
<title>Node17&#45;&gt;Node2</title>
<g id="a_edge16_Node000002_Node000017"><a xlink:title=" ">
<path fill="none" stroke="#9a32cd" stroke-dasharray="5,2" d="M667.56,-103.48C689.74,-109.11 715.05,-116.76 737,-126.5 755.03,-134.5 773.92,-147.23 785.93,-155.96"/>
<polygon fill="#9a32cd" stroke="#9a32cd" points="668.15,-100.02 657.61,-101.03 666.48,-106.82 668.15,-100.02"/>
</a>
</g>
<text text-anchor="middle" x="710.5" y="-129.5" font-family="Helvetica,sans-Serif" font-size="10.00" fill="grey"> packages</text>
</g>
<!-- Node18&#45;&gt;Node1 -->
<g id="edge18_Node000001_Node000018" class="edge">
<title>Node18&#45;&gt;Node1</title>
<g id="a_edge18_Node000001_Node000018"><a xlink:title=" ">
<path fill="none" stroke="#9a32cd" stroke-dasharray="5,2" d="M1168.66,-182.47C1150.42,-182.61 1130.4,-182.91 1112,-183.5 1106.21,-183.69 1100.22,-183.92 1094.2,-184.19"/>
<polygon fill="#9a32cd" stroke="#9a32cd" points="1168.9,-185.97 1178.88,-182.41 1168.86,-178.97 1168.9,-185.97"/>
</a>
</g>
<text text-anchor="middle" x="1136.5" y="-186.5" font-family="Helvetica,sans-Serif" font-size="10.00" fill="grey"> packages</text>
</g>
</g>
</svg>
