<?xml version="1.0" encoding="UTF-8" standalone="no"?>
<!DOCTYPE svg PUBLIC "-//W3C//DTD SVG 1.1//EN"
 "http://www.w3.org/Graphics/SVG/1.1/DTD/svg11.dtd">
<!-- Generated by graphviz version 2.43.0 (0)
 -->
<!-- Title: Magick::Montage::penColor Pages: 1 -->
<svg width="333pt" height="64pt"
 viewBox="0.00 0.00 333.00 64.00" xmlns="http://www.w3.org/2000/svg" xmlns:xlink="http://www.w3.org/1999/xlink">
<g id="graph0" class="graph" transform="scale(1 1) rotate(0) translate(4 60)">
<title>Magick::Montage::penColor</title>
<!-- Node1 -->
<g id="Node000001" class="node">
<title>Node1</title>
<g id="a_Node000001"><a xlink:title=" ">
<polygon fill="#999999" stroke="#666666" points="150,-37 0,-37 0,-18 150,-18 150,-37"/>
<text text-anchor="middle" x="75" y="-25" font-family="Helvetica,sans-Serif" font-size="10.00">Magick::Montage::penColor</text>
</a>
</g>
</g>
<!-- Node2 -->
<g id="Node000002" class="node">
<title>Node2</title>
<g id="a_Node000002"><a xlink:href="classMagick_1_1Color.html#aeaf0d39f16a7dca785cc36806ecafcb6" target="_top" xlink:title=" ">
<polygon fill="white" stroke="#666666" points="313,-56 198,-56 198,-37 313,-37 313,-56"/>
<text text-anchor="middle" x="255.5" y="-44" font-family="Helvetica,sans-Serif" font-size="10.00">Magick::Color::Color</text>
</a>
</g>
</g>
<!-- Node1&#45;&gt;Node2 -->
<g id="edge1_Node000001_Node000002" class="edge">
<title>Node1&#45;&gt;Node2</title>
<g id="a_edge1_Node000001_Node000002"><a xlink:title=" ">
<path fill="none" stroke="#63b8ff" d="M150.15,-35.39C162.57,-36.71 175.4,-38.08 187.62,-39.38"/>
<polygon fill="#63b8ff" stroke="#63b8ff" points="187.41,-42.88 197.73,-40.46 188.15,-35.92 187.41,-42.88"/>
</a>
</g>
</g>
<!-- Node3 -->
<g id="Node000003" class="node">
<title>Node3</title>
<g id="a_Node000003"><a xlink:href="classMagick_1_1Color.html#a3006842a1397245ecc2ed16ecea929cf" target="_top" xlink:title=" ">
<polygon fill="white" stroke="#666666" points="325,-19 186,-19 186,0 325,0 325,-19"/>
<text text-anchor="middle" x="255.5" y="-7" font-family="Helvetica,sans-Serif" font-size="10.00">Magick::Color::operator=</text>
</a>
</g>
</g>
<!-- Node1&#45;&gt;Node3 -->
<g id="edge2_Node000001_Node000003" class="edge">
<title>Node1&#45;&gt;Node3</title>
<g id="a_edge2_Node000001_Node000003"><a xlink:title=" ">
<path fill="none" stroke="#63b8ff" d="M150.15,-20.02C158.53,-19.18 167.08,-18.32 175.52,-17.46"/>
<polygon fill="#63b8ff" stroke="#63b8ff" points="176.13,-20.92 185.73,-16.44 175.42,-13.96 176.13,-20.92"/>
</a>
</g>
</g>
</g>
</svg>
