<?xml version="1.0" encoding="UTF-8" standalone="no"?>
<!DOCTYPE svg PUBLIC "-//W3C//DTD SVG 1.1//EN"
 "http://www.w3.org/Graphics/SVG/1.1/DTD/svg11.dtd">
<!-- Generated by graphviz version 2.43.0 (0)
 -->
<!-- Title: parse_context::check_arg_id Pages: 1 -->
<svg width="301pt" height="76pt"
 viewBox="0.00 0.00 301.00 75.50" xmlns="http://www.w3.org/2000/svg" xmlns:xlink="http://www.w3.org/1999/xlink">
<g id="graph0" class="graph" transform="scale(1 1) rotate(0) translate(4 71.5)">
<title>parse_context::check_arg_id</title>
<!-- Node1 -->
<g id="Node000001" class="node">
<title>Node1</title>
<g id="a_Node000001"><a xlink:title=" ">
<polygon fill="#999999" stroke="#666666" points="120,-45.5 0,-45.5 0,-15.5 120,-15.5 120,-45.5"/>
<text text-anchor="start" x="8" y="-33.5" font-family="Helvetica,sans-Serif" font-size="10.00">parse_context::check</text>
<text text-anchor="middle" x="60" y="-22.5" font-family="Helvetica,sans-Serif" font-size="10.00">_arg_id</text>
</a>
</g>
</g>
<!-- Node2 -->
<g id="Node000002" class="node">
<title>Node2</title>
<g id="a_Node000002"><a xlink:href="classparse__context.html#a5298c126aff0752158bc2e332e4de156" target="_top" xlink:title=" ">
<polygon fill="white" stroke="#666666" points="293,-67.5 156,-67.5 156,-37.5 293,-37.5 293,-67.5"/>
<text text-anchor="start" x="164" y="-55.5" font-family="Helvetica,sans-Serif" font-size="10.00">parse_context::do_check</text>
<text text-anchor="middle" x="224.5" y="-44.5" font-family="Helvetica,sans-Serif" font-size="10.00">_arg_id</text>
</a>
</g>
</g>
<!-- Node1&#45;&gt;Node2 -->
<g id="edge1_Node000001_Node000002" class="edge">
<title>Node1&#45;&gt;Node2</title>
<g id="a_edge1_Node000001_Node000002"><a xlink:title=" ">
<path fill="none" stroke="#63b8ff" d="M120.13,-38.5C128.47,-39.64 137.16,-40.81 145.79,-41.98"/>
<polygon fill="#63b8ff" stroke="#63b8ff" points="145.5,-45.47 155.88,-43.35 146.44,-38.54 145.5,-45.47"/>
</a>
</g>
</g>
<!-- Node3 -->
<g id="Node000003" class="node">
<title>Node3</title>
<g id="a_Node000003"><a xlink:href="format-inl_8h.html#a5555893692b00b61b3886349332fd01f" target="_top" xlink:title=" ">
<polygon fill="white" stroke="#666666" points="261.5,-19 187.5,-19 187.5,0 261.5,0 261.5,-19"/>
<text text-anchor="middle" x="224.5" y="-7" font-family="Helvetica,sans-Serif" font-size="10.00">report_error</text>
</a>
</g>
</g>
<!-- Node1&#45;&gt;Node3 -->
<g id="edge2_Node000001_Node000003" class="edge">
<title>Node1&#45;&gt;Node3</title>
<g id="a_edge2_Node000001_Node000003"><a xlink:title=" ">
<path fill="none" stroke="#63b8ff" d="M120.13,-22.86C138.94,-20.43 159.47,-17.78 177.23,-15.48"/>
<polygon fill="#63b8ff" stroke="#63b8ff" points="177.87,-18.93 187.34,-14.17 176.98,-11.98 177.87,-18.93"/>
</a>
</g>
</g>
</g>
</svg>
