<?xml version="1.0" encoding="UTF-8" standalone="no"?>
<!DOCTYPE svg PUBLIC "-//W3C//DTD SVG 1.1//EN"
 "http://www.w3.org/Graphics/SVG/1.1/DTD/svg11.dtd">
<!-- Generated by graphviz version 2.43.0 (0)
 -->
<!-- Title: cxxopts::Options::add_option Pages: 1 -->
<svg width="604pt" height="102pt"
 viewBox="0.00 0.00 604.00 101.50" xmlns="http://www.w3.org/2000/svg" xmlns:xlink="http://www.w3.org/1999/xlink">
<g id="graph0" class="graph" transform="scale(1 1) rotate(0) translate(4 97.5)">
<title>cxxopts::Options::add_option</title>
<!-- Node1 -->
<g id="Node000001" class="node">
<title>Node1</title>
<g id="a_Node000001"><a xlink:title=" ">
<polygon fill="#999999" stroke="#666666" points="596,-69.5 474,-69.5 474,-39.5 596,-39.5 596,-69.5"/>
<text text-anchor="start" x="482" y="-57.5" font-family="Helvetica,sans-Serif" font-size="10.00">cxxopts::Options::add</text>
<text text-anchor="middle" x="535" y="-46.5" font-family="Helvetica,sans-Serif" font-size="10.00">_option</text>
</a>
</g>
</g>
<!-- Node2 -->
<g id="Node000002" class="node">
<title>Node2</title>
<g id="a_Node000002"><a xlink:href="classcxxopts_1_1Options.html#ac9aef634db43a56f369749f2710e1066" target="_top" xlink:title=" ">
<polygon fill="white" stroke="#666666" points="438,-93.5 316,-93.5 316,-63.5 438,-63.5 438,-93.5"/>
<text text-anchor="start" x="324" y="-81.5" font-family="Helvetica,sans-Serif" font-size="10.00">cxxopts::Options::add</text>
<text text-anchor="middle" x="377" y="-70.5" font-family="Helvetica,sans-Serif" font-size="10.00">_option</text>
</a>
</g>
</g>
<!-- Node1&#45;&gt;Node2 -->
<g id="edge1_Node000001_Node000002" class="edge">
<title>Node1&#45;&gt;Node2</title>
<g id="a_edge1_Node000001_Node000002"><a xlink:title=" ">
<path fill="none" stroke="#63b8ff" d="M463.74,-65.31C455.2,-66.62 446.53,-67.96 438.15,-69.25"/>
<polygon fill="#63b8ff" stroke="#63b8ff" points="464.33,-68.76 473.69,-63.78 463.27,-61.84 464.33,-68.76"/>
</a>
</g>
</g>
<!-- Node3 -->
<g id="Node000003" class="node">
<title>Node3</title>
<g id="a_Node000003"><a xlink:href="classcxxopts_1_1OptionAdder.html#a4feb747760c5fbaa807a4c8e1c335ac5" target="_top" xlink:title=" ">
<polygon fill="white" stroke="#666666" points="437.5,-45.5 316.5,-45.5 316.5,-15.5 437.5,-15.5 437.5,-45.5"/>
<text text-anchor="start" x="324.5" y="-33.5" font-family="Helvetica,sans-Serif" font-size="10.00">cxxopts::OptionAdder</text>
<text text-anchor="middle" x="377" y="-22.5" font-family="Helvetica,sans-Serif" font-size="10.00">::operator()</text>
</a>
</g>
</g>
<!-- Node1&#45;&gt;Node3 -->
<g id="edge2_Node000001_Node000003" class="edge">
<title>Node1&#45;&gt;Node3</title>
<g id="a_edge2_Node000001_Node000003"><a xlink:title=" ">
<path fill="none" stroke="#63b8ff" d="M463.59,-43.67C454.92,-42.33 446.13,-40.98 437.64,-39.68"/>
<polygon fill="#63b8ff" stroke="#63b8ff" points="463.27,-47.16 473.69,-45.22 464.33,-40.24 463.27,-47.16"/>
</a>
</g>
</g>
<!-- Node4 -->
<g id="Node000004" class="node">
<title>Node4</title>
<g id="a_Node000004"><a xlink:href="classcxxopts_1_1Options.html#a95878aa582f2ed8e0a2b73e735eb287d" target="_top" xlink:title=" ">
<polygon fill="white" stroke="#666666" points="280,-67.5 158,-67.5 158,-37.5 280,-37.5 280,-67.5"/>
<text text-anchor="start" x="166" y="-55.5" font-family="Helvetica,sans-Serif" font-size="10.00">cxxopts::Options::add</text>
<text text-anchor="middle" x="219" y="-44.5" font-family="Helvetica,sans-Serif" font-size="10.00">_options</text>
</a>
</g>
</g>
<!-- Node3&#45;&gt;Node4 -->
<g id="edge3_Node000003_Node000004" class="edge">
<title>Node3&#45;&gt;Node4</title>
<g id="a_edge3_Node000003_Node000004"><a xlink:title=" ">
<path fill="none" stroke="#63b8ff" d="M306.09,-40.36C297.46,-41.58 288.69,-42.81 280.22,-44.01"/>
<polygon fill="#63b8ff" stroke="#63b8ff" points="306.72,-43.81 316.13,-38.94 305.74,-36.87 306.72,-43.81"/>
</a>
</g>
</g>
<!-- Node6 -->
<g id="Node000006" class="node">
<title>Node6</title>
<g id="a_Node000006"><a xlink:href="receiver-normal_8cpp.html#a3c04138a5bfe5d72780bb7e82a18e627" target="_top" xlink:title=" ">
<polygon fill="white" stroke="#666666" points="239.5,-19 198.5,-19 198.5,0 239.5,0 239.5,-19"/>
<text text-anchor="middle" x="219" y="-7" font-family="Helvetica,sans-Serif" font-size="10.00">main</text>
</a>
</g>
</g>
<!-- Node3&#45;&gt;Node6 -->
<g id="edge5_Node000003_Node000006" class="edge">
<title>Node3&#45;&gt;Node6</title>
<g id="a_edge5_Node000003_Node000006"><a xlink:title=" ">
<path fill="none" stroke="#63b8ff" d="M306.16,-21.1C281.82,-17.82 256.4,-14.4 239.54,-12.13"/>
<polygon fill="#63b8ff" stroke="#63b8ff" points="305.75,-24.58 316.13,-22.44 306.69,-17.64 305.75,-24.58"/>
</a>
</g>
</g>
<!-- Node5 -->
<g id="Node000005" class="node">
<title>Node5</title>
<g id="a_Node000005"><a xlink:href="classcxxopts_1_1Options.html#ac698adfe5b5ca50d36017a52b27fb828" target="_top" xlink:title=" ">
<polygon fill="white" stroke="#666666" points="122,-67.5 0,-67.5 0,-37.5 122,-37.5 122,-67.5"/>
<text text-anchor="start" x="8" y="-55.5" font-family="Helvetica,sans-Serif" font-size="10.00">cxxopts::Options::add</text>
<text text-anchor="middle" x="61" y="-44.5" font-family="Helvetica,sans-Serif" font-size="10.00">_option</text>
</a>
</g>
</g>
<!-- Node4&#45;&gt;Node5 -->
<g id="edge4_Node000004_Node000005" class="edge">
<title>Node4&#45;&gt;Node5</title>
<g id="a_edge4_Node000004_Node000005"><a xlink:title=" ">
<path fill="none" stroke="#63b8ff" d="M147.46,-52.5C139.01,-52.5 130.44,-52.5 122.15,-52.5"/>
<polygon fill="#63b8ff" stroke="#63b8ff" points="147.69,-56 157.69,-52.5 147.69,-49 147.69,-56"/>
</a>
</g>
</g>
</g>
</svg>
