<?xml version="1.0" encoding="UTF-8" standalone="no"?>
<!DOCTYPE svg PUBLIC "-//W3C//DTD SVG 1.1//EN"
 "http://www.w3.org/Graphics/SVG/1.1/DTD/svg11.dtd">
<!-- Generated by graphviz version 2.43.0 (0)
 -->
<!-- Title: cxxopts::exceptions::parsing::parsing Pages: 1 -->
<svg width="329pt" height="426pt"
 viewBox="0.00 0.00 329.00 426.00" xmlns="http://www.w3.org/2000/svg" xmlns:xlink="http://www.w3.org/1999/xlink">
<g id="graph0" class="graph" transform="scale(1 1) rotate(0) translate(4 422)">
<title>cxxopts::exceptions::parsing::parsing</title>
<!-- Node1 -->
<g id="Node000001" class="node">
<title>Node1</title>
<g id="a_Node000001"><a xlink:title=" ">
<polygon fill="#999999" stroke="#666666" points="321,-224 208,-224 208,-194 321,-194 321,-224"/>
<text text-anchor="start" x="216" y="-212" font-family="Helvetica,sans-Serif" font-size="10.00">cxxopts::exceptions</text>
<text text-anchor="middle" x="264.5" y="-201" font-family="Helvetica,sans-Serif" font-size="10.00">::parsing::parsing</text>
</a>
</g>
</g>
<!-- Node2 -->
<g id="Node000002" class="node">
<title>Node2</title>
<g id="a_Node000002"><a xlink:href="classcxxopts_1_1exceptions_1_1gratuitous__argument__for__option.html#a3dda22bb1c74c6c5ade04692266f2f84" target="_top" xlink:title=" ">
<polygon fill="white" stroke="#666666" points="149.5,-418 22.5,-418 22.5,-366 149.5,-366 149.5,-418"/>
<text text-anchor="start" x="30.5" y="-406" font-family="Helvetica,sans-Serif" font-size="10.00">cxxopts::exceptions</text>
<text text-anchor="start" x="30.5" y="-395" font-family="Helvetica,sans-Serif" font-size="10.00">::gratuitous_argument</text>
<text text-anchor="start" x="30.5" y="-384" font-family="Helvetica,sans-Serif" font-size="10.00">_for_option::gratuitous</text>
<text text-anchor="middle" x="86" y="-373" font-family="Helvetica,sans-Serif" font-size="10.00">_argument_for_option</text>
</a>
</g>
</g>
<!-- Node1&#45;&gt;Node2 -->
<g id="edge1_Node000001_Node000002" class="edge">
<title>Node1&#45;&gt;Node2</title>
<g id="a_edge1_Node000001_Node000002"><a xlink:title=" ">
<path fill="none" stroke="#63b8ff" d="M253.93,-233.77C240.28,-266.15 212.31,-322.78 172,-357 165.31,-362.68 157.57,-367.54 149.54,-371.66"/>
<polygon fill="#63b8ff" stroke="#63b8ff" points="257.31,-234.75 257.86,-224.16 250.84,-232.1 257.31,-234.75"/>
</a>
</g>
</g>
<!-- Node3 -->
<g id="Node000003" class="node">
<title>Node3</title>
<g id="a_Node000003"><a xlink:href="classcxxopts_1_1exceptions_1_1incorrect__argument__type.html#a234feb9ae9c4c2e0060e743778af22bf" target="_top" xlink:title=" ">
<polygon fill="white" stroke="#666666" points="172,-347.5 0,-347.5 0,-306.5 172,-306.5 172,-347.5"/>
<text text-anchor="start" x="8" y="-335.5" font-family="Helvetica,sans-Serif" font-size="10.00">cxxopts::exceptions</text>
<text text-anchor="start" x="8" y="-324.5" font-family="Helvetica,sans-Serif" font-size="10.00">::incorrect_argument</text>
<text text-anchor="middle" x="86" y="-313.5" font-family="Helvetica,sans-Serif" font-size="10.00">_type::incorrect_argument_type</text>
</a>
</g>
</g>
<!-- Node1&#45;&gt;Node3 -->
<g id="edge2_Node000001_Node000003" class="edge">
<title>Node1&#45;&gt;Node3</title>
<g id="a_edge2_Node000001_Node000003"><a xlink:title=" ">
<path fill="none" stroke="#63b8ff" d="M245.29,-231.7C228.23,-251.65 201.06,-280.18 172,-298 166.95,-301.1 161.53,-303.91 155.95,-306.47"/>
<polygon fill="#63b8ff" stroke="#63b8ff" points="248,-233.91 251.74,-224 242.64,-229.42 248,-233.91"/>
</a>
</g>
</g>
<!-- Node4 -->
<g id="Node000004" class="node">
<title>Node4</title>
<g id="a_Node000004"><a xlink:href="classcxxopts_1_1exceptions_1_1invalid__option__syntax.html#a023b78b16ff3b18c19aff7ac1a3bd266" target="_top" xlink:title=" ">
<polygon fill="white" stroke="#666666" points="151,-288.5 21,-288.5 21,-247.5 151,-247.5 151,-288.5"/>
<text text-anchor="start" x="29" y="-276.5" font-family="Helvetica,sans-Serif" font-size="10.00">cxxopts::exceptions</text>
<text text-anchor="start" x="29" y="-265.5" font-family="Helvetica,sans-Serif" font-size="10.00">::invalid_option_syntax</text>
<text text-anchor="middle" x="86" y="-254.5" font-family="Helvetica,sans-Serif" font-size="10.00">::invalid_option_syntax</text>
</a>
</g>
</g>
<!-- Node1&#45;&gt;Node4 -->
<g id="edge3_Node000001_Node000004" class="edge">
<title>Node1&#45;&gt;Node4</title>
<g id="a_edge3_Node000001_Node000004"><a xlink:title=" ">
<path fill="none" stroke="#63b8ff" d="M208.77,-227.29C189.69,-233.67 168.16,-240.87 148.56,-247.42"/>
<polygon fill="#63b8ff" stroke="#63b8ff" points="210.13,-230.53 218.5,-224.04 207.91,-223.89 210.13,-230.53"/>
</a>
</g>
</g>
<!-- Node5 -->
<g id="Node000005" class="node">
<title>Node5</title>
<g id="a_Node000005"><a xlink:href="classcxxopts_1_1exceptions_1_1missing__argument.html#ab02c55fc0dc1c6183c869b73d3b59a4c" target="_top" xlink:title=" ">
<polygon fill="white" stroke="#666666" points="145.5,-229.5 26.5,-229.5 26.5,-188.5 145.5,-188.5 145.5,-229.5"/>
<text text-anchor="start" x="34.5" y="-217.5" font-family="Helvetica,sans-Serif" font-size="10.00">cxxopts::exceptions</text>
<text text-anchor="start" x="34.5" y="-206.5" font-family="Helvetica,sans-Serif" font-size="10.00">::missing_argument::</text>
<text text-anchor="middle" x="86" y="-195.5" font-family="Helvetica,sans-Serif" font-size="10.00">missing_argument</text>
</a>
</g>
</g>
<!-- Node1&#45;&gt;Node5 -->
<g id="edge4_Node000001_Node000005" class="edge">
<title>Node1&#45;&gt;Node5</title>
<g id="a_edge4_Node000001_Node000005"><a xlink:title=" ">
<path fill="none" stroke="#63b8ff" d="M197.25,-209C180.25,-209 162.1,-209 145.53,-209"/>
<polygon fill="#63b8ff" stroke="#63b8ff" points="197.65,-212.5 207.65,-209 197.65,-205.5 197.65,-212.5"/>
</a>
</g>
</g>
<!-- Node6 -->
<g id="Node000006" class="node">
<title>Node6</title>
<g id="a_Node000006"><a xlink:href="classcxxopts_1_1exceptions_1_1no__such__option.html#ae4982f66fe07b50b9a3f27b8a329d148" target="_top" xlink:title=" ">
<polygon fill="white" stroke="#666666" points="144,-170.5 28,-170.5 28,-129.5 144,-129.5 144,-170.5"/>
<text text-anchor="start" x="36" y="-158.5" font-family="Helvetica,sans-Serif" font-size="10.00">cxxopts::exceptions</text>
<text text-anchor="start" x="36" y="-147.5" font-family="Helvetica,sans-Serif" font-size="10.00">::no_such_option::no</text>
<text text-anchor="middle" x="86" y="-136.5" font-family="Helvetica,sans-Serif" font-size="10.00">_such_option</text>
</a>
</g>
</g>
<!-- Node1&#45;&gt;Node6 -->
<g id="edge5_Node000001_Node000006" class="edge">
<title>Node1&#45;&gt;Node6</title>
<g id="a_edge5_Node000001_Node000006"><a xlink:title=" ">
<path fill="none" stroke="#63b8ff" d="M208.99,-190.78C188.46,-183.91 165.06,-176.09 144.28,-169.15"/>
<polygon fill="#63b8ff" stroke="#63b8ff" points="207.91,-194.11 218.5,-193.96 210.13,-187.47 207.91,-194.11"/>
</a>
</g>
</g>
<!-- Node7 -->
<g id="Node000007" class="node">
<title>Node7</title>
<g id="a_Node000007"><a xlink:href="classcxxopts_1_1exceptions_1_1option__requires__argument.html#af10356dd998a4886dbfdf15ca7b68707" target="_top" xlink:title=" ">
<polygon fill="white" stroke="#666666" points="161.5,-111.5 10.5,-111.5 10.5,-70.5 161.5,-70.5 161.5,-111.5"/>
<text text-anchor="start" x="18.5" y="-99.5" font-family="Helvetica,sans-Serif" font-size="10.00">cxxopts::exceptions</text>
<text text-anchor="start" x="18.5" y="-88.5" font-family="Helvetica,sans-Serif" font-size="10.00">::option_requires_argument</text>
<text text-anchor="middle" x="86" y="-77.5" font-family="Helvetica,sans-Serif" font-size="10.00">::option_requires_argument</text>
</a>
</g>
</g>
<!-- Node1&#45;&gt;Node7 -->
<g id="edge6_Node000001_Node000007" class="edge">
<title>Node1&#45;&gt;Node7</title>
<g id="a_edge6_Node000001_Node000007"><a xlink:title=" ">
<path fill="none" stroke="#63b8ff" d="M244.67,-186.03C227.51,-166.4 200.56,-138.61 172,-121 166.41,-117.55 160.36,-114.42 154.16,-111.61"/>
<polygon fill="#63b8ff" stroke="#63b8ff" points="242.24,-188.57 251.4,-193.89 247.55,-184.02 242.24,-188.57"/>
</a>
</g>
</g>
<!-- Node8 -->
<g id="Node000008" class="node">
<title>Node8</title>
<g id="a_Node000008"><a xlink:href="classcxxopts_1_1exceptions_1_1requested__option__not__present.html#aaf93c05e24c49edab256858dc61d8d16" target="_top" xlink:title=" ">
<polygon fill="white" stroke="#666666" points="160.5,-52 11.5,-52 11.5,0 160.5,0 160.5,-52"/>
<text text-anchor="start" x="19.5" y="-40" font-family="Helvetica,sans-Serif" font-size="10.00">cxxopts::exceptions</text>
<text text-anchor="start" x="19.5" y="-29" font-family="Helvetica,sans-Serif" font-size="10.00">::requested_option_not</text>
<text text-anchor="start" x="19.5" y="-18" font-family="Helvetica,sans-Serif" font-size="10.00">_present::requested_option</text>
<text text-anchor="middle" x="86" y="-7" font-family="Helvetica,sans-Serif" font-size="10.00">_not_present</text>
</a>
</g>
</g>
<!-- Node1&#45;&gt;Node8 -->
<g id="edge7_Node000001_Node000008" class="edge">
<title>Node1&#45;&gt;Node8</title>
<g id="a_edge7_Node000001_Node000008"><a xlink:title=" ">
<path fill="none" stroke="#63b8ff" d="M253.84,-184.46C240.08,-152.36 212,-96.19 172,-62 167.74,-58.36 163.05,-55.03 158.14,-52.02"/>
<polygon fill="#63b8ff" stroke="#63b8ff" points="250.73,-186.09 257.8,-193.98 257.19,-183.4 250.73,-186.09"/>
</a>
</g>
</g>
</g>
</svg>
