<?xml version="1.0" encoding="UTF-8" standalone="no"?>
<!DOCTYPE svg PUBLIC "-//W3C//DTD SVG 1.1//EN"
 "http://www.w3.org/Graphics/SVG/1.1/DTD/svg11.dtd">
<!-- Generated by graphviz version 2.43.0 (0)
 -->
<!-- Title: detail::to_utf8&lt; WChar, Buffer &gt; Pages: 1 -->
<svg width="178pt" height="237pt"
 viewBox="0.00 0.00 178.00 237.00" xmlns="http://www.w3.org/2000/svg" xmlns:xlink="http://www.w3.org/1999/xlink">
<g id="graph0" class="graph" transform="scale(1 1) rotate(0) translate(4 233)">
<title>detail::to_utf8&lt; WChar, Buffer &gt;</title>
<!-- Node1 -->
<g id="Node000001" class="node">
<title>Node1</title>
<g id="a_Node000001"><a xlink:title=" ">
<polygon fill="#999999" stroke="#666666" points="131,-30 0,-30 0,0 131,0 131,-30"/>
<text text-anchor="start" x="8" y="-18" font-family="Helvetica,sans-Serif" font-size="10.00">detail::to_utf8&lt; WChar,</text>
<text text-anchor="middle" x="65.5" y="-7" font-family="Helvetica,sans-Serif" font-size="10.00"> Buffer &gt;</text>
</a>
</g>
</g>
<!-- Node2 -->
<g id="Node000002" class="node">
<title>Node2</title>
<g id="a_Node000002"><a xlink:href="classbasic__memory__buffer.html" target="_top" xlink:title=" ">
<polygon fill="white" stroke="#666666" points="126.5,-107 4.5,-107 4.5,-77 126.5,-77 126.5,-107"/>
<text text-anchor="start" x="12.5" y="-95" font-family="Helvetica,sans-Serif" font-size="10.00">basic_memory_buffer</text>
<text text-anchor="middle" x="65.5" y="-84" font-family="Helvetica,sans-Serif" font-size="10.00">&lt; T, SIZE, Allocator &gt;</text>
</a>
</g>
</g>
<!-- Node2&#45;&gt;Node1 -->
<g id="edge1_Node000001_Node000002" class="edge">
<title>Node2&#45;&gt;Node1</title>
<g id="a_edge1_Node000001_Node000002"><a xlink:title=" ">
<path fill="none" stroke="#9a32cd" stroke-dasharray="5,2" d="M65.5,-66.54C65.5,-54.45 65.5,-40.29 65.5,-30.04"/>
<polygon fill="#9a32cd" stroke="#9a32cd" points="62,-66.89 65.5,-76.89 69,-66.89 62,-66.89"/>
</a>
</g>
<text text-anchor="middle" x="84" y="-51" font-family="Helvetica,sans-Serif" font-size="10.00" fill="grey"> buffer_</text>
</g>
<!-- Node3 -->
<g id="Node000003" class="node">
<title>Node3</title>
<g id="a_Node000003"><a xlink:href="classdetail_1_1buffer.html" target="_top" xlink:title=" ">
<polygon fill="white" stroke="#666666" points="119,-163 12,-163 12,-144 119,-144 119,-163"/>
<text text-anchor="middle" x="65.5" y="-151" font-family="Helvetica,sans-Serif" font-size="10.00">detail::buffer&lt; T &gt;</text>
</a>
</g>
</g>
<!-- Node3&#45;&gt;Node2 -->
<g id="edge2_Node000002_Node000003" class="edge">
<title>Node3&#45;&gt;Node2</title>
<g id="a_edge2_Node000002_Node000003"><a xlink:title=" ">
<path fill="none" stroke="#63b8ff" d="M65.5,-133.73C65.5,-125.09 65.5,-115 65.5,-107.02"/>
<polygon fill="#63b8ff" stroke="#63b8ff" points="62,-133.98 65.5,-143.98 69,-133.98 62,-133.98"/>
</a>
</g>
</g>
<!-- Node4 -->
<g id="Node000004" class="node">
<title>Node4</title>
<g id="a_Node000004"><a xlink:href="classdetail_1_1buffer.html" target="_top" xlink:title=" ">
<polygon fill="white" stroke="#666666" points="119,-229 12,-229 12,-210 119,-210 119,-229"/>
<text text-anchor="middle" x="65.5" y="-217" font-family="Helvetica,sans-Serif" font-size="10.00">detail::buffer&lt; T &gt;</text>
</a>
</g>
</g>
<!-- Node4&#45;&gt;Node3 -->
<g id="edge3_Node000003_Node000004" class="edge">
<title>Node4&#45;&gt;Node3</title>
<g id="a_edge3_Node000003_Node000004"><a xlink:title=" ">
<path fill="none" stroke="#9a32cd" stroke-dasharray="5,2" d="M65.5,-199.58C65.5,-187.63 65.5,-172.72 65.5,-163.41"/>
<polygon fill="#9a32cd" stroke="#9a32cd" points="62,-199.87 65.5,-209.87 69,-199.87 62,-199.87"/>
</a>
</g>
<text text-anchor="middle" x="82" y="-184" font-family="Helvetica,sans-Serif" font-size="10.00" fill="grey"> grow_</text>
</g>
<!-- Node4&#45;&gt;Node4 -->
<g id="edge4_Node000004_Node000004" class="edge">
<title>Node4&#45;&gt;Node4</title>
<g id="a_edge4_Node000004_Node000004"><a xlink:title=" ">
<path fill="none" stroke="#9a32cd" stroke-dasharray="5,2" d="M129.38,-223.96C134.1,-222.96 137,-221.47 137,-219.5 137,-216.34 129.58,-214.43 119.13,-213.77"/>
<polygon fill="#9a32cd" stroke="#9a32cd" points="128.62,-220.53 119.13,-225.23 129.49,-227.47 128.62,-220.53"/>
</a>
</g>
<text text-anchor="middle" x="153.5" y="-217" font-family="Helvetica,sans-Serif" font-size="10.00" fill="grey"> grow_</text>
</g>
</g>
</svg>
