<?xml version="1.0" encoding="UTF-8" standalone="no"?>
<!DOCTYPE svg PUBLIC "-//W3C//DTD SVG 1.1//EN"
 "http://www.w3.org/Graphics/SVG/1.1/DTD/svg11.dtd">
<!-- Generated by graphviz version 2.43.0 (0)
 -->
<!-- Title: cxxopts::Options::add_option Pages: 1 -->
<svg width="623pt" height="364pt"
 viewBox="0.00 0.00 623.00 363.50" xmlns="http://www.w3.org/2000/svg" xmlns:xlink="http://www.w3.org/1999/xlink">
<g id="graph0" class="graph" transform="scale(1 1) rotate(0) translate(4 359.5)">
<title>cxxopts::Options::add_option</title>
<!-- Node1 -->
<g id="Node000001" class="node">
<title>Node1</title>
<g id="a_Node000001"><a xlink:title=" ">
<polygon fill="#999999" stroke="#666666" points="122,-187.5 0,-187.5 0,-157.5 122,-157.5 122,-187.5"/>
<text text-anchor="start" x="8" y="-175.5" font-family="Helvetica,sans-Serif" font-size="10.00">cxxopts::Options::add</text>
<text text-anchor="middle" x="61" y="-164.5" font-family="Helvetica,sans-Serif" font-size="10.00">_option</text>
</a>
</g>
</g>
<!-- Node2 -->
<g id="Node000002" class="node">
<title>Node2</title>
<g id="a_Node000002"><a xlink:href="classcxxopts_1_1Options.html#a353100b81684422664822103672a841a" target="_top" xlink:title=" ">
<polygon fill="white" stroke="#666666" points="280,-187.5 158,-187.5 158,-157.5 280,-157.5 280,-187.5"/>
<text text-anchor="start" x="166" y="-175.5" font-family="Helvetica,sans-Serif" font-size="10.00">cxxopts::Options::add</text>
<text text-anchor="middle" x="219" y="-164.5" font-family="Helvetica,sans-Serif" font-size="10.00">_option</text>
</a>
</g>
</g>
<!-- Node1&#45;&gt;Node2 -->
<g id="edge1_Node000001_Node000002" class="edge">
<title>Node1&#45;&gt;Node2</title>
<g id="a_edge1_Node000001_Node000002"><a xlink:title=" ">
<path fill="none" stroke="#63b8ff" d="M122.31,-172.5C130.6,-172.5 139.17,-172.5 147.63,-172.5"/>
<polygon fill="#63b8ff" stroke="#63b8ff" points="147.85,-176 157.85,-172.5 147.85,-169 147.85,-176"/>
</a>
</g>
</g>
<!-- Node3 -->
<g id="Node000003" class="node">
<title>Node3</title>
<g id="a_Node000003"><a xlink:href="classcxxopts_1_1Options.html#a6a7ca6845bfe17a801b0c3f229655f42" target="_top" xlink:title=" ">
<polygon fill="white" stroke="#666666" points="439,-355.5 317,-355.5 317,-325.5 439,-325.5 439,-355.5"/>
<text text-anchor="start" x="325" y="-343.5" font-family="Helvetica,sans-Serif" font-size="10.00">cxxopts::Options::add</text>
<text text-anchor="middle" x="378" y="-332.5" font-family="Helvetica,sans-Serif" font-size="10.00">_one_option</text>
</a>
</g>
</g>
<!-- Node2&#45;&gt;Node3 -->
<g id="edge2_Node000002_Node000003" class="edge">
<title>Node2&#45;&gt;Node3</title>
<g id="a_edge2_Node000002_Node000003"><a xlink:title=" ">
<path fill="none" stroke="#63b8ff" d="M226.38,-187.76C239.22,-216.73 270.87,-280.09 316,-316.5 317.56,-317.76 319.2,-318.96 320.89,-320.1"/>
<polygon fill="#63b8ff" stroke="#63b8ff" points="319.35,-323.26 329.74,-325.35 322.92,-317.24 319.35,-323.26"/>
</a>
</g>
</g>
<!-- Node5 -->
<g id="Node000005" class="node">
<title>Node5</title>
<g id="a_Node000005"><a xlink:href="classcxxopts_1_1Value.html#a25ac95c499771a6f5ca295e01452f380" target="_top" xlink:title=" ">
<polygon fill="white" stroke="#666666" points="432.5,-307.5 323.5,-307.5 323.5,-277.5 432.5,-277.5 432.5,-307.5"/>
<text text-anchor="start" x="331.5" y="-295.5" font-family="Helvetica,sans-Serif" font-size="10.00">cxxopts::Value::get</text>
<text text-anchor="middle" x="378" y="-284.5" font-family="Helvetica,sans-Serif" font-size="10.00">_default_value</text>
</a>
</g>
</g>
<!-- Node2&#45;&gt;Node5 -->
<g id="edge4_Node000002_Node000005" class="edge">
<title>Node2&#45;&gt;Node5</title>
<g id="a_edge4_Node000002_Node000005"><a xlink:title=" ">
<path fill="none" stroke="#63b8ff" d="M231.82,-187.75C248.57,-208.49 281.11,-245.63 316,-268.5 318.29,-270 320.68,-271.43 323.14,-272.78"/>
<polygon fill="#63b8ff" stroke="#63b8ff" points="321.77,-276.01 332.28,-277.4 324.93,-269.77 321.77,-276.01"/>
</a>
</g>
</g>
<!-- Node6 -->
<g id="Node000006" class="node">
<title>Node6</title>
<g id="a_Node000006"><a xlink:href="classcxxopts_1_1Value.html#a436f0a8a6621de420088839f4c728230" target="_top" xlink:title=" ">
<polygon fill="white" stroke="#666666" points="432.5,-259.5 323.5,-259.5 323.5,-229.5 432.5,-229.5 432.5,-259.5"/>
<text text-anchor="start" x="331.5" y="-247.5" font-family="Helvetica,sans-Serif" font-size="10.00">cxxopts::Value::get</text>
<text text-anchor="middle" x="378" y="-236.5" font-family="Helvetica,sans-Serif" font-size="10.00">_implicit_value</text>
</a>
</g>
</g>
<!-- Node2&#45;&gt;Node6 -->
<g id="edge5_Node000002_Node000006" class="edge">
<title>Node2&#45;&gt;Node6</title>
<g id="a_edge5_Node000002_Node000006"><a xlink:title=" ">
<path fill="none" stroke="#63b8ff" d="M248.67,-187.67C267.58,-197.47 293.02,-210.26 316,-220.5 319.8,-222.19 323.76,-223.89 327.76,-225.56"/>
<polygon fill="#63b8ff" stroke="#63b8ff" points="326.5,-228.83 337.08,-229.38 329.16,-222.35 326.5,-228.83"/>
</a>
</g>
</g>
<!-- Node7 -->
<g id="Node000007" class="node">
<title>Node7</title>
<g id="a_Node000007"><a xlink:href="classcxxopts_1_1Value.html#aac3233a0414ac39d54ed0b98365afc7e" target="_top" xlink:title=" ">
<polygon fill="white" stroke="#666666" points="433,-211.5 323,-211.5 323,-181.5 433,-181.5 433,-211.5"/>
<text text-anchor="start" x="331" y="-199.5" font-family="Helvetica,sans-Serif" font-size="10.00">cxxopts::Value::has</text>
<text text-anchor="middle" x="378" y="-188.5" font-family="Helvetica,sans-Serif" font-size="10.00">_default</text>
</a>
</g>
</g>
<!-- Node2&#45;&gt;Node7 -->
<g id="edge6_Node000002_Node000007" class="edge">
<title>Node2&#45;&gt;Node7</title>
<g id="a_edge6_Node000002_Node000007"><a xlink:title=" ">
<path fill="none" stroke="#63b8ff" d="M280.25,-181.71C290.87,-183.33 301.95,-185.03 312.68,-186.67"/>
<polygon fill="#63b8ff" stroke="#63b8ff" points="312.4,-190.17 322.82,-188.22 313.46,-183.25 312.4,-190.17"/>
</a>
</g>
</g>
<!-- Node8 -->
<g id="Node000008" class="node">
<title>Node8</title>
<g id="a_Node000008"><a xlink:href="classcxxopts_1_1Value.html#aac3425b87db8ef41157892449999b183" target="_top" xlink:title=" ">
<polygon fill="white" stroke="#666666" points="433,-163.5 323,-163.5 323,-133.5 433,-133.5 433,-163.5"/>
<text text-anchor="start" x="331" y="-151.5" font-family="Helvetica,sans-Serif" font-size="10.00">cxxopts::Value::has</text>
<text text-anchor="middle" x="378" y="-140.5" font-family="Helvetica,sans-Serif" font-size="10.00">_implicit</text>
</a>
</g>
</g>
<!-- Node2&#45;&gt;Node8 -->
<g id="edge7_Node000002_Node000008" class="edge">
<title>Node2&#45;&gt;Node8</title>
<g id="a_edge7_Node000002_Node000008"><a xlink:title=" ">
<path fill="none" stroke="#63b8ff" d="M280.25,-163.29C290.87,-161.67 301.95,-159.97 312.68,-158.33"/>
<polygon fill="#63b8ff" stroke="#63b8ff" points="313.46,-161.75 322.82,-156.78 312.4,-154.83 313.46,-161.75"/>
</a>
</g>
</g>
<!-- Node9 -->
<g id="Node000009" class="node">
<title>Node9</title>
<g id="a_Node000009"><a xlink:href="classcxxopts_1_1Value.html#a77a4a731bcbbd95afca43f82affe5aaa" target="_top" xlink:title=" ">
<polygon fill="white" stroke="#666666" points="428.5,-115.5 327.5,-115.5 327.5,-85.5 428.5,-85.5 428.5,-115.5"/>
<text text-anchor="start" x="335.5" y="-103.5" font-family="Helvetica,sans-Serif" font-size="10.00">cxxopts::Value::is</text>
<text text-anchor="middle" x="378" y="-92.5" font-family="Helvetica,sans-Serif" font-size="10.00">_boolean</text>
</a>
</g>
</g>
<!-- Node2&#45;&gt;Node9 -->
<g id="edge8_Node000002_Node000009" class="edge">
<title>Node2&#45;&gt;Node9</title>
<g id="a_edge8_Node000002_Node000009"><a xlink:title=" ">
<path fill="none" stroke="#63b8ff" d="M248.67,-157.33C267.58,-147.53 293.02,-134.74 316,-124.5 319.8,-122.81 323.76,-121.11 327.76,-119.44"/>
<polygon fill="#63b8ff" stroke="#63b8ff" points="329.16,-122.65 337.08,-115.62 326.5,-116.17 329.16,-122.65"/>
</a>
</g>
</g>
<!-- Node10 -->
<g id="Node000010" class="node">
<title>Node10</title>
<g id="a_Node000010"><a xlink:href="classcxxopts_1_1Value.html#a632f3263dd598e30999a6bcff0652132" target="_top" xlink:title=" ">
<polygon fill="white" stroke="#666666" points="428.5,-67.5 327.5,-67.5 327.5,-37.5 428.5,-37.5 428.5,-67.5"/>
<text text-anchor="start" x="335.5" y="-55.5" font-family="Helvetica,sans-Serif" font-size="10.00">cxxopts::Value::is</text>
<text text-anchor="middle" x="378" y="-44.5" font-family="Helvetica,sans-Serif" font-size="10.00">_container</text>
</a>
</g>
</g>
<!-- Node2&#45;&gt;Node10 -->
<g id="edge9_Node000002_Node000010" class="edge">
<title>Node2&#45;&gt;Node10</title>
<g id="a_edge9_Node000002_Node000010"><a xlink:title=" ">
<path fill="none" stroke="#63b8ff" d="M231.82,-157.25C248.57,-136.51 281.11,-99.37 316,-76.5 318.29,-75 320.68,-73.57 323.14,-72.22"/>
<polygon fill="#63b8ff" stroke="#63b8ff" points="324.93,-75.23 332.28,-67.6 321.77,-68.99 324.93,-75.23"/>
</a>
</g>
</g>
<!-- Node11 -->
<g id="Node000011" class="node">
<title>Node11</title>
<g id="a_Node000011"><a xlink:href="namespacecxxopts.html#ac8ee50fdeb30245d157343a3bade9ede" target="_top" xlink:title=" ">
<polygon fill="white" stroke="#666666" points="440,-19 316,-19 316,0 440,0 440,-19"/>
<text text-anchor="middle" x="378" y="-7" font-family="Helvetica,sans-Serif" font-size="10.00">cxxopts::toLocalString</text>
</a>
</g>
</g>
<!-- Node2&#45;&gt;Node11 -->
<g id="edge10_Node000002_Node000011" class="edge">
<title>Node2&#45;&gt;Node11</title>
<g id="a_edge10_Node000002_Node000011"><a xlink:title=" ">
<path fill="none" stroke="#63b8ff" d="M225.95,-157.4C238.26,-128.11 269.33,-63.42 316,-28.5 318.5,-26.63 321.18,-24.95 323.98,-23.42"/>
<polygon fill="#63b8ff" stroke="#63b8ff" points="325.65,-26.51 333.22,-19.1 322.68,-20.17 325.65,-26.51"/>
</a>
</g>
</g>
<!-- Node4 -->
<g id="Node000004" class="node">
<title>Node4</title>
<g id="a_Node000004"><a xlink:href="namespacecxxopts.html#a466f47408560fa08e43bf48ec2366b22" target="_top" xlink:title=" ">
<polygon fill="white" stroke="#666666" points="615,-350 476,-350 476,-331 615,-331 615,-350"/>
<text text-anchor="middle" x="545.5" y="-338" font-family="Helvetica,sans-Serif" font-size="10.00">cxxopts::throw_or_mimic</text>
</a>
</g>
</g>
<!-- Node3&#45;&gt;Node4 -->
<g id="edge3_Node000003_Node000004" class="edge">
<title>Node3&#45;&gt;Node4</title>
<g id="a_edge3_Node000003_Node000004"><a xlink:title=" ">
<path fill="none" stroke="#63b8ff" d="M439.22,-340.5C447.88,-340.5 456.9,-340.5 465.85,-340.5"/>
<polygon fill="#63b8ff" stroke="#63b8ff" points="465.91,-344 475.91,-340.5 465.91,-337 465.91,-344"/>
</a>
</g>
</g>
</g>
</svg>
