<?xml version="1.0" encoding="UTF-8" standalone="no"?>
<!DOCTYPE svg PUBLIC "-//W3C//DTD SVG 1.1//EN"
 "http://www.w3.org/Graphics/SVG/1.1/DTD/svg11.dtd">
<!-- Generated by graphviz version 2.43.0 (0)
 -->
<!-- Title: detail::tm_writer::on_datetime Pages: 1 -->
<svg width="1037pt" height="569pt"
 viewBox="0.00 0.00 1037.00 569.00" xmlns="http://www.w3.org/2000/svg" xmlns:xlink="http://www.w3.org/1999/xlink">
<g id="graph0" class="graph" transform="scale(1 1) rotate(0) translate(4 565)">
<title>detail::tm_writer::on_datetime</title>
<!-- Node1 -->
<g id="Node000001" class="node">
<title>Node1</title>
<g id="a_Node000001"><a xlink:title=" ">
<polygon fill="#999999" stroke="#666666" points="104,-329 0,-329 0,-299 104,-299 104,-329"/>
<text text-anchor="start" x="8" y="-317" font-family="Helvetica,sans-Serif" font-size="10.00">detail::tm_writer::</text>
<text text-anchor="middle" x="52" y="-306" font-family="Helvetica,sans-Serif" font-size="10.00">on_datetime</text>
</a>
</g>
</g>
<!-- Node2 -->
<g id="Node000002" class="node">
<title>Node2</title>
<g id="a_Node000002"><a xlink:href="classdetail_1_1tm__writer.html#ab8f9095299300945a550e457b970f763" target="_top" xlink:title=" ">
<polygon fill="white" stroke="#666666" points="537,-383 433,-383 433,-353 537,-353 537,-383"/>
<text text-anchor="start" x="441" y="-371" font-family="Helvetica,sans-Serif" font-size="10.00">detail::tm_writer::</text>
<text text-anchor="middle" x="485" y="-360" font-family="Helvetica,sans-Serif" font-size="10.00">format_localized</text>
</a>
</g>
</g>
<!-- Node1&#45;&gt;Node2 -->
<g id="edge1_Node000001_Node000002" class="edge">
<title>Node1&#45;&gt;Node2</title>
<g id="a_edge1_Node000001_Node000002"><a xlink:title=" ">
<path fill="none" stroke="#63b8ff" d="M104.06,-312.63C115.86,-312.37 128.37,-312.13 140,-312 186.66,-311.46 198.5,-308.04 245,-312 307.9,-317.35 323.7,-320.92 385,-336 400.54,-339.82 417.18,-344.83 432.3,-349.75"/>
<polygon fill="#63b8ff" stroke="#63b8ff" points="431.39,-353.14 441.99,-352.95 433.59,-346.49 431.39,-353.14"/>
</a>
</g>
</g>
<!-- Node3 -->
<g id="Node000003" class="node">
<title>Node3</title>
<g id="a_Node000003"><a xlink:href="classdetail_1_1tm__writer.html#a20af039c85605e8764b9efd0417e2b12" target="_top" xlink:title=" ">
<polygon fill="white" stroke="#666666" points="244.5,-437 140.5,-437 140.5,-407 244.5,-407 244.5,-437"/>
<text text-anchor="start" x="148.5" y="-425" font-family="Helvetica,sans-Serif" font-size="10.00">detail::tm_writer::</text>
<text text-anchor="middle" x="192.5" y="-414" font-family="Helvetica,sans-Serif" font-size="10.00">on_abbr_month</text>
</a>
</g>
</g>
<!-- Node1&#45;&gt;Node3 -->
<g id="edge2_Node000001_Node000003" class="edge">
<title>Node1&#45;&gt;Node3</title>
<g id="a_edge2_Node000001_Node000003"><a xlink:title=" ">
<path fill="none" stroke="#63b8ff" d="M72.26,-329.02C96.1,-347.61 136.88,-379.41 164.01,-400.57"/>
<polygon fill="#63b8ff" stroke="#63b8ff" points="161.92,-403.37 171.96,-406.76 166.23,-397.85 161.92,-403.37"/>
</a>
</g>
</g>
<!-- Node5 -->
<g id="Node000005" class="node">
<title>Node5</title>
<g id="a_Node000005"><a xlink:href="classdetail_1_1tm__writer.html#a3220714c4f548444f3ea7dbcdcd906c5" target="_top" xlink:title=" ">
<polygon fill="white" stroke="#666666" points="245,-518 140,-518 140,-488 245,-488 245,-518"/>
<text text-anchor="start" x="148" y="-506" font-family="Helvetica,sans-Serif" font-size="10.00">detail::tm_writer::</text>
<text text-anchor="middle" x="192.5" y="-495" font-family="Helvetica,sans-Serif" font-size="10.00">on_abbr_weekday</text>
</a>
</g>
</g>
<!-- Node1&#45;&gt;Node5 -->
<g id="edge5_Node000001_Node000005" class="edge">
<title>Node1&#45;&gt;Node5</title>
<g id="a_edge5_Node000001_Node000005"><a xlink:title=" ">
<path fill="none" stroke="#63b8ff" d="M61.95,-329.16C76.98,-354.24 108.75,-405.63 140,-446 149.11,-457.77 160.06,-470.1 169.51,-480.28"/>
<polygon fill="#63b8ff" stroke="#63b8ff" points="167,-482.71 176.4,-487.59 172.09,-477.91 167,-482.71"/>
</a>
</g>
</g>
<!-- Node7 -->
<g id="Node000007" class="node">
<title>Node7</title>
<g id="a_Node000007"><a xlink:href="classdetail_1_1tm__writer.html#a766dd2eed8f3d3c527391b6159592fe1" target="_top" xlink:title=" ">
<polygon fill="white" stroke="#666666" points="244.5,-351 140.5,-351 140.5,-321 244.5,-321 244.5,-351"/>
<text text-anchor="start" x="148.5" y="-339" font-family="Helvetica,sans-Serif" font-size="10.00">detail::tm_writer::</text>
<text text-anchor="middle" x="192.5" y="-328" font-family="Helvetica,sans-Serif" font-size="10.00">on_day_of_month</text>
</a>
</g>
</g>
<!-- Node1&#45;&gt;Node7 -->
<g id="edge8_Node000001_Node000007" class="edge">
<title>Node1&#45;&gt;Node7</title>
<g id="a_edge8_Node000001_Node000007"><a xlink:title=" ">
<path fill="none" stroke="#63b8ff" d="M104.18,-322.13C112.6,-323.47 121.4,-324.86 130.04,-326.24"/>
<polygon fill="#63b8ff" stroke="#63b8ff" points="129.64,-329.72 140.07,-327.83 130.74,-322.8 129.64,-329.72"/>
</a>
</g>
</g>
<!-- Node9 -->
<g id="Node000009" class="node">
<title>Node9</title>
<g id="a_Node000009"><a xlink:href="classdetail_1_1tm__writer.html#a4a0487e028e1502e59e0f29f896ff740" target="_top" xlink:title=" ">
<polygon fill="white" stroke="#666666" points="244.5,-227 140.5,-227 140.5,-197 244.5,-197 244.5,-227"/>
<text text-anchor="start" x="148.5" y="-215" font-family="Helvetica,sans-Serif" font-size="10.00">detail::tm_writer::</text>
<text text-anchor="middle" x="192.5" y="-204" font-family="Helvetica,sans-Serif" font-size="10.00">on_iso_time</text>
</a>
</g>
</g>
<!-- Node1&#45;&gt;Node9 -->
<g id="edge11_Node000001_Node000009" class="edge">
<title>Node1&#45;&gt;Node9</title>
<g id="a_edge11_Node000001_Node000009"><a xlink:title=" ">
<path fill="none" stroke="#63b8ff" d="M73.44,-298.95C97.06,-281.55 136.12,-252.79 162.79,-233.14"/>
<polygon fill="#63b8ff" stroke="#63b8ff" points="165,-235.86 170.98,-227.11 160.85,-230.22 165,-235.86"/>
</a>
</g>
</g>
<!-- Node25 -->
<g id="Node000025" class="node">
<title>Node25</title>
<g id="a_Node000025"><a xlink:href="classdetail_1_1tm__writer.html#ac00a57863b399a1d7f02bed57867e4d7" target="_top" xlink:title=" ">
<polygon fill="white" stroke="#666666" points="244.5,-139 140.5,-139 140.5,-109 244.5,-109 244.5,-139"/>
<text text-anchor="start" x="148.5" y="-127" font-family="Helvetica,sans-Serif" font-size="10.00">detail::tm_writer::</text>
<text text-anchor="middle" x="192.5" y="-116" font-family="Helvetica,sans-Serif" font-size="10.00">on_year</text>
</a>
</g>
</g>
<!-- Node1&#45;&gt;Node25 -->
<g id="edge28_Node000001_Node000025" class="edge">
<title>Node1&#45;&gt;Node25</title>
<g id="a_edge28_Node000001_Node000025"><a xlink:title=" ">
<path fill="none" stroke="#63b8ff" d="M63.09,-298.62C78.95,-274.62 110.91,-226.99 140,-188 150.39,-174.07 162.56,-158.9 172.46,-146.82"/>
<polygon fill="#63b8ff" stroke="#63b8ff" points="175.24,-148.95 178.9,-139.01 169.84,-144.5 175.24,-148.95"/>
</a>
</g>
</g>
<!-- Node3&#45;&gt;Node2 -->
<g id="edge3_Node000003_Node000002" class="edge">
<title>Node3&#45;&gt;Node2</title>
<g id="a_edge3_Node000003_Node000002"><a xlink:title=" ">
<path fill="none" stroke="#63b8ff" d="M232.72,-437C272.2,-449.79 334.35,-463.56 385,-446 416.62,-435.04 445.79,-409.34 464.15,-390.42"/>
<polygon fill="#63b8ff" stroke="#63b8ff" points="466.8,-392.72 471.11,-383.04 461.7,-387.92 466.8,-392.72"/>
</a>
</g>
</g>
<!-- Node4 -->
<g id="Node000004" class="node">
<title>Node4</title>
<g id="a_Node000004"><a xlink:href="classdetail_1_1tm__writer.html#a552699b68cca33b8a1e2f9fd4273a848" target="_top" xlink:title=" ">
<polygon fill="white" stroke="#666666" points="385,-437 281,-437 281,-407 385,-407 385,-437"/>
<text text-anchor="start" x="289" y="-425" font-family="Helvetica,sans-Serif" font-size="10.00">detail::tm_writer::</text>
<text text-anchor="middle" x="333" y="-414" font-family="Helvetica,sans-Serif" font-size="10.00">tm_mon</text>
</a>
</g>
</g>
<!-- Node3&#45;&gt;Node4 -->
<g id="edge4_Node000003_Node000004" class="edge">
<title>Node3&#45;&gt;Node4</title>
<g id="a_edge4_Node000003_Node000004"><a xlink:title=" ">
<path fill="none" stroke="#63b8ff" d="M244.68,-422C253.1,-422 261.9,-422 270.54,-422"/>
<polygon fill="#63b8ff" stroke="#63b8ff" points="270.57,-425.5 280.57,-422 270.57,-418.5 270.57,-425.5"/>
</a>
</g>
</g>
<!-- Node5&#45;&gt;Node2 -->
<g id="edge6_Node000005_Node000002" class="edge">
<title>Node5&#45;&gt;Node2</title>
<g id="a_edge6_Node000005_Node000002"><a xlink:title=" ">
<path fill="none" stroke="#63b8ff" d="M245.33,-500.35C285.45,-496.48 341.34,-487.04 385,-464 418.8,-446.17 448.93,-413.26 466.84,-391"/>
<polygon fill="#63b8ff" stroke="#63b8ff" points="469.66,-393.07 473.08,-383.04 464.15,-388.75 469.66,-393.07"/>
</a>
</g>
</g>
<!-- Node6 -->
<g id="Node000006" class="node">
<title>Node6</title>
<g id="a_Node000006"><a xlink:href="classdetail_1_1tm__writer.html#a1b267d2dee9041f4858847d49d87dabf" target="_top" xlink:title=" ">
<polygon fill="white" stroke="#666666" points="385,-561 281,-561 281,-531 385,-531 385,-561"/>
<text text-anchor="start" x="289" y="-549" font-family="Helvetica,sans-Serif" font-size="10.00">detail::tm_writer::</text>
<text text-anchor="middle" x="333" y="-538" font-family="Helvetica,sans-Serif" font-size="10.00">tm_wday</text>
</a>
</g>
</g>
<!-- Node5&#45;&gt;Node6 -->
<g id="edge7_Node000005_Node000006" class="edge">
<title>Node5&#45;&gt;Node6</title>
<g id="a_edge7_Node000005_Node000006"><a xlink:title=" ">
<path fill="none" stroke="#63b8ff" d="M241.94,-518.04C252.21,-521.23 263.16,-524.63 273.75,-527.92"/>
<polygon fill="#63b8ff" stroke="#63b8ff" points="272.76,-531.27 283.35,-530.9 274.84,-524.59 272.76,-531.27"/>
</a>
</g>
</g>
<!-- Node7&#45;&gt;Node2 -->
<g id="edge9_Node000007_Node000002" class="edge">
<title>Node7&#45;&gt;Node2</title>
<g id="a_edge9_Node000007_Node000002"><a xlink:title=" ">
<path fill="none" stroke="#63b8ff" d="M244.85,-338.26C283.5,-340.33 337.71,-343.99 385,-350 397.31,-351.56 410.4,-353.65 422.91,-355.84"/>
<polygon fill="#63b8ff" stroke="#63b8ff" points="422.32,-359.29 432.78,-357.61 423.56,-352.4 422.32,-359.29"/>
</a>
</g>
</g>
<!-- Node8 -->
<g id="Node000008" class="node">
<title>Node8</title>
<g id="a_Node000008"><a xlink:href="classdetail_1_1tm__writer.html#a315a3d867c7f3e1aaa567c45a65f04da" target="_top" xlink:title=" ">
<polygon fill="white" stroke="#666666" points="385,-389 281,-389 281,-359 385,-359 385,-389"/>
<text text-anchor="start" x="289" y="-377" font-family="Helvetica,sans-Serif" font-size="10.00">detail::tm_writer::</text>
<text text-anchor="middle" x="333" y="-366" font-family="Helvetica,sans-Serif" font-size="10.00">tm_mday</text>
</a>
</g>
</g>
<!-- Node7&#45;&gt;Node8 -->
<g id="edge10_Node000007_Node000008" class="edge">
<title>Node7&#45;&gt;Node8</title>
<g id="a_edge10_Node000007_Node000008"><a xlink:title=" ">
<path fill="none" stroke="#63b8ff" d="M244.68,-350.04C253.19,-352.38 262.09,-354.82 270.82,-357.21"/>
<polygon fill="#63b8ff" stroke="#63b8ff" points="270,-360.62 280.57,-359.89 271.85,-353.87 270,-360.62"/>
</a>
</g>
</g>
<!-- Node10 -->
<g id="Node000010" class="node">
<title>Node10</title>
<g id="a_Node000010"><a xlink:href="classdetail_1_1tm__writer.html#a563b39fdbd28a76257c855bfdca1d70a" target="_top" xlink:title=" ">
<polygon fill="white" stroke="#666666" points="385,-142 281,-142 281,-112 385,-112 385,-142"/>
<text text-anchor="start" x="289" y="-130" font-family="Helvetica,sans-Serif" font-size="10.00">detail::tm_writer::</text>
<text text-anchor="middle" x="333" y="-119" font-family="Helvetica,sans-Serif" font-size="10.00">on_24_hour_time</text>
</a>
</g>
</g>
<!-- Node9&#45;&gt;Node10 -->
<g id="edge12_Node000009_Node000010" class="edge">
<title>Node9&#45;&gt;Node10</title>
<g id="a_edge12_Node000009_Node000010"><a xlink:title=" ">
<path fill="none" stroke="#63b8ff" d="M217.94,-197C240.35,-183.25 273.73,-162.76 298.6,-147.5"/>
<polygon fill="#63b8ff" stroke="#63b8ff" points="300.64,-150.35 307.34,-142.14 296.98,-144.38 300.64,-150.35"/>
</a>
</g>
</g>
<!-- Node13 -->
<g id="Node000013" class="node">
<title>Node13</title>
<g id="a_Node000013"><a xlink:href="classdetail_1_1tm__writer.html#a57084e1a4311b7439ef4217fa3018285" target="_top" xlink:title=" ">
<polygon fill="white" stroke="#666666" points="385,-227 281,-227 281,-197 385,-197 385,-227"/>
<text text-anchor="start" x="289" y="-215" font-family="Helvetica,sans-Serif" font-size="10.00">detail::tm_writer::</text>
<text text-anchor="middle" x="333" y="-204" font-family="Helvetica,sans-Serif" font-size="10.00">on_second</text>
</a>
</g>
</g>
<!-- Node9&#45;&gt;Node13 -->
<g id="edge15_Node000009_Node000013" class="edge">
<title>Node9&#45;&gt;Node13</title>
<g id="a_edge15_Node000009_Node000013"><a xlink:title=" ">
<path fill="none" stroke="#63b8ff" d="M244.68,-212C253.1,-212 261.9,-212 270.54,-212"/>
<polygon fill="#63b8ff" stroke="#63b8ff" points="270.57,-215.5 280.57,-212 270.57,-208.5 270.57,-215.5"/>
</a>
</g>
</g>
<!-- Node11 -->
<g id="Node000011" class="node">
<title>Node11</title>
<g id="a_Node000011"><a xlink:href="classdetail_1_1tm__writer.html#a1cabc65ab2cc70f017f44a37c6ccb83e" target="_top" xlink:title=" ">
<polygon fill="white" stroke="#666666" points="537,-78 433,-78 433,-48 537,-48 537,-78"/>
<text text-anchor="start" x="441" y="-66" font-family="Helvetica,sans-Serif" font-size="10.00">detail::tm_writer::</text>
<text text-anchor="middle" x="485" y="-55" font-family="Helvetica,sans-Serif" font-size="10.00">tm_hour</text>
</a>
</g>
</g>
<!-- Node10&#45;&gt;Node11 -->
<g id="edge13_Node000010_Node000011" class="edge">
<title>Node10&#45;&gt;Node11</title>
<g id="a_edge13_Node000010_Node000011"><a xlink:title=" ">
<path fill="none" stroke="#63b8ff" d="M366.11,-111.96C386.32,-102.55 410.5,-91.41 421,-87 425.12,-85.27 429.41,-83.52 433.73,-81.8"/>
<polygon fill="#63b8ff" stroke="#63b8ff" points="435.14,-85.01 443.17,-78.1 432.59,-78.49 435.14,-85.01"/>
</a>
</g>
</g>
<!-- Node12 -->
<g id="Node000012" class="node">
<title>Node12</title>
<g id="a_Node000012"><a xlink:href="classdetail_1_1tm__writer.html#ab4c610dbee60f8ca391e2365848019ea" target="_top" xlink:title=" ">
<polygon fill="white" stroke="#666666" points="537,-126 433,-126 433,-96 537,-96 537,-126"/>
<text text-anchor="start" x="441" y="-114" font-family="Helvetica,sans-Serif" font-size="10.00">detail::tm_writer::</text>
<text text-anchor="middle" x="485" y="-103" font-family="Helvetica,sans-Serif" font-size="10.00">tm_min</text>
</a>
</g>
</g>
<!-- Node10&#45;&gt;Node12 -->
<g id="edge14_Node000010_Node000012" class="edge">
<title>Node10&#45;&gt;Node12</title>
<g id="a_edge14_Node000010_Node000012"><a xlink:title=" ">
<path fill="none" stroke="#63b8ff" d="M385.2,-121.54C397.2,-120.26 410.11,-118.88 422.51,-117.56"/>
<polygon fill="#63b8ff" stroke="#63b8ff" points="423.2,-121.01 432.77,-116.46 422.46,-114.04 423.2,-121.01"/>
</a>
</g>
</g>
<!-- Node13&#45;&gt;Node2 -->
<g id="edge25_Node000013_Node000002" class="edge">
<title>Node13&#45;&gt;Node2</title>
<g id="a_edge25_Node000013_Node000002"><a xlink:title=" ">
<path fill="none" stroke="#63b8ff" d="M368.41,-227.01C374.55,-230.87 380.43,-235.52 385,-241 416.05,-278.25 387.19,-309.24 421,-344 422.07,-345.1 423.2,-346.15 424.37,-347.16"/>
<polygon fill="#63b8ff" stroke="#63b8ff" points="422.54,-350.15 432.72,-353.11 426.61,-344.45 422.54,-350.15"/>
</a>
</g>
</g>
<!-- Node14 -->
<g id="Node000014" class="node">
<title>Node14</title>
<g id="a_Node000014"><a xlink:href="classbasic__memory__buffer.html#a7a9300acfadb00a835b36a86a198f433" target="_top" xlink:title=" ">
<polygon fill="white" stroke="#666666" points="549,-249 421,-249 421,-219 549,-219 549,-249"/>
<text text-anchor="start" x="429" y="-237" font-family="Helvetica,sans-Serif" font-size="10.00">basic_memory_buffer</text>
<text text-anchor="middle" x="485" y="-226" font-family="Helvetica,sans-Serif" font-size="10.00">::basic_memory_buffer</text>
</a>
</g>
</g>
<!-- Node13&#45;&gt;Node14 -->
<g id="edge16_Node000013_Node000014" class="edge">
<title>Node13&#45;&gt;Node14</title>
<g id="a_edge16_Node000013_Node000014"><a xlink:title=" ">
<path fill="none" stroke="#63b8ff" d="M385.2,-219.51C393.44,-220.72 402.1,-221.99 410.73,-223.25"/>
<polygon fill="#63b8ff" stroke="#63b8ff" points="410.42,-226.75 420.82,-224.73 411.44,-219.82 410.42,-226.75"/>
</a>
</g>
</g>
<!-- Node21 -->
<g id="Node000021" class="node">
<title>Node21</title>
<g id="a_Node000021"><a xlink:href="classdetail_1_1buffer.html#adf353302bef0b99c405ca999d07b39ed" target="_top" xlink:title=" ">
<polygon fill="white" stroke="#666666" points="541,-200.5 429,-200.5 429,-181.5 541,-181.5 541,-200.5"/>
<text text-anchor="middle" x="485" y="-188.5" font-family="Helvetica,sans-Serif" font-size="10.00">detail::buffer::begin</text>
</a>
</g>
</g>
<!-- Node13&#45;&gt;Node21 -->
<g id="edge23_Node000013_Node000021" class="edge">
<title>Node13&#45;&gt;Node21</title>
<g id="a_edge23_Node000013_Node000021"><a xlink:title=" ">
<path fill="none" stroke="#63b8ff" d="M385.2,-204.83C395.99,-203.32 407.51,-201.71 418.73,-200.14"/>
<polygon fill="#63b8ff" stroke="#63b8ff" points="419.51,-203.56 428.93,-198.71 418.54,-196.63 419.51,-203.56"/>
</a>
</g>
</g>
<!-- Node22 -->
<g id="Node000022" class="node">
<title>Node22</title>
<g id="a_Node000022"><a xlink:href="classdetail_1_1buffer.html#ac2b183d544845677a3b7d1137b17d16d" target="_top" xlink:title=" ">
<polygon fill="white" stroke="#666666" points="536.5,-163.5 433.5,-163.5 433.5,-144.5 536.5,-144.5 536.5,-163.5"/>
<text text-anchor="middle" x="485" y="-151.5" font-family="Helvetica,sans-Serif" font-size="10.00">detail::buffer::end</text>
</a>
</g>
</g>
<!-- Node13&#45;&gt;Node22 -->
<g id="edge24_Node000013_Node000022" class="edge">
<title>Node13&#45;&gt;Node22</title>
<g id="a_edge24_Node000013_Node000022"><a xlink:title=" ">
<path fill="none" stroke="#63b8ff" d="M365.01,-196.93C381.43,-189.25 402.08,-180.06 421,-173 426.97,-170.77 433.33,-168.61 439.63,-166.6"/>
<polygon fill="#63b8ff" stroke="#63b8ff" points="440.89,-169.87 449.4,-163.56 438.81,-163.19 440.89,-169.87"/>
</a>
</g>
</g>
<!-- Node23 -->
<g id="Node000023" class="node">
<title>Node23</title>
<g id="a_Node000023"><a xlink:href="classdetail_1_1buffer.html#a8685285932360c284d19003fc4ba3edc" target="_top" xlink:title="Returns the size of this buffer.">
<polygon fill="white" stroke="#666666" points="537,-334.5 433,-334.5 433,-315.5 537,-315.5 537,-334.5"/>
<text text-anchor="middle" x="485" y="-322.5" font-family="Helvetica,sans-Serif" font-size="10.00">detail::buffer::size</text>
</a>
</g>
</g>
<!-- Node13&#45;&gt;Node23 -->
<g id="edge26_Node000013_Node000023" class="edge">
<title>Node13&#45;&gt;Node23</title>
<g id="a_edge26_Node000013_Node000023"><a xlink:title=" ">
<path fill="none" stroke="#63b8ff" d="M366.64,-227C373.2,-230.96 379.7,-235.64 385,-241 408.22,-264.48 395.3,-285.26 421,-306 423.25,-307.82 425.67,-309.46 428.21,-310.94"/>
<polygon fill="#63b8ff" stroke="#63b8ff" points="426.68,-314.09 437.19,-315.42 429.8,-307.83 426.68,-314.09"/>
</a>
</g>
</g>
<!-- Node24 -->
<g id="Node000024" class="node">
<title>Node24</title>
<g id="a_Node000024"><a xlink:href="classdetail_1_1tm__writer.html#a34eec6b5c9584aa781340fe01cd75e07" target="_top" xlink:title=" ">
<polygon fill="white" stroke="#666666" points="537,-297 433,-297 433,-267 537,-267 537,-297"/>
<text text-anchor="start" x="441" y="-285" font-family="Helvetica,sans-Serif" font-size="10.00">detail::tm_writer::</text>
<text text-anchor="middle" x="485" y="-274" font-family="Helvetica,sans-Serif" font-size="10.00">tm_sec</text>
</a>
</g>
</g>
<!-- Node13&#45;&gt;Node24 -->
<g id="edge27_Node000013_Node000024" class="edge">
<title>Node13&#45;&gt;Node24</title>
<g id="a_edge27_Node000013_Node000024"><a xlink:title=" ">
<path fill="none" stroke="#63b8ff" d="M360.62,-227.16C377.63,-236.58 400.3,-248.63 421,-258 424.84,-259.74 428.84,-261.46 432.89,-263.14"/>
<polygon fill="#63b8ff" stroke="#63b8ff" points="431.78,-266.47 442.36,-266.96 434.4,-259.97 431.78,-266.47"/>
</a>
</g>
</g>
<!-- Node15 -->
<g id="Node000015" class="node">
<title>Node15</title>
<g id="a_Node000015"><a xlink:href="classbasic__memory__buffer.html#a97d9a0a0f9827c9277e2eea97fa0309b" target="_top" xlink:title=" ">
<polygon fill="white" stroke="#666666" points="707,-249 585,-249 585,-219 707,-219 707,-249"/>
<text text-anchor="start" x="593" y="-237" font-family="Helvetica,sans-Serif" font-size="10.00">basic_memory_buffer</text>
<text text-anchor="middle" x="646" y="-226" font-family="Helvetica,sans-Serif" font-size="10.00">::grow</text>
</a>
</g>
</g>
<!-- Node14&#45;&gt;Node15 -->
<g id="edge17_Node000014_Node000015" class="edge">
<title>Node14&#45;&gt;Node15</title>
<g id="a_edge17_Node000014_Node000015"><a xlink:title=" ">
<path fill="none" stroke="#63b8ff" d="M549.3,-234C557.61,-234 566.17,-234 574.59,-234"/>
<polygon fill="#63b8ff" stroke="#63b8ff" points="574.77,-237.5 584.77,-234 574.77,-230.5 574.77,-237.5"/>
</a>
</g>
</g>
<!-- Node20 -->
<g id="Node000020" class="node">
<title>Node20</title>
<g id="a_Node000020"><a xlink:href="namespacedetail.html#a75ed2634319883d038944529dbb954e2" target="_top" xlink:title=" ">
<polygon fill="white" stroke="#666666" points="860,-156 754,-156 754,-126 860,-126 860,-156"/>
<text text-anchor="start" x="762" y="-144" font-family="Helvetica,sans-Serif" font-size="10.00">detail::is_constant</text>
<text text-anchor="middle" x="807" y="-133" font-family="Helvetica,sans-Serif" font-size="10.00">_evaluated</text>
</a>
</g>
</g>
<!-- Node14&#45;&gt;Node20 -->
<g id="edge22_Node000014_Node000020" class="edge">
<title>Node14&#45;&gt;Node20</title>
<g id="a_edge22_Node000014_Node000020"><a xlink:title=" ">
<path fill="none" stroke="#63b8ff" d="M537.77,-218.95C594.24,-202.54 684.56,-176.29 744.58,-158.85"/>
<polygon fill="#63b8ff" stroke="#63b8ff" points="745.68,-162.18 754.31,-156.02 743.73,-155.45 745.68,-162.18"/>
</a>
</g>
</g>
<!-- Node16 -->
<g id="Node000016" class="node">
<title>Node16</title>
<g id="a_Node000016"><a xlink:href="namespacedetail.html#a9d0b4b56d52390d7c8a4be7baa5e2382" target="_top" xlink:title=" ">
<polygon fill="white" stroke="#666666" points="871,-280.5 743,-280.5 743,-261.5 871,-261.5 871,-280.5"/>
<text text-anchor="middle" x="807" y="-268.5" font-family="Helvetica,sans-Serif" font-size="10.00">detail::abort_fuzzing_if</text>
</a>
</g>
</g>
<!-- Node15&#45;&gt;Node16 -->
<g id="edge18_Node000015_Node000016" class="edge">
<title>Node15&#45;&gt;Node16</title>
<g id="a_edge18_Node000015_Node000016"><a xlink:title=" ">
<path fill="none" stroke="#63b8ff" d="M707.11,-247.99C722.98,-251.68 739.95,-255.63 755.27,-259.2"/>
<polygon fill="#63b8ff" stroke="#63b8ff" points="754.54,-262.62 765.07,-261.48 756.13,-255.8 754.54,-262.62"/>
</a>
</g>
</g>
<!-- Node18 -->
<g id="Node000018" class="node">
<title>Node18</title>
<g id="a_Node000018"><a xlink:href="namespacedetail.html#a208b54c1c61a9bce9df4531a657a0c64" target="_top" xlink:title=" ">
<polygon fill="white" stroke="#666666" points="851.5,-243.5 762.5,-243.5 762.5,-224.5 851.5,-224.5 851.5,-243.5"/>
<text text-anchor="middle" x="807" y="-231.5" font-family="Helvetica,sans-Serif" font-size="10.00">detail::assume</text>
</a>
</g>
</g>
<!-- Node15&#45;&gt;Node18 -->
<g id="edge20_Node000015_Node000018" class="edge">
<title>Node15&#45;&gt;Node18</title>
<g id="a_edge20_Node000015_Node000018"><a xlink:title=" ">
<path fill="none" stroke="#63b8ff" d="M707.11,-234C721.83,-234 737.49,-234 751.91,-234"/>
<polygon fill="#63b8ff" stroke="#63b8ff" points="752.16,-237.5 762.16,-234 752.16,-230.5 752.16,-237.5"/>
</a>
</g>
</g>
<!-- Node19 -->
<g id="Node000019" class="node">
<title>Node19</title>
<g id="a_Node000019"><a xlink:href="base_8h.html#a67ebc2a5b1748c4692931267cd6f89bf" target="_top" xlink:title=" ">
<polygon fill="white" stroke="#666666" points="833.5,-206.5 780.5,-206.5 780.5,-187.5 833.5,-187.5 833.5,-206.5"/>
<text text-anchor="middle" x="807" y="-194.5" font-family="Helvetica,sans-Serif" font-size="10.00">max_of</text>
</a>
</g>
</g>
<!-- Node15&#45;&gt;Node19 -->
<g id="edge21_Node000015_Node000019" class="edge">
<title>Node15&#45;&gt;Node19</title>
<g id="a_edge21_Node000015_Node000019"><a xlink:title=" ">
<path fill="none" stroke="#63b8ff" d="M707.11,-220.01C728.48,-215.04 751.84,-209.6 770.49,-205.26"/>
<polygon fill="#63b8ff" stroke="#63b8ff" points="771.37,-208.65 780.32,-202.98 769.79,-201.83 771.37,-208.65"/>
</a>
</g>
</g>
<!-- Node17 -->
<g id="Node000017" class="node">
<title>Node17</title>
<g id="a_Node000017"><a xlink:href="namespacedetail.html#a1fe84ebaf96215ce0665d95b3124c2df" target="_top" xlink:title=" ">
<polygon fill="white" stroke="#666666" points="1029,-280.5 907,-280.5 907,-261.5 1029,-261.5 1029,-280.5"/>
<text text-anchor="middle" x="968" y="-268.5" font-family="Helvetica,sans-Serif" font-size="10.00">detail::ignore_unused</text>
</a>
</g>
</g>
<!-- Node16&#45;&gt;Node17 -->
<g id="edge19_Node000016_Node000017" class="edge">
<title>Node16&#45;&gt;Node17</title>
<g id="a_edge19_Node000016_Node000017"><a xlink:title=" ">
<path fill="none" stroke="#63b8ff" d="M871.3,-271C879.61,-271 888.17,-271 896.59,-271"/>
<polygon fill="#63b8ff" stroke="#63b8ff" points="896.77,-274.5 906.77,-271 896.77,-267.5 896.77,-274.5"/>
</a>
</g>
</g>
<!-- Node25&#45;&gt;Node2 -->
<g id="edge29_Node000025_Node000002" class="edge">
<title>Node25&#45;&gt;Node2</title>
<g id="a_edge29_Node000025_Node000002"><a xlink:title=" ">
<path fill="none" stroke="#63b8ff" d="M205.93,-139.14C216.45,-152.04 231.87,-171.11 245,-188 261.36,-209.06 259.93,-219.66 281,-236 320.52,-266.65 347.68,-245.7 385,-279 409.64,-300.99 396.05,-322.36 421,-344 422.49,-345.29 424.06,-346.52 425.69,-347.69"/>
<polygon fill="#63b8ff" stroke="#63b8ff" points="423.92,-350.71 434.26,-353 427.61,-344.76 423.92,-350.71"/>
</a>
</g>
</g>
<!-- Node26 -->
<g id="Node000026" class="node">
<title>Node26</title>
<g id="a_Node000026"><a xlink:href="classdetail_1_1tm__writer.html#a82bed31c275dcb4710557360e5d3ab58" target="_top" xlink:title=" ">
<polygon fill="white" stroke="#666666" points="385,-46 281,-46 281,-16 385,-16 385,-46"/>
<text text-anchor="start" x="289" y="-34" font-family="Helvetica,sans-Serif" font-size="10.00">detail::tm_writer::</text>
<text text-anchor="middle" x="333" y="-23" font-family="Helvetica,sans-Serif" font-size="10.00">tm_year</text>
</a>
</g>
</g>
<!-- Node25&#45;&gt;Node26 -->
<g id="edge30_Node000025_Node000026" class="edge">
<title>Node25&#45;&gt;Node26</title>
<g id="a_edge30_Node000025_Node000026"><a xlink:title=" ">
<path fill="none" stroke="#63b8ff" d="M210.4,-108.76C227.42,-93.88 254.84,-71.18 281,-55 283.3,-53.58 285.7,-52.18 288.15,-50.83"/>
<polygon fill="#63b8ff" stroke="#63b8ff" points="289.92,-53.85 297.14,-46.1 286.66,-47.65 289.92,-53.85"/>
</a>
</g>
</g>
<!-- Node27 -->
<g id="Node000027" class="node">
<title>Node27</title>
<g id="a_Node000027"><a xlink:href="classdetail_1_1tm__writer.html#aeccc3597d5e9f4f0dd497bab3214340a" target="_top" xlink:title=" ">
<polygon fill="white" stroke="#666666" points="385,-94 281,-94 281,-64 385,-64 385,-94"/>
<text text-anchor="start" x="289" y="-82" font-family="Helvetica,sans-Serif" font-size="10.00">detail::tm_writer::</text>
<text text-anchor="middle" x="333" y="-71" font-family="Helvetica,sans-Serif" font-size="10.00">write_year</text>
</a>
</g>
</g>
<!-- Node25&#45;&gt;Node27 -->
<g id="edge31_Node000025_Node000027" class="edge">
<title>Node25&#45;&gt;Node27</title>
<g id="a_edge31_Node000025_Node000027"><a xlink:title=" ">
<path fill="none" stroke="#63b8ff" d="M240,-108.89C251.42,-105.18 263.77,-101.17 275.6,-97.32"/>
<polygon fill="#63b8ff" stroke="#63b8ff" points="276.95,-100.57 285.38,-94.15 274.79,-93.91 276.95,-100.57"/>
</a>
</g>
</g>
<!-- Node28 -->
<g id="Node000028" class="node">
<title>Node28</title>
<g id="a_Node000028"><a xlink:href="classdetail_1_1tm__writer.html#afebe1080f809fce7f9929aac3b0b9111" target="_top" xlink:title=" ">
<polygon fill="white" stroke="#666666" points="544.5,-30 425.5,-30 425.5,0 544.5,0 544.5,-30"/>
<text text-anchor="start" x="433.5" y="-18" font-family="Helvetica,sans-Serif" font-size="10.00">detail::tm_writer::</text>
<text text-anchor="middle" x="485" y="-7" font-family="Helvetica,sans-Serif" font-size="10.00">write_year_extended</text>
</a>
</g>
</g>
<!-- Node27&#45;&gt;Node28 -->
<g id="edge32_Node000027_Node000028" class="edge">
<title>Node27&#45;&gt;Node28</title>
<g id="a_edge32_Node000027_Node000028"><a xlink:title=" ">
<path fill="none" stroke="#63b8ff" d="M366.11,-63.96C386.32,-54.55 410.5,-43.41 421,-39 425.12,-37.27 429.41,-35.52 433.73,-33.8"/>
<polygon fill="#63b8ff" stroke="#63b8ff" points="435.14,-37.01 443.17,-30.1 432.59,-30.49 435.14,-37.01"/>
</a>
</g>
</g>
<!-- Node29 -->
<g id="Node000029" class="node">
<title>Node29</title>
<g id="a_Node000029"><a xlink:href="namespacedetail.html#ae970ad8cf6b25d7896f788089ca1b0eb" target="_top" xlink:title=" ">
<polygon fill="white" stroke="#666666" points="701,-75.5 591,-75.5 591,-56.5 701,-56.5 701,-75.5"/>
<text text-anchor="middle" x="646" y="-63.5" font-family="Helvetica,sans-Serif" font-size="10.00">detail::count_digits</text>
</a>
</g>
</g>
<!-- Node28&#45;&gt;Node29 -->
<g id="edge33_Node000028_Node000029" class="edge">
<title>Node28&#45;&gt;Node29</title>
<g id="a_edge33_Node000028_Node000029"><a xlink:title=" ">
<path fill="none" stroke="#63b8ff" d="M532.85,-30.03C555.88,-37.42 583.35,-46.22 605.33,-53.28"/>
<polygon fill="#63b8ff" stroke="#63b8ff" points="604.42,-56.66 615.01,-56.38 606.56,-49.99 604.42,-56.66"/>
</a>
</g>
</g>
<!-- Node31 -->
<g id="Node000031" class="node">
<title>Node31</title>
<g id="a_Node000031"><a xlink:href="namespacedetail.html#a4855e668246c731a97484efc329f2aac" target="_top" xlink:title=" ">
<polygon fill="white" stroke="#666666" points="701,-24.5 591,-24.5 591,-5.5 701,-5.5 701,-24.5"/>
<text text-anchor="middle" x="646" y="-12.5" font-family="Helvetica,sans-Serif" font-size="10.00">detail::to_unsigned</text>
</a>
</g>
</g>
<!-- Node28&#45;&gt;Node31 -->
<g id="edge36_Node000028_Node000031" class="edge">
<title>Node28&#45;&gt;Node31</title>
<g id="a_edge36_Node000028_Node000031"><a xlink:title=" ">
<path fill="none" stroke="#63b8ff" d="M544.75,-15C556.45,-15 568.8,-15 580.67,-15"/>
<polygon fill="#63b8ff" stroke="#63b8ff" points="580.96,-18.5 590.96,-15 580.96,-11.5 580.96,-18.5"/>
</a>
</g>
</g>
<!-- Node29&#45;&gt;Node20 -->
<g id="edge35_Node000029_Node000020" class="edge">
<title>Node29&#45;&gt;Node20</title>
<g id="a_edge35_Node000029_Node000020"><a xlink:title=" ">
<path fill="none" stroke="#63b8ff" d="M667.46,-75.65C691.94,-87.2 733.52,-106.81 764.75,-121.54"/>
<polygon fill="#63b8ff" stroke="#63b8ff" points="763.54,-124.84 774.08,-125.94 766.53,-118.51 763.54,-124.84"/>
</a>
</g>
</g>
<!-- Node30 -->
<g id="Node000030" class="node">
<title>Node30</title>
<g id="a_Node000030"><a xlink:href="namespacedetail.html#a300bc96ee936e9f6ef3565c8dff68a72" target="_top" xlink:title=" ">
<polygon fill="white" stroke="#666666" points="862,-81 752,-81 752,-51 862,-51 862,-81"/>
<text text-anchor="start" x="760" y="-69" font-family="Helvetica,sans-Serif" font-size="10.00">detail::count_digits</text>
<text text-anchor="middle" x="807" y="-58" font-family="Helvetica,sans-Serif" font-size="10.00">_fallback</text>
</a>
</g>
</g>
<!-- Node29&#45;&gt;Node30 -->
<g id="edge34_Node000029_Node000030" class="edge">
<title>Node29&#45;&gt;Node30</title>
<g id="a_edge34_Node000029_Node000030"><a xlink:title=" ">
<path fill="none" stroke="#63b8ff" d="M701.27,-66C714.32,-66 728.38,-66 741.83,-66"/>
<polygon fill="#63b8ff" stroke="#63b8ff" points="741.97,-69.5 751.97,-66 741.97,-62.5 741.97,-69.5"/>
</a>
</g>
</g>
</g>
</svg>
