<?xml version="1.0" encoding="UTF-8" standalone="no"?>
<!DOCTYPE svg PUBLIC "-//W3C//DTD SVG 1.1//EN"
 "http://www.w3.org/Graphics/SVG/1.1/DTD/svg11.dtd">
<!-- Generated by graphviz version 2.43.0 (0)
 -->
<!-- Title: basic_specs::set_type Pages: 1 -->
<svg width="480pt" height="227pt"
 viewBox="0.00 0.00 480.00 226.50" xmlns="http://www.w3.org/2000/svg" xmlns:xlink="http://www.w3.org/1999/xlink">
<g id="graph0" class="graph" transform="scale(1 1) rotate(0) translate(4 222.5)">
<title>basic_specs::set_type</title>
<!-- Node1 -->
<g id="Node000001" class="node">
<title>Node1</title>
<g id="a_Node000001"><a xlink:title=" ">
<polygon fill="#999999" stroke="#666666" points="472,-143 349,-143 349,-124 472,-124 472,-143"/>
<text text-anchor="middle" x="410.5" y="-131" font-family="Helvetica,sans-Serif" font-size="10.00">basic_specs::set_type</text>
</a>
</g>
</g>
<!-- Node2 -->
<g id="Node000002" class="node">
<title>Node2</title>
<g id="a_Node000002"><a xlink:href="structformatter_3_01std_1_1error__code_01_4.html#a9d24221c1766094aca57c5dec38fa67d" target="_top" xlink:title=" ">
<polygon fill="white" stroke="#666666" points="301,-218.5 182,-218.5 182,-188.5 301,-188.5 301,-218.5"/>
<text text-anchor="start" x="190" y="-206.5" font-family="Helvetica,sans-Serif" font-size="10.00">formatter&lt; std::error</text>
<text text-anchor="middle" x="241.5" y="-195.5" font-family="Helvetica,sans-Serif" font-size="10.00">_code &gt;::parse</text>
</a>
</g>
</g>
<!-- Node1&#45;&gt;Node2 -->
<g id="edge1_Node000001_Node000002" class="edge">
<title>Node1&#45;&gt;Node2</title>
<g id="a_edge1_Node000001_Node000002"><a xlink:title=" ">
<path fill="none" stroke="#63b8ff" d="M381.9,-147.71C362.81,-157.28 336.68,-169.87 313,-179.5 305.46,-182.57 297.35,-185.58 289.43,-188.38"/>
<polygon fill="#63b8ff" stroke="#63b8ff" points="383.58,-150.78 390.93,-143.15 380.43,-144.54 383.58,-150.78"/>
</a>
</g>
</g>
<!-- Node3 -->
<g id="Node000003" class="node">
<title>Node3</title>
<g id="a_Node000003"><a xlink:href="namespacedetail.html#afbb7f1837c4f769e74317dec368c5206" target="_top" xlink:title=" ">
<polygon fill="white" stroke="#666666" points="299.5,-170.5 183.5,-170.5 183.5,-140.5 299.5,-140.5 299.5,-170.5"/>
<text text-anchor="start" x="191.5" y="-158.5" font-family="Helvetica,sans-Serif" font-size="10.00">detail::parse_format</text>
<text text-anchor="middle" x="241.5" y="-147.5" font-family="Helvetica,sans-Serif" font-size="10.00">_specs</text>
</a>
</g>
</g>
<!-- Node1&#45;&gt;Node3 -->
<g id="edge2_Node000001_Node000003" class="edge">
<title>Node1&#45;&gt;Node3</title>
<g id="a_edge2_Node000001_Node000003"><a xlink:title=" ">
<path fill="none" stroke="#63b8ff" d="M338.45,-142.86C325.48,-144.57 312.1,-146.33 299.6,-147.98"/>
<polygon fill="#63b8ff" stroke="#63b8ff" points="339.28,-146.28 348.74,-141.5 338.37,-139.34 339.28,-146.28"/>
</a>
</g>
</g>
<!-- Node6 -->
<g id="Node000006" class="node">
<title>Node6</title>
<g id="a_Node000006"><a xlink:href="namespacedetail.html#a1c8c2218e4c822aa8f743fb9c573717f" target="_top" xlink:title=" ">
<polygon fill="white" stroke="#666666" points="283,-122 200,-122 200,-103 283,-103 283,-122"/>
<text text-anchor="middle" x="241.5" y="-110" font-family="Helvetica,sans-Serif" font-size="10.00">detail::vprintf</text>
</a>
</g>
</g>
<!-- Node1&#45;&gt;Node6 -->
<g id="edge5_Node000001_Node000006" class="edge">
<title>Node1&#45;&gt;Node6</title>
<g id="a_edge5_Node000001_Node000006"><a xlink:title=" ">
<path fill="none" stroke="#63b8ff" d="M338.63,-124.59C319.68,-122.21 299.85,-119.71 283.15,-117.61"/>
<polygon fill="#63b8ff" stroke="#63b8ff" points="338.38,-128.08 348.74,-125.86 339.25,-121.14 338.38,-128.08"/>
</a>
</g>
</g>
<!-- Node7 -->
<g id="Node000007" class="node">
<title>Node7</title>
<g id="a_Node000007"><a xlink:href="structrange__formatter_3_01T_00_01Char_00_01enable__if__t_3_01conjunction_3_01std_1_1is__same_3_3cf3a20f6ea4950448b9f85e13a8c815.html#a0a6e98c01e9e205d1fbd3d1f30e57678" target="_top" xlink:title=" ">
<polygon fill="white" stroke="#666666" points="313,-85 170,-85 170,0 313,0 313,-85"/>
<text text-anchor="start" x="178" y="-73" font-family="Helvetica,sans-Serif" font-size="10.00">range_formatter&lt; T,</text>
<text text-anchor="start" x="178" y="-62" font-family="Helvetica,sans-Serif" font-size="10.00"> Char, enable_if_t&lt;</text>
<text text-anchor="start" x="178" y="-51" font-family="Helvetica,sans-Serif" font-size="10.00"> conjunction&lt; std::is</text>
<text text-anchor="start" x="178" y="-40" font-family="Helvetica,sans-Serif" font-size="10.00">_same&lt; T, remove_cvref</text>
<text text-anchor="start" x="178" y="-29" font-family="Helvetica,sans-Serif" font-size="10.00">_t&lt; T &gt; &gt;, is_formattable</text>
<text text-anchor="start" x="178" y="-18" font-family="Helvetica,sans-Serif" font-size="10.00">&lt; T, Char &gt; &gt;::value &gt; &gt;</text>
<text text-anchor="middle" x="241.5" y="-7" font-family="Helvetica,sans-Serif" font-size="10.00">::write_debug_string</text>
</a>
</g>
</g>
<!-- Node1&#45;&gt;Node7 -->
<g id="edge6_Node000001_Node000007" class="edge">
<title>Node1&#45;&gt;Node7</title>
<g id="a_edge6_Node000001_Node000007"><a xlink:title=" ">
<path fill="none" stroke="#63b8ff" d="M383.09,-119.11C364.28,-108.86 338.06,-94.57 313.35,-81.11"/>
<polygon fill="#63b8ff" stroke="#63b8ff" points="381.49,-122.22 391.94,-123.93 384.84,-116.08 381.49,-122.22"/>
</a>
</g>
</g>
<!-- Node4 -->
<g id="Node000004" class="node">
<title>Node4</title>
<g id="a_Node000004"><a xlink:href="structformatter_3_01bytes_01_4.html#aea6a86c93b8c788b275fcccb7a841123" target="_top" xlink:title=" ">
<polygon fill="white" stroke="#666666" points="123.5,-194.5 10.5,-194.5 10.5,-164.5 123.5,-164.5 123.5,-194.5"/>
<text text-anchor="start" x="18.5" y="-182.5" font-family="Helvetica,sans-Serif" font-size="10.00">formatter&lt; bytes &gt;</text>
<text text-anchor="middle" x="67" y="-171.5" font-family="Helvetica,sans-Serif" font-size="10.00">::parse</text>
</a>
</g>
</g>
<!-- Node3&#45;&gt;Node4 -->
<g id="edge3_Node000003_Node000004" class="edge">
<title>Node3&#45;&gt;Node4</title>
<g id="a_edge3_Node000003_Node000004"><a xlink:title=" ">
<path fill="none" stroke="#63b8ff" d="M173.04,-164.89C156.71,-167.16 139.44,-169.56 123.72,-171.75"/>
<polygon fill="#63b8ff" stroke="#63b8ff" points="173.64,-168.34 183.06,-163.49 172.67,-161.4 173.64,-168.34"/>
</a>
</g>
</g>
<!-- Node5 -->
<g id="Node000005" class="node">
<title>Node5</title>
<g id="a_Node000005"><a xlink:href="structformatter_3_01group__digits__view_3_01T_01_4_01_4.html#a226542969556b083f4f036307760a958" target="_top" xlink:title=" ">
<polygon fill="white" stroke="#666666" points="134,-146.5 0,-146.5 0,-116.5 134,-116.5 134,-146.5"/>
<text text-anchor="start" x="8" y="-134.5" font-family="Helvetica,sans-Serif" font-size="10.00">formatter&lt; group_digits</text>
<text text-anchor="middle" x="67" y="-123.5" font-family="Helvetica,sans-Serif" font-size="10.00">_view&lt; T &gt; &gt;::parse</text>
</a>
</g>
</g>
<!-- Node3&#45;&gt;Node5 -->
<g id="edge4_Node000003_Node000005" class="edge">
<title>Node3&#45;&gt;Node5</title>
<g id="a_edge4_Node000003_Node000005"><a xlink:title=" ">
<path fill="none" stroke="#63b8ff" d="M172.97,-146.1C160.2,-144.33 146.86,-142.47 134.14,-140.7"/>
<polygon fill="#63b8ff" stroke="#63b8ff" points="172.67,-149.6 183.06,-147.51 173.64,-142.66 172.67,-149.6"/>
</a>
</g>
</g>
</g>
</svg>
