<?xml version="1.0" encoding="UTF-8" standalone="no"?>
<!DOCTYPE svg PUBLIC "-//W3C//DTD SVG 1.1//EN"
 "http://www.w3.org/Graphics/SVG/1.1/DTD/svg11.dtd">
<!-- Generated by graphviz version 2.43.0 (0)
 -->
<!-- Title: Si4432 Pages: 1 -->
<svg width="126pt" height="192pt"
 viewBox="0.00 0.00 126.00 192.00" xmlns="http://www.w3.org/2000/svg" xmlns:xlink="http://www.w3.org/1999/xlink">
<g id="graph0" class="graph" transform="scale(1 1) rotate(0) translate(4 188)">
<title>Si4432</title>
<!-- Node1 -->
<g id="Node000001" class="node">
<title>Node1</title>
<g id="a_Node000001"><a xlink:title="Derived class for Si4432 modules.">
<polygon fill="#999999" stroke="#666666" points="84,-74 34,-74 34,-55 84,-55 84,-74"/>
<text text-anchor="middle" x="59" y="-62" font-family="Helvetica,sans-Serif" font-size="10.00">Si4432</text>
</a>
</g>
</g>
<!-- Node4 -->
<g id="Node000004" class="node">
<title>Node4</title>
<g id="a_Node000004"><a xlink:href="classSi4430.html" target="_top" xlink:title="Derived class for Si4430 modules.">
<polygon fill="white" stroke="#666666" points="50,-19 0,-19 0,0 50,0 50,-19"/>
<text text-anchor="middle" x="25" y="-7" font-family="Helvetica,sans-Serif" font-size="10.00">Si4430</text>
</a>
</g>
</g>
<!-- Node1&#45;&gt;Node4 -->
<g id="edge3_Node000001_Node000004" class="edge">
<title>Node1&#45;&gt;Node4</title>
<g id="a_edge3_Node000001_Node000004"><a xlink:title=" ">
<path fill="none" stroke="#63b8ff" d="M47.84,-46.1C42.03,-37.04 35.18,-26.37 30.51,-19.09"/>
<polygon fill="#63b8ff" stroke="#63b8ff" points="45.04,-48.22 53.39,-54.75 50.93,-44.44 45.04,-48.22"/>
</a>
</g>
</g>
<!-- Node5 -->
<g id="Node000005" class="node">
<title>Node5</title>
<g id="a_Node000005"><a xlink:href="classSi4431.html" target="_top" xlink:title="Derived class for Si4431 modules.">
<polygon fill="white" stroke="#666666" points="118,-19 68,-19 68,0 118,0 118,-19"/>
<text text-anchor="middle" x="93" y="-7" font-family="Helvetica,sans-Serif" font-size="10.00">Si4431</text>
</a>
</g>
</g>
<!-- Node1&#45;&gt;Node5 -->
<g id="edge4_Node000001_Node000005" class="edge">
<title>Node1&#45;&gt;Node5</title>
<g id="a_edge4_Node000001_Node000005"><a xlink:title=" ">
<path fill="none" stroke="#63b8ff" d="M70.16,-46.1C75.97,-37.04 82.82,-26.37 87.49,-19.09"/>
<polygon fill="#63b8ff" stroke="#63b8ff" points="67.07,-44.44 64.61,-54.75 72.96,-48.22 67.07,-44.44"/>
</a>
</g>
</g>
<!-- Node2 -->
<g id="Node000002" class="node">
<title>Node2</title>
<g id="a_Node000002"><a xlink:href="classSi443x.html" target="_top" xlink:title="Base class for Si443x series. All derived classes for Si443x (e.g. Si4431 or Si4432) inherit from thi...">
<polygon fill="white" stroke="#666666" points="84,-129 34,-129 34,-110 84,-110 84,-129"/>
<text text-anchor="middle" x="59" y="-117" font-family="Helvetica,sans-Serif" font-size="10.00">Si443x</text>
</a>
</g>
</g>
<!-- Node2&#45;&gt;Node1 -->
<g id="edge1_Node000001_Node000002" class="edge">
<title>Node2&#45;&gt;Node1</title>
<g id="a_edge1_Node000001_Node000002"><a xlink:title=" ">
<path fill="none" stroke="#63b8ff" d="M59,-99.66C59,-90.93 59,-80.99 59,-74.09"/>
<polygon fill="#63b8ff" stroke="#63b8ff" points="55.5,-99.75 59,-109.75 62.5,-99.75 55.5,-99.75"/>
</a>
</g>
</g>
<!-- Node3 -->
<g id="Node000003" class="node">
<title>Node3</title>
<g id="a_Node000003"><a xlink:href="classPhysicalLayer.html" target="_top" xlink:title="Provides common interface for protocols that run on LoRa/FSK modules, such as RTTY or LoRaWAN....">
<polygon fill="white" stroke="#666666" points="101,-184 17,-184 17,-165 101,-165 101,-184"/>
<text text-anchor="middle" x="59" y="-172" font-family="Helvetica,sans-Serif" font-size="10.00">PhysicalLayer</text>
</a>
</g>
</g>
<!-- Node3&#45;&gt;Node2 -->
<g id="edge2_Node000002_Node000003" class="edge">
<title>Node3&#45;&gt;Node2</title>
<g id="a_edge2_Node000002_Node000003"><a xlink:title=" ">
<path fill="none" stroke="#63b8ff" d="M59,-154.66C59,-145.93 59,-135.99 59,-129.09"/>
<polygon fill="#63b8ff" stroke="#63b8ff" points="55.5,-154.75 59,-164.75 62.5,-154.75 55.5,-154.75"/>
</a>
</g>
</g>
</g>
</svg>
