<?xml version="1.0" encoding="UTF-8" standalone="no"?>
<!DOCTYPE svg PUBLIC "-//W3C//DTD SVG 1.1//EN"
 "http://www.w3.org/Graphics/SVG/1.1/DTD/svg11.dtd">
<!-- Generated by graphviz version 2.43.0 (0)
 -->
<!-- Title: cxxopts::OptionParser::parse_default Pages: 1 -->
<svg width="774pt" height="230pt"
 viewBox="0.00 0.00 774.00 230.00" xmlns="http://www.w3.org/2000/svg" xmlns:xlink="http://www.w3.org/1999/xlink">
<g id="graph0" class="graph" transform="scale(1 1) rotate(0) translate(4 226)">
<title>cxxopts::OptionParser::parse_default</title>
<!-- Node1 -->
<g id="Node000001" class="node">
<title>Node1</title>
<g id="a_Node000001"><a xlink:title=" ">
<polygon fill="#999999" stroke="#666666" points="122,-126 0,-126 0,-96 122,-96 122,-126"/>
<text text-anchor="start" x="8" y="-114" font-family="Helvetica,sans-Serif" font-size="10.00">cxxopts::OptionParser</text>
<text text-anchor="middle" x="61" y="-103" font-family="Helvetica,sans-Serif" font-size="10.00">::parse_default</text>
</a>
</g>
</g>
<!-- Node2 -->
<g id="Node000002" class="node">
<title>Node2</title>
<g id="a_Node000002"><a xlink:href="classcxxopts_1_1OptionDetails.html#a02b918ea1873a2716cfd5ad909be3034" target="_top" xlink:title=" ">
<polygon fill="white" stroke="#666666" points="285,-222 158,-222 158,-192 285,-192 285,-222"/>
<text text-anchor="start" x="166" y="-210" font-family="Helvetica,sans-Serif" font-size="10.00">cxxopts::OptionDetails</text>
<text text-anchor="middle" x="221.5" y="-199" font-family="Helvetica,sans-Serif" font-size="10.00">::essential_name</text>
</a>
</g>
</g>
<!-- Node1&#45;&gt;Node2 -->
<g id="edge1_Node000001_Node000002" class="edge">
<title>Node1&#45;&gt;Node2</title>
<g id="a_edge1_Node000001_Node000002"><a xlink:title=" ">
<path fill="none" stroke="#63b8ff" d="M79.04,-126.1C97.49,-141.87 128.28,-166.57 158,-183 161.04,-184.68 164.23,-186.3 167.48,-187.84"/>
<polygon fill="#63b8ff" stroke="#63b8ff" points="166.2,-191.1 176.76,-191.99 169.06,-184.71 166.2,-191.1"/>
</a>
</g>
</g>
<!-- Node3 -->
<g id="Node000003" class="node">
<title>Node3</title>
<g id="a_Node000003"><a xlink:href="classcxxopts_1_1Value.html#a25ac95c499771a6f5ca295e01452f380" target="_top" xlink:title=" ">
<polygon fill="white" stroke="#666666" points="276,-174 167,-174 167,-144 276,-144 276,-174"/>
<text text-anchor="start" x="175" y="-162" font-family="Helvetica,sans-Serif" font-size="10.00">cxxopts::Value::get</text>
<text text-anchor="middle" x="221.5" y="-151" font-family="Helvetica,sans-Serif" font-size="10.00">_default_value</text>
</a>
</g>
</g>
<!-- Node1&#45;&gt;Node3 -->
<g id="edge2_Node000001_Node000003" class="edge">
<title>Node1&#45;&gt;Node3</title>
<g id="a_edge2_Node000001_Node000003"><a xlink:title=" ">
<path fill="none" stroke="#63b8ff" d="M111.72,-126.06C127.35,-130.79 144.78,-136.07 161.03,-140.99"/>
<polygon fill="#63b8ff" stroke="#63b8ff" points="160.38,-144.45 170.96,-144 162.4,-137.75 160.38,-144.45"/>
</a>
</g>
</g>
<!-- Node4 -->
<g id="Node000004" class="node">
<title>Node4</title>
<g id="a_Node000004"><a xlink:href="classcxxopts_1_1OptionDetails.html#a3e5d1e478cc4a241d710f9ab792fcafb" target="_top" xlink:title=" ">
<polygon fill="white" stroke="#666666" points="285,-126 158,-126 158,-96 285,-96 285,-126"/>
<text text-anchor="start" x="166" y="-114" font-family="Helvetica,sans-Serif" font-size="10.00">cxxopts::OptionDetails</text>
<text text-anchor="middle" x="221.5" y="-103" font-family="Helvetica,sans-Serif" font-size="10.00">::hash</text>
</a>
</g>
</g>
<!-- Node1&#45;&gt;Node4 -->
<g id="edge3_Node000001_Node000004" class="edge">
<title>Node1&#45;&gt;Node4</title>
<g id="a_edge3_Node000001_Node000004"><a xlink:title=" ">
<path fill="none" stroke="#63b8ff" d="M122.37,-111C130.65,-111 139.21,-111 147.67,-111"/>
<polygon fill="#63b8ff" stroke="#63b8ff" points="147.93,-114.5 157.93,-111 147.93,-107.5 147.93,-114.5"/>
</a>
</g>
</g>
<!-- Node5 -->
<g id="Node000005" class="node">
<title>Node5</title>
<g id="a_Node000005"><a xlink:href="classcxxopts_1_1OptionValue.html#a58f4dc95f2a36c01f64c026baae6795f" target="_top" xlink:title=" ">
<polygon fill="white" stroke="#666666" points="281,-78 162,-78 162,-48 281,-48 281,-78"/>
<text text-anchor="start" x="170" y="-66" font-family="Helvetica,sans-Serif" font-size="10.00">cxxopts::OptionValue</text>
<text text-anchor="middle" x="221.5" y="-55" font-family="Helvetica,sans-Serif" font-size="10.00">::parse_default</text>
</a>
</g>
</g>
<!-- Node1&#45;&gt;Node5 -->
<g id="edge4_Node000001_Node000005" class="edge">
<title>Node1&#45;&gt;Node5</title>
<g id="a_edge4_Node000001_Node000005"><a xlink:title=" ">
<path fill="none" stroke="#63b8ff" d="M111.72,-95.94C127.35,-91.21 144.78,-85.93 161.03,-81.01"/>
<polygon fill="#63b8ff" stroke="#63b8ff" points="162.4,-84.25 170.96,-78 160.38,-77.55 162.4,-84.25"/>
</a>
</g>
</g>
<!-- Node11 -->
<g id="Node000011" class="node">
<title>Node11</title>
<g id="a_Node000011"><a xlink:href="classcxxopts_1_1OptionDetails.html#a3f90596c7b7634449a51370f211163a8" target="_top" xlink:title=" ">
<polygon fill="white" stroke="#666666" points="285,-30 158,-30 158,0 285,0 285,-30"/>
<text text-anchor="start" x="166" y="-18" font-family="Helvetica,sans-Serif" font-size="10.00">cxxopts::OptionDetails</text>
<text text-anchor="middle" x="221.5" y="-7" font-family="Helvetica,sans-Serif" font-size="10.00">::value</text>
</a>
</g>
</g>
<!-- Node1&#45;&gt;Node11 -->
<g id="edge10_Node000001_Node000011" class="edge">
<title>Node1&#45;&gt;Node11</title>
<g id="a_edge10_Node000001_Node000011"><a xlink:title=" ">
<path fill="none" stroke="#63b8ff" d="M79.04,-95.9C97.49,-80.13 128.28,-55.43 158,-39 161.04,-37.32 164.23,-35.7 167.48,-34.16"/>
<polygon fill="#63b8ff" stroke="#63b8ff" points="169.06,-37.29 176.76,-30.01 166.2,-30.9 169.06,-37.29"/>
</a>
</g>
</g>
<!-- Node6 -->
<g id="Node000006" class="node">
<title>Node6</title>
<g id="a_Node000006"><a xlink:href="classcxxopts_1_1OptionValue.html#a5e62e7e64679e627ba8946c36a559f2a" target="_top" xlink:title=" ">
<polygon fill="white" stroke="#666666" points="444,-126 325,-126 325,-96 444,-96 444,-126"/>
<text text-anchor="start" x="333" y="-114" font-family="Helvetica,sans-Serif" font-size="10.00">cxxopts::OptionValue</text>
<text text-anchor="middle" x="384.5" y="-103" font-family="Helvetica,sans-Serif" font-size="10.00">::ensure_value</text>
</a>
</g>
</g>
<!-- Node5&#45;&gt;Node6 -->
<g id="edge5_Node000005_Node000006" class="edge">
<title>Node5&#45;&gt;Node6</title>
<g id="a_edge5_Node000005_Node000006"><a xlink:title=" ">
<path fill="none" stroke="#63b8ff" d="M273,-78.06C289.03,-82.84 306.92,-88.17 323.55,-93.13"/>
<polygon fill="#63b8ff" stroke="#63b8ff" points="322.6,-96.49 333.18,-96 324.6,-89.79 322.6,-96.49"/>
</a>
</g>
</g>
<!-- Node9 -->
<g id="Node000009" class="node">
<title>Node9</title>
<g id="a_Node000009"><a xlink:href="classcxxopts_1_1OptionDetails.html#a1b61b4570ee040ce1b9fc6e358e08b2d" target="_top" xlink:title=" ">
<polygon fill="white" stroke="#666666" points="448,-78 321,-78 321,-48 448,-48 448,-78"/>
<text text-anchor="start" x="329" y="-66" font-family="Helvetica,sans-Serif" font-size="10.00">cxxopts::OptionDetails</text>
<text text-anchor="middle" x="384.5" y="-55" font-family="Helvetica,sans-Serif" font-size="10.00">::long_names</text>
</a>
</g>
</g>
<!-- Node5&#45;&gt;Node9 -->
<g id="edge8_Node000005_Node000009" class="edge">
<title>Node5&#45;&gt;Node9</title>
<g id="a_edge8_Node000005_Node000009"><a xlink:title=" ">
<path fill="none" stroke="#63b8ff" d="M281.08,-63C290.69,-63 300.75,-63 310.65,-63"/>
<polygon fill="#63b8ff" stroke="#63b8ff" points="310.89,-66.5 320.89,-63 310.89,-59.5 310.89,-66.5"/>
</a>
</g>
</g>
<!-- Node10 -->
<g id="Node000010" class="node">
<title>Node10</title>
<g id="a_Node000010"><a xlink:href="classcxxopts_1_1Value.html#a9246a55e299ea5ef34346af46977fab4" target="_top" xlink:title=" ">
<polygon fill="white" stroke="#666666" points="444.5,-29.5 324.5,-29.5 324.5,-10.5 444.5,-10.5 444.5,-29.5"/>
<text text-anchor="middle" x="384.5" y="-17.5" font-family="Helvetica,sans-Serif" font-size="10.00">cxxopts::Value::parse</text>
</a>
</g>
</g>
<!-- Node5&#45;&gt;Node10 -->
<g id="edge9_Node000005_Node000010" class="edge">
<title>Node5&#45;&gt;Node10</title>
<g id="a_edge9_Node000005_Node000010"><a xlink:title=" ">
<path fill="none" stroke="#63b8ff" d="M278.81,-47.96C298.09,-42.81 319.41,-37.12 337.75,-32.22"/>
<polygon fill="#63b8ff" stroke="#63b8ff" points="338.85,-35.55 347.61,-29.59 337.04,-28.79 338.85,-35.55"/>
</a>
</g>
</g>
<!-- Node7 -->
<g id="Node000007" class="node">
<title>Node7</title>
<g id="a_Node000007"><a xlink:href="classcxxopts_1_1OptionDetails.html#a3ff160262711ae6eebb41649491e75e6" target="_top" xlink:title=" ">
<polygon fill="white" stroke="#666666" points="611,-126 484,-126 484,-96 611,-96 611,-126"/>
<text text-anchor="start" x="492" y="-114" font-family="Helvetica,sans-Serif" font-size="10.00">cxxopts::OptionDetails</text>
<text text-anchor="middle" x="547.5" y="-103" font-family="Helvetica,sans-Serif" font-size="10.00">::make_storage</text>
</a>
</g>
</g>
<!-- Node6&#45;&gt;Node7 -->
<g id="edge6_Node000006_Node000007" class="edge">
<title>Node6&#45;&gt;Node7</title>
<g id="a_edge6_Node000006_Node000007"><a xlink:title=" ">
<path fill="none" stroke="#63b8ff" d="M444.08,-111C453.69,-111 463.75,-111 473.65,-111"/>
<polygon fill="#63b8ff" stroke="#63b8ff" points="473.89,-114.5 483.89,-111 473.89,-107.5 473.89,-114.5"/>
</a>
</g>
</g>
<!-- Node8 -->
<g id="Node000008" class="node">
<title>Node8</title>
<g id="a_Node000008"><a xlink:href="classcxxopts_1_1Value.html#a17916d6a48e57c999c2dc23fa6b22539" target="_top" xlink:title=" ">
<polygon fill="white" stroke="#666666" points="766,-120.5 647,-120.5 647,-101.5 766,-101.5 766,-120.5"/>
<text text-anchor="middle" x="706.5" y="-108.5" font-family="Helvetica,sans-Serif" font-size="10.00">cxxopts::Value::clone</text>
</a>
</g>
</g>
<!-- Node7&#45;&gt;Node8 -->
<g id="edge7_Node000007_Node000008" class="edge">
<title>Node7&#45;&gt;Node8</title>
<g id="a_edge7_Node000007_Node000008"><a xlink:title=" ">
<path fill="none" stroke="#63b8ff" d="M611,-111C619.39,-111 628.04,-111 636.53,-111"/>
<polygon fill="#63b8ff" stroke="#63b8ff" points="636.79,-114.5 646.79,-111 636.79,-107.5 636.79,-114.5"/>
</a>
</g>
</g>
</g>
</svg>
