<?xml version="1.0" encoding="UTF-8" standalone="no"?>
<!DOCTYPE svg PUBLIC "-//W3C//DTD SVG 1.1//EN"
 "http://www.w3.org/Graphics/SVG/1.1/DTD/svg11.dtd">
<!-- Generated by graphviz version 2.43.0 (0)
 -->
<!-- Title: Magick::MAGICK_UNARY_FUNCTION_IMAGE_REF_BASE Pages: 1 -->
<svg width="851pt" height="822pt"
 viewBox="0.00 0.00 851.00 822.12" xmlns="http://www.w3.org/2000/svg" xmlns:xlink="http://www.w3.org/1999/xlink">
<g id="graph0" class="graph" transform="scale(1 1) rotate(0) translate(4 818.12)">
<title>Magick::MAGICK_UNARY_FUNCTION_IMAGE_REF_BASE</title>
<!-- Node1 -->
<g id="Node000001" class="node">
<title>Node1</title>
<g id="a_Node000001"><a xlink:title=" ">
<polygon fill="#999999" stroke="#666666" points="843,-317.12 677,-317.12 677,-287.12 843,-287.12 843,-317.12"/>
<text text-anchor="start" x="685" y="-305.12" font-family="Helvetica,sans-Serif" font-size="10.00">Magick::MAGICK_UNARY</text>
<text text-anchor="middle" x="760" y="-294.12" font-family="Helvetica,sans-Serif" font-size="10.00">_FUNCTION_IMAGE_REF_BASE</text>
</a>
</g>
</g>
<!-- Node2 -->
<g id="Node000002" class="node">
<title>Node2</title>
<g id="a_Node000002"><a xlink:title=" ">
<polygon fill="white" stroke="#666666" points="517,-804.62 450,-804.62 450,-785.62 517,-785.62 517,-804.62"/>
<text text-anchor="middle" x="483.5" y="-792.62" font-family="Helvetica,sans-Serif" font-size="10.00">NoiseType</text>
</a>
</g>
</g>
<!-- Node2&#45;&gt;Node1 -->
<g id="edge1_Node000001_Node000002" class="edge">
<title>Node2&#45;&gt;Node1</title>
<g id="a_edge1_Node000001_Node000002"><a xlink:title=" ">
<path fill="none" stroke="#9a32cd" stroke-dasharray="5,2" d="M527.17,-802.1C566.48,-805.95 623.88,-804.58 659,-772.12 728.23,-708.13 753.16,-390.82 758.05,-317.33"/>
<polygon fill="#9a32cd" stroke="#9a32cd" points="527.42,-798.61 517.09,-800.97 526.63,-805.57 527.42,-798.61"/>
</a>
</g>
<text text-anchor="middle" x="613.5" y="-806.12" font-family="Helvetica,sans-Serif" font-size="10.00" fill="grey"> _noiseType</text>
</g>
<!-- Node3 -->
<g id="Node000003" class="node">
<title>Node3</title>
<g id="a_Node000003"><a xlink:href="classMagick_1_1DrawableAffine.html" target="_top" xlink:title=" ">
<polygon fill="white" stroke="#666666" points="550,-767.62 417,-767.62 417,-748.62 550,-748.62 550,-767.62"/>
<text text-anchor="middle" x="483.5" y="-755.62" font-family="Helvetica,sans-Serif" font-size="10.00">Magick::DrawableAffine</text>
</a>
</g>
</g>
<!-- Node3&#45;&gt;Node1 -->
<g id="edge2_Node000001_Node000003" class="edge">
<title>Node3&#45;&gt;Node1</title>
<g id="a_edge2_Node000001_Node000003"><a xlink:title=" ">
<path fill="none" stroke="#9a32cd" stroke-dasharray="5,2" d="M560.28,-757.9C600.42,-756.17 644.39,-751.19 659,-738.12 724.12,-679.87 752.02,-387.21 757.82,-317.19"/>
<polygon fill="#9a32cd" stroke="#9a32cd" points="560.04,-754.4 550.17,-758.27 560.3,-761.4 560.04,-754.4"/>
</a>
</g>
<text text-anchor="middle" x="613.5" y="-760.12" font-family="Helvetica,sans-Serif" font-size="10.00" fill="grey"> _affine</text>
</g>
<!-- Node4 -->
<g id="Node000004" class="node">
<title>Node4</title>
<g id="a_Node000004"><a xlink:title=" ">
<polygon fill="white" stroke="#666666" points="282.5,-785.62 195.5,-785.62 195.5,-766.62 282.5,-766.62 282.5,-785.62"/>
<text text-anchor="middle" x="239" y="-773.62" font-family="Helvetica,sans-Serif" font-size="10.00">DrawableBase</text>
</a>
</g>
</g>
<!-- Node4&#45;&gt;Node3 -->
<g id="edge3_Node000003_Node000004" class="edge">
<title>Node4&#45;&gt;Node3</title>
<g id="a_edge3_Node000003_Node000004"><a xlink:title=" ">
<path fill="none" stroke="#63b8ff" d="M292.91,-772.19C329.28,-769.49 377.83,-765.89 416.7,-763"/>
<polygon fill="#63b8ff" stroke="#63b8ff" points="292.23,-768.73 282.52,-772.96 292.75,-775.71 292.23,-768.73"/>
</a>
</g>
</g>
<!-- Node5 -->
<g id="Node000005" class="node">
<title>Node5</title>
<g id="a_Node000005"><a xlink:href="struct__AffineMatrix.html" target="_top" xlink:title=" ">
<polygon fill="white" stroke="#666666" points="280,-748.62 198,-748.62 198,-729.62 280,-729.62 280,-748.62"/>
<text text-anchor="middle" x="239" y="-736.62" font-family="Helvetica,sans-Serif" font-size="10.00">_AffineMatrix</text>
</a>
</g>
</g>
<!-- Node5&#45;&gt;Node3 -->
<g id="edge4_Node000003_Node000005" class="edge">
<title>Node5&#45;&gt;Node3</title>
<g id="a_edge4_Node000003_Node000005"><a xlink:title=" ">
<path fill="none" stroke="#9a32cd" stroke-dasharray="5,2" d="M290.44,-741.71C321.72,-743.47 362.73,-746.02 399,-749.12 404.81,-749.61 410.84,-750.17 416.89,-750.77"/>
<polygon fill="#9a32cd" stroke="#9a32cd" points="290.4,-738.21 280.22,-741.15 290.02,-745.19 290.4,-738.21"/>
</a>
</g>
<text text-anchor="middle" x="354" y="-752.12" font-family="Helvetica,sans-Serif" font-size="10.00" fill="grey"> _affine</text>
</g>
<!-- Node6 -->
<g id="Node000006" class="node">
<title>Node6</title>
<g id="a_Node000006"><a xlink:href="classMagick_1_1Geometry.html" target="_top" xlink:title=" ">
<polygon fill="white" stroke="#666666" points="537,-694.62 430,-694.62 430,-675.62 537,-675.62 537,-694.62"/>
<text text-anchor="middle" x="483.5" y="-682.62" font-family="Helvetica,sans-Serif" font-size="10.00">Magick::Geometry</text>
</a>
</g>
</g>
<!-- Node6&#45;&gt;Node1 -->
<g id="edge5_Node000001_Node000006" class="edge">
<title>Node6&#45;&gt;Node1</title>
<g id="a_edge5_Node000001_Node000006"><a xlink:title=" ">
<path fill="none" stroke="#9a32cd" stroke-dasharray="5,2" d="M547.26,-683.22C590.35,-680.62 642.6,-674.51 659,-660.12 712.71,-612.97 748.34,-379.4 756.97,-317.3"/>
<polygon fill="#9a32cd" stroke="#9a32cd" points="546.89,-679.73 537.1,-683.78 547.27,-686.72 546.89,-679.73"/>
</a>
</g>
<text text-anchor="middle" x="613.5" y="-728.12" font-family="Helvetica,sans-Serif" font-size="10.00" fill="grey"> _cropGeometry</text>
<text text-anchor="middle" x="613.5" y="-717.12" font-family="Helvetica,sans-Serif" font-size="10.00" fill="grey">_geomery</text>
<text text-anchor="middle" x="613.5" y="-706.12" font-family="Helvetica,sans-Serif" font-size="10.00" fill="grey">_geometry</text>
<text text-anchor="middle" x="613.5" y="-695.12" font-family="Helvetica,sans-Serif" font-size="10.00" fill="grey">_imageGeometry</text>
<text text-anchor="middle" x="613.5" y="-684.12" font-family="Helvetica,sans-Serif" font-size="10.00" fill="grey">_pageSize</text>
</g>
<!-- Node7 -->
<g id="Node000007" class="node">
<title>Node7</title>
<g id="a_Node000007"><a xlink:title=" ">
<polygon fill="white" stroke="#666666" points="521,-657.62 446,-657.62 446,-638.62 521,-638.62 521,-657.62"/>
<text text-anchor="middle" x="483.5" y="-645.62" font-family="Helvetica,sans-Serif" font-size="10.00">GravityType</text>
</a>
</g>
</g>
<!-- Node7&#45;&gt;Node1 -->
<g id="edge6_Node000001_Node000007" class="edge">
<title>Node7&#45;&gt;Node1</title>
<g id="a_edge6_Node000001_Node000007"><a xlink:title=" ">
<path fill="none" stroke="#9a32cd" stroke-dasharray="5,2" d="M531.41,-647.5C576.43,-645.95 640.26,-640.93 659,-625.12 755.91,-543.35 760.48,-369.62 759.54,-317.32"/>
<polygon fill="#9a32cd" stroke="#9a32cd" points="531.16,-644.01 521.26,-647.81 531.36,-651.01 531.16,-644.01"/>
</a>
</g>
<text text-anchor="middle" x="613.5" y="-648.12" font-family="Helvetica,sans-Serif" font-size="10.00" fill="grey"> _gravity</text>
</g>
<!-- Node8 -->
<g id="Node000008" class="node">
<title>Node8</title>
<g id="a_Node000008"><a xlink:title=" ">
<polygon fill="white" stroke="#666666" points="523,-620.62 444,-620.62 444,-601.62 523,-601.62 523,-620.62"/>
<text text-anchor="middle" x="483.5" y="-608.62" font-family="Helvetica,sans-Serif" font-size="10.00">ChannelType</text>
</a>
</g>
</g>
<!-- Node8&#45;&gt;Node1 -->
<g id="edge7_Node000001_Node000008" class="edge">
<title>Node8&#45;&gt;Node1</title>
<g id="a_edge7_Node000001_Node000008"><a xlink:title=" ">
<path fill="none" stroke="#9a32cd" stroke-dasharray="5,2" d="M533.21,-611.5C577.98,-610.86 640.16,-607.15 659,-592.12 748.08,-521.02 758.11,-366.14 759,-317.23"/>
<polygon fill="#9a32cd" stroke="#9a32cd" points="533.06,-608 523.1,-611.6 533.13,-615 533.06,-608"/>
</a>
</g>
<text text-anchor="middle" x="613.5" y="-613.12" font-family="Helvetica,sans-Serif" font-size="10.00" fill="grey"> _channel</text>
</g>
<!-- Node9 -->
<g id="Node000009" class="node">
<title>Node9</title>
<g id="a_Node000009"><a xlink:href="classMagick_1_1Color.html" target="_top" xlink:title=" ">
<polygon fill="white" stroke="#666666" points="525,-508.62 442,-508.62 442,-489.62 525,-489.62 525,-508.62"/>
<text text-anchor="middle" x="483.5" y="-496.62" font-family="Helvetica,sans-Serif" font-size="10.00">Magick::Color</text>
</a>
</g>
</g>
<!-- Node9&#45;&gt;Node1 -->
<g id="edge8_Node000001_Node000009" class="edge">
<title>Node9&#45;&gt;Node1</title>
<g id="a_edge8_Node000001_Node000009"><a xlink:title=" ">
<path fill="none" stroke="#9a32cd" stroke-dasharray="5,2" d="M521.05,-486.19C535.58,-481.23 552.5,-475.67 568,-471.12 608.03,-459.37 624.78,-471.98 659,-448.12 708.14,-413.85 740.44,-347.07 753.04,-317.2"/>
<polygon fill="#9a32cd" stroke="#9a32cd" points="519.72,-482.94 511.41,-489.51 522.01,-489.56 519.72,-482.94"/>
</a>
</g>
<text text-anchor="middle" x="613.5" y="-584.12" font-family="Helvetica,sans-Serif" font-size="10.00" fill="grey"> _backgroundColor</text>
<text text-anchor="middle" x="613.5" y="-573.12" font-family="Helvetica,sans-Serif" font-size="10.00" fill="grey">_borderColor</text>
<text text-anchor="middle" x="613.5" y="-562.12" font-family="Helvetica,sans-Serif" font-size="10.00" fill="grey">_boxColor</text>
<text text-anchor="middle" x="613.5" y="-551.12" font-family="Helvetica,sans-Serif" font-size="10.00" fill="grey">_color</text>
<text text-anchor="middle" x="613.5" y="-540.12" font-family="Helvetica,sans-Serif" font-size="10.00" fill="grey">_fillColor</text>
<text text-anchor="middle" x="613.5" y="-529.12" font-family="Helvetica,sans-Serif" font-size="10.00" fill="grey">_matteColor</text>
<text text-anchor="middle" x="613.5" y="-518.12" font-family="Helvetica,sans-Serif" font-size="10.00" fill="grey">_opaqueColor</text>
<text text-anchor="middle" x="613.5" y="-507.12" font-family="Helvetica,sans-Serif" font-size="10.00" fill="grey">_penColor</text>
<text text-anchor="middle" x="613.5" y="-496.12" font-family="Helvetica,sans-Serif" font-size="10.00" fill="grey">_strokeColor</text>
<text text-anchor="middle" x="613.5" y="-485.12" font-family="Helvetica,sans-Serif" font-size="10.00" fill="grey">_target</text>
<text text-anchor="middle" x="613.5" y="-474.12" font-family="Helvetica,sans-Serif" font-size="10.00" fill="grey">...</text>
</g>
<!-- Node10 -->
<g id="Node000010" class="node">
<title>Node10</title>
<g id="a_Node000010"><a xlink:title=" ">
<polygon fill="white" stroke="#666666" points="274.5,-534.62 203.5,-534.62 203.5,-515.62 274.5,-515.62 274.5,-534.62"/>
<text text-anchor="middle" x="239" y="-522.62" font-family="Helvetica,sans-Serif" font-size="10.00">PixelPacket</text>
</a>
</g>
</g>
<!-- Node10&#45;&gt;Node9 -->
<g id="edge9_Node000009_Node000010" class="edge">
<title>Node10&#45;&gt;Node9</title>
<g id="a_edge9_Node000009_Node000010"><a xlink:title=" ">
<path fill="none" stroke="#9a32cd" stroke-dasharray="5,2" d="M284.79,-520.31C329.72,-515.5 398.3,-508.14 441.75,-503.49"/>
<polygon fill="#9a32cd" stroke="#9a32cd" points="284.31,-516.84 274.74,-521.39 285.06,-523.8 284.31,-516.84"/>
</a>
</g>
<text text-anchor="middle" x="354" y="-520.12" font-family="Helvetica,sans-Serif" font-size="10.00" fill="grey"> _pixel</text>
</g>
<!-- Node11 -->
<g id="Node000011" class="node">
<title>Node11</title>
<g id="a_Node000011"><a xlink:title=" ">
<polygon fill="white" stroke="#666666" points="530,-445.62 437,-445.62 437,-426.62 530,-426.62 530,-445.62"/>
<text text-anchor="middle" x="483.5" y="-433.62" font-family="Helvetica,sans-Serif" font-size="10.00">ColorspaceType</text>
</a>
</g>
</g>
<!-- Node11&#45;&gt;Node1 -->
<g id="edge10_Node000001_Node000011" class="edge">
<title>Node11&#45;&gt;Node1</title>
<g id="a_edge10_Node000001_Node000011"><a xlink:title=" ">
<path fill="none" stroke="#9a32cd" stroke-dasharray="5,2" d="M540.36,-437.99C576.15,-436.95 622.55,-431.31 659,-412.12 701.47,-389.74 735.02,-341.81 750.19,-317.27"/>
<polygon fill="#9a32cd" stroke="#9a32cd" points="540.02,-434.49 530.09,-438.17 540.15,-441.49 540.02,-434.49"/>
</a>
</g>
<text text-anchor="middle" x="613.5" y="-438.12" font-family="Helvetica,sans-Serif" font-size="10.00" fill="grey"> _colorSpace</text>
</g>
<!-- Node12 -->
<g id="Node000012" class="node">
<title>Node12</title>
<g id="a_Node000012"><a xlink:href="struct__Image.html" target="_top" xlink:title=" ">
<polygon fill="white" stroke="#666666" points="510,-354.62 457,-354.62 457,-335.62 510,-335.62 510,-354.62"/>
<text text-anchor="middle" x="483.5" y="-342.62" font-family="Helvetica,sans-Serif" font-size="10.00">_Image</text>
</a>
</g>
</g>
<!-- Node12&#45;&gt;Node1 -->
<g id="edge11_Node000001_Node000012" class="edge">
<title>Node12&#45;&gt;Node1</title>
<g id="a_edge11_Node000001_Node000012"><a xlink:title=" ">
<path fill="none" stroke="#9a32cd" stroke-dasharray="5,2" d="M520.28,-339.51C559.8,-333.32 624.75,-323.15 676.93,-314.97"/>
<polygon fill="#9a32cd" stroke="#9a32cd" points="519.66,-336.07 510.32,-341.07 520.75,-342.98 519.66,-336.07"/>
</a>
</g>
<text text-anchor="middle" x="613.5" y="-400.12" font-family="Helvetica,sans-Serif" font-size="10.00" fill="grey"> _compositeImage</text>
<text text-anchor="middle" x="613.5" y="-389.12" font-family="Helvetica,sans-Serif" font-size="10.00" fill="grey">_haldClutImage</text>
<text text-anchor="middle" x="613.5" y="-378.12" font-family="Helvetica,sans-Serif" font-size="10.00" fill="grey">_mapImage</text>
<text text-anchor="middle" x="613.5" y="-367.12" font-family="Helvetica,sans-Serif" font-size="10.00" fill="grey">_penTexture</text>
<text text-anchor="middle" x="613.5" y="-356.12" font-family="Helvetica,sans-Serif" font-size="10.00" fill="grey">_rightImage</text>
<text text-anchor="middle" x="613.5" y="-345.12" font-family="Helvetica,sans-Serif" font-size="10.00" fill="grey">_texture</text>
<text text-anchor="middle" x="613.5" y="-334.12" font-family="Helvetica,sans-Serif" font-size="10.00" fill="grey">_waterMark</text>
</g>
<!-- Node12&#45;&gt;Node12 -->
<g id="edge20_Node000012_Node000012" class="edge">
<title>Node12&#45;&gt;Node12</title>
<g id="a_edge20_Node000012_Node000012"><a xlink:title=" ">
<path fill="none" stroke="#9a32cd" stroke-dasharray="5,2" d="M459.8,-364.17C461.38,-369 469.28,-372.62 483.5,-372.62 506.25,-372.62 512.83,-363.35 503.23,-354.7"/>
<polygon fill="#9a32cd" stroke="#9a32cd" points="463.13,-365.27 463.77,-354.7 456.67,-362.57 463.13,-365.27"/>
</a>
</g>
<text text-anchor="middle" x="483.5" y="-397.62" font-family="Helvetica,sans-Serif" font-size="10.00" fill="grey"> list</text>
<text text-anchor="middle" x="483.5" y="-386.62" font-family="Helvetica,sans-Serif" font-size="10.00" fill="grey">next</text>
<text text-anchor="middle" x="483.5" y="-375.62" font-family="Helvetica,sans-Serif" font-size="10.00" fill="grey">previous</text>
</g>
<!-- Node13 -->
<g id="Node000013" class="node">
<title>Node13</title>
<g id="a_Node000013"><a xlink:href="struct__PixelPacket.html" target="_top" xlink:title=" ">
<polygon fill="white" stroke="#666666" points="277.5,-467.62 200.5,-467.62 200.5,-448.62 277.5,-448.62 277.5,-467.62"/>
<text text-anchor="middle" x="239" y="-455.62" font-family="Helvetica,sans-Serif" font-size="10.00">_PixelPacket</text>
</a>
</g>
</g>
<!-- Node13&#45;&gt;Node12 -->
<g id="edge12_Node000012_Node000013" class="edge">
<title>Node13&#45;&gt;Node12</title>
<g id="a_edge12_Node000012_Node000013"><a xlink:title=" ">
<path fill="none" stroke="#9a32cd" stroke-dasharray="5,2" d="M288.04,-457.68C320.95,-455.59 364.68,-449.17 399,-431.12 417.23,-421.53 457.21,-375.32 474.39,-354.88"/>
<polygon fill="#9a32cd" stroke="#9a32cd" points="287.57,-454.2 277.76,-458.22 287.93,-461.19 287.57,-454.2"/>
</a>
</g>
<text text-anchor="middle" x="354" y="-491.12" font-family="Helvetica,sans-Serif" font-size="10.00" fill="grey"> background_color</text>
<text text-anchor="middle" x="354" y="-480.12" font-family="Helvetica,sans-Serif" font-size="10.00" fill="grey">border_color</text>
<text text-anchor="middle" x="354" y="-469.12" font-family="Helvetica,sans-Serif" font-size="10.00" fill="grey">colormap</text>
<text text-anchor="middle" x="354" y="-458.12" font-family="Helvetica,sans-Serif" font-size="10.00" fill="grey">matte_color</text>
</g>
<!-- Node14 -->
<g id="Node000014" class="node">
<title>Node14</title>
<g id="a_Node000014"><a xlink:href="struct__ChromaticityInfo.html" target="_top" xlink:title=" ">
<polygon fill="white" stroke="#666666" points="291,-430.62 187,-430.62 187,-411.62 291,-411.62 291,-430.62"/>
<text text-anchor="middle" x="239" y="-418.62" font-family="Helvetica,sans-Serif" font-size="10.00">_ChromaticityInfo</text>
</a>
</g>
</g>
<!-- Node14&#45;&gt;Node12 -->
<g id="edge13_Node000012_Node000014" class="edge">
<title>Node14&#45;&gt;Node12</title>
<g id="a_edge13_Node000012_Node000014"><a xlink:title=" ">
<path fill="none" stroke="#9a32cd" stroke-dasharray="5,2" d="M301.06,-417.73C331.26,-414.61 367.82,-408.62 399,-397.12 426.72,-386.89 455.11,-366.74 470.6,-354.75"/>
<polygon fill="#9a32cd" stroke="#9a32cd" points="300.7,-414.25 291.08,-418.69 301.37,-421.22 300.7,-414.25"/>
</a>
</g>
<text text-anchor="middle" x="354" y="-419.12" font-family="Helvetica,sans-Serif" font-size="10.00" fill="grey"> chromaticity</text>
</g>
<!-- Node15 -->
<g id="Node000015" class="node">
<title>Node15</title>
<g id="a_Node000015"><a xlink:href="struct__PrimaryInfo.html" target="_top" xlink:title=" ">
<polygon fill="white" stroke="#666666" points="79,-430.62 0,-430.62 0,-411.62 79,-411.62 79,-430.62"/>
<text text-anchor="middle" x="39.5" y="-418.62" font-family="Helvetica,sans-Serif" font-size="10.00">_PrimaryInfo</text>
</a>
</g>
</g>
<!-- Node15&#45;&gt;Node14 -->
<g id="edge14_Node000014_Node000015" class="edge">
<title>Node15&#45;&gt;Node14</title>
<g id="a_edge14_Node000014_Node000015"><a xlink:title=" ">
<path fill="none" stroke="#9a32cd" stroke-dasharray="5,2" d="M89.18,-421.12C118.85,-421.12 156.72,-421.12 186.83,-421.12"/>
<polygon fill="#9a32cd" stroke="#9a32cd" points="89.05,-417.62 79.05,-421.12 89.05,-424.62 89.05,-417.62"/>
</a>
</g>
<text text-anchor="middle" x="133" y="-457.12" font-family="Helvetica,sans-Serif" font-size="10.00" fill="grey"> blue_primary</text>
<text text-anchor="middle" x="133" y="-446.12" font-family="Helvetica,sans-Serif" font-size="10.00" fill="grey">green_primary</text>
<text text-anchor="middle" x="133" y="-435.12" font-family="Helvetica,sans-Serif" font-size="10.00" fill="grey">red_primary</text>
<text text-anchor="middle" x="133" y="-424.12" font-family="Helvetica,sans-Serif" font-size="10.00" fill="grey">white_point</text>
</g>
<!-- Node16 -->
<g id="Node000016" class="node">
<title>Node16</title>
<g id="a_Node000016"><a xlink:href="struct__RectangleInfo.html" target="_top" xlink:title=" ">
<polygon fill="white" stroke="#666666" points="283.5,-392.62 194.5,-392.62 194.5,-373.62 283.5,-373.62 283.5,-392.62"/>
<text text-anchor="middle" x="239" y="-380.62" font-family="Helvetica,sans-Serif" font-size="10.00">_RectangleInfo</text>
</a>
</g>
</g>
<!-- Node16&#45;&gt;Node12 -->
<g id="edge15_Node000012_Node000016" class="edge">
<title>Node16&#45;&gt;Node12</title>
<g id="a_edge15_Node000012_Node000016"><a xlink:title=" ">
<path fill="none" stroke="#9a32cd" stroke-dasharray="5,2" d="M293.76,-374.69C344.41,-366.75 418.13,-355.2 456.74,-349.15"/>
<polygon fill="#9a32cd" stroke="#9a32cd" points="292.97,-371.27 283.63,-376.28 294.06,-378.19 292.97,-371.27"/>
</a>
</g>
<text text-anchor="middle" x="354" y="-385.12" font-family="Helvetica,sans-Serif" font-size="10.00" fill="grey"> page</text>
<text text-anchor="middle" x="354" y="-374.12" font-family="Helvetica,sans-Serif" font-size="10.00" fill="grey">tile_info</text>
</g>
<!-- Node17 -->
<g id="Node000017" class="node">
<title>Node17</title>
<g id="a_Node000017"><a xlink:href="struct__ErrorInfo.html" target="_top" xlink:title=" ">
<polygon fill="white" stroke="#666666" points="271,-355.62 207,-355.62 207,-336.62 271,-336.62 271,-355.62"/>
<text text-anchor="middle" x="239" y="-343.62" font-family="Helvetica,sans-Serif" font-size="10.00">_ErrorInfo</text>
</a>
</g>
</g>
<!-- Node17&#45;&gt;Node12 -->
<g id="edge16_Node000012_Node000017" class="edge">
<title>Node17&#45;&gt;Node12</title>
<g id="a_edge16_Node000012_Node000017"><a xlink:title=" ">
<path fill="none" stroke="#9a32cd" stroke-dasharray="5,2" d="M281.42,-345.95C331.76,-345.74 415.15,-345.39 456.95,-345.22"/>
<polygon fill="#9a32cd" stroke="#9a32cd" points="281.19,-342.45 271.21,-345.99 281.22,-349.45 281.19,-342.45"/>
</a>
</g>
<text text-anchor="middle" x="354" y="-348.12" font-family="Helvetica,sans-Serif" font-size="10.00" fill="grey"> error</text>
</g>
<!-- Node18 -->
<g id="Node000018" class="node">
<title>Node18</title>
<g id="a_Node000018"><a xlink:href="struct__TimerInfo.html" target="_top" xlink:title=" ">
<polygon fill="white" stroke="#666666" points="273.5,-318.62 204.5,-318.62 204.5,-299.62 273.5,-299.62 273.5,-318.62"/>
<text text-anchor="middle" x="239" y="-306.62" font-family="Helvetica,sans-Serif" font-size="10.00">_TimerInfo</text>
</a>
</g>
</g>
<!-- Node18&#45;&gt;Node12 -->
<g id="edge17_Node000012_Node000018" class="edge">
<title>Node18&#45;&gt;Node12</title>
<g id="a_edge17_Node000012_Node000018"><a xlink:title=" ">
<path fill="none" stroke="#9a32cd" stroke-dasharray="5,2" d="M283.49,-314.31C315.49,-318.26 360.02,-324.04 399,-330.12 418.5,-333.15 440.46,-337.12 456.97,-340.21"/>
<polygon fill="#9a32cd" stroke="#9a32cd" points="283.92,-310.83 273.57,-313.09 283.06,-317.78 283.92,-310.83"/>
</a>
</g>
<text text-anchor="middle" x="354" y="-333.12" font-family="Helvetica,sans-Serif" font-size="10.00" fill="grey"> timer</text>
</g>
<!-- Node19 -->
<g id="Node000019" class="node">
<title>Node19</title>
<g id="a_Node000019"><a xlink:href="struct__Timer.html" target="_top" xlink:title=" ">
<polygon fill="white" stroke="#666666" points="64.5,-318.62 14.5,-318.62 14.5,-299.62 64.5,-299.62 64.5,-318.62"/>
<text text-anchor="middle" x="39.5" y="-306.62" font-family="Helvetica,sans-Serif" font-size="10.00">_Timer</text>
</a>
</g>
</g>
<!-- Node19&#45;&gt;Node18 -->
<g id="edge18_Node000018_Node000019" class="edge">
<title>Node19&#45;&gt;Node18</title>
<g id="a_edge18_Node000018_Node000019"><a xlink:title=" ">
<path fill="none" stroke="#9a32cd" stroke-dasharray="5,2" d="M74.84,-309.12C111.2,-309.12 168.23,-309.12 204.33,-309.12"/>
<polygon fill="#9a32cd" stroke="#9a32cd" points="74.72,-305.62 64.72,-309.12 74.72,-312.62 74.72,-305.62"/>
</a>
</g>
<text text-anchor="middle" x="133" y="-323.12" font-family="Helvetica,sans-Serif" font-size="10.00" fill="grey"> elapsed</text>
<text text-anchor="middle" x="133" y="-312.12" font-family="Helvetica,sans-Serif" font-size="10.00" fill="grey">user</text>
</g>
<!-- Node20 -->
<g id="Node000020" class="node">
<title>Node20</title>
<g id="a_Node000020"><a xlink:href="struct__ExceptionInfo.html" target="_top" xlink:title=" ">
<polygon fill="white" stroke="#666666" points="283.5,-281.62 194.5,-281.62 194.5,-262.62 283.5,-262.62 283.5,-281.62"/>
<text text-anchor="middle" x="239" y="-269.62" font-family="Helvetica,sans-Serif" font-size="10.00">_ExceptionInfo</text>
</a>
</g>
</g>
<!-- Node20&#45;&gt;Node12 -->
<g id="edge19_Node000012_Node000020" class="edge">
<title>Node20&#45;&gt;Node12</title>
<g id="a_edge19_Node000012_Node000020"><a xlink:title=" ">
<path fill="none" stroke="#9a32cd" stroke-dasharray="5,2" d="M293.95,-272.42C326.58,-274.89 367.78,-282.25 399,-302.12 410.55,-309.47 405.76,-319.3 417,-327.12 428.72,-335.26 443.99,-339.73 456.84,-342.17"/>
<polygon fill="#9a32cd" stroke="#9a32cd" points="293.87,-268.91 283.67,-271.78 293.44,-275.89 293.87,-268.91"/>
</a>
</g>
<text text-anchor="middle" x="354" y="-305.12" font-family="Helvetica,sans-Serif" font-size="10.00" fill="grey"> exception</text>
</g>
<!-- Node21 -->
<g id="Node000021" class="node">
<title>Node21</title>
<g id="a_Node000021"><a xlink:href="struct__ImageAttribute.html" target="_top" xlink:title=" ">
<polygon fill="white" stroke="#666666" points="286.5,-204.62 191.5,-204.62 191.5,-185.62 286.5,-185.62 286.5,-204.62"/>
<text text-anchor="middle" x="239" y="-192.62" font-family="Helvetica,sans-Serif" font-size="10.00">_ImageAttribute</text>
</a>
</g>
</g>
<!-- Node21&#45;&gt;Node12 -->
<g id="edge21_Node000012_Node000021" class="edge">
<title>Node21&#45;&gt;Node12</title>
<g id="a_edge21_Node000012_Node000021"><a xlink:title=" ">
<path fill="none" stroke="#9a32cd" stroke-dasharray="5,2" d="M296.44,-204.63C330.7,-213.26 372.74,-229.38 399,-259.12 419.7,-282.55 395,-304.91 417,-327.12 427.37,-337.59 443.23,-342.13 456.75,-344.03"/>
<polygon fill="#9a32cd" stroke="#9a32cd" points="297.08,-201.19 286.55,-202.29 295.47,-208 297.08,-201.19"/>
</a>
</g>
<text text-anchor="middle" x="354" y="-262.12" font-family="Helvetica,sans-Serif" font-size="10.00" fill="grey"> attributes</text>
</g>
<!-- Node21&#45;&gt;Node21 -->
<g id="edge22_Node000021_Node000021" class="edge">
<title>Node21&#45;&gt;Node21</title>
<g id="a_edge22_Node000021_Node000021"><a xlink:title=" ">
<path fill="none" stroke="#9a32cd" stroke-dasharray="5,2" d="M219.37,-214.17C220.68,-219 227.23,-222.62 239,-222.62 257.84,-222.62 263.29,-213.35 255.34,-204.7"/>
<polygon fill="#9a32cd" stroke="#9a32cd" points="222.69,-215.29 222.66,-204.7 216.07,-213 222.69,-215.29"/>
</a>
</g>
<text text-anchor="middle" x="239" y="-236.62" font-family="Helvetica,sans-Serif" font-size="10.00" fill="grey"> next</text>
<text text-anchor="middle" x="239" y="-225.62" font-family="Helvetica,sans-Serif" font-size="10.00" fill="grey">previous</text>
</g>
<!-- Node22 -->
<g id="Node000022" class="node">
<title>Node22</title>
<g id="a_Node000022"><a xlink:href="struct__Ascii85Info.html" target="_top" xlink:title=" ">
<polygon fill="white" stroke="#666666" points="277,-167.62 201,-167.62 201,-148.62 277,-148.62 277,-167.62"/>
<text text-anchor="middle" x="239" y="-155.62" font-family="Helvetica,sans-Serif" font-size="10.00">_Ascii85Info</text>
</a>
</g>
</g>
<!-- Node22&#45;&gt;Node12 -->
<g id="edge23_Node000012_Node000022" class="edge">
<title>Node22&#45;&gt;Node12</title>
<g id="a_edge23_Node000012_Node000022"><a xlink:title=" ">
<path fill="none" stroke="#9a32cd" stroke-dasharray="5,2" d="M287.33,-155.46C323.25,-156.21 371.08,-163.62 399,-194.12 439.28,-238.11 377.73,-282.21 417,-327.12 426.86,-338.39 443.06,-342.91 456.88,-344.6"/>
<polygon fill="#9a32cd" stroke="#9a32cd" points="287.08,-151.96 277.07,-155.42 287.05,-158.96 287.08,-151.96"/>
</a>
</g>
<text text-anchor="middle" x="354" y="-197.12" font-family="Helvetica,sans-Serif" font-size="10.00" fill="grey"> ascii85</text>
</g>
<!-- Node23 -->
<g id="Node000023" class="node">
<title>Node23</title>
<g id="a_Node000023"><a xlink:title=" ">
<polygon fill="white" stroke="#666666" points="539.5,-317.62 427.5,-317.62 427.5,-298.62 539.5,-298.62 539.5,-317.62"/>
<text text-anchor="middle" x="483.5" y="-305.62" font-family="Helvetica,sans-Serif" font-size="10.00">CompositeOperator</text>
</a>
</g>
</g>
<!-- Node23&#45;&gt;Node1 -->
<g id="edge24_Node000001_Node000023" class="edge">
<title>Node23&#45;&gt;Node1</title>
<g id="a_edge24_Node000001_Node000023"><a xlink:title=" ">
<path fill="none" stroke="#9a32cd" stroke-dasharray="5,2" d="M549.96,-303.86C556.06,-303.56 562.14,-303.31 568,-303.12 603.63,-301.96 643.01,-301.59 676.72,-301.57"/>
<polygon fill="#9a32cd" stroke="#9a32cd" points="549.53,-300.37 539.73,-304.38 549.89,-307.36 549.53,-300.37"/>
</a>
</g>
<text text-anchor="middle" x="613.5" y="-306.12" font-family="Helvetica,sans-Serif" font-size="10.00" fill="grey"> _compose</text>
</g>
<!-- Node24 -->
<g id="Node000024" class="node">
<title>Node24</title>
<g id="a_Node000024"><a xlink:title=" ">
<polygon fill="white" stroke="#666666" points="522,-280.62 445,-280.62 445,-261.62 522,-261.62 522,-280.62"/>
<text text-anchor="middle" x="483.5" y="-268.62" font-family="Helvetica,sans-Serif" font-size="10.00">PaintMethod</text>
</a>
</g>
</g>
<!-- Node24&#45;&gt;Node1 -->
<g id="edge25_Node000001_Node000024" class="edge">
<title>Node24&#45;&gt;Node1</title>
<g id="a_edge25_Node000001_Node000024"><a xlink:title=" ">
<path fill="none" stroke="#9a32cd" stroke-dasharray="5,2" d="M532.01,-274.26C567.15,-276.81 616.15,-280.85 659,-286.12 664.85,-286.83 670.87,-287.64 676.94,-288.49"/>
<polygon fill="#9a32cd" stroke="#9a32cd" points="532.25,-270.77 522.03,-273.55 531.75,-277.75 532.25,-270.77"/>
</a>
</g>
<text text-anchor="middle" x="613.5" y="-289.12" font-family="Helvetica,sans-Serif" font-size="10.00" fill="grey"> _method</text>
</g>
<!-- Node25 -->
<g id="Node000025" class="node">
<title>Node25</title>
<g id="a_Node000025"><a xlink:title=" ">
<polygon fill="white" stroke="#666666" points="535,-243.62 432,-243.62 432,-224.62 535,-224.62 535,-243.62"/>
<text text-anchor="middle" x="483.5" y="-231.62" font-family="Helvetica,sans-Serif" font-size="10.00">CompressionType</text>
</a>
</g>
</g>
<!-- Node25&#45;&gt;Node1 -->
<g id="edge26_Node000001_Node000025" class="edge">
<title>Node25&#45;&gt;Node1</title>
<g id="a_edge26_Node000001_Node000025"><a xlink:title=" ">
<path fill="none" stroke="#9a32cd" stroke-dasharray="5,2" d="M545.4,-239.97C579.26,-244.11 621.93,-250.8 659,-261.12 682.68,-267.7 708.31,-278.29 727.7,-287.05"/>
<polygon fill="#9a32cd" stroke="#9a32cd" points="545.53,-236.46 535.19,-238.77 544.71,-243.42 545.53,-236.46"/>
</a>
</g>
<text text-anchor="middle" x="613.5" y="-264.12" font-family="Helvetica,sans-Serif" font-size="10.00" fill="grey"> _compressType</text>
</g>
<!-- Node26 -->
<g id="Node000026" class="node">
<title>Node26</title>
<g id="a_Node000026"><a xlink:title=" ">
<polygon fill="white" stroke="#666666" points="519.5,-206.62 447.5,-206.62 447.5,-187.62 519.5,-187.62 519.5,-206.62"/>
<text text-anchor="middle" x="483.5" y="-194.62" font-family="Helvetica,sans-Serif" font-size="10.00">EndianType</text>
</a>
</g>
</g>
<!-- Node26&#45;&gt;Node1 -->
<g id="edge27_Node000001_Node000026" class="edge">
<title>Node26&#45;&gt;Node1</title>
<g id="a_edge27_Node000001_Node000026"><a xlink:title=" ">
<path fill="none" stroke="#9a32cd" stroke-dasharray="5,2" d="M529.88,-199.47C566.09,-202.67 617.46,-210.24 659,-228.12 692.33,-242.46 724.98,-269.85 743.49,-286.98"/>
<polygon fill="#9a32cd" stroke="#9a32cd" points="529.87,-195.95 519.62,-198.64 529.31,-202.93 529.87,-195.95"/>
</a>
</g>
<text text-anchor="middle" x="613.5" y="-231.12" font-family="Helvetica,sans-Serif" font-size="10.00" fill="grey"> _endian</text>
</g>
<!-- Node27 -->
<g id="Node000027" class="node">
<title>Node27</title>
<g id="a_Node000027"><a xlink:title=" ">
<polygon fill="white" stroke="#666666" points="518,-169.62 449,-169.62 449,-150.62 518,-150.62 518,-169.62"/>
<text text-anchor="middle" x="483.5" y="-157.62" font-family="Helvetica,sans-Serif" font-size="10.00">FilterTypes</text>
</a>
</g>
</g>
<!-- Node27&#45;&gt;Node1 -->
<g id="edge28_Node000001_Node000027" class="edge">
<title>Node27&#45;&gt;Node1</title>
<g id="a_edge28_Node000001_Node000027"><a xlink:title=" ">
<path fill="none" stroke="#9a32cd" stroke-dasharray="5,2" d="M528.62,-159.44C565.59,-160.67 618.65,-166.78 659,-189.12 701.86,-212.84 735.46,-262.2 750.46,-287.08"/>
<polygon fill="#9a32cd" stroke="#9a32cd" points="528.24,-155.93 518.17,-159.2 528.09,-162.93 528.24,-155.93"/>
</a>
</g>
<text text-anchor="middle" x="613.5" y="-192.12" font-family="Helvetica,sans-Serif" font-size="10.00" fill="grey"> _filterType</text>
</g>
<!-- Node28 -->
<g id="Node000028" class="node">
<title>Node28</title>
<g id="a_Node000028"><a xlink:title=" ">
<polygon fill="white" stroke="#666666" points="524.5,-132.62 442.5,-132.62 442.5,-113.62 524.5,-113.62 524.5,-132.62"/>
<text text-anchor="middle" x="483.5" y="-120.62" font-family="Helvetica,sans-Serif" font-size="10.00">InterlaceType</text>
</a>
</g>
</g>
<!-- Node28&#45;&gt;Node1 -->
<g id="edge29_Node000001_Node000028" class="edge">
<title>Node28&#45;&gt;Node1</title>
<g id="a_edge29_Node000001_Node000028"><a xlink:title=" ">
<path fill="none" stroke="#9a32cd" stroke-dasharray="5,2" d="M534.89,-119.28C571.96,-118.88 622.11,-123.61 659,-147.12 712.48,-181.19 743.05,-255.28 754.16,-287.1"/>
<polygon fill="#9a32cd" stroke="#9a32cd" points="534.71,-115.79 524.8,-119.52 534.88,-122.78 534.71,-115.79"/>
</a>
</g>
<text text-anchor="middle" x="613.5" y="-150.12" font-family="Helvetica,sans-Serif" font-size="10.00" fill="grey"> _interlace</text>
</g>
<!-- Node29 -->
<g id="Node000029" class="node">
<title>Node29</title>
<g id="a_Node000029"><a xlink:title=" ">
<polygon fill="white" stroke="#666666" points="531,-95.62 436,-95.62 436,-76.62 531,-76.62 531,-95.62"/>
<text text-anchor="middle" x="483.5" y="-83.62" font-family="Helvetica,sans-Serif" font-size="10.00">RenderingIntent</text>
</a>
</g>
</g>
<!-- Node29&#45;&gt;Node1 -->
<g id="edge30_Node000001_Node000029" class="edge">
<title>Node29&#45;&gt;Node1</title>
<g id="a_edge30_Node000001_Node000029"><a xlink:title=" ">
<path fill="none" stroke="#9a32cd" stroke-dasharray="5,2" d="M541.32,-79.18C577.97,-77.68 624.97,-81.6 659,-105.12 723.68,-149.82 748.9,-249.25 756.38,-287.1"/>
<polygon fill="#9a32cd" stroke="#9a32cd" points="541.07,-75.69 531.28,-79.74 541.45,-82.68 541.07,-75.69"/>
</a>
</g>
<text text-anchor="middle" x="613.5" y="-108.12" font-family="Helvetica,sans-Serif" font-size="10.00" fill="grey"> _renderingIntent</text>
</g>
<!-- Node30 -->
<g id="Node000030" class="node">
<title>Node30</title>
<g id="a_Node000030"><a xlink:title=" ">
<polygon fill="white" stroke="#666666" points="529,-58.62 438,-58.62 438,-39.62 529,-39.62 529,-58.62"/>
<text text-anchor="middle" x="483.5" y="-46.62" font-family="Helvetica,sans-Serif" font-size="10.00">ResolutionType</text>
</a>
</g>
</g>
<!-- Node30&#45;&gt;Node1 -->
<g id="edge31_Node000001_Node000030" class="edge">
<title>Node30&#45;&gt;Node1</title>
<g id="a_edge31_Node000001_Node000030"><a xlink:title=" ">
<path fill="none" stroke="#9a32cd" stroke-dasharray="5,2" d="M539.19,-40.44C576.4,-37.58 624.88,-40.16 659,-65.12 734.52,-120.35 753.41,-243.9 757.78,-286.97"/>
<polygon fill="#9a32cd" stroke="#9a32cd" points="538.66,-36.98 529.02,-41.38 539.3,-43.95 538.66,-36.98"/>
</a>
</g>
<text text-anchor="middle" x="613.5" y="-68.12" font-family="Helvetica,sans-Serif" font-size="10.00" fill="grey"> _resolutionUnits</text>
</g>
<!-- Node31 -->
<g id="Node000031" class="node">
<title>Node31</title>
<g id="a_Node000031"><a xlink:title=" ">
<polygon fill="white" stroke="#666666" points="518.5,-21.62 448.5,-21.62 448.5,-2.62 518.5,-2.62 518.5,-21.62"/>
<text text-anchor="middle" x="483.5" y="-9.62" font-family="Helvetica,sans-Serif" font-size="10.00">ImageType</text>
</a>
</g>
</g>
<!-- Node31&#45;&gt;Node1 -->
<g id="edge32_Node000001_Node000031" class="edge">
<title>Node31&#45;&gt;Node1</title>
<g id="a_edge32_Node000001_Node000031"><a xlink:title=" ">
<path fill="none" stroke="#9a32cd" stroke-dasharray="5,2" d="M529.14,-3C567.46,2.15 622.18,2.84 659,-25.12 745.74,-90.97 757.37,-239 758.83,-286.87"/>
<polygon fill="#9a32cd" stroke="#9a32cd" points="528.17,0.39 518.8,-4.56 529.21,-6.53 528.17,0.39"/>
</a>
</g>
<text text-anchor="middle" x="613.5" y="-28.12" font-family="Helvetica,sans-Serif" font-size="10.00" fill="grey"> _type</text>
</g>
</g>
</svg>
