<?xml version="1.0" encoding="UTF-8" standalone="no"?>
<!DOCTYPE svg PUBLIC "-//W3C//DTD SVG 1.1//EN"
 "http://www.w3.org/Graphics/SVG/1.1/DTD/svg11.dtd">
<!-- Generated by graphviz version 2.43.0 (0)
 -->
<!-- Title: /usr/include/GraphicsMagick/magick/colorspace.h Pages: 1 -->
<svg width="1552pt" height="698pt"
 viewBox="0.00 0.00 1552.00 698.00" xmlns="http://www.w3.org/2000/svg" xmlns:xlink="http://www.w3.org/1999/xlink">
<g id="graph0" class="graph" transform="scale(1 1) rotate(0) translate(4 694)">
<title>/usr/include/GraphicsMagick/magick/colorspace.h</title>
<!-- Node1 -->
<g id="Node000001" class="node">
<title>Node1</title>
<g id="a_Node000001"><a xlink:title=" ">
<polygon fill="#999999" stroke="#666666" points="1322,-690 1168,-690 1168,-660 1322,-660 1322,-690"/>
<text text-anchor="start" x="1176" y="-678" font-family="Helvetica,sans-Serif" font-size="10.00">/usr/include/GraphicsMagick</text>
<text text-anchor="middle" x="1245" y="-667" font-family="Helvetica,sans-Serif" font-size="10.00">/magick/colorspace.h</text>
</a>
</g>
</g>
<!-- Node2 -->
<g id="Node000002" class="node">
<title>Node2</title>
<g id="a_Node000002"><a xlink:href="image_8h.html" target="_top" xlink:title=" ">
<polygon fill="white" stroke="#666666" points="1055,-624 901,-624 901,-594 1055,-594 1055,-624"/>
<text text-anchor="start" x="909" y="-612" font-family="Helvetica,sans-Serif" font-size="10.00">/usr/include/GraphicsMagick</text>
<text text-anchor="middle" x="978" y="-601" font-family="Helvetica,sans-Serif" font-size="10.00">/magick/image.h</text>
</a>
</g>
</g>
<!-- Node1&#45;&gt;Node2 -->
<g id="edge1_Node000001_Node000002" class="edge">
<title>Node1&#45;&gt;Node2</title>
<g id="a_edge1_Node000001_Node000002"><a xlink:title=" ">
<path fill="none" stroke="#63b8ff" d="M1176.51,-657.58C1133.17,-647.19 1077.73,-633.9 1036.46,-624.01"/>
<polygon fill="#63b8ff" stroke="#63b8ff" points="1175.87,-661.03 1186.41,-659.95 1177.5,-654.22 1175.87,-661.03"/>
</a>
</g>
</g>
<!-- Node21 -->
<g id="Node000021" class="node">
<title>Node21</title>
<g id="a_Node000021"><a xlink:href="chronos_8cpp.html" target="_top" xlink:title=" ">
<polygon fill="white" stroke="#666666" points="1510,-222.5 1418,-222.5 1418,-203.5 1510,-203.5 1510,-222.5"/>
<text text-anchor="middle" x="1464" y="-210.5" font-family="Helvetica,sans-Serif" font-size="10.00">src/chronos.cpp</text>
</a>
</g>
</g>
<!-- Node1&#45;&gt;Node21 -->
<g id="edge67_Node000001_Node000021" class="edge">
<title>Node1&#45;&gt;Node21</title>
<g id="a_edge67_Node000001_Node000021"><a xlink:title=" ">
<path fill="none" stroke="#63b8ff" d="M1332.43,-671.72C1420.67,-664.21 1544,-637.06 1544,-544 1544,-544 1544,-544 1544,-344 1544,-291.26 1495.66,-241.96 1474.13,-222.62"/>
<polygon fill="#63b8ff" stroke="#63b8ff" points="1332.09,-668.24 1322.39,-672.51 1332.63,-675.22 1332.09,-668.24"/>
</a>
</g>
</g>
<!-- Node3 -->
<g id="Node000003" class="node">
<title>Node3</title>
<g id="a_Node000003"><a xlink:href="analyze_8h.html" target="_top" xlink:title=" ">
<polygon fill="white" stroke="#666666" points="428,-492 274,-492 274,-462 428,-462 428,-492"/>
<text text-anchor="start" x="282" y="-480" font-family="Helvetica,sans-Serif" font-size="10.00">/usr/include/GraphicsMagick</text>
<text text-anchor="middle" x="351" y="-469" font-family="Helvetica,sans-Serif" font-size="10.00">/magick/analyze.h</text>
</a>
</g>
</g>
<!-- Node2&#45;&gt;Node3 -->
<g id="edge2_Node000002_Node000003" class="edge">
<title>Node2&#45;&gt;Node3</title>
<g id="a_edge2_Node000002_Node000003"><a xlink:title=" ">
<path fill="none" stroke="#63b8ff" d="M890.57,-606.36C759.84,-602.82 520.39,-591.8 442,-558 424.42,-550.42 385.84,-513.18 365.01,-492.29"/>
<polygon fill="#63b8ff" stroke="#63b8ff" points="890.86,-609.87 900.95,-606.63 891.04,-602.87 890.86,-609.87"/>
</a>
</g>
</g>
<!-- Node4 -->
<g id="Node000004" class="node">
<title>Node4</title>
<g id="a_Node000004"><a xlink:href="api_8h.html" target="_top" xlink:title=" ">
<polygon fill="white" stroke="#666666" points="967,-426 813,-426 813,-396 967,-396 967,-426"/>
<text text-anchor="start" x="821" y="-414" font-family="Helvetica,sans-Serif" font-size="10.00">/usr/include/GraphicsMagick</text>
<text text-anchor="middle" x="890" y="-403" font-family="Helvetica,sans-Serif" font-size="10.00">/magick/api.h</text>
</a>
</g>
</g>
<!-- Node2&#45;&gt;Node4 -->
<g id="edge43_Node000002_Node000004" class="edge">
<title>Node2&#45;&gt;Node4</title>
<g id="a_edge43_Node000002_Node000004"><a xlink:title=" ">
<path fill="none" stroke="#63b8ff" d="M890.76,-601.39C759.85,-589.37 522.8,-558.75 475,-492 467.24,-481.16 466.15,-471.98 475,-462 497,-437.19 699.08,-422.32 812.92,-415.85"/>
<polygon fill="#63b8ff" stroke="#63b8ff" points="890.49,-604.88 900.77,-602.29 891.12,-597.91 890.49,-604.88"/>
</a>
</g>
</g>
<!-- Node20 -->
<g id="Node000020" class="node">
<title>Node20</title>
<g id="a_Node000020"><a xlink:href="chronos_8hpp.html" target="_top" xlink:title=" ">
<polygon fill="white" stroke="#666666" points="1478,-288.5 1364,-288.5 1364,-269.5 1478,-269.5 1478,-288.5"/>
<text text-anchor="middle" x="1421" y="-276.5" font-family="Helvetica,sans-Serif" font-size="10.00">include/chronos.hpp</text>
</a>
</g>
</g>
<!-- Node2&#45;&gt;Node20 -->
<g id="edge65_Node000002_Node000020" class="edge">
<title>Node2&#45;&gt;Node20</title>
<g id="a_edge65_Node000002_Node000020"><a xlink:title=" ">
<path fill="none" stroke="#63b8ff" d="M1065.39,-604.06C1193.38,-597.49 1419.78,-582.55 1448,-558 1475.65,-533.95 1468,-514.65 1468,-478 1468,-478 1468,-478 1468,-410 1468,-361.76 1439.03,-309.13 1426.58,-288.74"/>
<polygon fill="#63b8ff" stroke="#63b8ff" points="1065.02,-600.57 1055.21,-604.57 1065.38,-607.56 1065.02,-600.57"/>
</a>
</g>
</g>
<!-- Node2&#45;&gt;Node21 -->
<g id="edge66_Node000002_Node000021" class="edge">
<title>Node2&#45;&gt;Node21</title>
<g id="a_edge66_Node000002_Node000021"><a xlink:title=" ">
<path fill="none" stroke="#63b8ff" d="M1065.29,-603.9C1198.12,-596.95 1439,-581.32 1471,-558 1502.37,-535.14 1506,-516.81 1506,-478 1506,-478 1506,-478 1506,-344 1506,-296.09 1479.85,-242.85 1468.82,-222.52"/>
<polygon fill="#63b8ff" stroke="#63b8ff" points="1064.94,-600.41 1055.14,-604.42 1065.31,-607.4 1064.94,-600.41"/>
</a>
</g>
</g>
<!-- Node22 -->
<g id="Node000022" class="node">
<title>Node22</title>
<g id="a_Node000022"><a xlink:href="attribute_8h.html" target="_top" xlink:title=" ">
<polygon fill="white" stroke="#666666" points="638,-492 484,-492 484,-462 638,-462 638,-492"/>
<text text-anchor="start" x="492" y="-480" font-family="Helvetica,sans-Serif" font-size="10.00">/usr/include/GraphicsMagick</text>
<text text-anchor="middle" x="561" y="-469" font-family="Helvetica,sans-Serif" font-size="10.00">/magick/attribute.h</text>
</a>
</g>
</g>
<!-- Node2&#45;&gt;Node22 -->
<g id="edge44_Node000002_Node000022" class="edge">
<title>Node2&#45;&gt;Node22</title>
<g id="a_edge44_Node000002_Node000022"><a xlink:title=" ">
<path fill="none" stroke="#63b8ff" d="M890.94,-592.07C849.35,-583.55 799.13,-571.94 755,-558 695.25,-539.13 628.21,-509.5 590.65,-492.09"/>
<polygon fill="#63b8ff" stroke="#63b8ff" points="890.27,-595.51 900.77,-594.06 891.66,-588.65 890.27,-595.51"/>
</a>
</g>
</g>
<!-- Node23 -->
<g id="Node000023" class="node">
<title>Node23</title>
<g id="a_Node000023"><a xlink:href="average_8h.html" target="_top" xlink:title=" ">
<polygon fill="white" stroke="#666666" points="810,-492 656,-492 656,-462 810,-462 810,-492"/>
<text text-anchor="start" x="664" y="-480" font-family="Helvetica,sans-Serif" font-size="10.00">/usr/include/GraphicsMagick</text>
<text text-anchor="middle" x="733" y="-469" font-family="Helvetica,sans-Serif" font-size="10.00">/magick/average.h</text>
</a>
</g>
</g>
<!-- Node2&#45;&gt;Node23 -->
<g id="edge46_Node000002_Node000023" class="edge">
<title>Node2&#45;&gt;Node23</title>
<g id="a_edge46_Node000002_Node000023"><a xlink:title=" ">
<path fill="none" stroke="#63b8ff" d="M890.44,-598.62C855.81,-591.62 817.16,-579.38 787,-558 763.21,-541.14 746.81,-510.24 738.75,-492.18"/>
<polygon fill="#63b8ff" stroke="#63b8ff" points="890.09,-602.12 900.57,-600.55 891.4,-595.24 890.09,-602.12"/>
</a>
</g>
</g>
<!-- Node24 -->
<g id="Node000024" class="node">
<title>Node24</title>
<g id="a_Node000024"><a xlink:href="blob_8h.html" target="_top" xlink:title=" ">
<polygon fill="white" stroke="#666666" points="950,-558 796,-558 796,-528 950,-528 950,-558"/>
<text text-anchor="start" x="804" y="-546" font-family="Helvetica,sans-Serif" font-size="10.00">/usr/include/GraphicsMagick</text>
<text text-anchor="middle" x="873" y="-535" font-family="Helvetica,sans-Serif" font-size="10.00">/magick/blob.h</text>
</a>
</g>
</g>
<!-- Node2&#45;&gt;Node24 -->
<g id="edge48_Node000002_Node000024" class="edge">
<title>Node2&#45;&gt;Node24</title>
<g id="a_edge48_Node000002_Node000024"><a xlink:title=" ">
<path fill="none" stroke="#63b8ff" d="M946.33,-588.69C930.12,-578.82 910.75,-567.01 895.99,-558.01"/>
<polygon fill="#63b8ff" stroke="#63b8ff" points="944.6,-591.74 954.96,-593.95 948.24,-585.76 944.6,-591.74"/>
</a>
</g>
</g>
<!-- Node25 -->
<g id="Node000025" class="node">
<title>Node25</title>
<g id="a_Node000025"><a xlink:href="enum__strings_8h.html" target="_top" xlink:title=" ">
<polygon fill="white" stroke="#666666" points="1020,-492 866,-492 866,-462 1020,-462 1020,-492"/>
<text text-anchor="start" x="874" y="-480" font-family="Helvetica,sans-Serif" font-size="10.00">/usr/include/GraphicsMagick</text>
<text text-anchor="middle" x="943" y="-469" font-family="Helvetica,sans-Serif" font-size="10.00">/magick/enum_strings.h</text>
</a>
</g>
</g>
<!-- Node2&#45;&gt;Node25 -->
<g id="edge56_Node000002_Node000025" class="edge">
<title>Node2&#45;&gt;Node25</title>
<g id="a_edge56_Node000002_Node000025"><a xlink:title=" ">
<path fill="none" stroke="#63b8ff" d="M972.73,-583.68C969.16,-567.76 964.16,-546.55 959,-528 955.63,-515.88 951.24,-502.3 947.91,-492.35"/>
<polygon fill="#63b8ff" stroke="#63b8ff" points="969.38,-584.75 974.96,-593.75 976.22,-583.23 969.38,-584.75"/>
</a>
</g>
</g>
<!-- Node26 -->
<g id="Node000026" class="node">
<title>Node26</title>
<g id="a_Node000026"><a xlink:href="colormap_8h.html" target="_top" xlink:title=" ">
<polygon fill="white" stroke="#666666" points="1402,-492 1248,-492 1248,-462 1402,-462 1402,-492"/>
<text text-anchor="start" x="1256" y="-480" font-family="Helvetica,sans-Serif" font-size="10.00">/usr/include/GraphicsMagick</text>
<text text-anchor="middle" x="1325" y="-469" font-family="Helvetica,sans-Serif" font-size="10.00">/magick/colormap.h</text>
</a>
</g>
</g>
<!-- Node2&#45;&gt;Node26 -->
<g id="edge52_Node000002_Node000026" class="edge">
<title>Node2&#45;&gt;Node26</title>
<g id="a_edge52_Node000002_Node000026"><a xlink:title=" ">
<path fill="none" stroke="#63b8ff" d="M1065.12,-601.99C1115.86,-595.82 1179.89,-583.32 1232,-558 1249.43,-549.53 1289.08,-512.67 1310.55,-492.07"/>
<polygon fill="#63b8ff" stroke="#63b8ff" points="1064.69,-598.52 1055.16,-603.14 1065.5,-605.47 1064.69,-598.52"/>
</a>
</g>
</g>
<!-- Node27 -->
<g id="Node000027" class="node">
<title>Node27</title>
<g id="a_Node000027"><a xlink:href="describe_8h.html" target="_top" xlink:title=" ">
<polygon fill="white" stroke="#666666" points="1192,-492 1038,-492 1038,-462 1192,-462 1192,-492"/>
<text text-anchor="start" x="1046" y="-480" font-family="Helvetica,sans-Serif" font-size="10.00">/usr/include/GraphicsMagick</text>
<text text-anchor="middle" x="1115" y="-469" font-family="Helvetica,sans-Serif" font-size="10.00">/magick/describe.h</text>
</a>
</g>
</g>
<!-- Node2&#45;&gt;Node27 -->
<g id="edge54_Node000002_Node000027" class="edge">
<title>Node2&#45;&gt;Node27</title>
<g id="a_edge54_Node000002_Node000027"><a xlink:title=" ">
<path fill="none" stroke="#63b8ff" d="M999.55,-586.57C1015.97,-570.34 1039.22,-547.57 1060,-528 1072.96,-515.79 1087.93,-502.21 1098.98,-492.29"/>
<polygon fill="#63b8ff" stroke="#63b8ff" points="996.72,-584.45 992.07,-593.97 1001.64,-589.42 996.72,-584.45"/>
</a>
</g>
</g>
<!-- Node28 -->
<g id="Node000028" class="node">
<title>Node28</title>
<g id="a_Node000028"><a xlink:href="gradient_8h.html" target="_top" xlink:title=" ">
<polygon fill="white" stroke="#666666" points="1223,-558 1069,-558 1069,-528 1223,-528 1223,-558"/>
<text text-anchor="start" x="1077" y="-546" font-family="Helvetica,sans-Serif" font-size="10.00">/usr/include/GraphicsMagick</text>
<text text-anchor="middle" x="1146" y="-535" font-family="Helvetica,sans-Serif" font-size="10.00">/magick/gradient.h</text>
</a>
</g>
</g>
<!-- Node2&#45;&gt;Node28 -->
<g id="edge57_Node000002_Node000028" class="edge">
<title>Node2&#45;&gt;Node28</title>
<g id="a_edge57_Node000002_Node000028"><a xlink:title=" ">
<path fill="none" stroke="#63b8ff" d="M1024.4,-590.32C1051.14,-580.14 1084.29,-567.51 1109.22,-558.01"/>
<polygon fill="#63b8ff" stroke="#63b8ff" points="1022.97,-587.12 1014.87,-593.95 1025.46,-593.67 1022.97,-587.12"/>
</a>
</g>
</g>
<!-- Node29 -->
<g id="Node000029" class="node">
<title>Node29</title>
<g id="a_Node000029"><a xlink:href="plasma_8h.html" target="_top" xlink:title=" ">
<polygon fill="white" stroke="#666666" points="1439,-558 1285,-558 1285,-528 1439,-528 1439,-558"/>
<text text-anchor="start" x="1293" y="-546" font-family="Helvetica,sans-Serif" font-size="10.00">/usr/include/GraphicsMagick</text>
<text text-anchor="middle" x="1362" y="-535" font-family="Helvetica,sans-Serif" font-size="10.00">/magick/plasma.h</text>
</a>
</g>
</g>
<!-- Node2&#45;&gt;Node29 -->
<g id="edge59_Node000002_Node000029" class="edge">
<title>Node2&#45;&gt;Node29</title>
<g id="a_edge59_Node000002_Node000029"><a xlink:title=" ">
<path fill="none" stroke="#63b8ff" d="M1065.23,-593.46C1131.36,-582.44 1221.37,-567.44 1284.88,-556.85"/>
<polygon fill="#63b8ff" stroke="#63b8ff" points="1064.53,-590.03 1055.25,-595.13 1065.69,-596.93 1064.53,-590.03"/>
</a>
</g>
</g>
<!-- Node30 -->
<g id="Node000030" class="node">
<title>Node30</title>
<g id="a_Node000030"><a xlink:href="statistics_8h.html" target="_top" xlink:title=" ">
<polygon fill="white" stroke="#666666" points="218,-558 64,-558 64,-528 218,-528 218,-558"/>
<text text-anchor="start" x="72" y="-546" font-family="Helvetica,sans-Serif" font-size="10.00">/usr/include/GraphicsMagick</text>
<text text-anchor="middle" x="141" y="-535" font-family="Helvetica,sans-Serif" font-size="10.00">/magick/statistics.h</text>
</a>
</g>
</g>
<!-- Node2&#45;&gt;Node30 -->
<g id="edge61_Node000002_Node000030" class="edge">
<title>Node2&#45;&gt;Node30</title>
<g id="a_edge61_Node000002_Node000030"><a xlink:title=" ">
<path fill="none" stroke="#63b8ff" d="M890.49,-604.87C750.15,-599.24 466.22,-585.37 227,-558 224.14,-557.67 221.24,-557.32 218.31,-556.94"/>
<polygon fill="#63b8ff" stroke="#63b8ff" points="890.62,-608.38 900.75,-605.28 890.9,-601.38 890.62,-608.38"/>
</a>
</g>
</g>
<!-- Node31 -->
<g id="Node000031" class="node">
<title>Node31</title>
<g id="a_Node000031"><a xlink:href="texture_8h.html" target="_top" xlink:title=" ">
<polygon fill="white" stroke="#666666" points="390,-558 236,-558 236,-528 390,-528 390,-558"/>
<text text-anchor="start" x="244" y="-546" font-family="Helvetica,sans-Serif" font-size="10.00">/usr/include/GraphicsMagick</text>
<text text-anchor="middle" x="313" y="-535" font-family="Helvetica,sans-Serif" font-size="10.00">/magick/texture.h</text>
</a>
</g>
</g>
<!-- Node2&#45;&gt;Node31 -->
<g id="edge63_Node000002_Node000031" class="edge">
<title>Node2&#45;&gt;Node31</title>
<g id="a_edge63_Node000002_Node000031"><a xlink:title=" ">
<path fill="none" stroke="#63b8ff" d="M890.48,-602.17C777.77,-594.26 575.91,-578.69 404,-558 399.56,-557.47 395,-556.88 390.4,-556.26"/>
<polygon fill="#63b8ff" stroke="#63b8ff" points="890.55,-605.69 900.77,-602.89 891.04,-598.7 890.55,-605.69"/>
</a>
</g>
</g>
<!-- Node3&#45;&gt;Node4 -->
<g id="edge3_Node000003_Node000004" class="edge">
<title>Node3&#45;&gt;Node4</title>
<g id="a_edge3_Node000003_Node000004"><a xlink:title=" ">
<path fill="none" stroke="#63b8ff" d="M438.65,-462.45C439.77,-462.3 440.89,-462.15 442,-462 571.95,-444.76 723.64,-428.67 812.99,-419.61"/>
<polygon fill="#63b8ff" stroke="#63b8ff" points="437.84,-459.03 428.41,-463.87 438.8,-465.96 437.84,-459.03"/>
</a>
</g>
</g>
<!-- Node5 -->
<g id="Node000005" class="node">
<title>Node5</title>
<g id="a_Node000005"><a xlink:href="Include_8h.html" target="_top" xlink:title=" ">
<polygon fill="white" stroke="#666666" points="707,-360 553,-360 553,-330 707,-330 707,-360"/>
<text text-anchor="start" x="561" y="-348" font-family="Helvetica,sans-Serif" font-size="10.00">/usr/include/GraphicsMagick</text>
<text text-anchor="middle" x="630" y="-337" font-family="Helvetica,sans-Serif" font-size="10.00">/Magick++/Include.h</text>
</a>
</g>
</g>
<!-- Node4&#45;&gt;Node5 -->
<g id="edge4_Node000004_Node000005" class="edge">
<title>Node4&#45;&gt;Node5</title>
<g id="a_edge4_Node000004_Node000005"><a xlink:title=" ">
<path fill="none" stroke="#63b8ff" d="M823.04,-393.52C780.87,-383.14 727.03,-369.88 686.93,-360.01"/>
<polygon fill="#63b8ff" stroke="#63b8ff" points="822.4,-396.96 832.94,-395.95 824.07,-390.17 822.4,-396.96"/>
</a>
</g>
</g>
<!-- Node18 -->
<g id="Node000018" class="node">
<title>Node18</title>
<g id="a_Node000018"><a xlink:href="magick__wand_8h.html" target="_top" xlink:title=" ">
<polygon fill="white" stroke="#666666" points="1330,-360 1176,-360 1176,-330 1330,-330 1330,-360"/>
<text text-anchor="start" x="1184" y="-348" font-family="Helvetica,sans-Serif" font-size="10.00">/usr/include/GraphicsMagick</text>
<text text-anchor="middle" x="1253" y="-337" font-family="Helvetica,sans-Serif" font-size="10.00">/wand/magick_wand.h</text>
</a>
</g>
</g>
<!-- Node4&#45;&gt;Node18 -->
<g id="edge36_Node000004_Node000018" class="edge">
<title>Node4&#45;&gt;Node18</title>
<g id="a_edge36_Node000004_Node000018"><a xlink:title=" ">
<path fill="none" stroke="#63b8ff" d="M977.34,-394.6C1037.8,-383.94 1117.54,-369.88 1175.69,-359.63"/>
<polygon fill="#63b8ff" stroke="#63b8ff" points="976.67,-391.17 967.43,-396.35 977.88,-398.06 976.67,-391.17"/>
</a>
</g>
</g>
<!-- Node19 -->
<g id="Node000019" class="node">
<title>Node19</title>
<g id="a_Node000019"><a xlink:href="wand__api_8h.html" target="_top" xlink:title=" ">
<polygon fill="white" stroke="#666666" points="1308,-294 1154,-294 1154,-264 1308,-264 1308,-294"/>
<text text-anchor="start" x="1162" y="-282" font-family="Helvetica,sans-Serif" font-size="10.00">/usr/include/GraphicsMagick</text>
<text text-anchor="middle" x="1231" y="-271" font-family="Helvetica,sans-Serif" font-size="10.00">/wand/wand_api.h</text>
</a>
</g>
</g>
<!-- Node4&#45;&gt;Node19 -->
<g id="edge41_Node000004_Node000019" class="edge">
<title>Node4&#45;&gt;Node19</title>
<g id="a_edge41_Node000004_Node000019"><a xlink:title=" ">
<path fill="none" stroke="#63b8ff" d="M936.48,-392.28C1004.95,-366.18 1131.55,-317.91 1194.08,-294.08"/>
<polygon fill="#63b8ff" stroke="#63b8ff" points="934.91,-389.13 926.82,-395.96 937.41,-395.67 934.91,-389.13"/>
</a>
</g>
</g>
<!-- Node4&#45;&gt;Node20 -->
<g id="edge42_Node000004_Node000020" class="edge">
<title>Node4&#45;&gt;Node20</title>
<g id="a_edge42_Node000004_Node000020"><a xlink:title=" ">
<path fill="none" stroke="#63b8ff" d="M977.71,-406.97C1089.85,-401.95 1276.95,-389.36 1339,-360 1374.06,-343.41 1403.28,-305.68 1415.22,-288.64"/>
<polygon fill="#63b8ff" stroke="#63b8ff" points="977.27,-403.49 967.43,-407.42 977.57,-410.48 977.27,-403.49"/>
</a>
</g>
</g>
<!-- Node6 -->
<g id="Node000006" class="node">
<title>Node6</title>
<g id="a_Node000006"><a xlink:href="Magick_09_09_8h.html" target="_top" xlink:title=" ">
<polygon fill="white" stroke="#666666" points="588,-30 434,-30 434,0 588,0 588,-30"/>
<text text-anchor="start" x="442" y="-18" font-family="Helvetica,sans-Serif" font-size="10.00">/usr/include/GraphicsMagick</text>
<text text-anchor="middle" x="511" y="-7" font-family="Helvetica,sans-Serif" font-size="10.00">/Magick++.h</text>
</a>
</g>
</g>
<!-- Node5&#45;&gt;Node6 -->
<g id="edge5_Node000005_Node000006" class="edge">
<title>Node5&#45;&gt;Node6</title>
<g id="a_edge5_Node000005_Node000006"><a xlink:title=" ">
<path fill="none" stroke="#63b8ff" d="M542.65,-343.96C369.65,-341.52 0,-323.5 0,-214 0,-214 0,-214 0,-146 0,-57.55 291.19,-28.56 433.94,-19.66"/>
<polygon fill="#63b8ff" stroke="#63b8ff" points="542.71,-347.46 552.75,-344.09 542.79,-340.47 542.71,-347.46"/>
</a>
</g>
</g>
<!-- Node7 -->
<g id="Node000007" class="node">
<title>Node7</title>
<g id="a_Node000007"><a xlink:href="Blob_8h.html" target="_top" xlink:title=" ">
<polygon fill="white" stroke="#666666" points="1060,-228 906,-228 906,-198 1060,-198 1060,-228"/>
<text text-anchor="start" x="914" y="-216" font-family="Helvetica,sans-Serif" font-size="10.00">/usr/include/GraphicsMagick</text>
<text text-anchor="middle" x="983" y="-205" font-family="Helvetica,sans-Serif" font-size="10.00">/Magick++/Blob.h</text>
</a>
</g>
</g>
<!-- Node5&#45;&gt;Node7 -->
<g id="edge6_Node000005_Node000007" class="edge">
<title>Node5&#45;&gt;Node7</title>
<g id="a_edge6_Node000005_Node000007"><a xlink:title=" ">
<path fill="none" stroke="#63b8ff" d="M717.39,-339.18C797.87,-333.15 909.92,-320.25 945,-294 966.54,-277.88 976.39,-246.41 980.47,-228.12"/>
<polygon fill="#63b8ff" stroke="#63b8ff" points="716.97,-335.7 707.25,-339.91 717.47,-342.68 716.97,-335.7"/>
</a>
</g>
</g>
<!-- Node8 -->
<g id="Node000008" class="node">
<title>Node8</title>
<g id="a_Node000008"><a xlink:href="Image_8h.html" target="_top" xlink:title=" ">
<polygon fill="white" stroke="#666666" points="812,-162 658,-162 658,-132 812,-132 812,-162"/>
<text text-anchor="start" x="666" y="-150" font-family="Helvetica,sans-Serif" font-size="10.00">/usr/include/GraphicsMagick</text>
<text text-anchor="middle" x="735" y="-139" font-family="Helvetica,sans-Serif" font-size="10.00">/Magick++/Image.h</text>
</a>
</g>
</g>
<!-- Node5&#45;&gt;Node8 -->
<g id="edge30_Node000005_Node000008" class="edge">
<title>Node5&#45;&gt;Node8</title>
<g id="a_edge30_Node000005_Node000008"><a xlink:title=" ">
<path fill="none" stroke="#63b8ff" d="M717.19,-341.69C787.51,-337.36 887.86,-325.58 970,-294 1019.36,-275.02 1044.05,-274.62 1069,-228 1075.29,-216.24 1077.7,-208.1 1069,-198 1036.52,-160.3 900.26,-150.61 812.13,-148.36"/>
<polygon fill="#63b8ff" stroke="#63b8ff" points="716.82,-338.2 707.04,-342.27 717.23,-345.19 716.82,-338.2"/>
</a>
</g>
</g>
<!-- Node9 -->
<g id="Node000009" class="node">
<title>Node9</title>
<g id="a_Node000009"><a xlink:href="Pixels_8h.html" target="_top" xlink:title=" ">
<polygon fill="white" stroke="#666666" points="759,-96 605,-96 605,-66 759,-66 759,-96"/>
<text text-anchor="start" x="613" y="-84" font-family="Helvetica,sans-Serif" font-size="10.00">/usr/include/GraphicsMagick</text>
<text text-anchor="middle" x="682" y="-73" font-family="Helvetica,sans-Serif" font-size="10.00">/Magick++/Pixels.h</text>
</a>
</g>
</g>
<!-- Node5&#45;&gt;Node9 -->
<g id="edge32_Node000005_Node000009" class="edge">
<title>Node5&#45;&gt;Node9</title>
<g id="a_edge32_Node000005_Node000009"><a xlink:title=" ">
<path fill="none" stroke="#63b8ff" d="M717.58,-339.31C815.65,-332.92 967.57,-319.26 1019,-294 1056.23,-275.71 1069.12,-266.33 1085,-228 1090.1,-215.68 1093.02,-208.65 1085,-198 1045.87,-146.01 864.9,-110.07 759.25,-93.11"/>
<polygon fill="#63b8ff" stroke="#63b8ff" points="717.14,-335.83 707.38,-339.96 717.58,-342.82 717.14,-335.83"/>
</a>
</g>
</g>
<!-- Node10 -->
<g id="Node000010" class="node">
<title>Node10</title>
<g id="a_Node000010"><a xlink:href="CoderInfo_8h.html" target="_top" xlink:title=" ">
<polygon fill="white" stroke="#666666" points="182,-228 28,-228 28,-198 182,-198 182,-228"/>
<text text-anchor="start" x="36" y="-216" font-family="Helvetica,sans-Serif" font-size="10.00">/usr/include/GraphicsMagick</text>
<text text-anchor="middle" x="105" y="-205" font-family="Helvetica,sans-Serif" font-size="10.00">/Magick++/CoderInfo.h</text>
</a>
</g>
</g>
<!-- Node5&#45;&gt;Node10 -->
<g id="edge11_Node000005_Node000010" class="edge">
<title>Node5&#45;&gt;Node10</title>
<g id="a_edge11_Node000005_Node000010"><a xlink:title=" ">
<path fill="none" stroke="#63b8ff" d="M542.39,-340.08C433.91,-334.16 256.1,-320.69 196,-294 162.16,-278.97 131.84,-246.8 116.19,-228.15"/>
<polygon fill="#63b8ff" stroke="#63b8ff" points="542.49,-343.59 552.67,-340.63 542.87,-336.6 542.49,-343.59"/>
</a>
</g>
</g>
<!-- Node11 -->
<g id="Node000011" class="node">
<title>Node11</title>
<g id="a_Node000011"><a xlink:href="STL_8h.html" target="_top" xlink:title=" ">
<polygon fill="white" stroke="#666666" points="431,-162 277,-162 277,-132 431,-132 431,-162"/>
<text text-anchor="start" x="285" y="-150" font-family="Helvetica,sans-Serif" font-size="10.00">/usr/include/GraphicsMagick</text>
<text text-anchor="middle" x="354" y="-139" font-family="Helvetica,sans-Serif" font-size="10.00">/Magick++/STL.h</text>
</a>
</g>
</g>
<!-- Node5&#45;&gt;Node11 -->
<g id="edge33_Node000005_Node000011" class="edge">
<title>Node5&#45;&gt;Node11</title>
<g id="a_edge33_Node000005_Node000011"><a xlink:title=" ">
<path fill="none" stroke="#63b8ff" d="M542.71,-341.85C477.37,-337.52 387.06,-325.63 314,-294 270.11,-275 250.03,-270.96 229,-228 223.14,-216.02 221.52,-209.04 229,-198 240.66,-180.77 259.32,-169.48 278.71,-162.08"/>
<polygon fill="#63b8ff" stroke="#63b8ff" points="542.78,-345.36 552.97,-342.48 543.21,-338.37 542.78,-345.36"/>
</a>
</g>
</g>
<!-- Node12 -->
<g id="Node000012" class="node">
<title>Node12</title>
<g id="a_Node000012"><a xlink:href="Color_8h.html" target="_top" xlink:title=" ">
<polygon fill="white" stroke="#666666" points="707,-294 553,-294 553,-264 707,-264 707,-294"/>
<text text-anchor="start" x="561" y="-282" font-family="Helvetica,sans-Serif" font-size="10.00">/usr/include/GraphicsMagick</text>
<text text-anchor="middle" x="630" y="-271" font-family="Helvetica,sans-Serif" font-size="10.00">/Magick++/Color.h</text>
</a>
</g>
</g>
<!-- Node5&#45;&gt;Node12 -->
<g id="edge14_Node000005_Node000012" class="edge">
<title>Node5&#45;&gt;Node12</title>
<g id="a_edge14_Node000005_Node000012"><a xlink:title=" ">
<path fill="none" stroke="#63b8ff" d="M630,-319.54C630,-310.96 630,-301.61 630,-294.16"/>
<polygon fill="#63b8ff" stroke="#63b8ff" points="626.5,-319.8 630,-329.8 633.5,-319.8 626.5,-319.8"/>
</a>
</g>
</g>
<!-- Node13 -->
<g id="Node000013" class="node">
<title>Node13</title>
<g id="a_Node000013"><a xlink:href="Drawable_8h.html" target="_top" xlink:title=" ">
<polygon fill="white" stroke="#666666" points="602,-228 448,-228 448,-198 602,-198 602,-228"/>
<text text-anchor="start" x="456" y="-216" font-family="Helvetica,sans-Serif" font-size="10.00">/usr/include/GraphicsMagick</text>
<text text-anchor="middle" x="525" y="-205" font-family="Helvetica,sans-Serif" font-size="10.00">/Magick++/Drawable.h</text>
</a>
</g>
</g>
<!-- Node5&#45;&gt;Node13 -->
<g id="edge22_Node000005_Node000013" class="edge">
<title>Node5&#45;&gt;Node13</title>
<g id="a_edge22_Node000005_Node000013"><a xlink:title=" ">
<path fill="none" stroke="#63b8ff" d="M582.42,-325.22C568.19,-317.49 553.8,-307.19 544,-294 529.45,-274.4 525.86,-245.29 525.08,-228.12"/>
<polygon fill="#63b8ff" stroke="#63b8ff" points="581.19,-328.52 591.69,-329.93 584.36,-322.28 581.19,-328.52"/>
</a>
</g>
</g>
<!-- Node14 -->
<g id="Node000014" class="node">
<title>Node14</title>
<g id="a_Node000014"><a xlink:href="Montage_8h.html" target="_top" xlink:title=" ">
<polygon fill="white" stroke="#666666" points="392,-228 238,-228 238,-198 392,-198 392,-228"/>
<text text-anchor="start" x="246" y="-216" font-family="Helvetica,sans-Serif" font-size="10.00">/usr/include/GraphicsMagick</text>
<text text-anchor="middle" x="315" y="-205" font-family="Helvetica,sans-Serif" font-size="10.00">/Magick++/Montage.h</text>
</a>
</g>
</g>
<!-- Node5&#45;&gt;Node14 -->
<g id="edge31_Node000005_Node000014" class="edge">
<title>Node5&#45;&gt;Node14</title>
<g id="a_edge31_Node000005_Node000014"><a xlink:title=" ">
<path fill="none" stroke="#63b8ff" d="M542.66,-339.74C466.46,-334.19 363.58,-321.7 334,-294 315.87,-277.02 313.61,-246.17 314.02,-228.14"/>
<polygon fill="#63b8ff" stroke="#63b8ff" points="542.54,-343.24 552.76,-340.44 543.03,-336.26 542.54,-343.24"/>
</a>
</g>
</g>
<!-- Node15 -->
<g id="Node000015" class="node">
<title>Node15</title>
<g id="a_Node000015"><a xlink:href="Exception_8h.html" target="_top" xlink:title=" ">
<polygon fill="white" stroke="#666666" points="812,-228 658,-228 658,-198 812,-198 812,-228"/>
<text text-anchor="start" x="666" y="-216" font-family="Helvetica,sans-Serif" font-size="10.00">/usr/include/GraphicsMagick</text>
<text text-anchor="middle" x="735" y="-205" font-family="Helvetica,sans-Serif" font-size="10.00">/Magick++/Exception.h</text>
</a>
</g>
</g>
<!-- Node5&#45;&gt;Node15 -->
<g id="edge23_Node000005_Node000015" class="edge">
<title>Node5&#45;&gt;Node15</title>
<g id="a_edge23_Node000005_Node000015"><a xlink:title=" ">
<path fill="none" stroke="#63b8ff" d="M677.58,-325.22C691.81,-317.49 706.2,-307.19 716,-294 730.55,-274.4 734.14,-245.29 734.92,-228.12"/>
<polygon fill="#63b8ff" stroke="#63b8ff" points="675.64,-322.28 668.31,-329.93 678.81,-328.52 675.64,-322.28"/>
</a>
</g>
</g>
<!-- Node16 -->
<g id="Node000016" class="node">
<title>Node16</title>
<g id="a_Node000016"><a xlink:href="Geometry_8h.html" target="_top" xlink:title=" ">
<polygon fill="white" stroke="#666666" points="497,-294 343,-294 343,-264 497,-264 497,-294"/>
<text text-anchor="start" x="351" y="-282" font-family="Helvetica,sans-Serif" font-size="10.00">/usr/include/GraphicsMagick</text>
<text text-anchor="middle" x="420" y="-271" font-family="Helvetica,sans-Serif" font-size="10.00">/Magick++/Geometry.h</text>
</a>
</g>
</g>
<!-- Node5&#45;&gt;Node16 -->
<g id="edge26_Node000005_Node000016" class="edge">
<title>Node5&#45;&gt;Node16</title>
<g id="a_edge26_Node000005_Node000016"><a xlink:title=" ">
<path fill="none" stroke="#63b8ff" d="M574.18,-326.99C540.39,-316.69 497.82,-303.72 465.98,-294.01"/>
<polygon fill="#63b8ff" stroke="#63b8ff" points="573.33,-330.39 583.91,-329.95 575.37,-323.69 573.33,-330.39"/>
</a>
</g>
</g>
<!-- Node17 -->
<g id="Node000017" class="node">
<title>Node17</title>
<g id="a_Node000017"><a xlink:href="TypeMetric_8h.html" target="_top" xlink:title=" ">
<polygon fill="white" stroke="#666666" points="936,-294 782,-294 782,-264 936,-264 936,-294"/>
<text text-anchor="start" x="790" y="-282" font-family="Helvetica,sans-Serif" font-size="10.00">/usr/include/GraphicsMagick</text>
<text text-anchor="middle" x="859" y="-271" font-family="Helvetica,sans-Serif" font-size="10.00">/Magick++/TypeMetric.h</text>
</a>
</g>
</g>
<!-- Node5&#45;&gt;Node17 -->
<g id="edge34_Node000005_Node000017" class="edge">
<title>Node5&#45;&gt;Node17</title>
<g id="a_edge34_Node000005_Node000017"><a xlink:title=" ">
<path fill="none" stroke="#63b8ff" d="M689.92,-327.25C726.92,-316.91 773.84,-303.8 808.86,-294.01"/>
<polygon fill="#63b8ff" stroke="#63b8ff" points="688.94,-323.89 680.26,-329.95 690.83,-330.63 688.94,-323.89"/>
</a>
</g>
</g>
<!-- Node7&#45;&gt;Node8 -->
<g id="edge7_Node000007_Node000008" class="edge">
<title>Node7&#45;&gt;Node8</title>
<g id="a_edge7_Node000007_Node000008"><a xlink:title=" ">
<path fill="none" stroke="#63b8ff" d="M918.87,-195.45C878.69,-185.08 827.47,-171.86 789.3,-162.01"/>
<polygon fill="#63b8ff" stroke="#63b8ff" points="918.02,-198.85 928.58,-197.95 919.77,-192.07 918.02,-198.85"/>
</a>
</g>
</g>
<!-- Node8&#45;&gt;Node6 -->
<g id="edge8_Node000008_Node000006" class="edge">
<title>Node8&#45;&gt;Node6</title>
<g id="a_edge8_Node000008_Node000006"><a xlink:title=" ">
<path fill="none" stroke="#63b8ff" d="M670.66,-128.94C646.26,-120.94 618.87,-110.03 596,-96 566.29,-77.78 538.13,-47.93 522.85,-30.3"/>
<polygon fill="#63b8ff" stroke="#63b8ff" points="669.61,-132.28 680.2,-131.97 671.73,-125.61 669.61,-132.28"/>
</a>
</g>
</g>
<!-- Node8&#45;&gt;Node9 -->
<g id="edge9_Node000008_Node000009" class="edge">
<title>Node8&#45;&gt;Node9</title>
<g id="a_edge9_Node000008_Node000009"><a xlink:title=" ">
<path fill="none" stroke="#63b8ff" d="M716.85,-124.09C709.2,-114.85 700.52,-104.36 693.73,-96.16"/>
<polygon fill="#63b8ff" stroke="#63b8ff" points="714.16,-126.33 723.24,-131.8 719.56,-121.86 714.16,-126.33"/>
</a>
</g>
</g>
<!-- Node9&#45;&gt;Node6 -->
<g id="edge10_Node000009_Node000006" class="edge">
<title>Node9&#45;&gt;Node6</title>
<g id="a_edge10_Node000009_Node000006"><a xlink:title=" ">
<path fill="none" stroke="#63b8ff" d="M634.77,-62.32C607.55,-52.14 573.81,-39.51 548.44,-30.01"/>
<polygon fill="#63b8ff" stroke="#63b8ff" points="633.88,-65.73 644.47,-65.95 636.33,-59.17 633.88,-65.73"/>
</a>
</g>
</g>
<!-- Node10&#45;&gt;Node11 -->
<g id="edge12_Node000010_Node000011" class="edge">
<title>Node10&#45;&gt;Node11</title>
<g id="a_edge12_Node000010_Node000011"><a xlink:title=" ">
<path fill="none" stroke="#63b8ff" d="M169.38,-195.45C209.73,-185.08 261.16,-171.86 299.48,-162.01"/>
<polygon fill="#63b8ff" stroke="#63b8ff" points="168.46,-192.08 159.64,-197.95 170.2,-198.86 168.46,-192.08"/>
</a>
</g>
</g>
<!-- Node11&#45;&gt;Node6 -->
<g id="edge13_Node000011_Node000006" class="edge">
<title>Node11&#45;&gt;Node6</title>
<g id="a_edge13_Node000011_Node000006"><a xlink:title=" ">
<path fill="none" stroke="#63b8ff" d="M379.15,-125.18C411.33,-98.53 466.21,-53.09 493.92,-30.14"/>
<polygon fill="#63b8ff" stroke="#63b8ff" points="376.57,-122.77 371.1,-131.84 381.04,-128.16 376.57,-122.77"/>
</a>
</g>
</g>
<!-- Node12&#45;&gt;Node8 -->
<g id="edge18_Node000012_Node000008" class="edge">
<title>Node12&#45;&gt;Node8</title>
<g id="a_edge18_Node000012_Node000008"><a xlink:title=" ">
<path fill="none" stroke="#63b8ff" d="M717.07,-265.72C761.01,-257.56 807.76,-245.15 821,-228 829.15,-217.45 827.65,-209.56 821,-198 811.53,-181.53 794.32,-169.99 777.77,-162.17"/>
<polygon fill="#63b8ff" stroke="#63b8ff" points="716.39,-262.29 707.17,-267.5 717.63,-269.18 716.39,-262.29"/>
</a>
</g>
</g>
<!-- Node12&#45;&gt;Node9 -->
<g id="edge21_Node000012_Node000009" class="edge">
<title>Node12&#45;&gt;Node9</title>
<g id="a_edge21_Node000012_Node000009"><a xlink:title=" ">
<path fill="none" stroke="#63b8ff" d="M629.86,-253.56C630.43,-223.89 633.82,-172.78 649,-132 653.86,-118.94 662.68,-105.85 669.97,-96.34"/>
<polygon fill="#63b8ff" stroke="#63b8ff" points="626.35,-253.78 629.76,-263.81 633.35,-253.85 626.35,-253.78"/>
</a>
</g>
</g>
<!-- Node12&#45;&gt;Node13 -->
<g id="edge15_Node000012_Node000013" class="edge">
<title>Node12&#45;&gt;Node13</title>
<g id="a_edge15_Node000012_Node000013"><a xlink:title=" ">
<path fill="none" stroke="#63b8ff" d="M598.33,-258.69C582.12,-248.82 562.75,-237.01 547.99,-228.01"/>
<polygon fill="#63b8ff" stroke="#63b8ff" points="596.6,-261.74 606.96,-263.95 600.24,-255.76 596.6,-261.74"/>
</a>
</g>
</g>
<!-- Node12&#45;&gt;Node14 -->
<g id="edge19_Node000012_Node000014" class="edge">
<title>Node12&#45;&gt;Node14</title>
<g id="a_edge19_Node000012_Node000014"><a xlink:title=" ">
<path fill="none" stroke="#63b8ff" d="M550.81,-261.91C499.44,-251.47 433.17,-238.01 383.97,-228.01"/>
<polygon fill="#63b8ff" stroke="#63b8ff" points="550.38,-265.39 560.87,-263.95 551.77,-258.53 550.38,-265.39"/>
</a>
</g>
</g>
<!-- Node13&#45;&gt;Node8 -->
<g id="edge16_Node000013_Node000008" class="edge">
<title>Node13&#45;&gt;Node8</title>
<g id="a_edge16_Node000013_Node000008"><a xlink:title=" ">
<path fill="none" stroke="#63b8ff" d="M580.82,-194.99C614.61,-184.69 657.18,-171.72 689.02,-162.01"/>
<polygon fill="#63b8ff" stroke="#63b8ff" points="579.63,-191.69 571.09,-197.95 581.67,-198.39 579.63,-191.69"/>
</a>
</g>
</g>
<!-- Node13&#45;&gt;Node11 -->
<g id="edge17_Node000013_Node000011" class="edge">
<title>Node13&#45;&gt;Node11</title>
<g id="a_edge17_Node000013_Node000011"><a xlink:title=" ">
<path fill="none" stroke="#63b8ff" d="M477.77,-194.32C450.55,-184.14 416.81,-171.51 391.44,-162.01"/>
<polygon fill="#63b8ff" stroke="#63b8ff" points="476.88,-197.73 487.47,-197.95 479.33,-191.17 476.88,-197.73"/>
</a>
</g>
</g>
<!-- Node14&#45;&gt;Node11 -->
<g id="edge20_Node000014_Node000011" class="edge">
<title>Node14&#45;&gt;Node11</title>
<g id="a_edge20_Node000014_Node000011"><a xlink:title=" ">
<path fill="none" stroke="#63b8ff" d="M328.87,-189.24C334.37,-180.21 340.53,-170.11 345.37,-162.16"/>
<polygon fill="#63b8ff" stroke="#63b8ff" points="325.87,-187.44 323.66,-197.8 331.85,-191.08 325.87,-187.44"/>
</a>
</g>
</g>
<!-- Node15&#45;&gt;Node8 -->
<g id="edge24_Node000015_Node000008" class="edge">
<title>Node15&#45;&gt;Node8</title>
<g id="a_edge24_Node000015_Node000008"><a xlink:title=" ">
<path fill="none" stroke="#63b8ff" d="M735,-187.54C735,-178.96 735,-169.61 735,-162.16"/>
<polygon fill="#63b8ff" stroke="#63b8ff" points="731.5,-187.8 735,-197.8 738.5,-187.8 731.5,-187.8"/>
</a>
</g>
</g>
<!-- Node15&#45;&gt;Node11 -->
<g id="edge25_Node000015_Node000011" class="edge">
<title>Node15&#45;&gt;Node11</title>
<g id="a_edge25_Node000015_Node000011"><a xlink:title=" ">
<path fill="none" stroke="#63b8ff" d="M648.03,-197.39C582.74,-186.42 494.14,-171.54 431.31,-160.99"/>
<polygon fill="#63b8ff" stroke="#63b8ff" points="647.46,-200.84 657.9,-199.05 648.62,-193.94 647.46,-200.84"/>
</a>
</g>
</g>
<!-- Node16&#45;&gt;Node8 -->
<g id="edge28_Node000016_Node000008" class="edge">
<title>Node16&#45;&gt;Node8</title>
<g id="a_edge28_Node000016_Node000008"><a xlink:title=" ">
<path fill="none" stroke="#63b8ff" d="M419.1,-253.82C419.81,-235.86 423.91,-212.12 439,-198 469.91,-169.06 580.85,-156.71 657.76,-151.56"/>
<polygon fill="#63b8ff" stroke="#63b8ff" points="415.6,-253.83 419.02,-263.86 422.6,-253.89 415.6,-253.83"/>
</a>
</g>
</g>
<!-- Node16&#45;&gt;Node13 -->
<g id="edge27_Node000016_Node000013" class="edge">
<title>Node16&#45;&gt;Node13</title>
<g id="a_edge27_Node000016_Node000013"><a xlink:title=" ">
<path fill="none" stroke="#63b8ff" d="M451.67,-258.69C467.88,-248.82 487.25,-237.01 502.01,-228.01"/>
<polygon fill="#63b8ff" stroke="#63b8ff" points="449.76,-255.76 443.04,-263.95 453.4,-261.74 449.76,-255.76"/>
</a>
</g>
</g>
<!-- Node16&#45;&gt;Node14 -->
<g id="edge29_Node000016_Node000014" class="edge">
<title>Node16&#45;&gt;Node14</title>
<g id="a_edge29_Node000016_Node000014"><a xlink:title=" ">
<path fill="none" stroke="#63b8ff" d="M388.33,-258.69C372.12,-248.82 352.75,-237.01 337.99,-228.01"/>
<polygon fill="#63b8ff" stroke="#63b8ff" points="386.6,-261.74 396.96,-263.95 390.24,-255.76 386.6,-261.74"/>
</a>
</g>
</g>
<!-- Node17&#45;&gt;Node8 -->
<g id="edge35_Node000017_Node000008" class="edge">
<title>Node17&#45;&gt;Node8</title>
<g id="a_edge35_Node000017_Node000008"><a xlink:title=" ">
<path fill="none" stroke="#63b8ff" d="M857.52,-253.58C855.32,-236.35 849.96,-213.65 837,-198 823.23,-181.37 802.57,-169.82 783.45,-162.04"/>
<polygon fill="#63b8ff" stroke="#63b8ff" points="854.08,-254.37 858.55,-263.98 861.04,-253.68 854.08,-254.37"/>
</a>
</g>
</g>
<!-- Node18&#45;&gt;Node19 -->
<g id="edge37_Node000018_Node000019" class="edge">
<title>Node18&#45;&gt;Node19</title>
<g id="a_edge37_Node000018_Node000019"><a xlink:title=" ">
<path fill="none" stroke="#63b8ff" d="M1244.79,-320.11C1241.79,-311.38 1238.49,-301.78 1235.87,-294.16"/>
<polygon fill="#63b8ff" stroke="#63b8ff" points="1241.56,-321.48 1248.12,-329.8 1248.18,-319.2 1241.56,-321.48"/>
</a>
</g>
</g>
<!-- Node18&#45;&gt;Node20 -->
<g id="edge38_Node000018_Node000020" class="edge">
<title>Node18&#45;&gt;Node20</title>
<g id="a_edge38_Node000018_Node000020"><a xlink:title=" ">
<path fill="none" stroke="#63b8ff" d="M1299.57,-326.26C1331.88,-313.95 1373.47,-298.11 1398.64,-288.52"/>
<polygon fill="#63b8ff" stroke="#63b8ff" points="1297.97,-323.12 1289.87,-329.95 1300.46,-329.67 1297.97,-323.12"/>
</a>
</g>
</g>
<!-- Node18&#45;&gt;Node21 -->
<g id="edge40_Node000018_Node000021" class="edge">
<title>Node18&#45;&gt;Node21</title>
<g id="a_edge40_Node000018_Node000021"><a xlink:title=" ">
<path fill="none" stroke="#63b8ff" d="M1279.23,-323.56C1290.81,-314.51 1304.6,-303.74 1317,-294 1333.92,-280.71 1336.65,-275.23 1355,-264 1383.24,-246.72 1418.44,-231.62 1441.07,-222.65"/>
<polygon fill="#63b8ff" stroke="#63b8ff" points="1276.96,-320.89 1271.23,-329.8 1281.26,-326.41 1276.96,-320.89"/>
</a>
</g>
</g>
<!-- Node20&#45;&gt;Node21 -->
<g id="edge39_Node000020_Node000021" class="edge">
<title>Node20&#45;&gt;Node21</title>
<g id="a_edge39_Node000020_Node000021"><a xlink:title=" ">
<path fill="none" stroke="#63b8ff" d="M1432.48,-260.91C1440.7,-248.68 1451.44,-232.7 1458.02,-222.91"/>
<polygon fill="#63b8ff" stroke="#63b8ff" points="1429.47,-259.12 1426.8,-269.37 1435.28,-263.02 1429.47,-259.12"/>
</a>
</g>
</g>
<!-- Node22&#45;&gt;Node4 -->
<g id="edge45_Node000022_Node000004" class="edge">
<title>Node22&#45;&gt;Node4</title>
<g id="a_edge45_Node000022_Node000004"><a xlink:title=" ">
<path fill="none" stroke="#63b8ff" d="M643.04,-460.04C696.79,-449.59 766.37,-436.05 817.97,-426.01"/>
<polygon fill="#63b8ff" stroke="#63b8ff" points="642.35,-456.61 633.2,-461.95 643.68,-463.48 642.35,-456.61"/>
</a>
</g>
</g>
<!-- Node23&#45;&gt;Node4 -->
<g id="edge47_Node000023_Node000004" class="edge">
<title>Node23&#45;&gt;Node4</title>
<g id="a_edge47_Node000023_Node000004"><a xlink:title=" ">
<path fill="none" stroke="#63b8ff" d="M777.02,-458.05C801.9,-447.91 832.53,-435.43 855.63,-426.01"/>
<polygon fill="#63b8ff" stroke="#63b8ff" points="775.39,-454.94 767.45,-461.95 778.04,-461.42 775.39,-454.94"/>
</a>
</g>
</g>
<!-- Node24&#45;&gt;Node4 -->
<g id="edge49_Node000024_Node000004" class="edge">
<title>Node24&#45;&gt;Node4</title>
<g id="a_edge49_Node000024_Node000004"><a xlink:title=" ">
<path fill="none" stroke="#63b8ff" d="M862.22,-518.26C856.39,-502.19 851.42,-480.58 857,-462 861.01,-448.65 869.86,-435.58 877.39,-426.15"/>
<polygon fill="#63b8ff" stroke="#63b8ff" points="859.13,-519.93 866.08,-527.93 865.63,-517.34 859.13,-519.93"/>
</a>
</g>
</g>
<!-- Node24&#45;&gt;Node25 -->
<g id="edge50_Node000024_Node000025" class="edge">
<title>Node24&#45;&gt;Node25</title>
<g id="a_edge50_Node000024_Node000025"><a xlink:title=" ">
<path fill="none" stroke="#63b8ff" d="M896.05,-520.92C906.37,-511.49 918.27,-500.61 927.51,-492.16"/>
<polygon fill="#63b8ff" stroke="#63b8ff" points="893.55,-518.47 888.54,-527.8 898.28,-523.63 893.55,-518.47"/>
</a>
</g>
</g>
<!-- Node25&#45;&gt;Node4 -->
<g id="edge51_Node000025_Node000004" class="edge">
<title>Node25&#45;&gt;Node4</title>
<g id="a_edge51_Node000025_Node000004"><a xlink:title=" ">
<path fill="none" stroke="#63b8ff" d="M924.85,-454.09C917.2,-444.85 908.52,-434.36 901.73,-426.16"/>
<polygon fill="#63b8ff" stroke="#63b8ff" points="922.16,-456.33 931.24,-461.8 927.56,-451.86 922.16,-456.33"/>
</a>
</g>
</g>
<!-- Node26&#45;&gt;Node4 -->
<g id="edge53_Node000026_Node000004" class="edge">
<title>Node26&#45;&gt;Node4</title>
<g id="a_edge53_Node000026_Node000004"><a xlink:title=" ">
<path fill="none" stroke="#63b8ff" d="M1237.34,-462.5C1236.22,-462.33 1235.11,-462.17 1234,-462 1142.38,-448.29 1036.96,-433.05 967.22,-423.04"/>
<polygon fill="#63b8ff" stroke="#63b8ff" points="1237.15,-466.01 1247.56,-464.04 1238.19,-459.09 1237.15,-466.01"/>
</a>
</g>
</g>
<!-- Node27&#45;&gt;Node4 -->
<g id="edge55_Node000027_Node000004" class="edge">
<title>Node27&#45;&gt;Node4</title>
<g id="a_edge55_Node000027_Node000004"><a xlink:title=" ">
<path fill="none" stroke="#63b8ff" d="M1055.66,-459.12C1019.38,-448.8 973.53,-435.76 939.26,-426.01"/>
<polygon fill="#63b8ff" stroke="#63b8ff" points="1055.05,-462.59 1065.62,-461.95 1056.96,-455.85 1055.05,-462.59"/>
</a>
</g>
</g>
<!-- Node28&#45;&gt;Node4 -->
<g id="edge58_Node000028_Node000004" class="edge">
<title>Node28&#45;&gt;Node4</title>
<g id="a_edge58_Node000028_Node000004"><a xlink:title=" ">
<path fill="none" stroke="#63b8ff" d="M1175.62,-521.54C1196.18,-504.86 1217.21,-481.03 1201,-462 1171.52,-427.4 1049.17,-416.65 967,-413.37"/>
<polygon fill="#63b8ff" stroke="#63b8ff" points="1173.31,-518.9 1167.54,-527.78 1177.59,-524.44 1173.31,-518.9"/>
</a>
</g>
</g>
<!-- Node29&#45;&gt;Node4 -->
<g id="edge60_Node000029_Node000004" class="edge">
<title>Node29&#45;&gt;Node4</title>
<g id="a_edge60_Node000029_Node000004"><a xlink:title=" ">
<path fill="none" stroke="#63b8ff" d="M1388.92,-521.31C1407.94,-504.25 1427.37,-480.01 1411,-462 1381.76,-429.82 1105.08,-417.81 967.25,-413.8"/>
<polygon fill="#63b8ff" stroke="#63b8ff" points="1386.51,-518.76 1381.18,-527.92 1391.06,-524.09 1386.51,-518.76"/>
</a>
</g>
</g>
<!-- Node30&#45;&gt;Node4 -->
<g id="edge62_Node000030_Node000004" class="edge">
<title>Node30&#45;&gt;Node4</title>
<g id="a_edge62_Node000030_Node000004"><a xlink:title=" ">
<path fill="none" stroke="#63b8ff" d="M162.73,-521.1C184.08,-502 218.53,-474.84 254,-462 354.76,-425.53 666.56,-415.63 812.8,-412.96"/>
<polygon fill="#63b8ff" stroke="#63b8ff" points="160.23,-518.65 155.21,-527.98 164.95,-523.81 160.23,-518.65"/>
</a>
</g>
</g>
<!-- Node31&#45;&gt;Node4 -->
<g id="edge64_Node000031_Node000004" class="edge">
<title>Node31&#45;&gt;Node4</title>
<g id="a_edge64_Node000031_Node000004"><a xlink:title=" ">
<path fill="none" stroke="#63b8ff" d="M286.18,-520.96C267.51,-503.84 248.66,-479.7 265,-462 301.46,-422.51 653.65,-414.19 812.72,-412.45"/>
<polygon fill="#63b8ff" stroke="#63b8ff" points="284.23,-523.9 294.06,-527.83 288.82,-518.62 284.23,-523.9"/>
</a>
</g>
</g>
</g>
</svg>
