<?xml version="1.0" encoding="UTF-8" standalone="no"?>
<!DOCTYPE svg PUBLIC "-//W3C//DTD SVG 1.1//EN"
 "http://www.w3.org/Graphics/SVG/1.1/DTD/svg11.dtd">
<!-- Generated by graphviz version 2.43.0 (0)
 -->
<!-- Title: /usr/include/GraphicsMagick/Magick++/Color.h Pages: 1 -->
<svg width="424pt" height="302pt"
 viewBox="0.00 0.00 424.00 302.00" xmlns="http://www.w3.org/2000/svg" xmlns:xlink="http://www.w3.org/1999/xlink">
<g id="graph0" class="graph" transform="scale(1 1) rotate(0) translate(4 298)">
<title>/usr/include/GraphicsMagick/Magick++/Color.h</title>
<!-- Node1 -->
<g id="Node000001" class="node">
<title>Node1</title>
<g id="a_Node000001"><a xlink:title=" ">
<polygon fill="#999999" stroke="#666666" points="378,-294 224,-294 224,-264 378,-264 378,-294"/>
<text text-anchor="start" x="232" y="-282" font-family="Helvetica,sans-Serif" font-size="10.00">/usr/include/GraphicsMagick</text>
<text text-anchor="middle" x="301" y="-271" font-family="Helvetica,sans-Serif" font-size="10.00">/Magick++/Color.h</text>
</a>
</g>
</g>
<!-- Node2 -->
<g id="Node000002" class="node">
<title>Node2</title>
<g id="a_Node000002"><a xlink:href="Drawable_8h.html" target="_top" xlink:title=" ">
<polygon fill="white" stroke="#666666" points="326,-228 172,-228 172,-198 326,-198 326,-228"/>
<text text-anchor="start" x="180" y="-216" font-family="Helvetica,sans-Serif" font-size="10.00">/usr/include/GraphicsMagick</text>
<text text-anchor="middle" x="249" y="-205" font-family="Helvetica,sans-Serif" font-size="10.00">/Magick++/Drawable.h</text>
</a>
</g>
</g>
<!-- Node1&#45;&gt;Node2 -->
<g id="edge1_Node000001_Node000002" class="edge">
<title>Node1&#45;&gt;Node2</title>
<g id="a_edge1_Node000001_Node000002"><a xlink:title=" ">
<path fill="none" stroke="#63b8ff" d="M282.97,-255.81C275.52,-246.64 267.1,-236.28 260.51,-228.16"/>
<polygon fill="#63b8ff" stroke="#63b8ff" points="280.44,-258.24 289.46,-263.8 285.87,-253.83 280.44,-258.24"/>
</a>
</g>
</g>
<!-- Node3 -->
<g id="Node000003" class="node">
<title>Node3</title>
<g id="a_Node000003"><a xlink:href="Image_8h.html" target="_top" xlink:title=" ">
<polygon fill="white" stroke="#666666" points="364,-162 210,-162 210,-132 364,-132 364,-162"/>
<text text-anchor="start" x="218" y="-150" font-family="Helvetica,sans-Serif" font-size="10.00">/usr/include/GraphicsMagick</text>
<text text-anchor="middle" x="287" y="-139" font-family="Helvetica,sans-Serif" font-size="10.00">/Magick++/Image.h</text>
</a>
</g>
</g>
<!-- Node1&#45;&gt;Node3 -->
<g id="edge8_Node000001_Node000003" class="edge">
<title>Node1&#45;&gt;Node3</title>
<g id="a_edge8_Node000001_Node000003"><a xlink:title=" ">
<path fill="none" stroke="#63b8ff" d="M320.46,-255.7C331.97,-239.71 342.89,-217.61 335,-198 329.25,-183.71 317.25,-171.21 306.69,-162.28"/>
<polygon fill="#63b8ff" stroke="#63b8ff" points="317.46,-253.85 314.12,-263.91 323,-258.13 317.46,-253.85"/>
</a>
</g>
</g>
<!-- Node5 -->
<g id="Node000005" class="node">
<title>Node5</title>
<g id="a_Node000005"><a xlink:href="Pixels_8h.html" target="_top" xlink:title=" ">
<polygon fill="white" stroke="#666666" points="416,-96 262,-96 262,-66 416,-66 416,-96"/>
<text text-anchor="start" x="270" y="-84" font-family="Helvetica,sans-Serif" font-size="10.00">/usr/include/GraphicsMagick</text>
<text text-anchor="middle" x="339" y="-73" font-family="Helvetica,sans-Serif" font-size="10.00">/Magick++/Pixels.h</text>
</a>
</g>
</g>
<!-- Node1&#45;&gt;Node5 -->
<g id="edge11_Node000001_Node000005" class="edge">
<title>Node1&#45;&gt;Node5</title>
<g id="a_edge11_Node000001_Node000005"><a xlink:title=" ">
<path fill="none" stroke="#63b8ff" d="M325.74,-256.95C334.34,-248.63 343.46,-238.54 350,-228 366.38,-201.6 367.82,-192.63 373,-162 375.23,-148.85 376.92,-144.74 373,-132 368.86,-118.56 359.74,-105.49 351.99,-96.08"/>
<polygon fill="#63b8ff" stroke="#63b8ff" points="323.34,-254.4 318.4,-263.77 328.11,-259.53 323.34,-254.4"/>
</a>
</g>
</g>
<!-- Node7 -->
<g id="Node000007" class="node">
<title>Node7</title>
<g id="a_Node000007"><a xlink:href="Montage_8h.html" target="_top" xlink:title=" ">
<polygon fill="white" stroke="#666666" points="154,-228 0,-228 0,-198 154,-198 154,-228"/>
<text text-anchor="start" x="8" y="-216" font-family="Helvetica,sans-Serif" font-size="10.00">/usr/include/GraphicsMagick</text>
<text text-anchor="middle" x="77" y="-205" font-family="Helvetica,sans-Serif" font-size="10.00">/Magick++/Montage.h</text>
</a>
</g>
</g>
<!-- Node1&#45;&gt;Node7 -->
<g id="edge9_Node000001_Node000007" class="edge">
<title>Node1&#45;&gt;Node7</title>
<g id="a_edge9_Node000001_Node000007"><a xlink:title=" ">
<path fill="none" stroke="#63b8ff" d="M241.93,-261.12C205.81,-250.8 160.16,-237.76 126.04,-228.01"/>
<polygon fill="#63b8ff" stroke="#63b8ff" points="241.27,-264.57 251.84,-263.95 243.19,-257.84 241.27,-264.57"/>
</a>
</g>
</g>
<!-- Node2&#45;&gt;Node3 -->
<g id="edge2_Node000002_Node000003" class="edge">
<title>Node2&#45;&gt;Node3</title>
<g id="a_edge2_Node000002_Node000003"><a xlink:title=" ">
<path fill="none" stroke="#63b8ff" d="M262.68,-188.96C268,-180 273.92,-170.03 278.59,-162.16"/>
<polygon fill="#63b8ff" stroke="#63b8ff" points="259.53,-187.41 257.43,-197.8 265.55,-190.98 259.53,-187.41"/>
</a>
</g>
</g>
<!-- Node6 -->
<g id="Node000006" class="node">
<title>Node6</title>
<g id="a_Node000006"><a xlink:href="STL_8h.html" target="_top" xlink:title=" ">
<polygon fill="white" stroke="#666666" points="192,-162 38,-162 38,-132 192,-132 192,-162"/>
<text text-anchor="start" x="46" y="-150" font-family="Helvetica,sans-Serif" font-size="10.00">/usr/include/GraphicsMagick</text>
<text text-anchor="middle" x="115" y="-139" font-family="Helvetica,sans-Serif" font-size="10.00">/Magick++/STL.h</text>
</a>
</g>
</g>
<!-- Node2&#45;&gt;Node6 -->
<g id="edge6_Node000002_Node000006" class="edge">
<title>Node2&#45;&gt;Node6</title>
<g id="a_edge6_Node000002_Node000006"><a xlink:title=" ">
<path fill="none" stroke="#63b8ff" d="M210.29,-193.51C189.27,-183.47 163.7,-171.26 144.34,-162.01"/>
<polygon fill="#63b8ff" stroke="#63b8ff" points="209.06,-196.8 219.59,-197.95 212.08,-190.49 209.06,-196.8"/>
</a>
</g>
</g>
<!-- Node4 -->
<g id="Node000004" class="node">
<title>Node4</title>
<g id="a_Node000004"><a xlink:href="Magick_09_09_8h.html" target="_top" xlink:title=" ">
<polygon fill="white" stroke="#666666" points="311,-30 157,-30 157,0 311,0 311,-30"/>
<text text-anchor="start" x="165" y="-18" font-family="Helvetica,sans-Serif" font-size="10.00">/usr/include/GraphicsMagick</text>
<text text-anchor="middle" x="234" y="-7" font-family="Helvetica,sans-Serif" font-size="10.00">/Magick++.h</text>
</a>
</g>
</g>
<!-- Node3&#45;&gt;Node4 -->
<g id="edge3_Node000003_Node000004" class="edge">
<title>Node3&#45;&gt;Node4</title>
<g id="a_edge3_Node000003_Node000004"><a xlink:title=" ">
<path fill="none" stroke="#63b8ff" d="M269.39,-123.86C263.46,-115.52 257.27,-105.7 253,-96 243.33,-74.06 238.17,-46.46 235.76,-30.08"/>
<polygon fill="#63b8ff" stroke="#63b8ff" points="266.62,-126 275.39,-131.95 272.25,-121.83 266.62,-126"/>
</a>
</g>
</g>
<!-- Node3&#45;&gt;Node5 -->
<g id="edge4_Node000003_Node000005" class="edge">
<title>Node3&#45;&gt;Node5</title>
<g id="a_edge4_Node000003_Node000005"><a xlink:title=" ">
<path fill="none" stroke="#63b8ff" d="M305.03,-123.81C312.48,-114.64 320.9,-104.28 327.49,-96.16"/>
<polygon fill="#63b8ff" stroke="#63b8ff" points="302.13,-121.83 298.54,-131.8 307.56,-126.24 302.13,-121.83"/>
</a>
</g>
</g>
<!-- Node5&#45;&gt;Node4 -->
<g id="edge5_Node000005_Node000004" class="edge">
<title>Node5&#45;&gt;Node4</title>
<g id="a_edge5_Node000005_Node000004"><a xlink:title=" ">
<path fill="none" stroke="#63b8ff" d="M307.33,-60.69C291.12,-50.82 271.75,-39.01 256.99,-30.01"/>
<polygon fill="#63b8ff" stroke="#63b8ff" points="305.6,-63.74 315.96,-65.95 309.24,-57.76 305.6,-63.74"/>
</a>
</g>
</g>
<!-- Node6&#45;&gt;Node4 -->
<g id="edge7_Node000006_Node000004" class="edge">
<title>Node6&#45;&gt;Node4</title>
<g id="a_edge7_Node000006_Node000004"><a xlink:title=" ">
<path fill="none" stroke="#63b8ff" d="M135,-124.15C159.51,-97.38 200.32,-52.79 221.05,-30.14"/>
<polygon fill="#63b8ff" stroke="#63b8ff" points="132.13,-122.1 127.96,-131.84 137.3,-126.83 132.13,-122.1"/>
</a>
</g>
</g>
<!-- Node7&#45;&gt;Node6 -->
<g id="edge10_Node000007_Node000006" class="edge">
<title>Node7&#45;&gt;Node6</title>
<g id="a_edge10_Node000007_Node000006"><a xlink:title=" ">
<path fill="none" stroke="#63b8ff" d="M90.68,-188.96C96,-180 101.92,-170.03 106.59,-162.16"/>
<polygon fill="#63b8ff" stroke="#63b8ff" points="87.53,-187.41 85.43,-197.8 93.55,-190.98 87.53,-187.41"/>
</a>
</g>
</g>
</g>
</svg>
