<?xml version="1.0" encoding="UTF-8" standalone="no"?>
<!DOCTYPE svg PUBLIC "-//W3C//DTD SVG 1.1//EN"
 "http://www.w3.org/Graphics/SVG/1.1/DTD/svg11.dtd">
<!-- Generated by graphviz version 2.43.0 (0)
 -->
<!-- Title: /usr/include/GraphicsMagick/magick/common.h Pages: 1 -->
<svg width="1506pt" height="500pt"
 viewBox="0.00 0.00 1506.00 500.00" xmlns="http://www.w3.org/2000/svg" xmlns:xlink="http://www.w3.org/1999/xlink">
<g id="graph0" class="graph" transform="scale(1 1) rotate(0) translate(4 496)">
<title>/usr/include/GraphicsMagick/magick/common.h</title>
<!-- Node1 -->
<g id="Node000001" class="node">
<title>Node1</title>
<g id="a_Node000001"><a xlink:title=" ">
<polygon fill="#999999" stroke="#666666" points="154,-492 0,-492 0,-462 154,-462 154,-492"/>
<text text-anchor="start" x="8" y="-480" font-family="Helvetica,sans-Serif" font-size="10.00">/usr/include/GraphicsMagick</text>
<text text-anchor="middle" x="77" y="-469" font-family="Helvetica,sans-Serif" font-size="10.00">/magick/common.h</text>
</a>
</g>
</g>
<!-- Node2 -->
<g id="Node000002" class="node">
<title>Node2</title>
<g id="a_Node000002"><a xlink:href="api_8h.html" target="_top" xlink:title=" ">
<polygon fill="white" stroke="#666666" points="239,-426 85,-426 85,-396 239,-396 239,-426"/>
<text text-anchor="start" x="93" y="-414" font-family="Helvetica,sans-Serif" font-size="10.00">/usr/include/GraphicsMagick</text>
<text text-anchor="middle" x="162" y="-403" font-family="Helvetica,sans-Serif" font-size="10.00">/magick/api.h</text>
</a>
</g>
</g>
<!-- Node1&#45;&gt;Node2 -->
<g id="edge1_Node000001_Node000002" class="edge">
<title>Node1&#45;&gt;Node2</title>
<g id="a_edge1_Node000001_Node000002"><a xlink:title=" ">
<path fill="none" stroke="#63b8ff" d="M103.89,-455.75C116.67,-446.13 131.64,-434.86 143.19,-426.16"/>
<polygon fill="#63b8ff" stroke="#63b8ff" points="101.75,-452.99 95.86,-461.8 105.96,-458.58 101.75,-452.99"/>
</a>
</g>
</g>
<!-- Node19 -->
<g id="Node000019" class="node">
<title>Node19</title>
<g id="a_Node000019"><a xlink:href="chronos_8cpp.html" target="_top" xlink:title=" ">
<polygon fill="white" stroke="#666666" points="123,-222.5 31,-222.5 31,-203.5 123,-203.5 123,-222.5"/>
<text text-anchor="middle" x="77" y="-210.5" font-family="Helvetica,sans-Serif" font-size="10.00">src/chronos.cpp</text>
</a>
</g>
</g>
<!-- Node1&#45;&gt;Node19 -->
<g id="edge41_Node000001_Node000019" class="edge">
<title>Node1&#45;&gt;Node19</title>
<g id="a_edge41_Node000001_Node000019"><a xlink:title=" ">
<path fill="none" stroke="#63b8ff" d="M59.23,-453.56C30.11,-413.87 -21.46,-329.31 11,-264 20.66,-244.56 41.89,-230.66 57.67,-222.52"/>
<polygon fill="#63b8ff" stroke="#63b8ff" points="56.6,-455.89 65.41,-461.77 62.19,-451.68 56.6,-455.89"/>
</a>
</g>
</g>
<!-- Node3 -->
<g id="Node000003" class="node">
<title>Node3</title>
<g id="a_Node000003"><a xlink:href="Include_8h.html" target="_top" xlink:title=" ">
<polygon fill="white" stroke="#666666" points="933,-360 779,-360 779,-330 933,-330 933,-360"/>
<text text-anchor="start" x="787" y="-348" font-family="Helvetica,sans-Serif" font-size="10.00">/usr/include/GraphicsMagick</text>
<text text-anchor="middle" x="856" y="-337" font-family="Helvetica,sans-Serif" font-size="10.00">/Magick++/Include.h</text>
</a>
</g>
</g>
<!-- Node2&#45;&gt;Node3 -->
<g id="edge2_Node000002_Node000003" class="edge">
<title>Node2&#45;&gt;Node3</title>
<g id="a_edge2_Node000002_Node000003"><a xlink:title=" ">
<path fill="none" stroke="#63b8ff" d="M249.28,-401.95C386.03,-389.34 648.58,-365.13 778.82,-353.12"/>
<polygon fill="#63b8ff" stroke="#63b8ff" points="248.89,-398.47 239.26,-402.88 249.54,-405.44 248.89,-398.47"/>
</a>
</g>
</g>
<!-- Node16 -->
<g id="Node000016" class="node">
<title>Node16</title>
<g id="a_Node000016"><a xlink:href="magick__wand_8h.html" target="_top" xlink:title=" ">
<polygon fill="white" stroke="#666666" points="239,-360 85,-360 85,-330 239,-330 239,-360"/>
<text text-anchor="start" x="93" y="-348" font-family="Helvetica,sans-Serif" font-size="10.00">/usr/include/GraphicsMagick</text>
<text text-anchor="middle" x="162" y="-337" font-family="Helvetica,sans-Serif" font-size="10.00">/wand/magick_wand.h</text>
</a>
</g>
</g>
<!-- Node2&#45;&gt;Node16 -->
<g id="edge34_Node000002_Node000016" class="edge">
<title>Node2&#45;&gt;Node16</title>
<g id="a_edge34_Node000002_Node000016"><a xlink:title=" ">
<path fill="none" stroke="#63b8ff" d="M162,-385.54C162,-376.96 162,-367.61 162,-360.16"/>
<polygon fill="#63b8ff" stroke="#63b8ff" points="158.5,-385.8 162,-395.8 165.5,-385.8 158.5,-385.8"/>
</a>
</g>
</g>
<!-- Node17 -->
<g id="Node000017" class="node">
<title>Node17</title>
<g id="a_Node000017"><a xlink:href="wand__api_8h.html" target="_top" xlink:title=" ">
<polygon fill="white" stroke="#666666" points="344,-294 190,-294 190,-264 344,-264 344,-294"/>
<text text-anchor="start" x="198" y="-282" font-family="Helvetica,sans-Serif" font-size="10.00">/usr/include/GraphicsMagick</text>
<text text-anchor="middle" x="267" y="-271" font-family="Helvetica,sans-Serif" font-size="10.00">/wand/wand_api.h</text>
</a>
</g>
</g>
<!-- Node2&#45;&gt;Node17 -->
<g id="edge39_Node000002_Node000017" class="edge">
<title>Node2&#45;&gt;Node17</title>
<g id="a_edge39_Node000002_Node000017"><a xlink:title=" ">
<path fill="none" stroke="#63b8ff" d="M209.58,-391.22C223.81,-383.49 238.2,-373.19 248,-360 262.55,-340.4 266.14,-311.29 266.92,-294.12"/>
<polygon fill="#63b8ff" stroke="#63b8ff" points="207.64,-388.28 200.31,-395.93 210.81,-394.52 207.64,-388.28"/>
</a>
</g>
</g>
<!-- Node18 -->
<g id="Node000018" class="node">
<title>Node18</title>
<g id="a_Node000018"><a xlink:href="chronos_8hpp.html" target="_top" xlink:title=" ">
<polygon fill="white" stroke="#666666" points="134,-288.5 20,-288.5 20,-269.5 134,-269.5 134,-288.5"/>
<text text-anchor="middle" x="77" y="-276.5" font-family="Helvetica,sans-Serif" font-size="10.00">include/chronos.hpp</text>
</a>
</g>
</g>
<!-- Node2&#45;&gt;Node18 -->
<g id="edge40_Node000002_Node000018" class="edge">
<title>Node2&#45;&gt;Node18</title>
<g id="a_edge40_Node000002_Node000018"><a xlink:title=" ">
<path fill="none" stroke="#63b8ff" d="M110.3,-391.25C96.75,-383.71 83.77,-373.51 76,-360 62.84,-337.12 69.76,-304.14 74.21,-288.65"/>
<polygon fill="#63b8ff" stroke="#63b8ff" points="108.74,-394.38 119.23,-395.83 111.93,-388.15 108.74,-394.38"/>
</a>
</g>
</g>
<!-- Node4 -->
<g id="Node000004" class="node">
<title>Node4</title>
<g id="a_Node000004"><a xlink:href="Magick_09_09_8h.html" target="_top" xlink:title=" ">
<polygon fill="white" stroke="#666666" points="1064,-30 910,-30 910,0 1064,0 1064,-30"/>
<text text-anchor="start" x="918" y="-18" font-family="Helvetica,sans-Serif" font-size="10.00">/usr/include/GraphicsMagick</text>
<text text-anchor="middle" x="987" y="-7" font-family="Helvetica,sans-Serif" font-size="10.00">/Magick++.h</text>
</a>
</g>
</g>
<!-- Node3&#45;&gt;Node4 -->
<g id="edge3_Node000003_Node000004" class="edge">
<title>Node3&#45;&gt;Node4</title>
<g id="a_edge3_Node000003_Node000004"><a xlink:title=" ">
<path fill="none" stroke="#63b8ff" d="M943.37,-344.31C1118.95,-342.57 1498,-325.85 1498,-214 1498,-214 1498,-214 1498,-146 1498,-57.55 1206.81,-28.56 1064.06,-19.66"/>
<polygon fill="#63b8ff" stroke="#63b8ff" points="943.09,-340.81 933.12,-344.4 943.15,-347.81 943.09,-340.81"/>
</a>
</g>
</g>
<!-- Node5 -->
<g id="Node000005" class="node">
<title>Node5</title>
<g id="a_Node000005"><a xlink:href="Blob_8h.html" target="_top" xlink:title=" ">
<polygon fill="white" stroke="#666666" points="630,-228 476,-228 476,-198 630,-198 630,-228"/>
<text text-anchor="start" x="484" y="-216" font-family="Helvetica,sans-Serif" font-size="10.00">/usr/include/GraphicsMagick</text>
<text text-anchor="middle" x="553" y="-205" font-family="Helvetica,sans-Serif" font-size="10.00">/Magick++/Blob.h</text>
</a>
</g>
</g>
<!-- Node3&#45;&gt;Node5 -->
<g id="edge4_Node000003_Node000005" class="edge">
<title>Node3&#45;&gt;Node5</title>
<g id="a_edge4_Node000003_Node000005"><a xlink:title=" ">
<path fill="none" stroke="#63b8ff" d="M768.64,-344.61C672.85,-343.19 528.04,-334.2 493,-294 473.83,-272.01 505.66,-244.43 529.81,-228.07"/>
<polygon fill="#63b8ff" stroke="#63b8ff" points="768.87,-348.11 778.91,-344.73 768.95,-341.11 768.87,-348.11"/>
</a>
</g>
</g>
<!-- Node6 -->
<g id="Node000006" class="node">
<title>Node6</title>
<g id="a_Node000006"><a xlink:href="Image_8h.html" target="_top" xlink:title=" ">
<polygon fill="white" stroke="#666666" points="773,-162 619,-162 619,-132 773,-132 773,-162"/>
<text text-anchor="start" x="627" y="-150" font-family="Helvetica,sans-Serif" font-size="10.00">/usr/include/GraphicsMagick</text>
<text text-anchor="middle" x="696" y="-139" font-family="Helvetica,sans-Serif" font-size="10.00">/Magick++/Image.h</text>
</a>
</g>
</g>
<!-- Node3&#45;&gt;Node6 -->
<g id="edge28_Node000003_Node000006" class="edge">
<title>Node3&#45;&gt;Node6</title>
<g id="a_edge28_Node000003_Node000006"><a xlink:title=" ">
<path fill="none" stroke="#63b8ff" d="M768.62,-343.36C671.77,-340.79 523.8,-330.74 483,-294 450.86,-265.05 439.87,-231.69 467,-198 485.95,-174.47 559.97,-161.41 618.8,-154.6"/>
<polygon fill="#63b8ff" stroke="#63b8ff" points="768.63,-346.86 778.71,-343.6 768.8,-339.86 768.63,-346.86"/>
</a>
</g>
</g>
<!-- Node7 -->
<g id="Node000007" class="node">
<title>Node7</title>
<g id="a_Node000007"><a xlink:href="Pixels_8h.html" target="_top" xlink:title=" ">
<polygon fill="white" stroke="#666666" points="673,-96 519,-96 519,-66 673,-66 673,-96"/>
<text text-anchor="start" x="527" y="-84" font-family="Helvetica,sans-Serif" font-size="10.00">/usr/include/GraphicsMagick</text>
<text text-anchor="middle" x="596" y="-73" font-family="Helvetica,sans-Serif" font-size="10.00">/Magick++/Pixels.h</text>
</a>
</g>
</g>
<!-- Node3&#45;&gt;Node7 -->
<g id="edge30_Node000003_Node000007" class="edge">
<title>Node3&#45;&gt;Node7</title>
<g id="a_edge30_Node000003_Node000007"><a xlink:title=" ">
<path fill="none" stroke="#63b8ff" d="M768.61,-338.89C656.97,-331.49 475.49,-316.21 454,-294 403.69,-242 420.29,-184.57 470,-132 486.17,-114.9 508.93,-103.53 530.67,-96.02"/>
<polygon fill="#63b8ff" stroke="#63b8ff" points="768.65,-342.4 778.86,-339.56 769.11,-335.41 768.65,-342.4"/>
</a>
</g>
</g>
<!-- Node8 -->
<g id="Node000008" class="node">
<title>Node8</title>
<g id="a_Node000008"><a xlink:href="CoderInfo_8h.html" target="_top" xlink:title=" ">
<polygon fill="white" stroke="#666666" points="1470,-228 1316,-228 1316,-198 1470,-198 1470,-228"/>
<text text-anchor="start" x="1324" y="-216" font-family="Helvetica,sans-Serif" font-size="10.00">/usr/include/GraphicsMagick</text>
<text text-anchor="middle" x="1393" y="-205" font-family="Helvetica,sans-Serif" font-size="10.00">/Magick++/CoderInfo.h</text>
</a>
</g>
</g>
<!-- Node3&#45;&gt;Node8 -->
<g id="edge9_Node000003_Node000008" class="edge">
<title>Node3&#45;&gt;Node8</title>
<g id="a_edge9_Node000003_Node000008"><a xlink:title=" ">
<path fill="none" stroke="#63b8ff" d="M943.36,-340.41C1054.57,-334.78 1239.72,-321.54 1302,-294 1335.86,-279.03 1366.17,-246.83 1381.81,-228.17"/>
<polygon fill="#63b8ff" stroke="#63b8ff" points="942.99,-336.93 933.17,-340.92 943.33,-343.92 942.99,-336.93"/>
</a>
</g>
</g>
<!-- Node9 -->
<g id="Node000009" class="node">
<title>Node9</title>
<g id="a_Node000009"><a xlink:href="STL_8h.html" target="_top" xlink:title=" ">
<polygon fill="white" stroke="#666666" points="1211,-162 1057,-162 1057,-132 1211,-132 1211,-162"/>
<text text-anchor="start" x="1065" y="-150" font-family="Helvetica,sans-Serif" font-size="10.00">/usr/include/GraphicsMagick</text>
<text text-anchor="middle" x="1134" y="-139" font-family="Helvetica,sans-Serif" font-size="10.00">/Magick++/STL.h</text>
</a>
</g>
</g>
<!-- Node3&#45;&gt;Node9 -->
<g id="edge31_Node000003_Node000009" class="edge">
<title>Node3&#45;&gt;Node9</title>
<g id="a_edge31_Node000003_Node000009"><a xlink:title=" ">
<path fill="none" stroke="#63b8ff" d="M943.26,-332.64C1053.24,-316.23 1232.4,-281.82 1269,-228 1290.98,-195.67 1245.9,-174.45 1202.04,-162.04"/>
<polygon fill="#63b8ff" stroke="#63b8ff" points="942.55,-329.2 933.17,-334.12 943.57,-336.13 942.55,-329.2"/>
</a>
</g>
</g>
<!-- Node10 -->
<g id="Node000010" class="node">
<title>Node10</title>
<g id="a_Node000010"><a xlink:href="Color_8h.html" target="_top" xlink:title=" ">
<polygon fill="white" stroke="#666666" points="828,-294 674,-294 674,-264 828,-264 828,-294"/>
<text text-anchor="start" x="682" y="-282" font-family="Helvetica,sans-Serif" font-size="10.00">/usr/include/GraphicsMagick</text>
<text text-anchor="middle" x="751" y="-271" font-family="Helvetica,sans-Serif" font-size="10.00">/Magick++/Color.h</text>
</a>
</g>
</g>
<!-- Node3&#45;&gt;Node10 -->
<g id="edge12_Node000003_Node000010" class="edge">
<title>Node3&#45;&gt;Node10</title>
<g id="a_edge12_Node000003_Node000010"><a xlink:title=" ">
<path fill="none" stroke="#63b8ff" d="M824.33,-324.69C808.12,-314.82 788.75,-303.01 773.99,-294.01"/>
<polygon fill="#63b8ff" stroke="#63b8ff" points="822.6,-327.74 832.96,-329.95 826.24,-321.76 822.6,-327.74"/>
</a>
</g>
</g>
<!-- Node11 -->
<g id="Node000011" class="node">
<title>Node11</title>
<g id="a_Node000011"><a xlink:href="Drawable_8h.html" target="_top" xlink:title=" ">
<polygon fill="white" stroke="#666666" points="878,-228 724,-228 724,-198 878,-198 878,-228"/>
<text text-anchor="start" x="732" y="-216" font-family="Helvetica,sans-Serif" font-size="10.00">/usr/include/GraphicsMagick</text>
<text text-anchor="middle" x="801" y="-205" font-family="Helvetica,sans-Serif" font-size="10.00">/Magick++/Drawable.h</text>
</a>
</g>
</g>
<!-- Node3&#45;&gt;Node11 -->
<g id="edge20_Node000003_Node000011" class="edge">
<title>Node3&#45;&gt;Node11</title>
<g id="a_edge20_Node000003_Node000011"><a xlink:title=" ">
<path fill="none" stroke="#63b8ff" d="M852.74,-319.56C849.96,-303.29 845.1,-281.72 837,-264 831.04,-250.96 821.46,-237.87 813.68,-228.36"/>
<polygon fill="#63b8ff" stroke="#63b8ff" points="849.35,-320.53 854.34,-329.87 856.26,-319.45 849.35,-320.53"/>
</a>
</g>
</g>
<!-- Node12 -->
<g id="Node000012" class="node">
<title>Node12</title>
<g id="a_Node000012"><a xlink:href="Montage_8h.html" target="_top" xlink:title=" ">
<polygon fill="white" stroke="#666666" points="1088,-228 934,-228 934,-198 1088,-198 1088,-228"/>
<text text-anchor="start" x="942" y="-216" font-family="Helvetica,sans-Serif" font-size="10.00">/usr/include/GraphicsMagick</text>
<text text-anchor="middle" x="1011" y="-205" font-family="Helvetica,sans-Serif" font-size="10.00">/Magick++/Montage.h</text>
</a>
</g>
</g>
<!-- Node3&#45;&gt;Node12 -->
<g id="edge29_Node000003_Node000012" class="edge">
<title>Node3&#45;&gt;Node12</title>
<g id="a_edge29_Node000003_Node000012"><a xlink:title=" ">
<path fill="none" stroke="#63b8ff" d="M943.07,-331.72C987.01,-323.56 1033.76,-311.15 1047,-294 1062.82,-273.5 1041.75,-244.95 1025.81,-228.08"/>
<polygon fill="#63b8ff" stroke="#63b8ff" points="942.39,-328.29 933.17,-333.5 943.63,-335.18 942.39,-328.29"/>
</a>
</g>
</g>
<!-- Node13 -->
<g id="Node000013" class="node">
<title>Node13</title>
<g id="a_Node000013"><a xlink:href="Exception_8h.html" target="_top" xlink:title=" ">
<polygon fill="white" stroke="#666666" points="1260,-228 1106,-228 1106,-198 1260,-198 1260,-228"/>
<text text-anchor="start" x="1114" y="-216" font-family="Helvetica,sans-Serif" font-size="10.00">/usr/include/GraphicsMagick</text>
<text text-anchor="middle" x="1183" y="-205" font-family="Helvetica,sans-Serif" font-size="10.00">/Magick++/Exception.h</text>
</a>
</g>
</g>
<!-- Node3&#45;&gt;Node13 -->
<g id="edge21_Node000003_Node000013" class="edge">
<title>Node3&#45;&gt;Node13</title>
<g id="a_edge21_Node000003_Node000013"><a xlink:title=" ">
<path fill="none" stroke="#63b8ff" d="M943.27,-330C981.07,-322.15 1025.22,-310.53 1063,-294 1102.68,-276.63 1143.53,-246.2 1165.85,-228.3"/>
<polygon fill="#63b8ff" stroke="#63b8ff" points="942.41,-326.6 933.3,-332.01 943.79,-333.46 942.41,-326.6"/>
</a>
</g>
</g>
<!-- Node14 -->
<g id="Node000014" class="node">
<title>Node14</title>
<g id="a_Node000014"><a xlink:href="Geometry_8h.html" target="_top" xlink:title=" ">
<polygon fill="white" stroke="#666666" points="1038,-294 884,-294 884,-264 1038,-264 1038,-294"/>
<text text-anchor="start" x="892" y="-282" font-family="Helvetica,sans-Serif" font-size="10.00">/usr/include/GraphicsMagick</text>
<text text-anchor="middle" x="961" y="-271" font-family="Helvetica,sans-Serif" font-size="10.00">/Magick++/Geometry.h</text>
</a>
</g>
</g>
<!-- Node3&#45;&gt;Node14 -->
<g id="edge24_Node000003_Node000014" class="edge">
<title>Node3&#45;&gt;Node14</title>
<g id="a_edge24_Node000003_Node000014"><a xlink:title=" ">
<path fill="none" stroke="#63b8ff" d="M887.67,-324.69C903.88,-314.82 923.25,-303.01 938.01,-294.01"/>
<polygon fill="#63b8ff" stroke="#63b8ff" points="885.76,-321.76 879.04,-329.95 889.4,-327.74 885.76,-321.76"/>
</a>
</g>
</g>
<!-- Node15 -->
<g id="Node000015" class="node">
<title>Node15</title>
<g id="a_Node000015"><a xlink:href="TypeMetric_8h.html" target="_top" xlink:title=" ">
<polygon fill="white" stroke="#666666" points="656,-294 502,-294 502,-264 656,-264 656,-294"/>
<text text-anchor="start" x="510" y="-282" font-family="Helvetica,sans-Serif" font-size="10.00">/usr/include/GraphicsMagick</text>
<text text-anchor="middle" x="579" y="-271" font-family="Helvetica,sans-Serif" font-size="10.00">/Magick++/TypeMetric.h</text>
</a>
</g>
</g>
<!-- Node3&#45;&gt;Node15 -->
<g id="edge32_Node000003_Node000015" class="edge">
<title>Node3&#45;&gt;Node15</title>
<g id="a_edge32_Node000003_Node000015"><a xlink:title=" ">
<path fill="none" stroke="#63b8ff" d="M785.23,-327.65C740.22,-317.25 682.55,-303.93 639.65,-294.01"/>
<polygon fill="#63b8ff" stroke="#63b8ff" points="784.68,-331.11 795.21,-329.95 786.26,-324.29 784.68,-331.11"/>
</a>
</g>
</g>
<!-- Node5&#45;&gt;Node6 -->
<g id="edge5_Node000005_Node000006" class="edge">
<title>Node5&#45;&gt;Node6</title>
<g id="a_edge5_Node000005_Node000006"><a xlink:title=" ">
<path fill="none" stroke="#63b8ff" d="M593.7,-193.78C616.25,-183.69 643.84,-171.34 664.69,-162.01"/>
<polygon fill="#63b8ff" stroke="#63b8ff" points="592.08,-190.68 584.38,-197.95 594.94,-197.06 592.08,-190.68"/>
</a>
</g>
</g>
<!-- Node6&#45;&gt;Node4 -->
<g id="edge6_Node000006_Node000004" class="edge">
<title>Node6&#45;&gt;Node4</title>
<g id="a_edge6_Node000006_Node000004"><a xlink:title=" ">
<path fill="none" stroke="#63b8ff" d="M736.74,-127.8C795.33,-101.63 902.16,-53.9 955.27,-30.17"/>
<polygon fill="#63b8ff" stroke="#63b8ff" points="735.12,-124.69 727.42,-131.96 737.98,-131.08 735.12,-124.69"/>
</a>
</g>
</g>
<!-- Node6&#45;&gt;Node7 -->
<g id="edge7_Node000006_Node000007" class="edge">
<title>Node6&#45;&gt;Node7</title>
<g id="a_edge7_Node000006_Node000007"><a xlink:title=" ">
<path fill="none" stroke="#63b8ff" d="M665.22,-126.3C650,-116.56 631.97,-105.02 618.13,-96.16"/>
<polygon fill="#63b8ff" stroke="#63b8ff" points="663.5,-129.35 673.81,-131.8 667.27,-123.46 663.5,-129.35"/>
</a>
</g>
</g>
<!-- Node7&#45;&gt;Node4 -->
<g id="edge8_Node000007_Node000004" class="edge">
<title>Node7&#45;&gt;Node4</title>
<g id="a_edge8_Node000007_Node000004"><a xlink:title=" ">
<path fill="none" stroke="#63b8ff" d="M683.51,-65.68C751.45,-54.56 844.76,-39.28 909.91,-28.62"/>
<polygon fill="#63b8ff" stroke="#63b8ff" points="682.55,-62.29 673.25,-67.36 683.68,-69.19 682.55,-62.29"/>
</a>
</g>
</g>
<!-- Node8&#45;&gt;Node9 -->
<g id="edge10_Node000008_Node000009" class="edge">
<title>Node8&#45;&gt;Node9</title>
<g id="a_edge10_Node000008_Node000009"><a xlink:title=" ">
<path fill="none" stroke="#63b8ff" d="M1326.3,-195.52C1284.29,-185.14 1230.65,-171.88 1190.71,-162.01"/>
<polygon fill="#63b8ff" stroke="#63b8ff" points="1325.61,-198.95 1336.16,-197.95 1327.29,-192.16 1325.61,-198.95"/>
</a>
</g>
</g>
<!-- Node9&#45;&gt;Node4 -->
<g id="edge11_Node000009_Node000004" class="edge">
<title>Node9&#45;&gt;Node4</title>
<g id="a_edge11_Node000009_Node000004"><a xlink:title=" ">
<path fill="none" stroke="#63b8ff" d="M1110.45,-125.18C1080.32,-98.53 1028.94,-53.09 1002.99,-30.14"/>
<polygon fill="#63b8ff" stroke="#63b8ff" points="1108.18,-127.84 1117.99,-131.84 1112.82,-122.59 1108.18,-127.84"/>
</a>
</g>
</g>
<!-- Node10&#45;&gt;Node6 -->
<g id="edge16_Node000010_Node000006" class="edge">
<title>Node10&#45;&gt;Node6</title>
<g id="a_edge16_Node000010_Node000006"><a xlink:title=" ">
<path fill="none" stroke="#63b8ff" d="M732.04,-255.63C725.84,-247.38 719.42,-237.68 715,-228 705.03,-206.19 699.97,-178.55 697.66,-162.13"/>
<polygon fill="#63b8ff" stroke="#63b8ff" points="729.4,-257.93 738.32,-263.64 734.9,-253.61 729.4,-257.93"/>
</a>
</g>
</g>
<!-- Node10&#45;&gt;Node7 -->
<g id="edge19_Node000010_Node000007" class="edge">
<title>Node10&#45;&gt;Node7</title>
<g id="a_edge19_Node000010_Node000007"><a xlink:title=" ">
<path fill="none" stroke="#63b8ff" d="M664.04,-263.37C581.14,-249.31 468.62,-229.93 467,-228 425.58,-178.65 517.24,-121.9 566.85,-96.09"/>
<polygon fill="#63b8ff" stroke="#63b8ff" points="663.55,-266.83 673.99,-265.05 664.72,-259.93 663.55,-266.83"/>
</a>
</g>
</g>
<!-- Node10&#45;&gt;Node11 -->
<g id="edge13_Node000010_Node000011" class="edge">
<title>Node10&#45;&gt;Node11</title>
<g id="a_edge13_Node000010_Node000011"><a xlink:title=" ">
<path fill="none" stroke="#63b8ff" d="M768.34,-255.81C775.5,-246.64 783.6,-236.28 789.93,-228.16"/>
<polygon fill="#63b8ff" stroke="#63b8ff" points="765.5,-253.76 762.1,-263.8 771.01,-258.07 765.5,-253.76"/>
</a>
</g>
</g>
<!-- Node10&#45;&gt;Node12 -->
<g id="edge17_Node000010_Node000012" class="edge">
<title>Node10&#45;&gt;Node12</title>
<g id="a_edge17_Node000010_Node000012"><a xlink:title=" ">
<path fill="none" stroke="#63b8ff" d="M817.96,-261.52C860.13,-251.14 913.97,-237.88 954.07,-228.01"/>
<polygon fill="#63b8ff" stroke="#63b8ff" points="816.93,-258.17 808.06,-263.95 818.6,-264.96 816.93,-258.17"/>
</a>
</g>
</g>
<!-- Node11&#45;&gt;Node6 -->
<g id="edge14_Node000011_Node000006" class="edge">
<title>Node11&#45;&gt;Node6</title>
<g id="a_edge14_Node000011_Node000006"><a xlink:title=" ">
<path fill="none" stroke="#63b8ff" d="M769.33,-192.69C753.12,-182.82 733.75,-171.01 718.99,-162.01"/>
<polygon fill="#63b8ff" stroke="#63b8ff" points="767.6,-195.74 777.96,-197.95 771.24,-189.76 767.6,-195.74"/>
</a>
</g>
</g>
<!-- Node11&#45;&gt;Node9 -->
<g id="edge15_Node000011_Node000009" class="edge">
<title>Node11&#45;&gt;Node9</title>
<g id="a_edge15_Node000011_Node000009"><a xlink:title=" ">
<path fill="none" stroke="#63b8ff" d="M884.04,-196.04C938.44,-185.59 1008.86,-172.05 1061.09,-162.01"/>
<polygon fill="#63b8ff" stroke="#63b8ff" points="883.24,-192.63 874.08,-197.95 884.56,-199.5 883.24,-192.63"/>
</a>
</g>
</g>
<!-- Node12&#45;&gt;Node9 -->
<g id="edge18_Node000012_Node000009" class="edge">
<title>Node12&#45;&gt;Node9</title>
<g id="a_edge18_Node000012_Node000009"><a xlink:title=" ">
<path fill="none" stroke="#63b8ff" d="M1047.05,-193.24C1066.25,-183.25 1089.46,-171.18 1107.07,-162.01"/>
<polygon fill="#63b8ff" stroke="#63b8ff" points="1045.25,-190.23 1037.99,-197.95 1048.48,-196.44 1045.25,-190.23"/>
</a>
</g>
</g>
<!-- Node13&#45;&gt;Node6 -->
<g id="edge22_Node000013_Node000006" class="edge">
<title>Node13&#45;&gt;Node6</title>
<g id="a_edge22_Node000013_Node000006"><a xlink:title=" ">
<path fill="none" stroke="#63b8ff" d="M1095.72,-197.85C977.58,-181.01 852,-165.9 773.36,-156.78"/>
<polygon fill="#63b8ff" stroke="#63b8ff" points="1095.27,-201.32 1105.67,-199.27 1096.26,-194.39 1095.27,-201.32"/>
</a>
</g>
</g>
<!-- Node13&#45;&gt;Node9 -->
<g id="edge23_Node000013_Node000009" class="edge">
<title>Node13&#45;&gt;Node9</title>
<g id="a_edge23_Node000013_Node000009"><a xlink:title=" ">
<path fill="none" stroke="#63b8ff" d="M1166.01,-189.81C1158.99,-180.64 1151.06,-170.28 1144.84,-162.16"/>
<polygon fill="#63b8ff" stroke="#63b8ff" points="1163.27,-191.98 1172.13,-197.8 1168.83,-187.73 1163.27,-191.98"/>
</a>
</g>
</g>
<!-- Node14&#45;&gt;Node6 -->
<g id="edge26_Node000014_Node000006" class="edge">
<title>Node14&#45;&gt;Node6</title>
<g id="a_edge26_Node000014_Node000006"><a xlink:title=" ">
<path fill="none" stroke="#63b8ff" d="M945.84,-255.55C932.43,-237.4 911.26,-212.55 887,-198 852.61,-177.37 809.75,-165.16 773.36,-157.97"/>
<polygon fill="#63b8ff" stroke="#63b8ff" points="943.11,-257.75 951.78,-263.85 948.8,-253.68 943.11,-257.75"/>
</a>
</g>
</g>
<!-- Node14&#45;&gt;Node11 -->
<g id="edge25_Node000014_Node000011" class="edge">
<title>Node14&#45;&gt;Node11</title>
<g id="a_edge25_Node000014_Node000011"><a xlink:title=" ">
<path fill="none" stroke="#63b8ff" d="M916.47,-260.19C891.06,-250.02 859.67,-237.47 836.03,-228.01"/>
<polygon fill="#63b8ff" stroke="#63b8ff" points="915.3,-263.49 925.89,-263.95 917.9,-256.99 915.3,-263.49"/>
</a>
</g>
</g>
<!-- Node14&#45;&gt;Node12 -->
<g id="edge27_Node000014_Node000012" class="edge">
<title>Node14&#45;&gt;Node12</title>
<g id="a_edge27_Node000014_Node000012"><a xlink:title=" ">
<path fill="none" stroke="#63b8ff" d="M978.34,-255.81C985.5,-246.64 993.6,-236.28 999.93,-228.16"/>
<polygon fill="#63b8ff" stroke="#63b8ff" points="975.5,-253.76 972.1,-263.8 981.01,-258.07 975.5,-253.76"/>
</a>
</g>
</g>
<!-- Node15&#45;&gt;Node6 -->
<g id="edge33_Node000015_Node000006" class="edge">
<title>Node15&#45;&gt;Node6</title>
<g id="a_edge33_Node000015_Node000006"><a xlink:title=" ">
<path fill="none" stroke="#63b8ff" d="M606.36,-257.66C617.09,-249.08 629.16,-238.62 639,-228 658.59,-206.86 677.16,-178.77 687.51,-162.12"/>
<polygon fill="#63b8ff" stroke="#63b8ff" points="604.19,-254.91 598.48,-263.84 608.51,-260.43 604.19,-254.91"/>
</a>
</g>
</g>
<!-- Node16&#45;&gt;Node17 -->
<g id="edge35_Node000016_Node000017" class="edge">
<title>Node16&#45;&gt;Node17</title>
<g id="a_edge35_Node000016_Node000017"><a xlink:title=" ">
<path fill="none" stroke="#63b8ff" d="M193.67,-324.69C209.88,-314.82 229.25,-303.01 244.01,-294.01"/>
<polygon fill="#63b8ff" stroke="#63b8ff" points="191.76,-321.76 185.04,-329.95 195.4,-327.74 191.76,-321.76"/>
</a>
</g>
</g>
<!-- Node16&#45;&gt;Node18 -->
<g id="edge36_Node000016_Node000018" class="edge">
<title>Node16&#45;&gt;Node18</title>
<g id="a_edge36_Node000016_Node000018"><a xlink:title=" ">
<path fill="none" stroke="#63b8ff" d="M134.89,-323.58C119.33,-311.87 100.6,-297.77 88.75,-288.84"/>
<polygon fill="#63b8ff" stroke="#63b8ff" points="133.04,-326.58 143.14,-329.8 137.25,-320.99 133.04,-326.58"/>
</a>
</g>
</g>
<!-- Node16&#45;&gt;Node19 -->
<g id="edge38_Node000016_Node000019" class="edge">
<title>Node16&#45;&gt;Node19</title>
<g id="a_edge38_Node000016_Node000019"><a xlink:title=" ">
<path fill="none" stroke="#63b8ff" d="M160.53,-319.72C158.54,-302.92 153.87,-280.68 143,-264 130.91,-245.46 109.48,-231.13 94.32,-222.66"/>
<polygon fill="#63b8ff" stroke="#63b8ff" points="157.07,-320.24 161.5,-329.86 164.03,-319.58 157.07,-320.24"/>
</a>
</g>
</g>
<!-- Node18&#45;&gt;Node19 -->
<g id="edge37_Node000018_Node000019" class="edge">
<title>Node18&#45;&gt;Node19</title>
<g id="a_edge37_Node000018_Node000019"><a xlink:title=" ">
<path fill="none" stroke="#63b8ff" d="M77,-259.08C77,-247.13 77,-232.22 77,-222.91"/>
<polygon fill="#63b8ff" stroke="#63b8ff" points="73.5,-259.37 77,-269.37 80.5,-259.37 73.5,-259.37"/>
</a>
</g>
</g>
</g>
</svg>
