<?xml version="1.0" encoding="UTF-8" standalone="no"?>
<!DOCTYPE svg PUBLIC "-//W3C//DTD SVG 1.1//EN"
 "http://www.w3.org/Graphics/SVG/1.1/DTD/svg11.dtd">
<!-- Generated by graphviz version 2.43.0 (0)
 -->
<!-- Title: formatted_size Pages: 1 -->
<svg width="422pt" height="134pt"
 viewBox="0.00 0.00 422.00 134.00" xmlns="http://www.w3.org/2000/svg" xmlns:xlink="http://www.w3.org/1999/xlink">
<g id="graph0" class="graph" transform="scale(1 1) rotate(0) translate(4 130)">
<title>formatted_size</title>
<!-- Node1 -->
<g id="Node000001" class="node">
<title>Node1</title>
<g id="a_Node000001"><a xlink:title=" ">
<polygon fill="#999999" stroke="#666666" points="90,-72.5 0,-72.5 0,-53.5 90,-53.5 90,-72.5"/>
<text text-anchor="middle" x="45" y="-60.5" font-family="Helvetica,sans-Serif" font-size="10.00">formatted_size</text>
</a>
</g>
</g>
<!-- Node2 -->
<g id="Node000002" class="node">
<title>Node2</title>
<g id="a_Node000002"><a xlink:href="classbasic__appender.html#a3f0cd72d9279e98079287ae5c6cc53c0" target="_top" xlink:title=" ">
<polygon fill="white" stroke="#666666" points="251.5,-126 126.5,-126 126.5,-96 251.5,-96 251.5,-126"/>
<text text-anchor="start" x="134.5" y="-114" font-family="Helvetica,sans-Serif" font-size="10.00">basic_appender::basic</text>
<text text-anchor="middle" x="189" y="-103" font-family="Helvetica,sans-Serif" font-size="10.00">_appender</text>
</a>
</g>
</g>
<!-- Node1&#45;&gt;Node2 -->
<g id="edge1_Node000001_Node000002" class="edge">
<title>Node1&#45;&gt;Node2</title>
<g id="a_edge1_Node000001_Node000002"><a xlink:title=" ">
<path fill="none" stroke="#63b8ff" d="M74.39,-72.6C91.37,-78.33 113.49,-85.81 133.7,-92.65"/>
<polygon fill="#63b8ff" stroke="#63b8ff" points="132.84,-96.05 143.44,-95.94 135.09,-89.42 132.84,-96.05"/>
</a>
</g>
</g>
<!-- Node3 -->
<g id="Node000003" class="node">
<title>Node3</title>
<g id="a_Node000003"><a xlink:href="classdetail_1_1counting__buffer.html#ac5caa7bdfd7e1cb4019287c3dcb4ff5d" target="_top" xlink:title=" ">
<polygon fill="white" stroke="#666666" points="252,-78 126,-78 126,-48 252,-48 252,-78"/>
<text text-anchor="start" x="134" y="-66" font-family="Helvetica,sans-Serif" font-size="10.00">detail::counting_buffer</text>
<text text-anchor="middle" x="189" y="-55" font-family="Helvetica,sans-Serif" font-size="10.00">::count</text>
</a>
</g>
</g>
<!-- Node1&#45;&gt;Node3 -->
<g id="edge2_Node000001_Node000003" class="edge">
<title>Node1&#45;&gt;Node3</title>
<g id="a_edge2_Node000001_Node000003"><a xlink:title=" ">
<path fill="none" stroke="#63b8ff" d="M90.15,-63C98.29,-63 106.97,-63 115.68,-63"/>
<polygon fill="#63b8ff" stroke="#63b8ff" points="115.89,-66.5 125.89,-63 115.89,-59.5 115.89,-66.5"/>
</a>
</g>
</g>
<!-- Node4 -->
<g id="Node000004" class="node">
<title>Node4</title>
<g id="a_Node000004"><a xlink:href="classdetail_1_1counting__buffer.html#adafc31050da4053e1593583cdcdd33f1" target="_top" xlink:title=" ">
<polygon fill="white" stroke="#666666" points="252,-30 126,-30 126,0 252,0 252,-30"/>
<text text-anchor="start" x="134" y="-18" font-family="Helvetica,sans-Serif" font-size="10.00">detail::counting_buffer</text>
<text text-anchor="middle" x="189" y="-7" font-family="Helvetica,sans-Serif" font-size="10.00">::counting_buffer</text>
</a>
</g>
</g>
<!-- Node1&#45;&gt;Node4 -->
<g id="edge3_Node000001_Node000004" class="edge">
<title>Node1&#45;&gt;Node4</title>
<g id="a_edge3_Node000001_Node000004"><a xlink:title=" ">
<path fill="none" stroke="#63b8ff" d="M74.39,-53.4C91.37,-47.67 113.49,-40.19 133.7,-33.35"/>
<polygon fill="#63b8ff" stroke="#63b8ff" points="135.09,-36.58 143.44,-30.06 132.84,-29.95 135.09,-36.58"/>
</a>
</g>
</g>
<!-- Node5 -->
<g id="Node000005" class="node">
<title>Node5</title>
<g id="a_Node000005"><a xlink:href="classdetail_1_1counting__buffer.html#a670db06293f85dbf8f6c99bab65b6f15" target="_top" xlink:title=" ">
<polygon fill="white" stroke="#666666" points="414,-30 288,-30 288,0 414,0 414,-30"/>
<text text-anchor="start" x="296" y="-18" font-family="Helvetica,sans-Serif" font-size="10.00">detail::counting_buffer</text>
<text text-anchor="middle" x="351" y="-7" font-family="Helvetica,sans-Serif" font-size="10.00">::grow</text>
</a>
</g>
</g>
<!-- Node4&#45;&gt;Node5 -->
<g id="edge4_Node000004_Node000005" class="edge">
<title>Node4&#45;&gt;Node5</title>
<g id="a_edge4_Node000004_Node000005"><a xlink:title=" ">
<path fill="none" stroke="#63b8ff" d="M252.32,-15C260.62,-15 269.18,-15 277.63,-15"/>
<polygon fill="#63b8ff" stroke="#63b8ff" points="277.85,-18.5 287.85,-15 277.85,-11.5 277.85,-18.5"/>
</a>
</g>
</g>
</g>
</svg>
