<?xml version="1.0" encoding="UTF-8" standalone="no"?>
<!DOCTYPE svg PUBLIC "-//W3C//DTD SVG 1.1//EN"
 "http://www.w3.org/Graphics/SVG/1.1/DTD/svg11.dtd">
<!-- Generated by graphviz version 2.43.0 (0)
 -->
<!-- Title: print Pages: 1 -->
<svg width="700pt" height="253pt"
 viewBox="0.00 0.00 700.00 253.00" xmlns="http://www.w3.org/2000/svg" xmlns:xlink="http://www.w3.org/1999/xlink">
<g id="graph0" class="graph" transform="scale(1 1) rotate(0) translate(4 249)">
<title>print</title>
<!-- Node1 -->
<g id="Node000001" class="node">
<title>Node1</title>
<g id="a_Node000001"><a xlink:title=" ">
<polygon fill="#999999" stroke="#666666" points="39,-114 0,-114 0,-95 39,-95 39,-114"/>
<text text-anchor="middle" x="19.5" y="-102" font-family="Helvetica,sans-Serif" font-size="10.00">print</text>
</a>
</g>
</g>
<!-- Node2 -->
<g id="Node000002" class="node">
<title>Node2</title>
<g id="a_Node000002"><a xlink:href="classbasic__appender.html#a3f0cd72d9279e98079287ae5c6cc53c0" target="_top" xlink:title=" ">
<polygon fill="white" stroke="#666666" points="201.5,-237.5 76.5,-237.5 76.5,-207.5 201.5,-207.5 201.5,-237.5"/>
<text text-anchor="start" x="84.5" y="-225.5" font-family="Helvetica,sans-Serif" font-size="10.00">basic_appender::basic</text>
<text text-anchor="middle" x="139" y="-214.5" font-family="Helvetica,sans-Serif" font-size="10.00">_appender</text>
</a>
</g>
</g>
<!-- Node1&#45;&gt;Node2 -->
<g id="edge1_Node000001_Node000002" class="edge">
<title>Node1&#45;&gt;Node2</title>
<g id="a_edge1_Node000001_Node000002"><a xlink:title=" ">
<path fill="none" stroke="#63b8ff" d="M23.64,-114.2C30.2,-133.03 47.12,-174.79 75,-198.5 76.5,-199.78 78.08,-200.99 79.72,-202.15"/>
<polygon fill="#63b8ff" stroke="#63b8ff" points="77.98,-205.18 88.33,-207.42 81.63,-199.21 77.98,-205.18"/>
</a>
</g>
</g>
<!-- Node3 -->
<g id="Node000003" class="node">
<title>Node3</title>
<g id="a_Node000003"><a xlink:href="classbasic__memory__buffer.html#a7a9300acfadb00a835b36a86a198f433" target="_top" xlink:title=" ">
<polygon fill="white" stroke="#666666" points="203,-189.5 75,-189.5 75,-159.5 203,-159.5 203,-189.5"/>
<text text-anchor="start" x="83" y="-177.5" font-family="Helvetica,sans-Serif" font-size="10.00">basic_memory_buffer</text>
<text text-anchor="middle" x="139" y="-166.5" font-family="Helvetica,sans-Serif" font-size="10.00">::basic_memory_buffer</text>
</a>
</g>
</g>
<!-- Node1&#45;&gt;Node3 -->
<g id="edge2_Node000001_Node000003" class="edge">
<title>Node1&#45;&gt;Node3</title>
<g id="a_edge2_Node000001_Node000003"><a xlink:title=" ">
<path fill="none" stroke="#63b8ff" d="M29.78,-114.06C40.06,-124.21 57.51,-140.19 75,-150.5 77.77,-152.13 80.68,-153.69 83.65,-155.18"/>
<polygon fill="#63b8ff" stroke="#63b8ff" points="82.19,-158.36 92.73,-159.39 85.13,-152.01 82.19,-158.36"/>
</a>
</g>
</g>
<!-- Node10 -->
<g id="Node000010" class="node">
<title>Node10</title>
<g id="a_Node000010"><a xlink:href="classbasic__string__view.html#aae708273ca864680a424c10441799605" target="_top" xlink:title=" ">
<polygon fill="white" stroke="#666666" points="193.5,-141.5 84.5,-141.5 84.5,-111.5 193.5,-111.5 193.5,-141.5"/>
<text text-anchor="start" x="92.5" y="-129.5" font-family="Helvetica,sans-Serif" font-size="10.00">basic_string_view::</text>
<text text-anchor="middle" x="139" y="-118.5" font-family="Helvetica,sans-Serif" font-size="10.00">basic_string_view</text>
</a>
</g>
</g>
<!-- Node1&#45;&gt;Node10 -->
<g id="edge9_Node000001_Node000010" class="edge">
<title>Node1&#45;&gt;Node10</title>
<g id="a_edge9_Node000001_Node000010"><a xlink:title=" ">
<path fill="none" stroke="#63b8ff" d="M39.12,-107.99C48.92,-109.82 61.57,-112.19 74.52,-114.62"/>
<polygon fill="#63b8ff" stroke="#63b8ff" points="73.98,-118.07 84.45,-116.47 75.27,-111.19 73.98,-118.07"/>
</a>
</g>
</g>
<!-- Node11 -->
<g id="Node000011" class="node">
<title>Node11</title>
<g id="a_Node000011"><a xlink:href="classdetail_1_1buffer.html#aeb33e0a2d2be2bbca9e0236c148089c8" target="_top" xlink:title="Returns a pointer to the buffer data (not null&#45;terminated).">
<polygon fill="white" stroke="#666666" points="192.5,-93 85.5,-93 85.5,-74 192.5,-74 192.5,-93"/>
<text text-anchor="middle" x="139" y="-81" font-family="Helvetica,sans-Serif" font-size="10.00">detail::buffer::data</text>
</a>
</g>
</g>
<!-- Node1&#45;&gt;Node11 -->
<g id="edge10_Node000001_Node000011" class="edge">
<title>Node1&#45;&gt;Node11</title>
<g id="a_edge10_Node000001_Node000011"><a xlink:title=" ">
<path fill="none" stroke="#63b8ff" d="M39.12,-101.17C49.12,-99.38 62.1,-97.07 75.34,-94.7"/>
<polygon fill="#63b8ff" stroke="#63b8ff" points="76.25,-98.09 85.48,-92.89 75.02,-91.2 76.25,-98.09"/>
</a>
</g>
</g>
<!-- Node12 -->
<g id="Node000012" class="node">
<title>Node12</title>
<g id="a_Node000012"><a xlink:href="namespacedetail.html#a4ee0408b74a4f3b21a147b4e600c5858" target="_top" xlink:title=" ">
<polygon fill="white" stroke="#666666" points="175.5,-56 102.5,-56 102.5,-37 175.5,-37 175.5,-56"/>
<text text-anchor="middle" x="139" y="-44" font-family="Helvetica,sans-Serif" font-size="10.00">detail::print</text>
</a>
</g>
</g>
<!-- Node1&#45;&gt;Node12 -->
<g id="edge11_Node000001_Node000012" class="edge">
<title>Node1&#45;&gt;Node12</title>
<g id="a_edge11_Node000001_Node000012"><a xlink:title=" ">
<path fill="none" stroke="#63b8ff" d="M31.5,-94.96C42.04,-86.24 58.71,-73.51 75,-65.5 80.58,-62.75 86.64,-60.32 92.72,-58.18"/>
<polygon fill="#63b8ff" stroke="#63b8ff" points="93.81,-61.51 102.23,-55.07 91.64,-54.85 93.81,-61.51"/>
</a>
</g>
</g>
<!-- Node17 -->
<g id="Node000017" class="node">
<title>Node17</title>
<g id="a_Node000017"><a xlink:href="classdetail_1_1buffer.html#a8685285932360c284d19003fc4ba3edc" target="_top" xlink:title="Returns the size of this buffer.">
<polygon fill="white" stroke="#666666" points="191,-19 87,-19 87,0 191,0 191,-19"/>
<text text-anchor="middle" x="139" y="-7" font-family="Helvetica,sans-Serif" font-size="10.00">detail::buffer::size</text>
</a>
</g>
</g>
<!-- Node1&#45;&gt;Node17 -->
<g id="edge16_Node000001_Node000017" class="edge">
<title>Node1&#45;&gt;Node17</title>
<g id="a_edge16_Node000001_Node000017"><a xlink:title=" ">
<path fill="none" stroke="#63b8ff" d="M24.86,-94.76C32.61,-78.57 50.3,-46.16 75,-28.5 77.69,-26.57 80.59,-24.84 83.6,-23.28"/>
<polygon fill="#63b8ff" stroke="#63b8ff" points="85.22,-26.39 92.91,-19.1 82.35,-20 85.22,-26.39"/>
</a>
</g>
</g>
<!-- Node4 -->
<g id="Node000004" class="node">
<title>Node4</title>
<g id="a_Node000004"><a xlink:href="classbasic__memory__buffer.html#a97d9a0a0f9827c9277e2eea97fa0309b" target="_top" xlink:title=" ">
<polygon fill="white" stroke="#666666" points="365.5,-213.5 243.5,-213.5 243.5,-183.5 365.5,-183.5 365.5,-213.5"/>
<text text-anchor="start" x="251.5" y="-201.5" font-family="Helvetica,sans-Serif" font-size="10.00">basic_memory_buffer</text>
<text text-anchor="middle" x="304.5" y="-190.5" font-family="Helvetica,sans-Serif" font-size="10.00">::grow</text>
</a>
</g>
</g>
<!-- Node3&#45;&gt;Node4 -->
<g id="edge3_Node000003_Node000004" class="edge">
<title>Node3&#45;&gt;Node4</title>
<g id="a_edge3_Node000003_Node000004"><a xlink:title=" ">
<path fill="none" stroke="#63b8ff" d="M203.21,-183.78C213.12,-185.23 223.41,-186.74 233.46,-188.22"/>
<polygon fill="#63b8ff" stroke="#63b8ff" points="233,-191.69 243.41,-189.68 234.02,-184.76 233,-191.69"/>
</a>
</g>
</g>
<!-- Node9 -->
<g id="Node000009" class="node">
<title>Node9</title>
<g id="a_Node000009"><a xlink:href="namespacedetail.html#a75ed2634319883d038944529dbb954e2" target="_top" xlink:title=" ">
<polygon fill="white" stroke="#666666" points="357.5,-165.5 251.5,-165.5 251.5,-135.5 357.5,-135.5 357.5,-165.5"/>
<text text-anchor="start" x="259.5" y="-153.5" font-family="Helvetica,sans-Serif" font-size="10.00">detail::is_constant</text>
<text text-anchor="middle" x="304.5" y="-142.5" font-family="Helvetica,sans-Serif" font-size="10.00">_evaluated</text>
</a>
</g>
</g>
<!-- Node3&#45;&gt;Node9 -->
<g id="edge8_Node000003_Node000009" class="edge">
<title>Node3&#45;&gt;Node9</title>
<g id="a_edge8_Node000003_Node000009"><a xlink:title=" ">
<path fill="none" stroke="#63b8ff" d="M203.21,-165.22C215.64,-163.4 228.67,-161.48 241.07,-159.66"/>
<polygon fill="#63b8ff" stroke="#63b8ff" points="241.92,-163.08 251.31,-158.16 240.91,-156.15 241.92,-163.08"/>
</a>
</g>
</g>
<!-- Node5 -->
<g id="Node000005" class="node">
<title>Node5</title>
<g id="a_Node000005"><a xlink:href="namespacedetail.html#a9d0b4b56d52390d7c8a4be7baa5e2382" target="_top" xlink:title=" ">
<polygon fill="white" stroke="#666666" points="534,-245 406,-245 406,-226 534,-226 534,-245"/>
<text text-anchor="middle" x="470" y="-233" font-family="Helvetica,sans-Serif" font-size="10.00">detail::abort_fuzzing_if</text>
</a>
</g>
</g>
<!-- Node4&#45;&gt;Node5 -->
<g id="edge4_Node000004_Node000005" class="edge">
<title>Node4&#45;&gt;Node5</title>
<g id="a_edge4_Node000004_Node000005"><a xlink:title=" ">
<path fill="none" stroke="#63b8ff" d="M365.92,-212.17C382.72,-215.97 400.81,-220.07 417.07,-223.75"/>
<polygon fill="#63b8ff" stroke="#63b8ff" points="416.41,-227.19 426.94,-225.98 417.96,-220.36 416.41,-227.19"/>
</a>
</g>
</g>
<!-- Node7 -->
<g id="Node000007" class="node">
<title>Node7</title>
<g id="a_Node000007"><a xlink:href="namespacedetail.html#a208b54c1c61a9bce9df4531a657a0c64" target="_top" xlink:title=" ">
<polygon fill="white" stroke="#666666" points="514.5,-208 425.5,-208 425.5,-189 514.5,-189 514.5,-208"/>
<text text-anchor="middle" x="470" y="-196" font-family="Helvetica,sans-Serif" font-size="10.00">detail::assume</text>
</a>
</g>
</g>
<!-- Node4&#45;&gt;Node7 -->
<g id="edge6_Node000004_Node000007" class="edge">
<title>Node4&#45;&gt;Node7</title>
<g id="a_edge6_Node000004_Node000007"><a xlink:title=" ">
<path fill="none" stroke="#63b8ff" d="M365.92,-198.5C382.11,-198.5 399.5,-198.5 415.31,-198.5"/>
<polygon fill="#63b8ff" stroke="#63b8ff" points="415.43,-202 425.43,-198.5 415.43,-195 415.43,-202"/>
</a>
</g>
</g>
<!-- Node8 -->
<g id="Node000008" class="node">
<title>Node8</title>
<g id="a_Node000008"><a xlink:href="base_8h.html#a67ebc2a5b1748c4692931267cd6f89bf" target="_top" xlink:title=" ">
<polygon fill="white" stroke="#666666" points="496.5,-171 443.5,-171 443.5,-152 496.5,-152 496.5,-171"/>
<text text-anchor="middle" x="470" y="-159" font-family="Helvetica,sans-Serif" font-size="10.00">max_of</text>
</a>
</g>
</g>
<!-- Node4&#45;&gt;Node8 -->
<g id="edge7_Node000004_Node000008" class="edge">
<title>Node4&#45;&gt;Node8</title>
<g id="a_edge7_Node000004_Node000008"><a xlink:title=" ">
<path fill="none" stroke="#63b8ff" d="M365.92,-184.83C388.69,-179.67 413.84,-173.98 433.6,-169.51"/>
<polygon fill="#63b8ff" stroke="#63b8ff" points="434.41,-172.92 443.4,-167.29 432.87,-166.09 434.41,-172.92"/>
</a>
</g>
</g>
<!-- Node6 -->
<g id="Node000006" class="node">
<title>Node6</title>
<g id="a_Node000006"><a xlink:href="namespacedetail.html#a1fe84ebaf96215ce0665d95b3124c2df" target="_top" xlink:title=" ">
<polygon fill="white" stroke="#666666" points="692,-245 570,-245 570,-226 692,-226 692,-245"/>
<text text-anchor="middle" x="631" y="-233" font-family="Helvetica,sans-Serif" font-size="10.00">detail::ignore_unused</text>
</a>
</g>
</g>
<!-- Node5&#45;&gt;Node6 -->
<g id="edge5_Node000005_Node000006" class="edge">
<title>Node5&#45;&gt;Node6</title>
<g id="a_edge5_Node000005_Node000006"><a xlink:title=" ">
<path fill="none" stroke="#63b8ff" d="M534.3,-235.5C542.61,-235.5 551.17,-235.5 559.59,-235.5"/>
<polygon fill="#63b8ff" stroke="#63b8ff" points="559.77,-239 569.77,-235.5 559.77,-232 559.77,-239"/>
</a>
</g>
</g>
<!-- Node13 -->
<g id="Node000013" class="node">
<title>Node13</title>
<g id="a_Node000013"><a xlink:href="classbasic__string__view.html#a39cdfe061dc6d64a3adc230b62d8a026" target="_top" xlink:title=" ">
<polygon fill="white" stroke="#666666" points="370,-93 239,-93 239,-74 370,-74 370,-93"/>
<text text-anchor="middle" x="304.5" y="-81" font-family="Helvetica,sans-Serif" font-size="10.00">basic_string_view::data</text>
</a>
</g>
</g>
<!-- Node12&#45;&gt;Node13 -->
<g id="edge12_Node000012_Node000013" class="edge">
<title>Node12&#45;&gt;Node13</title>
<g id="a_edge12_Node000012_Node000013"><a xlink:title=" ">
<path fill="none" stroke="#63b8ff" d="M175.88,-54.62C198.02,-59.63 226.8,-66.14 251.43,-71.72"/>
<polygon fill="#63b8ff" stroke="#63b8ff" points="250.81,-75.17 261.34,-73.96 252.36,-68.34 250.81,-75.17"/>
</a>
</g>
</g>
<!-- Node14 -->
<g id="Node000014" class="node">
<title>Node14</title>
<g id="a_Node000014"><a xlink:href="namespacedetail.html#a794a1985e3f6c245a917fd80a66950bd" target="_top" xlink:title=" ">
<polygon fill="white" stroke="#666666" points="352,-56 257,-56 257,-37 352,-37 352,-56"/>
<text text-anchor="middle" x="304.5" y="-44" font-family="Helvetica,sans-Serif" font-size="10.00">detail::fwrite_all</text>
</a>
</g>
</g>
<!-- Node12&#45;&gt;Node14 -->
<g id="edge13_Node000012_Node000014" class="edge">
<title>Node12&#45;&gt;Node14</title>
<g id="a_edge13_Node000012_Node000014"><a xlink:title=" ">
<path fill="none" stroke="#63b8ff" d="M175.88,-46.5C196.6,-46.5 223.12,-46.5 246.62,-46.5"/>
<polygon fill="#63b8ff" stroke="#63b8ff" points="246.83,-50 256.83,-46.5 246.83,-43 246.83,-50"/>
</a>
</g>
</g>
<!-- Node16 -->
<g id="Node000016" class="node">
<title>Node16</title>
<g id="a_Node000016"><a xlink:href="classbasic__string__view.html#a216bbe1b012b590698d7bb4e96d1af3f" target="_top" xlink:title=" ">
<polygon fill="white" stroke="#666666" points="368.5,-19 240.5,-19 240.5,0 368.5,0 368.5,-19"/>
<text text-anchor="middle" x="304.5" y="-7" font-family="Helvetica,sans-Serif" font-size="10.00">basic_string_view::size</text>
</a>
</g>
</g>
<!-- Node12&#45;&gt;Node16 -->
<g id="edge15_Node000012_Node000016" class="edge">
<title>Node12&#45;&gt;Node16</title>
<g id="a_edge15_Node000012_Node000016"><a xlink:title=" ">
<path fill="none" stroke="#63b8ff" d="M175.88,-38.38C198.02,-33.37 226.8,-26.86 251.43,-21.28"/>
<polygon fill="#63b8ff" stroke="#63b8ff" points="252.36,-24.66 261.34,-19.04 250.81,-17.83 252.36,-24.66"/>
</a>
</g>
</g>
<!-- Node15 -->
<g id="Node000015" class="node">
<title>Node15</title>
<g id="a_Node000015"><a xlink:href="format_8h.html#a0558467fc6b6aa30ea74d60aafdf7821" target="_top" xlink:title=" ">
<polygon fill="white" stroke="#666666" points="510.5,-56 429.5,-56 429.5,-37 510.5,-37 510.5,-56"/>
<text text-anchor="middle" x="470" y="-44" font-family="Helvetica,sans-Serif" font-size="10.00">system_error</text>
</a>
</g>
</g>
<!-- Node14&#45;&gt;Node15 -->
<g id="edge14_Node000014_Node000015" class="edge">
<title>Node14&#45;&gt;Node15</title>
<g id="a_edge14_Node000014_Node000015"><a xlink:title=" ">
<path fill="none" stroke="#63b8ff" d="M352.35,-46.5C373.27,-46.5 397.95,-46.5 419.21,-46.5"/>
<polygon fill="#63b8ff" stroke="#63b8ff" points="419.33,-50 429.33,-46.5 419.33,-43 419.33,-50"/>
</a>
</g>
</g>
</g>
</svg>
