<?xml version="1.0" encoding="UTF-8" standalone="no"?>
<!DOCTYPE svg PUBLIC "-//W3C//DTD SVG 1.1//EN"
 "http://www.w3.org/Graphics/SVG/1.1/DTD/svg11.dtd">
<!-- Generated by graphviz version 2.43.0 (0)
 -->
<!-- Title: /usr/include/GraphicsMagick/magick/constitute.h Pages: 1 -->
<svg width="1515pt" height="566pt"
 viewBox="0.00 0.00 1514.70 566.00" xmlns="http://www.w3.org/2000/svg" xmlns:xlink="http://www.w3.org/1999/xlink">
<g id="graph0" class="graph" transform="scale(1 1) rotate(0) translate(4 562)">
<title>/usr/include/GraphicsMagick/magick/constitute.h</title>
<!-- Node1 -->
<g id="Node000001" class="node">
<title>Node1</title>
<g id="a_Node000001"><a xlink:title=" ">
<polygon fill="#999999" stroke="#666666" points="182.7,-558 28.7,-558 28.7,-528 182.7,-528 182.7,-558"/>
<text text-anchor="start" x="36.7" y="-546" font-family="Helvetica,sans-Serif" font-size="10.00">/usr/include/GraphicsMagick</text>
<text text-anchor="middle" x="105.7" y="-535" font-family="Helvetica,sans-Serif" font-size="10.00">/magick/constitute.h</text>
</a>
</g>
</g>
<!-- Node2 -->
<g id="Node000002" class="node">
<title>Node2</title>
<g id="a_Node000002"><a xlink:href="api_8h.html" target="_top" xlink:title=" ">
<polygon fill="white" stroke="#666666" points="272.7,-426 118.7,-426 118.7,-396 272.7,-396 272.7,-426"/>
<text text-anchor="start" x="126.7" y="-414" font-family="Helvetica,sans-Serif" font-size="10.00">/usr/include/GraphicsMagick</text>
<text text-anchor="middle" x="195.7" y="-403" font-family="Helvetica,sans-Serif" font-size="10.00">/magick/api.h</text>
</a>
</g>
</g>
<!-- Node1&#45;&gt;Node2 -->
<g id="edge1_Node000001_Node000002" class="edge">
<title>Node1&#45;&gt;Node2</title>
<g id="a_edge1_Node000001_Node000002"><a xlink:title=" ">
<path fill="none" stroke="#63b8ff" d="M156.61,-523.2C170.28,-515.63 183.52,-505.43 191.7,-492 203.99,-471.81 201.72,-443.16 198.81,-426.18"/>
<polygon fill="#63b8ff" stroke="#63b8ff" points="154.92,-520.13 147.61,-527.81 158.11,-526.37 154.92,-520.13"/>
</a>
</g>
</g>
<!-- Node19 -->
<g id="Node000019" class="node">
<title>Node19</title>
<g id="a_Node000019"><a xlink:href="chronos_8cpp.html" target="_top" xlink:title=" ">
<polygon fill="white" stroke="#666666" points="131.7,-222.5 39.7,-222.5 39.7,-203.5 131.7,-203.5 131.7,-222.5"/>
<text text-anchor="middle" x="85.7" y="-210.5" font-family="Helvetica,sans-Serif" font-size="10.00">src/chronos.cpp</text>
</a>
</g>
</g>
<!-- Node1&#45;&gt;Node19 -->
<g id="edge43_Node000001_Node000019" class="edge">
<title>Node1&#45;&gt;Node19</title>
<g id="a_edge43_Node000001_Node000019"><a xlink:title=" ">
<path fill="none" stroke="#63b8ff" d="M58.11,-523.22C43.89,-515.49 29.49,-505.19 19.7,-492 -2.09,-462.66 0.7,-448.54 0.7,-412 0.7,-412 0.7,-412 0.7,-344 0.7,-307.46 -0.26,-294.61 19.7,-264 31.79,-245.46 53.22,-231.13 68.37,-222.66"/>
<polygon fill="#63b8ff" stroke="#63b8ff" points="56.88,-526.52 67.38,-527.93 60.05,-520.28 56.88,-526.52"/>
</a>
</g>
</g>
<!-- Node20 -->
<g id="Node000020" class="node">
<title>Node20</title>
<g id="a_Node000020"><a xlink:href="enum__strings_8h.html" target="_top" xlink:title=" ">
<polygon fill="white" stroke="#666666" points="182.7,-492 28.7,-492 28.7,-462 182.7,-462 182.7,-492"/>
<text text-anchor="start" x="36.7" y="-480" font-family="Helvetica,sans-Serif" font-size="10.00">/usr/include/GraphicsMagick</text>
<text text-anchor="middle" x="105.7" y="-469" font-family="Helvetica,sans-Serif" font-size="10.00">/magick/enum_strings.h</text>
</a>
</g>
</g>
<!-- Node1&#45;&gt;Node20 -->
<g id="edge41_Node000001_Node000020" class="edge">
<title>Node1&#45;&gt;Node20</title>
<g id="a_edge41_Node000001_Node000020"><a xlink:title=" ">
<path fill="none" stroke="#63b8ff" d="M105.7,-517.54C105.7,-508.96 105.7,-499.61 105.7,-492.16"/>
<polygon fill="#63b8ff" stroke="#63b8ff" points="102.2,-517.8 105.7,-527.8 109.2,-517.8 102.2,-517.8"/>
</a>
</g>
</g>
<!-- Node3 -->
<g id="Node000003" class="node">
<title>Node3</title>
<g id="a_Node000003"><a xlink:href="Include_8h.html" target="_top" xlink:title=" ">
<polygon fill="white" stroke="#666666" points="941.7,-360 787.7,-360 787.7,-330 941.7,-330 941.7,-360"/>
<text text-anchor="start" x="795.7" y="-348" font-family="Helvetica,sans-Serif" font-size="10.00">/usr/include/GraphicsMagick</text>
<text text-anchor="middle" x="864.7" y="-337" font-family="Helvetica,sans-Serif" font-size="10.00">/Magick++/Include.h</text>
</a>
</g>
</g>
<!-- Node2&#45;&gt;Node3 -->
<g id="edge2_Node000002_Node000003" class="edge">
<title>Node2&#45;&gt;Node3</title>
<g id="a_edge2_Node000002_Node000003"><a xlink:title=" ">
<path fill="none" stroke="#63b8ff" d="M282.82,-401.67C414.51,-389.07 662.18,-365.37 787.65,-353.37"/>
<polygon fill="#63b8ff" stroke="#63b8ff" points="282.39,-398.19 272.77,-402.63 283.05,-405.16 282.39,-398.19"/>
</a>
</g>
</g>
<!-- Node16 -->
<g id="Node000016" class="node">
<title>Node16</title>
<g id="a_Node000016"><a xlink:href="magick__wand_8h.html" target="_top" xlink:title=" ">
<polygon fill="white" stroke="#666666" points="257.7,-360 103.7,-360 103.7,-330 257.7,-330 257.7,-360"/>
<text text-anchor="start" x="111.7" y="-348" font-family="Helvetica,sans-Serif" font-size="10.00">/usr/include/GraphicsMagick</text>
<text text-anchor="middle" x="180.7" y="-337" font-family="Helvetica,sans-Serif" font-size="10.00">/wand/magick_wand.h</text>
</a>
</g>
</g>
<!-- Node2&#45;&gt;Node16 -->
<g id="edge34_Node000002_Node000016" class="edge">
<title>Node2&#45;&gt;Node16</title>
<g id="a_edge34_Node000002_Node000016"><a xlink:title=" ">
<path fill="none" stroke="#63b8ff" d="M190.03,-385.83C188,-377.17 185.78,-367.7 184.02,-360.16"/>
<polygon fill="#63b8ff" stroke="#63b8ff" points="186.68,-386.86 192.37,-395.8 193.49,-385.26 186.68,-386.86"/>
</a>
</g>
</g>
<!-- Node17 -->
<g id="Node000017" class="node">
<title>Node17</title>
<g id="a_Node000017"><a xlink:href="wand__api_8h.html" target="_top" xlink:title=" ">
<polygon fill="white" stroke="#666666" points="352.7,-294 198.7,-294 198.7,-264 352.7,-264 352.7,-294"/>
<text text-anchor="start" x="206.7" y="-282" font-family="Helvetica,sans-Serif" font-size="10.00">/usr/include/GraphicsMagick</text>
<text text-anchor="middle" x="275.7" y="-271" font-family="Helvetica,sans-Serif" font-size="10.00">/wand/wand_api.h</text>
</a>
</g>
</g>
<!-- Node2&#45;&gt;Node17 -->
<g id="edge39_Node000002_Node000017" class="edge">
<title>Node2&#45;&gt;Node17</title>
<g id="a_edge39_Node000002_Node000017"><a xlink:title=" ">
<path fill="none" stroke="#63b8ff" d="M235.38,-390.55C247.36,-382.72 259.28,-372.53 266.7,-360 278.8,-339.56 278.8,-310.99 277.43,-294.1"/>
<polygon fill="#63b8ff" stroke="#63b8ff" points="233.43,-387.64 226.72,-395.84 237.07,-393.62 233.43,-387.64"/>
</a>
</g>
</g>
<!-- Node18 -->
<g id="Node000018" class="node">
<title>Node18</title>
<g id="a_Node000018"><a xlink:href="chronos_8hpp.html" target="_top" xlink:title=" ">
<polygon fill="white" stroke="#666666" points="142.7,-288.5 28.7,-288.5 28.7,-269.5 142.7,-269.5 142.7,-288.5"/>
<text text-anchor="middle" x="85.7" y="-276.5" font-family="Helvetica,sans-Serif" font-size="10.00">include/chronos.hpp</text>
</a>
</g>
</g>
<!-- Node2&#45;&gt;Node18 -->
<g id="edge40_Node000002_Node000018" class="edge">
<title>Node2&#45;&gt;Node18</title>
<g id="a_edge40_Node000002_Node000018"><a xlink:title=" ">
<path fill="none" stroke="#63b8ff" d="M135.17,-391.92C119.67,-384.46 104.6,-374.13 94.7,-360 79.37,-338.14 81.9,-304.37 84.18,-288.63"/>
<polygon fill="#63b8ff" stroke="#63b8ff" points="133.75,-395.12 144.31,-396 136.6,-388.73 133.75,-395.12"/>
</a>
</g>
</g>
<!-- Node4 -->
<g id="Node000004" class="node">
<title>Node4</title>
<g id="a_Node000004"><a xlink:href="Magick_09_09_8h.html" target="_top" xlink:title=" ">
<polygon fill="white" stroke="#666666" points="1072.7,-30 918.7,-30 918.7,0 1072.7,0 1072.7,-30"/>
<text text-anchor="start" x="926.7" y="-18" font-family="Helvetica,sans-Serif" font-size="10.00">/usr/include/GraphicsMagick</text>
<text text-anchor="middle" x="995.7" y="-7" font-family="Helvetica,sans-Serif" font-size="10.00">/Magick++.h</text>
</a>
</g>
</g>
<!-- Node3&#45;&gt;Node4 -->
<g id="edge3_Node000003_Node000004" class="edge">
<title>Node3&#45;&gt;Node4</title>
<g id="a_edge3_Node000003_Node000004"><a xlink:title=" ">
<path fill="none" stroke="#63b8ff" d="M952.06,-344.31C1127.65,-342.57 1506.7,-325.85 1506.7,-214 1506.7,-214 1506.7,-214 1506.7,-146 1506.7,-57.55 1215.5,-28.56 1072.75,-19.66"/>
<polygon fill="#63b8ff" stroke="#63b8ff" points="951.79,-340.81 941.82,-344.4 951.85,-347.81 951.79,-340.81"/>
</a>
</g>
</g>
<!-- Node5 -->
<g id="Node000005" class="node">
<title>Node5</title>
<g id="a_Node000005"><a xlink:href="Blob_8h.html" target="_top" xlink:title=" ">
<polygon fill="white" stroke="#666666" points="638.7,-228 484.7,-228 484.7,-198 638.7,-198 638.7,-228"/>
<text text-anchor="start" x="492.7" y="-216" font-family="Helvetica,sans-Serif" font-size="10.00">/usr/include/GraphicsMagick</text>
<text text-anchor="middle" x="561.7" y="-205" font-family="Helvetica,sans-Serif" font-size="10.00">/Magick++/Blob.h</text>
</a>
</g>
</g>
<!-- Node3&#45;&gt;Node5 -->
<g id="edge4_Node000003_Node000005" class="edge">
<title>Node3&#45;&gt;Node5</title>
<g id="a_edge4_Node000003_Node000005"><a xlink:title=" ">
<path fill="none" stroke="#63b8ff" d="M777.34,-344.61C681.55,-343.19 536.73,-334.2 501.7,-294 482.53,-272.01 514.36,-244.43 538.51,-228.07"/>
<polygon fill="#63b8ff" stroke="#63b8ff" points="777.56,-348.11 787.61,-344.73 777.65,-341.11 777.56,-348.11"/>
</a>
</g>
</g>
<!-- Node6 -->
<g id="Node000006" class="node">
<title>Node6</title>
<g id="a_Node000006"><a xlink:href="Image_8h.html" target="_top" xlink:title=" ">
<polygon fill="white" stroke="#666666" points="781.7,-162 627.7,-162 627.7,-132 781.7,-132 781.7,-162"/>
<text text-anchor="start" x="635.7" y="-150" font-family="Helvetica,sans-Serif" font-size="10.00">/usr/include/GraphicsMagick</text>
<text text-anchor="middle" x="704.7" y="-139" font-family="Helvetica,sans-Serif" font-size="10.00">/Magick++/Image.h</text>
</a>
</g>
</g>
<!-- Node3&#45;&gt;Node6 -->
<g id="edge28_Node000003_Node000006" class="edge">
<title>Node3&#45;&gt;Node6</title>
<g id="a_edge28_Node000003_Node000006"><a xlink:title=" ">
<path fill="none" stroke="#63b8ff" d="M777.32,-343.36C680.47,-340.79 532.49,-330.74 491.7,-294 459.55,-265.05 448.57,-231.69 475.7,-198 494.65,-174.47 568.67,-161.41 627.49,-154.6"/>
<polygon fill="#63b8ff" stroke="#63b8ff" points="777.32,-346.86 787.4,-343.6 777.49,-339.86 777.32,-346.86"/>
</a>
</g>
</g>
<!-- Node7 -->
<g id="Node000007" class="node">
<title>Node7</title>
<g id="a_Node000007"><a xlink:href="Pixels_8h.html" target="_top" xlink:title=" ">
<polygon fill="white" stroke="#666666" points="681.7,-96 527.7,-96 527.7,-66 681.7,-66 681.7,-96"/>
<text text-anchor="start" x="535.7" y="-84" font-family="Helvetica,sans-Serif" font-size="10.00">/usr/include/GraphicsMagick</text>
<text text-anchor="middle" x="604.7" y="-73" font-family="Helvetica,sans-Serif" font-size="10.00">/Magick++/Pixels.h</text>
</a>
</g>
</g>
<!-- Node3&#45;&gt;Node7 -->
<g id="edge30_Node000003_Node000007" class="edge">
<title>Node3&#45;&gt;Node7</title>
<g id="a_edge30_Node000003_Node000007"><a xlink:title=" ">
<path fill="none" stroke="#63b8ff" d="M777.31,-338.89C665.66,-331.49 484.18,-316.21 462.7,-294 412.39,-242 428.99,-184.57 478.7,-132 494.87,-114.9 517.63,-103.53 539.37,-96.02"/>
<polygon fill="#63b8ff" stroke="#63b8ff" points="777.35,-342.4 787.56,-339.56 777.81,-335.41 777.35,-342.4"/>
</a>
</g>
</g>
<!-- Node8 -->
<g id="Node000008" class="node">
<title>Node8</title>
<g id="a_Node000008"><a xlink:href="CoderInfo_8h.html" target="_top" xlink:title=" ">
<polygon fill="white" stroke="#666666" points="1478.7,-228 1324.7,-228 1324.7,-198 1478.7,-198 1478.7,-228"/>
<text text-anchor="start" x="1332.7" y="-216" font-family="Helvetica,sans-Serif" font-size="10.00">/usr/include/GraphicsMagick</text>
<text text-anchor="middle" x="1401.7" y="-205" font-family="Helvetica,sans-Serif" font-size="10.00">/Magick++/CoderInfo.h</text>
</a>
</g>
</g>
<!-- Node3&#45;&gt;Node8 -->
<g id="edge9_Node000003_Node000008" class="edge">
<title>Node3&#45;&gt;Node8</title>
<g id="a_edge9_Node000003_Node000008"><a xlink:title=" ">
<path fill="none" stroke="#63b8ff" d="M952.06,-340.41C1063.26,-334.78 1248.42,-321.54 1310.7,-294 1344.56,-279.03 1374.87,-246.83 1390.51,-228.17"/>
<polygon fill="#63b8ff" stroke="#63b8ff" points="951.68,-336.93 941.87,-340.92 952.03,-343.92 951.68,-336.93"/>
</a>
</g>
</g>
<!-- Node9 -->
<g id="Node000009" class="node">
<title>Node9</title>
<g id="a_Node000009"><a xlink:href="STL_8h.html" target="_top" xlink:title=" ">
<polygon fill="white" stroke="#666666" points="1219.7,-162 1065.7,-162 1065.7,-132 1219.7,-132 1219.7,-162"/>
<text text-anchor="start" x="1073.7" y="-150" font-family="Helvetica,sans-Serif" font-size="10.00">/usr/include/GraphicsMagick</text>
<text text-anchor="middle" x="1142.7" y="-139" font-family="Helvetica,sans-Serif" font-size="10.00">/Magick++/STL.h</text>
</a>
</g>
</g>
<!-- Node3&#45;&gt;Node9 -->
<g id="edge31_Node000003_Node000009" class="edge">
<title>Node3&#45;&gt;Node9</title>
<g id="a_edge31_Node000003_Node000009"><a xlink:title=" ">
<path fill="none" stroke="#63b8ff" d="M951.96,-332.64C1061.94,-316.23 1241.09,-281.82 1277.7,-228 1299.68,-195.67 1254.6,-174.45 1210.73,-162.04"/>
<polygon fill="#63b8ff" stroke="#63b8ff" points="951.25,-329.2 941.86,-334.12 952.27,-336.13 951.25,-329.2"/>
</a>
</g>
</g>
<!-- Node10 -->
<g id="Node000010" class="node">
<title>Node10</title>
<g id="a_Node000010"><a xlink:href="Color_8h.html" target="_top" xlink:title=" ">
<polygon fill="white" stroke="#666666" points="836.7,-294 682.7,-294 682.7,-264 836.7,-264 836.7,-294"/>
<text text-anchor="start" x="690.7" y="-282" font-family="Helvetica,sans-Serif" font-size="10.00">/usr/include/GraphicsMagick</text>
<text text-anchor="middle" x="759.7" y="-271" font-family="Helvetica,sans-Serif" font-size="10.00">/Magick++/Color.h</text>
</a>
</g>
</g>
<!-- Node3&#45;&gt;Node10 -->
<g id="edge12_Node000003_Node000010" class="edge">
<title>Node3&#45;&gt;Node10</title>
<g id="a_edge12_Node000003_Node000010"><a xlink:title=" ">
<path fill="none" stroke="#63b8ff" d="M833.02,-324.69C816.81,-314.82 797.45,-303.01 782.69,-294.01"/>
<polygon fill="#63b8ff" stroke="#63b8ff" points="831.29,-327.74 841.65,-329.95 834.94,-321.76 831.29,-327.74"/>
</a>
</g>
</g>
<!-- Node11 -->
<g id="Node000011" class="node">
<title>Node11</title>
<g id="a_Node000011"><a xlink:href="Drawable_8h.html" target="_top" xlink:title=" ">
<polygon fill="white" stroke="#666666" points="886.7,-228 732.7,-228 732.7,-198 886.7,-198 886.7,-228"/>
<text text-anchor="start" x="740.7" y="-216" font-family="Helvetica,sans-Serif" font-size="10.00">/usr/include/GraphicsMagick</text>
<text text-anchor="middle" x="809.7" y="-205" font-family="Helvetica,sans-Serif" font-size="10.00">/Magick++/Drawable.h</text>
</a>
</g>
</g>
<!-- Node3&#45;&gt;Node11 -->
<g id="edge20_Node000003_Node000011" class="edge">
<title>Node3&#45;&gt;Node11</title>
<g id="a_edge20_Node000003_Node000011"><a xlink:title=" ">
<path fill="none" stroke="#63b8ff" d="M861.44,-319.56C858.66,-303.29 853.79,-281.72 845.7,-264 839.74,-250.96 830.16,-237.87 822.37,-228.36"/>
<polygon fill="#63b8ff" stroke="#63b8ff" points="858.04,-320.53 863.04,-329.87 864.96,-319.45 858.04,-320.53"/>
</a>
</g>
</g>
<!-- Node12 -->
<g id="Node000012" class="node">
<title>Node12</title>
<g id="a_Node000012"><a xlink:href="Montage_8h.html" target="_top" xlink:title=" ">
<polygon fill="white" stroke="#666666" points="1096.7,-228 942.7,-228 942.7,-198 1096.7,-198 1096.7,-228"/>
<text text-anchor="start" x="950.7" y="-216" font-family="Helvetica,sans-Serif" font-size="10.00">/usr/include/GraphicsMagick</text>
<text text-anchor="middle" x="1019.7" y="-205" font-family="Helvetica,sans-Serif" font-size="10.00">/Magick++/Montage.h</text>
</a>
</g>
</g>
<!-- Node3&#45;&gt;Node12 -->
<g id="edge29_Node000003_Node000012" class="edge">
<title>Node3&#45;&gt;Node12</title>
<g id="a_edge29_Node000003_Node000012"><a xlink:title=" ">
<path fill="none" stroke="#63b8ff" d="M951.77,-331.72C995.7,-323.56 1042.46,-311.15 1055.7,-294 1071.52,-273.5 1050.45,-244.95 1034.51,-228.08"/>
<polygon fill="#63b8ff" stroke="#63b8ff" points="951.09,-328.29 941.87,-333.5 952.33,-335.18 951.09,-328.29"/>
</a>
</g>
</g>
<!-- Node13 -->
<g id="Node000013" class="node">
<title>Node13</title>
<g id="a_Node000013"><a xlink:href="Exception_8h.html" target="_top" xlink:title=" ">
<polygon fill="white" stroke="#666666" points="1268.7,-228 1114.7,-228 1114.7,-198 1268.7,-198 1268.7,-228"/>
<text text-anchor="start" x="1122.7" y="-216" font-family="Helvetica,sans-Serif" font-size="10.00">/usr/include/GraphicsMagick</text>
<text text-anchor="middle" x="1191.7" y="-205" font-family="Helvetica,sans-Serif" font-size="10.00">/Magick++/Exception.h</text>
</a>
</g>
</g>
<!-- Node3&#45;&gt;Node13 -->
<g id="edge21_Node000003_Node000013" class="edge">
<title>Node3&#45;&gt;Node13</title>
<g id="a_edge21_Node000003_Node000013"><a xlink:title=" ">
<path fill="none" stroke="#63b8ff" d="M951.97,-330C989.77,-322.15 1033.92,-310.53 1071.7,-294 1111.38,-276.63 1152.23,-246.2 1174.55,-228.3"/>
<polygon fill="#63b8ff" stroke="#63b8ff" points="951.1,-326.6 942,-332.01 952.49,-333.46 951.1,-326.6"/>
</a>
</g>
</g>
<!-- Node14 -->
<g id="Node000014" class="node">
<title>Node14</title>
<g id="a_Node000014"><a xlink:href="Geometry_8h.html" target="_top" xlink:title=" ">
<polygon fill="white" stroke="#666666" points="1046.7,-294 892.7,-294 892.7,-264 1046.7,-264 1046.7,-294"/>
<text text-anchor="start" x="900.7" y="-282" font-family="Helvetica,sans-Serif" font-size="10.00">/usr/include/GraphicsMagick</text>
<text text-anchor="middle" x="969.7" y="-271" font-family="Helvetica,sans-Serif" font-size="10.00">/Magick++/Geometry.h</text>
</a>
</g>
</g>
<!-- Node3&#45;&gt;Node14 -->
<g id="edge24_Node000003_Node000014" class="edge">
<title>Node3&#45;&gt;Node14</title>
<g id="a_edge24_Node000003_Node000014"><a xlink:title=" ">
<path fill="none" stroke="#63b8ff" d="M896.37,-324.69C912.58,-314.82 931.95,-303.01 946.71,-294.01"/>
<polygon fill="#63b8ff" stroke="#63b8ff" points="894.46,-321.76 887.74,-329.95 898.1,-327.74 894.46,-321.76"/>
</a>
</g>
</g>
<!-- Node15 -->
<g id="Node000015" class="node">
<title>Node15</title>
<g id="a_Node000015"><a xlink:href="TypeMetric_8h.html" target="_top" xlink:title=" ">
<polygon fill="white" stroke="#666666" points="664.7,-294 510.7,-294 510.7,-264 664.7,-264 664.7,-294"/>
<text text-anchor="start" x="518.7" y="-282" font-family="Helvetica,sans-Serif" font-size="10.00">/usr/include/GraphicsMagick</text>
<text text-anchor="middle" x="587.7" y="-271" font-family="Helvetica,sans-Serif" font-size="10.00">/Magick++/TypeMetric.h</text>
</a>
</g>
</g>
<!-- Node3&#45;&gt;Node15 -->
<g id="edge32_Node000003_Node000015" class="edge">
<title>Node3&#45;&gt;Node15</title>
<g id="a_edge32_Node000003_Node000015"><a xlink:title=" ">
<path fill="none" stroke="#63b8ff" d="M793.92,-327.65C748.92,-317.25 691.25,-303.93 648.34,-294.01"/>
<polygon fill="#63b8ff" stroke="#63b8ff" points="793.38,-331.11 803.91,-329.95 794.95,-324.29 793.38,-331.11"/>
</a>
</g>
</g>
<!-- Node5&#45;&gt;Node6 -->
<g id="edge5_Node000005_Node000006" class="edge">
<title>Node5&#45;&gt;Node6</title>
<g id="a_edge5_Node000005_Node000006"><a xlink:title=" ">
<path fill="none" stroke="#63b8ff" d="M602.4,-193.78C624.94,-183.69 652.54,-171.34 673.39,-162.01"/>
<polygon fill="#63b8ff" stroke="#63b8ff" points="600.78,-190.68 593.08,-197.95 603.64,-197.06 600.78,-190.68"/>
</a>
</g>
</g>
<!-- Node6&#45;&gt;Node4 -->
<g id="edge6_Node000006_Node000004" class="edge">
<title>Node6&#45;&gt;Node4</title>
<g id="a_edge6_Node000006_Node000004"><a xlink:title=" ">
<path fill="none" stroke="#63b8ff" d="M745.43,-127.8C804.02,-101.63 910.86,-53.9 963.97,-30.17"/>
<polygon fill="#63b8ff" stroke="#63b8ff" points="743.82,-124.69 736.11,-131.96 746.67,-131.08 743.82,-124.69"/>
</a>
</g>
</g>
<!-- Node6&#45;&gt;Node7 -->
<g id="edge7_Node000006_Node000007" class="edge">
<title>Node6&#45;&gt;Node7</title>
<g id="a_edge7_Node000006_Node000007"><a xlink:title=" ">
<path fill="none" stroke="#63b8ff" d="M673.92,-126.3C658.69,-116.56 640.67,-105.02 626.83,-96.16"/>
<polygon fill="#63b8ff" stroke="#63b8ff" points="672.19,-129.35 682.5,-131.8 675.97,-123.46 672.19,-129.35"/>
</a>
</g>
</g>
<!-- Node7&#45;&gt;Node4 -->
<g id="edge8_Node000007_Node000004" class="edge">
<title>Node7&#45;&gt;Node4</title>
<g id="a_edge8_Node000007_Node000004"><a xlink:title=" ">
<path fill="none" stroke="#63b8ff" d="M692.2,-65.68C760.15,-54.56 853.45,-39.28 918.61,-28.62"/>
<polygon fill="#63b8ff" stroke="#63b8ff" points="691.25,-62.29 681.95,-67.36 692.38,-69.19 691.25,-62.29"/>
</a>
</g>
</g>
<!-- Node8&#45;&gt;Node9 -->
<g id="edge10_Node000008_Node000009" class="edge">
<title>Node8&#45;&gt;Node9</title>
<g id="a_edge10_Node000008_Node000009"><a xlink:title=" ">
<path fill="none" stroke="#63b8ff" d="M1334.99,-195.52C1292.99,-185.14 1239.35,-171.88 1199.4,-162.01"/>
<polygon fill="#63b8ff" stroke="#63b8ff" points="1334.31,-198.95 1344.86,-197.95 1335.99,-192.16 1334.31,-198.95"/>
</a>
</g>
</g>
<!-- Node9&#45;&gt;Node4 -->
<g id="edge11_Node000009_Node000004" class="edge">
<title>Node9&#45;&gt;Node4</title>
<g id="a_edge11_Node000009_Node000004"><a xlink:title=" ">
<path fill="none" stroke="#63b8ff" d="M1119.15,-125.18C1089.02,-98.53 1037.63,-53.09 1011.69,-30.14"/>
<polygon fill="#63b8ff" stroke="#63b8ff" points="1116.88,-127.84 1126.68,-131.84 1121.51,-122.59 1116.88,-127.84"/>
</a>
</g>
</g>
<!-- Node10&#45;&gt;Node6 -->
<g id="edge16_Node000010_Node000006" class="edge">
<title>Node10&#45;&gt;Node6</title>
<g id="a_edge16_Node000010_Node000006"><a xlink:title=" ">
<path fill="none" stroke="#63b8ff" d="M740.73,-255.63C734.54,-247.38 728.12,-237.68 723.7,-228 713.73,-206.19 708.66,-178.55 706.35,-162.13"/>
<polygon fill="#63b8ff" stroke="#63b8ff" points="738.09,-257.93 747.02,-263.64 743.6,-253.61 738.09,-257.93"/>
</a>
</g>
</g>
<!-- Node10&#45;&gt;Node7 -->
<g id="edge19_Node000010_Node000007" class="edge">
<title>Node10&#45;&gt;Node7</title>
<g id="a_edge19_Node000010_Node000007"><a xlink:title=" ">
<path fill="none" stroke="#63b8ff" d="M672.74,-263.37C589.84,-249.31 477.32,-229.93 475.7,-228 434.27,-178.65 525.93,-121.9 575.55,-96.09"/>
<polygon fill="#63b8ff" stroke="#63b8ff" points="672.25,-266.83 682.69,-265.05 673.42,-259.93 672.25,-266.83"/>
</a>
</g>
</g>
<!-- Node10&#45;&gt;Node11 -->
<g id="edge13_Node000010_Node000011" class="edge">
<title>Node10&#45;&gt;Node11</title>
<g id="a_edge13_Node000010_Node000011"><a xlink:title=" ">
<path fill="none" stroke="#63b8ff" d="M777.03,-255.81C784.2,-246.64 792.29,-236.28 798.63,-228.16"/>
<polygon fill="#63b8ff" stroke="#63b8ff" points="774.19,-253.76 770.79,-263.8 779.71,-258.07 774.19,-253.76"/>
</a>
</g>
</g>
<!-- Node10&#45;&gt;Node12 -->
<g id="edge17_Node000010_Node000012" class="edge">
<title>Node10&#45;&gt;Node12</title>
<g id="a_edge17_Node000010_Node000012"><a xlink:title=" ">
<path fill="none" stroke="#63b8ff" d="M826.66,-261.52C868.83,-251.14 922.67,-237.88 962.77,-228.01"/>
<polygon fill="#63b8ff" stroke="#63b8ff" points="825.63,-258.17 816.75,-263.95 827.3,-264.96 825.63,-258.17"/>
</a>
</g>
</g>
<!-- Node11&#45;&gt;Node6 -->
<g id="edge14_Node000011_Node000006" class="edge">
<title>Node11&#45;&gt;Node6</title>
<g id="a_edge14_Node000011_Node000006"><a xlink:title=" ">
<path fill="none" stroke="#63b8ff" d="M778.02,-192.69C761.81,-182.82 742.45,-171.01 727.69,-162.01"/>
<polygon fill="#63b8ff" stroke="#63b8ff" points="776.29,-195.74 786.65,-197.95 779.94,-189.76 776.29,-195.74"/>
</a>
</g>
</g>
<!-- Node11&#45;&gt;Node9 -->
<g id="edge15_Node000011_Node000009" class="edge">
<title>Node11&#45;&gt;Node9</title>
<g id="a_edge15_Node000011_Node000009"><a xlink:title=" ">
<path fill="none" stroke="#63b8ff" d="M892.74,-196.04C947.13,-185.59 1017.56,-172.05 1069.79,-162.01"/>
<polygon fill="#63b8ff" stroke="#63b8ff" points="891.93,-192.63 882.77,-197.95 893.26,-199.5 891.93,-192.63"/>
</a>
</g>
</g>
<!-- Node12&#45;&gt;Node9 -->
<g id="edge18_Node000012_Node000009" class="edge">
<title>Node12&#45;&gt;Node9</title>
<g id="a_edge18_Node000012_Node000009"><a xlink:title=" ">
<path fill="none" stroke="#63b8ff" d="M1055.75,-193.24C1074.94,-183.25 1098.16,-171.18 1115.77,-162.01"/>
<polygon fill="#63b8ff" stroke="#63b8ff" points="1053.94,-190.23 1046.69,-197.95 1057.18,-196.44 1053.94,-190.23"/>
</a>
</g>
</g>
<!-- Node13&#45;&gt;Node6 -->
<g id="edge22_Node000013_Node000006" class="edge">
<title>Node13&#45;&gt;Node6</title>
<g id="a_edge22_Node000013_Node000006"><a xlink:title=" ">
<path fill="none" stroke="#63b8ff" d="M1104.42,-197.85C986.27,-181.01 860.69,-165.9 782.06,-156.78"/>
<polygon fill="#63b8ff" stroke="#63b8ff" points="1103.97,-201.32 1114.36,-199.27 1104.96,-194.39 1103.97,-201.32"/>
</a>
</g>
</g>
<!-- Node13&#45;&gt;Node9 -->
<g id="edge23_Node000013_Node000009" class="edge">
<title>Node13&#45;&gt;Node9</title>
<g id="a_edge23_Node000013_Node000009"><a xlink:title=" ">
<path fill="none" stroke="#63b8ff" d="M1174.71,-189.81C1167.68,-180.64 1159.75,-170.28 1153.54,-162.16"/>
<polygon fill="#63b8ff" stroke="#63b8ff" points="1171.96,-191.98 1180.82,-197.8 1177.52,-187.73 1171.96,-191.98"/>
</a>
</g>
</g>
<!-- Node14&#45;&gt;Node6 -->
<g id="edge26_Node000014_Node000006" class="edge">
<title>Node14&#45;&gt;Node6</title>
<g id="a_edge26_Node000014_Node000006"><a xlink:title=" ">
<path fill="none" stroke="#63b8ff" d="M954.53,-255.55C941.12,-237.4 919.96,-212.55 895.7,-198 861.3,-177.37 818.45,-165.16 782.06,-157.97"/>
<polygon fill="#63b8ff" stroke="#63b8ff" points="951.81,-257.75 960.47,-263.85 957.5,-253.68 951.81,-257.75"/>
</a>
</g>
</g>
<!-- Node14&#45;&gt;Node11 -->
<g id="edge25_Node000014_Node000011" class="edge">
<title>Node14&#45;&gt;Node11</title>
<g id="a_edge25_Node000014_Node000011"><a xlink:title=" ">
<path fill="none" stroke="#63b8ff" d="M925.17,-260.19C899.76,-250.02 868.36,-237.47 844.73,-228.01"/>
<polygon fill="#63b8ff" stroke="#63b8ff" points="924,-263.49 934.58,-263.95 926.6,-256.99 924,-263.49"/>
</a>
</g>
</g>
<!-- Node14&#45;&gt;Node12 -->
<g id="edge27_Node000014_Node000012" class="edge">
<title>Node14&#45;&gt;Node12</title>
<g id="a_edge27_Node000014_Node000012"><a xlink:title=" ">
<path fill="none" stroke="#63b8ff" d="M987.03,-255.81C994.2,-246.64 1002.29,-236.28 1008.63,-228.16"/>
<polygon fill="#63b8ff" stroke="#63b8ff" points="984.19,-253.76 980.79,-263.8 989.71,-258.07 984.19,-253.76"/>
</a>
</g>
</g>
<!-- Node15&#45;&gt;Node6 -->
<g id="edge33_Node000015_Node000006" class="edge">
<title>Node15&#45;&gt;Node6</title>
<g id="a_edge33_Node000015_Node000006"><a xlink:title=" ">
<path fill="none" stroke="#63b8ff" d="M615.05,-257.66C625.78,-249.08 637.85,-238.62 647.7,-228 667.29,-206.86 685.86,-178.77 696.21,-162.12"/>
<polygon fill="#63b8ff" stroke="#63b8ff" points="612.89,-254.91 607.17,-263.84 617.2,-260.43 612.89,-254.91"/>
</a>
</g>
</g>
<!-- Node16&#45;&gt;Node17 -->
<g id="edge35_Node000016_Node000017" class="edge">
<title>Node16&#45;&gt;Node17</title>
<g id="a_edge35_Node000016_Node000017"><a xlink:title=" ">
<path fill="none" stroke="#63b8ff" d="M210.34,-324.03C224.72,-314.34 241.65,-302.94 254.67,-294.16"/>
<polygon fill="#63b8ff" stroke="#63b8ff" points="208.12,-321.31 201.78,-329.8 212.03,-327.11 208.12,-321.31"/>
</a>
</g>
</g>
<!-- Node16&#45;&gt;Node18 -->
<g id="edge36_Node000016_Node000018" class="edge">
<title>Node16&#45;&gt;Node18</title>
<g id="a_edge36_Node000016_Node000018"><a xlink:title=" ">
<path fill="none" stroke="#63b8ff" d="M151.3,-324.2C133.63,-312.29 112.01,-297.73 98.55,-288.66"/>
<polygon fill="#63b8ff" stroke="#63b8ff" points="149.36,-327.11 159.61,-329.8 153.27,-321.31 149.36,-327.11"/>
</a>
</g>
</g>
<!-- Node16&#45;&gt;Node19 -->
<g id="edge38_Node000016_Node000019" class="edge">
<title>Node16&#45;&gt;Node19</title>
<g id="a_edge38_Node000016_Node000019"><a xlink:title=" ">
<path fill="none" stroke="#63b8ff" d="M175.74,-319.67C171.43,-302.84 163.92,-280.58 151.7,-264 138.39,-245.95 116.79,-231.33 101.95,-222.66"/>
<polygon fill="#63b8ff" stroke="#63b8ff" points="172.43,-320.89 178.12,-329.83 179.24,-319.29 172.43,-320.89"/>
</a>
</g>
</g>
<!-- Node18&#45;&gt;Node19 -->
<g id="edge37_Node000018_Node000019" class="edge">
<title>Node18&#45;&gt;Node19</title>
<g id="a_edge37_Node000018_Node000019"><a xlink:title=" ">
<path fill="none" stroke="#63b8ff" d="M85.7,-259.08C85.7,-247.13 85.7,-232.22 85.7,-222.91"/>
<polygon fill="#63b8ff" stroke="#63b8ff" points="82.2,-259.37 85.7,-269.37 89.2,-259.37 82.2,-259.37"/>
</a>
</g>
</g>
<!-- Node20&#45;&gt;Node2 -->
<g id="edge42_Node000020_Node000002" class="edge">
<title>Node20&#45;&gt;Node2</title>
<g id="a_edge42_Node000020_Node000002"><a xlink:title=" ">
<path fill="none" stroke="#63b8ff" d="M134.17,-455.75C147.7,-446.13 163.55,-434.86 175.78,-426.16"/>
<polygon fill="#63b8ff" stroke="#63b8ff" points="131.79,-453.15 125.67,-461.8 135.85,-458.85 131.79,-453.15"/>
</a>
</g>
</g>
</g>
</svg>
