<?xml version="1.0" encoding="UTF-8" standalone="no"?>
<!DOCTYPE svg PUBLIC "-//W3C//DTD SVG 1.1//EN"
 "http://www.w3.org/Graphics/SVG/1.1/DTD/svg11.dtd">
<!-- Generated by graphviz version 2.43.0 (0)
 -->
<!-- Title: WriteImage Pages: 1 -->
<svg width="427pt" height="101pt"
 viewBox="0.00 0.00 427.00 101.00" xmlns="http://www.w3.org/2000/svg" xmlns:xlink="http://www.w3.org/1999/xlink">
<g id="graph0" class="graph" transform="scale(1 1) rotate(0) translate(4 97)">
<title>WriteImage</title>
<!-- Node1 -->
<g id="Node000001" class="node">
<title>Node1</title>
<g id="a_Node000001"><a xlink:title=" ">
<polygon fill="#999999" stroke="#666666" points="419,-56 345,-56 345,-37 419,-37 419,-56"/>
<text text-anchor="middle" x="382" y="-44" font-family="Helvetica,sans-Serif" font-size="10.00">WriteImage</text>
</a>
</g>
</g>
<!-- Node2 -->
<g id="Node000002" class="node">
<title>Node2</title>
<g id="a_Node000002"><a xlink:href="chronos_8cpp.html#a8c442ee2efdfad19f622ad860721ab3f" target="_top" xlink:title="Process the Image in GraphicsMagick context.">
<polygon fill="white" stroke="#666666" points="309,-93 175,-93 175,-74 309,-74 309,-93"/>
<text text-anchor="middle" x="242" y="-81" font-family="Helvetica,sans-Serif" font-size="10.00">chronos_process_image</text>
</a>
</g>
</g>
<!-- Node1&#45;&gt;Node2 -->
<g id="edge1_Node000001_Node000002" class="edge">
<title>Node1&#45;&gt;Node2</title>
<g id="a_edge1_Node000001_Node000002"><a xlink:title=" ">
<path fill="none" stroke="#63b8ff" d="M335.79,-58.62C317.33,-63.57 296.28,-69.22 278.9,-73.88"/>
<polygon fill="#63b8ff" stroke="#63b8ff" points="336.71,-62 345.46,-56.03 334.9,-55.24 336.71,-62"/>
</a>
</g>
</g>
<!-- Node4 -->
<g id="Node000004" class="node">
<title>Node4</title>
<g id="a_Node000004"><a xlink:href="chronos_8cpp.html#ab6e29349c1d27559eca20345417eec1a" target="_top" xlink:title=" ">
<polygon fill="white" stroke="#666666" points="304.5,-56 179.5,-56 179.5,-37 304.5,-37 304.5,-56"/>
<text text-anchor="middle" x="242" y="-44" font-family="Helvetica,sans-Serif" font-size="10.00">chronos_resize_image</text>
</a>
</g>
</g>
<!-- Node1&#45;&gt;Node4 -->
<g id="edge3_Node000001_Node000004" class="edge">
<title>Node1&#45;&gt;Node4</title>
<g id="a_edge3_Node000001_Node000004"><a xlink:title=" ">
<path fill="none" stroke="#63b8ff" d="M334.6,-46.5C324.98,-46.5 314.7,-46.5 304.63,-46.5"/>
<polygon fill="#63b8ff" stroke="#63b8ff" points="334.74,-50 344.74,-46.5 334.74,-43 334.74,-50"/>
</a>
</g>
</g>
<!-- Node5 -->
<g id="Node000005" class="node">
<title>Node5</title>
<g id="a_Node000005"><a xlink:href="chronos_8cpp.html#a0c3f0d6ab9edd97cb75278bf820c5de1" target="_top" xlink:title=" ">
<polygon fill="white" stroke="#666666" points="304.5,-19 179.5,-19 179.5,0 304.5,0 304.5,-19"/>
<text text-anchor="middle" x="242" y="-7" font-family="Helvetica,sans-Serif" font-size="10.00">chronos_rgb_to_ycocg</text>
</a>
</g>
</g>
<!-- Node1&#45;&gt;Node5 -->
<g id="edge4_Node000001_Node000005" class="edge">
<title>Node1&#45;&gt;Node5</title>
<g id="a_edge4_Node000001_Node000005"><a xlink:title=" ">
<path fill="none" stroke="#63b8ff" d="M335.79,-34.38C317.33,-29.43 296.28,-23.78 278.9,-19.12"/>
<polygon fill="#63b8ff" stroke="#63b8ff" points="334.9,-37.76 345.46,-36.97 336.71,-31 334.9,-37.76"/>
</a>
</g>
</g>
<!-- Node3 -->
<g id="Node000003" class="node">
<title>Node3</title>
<g id="a_Node000003"><a xlink:href="chronos_8cpp.html#a27732e3f3736db194dd933a3f7f511ec" target="_top" xlink:title="Convert any GraphicsMagick supported image format to PPM image format.">
<polygon fill="white" stroke="#666666" points="139,-93 0,-93 0,-74 139,-74 139,-93"/>
<text text-anchor="middle" x="69.5" y="-81" font-family="Helvetica,sans-Serif" font-size="10.00">chronos_convert_to_ppm</text>
</a>
</g>
</g>
<!-- Node2&#45;&gt;Node3 -->
<g id="edge2_Node000002_Node000003" class="edge">
<title>Node2&#45;&gt;Node3</title>
<g id="a_edge2_Node000002_Node000003"><a xlink:title=" ">
<path fill="none" stroke="#63b8ff" d="M164.44,-83.5C156.05,-83.5 147.54,-83.5 139.26,-83.5"/>
<polygon fill="#63b8ff" stroke="#63b8ff" points="164.59,-87 174.59,-83.5 164.59,-80 164.59,-87"/>
</a>
</g>
</g>
</g>
</svg>
