<?xml version="1.0" encoding="UTF-8" standalone="no"?>
<!DOCTYPE svg PUBLIC "-//W3C//DTD SVG 1.1//EN"
 "http://www.w3.org/Graphics/SVG/1.1/DTD/svg11.dtd">
<!-- Generated by graphviz version 2.43.0 (0)
 -->
<!-- Title: thirdparty/fmt/include/fmt/core.h Pages: 1 -->
<svg width="306pt" height="93pt"
 viewBox="0.00 0.00 305.50 93.00" xmlns="http://www.w3.org/2000/svg" xmlns:xlink="http://www.w3.org/1999/xlink">
<g id="graph0" class="graph" transform="scale(1 1) rotate(0) translate(4 89)">
<title>thirdparty/fmt/include/fmt/core.h</title>
<!-- Node1 -->
<g id="Node000001" class="node">
<title>Node1</title>
<g id="a_Node000001"><a xlink:title=" ">
<polygon fill="#999999" stroke="#666666" points="206.5,-85 83.5,-85 83.5,-55 206.5,-55 206.5,-85"/>
<text text-anchor="start" x="91.5" y="-73" font-family="Helvetica,sans-Serif" font-size="10.00">thirdparty/fmt/include</text>
<text text-anchor="middle" x="145" y="-62" font-family="Helvetica,sans-Serif" font-size="10.00">/fmt/core.h</text>
</a>
</g>
</g>
<!-- Node2 -->
<g id="Node000002" class="node">
<title>Node2</title>
<g id="a_Node000002"><a xlink:href="receiver-normal_8cpp.html" target="_top" xlink:title="CHRONOS&#45;LoRa Receiver program (Normal)">
<polygon fill="white" stroke="#666666" points="132,-19 0,-19 0,0 132,0 132,-19"/>
<text text-anchor="middle" x="66" y="-7" font-family="Helvetica,sans-Serif" font-size="10.00">src/receiver&#45;normal.cpp</text>
</a>
</g>
</g>
<!-- Node1&#45;&gt;Node2 -->
<g id="edge1_Node000001_Node000002" class="edge">
<title>Node1&#45;&gt;Node2</title>
<g id="a_edge1_Node000001_Node000002"><a xlink:title=" ">
<path fill="none" stroke="#63b8ff" d="M117.74,-48.82C104.13,-38.73 88.35,-27.05 77.84,-19.27"/>
<polygon fill="#63b8ff" stroke="#63b8ff" points="115.76,-51.7 125.88,-54.84 119.92,-46.07 115.76,-51.7"/>
</a>
</g>
</g>
<!-- Node3 -->
<g id="Node000003" class="node">
<title>Node3</title>
<g id="a_Node000003"><a xlink:href="transmitter-normal_8cpp.html" target="_top" xlink:title="CHRONOS&#45;LoRa Transmitter program (Normal)">
<polygon fill="white" stroke="#666666" points="297.5,-19 150.5,-19 150.5,0 297.5,0 297.5,-19"/>
<text text-anchor="middle" x="224" y="-7" font-family="Helvetica,sans-Serif" font-size="10.00">src/transmitter&#45;normal.cpp</text>
</a>
</g>
</g>
<!-- Node1&#45;&gt;Node3 -->
<g id="edge2_Node000001_Node000003" class="edge">
<title>Node1&#45;&gt;Node3</title>
<g id="a_edge2_Node000001_Node000003"><a xlink:title=" ">
<path fill="none" stroke="#63b8ff" d="M172.26,-48.82C185.87,-38.73 201.65,-27.05 212.16,-19.27"/>
<polygon fill="#63b8ff" stroke="#63b8ff" points="170.08,-46.07 164.12,-54.84 174.24,-51.7 170.08,-46.07"/>
</a>
</g>
</g>
</g>
</svg>
