<?xml version="1.0" encoding="UTF-8" standalone="no"?>
<!DOCTYPE svg PUBLIC "-//W3C//DTD SVG 1.1//EN"
 "http://www.w3.org/Graphics/SVG/1.1/DTD/svg11.dtd">
<!-- Generated by graphviz version 2.43.0 (0)
 -->
<!-- Title: include/crc32c.hpp Pages: 1 -->
<svg width="372pt" height="137pt"
 viewBox="0.00 0.00 371.50 137.00" xmlns="http://www.w3.org/2000/svg" xmlns:xlink="http://www.w3.org/1999/xlink">
<g id="graph0" class="graph" transform="scale(1 1) rotate(0) translate(4 133)">
<title>include/crc32c.hpp</title>
<!-- Node1 -->
<g id="Node000001" class="node">
<title>Node1</title>
<g id="a_Node000001"><a xlink:title="CRC32&#45;Castagnoli header using Hardware&#45;accelerated &amp; Parallel Computation CRC32C intrinsics from ARMv...">
<polygon fill="#999999" stroke="#666666" points="253.5,-129 146.5,-129 146.5,-110 253.5,-110 253.5,-129"/>
<text text-anchor="middle" x="200" y="-117" font-family="Helvetica,sans-Serif" font-size="10.00">include/crc32c.hpp</text>
</a>
</g>
</g>
<!-- Node2 -->
<g id="Node000002" class="node">
<title>Node2</title>
<g id="a_Node000002"><a xlink:href="chronos__types_8hpp.html" target="_top" xlink:title="Collection of CHRONOS&#45;LoRa Types.">
<polygon fill="white" stroke="#666666" points="108,-74 0,-74 0,-55 108,-55 108,-74"/>
<text text-anchor="middle" x="54" y="-62" font-family="Helvetica,sans-Serif" font-size="10.00">chronos_types.hpp</text>
</a>
</g>
</g>
<!-- Node1&#45;&gt;Node2 -->
<g id="edge1_Node000001_Node000002" class="edge">
<title>Node1&#45;&gt;Node2</title>
<g id="a_edge1_Node000001_Node000002"><a xlink:title=" ">
<path fill="none" stroke="#63b8ff" d="M176.54,-109.98C152.42,-101.23 114.63,-87.51 87.4,-77.62"/>
<polygon fill="#63b8ff" stroke="#63b8ff" points="88.48,-74.29 77.88,-74.17 86.09,-80.87 88.48,-74.29"/>
</a>
</g>
</g>
<!-- Node3 -->
<g id="Node000003" class="node">
<title>Node3</title>
<g id="a_Node000003"><a xlink:title=" ">
<polygon fill="#e0e0e0" stroke="#999999" points="120,-19 70,-19 70,0 120,0 120,-19"/>
<text text-anchor="middle" x="95" y="-7" font-family="Helvetica,sans-Serif" font-size="10.00">cstdint</text>
</a>
</g>
</g>
<!-- Node1&#45;&gt;Node3 -->
<g id="edge5_Node000001_Node000003" class="edge">
<title>Node1&#45;&gt;Node3</title>
<g id="a_edge5_Node000001_Node000003"><a xlink:title=" ">
<path fill="none" stroke="#63b8ff" d="M191.2,-109.67C182.29,-100.72 168.13,-86.45 156,-74 140.42,-58.01 122.77,-39.61 110.48,-26.74"/>
<polygon fill="#63b8ff" stroke="#63b8ff" points="112.68,-23.98 103.25,-19.17 107.62,-28.82 112.68,-23.98"/>
</a>
</g>
</g>
<!-- Node4 -->
<g id="Node000004" class="node">
<title>Node4</title>
<g id="a_Node000004"><a xlink:title=" ">
<polygon fill="#e0e0e0" stroke="#999999" points="235.5,-74 164.5,-74 164.5,-55 235.5,-55 235.5,-74"/>
<text text-anchor="middle" x="200" y="-62" font-family="Helvetica,sans-Serif" font-size="10.00">arm_acle.h</text>
</a>
</g>
</g>
<!-- Node1&#45;&gt;Node4 -->
<g id="edge3_Node000001_Node000004" class="edge">
<title>Node1&#45;&gt;Node4</title>
<g id="a_edge3_Node000001_Node000004"><a xlink:title=" ">
<path fill="none" stroke="#63b8ff" d="M200,-109.75C200,-102.8 200,-92.85 200,-84.13"/>
<polygon fill="#63b8ff" stroke="#63b8ff" points="203.5,-84.09 200,-74.09 196.5,-84.09 203.5,-84.09"/>
</a>
</g>
</g>
<!-- Node5 -->
<g id="Node000005" class="node">
<title>Node5</title>
<g id="a_Node000005"><a xlink:title=" ">
<polygon fill="#e0e0e0" stroke="#999999" points="306.5,-74 253.5,-74 253.5,-55 306.5,-55 306.5,-74"/>
<text text-anchor="middle" x="280" y="-62" font-family="Helvetica,sans-Serif" font-size="10.00">cstddef</text>
</a>
</g>
</g>
<!-- Node1&#45;&gt;Node5 -->
<g id="edge4_Node000001_Node000005" class="edge">
<title>Node1&#45;&gt;Node5</title>
<g id="a_edge4_Node000001_Node000005"><a xlink:title=" ">
<path fill="none" stroke="#63b8ff" d="M212.85,-109.98C225.14,-101.84 243.91,-89.41 258.48,-79.76"/>
<polygon fill="#63b8ff" stroke="#63b8ff" points="260.51,-82.61 266.91,-74.17 256.64,-76.78 260.51,-82.61"/>
</a>
</g>
</g>
<!-- Node6 -->
<g id="Node000006" class="node">
<title>Node6</title>
<g id="a_Node000006"><a xlink:title=" ">
<polygon fill="#e0e0e0" stroke="#999999" points="363.5,-74 324.5,-74 324.5,-55 363.5,-55 363.5,-74"/>
<text text-anchor="middle" x="344" y="-62" font-family="Helvetica,sans-Serif" font-size="10.00">print</text>
</a>
</g>
</g>
<!-- Node1&#45;&gt;Node6 -->
<g id="edge6_Node000001_Node000006" class="edge">
<title>Node1&#45;&gt;Node6</title>
<g id="a_edge6_Node000001_Node000006"><a xlink:title=" ">
<path fill="none" stroke="#63b8ff" d="M223.14,-109.98C247.95,-100.85 287.43,-86.32 314.47,-76.37"/>
<polygon fill="#63b8ff" stroke="#63b8ff" points="315.99,-79.54 324.17,-72.8 313.57,-72.97 315.99,-79.54"/>
</a>
</g>
</g>
<!-- Node2&#45;&gt;Node3 -->
<g id="edge2_Node000002_Node000003" class="edge">
<title>Node2&#45;&gt;Node3</title>
<g id="a_edge2_Node000002_Node000003"><a xlink:title=" ">
<path fill="none" stroke="#63b8ff" d="M60.77,-54.75C66.56,-47.26 75.06,-36.28 82.14,-27.13"/>
<polygon fill="#63b8ff" stroke="#63b8ff" points="85.01,-29.14 88.36,-19.09 79.47,-24.86 85.01,-29.14"/>
</a>
</g>
</g>
</g>
</svg>
