<?xml version="1.0" encoding="UTF-8" standalone="no"?>
<!DOCTYPE svg PUBLIC "-//W3C//DTD SVG 1.1//EN"
 "http://www.w3.org/Graphics/SVG/1.1/DTD/svg11.dtd">
<!-- Generated by graphviz version 2.43.0 (0)
 -->
<!-- Title: thirdparty/RadioLib/include/RadioLib/utils/CRC.h Pages: 1 -->
<svg width="586pt" height="544pt"
 viewBox="0.00 0.00 585.50 544.00" xmlns="http://www.w3.org/2000/svg" xmlns:xlink="http://www.w3.org/1999/xlink">
<g id="graph0" class="graph" transform="scale(1 1) rotate(0) translate(4 540)">
<title>thirdparty/RadioLib/include/RadioLib/utils/CRC.h</title>
<!-- Node1 -->
<g id="Node000001" class="node">
<title>Node1</title>
<g id="a_Node000001"><a xlink:title=" ">
<polygon fill="#999999" stroke="#666666" points="453.5,-536 297.5,-536 297.5,-506 453.5,-506 453.5,-536"/>
<text text-anchor="start" x="305.5" y="-524" font-family="Helvetica,sans-Serif" font-size="10.00">thirdparty/RadioLib</text>
<text text-anchor="middle" x="375.5" y="-513" font-family="Helvetica,sans-Serif" font-size="10.00">/include/RadioLib/utils/CRC.h</text>
</a>
</g>
</g>
<!-- Node2 -->
<g id="Node000002" class="node">
<title>Node2</title>
<g id="a_Node000002"><a xlink:href="RadioLib_8h.html" target="_top" xlink:title=" ">
<polygon fill="white" stroke="#666666" points="370.5,-162 216.5,-162 216.5,-132 370.5,-132 370.5,-162"/>
<text text-anchor="start" x="224.5" y="-150" font-family="Helvetica,sans-Serif" font-size="10.00">thirdparty/RadioLib</text>
<text text-anchor="middle" x="293.5" y="-139" font-family="Helvetica,sans-Serif" font-size="10.00">/include/RadioLib/RadioLib.h</text>
</a>
</g>
</g>
<!-- Node1&#45;&gt;Node2 -->
<g id="edge1_Node000001_Node000002" class="edge">
<title>Node1&#45;&gt;Node2</title>
<g id="a_edge1_Node000001_Node000002"><a xlink:title=" ">
<path fill="none" stroke="#63b8ff" d="M373.81,-495.94C371.23,-463.17 365.54,-402.74 355.5,-352 341.7,-282.29 334.7,-265.51 312.5,-198 308.5,-185.83 303.29,-172.25 299.34,-162.32"/>
<polygon fill="#63b8ff" stroke="#63b8ff" points="370.32,-496.24 374.56,-505.95 377.3,-495.71 370.32,-496.24"/>
</a>
</g>
</g>
<!-- Node6 -->
<g id="Node000006" class="node">
<title>Node6</title>
<g id="a_Node000006"><a xlink:href="SX126x_8h.html" target="_top" xlink:title=" ">
<polygon fill="white" stroke="#666666" points="297,-470 152,-470 152,-429 297,-429 297,-470"/>
<text text-anchor="start" x="160" y="-458" font-family="Helvetica,sans-Serif" font-size="10.00">thirdparty/RadioLib</text>
<text text-anchor="start" x="160" y="-447" font-family="Helvetica,sans-Serif" font-size="10.00">/include/RadioLib/modules</text>
<text text-anchor="middle" x="224.5" y="-436" font-family="Helvetica,sans-Serif" font-size="10.00">/SX126x/SX126x.h</text>
</a>
</g>
</g>
<!-- Node1&#45;&gt;Node6 -->
<g id="edge5_Node000001_Node000006" class="edge">
<title>Node1&#45;&gt;Node6</title>
<g id="a_edge5_Node000001_Node000006"><a xlink:title=" ">
<path fill="none" stroke="#63b8ff" d="M335.61,-501.64C314.48,-491.92 288.53,-479.97 267.03,-470.07"/>
<polygon fill="#63b8ff" stroke="#63b8ff" points="334.4,-504.93 344.94,-505.94 337.32,-498.58 334.4,-504.93"/>
</a>
</g>
</g>
<!-- Node11 -->
<g id="Node000011" class="node">
<title>Node11</title>
<g id="a_Node000011"><a xlink:href="AX25_8h.html" target="_top" xlink:title=" ">
<polygon fill="white" stroke="#666666" points="539.5,-316 391.5,-316 391.5,-275 539.5,-275 539.5,-316"/>
<text text-anchor="start" x="399.5" y="-304" font-family="Helvetica,sans-Serif" font-size="10.00">thirdparty/RadioLib</text>
<text text-anchor="start" x="399.5" y="-293" font-family="Helvetica,sans-Serif" font-size="10.00">/include/RadioLib/protocols</text>
<text text-anchor="middle" x="465.5" y="-282" font-family="Helvetica,sans-Serif" font-size="10.00">/AX25/AX25.h</text>
</a>
</g>
</g>
<!-- Node1&#45;&gt;Node11 -->
<g id="edge17_Node000001_Node000011" class="edge">
<title>Node1&#45;&gt;Node11</title>
<g id="a_edge17_Node000001_Node000011"><a xlink:title=" ">
<path fill="none" stroke="#63b8ff" d="M385.05,-496.29C402.89,-451.99 440.97,-357.41 457.53,-316.28"/>
<polygon fill="#63b8ff" stroke="#63b8ff" points="381.76,-495.1 381.27,-505.68 388.25,-497.71 381.76,-495.1"/>
</a>
</g>
</g>
<!-- Node3 -->
<g id="Node000003" class="node">
<title>Node3</title>
<g id="a_Node000003"><a xlink:href="PiHal_8h.html" target="_top" xlink:title=" ">
<polygon fill="white" stroke="#666666" points="312.5,-96 194.5,-96 194.5,-55 312.5,-55 312.5,-96"/>
<text text-anchor="start" x="202.5" y="-84" font-family="Helvetica,sans-Serif" font-size="10.00">thirdparty/RadioLib</text>
<text text-anchor="start" x="202.5" y="-73" font-family="Helvetica,sans-Serif" font-size="10.00">/include/RadioLib/hal</text>
<text text-anchor="middle" x="253.5" y="-62" font-family="Helvetica,sans-Serif" font-size="10.00">/RPi/PiHal.h</text>
</a>
</g>
</g>
<!-- Node2&#45;&gt;Node3 -->
<g id="edge2_Node000002_Node000003" class="edge">
<title>Node2&#45;&gt;Node3</title>
<g id="a_edge2_Node000002_Node000003"><a xlink:title=" ">
<path fill="none" stroke="#63b8ff" d="M280.28,-123.03C275.26,-114.31 269.59,-104.46 264.77,-96.07"/>
<polygon fill="#63b8ff" stroke="#63b8ff" points="277.38,-125.01 285.41,-131.94 283.45,-121.52 277.38,-125.01"/>
</a>
</g>
</g>
<!-- Node4 -->
<g id="Node000004" class="node">
<title>Node4</title>
<g id="a_Node000004"><a xlink:href="receiver-normal_8cpp.html" target="_top" xlink:title="CHRONOS&#45;LoRa Receiver program (Normal)">
<polygon fill="white" stroke="#666666" points="141.5,-19 9.5,-19 9.5,0 141.5,0 141.5,-19"/>
<text text-anchor="middle" x="75.5" y="-7" font-family="Helvetica,sans-Serif" font-size="10.00">src/receiver&#45;normal.cpp</text>
</a>
</g>
</g>
<!-- Node3&#45;&gt;Node4 -->
<g id="edge3_Node000003_Node000004" class="edge">
<title>Node3&#45;&gt;Node4</title>
<g id="a_edge3_Node000003_Node000004"><a xlink:title=" ">
<path fill="none" stroke="#63b8ff" d="M189.57,-51.51C158.25,-40.25 122.41,-27.37 99.4,-19.09"/>
<polygon fill="#63b8ff" stroke="#63b8ff" points="188.53,-54.86 199.13,-54.95 190.9,-48.27 188.53,-54.86"/>
</a>
</g>
</g>
<!-- Node5 -->
<g id="Node000005" class="node">
<title>Node5</title>
<g id="a_Node000005"><a xlink:href="transmitter-normal_8cpp.html" target="_top" xlink:title="CHRONOS&#45;LoRa Transmitter program (Normal)">
<polygon fill="white" stroke="#666666" points="327,-19 180,-19 180,0 327,0 327,-19"/>
<text text-anchor="middle" x="253.5" y="-7" font-family="Helvetica,sans-Serif" font-size="10.00">src/transmitter&#45;normal.cpp</text>
</a>
</g>
</g>
<!-- Node3&#45;&gt;Node5 -->
<g id="edge4_Node000003_Node000005" class="edge">
<title>Node3&#45;&gt;Node5</title>
<g id="a_edge4_Node000003_Node000005"><a xlink:title=" ">
<path fill="none" stroke="#63b8ff" d="M253.5,-44.74C253.5,-35.45 253.5,-25.9 253.5,-19.26"/>
<polygon fill="#63b8ff" stroke="#63b8ff" points="250,-44.95 253.5,-54.95 257,-44.95 250,-44.95"/>
</a>
</g>
</g>
<!-- Node7 -->
<g id="Node000007" class="node">
<title>Node7</title>
<g id="a_Node000007"><a xlink:href="SX1261_8h.html" target="_top" xlink:title=" ">
<polygon fill="white" stroke="#666666" points="284,-316 139,-316 139,-275 284,-275 284,-316"/>
<text text-anchor="start" x="147" y="-304" font-family="Helvetica,sans-Serif" font-size="10.00">thirdparty/RadioLib</text>
<text text-anchor="start" x="147" y="-293" font-family="Helvetica,sans-Serif" font-size="10.00">/include/RadioLib/modules</text>
<text text-anchor="middle" x="211.5" y="-282" font-family="Helvetica,sans-Serif" font-size="10.00">/SX126x/SX1261.h</text>
</a>
</g>
</g>
<!-- Node6&#45;&gt;Node7 -->
<g id="edge6_Node000006_Node000007" class="edge">
<title>Node6&#45;&gt;Node7</title>
<g id="a_edge6_Node000006_Node000007"><a xlink:title=" ">
<path fill="none" stroke="#63b8ff" d="M204.41,-420.21C199.54,-411.84 195.01,-402.39 192.5,-393 185.48,-366.77 194.51,-335.9 202.36,-316.27"/>
<polygon fill="#63b8ff" stroke="#63b8ff" points="201.51,-422.16 209.76,-428.81 207.45,-418.47 201.51,-422.16"/>
</a>
</g>
</g>
<!-- Node9 -->
<g id="Node000009" class="node">
<title>Node9</title>
<g id="a_Node000009"><a xlink:href="SX1262_8h.html" target="_top" xlink:title=" ">
<polygon fill="white" stroke="#666666" points="145,-393 0,-393 0,-352 145,-352 145,-393"/>
<text text-anchor="start" x="8" y="-381" font-family="Helvetica,sans-Serif" font-size="10.00">thirdparty/RadioLib</text>
<text text-anchor="start" x="8" y="-370" font-family="Helvetica,sans-Serif" font-size="10.00">/include/RadioLib/modules</text>
<text text-anchor="middle" x="72.5" y="-359" font-family="Helvetica,sans-Serif" font-size="10.00">/SX126x/SX1262.h</text>
</a>
</g>
</g>
<!-- Node6&#45;&gt;Node9 -->
<g id="edge10_Node000006_Node000009" class="edge">
<title>Node6&#45;&gt;Node9</title>
<g id="a_edge10_Node000006_Node000009"><a xlink:title=" ">
<path fill="none" stroke="#63b8ff" d="M175.76,-424.45C155.19,-414.3 131.57,-402.64 112.11,-393.04"/>
<polygon fill="#63b8ff" stroke="#63b8ff" points="174.44,-427.7 184.96,-428.99 177.54,-421.43 174.44,-427.7"/>
</a>
</g>
</g>
<!-- Node10 -->
<g id="Node000010" class="node">
<title>Node10</title>
<g id="a_Node000010"><a xlink:href="SX1268_8h.html" target="_top" xlink:title=" ">
<polygon fill="white" stroke="#666666" points="347,-393 202,-393 202,-352 347,-352 347,-393"/>
<text text-anchor="start" x="210" y="-381" font-family="Helvetica,sans-Serif" font-size="10.00">thirdparty/RadioLib</text>
<text text-anchor="start" x="210" y="-370" font-family="Helvetica,sans-Serif" font-size="10.00">/include/RadioLib/modules</text>
<text text-anchor="middle" x="274.5" y="-359" font-family="Helvetica,sans-Serif" font-size="10.00">/SX126x/SX1268.h</text>
</a>
</g>
</g>
<!-- Node6&#45;&gt;Node10 -->
<g id="edge15_Node000006_Node000010" class="edge">
<title>Node6&#45;&gt;Node10</title>
<g id="a_edge15_Node000006_Node000010"><a xlink:title=" ">
<path fill="none" stroke="#63b8ff" d="M243.24,-420.39C249.3,-411.3 255.89,-401.41 261.45,-393.07"/>
<polygon fill="#63b8ff" stroke="#63b8ff" points="240.27,-418.53 237.64,-428.79 246.1,-422.42 240.27,-418.53"/>
</a>
</g>
</g>
<!-- Node7&#45;&gt;Node2 -->
<g id="edge7_Node000007_Node000002" class="edge">
<title>Node7&#45;&gt;Node2</title>
<g id="a_edge7_Node000007_Node000002"><a xlink:title=" ">
<path fill="none" stroke="#63b8ff" d="M235.06,-266.95C241.82,-258.32 248.88,-248.55 254.5,-239 269.67,-213.23 282.24,-180.45 288.73,-162.1"/>
<polygon fill="#63b8ff" stroke="#63b8ff" points="232.27,-264.84 228.73,-274.82 237.72,-269.22 232.27,-264.84"/>
</a>
</g>
</g>
<!-- Node8 -->
<g id="Node000008" class="node">
<title>Node8</title>
<g id="a_Node000008"><a xlink:href="LLCC68_8h.html" target="_top" xlink:title=" ">
<polygon fill="white" stroke="#666666" points="246,-239 101,-239 101,-198 246,-198 246,-239"/>
<text text-anchor="start" x="109" y="-227" font-family="Helvetica,sans-Serif" font-size="10.00">thirdparty/RadioLib</text>
<text text-anchor="start" x="109" y="-216" font-family="Helvetica,sans-Serif" font-size="10.00">/include/RadioLib/modules</text>
<text text-anchor="middle" x="173.5" y="-205" font-family="Helvetica,sans-Serif" font-size="10.00">/LLCC68/LLCC68.h</text>
</a>
</g>
</g>
<!-- Node7&#45;&gt;Node8 -->
<g id="edge8_Node000007_Node000008" class="edge">
<title>Node7&#45;&gt;Node8</title>
<g id="a_edge8_Node000007_Node000008"><a xlink:title=" ">
<path fill="none" stroke="#63b8ff" d="M196.97,-265.83C192.44,-256.89 187.55,-247.24 183.42,-239.07"/>
<polygon fill="#63b8ff" stroke="#63b8ff" points="193.87,-267.46 201.52,-274.79 200.12,-264.29 193.87,-267.46"/>
</a>
</g>
</g>
<!-- Node8&#45;&gt;Node2 -->
<g id="edge9_Node000008_Node000002" class="edge">
<title>Node8&#45;&gt;Node2</title>
<g id="a_edge9_Node000008_Node000002"><a xlink:title=" ">
<path fill="none" stroke="#63b8ff" d="M216.29,-192.72C234.03,-182.44 253.96,-170.9 269.13,-162.11"/>
<polygon fill="#63b8ff" stroke="#63b8ff" points="214.15,-189.91 207.25,-197.96 217.65,-195.97 214.15,-189.91"/>
</a>
</g>
</g>
<!-- Node9&#45;&gt;Node2 -->
<g id="edge12_Node000009_Node000002" class="edge">
<title>Node9&#45;&gt;Node2</title>
<g id="a_edge12_Node000009_Node000002"><a xlink:title=" ">
<path fill="none" stroke="#63b8ff" d="M66.43,-341.8C60.49,-303.67 56.76,-237.72 91.5,-198 108.09,-179.03 166.58,-165.89 216.38,-157.86"/>
<polygon fill="#63b8ff" stroke="#63b8ff" points="63,-342.5 68.13,-351.77 69.9,-341.32 63,-342.5"/>
</a>
</g>
</g>
<!-- Node9&#45;&gt;Node4 -->
<g id="edge11_Node000009_Node000004" class="edge">
<title>Node9&#45;&gt;Node4</title>
<g id="a_edge11_Node000009_Node000004"><a xlink:title=" ">
<path fill="none" stroke="#63b8ff" d="M60.65,-342.23C49.5,-312.01 34.5,-263.24 34.5,-219.5 34.5,-219.5 34.5,-219.5 34.5,-146 34.5,-96.11 60.28,-40.14 70.96,-19.1"/>
<polygon fill="#63b8ff" stroke="#63b8ff" points="57.43,-343.63 64.25,-351.73 63.98,-341.14 57.43,-343.63"/>
</a>
</g>
</g>
<!-- Node9&#45;&gt;Node7 -->
<g id="edge14_Node000009_Node000007" class="edge">
<title>Node9&#45;&gt;Node7</title>
<g id="a_edge14_Node000009_Node000007"><a xlink:title=" ">
<path fill="none" stroke="#63b8ff" d="M117.55,-347.19C136.15,-337.15 157.44,-325.67 175.04,-316.17"/>
<polygon fill="#63b8ff" stroke="#63b8ff" points="115.8,-344.16 108.66,-351.99 119.12,-350.32 115.8,-344.16"/>
</a>
</g>
</g>
<!-- Node9&#45;&gt;Node8 -->
<g id="edge13_Node000009_Node000008" class="edge">
<title>Node9&#45;&gt;Node8</title>
<g id="a_edge13_Node000009_Node000008"><a xlink:title=" ">
<path fill="none" stroke="#63b8ff" d="M88.09,-342.79C99.03,-323.25 114.35,-297.05 129.5,-275 137.99,-262.64 148.39,-249.45 156.94,-239.04"/>
<polygon fill="#63b8ff" stroke="#63b8ff" points="84.89,-341.35 83.1,-351.79 91.01,-344.75 84.89,-341.35"/>
</a>
</g>
</g>
<!-- Node10&#45;&gt;Node2 -->
<g id="edge16_Node000010_Node000002" class="edge">
<title>Node10&#45;&gt;Node2</title>
<g id="a_edge16_Node000010_Node000002"><a xlink:title=" ">
<path fill="none" stroke="#63b8ff" d="M285.87,-342.17C288.59,-333.84 291.1,-324.67 292.5,-316 301.6,-259.56 297.35,-191.07 294.86,-162.06"/>
<polygon fill="#63b8ff" stroke="#63b8ff" points="282.49,-341.23 282.52,-351.83 289.1,-343.53 282.49,-341.23"/>
</a>
</g>
</g>
<!-- Node11&#45;&gt;Node2 -->
<g id="edge18_Node000011_Node000002" class="edge">
<title>Node11&#45;&gt;Node2</title>
<g id="a_edge18_Node000011_Node000002"><a xlink:title=" ">
<path fill="none" stroke="#63b8ff" d="M443.98,-266.78C427.23,-246.3 402.67,-218.53 377.5,-198 360.27,-183.95 338.68,-171.18 321.7,-162.07"/>
<polygon fill="#63b8ff" stroke="#63b8ff" points="441.44,-269.21 450.44,-274.79 446.88,-264.81 441.44,-269.21"/>
</a>
</g>
</g>
<!-- Node12 -->
<g id="Node000012" class="node">
<title>Node12</title>
<g id="a_Node000012"><a xlink:href="APRS_8h.html" target="_top" xlink:title=" ">
<polygon fill="white" stroke="#666666" points="577.5,-239 429.5,-239 429.5,-198 577.5,-198 577.5,-239"/>
<text text-anchor="start" x="437.5" y="-227" font-family="Helvetica,sans-Serif" font-size="10.00">thirdparty/RadioLib</text>
<text text-anchor="start" x="437.5" y="-216" font-family="Helvetica,sans-Serif" font-size="10.00">/include/RadioLib/protocols</text>
<text text-anchor="middle" x="503.5" y="-205" font-family="Helvetica,sans-Serif" font-size="10.00">/APRS/APRS.h</text>
</a>
</g>
</g>
<!-- Node11&#45;&gt;Node12 -->
<g id="edge19_Node000011_Node000012" class="edge">
<title>Node11&#45;&gt;Node12</title>
<g id="a_edge19_Node000011_Node000012"><a xlink:title=" ">
<path fill="none" stroke="#63b8ff" d="M480.03,-265.83C484.56,-256.89 489.45,-247.24 493.58,-239.07"/>
<polygon fill="#63b8ff" stroke="#63b8ff" points="476.88,-264.29 475.48,-274.79 483.13,-267.46 476.88,-264.29"/>
</a>
</g>
</g>
<!-- Node12&#45;&gt;Node2 -->
<g id="edge20_Node000012_Node000002" class="edge">
<title>Node12&#45;&gt;Node2</title>
<g id="a_edge20_Node000012_Node000002"><a xlink:title=" ">
<path fill="none" stroke="#63b8ff" d="M434.94,-194.81C402.26,-184 364.21,-171.4 335.81,-162"/>
<polygon fill="#63b8ff" stroke="#63b8ff" points="433.85,-198.14 444.44,-197.96 436.05,-191.49 433.85,-198.14"/>
</a>
</g>
</g>
</g>
</svg>
