<?xml version="1.0" encoding="UTF-8" standalone="no"?>
<!DOCTYPE svg PUBLIC "-//W3C//DTD SVG 1.1//EN"
 "http://www.w3.org/Graphics/SVG/1.1/DTD/svg11.dtd">
<!-- Generated by graphviz version 2.43.0 (0)
 -->
<!-- Title: thirdparty/RadioLib/include/RadioLib/utils/CRC.h Pages: 1 -->
<svg width="697pt" height="544pt"
 viewBox="0.00 0.00 697.00 544.00" xmlns="http://www.w3.org/2000/svg" xmlns:xlink="http://www.w3.org/1999/xlink">
<g id="graph0" class="graph" transform="scale(1 1) rotate(0) translate(4 540)">
<title>thirdparty/RadioLib/include/RadioLib/utils/CRC.h</title>
<!-- Node1 -->
<g id="Node000001" class="node">
<title>Node1</title>
<g id="a_Node000001"><a xlink:title=" ">
<polygon fill="#999999" stroke="#666666" points="559,-536 403,-536 403,-506 559,-506 559,-536"/>
<text text-anchor="start" x="411" y="-524" font-family="Helvetica,sans-Serif" font-size="10.00">thirdparty/RadioLib</text>
<text text-anchor="middle" x="481" y="-513" font-family="Helvetica,sans-Serif" font-size="10.00">/include/RadioLib/utils/CRC.h</text>
</a>
</g>
</g>
<!-- Node2 -->
<g id="Node000002" class="node">
<title>Node2</title>
<g id="a_Node000002"><a xlink:href="RadioLib_8h.html" target="_top" xlink:title=" ">
<polygon fill="white" stroke="#666666" points="413,-162 259,-162 259,-132 413,-132 413,-162"/>
<text text-anchor="start" x="267" y="-150" font-family="Helvetica,sans-Serif" font-size="10.00">thirdparty/RadioLib</text>
<text text-anchor="middle" x="336" y="-139" font-family="Helvetica,sans-Serif" font-size="10.00">/include/RadioLib/RadioLib.h</text>
</a>
</g>
</g>
<!-- Node1&#45;&gt;Node2 -->
<g id="edge1_Node000001_Node000002" class="edge">
<title>Node1&#45;&gt;Node2</title>
<g id="a_edge1_Node000001_Node000002"><a xlink:title=" ">
<path fill="none" stroke="#63b8ff" d="M481.84,-495.43C482.55,-437.52 476.88,-290.45 407,-198 395.64,-182.97 378.44,-170.69 363.82,-162.07"/>
<polygon fill="#63b8ff" stroke="#63b8ff" points="478.33,-495.71 481.63,-505.78 485.33,-495.85 478.33,-495.71"/>
</a>
</g>
</g>
<!-- Node6 -->
<g id="Node000006" class="node">
<title>Node6</title>
<g id="a_Node000006"><a xlink:href="SX126x_8h.html" target="_top" xlink:title=" ">
<polygon fill="white" stroke="#666666" points="402.5,-470 257.5,-470 257.5,-429 402.5,-429 402.5,-470"/>
<text text-anchor="start" x="265.5" y="-458" font-family="Helvetica,sans-Serif" font-size="10.00">thirdparty/RadioLib</text>
<text text-anchor="start" x="265.5" y="-447" font-family="Helvetica,sans-Serif" font-size="10.00">/include/RadioLib/modules</text>
<text text-anchor="middle" x="330" y="-436" font-family="Helvetica,sans-Serif" font-size="10.00">/SX126x/SX126x.h</text>
</a>
</g>
</g>
<!-- Node1&#45;&gt;Node6 -->
<g id="edge7_Node000001_Node000006" class="edge">
<title>Node1&#45;&gt;Node6</title>
<g id="a_edge7_Node000001_Node000006"><a xlink:title=" ">
<path fill="none" stroke="#63b8ff" d="M441.11,-501.64C419.98,-491.92 394.03,-479.97 372.53,-470.07"/>
<polygon fill="#63b8ff" stroke="#63b8ff" points="439.9,-504.93 450.44,-505.94 442.82,-498.58 439.9,-504.93"/>
</a>
</g>
</g>
<!-- Node11 -->
<g id="Node000011" class="node">
<title>Node11</title>
<g id="a_Node000011"><a xlink:href="AX25_8h.html" target="_top" xlink:title=" ">
<polygon fill="white" stroke="#666666" points="651,-316 503,-316 503,-275 651,-275 651,-316"/>
<text text-anchor="start" x="511" y="-304" font-family="Helvetica,sans-Serif" font-size="10.00">thirdparty/RadioLib</text>
<text text-anchor="start" x="511" y="-293" font-family="Helvetica,sans-Serif" font-size="10.00">/include/RadioLib/protocols</text>
<text text-anchor="middle" x="577" y="-282" font-family="Helvetica,sans-Serif" font-size="10.00">/AX25/AX25.h</text>
</a>
</g>
</g>
<!-- Node1&#45;&gt;Node11 -->
<g id="edge20_Node000001_Node000011" class="edge">
<title>Node1&#45;&gt;Node11</title>
<g id="a_edge20_Node000001_Node000011"><a xlink:title=" ">
<path fill="none" stroke="#63b8ff" d="M491.18,-496.29C510.21,-451.99 550.84,-357.41 568.5,-316.28"/>
<polygon fill="#63b8ff" stroke="#63b8ff" points="487.88,-495.11 487.15,-505.68 494.31,-497.87 487.88,-495.11"/>
</a>
</g>
</g>
<!-- Node3 -->
<g id="Node000003" class="node">
<title>Node3</title>
<g id="a_Node000003"><a xlink:href="receiver-normal_8cpp.html" target="_top" xlink:title=" ">
<polygon fill="white" stroke="#666666" points="132,-19 0,-19 0,0 132,0 132,-19"/>
<text text-anchor="middle" x="66" y="-7" font-family="Helvetica,sans-Serif" font-size="10.00">src/receiver&#45;normal.cpp</text>
</a>
</g>
</g>
<!-- Node2&#45;&gt;Node3 -->
<g id="edge2_Node000002_Node000003" class="edge">
<title>Node2&#45;&gt;Node3</title>
<g id="a_edge2_Node000002_Node000003"><a xlink:title=" ">
<path fill="none" stroke="#63b8ff" d="M248.95,-138.72C185.99,-131.66 108.1,-118.6 85,-96 63.8,-75.27 63.87,-36.51 65.11,-19.22"/>
<polygon fill="#63b8ff" stroke="#63b8ff" points="248.6,-142.21 258.92,-139.81 249.35,-135.25 248.6,-142.21"/>
</a>
</g>
</g>
<!-- Node4 -->
<g id="Node000004" class="node">
<title>Node4</title>
<g id="a_Node000004"><a xlink:href="transmitter-normal_8cpp.html" target="_top" xlink:title=" ">
<polygon fill="white" stroke="#666666" points="313.5,-19 166.5,-19 166.5,0 313.5,0 313.5,-19"/>
<text text-anchor="middle" x="240" y="-7" font-family="Helvetica,sans-Serif" font-size="10.00">src/transmitter&#45;normal.cpp</text>
</a>
</g>
</g>
<!-- Node2&#45;&gt;Node4 -->
<g id="edge3_Node000002_Node000004" class="edge">
<title>Node2&#45;&gt;Node4</title>
<g id="a_edge3_Node000002_Node000004"><a xlink:title=" ">
<path fill="none" stroke="#63b8ff" d="M319.99,-123.41C298.32,-92.82 260.67,-39.67 246.05,-19.03"/>
<polygon fill="#63b8ff" stroke="#63b8ff" points="317.27,-125.62 325.91,-131.76 322.98,-121.57 317.27,-125.62"/>
</a>
</g>
</g>
<!-- Node5 -->
<g id="Node000005" class="node">
<title>Node5</title>
<g id="a_Node000005"><a xlink:href="PiHal_8h.html" target="_top" xlink:title=" ">
<polygon fill="white" stroke="#666666" points="212,-96 94,-96 94,-55 212,-55 212,-96"/>
<text text-anchor="start" x="102" y="-84" font-family="Helvetica,sans-Serif" font-size="10.00">thirdparty/RadioLib</text>
<text text-anchor="start" x="102" y="-73" font-family="Helvetica,sans-Serif" font-size="10.00">/include/RadioLib/hal</text>
<text text-anchor="middle" x="153" y="-62" font-family="Helvetica,sans-Serif" font-size="10.00">/RPi/PiHal.h</text>
</a>
</g>
</g>
<!-- Node2&#45;&gt;Node5 -->
<g id="edge4_Node000002_Node000005" class="edge">
<title>Node2&#45;&gt;Node5</title>
<g id="a_edge4_Node000002_Node000005"><a xlink:title=" ">
<path fill="none" stroke="#63b8ff" d="M289.38,-128.29C263.47,-118.46 231.19,-106.2 204.54,-96.07"/>
<polygon fill="#63b8ff" stroke="#63b8ff" points="288.38,-131.66 298.97,-131.94 290.86,-125.11 288.38,-131.66"/>
</a>
</g>
</g>
<!-- Node5&#45;&gt;Node3 -->
<g id="edge5_Node000005_Node000003" class="edge">
<title>Node5&#45;&gt;Node3</title>
<g id="a_edge5_Node000005_Node000003"><a xlink:title=" ">
<path fill="none" stroke="#63b8ff" d="M118.21,-48.9C103.91,-38.39 88.3,-26.9 77.91,-19.26"/>
<polygon fill="#63b8ff" stroke="#63b8ff" points="116.3,-51.84 126.42,-54.95 120.44,-46.21 116.3,-51.84"/>
</a>
</g>
</g>
<!-- Node5&#45;&gt;Node4 -->
<g id="edge6_Node000005_Node000004" class="edge">
<title>Node5&#45;&gt;Node4</title>
<g id="a_edge6_Node000005_Node000004"><a xlink:title=" ">
<path fill="none" stroke="#63b8ff" d="M187.79,-48.9C202.09,-38.39 217.7,-26.9 228.09,-19.26"/>
<polygon fill="#63b8ff" stroke="#63b8ff" points="185.56,-46.21 179.58,-54.95 189.7,-51.84 185.56,-46.21"/>
</a>
</g>
</g>
<!-- Node7 -->
<g id="Node000007" class="node">
<title>Node7</title>
<g id="a_Node000007"><a xlink:href="SX1261_8h.html" target="_top" xlink:title=" ">
<polygon fill="white" stroke="#666666" points="396.5,-316 251.5,-316 251.5,-275 396.5,-275 396.5,-316"/>
<text text-anchor="start" x="259.5" y="-304" font-family="Helvetica,sans-Serif" font-size="10.00">thirdparty/RadioLib</text>
<text text-anchor="start" x="259.5" y="-293" font-family="Helvetica,sans-Serif" font-size="10.00">/include/RadioLib/modules</text>
<text text-anchor="middle" x="324" y="-282" font-family="Helvetica,sans-Serif" font-size="10.00">/SX126x/SX1261.h</text>
</a>
</g>
</g>
<!-- Node6&#45;&gt;Node7 -->
<g id="edge8_Node000006_Node000007" class="edge">
<title>Node6&#45;&gt;Node7</title>
<g id="a_edge8_Node000006_Node000007"><a xlink:title=" ">
<path fill="none" stroke="#63b8ff" d="M309.91,-420.21C305.04,-411.84 300.51,-402.39 298,-393 293.29,-375.4 294.04,-369.79 298,-352 300.8,-339.43 306.76,-326.35 312.27,-316.04"/>
<polygon fill="#63b8ff" stroke="#63b8ff" points="307.01,-422.16 315.26,-428.81 312.95,-418.47 307.01,-422.16"/>
</a>
</g>
</g>
<!-- Node9 -->
<g id="Node000009" class="node">
<title>Node9</title>
<g id="a_Node000009"><a xlink:href="SX1262_8h.html" target="_top" xlink:title=" ">
<polygon fill="white" stroke="#666666" points="250.5,-393 105.5,-393 105.5,-352 250.5,-352 250.5,-393"/>
<text text-anchor="start" x="113.5" y="-381" font-family="Helvetica,sans-Serif" font-size="10.00">thirdparty/RadioLib</text>
<text text-anchor="start" x="113.5" y="-370" font-family="Helvetica,sans-Serif" font-size="10.00">/include/RadioLib/modules</text>
<text text-anchor="middle" x="178" y="-359" font-family="Helvetica,sans-Serif" font-size="10.00">/SX126x/SX1262.h</text>
</a>
</g>
</g>
<!-- Node6&#45;&gt;Node9 -->
<g id="edge12_Node000006_Node000009" class="edge">
<title>Node6&#45;&gt;Node9</title>
<g id="a_edge12_Node000006_Node000009"><a xlink:title=" ">
<path fill="none" stroke="#63b8ff" d="M281.26,-424.45C260.69,-414.3 237.07,-402.64 217.61,-393.04"/>
<polygon fill="#63b8ff" stroke="#63b8ff" points="279.94,-427.7 290.46,-428.99 283.04,-421.43 279.94,-427.7"/>
</a>
</g>
</g>
<!-- Node10 -->
<g id="Node000010" class="node">
<title>Node10</title>
<g id="a_Node000010"><a xlink:href="SX1268_8h.html" target="_top" xlink:title=" ">
<polygon fill="white" stroke="#666666" points="452.5,-393 307.5,-393 307.5,-352 452.5,-352 452.5,-393"/>
<text text-anchor="start" x="315.5" y="-381" font-family="Helvetica,sans-Serif" font-size="10.00">thirdparty/RadioLib</text>
<text text-anchor="start" x="315.5" y="-370" font-family="Helvetica,sans-Serif" font-size="10.00">/include/RadioLib/modules</text>
<text text-anchor="middle" x="380" y="-359" font-family="Helvetica,sans-Serif" font-size="10.00">/SX126x/SX1268.h</text>
</a>
</g>
</g>
<!-- Node6&#45;&gt;Node10 -->
<g id="edge18_Node000006_Node000010" class="edge">
<title>Node6&#45;&gt;Node10</title>
<g id="a_edge18_Node000006_Node000010"><a xlink:title=" ">
<path fill="none" stroke="#63b8ff" d="M348.74,-420.39C354.8,-411.3 361.39,-401.41 366.95,-393.07"/>
<polygon fill="#63b8ff" stroke="#63b8ff" points="345.77,-418.53 343.14,-428.79 351.6,-422.42 345.77,-418.53"/>
</a>
</g>
</g>
<!-- Node7&#45;&gt;Node2 -->
<g id="edge9_Node000007_Node000002" class="edge">
<title>Node7&#45;&gt;Node2</title>
<g id="a_edge9_Node000007_Node000002"><a xlink:title=" ">
<path fill="none" stroke="#63b8ff" d="M350.99,-266.99C357.5,-258.66 363.57,-249.03 367,-239 372.9,-221.76 371.99,-215.53 367,-198 363.25,-184.84 354.93,-171.76 347.86,-162.28"/>
<polygon fill="#63b8ff" stroke="#63b8ff" points="348.14,-264.95 344.41,-274.86 353.51,-269.44 348.14,-264.95"/>
</a>
</g>
</g>
<!-- Node8 -->
<g id="Node000008" class="node">
<title>Node8</title>
<g id="a_Node000008"><a xlink:href="LLCC68_8h.html" target="_top" xlink:title=" ">
<polygon fill="white" stroke="#666666" points="358.5,-239 213.5,-239 213.5,-198 358.5,-198 358.5,-239"/>
<text text-anchor="start" x="221.5" y="-227" font-family="Helvetica,sans-Serif" font-size="10.00">thirdparty/RadioLib</text>
<text text-anchor="start" x="221.5" y="-216" font-family="Helvetica,sans-Serif" font-size="10.00">/include/RadioLib/modules</text>
<text text-anchor="middle" x="286" y="-205" font-family="Helvetica,sans-Serif" font-size="10.00">/LLCC68/LLCC68.h</text>
</a>
</g>
</g>
<!-- Node7&#45;&gt;Node8 -->
<g id="edge10_Node000007_Node000008" class="edge">
<title>Node7&#45;&gt;Node8</title>
<g id="a_edge10_Node000007_Node000008"><a xlink:title=" ">
<path fill="none" stroke="#63b8ff" d="M309.47,-265.83C304.94,-256.89 300.05,-247.24 295.92,-239.07"/>
<polygon fill="#63b8ff" stroke="#63b8ff" points="306.37,-267.46 314.02,-274.79 312.62,-264.29 306.37,-267.46"/>
</a>
</g>
</g>
<!-- Node8&#45;&gt;Node2 -->
<g id="edge11_Node000008_Node000002" class="edge">
<title>Node8&#45;&gt;Node2</title>
<g id="a_edge11_Node000008_Node000002"><a xlink:title=" ">
<path fill="none" stroke="#63b8ff" d="M306.22,-189.4C312.99,-179.99 320.24,-169.9 325.9,-162.04"/>
<polygon fill="#63b8ff" stroke="#63b8ff" points="303.19,-187.61 300.19,-197.77 308.88,-191.7 303.19,-187.61"/>
</a>
</g>
</g>
<!-- Node9&#45;&gt;Node2 -->
<g id="edge15_Node000009_Node000002" class="edge">
<title>Node9&#45;&gt;Node2</title>
<g id="a_edge15_Node000009_Node000002"><a xlink:title=" ">
<path fill="none" stroke="#63b8ff" d="M173.99,-341.5C170.68,-303.78 170.93,-239 204,-198 217.92,-180.74 238.5,-169.43 259.28,-162.03"/>
<polygon fill="#63b8ff" stroke="#63b8ff" points="170.55,-342.24 175.05,-351.83 177.51,-341.53 170.55,-342.24"/>
</a>
</g>
</g>
<!-- Node9&#45;&gt;Node3 -->
<g id="edge13_Node000009_Node000003" class="edge">
<title>Node9&#45;&gt;Node3</title>
<g id="a_edge13_Node000009_Node000003"><a xlink:title=" ">
<path fill="none" stroke="#63b8ff" d="M127.81,-346.86C84.2,-321.52 28,-277.6 28,-219.5 28,-219.5 28,-219.5 28,-146 28,-96.4 51.89,-40.26 61.79,-19.14"/>
<polygon fill="#63b8ff" stroke="#63b8ff" points="126.19,-349.96 136.61,-351.83 129.63,-343.87 126.19,-349.96"/>
</a>
</g>
</g>
<!-- Node9&#45;&gt;Node4 -->
<g id="edge14_Node000009_Node000004" class="edge">
<title>Node9&#45;&gt;Node4</title>
<g id="a_edge14_Node000009_Node000004"><a xlink:title=" ">
<path fill="none" stroke="#63b8ff" d="M172.28,-341.79C170.92,-333.48 169.68,-324.41 169,-316 167.54,-297.84 167.71,-293.18 169,-275 171.45,-240.52 171.04,-231.39 180,-198 192.66,-150.81 206.54,-142.67 221,-96 229.55,-68.4 235.87,-34.67 238.57,-19.12"/>
<polygon fill="#63b8ff" stroke="#63b8ff" points="168.86,-342.56 174.02,-351.82 175.76,-341.36 168.86,-342.56"/>
</a>
</g>
</g>
<!-- Node9&#45;&gt;Node7 -->
<g id="edge17_Node000009_Node000007" class="edge">
<title>Node9&#45;&gt;Node7</title>
<g id="a_edge17_Node000009_Node000007"><a xlink:title=" ">
<path fill="none" stroke="#63b8ff" d="M225.09,-347.31C244.77,-337.2 267.35,-325.6 285.96,-316.04"/>
<polygon fill="#63b8ff" stroke="#63b8ff" points="223.27,-344.31 215.98,-351.99 226.47,-350.53 223.27,-344.31"/>
</a>
</g>
</g>
<!-- Node9&#45;&gt;Node8 -->
<g id="edge16_Node000009_Node000008" class="edge">
<title>Node9&#45;&gt;Node8</title>
<g id="a_edge16_Node000009_Node000008"><a xlink:title=" ">
<path fill="none" stroke="#63b8ff" d="M195.67,-343.52C208.19,-324.02 225.61,-297.57 242,-275 250.81,-262.86 261.22,-249.69 269.7,-239.22"/>
<polygon fill="#63b8ff" stroke="#63b8ff" points="192.71,-341.64 190.28,-351.95 198.61,-345.41 192.71,-341.64"/>
</a>
</g>
</g>
<!-- Node10&#45;&gt;Node2 -->
<g id="edge19_Node000010_Node000002" class="edge">
<title>Node10&#45;&gt;Node2</title>
<g id="a_edge19_Node000010_Node000002"><a xlink:title=" ">
<path fill="none" stroke="#63b8ff" d="M395.66,-342.89C399.49,-334.47 403.05,-325.08 405,-316 408.83,-298.18 407.42,-293.06 405,-275 400.29,-239.84 401.49,-228.86 384,-198 376.17,-184.18 363.65,-171.32 353.36,-162.1"/>
<polygon fill="#63b8ff" stroke="#63b8ff" points="392.5,-341.38 391.28,-351.91 398.8,-344.43 392.5,-341.38"/>
</a>
</g>
</g>
<!-- Node11&#45;&gt;Node2 -->
<g id="edge21_Node000011_Node000002" class="edge">
<title>Node11&#45;&gt;Node2</title>
<g id="a_edge21_Node000011_Node000002"><a xlink:title=" ">
<path fill="none" stroke="#63b8ff" d="M554.76,-267.13C534.01,-242.16 504.04,-207.72 489,-198 463.3,-181.39 431.59,-169.85 403.72,-162.07"/>
<polygon fill="#63b8ff" stroke="#63b8ff" points="552.08,-269.38 561.15,-274.86 557.48,-264.93 552.08,-269.38"/>
</a>
</g>
</g>
<!-- Node12 -->
<g id="Node000012" class="node">
<title>Node12</title>
<g id="a_Node000012"><a xlink:href="APRS_8h.html" target="_top" xlink:title=" ">
<polygon fill="white" stroke="#666666" points="689,-239 541,-239 541,-198 689,-198 689,-239"/>
<text text-anchor="start" x="549" y="-227" font-family="Helvetica,sans-Serif" font-size="10.00">thirdparty/RadioLib</text>
<text text-anchor="start" x="549" y="-216" font-family="Helvetica,sans-Serif" font-size="10.00">/include/RadioLib/protocols</text>
<text text-anchor="middle" x="615" y="-205" font-family="Helvetica,sans-Serif" font-size="10.00">/APRS/APRS.h</text>
</a>
</g>
</g>
<!-- Node11&#45;&gt;Node12 -->
<g id="edge22_Node000011_Node000012" class="edge">
<title>Node11&#45;&gt;Node12</title>
<g id="a_edge22_Node000011_Node000012"><a xlink:title=" ">
<path fill="none" stroke="#63b8ff" d="M591.53,-265.83C596.06,-256.89 600.95,-247.24 605.08,-239.07"/>
<polygon fill="#63b8ff" stroke="#63b8ff" points="588.38,-264.29 586.98,-274.79 594.63,-267.46 588.38,-264.29"/>
</a>
</g>
</g>
<!-- Node12&#45;&gt;Node2 -->
<g id="edge23_Node000012_Node000002" class="edge">
<title>Node12&#45;&gt;Node2</title>
<g id="a_edge23_Node000012_Node000002"><a xlink:title=" ">
<path fill="none" stroke="#63b8ff" d="M531.23,-196.63C486.28,-185.44 432.1,-171.94 392.23,-162.01"/>
<polygon fill="#63b8ff" stroke="#63b8ff" points="530.42,-200.04 540.97,-199.06 532.11,-193.24 530.42,-200.04"/>
</a>
</g>
</g>
</g>
</svg>
