<?xml version="1.0" encoding="UTF-8" standalone="no"?>
<!DOCTYPE svg PUBLIC "-//W3C//DTD SVG 1.1//EN"
 "http://www.w3.org/Graphics/SVG/1.1/DTD/svg11.dtd">
<!-- Generated by graphviz version 2.43.0 (0)
 -->
<!-- Title: thirdparty/RadioLib/include/RadioLib/utils/Cryptography.h Pages: 1 -->
<svg width="658pt" height="412pt"
 viewBox="0.00 0.00 658.00 412.00" xmlns="http://www.w3.org/2000/svg" xmlns:xlink="http://www.w3.org/1999/xlink">
<g id="graph0" class="graph" transform="scale(1 1) rotate(0) translate(4 408)">
<title>thirdparty/RadioLib/include/RadioLib/utils/Cryptography.h</title>
<!-- Node1 -->
<g id="Node000001" class="node">
<title>Node1</title>
<g id="a_Node000001"><a xlink:title=" ">
<polygon fill="#999999" stroke="#666666" points="280,-404 156,-404 156,-363 280,-363 280,-404"/>
<text text-anchor="start" x="164" y="-392" font-family="Helvetica,sans-Serif" font-size="10.00">thirdparty/RadioLib</text>
<text text-anchor="start" x="164" y="-381" font-family="Helvetica,sans-Serif" font-size="10.00">/include/RadioLib/utils</text>
<text text-anchor="middle" x="218" y="-370" font-family="Helvetica,sans-Serif" font-size="10.00">/Cryptography.h</text>
</a>
</g>
</g>
<!-- Node2 -->
<g id="Node000002" class="node">
<title>Node2</title>
<g id="a_Node000002"><a xlink:href="RadioLib_8h.html" target="_top" xlink:title=" ">
<polygon fill="white" stroke="#666666" points="222,-167.5 68,-167.5 68,-137.5 222,-137.5 222,-167.5"/>
<text text-anchor="start" x="76" y="-155.5" font-family="Helvetica,sans-Serif" font-size="10.00">thirdparty/RadioLib</text>
<text text-anchor="middle" x="145" y="-144.5" font-family="Helvetica,sans-Serif" font-size="10.00">/include/RadioLib/RadioLib.h</text>
</a>
</g>
</g>
<!-- Node1&#45;&gt;Node2 -->
<g id="edge1_Node000001_Node000002" class="edge">
<title>Node1&#45;&gt;Node2</title>
<g id="a_edge1_Node000001_Node000002"><a xlink:title=" ">
<path fill="none" stroke="#63b8ff" d="M208.64,-353.14C192.76,-303.34 161.15,-204.15 149.47,-167.52"/>
<polygon fill="#63b8ff" stroke="#63b8ff" points="205.4,-354.51 211.78,-362.98 212.07,-352.38 205.4,-354.51"/>
</a>
</g>
</g>
<!-- Node6 -->
<g id="Node000006" class="node">
<title>Node6</title>
<g id="a_Node000006"><a xlink:href="LoRaWAN_8h.html" target="_top" xlink:title=" ">
<polygon fill="white" stroke="#666666" points="366,-327 218,-327 218,-286 366,-286 366,-327"/>
<text text-anchor="start" x="226" y="-315" font-family="Helvetica,sans-Serif" font-size="10.00">thirdparty/RadioLib</text>
<text text-anchor="start" x="226" y="-304" font-family="Helvetica,sans-Serif" font-size="10.00">/include/RadioLib/protocols</text>
<text text-anchor="middle" x="292" y="-293" font-family="Helvetica,sans-Serif" font-size="10.00">/LoRaWAN/LoRaWAN.h</text>
</a>
</g>
</g>
<!-- Node1&#45;&gt;Node6 -->
<g id="edge7_Node000001_Node000006" class="edge">
<title>Node1&#45;&gt;Node6</title>
<g id="a_edge7_Node000001_Node000006"><a xlink:title=" ">
<path fill="none" stroke="#63b8ff" d="M244.63,-355.51C253.9,-346.11 264.12,-335.76 272.69,-327.07"/>
<polygon fill="#63b8ff" stroke="#63b8ff" points="241.97,-353.22 237.44,-362.79 246.96,-358.13 241.97,-353.22"/>
</a>
</g>
</g>
<!-- Node3 -->
<g id="Node000003" class="node">
<title>Node3</title>
<g id="a_Node000003"><a xlink:href="receiver-normal_8cpp.html" target="_top" xlink:title=" ">
<polygon fill="white" stroke="#666666" points="132,-19 0,-19 0,0 132,0 132,-19"/>
<text text-anchor="middle" x="66" y="-7" font-family="Helvetica,sans-Serif" font-size="10.00">src/receiver&#45;normal.cpp</text>
</a>
</g>
</g>
<!-- Node2&#45;&gt;Node3 -->
<g id="edge2_Node000002_Node000003" class="edge">
<title>Node2&#45;&gt;Node3</title>
<g id="a_edge2_Node000002_Node000003"><a xlink:title=" ">
<path fill="none" stroke="#63b8ff" d="M110.84,-131.53C98.16,-122.34 84.94,-110.29 77,-96 63.04,-70.88 63.83,-35.35 65.1,-19.15"/>
<polygon fill="#63b8ff" stroke="#63b8ff" points="109.24,-134.67 119.47,-137.43 113.19,-128.89 109.24,-134.67"/>
</a>
</g>
</g>
<!-- Node4 -->
<g id="Node000004" class="node">
<title>Node4</title>
<g id="a_Node000004"><a xlink:href="transmitter-normal_8cpp.html" target="_top" xlink:title=" ">
<polygon fill="white" stroke="#666666" points="301.5,-19 154.5,-19 154.5,0 301.5,0 301.5,-19"/>
<text text-anchor="middle" x="228" y="-7" font-family="Helvetica,sans-Serif" font-size="10.00">src/transmitter&#45;normal.cpp</text>
</a>
</g>
</g>
<!-- Node2&#45;&gt;Node4 -->
<g id="edge3_Node000002_Node000004" class="edge">
<title>Node2&#45;&gt;Node4</title>
<g id="a_edge3_Node000002_Node000004"><a xlink:title=" ">
<path fill="none" stroke="#63b8ff" d="M178.17,-131.82C191,-122.54 204.6,-110.34 213,-96 227.63,-71.03 228.75,-35.42 228.4,-19.18"/>
<polygon fill="#63b8ff" stroke="#63b8ff" points="176.18,-128.94 169.91,-137.49 180.14,-134.71 176.18,-128.94"/>
</a>
</g>
</g>
<!-- Node5 -->
<g id="Node000005" class="node">
<title>Node5</title>
<g id="a_Node000005"><a xlink:href="PiHal_8h.html" target="_top" xlink:title=" ">
<polygon fill="white" stroke="#666666" points="204,-96 86,-96 86,-55 204,-55 204,-96"/>
<text text-anchor="start" x="94" y="-84" font-family="Helvetica,sans-Serif" font-size="10.00">thirdparty/RadioLib</text>
<text text-anchor="start" x="94" y="-73" font-family="Helvetica,sans-Serif" font-size="10.00">/include/RadioLib/hal</text>
<text text-anchor="middle" x="145" y="-62" font-family="Helvetica,sans-Serif" font-size="10.00">/RPi/PiHal.h</text>
</a>
</g>
</g>
<!-- Node2&#45;&gt;Node5 -->
<g id="edge4_Node000002_Node000005" class="edge">
<title>Node2&#45;&gt;Node5</title>
<g id="a_edge4_Node000002_Node000005"><a xlink:title=" ">
<path fill="none" stroke="#63b8ff" d="M145,-127.23C145,-117.2 145,-105.71 145,-96.2"/>
<polygon fill="#63b8ff" stroke="#63b8ff" points="141.5,-127.39 145,-137.39 148.5,-127.39 141.5,-127.39"/>
</a>
</g>
</g>
<!-- Node5&#45;&gt;Node3 -->
<g id="edge5_Node000005_Node000003" class="edge">
<title>Node5&#45;&gt;Node3</title>
<g id="a_edge5_Node000005_Node000003"><a xlink:title=" ">
<path fill="none" stroke="#63b8ff" d="M113.04,-48.61C100.16,-38.17 86.16,-26.83 76.81,-19.26"/>
<polygon fill="#63b8ff" stroke="#63b8ff" points="110.89,-51.37 120.87,-54.95 115.3,-45.94 110.89,-51.37"/>
</a>
</g>
</g>
<!-- Node5&#45;&gt;Node4 -->
<g id="edge6_Node000005_Node000004" class="edge">
<title>Node5&#45;&gt;Node4</title>
<g id="a_edge6_Node000005_Node000004"><a xlink:title=" ">
<path fill="none" stroke="#63b8ff" d="M178.58,-48.61C192.11,-38.17 206.82,-26.83 216.64,-19.26"/>
<polygon fill="#63b8ff" stroke="#63b8ff" points="176.14,-46.07 170.35,-54.95 180.41,-51.62 176.14,-46.07"/>
</a>
</g>
</g>
<!-- Node6&#45;&gt;Node2 -->
<g id="edge8_Node000006_Node000002" class="edge">
<title>Node6&#45;&gt;Node2</title>
<g id="a_edge8_Node000006_Node000002"><a xlink:title=" ">
<path fill="none" stroke="#63b8ff" d="M265.95,-278.56C234.56,-246.1 183,-192.79 158.6,-167.57"/>
<polygon fill="#63b8ff" stroke="#63b8ff" points="263.62,-281.18 273.08,-285.94 268.65,-276.32 263.62,-281.18"/>
</a>
</g>
</g>
<!-- Node7 -->
<g id="Node000007" class="node">
<title>Node7</title>
<g id="a_Node000007"><a xlink:href="LoRaWANPacMan_8h.html" target="_top" xlink:title=" ">
<polygon fill="white" stroke="#666666" points="414,-250 250,-250 250,-209 414,-209 414,-250"/>
<text text-anchor="start" x="258" y="-238" font-family="Helvetica,sans-Serif" font-size="10.00">thirdparty/RadioLib</text>
<text text-anchor="start" x="258" y="-227" font-family="Helvetica,sans-Serif" font-size="10.00">/include/RadioLib/protocols</text>
<text text-anchor="middle" x="332" y="-216" font-family="Helvetica,sans-Serif" font-size="10.00">/LoRaWAN/LoRaWANPacMan.h</text>
</a>
</g>
</g>
<!-- Node6&#45;&gt;Node7 -->
<g id="edge9_Node000006_Node000007" class="edge">
<title>Node6&#45;&gt;Node7</title>
<g id="a_edge9_Node000006_Node000007"><a xlink:title=" ">
<path fill="none" stroke="#63b8ff" d="M307.29,-276.83C312.06,-267.89 317.21,-258.24 321.56,-250.07"/>
<polygon fill="#63b8ff" stroke="#63b8ff" points="304.13,-275.32 302.51,-285.79 310.3,-278.62 304.13,-275.32"/>
</a>
</g>
</g>
<!-- Node9 -->
<g id="Node000009" class="node">
<title>Node9</title>
<g id="a_Node000009"><a xlink:href="LoRaWANPackageTS009_8h.html" target="_top" xlink:title=" ">
<polygon fill="white" stroke="#666666" points="650,-173 454,-173 454,-132 650,-132 650,-173"/>
<text text-anchor="start" x="462" y="-161" font-family="Helvetica,sans-Serif" font-size="10.00">thirdparty/RadioLib</text>
<text text-anchor="start" x="462" y="-150" font-family="Helvetica,sans-Serif" font-size="10.00">/include/RadioLib/protocols</text>
<text text-anchor="middle" x="552" y="-139" font-family="Helvetica,sans-Serif" font-size="10.00">/LoRaWAN/LoRaWANPackageTS009.h</text>
</a>
</g>
</g>
<!-- Node6&#45;&gt;Node9 -->
<g id="edge13_Node000006_Node000009" class="edge">
<title>Node6&#45;&gt;Node9</title>
<g id="a_edge13_Node000006_Node000009"><a xlink:title=" ">
<path fill="none" stroke="#63b8ff" d="M355.83,-282.07C377.68,-273.12 401.92,-262.11 423,-250 462.77,-227.15 504.53,-193.97 529.4,-173.08"/>
<polygon fill="#63b8ff" stroke="#63b8ff" points="354.27,-278.93 346.31,-285.91 356.89,-285.42 354.27,-278.93"/>
</a>
</g>
</g>
<!-- Node7&#45;&gt;Node2 -->
<g id="edge10_Node000007_Node000002" class="edge">
<title>Node7&#45;&gt;Node2</title>
<g id="a_edge10_Node000007_Node000002"><a xlink:title=" ">
<path fill="none" stroke="#63b8ff" d="M274.03,-205.25C243.28,-192.92 206.52,-178.17 180.11,-167.58"/>
<polygon fill="#63b8ff" stroke="#63b8ff" points="272.77,-208.52 283.36,-208.99 275.38,-202.02 272.77,-208.52"/>
</a>
</g>
</g>
<!-- Node8 -->
<g id="Node000008" class="node">
<title>Node8</title>
<g id="a_Node000008"><a xlink:href="LoRaWANPackageTS003_8h.html" target="_top" xlink:title=" ">
<polygon fill="white" stroke="#666666" points="436,-173 240,-173 240,-132 436,-132 436,-173"/>
<text text-anchor="start" x="248" y="-161" font-family="Helvetica,sans-Serif" font-size="10.00">thirdparty/RadioLib</text>
<text text-anchor="start" x="248" y="-150" font-family="Helvetica,sans-Serif" font-size="10.00">/include/RadioLib/protocols</text>
<text text-anchor="middle" x="338" y="-139" font-family="Helvetica,sans-Serif" font-size="10.00">/LoRaWAN/LoRaWANPackageTS003.h</text>
</a>
</g>
</g>
<!-- Node7&#45;&gt;Node8 -->
<g id="edge11_Node000007_Node000008" class="edge">
<title>Node7&#45;&gt;Node8</title>
<g id="a_edge11_Node000007_Node000008"><a xlink:title=" ">
<path fill="none" stroke="#63b8ff" d="M334.38,-198.69C335.07,-190.08 335.81,-180.9 336.43,-173.07"/>
<polygon fill="#63b8ff" stroke="#63b8ff" points="330.89,-198.55 333.58,-208.79 337.86,-199.11 330.89,-198.55"/>
</a>
</g>
</g>
<!-- Node7&#45;&gt;Node9 -->
<g id="edge12_Node000007_Node000009" class="edge">
<title>Node7&#45;&gt;Node9</title>
<g id="a_edge12_Node000007_Node000009"><a xlink:title=" ">
<path fill="none" stroke="#63b8ff" d="M398.95,-205.67C429.53,-195.25 465.37,-183.03 494.68,-173.04"/>
<polygon fill="#63b8ff" stroke="#63b8ff" points="397.56,-202.45 389.23,-208.99 399.82,-209.08 397.56,-202.45"/>
</a>
</g>
</g>
</g>
</svg>
