<?xml version="1.0" encoding="UTF-8" standalone="no"?>
<!DOCTYPE svg PUBLIC "-//W3C//DTD SVG 1.1//EN"
 "http://www.w3.org/Graphics/SVG/1.1/DTD/svg11.dtd">
<!-- Generated by graphviz version 2.43.0 (0)
 -->
<!-- Title: thirdparty/libcxxopts&#45;dev/cxxopts.hpp Pages: 1 -->
<svg width="1195pt" height="93pt"
 viewBox="0.00 0.00 1194.50 93.00" xmlns="http://www.w3.org/2000/svg" xmlns:xlink="http://www.w3.org/1999/xlink">
<g id="graph0" class="graph" transform="scale(1 1) rotate(0) translate(4 89)">
<title>thirdparty/libcxxopts&#45;dev/cxxopts.hpp</title>
<!-- Node1 -->
<g id="Node000001" class="node">
<title>Node1</title>
<g id="a_Node000001"><a xlink:title=" ">
<polygon fill="#999999" stroke="#666666" points="636,-85 519,-85 519,-55 636,-55 636,-85"/>
<text text-anchor="start" x="527" y="-73" font-family="Helvetica,sans-Serif" font-size="10.00">thirdparty/libcxxopts</text>
<text text-anchor="middle" x="577.5" y="-62" font-family="Helvetica,sans-Serif" font-size="10.00">&#45;dev/cxxopts.hpp</text>
</a>
</g>
</g>
<!-- Node2 -->
<g id="Node000002" class="node">
<title>Node2</title>
<g id="a_Node000002"><a xlink:title=" ">
<polygon fill="#e0e0e0" stroke="#999999" points="49,-19 0,-19 0,0 49,0 49,-19"/>
<text text-anchor="middle" x="24.5" y="-7" font-family="Helvetica,sans-Serif" font-size="10.00">cstdlib</text>
</a>
</g>
</g>
<!-- Node1&#45;&gt;Node2 -->
<g id="edge1_Node000001_Node000002" class="edge">
<title>Node1&#45;&gt;Node2</title>
<g id="a_edge1_Node000001_Node000002"><a xlink:title=" ">
<path fill="none" stroke="#63b8ff" d="M518.75,-66.2C423.99,-61.05 231.49,-48 59.3,-18.87"/>
<polygon fill="#63b8ff" stroke="#63b8ff" points="59.74,-15.39 49.29,-17.15 58.56,-22.29 59.74,-15.39"/>
</a>
</g>
</g>
<!-- Node3 -->
<g id="Node000003" class="node">
<title>Node3</title>
<g id="a_Node000003"><a xlink:title=" ">
<polygon fill="#e0e0e0" stroke="#999999" points="117.5,-19 67.5,-19 67.5,0 117.5,0 117.5,-19"/>
<text text-anchor="middle" x="92.5" y="-7" font-family="Helvetica,sans-Serif" font-size="10.00">cstring</text>
</a>
</g>
</g>
<!-- Node1&#45;&gt;Node3 -->
<g id="edge2_Node000001_Node000003" class="edge">
<title>Node1&#45;&gt;Node3</title>
<g id="a_edge2_Node000001_Node000003"><a xlink:title=" ">
<path fill="none" stroke="#63b8ff" d="M518.76,-65.02C434.28,-58.75 273.5,-44.71 127.69,-18.99"/>
<polygon fill="#63b8ff" stroke="#63b8ff" points="128.13,-15.51 117.67,-17.19 126.9,-22.4 128.13,-15.51"/>
</a>
</g>
</g>
<!-- Node4 -->
<g id="Node000004" class="node">
<title>Node4</title>
<g id="a_Node000004"><a xlink:title=" ">
<polygon fill="#e0e0e0" stroke="#999999" points="201,-19 136,-19 136,0 201,0 201,-19"/>
<text text-anchor="middle" x="168.5" y="-7" font-family="Helvetica,sans-Serif" font-size="10.00">exception</text>
</a>
</g>
</g>
<!-- Node1&#45;&gt;Node4 -->
<g id="edge3_Node000001_Node000004" class="edge">
<title>Node1&#45;&gt;Node4</title>
<g id="a_edge3_Node000001_Node000004"><a xlink:title=" ">
<path fill="none" stroke="#63b8ff" d="M518.85,-62.19C448.3,-53.73 326.09,-38.25 211.06,-18.99"/>
<polygon fill="#63b8ff" stroke="#63b8ff" points="211.46,-15.51 201.02,-17.3 210.3,-22.41 211.46,-15.51"/>
</a>
</g>
</g>
<!-- Node5 -->
<g id="Node000005" class="node">
<title>Node5</title>
<g id="a_Node000005"><a xlink:title=" ">
<polygon fill="#e0e0e0" stroke="#999999" points="263.5,-19 219.5,-19 219.5,0 263.5,0 263.5,-19"/>
<text text-anchor="middle" x="241.5" y="-7" font-family="Helvetica,sans-Serif" font-size="10.00">limits</text>
</a>
</g>
</g>
<!-- Node1&#45;&gt;Node5 -->
<g id="edge4_Node000001_Node000005" class="edge">
<title>Node1&#45;&gt;Node5</title>
<g id="a_edge4_Node000001_Node000005"><a xlink:title=" ">
<path fill="none" stroke="#63b8ff" d="M518.97,-61.27C459.48,-52.99 364.52,-38.63 273.69,-19.07"/>
<polygon fill="#63b8ff" stroke="#63b8ff" points="274.3,-15.62 263.78,-16.91 272.81,-22.46 274.3,-15.62"/>
</a>
</g>
</g>
<!-- Node6 -->
<g id="Node000006" class="node">
<title>Node6</title>
<g id="a_Node000006"><a xlink:title=" ">
<polygon fill="#e0e0e0" stroke="#999999" points="365,-19 282,-19 282,0 365,0 365,-19"/>
<text text-anchor="middle" x="323.5" y="-7" font-family="Helvetica,sans-Serif" font-size="10.00">initializer_list</text>
</a>
</g>
</g>
<!-- Node1&#45;&gt;Node6 -->
<g id="edge5_Node000001_Node000006" class="edge">
<title>Node1&#45;&gt;Node6</title>
<g id="a_edge5_Node000001_Node000006"><a xlink:title=" ">
<path fill="none" stroke="#63b8ff" d="M518.91,-55.51C473.84,-45.12 412.38,-30.97 370.5,-21.33"/>
<polygon fill="#63b8ff" stroke="#63b8ff" points="371.09,-17.87 360.56,-19.04 369.52,-24.69 371.09,-17.87"/>
</a>
</g>
</g>
<!-- Node7 -->
<g id="Node000007" class="node">
<title>Node7</title>
<g id="a_Node000007"><a xlink:title=" ">
<polygon fill="#e0e0e0" stroke="#999999" points="421.5,-19 383.5,-19 383.5,0 421.5,0 421.5,-19"/>
<text text-anchor="middle" x="402.5" y="-7" font-family="Helvetica,sans-Serif" font-size="10.00">map</text>
</a>
</g>
</g>
<!-- Node1&#45;&gt;Node7 -->
<g id="edge6_Node000001_Node000007" class="edge">
<title>Node1&#45;&gt;Node7</title>
<g id="a_edge6_Node000001_Node000007"><a xlink:title=" ">
<path fill="none" stroke="#63b8ff" d="M535.58,-54.99C503.34,-44.21 459.65,-29.6 431.27,-20.12"/>
<polygon fill="#63b8ff" stroke="#63b8ff" points="432.15,-16.72 421.55,-16.87 429.93,-23.36 432.15,-16.72"/>
</a>
</g>
</g>
<!-- Node8 -->
<g id="Node000008" class="node">
<title>Node8</title>
<g id="a_Node000008"><a xlink:title=" ">
<polygon fill="#e0e0e0" stroke="#999999" points="497.5,-19 439.5,-19 439.5,0 497.5,0 497.5,-19"/>
<text text-anchor="middle" x="468.5" y="-7" font-family="Helvetica,sans-Serif" font-size="10.00">memory</text>
</a>
</g>
</g>
<!-- Node1&#45;&gt;Node8 -->
<g id="edge7_Node000001_Node000008" class="edge">
<title>Node1&#45;&gt;Node8</title>
<g id="a_edge7_Node000001_Node000008"><a xlink:title=" ">
<path fill="none" stroke="#63b8ff" d="M551.39,-54.99C533.86,-45.58 510.88,-33.24 493.56,-23.95"/>
<polygon fill="#63b8ff" stroke="#63b8ff" points="495.06,-20.78 484.6,-19.14 491.75,-26.95 495.06,-20.78"/>
</a>
</g>
</g>
<!-- Node9 -->
<g id="Node000009" class="node">
<title>Node9</title>
<g id="a_Node000009"><a xlink:title=" ">
<polygon fill="#e0e0e0" stroke="#999999" points="571.5,-19 515.5,-19 515.5,0 571.5,0 571.5,-19"/>
<text text-anchor="middle" x="543.5" y="-7" font-family="Helvetica,sans-Serif" font-size="10.00">sstream</text>
</a>
</g>
</g>
<!-- Node1&#45;&gt;Node9 -->
<g id="edge8_Node000001_Node000009" class="edge">
<title>Node1&#45;&gt;Node9</title>
<g id="a_edge8_Node000001_Node000009"><a xlink:title=" ">
<path fill="none" stroke="#63b8ff" d="M569.27,-54.84C564.59,-46.78 558.68,-36.62 553.7,-28.06"/>
<polygon fill="#63b8ff" stroke="#63b8ff" points="556.65,-26.15 548.59,-19.27 550.59,-29.67 556.65,-26.15"/>
</a>
</g>
</g>
<!-- Node10 -->
<g id="Node000010" class="node">
<title>Node10</title>
<g id="a_Node000010"><a xlink:title=" ">
<polygon fill="#e0e0e0" stroke="#999999" points="633.5,-19 589.5,-19 589.5,0 633.5,0 633.5,-19"/>
<text text-anchor="middle" x="611.5" y="-7" font-family="Helvetica,sans-Serif" font-size="10.00">string</text>
</a>
</g>
</g>
<!-- Node1&#45;&gt;Node10 -->
<g id="edge9_Node000001_Node000010" class="edge">
<title>Node1&#45;&gt;Node10</title>
<g id="a_edge9_Node000001_Node000010"><a xlink:title=" ">
<path fill="none" stroke="#63b8ff" d="M585.73,-54.84C590.41,-46.78 596.32,-36.62 601.3,-28.06"/>
<polygon fill="#63b8ff" stroke="#63b8ff" points="604.41,-29.67 606.41,-19.27 598.35,-26.15 604.41,-29.67"/>
</a>
</g>
</g>
<!-- Node11 -->
<g id="Node000011" class="node">
<title>Node11</title>
<g id="a_Node000011"><a xlink:title=" ">
<polygon fill="#e0e0e0" stroke="#999999" points="745,-19 652,-19 652,0 745,0 745,-19"/>
<text text-anchor="middle" x="698.5" y="-7" font-family="Helvetica,sans-Serif" font-size="10.00">unordered_map</text>
</a>
</g>
</g>
<!-- Node1&#45;&gt;Node11 -->
<g id="edge10_Node000001_Node000011" class="edge">
<title>Node1&#45;&gt;Node11</title>
<g id="a_edge10_Node000001_Node000011"><a xlink:title=" ">
<path fill="none" stroke="#63b8ff" d="M606.48,-54.99C626.22,-45.45 652.17,-32.9 671.47,-23.57"/>
<polygon fill="#63b8ff" stroke="#63b8ff" points="673.15,-26.64 680.63,-19.14 670.1,-20.34 673.15,-26.64"/>
</a>
</g>
</g>
<!-- Node12 -->
<g id="Node000012" class="node">
<title>Node12</title>
<g id="a_Node000012"><a xlink:title=" ">
<polygon fill="#e0e0e0" stroke="#999999" points="849.5,-19 763.5,-19 763.5,0 849.5,0 849.5,-19"/>
<text text-anchor="middle" x="806.5" y="-7" font-family="Helvetica,sans-Serif" font-size="10.00">unordered_set</text>
</a>
</g>
</g>
<!-- Node1&#45;&gt;Node12 -->
<g id="edge11_Node000001_Node000012" class="edge">
<title>Node1&#45;&gt;Node12</title>
<g id="a_edge11_Node000001_Node000012"><a xlink:title=" ">
<path fill="none" stroke="#63b8ff" d="M632.35,-54.99C672.39,-44.76 725.92,-31.09 763.01,-21.61"/>
<polygon fill="#63b8ff" stroke="#63b8ff" points="764.19,-24.92 773.02,-19.05 762.46,-18.14 764.19,-24.92"/>
</a>
</g>
</g>
<!-- Node13 -->
<g id="Node000013" class="node">
<title>Node13</title>
<g id="a_Node000013"><a xlink:title=" ">
<polygon fill="#e0e0e0" stroke="#999999" points="913,-19 868,-19 868,0 913,0 913,-19"/>
<text text-anchor="middle" x="890.5" y="-7" font-family="Helvetica,sans-Serif" font-size="10.00">utility</text>
</a>
</g>
</g>
<!-- Node1&#45;&gt;Node13 -->
<g id="edge12_Node000001_Node000013" class="edge">
<title>Node1&#45;&gt;Node13</title>
<g id="a_edge12_Node000001_Node000013"><a xlink:title=" ">
<path fill="none" stroke="#63b8ff" d="M636.18,-60.02C691.05,-51.3 775.45,-37.03 858.03,-18.94"/>
<polygon fill="#63b8ff" stroke="#63b8ff" points="858.82,-22.35 867.83,-16.77 857.31,-15.51 858.82,-22.35"/>
</a>
</g>
</g>
<!-- Node14 -->
<g id="Node000014" class="node">
<title>Node14</title>
<g id="a_Node000014"><a xlink:title=" ">
<polygon fill="#e0e0e0" stroke="#999999" points="978,-19 931,-19 931,0 978,0 978,-19"/>
<text text-anchor="middle" x="954.5" y="-7" font-family="Helvetica,sans-Serif" font-size="10.00">vector</text>
</a>
</g>
</g>
<!-- Node1&#45;&gt;Node14 -->
<g id="edge13_Node000001_Node000014" class="edge">
<title>Node1&#45;&gt;Node14</title>
<g id="a_edge13_Node000001_Node000014"><a xlink:title=" ">
<path fill="none" stroke="#63b8ff" d="M636.15,-62.6C703,-54.83 815.66,-40.32 920.97,-19.13"/>
<polygon fill="#63b8ff" stroke="#63b8ff" points="921.71,-22.55 930.81,-17.12 920.31,-15.69 921.71,-22.55"/>
</a>
</g>
</g>
<!-- Node15 -->
<g id="Node000015" class="node">
<title>Node15</title>
<g id="a_Node000015"><a xlink:title=" ">
<polygon fill="#e0e0e0" stroke="#999999" points="1060.5,-19 996.5,-19 996.5,0 1060.5,0 1060.5,-19"/>
<text text-anchor="middle" x="1028.5" y="-7" font-family="Helvetica,sans-Serif" font-size="10.00">algorithm</text>
</a>
</g>
</g>
<!-- Node1&#45;&gt;Node15 -->
<g id="edge14_Node000001_Node000015" class="edge">
<title>Node1&#45;&gt;Node15</title>
<g id="a_edge14_Node000001_Node000015"><a xlink:title=" ">
<path fill="none" stroke="#63b8ff" d="M636.11,-63.4C713.85,-55.63 855.54,-40.27 986.14,-19.1"/>
<polygon fill="#63b8ff" stroke="#63b8ff" points="987.01,-22.5 996.32,-17.44 985.88,-15.6 987.01,-22.5"/>
</a>
</g>
</g>
<!-- Node16 -->
<g id="Node000016" class="node">
<title>Node16</title>
<g id="a_Node000016"><a xlink:title=" ">
<polygon fill="#e0e0e0" stroke="#999999" points="1124.5,-19 1078.5,-19 1078.5,0 1124.5,0 1124.5,-19"/>
<text text-anchor="middle" x="1101.5" y="-7" font-family="Helvetica,sans-Serif" font-size="10.00">locale</text>
</a>
</g>
</g>
<!-- Node1&#45;&gt;Node16 -->
<g id="edge15_Node000001_Node000016" class="edge">
<title>Node1&#45;&gt;Node16</title>
<g id="a_edge15_Node000001_Node000016"><a xlink:title=" ">
<path fill="none" stroke="#63b8ff" d="M636.24,-66.04C727.02,-60.82 906.94,-47.82 1068.08,-18.98"/>
<polygon fill="#63b8ff" stroke="#63b8ff" points="1068.96,-22.38 1078.18,-17.15 1067.71,-15.49 1068.96,-22.38"/>
</a>
</g>
</g>
<!-- Node17 -->
<g id="Node000017" class="node">
<title>Node17</title>
<g id="a_Node000017"><a xlink:title=" ">
<polygon fill="#e0e0e0" stroke="#999999" points="1186.5,-19 1142.5,-19 1142.5,0 1186.5,0 1186.5,-19"/>
<text text-anchor="middle" x="1164.5" y="-7" font-family="Helvetica,sans-Serif" font-size="10.00">regex</text>
</a>
</g>
</g>
<!-- Node1&#45;&gt;Node17 -->
<g id="edge16_Node000001_Node000017" class="edge">
<title>Node1&#45;&gt;Node17</title>
<g id="a_edge16_Node000001_Node000017"><a xlink:title=" ">
<path fill="none" stroke="#63b8ff" d="M636.39,-67.14C736.6,-63.24 946.64,-51.79 1132.32,-18.89"/>
<polygon fill="#63b8ff" stroke="#63b8ff" points="1133.03,-22.32 1142.26,-17.11 1131.8,-15.43 1133.03,-22.32"/>
</a>
</g>
</g>
</g>
</svg>
