<?xml version="1.0" encoding="UTF-8" standalone="no"?>
<!DOCTYPE svg PUBLIC "-//W3C//DTD SVG 1.1//EN"
 "http://www.w3.org/Graphics/SVG/1.1/DTD/svg11.dtd">
<!-- Generated by graphviz version 2.43.0 (0)
 -->
<!-- Title: /usr/include/GraphicsMagick/magick/deprecate.h Pages: 1 -->
<svg width="1420pt" height="500pt"
 viewBox="0.00 0.00 1419.89 500.00" xmlns="http://www.w3.org/2000/svg" xmlns:xlink="http://www.w3.org/1999/xlink">
<g id="graph0" class="graph" transform="scale(1 1) rotate(0) translate(4 496)">
<title>/usr/include/GraphicsMagick/magick/deprecate.h</title>
<!-- Node1 -->
<g id="Node000001" class="node">
<title>Node1</title>
<g id="a_Node000001"><a xlink:title=" ">
<polygon fill="#999999" stroke="#666666" points="1283.89,-492 1129.89,-492 1129.89,-462 1283.89,-462 1283.89,-492"/>
<text text-anchor="start" x="1137.89" y="-480" font-family="Helvetica,sans-Serif" font-size="10.00">/usr/include/GraphicsMagick</text>
<text text-anchor="middle" x="1206.89" y="-469" font-family="Helvetica,sans-Serif" font-size="10.00">/magick/deprecate.h</text>
</a>
</g>
</g>
<!-- Node2 -->
<g id="Node000002" class="node">
<title>Node2</title>
<g id="a_Node000002"><a xlink:href="api_8h.html" target="_top" xlink:title=" ">
<polygon fill="white" stroke="#666666" points="1283.89,-426 1129.89,-426 1129.89,-396 1283.89,-396 1283.89,-426"/>
<text text-anchor="start" x="1137.89" y="-414" font-family="Helvetica,sans-Serif" font-size="10.00">/usr/include/GraphicsMagick</text>
<text text-anchor="middle" x="1206.89" y="-403" font-family="Helvetica,sans-Serif" font-size="10.00">/magick/api.h</text>
</a>
</g>
</g>
<!-- Node1&#45;&gt;Node2 -->
<g id="edge1_Node000001_Node000002" class="edge">
<title>Node1&#45;&gt;Node2</title>
<g id="a_edge1_Node000001_Node000002"><a xlink:title=" ">
<path fill="none" stroke="#63b8ff" d="M1206.89,-451.54C1206.89,-442.96 1206.89,-433.61 1206.89,-426.16"/>
<polygon fill="#63b8ff" stroke="#63b8ff" points="1203.39,-451.8 1206.89,-461.8 1210.39,-451.8 1203.39,-451.8"/>
</a>
</g>
</g>
<!-- Node3 -->
<g id="Node000003" class="node">
<title>Node3</title>
<g id="a_Node000003"><a xlink:href="Include_8h.html" target="_top" xlink:title=" ">
<polygon fill="white" stroke="#666666" points="649.89,-360 495.89,-360 495.89,-330 649.89,-330 649.89,-360"/>
<text text-anchor="start" x="503.89" y="-348" font-family="Helvetica,sans-Serif" font-size="10.00">/usr/include/GraphicsMagick</text>
<text text-anchor="middle" x="572.89" y="-337" font-family="Helvetica,sans-Serif" font-size="10.00">/Magick++/Include.h</text>
</a>
</g>
</g>
<!-- Node2&#45;&gt;Node3 -->
<g id="edge2_Node000002_Node000003" class="edge">
<title>Node2&#45;&gt;Node3</title>
<g id="a_edge2_Node000002_Node000003"><a xlink:title=" ">
<path fill="none" stroke="#63b8ff" d="M1119.52,-401.18C995.02,-388.61 768.53,-365.75 649.95,-353.78"/>
<polygon fill="#63b8ff" stroke="#63b8ff" points="1119.48,-404.69 1129.78,-402.22 1120.18,-397.73 1119.48,-404.69"/>
</a>
</g>
</g>
<!-- Node16 -->
<g id="Node000016" class="node">
<title>Node16</title>
<g id="a_Node000016"><a xlink:href="magick__wand_8h.html" target="_top" xlink:title=" ">
<polygon fill="white" stroke="#666666" points="1336.89,-360 1182.89,-360 1182.89,-330 1336.89,-330 1336.89,-360"/>
<text text-anchor="start" x="1190.89" y="-348" font-family="Helvetica,sans-Serif" font-size="10.00">/usr/include/GraphicsMagick</text>
<text text-anchor="middle" x="1259.89" y="-337" font-family="Helvetica,sans-Serif" font-size="10.00">/wand/magick_wand.h</text>
</a>
</g>
</g>
<!-- Node2&#45;&gt;Node16 -->
<g id="edge34_Node000002_Node000016" class="edge">
<title>Node2&#45;&gt;Node16</title>
<g id="a_edge34_Node000002_Node000016"><a xlink:title=" ">
<path fill="none" stroke="#63b8ff" d="M1225.03,-388.09C1232.68,-378.85 1241.37,-368.36 1248.16,-360.16"/>
<polygon fill="#63b8ff" stroke="#63b8ff" points="1222.33,-385.86 1218.65,-395.8 1227.72,-390.33 1222.33,-385.86"/>
</a>
</g>
</g>
<!-- Node17 -->
<g id="Node000017" class="node">
<title>Node17</title>
<g id="a_Node000017"><a xlink:href="wand__api_8h.html" target="_top" xlink:title=" ">
<polygon fill="white" stroke="#666666" points="1241.89,-294 1087.89,-294 1087.89,-264 1241.89,-264 1241.89,-294"/>
<text text-anchor="start" x="1095.89" y="-282" font-family="Helvetica,sans-Serif" font-size="10.00">/usr/include/GraphicsMagick</text>
<text text-anchor="middle" x="1164.89" y="-271" font-family="Helvetica,sans-Serif" font-size="10.00">/wand/wand_api.h</text>
</a>
</g>
</g>
<!-- Node2&#45;&gt;Node17 -->
<g id="edge39_Node000002_Node000017" class="edge">
<title>Node2&#45;&gt;Node17</title>
<g id="a_edge39_Node000002_Node000017"><a xlink:title=" ">
<path fill="none" stroke="#63b8ff" d="M1188.73,-387.42C1183.06,-379.24 1177.37,-369.62 1173.89,-360 1165.88,-337.92 1164.51,-310.37 1164.51,-294.03"/>
<polygon fill="#63b8ff" stroke="#63b8ff" points="1186.05,-389.68 1194.78,-395.68 1191.69,-385.55 1186.05,-389.68"/>
</a>
</g>
</g>
<!-- Node18 -->
<g id="Node000018" class="node">
<title>Node18</title>
<g id="a_Node000018"><a xlink:href="chronos_8hpp.html" target="_top" xlink:title=" ">
<polygon fill="white" stroke="#666666" points="1411.89,-288.5 1297.89,-288.5 1297.89,-269.5 1411.89,-269.5 1411.89,-288.5"/>
<text text-anchor="middle" x="1354.89" y="-276.5" font-family="Helvetica,sans-Serif" font-size="10.00">include/chronos.hpp</text>
</a>
</g>
</g>
<!-- Node2&#45;&gt;Node18 -->
<g id="edge40_Node000002_Node000018" class="edge">
<title>Node2&#45;&gt;Node18</title>
<g id="a_edge40_Node000002_Node000018"><a xlink:title=" ">
<path fill="none" stroke="#63b8ff" d="M1293.53,-395.21C1313.49,-387.79 1332.71,-376.68 1345.89,-360 1362.52,-338.95 1359.27,-304.47 1356.6,-288.55"/>
<polygon fill="#63b8ff" stroke="#63b8ff" points="1292.35,-391.91 1284.02,-398.46 1294.61,-398.54 1292.35,-391.91"/>
</a>
</g>
</g>
<!-- Node4 -->
<g id="Node000004" class="node">
<title>Node4</title>
<g id="a_Node000004"><a xlink:href="Magick_09_09_8h.html" target="_top" xlink:title=" ">
<polygon fill="white" stroke="#666666" points="625.89,-30 471.89,-30 471.89,0 625.89,0 625.89,-30"/>
<text text-anchor="start" x="479.89" y="-18" font-family="Helvetica,sans-Serif" font-size="10.00">/usr/include/GraphicsMagick</text>
<text text-anchor="middle" x="548.89" y="-7" font-family="Helvetica,sans-Serif" font-size="10.00">/Magick++.h</text>
</a>
</g>
</g>
<!-- Node3&#45;&gt;Node4 -->
<g id="edge3_Node000003_Node000004" class="edge">
<title>Node3&#45;&gt;Node4</title>
<g id="a_edge3_Node000003_Node000004"><a xlink:title=" ">
<path fill="none" stroke="#63b8ff" d="M660.35,-338.56C800.52,-327.41 1059.89,-295.74 1059.89,-214 1059.89,-214 1059.89,-214 1059.89,-146 1059.89,-57.55 768.69,-28.56 625.94,-19.66"/>
<polygon fill="#63b8ff" stroke="#63b8ff" points="659.75,-335.09 650.05,-339.36 660.29,-342.07 659.75,-335.09"/>
</a>
</g>
</g>
<!-- Node5 -->
<g id="Node000005" class="node">
<title>Node5</title>
<g id="a_Node000005"><a xlink:href="Blob_8h.html" target="_top" xlink:title=" ">
<polygon fill="white" stroke="#666666" points="191.89,-228 37.89,-228 37.89,-198 191.89,-198 191.89,-228"/>
<text text-anchor="start" x="45.89" y="-216" font-family="Helvetica,sans-Serif" font-size="10.00">/usr/include/GraphicsMagick</text>
<text text-anchor="middle" x="114.89" y="-205" font-family="Helvetica,sans-Serif" font-size="10.00">/Magick++/Blob.h</text>
</a>
</g>
</g>
<!-- Node3&#45;&gt;Node5 -->
<g id="edge4_Node000003_Node000005" class="edge">
<title>Node3&#45;&gt;Node5</title>
<g id="a_edge4_Node000003_Node000005"><a xlink:title=" ">
<path fill="none" stroke="#63b8ff" d="M485.59,-340.86C357.18,-335.34 129.82,-321.74 104.89,-294 88.7,-275.99 98.96,-245.79 107.31,-228.1"/>
<polygon fill="#63b8ff" stroke="#63b8ff" points="485.65,-344.37 495.79,-341.29 485.95,-337.38 485.65,-344.37"/>
</a>
</g>
</g>
<!-- Node6 -->
<g id="Node000006" class="node">
<title>Node6</title>
<g id="a_Node000006"><a xlink:href="Image_8h.html" target="_top" xlink:title=" ">
<polygon fill="white" stroke="#666666" points="334.89,-162 180.89,-162 180.89,-132 334.89,-132 334.89,-162"/>
<text text-anchor="start" x="188.89" y="-150" font-family="Helvetica,sans-Serif" font-size="10.00">/usr/include/GraphicsMagick</text>
<text text-anchor="middle" x="257.89" y="-139" font-family="Helvetica,sans-Serif" font-size="10.00">/Magick++/Image.h</text>
</a>
</g>
</g>
<!-- Node3&#45;&gt;Node6 -->
<g id="edge28_Node000003_Node000006" class="edge">
<title>Node3&#45;&gt;Node6</title>
<g id="a_edge28_Node000003_Node000006"><a xlink:title=" ">
<path fill="none" stroke="#63b8ff" d="M485.65,-342C366.52,-338.07 160.07,-326.64 92.89,-294 56.13,-276.14 44.23,-265.87 28.89,-228 23.88,-215.64 20.52,-208.39 28.89,-198 47.84,-174.47 121.86,-161.41 180.68,-154.6"/>
<polygon fill="#63b8ff" stroke="#63b8ff" points="485.73,-345.5 495.83,-342.32 485.95,-338.51 485.73,-345.5"/>
</a>
</g>
</g>
<!-- Node7 -->
<g id="Node000007" class="node">
<title>Node7</title>
<g id="a_Node000007"><a xlink:href="Pixels_8h.html" target="_top" xlink:title=" ">
<polygon fill="white" stroke="#666666" points="234.89,-96 80.89,-96 80.89,-66 234.89,-66 234.89,-96"/>
<text text-anchor="start" x="88.89" y="-84" font-family="Helvetica,sans-Serif" font-size="10.00">/usr/include/GraphicsMagick</text>
<text text-anchor="middle" x="157.89" y="-73" font-family="Helvetica,sans-Serif" font-size="10.00">/Magick++/Pixels.h</text>
</a>
</g>
</g>
<!-- Node3&#45;&gt;Node7 -->
<g id="edge30_Node000003_Node000007" class="edge">
<title>Node3&#45;&gt;Node7</title>
<g id="a_edge30_Node000003_Node000007"><a xlink:title=" ">
<path fill="none" stroke="#63b8ff" d="M485.48,-340.66C344.75,-334.56 80.16,-319.79 45.89,-294 -11.83,-250.57 -13.23,-187.6 32.89,-132 47.13,-114.82 68.15,-103.5 88.9,-96.06"/>
<polygon fill="#63b8ff" stroke="#63b8ff" points="485.67,-344.17 495.81,-341.1 485.97,-337.18 485.67,-344.17"/>
</a>
</g>
</g>
<!-- Node8 -->
<g id="Node000008" class="node">
<title>Node8</title>
<g id="a_Node000008"><a xlink:href="CoderInfo_8h.html" target="_top" xlink:title=" ">
<polygon fill="white" stroke="#666666" points="1031.89,-228 877.89,-228 877.89,-198 1031.89,-198 1031.89,-228"/>
<text text-anchor="start" x="885.89" y="-216" font-family="Helvetica,sans-Serif" font-size="10.00">/usr/include/GraphicsMagick</text>
<text text-anchor="middle" x="954.89" y="-205" font-family="Helvetica,sans-Serif" font-size="10.00">/Magick++/CoderInfo.h</text>
</a>
</g>
</g>
<!-- Node3&#45;&gt;Node8 -->
<g id="edge9_Node000003_Node000008" class="edge">
<title>Node3&#45;&gt;Node8</title>
<g id="a_edge9_Node000003_Node000008"><a xlink:title=" ">
<path fill="none" stroke="#63b8ff" d="M660.36,-341.39C720.19,-336.68 799.94,-324.55 863.89,-294 897.1,-278.13 927.43,-246.57 943.3,-228.19"/>
<polygon fill="#63b8ff" stroke="#63b8ff" points="659.9,-337.91 650.18,-342.13 660.41,-344.89 659.9,-337.91"/>
</a>
</g>
</g>
<!-- Node9 -->
<g id="Node000009" class="node">
<title>Node9</title>
<g id="a_Node000009"><a xlink:href="STL_8h.html" target="_top" xlink:title=" ">
<polygon fill="white" stroke="#666666" points="772.89,-162 618.89,-162 618.89,-132 772.89,-132 772.89,-162"/>
<text text-anchor="start" x="626.89" y="-150" font-family="Helvetica,sans-Serif" font-size="10.00">/usr/include/GraphicsMagick</text>
<text text-anchor="middle" x="695.89" y="-139" font-family="Helvetica,sans-Serif" font-size="10.00">/Magick++/STL.h</text>
</a>
</g>
</g>
<!-- Node3&#45;&gt;Node9 -->
<g id="edge31_Node000003_Node000009" class="edge">
<title>Node3&#45;&gt;Node9</title>
<g id="a_edge31_Node000003_Node000009"><a xlink:title=" ">
<path fill="none" stroke="#63b8ff" d="M659.87,-330.89C719.85,-316.72 794.98,-287.56 830.89,-228 850.72,-195.1 807.75,-174.17 765.14,-162.01"/>
<polygon fill="#63b8ff" stroke="#63b8ff" points="658.99,-327.5 650.01,-333.12 660.53,-334.33 658.99,-327.5"/>
</a>
</g>
</g>
<!-- Node10 -->
<g id="Node000010" class="node">
<title>Node10</title>
<g id="a_Node000010"><a xlink:href="Color_8h.html" target="_top" xlink:title=" ">
<polygon fill="white" stroke="#666666" points="439.89,-294 285.89,-294 285.89,-264 439.89,-264 439.89,-294"/>
<text text-anchor="start" x="293.89" y="-282" font-family="Helvetica,sans-Serif" font-size="10.00">/usr/include/GraphicsMagick</text>
<text text-anchor="middle" x="362.89" y="-271" font-family="Helvetica,sans-Serif" font-size="10.00">/Magick++/Color.h</text>
</a>
</g>
</g>
<!-- Node3&#45;&gt;Node10 -->
<g id="edge12_Node000003_Node000010" class="edge">
<title>Node3&#45;&gt;Node10</title>
<g id="a_edge12_Node000003_Node000010"><a xlink:title=" ">
<path fill="none" stroke="#63b8ff" d="M517.07,-326.99C483.28,-316.69 440.71,-303.72 408.86,-294.01"/>
<polygon fill="#63b8ff" stroke="#63b8ff" points="516.21,-330.39 526.8,-329.95 518.25,-323.69 516.21,-330.39"/>
</a>
</g>
</g>
<!-- Node11 -->
<g id="Node000011" class="node">
<title>Node11</title>
<g id="a_Node000011"><a xlink:href="Drawable_8h.html" target="_top" xlink:title=" ">
<polygon fill="white" stroke="#666666" points="439.89,-228 285.89,-228 285.89,-198 439.89,-198 439.89,-228"/>
<text text-anchor="start" x="293.89" y="-216" font-family="Helvetica,sans-Serif" font-size="10.00">/usr/include/GraphicsMagick</text>
<text text-anchor="middle" x="362.89" y="-205" font-family="Helvetica,sans-Serif" font-size="10.00">/Magick++/Drawable.h</text>
</a>
</g>
</g>
<!-- Node3&#45;&gt;Node11 -->
<g id="edge20_Node000003_Node000011" class="edge">
<title>Node3&#45;&gt;Node11</title>
<g id="a_edge20_Node000003_Node000011"><a xlink:title=" ">
<path fill="none" stroke="#63b8ff" d="M537.4,-324.87C521.62,-315.98 503,-304.96 486.89,-294 469.1,-281.9 466.68,-276.1 448.89,-264 429.61,-250.88 406.75,-237.7 389.44,-228.16"/>
<polygon fill="#63b8ff" stroke="#63b8ff" points="535.89,-328.03 546.33,-329.84 539.3,-321.92 535.89,-328.03"/>
</a>
</g>
</g>
<!-- Node12 -->
<g id="Node000012" class="node">
<title>Node12</title>
<g id="a_Node000012"><a xlink:href="Montage_8h.html" target="_top" xlink:title=" ">
<polygon fill="white" stroke="#666666" points="649.89,-228 495.89,-228 495.89,-198 649.89,-198 649.89,-228"/>
<text text-anchor="start" x="503.89" y="-216" font-family="Helvetica,sans-Serif" font-size="10.00">/usr/include/GraphicsMagick</text>
<text text-anchor="middle" x="572.89" y="-205" font-family="Helvetica,sans-Serif" font-size="10.00">/Magick++/Montage.h</text>
</a>
</g>
</g>
<!-- Node3&#45;&gt;Node12 -->
<g id="edge29_Node000003_Node000012" class="edge">
<title>Node3&#45;&gt;Node12</title>
<g id="a_edge29_Node000003_Node000012"><a xlink:title=" ">
<path fill="none" stroke="#63b8ff" d="M624.59,-325.25C638.14,-317.71 651.11,-307.51 658.89,-294 665.53,-282.44 665.53,-275.56 658.89,-264 649.41,-247.53 632.2,-235.99 615.65,-228.17"/>
<polygon fill="#63b8ff" stroke="#63b8ff" points="622.95,-322.15 615.65,-329.83 626.15,-328.38 622.95,-322.15"/>
</a>
</g>
</g>
<!-- Node13 -->
<g id="Node000013" class="node">
<title>Node13</title>
<g id="a_Node000013"><a xlink:href="Exception_8h.html" target="_top" xlink:title=" ">
<polygon fill="white" stroke="#666666" points="821.89,-228 667.89,-228 667.89,-198 821.89,-198 821.89,-228"/>
<text text-anchor="start" x="675.89" y="-216" font-family="Helvetica,sans-Serif" font-size="10.00">/usr/include/GraphicsMagick</text>
<text text-anchor="middle" x="744.89" y="-205" font-family="Helvetica,sans-Serif" font-size="10.00">/Magick++/Exception.h</text>
</a>
</g>
</g>
<!-- Node3&#45;&gt;Node13 -->
<g id="edge21_Node000003_Node000013" class="edge">
<title>Node3&#45;&gt;Node13</title>
<g id="a_edge21_Node000003_Node000013"><a xlink:title=" ">
<path fill="none" stroke="#63b8ff" d="M620.54,-325.75C638.81,-317.54 659.25,-306.79 675.89,-294 700.75,-274.88 723.18,-245.61 735.34,-228.28"/>
<polygon fill="#63b8ff" stroke="#63b8ff" points="618.99,-322.61 611.21,-329.81 621.78,-329.03 618.99,-322.61"/>
</a>
</g>
</g>
<!-- Node14 -->
<g id="Node000014" class="node">
<title>Node14</title>
<g id="a_Node000014"><a xlink:href="Geometry_8h.html" target="_top" xlink:title=" ">
<polygon fill="white" stroke="#666666" points="649.89,-294 495.89,-294 495.89,-264 649.89,-264 649.89,-294"/>
<text text-anchor="start" x="503.89" y="-282" font-family="Helvetica,sans-Serif" font-size="10.00">/usr/include/GraphicsMagick</text>
<text text-anchor="middle" x="572.89" y="-271" font-family="Helvetica,sans-Serif" font-size="10.00">/Magick++/Geometry.h</text>
</a>
</g>
</g>
<!-- Node3&#45;&gt;Node14 -->
<g id="edge24_Node000003_Node000014" class="edge">
<title>Node3&#45;&gt;Node14</title>
<g id="a_edge24_Node000003_Node000014"><a xlink:title=" ">
<path fill="none" stroke="#63b8ff" d="M572.89,-319.54C572.89,-310.96 572.89,-301.61 572.89,-294.16"/>
<polygon fill="#63b8ff" stroke="#63b8ff" points="569.39,-319.8 572.89,-329.8 576.39,-319.8 569.39,-319.8"/>
</a>
</g>
</g>
<!-- Node15 -->
<g id="Node000015" class="node">
<title>Node15</title>
<g id="a_Node000015"><a xlink:href="TypeMetric_8h.html" target="_top" xlink:title=" ">
<polygon fill="white" stroke="#666666" points="267.89,-294 113.89,-294 113.89,-264 267.89,-264 267.89,-294"/>
<text text-anchor="start" x="121.89" y="-282" font-family="Helvetica,sans-Serif" font-size="10.00">/usr/include/GraphicsMagick</text>
<text text-anchor="middle" x="190.89" y="-271" font-family="Helvetica,sans-Serif" font-size="10.00">/Magick++/TypeMetric.h</text>
</a>
</g>
</g>
<!-- Node3&#45;&gt;Node15 -->
<g id="edge32_Node000003_Node000015" class="edge">
<title>Node3&#45;&gt;Node15</title>
<g id="a_edge32_Node000003_Node000015"><a xlink:title=" ">
<path fill="none" stroke="#63b8ff" d="M485.68,-329.39C420.1,-318.4 331.08,-303.49 268.07,-292.93"/>
<polygon fill="#63b8ff" stroke="#63b8ff" points="485.14,-332.85 495.58,-331.05 486.3,-325.94 485.14,-332.85"/>
</a>
</g>
</g>
<!-- Node5&#45;&gt;Node6 -->
<g id="edge5_Node000005_Node000006" class="edge">
<title>Node5&#45;&gt;Node6</title>
<g id="a_edge5_Node000005_Node000006"><a xlink:title=" ">
<path fill="none" stroke="#63b8ff" d="M155.59,-193.78C178.13,-183.69 205.73,-171.34 226.58,-162.01"/>
<polygon fill="#63b8ff" stroke="#63b8ff" points="153.97,-190.68 146.27,-197.95 156.82,-197.06 153.97,-190.68"/>
</a>
</g>
</g>
<!-- Node6&#45;&gt;Node4 -->
<g id="edge6_Node000006_Node000004" class="edge">
<title>Node6&#45;&gt;Node4</title>
<g id="a_edge6_Node000006_Node000004"><a xlink:title=" ">
<path fill="none" stroke="#63b8ff" d="M298.62,-127.8C357.21,-101.63 464.05,-53.9 517.16,-30.17"/>
<polygon fill="#63b8ff" stroke="#63b8ff" points="297.01,-124.69 289.3,-131.96 299.86,-131.08 297.01,-124.69"/>
</a>
</g>
</g>
<!-- Node6&#45;&gt;Node7 -->
<g id="edge7_Node000006_Node000007" class="edge">
<title>Node6&#45;&gt;Node7</title>
<g id="a_edge7_Node000006_Node000007"><a xlink:title=" ">
<path fill="none" stroke="#63b8ff" d="M227.11,-126.3C211.88,-116.56 193.86,-105.02 180.02,-96.16"/>
<polygon fill="#63b8ff" stroke="#63b8ff" points="225.38,-129.35 235.69,-131.8 229.16,-123.46 225.38,-129.35"/>
</a>
</g>
</g>
<!-- Node7&#45;&gt;Node4 -->
<g id="edge8_Node000007_Node000004" class="edge">
<title>Node7&#45;&gt;Node4</title>
<g id="a_edge8_Node000007_Node000004"><a xlink:title=" ">
<path fill="none" stroke="#63b8ff" d="M245.39,-65.68C313.34,-54.56 406.64,-39.28 471.8,-28.62"/>
<polygon fill="#63b8ff" stroke="#63b8ff" points="244.44,-62.29 235.13,-67.36 245.57,-69.19 244.44,-62.29"/>
</a>
</g>
</g>
<!-- Node8&#45;&gt;Node9 -->
<g id="edge10_Node000008_Node000009" class="edge">
<title>Node8&#45;&gt;Node9</title>
<g id="a_edge10_Node000008_Node000009"><a xlink:title=" ">
<path fill="none" stroke="#63b8ff" d="M888.18,-195.52C846.18,-185.14 792.54,-171.88 752.59,-162.01"/>
<polygon fill="#63b8ff" stroke="#63b8ff" points="887.5,-198.95 898.05,-197.95 889.18,-192.16 887.5,-198.95"/>
</a>
</g>
</g>
<!-- Node9&#45;&gt;Node4 -->
<g id="edge11_Node000009_Node000004" class="edge">
<title>Node9&#45;&gt;Node4</title>
<g id="a_edge11_Node000009_Node000004"><a xlink:title=" ">
<path fill="none" stroke="#63b8ff" d="M672.34,-125.18C642.21,-98.53 590.82,-53.09 564.88,-30.14"/>
<polygon fill="#63b8ff" stroke="#63b8ff" points="670.06,-127.84 679.87,-131.84 674.7,-122.59 670.06,-127.84"/>
</a>
</g>
</g>
<!-- Node10&#45;&gt;Node6 -->
<g id="edge16_Node000010_Node000006" class="edge">
<title>Node10&#45;&gt;Node6</title>
<g id="a_edge16_Node000010_Node000006"><a xlink:title=" ">
<path fill="none" stroke="#63b8ff" d="M315.3,-259.22C301.08,-251.49 286.68,-241.19 276.89,-228 262.33,-208.4 258.74,-179.29 257.97,-162.12"/>
<polygon fill="#63b8ff" stroke="#63b8ff" points="314.07,-262.52 324.57,-263.93 317.24,-256.28 314.07,-262.52"/>
</a>
</g>
</g>
<!-- Node10&#45;&gt;Node7 -->
<g id="edge19_Node000010_Node000007" class="edge">
<title>Node10&#45;&gt;Node7</title>
<g id="a_edge19_Node000010_Node000007"><a xlink:title=" ">
<path fill="none" stroke="#63b8ff" d="M275.57,-264.07C206.85,-256.81 63.55,-268.06 28.89,-228 -13.39,-179.15 79.23,-121.92 128.98,-96.01"/>
<polygon fill="#63b8ff" stroke="#63b8ff" points="275.18,-267.55 285.54,-265.34 276.06,-260.61 275.18,-267.55"/>
</a>
</g>
</g>
<!-- Node10&#45;&gt;Node11 -->
<g id="edge13_Node000010_Node000011" class="edge">
<title>Node10&#45;&gt;Node11</title>
<g id="a_edge13_Node000010_Node000011"><a xlink:title=" ">
<path fill="none" stroke="#63b8ff" d="M362.89,-253.54C362.89,-244.96 362.89,-235.61 362.89,-228.16"/>
<polygon fill="#63b8ff" stroke="#63b8ff" points="359.39,-253.8 362.89,-263.8 366.39,-253.8 359.39,-253.8"/>
</a>
</g>
</g>
<!-- Node10&#45;&gt;Node12 -->
<g id="edge17_Node000010_Node000012" class="edge">
<title>Node10&#45;&gt;Node12</title>
<g id="a_edge17_Node000010_Node000012"><a xlink:title=" ">
<path fill="none" stroke="#63b8ff" d="M418.7,-260.99C452.49,-250.69 495.06,-237.72 526.91,-228.01"/>
<polygon fill="#63b8ff" stroke="#63b8ff" points="417.52,-257.69 408.97,-263.95 419.56,-264.39 417.52,-257.69"/>
</a>
</g>
</g>
<!-- Node11&#45;&gt;Node6 -->
<g id="edge14_Node000011_Node000006" class="edge">
<title>Node11&#45;&gt;Node6</title>
<g id="a_edge14_Node000011_Node000006"><a xlink:title=" ">
<path fill="none" stroke="#63b8ff" d="M331.21,-192.69C315,-182.82 295.63,-171.01 280.87,-162.01"/>
<polygon fill="#63b8ff" stroke="#63b8ff" points="329.48,-195.74 339.84,-197.95 333.13,-189.76 329.48,-195.74"/>
</a>
</g>
</g>
<!-- Node11&#45;&gt;Node9 -->
<g id="edge15_Node000011_Node000009" class="edge">
<title>Node11&#45;&gt;Node9</title>
<g id="a_edge15_Node000011_Node000009"><a xlink:title=" ">
<path fill="none" stroke="#63b8ff" d="M445.93,-196.04C500.32,-185.59 570.75,-172.05 622.98,-162.01"/>
<polygon fill="#63b8ff" stroke="#63b8ff" points="445.12,-192.63 435.96,-197.95 446.44,-199.5 445.12,-192.63"/>
</a>
</g>
</g>
<!-- Node12&#45;&gt;Node9 -->
<g id="edge18_Node000012_Node000009" class="edge">
<title>Node12&#45;&gt;Node9</title>
<g id="a_edge18_Node000012_Node000009"><a xlink:title=" ">
<path fill="none" stroke="#63b8ff" d="M608.94,-193.24C628.13,-183.25 651.34,-171.18 668.96,-162.01"/>
<polygon fill="#63b8ff" stroke="#63b8ff" points="607.13,-190.23 599.88,-197.95 610.36,-196.44 607.13,-190.23"/>
</a>
</g>
</g>
<!-- Node13&#45;&gt;Node6 -->
<g id="edge22_Node000013_Node000006" class="edge">
<title>Node13&#45;&gt;Node6</title>
<g id="a_edge22_Node000013_Node000006"><a xlink:title=" ">
<path fill="none" stroke="#63b8ff" d="M657.61,-197.85C539.46,-181.01 413.88,-165.9 335.25,-156.78"/>
<polygon fill="#63b8ff" stroke="#63b8ff" points="657.16,-201.32 667.55,-199.27 658.15,-194.39 657.16,-201.32"/>
</a>
</g>
</g>
<!-- Node13&#45;&gt;Node9 -->
<g id="edge23_Node000013_Node000009" class="edge">
<title>Node13&#45;&gt;Node9</title>
<g id="a_edge23_Node000013_Node000009"><a xlink:title=" ">
<path fill="none" stroke="#63b8ff" d="M727.89,-189.81C720.87,-180.64 712.94,-170.28 706.73,-162.16"/>
<polygon fill="#63b8ff" stroke="#63b8ff" points="725.15,-191.98 734.01,-197.8 730.71,-187.73 725.15,-191.98"/>
</a>
</g>
</g>
<!-- Node14&#45;&gt;Node6 -->
<g id="edge26_Node000014_Node000006" class="edge">
<title>Node14&#45;&gt;Node6</title>
<g id="a_edge26_Node000014_Node000006"><a xlink:title=" ">
<path fill="none" stroke="#63b8ff" d="M537.4,-258.87C521.62,-249.98 503,-238.96 486.89,-228 469.1,-215.9 468.15,-207.59 448.89,-198 413.45,-180.35 371.11,-168.45 335.31,-160.7"/>
<polygon fill="#63b8ff" stroke="#63b8ff" points="535.89,-262.03 546.33,-263.84 539.3,-255.92 535.89,-262.03"/>
</a>
</g>
</g>
<!-- Node14&#45;&gt;Node11 -->
<g id="edge25_Node000014_Node000011" class="edge">
<title>Node14&#45;&gt;Node11</title>
<g id="a_edge25_Node000014_Node000011"><a xlink:title=" ">
<path fill="none" stroke="#63b8ff" d="M517.07,-260.99C483.28,-250.69 440.71,-237.72 408.86,-228.01"/>
<polygon fill="#63b8ff" stroke="#63b8ff" points="516.21,-264.39 526.8,-263.95 518.25,-257.69 516.21,-264.39"/>
</a>
</g>
</g>
<!-- Node14&#45;&gt;Node12 -->
<g id="edge27_Node000014_Node000012" class="edge">
<title>Node14&#45;&gt;Node12</title>
<g id="a_edge27_Node000014_Node000012"><a xlink:title=" ">
<path fill="none" stroke="#63b8ff" d="M572.89,-253.54C572.89,-244.96 572.89,-235.61 572.89,-228.16"/>
<polygon fill="#63b8ff" stroke="#63b8ff" points="569.39,-253.8 572.89,-263.8 576.39,-253.8 569.39,-253.8"/>
</a>
</g>
</g>
<!-- Node15&#45;&gt;Node6 -->
<g id="edge33_Node000015_Node000006" class="edge">
<title>Node15&#45;&gt;Node6</title>
<g id="a_edge33_Node000015_Node000006"><a xlink:title=" ">
<path fill="none" stroke="#63b8ff" d="M202.87,-254.75C216.73,-227.84 239.12,-184.4 250.6,-162.14"/>
<polygon fill="#63b8ff" stroke="#63b8ff" points="199.65,-253.35 198.18,-263.84 205.88,-256.55 199.65,-253.35"/>
</a>
</g>
</g>
<!-- Node16&#45;&gt;Node17 -->
<g id="edge35_Node000016_Node000017" class="edge">
<title>Node16&#45;&gt;Node17</title>
<g id="a_edge35_Node000016_Node000017"><a xlink:title=" ">
<path fill="none" stroke="#63b8ff" d="M1230.24,-324.03C1215.86,-314.34 1198.94,-302.94 1185.91,-294.16"/>
<polygon fill="#63b8ff" stroke="#63b8ff" points="1228.55,-327.11 1238.8,-329.8 1232.46,-321.31 1228.55,-327.11"/>
</a>
</g>
</g>
<!-- Node16&#45;&gt;Node18 -->
<g id="edge36_Node000016_Node000018" class="edge">
<title>Node16&#45;&gt;Node18</title>
<g id="a_edge36_Node000016_Node000018"><a xlink:title=" ">
<path fill="none" stroke="#63b8ff" d="M1289.28,-324.2C1306.96,-312.29 1328.57,-297.73 1342.03,-288.66"/>
<polygon fill="#63b8ff" stroke="#63b8ff" points="1287.31,-321.31 1280.97,-329.8 1291.22,-327.11 1287.31,-321.31"/>
</a>
</g>
</g>
<!-- Node19 -->
<g id="Node000019" class="node">
<title>Node19</title>
<g id="a_Node000019"><a xlink:href="chronos_8cpp.html" target="_top" xlink:title=" ">
<polygon fill="white" stroke="#666666" points="1357.89,-222.5 1265.89,-222.5 1265.89,-203.5 1357.89,-203.5 1357.89,-222.5"/>
<text text-anchor="middle" x="1311.89" y="-210.5" font-family="Helvetica,sans-Serif" font-size="10.00">src/chronos.cpp</text>
</a>
</g>
</g>
<!-- Node16&#45;&gt;Node19 -->
<g id="edge38_Node000016_Node000019" class="edge">
<title>Node16&#45;&gt;Node19</title>
<g id="a_edge38_Node000016_Node000019"><a xlink:title=" ">
<path fill="none" stroke="#63b8ff" d="M1267.88,-320.35C1273.44,-304.32 1281.2,-282.72 1288.89,-264 1294.91,-249.33 1302.79,-232.66 1307.59,-222.75"/>
<polygon fill="#63b8ff" stroke="#63b8ff" points="1264.5,-319.4 1264.57,-329.99 1271.12,-321.67 1264.5,-319.4"/>
</a>
</g>
</g>
<!-- Node18&#45;&gt;Node19 -->
<g id="edge37_Node000018_Node000019" class="edge">
<title>Node18&#45;&gt;Node19</title>
<g id="a_edge37_Node000018_Node000019"><a xlink:title=" ">
<path fill="none" stroke="#63b8ff" d="M1343.4,-260.91C1335.18,-248.68 1324.45,-232.7 1317.87,-222.91"/>
<polygon fill="#63b8ff" stroke="#63b8ff" points="1340.6,-263.02 1349.09,-269.37 1346.41,-259.12 1340.6,-263.02"/>
</a>
</g>
</g>
</g>
</svg>
