<?xml version="1.0" encoding="UTF-8" standalone="no"?>
<!DOCTYPE svg PUBLIC "-//W3C//DTD SVG 1.1//EN"
 "http://www.w3.org/Graphics/SVG/1.1/DTD/svg11.dtd">
<!-- Generated by graphviz version 2.43.0 (0)
 -->
<!-- Title: thirdparty/RadioLib/include/RadioLib/modules Pages: 1 -->
<svg width="678pt" height="196pt"
 viewBox="0.00 0.00 678.00 196.00" xmlns="http://www.w3.org/2000/svg" xmlns:xlink="http://www.w3.org/1999/xlink">
<g id="graph0" class="graph" transform="scale(1 1) rotate(0) translate(4 192)">
<title>thirdparty/RadioLib/include/RadioLib/modules</title>
<g id="clust1" class="cluster">
<title>clusterdir_ee4192a436a8211ee8510476a7e00e68</title>
<g id="a_clust1"><a xlink:href="dir_ee4192a436a8211ee8510476a7e00e68.html" target="_top" xlink:title="RadioLib">
<polygon fill="#edf0f7" stroke="#7f7f7f" stroke-dasharray="5,2" points="8,-8 8,-180 662,-180 662,-8 8,-8"/>
<text text-anchor="middle" x="335" y="-168" font-family="Helvetica,sans-Serif" font-size="10.00">RadioLib</text>
</a>
</g>
</g>
<g id="clust2" class="cluster">
<title>clusterdir_01813b3f8ae2078c006f3355d9c2288e</title>
<g id="a_clust2"><a xlink:href="dir_01813b3f8ae2078c006f3355d9c2288e.html" target="_top">
<polygon fill="#edf0f7" stroke="#404040" stroke-width="2" points="16,-63 16,-153 654,-153 654,-63 16,-63"/>
</a>
</g>
</g>
<!-- dir_2d35d80cfe3a61904819008d637ca9fb -->
<g id="node1" class="node">
<title>dir_2d35d80cfe3a61904819008d637ca9fb</title>
<g id="a_node1"><a xlink:href="dir_2d35d80cfe3a61904819008d637ca9fb.html" target="_top" xlink:title="protocols">
<polygon fill="#a2b4d6" stroke="red" points="339,-35 277,-35 277,-16 339,-16 339,-35"/>
<text text-anchor="middle" x="308" y="-23" font-family="Helvetica,sans-Serif" font-size="10.00">protocols</text>
</a>
</g>
</g>
<!-- dir_8535b255390899b7744e59f6adfb9924 -->
<g id="node2" class="node">
<title>dir_8535b255390899b7744e59f6adfb9924</title>
<g id="a_node2"><a xlink:href="dir_8535b255390899b7744e59f6adfb9924.html" target="_top" xlink:title="utils">
<polygon fill="#a2b4d6" stroke="#404040" points="75,-35 37,-35 37,-16 75,-16 75,-35"/>
<text text-anchor="middle" x="56" y="-23" font-family="Helvetica,sans-Serif" font-size="10.00">utils</text>
</a>
</g>
</g>
<!-- dir_01813b3f8ae2078c006f3355d9c2288e -->
<g id="node3" class="node">
<title>dir_01813b3f8ae2078c006f3355d9c2288e</title>
<text text-anchor="middle" x="616" y="-133" font-family="Helvetica,sans-Serif" font-size="10.00">modules</text>
</g>
<!-- dir_833048a26100b678f494db50cdbee0a6 -->
<g id="node4" class="node">
<title>dir_833048a26100b678f494db50cdbee0a6</title>
<g id="a_node4"><a xlink:href="dir_833048a26100b678f494db50cdbee0a6.html" target="_top" xlink:title="CC1101">
<polygon fill="#a2b4d6" stroke="#404040" points="361,-145 307,-145 307,-126 361,-126 361,-145"/>
<text text-anchor="middle" x="334" y="-133" font-family="Helvetica,sans-Serif" font-size="10.00">CC1101</text>
</a>
</g>
</g>
<!-- dir_833048a26100b678f494db50cdbee0a6&#45;&gt;dir_2d35d80cfe3a61904819008d637ca9fb -->
<g id="edge1" class="edge">
<title>dir_833048a26100b678f494db50cdbee0a6&#45;&gt;dir_2d35d80cfe3a61904819008d637ca9fb</title>
<g id="a_edge1"><a xlink:href="dir_000006_000028.html" target="_top">
<path fill="none" stroke="#63b8ff" d="M331.87,-125.66C327.64,-108.09 318.1,-68.45 312.44,-44.95"/>
<polygon fill="#63b8ff" stroke="#63b8ff" points="315.83,-44.06 310.08,-35.16 309.02,-45.7 315.83,-44.06"/>
</a>
</g>
<g id="a_edge1&#45;headlabel"><a xlink:href="dir_000006_000028.html" target="_top" xlink:title="1">
<text text-anchor="middle" x="319.43" y="-44.39" font-family="Helvetica,sans-Serif" font-size="10.00" fill="#63b8ff">1</text>
</a>
</g>
</g>
<!-- dir_c543026bb41d2a231f75c9906bba44f7 -->
<g id="node5" class="node">
<title>dir_c543026bb41d2a231f75c9906bba44f7</title>
<g id="a_node5"><a xlink:href="dir_c543026bb41d2a231f75c9906bba44f7.html" target="_top" xlink:title="LLCC68">
<polygon fill="#a2b4d6" stroke="#404040" points="77.5,-145 24.5,-145 24.5,-126 77.5,-126 77.5,-145"/>
<text text-anchor="middle" x="51" y="-133" font-family="Helvetica,sans-Serif" font-size="10.00">LLCC68</text>
</a>
</g>
</g>
<!-- dir_d392f53bd9d6b82f057e690ed2691ea1 -->
<g id="node13" class="node">
<title>dir_d392f53bd9d6b82f057e690ed2691ea1</title>
<g id="a_node13"><a xlink:href="dir_d392f53bd9d6b82f057e690ed2691ea1.html" target="_top" xlink:title="SX126x">
<polygon fill="#a2b4d6" stroke="#404040" points="82.5,-90 29.5,-90 29.5,-71 82.5,-71 82.5,-90"/>
<text text-anchor="middle" x="56" y="-78" font-family="Helvetica,sans-Serif" font-size="10.00">SX126x</text>
</a>
</g>
</g>
<!-- dir_c543026bb41d2a231f75c9906bba44f7&#45;&gt;dir_d392f53bd9d6b82f057e690ed2691ea1 -->
<g id="edge2" class="edge">
<title>dir_c543026bb41d2a231f75c9906bba44f7&#45;&gt;dir_d392f53bd9d6b82f057e690ed2691ea1</title>
<g id="a_edge2"><a xlink:href="dir_000016_000040.html" target="_top">
<path fill="none" stroke="#63b8ff" d="M51.83,-125.75C52.48,-118.8 53.42,-108.85 54.24,-100.13"/>
<polygon fill="#63b8ff" stroke="#63b8ff" points="57.73,-100.37 55.19,-90.09 50.77,-99.72 57.73,-100.37"/>
</a>
</g>
<g id="a_edge2&#45;headlabel"><a xlink:href="dir_000016_000040.html" target="_top" xlink:title="2">
<text text-anchor="middle" x="60.22" y="-101.72" font-family="Helvetica,sans-Serif" font-size="10.00" fill="#63b8ff">2</text>
</a>
</g>
</g>
<!-- dir_f7d13ce601b0fb79ffa7d3aab3a17e8d -->
<g id="node6" class="node">
<title>dir_f7d13ce601b0fb79ffa7d3aab3a17e8d</title>
<g id="a_node6"><a xlink:href="dir_f7d13ce601b0fb79ffa7d3aab3a17e8d.html" target="_top" xlink:title="LR11x0">
<polygon fill="#a2b4d6" stroke="#404040" points="288.5,-90 235.5,-90 235.5,-71 288.5,-71 288.5,-90"/>
<text text-anchor="middle" x="262" y="-78" font-family="Helvetica,sans-Serif" font-size="10.00">LR11x0</text>
</a>
</g>
</g>
<!-- dir_f7d13ce601b0fb79ffa7d3aab3a17e8d&#45;&gt;dir_2d35d80cfe3a61904819008d637ca9fb -->
<g id="edge3" class="edge">
<title>dir_f7d13ce601b0fb79ffa7d3aab3a17e8d&#45;&gt;dir_2d35d80cfe3a61904819008d637ca9fb</title>
<g id="a_edge3"><a xlink:href="dir_000018_000028.html" target="_top">
<path fill="none" stroke="#63b8ff" d="M269.6,-70.75C276.16,-63.18 285.82,-52.05 293.81,-42.84"/>
<polygon fill="#63b8ff" stroke="#63b8ff" points="296.63,-44.94 300.55,-35.09 291.35,-40.35 296.63,-44.94"/>
</a>
</g>
<g id="a_edge3&#45;headlabel"><a xlink:href="dir_000018_000028.html" target="_top" xlink:title="1">
<text text-anchor="middle" x="296.42" y="-47.01" font-family="Helvetica,sans-Serif" font-size="10.00" fill="#63b8ff">1</text>
</a>
</g>
</g>
<!-- dir_df6bb49432c1da189b233ead98abf176 -->
<g id="node7" class="node">
<title>dir_df6bb49432c1da189b233ead98abf176</title>
<g id="a_node7"><a xlink:href="dir_df6bb49432c1da189b233ead98abf176.html" target="_top" xlink:title="LR2021">
<polygon fill="#a2b4d6" stroke="#404040" points="288.5,-145 235.5,-145 235.5,-126 288.5,-126 288.5,-145"/>
<text text-anchor="middle" x="262" y="-133" font-family="Helvetica,sans-Serif" font-size="10.00">LR2021</text>
</a>
</g>
</g>
<!-- dir_df6bb49432c1da189b233ead98abf176&#45;&gt;dir_2d35d80cfe3a61904819008d637ca9fb -->
<g id="edge4" class="edge">
<title>dir_df6bb49432c1da189b233ead98abf176&#45;&gt;dir_2d35d80cfe3a61904819008d637ca9fb</title>
<g id="a_edge4"><a xlink:href="dir_000019_000028.html" target="_top">
<path fill="none" stroke="#63b8ff" d="M271.31,-125.92C279.71,-117.59 291.7,-104.17 298,-90 304.31,-75.8 306.71,-58.27 307.59,-45.22"/>
<polygon fill="#63b8ff" stroke="#63b8ff" points="311.1,-45.26 308.04,-35.11 304.1,-44.95 311.1,-45.26"/>
</a>
</g>
<g id="a_edge4&#45;headlabel"><a xlink:href="dir_000019_000028.html" target="_top" xlink:title="1">
<text text-anchor="middle" x="313.78" y="-46.47" font-family="Helvetica,sans-Serif" font-size="10.00" fill="#63b8ff">1</text>
</a>
</g>
</g>
<!-- dir_df6bb49432c1da189b233ead98abf176&#45;&gt;dir_f7d13ce601b0fb79ffa7d3aab3a17e8d -->
<g id="edge5" class="edge">
<title>dir_df6bb49432c1da189b233ead98abf176&#45;&gt;dir_f7d13ce601b0fb79ffa7d3aab3a17e8d</title>
<g id="a_edge5"><a xlink:href="dir_000019_000018.html" target="_top">
<path fill="none" stroke="#63b8ff" d="M262,-125.75C262,-118.8 262,-108.85 262,-100.13"/>
<polygon fill="#63b8ff" stroke="#63b8ff" points="265.5,-100.09 262,-90.09 258.5,-100.09 265.5,-100.09"/>
</a>
</g>
<g id="a_edge5&#45;headlabel"><a xlink:href="dir_000019_000018.html" target="_top" xlink:title="1">
<text text-anchor="middle" x="268.34" y="-101.18" font-family="Helvetica,sans-Serif" font-size="10.00" fill="#63b8ff">1</text>
</a>
</g>
</g>
<!-- dir_257822c39d7713981832792fd8fcbda6 -->
<g id="node8" class="node">
<title>dir_257822c39d7713981832792fd8fcbda6</title>
<g id="a_node8"><a xlink:href="dir_257822c39d7713981832792fd8fcbda6.html" target="_top" xlink:title="nRF24">
<polygon fill="#a2b4d6" stroke="#404040" points="426.5,-145 379.5,-145 379.5,-126 426.5,-126 426.5,-145"/>
<text text-anchor="middle" x="403" y="-133" font-family="Helvetica,sans-Serif" font-size="10.00">nRF24</text>
</a>
</g>
</g>
<!-- dir_257822c39d7713981832792fd8fcbda6&#45;&gt;dir_2d35d80cfe3a61904819008d637ca9fb -->
<g id="edge6" class="edge">
<title>dir_257822c39d7713981832792fd8fcbda6&#45;&gt;dir_2d35d80cfe3a61904819008d637ca9fb</title>
<g id="a_edge6"><a xlink:href="dir_000023_000028.html" target="_top">
<path fill="none" stroke="#63b8ff" d="M395.23,-125.66C379.28,-107.54 342.67,-65.91 322.31,-42.77"/>
<polygon fill="#63b8ff" stroke="#63b8ff" points="324.85,-40.36 315.62,-35.16 319.59,-44.98 324.85,-40.36"/>
</a>
</g>
<g id="a_edge6&#45;headlabel"><a xlink:href="dir_000023_000028.html" target="_top" xlink:title="1">
<text text-anchor="middle" x="329.35" y="-38.68" font-family="Helvetica,sans-Serif" font-size="10.00" fill="#63b8ff">1</text>
</a>
</g>
</g>
<!-- dir_d731bbe0633000e492fca0b0a6406455 -->
<g id="node9" class="node">
<title>dir_d731bbe0633000e492fca0b0a6406455</title>
<g id="a_node9"><a xlink:href="dir_d731bbe0633000e492fca0b0a6406455.html" target="_top" xlink:title="RF69">
<polygon fill="#a2b4d6" stroke="#404040" points="214.5,-90 173.5,-90 173.5,-71 214.5,-71 214.5,-90"/>
<text text-anchor="middle" x="194" y="-78" font-family="Helvetica,sans-Serif" font-size="10.00">RF69</text>
</a>
</g>
</g>
<!-- dir_d731bbe0633000e492fca0b0a6406455&#45;&gt;dir_2d35d80cfe3a61904819008d637ca9fb -->
<g id="edge7" class="edge">
<title>dir_d731bbe0633000e492fca0b0a6406455&#45;&gt;dir_2d35d80cfe3a61904819008d637ca9fb</title>
<g id="a_edge7"><a xlink:href="dir_000031_000028.html" target="_top">
<path fill="none" stroke="#63b8ff" d="M210.72,-70.97C215.92,-68.37 221.68,-65.53 227,-63 244.03,-54.91 263.26,-46.22 278.71,-39.36"/>
<polygon fill="#63b8ff" stroke="#63b8ff" points="280.53,-42.38 288.26,-35.13 277.7,-35.98 280.53,-42.38"/>
</a>
</g>
<g id="a_edge7&#45;headlabel"><a xlink:href="dir_000031_000028.html" target="_top" xlink:title="1">
<text text-anchor="middle" x="278.39" y="-43.93" font-family="Helvetica,sans-Serif" font-size="10.00" fill="#63b8ff">1</text>
</a>
</g>
</g>
<!-- dir_4230fb6115dde52af3c9180968d4be53 -->
<g id="node10" class="node">
<title>dir_4230fb6115dde52af3c9180968d4be53</title>
<g id="a_node10"><a xlink:href="dir_4230fb6115dde52af3c9180968d4be53.html" target="_top" xlink:title="RFM2x">
<polygon fill="#a2b4d6" stroke="#404040" points="146,-145 96,-145 96,-126 146,-126 146,-145"/>
<text text-anchor="middle" x="121" y="-133" font-family="Helvetica,sans-Serif" font-size="10.00">RFM2x</text>
</a>
</g>
</g>
<!-- dir_219527e784c264aa29bd36ec5da11a33 -->
<g id="node11" class="node">
<title>dir_219527e784c264aa29bd36ec5da11a33</title>
<g id="a_node11"><a xlink:href="dir_219527e784c264aa29bd36ec5da11a33.html" target="_top" xlink:title="Si443x">
<polygon fill="#a2b4d6" stroke="#404040" points="154,-90 104,-90 104,-71 154,-71 154,-90"/>
<text text-anchor="middle" x="129" y="-78" font-family="Helvetica,sans-Serif" font-size="10.00">Si443x</text>
</a>
</g>
</g>
<!-- dir_4230fb6115dde52af3c9180968d4be53&#45;&gt;dir_219527e784c264aa29bd36ec5da11a33 -->
<g id="edge8" class="edge">
<title>dir_4230fb6115dde52af3c9180968d4be53&#45;&gt;dir_219527e784c264aa29bd36ec5da11a33</title>
<g id="a_edge8"><a xlink:href="dir_000032_000036.html" target="_top">
<path fill="none" stroke="#63b8ff" d="M122.32,-125.75C123.37,-118.8 124.87,-108.85 126.19,-100.13"/>
<polygon fill="#63b8ff" stroke="#63b8ff" points="129.67,-100.5 127.7,-90.09 122.75,-99.45 129.67,-100.5"/>
</a>
</g>
<g id="a_edge8&#45;headlabel"><a xlink:href="dir_000032_000036.html" target="_top" xlink:title="4">
<text text-anchor="middle" x="131.94" y="-101.98" font-family="Helvetica,sans-Serif" font-size="10.00" fill="#63b8ff">4</text>
</a>
</g>
</g>
<!-- dir_219527e784c264aa29bd36ec5da11a33&#45;&gt;dir_2d35d80cfe3a61904819008d637ca9fb -->
<g id="edge9" class="edge">
<title>dir_219527e784c264aa29bd36ec5da11a33&#45;&gt;dir_2d35d80cfe3a61904819008d637ca9fb</title>
<g id="a_edge9"><a xlink:href="dir_000036_000028.html" target="_top">
<path fill="none" stroke="#63b8ff" d="M145.95,-70.97C151.88,-68.19 158.65,-65.25 165,-63 198.56,-51.13 237.82,-41.4 266.7,-34.97"/>
<polygon fill="#63b8ff" stroke="#63b8ff" points="267.81,-38.31 276.84,-32.76 266.32,-31.47 267.81,-38.31"/>
</a>
</g>
<g id="a_edge9&#45;headlabel"><a xlink:href="dir_000036_000028.html" target="_top" xlink:title="1">
<text text-anchor="middle" x="264.91" y="-39.35" font-family="Helvetica,sans-Serif" font-size="10.00" fill="#63b8ff">1</text>
</a>
</g>
</g>
<!-- dir_fff55984f2d8f60bde00a79c36f19460 -->
<g id="node12" class="node">
<title>dir_fff55984f2d8f60bde00a79c36f19460</title>
<g id="a_node12"><a xlink:href="dir_fff55984f2d8f60bde00a79c36f19460.html" target="_top" xlink:title="SX123x">
<polygon fill="#a2b4d6" stroke="#404040" points="217.5,-145 164.5,-145 164.5,-126 217.5,-126 217.5,-145"/>
<text text-anchor="middle" x="191" y="-133" font-family="Helvetica,sans-Serif" font-size="10.00">SX123x</text>
</a>
</g>
</g>
<!-- dir_fff55984f2d8f60bde00a79c36f19460&#45;&gt;dir_d731bbe0633000e492fca0b0a6406455 -->
<g id="edge10" class="edge">
<title>dir_fff55984f2d8f60bde00a79c36f19460&#45;&gt;dir_d731bbe0633000e492fca0b0a6406455</title>
<g id="a_edge10"><a xlink:href="dir_000039_000031.html" target="_top">
<path fill="none" stroke="#63b8ff" d="M191.5,-125.75C191.89,-118.8 192.45,-108.85 192.95,-100.13"/>
<polygon fill="#63b8ff" stroke="#63b8ff" points="196.44,-100.27 193.51,-90.09 189.45,-99.88 196.44,-100.27"/>
</a>
</g>
<g id="a_edge10&#45;headlabel"><a xlink:href="dir_000039_000031.html" target="_top" xlink:title="2">
<text text-anchor="middle" x="199.07" y="-101.52" font-family="Helvetica,sans-Serif" font-size="10.00" fill="#63b8ff">2</text>
</a>
</g>
</g>
<!-- dir_d392f53bd9d6b82f057e690ed2691ea1&#45;&gt;dir_2d35d80cfe3a61904819008d637ca9fb -->
<g id="edge11" class="edge">
<title>dir_d392f53bd9d6b82f057e690ed2691ea1&#45;&gt;dir_2d35d80cfe3a61904819008d637ca9fb</title>
<g id="a_edge11"><a xlink:href="dir_000040_000028.html" target="_top">
<path fill="none" stroke="#63b8ff" d="M73.94,-70.89C80.45,-68.04 87.94,-65.07 95,-63 153.38,-45.9 223.24,-35.82 266.63,-30.73"/>
<polygon fill="#63b8ff" stroke="#63b8ff" points="267.27,-34.18 276.81,-29.57 266.47,-27.22 267.27,-34.18"/>
</a>
</g>
<g id="a_edge11&#45;headlabel"><a xlink:href="dir_000040_000028.html" target="_top" xlink:title="1">
<text text-anchor="middle" x="264.02" y="-34.9" font-family="Helvetica,sans-Serif" font-size="10.00" fill="#63b8ff">1</text>
</a>
</g>
</g>
<!-- dir_d392f53bd9d6b82f057e690ed2691ea1&#45;&gt;dir_8535b255390899b7744e59f6adfb9924 -->
<g id="edge12" class="edge">
<title>dir_d392f53bd9d6b82f057e690ed2691ea1&#45;&gt;dir_8535b255390899b7744e59f6adfb9924</title>
<g id="a_edge12"><a xlink:href="dir_000040_000044.html" target="_top">
<path fill="none" stroke="#63b8ff" d="M56,-70.75C56,-63.8 56,-53.85 56,-45.13"/>
<polygon fill="#63b8ff" stroke="#63b8ff" points="59.5,-45.09 56,-35.09 52.5,-45.09 59.5,-45.09"/>
</a>
</g>
<g id="a_edge12&#45;headlabel"><a xlink:href="dir_000040_000044.html" target="_top" xlink:title="2">
<text text-anchor="middle" x="62.34" y="-46.18" font-family="Helvetica,sans-Serif" font-size="10.00" fill="#63b8ff">2</text>
</a>
</g>
</g>
<!-- dir_4a1aefe5de9f7f0d2b7456baabe5067a -->
<g id="node14" class="node">
<title>dir_4a1aefe5de9f7f0d2b7456baabe5067a</title>
<g id="a_node14"><a xlink:href="dir_4a1aefe5de9f7f0d2b7456baabe5067a.html" target="_top" xlink:title="SX127x">
<polygon fill="#a2b4d6" stroke="#404040" points="497.5,-145 444.5,-145 444.5,-126 497.5,-126 497.5,-145"/>
<text text-anchor="middle" x="471" y="-133" font-family="Helvetica,sans-Serif" font-size="10.00">SX127x</text>
</a>
</g>
</g>
<!-- dir_4a1aefe5de9f7f0d2b7456baabe5067a&#45;&gt;dir_2d35d80cfe3a61904819008d637ca9fb -->
<g id="edge13" class="edge">
<title>dir_4a1aefe5de9f7f0d2b7456baabe5067a&#45;&gt;dir_2d35d80cfe3a61904819008d637ca9fb</title>
<g id="a_edge13"><a xlink:href="dir_000041_000028.html" target="_top">
<path fill="none" stroke="#63b8ff" d="M457.94,-125.84C429.92,-107.28 363.82,-63.49 329.51,-40.75"/>
<polygon fill="#63b8ff" stroke="#63b8ff" points="331.4,-37.8 321.13,-35.2 327.53,-43.64 331.4,-37.8"/>
</a>
</g>
<g id="a_edge13&#45;headlabel"><a xlink:href="dir_000041_000028.html" target="_top" xlink:title="1">
<text text-anchor="middle" x="335.96" y="-34.92" font-family="Helvetica,sans-Serif" font-size="10.00" fill="#63b8ff">1</text>
</a>
</g>
</g>
<!-- dir_117fe44df603dd5318bc826e14f9a615 -->
<g id="node15" class="node">
<title>dir_117fe44df603dd5318bc826e14f9a615</title>
<g id="a_node15"><a xlink:href="dir_117fe44df603dd5318bc826e14f9a615.html" target="_top" xlink:title="SX128x">
<polygon fill="#a2b4d6" stroke="#404040" points="568.5,-145 515.5,-145 515.5,-126 568.5,-126 568.5,-145"/>
<text text-anchor="middle" x="542" y="-133" font-family="Helvetica,sans-Serif" font-size="10.00">SX128x</text>
</a>
</g>
</g>
<!-- dir_117fe44df603dd5318bc826e14f9a615&#45;&gt;dir_2d35d80cfe3a61904819008d637ca9fb -->
<g id="edge14" class="edge">
<title>dir_117fe44df603dd5318bc826e14f9a615&#45;&gt;dir_2d35d80cfe3a61904819008d637ca9fb</title>
<g id="a_edge14"><a xlink:href="dir_000042_000028.html" target="_top">
<path fill="none" stroke="#63b8ff" d="M523.25,-125.84C482.15,-106.88 384,-61.58 335.75,-39.31"/>
<polygon fill="#63b8ff" stroke="#63b8ff" points="337.06,-36.06 326.52,-35.05 334.13,-42.42 337.06,-36.06"/>
</a>
</g>
<g id="a_edge14&#45;headlabel"><a xlink:href="dir_000042_000028.html" target="_top" xlink:title="1">
<text text-anchor="middle" x="341.52" y="-32.49" font-family="Helvetica,sans-Serif" font-size="10.00" fill="#63b8ff">1</text>
</a>
</g>
</g>
</g>
</svg>
