<?xml version="1.0" encoding="UTF-8" standalone="no"?>
<!DOCTYPE svg PUBLIC "-//W3C//DTD SVG 1.1//EN"
 "http://www.w3.org/Graphics/SVG/1.1/DTD/svg11.dtd">
<!-- Generated by graphviz version 2.43.0 (0)
 -->
<!-- Title: thirdparty/RadioLib/include/RadioLib/protocols Pages: 1 -->
<svg width="671pt" height="314pt"
 viewBox="0.00 0.00 671.00 314.00" xmlns="http://www.w3.org/2000/svg" xmlns:xlink="http://www.w3.org/1999/xlink">
<g id="graph0" class="graph" transform="scale(1 1) rotate(0) translate(4 310)">
<title>thirdparty/RadioLib/include/RadioLib/protocols</title>
<g id="clust1" class="cluster">
<title>clusterdir_d0a1dc4960e1d47e375e3c5d6e1c77f1</title>
<g id="a_clust1"><a xlink:href="dir_d0a1dc4960e1d47e375e3c5d6e1c77f1.html" target="_top" xlink:title="RadioLib">
<polygon fill="#edf0f7" stroke="#7f7f7f" stroke-dasharray="5,2" points="8,-8 8,-298 655,-298 655,-8 8,-8"/>
<text text-anchor="middle" x="331.5" y="-286" font-family="Helvetica,sans-Serif" font-size="10.00">RadioLib</text>
</a>
</g>
</g>
<g id="clust2" class="cluster">
<title>clusterdir_163606cfde595d82b017aa4b479a42c8</title>
<g id="a_clust2"><a xlink:href="dir_163606cfde595d82b017aa4b479a42c8.html" target="_top">
<polygon fill="#edf0f7" stroke="#404040" stroke-width="2" points="16,-16 16,-271 601,-271 601,-16 16,-16"/>
</a>
</g>
</g>
<!-- dir_17052dd408e5e1c4238389a790f78764 -->
<g id="node1" class="node">
<title>dir_17052dd408e5e1c4238389a790f78764</title>
<g id="a_node1"><a xlink:href="dir_17052dd408e5e1c4238389a790f78764.html" target="_top" xlink:title="utils">
<polygon fill="#a2b4d6" stroke="#404040" points="647,-43 609,-43 609,-24 647,-24 647,-43"/>
<text text-anchor="middle" x="628" y="-31" font-family="Helvetica,sans-Serif" font-size="10.00">utils</text>
</a>
</g>
</g>
<!-- dir_163606cfde595d82b017aa4b479a42c8 -->
<g id="node2" class="node">
<title>dir_163606cfde595d82b017aa4b479a42c8</title>
<text text-anchor="middle" x="553" y="-251" font-family="Helvetica,sans-Serif" font-size="10.00">protocols</text>
</g>
<!-- dir_2a85ef0062131e9add9bc7bfddf5bd7d -->
<g id="node3" class="node">
<title>dir_2a85ef0062131e9add9bc7bfddf5bd7d</title>
<g id="a_node3"><a xlink:href="dir_2a85ef0062131e9add9bc7bfddf5bd7d.html" target="_top" xlink:title="ADSB">
<polygon fill="#a2b4d6" stroke="#404040" points="88,-98 44,-98 44,-79 88,-79 88,-98"/>
<text text-anchor="middle" x="66" y="-86" font-family="Helvetica,sans-Serif" font-size="10.00">ADSB</text>
</a>
</g>
</g>
<!-- dir_4c37c7dee4ba953c0d56b440e9ccb8db -->
<g id="node14" class="node">
<title>dir_4c37c7dee4ba953c0d56b440e9ccb8db</title>
<g id="a_node14"><a xlink:href="dir_4c37c7dee4ba953c0d56b440e9ccb8db.html" target="_top" xlink:title="PhysicalLayer">
<polygon fill="#a2b4d6" stroke="#404040" points="410,-43 326,-43 326,-24 410,-24 410,-43"/>
<text text-anchor="middle" x="368" y="-31" font-family="Helvetica,sans-Serif" font-size="10.00">PhysicalLayer</text>
</a>
</g>
</g>
<!-- dir_2a85ef0062131e9add9bc7bfddf5bd7d&#45;&gt;dir_4c37c7dee4ba953c0d56b440e9ccb8db -->
<g id="edge1" class="edge">
<title>dir_2a85ef0062131e9add9bc7bfddf5bd7d&#45;&gt;dir_4c37c7dee4ba953c0d56b440e9ccb8db</title>
<g id="a_edge1"><a xlink:href="dir_000000_000030.html" target="_top">
<path fill="none" stroke="#63b8ff" d="M88.03,-82.05C92.64,-80.99 97.47,-79.91 102,-79 175.95,-64.1 262.18,-50.33 315.94,-42.17"/>
<polygon fill="#63b8ff" stroke="#63b8ff" points="316.55,-45.61 325.92,-40.66 315.51,-38.69 316.55,-45.61"/>
</a>
</g>
<g id="a_edge1&#45;headlabel"><a xlink:href="dir_000000_000030.html" target="_top" xlink:title="1">
<text text-anchor="middle" x="313.42" y="-46.46" font-family="Helvetica,sans-Serif" font-size="10.00" fill="#63b8ff">1</text>
</a>
</g>
</g>
<!-- dir_92625fbf9a833b55b0b0b03ab0a9c6c5 -->
<g id="node4" class="node">
<title>dir_92625fbf9a833b55b0b0b03ab0a9c6c5</title>
<g id="a_node4"><a xlink:href="dir_92625fbf9a833b55b0b0b03ab0a9c6c5.html" target="_top" xlink:title="AFSK">
<polygon fill="#a2b4d6" stroke="#404040" points="348.5,-98 307.5,-98 307.5,-79 348.5,-79 348.5,-98"/>
<text text-anchor="middle" x="328" y="-86" font-family="Helvetica,sans-Serif" font-size="10.00">AFSK</text>
</a>
</g>
</g>
<!-- dir_92625fbf9a833b55b0b0b03ab0a9c6c5&#45;&gt;dir_4c37c7dee4ba953c0d56b440e9ccb8db -->
<g id="edge2" class="edge">
<title>dir_92625fbf9a833b55b0b0b03ab0a9c6c5&#45;&gt;dir_4c37c7dee4ba953c0d56b440e9ccb8db</title>
<g id="a_edge2"><a xlink:href="dir_000001_000030.html" target="_top">
<path fill="none" stroke="#63b8ff" d="M334.61,-78.75C340.26,-71.26 348.54,-60.28 355.45,-51.13"/>
<polygon fill="#63b8ff" stroke="#63b8ff" points="358.29,-53.18 361.52,-43.09 352.7,-48.96 358.29,-53.18"/>
</a>
</g>
<g id="a_edge2&#45;headlabel"><a xlink:href="dir_000001_000030.html" target="_top" xlink:title="1">
<text text-anchor="middle" x="358.39" y="-55.26" font-family="Helvetica,sans-Serif" font-size="10.00" fill="#63b8ff">1</text>
</a>
</g>
</g>
<!-- dir_21b3105483dc6607c936b4fc277a9647 -->
<g id="node5" class="node">
<title>dir_21b3105483dc6607c936b4fc277a9647</title>
<g id="a_node5"><a xlink:href="dir_21b3105483dc6607c936b4fc277a9647.html" target="_top" xlink:title="APRS">
<polygon fill="#a2b4d6" stroke="#404040" points="488,-263 446,-263 446,-244 488,-244 488,-263"/>
<text text-anchor="middle" x="467" y="-251" font-family="Helvetica,sans-Serif" font-size="10.00">APRS</text>
</a>
</g>
</g>
<!-- dir_0bc81929e82b77d1ff7701d94457da7f -->
<g id="node6" class="node">
<title>dir_0bc81929e82b77d1ff7701d94457da7f</title>
<g id="a_node6"><a xlink:href="dir_0bc81929e82b77d1ff7701d94457da7f.html" target="_top" xlink:title="AX25">
<polygon fill="#a2b4d6" stroke="#404040" points="480,-208 438,-208 438,-189 480,-189 480,-208"/>
<text text-anchor="middle" x="459" y="-196" font-family="Helvetica,sans-Serif" font-size="10.00">AX25</text>
</a>
</g>
</g>
<!-- dir_21b3105483dc6607c936b4fc277a9647&#45;&gt;dir_0bc81929e82b77d1ff7701d94457da7f -->
<g id="edge3" class="edge">
<title>dir_21b3105483dc6607c936b4fc277a9647&#45;&gt;dir_0bc81929e82b77d1ff7701d94457da7f</title>
<g id="a_edge3"><a xlink:href="dir_000002_000004.html" target="_top">
<path fill="none" stroke="#63b8ff" d="M465.68,-243.75C464.63,-236.8 463.13,-226.85 461.81,-218.13"/>
<polygon fill="#63b8ff" stroke="#63b8ff" points="465.25,-217.45 460.3,-208.09 458.33,-218.5 465.25,-217.45"/>
</a>
</g>
<g id="a_edge3&#45;headlabel"><a xlink:href="dir_000002_000004.html" target="_top" xlink:title="1">
<text text-anchor="middle" x="468.59" y="-218.09" font-family="Helvetica,sans-Serif" font-size="10.00" fill="#63b8ff">1</text>
</a>
</g>
</g>
<!-- dir_21b3105483dc6607c936b4fc277a9647&#45;&gt;dir_4c37c7dee4ba953c0d56b440e9ccb8db -->
<g id="edge4" class="edge">
<title>dir_21b3105483dc6607c936b4fc277a9647&#45;&gt;dir_4c37c7dee4ba953c0d56b440e9ccb8db</title>
<g id="a_edge4"><a xlink:href="dir_000002_000030.html" target="_top">
<path fill="none" stroke="#63b8ff" d="M472.84,-243.76C478.25,-235.1 485.9,-221.26 489,-208 496.62,-175.41 489.05,-164.38 475,-134 462.43,-106.8 457.58,-99.79 436,-79 423.37,-66.83 406.97,-55.99 393.44,-48.05"/>
<polygon fill="#63b8ff" stroke="#63b8ff" points="395.04,-44.93 384.62,-43.04 391.58,-51.02 395.04,-44.93"/>
</a>
</g>
<g id="a_edge4&#45;headlabel"><a xlink:href="dir_000002_000030.html" target="_top" xlink:title="1">
<text text-anchor="middle" x="399.57" y="-41.74" font-family="Helvetica,sans-Serif" font-size="10.00" fill="#63b8ff">1</text>
</a>
</g>
</g>
<!-- dir_0bc81929e82b77d1ff7701d94457da7f&#45;&gt;dir_17052dd408e5e1c4238389a790f78764 -->
<g id="edge5" class="edge">
<title>dir_0bc81929e82b77d1ff7701d94457da7f&#45;&gt;dir_17052dd408e5e1c4238389a790f78764</title>
<g id="a_edge5"><a xlink:href="dir_000004_000049.html" target="_top">
<path fill="none" stroke="#63b8ff" d="M477.82,-188.86C507.91,-174.18 567,-141.66 602,-98 612.59,-84.78 619.44,-66.66 623.43,-53.16"/>
<polygon fill="#63b8ff" stroke="#63b8ff" points="626.92,-53.68 626.14,-43.11 620.16,-51.86 626.92,-53.68"/>
</a>
</g>
<g id="a_edge5&#45;headlabel"><a xlink:href="dir_000004_000049.html" target="_top" xlink:title="2">
<text text-anchor="middle" x="628.73" y="-55.38" font-family="Helvetica,sans-Serif" font-size="10.00" fill="#63b8ff">2</text>
</a>
</g>
</g>
<!-- dir_0bc81929e82b77d1ff7701d94457da7f&#45;&gt;dir_92625fbf9a833b55b0b0b03ab0a9c6c5 -->
<g id="edge8" class="edge">
<title>dir_0bc81929e82b77d1ff7701d94457da7f&#45;&gt;dir_92625fbf9a833b55b0b0b03ab0a9c6c5</title>
<g id="a_edge8"><a xlink:href="dir_000004_000001.html" target="_top">
<path fill="none" stroke="#63b8ff" d="M437.59,-194.18C413.18,-189.3 373.62,-177.93 350,-153 338.35,-140.7 332.84,-121.93 330.25,-107.98"/>
<polygon fill="#63b8ff" stroke="#63b8ff" points="333.7,-107.41 328.74,-98.05 326.78,-108.46 333.7,-107.41"/>
</a>
</g>
<g id="a_edge8&#45;headlabel"><a xlink:href="dir_000004_000001.html" target="_top" xlink:title="1">
<text text-anchor="middle" x="337.05" y="-108.03" font-family="Helvetica,sans-Serif" font-size="10.00" fill="#63b8ff">1</text>
</a>
</g>
</g>
<!-- dir_5f9702141d12b622cae33bcdd8491945 -->
<g id="node7" class="node">
<title>dir_5f9702141d12b622cae33bcdd8491945</title>
<g id="a_node7"><a xlink:href="dir_5f9702141d12b622cae33bcdd8491945.html" target="_top" xlink:title="BellModem">
<polygon fill="#a2b4d6" stroke="#404040" points="196,-153 124,-153 124,-134 196,-134 196,-153"/>
<text text-anchor="middle" x="160" y="-141" font-family="Helvetica,sans-Serif" font-size="10.00">BellModem</text>
</a>
</g>
</g>
<!-- dir_0bc81929e82b77d1ff7701d94457da7f&#45;&gt;dir_5f9702141d12b622cae33bcdd8491945 -->
<g id="edge7" class="edge">
<title>dir_0bc81929e82b77d1ff7701d94457da7f&#45;&gt;dir_5f9702141d12b622cae33bcdd8491945</title>
<g id="a_edge7"><a xlink:href="dir_000004_000005.html" target="_top">
<path fill="none" stroke="#63b8ff" d="M437.91,-193.9C395.89,-186.71 298.5,-169.95 206.39,-153.23"/>
<polygon fill="#63b8ff" stroke="#63b8ff" points="206.81,-149.75 196.34,-151.41 205.55,-156.64 206.81,-149.75"/>
</a>
</g>
<g id="a_edge7&#45;headlabel"><a xlink:href="dir_000004_000005.html" target="_top" xlink:title="1">
<text text-anchor="middle" x="210.85" y="-145.1" font-family="Helvetica,sans-Serif" font-size="10.00" fill="#63b8ff">1</text>
</a>
</g>
</g>
<!-- dir_0bc81929e82b77d1ff7701d94457da7f&#45;&gt;dir_4c37c7dee4ba953c0d56b440e9ccb8db -->
<g id="edge6" class="edge">
<title>dir_0bc81929e82b77d1ff7701d94457da7f&#45;&gt;dir_4c37c7dee4ba953c0d56b440e9ccb8db</title>
<g id="a_edge6"><a xlink:href="dir_000004_000030.html" target="_top">
<path fill="none" stroke="#63b8ff" d="M462.94,-188.93C468.12,-176.38 475.69,-152.51 468,-134 459.47,-113.49 412.84,-72.1 386.37,-49.71"/>
<polygon fill="#63b8ff" stroke="#63b8ff" points="388.47,-46.9 378.56,-43.16 383.97,-52.27 388.47,-46.9"/>
</a>
</g>
<g id="a_edge6&#45;headlabel"><a xlink:href="dir_000004_000030.html" target="_top" xlink:title="1">
<text text-anchor="middle" x="393.05" y="-44.54" font-family="Helvetica,sans-Serif" font-size="10.00" fill="#63b8ff">1</text>
</a>
</g>
</g>
<!-- dir_5f9702141d12b622cae33bcdd8491945&#45;&gt;dir_92625fbf9a833b55b0b0b03ab0a9c6c5 -->
<g id="edge11" class="edge">
<title>dir_5f9702141d12b622cae33bcdd8491945&#45;&gt;dir_92625fbf9a833b55b0b0b03ab0a9c6c5</title>
<g id="a_edge11"><a xlink:href="dir_000005_000001.html" target="_top">
<path fill="none" stroke="#63b8ff" d="M186.99,-133.98C217.29,-124.43 266.32,-108.96 297.85,-99.01"/>
<polygon fill="#63b8ff" stroke="#63b8ff" points="298.95,-102.34 307.43,-95.99 296.84,-95.66 298.95,-102.34"/>
</a>
</g>
<g id="a_edge11&#45;headlabel"><a xlink:href="dir_000005_000001.html" target="_top" xlink:title="1">
<text text-anchor="middle" x="296.37" y="-103.63" font-family="Helvetica,sans-Serif" font-size="10.00" fill="#63b8ff">1</text>
</a>
</g>
</g>
<!-- dir_5f9702141d12b622cae33bcdd8491945&#45;&gt;dir_4c37c7dee4ba953c0d56b440e9ccb8db -->
<g id="edge10" class="edge">
<title>dir_5f9702141d12b622cae33bcdd8491945&#45;&gt;dir_4c37c7dee4ba953c0d56b440e9ccb8db</title>
<g id="a_edge10"><a xlink:href="dir_000005_000030.html" target="_top">
<path fill="none" stroke="#63b8ff" d="M146.81,-133.89C129.12,-121.3 101.6,-97.37 117,-79 141.83,-49.38 249.61,-39.46 315.6,-36.15"/>
<polygon fill="#63b8ff" stroke="#63b8ff" points="315.99,-39.64 325.81,-35.68 315.66,-32.65 315.99,-39.64"/>
</a>
</g>
<g id="a_edge10&#45;headlabel"><a xlink:href="dir_000005_000030.html" target="_top" xlink:title="1">
<text text-anchor="middle" x="312.53" y="-40.14" font-family="Helvetica,sans-Serif" font-size="10.00" fill="#63b8ff">1</text>
</a>
</g>
</g>
<!-- dir_2264050d08ed65a236fd5020f11b18f7 -->
<g id="node15" class="node">
<title>dir_2264050d08ed65a236fd5020f11b18f7</title>
<g id="a_node15"><a xlink:href="dir_2264050d08ed65a236fd5020f11b18f7.html" target="_top" xlink:title="Print">
<polygon fill="#a2b4d6" stroke="#404040" points="268.5,-98 229.5,-98 229.5,-79 268.5,-79 268.5,-98"/>
<text text-anchor="middle" x="249" y="-86" font-family="Helvetica,sans-Serif" font-size="10.00">Print</text>
</a>
</g>
</g>
<!-- dir_5f9702141d12b622cae33bcdd8491945&#45;&gt;dir_2264050d08ed65a236fd5020f11b18f7 -->
<g id="edge9" class="edge">
<title>dir_5f9702141d12b622cae33bcdd8491945&#45;&gt;dir_2264050d08ed65a236fd5020f11b18f7</title>
<g id="a_edge9"><a xlink:href="dir_000005_000031.html" target="_top">
<path fill="none" stroke="#63b8ff" d="M174.3,-133.98C188.1,-125.77 209.24,-113.18 225.51,-103.49"/>
<polygon fill="#63b8ff" stroke="#63b8ff" points="227.64,-106.29 234.44,-98.17 224.06,-100.28 227.64,-106.29"/>
</a>
</g>
<g id="a_edge9&#45;headlabel"><a xlink:href="dir_000005_000031.html" target="_top" xlink:title="2">
<text text-anchor="middle" x="226" y="-108.07" font-family="Helvetica,sans-Serif" font-size="10.00" fill="#63b8ff">2</text>
</a>
</g>
</g>
<!-- dir_60ef20b18edb2ba79fbaf94377fb647f -->
<g id="node8" class="node">
<title>dir_60ef20b18edb2ba79fbaf94377fb647f</title>
<g id="a_node8"><a xlink:href="dir_60ef20b18edb2ba79fbaf94377fb647f.html" target="_top" xlink:title="ExternalRadio">
<polygon fill="#a2b4d6" stroke="#404040" points="211.5,-98 126.5,-98 126.5,-79 211.5,-79 211.5,-98"/>
<text text-anchor="middle" x="169" y="-86" font-family="Helvetica,sans-Serif" font-size="10.00">ExternalRadio</text>
</a>
</g>
</g>
<!-- dir_60ef20b18edb2ba79fbaf94377fb647f&#45;&gt;dir_4c37c7dee4ba953c0d56b440e9ccb8db -->
<g id="edge12" class="edge">
<title>dir_60ef20b18edb2ba79fbaf94377fb647f&#45;&gt;dir_4c37c7dee4ba953c0d56b440e9ccb8db</title>
<g id="a_edge12"><a xlink:href="dir_000007_000030.html" target="_top">
<path fill="none" stroke="#63b8ff" d="M200.97,-78.98C234.82,-69.97 288.4,-55.7 325.71,-45.76"/>
<polygon fill="#63b8ff" stroke="#63b8ff" points="327.01,-49.04 335.78,-43.08 325.21,-42.27 327.01,-49.04"/>
</a>
</g>
<g id="a_edge12&#45;headlabel"><a xlink:href="dir_000007_000030.html" target="_top" xlink:title="1">
<text text-anchor="middle" x="324.27" y="-50.21" font-family="Helvetica,sans-Serif" font-size="10.00" fill="#63b8ff">1</text>
</a>
</g>
</g>
<!-- dir_9e52e3781d3e10258c612837c43e0c18 -->
<g id="node9" class="node">
<title>dir_9e52e3781d3e10258c612837c43e0c18</title>
<g id="a_node9"><a xlink:href="dir_9e52e3781d3e10258c612837c43e0c18.html" target="_top" xlink:title="FSK4">
<polygon fill="#a2b4d6" stroke="#404040" points="400.5,-153 359.5,-153 359.5,-134 400.5,-134 400.5,-153"/>
<text text-anchor="middle" x="380" y="-141" font-family="Helvetica,sans-Serif" font-size="10.00">FSK4</text>
</a>
</g>
</g>
<!-- dir_9e52e3781d3e10258c612837c43e0c18&#45;&gt;dir_92625fbf9a833b55b0b0b03ab0a9c6c5 -->
<g id="edge14" class="edge">
<title>dir_9e52e3781d3e10258c612837c43e0c18&#45;&gt;dir_92625fbf9a833b55b0b0b03ab0a9c6c5</title>
<g id="a_edge14"><a xlink:href="dir_000009_000001.html" target="_top">
<path fill="none" stroke="#63b8ff" d="M371.41,-133.75C363.84,-126.03 352.62,-114.6 343.49,-105.28"/>
<polygon fill="#63b8ff" stroke="#63b8ff" points="345.93,-102.78 336.43,-98.09 340.93,-107.68 345.93,-102.78"/>
</a>
</g>
<g id="a_edge14&#45;headlabel"><a xlink:href="dir_000009_000001.html" target="_top" xlink:title="1">
<text text-anchor="middle" x="350.47" y="-100.85" font-family="Helvetica,sans-Serif" font-size="10.00" fill="#63b8ff">1</text>
</a>
</g>
</g>
<!-- dir_9e52e3781d3e10258c612837c43e0c18&#45;&gt;dir_4c37c7dee4ba953c0d56b440e9ccb8db -->
<g id="edge13" class="edge">
<title>dir_9e52e3781d3e10258c612837c43e0c18&#45;&gt;dir_4c37c7dee4ba953c0d56b440e9ccb8db</title>
<g id="a_edge13"><a xlink:href="dir_000009_000030.html" target="_top">
<path fill="none" stroke="#63b8ff" d="M379.05,-133.87C377.71,-121.66 375.18,-98.62 373,-79 372.05,-70.49 371,-61.07 370.1,-53.1"/>
<polygon fill="#63b8ff" stroke="#63b8ff" points="373.56,-52.58 368.96,-43.03 366.61,-53.36 373.56,-52.58"/>
</a>
</g>
<g id="a_edge13&#45;headlabel"><a xlink:href="dir_000009_000030.html" target="_top" xlink:title="1">
<text text-anchor="middle" x="376.79" y="-53.33" font-family="Helvetica,sans-Serif" font-size="10.00" fill="#63b8ff">1</text>
</a>
</g>
</g>
<!-- dir_938f67fda85e3e05d841acc6389c96a1 -->
<g id="node10" class="node">
<title>dir_938f67fda85e3e05d841acc6389c96a1</title>
<g id="a_node10"><a xlink:href="dir_938f67fda85e3e05d841acc6389c96a1.html" target="_top" xlink:title="Hellschreiber">
<polygon fill="#a2b4d6" stroke="#404040" points="105.5,-153 24.5,-153 24.5,-134 105.5,-134 105.5,-153"/>
<text text-anchor="middle" x="65" y="-141" font-family="Helvetica,sans-Serif" font-size="10.00">Hellschreiber</text>
</a>
</g>
</g>
<!-- dir_938f67fda85e3e05d841acc6389c96a1&#45;&gt;dir_92625fbf9a833b55b0b0b03ab0a9c6c5 -->
<g id="edge17" class="edge">
<title>dir_938f67fda85e3e05d841acc6389c96a1&#45;&gt;dir_92625fbf9a833b55b0b0b03ab0a9c6c5</title>
<g id="a_edge17"><a xlink:href="dir_000012_000001.html" target="_top">
<path fill="none" stroke="#63b8ff" d="M105.52,-134.33C158.43,-123.67 249.89,-105.24 297.39,-95.67"/>
<polygon fill="#63b8ff" stroke="#63b8ff" points="298.26,-99.06 307.37,-93.66 296.88,-92.2 298.26,-99.06"/>
</a>
</g>
<g id="a_edge17&#45;headlabel"><a xlink:href="dir_000012_000001.html" target="_top" xlink:title="1">
<text text-anchor="middle" x="295.3" y="-100.06" font-family="Helvetica,sans-Serif" font-size="10.00" fill="#63b8ff">1</text>
</a>
</g>
</g>
<!-- dir_938f67fda85e3e05d841acc6389c96a1&#45;&gt;dir_4c37c7dee4ba953c0d56b440e9ccb8db -->
<g id="edge16" class="edge">
<title>dir_938f67fda85e3e05d841acc6389c96a1&#45;&gt;dir_4c37c7dee4ba953c0d56b440e9ccb8db</title>
<g id="a_edge16"><a xlink:href="dir_000012_000030.html" target="_top">
<path fill="none" stroke="#63b8ff" d="M55.27,-133.84C41.71,-120.75 20.38,-95.7 35,-79 53.18,-58.23 226.48,-43.85 315.6,-37.76"/>
<polygon fill="#63b8ff" stroke="#63b8ff" points="316.04,-41.24 325.78,-37.08 315.57,-34.26 316.04,-41.24"/>
</a>
</g>
<g id="a_edge16&#45;headlabel"><a xlink:href="dir_000012_000030.html" target="_top" xlink:title="1">
<text text-anchor="middle" x="312.64" y="-41.82" font-family="Helvetica,sans-Serif" font-size="10.00" fill="#63b8ff">1</text>
</a>
</g>
</g>
<!-- dir_938f67fda85e3e05d841acc6389c96a1&#45;&gt;dir_2264050d08ed65a236fd5020f11b18f7 -->
<g id="edge15" class="edge">
<title>dir_938f67fda85e3e05d841acc6389c96a1&#45;&gt;dir_2264050d08ed65a236fd5020f11b18f7</title>
<g id="a_edge15"><a xlink:href="dir_000012_000031.html" target="_top">
<path fill="none" stroke="#63b8ff" d="M95.02,-133.94C124.3,-125.57 170.36,-112.38 219.49,-98.14"/>
<polygon fill="#63b8ff" stroke="#63b8ff" points="220.72,-101.42 229.35,-95.28 218.77,-94.7 220.72,-101.42"/>
</a>
</g>
<g id="a_edge15&#45;headlabel"><a xlink:href="dir_000012_000031.html" target="_top" xlink:title="1">
<text text-anchor="middle" x="218.06" y="-102.65" font-family="Helvetica,sans-Serif" font-size="10.00" fill="#63b8ff">1</text>
</a>
</g>
</g>
<!-- dir_94a9ae30a6f92ef46c88cc49336e8849 -->
<g id="node11" class="node">
<title>dir_94a9ae30a6f92ef46c88cc49336e8849</title>
<g id="a_node11"><a xlink:href="dir_94a9ae30a6f92ef46c88cc49336e8849.html" target="_top" xlink:title="LoRaWAN">
<polygon fill="#a2b4d6" stroke="#404040" points="593,-98 529,-98 529,-79 593,-79 593,-98"/>
<text text-anchor="middle" x="561" y="-86" font-family="Helvetica,sans-Serif" font-size="10.00">LoRaWAN</text>
</a>
</g>
</g>
<!-- dir_94a9ae30a6f92ef46c88cc49336e8849&#45;&gt;dir_17052dd408e5e1c4238389a790f78764 -->
<g id="edge18" class="edge">
<title>dir_94a9ae30a6f92ef46c88cc49336e8849&#45;&gt;dir_17052dd408e5e1c4238389a790f78764</title>
<g id="a_edge18"><a xlink:href="dir_000020_000049.html" target="_top">
<path fill="none" stroke="#63b8ff" d="M571.76,-78.98C581.77,-71.07 596.89,-59.11 608.93,-49.58"/>
<polygon fill="#63b8ff" stroke="#63b8ff" points="611.37,-52.12 617.04,-43.17 607.03,-46.63 611.37,-52.12"/>
</a>
</g>
<g id="a_edge18&#45;headlabel"><a xlink:href="dir_000020_000049.html" target="_top" xlink:title="1">
<text text-anchor="middle" x="610.31" y="-54.08" font-family="Helvetica,sans-Serif" font-size="10.00" fill="#63b8ff">1</text>
</a>
</g>
</g>
<!-- dir_94a9ae30a6f92ef46c88cc49336e8849&#45;&gt;dir_4c37c7dee4ba953c0d56b440e9ccb8db -->
<g id="edge19" class="edge">
<title>dir_94a9ae30a6f92ef46c88cc49336e8849&#45;&gt;dir_4c37c7dee4ba953c0d56b440e9ccb8db</title>
<g id="a_edge19"><a xlink:href="dir_000020_000030.html" target="_top">
<path fill="none" stroke="#63b8ff" d="M529.99,-78.98C497.17,-69.97 445.2,-55.7 409.01,-45.76"/>
<polygon fill="#63b8ff" stroke="#63b8ff" points="409.82,-42.36 399.25,-43.08 407.97,-49.11 409.82,-42.36"/>
</a>
</g>
<g id="a_edge19&#45;headlabel"><a xlink:href="dir_000020_000030.html" target="_top" xlink:title="1">
<text text-anchor="middle" x="414.04" y="-38.07" font-family="Helvetica,sans-Serif" font-size="10.00" fill="#63b8ff">1</text>
</a>
</g>
</g>
<!-- dir_c2fe2793443852dc6ea2ed289d6010c1 -->
<g id="node12" class="node">
<title>dir_c2fe2793443852dc6ea2ed289d6010c1</title>
<g id="a_node12"><a xlink:href="dir_c2fe2793443852dc6ea2ed289d6010c1.html" target="_top" xlink:title="Morse">
<polygon fill="#a2b4d6" stroke="#404040" points="320.5,-153 273.5,-153 273.5,-134 320.5,-134 320.5,-153"/>
<text text-anchor="middle" x="297" y="-141" font-family="Helvetica,sans-Serif" font-size="10.00">Morse</text>
</a>
</g>
</g>
<!-- dir_c2fe2793443852dc6ea2ed289d6010c1&#45;&gt;dir_92625fbf9a833b55b0b0b03ab0a9c6c5 -->
<g id="edge22" class="edge">
<title>dir_c2fe2793443852dc6ea2ed289d6010c1&#45;&gt;dir_92625fbf9a833b55b0b0b03ab0a9c6c5</title>
<g id="a_edge22"><a xlink:href="dir_000026_000001.html" target="_top">
<path fill="none" stroke="#63b8ff" d="M302.12,-133.75C306.36,-126.49 312.53,-115.95 317.78,-106.98"/>
<polygon fill="#63b8ff" stroke="#63b8ff" points="320.95,-108.49 322.98,-98.09 314.91,-104.95 320.95,-108.49"/>
</a>
</g>
<g id="a_edge22&#45;headlabel"><a xlink:href="dir_000026_000001.html" target="_top" xlink:title="1">
<text text-anchor="middle" x="321.58" y="-110.52" font-family="Helvetica,sans-Serif" font-size="10.00" fill="#63b8ff">1</text>
</a>
</g>
</g>
<!-- dir_c2fe2793443852dc6ea2ed289d6010c1&#45;&gt;dir_4c37c7dee4ba953c0d56b440e9ccb8db -->
<g id="edge21" class="edge">
<title>dir_c2fe2793443852dc6ea2ed289d6010c1&#45;&gt;dir_4c37c7dee4ba953c0d56b440e9ccb8db</title>
<g id="a_edge21"><a xlink:href="dir_000026_000030.html" target="_top">
<path fill="none" stroke="#63b8ff" d="M314.93,-134C328.7,-126.5 347,-114.23 357,-98 365.26,-84.59 367.76,-66.73 368.34,-53.36"/>
<polygon fill="#63b8ff" stroke="#63b8ff" points="371.84,-53.04 368.45,-43 364.85,-52.97 371.84,-53.04"/>
</a>
</g>
<g id="a_edge21&#45;headlabel"><a xlink:href="dir_000026_000030.html" target="_top" xlink:title="1">
<text text-anchor="middle" x="374.65" y="-54.17" font-family="Helvetica,sans-Serif" font-size="10.00" fill="#63b8ff">1</text>
</a>
</g>
</g>
<!-- dir_c2fe2793443852dc6ea2ed289d6010c1&#45;&gt;dir_2264050d08ed65a236fd5020f11b18f7 -->
<g id="edge20" class="edge">
<title>dir_c2fe2793443852dc6ea2ed289d6010c1&#45;&gt;dir_2264050d08ed65a236fd5020f11b18f7</title>
<g id="a_edge20"><a xlink:href="dir_000026_000031.html" target="_top">
<path fill="none" stroke="#63b8ff" d="M289.07,-133.75C282.15,-126.11 271.93,-114.82 263.55,-105.56"/>
<polygon fill="#63b8ff" stroke="#63b8ff" points="266.09,-103.15 256.78,-98.09 260.9,-107.85 266.09,-103.15"/>
</a>
</g>
<g id="a_edge20&#45;headlabel"><a xlink:href="dir_000026_000031.html" target="_top" xlink:title="1">
<text text-anchor="middle" x="270.6" y="-101.41" font-family="Helvetica,sans-Serif" font-size="10.00" fill="#63b8ff">1</text>
</a>
</g>
</g>
<!-- dir_6f073f1e28efb99e64dfe7cf3ddfa85e -->
<g id="node13" class="node">
<title>dir_6f073f1e28efb99e64dfe7cf3ddfa85e</title>
<g id="a_node13"><a xlink:href="dir_6f073f1e28efb99e64dfe7cf3ddfa85e.html" target="_top" xlink:title="Pager">
<polygon fill="#a2b4d6" stroke="#404040" points="511,-98 467,-98 467,-79 511,-79 511,-98"/>
<text text-anchor="middle" x="489" y="-86" font-family="Helvetica,sans-Serif" font-size="10.00">Pager</text>
</a>
</g>
</g>
<!-- dir_6f073f1e28efb99e64dfe7cf3ddfa85e&#45;&gt;dir_17052dd408e5e1c4238389a790f78764 -->
<g id="edge23" class="edge">
<title>dir_6f073f1e28efb99e64dfe7cf3ddfa85e&#45;&gt;dir_17052dd408e5e1c4238389a790f78764</title>
<g id="a_edge23"><a xlink:href="dir_000028_000049.html" target="_top">
<path fill="none" stroke="#63b8ff" d="M511.02,-79.1C534.92,-69.99 573.15,-55.41 599.36,-45.42"/>
<polygon fill="#63b8ff" stroke="#63b8ff" points="600.67,-48.67 608.76,-41.83 598.17,-42.13 600.67,-48.67"/>
</a>
</g>
<g id="a_edge23&#45;headlabel"><a xlink:href="dir_000028_000049.html" target="_top" xlink:title="1">
<text text-anchor="middle" x="598.32" y="-50.1" font-family="Helvetica,sans-Serif" font-size="10.00" fill="#63b8ff">1</text>
</a>
</g>
</g>
<!-- dir_6f073f1e28efb99e64dfe7cf3ddfa85e&#45;&gt;dir_4c37c7dee4ba953c0d56b440e9ccb8db -->
<g id="edge24" class="edge">
<title>dir_6f073f1e28efb99e64dfe7cf3ddfa85e&#45;&gt;dir_4c37c7dee4ba953c0d56b440e9ccb8db</title>
<g id="a_edge24"><a xlink:href="dir_000028_000030.html" target="_top">
<path fill="none" stroke="#63b8ff" d="M469.56,-78.98C450.01,-70.42 419.62,-57.11 397.18,-47.28"/>
<polygon fill="#63b8ff" stroke="#63b8ff" points="398.36,-43.98 387.79,-43.17 395.55,-50.39 398.36,-43.98"/>
</a>
</g>
<g id="a_edge24&#45;headlabel"><a xlink:href="dir_000028_000030.html" target="_top" xlink:title="1">
<text text-anchor="middle" x="402.79" y="-40.32" font-family="Helvetica,sans-Serif" font-size="10.00" fill="#63b8ff">1</text>
</a>
</g>
</g>
<!-- dir_f78146b3db6af38f0fe1d9c1a6ee319e -->
<g id="node16" class="node">
<title>dir_f78146b3db6af38f0fe1d9c1a6ee319e</title>
<g id="a_node16"><a xlink:href="dir_f78146b3db6af38f0fe1d9c1a6ee319e.html" target="_top" xlink:title="RTTY">
<polygon fill="#a2b4d6" stroke="#404040" points="255.5,-153 214.5,-153 214.5,-134 255.5,-134 255.5,-153"/>
<text text-anchor="middle" x="235" y="-141" font-family="Helvetica,sans-Serif" font-size="10.00">RTTY</text>
</a>
</g>
</g>
<!-- dir_f78146b3db6af38f0fe1d9c1a6ee319e&#45;&gt;dir_92625fbf9a833b55b0b0b03ab0a9c6c5 -->
<g id="edge27" class="edge">
<title>dir_f78146b3db6af38f0fe1d9c1a6ee319e&#45;&gt;dir_92625fbf9a833b55b0b0b03ab0a9c6c5</title>
<g id="a_edge27"><a xlink:href="dir_000039_000001.html" target="_top">
<path fill="none" stroke="#63b8ff" d="M249.94,-133.98C264.5,-125.69 286.87,-112.94 303.93,-103.22"/>
<polygon fill="#63b8ff" stroke="#63b8ff" points="305.83,-106.16 312.79,-98.17 302.36,-100.08 305.83,-106.16"/>
</a>
</g>
<g id="a_edge27&#45;headlabel"><a xlink:href="dir_000039_000001.html" target="_top" xlink:title="1">
<text text-anchor="middle" x="304.11" y="-107.91" font-family="Helvetica,sans-Serif" font-size="10.00" fill="#63b8ff">1</text>
</a>
</g>
</g>
<!-- dir_f78146b3db6af38f0fe1d9c1a6ee319e&#45;&gt;dir_4c37c7dee4ba953c0d56b440e9ccb8db -->
<g id="edge26" class="edge">
<title>dir_f78146b3db6af38f0fe1d9c1a6ee319e&#45;&gt;dir_4c37c7dee4ba953c0d56b440e9ccb8db</title>
<g id="a_edge26"><a xlink:href="dir_000039_000030.html" target="_top">
<path fill="none" stroke="#63b8ff" d="M243.11,-133.86C257.37,-118.75 286.51,-88.25 298,-79 312.22,-67.55 329.52,-56.53 343.36,-48.32"/>
<polygon fill="#63b8ff" stroke="#63b8ff" points="345.43,-51.17 352.31,-43.12 341.91,-45.12 345.43,-51.17"/>
</a>
</g>
<g id="a_edge26&#45;headlabel"><a xlink:href="dir_000039_000030.html" target="_top" xlink:title="1">
<text text-anchor="middle" x="343.75" y="-52.93" font-family="Helvetica,sans-Serif" font-size="10.00" fill="#63b8ff">1</text>
</a>
</g>
</g>
<!-- dir_f78146b3db6af38f0fe1d9c1a6ee319e&#45;&gt;dir_2264050d08ed65a236fd5020f11b18f7 -->
<g id="edge25" class="edge">
<title>dir_f78146b3db6af38f0fe1d9c1a6ee319e&#45;&gt;dir_2264050d08ed65a236fd5020f11b18f7</title>
<g id="a_edge25"><a xlink:href="dir_000039_000031.html" target="_top">
<path fill="none" stroke="#63b8ff" d="M237.31,-133.75C239.17,-126.72 241.84,-116.62 244.15,-107.84"/>
<polygon fill="#63b8ff" stroke="#63b8ff" points="247.56,-108.65 246.73,-98.09 240.79,-106.86 247.56,-108.65"/>
</a>
</g>
<g id="a_edge25&#45;headlabel"><a xlink:href="dir_000039_000031.html" target="_top" xlink:title="2">
<text text-anchor="middle" x="249.39" y="-110.35" font-family="Helvetica,sans-Serif" font-size="10.00" fill="#63b8ff">2</text>
</a>
</g>
</g>
<!-- dir_d14dd4a78ec191c57cac994788ca4d38 -->
<g id="node17" class="node">
<title>dir_d14dd4a78ec191c57cac994788ca4d38</title>
<g id="a_node17"><a xlink:href="dir_d14dd4a78ec191c57cac994788ca4d38.html" target="_top" xlink:title="SSTV">
<polygon fill="#a2b4d6" stroke="#404040" points="459.5,-153 418.5,-153 418.5,-134 459.5,-134 459.5,-153"/>
<text text-anchor="middle" x="439" y="-141" font-family="Helvetica,sans-Serif" font-size="10.00">SSTV</text>
</a>
</g>
</g>
<!-- dir_d14dd4a78ec191c57cac994788ca4d38&#45;&gt;dir_92625fbf9a833b55b0b0b03ab0a9c6c5 -->
<g id="edge29" class="edge">
<title>dir_d14dd4a78ec191c57cac994788ca4d38&#45;&gt;dir_92625fbf9a833b55b0b0b03ab0a9c6c5</title>
<g id="a_edge29"><a xlink:href="dir_000042_000001.html" target="_top">
<path fill="none" stroke="#63b8ff" d="M421.17,-133.98C403.39,-125.5 375.85,-112.35 355.32,-102.54"/>
<polygon fill="#63b8ff" stroke="#63b8ff" points="356.69,-99.32 346.16,-98.17 353.67,-105.64 356.69,-99.32"/>
</a>
</g>
<g id="a_edge29&#45;headlabel"><a xlink:href="dir_000042_000001.html" target="_top" xlink:title="1">
<text text-anchor="middle" x="361.16" y="-95.81" font-family="Helvetica,sans-Serif" font-size="10.00" fill="#63b8ff">1</text>
</a>
</g>
</g>
<!-- dir_d14dd4a78ec191c57cac994788ca4d38&#45;&gt;dir_4c37c7dee4ba953c0d56b440e9ccb8db -->
<g id="edge28" class="edge">
<title>dir_d14dd4a78ec191c57cac994788ca4d38&#45;&gt;dir_4c37c7dee4ba953c0d56b440e9ccb8db</title>
<g id="a_edge28"><a xlink:href="dir_000042_000030.html" target="_top">
<path fill="none" stroke="#63b8ff" d="M433.19,-133.66C421.43,-115.77 394.63,-75 379.3,-51.69"/>
<polygon fill="#63b8ff" stroke="#63b8ff" points="382.11,-49.59 373.69,-43.16 376.26,-53.44 382.11,-49.59"/>
</a>
</g>
<g id="a_edge28&#45;headlabel"><a xlink:href="dir_000042_000030.html" target="_top" xlink:title="1">
<text text-anchor="middle" x="386.46" y="-48.54" font-family="Helvetica,sans-Serif" font-size="10.00" fill="#63b8ff">1</text>
</a>
</g>
</g>
</g>
</svg>
