<?xml version="1.0" encoding="UTF-8" standalone="no"?>
<!DOCTYPE svg PUBLIC "-//W3C//DTD SVG 1.1//EN"
 "http://www.w3.org/Graphics/SVG/1.1/DTD/svg11.dtd">
<!-- Generated by graphviz version 2.43.0 (0)
 -->
<!-- Title: thirdparty/RadioLib/include/RadioLib Pages: 1 -->
<svg width="166pt" height="259pt"
 viewBox="0.00 0.00 166.00 259.00" xmlns="http://www.w3.org/2000/svg" xmlns:xlink="http://www.w3.org/1999/xlink">
<g id="graph0" class="graph" transform="scale(1 1) rotate(0) translate(4 255)">
<title>thirdparty/RadioLib/include/RadioLib</title>
<g id="clust1" class="cluster">
<title>clusterdir_72c9057e2771e41b3ae87d7b71173ec4</title>
<g id="a_clust1"><a xlink:href="dir_72c9057e2771e41b3ae87d7b71173ec4.html" target="_top" xlink:title="include">
<polygon fill="#edf0f7" stroke="#7f7f7f" stroke-dasharray="5,2" points="8,-8 8,-243 150,-243 150,-8 8,-8"/>
<text text-anchor="middle" x="79" y="-231" font-family="Helvetica,sans-Serif" font-size="10.00">include</text>
</a>
</g>
</g>
<g id="clust2" class="cluster">
<title>clusterdir_ee4192a436a8211ee8510476a7e00e68</title>
<g id="a_clust2"><a xlink:href="dir_ee4192a436a8211ee8510476a7e00e68.html" target="_top">
<polygon fill="#edf0f7" stroke="#404040" stroke-width="2" points="16,-16 16,-216 142,-216 142,-16 16,-16"/>
</a>
</g>
</g>
<!-- dir_ee4192a436a8211ee8510476a7e00e68 -->
<g id="node1" class="node">
<title>dir_ee4192a436a8211ee8510476a7e00e68</title>
<text text-anchor="middle" x="104" y="-196" font-family="Helvetica,sans-Serif" font-size="10.00">RadioLib</text>
</g>
<!-- dir_01813b3f8ae2078c006f3355d9c2288e -->
<g id="node3" class="node">
<title>dir_01813b3f8ae2078c006f3355d9c2288e</title>
<g id="a_node3"><a xlink:href="dir_01813b3f8ae2078c006f3355d9c2288e.html" target="_top" xlink:title="modules">
<polygon fill="#a2b4d6" stroke="#404040" points="84.5,-153 25.5,-153 25.5,-134 84.5,-134 84.5,-153"/>
<text text-anchor="middle" x="55" y="-141" font-family="Helvetica,sans-Serif" font-size="10.00">modules</text>
</a>
</g>
</g>
<!-- dir_ee4192a436a8211ee8510476a7e00e68&#45;&gt;dir_01813b3f8ae2078c006f3355d9c2288e -->
<g id="edge1" class="edge">
<title>dir_ee4192a436a8211ee8510476a7e00e68&#45;&gt;dir_01813b3f8ae2078c006f3355d9c2288e</title>
<g id="a_edge1"><a xlink:href="dir_000030_000020.html" target="_top">
<path fill="none" stroke="#63b8ff" d="M95.91,-188.75C88.84,-181.11 78.41,-169.82 69.85,-160.56"/>
<polygon fill="#63b8ff" stroke="#63b8ff" points="72.3,-158.06 62.94,-153.09 67.16,-162.81 72.3,-158.06"/>
</a>
</g>
<g id="a_edge1&#45;headlabel"><a xlink:href="dir_000030_000020.html" target="_top" xlink:title="37">
<text text-anchor="middle" x="76.82" y="-156.27" font-family="Helvetica,sans-Serif" font-size="10.00" fill="#63b8ff">37</text>
</a>
</g>
</g>
<!-- dir_2d35d80cfe3a61904819008d637ca9fb -->
<g id="node4" class="node">
<title>dir_2d35d80cfe3a61904819008d637ca9fb</title>
<g id="a_node4"><a xlink:href="dir_2d35d80cfe3a61904819008d637ca9fb.html" target="_top" xlink:title="protocols">
<polygon fill="#a2b4d6" stroke="#404040" points="110,-98 48,-98 48,-79 110,-79 110,-98"/>
<text text-anchor="middle" x="79" y="-86" font-family="Helvetica,sans-Serif" font-size="10.00">protocols</text>
</a>
</g>
</g>
<!-- dir_ee4192a436a8211ee8510476a7e00e68&#45;&gt;dir_2d35d80cfe3a61904819008d637ca9fb -->
<g id="edge2" class="edge">
<title>dir_ee4192a436a8211ee8510476a7e00e68&#45;&gt;dir_2d35d80cfe3a61904819008d637ca9fb</title>
<g id="a_edge2"><a xlink:href="dir_000030_000028.html" target="_top">
<path fill="none" stroke="#63b8ff" d="M102.87,-188.8C101.18,-176.49 97.7,-153.35 93,-134 90.9,-125.34 88.02,-115.91 85.42,-107.96"/>
<polygon fill="#63b8ff" stroke="#63b8ff" points="88.66,-106.62 82.14,-98.27 82.02,-108.86 88.66,-106.62"/>
</a>
</g>
<g id="a_edge2&#45;headlabel"><a xlink:href="dir_000030_000028.html" target="_top" xlink:title="53">
<text text-anchor="middle" x="92.5" y="-106.62" font-family="Helvetica,sans-Serif" font-size="10.00" fill="#63b8ff">53</text>
</a>
</g>
</g>
<!-- dir_8535b255390899b7744e59f6adfb9924 -->
<g id="node5" class="node">
<title>dir_8535b255390899b7744e59f6adfb9924</title>
<g id="a_node5"><a xlink:href="dir_8535b255390899b7744e59f6adfb9924.html" target="_top" xlink:title="utils">
<polygon fill="#a2b4d6" stroke="#404040" points="98,-43 60,-43 60,-24 98,-24 98,-43"/>
<text text-anchor="middle" x="79" y="-31" font-family="Helvetica,sans-Serif" font-size="10.00">utils</text>
</a>
</g>
</g>
<!-- dir_ee4192a436a8211ee8510476a7e00e68&#45;&gt;dir_8535b255390899b7744e59f6adfb9924 -->
<g id="edge3" class="edge">
<title>dir_ee4192a436a8211ee8510476a7e00e68&#45;&gt;dir_8535b255390899b7744e59f6adfb9924</title>
<g id="a_edge3"><a xlink:href="dir_000030_000044.html" target="_top">
<path fill="none" stroke="#63b8ff" d="M107.85,-188.83C116.16,-168.77 133.92,-117.92 119,-79 114.76,-67.94 106.36,-57.91 98.36,-50.18"/>
<polygon fill="#63b8ff" stroke="#63b8ff" points="100.42,-47.33 90.64,-43.27 95.75,-52.55 100.42,-47.33"/>
</a>
</g>
<g id="a_edge3&#45;headlabel"><a xlink:href="dir_000030_000044.html" target="_top" xlink:title="9">
<text text-anchor="middle" x="105" y="-45.12" font-family="Helvetica,sans-Serif" font-size="10.00" fill="#63b8ff">9</text>
</a>
</g>
</g>
<!-- dir_0ce8d25d006d829b4fb9cd583bb1a4ad -->
<g id="node2" class="node">
<title>dir_0ce8d25d006d829b4fb9cd583bb1a4ad</title>
<g id="a_node2"><a xlink:href="dir_0ce8d25d006d829b4fb9cd583bb1a4ad.html" target="_top" xlink:title="hal">
<polygon fill="#a2b4d6" stroke="#404040" points="56,-208 24,-208 24,-189 56,-189 56,-208"/>
<text text-anchor="middle" x="40" y="-196" font-family="Helvetica,sans-Serif" font-size="10.00">hal</text>
</a>
</g>
</g>
<!-- dir_01813b3f8ae2078c006f3355d9c2288e&#45;&gt;dir_2d35d80cfe3a61904819008d637ca9fb -->
<g id="edge4" class="edge">
<title>dir_01813b3f8ae2078c006f3355d9c2288e&#45;&gt;dir_2d35d80cfe3a61904819008d637ca9fb</title>
<g id="a_edge4"><a xlink:href="dir_000020_000028.html" target="_top">
<path fill="none" stroke="#63b8ff" d="M58.96,-133.75C62.21,-126.57 66.92,-116.18 70.95,-107.27"/>
<polygon fill="#63b8ff" stroke="#63b8ff" points="74.17,-108.64 75.11,-98.09 67.8,-105.75 74.17,-108.64"/>
</a>
</g>
<g id="a_edge4&#45;headlabel"><a xlink:href="dir_000020_000028.html" target="_top" xlink:title="9">
<text text-anchor="middle" x="75.28" y="-110.59" font-family="Helvetica,sans-Serif" font-size="10.00" fill="#63b8ff">9</text>
</a>
</g>
</g>
<!-- dir_01813b3f8ae2078c006f3355d9c2288e&#45;&gt;dir_8535b255390899b7744e59f6adfb9924 -->
<g id="edge5" class="edge">
<title>dir_01813b3f8ae2078c006f3355d9c2288e&#45;&gt;dir_8535b255390899b7744e59f6adfb9924</title>
<g id="a_edge5"><a xlink:href="dir_000020_000044.html" target="_top">
<path fill="none" stroke="#63b8ff" d="M49.43,-133.67C42.32,-121.21 31.76,-97.9 39,-79 43.24,-67.94 51.64,-57.91 59.64,-50.18"/>
<polygon fill="#63b8ff" stroke="#63b8ff" points="62.25,-52.55 67.36,-43.27 57.58,-47.33 62.25,-52.55"/>
</a>
</g>
<g id="a_edge5&#45;headlabel"><a xlink:href="dir_000020_000044.html" target="_top" xlink:title="2">
<text text-anchor="middle" x="61.47" y="-54.56" font-family="Helvetica,sans-Serif" font-size="10.00" fill="#63b8ff">2</text>
</a>
</g>
</g>
<!-- dir_2d35d80cfe3a61904819008d637ca9fb&#45;&gt;dir_8535b255390899b7744e59f6adfb9924 -->
<g id="edge6" class="edge">
<title>dir_2d35d80cfe3a61904819008d637ca9fb&#45;&gt;dir_8535b255390899b7744e59f6adfb9924</title>
<g id="a_edge6"><a xlink:href="dir_000028_000044.html" target="_top">
<path fill="none" stroke="#63b8ff" d="M79,-78.75C79,-71.8 79,-61.85 79,-53.13"/>
<polygon fill="#63b8ff" stroke="#63b8ff" points="82.5,-53.09 79,-43.09 75.5,-53.09 82.5,-53.09"/>
</a>
</g>
<g id="a_edge6&#45;headlabel"><a xlink:href="dir_000028_000044.html" target="_top" xlink:title="4">
<text text-anchor="middle" x="85.34" y="-54.18" font-family="Helvetica,sans-Serif" font-size="10.00" fill="#63b8ff">4</text>
</a>
</g>
</g>
</g>
</svg>
