<?xml version="1.0" encoding="UTF-8" standalone="no"?>
<!DOCTYPE svg PUBLIC "-//W3C//DTD SVG 1.1//EN"
 "http://www.w3.org/Graphics/SVG/1.1/DTD/svg11.dtd">
<!-- Generated by graphviz version 2.43.0 (0)
 -->
<!-- Title: /usr/include/GraphicsMagick/wand/drawing_wand.h Pages: 1 -->
<svg width="325pt" height="225pt"
 viewBox="0.00 0.00 325.00 225.00" xmlns="http://www.w3.org/2000/svg" xmlns:xlink="http://www.w3.org/1999/xlink">
<g id="graph0" class="graph" transform="scale(1 1) rotate(0) translate(4 221)">
<title>/usr/include/GraphicsMagick/wand/drawing_wand.h</title>
<!-- Node1 -->
<g id="Node000001" class="node">
<title>Node1</title>
<g id="a_Node000001"><a xlink:title=" ">
<polygon fill="#999999" stroke="#666666" points="229,-217 75,-217 75,-187 229,-187 229,-217"/>
<text text-anchor="start" x="83" y="-205" font-family="Helvetica,sans-Serif" font-size="10.00">/usr/include/GraphicsMagick</text>
<text text-anchor="middle" x="152" y="-194" font-family="Helvetica,sans-Serif" font-size="10.00">/wand/drawing_wand.h</text>
</a>
</g>
</g>
<!-- Node2 -->
<g id="Node000002" class="node">
<title>Node2</title>
<g id="a_Node000002"><a xlink:href="magick__wand_8h.html" target="_top" xlink:title=" ">
<polygon fill="white" stroke="#666666" points="294,-151 140,-151 140,-121 294,-121 294,-151"/>
<text text-anchor="start" x="148" y="-139" font-family="Helvetica,sans-Serif" font-size="10.00">/usr/include/GraphicsMagick</text>
<text text-anchor="middle" x="217" y="-128" font-family="Helvetica,sans-Serif" font-size="10.00">/wand/magick_wand.h</text>
</a>
</g>
</g>
<!-- Node1&#45;&gt;Node2 -->
<g id="edge1_Node000001_Node000002" class="edge">
<title>Node1&#45;&gt;Node2</title>
<g id="a_edge1_Node000001_Node000002"><a xlink:title=" ">
<path fill="none" stroke="#63b8ff" d="M173.69,-179.65C183.21,-170.27 194.12,-159.53 202.61,-151.16"/>
<polygon fill="#63b8ff" stroke="#63b8ff" points="171.1,-177.29 166.43,-186.8 176.01,-182.27 171.1,-177.29"/>
</a>
</g>
</g>
<!-- Node3 -->
<g id="Node000003" class="node">
<title>Node3</title>
<g id="a_Node000003"><a xlink:href="wand__api_8h.html" target="_top" xlink:title=" ">
<polygon fill="white" stroke="#666666" points="154,-85 0,-85 0,-55 154,-55 154,-85"/>
<text text-anchor="start" x="8" y="-73" font-family="Helvetica,sans-Serif" font-size="10.00">/usr/include/GraphicsMagick</text>
<text text-anchor="middle" x="77" y="-62" font-family="Helvetica,sans-Serif" font-size="10.00">/wand/wand_api.h</text>
</a>
</g>
</g>
<!-- Node1&#45;&gt;Node3 -->
<g id="edge6_Node000001_Node000003" class="edge">
<title>Node1&#45;&gt;Node3</title>
<g id="a_edge6_Node000001_Node000003"><a xlink:title=" ">
<path fill="none" stroke="#63b8ff" d="M138.79,-178.1C123.28,-151.23 98.06,-107.5 85.16,-85.14"/>
<polygon fill="#63b8ff" stroke="#63b8ff" points="135.8,-179.93 143.83,-186.84 141.87,-176.43 135.8,-179.93"/>
</a>
</g>
</g>
<!-- Node2&#45;&gt;Node3 -->
<g id="edge2_Node000002_Node000003" class="edge">
<title>Node2&#45;&gt;Node3</title>
<g id="a_edge2_Node000002_Node000003"><a xlink:title=" ">
<path fill="none" stroke="#63b8ff" d="M177.15,-116.78C155.08,-106.69 128.06,-94.34 107.65,-85.01"/>
<polygon fill="#63b8ff" stroke="#63b8ff" points="175.73,-119.98 186.28,-120.95 178.64,-113.61 175.73,-119.98"/>
</a>
</g>
</g>
<!-- Node4 -->
<g id="Node000004" class="node">
<title>Node4</title>
<g id="a_Node000004"><a xlink:href="chronos_8hpp.html" target="_top" xlink:title=" ">
<polygon fill="white" stroke="#666666" points="286,-79.5 172,-79.5 172,-60.5 286,-60.5 286,-79.5"/>
<text text-anchor="middle" x="229" y="-67.5" font-family="Helvetica,sans-Serif" font-size="10.00">include/chronos.hpp</text>
</a>
</g>
</g>
<!-- Node2&#45;&gt;Node4 -->
<g id="edge3_Node000002_Node000004" class="edge">
<title>Node2&#45;&gt;Node4</title>
<g id="a_edge3_Node000002_Node000004"><a xlink:title=" ">
<path fill="none" stroke="#63b8ff" d="M221.51,-110.94C223.55,-100.06 225.84,-87.86 227.34,-79.84"/>
<polygon fill="#63b8ff" stroke="#63b8ff" points="218.07,-110.32 219.66,-120.8 224.95,-111.61 218.07,-110.32"/>
</a>
</g>
</g>
<!-- Node5 -->
<g id="Node000005" class="node">
<title>Node5</title>
<g id="a_Node000005"><a xlink:href="chronos_8cpp.html" target="_top" xlink:title=" ">
<polygon fill="white" stroke="#666666" points="317,-19 225,-19 225,0 317,0 317,-19"/>
<text text-anchor="middle" x="271" y="-7" font-family="Helvetica,sans-Serif" font-size="10.00">src/chronos.cpp</text>
</a>
</g>
</g>
<!-- Node2&#45;&gt;Node5 -->
<g id="edge5_Node000002_Node000005" class="edge">
<title>Node2&#45;&gt;Node5</title>
<g id="a_edge5_Node000002_Node000005"><a xlink:title=" ">
<path fill="none" stroke="#63b8ff" d="M262.69,-116.07C275.45,-108.41 287.79,-98.19 295,-85 307.13,-62.82 288.96,-33.54 278.12,-19.19"/>
<polygon fill="#63b8ff" stroke="#63b8ff" points="260.89,-113.07 253.84,-120.98 264.29,-119.19 260.89,-113.07"/>
</a>
</g>
</g>
<!-- Node4&#45;&gt;Node5 -->
<g id="edge4_Node000004_Node000005" class="edge">
<title>Node4&#45;&gt;Node5</title>
<g id="a_edge4_Node000004_Node000005"><a xlink:title=" ">
<path fill="none" stroke="#63b8ff" d="M241.11,-52.13C248.85,-41.35 258.56,-27.82 264.78,-19.17"/>
<polygon fill="#63b8ff" stroke="#63b8ff" points="238.19,-50.2 235.2,-60.37 243.87,-54.29 238.19,-50.2"/>
</a>
</g>
</g>
</g>
</svg>
