<?xml version="1.0" encoding="UTF-8" standalone="no"?>
<!DOCTYPE svg PUBLIC "-//W3C//DTD SVG 1.1//EN"
 "http://www.w3.org/Graphics/SVG/1.1/DTD/svg11.dtd">
<!-- Generated by graphviz version 2.43.0 (0)
 -->
<!-- Title: CatchException Pages: 1 -->
<svg width="445pt" height="27pt"
 viewBox="0.00 0.00 445.00 27.00" xmlns="http://www.w3.org/2000/svg" xmlns:xlink="http://www.w3.org/1999/xlink">
<g id="graph0" class="graph" transform="scale(1 1) rotate(0) translate(4 23)">
<title>CatchException</title>
<!-- Node1 -->
<g id="Node000001" class="node">
<title>Node1</title>
<g id="a_Node000001"><a xlink:title=" ">
<polygon fill="#999999" stroke="#666666" points="437,-19 345,-19 345,0 437,0 437,-19"/>
<text text-anchor="middle" x="391" y="-7" font-family="Helvetica,sans-Serif" font-size="10.00">CatchException</text>
</a>
</g>
</g>
<!-- Node2 -->
<g id="Node000002" class="node">
<title>Node2</title>
<g id="a_Node000002"><a xlink:href="chronos_8cpp.html#a8c442ee2efdfad19f622ad860721ab3f" target="_top" xlink:title="Process the Image in GraphicsMagick context.">
<polygon fill="white" stroke="#666666" points="309,-19 175,-19 175,0 309,0 309,-19"/>
<text text-anchor="middle" x="242" y="-7" font-family="Helvetica,sans-Serif" font-size="10.00">chronos_process_image</text>
</a>
</g>
</g>
<!-- Node1&#45;&gt;Node2 -->
<g id="edge1_Node000001_Node000002" class="edge">
<title>Node1&#45;&gt;Node2</title>
<g id="a_edge1_Node000001_Node000002"><a xlink:title=" ">
<path fill="none" stroke="#63b8ff" d="M334.46,-9.5C326.22,-9.5 317.66,-9.5 309.23,-9.5"/>
<polygon fill="#63b8ff" stroke="#63b8ff" points="334.7,-13 344.7,-9.5 334.7,-6 334.7,-13"/>
</a>
</g>
</g>
<!-- Node3 -->
<g id="Node000003" class="node">
<title>Node3</title>
<g id="a_Node000003"><a xlink:href="chronos_8cpp.html#a27732e3f3736db194dd933a3f7f511ec" target="_top" xlink:title="Convert any GraphicsMagick supported image format to PPM image format.">
<polygon fill="white" stroke="#666666" points="139,-19 0,-19 0,0 139,0 139,-19"/>
<text text-anchor="middle" x="69.5" y="-7" font-family="Helvetica,sans-Serif" font-size="10.00">chronos_convert_to_ppm</text>
</a>
</g>
</g>
<!-- Node2&#45;&gt;Node3 -->
<g id="edge2_Node000002_Node000003" class="edge">
<title>Node2&#45;&gt;Node3</title>
<g id="a_edge2_Node000002_Node000003"><a xlink:title=" ">
<path fill="none" stroke="#63b8ff" d="M164.44,-9.5C156.05,-9.5 147.54,-9.5 139.26,-9.5"/>
<polygon fill="#63b8ff" stroke="#63b8ff" points="164.59,-13 174.59,-9.5 164.59,-6 164.59,-13"/>
</a>
</g>
</g>
</g>
</svg>
