<?xml version="1.0" encoding="UTF-8" standalone="no"?>
<!DOCTYPE svg PUBLIC "-//W3C//DTD SVG 1.1//EN"
 "http://www.w3.org/Graphics/SVG/1.1/DTD/svg11.dtd">
<!-- Generated by graphviz version 2.43.0 (0)
 -->
<!-- Title: thirdparty/RadioLib/include/RadioLib/utils/FEC.h Pages: 1 -->
<svg width="628pt" height="544pt"
 viewBox="0.00 0.00 628.41 544.00" xmlns="http://www.w3.org/2000/svg" xmlns:xlink="http://www.w3.org/1999/xlink">
<g id="graph0" class="graph" transform="scale(1 1) rotate(0) translate(4 540)">
<title>thirdparty/RadioLib/include/RadioLib/utils/FEC.h</title>
<!-- Node1 -->
<g id="Node000001" class="node">
<title>Node1</title>
<g id="a_Node000001"><a xlink:title=" ">
<polygon fill="#999999" stroke="#666666" points="521.91,-536 366.91,-536 366.91,-506 521.91,-506 521.91,-536"/>
<text text-anchor="start" x="374.91" y="-524" font-family="Helvetica,sans-Serif" font-size="10.00">thirdparty/RadioLib</text>
<text text-anchor="middle" x="444.41" y="-513" font-family="Helvetica,sans-Serif" font-size="10.00">/include/RadioLib/utils/FEC.h</text>
</a>
</g>
</g>
<!-- Node2 -->
<g id="Node000002" class="node">
<title>Node2</title>
<g id="a_Node000002"><a xlink:href="SX126x_8h.html" target="_top" xlink:title=" ">
<polygon fill="white" stroke="#666666" points="334.91,-470 189.91,-470 189.91,-429 334.91,-429 334.91,-470"/>
<text text-anchor="start" x="197.91" y="-458" font-family="Helvetica,sans-Serif" font-size="10.00">thirdparty/RadioLib</text>
<text text-anchor="start" x="197.91" y="-447" font-family="Helvetica,sans-Serif" font-size="10.00">/include/RadioLib/modules</text>
<text text-anchor="middle" x="262.41" y="-436" font-family="Helvetica,sans-Serif" font-size="10.00">/SX126x/SX126x.h</text>
</a>
</g>
</g>
<!-- Node1&#45;&gt;Node2 -->
<g id="edge1_Node000001_Node000002" class="edge">
<title>Node1&#45;&gt;Node2</title>
<g id="a_edge1_Node000001_Node000002"><a xlink:title=" ">
<path fill="none" stroke="#63b8ff" d="M398.04,-502.29C372.28,-492.46 340.18,-480.2 313.67,-470.07"/>
<polygon fill="#63b8ff" stroke="#63b8ff" points="396.99,-505.64 407.58,-505.94 399.49,-499.1 396.99,-505.64"/>
</a>
</g>
</g>
<!-- Node11 -->
<g id="Node000011" class="node">
<title>Node11</title>
<g id="a_Node000011"><a xlink:href="AX25_8h.html" target="_top" xlink:title=" ">
<polygon fill="white" stroke="#666666" points="518.41,-316 370.41,-316 370.41,-275 518.41,-275 518.41,-316"/>
<text text-anchor="start" x="378.41" y="-304" font-family="Helvetica,sans-Serif" font-size="10.00">thirdparty/RadioLib</text>
<text text-anchor="start" x="378.41" y="-293" font-family="Helvetica,sans-Serif" font-size="10.00">/include/RadioLib/protocols</text>
<text text-anchor="middle" x="444.41" y="-282" font-family="Helvetica,sans-Serif" font-size="10.00">/AX25/AX25.h</text>
</a>
</g>
</g>
<!-- Node1&#45;&gt;Node11 -->
<g id="edge17_Node000001_Node000011" class="edge">
<title>Node1&#45;&gt;Node11</title>
<g id="a_edge17_Node000001_Node000011"><a xlink:title=" ">
<path fill="none" stroke="#63b8ff" d="M444.41,-495.44C444.41,-450.79 444.41,-357.15 444.41,-316.28"/>
<polygon fill="#63b8ff" stroke="#63b8ff" points="440.91,-495.68 444.41,-505.68 447.91,-495.68 440.91,-495.68"/>
</a>
</g>
</g>
<!-- Node13 -->
<g id="Node000013" class="node">
<title>Node13</title>
<g id="a_Node000013"><a xlink:href="Pager_8h.html" target="_top" xlink:title=" ">
<polygon fill="white" stroke="#666666" points="620.41,-470 472.41,-470 472.41,-429 620.41,-429 620.41,-470"/>
<text text-anchor="start" x="480.41" y="-458" font-family="Helvetica,sans-Serif" font-size="10.00">thirdparty/RadioLib</text>
<text text-anchor="start" x="480.41" y="-447" font-family="Helvetica,sans-Serif" font-size="10.00">/include/RadioLib/protocols</text>
<text text-anchor="middle" x="546.41" y="-436" font-family="Helvetica,sans-Serif" font-size="10.00">/Pager/Pager.h</text>
</a>
</g>
</g>
<!-- Node1&#45;&gt;Node13 -->
<g id="edge21_Node000001_Node000013" class="edge">
<title>Node1&#45;&gt;Node13</title>
<g id="a_edge21_Node000001_Node000013"><a xlink:title=" ">
<path fill="none" stroke="#63b8ff" d="M473.7,-500.04C487.51,-490.63 503.94,-479.44 517.69,-470.07"/>
<polygon fill="#63b8ff" stroke="#63b8ff" points="471.35,-497.41 465.05,-505.94 475.29,-503.2 471.35,-497.41"/>
</a>
</g>
</g>
<!-- Node3 -->
<g id="Node000003" class="node">
<title>Node3</title>
<g id="a_Node000003"><a xlink:href="SX1261_8h.html" target="_top" xlink:title=" ">
<polygon fill="white" stroke="#666666" points="175.91,-316 30.91,-316 30.91,-275 175.91,-275 175.91,-316"/>
<text text-anchor="start" x="38.91" y="-304" font-family="Helvetica,sans-Serif" font-size="10.00">thirdparty/RadioLib</text>
<text text-anchor="start" x="38.91" y="-293" font-family="Helvetica,sans-Serif" font-size="10.00">/include/RadioLib/modules</text>
<text text-anchor="middle" x="103.41" y="-282" font-family="Helvetica,sans-Serif" font-size="10.00">/SX126x/SX1261.h</text>
</a>
</g>
</g>
<!-- Node2&#45;&gt;Node3 -->
<g id="edge2_Node000002_Node000003" class="edge">
<title>Node2&#45;&gt;Node3</title>
<g id="a_edge2_Node000002_Node000003"><a xlink:title=" ">
<path fill="none" stroke="#63b8ff" d="M179.79,-440.62C149.11,-433.22 117.22,-419.23 98.41,-393 82.38,-370.64 88.94,-337.33 95.73,-316.27"/>
<polygon fill="#63b8ff" stroke="#63b8ff" points="179.17,-444.07 189.69,-442.8 180.68,-437.23 179.17,-444.07"/>
</a>
</g>
</g>
<!-- Node9 -->
<g id="Node000009" class="node">
<title>Node9</title>
<g id="a_Node000009"><a xlink:href="SX1262_8h.html" target="_top" xlink:title=" ">
<polygon fill="white" stroke="#666666" points="252.91,-393 107.91,-393 107.91,-352 252.91,-352 252.91,-393"/>
<text text-anchor="start" x="115.91" y="-381" font-family="Helvetica,sans-Serif" font-size="10.00">thirdparty/RadioLib</text>
<text text-anchor="start" x="115.91" y="-370" font-family="Helvetica,sans-Serif" font-size="10.00">/include/RadioLib/modules</text>
<text text-anchor="middle" x="180.41" y="-359" font-family="Helvetica,sans-Serif" font-size="10.00">/SX126x/SX1262.h</text>
</a>
</g>
</g>
<!-- Node2&#45;&gt;Node9 -->
<g id="edge10_Node000002_Node000009" class="edge">
<title>Node2&#45;&gt;Node9</title>
<g id="a_edge10_Node000002_Node000009"><a xlink:title=" ">
<path fill="none" stroke="#63b8ff" d="M233.21,-421.79C222.85,-412.32 211.4,-401.84 201.81,-393.07"/>
<polygon fill="#63b8ff" stroke="#63b8ff" points="231.13,-424.63 240.87,-428.79 235.85,-419.46 231.13,-424.63"/>
</a>
</g>
</g>
<!-- Node10 -->
<g id="Node000010" class="node">
<title>Node10</title>
<g id="a_Node000010"><a xlink:href="SX1268_8h.html" target="_top" xlink:title=" ">
<polygon fill="white" stroke="#666666" points="415.91,-393 270.91,-393 270.91,-352 415.91,-352 415.91,-393"/>
<text text-anchor="start" x="278.91" y="-381" font-family="Helvetica,sans-Serif" font-size="10.00">thirdparty/RadioLib</text>
<text text-anchor="start" x="278.91" y="-370" font-family="Helvetica,sans-Serif" font-size="10.00">/include/RadioLib/modules</text>
<text text-anchor="middle" x="343.41" y="-359" font-family="Helvetica,sans-Serif" font-size="10.00">/SX126x/SX1268.h</text>
</a>
</g>
</g>
<!-- Node2&#45;&gt;Node10 -->
<g id="edge15_Node000002_Node000010" class="edge">
<title>Node2&#45;&gt;Node10</title>
<g id="a_edge15_Node000002_Node000010"><a xlink:title=" ">
<path fill="none" stroke="#63b8ff" d="M291.26,-421.79C301.49,-412.32 312.8,-401.84 322.27,-393.07"/>
<polygon fill="#63b8ff" stroke="#63b8ff" points="288.65,-419.43 283.69,-428.79 293.41,-424.57 288.65,-419.43"/>
</a>
</g>
</g>
<!-- Node4 -->
<g id="Node000004" class="node">
<title>Node4</title>
<g id="a_Node000004"><a xlink:href="RadioLib_8h.html" target="_top" xlink:title=" ">
<polygon fill="white" stroke="#666666" points="362.41,-162 208.41,-162 208.41,-132 362.41,-132 362.41,-162"/>
<text text-anchor="start" x="216.41" y="-150" font-family="Helvetica,sans-Serif" font-size="10.00">thirdparty/RadioLib</text>
<text text-anchor="middle" x="285.41" y="-139" font-family="Helvetica,sans-Serif" font-size="10.00">/include/RadioLib/RadioLib.h</text>
</a>
</g>
</g>
<!-- Node3&#45;&gt;Node4 -->
<g id="edge3_Node000003_Node000004" class="edge">
<title>Node3&#45;&gt;Node4</title>
<g id="a_edge3_Node000003_Node000004"><a xlink:title=" ">
<path fill="none" stroke="#63b8ff" d="M86.18,-265.61C76.25,-244.82 68.41,-217.16 83.41,-198 99,-178.08 157.95,-165 208.17,-157.23"/>
<polygon fill="#63b8ff" stroke="#63b8ff" points="83.13,-267.34 90.82,-274.63 89.36,-264.14 83.13,-267.34"/>
</a>
</g>
</g>
<!-- Node8 -->
<g id="Node000008" class="node">
<title>Node8</title>
<g id="a_Node000008"><a xlink:href="LLCC68_8h.html" target="_top" xlink:title=" ">
<polygon fill="white" stroke="#666666" points="237.91,-239 92.91,-239 92.91,-198 237.91,-198 237.91,-239"/>
<text text-anchor="start" x="100.91" y="-227" font-family="Helvetica,sans-Serif" font-size="10.00">thirdparty/RadioLib</text>
<text text-anchor="start" x="100.91" y="-216" font-family="Helvetica,sans-Serif" font-size="10.00">/include/RadioLib/modules</text>
<text text-anchor="middle" x="165.41" y="-205" font-family="Helvetica,sans-Serif" font-size="10.00">/LLCC68/LLCC68.h</text>
</a>
</g>
</g>
<!-- Node3&#45;&gt;Node8 -->
<g id="edge8_Node000003_Node000008" class="edge">
<title>Node3&#45;&gt;Node8</title>
<g id="a_edge8_Node000003_Node000008"><a xlink:title=" ">
<path fill="none" stroke="#63b8ff" d="M126.18,-266.95C133.83,-257.7 142.2,-247.58 149.23,-239.07"/>
<polygon fill="#63b8ff" stroke="#63b8ff" points="123.38,-264.86 119.7,-274.79 128.77,-269.32 123.38,-264.86"/>
</a>
</g>
</g>
<!-- Node5 -->
<g id="Node000005" class="node">
<title>Node5</title>
<g id="a_Node000005"><a xlink:href="transmitter-normal_8cpp.html" target="_top" xlink:title="CHRONOS&#45;LoRa Transmitter program (Normal)">
<polygon fill="white" stroke="#666666" points="218.91,-19 71.91,-19 71.91,0 218.91,0 218.91,-19"/>
<text text-anchor="middle" x="145.41" y="-7" font-family="Helvetica,sans-Serif" font-size="10.00">src/transmitter&#45;normal.cpp</text>
</a>
</g>
</g>
<!-- Node4&#45;&gt;Node5 -->
<g id="edge4_Node000004_Node000005" class="edge">
<title>Node4&#45;&gt;Node5</title>
<g id="a_edge4_Node000004_Node000005"><a xlink:title=" ">
<path fill="none" stroke="#63b8ff" d="M255.03,-125.99C242.83,-117.37 228.95,-106.8 217.41,-96 190.21,-70.54 163.31,-35.17 151.56,-19.08"/>
<polygon fill="#63b8ff" stroke="#63b8ff" points="253.35,-129.09 263.57,-131.9 257.34,-123.33 253.35,-129.09"/>
</a>
</g>
</g>
<!-- Node6 -->
<g id="Node000006" class="node">
<title>Node6</title>
<g id="a_Node000006"><a xlink:href="PiHal_8h.html" target="_top" xlink:title=" ">
<polygon fill="white" stroke="#666666" points="344.41,-96 226.41,-96 226.41,-55 344.41,-55 344.41,-96"/>
<text text-anchor="start" x="234.41" y="-84" font-family="Helvetica,sans-Serif" font-size="10.00">thirdparty/RadioLib</text>
<text text-anchor="start" x="234.41" y="-73" font-family="Helvetica,sans-Serif" font-size="10.00">/include/RadioLib/hal</text>
<text text-anchor="middle" x="285.41" y="-62" font-family="Helvetica,sans-Serif" font-size="10.00">/RPi/PiHal.h</text>
</a>
</g>
</g>
<!-- Node4&#45;&gt;Node6 -->
<g id="edge5_Node000004_Node000006" class="edge">
<title>Node4&#45;&gt;Node6</title>
<g id="a_edge5_Node000004_Node000006"><a xlink:title=" ">
<path fill="none" stroke="#63b8ff" d="M285.41,-121.91C285.41,-113.47 285.41,-104.1 285.41,-96.07"/>
<polygon fill="#63b8ff" stroke="#63b8ff" points="281.91,-121.94 285.41,-131.94 288.91,-121.94 281.91,-121.94"/>
</a>
</g>
</g>
<!-- Node6&#45;&gt;Node5 -->
<g id="edge7_Node000006_Node000005" class="edge">
<title>Node6&#45;&gt;Node5</title>
<g id="a_edge7_Node000006_Node000005"><a xlink:title=" ">
<path fill="none" stroke="#63b8ff" d="M233.53,-50.78C209.28,-39.7 181.92,-27.19 164.21,-19.09"/>
<polygon fill="#63b8ff" stroke="#63b8ff" points="232.1,-53.98 242.65,-54.95 235.01,-47.61 232.1,-53.98"/>
</a>
</g>
</g>
<!-- Node7 -->
<g id="Node000007" class="node">
<title>Node7</title>
<g id="a_Node000007"><a xlink:href="receiver-normal_8cpp.html" target="_top" xlink:title="CHRONOS&#45;LoRa Receiver program (Normal)">
<polygon fill="white" stroke="#666666" points="369.41,-19 237.41,-19 237.41,0 369.41,0 369.41,-19"/>
<text text-anchor="middle" x="303.41" y="-7" font-family="Helvetica,sans-Serif" font-size="10.00">src/receiver&#45;normal.cpp</text>
</a>
</g>
</g>
<!-- Node6&#45;&gt;Node7 -->
<g id="edge6_Node000006_Node000007" class="edge">
<title>Node6&#45;&gt;Node7</title>
<g id="a_edge6_Node000006_Node000007"><a xlink:title=" ">
<path fill="none" stroke="#63b8ff" d="M293.7,-45.04C296.34,-35.65 299.06,-25.97 300.95,-19.26"/>
<polygon fill="#63b8ff" stroke="#63b8ff" points="290.25,-44.38 290.91,-54.95 296.99,-46.27 290.25,-44.38"/>
</a>
</g>
</g>
<!-- Node8&#45;&gt;Node4 -->
<g id="edge9_Node000008_Node000004" class="edge">
<title>Node8&#45;&gt;Node4</title>
<g id="a_edge9_Node000008_Node000004"><a xlink:title=" ">
<path fill="none" stroke="#63b8ff" d="M208.2,-192.72C225.94,-182.44 245.87,-170.9 261.04,-162.11"/>
<polygon fill="#63b8ff" stroke="#63b8ff" points="206.06,-189.91 199.16,-197.96 209.57,-195.97 206.06,-189.91"/>
</a>
</g>
</g>
<!-- Node9&#45;&gt;Node3 -->
<g id="edge14_Node000009_Node000003" class="edge">
<title>Node9&#45;&gt;Node3</title>
<g id="a_edge14_Node000009_Node000003"><a xlink:title=" ">
<path fill="none" stroke="#63b8ff" d="M152.99,-344.79C143.27,-335.32 132.51,-324.84 123.51,-316.07"/>
<polygon fill="#63b8ff" stroke="#63b8ff" points="150.58,-347.32 160.18,-351.79 155.46,-342.31 150.58,-347.32"/>
</a>
</g>
</g>
<!-- Node9&#45;&gt;Node4 -->
<g id="edge12_Node000009_Node000004" class="edge">
<title>Node9&#45;&gt;Node4</title>
<g id="a_edge12_Node000009_Node000004"><a xlink:title=" ">
<path fill="none" stroke="#63b8ff" d="M195.32,-342.77C209.02,-316.08 229.68,-275.14 246.41,-239 258.83,-212.17 272.17,-180.31 279.58,-162.3"/>
<polygon fill="#63b8ff" stroke="#63b8ff" points="192.07,-341.42 190.61,-351.92 198.3,-344.63 192.07,-341.42"/>
</a>
</g>
</g>
<!-- Node9&#45;&gt;Node5 -->
<g id="edge11_Node000009_Node000005" class="edge">
<title>Node9&#45;&gt;Node5</title>
<g id="a_edge11_Node000009_Node000005"><a xlink:title=" ">
<path fill="none" stroke="#63b8ff" d="M97.85,-359.75C69.9,-351.79 40.87,-338.42 21.41,-316 -7.24,-282.98 2.41,-263.21 2.41,-219.5 2.41,-219.5 2.41,-219.5 2.41,-146 2.41,-79.99 83.69,-36.5 123.69,-19.09"/>
<polygon fill="#63b8ff" stroke="#63b8ff" points="97.11,-363.18 107.68,-362.35 98.9,-356.41 97.11,-363.18"/>
</a>
</g>
</g>
<!-- Node9&#45;&gt;Node8 -->
<g id="edge13_Node000009_Node000008" class="edge">
<title>Node9&#45;&gt;Node8</title>
<g id="a_edge13_Node000009_Node000008"><a xlink:title=" ">
<path fill="none" stroke="#63b8ff" d="M184.78,-341.81C186.83,-322.62 188.11,-297.19 184.41,-275 182.37,-262.74 177.96,-249.56 173.9,-239.13"/>
<polygon fill="#63b8ff" stroke="#63b8ff" points="181.3,-341.42 183.58,-351.76 188.25,-342.25 181.3,-341.42"/>
</a>
</g>
</g>
<!-- Node10&#45;&gt;Node4 -->
<g id="edge16_Node000010_Node000004" class="edge">
<title>Node10&#45;&gt;Node4</title>
<g id="a_edge16_Node000010_Node000004"><a xlink:title=" ">
<path fill="none" stroke="#63b8ff" d="M335.68,-341.72C323.03,-292.96 298.37,-197.92 289.07,-162.11"/>
<polygon fill="#63b8ff" stroke="#63b8ff" points="332.37,-342.87 338.26,-351.67 339.14,-341.11 332.37,-342.87"/>
</a>
</g>
</g>
<!-- Node11&#45;&gt;Node4 -->
<g id="edge18_Node000011_Node000004" class="edge">
<title>Node11&#45;&gt;Node4</title>
<g id="a_edge18_Node000011_Node000004"><a xlink:title=" ">
<path fill="none" stroke="#63b8ff" d="M401.82,-269.36C388.29,-260.52 373.68,-250.03 361.41,-239 334.47,-214.78 308.65,-180.85 295.15,-162.01"/>
<polygon fill="#63b8ff" stroke="#63b8ff" points="400.2,-272.48 410.51,-274.92 403.97,-266.58 400.2,-272.48"/>
</a>
</g>
</g>
<!-- Node12 -->
<g id="Node000012" class="node">
<title>Node12</title>
<g id="a_Node000012"><a xlink:href="APRS_8h.html" target="_top" xlink:title=" ">
<polygon fill="white" stroke="#666666" points="518.41,-239 370.41,-239 370.41,-198 518.41,-198 518.41,-239"/>
<text text-anchor="start" x="378.41" y="-227" font-family="Helvetica,sans-Serif" font-size="10.00">thirdparty/RadioLib</text>
<text text-anchor="start" x="378.41" y="-216" font-family="Helvetica,sans-Serif" font-size="10.00">/include/RadioLib/protocols</text>
<text text-anchor="middle" x="444.41" y="-205" font-family="Helvetica,sans-Serif" font-size="10.00">/APRS/APRS.h</text>
</a>
</g>
</g>
<!-- Node11&#45;&gt;Node12 -->
<g id="edge19_Node000011_Node000012" class="edge">
<title>Node11&#45;&gt;Node12</title>
<g id="a_edge19_Node000011_Node000012"><a xlink:title=" ">
<path fill="none" stroke="#63b8ff" d="M444.41,-264.69C444.41,-256.08 444.41,-246.9 444.41,-239.07"/>
<polygon fill="#63b8ff" stroke="#63b8ff" points="440.91,-264.79 444.41,-274.79 447.91,-264.79 440.91,-264.79"/>
</a>
</g>
</g>
<!-- Node12&#45;&gt;Node4 -->
<g id="edge20_Node000012_Node000004" class="edge">
<title>Node12&#45;&gt;Node4</title>
<g id="a_edge20_Node000012_Node000004"><a xlink:title=" ">
<path fill="none" stroke="#63b8ff" d="M390.3,-193.85C366.16,-183.3 338.54,-171.22 317.7,-162.11"/>
<polygon fill="#63b8ff" stroke="#63b8ff" points="389.13,-197.16 399.7,-197.96 391.94,-190.74 389.13,-197.16"/>
</a>
</g>
</g>
<!-- Node13&#45;&gt;Node4 -->
<g id="edge22_Node000013_Node000004" class="edge">
<title>Node13&#45;&gt;Node4</title>
<g id="a_edge22_Node000013_Node000004"><a xlink:title=" ">
<path fill="none" stroke="#63b8ff" d="M554.29,-419.09C566.19,-367.44 581.98,-260.04 527.41,-198 505.91,-173.56 424.87,-160.52 362.43,-153.96"/>
<polygon fill="#63b8ff" stroke="#63b8ff" points="550.86,-418.4 551.91,-428.94 557.66,-420.04 550.86,-418.4"/>
</a>
</g>
</g>
</g>
</svg>
