<?xml version="1.0" encoding="UTF-8" standalone="no"?>
<!DOCTYPE svg PUBLIC "-//W3C//DTD SVG 1.1//EN"
 "http://www.w3.org/Graphics/SVG/1.1/DTD/svg11.dtd">
<!-- Generated by graphviz version 2.43.0 (0)
 -->
<!-- Title: report_system_error Pages: 1 -->
<svg width="771pt" height="347pt"
 viewBox="0.00 0.00 771.00 347.00" xmlns="http://www.w3.org/2000/svg" xmlns:xlink="http://www.w3.org/1999/xlink">
<g id="graph0" class="graph" transform="scale(1 1) rotate(0) translate(4 343)">
<title>report_system_error</title>
<!-- Node1 -->
<g id="Node000001" class="node">
<title>Node1</title>
<g id="a_Node000001"><a xlink:title=" ">
<polygon fill="#999999" stroke="#666666" points="116,-187 0,-187 0,-168 116,-168 116,-187"/>
<text text-anchor="middle" x="58" y="-175" font-family="Helvetica,sans-Serif" font-size="10.00">report_system_error</text>
</a>
</g>
</g>
<!-- Node2 -->
<g id="Node000002" class="node">
<title>Node2</title>
<g id="a_Node000002"><a xlink:href="namespacedetail.html#a88d633182ea0ffa012f988da3ec66c88" target="_top" xlink:title=" ">
<polygon fill="white" stroke="#666666" points="277,-225 152,-225 152,-206 277,-206 277,-225"/>
<text text-anchor="middle" x="214.5" y="-213" font-family="Helvetica,sans-Serif" font-size="10.00">detail::do_report_error</text>
</a>
</g>
</g>
<!-- Node1&#45;&gt;Node2 -->
<g id="edge1_Node000001_Node000002" class="edge">
<title>Node1&#45;&gt;Node2</title>
<g id="a_edge1_Node000001_Node000002"><a xlink:title=" ">
<path fill="none" stroke="#63b8ff" d="M97.99,-187.09C118.28,-192.08 143.29,-198.23 164.85,-203.53"/>
<polygon fill="#63b8ff" stroke="#63b8ff" points="164.25,-206.99 174.79,-205.98 165.92,-200.19 164.25,-206.99"/>
</a>
</g>
</g>
<!-- Node5 -->
<g id="Node000005" class="node">
<title>Node5</title>
<g id="a_Node000005"><a xlink:href="format-inl_8h.html#a7f93bbdee51ea567c2cdf8532c0c1fc1" target="_top" xlink:title=" ">
<polygon fill="white" stroke="#666666" points="274,-169 155,-169 155,-150 274,-150 274,-169"/>
<text text-anchor="middle" x="214.5" y="-157" font-family="Helvetica,sans-Serif" font-size="10.00">format_system_error</text>
</a>
</g>
</g>
<!-- Node1&#45;&gt;Node5 -->
<g id="edge4_Node000001_Node000005" class="edge">
<title>Node1&#45;&gt;Node5</title>
<g id="a_edge4_Node000001_Node000005"><a xlink:title=" ">
<path fill="none" stroke="#63b8ff" d="M116.09,-170.85C125.47,-169.76 135.27,-168.61 144.9,-167.49"/>
<polygon fill="#63b8ff" stroke="#63b8ff" points="145.31,-170.97 154.83,-166.33 144.5,-164.02 145.31,-170.97"/>
</a>
</g>
</g>
<!-- Node3 -->
<g id="Node000003" class="node">
<title>Node3</title>
<g id="a_Node000003"><a xlink:href="classdetail_1_1buffer.html#aeb33e0a2d2be2bbca9e0236c148089c8" target="_top" xlink:title="Returns a pointer to the buffer data (not null&#45;terminated).">
<polygon fill="white" stroke="#666666" points="436.5,-225 329.5,-225 329.5,-206 436.5,-206 436.5,-225"/>
<text text-anchor="middle" x="383" y="-213" font-family="Helvetica,sans-Serif" font-size="10.00">detail::buffer::data</text>
</a>
</g>
</g>
<!-- Node2&#45;&gt;Node3 -->
<g id="edge2_Node000002_Node000003" class="edge">
<title>Node2&#45;&gt;Node3</title>
<g id="a_edge2_Node000002_Node000003"><a xlink:title=" ">
<path fill="none" stroke="#63b8ff" d="M277.03,-215.5C290.76,-215.5 305.33,-215.5 319.12,-215.5"/>
<polygon fill="#63b8ff" stroke="#63b8ff" points="319.48,-219 329.48,-215.5 319.48,-212 319.48,-219"/>
</a>
</g>
</g>
<!-- Node4 -->
<g id="Node000004" class="node">
<title>Node4</title>
<g id="a_Node000004"><a xlink:href="classdetail_1_1buffer.html#a8685285932360c284d19003fc4ba3edc" target="_top" xlink:title="Returns the size of this buffer.">
<polygon fill="white" stroke="#666666" points="605,-339 501,-339 501,-320 605,-320 605,-339"/>
<text text-anchor="middle" x="553" y="-327" font-family="Helvetica,sans-Serif" font-size="10.00">detail::buffer::size</text>
</a>
</g>
</g>
<!-- Node2&#45;&gt;Node4 -->
<g id="edge3_Node000002_Node000004" class="edge">
<title>Node2&#45;&gt;Node4</title>
<g id="a_edge3_Node000002_Node000004"><a xlink:title=" ">
<path fill="none" stroke="#63b8ff" d="M240.97,-225.01C289.12,-242.86 396.93,-282.22 489,-311.5 494.98,-313.4 501.3,-315.32 507.54,-317.15"/>
<polygon fill="#63b8ff" stroke="#63b8ff" points="506.65,-320.54 517.23,-319.96 508.6,-313.82 506.65,-320.54"/>
</a>
</g>
</g>
<!-- Node6 -->
<g id="Node000006" class="node">
<title>Node6</title>
<g id="a_Node000006"><a xlink:href="classbasic__appender.html#a3f0cd72d9279e98079287ae5c6cc53c0" target="_top" xlink:title=" ">
<polygon fill="white" stroke="#666666" points="615.5,-67.5 490.5,-67.5 490.5,-37.5 615.5,-37.5 615.5,-67.5"/>
<text text-anchor="start" x="498.5" y="-55.5" font-family="Helvetica,sans-Serif" font-size="10.00">basic_appender::basic</text>
<text text-anchor="middle" x="553" y="-44.5" font-family="Helvetica,sans-Serif" font-size="10.00">_appender</text>
</a>
</g>
</g>
<!-- Node5&#45;&gt;Node6 -->
<g id="edge5_Node000005_Node000006" class="edge">
<title>Node5&#45;&gt;Node6</title>
<g id="a_edge5_Node000005_Node000006"><a xlink:title=" ">
<path fill="none" stroke="#63b8ff" d="M245.66,-149.91C301.74,-132.08 422.9,-93.55 494.9,-70.66"/>
<polygon fill="#63b8ff" stroke="#63b8ff" points="496.26,-73.9 504.73,-67.53 494.14,-67.23 496.26,-73.9"/>
</a>
</g>
</g>
<!-- Node7 -->
<g id="Node000007" class="node">
<title>Node7</title>
<g id="a_Node000007"><a xlink:href="namespacedetail.html#a609d7411f77817f2def78afbbfdda40e" target="_top" xlink:title=" ">
<polygon fill="white" stroke="#666666" points="453,-179 313,-179 313,-160 453,-160 453,-179"/>
<text text-anchor="middle" x="383" y="-167" font-family="Helvetica,sans-Serif" font-size="10.00">detail::format_error_code</text>
</a>
</g>
</g>
<!-- Node5&#45;&gt;Node7 -->
<g id="edge6_Node000005_Node000007" class="edge">
<title>Node5&#45;&gt;Node7</title>
<g id="a_edge6_Node000005_Node000007"><a xlink:title=" ">
<path fill="none" stroke="#63b8ff" d="M274.2,-163.03C283.35,-163.57 292.92,-164.15 302.44,-164.72"/>
<polygon fill="#63b8ff" stroke="#63b8ff" points="302.52,-168.23 312.71,-165.34 302.94,-161.25 302.52,-168.23"/>
</a>
</g>
</g>
<!-- Node18 -->
<g id="Node000018" class="node">
<title>Node18</title>
<g id="a_Node000018"><a xlink:href="namespacedetail.html#a7006c3bfba162ffe36323541306bc600" target="_top" xlink:title=" ">
<polygon fill="white" stroke="#666666" points="420.5,-40 345.5,-40 345.5,-21 420.5,-21 420.5,-40"/>
<text text-anchor="middle" x="383" y="-28" font-family="Helvetica,sans-Serif" font-size="10.00">detail::write</text>
</a>
</g>
</g>
<!-- Node5&#45;&gt;Node18 -->
<g id="edge19_Node000005_Node000018" class="edge">
<title>Node5&#45;&gt;Node18</title>
<g id="a_edge19_Node000005_Node000018"><a xlink:title=" ">
<path fill="none" stroke="#63b8ff" d="M228.01,-149.8C256.46,-127.77 326.21,-73.72 361.23,-46.59"/>
<polygon fill="#63b8ff" stroke="#63b8ff" points="363.58,-49.2 369.34,-40.31 359.29,-43.67 363.58,-49.2"/>
</a>
</g>
</g>
<!-- Node7&#45;&gt;Node4 -->
<g id="edge14_Node000007_Node000004" class="edge">
<title>Node7&#45;&gt;Node4</title>
<g id="a_edge14_Node000007_Node000004"><a xlink:title=" ">
<path fill="none" stroke="#63b8ff" d="M425.97,-179.13C435.9,-183.11 445.72,-188.69 453,-196.5 489.53,-235.67 450.66,-274.11 489,-311.5 490.09,-312.57 491.25,-313.57 492.45,-314.52"/>
<polygon fill="#63b8ff" stroke="#63b8ff" points="490.69,-317.55 501.01,-319.95 494.44,-311.63 490.69,-317.55"/>
</a>
</g>
</g>
<!-- Node7&#45;&gt;Node6 -->
<g id="edge7_Node000007_Node000006" class="edge">
<title>Node7&#45;&gt;Node6</title>
<g id="a_edge7_Node000007_Node000006"><a xlink:title=" ">
<path fill="none" stroke="#63b8ff" d="M402.23,-159.96C416.9,-151.75 437.55,-138.97 453,-124.5 472.46,-106.27 467.7,-92.55 489,-76.5 490.82,-75.13 492.73,-73.82 494.71,-72.59"/>
<polygon fill="#63b8ff" stroke="#63b8ff" points="496.66,-75.51 503.7,-67.59 493.26,-69.39 496.66,-75.51"/>
</a>
</g>
</g>
<!-- Node8 -->
<g id="Node000008" class="node">
<title>Node8</title>
<g id="a_Node000008"><a xlink:href="namespacedetail.html#ac83427f5f16569571f442ec01887e045" target="_top" xlink:title=" ">
<polygon fill="white" stroke="#666666" points="608,-179 498,-179 498,-160 608,-160 608,-179"/>
<text text-anchor="middle" x="553" y="-167" font-family="Helvetica,sans-Serif" font-size="10.00">detail::count_digits</text>
</a>
</g>
</g>
<!-- Node7&#45;&gt;Node8 -->
<g id="edge8_Node000007_Node000008" class="edge">
<title>Node7&#45;&gt;Node8</title>
<g id="a_edge8_Node000007_Node000008"><a xlink:title=" ">
<path fill="none" stroke="#63b8ff" d="M453.3,-169.5C464.72,-169.5 476.51,-169.5 487.8,-169.5"/>
<polygon fill="#63b8ff" stroke="#63b8ff" points="488,-173 498,-169.5 488,-166 488,-173"/>
</a>
</g>
</g>
<!-- Node11 -->
<g id="Node000011" class="node">
<title>Node11</title>
<g id="a_Node000011"><a xlink:href="base_8h.html#a497c119ac4dac361bf55a9fb042ee2c2" target="_top" xlink:title=" ">
<polygon fill="white" stroke="#666666" points="585.5,-142 520.5,-142 520.5,-123 585.5,-123 585.5,-142"/>
<text text-anchor="middle" x="553" y="-130" font-family="Helvetica,sans-Serif" font-size="10.00">format_to</text>
</a>
</g>
</g>
<!-- Node7&#45;&gt;Node11 -->
<g id="edge11_Node000007_Node000011" class="edge">
<title>Node7&#45;&gt;Node11</title>
<g id="a_edge11_Node000007_Node000011"><a xlink:title=" ">
<path fill="none" stroke="#63b8ff" d="M427.26,-159.97C452.81,-154.34 485,-147.26 510.27,-141.69"/>
<polygon fill="#63b8ff" stroke="#63b8ff" points="511.28,-145.05 520.29,-139.48 509.77,-138.22 511.28,-145.05"/>
</a>
</g>
</g>
<!-- Node12 -->
<g id="Node000012" class="node">
<title>Node12</title>
<g id="a_Node000012"><a xlink:href="namespacedetail.html#ad066261eea6878e8474f069668e9a592" target="_top" xlink:title=" ">
<polygon fill="white" stroke="#666666" points="606.5,-105 499.5,-105 499.5,-86 606.5,-86 606.5,-105"/>
<text text-anchor="middle" x="553" y="-93" font-family="Helvetica,sans-Serif" font-size="10.00">detail::is_negative</text>
</a>
</g>
</g>
<!-- Node7&#45;&gt;Node12 -->
<g id="edge12_Node000007_Node000012" class="edge">
<title>Node7&#45;&gt;Node12</title>
<g id="a_edge12_Node000007_Node000012"><a xlink:title=" ">
<path fill="none" stroke="#63b8ff" d="M399.51,-159.88C419.56,-147.76 455.86,-126.89 489,-113.5 493.76,-111.58 498.79,-109.77 503.86,-108.11"/>
<polygon fill="#63b8ff" stroke="#63b8ff" points="505.08,-111.39 513.58,-105.07 502.99,-104.71 505.08,-111.39"/>
</a>
</g>
</g>
<!-- Node13 -->
<g id="Node000013" class="node">
<title>Node13</title>
<g id="a_Node000013"><a xlink:href="classbasic__string__view.html#a216bbe1b012b590698d7bb4e96d1af3f" target="_top" xlink:title=" ">
<polygon fill="white" stroke="#666666" points="617,-302 489,-302 489,-283 617,-283 617,-302"/>
<text text-anchor="middle" x="553" y="-290" font-family="Helvetica,sans-Serif" font-size="10.00">basic_string_view::size</text>
</a>
</g>
</g>
<!-- Node7&#45;&gt;Node13 -->
<g id="edge13_Node000007_Node000013" class="edge">
<title>Node7&#45;&gt;Node13</title>
<g id="a_edge13_Node000007_Node000013"><a xlink:title=" ">
<path fill="none" stroke="#63b8ff" d="M423.5,-179.09C434.03,-183.12 444.76,-188.74 453,-196.5 480.79,-222.68 460,-249.66 489,-274.5 490.37,-275.67 491.8,-276.76 493.3,-277.79"/>
<polygon fill="#63b8ff" stroke="#63b8ff" points="491.96,-281.05 502.39,-282.91 495.4,-274.95 491.96,-281.05"/>
</a>
</g>
</g>
<!-- Node14 -->
<g id="Node000014" class="node">
<title>Node14</title>
<g id="a_Node000014"><a xlink:href="namespacedetail.html#a4855e668246c731a97484efc329f2aac" target="_top" xlink:title=" ">
<polygon fill="white" stroke="#666666" points="608,-265 498,-265 498,-246 608,-246 608,-265"/>
<text text-anchor="middle" x="553" y="-253" font-family="Helvetica,sans-Serif" font-size="10.00">detail::to_unsigned</text>
</a>
</g>
</g>
<!-- Node7&#45;&gt;Node14 -->
<g id="edge15_Node000007_Node000014" class="edge">
<title>Node7&#45;&gt;Node14</title>
<g id="a_edge15_Node000007_Node000014"><a xlink:title=" ">
<path fill="none" stroke="#63b8ff" d="M417.51,-179.08C429.32,-183.34 442.32,-189.11 453,-196.5 472.67,-210.11 468.81,-223.69 489,-236.5 492.32,-238.61 495.89,-240.49 499.58,-242.18"/>
<polygon fill="#63b8ff" stroke="#63b8ff" points="498.35,-245.45 508.93,-245.96 500.97,-238.97 498.35,-245.45"/>
</a>
</g>
</g>
<!-- Node15 -->
<g id="Node000015" class="node">
<title>Node15</title>
<g id="a_Node000015"><a xlink:href="classdetail_1_1buffer.html#ac48c33ebe198a142029794f99ec73c31" target="_top" xlink:title=" ">
<polygon fill="white" stroke="#666666" points="602,-227.5 504,-227.5 504,-197.5 602,-197.5 602,-227.5"/>
<text text-anchor="start" x="512" y="-215.5" font-family="Helvetica,sans-Serif" font-size="10.00">detail::buffer::try</text>
<text text-anchor="middle" x="553" y="-204.5" font-family="Helvetica,sans-Serif" font-size="10.00">_resize</text>
</a>
</g>
</g>
<!-- Node7&#45;&gt;Node15 -->
<g id="edge16_Node000007_Node000015" class="edge">
<title>Node7&#45;&gt;Node15</title>
<g id="a_edge16_Node000007_Node000015"><a xlink:title=" ">
<path fill="none" stroke="#63b8ff" d="M421.28,-179.04C442.7,-184.52 470.04,-191.52 494.18,-197.7"/>
<polygon fill="#63b8ff" stroke="#63b8ff" points="493.4,-201.11 503.96,-200.2 495.14,-194.33 493.4,-201.11"/>
</a>
</g>
</g>
<!-- Node9 -->
<g id="Node000009" class="node">
<title>Node9</title>
<g id="a_Node000009"><a xlink:href="namespacedetail.html#a300bc96ee936e9f6ef3565c8dff68a72" target="_top" xlink:title=" ">
<polygon fill="white" stroke="#666666" points="763,-181.5 653,-181.5 653,-151.5 763,-151.5 763,-181.5"/>
<text text-anchor="start" x="661" y="-169.5" font-family="Helvetica,sans-Serif" font-size="10.00">detail::count_digits</text>
<text text-anchor="middle" x="708" y="-158.5" font-family="Helvetica,sans-Serif" font-size="10.00">_fallback</text>
</a>
</g>
</g>
<!-- Node8&#45;&gt;Node9 -->
<g id="edge9_Node000008_Node000009" class="edge">
<title>Node8&#45;&gt;Node9</title>
<g id="a_edge9_Node000008_Node000009"><a xlink:title=" ">
<path fill="none" stroke="#63b8ff" d="M608.37,-168.43C619.42,-168.22 631.14,-167.99 642.5,-167.76"/>
<polygon fill="#63b8ff" stroke="#63b8ff" points="642.87,-171.26 652.8,-167.56 642.74,-164.26 642.87,-171.26"/>
</a>
</g>
</g>
<!-- Node10 -->
<g id="Node000010" class="node">
<title>Node10</title>
<g id="a_Node000010"><a xlink:href="namespacedetail.html#a75ed2634319883d038944529dbb954e2" target="_top" xlink:title=" ">
<polygon fill="white" stroke="#666666" points="761,-133.5 655,-133.5 655,-103.5 761,-103.5 761,-133.5"/>
<text text-anchor="start" x="663" y="-121.5" font-family="Helvetica,sans-Serif" font-size="10.00">detail::is_constant</text>
<text text-anchor="middle" x="708" y="-110.5" font-family="Helvetica,sans-Serif" font-size="10.00">_evaluated</text>
</a>
</g>
</g>
<!-- Node8&#45;&gt;Node10 -->
<g id="edge10_Node000008_Node000010" class="edge">
<title>Node8&#45;&gt;Node10</title>
<g id="a_edge10_Node000008_Node000010"><a xlink:title=" ">
<path fill="none" stroke="#63b8ff" d="M586.79,-159.94C596.54,-157.01 607.23,-153.71 617,-150.5 629.81,-146.29 643.55,-141.53 656.35,-136.99"/>
<polygon fill="#63b8ff" stroke="#63b8ff" points="657.68,-140.24 665.92,-133.58 655.33,-133.64 657.68,-140.24"/>
</a>
</g>
</g>
<!-- Node16 -->
<g id="Node000016" class="node">
<title>Node16</title>
<g id="a_Node000016"><a xlink:href="base_8h.html#a2e5592bf3509e2fc090fa0f329ee551f" target="_top" xlink:title=" ">
<polygon fill="white" stroke="#666666" points="733,-267 683,-267 683,-248 733,-248 733,-267"/>
<text text-anchor="middle" x="708" y="-255" font-family="Helvetica,sans-Serif" font-size="10.00">min_of</text>
</a>
</g>
</g>
<!-- Node15&#45;&gt;Node16 -->
<g id="edge17_Node000015_Node000016" class="edge">
<title>Node15&#45;&gt;Node16</title>
<g id="a_edge17_Node000015_Node000016"><a xlink:title=" ">
<path fill="none" stroke="#63b8ff" d="M602.41,-226.74C625.43,-233.51 652.4,-241.44 673.18,-247.55"/>
<polygon fill="#63b8ff" stroke="#63b8ff" points="672.26,-250.93 682.84,-250.39 674.24,-244.21 672.26,-250.93"/>
</a>
</g>
</g>
<!-- Node17 -->
<g id="Node000017" class="node">
<title>Node17</title>
<g id="a_Node000017"><a xlink:href="classdetail_1_1buffer.html#a91bcecc177b01b84d693028111fbd8eb" target="_top" xlink:title=" ">
<polygon fill="white" stroke="#666666" points="757,-229.5 659,-229.5 659,-199.5 757,-199.5 757,-229.5"/>
<text text-anchor="start" x="667" y="-217.5" font-family="Helvetica,sans-Serif" font-size="10.00">detail::buffer::try</text>
<text text-anchor="middle" x="708" y="-206.5" font-family="Helvetica,sans-Serif" font-size="10.00">_reserve</text>
</a>
</g>
</g>
<!-- Node15&#45;&gt;Node17 -->
<g id="edge18_Node000015_Node000017" class="edge">
<title>Node15&#45;&gt;Node17</title>
<g id="a_edge18_Node000015_Node000017"><a xlink:title=" ">
<path fill="none" stroke="#63b8ff" d="M602.41,-213.13C617.06,-213.32 633.31,-213.54 648.55,-213.74"/>
<polygon fill="#63b8ff" stroke="#63b8ff" points="648.86,-217.24 658.9,-213.87 648.95,-210.24 648.86,-217.24"/>
</a>
</g>
</g>
<!-- Node19 -->
<g id="Node000019" class="node">
<title>Node19</title>
<g id="a_Node000019"><a xlink:href="format-inl_8h.html#a5555893692b00b61b3886349332fd01f" target="_top" xlink:title=" ">
<polygon fill="white" stroke="#666666" points="590,-19 516,-19 516,0 590,0 590,-19"/>
<text text-anchor="middle" x="553" y="-7" font-family="Helvetica,sans-Serif" font-size="10.00">report_error</text>
</a>
</g>
</g>
<!-- Node18&#45;&gt;Node19 -->
<g id="edge20_Node000018_Node000019" class="edge">
<title>Node18&#45;&gt;Node19</title>
<g id="a_edge20_Node000018_Node000019"><a xlink:title=" ">
<path fill="none" stroke="#63b8ff" d="M420.87,-25.89C445.77,-22.78 478.83,-18.65 505.53,-15.31"/>
<polygon fill="#63b8ff" stroke="#63b8ff" points="506.31,-18.74 515.8,-14.03 505.44,-11.79 506.31,-18.74"/>
</a>
</g>
</g>
</g>
</svg>
