<?xml version="1.0" encoding="UTF-8" standalone="no"?>
<!DOCTYPE svg PUBLIC "-//W3C//DTD SVG 1.1//EN"
 "http://www.w3.org/Graphics/SVG/1.1/DTD/svg11.dtd">
<!-- Generated by graphviz version 2.43.0 (0)
 -->
<!-- Title: vprint Pages: 1 -->
<svg width="730pt" height="488pt"
 viewBox="0.00 0.00 730.00 487.50" xmlns="http://www.w3.org/2000/svg" xmlns:xlink="http://www.w3.org/1999/xlink">
<g id="graph0" class="graph" transform="scale(1 1) rotate(0) translate(4 483.5)">
<title>vprint</title>
<!-- Node1 -->
<g id="Node000001" class="node">
<title>Node1</title>
<g id="a_Node000001"><a xlink:title=" ">
<polygon fill="#999999" stroke="#666666" points="45,-192 0,-192 0,-173 45,-173 45,-192"/>
<text text-anchor="middle" x="22.5" y="-180" font-family="Helvetica,sans-Serif" font-size="10.00">vprint</text>
</a>
</g>
</g>
<!-- Node2 -->
<g id="Node000002" class="node">
<title>Node2</title>
<g id="a_Node000002"><a xlink:href="classdetail_1_1file__print__buffer_3_01F_00_01enable__if__t_3_01has__flockfile_3_01F_01_4_1_1value_01_4_01_4.html#adbb0888fc63b72c0b222a9e89dfed742" target="_top" xlink:title=" ">
<polygon fill="white" stroke="#666666" points="236,-372.5 81,-372.5 81,-320.5 236,-320.5 236,-372.5"/>
<text text-anchor="start" x="89" y="-360.5" font-family="Helvetica,sans-Serif" font-size="10.00">detail::file_print</text>
<text text-anchor="start" x="89" y="-349.5" font-family="Helvetica,sans-Serif" font-size="10.00">_buffer&lt; F, enable_if</text>
<text text-anchor="start" x="89" y="-338.5" font-family="Helvetica,sans-Serif" font-size="10.00">_t&lt; has_flockfile&lt; F &gt;</text>
<text text-anchor="middle" x="158.5" y="-327.5" font-family="Helvetica,sans-Serif" font-size="10.00">::value &gt; &gt;::file_print_buffer</text>
</a>
</g>
</g>
<!-- Node1&#45;&gt;Node2 -->
<g id="edge1_Node000001_Node000002" class="edge">
<title>Node1&#45;&gt;Node2</title>
<g id="a_edge1_Node000001_Node000002"><a xlink:title=" ">
<path fill="none" stroke="#63b8ff" d="M31.48,-192.27C50.42,-215.44 98.8,-274.65 129.8,-312.6"/>
<polygon fill="#63b8ff" stroke="#63b8ff" points="127.1,-314.83 136.14,-320.36 132.52,-310.4 127.1,-314.83"/>
</a>
</g>
</g>
<!-- Node7 -->
<g id="Node000007" class="node">
<title>Node7</title>
<g id="a_Node000007"><a xlink:href="classdetail_1_1glibc__file.html#a321097168b208dd30d1dbadd1505912b" target="_top" xlink:title=" ">
<polygon fill="white" stroke="#666666" points="205.5,-219.5 111.5,-219.5 111.5,-189.5 205.5,-189.5 205.5,-219.5"/>
<text text-anchor="start" x="119.5" y="-207.5" font-family="Helvetica,sans-Serif" font-size="10.00">detail::glibc_file</text>
<text text-anchor="middle" x="158.5" y="-196.5" font-family="Helvetica,sans-Serif" font-size="10.00">::is_buffered</text>
</a>
</g>
</g>
<!-- Node1&#45;&gt;Node7 -->
<g id="edge6_Node000001_Node000007" class="edge">
<title>Node1&#45;&gt;Node7</title>
<g id="a_edge6_Node000001_Node000007"><a xlink:title=" ">
<path fill="none" stroke="#63b8ff" d="M45.03,-186.03C60.28,-188.54 81.49,-192.02 101.38,-195.29"/>
<polygon fill="#63b8ff" stroke="#63b8ff" points="100.88,-198.75 111.31,-196.92 102.01,-191.84 100.88,-198.75"/>
</a>
</g>
</g>
<!-- Node8 -->
<g id="Node000008" class="node">
<title>Node8</title>
<g id="a_Node000008"><a xlink:href="namespacedetail.html#a374a461d344b73468831b40acf5e4635" target="_top" xlink:title=" ">
<polygon fill="white" stroke="#666666" points="210.5,-171 106.5,-171 106.5,-152 210.5,-152 210.5,-171"/>
<text text-anchor="middle" x="158.5" y="-159" font-family="Helvetica,sans-Serif" font-size="10.00">detail::vformat_to</text>
</a>
</g>
</g>
<!-- Node1&#45;&gt;Node8 -->
<g id="edge7_Node000001_Node000008" class="edge">
<title>Node1&#45;&gt;Node8</title>
<g id="a_edge7_Node000001_Node000008"><a xlink:title=" ">
<path fill="none" stroke="#63b8ff" d="M45.03,-179.13C58.95,-176.94 77.83,-173.99 96.14,-171.12"/>
<polygon fill="#63b8ff" stroke="#63b8ff" points="96.88,-174.54 106.22,-169.54 95.8,-167.63 96.88,-174.54"/>
</a>
</g>
</g>
<!-- Node19 -->
<g id="Node000019" class="node">
<title>Node19</title>
<g id="a_Node000019"><a xlink:href="base_8h.html#ae0f9ca78d021b5a5c5b0d29d84ba03be" target="_top" xlink:title=" ">
<polygon fill="white" stroke="#666666" points="204,-134 113,-134 113,-115 204,-115 204,-134"/>
<text text-anchor="middle" x="158.5" y="-122" font-family="Helvetica,sans-Serif" font-size="10.00">vprint_buffered</text>
</a>
</g>
</g>
<!-- Node1&#45;&gt;Node19 -->
<g id="edge19_Node000001_Node000019" class="edge">
<title>Node1&#45;&gt;Node19</title>
<g id="a_edge19_Node000001_Node000019"><a xlink:title=" ">
<path fill="none" stroke="#63b8ff" d="M35.1,-172.81C46.22,-163.97 63.82,-151.17 81,-143.5 87.95,-140.4 95.49,-137.75 103.04,-135.5"/>
<polygon fill="#63b8ff" stroke="#63b8ff" points="104.21,-138.81 112.92,-132.77 102.35,-132.06 104.21,-138.81"/>
</a>
</g>
</g>
<!-- Node3 -->
<g id="Node000003" class="node">
<title>Node3</title>
<g id="a_Node000003"><a xlink:href="classdetail_1_1glibc__file.html#a7ae0705516b69ef00a3b5f2471cae89f" target="_top" xlink:title=" ">
<polygon fill="white" stroke="#666666" points="388.5,-479.5 286.5,-479.5 286.5,-449.5 388.5,-449.5 388.5,-479.5"/>
<text text-anchor="start" x="294.5" y="-467.5" font-family="Helvetica,sans-Serif" font-size="10.00">detail::glibc_file</text>
<text text-anchor="middle" x="337.5" y="-456.5" font-family="Helvetica,sans-Serif" font-size="10.00">::get_write_buffer</text>
</a>
</g>
</g>
<!-- Node2&#45;&gt;Node3 -->
<g id="edge2_Node000002_Node000003" class="edge">
<title>Node2&#45;&gt;Node3</title>
<g id="a_edge2_Node000002_Node000003"><a xlink:title=" ">
<path fill="none" stroke="#63b8ff" d="M185.72,-372.89C207.35,-393.51 239.65,-421.71 272,-440.5 274.84,-442.15 277.82,-443.72 280.86,-445.22"/>
<polygon fill="#63b8ff" stroke="#63b8ff" points="279.61,-448.49 290.16,-449.45 282.51,-442.12 279.61,-448.49"/>
</a>
</g>
</g>
<!-- Node4 -->
<g id="Node000004" class="node">
<title>Node4</title>
<g id="a_Node000004"><a xlink:href="classdetail_1_1file__print__buffer_3_01F_00_01enable__if__t_3_01has__flockfile_3_01F_01_4_1_1value_01_4_01_4.html#ace1b23a918aeccf0fe526c220fd662ba" target="_top" xlink:title=" ">
<polygon fill="white" stroke="#666666" points="400.5,-431.5 274.5,-431.5 274.5,-379.5 400.5,-379.5 400.5,-431.5"/>
<text text-anchor="start" x="282.5" y="-419.5" font-family="Helvetica,sans-Serif" font-size="10.00">detail::file_print</text>
<text text-anchor="start" x="282.5" y="-408.5" font-family="Helvetica,sans-Serif" font-size="10.00">_buffer&lt; F, enable_if</text>
<text text-anchor="start" x="282.5" y="-397.5" font-family="Helvetica,sans-Serif" font-size="10.00">_t&lt; has_flockfile&lt; F &gt;</text>
<text text-anchor="middle" x="337.5" y="-386.5" font-family="Helvetica,sans-Serif" font-size="10.00">::value &gt; &gt;::grow</text>
</a>
</g>
</g>
<!-- Node2&#45;&gt;Node4 -->
<g id="edge3_Node000002_Node000004" class="edge">
<title>Node2&#45;&gt;Node4</title>
<g id="a_edge3_Node000002_Node000004"><a xlink:title=" ">
<path fill="none" stroke="#63b8ff" d="M236.11,-372.04C245.61,-375.2 255.29,-378.43 264.72,-381.57"/>
<polygon fill="#63b8ff" stroke="#63b8ff" points="263.83,-384.97 274.42,-384.81 266.04,-378.32 263.83,-384.97"/>
</a>
</g>
</g>
<!-- Node5 -->
<g id="Node000005" class="node">
<title>Node5</title>
<g id="a_Node000005"><a xlink:href="classdetail_1_1glibc__file.html#a9e7ae4b36567fa56243ab680d6ee53b0" target="_top" xlink:title=" ">
<polygon fill="white" stroke="#666666" points="384.5,-361.5 290.5,-361.5 290.5,-331.5 384.5,-331.5 384.5,-361.5"/>
<text text-anchor="start" x="298.5" y="-349.5" font-family="Helvetica,sans-Serif" font-size="10.00">detail::glibc_file</text>
<text text-anchor="middle" x="337.5" y="-338.5" font-family="Helvetica,sans-Serif" font-size="10.00">::init_buffer</text>
</a>
</g>
</g>
<!-- Node2&#45;&gt;Node5 -->
<g id="edge4_Node000002_Node000005" class="edge">
<title>Node2&#45;&gt;Node5</title>
<g id="a_edge4_Node000002_Node000005"><a xlink:title=" ">
<path fill="none" stroke="#63b8ff" d="M236.11,-346.5C250.85,-346.5 266.04,-346.5 280,-346.5"/>
<polygon fill="#63b8ff" stroke="#63b8ff" points="280.41,-350 290.41,-346.5 280.41,-343 280.41,-350"/>
</a>
</g>
</g>
<!-- Node6 -->
<g id="Node000006" class="node">
<title>Node6</title>
<g id="a_Node000006"><a xlink:href="classdetail_1_1buffer.html#a5c82aec716b07079ac88194eb9aa7feb" target="_top" xlink:title="Sets the buffer data and capacity.">
<polygon fill="white" stroke="#666666" points="387.5,-313 287.5,-313 287.5,-294 387.5,-294 387.5,-313"/>
<text text-anchor="middle" x="337.5" y="-301" font-family="Helvetica,sans-Serif" font-size="10.00">detail::buffer::set</text>
</a>
</g>
</g>
<!-- Node2&#45;&gt;Node6 -->
<g id="edge5_Node000002_Node000006" class="edge">
<title>Node2&#45;&gt;Node6</title>
<g id="a_edge5_Node000002_Node000006"><a xlink:title=" ">
<path fill="none" stroke="#63b8ff" d="M236.11,-327.89C253.43,-323.68 271.37,-319.32 287.21,-315.48"/>
<polygon fill="#63b8ff" stroke="#63b8ff" points="288.39,-318.79 297.28,-313.03 286.74,-311.99 288.39,-318.79"/>
</a>
</g>
</g>
<!-- Node9 -->
<g id="Node000009" class="node">
<title>Node9</title>
<g id="a_Node000009"><a xlink:href="classbasic__appender.html#a3f0cd72d9279e98079287ae5c6cc53c0" target="_top" xlink:title=" ">
<polygon fill="white" stroke="#666666" points="400,-275.5 275,-275.5 275,-245.5 400,-245.5 400,-275.5"/>
<text text-anchor="start" x="283" y="-263.5" font-family="Helvetica,sans-Serif" font-size="10.00">basic_appender::basic</text>
<text text-anchor="middle" x="337.5" y="-252.5" font-family="Helvetica,sans-Serif" font-size="10.00">_appender</text>
</a>
</g>
</g>
<!-- Node8&#45;&gt;Node9 -->
<g id="edge8_Node000008_Node000009" class="edge">
<title>Node8&#45;&gt;Node9</title>
<g id="a_edge8_Node000008_Node000009"><a xlink:title=" ">
<path fill="none" stroke="#63b8ff" d="M210.83,-168.55C219.75,-171.32 228.55,-175.16 236,-180.5 260.06,-197.73 248.95,-217.94 272,-236.5 273.57,-237.76 275.21,-238.97 276.91,-240.11"/>
<polygon fill="#63b8ff" stroke="#63b8ff" points="275.42,-243.29 285.81,-245.34 278.96,-237.25 275.42,-243.29"/>
</a>
</g>
</g>
<!-- Node10 -->
<g id="Node000010" class="node">
<title>Node10</title>
<g id="a_Node000010"><a xlink:href="classbasic__string__view.html#a39cdfe061dc6d64a3adc230b62d8a026" target="_top" xlink:title=" ">
<polygon fill="white" stroke="#666666" points="403,-227 272,-227 272,-208 403,-208 403,-227"/>
<text text-anchor="middle" x="337.5" y="-215" font-family="Helvetica,sans-Serif" font-size="10.00">basic_string_view::data</text>
</a>
</g>
</g>
<!-- Node8&#45;&gt;Node10 -->
<g id="edge9_Node000008_Node000010" class="edge">
<title>Node8&#45;&gt;Node10</title>
<g id="a_edge9_Node000008_Node000010"><a xlink:title=" ">
<path fill="none" stroke="#63b8ff" d="M205.77,-171.08C215.87,-173.7 226.41,-176.84 236,-180.5 252.9,-186.95 255.19,-192.81 272,-199.5 276.87,-201.44 282.03,-203.25 287.22,-204.93"/>
<polygon fill="#63b8ff" stroke="#63b8ff" points="286.59,-208.39 297.17,-207.97 288.63,-201.7 286.59,-208.39"/>
</a>
</g>
</g>
<!-- Node11 -->
<g id="Node000011" class="node">
<title>Node11</title>
<g id="a_Node000011"><a xlink:href="namespacedetail.html#a60a15c04518d5955ecfae225402491bb" target="_top" xlink:title=" ">
<polygon fill="white" stroke="#666666" points="379,-190 296,-190 296,-171 379,-171 379,-190"/>
<text text-anchor="middle" x="337.5" y="-178" font-family="Helvetica,sans-Serif" font-size="10.00">detail::equal2</text>
</a>
</g>
</g>
<!-- Node8&#45;&gt;Node11 -->
<g id="edge10_Node000008_Node000011" class="edge">
<title>Node8&#45;&gt;Node11</title>
<g id="a_edge10_Node000008_Node000011"><a xlink:title=" ">
<path fill="none" stroke="#63b8ff" d="M210.7,-167C234.26,-169.53 262.15,-172.52 285.68,-175.04"/>
<polygon fill="#63b8ff" stroke="#63b8ff" points="285.49,-178.54 295.8,-176.13 286.23,-171.58 285.49,-178.54"/>
</a>
</g>
</g>
<!-- Node12 -->
<g id="Node000012" class="node">
<title>Node12</title>
<g id="a_Node000012"><a xlink:href="classbasic__format__args.html#a3339d3a4e4daaf7bb0de1a8084e7f086" target="_top" xlink:title="Returns the argument with the specified id.">
<polygon fill="white" stroke="#666666" points="401.5,-153 273.5,-153 273.5,-134 401.5,-134 401.5,-153"/>
<text text-anchor="middle" x="337.5" y="-141" font-family="Helvetica,sans-Serif" font-size="10.00">basic_format_args::get</text>
</a>
</g>
</g>
<!-- Node8&#45;&gt;Node12 -->
<g id="edge11_Node000008_Node000012" class="edge">
<title>Node8&#45;&gt;Node12</title>
<g id="a_edge11_Node000008_Node000012"><a xlink:title=" ">
<path fill="none" stroke="#63b8ff" d="M210.7,-156.29C227.08,-154.63 245.56,-152.75 263.2,-150.95"/>
<polygon fill="#63b8ff" stroke="#63b8ff" points="263.88,-154.4 273.47,-149.91 263.17,-147.44 263.88,-154.4"/>
</a>
</g>
</g>
<!-- Node16 -->
<g id="Node000016" class="node">
<title>Node16</title>
<g id="a_Node000016"><a xlink:href="classparse__context.html#a9da9230b8f03bb6579efdcaae4b18003" target="_top" xlink:title=" ">
<polygon fill="white" stroke="#666666" points="397,-115.5 278,-115.5 278,-85.5 397,-85.5 397,-115.5"/>
<text text-anchor="start" x="286" y="-103.5" font-family="Helvetica,sans-Serif" font-size="10.00">parse_context::parse</text>
<text text-anchor="middle" x="337.5" y="-92.5" font-family="Helvetica,sans-Serif" font-size="10.00">_context</text>
</a>
</g>
</g>
<!-- Node8&#45;&gt;Node16 -->
<g id="edge16_Node000008_Node000016" class="edge">
<title>Node8&#45;&gt;Node16</title>
<g id="a_edge16_Node000008_Node000016"><a xlink:title=" ">
<path fill="none" stroke="#63b8ff" d="M207.75,-151.95C217.23,-149.57 227.02,-146.75 236,-143.5 252.82,-137.41 255.64,-132.74 272,-125.5 276.68,-123.43 281.6,-121.35 286.54,-119.33"/>
<polygon fill="#63b8ff" stroke="#63b8ff" points="288.03,-122.5 296,-115.53 285.42,-116.01 288.03,-122.5"/>
</a>
</g>
</g>
<!-- Node17 -->
<g id="Node000017" class="node">
<title>Node17</title>
<g id="a_Node000017"><a xlink:href="namespacedetail.html#a90b356f92e340e20002ede151cfc6fab" target="_top" xlink:title=" ">
<polygon fill="white" stroke="#666666" points="395.5,-67.5 279.5,-67.5 279.5,-37.5 395.5,-37.5 395.5,-67.5"/>
<text text-anchor="start" x="287.5" y="-55.5" font-family="Helvetica,sans-Serif" font-size="10.00">detail::parse_format</text>
<text text-anchor="middle" x="337.5" y="-44.5" font-family="Helvetica,sans-Serif" font-size="10.00">_string</text>
</a>
</g>
</g>
<!-- Node8&#45;&gt;Node17 -->
<g id="edge17_Node000008_Node000017" class="edge">
<title>Node8&#45;&gt;Node17</title>
<g id="a_edge17_Node000008_Node000017"><a xlink:title=" ">
<path fill="none" stroke="#63b8ff" d="M210.77,-155.77C219.79,-153.06 228.64,-149.15 236,-143.5 262.82,-122.92 246.52,-98.71 272,-76.5 273.49,-75.2 275.05,-73.98 276.67,-72.81"/>
<polygon fill="#63b8ff" stroke="#63b8ff" points="278.56,-75.76 285.21,-67.51 274.87,-69.81 278.56,-75.76"/>
</a>
</g>
</g>
<!-- Node18 -->
<g id="Node000018" class="node">
<title>Node18</title>
<g id="a_Node000018"><a xlink:href="classbasic__string__view.html#a216bbe1b012b590698d7bb4e96d1af3f" target="_top" xlink:title=" ">
<polygon fill="white" stroke="#666666" points="401.5,-19 273.5,-19 273.5,0 401.5,0 401.5,-19"/>
<text text-anchor="middle" x="337.5" y="-7" font-family="Helvetica,sans-Serif" font-size="10.00">basic_string_view::size</text>
</a>
</g>
</g>
<!-- Node8&#45;&gt;Node18 -->
<g id="edge18_Node000008_Node000018" class="edge">
<title>Node8&#45;&gt;Node18</title>
<g id="a_edge18_Node000008_Node000018"><a xlink:title=" ">
<path fill="none" stroke="#63b8ff" d="M210.89,-157.1C220.12,-154.3 229.01,-150 236,-143.5 275.21,-107.02 233.81,-66.05 272,-28.5 273.47,-27.06 275.04,-25.72 276.69,-24.49"/>
<polygon fill="#63b8ff" stroke="#63b8ff" points="278.81,-27.3 285.55,-19.12 275.18,-21.31 278.81,-27.3"/>
</a>
</g>
</g>
<!-- Node13 -->
<g id="Node000013" class="node">
<title>Node13</title>
<g id="a_Node000013"><a xlink:href="classbasic__format__args.html#a812f954be08646744a14d71f20b97830" target="_top" xlink:title=" ">
<polygon fill="white" stroke="#666666" points="722,-179.5 609,-179.5 609,-149.5 722,-149.5 722,-179.5"/>
<text text-anchor="start" x="617" y="-167.5" font-family="Helvetica,sans-Serif" font-size="10.00">basic_format_args::</text>
<text text-anchor="middle" x="665.5" y="-156.5" font-family="Helvetica,sans-Serif" font-size="10.00">is_packed</text>
</a>
</g>
</g>
<!-- Node12&#45;&gt;Node13 -->
<g id="edge12_Node000012_Node000013" class="edge">
<title>Node12&#45;&gt;Node13</title>
<g id="a_edge12_Node000012_Node000013"><a xlink:title=" ">
<path fill="none" stroke="#63b8ff" d="M370.29,-153.11C389.89,-158.53 415.66,-164.75 439,-167.5 492.39,-173.79 553.38,-172.47 598.45,-169.89"/>
<polygon fill="#63b8ff" stroke="#63b8ff" points="598.92,-173.37 608.69,-169.27 598.49,-166.38 598.92,-173.37"/>
</a>
</g>
</g>
<!-- Node14 -->
<g id="Node000014" class="node">
<title>Node14</title>
<g id="a_Node000014"><a xlink:href="classbasic__format__args.html#a7747894fe7c14fb78260b53ca7702782" target="_top" xlink:title=" ">
<polygon fill="white" stroke="#666666" points="562.5,-158.5 449.5,-158.5 449.5,-128.5 562.5,-128.5 562.5,-158.5"/>
<text text-anchor="start" x="457.5" y="-146.5" font-family="Helvetica,sans-Serif" font-size="10.00">basic_format_args::</text>
<text text-anchor="middle" x="506" y="-135.5" font-family="Helvetica,sans-Serif" font-size="10.00">max_size</text>
</a>
</g>
</g>
<!-- Node12&#45;&gt;Node14 -->
<g id="edge13_Node000012_Node000014" class="edge">
<title>Node12&#45;&gt;Node14</title>
<g id="a_edge13_Node000012_Node000014"><a xlink:title=" ">
<path fill="none" stroke="#63b8ff" d="M401.92,-143.5C414.13,-143.5 426.94,-143.5 439.21,-143.5"/>
<polygon fill="#63b8ff" stroke="#63b8ff" points="439.38,-147 449.38,-143.5 439.38,-140 439.38,-147"/>
</a>
</g>
</g>
<!-- Node15 -->
<g id="Node000015" class="node">
<title>Node15</title>
<g id="a_Node000015"><a xlink:href="classbasic__format__args.html#a4d5e597c31ce51609d7fa770c83dad39" target="_top" xlink:title=" ">
<polygon fill="white" stroke="#666666" points="573,-110 439,-110 439,-91 573,-91 573,-110"/>
<text text-anchor="middle" x="506" y="-98" font-family="Helvetica,sans-Serif" font-size="10.00">basic_format_args::type</text>
</a>
</g>
</g>
<!-- Node12&#45;&gt;Node15 -->
<g id="edge15_Node000012_Node000015" class="edge">
<title>Node12&#45;&gt;Node15</title>
<g id="a_edge15_Node000012_Node000015"><a xlink:title=" ">
<path fill="none" stroke="#63b8ff" d="M375.45,-133.96C399.92,-127.64 432.21,-119.3 458.43,-112.53"/>
<polygon fill="#63b8ff" stroke="#63b8ff" points="459.34,-115.91 468.15,-110.02 457.59,-109.13 459.34,-115.91"/>
</a>
</g>
</g>
<!-- Node14&#45;&gt;Node13 -->
<g id="edge14_Node000014_Node000013" class="edge">
<title>Node14&#45;&gt;Node13</title>
<g id="a_edge14_Node000014_Node000013"><a xlink:title=" ">
<path fill="none" stroke="#63b8ff" d="M562.53,-150.9C574.29,-152.47 586.81,-154.14 598.91,-155.75"/>
<polygon fill="#63b8ff" stroke="#63b8ff" points="598.57,-159.24 608.94,-157.09 599.49,-152.3 598.57,-159.24"/>
</a>
</g>
</g>
</g>
</svg>
