<?xml version="1.0" encoding="UTF-8" standalone="no"?>
<!DOCTYPE svg PUBLIC "-//W3C//DTD SVG 1.1//EN"
 "http://www.w3.org/Graphics/SVG/1.1/DTD/svg11.dtd">
<!-- Generated by graphviz version 2.43.0 (0)
 -->
<!-- Title: vprint_buffered Pages: 1 -->
<svg width="758pt" height="454pt"
 viewBox="0.00 0.00 758.00 453.50" xmlns="http://www.w3.org/2000/svg" xmlns:xlink="http://www.w3.org/1999/xlink">
<g id="graph0" class="graph" transform="scale(1 1) rotate(0) translate(4 449.5)">
<title>vprint_buffered</title>
<!-- Node1 -->
<g id="Node000001" class="node">
<title>Node1</title>
<g id="a_Node000001"><a xlink:title=" ">
<polygon fill="#999999" stroke="#666666" points="91,-255.5 0,-255.5 0,-236.5 91,-236.5 91,-255.5"/>
<text text-anchor="middle" x="45.5" y="-243.5" font-family="Helvetica,sans-Serif" font-size="10.00">vprint_buffered</text>
</a>
</g>
</g>
<!-- Node2 -->
<g id="Node000002" class="node">
<title>Node2</title>
<g id="a_Node000002"><a xlink:href="classbasic__memory__buffer.html#a7a9300acfadb00a835b36a86a198f433" target="_top" xlink:title=" ">
<polygon fill="white" stroke="#666666" points="255,-371 127,-371 127,-341 255,-341 255,-371"/>
<text text-anchor="start" x="135" y="-359" font-family="Helvetica,sans-Serif" font-size="10.00">basic_memory_buffer</text>
<text text-anchor="middle" x="191" y="-348" font-family="Helvetica,sans-Serif" font-size="10.00">::basic_memory_buffer</text>
</a>
</g>
</g>
<!-- Node1&#45;&gt;Node2 -->
<g id="edge1_Node000001_Node000002" class="edge">
<title>Node1&#45;&gt;Node2</title>
<g id="a_edge1_Node000001_Node000002"><a xlink:title=" ">
<path fill="none" stroke="#63b8ff" d="M53.16,-255.61C65.72,-273.07 94.57,-310.23 127,-332 129.25,-333.51 131.6,-334.94 134.02,-336.29"/>
<polygon fill="#63b8ff" stroke="#63b8ff" points="132.54,-339.47 143.04,-340.88 135.71,-333.23 132.54,-339.47"/>
</a>
</g>
</g>
<!-- Node9 -->
<g id="Node000009" class="node">
<title>Node9</title>
<g id="a_Node000009"><a xlink:href="classbasic__string__view.html#aae708273ca864680a424c10441799605" target="_top" xlink:title=" ">
<polygon fill="white" stroke="#666666" points="245.5,-323 136.5,-323 136.5,-293 245.5,-293 245.5,-323"/>
<text text-anchor="start" x="144.5" y="-311" font-family="Helvetica,sans-Serif" font-size="10.00">basic_string_view::</text>
<text text-anchor="middle" x="191" y="-300" font-family="Helvetica,sans-Serif" font-size="10.00">basic_string_view</text>
</a>
</g>
</g>
<!-- Node1&#45;&gt;Node9 -->
<g id="edge8_Node000001_Node000009" class="edge">
<title>Node1&#45;&gt;Node9</title>
<g id="a_edge8_Node000001_Node000009"><a xlink:title=" ">
<path fill="none" stroke="#63b8ff" d="M65.83,-255.64C82.02,-263.59 105.81,-274.98 127,-284 131.11,-285.75 135.39,-287.51 139.71,-289.24"/>
<polygon fill="#63b8ff" stroke="#63b8ff" points="138.56,-292.55 149.15,-292.96 141.13,-286.04 138.56,-292.55"/>
</a>
</g>
</g>
<!-- Node10 -->
<g id="Node000010" class="node">
<title>Node10</title>
<g id="a_Node000010"><a xlink:href="classdetail_1_1buffer.html#aeb33e0a2d2be2bbca9e0236c148089c8" target="_top" xlink:title="Returns a pointer to the buffer data (not null&#45;terminated).">
<polygon fill="white" stroke="#666666" points="244.5,-274.5 137.5,-274.5 137.5,-255.5 244.5,-255.5 244.5,-274.5"/>
<text text-anchor="middle" x="191" y="-262.5" font-family="Helvetica,sans-Serif" font-size="10.00">detail::buffer::data</text>
</a>
</g>
</g>
<!-- Node1&#45;&gt;Node10 -->
<g id="edge9_Node000001_Node000010" class="edge">
<title>Node1&#45;&gt;Node10</title>
<g id="a_edge9_Node000001_Node000010"><a xlink:title=" ">
<path fill="none" stroke="#63b8ff" d="M91.12,-251.91C102.56,-253.42 115.08,-255.08 127.25,-256.69"/>
<polygon fill="#63b8ff" stroke="#63b8ff" points="126.99,-260.19 137.36,-258.03 127.9,-253.25 126.99,-260.19"/>
</a>
</g>
</g>
<!-- Node11 -->
<g id="Node000011" class="node">
<title>Node11</title>
<g id="a_Node000011"><a xlink:href="namespacedetail.html#a4ee0408b74a4f3b21a147b4e600c5858" target="_top" xlink:title=" ">
<polygon fill="white" stroke="#666666" points="227.5,-237.5 154.5,-237.5 154.5,-218.5 227.5,-218.5 227.5,-237.5"/>
<text text-anchor="middle" x="191" y="-225.5" font-family="Helvetica,sans-Serif" font-size="10.00">detail::print</text>
</a>
</g>
</g>
<!-- Node1&#45;&gt;Node11 -->
<g id="edge10_Node000001_Node000011" class="edge">
<title>Node1&#45;&gt;Node11</title>
<g id="a_edge10_Node000001_Node000011"><a xlink:title=" ">
<path fill="none" stroke="#63b8ff" d="M91.12,-240.4C107.88,-238.3 126.96,-235.91 143.85,-233.79"/>
<polygon fill="#63b8ff" stroke="#63b8ff" points="144.57,-237.23 154.05,-232.51 143.69,-230.28 144.57,-237.23"/>
</a>
</g>
</g>
<!-- Node16 -->
<g id="Node000016" class="node">
<title>Node16</title>
<g id="a_Node000016"><a xlink:href="classdetail_1_1buffer.html#a8685285932360c284d19003fc4ba3edc" target="_top" xlink:title="Returns the size of this buffer.">
<polygon fill="white" stroke="#666666" points="243,-163.5 139,-163.5 139,-144.5 243,-144.5 243,-163.5"/>
<text text-anchor="middle" x="191" y="-151.5" font-family="Helvetica,sans-Serif" font-size="10.00">detail::buffer::size</text>
</a>
</g>
</g>
<!-- Node1&#45;&gt;Node16 -->
<g id="edge15_Node000001_Node000016" class="edge">
<title>Node1&#45;&gt;Node16</title>
<g id="a_edge15_Node000001_Node000016"><a xlink:title=" ">
<path fill="none" stroke="#63b8ff" d="M54.36,-236.3C67.66,-220.5 96.2,-189.26 127,-172 130.22,-170.2 133.63,-168.56 137.13,-167.08"/>
<polygon fill="#63b8ff" stroke="#63b8ff" points="138.45,-170.33 146.56,-163.52 135.97,-163.78 138.45,-170.33"/>
</a>
</g>
</g>
<!-- Node17 -->
<g id="Node000017" class="node">
<title>Node17</title>
<g id="a_Node000017"><a xlink:href="namespacedetail.html#a374a461d344b73468831b40acf5e4635" target="_top" xlink:title=" ">
<polygon fill="white" stroke="#666666" points="243,-200.5 139,-200.5 139,-181.5 243,-181.5 243,-200.5"/>
<text text-anchor="middle" x="191" y="-188.5" font-family="Helvetica,sans-Serif" font-size="10.00">detail::vformat_to</text>
</a>
</g>
</g>
<!-- Node1&#45;&gt;Node17 -->
<g id="edge16_Node000001_Node000017" class="edge">
<title>Node1&#45;&gt;Node17</title>
<g id="a_edge16_Node000001_Node000017"><a xlink:title=" ">
<path fill="none" stroke="#63b8ff" d="M66.06,-236.41C82.18,-228.71 105.77,-217.91 127,-210 132.97,-207.77 139.33,-205.62 145.63,-203.6"/>
<polygon fill="#63b8ff" stroke="#63b8ff" points="146.89,-206.88 155.4,-200.57 144.82,-200.19 146.89,-206.88"/>
</a>
</g>
</g>
<!-- Node3 -->
<g id="Node000003" class="node">
<title>Node3</title>
<g id="a_Node000003"><a xlink:href="classbasic__memory__buffer.html#a97d9a0a0f9827c9277e2eea97fa0309b" target="_top" xlink:title=" ">
<polygon fill="white" stroke="#666666" points="417.5,-414 295.5,-414 295.5,-384 417.5,-384 417.5,-414"/>
<text text-anchor="start" x="303.5" y="-402" font-family="Helvetica,sans-Serif" font-size="10.00">basic_memory_buffer</text>
<text text-anchor="middle" x="356.5" y="-391" font-family="Helvetica,sans-Serif" font-size="10.00">::grow</text>
</a>
</g>
</g>
<!-- Node2&#45;&gt;Node3 -->
<g id="edge2_Node000002_Node000003" class="edge">
<title>Node2&#45;&gt;Node3</title>
<g id="a_edge2_Node000002_Node000003"><a xlink:title=" ">
<path fill="none" stroke="#63b8ff" d="M249.18,-371.04C261.88,-374.38 275.45,-377.95 288.49,-381.38"/>
<polygon fill="#63b8ff" stroke="#63b8ff" points="287.79,-384.81 298.35,-383.97 289.57,-378.04 287.79,-384.81"/>
</a>
</g>
</g>
<!-- Node8 -->
<g id="Node000008" class="node">
<title>Node8</title>
<g id="a_Node000008"><a xlink:href="namespacedetail.html#a75ed2634319883d038944529dbb954e2" target="_top" xlink:title=" ">
<polygon fill="white" stroke="#666666" points="409.5,-366 303.5,-366 303.5,-336 409.5,-336 409.5,-366"/>
<text text-anchor="start" x="311.5" y="-354" font-family="Helvetica,sans-Serif" font-size="10.00">detail::is_constant</text>
<text text-anchor="middle" x="356.5" y="-343" font-family="Helvetica,sans-Serif" font-size="10.00">_evaluated</text>
</a>
</g>
</g>
<!-- Node2&#45;&gt;Node8 -->
<g id="edge7_Node000002_Node000008" class="edge">
<title>Node2&#45;&gt;Node8</title>
<g id="a_edge7_Node000002_Node000008"><a xlink:title=" ">
<path fill="none" stroke="#63b8ff" d="M255.21,-354.07C267.64,-353.69 280.67,-353.29 293.07,-352.91"/>
<polygon fill="#63b8ff" stroke="#63b8ff" points="293.42,-356.4 303.31,-352.6 293.21,-349.4 293.42,-356.4"/>
</a>
</g>
</g>
<!-- Node4 -->
<g id="Node000004" class="node">
<title>Node4</title>
<g id="a_Node000004"><a xlink:href="namespacedetail.html#a9d0b4b56d52390d7c8a4be7baa5e2382" target="_top" xlink:title=" ">
<polygon fill="white" stroke="#666666" points="589,-445.5 461,-445.5 461,-426.5 589,-426.5 589,-445.5"/>
<text text-anchor="middle" x="525" y="-433.5" font-family="Helvetica,sans-Serif" font-size="10.00">detail::abort_fuzzing_if</text>
</a>
</g>
</g>
<!-- Node3&#45;&gt;Node4 -->
<g id="edge3_Node000003_Node000004" class="edge">
<title>Node3&#45;&gt;Node4</title>
<g id="a_edge3_Node000003_Node000004"><a xlink:title=" ">
<path fill="none" stroke="#63b8ff" d="M417.61,-412.36C435.21,-416.27 454.3,-420.51 471.4,-424.31"/>
<polygon fill="#63b8ff" stroke="#63b8ff" points="470.68,-427.74 481.2,-426.49 472.2,-420.9 470.68,-427.74"/>
</a>
</g>
</g>
<!-- Node6 -->
<g id="Node000006" class="node">
<title>Node6</title>
<g id="a_Node000006"><a xlink:href="namespacedetail.html#a208b54c1c61a9bce9df4531a657a0c64" target="_top" xlink:title=" ">
<polygon fill="white" stroke="#666666" points="569.5,-408.5 480.5,-408.5 480.5,-389.5 569.5,-389.5 569.5,-408.5"/>
<text text-anchor="middle" x="525" y="-396.5" font-family="Helvetica,sans-Serif" font-size="10.00">detail::assume</text>
</a>
</g>
</g>
<!-- Node3&#45;&gt;Node6 -->
<g id="edge5_Node000003_Node000006" class="edge">
<title>Node3&#45;&gt;Node6</title>
<g id="a_edge5_Node000003_Node000006"><a xlink:title=" ">
<path fill="none" stroke="#63b8ff" d="M417.61,-399C434.81,-399 453.45,-399 470.24,-399"/>
<polygon fill="#63b8ff" stroke="#63b8ff" points="470.43,-402.5 480.43,-399 470.43,-395.5 470.43,-402.5"/>
</a>
</g>
</g>
<!-- Node7 -->
<g id="Node000007" class="node">
<title>Node7</title>
<g id="a_Node000007"><a xlink:href="base_8h.html#a67ebc2a5b1748c4692931267cd6f89bf" target="_top" xlink:title=" ">
<polygon fill="white" stroke="#666666" points="551.5,-371.5 498.5,-371.5 498.5,-352.5 551.5,-352.5 551.5,-371.5"/>
<text text-anchor="middle" x="525" y="-359.5" font-family="Helvetica,sans-Serif" font-size="10.00">max_of</text>
</a>
</g>
</g>
<!-- Node3&#45;&gt;Node7 -->
<g id="edge6_Node000003_Node000007" class="edge">
<title>Node3&#45;&gt;Node7</title>
<g id="a_edge6_Node000003_Node000007"><a xlink:title=" ">
<path fill="none" stroke="#63b8ff" d="M417.61,-385.64C441.36,-380.37 467.83,-374.48 488.43,-369.9"/>
<polygon fill="#63b8ff" stroke="#63b8ff" points="489.32,-373.29 498.33,-367.71 487.81,-366.46 489.32,-373.29"/>
</a>
</g>
</g>
<!-- Node5 -->
<g id="Node000005" class="node">
<title>Node5</title>
<g id="a_Node000005"><a xlink:href="namespacedetail.html#a1fe84ebaf96215ce0665d95b3124c2df" target="_top" xlink:title=" ">
<polygon fill="white" stroke="#666666" points="750,-445.5 628,-445.5 628,-426.5 750,-426.5 750,-445.5"/>
<text text-anchor="middle" x="689" y="-433.5" font-family="Helvetica,sans-Serif" font-size="10.00">detail::ignore_unused</text>
</a>
</g>
</g>
<!-- Node4&#45;&gt;Node5 -->
<g id="edge4_Node000004_Node000005" class="edge">
<title>Node4&#45;&gt;Node5</title>
<g id="a_edge4_Node000004_Node000005"><a xlink:title=" ">
<path fill="none" stroke="#63b8ff" d="M589.1,-436C598.49,-436 608.23,-436 617.76,-436"/>
<polygon fill="#63b8ff" stroke="#63b8ff" points="617.99,-439.5 627.99,-436 617.99,-432.5 617.99,-439.5"/>
</a>
</g>
</g>
<!-- Node12 -->
<g id="Node000012" class="node">
<title>Node12</title>
<g id="a_Node000012"><a xlink:href="classbasic__string__view.html#a39cdfe061dc6d64a3adc230b62d8a026" target="_top" xlink:title=" ">
<polygon fill="white" stroke="#666666" points="422,-237.5 291,-237.5 291,-218.5 422,-218.5 422,-237.5"/>
<text text-anchor="middle" x="356.5" y="-225.5" font-family="Helvetica,sans-Serif" font-size="10.00">basic_string_view::data</text>
</a>
</g>
</g>
<!-- Node11&#45;&gt;Node12 -->
<g id="edge11_Node000011_Node000012" class="edge">
<title>Node11&#45;&gt;Node12</title>
<g id="a_edge11_Node000011_Node000012"><a xlink:title=" ">
<path fill="none" stroke="#63b8ff" d="M227.88,-228C243.43,-228 262.24,-228 280.6,-228"/>
<polygon fill="#63b8ff" stroke="#63b8ff" points="280.72,-231.5 290.72,-228 280.72,-224.5 280.72,-231.5"/>
</a>
</g>
</g>
<!-- Node13 -->
<g id="Node000013" class="node">
<title>Node13</title>
<g id="a_Node000013"><a xlink:href="namespacedetail.html#a794a1985e3f6c245a917fd80a66950bd" target="_top" xlink:title=" ">
<polygon fill="white" stroke="#666666" points="404,-311.5 309,-311.5 309,-292.5 404,-292.5 404,-311.5"/>
<text text-anchor="middle" x="356.5" y="-299.5" font-family="Helvetica,sans-Serif" font-size="10.00">detail::fwrite_all</text>
</a>
</g>
</g>
<!-- Node11&#45;&gt;Node13 -->
<g id="edge12_Node000011_Node000013" class="edge">
<title>Node11&#45;&gt;Node13</title>
<g id="a_edge12_Node000011_Node000013"><a xlink:title=" ">
<path fill="none" stroke="#63b8ff" d="M227.67,-235.36C236.97,-238.17 246.7,-241.96 255,-247 274.61,-258.91 271.27,-272.29 291,-284 293.85,-285.69 296.86,-287.23 299.97,-288.63"/>
<polygon fill="#63b8ff" stroke="#63b8ff" points="298.91,-291.97 309.5,-292.41 301.5,-285.47 298.91,-291.97"/>
</a>
</g>
</g>
<!-- Node15 -->
<g id="Node000015" class="node">
<title>Node15</title>
<g id="a_Node000015"><a xlink:href="classbasic__string__view.html#a216bbe1b012b590698d7bb4e96d1af3f" target="_top" xlink:title=" ">
<polygon fill="white" stroke="#666666" points="420.5,-274.5 292.5,-274.5 292.5,-255.5 420.5,-255.5 420.5,-274.5"/>
<text text-anchor="middle" x="356.5" y="-262.5" font-family="Helvetica,sans-Serif" font-size="10.00">basic_string_view::size</text>
</a>
</g>
</g>
<!-- Node11&#45;&gt;Node15 -->
<g id="edge14_Node000011_Node000015" class="edge">
<title>Node11&#45;&gt;Node15</title>
<g id="a_edge14_Node000011_Node000015"><a xlink:title=" ">
<path fill="none" stroke="#63b8ff" d="M227.88,-236.12C250.02,-241.13 278.8,-247.64 303.43,-253.22"/>
<polygon fill="#63b8ff" stroke="#63b8ff" points="302.81,-256.67 313.34,-255.46 304.36,-249.84 302.81,-256.67"/>
</a>
</g>
</g>
<!-- Node14 -->
<g id="Node000014" class="node">
<title>Node14</title>
<g id="a_Node000014"><a xlink:href="format_8h.html#a0558467fc6b6aa30ea74d60aafdf7821" target="_top" xlink:title=" ">
<polygon fill="white" stroke="#666666" points="565.5,-311.5 484.5,-311.5 484.5,-292.5 565.5,-292.5 565.5,-311.5"/>
<text text-anchor="middle" x="525" y="-299.5" font-family="Helvetica,sans-Serif" font-size="10.00">system_error</text>
</a>
</g>
</g>
<!-- Node13&#45;&gt;Node14 -->
<g id="edge13_Node000013_Node000014" class="edge">
<title>Node13&#45;&gt;Node14</title>
<g id="a_edge13_Node000013_Node000014"><a xlink:title=" ">
<path fill="none" stroke="#63b8ff" d="M404.32,-302C426.08,-302 451.97,-302 474.09,-302"/>
<polygon fill="#63b8ff" stroke="#63b8ff" points="474.29,-305.5 484.29,-302 474.29,-298.5 474.29,-305.5"/>
</a>
</g>
</g>
<!-- Node17&#45;&gt;Node12 -->
<g id="edge18_Node000017_Node000012" class="edge">
<title>Node17&#45;&gt;Node12</title>
<g id="a_edge18_Node000017_Node000012"><a xlink:title=" ">
<path fill="none" stroke="#63b8ff" d="M234.11,-200.53C255.19,-205.3 280.92,-211.12 303.26,-216.18"/>
<polygon fill="#63b8ff" stroke="#63b8ff" points="302.73,-219.65 313.25,-218.44 304.27,-212.82 302.73,-219.65"/>
</a>
</g>
</g>
<!-- Node17&#45;&gt;Node15 -->
<g id="edge27_Node000017_Node000015" class="edge">
<title>Node17&#45;&gt;Node15</title>
<g id="a_edge27_Node000017_Node000015"><a xlink:title=" ">
<path fill="none" stroke="#63b8ff" d="M234.28,-200.51C241.47,-203.02 248.65,-206.14 255,-210 274.61,-221.91 271.27,-235.29 291,-247 293.85,-248.69 296.86,-250.23 299.97,-251.63"/>
<polygon fill="#63b8ff" stroke="#63b8ff" points="298.91,-254.97 309.5,-255.41 301.5,-248.47 298.91,-254.97"/>
</a>
</g>
</g>
<!-- Node18 -->
<g id="Node000018" class="node">
<title>Node18</title>
<g id="a_Node000018"><a xlink:href="classbasic__appender.html#a3f0cd72d9279e98079287ae5c6cc53c0" target="_top" xlink:title=" ">
<polygon fill="white" stroke="#666666" points="419,-30 294,-30 294,0 419,0 419,-30"/>
<text text-anchor="start" x="302" y="-18" font-family="Helvetica,sans-Serif" font-size="10.00">basic_appender::basic</text>
<text text-anchor="middle" x="356.5" y="-7" font-family="Helvetica,sans-Serif" font-size="10.00">_appender</text>
</a>
</g>
</g>
<!-- Node17&#45;&gt;Node18 -->
<g id="edge17_Node000017_Node000018" class="edge">
<title>Node17&#45;&gt;Node18</title>
<g id="a_edge17_Node000017_Node000018"><a xlink:title=" ">
<path fill="none" stroke="#63b8ff" d="M241.93,-181.39C246.77,-178.93 251.26,-175.85 255,-172 297.68,-128.08 249.73,-84.24 291,-39 291.88,-38.03 292.81,-37.1 293.77,-36.21"/>
<polygon fill="#63b8ff" stroke="#63b8ff" points="295.98,-38.93 301.8,-30.08 291.73,-33.37 295.98,-38.93"/>
</a>
</g>
</g>
<!-- Node19 -->
<g id="Node000019" class="node">
<title>Node19</title>
<g id="a_Node000019"><a xlink:href="namespacedetail.html#a60a15c04518d5955ecfae225402491bb" target="_top" xlink:title=" ">
<polygon fill="white" stroke="#666666" points="398,-200.5 315,-200.5 315,-181.5 398,-181.5 398,-200.5"/>
<text text-anchor="middle" x="356.5" y="-188.5" font-family="Helvetica,sans-Serif" font-size="10.00">detail::equal2</text>
</a>
</g>
</g>
<!-- Node17&#45;&gt;Node19 -->
<g id="edge19_Node000017_Node000019" class="edge">
<title>Node17&#45;&gt;Node19</title>
<g id="a_edge19_Node000017_Node000019"><a xlink:title=" ">
<path fill="none" stroke="#63b8ff" d="M243.28,-191C262.81,-191 285.05,-191 304.55,-191"/>
<polygon fill="#63b8ff" stroke="#63b8ff" points="304.76,-194.5 314.76,-191 304.76,-187.5 304.76,-194.5"/>
</a>
</g>
</g>
<!-- Node20 -->
<g id="Node000020" class="node">
<title>Node20</title>
<g id="a_Node000020"><a xlink:href="classbasic__format__args.html#a3339d3a4e4daaf7bb0de1a8084e7f086" target="_top" xlink:title="Returns the argument with the specified id.">
<polygon fill="white" stroke="#666666" points="420.5,-163.5 292.5,-163.5 292.5,-144.5 420.5,-144.5 420.5,-163.5"/>
<text text-anchor="middle" x="356.5" y="-151.5" font-family="Helvetica,sans-Serif" font-size="10.00">basic_format_args::get</text>
</a>
</g>
</g>
<!-- Node17&#45;&gt;Node20 -->
<g id="edge20_Node000017_Node000020" class="edge">
<title>Node17&#45;&gt;Node20</title>
<g id="a_edge20_Node000017_Node000020"><a xlink:title=" ">
<path fill="none" stroke="#63b8ff" d="M234.11,-181.47C255.19,-176.7 280.92,-170.88 303.26,-165.82"/>
<polygon fill="#63b8ff" stroke="#63b8ff" points="304.27,-169.18 313.25,-163.56 302.73,-162.35 304.27,-169.18"/>
</a>
</g>
</g>
<!-- Node24 -->
<g id="Node000024" class="node">
<title>Node24</title>
<g id="a_Node000024"><a xlink:href="classparse__context.html#a9da9230b8f03bb6579efdcaae4b18003" target="_top" xlink:title=" ">
<polygon fill="white" stroke="#666666" points="416,-78 297,-78 297,-48 416,-48 416,-78"/>
<text text-anchor="start" x="305" y="-66" font-family="Helvetica,sans-Serif" font-size="10.00">parse_context::parse</text>
<text text-anchor="middle" x="356.5" y="-55" font-family="Helvetica,sans-Serif" font-size="10.00">_context</text>
</a>
</g>
</g>
<!-- Node17&#45;&gt;Node24 -->
<g id="edge25_Node000017_Node000024" class="edge">
<title>Node17&#45;&gt;Node24</title>
<g id="a_edge25_Node000017_Node000024"><a xlink:title=" ">
<path fill="none" stroke="#63b8ff" d="M240.15,-181.45C245.56,-178.99 250.66,-175.89 255,-172 285.53,-144.59 261.35,-115.36 291,-87 292.25,-85.81 293.56,-84.67 294.92,-83.59"/>
<polygon fill="#63b8ff" stroke="#63b8ff" points="296.89,-86.49 303.24,-78 292.99,-80.68 296.89,-86.49"/>
</a>
</g>
</g>
<!-- Node25 -->
<g id="Node000025" class="node">
<title>Node25</title>
<g id="a_Node000025"><a xlink:href="namespacedetail.html#a90b356f92e340e20002ede151cfc6fab" target="_top" xlink:title=" ">
<polygon fill="white" stroke="#666666" points="414.5,-126 298.5,-126 298.5,-96 414.5,-96 414.5,-126"/>
<text text-anchor="start" x="306.5" y="-114" font-family="Helvetica,sans-Serif" font-size="10.00">detail::parse_format</text>
<text text-anchor="middle" x="356.5" y="-103" font-family="Helvetica,sans-Serif" font-size="10.00">_string</text>
</a>
</g>
</g>
<!-- Node17&#45;&gt;Node25 -->
<g id="edge26_Node000017_Node000025" class="edge">
<title>Node17&#45;&gt;Node25</title>
<g id="a_edge26_Node000017_Node000025"><a xlink:title=" ">
<path fill="none" stroke="#63b8ff" d="M234.28,-181.49C241.47,-178.98 248.65,-175.86 255,-172 274.61,-160.09 271.78,-147.53 291,-135 293.39,-133.44 295.9,-131.96 298.48,-130.57"/>
<polygon fill="#63b8ff" stroke="#63b8ff" points="300.06,-133.69 307.48,-126.12 296.96,-127.41 300.06,-133.69"/>
</a>
</g>
</g>
<!-- Node21 -->
<g id="Node000021" class="node">
<title>Node21</title>
<g id="a_Node000021"><a xlink:href="classbasic__format__args.html#a812f954be08646744a14d71f20b97830" target="_top" xlink:title=" ">
<polygon fill="white" stroke="#666666" points="745.5,-167 632.5,-167 632.5,-137 745.5,-137 745.5,-167"/>
<text text-anchor="start" x="640.5" y="-155" font-family="Helvetica,sans-Serif" font-size="10.00">basic_format_args::</text>
<text text-anchor="middle" x="689" y="-144" font-family="Helvetica,sans-Serif" font-size="10.00">is_packed</text>
</a>
</g>
</g>
<!-- Node20&#45;&gt;Node21 -->
<g id="edge21_Node000020_Node000021" class="edge">
<title>Node20&#45;&gt;Node21</title>
<g id="a_edge21_Node000020_Node000021"><a xlink:title=" ">
<path fill="none" stroke="#63b8ff" d="M401.3,-163.58C418.84,-166.97 439.28,-170.34 458,-172 517.32,-177.27 532.76,-178.11 592,-172 601.91,-170.98 612.3,-169.38 622.44,-167.52"/>
<polygon fill="#63b8ff" stroke="#63b8ff" points="623.31,-170.92 632.46,-165.59 621.98,-164.04 623.31,-170.92"/>
</a>
</g>
</g>
<!-- Node22 -->
<g id="Node000022" class="node">
<title>Node22</title>
<g id="a_Node000022"><a xlink:href="classbasic__format__args.html#a7747894fe7c14fb78260b53ca7702782" target="_top" xlink:title=" ">
<polygon fill="white" stroke="#666666" points="581.5,-126 468.5,-126 468.5,-96 581.5,-96 581.5,-126"/>
<text text-anchor="start" x="476.5" y="-114" font-family="Helvetica,sans-Serif" font-size="10.00">basic_format_args::</text>
<text text-anchor="middle" x="525" y="-103" font-family="Helvetica,sans-Serif" font-size="10.00">max_size</text>
</a>
</g>
</g>
<!-- Node20&#45;&gt;Node22 -->
<g id="edge22_Node000020_Node000022" class="edge">
<title>Node20&#45;&gt;Node22</title>
<g id="a_edge22_Node000020_Node000022"><a xlink:title=" ">
<path fill="none" stroke="#63b8ff" d="M394.45,-144.46C413.31,-139.59 436.82,-133.52 458.61,-127.89"/>
<polygon fill="#63b8ff" stroke="#63b8ff" points="459.67,-131.23 468.48,-125.34 457.92,-124.45 459.67,-131.23"/>
</a>
</g>
</g>
<!-- Node23 -->
<g id="Node000023" class="node">
<title>Node23</title>
<g id="a_Node000023"><a xlink:href="classbasic__format__args.html#a4d5e597c31ce51609d7fa770c83dad39" target="_top" xlink:title=" ">
<polygon fill="white" stroke="#666666" points="592,-163.5 458,-163.5 458,-144.5 592,-144.5 592,-163.5"/>
<text text-anchor="middle" x="525" y="-151.5" font-family="Helvetica,sans-Serif" font-size="10.00">basic_format_args::type</text>
</a>
</g>
</g>
<!-- Node20&#45;&gt;Node23 -->
<g id="edge24_Node000020_Node000023" class="edge">
<title>Node20&#45;&gt;Node23</title>
<g id="a_edge24_Node000020_Node000023"><a xlink:title=" ">
<path fill="none" stroke="#63b8ff" d="M420.92,-154C429.74,-154 438.86,-154 447.88,-154"/>
<polygon fill="#63b8ff" stroke="#63b8ff" points="447.99,-157.5 457.99,-154 447.99,-150.5 447.99,-157.5"/>
</a>
</g>
</g>
<!-- Node22&#45;&gt;Node21 -->
<g id="edge23_Node000022_Node000021" class="edge">
<title>Node22&#45;&gt;Node21</title>
<g id="a_edge23_Node000022_Node000021"><a xlink:title=" ">
<path fill="none" stroke="#63b8ff" d="M581.75,-125.11C594.93,-128.45 609.11,-132.03 622.67,-135.47"/>
<polygon fill="#63b8ff" stroke="#63b8ff" points="621.87,-138.87 632.42,-137.93 623.58,-132.09 621.87,-138.87"/>
</a>
</g>
</g>
</g>
</svg>
