<?xml version="1.0" encoding="UTF-8" standalone="no"?>
<!DOCTYPE svg PUBLIC "-//W3C//DTD SVG 1.1//EN"
 "http://www.w3.org/Graphics/SVG/1.1/DTD/svg11.dtd">
<!-- Generated by graphviz version 2.43.0 (0)
 -->
<!-- Title: vformat_to Pages: 1 -->
<svg width="705pt" height="284pt"
 viewBox="0.00 0.00 705.00 283.50" xmlns="http://www.w3.org/2000/svg" xmlns:xlink="http://www.w3.org/1999/xlink">
<g id="graph0" class="graph" transform="scale(1 1) rotate(0) translate(4 279.5)">
<title>vformat_to</title>
<!-- Node1 -->
<g id="Node000001" class="node">
<title>Node1</title>
<g id="a_Node000001"><a xlink:title=" ">
<polygon fill="#999999" stroke="#666666" points="71,-153 0,-153 0,-134 71,-134 71,-153"/>
<text text-anchor="middle" x="35.5" y="-141" font-family="Helvetica,sans-Serif" font-size="10.00">vformat_to</text>
</a>
</g>
</g>
<!-- Node2 -->
<g id="Node000002" class="node">
<title>Node2</title>
<g id="a_Node000002"><a xlink:href="namespacedetail.html#a374a461d344b73468831b40acf5e4635" target="_top" xlink:title=" ">
<polygon fill="white" stroke="#666666" points="211,-153 107,-153 107,-134 211,-134 211,-153"/>
<text text-anchor="middle" x="159" y="-141" font-family="Helvetica,sans-Serif" font-size="10.00">detail::vformat_to</text>
</a>
</g>
</g>
<!-- Node1&#45;&gt;Node2 -->
<g id="edge1_Node000001_Node000002" class="edge">
<title>Node1&#45;&gt;Node2</title>
<g id="a_edge1_Node000001_Node000002"><a xlink:title=" ">
<path fill="none" stroke="#63b8ff" d="M71.32,-143.5C79.28,-143.5 87.98,-143.5 96.69,-143.5"/>
<polygon fill="#63b8ff" stroke="#63b8ff" points="96.88,-147 106.88,-143.5 96.88,-140 96.88,-147"/>
</a>
</g>
</g>
<!-- Node3 -->
<g id="Node000003" class="node">
<title>Node3</title>
<g id="a_Node000003"><a xlink:href="classbasic__appender.html#a3f0cd72d9279e98079287ae5c6cc53c0" target="_top" xlink:title=" ">
<polygon fill="white" stroke="#666666" points="375,-275.5 250,-275.5 250,-245.5 375,-245.5 375,-275.5"/>
<text text-anchor="start" x="258" y="-263.5" font-family="Helvetica,sans-Serif" font-size="10.00">basic_appender::basic</text>
<text text-anchor="middle" x="312.5" y="-252.5" font-family="Helvetica,sans-Serif" font-size="10.00">_appender</text>
</a>
</g>
</g>
<!-- Node2&#45;&gt;Node3 -->
<g id="edge2_Node000002_Node000003" class="edge">
<title>Node2&#45;&gt;Node3</title>
<g id="a_edge2_Node000002_Node000003"><a xlink:title=" ">
<path fill="none" stroke="#63b8ff" d="M166.56,-153.04C179.74,-171.58 211.3,-212.73 247,-236.5 249.38,-238.08 251.87,-239.58 254.44,-240.99"/>
<polygon fill="#63b8ff" stroke="#63b8ff" points="252.91,-244.14 263.42,-245.48 256.04,-237.87 252.91,-244.14"/>
</a>
</g>
</g>
<!-- Node4 -->
<g id="Node000004" class="node">
<title>Node4</title>
<g id="a_Node000004"><a xlink:href="classbasic__string__view.html#a39cdfe061dc6d64a3adc230b62d8a026" target="_top" xlink:title=" ">
<polygon fill="white" stroke="#666666" points="378,-227 247,-227 247,-208 378,-208 378,-227"/>
<text text-anchor="middle" x="312.5" y="-215" font-family="Helvetica,sans-Serif" font-size="10.00">basic_string_view::data</text>
</a>
</g>
</g>
<!-- Node2&#45;&gt;Node4 -->
<g id="edge3_Node000002_Node000004" class="edge">
<title>Node2&#45;&gt;Node4</title>
<g id="a_edge3_Node000002_Node000004"><a xlink:title=" ">
<path fill="none" stroke="#63b8ff" d="M172.28,-153.12C188.54,-165.43 218.49,-186.7 247,-199.5 251.35,-201.45 255.95,-203.24 260.62,-204.86"/>
<polygon fill="#63b8ff" stroke="#63b8ff" points="259.65,-208.23 270.25,-207.98 261.81,-201.57 259.65,-208.23"/>
</a>
</g>
</g>
<!-- Node5 -->
<g id="Node000005" class="node">
<title>Node5</title>
<g id="a_Node000005"><a xlink:href="namespacedetail.html#a60a15c04518d5955ecfae225402491bb" target="_top" xlink:title=" ">
<polygon fill="white" stroke="#666666" points="354,-190 271,-190 271,-171 354,-171 354,-190"/>
<text text-anchor="middle" x="312.5" y="-178" font-family="Helvetica,sans-Serif" font-size="10.00">detail::equal2</text>
</a>
</g>
</g>
<!-- Node2&#45;&gt;Node5 -->
<g id="edge4_Node000002_Node000005" class="edge">
<title>Node2&#45;&gt;Node5</title>
<g id="a_edge4_Node000002_Node000005"><a xlink:title=" ">
<path fill="none" stroke="#63b8ff" d="M199.02,-153.03C218.38,-157.76 241.97,-163.52 262.53,-168.54"/>
<polygon fill="#63b8ff" stroke="#63b8ff" points="261.81,-171.97 272.35,-170.94 263.47,-165.17 261.81,-171.97"/>
</a>
</g>
</g>
<!-- Node6 -->
<g id="Node000006" class="node">
<title>Node6</title>
<g id="a_Node000006"><a xlink:href="classbasic__format__args.html#a3339d3a4e4daaf7bb0de1a8084e7f086" target="_top" xlink:title="Returns the argument with the specified id.">
<polygon fill="white" stroke="#666666" points="376.5,-153 248.5,-153 248.5,-134 376.5,-134 376.5,-153"/>
<text text-anchor="middle" x="312.5" y="-141" font-family="Helvetica,sans-Serif" font-size="10.00">basic_format_args::get</text>
</a>
</g>
</g>
<!-- Node2&#45;&gt;Node6 -->
<g id="edge5_Node000002_Node000006" class="edge">
<title>Node2&#45;&gt;Node6</title>
<g id="a_edge5_Node000002_Node000006"><a xlink:title=" ">
<path fill="none" stroke="#63b8ff" d="M211.29,-143.5C219.96,-143.5 229.11,-143.5 238.21,-143.5"/>
<polygon fill="#63b8ff" stroke="#63b8ff" points="238.44,-147 248.44,-143.5 238.44,-140 238.44,-147"/>
</a>
</g>
</g>
<!-- Node10 -->
<g id="Node000010" class="node">
<title>Node10</title>
<g id="a_Node000010"><a xlink:href="classparse__context.html#a9da9230b8f03bb6579efdcaae4b18003" target="_top" xlink:title=" ">
<polygon fill="white" stroke="#666666" points="372,-115.5 253,-115.5 253,-85.5 372,-85.5 372,-115.5"/>
<text text-anchor="start" x="261" y="-103.5" font-family="Helvetica,sans-Serif" font-size="10.00">parse_context::parse</text>
<text text-anchor="middle" x="312.5" y="-92.5" font-family="Helvetica,sans-Serif" font-size="10.00">_context</text>
</a>
</g>
</g>
<!-- Node2&#45;&gt;Node10 -->
<g id="edge10_Node000002_Node000010" class="edge">
<title>Node2&#45;&gt;Node10</title>
<g id="a_edge10_Node000002_Node000010"><a xlink:title=" ">
<path fill="none" stroke="#63b8ff" d="M193.62,-133.96C209.88,-129.34 229.93,-123.65 248.86,-118.28"/>
<polygon fill="#63b8ff" stroke="#63b8ff" points="249.96,-121.6 258.63,-115.51 248.05,-114.87 249.96,-121.6"/>
</a>
</g>
</g>
<!-- Node11 -->
<g id="Node000011" class="node">
<title>Node11</title>
<g id="a_Node000011"><a xlink:href="namespacedetail.html#a90b356f92e340e20002ede151cfc6fab" target="_top" xlink:title=" ">
<polygon fill="white" stroke="#666666" points="370.5,-67.5 254.5,-67.5 254.5,-37.5 370.5,-37.5 370.5,-67.5"/>
<text text-anchor="start" x="262.5" y="-55.5" font-family="Helvetica,sans-Serif" font-size="10.00">detail::parse_format</text>
<text text-anchor="middle" x="312.5" y="-44.5" font-family="Helvetica,sans-Serif" font-size="10.00">_string</text>
</a>
</g>
</g>
<!-- Node2&#45;&gt;Node11 -->
<g id="edge11_Node000002_Node000011" class="edge">
<title>Node2&#45;&gt;Node11</title>
<g id="a_edge11_Node000002_Node000011"><a xlink:title=" ">
<path fill="none" stroke="#63b8ff" d="M170.26,-133.93C185.83,-119.8 216.82,-93.23 247,-76.5 250.02,-74.83 253.17,-73.23 256.4,-71.7"/>
<polygon fill="#63b8ff" stroke="#63b8ff" points="257.9,-74.87 265.62,-67.62 255.06,-68.47 257.9,-74.87"/>
</a>
</g>
</g>
<!-- Node12 -->
<g id="Node000012" class="node">
<title>Node12</title>
<g id="a_Node000012"><a xlink:href="classbasic__string__view.html#a216bbe1b012b590698d7bb4e96d1af3f" target="_top" xlink:title=" ">
<polygon fill="white" stroke="#666666" points="376.5,-19 248.5,-19 248.5,0 376.5,0 376.5,-19"/>
<text text-anchor="middle" x="312.5" y="-7" font-family="Helvetica,sans-Serif" font-size="10.00">basic_string_view::size</text>
</a>
</g>
</g>
<!-- Node2&#45;&gt;Node12 -->
<g id="edge12_Node000002_Node000012" class="edge">
<title>Node2&#45;&gt;Node12</title>
<g id="a_edge12_Node000002_Node000012"><a xlink:title=" ">
<path fill="none" stroke="#63b8ff" d="M164.59,-133.82C175.58,-111.69 205.61,-57.11 247,-28.5 249.87,-26.51 252.95,-24.73 256.16,-23.14"/>
<polygon fill="#63b8ff" stroke="#63b8ff" points="257.65,-26.3 265.43,-19.11 254.86,-19.88 257.65,-26.3"/>
</a>
</g>
</g>
<!-- Node7 -->
<g id="Node000007" class="node">
<title>Node7</title>
<g id="a_Node000007"><a xlink:href="classbasic__format__args.html#a812f954be08646744a14d71f20b97830" target="_top" xlink:title=" ">
<polygon fill="white" stroke="#666666" points="697,-179.5 584,-179.5 584,-149.5 697,-149.5 697,-179.5"/>
<text text-anchor="start" x="592" y="-167.5" font-family="Helvetica,sans-Serif" font-size="10.00">basic_format_args::</text>
<text text-anchor="middle" x="640.5" y="-156.5" font-family="Helvetica,sans-Serif" font-size="10.00">is_packed</text>
</a>
</g>
</g>
<!-- Node6&#45;&gt;Node7 -->
<g id="edge6_Node000006_Node000007" class="edge">
<title>Node6&#45;&gt;Node7</title>
<g id="a_edge6_Node000006_Node000007"><a xlink:title=" ">
<path fill="none" stroke="#63b8ff" d="M345.29,-153.11C364.89,-158.53 390.66,-164.75 414,-167.5 467.39,-173.79 528.38,-172.47 573.45,-169.89"/>
<polygon fill="#63b8ff" stroke="#63b8ff" points="573.92,-173.37 583.69,-169.27 573.49,-166.38 573.92,-173.37"/>
</a>
</g>
</g>
<!-- Node8 -->
<g id="Node000008" class="node">
<title>Node8</title>
<g id="a_Node000008"><a xlink:href="classbasic__format__args.html#a7747894fe7c14fb78260b53ca7702782" target="_top" xlink:title=" ">
<polygon fill="white" stroke="#666666" points="537.5,-158.5 424.5,-158.5 424.5,-128.5 537.5,-128.5 537.5,-158.5"/>
<text text-anchor="start" x="432.5" y="-146.5" font-family="Helvetica,sans-Serif" font-size="10.00">basic_format_args::</text>
<text text-anchor="middle" x="481" y="-135.5" font-family="Helvetica,sans-Serif" font-size="10.00">max_size</text>
</a>
</g>
</g>
<!-- Node6&#45;&gt;Node8 -->
<g id="edge7_Node000006_Node000008" class="edge">
<title>Node6&#45;&gt;Node8</title>
<g id="a_edge7_Node000006_Node000008"><a xlink:title=" ">
<path fill="none" stroke="#63b8ff" d="M376.92,-143.5C389.13,-143.5 401.94,-143.5 414.21,-143.5"/>
<polygon fill="#63b8ff" stroke="#63b8ff" points="414.38,-147 424.38,-143.5 414.38,-140 414.38,-147"/>
</a>
</g>
</g>
<!-- Node9 -->
<g id="Node000009" class="node">
<title>Node9</title>
<g id="a_Node000009"><a xlink:href="classbasic__format__args.html#a4d5e597c31ce51609d7fa770c83dad39" target="_top" xlink:title=" ">
<polygon fill="white" stroke="#666666" points="548,-110 414,-110 414,-91 548,-91 548,-110"/>
<text text-anchor="middle" x="481" y="-98" font-family="Helvetica,sans-Serif" font-size="10.00">basic_format_args::type</text>
</a>
</g>
</g>
<!-- Node6&#45;&gt;Node9 -->
<g id="edge9_Node000006_Node000009" class="edge">
<title>Node6&#45;&gt;Node9</title>
<g id="a_edge9_Node000006_Node000009"><a xlink:title=" ">
<path fill="none" stroke="#63b8ff" d="M350.45,-133.96C374.92,-127.64 407.21,-119.3 433.43,-112.53"/>
<polygon fill="#63b8ff" stroke="#63b8ff" points="434.34,-115.91 443.15,-110.02 432.59,-109.13 434.34,-115.91"/>
</a>
</g>
</g>
<!-- Node8&#45;&gt;Node7 -->
<g id="edge8_Node000008_Node000007" class="edge">
<title>Node8&#45;&gt;Node7</title>
<g id="a_edge8_Node000008_Node000007"><a xlink:title=" ">
<path fill="none" stroke="#63b8ff" d="M537.53,-150.9C549.29,-152.47 561.81,-154.14 573.91,-155.75"/>
<polygon fill="#63b8ff" stroke="#63b8ff" points="573.57,-159.24 583.94,-157.09 574.49,-152.3 573.57,-159.24"/>
</a>
</g>
</g>
</g>
</svg>
