<?xml version="1.0" encoding="UTF-8" standalone="no"?>
<!DOCTYPE svg PUBLIC "-//W3C//DTD SVG 1.1//EN"
 "http://www.w3.org/Graphics/SVG/1.1/DTD/svg11.dtd">
<!-- Generated by graphviz version 2.43.0 (0)
 -->
<!-- Title: system_error Pages: 1 -->
<svg width="456pt" height="101pt"
 viewBox="0.00 0.00 456.00 101.00" xmlns="http://www.w3.org/2000/svg" xmlns:xlink="http://www.w3.org/1999/xlink">
<g id="graph0" class="graph" transform="scale(1 1) rotate(0) translate(4 97)">
<title>system_error</title>
<!-- Node1 -->
<g id="Node000001" class="node">
<title>Node1</title>
<g id="a_Node000001"><a xlink:title=" ">
<polygon fill="#999999" stroke="#666666" points="448,-37 367,-37 367,-18 448,-18 448,-37"/>
<text text-anchor="middle" x="407.5" y="-25" font-family="Helvetica,sans-Serif" font-size="10.00">system_error</text>
</a>
</g>
</g>
<!-- Node2 -->
<g id="Node000002" class="node">
<title>Node2</title>
<g id="a_Node000002"><a xlink:href="namespacedetail.html#a794a1985e3f6c245a917fd80a66950bd" target="_top" xlink:title=" ">
<polygon fill="white" stroke="#666666" points="331,-56 236,-56 236,-37 331,-37 331,-56"/>
<text text-anchor="middle" x="283.5" y="-44" font-family="Helvetica,sans-Serif" font-size="10.00">detail::fwrite_all</text>
</a>
</g>
</g>
<!-- Node1&#45;&gt;Node2 -->
<g id="edge1_Node000001_Node000002" class="edge">
<title>Node1&#45;&gt;Node2</title>
<g id="a_edge1_Node000001_Node000002"><a xlink:title=" ">
<path fill="none" stroke="#63b8ff" d="M356.75,-35.25C348.29,-36.57 339.52,-37.93 331.13,-39.24"/>
<polygon fill="#63b8ff" stroke="#63b8ff" points="357.55,-38.67 366.89,-33.67 356.47,-31.75 357.55,-38.67"/>
</a>
</g>
</g>
<!-- Node7 -->
<g id="Node000007" class="node">
<title>Node7</title>
<g id="a_Node000007"><a xlink:href="xchar_8h.html#ad59e14d924bf2fe1d17939ad9d8b8d4a" target="_top" xlink:title=" ">
<polygon fill="white" stroke="#666666" points="306,-19 261,-19 261,0 306,0 306,-19"/>
<text text-anchor="middle" x="283.5" y="-7" font-family="Helvetica,sans-Serif" font-size="10.00">vprint</text>
</a>
</g>
</g>
<!-- Node1&#45;&gt;Node7 -->
<g id="edge6_Node000001_Node000007" class="edge">
<title>Node1&#45;&gt;Node7</title>
<g id="a_edge6_Node000001_Node000007"><a xlink:title=" ">
<path fill="none" stroke="#63b8ff" d="M356.72,-20.15C339.11,-17.56 320.2,-14.77 306.16,-12.7"/>
<polygon fill="#63b8ff" stroke="#63b8ff" points="356.49,-23.66 366.89,-21.66 357.51,-16.73 356.49,-23.66"/>
</a>
</g>
</g>
<!-- Node3 -->
<g id="Node000003" class="node">
<title>Node3</title>
<g id="a_Node000003"><a xlink:href="namespacedetail.html#a4ee0408b74a4f3b21a147b4e600c5858" target="_top" xlink:title=" ">
<polygon fill="white" stroke="#666666" points="200,-56 127,-56 127,-37 200,-37 200,-56"/>
<text text-anchor="middle" x="163.5" y="-44" font-family="Helvetica,sans-Serif" font-size="10.00">detail::print</text>
</a>
</g>
</g>
<!-- Node2&#45;&gt;Node3 -->
<g id="edge2_Node000002_Node000003" class="edge">
<title>Node2&#45;&gt;Node3</title>
<g id="a_edge2_Node000002_Node000003"><a xlink:title=" ">
<path fill="none" stroke="#63b8ff" d="M225.74,-46.5C217.06,-46.5 208.31,-46.5 200.24,-46.5"/>
<polygon fill="#63b8ff" stroke="#63b8ff" points="225.86,-50 235.86,-46.5 225.86,-43 225.86,-50"/>
</a>
</g>
</g>
<!-- Node4 -->
<g id="Node000004" class="node">
<title>Node4</title>
<g id="a_Node000004"><a xlink:href="compile_8h.html#aafd70447a5d15c593712be146611663d" target="_top" xlink:title=" ">
<polygon fill="white" stroke="#666666" points="65,-93 26,-93 26,-74 65,-74 65,-93"/>
<text text-anchor="middle" x="45.5" y="-81" font-family="Helvetica,sans-Serif" font-size="10.00">print</text>
</a>
</g>
</g>
<!-- Node3&#45;&gt;Node4 -->
<g id="edge3_Node000003_Node000004" class="edge">
<title>Node3&#45;&gt;Node4</title>
<g id="a_edge3_Node000003_Node000004"><a xlink:title=" ">
<path fill="none" stroke="#63b8ff" d="M123,-59.1C103.38,-65.36 80.6,-72.62 65.03,-77.59"/>
<polygon fill="#63b8ff" stroke="#63b8ff" points="124.16,-62.4 132.63,-56.03 122.04,-55.73 124.16,-62.4"/>
</a>
</g>
</g>
<!-- Node5 -->
<g id="Node000005" class="node">
<title>Node5</title>
<g id="a_Node000005"><a xlink:href="format-inl_8h.html#a3774f0f4816097d469f11407f83ee394" target="_top" xlink:title=" ">
<polygon fill="white" stroke="#666666" points="91,-56 0,-56 0,-37 91,-37 91,-56"/>
<text text-anchor="middle" x="45.5" y="-44" font-family="Helvetica,sans-Serif" font-size="10.00">vprint_buffered</text>
</a>
</g>
</g>
<!-- Node3&#45;&gt;Node5 -->
<g id="edge4_Node000003_Node000005" class="edge">
<title>Node3&#45;&gt;Node5</title>
<g id="a_edge4_Node000003_Node000005"><a xlink:title=" ">
<path fill="none" stroke="#63b8ff" d="M116.5,-46.5C108.22,-46.5 99.6,-46.5 91.35,-46.5"/>
<polygon fill="#63b8ff" stroke="#63b8ff" points="116.75,-50 126.75,-46.5 116.75,-43 116.75,-50"/>
</a>
</g>
</g>
<!-- Node6 -->
<g id="Node000006" class="node">
<title>Node6</title>
<g id="a_Node000006"><a xlink:href="format-inl_8h.html#a71033730e1d1c2c72b7905f21929df93" target="_top" xlink:title=" ">
<polygon fill="white" stroke="#666666" points="72.5,-19 18.5,-19 18.5,0 72.5,0 72.5,-19"/>
<text text-anchor="middle" x="45.5" y="-7" font-family="Helvetica,sans-Serif" font-size="10.00">vprintln</text>
</a>
</g>
</g>
<!-- Node3&#45;&gt;Node6 -->
<g id="edge5_Node000003_Node000006" class="edge">
<title>Node3&#45;&gt;Node6</title>
<g id="a_edge5_Node000003_Node000006"><a xlink:title=" ">
<path fill="none" stroke="#63b8ff" d="M122.68,-33.8C106.16,-28.53 87.46,-22.56 72.72,-17.86"/>
<polygon fill="#63b8ff" stroke="#63b8ff" points="122.04,-37.27 132.63,-36.97 124.16,-30.6 122.04,-37.27"/>
</a>
</g>
</g>
<!-- Node8 -->
<g id="Node000008" class="node">
<title>Node8</title>
<g id="a_Node000008"><a xlink:href="xchar_8h.html#ab357e28df4fee8293636aaf7a1662508" target="_top" xlink:title=" ">
<polygon fill="white" stroke="#666666" points="186,-19 141,-19 141,0 186,0 186,-19"/>
<text text-anchor="middle" x="163.5" y="-7" font-family="Helvetica,sans-Serif" font-size="10.00">vprint</text>
</a>
</g>
</g>
<!-- Node7&#45;&gt;Node8 -->
<g id="edge7_Node000007_Node000008" class="edge">
<title>Node7&#45;&gt;Node8</title>
<g id="a_edge7_Node000007_Node000008"><a xlink:title=" ">
<path fill="none" stroke="#63b8ff" d="M250.72,-9.5C230.22,-9.5 204.1,-9.5 186.01,-9.5"/>
<polygon fill="#63b8ff" stroke="#63b8ff" points="250.86,-13 260.86,-9.5 250.86,-6 250.86,-13"/>
</a>
</g>
</g>
</g>
</svg>
