<?xml version="1.0" encoding="UTF-8" standalone="no"?>
<!DOCTYPE svg PUBLIC "-//W3C//DTD SVG 1.1//EN"
 "http://www.w3.org/Graphics/SVG/1.1/DTD/svg11.dtd">
<!-- Generated by graphviz version 2.43.0 (0)
 -->
<!-- Title: format_system_error Pages: 1 -->
<svg width="613pt" height="347pt"
 viewBox="0.00 0.00 613.00 346.50" xmlns="http://www.w3.org/2000/svg" xmlns:xlink="http://www.w3.org/1999/xlink">
<g id="graph0" class="graph" transform="scale(1 1) rotate(0) translate(4 342.5)">
<title>format_system_error</title>
<!-- Node1 -->
<g id="Node000001" class="node">
<title>Node1</title>
<g id="a_Node000001"><a xlink:title=" ">
<polygon fill="#999999" stroke="#666666" points="119,-197 0,-197 0,-178 119,-178 119,-197"/>
<text text-anchor="middle" x="59.5" y="-185" font-family="Helvetica,sans-Serif" font-size="10.00">format_system_error</text>
</a>
</g>
</g>
<!-- Node2 -->
<g id="Node000002" class="node">
<title>Node2</title>
<g id="a_Node000002"><a xlink:href="classbasic__appender.html#a3f0cd72d9279e98079287ae5c6cc53c0" target="_top" xlink:title=" ">
<polygon fill="white" stroke="#666666" points="457.5,-338.5 332.5,-338.5 332.5,-308.5 457.5,-308.5 457.5,-338.5"/>
<text text-anchor="start" x="340.5" y="-326.5" font-family="Helvetica,sans-Serif" font-size="10.00">basic_appender::basic</text>
<text text-anchor="middle" x="395" y="-315.5" font-family="Helvetica,sans-Serif" font-size="10.00">_appender</text>
</a>
</g>
</g>
<!-- Node1&#45;&gt;Node2 -->
<g id="edge1_Node000001_Node000002" class="edge">
<title>Node1&#45;&gt;Node2</title>
<g id="a_edge1_Node000001_Node000002"><a xlink:title=" ">
<path fill="none" stroke="#63b8ff" d="M82.86,-197.01C129.04,-216.6 238.42,-262.71 331,-299.5 335.39,-301.25 339.96,-303.04 344.55,-304.82"/>
<polygon fill="#63b8ff" stroke="#63b8ff" points="343.35,-308.1 353.94,-308.44 345.87,-301.57 343.35,-308.1"/>
</a>
</g>
</g>
<!-- Node3 -->
<g id="Node000003" class="node">
<title>Node3</title>
<g id="a_Node000003"><a xlink:href="namespacedetail.html#a609d7411f77817f2def78afbbfdda40e" target="_top" xlink:title=" ">
<polygon fill="white" stroke="#666666" points="295,-197 155,-197 155,-178 295,-178 295,-197"/>
<text text-anchor="middle" x="225" y="-185" font-family="Helvetica,sans-Serif" font-size="10.00">detail::format_error_code</text>
</a>
</g>
</g>
<!-- Node1&#45;&gt;Node3 -->
<g id="edge2_Node000001_Node000003" class="edge">
<title>Node1&#45;&gt;Node3</title>
<g id="a_edge2_Node000001_Node000003"><a xlink:title=" ">
<path fill="none" stroke="#63b8ff" d="M119.07,-187.5C127.43,-187.5 136.15,-187.5 144.82,-187.5"/>
<polygon fill="#63b8ff" stroke="#63b8ff" points="144.97,-191 154.97,-187.5 144.97,-184 144.97,-191"/>
</a>
</g>
</g>
<!-- Node15 -->
<g id="Node000015" class="node">
<title>Node15</title>
<g id="a_Node000015"><a xlink:href="namespacedetail.html#a7006c3bfba162ffe36323541306bc600" target="_top" xlink:title=" ">
<polygon fill="white" stroke="#666666" points="262.5,-99 187.5,-99 187.5,-80 262.5,-80 262.5,-99"/>
<text text-anchor="middle" x="225" y="-87" font-family="Helvetica,sans-Serif" font-size="10.00">detail::write</text>
</a>
</g>
</g>
<!-- Node1&#45;&gt;Node15 -->
<g id="edge15_Node000001_Node000015" class="edge">
<title>Node1&#45;&gt;Node15</title>
<g id="a_edge15_Node000001_Node000015"><a xlink:title=" ">
<path fill="none" stroke="#63b8ff" d="M76.47,-177.92C104.97,-160.84 164.78,-125 198.84,-104.58"/>
<polygon fill="#63b8ff" stroke="#63b8ff" points="200.94,-107.4 207.72,-99.26 197.34,-101.4 200.94,-107.4"/>
</a>
</g>
</g>
<!-- Node3&#45;&gt;Node2 -->
<g id="edge3_Node000003_Node000002" class="edge">
<title>Node3&#45;&gt;Node2</title>
<g id="a_edge3_Node000003_Node000002"><a xlink:title=" ">
<path fill="none" stroke="#63b8ff" d="M234.14,-197.25C254.63,-221.62 308.31,-284.28 331,-299.5 333.25,-301.01 335.6,-302.44 338.02,-303.79"/>
<polygon fill="#63b8ff" stroke="#63b8ff" points="336.54,-306.96 347.04,-308.37 339.71,-300.72 336.54,-306.96"/>
</a>
</g>
</g>
<!-- Node4 -->
<g id="Node000004" class="node">
<title>Node4</title>
<g id="a_Node000004"><a xlink:href="namespacedetail.html#ac83427f5f16569571f442ec01887e045" target="_top" xlink:title=" ">
<polygon fill="white" stroke="#666666" points="450,-290 340,-290 340,-271 450,-271 450,-290"/>
<text text-anchor="middle" x="395" y="-278" font-family="Helvetica,sans-Serif" font-size="10.00">detail::count_digits</text>
</a>
</g>
</g>
<!-- Node3&#45;&gt;Node4 -->
<g id="edge4_Node000003_Node000004" class="edge">
<title>Node3&#45;&gt;Node4</title>
<g id="a_edge4_Node000003_Node000004"><a xlink:title=" ">
<path fill="none" stroke="#63b8ff" d="M236.84,-197.2C255.05,-213.01 293.47,-244.4 331,-262.5 334.86,-264.36 338.95,-266.07 343.12,-267.62"/>
<polygon fill="#63b8ff" stroke="#63b8ff" points="342.32,-271.04 352.91,-270.97 344.58,-264.42 342.32,-271.04"/>
</a>
</g>
</g>
<!-- Node7 -->
<g id="Node000007" class="node">
<title>Node7</title>
<g id="a_Node000007"><a xlink:href="base_8h.html#a497c119ac4dac361bf55a9fb042ee2c2" target="_top" xlink:title=" ">
<polygon fill="white" stroke="#666666" points="427.5,-253 362.5,-253 362.5,-234 427.5,-234 427.5,-253"/>
<text text-anchor="middle" x="395" y="-241" font-family="Helvetica,sans-Serif" font-size="10.00">format_to</text>
</a>
</g>
</g>
<!-- Node3&#45;&gt;Node7 -->
<g id="edge7_Node000003_Node000007" class="edge">
<title>Node3&#45;&gt;Node7</title>
<g id="a_edge7_Node000003_Node000007"><a xlink:title=" ">
<path fill="none" stroke="#63b8ff" d="M250.87,-197.05C272.04,-205.04 303.33,-216.55 331,-225.5 337.99,-227.76 345.47,-230.03 352.74,-232.15"/>
<polygon fill="#63b8ff" stroke="#63b8ff" points="351.89,-235.55 362.47,-234.95 353.82,-228.82 351.89,-235.55"/>
</a>
</g>
</g>
<!-- Node8 -->
<g id="Node000008" class="node">
<title>Node8</title>
<g id="a_Node000008"><a xlink:href="namespacedetail.html#ad066261eea6878e8474f069668e9a592" target="_top" xlink:title=" ">
<polygon fill="white" stroke="#666666" points="448.5,-216 341.5,-216 341.5,-197 448.5,-197 448.5,-216"/>
<text text-anchor="middle" x="395" y="-204" font-family="Helvetica,sans-Serif" font-size="10.00">detail::is_negative</text>
</a>
</g>
</g>
<!-- Node3&#45;&gt;Node8 -->
<g id="edge8_Node000003_Node000008" class="edge">
<title>Node3&#45;&gt;Node8</title>
<g id="a_edge8_Node000003_Node000008"><a xlink:title=" ">
<path fill="none" stroke="#63b8ff" d="M295.3,-195.34C307.19,-196.68 319.48,-198.07 331.18,-199.4"/>
<polygon fill="#63b8ff" stroke="#63b8ff" points="330.96,-202.89 341.29,-200.54 331.74,-195.94 330.96,-202.89"/>
</a>
</g>
</g>
<!-- Node9 -->
<g id="Node000009" class="node">
<title>Node9</title>
<g id="a_Node000009"><a xlink:href="classbasic__string__view.html#a216bbe1b012b590698d7bb4e96d1af3f" target="_top" xlink:title=" ">
<polygon fill="white" stroke="#666666" points="459,-179 331,-179 331,-160 459,-160 459,-179"/>
<text text-anchor="middle" x="395" y="-167" font-family="Helvetica,sans-Serif" font-size="10.00">basic_string_view::size</text>
</a>
</g>
</g>
<!-- Node3&#45;&gt;Node9 -->
<g id="edge9_Node000003_Node000009" class="edge">
<title>Node3&#45;&gt;Node9</title>
<g id="a_edge9_Node000003_Node000009"><a xlink:title=" ">
<path fill="none" stroke="#63b8ff" d="M295.3,-180.07C303.66,-179.18 312.21,-178.26 320.62,-177.36"/>
<polygon fill="#63b8ff" stroke="#63b8ff" points="321.21,-180.82 330.78,-176.27 320.47,-173.86 321.21,-180.82"/>
</a>
</g>
</g>
<!-- Node10 -->
<g id="Node000010" class="node">
<title>Node10</title>
<g id="a_Node000010"><a xlink:href="classdetail_1_1buffer.html#a8685285932360c284d19003fc4ba3edc" target="_top" xlink:title="Returns the size of this buffer.">
<polygon fill="white" stroke="#666666" points="447,-142 343,-142 343,-123 447,-123 447,-142"/>
<text text-anchor="middle" x="395" y="-130" font-family="Helvetica,sans-Serif" font-size="10.00">detail::buffer::size</text>
</a>
</g>
</g>
<!-- Node3&#45;&gt;Node10 -->
<g id="edge10_Node000003_Node000010" class="edge">
<title>Node3&#45;&gt;Node10</title>
<g id="a_edge10_Node000003_Node000010"><a xlink:title=" ">
<path fill="none" stroke="#63b8ff" d="M253.1,-177.9C274.25,-170.48 304.4,-160.07 331,-151.5 337.65,-149.36 344.71,-147.16 351.62,-145.04"/>
<polygon fill="#63b8ff" stroke="#63b8ff" points="353,-148.28 361.55,-142.03 350.97,-141.58 353,-148.28"/>
</a>
</g>
</g>
<!-- Node11 -->
<g id="Node000011" class="node">
<title>Node11</title>
<g id="a_Node000011"><a xlink:href="namespacedetail.html#a4855e668246c731a97484efc329f2aac" target="_top" xlink:title=" ">
<polygon fill="white" stroke="#666666" points="450,-105 340,-105 340,-86 450,-86 450,-105"/>
<text text-anchor="middle" x="395" y="-93" font-family="Helvetica,sans-Serif" font-size="10.00">detail::to_unsigned</text>
</a>
</g>
</g>
<!-- Node3&#45;&gt;Node11 -->
<g id="edge11_Node000003_Node000011" class="edge">
<title>Node3&#45;&gt;Node11</title>
<g id="a_edge11_Node000003_Node000011"><a xlink:title=" ">
<path fill="none" stroke="#63b8ff" d="M237.22,-177.89C255.65,-162.54 294.02,-132.37 331,-114.5 335.64,-112.26 340.6,-110.22 345.62,-108.37"/>
<polygon fill="#63b8ff" stroke="#63b8ff" points="346.95,-111.62 355.29,-105.08 344.7,-104.99 346.95,-111.62"/>
</a>
</g>
</g>
<!-- Node12 -->
<g id="Node000012" class="node">
<title>Node12</title>
<g id="a_Node000012"><a xlink:href="classdetail_1_1buffer.html#ac48c33ebe198a142029794f99ec73c31" target="_top" xlink:title=" ">
<polygon fill="white" stroke="#666666" points="444,-67.5 346,-67.5 346,-37.5 444,-37.5 444,-67.5"/>
<text text-anchor="start" x="354" y="-55.5" font-family="Helvetica,sans-Serif" font-size="10.00">detail::buffer::try</text>
<text text-anchor="middle" x="395" y="-44.5" font-family="Helvetica,sans-Serif" font-size="10.00">_resize</text>
</a>
</g>
</g>
<!-- Node3&#45;&gt;Node12 -->
<g id="edge12_Node000003_Node000012" class="edge">
<title>Node3&#45;&gt;Node12</title>
<g id="a_edge12_Node000003_Node000012"><a xlink:title=" ">
<path fill="none" stroke="#63b8ff" d="M234.17,-177.94C254.73,-154.07 308.56,-92.63 331,-77.5 333.87,-75.57 336.91,-73.75 340.04,-72.04"/>
<polygon fill="#63b8ff" stroke="#63b8ff" points="341.68,-75.14 349.06,-67.54 338.55,-68.87 341.68,-75.14"/>
</a>
</g>
</g>
<!-- Node5 -->
<g id="Node000005" class="node">
<title>Node5</title>
<g id="a_Node000005"><a xlink:href="namespacedetail.html#a300bc96ee936e9f6ef3565c8dff68a72" target="_top" xlink:title=" ">
<polygon fill="white" stroke="#666666" points="605,-319.5 495,-319.5 495,-289.5 605,-289.5 605,-319.5"/>
<text text-anchor="start" x="503" y="-307.5" font-family="Helvetica,sans-Serif" font-size="10.00">detail::count_digits</text>
<text text-anchor="middle" x="550" y="-296.5" font-family="Helvetica,sans-Serif" font-size="10.00">_fallback</text>
</a>
</g>
</g>
<!-- Node4&#45;&gt;Node5 -->
<g id="edge5_Node000004_Node000005" class="edge">
<title>Node4&#45;&gt;Node5</title>
<g id="a_edge5_Node000004_Node000005"><a xlink:title=" ">
<path fill="none" stroke="#63b8ff" d="M450.37,-289.03C461.53,-290.78 473.38,-292.64 484.85,-294.44"/>
<polygon fill="#63b8ff" stroke="#63b8ff" points="484.38,-297.91 494.8,-296 485.47,-290.99 484.38,-297.91"/>
</a>
</g>
</g>
<!-- Node6 -->
<g id="Node000006" class="node">
<title>Node6</title>
<g id="a_Node000006"><a xlink:href="namespacedetail.html#a75ed2634319883d038944529dbb954e2" target="_top" xlink:title=" ">
<polygon fill="white" stroke="#666666" points="603,-271.5 497,-271.5 497,-241.5 603,-241.5 603,-271.5"/>
<text text-anchor="start" x="505" y="-259.5" font-family="Helvetica,sans-Serif" font-size="10.00">detail::is_constant</text>
<text text-anchor="middle" x="550" y="-248.5" font-family="Helvetica,sans-Serif" font-size="10.00">_evaluated</text>
</a>
</g>
</g>
<!-- Node4&#45;&gt;Node6 -->
<g id="edge6_Node000004_Node000006" class="edge">
<title>Node4&#45;&gt;Node6</title>
<g id="a_edge6_Node000004_Node000006"><a xlink:title=" ">
<path fill="none" stroke="#63b8ff" d="M450.37,-271.97C462.18,-270.12 474.76,-268.15 486.85,-266.25"/>
<polygon fill="#63b8ff" stroke="#63b8ff" points="487.52,-269.69 496.85,-264.68 486.43,-262.77 487.52,-269.69"/>
</a>
</g>
</g>
<!-- Node13 -->
<g id="Node000013" class="node">
<title>Node13</title>
<g id="a_Node000013"><a xlink:href="base_8h.html#a2e5592bf3509e2fc090fa0f329ee551f" target="_top" xlink:title=" ">
<polygon fill="white" stroke="#666666" points="575,-83 525,-83 525,-64 575,-64 575,-83"/>
<text text-anchor="middle" x="550" y="-71" font-family="Helvetica,sans-Serif" font-size="10.00">min_of</text>
</a>
</g>
</g>
<!-- Node12&#45;&gt;Node13 -->
<g id="edge13_Node000012_Node000013" class="edge">
<title>Node12&#45;&gt;Node13</title>
<g id="a_edge13_Node000012_Node000013"><a xlink:title=" ">
<path fill="none" stroke="#63b8ff" d="M444.41,-59.14C467.33,-62.29 494.15,-65.97 514.9,-68.82"/>
<polygon fill="#63b8ff" stroke="#63b8ff" points="514.46,-72.29 524.84,-70.18 515.41,-65.36 514.46,-72.29"/>
</a>
</g>
</g>
<!-- Node14 -->
<g id="Node000014" class="node">
<title>Node14</title>
<g id="a_Node000014"><a xlink:href="classdetail_1_1buffer.html#a91bcecc177b01b84d693028111fbd8eb" target="_top" xlink:title=" ">
<polygon fill="white" stroke="#666666" points="599,-45.5 501,-45.5 501,-15.5 599,-15.5 599,-45.5"/>
<text text-anchor="start" x="509" y="-33.5" font-family="Helvetica,sans-Serif" font-size="10.00">detail::buffer::try</text>
<text text-anchor="middle" x="550" y="-22.5" font-family="Helvetica,sans-Serif" font-size="10.00">_reserve</text>
</a>
</g>
</g>
<!-- Node12&#45;&gt;Node14 -->
<g id="edge14_Node000012_Node000014" class="edge">
<title>Node12&#45;&gt;Node14</title>
<g id="a_edge14_Node000012_Node000014"><a xlink:title=" ">
<path fill="none" stroke="#63b8ff" d="M444.41,-45.54C459.2,-43.41 475.63,-41.05 490.99,-38.84"/>
<polygon fill="#63b8ff" stroke="#63b8ff" points="491.5,-42.3 500.9,-37.42 490.51,-35.37 491.5,-42.3"/>
</a>
</g>
</g>
<!-- Node16 -->
<g id="Node000016" class="node">
<title>Node16</title>
<g id="a_Node000016"><a xlink:href="format-inl_8h.html#a5555893692b00b61b3886349332fd01f" target="_top" xlink:title=" ">
<polygon fill="white" stroke="#666666" points="432,-19 358,-19 358,0 432,0 432,-19"/>
<text text-anchor="middle" x="395" y="-7" font-family="Helvetica,sans-Serif" font-size="10.00">report_error</text>
</a>
</g>
</g>
<!-- Node15&#45;&gt;Node16 -->
<g id="edge16_Node000015_Node000016" class="edge">
<title>Node15&#45;&gt;Node16</title>
<g id="a_edge16_Node000015_Node000016"><a xlink:title=" ">
<path fill="none" stroke="#63b8ff" d="M240.05,-79.9C259.68,-66.83 296.77,-43.36 331,-28.5 336.44,-26.14 342.26,-23.95 348.09,-21.97"/>
<polygon fill="#63b8ff" stroke="#63b8ff" points="349.39,-25.23 357.83,-18.83 347.24,-18.57 349.39,-25.23"/>
</a>
</g>
</g>
</g>
</svg>
