<?xml version="1.0" encoding="UTF-8" standalone="no"?>
<!DOCTYPE svg PUBLIC "-//W3C//DTD SVG 1.1//EN"
 "http://www.w3.org/Graphics/SVG/1.1/DTD/svg11.dtd">
<!-- Generated by graphviz version 2.43.0 (0)
 -->
<!-- Title: thirdparty/fmt/include/fmt/format.h Pages: 1 -->
<svg width="1023pt" height="236pt"
 viewBox="0.00 0.00 1023.24 236.00" xmlns="http://www.w3.org/2000/svg" xmlns:xlink="http://www.w3.org/1999/xlink">
<g id="graph0" class="graph" transform="scale(1 1) rotate(0) translate(4 232)">
<title>thirdparty/fmt/include/fmt/format.h</title>
<!-- Node1 -->
<g id="Node000001" class="node">
<title>Node1</title>
<g id="a_Node000001"><a xlink:title=" ">
<polygon fill="#999999" stroke="#666666" points="527,-228 404,-228 404,-198 527,-198 527,-228"/>
<text text-anchor="start" x="412" y="-216" font-family="Helvetica,sans-Serif" font-size="10.00">thirdparty/fmt/include</text>
<text text-anchor="middle" x="465.5" y="-205" font-family="Helvetica,sans-Serif" font-size="10.00">/fmt/format.h</text>
</a>
</g>
</g>
<!-- Node2 -->
<g id="Node000002" class="node">
<title>Node2</title>
<g id="a_Node000002"><a xlink:href="args_8h.html" target="_top" xlink:title=" ">
<polygon fill="white" stroke="#666666" points="123,-162 0,-162 0,-132 123,-132 123,-162"/>
<text text-anchor="start" x="8" y="-150" font-family="Helvetica,sans-Serif" font-size="10.00">thirdparty/fmt/include</text>
<text text-anchor="middle" x="61.5" y="-139" font-family="Helvetica,sans-Serif" font-size="10.00">/fmt/args.h</text>
</a>
</g>
</g>
<!-- Node1&#45;&gt;Node2 -->
<g id="edge1_Node000001_Node000002" class="edge">
<title>Node1&#45;&gt;Node2</title>
<g id="a_edge1_Node000001_Node000002"><a xlink:title=" ">
<path fill="none" stroke="#63b8ff" d="M393.79,-201.72C327.27,-192.03 225.57,-176.82 137.5,-162 132.87,-161.22 128.08,-160.39 123.27,-159.54"/>
<polygon fill="#63b8ff" stroke="#63b8ff" points="393.35,-205.19 403.75,-203.17 394.35,-198.26 393.35,-205.19"/>
</a>
</g>
</g>
<!-- Node3 -->
<g id="Node000003" class="node">
<title>Node3</title>
<g id="a_Node000003"><a xlink:href="chrono_8h.html" target="_top" xlink:title=" ">
<polygon fill="white" stroke="#666666" points="329,-162 206,-162 206,-132 329,-132 329,-162"/>
<text text-anchor="start" x="214" y="-150" font-family="Helvetica,sans-Serif" font-size="10.00">thirdparty/fmt/include</text>
<text text-anchor="middle" x="267.5" y="-139" font-family="Helvetica,sans-Serif" font-size="10.00">/fmt/chrono.h</text>
</a>
</g>
</g>
<!-- Node1&#45;&gt;Node3 -->
<g id="edge2_Node000001_Node000003" class="edge">
<title>Node1&#45;&gt;Node3</title>
<g id="a_edge2_Node000001_Node000003"><a xlink:title=" ">
<path fill="none" stroke="#63b8ff" d="M412.46,-194.86C380.67,-184.58 340.75,-171.68 310.85,-162.01"/>
<polygon fill="#63b8ff" stroke="#63b8ff" points="411.46,-198.21 422.05,-197.95 413.61,-191.55 411.46,-198.21"/>
</a>
</g>
</g>
<!-- Node5 -->
<g id="Node000005" class="node">
<title>Node5</title>
<g id="a_Node000005"><a xlink:href="std_8h.html" target="_top" xlink:title=" ">
<polygon fill="white" stroke="#666666" points="280,-30 157,-30 157,0 280,0 280,-30"/>
<text text-anchor="start" x="165" y="-18" font-family="Helvetica,sans-Serif" font-size="10.00">thirdparty/fmt/include</text>
<text text-anchor="middle" x="218.5" y="-7" font-family="Helvetica,sans-Serif" font-size="10.00">/fmt/std.h</text>
</a>
</g>
</g>
<!-- Node1&#45;&gt;Node5 -->
<g id="edge14_Node000001_Node000005" class="edge">
<title>Node1&#45;&gt;Node5</title>
<g id="a_edge14_Node000001_Node000005"><a xlink:title=" ">
<path fill="none" stroke="#63b8ff" d="M393.84,-206.49C324.59,-199.81 225.97,-186.31 196.5,-162 162.4,-133.87 154,-107.01 170.5,-66 176.25,-51.71 188.25,-39.21 198.81,-30.28"/>
<polygon fill="#63b8ff" stroke="#63b8ff" points="393.55,-209.97 403.83,-207.42 394.2,-203 393.55,-209.97"/>
</a>
</g>
</g>
<!-- Node6 -->
<g id="Node000006" class="node">
<title>Node6</title>
<g id="a_Node000006"><a xlink:href="xchar_8h.html" target="_top" xlink:title=" ">
<polygon fill="white" stroke="#666666" points="466,-30 343,-30 343,0 466,0 466,-30"/>
<text text-anchor="start" x="351" y="-18" font-family="Helvetica,sans-Serif" font-size="10.00">thirdparty/fmt/include</text>
<text text-anchor="middle" x="404.5" y="-7" font-family="Helvetica,sans-Serif" font-size="10.00">/fmt/xchar.h</text>
</a>
</g>
</g>
<!-- Node1&#45;&gt;Node6 -->
<g id="edge15_Node000001_Node000006" class="edge">
<title>Node1&#45;&gt;Node6</title>
<g id="a_edge15_Node000001_Node000006"><a xlink:title=" ">
<path fill="none" stroke="#63b8ff" d="M451.15,-188.89C446.84,-180.7 442.68,-171.23 440.5,-162 437.44,-149.02 438.2,-145.13 440.5,-132 445.65,-102.55 464.8,-93.68 453.5,-66 447.62,-51.6 435.37,-39.1 424.59,-30.2"/>
<polygon fill="#63b8ff" stroke="#63b8ff" points="448.22,-190.81 456.17,-197.81 454.32,-187.38 448.22,-190.81"/>
</a>
</g>
</g>
<!-- Node7 -->
<g id="Node000007" class="node">
<title>Node7</title>
<g id="a_Node000007"><a xlink:href="home_2runner_2work_2CHRONOS-LoRa_2CHRONOS-LoRa_2thirdparty_2fmt_2include_2fmt_2color_8h.html" target="_top" xlink:title=" ">
<polygon fill="white" stroke="#666666" points="854,-96 731,-96 731,-66 854,-66 854,-96"/>
<text text-anchor="start" x="739" y="-84" font-family="Helvetica,sans-Serif" font-size="10.00">thirdparty/fmt/include</text>
<text text-anchor="middle" x="792.5" y="-73" font-family="Helvetica,sans-Serif" font-size="10.00">/fmt/color.h</text>
</a>
</g>
</g>
<!-- Node1&#45;&gt;Node7 -->
<g id="edge6_Node000001_Node000007" class="edge">
<title>Node1&#45;&gt;Node7</title>
<g id="a_edge6_Node000001_Node000007"><a xlink:title=" ">
<path fill="none" stroke="#63b8ff" d="M537.22,-210.61C676.7,-207.16 973.62,-195.88 1004.5,-162 1051.41,-110.54 932.11,-92 854.01,-85.45"/>
<polygon fill="#63b8ff" stroke="#63b8ff" points="536.96,-207.11 527.05,-210.85 537.13,-214.11 536.96,-207.11"/>
</a>
</g>
</g>
<!-- Node8 -->
<g id="Node000008" class="node">
<title>Node8</title>
<g id="a_Node000008"><a xlink:href="compile_8h.html" target="_top" xlink:title=" ">
<polygon fill="white" stroke="#666666" points="572,-162 449,-162 449,-132 572,-132 572,-162"/>
<text text-anchor="start" x="457" y="-150" font-family="Helvetica,sans-Serif" font-size="10.00">thirdparty/fmt/include</text>
<text text-anchor="middle" x="510.5" y="-139" font-family="Helvetica,sans-Serif" font-size="10.00">/fmt/compile.h</text>
</a>
</g>
</g>
<!-- Node1&#45;&gt;Node8 -->
<g id="edge8_Node000001_Node000008" class="edge">
<title>Node1&#45;&gt;Node8</title>
<g id="a_edge8_Node000001_Node000008"><a xlink:title=" ">
<path fill="none" stroke="#63b8ff" d="M481.3,-189.53C487.7,-180.43 494.89,-170.19 500.54,-162.16"/>
<polygon fill="#63b8ff" stroke="#63b8ff" points="478.38,-187.6 475.49,-197.8 484.1,-191.63 478.38,-187.6"/>
</a>
</g>
</g>
<!-- Node9 -->
<g id="Node000009" class="node">
<title>Node9</title>
<g id="a_Node000009"><a xlink:href="format-inl_8h.html" target="_top" xlink:title=" ">
<polygon fill="white" stroke="#666666" points="713,-162 590,-162 590,-132 713,-132 713,-162"/>
<text text-anchor="start" x="598" y="-150" font-family="Helvetica,sans-Serif" font-size="10.00">thirdparty/fmt/include</text>
<text text-anchor="middle" x="651.5" y="-139" font-family="Helvetica,sans-Serif" font-size="10.00">/fmt/format&#45;inl.h</text>
</a>
</g>
</g>
<!-- Node1&#45;&gt;Node9 -->
<g id="edge9_Node000001_Node000009" class="edge">
<title>Node1&#45;&gt;Node9</title>
<g id="a_edge9_Node000001_Node000009"><a xlink:title=" ">
<path fill="none" stroke="#63b8ff" d="M516.1,-194.59C545.84,-184.36 582.94,-171.59 610.78,-162.01"/>
<polygon fill="#63b8ff" stroke="#63b8ff" points="514.64,-191.39 506.32,-197.95 516.91,-198.01 514.64,-191.39"/>
</a>
</g>
</g>
<!-- Node10 -->
<g id="Node000010" class="node">
<title>Node10</title>
<g id="a_Node000010"><a xlink:href="os_8h.html" target="_top" xlink:title=" ">
<polygon fill="white" stroke="#666666" points="854,-162 731,-162 731,-132 854,-132 854,-162"/>
<text text-anchor="start" x="739" y="-150" font-family="Helvetica,sans-Serif" font-size="10.00">thirdparty/fmt/include</text>
<text text-anchor="middle" x="792.5" y="-139" font-family="Helvetica,sans-Serif" font-size="10.00">/fmt/os.h</text>
</a>
</g>
</g>
<!-- Node1&#45;&gt;Node10 -->
<g id="edge10_Node000001_Node000010" class="edge">
<title>Node1&#45;&gt;Node10</title>
<g id="a_edge10_Node000001_Node000010"><a xlink:title=" ">
<path fill="none" stroke="#63b8ff" d="M537.09,-198.18C588.66,-188.19 659.89,-174.35 722.5,-162 725.18,-161.47 727.91,-160.93 730.67,-160.38"/>
<polygon fill="#63b8ff" stroke="#63b8ff" points="536.2,-194.78 527.05,-200.12 537.53,-201.66 536.2,-194.78"/>
</a>
</g>
</g>
<!-- Node11 -->
<g id="Node000011" class="node">
<title>Node11</title>
<g id="a_Node000011"><a xlink:href="printf_8h.html" target="_top" xlink:title=" ">
<polygon fill="white" stroke="#666666" points="995,-162 872,-162 872,-132 995,-132 995,-162"/>
<text text-anchor="start" x="880" y="-150" font-family="Helvetica,sans-Serif" font-size="10.00">thirdparty/fmt/include</text>
<text text-anchor="middle" x="933.5" y="-139" font-family="Helvetica,sans-Serif" font-size="10.00">/fmt/printf.h</text>
</a>
</g>
</g>
<!-- Node1&#45;&gt;Node11 -->
<g id="edge11_Node000001_Node000011" class="edge">
<title>Node1&#45;&gt;Node11</title>
<g id="a_edge11_Node000001_Node000011"><a xlink:title=" ">
<path fill="none" stroke="#63b8ff" d="M537.01,-204.6C616.85,-195.96 749.79,-180.49 863.5,-162 866.19,-161.56 868.94,-161.1 871.71,-160.61"/>
<polygon fill="#63b8ff" stroke="#63b8ff" points="536.63,-201.12 527.06,-205.67 537.38,-208.08 536.63,-201.12"/>
</a>
</g>
</g>
<!-- Node12 -->
<g id="Node000012" class="node">
<title>Node12</title>
<g id="a_Node000012"><a xlink:href="ranges_8h.html" target="_top" xlink:title=" ">
<polygon fill="white" stroke="#666666" points="444,-96 321,-96 321,-66 444,-66 444,-96"/>
<text text-anchor="start" x="329" y="-84" font-family="Helvetica,sans-Serif" font-size="10.00">thirdparty/fmt/include</text>
<text text-anchor="middle" x="382.5" y="-73" font-family="Helvetica,sans-Serif" font-size="10.00">/fmt/ranges.h</text>
</a>
</g>
</g>
<!-- Node1&#45;&gt;Node12 -->
<g id="edge12_Node000001_Node000012" class="edge">
<title>Node1&#45;&gt;Node12</title>
<g id="a_edge12_Node000001_Node000012"><a xlink:title=" ">
<path fill="none" stroke="#63b8ff" d="M435.21,-191.88C424.85,-183.68 413.99,-173.43 406.5,-162 393,-141.38 386.85,-112.86 384.23,-96.04"/>
<polygon fill="#63b8ff" stroke="#63b8ff" points="433.25,-194.78 443.35,-197.99 437.46,-189.19 433.25,-194.78"/>
</a>
</g>
</g>
<!-- Node4 -->
<g id="Node000004" class="node">
<title>Node4</title>
<g id="a_Node000004"><a xlink:href="ostream_8h.html" target="_top" xlink:title=" ">
<polygon fill="white" stroke="#666666" points="303,-96 180,-96 180,-66 303,-66 303,-96"/>
<text text-anchor="start" x="188" y="-84" font-family="Helvetica,sans-Serif" font-size="10.00">thirdparty/fmt/include</text>
<text text-anchor="middle" x="241.5" y="-73" font-family="Helvetica,sans-Serif" font-size="10.00">/fmt/ostream.h</text>
</a>
</g>
</g>
<!-- Node3&#45;&gt;Node4 -->
<g id="edge3_Node000003_Node000004" class="edge">
<title>Node3&#45;&gt;Node4</title>
<g id="a_edge3_Node000003_Node000004"><a xlink:title=" ">
<path fill="none" stroke="#63b8ff" d="M257.91,-122.39C254.33,-113.59 250.38,-103.86 247.25,-96.16"/>
<polygon fill="#63b8ff" stroke="#63b8ff" points="254.72,-123.85 261.73,-131.8 261.21,-121.21 254.72,-123.85"/>
</a>
</g>
</g>
<!-- Node4&#45;&gt;Node5 -->
<g id="edge4_Node000004_Node000005" class="edge">
<title>Node4&#45;&gt;Node5</title>
<g id="a_edge4_Node000004_Node000005"><a xlink:title=" ">
<path fill="none" stroke="#63b8ff" d="M232.91,-56.11C229.78,-47.38 226.33,-37.78 223.59,-30.16"/>
<polygon fill="#63b8ff" stroke="#63b8ff" points="229.72,-57.57 236.4,-65.8 236.31,-55.2 229.72,-57.57"/>
</a>
</g>
</g>
<!-- Node4&#45;&gt;Node6 -->
<g id="edge5_Node000004_Node000006" class="edge">
<title>Node4&#45;&gt;Node6</title>
<g id="a_edge5_Node000004_Node000006"><a xlink:title=" ">
<path fill="none" stroke="#63b8ff" d="M286.86,-62.19C312.75,-52.02 344.73,-39.47 368.81,-30.01"/>
<polygon fill="#63b8ff" stroke="#63b8ff" points="285.3,-59.04 277.27,-65.95 287.86,-65.56 285.3,-59.04"/>
</a>
</g>
</g>
<!-- Node7&#45;&gt;Node6 -->
<g id="edge7_Node000007_Node000006" class="edge">
<title>Node7&#45;&gt;Node6</title>
<g id="a_edge7_Node000007_Node000006"><a xlink:title=" ">
<path fill="none" stroke="#63b8ff" d="M720.54,-68.13C647.43,-56.07 535.37,-37.59 466.19,-26.18"/>
<polygon fill="#63b8ff" stroke="#63b8ff" points="720.15,-71.61 730.59,-69.79 721.29,-64.71 720.15,-71.61"/>
</a>
</g>
</g>
<!-- Node12&#45;&gt;Node6 -->
<g id="edge13_Node000012_Node000006" class="edge">
<title>Node12&#45;&gt;Node6</title>
<g id="a_edge13_Node000012_Node000006"><a xlink:title=" ">
<path fill="none" stroke="#63b8ff" d="M390.71,-56.11C393.71,-47.38 397.01,-37.78 399.63,-30.16"/>
<polygon fill="#63b8ff" stroke="#63b8ff" points="387.32,-55.2 387.38,-65.8 393.94,-57.48 387.32,-55.2"/>
</a>
</g>
</g>
</g>
</svg>
