<?xml version="1.0" encoding="UTF-8" standalone="no"?>
<!DOCTYPE svg PUBLIC "-//W3C//DTD SVG 1.1//EN"
 "http://www.w3.org/Graphics/SVG/1.1/DTD/svg11.dtd">
<!-- Generated by graphviz version 2.43.0 (0)
 -->
<!-- Title: vprint Pages: 1 -->
<svg width="747pt" height="480pt"
 viewBox="0.00 0.00 747.00 480.00" xmlns="http://www.w3.org/2000/svg" xmlns:xlink="http://www.w3.org/1999/xlink">
<g id="graph0" class="graph" transform="scale(1 1) rotate(0) translate(4 476)">
<title>vprint</title>
<!-- Node1 -->
<g id="Node000001" class="node">
<title>Node1</title>
<g id="a_Node000001"><a xlink:title=" ">
<polygon fill="#999999" stroke="#666666" points="45,-300 0,-300 0,-281 45,-281 45,-300"/>
<text text-anchor="middle" x="22.5" y="-288" font-family="Helvetica,sans-Serif" font-size="10.00">vprint</text>
</a>
</g>
</g>
<!-- Node2 -->
<g id="Node000002" class="node">
<title>Node2</title>
<g id="a_Node000002"><a xlink:href="classbasic__memory__buffer.html#a7a9300acfadb00a835b36a86a198f433" target="_top" xlink:title=" ">
<polygon fill="white" stroke="#666666" points="209,-415.5 81,-415.5 81,-385.5 209,-385.5 209,-415.5"/>
<text text-anchor="start" x="89" y="-403.5" font-family="Helvetica,sans-Serif" font-size="10.00">basic_memory_buffer</text>
<text text-anchor="middle" x="145" y="-392.5" font-family="Helvetica,sans-Serif" font-size="10.00">::basic_memory_buffer</text>
</a>
</g>
</g>
<!-- Node1&#45;&gt;Node2 -->
<g id="edge1_Node000001_Node000002" class="edge">
<title>Node1&#45;&gt;Node2</title>
<g id="a_edge1_Node000001_Node000002"><a xlink:title=" ">
<path fill="none" stroke="#63b8ff" d="M27.55,-300.18C35.37,-317.77 54.17,-355.12 81,-376.5 82.75,-377.89 84.59,-379.21 86.49,-380.46"/>
<polygon fill="#63b8ff" stroke="#63b8ff" points="84.78,-383.51 95.19,-385.48 88.28,-377.45 84.78,-383.51"/>
</a>
</g>
</g>
<!-- Node9 -->
<g id="Node000009" class="node">
<title>Node9</title>
<g id="a_Node000009"><a xlink:href="classbasic__string__view.html#aae708273ca864680a424c10441799605" target="_top" xlink:title=" ">
<polygon fill="white" stroke="#666666" points="199.5,-367.5 90.5,-367.5 90.5,-337.5 199.5,-337.5 199.5,-367.5"/>
<text text-anchor="start" x="98.5" y="-355.5" font-family="Helvetica,sans-Serif" font-size="10.00">basic_string_view::</text>
<text text-anchor="middle" x="145" y="-344.5" font-family="Helvetica,sans-Serif" font-size="10.00">basic_string_view</text>
</a>
</g>
</g>
<!-- Node1&#45;&gt;Node9 -->
<g id="edge8_Node000001_Node000009" class="edge">
<title>Node1&#45;&gt;Node9</title>
<g id="a_edge8_Node000001_Node000009"><a xlink:title=" ">
<path fill="none" stroke="#63b8ff" d="M36.25,-300.11C47.58,-308.36 64.82,-320.2 81,-328.5 84.32,-330.2 87.79,-331.85 91.32,-333.44"/>
<polygon fill="#63b8ff" stroke="#63b8ff" points="90.18,-336.76 100.75,-337.47 92.93,-330.32 90.18,-336.76"/>
</a>
</g>
</g>
<!-- Node10 -->
<g id="Node000010" class="node">
<title>Node10</title>
<g id="a_Node000010"><a xlink:href="classdetail_1_1buffer.html#adf353302bef0b99c405ca999d07b39ed" target="_top" xlink:title=" ">
<polygon fill="white" stroke="#666666" points="201,-319 89,-319 89,-300 201,-300 201,-319"/>
<text text-anchor="middle" x="145" y="-307" font-family="Helvetica,sans-Serif" font-size="10.00">detail::buffer::begin</text>
</a>
</g>
</g>
<!-- Node1&#45;&gt;Node10 -->
<g id="edge9_Node000001_Node000010" class="edge">
<title>Node1&#45;&gt;Node10</title>
<g id="a_edge9_Node000001_Node000010"><a xlink:title=" ">
<path fill="none" stroke="#63b8ff" d="M45.04,-293.9C54.62,-295.41 66.45,-297.27 78.56,-299.18"/>
<polygon fill="#63b8ff" stroke="#63b8ff" points="78.34,-302.69 88.76,-300.79 79.43,-295.78 78.34,-302.69"/>
</a>
</g>
</g>
<!-- Node11 -->
<g id="Node000011" class="node">
<title>Node11</title>
<g id="a_Node000011"><a xlink:href="base_8h.html#a3a04cf3cd81173cdbb24b568bde4df22" target="_top" xlink:title=" ">
<polygon fill="white" stroke="#666666" points="164.5,-282 125.5,-282 125.5,-263 164.5,-263 164.5,-282"/>
<text text-anchor="middle" x="145" y="-270" font-family="Helvetica,sans-Serif" font-size="10.00">print</text>
</a>
</g>
</g>
<!-- Node1&#45;&gt;Node11 -->
<g id="edge10_Node000001_Node000011" class="edge">
<title>Node1&#45;&gt;Node11</title>
<g id="a_edge10_Node000001_Node000011"><a xlink:title=" ">
<path fill="none" stroke="#63b8ff" d="M45.04,-287.28C64.71,-284.34 93.91,-279.98 115.5,-276.76"/>
<polygon fill="#63b8ff" stroke="#63b8ff" points="116.04,-280.22 125.41,-275.28 115,-273.29 116.04,-280.22"/>
</a>
</g>
</g>
<!-- Node13 -->
<g id="Node000013" class="node">
<title>Node13</title>
<g id="a_Node000013"><a xlink:href="classdetail_1_1buffer.html#a8685285932360c284d19003fc4ba3edc" target="_top" xlink:title="Returns the size of this buffer.">
<polygon fill="white" stroke="#666666" points="197,-245 93,-245 93,-226 197,-226 197,-245"/>
<text text-anchor="middle" x="145" y="-233" font-family="Helvetica,sans-Serif" font-size="10.00">detail::buffer::size</text>
</a>
</g>
</g>
<!-- Node1&#45;&gt;Node13 -->
<g id="edge12_Node000001_Node000013" class="edge">
<title>Node1&#45;&gt;Node13</title>
<g id="a_edge12_Node000001_Node000013"><a xlink:title=" ">
<path fill="none" stroke="#63b8ff" d="M36.64,-280.85C47.94,-272.91 64.91,-261.8 81,-254.5 86.01,-252.23 91.36,-250.14 96.74,-248.24"/>
<polygon fill="#63b8ff" stroke="#63b8ff" points="98.02,-251.51 106.42,-245.04 95.82,-244.86 98.02,-251.51"/>
</a>
</g>
</g>
<!-- Node14 -->
<g id="Node000014" class="node">
<title>Node14</title>
<g id="a_Node000014"><a xlink:href="namespacedetail.html#aa48f1dbc6e2079815bf8ca82d81abe8e" target="_top" xlink:title=" ">
<polygon fill="white" stroke="#666666" points="197,-170 93,-170 93,-151 197,-151 197,-170"/>
<text text-anchor="middle" x="145" y="-158" font-family="Helvetica,sans-Serif" font-size="10.00">detail::vformat_to</text>
</a>
</g>
</g>
<!-- Node1&#45;&gt;Node14 -->
<g id="edge13_Node000001_Node000014" class="edge">
<title>Node1&#45;&gt;Node14</title>
<g id="a_edge13_Node000001_Node000014"><a xlink:title=" ">
<path fill="none" stroke="#63b8ff" d="M30.45,-280.63C40.8,-266.19 61.18,-238.72 81,-217.5 94.71,-202.82 111.66,-187.63 124.52,-176.63"/>
<polygon fill="#63b8ff" stroke="#63b8ff" points="126.93,-179.17 132.31,-170.05 122.41,-173.83 126.93,-179.17"/>
</a>
</g>
</g>
<!-- Node3 -->
<g id="Node000003" class="node">
<title>Node3</title>
<g id="a_Node000003"><a xlink:href="classbasic__memory__buffer.html#a97d9a0a0f9827c9277e2eea97fa0309b" target="_top" xlink:title=" ">
<polygon fill="white" stroke="#666666" points="380.5,-440.5 258.5,-440.5 258.5,-410.5 380.5,-410.5 380.5,-440.5"/>
<text text-anchor="start" x="266.5" y="-428.5" font-family="Helvetica,sans-Serif" font-size="10.00">basic_memory_buffer</text>
<text text-anchor="middle" x="319.5" y="-417.5" font-family="Helvetica,sans-Serif" font-size="10.00">::grow</text>
</a>
</g>
</g>
<!-- Node2&#45;&gt;Node3 -->
<g id="edge2_Node000002_Node000003" class="edge">
<title>Node2&#45;&gt;Node3</title>
<g id="a_edge2_Node000002_Node000003"><a xlink:title=" ">
<path fill="none" stroke="#63b8ff" d="M209.25,-409.67C221.92,-411.5 235.31,-413.44 248.2,-415.31"/>
<polygon fill="#63b8ff" stroke="#63b8ff" points="248.01,-418.82 258.41,-416.79 249.02,-411.89 248.01,-418.82"/>
</a>
</g>
</g>
<!-- Node8 -->
<g id="Node000008" class="node">
<title>Node8</title>
<g id="a_Node000008"><a xlink:href="namespacedetail.html#a75ed2634319883d038944529dbb954e2" target="_top" xlink:title=" ">
<polygon fill="white" stroke="#666666" points="372.5,-392.5 266.5,-392.5 266.5,-362.5 372.5,-362.5 372.5,-392.5"/>
<text text-anchor="start" x="274.5" y="-380.5" font-family="Helvetica,sans-Serif" font-size="10.00">detail::is_constant</text>
<text text-anchor="middle" x="319.5" y="-369.5" font-family="Helvetica,sans-Serif" font-size="10.00">_evaluated</text>
</a>
</g>
</g>
<!-- Node2&#45;&gt;Node8 -->
<g id="edge7_Node000002_Node000008" class="edge">
<title>Node2&#45;&gt;Node8</title>
<g id="a_edge7_Node000002_Node000008"><a xlink:title=" ">
<path fill="none" stroke="#63b8ff" d="M209.25,-392.07C224.49,-390.03 240.75,-387.87 255.96,-385.84"/>
<polygon fill="#63b8ff" stroke="#63b8ff" points="256.84,-389.25 266.29,-384.46 255.91,-382.31 256.84,-389.25"/>
</a>
</g>
</g>
<!-- Node4 -->
<g id="Node000004" class="node">
<title>Node4</title>
<g id="a_Node000004"><a xlink:href="namespacedetail.html#a9d0b4b56d52390d7c8a4be7baa5e2382" target="_top" xlink:title=" ">
<polygon fill="white" stroke="#666666" points="569.5,-472 441.5,-472 441.5,-453 569.5,-453 569.5,-472"/>
<text text-anchor="middle" x="505.5" y="-460" font-family="Helvetica,sans-Serif" font-size="10.00">detail::abort_fuzzing_if</text>
</a>
</g>
</g>
<!-- Node3&#45;&gt;Node4 -->
<g id="edge3_Node000003_Node000004" class="edge">
<title>Node3&#45;&gt;Node4</title>
<g id="a_edge3_Node000003_Node000004"><a xlink:title=" ">
<path fill="none" stroke="#63b8ff" d="M380.75,-437.62C402.19,-441.93 426.26,-446.77 447.43,-451.02"/>
<polygon fill="#63b8ff" stroke="#63b8ff" points="446.75,-454.46 457.25,-453 448.13,-447.6 446.75,-454.46"/>
</a>
</g>
</g>
<!-- Node6 -->
<g id="Node000006" class="node">
<title>Node6</title>
<g id="a_Node000006"><a xlink:href="namespacedetail.html#a208b54c1c61a9bce9df4531a657a0c64" target="_top" xlink:title=" ">
<polygon fill="white" stroke="#666666" points="550,-435 461,-435 461,-416 550,-416 550,-435"/>
<text text-anchor="middle" x="505.5" y="-423" font-family="Helvetica,sans-Serif" font-size="10.00">detail::assume</text>
</a>
</g>
</g>
<!-- Node3&#45;&gt;Node6 -->
<g id="edge5_Node000003_Node000006" class="edge">
<title>Node3&#45;&gt;Node6</title>
<g id="a_edge5_Node000003_Node000006"><a xlink:title=" ">
<path fill="none" stroke="#63b8ff" d="M380.75,-425.5C403.28,-425.5 428.7,-425.5 450.62,-425.5"/>
<polygon fill="#63b8ff" stroke="#63b8ff" points="450.75,-429 460.75,-425.5 450.75,-422 450.75,-429"/>
</a>
</g>
</g>
<!-- Node7 -->
<g id="Node000007" class="node">
<title>Node7</title>
<g id="a_Node000007"><a xlink:href="base_8h.html#a67ebc2a5b1748c4692931267cd6f89bf" target="_top" xlink:title=" ">
<polygon fill="white" stroke="#666666" points="532,-398 479,-398 479,-379 532,-379 532,-398"/>
<text text-anchor="middle" x="505.5" y="-386" font-family="Helvetica,sans-Serif" font-size="10.00">max_of</text>
</a>
</g>
</g>
<!-- Node3&#45;&gt;Node7 -->
<g id="edge6_Node000003_Node000007" class="edge">
<title>Node3&#45;&gt;Node7</title>
<g id="a_edge6_Node000003_Node000007"><a xlink:title=" ">
<path fill="none" stroke="#63b8ff" d="M380.75,-413.38C409.73,-407.56 443.5,-400.77 468.43,-395.75"/>
<polygon fill="#63b8ff" stroke="#63b8ff" points="469.43,-399.12 478.54,-393.72 468.05,-392.26 469.43,-399.12"/>
</a>
</g>
</g>
<!-- Node5 -->
<g id="Node000005" class="node">
<title>Node5</title>
<g id="a_Node000005"><a xlink:href="namespacedetail.html#a1fe84ebaf96215ce0665d95b3124c2df" target="_top" xlink:title=" ">
<polygon fill="white" stroke="#666666" points="739,-472 617,-472 617,-453 739,-453 739,-472"/>
<text text-anchor="middle" x="678" y="-460" font-family="Helvetica,sans-Serif" font-size="10.00">detail::ignore_unused</text>
</a>
</g>
</g>
<!-- Node4&#45;&gt;Node5 -->
<g id="edge4_Node000004_Node000005" class="edge">
<title>Node4&#45;&gt;Node5</title>
<g id="a_edge4_Node000004_Node000005"><a xlink:title=" ">
<path fill="none" stroke="#63b8ff" d="M569.5,-462.5C581.58,-462.5 594.3,-462.5 606.6,-462.5"/>
<polygon fill="#63b8ff" stroke="#63b8ff" points="606.8,-466 616.8,-462.5 606.8,-459 606.8,-466"/>
</a>
</g>
</g>
<!-- Node12 -->
<g id="Node000012" class="node">
<title>Node12</title>
<g id="a_Node000012"><a xlink:href="namespacedetail.html#a221a2d9f305ca94bbb0e1d5e6a5a1c76" target="_top" xlink:title=" ">
<polygon fill="white" stroke="#666666" points="384,-321 255,-321 255,-302 384,-302 384,-321"/>
<text text-anchor="middle" x="319.5" y="-309" font-family="Helvetica,sans-Serif" font-size="10.00">detail::vprint_mojibake</text>
</a>
</g>
</g>
<!-- Node11&#45;&gt;Node12 -->
<g id="edge11_Node000011_Node000012" class="edge">
<title>Node11&#45;&gt;Node12</title>
<g id="a_edge11_Node000011_Node000012"><a xlink:title=" ">
<path fill="none" stroke="#63b8ff" d="M164.79,-276.75C188.95,-282.21 231.89,-291.92 266.25,-299.69"/>
<polygon fill="#63b8ff" stroke="#63b8ff" points="265.62,-303.13 276.15,-301.93 267.17,-296.31 265.62,-303.13"/>
</a>
</g>
</g>
<!-- Node15 -->
<g id="Node000015" class="node">
<title>Node15</title>
<g id="a_Node000015"><a xlink:href="classtext__style.html#af76917d3bb69bc710dd92da079222a5b" target="_top" xlink:title=" ">
<polygon fill="white" stroke="#666666" points="394,-284 245,-284 245,-265 394,-265 394,-284"/>
<text text-anchor="middle" x="319.5" y="-272" font-family="Helvetica,sans-Serif" font-size="10.00">text_style::get_background</text>
</a>
</g>
</g>
<!-- Node14&#45;&gt;Node15 -->
<g id="edge14_Node000014_Node000015" class="edge">
<title>Node14&#45;&gt;Node15</title>
<g id="a_edge14_Node000014_Node000015"><a xlink:title=" ">
<path fill="none" stroke="#63b8ff" d="M156.72,-170.16C169.27,-181.48 190.68,-200.82 209,-217.5 225.05,-232.11 226.26,-239.55 245,-250.5 252.41,-254.83 260.71,-258.5 268.99,-261.56"/>
<polygon fill="#63b8ff" stroke="#63b8ff" points="268.05,-264.94 278.64,-264.88 270.33,-258.32 268.05,-264.94"/>
</a>
</g>
</g>
<!-- Node16 -->
<g id="Node000016" class="node">
<title>Node16</title>
<g id="a_Node000016"><a xlink:href="classtext__style.html#a37356f14e6337463dbe1fc03c90c57c6" target="_top" xlink:title=" ">
<polygon fill="white" stroke="#666666" points="581,-265 430,-265 430,-246 581,-246 581,-265"/>
<text text-anchor="middle" x="505.5" y="-253" font-family="Helvetica,sans-Serif" font-size="10.00">text_style::has_background</text>
</a>
</g>
</g>
<!-- Node14&#45;&gt;Node16 -->
<g id="edge20_Node000014_Node000016" class="edge">
<title>Node14&#45;&gt;Node16</title>
<g id="a_edge20_Node000014_Node000016"><a xlink:title=" ">
<path fill="none" stroke="#63b8ff" d="M158.99,-170.15C177.2,-183.15 211.83,-206 245,-217.5 301.36,-237.05 368,-246.54 419.64,-251.15"/>
<polygon fill="#63b8ff" stroke="#63b8ff" points="419.5,-254.65 429.76,-252.01 420.09,-247.68 419.5,-254.65"/>
</a>
</g>
</g>
<!-- Node17 -->
<g id="Node000017" class="node">
<title>Node17</title>
<g id="a_Node000017"><a xlink:href="classtext__style.html#a3e2d1c622ff4c3a1855ac09214a21506" target="_top" xlink:title=" ">
<polygon fill="white" stroke="#666666" points="389.5,-208 249.5,-208 249.5,-189 389.5,-189 389.5,-208"/>
<text text-anchor="middle" x="319.5" y="-196" font-family="Helvetica,sans-Serif" font-size="10.00">text_style::get_emphasis</text>
</a>
</g>
</g>
<!-- Node14&#45;&gt;Node17 -->
<g id="edge16_Node000014_Node000017" class="edge">
<title>Node14&#45;&gt;Node17</title>
<g id="a_edge16_Node000014_Node000017"><a xlink:title=" ">
<path fill="none" stroke="#63b8ff" d="M189.53,-170.09C212.6,-175.17 241.13,-181.46 265.48,-186.82"/>
<polygon fill="#63b8ff" stroke="#63b8ff" points="264.77,-190.25 275.28,-188.98 266.27,-183.41 264.77,-190.25"/>
</a>
</g>
</g>
<!-- Node18 -->
<g id="Node000018" class="node">
<title>Node18</title>
<g id="a_Node000018"><a xlink:href="classtext__style.html#abb81f43acce098a9bedef0113b84f20a" target="_top" xlink:title=" ">
<polygon fill="white" stroke="#666666" points="576,-189 435,-189 435,-170 576,-170 576,-189"/>
<text text-anchor="middle" x="505.5" y="-177" font-family="Helvetica,sans-Serif" font-size="10.00">text_style::has_emphasis</text>
</a>
</g>
</g>
<!-- Node14&#45;&gt;Node18 -->
<g id="edge21_Node000014_Node000018" class="edge">
<title>Node14&#45;&gt;Node18</title>
<g id="a_edge21_Node000014_Node000018"><a xlink:title=" ">
<path fill="none" stroke="#63b8ff" d="M197.36,-163.22C256.78,-166.37 355.33,-171.59 424.74,-175.27"/>
<polygon fill="#63b8ff" stroke="#63b8ff" points="424.59,-178.77 434.76,-175.8 424.96,-171.78 424.59,-178.77"/>
</a>
</g>
</g>
<!-- Node19 -->
<g id="Node000019" class="node">
<title>Node19</title>
<g id="a_Node000019"><a xlink:href="classtext__style.html#aa60e11871525f3f612ce1f6ed5a30477" target="_top" xlink:title=" ">
<polygon fill="white" stroke="#666666" points="392.5,-132 246.5,-132 246.5,-113 392.5,-113 392.5,-132"/>
<text text-anchor="middle" x="319.5" y="-120" font-family="Helvetica,sans-Serif" font-size="10.00">text_style::get_foreground</text>
</a>
</g>
</g>
<!-- Node14&#45;&gt;Node19 -->
<g id="edge18_Node000014_Node000019" class="edge">
<title>Node14&#45;&gt;Node19</title>
<g id="a_edge18_Node000014_Node000019"><a xlink:title=" ">
<path fill="none" stroke="#63b8ff" d="M189.53,-150.91C212.6,-145.83 241.13,-139.54 265.48,-134.18"/>
<polygon fill="#63b8ff" stroke="#63b8ff" points="266.27,-137.59 275.28,-132.02 264.77,-130.75 266.27,-137.59"/>
</a>
</g>
</g>
<!-- Node20 -->
<g id="Node000020" class="node">
<title>Node20</title>
<g id="a_Node000020"><a xlink:href="classtext__style.html#a8d91da8a0cb73c09af5f8fd521e39bce" target="_top" xlink:title=" ">
<polygon fill="white" stroke="#666666" points="579,-113 432,-113 432,-94 579,-94 579,-113"/>
<text text-anchor="middle" x="505.5" y="-101" font-family="Helvetica,sans-Serif" font-size="10.00">text_style::has_foreground</text>
</a>
</g>
</g>
<!-- Node14&#45;&gt;Node20 -->
<g id="edge22_Node000014_Node000020" class="edge">
<title>Node14&#45;&gt;Node20</title>
<g id="a_edge22_Node000014_Node000020"><a xlink:title=" ">
<path fill="none" stroke="#63b8ff" d="M158.21,-150.81C176.05,-137.33 210.84,-113.56 245,-104.5 302.66,-89.2 370.11,-89.46 421.78,-93.28"/>
<polygon fill="#63b8ff" stroke="#63b8ff" points="421.65,-96.78 431.9,-94.09 422.21,-89.8 421.65,-96.78"/>
</a>
</g>
</g>
<!-- Node21 -->
<g id="Node000021" class="node">
<title>Node21</title>
<g id="a_Node000021"><a xlink:href="classtext__style.html#a82e716be2bc7584ec2f7e4f0252f6570" target="_top" xlink:title=" ">
<polygon fill="white" stroke="#666666" points="382,-56 257,-56 257,-37 382,-37 382,-56"/>
<text text-anchor="middle" x="319.5" y="-44" font-family="Helvetica,sans-Serif" font-size="10.00">text_style::operator!=</text>
</a>
</g>
</g>
<!-- Node14&#45;&gt;Node21 -->
<g id="edge23_Node000014_Node000021" class="edge">
<title>Node14&#45;&gt;Node21</title>
<g id="a_edge23_Node000014_Node000021"><a xlink:title=" ">
<path fill="none" stroke="#63b8ff" d="M153.99,-150.93C169.66,-132.75 206.25,-93.04 245,-70.5 252.59,-66.09 261.1,-62.36 269.56,-59.26"/>
<polygon fill="#63b8ff" stroke="#63b8ff" points="270.71,-62.57 279.04,-56.03 268.44,-55.94 270.71,-62.57"/>
</a>
</g>
</g>
<!-- Node23 -->
<g id="Node000023" class="node">
<title>Node23</title>
<g id="a_Node000023"><a xlink:href="classtext__style.html#a5600bdfe6916b735a206cb8477b1a7ac" target="_top" xlink:title=" ">
<polygon fill="white" stroke="#666666" points="379.5,-19 259.5,-19 259.5,0 379.5,0 379.5,-19"/>
<text text-anchor="middle" x="319.5" y="-7" font-family="Helvetica,sans-Serif" font-size="10.00">text_style::text_style</text>
</a>
</g>
</g>
<!-- Node14&#45;&gt;Node23 -->
<g id="edge25_Node000014_Node000023" class="edge">
<title>Node14&#45;&gt;Node23</title>
<g id="a_edge25_Node000014_Node000023"><a xlink:title=" ">
<path fill="none" stroke="#63b8ff" d="M150.37,-150.65C161.92,-125.78 195.82,-60.11 245,-27.5 247.41,-25.9 249.95,-24.44 252.58,-23.11"/>
<polygon fill="#63b8ff" stroke="#63b8ff" points="254.05,-26.29 261.81,-19.08 251.25,-19.88 254.05,-26.29"/>
</a>
</g>
</g>
<!-- Node15&#45;&gt;Node16 -->
<g id="edge15_Node000015_Node000016" class="edge">
<title>Node15&#45;&gt;Node16</title>
<g id="a_edge15_Node000015_Node000016"><a xlink:title=" ">
<path fill="none" stroke="#63b8ff" d="M394.01,-266.91C402.5,-266.03 411.21,-265.13 419.84,-264.24"/>
<polygon fill="#63b8ff" stroke="#63b8ff" points="420.31,-267.71 429.9,-263.2 419.59,-260.75 420.31,-267.71"/>
</a>
</g>
</g>
<!-- Node17&#45;&gt;Node18 -->
<g id="edge17_Node000017_Node000018" class="edge">
<title>Node17&#45;&gt;Node18</title>
<g id="a_edge17_Node000017_Node000018"><a xlink:title=" ">
<path fill="none" stroke="#63b8ff" d="M389.54,-191.37C400.97,-190.19 412.92,-188.96 424.59,-187.75"/>
<polygon fill="#63b8ff" stroke="#63b8ff" points="425.18,-191.21 434.77,-186.7 424.46,-184.25 425.18,-191.21"/>
</a>
</g>
</g>
<!-- Node19&#45;&gt;Node20 -->
<g id="edge19_Node000019_Node000020" class="edge">
<title>Node19&#45;&gt;Node20</title>
<g id="a_edge19_Node000019_Node000020"><a xlink:title=" ">
<path fill="none" stroke="#63b8ff" d="M392.69,-115.05C402.26,-114.06 412.12,-113.04 421.85,-112.03"/>
<polygon fill="#63b8ff" stroke="#63b8ff" points="422.32,-115.5 431.91,-111 421.6,-108.54 422.32,-115.5"/>
</a>
</g>
</g>
<!-- Node22 -->
<g id="Node000022" class="node">
<title>Node22</title>
<g id="a_Node000022"><a xlink:href="classtext__style.html#afb24b984961acae797dcbd8d27bae7ee" target="_top" xlink:title=" ">
<polygon fill="white" stroke="#666666" points="570,-56 441,-56 441,-37 570,-37 570,-56"/>
<text text-anchor="middle" x="505.5" y="-44" font-family="Helvetica,sans-Serif" font-size="10.00">text_style::operator==</text>
</a>
</g>
</g>
<!-- Node21&#45;&gt;Node22 -->
<g id="edge24_Node000021_Node000022" class="edge">
<title>Node21&#45;&gt;Node22</title>
<g id="a_edge24_Node000021_Node000022"><a xlink:title=" ">
<path fill="none" stroke="#63b8ff" d="M382.03,-46.5C397.54,-46.5 414.35,-46.5 430.41,-46.5"/>
<polygon fill="#63b8ff" stroke="#63b8ff" points="430.83,-50 440.83,-46.5 430.83,-43 430.83,-50"/>
</a>
</g>
</g>
</g>
</svg>
