<?xml version="1.0" encoding="UTF-8" standalone="no"?>
<!DOCTYPE svg PUBLIC "-//W3C//DTD SVG 1.1//EN"
 "http://www.w3.org/Graphics/SVG/1.1/DTD/svg11.dtd">
<!-- Generated by graphviz version 2.43.0 (0)
 -->
<!-- Title: /usr/include/GraphicsMagick/magick/image.h Pages: 1 -->
<svg width="1975pt" height="632pt"
 viewBox="0.00 0.00 1975.19 632.00" xmlns="http://www.w3.org/2000/svg" xmlns:xlink="http://www.w3.org/1999/xlink">
<g id="graph0" class="graph" transform="scale(1 1) rotate(0) translate(4 628)">
<title>/usr/include/GraphicsMagick/magick/image.h</title>
<!-- Node1 -->
<g id="Node000001" class="node">
<title>Node1</title>
<g id="a_Node000001"><a xlink:title=" ">
<polygon fill="#999999" stroke="#666666" points="728.19,-624 574.19,-624 574.19,-594 728.19,-594 728.19,-624"/>
<text text-anchor="start" x="582.19" y="-612" font-family="Helvetica,sans-Serif" font-size="10.00">/usr/include/GraphicsMagick</text>
<text text-anchor="middle" x="651.19" y="-601" font-family="Helvetica,sans-Serif" font-size="10.00">/magick/image.h</text>
</a>
</g>
</g>
<!-- Node2 -->
<g id="Node000002" class="node">
<title>Node2</title>
<g id="a_Node000002"><a xlink:href="analyze_8h.html" target="_top" xlink:title=" ">
<polygon fill="white" stroke="#666666" points="957.19,-492 803.19,-492 803.19,-462 957.19,-462 957.19,-492"/>
<text text-anchor="start" x="811.19" y="-480" font-family="Helvetica,sans-Serif" font-size="10.00">/usr/include/GraphicsMagick</text>
<text text-anchor="middle" x="880.19" y="-469" font-family="Helvetica,sans-Serif" font-size="10.00">/magick/analyze.h</text>
</a>
</g>
</g>
<!-- Node1&#45;&gt;Node2 -->
<g id="edge1_Node000001_Node000002" class="edge">
<title>Node1&#45;&gt;Node2</title>
<g id="a_edge1_Node000001_Node000002"><a xlink:title=" ">
<path fill="none" stroke="#63b8ff" d="M738.24,-607.81C829.02,-605.55 962.6,-595.67 995.19,-558 1019.93,-529.4 972.19,-506.03 930.88,-492.08"/>
<polygon fill="#63b8ff" stroke="#63b8ff" points="738.13,-604.32 728.21,-608.04 738.29,-611.31 738.13,-604.32"/>
</a>
</g>
</g>
<!-- Node3 -->
<g id="Node000003" class="node">
<title>Node3</title>
<g id="a_Node000003"><a xlink:href="api_8h.html" target="_top" xlink:title=" ">
<polygon fill="white" stroke="#666666" points="814.19,-426 660.19,-426 660.19,-396 814.19,-396 814.19,-426"/>
<text text-anchor="start" x="668.19" y="-414" font-family="Helvetica,sans-Serif" font-size="10.00">/usr/include/GraphicsMagick</text>
<text text-anchor="middle" x="737.19" y="-403" font-family="Helvetica,sans-Serif" font-size="10.00">/magick/api.h</text>
</a>
</g>
</g>
<!-- Node1&#45;&gt;Node3 -->
<g id="edge42_Node000001_Node000003" class="edge">
<title>Node1&#45;&gt;Node3</title>
<g id="a_edge42_Node000001_Node000003"><a xlink:title=" ">
<path fill="none" stroke="#63b8ff" d="M738.48,-608.53C833.75,-607.02 977.4,-597.93 1012.19,-558 1043.05,-522.57 979.98,-471.21 966.19,-462 921.34,-432.07 861.57,-419.73 814.34,-414.78"/>
<polygon fill="#63b8ff" stroke="#63b8ff" points="738.22,-605.03 728.27,-608.66 738.31,-612.03 738.22,-605.03"/>
</a>
</g>
</g>
<!-- Node19 -->
<g id="Node000019" class="node">
<title>Node19</title>
<g id="a_Node000019"><a xlink:href="chronos_8hpp.html" target="_top" xlink:title=" ">
<polygon fill="white" stroke="#666666" points="889.19,-288.5 775.19,-288.5 775.19,-269.5 889.19,-269.5 889.19,-288.5"/>
<text text-anchor="middle" x="832.19" y="-276.5" font-family="Helvetica,sans-Serif" font-size="10.00">include/chronos.hpp</text>
</a>
</g>
</g>
<!-- Node1&#45;&gt;Node19 -->
<g id="edge64_Node000001_Node000019" class="edge">
<title>Node1&#45;&gt;Node19</title>
<g id="a_edge64_Node000001_Node000019"><a xlink:title=" ">
<path fill="none" stroke="#63b8ff" d="M738.73,-604.59C837.6,-599.48 1002.85,-587.08 1142.19,-558 1246.08,-536.31 1367.19,-584.13 1367.19,-478 1367.19,-478 1367.19,-478 1367.19,-410 1367.19,-384.88 1006.32,-313.33 877.34,-288.56"/>
<polygon fill="#63b8ff" stroke="#63b8ff" points="738.3,-601.11 728.49,-605.11 738.65,-608.1 738.3,-601.11"/>
</a>
</g>
</g>
<!-- Node20 -->
<g id="Node000020" class="node">
<title>Node20</title>
<g id="a_Node000020"><a xlink:href="chronos_8cpp.html" target="_top" xlink:title=" ">
<polygon fill="white" stroke="#666666" points="783.19,-222.5 691.19,-222.5 691.19,-203.5 783.19,-203.5 783.19,-222.5"/>
<text text-anchor="middle" x="737.19" y="-210.5" font-family="Helvetica,sans-Serif" font-size="10.00">src/chronos.cpp</text>
</a>
</g>
</g>
<!-- Node1&#45;&gt;Node20 -->
<g id="edge65_Node000001_Node000020" class="edge">
<title>Node1&#45;&gt;Node20</title>
<g id="a_edge65_Node000001_Node000020"><a xlink:title=" ">
<path fill="none" stroke="#63b8ff" d="M563.95,-606.69C400.63,-603.42 61.48,-592.52 21.19,-558 -6.56,-534.22 2.19,-514.54 2.19,-478 2.19,-478 2.19,-478 2.19,-344 2.19,-273.74 529.69,-229.22 690.93,-217.26"/>
<polygon fill="#63b8ff" stroke="#63b8ff" points="563.91,-610.19 573.97,-606.88 564.04,-603.19 563.91,-610.19"/>
</a>
</g>
</g>
<!-- Node21 -->
<g id="Node000021" class="node">
<title>Node21</title>
<g id="a_Node000021"><a xlink:href="attribute_8h.html" target="_top" xlink:title=" ">
<polygon fill="white" stroke="#666666" points="1167.19,-492 1013.19,-492 1013.19,-462 1167.19,-462 1167.19,-492"/>
<text text-anchor="start" x="1021.19" y="-480" font-family="Helvetica,sans-Serif" font-size="10.00">/usr/include/GraphicsMagick</text>
<text text-anchor="middle" x="1090.19" y="-469" font-family="Helvetica,sans-Serif" font-size="10.00">/magick/attribute.h</text>
</a>
</g>
</g>
<!-- Node1&#45;&gt;Node21 -->
<g id="edge43_Node000001_Node000021" class="edge">
<title>Node1&#45;&gt;Node21</title>
<g id="a_edge43_Node000001_Node000021"><a xlink:title=" ">
<path fill="none" stroke="#63b8ff" d="M738.32,-608.39C845.2,-607.06 1018.12,-598.46 1066.19,-558 1085.6,-541.66 1089.69,-510.28 1090.33,-492.05"/>
<polygon fill="#63b8ff" stroke="#63b8ff" points="738.16,-604.89 728.19,-608.5 738.23,-611.89 738.16,-604.89"/>
</a>
</g>
</g>
<!-- Node22 -->
<g id="Node000022" class="node">
<title>Node22</title>
<g id="a_Node000022"><a xlink:href="average_8h.html" target="_top" xlink:title=" ">
<polygon fill="white" stroke="#666666" points="1339.19,-492 1185.19,-492 1185.19,-462 1339.19,-462 1339.19,-492"/>
<text text-anchor="start" x="1193.19" y="-480" font-family="Helvetica,sans-Serif" font-size="10.00">/usr/include/GraphicsMagick</text>
<text text-anchor="middle" x="1262.19" y="-469" font-family="Helvetica,sans-Serif" font-size="10.00">/magick/average.h</text>
</a>
</g>
</g>
<!-- Node1&#45;&gt;Node22 -->
<g id="edge45_Node000001_Node000022" class="edge">
<title>Node1&#45;&gt;Node22</title>
<g id="a_edge45_Node000001_Node000022"><a xlink:title=" ">
<path fill="none" stroke="#63b8ff" d="M738.69,-606.19C828.24,-602.44 970.69,-591.23 1089.19,-558 1145.1,-542.32 1205.66,-510.54 1238.21,-492.1"/>
<polygon fill="#63b8ff" stroke="#63b8ff" points="738.43,-602.69 728.57,-606.59 738.7,-609.69 738.43,-602.69"/>
</a>
</g>
</g>
<!-- Node23 -->
<g id="Node000023" class="node">
<title>Node23</title>
<g id="a_Node000023"><a xlink:href="blob_8h.html" target="_top" xlink:title=" ">
<polygon fill="white" stroke="#666666" points="184.19,-558 30.19,-558 30.19,-528 184.19,-528 184.19,-558"/>
<text text-anchor="start" x="38.19" y="-546" font-family="Helvetica,sans-Serif" font-size="10.00">/usr/include/GraphicsMagick</text>
<text text-anchor="middle" x="107.19" y="-535" font-family="Helvetica,sans-Serif" font-size="10.00">/magick/blob.h</text>
</a>
</g>
</g>
<!-- Node1&#45;&gt;Node23 -->
<g id="edge47_Node000001_Node000023" class="edge">
<title>Node1&#45;&gt;Node23</title>
<g id="a_edge47_Node000001_Node000023"><a xlink:title=" ">
<path fill="none" stroke="#63b8ff" d="M564.09,-599.5C472.79,-590.33 325.21,-574.77 198.19,-558 193.75,-557.41 189.2,-556.79 184.6,-556.14"/>
<polygon fill="#63b8ff" stroke="#63b8ff" points="563.82,-602.99 574.12,-600.51 564.52,-596.03 563.82,-602.99"/>
</a>
</g>
</g>
<!-- Node24 -->
<g id="Node000024" class="node">
<title>Node24</title>
<g id="a_Node000024"><a xlink:href="enum__strings_8h.html" target="_top" xlink:title=" ">
<polygon fill="white" stroke="#666666" points="289.19,-492 135.19,-492 135.19,-462 289.19,-462 289.19,-492"/>
<text text-anchor="start" x="143.19" y="-480" font-family="Helvetica,sans-Serif" font-size="10.00">/usr/include/GraphicsMagick</text>
<text text-anchor="middle" x="212.19" y="-469" font-family="Helvetica,sans-Serif" font-size="10.00">/magick/enum_strings.h</text>
</a>
</g>
</g>
<!-- Node1&#45;&gt;Node24 -->
<g id="edge55_Node000001_Node000024" class="edge">
<title>Node1&#45;&gt;Node24</title>
<g id="a_edge55_Node000001_Node000024"><a xlink:title=" ">
<path fill="none" stroke="#63b8ff" d="M563.59,-602.9C471.05,-596.31 332.12,-582.64 285.19,-558 255.89,-542.62 232.37,-510.57 220.54,-492.05"/>
<polygon fill="#63b8ff" stroke="#63b8ff" points="563.58,-606.4 573.8,-603.61 564.07,-599.42 563.58,-606.4"/>
</a>
</g>
</g>
<!-- Node25 -->
<g id="Node000025" class="node">
<title>Node25</title>
<g id="a_Node000025"><a xlink:href="colormap_8h.html" target="_top" xlink:title=" ">
<polygon fill="white" stroke="#666666" points="461.19,-492 307.19,-492 307.19,-462 461.19,-462 461.19,-492"/>
<text text-anchor="start" x="315.19" y="-480" font-family="Helvetica,sans-Serif" font-size="10.00">/usr/include/GraphicsMagick</text>
<text text-anchor="middle" x="384.19" y="-469" font-family="Helvetica,sans-Serif" font-size="10.00">/magick/colormap.h</text>
</a>
</g>
</g>
<!-- Node1&#45;&gt;Node25 -->
<g id="edge51_Node000001_Node000025" class="edge">
<title>Node1&#45;&gt;Node25</title>
<g id="a_edge51_Node000001_Node000025"><a xlink:title=" ">
<path fill="none" stroke="#63b8ff" d="M564.12,-608.29C470.42,-606.52 330.21,-597.15 296.19,-558 274.18,-532.67 315.57,-507.27 348.74,-492.08"/>
<polygon fill="#63b8ff" stroke="#63b8ff" points="564.11,-611.79 574.17,-608.45 564.23,-604.79 564.11,-611.79"/>
</a>
</g>
</g>
<!-- Node26 -->
<g id="Node000026" class="node">
<title>Node26</title>
<g id="a_Node000026"><a xlink:href="describe_8h.html" target="_top" xlink:title=" ">
<polygon fill="white" stroke="#666666" points="633.19,-492 479.19,-492 479.19,-462 633.19,-462 633.19,-492"/>
<text text-anchor="start" x="487.19" y="-480" font-family="Helvetica,sans-Serif" font-size="10.00">/usr/include/GraphicsMagick</text>
<text text-anchor="middle" x="556.19" y="-469" font-family="Helvetica,sans-Serif" font-size="10.00">/magick/describe.h</text>
</a>
</g>
</g>
<!-- Node1&#45;&gt;Node26 -->
<g id="edge53_Node000001_Node000026" class="edge">
<title>Node1&#45;&gt;Node26</title>
<g id="a_edge53_Node000001_Node000026"><a xlink:title=" ">
<path fill="none" stroke="#63b8ff" d="M564.14,-607.81C473.35,-605.55 339.78,-595.67 307.19,-558 298.46,-547.92 298.74,-538.31 307.19,-528 312.76,-521.2 408.05,-503.46 479.09,-491.06"/>
<polygon fill="#63b8ff" stroke="#63b8ff" points="564.09,-611.31 574.16,-608.04 564.24,-604.32 564.09,-611.31"/>
</a>
</g>
</g>
<!-- Node27 -->
<g id="Node000027" class="node">
<title>Node27</title>
<g id="a_Node000027"><a xlink:href="gradient_8h.html" target="_top" xlink:title=" ">
<polygon fill="white" stroke="#666666" points="470.19,-558 316.19,-558 316.19,-528 470.19,-528 470.19,-558"/>
<text text-anchor="start" x="324.19" y="-546" font-family="Helvetica,sans-Serif" font-size="10.00">/usr/include/GraphicsMagick</text>
<text text-anchor="middle" x="393.19" y="-535" font-family="Helvetica,sans-Serif" font-size="10.00">/magick/gradient.h</text>
</a>
</g>
</g>
<!-- Node1&#45;&gt;Node27 -->
<g id="edge56_Node000001_Node000027" class="edge">
<title>Node1&#45;&gt;Node27</title>
<g id="a_edge56_Node000001_Node000027"><a xlink:title=" ">
<path fill="none" stroke="#63b8ff" d="M584.74,-591.52C542.9,-581.14 489.47,-567.88 449.68,-558.01"/>
<polygon fill="#63b8ff" stroke="#63b8ff" points="584.02,-594.94 594.57,-593.95 585.71,-588.15 584.02,-594.94"/>
</a>
</g>
</g>
<!-- Node28 -->
<g id="Node000028" class="node">
<title>Node28</title>
<g id="a_Node000028"><a xlink:href="plasma_8h.html" target="_top" xlink:title=" ">
<polygon fill="white" stroke="#666666" points="642.19,-558 488.19,-558 488.19,-528 642.19,-528 642.19,-558"/>
<text text-anchor="start" x="496.19" y="-546" font-family="Helvetica,sans-Serif" font-size="10.00">/usr/include/GraphicsMagick</text>
<text text-anchor="middle" x="565.19" y="-535" font-family="Helvetica,sans-Serif" font-size="10.00">/magick/plasma.h</text>
</a>
</g>
</g>
<!-- Node1&#45;&gt;Node28 -->
<g id="edge58_Node000001_Node000028" class="edge">
<title>Node1&#45;&gt;Node28</title>
<g id="a_edge58_Node000001_Node000028"><a xlink:title=" ">
<path fill="none" stroke="#63b8ff" d="M623.98,-587.75C611.05,-578.13 595.9,-566.86 584.22,-558.16"/>
<polygon fill="#63b8ff" stroke="#63b8ff" points="621.99,-590.63 632.1,-593.8 626.17,-585.02 621.99,-590.63"/>
</a>
</g>
</g>
<!-- Node29 -->
<g id="Node000029" class="node">
<title>Node29</title>
<g id="a_Node000029"><a xlink:href="statistics_8h.html" target="_top" xlink:title=" ">
<polygon fill="white" stroke="#666666" points="814.19,-558 660.19,-558 660.19,-528 814.19,-528 814.19,-558"/>
<text text-anchor="start" x="668.19" y="-546" font-family="Helvetica,sans-Serif" font-size="10.00">/usr/include/GraphicsMagick</text>
<text text-anchor="middle" x="737.19" y="-535" font-family="Helvetica,sans-Serif" font-size="10.00">/magick/statistics.h</text>
</a>
</g>
</g>
<!-- Node1&#45;&gt;Node29 -->
<g id="edge60_Node000001_Node000029" class="edge">
<title>Node1&#45;&gt;Node29</title>
<g id="a_edge60_Node000001_Node000029"><a xlink:title=" ">
<path fill="none" stroke="#63b8ff" d="M678.39,-587.75C691.33,-578.13 706.47,-566.86 718.16,-558.16"/>
<polygon fill="#63b8ff" stroke="#63b8ff" points="676.21,-585.02 670.27,-593.8 680.39,-590.63 676.21,-585.02"/>
</a>
</g>
</g>
<!-- Node30 -->
<g id="Node000030" class="node">
<title>Node30</title>
<g id="a_Node000030"><a xlink:href="texture_8h.html" target="_top" xlink:title=" ">
<polygon fill="white" stroke="#666666" points="986.19,-558 832.19,-558 832.19,-528 986.19,-528 986.19,-558"/>
<text text-anchor="start" x="840.19" y="-546" font-family="Helvetica,sans-Serif" font-size="10.00">/usr/include/GraphicsMagick</text>
<text text-anchor="middle" x="909.19" y="-535" font-family="Helvetica,sans-Serif" font-size="10.00">/magick/texture.h</text>
</a>
</g>
</g>
<!-- Node1&#45;&gt;Node30 -->
<g id="edge62_Node000001_Node000030" class="edge">
<title>Node1&#45;&gt;Node30</title>
<g id="a_edge62_Node000001_Node000030"><a xlink:title=" ">
<path fill="none" stroke="#63b8ff" d="M717.63,-591.52C759.48,-581.14 812.91,-567.88 852.7,-558.01"/>
<polygon fill="#63b8ff" stroke="#63b8ff" points="716.67,-588.15 707.81,-593.95 718.36,-594.94 716.67,-588.15"/>
</a>
</g>
</g>
<!-- Node2&#45;&gt;Node3 -->
<g id="edge2_Node000002_Node000003" class="edge">
<title>Node2&#45;&gt;Node3</title>
<g id="a_edge2_Node000002_Node000003"><a xlink:title=" ">
<path fill="none" stroke="#63b8ff" d="M839.49,-457.78C816.94,-447.69 789.34,-435.34 768.5,-426.01"/>
<polygon fill="#63b8ff" stroke="#63b8ff" points="838.25,-461.06 848.81,-461.95 841.11,-454.68 838.25,-461.06"/>
</a>
</g>
</g>
<!-- Node4 -->
<g id="Node000004" class="node">
<title>Node4</title>
<g id="a_Node000004"><a xlink:href="Include_8h.html" target="_top" xlink:title=" ">
<polygon fill="white" stroke="#666666" points="1549.19,-360 1395.19,-360 1395.19,-330 1549.19,-330 1549.19,-360"/>
<text text-anchor="start" x="1403.19" y="-348" font-family="Helvetica,sans-Serif" font-size="10.00">/usr/include/GraphicsMagick</text>
<text text-anchor="middle" x="1472.19" y="-337" font-family="Helvetica,sans-Serif" font-size="10.00">/Magick++/Include.h</text>
</a>
</g>
</g>
<!-- Node3&#45;&gt;Node4 -->
<g id="edge3_Node000003_Node000004" class="edge">
<title>Node3&#45;&gt;Node4</title>
<g id="a_edge3_Node000003_Node000004"><a xlink:title=" ">
<path fill="none" stroke="#63b8ff" d="M824.64,-402.38C969.61,-389.76 1257.34,-364.71 1395.13,-352.71"/>
<polygon fill="#63b8ff" stroke="#63b8ff" points="824.12,-398.92 814.46,-403.27 824.72,-405.89 824.12,-398.92"/>
</a>
</g>
</g>
<!-- Node17 -->
<g id="Node000017" class="node">
<title>Node17</title>
<g id="a_Node000017"><a xlink:href="magick__wand_8h.html" target="_top" xlink:title=" ">
<polygon fill="white" stroke="#666666" points="814.19,-360 660.19,-360 660.19,-330 814.19,-330 814.19,-360"/>
<text text-anchor="start" x="668.19" y="-348" font-family="Helvetica,sans-Serif" font-size="10.00">/usr/include/GraphicsMagick</text>
<text text-anchor="middle" x="737.19" y="-337" font-family="Helvetica,sans-Serif" font-size="10.00">/wand/magick_wand.h</text>
</a>
</g>
</g>
<!-- Node3&#45;&gt;Node17 -->
<g id="edge35_Node000003_Node000017" class="edge">
<title>Node3&#45;&gt;Node17</title>
<g id="a_edge35_Node000003_Node000017"><a xlink:title=" ">
<path fill="none" stroke="#63b8ff" d="M737.19,-385.54C737.19,-376.96 737.19,-367.61 737.19,-360.16"/>
<polygon fill="#63b8ff" stroke="#63b8ff" points="733.69,-385.8 737.19,-395.8 740.69,-385.8 733.69,-385.8"/>
</a>
</g>
</g>
<!-- Node18 -->
<g id="Node000018" class="node">
<title>Node18</title>
<g id="a_Node000018"><a xlink:href="wand__api_8h.html" target="_top" xlink:title=" ">
<polygon fill="white" stroke="#666666" points="709.19,-294 555.19,-294 555.19,-264 709.19,-264 709.19,-294"/>
<text text-anchor="start" x="563.19" y="-282" font-family="Helvetica,sans-Serif" font-size="10.00">/usr/include/GraphicsMagick</text>
<text text-anchor="middle" x="632.19" y="-271" font-family="Helvetica,sans-Serif" font-size="10.00">/wand/wand_api.h</text>
</a>
</g>
</g>
<!-- Node3&#45;&gt;Node18 -->
<g id="edge40_Node000003_Node000018" class="edge">
<title>Node3&#45;&gt;Node18</title>
<g id="a_edge40_Node000003_Node000018"><a xlink:title=" ">
<path fill="none" stroke="#63b8ff" d="M689.6,-391.22C675.38,-383.49 660.98,-373.19 651.19,-360 636.64,-340.4 633.05,-311.29 632.27,-294.12"/>
<polygon fill="#63b8ff" stroke="#63b8ff" points="688.37,-394.52 698.87,-395.93 691.54,-388.28 688.37,-394.52"/>
</a>
</g>
</g>
<!-- Node3&#45;&gt;Node19 -->
<g id="edge41_Node000003_Node000019" class="edge">
<title>Node3&#45;&gt;Node19</title>
<g id="a_edge41_Node000003_Node000019"><a xlink:title=" ">
<path fill="none" stroke="#63b8ff" d="M786.85,-391.29C800.75,-383.66 814.44,-373.41 823.19,-360 837.78,-337.64 835.61,-304.11 833.56,-288.53"/>
<polygon fill="#63b8ff" stroke="#63b8ff" points="785.06,-388.27 777.73,-395.93 788.23,-394.51 785.06,-388.27"/>
</a>
</g>
</g>
<!-- Node5 -->
<g id="Node000005" class="node">
<title>Node5</title>
<g id="a_Node000005"><a xlink:href="Magick_09_09_8h.html" target="_top" xlink:title=" ">
<polygon fill="white" stroke="#666666" points="1829.19,-30 1675.19,-30 1675.19,0 1829.19,0 1829.19,-30"/>
<text text-anchor="start" x="1683.19" y="-18" font-family="Helvetica,sans-Serif" font-size="10.00">/usr/include/GraphicsMagick</text>
<text text-anchor="middle" x="1752.19" y="-7" font-family="Helvetica,sans-Serif" font-size="10.00">/Magick++.h</text>
</a>
</g>
</g>
<!-- Node4&#45;&gt;Node5 -->
<g id="edge4_Node000004_Node000005" class="edge">
<title>Node4&#45;&gt;Node5</title>
<g id="a_edge4_Node000004_Node000005"><a xlink:title=" ">
<path fill="none" stroke="#63b8ff" d="M1559.64,-344.57C1676,-343.65 1873.74,-335.73 1931.19,-294 1962.73,-271.09 1967.19,-252.99 1967.19,-214 1967.19,-214 1967.19,-214 1967.19,-146 1967.19,-79.48 1890.89,-46.08 1829.2,-29.95"/>
<polygon fill="#63b8ff" stroke="#63b8ff" points="1559.31,-341.07 1549.34,-344.63 1559.36,-348.07 1559.31,-341.07"/>
</a>
</g>
</g>
<!-- Node6 -->
<g id="Node000006" class="node">
<title>Node6</title>
<g id="a_Node000006"><a xlink:href="Blob_8h.html" target="_top" xlink:title=" ">
<polygon fill="white" stroke="#666666" points="1758.19,-228 1604.19,-228 1604.19,-198 1758.19,-198 1758.19,-228"/>
<text text-anchor="start" x="1612.19" y="-216" font-family="Helvetica,sans-Serif" font-size="10.00">/usr/include/GraphicsMagick</text>
<text text-anchor="middle" x="1681.19" y="-205" font-family="Helvetica,sans-Serif" font-size="10.00">/Magick++/Blob.h</text>
</a>
</g>
</g>
<!-- Node4&#45;&gt;Node6 -->
<g id="edge5_Node000004_Node000006" class="edge">
<title>Node4&#45;&gt;Node6</title>
<g id="a_edge5_Node000004_Node000006"><a xlink:title=" ">
<path fill="none" stroke="#63b8ff" d="M1559.29,-330.01C1601.98,-321.44 1647.35,-309.2 1662.19,-294 1679.44,-276.33 1682.05,-246.01 1681.93,-228.2"/>
<polygon fill="#63b8ff" stroke="#63b8ff" points="1558.53,-326.6 1549.38,-331.95 1559.87,-333.47 1558.53,-326.6"/>
</a>
</g>
</g>
<!-- Node7 -->
<g id="Node000007" class="node">
<title>Node7</title>
<g id="a_Node000007"><a xlink:href="Image_8h.html" target="_top" xlink:title=" ">
<polygon fill="white" stroke="#666666" points="1758.19,-162 1604.19,-162 1604.19,-132 1758.19,-132 1758.19,-162"/>
<text text-anchor="start" x="1612.19" y="-150" font-family="Helvetica,sans-Serif" font-size="10.00">/usr/include/GraphicsMagick</text>
<text text-anchor="middle" x="1681.19" y="-139" font-family="Helvetica,sans-Serif" font-size="10.00">/Magick++/Image.h</text>
</a>
</g>
</g>
<!-- Node4&#45;&gt;Node7 -->
<g id="edge29_Node000004_Node000007" class="edge">
<title>Node4&#45;&gt;Node7</title>
<g id="a_edge29_Node000004_Node000007"><a xlink:title=" ">
<path fill="none" stroke="#63b8ff" d="M1559.66,-332.04C1598.79,-324.51 1644.67,-312.58 1683.19,-294 1704.57,-283.69 1756.81,-249.35 1767.19,-228 1773.02,-216.01 1773.84,-209.56 1767.19,-198 1757.71,-181.53 1740.5,-169.99 1723.95,-162.17"/>
<polygon fill="#63b8ff" stroke="#63b8ff" points="1558.54,-328.69 1549.34,-333.96 1559.81,-335.57 1558.54,-328.69"/>
</a>
</g>
</g>
<!-- Node8 -->
<g id="Node000008" class="node">
<title>Node8</title>
<g id="a_Node000008"><a xlink:href="Pixels_8h.html" target="_top" xlink:title=" ">
<polygon fill="white" stroke="#666666" points="1901.19,-96 1747.19,-96 1747.19,-66 1901.19,-66 1901.19,-96"/>
<text text-anchor="start" x="1755.19" y="-84" font-family="Helvetica,sans-Serif" font-size="10.00">/usr/include/GraphicsMagick</text>
<text text-anchor="middle" x="1824.19" y="-73" font-family="Helvetica,sans-Serif" font-size="10.00">/Magick++/Pixels.h</text>
</a>
</g>
</g>
<!-- Node4&#45;&gt;Node8 -->
<g id="edge31_Node000004_Node000008" class="edge">
<title>Node4&#45;&gt;Node8</title>
<g id="a_edge31_Node000004_Node000008"><a xlink:title=" ">
<path fill="none" stroke="#63b8ff" d="M1559.62,-340.16C1680.73,-333.93 1887.3,-319.65 1910.19,-294 1964.66,-232.95 1875.78,-132.88 1838.98,-96.12"/>
<polygon fill="#63b8ff" stroke="#63b8ff" points="1559.43,-336.66 1549.62,-340.67 1559.78,-343.66 1559.43,-336.66"/>
</a>
</g>
</g>
<!-- Node9 -->
<g id="Node000009" class="node">
<title>Node9</title>
<g id="a_Node000009"><a xlink:href="CoderInfo_8h.html" target="_top" xlink:title=" ">
<polygon fill="white" stroke="#666666" points="956.19,-228 802.19,-228 802.19,-198 956.19,-198 956.19,-228"/>
<text text-anchor="start" x="810.19" y="-216" font-family="Helvetica,sans-Serif" font-size="10.00">/usr/include/GraphicsMagick</text>
<text text-anchor="middle" x="879.19" y="-205" font-family="Helvetica,sans-Serif" font-size="10.00">/Magick++/CoderInfo.h</text>
</a>
</g>
</g>
<!-- Node4&#45;&gt;Node9 -->
<g id="edge10_Node000004_Node000009" class="edge">
<title>Node4&#45;&gt;Node9</title>
<g id="a_edge10_Node000004_Node000009"><a xlink:title=" ">
<path fill="none" stroke="#63b8ff" d="M1384.54,-330.41C1383.42,-330.27 1382.3,-330.13 1381.19,-330 1290.16,-319.02 1054.48,-330.06 970.19,-294 936.15,-279.44 905.9,-247.09 890.32,-228.29"/>
<polygon fill="#63b8ff" stroke="#63b8ff" points="1384.42,-333.92 1394.79,-331.74 1385.32,-326.98 1384.42,-333.92"/>
</a>
</g>
</g>
<!-- Node10 -->
<g id="Node000010" class="node">
<title>Node10</title>
<g id="a_Node000010"><a xlink:href="STL_8h.html" target="_top" xlink:title=" ">
<polygon fill="white" stroke="#666666" points="1252.19,-162 1098.19,-162 1098.19,-132 1252.19,-132 1252.19,-162"/>
<text text-anchor="start" x="1106.19" y="-150" font-family="Helvetica,sans-Serif" font-size="10.00">/usr/include/GraphicsMagick</text>
<text text-anchor="middle" x="1175.19" y="-139" font-family="Helvetica,sans-Serif" font-size="10.00">/Magick++/STL.h</text>
</a>
</g>
</g>
<!-- Node4&#45;&gt;Node10 -->
<g id="edge32_Node000004_Node000010" class="edge">
<title>Node4&#45;&gt;Node10</title>
<g id="a_edge32_Node000004_Node000010"><a xlink:title=" ">
<path fill="none" stroke="#63b8ff" d="M1384.85,-329.64C1307.33,-316.77 1203.43,-299.13 1184.19,-294 1101.46,-271.92 1052.28,-298.15 1003.19,-228 974.63,-187.19 1039.86,-166.68 1098.02,-156.72"/>
<polygon fill="#63b8ff" stroke="#63b8ff" points="1384.69,-333.16 1395.13,-331.35 1385.83,-326.26 1384.69,-333.16"/>
</a>
</g>
</g>
<!-- Node11 -->
<g id="Node000011" class="node">
<title>Node11</title>
<g id="a_Node000011"><a xlink:href="Color_8h.html" target="_top" xlink:title=" ">
<polygon fill="white" stroke="#666666" points="1653.19,-294 1499.19,-294 1499.19,-264 1653.19,-264 1653.19,-294"/>
<text text-anchor="start" x="1507.19" y="-282" font-family="Helvetica,sans-Serif" font-size="10.00">/usr/include/GraphicsMagick</text>
<text text-anchor="middle" x="1576.19" y="-271" font-family="Helvetica,sans-Serif" font-size="10.00">/Magick++/Color.h</text>
</a>
</g>
</g>
<!-- Node4&#45;&gt;Node11 -->
<g id="edge13_Node000004_Node000011" class="edge">
<title>Node4&#45;&gt;Node11</title>
<g id="a_edge13_Node000004_Node000011"><a xlink:title=" ">
<path fill="none" stroke="#63b8ff" d="M1503.56,-324.69C1519.61,-314.82 1538.8,-303.01 1553.42,-294.01"/>
<polygon fill="#63b8ff" stroke="#63b8ff" points="1501.69,-321.73 1495.01,-329.95 1505.36,-327.69 1501.69,-321.73"/>
</a>
</g>
</g>
<!-- Node12 -->
<g id="Node000012" class="node">
<title>Node12</title>
<g id="a_Node000012"><a xlink:href="Drawable_8h.html" target="_top" xlink:title=" ">
<polygon fill="white" stroke="#666666" points="1548.19,-228 1394.19,-228 1394.19,-198 1548.19,-198 1548.19,-228"/>
<text text-anchor="start" x="1402.19" y="-216" font-family="Helvetica,sans-Serif" font-size="10.00">/usr/include/GraphicsMagick</text>
<text text-anchor="middle" x="1471.19" y="-205" font-family="Helvetica,sans-Serif" font-size="10.00">/Magick++/Drawable.h</text>
</a>
</g>
</g>
<!-- Node4&#45;&gt;Node12 -->
<g id="edge21_Node000004_Node000012" class="edge">
<title>Node4&#45;&gt;Node12</title>
<g id="a_edge21_Node000004_Node000012"><a xlink:title=" ">
<path fill="none" stroke="#63b8ff" d="M1472,-319.68C1471.79,-292.7 1471.47,-250.11 1471.3,-228.14"/>
<polygon fill="#63b8ff" stroke="#63b8ff" points="1468.5,-319.87 1472.08,-329.84 1475.5,-319.81 1468.5,-319.87"/>
</a>
</g>
</g>
<!-- Node13 -->
<g id="Node000013" class="node">
<title>Node13</title>
<g id="a_Node000013"><a xlink:href="Montage_8h.html" target="_top" xlink:title=" ">
<polygon fill="white" stroke="#666666" points="1338.19,-228 1184.19,-228 1184.19,-198 1338.19,-198 1338.19,-228"/>
<text text-anchor="start" x="1192.19" y="-216" font-family="Helvetica,sans-Serif" font-size="10.00">/usr/include/GraphicsMagick</text>
<text text-anchor="middle" x="1261.19" y="-205" font-family="Helvetica,sans-Serif" font-size="10.00">/Magick++/Montage.h</text>
</a>
</g>
</g>
<!-- Node4&#45;&gt;Node13 -->
<g id="edge30_Node000004_Node000013" class="edge">
<title>Node4&#45;&gt;Node13</title>
<g id="a_edge30_Node000004_Node000013"><a xlink:title=" ">
<path fill="none" stroke="#63b8ff" d="M1384.9,-330.26C1341.56,-321.72 1295.27,-309.42 1280.19,-294 1262.91,-276.35 1260.31,-246.02 1260.44,-228.21"/>
<polygon fill="#63b8ff" stroke="#63b8ff" points="1384.47,-333.74 1394.95,-332.19 1385.79,-326.87 1384.47,-333.74"/>
</a>
</g>
</g>
<!-- Node14 -->
<g id="Node000014" class="node">
<title>Node14</title>
<g id="a_Node000014"><a xlink:href="Exception_8h.html" target="_top" xlink:title=" ">
<polygon fill="white" stroke="#666666" points="1166.19,-228 1012.19,-228 1012.19,-198 1166.19,-198 1166.19,-228"/>
<text text-anchor="start" x="1020.19" y="-216" font-family="Helvetica,sans-Serif" font-size="10.00">/usr/include/GraphicsMagick</text>
<text text-anchor="middle" x="1089.19" y="-205" font-family="Helvetica,sans-Serif" font-size="10.00">/Magick++/Exception.h</text>
</a>
</g>
</g>
<!-- Node4&#45;&gt;Node14 -->
<g id="edge22_Node000004_Node000014" class="edge">
<title>Node4&#45;&gt;Node14</title>
<g id="a_edge22_Node000004_Node000014"><a xlink:title=" ">
<path fill="none" stroke="#63b8ff" d="M1385.33,-327.74C1346.51,-319.4 1300.52,-308.02 1260.19,-294 1206.79,-275.43 1147.71,-245.56 1114.85,-228.06"/>
<polygon fill="#63b8ff" stroke="#63b8ff" points="1385.05,-331.26 1395.55,-329.9 1386.5,-324.41 1385.05,-331.26"/>
</a>
</g>
</g>
<!-- Node15 -->
<g id="Node000015" class="node">
<title>Node15</title>
<g id="a_Node000015"><a xlink:href="Geometry_8h.html" target="_top" xlink:title=" ">
<polygon fill="white" stroke="#666666" points="1443.19,-294 1289.19,-294 1289.19,-264 1443.19,-264 1443.19,-294"/>
<text text-anchor="start" x="1297.19" y="-282" font-family="Helvetica,sans-Serif" font-size="10.00">/usr/include/GraphicsMagick</text>
<text text-anchor="middle" x="1366.19" y="-271" font-family="Helvetica,sans-Serif" font-size="10.00">/Magick++/Geometry.h</text>
</a>
</g>
</g>
<!-- Node4&#45;&gt;Node15 -->
<g id="edge25_Node000004_Node000015" class="edge">
<title>Node4&#45;&gt;Node15</title>
<g id="a_edge25_Node000004_Node000015"><a xlink:title=" ">
<path fill="none" stroke="#63b8ff" d="M1440.21,-324.69C1423.85,-314.82 1404.3,-303.01 1389.4,-294.01"/>
<polygon fill="#63b8ff" stroke="#63b8ff" points="1438.56,-327.78 1448.93,-329.95 1442.17,-321.79 1438.56,-327.78"/>
</a>
</g>
</g>
<!-- Node16 -->
<g id="Node000016" class="node">
<title>Node16</title>
<g id="a_Node000016"><a xlink:href="TypeMetric_8h.html" target="_top" xlink:title=" ">
<polygon fill="white" stroke="#666666" points="1901.19,-294 1747.19,-294 1747.19,-264 1901.19,-264 1901.19,-294"/>
<text text-anchor="start" x="1755.19" y="-282" font-family="Helvetica,sans-Serif" font-size="10.00">/usr/include/GraphicsMagick</text>
<text text-anchor="middle" x="1824.19" y="-271" font-family="Helvetica,sans-Serif" font-size="10.00">/Magick++/TypeMetric.h</text>
</a>
</g>
</g>
<!-- Node4&#45;&gt;Node16 -->
<g id="edge33_Node000004_Node000016" class="edge">
<title>Node4&#45;&gt;Node16</title>
<g id="a_edge33_Node000004_Node000016"><a xlink:title=" ">
<path fill="none" stroke="#63b8ff" d="M1559.61,-328.11C1617.16,-317.64 1691.8,-304.07 1747.12,-294.01"/>
<polygon fill="#63b8ff" stroke="#63b8ff" points="1558.65,-324.72 1549.44,-329.95 1559.9,-331.61 1558.65,-324.72"/>
</a>
</g>
</g>
<!-- Node6&#45;&gt;Node7 -->
<g id="edge6_Node000006_Node000007" class="edge">
<title>Node6&#45;&gt;Node7</title>
<g id="a_edge6_Node000006_Node000007"><a xlink:title=" ">
<path fill="none" stroke="#63b8ff" d="M1681.19,-187.54C1681.19,-178.96 1681.19,-169.61 1681.19,-162.16"/>
<polygon fill="#63b8ff" stroke="#63b8ff" points="1677.69,-187.8 1681.19,-197.8 1684.69,-187.8 1677.69,-187.8"/>
</a>
</g>
</g>
<!-- Node7&#45;&gt;Node5 -->
<g id="edge7_Node000007_Node000005" class="edge">
<title>Node7&#45;&gt;Node5</title>
<g id="a_edge7_Node000007_Node000005"><a xlink:title=" ">
<path fill="none" stroke="#63b8ff" d="M1693.89,-122.75C1708.58,-95.84 1732.31,-52.4 1744.46,-30.14"/>
<polygon fill="#63b8ff" stroke="#63b8ff" points="1690.64,-121.39 1688.92,-131.84 1696.79,-124.74 1690.64,-121.39"/>
</a>
</g>
</g>
<!-- Node7&#45;&gt;Node8 -->
<g id="edge8_Node000007_Node000008" class="edge">
<title>Node7&#45;&gt;Node8</title>
<g id="a_edge8_Node000007_Node000008"><a xlink:title=" ">
<path fill="none" stroke="#63b8ff" d="M1721.89,-127.78C1744.44,-117.69 1772.03,-105.34 1792.88,-96.01"/>
<polygon fill="#63b8ff" stroke="#63b8ff" points="1720.27,-124.68 1712.57,-131.95 1723.13,-131.06 1720.27,-124.68"/>
</a>
</g>
</g>
<!-- Node8&#45;&gt;Node5 -->
<g id="edge9_Node000008_Node000005" class="edge">
<title>Node8&#45;&gt;Node5</title>
<g id="a_edge9_Node000008_Node000005"><a xlink:title=" ">
<path fill="none" stroke="#63b8ff" d="M1800.48,-58.92C1789.86,-49.49 1777.62,-38.61 1768.12,-30.16"/>
<polygon fill="#63b8ff" stroke="#63b8ff" points="1798.41,-61.77 1808.21,-65.8 1803.06,-56.54 1798.41,-61.77"/>
</a>
</g>
</g>
<!-- Node9&#45;&gt;Node10 -->
<g id="edge11_Node000009_Node000010" class="edge">
<title>Node9&#45;&gt;Node10</title>
<g id="a_edge11_Node000009_Node000010"><a xlink:title=" ">
<path fill="none" stroke="#63b8ff" d="M954.21,-195.78C1002.39,-185.36 1064.34,-171.97 1110.38,-162.01"/>
<polygon fill="#63b8ff" stroke="#63b8ff" points="953.18,-192.42 944.15,-197.95 954.66,-199.26 953.18,-192.42"/>
</a>
</g>
</g>
<!-- Node10&#45;&gt;Node5 -->
<g id="edge12_Node000010_Node000005" class="edge">
<title>Node10&#45;&gt;Node5</title>
<g id="a_edge12_Node000010_Node000005"><a xlink:title=" ">
<path fill="none" stroke="#63b8ff" d="M1247.53,-129.7C1361.76,-103.96 1581.96,-54.35 1689.71,-30.08"/>
<polygon fill="#63b8ff" stroke="#63b8ff" points="1246.47,-126.35 1237.49,-131.96 1248.01,-133.18 1246.47,-126.35"/>
</a>
</g>
</g>
<!-- Node11&#45;&gt;Node7 -->
<g id="edge17_Node000011_Node000007" class="edge">
<title>Node11&#45;&gt;Node7</title>
<g id="a_edge17_Node000011_Node000007"><a xlink:title=" ">
<path fill="none" stroke="#63b8ff" d="M1577.01,-253.59C1578.69,-236.56 1583.25,-214.08 1595.19,-198 1607.13,-181.92 1625.91,-170.14 1642.87,-162.07"/>
<polygon fill="#63b8ff" stroke="#63b8ff" points="1573.49,-253.65 1576.27,-263.88 1580.48,-254.16 1573.49,-253.65"/>
</a>
</g>
</g>
<!-- Node11&#45;&gt;Node8 -->
<g id="edge20_Node000011_Node000008" class="edge">
<title>Node11&#45;&gt;Node8</title>
<g id="a_edge20_Node000011_Node000008"><a xlink:title=" ">
<path fill="none" stroke="#63b8ff" d="M1663.19,-272.41C1699.04,-266.07 1738.75,-253.31 1767.19,-228 1807.23,-192.36 1819.4,-125.11 1822.88,-96.01"/>
<polygon fill="#63b8ff" stroke="#63b8ff" points="1662.51,-268.97 1653.19,-274.03 1663.63,-275.88 1662.51,-268.97"/>
</a>
</g>
</g>
<!-- Node11&#45;&gt;Node12 -->
<g id="edge14_Node000011_Node000012" class="edge">
<title>Node11&#45;&gt;Node12</title>
<g id="a_edge14_Node000011_Node000012"><a xlink:title=" ">
<path fill="none" stroke="#63b8ff" d="M1544.52,-258.69C1528.31,-248.82 1508.94,-237.01 1494.18,-228.01"/>
<polygon fill="#63b8ff" stroke="#63b8ff" points="1542.78,-261.74 1553.15,-263.95 1546.43,-255.76 1542.78,-261.74"/>
</a>
</g>
</g>
<!-- Node11&#45;&gt;Node13 -->
<g id="edge18_Node000011_Node000013" class="edge">
<title>Node11&#45;&gt;Node13</title>
<g id="a_edge18_Node000011_Node000013"><a xlink:title=" ">
<path fill="none" stroke="#63b8ff" d="M1496.99,-261.91C1445.63,-251.47 1379.36,-238.01 1330.15,-228.01"/>
<polygon fill="#63b8ff" stroke="#63b8ff" points="1496.56,-265.39 1507.06,-263.95 1497.96,-258.53 1496.56,-265.39"/>
</a>
</g>
</g>
<!-- Node12&#45;&gt;Node7 -->
<g id="edge15_Node000012_Node000007" class="edge">
<title>Node12&#45;&gt;Node7</title>
<g id="a_edge15_Node000012_Node000007"><a xlink:title=" ">
<path fill="none" stroke="#63b8ff" d="M1527,-194.99C1560.8,-184.69 1603.37,-171.72 1635.21,-162.01"/>
<polygon fill="#63b8ff" stroke="#63b8ff" points="1525.82,-191.69 1517.27,-197.95 1527.86,-198.39 1525.82,-191.69"/>
</a>
</g>
</g>
<!-- Node12&#45;&gt;Node10 -->
<g id="edge16_Node000012_Node000010" class="edge">
<title>Node12&#45;&gt;Node10</title>
<g id="a_edge16_Node000012_Node000010"><a xlink:title=" ">
<path fill="none" stroke="#63b8ff" d="M1396.17,-195.78C1347.98,-185.36 1286.04,-171.97 1239.99,-162.01"/>
<polygon fill="#63b8ff" stroke="#63b8ff" points="1395.72,-199.26 1406.23,-197.95 1397.2,-192.42 1395.72,-199.26"/>
</a>
</g>
</g>
<!-- Node13&#45;&gt;Node10 -->
<g id="edge19_Node000013_Node000010" class="edge">
<title>Node13&#45;&gt;Node10</title>
<g id="a_edge19_Node000013_Node000010"><a xlink:title=" ">
<path fill="none" stroke="#63b8ff" d="M1233.98,-191.75C1221.05,-182.13 1205.9,-170.86 1194.22,-162.16"/>
<polygon fill="#63b8ff" stroke="#63b8ff" points="1231.99,-194.63 1242.1,-197.8 1236.17,-189.02 1231.99,-194.63"/>
</a>
</g>
</g>
<!-- Node14&#45;&gt;Node7 -->
<g id="edge23_Node000014_Node000007" class="edge">
<title>Node14&#45;&gt;Node7</title>
<g id="a_edge23_Node000014_Node000007"><a xlink:title=" ">
<path fill="none" stroke="#63b8ff" d="M1176.85,-197.83C1334.22,-177.53 1506.6,-162.16 1603.86,-154.12"/>
<polygon fill="#63b8ff" stroke="#63b8ff" points="1175.97,-194.42 1166.51,-199.18 1176.88,-201.36 1175.97,-194.42"/>
</a>
</g>
</g>
<!-- Node14&#45;&gt;Node10 -->
<g id="edge24_Node000014_Node000010" class="edge">
<title>Node14&#45;&gt;Node10</title>
<g id="a_edge24_Node000014_Node000010"><a xlink:title=" ">
<path fill="none" stroke="#63b8ff" d="M1116.39,-191.75C1129.33,-182.13 1144.47,-170.86 1156.16,-162.16"/>
<polygon fill="#63b8ff" stroke="#63b8ff" points="1114.21,-189.02 1108.27,-197.8 1118.39,-194.63 1114.21,-189.02"/>
</a>
</g>
</g>
<!-- Node15&#45;&gt;Node7 -->
<g id="edge27_Node000015_Node000007" class="edge">
<title>Node15&#45;&gt;Node7</title>
<g id="a_edge27_Node000015_Node000007"><a xlink:title=" ">
<path fill="none" stroke="#63b8ff" d="M1365.29,-253.82C1366,-235.86 1370.1,-212.12 1385.19,-198 1416.1,-169.06 1527.03,-156.71 1603.95,-151.56"/>
<polygon fill="#63b8ff" stroke="#63b8ff" points="1361.79,-253.83 1365.21,-263.86 1368.79,-253.89 1361.79,-253.83"/>
</a>
</g>
</g>
<!-- Node15&#45;&gt;Node12 -->
<g id="edge26_Node000015_Node000012" class="edge">
<title>Node15&#45;&gt;Node12</title>
<g id="a_edge26_Node000015_Node000012"><a xlink:title=" ">
<path fill="none" stroke="#63b8ff" d="M1397.86,-258.69C1414.07,-248.82 1433.44,-237.01 1448.2,-228.01"/>
<polygon fill="#63b8ff" stroke="#63b8ff" points="1395.95,-255.76 1389.23,-263.95 1399.59,-261.74 1395.95,-255.76"/>
</a>
</g>
</g>
<!-- Node15&#45;&gt;Node13 -->
<g id="edge28_Node000015_Node000013" class="edge">
<title>Node15&#45;&gt;Node13</title>
<g id="a_edge28_Node000015_Node000013"><a xlink:title=" ">
<path fill="none" stroke="#63b8ff" d="M1334.52,-258.69C1318.31,-248.82 1298.94,-237.01 1284.18,-228.01"/>
<polygon fill="#63b8ff" stroke="#63b8ff" points="1332.78,-261.74 1343.15,-263.95 1336.43,-255.76 1332.78,-261.74"/>
</a>
</g>
</g>
<!-- Node16&#45;&gt;Node7 -->
<g id="edge34_Node000016_Node000007" class="edge">
<title>Node16&#45;&gt;Node7</title>
<g id="a_edge34_Node000016_Node000007"><a xlink:title=" ">
<path fill="none" stroke="#63b8ff" d="M1822.36,-253.81C1819.87,-236.39 1814,-213.36 1800.19,-198 1784.91,-181 1762.91,-169.61 1741.98,-162.06"/>
<polygon fill="#63b8ff" stroke="#63b8ff" points="1818.89,-254.27 1823.52,-263.8 1825.85,-253.47 1818.89,-254.27"/>
</a>
</g>
</g>
<!-- Node17&#45;&gt;Node18 -->
<g id="edge36_Node000017_Node000018" class="edge">
<title>Node17&#45;&gt;Node18</title>
<g id="a_edge36_Node000017_Node000018"><a xlink:title=" ">
<path fill="none" stroke="#63b8ff" d="M705.52,-324.69C689.31,-314.82 669.94,-303.01 655.18,-294.01"/>
<polygon fill="#63b8ff" stroke="#63b8ff" points="703.78,-327.74 714.15,-329.95 707.43,-321.76 703.78,-327.74"/>
</a>
</g>
</g>
<!-- Node17&#45;&gt;Node19 -->
<g id="edge37_Node000017_Node000019" class="edge">
<title>Node17&#45;&gt;Node19</title>
<g id="a_edge37_Node000017_Node000019"><a xlink:title=" ">
<path fill="none" stroke="#63b8ff" d="M766.58,-324.2C784.26,-312.29 805.87,-297.73 819.34,-288.66"/>
<polygon fill="#63b8ff" stroke="#63b8ff" points="764.61,-321.31 758.27,-329.8 768.52,-327.11 764.61,-321.31"/>
</a>
</g>
</g>
<!-- Node17&#45;&gt;Node20 -->
<g id="edge39_Node000017_Node000020" class="edge">
<title>Node17&#45;&gt;Node20</title>
<g id="a_edge39_Node000017_Node000020"><a xlink:title=" ">
<path fill="none" stroke="#63b8ff" d="M737.19,-319.57C737.19,-290.17 737.19,-242.31 737.19,-222.75"/>
<polygon fill="#63b8ff" stroke="#63b8ff" points="733.69,-319.84 737.19,-329.84 740.69,-319.84 733.69,-319.84"/>
</a>
</g>
</g>
<!-- Node19&#45;&gt;Node20 -->
<g id="edge38_Node000019_Node000020" class="edge">
<title>Node19&#45;&gt;Node20</title>
<g id="a_edge38_Node000019_Node000020"><a xlink:title=" ">
<path fill="none" stroke="#63b8ff" d="M810.93,-263.68C792.27,-251.11 765.73,-233.23 750.1,-222.7"/>
<polygon fill="#63b8ff" stroke="#63b8ff" points="809.13,-266.68 819.38,-269.37 813.04,-260.88 809.13,-266.68"/>
</a>
</g>
</g>
<!-- Node21&#45;&gt;Node3 -->
<g id="edge44_Node000021_Node000003" class="edge">
<title>Node21&#45;&gt;Node3</title>
<g id="a_edge44_Node000021_Node000003"><a xlink:title=" ">
<path fill="none" stroke="#63b8ff" d="M1003.3,-460.25C945.44,-449.76 870.1,-436.1 814.36,-425.99"/>
<polygon fill="#63b8ff" stroke="#63b8ff" points="1002.69,-463.69 1013.16,-462.03 1003.94,-456.81 1002.69,-463.69"/>
</a>
</g>
</g>
<!-- Node22&#45;&gt;Node3 -->
<g id="edge46_Node000022_Node000003" class="edge">
<title>Node22&#45;&gt;Node3</title>
<g id="a_edge46_Node000022_Node000003"><a xlink:title=" ">
<path fill="none" stroke="#63b8ff" d="M1174.94,-461.87C1042.5,-443.74 899.88,-428.4 814.25,-419.65"/>
<polygon fill="#63b8ff" stroke="#63b8ff" points="1174.48,-465.34 1184.86,-463.23 1175.43,-458.4 1174.48,-465.34"/>
</a>
</g>
</g>
<!-- Node23&#45;&gt;Node3 -->
<g id="edge48_Node000023_Node000003" class="edge">
<title>Node23&#45;&gt;Node3</title>
<g id="a_edge48_Node000023_Node000003"><a xlink:title=" ">
<path fill="none" stroke="#63b8ff" d="M105.94,-517.76C106.44,-499.56 110.42,-475.54 126.19,-462 165.85,-427.93 504.61,-416.71 659.94,-413.33"/>
<polygon fill="#63b8ff" stroke="#63b8ff" points="102.44,-517.95 106,-527.93 109.44,-517.91 102.44,-517.95"/>
</a>
</g>
</g>
<!-- Node23&#45;&gt;Node24 -->
<g id="edge49_Node000023_Node000024" class="edge">
<title>Node23&#45;&gt;Node24</title>
<g id="a_edge49_Node000023_Node000024"><a xlink:title=" ">
<path fill="none" stroke="#63b8ff" d="M138.86,-522.69C155.07,-512.82 174.44,-501.01 189.2,-492.01"/>
<polygon fill="#63b8ff" stroke="#63b8ff" points="136.95,-519.76 130.23,-527.95 140.59,-525.74 136.95,-519.76"/>
</a>
</g>
</g>
<!-- Node24&#45;&gt;Node3 -->
<g id="edge50_Node000024_Node000003" class="edge">
<title>Node24&#45;&gt;Node3</title>
<g id="a_edge50_Node000024_Node000003"><a xlink:title=" ">
<path fill="none" stroke="#63b8ff" d="M299.44,-461.87C431.88,-443.74 574.49,-428.4 660.12,-419.65"/>
<polygon fill="#63b8ff" stroke="#63b8ff" points="298.95,-458.4 289.52,-463.23 299.9,-465.34 298.95,-458.4"/>
</a>
</g>
</g>
<!-- Node25&#45;&gt;Node3 -->
<g id="edge52_Node000025_Node000003" class="edge">
<title>Node25&#45;&gt;Node3</title>
<g id="a_edge52_Node000025_Node000003"><a xlink:title=" ">
<path fill="none" stroke="#63b8ff" d="M471.08,-460.25C528.93,-449.76 604.27,-436.1 660.02,-425.99"/>
<polygon fill="#63b8ff" stroke="#63b8ff" points="470.43,-456.81 461.22,-462.03 471.68,-463.69 470.43,-456.81"/>
</a>
</g>
</g>
<!-- Node26&#45;&gt;Node3 -->
<g id="edge54_Node000026_Node000003" class="edge">
<title>Node26&#45;&gt;Node3</title>
<g id="a_edge54_Node000026_Node000003"><a xlink:title=" ">
<path fill="none" stroke="#63b8ff" d="M605.43,-458.59C634.36,-448.36 670.47,-435.59 697.56,-426.01"/>
<polygon fill="#63b8ff" stroke="#63b8ff" points="604.17,-455.32 595.91,-461.95 606.5,-461.92 604.17,-455.32"/>
</a>
</g>
</g>
<!-- Node27&#45;&gt;Node3 -->
<g id="edge57_Node000027_Node000003" class="edge">
<title>Node27&#45;&gt;Node3</title>
<g id="a_edge57_Node000027_Node000003"><a xlink:title=" ">
<path fill="none" stroke="#63b8ff" d="M480.46,-526.83C546.26,-515 627.59,-499.38 642.19,-492 659.88,-483.06 660.13,-474.89 675.19,-462 689.68,-449.59 706.57,-436.03 719.05,-426.16"/>
<polygon fill="#63b8ff" stroke="#63b8ff" points="479.69,-523.42 470.46,-528.62 480.92,-530.31 479.69,-523.42"/>
</a>
</g>
</g>
<!-- Node28&#45;&gt;Node3 -->
<g id="edge59_Node000028_Node000003" class="edge">
<title>Node28&#45;&gt;Node3</title>
<g id="a_edge59_Node000028_Node000003"><a xlink:title=" ">
<path fill="none" stroke="#63b8ff" d="M617.89,-524.15C637.09,-516.13 658.23,-505.41 675.19,-492 698.9,-473.25 718.73,-443.58 729.2,-426.13"/>
<polygon fill="#63b8ff" stroke="#63b8ff" points="616.32,-521.01 608.35,-527.98 618.94,-527.5 616.32,-521.01"/>
</a>
</g>
</g>
<!-- Node29&#45;&gt;Node3 -->
<g id="edge61_Node000029_Node000003" class="edge">
<title>Node29&#45;&gt;Node3</title>
<g id="a_edge61_Node000029_Node000003"><a xlink:title=" ">
<path fill="none" stroke="#63b8ff" d="M737.19,-517.68C737.19,-490.7 737.19,-448.11 737.19,-426.14"/>
<polygon fill="#63b8ff" stroke="#63b8ff" points="733.69,-517.84 737.19,-527.84 740.69,-517.84 733.69,-517.84"/>
</a>
</g>
</g>
<!-- Node30&#45;&gt;Node3 -->
<g id="edge63_Node000030_Node000003" class="edge">
<title>Node30&#45;&gt;Node3</title>
<g id="a_edge63_Node000030_Node000003"><a xlink:title=" ">
<path fill="none" stroke="#63b8ff" d="M852.29,-524.32C832.58,-516.45 811.2,-505.78 794.19,-492 771.4,-473.53 753.5,-443.77 744.21,-426.22"/>
<polygon fill="#63b8ff" stroke="#63b8ff" points="851.21,-527.66 861.8,-527.97 853.71,-521.12 851.21,-527.66"/>
</a>
</g>
</g>
</g>
</svg>
