<?xml version="1.0" encoding="UTF-8" standalone="no"?>
<!DOCTYPE svg PUBLIC "-//W3C//DTD SVG 1.1//EN"
 "http://www.w3.org/Graphics/SVG/1.1/DTD/svg11.dtd">
<!-- Generated by graphviz version 2.43.0 (0)
 -->
<!-- Title: Graphical Class Hierarchy Pages: 1 -->
<svg width="480pt" height="434pt"
 viewBox="0.00 0.00 480.00 434.00" xmlns="http://www.w3.org/2000/svg" xmlns:xlink="http://www.w3.org/1999/xlink">
<g id="graph0" class="graph" transform="scale(1 1) rotate(0) translate(4 430)">
<title>Graphical Class Hierarchy</title>
<!-- Node0 -->
<g id="Node000000" class="node">
<title>Node0</title>
<g id="a_Node000000"><a xlink:href="classPhysicalLayer.html" target="_top" xlink:title="Provides common interface for protocols that run on LoRa/FSK modules, such as RTTY or LoRaWAN....">
<polygon fill="white" stroke="#666666" points="84,-241 0,-241 0,-222 84,-222 84,-241"/>
<text text-anchor="middle" x="42" y="-229" font-family="Helvetica,sans-Serif" font-size="10.00">PhysicalLayer</text>
</a>
</g>
</g>
<!-- Node1 -->
<g id="Node000001" class="node">
<title>Node1</title>
<g id="a_Node000001"><a xlink:href="classCC1101.html" target="_top" xlink:title="Control class for CC1101 module.">
<polygon fill="white" stroke="#666666" points="189.5,-389 135.5,-389 135.5,-370 189.5,-370 189.5,-389"/>
<text text-anchor="middle" x="162.5" y="-377" font-family="Helvetica,sans-Serif" font-size="10.00">CC1101</text>
</a>
</g>
</g>
<!-- Node0&#45;&gt;Node1 -->
<g id="edge144_Node000000_Node000001" class="edge">
<title>Node0&#45;&gt;Node1</title>
<g id="a_edge144_Node000000_Node000001"><a xlink:title=" ">
<path fill="none" stroke="#63b8ff" d="M49.8,-250.4C60.67,-278.18 84.41,-330.12 120,-361.5 124.48,-365.45 129.95,-368.64 135.44,-371.17"/>
<polygon fill="#63b8ff" stroke="#63b8ff" points="53.07,-249.15 46.27,-241.03 46.52,-251.62 53.07,-249.15"/>
</a>
</g>
</g>
<!-- Node2 -->
<g id="Node000002" class="node">
<title>Node2</title>
<g id="a_Node000002"><a xlink:href="classExternalRadio.html" target="_top" xlink:title="Class to interface with external radio hardware.">
<polygon fill="white" stroke="#666666" points="205,-352 120,-352 120,-333 205,-333 205,-352"/>
<text text-anchor="middle" x="162.5" y="-340" font-family="Helvetica,sans-Serif" font-size="10.00">ExternalRadio</text>
</a>
</g>
</g>
<!-- Node0&#45;&gt;Node2 -->
<g id="edge145_Node000000_Node000002" class="edge">
<title>Node0&#45;&gt;Node2</title>
<g id="a_edge145_Node000000_Node000002"><a xlink:title=" ">
<path fill="none" stroke="#63b8ff" d="M54.21,-249.65C67.66,-270.16 91.95,-303.43 120,-324.5 124.27,-327.71 129.2,-330.48 134.14,-332.82"/>
<polygon fill="#63b8ff" stroke="#63b8ff" points="57.15,-247.75 48.82,-241.21 51.26,-251.52 57.15,-247.75"/>
</a>
</g>
</g>
<!-- Node3 -->
<g id="Node000003" class="node">
<title>Node3</title>
<g id="a_Node000003"><a xlink:href="classLRxxxx.html" target="_top" xlink:title=" ">
<polygon fill="white" stroke="#666666" points="189,-315 136,-315 136,-296 189,-296 189,-315"/>
<text text-anchor="middle" x="162.5" y="-303" font-family="Helvetica,sans-Serif" font-size="10.00">LRxxxx</text>
</a>
</g>
</g>
<!-- Node0&#45;&gt;Node3 -->
<g id="edge146_Node000000_Node000003" class="edge">
<title>Node0&#45;&gt;Node3</title>
<g id="a_edge146_Node000000_Node000003"><a xlink:title=" ">
<path fill="none" stroke="#63b8ff" d="M62.52,-247.55C77.62,-259.5 99.36,-275.71 120,-287.5 125.32,-290.54 131.25,-293.4 136.92,-295.9"/>
<polygon fill="#63b8ff" stroke="#63b8ff" points="64.44,-244.61 54.46,-241.08 60.06,-250.07 64.44,-244.61"/>
</a>
</g>
</g>
<!-- Node9 -->
<g id="Node000009" class="node">
<title>Node9</title>
<g id="a_Node000009"><a xlink:href="classRF69.html" target="_top" xlink:title="Control class for RF69 module. Also serves as base class for SX1231.">
<polygon fill="white" stroke="#666666" points="183,-278 142,-278 142,-259 183,-259 183,-278"/>
<text text-anchor="middle" x="162.5" y="-266" font-family="Helvetica,sans-Serif" font-size="10.00">RF69</text>
</a>
</g>
</g>
<!-- Node0&#45;&gt;Node9 -->
<g id="edge152_Node000000_Node000009" class="edge">
<title>Node0&#45;&gt;Node9</title>
<g id="a_edge152_Node000000_Node000009"><a xlink:title=" ">
<path fill="none" stroke="#63b8ff" d="M83.22,-244.06C103,-250.24 125.95,-257.4 141.86,-262.37"/>
<polygon fill="#63b8ff" stroke="#63b8ff" points="84.11,-240.67 73.52,-241.03 82.02,-247.35 84.11,-240.67"/>
</a>
</g>
</g>
<!-- Node12 -->
<g id="Node000012" class="node">
<title>Node12</title>
<g id="a_Node000012"><a xlink:href="classSX126x.html" target="_top" xlink:title="Base class for SX126x series. All derived classes for SX126x (e.g. SX1262 or SX1268) inherit from thi...">
<polygon fill="white" stroke="#666666" points="189,-241 136,-241 136,-222 189,-222 189,-241"/>
<text text-anchor="middle" x="162.5" y="-229" font-family="Helvetica,sans-Serif" font-size="10.00">SX126x</text>
</a>
</g>
</g>
<!-- Node0&#45;&gt;Node12 -->
<g id="edge155_Node000000_Node000012" class="edge">
<title>Node0&#45;&gt;Node12</title>
<g id="a_edge155_Node000000_Node000012"><a xlink:title=" ">
<path fill="none" stroke="#63b8ff" d="M94.43,-231.5C108.81,-231.5 123.83,-231.5 135.99,-231.5"/>
<polygon fill="#63b8ff" stroke="#63b8ff" points="94.11,-228 84.11,-231.5 94.11,-235 94.11,-228"/>
</a>
</g>
</g>
<!-- Node17 -->
<g id="Node000017" class="node">
<title>Node17</title>
<g id="a_Node000017"><a xlink:href="classSX127x.html" target="_top" xlink:title="Base class for SX127x series. All derived classes for SX127x (e.g. SX1278 or SX1272) inherit from thi...">
<polygon fill="white" stroke="#666666" points="189,-204 136,-204 136,-185 189,-185 189,-204"/>
<text text-anchor="middle" x="162.5" y="-192" font-family="Helvetica,sans-Serif" font-size="10.00">SX127x</text>
</a>
</g>
</g>
<!-- Node0&#45;&gt;Node17 -->
<g id="edge160_Node000000_Node000017" class="edge">
<title>Node0&#45;&gt;Node17</title>
<g id="a_edge160_Node000000_Node000017"><a xlink:title=" ">
<path fill="none" stroke="#63b8ff" d="M83.42,-218.88C100.8,-213.45 120.59,-207.27 135.89,-202.49"/>
<polygon fill="#63b8ff" stroke="#63b8ff" points="82.02,-215.65 73.52,-221.97 84.11,-222.33 82.02,-215.65"/>
</a>
</g>
</g>
<!-- Node24 -->
<g id="Node000024" class="node">
<title>Node24</title>
<g id="a_Node000024"><a xlink:href="classSX128x.html" target="_top" xlink:title="Base class for SX128x series. All derived classes for SX128x (e.g. SX1280 or SX1281) inherit from thi...">
<polygon fill="white" stroke="#666666" points="189,-167 136,-167 136,-148 189,-148 189,-167"/>
<text text-anchor="middle" x="162.5" y="-155" font-family="Helvetica,sans-Serif" font-size="10.00">SX128x</text>
</a>
</g>
</g>
<!-- Node0&#45;&gt;Node24 -->
<g id="edge167_Node000000_Node000024" class="edge">
<title>Node0&#45;&gt;Node24</title>
<g id="a_edge167_Node000000_Node000024"><a xlink:title=" ">
<path fill="none" stroke="#63b8ff" d="M62.9,-215.68C78.04,-204.04 99.68,-188.27 120,-176.5 125.76,-173.16 132.21,-169.97 138.27,-167.19"/>
<polygon fill="#63b8ff" stroke="#63b8ff" points="60.53,-213.09 54.79,-221.99 64.83,-218.61 60.53,-213.09"/>
</a>
</g>
</g>
<!-- Node28 -->
<g id="Node000028" class="node">
<title>Node28</title>
<g id="a_Node000028"><a xlink:href="classSi443x.html" target="_top" xlink:title="Base class for Si443x series. All derived classes for Si443x (e.g. Si4431 or Si4432) inherit from thi...">
<polygon fill="white" stroke="#666666" points="187.5,-130 137.5,-130 137.5,-111 187.5,-111 187.5,-130"/>
<text text-anchor="middle" x="162.5" y="-118" font-family="Helvetica,sans-Serif" font-size="10.00">Si443x</text>
</a>
</g>
</g>
<!-- Node0&#45;&gt;Node28 -->
<g id="edge171_Node000000_Node000028" class="edge">
<title>Node0&#45;&gt;Node28</title>
<g id="a_edge171_Node000000_Node000028"><a xlink:title=" ">
<path fill="none" stroke="#63b8ff" d="M54.52,-213.38C68.12,-193.17 92.41,-160.55 120,-139.5 125.17,-135.56 131.28,-132.19 137.21,-129.44"/>
<polygon fill="#63b8ff" stroke="#63b8ff" points="51.45,-211.68 48.89,-221.96 57.3,-215.52 51.45,-211.68"/>
</a>
</g>
</g>
<!-- Node32 -->
<g id="Node000032" class="node">
<title>Node32</title>
<g id="a_Node000032"><a xlink:href="classnRF24.html" target="_top" xlink:title="Control class for nRF24 module.">
<polygon fill="white" stroke="#666666" points="186,-93 139,-93 139,-74 186,-74 186,-93"/>
<text text-anchor="middle" x="162.5" y="-81" font-family="Helvetica,sans-Serif" font-size="10.00">nRF24</text>
</a>
</g>
</g>
<!-- Node0&#45;&gt;Node32 -->
<g id="edge175_Node000000_Node000032" class="edge">
<title>Node0&#45;&gt;Node32</title>
<g id="a_edge175_Node000000_Node000032"><a xlink:title=" ">
<path fill="none" stroke="#63b8ff" d="M50.23,-212.07C61.39,-184.44 85.2,-133.71 120,-102.5 125.43,-97.63 132.31,-93.81 138.91,-90.91"/>
<polygon fill="#63b8ff" stroke="#63b8ff" points="46.83,-211.16 46.47,-221.75 53.36,-213.7 46.83,-211.16"/>
</a>
</g>
</g>
<!-- Node4 -->
<g id="Node000004" class="node">
<title>Node4</title>
<g id="a_Node000004"><a xlink:href="classLR11x0.html" target="_top" xlink:title="Base class for LR11x0 series. All derived classes for LR11x0 (e.g. LR1110 or LR1120) inherit from thi...">
<polygon fill="white" stroke="#666666" points="294,-389 241,-389 241,-370 294,-370 294,-389"/>
<text text-anchor="middle" x="267.5" y="-377" font-family="Helvetica,sans-Serif" font-size="10.00">LR11x0</text>
</a>
</g>
</g>
<!-- Node3&#45;&gt;Node4 -->
<g id="edge147_Node000003_Node000004" class="edge">
<title>Node3&#45;&gt;Node4</title>
<g id="a_edge147_Node000003_Node000004"><a xlink:title=" ">
<path fill="none" stroke="#63b8ff" d="M197.48,-319.77C200.09,-321.25 202.63,-322.83 205,-324.5 223.75,-337.72 223.55,-346.6 241,-361.5 244.38,-364.39 248.21,-367.27 251.86,-369.86"/>
<polygon fill="#63b8ff" stroke="#63b8ff" points="198.96,-316.59 188.46,-315.12 195.75,-322.81 198.96,-316.59"/>
</a>
</g>
</g>
<!-- Node8 -->
<g id="Node000008" class="node">
<title>Node8</title>
<g id="a_Node000008"><a xlink:href="classLR2021.html" target="_top" xlink:title=" ">
<polygon fill="white" stroke="#666666" points="294,-352 241,-352 241,-333 294,-333 294,-352"/>
<text text-anchor="middle" x="267.5" y="-340" font-family="Helvetica,sans-Serif" font-size="10.00">LR2021</text>
</a>
</g>
</g>
<!-- Node3&#45;&gt;Node8 -->
<g id="edge151_Node000003_Node000008" class="edge">
<title>Node3&#45;&gt;Node8</title>
<g id="a_edge151_Node000003_Node000008"><a xlink:title=" ">
<path fill="none" stroke="#63b8ff" d="M198.87,-318.21C212.62,-323.15 228.08,-328.7 240.75,-333.25"/>
<polygon fill="#63b8ff" stroke="#63b8ff" points="199.82,-314.83 189.23,-314.74 197.45,-321.42 199.82,-314.83"/>
</a>
</g>
</g>
<!-- Node5 -->
<g id="Node000005" class="node">
<title>Node5</title>
<g id="a_Node000005"><a xlink:href="classLR1110.html" target="_top" xlink:title="Derived class for LR1110 modules.">
<polygon fill="white" stroke="#666666" points="383,-426 330,-426 330,-407 383,-407 383,-426"/>
<text text-anchor="middle" x="356.5" y="-414" font-family="Helvetica,sans-Serif" font-size="10.00">LR1110</text>
</a>
</g>
</g>
<!-- Node4&#45;&gt;Node5 -->
<g id="edge148_Node000004_Node000005" class="edge">
<title>Node4&#45;&gt;Node5</title>
<g id="a_edge148_Node000004_Node000005"><a xlink:title=" ">
<path fill="none" stroke="#63b8ff" d="M300.42,-393.08C311.19,-397.65 322.97,-402.67 332.87,-406.88"/>
<polygon fill="#63b8ff" stroke="#63b8ff" points="301.48,-389.72 290.9,-389.03 298.74,-396.16 301.48,-389.72"/>
</a>
</g>
</g>
<!-- Node6 -->
<g id="Node000006" class="node">
<title>Node6</title>
<g id="a_Node000006"><a xlink:href="classLR1120.html" target="_top" xlink:title="Derived class for LR1120 modules.">
<polygon fill="white" stroke="#666666" points="383,-389 330,-389 330,-370 383,-370 383,-389"/>
<text text-anchor="middle" x="356.5" y="-377" font-family="Helvetica,sans-Serif" font-size="10.00">LR1120</text>
</a>
</g>
</g>
<!-- Node4&#45;&gt;Node6 -->
<g id="edge149_Node000004_Node000006" class="edge">
<title>Node4&#45;&gt;Node6</title>
<g id="a_edge149_Node000004_Node000006"><a xlink:title=" ">
<path fill="none" stroke="#63b8ff" d="M304.26,-379.5C312.8,-379.5 321.76,-379.5 329.75,-379.5"/>
<polygon fill="#63b8ff" stroke="#63b8ff" points="304.13,-376 294.13,-379.5 304.13,-383 304.13,-376"/>
</a>
</g>
</g>
<!-- Node7 -->
<g id="Node000007" class="node">
<title>Node7</title>
<g id="a_Node000007"><a xlink:href="classLR1121.html" target="_top" xlink:title="Derived class for LR1121 modules.">
<polygon fill="white" stroke="#666666" points="472,-389 419,-389 419,-370 472,-370 472,-389"/>
<text text-anchor="middle" x="445.5" y="-377" font-family="Helvetica,sans-Serif" font-size="10.00">LR1121</text>
</a>
</g>
</g>
<!-- Node6&#45;&gt;Node7 -->
<g id="edge150_Node000006_Node000007" class="edge">
<title>Node6&#45;&gt;Node7</title>
<g id="a_edge150_Node000006_Node000007"><a xlink:title=" ">
<path fill="none" stroke="#63b8ff" d="M393.26,-379.5C401.8,-379.5 410.76,-379.5 418.75,-379.5"/>
<polygon fill="#63b8ff" stroke="#63b8ff" points="393.13,-376 383.13,-379.5 393.13,-383 393.13,-376"/>
</a>
</g>
</g>
<!-- Node10 -->
<g id="Node000010" class="node">
<title>Node10</title>
<g id="a_Node000010"><a xlink:href="classSX1231.html" target="_top" xlink:title="Control class for SX1231 module. Overrides some methods from RF69 due to different register values.">
<polygon fill="white" stroke="#666666" points="294,-315 241,-315 241,-296 294,-296 294,-315"/>
<text text-anchor="middle" x="267.5" y="-303" font-family="Helvetica,sans-Serif" font-size="10.00">SX1231</text>
</a>
</g>
</g>
<!-- Node9&#45;&gt;Node10 -->
<g id="edge153_Node000009_Node000010" class="edge">
<title>Node9&#45;&gt;Node10</title>
<g id="a_edge153_Node000009_Node000010"><a xlink:title=" ">
<path fill="none" stroke="#63b8ff" d="M192.78,-279.02C207.93,-284.46 226.25,-291.04 240.84,-296.28"/>
<polygon fill="#63b8ff" stroke="#63b8ff" points="193.95,-275.72 183.36,-275.63 191.59,-282.31 193.95,-275.72"/>
</a>
</g>
</g>
<!-- Node11 -->
<g id="Node000011" class="node">
<title>Node11</title>
<g id="a_Node000011"><a xlink:href="classSX1233.html" target="_top" xlink:title="Control class for SX1233 module. Overrides some methods from SX1231/RF69 due to different register va...">
<polygon fill="white" stroke="#666666" points="383,-352 330,-352 330,-333 383,-333 383,-352"/>
<text text-anchor="middle" x="356.5" y="-340" font-family="Helvetica,sans-Serif" font-size="10.00">SX1233</text>
</a>
</g>
</g>
<!-- Node10&#45;&gt;Node11 -->
<g id="edge154_Node000010_Node000011" class="edge">
<title>Node10&#45;&gt;Node11</title>
<g id="a_edge154_Node000010_Node000011"><a xlink:title=" ">
<path fill="none" stroke="#63b8ff" d="M300.42,-319.08C311.19,-323.65 322.97,-328.67 332.87,-332.88"/>
<polygon fill="#63b8ff" stroke="#63b8ff" points="301.48,-315.72 290.9,-315.03 298.74,-322.16 301.48,-315.72"/>
</a>
</g>
</g>
<!-- Node13 -->
<g id="Node000013" class="node">
<title>Node13</title>
<g id="a_Node000013"><a xlink:href="classSX1262.html" target="_top" xlink:title="Derived class for SX1262 modules.">
<polygon fill="white" stroke="#666666" points="294,-278 241,-278 241,-259 294,-259 294,-278"/>
<text text-anchor="middle" x="267.5" y="-266" font-family="Helvetica,sans-Serif" font-size="10.00">SX1262</text>
</a>
</g>
</g>
<!-- Node12&#45;&gt;Node13 -->
<g id="edge156_Node000012_Node000013" class="edge">
<title>Node12&#45;&gt;Node13</title>
<g id="a_edge156_Node000012_Node000013"><a xlink:title=" ">
<path fill="none" stroke="#63b8ff" d="M198.87,-244.21C212.62,-249.15 228.08,-254.7 240.75,-259.25"/>
<polygon fill="#63b8ff" stroke="#63b8ff" points="199.82,-240.83 189.23,-240.74 197.45,-247.42 199.82,-240.83"/>
</a>
</g>
</g>
<!-- Node16 -->
<g id="Node000016" class="node">
<title>Node16</title>
<g id="a_Node000016"><a xlink:href="classSX1268.html" target="_top" xlink:title="Derived class for SX1268 modules.">
<polygon fill="white" stroke="#666666" points="294,-241 241,-241 241,-222 294,-222 294,-241"/>
<text text-anchor="middle" x="267.5" y="-229" font-family="Helvetica,sans-Serif" font-size="10.00">SX1268</text>
</a>
</g>
</g>
<!-- Node12&#45;&gt;Node16 -->
<g id="edge159_Node000012_Node000016" class="edge">
<title>Node12&#45;&gt;Node16</title>
<g id="a_edge159_Node000012_Node000016"><a xlink:title=" ">
<path fill="none" stroke="#63b8ff" d="M199.27,-231.5C212.92,-231.5 228.21,-231.5 240.75,-231.5"/>
<polygon fill="#63b8ff" stroke="#63b8ff" points="199.23,-228 189.23,-231.5 199.23,-235 199.23,-228"/>
</a>
</g>
</g>
<!-- Node14 -->
<g id="Node000014" class="node">
<title>Node14</title>
<g id="a_Node000014"><a xlink:href="classLLCC68.html" target="_top" xlink:title="Derived class for LLCC68 modules.">
<polygon fill="white" stroke="#666666" points="383,-315 330,-315 330,-296 383,-296 383,-315"/>
<text text-anchor="middle" x="356.5" y="-303" font-family="Helvetica,sans-Serif" font-size="10.00">LLCC68</text>
</a>
</g>
</g>
<!-- Node13&#45;&gt;Node14 -->
<g id="edge157_Node000013_Node000014" class="edge">
<title>Node13&#45;&gt;Node14</title>
<g id="a_edge157_Node000013_Node000014"><a xlink:title=" ">
<path fill="none" stroke="#63b8ff" d="M300.42,-282.08C311.19,-286.65 322.97,-291.67 332.87,-295.88"/>
<polygon fill="#63b8ff" stroke="#63b8ff" points="301.48,-278.72 290.9,-278.03 298.74,-285.16 301.48,-278.72"/>
</a>
</g>
</g>
<!-- Node15 -->
<g id="Node000015" class="node">
<title>Node15</title>
<g id="a_Node000015"><a xlink:href="classSX1261.html" target="_top" xlink:title="Derived class for SX1261 modules.">
<polygon fill="white" stroke="#666666" points="383,-278 330,-278 330,-259 383,-259 383,-278"/>
<text text-anchor="middle" x="356.5" y="-266" font-family="Helvetica,sans-Serif" font-size="10.00">SX1261</text>
</a>
</g>
</g>
<!-- Node13&#45;&gt;Node15 -->
<g id="edge158_Node000013_Node000015" class="edge">
<title>Node13&#45;&gt;Node15</title>
<g id="a_edge158_Node000013_Node000015"><a xlink:title=" ">
<path fill="none" stroke="#63b8ff" d="M304.26,-268.5C312.8,-268.5 321.76,-268.5 329.75,-268.5"/>
<polygon fill="#63b8ff" stroke="#63b8ff" points="304.13,-265 294.13,-268.5 304.13,-272 304.13,-265"/>
</a>
</g>
</g>
<!-- Node18 -->
<g id="Node000018" class="node">
<title>Node18</title>
<g id="a_Node000018"><a xlink:href="classSX1272.html" target="_top" xlink:title="Derived class for SX1272 modules. Also used as base class for SX1273. Both modules use the same basic...">
<polygon fill="white" stroke="#666666" points="294,-204 241,-204 241,-185 294,-185 294,-204"/>
<text text-anchor="middle" x="267.5" y="-192" font-family="Helvetica,sans-Serif" font-size="10.00">SX1272</text>
</a>
</g>
</g>
<!-- Node17&#45;&gt;Node18 -->
<g id="edge161_Node000017_Node000018" class="edge">
<title>Node17&#45;&gt;Node18</title>
<g id="a_edge161_Node000017_Node000018"><a xlink:title=" ">
<path fill="none" stroke="#63b8ff" d="M199.27,-194.5C212.92,-194.5 228.21,-194.5 240.75,-194.5"/>
<polygon fill="#63b8ff" stroke="#63b8ff" points="199.23,-191 189.23,-194.5 199.23,-198 199.23,-191"/>
</a>
</g>
</g>
<!-- Node20 -->
<g id="Node000020" class="node">
<title>Node20</title>
<g id="a_Node000020"><a xlink:href="classSX1278.html" target="_top" xlink:title="Derived class for SX1278 modules. Also used as base class for SX1276, SX1277, SX1279,...">
<polygon fill="white" stroke="#666666" points="294,-167 241,-167 241,-148 294,-148 294,-167"/>
<text text-anchor="middle" x="267.5" y="-155" font-family="Helvetica,sans-Serif" font-size="10.00">SX1278</text>
</a>
</g>
</g>
<!-- Node17&#45;&gt;Node20 -->
<g id="edge163_Node000017_Node000020" class="edge">
<title>Node17&#45;&gt;Node20</title>
<g id="a_edge163_Node000017_Node000020"><a xlink:title=" ">
<path fill="none" stroke="#63b8ff" d="M198.87,-181.79C212.62,-176.85 228.08,-171.3 240.75,-166.75"/>
<polygon fill="#63b8ff" stroke="#63b8ff" points="197.45,-178.58 189.23,-185.26 199.82,-185.17 197.45,-178.58"/>
</a>
</g>
</g>
<!-- Node19 -->
<g id="Node000019" class="node">
<title>Node19</title>
<g id="a_Node000019"><a xlink:href="classSX1273.html" target="_top" xlink:title="Derived class for SX1273 modules. Overrides some methods from SX1272 due to different parameter range...">
<polygon fill="white" stroke="#666666" points="383,-241 330,-241 330,-222 383,-222 383,-241"/>
<text text-anchor="middle" x="356.5" y="-229" font-family="Helvetica,sans-Serif" font-size="10.00">SX1273</text>
</a>
</g>
</g>
<!-- Node18&#45;&gt;Node19 -->
<g id="edge162_Node000018_Node000019" class="edge">
<title>Node18&#45;&gt;Node19</title>
<g id="a_edge162_Node000018_Node000019"><a xlink:title=" ">
<path fill="none" stroke="#63b8ff" d="M300.42,-208.08C311.19,-212.65 322.97,-217.67 332.87,-221.88"/>
<polygon fill="#63b8ff" stroke="#63b8ff" points="301.48,-204.72 290.9,-204.03 298.74,-211.16 301.48,-204.72"/>
</a>
</g>
</g>
<!-- Node21 -->
<g id="Node000021" class="node">
<title>Node21</title>
<g id="a_Node000021"><a xlink:href="classSX1276.html" target="_top" xlink:title="Derived class for SX1276 modules. Overrides some methods from SX1278 due to different parameter range...">
<polygon fill="white" stroke="#666666" points="383,-204 330,-204 330,-185 383,-185 383,-204"/>
<text text-anchor="middle" x="356.5" y="-192" font-family="Helvetica,sans-Serif" font-size="10.00">SX1276</text>
</a>
</g>
</g>
<!-- Node20&#45;&gt;Node21 -->
<g id="edge164_Node000020_Node000021" class="edge">
<title>Node20&#45;&gt;Node21</title>
<g id="a_edge164_Node000020_Node000021"><a xlink:title=" ">
<path fill="none" stroke="#63b8ff" d="M300.42,-171.08C311.19,-175.65 322.97,-180.67 332.87,-184.88"/>
<polygon fill="#63b8ff" stroke="#63b8ff" points="301.48,-167.72 290.9,-167.03 298.74,-174.16 301.48,-167.72"/>
</a>
</g>
</g>
<!-- Node22 -->
<g id="Node000022" class="node">
<title>Node22</title>
<g id="a_Node000022"><a xlink:href="classSX1277.html" target="_top" xlink:title="Derived class for SX1277 modules. Overrides some methods from SX1278 due to different parameter range...">
<polygon fill="white" stroke="#666666" points="383,-167 330,-167 330,-148 383,-148 383,-167"/>
<text text-anchor="middle" x="356.5" y="-155" font-family="Helvetica,sans-Serif" font-size="10.00">SX1277</text>
</a>
</g>
</g>
<!-- Node20&#45;&gt;Node22 -->
<g id="edge165_Node000020_Node000022" class="edge">
<title>Node20&#45;&gt;Node22</title>
<g id="a_edge165_Node000020_Node000022"><a xlink:title=" ">
<path fill="none" stroke="#63b8ff" d="M304.26,-157.5C312.8,-157.5 321.76,-157.5 329.75,-157.5"/>
<polygon fill="#63b8ff" stroke="#63b8ff" points="304.13,-154 294.13,-157.5 304.13,-161 304.13,-154"/>
</a>
</g>
</g>
<!-- Node23 -->
<g id="Node000023" class="node">
<title>Node23</title>
<g id="a_Node000023"><a xlink:href="classSX1279.html" target="_top" xlink:title="Derived class for SX1279 modules. Overrides some methods from SX1278 due to different parameter range...">
<polygon fill="white" stroke="#666666" points="383,-130 330,-130 330,-111 383,-111 383,-130"/>
<text text-anchor="middle" x="356.5" y="-118" font-family="Helvetica,sans-Serif" font-size="10.00">SX1279</text>
</a>
</g>
</g>
<!-- Node20&#45;&gt;Node23 -->
<g id="edge166_Node000020_Node000023" class="edge">
<title>Node20&#45;&gt;Node23</title>
<g id="a_edge166_Node000020_Node000023"><a xlink:title=" ">
<path fill="none" stroke="#63b8ff" d="M300.42,-143.92C311.19,-139.35 322.97,-134.33 332.87,-130.12"/>
<polygon fill="#63b8ff" stroke="#63b8ff" points="298.74,-140.84 290.9,-147.97 301.48,-147.28 298.74,-140.84"/>
</a>
</g>
</g>
<!-- Node25 -->
<g id="Node000025" class="node">
<title>Node25</title>
<g id="a_Node000025"><a xlink:href="classSX1281.html" target="_top" xlink:title="Derived class for SX1281 modules.">
<polygon fill="white" stroke="#666666" points="294,-112 241,-112 241,-93 294,-93 294,-112"/>
<text text-anchor="middle" x="267.5" y="-100" font-family="Helvetica,sans-Serif" font-size="10.00">SX1281</text>
</a>
</g>
</g>
<!-- Node24&#45;&gt;Node25 -->
<g id="edge168_Node000024_Node000025" class="edge">
<title>Node24&#45;&gt;Node25</title>
<g id="a_edge168_Node000024_Node000025"><a xlink:title=" ">
<path fill="none" stroke="#63b8ff" d="M196.37,-143.72C199.31,-142.35 202.23,-140.93 205,-139.5 221.4,-131.06 239.39,-120.01 251.65,-112.19"/>
<polygon fill="#63b8ff" stroke="#63b8ff" points="194.7,-140.64 187.02,-147.94 197.57,-147.02 194.7,-140.64"/>
</a>
</g>
</g>
<!-- Node26 -->
<g id="Node000026" class="node">
<title>Node26</title>
<g id="a_Node000026"><a xlink:href="classSX1280.html" target="_top" xlink:title="Derived class for SX1280 modules.">
<polygon fill="white" stroke="#666666" points="383,-93 330,-93 330,-74 383,-74 383,-93"/>
<text text-anchor="middle" x="356.5" y="-81" font-family="Helvetica,sans-Serif" font-size="10.00">SX1280</text>
</a>
</g>
</g>
<!-- Node25&#45;&gt;Node26 -->
<g id="edge169_Node000025_Node000026" class="edge">
<title>Node25&#45;&gt;Node26</title>
<g id="a_edge169_Node000025_Node000026"><a xlink:title=" ">
<path fill="none" stroke="#63b8ff" d="M303.98,-94.75C312.61,-92.87 321.67,-90.89 329.75,-89.12"/>
<polygon fill="#63b8ff" stroke="#63b8ff" points="303.16,-91.35 294.13,-96.9 304.65,-98.19 303.16,-91.35"/>
</a>
</g>
</g>
<!-- Node27 -->
<g id="Node000027" class="node">
<title>Node27</title>
<g id="a_Node000027"><a xlink:href="classSX1282.html" target="_top" xlink:title="Derived class for SX1282 modules.">
<polygon fill="white" stroke="#666666" points="472,-93 419,-93 419,-74 472,-74 472,-93"/>
<text text-anchor="middle" x="445.5" y="-81" font-family="Helvetica,sans-Serif" font-size="10.00">SX1282</text>
</a>
</g>
</g>
<!-- Node26&#45;&gt;Node27 -->
<g id="edge170_Node000026_Node000027" class="edge">
<title>Node26&#45;&gt;Node27</title>
<g id="a_edge170_Node000026_Node000027"><a xlink:title=" ">
<path fill="none" stroke="#63b8ff" d="M393.26,-83.5C401.8,-83.5 410.76,-83.5 418.75,-83.5"/>
<polygon fill="#63b8ff" stroke="#63b8ff" points="393.13,-80 383.13,-83.5 393.13,-87 393.13,-80"/>
</a>
</g>
</g>
<!-- Node29 -->
<g id="Node000029" class="node">
<title>Node29</title>
<g id="a_Node000029"><a xlink:href="classSi4432.html" target="_top" xlink:title="Derived class for Si4432 modules.">
<polygon fill="white" stroke="#666666" points="292.5,-56 242.5,-56 242.5,-37 292.5,-37 292.5,-56"/>
<text text-anchor="middle" x="267.5" y="-44" font-family="Helvetica,sans-Serif" font-size="10.00">Si4432</text>
</a>
</g>
</g>
<!-- Node28&#45;&gt;Node29 -->
<g id="edge172_Node000028_Node000029" class="edge">
<title>Node28&#45;&gt;Node29</title>
<g id="a_edge172_Node000028_Node000029"><a xlink:title=" ">
<path fill="none" stroke="#63b8ff" d="M196.91,-107.18C199.71,-105.72 202.44,-104.15 205,-102.5 225.86,-89.01 246.45,-68.37 257.72,-56.28"/>
<polygon fill="#63b8ff" stroke="#63b8ff" points="195.39,-104.03 187.89,-111.51 198.42,-110.34 195.39,-104.03"/>
</a>
</g>
</g>
<!-- Node30 -->
<g id="Node000030" class="node">
<title>Node30</title>
<g id="a_Node000030"><a xlink:href="classSi4430.html" target="_top" xlink:title="Derived class for Si4430 modules.">
<polygon fill="white" stroke="#666666" points="381.5,-56 331.5,-56 331.5,-37 381.5,-37 381.5,-56"/>
<text text-anchor="middle" x="356.5" y="-44" font-family="Helvetica,sans-Serif" font-size="10.00">Si4430</text>
</a>
</g>
</g>
<!-- Node29&#45;&gt;Node30 -->
<g id="edge173_Node000029_Node000030" class="edge">
<title>Node29&#45;&gt;Node30</title>
<g id="a_edge173_Node000029_Node000030"><a xlink:title=" ">
<path fill="none" stroke="#63b8ff" d="M302.78,-46.5C312.35,-46.5 322.55,-46.5 331.4,-46.5"/>
<polygon fill="#63b8ff" stroke="#63b8ff" points="302.73,-43 292.73,-46.5 302.73,-50 302.73,-43"/>
</a>
</g>
</g>
<!-- Node31 -->
<g id="Node000031" class="node">
<title>Node31</title>
<g id="a_Node000031"><a xlink:href="classSi4431.html" target="_top" xlink:title="Derived class for Si4431 modules.">
<polygon fill="white" stroke="#666666" points="381.5,-19 331.5,-19 331.5,0 381.5,0 381.5,-19"/>
<text text-anchor="middle" x="356.5" y="-7" font-family="Helvetica,sans-Serif" font-size="10.00">Si4431</text>
</a>
</g>
</g>
<!-- Node29&#45;&gt;Node31 -->
<g id="edge174_Node000029_Node000031" class="edge">
<title>Node29&#45;&gt;Node31</title>
<g id="a_edge174_Node000029_Node000031"><a xlink:title=" ">
<path fill="none" stroke="#63b8ff" d="M300.42,-32.92C311.19,-28.35 322.97,-23.33 332.87,-19.12"/>
<polygon fill="#63b8ff" stroke="#63b8ff" points="298.74,-29.84 290.9,-36.97 301.48,-36.28 298.74,-29.84"/>
</a>
</g>
</g>
</g>
</svg>
