<?xml version="1.0" encoding="UTF-8" standalone="no"?>
<!DOCTYPE svg PUBLIC "-//W3C//DTD SVG 1.1//EN"
 "http://www.w3.org/Graphics/SVG/1.1/DTD/svg11.dtd">
<!-- Generated by graphviz version 2.43.0 (0)
 -->
<!-- Title: Graphical Class Hierarchy Pages: 1 -->
<svg width="270pt" height="86pt"
 viewBox="0.00 0.00 270.00 86.00" xmlns="http://www.w3.org/2000/svg" xmlns:xlink="http://www.w3.org/1999/xlink">
<g id="graph0" class="graph" transform="scale(1 1) rotate(0) translate(4 82)">
<title>Graphical Class Hierarchy</title>
<!-- Node0 -->
<g id="Node000000" class="node">
<title>Node0</title>
<g id="a_Node000000"><a xlink:title=" ">
<polygon fill="#e0e0e0" stroke="#999999" points="89,-43 0,-43 0,-24 89,-24 89,-43"/>
<text text-anchor="middle" x="44.5" y="-31" font-family="Helvetica,sans-Serif" font-size="10.00">std::is_base_of</text>
</a>
</g>
</g>
<!-- Node1 -->
<g id="Node000001" class="node">
<title>Node1</title>
<g id="a_Node000001"><a xlink:href="structdetail_1_1is__view_3_01T_00_01bool__constant_3_01sizeof_07T_08_01_9_0a0_01_4_01_4.html" target="_top" xlink:title=" ">
<polygon fill="white" stroke="#666666" points="257.5,-78 129.5,-78 129.5,-37 257.5,-37 257.5,-78"/>
<text text-anchor="start" x="137.5" y="-66" font-family="Helvetica,sans-Serif" font-size="10.00">detail::is_view&lt; T,</text>
<text text-anchor="start" x="137.5" y="-55" font-family="Helvetica,sans-Serif" font-size="10.00"> bool_constant&lt; sizeof</text>
<text text-anchor="middle" x="193.5" y="-44" font-family="Helvetica,sans-Serif" font-size="10.00">(T) !=0 &gt; &gt;</text>
</a>
</g>
</g>
<!-- Node0&#45;&gt;Node1 -->
<g id="edge270_Node000000_Node000001" class="edge">
<title>Node0&#45;&gt;Node1</title>
<g id="a_edge270_Node000000_Node000001"><a xlink:title=" ">
<path fill="none" stroke="#63b8ff" d="M99.21,-42.27C109.01,-43.87 119.33,-45.55 129.37,-47.19"/>
<polygon fill="#63b8ff" stroke="#63b8ff" points="99.64,-38.79 89.21,-40.64 98.51,-45.7 99.64,-38.79"/>
</a>
</g>
</g>
<!-- Node2 -->
<g id="Node000002" class="node">
<title>Node2</title>
<g id="a_Node000002"><a xlink:href="structis__compiled__string.html" target="_top" xlink:title=" ">
<polygon fill="white" stroke="#666666" points="262,-19 125,-19 125,0 262,0 262,-19"/>
<text text-anchor="middle" x="193.5" y="-7" font-family="Helvetica,sans-Serif" font-size="10.00">is_compiled_string&lt; S &gt;</text>
</a>
</g>
</g>
<!-- Node0&#45;&gt;Node2 -->
<g id="edge271_Node000000_Node000002" class="edge">
<title>Node0&#45;&gt;Node2</title>
<g id="a_edge271_Node000000_Node000002"><a xlink:title=" ">
<path fill="none" stroke="#63b8ff" d="M99.4,-24.7C110.75,-22.85 122.76,-20.89 134.26,-19.01"/>
<polygon fill="#63b8ff" stroke="#63b8ff" points="98.51,-21.3 89.21,-26.36 99.64,-28.21 98.51,-21.3"/>
</a>
</g>
</g>
</g>
</svg>
