<?xml version="1.0" encoding="UTF-8" standalone="no"?>
<!DOCTYPE svg PUBLIC "-//W3C//DTD SVG 1.1//EN"
 "http://www.w3.org/Graphics/SVG/1.1/DTD/svg11.dtd">
<!-- Generated by graphviz version 2.43.0 (0)
 -->
<!-- Title: Graphical Class Hierarchy Pages: 1 -->
<svg width="292pt" height="108pt"
 viewBox="0.00 0.00 292.00 108.00" xmlns="http://www.w3.org/2000/svg" xmlns:xlink="http://www.w3.org/1999/xlink">
<g id="graph0" class="graph" transform="scale(1 1) rotate(0) translate(4 104)">
<title>Graphical Class Hierarchy</title>
<!-- Node0 -->
<g id="Node000000" class="node">
<title>Node0</title>
<g id="a_Node000000"><a xlink:href="classdetail_1_1buffer.html" target="_top" xlink:title=" ">
<polygon fill="white" stroke="#666666" points="122,-64.5 0,-64.5 0,-45.5 122,-45.5 122,-64.5"/>
<text text-anchor="middle" x="61" y="-52.5" font-family="Helvetica,sans-Serif" font-size="10.00">detail::buffer&lt; char &gt;</text>
</a>
</g>
</g>
<!-- Node1 -->
<g id="Node000001" class="node">
<title>Node1</title>
<g id="a_Node000001"><a xlink:href="classdetail_1_1file__print__buffer.html" target="_top" xlink:title=" ">
<polygon fill="white" stroke="#666666" points="280,-100 162,-100 162,-70 280,-70 280,-100"/>
<text text-anchor="start" x="170" y="-88" font-family="Helvetica,sans-Serif" font-size="10.00">detail::file_print</text>
<text text-anchor="middle" x="221" y="-77" font-family="Helvetica,sans-Serif" font-size="10.00">_buffer&lt; F, Enable &gt;</text>
</a>
</g>
</g>
<!-- Node0&#45;&gt;Node1 -->
<g id="edge13_Node000000_Node000001" class="edge">
<title>Node0&#45;&gt;Node1</title>
<g id="a_edge13_Node000000_Node000001"><a xlink:title=" ">
<path fill="none" stroke="#63b8ff" d="M122.58,-66.5C135.45,-68.95 149.02,-71.52 161.8,-73.95"/>
<polygon fill="#63b8ff" stroke="#63b8ff" points="122.9,-63 112.43,-64.57 121.6,-69.88 122.9,-63"/>
</a>
</g>
</g>
<!-- Node2 -->
<g id="Node000002" class="node">
<title>Node2</title>
<g id="a_Node000002"><a xlink:href="classdetail_1_1file__print__buffer_3_01F_00_01enable__if__t_3_01has__flockfile_3_01F_01_4_1_1value_01_4_01_4.html" target="_top" xlink:title=" ">
<polygon fill="white" stroke="#666666" points="284,-52 158,-52 158,0 284,0 284,-52"/>
<text text-anchor="start" x="166" y="-40" font-family="Helvetica,sans-Serif" font-size="10.00">detail::file_print</text>
<text text-anchor="start" x="166" y="-29" font-family="Helvetica,sans-Serif" font-size="10.00">_buffer&lt; F, enable_if</text>
<text text-anchor="start" x="166" y="-18" font-family="Helvetica,sans-Serif" font-size="10.00">_t&lt; has_flockfile&lt; F &gt;</text>
<text text-anchor="middle" x="221" y="-7" font-family="Helvetica,sans-Serif" font-size="10.00">::value &gt; &gt;</text>
</a>
</g>
</g>
<!-- Node0&#45;&gt;Node2 -->
<g id="edge14_Node000000_Node000002" class="edge">
<title>Node0&#45;&gt;Node2</title>
<g id="a_edge14_Node000000_Node000002"><a xlink:title=" ">
<path fill="none" stroke="#63b8ff" d="M124.22,-43.58C135.32,-41.54 146.9,-39.42 158,-37.38"/>
<polygon fill="#63b8ff" stroke="#63b8ff" points="123.38,-40.18 114.17,-45.42 124.64,-47.06 123.38,-40.18"/>
</a>
</g>
</g>
</g>
</svg>
