<?xml version="1.0" encoding="UTF-8" standalone="no"?>
<!DOCTYPE svg PUBLIC "-//W3C//DTD SVG 1.1//EN"
 "http://www.w3.org/Graphics/SVG/1.1/DTD/svg11.dtd">
<!-- Generated by graphviz version 2.43.0 (0)
 -->
<!-- Title: Graphical Class Hierarchy Pages: 1 -->
<svg width="237pt" height="175pt"
 viewBox="0.00 0.00 237.00 175.00" xmlns="http://www.w3.org/2000/svg" xmlns:xlink="http://www.w3.org/1999/xlink">
<g id="graph0" class="graph" transform="scale(1 1) rotate(0) translate(4 171)">
<title>Graphical Class Hierarchy</title>
<!-- Node0 -->
<g id="Node000000" class="node">
<title>Node0</title>
<g id="a_Node000000"><a xlink:href="classMagick_1_1Color.html" target="_top" xlink:title=" ">
<polygon fill="white" stroke="#666666" points="83,-93 0,-93 0,-74 83,-74 83,-93"/>
<text text-anchor="middle" x="41.5" y="-81" font-family="Helvetica,sans-Serif" font-size="10.00">Magick::Color</text>
</a>
</g>
</g>
<!-- Node1 -->
<g id="Node000001" class="node">
<title>Node1</title>
<g id="a_Node000001"><a xlink:href="classMagick_1_1ColorGray.html" target="_top" xlink:title=" ">
<polygon fill="white" stroke="#666666" points="227.5,-167 120.5,-167 120.5,-148 227.5,-148 227.5,-167"/>
<text text-anchor="middle" x="174" y="-155" font-family="Helvetica,sans-Serif" font-size="10.00">Magick::ColorGray</text>
</a>
</g>
</g>
<!-- Node0&#45;&gt;Node1 -->
<g id="edge116_Node000000_Node000001" class="edge">
<title>Node0&#45;&gt;Node1</title>
<g id="a_edge116_Node000000_Node000001"><a xlink:title=" ">
<path fill="none" stroke="#63b8ff" d="M61.08,-99.66C75.93,-111.93 97.73,-128.51 119,-139.5 125.23,-142.72 132.16,-145.54 138.92,-147.93"/>
<polygon fill="#63b8ff" stroke="#63b8ff" points="63.09,-96.78 53.19,-93.01 58.58,-102.13 63.09,-96.78"/>
</a>
</g>
</g>
<!-- Node2 -->
<g id="Node000002" class="node">
<title>Node2</title>
<g id="a_Node000002"><a xlink:href="classMagick_1_1ColorHSL.html" target="_top" xlink:title=" ">
<polygon fill="white" stroke="#666666" points="225,-130 123,-130 123,-111 225,-111 225,-130"/>
<text text-anchor="middle" x="174" y="-118" font-family="Helvetica,sans-Serif" font-size="10.00">Magick::ColorHSL</text>
</a>
</g>
</g>
<!-- Node0&#45;&gt;Node2 -->
<g id="edge117_Node000000_Node000002" class="edge">
<title>Node0&#45;&gt;Node2</title>
<g id="a_edge117_Node000000_Node000002"><a xlink:title=" ">
<path fill="none" stroke="#63b8ff" d="M85.97,-95.83C103.26,-100.73 122.84,-106.28 139.05,-110.88"/>
<polygon fill="#63b8ff" stroke="#63b8ff" points="86.68,-92.39 76.11,-93.03 84.77,-99.12 86.68,-92.39"/>
</a>
</g>
</g>
<!-- Node3 -->
<g id="Node000003" class="node">
<title>Node3</title>
<g id="a_Node000003"><a xlink:href="classMagick_1_1ColorMono.html" target="_top" xlink:title=" ">
<polygon fill="white" stroke="#666666" points="229,-93 119,-93 119,-74 229,-74 229,-93"/>
<text text-anchor="middle" x="174" y="-81" font-family="Helvetica,sans-Serif" font-size="10.00">Magick::ColorMono</text>
</a>
</g>
</g>
<!-- Node0&#45;&gt;Node3 -->
<g id="edge118_Node000000_Node000003" class="edge">
<title>Node0&#45;&gt;Node3</title>
<g id="a_edge118_Node000000_Node000003"><a xlink:title=" ">
<path fill="none" stroke="#63b8ff" d="M93.33,-83.5C101.6,-83.5 110.19,-83.5 118.54,-83.5"/>
<polygon fill="#63b8ff" stroke="#63b8ff" points="93.08,-80 83.08,-83.5 93.08,-87 93.08,-80"/>
</a>
</g>
</g>
<!-- Node4 -->
<g id="Node000004" class="node">
<title>Node4</title>
<g id="a_Node000004"><a xlink:href="classMagick_1_1ColorRGB.html" target="_top" xlink:title=" ">
<polygon fill="white" stroke="#666666" points="226,-56 122,-56 122,-37 226,-37 226,-56"/>
<text text-anchor="middle" x="174" y="-44" font-family="Helvetica,sans-Serif" font-size="10.00">Magick::ColorRGB</text>
</a>
</g>
</g>
<!-- Node0&#45;&gt;Node4 -->
<g id="edge119_Node000000_Node000004" class="edge">
<title>Node0&#45;&gt;Node4</title>
<g id="a_edge119_Node000000_Node000004"><a xlink:title=" ">
<path fill="none" stroke="#63b8ff" d="M85.97,-71.17C103.26,-66.27 122.84,-60.72 139.05,-56.12"/>
<polygon fill="#63b8ff" stroke="#63b8ff" points="84.77,-67.88 76.11,-73.97 86.68,-74.61 84.77,-67.88"/>
</a>
</g>
</g>
<!-- Node5 -->
<g id="Node000005" class="node">
<title>Node5</title>
<g id="a_Node000005"><a xlink:href="classMagick_1_1ColorYUV.html" target="_top" xlink:title=" ">
<polygon fill="white" stroke="#666666" points="226,-19 122,-19 122,0 226,0 226,-19"/>
<text text-anchor="middle" x="174" y="-7" font-family="Helvetica,sans-Serif" font-size="10.00">Magick::ColorYUV</text>
</a>
</g>
</g>
<!-- Node0&#45;&gt;Node5 -->
<g id="edge120_Node000000_Node000005" class="edge">
<title>Node0&#45;&gt;Node5</title>
<g id="a_edge120_Node000000_Node000005"><a xlink:title=" ">
<path fill="none" stroke="#63b8ff" d="M61.69,-67.33C76.59,-55.39 98.15,-39.38 119,-28.5 125.87,-24.91 133.57,-21.75 140.95,-19.08"/>
<polygon fill="#63b8ff" stroke="#63b8ff" points="59.27,-64.79 53.75,-73.82 63.7,-70.21 59.27,-64.79"/>
</a>
</g>
</g>
</g>
</svg>
