<?xml version="1.0" encoding="UTF-8" standalone="no"?>
<!DOCTYPE svg PUBLIC "-//W3C//DTD SVG 1.1//EN"
 "http://www.w3.org/Graphics/SVG/1.1/DTD/svg11.dtd">
<!-- Generated by graphviz version 2.43.0 (0)
 -->
<!-- Title: Graphical Class Hierarchy Pages: 1 -->
<svg width="280pt" height="1316pt"
 viewBox="0.00 0.00 280.00 1316.00" xmlns="http://www.w3.org/2000/svg" xmlns:xlink="http://www.w3.org/1999/xlink">
<g id="graph0" class="graph" transform="scale(1 1) rotate(0) translate(4 1312)">
<title>Graphical Class Hierarchy</title>
<!-- Node0 -->
<g id="Node000000" class="node">
<title>Node0</title>
<g id="a_Node000000"><a xlink:title=" ">
<polygon fill="#e0e0e0" stroke="#999999" points="89,-631 0,-631 0,-612 89,-612 89,-631"/>
<text text-anchor="middle" x="44.5" y="-619" font-family="Helvetica,sans-Serif" font-size="10.00">std::false_type</text>
</a>
</g>
</g>
<!-- Node1 -->
<g id="Node000001" class="node">
<title>Node1</title>
<g id="a_Node000001"><a xlink:href="structdetail_1_1has__append.html" target="_top" xlink:title=" ">
<polygon fill="white" stroke="#666666" points="253,-1308 144,-1308 144,-1267 253,-1267 253,-1308"/>
<text text-anchor="start" x="152" y="-1296" font-family="Helvetica,sans-Serif" font-size="10.00">detail::has_append</text>
<text text-anchor="start" x="152" y="-1285" font-family="Helvetica,sans-Serif" font-size="10.00">&lt; OutputIt, InputIt,</text>
<text text-anchor="middle" x="198.5" y="-1274" font-family="Helvetica,sans-Serif" font-size="10.00"> typename &gt;</text>
</a>
</g>
</g>
<!-- Node0&#45;&gt;Node1 -->
<g id="edge239_Node000000_Node000001" class="edge">
<title>Node0&#45;&gt;Node1</title>
<g id="a_edge239_Node000000_Node000001"><a xlink:title=" ">
<path fill="none" stroke="#63b8ff" d="M45.38,-641.15C45.16,-737.28 48.66,-1157.37 125,-1257.5 129.96,-1264 136.57,-1269.1 143.8,-1273.1"/>
<polygon fill="#63b8ff" stroke="#63b8ff" points="48.88,-641.09 45.42,-631.08 41.88,-641.06 48.88,-641.09"/>
</a>
</g>
</g>
<!-- Node2 -->
<g id="Node000002" class="node">
<title>Node2</title>
<g id="a_Node000002"><a xlink:href="structdetail_1_1has__const__begin__end.html" target="_top" xlink:title=" ">
<polygon fill="white" stroke="#666666" points="264,-1248.5 133,-1248.5 133,-1218.5 264,-1218.5 264,-1248.5"/>
<text text-anchor="start" x="141" y="-1236.5" font-family="Helvetica,sans-Serif" font-size="10.00">detail::has_const_begin</text>
<text text-anchor="middle" x="198.5" y="-1225.5" font-family="Helvetica,sans-Serif" font-size="10.00">_end&lt; T, Enable &gt;</text>
</a>
</g>
</g>
<!-- Node0&#45;&gt;Node2 -->
<g id="edge240_Node000000_Node000002" class="edge">
<title>Node0&#45;&gt;Node2</title>
<g id="a_edge240_Node000000_Node000002"><a xlink:title=" ">
<path fill="none" stroke="#63b8ff" d="M45.46,-641.5C45.67,-734.09 51.03,-1120.37 125,-1209.5 127.88,-1212.97 131.27,-1215.94 134.99,-1218.48"/>
<polygon fill="#63b8ff" stroke="#63b8ff" points="48.96,-641.28 45.46,-631.28 41.96,-641.28 48.96,-641.28"/>
</a>
</g>
</g>
<!-- Node3 -->
<g id="Node000003" class="node">
<title>Node3</title>
<g id="a_Node000003"><a xlink:href="structdetail_1_1has__flip.html" target="_top" xlink:title=" ">
<polygon fill="white" stroke="#666666" points="252.5,-1200.5 144.5,-1200.5 144.5,-1170.5 252.5,-1170.5 252.5,-1200.5"/>
<text text-anchor="start" x="152.5" y="-1188.5" font-family="Helvetica,sans-Serif" font-size="10.00">detail::has_flip&lt; T,</text>
<text text-anchor="middle" x="198.5" y="-1177.5" font-family="Helvetica,sans-Serif" font-size="10.00"> Enable &gt;</text>
</a>
</g>
</g>
<!-- Node0&#45;&gt;Node3 -->
<g id="edge241_Node000000_Node000003" class="edge">
<title>Node0&#45;&gt;Node3</title>
<g id="a_edge241_Node000000_Node000003"><a xlink:title=" ">
<path fill="none" stroke="#63b8ff" d="M45.73,-641.52C47.11,-729.42 56.9,-1080.43 125,-1161.5 130.2,-1167.69 137.04,-1172.3 144.44,-1175.72"/>
<polygon fill="#63b8ff" stroke="#63b8ff" points="49.22,-641.27 45.59,-631.32 42.22,-641.37 49.22,-641.27"/>
</a>
</g>
</g>
<!-- Node4 -->
<g id="Node000004" class="node">
<title>Node4</title>
<g id="a_Node000004"><a xlink:href="structdetail_1_1has__flockfile.html" target="_top" xlink:title=" ">
<polygon fill="white" stroke="#666666" points="254,-1152.5 143,-1152.5 143,-1122.5 254,-1122.5 254,-1152.5"/>
<text text-anchor="start" x="151" y="-1140.5" font-family="Helvetica,sans-Serif" font-size="10.00">detail::has_flockfile</text>
<text text-anchor="middle" x="198.5" y="-1129.5" font-family="Helvetica,sans-Serif" font-size="10.00">&lt; F, Enable &gt;</text>
</a>
</g>
</g>
<!-- Node0&#45;&gt;Node4 -->
<g id="edge242_Node000000_Node000004" class="edge">
<title>Node0&#45;&gt;Node4</title>
<g id="a_edge242_Node000000_Node000004"><a xlink:title=" ">
<path fill="none" stroke="#63b8ff" d="M46.04,-641.3C48.66,-723.93 62.7,-1040.38 125,-1113.5 129.82,-1119.15 135.99,-1123.48 142.71,-1126.79"/>
<polygon fill="#63b8ff" stroke="#63b8ff" points="49.53,-641.13 45.74,-631.24 42.54,-641.34 49.53,-641.13"/>
</a>
</g>
</g>
<!-- Node5 -->
<g id="Node000005" class="node">
<title>Node5</title>
<g id="a_Node000005"><a xlink:href="structdetail_1_1has__format__as.html" target="_top" xlink:title=" ">
<polygon fill="white" stroke="#666666" points="251.5,-1104.5 145.5,-1104.5 145.5,-1074.5 251.5,-1074.5 251.5,-1104.5"/>
<text text-anchor="start" x="153.5" y="-1092.5" font-family="Helvetica,sans-Serif" font-size="10.00">detail::has_format</text>
<text text-anchor="middle" x="198.5" y="-1081.5" font-family="Helvetica,sans-Serif" font-size="10.00">_as&lt; T, Enable &gt;</text>
</a>
</g>
</g>
<!-- Node0&#45;&gt;Node5 -->
<g id="edge243_Node000000_Node000005" class="edge">
<title>Node0&#45;&gt;Node5</title>
<g id="a_edge243_Node000000_Node000005"><a xlink:title=" ">
<path fill="none" stroke="#63b8ff" d="M46.42,-641.3C50.39,-718.79 68.53,-1000.35 125,-1065.5 130.47,-1071.81 137.64,-1076.47 145.34,-1079.91"/>
<polygon fill="#63b8ff" stroke="#63b8ff" points="49.9,-640.86 45.91,-631.04 42.91,-641.2 49.9,-640.86"/>
</a>
</g>
</g>
<!-- Node6 -->
<g id="Node000006" class="node">
<title>Node6</title>
<g id="a_Node000006"><a xlink:href="structdetail_1_1has__format__as__member.html" target="_top" xlink:title=" ">
<polygon fill="white" stroke="#666666" points="272,-1056.5 125,-1056.5 125,-1026.5 272,-1026.5 272,-1056.5"/>
<text text-anchor="start" x="133" y="-1044.5" font-family="Helvetica,sans-Serif" font-size="10.00">detail::has_format</text>
<text text-anchor="middle" x="198.5" y="-1033.5" font-family="Helvetica,sans-Serif" font-size="10.00">_as_member&lt; T, Enable &gt;</text>
</a>
</g>
</g>
<!-- Node0&#45;&gt;Node6 -->
<g id="edge244_Node000000_Node000006" class="edge">
<title>Node0&#45;&gt;Node6</title>
<g id="a_edge244_Node000000_Node000006"><a xlink:title=" ">
<path fill="none" stroke="#63b8ff" d="M46.9,-641.43C52.34,-713.64 74.37,-960.3 125,-1017.5 128.08,-1020.97 131.67,-1023.95 135.57,-1026.49"/>
<polygon fill="#63b8ff" stroke="#63b8ff" points="50.36,-640.78 46.14,-631.06 43.38,-641.28 50.36,-640.78"/>
</a>
</g>
</g>
<!-- Node7 -->
<g id="Node000007" class="node">
<title>Node7</title>
<g id="a_Node000007"><a xlink:href="structdetail_1_1has__insert.html" target="_top" xlink:title=" ">
<polygon fill="white" stroke="#666666" points="271.5,-1008.5 125.5,-1008.5 125.5,-978.5 271.5,-978.5 271.5,-1008.5"/>
<text text-anchor="start" x="133.5" y="-996.5" font-family="Helvetica,sans-Serif" font-size="10.00">detail::has_insert</text>
<text text-anchor="middle" x="198.5" y="-985.5" font-family="Helvetica,sans-Serif" font-size="10.00">&lt; OutputIt, T, typename &gt;</text>
</a>
</g>
</g>
<!-- Node0&#45;&gt;Node7 -->
<g id="edge245_Node000000_Node000007" class="edge">
<title>Node0&#45;&gt;Node7</title>
<g id="a_edge245_Node000000_Node000007"><a xlink:title=" ">
<path fill="none" stroke="#63b8ff" d="M47.51,-641.55C54.55,-708.08 80.17,-920.19 125,-969.5 128.12,-972.93 131.74,-975.88 135.67,-978.4"/>
<polygon fill="#63b8ff" stroke="#63b8ff" points="50.95,-640.79 46.44,-631.2 43.98,-641.51 50.95,-640.79"/>
</a>
</g>
</g>
<!-- Node8 -->
<g id="Node000008" class="node">
<title>Node8</title>
<g id="a_Node000008"><a xlink:href="structdetail_1_1has__isfinite.html" target="_top" xlink:title=" ">
<polygon fill="white" stroke="#666666" points="251.5,-960.5 145.5,-960.5 145.5,-930.5 251.5,-930.5 251.5,-960.5"/>
<text text-anchor="start" x="153.5" y="-948.5" font-family="Helvetica,sans-Serif" font-size="10.00">detail::has_isfinite</text>
<text text-anchor="middle" x="198.5" y="-937.5" font-family="Helvetica,sans-Serif" font-size="10.00">&lt; T, Enable &gt;</text>
</a>
</g>
</g>
<!-- Node0&#45;&gt;Node8 -->
<g id="edge246_Node000000_Node000008" class="edge">
<title>Node0&#45;&gt;Node8</title>
<g id="a_edge246_Node000000_Node000008"><a xlink:title=" ">
<path fill="none" stroke="#63b8ff" d="M44.73,-641.12C43.75,-693.85 48.45,-840.17 125,-921.5 130.63,-927.49 137.79,-931.98 145.4,-935.35"/>
<polygon fill="#63b8ff" stroke="#63b8ff" points="48.23,-641.18 45.01,-631.08 41.23,-640.98 48.23,-641.18"/>
</a>
</g>
</g>
<!-- Node9 -->
<g id="Node000009" class="node">
<title>Node9</title>
<g id="a_Node000009"><a xlink:href="structdetail_1_1has__member__fn__begin__end__t.html" target="_top" xlink:title=" ">
<polygon fill="white" stroke="#666666" points="256.5,-912 140.5,-912 140.5,-871 256.5,-871 256.5,-912"/>
<text text-anchor="start" x="148.5" y="-900" font-family="Helvetica,sans-Serif" font-size="10.00">detail::has_member</text>
<text text-anchor="start" x="148.5" y="-889" font-family="Helvetica,sans-Serif" font-size="10.00">_fn_begin_end_t&lt; T,</text>
<text text-anchor="middle" x="198.5" y="-878" font-family="Helvetica,sans-Serif" font-size="10.00"> Enable &gt;</text>
</a>
</g>
</g>
<!-- Node0&#45;&gt;Node9 -->
<g id="edge247_Node000000_Node000009" class="edge">
<title>Node0&#45;&gt;Node9</title>
<g id="a_edge247_Node000000_Node000009"><a xlink:title=" ">
<path fill="none" stroke="#63b8ff" d="M46.64,-641.33C50.24,-686.29 65.05,-797.04 125,-861.5 129.36,-866.19 134.56,-870.17 140.15,-873.54"/>
<polygon fill="#63b8ff" stroke="#63b8ff" points="50.11,-640.9 45.93,-631.16 43.13,-641.38 50.11,-640.9"/>
</a>
</g>
</g>
<!-- Node10 -->
<g id="Node000010" class="node">
<title>Node10</title>
<g id="a_Node000010"><a xlink:href="structdetail_1_1has__mutable__begin__end.html" target="_top" xlink:title=" ">
<polygon fill="white" stroke="#666666" points="268.5,-852.5 128.5,-852.5 128.5,-822.5 268.5,-822.5 268.5,-852.5"/>
<text text-anchor="start" x="136.5" y="-840.5" font-family="Helvetica,sans-Serif" font-size="10.00">detail::has_mutable</text>
<text text-anchor="middle" x="198.5" y="-829.5" font-family="Helvetica,sans-Serif" font-size="10.00">_begin_end&lt; T, Enable &gt;</text>
</a>
</g>
</g>
<!-- Node0&#45;&gt;Node10 -->
<g id="edge248_Node000000_Node000010" class="edge">
<title>Node0&#45;&gt;Node10</title>
<g id="a_edge248_Node000000_Node000010"><a xlink:title=" ">
<path fill="none" stroke="#63b8ff" d="M48.14,-640.98C54.36,-679.47 73.53,-765.66 125,-813.5 128.69,-816.93 132.88,-819.87 137.35,-822.39"/>
<polygon fill="#63b8ff" stroke="#63b8ff" points="51.59,-640.44 46.65,-631.06 44.67,-641.47 51.59,-640.44"/>
</a>
</g>
</g>
<!-- Node11 -->
<g id="Node000011" class="node">
<title>Node11</title>
<g id="a_Node000011"><a xlink:href="structdetail_1_1has__tm__gmtoff.html" target="_top" xlink:title=" ">
<polygon fill="white" stroke="#666666" points="260.5,-804.5 136.5,-804.5 136.5,-774.5 260.5,-774.5 260.5,-804.5"/>
<text text-anchor="start" x="144.5" y="-792.5" font-family="Helvetica,sans-Serif" font-size="10.00">detail::has_tm_gmtoff</text>
<text text-anchor="middle" x="198.5" y="-781.5" font-family="Helvetica,sans-Serif" font-size="10.00">&lt; T, typename &gt;</text>
</a>
</g>
</g>
<!-- Node0&#45;&gt;Node11 -->
<g id="edge249_Node000000_Node000011" class="edge">
<title>Node0&#45;&gt;Node11</title>
<g id="a_edge249_Node000000_Node000011"><a xlink:title=" ">
<path fill="none" stroke="#63b8ff" d="M51.18,-641.12C61.1,-671.99 84.5,-731.87 125,-765.5 129.18,-768.97 133.88,-771.95 138.83,-774.5"/>
<polygon fill="#63b8ff" stroke="#63b8ff" points="54.4,-639.69 48.12,-631.16 47.71,-641.74 54.4,-639.69"/>
</a>
</g>
</g>
<!-- Node12 -->
<g id="Node000012" class="node">
<title>Node12</title>
<g id="a_Node000012"><a xlink:href="structdetail_1_1has__tm__zone.html" target="_top" xlink:title=" ">
<polygon fill="white" stroke="#666666" points="256,-756.5 141,-756.5 141,-726.5 256,-726.5 256,-756.5"/>
<text text-anchor="start" x="149" y="-744.5" font-family="Helvetica,sans-Serif" font-size="10.00">detail::has_tm_zone</text>
<text text-anchor="middle" x="198.5" y="-733.5" font-family="Helvetica,sans-Serif" font-size="10.00">&lt; T, typename &gt;</text>
</a>
</g>
</g>
<!-- Node0&#45;&gt;Node12 -->
<g id="edge250_Node000000_Node000012" class="edge">
<title>Node0&#45;&gt;Node12</title>
<g id="a_edge250_Node000000_Node000012"><a xlink:title=" ">
<path fill="none" stroke="#63b8ff" d="M56.32,-640.04C69.8,-661.6 94.79,-696.86 125,-717.5 130.04,-720.94 135.6,-723.92 141.35,-726.49"/>
<polygon fill="#63b8ff" stroke="#63b8ff" points="59.13,-637.93 50.96,-631.2 53.15,-641.56 59.13,-637.93"/>
</a>
</g>
</g>
<!-- Node13 -->
<g id="Node000013" class="node">
<title>Node13</title>
<g id="a_Node000013"><a xlink:href="structdetail_1_1has__to__string__view.html" target="_top" xlink:title=" ">
<polygon fill="white" stroke="#666666" points="256.5,-708.5 140.5,-708.5 140.5,-678.5 256.5,-678.5 256.5,-708.5"/>
<text text-anchor="start" x="148.5" y="-696.5" font-family="Helvetica,sans-Serif" font-size="10.00">detail::has_to_string</text>
<text text-anchor="middle" x="198.5" y="-685.5" font-family="Helvetica,sans-Serif" font-size="10.00">_view&lt; T, Enable &gt;</text>
</a>
</g>
</g>
<!-- Node0&#45;&gt;Node13 -->
<g id="edge251_Node000000_Node000013" class="edge">
<title>Node0&#45;&gt;Node13</title>
<g id="a_edge251_Node000000_Node000013"><a xlink:title=" ">
<path fill="none" stroke="#63b8ff" d="M67.74,-636.78C83.29,-646.99 104.8,-660.2 125,-669.5 131.99,-672.72 139.53,-675.71 147.01,-678.41"/>
<polygon fill="#63b8ff" stroke="#63b8ff" points="69.6,-633.81 59.33,-631.17 65.71,-639.63 69.6,-633.81"/>
</a>
</g>
</g>
<!-- Node14 -->
<g id="Node000014" class="node">
<title>Node14</title>
<g id="a_Node000014"><a xlink:href="structdetail_1_1is__back__insert__iterator.html" target="_top" xlink:title=" ">
<polygon fill="white" stroke="#666666" points="261.5,-660.5 135.5,-660.5 135.5,-630.5 261.5,-630.5 261.5,-660.5"/>
<text text-anchor="start" x="143.5" y="-648.5" font-family="Helvetica,sans-Serif" font-size="10.00">detail::is_back_insert</text>
<text text-anchor="middle" x="198.5" y="-637.5" font-family="Helvetica,sans-Serif" font-size="10.00">_iterator&lt; It, Enable &gt;</text>
</a>
</g>
</g>
<!-- Node0&#45;&gt;Node14 -->
<g id="edge252_Node000000_Node000014" class="edge">
<title>Node0&#45;&gt;Node14</title>
<g id="a_edge252_Node000000_Node000014"><a xlink:title=" ">
<path fill="none" stroke="#63b8ff" d="M99.1,-629.96C110.79,-631.81 123.25,-633.78 135.25,-635.67"/>
<polygon fill="#63b8ff" stroke="#63b8ff" points="99.48,-626.48 89.06,-628.38 98.39,-633.39 99.48,-626.48"/>
</a>
</g>
</g>
<!-- Node15 -->
<g id="Node000015" class="node">
<title>Node15</title>
<g id="a_Node000015"><a xlink:href="structdetail_1_1is__buffer__appender.html" target="_top" xlink:title=" ">
<polygon fill="white" stroke="#666666" points="270,-612.5 127,-612.5 127,-582.5 270,-582.5 270,-612.5"/>
<text text-anchor="start" x="135" y="-600.5" font-family="Helvetica,sans-Serif" font-size="10.00">detail::is_buffer_appender</text>
<text text-anchor="middle" x="198.5" y="-589.5" font-family="Helvetica,sans-Serif" font-size="10.00">&lt; It, Enable &gt;</text>
</a>
</g>
</g>
<!-- Node0&#45;&gt;Node15 -->
<g id="edge253_Node000000_Node000015" class="edge">
<title>Node0&#45;&gt;Node15</title>
<g id="a_edge253_Node000000_Node000015"><a xlink:title=" ">
<path fill="none" stroke="#63b8ff" d="M99.03,-613.05C108.07,-611.62 117.57,-610.12 126.96,-608.64"/>
<polygon fill="#63b8ff" stroke="#63b8ff" points="98.39,-609.61 89.06,-614.62 99.48,-616.52 98.39,-609.61"/>
</a>
</g>
</g>
<!-- Node16 -->
<g id="Node000016" class="node">
<title>Node16</title>
<g id="a_Node000016"><a xlink:href="structdetail_1_1is__code__unit.html" target="_top" xlink:title=" ">
<polygon fill="white" stroke="#666666" points="268.5,-564 128.5,-564 128.5,-545 268.5,-545 268.5,-564"/>
<text text-anchor="middle" x="198.5" y="-552" font-family="Helvetica,sans-Serif" font-size="10.00">detail::is_code_unit&lt; T &gt;</text>
</a>
</g>
</g>
<!-- Node0&#45;&gt;Node16 -->
<g id="edge254_Node000000_Node000016" class="edge">
<title>Node0&#45;&gt;Node16</title>
<g id="a_edge254_Node000000_Node000016"><a xlink:title=" ">
<path fill="none" stroke="#63b8ff" d="M67,-606.19C82.51,-595.74 104.27,-582.26 125,-573.5 133.75,-569.8 143.4,-566.67 152.74,-564.08"/>
<polygon fill="#63b8ff" stroke="#63b8ff" points="64.91,-603.38 58.65,-611.93 68.87,-609.15 64.91,-603.38"/>
</a>
</g>
</g>
<!-- Node17 -->
<g id="Node000017" class="node">
<title>Node17</title>
<g id="a_Node000017"><a xlink:href="structdetail_1_1is__named__arg.html" target="_top" xlink:title=" ">
<polygon fill="white" stroke="#666666" points="272,-527 125,-527 125,-508 272,-508 272,-527"/>
<text text-anchor="middle" x="198.5" y="-515" font-family="Helvetica,sans-Serif" font-size="10.00">detail::is_named_arg&lt; T &gt;</text>
</a>
</g>
</g>
<!-- Node0&#45;&gt;Node17 -->
<g id="edge255_Node000000_Node000017" class="edge">
<title>Node0&#45;&gt;Node17</title>
<g id="a_edge255_Node000000_Node000017"><a xlink:title=" ">
<path fill="none" stroke="#63b8ff" d="M57.45,-603.65C71.39,-584.22 96.23,-553.65 125,-536.5 131.48,-532.64 138.75,-529.55 146.11,-527.08"/>
<polygon fill="#63b8ff" stroke="#63b8ff" points="54.52,-601.74 51.67,-611.94 60.26,-605.74 54.52,-601.74"/>
</a>
</g>
</g>
<!-- Node18 -->
<g id="Node000018" class="node">
<title>Node18</title>
<g id="a_Node000018"><a xlink:href="structdetail_1_1is__output__iterator.html" target="_top" xlink:title=" ">
<polygon fill="white" stroke="#666666" points="267,-489.5 130,-489.5 130,-459.5 267,-459.5 267,-489.5"/>
<text text-anchor="start" x="138" y="-477.5" font-family="Helvetica,sans-Serif" font-size="10.00">detail::is_output_iterator</text>
<text text-anchor="middle" x="198.5" y="-466.5" font-family="Helvetica,sans-Serif" font-size="10.00">&lt; It, T, Enable &gt;</text>
</a>
</g>
</g>
<!-- Node0&#45;&gt;Node18 -->
<g id="edge256_Node000000_Node000018" class="edge">
<title>Node0&#45;&gt;Node18</title>
<g id="a_edge256_Node000000_Node000018"><a xlink:title=" ">
<path fill="none" stroke="#63b8ff" d="M53.2,-602.28C64.86,-575.53 89.46,-527.24 125,-499.5 129.93,-495.65 135.5,-492.37 141.3,-489.58"/>
<polygon fill="#63b8ff" stroke="#63b8ff" points="49.89,-601.12 49.25,-611.7 56.34,-603.83 49.89,-601.12"/>
</a>
</g>
</g>
<!-- Node19 -->
<g id="Node000019" class="node">
<title>Node19</title>
<g id="a_Node000019"><a xlink:href="structdetail_1_1is__range__.html" target="_top" xlink:title=" ">
<polygon fill="white" stroke="#666666" points="251,-441.5 146,-441.5 146,-411.5 251,-411.5 251,-441.5"/>
<text text-anchor="start" x="154" y="-429.5" font-family="Helvetica,sans-Serif" font-size="10.00">detail::is_range_&lt;</text>
<text text-anchor="middle" x="198.5" y="-418.5" font-family="Helvetica,sans-Serif" font-size="10.00"> T, _ &gt;</text>
</a>
</g>
</g>
<!-- Node0&#45;&gt;Node19 -->
<g id="edge257_Node000000_Node000019" class="edge">
<title>Node0&#45;&gt;Node19</title>
<g id="a_edge257_Node000000_Node000019"><a xlink:title=" ">
<path fill="none" stroke="#63b8ff" d="M49.32,-601.73C57.17,-566.33 78.45,-491.96 125,-450.5 131.04,-445.12 138.32,-440.94 145.9,-437.7"/>
<polygon fill="#63b8ff" stroke="#63b8ff" points="45.84,-601.26 47.22,-611.77 52.69,-602.69 45.84,-601.26"/>
</a>
</g>
</g>
<!-- Node20 -->
<g id="Node000020" class="node">
<title>Node20</title>
<g id="a_Node000020"><a xlink:href="structdetail_1_1is__reference__wrapper.html" target="_top" xlink:title=" ">
<polygon fill="white" stroke="#666666" points="253.5,-393.5 143.5,-393.5 143.5,-363.5 253.5,-363.5 253.5,-393.5"/>
<text text-anchor="start" x="151.5" y="-381.5" font-family="Helvetica,sans-Serif" font-size="10.00">detail::is_reference</text>
<text text-anchor="middle" x="198.5" y="-370.5" font-family="Helvetica,sans-Serif" font-size="10.00">_wrapper&lt; T &gt;</text>
</a>
</g>
</g>
<!-- Node0&#45;&gt;Node20 -->
<g id="edge258_Node000000_Node000020" class="edge">
<title>Node0&#45;&gt;Node20</title>
<g id="a_edge258_Node000000_Node000020"><a xlink:title=" ">
<path fill="none" stroke="#63b8ff" d="M47.06,-601.37C51.44,-558.66 67.61,-458.28 125,-402.5 130.23,-397.42 136.56,-393.41 143.27,-390.25"/>
<polygon fill="#63b8ff" stroke="#63b8ff" points="43.55,-601.31 46.13,-611.59 50.52,-601.95 43.55,-601.31"/>
</a>
</g>
</g>
<!-- Node21 -->
<g id="Node000021" class="node">
<title>Node21</title>
<g id="a_Node000021"><a xlink:href="structdetail_1_1is__static__named__arg.html" target="_top" xlink:title=" ">
<polygon fill="white" stroke="#666666" points="263.5,-345.5 133.5,-345.5 133.5,-315.5 263.5,-315.5 263.5,-345.5"/>
<text text-anchor="start" x="141.5" y="-333.5" font-family="Helvetica,sans-Serif" font-size="10.00">detail::is_static_named</text>
<text text-anchor="middle" x="198.5" y="-322.5" font-family="Helvetica,sans-Serif" font-size="10.00">_arg&lt; T &gt;</text>
</a>
</g>
</g>
<!-- Node0&#45;&gt;Node21 -->
<g id="edge259_Node000000_Node000021" class="edge">
<title>Node0&#45;&gt;Node21</title>
<g id="a_edge259_Node000000_Node000021"><a xlink:title=" ">
<path fill="none" stroke="#63b8ff" d="M45.5,-601.79C46.59,-552.98 56.25,-425.36 125,-354.5 128.32,-351.07 132.15,-348.14 136.26,-345.62"/>
<polygon fill="#63b8ff" stroke="#63b8ff" points="42,-601.89 45.38,-611.94 49,-601.98 42,-601.89"/>
</a>
</g>
</g>
<!-- Node22 -->
<g id="Node000022" class="node">
<title>Node22</title>
<g id="a_Node000022"><a xlink:href="structdetail_1_1is__std__string__like.html" target="_top" xlink:title=" ">
<polygon fill="white" stroke="#666666" points="254.5,-297.5 142.5,-297.5 142.5,-267.5 254.5,-267.5 254.5,-297.5"/>
<text text-anchor="start" x="150.5" y="-285.5" font-family="Helvetica,sans-Serif" font-size="10.00">detail::is_std_string</text>
<text text-anchor="middle" x="198.5" y="-274.5" font-family="Helvetica,sans-Serif" font-size="10.00">_like&lt; T, Enable &gt;</text>
</a>
</g>
</g>
<!-- Node0&#45;&gt;Node22 -->
<g id="edge260_Node000000_Node000022" class="edge">
<title>Node0&#45;&gt;Node22</title>
<g id="a_edge260_Node000000_Node000022"><a xlink:title=" ">
<path fill="none" stroke="#63b8ff" d="M47.99,-601.75C56.16,-539.75 84.05,-350.53 125,-306.5 129.88,-301.26 135.92,-297.16 142.42,-293.95"/>
<polygon fill="#63b8ff" stroke="#63b8ff" points="44.5,-601.41 46.69,-611.78 51.44,-602.31 44.5,-601.41"/>
</a>
</g>
</g>
<!-- Node23 -->
<g id="Node000023" class="node">
<title>Node23</title>
<g id="a_Node000023"><a xlink:href="structdetail_1_1is__view.html" target="_top" xlink:title=" ">
<polygon fill="white" stroke="#666666" points="252,-249.5 145,-249.5 145,-219.5 252,-219.5 252,-249.5"/>
<text text-anchor="start" x="153" y="-237.5" font-family="Helvetica,sans-Serif" font-size="10.00">detail::is_view&lt; T,</text>
<text text-anchor="middle" x="198.5" y="-226.5" font-family="Helvetica,sans-Serif" font-size="10.00"> Enable &gt;</text>
</a>
</g>
</g>
<!-- Node0&#45;&gt;Node23 -->
<g id="edge261_Node000000_Node000023" class="edge">
<title>Node0&#45;&gt;Node23</title>
<g id="a_edge261_Node000000_Node000023"><a xlink:title=" ">
<path fill="none" stroke="#63b8ff" d="M47.3,-601.48C53.83,-533.11 78.36,-310.27 125,-258.5 130.41,-252.49 137.36,-247.98 144.81,-244.6"/>
<polygon fill="#63b8ff" stroke="#63b8ff" points="43.79,-601.45 46.35,-611.73 50.76,-602.1 43.79,-601.45"/>
</a>
</g>
</g>
<!-- Node24 -->
<g id="Node000024" class="node">
<title>Node24</title>
<g id="a_Node000024"><a xlink:href="structdetail_1_1use__format__as.html" target="_top" xlink:title=" ">
<polygon fill="white" stroke="#666666" points="251.5,-201.5 145.5,-201.5 145.5,-171.5 251.5,-171.5 251.5,-201.5"/>
<text text-anchor="start" x="153.5" y="-189.5" font-family="Helvetica,sans-Serif" font-size="10.00">detail::use_format</text>
<text text-anchor="middle" x="198.5" y="-178.5" font-family="Helvetica,sans-Serif" font-size="10.00">_as&lt; T, Enable &gt;</text>
</a>
</g>
</g>
<!-- Node0&#45;&gt;Node24 -->
<g id="edge262_Node000000_Node000024" class="edge">
<title>Node0&#45;&gt;Node24</title>
<g id="a_edge262_Node000000_Node000024"><a xlink:title=" ">
<path fill="none" stroke="#63b8ff" d="M46.72,-601.76C51.67,-528.08 72.51,-270.22 125,-210.5 130.51,-204.23 137.71,-199.59 145.41,-196.16"/>
<polygon fill="#63b8ff" stroke="#63b8ff" points="43.22,-601.75 46.06,-611.95 50.2,-602.2 43.22,-601.75"/>
</a>
</g>
</g>
<!-- Node25 -->
<g id="Node000025" class="node">
<title>Node25</title>
<g id="a_Node000025"><a xlink:href="structdetail_1_1use__format__as__member.html" target="_top" xlink:title=" ">
<polygon fill="white" stroke="#666666" points="272,-153.5 125,-153.5 125,-123.5 272,-123.5 272,-153.5"/>
<text text-anchor="start" x="133" y="-141.5" font-family="Helvetica,sans-Serif" font-size="10.00">detail::use_format</text>
<text text-anchor="middle" x="198.5" y="-130.5" font-family="Helvetica,sans-Serif" font-size="10.00">_as_member&lt; T, Enable &gt;</text>
</a>
</g>
</g>
<!-- Node0&#45;&gt;Node25 -->
<g id="edge263_Node000000_Node000025" class="edge">
<title>Node0&#45;&gt;Node25</title>
<g id="a_edge263_Node000000_Node000025"><a xlink:title=" ">
<path fill="none" stroke="#63b8ff" d="M46.3,-601.53C49.85,-522.15 66.75,-230.09 125,-162.5 127.94,-159.09 131.38,-156.15 135.14,-153.64"/>
<polygon fill="#63b8ff" stroke="#63b8ff" points="42.8,-601.5 45.87,-611.64 49.79,-601.8 42.8,-601.5"/>
</a>
</g>
</g>
<!-- Node26 -->
<g id="Node000026" class="node">
<title>Node26</title>
<g id="a_Node000026"><a xlink:href="structis__contiguous.html" target="_top" xlink:title=" ">
<polygon fill="white" stroke="#666666" points="254.5,-105 142.5,-105 142.5,-86 254.5,-86 254.5,-105"/>
<text text-anchor="middle" x="198.5" y="-93" font-family="Helvetica,sans-Serif" font-size="10.00">is_contiguous&lt; T &gt;</text>
</a>
</g>
</g>
<!-- Node0&#45;&gt;Node26 -->
<g id="edge264_Node000000_Node000026" class="edge">
<title>Node0&#45;&gt;Node26</title>
<g id="a_edge264_Node000000_Node000026"><a xlink:title=" ">
<path fill="none" stroke="#63b8ff" d="M45.81,-601.8C47.52,-517.51 58.45,-188.12 125,-114.5 129.8,-109.19 135.88,-105.29 142.48,-102.43"/>
<polygon fill="#63b8ff" stroke="#63b8ff" points="42.31,-601.76 45.62,-611.82 49.31,-601.89 42.31,-601.76"/>
</a>
</g>
</g>
<!-- Node27 -->
<g id="Node000027" class="node">
<title>Node27</title>
<g id="a_Node000027"><a xlink:href="structis__tuple__like_3_01std_1_1complex_3_01T_01_4_01_4.html" target="_top" xlink:title=" ">
<polygon fill="white" stroke="#666666" points="250.5,-67.5 146.5,-67.5 146.5,-37.5 250.5,-37.5 250.5,-67.5"/>
<text text-anchor="start" x="154.5" y="-55.5" font-family="Helvetica,sans-Serif" font-size="10.00">is_tuple_like&lt; std</text>
<text text-anchor="middle" x="198.5" y="-44.5" font-family="Helvetica,sans-Serif" font-size="10.00">::complex&lt; T &gt; &gt;</text>
</a>
</g>
</g>
<!-- Node0&#45;&gt;Node27 -->
<g id="edge265_Node000000_Node000027" class="edge">
<title>Node0&#45;&gt;Node27</title>
<g id="a_edge265_Node000000_Node000027"><a xlink:title=" ">
<path fill="none" stroke="#63b8ff" d="M45.73,-601.35C47.13,-512.89 56.96,-159.62 125,-77.5 130.61,-70.73 138.14,-65.79 146.24,-62.19"/>
<polygon fill="#63b8ff" stroke="#63b8ff" points="42.23,-601.57 45.59,-611.62 49.22,-601.67 42.23,-601.57"/>
</a>
</g>
</g>
<!-- Node28 -->
<g id="Node000028" class="node">
<title>Node28</title>
<g id="a_Node000028"><a xlink:href="structlocking.html" target="_top" xlink:title=" ">
<polygon fill="white" stroke="#666666" points="258,-19 139,-19 139,0 258,0 258,-19"/>
<text text-anchor="middle" x="198.5" y="-7" font-family="Helvetica,sans-Serif" font-size="10.00">locking&lt; T, Enable &gt;</text>
</a>
</g>
</g>
<!-- Node0&#45;&gt;Node28 -->
<g id="edge266_Node000000_Node000028" class="edge">
<title>Node0&#45;&gt;Node28</title>
<g id="a_edge266_Node000000_Node000028"><a xlink:title=" ">
<path fill="none" stroke="#63b8ff" d="M45.31,-601.51C44.84,-508.17 47.57,-116.1 125,-28.5 128.88,-24.11 133.63,-20.68 138.84,-18"/>
<polygon fill="#63b8ff" stroke="#63b8ff" points="41.81,-601.61 45.38,-611.59 48.81,-601.56 41.81,-601.61"/>
</a>
</g>
</g>
</g>
</svg>
