<?xml version="1.0" encoding="UTF-8" standalone="no"?>
<!DOCTYPE svg PUBLIC "-//W3C//DTD SVG 1.1//EN"
 "http://www.w3.org/Graphics/SVG/1.1/DTD/svg11.dtd">
<!-- Generated by graphviz version 2.43.0 (0)
 -->
<!-- Title: Graphical Class Hierarchy Pages: 1 -->
<svg width="200pt" height="138pt"
 viewBox="0.00 0.00 200.00 138.00" xmlns="http://www.w3.org/2000/svg" xmlns:xlink="http://www.w3.org/1999/xlink">
<g id="graph0" class="graph" transform="scale(1 1) rotate(0) translate(4 134)">
<title>Graphical Class Hierarchy</title>
<!-- Node0 -->
<g id="Node000000" class="node">
<title>Node0</title>
<g id="a_Node000000"><a xlink:href="classAFSKClient.html" target="_top" xlink:title="Client for audio&#45;based transmissions. Requires Arduino tone() function, and a module capable of direc...">
<polygon fill="white" stroke="#666666" points="75,-130 6,-130 6,-111 75,-111 75,-130"/>
<text text-anchor="middle" x="40.5" y="-118" font-family="Helvetica,sans-Serif" font-size="10.00">AFSKClient</text>
</a>
</g>
</g>
<!-- Node1 -->
<g id="Node000001" class="node">
<title>Node1</title>
<g id="a_Node000001"><a xlink:href="classBellClient.html" target="_top" xlink:title="Client for Bell modem communication. The public interface is the same as Arduino Serial.">
<polygon fill="white" stroke="#666666" points="186.5,-130 122.5,-130 122.5,-111 186.5,-111 186.5,-130"/>
<text text-anchor="middle" x="154.5" y="-118" font-family="Helvetica,sans-Serif" font-size="10.00">BellClient</text>
</a>
</g>
</g>
<!-- Node0&#45;&gt;Node1 -->
<g id="edge1_Node000000_Node000001" class="edge">
<title>Node0&#45;&gt;Node1</title>
<g id="a_edge1_Node000000_Node000001"><a xlink:title=" ">
<path fill="none" stroke="#63b8ff" d="M85.22,-120.5C97.57,-120.5 110.76,-120.5 122.22,-120.5"/>
<polygon fill="#63b8ff" stroke="#63b8ff" points="85.1,-117 75.1,-120.5 85.1,-124 85.1,-117"/>
</a>
</g>
</g>
<!-- Node2 -->
<g id="Node000002" class="node">
<title>Node2</title>
<g id="a_Node000002"><a xlink:href="classRadioLibPrint.html" target="_top" xlink:title="Printing class, based on Arduino Print class with additional encodings.">
<polygon fill="white" stroke="#666666" points="81,-75 0,-75 0,-56 81,-56 81,-75"/>
<text text-anchor="middle" x="40.5" y="-63" font-family="Helvetica,sans-Serif" font-size="10.00">RadioLibPrint</text>
</a>
</g>
</g>
<!-- Node2&#45;&gt;Node1 -->
<g id="edge2_Node000002_Node000001" class="edge">
<title>Node2&#45;&gt;Node1</title>
<g id="a_edge2_Node000002_Node000001"><a xlink:title=" ">
<path fill="none" stroke="#63b8ff" d="M70.25,-79.62C90.19,-89.41 116.23,-102.2 133.84,-110.84"/>
<polygon fill="#63b8ff" stroke="#63b8ff" points="71.53,-76.35 61.01,-75.08 68.44,-82.63 71.53,-76.35"/>
</a>
</g>
</g>
<!-- Node3 -->
<g id="Node000003" class="node">
<title>Node3</title>
<g id="a_Node000003"><a xlink:href="classHellClient.html" target="_top" xlink:title="Client for Hellschreiber transmissions.">
<polygon fill="white" stroke="#666666" points="187,-93 122,-93 122,-74 187,-74 187,-93"/>
<text text-anchor="middle" x="154.5" y="-81" font-family="Helvetica,sans-Serif" font-size="10.00">HellClient</text>
</a>
</g>
</g>
<!-- Node2&#45;&gt;Node3 -->
<g id="edge3_Node000002_Node000003" class="edge">
<title>Node2&#45;&gt;Node3</title>
<g id="a_edge3_Node000002_Node000003"><a xlink:title=" ">
<path fill="none" stroke="#63b8ff" d="M91.5,-73.54C101.84,-75.2 112.45,-76.9 121.92,-78.42"/>
<polygon fill="#63b8ff" stroke="#63b8ff" points="91.73,-70.03 81.3,-71.9 90.62,-76.94 91.73,-70.03"/>
</a>
</g>
</g>
<!-- Node4 -->
<g id="Node000004" class="node">
<title>Node4</title>
<g id="a_Node000004"><a xlink:href="classMorseClient.html" target="_top" xlink:title="Client for Morse Code communication. The public interface is the same as Arduino Serial.">
<polygon fill="white" stroke="#666666" points="192,-56 117,-56 117,-37 192,-37 192,-56"/>
<text text-anchor="middle" x="154.5" y="-44" font-family="Helvetica,sans-Serif" font-size="10.00">MorseClient</text>
</a>
</g>
</g>
<!-- Node2&#45;&gt;Node4 -->
<g id="edge4_Node000002_Node000004" class="edge">
<title>Node2&#45;&gt;Node4</title>
<g id="a_edge4_Node000002_Node000004"><a xlink:title=" ">
<path fill="none" stroke="#63b8ff" d="M91.25,-57.06C99.85,-55.6 108.65,-54.11 116.82,-52.72"/>
<polygon fill="#63b8ff" stroke="#63b8ff" points="90.58,-53.62 81.3,-58.75 91.75,-60.53 90.58,-53.62"/>
</a>
</g>
</g>
<!-- Node5 -->
<g id="Node000005" class="node">
<title>Node5</title>
<g id="a_Node000005"><a xlink:href="classRTTYClient.html" target="_top" xlink:title="Client for RTTY communication. The public interface is the same as Arduino Serial.">
<polygon fill="white" stroke="#666666" points="188.5,-19 120.5,-19 120.5,0 188.5,0 188.5,-19"/>
<text text-anchor="middle" x="154.5" y="-7" font-family="Helvetica,sans-Serif" font-size="10.00">RTTYClient</text>
</a>
</g>
</g>
<!-- Node2&#45;&gt;Node5 -->
<g id="edge5_Node000002_Node000005" class="edge">
<title>Node2&#45;&gt;Node5</title>
<g id="a_edge5_Node000002_Node000005"><a xlink:title=" ">
<path fill="none" stroke="#63b8ff" d="M69.83,-51.34C90.07,-41.21 116.76,-27.87 134.5,-19"/>
<polygon fill="#63b8ff" stroke="#63b8ff" points="68.13,-48.27 60.75,-55.87 71.26,-54.53 68.13,-48.27"/>
</a>
</g>
</g>
</g>
</svg>
