<?xml version="1.0" encoding="UTF-8" standalone="no"?>
<!DOCTYPE svg PUBLIC "-//W3C//DTD SVG 1.1//EN"
 "http://www.w3.org/Graphics/SVG/1.1/DTD/svg11.dtd">
<!-- Generated by graphviz version 2.43.0 (0)
 -->
<!-- Title: Graphical Class Hierarchy Pages: 1 -->
<svg width="476pt" height="27pt"
 viewBox="0.00 0.00 476.00 27.00" xmlns="http://www.w3.org/2000/svg" xmlns:xlink="http://www.w3.org/1999/xlink">
<g id="graph0" class="graph" transform="scale(1 1) rotate(0) translate(4 23)">
<title>Graphical Class Hierarchy</title>
<!-- Node0 -->
<g id="Node000000" class="node">
<title>Node0</title>
<g id="a_Node000000"><a xlink:href="structLR11x0WifiResult__t.html" target="_top" xlink:title="Structure to save result of passive WiFi scan. This result only saves the basic information.">
<polygon fill="white" stroke="#666666" points="111,-19 0,-19 0,0 111,0 111,-19"/>
<text text-anchor="middle" x="55.5" y="-7" font-family="Helvetica,sans-Serif" font-size="10.00">LR11x0WifiResult_t</text>
</a>
</g>
</g>
<!-- Node1 -->
<g id="Node000001" class="node">
<title>Node1</title>
<g id="a_Node000001"><a xlink:href="structLR11x0WifiResultFull__t.html" target="_top" xlink:title="Structure to save result of passive WiFi scan. This result saves additional information alongside tha...">
<polygon fill="white" stroke="#666666" points="275,-19 147,-19 147,0 275,0 275,-19"/>
<text text-anchor="middle" x="211" y="-7" font-family="Helvetica,sans-Serif" font-size="10.00">LR11x0WifiResultFull_t</text>
</a>
</g>
</g>
<!-- Node0&#45;&gt;Node1 -->
<g id="edge55_Node000000_Node000001" class="edge">
<title>Node0&#45;&gt;Node1</title>
<g id="a_edge55_Node000000_Node000001"><a xlink:title=" ">
<path fill="none" stroke="#63b8ff" d="M121.3,-9.5C129.8,-9.5 138.51,-9.5 146.98,-9.5"/>
<polygon fill="#63b8ff" stroke="#63b8ff" points="121.05,-6 111.05,-9.5 121.05,-13 121.05,-6"/>
</a>
</g>
</g>
<!-- Node2 -->
<g id="Node000002" class="node">
<title>Node2</title>
<g id="a_Node000002"><a xlink:href="structLR11x0WifiResultExtended__t.html" target="_top" xlink:title="Structure to save result of passive WiFi scan. This result saves additional information alongside tha...">
<polygon fill="white" stroke="#666666" points="468,-19 311,-19 311,0 468,0 468,-19"/>
<text text-anchor="middle" x="389.5" y="-7" font-family="Helvetica,sans-Serif" font-size="10.00">LR11x0WifiResultExtended_t</text>
</a>
</g>
</g>
<!-- Node1&#45;&gt;Node2 -->
<g id="edge56_Node000001_Node000002" class="edge">
<title>Node1&#45;&gt;Node2</title>
<g id="a_edge56_Node000001_Node000002"><a xlink:title=" ">
<path fill="none" stroke="#63b8ff" d="M285.39,-9.5C293.83,-9.5 302.44,-9.5 310.93,-9.5"/>
<polygon fill="#63b8ff" stroke="#63b8ff" points="285.22,-6 275.22,-9.5 285.22,-13 285.22,-6"/>
</a>
</g>
</g>
</g>
</svg>
