<?xml version="1.0" encoding="UTF-8" standalone="no"?>
<!DOCTYPE svg PUBLIC "-//W3C//DTD SVG 1.1//EN"
 "http://www.w3.org/Graphics/SVG/1.1/DTD/svg11.dtd">
<!-- Generated by graphviz version 2.43.0 (0)
 -->
<!-- Title: Graphical Class Hierarchy Pages: 1 -->
<svg width="282pt" height="64pt"
 viewBox="0.00 0.00 282.00 64.00" xmlns="http://www.w3.org/2000/svg" xmlns:xlink="http://www.w3.org/1999/xlink">
<g id="graph0" class="graph" transform="scale(1 1) rotate(0) translate(4 60)">
<title>Graphical Class Hierarchy</title>
<!-- Node0 -->
<g id="Node000000" class="node">
<title>Node0</title>
<g id="a_Node000000"><a xlink:href="classLoRaWANPackage.html" target="_top" xlink:title="Common interface for all application packages.">
<polygon fill="white" stroke="#666666" points="104,-37 0,-37 0,-18 104,-18 104,-37"/>
<text text-anchor="middle" x="52" y="-25" font-family="Helvetica,sans-Serif" font-size="10.00">LoRaWANPackage</text>
</a>
</g>
</g>
<!-- Node1 -->
<g id="Node000001" class="node">
<title>Node1</title>
<g id="a_Node000001"><a xlink:href="classLoRaWANPackageTS003.html" target="_top" xlink:title="LoRaWAN Application package for TS003 Application Time.">
<polygon fill="white" stroke="#666666" points="274,-56 140,-56 140,-37 274,-37 274,-56"/>
<text text-anchor="middle" x="207" y="-44" font-family="Helvetica,sans-Serif" font-size="10.00">LoRaWANPackageTS003</text>
</a>
</g>
</g>
<!-- Node0&#45;&gt;Node1 -->
<g id="edge53_Node000000_Node000001" class="edge">
<title>Node0&#45;&gt;Node1</title>
<g id="a_edge53_Node000000_Node000001"><a xlink:title=" ">
<path fill="none" stroke="#63b8ff" d="M114.42,-35.13C122.77,-36.16 131.38,-37.23 139.82,-38.28"/>
<polygon fill="#63b8ff" stroke="#63b8ff" points="114.73,-31.64 104.37,-33.88 113.86,-38.59 114.73,-31.64"/>
</a>
</g>
</g>
<!-- Node2 -->
<g id="Node000002" class="node">
<title>Node2</title>
<g id="a_Node000002"><a xlink:href="classLoRaWANPackageTS009.html" target="_top" xlink:title="LoRaWAN Application package for TS009 Certification testing.">
<polygon fill="white" stroke="#666666" points="274,-19 140,-19 140,0 274,0 274,-19"/>
<text text-anchor="middle" x="207" y="-7" font-family="Helvetica,sans-Serif" font-size="10.00">LoRaWANPackageTS009</text>
</a>
</g>
</g>
<!-- Node0&#45;&gt;Node2 -->
<g id="edge54_Node000000_Node000002" class="edge">
<title>Node0&#45;&gt;Node2</title>
<g id="a_edge54_Node000000_Node000002"><a xlink:title=" ">
<path fill="none" stroke="#63b8ff" d="M114.42,-20.27C122.77,-19.29 131.38,-18.28 139.82,-17.29"/>
<polygon fill="#63b8ff" stroke="#63b8ff" points="113.89,-16.81 104.37,-21.46 114.71,-23.76 113.89,-16.81"/>
</a>
</g>
</g>
</g>
</svg>
