<?xml version="1.0" encoding="UTF-8" standalone="no"?>
<!DOCTYPE svg PUBLIC "-//W3C//DTD SVG 1.1//EN"
 "http://www.w3.org/Graphics/SVG/1.1/DTD/svg11.dtd">
<!-- Generated by graphviz version 2.43.0 (0)
 -->
<!-- Title: Graphical Class Hierarchy Pages: 1 -->
<svg width="619pt" height="1852pt"
 viewBox="0.00 0.00 619.00 1851.50" xmlns="http://www.w3.org/2000/svg" xmlns:xlink="http://www.w3.org/1999/xlink">
<g id="graph0" class="graph" transform="scale(1 1) rotate(0) translate(4 1847.5)">
<title>Graphical Class Hierarchy</title>
<!-- Node0 -->
<g id="Node000000" class="node">
<title>Node0</title>
<g id="a_Node000000"><a xlink:title=" ">
<polygon fill="#e0e0e0" stroke="#999999" points="86,-541.5 0,-541.5 0,-522.5 86,-522.5 86,-541.5"/>
<text text-anchor="middle" x="43" y="-529.5" font-family="Helvetica,sans-Serif" font-size="10.00">std::exception</text>
</a>
</g>
</g>
<!-- Node1 -->
<g id="Node000001" class="node">
<title>Node1</title>
<g id="a_Node000001"><a xlink:href="classMagick_1_1Exception.html" target="_top" xlink:title=" ">
<polygon fill="white" stroke="#666666" points="231.5,-807.5 125.5,-807.5 125.5,-788.5 231.5,-788.5 231.5,-807.5"/>
<text text-anchor="middle" x="178.5" y="-795.5" font-family="Helvetica,sans-Serif" font-size="10.00">Magick::Exception</text>
</a>
</g>
</g>
<!-- Node0&#45;&gt;Node1 -->
<g id="edge185_Node000000_Node000001" class="edge">
<title>Node0&#45;&gt;Node1</title>
<g id="a_edge185_Node000000_Node000001"><a xlink:title=" ">
<path fill="none" stroke="#63b8ff" d="M53.53,-550.99C79.9,-603.53 153.19,-749.57 172.69,-788.41"/>
<polygon fill="#63b8ff" stroke="#63b8ff" points="56.52,-549.15 48.91,-541.78 50.27,-552.29 56.52,-549.15"/>
</a>
</g>
</g>
<!-- Node42 -->
<g id="Node000042" class="node">
<title>Node42</title>
<g id="a_Node000042"><a xlink:href="classcxxopts_1_1exceptions_1_1exception.html" target="_top" xlink:title=" ">
<polygon fill="white" stroke="#666666" points="235,-306 122,-306 122,-276 235,-276 235,-306"/>
<text text-anchor="start" x="130" y="-294" font-family="Helvetica,sans-Serif" font-size="10.00">cxxopts::exceptions</text>
<text text-anchor="middle" x="178.5" y="-283" font-family="Helvetica,sans-Serif" font-size="10.00">::exception</text>
</a>
</g>
</g>
<!-- Node0&#45;&gt;Node42 -->
<g id="edge226_Node000000_Node000042" class="edge">
<title>Node0&#45;&gt;Node42</title>
<g id="a_edge226_Node000000_Node000042"><a xlink:title=" ">
<path fill="none" stroke="#63b8ff" d="M54.35,-513.32C79.92,-467.16 145.72,-348.36 169.1,-306.16"/>
<polygon fill="#63b8ff" stroke="#63b8ff" points="51.18,-511.81 49.4,-522.25 57.31,-515.2 51.18,-511.81"/>
</a>
</g>
</g>
<!-- Node2 -->
<g id="Node000002" class="node">
<title>Node2</title>
<g id="a_Node000002"><a xlink:href="classMagick_1_1Error.html" target="_top" xlink:title=" ">
<polygon fill="white" stroke="#666666" points="374,-1491.5 293,-1491.5 293,-1472.5 374,-1472.5 374,-1491.5"/>
<text text-anchor="middle" x="333.5" y="-1479.5" font-family="Helvetica,sans-Serif" font-size="10.00">Magick::Error</text>
</a>
</g>
</g>
<!-- Node1&#45;&gt;Node2 -->
<g id="edge186_Node000001_Node000002" class="edge">
<title>Node1&#45;&gt;Node2</title>
<g id="a_edge186_Node000001_Node000002"><a xlink:title=" ">
<path fill="none" stroke="#63b8ff" d="M183.9,-817.65C206.97,-920.79 313.64,-1397.68 330.31,-1472.2"/>
<polygon fill="#63b8ff" stroke="#63b8ff" points="187.26,-816.66 181.66,-807.67 180.43,-818.19 187.26,-816.66"/>
</a>
</g>
</g>
<!-- Node22 -->
<g id="Node000022" class="node">
<title>Node22</title>
<g id="a_Node000022"><a xlink:href="classMagick_1_1Warning.html" target="_top" xlink:title=" ">
<polygon fill="white" stroke="#666666" points="382.5,-807.5 284.5,-807.5 284.5,-788.5 382.5,-788.5 382.5,-807.5"/>
<text text-anchor="middle" x="333.5" y="-795.5" font-family="Helvetica,sans-Serif" font-size="10.00">Magick::Warning</text>
</a>
</g>
</g>
<!-- Node1&#45;&gt;Node22 -->
<g id="edge206_Node000001_Node000022" class="edge">
<title>Node1&#45;&gt;Node22</title>
<g id="a_edge206_Node000001_Node000022"><a xlink:title=" ">
<path fill="none" stroke="#63b8ff" d="M241.89,-798C256.06,-798 270.9,-798 284.37,-798"/>
<polygon fill="#63b8ff" stroke="#63b8ff" points="241.73,-794.5 231.73,-798 241.73,-801.5 241.73,-794.5"/>
</a>
</g>
</g>
<!-- Node3 -->
<g id="Node000003" class="node">
<title>Node3</title>
<g id="a_Node000003"><a xlink:href="classMagick_1_1ErrorBlob.html" target="_top" xlink:title=" ">
<polygon fill="white" stroke="#666666" points="573,-1843.5 470,-1843.5 470,-1824.5 573,-1824.5 573,-1843.5"/>
<text text-anchor="middle" x="521.5" y="-1831.5" font-family="Helvetica,sans-Serif" font-size="10.00">Magick::ErrorBlob</text>
</a>
</g>
</g>
<!-- Node2&#45;&gt;Node3 -->
<g id="edge187_Node000002_Node000003" class="edge">
<title>Node2&#45;&gt;Node3</title>
<g id="a_edge187_Node000002_Node000003"><a xlink:title=" ">
<path fill="none" stroke="#63b8ff" d="M333.78,-1501.77C332.81,-1559.62 338.43,-1729.93 432,-1816 442.27,-1825.45 456.1,-1830.5 469.76,-1833.08"/>
<polygon fill="#63b8ff" stroke="#63b8ff" points="337.28,-1501.84 334.03,-1491.76 330.28,-1501.66 337.28,-1501.84"/>
</a>
</g>
</g>
<!-- Node4 -->
<g id="Node000004" class="node">
<title>Node4</title>
<g id="a_Node000004"><a xlink:href="classMagick_1_1ErrorCache.html" target="_top" xlink:title=" ">
<polygon fill="white" stroke="#666666" points="577,-1806.5 466,-1806.5 466,-1787.5 577,-1787.5 577,-1806.5"/>
<text text-anchor="middle" x="521.5" y="-1794.5" font-family="Helvetica,sans-Serif" font-size="10.00">Magick::ErrorCache</text>
</a>
</g>
</g>
<!-- Node2&#45;&gt;Node4 -->
<g id="edge188_Node000002_Node000004" class="edge">
<title>Node2&#45;&gt;Node4</title>
<g id="a_edge188_Node000002_Node000004"><a xlink:title=" ">
<path fill="none" stroke="#63b8ff" d="M334.61,-1501.68C336.04,-1555.15 347.77,-1704.05 432,-1779 441.37,-1787.34 453.53,-1792.22 465.81,-1795"/>
<polygon fill="#63b8ff" stroke="#63b8ff" points="338.11,-1501.46 334.44,-1491.52 331.11,-1501.58 338.11,-1501.46"/>
</a>
</g>
</g>
<!-- Node5 -->
<g id="Node000005" class="node">
<title>Node5</title>
<g id="a_Node000005"><a xlink:href="classMagick_1_1ErrorCoder.html" target="_top" xlink:title=" ">
<polygon fill="white" stroke="#666666" points="576.5,-1769.5 466.5,-1769.5 466.5,-1750.5 576.5,-1750.5 576.5,-1769.5"/>
<text text-anchor="middle" x="521.5" y="-1757.5" font-family="Helvetica,sans-Serif" font-size="10.00">Magick::ErrorCoder</text>
</a>
</g>
</g>
<!-- Node2&#45;&gt;Node5 -->
<g id="edge189_Node000002_Node000005" class="edge">
<title>Node2&#45;&gt;Node5</title>
<g id="a_edge189_Node000002_Node000005"><a xlink:title=" ">
<path fill="none" stroke="#63b8ff" d="M335.67,-1501.83C339.67,-1550.8 357.14,-1678.13 432,-1742 441.54,-1750.14 453.76,-1754.95 466.06,-1757.72"/>
<polygon fill="#63b8ff" stroke="#63b8ff" points="339.14,-1501.36 334.94,-1491.63 332.16,-1501.86 339.14,-1501.36"/>
</a>
</g>
</g>
<!-- Node6 -->
<g id="Node000006" class="node">
<title>Node6</title>
<g id="a_Node000006"><a xlink:href="classMagick_1_1ErrorConfigure.html" target="_top" xlink:title=" ">
<polygon fill="white" stroke="#666666" points="585.5,-1732.5 457.5,-1732.5 457.5,-1713.5 585.5,-1713.5 585.5,-1732.5"/>
<text text-anchor="middle" x="521.5" y="-1720.5" font-family="Helvetica,sans-Serif" font-size="10.00">Magick::ErrorConfigure</text>
</a>
</g>
</g>
<!-- Node2&#45;&gt;Node6 -->
<g id="edge190_Node000002_Node000006" class="edge">
<title>Node2&#45;&gt;Node6</title>
<g id="a_edge190_Node000002_Node000006"><a xlink:title=" ">
<path fill="none" stroke="#63b8ff" d="M337.06,-1501.97C343.82,-1546.05 366.39,-1651.99 432,-1705 439.32,-1710.91 448.07,-1715.04 457.17,-1717.9"/>
<polygon fill="#63b8ff" stroke="#63b8ff" points="340.5,-1501.35 335.63,-1491.94 333.57,-1502.33 340.5,-1501.35"/>
</a>
</g>
</g>
<!-- Node7 -->
<g id="Node000007" class="node">
<title>Node7</title>
<g id="a_Node000007"><a xlink:href="classMagick_1_1ErrorCorruptImage.html" target="_top" xlink:title=" ">
<polygon fill="white" stroke="#666666" points="595.5,-1695.5 447.5,-1695.5 447.5,-1676.5 595.5,-1676.5 595.5,-1695.5"/>
<text text-anchor="middle" x="521.5" y="-1683.5" font-family="Helvetica,sans-Serif" font-size="10.00">Magick::ErrorCorruptImage</text>
</a>
</g>
</g>
<!-- Node2&#45;&gt;Node7 -->
<g id="edge191_Node000002_Node000007" class="edge">
<title>Node2&#45;&gt;Node7</title>
<g id="a_edge191_Node000002_Node000007"><a xlink:title=" ">
<path fill="none" stroke="#63b8ff" d="M338.82,-1501.51C348.4,-1539.93 375.22,-1625.35 432,-1668 436.64,-1671.48 441.78,-1674.34 447.19,-1676.67"/>
<polygon fill="#63b8ff" stroke="#63b8ff" points="342.18,-1500.52 336.47,-1491.59 335.37,-1502.13 342.18,-1500.52"/>
</a>
</g>
</g>
<!-- Node8 -->
<g id="Node000008" class="node">
<title>Node8</title>
<g id="a_Node000008"><a xlink:href="classMagick_1_1ErrorDelegate.html" target="_top" xlink:title=" ">
<polygon fill="white" stroke="#666666" points="584,-1658.5 459,-1658.5 459,-1639.5 584,-1639.5 584,-1658.5"/>
<text text-anchor="middle" x="521.5" y="-1646.5" font-family="Helvetica,sans-Serif" font-size="10.00">Magick::ErrorDelegate</text>
</a>
</g>
</g>
<!-- Node2&#45;&gt;Node8 -->
<g id="edge192_Node000002_Node000008" class="edge">
<title>Node2&#45;&gt;Node8</title>
<g id="a_edge192_Node000002_Node000008"><a xlink:title=" ">
<path fill="none" stroke="#63b8ff" d="M341.35,-1501.17C353.94,-1533.47 383.96,-1598.41 432,-1631 440.05,-1636.46 449.38,-1640.33 458.92,-1643.06"/>
<polygon fill="#63b8ff" stroke="#63b8ff" points="344.53,-1499.69 337.75,-1491.56 337.98,-1502.15 344.53,-1499.69"/>
</a>
</g>
</g>
<!-- Node9 -->
<g id="Node000009" class="node">
<title>Node9</title>
<g id="a_Node000009"><a xlink:href="classMagick_1_1ErrorDraw.html" target="_top" xlink:title=" ">
<polygon fill="white" stroke="#666666" points="575,-1621.5 468,-1621.5 468,-1602.5 575,-1602.5 575,-1621.5"/>
<text text-anchor="middle" x="521.5" y="-1609.5" font-family="Helvetica,sans-Serif" font-size="10.00">Magick::ErrorDraw</text>
</a>
</g>
</g>
<!-- Node2&#45;&gt;Node9 -->
<g id="edge193_Node000002_Node000009" class="edge">
<title>Node2&#45;&gt;Node9</title>
<g id="a_edge193_Node000002_Node000009"><a xlink:title=" ">
<path fill="none" stroke="#63b8ff" d="M345.04,-1500.32C360.62,-1525.66 392.3,-1570.87 432,-1594 442.84,-1600.31 455.54,-1604.44 467.89,-1607.13"/>
<polygon fill="#63b8ff" stroke="#63b8ff" points="348,-1498.46 339.87,-1491.68 341.99,-1502.05 348,-1498.46"/>
</a>
</g>
</g>
<!-- Node10 -->
<g id="Node000010" class="node">
<title>Node10</title>
<g id="a_Node000010"><a xlink:href="classMagick_1_1ErrorFileOpen.html" target="_top" xlink:title=" ">
<polygon fill="white" stroke="#666666" points="583.5,-1584.5 459.5,-1584.5 459.5,-1565.5 583.5,-1565.5 583.5,-1584.5"/>
<text text-anchor="middle" x="521.5" y="-1572.5" font-family="Helvetica,sans-Serif" font-size="10.00">Magick::ErrorFileOpen</text>
</a>
</g>
</g>
<!-- Node2&#45;&gt;Node10 -->
<g id="edge194_Node000002_Node000010" class="edge">
<title>Node2&#45;&gt;Node10</title>
<g id="a_edge194_Node000002_Node000010"><a xlink:title=" ">
<path fill="none" stroke="#63b8ff" d="M351.2,-1498.77C369.45,-1516.08 400.33,-1542.54 432,-1557 440.56,-1560.91 449.97,-1563.97 459.36,-1566.37"/>
<polygon fill="#63b8ff" stroke="#63b8ff" points="353.37,-1495.99 343.75,-1491.54 348.49,-1501.01 353.37,-1495.99"/>
</a>
</g>
</g>
<!-- Node11 -->
<g id="Node000011" class="node">
<title>Node11</title>
<g id="a_Node000011"><a xlink:href="classMagick_1_1ErrorImage.html" target="_top" xlink:title=" ">
<polygon fill="white" stroke="#666666" points="577.5,-1547.5 465.5,-1547.5 465.5,-1528.5 577.5,-1528.5 577.5,-1547.5"/>
<text text-anchor="middle" x="521.5" y="-1535.5" font-family="Helvetica,sans-Serif" font-size="10.00">Magick::ErrorImage</text>
</a>
</g>
</g>
<!-- Node2&#45;&gt;Node11 -->
<g id="edge195_Node000002_Node000011" class="edge">
<title>Node2&#45;&gt;Node11</title>
<g id="a_edge195_Node000002_Node000011"><a xlink:title=" ">
<path fill="none" stroke="#63b8ff" d="M365.15,-1495.5C384.12,-1503.47 409.14,-1513.28 432,-1520 442.83,-1523.19 454.57,-1526 465.85,-1528.41"/>
<polygon fill="#63b8ff" stroke="#63b8ff" points="366.39,-1492.23 355.82,-1491.53 363.65,-1498.67 366.39,-1492.23"/>
</a>
</g>
</g>
<!-- Node12 -->
<g id="Node000012" class="node">
<title>Node12</title>
<g id="a_Node000012"><a xlink:href="classMagick_1_1ErrorMissingDelegate.html" target="_top" xlink:title=" ">
<polygon fill="white" stroke="#666666" points="603,-1510.5 440,-1510.5 440,-1491.5 603,-1491.5 603,-1510.5"/>
<text text-anchor="middle" x="521.5" y="-1498.5" font-family="Helvetica,sans-Serif" font-size="10.00">Magick::ErrorMissingDelegate</text>
</a>
</g>
</g>
<!-- Node2&#45;&gt;Node12 -->
<g id="edge196_Node000002_Node000012" class="edge">
<title>Node2&#45;&gt;Node12</title>
<g id="a_edge196_Node000002_Node000012"><a xlink:title=" ">
<path fill="none" stroke="#63b8ff" d="M384.62,-1487.12C401.59,-1488.85 421,-1490.84 439.73,-1492.75"/>
<polygon fill="#63b8ff" stroke="#63b8ff" points="384.71,-1483.61 374.4,-1486.08 383.99,-1490.57 384.71,-1483.61"/>
</a>
</g>
</g>
<!-- Node13 -->
<g id="Node000013" class="node">
<title>Node13</title>
<g id="a_Node000013"><a xlink:href="classMagick_1_1ErrorModule.html" target="_top" xlink:title=" ">
<polygon fill="white" stroke="#666666" points="580,-1473.5 463,-1473.5 463,-1454.5 580,-1454.5 580,-1473.5"/>
<text text-anchor="middle" x="521.5" y="-1461.5" font-family="Helvetica,sans-Serif" font-size="10.00">Magick::ErrorModule</text>
</a>
</g>
</g>
<!-- Node2&#45;&gt;Node13 -->
<g id="edge197_Node000002_Node000013" class="edge">
<title>Node2&#45;&gt;Node13</title>
<g id="a_edge197_Node000002_Node000013"><a xlink:title=" ">
<path fill="none" stroke="#63b8ff" d="M384.4,-1477.17C408.51,-1474.84 437.59,-1472.02 462.66,-1469.6"/>
<polygon fill="#63b8ff" stroke="#63b8ff" points="384.02,-1473.69 374.4,-1478.14 384.69,-1480.66 384.02,-1473.69"/>
</a>
</g>
</g>
<!-- Node14 -->
<g id="Node000014" class="node">
<title>Node14</title>
<g id="a_Node000014"><a xlink:href="classMagick_1_1ErrorMonitor.html" target="_top" xlink:title=" ">
<polygon fill="white" stroke="#666666" points="581,-1436.5 462,-1436.5 462,-1417.5 581,-1417.5 581,-1436.5"/>
<text text-anchor="middle" x="521.5" y="-1424.5" font-family="Helvetica,sans-Serif" font-size="10.00">Magick::ErrorMonitor</text>
</a>
</g>
</g>
<!-- Node2&#45;&gt;Node14 -->
<g id="edge198_Node000002_Node000014" class="edge">
<title>Node2&#45;&gt;Node14</title>
<g id="a_edge198_Node000002_Node000014"><a xlink:title=" ">
<path fill="none" stroke="#63b8ff" d="M366.73,-1468.78C385.55,-1461.4 409.87,-1452.43 432,-1446 444.22,-1442.45 457.57,-1439.25 470.11,-1436.52"/>
<polygon fill="#63b8ff" stroke="#63b8ff" points="365.44,-1465.53 357.44,-1472.48 368.02,-1472.04 365.44,-1465.53"/>
</a>
</g>
</g>
<!-- Node15 -->
<g id="Node000015" class="node">
<title>Node15</title>
<g id="a_Node000015"><a xlink:href="classMagick_1_1ErrorOption.html" target="_top" xlink:title=" ">
<polygon fill="white" stroke="#666666" points="578,-1399.5 465,-1399.5 465,-1380.5 578,-1380.5 578,-1399.5"/>
<text text-anchor="middle" x="521.5" y="-1387.5" font-family="Helvetica,sans-Serif" font-size="10.00">Magick::ErrorOption</text>
</a>
</g>
</g>
<!-- Node2&#45;&gt;Node15 -->
<g id="edge199_Node000002_Node000015" class="edge">
<title>Node2&#45;&gt;Node15</title>
<g id="a_edge199_Node000002_Node000015"><a xlink:title=" ">
<path fill="none" stroke="#63b8ff" d="M351.91,-1465.22C370.33,-1448.43 400.96,-1423.13 432,-1409 442.16,-1404.38 453.48,-1400.86 464.56,-1398.19"/>
<polygon fill="#63b8ff" stroke="#63b8ff" points="349.28,-1462.89 344.35,-1472.26 354.06,-1468.01 349.28,-1462.89"/>
</a>
</g>
</g>
<!-- Node16 -->
<g id="Node000016" class="node">
<title>Node16</title>
<g id="a_Node000016"><a xlink:href="classMagick_1_1ErrorRegistry.html" target="_top" xlink:title=" ">
<polygon fill="white" stroke="#666666" points="582.5,-1362.5 460.5,-1362.5 460.5,-1343.5 582.5,-1343.5 582.5,-1362.5"/>
<text text-anchor="middle" x="521.5" y="-1350.5" font-family="Helvetica,sans-Serif" font-size="10.00">Magick::ErrorRegistry</text>
</a>
</g>
</g>
<!-- Node2&#45;&gt;Node16 -->
<g id="edge200_Node000002_Node000016" class="edge">
<title>Node2&#45;&gt;Node16</title>
<g id="a_edge200_Node000002_Node000016"><a xlink:title=" ">
<path fill="none" stroke="#63b8ff" d="M345.39,-1463.69C361.19,-1438.81 392.92,-1394.82 432,-1372 440.69,-1366.93 450.56,-1363.21 460.48,-1360.47"/>
<polygon fill="#63b8ff" stroke="#63b8ff" points="342.41,-1461.86 340.13,-1472.21 348.36,-1465.54 342.41,-1461.86"/>
</a>
</g>
</g>
<!-- Node17 -->
<g id="Node000017" class="node">
<title>Node17</title>
<g id="a_Node000017"><a xlink:href="classMagick_1_1ErrorResourceLimit.html" target="_top" xlink:title=" ">
<polygon fill="white" stroke="#666666" points="597,-1325.5 446,-1325.5 446,-1306.5 597,-1306.5 597,-1325.5"/>
<text text-anchor="middle" x="521.5" y="-1313.5" font-family="Helvetica,sans-Serif" font-size="10.00">Magick::ErrorResourceLimit</text>
</a>
</g>
</g>
<!-- Node2&#45;&gt;Node17 -->
<g id="edge201_Node000002_Node000017" class="edge">
<title>Node2&#45;&gt;Node17</title>
<g id="a_edge201_Node000002_Node000017"><a xlink:title=" ">
<path fill="none" stroke="#63b8ff" d="M341.64,-1462.69C354.51,-1430.74 384.71,-1367.23 432,-1335 437.58,-1331.19 443.79,-1328.13 450.25,-1325.67"/>
<polygon fill="#63b8ff" stroke="#63b8ff" points="338.3,-1461.63 337.95,-1472.22 344.83,-1464.16 338.3,-1461.63"/>
</a>
</g>
</g>
<!-- Node18 -->
<g id="Node000018" class="node">
<title>Node18</title>
<g id="a_Node000018"><a xlink:href="classMagick_1_1ErrorStream.html" target="_top" xlink:title=" ">
<polygon fill="white" stroke="#666666" points="579.5,-1288.5 463.5,-1288.5 463.5,-1269.5 579.5,-1269.5 579.5,-1288.5"/>
<text text-anchor="middle" x="521.5" y="-1276.5" font-family="Helvetica,sans-Serif" font-size="10.00">Magick::ErrorStream</text>
</a>
</g>
</g>
<!-- Node2&#45;&gt;Node18 -->
<g id="edge202_Node000002_Node000018" class="edge">
<title>Node2&#45;&gt;Node18</title>
<g id="a_edge202_Node000002_Node000018"><a xlink:title=" ">
<path fill="none" stroke="#63b8ff" d="M339.06,-1462.21C348.95,-1424.04 376.1,-1340.28 432,-1298 441.02,-1291.18 451.97,-1286.69 463.05,-1283.76"/>
<polygon fill="#63b8ff" stroke="#63b8ff" points="335.62,-1461.55 336.63,-1472.1 342.42,-1463.23 335.62,-1461.55"/>
</a>
</g>
</g>
<!-- Node19 -->
<g id="Node000019" class="node">
<title>Node19</title>
<g id="a_Node000019"><a xlink:href="classMagick_1_1ErrorType.html" target="_top" xlink:title=" ">
<polygon fill="white" stroke="#666666" points="573.5,-1251.5 469.5,-1251.5 469.5,-1232.5 573.5,-1232.5 573.5,-1251.5"/>
<text text-anchor="middle" x="521.5" y="-1239.5" font-family="Helvetica,sans-Serif" font-size="10.00">Magick::ErrorType</text>
</a>
</g>
</g>
<!-- Node2&#45;&gt;Node19 -->
<g id="edge203_Node000002_Node000019" class="edge">
<title>Node2&#45;&gt;Node19</title>
<g id="a_edge203_Node000002_Node000019"><a xlink:title=" ">
<path fill="none" stroke="#63b8ff" d="M337.16,-1462.26C344.12,-1418.66 367.09,-1313.86 432,-1261 442.48,-1252.47 455.91,-1247.52 469.12,-1244.72"/>
<polygon fill="#63b8ff" stroke="#63b8ff" points="333.69,-1461.77 335.69,-1472.18 340.62,-1462.8 333.69,-1461.77"/>
</a>
</g>
</g>
<!-- Node20 -->
<g id="Node000020" class="node">
<title>Node20</title>
<g id="a_Node000020"><a xlink:href="classMagick_1_1ErrorUndefined.html" target="_top" xlink:title=" ">
<polygon fill="white" stroke="#666666" points="587,-1214.5 456,-1214.5 456,-1195.5 587,-1195.5 587,-1214.5"/>
<text text-anchor="middle" x="521.5" y="-1202.5" font-family="Helvetica,sans-Serif" font-size="10.00">Magick::ErrorUndefined</text>
</a>
</g>
</g>
<!-- Node2&#45;&gt;Node20 -->
<g id="edge204_Node000002_Node000020" class="edge">
<title>Node2&#45;&gt;Node20</title>
<g id="a_edge204_Node000002_Node000020"><a xlink:title=" ">
<path fill="none" stroke="#63b8ff" d="M335.76,-1462.37C339.98,-1413.88 357.9,-1287.75 432,-1224 438.91,-1218.06 447.23,-1213.83 455.97,-1210.85"/>
<polygon fill="#63b8ff" stroke="#63b8ff" points="332.26,-1462.23 334.99,-1472.46 339.24,-1462.76 332.26,-1462.23"/>
</a>
</g>
</g>
<!-- Node21 -->
<g id="Node000021" class="node">
<title>Node21</title>
<g id="a_Node000021"><a xlink:href="classMagick_1_1ErrorXServer.html" target="_top" xlink:title=" ">
<polygon fill="white" stroke="#666666" points="581,-1177.5 462,-1177.5 462,-1158.5 581,-1158.5 581,-1177.5"/>
<text text-anchor="middle" x="521.5" y="-1165.5" font-family="Helvetica,sans-Serif" font-size="10.00">Magick::ErrorXServer</text>
</a>
</g>
</g>
<!-- Node2&#45;&gt;Node21 -->
<g id="edge205_Node000002_Node000021" class="edge">
<title>Node2&#45;&gt;Node21</title>
<g id="a_edge205_Node000002_Node000021"><a xlink:title=" ">
<path fill="none" stroke="#63b8ff" d="M334.71,-1462.14C336.41,-1408.84 348.79,-1261.69 432,-1187 440.3,-1179.55 450.81,-1174.77 461.65,-1171.75"/>
<polygon fill="#63b8ff" stroke="#63b8ff" points="331.21,-1462.21 334.48,-1472.29 338.21,-1462.37 331.21,-1462.21"/>
</a>
</g>
</g>
<!-- Node23 -->
<g id="Node000023" class="node">
<title>Node23</title>
<g id="a_Node000023"><a xlink:href="classMagick_1_1WarningBlob.html" target="_top" xlink:title=" ">
<polygon fill="white" stroke="#666666" points="581,-1140.5 462,-1140.5 462,-1121.5 581,-1121.5 581,-1140.5"/>
<text text-anchor="middle" x="521.5" y="-1128.5" font-family="Helvetica,sans-Serif" font-size="10.00">Magick::WarningBlob</text>
</a>
</g>
</g>
<!-- Node22&#45;&gt;Node23 -->
<g id="edge207_Node000022_Node000023" class="edge">
<title>Node22&#45;&gt;Node23</title>
<g id="a_edge207_Node000022_Node000023"><a xlink:title=" ">
<path fill="none" stroke="#63b8ff" d="M334.18,-817.74C334.43,-873.37 343.24,-1032.66 432,-1113 440.25,-1120.47 450.74,-1125.18 461.58,-1128.09"/>
<polygon fill="#63b8ff" stroke="#63b8ff" points="337.68,-817.52 334.23,-807.5 330.68,-817.48 337.68,-817.52"/>
</a>
</g>
</g>
<!-- Node24 -->
<g id="Node000024" class="node">
<title>Node24</title>
<g id="a_Node000024"><a xlink:href="classMagick_1_1WarningCache.html" target="_top" xlink:title=" ">
<polygon fill="white" stroke="#666666" points="585.5,-1103.5 457.5,-1103.5 457.5,-1084.5 585.5,-1084.5 585.5,-1103.5"/>
<text text-anchor="middle" x="521.5" y="-1091.5" font-family="Helvetica,sans-Serif" font-size="10.00">Magick::WarningCache</text>
</a>
</g>
</g>
<!-- Node22&#45;&gt;Node24 -->
<g id="edge208_Node000022_Node000024" class="edge">
<title>Node22&#45;&gt;Node24</title>
<g id="a_edge208_Node000022_Node000024"><a xlink:title=" ">
<path fill="none" stroke="#63b8ff" d="M335.12,-817.8C337.86,-869.04 352.61,-1006.78 432,-1076 439.21,-1082.29 448.01,-1086.6 457.23,-1089.52"/>
<polygon fill="#63b8ff" stroke="#63b8ff" points="338.61,-817.57 334.68,-807.73 331.62,-817.87 338.61,-817.57"/>
</a>
</g>
</g>
<!-- Node25 -->
<g id="Node000025" class="node">
<title>Node25</title>
<g id="a_Node000025"><a xlink:href="classMagick_1_1WarningCoder.html" target="_top" xlink:title=" ">
<polygon fill="white" stroke="#666666" points="584.5,-1066.5 458.5,-1066.5 458.5,-1047.5 584.5,-1047.5 584.5,-1066.5"/>
<text text-anchor="middle" x="521.5" y="-1054.5" font-family="Helvetica,sans-Serif" font-size="10.00">Magick::WarningCoder</text>
</a>
</g>
</g>
<!-- Node22&#45;&gt;Node25 -->
<g id="edge209_Node000022_Node000025" class="edge">
<title>Node22&#45;&gt;Node25</title>
<g id="a_edge209_Node000022_Node000025"><a xlink:title=" ">
<path fill="none" stroke="#63b8ff" d="M336.3,-817.65C341.65,-863.99 361.78,-980.63 432,-1039 439.6,-1045.31 448.81,-1049.61 458.39,-1052.5"/>
<polygon fill="#63b8ff" stroke="#63b8ff" points="339.78,-817.27 335.26,-807.69 332.82,-818 339.78,-817.27"/>
</a>
</g>
</g>
<!-- Node26 -->
<g id="Node000026" class="node">
<title>Node26</title>
<g id="a_Node000026"><a xlink:href="classMagick_1_1WarningConfigure.html" target="_top" xlink:title=" ">
<polygon fill="white" stroke="#666666" points="593.5,-1029.5 449.5,-1029.5 449.5,-1010.5 593.5,-1010.5 593.5,-1029.5"/>
<text text-anchor="middle" x="521.5" y="-1017.5" font-family="Helvetica,sans-Serif" font-size="10.00">Magick::WarningConfigure</text>
</a>
</g>
</g>
<!-- Node22&#45;&gt;Node26 -->
<g id="edge210_Node000022_Node000026" class="edge">
<title>Node22&#45;&gt;Node26</title>
<g id="a_edge210_Node000022_Node000026"><a xlink:title=" ">
<path fill="none" stroke="#63b8ff" d="M337.88,-817.66C346.05,-858.84 370.91,-954.31 432,-1002 437.19,-1006.05 443.06,-1009.26 449.25,-1011.79"/>
<polygon fill="#63b8ff" stroke="#63b8ff" points="341.27,-816.75 336,-807.56 334.39,-818.04 341.27,-816.75"/>
</a>
</g>
</g>
<!-- Node27 -->
<g id="Node000027" class="node">
<title>Node27</title>
<g id="a_Node000027"><a xlink:href="classMagick_1_1WarningCorruptImage.html" target="_top" xlink:title=" ">
<polygon fill="white" stroke="#666666" points="603.5,-992.5 439.5,-992.5 439.5,-973.5 603.5,-973.5 603.5,-992.5"/>
<text text-anchor="middle" x="521.5" y="-980.5" font-family="Helvetica,sans-Serif" font-size="10.00">Magick::WarningCorruptImage</text>
</a>
</g>
</g>
<!-- Node22&#45;&gt;Node27 -->
<g id="edge211_Node000022_Node000027" class="edge">
<title>Node22&#45;&gt;Node27</title>
<g id="a_edge211_Node000022_Node000027"><a xlink:title=" ">
<path fill="none" stroke="#63b8ff" d="M340.04,-817.49C351.19,-852.91 379.81,-927.62 432,-965 436.72,-968.38 441.92,-971.16 447.37,-973.44"/>
<polygon fill="#63b8ff" stroke="#63b8ff" points="343.37,-816.41 337.14,-807.84 336.67,-818.43 343.37,-816.41"/>
</a>
</g>
</g>
<!-- Node28 -->
<g id="Node000028" class="node">
<title>Node28</title>
<g id="a_Node000028"><a xlink:href="classMagick_1_1WarningDelegate.html" target="_top" xlink:title=" ">
<polygon fill="white" stroke="#666666" points="592.5,-955.5 450.5,-955.5 450.5,-936.5 592.5,-936.5 592.5,-955.5"/>
<text text-anchor="middle" x="521.5" y="-943.5" font-family="Helvetica,sans-Serif" font-size="10.00">Magick::WarningDelegate</text>
</a>
</g>
</g>
<!-- Node22&#45;&gt;Node28 -->
<g id="edge212_Node000022_Node000028" class="edge">
<title>Node22&#45;&gt;Node28</title>
<g id="a_edge212_Node000022_Node000028"><a xlink:title=" ">
<path fill="none" stroke="#63b8ff" d="M343.22,-817.15C357.44,-846.08 388.47,-900.47 432,-928 437.7,-931.6 443.98,-934.51 450.49,-936.84"/>
<polygon fill="#63b8ff" stroke="#63b8ff" points="346.2,-815.27 338.75,-807.74 339.88,-818.28 346.2,-815.27"/>
</a>
</g>
</g>
<!-- Node29 -->
<g id="Node000029" class="node">
<title>Node29</title>
<g id="a_Node000029"><a xlink:href="classMagick_1_1WarningDraw.html" target="_top" xlink:title=" ">
<polygon fill="white" stroke="#666666" points="583,-918.5 460,-918.5 460,-899.5 583,-899.5 583,-918.5"/>
<text text-anchor="middle" x="521.5" y="-906.5" font-family="Helvetica,sans-Serif" font-size="10.00">Magick::WarningDraw</text>
</a>
</g>
</g>
<!-- Node22&#45;&gt;Node29 -->
<g id="edge213_Node000022_Node000029" class="edge">
<title>Node22&#45;&gt;Node29</title>
<g id="a_edge213_Node000022_Node000029"><a xlink:title=" ">
<path fill="none" stroke="#63b8ff" d="M347.77,-815.68C364.81,-837.05 396.46,-872.44 432,-891 440.62,-895.5 450.25,-898.88 459.9,-901.41"/>
<polygon fill="#63b8ff" stroke="#63b8ff" points="350.48,-813.47 341.58,-807.73 344.96,-817.77 350.48,-813.47"/>
</a>
</g>
</g>
<!-- Node30 -->
<g id="Node000030" class="node">
<title>Node30</title>
<g id="a_Node000030"><a xlink:href="classMagick_1_1WarningFileOpen.html" target="_top" xlink:title=" ">
<polygon fill="white" stroke="#666666" points="591.5,-881.5 451.5,-881.5 451.5,-862.5 591.5,-862.5 591.5,-881.5"/>
<text text-anchor="middle" x="521.5" y="-869.5" font-family="Helvetica,sans-Serif" font-size="10.00">Magick::WarningFileOpen</text>
</a>
</g>
</g>
<!-- Node22&#45;&gt;Node30 -->
<g id="edge214_Node000022_Node000030" class="edge">
<title>Node22&#45;&gt;Node30</title>
<g id="a_edge214_Node000022_Node000030"><a xlink:title=" ">
<path fill="none" stroke="#63b8ff" d="M356.31,-813.26C375.43,-825.96 404.41,-843.58 432,-854 440.95,-857.38 450.66,-860.17 460.25,-862.46"/>
<polygon fill="#63b8ff" stroke="#63b8ff" points="358.25,-810.35 348.01,-807.65 354.33,-816.15 358.25,-810.35"/>
</a>
</g>
</g>
<!-- Node31 -->
<g id="Node000031" class="node">
<title>Node31</title>
<g id="a_Node000031"><a xlink:href="classMagick_1_1WarningImage.html" target="_top" xlink:title=" ">
<polygon fill="white" stroke="#666666" points="585.5,-844.5 457.5,-844.5 457.5,-825.5 585.5,-825.5 585.5,-844.5"/>
<text text-anchor="middle" x="521.5" y="-832.5" font-family="Helvetica,sans-Serif" font-size="10.00">Magick::WarningImage</text>
</a>
</g>
</g>
<!-- Node22&#45;&gt;Node31 -->
<g id="edge215_Node000022_Node000031" class="edge">
<title>Node22&#45;&gt;Node31</title>
<g id="a_edge215_Node000022_Node000031"><a xlink:title=" ">
<path fill="none" stroke="#63b8ff" d="M392.39,-809.52C418.1,-814.63 447.99,-820.58 472.44,-825.44"/>
<polygon fill="#63b8ff" stroke="#63b8ff" points="392.89,-806.05 382.4,-807.53 391.52,-812.91 392.89,-806.05"/>
</a>
</g>
</g>
<!-- Node32 -->
<g id="Node000032" class="node">
<title>Node32</title>
<g id="a_Node000032"><a xlink:href="classMagick_1_1WarningMissingDelegate.html" target="_top" xlink:title=" ">
<polygon fill="white" stroke="#666666" points="611,-807.5 432,-807.5 432,-788.5 611,-788.5 611,-807.5"/>
<text text-anchor="middle" x="521.5" y="-795.5" font-family="Helvetica,sans-Serif" font-size="10.00">Magick::WarningMissingDelegate</text>
</a>
</g>
</g>
<!-- Node22&#45;&gt;Node32 -->
<g id="edge216_Node000022_Node000032" class="edge">
<title>Node22&#45;&gt;Node32</title>
<g id="a_edge216_Node000022_Node000032"><a xlink:title=" ">
<path fill="none" stroke="#63b8ff" d="M393.04,-798C405.43,-798 418.77,-798 431.99,-798"/>
<polygon fill="#63b8ff" stroke="#63b8ff" points="392.88,-794.5 382.88,-798 392.88,-801.5 392.88,-794.5"/>
</a>
</g>
</g>
<!-- Node33 -->
<g id="Node000033" class="node">
<title>Node33</title>
<g id="a_Node000033"><a xlink:href="classMagick_1_1WarningModule.html" target="_top" xlink:title=" ">
<polygon fill="white" stroke="#666666" points="588.5,-770.5 454.5,-770.5 454.5,-751.5 588.5,-751.5 588.5,-770.5"/>
<text text-anchor="middle" x="521.5" y="-758.5" font-family="Helvetica,sans-Serif" font-size="10.00">Magick::WarningModule</text>
</a>
</g>
</g>
<!-- Node22&#45;&gt;Node33 -->
<g id="edge217_Node000022_Node000033" class="edge">
<title>Node22&#45;&gt;Node33</title>
<g id="a_edge217_Node000022_Node000033"><a xlink:title=" ">
<path fill="none" stroke="#63b8ff" d="M392.39,-786.48C418.1,-781.37 447.99,-775.42 472.44,-770.56"/>
<polygon fill="#63b8ff" stroke="#63b8ff" points="391.52,-783.09 382.4,-788.47 392.89,-789.95 391.52,-783.09"/>
</a>
</g>
</g>
<!-- Node34 -->
<g id="Node000034" class="node">
<title>Node34</title>
<g id="a_Node000034"><a xlink:href="classMagick_1_1WarningMonitor.html" target="_top" xlink:title=" ">
<polygon fill="white" stroke="#666666" points="589,-733.5 454,-733.5 454,-714.5 589,-714.5 589,-733.5"/>
<text text-anchor="middle" x="521.5" y="-721.5" font-family="Helvetica,sans-Serif" font-size="10.00">Magick::WarningMonitor</text>
</a>
</g>
</g>
<!-- Node22&#45;&gt;Node34 -->
<g id="edge218_Node000022_Node000034" class="edge">
<title>Node22&#45;&gt;Node34</title>
<g id="a_edge218_Node000022_Node000034"><a xlink:title=" ">
<path fill="none" stroke="#63b8ff" d="M356.97,-782.72C376.13,-770.34 404.83,-753.31 432,-743 441.99,-739.21 452.92,-736.09 463.58,-733.56"/>
<polygon fill="#63b8ff" stroke="#63b8ff" points="354.8,-779.96 348.37,-788.38 358.65,-785.8 354.8,-779.96"/>
</a>
</g>
</g>
<!-- Node35 -->
<g id="Node000035" class="node">
<title>Node35</title>
<g id="a_Node000035"><a xlink:href="classMagick_1_1WarningOption.html" target="_top" xlink:title=" ">
<polygon fill="white" stroke="#666666" points="586.5,-696.5 456.5,-696.5 456.5,-677.5 586.5,-677.5 586.5,-696.5"/>
<text text-anchor="middle" x="521.5" y="-684.5" font-family="Helvetica,sans-Serif" font-size="10.00">Magick::WarningOption</text>
</a>
</g>
</g>
<!-- Node22&#45;&gt;Node35 -->
<g id="edge219_Node000022_Node000035" class="edge">
<title>Node22&#45;&gt;Node35</title>
<g id="a_edge219_Node000022_Node000035"><a xlink:title=" ">
<path fill="none" stroke="#63b8ff" d="M347.84,-780.57C364.96,-759.5 396.69,-724.56 432,-706 439.51,-702.05 447.79,-698.92 456.18,-696.45"/>
<polygon fill="#63b8ff" stroke="#63b8ff" points="345.1,-778.4 341.63,-788.42 350.58,-782.75 345.1,-778.4"/>
</a>
</g>
</g>
<!-- Node36 -->
<g id="Node000036" class="node">
<title>Node36</title>
<g id="a_Node000036"><a xlink:href="classMagick_1_1WarningRegistry.html" target="_top" xlink:title=" ">
<polygon fill="white" stroke="#666666" points="590.5,-659.5 452.5,-659.5 452.5,-640.5 590.5,-640.5 590.5,-659.5"/>
<text text-anchor="middle" x="521.5" y="-647.5" font-family="Helvetica,sans-Serif" font-size="10.00">Magick::WarningRegistry</text>
</a>
</g>
</g>
<!-- Node22&#45;&gt;Node36 -->
<g id="edge220_Node000022_Node000036" class="edge">
<title>Node22&#45;&gt;Node36</title>
<g id="a_edge220_Node000022_Node000036"><a xlink:title=" ">
<path fill="none" stroke="#63b8ff" d="M343.29,-779.05C357.62,-750.42 388.78,-696.55 432,-669 438.23,-665.03 445.15,-661.88 452.31,-659.38"/>
<polygon fill="#63b8ff" stroke="#63b8ff" points="339.99,-777.84 338.79,-788.36 346.3,-780.89 339.99,-777.84"/>
</a>
</g>
</g>
<!-- Node37 -->
<g id="Node000037" class="node">
<title>Node37</title>
<g id="a_Node000037"><a xlink:href="classMagick_1_1WarningResourceLimit.html" target="_top" xlink:title=" ">
<polygon fill="white" stroke="#666666" points="605,-622.5 438,-622.5 438,-603.5 605,-603.5 605,-622.5"/>
<text text-anchor="middle" x="521.5" y="-610.5" font-family="Helvetica,sans-Serif" font-size="10.00">Magick::WarningResourceLimit</text>
</a>
</g>
</g>
<!-- Node22&#45;&gt;Node37 -->
<g id="edge221_Node000022_Node000037" class="edge">
<title>Node22&#45;&gt;Node37</title>
<g id="a_edge221_Node000022_Node000037"><a xlink:title=" ">
<path fill="none" stroke="#63b8ff" d="M340.12,-778.68C351.38,-743.56 380.19,-669.43 432,-632 437.35,-628.14 443.33,-625.03 449.58,-622.53"/>
<polygon fill="#63b8ff" stroke="#63b8ff" points="336.77,-777.66 337.18,-788.24 343.46,-779.71 336.77,-777.66"/>
</a>
</g>
</g>
<!-- Node38 -->
<g id="Node000038" class="node">
<title>Node38</title>
<g id="a_Node000038"><a xlink:href="classMagick_1_1WarningStream.html" target="_top" xlink:title=" ">
<polygon fill="white" stroke="#666666" points="588,-585.5 455,-585.5 455,-566.5 588,-566.5 588,-585.5"/>
<text text-anchor="middle" x="521.5" y="-573.5" font-family="Helvetica,sans-Serif" font-size="10.00">Magick::WarningStream</text>
</a>
</g>
</g>
<!-- Node22&#45;&gt;Node38 -->
<g id="edge222_Node000022_Node000038" class="edge">
<title>Node22&#45;&gt;Node38</title>
<g id="a_edge222_Node000022_Node000038"><a xlink:title=" ">
<path fill="none" stroke="#63b8ff" d="M338.02,-778.18C346.39,-737.13 371.52,-642.65 432,-595 438.67,-589.75 446.46,-585.87 454.6,-583.01"/>
<polygon fill="#63b8ff" stroke="#63b8ff" points="334.57,-777.57 336.12,-788.05 341.44,-778.89 334.57,-777.57"/>
</a>
</g>
</g>
<!-- Node39 -->
<g id="Node000039" class="node">
<title>Node39</title>
<g id="a_Node000039"><a xlink:href="classMagick_1_1WarningType.html" target="_top" xlink:title=" ">
<polygon fill="white" stroke="#666666" points="581.5,-548.5 461.5,-548.5 461.5,-529.5 581.5,-529.5 581.5,-548.5"/>
<text text-anchor="middle" x="521.5" y="-536.5" font-family="Helvetica,sans-Serif" font-size="10.00">Magick::WarningType</text>
</a>
</g>
</g>
<!-- Node22&#45;&gt;Node39 -->
<g id="edge223_Node000022_Node000039" class="edge">
<title>Node22&#45;&gt;Node39</title>
<g id="a_edge223_Node000022_Node000039"><a xlink:title=" ">
<path fill="none" stroke="#63b8ff" d="M336.4,-778.19C341.96,-731.94 362.45,-616.37 432,-558 440.31,-551.03 450.56,-546.44 461.12,-543.45"/>
<polygon fill="#63b8ff" stroke="#63b8ff" points="332.9,-778.06 335.29,-788.38 339.86,-778.82 332.9,-778.06"/>
</a>
</g>
</g>
<!-- Node40 -->
<g id="Node000040" class="node">
<title>Node40</title>
<g id="a_Node000040"><a xlink:href="classMagick_1_1WarningUndefined.html" target="_top" xlink:title=" ">
<polygon fill="white" stroke="#666666" points="595,-511.5 448,-511.5 448,-492.5 595,-492.5 595,-511.5"/>
<text text-anchor="middle" x="521.5" y="-499.5" font-family="Helvetica,sans-Serif" font-size="10.00">Magick::WarningUndefined</text>
</a>
</g>
</g>
<!-- Node22&#45;&gt;Node40 -->
<g id="edge224_Node000022_Node000040" class="edge">
<title>Node22&#45;&gt;Node40</title>
<g id="a_edge224_Node000022_Node000040"><a xlink:title=" ">
<path fill="none" stroke="#63b8ff" d="M335.19,-778.31C338.09,-727.38 353.2,-590.38 432,-521 436.72,-516.85 442.12,-513.53 447.88,-510.88"/>
<polygon fill="#63b8ff" stroke="#63b8ff" points="331.69,-778.18 334.72,-788.33 338.68,-778.5 331.69,-778.18"/>
</a>
</g>
</g>
<!-- Node41 -->
<g id="Node000041" class="node">
<title>Node41</title>
<g id="a_Node000041"><a xlink:href="classMagick_1_1WarningXServer.html" target="_top" xlink:title=" ">
<polygon fill="white" stroke="#666666" points="589.5,-474.5 453.5,-474.5 453.5,-455.5 589.5,-455.5 589.5,-474.5"/>
<text text-anchor="middle" x="521.5" y="-462.5" font-family="Helvetica,sans-Serif" font-size="10.00">Magick::WarningXServer</text>
</a>
</g>
</g>
<!-- Node22&#45;&gt;Node41 -->
<g id="edge225_Node000022_Node000041" class="edge">
<title>Node22&#45;&gt;Node41</title>
<g id="a_edge225_Node000022_Node000041"><a xlink:title=" ">
<path fill="none" stroke="#63b8ff" d="M334.25,-778C334.71,-722.33 344.09,-564.36 432,-484 438.15,-478.38 445.54,-474.27 453.41,-471.29"/>
<polygon fill="#63b8ff" stroke="#63b8ff" points="330.75,-778.27 334.26,-788.26 337.75,-778.26 330.75,-778.27"/>
</a>
</g>
</g>
<!-- Node43 -->
<g id="Node000043" class="node">
<title>Node43</title>
<g id="a_Node000043"><a xlink:href="classcxxopts_1_1exceptions_1_1option__has__no__value.html" target="_top" xlink:title=" ">
<polygon fill="white" stroke="#666666" points="396,-330 271,-330 271,-300 396,-300 396,-330"/>
<text text-anchor="start" x="279" y="-318" font-family="Helvetica,sans-Serif" font-size="10.00">cxxopts::exceptions</text>
<text text-anchor="middle" x="333.5" y="-307" font-family="Helvetica,sans-Serif" font-size="10.00">::option_has_no_value</text>
</a>
</g>
</g>
<!-- Node42&#45;&gt;Node43 -->
<g id="edge227_Node000042_Node000043" class="edge">
<title>Node42&#45;&gt;Node43</title>
<g id="a_edge227_Node000042_Node000043"><a xlink:title=" ">
<path fill="none" stroke="#63b8ff" d="M245.11,-301.29C253.68,-302.64 262.43,-304.01 270.92,-305.34"/>
<polygon fill="#63b8ff" stroke="#63b8ff" points="245.59,-297.82 235.17,-299.73 244.51,-304.74 245.59,-297.82"/>
</a>
</g>
</g>
<!-- Node44 -->
<g id="Node000044" class="node">
<title>Node44</title>
<g id="a_Node000044"><a xlink:href="classcxxopts_1_1exceptions_1_1parsing.html" target="_top" xlink:title=" ">
<polygon fill="white" stroke="#666666" points="390,-282 277,-282 277,-252 390,-252 390,-282"/>
<text text-anchor="start" x="285" y="-270" font-family="Helvetica,sans-Serif" font-size="10.00">cxxopts::exceptions</text>
<text text-anchor="middle" x="333.5" y="-259" font-family="Helvetica,sans-Serif" font-size="10.00">::parsing</text>
</a>
</g>
</g>
<!-- Node42&#45;&gt;Node44 -->
<g id="edge228_Node000042_Node000044" class="edge">
<title>Node42&#45;&gt;Node44</title>
<g id="a_edge228_Node000042_Node000044"><a xlink:title=" ">
<path fill="none" stroke="#63b8ff" d="M245.18,-280.7C255.74,-279.04 266.58,-277.34 276.87,-275.73"/>
<polygon fill="#63b8ff" stroke="#63b8ff" points="244.51,-277.26 235.17,-282.27 245.59,-284.18 244.51,-277.26"/>
</a>
</g>
</g>
<!-- Node52 -->
<g id="Node000052" class="node">
<title>Node52</title>
<g id="a_Node000052"><a xlink:href="classcxxopts_1_1exceptions_1_1specification.html" target="_top" xlink:title=" ">
<polygon fill="white" stroke="#666666" points="390,-78 277,-78 277,-48 390,-48 390,-78"/>
<text text-anchor="start" x="285" y="-66" font-family="Helvetica,sans-Serif" font-size="10.00">cxxopts::exceptions</text>
<text text-anchor="middle" x="333.5" y="-55" font-family="Helvetica,sans-Serif" font-size="10.00">::specification</text>
</a>
</g>
</g>
<!-- Node42&#45;&gt;Node52 -->
<g id="edge236_Node000042_Node000052" class="edge">
<title>Node42&#45;&gt;Node52</title>
<g id="a_edge236_Node000042_Node000052"><a xlink:title=" ">
<path fill="none" stroke="#63b8ff" d="M195.36,-267.37C226.77,-220.56 296.13,-117.19 322.27,-78.25"/>
<polygon fill="#63b8ff" stroke="#63b8ff" points="192.44,-265.43 189.78,-275.69 198.25,-269.33 192.44,-265.43"/>
</a>
</g>
</g>
<!-- Node45 -->
<g id="Node000045" class="node">
<title>Node45</title>
<g id="a_Node000045"><a xlink:href="classcxxopts_1_1exceptions_1_1gratuitous__argument__for__option.html" target="_top" xlink:title=" ">
<polygon fill="white" stroke="#666666" points="584,-437.5 459,-437.5 459,-396.5 584,-396.5 584,-437.5"/>
<text text-anchor="start" x="467" y="-425.5" font-family="Helvetica,sans-Serif" font-size="10.00">cxxopts::exceptions</text>
<text text-anchor="start" x="467" y="-414.5" font-family="Helvetica,sans-Serif" font-size="10.00">::gratuitous_argument</text>
<text text-anchor="middle" x="521.5" y="-403.5" font-family="Helvetica,sans-Serif" font-size="10.00">_for_option</text>
</a>
</g>
</g>
<!-- Node44&#45;&gt;Node45 -->
<g id="edge229_Node000044_Node000045" class="edge">
<title>Node44&#45;&gt;Node45</title>
<g id="a_edge229_Node000044_Node000045"><a xlink:title=" ">
<path fill="none" stroke="#63b8ff" d="M392.68,-287.93C393.83,-288.91 394.94,-289.93 396,-291 428.01,-323.43 399.27,-355.3 432,-387 439.57,-394.34 449.01,-399.88 458.87,-404.07"/>
<polygon fill="#63b8ff" stroke="#63b8ff" points="394.66,-285.04 384.49,-282.09 390.6,-290.74 394.66,-285.04"/>
</a>
</g>
</g>
<!-- Node46 -->
<g id="Node000046" class="node">
<title>Node46</title>
<g id="a_Node000046"><a xlink:href="classcxxopts_1_1exceptions_1_1incorrect__argument__type.html" target="_top" xlink:title=" ">
<polygon fill="white" stroke="#666666" points="594,-378 449,-378 449,-348 594,-348 594,-378"/>
<text text-anchor="start" x="457" y="-366" font-family="Helvetica,sans-Serif" font-size="10.00">cxxopts::exceptions</text>
<text text-anchor="middle" x="521.5" y="-355" font-family="Helvetica,sans-Serif" font-size="10.00">::incorrect_argument_type</text>
</a>
</g>
</g>
<!-- Node44&#45;&gt;Node46 -->
<g id="edge230_Node000044_Node000046" class="edge">
<title>Node44&#45;&gt;Node46</title>
<g id="a_edge230_Node000044_Node000046"><a xlink:title=" ">
<path fill="none" stroke="#63b8ff" d="M390.31,-287.07C392.28,-288.31 394.18,-289.62 396,-291 417.23,-307.13 409.93,-324.03 432,-339 437.14,-342.49 442.76,-345.47 448.61,-348.01"/>
<polygon fill="#63b8ff" stroke="#63b8ff" points="391.77,-283.87 381.33,-282.04 388.34,-289.98 391.77,-283.87"/>
</a>
</g>
</g>
<!-- Node47 -->
<g id="Node000047" class="node">
<title>Node47</title>
<g id="a_Node000047"><a xlink:href="classcxxopts_1_1exceptions_1_1invalid__option__syntax.html" target="_top" xlink:title=" ">
<polygon fill="white" stroke="#666666" points="586.5,-330 456.5,-330 456.5,-300 586.5,-300 586.5,-330"/>
<text text-anchor="start" x="464.5" y="-318" font-family="Helvetica,sans-Serif" font-size="10.00">cxxopts::exceptions</text>
<text text-anchor="middle" x="521.5" y="-307" font-family="Helvetica,sans-Serif" font-size="10.00">::invalid_option_syntax</text>
</a>
</g>
</g>
<!-- Node44&#45;&gt;Node47 -->
<g id="edge231_Node000044_Node000047" class="edge">
<title>Node44&#45;&gt;Node47</title>
<g id="a_edge231_Node000044_Node000047"><a xlink:title=" ">
<path fill="none" stroke="#63b8ff" d="M399.87,-283.87C420.22,-289.12 442.5,-294.87 462.33,-299.99"/>
<polygon fill="#63b8ff" stroke="#63b8ff" points="400.61,-280.45 390.05,-281.34 398.86,-287.22 400.61,-280.45"/>
</a>
</g>
</g>
<!-- Node48 -->
<g id="Node000048" class="node">
<title>Node48</title>
<g id="a_Node000048"><a xlink:href="classcxxopts_1_1exceptions_1_1missing__argument.html" target="_top" xlink:title=" ">
<polygon fill="white" stroke="#666666" points="578,-282 465,-282 465,-252 578,-252 578,-282"/>
<text text-anchor="start" x="473" y="-270" font-family="Helvetica,sans-Serif" font-size="10.00">cxxopts::exceptions</text>
<text text-anchor="middle" x="521.5" y="-259" font-family="Helvetica,sans-Serif" font-size="10.00">::missing_argument</text>
</a>
</g>
</g>
<!-- Node44&#45;&gt;Node48 -->
<g id="edge232_Node000044_Node000048" class="edge">
<title>Node44&#45;&gt;Node48</title>
<g id="a_edge232_Node000044_Node000048"><a xlink:title=" ">
<path fill="none" stroke="#63b8ff" d="M400.24,-267C421.38,-267 444.58,-267 464.91,-267"/>
<polygon fill="#63b8ff" stroke="#63b8ff" points="400.05,-263.5 390.05,-267 400.05,-270.5 400.05,-263.5"/>
</a>
</g>
</g>
<!-- Node49 -->
<g id="Node000049" class="node">
<title>Node49</title>
<g id="a_Node000049"><a xlink:href="classcxxopts_1_1exceptions_1_1no__such__option.html" target="_top" xlink:title=" ">
<polygon fill="white" stroke="#666666" points="578,-234 465,-234 465,-204 578,-204 578,-234"/>
<text text-anchor="start" x="473" y="-222" font-family="Helvetica,sans-Serif" font-size="10.00">cxxopts::exceptions</text>
<text text-anchor="middle" x="521.5" y="-211" font-family="Helvetica,sans-Serif" font-size="10.00">::no_such_option</text>
</a>
</g>
</g>
<!-- Node44&#45;&gt;Node49 -->
<g id="edge233_Node000044_Node000049" class="edge">
<title>Node44&#45;&gt;Node49</title>
<g id="a_edge233_Node000044_Node000049"><a xlink:title=" ">
<path fill="none" stroke="#63b8ff" d="M399.96,-250.11C421.17,-244.63 444.48,-238.62 464.91,-233.35"/>
<polygon fill="#63b8ff" stroke="#63b8ff" points="398.86,-246.78 390.05,-252.66 400.61,-253.55 398.86,-246.78"/>
</a>
</g>
</g>
<!-- Node50 -->
<g id="Node000050" class="node">
<title>Node50</title>
<g id="a_Node000050"><a xlink:href="classcxxopts_1_1exceptions_1_1option__requires__argument.html" target="_top" xlink:title=" ">
<polygon fill="white" stroke="#666666" points="597,-186 446,-186 446,-156 597,-156 597,-186"/>
<text text-anchor="start" x="454" y="-174" font-family="Helvetica,sans-Serif" font-size="10.00">cxxopts::exceptions</text>
<text text-anchor="middle" x="521.5" y="-163" font-family="Helvetica,sans-Serif" font-size="10.00">::option_requires_argument</text>
</a>
</g>
</g>
<!-- Node44&#45;&gt;Node50 -->
<g id="edge234_Node000044_Node000050" class="edge">
<title>Node44&#45;&gt;Node50</title>
<g id="a_edge234_Node000044_Node000050"><a xlink:title=" ">
<path fill="none" stroke="#63b8ff" d="M358.6,-245.2C377.38,-229.25 404.77,-208.17 432,-195 439.02,-191.6 446.6,-188.63 454.26,-186.04"/>
<polygon fill="#63b8ff" stroke="#63b8ff" points="356.12,-242.71 350.85,-251.9 360.7,-248.01 356.12,-242.71"/>
</a>
</g>
</g>
<!-- Node51 -->
<g id="Node000051" class="node">
<title>Node51</title>
<g id="a_Node000051"><a xlink:href="classcxxopts_1_1exceptions_1_1requested__option__not__present.html" target="_top" xlink:title=" ">
<polygon fill="white" stroke="#666666" points="585.5,-137.5 457.5,-137.5 457.5,-96.5 585.5,-96.5 585.5,-137.5"/>
<text text-anchor="start" x="465.5" y="-125.5" font-family="Helvetica,sans-Serif" font-size="10.00">cxxopts::exceptions</text>
<text text-anchor="start" x="465.5" y="-114.5" font-family="Helvetica,sans-Serif" font-size="10.00">::requested_option_not</text>
<text text-anchor="middle" x="521.5" y="-103.5" font-family="Helvetica,sans-Serif" font-size="10.00">_present</text>
</a>
</g>
</g>
<!-- Node44&#45;&gt;Node51 -->
<g id="edge235_Node000044_Node000051" class="edge">
<title>Node44&#45;&gt;Node51</title>
<g id="a_edge235_Node000044_Node000051"><a xlink:title=" ">
<path fill="none" stroke="#63b8ff" d="M348.23,-242.99C364.82,-216.01 395.14,-172.64 432,-147 439.73,-141.63 448.49,-137.15 457.43,-133.44"/>
<polygon fill="#63b8ff" stroke="#63b8ff" points="345.09,-241.42 342.95,-251.79 351.1,-245.02 345.09,-241.42"/>
</a>
</g>
</g>
<!-- Node53 -->
<g id="Node000053" class="node">
<title>Node53</title>
<g id="a_Node000053"><a xlink:href="classcxxopts_1_1exceptions_1_1invalid__option__format.html" target="_top" xlink:title=" ">
<polygon fill="white" stroke="#666666" points="586.5,-78 456.5,-78 456.5,-48 586.5,-48 586.5,-78"/>
<text text-anchor="start" x="464.5" y="-66" font-family="Helvetica,sans-Serif" font-size="10.00">cxxopts::exceptions</text>
<text text-anchor="middle" x="521.5" y="-55" font-family="Helvetica,sans-Serif" font-size="10.00">::invalid_option_format</text>
</a>
</g>
</g>
<!-- Node52&#45;&gt;Node53 -->
<g id="edge237_Node000052_Node000053" class="edge">
<title>Node52&#45;&gt;Node53</title>
<g id="a_edge237_Node000052_Node000053"><a xlink:title=" ">
<path fill="none" stroke="#63b8ff" d="M400.29,-63C418.52,-63 438.28,-63 456.41,-63"/>
<polygon fill="#63b8ff" stroke="#63b8ff" points="400.05,-59.5 390.05,-63 400.05,-66.5 400.05,-59.5"/>
</a>
</g>
</g>
<!-- Node54 -->
<g id="Node000054" class="node">
<title>Node54</title>
<g id="a_Node000054"><a xlink:href="classcxxopts_1_1exceptions_1_1option__already__exists.html" target="_top" xlink:title=" ">
<polygon fill="white" stroke="#666666" points="586.5,-30 456.5,-30 456.5,0 586.5,0 586.5,-30"/>
<text text-anchor="start" x="464.5" y="-18" font-family="Helvetica,sans-Serif" font-size="10.00">cxxopts::exceptions</text>
<text text-anchor="middle" x="521.5" y="-7" font-family="Helvetica,sans-Serif" font-size="10.00">::option_already_exists</text>
</a>
</g>
</g>
<!-- Node52&#45;&gt;Node54 -->
<g id="edge238_Node000052_Node000054" class="edge">
<title>Node52&#45;&gt;Node54</title>
<g id="a_edge238_Node000052_Node000054"><a xlink:title=" ">
<path fill="none" stroke="#63b8ff" d="M399.87,-46.13C420.22,-40.88 442.5,-35.13 462.33,-30.01"/>
<polygon fill="#63b8ff" stroke="#63b8ff" points="398.86,-42.78 390.05,-48.66 400.61,-49.55 398.86,-42.78"/>
</a>
</g>
</g>
</g>
</svg>
