<?xml version="1.0" encoding="UTF-8" standalone="no"?>
<!DOCTYPE svg PUBLIC "-//W3C//DTD SVG 1.1//EN"
 "http://www.w3.org/Graphics/SVG/1.1/DTD/svg11.dtd">
<!-- Generated by graphviz version 2.43.0 (0)
 -->
<!-- Title: Graphical Class Hierarchy Pages: 1 -->
<svg width="315pt" height="2101pt"
 viewBox="0.00 0.00 315.00 2101.00" xmlns="http://www.w3.org/2000/svg" xmlns:xlink="http://www.w3.org/1999/xlink">
<g id="graph0" class="graph" transform="scale(1 1) rotate(0) translate(4 2097)">
<title>Graphical Class Hierarchy</title>
<!-- Node0 -->
<g id="Node000000" class="node">
<title>Node0</title>
<g id="a_Node000000"><a xlink:title=" ">
<polygon fill="#e0e0e0" stroke="#999999" points="84,-906 0,-906 0,-887 84,-887 84,-906"/>
<text text-anchor="middle" x="42" y="-894" font-family="Helvetica,sans-Serif" font-size="10.00">std::true_type</text>
</a>
</g>
</g>
<!-- Node1 -->
<g id="Node000001" class="node">
<title>Node1</title>
<g id="a_Node000001"><a xlink:href="structconjunction.html" target="_top" xlink:title=" ">
<polygon fill="white" stroke="#666666" points="264,-2093 163,-2093 163,-2074 264,-2074 264,-2093"/>
<text text-anchor="middle" x="213.5" y="-2081" font-family="Helvetica,sans-Serif" font-size="10.00">conjunction&lt;... &gt;</text>
</a>
</g>
</g>
<!-- Node0&#45;&gt;Node1 -->
<g id="edge276_Node000000_Node000001" class="edge">
<title>Node0&#45;&gt;Node1</title>
<g id="a_edge276_Node000000_Node000001"><a xlink:title=" ">
<path fill="none" stroke="#63b8ff" d="M42.89,-916.27C42.25,-1062.59 41.42,-1974.36 120,-2064.5 130.67,-2076.73 146.92,-2082.35 162.84,-2084.63"/>
<polygon fill="#63b8ff" stroke="#63b8ff" points="46.39,-916.11 42.94,-906.09 39.39,-916.08 46.39,-916.11"/>
</a>
</g>
</g>
<!-- Node2 -->
<g id="Node000002" class="node">
<title>Node2</title>
<g id="a_Node000002"><a xlink:href="structdetail_1_1has__append_3_01OutputIt_00_01InputIt_00_01void__t_3_01decltype_07get__container63d1792777df424daf0ec642040a8751.html" target="_top" xlink:title=" ">
<polygon fill="white" stroke="#666666" points="279.5,-2055.5 147.5,-2055.5 147.5,-1959.5 279.5,-1959.5 279.5,-2055.5"/>
<text text-anchor="start" x="155.5" y="-2043.5" font-family="Helvetica,sans-Serif" font-size="10.00">detail::has_append</text>
<text text-anchor="start" x="155.5" y="-2032.5" font-family="Helvetica,sans-Serif" font-size="10.00">&lt; OutputIt, InputIt,</text>
<text text-anchor="start" x="155.5" y="-2021.5" font-family="Helvetica,sans-Serif" font-size="10.00"> void_t&lt; decltype(get</text>
<text text-anchor="start" x="155.5" y="-2010.5" font-family="Helvetica,sans-Serif" font-size="10.00">_container(std::declval</text>
<text text-anchor="start" x="155.5" y="-1999.5" font-family="Helvetica,sans-Serif" font-size="10.00">&lt; OutputIt &gt;()) .append</text>
<text text-anchor="start" x="155.5" y="-1988.5" font-family="Helvetica,sans-Serif" font-size="10.00">(std::declval&lt; InputIt &gt;</text>
<text text-anchor="start" x="155.5" y="-1977.5" font-family="Helvetica,sans-Serif" font-size="10.00">(), std::declval&lt; InputIt</text>
<text text-anchor="middle" x="213.5" y="-1966.5" font-family="Helvetica,sans-Serif" font-size="10.00"> &gt;()))&gt; &gt;</text>
</a>
</g>
</g>
<!-- Node0&#45;&gt;Node2 -->
<g id="edge277_Node000000_Node000002" class="edge">
<title>Node0&#45;&gt;Node2</title>
<g id="a_edge277_Node000000_Node000002"><a xlink:title=" ">
<path fill="none" stroke="#63b8ff" d="M43.38,-916.6C46.1,-1054.57 64.31,-1858.78 120,-1950.5 126.76,-1961.63 136.59,-1970.89 147.35,-1978.5"/>
<polygon fill="#63b8ff" stroke="#63b8ff" points="46.87,-916.2 43.18,-906.27 39.87,-916.34 46.87,-916.2"/>
</a>
</g>
</g>
<!-- Node3 -->
<g id="Node000003" class="node">
<title>Node3</title>
<g id="a_Node000003"><a xlink:href="structdetail_1_1has__const__begin__end_3_01T_00_01void__t_3_01decltype_07_5detail_1_1range__begi3fdea6fe0a6f04ac399accc34a656190.html" target="_top" xlink:title=" ">
<polygon fill="white" stroke="#666666" points="304,-1941 123,-1941 123,-1856 304,-1856 304,-1941"/>
<text text-anchor="start" x="131" y="-1929" font-family="Helvetica,sans-Serif" font-size="10.00">detail::has_const_begin</text>
<text text-anchor="start" x="131" y="-1918" font-family="Helvetica,sans-Serif" font-size="10.00">_end&lt; T, void_t&lt; decltype</text>
<text text-anchor="start" x="131" y="-1907" font-family="Helvetica,sans-Serif" font-size="10.00">(*detail::range_begin(std</text>
<text text-anchor="start" x="131" y="-1896" font-family="Helvetica,sans-Serif" font-size="10.00">::declval&lt; const remove_cvref</text>
<text text-anchor="start" x="131" y="-1885" font-family="Helvetica,sans-Serif" font-size="10.00">_t&lt; T &gt; &amp; &gt;())), decltype(detail</text>
<text text-anchor="start" x="131" y="-1874" font-family="Helvetica,sans-Serif" font-size="10.00">::range_end(std::declval&lt; const</text>
<text text-anchor="middle" x="213.5" y="-1863" font-family="Helvetica,sans-Serif" font-size="10.00"> remove_cvref_t&lt; T &gt; &amp; &gt;()))&gt; &gt;</text>
</a>
</g>
</g>
<!-- Node0&#45;&gt;Node3 -->
<g id="edge278_Node000000_Node000003" class="edge">
<title>Node0&#45;&gt;Node3</title>
<g id="a_edge278_Node000000_Node000003"><a xlink:title=" ">
<path fill="none" stroke="#63b8ff" d="M43.49,-916.24C46.81,-1045.34 67.63,-1766.48 120,-1847.5 121.89,-1850.43 124.01,-1853.2 126.32,-1855.82"/>
<polygon fill="#63b8ff" stroke="#63b8ff" points="46.98,-916.11 43.23,-906.2 39.99,-916.29 46.98,-916.11"/>
</a>
</g>
</g>
<!-- Node4 -->
<g id="Node000004" class="node">
<title>Node4</title>
<g id="a_Node000004"><a xlink:href="structdetail_1_1has__flip_3_01T_00_01void__t_3_01decltype_07std_1_1declval_3_01T_01_4_07_08_8flip_07_08_08_4_01_4.html" target="_top" xlink:title=" ">
<polygon fill="white" stroke="#666666" points="285,-1838 142,-1838 142,-1797 285,-1797 285,-1838"/>
<text text-anchor="start" x="150" y="-1826" font-family="Helvetica,sans-Serif" font-size="10.00">detail::has_flip&lt; T,</text>
<text text-anchor="start" x="150" y="-1815" font-family="Helvetica,sans-Serif" font-size="10.00"> void_t&lt; decltype(std</text>
<text text-anchor="middle" x="213.5" y="-1804" font-family="Helvetica,sans-Serif" font-size="10.00">::declval&lt; T &gt;().flip())&gt; &gt;</text>
</a>
</g>
</g>
<!-- Node0&#45;&gt;Node4 -->
<g id="edge279_Node000000_Node000004" class="edge">
<title>Node0&#45;&gt;Node4</title>
<g id="a_edge279_Node000000_Node000004"><a xlink:title=" ">
<path fill="none" stroke="#63b8ff" d="M43.42,-916.26C46.22,-1041.06 63.9,-1716.93 120,-1787.5 125.78,-1794.77 133.34,-1800.3 141.66,-1804.5"/>
<polygon fill="#63b8ff" stroke="#63b8ff" points="46.91,-916.14 43.2,-906.22 39.92,-916.29 46.91,-916.14"/>
</a>
</g>
</g>
<!-- Node5 -->
<g id="Node000005" class="node">
<title>Node5</title>
<g id="a_Node000005"><a xlink:href="structdetail_1_1has__format__as_3_01T_00_01void__t_3_01decltype_07format__as_07std_1_1declval_3_16cce26347ba526ba2091c54285ee2ff.html" target="_top" xlink:title=" ">
<polygon fill="white" stroke="#666666" points="283.5,-1778.5 143.5,-1778.5 143.5,-1726.5 283.5,-1726.5 283.5,-1778.5"/>
<text text-anchor="start" x="151.5" y="-1766.5" font-family="Helvetica,sans-Serif" font-size="10.00">detail::has_format</text>
<text text-anchor="start" x="151.5" y="-1755.5" font-family="Helvetica,sans-Serif" font-size="10.00">_as&lt; T, void_t&lt; decltype</text>
<text text-anchor="start" x="151.5" y="-1744.5" font-family="Helvetica,sans-Serif" font-size="10.00">(format_as(std::declval</text>
<text text-anchor="middle" x="213.5" y="-1733.5" font-family="Helvetica,sans-Serif" font-size="10.00">&lt; const T &amp; &gt;()))&gt; &gt;</text>
</a>
</g>
</g>
<!-- Node0&#45;&gt;Node5 -->
<g id="edge280_Node000000_Node000005" class="edge">
<title>Node0&#45;&gt;Node5</title>
<g id="a_edge280_Node000000_Node000005"><a xlink:title=" ">
<path fill="none" stroke="#63b8ff" d="M43.62,-916.49C47.51,-1035.88 69.87,-1651.73 120,-1717.5 126.14,-1725.56 134.36,-1731.76 143.38,-1736.53"/>
<polygon fill="#63b8ff" stroke="#63b8ff" points="47.11,-916.14 43.3,-906.26 40.12,-916.36 47.11,-916.14"/>
</a>
</g>
</g>
<!-- Node6 -->
<g id="Node000006" class="node">
<title>Node6</title>
<g id="a_Node000006"><a xlink:href="structdetail_1_1has__format__as__member_3_01T_00_01void__t_3_01decltype_07formatter_3_01T_01_4_18a052957f4be734d213ff8cfd8253348.html" target="_top" xlink:title=" ">
<polygon fill="white" stroke="#666666" points="294,-1708 133,-1708 133,-1645 294,-1645 294,-1708"/>
<text text-anchor="start" x="141" y="-1696" font-family="Helvetica,sans-Serif" font-size="10.00">detail::has_format</text>
<text text-anchor="start" x="141" y="-1685" font-family="Helvetica,sans-Serif" font-size="10.00">_as_member&lt; T, void</text>
<text text-anchor="start" x="141" y="-1674" font-family="Helvetica,sans-Serif" font-size="10.00">_t&lt; decltype(formatter</text>
<text text-anchor="start" x="141" y="-1663" font-family="Helvetica,sans-Serif" font-size="10.00">&lt; T &gt;::format_as(std::declval</text>
<text text-anchor="middle" x="213.5" y="-1652" font-family="Helvetica,sans-Serif" font-size="10.00">&lt; const T &amp; &gt;()))&gt; &gt;</text>
</a>
</g>
</g>
<!-- Node0&#45;&gt;Node6 -->
<g id="edge281_Node000000_Node000006" class="edge">
<title>Node0&#45;&gt;Node6</title>
<g id="a_edge281_Node000000_Node000006"><a xlink:title=" ">
<path fill="none" stroke="#63b8ff" d="M43.88,-916.16C49.02,-1027.44 76.41,-1575.55 120,-1635.5 123.62,-1640.47 127.97,-1644.85 132.8,-1648.71"/>
<polygon fill="#63b8ff" stroke="#63b8ff" points="47.37,-915.86 43.42,-906.03 40.38,-916.18 47.37,-915.86"/>
</a>
</g>
</g>
<!-- Node7 -->
<g id="Node000007" class="node">
<title>Node7</title>
<g id="a_Node000007"><a xlink:href="structdetail_1_1has__insert_3_01OutputIt_00_01T_00_01void__t_3_01decltype_07get__container_07stdb299ca0128562c4d616cdf34818b4b7f.html" target="_top" xlink:title=" ">
<polygon fill="white" stroke="#666666" points="302.5,-1626.5 124.5,-1626.5 124.5,-1552.5 302.5,-1552.5 302.5,-1626.5"/>
<text text-anchor="start" x="132.5" y="-1614.5" font-family="Helvetica,sans-Serif" font-size="10.00">detail::has_insert</text>
<text text-anchor="start" x="132.5" y="-1603.5" font-family="Helvetica,sans-Serif" font-size="10.00">&lt; OutputIt, T, void</text>
<text text-anchor="start" x="132.5" y="-1592.5" font-family="Helvetica,sans-Serif" font-size="10.00">_t&lt; decltype(get_container</text>
<text text-anchor="start" x="132.5" y="-1581.5" font-family="Helvetica,sans-Serif" font-size="10.00">(std::declval&lt; OutputIt &gt;</text>
<text text-anchor="start" x="132.5" y="-1570.5" font-family="Helvetica,sans-Serif" font-size="10.00">()) .insert({}, std::declval</text>
<text text-anchor="middle" x="213.5" y="-1559.5" font-family="Helvetica,sans-Serif" font-size="10.00">&lt; T &gt;(), std::declval&lt; T &gt;()))&gt; &gt;</text>
</a>
</g>
</g>
<!-- Node0&#45;&gt;Node7 -->
<g id="edge282_Node000000_Node000007" class="edge">
<title>Node0&#45;&gt;Node7</title>
<g id="a_edge282_Node000000_Node000007"><a xlink:title=" ">
<path fill="none" stroke="#63b8ff" d="M42.89,-916.38C42.72,-1013.64 46.27,-1438.87 120,-1543.5 122.17,-1546.58 124.61,-1549.46 127.25,-1552.16"/>
<polygon fill="#63b8ff" stroke="#63b8ff" points="46.39,-916.2 42.93,-906.19 39.39,-916.18 46.39,-916.2"/>
</a>
</g>
</g>
<!-- Node8 -->
<g id="Node000008" class="node">
<title>Node8</title>
<g id="a_Node000008"><a xlink:href="structdetail_1_1has__isfinite_3_01T_00_01enable__if__t_3_01sizeof_07std_1_1isfinite_07T_07_08_08_08_01_9_0a0_01_4_01_4.html" target="_top" xlink:title=" ">
<polygon fill="white" stroke="#666666" points="285,-1534 142,-1534 142,-1493 285,-1493 285,-1534"/>
<text text-anchor="start" x="150" y="-1522" font-family="Helvetica,sans-Serif" font-size="10.00">detail::has_isfinite</text>
<text text-anchor="start" x="150" y="-1511" font-family="Helvetica,sans-Serif" font-size="10.00">&lt; T, enable_if_t&lt; sizeof</text>
<text text-anchor="middle" x="213.5" y="-1500" font-family="Helvetica,sans-Serif" font-size="10.00">(std::isfinite(T())) !=0 &gt; &gt;</text>
</a>
</g>
</g>
<!-- Node0&#45;&gt;Node8 -->
<g id="edge283_Node000000_Node000008" class="edge">
<title>Node0&#45;&gt;Node8</title>
<g id="a_edge283_Node000000_Node000008"><a xlink:title=" ">
<path fill="none" stroke="#63b8ff" d="M42.86,-916.47C42.62,-1008.93 46.1,-1394.65 120,-1483.5 125.94,-1490.64 133.59,-1496.09 141.96,-1500.26"/>
<polygon fill="#63b8ff" stroke="#63b8ff" points="46.36,-916.28 42.91,-906.27 39.36,-916.25 46.36,-916.28"/>
</a>
</g>
</g>
<!-- Node9 -->
<g id="Node000009" class="node">
<title>Node9</title>
<g id="a_Node000009"><a xlink:href="structdetail_1_1has__member__fn__begin__end__t_3_01T_00_01void__t_3_01decltype_07_5std_1_1declva3d7d5769f495ccd114248c30bf219d62.html" target="_top" xlink:title=" ">
<polygon fill="white" stroke="#666666" points="281.5,-1474.5 145.5,-1474.5 145.5,-1400.5 281.5,-1400.5 281.5,-1474.5"/>
<text text-anchor="start" x="153.5" y="-1462.5" font-family="Helvetica,sans-Serif" font-size="10.00">detail::has_member</text>
<text text-anchor="start" x="153.5" y="-1451.5" font-family="Helvetica,sans-Serif" font-size="10.00">_fn_begin_end_t&lt; T,</text>
<text text-anchor="start" x="153.5" y="-1440.5" font-family="Helvetica,sans-Serif" font-size="10.00"> void_t&lt; decltype(*std</text>
<text text-anchor="start" x="153.5" y="-1429.5" font-family="Helvetica,sans-Serif" font-size="10.00">::declval&lt; T &gt;().begin</text>
<text text-anchor="start" x="153.5" y="-1418.5" font-family="Helvetica,sans-Serif" font-size="10.00">()), decltype(std::declval</text>
<text text-anchor="middle" x="213.5" y="-1407.5" font-family="Helvetica,sans-Serif" font-size="10.00">&lt; T &gt;().end())&gt; &gt;</text>
</a>
</g>
</g>
<!-- Node0&#45;&gt;Node9 -->
<g id="edge284_Node000000_Node000009" class="edge">
<title>Node0&#45;&gt;Node9</title>
<g id="a_edge284_Node000000_Node000009"><a xlink:title=" ">
<path fill="none" stroke="#63b8ff" d="M43.69,-916.19C46.94,-998.4 62.97,-1313.58 120,-1391.5 126.67,-1400.62 135.66,-1408.03 145.43,-1414.03"/>
<polygon fill="#63b8ff" stroke="#63b8ff" points="47.19,-916.05 43.32,-906.19 40.2,-916.31 47.19,-916.05"/>
</a>
</g>
</g>
<!-- Node10 -->
<g id="Node000010" class="node">
<title>Node10</title>
<g id="a_Node000010"><a xlink:href="structdetail_1_1has__mutable__begin__end_3_01T_00_01void__t_3_01decltype_07_5detail_1_1range__be7f2bf1942599b08adc3d302a1be62e3f.html" target="_top" xlink:title=" ">
<polygon fill="white" stroke="#666666" points="289,-1382 138,-1382 138,-1297 289,-1297 289,-1382"/>
<text text-anchor="start" x="146" y="-1370" font-family="Helvetica,sans-Serif" font-size="10.00">detail::has_mutable</text>
<text text-anchor="start" x="146" y="-1359" font-family="Helvetica,sans-Serif" font-size="10.00">_begin_end&lt; T, void</text>
<text text-anchor="start" x="146" y="-1348" font-family="Helvetica,sans-Serif" font-size="10.00">_t&lt; decltype(*detail</text>
<text text-anchor="start" x="146" y="-1337" font-family="Helvetica,sans-Serif" font-size="10.00">::range_begin(std::declval</text>
<text text-anchor="start" x="146" y="-1326" font-family="Helvetica,sans-Serif" font-size="10.00">&lt; T &amp; &gt;())), decltype(detail</text>
<text text-anchor="start" x="146" y="-1315" font-family="Helvetica,sans-Serif" font-size="10.00">::range_end(std::declval&lt; T</text>
<text text-anchor="middle" x="213.5" y="-1304" font-family="Helvetica,sans-Serif" font-size="10.00"> &amp; &gt;())), int &gt; &gt;</text>
</a>
</g>
</g>
<!-- Node0&#45;&gt;Node10 -->
<g id="edge285_Node000000_Node000010" class="edge">
<title>Node0&#45;&gt;Node10</title>
<g id="a_edge285_Node000000_Node000010"><a xlink:title=" ">
<path fill="none" stroke="#63b8ff" d="M44.69,-916.4C51.07,-987.44 75.56,-1227.6 120,-1288.5 124.97,-1295.31 131.15,-1301.33 137.93,-1306.6"/>
<polygon fill="#63b8ff" stroke="#63b8ff" points="48.16,-915.82 43.8,-906.17 41.18,-916.43 48.16,-915.82"/>
</a>
</g>
</g>
<!-- Node11 -->
<g id="Node000011" class="node">
<title>Node11</title>
<g id="a_Node000011"><a xlink:href="structdetail_1_1has__tm__gmtoff_3_01T_00_01void__t_3_01decltype_07T_1_1tm__gmtoff_08_4_01_4.html" target="_top" xlink:title=" ">
<polygon fill="white" stroke="#666666" points="275.5,-1279 151.5,-1279 151.5,-1238 275.5,-1238 275.5,-1279"/>
<text text-anchor="start" x="159.5" y="-1267" font-family="Helvetica,sans-Serif" font-size="10.00">detail::has_tm_gmtoff</text>
<text text-anchor="start" x="159.5" y="-1256" font-family="Helvetica,sans-Serif" font-size="10.00">&lt; T, void_t&lt; decltype</text>
<text text-anchor="middle" x="213.5" y="-1245" font-family="Helvetica,sans-Serif" font-size="10.00">(T::tm_gmtoff)&gt; &gt;</text>
</a>
</g>
</g>
<!-- Node0&#45;&gt;Node11 -->
<g id="edge286_Node000000_Node000011" class="edge">
<title>Node0&#45;&gt;Node11</title>
<g id="a_edge286_Node000000_Node000011"><a xlink:title=" ">
<path fill="none" stroke="#63b8ff" d="M44.99,-916.13C51.89,-980.36 76.73,-1182.79 120,-1229.5 128.35,-1238.51 139.46,-1244.74 151.07,-1249.05"/>
<polygon fill="#63b8ff" stroke="#63b8ff" points="48.47,-915.7 43.95,-906.12 41.51,-916.43 48.47,-915.7"/>
</a>
</g>
</g>
<!-- Node12 -->
<g id="Node000012" class="node">
<title>Node12</title>
<g id="a_Node000012"><a xlink:href="structdetail_1_1has__tm__zone_3_01T_00_01void__t_3_01decltype_07T_1_1tm__zone_08_4_01_4.html" target="_top" xlink:title=" ">
<polygon fill="white" stroke="#666666" points="275,-1220 152,-1220 152,-1179 275,-1179 275,-1220"/>
<text text-anchor="start" x="160" y="-1208" font-family="Helvetica,sans-Serif" font-size="10.00">detail::has_tm_zone</text>
<text text-anchor="start" x="160" y="-1197" font-family="Helvetica,sans-Serif" font-size="10.00">&lt; T, void_t&lt; decltype</text>
<text text-anchor="middle" x="213.5" y="-1186" font-family="Helvetica,sans-Serif" font-size="10.00">(T::tm_zone)&gt; &gt;</text>
</a>
</g>
</g>
<!-- Node0&#45;&gt;Node12 -->
<g id="edge287_Node000000_Node000012" class="edge">
<title>Node0&#45;&gt;Node12</title>
<g id="a_edge287_Node000000_Node000012"><a xlink:title=" ">
<path fill="none" stroke="#63b8ff" d="M42.62,-916.32C42.77,-965.97 50.15,-1096.89 120,-1169.5 128.66,-1178.5 140.04,-1184.81 151.85,-1189.22"/>
<polygon fill="#63b8ff" stroke="#63b8ff" points="46.12,-916.04 42.69,-906.02 39.12,-915.99 46.12,-916.04"/>
</a>
</g>
</g>
<!-- Node13 -->
<g id="Node000013" class="node">
<title>Node13</title>
<g id="a_Node000013"><a xlink:href="structdetail_1_1has__to__string__view_3_01T_00_01void__t_3_01decltype_07detail_1_1to__string__via2b2866f7fc9fb7752b163dce36cc145.html" target="_top" xlink:title=" ">
<polygon fill="white" stroke="#666666" points="289.5,-1160.5 137.5,-1160.5 137.5,-1108.5 289.5,-1108.5 289.5,-1160.5"/>
<text text-anchor="start" x="145.5" y="-1148.5" font-family="Helvetica,sans-Serif" font-size="10.00">detail::has_to_string</text>
<text text-anchor="start" x="145.5" y="-1137.5" font-family="Helvetica,sans-Serif" font-size="10.00">_view&lt; T, void_t&lt; decltype</text>
<text text-anchor="start" x="145.5" y="-1126.5" font-family="Helvetica,sans-Serif" font-size="10.00">(detail::to_string_view(std</text>
<text text-anchor="middle" x="213.5" y="-1115.5" font-family="Helvetica,sans-Serif" font-size="10.00">::declval&lt; T &gt;()))&gt; &gt;</text>
</a>
</g>
</g>
<!-- Node0&#45;&gt;Node13 -->
<g id="edge288_Node000000_Node000013" class="edge">
<title>Node0&#45;&gt;Node13</title>
<g id="a_edge288_Node000000_Node000013"><a xlink:title=" ">
<path fill="none" stroke="#63b8ff" d="M45.09,-916.06C50.35,-955.93 67.71,-1047.25 120,-1099.5 125.1,-1104.6 131.02,-1108.96 137.35,-1112.7"/>
<polygon fill="#63b8ff" stroke="#63b8ff" points="48.55,-915.56 43.88,-906.05 41.6,-916.39 48.55,-915.56"/>
</a>
</g>
</g>
<!-- Node14 -->
<g id="Node000014" class="node">
<title>Node14</title>
<g id="a_Node000014"><a xlink:href="structdetail_1_1is__back__insert__iterator_3_01It_00_01bool__constant_3_01std_1_1is__same_3_01de2e5d6fff63151d2f6c9d619c9ef6d40a.html" target="_top" xlink:title=" ">
<polygon fill="white" stroke="#666666" points="307,-1090.5 120,-1090.5 120,-1016.5 307,-1016.5 307,-1090.5"/>
<text text-anchor="start" x="128" y="-1078.5" font-family="Helvetica,sans-Serif" font-size="10.00">detail::is_back_insert</text>
<text text-anchor="start" x="128" y="-1067.5" font-family="Helvetica,sans-Serif" font-size="10.00">_iterator&lt; It, bool_constant</text>
<text text-anchor="start" x="128" y="-1056.5" font-family="Helvetica,sans-Serif" font-size="10.00">&lt; std::is_same&lt; decltype(adl</text>
<text text-anchor="start" x="128" y="-1045.5" font-family="Helvetica,sans-Serif" font-size="10.00">::invoke_back_inserter&lt; typename</text>
<text text-anchor="start" x="128" y="-1034.5" font-family="Helvetica,sans-Serif" font-size="10.00"> It::container_type &gt;()), It &gt;</text>
<text text-anchor="middle" x="213.5" y="-1023.5" font-family="Helvetica,sans-Serif" font-size="10.00">::value &gt; &gt;</text>
</a>
</g>
</g>
<!-- Node0&#45;&gt;Node14 -->
<g id="edge289_Node000000_Node000014" class="edge">
<title>Node0&#45;&gt;Node14</title>
<g id="a_edge289_Node000000_Node000014"><a xlink:title=" ">
<path fill="none" stroke="#63b8ff" d="M52.11,-915.1C64.62,-939.06 89.11,-980.79 120,-1007.5 123.53,-1010.55 127.29,-1013.45 131.21,-1016.21"/>
<polygon fill="#63b8ff" stroke="#63b8ff" points="55.15,-913.35 47.5,-906.02 48.9,-916.52 55.15,-913.35"/>
</a>
</g>
</g>
<!-- Node15 -->
<g id="Node000015" class="node">
<title>Node15</title>
<g id="a_Node000015"><a xlink:href="structdetail_1_1is__back__insert__iterator_3_01basic__appender_3_01T_01_4_01_4.html" target="_top" xlink:title=" ">
<polygon fill="white" stroke="#666666" points="286.5,-998 140.5,-998 140.5,-957 286.5,-957 286.5,-998"/>
<text text-anchor="start" x="148.5" y="-986" font-family="Helvetica,sans-Serif" font-size="10.00">detail::is_back_insert</text>
<text text-anchor="start" x="148.5" y="-975" font-family="Helvetica,sans-Serif" font-size="10.00">_iterator&lt; basic_appender</text>
<text text-anchor="middle" x="213.5" y="-964" font-family="Helvetica,sans-Serif" font-size="10.00">&lt; T &gt; &gt;</text>
</a>
</g>
</g>
<!-- Node0&#45;&gt;Node15 -->
<g id="edge290_Node000000_Node000015" class="edge">
<title>Node0&#45;&gt;Node15</title>
<g id="a_edge290_Node000000_Node000015"><a xlink:title=" ">
<path fill="none" stroke="#63b8ff" d="M62.9,-912.31C77.9,-923.62 99.35,-938.55 120,-948.5 126.52,-951.64 133.46,-954.54 140.49,-957.2"/>
<polygon fill="#63b8ff" stroke="#63b8ff" points="64.93,-909.46 54.87,-906.13 60.66,-915.01 64.93,-909.46"/>
</a>
</g>
</g>
<!-- Node16 -->
<g id="Node000016" class="node">
<title>Node16</title>
<g id="a_Node000016"><a xlink:href="structdetail_1_1is__buffer__appender_3_01It_00_01bool__constant_3_01is__back__insert__iterator_31014ad756ec92630ad9dc2a85ea12ced.html" target="_top" xlink:title=" ">
<polygon fill="white" stroke="#666666" points="303.5,-939 123.5,-939 123.5,-854 303.5,-854 303.5,-939"/>
<text text-anchor="start" x="131.5" y="-927" font-family="Helvetica,sans-Serif" font-size="10.00">detail::is_buffer_appender</text>
<text text-anchor="start" x="131.5" y="-916" font-family="Helvetica,sans-Serif" font-size="10.00">&lt; It, bool_constant&lt; is</text>
<text text-anchor="start" x="131.5" y="-905" font-family="Helvetica,sans-Serif" font-size="10.00">_back_insert_iterator&lt; It</text>
<text text-anchor="start" x="131.5" y="-894" font-family="Helvetica,sans-Serif" font-size="10.00"> &gt;::value &amp;&amp;std::is_base_of</text>
<text text-anchor="start" x="131.5" y="-883" font-family="Helvetica,sans-Serif" font-size="10.00">&lt; buffer&lt; typename It::container</text>
<text text-anchor="start" x="131.5" y="-872" font-family="Helvetica,sans-Serif" font-size="10.00">_type::value_type &gt;, typename It</text>
<text text-anchor="middle" x="213.5" y="-861" font-family="Helvetica,sans-Serif" font-size="10.00">::container_type &gt;::value &gt; &gt;</text>
</a>
</g>
</g>
<!-- Node0&#45;&gt;Node16 -->
<g id="edge291_Node000000_Node000016" class="edge">
<title>Node0&#45;&gt;Node16</title>
<g id="a_edge291_Node000000_Node000016"><a xlink:title=" ">
<path fill="none" stroke="#63b8ff" d="M94.17,-896.5C103.41,-896.5 113.28,-896.5 123.24,-896.5"/>
<polygon fill="#63b8ff" stroke="#63b8ff" points="94.03,-893 84.03,-896.5 94.03,-900 94.03,-893"/>
</a>
</g>
</g>
<!-- Node17 -->
<g id="Node000017" class="node">
<title>Node17</title>
<g id="a_Node000017"><a xlink:href="structdetail_1_1is__code__unit_3_01char_01_4.html" target="_top" xlink:title=" ">
<polygon fill="white" stroke="#666666" points="269,-835.5 158,-835.5 158,-805.5 269,-805.5 269,-835.5"/>
<text text-anchor="start" x="166" y="-823.5" font-family="Helvetica,sans-Serif" font-size="10.00">detail::is_code_unit</text>
<text text-anchor="middle" x="213.5" y="-812.5" font-family="Helvetica,sans-Serif" font-size="10.00">&lt; char &gt;</text>
</a>
</g>
</g>
<!-- Node0&#45;&gt;Node17 -->
<g id="edge292_Node000000_Node000017" class="edge">
<title>Node0&#45;&gt;Node17</title>
<g id="a_edge292_Node000000_Node000017"><a xlink:title=" ">
<path fill="none" stroke="#63b8ff" d="M62.83,-880.77C77.8,-869.57 99.24,-854.88 120,-845.5 131.82,-840.16 145.03,-835.75 157.68,-832.2"/>
<polygon fill="#63b8ff" stroke="#63b8ff" points="60.64,-878.04 54.82,-886.9 64.89,-883.6 60.64,-878.04"/>
</a>
</g>
</g>
<!-- Node18 -->
<g id="Node000018" class="node">
<title>Node18</title>
<g id="a_Node000018"><a xlink:href="structdetail_1_1is__code__unit_3_01char16__t_01_4.html" target="_top" xlink:title=" ">
<polygon fill="white" stroke="#666666" points="269,-787.5 158,-787.5 158,-757.5 269,-757.5 269,-787.5"/>
<text text-anchor="start" x="166" y="-775.5" font-family="Helvetica,sans-Serif" font-size="10.00">detail::is_code_unit</text>
<text text-anchor="middle" x="213.5" y="-764.5" font-family="Helvetica,sans-Serif" font-size="10.00">&lt; char16_t &gt;</text>
</a>
</g>
</g>
<!-- Node0&#45;&gt;Node18 -->
<g id="edge293_Node000000_Node000018" class="edge">
<title>Node0&#45;&gt;Node18</title>
<g id="a_edge293_Node000000_Node000018"><a xlink:title=" ">
<path fill="none" stroke="#63b8ff" d="M52.36,-877.82C64.72,-855.11 88.64,-817.24 120,-796.5 131.21,-789.09 144.59,-783.96 157.64,-780.42"/>
<polygon fill="#63b8ff" stroke="#63b8ff" points="49.19,-876.33 47.65,-886.81 55.39,-879.58 49.19,-876.33"/>
</a>
</g>
</g>
<!-- Node19 -->
<g id="Node000019" class="node">
<title>Node19</title>
<g id="a_Node000019"><a xlink:href="structdetail_1_1is__code__unit_3_01char32__t_01_4.html" target="_top" xlink:title=" ">
<polygon fill="white" stroke="#666666" points="269,-739.5 158,-739.5 158,-709.5 269,-709.5 269,-739.5"/>
<text text-anchor="start" x="166" y="-727.5" font-family="Helvetica,sans-Serif" font-size="10.00">detail::is_code_unit</text>
<text text-anchor="middle" x="213.5" y="-716.5" font-family="Helvetica,sans-Serif" font-size="10.00">&lt; char32_t &gt;</text>
</a>
</g>
</g>
<!-- Node0&#45;&gt;Node19 -->
<g id="edge294_Node000000_Node000019" class="edge">
<title>Node0&#45;&gt;Node19</title>
<g id="a_edge294_Node000000_Node000019"><a xlink:title=" ">
<path fill="none" stroke="#63b8ff" d="M47.66,-876.91C56.29,-845.02 77.84,-782.07 120,-748.5 130.77,-739.92 144.28,-734.38 157.62,-730.82"/>
<polygon fill="#63b8ff" stroke="#63b8ff" points="44.22,-876.24 45.14,-886.8 51,-877.98 44.22,-876.24"/>
</a>
</g>
</g>
<!-- Node20 -->
<g id="Node000020" class="node">
<title>Node20</title>
<g id="a_Node000020"><a xlink:href="structdetail_1_1is__code__unit_3_01wchar__t_01_4.html" target="_top" xlink:title=" ">
<polygon fill="white" stroke="#666666" points="269,-691.5 158,-691.5 158,-661.5 269,-661.5 269,-691.5"/>
<text text-anchor="start" x="166" y="-679.5" font-family="Helvetica,sans-Serif" font-size="10.00">detail::is_code_unit</text>
<text text-anchor="middle" x="213.5" y="-668.5" font-family="Helvetica,sans-Serif" font-size="10.00">&lt; wchar_t &gt;</text>
</a>
</g>
</g>
<!-- Node0&#45;&gt;Node20 -->
<g id="edge295_Node000000_Node000020" class="edge">
<title>Node0&#45;&gt;Node20</title>
<g id="a_edge295_Node000000_Node000020"><a xlink:title=" ">
<path fill="none" stroke="#63b8ff" d="M44.93,-876.59C49.86,-836.93 66.59,-747.83 120,-700.5 130.55,-691.15 144.3,-685.36 157.95,-681.8"/>
<polygon fill="#63b8ff" stroke="#63b8ff" points="41.44,-876.27 43.81,-886.59 48.4,-877.05 41.44,-876.27"/>
</a>
</g>
</g>
<!-- Node21 -->
<g id="Node000021" class="node">
<title>Node21</title>
<g id="a_Node000021"><a xlink:href="structdetail_1_1is__floating__point_3_01float128_01_4.html" target="_top" xlink:title=" ">
<polygon fill="white" stroke="#666666" points="268,-643.5 159,-643.5 159,-613.5 268,-613.5 268,-643.5"/>
<text text-anchor="start" x="167" y="-631.5" font-family="Helvetica,sans-Serif" font-size="10.00">detail::is_floating</text>
<text text-anchor="middle" x="213.5" y="-620.5" font-family="Helvetica,sans-Serif" font-size="10.00">_point&lt; float128 &gt;</text>
</a>
</g>
</g>
<!-- Node0&#45;&gt;Node21 -->
<g id="edge296_Node000000_Node000021" class="edge">
<title>Node0&#45;&gt;Node21</title>
<g id="a_edge296_Node000000_Node000021"><a xlink:title=" ">
<path fill="none" stroke="#63b8ff" d="M43.15,-876.68C44.62,-830.36 54.96,-714.25 120,-652.5 130.59,-642.45 144.83,-636.47 158.96,-632.95"/>
<polygon fill="#63b8ff" stroke="#63b8ff" points="39.65,-876.81 42.94,-886.88 46.64,-876.95 39.65,-876.81"/>
</a>
</g>
</g>
<!-- Node22 -->
<g id="Node000022" class="node">
<title>Node22</title>
<g id="a_Node000022"><a xlink:href="structdetail_1_1is__integral_3_01native__int128_01_4.html" target="_top" xlink:title=" ">
<polygon fill="white" stroke="#666666" points="266.5,-595.5 160.5,-595.5 160.5,-565.5 266.5,-565.5 266.5,-595.5"/>
<text text-anchor="start" x="168.5" y="-583.5" font-family="Helvetica,sans-Serif" font-size="10.00">detail::is_integral</text>
<text text-anchor="middle" x="213.5" y="-572.5" font-family="Helvetica,sans-Serif" font-size="10.00">&lt; native_int128 &gt;</text>
</a>
</g>
</g>
<!-- Node0&#45;&gt;Node22 -->
<g id="edge297_Node000000_Node000022" class="edge">
<title>Node0&#45;&gt;Node22</title>
<g id="a_edge297_Node000000_Node000022"><a xlink:title=" ">
<path fill="none" stroke="#63b8ff" d="M45.62,-876.57C53.81,-817.26 80.74,-643.61 120,-604.5 130.7,-593.85 145.48,-587.73 160.09,-584.28"/>
<polygon fill="#63b8ff" stroke="#63b8ff" points="42.1,-876.45 44.24,-886.83 49.04,-877.39 42.1,-876.45"/>
</a>
</g>
</g>
<!-- Node23 -->
<g id="Node000023" class="node">
<title>Node23</title>
<g id="a_Node000023"><a xlink:href="structdetail_1_1is__integral_3_01uint128__t_01_4.html" target="_top" xlink:title=" ">
<polygon fill="white" stroke="#666666" points="264,-547.5 163,-547.5 163,-517.5 264,-517.5 264,-547.5"/>
<text text-anchor="start" x="171" y="-535.5" font-family="Helvetica,sans-Serif" font-size="10.00">detail::is_integral</text>
<text text-anchor="middle" x="213.5" y="-524.5" font-family="Helvetica,sans-Serif" font-size="10.00">&lt; uint128_t &gt;</text>
</a>
</g>
</g>
<!-- Node0&#45;&gt;Node23 -->
<g id="edge298_Node000000_Node000023" class="edge">
<title>Node0&#45;&gt;Node23</title>
<g id="a_edge298_Node000000_Node000023"><a xlink:title=" ">
<path fill="none" stroke="#63b8ff" d="M44.8,-876.8C51.17,-811.44 74.7,-603.24 120,-556.5 131.2,-544.94 147.19,-538.7 162.74,-535.4"/>
<polygon fill="#63b8ff" stroke="#63b8ff" points="41.3,-876.68 43.84,-886.97 48.27,-877.34 41.3,-876.68"/>
</a>
</g>
</g>
<!-- Node24 -->
<g id="Node000024" class="node">
<title>Node24</title>
<g id="a_Node000024"><a xlink:href="structdetail_1_1is__named__arg_3_01named__arg_3_01T_00_01Char_01_4_01_4.html" target="_top" xlink:title=" ">
<polygon fill="white" stroke="#666666" points="289,-499.5 138,-499.5 138,-469.5 289,-469.5 289,-499.5"/>
<text text-anchor="start" x="146" y="-487.5" font-family="Helvetica,sans-Serif" font-size="10.00">detail::is_named_arg</text>
<text text-anchor="middle" x="213.5" y="-476.5" font-family="Helvetica,sans-Serif" font-size="10.00">&lt; named_arg&lt; T, Char &gt; &gt;</text>
</a>
</g>
</g>
<!-- Node0&#45;&gt;Node24 -->
<g id="edge299_Node000000_Node000024" class="edge">
<title>Node0&#45;&gt;Node24</title>
<g id="a_edge299_Node000000_Node000024"><a xlink:title=" ">
<path fill="none" stroke="#63b8ff" d="M44.23,-876.4C49.02,-804.68 68.77,-562.79 120,-508.5 125.01,-503.19 131.03,-499 137.57,-495.69"/>
<polygon fill="#63b8ff" stroke="#63b8ff" points="40.71,-876.53 43.57,-886.73 47.7,-876.98 40.71,-876.53"/>
</a>
</g>
</g>
<!-- Node25 -->
<g id="Node000025" class="node">
<title>Node25</title>
<g id="a_Node000025"><a xlink:href="structdetail_1_1is__output__iterator_3_01It_00_01T_00_01enable__if__t_3_01std_1_1is__assignable_5c8307534b0459aed9468469f4222b36.html" target="_top" xlink:title=" ">
<polygon fill="white" stroke="#666666" points="291.5,-451 135.5,-451 135.5,-388 291.5,-388 291.5,-451"/>
<text text-anchor="start" x="143.5" y="-439" font-family="Helvetica,sans-Serif" font-size="10.00">detail::is_output_iterator</text>
<text text-anchor="start" x="143.5" y="-428" font-family="Helvetica,sans-Serif" font-size="10.00">&lt; It, T, enable_if_t&lt; std</text>
<text text-anchor="start" x="143.5" y="-417" font-family="Helvetica,sans-Serif" font-size="10.00">::is_assignable&lt; decltype</text>
<text text-anchor="start" x="143.5" y="-406" font-family="Helvetica,sans-Serif" font-size="10.00">(*std::declval&lt; decay_t&lt; It</text>
<text text-anchor="middle" x="213.5" y="-395" font-family="Helvetica,sans-Serif" font-size="10.00"> &gt; &amp; &gt;()++), T &gt;::value &gt; &gt;</text>
</a>
</g>
</g>
<!-- Node0&#45;&gt;Node25 -->
<g id="edge300_Node000000_Node000025" class="edge">
<title>Node0&#45;&gt;Node25</title>
<g id="a_edge300_Node000000_Node000025"><a xlink:title=" ">
<path fill="none" stroke="#63b8ff" d="M44.06,-876.72C48.52,-800.53 67.95,-526.99 120,-460.5 124.33,-454.97 129.57,-450.16 135.32,-445.99"/>
<polygon fill="#63b8ff" stroke="#63b8ff" points="40.56,-876.66 43.49,-886.84 47.55,-877.05 40.56,-876.66"/>
</a>
</g>
</g>
<!-- Node26 -->
<g id="Node000026" class="node">
<title>Node26</title>
<g id="a_Node000026"><a xlink:href="structdetail_1_1is__output__iterator_3_01appender_00_01char_01_4.html" target="_top" xlink:title=" ">
<polygon fill="white" stroke="#666666" points="282,-369.5 145,-369.5 145,-339.5 282,-339.5 282,-369.5"/>
<text text-anchor="start" x="153" y="-357.5" font-family="Helvetica,sans-Serif" font-size="10.00">detail::is_output_iterator</text>
<text text-anchor="middle" x="213.5" y="-346.5" font-family="Helvetica,sans-Serif" font-size="10.00">&lt; appender, char &gt;</text>
</a>
</g>
</g>
<!-- Node0&#45;&gt;Node26 -->
<g id="edge301_Node000000_Node000026" class="edge">
<title>Node0&#45;&gt;Node26</title>
<g id="a_edge301_Node000000_Node000026"><a xlink:title=" ">
<path fill="none" stroke="#63b8ff" d="M43.16,-876.43C44.25,-790.57 52.8,-455 120,-379.5 126.75,-371.92 135.53,-366.53 145,-362.72"/>
<polygon fill="#63b8ff" stroke="#63b8ff" points="39.66,-876.61 43.05,-886.64 46.66,-876.68 39.66,-876.61"/>
</a>
</g>
</g>
<!-- Node27 -->
<g id="Node000027" class="node">
<title>Node27</title>
<g id="a_Node000027"><a xlink:href="structdetail_1_1is__reference__wrapper_3_01std_1_1reference__wrapper_3_01T_01_4_01_4.html" target="_top" xlink:title=" ">
<polygon fill="white" stroke="#666666" points="283.5,-321 143.5,-321 143.5,-280 283.5,-280 283.5,-321"/>
<text text-anchor="start" x="151.5" y="-309" font-family="Helvetica,sans-Serif" font-size="10.00">detail::is_reference</text>
<text text-anchor="start" x="151.5" y="-298" font-family="Helvetica,sans-Serif" font-size="10.00">_wrapper&lt; std::reference</text>
<text text-anchor="middle" x="213.5" y="-287" font-family="Helvetica,sans-Serif" font-size="10.00">_wrapper&lt; T &gt; &gt;</text>
</a>
</g>
</g>
<!-- Node0&#45;&gt;Node27 -->
<g id="edge302_Node000000_Node000027" class="edge">
<title>Node0&#45;&gt;Node27</title>
<g id="a_edge302_Node000000_Node000027"><a xlink:title=" ">
<path fill="none" stroke="#63b8ff" d="M42.97,-876.39C43.23,-785.72 48.72,-415.79 120,-330.5 126.28,-322.99 134.46,-317.34 143.36,-313.09"/>
<polygon fill="#63b8ff" stroke="#63b8ff" points="39.47,-876.65 42.96,-886.65 46.47,-876.65 39.47,-876.65"/>
</a>
</g>
</g>
<!-- Node28 -->
<g id="Node000028" class="node">
<title>Node28</title>
<g id="a_Node000028"><a xlink:href="structdetail_1_1use__format__as_3_01T_00_01bool__constant_3_01std_1_1is__arithmetic_3_01format__439c79fefc40144049092c6814d868bd.html" target="_top" xlink:title=" ">
<polygon fill="white" stroke="#666666" points="279,-262 148,-262 148,-199 279,-199 279,-262"/>
<text text-anchor="start" x="156" y="-250" font-family="Helvetica,sans-Serif" font-size="10.00">detail::use_format</text>
<text text-anchor="start" x="156" y="-239" font-family="Helvetica,sans-Serif" font-size="10.00">_as&lt; T, bool_constant</text>
<text text-anchor="start" x="156" y="-228" font-family="Helvetica,sans-Serif" font-size="10.00">&lt; std::is_arithmetic&lt;</text>
<text text-anchor="start" x="156" y="-217" font-family="Helvetica,sans-Serif" font-size="10.00"> format_as_result&lt; T &gt;</text>
<text text-anchor="middle" x="213.5" y="-206" font-family="Helvetica,sans-Serif" font-size="10.00"> &gt;::value &gt; &gt;</text>
</a>
</g>
</g>
<!-- Node0&#45;&gt;Node28 -->
<g id="edge303_Node000000_Node000028" class="edge">
<title>Node0&#45;&gt;Node28</title>
<g id="a_edge303_Node000000_Node000028"><a xlink:title=" ">
<path fill="none" stroke="#63b8ff" d="M42.89,-876.62C42.75,-781.2 46.47,-370.65 120,-271.5 127.11,-261.91 136.98,-254.52 147.62,-248.84"/>
<polygon fill="#63b8ff" stroke="#63b8ff" points="39.39,-876.67 42.92,-886.66 46.39,-876.64 39.39,-876.67"/>
</a>
</g>
</g>
<!-- Node29 -->
<g id="Node000029" class="node">
<title>Node29</title>
<g id="a_Node000029"><a xlink:href="structdetail_1_1use__format__as__member_3_01T_00_01bool__constant_3_01std_1_1is__arithmetic_3_01d9c483d23c56ebeb3084e53206817470.html" target="_top" xlink:title=" ">
<polygon fill="white" stroke="#666666" points="293.5,-181 133.5,-181 133.5,-118 293.5,-118 293.5,-181"/>
<text text-anchor="start" x="141.5" y="-169" font-family="Helvetica,sans-Serif" font-size="10.00">detail::use_format</text>
<text text-anchor="start" x="141.5" y="-158" font-family="Helvetica,sans-Serif" font-size="10.00">_as_member&lt; T, bool</text>
<text text-anchor="start" x="141.5" y="-147" font-family="Helvetica,sans-Serif" font-size="10.00">_constant&lt; std::is_arithmetic</text>
<text text-anchor="start" x="141.5" y="-136" font-family="Helvetica,sans-Serif" font-size="10.00">&lt; format_as_member_result</text>
<text text-anchor="middle" x="213.5" y="-125" font-family="Helvetica,sans-Serif" font-size="10.00">&lt; T &gt; &gt;::value &gt; &gt;</text>
</a>
</g>
</g>
<!-- Node0&#45;&gt;Node29 -->
<g id="edge304_Node000000_Node000029" class="edge">
<title>Node0&#45;&gt;Node29</title>
<g id="a_edge304_Node000000_Node000029"><a xlink:title=" ">
<path fill="none" stroke="#63b8ff" d="M43.99,-876.71C49.56,-768.14 78.32,-247.53 120,-190.5 123.73,-185.39 128.24,-180.91 133.24,-176.98"/>
<polygon fill="#63b8ff" stroke="#63b8ff" points="40.48,-876.73 43.47,-886.9 47.47,-877.09 40.48,-876.73"/>
</a>
</g>
</g>
<!-- Node30 -->
<g id="Node000030" class="node">
<title>Node30</title>
<g id="a_Node000030"><a xlink:href="structis__contiguous_3_01basic__memory__buffer_3_01T_00_01SIZE_00_01Allocator_01_4_01_4.html" target="_top" xlink:title=" ">
<polygon fill="white" stroke="#666666" points="286,-100 141,-100 141,-59 286,-59 286,-100"/>
<text text-anchor="start" x="149" y="-88" font-family="Helvetica,sans-Serif" font-size="10.00">is_contiguous&lt; basic</text>
<text text-anchor="start" x="149" y="-77" font-family="Helvetica,sans-Serif" font-size="10.00">_memory_buffer&lt; T, SIZE,</text>
<text text-anchor="middle" x="213.5" y="-66" font-family="Helvetica,sans-Serif" font-size="10.00"> Allocator &gt; &gt;</text>
</a>
</g>
</g>
<!-- Node0&#45;&gt;Node30 -->
<g id="edge305_Node000000_Node000030" class="edge">
<title>Node0&#45;&gt;Node30</title>
<g id="a_edge305_Node000000_Node000030"><a xlink:title=" ">
<path fill="none" stroke="#63b8ff" d="M43.66,-876.59C47.68,-760.22 70.4,-171.17 120,-109.5 125.61,-102.53 132.86,-97.16 140.83,-93.02"/>
<polygon fill="#63b8ff" stroke="#63b8ff" points="40.15,-876.75 43.31,-886.86 47.15,-876.99 40.15,-876.75"/>
</a>
</g>
</g>
<!-- Node31 -->
<g id="Node000031" class="node">
<title>Node31</title>
<g id="a_Node000031"><a xlink:href="structis__contiguous_3_01std_1_1basic__string_3_01Char_00_01Traits_00_01Allocator_01_4_01_4.html" target="_top" xlink:title=" ">
<polygon fill="white" stroke="#666666" points="272.5,-41 154.5,-41 154.5,0 272.5,0 272.5,-41"/>
<text text-anchor="start" x="162.5" y="-29" font-family="Helvetica,sans-Serif" font-size="10.00">is_contiguous&lt; std</text>
<text text-anchor="start" x="162.5" y="-18" font-family="Helvetica,sans-Serif" font-size="10.00">::basic_string&lt; Char,</text>
<text text-anchor="middle" x="213.5" y="-7" font-family="Helvetica,sans-Serif" font-size="10.00"> Traits, Allocator &gt; &gt;</text>
</a>
</g>
</g>
<!-- Node0&#45;&gt;Node31 -->
<g id="edge306_Node000000_Node000031" class="edge">
<title>Node0&#45;&gt;Node31</title>
<g id="a_edge306_Node000000_Node000031"><a xlink:title=" ">
<path fill="none" stroke="#63b8ff" d="M43.52,-876.63C46.83,-755.3 66.72,-117.2 120,-50.5 128.64,-39.68 141.24,-32.72 154.37,-28.25"/>
<polygon fill="#63b8ff" stroke="#63b8ff" points="40.01,-876.9 43.24,-886.99 47,-877.09 40.01,-876.9"/>
</a>
</g>
</g>
</g>
</svg>
