<?xml version="1.0" encoding="UTF-8" standalone="no"?>
<!DOCTYPE svg PUBLIC "-//W3C//DTD SVG 1.1//EN"
 "http://www.w3.org/Graphics/SVG/1.1/DTD/svg11.dtd">
<!-- Generated by graphviz version 2.43.0 (0)
 -->
<!-- Title: Graphical Class Hierarchy Pages: 1 -->
<svg width="591pt" height="86pt"
 viewBox="0.00 0.00 591.00 86.00" xmlns="http://www.w3.org/2000/svg" xmlns:xlink="http://www.w3.org/1999/xlink">
<g id="graph0" class="graph" transform="scale(1 1) rotate(0) translate(4 82)">
<title>Graphical Class Hierarchy</title>
<!-- Node0 -->
<g id="Node000000" class="node">
<title>Node0</title>
<g id="a_Node000000"><a xlink:title=" ">
<polygon fill="#e0e0e0" stroke="#999999" points="109,-54 0,-54 0,-24 109,-24 109,-54"/>
<text text-anchor="start" x="8" y="-42" font-family="Helvetica,sans-Serif" font-size="10.00">std::enable_shared</text>
<text text-anchor="middle" x="54.5" y="-31" font-family="Helvetica,sans-Serif" font-size="10.00">_from_this</text>
</a>
</g>
</g>
<!-- Node1 -->
<g id="Node000001" class="node">
<title>Node1</title>
<g id="a_Node000001"><a xlink:href="classcxxopts_1_1Value.html" target="_top" xlink:title=" ">
<polygon fill="white" stroke="#666666" points="232,-48.5 145,-48.5 145,-29.5 232,-29.5 232,-48.5"/>
<text text-anchor="middle" x="188.5" y="-36.5" font-family="Helvetica,sans-Serif" font-size="10.00">cxxopts::Value</text>
</a>
</g>
</g>
<!-- Node0&#45;&gt;Node1 -->
<g id="edge180_Node000000_Node000001" class="edge">
<title>Node0&#45;&gt;Node1</title>
<g id="a_edge180_Node000000_Node000001"><a xlink:title=" ">
<path fill="none" stroke="#63b8ff" d="M119.28,-39C127.93,-39 136.63,-39 144.78,-39"/>
<polygon fill="#63b8ff" stroke="#63b8ff" points="119.19,-35.5 109.19,-39 119.19,-42.5 119.19,-35.5"/>
</a>
</g>
</g>
<!-- Node2 -->
<g id="Node000002" class="node">
<title>Node2</title>
<g id="a_Node000002"><a xlink:href="classcxxopts_1_1values_1_1abstract__value.html" target="_top" xlink:title=" ">
<polygon fill="white" stroke="#666666" points="406,-78 268,-78 268,-48 406,-48 406,-78"/>
<text text-anchor="start" x="276" y="-66" font-family="Helvetica,sans-Serif" font-size="10.00">cxxopts::values::abstract</text>
<text text-anchor="middle" x="337" y="-55" font-family="Helvetica,sans-Serif" font-size="10.00">_value&lt; bool &gt;</text>
</a>
</g>
</g>
<!-- Node1&#45;&gt;Node2 -->
<g id="edge181_Node000001_Node000002" class="edge">
<title>Node1&#45;&gt;Node2</title>
<g id="a_edge181_Node000001_Node000002"><a xlink:title=" ">
<path fill="none" stroke="#63b8ff" d="M242.19,-47.63C250.51,-48.99 259.21,-50.42 267.82,-51.83"/>
<polygon fill="#63b8ff" stroke="#63b8ff" points="242.7,-44.17 232.27,-46.01 241.57,-51.08 242.7,-44.17"/>
</a>
</g>
</g>
<!-- Node4 -->
<g id="Node000004" class="node">
<title>Node4</title>
<g id="a_Node000004"><a xlink:href="classcxxopts_1_1values_1_1abstract__value.html" target="_top" xlink:title=" ">
<polygon fill="white" stroke="#666666" points="406,-30 268,-30 268,0 406,0 406,-30"/>
<text text-anchor="start" x="276" y="-18" font-family="Helvetica,sans-Serif" font-size="10.00">cxxopts::values::abstract</text>
<text text-anchor="middle" x="337" y="-7" font-family="Helvetica,sans-Serif" font-size="10.00">_value&lt; T &gt;</text>
</a>
</g>
</g>
<!-- Node1&#45;&gt;Node4 -->
<g id="edge183_Node000001_Node000004" class="edge">
<title>Node1&#45;&gt;Node4</title>
<g id="a_edge183_Node000001_Node000004"><a xlink:title=" ">
<path fill="none" stroke="#63b8ff" d="M242.19,-30.37C250.51,-29.01 259.21,-27.58 267.82,-26.17"/>
<polygon fill="#63b8ff" stroke="#63b8ff" points="241.57,-26.92 232.27,-31.99 242.7,-33.83 241.57,-26.92"/>
</a>
</g>
</g>
<!-- Node3 -->
<g id="Node000003" class="node">
<title>Node3</title>
<g id="a_Node000003"><a xlink:href="classcxxopts_1_1values_1_1standard__value_3_01bool_01_4.html" target="_top" xlink:title=" ">
<polygon fill="white" stroke="#666666" points="583,-78 442,-78 442,-48 583,-48 583,-78"/>
<text text-anchor="start" x="450" y="-66" font-family="Helvetica,sans-Serif" font-size="10.00">cxxopts::values::standard</text>
<text text-anchor="middle" x="512.5" y="-55" font-family="Helvetica,sans-Serif" font-size="10.00">_value&lt; bool &gt;</text>
</a>
</g>
</g>
<!-- Node2&#45;&gt;Node3 -->
<g id="edge182_Node000002_Node000003" class="edge">
<title>Node2&#45;&gt;Node3</title>
<g id="a_edge182_Node000002_Node000003"><a xlink:title=" ">
<path fill="none" stroke="#63b8ff" d="M416.1,-63C424.7,-63 433.42,-63 441.91,-63"/>
<polygon fill="#63b8ff" stroke="#63b8ff" points="416.07,-59.5 406.07,-63 416.07,-66.5 416.07,-59.5"/>
</a>
</g>
</g>
<!-- Node5 -->
<g id="Node000005" class="node">
<title>Node5</title>
<g id="a_Node000005"><a xlink:href="classcxxopts_1_1values_1_1standard__value.html" target="_top" xlink:title=" ">
<polygon fill="white" stroke="#666666" points="583,-30 442,-30 442,0 583,0 583,-30"/>
<text text-anchor="start" x="450" y="-18" font-family="Helvetica,sans-Serif" font-size="10.00">cxxopts::values::standard</text>
<text text-anchor="middle" x="512.5" y="-7" font-family="Helvetica,sans-Serif" font-size="10.00">_value&lt; T &gt;</text>
</a>
</g>
</g>
<!-- Node4&#45;&gt;Node5 -->
<g id="edge184_Node000004_Node000005" class="edge">
<title>Node4&#45;&gt;Node5</title>
<g id="a_edge184_Node000004_Node000005"><a xlink:title=" ">
<path fill="none" stroke="#63b8ff" d="M416.1,-15C424.7,-15 433.42,-15 441.91,-15"/>
<polygon fill="#63b8ff" stroke="#63b8ff" points="416.07,-11.5 406.07,-15 416.07,-18.5 416.07,-11.5"/>
</a>
</g>
</g>
</g>
</svg>
