<?xml version="1.0" encoding="UTF-8" standalone="no"?>
<!DOCTYPE svg PUBLIC "-//W3C//DTD SVG 1.1//EN"
 "http://www.w3.org/Graphics/SVG/1.1/DTD/svg11.dtd">
<!-- Generated by graphviz version 2.43.0 (0)
 -->
<!-- Title: Graphical Class Hierarchy Pages: 1 -->
<svg width="480pt" height="178pt"
 viewBox="0.00 0.00 480.00 178.00" xmlns="http://www.w3.org/2000/svg" xmlns:xlink="http://www.w3.org/1999/xlink">
<g id="graph0" class="graph" transform="scale(1 1) rotate(0) translate(4 174)">
<title>Graphical Class Hierarchy</title>
<!-- Node0 -->
<g id="Node000000" class="node">
<title>Node0</title>
<g id="a_Node000000"><a xlink:href="structformatter.html" target="_top" xlink:title=" ">
<polygon fill="white" stroke="#666666" points="133,-89.5 0,-89.5 0,-59.5 133,-59.5 133,-89.5"/>
<text text-anchor="start" x="8" y="-77.5" font-family="Helvetica,sans-Serif" font-size="10.00">formatter&lt; basic_string</text>
<text text-anchor="middle" x="66.5" y="-66.5" font-family="Helvetica,sans-Serif" font-size="10.00">_view&lt; Char &gt;, Char &gt;</text>
</a>
</g>
</g>
<!-- Node1 -->
<g id="Node000001" class="node">
<title>Node1</title>
<g id="a_Node000001"><a xlink:href="structbasic__ostream__formatter.html" target="_top" xlink:title=" ">
<polygon fill="white" stroke="#666666" points="309,-137.5 169,-137.5 169,-107.5 309,-107.5 309,-137.5"/>
<text text-anchor="start" x="177" y="-125.5" font-family="Helvetica,sans-Serif" font-size="10.00">basic_ostream_formatter</text>
<text text-anchor="middle" x="239" y="-114.5" font-family="Helvetica,sans-Serif" font-size="10.00">&lt; Char &gt;</text>
</a>
</g>
</g>
<!-- Node0&#45;&gt;Node1 -->
<g id="edge88_Node000000_Node000001" class="edge">
<title>Node0&#45;&gt;Node1</title>
<g id="a_edge88_Node000000_Node000001"><a xlink:title=" ">
<path fill="none" stroke="#63b8ff" d="M130.69,-92.29C148.45,-97.29 167.59,-102.68 184.71,-107.5"/>
<polygon fill="#63b8ff" stroke="#63b8ff" points="131.55,-88.9 120.98,-89.56 129.66,-95.63 131.55,-88.9"/>
</a>
</g>
</g>
<!-- Node4 -->
<g id="Node000004" class="node">
<title>Node4</title>
<g id="a_Node000004"><a xlink:href="structformatter_3_01Char_0fN_0e_00_01Char_01_4.html" target="_top" xlink:title=" ">
<polygon fill="white" stroke="#666666" points="296.5,-89.5 181.5,-89.5 181.5,-59.5 296.5,-59.5 296.5,-89.5"/>
<text text-anchor="start" x="189.5" y="-77.5" font-family="Helvetica,sans-Serif" font-size="10.00">formatter&lt; Char[N],</text>
<text text-anchor="middle" x="239" y="-66.5" font-family="Helvetica,sans-Serif" font-size="10.00"> Char &gt;</text>
</a>
</g>
</g>
<!-- Node0&#45;&gt;Node4 -->
<g id="edge91_Node000000_Node000004" class="edge">
<title>Node0&#45;&gt;Node4</title>
<g id="a_edge91_Node000000_Node000004"><a xlink:title=" ">
<path fill="none" stroke="#63b8ff" d="M143.54,-74.5C156.27,-74.5 169.27,-74.5 181.4,-74.5"/>
<polygon fill="#63b8ff" stroke="#63b8ff" points="143.42,-71 133.42,-74.5 143.42,-78 143.42,-71"/>
</a>
</g>
</g>
<!-- Node5 -->
<g id="Node000005" class="node">
<title>Node5</title>
<g id="a_Node000005"><a xlink:href="classformatter_3_01std_1_1basic__string_3_01Char_00_01Traits_00_01Allocator_01_4_00_01Char_01_4.html" target="_top" xlink:title=" ">
<polygon fill="white" stroke="#666666" points="299.5,-41 178.5,-41 178.5,0 299.5,0 299.5,-41"/>
<text text-anchor="start" x="186.5" y="-29" font-family="Helvetica,sans-Serif" font-size="10.00">formatter&lt; std::basic</text>
<text text-anchor="start" x="186.5" y="-18" font-family="Helvetica,sans-Serif" font-size="10.00">_string&lt; Char, Traits,</text>
<text text-anchor="middle" x="239" y="-7" font-family="Helvetica,sans-Serif" font-size="10.00"> Allocator &gt;, Char &gt;</text>
</a>
</g>
</g>
<!-- Node0&#45;&gt;Node5 -->
<g id="edge92_Node000000_Node000005" class="edge">
<title>Node0&#45;&gt;Node5</title>
<g id="a_edge92_Node000000_Node000005"><a xlink:title=" ">
<path fill="none" stroke="#63b8ff" d="M124.89,-56.32C142.07,-50.88 160.95,-44.9 178.28,-39.41"/>
<polygon fill="#63b8ff" stroke="#63b8ff" points="123.47,-53.1 114.99,-59.46 125.58,-59.78 123.47,-53.1"/>
</a>
</g>
</g>
<!-- Node2 -->
<g id="Node000002" class="node">
<title>Node2</title>
<g id="a_Node000002"><a xlink:href="structformatter_3_01detail_1_1streamed__view_3_01T_01_4_00_01Char_01_4.html" target="_top" xlink:title=" ">
<polygon fill="white" stroke="#666666" points="470,-170 347,-170 347,-129 470,-129 470,-170"/>
<text text-anchor="start" x="355" y="-158" font-family="Helvetica,sans-Serif" font-size="10.00">formatter&lt; detail::</text>
<text text-anchor="start" x="355" y="-147" font-family="Helvetica,sans-Serif" font-size="10.00">streamed_view&lt; T &gt;,</text>
<text text-anchor="middle" x="408.5" y="-136" font-family="Helvetica,sans-Serif" font-size="10.00"> Char &gt;</text>
</a>
</g>
</g>
<!-- Node1&#45;&gt;Node2 -->
<g id="edge89_Node000001_Node000002" class="edge">
<title>Node1&#45;&gt;Node2</title>
<g id="a_edge89_Node000001_Node000002"><a xlink:title=" ">
<path fill="none" stroke="#63b8ff" d="M319.15,-135.26C328.47,-136.76 337.86,-138.27 346.86,-139.73"/>
<polygon fill="#63b8ff" stroke="#63b8ff" points="319.53,-131.77 309.1,-133.64 318.41,-138.68 319.53,-131.77"/>
</a>
</g>
</g>
<!-- Node3 -->
<g id="Node000003" class="node">
<title>Node3</title>
<g id="a_Node000003"><a xlink:href="structformatter_3_01std_1_1thread_1_1id_00_01Char_01_4.html" target="_top" xlink:title=" ">
<polygon fill="white" stroke="#666666" points="472,-110.5 345,-110.5 345,-80.5 472,-80.5 472,-110.5"/>
<text text-anchor="start" x="353" y="-98.5" font-family="Helvetica,sans-Serif" font-size="10.00">formatter&lt; std::thread</text>
<text text-anchor="middle" x="408.5" y="-87.5" font-family="Helvetica,sans-Serif" font-size="10.00">::id, Char &gt;</text>
</a>
</g>
</g>
<!-- Node1&#45;&gt;Node3 -->
<g id="edge90_Node000001_Node000003" class="edge">
<title>Node1&#45;&gt;Node3</title>
<g id="a_edge90_Node000001_Node000003"><a xlink:title=" ">
<path fill="none" stroke="#63b8ff" d="M319.13,-109.74C327.72,-108.36 336.38,-106.96 344.74,-105.62"/>
<polygon fill="#63b8ff" stroke="#63b8ff" points="318.41,-106.32 309.1,-111.36 319.53,-113.23 318.41,-106.32"/>
</a>
</g>
</g>
</g>
</svg>
