<?xml version="1.0" encoding="UTF-8" standalone="no"?>
<!DOCTYPE svg PUBLIC "-//W3C//DTD SVG 1.1//EN"
 "http://www.w3.org/Graphics/SVG/1.1/DTD/svg11.dtd">
<!-- Generated by graphviz version 2.43.0 (0)
 -->
<!-- Title: Graphical Class Hierarchy Pages: 1 -->
<svg width="369pt" height="86pt"
 viewBox="0.00 0.00 369.00 86.00" xmlns="http://www.w3.org/2000/svg" xmlns:xlink="http://www.w3.org/1999/xlink">
<g id="graph0" class="graph" transform="scale(1 1) rotate(0) translate(4 82)">
<title>Graphical Class Hierarchy</title>
<!-- Node0 -->
<g id="Node000000" class="node">
<title>Node0</title>
<g id="a_Node000000"><a xlink:href="classbasic__specs.html" target="_top" xlink:title=" ">
<polygon fill="white" stroke="#666666" points="75,-48.5 0,-48.5 0,-29.5 75,-29.5 75,-48.5"/>
<text text-anchor="middle" x="37.5" y="-36.5" font-family="Helvetica,sans-Serif" font-size="10.00">basic_specs</text>
</a>
</g>
</g>
<!-- Node1 -->
<g id="Node000001" class="node">
<title>Node1</title>
<g id="a_Node000001"><a xlink:href="structformat__specs.html" target="_top" xlink:title=" ">
<polygon fill="white" stroke="#666666" points="194,-48.5 111,-48.5 111,-29.5 194,-29.5 194,-48.5"/>
<text text-anchor="middle" x="152.5" y="-36.5" font-family="Helvetica,sans-Serif" font-size="10.00">format_specs</text>
</a>
</g>
</g>
<!-- Node0&#45;&gt;Node1 -->
<g id="edge6_Node000000_Node000001" class="edge">
<title>Node0&#45;&gt;Node1</title>
<g id="a_edge6_Node000000_Node000001"><a xlink:title=" ">
<path fill="none" stroke="#63b8ff" d="M85.28,-39C93.71,-39 102.45,-39 110.69,-39"/>
<polygon fill="#63b8ff" stroke="#63b8ff" points="85.19,-35.5 75.19,-39 85.19,-42.5 85.19,-35.5"/>
</a>
</g>
</g>
<!-- Node2 -->
<g id="Node000002" class="node">
<title>Node2</title>
<g id="a_Node000002"><a xlink:href="structdetail_1_1dynamic__format__specs.html" target="_top" xlink:title=" ">
<polygon fill="white" stroke="#666666" points="361,-78 230,-78 230,-48 361,-48 361,-78"/>
<text text-anchor="start" x="238" y="-66" font-family="Helvetica,sans-Serif" font-size="10.00">detail::dynamic_format</text>
<text text-anchor="middle" x="295.5" y="-55" font-family="Helvetica,sans-Serif" font-size="10.00">_specs&lt; Char &gt;</text>
</a>
</g>
</g>
<!-- Node1&#45;&gt;Node2 -->
<g id="edge7_Node000001_Node000002" class="edge">
<title>Node1&#45;&gt;Node2</title>
<g id="a_edge7_Node000001_Node000002"><a xlink:title=" ">
<path fill="none" stroke="#63b8ff" d="M204.21,-47.63C212.55,-49.05 221.28,-50.54 229.9,-52"/>
<polygon fill="#63b8ff" stroke="#63b8ff" points="204.73,-44.17 194.28,-45.94 203.55,-51.07 204.73,-44.17"/>
</a>
</g>
</g>
<!-- Node3 -->
<g id="Node000003" class="node">
<title>Node3</title>
<g id="a_Node000003"><a xlink:href="structdetail_1_1dynamic__format__specs.html" target="_top" xlink:title=" ">
<polygon fill="white" stroke="#666666" points="361,-30 230,-30 230,0 361,0 361,-30"/>
<text text-anchor="start" x="238" y="-18" font-family="Helvetica,sans-Serif" font-size="10.00">detail::dynamic_format</text>
<text text-anchor="middle" x="295.5" y="-7" font-family="Helvetica,sans-Serif" font-size="10.00">_specs&lt; Char &gt;</text>
</a>
</g>
</g>
<!-- Node1&#45;&gt;Node3 -->
<g id="edge8_Node000001_Node000003" class="edge">
<title>Node1&#45;&gt;Node3</title>
<g id="a_edge8_Node000001_Node000003"><a xlink:title=" ">
<path fill="none" stroke="#63b8ff" d="M204.21,-30.37C212.55,-28.95 221.28,-27.46 229.9,-26"/>
<polygon fill="#63b8ff" stroke="#63b8ff" points="203.55,-26.93 194.28,-32.06 204.73,-33.83 203.55,-26.93"/>
</a>
</g>
</g>
</g>
</svg>
