<?xml version="1.0" encoding="UTF-8" standalone="no"?>
<!DOCTYPE svg PUBLIC "-//W3C//DTD SVG 1.1//EN"
 "http://www.w3.org/Graphics/SVG/1.1/DTD/svg11.dtd">
<!-- Generated by graphviz version 2.43.0 (0)
 -->
<!-- Title: Graphical Class Hierarchy Pages: 1 -->
<svg width="315pt" height="1777pt"
 viewBox="0.00 0.00 315.00 1777.00" xmlns="http://www.w3.org/2000/svg" xmlns:xlink="http://www.w3.org/1999/xlink">
<g id="graph0" class="graph" transform="scale(1 1) rotate(0) translate(4 1773)">
<title>Graphical Class Hierarchy</title>
<!-- Node0 -->
<g id="Node000000" class="node">
<title>Node0</title>
<g id="a_Node000000"><a xlink:title=" ">
<polygon fill="#e0e0e0" stroke="#999999" points="87,-906 0,-906 0,-887 87,-887 87,-906"/>
<text text-anchor="middle" x="43.5" y="-894" font-family="Helvetica,sans-Serif" font-size="10.00">DrawableBase</text>
</a>
</g>
</g>
<!-- Node1 -->
<g id="Node000001" class="node">
<title>Node1</title>
<g id="a_Node000001"><a xlink:href="classMagick_1_1DrawableAffine.html" target="_top" xlink:title=" ">
<polygon fill="white" stroke="#666666" points="281.5,-1769 148.5,-1769 148.5,-1750 281.5,-1750 281.5,-1769"/>
<text text-anchor="middle" x="215" y="-1757" font-family="Helvetica,sans-Serif" font-size="10.00">Magick::DrawableAffine</text>
</a>
</g>
</g>
<!-- Node0&#45;&gt;Node1 -->
<g id="edge6_Node000000_Node000001" class="edge">
<title>Node0&#45;&gt;Node1</title>
<g id="a_edge6_Node000000_Node000001"><a xlink:title=" ">
<path fill="none" stroke="#63b8ff" d="M44.94,-916.07C47.83,-1036.87 65.81,-1678.12 123,-1741.5 129.8,-1749.03 138.76,-1753.95 148.41,-1757.08"/>
<polygon fill="#63b8ff" stroke="#63b8ff" points="48.44,-915.95 44.71,-906.04 41.44,-916.12 48.44,-915.95"/>
</a>
</g>
</g>
<!-- Node2 -->
<g id="Node000002" class="node">
<title>Node2</title>
<g id="a_Node000002"><a xlink:href="classMagick_1_1DrawableArc.html" target="_top" xlink:title=" ">
<polygon fill="white" stroke="#666666" points="275,-1732 155,-1732 155,-1713 275,-1713 275,-1732"/>
<text text-anchor="middle" x="215" y="-1720" font-family="Helvetica,sans-Serif" font-size="10.00">Magick::DrawableArc</text>
</a>
</g>
</g>
<!-- Node0&#45;&gt;Node2 -->
<g id="edge7_Node000000_Node000002" class="edge">
<title>Node0&#45;&gt;Node2</title>
<g id="a_edge7_Node000000_Node000002"><a xlink:title=" ">
<path fill="none" stroke="#63b8ff" d="M45.03,-916.3C48.4,-1034.53 68.34,-1644.17 123,-1704.5 131.33,-1713.69 142.88,-1718.98 154.96,-1721.88"/>
<polygon fill="#63b8ff" stroke="#63b8ff" points="48.53,-916.06 44.75,-906.16 41.53,-916.26 48.53,-916.06"/>
</a>
</g>
</g>
<!-- Node3 -->
<g id="Node000003" class="node">
<title>Node3</title>
<g id="a_Node000003"><a xlink:href="classMagick_1_1DrawableBezier.html" target="_top" xlink:title=" ">
<polygon fill="white" stroke="#666666" points="282.5,-1695 147.5,-1695 147.5,-1676 282.5,-1676 282.5,-1695"/>
<text text-anchor="middle" x="215" y="-1683" font-family="Helvetica,sans-Serif" font-size="10.00">Magick::DrawableBezier</text>
</a>
</g>
</g>
<!-- Node0&#45;&gt;Node3 -->
<g id="edge8_Node000000_Node000003" class="edge">
<title>Node0&#45;&gt;Node3</title>
<g id="a_edge8_Node000000_Node000003"><a xlink:title=" ">
<path fill="none" stroke="#63b8ff" d="M45.14,-916.46C48.99,-1031.83 70.84,-1610.21 123,-1667.5 129.5,-1674.65 137.96,-1679.43 147.09,-1682.57"/>
<polygon fill="#63b8ff" stroke="#63b8ff" points="48.63,-916.13 44.8,-906.25 41.63,-916.36 48.63,-916.13"/>
</a>
</g>
</g>
<!-- Node4 -->
<g id="Node000004" class="node">
<title>Node4</title>
<g id="a_Node000004"><a xlink:href="classMagick_1_1DrawableCircle.html" target="_top" xlink:title=" ">
<polygon fill="white" stroke="#666666" points="281,-1658 149,-1658 149,-1639 281,-1639 281,-1658"/>
<text text-anchor="middle" x="215" y="-1646" font-family="Helvetica,sans-Serif" font-size="10.00">Magick::DrawableCircle</text>
</a>
</g>
</g>
<!-- Node0&#45;&gt;Node4 -->
<g id="edge9_Node000000_Node000004" class="edge">
<title>Node0&#45;&gt;Node4</title>
<g id="a_edge9_Node000000_Node000004"><a xlink:title=" ">
<path fill="none" stroke="#63b8ff" d="M45.23,-916.19C49.56,-1027.62 73.28,-1576.16 123,-1630.5 129.96,-1638.1 139.12,-1643.03 148.96,-1646.14"/>
<polygon fill="#63b8ff" stroke="#63b8ff" points="48.72,-915.9 44.85,-906.04 41.73,-916.17 48.72,-915.9"/>
</a>
</g>
</g>
<!-- Node5 -->
<g id="Node000005" class="node">
<title>Node5</title>
<g id="a_Node000005"><a xlink:href="classMagick_1_1DrawableClipPath.html" target="_top" xlink:title=" ">
<polygon fill="white" stroke="#666666" points="287,-1621 143,-1621 143,-1602 287,-1602 287,-1621"/>
<text text-anchor="middle" x="215" y="-1609" font-family="Helvetica,sans-Serif" font-size="10.00">Magick::DrawableClipPath</text>
</a>
</g>
</g>
<!-- Node0&#45;&gt;Node5 -->
<g id="edge10_Node000000_Node000005" class="edge">
<title>Node0&#45;&gt;Node5</title>
<g id="a_edge10_Node000000_Node000005"><a xlink:title=" ">
<path fill="none" stroke="#63b8ff" d="M45.35,-916.2C50.19,-1024.27 75.76,-1542.16 123,-1593.5 128.45,-1599.43 135.25,-1603.72 142.65,-1606.8"/>
<polygon fill="#63b8ff" stroke="#63b8ff" points="48.84,-915.9 44.9,-906.06 41.85,-916.2 48.84,-915.9"/>
</a>
</g>
</g>
<!-- Node6 -->
<g id="Node000006" class="node">
<title>Node6</title>
<g id="a_Node000006"><a xlink:href="classMagick_1_1DrawableColor.html" target="_top" xlink:title=" ">
<polygon fill="white" stroke="#666666" points="280,-1584 150,-1584 150,-1565 280,-1565 280,-1584"/>
<text text-anchor="middle" x="215" y="-1572" font-family="Helvetica,sans-Serif" font-size="10.00">Magick::DrawableColor</text>
</a>
</g>
</g>
<!-- Node0&#45;&gt;Node6 -->
<g id="edge11_Node000000_Node000006" class="edge">
<title>Node0&#45;&gt;Node6</title>
<g id="a_edge11_Node000000_Node000006"><a xlink:title=" ">
<path fill="none" stroke="#63b8ff" d="M45.49,-916.09C50.92,-1020.32 78.55,-1506.99 123,-1555.5 130.2,-1563.35 139.73,-1568.42 149.92,-1571.62"/>
<polygon fill="#63b8ff" stroke="#63b8ff" points="48.98,-915.83 44.97,-906.02 41.99,-916.19 48.98,-915.83"/>
</a>
</g>
</g>
<!-- Node7 -->
<g id="Node000007" class="node">
<title>Node7</title>
<g id="a_Node000007"><a xlink:href="classMagick_1_1DrawableCompositeImage.html" target="_top" xlink:title=" ">
<polygon fill="white" stroke="#666666" points="293.5,-1546.5 136.5,-1546.5 136.5,-1516.5 293.5,-1516.5 293.5,-1546.5"/>
<text text-anchor="start" x="144.5" y="-1534.5" font-family="Helvetica,sans-Serif" font-size="10.00">Magick::DrawableComposite</text>
<text text-anchor="middle" x="215" y="-1523.5" font-family="Helvetica,sans-Serif" font-size="10.00">Image</text>
</a>
</g>
</g>
<!-- Node0&#45;&gt;Node7 -->
<g id="edge12_Node000000_Node000007" class="edge">
<title>Node0&#45;&gt;Node7</title>
<g id="a_edge12_Node000000_Node000007"><a xlink:title=" ">
<path fill="none" stroke="#63b8ff" d="M44.19,-916.48C43.14,-1011.5 43.42,-1416.84 123,-1507.5 126.88,-1511.92 131.47,-1515.57 136.49,-1518.58"/>
<polygon fill="#63b8ff" stroke="#63b8ff" points="47.69,-916.3 44.32,-906.25 40.69,-916.21 47.69,-916.3"/>
</a>
</g>
</g>
<!-- Node8 -->
<g id="Node000008" class="node">
<title>Node8</title>
<g id="a_Node000008"><a xlink:href="classMagick_1_1DrawableDashArray.html" target="_top" xlink:title=" ">
<polygon fill="white" stroke="#666666" points="292.5,-1498 137.5,-1498 137.5,-1479 292.5,-1479 292.5,-1498"/>
<text text-anchor="middle" x="215" y="-1486" font-family="Helvetica,sans-Serif" font-size="10.00">Magick::DrawableDashArray</text>
</a>
</g>
</g>
<!-- Node0&#45;&gt;Node8 -->
<g id="edge13_Node000000_Node000008" class="edge">
<title>Node0&#45;&gt;Node8</title>
<g id="a_edge13_Node000000_Node000008"><a xlink:title=" ">
<path fill="none" stroke="#63b8ff" d="M44.26,-916.23C43.57,-1007.55 45.44,-1388.19 123,-1470.5 127.09,-1474.84 131.89,-1478.3 137.13,-1481.04"/>
<polygon fill="#63b8ff" stroke="#63b8ff" points="47.76,-916.18 44.36,-906.15 40.76,-916.12 47.76,-916.18"/>
</a>
</g>
</g>
<!-- Node9 -->
<g id="Node000009" class="node">
<title>Node9</title>
<g id="a_Node000009"><a xlink:href="classMagick_1_1DrawableDashOffset.html" target="_top" xlink:title=" ">
<polygon fill="white" stroke="#666666" points="294,-1461 136,-1461 136,-1442 294,-1442 294,-1461"/>
<text text-anchor="middle" x="215" y="-1449" font-family="Helvetica,sans-Serif" font-size="10.00">Magick::DrawableDashOffset</text>
</a>
</g>
</g>
<!-- Node0&#45;&gt;Node9 -->
<g id="edge14_Node000000_Node000009" class="edge">
<title>Node0&#45;&gt;Node9</title>
<g id="a_edge14_Node000000_Node000009"><a xlink:title=" ">
<path fill="none" stroke="#63b8ff" d="M44.47,-916.62C44.74,-1004.93 50.45,-1357.22 123,-1433.5 126.77,-1437.47 131.15,-1440.7 135.9,-1443.32"/>
<polygon fill="#63b8ff" stroke="#63b8ff" points="47.97,-916.36 44.46,-906.37 40.97,-916.37 47.97,-916.36"/>
</a>
</g>
</g>
<!-- Node10 -->
<g id="Node000010" class="node">
<title>Node10</title>
<g id="a_Node000010"><a xlink:href="classMagick_1_1DrawableEllipse.html" target="_top" xlink:title=" ">
<polygon fill="white" stroke="#666666" points="283.5,-1424 146.5,-1424 146.5,-1405 283.5,-1405 283.5,-1424"/>
<text text-anchor="middle" x="215" y="-1412" font-family="Helvetica,sans-Serif" font-size="10.00">Magick::DrawableEllipse</text>
</a>
</g>
</g>
<!-- Node0&#45;&gt;Node10 -->
<g id="edge15_Node000000_Node000010" class="edge">
<title>Node0&#45;&gt;Node10</title>
<g id="a_edge15_Node000000_Node000010"><a xlink:title=" ">
<path fill="none" stroke="#63b8ff" d="M44.7,-916.29C45.97,-1000.26 55.25,-1326.01 123,-1396.5 129.36,-1403.12 137.4,-1407.68 146.06,-1410.78"/>
<polygon fill="#63b8ff" stroke="#63b8ff" points="48.2,-916.05 44.57,-906.1 41.2,-916.14 48.2,-916.05"/>
</a>
</g>
</g>
<!-- Node11 -->
<g id="Node000011" class="node">
<title>Node11</title>
<g id="a_Node000011"><a xlink:href="classMagick_1_1DrawableFillColor.html" target="_top" xlink:title=" ">
<polygon fill="white" stroke="#666666" points="287,-1387 143,-1387 143,-1368 287,-1368 287,-1387"/>
<text text-anchor="middle" x="215" y="-1375" font-family="Helvetica,sans-Serif" font-size="10.00">Magick::DrawableFillColor</text>
</a>
</g>
</g>
<!-- Node0&#45;&gt;Node11 -->
<g id="edge16_Node000000_Node000011" class="edge">
<title>Node0&#45;&gt;Node11</title>
<g id="a_edge16_Node000000_Node000011"><a xlink:title=" ">
<path fill="none" stroke="#63b8ff" d="M44.97,-916.34C47.3,-996.45 60.14,-1294.9 123,-1359.5 128.62,-1365.27 135.51,-1369.47 142.97,-1372.5"/>
<polygon fill="#63b8ff" stroke="#63b8ff" points="48.47,-916.06 44.7,-906.16 41.47,-916.25 48.47,-916.06"/>
</a>
</g>
</g>
<!-- Node12 -->
<g id="Node000012" class="node">
<title>Node12</title>
<g id="a_Node000012"><a xlink:href="classMagick_1_1DrawableFillOpacity.html" target="_top" xlink:title=" ">
<polygon fill="white" stroke="#666666" points="293,-1350 137,-1350 137,-1331 293,-1331 293,-1350"/>
<text text-anchor="middle" x="215" y="-1338" font-family="Helvetica,sans-Serif" font-size="10.00">Magick::DrawableFillOpacity</text>
</a>
</g>
</g>
<!-- Node0&#45;&gt;Node12 -->
<g id="edge17_Node000000_Node000012" class="edge">
<title>Node0&#45;&gt;Node12</title>
<g id="a_edge17_Node000000_Node000012"><a xlink:title=" ">
<path fill="none" stroke="#63b8ff" d="M45.29,-916.2C48.72,-992.02 64.96,-1263.7 123,-1322.5 127.07,-1326.63 131.8,-1329.95 136.92,-1332.61"/>
<polygon fill="#63b8ff" stroke="#63b8ff" points="48.78,-915.97 44.85,-906.13 41.79,-916.27 48.78,-915.97"/>
</a>
</g>
</g>
<!-- Node13 -->
<g id="Node000013" class="node">
<title>Node13</title>
<g id="a_Node000013"><a xlink:href="classMagick_1_1DrawableFillRule.html" target="_top" xlink:title=" ">
<polygon fill="white" stroke="#666666" points="285,-1313 145,-1313 145,-1294 285,-1294 285,-1313"/>
<text text-anchor="middle" x="215" y="-1301" font-family="Helvetica,sans-Serif" font-size="10.00">Magick::DrawableFillRule</text>
</a>
</g>
</g>
<!-- Node0&#45;&gt;Node13 -->
<g id="edge18_Node000000_Node000013" class="edge">
<title>Node0&#45;&gt;Node13</title>
<g id="a_edge18_Node000000_Node000013"><a xlink:title=" ">
<path fill="none" stroke="#63b8ff" d="M45.7,-916.76C50.39,-989.03 69.94,-1232.65 123,-1285.5 129.16,-1291.64 136.77,-1295.99 144.95,-1299.03"/>
<polygon fill="#63b8ff" stroke="#63b8ff" points="49.16,-916.11 45.05,-906.35 42.18,-916.55 49.16,-916.11"/>
</a>
</g>
</g>
<!-- Node14 -->
<g id="Node000014" class="node">
<title>Node14</title>
<g id="a_Node000014"><a xlink:href="classMagick_1_1DrawableFont.html" target="_top" xlink:title=" ">
<polygon fill="white" stroke="#666666" points="277.5,-1276 152.5,-1276 152.5,-1257 277.5,-1257 277.5,-1276"/>
<text text-anchor="middle" x="215" y="-1264" font-family="Helvetica,sans-Serif" font-size="10.00">Magick::DrawableFont</text>
</a>
</g>
</g>
<!-- Node0&#45;&gt;Node14 -->
<g id="edge19_Node000000_Node000014" class="edge">
<title>Node0&#45;&gt;Node14</title>
<g id="a_edge19_Node000000_Node000014"><a xlink:title=" ">
<path fill="none" stroke="#63b8ff" d="M46.11,-916.13C51.99,-983.14 74.61,-1201.26 123,-1248.5 131.07,-1256.37 141.53,-1261.29 152.47,-1264.27"/>
<polygon fill="#63b8ff" stroke="#63b8ff" points="49.59,-915.75 45.25,-906.08 42.61,-916.34 49.59,-915.75"/>
</a>
</g>
</g>
<!-- Node15 -->
<g id="Node000015" class="node">
<title>Node15</title>
<g id="a_Node000015"><a xlink:href="classMagick_1_1DrawableGravity.html" target="_top" xlink:title=" ">
<polygon fill="white" stroke="#666666" points="285,-1239 145,-1239 145,-1220 285,-1220 285,-1239"/>
<text text-anchor="middle" x="215" y="-1227" font-family="Helvetica,sans-Serif" font-size="10.00">Magick::DrawableGravity</text>
</a>
</g>
</g>
<!-- Node0&#45;&gt;Node15 -->
<g id="edge20_Node000000_Node000015" class="edge">
<title>Node0&#45;&gt;Node15</title>
<g id="a_edge20_Node000000_Node000015"><a xlink:title=" ">
<path fill="none" stroke="#63b8ff" d="M46.65,-916.06C53.89,-978.28 79.39,-1169.97 123,-1211.5 129.18,-1217.39 136.7,-1221.61 144.75,-1224.6"/>
<polygon fill="#63b8ff" stroke="#63b8ff" points="50.11,-915.55 45.51,-906.01 43.16,-916.34 50.11,-915.55"/>
</a>
</g>
</g>
<!-- Node16 -->
<g id="Node000016" class="node">
<title>Node16</title>
<g id="a_Node000016"><a xlink:href="classMagick_1_1DrawableLine.html" target="_top" xlink:title=" ">
<polygon fill="white" stroke="#666666" points="277.5,-1202 152.5,-1202 152.5,-1183 277.5,-1183 277.5,-1202"/>
<text text-anchor="middle" x="215" y="-1190" font-family="Helvetica,sans-Serif" font-size="10.00">Magick::DrawableLine</text>
</a>
</g>
</g>
<!-- Node0&#45;&gt;Node16 -->
<g id="edge21_Node000000_Node000016" class="edge">
<title>Node0&#45;&gt;Node16</title>
<g id="a_edge21_Node000000_Node000016"><a xlink:title=" ">
<path fill="none" stroke="#63b8ff" d="M47.33,-915.97C56.02,-973.13 84.13,-1138.62 123,-1174.5 131.17,-1182.04 141.54,-1186.82 152.34,-1189.78"/>
<polygon fill="#63b8ff" stroke="#63b8ff" points="50.79,-915.43 45.85,-906.06 43.86,-916.47 50.79,-915.43"/>
</a>
</g>
</g>
<!-- Node17 -->
<g id="Node000017" class="node">
<title>Node17</title>
<g id="a_Node000017"><a xlink:href="classMagick_1_1DrawableMatte.html" target="_top" xlink:title=" ">
<polygon fill="white" stroke="#666666" points="281.5,-1165 148.5,-1165 148.5,-1146 281.5,-1146 281.5,-1165"/>
<text text-anchor="middle" x="215" y="-1153" font-family="Helvetica,sans-Serif" font-size="10.00">Magick::DrawableMatte</text>
</a>
</g>
</g>
<!-- Node0&#45;&gt;Node17 -->
<g id="edge22_Node000000_Node000017" class="edge">
<title>Node0&#45;&gt;Node17</title>
<g id="a_edge22_Node000000_Node000017"><a xlink:title=" ">
<path fill="none" stroke="#63b8ff" d="M44.63,-916.35C46.08,-962.69 56.54,-1078.55 123,-1137.5 130.23,-1143.91 139.07,-1148.31 148.37,-1151.28"/>
<polygon fill="#63b8ff" stroke="#63b8ff" points="48.13,-916.07 44.43,-906.14 41.13,-916.21 48.13,-916.07"/>
</a>
</g>
</g>
<!-- Node18 -->
<g id="Node000018" class="node">
<title>Node18</title>
<g id="a_Node000018"><a xlink:href="classMagick_1_1DrawableMiterLimit.html" target="_top" xlink:title=" ">
<polygon fill="white" stroke="#666666" points="292.5,-1128 137.5,-1128 137.5,-1109 292.5,-1109 292.5,-1128"/>
<text text-anchor="middle" x="215" y="-1116" font-family="Helvetica,sans-Serif" font-size="10.00">Magick::DrawableMiterLimit</text>
</a>
</g>
</g>
<!-- Node0&#45;&gt;Node18 -->
<g id="edge23_Node000000_Node000018" class="edge">
<title>Node0&#45;&gt;Node18</title>
<g id="a_edge23_Node000000_Node000018"><a xlink:title=" ">
<path fill="none" stroke="#63b8ff" d="M45.94,-916.07C50.08,-957.09 65.66,-1052.27 123,-1100.5 127.31,-1104.13 132.15,-1107.1 137.28,-1109.53"/>
<polygon fill="#63b8ff" stroke="#63b8ff" points="49.42,-915.67 45.06,-906.02 42.45,-916.29 49.42,-915.67"/>
</a>
</g>
</g>
<!-- Node19 -->
<g id="Node000019" class="node">
<title>Node19</title>
<g id="a_Node000019"><a xlink:href="classMagick_1_1DrawablePath.html" target="_top" xlink:title=" ">
<polygon fill="white" stroke="#666666" points="277.5,-1091 152.5,-1091 152.5,-1072 277.5,-1072 277.5,-1091"/>
<text text-anchor="middle" x="215" y="-1079" font-family="Helvetica,sans-Serif" font-size="10.00">Magick::DrawablePath</text>
</a>
</g>
</g>
<!-- Node0&#45;&gt;Node19 -->
<g id="edge24_Node000000_Node000019" class="edge">
<title>Node0&#45;&gt;Node19</title>
<g id="a_edge24_Node000000_Node000019"><a xlink:title=" ">
<path fill="none" stroke="#63b8ff" d="M47.85,-916.38C54.95,-951.88 74.94,-1025.94 123,-1063.5 131.5,-1070.14 141.79,-1074.54 152.34,-1077.42"/>
<polygon fill="#63b8ff" stroke="#63b8ff" points="51.25,-915.5 45.99,-906.31 44.37,-916.78 51.25,-915.5"/>
</a>
</g>
</g>
<!-- Node20 -->
<g id="Node000020" class="node">
<title>Node20</title>
<g id="a_Node000020"><a xlink:href="classMagick_1_1DrawablePoint.html" target="_top" xlink:title=" ">
<polygon fill="white" stroke="#666666" points="279.5,-1054 150.5,-1054 150.5,-1035 279.5,-1035 279.5,-1054"/>
<text text-anchor="middle" x="215" y="-1042" font-family="Helvetica,sans-Serif" font-size="10.00">Magick::DrawablePoint</text>
</a>
</g>
</g>
<!-- Node0&#45;&gt;Node20 -->
<g id="edge25_Node000000_Node000020" class="edge">
<title>Node0&#45;&gt;Node20</title>
<g id="a_edge25_Node000000_Node000020"><a xlink:title=" ">
<path fill="none" stroke="#63b8ff" d="M50.57,-916.01C60.66,-945 83.76,-998.99 123,-1026.5 131.04,-1032.14 140.42,-1036.11 150.04,-1038.89"/>
<polygon fill="#63b8ff" stroke="#63b8ff" points="53.8,-914.62 47.34,-906.23 47.16,-916.82 53.8,-914.62"/>
</a>
</g>
</g>
<!-- Node21 -->
<g id="Node000021" class="node">
<title>Node21</title>
<g id="a_Node000021"><a xlink:href="classMagick_1_1DrawablePointSize.html" target="_top" xlink:title=" ">
<polygon fill="white" stroke="#666666" points="289.5,-1017 140.5,-1017 140.5,-998 289.5,-998 289.5,-1017"/>
<text text-anchor="middle" x="215" y="-1005" font-family="Helvetica,sans-Serif" font-size="10.00">Magick::DrawablePointSize</text>
</a>
</g>
</g>
<!-- Node0&#45;&gt;Node21 -->
<g id="edge26_Node000000_Node000021" class="edge">
<title>Node0&#45;&gt;Node21</title>
<g id="a_edge26_Node000000_Node000021"><a xlink:title=" ">
<path fill="none" stroke="#63b8ff" d="M54.85,-915.1C67.85,-936.61 92.22,-971.36 123,-989.5 128.83,-992.93 135.19,-995.73 141.76,-997.99"/>
<polygon fill="#63b8ff" stroke="#63b8ff" points="57.76,-913.14 49.7,-906.26 51.71,-916.66 57.76,-913.14"/>
</a>
</g>
</g>
<!-- Node22 -->
<g id="Node000022" class="node">
<title>Node22</title>
<g id="a_Node000022"><a xlink:href="classMagick_1_1DrawablePolygon.html" target="_top" xlink:title=" ">
<polygon fill="white" stroke="#666666" points="286.5,-980 143.5,-980 143.5,-961 286.5,-961 286.5,-980"/>
<text text-anchor="middle" x="215" y="-968" font-family="Helvetica,sans-Serif" font-size="10.00">Magick::DrawablePolygon</text>
</a>
</g>
</g>
<!-- Node0&#45;&gt;Node22 -->
<g id="edge27_Node000000_Node000022" class="edge">
<title>Node0&#45;&gt;Node22</title>
<g id="a_edge27_Node000000_Node000022"><a xlink:title=" ">
<path fill="none" stroke="#63b8ff" d="M62.75,-912.98C77.84,-925.7 100.39,-942.74 123,-952.5 130.84,-955.88 139.33,-958.64 147.87,-960.88"/>
<polygon fill="#63b8ff" stroke="#63b8ff" points="64.63,-909.97 54.78,-906.07 60.04,-915.26 64.63,-909.97"/>
</a>
</g>
</g>
<!-- Node23 -->
<g id="Node000023" class="node">
<title>Node23</title>
<g id="a_Node000023"><a xlink:href="classMagick_1_1DrawablePolyline.html" target="_top" xlink:title=" ">
<polygon fill="white" stroke="#666666" points="286.5,-943 143.5,-943 143.5,-924 286.5,-924 286.5,-943"/>
<text text-anchor="middle" x="215" y="-931" font-family="Helvetica,sans-Serif" font-size="10.00">Magick::DrawablePolyline</text>
</a>
</g>
</g>
<!-- Node0&#45;&gt;Node23 -->
<g id="edge28_Node000000_Node000023" class="edge">
<title>Node0&#45;&gt;Node23</title>
<g id="a_edge28_Node000000_Node000023"><a xlink:title=" ">
<path fill="none" stroke="#63b8ff" d="M92.27,-908.4C102.4,-910.83 113.04,-913.31 123,-915.5 136.21,-918.4 150.55,-921.34 163.86,-923.98"/>
<polygon fill="#63b8ff" stroke="#63b8ff" points="92.9,-904.95 82.36,-906 91.25,-911.76 92.9,-904.95"/>
</a>
</g>
</g>
<!-- Node24 -->
<g id="Node000024" class="node">
<title>Node24</title>
<g id="a_Node000024"><a xlink:href="classMagick_1_1DrawablePopClipPath.html" target="_top" xlink:title=" ">
<polygon fill="white" stroke="#666666" points="296,-906 134,-906 134,-887 296,-887 296,-906"/>
<text text-anchor="middle" x="215" y="-894" font-family="Helvetica,sans-Serif" font-size="10.00">Magick::DrawablePopClipPath</text>
</a>
</g>
</g>
<!-- Node0&#45;&gt;Node24 -->
<g id="edge29_Node000000_Node000024" class="edge">
<title>Node0&#45;&gt;Node24</title>
<g id="a_edge29_Node000000_Node000024"><a xlink:title=" ">
<path fill="none" stroke="#63b8ff" d="M97.59,-896.5C109.13,-896.5 121.6,-896.5 133.93,-896.5"/>
<polygon fill="#63b8ff" stroke="#63b8ff" points="97.27,-893 87.27,-896.5 97.27,-900 97.27,-893"/>
</a>
</g>
</g>
<!-- Node25 -->
<g id="Node000025" class="node">
<title>Node25</title>
<g id="a_Node000025"><a xlink:href="classMagick_1_1DrawablePopGraphicContext.html" target="_top" xlink:title=" ">
<polygon fill="white" stroke="#666666" points="295,-868.5 135,-868.5 135,-838.5 295,-838.5 295,-868.5"/>
<text text-anchor="start" x="143" y="-856.5" font-family="Helvetica,sans-Serif" font-size="10.00">Magick::DrawablePopGraphic</text>
<text text-anchor="middle" x="215" y="-845.5" font-family="Helvetica,sans-Serif" font-size="10.00">Context</text>
</a>
</g>
</g>
<!-- Node0&#45;&gt;Node25 -->
<g id="edge30_Node000000_Node000025" class="edge">
<title>Node0&#45;&gt;Node25</title>
<g id="a_edge30_Node000000_Node000025"><a xlink:title=" ">
<path fill="none" stroke="#63b8ff" d="M91.99,-884.45C111.49,-879.51 134.28,-873.72 154.85,-868.51"/>
<polygon fill="#63b8ff" stroke="#63b8ff" points="90.95,-881.11 82.12,-886.96 92.67,-887.89 90.95,-881.11"/>
</a>
</g>
</g>
<!-- Node26 -->
<g id="Node000026" class="node">
<title>Node26</title>
<g id="a_Node000026"><a xlink:href="classMagick_1_1DrawablePopPattern.html" target="_top" xlink:title=" ">
<polygon fill="white" stroke="#666666" points="293.5,-820 136.5,-820 136.5,-801 293.5,-801 293.5,-820"/>
<text text-anchor="middle" x="215" y="-808" font-family="Helvetica,sans-Serif" font-size="10.00">Magick::DrawablePopPattern</text>
</a>
</g>
</g>
<!-- Node0&#45;&gt;Node26 -->
<g id="edge31_Node000000_Node000026" class="edge">
<title>Node0&#45;&gt;Node26</title>
<g id="a_edge31_Node000000_Node000026"><a xlink:title=" ">
<path fill="none" stroke="#63b8ff" d="M59.88,-879.15C74.55,-863.71 98.07,-841.73 123,-829.5 130.97,-825.59 139.71,-822.48 148.53,-820.01"/>
<polygon fill="#63b8ff" stroke="#63b8ff" points="57.26,-876.82 53.05,-886.54 62.4,-881.57 57.26,-876.82"/>
</a>
</g>
</g>
<!-- Node27 -->
<g id="Node000027" class="node">
<title>Node27</title>
<g id="a_Node000027"><a xlink:href="classMagick_1_1DrawablePushClipPath.html" target="_top" xlink:title=" ">
<polygon fill="white" stroke="#666666" points="298.5,-783 131.5,-783 131.5,-764 298.5,-764 298.5,-783"/>
<text text-anchor="middle" x="215" y="-771" font-family="Helvetica,sans-Serif" font-size="10.00">Magick::DrawablePushClipPath</text>
</a>
</g>
</g>
<!-- Node0&#45;&gt;Node27 -->
<g id="edge32_Node000000_Node000027" class="edge">
<title>Node0&#45;&gt;Node27</title>
<g id="a_edge32_Node000000_Node000027"><a xlink:title=" ">
<path fill="none" stroke="#63b8ff" d="M53.24,-877.86C65.4,-854.11 89.73,-813.59 123,-792.5 129.13,-788.61 135.92,-785.5 142.95,-783.02"/>
<polygon fill="#63b8ff" stroke="#63b8ff" points="50.07,-876.4 48.79,-886.91 56.35,-879.49 50.07,-876.4"/>
</a>
</g>
</g>
<!-- Node28 -->
<g id="Node000028" class="node">
<title>Node28</title>
<g id="a_Node000028"><a xlink:href="classMagick_1_1DrawablePushGraphicContext.html" target="_top" xlink:title=" ">
<polygon fill="white" stroke="#666666" points="297.5,-745.5 132.5,-745.5 132.5,-715.5 297.5,-715.5 297.5,-745.5"/>
<text text-anchor="start" x="140.5" y="-733.5" font-family="Helvetica,sans-Serif" font-size="10.00">Magick::DrawablePushGraphic</text>
<text text-anchor="middle" x="215" y="-722.5" font-family="Helvetica,sans-Serif" font-size="10.00">Context</text>
</a>
</g>
</g>
<!-- Node0&#45;&gt;Node28 -->
<g id="edge33_Node000000_Node000028" class="edge">
<title>Node0&#45;&gt;Node28</title>
<g id="a_edge33_Node000000_Node000028"><a xlink:title=" ">
<path fill="none" stroke="#63b8ff" d="M49.96,-877.05C59.55,-846.47 82.37,-787.39 123,-755.5 127.9,-751.66 133.35,-748.4 139.07,-745.65"/>
<polygon fill="#63b8ff" stroke="#63b8ff" points="46.52,-876.33 47.01,-886.92 53.22,-878.33 46.52,-876.33"/>
</a>
</g>
</g>
<!-- Node29 -->
<g id="Node000029" class="node">
<title>Node29</title>
<g id="a_Node000029"><a xlink:href="classMagick_1_1DrawablePushPattern.html" target="_top" xlink:title=" ">
<polygon fill="white" stroke="#666666" points="296,-697 134,-697 134,-678 296,-678 296,-697"/>
<text text-anchor="middle" x="215" y="-685" font-family="Helvetica,sans-Serif" font-size="10.00">Magick::DrawablePushPattern</text>
</a>
</g>
</g>
<!-- Node0&#45;&gt;Node29 -->
<g id="edge34_Node000000_Node000029" class="edge">
<title>Node0&#45;&gt;Node29</title>
<g id="a_edge34_Node000000_Node000029"><a xlink:title=" ">
<path fill="none" stroke="#63b8ff" d="M46.64,-876.71C51.96,-837.71 69.49,-750.88 123,-706.5 127.6,-702.69 132.76,-699.58 138.24,-697.05"/>
<polygon fill="#63b8ff" stroke="#63b8ff" points="43.15,-876.42 45.4,-886.77 50.1,-877.28 43.15,-876.42"/>
</a>
</g>
</g>
<!-- Node30 -->
<g id="Node000030" class="node">
<title>Node30</title>
<g id="a_Node000030"><a xlink:href="classMagick_1_1DrawableRectangle.html" target="_top" xlink:title=" ">
<polygon fill="white" stroke="#666666" points="291.5,-660 138.5,-660 138.5,-641 291.5,-641 291.5,-660"/>
<text text-anchor="middle" x="215" y="-648" font-family="Helvetica,sans-Serif" font-size="10.00">Magick::DrawableRectangle</text>
</a>
</g>
</g>
<!-- Node0&#45;&gt;Node30 -->
<g id="edge35_Node000000_Node000030" class="edge">
<title>Node0&#45;&gt;Node30</title>
<g id="a_edge35_Node000000_Node000030"><a xlink:title=" ">
<path fill="none" stroke="#63b8ff" d="M45.12,-876.94C47.63,-832.74 60.23,-724.76 123,-669.5 127.6,-665.45 132.85,-662.18 138.43,-659.55"/>
<polygon fill="#63b8ff" stroke="#63b8ff" points="41.62,-876.8 44.67,-886.95 48.61,-877.12 41.62,-876.8"/>
</a>
</g>
</g>
<!-- Node31 -->
<g id="Node000031" class="node">
<title>Node31</title>
<g id="a_Node000031"><a xlink:href="classMagick_1_1DrawableRotation.html" target="_top" xlink:title=" ">
<polygon fill="white" stroke="#666666" points="288,-623 142,-623 142,-604 288,-604 288,-623"/>
<text text-anchor="middle" x="215" y="-611" font-family="Helvetica,sans-Serif" font-size="10.00">Magick::DrawableRotation</text>
</a>
</g>
</g>
<!-- Node0&#45;&gt;Node31 -->
<g id="edge36_Node000000_Node000031" class="edge">
<title>Node0&#45;&gt;Node31</title>
<g id="a_edge36_Node000000_Node000031"><a xlink:title=" ">
<path fill="none" stroke="#63b8ff" d="M44.02,-876.52C43.98,-827.14 51.17,-698.59 123,-632.5 128.46,-627.47 134.9,-623.64 141.79,-620.73"/>
<polygon fill="#63b8ff" stroke="#63b8ff" points="40.52,-876.84 44.13,-886.8 47.52,-876.76 40.52,-876.84"/>
</a>
</g>
</g>
<!-- Node32 -->
<g id="Node000032" class="node">
<title>Node32</title>
<g id="a_Node000032"><a xlink:href="classMagick_1_1DrawableRoundRectangle.html" target="_top" xlink:title=" ">
<polygon fill="white" stroke="#666666" points="307,-586 123,-586 123,-567 307,-567 307,-586"/>
<text text-anchor="middle" x="215" y="-574" font-family="Helvetica,sans-Serif" font-size="10.00">Magick::DrawableRoundRectangle</text>
</a>
</g>
</g>
<!-- Node0&#45;&gt;Node32 -->
<g id="edge37_Node000000_Node000032" class="edge">
<title>Node0&#45;&gt;Node32</title>
<g id="a_edge37_Node000000_Node000032"><a xlink:title=" ">
<path fill="none" stroke="#63b8ff" d="M46.95,-876.65C54.83,-816.03 81.47,-635.03 123,-595.5 126.97,-591.72 131.5,-588.6 136.36,-586.05"/>
<polygon fill="#63b8ff" stroke="#63b8ff" points="43.45,-876.44 45.66,-886.8 50.39,-877.32 43.45,-876.44"/>
</a>
</g>
</g>
<!-- Node33 -->
<g id="Node000033" class="node">
<title>Node33</title>
<g id="a_Node000033"><a xlink:href="classMagick_1_1DrawableScaling.html" target="_top" xlink:title=" ">
<polygon fill="white" stroke="#666666" points="285,-549 145,-549 145,-530 285,-530 285,-549"/>
<text text-anchor="middle" x="215" y="-537" font-family="Helvetica,sans-Serif" font-size="10.00">Magick::DrawableScaling</text>
</a>
</g>
</g>
<!-- Node0&#45;&gt;Node33 -->
<g id="edge38_Node000000_Node000033" class="edge">
<title>Node0&#45;&gt;Node33</title>
<g id="a_edge38_Node000000_Node000033"><a xlink:title=" ">
<path fill="none" stroke="#63b8ff" d="M46.32,-876.83C52.78,-811.57 76.68,-603.8 123,-558.5 129.12,-552.52 136.6,-548.2 144.62,-545.11"/>
<polygon fill="#63b8ff" stroke="#63b8ff" points="42.82,-876.69 45.35,-886.98 49.79,-877.36 42.82,-876.69"/>
</a>
</g>
</g>
<!-- Node34 -->
<g id="Node000034" class="node">
<title>Node34</title>
<g id="a_Node000034"><a xlink:href="classMagick_1_1DrawableSkewX.html" target="_top" xlink:title=" ">
<polygon fill="white" stroke="#666666" points="283.5,-512 146.5,-512 146.5,-493 283.5,-493 283.5,-512"/>
<text text-anchor="middle" x="215" y="-500" font-family="Helvetica,sans-Serif" font-size="10.00">Magick::DrawableSkewX</text>
</a>
</g>
</g>
<!-- Node0&#45;&gt;Node34 -->
<g id="edge39_Node000000_Node000034" class="edge">
<title>Node0&#45;&gt;Node34</title>
<g id="a_edge39_Node000000_Node000034"><a xlink:title=" ">
<path fill="none" stroke="#63b8ff" d="M45.86,-876.52C51.06,-806.33 71.97,-572.5 123,-521.5 129.51,-515 137.63,-510.45 146.32,-507.3"/>
<polygon fill="#63b8ff" stroke="#63b8ff" points="42.36,-876.44 45.14,-886.66 49.34,-876.94 42.36,-876.44"/>
</a>
</g>
</g>
<!-- Node35 -->
<g id="Node000035" class="node">
<title>Node35</title>
<g id="a_Node000035"><a xlink:href="classMagick_1_1DrawableSkewY.html" target="_top" xlink:title=" ">
<polygon fill="white" stroke="#666666" points="283,-475 147,-475 147,-456 283,-456 283,-475"/>
<text text-anchor="middle" x="215" y="-463" font-family="Helvetica,sans-Serif" font-size="10.00">Magick::DrawableSkewY</text>
</a>
</g>
</g>
<!-- Node0&#45;&gt;Node35 -->
<g id="edge40_Node000000_Node000035" class="edge">
<title>Node0&#45;&gt;Node35</title>
<g id="a_edge40_Node000000_Node000035"><a xlink:title=" ">
<path fill="none" stroke="#63b8ff" d="M45.45,-876.52C49.43,-801.96 67.17,-541.32 123,-484.5 129.56,-477.82 137.82,-473.2 146.67,-470.03"/>
<polygon fill="#63b8ff" stroke="#63b8ff" points="41.94,-876.67 44.93,-886.83 48.93,-877.02 41.94,-876.67"/>
</a>
</g>
</g>
<!-- Node36 -->
<g id="Node000036" class="node">
<title>Node36</title>
<g id="a_Node000036"><a xlink:href="classMagick_1_1DrawableStrokeAntialias.html" target="_top" xlink:title=" ">
<polygon fill="white" stroke="#666666" points="304,-438 126,-438 126,-419 304,-419 304,-438"/>
<text text-anchor="middle" x="215" y="-426" font-family="Helvetica,sans-Serif" font-size="10.00">Magick::DrawableStrokeAntialias</text>
</a>
</g>
</g>
<!-- Node0&#45;&gt;Node36 -->
<g id="edge41_Node000000_Node000036" class="edge">
<title>Node0&#45;&gt;Node36</title>
<g id="a_edge41_Node000000_Node000036"><a xlink:title=" ">
<path fill="none" stroke="#63b8ff" d="M45.12,-876.28C47.97,-797.2 62.41,-510.11 123,-447.5 126.59,-443.79 130.71,-440.71 135.16,-438.16"/>
<polygon fill="#63b8ff" stroke="#63b8ff" points="41.61,-876.65 44.77,-886.76 48.6,-876.88 41.61,-876.65"/>
</a>
</g>
</g>
<!-- Node37 -->
<g id="Node000037" class="node">
<title>Node37</title>
<g id="a_Node000037"><a xlink:href="classMagick_1_1DrawableStrokeColor.html" target="_top" xlink:title=" ">
<polygon fill="white" stroke="#666666" points="295.5,-401 134.5,-401 134.5,-382 295.5,-382 295.5,-401"/>
<text text-anchor="middle" x="215" y="-389" font-family="Helvetica,sans-Serif" font-size="10.00">Magick::DrawableStrokeColor</text>
</a>
</g>
</g>
<!-- Node0&#45;&gt;Node37 -->
<g id="edge42_Node000000_Node000037" class="edge">
<title>Node0&#45;&gt;Node37</title>
<g id="a_edge42_Node000000_Node000037"><a xlink:title=" ">
<path fill="none" stroke="#63b8ff" d="M44.82,-876.75C46.55,-794.36 57.45,-479.12 123,-410.5 126.57,-406.77 130.67,-403.67 135.1,-401.11"/>
<polygon fill="#63b8ff" stroke="#63b8ff" points="41.32,-876.72 44.63,-886.78 48.32,-876.85 41.32,-876.72"/>
</a>
</g>
</g>
<!-- Node38 -->
<g id="Node000038" class="node">
<title>Node38</title>
<g id="a_Node000038"><a xlink:href="classMagick_1_1DrawableStrokeLineCap.html" target="_top" xlink:title=" ">
<polygon fill="white" stroke="#666666" points="302,-364 128,-364 128,-345 302,-345 302,-364"/>
<text text-anchor="middle" x="215" y="-352" font-family="Helvetica,sans-Serif" font-size="10.00">Magick::DrawableStrokeLineCap</text>
</a>
</g>
</g>
<!-- Node0&#45;&gt;Node38 -->
<g id="edge43_Node000000_Node000038" class="edge">
<title>Node0&#45;&gt;Node38</title>
<g id="a_edge43_Node000000_Node000038"><a xlink:title=" ">
<path fill="none" stroke="#63b8ff" d="M44.57,-876.66C45.29,-790.27 52.62,-448 123,-373.5 126.55,-369.75 130.63,-366.63 135.06,-364.06"/>
<polygon fill="#63b8ff" stroke="#63b8ff" points="41.07,-876.87 44.51,-886.9 48.07,-876.92 41.07,-876.87"/>
</a>
</g>
</g>
<!-- Node39 -->
<g id="Node000039" class="node">
<title>Node39</title>
<g id="a_Node000039"><a xlink:href="classMagick_1_1DrawableStrokeLineJoin.html" target="_top" xlink:title=" ">
<polygon fill="white" stroke="#666666" points="301.5,-327 128.5,-327 128.5,-308 301.5,-308 301.5,-327"/>
<text text-anchor="middle" x="215" y="-315" font-family="Helvetica,sans-Serif" font-size="10.00">Magick::DrawableStrokeLineJoin</text>
</a>
</g>
</g>
<!-- Node0&#45;&gt;Node39 -->
<g id="edge44_Node000000_Node000039" class="edge">
<title>Node0&#45;&gt;Node39</title>
<g id="a_edge44_Node000000_Node000039"><a xlink:title=" ">
<path fill="none" stroke="#63b8ff" d="M44.35,-876.41C44.11,-785.9 47.82,-416.86 123,-336.5 126.53,-332.73 130.6,-329.6 135.01,-327.02"/>
<polygon fill="#63b8ff" stroke="#63b8ff" points="40.85,-876.68 44.4,-886.66 47.85,-876.65 40.85,-876.68"/>
</a>
</g>
</g>
<!-- Node40 -->
<g id="Node000040" class="node">
<title>Node40</title>
<g id="a_Node000040"><a xlink:href="classMagick_1_1DrawableStrokeOpacity.html" target="_top" xlink:title=" ">
<polygon fill="white" stroke="#666666" points="301.5,-290 128.5,-290 128.5,-271 301.5,-271 301.5,-290"/>
<text text-anchor="middle" x="215" y="-278" font-family="Helvetica,sans-Serif" font-size="10.00">Magick::DrawableStrokeOpacity</text>
</a>
</g>
</g>
<!-- Node0&#45;&gt;Node40 -->
<g id="edge45_Node000000_Node000040" class="edge">
<title>Node0&#45;&gt;Node40</title>
<g id="a_edge45_Node000000_Node000040"><a xlink:title=" ">
<path fill="none" stroke="#63b8ff" d="M44.17,-876.89C42.99,-783.63 42.81,-385.95 123,-299.5 126.4,-295.83 130.32,-292.77 134.57,-290.23"/>
<polygon fill="#63b8ff" stroke="#63b8ff" points="40.67,-876.98 44.31,-886.93 47.67,-876.88 40.67,-876.98"/>
</a>
</g>
</g>
<!-- Node41 -->
<g id="Node000041" class="node">
<title>Node41</title>
<g id="a_Node000041"><a xlink:href="classMagick_1_1DrawableStrokeWidth.html" target="_top" xlink:title=" ">
<polygon fill="white" stroke="#666666" points="297,-253 133,-253 133,-234 297,-234 297,-253"/>
<text text-anchor="middle" x="215" y="-241" font-family="Helvetica,sans-Serif" font-size="10.00">Magick::DrawableStrokeWidth</text>
</a>
</g>
</g>
<!-- Node0&#45;&gt;Node41 -->
<g id="edge46_Node000000_Node000041" class="edge">
<title>Node0&#45;&gt;Node41</title>
<g id="a_edge46_Node000000_Node000041"><a xlink:title=" ">
<path fill="none" stroke="#63b8ff" d="M45.6,-876.7C51.44,-774.44 80.23,-308.95 123,-262.5 126.39,-258.82 130.29,-255.75 134.53,-253.2"/>
<polygon fill="#63b8ff" stroke="#63b8ff" points="42.09,-876.68 45.02,-886.86 49.08,-877.08 42.09,-876.68"/>
</a>
</g>
</g>
<!-- Node42 -->
<g id="Node000042" class="node">
<title>Node42</title>
<g id="a_Node000042"><a xlink:href="classMagick_1_1DrawableText.html" target="_top" xlink:title=" ">
<polygon fill="white" stroke="#666666" points="277.5,-216 152.5,-216 152.5,-197 277.5,-197 277.5,-216"/>
<text text-anchor="middle" x="215" y="-204" font-family="Helvetica,sans-Serif" font-size="10.00">Magick::DrawableText</text>
</a>
</g>
</g>
<!-- Node0&#45;&gt;Node42 -->
<g id="edge47_Node000000_Node000042" class="edge">
<title>Node0&#45;&gt;Node42</title>
<g id="a_edge47_Node000000_Node000042"><a xlink:title=" ">
<path fill="none" stroke="#63b8ff" d="M45.46,-876.56C50.76,-770.43 77.8,-274.93 123,-225.5 130.73,-217.04 141.18,-211.82 152.23,-208.68"/>
<polygon fill="#63b8ff" stroke="#63b8ff" points="41.95,-876.65 44.96,-886.81 48.95,-876.99 41.95,-876.65"/>
</a>
</g>
</g>
<!-- Node43 -->
<g id="Node000043" class="node">
<title>Node43</title>
<g id="a_Node000043"><a xlink:href="classMagick_1_1DrawableTextAntialias.html" target="_top" xlink:title=" ">
<polygon fill="white" stroke="#666666" points="298.5,-179 131.5,-179 131.5,-160 298.5,-160 298.5,-179"/>
<text text-anchor="middle" x="215" y="-167" font-family="Helvetica,sans-Serif" font-size="10.00">Magick::DrawableTextAntialias</text>
</a>
</g>
</g>
<!-- Node0&#45;&gt;Node43 -->
<g id="edge48_Node000000_Node000043" class="edge">
<title>Node0&#45;&gt;Node43</title>
<g id="a_edge48_Node000000_Node000043"><a xlink:title=" ">
<path fill="none" stroke="#63b8ff" d="M45.34,-876.5C50.11,-766.77 75.35,-240.93 123,-188.5 126.37,-184.8 130.25,-181.71 134.48,-179.15"/>
<polygon fill="#63b8ff" stroke="#63b8ff" points="41.83,-876.65 44.9,-886.79 48.82,-876.95 41.83,-876.65"/>
</a>
</g>
</g>
<!-- Node44 -->
<g id="Node000044" class="node">
<title>Node44</title>
<g id="a_Node000044"><a xlink:href="classMagick_1_1DrawableTextDecoration.html" target="_top" xlink:title=" ">
<polygon fill="white" stroke="#666666" points="304,-142 126,-142 126,-123 304,-123 304,-142"/>
<text text-anchor="middle" x="215" y="-130" font-family="Helvetica,sans-Serif" font-size="10.00">Magick::DrawableTextDecoration</text>
</a>
</g>
</g>
<!-- Node0&#45;&gt;Node44 -->
<g id="edge49_Node000000_Node000044" class="edge">
<title>Node0&#45;&gt;Node44</title>
<g id="a_edge49_Node000000_Node000044"><a xlink:title=" ">
<path fill="none" stroke="#63b8ff" d="M45.22,-876.53C49.48,-763.47 72.88,-206.94 123,-151.5 126.35,-147.79 130.23,-144.7 134.45,-142.13"/>
<polygon fill="#63b8ff" stroke="#63b8ff" points="41.71,-876.7 44.84,-886.82 48.71,-876.96 41.71,-876.7"/>
</a>
</g>
</g>
<!-- Node45 -->
<g id="Node000045" class="node">
<title>Node45</title>
<g id="a_Node000045"><a xlink:href="classMagick_1_1DrawableTextUnderColor.html" target="_top" xlink:title=" ">
<polygon fill="white" stroke="#666666" points="292,-104.5 138,-104.5 138,-74.5 292,-74.5 292,-104.5"/>
<text text-anchor="start" x="146" y="-92.5" font-family="Helvetica,sans-Serif" font-size="10.00">Magick::DrawableTextUnder</text>
<text text-anchor="middle" x="215" y="-81.5" font-family="Helvetica,sans-Serif" font-size="10.00">Color</text>
</a>
</g>
</g>
<!-- Node0&#45;&gt;Node45 -->
<g id="edge50_Node000000_Node000045" class="edge">
<title>Node0&#45;&gt;Node45</title>
<g id="a_edge50_Node000000_Node000045"><a xlink:title=" ">
<path fill="none" stroke="#63b8ff" d="M45.17,-876.68C49.24,-760.85 72.25,-174.59 123,-114.5 127.12,-109.62 132.1,-105.64 137.58,-102.41"/>
<polygon fill="#63b8ff" stroke="#63b8ff" points="41.66,-876.79 44.81,-886.91 48.66,-877.03 41.66,-876.79"/>
</a>
</g>
</g>
<!-- Node46 -->
<g id="Node000046" class="node">
<title>Node46</title>
<g id="a_Node000046"><a xlink:href="classMagick_1_1DrawableTranslation.html" target="_top" xlink:title=" ">
<polygon fill="white" stroke="#666666" points="294,-56 136,-56 136,-37 294,-37 294,-56"/>
<text text-anchor="middle" x="215" y="-44" font-family="Helvetica,sans-Serif" font-size="10.00">Magick::DrawableTranslation</text>
</a>
</g>
</g>
<!-- Node0&#45;&gt;Node46 -->
<g id="edge51_Node000000_Node000046" class="edge">
<title>Node0&#45;&gt;Node46</title>
<g id="a_edge51_Node000000_Node000046"><a xlink:title=" ">
<path fill="none" stroke="#63b8ff" d="M44.99,-876.53C48.14,-755.92 67.15,-127.97 123,-65.5 126.66,-61.41 130.95,-58.07 135.64,-55.36"/>
<polygon fill="#63b8ff" stroke="#63b8ff" points="41.48,-876.76 44.73,-886.85 48.48,-876.94 41.48,-876.76"/>
</a>
</g>
</g>
<!-- Node47 -->
<g id="Node000047" class="node">
<title>Node47</title>
<g id="a_Node000047"><a xlink:href="classMagick_1_1DrawableViewbox.html" target="_top" xlink:title=" ">
<polygon fill="white" stroke="#666666" points="288,-19 142,-19 142,0 288,0 288,-19"/>
<text text-anchor="middle" x="215" y="-7" font-family="Helvetica,sans-Serif" font-size="10.00">Magick::DrawableViewbox</text>
</a>
</g>
</g>
<!-- Node0&#45;&gt;Node47 -->
<g id="edge52_Node000000_Node000047" class="edge">
<title>Node0&#45;&gt;Node47</title>
<g id="a_edge52_Node000000_Node000047"><a xlink:title=" ">
<path fill="none" stroke="#63b8ff" d="M44.9,-876.8C47.58,-753.76 64.63,-94.04 123,-28.5 128.15,-22.71 134.57,-18.43 141.6,-15.29"/>
<polygon fill="#63b8ff" stroke="#63b8ff" points="41.4,-876.92 44.69,-886.99 48.4,-877.07 41.4,-876.92"/>
</a>
</g>
</g>
</g>
</svg>
