<?xml version="1.0" encoding="UTF-8" standalone="no"?>
<!DOCTYPE svg PUBLIC "-//W3C//DTD SVG 1.1//EN"
 "http://www.w3.org/Graphics/SVG/1.1/DTD/svg11.dtd">
<!-- Generated by graphviz version 2.43.0 (0)
 -->
<!-- Title: Graphical Class Hierarchy Pages: 1 -->
<svg width="285pt" height="134pt"
 viewBox="0.00 0.00 285.00 134.00" xmlns="http://www.w3.org/2000/svg" xmlns:xlink="http://www.w3.org/1999/xlink">
<g id="graph0" class="graph" transform="scale(1 1) rotate(0) translate(4 130)">
<title>Graphical Class Hierarchy</title>
<!-- Node0 -->
<g id="Node000000" class="node">
<title>Node0</title>
<g id="a_Node000000"><a xlink:title=" ">
<polygon fill="#e0e0e0" stroke="#999999" points="122,-72.5 0,-72.5 0,-53.5 122,-53.5 122,-72.5"/>
<text text-anchor="middle" x="61" y="-60.5" font-family="Helvetica,sans-Serif" font-size="10.00">std::integral_constant</text>
</a>
</g>
</g>
<!-- Node1 -->
<g id="Node000001" class="node">
<title>Node1</title>
<g id="a_Node000001"><a xlink:href="structdetail_1_1is__range___3_01T_00_01void_01_4.html" target="_top" xlink:title=" ">
<polygon fill="white" stroke="#666666" points="270,-126 165,-126 165,-96 270,-96 270,-126"/>
<text text-anchor="start" x="173" y="-114" font-family="Helvetica,sans-Serif" font-size="10.00">detail::is_range_&lt;</text>
<text text-anchor="middle" x="217.5" y="-103" font-family="Helvetica,sans-Serif" font-size="10.00"> T, void &gt;</text>
</a>
</g>
</g>
<!-- Node0&#45;&gt;Node1 -->
<g id="edge267_Node000000_Node000001" class="edge">
<title>Node0&#45;&gt;Node1</title>
<g id="a_edge267_Node000000_Node000001"><a xlink:title=" ">
<path fill="none" stroke="#63b8ff" d="M102.65,-75.63C122.69,-81.86 147.01,-89.41 168.02,-95.94"/>
<polygon fill="#63b8ff" stroke="#63b8ff" points="103.48,-72.22 92.89,-72.6 101.41,-78.91 103.48,-72.22"/>
</a>
</g>
</g>
<!-- Node2 -->
<g id="Node000002" class="node">
<title>Node2</title>
<g id="a_Node000002"><a xlink:href="structdetail_1_1range__format__kind__.html" target="_top" xlink:title=" ">
<polygon fill="white" stroke="#666666" points="275.5,-78 159.5,-78 159.5,-48 275.5,-48 275.5,-78"/>
<text text-anchor="start" x="167.5" y="-66" font-family="Helvetica,sans-Serif" font-size="10.00">detail::range_format</text>
<text text-anchor="middle" x="217.5" y="-55" font-family="Helvetica,sans-Serif" font-size="10.00">_kind_&lt; T &gt;</text>
</a>
</g>
</g>
<!-- Node0&#45;&gt;Node2 -->
<g id="edge268_Node000000_Node000002" class="edge">
<title>Node0&#45;&gt;Node2</title>
<g id="a_edge268_Node000000_Node000002"><a xlink:title=" ">
<path fill="none" stroke="#63b8ff" d="M132.29,-63C141.32,-63 150.48,-63 159.27,-63"/>
<polygon fill="#63b8ff" stroke="#63b8ff" points="132.18,-59.5 122.18,-63 132.18,-66.5 132.18,-59.5"/>
</a>
</g>
</g>
<!-- Node3 -->
<g id="Node000003" class="node">
<title>Node3</title>
<g id="a_Node000003"><a xlink:href="structdetail_1_1type__constant.html" target="_top" xlink:title=" ">
<polygon fill="white" stroke="#666666" points="277,-30 158,-30 158,0 277,0 277,-30"/>
<text text-anchor="start" x="166" y="-18" font-family="Helvetica,sans-Serif" font-size="10.00">detail::type_constant</text>
<text text-anchor="middle" x="217.5" y="-7" font-family="Helvetica,sans-Serif" font-size="10.00">&lt; T, Char &gt;</text>
</a>
</g>
</g>
<!-- Node0&#45;&gt;Node3 -->
<g id="edge269_Node000000_Node000003" class="edge">
<title>Node0&#45;&gt;Node3</title>
<g id="a_edge269_Node000000_Node000003"><a xlink:title=" ">
<path fill="none" stroke="#63b8ff" d="M102.65,-50.37C122.69,-44.14 147.01,-36.59 168.02,-30.06"/>
<polygon fill="#63b8ff" stroke="#63b8ff" points="101.41,-47.09 92.89,-53.4 103.48,-53.78 101.41,-47.09"/>
</a>
</g>
</g>
</g>
</svg>
