<?xml version="1.0" encoding="UTF-8" standalone="no"?>
<!DOCTYPE svg PUBLIC "-//W3C//DTD SVG 1.1//EN"
 "http://www.w3.org/Graphics/SVG/1.1/DTD/svg11.dtd">
<!-- Generated by graphviz version 2.43.0 (0)
 -->
<!-- Title: Graphical Class Hierarchy Pages: 1 -->
<svg width="212pt" height="134pt"
 viewBox="0.00 0.00 212.00 134.00" xmlns="http://www.w3.org/2000/svg" xmlns:xlink="http://www.w3.org/1999/xlink">
<g id="graph0" class="graph" transform="scale(1 1) rotate(0) translate(4 130)">
<title>Graphical Class Hierarchy</title>
<!-- Node0 -->
<g id="Node000000" class="node">
<title>Node0</title>
<g id="a_Node000000"><a xlink:title=" ">
<polygon fill="#e0e0e0" stroke="#999999" points="67,-72.5 0,-72.5 0,-53.5 67,-53.5 67,-72.5"/>
<text text-anchor="middle" x="33.5" y="-60.5" font-family="Helvetica,sans-Serif" font-size="10.00">std::decay</text>
</a>
</g>
</g>
<!-- Node1 -->
<g id="Node000001" class="node">
<title>Node1</title>
<g id="a_Node000001"><a xlink:href="structdetail_1_1allocator.html" target="_top" xlink:title=" ">
<polygon fill="white" stroke="#666666" points="204,-126 103,-126 103,-96 204,-96 204,-126"/>
<text text-anchor="start" x="111" y="-114" font-family="Helvetica,sans-Serif" font-size="10.00">detail::allocator&lt;</text>
<text text-anchor="middle" x="153.5" y="-103" font-family="Helvetica,sans-Serif" font-size="10.00"> bigit &gt;</text>
</a>
</g>
</g>
<!-- Node0&#45;&gt;Node1 -->
<g id="edge177_Node000000_Node000001" class="edge">
<title>Node0&#45;&gt;Node1</title>
<g id="a_edge177_Node000000_Node000001"><a xlink:title=" ">
<path fill="none" stroke="#8b1a1a" d="M67.45,-76.4C82.38,-82.48 100.09,-89.68 115.47,-95.94"/>
<polygon fill="#8b1a1a" stroke="#8b1a1a" points="68.68,-73.12 58.1,-72.6 66.04,-79.61 68.68,-73.12"/>
</a>
</g>
</g>
<!-- Node2 -->
<g id="Node000002" class="node">
<title>Node2</title>
<g id="a_Node000002"><a xlink:href="structdetail_1_1allocator.html" target="_top" xlink:title=" ">
<polygon fill="white" stroke="#666666" points="204,-78 103,-78 103,-48 204,-48 204,-78"/>
<text text-anchor="start" x="111" y="-66" font-family="Helvetica,sans-Serif" font-size="10.00">detail::allocator&lt;</text>
<text text-anchor="middle" x="153.5" y="-55" font-family="Helvetica,sans-Serif" font-size="10.00"> wchar_t &gt;</text>
</a>
</g>
</g>
<!-- Node0&#45;&gt;Node2 -->
<g id="edge178_Node000000_Node000002" class="edge">
<title>Node0&#45;&gt;Node2</title>
<g id="a_edge178_Node000000_Node000002"><a xlink:title=" ">
<path fill="none" stroke="#8b1a1a" d="M77.26,-63C85.55,-63 94.31,-63 102.8,-63"/>
<polygon fill="#8b1a1a" stroke="#8b1a1a" points="77.06,-59.5 67.06,-63 77.06,-66.5 77.06,-59.5"/>
</a>
</g>
</g>
<!-- Node3 -->
<g id="Node000003" class="node">
<title>Node3</title>
<g id="a_Node000003"><a xlink:href="structdetail_1_1allocator.html" target="_top" xlink:title=" ">
<polygon fill="white" stroke="#666666" points="204,-30 103,-30 103,0 204,0 204,-30"/>
<text text-anchor="start" x="111" y="-18" font-family="Helvetica,sans-Serif" font-size="10.00">detail::allocator&lt;</text>
<text text-anchor="middle" x="153.5" y="-7" font-family="Helvetica,sans-Serif" font-size="10.00"> T, bool &gt;</text>
</a>
</g>
</g>
<!-- Node0&#45;&gt;Node3 -->
<g id="edge179_Node000000_Node000003" class="edge">
<title>Node0&#45;&gt;Node3</title>
<g id="a_edge179_Node000000_Node000003"><a xlink:title=" ">
<path fill="none" stroke="#8b1a1a" d="M67.45,-49.6C82.38,-43.52 100.09,-36.32 115.47,-30.06"/>
<polygon fill="#8b1a1a" stroke="#8b1a1a" points="66.04,-46.39 58.1,-53.4 68.68,-52.88 66.04,-46.39"/>
</a>
</g>
</g>
</g>
</svg>
