<?xml version="1.0" encoding="UTF-8" standalone="no"?>
<!DOCTYPE svg PUBLIC "-//W3C//DTD SVG 1.1//EN"
 "http://www.w3.org/Graphics/SVG/1.1/DTD/svg11.dtd">
<!-- Generated by graphviz version 2.43.0 (0)
 -->
<!-- Title: thirdparty/RadioLib/include/RadioLib/protocols/Print/ITA2String.h Pages: 1 -->
<svg width="585pt" height="555pt"
 viewBox="0.00 0.00 585.40 555.00" xmlns="http://www.w3.org/2000/svg" xmlns:xlink="http://www.w3.org/1999/xlink">
<g id="graph0" class="graph" transform="scale(1 1) rotate(0) translate(4 551)">
<title>thirdparty/RadioLib/include/RadioLib/protocols/Print/ITA2String.h</title>
<!-- Node1 -->
<g id="Node000001" class="node">
<title>Node1</title>
<g id="a_Node000001"><a xlink:title=" ">
<polygon fill="#999999" stroke="#666666" points="393.4,-547 245.4,-547 245.4,-506 393.4,-506 393.4,-547"/>
<text text-anchor="start" x="253.4" y="-535" font-family="Helvetica,sans-Serif" font-size="10.00">thirdparty/RadioLib</text>
<text text-anchor="start" x="253.4" y="-524" font-family="Helvetica,sans-Serif" font-size="10.00">/include/RadioLib/protocols</text>
<text text-anchor="middle" x="319.4" y="-513" font-family="Helvetica,sans-Serif" font-size="10.00">/Print/ITA2String.h</text>
</a>
</g>
</g>
<!-- Node2 -->
<g id="Node000002" class="node">
<title>Node2</title>
<g id="a_Node000002"><a xlink:href="BellModem_8h.html" target="_top" xlink:title=" ">
<polygon fill="white" stroke="#666666" points="183.4,-393 35.4,-393 35.4,-352 183.4,-352 183.4,-393"/>
<text text-anchor="start" x="43.4" y="-381" font-family="Helvetica,sans-Serif" font-size="10.00">thirdparty/RadioLib</text>
<text text-anchor="start" x="43.4" y="-370" font-family="Helvetica,sans-Serif" font-size="10.00">/include/RadioLib/protocols</text>
<text text-anchor="middle" x="109.4" y="-359" font-family="Helvetica,sans-Serif" font-size="10.00">/BellModem/BellModem.h</text>
</a>
</g>
</g>
<!-- Node1&#45;&gt;Node2 -->
<g id="edge1_Node000001_Node000002" class="edge">
<title>Node1&#45;&gt;Node2</title>
<g id="a_edge1_Node000001_Node000002"><a xlink:title=" ">
<path fill="none" stroke="#63b8ff" d="M280.65,-500.29C266.59,-490.96 250.66,-480.17 236.4,-470 200.33,-444.27 159.74,-413.01 134.37,-393.18"/>
<polygon fill="#63b8ff" stroke="#63b8ff" points="278.86,-503.3 289.14,-505.89 282.72,-497.46 278.86,-503.3"/>
</a>
</g>
</g>
<!-- Node9 -->
<g id="Node000009" class="node">
<title>Node9</title>
<g id="a_Node000009"><a xlink:href="Print_8h.html" target="_top" xlink:title=" ">
<polygon fill="white" stroke="#666666" points="393.4,-470 245.4,-470 245.4,-429 393.4,-429 393.4,-470"/>
<text text-anchor="start" x="253.4" y="-458" font-family="Helvetica,sans-Serif" font-size="10.00">thirdparty/RadioLib</text>
<text text-anchor="start" x="253.4" y="-447" font-family="Helvetica,sans-Serif" font-size="10.00">/include/RadioLib/protocols</text>
<text text-anchor="middle" x="319.4" y="-436" font-family="Helvetica,sans-Serif" font-size="10.00">/Print/Print.h</text>
</a>
</g>
</g>
<!-- Node1&#45;&gt;Node9 -->
<g id="edge10_Node000001_Node000009" class="edge">
<title>Node1&#45;&gt;Node9</title>
<g id="a_edge10_Node000001_Node000009"><a xlink:title=" ">
<path fill="none" stroke="#63b8ff" d="M319.4,-495.69C319.4,-487.08 319.4,-477.9 319.4,-470.07"/>
<polygon fill="#63b8ff" stroke="#63b8ff" points="315.9,-495.79 319.4,-505.79 322.9,-495.79 315.9,-495.79"/>
</a>
</g>
</g>
<!-- Node12 -->
<g id="Node000012" class="node">
<title>Node12</title>
<g id="a_Node000012"><a xlink:href="RTTY_8h.html" target="_top" xlink:title=" ">
<polygon fill="white" stroke="#666666" points="577.4,-393 429.4,-393 429.4,-352 577.4,-352 577.4,-393"/>
<text text-anchor="start" x="437.4" y="-381" font-family="Helvetica,sans-Serif" font-size="10.00">thirdparty/RadioLib</text>
<text text-anchor="start" x="437.4" y="-370" font-family="Helvetica,sans-Serif" font-size="10.00">/include/RadioLib/protocols</text>
<text text-anchor="middle" x="503.4" y="-359" font-family="Helvetica,sans-Serif" font-size="10.00">/RTTY/RTTY.h</text>
</a>
</g>
</g>
<!-- Node1&#45;&gt;Node12 -->
<g id="edge19_Node000001_Node000012" class="edge">
<title>Node1&#45;&gt;Node12</title>
<g id="a_edge19_Node000001_Node000012"><a xlink:title=" ">
<path fill="none" stroke="#63b8ff" d="M359.85,-500.47C373.71,-491.37 389.07,-480.69 402.4,-470 433.05,-445.42 465.35,-413.3 484.94,-393.03"/>
<polygon fill="#63b8ff" stroke="#63b8ff" points="357.93,-497.54 351.44,-505.92 361.74,-503.42 357.93,-497.54"/>
</a>
</g>
</g>
<!-- Node3 -->
<g id="Node000003" class="node">
<title>Node3</title>
<g id="a_Node000003"><a xlink:href="RadioLib_8h.html" target="_top" xlink:title=" ">
<polygon fill="white" stroke="#666666" points="292.4,-162 138.4,-162 138.4,-132 292.4,-132 292.4,-162"/>
<text text-anchor="start" x="146.4" y="-150" font-family="Helvetica,sans-Serif" font-size="10.00">thirdparty/RadioLib</text>
<text text-anchor="middle" x="215.4" y="-139" font-family="Helvetica,sans-Serif" font-size="10.00">/include/RadioLib/RadioLib.h</text>
</a>
</g>
</g>
<!-- Node2&#45;&gt;Node3 -->
<g id="edge2_Node000002_Node000003" class="edge">
<title>Node2&#45;&gt;Node3</title>
<g id="a_edge2_Node000002_Node000003"><a xlink:title=" ">
<path fill="none" stroke="#63b8ff" d="M56.59,-346.39C44.81,-338.33 33.67,-328.23 26.4,-316 -0.43,-270.83 -12.83,-239.49 19.4,-198 34.27,-178.87 90.06,-165.83 138.34,-157.88"/>
<polygon fill="#63b8ff" stroke="#63b8ff" points="54.92,-349.48 65.23,-351.91 58.69,-343.58 54.92,-349.48"/>
</a>
</g>
</g>
<!-- Node7 -->
<g id="Node000007" class="node">
<title>Node7</title>
<g id="a_Node000007"><a xlink:href="AX25_8h.html" target="_top" xlink:title=" ">
<polygon fill="white" stroke="#666666" points="183.4,-316 35.4,-316 35.4,-275 183.4,-275 183.4,-316"/>
<text text-anchor="start" x="43.4" y="-304" font-family="Helvetica,sans-Serif" font-size="10.00">thirdparty/RadioLib</text>
<text text-anchor="start" x="43.4" y="-293" font-family="Helvetica,sans-Serif" font-size="10.00">/include/RadioLib/protocols</text>
<text text-anchor="middle" x="109.4" y="-282" font-family="Helvetica,sans-Serif" font-size="10.00">/AX25/AX25.h</text>
</a>
</g>
</g>
<!-- Node2&#45;&gt;Node7 -->
<g id="edge6_Node000002_Node000007" class="edge">
<title>Node2&#45;&gt;Node7</title>
<g id="a_edge6_Node000002_Node000007"><a xlink:title=" ">
<path fill="none" stroke="#63b8ff" d="M109.4,-341.69C109.4,-333.08 109.4,-323.9 109.4,-316.07"/>
<polygon fill="#63b8ff" stroke="#63b8ff" points="105.9,-341.79 109.4,-351.79 112.9,-341.79 105.9,-341.79"/>
</a>
</g>
</g>
<!-- Node4 -->
<g id="Node000004" class="node">
<title>Node4</title>
<g id="a_Node000004"><a xlink:href="PiHal_8h.html" target="_top" xlink:title=" ">
<polygon fill="white" stroke="#666666" points="274.4,-96 156.4,-96 156.4,-55 274.4,-55 274.4,-96"/>
<text text-anchor="start" x="164.4" y="-84" font-family="Helvetica,sans-Serif" font-size="10.00">thirdparty/RadioLib</text>
<text text-anchor="start" x="164.4" y="-73" font-family="Helvetica,sans-Serif" font-size="10.00">/include/RadioLib/hal</text>
<text text-anchor="middle" x="215.4" y="-62" font-family="Helvetica,sans-Serif" font-size="10.00">/RPi/PiHal.h</text>
</a>
</g>
</g>
<!-- Node3&#45;&gt;Node4 -->
<g id="edge3_Node000003_Node000004" class="edge">
<title>Node3&#45;&gt;Node4</title>
<g id="a_edge3_Node000003_Node000004"><a xlink:title=" ">
<path fill="none" stroke="#63b8ff" d="M215.4,-121.91C215.4,-113.47 215.4,-104.1 215.4,-96.07"/>
<polygon fill="#63b8ff" stroke="#63b8ff" points="211.9,-121.94 215.4,-131.94 218.9,-121.94 211.9,-121.94"/>
</a>
</g>
</g>
<!-- Node5 -->
<g id="Node000005" class="node">
<title>Node5</title>
<g id="a_Node000005"><a xlink:href="receiver-normal_8cpp.html" target="_top" xlink:title="CHRONOS&#45;LoRa Receiver program (Normal)">
<polygon fill="white" stroke="#666666" points="202.4,-19 70.4,-19 70.4,0 202.4,0 202.4,-19"/>
<text text-anchor="middle" x="136.4" y="-7" font-family="Helvetica,sans-Serif" font-size="10.00">src/receiver&#45;normal.cpp</text>
</a>
</g>
</g>
<!-- Node4&#45;&gt;Node5 -->
<g id="edge4_Node000004_Node000005" class="edge">
<title>Node4&#45;&gt;Node5</title>
<g id="a_edge4_Node000004_Node000005"><a xlink:title=" ">
<path fill="none" stroke="#63b8ff" d="M183.44,-48.61C170.56,-38.17 156.56,-26.83 147.21,-19.26"/>
<polygon fill="#63b8ff" stroke="#63b8ff" points="181.29,-51.37 191.27,-54.95 185.7,-45.94 181.29,-51.37"/>
</a>
</g>
</g>
<!-- Node6 -->
<g id="Node000006" class="node">
<title>Node6</title>
<g id="a_Node000006"><a xlink:href="transmitter-normal_8cpp.html" target="_top" xlink:title="CHRONOS&#45;LoRa Transmitter program (Normal)">
<polygon fill="white" stroke="#666666" points="367.9,-19 220.9,-19 220.9,0 367.9,0 367.9,-19"/>
<text text-anchor="middle" x="294.4" y="-7" font-family="Helvetica,sans-Serif" font-size="10.00">src/transmitter&#45;normal.cpp</text>
</a>
</g>
</g>
<!-- Node4&#45;&gt;Node6 -->
<g id="edge5_Node000004_Node000006" class="edge">
<title>Node4&#45;&gt;Node6</title>
<g id="a_edge5_Node000004_Node000006"><a xlink:title=" ">
<path fill="none" stroke="#63b8ff" d="M247.36,-48.61C260.24,-38.17 274.24,-26.83 283.59,-19.26"/>
<polygon fill="#63b8ff" stroke="#63b8ff" points="245.1,-45.94 239.53,-54.95 249.51,-51.37 245.1,-45.94"/>
</a>
</g>
</g>
<!-- Node7&#45;&gt;Node3 -->
<g id="edge7_Node000007_Node000003" class="edge">
<title>Node7&#45;&gt;Node3</title>
<g id="a_edge7_Node000007_Node000003"><a xlink:title=" ">
<path fill="none" stroke="#63b8ff" d="M58.01,-269.13C46.94,-261.1 36.68,-251.09 30.4,-239 22,-222.83 19.32,-212.47 30.4,-198 43.93,-180.33 93.82,-167.48 138.38,-159.23"/>
<polygon fill="#63b8ff" stroke="#63b8ff" points="56.33,-272.21 66.59,-274.88 60.24,-266.4 56.33,-272.21"/>
</a>
</g>
</g>
<!-- Node8 -->
<g id="Node000008" class="node">
<title>Node8</title>
<g id="a_Node000008"><a xlink:href="APRS_8h.html" target="_top" xlink:title=" ">
<polygon fill="white" stroke="#666666" points="187.4,-239 39.4,-239 39.4,-198 187.4,-198 187.4,-239"/>
<text text-anchor="start" x="47.4" y="-227" font-family="Helvetica,sans-Serif" font-size="10.00">thirdparty/RadioLib</text>
<text text-anchor="start" x="47.4" y="-216" font-family="Helvetica,sans-Serif" font-size="10.00">/include/RadioLib/protocols</text>
<text text-anchor="middle" x="113.4" y="-205" font-family="Helvetica,sans-Serif" font-size="10.00">/APRS/APRS.h</text>
</a>
</g>
</g>
<!-- Node7&#45;&gt;Node8 -->
<g id="edge8_Node000007_Node000008" class="edge">
<title>Node7&#45;&gt;Node8</title>
<g id="a_edge8_Node000007_Node000008"><a xlink:title=" ">
<path fill="none" stroke="#63b8ff" d="M110.99,-264.69C111.45,-256.08 111.94,-246.9 112.36,-239.07"/>
<polygon fill="#63b8ff" stroke="#63b8ff" points="107.49,-264.62 110.45,-274.79 114.48,-265 107.49,-264.62"/>
</a>
</g>
</g>
<!-- Node8&#45;&gt;Node3 -->
<g id="edge9_Node000008_Node000003" class="edge">
<title>Node8&#45;&gt;Node3</title>
<g id="a_edge9_Node000008_Node000003"><a xlink:title=" ">
<path fill="none" stroke="#63b8ff" d="M150.6,-192.15C165.47,-182.02 182.03,-170.74 194.69,-162.11"/>
<polygon fill="#63b8ff" stroke="#63b8ff" points="148.38,-189.43 142.08,-197.96 152.32,-195.22 148.38,-189.43"/>
</a>
</g>
</g>
<!-- Node9&#45;&gt;Node2 -->
<g id="edge12_Node000009_Node000002" class="edge">
<title>Node9&#45;&gt;Node2</title>
<g id="a_edge12_Node000009_Node000002"><a xlink:title=" ">
<path fill="none" stroke="#63b8ff" d="M255.11,-425.54C226.01,-415.15 191.97,-402.99 164.12,-393.04"/>
<polygon fill="#63b8ff" stroke="#63b8ff" points="254.18,-428.92 264.77,-428.99 256.53,-422.33 254.18,-428.92"/>
</a>
</g>
</g>
<!-- Node9&#45;&gt;Node3 -->
<g id="edge11_Node000009_Node000003" class="edge">
<title>Node9&#45;&gt;Node3</title>
<g id="a_edge11_Node000009_Node000003"><a xlink:title=" ">
<path fill="none" stroke="#63b8ff" d="M294.81,-421.02C273.73,-395.69 244.59,-356.07 230.4,-316 211.25,-261.9 212.63,-192.16 214.33,-162.44"/>
<polygon fill="#63b8ff" stroke="#63b8ff" points="292.2,-423.36 301.34,-428.72 297.54,-418.83 292.2,-423.36"/>
</a>
</g>
</g>
<!-- Node10 -->
<g id="Node000010" class="node">
<title>Node10</title>
<g id="a_Node000010"><a xlink:href="Hellschreiber_8h.html" target="_top" xlink:title=" ">
<polygon fill="white" stroke="#666666" points="399.4,-316 239.4,-316 239.4,-275 399.4,-275 399.4,-316"/>
<text text-anchor="start" x="247.4" y="-304" font-family="Helvetica,sans-Serif" font-size="10.00">thirdparty/RadioLib</text>
<text text-anchor="start" x="247.4" y="-293" font-family="Helvetica,sans-Serif" font-size="10.00">/include/RadioLib/protocols</text>
<text text-anchor="middle" x="319.4" y="-282" font-family="Helvetica,sans-Serif" font-size="10.00">/Hellschreiber/Hellschreiber.h</text>
</a>
</g>
</g>
<!-- Node9&#45;&gt;Node10 -->
<g id="edge13_Node000009_Node000010" class="edge">
<title>Node9&#45;&gt;Node10</title>
<g id="a_edge13_Node000009_Node000010"><a xlink:title=" ">
<path fill="none" stroke="#63b8ff" d="M319.4,-418.58C319.4,-388.36 319.4,-342.53 319.4,-316.47"/>
<polygon fill="#63b8ff" stroke="#63b8ff" points="315.9,-418.94 319.4,-428.94 322.9,-418.94 315.9,-418.94"/>
</a>
</g>
</g>
<!-- Node11 -->
<g id="Node000011" class="node">
<title>Node11</title>
<g id="a_Node000011"><a xlink:href="Morse_8h.html" target="_top" xlink:title=" ">
<polygon fill="white" stroke="#666666" points="447.4,-239 299.4,-239 299.4,-198 447.4,-198 447.4,-239"/>
<text text-anchor="start" x="307.4" y="-227" font-family="Helvetica,sans-Serif" font-size="10.00">thirdparty/RadioLib</text>
<text text-anchor="start" x="307.4" y="-216" font-family="Helvetica,sans-Serif" font-size="10.00">/include/RadioLib/protocols</text>
<text text-anchor="middle" x="373.4" y="-205" font-family="Helvetica,sans-Serif" font-size="10.00">/Morse/Morse.h</text>
</a>
</g>
</g>
<!-- Node9&#45;&gt;Node11 -->
<g id="edge15_Node000009_Node000011" class="edge">
<title>Node9&#45;&gt;Node11</title>
<g id="a_edge15_Node000009_Node000011"><a xlink:title=" ">
<path fill="none" stroke="#63b8ff" d="M344.86,-421.3C366.51,-396.17 396.01,-356.66 408.4,-316 413.71,-298.57 413.46,-292.51 408.4,-275 404.67,-262.09 396.94,-249.29 389.69,-239.24"/>
<polygon fill="#63b8ff" stroke="#63b8ff" points="342.12,-419.12 338.14,-428.94 347.37,-423.75 342.12,-419.12"/>
</a>
</g>
</g>
<!-- Node9&#45;&gt;Node12 -->
<g id="edge17_Node000009_Node000012" class="edge">
<title>Node9&#45;&gt;Node12</title>
<g id="a_edge17_Node000009_Node000012"><a xlink:title=" ">
<path fill="none" stroke="#63b8ff" d="M376.73,-425.13C402.01,-414.83 431.37,-402.86 455.46,-393.04"/>
<polygon fill="#63b8ff" stroke="#63b8ff" points="375.2,-421.97 367.26,-428.99 377.85,-428.46 375.2,-421.97"/>
</a>
</g>
</g>
<!-- Node10&#45;&gt;Node3 -->
<g id="edge14_Node000010_Node000003" class="edge">
<title>Node10&#45;&gt;Node3</title>
<g id="a_edge14_Node000010_Node000003"><a xlink:title=" ">
<path fill="none" stroke="#63b8ff" d="M299.5,-266.46C277.37,-235.3 242.52,-186.2 225.47,-162.18"/>
<polygon fill="#63b8ff" stroke="#63b8ff" points="296.73,-268.61 305.37,-274.74 302.44,-264.56 296.73,-268.61"/>
</a>
</g>
</g>
<!-- Node11&#45;&gt;Node3 -->
<g id="edge16_Node000011_Node000003" class="edge">
<title>Node11&#45;&gt;Node3</title>
<g id="a_edge16_Node000011_Node000003"><a xlink:title=" ">
<path fill="none" stroke="#63b8ff" d="M319.62,-193.85C295.64,-183.3 268.19,-171.22 247.48,-162.11"/>
<polygon fill="#63b8ff" stroke="#63b8ff" points="318.41,-197.13 328.97,-197.96 321.22,-190.73 318.41,-197.13"/>
</a>
</g>
</g>
<!-- Node12&#45;&gt;Node3 -->
<g id="edge18_Node000012_Node000003" class="edge">
<title>Node12&#45;&gt;Node3</title>
<g id="a_edge18_Node000012_Node000003"><a xlink:title=" ">
<path fill="none" stroke="#63b8ff" d="M504.2,-341.66C503.53,-302.8 496.17,-235.45 456.4,-198 432.99,-175.95 353.81,-162.55 292.53,-155.24"/>
<polygon fill="#63b8ff" stroke="#63b8ff" points="500.7,-341.82 504.24,-351.81 507.7,-341.8 500.7,-341.82"/>
</a>
</g>
</g>
</g>
</svg>
