<?xml version="1.0" encoding="UTF-8" standalone="no"?>
<!DOCTYPE svg PUBLIC "-//W3C//DTD SVG 1.1//EN"
 "http://www.w3.org/Graphics/SVG/1.1/DTD/svg11.dtd">
<!-- Generated by graphviz version 2.43.0 (0)
 -->
<!-- Title: thirdparty/RadioLib/include/RadioLib/modules/LLCC68/LLCC68.h Pages: 1 -->
<svg width="310pt" height="247pt"
 viewBox="0.00 0.00 309.50 247.00" xmlns="http://www.w3.org/2000/svg" xmlns:xlink="http://www.w3.org/1999/xlink">
<g id="graph0" class="graph" transform="scale(1 1) rotate(0) translate(4 243)">
<title>thirdparty/RadioLib/include/RadioLib/modules/LLCC68/LLCC68.h</title>
<!-- Node1 -->
<g id="Node000001" class="node">
<title>Node1</title>
<g id="a_Node000001"><a xlink:title=" ">
<polygon fill="#999999" stroke="#666666" points="217.5,-239 72.5,-239 72.5,-198 217.5,-198 217.5,-239"/>
<text text-anchor="start" x="80.5" y="-227" font-family="Helvetica,sans-Serif" font-size="10.00">thirdparty/RadioLib</text>
<text text-anchor="start" x="80.5" y="-216" font-family="Helvetica,sans-Serif" font-size="10.00">/include/RadioLib/modules</text>
<text text-anchor="middle" x="145" y="-205" font-family="Helvetica,sans-Serif" font-size="10.00">/LLCC68/LLCC68.h</text>
</a>
</g>
</g>
<!-- Node2 -->
<g id="Node000002" class="node">
<title>Node2</title>
<g id="a_Node000002"><a xlink:href="RadioLib_8h.html" target="_top" xlink:title=" ">
<polygon fill="white" stroke="#666666" points="222,-162 68,-162 68,-132 222,-132 222,-162"/>
<text text-anchor="start" x="76" y="-150" font-family="Helvetica,sans-Serif" font-size="10.00">thirdparty/RadioLib</text>
<text text-anchor="middle" x="145" y="-139" font-family="Helvetica,sans-Serif" font-size="10.00">/include/RadioLib/RadioLib.h</text>
</a>
</g>
</g>
<!-- Node1&#45;&gt;Node2 -->
<g id="edge1_Node000001_Node000002" class="edge">
<title>Node1&#45;&gt;Node2</title>
<g id="a_edge1_Node000001_Node000002"><a xlink:title=" ">
<path fill="none" stroke="#63b8ff" d="M145,-187.66C145,-178.76 145,-169.42 145,-162.04"/>
<polygon fill="#63b8ff" stroke="#63b8ff" points="141.5,-187.77 145,-197.77 148.5,-187.77 141.5,-187.77"/>
</a>
</g>
</g>
<!-- Node3 -->
<g id="Node000003" class="node">
<title>Node3</title>
<g id="a_Node000003"><a xlink:href="receiver-normal_8cpp.html" target="_top" xlink:title=" ">
<polygon fill="white" stroke="#666666" points="132,-19 0,-19 0,0 132,0 132,-19"/>
<text text-anchor="middle" x="66" y="-7" font-family="Helvetica,sans-Serif" font-size="10.00">src/receiver&#45;normal.cpp</text>
</a>
</g>
</g>
<!-- Node2&#45;&gt;Node3 -->
<g id="edge2_Node000002_Node000003" class="edge">
<title>Node2&#45;&gt;Node3</title>
<g id="a_edge2_Node000002_Node000003"><a xlink:title=" ">
<path fill="none" stroke="#63b8ff" d="M107.32,-126.32C95.78,-118.44 84.23,-108.27 77,-96 62.42,-71.24 63.52,-35.53 64.98,-19.22"/>
<polygon fill="#63b8ff" stroke="#63b8ff" points="105.76,-129.48 116.07,-131.9 109.52,-123.58 105.76,-129.48"/>
</a>
</g>
</g>
<!-- Node4 -->
<g id="Node000004" class="node">
<title>Node4</title>
<g id="a_Node000004"><a xlink:href="transmitter-normal_8cpp.html" target="_top" xlink:title=" ">
<polygon fill="white" stroke="#666666" points="301.5,-19 154.5,-19 154.5,0 301.5,0 301.5,-19"/>
<text text-anchor="middle" x="228" y="-7" font-family="Helvetica,sans-Serif" font-size="10.00">src/transmitter&#45;normal.cpp</text>
</a>
</g>
</g>
<!-- Node2&#45;&gt;Node4 -->
<g id="edge3_Node000002_Node000004" class="edge">
<title>Node2&#45;&gt;Node4</title>
<g id="a_edge3_Node000002_Node000004"><a xlink:title=" ">
<path fill="none" stroke="#63b8ff" d="M181.74,-126.55C193.46,-118.59 205.35,-108.32 213,-96 228.25,-71.41 229.06,-35.61 228.52,-19.25"/>
<polygon fill="#63b8ff" stroke="#63b8ff" points="179.85,-123.61 173.3,-131.94 183.61,-129.51 179.85,-123.61"/>
</a>
</g>
</g>
<!-- Node5 -->
<g id="Node000005" class="node">
<title>Node5</title>
<g id="a_Node000005"><a xlink:href="PiHal_8h.html" target="_top" xlink:title=" ">
<polygon fill="white" stroke="#666666" points="204,-96 86,-96 86,-55 204,-55 204,-96"/>
<text text-anchor="start" x="94" y="-84" font-family="Helvetica,sans-Serif" font-size="10.00">thirdparty/RadioLib</text>
<text text-anchor="start" x="94" y="-73" font-family="Helvetica,sans-Serif" font-size="10.00">/include/RadioLib/hal</text>
<text text-anchor="middle" x="145" y="-62" font-family="Helvetica,sans-Serif" font-size="10.00">/RPi/PiHal.h</text>
</a>
</g>
</g>
<!-- Node2&#45;&gt;Node5 -->
<g id="edge4_Node000002_Node000005" class="edge">
<title>Node2&#45;&gt;Node5</title>
<g id="a_edge4_Node000002_Node000005"><a xlink:title=" ">
<path fill="none" stroke="#63b8ff" d="M145,-121.91C145,-113.47 145,-104.1 145,-96.07"/>
<polygon fill="#63b8ff" stroke="#63b8ff" points="141.5,-121.94 145,-131.94 148.5,-121.94 141.5,-121.94"/>
</a>
</g>
</g>
<!-- Node5&#45;&gt;Node3 -->
<g id="edge5_Node000005_Node000003" class="edge">
<title>Node5&#45;&gt;Node3</title>
<g id="a_edge5_Node000005_Node000003"><a xlink:title=" ">
<path fill="none" stroke="#63b8ff" d="M113.04,-48.61C100.16,-38.17 86.16,-26.83 76.81,-19.26"/>
<polygon fill="#63b8ff" stroke="#63b8ff" points="110.89,-51.37 120.87,-54.95 115.3,-45.94 110.89,-51.37"/>
</a>
</g>
</g>
<!-- Node5&#45;&gt;Node4 -->
<g id="edge6_Node000005_Node000004" class="edge">
<title>Node5&#45;&gt;Node4</title>
<g id="a_edge6_Node000005_Node000004"><a xlink:title=" ">
<path fill="none" stroke="#63b8ff" d="M178.58,-48.61C192.11,-38.17 206.82,-26.83 216.64,-19.26"/>
<polygon fill="#63b8ff" stroke="#63b8ff" points="176.14,-46.07 170.35,-54.95 180.41,-51.62 176.14,-46.07"/>
</a>
</g>
</g>
</g>
</svg>
