<?xml version="1.0" encoding="UTF-8" standalone="no"?>
<!DOCTYPE svg PUBLIC "-//W3C//DTD SVG 1.1//EN"
 "http://www.w3.org/Graphics/SVG/1.1/DTD/svg11.dtd">
<!-- Generated by graphviz version 2.43.0 (0)
 -->
<!-- Title: thirdparty/RadioLib/include/RadioLib/modules/LLCC68/LLCC68.h Pages: 1 -->
<svg width="691pt" height="500pt"
 viewBox="0.00 0.00 691.23 500.00" xmlns="http://www.w3.org/2000/svg" xmlns:xlink="http://www.w3.org/1999/xlink">
<g id="graph0" class="graph" transform="scale(1 1) rotate(0) translate(4 496)">
<title>thirdparty/RadioLib/include/RadioLib/modules/LLCC68/LLCC68.h</title>
<!-- Node1 -->
<g id="Node000001" class="node">
<title>Node1</title>
<g id="a_Node000001"><a xlink:title=" ">
<polygon fill="#999999" stroke="#666666" points="618.5,-492 473.5,-492 473.5,-451 618.5,-451 618.5,-492"/>
<text text-anchor="start" x="481.5" y="-480" font-family="Helvetica,sans-Serif" font-size="10.00">thirdparty/RadioLib</text>
<text text-anchor="start" x="481.5" y="-469" font-family="Helvetica,sans-Serif" font-size="10.00">/include/RadioLib/modules</text>
<text text-anchor="middle" x="546" y="-458" font-family="Helvetica,sans-Serif" font-size="10.00">/LLCC68/LLCC68.h</text>
</a>
</g>
</g>
<!-- Node2 -->
<g id="Node000002" class="node">
<title>Node2</title>
<g id="a_Node000002"><a xlink:href="TypeDef_8h.html" target="_top" xlink:title=" ">
<polygon fill="white" stroke="#666666" points="418.5,-129 335.5,-129 335.5,-110 418.5,-110 418.5,-129"/>
<text text-anchor="middle" x="377" y="-117" font-family="Helvetica,sans-Serif" font-size="10.00">../../TypeDef.h</text>
</a>
</g>
</g>
<!-- Node1&#45;&gt;Node2 -->
<g id="edge1_Node000001_Node000002" class="edge">
<title>Node1&#45;&gt;Node2</title>
<g id="a_edge1_Node000001_Node000002"><a xlink:title=" ">
<path fill="none" stroke="#63b8ff" d="M473.5,-469.71C324.97,-466.11 0,-447.3 0,-351.5 0,-351.5 0,-351.5 0,-234 0,-196.13 17.51,-184.45 50,-165 95.28,-137.89 244.74,-126.75 324.98,-122.64"/>
<polygon fill="#63b8ff" stroke="#63b8ff" points="325.54,-126.12 335.36,-122.13 325.2,-119.12 325.54,-126.12"/>
</a>
</g>
</g>
<!-- Node7 -->
<g id="Node000007" class="node">
<title>Node7</title>
<g id="a_Node000007"><a xlink:href="Module_8h.html" target="_top" xlink:title=" ">
<polygon fill="white" stroke="#666666" points="587,-184 507,-184 507,-165 587,-165 587,-184"/>
<text text-anchor="middle" x="547" y="-172" font-family="Helvetica,sans-Serif" font-size="10.00">../../Module.h</text>
</a>
</g>
</g>
<!-- Node1&#45;&gt;Node7 -->
<g id="edge7_Node000001_Node000007" class="edge">
<title>Node1&#45;&gt;Node7</title>
<g id="a_edge7_Node000001_Node000007"><a xlink:title=" ">
<path fill="none" stroke="#63b8ff" d="M606.25,-450.9C623.52,-442.46 640.7,-430.8 652,-415 680.78,-374.76 665.21,-354.32 669,-305 670.91,-280.19 673.16,-227.28 668,-220 651.89,-197.27 622.83,-186.13 597.24,-180.67"/>
<polygon fill="#63b8ff" stroke="#63b8ff" points="597.74,-177.2 587.26,-178.79 596.44,-184.08 597.74,-177.2"/>
</a>
</g>
</g>
<!-- Node12 -->
<g id="Node000012" class="node">
<title>Node12</title>
<g id="a_Node000012"><a xlink:href="SX1262_8h.html" target="_top" xlink:title=" ">
<polygon fill="white" stroke="#666666" points="559.5,-360 448.5,-360 448.5,-341 559.5,-341 559.5,-360"/>
<text text-anchor="middle" x="504" y="-348" font-family="Helvetica,sans-Serif" font-size="10.00">../SX126x/SX1262.h</text>
</a>
</g>
</g>
<!-- Node1&#45;&gt;Node12 -->
<g id="edge17_Node000001_Node000012" class="edge">
<title>Node1&#45;&gt;Node12</title>
<g id="a_edge17_Node000001_Node000012"><a xlink:title=" ">
<path fill="none" stroke="#63b8ff" d="M537.31,-450.91C532.78,-440.37 527.3,-427.09 523,-415 517.69,-400.07 512.6,-382.84 509.02,-370.09"/>
<polygon fill="#63b8ff" stroke="#63b8ff" points="512.33,-368.93 506.3,-360.22 505.58,-370.79 512.33,-368.93"/>
</a>
</g>
</g>
<!-- Node19 -->
<g id="Node000019" class="node">
<title>Node19</title>
<g id="a_Node000019"><a xlink:href="SX1261_8h.html" target="_top" xlink:title=" ">
<polygon fill="white" stroke="#666666" points="643.5,-415 532.5,-415 532.5,-396 643.5,-396 643.5,-415"/>
<text text-anchor="middle" x="588" y="-403" font-family="Helvetica,sans-Serif" font-size="10.00">../SX126x/SX1261.h</text>
</a>
</g>
</g>
<!-- Node1&#45;&gt;Node19 -->
<g id="edge36_Node000001_Node000019" class="edge">
<title>Node1&#45;&gt;Node19</title>
<g id="a_edge36_Node000001_Node000019"><a xlink:title=" ">
<path fill="none" stroke="#63b8ff" d="M558.83,-450.95C564.51,-442.3 571.13,-432.2 576.63,-423.82"/>
<polygon fill="#63b8ff" stroke="#63b8ff" points="579.69,-425.54 582.25,-415.26 573.84,-421.7 579.69,-425.54"/>
</a>
</g>
</g>
<!-- Node3 -->
<g id="Node000003" class="node">
<title>Node3</title>
<g id="a_Node000003"><a xlink:href="BuildOptUser_8h.html" target="_top" xlink:title=" ">
<polygon fill="white" stroke="#666666" points="324.5,-74 235.5,-74 235.5,-55 324.5,-55 324.5,-74"/>
<text text-anchor="middle" x="280" y="-62" font-family="Helvetica,sans-Serif" font-size="10.00">BuildOptUser.h</text>
</a>
</g>
</g>
<!-- Node2&#45;&gt;Node3 -->
<g id="edge2_Node000002_Node000003" class="edge">
<title>Node2&#45;&gt;Node3</title>
<g id="a_edge2_Node000002_Node000003"><a xlink:title=" ">
<path fill="none" stroke="#63b8ff" d="M361.42,-109.98C346.23,-101.69 322.9,-88.94 305.1,-79.22"/>
<polygon fill="#63b8ff" stroke="#63b8ff" points="306.32,-75.89 295.87,-74.17 302.97,-82.04 306.32,-75.89"/>
</a>
</g>
</g>
<!-- Node4 -->
<g id="Node000004" class="node">
<title>Node4</title>
<g id="a_Node000004"><a xlink:href="BuildOpt_8h.html" target="_top" xlink:title=" ">
<polygon fill="white" stroke="#666666" points="411,-74 343,-74 343,-55 411,-55 411,-74"/>
<text text-anchor="middle" x="377" y="-62" font-family="Helvetica,sans-Serif" font-size="10.00">BuildOpt.h</text>
</a>
</g>
</g>
<!-- Node2&#45;&gt;Node4 -->
<g id="edge3_Node000002_Node000004" class="edge">
<title>Node2&#45;&gt;Node4</title>
<g id="a_edge3_Node000002_Node000004"><a xlink:title=" ">
<path fill="none" stroke="#63b8ff" d="M371.83,-109.75C370.34,-102.8 369.9,-92.85 370.52,-84.13"/>
<polygon fill="#63b8ff" stroke="#63b8ff" points="374.01,-84.47 371.87,-74.09 367.07,-83.53 374.01,-84.47"/>
</a>
</g>
</g>
<!-- Node4&#45;&gt;Node2 -->
<g id="edge4_Node000004_Node000002" class="edge">
<title>Node4&#45;&gt;Node2</title>
<g id="a_edge4_Node000004_Node000002"><a xlink:title=" ">
<path fill="none" stroke="#63b8ff" d="M382.13,-74.09C383.64,-80.99 384.09,-90.93 383.49,-99.66"/>
<polygon fill="#63b8ff" stroke="#63b8ff" points="380,-99.38 382.17,-109.75 386.94,-100.29 380,-99.38"/>
</a>
</g>
</g>
<!-- Node5 -->
<g id="Node000005" class="node">
<title>Node5</title>
<g id="a_Node000005"><a xlink:title=" ">
<polygon fill="#e0e0e0" stroke="#999999" points="398,-19 348,-19 348,0 398,0 398,-19"/>
<text text-anchor="middle" x="373" y="-7" font-family="Helvetica,sans-Serif" font-size="10.00">stdio.h</text>
</a>
</g>
</g>
<!-- Node4&#45;&gt;Node5 -->
<g id="edge5_Node000004_Node000005" class="edge">
<title>Node4&#45;&gt;Node5</title>
<g id="a_edge5_Node000004_Node000005"><a xlink:title=" ">
<path fill="none" stroke="#63b8ff" d="M376.34,-54.75C375.82,-47.8 375.06,-37.85 374.41,-29.13"/>
<polygon fill="#63b8ff" stroke="#63b8ff" points="377.89,-28.8 373.65,-19.09 370.91,-29.32 377.89,-28.8"/>
</a>
</g>
</g>
<!-- Node6 -->
<g id="Node000006" class="node">
<title>Node6</title>
<g id="a_Node000006"><a xlink:title=" ">
<polygon fill="#e0e0e0" stroke="#999999" points="469.5,-19 416.5,-19 416.5,0 469.5,0 469.5,-19"/>
<text text-anchor="middle" x="443" y="-7" font-family="Helvetica,sans-Serif" font-size="10.00">stdint.h</text>
</a>
</g>
</g>
<!-- Node4&#45;&gt;Node6 -->
<g id="edge6_Node000004_Node000006" class="edge">
<title>Node4&#45;&gt;Node6</title>
<g id="a_edge6_Node000004_Node000006"><a xlink:title=" ">
<path fill="none" stroke="#63b8ff" d="M387.6,-54.98C397.46,-47.07 412.35,-35.11 424.22,-25.58"/>
<polygon fill="#63b8ff" stroke="#63b8ff" points="426.6,-28.16 432.2,-19.17 422.21,-22.7 426.6,-28.16"/>
</a>
</g>
</g>
<!-- Node7&#45;&gt;Node2 -->
<g id="edge8_Node000007_Node000002" class="edge">
<title>Node7&#45;&gt;Node2</title>
<g id="a_edge8_Node000007_Node000002"><a xlink:title=" ">
<path fill="none" stroke="#63b8ff" d="M519.69,-164.98C491.15,-156.09 446.17,-142.07 414.36,-132.15"/>
<polygon fill="#63b8ff" stroke="#63b8ff" points="415.12,-128.72 404.53,-129.08 413.03,-135.4 415.12,-128.72"/>
</a>
</g>
</g>
<!-- Node8 -->
<g id="Node000008" class="node">
<title>Node8</title>
<g id="a_Node000008"><a xlink:href="Hal_8h.html" target="_top" xlink:title=" ">
<polygon fill="white" stroke="#666666" points="570,-129 528,-129 528,-110 570,-110 570,-129"/>
<text text-anchor="middle" x="549" y="-117" font-family="Helvetica,sans-Serif" font-size="10.00">Hal.h</text>
</a>
</g>
</g>
<!-- Node7&#45;&gt;Node8 -->
<g id="edge9_Node000007_Node000008" class="edge">
<title>Node7&#45;&gt;Node8</title>
<g id="a_edge9_Node000007_Node000008"><a xlink:title=" ">
<path fill="none" stroke="#63b8ff" d="M547.33,-164.75C547.59,-157.8 547.97,-147.85 548.3,-139.13"/>
<polygon fill="#63b8ff" stroke="#63b8ff" points="551.8,-139.21 548.68,-129.09 544.8,-138.95 551.8,-139.21"/>
</a>
</g>
</g>
<!-- Node10 -->
<g id="Node000010" class="node">
<title>Node10</title>
<g id="a_Node000010"><a xlink:href="Utils_8h.html" target="_top" xlink:title=" ">
<polygon fill="white" stroke="#666666" points="509,-129 437,-129 437,-110 509,-110 509,-129"/>
<text text-anchor="middle" x="473" y="-117" font-family="Helvetica,sans-Serif" font-size="10.00">utils/Utils.h</text>
</a>
</g>
</g>
<!-- Node7&#45;&gt;Node10 -->
<g id="edge13_Node000007_Node000010" class="edge">
<title>Node7&#45;&gt;Node10</title>
<g id="a_edge13_Node000007_Node000010"><a xlink:title=" ">
<path fill="none" stroke="#63b8ff" d="M535.11,-164.98C523.85,-156.92 506.71,-144.65 493.29,-135.03"/>
<polygon fill="#63b8ff" stroke="#63b8ff" points="495.27,-132.15 485.11,-129.17 491.2,-137.84 495.27,-132.15"/>
</a>
</g>
</g>
<!-- Node8&#45;&gt;Node4 -->
<g id="edge12_Node000008_Node000004" class="edge">
<title>Node8&#45;&gt;Node4</title>
<g id="a_edge12_Node000008_Node000004"><a xlink:title=" ">
<path fill="none" stroke="#63b8ff" d="M527.91,-112C499.74,-103.32 449.36,-87.8 414.61,-77.09"/>
<polygon fill="#63b8ff" stroke="#63b8ff" points="415.4,-73.67 404.81,-74.07 413.34,-80.36 415.4,-73.67"/>
</a>
</g>
</g>
<!-- Node8&#45;&gt;Node6 -->
<g id="edge10_Node000008_Node000006" class="edge">
<title>Node8&#45;&gt;Node6</title>
<g id="a_edge10_Node000008_Node000006"><a xlink:title=" ">
<path fill="none" stroke="#63b8ff" d="M548.35,-109.69C546.94,-96.4 542.54,-71.1 529,-55 516.16,-39.73 496.73,-29.05 479.59,-21.99"/>
<polygon fill="#63b8ff" stroke="#63b8ff" points="480.42,-18.56 469.83,-18.25 477.92,-25.1 480.42,-18.56"/>
</a>
</g>
</g>
<!-- Node9 -->
<g id="Node000009" class="node">
<title>Node9</title>
<g id="a_Node000009"><a xlink:title=" ">
<polygon fill="#e0e0e0" stroke="#999999" points="633,-74 577,-74 577,-55 633,-55 633,-74"/>
<text text-anchor="middle" x="605" y="-62" font-family="Helvetica,sans-Serif" font-size="10.00">stddef.h</text>
</a>
</g>
</g>
<!-- Node8&#45;&gt;Node9 -->
<g id="edge11_Node000008_Node000009" class="edge">
<title>Node8&#45;&gt;Node9</title>
<g id="a_edge11_Node000008_Node000009"><a xlink:title=" ">
<path fill="none" stroke="#63b8ff" d="M558,-109.98C566.19,-102.23 578.51,-90.58 588.47,-81.14"/>
<polygon fill="#63b8ff" stroke="#63b8ff" points="590.98,-83.59 595.84,-74.17 586.17,-78.5 590.98,-83.59"/>
</a>
</g>
</g>
<!-- Node10&#45;&gt;Node4 -->
<g id="edge16_Node000010_Node000004" class="edge">
<title>Node10&#45;&gt;Node4</title>
<g id="a_edge16_Node000010_Node000004"><a xlink:title=" ">
<path fill="none" stroke="#63b8ff" d="M457.58,-109.98C442.55,-101.69 419.46,-88.94 401.84,-79.22"/>
<polygon fill="#63b8ff" stroke="#63b8ff" points="403.15,-75.94 392.7,-74.17 399.77,-82.07 403.15,-75.94"/>
</a>
</g>
</g>
<!-- Node10&#45;&gt;Node6 -->
<g id="edge14_Node000010_Node000006" class="edge">
<title>Node10&#45;&gt;Node6</title>
<g id="a_edge14_Node000010_Node000006"><a xlink:title=" ">
<path fill="none" stroke="#63b8ff" d="M469.77,-109.71C466.55,-100.79 461.59,-86.54 458,-74 453.71,-59.01 449.7,-41.77 446.9,-29.05"/>
<polygon fill="#63b8ff" stroke="#63b8ff" points="450.31,-28.23 444.78,-19.19 443.46,-29.71 450.31,-28.23"/>
</a>
</g>
</g>
<!-- Node11 -->
<g id="Node000011" class="node">
<title>Node11</title>
<g id="a_Node000011"><a xlink:title=" ">
<polygon fill="#e0e0e0" stroke="#999999" points="520.5,-74 467.5,-74 467.5,-55 520.5,-55 520.5,-74"/>
<text text-anchor="middle" x="494" y="-62" font-family="Helvetica,sans-Serif" font-size="10.00">stdlib.h</text>
</a>
</g>
</g>
<!-- Node10&#45;&gt;Node11 -->
<g id="edge15_Node000010_Node000011" class="edge">
<title>Node10&#45;&gt;Node11</title>
<g id="a_edge15_Node000010_Node000011"><a xlink:title=" ">
<path fill="none" stroke="#63b8ff" d="M476.47,-109.75C479.28,-102.65 483.34,-92.4 486.85,-83.56"/>
<polygon fill="#63b8ff" stroke="#63b8ff" points="490.17,-84.68 490.6,-74.09 483.66,-82.1 490.17,-84.68"/>
</a>
</g>
</g>
<!-- Node12&#45;&gt;Node2 -->
<g id="edge18_Node000012_Node000002" class="edge">
<title>Node12&#45;&gt;Node2</title>
<g id="a_edge18_Node000012_Node000002"><a xlink:title=" ">
<path fill="none" stroke="#63b8ff" d="M448.34,-349.36C347.27,-345.64 136.67,-320.99 57,-184 52.75,-176.7 51.46,-171.37 57,-165 91.17,-125.75 243.94,-120.02 325.42,-119.84"/>
<polygon fill="#63b8ff" stroke="#63b8ff" points="325.46,-123.34 335.46,-119.84 325.47,-116.34 325.46,-123.34"/>
</a>
</g>
</g>
<!-- Node12&#45;&gt;Node7 -->
<g id="edge19_Node000012_Node000007" class="edge">
<title>Node12&#45;&gt;Node7</title>
<g id="a_edge19_Node000012_Node000007"><a xlink:title=" ">
<path fill="none" stroke="#63b8ff" d="M524.11,-340.85C553.91,-326.79 608.68,-295.83 631,-250 636.84,-238.01 637.88,-231.42 631,-220 621.91,-204.89 605.78,-194.65 590.06,-187.83"/>
<polygon fill="#63b8ff" stroke="#63b8ff" points="590.99,-184.44 580.4,-184.02 588.42,-190.95 590.99,-184.44"/>
</a>
</g>
</g>
<!-- Node13 -->
<g id="Node000013" class="node">
<title>Node13</title>
<g id="a_Node000013"><a xlink:href="SX126x_8h.html" target="_top" xlink:title=" ">
<polygon fill="white" stroke="#666666" points="451,-305 389,-305 389,-286 451,-286 451,-305"/>
<text text-anchor="middle" x="420" y="-293" font-family="Helvetica,sans-Serif" font-size="10.00">SX126x.h</text>
</a>
</g>
</g>
<!-- Node12&#45;&gt;Node13 -->
<g id="edge20_Node000012_Node000013" class="edge">
<title>Node12&#45;&gt;Node13</title>
<g id="a_edge20_Node000012_Node000013"><a xlink:title=" ">
<path fill="none" stroke="#63b8ff" d="M490.5,-340.98C477.6,-332.84 457.9,-320.41 442.6,-310.76"/>
<polygon fill="#63b8ff" stroke="#63b8ff" points="444.07,-307.55 433.74,-305.17 440.33,-313.47 444.07,-307.55"/>
</a>
</g>
</g>
<!-- Node13&#45;&gt;Node2 -->
<g id="edge21_Node000013_Node000002" class="edge">
<title>Node13&#45;&gt;Node2</title>
<g id="a_edge21_Node000013_Node000002"><a xlink:title=" ">
<path fill="none" stroke="#63b8ff" d="M388.69,-290.12C347.38,-283.62 278.12,-270 263,-250 254.96,-239.36 256.35,-231.56 263,-220 278.9,-192.39 300.74,-204.66 325,-184 341.04,-170.34 355.9,-151.27 365.59,-137.6"/>
<polygon fill="#63b8ff" stroke="#63b8ff" points="368.64,-139.36 371.43,-129.14 362.87,-135.39 368.64,-139.36"/>
</a>
</g>
</g>
<!-- Node13&#45;&gt;Node7 -->
<g id="edge22_Node000013_Node000007" class="edge">
<title>Node13&#45;&gt;Node7</title>
<g id="a_edge22_Node000013_Node000007"><a xlink:title=" ">
<path fill="none" stroke="#63b8ff" d="M451.09,-291.98C500.64,-287.24 593.98,-275.14 614,-250 622.31,-239.57 620.3,-231.75 614,-220 606.49,-206 592.43,-195.66 579.12,-188.48"/>
<polygon fill="#63b8ff" stroke="#63b8ff" points="580.63,-185.33 570.11,-184.02 577.52,-191.6 580.63,-185.33"/>
</a>
</g>
</g>
<!-- Node14 -->
<g id="Node000014" class="node">
<title>Node14</title>
<g id="a_Node000014"><a xlink:href="PhysicalLayer_8h.html" target="_top" xlink:title=" ">
<polygon fill="white" stroke="#666666" points="605.5,-250 482.5,-250 482.5,-220 605.5,-220 605.5,-250"/>
<text text-anchor="start" x="490.5" y="-238" font-family="Helvetica,sans-Serif" font-size="10.00">../../protocols/Physical</text>
<text text-anchor="middle" x="544" y="-227" font-family="Helvetica,sans-Serif" font-size="10.00">Layer/PhysicalLayer.h</text>
</a>
</g>
</g>
<!-- Node13&#45;&gt;Node14 -->
<g id="edge23_Node000013_Node000014" class="edge">
<title>Node13&#45;&gt;Node14</title>
<g id="a_edge23_Node000013_Node000014"><a xlink:title=" ">
<path fill="none" stroke="#63b8ff" d="M438.03,-285.99C455.43,-277.79 482.34,-265.09 504.69,-254.55"/>
<polygon fill="#63b8ff" stroke="#63b8ff" points="506.4,-257.61 513.95,-250.18 503.41,-251.28 506.4,-257.61"/>
</a>
</g>
</g>
<!-- Node15 -->
<g id="Node000015" class="node">
<title>Node15</title>
<g id="a_Node000015"><a xlink:href="FEC_8h.html" target="_top" xlink:title=" ">
<polygon fill="white" stroke="#666666" points="358,-244.5 272,-244.5 272,-225.5 358,-225.5 358,-244.5"/>
<text text-anchor="middle" x="315" y="-232.5" font-family="Helvetica,sans-Serif" font-size="10.00">../../utils/FEC.h</text>
</a>
</g>
</g>
<!-- Node13&#45;&gt;Node15 -->
<g id="edge26_Node000013_Node000015" class="edge">
<title>Node13&#45;&gt;Node15</title>
<g id="a_edge26_Node000013_Node000015"><a xlink:title=" ">
<path fill="none" stroke="#63b8ff" d="M404.51,-285.87C387.37,-276.32 359.53,-260.81 339.44,-249.62"/>
<polygon fill="#63b8ff" stroke="#63b8ff" points="341,-246.48 330.56,-244.67 337.59,-252.59 341,-246.48"/>
</a>
</g>
</g>
<!-- Node16 -->
<g id="Node000016" class="node">
<title>Node16</title>
<g id="a_Node000016"><a xlink:href="CRC_8h.html" target="_top" xlink:title=" ">
<polygon fill="white" stroke="#666666" points="464,-244.5 376,-244.5 376,-225.5 464,-225.5 464,-244.5"/>
<text text-anchor="middle" x="420" y="-232.5" font-family="Helvetica,sans-Serif" font-size="10.00">../../utils/CRC.h</text>
</a>
</g>
</g>
<!-- Node13&#45;&gt;Node16 -->
<g id="edge29_Node000013_Node000016" class="edge">
<title>Node13&#45;&gt;Node16</title>
<g id="a_edge29_Node000013_Node000016"><a xlink:title=" ">
<path fill="none" stroke="#63b8ff" d="M420,-285.87C420,-277.75 420,-265.31 420,-254.89"/>
<polygon fill="#63b8ff" stroke="#63b8ff" points="423.5,-254.67 420,-244.67 416.5,-254.67 423.5,-254.67"/>
</a>
</g>
</g>
<!-- Node17 -->
<g id="Node000017" class="node">
<title>Node17</title>
<g id="a_Node000017"><a xlink:href="SX126x__commands_8h.html" target="_top" xlink:title=" ">
<polygon fill="white" stroke="#666666" points="188,-184 66,-184 66,-165 188,-165 188,-184"/>
<text text-anchor="middle" x="127" y="-172" font-family="Helvetica,sans-Serif" font-size="10.00">SX126x_commands.h</text>
</a>
</g>
</g>
<!-- Node13&#45;&gt;Node17 -->
<g id="edge32_Node000013_Node000017" class="edge">
<title>Node13&#45;&gt;Node17</title>
<g id="a_edge32_Node000013_Node000017"><a xlink:title=" ">
<path fill="none" stroke="#63b8ff" d="M388.94,-291.89C348.55,-287.55 276.6,-276.52 221,-250 189.87,-235.15 159.67,-208.33 142.23,-191.24"/>
<polygon fill="#63b8ff" stroke="#63b8ff" points="144.7,-188.76 135.16,-184.16 139.75,-193.71 144.7,-188.76"/>
</a>
</g>
</g>
<!-- Node18 -->
<g id="Node000018" class="node">
<title>Node18</title>
<g id="a_Node000018"><a xlink:href="SX126x__registers_8h.html" target="_top" xlink:title=" ">
<polygon fill="white" stroke="#666666" points="316,-184 206,-184 206,-165 316,-165 316,-184"/>
<text text-anchor="middle" x="261" y="-172" font-family="Helvetica,sans-Serif" font-size="10.00">SX126x_registers.h</text>
</a>
</g>
</g>
<!-- Node13&#45;&gt;Node18 -->
<g id="edge34_Node000013_Node000018" class="edge">
<title>Node13&#45;&gt;Node18</title>
<g id="a_edge34_Node000013_Node000018"><a xlink:title=" ">
<path fill="none" stroke="#63b8ff" d="M388.76,-291.8C340.02,-286.86 249.47,-274.56 230,-250 216.07,-232.43 231.68,-207.7 245.34,-191.63"/>
<polygon fill="#63b8ff" stroke="#63b8ff" points="248.03,-193.88 252.14,-184.11 242.84,-189.18 248.03,-193.88"/>
</a>
</g>
</g>
<!-- Node14&#45;&gt;Node2 -->
<g id="edge24_Node000014_Node000002" class="edge">
<title>Node14&#45;&gt;Node2</title>
<g id="a_edge24_Node000014_Node000002"><a xlink:title=" ">
<path fill="none" stroke="#63b8ff" d="M523.19,-219.85C491.35,-198.22 430.88,-157.12 398.59,-135.17"/>
<polygon fill="#63b8ff" stroke="#63b8ff" points="400.14,-132 389.9,-129.27 396.21,-137.79 400.14,-132"/>
</a>
</g>
</g>
<!-- Node14&#45;&gt;Node7 -->
<g id="edge25_Node000014_Node000007" class="edge">
<title>Node14&#45;&gt;Node7</title>
<g id="a_edge25_Node000014_Node000007"><a xlink:title=" ">
<path fill="none" stroke="#63b8ff" d="M544.73,-219.84C545.12,-212.21 545.6,-202.7 546.03,-194.45"/>
<polygon fill="#63b8ff" stroke="#63b8ff" points="549.53,-194.43 546.55,-184.27 542.54,-194.07 549.53,-194.43"/>
</a>
</g>
</g>
<!-- Node15&#45;&gt;Node2 -->
<g id="edge27_Node000015_Node000002" class="edge">
<title>Node15&#45;&gt;Node2</title>
<g id="a_edge27_Node000015_Node000002"><a xlink:title=" ">
<path fill="none" stroke="#63b8ff" d="M324.54,-225.31C334.24,-215.97 349.1,-200.27 358,-184 365.69,-169.94 370.63,-152.4 373.55,-139.31"/>
<polygon fill="#63b8ff" stroke="#63b8ff" points="377.05,-139.66 375.6,-129.16 370.19,-138.27 377.05,-139.66"/>
</a>
</g>
</g>
<!-- Node15&#45;&gt;Node7 -->
<g id="edge28_Node000015_Node000007" class="edge">
<title>Node15&#45;&gt;Node7</title>
<g id="a_edge28_Node000015_Node000007"><a xlink:title=" ">
<path fill="none" stroke="#63b8ff" d="M346.32,-225.46C353.13,-223.63 360.3,-221.73 367,-220 412.73,-208.19 465.16,-195.3 501.59,-186.45"/>
<polygon fill="#63b8ff" stroke="#63b8ff" points="502.53,-189.82 511.43,-184.07 500.88,-183.02 502.53,-189.82"/>
</a>
</g>
</g>
<!-- Node16&#45;&gt;Node2 -->
<g id="edge30_Node000016_Node000002" class="edge">
<title>Node16&#45;&gt;Node2</title>
<g id="a_edge30_Node000016_Node000002"><a xlink:title=" ">
<path fill="none" stroke="#63b8ff" d="M417.23,-225.43C412.95,-212.32 404.33,-186.53 396,-165 392.59,-156.19 388.51,-146.53 385,-138.46"/>
<polygon fill="#63b8ff" stroke="#63b8ff" points="388.2,-137.03 380.97,-129.29 381.79,-139.85 388.2,-137.03"/>
</a>
</g>
</g>
<!-- Node16&#45;&gt;Node7 -->
<g id="edge31_Node000016_Node000007" class="edge">
<title>Node16&#45;&gt;Node7</title>
<g id="a_edge31_Node000016_Node000007"><a xlink:title=" ">
<path fill="none" stroke="#63b8ff" d="M438.47,-225.49C459.72,-215.7 494.85,-199.52 519.37,-188.23"/>
<polygon fill="#63b8ff" stroke="#63b8ff" points="520.89,-191.38 528.51,-184.02 517.96,-185.02 520.89,-191.38"/>
</a>
</g>
</g>
<!-- Node17&#45;&gt;Node2 -->
<g id="edge33_Node000017_Node000002" class="edge">
<title>Node17&#45;&gt;Node2</title>
<g id="a_edge33_Node000017_Node000002"><a xlink:title=" ">
<path fill="none" stroke="#63b8ff" d="M167.17,-164.98C210.5,-155.8 279.59,-141.15 326.56,-131.19"/>
<polygon fill="#63b8ff" stroke="#63b8ff" points="327.46,-134.58 336.52,-129.08 326.01,-127.73 327.46,-134.58"/>
</a>
</g>
</g>
<!-- Node18&#45;&gt;Node2 -->
<g id="edge35_Node000018_Node000002" class="edge">
<title>Node18&#45;&gt;Node2</title>
<g id="a_edge35_Node000018_Node000002"><a xlink:title=" ">
<path fill="none" stroke="#63b8ff" d="M279.64,-164.98C298.3,-156.46 327.25,-143.23 348.74,-133.41"/>
<polygon fill="#63b8ff" stroke="#63b8ff" points="350.38,-136.51 358.02,-129.17 347.47,-130.14 350.38,-136.51"/>
</a>
</g>
</g>
<!-- Node19&#45;&gt;Node2 -->
<g id="edge37_Node000019_Node000002" class="edge">
<title>Node19&#45;&gt;Node2</title>
<g id="a_edge37_Node000019_Node000002"><a xlink:title=" ">
<path fill="none" stroke="#63b8ff" d="M602.47,-395.8C614.82,-387.78 632.38,-374.88 644,-360 682.85,-310.24 696.41,-276.38 668,-220 649.88,-184.04 632.66,-181.65 596,-165 580.93,-158.15 488.66,-140.67 428.79,-129.76"/>
<polygon fill="#63b8ff" stroke="#63b8ff" points="429.21,-126.28 418.75,-127.94 427.96,-133.17 429.21,-126.28"/>
</a>
</g>
</g>
<!-- Node19&#45;&gt;Node7 -->
<g id="edge38_Node000019_Node000007" class="edge">
<title>Node19&#45;&gt;Node7</title>
<g id="a_edge38_Node000019_Node000007"><a xlink:title=" ">
<path fill="none" stroke="#63b8ff" d="M595.83,-395.72C619.63,-367.91 687.19,-280.09 648,-220 636.49,-202.36 616.25,-191.66 596.89,-185.2"/>
<polygon fill="#63b8ff" stroke="#63b8ff" points="597.78,-181.81 587.2,-182.27 595.76,-188.51 597.78,-181.81"/>
</a>
</g>
</g>
<!-- Node19&#45;&gt;Node12 -->
<g id="edge40_Node000019_Node000012" class="edge">
<title>Node19&#45;&gt;Node12</title>
<g id="a_edge40_Node000019_Node000012"><a xlink:title=" ">
<path fill="none" stroke="#63b8ff" d="M574.5,-395.98C561.6,-387.84 541.9,-375.41 526.6,-365.76"/>
<polygon fill="#63b8ff" stroke="#63b8ff" points="528.07,-362.55 517.74,-360.17 524.33,-368.47 528.07,-362.55"/>
</a>
</g>
</g>
<!-- Node19&#45;&gt;Node13 -->
<g id="edge39_Node000019_Node000013" class="edge">
<title>Node19&#45;&gt;Node13</title>
<g id="a_edge39_Node000019_Node000013"><a xlink:title=" ">
<path fill="none" stroke="#63b8ff" d="M587.74,-395.8C586.85,-382.21 583.14,-355.94 568,-341 539.66,-313.02 494.42,-302.53 461.42,-298.65"/>
<polygon fill="#63b8ff" stroke="#63b8ff" points="461.47,-295.14 451.17,-297.61 460.76,-302.1 461.47,-295.14"/>
</a>
</g>
</g>
</g>
</svg>
