<?xml version="1.0" encoding="UTF-8" standalone="no"?>
<!DOCTYPE svg PUBLIC "-//W3C//DTD SVG 1.1//EN"
 "http://www.w3.org/Graphics/SVG/1.1/DTD/svg11.dtd">
<!-- Generated by graphviz version 2.43.0 (0)
 -->
<!-- Title: thirdparty/RadioLib/include/RadioLib/protocols/LoRaWAN/LoRaWAN.h Pages: 1 -->
<svg width="380pt" height="335pt"
 viewBox="0.00 0.00 380.05 335.00" xmlns="http://www.w3.org/2000/svg" xmlns:xlink="http://www.w3.org/1999/xlink">
<g id="graph0" class="graph" transform="scale(1 1) rotate(0) translate(4 331)">
<title>thirdparty/RadioLib/include/RadioLib/protocols/LoRaWAN/LoRaWAN.h</title>
<!-- Node1 -->
<g id="Node000001" class="node">
<title>Node1</title>
<g id="a_Node000001"><a xlink:title=" ">
<polygon fill="#999999" stroke="#666666" points="310.55,-327 162.55,-327 162.55,-286 310.55,-286 310.55,-327"/>
<text text-anchor="start" x="170.55" y="-315" font-family="Helvetica,sans-Serif" font-size="10.00">thirdparty/RadioLib</text>
<text text-anchor="start" x="170.55" y="-304" font-family="Helvetica,sans-Serif" font-size="10.00">/include/RadioLib/protocols</text>
<text text-anchor="middle" x="236.55" y="-293" font-family="Helvetica,sans-Serif" font-size="10.00">/LoRaWAN/LoRaWAN.h</text>
</a>
</g>
</g>
<!-- Node2 -->
<g id="Node000002" class="node">
<title>Node2</title>
<g id="a_Node000002"><a xlink:href="TypeDef_8h.html" target="_top" xlink:title=" ">
<polygon fill="white" stroke="#666666" points="272.05,-129 189.05,-129 189.05,-110 272.05,-110 272.05,-129"/>
<text text-anchor="middle" x="230.55" y="-117" font-family="Helvetica,sans-Serif" font-size="10.00">../../TypeDef.h</text>
</a>
</g>
</g>
<!-- Node1&#45;&gt;Node2 -->
<g id="edge1_Node000001_Node000002" class="edge">
<title>Node1&#45;&gt;Node2</title>
<g id="a_edge1_Node000001_Node000002"><a xlink:title=" ">
<path fill="none" stroke="#63b8ff" d="M276.45,-285.95C290.17,-277.02 303.97,-265.04 311.55,-250 317.55,-238.09 316.02,-232.56 311.55,-220 299.21,-185.29 269.01,-153.9 249.18,-136.03"/>
<polygon fill="#63b8ff" stroke="#63b8ff" points="251.23,-133.17 241.39,-129.23 246.62,-138.44 251.23,-133.17"/>
</a>
</g>
</g>
<!-- Node7 -->
<g id="Node000007" class="node">
<title>Node7</title>
<g id="a_Node000007"><a xlink:href="PhysicalLayer_8h.html" target="_top" xlink:title=" ">
<polygon fill="white" stroke="#666666" points="152.05,-250 15.05,-250 15.05,-220 152.05,-220 152.05,-250"/>
<text text-anchor="start" x="23.05" y="-238" font-family="Helvetica,sans-Serif" font-size="10.00">../PhysicalLayer/Physical</text>
<text text-anchor="middle" x="83.55" y="-227" font-family="Helvetica,sans-Serif" font-size="10.00">Layer.h</text>
</a>
</g>
</g>
<!-- Node1&#45;&gt;Node7 -->
<g id="edge7_Node000001_Node000007" class="edge">
<title>Node1&#45;&gt;Node7</title>
<g id="a_edge7_Node000001_Node000007"><a xlink:title=" ">
<path fill="none" stroke="#63b8ff" d="M193.52,-285.96C171.66,-276.02 145.25,-264.03 123.79,-254.28"/>
<polygon fill="#63b8ff" stroke="#63b8ff" points="125.17,-251.06 114.62,-250.11 122.28,-257.44 125.17,-251.06"/>
</a>
</g>
</g>
<!-- Node13 -->
<g id="Node000013" class="node">
<title>Node13</title>
<g id="a_Node000013"><a xlink:href="Cryptography_8h.html" target="_top" xlink:title=" ">
<polygon fill="white" stroke="#666666" points="302.55,-244.5 170.55,-244.5 170.55,-225.5 302.55,-225.5 302.55,-244.5"/>
<text text-anchor="middle" x="236.55" y="-232.5" font-family="Helvetica,sans-Serif" font-size="10.00">../../utils/Cryptography.h</text>
</a>
</g>
</g>
<!-- Node1&#45;&gt;Node13 -->
<g id="edge19_Node000001_Node000013" class="edge">
<title>Node1&#45;&gt;Node13</title>
<g id="a_edge19_Node000001_Node000013"><a xlink:title=" ">
<path fill="none" stroke="#63b8ff" d="M236.55,-285.77C236.55,-276.08 236.55,-264.46 236.55,-254.88"/>
<polygon fill="#63b8ff" stroke="#63b8ff" points="240.05,-254.82 236.55,-244.82 233.05,-254.82 240.05,-254.82"/>
</a>
</g>
</g>
<!-- Node3 -->
<g id="Node000003" class="node">
<title>Node3</title>
<g id="a_Node000003"><a xlink:href="BuildOptUser_8h.html" target="_top" xlink:title=" ">
<polygon fill="white" stroke="#666666" points="372.05,-74 283.05,-74 283.05,-55 372.05,-55 372.05,-74"/>
<text text-anchor="middle" x="327.55" y="-62" font-family="Helvetica,sans-Serif" font-size="10.00">BuildOptUser.h</text>
</a>
</g>
</g>
<!-- Node2&#45;&gt;Node3 -->
<g id="edge2_Node000002_Node000003" class="edge">
<title>Node2&#45;&gt;Node3</title>
<g id="a_edge2_Node000002_Node000003"><a xlink:title=" ">
<path fill="none" stroke="#63b8ff" d="M246.13,-109.98C261.32,-101.69 284.65,-88.94 302.45,-79.22"/>
<polygon fill="#63b8ff" stroke="#63b8ff" points="304.58,-82.04 311.68,-74.17 301.23,-75.89 304.58,-82.04"/>
</a>
</g>
</g>
<!-- Node4 -->
<g id="Node000004" class="node">
<title>Node4</title>
<g id="a_Node000004"><a xlink:href="BuildOpt_8h.html" target="_top" xlink:title=" ">
<polygon fill="white" stroke="#666666" points="264.55,-74 196.55,-74 196.55,-55 264.55,-55 264.55,-74"/>
<text text-anchor="middle" x="230.55" y="-62" font-family="Helvetica,sans-Serif" font-size="10.00">BuildOpt.h</text>
</a>
</g>
</g>
<!-- Node2&#45;&gt;Node4 -->
<g id="edge3_Node000002_Node000004" class="edge">
<title>Node2&#45;&gt;Node4</title>
<g id="a_edge3_Node000002_Node000004"><a xlink:title=" ">
<path fill="none" stroke="#63b8ff" d="M225.38,-109.75C223.89,-102.8 223.45,-92.85 224.07,-84.13"/>
<polygon fill="#63b8ff" stroke="#63b8ff" points="227.56,-84.47 225.42,-74.09 220.62,-83.53 227.56,-84.47"/>
</a>
</g>
</g>
<!-- Node4&#45;&gt;Node2 -->
<g id="edge4_Node000004_Node000002" class="edge">
<title>Node4&#45;&gt;Node2</title>
<g id="a_edge4_Node000004_Node000002"><a xlink:title=" ">
<path fill="none" stroke="#63b8ff" d="M235.68,-74.09C237.19,-80.99 237.64,-90.93 237.04,-99.66"/>
<polygon fill="#63b8ff" stroke="#63b8ff" points="233.55,-99.38 235.72,-109.75 240.49,-100.29 233.55,-99.38"/>
</a>
</g>
</g>
<!-- Node5 -->
<g id="Node000005" class="node">
<title>Node5</title>
<g id="a_Node000005"><a xlink:title=" ">
<polygon fill="#e0e0e0" stroke="#999999" points="255.55,-19 205.55,-19 205.55,0 255.55,0 255.55,-19"/>
<text text-anchor="middle" x="230.55" y="-7" font-family="Helvetica,sans-Serif" font-size="10.00">stdio.h</text>
</a>
</g>
</g>
<!-- Node4&#45;&gt;Node5 -->
<g id="edge5_Node000004_Node000005" class="edge">
<title>Node4&#45;&gt;Node5</title>
<g id="a_edge5_Node000004_Node000005"><a xlink:title=" ">
<path fill="none" stroke="#63b8ff" d="M230.55,-54.75C230.55,-47.8 230.55,-37.85 230.55,-29.13"/>
<polygon fill="#63b8ff" stroke="#63b8ff" points="234.05,-29.09 230.55,-19.09 227.05,-29.09 234.05,-29.09"/>
</a>
</g>
</g>
<!-- Node6 -->
<g id="Node000006" class="node">
<title>Node6</title>
<g id="a_Node000006"><a xlink:title=" ">
<polygon fill="#e0e0e0" stroke="#999999" points="121.05,-19 68.05,-19 68.05,0 121.05,0 121.05,-19"/>
<text text-anchor="middle" x="94.55" y="-7" font-family="Helvetica,sans-Serif" font-size="10.00">stdint.h</text>
</a>
</g>
</g>
<!-- Node4&#45;&gt;Node6 -->
<g id="edge6_Node000004_Node000006" class="edge">
<title>Node4&#45;&gt;Node6</title>
<g id="a_edge6_Node000004_Node000006"><a xlink:title=" ">
<path fill="none" stroke="#63b8ff" d="M208.7,-54.98C186.43,-46.3 151.65,-32.75 126.33,-22.88"/>
<polygon fill="#63b8ff" stroke="#63b8ff" points="127.39,-19.54 116.8,-19.17 124.84,-26.06 127.39,-19.54"/>
</a>
</g>
</g>
<!-- Node7&#45;&gt;Node2 -->
<g id="edge8_Node000007_Node000002" class="edge">
<title>Node7&#45;&gt;Node2</title>
<g id="a_edge8_Node000007_Node000002"><a xlink:title=" ">
<path fill="none" stroke="#63b8ff" d="M118.97,-219.83C138.08,-211.17 161.39,-198.9 179.55,-184 195.71,-170.74 210.22,-151.61 219.59,-137.82"/>
<polygon fill="#63b8ff" stroke="#63b8ff" points="222.65,-139.54 225.22,-129.26 216.8,-135.69 222.65,-139.54"/>
</a>
</g>
</g>
<!-- Node8 -->
<g id="Node000008" class="node">
<title>Node8</title>
<g id="a_Node000008"><a xlink:href="Module_8h.html" target="_top" xlink:title=" ">
<polygon fill="white" stroke="#666666" points="170.55,-184 90.55,-184 90.55,-165 170.55,-165 170.55,-184"/>
<text text-anchor="middle" x="130.55" y="-172" font-family="Helvetica,sans-Serif" font-size="10.00">../../Module.h</text>
</a>
</g>
</g>
<!-- Node7&#45;&gt;Node8 -->
<g id="edge9_Node000007_Node000008" class="edge">
<title>Node7&#45;&gt;Node8</title>
<g id="a_edge9_Node000007_Node000008"><a xlink:title=" ">
<path fill="none" stroke="#63b8ff" d="M94.93,-219.84C101.61,-211.52 110.1,-200.96 117.11,-192.23"/>
<polygon fill="#63b8ff" stroke="#63b8ff" points="119.97,-194.25 123.51,-184.27 114.52,-189.87 119.97,-194.25"/>
</a>
</g>
</g>
<!-- Node8&#45;&gt;Node2 -->
<g id="edge10_Node000008_Node000002" class="edge">
<title>Node8&#45;&gt;Node2</title>
<g id="a_edge10_Node000008_Node000002"><a xlink:title=" ">
<path fill="none" stroke="#63b8ff" d="M146.62,-164.98C162.41,-156.61 186.77,-143.7 205.18,-133.95"/>
<polygon fill="#63b8ff" stroke="#63b8ff" points="206.99,-136.95 214.19,-129.17 203.72,-130.76 206.99,-136.95"/>
</a>
</g>
</g>
<!-- Node9 -->
<g id="Node000009" class="node">
<title>Node9</title>
<g id="a_Node000009"><a xlink:href="Hal_8h.html" target="_top" xlink:title=" ">
<polygon fill="white" stroke="#666666" points="163.55,-129 121.55,-129 121.55,-110 163.55,-110 163.55,-129"/>
<text text-anchor="middle" x="142.55" y="-117" font-family="Helvetica,sans-Serif" font-size="10.00">Hal.h</text>
</a>
</g>
</g>
<!-- Node8&#45;&gt;Node9 -->
<g id="edge11_Node000008_Node000009" class="edge">
<title>Node8&#45;&gt;Node9</title>
<g id="a_edge11_Node000008_Node000009"><a xlink:title=" ">
<path fill="none" stroke="#63b8ff" d="M132.53,-164.75C134.12,-157.72 136.41,-147.62 138.4,-138.84"/>
<polygon fill="#63b8ff" stroke="#63b8ff" points="141.81,-139.62 140.61,-129.09 134.98,-138.07 141.81,-139.62"/>
</a>
</g>
</g>
<!-- Node11 -->
<g id="Node000011" class="node">
<title>Node11</title>
<g id="a_Node000011"><a xlink:href="Utils_8h.html" target="_top" xlink:title=" ">
<polygon fill="white" stroke="#666666" points="98.55,-129 26.55,-129 26.55,-110 98.55,-110 98.55,-129"/>
<text text-anchor="middle" x="62.55" y="-117" font-family="Helvetica,sans-Serif" font-size="10.00">utils/Utils.h</text>
</a>
</g>
</g>
<!-- Node8&#45;&gt;Node11 -->
<g id="edge15_Node000008_Node000011" class="edge">
<title>Node8&#45;&gt;Node11</title>
<g id="a_edge15_Node000008_Node000011"><a xlink:title=" ">
<path fill="none" stroke="#63b8ff" d="M119.62,-164.98C109.47,-157.07 94.13,-145.11 81.9,-135.58"/>
<polygon fill="#63b8ff" stroke="#63b8ff" points="83.71,-132.56 73.67,-129.17 79.41,-138.08 83.71,-132.56"/>
</a>
</g>
</g>
<!-- Node9&#45;&gt;Node4 -->
<g id="edge14_Node000009_Node000004" class="edge">
<title>Node9&#45;&gt;Node4</title>
<g id="a_edge14_Node000009_Node000004"><a xlink:title=" ">
<path fill="none" stroke="#63b8ff" d="M156.69,-109.98C170.34,-101.77 191.24,-89.18 207.33,-79.49"/>
<polygon fill="#63b8ff" stroke="#63b8ff" points="209.39,-82.33 216.15,-74.17 205.78,-76.33 209.39,-82.33"/>
</a>
</g>
</g>
<!-- Node9&#45;&gt;Node6 -->
<g id="edge12_Node000009_Node000006" class="edge">
<title>Node9&#45;&gt;Node6</title>
<g id="a_edge12_Node000009_Node000006"><a xlink:title=" ">
<path fill="none" stroke="#63b8ff" d="M135.75,-109.74C129.29,-101.07 119.68,-87.22 113.55,-74 106.89,-59.63 101.89,-42.35 98.7,-29.45"/>
<polygon fill="#63b8ff" stroke="#63b8ff" points="102.05,-28.36 96.37,-19.42 95.23,-29.95 102.05,-28.36"/>
</a>
</g>
</g>
<!-- Node10 -->
<g id="Node000010" class="node">
<title>Node10</title>
<g id="a_Node000010"><a xlink:title=" ">
<polygon fill="#e0e0e0" stroke="#999999" points="178.55,-74 122.55,-74 122.55,-55 178.55,-55 178.55,-74"/>
<text text-anchor="middle" x="150.55" y="-62" font-family="Helvetica,sans-Serif" font-size="10.00">stddef.h</text>
</a>
</g>
</g>
<!-- Node9&#45;&gt;Node10 -->
<g id="edge13_Node000009_Node000010" class="edge">
<title>Node9&#45;&gt;Node10</title>
<g id="a_edge13_Node000009_Node000010"><a xlink:title=" ">
<path fill="none" stroke="#63b8ff" d="M143.87,-109.75C144.92,-102.8 146.42,-92.85 147.74,-84.13"/>
<polygon fill="#63b8ff" stroke="#63b8ff" points="151.22,-84.5 149.25,-74.09 144.3,-83.45 151.22,-84.5"/>
</a>
</g>
</g>
<!-- Node11&#45;&gt;Node4 -->
<g id="edge18_Node000011_Node000004" class="edge">
<title>Node11&#45;&gt;Node4</title>
<g id="a_edge18_Node000011_Node000004"><a xlink:title=" ">
<path fill="none" stroke="#63b8ff" d="M89.54,-109.98C117.75,-101.09 162.19,-87.07 193.63,-77.15"/>
<polygon fill="#63b8ff" stroke="#63b8ff" points="194.86,-80.43 203.35,-74.08 192.76,-73.75 194.86,-80.43"/>
</a>
</g>
</g>
<!-- Node11&#45;&gt;Node6 -->
<g id="edge16_Node000011_Node000006" class="edge">
<title>Node11&#45;&gt;Node6</title>
<g id="a_edge16_Node000011_Node000006"><a xlink:title=" ">
<path fill="none" stroke="#63b8ff" d="M44,-109.97C21.92,-98.57 -10.31,-77.21 3.55,-55 15.5,-35.86 38.33,-24.72 58.14,-18.38"/>
<polygon fill="#63b8ff" stroke="#63b8ff" points="59.22,-21.71 67.85,-15.56 57.27,-14.99 59.22,-21.71"/>
</a>
</g>
</g>
<!-- Node12 -->
<g id="Node000012" class="node">
<title>Node12</title>
<g id="a_Node000012"><a xlink:title=" ">
<polygon fill="#e0e0e0" stroke="#999999" points="66.05,-74 13.05,-74 13.05,-55 66.05,-55 66.05,-74"/>
<text text-anchor="middle" x="39.55" y="-62" font-family="Helvetica,sans-Serif" font-size="10.00">stdlib.h</text>
</a>
</g>
</g>
<!-- Node11&#45;&gt;Node12 -->
<g id="edge17_Node000011_Node000012" class="edge">
<title>Node11&#45;&gt;Node12</title>
<g id="a_edge17_Node000011_Node000012"><a xlink:title=" ">
<path fill="none" stroke="#63b8ff" d="M58.75,-109.75C55.64,-102.57 51.13,-92.18 47.26,-83.27"/>
<polygon fill="#63b8ff" stroke="#63b8ff" points="50.47,-81.87 43.28,-74.09 44.05,-84.66 50.47,-81.87"/>
</a>
</g>
</g>
<!-- Node13&#45;&gt;Node2 -->
<g id="edge20_Node000013_Node000002" class="edge">
<title>Node13&#45;&gt;Node2</title>
<g id="a_edge20_Node000013_Node000002"><a xlink:title=" ">
<path fill="none" stroke="#63b8ff" d="M236.1,-225.47C235.13,-207.23 232.85,-164.07 231.54,-139.14"/>
<polygon fill="#63b8ff" stroke="#63b8ff" points="235.03,-138.93 231.01,-129.13 228.04,-139.3 235.03,-138.93"/>
</a>
</g>
</g>
<!-- Node13&#45;&gt;Node8 -->
<g id="edge21_Node000013_Node000008" class="edge">
<title>Node13&#45;&gt;Node8</title>
<g id="a_edge21_Node000013_Node000008"><a xlink:title=" ">
<path fill="none" stroke="#63b8ff" d="M220.91,-225.37C203.61,-215.82 175.5,-200.31 155.22,-189.12"/>
<polygon fill="#63b8ff" stroke="#63b8ff" points="156.7,-185.93 146.25,-184.17 153.32,-192.06 156.7,-185.93"/>
</a>
</g>
</g>
</g>
</svg>
