<?xml version="1.0" encoding="UTF-8" standalone="no"?>
<!DOCTYPE svg PUBLIC "-//W3C//DTD SVG 1.1//EN"
 "http://www.w3.org/Graphics/SVG/1.1/DTD/svg11.dtd">
<!-- Generated by graphviz version 2.43.0 (0)
 -->
<!-- Title: thirdparty/RadioLib/include/RadioLib/protocols/LoRaWAN/LoRaWAN.h Pages: 1 -->
<svg width="658pt" height="335pt"
 viewBox="0.00 0.00 658.00 335.00" xmlns="http://www.w3.org/2000/svg" xmlns:xlink="http://www.w3.org/1999/xlink">
<g id="graph0" class="graph" transform="scale(1 1) rotate(0) translate(4 331)">
<title>thirdparty/RadioLib/include/RadioLib/protocols/LoRaWAN/LoRaWAN.h</title>
<!-- Node1 -->
<g id="Node000001" class="node">
<title>Node1</title>
<g id="a_Node000001"><a xlink:title=" ">
<polygon fill="#999999" stroke="#666666" points="412,-327 264,-327 264,-286 412,-286 412,-327"/>
<text text-anchor="start" x="272" y="-315" font-family="Helvetica,sans-Serif" font-size="10.00">thirdparty/RadioLib</text>
<text text-anchor="start" x="272" y="-304" font-family="Helvetica,sans-Serif" font-size="10.00">/include/RadioLib/protocols</text>
<text text-anchor="middle" x="338" y="-293" font-family="Helvetica,sans-Serif" font-size="10.00">/LoRaWAN/LoRaWAN.h</text>
</a>
</g>
</g>
<!-- Node2 -->
<g id="Node000002" class="node">
<title>Node2</title>
<g id="a_Node000002"><a xlink:href="RadioLib_8h.html" target="_top" xlink:title=" ">
<polygon fill="white" stroke="#666666" points="222,-167.5 68,-167.5 68,-137.5 222,-137.5 222,-167.5"/>
<text text-anchor="start" x="76" y="-155.5" font-family="Helvetica,sans-Serif" font-size="10.00">thirdparty/RadioLib</text>
<text text-anchor="middle" x="145" y="-144.5" font-family="Helvetica,sans-Serif" font-size="10.00">/include/RadioLib/RadioLib.h</text>
</a>
</g>
</g>
<!-- Node1&#45;&gt;Node2 -->
<g id="edge1_Node000001_Node000002" class="edge">
<title>Node1&#45;&gt;Node2</title>
<g id="a_edge1_Node000001_Node000002"><a xlink:title=" ">
<path fill="none" stroke="#63b8ff" d="M293.17,-280.7C278.05,-271.69 261.38,-260.99 247,-250 212.53,-223.65 176.68,-187.29 158.04,-167.58"/>
<polygon fill="#63b8ff" stroke="#63b8ff" points="291.47,-283.76 301.86,-285.81 295.01,-277.73 291.47,-283.76"/>
</a>
</g>
</g>
<!-- Node6 -->
<g id="Node000006" class="node">
<title>Node6</title>
<g id="a_Node000006"><a xlink:href="LoRaWANPacMan_8h.html" target="_top" xlink:title=" ">
<polygon fill="white" stroke="#666666" points="420,-250 256,-250 256,-209 420,-209 420,-250"/>
<text text-anchor="start" x="264" y="-238" font-family="Helvetica,sans-Serif" font-size="10.00">thirdparty/RadioLib</text>
<text text-anchor="start" x="264" y="-227" font-family="Helvetica,sans-Serif" font-size="10.00">/include/RadioLib/protocols</text>
<text text-anchor="middle" x="338" y="-216" font-family="Helvetica,sans-Serif" font-size="10.00">/LoRaWAN/LoRaWANPacMan.h</text>
</a>
</g>
</g>
<!-- Node1&#45;&gt;Node6 -->
<g id="edge7_Node000001_Node000006" class="edge">
<title>Node1&#45;&gt;Node6</title>
<g id="a_edge7_Node000001_Node000006"><a xlink:title=" ">
<path fill="none" stroke="#63b8ff" d="M338,-275.69C338,-267.08 338,-257.9 338,-250.07"/>
<polygon fill="#63b8ff" stroke="#63b8ff" points="334.5,-275.79 338,-285.79 341.5,-275.79 334.5,-275.79"/>
</a>
</g>
</g>
<!-- Node8 -->
<g id="Node000008" class="node">
<title>Node8</title>
<g id="a_Node000008"><a xlink:href="LoRaWANPackageTS009_8h.html" target="_top" xlink:title=" ">
<polygon fill="white" stroke="#666666" points="650,-173 454,-173 454,-132 650,-132 650,-173"/>
<text text-anchor="start" x="462" y="-161" font-family="Helvetica,sans-Serif" font-size="10.00">thirdparty/RadioLib</text>
<text text-anchor="start" x="462" y="-150" font-family="Helvetica,sans-Serif" font-size="10.00">/include/RadioLib/protocols</text>
<text text-anchor="middle" x="552" y="-139" font-family="Helvetica,sans-Serif" font-size="10.00">/LoRaWAN/LoRaWANPackageTS009.h</text>
</a>
</g>
</g>
<!-- Node1&#45;&gt;Node8 -->
<g id="edge11_Node000001_Node000008" class="edge">
<title>Node1&#45;&gt;Node8</title>
<g id="a_edge11_Node000001_Node000008"><a xlink:title=" ">
<path fill="none" stroke="#63b8ff" d="M381.11,-280.63C396.48,-271.39 413.75,-260.58 429,-250 464.91,-225.09 504.3,-193.35 528.59,-173.21"/>
<polygon fill="#63b8ff" stroke="#63b8ff" points="379.11,-277.74 372.31,-285.87 382.69,-283.76 379.11,-277.74"/>
</a>
</g>
</g>
<!-- Node3 -->
<g id="Node000003" class="node">
<title>Node3</title>
<g id="a_Node000003"><a xlink:href="receiver-normal_8cpp.html" target="_top" xlink:title=" ">
<polygon fill="white" stroke="#666666" points="132,-19 0,-19 0,0 132,0 132,-19"/>
<text text-anchor="middle" x="66" y="-7" font-family="Helvetica,sans-Serif" font-size="10.00">src/receiver&#45;normal.cpp</text>
</a>
</g>
</g>
<!-- Node2&#45;&gt;Node3 -->
<g id="edge2_Node000002_Node000003" class="edge">
<title>Node2&#45;&gt;Node3</title>
<g id="a_edge2_Node000002_Node000003"><a xlink:title=" ">
<path fill="none" stroke="#63b8ff" d="M110.84,-131.53C98.16,-122.34 84.94,-110.29 77,-96 63.04,-70.88 63.83,-35.35 65.1,-19.15"/>
<polygon fill="#63b8ff" stroke="#63b8ff" points="109.24,-134.67 119.47,-137.43 113.19,-128.89 109.24,-134.67"/>
</a>
</g>
</g>
<!-- Node4 -->
<g id="Node000004" class="node">
<title>Node4</title>
<g id="a_Node000004"><a xlink:href="transmitter-normal_8cpp.html" target="_top" xlink:title=" ">
<polygon fill="white" stroke="#666666" points="301.5,-19 154.5,-19 154.5,0 301.5,0 301.5,-19"/>
<text text-anchor="middle" x="228" y="-7" font-family="Helvetica,sans-Serif" font-size="10.00">src/transmitter&#45;normal.cpp</text>
</a>
</g>
</g>
<!-- Node2&#45;&gt;Node4 -->
<g id="edge3_Node000002_Node000004" class="edge">
<title>Node2&#45;&gt;Node4</title>
<g id="a_edge3_Node000002_Node000004"><a xlink:title=" ">
<path fill="none" stroke="#63b8ff" d="M178.17,-131.82C191,-122.54 204.6,-110.34 213,-96 227.63,-71.03 228.75,-35.42 228.4,-19.18"/>
<polygon fill="#63b8ff" stroke="#63b8ff" points="176.18,-128.94 169.91,-137.49 180.14,-134.71 176.18,-128.94"/>
</a>
</g>
</g>
<!-- Node5 -->
<g id="Node000005" class="node">
<title>Node5</title>
<g id="a_Node000005"><a xlink:href="PiHal_8h.html" target="_top" xlink:title=" ">
<polygon fill="white" stroke="#666666" points="204,-96 86,-96 86,-55 204,-55 204,-96"/>
<text text-anchor="start" x="94" y="-84" font-family="Helvetica,sans-Serif" font-size="10.00">thirdparty/RadioLib</text>
<text text-anchor="start" x="94" y="-73" font-family="Helvetica,sans-Serif" font-size="10.00">/include/RadioLib/hal</text>
<text text-anchor="middle" x="145" y="-62" font-family="Helvetica,sans-Serif" font-size="10.00">/RPi/PiHal.h</text>
</a>
</g>
</g>
<!-- Node2&#45;&gt;Node5 -->
<g id="edge4_Node000002_Node000005" class="edge">
<title>Node2&#45;&gt;Node5</title>
<g id="a_edge4_Node000002_Node000005"><a xlink:title=" ">
<path fill="none" stroke="#63b8ff" d="M145,-127.23C145,-117.2 145,-105.71 145,-96.2"/>
<polygon fill="#63b8ff" stroke="#63b8ff" points="141.5,-127.39 145,-137.39 148.5,-127.39 141.5,-127.39"/>
</a>
</g>
</g>
<!-- Node5&#45;&gt;Node3 -->
<g id="edge5_Node000005_Node000003" class="edge">
<title>Node5&#45;&gt;Node3</title>
<g id="a_edge5_Node000005_Node000003"><a xlink:title=" ">
<path fill="none" stroke="#63b8ff" d="M113.04,-48.61C100.16,-38.17 86.16,-26.83 76.81,-19.26"/>
<polygon fill="#63b8ff" stroke="#63b8ff" points="110.89,-51.37 120.87,-54.95 115.3,-45.94 110.89,-51.37"/>
</a>
</g>
</g>
<!-- Node5&#45;&gt;Node4 -->
<g id="edge6_Node000005_Node000004" class="edge">
<title>Node5&#45;&gt;Node4</title>
<g id="a_edge6_Node000005_Node000004"><a xlink:title=" ">
<path fill="none" stroke="#63b8ff" d="M178.58,-48.61C192.11,-38.17 206.82,-26.83 216.64,-19.26"/>
<polygon fill="#63b8ff" stroke="#63b8ff" points="176.14,-46.07 170.35,-54.95 180.41,-51.62 176.14,-46.07"/>
</a>
</g>
</g>
<!-- Node6&#45;&gt;Node2 -->
<g id="edge8_Node000006_Node000002" class="edge">
<title>Node6&#45;&gt;Node2</title>
<g id="a_edge8_Node000006_Node000002"><a xlink:title=" ">
<path fill="none" stroke="#63b8ff" d="M278.17,-205.25C246.44,-192.92 208.49,-178.17 181.24,-167.58"/>
<polygon fill="#63b8ff" stroke="#63b8ff" points="277.21,-208.63 287.8,-208.99 279.74,-202.11 277.21,-208.63"/>
</a>
</g>
</g>
<!-- Node7 -->
<g id="Node000007" class="node">
<title>Node7</title>
<g id="a_Node000007"><a xlink:href="LoRaWANPackageTS003_8h.html" target="_top" xlink:title=" ">
<polygon fill="white" stroke="#666666" points="436,-173 240,-173 240,-132 436,-132 436,-173"/>
<text text-anchor="start" x="248" y="-161" font-family="Helvetica,sans-Serif" font-size="10.00">thirdparty/RadioLib</text>
<text text-anchor="start" x="248" y="-150" font-family="Helvetica,sans-Serif" font-size="10.00">/include/RadioLib/protocols</text>
<text text-anchor="middle" x="338" y="-139" font-family="Helvetica,sans-Serif" font-size="10.00">/LoRaWAN/LoRaWANPackageTS003.h</text>
</a>
</g>
</g>
<!-- Node6&#45;&gt;Node7 -->
<g id="edge9_Node000006_Node000007" class="edge">
<title>Node6&#45;&gt;Node7</title>
<g id="a_edge9_Node000006_Node000007"><a xlink:title=" ">
<path fill="none" stroke="#63b8ff" d="M338,-198.69C338,-190.08 338,-180.9 338,-173.07"/>
<polygon fill="#63b8ff" stroke="#63b8ff" points="334.5,-198.79 338,-208.79 341.5,-198.79 334.5,-198.79"/>
</a>
</g>
</g>
<!-- Node6&#45;&gt;Node8 -->
<g id="edge10_Node000006_Node000008" class="edge">
<title>Node6&#45;&gt;Node8</title>
<g id="a_edge10_Node000006_Node000008"><a xlink:title=" ">
<path fill="none" stroke="#63b8ff" d="M403.13,-205.67C432.87,-195.25 467.73,-183.03 496.24,-173.04"/>
<polygon fill="#63b8ff" stroke="#63b8ff" points="401.95,-202.38 393.67,-208.99 404.26,-208.99 401.95,-202.38"/>
</a>
</g>
</g>
</g>
</svg>
