<?xml version="1.0" encoding="UTF-8" standalone="no"?>
<!DOCTYPE svg PUBLIC "-//W3C//DTD SVG 1.1//EN"
 "http://www.w3.org/Graphics/SVG/1.1/DTD/svg11.dtd">
<!-- Generated by graphviz version 2.43.0 (0)
 -->
<!-- Title: thirdparty/RadioLib/include/RadioLib/protocols/LoRaWAN/LoRaWANPacMan.h Pages: 1 -->
<svg width="630pt" height="258pt"
 viewBox="0.00 0.00 629.50 258.00" xmlns="http://www.w3.org/2000/svg" xmlns:xlink="http://www.w3.org/1999/xlink">
<g id="graph0" class="graph" transform="scale(1 1) rotate(0) translate(4 254)">
<title>thirdparty/RadioLib/include/RadioLib/protocols/LoRaWAN/LoRaWANPacMan.h</title>
<!-- Node1 -->
<g id="Node000001" class="node">
<title>Node1</title>
<g id="a_Node000001"><a xlink:title=" ">
<polygon fill="#999999" stroke="#666666" points="391.5,-250 227.5,-250 227.5,-209 391.5,-209 391.5,-250"/>
<text text-anchor="start" x="235.5" y="-238" font-family="Helvetica,sans-Serif" font-size="10.00">thirdparty/RadioLib</text>
<text text-anchor="start" x="235.5" y="-227" font-family="Helvetica,sans-Serif" font-size="10.00">/include/RadioLib/protocols</text>
<text text-anchor="middle" x="309.5" y="-216" font-family="Helvetica,sans-Serif" font-size="10.00">/LoRaWAN/LoRaWANPacMan.h</text>
</a>
</g>
</g>
<!-- Node2 -->
<g id="Node000002" class="node">
<title>Node2</title>
<g id="a_Node000002"><a xlink:href="RadioLib_8h.html" target="_top" xlink:title=" ">
<polygon fill="white" stroke="#666666" points="193.5,-167.5 39.5,-167.5 39.5,-137.5 193.5,-137.5 193.5,-167.5"/>
<text text-anchor="start" x="47.5" y="-155.5" font-family="Helvetica,sans-Serif" font-size="10.00">thirdparty/RadioLib</text>
<text text-anchor="middle" x="116.5" y="-144.5" font-family="Helvetica,sans-Serif" font-size="10.00">/include/RadioLib/RadioLib.h</text>
</a>
</g>
</g>
<!-- Node1&#45;&gt;Node2 -->
<g id="edge1_Node000001_Node000002" class="edge">
<title>Node1&#45;&gt;Node2</title>
<g id="a_edge1_Node000001_Node000002"><a xlink:title=" ">
<path fill="none" stroke="#63b8ff" d="M249.67,-205.25C217.94,-192.92 179.99,-178.17 152.74,-167.58"/>
<polygon fill="#63b8ff" stroke="#63b8ff" points="248.71,-208.63 259.3,-208.99 251.24,-202.11 248.71,-208.63"/>
</a>
</g>
</g>
<!-- Node6 -->
<g id="Node000006" class="node">
<title>Node6</title>
<g id="a_Node000006"><a xlink:href="LoRaWANPackageTS003_8h.html" target="_top" xlink:title=" ">
<polygon fill="white" stroke="#666666" points="407.5,-173 211.5,-173 211.5,-132 407.5,-132 407.5,-173"/>
<text text-anchor="start" x="219.5" y="-161" font-family="Helvetica,sans-Serif" font-size="10.00">thirdparty/RadioLib</text>
<text text-anchor="start" x="219.5" y="-150" font-family="Helvetica,sans-Serif" font-size="10.00">/include/RadioLib/protocols</text>
<text text-anchor="middle" x="309.5" y="-139" font-family="Helvetica,sans-Serif" font-size="10.00">/LoRaWAN/LoRaWANPackageTS003.h</text>
</a>
</g>
</g>
<!-- Node1&#45;&gt;Node6 -->
<g id="edge6_Node000001_Node000006" class="edge">
<title>Node1&#45;&gt;Node6</title>
<g id="a_edge6_Node000001_Node000006"><a xlink:title=" ">
<path fill="none" stroke="#63b8ff" d="M309.5,-198.69C309.5,-190.08 309.5,-180.9 309.5,-173.07"/>
<polygon fill="#63b8ff" stroke="#63b8ff" points="306,-198.79 309.5,-208.79 313,-198.79 306,-198.79"/>
</a>
</g>
</g>
<!-- Node7 -->
<g id="Node000007" class="node">
<title>Node7</title>
<g id="a_Node000007"><a xlink:href="LoRaWANPackageTS009_8h.html" target="_top" xlink:title=" ">
<polygon fill="white" stroke="#666666" points="621.5,-173 425.5,-173 425.5,-132 621.5,-132 621.5,-173"/>
<text text-anchor="start" x="433.5" y="-161" font-family="Helvetica,sans-Serif" font-size="10.00">thirdparty/RadioLib</text>
<text text-anchor="start" x="433.5" y="-150" font-family="Helvetica,sans-Serif" font-size="10.00">/include/RadioLib/protocols</text>
<text text-anchor="middle" x="523.5" y="-139" font-family="Helvetica,sans-Serif" font-size="10.00">/LoRaWAN/LoRaWANPackageTS009.h</text>
</a>
</g>
</g>
<!-- Node1&#45;&gt;Node7 -->
<g id="edge7_Node000001_Node000007" class="edge">
<title>Node1&#45;&gt;Node7</title>
<g id="a_edge7_Node000001_Node000007"><a xlink:title=" ">
<path fill="none" stroke="#63b8ff" d="M374.63,-205.67C404.37,-195.25 439.23,-183.03 467.74,-173.04"/>
<polygon fill="#63b8ff" stroke="#63b8ff" points="373.45,-202.38 365.17,-208.99 375.76,-208.99 373.45,-202.38"/>
</a>
</g>
</g>
<!-- Node3 -->
<g id="Node000003" class="node">
<title>Node3</title>
<g id="a_Node000003"><a xlink:href="transmitter-normal_8cpp.html" target="_top" xlink:title="CHRONOS&#45;LoRa Transmitter program (Normal)">
<polygon fill="white" stroke="#666666" points="147,-19 0,-19 0,0 147,0 147,-19"/>
<text text-anchor="middle" x="73.5" y="-7" font-family="Helvetica,sans-Serif" font-size="10.00">src/transmitter&#45;normal.cpp</text>
</a>
</g>
</g>
<!-- Node2&#45;&gt;Node3 -->
<g id="edge2_Node000002_Node000003" class="edge">
<title>Node2&#45;&gt;Node3</title>
<g id="a_edge2_Node000002_Node000003"><a xlink:title=" ">
<path fill="none" stroke="#63b8ff" d="M105.08,-127.81C100.71,-118.11 95.96,-106.67 92.5,-96 83.59,-68.52 77.44,-34.73 74.86,-19.14"/>
<polygon fill="#63b8ff" stroke="#63b8ff" points="102.04,-129.58 109.41,-137.18 108.39,-126.64 102.04,-129.58"/>
</a>
</g>
</g>
<!-- Node4 -->
<g id="Node000004" class="node">
<title>Node4</title>
<g id="a_Node000004"><a xlink:href="PiHal_8h.html" target="_top" xlink:title=" ">
<polygon fill="white" stroke="#666666" points="219.5,-96 101.5,-96 101.5,-55 219.5,-55 219.5,-96"/>
<text text-anchor="start" x="109.5" y="-84" font-family="Helvetica,sans-Serif" font-size="10.00">thirdparty/RadioLib</text>
<text text-anchor="start" x="109.5" y="-73" font-family="Helvetica,sans-Serif" font-size="10.00">/include/RadioLib/hal</text>
<text text-anchor="middle" x="160.5" y="-62" font-family="Helvetica,sans-Serif" font-size="10.00">/RPi/PiHal.h</text>
</a>
</g>
</g>
<!-- Node2&#45;&gt;Node4 -->
<g id="edge3_Node000002_Node000004" class="edge">
<title>Node2&#45;&gt;Node4</title>
<g id="a_edge3_Node000002_Node000004"><a xlink:title=" ">
<path fill="none" stroke="#63b8ff" d="M129.99,-128.51C136.05,-118.18 143.13,-106.11 148.94,-96.2"/>
<polygon fill="#63b8ff" stroke="#63b8ff" points="126.82,-127 124.78,-137.39 132.86,-130.54 126.82,-127"/>
</a>
</g>
</g>
<!-- Node4&#45;&gt;Node3 -->
<g id="edge5_Node000004_Node000003" class="edge">
<title>Node4&#45;&gt;Node3</title>
<g id="a_edge5_Node000004_Node000003"><a xlink:title=" ">
<path fill="none" stroke="#63b8ff" d="M125.71,-48.9C111.41,-38.39 95.8,-26.9 85.41,-19.26"/>
<polygon fill="#63b8ff" stroke="#63b8ff" points="123.8,-51.84 133.92,-54.95 127.94,-46.21 123.8,-51.84"/>
</a>
</g>
</g>
<!-- Node5 -->
<g id="Node000005" class="node">
<title>Node5</title>
<g id="a_Node000005"><a xlink:href="receiver-normal_8cpp.html" target="_top" xlink:title="CHRONOS&#45;LoRa Receiver program (Normal)">
<polygon fill="white" stroke="#666666" points="297.5,-19 165.5,-19 165.5,0 297.5,0 297.5,-19"/>
<text text-anchor="middle" x="231.5" y="-7" font-family="Helvetica,sans-Serif" font-size="10.00">src/receiver&#45;normal.cpp</text>
</a>
</g>
</g>
<!-- Node4&#45;&gt;Node5 -->
<g id="edge4_Node000004_Node000005" class="edge">
<title>Node4&#45;&gt;Node5</title>
<g id="a_edge4_Node000004_Node000005"><a xlink:title=" ">
<path fill="none" stroke="#63b8ff" d="M189.88,-48.02C201.28,-37.74 213.54,-26.69 221.78,-19.26"/>
<polygon fill="#63b8ff" stroke="#63b8ff" points="187.27,-45.65 182.19,-54.95 191.96,-50.85 187.27,-45.65"/>
</a>
</g>
</g>
</g>
</svg>
