<?xml version="1.0" encoding="UTF-8" standalone="no"?>
<!DOCTYPE svg PUBLIC "-//W3C//DTD SVG 1.1//EN"
 "http://www.w3.org/Graphics/SVG/1.1/DTD/svg11.dtd">
<!-- Generated by graphviz version 2.43.0 (0)
 -->
<!-- Title: thirdparty/RadioLib/include/RadioLib/modules/LR11x0/LR1120.h Pages: 1 -->
<svg width="306pt" height="324pt"
 viewBox="0.00 0.00 305.50 324.00" xmlns="http://www.w3.org/2000/svg" xmlns:xlink="http://www.w3.org/1999/xlink">
<g id="graph0" class="graph" transform="scale(1 1) rotate(0) translate(4 320)">
<title>thirdparty/RadioLib/include/RadioLib/modules/LR11x0/LR1120.h</title>
<!-- Node1 -->
<g id="Node000001" class="node">
<title>Node1</title>
<g id="a_Node000001"><a xlink:title=" ">
<polygon fill="#999999" stroke="#666666" points="189,-316 44,-316 44,-275 189,-275 189,-316"/>
<text text-anchor="start" x="52" y="-304" font-family="Helvetica,sans-Serif" font-size="10.00">thirdparty/RadioLib</text>
<text text-anchor="start" x="52" y="-293" font-family="Helvetica,sans-Serif" font-size="10.00">/include/RadioLib/modules</text>
<text text-anchor="middle" x="116.5" y="-282" font-family="Helvetica,sans-Serif" font-size="10.00">/LR11x0/LR1120.h</text>
</a>
</g>
</g>
<!-- Node2 -->
<g id="Node000002" class="node">
<title>Node2</title>
<g id="a_Node000002"><a xlink:href="RadioLib_8h.html" target="_top" xlink:title=" ">
<polygon fill="white" stroke="#666666" points="193.5,-162 39.5,-162 39.5,-132 193.5,-132 193.5,-162"/>
<text text-anchor="start" x="47.5" y="-150" font-family="Helvetica,sans-Serif" font-size="10.00">thirdparty/RadioLib</text>
<text text-anchor="middle" x="116.5" y="-139" font-family="Helvetica,sans-Serif" font-size="10.00">/include/RadioLib/RadioLib.h</text>
</a>
</g>
</g>
<!-- Node1&#45;&gt;Node2 -->
<g id="edge1_Node000001_Node000002" class="edge">
<title>Node1&#45;&gt;Node2</title>
<g id="a_edge1_Node000001_Node000002"><a xlink:title=" ">
<path fill="none" stroke="#63b8ff" d="M97.03,-266.13C92.31,-257.76 87.93,-248.33 85.5,-239 80.91,-221.37 80.51,-215.53 85.5,-198 89.25,-184.84 97.57,-171.76 104.64,-162.28"/>
<polygon fill="#63b8ff" stroke="#63b8ff" points="94.06,-267.98 102.21,-274.75 100.06,-264.37 94.06,-267.98"/>
</a>
</g>
</g>
<!-- Node6 -->
<g id="Node000006" class="node">
<title>Node6</title>
<g id="a_Node000006"><a xlink:href="LR1121_8h.html" target="_top" xlink:title=" ">
<polygon fill="white" stroke="#666666" points="240,-239 95,-239 95,-198 240,-198 240,-239"/>
<text text-anchor="start" x="103" y="-227" font-family="Helvetica,sans-Serif" font-size="10.00">thirdparty/RadioLib</text>
<text text-anchor="start" x="103" y="-216" font-family="Helvetica,sans-Serif" font-size="10.00">/include/RadioLib/modules</text>
<text text-anchor="middle" x="167.5" y="-205" font-family="Helvetica,sans-Serif" font-size="10.00">/LR11x0/LR1121.h</text>
</a>
</g>
</g>
<!-- Node1&#45;&gt;Node6 -->
<g id="edge6_Node000001_Node000006" class="edge">
<title>Node1&#45;&gt;Node6</title>
<g id="a_edge6_Node000001_Node000006"><a xlink:title=" ">
<path fill="none" stroke="#63b8ff" d="M135.61,-266.39C141.8,-257.3 148.52,-247.41 154.19,-239.07"/>
<polygon fill="#63b8ff" stroke="#63b8ff" points="132.63,-264.56 129.9,-274.79 138.42,-268.49 132.63,-264.56"/>
</a>
</g>
</g>
<!-- Node3 -->
<g id="Node000003" class="node">
<title>Node3</title>
<g id="a_Node000003"><a xlink:href="transmitter-normal_8cpp.html" target="_top" xlink:title="CHRONOS&#45;LoRa Transmitter program (Normal)">
<polygon fill="white" stroke="#666666" points="147,-19 0,-19 0,0 147,0 147,-19"/>
<text text-anchor="middle" x="73.5" y="-7" font-family="Helvetica,sans-Serif" font-size="10.00">src/transmitter&#45;normal.cpp</text>
</a>
</g>
</g>
<!-- Node2&#45;&gt;Node3 -->
<g id="edge2_Node000002_Node000003" class="edge">
<title>Node2&#45;&gt;Node3</title>
<g id="a_edge2_Node000002_Node000003"><a xlink:title=" ">
<path fill="none" stroke="#63b8ff" d="M104.03,-122.86C99.93,-114.56 95.62,-105.03 92.5,-96 83.05,-68.7 77.16,-34.82 74.75,-19.17"/>
<polygon fill="#63b8ff" stroke="#63b8ff" points="101,-124.62 108.67,-131.93 107.23,-121.43 101,-124.62"/>
</a>
</g>
</g>
<!-- Node4 -->
<g id="Node000004" class="node">
<title>Node4</title>
<g id="a_Node000004"><a xlink:href="PiHal_8h.html" target="_top" xlink:title=" ">
<polygon fill="white" stroke="#666666" points="219.5,-96 101.5,-96 101.5,-55 219.5,-55 219.5,-96"/>
<text text-anchor="start" x="109.5" y="-84" font-family="Helvetica,sans-Serif" font-size="10.00">thirdparty/RadioLib</text>
<text text-anchor="start" x="109.5" y="-73" font-family="Helvetica,sans-Serif" font-size="10.00">/include/RadioLib/hal</text>
<text text-anchor="middle" x="160.5" y="-62" font-family="Helvetica,sans-Serif" font-size="10.00">/RPi/PiHal.h</text>
</a>
</g>
</g>
<!-- Node2&#45;&gt;Node4 -->
<g id="edge3_Node000002_Node000004" class="edge">
<title>Node2&#45;&gt;Node4</title>
<g id="a_edge3_Node000002_Node000004"><a xlink:title=" ">
<path fill="none" stroke="#63b8ff" d="M130.87,-123.31C136.43,-114.52 142.74,-104.55 148.11,-96.07"/>
<polygon fill="#63b8ff" stroke="#63b8ff" points="127.8,-121.61 125.4,-131.94 133.71,-125.36 127.8,-121.61"/>
</a>
</g>
</g>
<!-- Node4&#45;&gt;Node3 -->
<g id="edge5_Node000004_Node000003" class="edge">
<title>Node4&#45;&gt;Node3</title>
<g id="a_edge5_Node000004_Node000003"><a xlink:title=" ">
<path fill="none" stroke="#63b8ff" d="M125.71,-48.9C111.41,-38.39 95.8,-26.9 85.41,-19.26"/>
<polygon fill="#63b8ff" stroke="#63b8ff" points="123.8,-51.84 133.92,-54.95 127.94,-46.21 123.8,-51.84"/>
</a>
</g>
</g>
<!-- Node5 -->
<g id="Node000005" class="node">
<title>Node5</title>
<g id="a_Node000005"><a xlink:href="receiver-normal_8cpp.html" target="_top" xlink:title="CHRONOS&#45;LoRa Receiver program (Normal)">
<polygon fill="white" stroke="#666666" points="297.5,-19 165.5,-19 165.5,0 297.5,0 297.5,-19"/>
<text text-anchor="middle" x="231.5" y="-7" font-family="Helvetica,sans-Serif" font-size="10.00">src/receiver&#45;normal.cpp</text>
</a>
</g>
</g>
<!-- Node4&#45;&gt;Node5 -->
<g id="edge4_Node000004_Node000005" class="edge">
<title>Node4&#45;&gt;Node5</title>
<g id="a_edge4_Node000004_Node000005"><a xlink:title=" ">
<path fill="none" stroke="#63b8ff" d="M189.88,-48.02C201.28,-37.74 213.54,-26.69 221.78,-19.26"/>
<polygon fill="#63b8ff" stroke="#63b8ff" points="187.27,-45.65 182.19,-54.95 191.96,-50.85 187.27,-45.65"/>
</a>
</g>
</g>
<!-- Node6&#45;&gt;Node2 -->
<g id="edge7_Node000006_Node000002" class="edge">
<title>Node6&#45;&gt;Node2</title>
<g id="a_edge7_Node000006_Node000002"><a xlink:title=" ">
<path fill="none" stroke="#63b8ff" d="M147.09,-189.69C140.12,-180.19 132.63,-169.98 126.8,-162.04"/>
<polygon fill="#63b8ff" stroke="#63b8ff" points="144.28,-191.78 153.02,-197.77 149.93,-187.64 144.28,-191.78"/>
</a>
</g>
</g>
</g>
</svg>
