<?xml version="1.0" encoding="UTF-8" standalone="no"?>
<!DOCTYPE svg PUBLIC "-//W3C//DTD SVG 1.1//EN"
 "http://www.w3.org/Graphics/SVG/1.1/DTD/svg11.dtd">
<!-- Generated by graphviz version 2.43.0 (0)
 -->
<!-- Title: thirdparty/RadioLib/include/RadioLib/modules/LR11x0/LR11x0_commands.h Pages: 1 -->
<svg width="363pt" height="478pt"
 viewBox="0.00 0.00 362.50 478.00" xmlns="http://www.w3.org/2000/svg" xmlns:xlink="http://www.w3.org/1999/xlink">
<g id="graph0" class="graph" transform="scale(1 1) rotate(0) translate(4 474)">
<title>thirdparty/RadioLib/include/RadioLib/modules/LR11x0/LR11x0_commands.h</title>
<!-- Node1 -->
<g id="Node000001" class="node">
<title>Node1</title>
<g id="a_Node000001"><a xlink:title=" ">
<polygon fill="#999999" stroke="#666666" points="255,-470 92,-470 92,-429 255,-429 255,-470"/>
<text text-anchor="start" x="100" y="-458" font-family="Helvetica,sans-Serif" font-size="10.00">thirdparty/RadioLib</text>
<text text-anchor="start" x="100" y="-447" font-family="Helvetica,sans-Serif" font-size="10.00">/include/RadioLib/modules</text>
<text text-anchor="middle" x="173.5" y="-436" font-family="Helvetica,sans-Serif" font-size="10.00">/LR11x0/LR11x0_commands.h</text>
</a>
</g>
</g>
<!-- Node2 -->
<g id="Node000002" class="node">
<title>Node2</title>
<g id="a_Node000002"><a xlink:href="LR11x0_8h.html" target="_top" xlink:title=" ">
<polygon fill="white" stroke="#666666" points="246,-393 101,-393 101,-352 246,-352 246,-393"/>
<text text-anchor="start" x="109" y="-381" font-family="Helvetica,sans-Serif" font-size="10.00">thirdparty/RadioLib</text>
<text text-anchor="start" x="109" y="-370" font-family="Helvetica,sans-Serif" font-size="10.00">/include/RadioLib/modules</text>
<text text-anchor="middle" x="173.5" y="-359" font-family="Helvetica,sans-Serif" font-size="10.00">/LR11x0/LR11x0.h</text>
</a>
</g>
</g>
<!-- Node1&#45;&gt;Node2 -->
<g id="edge1_Node000001_Node000002" class="edge">
<title>Node1&#45;&gt;Node2</title>
<g id="a_edge1_Node000001_Node000002"><a xlink:title=" ">
<path fill="none" stroke="#63b8ff" d="M173.5,-418.69C173.5,-410.08 173.5,-400.9 173.5,-393.07"/>
<polygon fill="#63b8ff" stroke="#63b8ff" points="170,-418.79 173.5,-428.79 177,-418.79 170,-418.79"/>
</a>
</g>
</g>
<!-- Node3 -->
<g id="Node000003" class="node">
<title>Node3</title>
<g id="a_Node000003"><a xlink:href="LR1110_8h.html" target="_top" xlink:title=" ">
<polygon fill="white" stroke="#666666" points="145,-239 0,-239 0,-198 145,-198 145,-239"/>
<text text-anchor="start" x="8" y="-227" font-family="Helvetica,sans-Serif" font-size="10.00">thirdparty/RadioLib</text>
<text text-anchor="start" x="8" y="-216" font-family="Helvetica,sans-Serif" font-size="10.00">/include/RadioLib/modules</text>
<text text-anchor="middle" x="72.5" y="-205" font-family="Helvetica,sans-Serif" font-size="10.00">/LR11x0/LR1110.h</text>
</a>
</g>
</g>
<!-- Node2&#45;&gt;Node3 -->
<g id="edge2_Node000002_Node000003" class="edge">
<title>Node2&#45;&gt;Node3</title>
<g id="a_edge2_Node000002_Node000003"><a xlink:title=" ">
<path fill="none" stroke="#63b8ff" d="M123.89,-346.29C112.02,-338.11 100.48,-327.99 92.5,-316 77.05,-292.78 73.17,-260.01 72.38,-239.26"/>
<polygon fill="#63b8ff" stroke="#63b8ff" points="122.26,-349.4 132.55,-351.9 126.06,-343.53 122.26,-349.4"/>
</a>
</g>
</g>
<!-- Node8 -->
<g id="Node000008" class="node">
<title>Node8</title>
<g id="a_Node000008"><a xlink:href="LR1120_8h.html" target="_top" xlink:title=" ">
<polygon fill="white" stroke="#666666" points="246,-316 101,-316 101,-275 246,-275 246,-316"/>
<text text-anchor="start" x="109" y="-304" font-family="Helvetica,sans-Serif" font-size="10.00">thirdparty/RadioLib</text>
<text text-anchor="start" x="109" y="-293" font-family="Helvetica,sans-Serif" font-size="10.00">/include/RadioLib/modules</text>
<text text-anchor="middle" x="173.5" y="-282" font-family="Helvetica,sans-Serif" font-size="10.00">/LR11x0/LR1120.h</text>
</a>
</g>
</g>
<!-- Node2&#45;&gt;Node8 -->
<g id="edge8_Node000002_Node000008" class="edge">
<title>Node2&#45;&gt;Node8</title>
<g id="a_edge8_Node000002_Node000008"><a xlink:title=" ">
<path fill="none" stroke="#63b8ff" d="M173.5,-341.69C173.5,-333.08 173.5,-323.9 173.5,-316.07"/>
<polygon fill="#63b8ff" stroke="#63b8ff" points="170,-341.79 173.5,-351.79 177,-341.79 170,-341.79"/>
</a>
</g>
</g>
<!-- Node9 -->
<g id="Node000009" class="node">
<title>Node9</title>
<g id="a_Node000009"><a xlink:href="LR1121_8h.html" target="_top" xlink:title=" ">
<polygon fill="white" stroke="#666666" points="347,-239 202,-239 202,-198 347,-198 347,-239"/>
<text text-anchor="start" x="210" y="-227" font-family="Helvetica,sans-Serif" font-size="10.00">thirdparty/RadioLib</text>
<text text-anchor="start" x="210" y="-216" font-family="Helvetica,sans-Serif" font-size="10.00">/include/RadioLib/modules</text>
<text text-anchor="middle" x="274.5" y="-205" font-family="Helvetica,sans-Serif" font-size="10.00">/LR11x0/LR1121.h</text>
</a>
</g>
</g>
<!-- Node2&#45;&gt;Node9 -->
<g id="edge12_Node000002_Node000009" class="edge">
<title>Node2&#45;&gt;Node9</title>
<g id="a_edge12_Node000002_Node000009"><a xlink:title=" ">
<path fill="none" stroke="#63b8ff" d="M224.14,-346.22C236.04,-338.08 247.55,-327.99 255.5,-316 270.87,-292.8 274.37,-260.02 274.89,-239.27"/>
<polygon fill="#63b8ff" stroke="#63b8ff" points="221.97,-343.45 215.45,-351.8 225.76,-349.34 221.97,-343.45"/>
</a>
</g>
</g>
<!-- Node4 -->
<g id="Node000004" class="node">
<title>Node4</title>
<g id="a_Node000004"><a xlink:href="RadioLib_8h.html" target="_top" xlink:title=" ">
<polygon fill="white" stroke="#666666" points="250.5,-162 96.5,-162 96.5,-132 250.5,-132 250.5,-162"/>
<text text-anchor="start" x="104.5" y="-150" font-family="Helvetica,sans-Serif" font-size="10.00">thirdparty/RadioLib</text>
<text text-anchor="middle" x="173.5" y="-139" font-family="Helvetica,sans-Serif" font-size="10.00">/include/RadioLib/RadioLib.h</text>
</a>
</g>
</g>
<!-- Node3&#45;&gt;Node4 -->
<g id="edge3_Node000003_Node000004" class="edge">
<title>Node3&#45;&gt;Node4</title>
<g id="a_edge3_Node000003_Node000004"><a xlink:title=" ">
<path fill="none" stroke="#63b8ff" d="M109.34,-192.15C124.06,-182.02 140.46,-170.74 152.99,-162.11"/>
<polygon fill="#63b8ff" stroke="#63b8ff" points="107.16,-189.4 100.9,-197.96 111.13,-195.17 107.16,-189.4"/>
</a>
</g>
</g>
<!-- Node5 -->
<g id="Node000005" class="node">
<title>Node5</title>
<g id="a_Node000005"><a xlink:href="transmitter-normal_8cpp.html" target="_top" xlink:title="CHRONOS&#45;LoRa Transmitter program (Normal)">
<polygon fill="white" stroke="#666666" points="204,-19 57,-19 57,0 204,0 204,-19"/>
<text text-anchor="middle" x="130.5" y="-7" font-family="Helvetica,sans-Serif" font-size="10.00">src/transmitter&#45;normal.cpp</text>
</a>
</g>
</g>
<!-- Node4&#45;&gt;Node5 -->
<g id="edge4_Node000004_Node000005" class="edge">
<title>Node4&#45;&gt;Node5</title>
<g id="a_edge4_Node000004_Node000005"><a xlink:title=" ">
<path fill="none" stroke="#63b8ff" d="M161.03,-122.86C156.93,-114.56 152.62,-105.03 149.5,-96 140.05,-68.7 134.16,-34.82 131.75,-19.17"/>
<polygon fill="#63b8ff" stroke="#63b8ff" points="158,-124.62 165.67,-131.93 164.23,-121.43 158,-124.62"/>
</a>
</g>
</g>
<!-- Node6 -->
<g id="Node000006" class="node">
<title>Node6</title>
<g id="a_Node000006"><a xlink:href="PiHal_8h.html" target="_top" xlink:title=" ">
<polygon fill="white" stroke="#666666" points="276.5,-96 158.5,-96 158.5,-55 276.5,-55 276.5,-96"/>
<text text-anchor="start" x="166.5" y="-84" font-family="Helvetica,sans-Serif" font-size="10.00">thirdparty/RadioLib</text>
<text text-anchor="start" x="166.5" y="-73" font-family="Helvetica,sans-Serif" font-size="10.00">/include/RadioLib/hal</text>
<text text-anchor="middle" x="217.5" y="-62" font-family="Helvetica,sans-Serif" font-size="10.00">/RPi/PiHal.h</text>
</a>
</g>
</g>
<!-- Node4&#45;&gt;Node6 -->
<g id="edge5_Node000004_Node000006" class="edge">
<title>Node4&#45;&gt;Node6</title>
<g id="a_edge5_Node000004_Node000006"><a xlink:title=" ">
<path fill="none" stroke="#63b8ff" d="M187.87,-123.31C193.43,-114.52 199.74,-104.55 205.11,-96.07"/>
<polygon fill="#63b8ff" stroke="#63b8ff" points="184.8,-121.61 182.4,-131.94 190.71,-125.36 184.8,-121.61"/>
</a>
</g>
</g>
<!-- Node6&#45;&gt;Node5 -->
<g id="edge7_Node000006_Node000005" class="edge">
<title>Node6&#45;&gt;Node5</title>
<g id="a_edge7_Node000006_Node000005"><a xlink:title=" ">
<path fill="none" stroke="#63b8ff" d="M182.71,-48.9C168.41,-38.39 152.8,-26.9 142.41,-19.26"/>
<polygon fill="#63b8ff" stroke="#63b8ff" points="180.8,-51.84 190.92,-54.95 184.94,-46.21 180.8,-51.84"/>
</a>
</g>
</g>
<!-- Node7 -->
<g id="Node000007" class="node">
<title>Node7</title>
<g id="a_Node000007"><a xlink:href="receiver-normal_8cpp.html" target="_top" xlink:title="CHRONOS&#45;LoRa Receiver program (Normal)">
<polygon fill="white" stroke="#666666" points="354.5,-19 222.5,-19 222.5,0 354.5,0 354.5,-19"/>
<text text-anchor="middle" x="288.5" y="-7" font-family="Helvetica,sans-Serif" font-size="10.00">src/receiver&#45;normal.cpp</text>
</a>
</g>
</g>
<!-- Node6&#45;&gt;Node7 -->
<g id="edge6_Node000006_Node000007" class="edge">
<title>Node6&#45;&gt;Node7</title>
<g id="a_edge6_Node000006_Node000007"><a xlink:title=" ">
<path fill="none" stroke="#63b8ff" d="M246.88,-48.02C258.28,-37.74 270.54,-26.69 278.78,-19.26"/>
<polygon fill="#63b8ff" stroke="#63b8ff" points="244.27,-45.65 239.19,-54.95 248.96,-50.85 244.27,-45.65"/>
</a>
</g>
</g>
<!-- Node8&#45;&gt;Node4 -->
<g id="edge9_Node000008_Node000004" class="edge">
<title>Node8&#45;&gt;Node4</title>
<g id="a_edge9_Node000008_Node000004"><a xlink:title=" ">
<path fill="none" stroke="#63b8ff" d="M173.5,-264.44C173.5,-233.21 173.5,-185.68 173.5,-162.18"/>
<polygon fill="#63b8ff" stroke="#63b8ff" points="170,-264.74 173.5,-274.74 177,-264.74 170,-264.74"/>
</a>
</g>
</g>
<!-- Node8&#45;&gt;Node9 -->
<g id="edge10_Node000008_Node000009" class="edge">
<title>Node8&#45;&gt;Node9</title>
<g id="a_edge10_Node000008_Node000009"><a xlink:title=" ">
<path fill="none" stroke="#63b8ff" d="M208.09,-268.82C221.15,-259.11 235.8,-248.24 248.01,-239.17"/>
<polygon fill="#63b8ff" stroke="#63b8ff" points="205.71,-266.22 199.77,-274.99 209.89,-271.84 205.71,-266.22"/>
</a>
</g>
</g>
<!-- Node9&#45;&gt;Node4 -->
<g id="edge11_Node000009_Node000004" class="edge">
<title>Node9&#45;&gt;Node4</title>
<g id="a_edge11_Node000009_Node000004"><a xlink:title=" ">
<path fill="none" stroke="#63b8ff" d="M237.66,-192.15C222.94,-182.02 206.54,-170.74 194.01,-162.11"/>
<polygon fill="#63b8ff" stroke="#63b8ff" points="235.87,-195.17 246.1,-197.96 239.84,-189.4 235.87,-195.17"/>
</a>
</g>
</g>
</g>
</svg>
