<?xml version="1.0" encoding="UTF-8" standalone="no"?>
<!DOCTYPE svg PUBLIC "-//W3C//DTD SVG 1.1//EN"
 "http://www.w3.org/Graphics/SVG/1.1/DTD/svg11.dtd">
<!-- Generated by graphviz version 2.43.0 (0)
 -->
<!-- Title: thirdparty/RadioLib/include/RadioLib/modules/LR11x0/LR11x0.h Pages: 1 -->
<svg width="480pt" height="390pt"
 viewBox="0.00 0.00 479.87 390.00" xmlns="http://www.w3.org/2000/svg" xmlns:xlink="http://www.w3.org/1999/xlink">
<g id="graph0" class="graph" transform="scale(1 1) rotate(0) translate(4 386)">
<title>thirdparty/RadioLib/include/RadioLib/modules/LR11x0/LR11x0.h</title>
<!-- Node1 -->
<g id="Node000001" class="node">
<title>Node1</title>
<g id="a_Node000001"><a xlink:title=" ">
<polygon fill="#999999" stroke="#666666" points="387.5,-382 242.5,-382 242.5,-341 387.5,-341 387.5,-382"/>
<text text-anchor="start" x="250.5" y="-370" font-family="Helvetica,sans-Serif" font-size="10.00">thirdparty/RadioLib</text>
<text text-anchor="start" x="250.5" y="-359" font-family="Helvetica,sans-Serif" font-size="10.00">/include/RadioLib/modules</text>
<text text-anchor="middle" x="315" y="-348" font-family="Helvetica,sans-Serif" font-size="10.00">/LR11x0/LR11x0.h</text>
</a>
</g>
</g>
<!-- Node2 -->
<g id="Node000002" class="node">
<title>Node2</title>
<g id="a_Node000002"><a xlink:href="TypeDef_8h.html" target="_top" xlink:title=" ">
<polygon fill="white" stroke="#666666" points="297.5,-129 214.5,-129 214.5,-110 297.5,-110 297.5,-129"/>
<text text-anchor="middle" x="256" y="-117" font-family="Helvetica,sans-Serif" font-size="10.00">../../TypeDef.h</text>
</a>
</g>
</g>
<!-- Node1&#45;&gt;Node2 -->
<g id="edge1_Node000001_Node000002" class="edge">
<title>Node1&#45;&gt;Node2</title>
<g id="a_edge1_Node000001_Node000002"><a xlink:title=" ">
<path fill="none" stroke="#63b8ff" d="M387.79,-352.59C418.08,-345.29 450.46,-331.39 469,-305 473.85,-298.09 470.79,-294.25 469,-286 456.49,-228.27 458.82,-203.48 414,-165 384.51,-139.68 341.59,-128.71 307.93,-123.99"/>
<polygon fill="#63b8ff" stroke="#63b8ff" points="308.16,-120.49 297.8,-122.71 307.29,-127.43 308.16,-120.49"/>
</a>
</g>
</g>
<!-- Node7 -->
<g id="Node000007" class="node">
<title>Node7</title>
<g id="a_Node000007"><a xlink:href="Module_8h.html" target="_top" xlink:title=" ">
<polygon fill="white" stroke="#666666" points="141,-184 61,-184 61,-165 141,-165 141,-184"/>
<text text-anchor="middle" x="101" y="-172" font-family="Helvetica,sans-Serif" font-size="10.00">../../Module.h</text>
</a>
</g>
</g>
<!-- Node1&#45;&gt;Node7 -->
<g id="edge7_Node000001_Node000007" class="edge">
<title>Node1&#45;&gt;Node7</title>
<g id="a_edge7_Node000001_Node000007"><a xlink:title=" ">
<path fill="none" stroke="#63b8ff" d="M242.32,-356.11C168.02,-349.97 59.84,-335.88 33,-305 8.2,-276.47 11.7,-253.07 30,-220 37.84,-205.83 52.29,-195.57 66.11,-188.5"/>
<polygon fill="#63b8ff" stroke="#63b8ff" points="67.92,-191.52 75.49,-184.1 64.95,-185.18 67.92,-191.52"/>
</a>
</g>
</g>
<!-- Node12 -->
<g id="Node000012" class="node">
<title>Node12</title>
<g id="a_Node000012"><a xlink:href="LR__common_8h.html" target="_top" xlink:title=" ">
<polygon fill="white" stroke="#666666" points="176,-305 42,-305 42,-286 176,-286 176,-305"/>
<text text-anchor="middle" x="109" y="-293" font-family="Helvetica,sans-Serif" font-size="10.00">../LR11x0/LR_common.h</text>
</a>
</g>
</g>
<!-- Node1&#45;&gt;Node12 -->
<g id="edge17_Node000001_Node000012" class="edge">
<title>Node1&#45;&gt;Node12</title>
<g id="a_edge17_Node000001_Node000012"><a xlink:title=" ">
<path fill="none" stroke="#63b8ff" d="M252.07,-340.95C217.46,-330.2 175.7,-317.22 146.25,-308.07"/>
<polygon fill="#63b8ff" stroke="#63b8ff" points="146.97,-304.63 136.39,-305.01 144.9,-311.32 146.97,-304.63"/>
</a>
</g>
</g>
<!-- Node14 -->
<g id="Node000014" class="node">
<title>Node14</title>
<g id="a_Node000014"><a xlink:href="LR11x0__commands_8h.html" target="_top" xlink:title=" ">
<polygon fill="white" stroke="#666666" points="309.5,-244.5 188.5,-244.5 188.5,-225.5 309.5,-225.5 309.5,-244.5"/>
<text text-anchor="middle" x="249" y="-232.5" font-family="Helvetica,sans-Serif" font-size="10.00">LR11x0_commands.h</text>
</a>
</g>
</g>
<!-- Node1&#45;&gt;Node14 -->
<g id="edge22_Node000001_Node000014" class="edge">
<title>Node1&#45;&gt;Node14</title>
<g id="a_edge22_Node000001_Node000014"><a xlink:title=" ">
<path fill="none" stroke="#63b8ff" d="M304.54,-340.77C291.81,-316.76 270.51,-276.58 258.32,-253.59"/>
<polygon fill="#63b8ff" stroke="#63b8ff" points="261.34,-251.81 253.57,-244.61 255.16,-255.09 261.34,-251.81"/>
</a>
</g>
</g>
<!-- Node15 -->
<g id="Node000015" class="node">
<title>Node15</title>
<g id="a_Node000015"><a xlink:href="LR11x0__registers_8h.html" target="_top" xlink:title=" ">
<polygon fill="white" stroke="#666666" points="386,-184 276,-184 276,-165 386,-165 386,-184"/>
<text text-anchor="middle" x="331" y="-172" font-family="Helvetica,sans-Serif" font-size="10.00">LR11x0_registers.h</text>
</a>
</g>
</g>
<!-- Node1&#45;&gt;Node15 -->
<g id="edge24_Node000001_Node000015" class="edge">
<title>Node1&#45;&gt;Node15</title>
<g id="a_edge24_Node000001_Node000015"><a xlink:title=" ">
<path fill="none" stroke="#63b8ff" d="M316.71,-340.7C319.81,-304.86 326.31,-229.67 329.36,-194.46"/>
<polygon fill="#63b8ff" stroke="#63b8ff" points="332.88,-194.42 330.25,-184.16 325.9,-193.82 332.88,-194.42"/>
</a>
</g>
</g>
<!-- Node16 -->
<g id="Node000016" class="node">
<title>Node16</title>
<g id="a_Node000016"><a xlink:href="LR11x0__types_8h.html" target="_top" xlink:title=" ">
<polygon fill="white" stroke="#666666" points="460,-305 366,-305 366,-286 460,-286 460,-305"/>
<text text-anchor="middle" x="413" y="-293" font-family="Helvetica,sans-Serif" font-size="10.00">LR11x0_types.h</text>
</a>
</g>
</g>
<!-- Node1&#45;&gt;Node16 -->
<g id="edge26_Node000001_Node000016" class="edge">
<title>Node1&#45;&gt;Node16</title>
<g id="a_edge26_Node000001_Node000016"><a xlink:title=" ">
<path fill="none" stroke="#63b8ff" d="M344.94,-340.95C359.85,-331.21 377.54,-319.65 391.16,-310.76"/>
<polygon fill="#63b8ff" stroke="#63b8ff" points="393.38,-313.49 399.84,-305.09 389.56,-307.63 393.38,-313.49"/>
</a>
</g>
</g>
<!-- Node3 -->
<g id="Node000003" class="node">
<title>Node3</title>
<g id="a_Node000003"><a xlink:href="BuildOptUser_8h.html" target="_top" xlink:title=" ">
<polygon fill="white" stroke="#666666" points="397.5,-74 308.5,-74 308.5,-55 397.5,-55 397.5,-74"/>
<text text-anchor="middle" x="353" y="-62" font-family="Helvetica,sans-Serif" font-size="10.00">BuildOptUser.h</text>
</a>
</g>
</g>
<!-- Node2&#45;&gt;Node3 -->
<g id="edge2_Node000002_Node000003" class="edge">
<title>Node2&#45;&gt;Node3</title>
<g id="a_edge2_Node000002_Node000003"><a xlink:title=" ">
<path fill="none" stroke="#63b8ff" d="M271.58,-109.98C286.77,-101.69 310.1,-88.94 327.9,-79.22"/>
<polygon fill="#63b8ff" stroke="#63b8ff" points="330.03,-82.04 337.13,-74.17 326.68,-75.89 330.03,-82.04"/>
</a>
</g>
</g>
<!-- Node4 -->
<g id="Node000004" class="node">
<title>Node4</title>
<g id="a_Node000004"><a xlink:href="BuildOpt_8h.html" target="_top" xlink:title=" ">
<polygon fill="white" stroke="#666666" points="290,-74 222,-74 222,-55 290,-55 290,-74"/>
<text text-anchor="middle" x="256" y="-62" font-family="Helvetica,sans-Serif" font-size="10.00">BuildOpt.h</text>
</a>
</g>
</g>
<!-- Node2&#45;&gt;Node4 -->
<g id="edge3_Node000002_Node000004" class="edge">
<title>Node2&#45;&gt;Node4</title>
<g id="a_edge3_Node000002_Node000004"><a xlink:title=" ">
<path fill="none" stroke="#63b8ff" d="M250.83,-109.75C249.34,-102.8 248.9,-92.85 249.52,-84.13"/>
<polygon fill="#63b8ff" stroke="#63b8ff" points="253.01,-84.47 250.87,-74.09 246.07,-83.53 253.01,-84.47"/>
</a>
</g>
</g>
<!-- Node4&#45;&gt;Node2 -->
<g id="edge4_Node000004_Node000002" class="edge">
<title>Node4&#45;&gt;Node2</title>
<g id="a_edge4_Node000004_Node000002"><a xlink:title=" ">
<path fill="none" stroke="#63b8ff" d="M261.13,-74.09C262.64,-80.99 263.09,-90.93 262.49,-99.66"/>
<polygon fill="#63b8ff" stroke="#63b8ff" points="259,-99.38 261.17,-109.75 265.94,-100.29 259,-99.38"/>
</a>
</g>
</g>
<!-- Node5 -->
<g id="Node000005" class="node">
<title>Node5</title>
<g id="a_Node000005"><a xlink:title=" ">
<polygon fill="#e0e0e0" stroke="#999999" points="285,-19 235,-19 235,0 285,0 285,-19"/>
<text text-anchor="middle" x="260" y="-7" font-family="Helvetica,sans-Serif" font-size="10.00">stdio.h</text>
</a>
</g>
</g>
<!-- Node4&#45;&gt;Node5 -->
<g id="edge5_Node000004_Node000005" class="edge">
<title>Node4&#45;&gt;Node5</title>
<g id="a_edge5_Node000004_Node000005"><a xlink:title=" ">
<path fill="none" stroke="#63b8ff" d="M256.66,-54.75C257.18,-47.8 257.94,-37.85 258.59,-29.13"/>
<polygon fill="#63b8ff" stroke="#63b8ff" points="262.09,-29.32 259.35,-19.09 255.11,-28.8 262.09,-29.32"/>
</a>
</g>
</g>
<!-- Node6 -->
<g id="Node000006" class="node">
<title>Node6</title>
<g id="a_Node000006"><a xlink:title=" ">
<polygon fill="#e0e0e0" stroke="#999999" points="216.5,-19 163.5,-19 163.5,0 216.5,0 216.5,-19"/>
<text text-anchor="middle" x="190" y="-7" font-family="Helvetica,sans-Serif" font-size="10.00">stdint.h</text>
</a>
</g>
</g>
<!-- Node4&#45;&gt;Node6 -->
<g id="edge6_Node000004_Node000006" class="edge">
<title>Node4&#45;&gt;Node6</title>
<g id="a_edge6_Node000004_Node000006"><a xlink:title=" ">
<path fill="none" stroke="#63b8ff" d="M245.4,-54.98C235.54,-47.07 220.65,-35.11 208.78,-25.58"/>
<polygon fill="#63b8ff" stroke="#63b8ff" points="210.79,-22.7 200.8,-19.17 206.4,-28.16 210.79,-22.7"/>
</a>
</g>
</g>
<!-- Node7&#45;&gt;Node2 -->
<g id="edge8_Node000007_Node000002" class="edge">
<title>Node7&#45;&gt;Node2</title>
<g id="a_edge8_Node000007_Node000002"><a xlink:title=" ">
<path fill="none" stroke="#63b8ff" d="M125.9,-164.98C151.7,-156.16 192.22,-142.31 221.18,-132.41"/>
<polygon fill="#63b8ff" stroke="#63b8ff" points="222.57,-135.63 230.9,-129.08 220.31,-129.01 222.57,-135.63"/>
</a>
</g>
</g>
<!-- Node8 -->
<g id="Node000008" class="node">
<title>Node8</title>
<g id="a_Node000008"><a xlink:href="Hal_8h.html" target="_top" xlink:title=" ">
<polygon fill="white" stroke="#666666" points="105,-129 63,-129 63,-110 105,-110 105,-129"/>
<text text-anchor="middle" x="84" y="-117" font-family="Helvetica,sans-Serif" font-size="10.00">Hal.h</text>
</a>
</g>
</g>
<!-- Node7&#45;&gt;Node8 -->
<g id="edge9_Node000007_Node000008" class="edge">
<title>Node7&#45;&gt;Node8</title>
<g id="a_edge9_Node000007_Node000008"><a xlink:title=" ">
<path fill="none" stroke="#63b8ff" d="M98.19,-164.75C95.94,-157.72 92.7,-147.62 89.88,-138.84"/>
<polygon fill="#63b8ff" stroke="#63b8ff" points="93.14,-137.54 86.75,-129.09 86.48,-139.68 93.14,-137.54"/>
</a>
</g>
</g>
<!-- Node10 -->
<g id="Node000010" class="node">
<title>Node10</title>
<g id="a_Node000010"><a xlink:href="Utils_8h.html" target="_top" xlink:title=" ">
<polygon fill="white" stroke="#666666" points="196,-129 124,-129 124,-110 196,-110 196,-129"/>
<text text-anchor="middle" x="160" y="-117" font-family="Helvetica,sans-Serif" font-size="10.00">utils/Utils.h</text>
</a>
</g>
</g>
<!-- Node7&#45;&gt;Node10 -->
<g id="edge13_Node000007_Node000010" class="edge">
<title>Node7&#45;&gt;Node10</title>
<g id="a_edge13_Node000007_Node000010"><a xlink:title=" ">
<path fill="none" stroke="#63b8ff" d="M110.48,-164.98C119.2,-157.15 132.34,-145.34 142.9,-135.86"/>
<polygon fill="#63b8ff" stroke="#63b8ff" points="145.25,-138.46 150.35,-129.17 140.57,-133.25 145.25,-138.46"/>
</a>
</g>
</g>
<!-- Node8&#45;&gt;Node4 -->
<g id="edge12_Node000008_Node000004" class="edge">
<title>Node8&#45;&gt;Node4</title>
<g id="a_edge12_Node000008_Node000004"><a xlink:title=" ">
<path fill="none" stroke="#63b8ff" d="M105.09,-112C133.26,-103.32 183.64,-87.8 218.39,-77.09"/>
<polygon fill="#63b8ff" stroke="#63b8ff" points="219.66,-80.36 228.19,-74.07 217.6,-73.67 219.66,-80.36"/>
</a>
</g>
</g>
<!-- Node8&#45;&gt;Node6 -->
<g id="edge10_Node000008_Node000006" class="edge">
<title>Node8&#45;&gt;Node6</title>
<g id="a_edge10_Node000008_Node000006"><a xlink:title=" ">
<path fill="none" stroke="#63b8ff" d="M84.49,-109.68C85.65,-96.4 89.6,-71.09 103,-55 116.1,-39.27 136.18,-28.48 153.74,-21.47"/>
<polygon fill="#63b8ff" stroke="#63b8ff" points="155.03,-24.73 163.19,-17.96 152.59,-18.17 155.03,-24.73"/>
</a>
</g>
</g>
<!-- Node9 -->
<g id="Node000009" class="node">
<title>Node9</title>
<g id="a_Node000009"><a xlink:title=" ">
<polygon fill="#e0e0e0" stroke="#999999" points="56,-74 0,-74 0,-55 56,-55 56,-74"/>
<text text-anchor="middle" x="28" y="-62" font-family="Helvetica,sans-Serif" font-size="10.00">stddef.h</text>
</a>
</g>
</g>
<!-- Node8&#45;&gt;Node9 -->
<g id="edge11_Node000008_Node000009" class="edge">
<title>Node8&#45;&gt;Node9</title>
<g id="a_edge11_Node000008_Node000009"><a xlink:title=" ">
<path fill="none" stroke="#63b8ff" d="M75,-109.98C66.81,-102.23 54.49,-90.58 44.53,-81.14"/>
<polygon fill="#63b8ff" stroke="#63b8ff" points="46.83,-78.5 37.16,-74.17 42.02,-83.59 46.83,-78.5"/>
</a>
</g>
</g>
<!-- Node10&#45;&gt;Node4 -->
<g id="edge16_Node000010_Node000004" class="edge">
<title>Node10&#45;&gt;Node4</title>
<g id="a_edge16_Node000010_Node000004"><a xlink:title=" ">
<path fill="none" stroke="#63b8ff" d="M175.42,-109.98C190.45,-101.69 213.54,-88.94 231.16,-79.22"/>
<polygon fill="#63b8ff" stroke="#63b8ff" points="233.23,-82.07 240.3,-74.17 229.85,-75.94 233.23,-82.07"/>
</a>
</g>
</g>
<!-- Node10&#45;&gt;Node6 -->
<g id="edge14_Node000010_Node000006" class="edge">
<title>Node10&#45;&gt;Node6</title>
<g id="a_edge14_Node000010_Node000006"><a xlink:title=" ">
<path fill="none" stroke="#63b8ff" d="M162.94,-109.68C165.88,-100.73 170.47,-86.47 174,-74 178.26,-58.94 182.57,-41.71 185.64,-29.01"/>
<polygon fill="#63b8ff" stroke="#63b8ff" points="189.07,-29.71 187.98,-19.17 182.26,-28.08 189.07,-29.71"/>
</a>
</g>
</g>
<!-- Node11 -->
<g id="Node000011" class="node">
<title>Node11</title>
<g id="a_Node000011"><a xlink:title=" ">
<polygon fill="#e0e0e0" stroke="#999999" points="165.5,-74 112.5,-74 112.5,-55 165.5,-55 165.5,-74"/>
<text text-anchor="middle" x="139" y="-62" font-family="Helvetica,sans-Serif" font-size="10.00">stdlib.h</text>
</a>
</g>
</g>
<!-- Node10&#45;&gt;Node11 -->
<g id="edge15_Node000010_Node000011" class="edge">
<title>Node10&#45;&gt;Node11</title>
<g id="a_edge15_Node000010_Node000011"><a xlink:title=" ">
<path fill="none" stroke="#63b8ff" d="M156.53,-109.75C153.72,-102.65 149.66,-92.4 146.15,-83.56"/>
<polygon fill="#63b8ff" stroke="#63b8ff" points="149.34,-82.1 142.4,-74.09 142.83,-84.68 149.34,-82.1"/>
</a>
</g>
</g>
<!-- Node12&#45;&gt;Node7 -->
<g id="edge18_Node000012_Node000007" class="edge">
<title>Node12&#45;&gt;Node7</title>
<g id="a_edge18_Node000012_Node000007"><a xlink:title=" ">
<path fill="none" stroke="#63b8ff" d="M83.49,-285.9C67.31,-278.96 47.65,-267.44 38,-250 31.54,-238.33 31.87,-231.84 38,-220 45.04,-206.41 58.34,-196.09 70.92,-188.82"/>
<polygon fill="#63b8ff" stroke="#63b8ff" points="72.67,-191.86 79.85,-184.07 69.38,-185.68 72.67,-191.86"/>
</a>
</g>
</g>
<!-- Node13 -->
<g id="Node000013" class="node">
<title>Node13</title>
<g id="a_Node000013"><a xlink:href="PhysicalLayer_8h.html" target="_top" xlink:title=" ">
<polygon fill="white" stroke="#666666" points="170.5,-250 47.5,-250 47.5,-220 170.5,-220 170.5,-250"/>
<text text-anchor="start" x="55.5" y="-238" font-family="Helvetica,sans-Serif" font-size="10.00">../../protocols/Physical</text>
<text text-anchor="middle" x="109" y="-227" font-family="Helvetica,sans-Serif" font-size="10.00">Layer/PhysicalLayer.h</text>
</a>
</g>
</g>
<!-- Node12&#45;&gt;Node13 -->
<g id="edge19_Node000012_Node000013" class="edge">
<title>Node12&#45;&gt;Node13</title>
<g id="a_edge19_Node000012_Node000013"><a xlink:title=" ">
<path fill="none" stroke="#63b8ff" d="M109,-285.87C109,-279.11 109,-269.35 109,-260.26"/>
<polygon fill="#63b8ff" stroke="#63b8ff" points="112.5,-260.11 109,-250.11 105.5,-260.11 112.5,-260.11"/>
</a>
</g>
</g>
<!-- Node13&#45;&gt;Node2 -->
<g id="edge20_Node000013_Node000002" class="edge">
<title>Node13&#45;&gt;Node2</title>
<g id="a_edge20_Node000013_Node000002"><a xlink:title=" ">
<path fill="none" stroke="#63b8ff" d="M127.32,-219.85C155.22,-198.31 208.12,-157.47 236.63,-135.46"/>
<polygon fill="#63b8ff" stroke="#63b8ff" points="238.86,-138.15 244.64,-129.27 234.59,-132.61 238.86,-138.15"/>
</a>
</g>
</g>
<!-- Node13&#45;&gt;Node7 -->
<g id="edge21_Node000013_Node000007" class="edge">
<title>Node13&#45;&gt;Node7</title>
<g id="a_edge21_Node000013_Node000007"><a xlink:title=" ">
<path fill="none" stroke="#63b8ff" d="M107.06,-219.84C106.02,-212.21 104.72,-202.7 103.59,-194.45"/>
<polygon fill="#63b8ff" stroke="#63b8ff" points="107.02,-193.7 102.2,-184.27 100.09,-194.65 107.02,-193.7"/>
</a>
</g>
</g>
<!-- Node14&#45;&gt;Node2 -->
<g id="edge23_Node000014_Node000002" class="edge">
<title>Node14&#45;&gt;Node2</title>
<g id="a_edge23_Node000014_Node000002"><a xlink:title=" ">
<path fill="none" stroke="#63b8ff" d="M249.53,-225.47C250.65,-207.23 253.31,-164.07 254.85,-139.14"/>
<polygon fill="#63b8ff" stroke="#63b8ff" points="258.35,-139.33 255.47,-129.13 251.36,-138.9 258.35,-139.33"/>
</a>
</g>
</g>
<!-- Node15&#45;&gt;Node2 -->
<g id="edge25_Node000015_Node000002" class="edge">
<title>Node15&#45;&gt;Node2</title>
<g id="a_edge25_Node000015_Node000002"><a xlink:title=" ">
<path fill="none" stroke="#63b8ff" d="M318.95,-164.98C307.54,-156.92 290.17,-144.65 276.57,-135.03"/>
<polygon fill="#63b8ff" stroke="#63b8ff" points="278.46,-132.08 268.27,-129.17 274.42,-137.8 278.46,-132.08"/>
</a>
</g>
</g>
<!-- Node16&#45;&gt;Node2 -->
<g id="edge27_Node000016_Node000002" class="edge">
<title>Node16&#45;&gt;Node2</title>
<g id="a_edge27_Node000016_Node000002"><a xlink:title=" ">
<path fill="none" stroke="#63b8ff" d="M414.65,-285.7C418.42,-262.83 425.11,-200.78 395,-165 373.6,-139.57 337.64,-128.52 307.65,-123.78"/>
<polygon fill="#63b8ff" stroke="#63b8ff" points="308.13,-120.32 297.74,-122.41 307.17,-127.25 308.13,-120.32"/>
</a>
</g>
</g>
</g>
</svg>
