<?xml version="1.0" encoding="UTF-8" standalone="no"?>
<!DOCTYPE svg PUBLIC "-//W3C//DTD SVG 1.1//EN"
 "http://www.w3.org/Graphics/SVG/1.1/DTD/svg11.dtd">
<!-- Generated by graphviz version 2.43.0 (0)
 -->
<!-- Title: thirdparty/RadioLib/include/RadioLib/modules/LR11x0/LR1121.h Pages: 1 -->
<svg width="593pt" height="500pt"
 viewBox="0.00 0.00 593.00 500.00" xmlns="http://www.w3.org/2000/svg" xmlns:xlink="http://www.w3.org/1999/xlink">
<g id="graph0" class="graph" transform="scale(1 1) rotate(0) translate(4 496)">
<title>thirdparty/RadioLib/include/RadioLib/modules/LR11x0/LR1121.h</title>
<!-- Node1 -->
<g id="Node000001" class="node">
<title>Node1</title>
<g id="a_Node000001"><a xlink:title=" ">
<polygon fill="#999999" stroke="#666666" points="338.5,-492 193.5,-492 193.5,-451 338.5,-451 338.5,-492"/>
<text text-anchor="start" x="201.5" y="-480" font-family="Helvetica,sans-Serif" font-size="10.00">thirdparty/RadioLib</text>
<text text-anchor="start" x="201.5" y="-469" font-family="Helvetica,sans-Serif" font-size="10.00">/include/RadioLib/modules</text>
<text text-anchor="middle" x="266" y="-458" font-family="Helvetica,sans-Serif" font-size="10.00">/LR11x0/LR1121.h</text>
</a>
</g>
</g>
<!-- Node2 -->
<g id="Node000002" class="node">
<title>Node2</title>
<g id="a_Node000002"><a xlink:href="TypeDef_8h.html" target="_top" xlink:title=" ">
<polygon fill="white" stroke="#666666" points="384.5,-129 301.5,-129 301.5,-110 384.5,-110 384.5,-129"/>
<text text-anchor="middle" x="343" y="-117" font-family="Helvetica,sans-Serif" font-size="10.00">../../TypeDef.h</text>
</a>
</g>
</g>
<!-- Node1&#45;&gt;Node2 -->
<g id="edge1_Node000001_Node000002" class="edge">
<title>Node1&#45;&gt;Node2</title>
<g id="a_edge1_Node000001_Node000002"><a xlink:title=" ">
<path fill="none" stroke="#63b8ff" d="M338.79,-458.37C432.93,-440.57 585,-403.74 585,-351.5 585,-351.5 585,-351.5 585,-234 585,-150.63 465.81,-128.37 394.72,-122.52"/>
<polygon fill="#63b8ff" stroke="#63b8ff" points="394.83,-119.02 384.6,-121.77 394.31,-126 394.83,-119.02"/>
</a>
</g>
</g>
<!-- Node7 -->
<g id="Node000007" class="node">
<title>Node7</title>
<g id="a_Node000007"><a xlink:href="Module_8h.html" target="_top" xlink:title=" ">
<polygon fill="white" stroke="#666666" points="124,-184 44,-184 44,-165 124,-165 124,-184"/>
<text text-anchor="middle" x="84" y="-172" font-family="Helvetica,sans-Serif" font-size="10.00">../../Module.h</text>
</a>
</g>
</g>
<!-- Node1&#45;&gt;Node7 -->
<g id="edge7_Node000001_Node000007" class="edge">
<title>Node1&#45;&gt;Node7</title>
<g id="a_edge7_Node000001_Node000007"><a xlink:title=" ">
<path fill="none" stroke="#63b8ff" d="M193.31,-468.11C114.56,-461.18 0,-436.49 0,-351.5 0,-351.5 0,-351.5 0,-294.5 0,-250.39 39,-211.14 63.85,-190.61"/>
<polygon fill="#63b8ff" stroke="#63b8ff" points="66.32,-193.12 71.96,-184.15 61.96,-187.64 66.32,-193.12"/>
</a>
</g>
</g>
<!-- Node12 -->
<g id="Node000012" class="node">
<title>Node12</title>
<g id="a_Node000012"><a xlink:href="LR11x0_8h.html" target="_top" xlink:title=" ">
<polygon fill="white" stroke="#666666" points="360,-360 298,-360 298,-341 360,-341 360,-360"/>
<text text-anchor="middle" x="329" y="-348" font-family="Helvetica,sans-Serif" font-size="10.00">LR11x0.h</text>
</a>
</g>
</g>
<!-- Node1&#45;&gt;Node12 -->
<g id="edge17_Node000001_Node000012" class="edge">
<title>Node1&#45;&gt;Node12</title>
<g id="a_edge17_Node000001_Node000012"><a xlink:title=" ">
<path fill="none" stroke="#63b8ff" d="M276.4,-450.85C288.47,-428.07 308.17,-390.85 319.73,-369.02"/>
<polygon fill="#63b8ff" stroke="#63b8ff" points="322.82,-370.65 324.41,-360.18 316.64,-367.38 322.82,-370.65"/>
</a>
</g>
</g>
<!-- Node18 -->
<g id="Node000018" class="node">
<title>Node18</title>
<g id="a_Node000018"><a xlink:href="LR1120_8h.html" target="_top" xlink:title=" ">
<polygon fill="white" stroke="#666666" points="194,-415 132,-415 132,-396 194,-396 194,-415"/>
<text text-anchor="middle" x="163" y="-403" font-family="Helvetica,sans-Serif" font-size="10.00">LR1120.h</text>
</a>
</g>
</g>
<!-- Node1&#45;&gt;Node18 -->
<g id="edge31_Node000001_Node000018" class="edge">
<title>Node1&#45;&gt;Node18</title>
<g id="a_edge31_Node000001_Node000018"><a xlink:title=" ">
<path fill="none" stroke="#63b8ff" d="M234.54,-450.95C218.72,-441.12 199.91,-429.43 185.55,-420.51"/>
<polygon fill="#63b8ff" stroke="#63b8ff" points="187.17,-417.4 176.83,-415.09 183.47,-423.34 187.17,-417.4"/>
</a>
</g>
</g>
<!-- Node3 -->
<g id="Node000003" class="node">
<title>Node3</title>
<g id="a_Node000003"><a xlink:href="BuildOptUser_8h.html" target="_top" xlink:title=" ">
<polygon fill="white" stroke="#666666" points="399.5,-74 310.5,-74 310.5,-55 399.5,-55 399.5,-74"/>
<text text-anchor="middle" x="355" y="-62" font-family="Helvetica,sans-Serif" font-size="10.00">BuildOptUser.h</text>
</a>
</g>
</g>
<!-- Node2&#45;&gt;Node3 -->
<g id="edge2_Node000002_Node000003" class="edge">
<title>Node2&#45;&gt;Node3</title>
<g id="a_edge2_Node000002_Node000003"><a xlink:title=" ">
<path fill="none" stroke="#63b8ff" d="M344.98,-109.75C346.57,-102.72 348.86,-92.62 350.85,-83.84"/>
<polygon fill="#63b8ff" stroke="#63b8ff" points="354.26,-84.62 353.06,-74.09 347.43,-83.07 354.26,-84.62"/>
</a>
</g>
</g>
<!-- Node4 -->
<g id="Node000004" class="node">
<title>Node4</title>
<g id="a_Node000004"><a xlink:href="BuildOpt_8h.html" target="_top" xlink:title=" ">
<polygon fill="white" stroke="#666666" points="292,-74 224,-74 224,-55 292,-55 292,-74"/>
<text text-anchor="middle" x="258" y="-62" font-family="Helvetica,sans-Serif" font-size="10.00">BuildOpt.h</text>
</a>
</g>
</g>
<!-- Node2&#45;&gt;Node4 -->
<g id="edge3_Node000002_Node000004" class="edge">
<title>Node2&#45;&gt;Node4</title>
<g id="a_edge3_Node000002_Node000004"><a xlink:title=" ">
<path fill="none" stroke="#63b8ff" d="M324.23,-109.98C309.51,-101.92 289.5,-89.65 275.21,-80.03"/>
<polygon fill="#63b8ff" stroke="#63b8ff" points="276.97,-76.99 266.76,-74.17 272.98,-82.74 276.97,-76.99"/>
</a>
</g>
</g>
<!-- Node4&#45;&gt;Node2 -->
<g id="edge4_Node000004_Node000002" class="edge">
<title>Node4&#45;&gt;Node2</title>
<g id="a_edge4_Node000004_Node000002"><a xlink:title=" ">
<path fill="none" stroke="#63b8ff" d="M277.05,-74.17C291.83,-82.29 311.84,-94.57 326.06,-104.15"/>
<polygon fill="#63b8ff" stroke="#63b8ff" points="324.25,-107.15 334.46,-109.98 328.24,-101.4 324.25,-107.15"/>
</a>
</g>
</g>
<!-- Node5 -->
<g id="Node000005" class="node">
<title>Node5</title>
<g id="a_Node000005"><a xlink:title=" ">
<polygon fill="#e0e0e0" stroke="#999999" points="287,-19 237,-19 237,0 287,0 287,-19"/>
<text text-anchor="middle" x="262" y="-7" font-family="Helvetica,sans-Serif" font-size="10.00">stdio.h</text>
</a>
</g>
</g>
<!-- Node4&#45;&gt;Node5 -->
<g id="edge5_Node000004_Node000005" class="edge">
<title>Node4&#45;&gt;Node5</title>
<g id="a_edge5_Node000004_Node000005"><a xlink:title=" ">
<path fill="none" stroke="#63b8ff" d="M258.66,-54.75C259.18,-47.8 259.94,-37.85 260.59,-29.13"/>
<polygon fill="#63b8ff" stroke="#63b8ff" points="264.09,-29.32 261.35,-19.09 257.11,-28.8 264.09,-29.32"/>
</a>
</g>
</g>
<!-- Node6 -->
<g id="Node000006" class="node">
<title>Node6</title>
<g id="a_Node000006"><a xlink:title=" ">
<polygon fill="#e0e0e0" stroke="#999999" points="218.5,-19 165.5,-19 165.5,0 218.5,0 218.5,-19"/>
<text text-anchor="middle" x="192" y="-7" font-family="Helvetica,sans-Serif" font-size="10.00">stdint.h</text>
</a>
</g>
</g>
<!-- Node4&#45;&gt;Node6 -->
<g id="edge6_Node000004_Node000006" class="edge">
<title>Node4&#45;&gt;Node6</title>
<g id="a_edge6_Node000004_Node000006"><a xlink:title=" ">
<path fill="none" stroke="#63b8ff" d="M247.4,-54.98C237.54,-47.07 222.65,-35.11 210.78,-25.58"/>
<polygon fill="#63b8ff" stroke="#63b8ff" points="212.79,-22.7 202.8,-19.17 208.4,-28.16 212.79,-22.7"/>
</a>
</g>
</g>
<!-- Node7&#45;&gt;Node2 -->
<g id="edge8_Node000007_Node000002" class="edge">
<title>Node7&#45;&gt;Node2</title>
<g id="a_edge8_Node000007_Node000002"><a xlink:title=" ">
<path fill="none" stroke="#63b8ff" d="M124.18,-165.28C169.25,-156.06 242.44,-141.08 291.63,-131.01"/>
<polygon fill="#63b8ff" stroke="#63b8ff" points="292.34,-134.44 301.43,-129.01 290.94,-127.58 292.34,-134.44"/>
</a>
</g>
</g>
<!-- Node8 -->
<g id="Node000008" class="node">
<title>Node8</title>
<g id="a_Node000008"><a xlink:href="Hal_8h.html" target="_top" xlink:title=" ">
<polygon fill="white" stroke="#666666" points="199,-129 157,-129 157,-110 199,-110 199,-129"/>
<text text-anchor="middle" x="178" y="-117" font-family="Helvetica,sans-Serif" font-size="10.00">Hal.h</text>
</a>
</g>
</g>
<!-- Node7&#45;&gt;Node8 -->
<g id="edge9_Node000007_Node000008" class="edge">
<title>Node7&#45;&gt;Node8</title>
<g id="a_edge9_Node000007_Node000008"><a xlink:title=" ">
<path fill="none" stroke="#63b8ff" d="M99.1,-164.98C113.82,-156.69 136.42,-143.94 153.67,-134.22"/>
<polygon fill="#63b8ff" stroke="#63b8ff" points="155.63,-137.13 162.62,-129.17 152.19,-131.03 155.63,-137.13"/>
</a>
</g>
</g>
<!-- Node10 -->
<g id="Node000010" class="node">
<title>Node10</title>
<g id="a_Node000010"><a xlink:href="Utils_8h.html" target="_top" xlink:title=" ">
<polygon fill="white" stroke="#666666" points="120,-129 48,-129 48,-110 120,-110 120,-129"/>
<text text-anchor="middle" x="84" y="-117" font-family="Helvetica,sans-Serif" font-size="10.00">utils/Utils.h</text>
</a>
</g>
</g>
<!-- Node7&#45;&gt;Node10 -->
<g id="edge13_Node000007_Node000010" class="edge">
<title>Node7&#45;&gt;Node10</title>
<g id="a_edge13_Node000007_Node000010"><a xlink:title=" ">
<path fill="none" stroke="#63b8ff" d="M84,-164.75C84,-157.8 84,-147.85 84,-139.13"/>
<polygon fill="#63b8ff" stroke="#63b8ff" points="87.5,-139.09 84,-129.09 80.5,-139.09 87.5,-139.09"/>
</a>
</g>
</g>
<!-- Node8&#45;&gt;Node4 -->
<g id="edge12_Node000008_Node000004" class="edge">
<title>Node8&#45;&gt;Node4</title>
<g id="a_edge12_Node000008_Node000004"><a xlink:title=" ">
<path fill="none" stroke="#63b8ff" d="M190.85,-109.98C203.14,-101.84 221.91,-89.41 236.48,-79.76"/>
<polygon fill="#63b8ff" stroke="#63b8ff" points="238.51,-82.61 244.91,-74.17 234.64,-76.78 238.51,-82.61"/>
</a>
</g>
</g>
<!-- Node8&#45;&gt;Node6 -->
<g id="edge10_Node000008_Node000006" class="edge">
<title>Node8&#45;&gt;Node6</title>
<g id="a_edge10_Node000008_Node000006"><a xlink:title=" ">
<path fill="none" stroke="#63b8ff" d="M179.15,-109.66C181.41,-92.17 186.52,-52.8 189.57,-29.27"/>
<polygon fill="#63b8ff" stroke="#63b8ff" points="193.06,-29.53 190.88,-19.16 186.12,-28.63 193.06,-29.53"/>
</a>
</g>
</g>
<!-- Node9 -->
<g id="Node000009" class="node">
<title>Node9</title>
<g id="a_Node000009"><a xlink:title=" ">
<polygon fill="#e0e0e0" stroke="#999999" points="168,-74 112,-74 112,-55 168,-55 168,-74"/>
<text text-anchor="middle" x="140" y="-62" font-family="Helvetica,sans-Serif" font-size="10.00">stddef.h</text>
</a>
</g>
</g>
<!-- Node8&#45;&gt;Node9 -->
<g id="edge11_Node000008_Node000009" class="edge">
<title>Node8&#45;&gt;Node9</title>
<g id="a_edge11_Node000008_Node000009"><a xlink:title=" ">
<path fill="none" stroke="#63b8ff" d="M171.73,-109.75C166.41,-102.34 158.64,-91.5 152.12,-82.41"/>
<polygon fill="#63b8ff" stroke="#63b8ff" points="154.83,-80.18 146.16,-74.09 149.14,-84.26 154.83,-80.18"/>
</a>
</g>
</g>
<!-- Node10&#45;&gt;Node4 -->
<g id="edge16_Node000010_Node000004" class="edge">
<title>Node10&#45;&gt;Node4</title>
<g id="a_edge16_Node000010_Node000004"><a xlink:title=" ">
<path fill="none" stroke="#63b8ff" d="M111.96,-109.98C141.3,-101.05 187.6,-86.94 220.19,-77.02"/>
<polygon fill="#63b8ff" stroke="#63b8ff" points="221.28,-80.34 229.82,-74.08 219.24,-73.65 221.28,-80.34"/>
</a>
</g>
</g>
<!-- Node10&#45;&gt;Node6 -->
<g id="edge14_Node000010_Node000006" class="edge">
<title>Node10&#45;&gt;Node6</title>
<g id="a_edge14_Node000010_Node000006"><a xlink:title=" ">
<path fill="none" stroke="#63b8ff" d="M84.47,-109.67C85.61,-96.36 89.53,-71.03 103,-55 116.66,-38.75 137.72,-27.84 155.92,-20.9"/>
<polygon fill="#63b8ff" stroke="#63b8ff" points="157.15,-24.17 165.4,-17.53 154.81,-17.58 157.15,-24.17"/>
</a>
</g>
</g>
<!-- Node11 -->
<g id="Node000011" class="node">
<title>Node11</title>
<g id="a_Node000011"><a xlink:title=" ">
<polygon fill="#e0e0e0" stroke="#999999" points="55.5,-74 2.5,-74 2.5,-55 55.5,-55 55.5,-74"/>
<text text-anchor="middle" x="29" y="-62" font-family="Helvetica,sans-Serif" font-size="10.00">stdlib.h</text>
</a>
</g>
</g>
<!-- Node10&#45;&gt;Node11 -->
<g id="edge15_Node000010_Node000011" class="edge">
<title>Node10&#45;&gt;Node11</title>
<g id="a_edge15_Node000010_Node000011"><a xlink:title=" ">
<path fill="none" stroke="#63b8ff" d="M74.92,-109.75C66.91,-102.03 55.04,-90.6 45.38,-81.28"/>
<polygon fill="#63b8ff" stroke="#63b8ff" points="47.54,-78.51 37.91,-74.09 42.69,-83.55 47.54,-78.51"/>
</a>
</g>
</g>
<!-- Node12&#45;&gt;Node2 -->
<g id="edge18_Node000012_Node000002" class="edge">
<title>Node12&#45;&gt;Node2</title>
<g id="a_edge18_Node000012_Node000002"><a xlink:title=" ">
<path fill="none" stroke="#63b8ff" d="M360.07,-347.17C410.66,-342.67 507.31,-330.83 528,-305 540.4,-289.52 574.01,-237.94 508,-165 492.84,-148.25 437.33,-135.68 394.83,-128.25"/>
<polygon fill="#63b8ff" stroke="#63b8ff" points="395.34,-124.78 384.89,-126.56 394.17,-131.68 395.34,-124.78"/>
</a>
</g>
</g>
<!-- Node12&#45;&gt;Node7 -->
<g id="edge19_Node000012_Node000007" class="edge">
<title>Node12&#45;&gt;Node7</title>
<g id="a_edge19_Node000012_Node000007"><a xlink:title=" ">
<path fill="none" stroke="#63b8ff" d="M297.99,-346.73C264.18,-342.43 209.75,-331.64 171,-305 129.84,-276.7 102.83,-221.96 90.94,-193.57"/>
<polygon fill="#63b8ff" stroke="#63b8ff" points="94.11,-192.06 87.13,-184.08 87.62,-194.67 94.11,-192.06"/>
</a>
</g>
</g>
<!-- Node13 -->
<g id="Node000013" class="node">
<title>Node13</title>
<g id="a_Node000013"><a xlink:href="LR__common_8h.html" target="_top" xlink:title=" ">
<polygon fill="white" stroke="#666666" points="314,-305 180,-305 180,-286 314,-286 314,-305"/>
<text text-anchor="middle" x="247" y="-293" font-family="Helvetica,sans-Serif" font-size="10.00">../LR11x0/LR_common.h</text>
</a>
</g>
</g>
<!-- Node12&#45;&gt;Node13 -->
<g id="edge20_Node000012_Node000013" class="edge">
<title>Node12&#45;&gt;Node13</title>
<g id="a_edge20_Node000012_Node000013"><a xlink:title=" ">
<path fill="none" stroke="#63b8ff" d="M315.83,-340.98C303.23,-332.84 284,-320.41 269.06,-310.76"/>
<polygon fill="#63b8ff" stroke="#63b8ff" points="270.71,-307.66 260.41,-305.17 266.91,-313.54 270.71,-307.66"/>
</a>
</g>
</g>
<!-- Node15 -->
<g id="Node000015" class="node">
<title>Node15</title>
<g id="a_Node000015"><a xlink:href="LR11x0__commands_8h.html" target="_top" xlink:title=" ">
<polygon fill="white" stroke="#666666" points="442.5,-244.5 321.5,-244.5 321.5,-225.5 442.5,-225.5 442.5,-244.5"/>
<text text-anchor="middle" x="382" y="-232.5" font-family="Helvetica,sans-Serif" font-size="10.00">LR11x0_commands.h</text>
</a>
</g>
</g>
<!-- Node12&#45;&gt;Node15 -->
<g id="edge25_Node000012_Node000015" class="edge">
<title>Node12&#45;&gt;Node15</title>
<g id="a_edge25_Node000012_Node000015"><a xlink:title=" ">
<path fill="none" stroke="#63b8ff" d="M332.98,-340.97C341.58,-322.56 362.02,-278.79 373.61,-253.98"/>
<polygon fill="#63b8ff" stroke="#63b8ff" points="376.91,-255.17 377.97,-244.63 370.57,-252.21 376.91,-255.17"/>
</a>
</g>
</g>
<!-- Node16 -->
<g id="Node000016" class="node">
<title>Node16</title>
<g id="a_Node000016"><a xlink:href="LR11x0__registers_8h.html" target="_top" xlink:title=" ">
<polygon fill="white" stroke="#666666" points="481,-184 371,-184 371,-165 481,-165 481,-184"/>
<text text-anchor="middle" x="426" y="-172" font-family="Helvetica,sans-Serif" font-size="10.00">LR11x0_registers.h</text>
</a>
</g>
</g>
<!-- Node12&#45;&gt;Node16 -->
<g id="edge27_Node000012_Node000016" class="edge">
<title>Node12&#45;&gt;Node16</title>
<g id="a_edge27_Node000012_Node000016"><a xlink:title=" ">
<path fill="none" stroke="#63b8ff" d="M340.98,-340.74C370.71,-318.87 445.94,-262.7 452,-250 461.09,-230.96 449.83,-207.86 439.42,-192.48"/>
<polygon fill="#63b8ff" stroke="#63b8ff" points="441.95,-190.02 433.23,-184.01 436.3,-194.15 441.95,-190.02"/>
</a>
</g>
</g>
<!-- Node17 -->
<g id="Node000017" class="node">
<title>Node17</title>
<g id="a_Node000017"><a xlink:href="LR11x0__types_8h.html" target="_top" xlink:title=" ">
<polygon fill="white" stroke="#666666" points="519,-305 425,-305 425,-286 519,-286 519,-305"/>
<text text-anchor="middle" x="472" y="-293" font-family="Helvetica,sans-Serif" font-size="10.00">LR11x0_types.h</text>
</a>
</g>
</g>
<!-- Node12&#45;&gt;Node17 -->
<g id="edge29_Node000012_Node000017" class="edge">
<title>Node12&#45;&gt;Node17</title>
<g id="a_edge29_Node000012_Node000017"><a xlink:title=" ">
<path fill="none" stroke="#63b8ff" d="M351.98,-340.98C375.5,-332.27 412.29,-318.63 438.94,-308.75"/>
<polygon fill="#63b8ff" stroke="#63b8ff" points="440.45,-311.93 448.61,-305.17 438.01,-305.36 440.45,-311.93"/>
</a>
</g>
</g>
<!-- Node13&#45;&gt;Node7 -->
<g id="edge21_Node000013_Node000007" class="edge">
<title>Node13&#45;&gt;Node7</title>
<g id="a_edge21_Node000013_Node000007"><a xlink:title=" ">
<path fill="none" stroke="#63b8ff" d="M230.71,-285.87C215.18,-277.4 191.36,-263.79 172,-250 145.94,-231.43 118.12,-207.01 100.89,-191.28"/>
<polygon fill="#63b8ff" stroke="#63b8ff" points="103.06,-188.52 93.34,-184.32 98.32,-193.67 103.06,-188.52"/>
</a>
</g>
</g>
<!-- Node14 -->
<g id="Node000014" class="node">
<title>Node14</title>
<g id="a_Node000014"><a xlink:href="PhysicalLayer_8h.html" target="_top" xlink:title=" ">
<polygon fill="white" stroke="#666666" points="303.5,-250 180.5,-250 180.5,-220 303.5,-220 303.5,-250"/>
<text text-anchor="start" x="188.5" y="-238" font-family="Helvetica,sans-Serif" font-size="10.00">../../protocols/Physical</text>
<text text-anchor="middle" x="242" y="-227" font-family="Helvetica,sans-Serif" font-size="10.00">Layer/PhysicalLayer.h</text>
</a>
</g>
</g>
<!-- Node13&#45;&gt;Node14 -->
<g id="edge22_Node000013_Node000014" class="edge">
<title>Node13&#45;&gt;Node14</title>
<g id="a_edge22_Node000013_Node000014"><a xlink:title=" ">
<path fill="none" stroke="#63b8ff" d="M246.26,-285.87C245.68,-279.11 244.85,-269.35 244.07,-260.26"/>
<polygon fill="#63b8ff" stroke="#63b8ff" points="247.55,-259.78 243.21,-250.11 240.57,-260.38 247.55,-259.78"/>
</a>
</g>
</g>
<!-- Node14&#45;&gt;Node2 -->
<g id="edge23_Node000014_Node000002" class="edge">
<title>Node14&#45;&gt;Node2</title>
<g id="a_edge23_Node000014_Node000002"><a xlink:title=" ">
<path fill="none" stroke="#63b8ff" d="M254.79,-219.63C273.62,-198.47 308.69,-159.05 328.47,-136.83"/>
<polygon fill="#63b8ff" stroke="#63b8ff" points="331.2,-139.03 335.23,-129.23 325.97,-134.37 331.2,-139.03"/>
</a>
</g>
</g>
<!-- Node14&#45;&gt;Node7 -->
<g id="edge24_Node000014_Node000007" class="edge">
<title>Node14&#45;&gt;Node7</title>
<g id="a_edge24_Node000014_Node000007"><a xlink:title=" ">
<path fill="none" stroke="#63b8ff" d="M204.16,-219.99C177.56,-210.14 142.33,-197.1 116.9,-187.68"/>
<polygon fill="#63b8ff" stroke="#63b8ff" points="117.93,-184.33 107.33,-184.14 115.5,-190.89 117.93,-184.33"/>
</a>
</g>
</g>
<!-- Node15&#45;&gt;Node2 -->
<g id="edge26_Node000015_Node000002" class="edge">
<title>Node15&#45;&gt;Node2</title>
<g id="a_edge26_Node000015_Node000002"><a xlink:title=" ">
<path fill="none" stroke="#63b8ff" d="M378.22,-225.24C374,-215.33 367.11,-198.65 362,-184 356.78,-169.04 351.68,-151.81 348.08,-139.07"/>
<polygon fill="#63b8ff" stroke="#63b8ff" points="351.39,-137.9 345.34,-129.21 344.65,-139.78 351.39,-137.9"/>
</a>
</g>
</g>
<!-- Node16&#45;&gt;Node2 -->
<g id="edge28_Node000016_Node000002" class="edge">
<title>Node16&#45;&gt;Node2</title>
<g id="a_edge28_Node000016_Node000002"><a xlink:title=" ">
<path fill="none" stroke="#63b8ff" d="M412.66,-164.98C399.91,-156.84 380.45,-144.41 365.33,-134.76"/>
<polygon fill="#63b8ff" stroke="#63b8ff" points="366.89,-131.6 356.58,-129.17 363.12,-137.5 366.89,-131.6"/>
</a>
</g>
</g>
<!-- Node17&#45;&gt;Node2 -->
<g id="edge30_Node000017_Node000002" class="edge">
<title>Node17&#45;&gt;Node2</title>
<g id="a_edge30_Node000017_Node000002"><a xlink:title=" ">
<path fill="none" stroke="#63b8ff" d="M476.98,-285.91C489.23,-263.52 517.87,-202.55 490,-165 468.26,-135.7 427.75,-125.01 394.76,-121.4"/>
<polygon fill="#63b8ff" stroke="#63b8ff" points="395.07,-117.92 384.79,-120.5 394.44,-124.89 395.07,-117.92"/>
</a>
</g>
</g>
<!-- Node18&#45;&gt;Node2 -->
<g id="edge32_Node000018_Node000002" class="edge">
<title>Node18&#45;&gt;Node2</title>
<g id="a_edge32_Node000018_Node000002"><a xlink:title=" ">
<path fill="none" stroke="#63b8ff" d="M161.52,-395.85C158.51,-377.57 152,-333.63 152,-296.5 152,-296.5 152,-296.5 152,-234 152,-169.05 234.64,-140.44 291.2,-128.46"/>
<polygon fill="#63b8ff" stroke="#63b8ff" points="291.97,-131.88 301.08,-126.48 290.59,-125.01 291.97,-131.88"/>
</a>
</g>
</g>
<!-- Node18&#45;&gt;Node7 -->
<g id="edge33_Node000018_Node000007" class="edge">
<title>Node18&#45;&gt;Node7</title>
<g id="a_edge33_Node000018_Node000007"><a xlink:title=" ">
<path fill="none" stroke="#63b8ff" d="M157.56,-395.87C152.16,-387.06 143.86,-372.91 138,-360 116.55,-312.77 112.82,-300 99,-250 93.85,-231.35 89.67,-209.63 87.05,-194.47"/>
<polygon fill="#63b8ff" stroke="#63b8ff" points="90.46,-193.6 85.36,-184.31 83.55,-194.75 90.46,-193.6"/>
</a>
</g>
</g>
<!-- Node18&#45;&gt;Node12 -->
<g id="edge34_Node000018_Node000012" class="edge">
<title>Node18&#45;&gt;Node12</title>
<g id="a_edge34_Node000018_Node000012"><a xlink:title=" ">
<path fill="none" stroke="#63b8ff" d="M189.67,-395.98C217.54,-387.09 261.45,-373.07 292.52,-363.15"/>
<polygon fill="#63b8ff" stroke="#63b8ff" points="293.66,-366.46 302.12,-360.08 291.53,-359.79 293.66,-366.46"/>
</a>
</g>
</g>
</g>
</svg>
