<?xml version="1.0" encoding="UTF-8" standalone="no"?>
<!DOCTYPE svg PUBLIC "-//W3C//DTD SVG 1.1//EN"
 "http://www.w3.org/Graphics/SVG/1.1/DTD/svg11.dtd">
<!-- Generated by graphviz version 2.43.0 (0)
 -->
<!-- Title: thirdparty/RadioLib/include/RadioLib/modules/LR2021/LR2021.h Pages: 1 -->
<svg width="410pt" height="390pt"
 viewBox="0.00 0.00 409.67 390.00" xmlns="http://www.w3.org/2000/svg" xmlns:xlink="http://www.w3.org/1999/xlink">
<g id="graph0" class="graph" transform="scale(1 1) rotate(0) translate(4 386)">
<title>thirdparty/RadioLib/include/RadioLib/modules/LR2021/LR2021.h</title>
<!-- Node1 -->
<g id="Node000001" class="node">
<title>Node1</title>
<g id="a_Node000001"><a xlink:title=" ">
<polygon fill="#999999" stroke="#666666" points="331.5,-382 186.5,-382 186.5,-341 331.5,-341 331.5,-382"/>
<text text-anchor="start" x="194.5" y="-370" font-family="Helvetica,sans-Serif" font-size="10.00">thirdparty/RadioLib</text>
<text text-anchor="start" x="194.5" y="-359" font-family="Helvetica,sans-Serif" font-size="10.00">/include/RadioLib/modules</text>
<text text-anchor="middle" x="259" y="-348" font-family="Helvetica,sans-Serif" font-size="10.00">/LR2021/LR2021.h</text>
</a>
</g>
</g>
<!-- Node2 -->
<g id="Node000002" class="node">
<title>Node2</title>
<g id="a_Node000002"><a xlink:href="TypeDef_8h.html" target="_top" xlink:title=" ">
<polygon fill="white" stroke="#666666" points="297.5,-129 214.5,-129 214.5,-110 297.5,-110 297.5,-129"/>
<text text-anchor="middle" x="256" y="-117" font-family="Helvetica,sans-Serif" font-size="10.00">../../TypeDef.h</text>
</a>
</g>
</g>
<!-- Node1&#45;&gt;Node2 -->
<g id="edge1_Node000001_Node000002" class="edge">
<title>Node1&#45;&gt;Node2</title>
<g id="a_edge1_Node000001_Node000002"><a xlink:title=" ">
<path fill="none" stroke="#63b8ff" d="M294.23,-340.78C308.8,-331.36 325.05,-319.06 337,-305 379.78,-254.65 425.48,-218.71 387,-165 369.06,-139.96 336.22,-128.84 307.91,-123.98"/>
<polygon fill="#63b8ff" stroke="#63b8ff" points="308.12,-120.47 297.72,-122.45 307.09,-127.39 308.12,-120.47"/>
</a>
</g>
</g>
<!-- Node7 -->
<g id="Node000007" class="node">
<title>Node7</title>
<g id="a_Node000007"><a xlink:href="Module_8h.html" target="_top" xlink:title=" ">
<polygon fill="white" stroke="#666666" points="151,-184 71,-184 71,-165 151,-165 151,-184"/>
<text text-anchor="middle" x="111" y="-172" font-family="Helvetica,sans-Serif" font-size="10.00">../../Module.h</text>
</a>
</g>
</g>
<!-- Node1&#45;&gt;Node7 -->
<g id="edge7_Node000001_Node000007" class="edge">
<title>Node1&#45;&gt;Node7</title>
<g id="a_edge7_Node000001_Node000007"><a xlink:title=" ">
<path fill="none" stroke="#63b8ff" d="M186.34,-348.95C137.27,-339.54 78.68,-324.61 63,-305 39.39,-275.48 44.36,-254.41 60,-220 65.62,-207.63 76.57,-197.36 86.89,-189.81"/>
<polygon fill="#63b8ff" stroke="#63b8ff" points="88.96,-192.63 95.27,-184.12 85.03,-186.84 88.96,-192.63"/>
</a>
</g>
</g>
<!-- Node12 -->
<g id="Node000012" class="node">
<title>Node12</title>
<g id="a_Node000012"><a xlink:href="PhysicalLayer_8h.html" target="_top" xlink:title=" ">
<polygon fill="white" stroke="#666666" points="200.5,-250 77.5,-250 77.5,-220 200.5,-220 200.5,-250"/>
<text text-anchor="start" x="85.5" y="-238" font-family="Helvetica,sans-Serif" font-size="10.00">../../protocols/Physical</text>
<text text-anchor="middle" x="139" y="-227" font-family="Helvetica,sans-Serif" font-size="10.00">Layer/PhysicalLayer.h</text>
</a>
</g>
</g>
<!-- Node1&#45;&gt;Node12 -->
<g id="edge17_Node000001_Node000012" class="edge">
<title>Node1&#45;&gt;Node12</title>
<g id="a_edge17_Node000001_Node000012"><a xlink:title=" ">
<path fill="none" stroke="#63b8ff" d="M250.46,-340.83C242.81,-324.78 230.44,-302.2 215,-286 203.56,-273.99 188.72,-263.42 175.19,-255.13"/>
<polygon fill="#63b8ff" stroke="#63b8ff" points="176.93,-252.1 166.54,-250.02 173.37,-258.12 176.93,-252.1"/>
</a>
</g>
</g>
<!-- Node13 -->
<g id="Node000013" class="node">
<title>Node13</title>
<g id="a_Node000013"><a xlink:href="LR__common_8h.html" target="_top" xlink:title=" ">
<polygon fill="white" stroke="#666666" points="206,-305 72,-305 72,-286 206,-286 206,-305"/>
<text text-anchor="middle" x="139" y="-293" font-family="Helvetica,sans-Serif" font-size="10.00">../LR11x0/LR_common.h</text>
</a>
</g>
</g>
<!-- Node1&#45;&gt;Node13 -->
<g id="edge20_Node000001_Node000013" class="edge">
<title>Node1&#45;&gt;Node13</title>
<g id="a_edge20_Node000001_Node000013"><a xlink:title=" ">
<path fill="none" stroke="#63b8ff" d="M222.34,-340.95C203.56,-330.93 181.16,-318.99 164.32,-310"/>
<polygon fill="#63b8ff" stroke="#63b8ff" points="165.58,-306.71 155.11,-305.09 162.29,-312.89 165.58,-306.71"/>
</a>
</g>
</g>
<!-- Node14 -->
<g id="Node000014" class="node">
<title>Node14</title>
<g id="a_Node000014"><a xlink:href="LR2021__commands_8h.html" target="_top" xlink:title=" ">
<polygon fill="white" stroke="#666666" points="339.5,-244.5 218.5,-244.5 218.5,-225.5 339.5,-225.5 339.5,-244.5"/>
<text text-anchor="middle" x="279" y="-232.5" font-family="Helvetica,sans-Serif" font-size="10.00">LR2021_commands.h</text>
</a>
</g>
</g>
<!-- Node1&#45;&gt;Node14 -->
<g id="edge23_Node000001_Node000014" class="edge">
<title>Node1&#45;&gt;Node14</title>
<g id="a_edge23_Node000001_Node000014"><a xlink:title=" ">
<path fill="none" stroke="#63b8ff" d="M262.17,-340.77C265.97,-317.09 272.31,-277.66 276.02,-254.52"/>
<polygon fill="#63b8ff" stroke="#63b8ff" points="279.49,-255.04 277.62,-244.61 272.57,-253.93 279.49,-255.04"/>
</a>
</g>
</g>
<!-- Node15 -->
<g id="Node000015" class="node">
<title>Node15</title>
<g id="a_Node000015"><a xlink:href="LR2021__types_8h.html" target="_top" xlink:title=" ">
<polygon fill="white" stroke="#666666" points="378,-184 284,-184 284,-165 378,-165 378,-184"/>
<text text-anchor="middle" x="331" y="-172" font-family="Helvetica,sans-Serif" font-size="10.00">LR2021_types.h</text>
</a>
</g>
</g>
<!-- Node1&#45;&gt;Node15 -->
<g id="edge25_Node000001_Node000015" class="edge">
<title>Node1&#45;&gt;Node15</title>
<g id="a_edge25_Node000001_Node000015"><a xlink:title=" ">
<path fill="none" stroke="#63b8ff" d="M282.29,-340.89C304.29,-320.71 335.82,-287.06 349,-250 355.73,-231.08 348.27,-208.57 341.01,-193.28"/>
<polygon fill="#63b8ff" stroke="#63b8ff" points="344.11,-191.67 336.42,-184.39 337.89,-194.88 344.11,-191.67"/>
</a>
</g>
</g>
<!-- Node3 -->
<g id="Node000003" class="node">
<title>Node3</title>
<g id="a_Node000003"><a xlink:href="BuildOptUser_8h.html" target="_top" xlink:title=" ">
<polygon fill="white" stroke="#666666" points="397.5,-74 308.5,-74 308.5,-55 397.5,-55 397.5,-74"/>
<text text-anchor="middle" x="353" y="-62" font-family="Helvetica,sans-Serif" font-size="10.00">BuildOptUser.h</text>
</a>
</g>
</g>
<!-- Node2&#45;&gt;Node3 -->
<g id="edge2_Node000002_Node000003" class="edge">
<title>Node2&#45;&gt;Node3</title>
<g id="a_edge2_Node000002_Node000003"><a xlink:title=" ">
<path fill="none" stroke="#63b8ff" d="M271.58,-109.98C286.77,-101.69 310.1,-88.94 327.9,-79.22"/>
<polygon fill="#63b8ff" stroke="#63b8ff" points="330.03,-82.04 337.13,-74.17 326.68,-75.89 330.03,-82.04"/>
</a>
</g>
</g>
<!-- Node4 -->
<g id="Node000004" class="node">
<title>Node4</title>
<g id="a_Node000004"><a xlink:href="BuildOpt_8h.html" target="_top" xlink:title=" ">
<polygon fill="white" stroke="#666666" points="290,-74 222,-74 222,-55 290,-55 290,-74"/>
<text text-anchor="middle" x="256" y="-62" font-family="Helvetica,sans-Serif" font-size="10.00">BuildOpt.h</text>
</a>
</g>
</g>
<!-- Node2&#45;&gt;Node4 -->
<g id="edge3_Node000002_Node000004" class="edge">
<title>Node2&#45;&gt;Node4</title>
<g id="a_edge3_Node000002_Node000004"><a xlink:title=" ">
<path fill="none" stroke="#63b8ff" d="M250.83,-109.75C249.34,-102.8 248.9,-92.85 249.52,-84.13"/>
<polygon fill="#63b8ff" stroke="#63b8ff" points="253.01,-84.47 250.87,-74.09 246.07,-83.53 253.01,-84.47"/>
</a>
</g>
</g>
<!-- Node4&#45;&gt;Node2 -->
<g id="edge4_Node000004_Node000002" class="edge">
<title>Node4&#45;&gt;Node2</title>
<g id="a_edge4_Node000004_Node000002"><a xlink:title=" ">
<path fill="none" stroke="#63b8ff" d="M261.13,-74.09C262.64,-80.99 263.09,-90.93 262.49,-99.66"/>
<polygon fill="#63b8ff" stroke="#63b8ff" points="259,-99.38 261.17,-109.75 265.94,-100.29 259,-99.38"/>
</a>
</g>
</g>
<!-- Node5 -->
<g id="Node000005" class="node">
<title>Node5</title>
<g id="a_Node000005"><a xlink:title=" ">
<polygon fill="#e0e0e0" stroke="#999999" points="285,-19 235,-19 235,0 285,0 285,-19"/>
<text text-anchor="middle" x="260" y="-7" font-family="Helvetica,sans-Serif" font-size="10.00">stdio.h</text>
</a>
</g>
</g>
<!-- Node4&#45;&gt;Node5 -->
<g id="edge5_Node000004_Node000005" class="edge">
<title>Node4&#45;&gt;Node5</title>
<g id="a_edge5_Node000004_Node000005"><a xlink:title=" ">
<path fill="none" stroke="#63b8ff" d="M256.66,-54.75C257.18,-47.8 257.94,-37.85 258.59,-29.13"/>
<polygon fill="#63b8ff" stroke="#63b8ff" points="262.09,-29.32 259.35,-19.09 255.11,-28.8 262.09,-29.32"/>
</a>
</g>
</g>
<!-- Node6 -->
<g id="Node000006" class="node">
<title>Node6</title>
<g id="a_Node000006"><a xlink:title=" ">
<polygon fill="#e0e0e0" stroke="#999999" points="216.5,-19 163.5,-19 163.5,0 216.5,0 216.5,-19"/>
<text text-anchor="middle" x="190" y="-7" font-family="Helvetica,sans-Serif" font-size="10.00">stdint.h</text>
</a>
</g>
</g>
<!-- Node4&#45;&gt;Node6 -->
<g id="edge6_Node000004_Node000006" class="edge">
<title>Node4&#45;&gt;Node6</title>
<g id="a_edge6_Node000004_Node000006"><a xlink:title=" ">
<path fill="none" stroke="#63b8ff" d="M245.4,-54.98C235.54,-47.07 220.65,-35.11 208.78,-25.58"/>
<polygon fill="#63b8ff" stroke="#63b8ff" points="210.79,-22.7 200.8,-19.17 206.4,-28.16 210.79,-22.7"/>
</a>
</g>
</g>
<!-- Node7&#45;&gt;Node2 -->
<g id="edge8_Node000007_Node000002" class="edge">
<title>Node7&#45;&gt;Node2</title>
<g id="a_edge8_Node000007_Node000002"><a xlink:title=" ">
<path fill="none" stroke="#63b8ff" d="M134.3,-164.98C158.25,-156.23 195.78,-142.51 222.83,-132.62"/>
<polygon fill="#63b8ff" stroke="#63b8ff" points="224.09,-135.89 232.28,-129.17 221.69,-129.32 224.09,-135.89"/>
</a>
</g>
</g>
<!-- Node8 -->
<g id="Node000008" class="node">
<title>Node8</title>
<g id="a_Node000008"><a xlink:href="Hal_8h.html" target="_top" xlink:title=" ">
<polygon fill="white" stroke="#666666" points="105,-129 63,-129 63,-110 105,-110 105,-129"/>
<text text-anchor="middle" x="84" y="-117" font-family="Helvetica,sans-Serif" font-size="10.00">Hal.h</text>
</a>
</g>
</g>
<!-- Node7&#45;&gt;Node8 -->
<g id="edge9_Node000007_Node000008" class="edge">
<title>Node7&#45;&gt;Node8</title>
<g id="a_edge9_Node000007_Node000008"><a xlink:title=" ">
<path fill="none" stroke="#63b8ff" d="M106.54,-164.75C102.88,-157.57 97.59,-147.18 93.05,-138.27"/>
<polygon fill="#63b8ff" stroke="#63b8ff" points="96.03,-136.41 88.38,-129.09 89.8,-139.59 96.03,-136.41"/>
</a>
</g>
</g>
<!-- Node10 -->
<g id="Node000010" class="node">
<title>Node10</title>
<g id="a_Node000010"><a xlink:href="Utils_8h.html" target="_top" xlink:title=" ">
<polygon fill="white" stroke="#666666" points="195,-129 123,-129 123,-110 195,-110 195,-129"/>
<text text-anchor="middle" x="159" y="-117" font-family="Helvetica,sans-Serif" font-size="10.00">utils/Utils.h</text>
</a>
</g>
</g>
<!-- Node7&#45;&gt;Node10 -->
<g id="edge13_Node000007_Node000010" class="edge">
<title>Node7&#45;&gt;Node10</title>
<g id="a_edge13_Node000007_Node000010"><a xlink:title=" ">
<path fill="none" stroke="#63b8ff" d="M118.93,-164.75C125.85,-157.11 136.07,-145.82 144.45,-136.56"/>
<polygon fill="#63b8ff" stroke="#63b8ff" points="147.1,-138.85 151.22,-129.09 141.91,-134.15 147.1,-138.85"/>
</a>
</g>
</g>
<!-- Node8&#45;&gt;Node4 -->
<g id="edge12_Node000008_Node000004" class="edge">
<title>Node8&#45;&gt;Node4</title>
<g id="a_edge12_Node000008_Node000004"><a xlink:title=" ">
<path fill="none" stroke="#63b8ff" d="M105.09,-112C133.26,-103.32 183.64,-87.8 218.39,-77.09"/>
<polygon fill="#63b8ff" stroke="#63b8ff" points="219.66,-80.36 228.19,-74.07 217.6,-73.67 219.66,-80.36"/>
</a>
</g>
</g>
<!-- Node8&#45;&gt;Node6 -->
<g id="edge10_Node000008_Node000006" class="edge">
<title>Node8&#45;&gt;Node6</title>
<g id="a_edge10_Node000008_Node000006"><a xlink:title=" ">
<path fill="none" stroke="#63b8ff" d="M84.49,-109.68C85.65,-96.4 89.6,-71.09 103,-55 116.1,-39.27 136.18,-28.48 153.74,-21.47"/>
<polygon fill="#63b8ff" stroke="#63b8ff" points="155.03,-24.73 163.19,-17.96 152.59,-18.17 155.03,-24.73"/>
</a>
</g>
</g>
<!-- Node9 -->
<g id="Node000009" class="node">
<title>Node9</title>
<g id="a_Node000009"><a xlink:title=" ">
<polygon fill="#e0e0e0" stroke="#999999" points="56,-74 0,-74 0,-55 56,-55 56,-74"/>
<text text-anchor="middle" x="28" y="-62" font-family="Helvetica,sans-Serif" font-size="10.00">stddef.h</text>
</a>
</g>
</g>
<!-- Node8&#45;&gt;Node9 -->
<g id="edge11_Node000008_Node000009" class="edge">
<title>Node8&#45;&gt;Node9</title>
<g id="a_edge11_Node000008_Node000009"><a xlink:title=" ">
<path fill="none" stroke="#63b8ff" d="M75,-109.98C66.81,-102.23 54.49,-90.58 44.53,-81.14"/>
<polygon fill="#63b8ff" stroke="#63b8ff" points="46.83,-78.5 37.16,-74.17 42.02,-83.59 46.83,-78.5"/>
</a>
</g>
</g>
<!-- Node10&#45;&gt;Node4 -->
<g id="edge16_Node000010_Node000004" class="edge">
<title>Node10&#45;&gt;Node4</title>
<g id="a_edge16_Node000010_Node000004"><a xlink:title=" ">
<path fill="none" stroke="#63b8ff" d="M174.58,-109.98C189.77,-101.69 213.1,-88.94 230.9,-79.22"/>
<polygon fill="#63b8ff" stroke="#63b8ff" points="233.03,-82.04 240.13,-74.17 229.68,-75.89 233.03,-82.04"/>
</a>
</g>
</g>
<!-- Node10&#45;&gt;Node6 -->
<g id="edge14_Node000010_Node000006" class="edge">
<title>Node10&#45;&gt;Node6</title>
<g id="a_edge14_Node000010_Node000006"><a xlink:title=" ">
<path fill="none" stroke="#63b8ff" d="M162.19,-109.7C165.38,-100.77 170.32,-86.51 174,-74 178.42,-58.98 182.71,-41.75 185.73,-29.03"/>
<polygon fill="#63b8ff" stroke="#63b8ff" points="189.17,-29.72 188.04,-19.19 182.35,-28.13 189.17,-29.72"/>
</a>
</g>
</g>
<!-- Node11 -->
<g id="Node000011" class="node">
<title>Node11</title>
<g id="a_Node000011"><a xlink:title=" ">
<polygon fill="#e0e0e0" stroke="#999999" points="165.5,-74 112.5,-74 112.5,-55 165.5,-55 165.5,-74"/>
<text text-anchor="middle" x="139" y="-62" font-family="Helvetica,sans-Serif" font-size="10.00">stdlib.h</text>
</a>
</g>
</g>
<!-- Node10&#45;&gt;Node11 -->
<g id="edge15_Node000010_Node000011" class="edge">
<title>Node10&#45;&gt;Node11</title>
<g id="a_edge15_Node000010_Node000011"><a xlink:title=" ">
<path fill="none" stroke="#63b8ff" d="M155.7,-109.75C153.02,-102.65 149.15,-92.4 145.81,-83.56"/>
<polygon fill="#63b8ff" stroke="#63b8ff" points="149.05,-82.21 142.24,-74.09 142.5,-84.68 149.05,-82.21"/>
</a>
</g>
</g>
<!-- Node12&#45;&gt;Node2 -->
<g id="edge18_Node000012_Node000002" class="edge">
<title>Node12&#45;&gt;Node2</title>
<g id="a_edge18_Node000012_Node000002"><a xlink:title=" ">
<path fill="none" stroke="#63b8ff" d="M153.82,-219.63C175.82,-198.28 216.97,-158.36 239.77,-136.25"/>
<polygon fill="#63b8ff" stroke="#63b8ff" points="242.26,-138.7 247,-129.23 237.39,-133.68 242.26,-138.7"/>
</a>
</g>
</g>
<!-- Node12&#45;&gt;Node7 -->
<g id="edge19_Node000012_Node000007" class="edge">
<title>Node12&#45;&gt;Node7</title>
<g id="a_edge19_Node000012_Node000007"><a xlink:title=" ">
<path fill="none" stroke="#63b8ff" d="M132.22,-219.84C128.41,-211.87 123.61,-201.84 119.54,-193.33"/>
<polygon fill="#63b8ff" stroke="#63b8ff" points="122.67,-191.77 115.2,-184.27 116.36,-194.8 122.67,-191.77"/>
</a>
</g>
</g>
<!-- Node13&#45;&gt;Node7 -->
<g id="edge21_Node000013_Node000007" class="edge">
<title>Node13&#45;&gt;Node7</title>
<g id="a_edge21_Node000013_Node000007"><a xlink:title=" ">
<path fill="none" stroke="#63b8ff" d="M113.49,-285.9C97.31,-278.96 77.65,-267.44 68,-250 61.54,-238.33 63,-232.36 68,-220 72.69,-208.41 82,-198.16 90.76,-190.43"/>
<polygon fill="#63b8ff" stroke="#63b8ff" points="93,-193.12 98.51,-184.07 88.56,-187.71 93,-193.12"/>
</a>
</g>
</g>
<!-- Node13&#45;&gt;Node12 -->
<g id="edge22_Node000013_Node000012" class="edge">
<title>Node13&#45;&gt;Node12</title>
<g id="a_edge22_Node000013_Node000012"><a xlink:title=" ">
<path fill="none" stroke="#63b8ff" d="M139,-285.87C139,-279.11 139,-269.35 139,-260.26"/>
<polygon fill="#63b8ff" stroke="#63b8ff" points="142.5,-260.11 139,-250.11 135.5,-260.11 142.5,-260.11"/>
</a>
</g>
</g>
<!-- Node14&#45;&gt;Node2 -->
<g id="edge24_Node000014_Node000002" class="edge">
<title>Node14&#45;&gt;Node2</title>
<g id="a_edge24_Node000014_Node000002"><a xlink:title=" ">
<path fill="none" stroke="#63b8ff" d="M277.27,-225.47C273.57,-207.23 264.83,-164.07 259.78,-139.14"/>
<polygon fill="#63b8ff" stroke="#63b8ff" points="263.17,-138.24 257.75,-129.13 256.3,-139.63 263.17,-138.24"/>
</a>
</g>
</g>
<!-- Node15&#45;&gt;Node2 -->
<g id="edge26_Node000015_Node000002" class="edge">
<title>Node15&#45;&gt;Node2</title>
<g id="a_edge26_Node000015_Node000002"><a xlink:title=" ">
<path fill="none" stroke="#63b8ff" d="M318.95,-164.98C307.54,-156.92 290.17,-144.65 276.57,-135.03"/>
<polygon fill="#63b8ff" stroke="#63b8ff" points="278.46,-132.08 268.27,-129.17 274.42,-137.8 278.46,-132.08"/>
</a>
</g>
</g>
</g>
</svg>
