<?xml version="1.0" encoding="UTF-8" standalone="no"?>
<!DOCTYPE svg PUBLIC "-//W3C//DTD SVG 1.1//EN"
 "http://www.w3.org/Graphics/SVG/1.1/DTD/svg11.dtd">
<!-- Generated by graphviz version 2.43.0 (0)
 -->
<!-- Title: thirdparty/RadioLib/include/RadioLib/modules/LR2021/LR2021_commands.h Pages: 1 -->
<svg width="306pt" height="324pt"
 viewBox="0.00 0.00 305.50 324.00" xmlns="http://www.w3.org/2000/svg" xmlns:xlink="http://www.w3.org/1999/xlink">
<g id="graph0" class="graph" transform="scale(1 1) rotate(0) translate(4 320)">
<title>thirdparty/RadioLib/include/RadioLib/modules/LR2021/LR2021_commands.h</title>
<!-- Node1 -->
<g id="Node000001" class="node">
<title>Node1</title>
<g id="a_Node000001"><a xlink:title=" ">
<polygon fill="#999999" stroke="#666666" points="198,-316 35,-316 35,-275 198,-275 198,-316"/>
<text text-anchor="start" x="43" y="-304" font-family="Helvetica,sans-Serif" font-size="10.00">thirdparty/RadioLib</text>
<text text-anchor="start" x="43" y="-293" font-family="Helvetica,sans-Serif" font-size="10.00">/include/RadioLib/modules</text>
<text text-anchor="middle" x="116.5" y="-282" font-family="Helvetica,sans-Serif" font-size="10.00">/LR2021/LR2021_commands.h</text>
</a>
</g>
</g>
<!-- Node2 -->
<g id="Node000002" class="node">
<title>Node2</title>
<g id="a_Node000002"><a xlink:href="LR2021_8h.html" target="_top" xlink:title=" ">
<polygon fill="white" stroke="#666666" points="189,-239 44,-239 44,-198 189,-198 189,-239"/>
<text text-anchor="start" x="52" y="-227" font-family="Helvetica,sans-Serif" font-size="10.00">thirdparty/RadioLib</text>
<text text-anchor="start" x="52" y="-216" font-family="Helvetica,sans-Serif" font-size="10.00">/include/RadioLib/modules</text>
<text text-anchor="middle" x="116.5" y="-205" font-family="Helvetica,sans-Serif" font-size="10.00">/LR2021/LR2021.h</text>
</a>
</g>
</g>
<!-- Node1&#45;&gt;Node2 -->
<g id="edge1_Node000001_Node000002" class="edge">
<title>Node1&#45;&gt;Node2</title>
<g id="a_edge1_Node000001_Node000002"><a xlink:title=" ">
<path fill="none" stroke="#63b8ff" d="M116.5,-264.69C116.5,-256.08 116.5,-246.9 116.5,-239.07"/>
<polygon fill="#63b8ff" stroke="#63b8ff" points="113,-264.79 116.5,-274.79 120,-264.79 113,-264.79"/>
</a>
</g>
</g>
<!-- Node3 -->
<g id="Node000003" class="node">
<title>Node3</title>
<g id="a_Node000003"><a xlink:href="RadioLib_8h.html" target="_top" xlink:title=" ">
<polygon fill="white" stroke="#666666" points="193.5,-162 39.5,-162 39.5,-132 193.5,-132 193.5,-162"/>
<text text-anchor="start" x="47.5" y="-150" font-family="Helvetica,sans-Serif" font-size="10.00">thirdparty/RadioLib</text>
<text text-anchor="middle" x="116.5" y="-139" font-family="Helvetica,sans-Serif" font-size="10.00">/include/RadioLib/RadioLib.h</text>
</a>
</g>
</g>
<!-- Node2&#45;&gt;Node3 -->
<g id="edge2_Node000002_Node000003" class="edge">
<title>Node2&#45;&gt;Node3</title>
<g id="a_edge2_Node000002_Node000003"><a xlink:title=" ">
<path fill="none" stroke="#63b8ff" d="M116.5,-187.66C116.5,-178.76 116.5,-169.42 116.5,-162.04"/>
<polygon fill="#63b8ff" stroke="#63b8ff" points="113,-187.77 116.5,-197.77 120,-187.77 113,-187.77"/>
</a>
</g>
</g>
<!-- Node4 -->
<g id="Node000004" class="node">
<title>Node4</title>
<g id="a_Node000004"><a xlink:href="transmitter-normal_8cpp.html" target="_top" xlink:title="CHRONOS&#45;LoRa Transmitter program (Normal)">
<polygon fill="white" stroke="#666666" points="147,-19 0,-19 0,0 147,0 147,-19"/>
<text text-anchor="middle" x="73.5" y="-7" font-family="Helvetica,sans-Serif" font-size="10.00">src/transmitter&#45;normal.cpp</text>
</a>
</g>
</g>
<!-- Node3&#45;&gt;Node4 -->
<g id="edge3_Node000003_Node000004" class="edge">
<title>Node3&#45;&gt;Node4</title>
<g id="a_edge3_Node000003_Node000004"><a xlink:title=" ">
<path fill="none" stroke="#63b8ff" d="M104.03,-122.86C99.93,-114.56 95.62,-105.03 92.5,-96 83.05,-68.7 77.16,-34.82 74.75,-19.17"/>
<polygon fill="#63b8ff" stroke="#63b8ff" points="101,-124.62 108.67,-131.93 107.23,-121.43 101,-124.62"/>
</a>
</g>
</g>
<!-- Node5 -->
<g id="Node000005" class="node">
<title>Node5</title>
<g id="a_Node000005"><a xlink:href="PiHal_8h.html" target="_top" xlink:title=" ">
<polygon fill="white" stroke="#666666" points="219.5,-96 101.5,-96 101.5,-55 219.5,-55 219.5,-96"/>
<text text-anchor="start" x="109.5" y="-84" font-family="Helvetica,sans-Serif" font-size="10.00">thirdparty/RadioLib</text>
<text text-anchor="start" x="109.5" y="-73" font-family="Helvetica,sans-Serif" font-size="10.00">/include/RadioLib/hal</text>
<text text-anchor="middle" x="160.5" y="-62" font-family="Helvetica,sans-Serif" font-size="10.00">/RPi/PiHal.h</text>
</a>
</g>
</g>
<!-- Node3&#45;&gt;Node5 -->
<g id="edge4_Node000003_Node000005" class="edge">
<title>Node3&#45;&gt;Node5</title>
<g id="a_edge4_Node000003_Node000005"><a xlink:title=" ">
<path fill="none" stroke="#63b8ff" d="M130.87,-123.31C136.43,-114.52 142.74,-104.55 148.11,-96.07"/>
<polygon fill="#63b8ff" stroke="#63b8ff" points="127.8,-121.61 125.4,-131.94 133.71,-125.36 127.8,-121.61"/>
</a>
</g>
</g>
<!-- Node5&#45;&gt;Node4 -->
<g id="edge6_Node000005_Node000004" class="edge">
<title>Node5&#45;&gt;Node4</title>
<g id="a_edge6_Node000005_Node000004"><a xlink:title=" ">
<path fill="none" stroke="#63b8ff" d="M125.71,-48.9C111.41,-38.39 95.8,-26.9 85.41,-19.26"/>
<polygon fill="#63b8ff" stroke="#63b8ff" points="123.8,-51.84 133.92,-54.95 127.94,-46.21 123.8,-51.84"/>
</a>
</g>
</g>
<!-- Node6 -->
<g id="Node000006" class="node">
<title>Node6</title>
<g id="a_Node000006"><a xlink:href="receiver-normal_8cpp.html" target="_top" xlink:title="CHRONOS&#45;LoRa Receiver program (Normal)">
<polygon fill="white" stroke="#666666" points="297.5,-19 165.5,-19 165.5,0 297.5,0 297.5,-19"/>
<text text-anchor="middle" x="231.5" y="-7" font-family="Helvetica,sans-Serif" font-size="10.00">src/receiver&#45;normal.cpp</text>
</a>
</g>
</g>
<!-- Node5&#45;&gt;Node6 -->
<g id="edge5_Node000005_Node000006" class="edge">
<title>Node5&#45;&gt;Node6</title>
<g id="a_edge5_Node000005_Node000006"><a xlink:title=" ">
<path fill="none" stroke="#63b8ff" d="M189.88,-48.02C201.28,-37.74 213.54,-26.69 221.78,-19.26"/>
<polygon fill="#63b8ff" stroke="#63b8ff" points="187.27,-45.65 182.19,-54.95 191.96,-50.85 187.27,-45.65"/>
</a>
</g>
</g>
</g>
</svg>
