<?xml version="1.0" encoding="UTF-8" standalone="no"?>
<!DOCTYPE svg PUBLIC "-//W3C//DTD SVG 1.1//EN"
 "http://www.w3.org/Graphics/SVG/1.1/DTD/svg11.dtd">
<!-- Generated by graphviz version 2.43.0 (0)
 -->
<!-- Title: InitializeMagick Pages: 1 -->
<svg width="456pt" height="138pt"
 viewBox="0.00 0.00 456.00 138.00" xmlns="http://www.w3.org/2000/svg" xmlns:xlink="http://www.w3.org/1999/xlink">
<g id="graph0" class="graph" transform="scale(1 1) rotate(0) translate(4 134)">
<title>InitializeMagick</title>
<!-- Node1 -->
<g id="Node000001" class="node">
<title>Node1</title>
<g id="a_Node000001"><a xlink:title=" ">
<polygon fill="#999999" stroke="#666666" points="448,-74 354,-74 354,-55 448,-55 448,-74"/>
<text text-anchor="middle" x="401" y="-62" font-family="Helvetica,sans-Serif" font-size="10.00">InitializeMagick</text>
</a>
</g>
</g>
<!-- Node2 -->
<g id="Node000002" class="node">
<title>Node2</title>
<g id="a_Node000002"><a xlink:href="chronos_8cpp.html#a8c442ee2efdfad19f622ad860721ab3f" target="_top" xlink:title="Process the Image in GraphicsMagick context.">
<polygon fill="white" stroke="#666666" points="313.5,-130 179.5,-130 179.5,-111 313.5,-111 313.5,-130"/>
<text text-anchor="middle" x="246.5" y="-118" font-family="Helvetica,sans-Serif" font-size="10.00">chronos_process_image</text>
</a>
</g>
</g>
<!-- Node1&#45;&gt;Node2 -->
<g id="edge1_Node000001_Node000002" class="edge">
<title>Node1&#45;&gt;Node2</title>
<g id="a_edge1_Node000001_Node000002"><a xlink:title=" ">
<path fill="none" stroke="#63b8ff" d="M372.71,-78.69C357.01,-86.46 336.73,-95.83 318,-102.5 309.07,-105.68 299.33,-108.54 290.01,-110.99"/>
<polygon fill="#63b8ff" stroke="#63b8ff" points="374.48,-81.71 381.84,-74.09 371.34,-75.46 374.48,-81.71"/>
</a>
</g>
</g>
<!-- Node4 -->
<g id="Node000004" class="node">
<title>Node4</title>
<g id="a_Node000004"><a xlink:href="chronos_8cpp.html#ab6e29349c1d27559eca20345417eec1a" target="_top" xlink:title=" ">
<polygon fill="white" stroke="#666666" points="309,-93 184,-93 184,-74 309,-74 309,-93"/>
<text text-anchor="middle" x="246.5" y="-81" font-family="Helvetica,sans-Serif" font-size="10.00">chronos_resize_image</text>
</a>
</g>
</g>
<!-- Node1&#45;&gt;Node4 -->
<g id="edge3_Node000001_Node000004" class="edge">
<title>Node1&#45;&gt;Node4</title>
<g id="a_edge3_Node000001_Node000004"><a xlink:title=" ">
<path fill="none" stroke="#63b8ff" d="M343.67,-71.52C332.38,-72.93 320.46,-74.41 309,-75.84"/>
<polygon fill="#63b8ff" stroke="#63b8ff" points="344.34,-74.96 353.83,-70.25 343.48,-68.02 344.34,-74.96"/>
</a>
</g>
</g>
<!-- Node5 -->
<g id="Node000005" class="node">
<title>Node5</title>
<g id="a_Node000005"><a xlink:href="chronos_8cpp.html#a29a3494a090b272d667b2cbe3bae8203" target="_top" xlink:title="Convert an image&#39;s colorspace, without changing file format, from RGB to Grayscale.">
<polygon fill="white" stroke="#666666" points="318,-56 175,-56 175,-37 318,-37 318,-56"/>
<text text-anchor="middle" x="246.5" y="-44" font-family="Helvetica,sans-Serif" font-size="10.00">chronos_rgb_to_grayscale</text>
</a>
</g>
</g>
<!-- Node1&#45;&gt;Node5 -->
<g id="edge4_Node000001_Node000005" class="edge">
<title>Node1&#45;&gt;Node5</title>
<g id="a_edge4_Node000001_Node000005"><a xlink:title=" ">
<path fill="none" stroke="#63b8ff" d="M343.87,-57.87C335.54,-56.89 326.86,-55.87 318.28,-54.85"/>
<polygon fill="#63b8ff" stroke="#63b8ff" points="343.49,-61.35 353.83,-59.05 344.31,-54.4 343.49,-61.35"/>
</a>
</g>
</g>
<!-- Node6 -->
<g id="Node000006" class="node">
<title>Node6</title>
<g id="a_Node000006"><a xlink:href="chronos_8cpp.html#a0c3f0d6ab9edd97cb75278bf820c5de1" target="_top" xlink:title=" ">
<polygon fill="white" stroke="#666666" points="309,-19 184,-19 184,0 309,0 309,-19"/>
<text text-anchor="middle" x="246.5" y="-7" font-family="Helvetica,sans-Serif" font-size="10.00">chronos_rgb_to_ycocg</text>
</a>
</g>
</g>
<!-- Node1&#45;&gt;Node6 -->
<g id="edge5_Node000001_Node000006" class="edge">
<title>Node1&#45;&gt;Node6</title>
<g id="a_edge5_Node000001_Node000006"><a xlink:title=" ">
<path fill="none" stroke="#63b8ff" d="M371.35,-50.66C355.8,-43.46 336.1,-34.87 318,-28.5 308.08,-25.01 297.18,-21.78 286.98,-19.02"/>
<polygon fill="#63b8ff" stroke="#63b8ff" points="369.91,-53.85 380.45,-54.92 372.88,-47.51 369.91,-53.85"/>
</a>
</g>
</g>
<!-- Node3 -->
<g id="Node000003" class="node">
<title>Node3</title>
<g id="a_Node000003"><a xlink:href="chronos_8cpp.html#a27732e3f3736db194dd933a3f7f511ec" target="_top" xlink:title="Convert any GraphicsMagick supported image format to PPM image format.">
<polygon fill="white" stroke="#666666" points="139,-130 0,-130 0,-111 139,-111 139,-130"/>
<text text-anchor="middle" x="69.5" y="-118" font-family="Helvetica,sans-Serif" font-size="10.00">chronos_convert_to_ppm</text>
</a>
</g>
</g>
<!-- Node2&#45;&gt;Node3 -->
<g id="edge2_Node000002_Node000003" class="edge">
<title>Node2&#45;&gt;Node3</title>
<g id="a_edge2_Node000002_Node000003"><a xlink:title=" ">
<path fill="none" stroke="#63b8ff" d="M169.04,-120.5C159.08,-120.5 148.91,-120.5 139.08,-120.5"/>
<polygon fill="#63b8ff" stroke="#63b8ff" points="169.34,-124 179.34,-120.5 169.34,-117 169.34,-124"/>
</a>
</g>
</g>
</g>
</svg>
