<?xml version="1.0" encoding="UTF-8" standalone="no"?>
<!DOCTYPE svg PUBLIC "-//W3C//DTD SVG 1.1//EN"
 "http://www.w3.org/Graphics/SVG/1.1/DTD/svg11.dtd">
<!-- Generated by graphviz version 2.43.0 (0)
 -->
<!-- Title: thirdparty/RadioLib/include/RadioLib/Module.h Pages: 1 -->
<svg width="405pt" height="203pt"
 viewBox="0.00 0.00 405.00 203.00" xmlns="http://www.w3.org/2000/svg" xmlns:xlink="http://www.w3.org/1999/xlink">
<g id="graph0" class="graph" transform="scale(1 1) rotate(0) translate(4 199)">
<title>thirdparty/RadioLib/include/RadioLib/Module.h</title>
<!-- Node1 -->
<g id="Node000001" class="node">
<title>Node1</title>
<g id="a_Node000001"><a xlink:title=" ">
<polygon fill="#999999" stroke="#666666" points="287.5,-195 139.5,-195 139.5,-165 287.5,-165 287.5,-195"/>
<text text-anchor="start" x="147.5" y="-183" font-family="Helvetica,sans-Serif" font-size="10.00">thirdparty/RadioLib</text>
<text text-anchor="middle" x="213.5" y="-172" font-family="Helvetica,sans-Serif" font-size="10.00">/include/RadioLib/Module.h</text>
</a>
</g>
</g>
<!-- Node2 -->
<g id="Node000002" class="node">
<title>Node2</title>
<g id="a_Node000002"><a xlink:href="TypeDef_8h.html" target="_top" xlink:title=" ">
<polygon fill="white" stroke="#666666" points="174,-129 109,-129 109,-110 174,-110 174,-129"/>
<text text-anchor="middle" x="141.5" y="-117" font-family="Helvetica,sans-Serif" font-size="10.00">TypeDef.h</text>
</a>
</g>
</g>
<!-- Node1&#45;&gt;Node2 -->
<g id="edge1_Node000001_Node000002" class="edge">
<title>Node1&#45;&gt;Node2</title>
<g id="a_edge1_Node000001_Node000002"><a xlink:title=" ">
<path fill="none" stroke="#63b8ff" d="M196.07,-164.84C185.19,-156 171.2,-144.63 160.11,-135.62"/>
<polygon fill="#63b8ff" stroke="#63b8ff" points="162.26,-132.86 152.29,-129.27 157.84,-138.29 162.26,-132.86"/>
</a>
</g>
</g>
<!-- Node7 -->
<g id="Node000007" class="node">
<title>Node7</title>
<g id="a_Node000007"><a xlink:href="Hal_8h.html" target="_top" xlink:title=" ">
<polygon fill="white" stroke="#666666" points="234.5,-129 192.5,-129 192.5,-110 234.5,-110 234.5,-129"/>
<text text-anchor="middle" x="213.5" y="-117" font-family="Helvetica,sans-Serif" font-size="10.00">Hal.h</text>
</a>
</g>
</g>
<!-- Node1&#45;&gt;Node7 -->
<g id="edge7_Node000001_Node000007" class="edge">
<title>Node1&#45;&gt;Node7</title>
<g id="a_edge7_Node000001_Node000007"><a xlink:title=" ">
<path fill="none" stroke="#63b8ff" d="M213.5,-164.84C213.5,-157.21 213.5,-147.7 213.5,-139.45"/>
<polygon fill="#63b8ff" stroke="#63b8ff" points="217,-139.27 213.5,-129.27 210,-139.27 217,-139.27"/>
</a>
</g>
</g>
<!-- Node9 -->
<g id="Node000009" class="node">
<title>Node9</title>
<g id="a_Node000009"><a xlink:href="Utils_8h.html" target="_top" xlink:title=" ">
<polygon fill="white" stroke="#666666" points="337.5,-129 265.5,-129 265.5,-110 337.5,-110 337.5,-129"/>
<text text-anchor="middle" x="301.5" y="-117" font-family="Helvetica,sans-Serif" font-size="10.00">utils/Utils.h</text>
</a>
</g>
</g>
<!-- Node1&#45;&gt;Node9 -->
<g id="edge11_Node000001_Node000009" class="edge">
<title>Node1&#45;&gt;Node9</title>
<g id="a_edge11_Node000001_Node000009"><a xlink:title=" ">
<path fill="none" stroke="#63b8ff" d="M234.8,-164.84C248.57,-155.68 266.43,-143.82 280.2,-134.66"/>
<polygon fill="#63b8ff" stroke="#63b8ff" points="282.18,-137.55 288.57,-129.09 278.31,-131.72 282.18,-137.55"/>
</a>
</g>
</g>
<!-- Node3 -->
<g id="Node000003" class="node">
<title>Node3</title>
<g id="a_Node000003"><a xlink:href="BuildOptUser_8h.html" target="_top" xlink:title=" ">
<polygon fill="white" stroke="#666666" points="89,-74 0,-74 0,-55 89,-55 89,-74"/>
<text text-anchor="middle" x="44.5" y="-62" font-family="Helvetica,sans-Serif" font-size="10.00">BuildOptUser.h</text>
</a>
</g>
</g>
<!-- Node2&#45;&gt;Node3 -->
<g id="edge2_Node000002_Node000003" class="edge">
<title>Node2&#45;&gt;Node3</title>
<g id="a_edge2_Node000002_Node000003"><a xlink:title=" ">
<path fill="none" stroke="#63b8ff" d="M125.92,-109.98C110.73,-101.69 87.4,-88.94 69.6,-79.22"/>
<polygon fill="#63b8ff" stroke="#63b8ff" points="70.82,-75.89 60.37,-74.17 67.47,-82.04 70.82,-75.89"/>
</a>
</g>
</g>
<!-- Node4 -->
<g id="Node000004" class="node">
<title>Node4</title>
<g id="a_Node000004"><a xlink:href="BuildOpt_8h.html" target="_top" xlink:title=" ">
<polygon fill="white" stroke="#666666" points="175.5,-74 107.5,-74 107.5,-55 175.5,-55 175.5,-74"/>
<text text-anchor="middle" x="141.5" y="-62" font-family="Helvetica,sans-Serif" font-size="10.00">BuildOpt.h</text>
</a>
</g>
</g>
<!-- Node2&#45;&gt;Node4 -->
<g id="edge3_Node000002_Node000004" class="edge">
<title>Node2&#45;&gt;Node4</title>
<g id="a_edge3_Node000002_Node000004"><a xlink:title=" ">
<path fill="none" stroke="#63b8ff" d="M136.33,-109.75C134.84,-102.8 134.4,-92.85 135.02,-84.13"/>
<polygon fill="#63b8ff" stroke="#63b8ff" points="138.51,-84.47 136.37,-74.09 131.57,-83.53 138.51,-84.47"/>
</a>
</g>
</g>
<!-- Node4&#45;&gt;Node2 -->
<g id="edge4_Node000004_Node000002" class="edge">
<title>Node4&#45;&gt;Node2</title>
<g id="a_edge4_Node000004_Node000002"><a xlink:title=" ">
<path fill="none" stroke="#63b8ff" d="M146.63,-74.09C148.14,-80.99 148.59,-90.93 147.99,-99.66"/>
<polygon fill="#63b8ff" stroke="#63b8ff" points="144.5,-99.38 146.67,-109.75 151.44,-100.29 144.5,-99.38"/>
</a>
</g>
</g>
<!-- Node5 -->
<g id="Node000005" class="node">
<title>Node5</title>
<g id="a_Node000005"><a xlink:title=" ">
<polygon fill="#e0e0e0" stroke="#999999" points="162.5,-19 112.5,-19 112.5,0 162.5,0 162.5,-19"/>
<text text-anchor="middle" x="137.5" y="-7" font-family="Helvetica,sans-Serif" font-size="10.00">stdio.h</text>
</a>
</g>
</g>
<!-- Node4&#45;&gt;Node5 -->
<g id="edge5_Node000004_Node000005" class="edge">
<title>Node4&#45;&gt;Node5</title>
<g id="a_edge5_Node000004_Node000005"><a xlink:title=" ">
<path fill="none" stroke="#63b8ff" d="M140.84,-54.75C140.32,-47.8 139.56,-37.85 138.91,-29.13"/>
<polygon fill="#63b8ff" stroke="#63b8ff" points="142.39,-28.8 138.15,-19.09 135.41,-29.32 142.39,-28.8"/>
</a>
</g>
</g>
<!-- Node6 -->
<g id="Node000006" class="node">
<title>Node6</title>
<g id="a_Node000006"><a xlink:title=" ">
<polygon fill="#e0e0e0" stroke="#999999" points="234,-19 181,-19 181,0 234,0 234,-19"/>
<text text-anchor="middle" x="207.5" y="-7" font-family="Helvetica,sans-Serif" font-size="10.00">stdint.h</text>
</a>
</g>
</g>
<!-- Node4&#45;&gt;Node6 -->
<g id="edge6_Node000004_Node000006" class="edge">
<title>Node4&#45;&gt;Node6</title>
<g id="a_edge6_Node000004_Node000006"><a xlink:title=" ">
<path fill="none" stroke="#63b8ff" d="M152.1,-54.98C161.96,-47.07 176.85,-35.11 188.72,-25.58"/>
<polygon fill="#63b8ff" stroke="#63b8ff" points="191.1,-28.16 196.7,-19.17 186.71,-22.7 191.1,-28.16"/>
</a>
</g>
</g>
<!-- Node7&#45;&gt;Node4 -->
<g id="edge10_Node000007_Node000004" class="edge">
<title>Node7&#45;&gt;Node4</title>
<g id="a_edge10_Node000007_Node000004"><a xlink:title=" ">
<path fill="none" stroke="#63b8ff" d="M201.93,-109.98C191.08,-102 174.62,-89.88 161.62,-80.31"/>
<polygon fill="#63b8ff" stroke="#63b8ff" points="163.41,-77.28 153.28,-74.17 159.26,-82.92 163.41,-77.28"/>
</a>
</g>
</g>
<!-- Node7&#45;&gt;Node6 -->
<g id="edge8_Node000007_Node000006" class="edge">
<title>Node7&#45;&gt;Node6</title>
<g id="a_edge8_Node000007_Node000006"><a xlink:title=" ">
<path fill="none" stroke="#63b8ff" d="M213.01,-109.66C212.04,-92.17 209.85,-52.8 208.54,-29.27"/>
<polygon fill="#63b8ff" stroke="#63b8ff" points="212.03,-28.95 207.98,-19.16 205.04,-29.34 212.03,-28.95"/>
</a>
</g>
</g>
<!-- Node8 -->
<g id="Node000008" class="node">
<title>Node8</title>
<g id="a_Node000008"><a xlink:title=" ">
<polygon fill="#e0e0e0" stroke="#999999" points="287.5,-74 231.5,-74 231.5,-55 287.5,-55 287.5,-74"/>
<text text-anchor="middle" x="259.5" y="-62" font-family="Helvetica,sans-Serif" font-size="10.00">stddef.h</text>
</a>
</g>
</g>
<!-- Node7&#45;&gt;Node8 -->
<g id="edge9_Node000007_Node000008" class="edge">
<title>Node7&#45;&gt;Node8</title>
<g id="a_edge9_Node000007_Node000008"><a xlink:title=" ">
<path fill="none" stroke="#63b8ff" d="M221.1,-109.75C227.66,-102.18 237.32,-91.05 245.31,-81.84"/>
<polygon fill="#63b8ff" stroke="#63b8ff" points="248.13,-83.94 252.05,-74.09 242.85,-79.35 248.13,-83.94"/>
</a>
</g>
</g>
<!-- Node9&#45;&gt;Node4 -->
<g id="edge14_Node000009_Node000004" class="edge">
<title>Node9&#45;&gt;Node4</title>
<g id="a_edge14_Node000009_Node000004"><a xlink:title=" ">
<path fill="none" stroke="#63b8ff" d="M275.79,-109.98C249.05,-101.13 206.97,-87.19 177.05,-77.28"/>
<polygon fill="#63b8ff" stroke="#63b8ff" points="178,-73.9 167.41,-74.08 175.8,-80.55 178,-73.9"/>
</a>
</g>
</g>
<!-- Node9&#45;&gt;Node6 -->
<g id="edge12_Node000009_Node000006" class="edge">
<title>Node9&#45;&gt;Node6</title>
<g id="a_edge12_Node000009_Node000006"><a xlink:title=" ">
<path fill="none" stroke="#63b8ff" d="M303.31,-109.83C305.53,-96.74 307.75,-71.69 296.5,-55 284.34,-36.94 262.58,-25.88 243.62,-19.3"/>
<polygon fill="#63b8ff" stroke="#63b8ff" points="244.62,-15.95 234.03,-16.26 242.5,-22.62 244.62,-15.95"/>
</a>
</g>
</g>
<!-- Node10 -->
<g id="Node000010" class="node">
<title>Node10</title>
<g id="a_Node000010"><a xlink:title=" ">
<polygon fill="#e0e0e0" stroke="#999999" points="397,-74 344,-74 344,-55 397,-55 397,-74"/>
<text text-anchor="middle" x="370.5" y="-62" font-family="Helvetica,sans-Serif" font-size="10.00">stdlib.h</text>
</a>
</g>
</g>
<!-- Node9&#45;&gt;Node10 -->
<g id="edge13_Node000009_Node000010" class="edge">
<title>Node9&#45;&gt;Node10</title>
<g id="a_edge13_Node000009_Node000010"><a xlink:title=" ">
<path fill="none" stroke="#63b8ff" d="M312.59,-109.98C322.99,-102 338.76,-89.88 351.22,-80.31"/>
<polygon fill="#63b8ff" stroke="#63b8ff" points="353.41,-83.04 359.21,-74.17 349.15,-77.49 353.41,-83.04"/>
</a>
</g>
</g>
</g>
</svg>
