<?xml version="1.0" encoding="UTF-8" standalone="no"?>
<!DOCTYPE svg PUBLIC "-//W3C//DTD SVG 1.1//EN"
 "http://www.w3.org/Graphics/SVG/1.1/DTD/svg11.dtd">
<!-- Generated by graphviz version 2.43.0 (0)
 -->
<!-- Title: thirdparty/RadioLib/include/RadioLib/protocols/Morse/Morse.h Pages: 1 -->
<svg width="425pt" height="390pt"
 viewBox="0.00 0.00 425.00 390.00" xmlns="http://www.w3.org/2000/svg" xmlns:xlink="http://www.w3.org/1999/xlink">
<g id="graph0" class="graph" transform="scale(1 1) rotate(0) translate(4 386)">
<title>thirdparty/RadioLib/include/RadioLib/protocols/Morse/Morse.h</title>
<!-- Node1 -->
<g id="Node000001" class="node">
<title>Node1</title>
<g id="a_Node000001"><a xlink:title=" ">
<polygon fill="#999999" stroke="#666666" points="254.5,-382 106.5,-382 106.5,-341 254.5,-341 254.5,-382"/>
<text text-anchor="start" x="114.5" y="-370" font-family="Helvetica,sans-Serif" font-size="10.00">thirdparty/RadioLib</text>
<text text-anchor="start" x="114.5" y="-359" font-family="Helvetica,sans-Serif" font-size="10.00">/include/RadioLib/protocols</text>
<text text-anchor="middle" x="180.5" y="-348" font-family="Helvetica,sans-Serif" font-size="10.00">/Morse/Morse.h</text>
</a>
</g>
</g>
<!-- Node2 -->
<g id="Node000002" class="node">
<title>Node2</title>
<g id="a_Node000002"><a xlink:href="TypeDef_8h.html" target="_top" xlink:title=" ">
<polygon fill="white" stroke="#666666" points="183,-129 100,-129 100,-110 183,-110 183,-129"/>
<text text-anchor="middle" x="141.5" y="-117" font-family="Helvetica,sans-Serif" font-size="10.00">../../TypeDef.h</text>
</a>
</g>
</g>
<!-- Node1&#45;&gt;Node2 -->
<g id="edge1_Node000001_Node000002" class="edge">
<title>Node1&#45;&gt;Node2</title>
<g id="a_edge1_Node000001_Node000002"><a xlink:title=" ">
<path fill="none" stroke="#63b8ff" d="M162.7,-340.7C145.26,-319.85 119.84,-285.23 109.5,-250 105.61,-236.74 110.08,-172.4 112.5,-165 115.75,-155.07 121.81,-145.2 127.55,-137.3"/>
<polygon fill="#63b8ff" stroke="#63b8ff" points="130.38,-139.36 133.73,-129.31 124.84,-135.08 130.38,-139.36"/>
</a>
</g>
</g>
<!-- Node7 -->
<g id="Node000007" class="node">
<title>Node7</title>
<g id="a_Node000007"><a xlink:href="PhysicalLayer_8h.html" target="_top" xlink:title=" ">
<polygon fill="white" stroke="#666666" points="269,-250 132,-250 132,-220 269,-220 269,-250"/>
<text text-anchor="start" x="140" y="-238" font-family="Helvetica,sans-Serif" font-size="10.00">../PhysicalLayer/Physical</text>
<text text-anchor="middle" x="200.5" y="-227" font-family="Helvetica,sans-Serif" font-size="10.00">Layer.h</text>
</a>
</g>
</g>
<!-- Node1&#45;&gt;Node7 -->
<g id="edge7_Node000001_Node000007" class="edge">
<title>Node1&#45;&gt;Node7</title>
<g id="a_edge7_Node000001_Node000007"><a xlink:title=" ">
<path fill="none" stroke="#63b8ff" d="M170.29,-340.93C163.73,-325.74 157.48,-304.27 163.5,-286 166.81,-275.95 173.01,-266.27 179.4,-258.15"/>
<polygon fill="#63b8ff" stroke="#63b8ff" points="182.24,-260.2 186.01,-250.3 176.89,-255.69 182.24,-260.2"/>
</a>
</g>
</g>
<!-- Node13 -->
<g id="Node000013" class="node">
<title>Node13</title>
<g id="a_Node000013"><a xlink:href="AFSK_8h.html" target="_top" xlink:title=" ">
<polygon fill="white" stroke="#666666" points="260,-305 173,-305 173,-286 260,-286 260,-305"/>
<text text-anchor="middle" x="216.5" y="-293" font-family="Helvetica,sans-Serif" font-size="10.00">../AFSK/AFSK.h</text>
</a>
</g>
</g>
<!-- Node1&#45;&gt;Node13 -->
<g id="edge19_Node000001_Node000013" class="edge">
<title>Node1&#45;&gt;Node13</title>
<g id="a_edge19_Node000001_Node000013"><a xlink:title=" ">
<path fill="none" stroke="#63b8ff" d="M191.5,-340.95C196.31,-332.39 201.92,-322.42 206.6,-314.1"/>
<polygon fill="#63b8ff" stroke="#63b8ff" points="209.72,-315.69 211.57,-305.26 203.62,-312.26 209.72,-315.69"/>
</a>
</g>
</g>
<!-- Node14 -->
<g id="Node000014" class="node">
<title>Node14</title>
<g id="a_Node000014"><a xlink:href="Print_8h.html" target="_top" xlink:title=" ">
<polygon fill="white" stroke="#666666" points="377,-305 294,-305 294,-286 377,-286 377,-305"/>
<text text-anchor="middle" x="335.5" y="-293" font-family="Helvetica,sans-Serif" font-size="10.00">../Print/Print.h</text>
</a>
</g>
</g>
<!-- Node1&#45;&gt;Node14 -->
<g id="edge23_Node000001_Node000014" class="edge">
<title>Node1&#45;&gt;Node14</title>
<g id="a_edge23_Node000001_Node000014"><a xlink:title=" ">
<path fill="none" stroke="#63b8ff" d="M227.85,-340.95C253.02,-330.56 283.21,-318.09 305.21,-309.01"/>
<polygon fill="#63b8ff" stroke="#63b8ff" points="306.78,-312.14 314.69,-305.09 304.11,-305.67 306.78,-312.14"/>
</a>
</g>
</g>
<!-- Node3 -->
<g id="Node000003" class="node">
<title>Node3</title>
<g id="a_Node000003"><a xlink:href="BuildOptUser_8h.html" target="_top" xlink:title=" ">
<polygon fill="white" stroke="#666666" points="89,-74 0,-74 0,-55 89,-55 89,-74"/>
<text text-anchor="middle" x="44.5" y="-62" font-family="Helvetica,sans-Serif" font-size="10.00">BuildOptUser.h</text>
</a>
</g>
</g>
<!-- Node2&#45;&gt;Node3 -->
<g id="edge2_Node000002_Node000003" class="edge">
<title>Node2&#45;&gt;Node3</title>
<g id="a_edge2_Node000002_Node000003"><a xlink:title=" ">
<path fill="none" stroke="#63b8ff" d="M125.92,-109.98C110.73,-101.69 87.4,-88.94 69.6,-79.22"/>
<polygon fill="#63b8ff" stroke="#63b8ff" points="70.82,-75.89 60.37,-74.17 67.47,-82.04 70.82,-75.89"/>
</a>
</g>
</g>
<!-- Node4 -->
<g id="Node000004" class="node">
<title>Node4</title>
<g id="a_Node000004"><a xlink:href="BuildOpt_8h.html" target="_top" xlink:title=" ">
<polygon fill="white" stroke="#666666" points="175.5,-74 107.5,-74 107.5,-55 175.5,-55 175.5,-74"/>
<text text-anchor="middle" x="141.5" y="-62" font-family="Helvetica,sans-Serif" font-size="10.00">BuildOpt.h</text>
</a>
</g>
</g>
<!-- Node2&#45;&gt;Node4 -->
<g id="edge3_Node000002_Node000004" class="edge">
<title>Node2&#45;&gt;Node4</title>
<g id="a_edge3_Node000002_Node000004"><a xlink:title=" ">
<path fill="none" stroke="#63b8ff" d="M136.33,-109.75C134.84,-102.8 134.4,-92.85 135.02,-84.13"/>
<polygon fill="#63b8ff" stroke="#63b8ff" points="138.51,-84.47 136.37,-74.09 131.57,-83.53 138.51,-84.47"/>
</a>
</g>
</g>
<!-- Node4&#45;&gt;Node2 -->
<g id="edge4_Node000004_Node000002" class="edge">
<title>Node4&#45;&gt;Node2</title>
<g id="a_edge4_Node000004_Node000002"><a xlink:title=" ">
<path fill="none" stroke="#63b8ff" d="M146.63,-74.09C148.14,-80.99 148.59,-90.93 147.99,-99.66"/>
<polygon fill="#63b8ff" stroke="#63b8ff" points="144.5,-99.38 146.67,-109.75 151.44,-100.29 144.5,-99.38"/>
</a>
</g>
</g>
<!-- Node5 -->
<g id="Node000005" class="node">
<title>Node5</title>
<g id="a_Node000005"><a xlink:title=" ">
<polygon fill="#e0e0e0" stroke="#999999" points="162.5,-19 112.5,-19 112.5,0 162.5,0 162.5,-19"/>
<text text-anchor="middle" x="137.5" y="-7" font-family="Helvetica,sans-Serif" font-size="10.00">stdio.h</text>
</a>
</g>
</g>
<!-- Node4&#45;&gt;Node5 -->
<g id="edge5_Node000004_Node000005" class="edge">
<title>Node4&#45;&gt;Node5</title>
<g id="a_edge5_Node000004_Node000005"><a xlink:title=" ">
<path fill="none" stroke="#63b8ff" d="M140.84,-54.75C140.32,-47.8 139.56,-37.85 138.91,-29.13"/>
<polygon fill="#63b8ff" stroke="#63b8ff" points="142.39,-28.8 138.15,-19.09 135.41,-29.32 142.39,-28.8"/>
</a>
</g>
</g>
<!-- Node6 -->
<g id="Node000006" class="node">
<title>Node6</title>
<g id="a_Node000006"><a xlink:title=" ">
<polygon fill="#e0e0e0" stroke="#999999" points="234,-19 181,-19 181,0 234,0 234,-19"/>
<text text-anchor="middle" x="207.5" y="-7" font-family="Helvetica,sans-Serif" font-size="10.00">stdint.h</text>
</a>
</g>
</g>
<!-- Node4&#45;&gt;Node6 -->
<g id="edge6_Node000004_Node000006" class="edge">
<title>Node4&#45;&gt;Node6</title>
<g id="a_edge6_Node000004_Node000006"><a xlink:title=" ">
<path fill="none" stroke="#63b8ff" d="M152.1,-54.98C161.96,-47.07 176.85,-35.11 188.72,-25.58"/>
<polygon fill="#63b8ff" stroke="#63b8ff" points="191.1,-28.16 196.7,-19.17 186.71,-22.7 191.1,-28.16"/>
</a>
</g>
</g>
<!-- Node7&#45;&gt;Node2 -->
<g id="edge8_Node000007_Node000002" class="edge">
<title>Node7&#45;&gt;Node2</title>
<g id="a_edge8_Node000007_Node000002"><a xlink:title=" ">
<path fill="none" stroke="#63b8ff" d="M186.62,-219.75C178.05,-210.27 167.41,-197.19 160.5,-184 153.06,-169.81 148.1,-152.27 145.11,-139.23"/>
<polygon fill="#63b8ff" stroke="#63b8ff" points="148.47,-138.18 142.99,-129.12 141.62,-139.62 148.47,-138.18"/>
</a>
</g>
</g>
<!-- Node8 -->
<g id="Node000008" class="node">
<title>Node8</title>
<g id="a_Node000008"><a xlink:href="Module_8h.html" target="_top" xlink:title=" ">
<polygon fill="white" stroke="#666666" points="343.5,-184 263.5,-184 263.5,-165 343.5,-165 343.5,-184"/>
<text text-anchor="middle" x="303.5" y="-172" font-family="Helvetica,sans-Serif" font-size="10.00">../../Module.h</text>
</a>
</g>
</g>
<!-- Node7&#45;&gt;Node8 -->
<g id="edge9_Node000007_Node000008" class="edge">
<title>Node7&#45;&gt;Node8</title>
<g id="a_edge9_Node000007_Node000008"><a xlink:title=" ">
<path fill="none" stroke="#63b8ff" d="M225.17,-219.99C241.59,-210.66 263.05,-198.47 279.36,-189.21"/>
<polygon fill="#63b8ff" stroke="#63b8ff" points="281.32,-192.12 288.29,-184.14 277.87,-186.03 281.32,-192.12"/>
</a>
</g>
</g>
<!-- Node8&#45;&gt;Node2 -->
<g id="edge10_Node000008_Node000002" class="edge">
<title>Node8&#45;&gt;Node2</title>
<g id="a_edge10_Node000008_Node000002"><a xlink:title=" ">
<path fill="none" stroke="#63b8ff" d="M277.47,-164.98C250.39,-156.13 207.79,-142.19 177.49,-132.28"/>
<polygon fill="#63b8ff" stroke="#63b8ff" points="178.32,-128.87 167.73,-129.08 176.15,-135.52 178.32,-128.87"/>
</a>
</g>
</g>
<!-- Node9 -->
<g id="Node000009" class="node">
<title>Node9</title>
<g id="a_Node000009"><a xlink:href="Hal_8h.html" target="_top" xlink:title=" ">
<polygon fill="white" stroke="#666666" points="246.5,-129 204.5,-129 204.5,-110 246.5,-110 246.5,-129"/>
<text text-anchor="middle" x="225.5" y="-117" font-family="Helvetica,sans-Serif" font-size="10.00">Hal.h</text>
</a>
</g>
</g>
<!-- Node8&#45;&gt;Node9 -->
<g id="edge11_Node000008_Node000009" class="edge">
<title>Node8&#45;&gt;Node9</title>
<g id="a_edge11_Node000008_Node000009"><a xlink:title=" ">
<path fill="none" stroke="#63b8ff" d="M290.97,-164.98C279.1,-156.92 261.04,-144.65 246.89,-135.03"/>
<polygon fill="#63b8ff" stroke="#63b8ff" points="248.5,-131.9 238.26,-129.17 244.56,-137.69 248.5,-131.9"/>
</a>
</g>
</g>
<!-- Node11 -->
<g id="Node000011" class="node">
<title>Node11</title>
<g id="a_Node000011"><a xlink:href="Utils_8h.html" target="_top" xlink:title=" ">
<polygon fill="white" stroke="#666666" points="345.5,-129 273.5,-129 273.5,-110 345.5,-110 345.5,-129"/>
<text text-anchor="middle" x="309.5" y="-117" font-family="Helvetica,sans-Serif" font-size="10.00">utils/Utils.h</text>
</a>
</g>
</g>
<!-- Node8&#45;&gt;Node11 -->
<g id="edge15_Node000008_Node000011" class="edge">
<title>Node8&#45;&gt;Node11</title>
<g id="a_edge15_Node000008_Node000011"><a xlink:title=" ">
<path fill="none" stroke="#63b8ff" d="M304.49,-164.75C305.28,-157.8 306.4,-147.85 307.39,-139.13"/>
<polygon fill="#63b8ff" stroke="#63b8ff" points="310.88,-139.42 308.53,-129.09 303.92,-138.63 310.88,-139.42"/>
</a>
</g>
</g>
<!-- Node9&#45;&gt;Node4 -->
<g id="edge14_Node000009_Node000004" class="edge">
<title>Node9&#45;&gt;Node4</title>
<g id="a_edge14_Node000009_Node000004"><a xlink:title=" ">
<path fill="none" stroke="#63b8ff" d="M212,-109.98C199.1,-101.84 179.4,-89.41 164.1,-79.76"/>
<polygon fill="#63b8ff" stroke="#63b8ff" points="165.57,-76.55 155.24,-74.17 161.83,-82.47 165.57,-76.55"/>
</a>
</g>
</g>
<!-- Node9&#45;&gt;Node6 -->
<g id="edge12_Node000009_Node000006" class="edge">
<title>Node9&#45;&gt;Node6</title>
<g id="a_edge12_Node000009_Node000006"><a xlink:title=" ">
<path fill="none" stroke="#63b8ff" d="M224.03,-109.66C221.11,-92.17 214.55,-52.8 210.63,-29.27"/>
<polygon fill="#63b8ff" stroke="#63b8ff" points="214.04,-28.45 208.94,-19.16 207.13,-29.6 214.04,-28.45"/>
</a>
</g>
</g>
<!-- Node10 -->
<g id="Node000010" class="node">
<title>Node10</title>
<g id="a_Node000010"><a xlink:title=" ">
<polygon fill="#e0e0e0" stroke="#999999" points="287.5,-74 231.5,-74 231.5,-55 287.5,-55 287.5,-74"/>
<text text-anchor="middle" x="259.5" y="-62" font-family="Helvetica,sans-Serif" font-size="10.00">stddef.h</text>
</a>
</g>
</g>
<!-- Node9&#45;&gt;Node10 -->
<g id="edge13_Node000009_Node000010" class="edge">
<title>Node9&#45;&gt;Node10</title>
<g id="a_edge13_Node000009_Node000010"><a xlink:title=" ">
<path fill="none" stroke="#63b8ff" d="M231.11,-109.75C235.82,-102.42 242.67,-91.73 248.47,-82.7"/>
<polygon fill="#63b8ff" stroke="#63b8ff" points="251.54,-84.4 253.99,-74.09 245.64,-80.62 251.54,-84.4"/>
</a>
</g>
</g>
<!-- Node11&#45;&gt;Node4 -->
<g id="edge18_Node000011_Node000004" class="edge">
<title>Node11&#45;&gt;Node4</title>
<g id="a_edge18_Node000011_Node000004"><a xlink:title=" ">
<path fill="none" stroke="#63b8ff" d="M282.51,-109.98C254.3,-101.09 209.86,-87.07 178.42,-77.15"/>
<polygon fill="#63b8ff" stroke="#63b8ff" points="179.29,-73.75 168.7,-74.08 177.19,-80.43 179.29,-73.75"/>
</a>
</g>
</g>
<!-- Node11&#45;&gt;Node6 -->
<g id="edge16_Node000011_Node000006" class="edge">
<title>Node11&#45;&gt;Node6</title>
<g id="a_edge16_Node000011_Node000006"><a xlink:title=" ">
<path fill="none" stroke="#63b8ff" d="M309.99,-109.72C310.28,-96.49 308.97,-71.25 296.5,-55 283.48,-38.04 262.25,-27.08 243.79,-20.28"/>
<polygon fill="#63b8ff" stroke="#63b8ff" points="244.76,-16.91 234.17,-17 242.51,-23.54 244.76,-16.91"/>
</a>
</g>
</g>
<!-- Node12 -->
<g id="Node000012" class="node">
<title>Node12</title>
<g id="a_Node000012"><a xlink:title=" ">
<polygon fill="#e0e0e0" stroke="#999999" points="397,-74 344,-74 344,-55 397,-55 397,-74"/>
<text text-anchor="middle" x="370.5" y="-62" font-family="Helvetica,sans-Serif" font-size="10.00">stdlib.h</text>
</a>
</g>
</g>
<!-- Node11&#45;&gt;Node12 -->
<g id="edge17_Node000011_Node000012" class="edge">
<title>Node11&#45;&gt;Node12</title>
<g id="a_edge17_Node000011_Node000012"><a xlink:title=" ">
<path fill="none" stroke="#63b8ff" d="M319.3,-109.98C328.32,-102.15 341.91,-90.34 352.82,-80.86"/>
<polygon fill="#63b8ff" stroke="#63b8ff" points="355.27,-83.37 360.52,-74.17 350.68,-78.09 355.27,-83.37"/>
</a>
</g>
</g>
<!-- Node13&#45;&gt;Node2 -->
<g id="edge20_Node000013_Node000002" class="edge">
<title>Node13&#45;&gt;Node2</title>
<g id="a_edge20_Node000013_Node000002"><a xlink:title=" ">
<path fill="none" stroke="#63b8ff" d="M175.88,-285.99C156.18,-279.59 134.28,-268.61 122.5,-250 100.51,-215.25 119.1,-164.91 131.89,-138.39"/>
<polygon fill="#63b8ff" stroke="#63b8ff" points="135.16,-139.69 136.57,-129.18 128.92,-136.52 135.16,-139.69"/>
</a>
</g>
</g>
<!-- Node13&#45;&gt;Node7 -->
<g id="edge22_Node000013_Node000007" class="edge">
<title>Node13&#45;&gt;Node7</title>
<g id="a_edge22_Node000013_Node000007"><a xlink:title=" ">
<path fill="none" stroke="#63b8ff" d="M214.14,-285.87C212.27,-279.03 209.56,-269.14 207.06,-259.97"/>
<polygon fill="#63b8ff" stroke="#63b8ff" points="210.37,-258.84 204.36,-250.11 203.62,-260.68 210.37,-258.84"/>
</a>
</g>
</g>
<!-- Node13&#45;&gt;Node8 -->
<g id="edge21_Node000013_Node000008" class="edge">
<title>Node13&#45;&gt;Node8</title>
<g id="a_edge21_Node000013_Node000008"><a xlink:title=" ">
<path fill="none" stroke="#63b8ff" d="M233.46,-285.9C247.11,-278.19 265.86,-265.69 277.5,-250 289.85,-233.35 296.68,-210.37 300.2,-194.34"/>
<polygon fill="#63b8ff" stroke="#63b8ff" points="303.72,-194.59 302.22,-184.1 296.86,-193.24 303.72,-194.59"/>
</a>
</g>
</g>
<!-- Node15 -->
<g id="Node000015" class="node">
<title>Node15</title>
<g id="a_Node000015"><a xlink:title=" ">
<polygon fill="#e0e0e0" stroke="#999999" points="417,-244.5 364,-244.5 364,-225.5 417,-225.5 417,-244.5"/>
<text text-anchor="middle" x="390.5" y="-232.5" font-family="Helvetica,sans-Serif" font-size="10.00">string.h</text>
</a>
</g>
</g>
<!-- Node14&#45;&gt;Node15 -->
<g id="edge24_Node000014_Node000015" class="edge">
<title>Node14&#45;&gt;Node15</title>
<g id="a_edge24_Node000014_Node000015"><a xlink:title=" ">
<path fill="none" stroke="#63b8ff" d="M343.62,-285.87C351.9,-277.05 364.97,-263.16 375.2,-252.27"/>
<polygon fill="#63b8ff" stroke="#63b8ff" points="378.05,-254.35 382.35,-244.67 372.95,-249.56 378.05,-254.35"/>
</a>
</g>
</g>
<!-- Node16 -->
<g id="Node000016" class="node">
<title>Node16</title>
<g id="a_Node000016"><a xlink:href="ITA2String_8h.html" target="_top" xlink:title=" ">
<polygon fill="white" stroke="#666666" points="245,-184 170,-184 170,-165 245,-165 245,-184"/>
<text text-anchor="middle" x="207.5" y="-172" font-family="Helvetica,sans-Serif" font-size="10.00">ITA2String.h</text>
</a>
</g>
</g>
<!-- Node14&#45;&gt;Node16 -->
<g id="edge25_Node000014_Node000016" class="edge">
<title>Node14&#45;&gt;Node16</title>
<g id="a_edge25_Node000014_Node000016"><a xlink:title=" ">
<path fill="none" stroke="#63b8ff" d="M330.22,-285.91C320.89,-271.19 300.3,-240.73 277.5,-220 264.25,-207.96 247.37,-197.12 233.5,-189.15"/>
<polygon fill="#63b8ff" stroke="#63b8ff" points="234.9,-185.93 224.46,-184.12 231.49,-192.04 234.9,-185.93"/>
</a>
</g>
</g>
<!-- Node16&#45;&gt;Node2 -->
<g id="edge26_Node000016_Node000002" class="edge">
<title>Node16&#45;&gt;Node2</title>
<g id="a_edge26_Node000016_Node000002"><a xlink:title=" ">
<path fill="none" stroke="#63b8ff" d="M196.9,-164.98C187.04,-157.07 172.15,-145.11 160.28,-135.58"/>
<polygon fill="#63b8ff" stroke="#63b8ff" points="162.29,-132.7 152.3,-129.17 157.9,-138.16 162.29,-132.7"/>
</a>
</g>
</g>
</g>
</svg>
