<?xml version="1.0" encoding="UTF-8" standalone="no"?>
<!DOCTYPE svg PUBLIC "-//W3C//DTD SVG 1.1//EN"
 "http://www.w3.org/Graphics/SVG/1.1/DTD/svg11.dtd">
<!-- Generated by graphviz version 2.43.0 (0)
 -->
<!-- Title: detail::fwrite_all Pages: 1 -->
<svg width="339pt" height="101pt"
 viewBox="0.00 0.00 339.00 101.00" xmlns="http://www.w3.org/2000/svg" xmlns:xlink="http://www.w3.org/1999/xlink">
<g id="graph0" class="graph" transform="scale(1 1) rotate(0) translate(4 97)">
<title>detail::fwrite_all</title>
<!-- Node1 -->
<g id="Node000001" class="node">
<title>Node1</title>
<g id="a_Node000001"><a xlink:title=" ">
<polygon fill="#999999" stroke="#666666" points="331,-56 236,-56 236,-37 331,-37 331,-56"/>
<text text-anchor="middle" x="283.5" y="-44" font-family="Helvetica,sans-Serif" font-size="10.00">detail::fwrite_all</text>
</a>
</g>
</g>
<!-- Node2 -->
<g id="Node000002" class="node">
<title>Node2</title>
<g id="a_Node000002"><a xlink:href="namespacedetail.html#a4ee0408b74a4f3b21a147b4e600c5858" target="_top" xlink:title=" ">
<polygon fill="white" stroke="#666666" points="200,-56 127,-56 127,-37 200,-37 200,-56"/>
<text text-anchor="middle" x="163.5" y="-44" font-family="Helvetica,sans-Serif" font-size="10.00">detail::print</text>
</a>
</g>
</g>
<!-- Node1&#45;&gt;Node2 -->
<g id="edge1_Node000001_Node000002" class="edge">
<title>Node1&#45;&gt;Node2</title>
<g id="a_edge1_Node000001_Node000002"><a xlink:title=" ">
<path fill="none" stroke="#63b8ff" d="M225.74,-46.5C217.06,-46.5 208.31,-46.5 200.24,-46.5"/>
<polygon fill="#63b8ff" stroke="#63b8ff" points="225.86,-50 235.86,-46.5 225.86,-43 225.86,-50"/>
</a>
</g>
</g>
<!-- Node3 -->
<g id="Node000003" class="node">
<title>Node3</title>
<g id="a_Node000003"><a xlink:href="compile_8h.html#aafd70447a5d15c593712be146611663d" target="_top" xlink:title=" ">
<polygon fill="white" stroke="#666666" points="65,-93 26,-93 26,-74 65,-74 65,-93"/>
<text text-anchor="middle" x="45.5" y="-81" font-family="Helvetica,sans-Serif" font-size="10.00">print</text>
</a>
</g>
</g>
<!-- Node2&#45;&gt;Node3 -->
<g id="edge2_Node000002_Node000003" class="edge">
<title>Node2&#45;&gt;Node3</title>
<g id="a_edge2_Node000002_Node000003"><a xlink:title=" ">
<path fill="none" stroke="#63b8ff" d="M123,-59.1C103.38,-65.36 80.6,-72.62 65.03,-77.59"/>
<polygon fill="#63b8ff" stroke="#63b8ff" points="124.16,-62.4 132.63,-56.03 122.04,-55.73 124.16,-62.4"/>
</a>
</g>
</g>
<!-- Node4 -->
<g id="Node000004" class="node">
<title>Node4</title>
<g id="a_Node000004"><a xlink:href="format-inl_8h.html#a3774f0f4816097d469f11407f83ee394" target="_top" xlink:title=" ">
<polygon fill="white" stroke="#666666" points="91,-56 0,-56 0,-37 91,-37 91,-56"/>
<text text-anchor="middle" x="45.5" y="-44" font-family="Helvetica,sans-Serif" font-size="10.00">vprint_buffered</text>
</a>
</g>
</g>
<!-- Node2&#45;&gt;Node4 -->
<g id="edge3_Node000002_Node000004" class="edge">
<title>Node2&#45;&gt;Node4</title>
<g id="a_edge3_Node000002_Node000004"><a xlink:title=" ">
<path fill="none" stroke="#63b8ff" d="M116.5,-46.5C108.22,-46.5 99.6,-46.5 91.35,-46.5"/>
<polygon fill="#63b8ff" stroke="#63b8ff" points="116.75,-50 126.75,-46.5 116.75,-43 116.75,-50"/>
</a>
</g>
</g>
<!-- Node5 -->
<g id="Node000005" class="node">
<title>Node5</title>
<g id="a_Node000005"><a xlink:href="format-inl_8h.html#a71033730e1d1c2c72b7905f21929df93" target="_top" xlink:title=" ">
<polygon fill="white" stroke="#666666" points="72.5,-19 18.5,-19 18.5,0 72.5,0 72.5,-19"/>
<text text-anchor="middle" x="45.5" y="-7" font-family="Helvetica,sans-Serif" font-size="10.00">vprintln</text>
</a>
</g>
</g>
<!-- Node2&#45;&gt;Node5 -->
<g id="edge4_Node000002_Node000005" class="edge">
<title>Node2&#45;&gt;Node5</title>
<g id="a_edge4_Node000002_Node000005"><a xlink:title=" ">
<path fill="none" stroke="#63b8ff" d="M122.68,-33.8C106.16,-28.53 87.46,-22.56 72.72,-17.86"/>
<polygon fill="#63b8ff" stroke="#63b8ff" points="122.04,-37.27 132.63,-36.97 124.16,-30.6 122.04,-37.27"/>
</a>
</g>
</g>
</g>
</svg>
