<?xml version="1.0" encoding="UTF-8" standalone="no"?>
<!DOCTYPE svg PUBLIC "-//W3C//DTD SVG 1.1//EN"
 "http://www.w3.org/Graphics/SVG/1.1/DTD/svg11.dtd">
<!-- Generated by graphviz version 2.43.0 (0)
 -->
<!-- Title: detail::write_fractional_seconds Pages: 1 -->
<svg width="427pt" height="186pt"
 viewBox="0.00 0.00 427.00 185.50" xmlns="http://www.w3.org/2000/svg" xmlns:xlink="http://www.w3.org/1999/xlink">
<g id="graph0" class="graph" transform="scale(1 1) rotate(0) translate(4 181.5)">
<title>detail::write_fractional_seconds</title>
<!-- Node1 -->
<g id="Node000001" class="node">
<title>Node1</title>
<g id="a_Node000001"><a xlink:title=" ">
<polygon fill="#999999" stroke="#666666" points="127,-88.5 0,-88.5 0,-58.5 127,-58.5 127,-88.5"/>
<text text-anchor="start" x="8" y="-76.5" font-family="Helvetica,sans-Serif" font-size="10.00">detail::write_fractional</text>
<text text-anchor="middle" x="63.5" y="-65.5" font-family="Helvetica,sans-Serif" font-size="10.00">_seconds</text>
</a>
</g>
</g>
<!-- Node2 -->
<g id="Node000002" class="node">
<title>Node2</title>
<g id="a_Node000002"><a xlink:href="namespacedetail.html#ae970ad8cf6b25d7896f788089ca1b0eb" target="_top" xlink:title=" ">
<polygon fill="white" stroke="#666666" points="273,-148 163,-148 163,-129 273,-129 273,-148"/>
<text text-anchor="middle" x="218" y="-136" font-family="Helvetica,sans-Serif" font-size="10.00">detail::count_digits</text>
</a>
</g>
</g>
<!-- Node1&#45;&gt;Node2 -->
<g id="edge1_Node000001_Node000002" class="edge">
<title>Node1&#45;&gt;Node2</title>
<g id="a_edge1_Node000001_Node000002"><a xlink:title=" ">
<path fill="none" stroke="#63b8ff" d="M93.82,-88.66C113.18,-98.38 139.28,-110.93 163,-120.5 167.41,-122.28 172.06,-124.02 176.72,-125.69"/>
<polygon fill="#63b8ff" stroke="#63b8ff" points="175.61,-129 186.2,-128.96 177.9,-122.39 175.61,-129"/>
</a>
</g>
</g>
<!-- Node5 -->
<g id="Node000005" class="node">
<title>Node5</title>
<g id="a_Node000005"><a xlink:href="base_8h.html#a2e5592bf3509e2fc090fa0f329ee551f" target="_top" xlink:title=" ">
<polygon fill="white" stroke="#666666" points="243,-111 193,-111 193,-92 243,-92 243,-111"/>
<text text-anchor="middle" x="218" y="-99" font-family="Helvetica,sans-Serif" font-size="10.00">min_of</text>
</a>
</g>
</g>
<!-- Node1&#45;&gt;Node5 -->
<g id="edge4_Node000001_Node000005" class="edge">
<title>Node1&#45;&gt;Node5</title>
<g id="a_edge4_Node000001_Node000005"><a xlink:title=" ">
<path fill="none" stroke="#63b8ff" d="M127.41,-85.05C146.25,-88.51 166.22,-92.18 182.51,-95.17"/>
<polygon fill="#63b8ff" stroke="#63b8ff" points="182.17,-98.66 192.64,-97.03 183.43,-91.78 182.17,-98.66"/>
</a>
</g>
</g>
<!-- Node6 -->
<g id="Node000006" class="node">
<title>Node6</title>
<g id="a_Node000006"><a xlink:href="namespacedetail.html#a5e0587d9f42d113f1c3fdab31c7773c1" target="_top" xlink:title=" ">
<polygon fill="white" stroke="#666666" points="259.5,-56 176.5,-56 176.5,-37 259.5,-37 259.5,-56"/>
<text text-anchor="middle" x="218" y="-44" font-family="Helvetica,sans-Serif" font-size="10.00">detail::pow10</text>
</a>
</g>
</g>
<!-- Node1&#45;&gt;Node6 -->
<g id="edge5_Node000001_Node000006" class="edge">
<title>Node1&#45;&gt;Node6</title>
<g id="a_edge5_Node000001_Node000006"><a xlink:title=" ">
<path fill="none" stroke="#63b8ff" d="M127.41,-62.36C140.36,-60.07 153.83,-57.68 166.28,-55.48"/>
<polygon fill="#63b8ff" stroke="#63b8ff" points="167.23,-58.87 176.47,-53.68 166.01,-51.97 167.23,-58.87"/>
</a>
</g>
</g>
<!-- Node7 -->
<g id="Node000007" class="node">
<title>Node7</title>
<g id="a_Node000007"><a xlink:href="namespacedetail.html#a4855e668246c731a97484efc329f2aac" target="_top" xlink:title=" ">
<polygon fill="white" stroke="#666666" points="273,-19 163,-19 163,0 273,0 273,-19"/>
<text text-anchor="middle" x="218" y="-7" font-family="Helvetica,sans-Serif" font-size="10.00">detail::to_unsigned</text>
</a>
</g>
</g>
<!-- Node1&#45;&gt;Node7 -->
<g id="edge7_Node000001_Node000007" class="edge">
<title>Node1&#45;&gt;Node7</title>
<g id="a_edge7_Node000001_Node000007"><a xlink:title=" ">
<path fill="none" stroke="#63b8ff" d="M94.28,-58.5C113.62,-49.03 139.51,-36.87 163,-27.5 167.41,-25.74 172.08,-24.01 176.74,-22.35"/>
<polygon fill="#63b8ff" stroke="#63b8ff" points="177.91,-25.65 186.22,-19.08 175.63,-19.03 177.91,-25.65"/>
</a>
</g>
</g>
<!-- Node3 -->
<g id="Node000003" class="node">
<title>Node3</title>
<g id="a_Node000003"><a xlink:href="namespacedetail.html#a300bc96ee936e9f6ef3565c8dff68a72" target="_top" xlink:title=" ">
<polygon fill="white" stroke="#666666" points="419,-177.5 309,-177.5 309,-147.5 419,-147.5 419,-177.5"/>
<text text-anchor="start" x="317" y="-165.5" font-family="Helvetica,sans-Serif" font-size="10.00">detail::count_digits</text>
<text text-anchor="middle" x="364" y="-154.5" font-family="Helvetica,sans-Serif" font-size="10.00">_fallback</text>
</a>
</g>
</g>
<!-- Node2&#45;&gt;Node3 -->
<g id="edge2_Node000002_Node000003" class="edge">
<title>Node2&#45;&gt;Node3</title>
<g id="a_edge2_Node000002_Node000003"><a xlink:title=" ">
<path fill="none" stroke="#63b8ff" d="M273.03,-147.5C281.4,-148.9 290.13,-150.35 298.7,-151.78"/>
<polygon fill="#63b8ff" stroke="#63b8ff" points="298.23,-155.25 308.67,-153.44 299.38,-148.35 298.23,-155.25"/>
</a>
</g>
</g>
<!-- Node4 -->
<g id="Node000004" class="node">
<title>Node4</title>
<g id="a_Node000004"><a xlink:href="namespacedetail.html#a75ed2634319883d038944529dbb954e2" target="_top" xlink:title=" ">
<polygon fill="white" stroke="#666666" points="417,-129.5 311,-129.5 311,-99.5 417,-99.5 417,-129.5"/>
<text text-anchor="start" x="319" y="-117.5" font-family="Helvetica,sans-Serif" font-size="10.00">detail::is_constant</text>
<text text-anchor="middle" x="364" y="-106.5" font-family="Helvetica,sans-Serif" font-size="10.00">_evaluated</text>
</a>
</g>
</g>
<!-- Node2&#45;&gt;Node4 -->
<g id="edge3_Node000002_Node000004" class="edge">
<title>Node2&#45;&gt;Node4</title>
<g id="a_edge3_Node000002_Node000004"><a xlink:title=" ">
<path fill="none" stroke="#63b8ff" d="M273.03,-129.5C282.06,-127.99 291.48,-126.42 300.7,-124.88"/>
<polygon fill="#63b8ff" stroke="#63b8ff" points="301.29,-128.33 310.58,-123.24 300.14,-121.43 301.29,-128.33"/>
</a>
</g>
</g>
<!-- Node6&#45;&gt;Node6 -->
<g id="edge6_Node000006_Node000006" class="edge">
<title>Node6&#45;&gt;Node6</title>
<g id="a_edge6_Node000006_Node000006"><a xlink:title=" ">
<path fill="none" stroke="#63b8ff" d="M195.5,-56.08C184.55,-64.73 192.05,-74 218,-74 234.62,-74 243.68,-70.2 245.16,-65.19"/>
<polygon fill="#63b8ff" stroke="#63b8ff" points="248.17,-63.39 240.5,-56.08 241.94,-66.58 248.17,-63.39"/>
</a>
</g>
</g>
</g>
</svg>
