<?xml version="1.0" encoding="UTF-8" standalone="no"?>
<!DOCTYPE svg PUBLIC "-//W3C//DTD SVG 1.1//EN"
 "http://www.w3.org/Graphics/SVG/1.1/DTD/svg11.dtd">
<!-- Generated by graphviz version 2.43.0 (0)
 -->
<!-- Title: cxxopts::toLocalString Pages: 1 -->
<svg width="836pt" height="203pt"
 viewBox="0.00 0.00 836.00 202.77" xmlns="http://www.w3.org/2000/svg" xmlns:xlink="http://www.w3.org/1999/xlink">
<g id="graph0" class="graph" transform="scale(1 1) rotate(0) translate(4 198.77)">
<title>cxxopts::toLocalString</title>
<!-- Node1 -->
<g id="Node000001" class="node">
<title>Node1</title>
<g id="a_Node000001"><a xlink:title=" ">
<polygon fill="#999999" stroke="#666666" points="828,-76.27 704,-76.27 704,-57.27 828,-57.27 828,-76.27"/>
<text text-anchor="middle" x="766" y="-64.27" font-family="Helvetica,sans-Serif" font-size="10.00">cxxopts::toLocalString</text>
</a>
</g>
</g>
<!-- Node2 -->
<g id="Node000002" class="node">
<title>Node2</title>
<g id="a_Node000002"><a xlink:href="classcxxopts_1_1Options.html#a353100b81684422664822103672a841a" target="_top" xlink:title=" ">
<polygon fill="white" stroke="#666666" points="658.5,-146.77 536.5,-146.77 536.5,-116.77 658.5,-116.77 658.5,-146.77"/>
<text text-anchor="start" x="544.5" y="-134.77" font-family="Helvetica,sans-Serif" font-size="10.00">cxxopts::Options::add</text>
<text text-anchor="middle" x="597.5" y="-123.77" font-family="Helvetica,sans-Serif" font-size="10.00">_option</text>
</a>
</g>
</g>
<!-- Node1&#45;&gt;Node2 -->
<g id="edge1_Node000001_Node000002" class="edge">
<title>Node1&#45;&gt;Node2</title>
<g id="a_edge1_Node000001_Node000002"><a xlink:title=" ">
<path fill="none" stroke="#63b8ff" d="M734.26,-80.39C715.29,-88.64 690.39,-99.18 668,-107.77 660.13,-110.79 651.7,-113.84 643.52,-116.72"/>
<polygon fill="#63b8ff" stroke="#63b8ff" points="735.83,-83.52 743.59,-76.31 733.03,-77.11 735.83,-83.52"/>
</a>
</g>
</g>
<!-- Node8 -->
<g id="Node000008" class="node">
<title>Node8</title>
<g id="a_Node000008"><a xlink:href="classcxxopts_1_1Options.html#a05266b5355376180659943795facfcd5" target="_top" xlink:title=" ">
<polygon fill="white" stroke="#666666" points="125,-50.27 0,-50.27 0,-31.27 125,-31.27 125,-50.27"/>
<text text-anchor="middle" x="62.5" y="-38.27" font-family="Helvetica,sans-Serif" font-size="10.00">cxxopts::Options::help</text>
</a>
</g>
</g>
<!-- Node1&#45;&gt;Node8 -->
<g id="edge7_Node000001_Node000008" class="edge">
<title>Node1&#45;&gt;Node8</title>
<g id="a_edge7_Node000001_Node000008"><a xlink:title=" ">
<path fill="none" stroke="#63b8ff" d="M741.1,-52.09C722.08,-41.32 694.36,-27.59 668,-21.77 465.5,22.92 215.66,-12.66 112.05,-31.25"/>
<polygon fill="#63b8ff" stroke="#63b8ff" points="739.55,-55.24 749.95,-57.25 743.07,-49.19 739.55,-55.24"/>
</a>
</g>
</g>
<!-- Node9 -->
<g id="Node000009" class="node">
<title>Node9</title>
<g id="a_Node000009"><a xlink:href="classcxxopts_1_1Options.html#a7a9611069d511f815c71a1f4aca302eb" target="_top" xlink:title=" ">
<polygon fill="white" stroke="#666666" points="660,-60.77 535,-60.77 535,-30.77 660,-30.77 660,-60.77"/>
<text text-anchor="start" x="543" y="-48.77" font-family="Helvetica,sans-Serif" font-size="10.00">cxxopts::Options::help</text>
<text text-anchor="middle" x="597.5" y="-37.77" font-family="Helvetica,sans-Serif" font-size="10.00">_one_group</text>
</a>
</g>
</g>
<!-- Node1&#45;&gt;Node9 -->
<g id="edge8_Node000001_Node000009" class="edge">
<title>Node1&#45;&gt;Node9</title>
<g id="a_edge8_Node000001_Node000009"><a xlink:title=" ">
<path fill="none" stroke="#63b8ff" d="M693.77,-57.79C682.56,-56.37 671.06,-54.92 660.1,-53.54"/>
<polygon fill="#63b8ff" stroke="#63b8ff" points="693.59,-61.29 703.95,-59.07 694.46,-54.35 693.59,-61.29"/>
</a>
</g>
</g>
<!-- Node12 -->
<g id="Node000012" class="node">
<title>Node12</title>
<g id="a_Node000012"><a xlink:href="classcxxopts_1_1Options.html#a88de344d8367f26511dfea2cf974ed36" target="_top" xlink:title=" ">
<polygon fill="white" stroke="#666666" points="668,-98.27 527,-98.27 527,-79.27 668,-79.27 668,-98.27"/>
<text text-anchor="middle" x="597.5" y="-86.27" font-family="Helvetica,sans-Serif" font-size="10.00">cxxopts::Options::Options</text>
</a>
</g>
</g>
<!-- Node1&#45;&gt;Node12 -->
<g id="edge13_Node000001_Node000012" class="edge">
<title>Node1&#45;&gt;Node12</title>
<g id="a_edge13_Node000001_Node000012"><a xlink:title=" ">
<path fill="none" stroke="#63b8ff" d="M693.75,-76.18C685.31,-77.3 676.7,-78.44 668.28,-79.55"/>
<polygon fill="#63b8ff" stroke="#63b8ff" points="694.49,-79.62 703.95,-74.84 693.57,-72.68 694.49,-79.62"/>
</a>
</g>
</g>
<!-- Node3 -->
<g id="Node000003" class="node">
<title>Node3</title>
<g id="a_Node000003"><a xlink:href="classcxxopts_1_1Options.html#ac9aef634db43a56f369749f2710e1066" target="_top" xlink:title=" ">
<polygon fill="white" stroke="#666666" points="478.5,-146.77 356.5,-146.77 356.5,-116.77 478.5,-116.77 478.5,-146.77"/>
<text text-anchor="start" x="364.5" y="-134.77" font-family="Helvetica,sans-Serif" font-size="10.00">cxxopts::Options::add</text>
<text text-anchor="middle" x="417.5" y="-123.77" font-family="Helvetica,sans-Serif" font-size="10.00">_option</text>
</a>
</g>
</g>
<!-- Node2&#45;&gt;Node3 -->
<g id="edge2_Node000002_Node000003" class="edge">
<title>Node2&#45;&gt;Node3</title>
<g id="a_edge2_Node000002_Node000003"><a xlink:title=" ">
<path fill="none" stroke="#63b8ff" d="M526.07,-131.77C510.4,-131.77 493.92,-131.77 478.7,-131.77"/>
<polygon fill="#63b8ff" stroke="#63b8ff" points="526.24,-135.27 536.24,-131.77 526.24,-128.27 526.24,-135.27"/>
</a>
</g>
</g>
<!-- Node4 -->
<g id="Node000004" class="node">
<title>Node4</title>
<g id="a_Node000004"><a xlink:href="classcxxopts_1_1OptionAdder.html#a4feb747760c5fbaa807a4c8e1c335ac5" target="_top" xlink:title=" ">
<polygon fill="white" stroke="#666666" points="478,-194.77 357,-194.77 357,-164.77 478,-164.77 478,-194.77"/>
<text text-anchor="start" x="365" y="-182.77" font-family="Helvetica,sans-Serif" font-size="10.00">cxxopts::OptionAdder</text>
<text text-anchor="middle" x="417.5" y="-171.77" font-family="Helvetica,sans-Serif" font-size="10.00">::operator()</text>
</a>
</g>
</g>
<!-- Node2&#45;&gt;Node4 -->
<g id="edge3_Node000002_Node000004" class="edge">
<title>Node2&#45;&gt;Node4</title>
<g id="a_edge3_Node000002_Node000004"><a xlink:title=" ">
<path fill="none" stroke="#63b8ff" d="M530.79,-149.49C512.17,-154.51 492.09,-159.92 474.13,-164.77"/>
<polygon fill="#63b8ff" stroke="#63b8ff" points="531.92,-152.81 540.67,-146.83 530.1,-146.05 531.92,-152.81"/>
</a>
</g>
</g>
<!-- Node5 -->
<g id="Node000005" class="node">
<title>Node5</title>
<g id="a_Node000005"><a xlink:href="classcxxopts_1_1Options.html#a95878aa582f2ed8e0a2b73e735eb287d" target="_top" xlink:title=" ">
<polygon fill="white" stroke="#666666" points="295.5,-194.77 173.5,-194.77 173.5,-164.77 295.5,-164.77 295.5,-194.77"/>
<text text-anchor="start" x="181.5" y="-182.77" font-family="Helvetica,sans-Serif" font-size="10.00">cxxopts::Options::add</text>
<text text-anchor="middle" x="234.5" y="-171.77" font-family="Helvetica,sans-Serif" font-size="10.00">_options</text>
</a>
</g>
</g>
<!-- Node4&#45;&gt;Node5 -->
<g id="edge4_Node000004_Node000005" class="edge">
<title>Node4&#45;&gt;Node5</title>
<g id="a_edge4_Node000004_Node000005"><a xlink:title=" ">
<path fill="none" stroke="#63b8ff" d="M346.66,-179.77C329.84,-179.77 312.01,-179.77 295.67,-179.77"/>
<polygon fill="#63b8ff" stroke="#63b8ff" points="346.98,-183.27 356.98,-179.77 346.98,-176.27 346.98,-183.27"/>
</a>
</g>
</g>
<!-- Node7 -->
<g id="Node000007" class="node">
<title>Node7</title>
<g id="a_Node000007"><a xlink:href="transmitter-normal_8cpp.html#a3c04138a5bfe5d72780bb7e82a18e627" target="_top" xlink:title=" ">
<polygon fill="white" stroke="#666666" points="255,-141.27 214,-141.27 214,-122.27 255,-122.27 255,-141.27"/>
<text text-anchor="middle" x="234.5" y="-129.27" font-family="Helvetica,sans-Serif" font-size="10.00">main</text>
</a>
</g>
</g>
<!-- Node4&#45;&gt;Node7 -->
<g id="edge6_Node000004_Node000007" class="edge">
<title>Node4&#45;&gt;Node7</title>
<g id="a_edge6_Node000004_Node000007"><a xlink:title=" ">
<path fill="none" stroke="#63b8ff" d="M349.94,-162.12C316.34,-153.21 278.01,-143.04 255.33,-137.03"/>
<polygon fill="#63b8ff" stroke="#63b8ff" points="349.16,-165.53 359.73,-164.71 350.96,-158.77 349.16,-165.53"/>
</a>
</g>
</g>
<!-- Node6 -->
<g id="Node000006" class="node">
<title>Node6</title>
<g id="a_Node000006"><a xlink:href="classcxxopts_1_1Options.html#ac698adfe5b5ca50d36017a52b27fb828" target="_top" xlink:title=" ">
<polygon fill="white" stroke="#666666" points="123.5,-194.77 1.5,-194.77 1.5,-164.77 123.5,-164.77 123.5,-194.77"/>
<text text-anchor="start" x="9.5" y="-182.77" font-family="Helvetica,sans-Serif" font-size="10.00">cxxopts::Options::add</text>
<text text-anchor="middle" x="62.5" y="-171.77" font-family="Helvetica,sans-Serif" font-size="10.00">_option</text>
</a>
</g>
</g>
<!-- Node5&#45;&gt;Node6 -->
<g id="edge5_Node000005_Node000006" class="edge">
<title>Node5&#45;&gt;Node6</title>
<g id="a_edge5_Node000005_Node000006"><a xlink:title=" ">
<path fill="none" stroke="#63b8ff" d="M162.79,-179.77C149.81,-179.77 136.36,-179.77 123.72,-179.77"/>
<polygon fill="#63b8ff" stroke="#63b8ff" points="163.09,-183.27 173.09,-179.77 163.09,-176.27 163.09,-183.27"/>
</a>
</g>
</g>
<!-- Node10 -->
<g id="Node000010" class="node">
<title>Node10</title>
<g id="a_Node000010"><a xlink:href="classcxxopts_1_1Options.html#ab09329dad31b464891556a4cd2659d04" target="_top" xlink:title=" ">
<polygon fill="white" stroke="#666666" points="491,-60.77 344,-60.77 344,-30.77 491,-30.77 491,-60.77"/>
<text text-anchor="start" x="352" y="-48.77" font-family="Helvetica,sans-Serif" font-size="10.00">cxxopts::Options::generate</text>
<text text-anchor="middle" x="417.5" y="-37.77" font-family="Helvetica,sans-Serif" font-size="10.00">_group_help</text>
</a>
</g>
</g>
<!-- Node9&#45;&gt;Node10 -->
<g id="edge9_Node000009_Node000010" class="edge">
<title>Node9&#45;&gt;Node10</title>
<g id="a_edge9_Node000009_Node000010"><a xlink:title=" ">
<path fill="none" stroke="#63b8ff" d="M524.71,-45.77C513.66,-45.77 502.23,-45.77 491.16,-45.77"/>
<polygon fill="#63b8ff" stroke="#63b8ff" points="524.74,-49.27 534.74,-45.77 524.74,-42.27 524.74,-49.27"/>
</a>
</g>
</g>
<!-- Node10&#45;&gt;Node8 -->
<g id="edge12_Node000010_Node000008" class="edge">
<title>Node10&#45;&gt;Node8</title>
<g id="a_edge12_Node000010_Node000008"><a xlink:title=" ">
<path fill="none" stroke="#63b8ff" d="M333.75,-44.6C269.92,-43.69 183.06,-42.46 125.22,-41.64"/>
<polygon fill="#63b8ff" stroke="#63b8ff" points="333.74,-48.1 343.79,-44.74 333.84,-41.1 333.74,-48.1"/>
</a>
</g>
</g>
<!-- Node11 -->
<g id="Node000011" class="node">
<title>Node11</title>
<g id="a_Node000011"><a xlink:href="classcxxopts_1_1Options.html#adc15c2e713a3c026c7a25e83612ec247" target="_top" xlink:title=" ">
<polygon fill="white" stroke="#666666" points="308,-98.77 161,-98.77 161,-68.77 308,-68.77 308,-98.77"/>
<text text-anchor="start" x="169" y="-86.77" font-family="Helvetica,sans-Serif" font-size="10.00">cxxopts::Options::generate</text>
<text text-anchor="middle" x="234.5" y="-75.77" font-family="Helvetica,sans-Serif" font-size="10.00">_all_groups_help</text>
</a>
</g>
</g>
<!-- Node10&#45;&gt;Node11 -->
<g id="edge10_Node000010_Node000011" class="edge">
<title>Node10&#45;&gt;Node11</title>
<g id="a_edge10_Node000010_Node000011"><a xlink:title=" ">
<path fill="none" stroke="#63b8ff" d="M334.96,-62.89C325.67,-64.84 316.25,-66.82 307.11,-68.74"/>
<polygon fill="#63b8ff" stroke="#63b8ff" points="335.9,-66.27 344.96,-60.79 334.46,-59.42 335.9,-66.27"/>
</a>
</g>
</g>
<!-- Node11&#45;&gt;Node8 -->
<g id="edge11_Node000011_Node000008" class="edge">
<title>Node11&#45;&gt;Node8</title>
<g id="a_edge11_Node000011_Node000008"><a xlink:title=" ">
<path fill="none" stroke="#63b8ff" d="M164.25,-66.25C142.68,-60.8 119.7,-54.98 101.15,-50.29"/>
<polygon fill="#63b8ff" stroke="#63b8ff" points="163.49,-69.67 174.04,-68.73 165.21,-62.88 163.49,-69.67"/>
</a>
</g>
</g>
<!-- Node12&#45;&gt;Node7 -->
<g id="edge14_Node000012_Node000007" class="edge">
<title>Node12&#45;&gt;Node7</title>
<g id="a_edge14_Node000012_Node000007"><a xlink:title=" ">
<path fill="none" stroke="#63b8ff" d="M516.74,-91.86C466.89,-94.51 401.47,-99.3 344,-107.77 312.7,-112.38 276.97,-120.94 255.34,-126.49"/>
<polygon fill="#63b8ff" stroke="#63b8ff" points="517,-95.35 526.81,-91.34 516.64,-88.36 517,-95.35"/>
</a>
</g>
</g>
</g>
</svg>
