<?xml version="1.0" encoding="UTF-8" standalone="no"?>
<!DOCTYPE svg PUBLIC "-//W3C//DTD SVG 1.1//EN"
 "http://www.w3.org/Graphics/SVG/1.1/DTD/svg11.dtd">
<!-- Generated by graphviz version 2.43.0 (0)
 -->
<!-- Title: detail::for_each_codepoint Pages: 1 -->
<svg width="321pt" height="187pt"
 viewBox="0.00 0.00 321.00 186.50" xmlns="http://www.w3.org/2000/svg" xmlns:xlink="http://www.w3.org/1999/xlink">
<g id="graph0" class="graph" transform="scale(1 1) rotate(0) translate(4 182.5)">
<title>detail::for_each_codepoint</title>
<!-- Node1 -->
<g id="Node000001" class="node">
<title>Node1</title>
<g id="a_Node000001"><a xlink:title=" ">
<polygon fill="#999999" stroke="#666666" points="146,-93 0,-93 0,-74 146,-74 146,-93"/>
<text text-anchor="middle" x="73" y="-81" font-family="Helvetica,sans-Serif" font-size="10.00">detail::for_each_codepoint</text>
</a>
</g>
</g>
<!-- Node2 -->
<g id="Node000002" class="node">
<title>Node2</title>
<g id="a_Node000002"><a xlink:href="classbasic__string__view.html#aae708273ca864680a424c10441799605" target="_top" xlink:title=" ">
<polygon fill="white" stroke="#666666" points="302,-178.5 193,-178.5 193,-148.5 302,-148.5 302,-178.5"/>
<text text-anchor="start" x="201" y="-166.5" font-family="Helvetica,sans-Serif" font-size="10.00">basic_string_view::</text>
<text text-anchor="middle" x="247.5" y="-155.5" font-family="Helvetica,sans-Serif" font-size="10.00">basic_string_view</text>
</a>
</g>
</g>
<!-- Node1&#45;&gt;Node2 -->
<g id="edge1_Node000001_Node000002" class="edge">
<title>Node1&#45;&gt;Node2</title>
<g id="a_edge1_Node000001_Node000002"><a xlink:title=" ">
<path fill="none" stroke="#63b8ff" d="M90.89,-93.08C111.89,-104.79 148.98,-124.86 182,-139.5 186.04,-141.29 190.26,-143.07 194.53,-144.79"/>
<polygon fill="#63b8ff" stroke="#63b8ff" points="193.29,-148.07 203.87,-148.48 195.86,-141.55 193.29,-148.07"/>
</a>
</g>
</g>
<!-- Node3 -->
<g id="Node000003" class="node">
<title>Node3</title>
<g id="a_Node000003"><a xlink:href="classbasic__string__view.html#a39cdfe061dc6d64a3adc230b62d8a026" target="_top" xlink:title=" ">
<polygon fill="white" stroke="#666666" points="313,-130 182,-130 182,-111 313,-111 313,-130"/>
<text text-anchor="middle" x="247.5" y="-118" font-family="Helvetica,sans-Serif" font-size="10.00">basic_string_view::data</text>
</a>
</g>
</g>
<!-- Node1&#45;&gt;Node3 -->
<g id="edge2_Node000001_Node000003" class="edge">
<title>Node1&#45;&gt;Node3</title>
<g id="a_edge2_Node000001_Node000003"><a xlink:title=" ">
<path fill="none" stroke="#63b8ff" d="M118.42,-93.03C140.87,-97.84 168.31,-103.73 192.02,-108.81"/>
<polygon fill="#63b8ff" stroke="#63b8ff" points="191.42,-112.26 201.93,-110.94 192.88,-105.42 191.42,-112.26"/>
</a>
</g>
</g>
<!-- Node4 -->
<g id="Node000004" class="node">
<title>Node4</title>
<g id="a_Node000004"><a xlink:href="classbasic__string__view.html#a216bbe1b012b590698d7bb4e96d1af3f" target="_top" xlink:title=" ">
<polygon fill="white" stroke="#666666" points="311.5,-93 183.5,-93 183.5,-74 311.5,-74 311.5,-93"/>
<text text-anchor="middle" x="247.5" y="-81" font-family="Helvetica,sans-Serif" font-size="10.00">basic_string_view::size</text>
</a>
</g>
</g>
<!-- Node1&#45;&gt;Node4 -->
<g id="edge3_Node000001_Node000004" class="edge">
<title>Node1&#45;&gt;Node4</title>
<g id="a_edge3_Node000001_Node000004"><a xlink:title=" ">
<path fill="none" stroke="#63b8ff" d="M146.16,-83.5C155.14,-83.5 164.34,-83.5 173.35,-83.5"/>
<polygon fill="#63b8ff" stroke="#63b8ff" points="173.41,-87 183.41,-83.5 173.41,-80 173.41,-87"/>
</a>
</g>
</g>
<!-- Node5 -->
<g id="Node000005" class="node">
<title>Node5</title>
<g id="a_Node000005"><a xlink:href="namespacedetail.html#a4855e668246c731a97484efc329f2aac" target="_top" xlink:title=" ">
<polygon fill="white" stroke="#666666" points="302.5,-56 192.5,-56 192.5,-37 302.5,-37 302.5,-56"/>
<text text-anchor="middle" x="247.5" y="-44" font-family="Helvetica,sans-Serif" font-size="10.00">detail::to_unsigned</text>
</a>
</g>
</g>
<!-- Node1&#45;&gt;Node5 -->
<g id="edge4_Node000001_Node000005" class="edge">
<title>Node1&#45;&gt;Node5</title>
<g id="a_edge4_Node000001_Node000005"><a xlink:title=" ">
<path fill="none" stroke="#63b8ff" d="M118.42,-73.97C140.87,-69.16 168.31,-63.27 192.02,-58.19"/>
<polygon fill="#63b8ff" stroke="#63b8ff" points="192.88,-61.58 201.93,-56.06 191.42,-54.74 192.88,-61.58"/>
</a>
</g>
</g>
<!-- Node6 -->
<g id="Node000006" class="node">
<title>Node6</title>
<g id="a_Node000006"><a xlink:href="namespacedetail.html#a9cd935fa9e8ecf106e59bee1411440b9" target="_top" xlink:title=" ">
<polygon fill="white" stroke="#666666" points="302.5,-19 192.5,-19 192.5,0 302.5,0 302.5,-19"/>
<text text-anchor="middle" x="247.5" y="-7" font-family="Helvetica,sans-Serif" font-size="10.00">detail::utf8_decode</text>
</a>
</g>
</g>
<!-- Node1&#45;&gt;Node6 -->
<g id="edge5_Node000001_Node000006" class="edge">
<title>Node1&#45;&gt;Node6</title>
<g id="a_edge5_Node000001_Node000006"><a xlink:title=" ">
<path fill="none" stroke="#63b8ff" d="M90.39,-73.94C111.18,-62.11 148.37,-41.88 182,-28.5 187.77,-26.21 193.92,-24.04 200.05,-22.06"/>
<polygon fill="#63b8ff" stroke="#63b8ff" points="201.09,-25.4 209.6,-19.1 199.01,-18.72 201.09,-25.4"/>
</a>
</g>
</g>
</g>
</svg>
