<?xml version="1.0" encoding="UTF-8" standalone="no"?>
<!DOCTYPE svg PUBLIC "-//W3C//DTD SVG 1.1//EN"
 "http://www.w3.org/Graphics/SVG/1.1/DTD/svg11.dtd">
<!-- Generated by graphviz version 2.43.0 (0)
 -->
<!-- Title: detail::utf8_decode Pages: 1 -->
<svg width="586pt" height="76pt"
 viewBox="0.00 0.00 586.00 75.50" xmlns="http://www.w3.org/2000/svg" xmlns:xlink="http://www.w3.org/1999/xlink">
<g id="graph0" class="graph" transform="scale(1 1) rotate(0) translate(4 71.5)">
<title>detail::utf8_decode</title>
<!-- Node1 -->
<g id="Node000001" class="node">
<title>Node1</title>
<g id="a_Node000001"><a xlink:title=" ">
<polygon fill="#999999" stroke="#666666" points="578,-45.5 468,-45.5 468,-26.5 578,-26.5 578,-45.5"/>
<text text-anchor="middle" x="523" y="-33.5" font-family="Helvetica,sans-Serif" font-size="10.00">detail::utf8_decode</text>
</a>
</g>
</g>
<!-- Node2 -->
<g id="Node000002" class="node">
<title>Node2</title>
<g id="a_Node000002"><a xlink:href="namespacedetail.html#ac7952761a4b6255293c82b7fb3a61d50" target="_top" xlink:title=" ">
<polygon fill="white" stroke="#666666" points="432,-45.5 286,-45.5 286,-26.5 432,-26.5 432,-45.5"/>
<text text-anchor="middle" x="359" y="-33.5" font-family="Helvetica,sans-Serif" font-size="10.00">detail::for_each_codepoint</text>
</a>
</g>
</g>
<!-- Node1&#45;&gt;Node2 -->
<g id="edge1_Node000001_Node000002" class="edge">
<title>Node1&#45;&gt;Node2</title>
<g id="a_edge1_Node000001_Node000002"><a xlink:title=" ">
<path fill="none" stroke="#63b8ff" d="M457.55,-36C449.18,-36 440.57,-36 432.09,-36"/>
<polygon fill="#63b8ff" stroke="#63b8ff" points="457.61,-39.5 467.61,-36 457.61,-32.5 457.61,-39.5"/>
</a>
</g>
</g>
<!-- Node3 -->
<g id="Node000003" class="node">
<title>Node3</title>
<g id="a_Node000003"><a xlink:href="namespacedetail.html#a58bd684d97381b18790d598a652a61b9" target="_top" xlink:title=" ">
<polygon fill="white" stroke="#666666" points="246,-67.5 138,-67.5 138,-48.5 246,-48.5 246,-67.5"/>
<text text-anchor="middle" x="192" y="-55.5" font-family="Helvetica,sans-Serif" font-size="10.00">detail::find_escape</text>
</a>
</g>
</g>
<!-- Node2&#45;&gt;Node3 -->
<g id="edge2_Node000002_Node000003" class="edge">
<title>Node2&#45;&gt;Node3</title>
<g id="a_edge2_Node000002_Node000003"><a xlink:title=" ">
<path fill="none" stroke="#63b8ff" d="M276.67,-46.84C266.29,-48.23 255.88,-49.62 246.11,-50.92"/>
<polygon fill="#63b8ff" stroke="#63b8ff" points="277.14,-50.31 286.59,-45.52 276.21,-43.37 277.14,-50.31"/>
</a>
</g>
</g>
<!-- Node4 -->
<g id="Node000004" class="node">
<title>Node4</title>
<g id="a_Node000004"><a xlink:href="classdetail_1_1utf8__to__utf16.html#aabad25a649e8f141b998e38abd970721" target="_top" xlink:title=" ">
<polygon fill="white" stroke="#666666" points="250,-30 134,-30 134,0 250,0 250,-30"/>
<text text-anchor="start" x="142" y="-18" font-family="Helvetica,sans-Serif" font-size="10.00">detail::utf8_to_utf16</text>
<text text-anchor="middle" x="192" y="-7" font-family="Helvetica,sans-Serif" font-size="10.00">::utf8_to_utf16</text>
</a>
</g>
</g>
<!-- Node2&#45;&gt;Node4 -->
<g id="edge3_Node000002_Node000004" class="edge">
<title>Node2&#45;&gt;Node4</title>
<g id="a_edge3_Node000002_Node000004"><a xlink:title=" ">
<path fill="none" stroke="#63b8ff" d="M275.65,-25.52C267.13,-24.43 258.6,-23.35 250.44,-22.31"/>
<polygon fill="#63b8ff" stroke="#63b8ff" points="275.27,-29 285.63,-26.79 276.15,-22.05 275.27,-29"/>
</a>
</g>
</g>
<!-- Node5 -->
<g id="Node000005" class="node">
<title>Node5</title>
<g id="a_Node000005"><a xlink:href="namespacedetail.html#a6e87de2a7463d1a9afe229703795ce22" target="_top" xlink:title=" ">
<polygon fill="white" stroke="#666666" points="98,-24.5 0,-24.5 0,-5.5 98,-5.5 98,-24.5"/>
<text text-anchor="middle" x="49" y="-12.5" font-family="Helvetica,sans-Serif" font-size="10.00">detail::copy_unit</text>
</a>
</g>
</g>
<!-- Node4&#45;&gt;Node5 -->
<g id="edge4_Node000004_Node000005" class="edge">
<title>Node4&#45;&gt;Node5</title>
<g id="a_edge4_Node000004_Node000005"><a xlink:title=" ">
<path fill="none" stroke="#63b8ff" d="M123.37,-15C114.9,-15 106.37,-15 98.28,-15"/>
<polygon fill="#63b8ff" stroke="#63b8ff" points="123.65,-18.5 133.65,-15 123.65,-11.5 123.65,-18.5"/>
</a>
</g>
</g>
</g>
</svg>
