<?xml version="1.0" encoding="UTF-8" standalone="no"?>
<!DOCTYPE svg PUBLIC "-//W3C//DTD SVG 1.1//EN"
 "http://www.w3.org/Graphics/SVG/1.1/DTD/svg11.dtd">
<!-- Generated by graphviz version 2.43.0 (0)
 -->
<!-- Title: detail::countl_zero_fallback Pages: 1 -->
<svg width="726pt" height="100pt"
 viewBox="0.00 0.00 726.00 100.00" xmlns="http://www.w3.org/2000/svg" xmlns:xlink="http://www.w3.org/1999/xlink">
<g id="graph0" class="graph" transform="scale(1 1) rotate(0) translate(4 96)">
<title>detail::countl_zero_fallback</title>
<!-- Node1 -->
<g id="Node000001" class="node">
<title>Node1</title>
<g id="a_Node000001"><a xlink:title=" ">
<polygon fill="#999999" stroke="#666666" points="718,-30 611,-30 611,0 718,0 718,-30"/>
<text text-anchor="start" x="619" y="-18" font-family="Helvetica,sans-Serif" font-size="10.00">detail::countl_zero</text>
<text text-anchor="middle" x="664.5" y="-7" font-family="Helvetica,sans-Serif" font-size="10.00">_fallback</text>
</a>
</g>
</g>
<!-- Node2 -->
<g id="Node000002" class="node">
<title>Node2</title>
<g id="a_Node000002"><a xlink:href="namespacedetail.html#af252d1b8eaeab79d234b012c14fd58b0" target="_top" xlink:title=" ">
<polygon fill="white" stroke="#666666" points="575,-43.5 468,-43.5 468,-24.5 575,-24.5 575,-43.5"/>
<text text-anchor="middle" x="521.5" y="-31.5" font-family="Helvetica,sans-Serif" font-size="10.00">detail::countl_zero</text>
</a>
</g>
</g>
<!-- Node1&#45;&gt;Node2 -->
<g id="edge1_Node000001_Node000002" class="edge">
<title>Node1&#45;&gt;Node2</title>
<g id="a_edge1_Node000001_Node000002"><a xlink:title=" ">
<path fill="none" stroke="#63b8ff" d="M600.95,-23.43C592.3,-24.59 583.49,-25.78 575.05,-26.92"/>
<polygon fill="#63b8ff" stroke="#63b8ff" points="601.55,-26.88 611,-22.07 600.62,-19.94 601.55,-26.88"/>
</a>
</g>
</g>
<!-- Node7 -->
<g id="Node000007" class="node">
<title>Node7</title>
<g id="a_Node000007"><a xlink:href="namespacedetail.html#a2702395aa58ba76ee2ecab3bfdb3cc3b" target="_top" xlink:title=" ">
<polygon fill="white" stroke="#666666" points="260.5,-27.5 153.5,-27.5 153.5,-8.5 260.5,-8.5 260.5,-27.5"/>
<text text-anchor="middle" x="207" y="-15.5" font-family="Helvetica,sans-Serif" font-size="10.00">detail::countl_zero</text>
</a>
</g>
</g>
<!-- Node1&#45;&gt;Node7 -->
<g id="edge6_Node000001_Node000007" class="edge">
<title>Node1&#45;&gt;Node7</title>
<g id="a_edge6_Node000001_Node000007"><a xlink:title=" ">
<path fill="none" stroke="#63b8ff" d="M600.58,-14.41C528.81,-13.87 407.94,-13.38 304,-15 289.99,-15.22 274.84,-15.62 260.81,-16.05"/>
<polygon fill="#63b8ff" stroke="#63b8ff" points="600.78,-17.91 610.8,-14.49 600.83,-10.91 600.78,-17.91"/>
</a>
</g>
</g>
<!-- Node3 -->
<g id="Node000003" class="node">
<title>Node3</title>
<g id="a_Node000003"><a xlink:href="classdetail_1_1bigint.html#a8351139b55eb772c8f1c9f86e8e66e8f" target="_top" xlink:title=" ">
<polygon fill="white" stroke="#666666" points="426,-92 310,-92 310,-62 426,-62 426,-92"/>
<text text-anchor="start" x="318" y="-80" font-family="Helvetica,sans-Serif" font-size="10.00">detail::bigint::assign</text>
<text text-anchor="middle" x="368" y="-69" font-family="Helvetica,sans-Serif" font-size="10.00">_pow10</text>
</a>
</g>
</g>
<!-- Node2&#45;&gt;Node3 -->
<g id="edge2_Node000002_Node000003" class="edge">
<title>Node2&#45;&gt;Node3</title>
<g id="a_edge2_Node000002_Node000003"><a xlink:title=" ">
<path fill="none" stroke="#63b8ff" d="M477.09,-46.32C459.88,-51.21 439.92,-56.87 421.87,-61.99"/>
<polygon fill="#63b8ff" stroke="#63b8ff" points="478.21,-49.64 486.88,-43.54 476.3,-42.91 478.21,-49.64"/>
</a>
</g>
</g>
<!-- Node6 -->
<g id="Node000006" class="node">
<title>Node6</title>
<g id="a_Node000006"><a xlink:href="namespacedetail.html#a718888554bf1561a88969b304e570395" target="_top" xlink:title=" ">
<polygon fill="white" stroke="#666666" points="432,-43.5 304,-43.5 304,-24.5 432,-24.5 432,-43.5"/>
<text text-anchor="middle" x="368" y="-31.5" font-family="Helvetica,sans-Serif" font-size="10.00">detail::format_hexfloat</text>
</a>
</g>
</g>
<!-- Node2&#45;&gt;Node6 -->
<g id="edge5_Node000002_Node000006" class="edge">
<title>Node2&#45;&gt;Node6</title>
<g id="a_edge5_Node000002_Node000006"><a xlink:title=" ">
<path fill="none" stroke="#63b8ff" d="M457.76,-34C449.31,-34 440.63,-34 432.16,-34"/>
<polygon fill="#63b8ff" stroke="#63b8ff" points="457.94,-37.5 467.94,-34 457.94,-30.5 457.94,-37.5"/>
</a>
</g>
</g>
<!-- Node4 -->
<g id="Node000004" class="node">
<title>Node4</title>
<g id="a_Node000004"><a xlink:href="namespacedetail.html#af3eae8fdebff07dc2edca668eaf2f8bd" target="_top" xlink:title=" ">
<polygon fill="white" stroke="#666666" points="268,-75.5 146,-75.5 146,-56.5 268,-56.5 268,-75.5"/>
<text text-anchor="middle" x="207" y="-63.5" font-family="Helvetica,sans-Serif" font-size="10.00">detail::format_dragon</text>
</a>
</g>
</g>
<!-- Node3&#45;&gt;Node4 -->
<g id="edge3_Node000003_Node000004" class="edge">
<title>Node3&#45;&gt;Node4</title>
<g id="a_edge3_Node000003_Node000004"><a xlink:title=" ">
<path fill="none" stroke="#63b8ff" d="M299.38,-72.32C289.04,-71.61 278.43,-70.87 268.27,-70.17"/>
<polygon fill="#63b8ff" stroke="#63b8ff" points="299.38,-75.83 309.6,-73.03 299.86,-68.85 299.38,-75.83"/>
</a>
</g>
</g>
<!-- Node5 -->
<g id="Node000005" class="node">
<title>Node5</title>
<g id="a_Node000005"><a xlink:href="namespacedetail.html#add861c358ea50b446b1a06080adb44ba" target="_top" xlink:title=" ">
<polygon fill="white" stroke="#666666" points="110,-45.5 0,-45.5 0,-26.5 110,-26.5 110,-45.5"/>
<text text-anchor="middle" x="55" y="-33.5" font-family="Helvetica,sans-Serif" font-size="10.00">detail::format_float</text>
</a>
</g>
</g>
<!-- Node4&#45;&gt;Node5 -->
<g id="edge4_Node000004_Node000005" class="edge">
<title>Node4&#45;&gt;Node5</title>
<g id="a_edge4_Node000004_Node000005"><a xlink:title=" ">
<path fill="none" stroke="#63b8ff" d="M148.13,-54.43C133.43,-51.49 117.8,-48.36 103.68,-45.54"/>
<polygon fill="#63b8ff" stroke="#63b8ff" points="147.63,-57.9 158.13,-56.43 149.01,-51.03 147.63,-57.9"/>
</a>
</g>
</g>
<!-- Node7&#45;&gt;Node5 -->
<g id="edge7_Node000007_Node000005" class="edge">
<title>Node7&#45;&gt;Node5</title>
<g id="a_edge7_Node000007_Node000005"><a xlink:title=" ">
<path fill="none" stroke="#63b8ff" d="M143.17,-25.54C132.21,-26.85 120.89,-28.21 110.18,-29.5"/>
<polygon fill="#63b8ff" stroke="#63b8ff" points="143.6,-29.01 153.12,-24.35 142.77,-22.06 143.6,-29.01"/>
</a>
</g>
</g>
</g>
</svg>
