<?xml version="1.0" encoding="UTF-8" standalone="no"?>
<!DOCTYPE svg PUBLIC "-//W3C//DTD SVG 1.1//EN"
 "http://www.w3.org/Graphics/SVG/1.1/DTD/svg11.dtd">
<!-- Generated by graphviz version 2.43.0 (0)
 -->
<!-- Title: detail::dragonbox::remove_trailing_zeros Pages: 1 -->
<svg width="434pt" height="110pt"
 viewBox="0.00 0.00 434.00 110.00" xmlns="http://www.w3.org/2000/svg" xmlns:xlink="http://www.w3.org/1999/xlink">
<g id="graph0" class="graph" transform="scale(1 1) rotate(0) translate(4 106)">
<title>detail::dragonbox::remove_trailing_zeros</title>
<!-- Node1 -->
<g id="Node000001" class="node">
<title>Node1</title>
<g id="a_Node000001"><a xlink:title=" ">
<polygon fill="#999999" stroke="#666666" points="125,-67.5 0,-67.5 0,-37.5 125,-37.5 125,-67.5"/>
<text text-anchor="start" x="8" y="-55.5" font-family="Helvetica,sans-Serif" font-size="10.00">detail::dragonbox::</text>
<text text-anchor="middle" x="62.5" y="-44.5" font-family="Helvetica,sans-Serif" font-size="10.00">remove_trailing_zeros</text>
</a>
</g>
</g>
<!-- Node2 -->
<g id="Node000002" class="node">
<title>Node2</title>
<g id="a_Node000002"><a xlink:href="namespacedetail.html#a45c2130c44ebe54179eafcee3cda2bfb" target="_top" xlink:title=" ">
<polygon fill="white" stroke="#666666" points="426,-102 322,-102 322,-83 426,-83 426,-102"/>
<text text-anchor="middle" x="374" y="-90" font-family="Helvetica,sans-Serif" font-size="10.00">detail::max_value</text>
</a>
</g>
</g>
<!-- Node1&#45;&gt;Node2 -->
<g id="edge1_Node000001_Node000002" class="edge">
<title>Node1&#45;&gt;Node2</title>
<g id="a_edge1_Node000001_Node000002"><a xlink:title=" ">
<path fill="none" stroke="#63b8ff" d="M117.58,-67.5C131.62,-70.93 146.8,-74.23 161,-76.5 211.34,-84.54 269.07,-88.56 311.56,-90.56"/>
<polygon fill="#63b8ff" stroke="#63b8ff" points="311.6,-94.07 321.75,-91.01 311.91,-87.07 311.6,-94.07"/>
</a>
</g>
</g>
<!-- Node3 -->
<g id="Node000003" class="node">
<title>Node3</title>
<g id="a_Node000003"><a xlink:href="namespacedetail_1_1dragonbox.html#a45db9f63441e027d802a183c93accf14" target="_top" xlink:title=" ">
<polygon fill="white" stroke="#666666" points="286,-67.5 161,-67.5 161,-37.5 286,-37.5 286,-67.5"/>
<text text-anchor="start" x="169" y="-55.5" font-family="Helvetica,sans-Serif" font-size="10.00">detail::dragonbox::</text>
<text text-anchor="middle" x="223.5" y="-44.5" font-family="Helvetica,sans-Serif" font-size="10.00">remove_trailing_zeros</text>
</a>
</g>
</g>
<!-- Node1&#45;&gt;Node3 -->
<g id="edge2_Node000001_Node000003" class="edge">
<title>Node1&#45;&gt;Node3</title>
<g id="a_edge2_Node000001_Node000003"><a xlink:title=" ">
<path fill="none" stroke="#63b8ff" d="M125.43,-52.5C133.67,-52.5 142.18,-52.5 150.58,-52.5"/>
<polygon fill="#63b8ff" stroke="#63b8ff" points="150.74,-56 160.74,-52.5 150.74,-49 150.74,-56"/>
</a>
</g>
</g>
<!-- Node5 -->
<g id="Node000005" class="node">
<title>Node5</title>
<g id="a_Node000005"><a xlink:href="namespacedetail.html#ae67a13908245be090372f152d0994e8e" target="_top" xlink:title=" ">
<polygon fill="white" stroke="#666666" points="257.5,-19 189.5,-19 189.5,0 257.5,0 257.5,-19"/>
<text text-anchor="middle" x="223.5" y="-7" font-family="Helvetica,sans-Serif" font-size="10.00">detail::rotr</text>
</a>
</g>
</g>
<!-- Node1&#45;&gt;Node5 -->
<g id="edge5_Node000001_Node000005" class="edge">
<title>Node1&#45;&gt;Node5</title>
<g id="a_edge5_Node000001_Node000005"><a xlink:title=" ">
<path fill="none" stroke="#63b8ff" d="M119.11,-37.46C139,-32.08 161.09,-26.11 179.72,-21.07"/>
<polygon fill="#63b8ff" stroke="#63b8ff" points="180.66,-24.44 189.4,-18.45 178.84,-17.68 180.66,-24.44"/>
</a>
</g>
</g>
<!-- Node3&#45;&gt;Node2 -->
<g id="edge3_Node000003_Node000002" class="edge">
<title>Node3&#45;&gt;Node2</title>
<g id="a_edge3_Node000003_Node000002"><a xlink:title=" ">
<path fill="none" stroke="#63b8ff" d="M280.22,-67.51C295.87,-71.72 312.69,-76.25 327.65,-80.28"/>
<polygon fill="#63b8ff" stroke="#63b8ff" points="327.11,-83.76 337.68,-82.99 328.93,-77 327.11,-83.76"/>
</a>
</g>
</g>
<!-- Node4 -->
<g id="Node000004" class="node">
<title>Node4</title>
<g id="a_Node000004"><a xlink:href="namespacedetail.html#a0206c9aa21660a7151d800474b0aba4f" target="_top" xlink:title=" ">
<polygon fill="white" stroke="#666666" points="408,-62 340,-62 340,-43 408,-43 408,-62"/>
<text text-anchor="middle" x="374" y="-50" font-family="Helvetica,sans-Serif" font-size="10.00">detail::rotr</text>
</a>
</g>
</g>
<!-- Node3&#45;&gt;Node4 -->
<g id="edge4_Node000003_Node000004" class="edge">
<title>Node3&#45;&gt;Node4</title>
<g id="a_edge4_Node000003_Node000004"><a xlink:title=" ">
<path fill="none" stroke="#63b8ff" d="M286.19,-52.5C300.79,-52.5 316.07,-52.5 329.66,-52.5"/>
<polygon fill="#63b8ff" stroke="#63b8ff" points="329.68,-56 339.68,-52.5 329.68,-49 329.68,-56"/>
</a>
</g>
</g>
</g>
</svg>
