<?xml version="1.0" encoding="UTF-8" standalone="no"?>
<!DOCTYPE svg PUBLIC "-//W3C//DTD SVG 1.1//EN"
 "http://www.w3.org/Graphics/SVG/1.1/DTD/svg11.dtd">
<!-- Generated by graphviz version 2.43.0 (0)
 -->
<!-- Title: detail::parse_format_specs Pages: 1 -->
<svg width="294pt" height="86pt"
 viewBox="0.00 0.00 294.00 86.00" xmlns="http://www.w3.org/2000/svg" xmlns:xlink="http://www.w3.org/1999/xlink">
<g id="graph0" class="graph" transform="scale(1 1) rotate(0) translate(4 82)">
<title>detail::parse_format_specs</title>
<!-- Node1 -->
<g id="Node000001" class="node">
<title>Node1</title>
<g id="a_Node000001"><a xlink:title=" ">
<polygon fill="#999999" stroke="#666666" points="286,-54 170,-54 170,-24 286,-24 286,-54"/>
<text text-anchor="start" x="178" y="-42" font-family="Helvetica,sans-Serif" font-size="10.00">detail::parse_format</text>
<text text-anchor="middle" x="228" y="-31" font-family="Helvetica,sans-Serif" font-size="10.00">_specs</text>
</a>
</g>
</g>
<!-- Node2 -->
<g id="Node000002" class="node">
<title>Node2</title>
<g id="a_Node000002"><a xlink:href="structformatter_3_01bytes_01_4.html#aea6a86c93b8c788b275fcccb7a841123" target="_top" xlink:title=" ">
<polygon fill="white" stroke="#666666" points="123.5,-78 10.5,-78 10.5,-48 123.5,-48 123.5,-78"/>
<text text-anchor="start" x="18.5" y="-66" font-family="Helvetica,sans-Serif" font-size="10.00">formatter&lt; bytes &gt;</text>
<text text-anchor="middle" x="67" y="-55" font-family="Helvetica,sans-Serif" font-size="10.00">::parse</text>
</a>
</g>
</g>
<!-- Node1&#45;&gt;Node2 -->
<g id="edge1_Node000001_Node000002" class="edge">
<title>Node1&#45;&gt;Node2</title>
<g id="a_edge1_Node000001_Node000002"><a xlink:title=" ">
<path fill="none" stroke="#63b8ff" d="M159.65,-49.17C147.68,-50.97 135.33,-52.84 123.72,-54.59"/>
<polygon fill="#63b8ff" stroke="#63b8ff" points="160.23,-52.62 169.6,-47.66 159.19,-45.7 160.23,-52.62"/>
</a>
</g>
</g>
<!-- Node3 -->
<g id="Node000003" class="node">
<title>Node3</title>
<g id="a_Node000003"><a xlink:href="structformatter_3_01group__digits__view_3_01T_01_4_01_4.html#a226542969556b083f4f036307760a958" target="_top" xlink:title=" ">
<polygon fill="white" stroke="#666666" points="134,-30 0,-30 0,0 134,0 134,-30"/>
<text text-anchor="start" x="8" y="-18" font-family="Helvetica,sans-Serif" font-size="10.00">formatter&lt; group_digits</text>
<text text-anchor="middle" x="67" y="-7" font-family="Helvetica,sans-Serif" font-size="10.00">_view&lt; T &gt; &gt;::parse</text>
</a>
</g>
</g>
<!-- Node1&#45;&gt;Node3 -->
<g id="edge2_Node000001_Node000003" class="edge">
<title>Node1&#45;&gt;Node3</title>
<g id="a_edge2_Node000001_Node000003"><a xlink:title=" ">
<path fill="none" stroke="#63b8ff" d="M159.5,-28.81C151.14,-27.55 142.59,-26.26 134.24,-25"/>
<polygon fill="#63b8ff" stroke="#63b8ff" points="159.19,-32.3 169.6,-30.34 160.23,-25.38 159.19,-32.3"/>
</a>
</g>
</g>
</g>
</svg>
