<?xml version="1.0" encoding="UTF-8" standalone="no"?>
<!DOCTYPE svg PUBLIC "-//W3C//DTD SVG 1.1//EN"
 "http://www.w3.org/Graphics/SVG/1.1/DTD/svg11.dtd">
<!-- Generated by graphviz version 2.43.0 (0)
 -->
<!-- Title: detail::count_digits Pages: 1 -->
<svg width="655pt" height="316pt"
 viewBox="0.00 0.00 655.00 315.50" xmlns="http://www.w3.org/2000/svg" xmlns:xlink="http://www.w3.org/1999/xlink">
<g id="graph0" class="graph" transform="scale(1 1) rotate(0) translate(4 311.5)">
<title>detail::count_digits</title>
<!-- Node1 -->
<g id="Node000001" class="node">
<title>Node1</title>
<g id="a_Node000001"><a xlink:title=" ">
<polygon fill="#999999" stroke="#666666" points="647,-189.5 537,-189.5 537,-170.5 647,-170.5 647,-189.5"/>
<text text-anchor="middle" x="592" y="-177.5" font-family="Helvetica,sans-Serif" font-size="10.00">detail::count_digits</text>
</a>
</g>
</g>
<!-- Node2 -->
<g id="Node000002" class="node">
<title>Node2</title>
<g id="a_Node000002"><a xlink:href="namespacedetail.html#a609d7411f77817f2def78afbbfdda40e" target="_top" xlink:title=" ">
<polygon fill="white" stroke="#666666" points="499.5,-277.5 359.5,-277.5 359.5,-258.5 499.5,-258.5 499.5,-277.5"/>
<text text-anchor="middle" x="429.5" y="-265.5" font-family="Helvetica,sans-Serif" font-size="10.00">detail::format_error_code</text>
</a>
</g>
</g>
<!-- Node1&#45;&gt;Node2 -->
<g id="edge1_Node000001_Node000002" class="edge">
<title>Node1&#45;&gt;Node2</title>
<g id="a_edge1_Node000001_Node000002"><a xlink:title=" ">
<path fill="none" stroke="#63b8ff" d="M564.45,-194.56C531.44,-212.65 476.05,-243.03 447.96,-258.43"/>
<polygon fill="#63b8ff" stroke="#63b8ff" points="566.43,-197.46 573.52,-189.59 563.07,-191.32 566.43,-197.46"/>
</a>
</g>
</g>
<!-- Node5 -->
<g id="Node000005" class="node">
<title>Node5</title>
<g id="a_Node000005"><a xlink:href="namespacedetail.html#a718888554bf1561a88969b304e570395" target="_top" xlink:title=" ">
<polygon fill="white" stroke="#666666" points="493.5,-211.5 365.5,-211.5 365.5,-192.5 493.5,-192.5 493.5,-211.5"/>
<text text-anchor="middle" x="429.5" y="-199.5" font-family="Helvetica,sans-Serif" font-size="10.00">detail::format_hexfloat</text>
</a>
</g>
</g>
<!-- Node1&#45;&gt;Node5 -->
<g id="edge4_Node000001_Node000005" class="edge">
<title>Node1&#45;&gt;Node5</title>
<g id="a_edge4_Node000001_Node000005"><a xlink:title=" ">
<path fill="none" stroke="#63b8ff" d="M526.44,-188.85C515.63,-190.33 504.42,-191.87 493.65,-193.34"/>
<polygon fill="#63b8ff" stroke="#63b8ff" points="527.23,-192.27 536.66,-187.45 526.28,-185.34 527.23,-192.27"/>
</a>
</g>
</g>
<!-- Node6 -->
<g id="Node000006" class="node">
<title>Node6</title>
<g id="a_Node000006"><a xlink:href="structdetail_1_1duration__formatter.html#a05833dd5c29a4b5991f31b3907f7c793" target="_top" xlink:title=" ">
<polygon fill="white" stroke="#666666" points="501,-174 358,-174 358,-144 501,-144 501,-174"/>
<text text-anchor="start" x="366" y="-162" font-family="Helvetica,sans-Serif" font-size="10.00">detail::duration_formatter</text>
<text text-anchor="middle" x="429.5" y="-151" font-family="Helvetica,sans-Serif" font-size="10.00">::write</text>
</a>
</g>
</g>
<!-- Node1&#45;&gt;Node6 -->
<g id="edge5_Node000001_Node000006" class="edge">
<title>Node1&#45;&gt;Node6</title>
<g id="a_edge5_Node000001_Node000006"><a xlink:title=" ">
<path fill="none" stroke="#63b8ff" d="M526.63,-171.58C518.3,-170.49 509.72,-169.37 501.28,-168.26"/>
<polygon fill="#63b8ff" stroke="#63b8ff" points="526.29,-175.06 536.66,-172.89 527.2,-168.12 526.29,-175.06"/>
</a>
</g>
</g>
<!-- Node14 -->
<g id="Node000014" class="node">
<title>Node14</title>
<g id="a_Node000014"><a xlink:href="namespacedetail.html#a9b8558a7dd3fae49bbf1aa59becad362" target="_top" xlink:title=" ">
<polygon fill="white" stroke="#666666" points="492.5,-125.5 366.5,-125.5 366.5,-106.5 492.5,-106.5 492.5,-125.5"/>
<text text-anchor="middle" x="429.5" y="-113.5" font-family="Helvetica,sans-Serif" font-size="10.00">detail::write_exponent</text>
</a>
</g>
</g>
<!-- Node1&#45;&gt;Node14 -->
<g id="edge14_Node000001_Node000014" class="edge">
<title>Node1&#45;&gt;Node14</title>
<g id="a_edge14_Node000001_Node000014"><a xlink:title=" ">
<path fill="none" stroke="#63b8ff" d="M565.12,-165.32C547.46,-155.74 523.32,-143.49 501,-135 491.64,-131.44 481.34,-128.27 471.58,-125.58"/>
<polygon fill="#63b8ff" stroke="#63b8ff" points="563.76,-168.57 574.21,-170.32 567.14,-162.43 563.76,-168.57"/>
</a>
</g>
</g>
<!-- Node3 -->
<g id="Node000003" class="node">
<title>Node3</title>
<g id="a_Node000003"><a xlink:href="format-inl_8h.html#a7f93bbdee51ea567c2cdf8532c0c1fc1" target="_top" xlink:title=" ">
<polygon fill="white" stroke="#666666" points="310,-307.5 191,-307.5 191,-288.5 310,-288.5 310,-307.5"/>
<text text-anchor="middle" x="250.5" y="-295.5" font-family="Helvetica,sans-Serif" font-size="10.00">format_system_error</text>
</a>
</g>
</g>
<!-- Node2&#45;&gt;Node3 -->
<g id="edge2_Node000002_Node000003" class="edge">
<title>Node2&#45;&gt;Node3</title>
<g id="a_edge2_Node000002_Node000003"><a xlink:title=" ">
<path fill="none" stroke="#63b8ff" d="M361.71,-279.32C343.93,-282.33 324.91,-285.56 307.76,-288.46"/>
<polygon fill="#63b8ff" stroke="#63b8ff" points="362.73,-282.7 372.01,-277.57 361.57,-275.8 362.73,-282.7"/>
</a>
</g>
</g>
<!-- Node4 -->
<g id="Node000004" class="node">
<title>Node4</title>
<g id="a_Node000004"><a xlink:href="format-inl_8h.html#af135c0ecc93e827e4ef51b18a4b0da74" target="_top" xlink:title=" ">
<polygon fill="white" stroke="#666666" points="129.5,-307.5 13.5,-307.5 13.5,-288.5 129.5,-288.5 129.5,-307.5"/>
<text text-anchor="middle" x="71.5" y="-295.5" font-family="Helvetica,sans-Serif" font-size="10.00">report_system_error</text>
</a>
</g>
</g>
<!-- Node3&#45;&gt;Node4 -->
<g id="edge3_Node000003_Node000004" class="edge">
<title>Node3&#45;&gt;Node4</title>
<g id="a_edge3_Node000003_Node000004"><a xlink:title=" ">
<path fill="none" stroke="#63b8ff" d="M180.28,-298C163.53,-298 145.81,-298 129.68,-298"/>
<polygon fill="#63b8ff" stroke="#63b8ff" points="180.56,-301.5 190.56,-298 180.56,-294.5 180.56,-301.5"/>
</a>
</g>
</g>
<!-- Node7 -->
<g id="Node000007" class="node">
<title>Node7</title>
<g id="a_Node000007"><a xlink:href="structdetail_1_1duration__formatter.html#a826af0d208367e0816601e6fe710665d" target="_top" xlink:title=" ">
<polygon fill="white" stroke="#666666" points="322,-270 179,-270 179,-240 322,-240 322,-270"/>
<text text-anchor="start" x="187" y="-258" font-family="Helvetica,sans-Serif" font-size="10.00">detail::duration_formatter</text>
<text text-anchor="middle" x="250.5" y="-247" font-family="Helvetica,sans-Serif" font-size="10.00">::on_12_hour</text>
</a>
</g>
</g>
<!-- Node6&#45;&gt;Node7 -->
<g id="edge6_Node000006_Node000007" class="edge">
<title>Node6&#45;&gt;Node7</title>
<g id="a_edge6_Node000006_Node000007"><a xlink:title=" ">
<path fill="none" stroke="#63b8ff" d="M366.3,-178.67C363.41,-180.31 360.63,-182.09 358,-184 336.72,-199.48 343.37,-215.66 322,-231 317.27,-234.39 312.03,-237.33 306.6,-239.88"/>
<polygon fill="#63b8ff" stroke="#63b8ff" points="367.92,-181.77 375.22,-174.09 364.72,-175.54 367.92,-181.77"/>
</a>
</g>
</g>
<!-- Node8 -->
<g id="Node000008" class="node">
<title>Node8</title>
<g id="a_Node000008"><a xlink:href="structdetail_1_1duration__formatter.html#ae0a16e2a89a6aaa61d36dc069d70421f" target="_top" xlink:title=" ">
<polygon fill="white" stroke="#666666" points="322,-222 179,-222 179,-192 322,-192 322,-222"/>
<text text-anchor="start" x="187" y="-210" font-family="Helvetica,sans-Serif" font-size="10.00">detail::duration_formatter</text>
<text text-anchor="middle" x="250.5" y="-199" font-family="Helvetica,sans-Serif" font-size="10.00">::on_24_hour</text>
</a>
</g>
</g>
<!-- Node6&#45;&gt;Node8 -->
<g id="edge7_Node000006_Node000008" class="edge">
<title>Node6&#45;&gt;Node8</title>
<g id="a_edge7_Node000006_Node000008"><a xlink:title=" ">
<path fill="none" stroke="#63b8ff" d="M363.16,-176.72C344.65,-181.74 324.68,-187.15 306.82,-192"/>
<polygon fill="#63b8ff" stroke="#63b8ff" points="364.25,-180.05 372.98,-174.06 362.41,-173.3 364.25,-180.05"/>
</a>
</g>
</g>
<!-- Node9 -->
<g id="Node000009" class="node">
<title>Node9</title>
<g id="a_Node000009"><a xlink:href="structdetail_1_1duration__formatter.html#a46f7670012d8edd7186c2961725c8894" target="_top" xlink:title=" ">
<polygon fill="white" stroke="#666666" points="322,-174 179,-174 179,-144 322,-144 322,-174"/>
<text text-anchor="start" x="187" y="-162" font-family="Helvetica,sans-Serif" font-size="10.00">detail::duration_formatter</text>
<text text-anchor="middle" x="250.5" y="-151" font-family="Helvetica,sans-Serif" font-size="10.00">::on_24_hour_time</text>
</a>
</g>
</g>
<!-- Node6&#45;&gt;Node9 -->
<g id="edge8_Node000006_Node000009" class="edge">
<title>Node6&#45;&gt;Node9</title>
<g id="a_edge8_Node000006_Node000009"><a xlink:title=" ">
<path fill="none" stroke="#63b8ff" d="M347.51,-159C339.03,-159 330.46,-159 322.11,-159"/>
<polygon fill="#63b8ff" stroke="#63b8ff" points="347.78,-162.5 357.78,-159 347.78,-155.5 347.78,-162.5"/>
</a>
</g>
</g>
<!-- Node11 -->
<g id="Node000011" class="node">
<title>Node11</title>
<g id="a_Node000011"><a xlink:href="structdetail_1_1duration__formatter.html#a27bb9bcca257513d9966428a0d705089" target="_top" xlink:title=" ">
<polygon fill="white" stroke="#666666" points="322,-126 179,-126 179,-96 322,-96 322,-126"/>
<text text-anchor="start" x="187" y="-114" font-family="Helvetica,sans-Serif" font-size="10.00">detail::duration_formatter</text>
<text text-anchor="middle" x="250.5" y="-103" font-family="Helvetica,sans-Serif" font-size="10.00">::on_day_of_year</text>
</a>
</g>
</g>
<!-- Node6&#45;&gt;Node11 -->
<g id="edge10_Node000006_Node000011" class="edge">
<title>Node6&#45;&gt;Node11</title>
<g id="a_edge10_Node000006_Node000011"><a xlink:title=" ">
<path fill="none" stroke="#63b8ff" d="M363.16,-141.28C344.65,-136.26 324.68,-130.85 306.82,-126"/>
<polygon fill="#63b8ff" stroke="#63b8ff" points="362.41,-144.7 372.98,-143.94 364.25,-137.95 362.41,-144.7"/>
</a>
</g>
</g>
<!-- Node12 -->
<g id="Node000012" class="node">
<title>Node12</title>
<g id="a_Node000012"><a xlink:href="structdetail_1_1duration__formatter.html#abe4a8e5797458144ae64f6c10ede01f1" target="_top" xlink:title=" ">
<polygon fill="white" stroke="#666666" points="322,-78 179,-78 179,-48 322,-48 322,-78"/>
<text text-anchor="start" x="187" y="-66" font-family="Helvetica,sans-Serif" font-size="10.00">detail::duration_formatter</text>
<text text-anchor="middle" x="250.5" y="-55" font-family="Helvetica,sans-Serif" font-size="10.00">::on_minute</text>
</a>
</g>
</g>
<!-- Node6&#45;&gt;Node12 -->
<g id="edge11_Node000006_Node000012" class="edge">
<title>Node6&#45;&gt;Node12</title>
<g id="a_edge11_Node000006_Node000012"><a xlink:title=" ">
<path fill="none" stroke="#63b8ff" d="M364.45,-139.23C362.22,-137.9 360.06,-136.49 358,-135 336.42,-119.34 343.58,-102.66 322,-87 317.29,-83.58 312.06,-80.63 306.63,-78.07"/>
<polygon fill="#63b8ff" stroke="#63b8ff" points="362.89,-142.36 373.37,-143.93 366.16,-136.17 362.89,-142.36"/>
</a>
</g>
</g>
<!-- Node13 -->
<g id="Node000013" class="node">
<title>Node13</title>
<g id="a_Node000013"><a xlink:href="structdetail_1_1duration__formatter.html#a5eaa3651f2774bf273f23c4a6cb232a2" target="_top" xlink:title=" ">
<polygon fill="white" stroke="#666666" points="322,-30 179,-30 179,0 322,0 322,-30"/>
<text text-anchor="start" x="187" y="-18" font-family="Helvetica,sans-Serif" font-size="10.00">detail::duration_formatter</text>
<text text-anchor="middle" x="250.5" y="-7" font-family="Helvetica,sans-Serif" font-size="10.00">::on_second</text>
</a>
</g>
</g>
<!-- Node6&#45;&gt;Node13 -->
<g id="edge12_Node000006_Node000013" class="edge">
<title>Node6&#45;&gt;Node13</title>
<g id="a_edge12_Node000006_Node000013"><a xlink:title=" ">
<path fill="none" stroke="#63b8ff" d="M361.45,-138.07C360.25,-137.09 359.1,-136.07 358,-135 325.29,-103.28 354.71,-70.72 322,-39 318.47,-35.58 314.44,-32.65 310.13,-30.13"/>
<polygon fill="#63b8ff" stroke="#63b8ff" points="359.65,-141.08 369.87,-143.87 363.62,-135.31 359.65,-141.08"/>
</a>
</g>
</g>
<!-- Node10 -->
<g id="Node000010" class="node">
<title>Node10</title>
<g id="a_Node000010"><a xlink:href="structdetail_1_1duration__formatter.html#a8044d0b686a0080acbb954da3cab168d" target="_top" xlink:title=" ">
<polygon fill="white" stroke="#666666" points="143,-102 0,-102 0,-72 143,-72 143,-102"/>
<text text-anchor="start" x="8" y="-90" font-family="Helvetica,sans-Serif" font-size="10.00">detail::duration_formatter</text>
<text text-anchor="middle" x="71.5" y="-79" font-family="Helvetica,sans-Serif" font-size="10.00">::on_iso_time</text>
</a>
</g>
</g>
<!-- Node9&#45;&gt;Node10 -->
<g id="edge9_Node000009_Node000010" class="edge">
<title>Node9&#45;&gt;Node10</title>
<g id="a_edge9_Node000009_Node000010"><a xlink:title=" ">
<path fill="none" stroke="#63b8ff" d="M193.52,-140.49C188.59,-138.69 183.69,-136.85 179,-135 153.34,-124.88 124.89,-111.96 103.85,-102.08"/>
<polygon fill="#63b8ff" stroke="#63b8ff" points="192.41,-143.81 203,-143.87 194.76,-137.22 192.41,-143.81"/>
</a>
</g>
</g>
<!-- Node13&#45;&gt;Node10 -->
<g id="edge13_Node000013_Node000010" class="edge">
<title>Node13&#45;&gt;Node10</title>
<g id="a_edge13_Node000013_Node000010"><a xlink:title=" ">
<path fill="none" stroke="#63b8ff" d="M193.52,-33.51C188.59,-35.31 183.69,-37.15 179,-39 153.34,-49.12 124.89,-62.04 103.85,-71.92"/>
<polygon fill="#63b8ff" stroke="#63b8ff" points="194.76,-36.78 203,-30.13 192.41,-30.19 194.76,-36.78"/>
</a>
</g>
</g>
</g>
</svg>
