<?xml version="1.0" encoding="UTF-8" standalone="no"?>
<!DOCTYPE svg PUBLIC "-//W3C//DTD SVG 1.1//EN"
 "http://www.w3.org/Graphics/SVG/1.1/DTD/svg11.dtd">
<!-- Generated by graphviz version 2.43.0 (0)
 -->
<!-- Title: detail::dragonbox::umul192_lower128 Pages: 1 -->
<svg width="434pt" height="140pt"
 viewBox="0.00 0.00 434.00 140.00" xmlns="http://www.w3.org/2000/svg" xmlns:xlink="http://www.w3.org/1999/xlink">
<g id="graph0" class="graph" transform="scale(1 1) rotate(0) translate(4 136)">
<title>detail::dragonbox::umul192_lower128</title>
<!-- Node1 -->
<g id="Node000001" class="node">
<title>Node1</title>
<g id="a_Node000001"><a xlink:title=" ">
<polygon fill="#999999" stroke="#666666" points="110,-81.5 0,-81.5 0,-51.5 110,-51.5 110,-81.5"/>
<text text-anchor="start" x="8" y="-69.5" font-family="Helvetica,sans-Serif" font-size="10.00">detail::dragonbox::</text>
<text text-anchor="middle" x="55" y="-58.5" font-family="Helvetica,sans-Serif" font-size="10.00">umul192_lower128</text>
</a>
</g>
</g>
<!-- Node2 -->
<g id="Node000002" class="node">
<title>Node2</title>
<g id="a_Node000002"><a xlink:href="classdetail_1_1uint128.html#a4f6fce63fc851baef913a020abe8e961" target="_top" xlink:title=" ">
<polygon fill="white" stroke="#666666" points="260,-132 146,-132 146,-113 260,-113 260,-132"/>
<text text-anchor="middle" x="203" y="-120" font-family="Helvetica,sans-Serif" font-size="10.00">detail::uint128::high</text>
</a>
</g>
</g>
<!-- Node1&#45;&gt;Node2 -->
<g id="edge1_Node000001_Node000002" class="edge">
<title>Node1&#45;&gt;Node2</title>
<g id="a_edge1_Node000001_Node000002"><a xlink:title=" ">
<path fill="none" stroke="#63b8ff" d="M89.91,-81.65C106.65,-88.92 127.24,-97.54 146,-104.5 150.84,-106.3 155.96,-108.09 161.05,-109.8"/>
<polygon fill="#63b8ff" stroke="#63b8ff" points="160.14,-113.19 170.73,-112.99 162.33,-106.54 160.14,-113.19"/>
</a>
</g>
</g>
<!-- Node3 -->
<g id="Node000003" class="node">
<title>Node3</title>
<g id="a_Node000003"><a xlink:href="classdetail_1_1uint128.html#ad78164a856629bbf7f8111f518ce5cbd" target="_top" xlink:title=" ">
<polygon fill="white" stroke="#666666" points="258,-95 148,-95 148,-76 258,-76 258,-95"/>
<text text-anchor="middle" x="203" y="-83" font-family="Helvetica,sans-Serif" font-size="10.00">detail::uint128::low</text>
</a>
</g>
</g>
<!-- Node1&#45;&gt;Node3 -->
<g id="edge2_Node000001_Node000003" class="edge">
<title>Node1&#45;&gt;Node3</title>
<g id="a_edge2_Node000001_Node000003"><a xlink:title=" ">
<path fill="none" stroke="#63b8ff" d="M110.37,-73.57C119.2,-74.72 128.43,-75.93 137.48,-77.1"/>
<polygon fill="#63b8ff" stroke="#63b8ff" points="137.22,-80.6 147.59,-78.42 138.12,-73.66 137.22,-80.6"/>
</a>
</g>
</g>
<!-- Node4 -->
<g id="Node000004" class="node">
<title>Node4</title>
<g id="a_Node000004"><a xlink:href="classdetail_1_1uint128.html#a31da8740f7bc5629bda4b1be76041612" target="_top" xlink:title=" ">
<polygon fill="white" stroke="#666666" points="426,-38 296,-38 296,-19 426,-19 426,-38"/>
<text text-anchor="middle" x="361" y="-26" font-family="Helvetica,sans-Serif" font-size="10.00">detail::uint128::uint128</text>
</a>
</g>
</g>
<!-- Node1&#45;&gt;Node4 -->
<g id="edge3_Node000001_Node000004" class="edge">
<title>Node1&#45;&gt;Node4</title>
<g id="a_edge3_Node000001_Node000004"><a xlink:title=" ">
<path fill="none" stroke="#63b8ff" d="M110.35,-59.71C159.2,-53.6 231.4,-44.58 285.6,-37.8"/>
<polygon fill="#63b8ff" stroke="#63b8ff" points="286.36,-41.23 295.85,-36.52 285.49,-34.29 286.36,-41.23"/>
</a>
</g>
</g>
<!-- Node5 -->
<g id="Node000005" class="node">
<title>Node5</title>
<g id="a_Node000005"><a xlink:href="namespacedetail.html#a79d19c16611e9ed84eb710d8380f9199" target="_top" xlink:title=" ">
<polygon fill="white" stroke="#666666" points="249.5,-19 156.5,-19 156.5,0 249.5,0 249.5,-19"/>
<text text-anchor="middle" x="203" y="-7" font-family="Helvetica,sans-Serif" font-size="10.00">detail::umul128</text>
</a>
</g>
</g>
<!-- Node1&#45;&gt;Node5 -->
<g id="edge4_Node000001_Node000005" class="edge">
<title>Node1&#45;&gt;Node5</title>
<g id="a_edge4_Node000001_Node000005"><a xlink:title=" ">
<path fill="none" stroke="#63b8ff" d="M94.74,-51.37C117.45,-42.51 145.88,-31.41 167.77,-22.86"/>
<polygon fill="#63b8ff" stroke="#63b8ff" points="169.27,-26.03 177.32,-19.14 166.73,-19.51 169.27,-26.03"/>
</a>
</g>
</g>
<!-- Node5&#45;&gt;Node4 -->
<g id="edge5_Node000005_Node000004" class="edge">
<title>Node5&#45;&gt;Node4</title>
<g id="a_edge5_Node000005_Node000004"><a xlink:title=" ">
<path fill="none" stroke="#63b8ff" d="M249.54,-15.05C260.85,-16.42 273.27,-17.94 285.57,-19.44"/>
<polygon fill="#63b8ff" stroke="#63b8ff" points="285.5,-22.95 295.85,-20.69 286.35,-16 285.5,-22.95"/>
</a>
</g>
</g>
</g>
</svg>
