<?xml version="1.0" encoding="UTF-8" standalone="no"?>
<!DOCTYPE svg PUBLIC "-//W3C//DTD SVG 1.1//EN"
 "http://www.w3.org/Graphics/SVG/1.1/DTD/svg11.dtd">
<!-- Generated by graphviz version 2.43.0 (0)
 -->
<!-- Title: detail::check_char_specs Pages: 1 -->
<svg width="254pt" height="175pt"
 viewBox="0.00 0.00 254.00 175.00" xmlns="http://www.w3.org/2000/svg" xmlns:xlink="http://www.w3.org/1999/xlink">
<g id="graph0" class="graph" transform="scale(1 1) rotate(0) translate(4 171)">
<title>detail::check_char_specs</title>
<!-- Node1 -->
<g id="Node000001" class="node">
<title>Node1</title>
<g id="a_Node000001"><a xlink:title=" ">
<polygon fill="#999999" stroke="#666666" points="105,-98.5 0,-98.5 0,-68.5 105,-68.5 105,-98.5"/>
<text text-anchor="start" x="8" y="-86.5" font-family="Helvetica,sans-Serif" font-size="10.00">detail::check_char</text>
<text text-anchor="middle" x="52.5" y="-75.5" font-family="Helvetica,sans-Serif" font-size="10.00">_specs</text>
</a>
</g>
</g>
<!-- Node2 -->
<g id="Node000002" class="node">
<title>Node2</title>
<g id="a_Node000002"><a xlink:href="classbasic__specs.html#a1ac4f03f18142c3a2ae6e709833b5e47" target="_top" xlink:title=" ">
<polygon fill="white" stroke="#666666" points="246,-167 141,-167 141,-148 246,-148 246,-167"/>
<text text-anchor="middle" x="193.5" y="-155" font-family="Helvetica,sans-Serif" font-size="10.00">basic_specs::align</text>
</a>
</g>
</g>
<!-- Node1&#45;&gt;Node2 -->
<g id="edge1_Node000001_Node000002" class="edge">
<title>Node1&#45;&gt;Node2</title>
<g id="a_edge1_Node000001_Node000002"><a xlink:title=" ">
<path fill="none" stroke="#63b8ff" d="M73.92,-98.51C91.16,-110.7 116.83,-127.74 141,-139.5 144.54,-141.22 148.29,-142.86 152.08,-144.39"/>
<polygon fill="#63b8ff" stroke="#63b8ff" points="150.93,-147.7 161.52,-147.99 153.42,-141.16 150.93,-147.7"/>
</a>
</g>
</g>
<!-- Node3 -->
<g id="Node000003" class="node">
<title>Node3</title>
<g id="a_Node000003"><a xlink:href="classbasic__specs.html#aba82b10e634cd4cf7a2d107efc8269c8" target="_top" xlink:title=" ">
<polygon fill="white" stroke="#666666" points="240.5,-130 146.5,-130 146.5,-111 240.5,-111 240.5,-130"/>
<text text-anchor="middle" x="193.5" y="-118" font-family="Helvetica,sans-Serif" font-size="10.00">basic_specs::alt</text>
</a>
</g>
</g>
<!-- Node1&#45;&gt;Node3 -->
<g id="edge2_Node000001_Node000003" class="edge">
<title>Node1&#45;&gt;Node3</title>
<g id="a_edge2_Node000001_Node000003"><a xlink:title=" ">
<path fill="none" stroke="#63b8ff" d="M105.26,-97.28C118.91,-100.91 133.55,-104.81 146.85,-108.35"/>
<polygon fill="#63b8ff" stroke="#63b8ff" points="146.17,-111.79 156.73,-110.98 147.97,-105.02 146.17,-111.79"/>
</a>
</g>
</g>
<!-- Node4 -->
<g id="Node000004" class="node">
<title>Node4</title>
<g id="a_Node000004"><a xlink:href="format-inl_8h.html#a5555893692b00b61b3886349332fd01f" target="_top" xlink:title=" ">
<polygon fill="white" stroke="#666666" points="230.5,-93 156.5,-93 156.5,-74 230.5,-74 230.5,-93"/>
<text text-anchor="middle" x="193.5" y="-81" font-family="Helvetica,sans-Serif" font-size="10.00">report_error</text>
</a>
</g>
</g>
<!-- Node1&#45;&gt;Node4 -->
<g id="edge3_Node000001_Node000004" class="edge">
<title>Node1&#45;&gt;Node4</title>
<g id="a_edge3_Node000001_Node000004"><a xlink:title=" ">
<path fill="none" stroke="#63b8ff" d="M105.26,-83.5C118.66,-83.5 133,-83.5 146.1,-83.5"/>
<polygon fill="#63b8ff" stroke="#63b8ff" points="146.31,-87 156.31,-83.5 146.31,-80 146.31,-87"/>
</a>
</g>
</g>
<!-- Node5 -->
<g id="Node000005" class="node">
<title>Node5</title>
<g id="a_Node000005"><a xlink:href="classbasic__specs.html#a380e6ff33a8ae05e3ef479bf95696ad2" target="_top" xlink:title=" ">
<polygon fill="white" stroke="#666666" points="244,-56 143,-56 143,-37 244,-37 244,-56"/>
<text text-anchor="middle" x="193.5" y="-44" font-family="Helvetica,sans-Serif" font-size="10.00">basic_specs::sign</text>
</a>
</g>
</g>
<!-- Node1&#45;&gt;Node5 -->
<g id="edge4_Node000001_Node000005" class="edge">
<title>Node1&#45;&gt;Node5</title>
<g id="a_edge4_Node000001_Node000005"><a xlink:title=" ">
<path fill="none" stroke="#63b8ff" d="M105.26,-69.72C118.91,-66.09 133.55,-62.19 146.85,-58.65"/>
<polygon fill="#63b8ff" stroke="#63b8ff" points="147.97,-61.98 156.73,-56.02 146.17,-55.21 147.97,-61.98"/>
</a>
</g>
</g>
<!-- Node6 -->
<g id="Node000006" class="node">
<title>Node6</title>
<g id="a_Node000006"><a xlink:href="classbasic__specs.html#ab451ba98e651e28feab471f1871f1e5c" target="_top" xlink:title=" ">
<polygon fill="white" stroke="#666666" points="245,-19 142,-19 142,0 245,0 245,-19"/>
<text text-anchor="middle" x="193.5" y="-7" font-family="Helvetica,sans-Serif" font-size="10.00">basic_specs::type</text>
</a>
</g>
</g>
<!-- Node1&#45;&gt;Node6 -->
<g id="edge5_Node000001_Node000006" class="edge">
<title>Node1&#45;&gt;Node6</title>
<g id="a_edge5_Node000001_Node000006"><a xlink:title=" ">
<path fill="none" stroke="#63b8ff" d="M74.71,-68.41C92,-56.55 117.33,-40.15 141,-28.5 145.1,-26.48 149.48,-24.55 153.88,-22.75"/>
<polygon fill="#63b8ff" stroke="#63b8ff" points="155.41,-25.91 163.45,-19.02 152.87,-19.39 155.41,-25.91"/>
</a>
</g>
</g>
</g>
</svg>
