<?xml version="1.0" encoding="UTF-8" standalone="no"?>
<!DOCTYPE svg PUBLIC "-//W3C//DTD SVG 1.1//EN"
 "http://www.w3.org/Graphics/SVG/1.1/DTD/svg11.dtd">
<!-- Generated by graphviz version 2.43.0 (0)
 -->
<!-- Title: detail::write Pages: 1 -->
<svg width="244pt" height="64pt"
 viewBox="0.00 0.00 244.00 64.00" xmlns="http://www.w3.org/2000/svg" xmlns:xlink="http://www.w3.org/1999/xlink">
<g id="graph0" class="graph" transform="scale(1 1) rotate(0) translate(4 60)">
<title>detail::write</title>
<!-- Node1 -->
<g id="Node000001" class="node">
<title>Node1</title>
<g id="a_Node000001"><a xlink:title=" ">
<polygon fill="#999999" stroke="#666666" points="75,-37 0,-37 0,-18 75,-18 75,-37"/>
<text text-anchor="middle" x="37.5" y="-25" font-family="Helvetica,sans-Serif" font-size="10.00">detail::write</text>
</a>
</g>
</g>
<!-- Node2 -->
<g id="Node000002" class="node">
<title>Node2</title>
<g id="a_Node000002"><a xlink:href="classbasic__specs.html#a700f8055a08c9202a43f3207d46c6035" target="_top" xlink:title=" ">
<polygon fill="white" stroke="#666666" points="236,-56 111,-56 111,-37 236,-37 236,-56"/>
<text text-anchor="middle" x="173.5" y="-44" font-family="Helvetica,sans-Serif" font-size="10.00">basic_specs::localized</text>
</a>
</g>
</g>
<!-- Node1&#45;&gt;Node2 -->
<g id="edge1_Node000001_Node000002" class="edge">
<title>Node1&#45;&gt;Node2</title>
<g id="a_edge1_Node000001_Node000002"><a xlink:title=" ">
<path fill="none" stroke="#63b8ff" d="M75.12,-32.69C83.17,-33.83 91.96,-35.08 100.86,-36.34"/>
<polygon fill="#63b8ff" stroke="#63b8ff" points="100.54,-39.83 110.93,-37.77 101.52,-32.9 100.54,-39.83"/>
</a>
</g>
</g>
<!-- Node3 -->
<g id="Node000003" class="node">
<title>Node3</title>
<g id="a_Node000003"><a xlink:href="classbasic__specs.html#a380e6ff33a8ae05e3ef479bf95696ad2" target="_top" xlink:title=" ">
<polygon fill="white" stroke="#666666" points="224,-19 123,-19 123,0 224,0 224,-19"/>
<text text-anchor="middle" x="173.5" y="-7" font-family="Helvetica,sans-Serif" font-size="10.00">basic_specs::sign</text>
</a>
</g>
</g>
<!-- Node1&#45;&gt;Node3 -->
<g id="edge2_Node000001_Node000003" class="edge">
<title>Node1&#45;&gt;Node3</title>
<g id="a_edge2_Node000001_Node000003"><a xlink:title=" ">
<path fill="none" stroke="#63b8ff" d="M75.12,-22.58C86.73,-21.02 99.9,-19.25 112.71,-17.53"/>
<polygon fill="#63b8ff" stroke="#63b8ff" points="113.42,-20.97 122.87,-16.17 112.49,-14.03 113.42,-20.97"/>
</a>
</g>
</g>
</g>
</svg>
