<?xml version="1.0" encoding="UTF-8" standalone="no"?>
<!DOCTYPE svg PUBLIC "-//W3C//DTD SVG 1.1//EN"
 "http://www.w3.org/Graphics/SVG/1.1/DTD/svg11.dtd">
<!-- Generated by graphviz version 2.43.0 (0)
 -->
<!-- Title: Magick::coderInfoList Pages: 1 -->
<svg width="335pt" height="257pt"
 viewBox="0.00 0.00 335.00 256.50" xmlns="http://www.w3.org/2000/svg" xmlns:xlink="http://www.w3.org/1999/xlink">
<g id="graph0" class="graph" transform="scale(1 1) rotate(0) translate(4 252.5)">
<title>Magick::coderInfoList</title>
<!-- Node1 -->
<g id="Node000001" class="node">
<title>Node1</title>
<g id="a_Node000001"><a xlink:title=" ">
<polygon fill="#999999" stroke="#666666" points="121,-123 0,-123 0,-104 121,-104 121,-123"/>
<text text-anchor="middle" x="60.5" y="-111" font-family="Helvetica,sans-Serif" font-size="10.00">Magick::coderInfoList</text>
</a>
</g>
</g>
<!-- Node2 -->
<g id="Node000002" class="node">
<title>Node2</title>
<g id="a_Node000002"><a xlink:href="classMagick_1_1CoderInfo.html#ade795be3af4663e89a487e1662635e23" target="_top" xlink:title=" ">
<polygon fill="white" stroke="#666666" points="297.5,-248.5 186.5,-248.5 186.5,-218.5 297.5,-218.5 297.5,-248.5"/>
<text text-anchor="start" x="194.5" y="-236.5" font-family="Helvetica,sans-Serif" font-size="10.00">Magick::CoderInfo::</text>
<text text-anchor="middle" x="242" y="-225.5" font-family="Helvetica,sans-Serif" font-size="10.00">CoderInfo</text>
</a>
</g>
</g>
<!-- Node1&#45;&gt;Node2 -->
<g id="edge1_Node000001_Node000002" class="edge">
<title>Node1&#45;&gt;Node2</title>
<g id="a_edge1_Node000001_Node000002"><a xlink:title=" ">
<path fill="none" stroke="#63b8ff" d="M68.46,-123.29C82.77,-142.7 117.52,-186.2 157,-209.5 163.2,-213.16 169.98,-216.28 176.92,-218.95"/>
<polygon fill="#63b8ff" stroke="#63b8ff" points="175.85,-222.28 186.44,-222.31 178.18,-215.68 175.85,-222.28"/>
</a>
</g>
</g>
<!-- Node3 -->
<g id="Node000003" class="node">
<title>Node3</title>
<g id="a_Node000003"><a xlink:href="classMagick_1_1CoderInfo.html#a73e484d0c12796e3ae3c2411e042f616" target="_top" xlink:title=" ">
<polygon fill="white" stroke="#666666" points="297.5,-200.5 186.5,-200.5 186.5,-170.5 297.5,-170.5 297.5,-200.5"/>
<text text-anchor="start" x="194.5" y="-188.5" font-family="Helvetica,sans-Serif" font-size="10.00">Magick::CoderInfo::</text>
<text text-anchor="middle" x="242" y="-177.5" font-family="Helvetica,sans-Serif" font-size="10.00">isMultiFrame</text>
</a>
</g>
</g>
<!-- Node1&#45;&gt;Node3 -->
<g id="edge2_Node000001_Node000003" class="edge">
<title>Node1&#45;&gt;Node3</title>
<g id="a_edge2_Node000001_Node000003"><a xlink:title=" ">
<path fill="none" stroke="#63b8ff" d="M78.31,-123.16C97.05,-133.65 128.48,-150.37 157,-161.5 163.27,-163.94 169.88,-166.26 176.54,-168.42"/>
<polygon fill="#63b8ff" stroke="#63b8ff" points="175.69,-171.83 186.28,-171.48 177.78,-165.15 175.69,-171.83"/>
</a>
</g>
</g>
<!-- Node4 -->
<g id="Node000004" class="node">
<title>Node4</title>
<g id="a_Node000004"><a xlink:href="classMagick_1_1CoderInfo.html#ae2beab84483cdc420756cf673ee06160" target="_top" xlink:title=" ">
<polygon fill="white" stroke="#666666" points="297.5,-152.5 186.5,-152.5 186.5,-122.5 297.5,-122.5 297.5,-152.5"/>
<text text-anchor="start" x="194.5" y="-140.5" font-family="Helvetica,sans-Serif" font-size="10.00">Magick::CoderInfo::</text>
<text text-anchor="middle" x="242" y="-129.5" font-family="Helvetica,sans-Serif" font-size="10.00">isReadable</text>
</a>
</g>
</g>
<!-- Node1&#45;&gt;Node4 -->
<g id="edge3_Node000001_Node000004" class="edge">
<title>Node1&#45;&gt;Node4</title>
<g id="a_edge3_Node000001_Node000004"><a xlink:title=" ">
<path fill="none" stroke="#63b8ff" d="M121.27,-121.49C138.92,-123.85 158.31,-126.44 176.25,-128.84"/>
<polygon fill="#63b8ff" stroke="#63b8ff" points="175.96,-132.33 186.33,-130.19 176.88,-125.4 175.96,-132.33"/>
</a>
</g>
</g>
<!-- Node5 -->
<g id="Node000005" class="node">
<title>Node5</title>
<g id="a_Node000005"><a xlink:href="classMagick_1_1CoderInfo.html#a3487a2bc8e18a8426a427a3938753876" target="_top" xlink:title=" ">
<polygon fill="white" stroke="#666666" points="297.5,-104.5 186.5,-104.5 186.5,-74.5 297.5,-74.5 297.5,-104.5"/>
<text text-anchor="start" x="194.5" y="-92.5" font-family="Helvetica,sans-Serif" font-size="10.00">Magick::CoderInfo::</text>
<text text-anchor="middle" x="242" y="-81.5" font-family="Helvetica,sans-Serif" font-size="10.00">isWritable</text>
</a>
</g>
</g>
<!-- Node1&#45;&gt;Node5 -->
<g id="edge4_Node000001_Node000005" class="edge">
<title>Node1&#45;&gt;Node5</title>
<g id="a_edge4_Node000001_Node000005"><a xlink:title=" ">
<path fill="none" stroke="#63b8ff" d="M121.27,-105.51C138.92,-103.15 158.31,-100.56 176.25,-98.16"/>
<polygon fill="#63b8ff" stroke="#63b8ff" points="176.88,-101.6 186.33,-96.81 175.96,-94.67 176.88,-101.6"/>
</a>
</g>
</g>
<!-- Node6 -->
<g id="Node000006" class="node">
<title>Node6</title>
<g id="a_Node000006"><a xlink:href="namespaceMagick.html#a5624947befd04fbdf9d67223079a60b6" target="_top" xlink:title=" ">
<polygon fill="white" stroke="#666666" points="309,-56 175,-56 175,-37 309,-37 309,-56"/>
<text text-anchor="middle" x="242" y="-44" font-family="Helvetica,sans-Serif" font-size="10.00">Magick::throwException</text>
</a>
</g>
</g>
<!-- Node1&#45;&gt;Node6 -->
<g id="edge5_Node000001_Node000006" class="edge">
<title>Node1&#45;&gt;Node6</title>
<g id="a_edge5_Node000001_Node000006"><a xlink:title=" ">
<path fill="none" stroke="#63b8ff" d="M77.52,-103.92C96.08,-93.2 127.83,-75.95 157,-65.5 164.22,-62.91 171.93,-60.6 179.63,-58.55"/>
<polygon fill="#63b8ff" stroke="#63b8ff" points="180.51,-61.94 189.35,-56.1 178.8,-55.15 180.51,-61.94"/>
</a>
</g>
</g>
<!-- Node7 -->
<g id="Node000007" class="node">
<title>Node7</title>
<g id="a_Node000007"><a xlink:href="namespaceMagick.html#a5f0ebda730e6f09cff9b9f6ce9236106" target="_top" xlink:title=" ">
<polygon fill="white" stroke="#666666" points="327,-19 157,-19 157,0 327,0 327,-19"/>
<text text-anchor="middle" x="242" y="-7" font-family="Helvetica,sans-Serif" font-size="10.00">Magick::throwExceptionExplicit</text>
</a>
</g>
</g>
<!-- Node1&#45;&gt;Node7 -->
<g id="edge6_Node000001_Node000007" class="edge">
<title>Node1&#45;&gt;Node7</title>
<g id="a_edge6_Node000001_Node000007"><a xlink:title=" ">
<path fill="none" stroke="#63b8ff" d="M69.32,-103.87C84.33,-86.06 119.1,-47.99 157,-28.5 161.62,-26.13 166.53,-24.05 171.57,-22.22"/>
<polygon fill="#63b8ff" stroke="#63b8ff" points="172.95,-25.45 181.38,-19.03 170.79,-18.8 172.95,-25.45"/>
</a>
</g>
</g>
</g>
</svg>
