<?xml version="1.0" encoding="UTF-8" standalone="no"?>
<!DOCTYPE svg PUBLIC "-//W3C//DTD SVG 1.1//EN"
 "http://www.w3.org/Graphics/SVG/1.1/DTD/svg11.dtd">
<!-- Generated by graphviz version 2.43.0 (0)
 -->
<!-- Title: detail::vprint_mojibake Pages: 1 -->
<svg width="302pt" height="101pt"
 viewBox="0.00 0.00 302.00 101.00" xmlns="http://www.w3.org/2000/svg" xmlns:xlink="http://www.w3.org/1999/xlink">
<g id="graph0" class="graph" transform="scale(1 1) rotate(0) translate(4 97)">
<title>detail::vprint_mojibake</title>
<!-- Node1 -->
<g id="Node000001" class="node">
<title>Node1</title>
<g id="a_Node000001"><a xlink:title=" ">
<polygon fill="#999999" stroke="#666666" points="294,-56 165,-56 165,-37 294,-37 294,-56"/>
<text text-anchor="middle" x="229.5" y="-44" font-family="Helvetica,sans-Serif" font-size="10.00">detail::vprint_mojibake</text>
</a>
</g>
</g>
<!-- Node2 -->
<g id="Node000002" class="node">
<title>Node2</title>
<g id="a_Node000002"><a xlink:href="base_8h.html#a3a04cf3cd81173cdbb24b568bde4df22" target="_top" xlink:title=" ">
<polygon fill="white" stroke="#666666" points="124.5,-93 85.5,-93 85.5,-74 124.5,-74 124.5,-93"/>
<text text-anchor="middle" x="105" y="-81" font-family="Helvetica,sans-Serif" font-size="10.00">print</text>
</a>
</g>
</g>
<!-- Node1&#45;&gt;Node2 -->
<g id="edge1_Node000001_Node000002" class="edge">
<title>Node1&#45;&gt;Node2</title>
<g id="a_edge1_Node000001_Node000002"><a xlink:title=" ">
<path fill="none" stroke="#63b8ff" d="M187.23,-58.97C166.1,-65.35 141.41,-72.8 124.85,-77.81"/>
<polygon fill="#63b8ff" stroke="#63b8ff" points="188.39,-62.27 196.95,-56.03 186.37,-55.57 188.39,-62.27"/>
</a>
</g>
</g>
<!-- Node4 -->
<g id="Node000004" class="node">
<title>Node4</title>
<g id="a_Node000004"><a xlink:href="base_8h.html#a59025bfaf390e425b4e274c966a77557" target="_top" xlink:title=" ">
<polygon fill="white" stroke="#666666" points="124.5,-56 85.5,-56 85.5,-37 124.5,-37 124.5,-56"/>
<text text-anchor="middle" x="105" y="-44" font-family="Helvetica,sans-Serif" font-size="10.00">print</text>
</a>
</g>
</g>
<!-- Node1&#45;&gt;Node4 -->
<g id="edge3_Node000001_Node000004" class="edge">
<title>Node1&#45;&gt;Node4</title>
<g id="a_edge3_Node000001_Node000004"><a xlink:title=" ">
<path fill="none" stroke="#63b8ff" d="M154.51,-46.5C143.51,-46.5 133.07,-46.5 124.72,-46.5"/>
<polygon fill="#63b8ff" stroke="#63b8ff" points="154.74,-50 164.74,-46.5 154.74,-43 154.74,-50"/>
</a>
</g>
</g>
<!-- Node6 -->
<g id="Node000006" class="node">
<title>Node6</title>
<g id="a_Node000006"><a xlink:href="base_8h.html#a747af0150d2d80bc7e0af46e4a5bec21" target="_top" xlink:title=" ">
<polygon fill="white" stroke="#666666" points="129,-19 81,-19 81,0 129,0 129,-19"/>
<text text-anchor="middle" x="105" y="-7" font-family="Helvetica,sans-Serif" font-size="10.00">println</text>
</a>
</g>
</g>
<!-- Node1&#45;&gt;Node6 -->
<g id="edge5_Node000001_Node000006" class="edge">
<title>Node1&#45;&gt;Node6</title>
<g id="a_edge5_Node000001_Node000006"><a xlink:title=" ">
<path fill="none" stroke="#63b8ff" d="M187.18,-34.02C167.89,-28.19 145.64,-21.47 129.31,-16.54"/>
<polygon fill="#63b8ff" stroke="#63b8ff" points="186.37,-37.43 196.95,-36.97 188.39,-30.73 186.37,-37.43"/>
</a>
</g>
</g>
<!-- Node3 -->
<g id="Node000003" class="node">
<title>Node3</title>
<g id="a_Node000003"><a xlink:href="home_2runner_2work_2CHRONOS-LoRa_2CHRONOS-LoRa_2thirdparty_2fmt_2include_2fmt_2color_8h.html#a86192aabb5e3ab5d0461f757afbbfb4e" target="_top" xlink:title=" ">
<polygon fill="white" stroke="#666666" points="45,-93 0,-93 0,-74 45,-74 45,-93"/>
<text text-anchor="middle" x="22.5" y="-81" font-family="Helvetica,sans-Serif" font-size="10.00">vprint</text>
</a>
</g>
</g>
<!-- Node2&#45;&gt;Node3 -->
<g id="edge2_Node000002_Node000003" class="edge">
<title>Node2&#45;&gt;Node3</title>
<g id="a_edge2_Node000002_Node000003"><a xlink:title=" ">
<path fill="none" stroke="#63b8ff" d="M75.14,-83.5C65.27,-83.5 54.41,-83.5 45.2,-83.5"/>
<polygon fill="#63b8ff" stroke="#63b8ff" points="75.33,-87 85.33,-83.5 75.33,-80 75.33,-87"/>
</a>
</g>
</g>
<!-- Node5 -->
<g id="Node000005" class="node">
<title>Node5</title>
<g id="a_Node000005"><a xlink:href="receiver-normal_8cpp.html#a3c04138a5bfe5d72780bb7e82a18e627" target="_top" xlink:title=" ">
<polygon fill="white" stroke="#666666" points="43,-56 2,-56 2,-37 43,-37 43,-56"/>
<text text-anchor="middle" x="22.5" y="-44" font-family="Helvetica,sans-Serif" font-size="10.00">main</text>
</a>
</g>
</g>
<!-- Node4&#45;&gt;Node5 -->
<g id="edge4_Node000004_Node000005" class="edge">
<title>Node4&#45;&gt;Node5</title>
<g id="a_edge4_Node000004_Node000005"><a xlink:title=" ">
<path fill="none" stroke="#63b8ff" d="M75.22,-46.5C64.6,-46.5 52.82,-46.5 43.19,-46.5"/>
<polygon fill="#63b8ff" stroke="#63b8ff" points="75.33,-50 85.33,-46.5 75.33,-43 75.33,-50"/>
</a>
</g>
</g>
</g>
</svg>
