<?xml version="1.0" encoding="UTF-8" standalone="no"?>
<!DOCTYPE svg PUBLIC "-//W3C//DTD SVG 1.1//EN"
 "http://www.w3.org/Graphics/SVG/1.1/DTD/svg11.dtd">
<!-- Generated by graphviz version 2.43.0 (0)
 -->
<!-- Title: Magick::montageImages Pages: 1 -->
<svg width="383pt" height="209pt"
 viewBox="0.00 0.00 383.00 209.00" xmlns="http://www.w3.org/2000/svg" xmlns:xlink="http://www.w3.org/1999/xlink">
<g id="graph0" class="graph" transform="scale(1 1) rotate(0) translate(4 205)">
<title>Magick::montageImages</title>
<!-- Node1 -->
<g id="Node000001" class="node">
<title>Node1</title>
<g id="a_Node000001"><a xlink:title=" ">
<polygon fill="#999999" stroke="#666666" points="137,-121 0,-121 0,-102 137,-102 137,-121"/>
<text text-anchor="middle" x="68.5" y="-109" font-family="Helvetica,sans-Serif" font-size="10.00">Magick::montageImages</text>
</a>
</g>
</g>
<!-- Node2 -->
<g id="Node000002" class="node">
<title>Node2</title>
<g id="a_Node000002"><a xlink:href="classMagick_1_1Color.html#af1b51bc7ddb221cfe3943801cc8a0a64" target="_top" xlink:title=" ">
<polygon fill="white" stroke="#666666" points="335,-201 213,-201 213,-182 335,-182 335,-201"/>
<text text-anchor="middle" x="274" y="-189" font-family="Helvetica,sans-Serif" font-size="10.00">Magick::Color::isValid</text>
</a>
</g>
</g>
<!-- Node1&#45;&gt;Node2 -->
<g id="edge1_Node000001_Node000002" class="edge">
<title>Node1&#45;&gt;Node2</title>
<g id="a_edge1_Node000001_Node000002"><a xlink:title=" ">
<path fill="none" stroke="#63b8ff" d="M82.12,-121.15C100.87,-134.99 137.7,-160.26 173,-173.5 182.41,-177.03 192.59,-179.88 202.73,-182.18"/>
<polygon fill="#63b8ff" stroke="#63b8ff" points="202.32,-185.67 212.82,-184.3 203.76,-178.82 202.32,-185.67"/>
</a>
</g>
</g>
<!-- Node3 -->
<g id="Node000003" class="node">
<title>Node3</title>
<g id="a_Node000003"><a xlink:href="classMagick_1_1Montage.html#a7b411b29ea62873b1917d918c722f4d9" target="_top" xlink:title=" ">
<polygon fill="white" stroke="#666666" points="339.5,-164 208.5,-164 208.5,-145 339.5,-145 339.5,-164"/>
<text text-anchor="middle" x="274" y="-152" font-family="Helvetica,sans-Serif" font-size="10.00">Magick::Montage::label</text>
</a>
</g>
</g>
<!-- Node1&#45;&gt;Node3 -->
<g id="edge2_Node000001_Node000003" class="edge">
<title>Node1&#45;&gt;Node3</title>
<g id="a_edge2_Node000001_Node000003"><a xlink:title=" ">
<path fill="none" stroke="#63b8ff" d="M109.23,-121.11C128.45,-125.65 151.88,-131.05 173,-135.5 185.21,-138.07 198.3,-140.67 210.84,-143.09"/>
<polygon fill="#63b8ff" stroke="#63b8ff" points="210.28,-146.55 220.76,-144.98 211.59,-139.67 210.28,-146.55"/>
</a>
</g>
</g>
<!-- Node4 -->
<g id="Node000004" class="node">
<title>Node4</title>
<g id="a_Node000004"><a xlink:href="classMagick_1_1Montage.html#adcbb7e96dc1d76d10298a7f38ff10482" target="_top" xlink:title=" ">
<polygon fill="white" stroke="#666666" points="355.5,-126.5 192.5,-126.5 192.5,-96.5 355.5,-96.5 355.5,-126.5"/>
<text text-anchor="start" x="200.5" y="-114.5" font-family="Helvetica,sans-Serif" font-size="10.00">Magick::Montage::transparent</text>
<text text-anchor="middle" x="274" y="-103.5" font-family="Helvetica,sans-Serif" font-size="10.00">Color</text>
</a>
</g>
</g>
<!-- Node1&#45;&gt;Node4 -->
<g id="edge3_Node000001_Node000004" class="edge">
<title>Node1&#45;&gt;Node4</title>
<g id="a_edge3_Node000001_Node000004"><a xlink:title=" ">
<path fill="none" stroke="#63b8ff" d="M137.26,-111.5C151.64,-111.5 167.03,-111.5 182.11,-111.5"/>
<polygon fill="#63b8ff" stroke="#63b8ff" points="182.47,-115 192.47,-111.5 182.47,-108 182.47,-115"/>
</a>
</g>
</g>
<!-- Node5 -->
<g id="Node000005" class="node">
<title>Node5</title>
<g id="a_Node000005"><a xlink:href="classMagick_1_1MAGICK__UNARY__FUNCTION__IMAGE__REF__BASE.html#abb69d3b906081de98c91fe75985720bd" target="_top" xlink:title=" ">
<polygon fill="white" stroke="#666666" points="357,-78 191,-78 191,-37 357,-37 357,-78"/>
<text text-anchor="start" x="199" y="-66" font-family="Helvetica,sans-Serif" font-size="10.00">Magick::MAGICK_UNARY</text>
<text text-anchor="start" x="199" y="-55" font-family="Helvetica,sans-Serif" font-size="10.00">_FUNCTION_IMAGE_REF_BASE</text>
<text text-anchor="middle" x="274" y="-44" font-family="Helvetica,sans-Serif" font-size="10.00">::transparentImage</text>
</a>
</g>
</g>
<!-- Node1&#45;&gt;Node5 -->
<g id="edge4_Node000001_Node000005" class="edge">
<title>Node1&#45;&gt;Node5</title>
<g id="a_edge4_Node000001_Node000005"><a xlink:title=" ">
<path fill="none" stroke="#63b8ff" d="M105.41,-101.97C127.77,-96.04 157.55,-88.14 185.8,-80.64"/>
<polygon fill="#63b8ff" stroke="#63b8ff" points="186.95,-83.96 195.72,-78.01 185.15,-77.19 186.95,-83.96"/>
</a>
</g>
</g>
<!-- Node6 -->
<g id="Node000006" class="node">
<title>Node6</title>
<g id="a_Node000006"><a xlink:href="classMagick_1_1Montage.html#ab05396cc40985d529d323df6bb280ad9" target="_top" xlink:title=" ">
<polygon fill="white" stroke="#666666" points="375,-19 173,-19 173,0 375,0 375,-19"/>
<text text-anchor="middle" x="274" y="-7" font-family="Helvetica,sans-Serif" font-size="10.00">Magick::Montage::updateMontageInfo</text>
</a>
</g>
</g>
<!-- Node1&#45;&gt;Node6 -->
<g id="edge5_Node000001_Node000006" class="edge">
<title>Node1&#45;&gt;Node6</title>
<g id="a_edge5_Node000001_Node000006"><a xlink:title=" ">
<path fill="none" stroke="#63b8ff" d="M78.4,-101.73C95.1,-84.05 133.05,-46.91 173,-28.5 178.4,-26.01 184.1,-23.85 189.94,-21.97"/>
<polygon fill="#63b8ff" stroke="#63b8ff" points="191.25,-25.24 199.87,-19.07 189.28,-18.52 191.25,-25.24"/>
</a>
</g>
</g>
</g>
</svg>
