<?xml version="1.0" encoding="UTF-8" standalone="no"?>
<!DOCTYPE svg PUBLIC "-//W3C//DTD SVG 1.1//EN"
 "http://www.w3.org/Graphics/SVG/1.1/DTD/svg11.dtd">
<!-- Generated by graphviz version 2.43.0 (0)
 -->
<!-- Title: cxxopts::first_or_empty Pages: 1 -->
<svg width="475pt" height="76pt"
 viewBox="0.00 0.00 475.00 75.50" xmlns="http://www.w3.org/2000/svg" xmlns:xlink="http://www.w3.org/1999/xlink">
<g id="graph0" class="graph" transform="scale(1 1) rotate(0) translate(4 71.5)">
<title>cxxopts::first_or_empty</title>
<!-- Node1 -->
<g id="Node000001" class="node">
<title>Node1</title>
<g id="a_Node000001"><a xlink:title=" ">
<polygon fill="#999999" stroke="#666666" points="467,-45.5 336,-45.5 336,-26.5 467,-26.5 467,-45.5"/>
<text text-anchor="middle" x="401.5" y="-33.5" font-family="Helvetica,sans-Serif" font-size="10.00">cxxopts::first_or_empty</text>
</a>
</g>
</g>
<!-- Node2 -->
<g id="Node000002" class="node">
<title>Node2</title>
<g id="a_Node000002"><a xlink:href="classcxxopts_1_1OptionValue.html#a6953817ba21f573f4c305bda31084d1b" target="_top" xlink:title=" ">
<polygon fill="white" stroke="#666666" points="300,-67.5 163,-67.5 163,-48.5 300,-48.5 300,-67.5"/>
<text text-anchor="middle" x="231.5" y="-55.5" font-family="Helvetica,sans-Serif" font-size="10.00">cxxopts::OptionValue::as</text>
</a>
</g>
</g>
<!-- Node1&#45;&gt;Node2 -->
<g id="edge1_Node000001_Node000002" class="edge">
<title>Node1&#45;&gt;Node2</title>
<g id="a_edge1_Node000001_Node000002"><a xlink:title=" ">
<path fill="none" stroke="#63b8ff" d="M325.63,-45.8C317.11,-46.92 308.47,-48.05 300.06,-49.15"/>
<polygon fill="#63b8ff" stroke="#63b8ff" points="326.09,-49.27 335.55,-44.51 325.18,-42.33 326.09,-49.27"/>
</a>
</g>
</g>
<!-- Node3 -->
<g id="Node000003" class="node">
<title>Node3</title>
<g id="a_Node000003"><a xlink:href="classcxxopts_1_1OptionDetails.html#a7281ed8e673d9edb41fdb0ec20246989" target="_top" xlink:title=" ">
<polygon fill="white" stroke="#666666" points="295,-30 168,-30 168,0 295,0 295,-30"/>
<text text-anchor="start" x="176" y="-18" font-family="Helvetica,sans-Serif" font-size="10.00">cxxopts::OptionDetails</text>
<text text-anchor="middle" x="231.5" y="-7" font-family="Helvetica,sans-Serif" font-size="10.00">::first_long_name</text>
</a>
</g>
</g>
<!-- Node1&#45;&gt;Node3 -->
<g id="edge2_Node000001_Node000003" class="edge">
<title>Node1&#45;&gt;Node3</title>
<g id="a_edge2_Node000001_Node000003"><a xlink:title=" ">
<path fill="none" stroke="#63b8ff" d="M325.47,-26.62C315.31,-25.35 304.98,-24.06 295.07,-22.82"/>
<polygon fill="#63b8ff" stroke="#63b8ff" points="325.19,-30.11 335.55,-27.88 326.06,-23.17 325.19,-30.11"/>
</a>
</g>
</g>
<!-- Node4 -->
<g id="Node000004" class="node">
<title>Node4</title>
<g id="a_Node000004"><a xlink:href="classcxxopts_1_1OptionDetails.html#a6bc68e6d1ee331283542cd1637d37d58" target="_top" xlink:title=" ">
<polygon fill="white" stroke="#666666" points="127,-30 0,-30 0,0 127,0 127,-30"/>
<text text-anchor="start" x="8" y="-18" font-family="Helvetica,sans-Serif" font-size="10.00">cxxopts::OptionDetails</text>
<text text-anchor="middle" x="63.5" y="-7" font-family="Helvetica,sans-Serif" font-size="10.00">::OptionDetails</text>
</a>
</g>
</g>
<!-- Node3&#45;&gt;Node4 -->
<g id="edge3_Node000003_Node000004" class="edge">
<title>Node3&#45;&gt;Node4</title>
<g id="a_edge3_Node000003_Node000004"><a xlink:title=" ">
<path fill="none" stroke="#63b8ff" d="M157.64,-15C147.45,-15 137.05,-15 127.07,-15"/>
<polygon fill="#63b8ff" stroke="#63b8ff" points="157.74,-18.5 167.74,-15 157.74,-11.5 157.74,-18.5"/>
</a>
</g>
</g>
</g>
</svg>
