<?xml version="1.0" encoding="UTF-8" standalone="no"?>
<!DOCTYPE svg PUBLIC "-//W3C//DTD SVG 1.1//EN"
 "http://www.w3.org/Graphics/SVG/1.1/DTD/svg11.dtd">
<!-- Generated by graphviz version 2.43.0 (0)
 -->
<!-- Title: cxxopts::empty Pages: 1 -->
<svg width="627pt" height="60pt"
 viewBox="0.00 0.00 627.00 60.00" xmlns="http://www.w3.org/2000/svg" xmlns:xlink="http://www.w3.org/1999/xlink">
<g id="graph0" class="graph" transform="scale(1 1) rotate(0) translate(4 56)">
<title>cxxopts::empty</title>
<!-- Node1 -->
<g id="Node000001" class="node">
<title>Node1</title>
<g id="a_Node000001"><a xlink:title=" ">
<polygon fill="#999999" stroke="#666666" points="619,-24.5 527,-24.5 527,-5.5 619,-5.5 619,-24.5"/>
<text text-anchor="middle" x="573" y="-12.5" font-family="Helvetica,sans-Serif" font-size="10.00">cxxopts::empty</text>
</a>
</g>
</g>
<!-- Node2 -->
<g id="Node000002" class="node">
<title>Node2</title>
<g id="a_Node000002"><a xlink:href="classcxxopts_1_1Options.html#ab09329dad31b464891556a4cd2659d04" target="_top" xlink:title=" ">
<polygon fill="white" stroke="#666666" points="491,-30 344,-30 344,0 491,0 491,-30"/>
<text text-anchor="start" x="352" y="-18" font-family="Helvetica,sans-Serif" font-size="10.00">cxxopts::Options::generate</text>
<text text-anchor="middle" x="417.5" y="-7" font-family="Helvetica,sans-Serif" font-size="10.00">_group_help</text>
</a>
</g>
</g>
<!-- Node1&#45;&gt;Node2 -->
<g id="edge1_Node000001_Node000002" class="edge">
<title>Node1&#45;&gt;Node2</title>
<g id="a_edge1_Node000001_Node000002"><a xlink:title=" ">
<path fill="none" stroke="#63b8ff" d="M516.52,-15C508.24,-15 499.61,-15 491.04,-15"/>
<polygon fill="#63b8ff" stroke="#63b8ff" points="516.78,-18.5 526.78,-15 516.78,-11.5 516.78,-18.5"/>
</a>
</g>
</g>
<!-- Node3 -->
<g id="Node000003" class="node">
<title>Node3</title>
<g id="a_Node000003"><a xlink:href="classcxxopts_1_1Options.html#adc15c2e713a3c026c7a25e83612ec247" target="_top" xlink:title=" ">
<polygon fill="white" stroke="#666666" points="308,-52 161,-52 161,-22 308,-22 308,-52"/>
<text text-anchor="start" x="169" y="-40" font-family="Helvetica,sans-Serif" font-size="10.00">cxxopts::Options::generate</text>
<text text-anchor="middle" x="234.5" y="-29" font-family="Helvetica,sans-Serif" font-size="10.00">_all_groups_help</text>
</a>
</g>
</g>
<!-- Node2&#45;&gt;Node3 -->
<g id="edge2_Node000002_Node000003" class="edge">
<title>Node2&#45;&gt;Node3</title>
<g id="a_edge2_Node000002_Node000003"><a xlink:title=" ">
<path fill="none" stroke="#63b8ff" d="M333.88,-25.04C325.28,-26.09 316.58,-27.15 308.09,-28.18"/>
<polygon fill="#63b8ff" stroke="#63b8ff" points="334.42,-28.5 343.92,-23.82 333.57,-21.55 334.42,-28.5"/>
</a>
</g>
</g>
<!-- Node4 -->
<g id="Node000004" class="node">
<title>Node4</title>
<g id="a_Node000004"><a xlink:href="classcxxopts_1_1Options.html#a05266b5355376180659943795facfcd5" target="_top" xlink:title=" ">
<polygon fill="white" stroke="#666666" points="125,-24.5 0,-24.5 0,-5.5 125,-5.5 125,-24.5"/>
<text text-anchor="middle" x="62.5" y="-12.5" font-family="Helvetica,sans-Serif" font-size="10.00">cxxopts::Options::help</text>
</a>
</g>
</g>
<!-- Node2&#45;&gt;Node4 -->
<g id="edge4_Node000002_Node000004" class="edge">
<title>Node2&#45;&gt;Node4</title>
<g id="a_edge4_Node000002_Node000004"><a xlink:title=" ">
<path fill="none" stroke="#63b8ff" d="M333.69,-13.32C325.01,-13.19 316.33,-13.08 308,-13 242.67,-12.4 226.33,-12.33 161,-13 149.4,-13.12 137.03,-13.32 125.13,-13.54"/>
<polygon fill="#63b8ff" stroke="#63b8ff" points="333.79,-16.82 343.84,-13.48 333.9,-9.82 333.79,-16.82"/>
</a>
</g>
</g>
<!-- Node3&#45;&gt;Node4 -->
<g id="edge3_Node000003_Node000004" class="edge">
<title>Node3&#45;&gt;Node4</title>
<g id="a_edge3_Node000003_Node000004"><a xlink:title=" ">
<path fill="none" stroke="#63b8ff" d="M150.8,-26.3C142.16,-25.18 133.49,-24.06 125.14,-22.98"/>
<polygon fill="#63b8ff" stroke="#63b8ff" points="150.55,-29.79 160.91,-27.61 151.44,-22.85 150.55,-29.79"/>
</a>
</g>
</g>
</g>
</svg>
