<?xml version="1.0" encoding="UTF-8" standalone="no"?>
<!DOCTYPE svg PUBLIC "-//W3C//DTD SVG 1.1//EN"
 "http://www.w3.org/Graphics/SVG/1.1/DTD/svg11.dtd">
<!-- Generated by graphviz version 2.43.0 (0)
 -->
<!-- Title: cxxopts::throw_or_mimic Pages: 1 -->
<svg width="1005pt" height="672pt"
 viewBox="0.00 0.00 1005.00 672.00" xmlns="http://www.w3.org/2000/svg" xmlns:xlink="http://www.w3.org/1999/xlink">
<g id="graph0" class="graph" transform="scale(1 1) rotate(0) translate(4 668)">
<title>cxxopts::throw_or_mimic</title>
<!-- Node1 -->
<g id="Node000001" class="node">
<title>Node1</title>
<g id="a_Node000001"><a xlink:title=" ">
<polygon fill="#999999" stroke="#666666" points="997,-357.5 858,-357.5 858,-338.5 997,-338.5 997,-357.5"/>
<text text-anchor="middle" x="927.5" y="-345.5" font-family="Helvetica,sans-Serif" font-size="10.00">cxxopts::throw_or_mimic</text>
</a>
</g>
</g>
<!-- Node2 -->
<g id="Node000002" class="node">
<title>Node2</title>
<g id="a_Node000002"><a xlink:href="classcxxopts_1_1Options.html#a6a7ca6845bfe17a801b0c3f229655f42" target="_top" xlink:title=" ">
<polygon fill="white" stroke="#666666" points="802.5,-664 680.5,-664 680.5,-634 802.5,-634 802.5,-664"/>
<text text-anchor="start" x="688.5" y="-652" font-family="Helvetica,sans-Serif" font-size="10.00">cxxopts::Options::add</text>
<text text-anchor="middle" x="741.5" y="-641" font-family="Helvetica,sans-Serif" font-size="10.00">_one_option</text>
</a>
</g>
</g>
<!-- Node1&#45;&gt;Node2 -->
<g id="edge1_Node000001_Node000002" class="edge">
<title>Node1&#45;&gt;Node2</title>
<g id="a_edge1_Node000001_Node000002"><a xlink:title=" ">
<path fill="none" stroke="#63b8ff" d="M924.48,-367.74C918.38,-417.17 895.79,-547.45 822,-620 816.24,-625.66 809.28,-630.23 801.91,-633.92"/>
<polygon fill="#63b8ff" stroke="#63b8ff" points="927.96,-368.06 925.62,-357.73 921.01,-367.27 927.96,-368.06"/>
</a>
</g>
</g>
<!-- Node5 -->
<g id="Node000005" class="node">
<title>Node5</title>
<g id="a_Node000005"><a xlink:href="classcxxopts_1_1OptionAdder.html#a4feb747760c5fbaa807a4c8e1c335ac5" target="_top" xlink:title=" ">
<polygon fill="white" stroke="#666666" points="442,-597 321,-597 321,-567 442,-567 442,-597"/>
<text text-anchor="start" x="329" y="-585" font-family="Helvetica,sans-Serif" font-size="10.00">cxxopts::OptionAdder</text>
<text text-anchor="middle" x="381.5" y="-574" font-family="Helvetica,sans-Serif" font-size="10.00">::operator()</text>
</a>
</g>
</g>
<!-- Node1&#45;&gt;Node5 -->
<g id="edge19_Node000001_Node000005" class="edge">
<title>Node1&#45;&gt;Node5</title>
<g id="a_edge19_Node000001_Node000005"><a xlink:title=" ">
<path fill="none" stroke="#63b8ff" d="M924.38,-367.64C918.23,-413.84 895.84,-529.21 822,-579 761.74,-619.63 547.79,-601.45 442.26,-589.49"/>
<polygon fill="#63b8ff" stroke="#63b8ff" points="927.86,-368.05 925.59,-357.7 920.91,-367.21 927.86,-368.05"/>
</a>
</g>
</g>
<!-- Node9 -->
<g id="Node000009" class="node">
<title>Node9</title>
<g id="a_Node000009"><a xlink:href="classcxxopts_1_1OptionValue.html#a6953817ba21f573f4c305bda31084d1b" target="_top" xlink:title=" ">
<polygon fill="white" stroke="#666666" points="810,-491.5 673,-491.5 673,-472.5 810,-472.5 810,-491.5"/>
<text text-anchor="middle" x="741.5" y="-479.5" font-family="Helvetica,sans-Serif" font-size="10.00">cxxopts::OptionValue::as</text>
</a>
</g>
</g>
<!-- Node1&#45;&gt;Node9 -->
<g id="edge8_Node000001_Node000009" class="edge">
<title>Node1&#45;&gt;Node9</title>
<g id="a_edge8_Node000001_Node000009"><a xlink:title=" ">
<path fill="none" stroke="#63b8ff" d="M915.11,-366.28C898.1,-391.98 863.57,-438.42 822,-463 815.4,-466.9 808.05,-470 800.56,-472.46"/>
<polygon fill="#63b8ff" stroke="#63b8ff" points="918.09,-368.12 920.57,-357.82 912.2,-364.33 918.09,-368.12"/>
</a>
</g>
</g>
<!-- Node11 -->
<g id="Node000011" class="node">
<title>Node11</title>
<g id="a_Node000011"><a xlink:href="namespacecxxopts_1_1values.html#ad346cd7dc5d4d470492c85de801a16b4" target="_top" xlink:title=" ">
<polygon fill="white" stroke="#666666" points="810.5,-540 672.5,-540 672.5,-510 810.5,-510 810.5,-540"/>
<text text-anchor="start" x="680.5" y="-528" font-family="Helvetica,sans-Serif" font-size="10.00">cxxopts::values::checked</text>
<text text-anchor="middle" x="741.5" y="-517" font-family="Helvetica,sans-Serif" font-size="10.00">_negate</text>
</a>
</g>
</g>
<!-- Node1&#45;&gt;Node11 -->
<g id="edge10_Node000001_Node000011" class="edge">
<title>Node1&#45;&gt;Node11</title>
<g id="a_edge10_Node000001_Node000011"><a xlink:title=" ">
<path fill="none" stroke="#63b8ff" d="M918.76,-366.78C904.48,-399.08 870.93,-465.14 822,-501 817.35,-504.41 812.21,-507.34 806.85,-509.85"/>
<polygon fill="#63b8ff" stroke="#63b8ff" points="921.99,-368.13 922.71,-357.56 915.55,-365.37 921.99,-368.13"/>
</a>
</g>
</g>
<!-- Node12 -->
<g id="Node000012" class="node">
<title>Node12</title>
<g id="a_Node000012"><a xlink:href="classcxxopts_1_1OptionParser.html#a0c093ba32746de7c3b08715eab961aff" target="_top" xlink:title=" ">
<polygon fill="white" stroke="#666666" points="802.5,-78 680.5,-78 680.5,-48 802.5,-48 802.5,-78"/>
<text text-anchor="start" x="688.5" y="-66" font-family="Helvetica,sans-Serif" font-size="10.00">cxxopts::OptionParser</text>
<text text-anchor="middle" x="741.5" y="-55" font-family="Helvetica,sans-Serif" font-size="10.00">::checked_parse_arg</text>
</a>
</g>
</g>
<!-- Node1&#45;&gt;Node12 -->
<g id="edge11_Node000001_Node000012" class="edge">
<title>Node1&#45;&gt;Node12</title>
<g id="a_edge11_Node000001_Node000012"><a xlink:title=" ">
<path fill="none" stroke="#63b8ff" d="M924.37,-328.16C918.11,-279.66 895.31,-154.15 822,-87 816.37,-81.84 809.66,-77.79 802.56,-74.6"/>
<polygon fill="#63b8ff" stroke="#63b8ff" points="920.92,-328.75 925.58,-338.27 927.87,-327.93 920.92,-328.75"/>
</a>
</g>
</g>
<!-- Node13 -->
<g id="Node000013" class="node">
<title>Node13</title>
<g id="a_Node000013"><a xlink:href="classcxxopts_1_1OptionParser.html#a4218816ce33c211b54acb9e71603ea0b" target="_top" xlink:title=" ">
<polygon fill="white" stroke="#666666" points="615,-196 493,-196 493,-166 615,-166 615,-196"/>
<text text-anchor="start" x="501" y="-184" font-family="Helvetica,sans-Serif" font-size="10.00">cxxopts::OptionParser</text>
<text text-anchor="middle" x="554" y="-173" font-family="Helvetica,sans-Serif" font-size="10.00">::parse</text>
</a>
</g>
</g>
<!-- Node1&#45;&gt;Node13 -->
<g id="edge22_Node000001_Node000013" class="edge">
<title>Node1&#45;&gt;Node13</title>
<g id="a_edge22_Node000001_Node000013"><a xlink:title=" ">
<path fill="none" stroke="#63b8ff" d="M909.28,-331.33C889.71,-313.3 856.04,-285 822,-269 755.47,-237.71 730.4,-255.26 661,-231 633.53,-221.4 603.68,-206.92 582.67,-196.01"/>
<polygon fill="#63b8ff" stroke="#63b8ff" points="907.08,-334.06 916.77,-338.36 911.87,-328.96 907.08,-334.06"/>
</a>
</g>
</g>
<!-- Node15 -->
<g id="Node000015" class="node">
<title>Node15</title>
<g id="a_Node000015"><a xlink:href="classcxxopts_1_1OptionParser.html#a4d595d8f6f34760bc2248d1b96af53a4" target="_top" xlink:title=" ">
<polygon fill="white" stroke="#666666" points="802.5,-126 680.5,-126 680.5,-96 802.5,-96 802.5,-126"/>
<text text-anchor="start" x="688.5" y="-114" font-family="Helvetica,sans-Serif" font-size="10.00">cxxopts::OptionParser</text>
<text text-anchor="middle" x="741.5" y="-103" font-family="Helvetica,sans-Serif" font-size="10.00">::consume_positional</text>
</a>
</g>
</g>
<!-- Node1&#45;&gt;Node15 -->
<g id="edge15_Node000001_Node000015" class="edge">
<title>Node1&#45;&gt;Node15</title>
<g id="a_edge15_Node000001_Node000015"><a xlink:title=" ">
<path fill="none" stroke="#63b8ff" d="M922.45,-328.46C912.76,-286.62 884.26,-187.86 822,-135 816.29,-130.15 809.61,-126.28 802.6,-123.19"/>
<polygon fill="#63b8ff" stroke="#63b8ff" points="919.04,-329.23 924.61,-338.24 925.87,-327.72 919.04,-329.23"/>
</a>
</g>
</g>
<!-- Node16 -->
<g id="Node000016" class="node">
<title>Node16</title>
<g id="a_Node000016"><a xlink:href="namespacecxxopts_1_1values.html#a2e205dc91741b7dde43b825da60c9f4c" target="_top" xlink:title=" ">
<polygon fill="white" stroke="#666666" points="620.5,-385 487.5,-385 487.5,-355 620.5,-355 620.5,-385"/>
<text text-anchor="start" x="495.5" y="-373" font-family="Helvetica,sans-Serif" font-size="10.00">cxxopts::values::integer</text>
<text text-anchor="middle" x="554" y="-362" font-family="Helvetica,sans-Serif" font-size="10.00">_parser</text>
</a>
</g>
</g>
<!-- Node1&#45;&gt;Node16 -->
<g id="edge17_Node000001_Node000016" class="edge">
<title>Node1&#45;&gt;Node16</title>
<g id="a_edge17_Node000001_Node000016"><a xlink:title=" ">
<path fill="none" stroke="#63b8ff" d="M847.77,-352.66C780.25,-356.66 684.12,-362.35 620.68,-366.11"/>
<polygon fill="#63b8ff" stroke="#63b8ff" points="848.15,-356.15 857.93,-352.06 847.74,-349.16 848.15,-356.15"/>
</a>
</g>
</g>
<!-- Node17 -->
<g id="Node000017" class="node">
<title>Node17</title>
<g id="a_Node000017"><a xlink:href="structcxxopts_1_1values_1_1detail_1_1SignedCheck_3_01T_00_01true_01_4.html#a03b02f6c1e500d96c8b8b13cbe858ce4" target="_top" xlink:title=" ">
<polygon fill="white" stroke="#666666" points="805.5,-319.5 677.5,-319.5 677.5,-278.5 805.5,-278.5 805.5,-319.5"/>
<text text-anchor="start" x="685.5" y="-307.5" font-family="Helvetica,sans-Serif" font-size="10.00">cxxopts::values::detail</text>
<text text-anchor="start" x="685.5" y="-296.5" font-family="Helvetica,sans-Serif" font-size="10.00">::SignedCheck&lt; T, true</text>
<text text-anchor="middle" x="741.5" y="-285.5" font-family="Helvetica,sans-Serif" font-size="10.00"> &gt;::operator()</text>
</a>
</g>
</g>
<!-- Node1&#45;&gt;Node17 -->
<g id="edge18_Node000001_Node000017" class="edge">
<title>Node1&#45;&gt;Node17</title>
<g id="a_edge18_Node000001_Node000017"><a xlink:title=" ">
<path fill="none" stroke="#63b8ff" d="M880.85,-335.84C858.12,-329.79 830.26,-322.37 805.52,-315.78"/>
<polygon fill="#63b8ff" stroke="#63b8ff" points="880.02,-339.24 890.59,-338.44 881.82,-332.48 880.02,-339.24"/>
</a>
</g>
</g>
<!-- Node18 -->
<g id="Node000018" class="node">
<title>Node18</title>
<g id="a_Node000018"><a xlink:href="classcxxopts_1_1ParseResult.html#a99aafd900cfe43417ca23cb4a340f8f4" target="_top" xlink:title=" ">
<polygon fill="white" stroke="#666666" points="800,-454 683,-454 683,-424 800,-424 800,-454"/>
<text text-anchor="start" x="691" y="-442" font-family="Helvetica,sans-Serif" font-size="10.00">cxxopts::ParseResult</text>
<text text-anchor="middle" x="741.5" y="-431" font-family="Helvetica,sans-Serif" font-size="10.00">::operator[]</text>
</a>
</g>
</g>
<!-- Node1&#45;&gt;Node18 -->
<g id="edge20_Node000001_Node000018" class="edge">
<title>Node1&#45;&gt;Node18</title>
<g id="a_edge20_Node000001_Node000018"><a xlink:title=" ">
<path fill="none" stroke="#63b8ff" d="M905.75,-363.77C885.35,-378.66 852.86,-400.78 822,-415 814.8,-418.32 807.02,-421.32 799.25,-423.98"/>
<polygon fill="#63b8ff" stroke="#63b8ff" points="908.02,-366.45 913.97,-357.68 903.85,-360.82 908.02,-366.45"/>
</a>
</g>
</g>
<!-- Node19 -->
<g id="Node000019" class="node">
<title>Node19</title>
<g id="a_Node000019"><a xlink:href="namespacecxxopts_1_1values.html#aaa73e425c1d63db7975dbebd86c2f947" target="_top" xlink:title=" ">
<polygon fill="white" stroke="#666666" points="804,-222 679,-222 679,-192 804,-192 804,-222"/>
<text text-anchor="start" x="687" y="-210" font-family="Helvetica,sans-Serif" font-size="10.00">cxxopts::values::parse</text>
<text text-anchor="middle" x="741.5" y="-199" font-family="Helvetica,sans-Serif" font-size="10.00">_value</text>
</a>
</g>
</g>
<!-- Node1&#45;&gt;Node19 -->
<g id="edge23_Node000001_Node000019" class="edge">
<title>Node1&#45;&gt;Node19</title>
<g id="a_edge23_Node000001_Node000019"><a xlink:title=" ">
<path fill="none" stroke="#63b8ff" d="M914.1,-330.15C896.31,-305.75 861.32,-262.04 822,-236 813.67,-230.48 804.16,-225.85 794.68,-222.02"/>
<polygon fill="#63b8ff" stroke="#63b8ff" points="911.39,-332.38 920.05,-338.48 917.09,-328.31 911.39,-332.38"/>
</a>
</g>
</g>
<!-- Node20 -->
<g id="Node000020" class="node">
<title>Node20</title>
<g id="a_Node000020"><a xlink:href="namespacecxxopts_1_1values.html#a9db2f6a97c2fbfd06a5a342917fbd21f" target="_top" xlink:title=" ">
<polygon fill="white" stroke="#666666" points="804,-174 679,-174 679,-144 804,-144 804,-174"/>
<text text-anchor="start" x="687" y="-162" font-family="Helvetica,sans-Serif" font-size="10.00">cxxopts::values::parse</text>
<text text-anchor="middle" x="741.5" y="-151" font-family="Helvetica,sans-Serif" font-size="10.00">_value</text>
</a>
</g>
</g>
<!-- Node1&#45;&gt;Node20 -->
<g id="edge24_Node000001_Node000020" class="edge">
<title>Node1&#45;&gt;Node20</title>
<g id="a_edge24_Node000001_Node000020"><a xlink:title=" ">
<path fill="none" stroke="#63b8ff" d="M919.54,-328.7C906.12,-294.22 873.38,-222.04 822,-183 816.6,-178.9 810.51,-175.5 804.16,-172.67"/>
<polygon fill="#63b8ff" stroke="#63b8ff" points="916.28,-329.98 923.08,-338.1 922.83,-327.51 916.28,-329.98"/>
</a>
</g>
</g>
<!-- Node21 -->
<g id="Node000021" class="node">
<title>Node21</title>
<g id="a_Node000021"><a xlink:href="namespacecxxopts_1_1values_1_1parser__tool.html#a3aaed7a5c0641e8eb84f2888ff499bbb" target="_top" xlink:title=" ">
<polygon fill="white" stroke="#666666" points="625,-578 483,-578 483,-548 625,-548 625,-578"/>
<text text-anchor="start" x="491" y="-566" font-family="Helvetica,sans-Serif" font-size="10.00">cxxopts::values::parser</text>
<text text-anchor="middle" x="554" y="-555" font-family="Helvetica,sans-Serif" font-size="10.00">_tool::split_option_names</text>
</a>
</g>
</g>
<!-- Node1&#45;&gt;Node21 -->
<g id="edge25_Node000001_Node000021" class="edge">
<title>Node1&#45;&gt;Node21</title>
<g id="a_edge25_Node000001_Node000021"><a xlink:title=" ">
<path fill="none" stroke="#63b8ff" d="M922.9,-367.88C914.15,-409.8 887.44,-506.88 822,-549 763.74,-586.49 682.66,-585.03 625.17,-577.29"/>
<polygon fill="#63b8ff" stroke="#63b8ff" points="926.39,-368.31 924.88,-357.82 919.52,-366.96 926.39,-368.31"/>
</a>
</g>
</g>
<!-- Node22 -->
<g id="Node000022" class="node">
<title>Node22</title>
<g id="a_Node000022"><a xlink:href="namespacecxxopts_1_1values_1_1parser__tool.html#a7912e06f8258eb2a618ba94a7ede46d4" target="_top" xlink:title=" ">
<polygon fill="white" stroke="#666666" points="806,-406 677,-406 677,-376 806,-376 806,-406"/>
<text text-anchor="start" x="685" y="-394" font-family="Helvetica,sans-Serif" font-size="10.00">cxxopts::values::parser</text>
<text text-anchor="middle" x="741.5" y="-383" font-family="Helvetica,sans-Serif" font-size="10.00">_tool::SplitInteger</text>
</a>
</g>
</g>
<!-- Node1&#45;&gt;Node22 -->
<g id="edge27_Node000001_Node000022" class="edge">
<title>Node1&#45;&gt;Node22</title>
<g id="a_edge27_Node000001_Node000022"><a xlink:title=" ">
<path fill="none" stroke="#63b8ff" d="M875.78,-359.85C854.31,-364.87 829.07,-370.77 806.35,-376.08"/>
<polygon fill="#63b8ff" stroke="#63b8ff" points="876.72,-363.23 885.66,-357.54 875.13,-356.41 876.72,-363.23"/>
</a>
</g>
</g>
<!-- Node23 -->
<g id="Node000023" class="node">
<title>Node23</title>
<g id="a_Node000023"><a xlink:href="namespacecxxopts_1_1values.html#a56fb16f3a09e011db85757491c52691e" target="_top" xlink:title=" ">
<polygon fill="white" stroke="#666666" points="822,-30 661,-30 661,0 822,0 822,-30"/>
<text text-anchor="start" x="669" y="-18" font-family="Helvetica,sans-Serif" font-size="10.00">cxxopts::values::stringstream</text>
<text text-anchor="middle" x="741.5" y="-7" font-family="Helvetica,sans-Serif" font-size="10.00">_parser</text>
</a>
</g>
</g>
<!-- Node1&#45;&gt;Node23 -->
<g id="edge29_Node000001_Node000023" class="edge">
<title>Node1&#45;&gt;Node23</title>
<g id="a_edge29_Node000001_Node000023"><a xlink:title=" ">
<path fill="none" stroke="#63b8ff" d="M925.79,-328.27C922.76,-273.99 906.73,-120.98 822,-39 818.48,-35.59 814.49,-32.66 810.22,-30.15"/>
<polygon fill="#63b8ff" stroke="#63b8ff" points="922.3,-328.47 926.26,-338.3 929.29,-328.14 922.3,-328.47"/>
</a>
</g>
</g>
<!-- Node3 -->
<g id="Node000003" class="node">
<title>Node3</title>
<g id="a_Node000003"><a xlink:href="classcxxopts_1_1Options.html#a353100b81684422664822103672a841a" target="_top" xlink:title=" ">
<polygon fill="white" stroke="#666666" points="615,-664 493,-664 493,-634 615,-634 615,-664"/>
<text text-anchor="start" x="501" y="-652" font-family="Helvetica,sans-Serif" font-size="10.00">cxxopts::Options::add</text>
<text text-anchor="middle" x="554" y="-641" font-family="Helvetica,sans-Serif" font-size="10.00">_option</text>
</a>
</g>
</g>
<!-- Node2&#45;&gt;Node3 -->
<g id="edge2_Node000002_Node000003" class="edge">
<title>Node2&#45;&gt;Node3</title>
<g id="a_edge2_Node000002_Node000003"><a xlink:title=" ">
<path fill="none" stroke="#63b8ff" d="M670.09,-649C652.02,-649 632.75,-649 615.24,-649"/>
<polygon fill="#63b8ff" stroke="#63b8ff" points="670.27,-652.5 680.27,-649 670.27,-645.5 670.27,-652.5"/>
</a>
</g>
</g>
<!-- Node4 -->
<g id="Node000004" class="node">
<title>Node4</title>
<g id="a_Node000004"><a xlink:href="classcxxopts_1_1Options.html#ac9aef634db43a56f369749f2710e1066" target="_top" xlink:title=" ">
<polygon fill="white" stroke="#666666" points="442.5,-664 320.5,-664 320.5,-634 442.5,-634 442.5,-664"/>
<text text-anchor="start" x="328.5" y="-652" font-family="Helvetica,sans-Serif" font-size="10.00">cxxopts::Options::add</text>
<text text-anchor="middle" x="381.5" y="-641" font-family="Helvetica,sans-Serif" font-size="10.00">_option</text>
</a>
</g>
</g>
<!-- Node3&#45;&gt;Node4 -->
<g id="edge3_Node000003_Node000004" class="edge">
<title>Node3&#45;&gt;Node4</title>
<g id="a_edge3_Node000003_Node000004"><a xlink:title=" ">
<path fill="none" stroke="#63b8ff" d="M482.81,-649C469.48,-649 455.63,-649 442.64,-649"/>
<polygon fill="#63b8ff" stroke="#63b8ff" points="482.89,-652.5 492.89,-649 482.89,-645.5 482.89,-652.5"/>
</a>
</g>
</g>
<!-- Node3&#45;&gt;Node5 -->
<g id="edge4_Node000003_Node000005" class="edge">
<title>Node3&#45;&gt;Node5</title>
<g id="a_edge4_Node000003_Node000005"><a xlink:title=" ">
<path fill="none" stroke="#63b8ff" d="M505.23,-630.23C478.6,-619.76 445.89,-606.91 420.93,-597.1"/>
<polygon fill="#63b8ff" stroke="#63b8ff" points="504.15,-633.56 514.74,-633.96 506.71,-627.05 504.15,-633.56"/>
</a>
</g>
</g>
<!-- Node6 -->
<g id="Node000006" class="node">
<title>Node6</title>
<g id="a_Node000006"><a xlink:href="classcxxopts_1_1Options.html#a95878aa582f2ed8e0a2b73e735eb287d" target="_top" xlink:title=" ">
<polygon fill="white" stroke="#666666" points="280,-597 158,-597 158,-567 280,-567 280,-597"/>
<text text-anchor="start" x="166" y="-585" font-family="Helvetica,sans-Serif" font-size="10.00">cxxopts::Options::add</text>
<text text-anchor="middle" x="219" y="-574" font-family="Helvetica,sans-Serif" font-size="10.00">_options</text>
</a>
</g>
</g>
<!-- Node5&#45;&gt;Node6 -->
<g id="edge5_Node000005_Node000006" class="edge">
<title>Node5&#45;&gt;Node6</title>
<g id="a_edge5_Node000005_Node000006"><a xlink:title=" ">
<path fill="none" stroke="#63b8ff" d="M310.65,-582C300.46,-582 290.05,-582 280.08,-582"/>
<polygon fill="#63b8ff" stroke="#63b8ff" points="310.74,-585.5 320.74,-582 310.74,-578.5 310.74,-585.5"/>
</a>
</g>
</g>
<!-- Node8 -->
<g id="Node000008" class="node">
<title>Node8</title>
<g id="a_Node000008"><a xlink:href="receiver-normal_8cpp.html#a3c04138a5bfe5d72780bb7e82a18e627" target="_top" xlink:title=" ">
<polygon fill="white" stroke="#666666" points="239.5,-463.5 198.5,-463.5 198.5,-444.5 239.5,-444.5 239.5,-463.5"/>
<text text-anchor="middle" x="219" y="-451.5" font-family="Helvetica,sans-Serif" font-size="10.00">main</text>
</a>
</g>
</g>
<!-- Node5&#45;&gt;Node8 -->
<g id="edge7_Node000005_Node000008" class="edge">
<title>Node5&#45;&gt;Node8</title>
<g id="a_edge7_Node000005_Node000008"><a xlink:title=" ">
<path fill="none" stroke="#63b8ff" d="M353.48,-560.45C318.18,-532.3 257.85,-484.19 232.16,-463.7"/>
<polygon fill="#63b8ff" stroke="#63b8ff" points="351.46,-563.32 361.46,-566.81 355.82,-557.84 351.46,-563.32"/>
</a>
</g>
</g>
<!-- Node7 -->
<g id="Node000007" class="node">
<title>Node7</title>
<g id="a_Node000007"><a xlink:href="classcxxopts_1_1Options.html#ac698adfe5b5ca50d36017a52b27fb828" target="_top" xlink:title=" ">
<polygon fill="white" stroke="#666666" points="122,-597 0,-597 0,-567 122,-567 122,-597"/>
<text text-anchor="start" x="8" y="-585" font-family="Helvetica,sans-Serif" font-size="10.00">cxxopts::Options::add</text>
<text text-anchor="middle" x="61" y="-574" font-family="Helvetica,sans-Serif" font-size="10.00">_option</text>
</a>
</g>
</g>
<!-- Node6&#45;&gt;Node7 -->
<g id="edge6_Node000006_Node000007" class="edge">
<title>Node6&#45;&gt;Node7</title>
<g id="a_edge6_Node000006_Node000007"><a xlink:title=" ">
<path fill="none" stroke="#63b8ff" d="M147.46,-582C139.01,-582 130.44,-582 122.15,-582"/>
<polygon fill="#63b8ff" stroke="#63b8ff" points="147.69,-585.5 157.69,-582 147.69,-578.5 147.69,-585.5"/>
</a>
</g>
</g>
<!-- Node10 -->
<g id="Node000010" class="node">
<title>Node10</title>
<g id="a_Node000010"><a xlink:href="transmitter-normal_8cpp.html#a3c04138a5bfe5d72780bb7e82a18e627" target="_top" xlink:title=" ">
<polygon fill="white" stroke="#666666" points="574.5,-469.5 533.5,-469.5 533.5,-450.5 574.5,-450.5 574.5,-469.5"/>
<text text-anchor="middle" x="554" y="-457.5" font-family="Helvetica,sans-Serif" font-size="10.00">main</text>
</a>
</g>
</g>
<!-- Node9&#45;&gt;Node10 -->
<g id="edge9_Node000009_Node000010" class="edge">
<title>Node9&#45;&gt;Node10</title>
<g id="a_edge9_Node000009_Node000010"><a xlink:title=" ">
<path fill="none" stroke="#63b8ff" d="M662.43,-472.74C630.34,-468.94 595.85,-464.85 574.85,-462.35"/>
<polygon fill="#63b8ff" stroke="#63b8ff" points="662.4,-476.26 672.74,-473.96 663.22,-469.31 662.4,-476.26"/>
</a>
</g>
</g>
<!-- Node12&#45;&gt;Node13 -->
<g id="edge12_Node000012_Node000013" class="edge">
<title>Node12&#45;&gt;Node13</title>
<g id="a_edge12_Node000012_Node000013"><a xlink:title=" ">
<path fill="none" stroke="#63b8ff" d="M671.02,-81.97C667.57,-83.53 664.21,-85.21 661,-87 622.99,-108.23 586.87,-145.04 568.19,-165.73"/>
<polygon fill="#63b8ff" stroke="#63b8ff" points="672.42,-85.18 680.3,-78.1 669.73,-78.72 672.42,-85.18"/>
</a>
</g>
</g>
<!-- Node14 -->
<g id="Node000014" class="node">
<title>Node14</title>
<g id="a_Node000014"><a xlink:href="classcxxopts_1_1Options.html#a3e740564cc4c991078f1451e1fcd082b" target="_top" xlink:title=" ">
<polygon fill="white" stroke="#666666" points="447,-294.5 316,-294.5 316,-275.5 447,-275.5 447,-294.5"/>
<text text-anchor="middle" x="381.5" y="-282.5" font-family="Helvetica,sans-Serif" font-size="10.00">cxxopts::Options::parse</text>
</a>
</g>
</g>
<!-- Node13&#45;&gt;Node14 -->
<g id="edge13_Node000013_Node000014" class="edge">
<title>Node13&#45;&gt;Node14</title>
<g id="a_edge13_Node000013_Node000014"><a xlink:title=" ">
<path fill="none" stroke="#63b8ff" d="M519.35,-201.53C482.66,-223.91 425.52,-258.76 398.15,-275.45"/>
<polygon fill="#63b8ff" stroke="#63b8ff" points="521.49,-204.32 528.21,-196.12 517.85,-198.34 521.49,-204.32"/>
</a>
</g>
</g>
<!-- Node14&#45;&gt;Node8 -->
<g id="edge14_Node000014_Node000008" class="edge">
<title>Node14&#45;&gt;Node8</title>
<g id="a_edge14_Node000014_Node000008"><a xlink:title=" ">
<path fill="none" stroke="#63b8ff" d="M364.25,-302.11C330.93,-337.19 255.79,-416.31 229.39,-444.11"/>
<polygon fill="#63b8ff" stroke="#63b8ff" points="367.06,-304.23 371.41,-294.57 361.99,-299.41 367.06,-304.23"/>
</a>
</g>
</g>
<!-- Node15&#45;&gt;Node13 -->
<g id="edge16_Node000015_Node000013" class="edge">
<title>Node15&#45;&gt;Node13</title>
<g id="a_edge16_Node000015_Node000013"><a xlink:title=" ">
<path fill="none" stroke="#63b8ff" d="M677.93,-129.14C672.18,-131.03 666.46,-133 661,-135 635.76,-144.25 607.9,-156.42 587.08,-165.92"/>
<polygon fill="#63b8ff" stroke="#63b8ff" points="679.17,-132.42 687.62,-126.03 677.02,-125.75 679.17,-132.42"/>
</a>
</g>
</g>
<!-- Node18&#45;&gt;Node10 -->
<g id="edge21_Node000018_Node000010" class="edge">
<title>Node18&#45;&gt;Node10</title>
<g id="a_edge21_Node000018_Node000010"><a xlink:title=" ">
<path fill="none" stroke="#63b8ff" d="M672.66,-446.68C637.75,-450.63 597.77,-455.16 574.55,-457.79"/>
<polygon fill="#63b8ff" stroke="#63b8ff" points="673.28,-450.13 682.82,-445.53 672.49,-443.18 673.28,-450.13"/>
</a>
</g>
</g>
<!-- Node21&#45;&gt;Node5 -->
<g id="edge26_Node000021_Node000005" class="edge">
<title>Node21&#45;&gt;Node5</title>
<g id="a_edge26_Node000021_Node000005"><a xlink:title=" ">
<path fill="none" stroke="#63b8ff" d="M472.48,-571.97C462.24,-573.11 451.91,-574.27 442.08,-575.36"/>
<polygon fill="#63b8ff" stroke="#63b8ff" points="473.12,-575.42 482.67,-570.84 472.34,-568.47 473.12,-575.42"/>
</a>
</g>
</g>
<!-- Node22&#45;&gt;Node16 -->
<g id="edge28_Node000022_Node000016" class="edge">
<title>Node22&#45;&gt;Node16</title>
<g id="a_edge28_Node000022_Node000016"><a xlink:title=" ">
<path fill="none" stroke="#63b8ff" d="M666.56,-382.63C651.4,-380.91 635.55,-379.12 620.71,-377.44"/>
<polygon fill="#63b8ff" stroke="#63b8ff" points="666.59,-386.16 676.92,-383.8 667.38,-379.2 666.59,-386.16"/>
</a>
</g>
</g>
</g>
</svg>
