<?xml version="1.0" encoding="UTF-8" standalone="no"?>
<!DOCTYPE svg PUBLIC "-//W3C//DTD SVG 1.1//EN"
 "http://www.w3.org/Graphics/SVG/1.1/DTD/svg11.dtd">
<!-- Generated by graphviz version 2.43.0 (0)
 -->
<!-- Title: detail::write_exponent Pages: 1 -->
<svg width="426pt" height="119pt"
 viewBox="0.00 0.00 426.00 118.50" xmlns="http://www.w3.org/2000/svg" xmlns:xlink="http://www.w3.org/1999/xlink">
<g id="graph0" class="graph" transform="scale(1 1) rotate(0) translate(4 114.5)">
<title>detail::write_exponent</title>
<!-- Node1 -->
<g id="Node000001" class="node">
<title>Node1</title>
<g id="a_Node000001"><a xlink:title=" ">
<polygon fill="#999999" stroke="#666666" points="126,-57 0,-57 0,-38 126,-38 126,-57"/>
<text text-anchor="middle" x="63" y="-45" font-family="Helvetica,sans-Serif" font-size="10.00">detail::write_exponent</text>
</a>
</g>
</g>
<!-- Node2 -->
<g id="Node000002" class="node">
<title>Node2</title>
<g id="a_Node000002"><a xlink:href="namespacedetail.html#ac83427f5f16569571f442ec01887e045" target="_top" xlink:title=" ">
<polygon fill="white" stroke="#666666" points="272,-95 162,-95 162,-76 272,-76 272,-95"/>
<text text-anchor="middle" x="217" y="-83" font-family="Helvetica,sans-Serif" font-size="10.00">detail::count_digits</text>
</a>
</g>
</g>
<!-- Node1&#45;&gt;Node2 -->
<g id="edge1_Node000001_Node000002" class="edge">
<title>Node1&#45;&gt;Node2</title>
<g id="a_edge1_Node000001_Node000002"><a xlink:title=" ">
<path fill="none" stroke="#63b8ff" d="M102.36,-57.09C122.32,-62.08 146.93,-68.23 168.13,-73.53"/>
<polygon fill="#63b8ff" stroke="#63b8ff" points="167.37,-76.95 177.92,-75.98 169.07,-70.16 167.37,-76.95"/>
</a>
</g>
</g>
<!-- Node4 -->
<g id="Node000004" class="node">
<title>Node4</title>
<g id="a_Node000004"><a xlink:href="namespacedetail.html#a75ed2634319883d038944529dbb954e2" target="_top" xlink:title=" ">
<polygon fill="white" stroke="#666666" points="416,-62.5 310,-62.5 310,-32.5 416,-32.5 416,-62.5"/>
<text text-anchor="start" x="318" y="-50.5" font-family="Helvetica,sans-Serif" font-size="10.00">detail::is_constant</text>
<text text-anchor="middle" x="363" y="-39.5" font-family="Helvetica,sans-Serif" font-size="10.00">_evaluated</text>
</a>
</g>
</g>
<!-- Node1&#45;&gt;Node4 -->
<g id="edge5_Node000001_Node000004" class="edge">
<title>Node1&#45;&gt;Node4</title>
<g id="a_edge5_Node000001_Node000004"><a xlink:title=" ">
<path fill="none" stroke="#63b8ff" d="M126.11,-47.5C177.01,-47.5 248.72,-47.5 299.69,-47.5"/>
<polygon fill="#63b8ff" stroke="#63b8ff" points="299.91,-51 309.91,-47.5 299.91,-44 299.91,-51"/>
</a>
</g>
</g>
<!-- Node5 -->
<g id="Node000005" class="node">
<title>Node5</title>
<g id="a_Node000005"><a xlink:href="namespacedetail.html#abcb0aad14fe5c9d85a83f3ad59fad077" target="_top" xlink:title=" ">
<polygon fill="white" stroke="#666666" points="258.5,-19 175.5,-19 175.5,0 258.5,0 258.5,-19"/>
<text text-anchor="middle" x="217" y="-7" font-family="Helvetica,sans-Serif" font-size="10.00">detail::digits2</text>
</a>
</g>
</g>
<!-- Node1&#45;&gt;Node5 -->
<g id="edge4_Node000001_Node000005" class="edge">
<title>Node1&#45;&gt;Node5</title>
<g id="a_edge4_Node000001_Node000005"><a xlink:title=" ">
<path fill="none" stroke="#63b8ff" d="M102.36,-37.91C122.32,-32.92 146.93,-26.77 168.13,-21.47"/>
<polygon fill="#63b8ff" stroke="#63b8ff" points="169.07,-24.84 177.92,-19.02 167.37,-18.05 169.07,-24.84"/>
</a>
</g>
</g>
<!-- Node3 -->
<g id="Node000003" class="node">
<title>Node3</title>
<g id="a_Node000003"><a xlink:href="namespacedetail.html#a300bc96ee936e9f6ef3565c8dff68a72" target="_top" xlink:title=" ">
<polygon fill="white" stroke="#666666" points="418,-110.5 308,-110.5 308,-80.5 418,-80.5 418,-110.5"/>
<text text-anchor="start" x="316" y="-98.5" font-family="Helvetica,sans-Serif" font-size="10.00">detail::count_digits</text>
<text text-anchor="middle" x="363" y="-87.5" font-family="Helvetica,sans-Serif" font-size="10.00">_fallback</text>
</a>
</g>
</g>
<!-- Node2&#45;&gt;Node3 -->
<g id="edge2_Node000002_Node000003" class="edge">
<title>Node2&#45;&gt;Node3</title>
<g id="a_edge2_Node000002_Node000003"><a xlink:title=" ">
<path fill="none" stroke="#63b8ff" d="M272.03,-89.25C280.31,-89.83 288.94,-90.43 297.42,-91.02"/>
<polygon fill="#63b8ff" stroke="#63b8ff" points="297.45,-94.53 307.67,-91.73 297.93,-87.54 297.45,-94.53"/>
</a>
</g>
</g>
<!-- Node2&#45;&gt;Node4 -->
<g id="edge3_Node000002_Node000004" class="edge">
<title>Node2&#45;&gt;Node4</title>
<g id="a_edge3_Node000002_Node000004"><a xlink:title=" ">
<path fill="none" stroke="#63b8ff" d="M254.34,-75.91C268.14,-72.27 284.29,-68.01 299.82,-63.91"/>
<polygon fill="#63b8ff" stroke="#63b8ff" points="301.12,-67.18 309.9,-61.25 299.34,-60.42 301.12,-67.18"/>
</a>
</g>
</g>
</g>
</svg>
