<?xml version="1.0" encoding="UTF-8" standalone="no"?>
<!DOCTYPE svg PUBLIC "-//W3C//DTD SVG 1.1//EN"
 "http://www.w3.org/Graphics/SVG/1.1/DTD/svg11.dtd">
<!-- Generated by graphviz version 2.43.0 (0)
 -->
<!-- Title: detail::num_significand_bits Pages: 1 -->
<svg width="349pt" height="485pt"
 viewBox="0.00 0.00 349.00 484.50" xmlns="http://www.w3.org/2000/svg" xmlns:xlink="http://www.w3.org/1999/xlink">
<g id="graph0" class="graph" transform="scale(1 1) rotate(0) translate(4 480.5)">
<title>detail::num_significand_bits</title>
<!-- Node1 -->
<g id="Node000001" class="node">
<title>Node1</title>
<g id="a_Node000001"><a xlink:title=" ">
<polygon fill="#999999" stroke="#666666" points="341,-215 188,-215 188,-196 341,-196 341,-215"/>
<text text-anchor="middle" x="264.5" y="-203" font-family="Helvetica,sans-Serif" font-size="10.00">detail::num_significand_bits</text>
</a>
</g>
</g>
<!-- Node2 -->
<g id="Node000002" class="node">
<title>Node2</title>
<g id="a_Node000002"><a xlink:href="structdetail_1_1dragonbox_1_1cache__accessor_3_01float_01_4.html#a9fbaea04bc46639a161258c7d9233747" target="_top" xlink:title=" ">
<polygon fill="white" stroke="#666666" points="149,-476.5 3,-476.5 3,-424.5 149,-424.5 149,-476.5"/>
<text text-anchor="start" x="11" y="-464.5" font-family="Helvetica,sans-Serif" font-size="10.00">detail::dragonbox::</text>
<text text-anchor="start" x="11" y="-453.5" font-family="Helvetica,sans-Serif" font-size="10.00">cache_accessor&lt; float</text>
<text text-anchor="start" x="11" y="-442.5" font-family="Helvetica,sans-Serif" font-size="10.00"> &gt;::compute_left_endpoint</text>
<text text-anchor="middle" x="76" y="-431.5" font-family="Helvetica,sans-Serif" font-size="10.00">_for_shorter_interval_case</text>
</a>
</g>
</g>
<!-- Node1&#45;&gt;Node2 -->
<g id="edge1_Node000001_Node000002" class="edge">
<title>Node1&#45;&gt;Node2</title>
<g id="a_edge1_Node000001_Node000002"><a xlink:title=" ">
<path fill="none" stroke="#63b8ff" d="M257.85,-224.93C245.19,-265.38 210.94,-359.51 152,-415.5 148.67,-418.67 144.99,-421.59 141.12,-424.28"/>
<polygon fill="#63b8ff" stroke="#63b8ff" points="261.24,-225.82 260.79,-215.23 254.54,-223.79 261.24,-225.82"/>
</a>
</g>
</g>
<!-- Node3 -->
<g id="Node000003" class="node">
<title>Node3</title>
<g id="a_Node000003"><a xlink:href="structdetail_1_1dragonbox_1_1cache__accessor_3_01double_01_4.html#a4e6007b40fb31fbad47de9f9d35f0b2d" target="_top" xlink:title=" ">
<polygon fill="white" stroke="#666666" points="149,-406.5 3,-406.5 3,-354.5 149,-354.5 149,-406.5"/>
<text text-anchor="start" x="11" y="-394.5" font-family="Helvetica,sans-Serif" font-size="10.00">detail::dragonbox::</text>
<text text-anchor="start" x="11" y="-383.5" font-family="Helvetica,sans-Serif" font-size="10.00">cache_accessor&lt; double</text>
<text text-anchor="start" x="11" y="-372.5" font-family="Helvetica,sans-Serif" font-size="10.00"> &gt;::compute_left_endpoint</text>
<text text-anchor="middle" x="76" y="-361.5" font-family="Helvetica,sans-Serif" font-size="10.00">_for_shorter_interval_case</text>
</a>
</g>
</g>
<!-- Node1&#45;&gt;Node3 -->
<g id="edge2_Node000001_Node000003" class="edge">
<title>Node1&#45;&gt;Node3</title>
<g id="a_edge2_Node000001_Node000003"><a xlink:title=" ">
<path fill="none" stroke="#63b8ff" d="M252.71,-224.01C234.93,-253.16 196.95,-310.08 152,-345.5 147.94,-348.7 143.53,-351.7 138.97,-354.48"/>
<polygon fill="#63b8ff" stroke="#63b8ff" points="255.81,-225.64 257.94,-215.26 249.81,-222.05 255.81,-225.64"/>
</a>
</g>
</g>
<!-- Node4 -->
<g id="Node000004" class="node">
<title>Node4</title>
<g id="a_Node000004"><a xlink:href="structdetail_1_1dragonbox_1_1cache__accessor_3_01float_01_4.html#ae0590b9ca8382f24be1976526ad853d7" target="_top" xlink:title=" ">
<polygon fill="white" stroke="#666666" points="152,-336.5 0,-336.5 0,-284.5 152,-284.5 152,-336.5"/>
<text text-anchor="start" x="8" y="-324.5" font-family="Helvetica,sans-Serif" font-size="10.00">detail::dragonbox::</text>
<text text-anchor="start" x="8" y="-313.5" font-family="Helvetica,sans-Serif" font-size="10.00">cache_accessor&lt; float</text>
<text text-anchor="start" x="8" y="-302.5" font-family="Helvetica,sans-Serif" font-size="10.00"> &gt;::compute_right_endpoint</text>
<text text-anchor="middle" x="76" y="-291.5" font-family="Helvetica,sans-Serif" font-size="10.00">_for_shorter_interval_case</text>
</a>
</g>
</g>
<!-- Node1&#45;&gt;Node4 -->
<g id="edge3_Node000001_Node000004" class="edge">
<title>Node1&#45;&gt;Node4</title>
<g id="a_edge3_Node000001_Node000004"><a xlink:title=" ">
<path fill="none" stroke="#63b8ff" d="M241.02,-220.77C218.85,-235.56 183.76,-258.21 152,-275.5 146.45,-278.52 140.59,-281.54 134.69,-284.47"/>
<polygon fill="#63b8ff" stroke="#63b8ff" points="243.05,-223.62 249.41,-215.14 239.15,-217.81 243.05,-223.62"/>
</a>
</g>
</g>
<!-- Node5 -->
<g id="Node000005" class="node">
<title>Node5</title>
<g id="a_Node000005"><a xlink:href="structdetail_1_1dragonbox_1_1cache__accessor_3_01double_01_4.html#a806fff5c96c128ed929494071c1ecd27" target="_top" xlink:title=" ">
<polygon fill="white" stroke="#666666" points="152,-266.5 0,-266.5 0,-214.5 152,-214.5 152,-266.5"/>
<text text-anchor="start" x="8" y="-254.5" font-family="Helvetica,sans-Serif" font-size="10.00">detail::dragonbox::</text>
<text text-anchor="start" x="8" y="-243.5" font-family="Helvetica,sans-Serif" font-size="10.00">cache_accessor&lt; double</text>
<text text-anchor="start" x="8" y="-232.5" font-family="Helvetica,sans-Serif" font-size="10.00"> &gt;::compute_right_endpoint</text>
<text text-anchor="middle" x="76" y="-221.5" font-family="Helvetica,sans-Serif" font-size="10.00">_for_shorter_interval_case</text>
</a>
</g>
</g>
<!-- Node1&#45;&gt;Node5 -->
<g id="edge4_Node000001_Node000005" class="edge">
<title>Node1&#45;&gt;Node5</title>
<g id="a_edge4_Node000001_Node000005"><a xlink:title=" ">
<path fill="none" stroke="#63b8ff" d="M202.68,-216.91C186.52,-219.95 168.86,-223.26 152.03,-226.42"/>
<polygon fill="#63b8ff" stroke="#63b8ff" points="203.36,-220.35 212.54,-215.06 202.06,-213.47 203.36,-220.35"/>
</a>
</g>
</g>
<!-- Node6 -->
<g id="Node000006" class="node">
<title>Node6</title>
<g id="a_Node000006"><a xlink:href="structdetail_1_1dragonbox_1_1cache__accessor_3_01float_01_4.html#a4b89d081c357b1e2a547c5d74eafc76e" target="_top" xlink:title=" ">
<polygon fill="white" stroke="#666666" points="149,-196.5 3,-196.5 3,-144.5 149,-144.5 149,-196.5"/>
<text text-anchor="start" x="11" y="-184.5" font-family="Helvetica,sans-Serif" font-size="10.00">detail::dragonbox::</text>
<text text-anchor="start" x="11" y="-173.5" font-family="Helvetica,sans-Serif" font-size="10.00">cache_accessor&lt; float</text>
<text text-anchor="start" x="11" y="-162.5" font-family="Helvetica,sans-Serif" font-size="10.00"> &gt;::compute_round_up_for</text>
<text text-anchor="middle" x="76" y="-151.5" font-family="Helvetica,sans-Serif" font-size="10.00">_shorter_interval_case</text>
</a>
</g>
</g>
<!-- Node1&#45;&gt;Node6 -->
<g id="edge5_Node000001_Node000006" class="edge">
<title>Node1&#45;&gt;Node6</title>
<g id="a_edge5_Node000001_Node000006"><a xlink:title=" ">
<path fill="none" stroke="#63b8ff" d="M202.7,-194.09C185.62,-190.89 166.89,-187.37 149.22,-184.05"/>
<polygon fill="#63b8ff" stroke="#63b8ff" points="202.06,-197.53 212.54,-195.94 203.36,-190.65 202.06,-197.53"/>
</a>
</g>
</g>
<!-- Node7 -->
<g id="Node000007" class="node">
<title>Node7</title>
<g id="a_Node000007"><a xlink:href="structdetail_1_1dragonbox_1_1cache__accessor_3_01double_01_4.html#ac61980cf0cd6b5eb717410fa727e1921" target="_top" xlink:title=" ">
<polygon fill="white" stroke="#666666" points="149,-126.5 3,-126.5 3,-74.5 149,-74.5 149,-126.5"/>
<text text-anchor="start" x="11" y="-114.5" font-family="Helvetica,sans-Serif" font-size="10.00">detail::dragonbox::</text>
<text text-anchor="start" x="11" y="-103.5" font-family="Helvetica,sans-Serif" font-size="10.00">cache_accessor&lt; double</text>
<text text-anchor="start" x="11" y="-92.5" font-family="Helvetica,sans-Serif" font-size="10.00"> &gt;::compute_round_up_for</text>
<text text-anchor="middle" x="76" y="-81.5" font-family="Helvetica,sans-Serif" font-size="10.00">_shorter_interval_case</text>
</a>
</g>
</g>
<!-- Node1&#45;&gt;Node7 -->
<g id="edge6_Node000001_Node000007" class="edge">
<title>Node1&#45;&gt;Node7</title>
<g id="a_edge6_Node000001_Node000007"><a xlink:title=" ">
<path fill="none" stroke="#63b8ff" d="M241.02,-190.23C218.85,-175.44 183.76,-152.79 152,-135.5 146.45,-132.48 140.59,-129.46 134.69,-126.53"/>
<polygon fill="#63b8ff" stroke="#63b8ff" points="239.15,-193.19 249.41,-195.86 243.05,-187.38 239.15,-193.19"/>
</a>
</g>
</g>
<!-- Node8 -->
<g id="Node000008" class="node">
<title>Node8</title>
<g id="a_Node000008"><a xlink:href="namespacedetail.html#add861c358ea50b446b1a06080adb44ba" target="_top" xlink:title=" ">
<polygon fill="white" stroke="#666666" points="131,-56 21,-56 21,-37 131,-37 131,-56"/>
<text text-anchor="middle" x="76" y="-44" font-family="Helvetica,sans-Serif" font-size="10.00">detail::format_float</text>
</a>
</g>
</g>
<!-- Node1&#45;&gt;Node8 -->
<g id="edge7_Node000001_Node000008" class="edge">
<title>Node1&#45;&gt;Node8</title>
<g id="a_edge7_Node000001_Node000008"><a xlink:title=" ">
<path fill="none" stroke="#63b8ff" d="M253.93,-186.84C237.41,-156.53 200.55,-96.84 152,-65.5 145.68,-61.42 138.54,-58.22 131.23,-55.7"/>
<polygon fill="#63b8ff" stroke="#63b8ff" points="250.97,-188.72 258.75,-195.91 257.15,-185.44 250.97,-188.72"/>
</a>
</g>
</g>
<!-- Node9 -->
<g id="Node000009" class="node">
<title>Node9</title>
<g id="a_Node000009"><a xlink:href="namespacedetail.html#afafbc1d0a6a9c364e2a3d9e1489769d7" target="_top" xlink:title=" ">
<polygon fill="white" stroke="#666666" points="125.5,-19 26.5,-19 26.5,0 125.5,0 125.5,-19"/>
<text text-anchor="middle" x="76" y="-7" font-family="Helvetica,sans-Serif" font-size="10.00">detail::normalize</text>
</a>
</g>
</g>
<!-- Node1&#45;&gt;Node9 -->
<g id="edge8_Node000001_Node000009" class="edge">
<title>Node1&#45;&gt;Node9</title>
<g id="a_edge8_Node000001_Node000009"><a xlink:title=" ">
<path fill="none" stroke="#63b8ff" d="M256.86,-186.08C243.27,-149.34 208.69,-69.69 152,-28.5 144.28,-22.89 135.08,-18.94 125.81,-16.14"/>
<polygon fill="#63b8ff" stroke="#63b8ff" points="253.61,-187.38 260.27,-195.62 260.2,-185.03 253.61,-187.38"/>
</a>
</g>
</g>
</g>
</svg>
