<?xml version="1.0" encoding="UTF-8" standalone="no"?>
<!DOCTYPE svg PUBLIC "-//W3C//DTD SVG 1.1//EN"
 "http://www.w3.org/Graphics/SVG/1.1/DTD/svg11.dtd">
<!-- Generated by graphviz version 2.43.0 (0)
 -->
<!-- Title: detail::copy_unit Pages: 1 -->
<svg width="607pt" height="235pt"
 viewBox="0.00 0.00 607.00 235.00" xmlns="http://www.w3.org/2000/svg" xmlns:xlink="http://www.w3.org/1999/xlink">
<g id="graph0" class="graph" transform="scale(1 1) rotate(0) translate(4 231)">
<title>detail::copy_unit</title>
<!-- Node1 -->
<g id="Node000001" class="node">
<title>Node1</title>
<g id="a_Node000001"><a xlink:title=" ">
<polygon fill="#999999" stroke="#666666" points="98,-164.5 0,-164.5 0,-145.5 98,-145.5 98,-164.5"/>
<text text-anchor="middle" x="49" y="-152.5" font-family="Helvetica,sans-Serif" font-size="10.00">detail::copy_unit</text>
</a>
</g>
</g>
<!-- Node2 -->
<g id="Node000002" class="node">
<title>Node2</title>
<g id="a_Node000002"><a xlink:href="classdetail_1_1utf8__to__utf16.html#ace33c220423a9fb9db772128309a38e8" target="_top" xlink:title=" ">
<polygon fill="white" stroke="#666666" points="250,-218 134,-218 134,-188 250,-188 250,-218"/>
<text text-anchor="start" x="142" y="-206" font-family="Helvetica,sans-Serif" font-size="10.00">detail::utf8_to_utf16</text>
<text text-anchor="middle" x="192" y="-195" font-family="Helvetica,sans-Serif" font-size="10.00">::c_str</text>
</a>
</g>
</g>
<!-- Node1&#45;&gt;Node2 -->
<g id="edge1_Node000001_Node000002" class="edge">
<title>Node1&#45;&gt;Node2</title>
<g id="a_edge1_Node000001_Node000002"><a xlink:title=" ">
<path fill="none" stroke="#63b8ff" d="M78.19,-164.6C95.05,-170.33 117.02,-177.81 137.08,-184.65"/>
<polygon fill="#63b8ff" stroke="#63b8ff" points="136.16,-188.03 146.75,-187.94 138.41,-181.4 136.16,-188.03"/>
</a>
</g>
</g>
<!-- Node3 -->
<g id="Node000003" class="node">
<title>Node3</title>
<g id="a_Node000003"><a xlink:href="classdetail_1_1utf8__to__utf16.html#ab55eaddf875d1b3b43e5a18b16235723" target="_top" xlink:title=" ">
<polygon fill="white" stroke="#666666" points="250,-170 134,-170 134,-140 250,-140 250,-170"/>
<text text-anchor="start" x="142" y="-158" font-family="Helvetica,sans-Serif" font-size="10.00">detail::utf8_to_utf16</text>
<text text-anchor="middle" x="192" y="-147" font-family="Helvetica,sans-Serif" font-size="10.00">::size</text>
</a>
</g>
</g>
<!-- Node1&#45;&gt;Node3 -->
<g id="edge2_Node000001_Node000003" class="edge">
<title>Node1&#45;&gt;Node3</title>
<g id="a_edge2_Node000001_Node000003"><a xlink:title=" ">
<path fill="none" stroke="#63b8ff" d="M98.13,-155C106.39,-155 115.1,-155 123.75,-155"/>
<polygon fill="#63b8ff" stroke="#63b8ff" points="123.84,-158.5 133.84,-155 123.84,-151.5 123.84,-158.5"/>
</a>
</g>
</g>
<!-- Node5 -->
<g id="Node000005" class="node">
<title>Node5</title>
<g id="a_Node000005"><a xlink:href="classdetail_1_1utf8__to__utf16.html#aabad25a649e8f141b998e38abd970721" target="_top" xlink:title=" ">
<polygon fill="white" stroke="#666666" points="250,-122 134,-122 134,-92 250,-92 250,-122"/>
<text text-anchor="start" x="142" y="-110" font-family="Helvetica,sans-Serif" font-size="10.00">detail::utf8_to_utf16</text>
<text text-anchor="middle" x="192" y="-99" font-family="Helvetica,sans-Serif" font-size="10.00">::utf8_to_utf16</text>
</a>
</g>
</g>
<!-- Node1&#45;&gt;Node5 -->
<g id="edge4_Node000001_Node000005" class="edge">
<title>Node1&#45;&gt;Node5</title>
<g id="a_edge4_Node000001_Node000005"><a xlink:title=" ">
<path fill="none" stroke="#63b8ff" d="M78.19,-145.4C95.05,-139.67 117.02,-132.19 137.08,-125.35"/>
<polygon fill="#63b8ff" stroke="#63b8ff" points="138.41,-128.6 146.75,-122.06 136.16,-121.97 138.41,-128.6"/>
</a>
</g>
</g>
<!-- Node4 -->
<g id="Node000004" class="node">
<title>Node4</title>
<g id="a_Node000004"><a xlink:href="classdetail_1_1buffer.html#a8685285932360c284d19003fc4ba3edc" target="_top" xlink:title="Returns the size of this buffer.">
<polygon fill="white" stroke="#666666" points="411,-164.5 307,-164.5 307,-145.5 411,-145.5 411,-164.5"/>
<text text-anchor="middle" x="359" y="-152.5" font-family="Helvetica,sans-Serif" font-size="10.00">detail::buffer::size</text>
</a>
</g>
</g>
<!-- Node3&#45;&gt;Node4 -->
<g id="edge3_Node000003_Node000004" class="edge">
<title>Node3&#45;&gt;Node4</title>
<g id="a_edge3_Node000003_Node000004"><a xlink:title=" ">
<path fill="none" stroke="#63b8ff" d="M250.25,-155C265.22,-155 281.42,-155 296.6,-155"/>
<polygon fill="#63b8ff" stroke="#63b8ff" points="296.92,-158.5 306.92,-155 296.92,-151.5 296.92,-158.5"/>
</a>
</g>
</g>
<!-- Node6 -->
<g id="Node000006" class="node">
<title>Node6</title>
<g id="a_Node000006"><a xlink:href="namespacedetail.html#ac7952761a4b6255293c82b7fb3a61d50" target="_top" xlink:title=" ">
<polygon fill="white" stroke="#666666" points="432,-122.5 286,-122.5 286,-103.5 432,-103.5 432,-122.5"/>
<text text-anchor="middle" x="359" y="-110.5" font-family="Helvetica,sans-Serif" font-size="10.00">detail::for_each_codepoint</text>
</a>
</g>
</g>
<!-- Node5&#45;&gt;Node6 -->
<g id="edge5_Node000005_Node000006" class="edge">
<title>Node5&#45;&gt;Node6</title>
<g id="a_edge5_Node000005_Node000006"><a xlink:title=" ">
<path fill="none" stroke="#63b8ff" d="M250.25,-109.08C258.47,-109.38 267.07,-109.69 275.67,-110.01"/>
<polygon fill="#63b8ff" stroke="#63b8ff" points="275.62,-113.51 285.74,-110.37 275.87,-106.51 275.62,-113.51"/>
</a>
</g>
</g>
<!-- Node12 -->
<g id="Node000012" class="node">
<title>Node12</title>
<g id="a_Node000012"><a xlink:href="classdetail_1_1buffer.html#a49016d0c600f79917e00d9e3458c8c92" target="_top" xlink:title=" ">
<polygon fill="white" stroke="#666666" points="427.5,-64.5 290.5,-64.5 290.5,-45.5 427.5,-45.5 427.5,-64.5"/>
<text text-anchor="middle" x="359" y="-52.5" font-family="Helvetica,sans-Serif" font-size="10.00">detail::buffer::push_back</text>
</a>
</g>
</g>
<!-- Node5&#45;&gt;Node12 -->
<g id="edge11_Node000005_Node000012" class="edge">
<title>Node5&#45;&gt;Node12</title>
<g id="a_edge11_Node000005_Node000012"><a xlink:title=" ">
<path fill="none" stroke="#63b8ff" d="M240.72,-91.96C265.21,-84.24 294.7,-74.95 317.98,-67.61"/>
<polygon fill="#63b8ff" stroke="#63b8ff" points="319.06,-70.94 327.54,-64.6 316.95,-64.27 319.06,-70.94"/>
</a>
</g>
</g>
<!-- Node7 -->
<g id="Node000007" class="node">
<title>Node7</title>
<g id="a_Node000007"><a xlink:href="classbasic__string__view.html#aae708273ca864680a424c10441799605" target="_top" xlink:title=" ">
<polygon fill="white" stroke="#666666" points="588,-227 479,-227 479,-197 588,-197 588,-227"/>
<text text-anchor="start" x="487" y="-215" font-family="Helvetica,sans-Serif" font-size="10.00">basic_string_view::</text>
<text text-anchor="middle" x="533.5" y="-204" font-family="Helvetica,sans-Serif" font-size="10.00">basic_string_view</text>
</a>
</g>
</g>
<!-- Node6&#45;&gt;Node7 -->
<g id="edge6_Node000006_Node000007" class="edge">
<title>Node6&#45;&gt;Node7</title>
<g id="a_edge6_Node000006_Node000007"><a xlink:title=" ">
<path fill="none" stroke="#63b8ff" d="M403.3,-122.52C413.33,-126.01 423.54,-130.71 432,-137 454.27,-153.55 446.02,-171.07 468,-188 469.81,-189.39 471.7,-190.71 473.67,-191.96"/>
<polygon fill="#63b8ff" stroke="#63b8ff" points="472.19,-195.14 482.62,-196.98 475.61,-189.03 472.19,-195.14"/>
</a>
</g>
</g>
<!-- Node8 -->
<g id="Node000008" class="node">
<title>Node8</title>
<g id="a_Node000008"><a xlink:href="classbasic__string__view.html#a39cdfe061dc6d64a3adc230b62d8a026" target="_top" xlink:title=" ">
<polygon fill="white" stroke="#666666" points="599,-178.5 468,-178.5 468,-159.5 599,-159.5 599,-178.5"/>
<text text-anchor="middle" x="533.5" y="-166.5" font-family="Helvetica,sans-Serif" font-size="10.00">basic_string_view::data</text>
</a>
</g>
</g>
<!-- Node6&#45;&gt;Node8 -->
<g id="edge7_Node000006_Node000008" class="edge">
<title>Node6&#45;&gt;Node8</title>
<g id="a_edge7_Node000006_Node000008"><a xlink:title=" ">
<path fill="none" stroke="#63b8ff" d="M389.89,-122.6C402.88,-126.86 418.24,-132.04 432,-137 448.15,-142.83 451.71,-145.58 468,-151 473.72,-152.91 479.78,-154.78 485.79,-156.55"/>
<polygon fill="#63b8ff" stroke="#63b8ff" points="485.23,-160.04 495.81,-159.44 487.17,-153.31 485.23,-160.04"/>
</a>
</g>
</g>
<!-- Node9 -->
<g id="Node000009" class="node">
<title>Node9</title>
<g id="a_Node000009"><a xlink:href="classbasic__string__view.html#a216bbe1b012b590698d7bb4e96d1af3f" target="_top" xlink:title=" ">
<polygon fill="white" stroke="#666666" points="597.5,-141.5 469.5,-141.5 469.5,-122.5 597.5,-122.5 597.5,-141.5"/>
<text text-anchor="middle" x="533.5" y="-129.5" font-family="Helvetica,sans-Serif" font-size="10.00">basic_string_view::size</text>
</a>
</g>
</g>
<!-- Node6&#45;&gt;Node9 -->
<g id="edge8_Node000006_Node000009" class="edge">
<title>Node6&#45;&gt;Node9</title>
<g id="a_edge8_Node000006_Node000009"><a xlink:title=" ">
<path fill="none" stroke="#63b8ff" d="M432.16,-120.95C441.14,-121.94 450.34,-122.95 459.35,-123.94"/>
<polygon fill="#63b8ff" stroke="#63b8ff" points="459.08,-127.43 469.41,-125.05 459.85,-120.48 459.08,-127.43"/>
</a>
</g>
</g>
<!-- Node10 -->
<g id="Node000010" class="node">
<title>Node10</title>
<g id="a_Node000010"><a xlink:href="namespacedetail.html#a4855e668246c731a97484efc329f2aac" target="_top" xlink:title=" ">
<polygon fill="white" stroke="#666666" points="588.5,-104.5 478.5,-104.5 478.5,-85.5 588.5,-85.5 588.5,-104.5"/>
<text text-anchor="middle" x="533.5" y="-92.5" font-family="Helvetica,sans-Serif" font-size="10.00">detail::to_unsigned</text>
</a>
</g>
</g>
<!-- Node6&#45;&gt;Node10 -->
<g id="edge9_Node000006_Node000010" class="edge">
<title>Node6&#45;&gt;Node10</title>
<g id="a_edge9_Node000006_Node000010"><a xlink:title=" ">
<path fill="none" stroke="#63b8ff" d="M432.16,-105.47C444.15,-104.22 456.52,-102.93 468.3,-101.7"/>
<polygon fill="#63b8ff" stroke="#63b8ff" points="468.9,-105.16 478.48,-100.64 468.17,-98.19 468.9,-105.16"/>
</a>
</g>
</g>
<!-- Node11 -->
<g id="Node000011" class="node">
<title>Node11</title>
<g id="a_Node000011"><a xlink:href="namespacedetail.html#a9cd935fa9e8ecf106e59bee1411440b9" target="_top" xlink:title=" ">
<polygon fill="white" stroke="#666666" points="588.5,-67.5 478.5,-67.5 478.5,-48.5 588.5,-48.5 588.5,-67.5"/>
<text text-anchor="middle" x="533.5" y="-55.5" font-family="Helvetica,sans-Serif" font-size="10.00">detail::utf8_decode</text>
</a>
</g>
</g>
<!-- Node6&#45;&gt;Node11 -->
<g id="edge10_Node000006_Node000011" class="edge">
<title>Node6&#45;&gt;Node11</title>
<g id="a_edge10_Node000006_Node000011"><a xlink:title=" ">
<path fill="none" stroke="#63b8ff" d="M387.88,-103.4C409.64,-95.99 440.66,-85.58 468,-77 474.97,-74.81 482.38,-72.56 489.61,-70.4"/>
<polygon fill="#63b8ff" stroke="#63b8ff" points="490.69,-73.73 499.29,-67.54 488.71,-67.02 490.69,-73.73"/>
</a>
</g>
</g>
<!-- Node13 -->
<g id="Node000013" class="node">
<title>Node13</title>
<g id="a_Node000013"><a xlink:href="classdetail_1_1buffer.html#a91bcecc177b01b84d693028111fbd8eb" target="_top" xlink:title=" ">
<polygon fill="white" stroke="#666666" points="582.5,-30 484.5,-30 484.5,0 582.5,0 582.5,-30"/>
<text text-anchor="start" x="492.5" y="-18" font-family="Helvetica,sans-Serif" font-size="10.00">detail::buffer::try</text>
<text text-anchor="middle" x="533.5" y="-7" font-family="Helvetica,sans-Serif" font-size="10.00">_reserve</text>
</a>
</g>
</g>
<!-- Node12&#45;&gt;Node13 -->
<g id="edge12_Node000012_Node000013" class="edge">
<title>Node12&#45;&gt;Node13</title>
<g id="a_edge12_Node000012_Node000013"><a xlink:title=" ">
<path fill="none" stroke="#63b8ff" d="M401.32,-45.42C423.21,-40.34 450.46,-34.02 474.44,-28.46"/>
<polygon fill="#63b8ff" stroke="#63b8ff" points="475.54,-31.8 484.49,-26.13 473.96,-24.98 475.54,-31.8"/>
</a>
</g>
</g>
</g>
</svg>
