<?xml version="1.0" encoding="UTF-8" standalone="no"?>
<!DOCTYPE svg PUBLIC "-//W3C//DTD SVG 1.1//EN"
 "http://www.w3.org/Graphics/SVG/1.1/DTD/svg11.dtd">
<!-- Generated by graphviz version 2.43.0 (0)
 -->
<!-- Title: detail::dragonbox::umul128_upper64 Pages: 1 -->
<svg width="456pt" height="202pt"
 viewBox="0.00 0.00 456.00 202.00" xmlns="http://www.w3.org/2000/svg" xmlns:xlink="http://www.w3.org/1999/xlink">
<g id="graph0" class="graph" transform="scale(1 1) rotate(0) translate(4 198)">
<title>detail::dragonbox::umul128_upper64</title>
<!-- Node1 -->
<g id="Node000001" class="node">
<title>Node1</title>
<g id="a_Node000001"><a xlink:title=" ">
<polygon fill="#999999" stroke="#666666" points="448,-117.5 340,-117.5 340,-87.5 448,-87.5 448,-117.5"/>
<text text-anchor="start" x="348" y="-105.5" font-family="Helvetica,sans-Serif" font-size="10.00">detail::dragonbox::</text>
<text text-anchor="middle" x="394" y="-94.5" font-family="Helvetica,sans-Serif" font-size="10.00">umul128_upper64</text>
</a>
</g>
</g>
<!-- Node2 -->
<g id="Node000002" class="node">
<title>Node2</title>
<g id="a_Node000002"><a xlink:href="namespacedetail_1_1dragonbox.html#a1e63f7809d3939ec0f724e6ac65f5e8c" target="_top" xlink:title=" ">
<polygon fill="white" stroke="#666666" points="304,-194 173,-194 173,-153 304,-153 304,-194"/>
<text text-anchor="start" x="181" y="-182" font-family="Helvetica,sans-Serif" font-size="10.00">detail::dragonbox::</text>
<text text-anchor="start" x="181" y="-171" font-family="Helvetica,sans-Serif" font-size="10.00">divide_by_10_to_kappa</text>
<text text-anchor="middle" x="238.5" y="-160" font-family="Helvetica,sans-Serif" font-size="10.00">_plus_1</text>
</a>
</g>
</g>
<!-- Node1&#45;&gt;Node2 -->
<g id="edge1_Node000001_Node000002" class="edge">
<title>Node1&#45;&gt;Node2</title>
<g id="a_edge1_Node000001_Node000002"><a xlink:title=" ">
<path fill="none" stroke="#63b8ff" d="M351.21,-121.83C330.36,-131.47 305.14,-143.14 283.94,-152.94"/>
<polygon fill="#63b8ff" stroke="#63b8ff" points="352.84,-124.93 360.45,-117.56 349.9,-118.58 352.84,-124.93"/>
</a>
</g>
</g>
<!-- Node3 -->
<g id="Node000003" class="node">
<title>Node3</title>
<g id="a_Node000003"><a xlink:href="namespacedetail.html#add861c358ea50b446b1a06080adb44ba" target="_top" xlink:title=" ">
<polygon fill="white" stroke="#666666" points="123.5,-137 13.5,-137 13.5,-118 123.5,-118 123.5,-137"/>
<text text-anchor="middle" x="68.5" y="-125" font-family="Helvetica,sans-Serif" font-size="10.00">detail::format_float</text>
</a>
</g>
</g>
<!-- Node1&#45;&gt;Node3 -->
<g id="edge2_Node000001_Node000003" class="edge">
<title>Node1&#45;&gt;Node3</title>
<g id="a_edge2_Node000001_Node000003"><a xlink:title=" ">
<path fill="none" stroke="#63b8ff" d="M329.83,-107.38C269.81,-112.02 180.52,-118.92 123.67,-123.31"/>
<polygon fill="#63b8ff" stroke="#63b8ff" points="330.24,-110.86 339.94,-106.6 329.7,-103.88 330.24,-110.86"/>
</a>
</g>
</g>
<!-- Node4 -->
<g id="Node000004" class="node">
<title>Node4</title>
<g id="a_Node000004"><a xlink:href="namespacedetail_1_1dragonbox.html#ab9470405474ffc0d7b8bc15071b7d515" target="_top" xlink:title=" ">
<polygon fill="white" stroke="#666666" points="293.5,-96.5 183.5,-96.5 183.5,-66.5 293.5,-66.5 293.5,-96.5"/>
<text text-anchor="start" x="191.5" y="-84.5" font-family="Helvetica,sans-Serif" font-size="10.00">detail::dragonbox::</text>
<text text-anchor="middle" x="238.5" y="-73.5" font-family="Helvetica,sans-Serif" font-size="10.00">umul192_upper128</text>
</a>
</g>
</g>
<!-- Node1&#45;&gt;Node4 -->
<g id="edge3_Node000001_Node000004" class="edge">
<title>Node1&#45;&gt;Node4</title>
<g id="a_edge3_Node000001_Node000004"><a xlink:title=" ">
<path fill="none" stroke="#63b8ff" d="M329.81,-93.86C317.82,-92.22 305.38,-90.51 293.7,-88.92"/>
<polygon fill="#63b8ff" stroke="#63b8ff" points="329.36,-97.33 339.74,-95.21 330.31,-90.39 329.36,-97.33"/>
</a>
</g>
</g>
<!-- Node6 -->
<g id="Node000006" class="node">
<title>Node6</title>
<g id="a_Node000006"><a xlink:href="namespacedetail_1_1dragonbox.html#aac8b701acbc705b1921215a4bc14f024" target="_top" xlink:title=" ">
<polygon fill="white" stroke="#666666" points="292.5,-43.5 184.5,-43.5 184.5,-13.5 292.5,-13.5 292.5,-43.5"/>
<text text-anchor="start" x="192.5" y="-31.5" font-family="Helvetica,sans-Serif" font-size="10.00">detail::dragonbox::</text>
<text text-anchor="middle" x="238.5" y="-20.5" font-family="Helvetica,sans-Serif" font-size="10.00">umul96_upper64</text>
</a>
</g>
</g>
<!-- Node1&#45;&gt;Node6 -->
<g id="edge6_Node000001_Node000006" class="edge">
<title>Node1&#45;&gt;Node6</title>
<g id="a_edge6_Node000001_Node000006"><a xlink:title=" ">
<path fill="none" stroke="#63b8ff" d="M354.56,-82.58C338.95,-74.62 320.69,-65.47 304,-57.5 294.25,-52.85 283.58,-47.96 273.78,-43.56"/>
<polygon fill="#63b8ff" stroke="#63b8ff" points="353.41,-85.92 363.9,-87.37 356.6,-79.69 353.41,-85.92"/>
</a>
</g>
</g>
<!-- Node4&#45;&gt;Node3 -->
<g id="edge5_Node000004_Node000003" class="edge">
<title>Node4&#45;&gt;Node3</title>
<g id="a_edge5_Node000004_Node000003"><a xlink:title=" ">
<path fill="none" stroke="#63b8ff" d="M174.29,-99.23C161.93,-102.66 149.07,-106.21 137,-109.5 126.82,-112.28 115.76,-115.24 105.6,-117.95"/>
<polygon fill="#63b8ff" stroke="#63b8ff" points="175.37,-102.56 184.07,-96.5 173.5,-95.81 175.37,-102.56"/>
</a>
</g>
</g>
<!-- Node5 -->
<g id="Node000005" class="node">
<title>Node5</title>
<g id="a_Node000005"><a xlink:href="structdetail_1_1dragonbox_1_1cache__accessor_3_01double_01_4.html#ae8b6d9661e9f0a2f71dc0db3c742588b" target="_top" xlink:title=" ">
<polygon fill="white" stroke="#666666" points="137,-100 0,-100 0,-59 137,-59 137,-100"/>
<text text-anchor="start" x="8" y="-88" font-family="Helvetica,sans-Serif" font-size="10.00">detail::dragonbox::</text>
<text text-anchor="start" x="8" y="-77" font-family="Helvetica,sans-Serif" font-size="10.00">cache_accessor&lt; double</text>
<text text-anchor="middle" x="68.5" y="-66" font-family="Helvetica,sans-Serif" font-size="10.00"> &gt;::compute_mul</text>
</a>
</g>
</g>
<!-- Node4&#45;&gt;Node5 -->
<g id="edge4_Node000004_Node000005" class="edge">
<title>Node4&#45;&gt;Node5</title>
<g id="a_edge4_Node000004_Node000005"><a xlink:title=" ">
<path fill="none" stroke="#63b8ff" d="M173.19,-80.73C161.35,-80.59 148.96,-80.45 137.03,-80.3"/>
<polygon fill="#63b8ff" stroke="#63b8ff" points="173.38,-84.24 183.42,-80.86 173.46,-77.24 173.38,-84.24"/>
</a>
</g>
</g>
<!-- Node7 -->
<g id="Node000007" class="node">
<title>Node7</title>
<g id="a_Node000007"><a xlink:href="structdetail_1_1dragonbox_1_1cache__accessor_3_01float_01_4.html#a8a10a5af08a2e3fe4c79137ab5fd96dc" target="_top" xlink:title=" ">
<polygon fill="white" stroke="#666666" points="131.5,-41 5.5,-41 5.5,0 131.5,0 131.5,-41"/>
<text text-anchor="start" x="13.5" y="-29" font-family="Helvetica,sans-Serif" font-size="10.00">detail::dragonbox::</text>
<text text-anchor="start" x="13.5" y="-18" font-family="Helvetica,sans-Serif" font-size="10.00">cache_accessor&lt; float</text>
<text text-anchor="middle" x="68.5" y="-7" font-family="Helvetica,sans-Serif" font-size="10.00"> &gt;::compute_mul</text>
</a>
</g>
</g>
<!-- Node6&#45;&gt;Node7 -->
<g id="edge7_Node000006_Node000007" class="edge">
<title>Node6&#45;&gt;Node7</title>
<g id="a_edge7_Node000006_Node000007"><a xlink:title=" ">
<path fill="none" stroke="#63b8ff" d="M174.35,-25.49C160.39,-24.83 145.62,-24.12 131.7,-23.46"/>
<polygon fill="#63b8ff" stroke="#63b8ff" points="174.19,-28.99 184.34,-25.97 174.52,-22 174.19,-28.99"/>
</a>
</g>
</g>
</g>
</svg>
