<?xml version="1.0" encoding="UTF-8" standalone="no"?>
<!DOCTYPE svg PUBLIC "-//W3C//DTD SVG 1.1//EN"
 "http://www.w3.org/Graphics/SVG/1.1/DTD/svg11.dtd">
<!-- Generated by graphviz version 2.43.0 (0)
 -->
<!-- Title: detail::vprintf Pages: 1 -->
<svg width="430pt" height="372pt"
 viewBox="0.00 0.00 430.00 372.00" xmlns="http://www.w3.org/2000/svg" xmlns:xlink="http://www.w3.org/1999/xlink">
<g id="graph0" class="graph" transform="scale(1 1) rotate(0) translate(4 368)">
<title>detail::vprintf</title>
<!-- Node1 -->
<g id="Node000001" class="node">
<title>Node1</title>
<g id="a_Node000001"><a xlink:title=" ">
<polygon fill="#999999" stroke="#666666" points="83,-185 0,-185 0,-166 83,-166 83,-185"/>
<text text-anchor="middle" x="41.5" y="-173" font-family="Helvetica,sans-Serif" font-size="10.00">detail::vprintf</text>
</a>
</g>
</g>
<!-- Node2 -->
<g id="Node000002" class="node">
<title>Node2</title>
<g id="a_Node000002"><a xlink:href="classbasic__specs.html#a1ac4f03f18142c3a2ae6e709833b5e47" target="_top" xlink:title=" ">
<polygon fill="white" stroke="#666666" points="236,-364 131,-364 131,-345 236,-345 236,-364"/>
<text text-anchor="middle" x="183.5" y="-352" font-family="Helvetica,sans-Serif" font-size="10.00">basic_specs::align</text>
</a>
</g>
</g>
<!-- Node1&#45;&gt;Node2 -->
<g id="edge1_Node000001_Node000002" class="edge">
<title>Node1&#45;&gt;Node2</title>
<g id="a_edge1_Node000001_Node000002"><a xlink:title=" ">
<path fill="none" stroke="#63b8ff" d="M44.21,-185.16C49.69,-213.08 69.37,-294.55 119,-336.5 120.51,-337.78 122.1,-338.96 123.77,-340.06"/>
<polygon fill="#63b8ff" stroke="#63b8ff" points="122.09,-343.14 132.54,-344.9 125.47,-337.01 122.09,-343.14"/>
</a>
</g>
</g>
<!-- Node3 -->
<g id="Node000003" class="node">
<title>Node3</title>
<g id="a_Node000003"><a xlink:href="classbasic__specs.html#aba82b10e634cd4cf7a2d107efc8269c8" target="_top" xlink:title=" ">
<polygon fill="white" stroke="#666666" points="230.5,-327 136.5,-327 136.5,-308 230.5,-308 230.5,-327"/>
<text text-anchor="middle" x="183.5" y="-315" font-family="Helvetica,sans-Serif" font-size="10.00">basic_specs::alt</text>
</a>
</g>
</g>
<!-- Node1&#45;&gt;Node3 -->
<g id="edge2_Node000001_Node000003" class="edge">
<title>Node1&#45;&gt;Node3</title>
<g id="a_edge2_Node000001_Node000003"><a xlink:title=" ">
<path fill="none" stroke="#63b8ff" d="M45.71,-185.26C53.93,-208.71 78.03,-268.54 119,-299.5 121.61,-301.47 124.42,-303.22 127.36,-304.78"/>
<polygon fill="#63b8ff" stroke="#63b8ff" points="125.94,-307.98 136.49,-308.92 128.82,-301.6 125.94,-307.98"/>
</a>
</g>
</g>
<!-- Node4 -->
<g id="Node000004" class="node">
<title>Node4</title>
<g id="a_Node000004"><a xlink:href="classbasic__specs.html#a8a65aeca9b7a627707840a2efdbf947c" target="_top" xlink:title=" ">
<polygon fill="white" stroke="#666666" points="245,-290 122,-290 122,-271 245,-271 245,-290"/>
<text text-anchor="middle" x="183.5" y="-278" font-family="Helvetica,sans-Serif" font-size="10.00">basic_specs::clear_alt</text>
</a>
</g>
</g>
<!-- Node1&#45;&gt;Node4 -->
<g id="edge3_Node000001_Node000004" class="edge">
<title>Node1&#45;&gt;Node4</title>
<g id="a_edge3_Node000001_Node000004"><a xlink:title=" ">
<path fill="none" stroke="#63b8ff" d="M48.39,-185.07C59.79,-202.82 86.64,-240.88 119,-261.5 122.2,-263.54 125.62,-265.36 129.16,-267"/>
<polygon fill="#63b8ff" stroke="#63b8ff" points="128.15,-270.37 138.74,-270.91 130.8,-263.89 128.15,-270.37"/>
</a>
</g>
</g>
<!-- Node5 -->
<g id="Node000005" class="node">
<title>Node5</title>
<g id="a_Node000005"><a xlink:href="structformat__specs.html#a5b6852380391634bfb2671210cfebc76" target="_top" xlink:title=" ">
<polygon fill="white" stroke="#666666" points="244.5,-252.5 122.5,-252.5 122.5,-222.5 244.5,-222.5 244.5,-252.5"/>
<text text-anchor="start" x="130.5" y="-240.5" font-family="Helvetica,sans-Serif" font-size="10.00">format_specs::format</text>
<text text-anchor="middle" x="183.5" y="-229.5" font-family="Helvetica,sans-Serif" font-size="10.00">_specs</text>
</a>
</g>
</g>
<!-- Node1&#45;&gt;Node5 -->
<g id="edge4_Node000001_Node000005" class="edge">
<title>Node1&#45;&gt;Node5</title>
<g id="a_edge4_Node000001_Node000005"><a xlink:title=" ">
<path fill="none" stroke="#63b8ff" d="M60.5,-185.08C75.85,-193.09 98.61,-204.61 119,-213.5 123.06,-215.27 127.3,-217.04 131.57,-218.77"/>
<polygon fill="#63b8ff" stroke="#63b8ff" points="130.34,-222.04 140.93,-222.47 132.92,-215.54 130.34,-222.04"/>
</a>
</g>
</g>
<!-- Node6 -->
<g id="Node000006" class="node">
<title>Node6</title>
<g id="a_Node000006"><a xlink:href="format-inl_8h.html#a5555893692b00b61b3886349332fd01f" target="_top" xlink:title=" ">
<polygon fill="white" stroke="#666666" points="220.5,-204 146.5,-204 146.5,-185 220.5,-185 220.5,-204"/>
<text text-anchor="middle" x="183.5" y="-192" font-family="Helvetica,sans-Serif" font-size="10.00">report_error</text>
</a>
</g>
</g>
<!-- Node1&#45;&gt;Node6 -->
<g id="edge5_Node000001_Node000006" class="edge">
<title>Node1&#45;&gt;Node6</title>
<g id="a_edge5_Node000001_Node000006"><a xlink:title=" ">
<path fill="none" stroke="#63b8ff" d="M83.37,-181.05C99.81,-183.28 118.86,-185.86 135.85,-188.17"/>
<polygon fill="#63b8ff" stroke="#63b8ff" points="135.73,-191.68 146.11,-189.56 136.67,-184.75 135.73,-191.68"/>
</a>
</g>
</g>
<!-- Node7 -->
<g id="Node000007" class="node">
<title>Node7</title>
<g id="a_Node000007"><a xlink:href="classbasic__specs.html#ad73b6f854341aaabc744bf54e6ea6af6" target="_top" xlink:title=" ">
<polygon fill="white" stroke="#666666" points="246,-167 121,-167 121,-148 246,-148 246,-167"/>
<text text-anchor="middle" x="183.5" y="-155" font-family="Helvetica,sans-Serif" font-size="10.00">basic_specs::set_align</text>
</a>
</g>
</g>
<!-- Node1&#45;&gt;Node7 -->
<g id="edge6_Node000001_Node000007" class="edge">
<title>Node1&#45;&gt;Node7</title>
<g id="a_edge6_Node000001_Node000007"><a xlink:title=" ">
<path fill="none" stroke="#63b8ff" d="M83.37,-170.25C91.96,-169.14 101.27,-167.94 110.62,-166.74"/>
<polygon fill="#63b8ff" stroke="#63b8ff" points="111.29,-170.19 120.76,-165.44 110.39,-163.24 111.29,-170.19"/>
</a>
</g>
</g>
<!-- Node8 -->
<g id="Node000008" class="node">
<title>Node8</title>
<g id="a_Node000008"><a xlink:href="classbasic__specs.html#a1600987fb39fed5dfdac21b218061a9e" target="_top" xlink:title=" ">
<polygon fill="white" stroke="#666666" points="240,-130 127,-130 127,-111 240,-111 240,-130"/>
<text text-anchor="middle" x="183.5" y="-118" font-family="Helvetica,sans-Serif" font-size="10.00">basic_specs::set_fill</text>
</a>
</g>
</g>
<!-- Node1&#45;&gt;Node8 -->
<g id="edge7_Node000001_Node000008" class="edge">
<title>Node1&#45;&gt;Node8</title>
<g id="a_edge7_Node000001_Node000008"><a xlink:title=" ">
<path fill="none" stroke="#63b8ff" d="M60.72,-165.98C76.01,-158.23 98.57,-147.31 119,-139.5 124.92,-137.23 131.24,-135.06 137.51,-133.05"/>
<polygon fill="#63b8ff" stroke="#63b8ff" points="138.74,-136.33 147.25,-130.03 136.66,-129.65 138.74,-136.33"/>
</a>
</g>
</g>
<!-- Node10 -->
<g id="Node000010" class="node">
<title>Node10</title>
<g id="a_Node000010"><a xlink:href="classbasic__specs.html#ae6d1338471c931505ddcaf600557e830" target="_top" xlink:title=" ">
<polygon fill="white" stroke="#666666" points="245,-93 122,-93 122,-74 245,-74 245,-93"/>
<text text-anchor="middle" x="183.5" y="-81" font-family="Helvetica,sans-Serif" font-size="10.00">basic_specs::set_type</text>
</a>
</g>
</g>
<!-- Node1&#45;&gt;Node10 -->
<g id="edge9_Node000001_Node000010" class="edge">
<title>Node1&#45;&gt;Node10</title>
<g id="a_edge9_Node000001_Node000010"><a xlink:title=" ">
<path fill="none" stroke="#63b8ff" d="M49.91,-165.96C62.47,-150.42 89.48,-119.65 119,-102.5 122.69,-100.35 126.65,-98.43 130.72,-96.71"/>
<polygon fill="#63b8ff" stroke="#63b8ff" points="132.23,-99.88 140.34,-93.06 129.75,-93.34 132.23,-99.88"/>
</a>
</g>
</g>
<!-- Node11 -->
<g id="Node000011" class="node">
<title>Node11</title>
<g id="a_Node000011"><a xlink:href="classbasic__specs.html#aba70d35fa5d797e5c343cd73a8f63753" target="_top" xlink:title=" ">
<polygon fill="white" stroke="#666666" points="248,-56 119,-56 119,-37 248,-37 248,-56"/>
<text text-anchor="middle" x="183.5" y="-44" font-family="Helvetica,sans-Serif" font-size="10.00">basic_specs::set_upper</text>
</a>
</g>
</g>
<!-- Node1&#45;&gt;Node11 -->
<g id="edge10_Node000001_Node000011" class="edge">
<title>Node1&#45;&gt;Node11</title>
<g id="a_edge10_Node000001_Node000011"><a xlink:title=" ">
<path fill="none" stroke="#63b8ff" d="M46.47,-165.93C55.82,-144.58 81.32,-92.79 119,-65.5 121.66,-63.58 124.51,-61.84 127.48,-60.29"/>
<polygon fill="#63b8ff" stroke="#63b8ff" points="129.01,-63.44 136.67,-56.12 126.12,-57.06 129.01,-63.44"/>
</a>
</g>
</g>
<!-- Node12 -->
<g id="Node000012" class="node">
<title>Node12</title>
<g id="a_Node000012"><a xlink:href="classbasic__specs.html#ab451ba98e651e28feab471f1871f1e5c" target="_top" xlink:title=" ">
<polygon fill="white" stroke="#666666" points="235,-19 132,-19 132,0 235,0 235,-19"/>
<text text-anchor="middle" x="183.5" y="-7" font-family="Helvetica,sans-Serif" font-size="10.00">basic_specs::type</text>
</a>
</g>
</g>
<!-- Node1&#45;&gt;Node12 -->
<g id="edge11_Node000001_Node000012" class="edge">
<title>Node1&#45;&gt;Node12</title>
<g id="a_edge11_Node000001_Node000012"><a xlink:title=" ">
<path fill="none" stroke="#63b8ff" d="M44.7,-165.96C51.2,-139.84 72.88,-66.63 119,-28.5 121.06,-26.8 123.26,-25.25 125.57,-23.84"/>
<polygon fill="#63b8ff" stroke="#63b8ff" points="127.6,-26.74 134.91,-19.06 124.41,-20.51 127.6,-26.74"/>
</a>
</g>
</g>
<!-- Node9 -->
<g id="Node000009" class="node">
<title>Node9</title>
<g id="a_Node000009"><a xlink:href="classbasic__specs.html#a4b36db5ad1e38169bd6653635d5e69cd" target="_top" xlink:title=" ">
<polygon fill="white" stroke="#666666" points="422,-130 284,-130 284,-111 422,-111 422,-130"/>
<text text-anchor="middle" x="353" y="-118" font-family="Helvetica,sans-Serif" font-size="10.00">basic_specs::set_fill_size</text>
</a>
</g>
</g>
<!-- Node8&#45;&gt;Node9 -->
<g id="edge8_Node000008_Node000009" class="edge">
<title>Node8&#45;&gt;Node9</title>
<g id="a_edge8_Node000008_Node000009"><a xlink:title=" ">
<path fill="none" stroke="#63b8ff" d="M240.28,-120.5C250.99,-120.5 262.39,-120.5 273.66,-120.5"/>
<polygon fill="#63b8ff" stroke="#63b8ff" points="273.94,-124 283.94,-120.5 273.94,-117 273.94,-124"/>
</a>
</g>
</g>
</g>
</svg>
