<?xml version="1.0" encoding="UTF-8" standalone="no"?>
<!DOCTYPE svg PUBLIC "-//W3C//DTD SVG 1.1//EN"
 "http://www.w3.org/Graphics/SVG/1.1/DTD/svg11.dtd">
<!-- Generated by graphviz version 2.43.0 (0)
 -->
<!-- Title: cxxopts::throw_or_mimic Pages: 1 -->
<svg width="1005pt" height="672pt"
 viewBox="0.00 0.00 1005.00 672.00" xmlns="http://www.w3.org/2000/svg" xmlns:xlink="http://www.w3.org/1999/xlink">
<g id="graph0" class="graph" transform="scale(1 1) rotate(0) translate(4 668)">
<title>cxxopts::throw_or_mimic</title>
<!-- Node1 -->
<g id="Node000001" class="node">
<title>Node1</title>
<g id="a_Node000001"><a xlink:title=" ">
<polygon fill="#999999" stroke="#666666" points="997,-362.5 858,-362.5 858,-343.5 997,-343.5 997,-362.5"/>
<text text-anchor="middle" x="927.5" y="-350.5" font-family="Helvetica,sans-Serif" font-size="10.00">cxxopts::throw_or_mimic</text>
</a>
</g>
</g>
<!-- Node2 -->
<g id="Node000002" class="node">
<title>Node2</title>
<g id="a_Node000002"><a xlink:href="classcxxopts_1_1Options.html#a6a7ca6845bfe17a801b0c3f229655f42" target="_top" xlink:title=" ">
<polygon fill="white" stroke="#666666" points="802.5,-664 680.5,-664 680.5,-634 802.5,-634 802.5,-664"/>
<text text-anchor="start" x="688.5" y="-652" font-family="Helvetica,sans-Serif" font-size="10.00">cxxopts::Options::add</text>
<text text-anchor="middle" x="741.5" y="-641" font-family="Helvetica,sans-Serif" font-size="10.00">_one_option</text>
</a>
</g>
</g>
<!-- Node1&#45;&gt;Node2 -->
<g id="edge1_Node000001_Node000002" class="edge">
<title>Node1&#45;&gt;Node2</title>
<g id="a_edge1_Node000001_Node000002"><a xlink:title=" ">
<path fill="none" stroke="#63b8ff" d="M924.32,-372.69C917.9,-421.45 894.68,-548.99 822,-620 816.22,-625.65 809.25,-630.21 801.88,-633.88"/>
<polygon fill="#63b8ff" stroke="#63b8ff" points="927.82,-372.9 925.56,-362.55 920.87,-372.06 927.82,-372.9"/>
</a>
</g>
</g>
<!-- Node5 -->
<g id="Node000005" class="node">
<title>Node5</title>
<g id="a_Node000005"><a xlink:href="classcxxopts_1_1OptionAdder.html#a4feb747760c5fbaa807a4c8e1c335ac5" target="_top" xlink:title=" ">
<polygon fill="white" stroke="#666666" points="442,-537 321,-537 321,-507 442,-507 442,-537"/>
<text text-anchor="start" x="329" y="-525" font-family="Helvetica,sans-Serif" font-size="10.00">cxxopts::OptionAdder</text>
<text text-anchor="middle" x="381.5" y="-514" font-family="Helvetica,sans-Serif" font-size="10.00">::operator()</text>
</a>
</g>
</g>
<!-- Node1&#45;&gt;Node5 -->
<g id="edge18_Node000001_Node000005" class="edge">
<title>Node1&#45;&gt;Node5</title>
<g id="a_edge18_Node000001_Node000005"><a xlink:title=" ">
<path fill="none" stroke="#63b8ff" d="M912.61,-370.22C894.28,-391.68 859.85,-427.75 822,-446 696.27,-506.61 529.71,-519.55 442.15,-521.9"/>
<polygon fill="#63b8ff" stroke="#63b8ff" points="915.32,-372.45 919.04,-362.52 909.94,-367.96 915.32,-372.45"/>
</a>
</g>
</g>
<!-- Node9 -->
<g id="Node000009" class="node">
<title>Node9</title>
<g id="a_Node000009"><a xlink:href="classcxxopts_1_1OptionValue.html#a6953817ba21f573f4c305bda31084d1b" target="_top" xlink:title=" ">
<polygon fill="white" stroke="#666666" points="810,-577.5 673,-577.5 673,-558.5 810,-558.5 810,-577.5"/>
<text text-anchor="middle" x="741.5" y="-565.5" font-family="Helvetica,sans-Serif" font-size="10.00">cxxopts::OptionValue::as</text>
</a>
</g>
</g>
<!-- Node1&#45;&gt;Node9 -->
<g id="edge8_Node000001_Node000009" class="edge">
<title>Node1&#45;&gt;Node9</title>
<g id="a_edge8_Node000001_Node000009"><a xlink:title=" ">
<path fill="none" stroke="#63b8ff" d="M921.91,-372.32C911.45,-411.97 881.97,-502.67 822,-549 817.06,-552.82 811.47,-555.88 805.6,-558.34"/>
<polygon fill="#63b8ff" stroke="#63b8ff" points="925.32,-373.12 924.37,-362.57 918.53,-371.41 925.32,-373.12"/>
</a>
</g>
</g>
<!-- Node10 -->
<g id="Node000010" class="node">
<title>Node10</title>
<g id="a_Node000010"><a xlink:href="namespacecxxopts_1_1values.html#ad346cd7dc5d4d470492c85de801a16b4" target="_top" xlink:title=" ">
<polygon fill="white" stroke="#666666" points="810.5,-540 672.5,-540 672.5,-510 810.5,-510 810.5,-540"/>
<text text-anchor="start" x="680.5" y="-528" font-family="Helvetica,sans-Serif" font-size="10.00">cxxopts::values::checked</text>
<text text-anchor="middle" x="741.5" y="-517" font-family="Helvetica,sans-Serif" font-size="10.00">_negate</text>
</a>
</g>
</g>
<!-- Node1&#45;&gt;Node10 -->
<g id="edge9_Node000001_Node000010" class="edge">
<title>Node1&#45;&gt;Node10</title>
<g id="a_edge9_Node000001_Node000010"><a xlink:title=" ">
<path fill="none" stroke="#63b8ff" d="M917.58,-371.53C902.15,-401.73 867.71,-461.63 822,-496 814.6,-501.56 806.03,-506.14 797.31,-509.89"/>
<polygon fill="#63b8ff" stroke="#63b8ff" points="920.75,-373.02 922.07,-362.51 914.48,-369.9 920.75,-373.02"/>
</a>
</g>
</g>
<!-- Node11 -->
<g id="Node000011" class="node">
<title>Node11</title>
<g id="a_Node000011"><a xlink:href="classcxxopts_1_1OptionParser.html#a0c093ba32746de7c3b08715eab961aff" target="_top" xlink:title=" ">
<polygon fill="white" stroke="#666666" points="802.5,-368 680.5,-368 680.5,-338 802.5,-338 802.5,-368"/>
<text text-anchor="start" x="688.5" y="-356" font-family="Helvetica,sans-Serif" font-size="10.00">cxxopts::OptionParser</text>
<text text-anchor="middle" x="741.5" y="-345" font-family="Helvetica,sans-Serif" font-size="10.00">::checked_parse_arg</text>
</a>
</g>
</g>
<!-- Node1&#45;&gt;Node11 -->
<g id="edge10_Node000001_Node000011" class="edge">
<title>Node1&#45;&gt;Node11</title>
<g id="a_edge10_Node000001_Node000011"><a xlink:title=" ">
<path fill="none" stroke="#63b8ff" d="M847.64,-353C832.55,-353 816.98,-353 802.6,-353"/>
<polygon fill="#63b8ff" stroke="#63b8ff" points="847.99,-356.5 857.99,-353 847.99,-349.5 847.99,-356.5"/>
</a>
</g>
</g>
<!-- Node12 -->
<g id="Node000012" class="node">
<title>Node12</title>
<g id="a_Node000012"><a xlink:href="classcxxopts_1_1OptionParser.html#a4218816ce33c211b54acb9e71603ea0b" target="_top" xlink:title=" ">
<polygon fill="white" stroke="#666666" points="615,-245 493,-245 493,-215 615,-215 615,-245"/>
<text text-anchor="start" x="501" y="-233" font-family="Helvetica,sans-Serif" font-size="10.00">cxxopts::OptionParser</text>
<text text-anchor="middle" x="554" y="-222" font-family="Helvetica,sans-Serif" font-size="10.00">::parse</text>
</a>
</g>
</g>
<!-- Node1&#45;&gt;Node12 -->
<g id="edge20_Node000001_Node000012" class="edge">
<title>Node1&#45;&gt;Node12</title>
<g id="a_edge20_Node000001_Node000012"><a xlink:title=" ">
<path fill="none" stroke="#63b8ff" d="M924.38,-333.11C918.27,-286.87 895.99,-172.48 822,-125 761.78,-86.36 727.17,-97.77 661,-125 616.44,-143.33 580.68,-190.45 564.45,-214.85"/>
<polygon fill="#63b8ff" stroke="#63b8ff" points="920.94,-333.81 925.61,-343.32 927.89,-332.97 920.94,-333.81"/>
</a>
</g>
</g>
<!-- Node14 -->
<g id="Node000014" class="node">
<title>Node14</title>
<g id="a_Node000014"><a xlink:href="classcxxopts_1_1OptionParser.html#a4d595d8f6f34760bc2248d1b96af53a4" target="_top" xlink:title=" ">
<polygon fill="white" stroke="#666666" points="802.5,-78 680.5,-78 680.5,-48 802.5,-48 802.5,-78"/>
<text text-anchor="start" x="688.5" y="-66" font-family="Helvetica,sans-Serif" font-size="10.00">cxxopts::OptionParser</text>
<text text-anchor="middle" x="741.5" y="-55" font-family="Helvetica,sans-Serif" font-size="10.00">::consume_positional</text>
</a>
</g>
</g>
<!-- Node1&#45;&gt;Node14 -->
<g id="edge14_Node000001_Node000014" class="edge">
<title>Node1&#45;&gt;Node14</title>
<g id="a_edge14_Node000001_Node000014"><a xlink:title=" ">
<path fill="none" stroke="#63b8ff" d="M924.13,-333.42C917.33,-285.49 893.38,-161.19 822,-92 816.2,-86.38 809.22,-81.83 801.84,-78.16"/>
<polygon fill="#63b8ff" stroke="#63b8ff" points="920.67,-333.95 925.46,-343.4 927.61,-333.03 920.67,-333.95"/>
</a>
</g>
</g>
<!-- Node15 -->
<g id="Node000015" class="node">
<title>Node15</title>
<g id="a_Node000015"><a xlink:href="namespacecxxopts_1_1values.html#a2e205dc91741b7dde43b825da60c9f4c" target="_top" xlink:title=" ">
<polygon fill="white" stroke="#666666" points="620.5,-435 487.5,-435 487.5,-405 620.5,-405 620.5,-435"/>
<text text-anchor="start" x="495.5" y="-423" font-family="Helvetica,sans-Serif" font-size="10.00">cxxopts::values::integer</text>
<text text-anchor="middle" x="554" y="-412" font-family="Helvetica,sans-Serif" font-size="10.00">_parser</text>
</a>
</g>
</g>
<!-- Node1&#45;&gt;Node15 -->
<g id="edge16_Node000001_Node000015" class="edge">
<title>Node1&#45;&gt;Node15</title>
<g id="a_edge16_Node000001_Node000015"><a xlink:title=" ">
<path fill="none" stroke="#63b8ff" d="M909.56,-369.61C890.24,-387.29 856.79,-414.18 822,-425 755.71,-445.63 675.61,-440.41 620.54,-432.53"/>
<polygon fill="#63b8ff" stroke="#63b8ff" points="912.06,-372.07 916.94,-362.67 907.26,-366.97 912.06,-372.07"/>
</a>
</g>
</g>
<!-- Node16 -->
<g id="Node000016" class="node">
<title>Node16</title>
<g id="a_Node000016"><a xlink:href="structcxxopts_1_1values_1_1detail_1_1SignedCheck_3_01T_00_01true_01_4.html#a03b02f6c1e500d96c8b8b13cbe858ce4" target="_top" xlink:title=" ">
<polygon fill="white" stroke="#666666" points="805.5,-319.5 677.5,-319.5 677.5,-278.5 805.5,-278.5 805.5,-319.5"/>
<text text-anchor="start" x="685.5" y="-307.5" font-family="Helvetica,sans-Serif" font-size="10.00">cxxopts::values::detail</text>
<text text-anchor="start" x="685.5" y="-296.5" font-family="Helvetica,sans-Serif" font-size="10.00">::SignedCheck&lt; T, true</text>
<text text-anchor="middle" x="741.5" y="-285.5" font-family="Helvetica,sans-Serif" font-size="10.00"> &gt;::operator()</text>
</a>
</g>
</g>
<!-- Node1&#45;&gt;Node16 -->
<g id="edge17_Node000001_Node000016" class="edge">
<title>Node1&#45;&gt;Node16</title>
<g id="a_edge17_Node000001_Node000016"><a xlink:title=" ">
<path fill="none" stroke="#63b8ff" d="M884.43,-340.65C861.08,-333.8 831.57,-325.14 805.52,-317.5"/>
<polygon fill="#63b8ff" stroke="#63b8ff" points="883.45,-344.01 894.03,-343.47 885.42,-337.3 883.45,-344.01"/>
</a>
</g>
</g>
<!-- Node17 -->
<g id="Node000017" class="node">
<title>Node17</title>
<g id="a_Node000017"><a xlink:href="classcxxopts_1_1ParseResult.html#a99aafd900cfe43417ca23cb4a340f8f4" target="_top" xlink:title=" ">
<polygon fill="white" stroke="#666666" points="800,-260 683,-260 683,-230 800,-230 800,-260"/>
<text text-anchor="start" x="691" y="-248" font-family="Helvetica,sans-Serif" font-size="10.00">cxxopts::ParseResult</text>
<text text-anchor="middle" x="741.5" y="-237" font-family="Helvetica,sans-Serif" font-size="10.00">::operator[]</text>
</a>
</g>
</g>
<!-- Node1&#45;&gt;Node17 -->
<g id="edge19_Node000001_Node000017" class="edge">
<title>Node1&#45;&gt;Node17</title>
<g id="a_edge19_Node000001_Node000017"><a xlink:title=" ">
<path fill="none" stroke="#63b8ff" d="M909.86,-336.17C890.38,-317.35 856.39,-287.13 822,-269 815.11,-265.37 807.59,-262.2 800.02,-259.47"/>
<polygon fill="#63b8ff" stroke="#63b8ff" points="907.46,-338.72 917.05,-343.24 912.37,-333.73 907.46,-338.72"/>
</a>
</g>
</g>
<!-- Node18 -->
<g id="Node000018" class="node">
<title>Node18</title>
<g id="a_Node000018"><a xlink:href="namespacecxxopts_1_1values.html#aaa73e425c1d63db7975dbebd86c2f947" target="_top" xlink:title=" ">
<polygon fill="white" stroke="#666666" points="804,-212 679,-212 679,-182 804,-182 804,-212"/>
<text text-anchor="start" x="687" y="-200" font-family="Helvetica,sans-Serif" font-size="10.00">cxxopts::values::parse</text>
<text text-anchor="middle" x="741.5" y="-189" font-family="Helvetica,sans-Serif" font-size="10.00">_value</text>
</a>
</g>
</g>
<!-- Node1&#45;&gt;Node18 -->
<g id="edge21_Node000001_Node000018" class="edge">
<title>Node1&#45;&gt;Node18</title>
<g id="a_edge21_Node000001_Node000018"><a xlink:title=" ">
<path fill="none" stroke="#63b8ff" d="M916.74,-334.44C900.77,-305.83 866.32,-251.14 822,-221 816.52,-217.27 810.44,-214.11 804.15,-211.43"/>
<polygon fill="#63b8ff" stroke="#63b8ff" points="913.76,-336.27 921.61,-343.38 919.91,-332.93 913.76,-336.27"/>
</a>
</g>
</g>
<!-- Node19 -->
<g id="Node000019" class="node">
<title>Node19</title>
<g id="a_Node000019"><a xlink:href="namespacecxxopts_1_1values.html#a9db2f6a97c2fbfd06a5a342917fbd21f" target="_top" xlink:title=" ">
<polygon fill="white" stroke="#666666" points="804,-164 679,-164 679,-134 804,-134 804,-164"/>
<text text-anchor="start" x="687" y="-152" font-family="Helvetica,sans-Serif" font-size="10.00">cxxopts::values::parse</text>
<text text-anchor="middle" x="741.5" y="-141" font-family="Helvetica,sans-Serif" font-size="10.00">_value</text>
</a>
</g>
</g>
<!-- Node1&#45;&gt;Node19 -->
<g id="edge22_Node000001_Node000019" class="edge">
<title>Node1&#45;&gt;Node19</title>
<g id="a_edge22_Node000001_Node000019"><a xlink:title=" ">
<path fill="none" stroke="#63b8ff" d="M920.56,-333.49C908.31,-296.56 876.69,-216.24 822,-173 816.68,-168.8 810.64,-165.33 804.32,-162.47"/>
<polygon fill="#63b8ff" stroke="#63b8ff" points="917.25,-334.63 923.63,-343.09 923.91,-332.5 917.25,-334.63"/>
</a>
</g>
</g>
<!-- Node20 -->
<g id="Node000020" class="node">
<title>Node20</title>
<g id="a_Node000020"><a xlink:href="namespacecxxopts_1_1values_1_1parser__tool.html#a3aaed7a5c0641e8eb84f2888ff499bbb" target="_top" xlink:title=" ">
<polygon fill="white" stroke="#666666" points="625,-578 483,-578 483,-548 625,-548 625,-578"/>
<text text-anchor="start" x="491" y="-566" font-family="Helvetica,sans-Serif" font-size="10.00">cxxopts::values::parser</text>
<text text-anchor="middle" x="554" y="-555" font-family="Helvetica,sans-Serif" font-size="10.00">_tool::split_option_names</text>
</a>
</g>
</g>
<!-- Node1&#45;&gt;Node20 -->
<g id="edge23_Node000001_Node000020" class="edge">
<title>Node1&#45;&gt;Node20</title>
<g id="a_edge23_Node000001_Node000020"><a xlink:title=" ">
<path fill="none" stroke="#63b8ff" d="M924.64,-372.77C919.04,-419.77 897.69,-537.9 822,-587 749.57,-633.98 641.92,-600.27 588.12,-578.15"/>
<polygon fill="#63b8ff" stroke="#63b8ff" points="928.14,-372.99 925.73,-362.67 921.18,-372.24 928.14,-372.99"/>
</a>
</g>
</g>
<!-- Node21 -->
<g id="Node000021" class="node">
<title>Node21</title>
<g id="a_Node000021"><a xlink:href="namespacecxxopts_1_1values_1_1parser__tool.html#a7912e06f8258eb2a618ba94a7ede46d4" target="_top" xlink:title=" ">
<polygon fill="white" stroke="#666666" points="806,-416 677,-416 677,-386 806,-386 806,-416"/>
<text text-anchor="start" x="685" y="-404" font-family="Helvetica,sans-Serif" font-size="10.00">cxxopts::values::parser</text>
<text text-anchor="middle" x="741.5" y="-393" font-family="Helvetica,sans-Serif" font-size="10.00">_tool::SplitInteger</text>
</a>
</g>
</g>
<!-- Node1&#45;&gt;Node21 -->
<g id="edge25_Node000001_Node000021" class="edge">
<title>Node1&#45;&gt;Node21</title>
<g id="a_edge25_Node000001_Node000021"><a xlink:title=" ">
<path fill="none" stroke="#63b8ff" d="M879.72,-365.2C855.54,-371.51 825.83,-379.26 800.24,-385.94"/>
<polygon fill="#63b8ff" stroke="#63b8ff" points="880.91,-368.51 889.71,-362.6 879.15,-361.74 880.91,-368.51"/>
</a>
</g>
</g>
<!-- Node22 -->
<g id="Node000022" class="node">
<title>Node22</title>
<g id="a_Node000022"><a xlink:href="namespacecxxopts_1_1values.html#a56fb16f3a09e011db85757491c52691e" target="_top" xlink:title=" ">
<polygon fill="white" stroke="#666666" points="822,-30 661,-30 661,0 822,0 822,-30"/>
<text text-anchor="start" x="669" y="-18" font-family="Helvetica,sans-Serif" font-size="10.00">cxxopts::values::stringstream</text>
<text text-anchor="middle" x="741.5" y="-7" font-family="Helvetica,sans-Serif" font-size="10.00">_parser</text>
</a>
</g>
</g>
<!-- Node1&#45;&gt;Node22 -->
<g id="edge27_Node000001_Node000022" class="edge">
<title>Node1&#45;&gt;Node22</title>
<g id="a_edge27_Node000001_Node000022"><a xlink:title=" ">
<path fill="none" stroke="#63b8ff" d="M925.92,-333.33C923.21,-278.51 907.95,-122.57 822,-39 818.49,-35.58 814.5,-32.65 810.24,-30.13"/>
<polygon fill="#63b8ff" stroke="#63b8ff" points="922.43,-333.58 926.33,-343.43 929.42,-333.3 922.43,-333.58"/>
</a>
</g>
</g>
<!-- Node3 -->
<g id="Node000003" class="node">
<title>Node3</title>
<g id="a_Node000003"><a xlink:href="classcxxopts_1_1Options.html#a353100b81684422664822103672a841a" target="_top" xlink:title=" ">
<polygon fill="white" stroke="#666666" points="615,-645 493,-645 493,-615 615,-615 615,-645"/>
<text text-anchor="start" x="501" y="-633" font-family="Helvetica,sans-Serif" font-size="10.00">cxxopts::Options::add</text>
<text text-anchor="middle" x="554" y="-622" font-family="Helvetica,sans-Serif" font-size="10.00">_option</text>
</a>
</g>
</g>
<!-- Node2&#45;&gt;Node3 -->
<g id="edge2_Node000002_Node000003" class="edge">
<title>Node2&#45;&gt;Node3</title>
<g id="a_edge2_Node000002_Node000003"><a xlink:title=" ">
<path fill="none" stroke="#63b8ff" d="M670.09,-641.79C652.02,-639.94 632.75,-637.96 615.24,-636.17"/>
<polygon fill="#63b8ff" stroke="#63b8ff" points="669.97,-645.29 680.27,-642.83 670.68,-638.33 669.97,-645.29"/>
</a>
</g>
</g>
<!-- Node4 -->
<g id="Node000004" class="node">
<title>Node4</title>
<g id="a_Node000004"><a xlink:href="classcxxopts_1_1Options.html#ac9aef634db43a56f369749f2710e1066" target="_top" xlink:title=" ">
<polygon fill="white" stroke="#666666" points="442.5,-645 320.5,-645 320.5,-615 442.5,-615 442.5,-645"/>
<text text-anchor="start" x="328.5" y="-633" font-family="Helvetica,sans-Serif" font-size="10.00">cxxopts::Options::add</text>
<text text-anchor="middle" x="381.5" y="-622" font-family="Helvetica,sans-Serif" font-size="10.00">_option</text>
</a>
</g>
</g>
<!-- Node3&#45;&gt;Node4 -->
<g id="edge3_Node000003_Node000004" class="edge">
<title>Node3&#45;&gt;Node4</title>
<g id="a_edge3_Node000003_Node000004"><a xlink:title=" ">
<path fill="none" stroke="#63b8ff" d="M482.81,-630C469.48,-630 455.63,-630 442.64,-630"/>
<polygon fill="#63b8ff" stroke="#63b8ff" points="482.89,-633.5 492.89,-630 482.89,-626.5 482.89,-633.5"/>
</a>
</g>
</g>
<!-- Node3&#45;&gt;Node5 -->
<g id="edge4_Node000003_Node000005" class="edge">
<title>Node3&#45;&gt;Node5</title>
<g id="a_edge4_Node000003_Node000005"><a xlink:title=" ">
<path fill="none" stroke="#63b8ff" d="M519.1,-609.39C507.6,-602.35 494.71,-594.38 483,-587 456.28,-570.16 425.86,-550.4 405.55,-537.13"/>
<polygon fill="#63b8ff" stroke="#63b8ff" points="517.61,-612.59 527.97,-614.82 521.26,-606.61 517.61,-612.59"/>
</a>
</g>
</g>
<!-- Node6 -->
<g id="Node000006" class="node">
<title>Node6</title>
<g id="a_Node000006"><a xlink:href="classcxxopts_1_1Options.html#a95878aa582f2ed8e0a2b73e735eb287d" target="_top" xlink:title=" ">
<polygon fill="white" stroke="#666666" points="280,-537 158,-537 158,-507 280,-507 280,-537"/>
<text text-anchor="start" x="166" y="-525" font-family="Helvetica,sans-Serif" font-size="10.00">cxxopts::Options::add</text>
<text text-anchor="middle" x="219" y="-514" font-family="Helvetica,sans-Serif" font-size="10.00">_options</text>
</a>
</g>
</g>
<!-- Node5&#45;&gt;Node6 -->
<g id="edge5_Node000005_Node000006" class="edge">
<title>Node5&#45;&gt;Node6</title>
<g id="a_edge5_Node000005_Node000006"><a xlink:title=" ">
<path fill="none" stroke="#63b8ff" d="M310.65,-522C300.46,-522 290.05,-522 280.08,-522"/>
<polygon fill="#63b8ff" stroke="#63b8ff" points="310.74,-525.5 320.74,-522 310.74,-518.5 310.74,-525.5"/>
</a>
</g>
</g>
<!-- Node8 -->
<g id="Node000008" class="node">
<title>Node8</title>
<g id="a_Node000008"><a xlink:href="transmitter-normal_8cpp.html#a3c04138a5bfe5d72780bb7e82a18e627" target="_top" xlink:title=" ">
<polygon fill="white" stroke="#666666" points="239.5,-467.5 198.5,-467.5 198.5,-448.5 239.5,-448.5 239.5,-467.5"/>
<text text-anchor="middle" x="219" y="-455.5" font-family="Helvetica,sans-Serif" font-size="10.00">main</text>
</a>
</g>
</g>
<!-- Node5&#45;&gt;Node8 -->
<g id="edge7_Node000005_Node000008" class="edge">
<title>Node5&#45;&gt;Node8</title>
<g id="a_edge7_Node000005_Node000008"><a xlink:title=" ">
<path fill="none" stroke="#63b8ff" d="M333.49,-503.25C302.33,-490.83 263.05,-475.17 239.82,-465.9"/>
<polygon fill="#63b8ff" stroke="#63b8ff" points="332.28,-506.54 342.87,-506.99 334.88,-500.04 332.28,-506.54"/>
</a>
</g>
</g>
<!-- Node7 -->
<g id="Node000007" class="node">
<title>Node7</title>
<g id="a_Node000007"><a xlink:href="classcxxopts_1_1Options.html#ac698adfe5b5ca50d36017a52b27fb828" target="_top" xlink:title=" ">
<polygon fill="white" stroke="#666666" points="122,-537 0,-537 0,-507 122,-507 122,-537"/>
<text text-anchor="start" x="8" y="-525" font-family="Helvetica,sans-Serif" font-size="10.00">cxxopts::Options::add</text>
<text text-anchor="middle" x="61" y="-514" font-family="Helvetica,sans-Serif" font-size="10.00">_option</text>
</a>
</g>
</g>
<!-- Node6&#45;&gt;Node7 -->
<g id="edge6_Node000006_Node000007" class="edge">
<title>Node6&#45;&gt;Node7</title>
<g id="a_edge6_Node000006_Node000007"><a xlink:title=" ">
<path fill="none" stroke="#63b8ff" d="M147.46,-522C139.01,-522 130.44,-522 122.15,-522"/>
<polygon fill="#63b8ff" stroke="#63b8ff" points="147.69,-525.5 157.69,-522 147.69,-518.5 147.69,-525.5"/>
</a>
</g>
</g>
<!-- Node11&#45;&gt;Node12 -->
<g id="edge11_Node000011_Node000012" class="edge">
<title>Node11&#45;&gt;Node12</title>
<g id="a_edge11_Node000011_Node000012"><a xlink:title=" ">
<path fill="none" stroke="#63b8ff" d="M672.49,-333.9C668.52,-332.09 664.66,-330.12 661,-328 622.19,-305.5 585.83,-266.55 567.47,-245.16"/>
<polygon fill="#63b8ff" stroke="#63b8ff" points="671.33,-337.21 681.91,-337.86 674.05,-330.76 671.33,-337.21"/>
</a>
</g>
</g>
<!-- Node13 -->
<g id="Node000013" class="node">
<title>Node13</title>
<g id="a_Node000013"><a xlink:href="classcxxopts_1_1Options.html#a3e740564cc4c991078f1451e1fcd082b" target="_top" xlink:title=" ">
<polygon fill="white" stroke="#666666" points="447,-424.5 316,-424.5 316,-405.5 447,-405.5 447,-424.5"/>
<text text-anchor="middle" x="381.5" y="-412.5" font-family="Helvetica,sans-Serif" font-size="10.00">cxxopts::Options::parse</text>
</a>
</g>
</g>
<!-- Node12&#45;&gt;Node13 -->
<g id="edge12_Node000012_Node000013" class="edge">
<title>Node12&#45;&gt;Node13</title>
<g id="a_edge12_Node000012_Node000013"><a xlink:title=" ">
<path fill="none" stroke="#63b8ff" d="M532.11,-252.66C494.66,-293.3 417.55,-376.97 391.4,-405.34"/>
<polygon fill="#63b8ff" stroke="#63b8ff" points="534.84,-254.86 539.05,-245.14 529.7,-250.12 534.84,-254.86"/>
</a>
</g>
</g>
<!-- Node13&#45;&gt;Node8 -->
<g id="edge13_Node000013_Node000008" class="edge">
<title>Node13&#45;&gt;Node8</title>
<g id="a_edge13_Node000013_Node000008"><a xlink:title=" ">
<path fill="none" stroke="#63b8ff" d="M335.04,-427.18C303.67,-435.58 263.51,-446.34 239.89,-452.67"/>
<polygon fill="#63b8ff" stroke="#63b8ff" points="336.13,-430.51 344.88,-424.54 334.31,-423.75 336.13,-430.51"/>
</a>
</g>
</g>
<!-- Node14&#45;&gt;Node12 -->
<g id="edge15_Node000014_Node000012" class="edge">
<title>Node14&#45;&gt;Node12</title>
<g id="a_edge15_Node000014_Node000012"><a xlink:title=" ">
<path fill="none" stroke="#63b8ff" d="M676.74,-82.47C671.2,-85.27 665.86,-88.44 661,-92 614.23,-126.3 577.99,-186.78 562.79,-214.87"/>
<polygon fill="#63b8ff" stroke="#63b8ff" points="678.61,-85.46 686.22,-78.09 675.67,-79.11 678.61,-85.46"/>
</a>
</g>
</g>
<!-- Node20&#45;&gt;Node5 -->
<g id="edge24_Node000020_Node000005" class="edge">
<title>Node20&#45;&gt;Node5</title>
<g id="a_edge24_Node000020_Node000005"><a xlink:title=" ">
<path fill="none" stroke="#63b8ff" d="M480.75,-545.63C467.89,-542.53 454.63,-539.35 442.17,-536.35"/>
<polygon fill="#63b8ff" stroke="#63b8ff" points="479.94,-549.03 490.48,-547.97 481.58,-542.22 479.94,-549.03"/>
</a>
</g>
</g>
<!-- Node21&#45;&gt;Node15 -->
<g id="edge26_Node000021_Node000015" class="edge">
<title>Node21&#45;&gt;Node15</title>
<g id="a_edge26_Node000021_Node000015"><a xlink:title=" ">
<path fill="none" stroke="#63b8ff" d="M666.56,-408.57C651.4,-410.13 635.55,-411.75 620.71,-413.27"/>
<polygon fill="#63b8ff" stroke="#63b8ff" points="667.33,-412.01 676.92,-407.51 666.62,-405.05 667.33,-412.01"/>
</a>
</g>
</g>
</g>
</svg>
