<?xml version="1.0" encoding="UTF-8" standalone="no"?>
<!DOCTYPE svg PUBLIC "-//W3C//DTD SVG 1.1//EN"
 "http://www.w3.org/Graphics/SVG/1.1/DTD/svg11.dtd">
<!-- Generated by graphviz version 2.43.0 (0)
 -->
<!-- Title: detail::compile_string_to_view Pages: 1 -->
<svg width="283pt" height="113pt"
 viewBox="0.00 0.00 283.00 112.50" xmlns="http://www.w3.org/2000/svg" xmlns:xlink="http://www.w3.org/1999/xlink">
<g id="graph0" class="graph" transform="scale(1 1) rotate(0) translate(4 108.5)">
<title>detail::compile_string_to_view</title>
<!-- Node1 -->
<g id="Node000001" class="node">
<title>Node1</title>
<g id="a_Node000001"><a xlink:title=" ">
<polygon fill="#999999" stroke="#666666" points="275,-73 153,-73 153,-43 275,-43 275,-73"/>
<text text-anchor="start" x="161" y="-61" font-family="Helvetica,sans-Serif" font-size="10.00">detail::compile_string</text>
<text text-anchor="middle" x="214" y="-50" font-family="Helvetica,sans-Serif" font-size="10.00">_to_view</text>
</a>
</g>
</g>
<!-- Node2 -->
<g id="Node000002" class="node">
<title>Node2</title>
<g id="a_Node000002"><a xlink:href="ostream_8h.html#a2fc7aa1f246fbc198505cfbc1567812b" target="_top" xlink:title=" ">
<polygon fill="white" stroke="#666666" points="82.5,-104.5 34.5,-104.5 34.5,-85.5 82.5,-85.5 82.5,-104.5"/>
<text text-anchor="middle" x="58.5" y="-92.5" font-family="Helvetica,sans-Serif" font-size="10.00">println</text>
</a>
</g>
</g>
<!-- Node1&#45;&gt;Node2 -->
<g id="edge1_Node000001_Node000002" class="edge">
<title>Node1&#45;&gt;Node2</title>
<g id="a_edge1_Node000001_Node000002"><a xlink:title=" ">
<path fill="none" stroke="#63b8ff" d="M142.9,-74.9C121.25,-80.12 98.89,-85.51 82.78,-89.39"/>
<polygon fill="#63b8ff" stroke="#63b8ff" points="143.87,-78.26 152.77,-72.52 142.23,-71.46 143.87,-78.26"/>
</a>
</g>
</g>
<!-- Node3 -->
<g id="Node000003" class="node">
<title>Node3</title>
<g id="a_Node000003"><a xlink:href="xchar_8h.html#ac097a9b8ef6c373be32b7ce1bf329d0b" target="_top" xlink:title="Converts value to std::wstring using the default format for type T.">
<polygon fill="white" stroke="#666666" points="92.5,-67.5 24.5,-67.5 24.5,-48.5 92.5,-48.5 92.5,-67.5"/>
<text text-anchor="middle" x="58.5" y="-55.5" font-family="Helvetica,sans-Serif" font-size="10.00">to_wstring</text>
</a>
</g>
</g>
<!-- Node1&#45;&gt;Node3 -->
<g id="edge2_Node000001_Node000003" class="edge">
<title>Node1&#45;&gt;Node3</title>
<g id="a_edge2_Node000001_Node000003"><a xlink:title=" ">
<path fill="none" stroke="#63b8ff" d="M142.58,-58C125.14,-58 107.25,-58 92.57,-58"/>
<polygon fill="#63b8ff" stroke="#63b8ff" points="142.77,-61.5 152.77,-58 142.77,-54.5 142.77,-61.5"/>
</a>
</g>
</g>
<!-- Node4 -->
<g id="Node000004" class="node">
<title>Node4</title>
<g id="a_Node000004"><a xlink:href="namespacedetail.html#a180a9b0094272337ae541364a0177336" target="_top" xlink:title=" ">
<polygon fill="white" stroke="#666666" points="117,-30 0,-30 0,0 117,0 117,-30"/>
<text text-anchor="start" x="8" y="-18" font-family="Helvetica,sans-Serif" font-size="10.00">detail::write_floating</text>
<text text-anchor="middle" x="58.5" y="-7" font-family="Helvetica,sans-Serif" font-size="10.00">_seconds</text>
</a>
</g>
</g>
<!-- Node1&#45;&gt;Node4 -->
<g id="edge3_Node000001_Node000004" class="edge">
<title>Node1&#45;&gt;Node4</title>
<g id="a_edge3_Node000001_Node000004"><a xlink:title=" ">
<path fill="none" stroke="#63b8ff" d="M149.34,-40.17C137.31,-36.8 124.84,-33.3 113.16,-30.03"/>
<polygon fill="#63b8ff" stroke="#63b8ff" points="148.74,-43.63 159.31,-42.96 150.63,-36.89 148.74,-43.63"/>
</a>
</g>
</g>
</g>
</svg>
