<?xml version="1.0" encoding="UTF-8" standalone="no"?>
<!DOCTYPE svg PUBLIC "-//W3C//DTD SVG 1.1//EN"
 "http://www.w3.org/Graphics/SVG/1.1/DTD/svg11.dtd">
<!-- Generated by graphviz version 2.43.0 (0)
 -->
<!-- Title: detail::copy_unit Pages: 1 -->
<svg width="269pt" height="76pt"
 viewBox="0.00 0.00 269.00 75.50" xmlns="http://www.w3.org/2000/svg" xmlns:xlink="http://www.w3.org/1999/xlink">
<g id="graph0" class="graph" transform="scale(1 1) rotate(0) translate(4 71.5)">
<title>detail::copy_unit</title>
<!-- Node1 -->
<g id="Node000001" class="node">
<title>Node1</title>
<g id="a_Node000001"><a xlink:title=" ">
<polygon fill="#999999" stroke="#666666" points="98,-40 0,-40 0,-21 98,-21 98,-40"/>
<text text-anchor="middle" x="49" y="-28" font-family="Helvetica,sans-Serif" font-size="10.00">detail::copy_unit</text>
</a>
</g>
</g>
<!-- Node2 -->
<g id="Node000002" class="node">
<title>Node2</title>
<g id="a_Node000002"><a xlink:href="classbasic__string__view.html#a50d08a55660173ee8f89dee436207da3" target="_top" xlink:title=" ">
<polygon fill="white" stroke="#666666" points="252,-67.5 143,-67.5 143,-37.5 252,-37.5 252,-67.5"/>
<text text-anchor="start" x="151" y="-55.5" font-family="Helvetica,sans-Serif" font-size="10.00">basic_string_view::</text>
<text text-anchor="middle" x="197.5" y="-44.5" font-family="Helvetica,sans-Serif" font-size="10.00">begin</text>
</a>
</g>
</g>
<!-- Node1&#45;&gt;Node2 -->
<g id="edge1_Node000001_Node000002" class="edge">
<title>Node1&#45;&gt;Node2</title>
<g id="a_edge1_Node000001_Node000002"><a xlink:title=" ">
<path fill="none" stroke="#63b8ff" d="M98.38,-37.76C109.4,-39.42 121.27,-41.2 132.83,-42.94"/>
<polygon fill="#63b8ff" stroke="#63b8ff" points="132.46,-46.42 142.87,-44.45 133.5,-39.5 132.46,-46.42"/>
</a>
</g>
</g>
<!-- Node3 -->
<g id="Node000003" class="node">
<title>Node3</title>
<g id="a_Node000003"><a xlink:href="classbasic__string__view.html#a12fc892d9a99adbf90ed0e9c88f87a02" target="_top" xlink:title=" ">
<polygon fill="white" stroke="#666666" points="261,-19 134,-19 134,0 261,0 261,-19"/>
<text text-anchor="middle" x="197.5" y="-7" font-family="Helvetica,sans-Serif" font-size="10.00">basic_string_view::end</text>
</a>
</g>
</g>
<!-- Node1&#45;&gt;Node3 -->
<g id="edge2_Node000001_Node000003" class="edge">
<title>Node1&#45;&gt;Node3</title>
<g id="a_edge2_Node000001_Node000003"><a xlink:title=" ">
<path fill="none" stroke="#63b8ff" d="M98.38,-23.57C106.52,-22.4 115.14,-21.16 123.74,-19.93"/>
<polygon fill="#63b8ff" stroke="#63b8ff" points="124.4,-23.37 133.81,-18.49 123.41,-16.44 124.4,-23.37"/>
</a>
</g>
</g>
</g>
</svg>
