<?xml version="1.0" encoding="UTF-8" standalone="no"?>
<!DOCTYPE svg PUBLIC "-//W3C//DTD SVG 1.1//EN"
 "http://www.w3.org/Graphics/SVG/1.1/DTD/svg11.dtd">
<!-- Generated by graphviz version 2.43.0 (0)
 -->
<!-- Title: detail::format_hexfloat Pages: 1 -->
<svg width="455pt" height="261pt"
 viewBox="0.00 0.00 455.00 261.00" xmlns="http://www.w3.org/2000/svg" xmlns:xlink="http://www.w3.org/1999/xlink">
<g id="graph0" class="graph" transform="scale(1 1) rotate(0) translate(4 257)">
<title>detail::format_hexfloat</title>
<!-- Node1 -->
<g id="Node000001" class="node">
<title>Node1</title>
<g id="a_Node000001"><a xlink:title=" ">
<polygon fill="#999999" stroke="#666666" points="128,-130 0,-130 0,-111 128,-111 128,-130"/>
<text text-anchor="middle" x="64" y="-118" font-family="Helvetica,sans-Serif" font-size="10.00">detail::format_hexfloat</text>
</a>
</g>
</g>
<!-- Node2 -->
<g id="Node000002" class="node">
<title>Node2</title>
<g id="a_Node000002"><a xlink:href="classbasic__specs.html#aba82b10e634cd4cf7a2d107efc8269c8" target="_top" xlink:title=" ">
<polygon fill="white" stroke="#666666" points="279.5,-253 185.5,-253 185.5,-234 279.5,-234 279.5,-253"/>
<text text-anchor="middle" x="232.5" y="-241" font-family="Helvetica,sans-Serif" font-size="10.00">basic_specs::alt</text>
</a>
</g>
</g>
<!-- Node1&#45;&gt;Node2 -->
<g id="edge1_Node000001_Node000002" class="edge">
<title>Node1&#45;&gt;Node2</title>
<g id="a_edge1_Node000001_Node000002"><a xlink:title=" ">
<path fill="none" stroke="#63b8ff" d="M71.43,-130.17C85.62,-150.75 121.72,-199.03 164,-224.5 167.8,-226.79 171.88,-228.81 176.09,-230.59"/>
<polygon fill="#63b8ff" stroke="#63b8ff" points="174.86,-233.87 185.45,-234.13 177.34,-227.32 174.86,-233.87"/>
</a>
</g>
</g>
<!-- Node3 -->
<g id="Node000003" class="node">
<title>Node3</title>
<g id="a_Node000003"><a xlink:href="classbasic__appender.html#a3f0cd72d9279e98079287ae5c6cc53c0" target="_top" xlink:title=" ">
<polygon fill="white" stroke="#666666" points="295,-215.5 170,-215.5 170,-185.5 295,-185.5 295,-215.5"/>
<text text-anchor="start" x="178" y="-203.5" font-family="Helvetica,sans-Serif" font-size="10.00">basic_appender::basic</text>
<text text-anchor="middle" x="232.5" y="-192.5" font-family="Helvetica,sans-Serif" font-size="10.00">_appender</text>
</a>
</g>
</g>
<!-- Node1&#45;&gt;Node3 -->
<g id="edge2_Node000001_Node000003" class="edge">
<title>Node1&#45;&gt;Node3</title>
<g id="a_edge2_Node000001_Node000003"><a xlink:title=" ">
<path fill="none" stroke="#63b8ff" d="M80,-130.08C99.03,-141.97 133.1,-162.4 164,-176.5 167.88,-178.27 171.94,-180 176.05,-181.66"/>
<polygon fill="#63b8ff" stroke="#63b8ff" points="175.1,-185.05 185.68,-185.42 177.64,-178.53 175.1,-185.05"/>
</a>
</g>
</g>
<!-- Node4 -->
<g id="Node000004" class="node">
<title>Node4</title>
<g id="a_Node000004"><a xlink:href="namespacedetail.html#ac83427f5f16569571f442ec01887e045" target="_top" xlink:title=" ">
<polygon fill="white" stroke="#666666" points="287.5,-167 177.5,-167 177.5,-148 287.5,-148 287.5,-167"/>
<text text-anchor="middle" x="232.5" y="-155" font-family="Helvetica,sans-Serif" font-size="10.00">detail::count_digits</text>
</a>
</g>
</g>
<!-- Node1&#45;&gt;Node4 -->
<g id="edge3_Node000001_Node000004" class="edge">
<title>Node1&#45;&gt;Node4</title>
<g id="a_edge3_Node000001_Node000004"><a xlink:title=" ">
<path fill="none" stroke="#63b8ff" d="M107.88,-130.03C129.45,-134.82 155.79,-140.68 178.61,-145.75"/>
<polygon fill="#63b8ff" stroke="#63b8ff" points="177.96,-149.19 188.48,-147.94 179.48,-142.35 177.96,-149.19"/>
</a>
</g>
</g>
<!-- Node7 -->
<g id="Node000007" class="node">
<title>Node7</title>
<g id="a_Node000007"><a xlink:href="namespacedetail.html#af252d1b8eaeab79d234b012c14fd58b0" target="_top" xlink:title=" ">
<polygon fill="white" stroke="#666666" points="286,-130 179,-130 179,-111 286,-111 286,-130"/>
<text text-anchor="middle" x="232.5" y="-118" font-family="Helvetica,sans-Serif" font-size="10.00">detail::countl_zero</text>
</a>
</g>
</g>
<!-- Node1&#45;&gt;Node7 -->
<g id="edge6_Node000001_Node000007" class="edge">
<title>Node1&#45;&gt;Node7</title>
<g id="a_edge6_Node000001_Node000007"><a xlink:title=" ">
<path fill="none" stroke="#63b8ff" d="M128.42,-120.5C141.55,-120.5 155.37,-120.5 168.48,-120.5"/>
<polygon fill="#63b8ff" stroke="#63b8ff" points="168.82,-124 178.82,-120.5 168.82,-117 168.82,-124"/>
</a>
</g>
</g>
<!-- Node9 -->
<g id="Node000009" class="node">
<title>Node9</title>
<g id="a_Node000009"><a xlink:href="namespacedetail.html#ab1ad401dfdecc25c3c73df137d4bee04" target="_top" xlink:title=" ">
<polygon fill="white" stroke="#666666" points="296.5,-93 168.5,-93 168.5,-74 296.5,-74 296.5,-93"/>
<text text-anchor="middle" x="232.5" y="-81" font-family="Helvetica,sans-Serif" font-size="10.00">detail::format_decimal</text>
</a>
</g>
</g>
<!-- Node1&#45;&gt;Node9 -->
<g id="edge9_Node000001_Node000009" class="edge">
<title>Node1&#45;&gt;Node9</title>
<g id="a_edge9_Node000001_Node000009"><a xlink:title=" ">
<path fill="none" stroke="#63b8ff" d="M107.88,-110.97C129.45,-106.18 155.79,-100.32 178.61,-95.25"/>
<polygon fill="#63b8ff" stroke="#63b8ff" points="179.48,-98.65 188.48,-93.06 177.96,-91.81 179.48,-98.65"/>
</a>
</g>
</g>
<!-- Node11 -->
<g id="Node000011" class="node">
<title>Node11</title>
<g id="a_Node000011"><a xlink:href="classdetail_1_1buffer.html#a49016d0c600f79917e00d9e3458c8c92" target="_top" xlink:title=" ">
<polygon fill="white" stroke="#666666" points="301,-56 164,-56 164,-37 301,-37 301,-56"/>
<text text-anchor="middle" x="232.5" y="-44" font-family="Helvetica,sans-Serif" font-size="10.00">detail::buffer::push_back</text>
</a>
</g>
</g>
<!-- Node1&#45;&gt;Node11 -->
<g id="edge12_Node000001_Node000011" class="edge">
<title>Node1&#45;&gt;Node11</title>
<g id="a_edge12_Node000001_Node000011"><a xlink:title=" ">
<path fill="none" stroke="#63b8ff" d="M79.17,-110.94C97.89,-98.69 132.19,-77.49 164,-64.5 168.98,-62.47 174.27,-60.6 179.6,-58.89"/>
<polygon fill="#63b8ff" stroke="#63b8ff" points="180.61,-62.24 189.19,-56.01 178.6,-55.54 180.61,-62.24"/>
</a>
</g>
</g>
<!-- Node13 -->
<g id="Node000013" class="node">
<title>Node13</title>
<g id="a_Node000013"><a xlink:href="classbasic__specs.html#a833c72e9e4eca49a0ed1dca7caf0ce5d" target="_top" xlink:title=" ">
<polygon fill="white" stroke="#666666" points="287,-19 178,-19 178,0 287,0 287,-19"/>
<text text-anchor="middle" x="232.5" y="-7" font-family="Helvetica,sans-Serif" font-size="10.00">basic_specs::upper</text>
</a>
</g>
</g>
<!-- Node1&#45;&gt;Node13 -->
<g id="edge14_Node000001_Node000013" class="edge">
<title>Node1&#45;&gt;Node13</title>
<g id="a_edge14_Node000001_Node000013"><a xlink:title=" ">
<path fill="none" stroke="#63b8ff" d="M72.34,-110.98C87.41,-92.11 123.81,-49.84 164,-27.5 167.27,-25.68 170.72,-24.04 174.28,-22.57"/>
<polygon fill="#63b8ff" stroke="#63b8ff" points="175.7,-25.77 183.86,-19.01 173.27,-19.21 175.7,-25.77"/>
</a>
</g>
</g>
<!-- Node5 -->
<g id="Node000005" class="node">
<title>Node5</title>
<g id="a_Node000005"><a xlink:href="namespacedetail.html#a300bc96ee936e9f6ef3565c8dff68a72" target="_top" xlink:title=" ">
<polygon fill="white" stroke="#666666" points="447,-231.5 337,-231.5 337,-201.5 447,-201.5 447,-231.5"/>
<text text-anchor="start" x="345" y="-219.5" font-family="Helvetica,sans-Serif" font-size="10.00">detail::count_digits</text>
<text text-anchor="middle" x="392" y="-208.5" font-family="Helvetica,sans-Serif" font-size="10.00">_fallback</text>
</a>
</g>
</g>
<!-- Node4&#45;&gt;Node5 -->
<g id="edge4_Node000004_Node000005" class="edge">
<title>Node4&#45;&gt;Node5</title>
<g id="a_edge4_Node000004_Node000005"><a xlink:title=" ">
<path fill="none" stroke="#63b8ff" d="M270.94,-167C280.81,-169.79 291.38,-173.03 301,-176.5 301.16,-176.56 324.71,-187.03 347.68,-197.24"/>
<polygon fill="#63b8ff" stroke="#63b8ff" points="346.51,-200.55 357.07,-201.41 349.36,-194.15 346.51,-200.55"/>
</a>
</g>
</g>
<!-- Node6 -->
<g id="Node000006" class="node">
<title>Node6</title>
<g id="a_Node000006"><a xlink:href="namespacedetail.html#a75ed2634319883d038944529dbb954e2" target="_top" xlink:title=" ">
<polygon fill="white" stroke="#666666" points="445,-135.5 339,-135.5 339,-105.5 445,-105.5 445,-135.5"/>
<text text-anchor="start" x="347" y="-123.5" font-family="Helvetica,sans-Serif" font-size="10.00">detail::is_constant</text>
<text text-anchor="middle" x="392" y="-112.5" font-family="Helvetica,sans-Serif" font-size="10.00">_evaluated</text>
</a>
</g>
</g>
<!-- Node4&#45;&gt;Node6 -->
<g id="edge5_Node000004_Node000006" class="edge">
<title>Node4&#45;&gt;Node6</title>
<g id="a_edge5_Node000004_Node000006"><a xlink:title=" ">
<path fill="none" stroke="#63b8ff" d="M274.06,-147.97C290.83,-144.03 310.64,-139.38 329.14,-135.03"/>
<polygon fill="#63b8ff" stroke="#63b8ff" points="330.04,-138.42 338.97,-132.72 328.43,-131.6 330.04,-138.42"/>
</a>
</g>
</g>
<!-- Node7&#45;&gt;Node6 -->
<g id="edge8_Node000007_Node000006" class="edge">
<title>Node7&#45;&gt;Node6</title>
<g id="a_edge8_Node000007_Node000006"><a xlink:title=" ">
<path fill="none" stroke="#63b8ff" d="M286.38,-120.5C299.97,-120.5 314.72,-120.5 328.74,-120.5"/>
<polygon fill="#63b8ff" stroke="#63b8ff" points="328.79,-124 338.79,-120.5 328.79,-117 328.79,-124"/>
</a>
</g>
</g>
<!-- Node8 -->
<g id="Node000008" class="node">
<title>Node8</title>
<g id="a_Node000008"><a xlink:href="namespacedetail.html#ad00fda1ba244e2bc2ee99476eb1d57a0" target="_top" xlink:title=" ">
<polygon fill="white" stroke="#666666" points="445.5,-183.5 338.5,-183.5 338.5,-153.5 445.5,-153.5 445.5,-183.5"/>
<text text-anchor="start" x="346.5" y="-171.5" font-family="Helvetica,sans-Serif" font-size="10.00">detail::countl_zero</text>
<text text-anchor="middle" x="392" y="-160.5" font-family="Helvetica,sans-Serif" font-size="10.00">_fallback</text>
</a>
</g>
</g>
<!-- Node7&#45;&gt;Node8 -->
<g id="edge7_Node000007_Node000008" class="edge">
<title>Node7&#45;&gt;Node8</title>
<g id="a_edge7_Node000007_Node000008"><a xlink:title=" ">
<path fill="none" stroke="#63b8ff" d="M268.26,-130.02C278.8,-132.97 290.39,-136.3 301,-139.5 312.18,-142.87 324.1,-146.61 335.49,-150.25"/>
<polygon fill="#63b8ff" stroke="#63b8ff" points="334.73,-153.69 345.32,-153.42 336.87,-147.02 334.73,-153.69"/>
</a>
</g>
</g>
<!-- Node9&#45;&gt;Node6 -->
<g id="edge10_Node000009_Node000006" class="edge">
<title>Node9&#45;&gt;Node6</title>
<g id="a_edge10_Node000009_Node000006"><a xlink:title=" ">
<path fill="none" stroke="#63b8ff" d="M274.06,-93.03C290.83,-96.97 310.64,-101.62 329.14,-105.97"/>
<polygon fill="#63b8ff" stroke="#63b8ff" points="328.43,-109.4 338.97,-108.28 330.04,-102.58 328.43,-109.4"/>
</a>
</g>
</g>
<!-- Node10 -->
<g id="Node000010" class="node">
<title>Node10</title>
<g id="a_Node000010"><a xlink:href="namespacedetail.html#a4855e668246c731a97484efc329f2aac" target="_top" xlink:title=" ">
<polygon fill="white" stroke="#666666" points="447,-87 337,-87 337,-68 447,-68 447,-87"/>
<text text-anchor="middle" x="392" y="-75" font-family="Helvetica,sans-Serif" font-size="10.00">detail::to_unsigned</text>
</a>
</g>
</g>
<!-- Node9&#45;&gt;Node10 -->
<g id="edge11_Node000009_Node000010" class="edge">
<title>Node9&#45;&gt;Node10</title>
<g id="a_edge11_Node000009_Node000010"><a xlink:title=" ">
<path fill="none" stroke="#63b8ff" d="M296.65,-81.09C306.56,-80.72 316.81,-80.33 326.75,-79.95"/>
<polygon fill="#63b8ff" stroke="#63b8ff" points="327.1,-83.44 336.96,-79.56 326.83,-76.44 327.1,-83.44"/>
</a>
</g>
</g>
<!-- Node12 -->
<g id="Node000012" class="node">
<title>Node12</title>
<g id="a_Node000012"><a xlink:href="classdetail_1_1buffer.html#a91bcecc177b01b84d693028111fbd8eb" target="_top" xlink:title=" ">
<polygon fill="white" stroke="#666666" points="441,-49.5 343,-49.5 343,-19.5 441,-19.5 441,-49.5"/>
<text text-anchor="start" x="351" y="-37.5" font-family="Helvetica,sans-Serif" font-size="10.00">detail::buffer::try</text>
<text text-anchor="middle" x="392" y="-26.5" font-family="Helvetica,sans-Serif" font-size="10.00">_reserve</text>
</a>
</g>
</g>
<!-- Node11&#45;&gt;Node12 -->
<g id="edge13_Node000011_Node000012" class="edge">
<title>Node11&#45;&gt;Node12</title>
<g id="a_edge13_Node000011_Node000012"><a xlink:title=" ">
<path fill="none" stroke="#63b8ff" d="M301.21,-41.34C311.71,-40.54 322.49,-39.72 332.76,-38.94"/>
<polygon fill="#63b8ff" stroke="#63b8ff" points="333.13,-42.42 342.84,-38.17 332.6,-35.44 333.13,-42.42"/>
</a>
</g>
</g>
</g>
</svg>
