<?xml version="1.0" encoding="UTF-8" standalone="no"?>
<!DOCTYPE svg PUBLIC "-//W3C//DTD SVG 1.1//EN"
 "http://www.w3.org/Graphics/SVG/1.1/DTD/svg11.dtd">
<!-- Generated by graphviz version 2.43.0 (0)
 -->
<!-- Title: detail::write_significand Pages: 1 -->
<svg width="785pt" height="253pt"
 viewBox="0.00 0.00 785.00 253.00" xmlns="http://www.w3.org/2000/svg" xmlns:xlink="http://www.w3.org/1999/xlink">
<g id="graph0" class="graph" transform="scale(1 1) rotate(0) translate(4 249)">
<title>detail::write_significand</title>
<!-- Node1 -->
<g id="Node000001" class="node">
<title>Node1</title>
<g id="a_Node000001"><a xlink:title=" ">
<polygon fill="#999999" stroke="#666666" points="133,-114 0,-114 0,-95 133,-95 133,-114"/>
<text text-anchor="middle" x="66.5" y="-102" font-family="Helvetica,sans-Serif" font-size="10.00">detail::write_significand</text>
</a>
</g>
</g>
<!-- Node2 -->
<g id="Node000002" class="node">
<title>Node2</title>
<g id="a_Node000002"><a xlink:href="classbasic__appender.html#a3f0cd72d9279e98079287ae5c6cc53c0" target="_top" xlink:title=" ">
<polygon fill="white" stroke="#666666" points="295.5,-237.5 170.5,-237.5 170.5,-207.5 295.5,-207.5 295.5,-237.5"/>
<text text-anchor="start" x="178.5" y="-225.5" font-family="Helvetica,sans-Serif" font-size="10.00">basic_appender::basic</text>
<text text-anchor="middle" x="233" y="-214.5" font-family="Helvetica,sans-Serif" font-size="10.00">_appender</text>
</a>
</g>
</g>
<!-- Node1&#45;&gt;Node2 -->
<g id="edge1_Node000001_Node000002" class="edge">
<title>Node1&#45;&gt;Node2</title>
<g id="a_edge1_Node000001_Node000002"><a xlink:title=" ">
<path fill="none" stroke="#63b8ff" d="M75.51,-114.05C91.54,-132.62 129.41,-173.93 169,-198.5 171.6,-200.11 174.33,-201.65 177.13,-203.1"/>
<polygon fill="#63b8ff" stroke="#63b8ff" points="175.73,-206.31 186.26,-207.48 178.75,-200 175.73,-206.31"/>
</a>
</g>
</g>
<!-- Node3 -->
<g id="Node000003" class="node">
<title>Node3</title>
<g id="a_Node000003"><a xlink:href="classbasic__memory__buffer.html#a7a9300acfadb00a835b36a86a198f433" target="_top" xlink:title=" ">
<polygon fill="white" stroke="#666666" points="297,-189.5 169,-189.5 169,-159.5 297,-159.5 297,-189.5"/>
<text text-anchor="start" x="177" y="-177.5" font-family="Helvetica,sans-Serif" font-size="10.00">basic_memory_buffer</text>
<text text-anchor="middle" x="233" y="-166.5" font-family="Helvetica,sans-Serif" font-size="10.00">::basic_memory_buffer</text>
</a>
</g>
</g>
<!-- Node1&#45;&gt;Node3 -->
<g id="edge2_Node000001_Node000003" class="edge">
<title>Node1&#45;&gt;Node3</title>
<g id="a_edge2_Node000001_Node000003"><a xlink:title=" ">
<path fill="none" stroke="#63b8ff" d="M87.56,-114.03C107.92,-123.6 140.43,-138.6 169,-150.5 173.12,-152.22 177.42,-153.96 181.74,-155.67"/>
<polygon fill="#63b8ff" stroke="#63b8ff" points="180.6,-158.98 191.19,-159.37 183.15,-152.47 180.6,-158.98"/>
</a>
</g>
</g>
<!-- Node10 -->
<g id="Node000010" class="node">
<title>Node10</title>
<g id="a_Node000010"><a xlink:href="classbasic__string__view.html#aae708273ca864680a424c10441799605" target="_top" xlink:title=" ">
<polygon fill="white" stroke="#666666" points="287.5,-141.5 178.5,-141.5 178.5,-111.5 287.5,-111.5 287.5,-141.5"/>
<text text-anchor="start" x="186.5" y="-129.5" font-family="Helvetica,sans-Serif" font-size="10.00">basic_string_view::</text>
<text text-anchor="middle" x="233" y="-118.5" font-family="Helvetica,sans-Serif" font-size="10.00">basic_string_view</text>
</a>
</g>
</g>
<!-- Node1&#45;&gt;Node10 -->
<g id="edge9_Node000001_Node000010" class="edge">
<title>Node1&#45;&gt;Node10</title>
<g id="a_edge9_Node000001_Node000010"><a xlink:title=" ">
<path fill="none" stroke="#63b8ff" d="M133.46,-113.32C145.01,-114.87 157,-116.47 168.48,-118"/>
<polygon fill="#63b8ff" stroke="#63b8ff" points="168.03,-121.48 178.41,-119.33 168.96,-114.54 168.03,-121.48"/>
</a>
</g>
</g>
<!-- Node11 -->
<g id="Node000011" class="node">
<title>Node11</title>
<g id="a_Node000011"><a xlink:href="classdetail_1_1buffer.html#aeb33e0a2d2be2bbca9e0236c148089c8" target="_top" xlink:title="Returns a pointer to the buffer data (not null&#45;terminated).">
<polygon fill="white" stroke="#666666" points="286.5,-93 179.5,-93 179.5,-74 286.5,-74 286.5,-93"/>
<text text-anchor="middle" x="233" y="-81" font-family="Helvetica,sans-Serif" font-size="10.00">detail::buffer::data</text>
</a>
</g>
</g>
<!-- Node1&#45;&gt;Node11 -->
<g id="edge10_Node000001_Node000011" class="edge">
<title>Node1&#45;&gt;Node11</title>
<g id="a_edge10_Node000001_Node000011"><a xlink:title=" ">
<path fill="none" stroke="#63b8ff" d="M133.46,-96.08C145.28,-94.57 157.57,-93 169.3,-91.5"/>
<polygon fill="#63b8ff" stroke="#63b8ff" points="169.96,-94.95 179.43,-90.21 169.07,-88.01 169.96,-94.95"/>
</a>
</g>
</g>
<!-- Node12 -->
<g id="Node000012" class="node">
<title>Node12</title>
<g id="a_Node000012"><a xlink:href="namespacedetail.html#a818b390bd30ad25b638f7b067cb50f15" target="_top" xlink:title=" ">
<polygon fill="white" stroke="#666666" points="270,-56 196,-56 196,-37 270,-37 270,-56"/>
<text text-anchor="middle" x="233" y="-44" font-family="Helvetica,sans-Serif" font-size="10.00">detail::fill_n</text>
</a>
</g>
</g>
<!-- Node1&#45;&gt;Node12 -->
<g id="edge11_Node000001_Node000012" class="edge">
<title>Node1&#45;&gt;Node12</title>
<g id="a_edge11_Node000001_Node000012"><a xlink:title=" ">
<path fill="none" stroke="#63b8ff" d="M89.84,-94.97C110.26,-86.44 141.38,-73.86 169,-64.5 174.59,-62.6 180.5,-60.74 186.38,-58.97"/>
<polygon fill="#63b8ff" stroke="#63b8ff" points="187.56,-62.27 196.16,-56.09 185.58,-55.55 187.56,-62.27"/>
</a>
</g>
</g>
<!-- Node13 -->
<g id="Node000013" class="node">
<title>Node13</title>
<g id="a_Node000013"><a xlink:href="classdetail_1_1buffer.html#a8685285932360c284d19003fc4ba3edc" target="_top" xlink:title="Returns the size of this buffer.">
<polygon fill="white" stroke="#666666" points="285,-19 181,-19 181,0 285,0 285,-19"/>
<text text-anchor="middle" x="233" y="-7" font-family="Helvetica,sans-Serif" font-size="10.00">detail::buffer::size</text>
</a>
</g>
</g>
<!-- Node1&#45;&gt;Node13 -->
<g id="edge12_Node000001_Node000013" class="edge">
<title>Node1&#45;&gt;Node13</title>
<g id="a_edge12_Node000001_Node000013"><a xlink:title=" ">
<path fill="none" stroke="#63b8ff" d="M77.58,-94.77C94.9,-78.56 132.01,-46 169,-27.5 172.72,-25.64 176.66,-23.94 180.69,-22.4"/>
<polygon fill="#63b8ff" stroke="#63b8ff" points="181.88,-25.69 190.17,-19.09 179.57,-19.09 181.88,-25.69"/>
</a>
</g>
</g>
<!-- Node4 -->
<g id="Node000004" class="node">
<title>Node4</title>
<g id="a_Node000004"><a xlink:href="classbasic__memory__buffer.html#a97d9a0a0f9827c9277e2eea97fa0309b" target="_top" xlink:title=" ">
<polygon fill="white" stroke="#666666" points="455,-213.5 333,-213.5 333,-183.5 455,-183.5 455,-213.5"/>
<text text-anchor="start" x="341" y="-201.5" font-family="Helvetica,sans-Serif" font-size="10.00">basic_memory_buffer</text>
<text text-anchor="middle" x="394" y="-190.5" font-family="Helvetica,sans-Serif" font-size="10.00">::grow</text>
</a>
</g>
</g>
<!-- Node3&#45;&gt;Node4 -->
<g id="edge3_Node000003_Node000004" class="edge">
<title>Node3&#45;&gt;Node4</title>
<g id="a_edge3_Node000003_Node000004"><a xlink:title=" ">
<path fill="none" stroke="#63b8ff" d="M297.3,-184.05C305.7,-185.32 314.36,-186.63 322.87,-187.91"/>
<polygon fill="#63b8ff" stroke="#63b8ff" points="322.36,-191.38 332.77,-189.41 323.4,-184.45 322.36,-191.38"/>
</a>
</g>
</g>
<!-- Node9 -->
<g id="Node000009" class="node">
<title>Node9</title>
<g id="a_Node000009"><a xlink:href="namespacedetail.html#a75ed2634319883d038944529dbb954e2" target="_top" xlink:title=" ">
<polygon fill="white" stroke="#666666" points="447,-165.5 341,-165.5 341,-135.5 447,-135.5 447,-165.5"/>
<text text-anchor="start" x="349" y="-153.5" font-family="Helvetica,sans-Serif" font-size="10.00">detail::is_constant</text>
<text text-anchor="middle" x="394" y="-142.5" font-family="Helvetica,sans-Serif" font-size="10.00">_evaluated</text>
</a>
</g>
</g>
<!-- Node3&#45;&gt;Node9 -->
<g id="edge8_Node000003_Node000009" class="edge">
<title>Node3&#45;&gt;Node9</title>
<g id="a_edge8_Node000003_Node000009"><a xlink:title=" ">
<path fill="none" stroke="#63b8ff" d="M297.3,-164.95C308.37,-163.27 319.88,-161.54 330.92,-159.87"/>
<polygon fill="#63b8ff" stroke="#63b8ff" points="331.53,-163.32 340.9,-158.36 330.49,-156.4 331.53,-163.32"/>
</a>
</g>
</g>
<!-- Node5 -->
<g id="Node000005" class="node">
<title>Node5</title>
<g id="a_Node000005"><a xlink:href="namespacedetail.html#a9d0b4b56d52390d7c8a4be7baa5e2382" target="_top" xlink:title=" ">
<polygon fill="white" stroke="#666666" points="619,-245 491,-245 491,-226 619,-226 619,-245"/>
<text text-anchor="middle" x="555" y="-233" font-family="Helvetica,sans-Serif" font-size="10.00">detail::abort_fuzzing_if</text>
</a>
</g>
</g>
<!-- Node4&#45;&gt;Node5 -->
<g id="edge4_Node000004_Node000005" class="edge">
<title>Node4&#45;&gt;Node5</title>
<g id="a_edge4_Node000004_Node000005"><a xlink:title=" ">
<path fill="none" stroke="#63b8ff" d="M455.11,-212.49C470.98,-216.18 487.95,-220.13 503.27,-223.7"/>
<polygon fill="#63b8ff" stroke="#63b8ff" points="502.54,-227.12 513.07,-225.98 504.13,-220.3 502.54,-227.12"/>
</a>
</g>
</g>
<!-- Node7 -->
<g id="Node000007" class="node">
<title>Node7</title>
<g id="a_Node000007"><a xlink:href="namespacedetail.html#a208b54c1c61a9bce9df4531a657a0c64" target="_top" xlink:title=" ">
<polygon fill="white" stroke="#666666" points="599.5,-208 510.5,-208 510.5,-189 599.5,-189 599.5,-208"/>
<text text-anchor="middle" x="555" y="-196" font-family="Helvetica,sans-Serif" font-size="10.00">detail::assume</text>
</a>
</g>
</g>
<!-- Node4&#45;&gt;Node7 -->
<g id="edge6_Node000004_Node000007" class="edge">
<title>Node4&#45;&gt;Node7</title>
<g id="a_edge6_Node000004_Node000007"><a xlink:title=" ">
<path fill="none" stroke="#63b8ff" d="M455.11,-198.5C469.83,-198.5 485.49,-198.5 499.91,-198.5"/>
<polygon fill="#63b8ff" stroke="#63b8ff" points="500.16,-202 510.16,-198.5 500.16,-195 500.16,-202"/>
</a>
</g>
</g>
<!-- Node8 -->
<g id="Node000008" class="node">
<title>Node8</title>
<g id="a_Node000008"><a xlink:href="base_8h.html#a67ebc2a5b1748c4692931267cd6f89bf" target="_top" xlink:title=" ">
<polygon fill="white" stroke="#666666" points="581.5,-171 528.5,-171 528.5,-152 581.5,-152 581.5,-171"/>
<text text-anchor="middle" x="555" y="-159" font-family="Helvetica,sans-Serif" font-size="10.00">max_of</text>
</a>
</g>
</g>
<!-- Node4&#45;&gt;Node8 -->
<g id="edge7_Node000004_Node000008" class="edge">
<title>Node4&#45;&gt;Node8</title>
<g id="a_edge7_Node000004_Node000008"><a xlink:title=" ">
<path fill="none" stroke="#63b8ff" d="M455.11,-184.51C476.48,-179.54 499.84,-174.1 518.49,-169.76"/>
<polygon fill="#63b8ff" stroke="#63b8ff" points="519.37,-173.15 528.32,-167.48 517.79,-166.33 519.37,-173.15"/>
</a>
</g>
</g>
<!-- Node6 -->
<g id="Node000006" class="node">
<title>Node6</title>
<g id="a_Node000006"><a xlink:href="namespacedetail.html#a1fe84ebaf96215ce0665d95b3124c2df" target="_top" xlink:title=" ">
<polygon fill="white" stroke="#666666" points="777,-245 655,-245 655,-226 777,-226 777,-245"/>
<text text-anchor="middle" x="716" y="-233" font-family="Helvetica,sans-Serif" font-size="10.00">detail::ignore_unused</text>
</a>
</g>
</g>
<!-- Node5&#45;&gt;Node6 -->
<g id="edge5_Node000005_Node000006" class="edge">
<title>Node5&#45;&gt;Node6</title>
<g id="a_edge5_Node000005_Node000006"><a xlink:title=" ">
<path fill="none" stroke="#63b8ff" d="M619.3,-235.5C627.61,-235.5 636.17,-235.5 644.59,-235.5"/>
<polygon fill="#63b8ff" stroke="#63b8ff" points="644.77,-239 654.77,-235.5 644.77,-232 644.77,-239"/>
</a>
</g>
</g>
</g>
</svg>
