<?xml version="1.0" encoding="UTF-8" standalone="no"?>
<!DOCTYPE svg PUBLIC "-//W3C//DTD SVG 1.1//EN"
 "http://www.w3.org/Graphics/SVG/1.1/DTD/svg11.dtd">
<!-- Generated by graphviz version 2.43.0 (0)
 -->
<!-- Title: detail::write Pages: 1 -->
<svg width="545pt" height="396pt"
 viewBox="0.00 0.00 545.00 395.50" xmlns="http://www.w3.org/2000/svg" xmlns:xlink="http://www.w3.org/1999/xlink">
<g id="graph0" class="graph" transform="scale(1 1) rotate(0) translate(4 391.5)">
<title>detail::write</title>
<!-- Node1 -->
<g id="Node000001" class="node">
<title>Node1</title>
<g id="a_Node000001"><a xlink:title=" ">
<polygon fill="#999999" stroke="#666666" points="75,-186 0,-186 0,-167 75,-167 75,-186"/>
<text text-anchor="middle" x="37.5" y="-174" font-family="Helvetica,sans-Serif" font-size="10.00">detail::write</text>
</a>
</g>
</g>
<!-- Node2 -->
<g id="Node000002" class="node">
<title>Node2</title>
<g id="a_Node000002"><a xlink:href="classbasic__appender.html#a3f0cd72d9279e98079287ae5c6cc53c0" target="_top" xlink:title=" ">
<polygon fill="white" stroke="#666666" points="242,-387.5 117,-387.5 117,-357.5 242,-357.5 242,-387.5"/>
<text text-anchor="start" x="125" y="-375.5" font-family="Helvetica,sans-Serif" font-size="10.00">basic_appender::basic</text>
<text text-anchor="middle" x="179.5" y="-364.5" font-family="Helvetica,sans-Serif" font-size="10.00">_appender</text>
</a>
</g>
</g>
<!-- Node1&#45;&gt;Node2 -->
<g id="edge1_Node000001_Node000002" class="edge">
<title>Node1&#45;&gt;Node2</title>
<g id="a_edge1_Node000001_Node000002"><a xlink:title=" ">
<path fill="none" stroke="#63b8ff" d="M39.82,-186.22C44.27,-215.15 61.29,-301.56 111,-348.5 112.13,-349.57 113.31,-350.59 114.54,-351.56"/>
<polygon fill="#63b8ff" stroke="#63b8ff" points="112.91,-354.69 123.15,-357.37 116.82,-348.88 112.91,-354.69"/>
</a>
</g>
</g>
<!-- Node3 -->
<g id="Node000003" class="node">
<title>Node3</title>
<g id="a_Node000003"><a xlink:href="classbasic__string__view.html#a50d08a55660173ee8f89dee436207da3" target="_top" xlink:title=" ">
<polygon fill="white" stroke="#666666" points="234,-339.5 125,-339.5 125,-309.5 234,-309.5 234,-339.5"/>
<text text-anchor="start" x="133" y="-327.5" font-family="Helvetica,sans-Serif" font-size="10.00">basic_string_view::</text>
<text text-anchor="middle" x="179.5" y="-316.5" font-family="Helvetica,sans-Serif" font-size="10.00">begin</text>
</a>
</g>
</g>
<!-- Node1&#45;&gt;Node3 -->
<g id="edge2_Node000001_Node000003" class="edge">
<title>Node1&#45;&gt;Node3</title>
<g id="a_edge2_Node000001_Node000003"><a xlink:title=" ">
<path fill="none" stroke="#63b8ff" d="M41.52,-186.09C49.27,-209.16 72.01,-268.21 111,-300.5 112.58,-301.81 114.24,-303.05 115.96,-304.22"/>
<polygon fill="#63b8ff" stroke="#63b8ff" points="114.58,-307.48 124.97,-309.56 118.15,-301.46 114.58,-307.48"/>
</a>
</g>
</g>
<!-- Node4 -->
<g id="Node000004" class="node">
<title>Node4</title>
<g id="a_Node000004"><a xlink:href="classdetail_1_1counting__buffer.html#ac5caa7bdfd7e1cb4019287c3dcb4ff5d" target="_top" xlink:title=" ">
<polygon fill="white" stroke="#666666" points="242.5,-291.5 116.5,-291.5 116.5,-261.5 242.5,-261.5 242.5,-291.5"/>
<text text-anchor="start" x="124.5" y="-279.5" font-family="Helvetica,sans-Serif" font-size="10.00">detail::counting_buffer</text>
<text text-anchor="middle" x="179.5" y="-268.5" font-family="Helvetica,sans-Serif" font-size="10.00">::count</text>
</a>
</g>
</g>
<!-- Node1&#45;&gt;Node4 -->
<g id="edge3_Node000001_Node000004" class="edge">
<title>Node1&#45;&gt;Node4</title>
<g id="a_edge3_Node000001_Node000004"><a xlink:title=" ">
<path fill="none" stroke="#63b8ff" d="M45.23,-186.04C56.89,-201.95 82.39,-233.95 111,-252.5 113.45,-254.09 116.01,-255.58 118.65,-256.99"/>
<polygon fill="#63b8ff" stroke="#63b8ff" points="117.33,-260.24 127.85,-261.46 120.39,-253.95 117.33,-260.24"/>
</a>
</g>
</g>
<!-- Node5 -->
<g id="Node000005" class="node">
<title>Node5</title>
<g id="a_Node000005"><a xlink:href="namespacedetail.html#a03adc1f60e0fe0f691c87d7fbd79b773" target="_top" xlink:title=" ">
<polygon fill="white" stroke="#666666" points="246,-243 113,-243 113,-224 246,-224 246,-243"/>
<text text-anchor="middle" x="179.5" y="-231" font-family="Helvetica,sans-Serif" font-size="10.00">detail::display_width_of</text>
</a>
</g>
</g>
<!-- Node1&#45;&gt;Node5 -->
<g id="edge4_Node000001_Node000005" class="edge">
<title>Node1&#45;&gt;Node5</title>
<g id="a_edge4_Node000001_Node000005"><a xlink:title=" ">
<path fill="none" stroke="#63b8ff" d="M58.3,-186.07C72.77,-192.92 92.92,-202.19 111,-209.5 120.51,-213.35 130.9,-217.21 140.62,-220.67"/>
<polygon fill="#63b8ff" stroke="#63b8ff" points="139.46,-223.97 150.05,-223.99 141.78,-217.37 139.46,-223.97"/>
</a>
</g>
</g>
<!-- Node6 -->
<g id="Node000006" class="node">
<title>Node6</title>
<g id="a_Node000006"><a xlink:href="namespacedetail.html#a4855e668246c731a97484efc329f2aac" target="_top" xlink:title=" ">
<polygon fill="white" stroke="#666666" points="394,-224 284,-224 284,-205 394,-205 394,-224"/>
<text text-anchor="middle" x="339" y="-212" font-family="Helvetica,sans-Serif" font-size="10.00">detail::to_unsigned</text>
</a>
</g>
</g>
<!-- Node1&#45;&gt;Node6 -->
<g id="edge11_Node000001_Node000006" class="edge">
<title>Node1&#45;&gt;Node6</title>
<g id="a_edge11_Node000001_Node000006"><a xlink:title=" ">
<path fill="none" stroke="#63b8ff" d="M75.22,-181.16C124.62,-187.43 213.23,-198.67 273.78,-206.35"/>
<polygon fill="#63b8ff" stroke="#63b8ff" points="273.63,-209.86 283.99,-207.65 274.51,-202.92 273.63,-209.86"/>
</a>
</g>
</g>
<!-- Node7 -->
<g id="Node000007" class="node">
<title>Node7</title>
<g id="a_Node000007"><a xlink:href="classbasic__string__view.html#a12fc892d9a99adbf90ed0e9c88f87a02" target="_top" xlink:title=" ">
<polygon fill="white" stroke="#666666" points="243,-167 116,-167 116,-148 243,-148 243,-167"/>
<text text-anchor="middle" x="179.5" y="-155" font-family="Helvetica,sans-Serif" font-size="10.00">basic_string_view::end</text>
</a>
</g>
</g>
<!-- Node1&#45;&gt;Node7 -->
<g id="edge6_Node000001_Node000007" class="edge">
<title>Node1&#45;&gt;Node7</title>
<g id="a_edge6_Node000001_Node000007"><a xlink:title=" ">
<path fill="none" stroke="#63b8ff" d="M75.28,-171.51C84.74,-170.22 95.25,-168.8 105.83,-167.36"/>
<polygon fill="#63b8ff" stroke="#63b8ff" points="106.54,-170.8 115.98,-165.98 105.6,-163.86 106.54,-170.8"/>
</a>
</g>
</g>
<!-- Node8 -->
<g id="Node000008" class="node">
<title>Node8</title>
<g id="a_Node000008"><a xlink:href="namespacedetail.html#ab31cdd3925ccf6312ab598b0a05e9438" target="_top" xlink:title=" ">
<polygon fill="white" stroke="#666666" points="239,-130 120,-130 120,-111 239,-111 239,-130"/>
<text text-anchor="middle" x="179.5" y="-118" font-family="Helvetica,sans-Serif" font-size="10.00">detail::needs_escape</text>
</a>
</g>
</g>
<!-- Node1&#45;&gt;Node8 -->
<g id="edge7_Node000001_Node000008" class="edge">
<title>Node1&#45;&gt;Node8</title>
<g id="a_edge7_Node000001_Node000008"><a xlink:title=" ">
<path fill="none" stroke="#63b8ff" d="M54.15,-166.99C68.52,-158.59 90.61,-146.45 111,-138.5 116.16,-136.49 121.62,-134.63 127.11,-132.92"/>
<polygon fill="#63b8ff" stroke="#63b8ff" points="128.38,-136.19 136.98,-130.01 126.4,-129.48 128.38,-136.19"/>
</a>
</g>
</g>
<!-- Node11 -->
<g id="Node000011" class="node">
<title>Node11</title>
<g id="a_Node000011"><a xlink:href="classbasic__string__view.html#a216bbe1b012b590698d7bb4e96d1af3f" target="_top" xlink:title=" ">
<polygon fill="white" stroke="#666666" points="243.5,-93 115.5,-93 115.5,-74 243.5,-74 243.5,-93"/>
<text text-anchor="middle" x="179.5" y="-81" font-family="Helvetica,sans-Serif" font-size="10.00">basic_string_view::size</text>
</a>
</g>
</g>
<!-- Node1&#45;&gt;Node11 -->
<g id="edge10_Node000001_Node000011" class="edge">
<title>Node1&#45;&gt;Node11</title>
<g id="a_edge10_Node000001_Node000011"><a xlink:title=" ">
<path fill="none" stroke="#63b8ff" d="M45.1,-166.83C56.58,-150.77 81.81,-118.66 111,-101.5 113.88,-99.81 116.91,-98.27 120.04,-96.88"/>
<polygon fill="#63b8ff" stroke="#63b8ff" points="121.61,-100.02 129.64,-93.11 119.06,-93.51 121.61,-100.02"/>
</a>
</g>
</g>
<!-- Node12 -->
<g id="Node000012" class="node">
<title>Node12</title>
<g id="a_Node000012"><a xlink:href="classbasic__specs.html#ab451ba98e651e28feab471f1871f1e5c" target="_top" xlink:title=" ">
<polygon fill="white" stroke="#666666" points="231,-56 128,-56 128,-37 231,-37 231,-56"/>
<text text-anchor="middle" x="179.5" y="-44" font-family="Helvetica,sans-Serif" font-size="10.00">basic_specs::type</text>
</a>
</g>
</g>
<!-- Node1&#45;&gt;Node12 -->
<g id="edge12_Node000001_Node000012" class="edge">
<title>Node1&#45;&gt;Node12</title>
<g id="a_edge12_Node000001_Node000012"><a xlink:title=" ">
<path fill="none" stroke="#63b8ff" d="M42.01,-166.68C50.35,-144.77 73.53,-91.73 111,-64.5 113.39,-62.76 115.94,-61.19 118.59,-59.77"/>
<polygon fill="#63b8ff" stroke="#63b8ff" points="120.3,-62.84 127.94,-55.51 117.39,-56.47 120.3,-62.84"/>
</a>
</g>
</g>
<!-- Node13 -->
<g id="Node000013" class="node">
<title>Node13</title>
<g id="a_Node000013"><a xlink:href="namespacedetail.html#aa81687180342a81e3aba60a89114c326" target="_top" xlink:title=" ">
<polygon fill="white" stroke="#666666" points="248,-19 111,-19 111,0 248,0 248,-19"/>
<text text-anchor="middle" x="179.5" y="-7" font-family="Helvetica,sans-Serif" font-size="10.00">detail::write_escaped_cp</text>
</a>
</g>
</g>
<!-- Node1&#45;&gt;Node13 -->
<g id="edge13_Node000001_Node000013" class="edge">
<title>Node1&#45;&gt;Node13</title>
<g id="a_edge13_Node000001_Node000013"><a xlink:title=" ">
<path fill="none" stroke="#63b8ff" d="M40.32,-166.76C45.82,-140.13 64.82,-65.55 111,-27.5 112.54,-26.23 114.17,-25.04 115.86,-23.94"/>
<polygon fill="#63b8ff" stroke="#63b8ff" points="117.65,-26.95 124.77,-19.11 114.31,-20.8 117.65,-26.95"/>
</a>
</g>
</g>
<!-- Node5&#45;&gt;Node6 -->
<g id="edge5_Node000005_Node000006" class="edge">
<title>Node5&#45;&gt;Node6</title>
<g id="a_edge5_Node000005_Node000006"><a xlink:title=" ">
<path fill="none" stroke="#63b8ff" d="M246.38,-225.55C255.45,-224.46 264.74,-223.34 273.78,-222.25"/>
<polygon fill="#63b8ff" stroke="#63b8ff" points="274.33,-225.71 283.84,-221.03 273.49,-218.76 274.33,-225.71"/>
</a>
</g>
</g>
<!-- Node9 -->
<g id="Node000009" class="node">
<title>Node9</title>
<g id="a_Node000009"><a xlink:href="namespacedetail.html#a478924085570f58ed43e324860374a6c" target="_top" xlink:title=" ">
<polygon fill="white" stroke="#666666" points="392.5,-130 285.5,-130 285.5,-111 392.5,-111 392.5,-130"/>
<text text-anchor="middle" x="339" y="-118" font-family="Helvetica,sans-Serif" font-size="10.00">detail::is_printable</text>
</a>
</g>
</g>
<!-- Node8&#45;&gt;Node9 -->
<g id="edge8_Node000008_Node000009" class="edge">
<title>Node8&#45;&gt;Node9</title>
<g id="a_edge8_Node000008_Node000009"><a xlink:title=" ">
<path fill="none" stroke="#63b8ff" d="M239.15,-120.5C250.85,-120.5 263.19,-120.5 275.03,-120.5"/>
<polygon fill="#63b8ff" stroke="#63b8ff" points="275.28,-124 285.28,-120.5 275.28,-117 275.28,-124"/>
</a>
</g>
</g>
<!-- Node10 -->
<g id="Node000010" class="node">
<title>Node10</title>
<g id="a_Node000010"><a xlink:href="namespacedetail.html#ac3df1e29ebde78440f3595e480065a59" target="_top" xlink:title=" ">
<polygon fill="white" stroke="#666666" points="537,-130 430,-130 430,-111 537,-111 537,-130"/>
<text text-anchor="middle" x="483.5" y="-118" font-family="Helvetica,sans-Serif" font-size="10.00">detail::is_printable</text>
</a>
</g>
</g>
<!-- Node9&#45;&gt;Node10 -->
<g id="edge9_Node000009_Node000010" class="edge">
<title>Node9&#45;&gt;Node10</title>
<g id="a_edge9_Node000009_Node000010"><a xlink:title=" ">
<path fill="none" stroke="#63b8ff" d="M392.66,-120.5C401.41,-120.5 410.57,-120.5 419.55,-120.5"/>
<polygon fill="#63b8ff" stroke="#63b8ff" points="419.58,-124 429.58,-120.5 419.58,-117 419.58,-124"/>
</a>
</g>
</g>
</g>
</svg>
