<?xml version="1.0" encoding="UTF-8" standalone="no"?>
<!DOCTYPE svg PUBLIC "-//W3C//DTD SVG 1.1//EN"
 "http://www.w3.org/Graphics/SVG/1.1/DTD/svg11.dtd">
<!-- Generated by graphviz version 2.43.0 (0)
 -->
<!-- Title: detail::write_buffer Pages: 1 -->
<svg width="198pt" height="101pt"
 viewBox="0.00 0.00 198.00 101.00" xmlns="http://www.w3.org/2000/svg" xmlns:xlink="http://www.w3.org/1999/xlink">
<g id="graph0" class="graph" transform="scale(1 1) rotate(0) translate(4 97)">
<title>detail::write_buffer</title>
<!-- Node1 -->
<g id="Node000001" class="node">
<title>Node1</title>
<g id="a_Node000001"><a xlink:title=" ">
<polygon fill="#999999" stroke="#666666" points="190,-56 81,-56 81,-37 190,-37 190,-56"/>
<text text-anchor="middle" x="135.5" y="-44" font-family="Helvetica,sans-Serif" font-size="10.00">detail::write_buffer</text>
</a>
</g>
</g>
<!-- Node2 -->
<g id="Node000002" class="node">
<title>Node2</title>
<g id="a_Node000002"><a xlink:href="ostream_8h.html#a3883cc4dedb6840173d3ca9699e7693c" target="_top" xlink:title=" ">
<polygon fill="white" stroke="#666666" points="42,-93 3,-93 3,-74 42,-74 42,-93"/>
<text text-anchor="middle" x="22.5" y="-81" font-family="Helvetica,sans-Serif" font-size="10.00">print</text>
</a>
</g>
</g>
<!-- Node1&#45;&gt;Node2 -->
<g id="edge1_Node000001_Node000002" class="edge">
<title>Node1&#45;&gt;Node2</title>
<g id="a_edge1_Node000001_Node000002"><a xlink:title=" ">
<path fill="none" stroke="#63b8ff" d="M96.38,-59.21C78.09,-65.3 57,-72.33 42.23,-77.26"/>
<polygon fill="#63b8ff" stroke="#63b8ff" points="97.53,-62.51 105.91,-56.03 95.32,-55.87 97.53,-62.51"/>
</a>
</g>
</g>
<!-- Node3 -->
<g id="Node000003" class="node">
<title>Node3</title>
<g id="a_Node000003"><a xlink:href="ostream_8h.html#a5a12ace2368ad2613bac4c16637a97ec" target="_top" xlink:title=" ">
<polygon fill="white" stroke="#666666" points="45,-56 0,-56 0,-37 45,-37 45,-56"/>
<text text-anchor="middle" x="22.5" y="-44" font-family="Helvetica,sans-Serif" font-size="10.00">vprint</text>
</a>
</g>
</g>
<!-- Node1&#45;&gt;Node3 -->
<g id="edge2_Node000001_Node000003" class="edge">
<title>Node1&#45;&gt;Node3</title>
<g id="a_edge2_Node000001_Node000003"><a xlink:title=" ">
<path fill="none" stroke="#63b8ff" d="M70.9,-46.5C61.7,-46.5 52.8,-46.5 45.25,-46.5"/>
<polygon fill="#63b8ff" stroke="#63b8ff" points="70.95,-50 80.95,-46.5 70.95,-43 70.95,-50"/>
</a>
</g>
</g>
<!-- Node4 -->
<g id="Node000004" class="node">
<title>Node4</title>
<g id="a_Node000004"><a xlink:href="xchar_8h.html#aae096773ff6c45b6cc1555e3bb92c3d3" target="_top" xlink:title=" ">
<polygon fill="white" stroke="#666666" points="45,-19 0,-19 0,0 45,0 45,-19"/>
<text text-anchor="middle" x="22.5" y="-7" font-family="Helvetica,sans-Serif" font-size="10.00">vprint</text>
</a>
</g>
</g>
<!-- Node1&#45;&gt;Node4 -->
<g id="edge3_Node000001_Node000004" class="edge">
<title>Node1&#45;&gt;Node4</title>
<g id="a_edge3_Node000001_Node000004"><a xlink:title=" ">
<path fill="none" stroke="#63b8ff" d="M96.23,-33.74C79.22,-28.07 59.82,-21.61 45.33,-16.78"/>
<polygon fill="#63b8ff" stroke="#63b8ff" points="95.32,-37.13 105.91,-36.97 97.53,-30.49 95.32,-37.13"/>
</a>
</g>
</g>
</g>
</svg>
