<?xml version="1.0" encoding="UTF-8" standalone="no"?>
<!DOCTYPE svg PUBLIC "-//W3C//DTD SVG 1.1//EN"
 "http://www.w3.org/Graphics/SVG/1.1/DTD/svg11.dtd">
<!-- Generated by graphviz version 2.43.0 (0)
 -->
<!-- Title: detail::umul128 Pages: 1 -->
<svg width="420pt" height="145pt"
 viewBox="0.00 0.00 420.00 145.00" xmlns="http://www.w3.org/2000/svg" xmlns:xlink="http://www.w3.org/1999/xlink">
<g id="graph0" class="graph" transform="scale(1 1) rotate(0) translate(4 141)">
<title>detail::umul128</title>
<!-- Node1 -->
<g id="Node000001" class="node">
<title>Node1</title>
<g id="a_Node000001"><a xlink:title=" ">
<polygon fill="#999999" stroke="#666666" points="412,-91 319,-91 319,-72 412,-72 412,-91"/>
<text text-anchor="middle" x="365.5" y="-79" font-family="Helvetica,sans-Serif" font-size="10.00">detail::umul128</text>
</a>
</g>
</g>
<!-- Node2 -->
<g id="Node000002" class="node">
<title>Node2</title>
<g id="a_Node000002"><a xlink:href="namespacedetail_1_1dragonbox.html#ac836659b351ddf33f74fee7f87cbeefc" target="_top" xlink:title=" ">
<polygon fill="white" stroke="#666666" points="283,-125.5 173,-125.5 173,-95.5 283,-95.5 283,-125.5"/>
<text text-anchor="start" x="181" y="-113.5" font-family="Helvetica,sans-Serif" font-size="10.00">detail::dragonbox::</text>
<text text-anchor="middle" x="228" y="-102.5" font-family="Helvetica,sans-Serif" font-size="10.00">umul192_lower128</text>
</a>
</g>
</g>
<!-- Node1&#45;&gt;Node2 -->
<g id="edge1_Node000001_Node000002" class="edge">
<title>Node1&#45;&gt;Node2</title>
<g id="a_edge1_Node000001_Node000002"><a xlink:title=" ">
<path fill="none" stroke="#63b8ff" d="M309.95,-93.18C301.11,-95.07 291.96,-97.03 283.13,-98.91"/>
<polygon fill="#63b8ff" stroke="#63b8ff" points="310.71,-96.59 319.76,-91.08 309.25,-89.75 310.71,-96.59"/>
</a>
</g>
</g>
<!-- Node4 -->
<g id="Node000004" class="node">
<title>Node4</title>
<g id="a_Node000004"><a xlink:href="namespacedetail_1_1dragonbox.html#ab9470405474ffc0d7b8bc15071b7d515" target="_top" xlink:title=" ">
<polygon fill="white" stroke="#666666" points="283,-72.5 173,-72.5 173,-42.5 283,-42.5 283,-72.5"/>
<text text-anchor="start" x="181" y="-60.5" font-family="Helvetica,sans-Serif" font-size="10.00">detail::dragonbox::</text>
<text text-anchor="middle" x="228" y="-49.5" font-family="Helvetica,sans-Serif" font-size="10.00">umul192_upper128</text>
</a>
</g>
</g>
<!-- Node1&#45;&gt;Node4 -->
<g id="edge3_Node000001_Node000004" class="edge">
<title>Node1&#45;&gt;Node4</title>
<g id="a_edge3_Node000001_Node000004"><a xlink:title=" ">
<path fill="none" stroke="#63b8ff" d="M308.58,-71.59C300.21,-70.11 291.59,-68.59 283.26,-67.11"/>
<polygon fill="#63b8ff" stroke="#63b8ff" points="308.17,-75.08 318.63,-73.37 309.39,-68.18 308.17,-75.08"/>
</a>
</g>
</g>
<!-- Node3 -->
<g id="Node000003" class="node">
<title>Node3</title>
<g id="a_Node000003"><a xlink:href="structdetail_1_1dragonbox_1_1cache__accessor_3_01double_01_4.html#a08dcaeba4527995a6cec582f36782687" target="_top" xlink:title=" ">
<polygon fill="white" stroke="#666666" points="137,-137 0,-137 0,-96 137,-96 137,-137"/>
<text text-anchor="start" x="8" y="-125" font-family="Helvetica,sans-Serif" font-size="10.00">detail::dragonbox::</text>
<text text-anchor="start" x="8" y="-114" font-family="Helvetica,sans-Serif" font-size="10.00">cache_accessor&lt; double</text>
<text text-anchor="middle" x="68.5" y="-103" font-family="Helvetica,sans-Serif" font-size="10.00"> &gt;::compute_mul_parity</text>
</a>
</g>
</g>
<!-- Node2&#45;&gt;Node3 -->
<g id="edge2_Node000002_Node000003" class="edge">
<title>Node2&#45;&gt;Node3</title>
<g id="a_edge2_Node000002_Node000003"><a xlink:title=" ">
<path fill="none" stroke="#63b8ff" d="M162.68,-112.95C154.26,-113.27 145.62,-113.6 137.16,-113.92"/>
<polygon fill="#63b8ff" stroke="#63b8ff" points="162.94,-116.44 172.8,-112.56 162.67,-109.45 162.94,-116.44"/>
</a>
</g>
</g>
<!-- Node5 -->
<g id="Node000005" class="node">
<title>Node5</title>
<g id="a_Node000005"><a xlink:href="structdetail_1_1dragonbox_1_1cache__accessor_3_01double_01_4.html#ae8b6d9661e9f0a2f71dc0db3c742588b" target="_top" xlink:title=" ">
<polygon fill="white" stroke="#666666" points="137,-78 0,-78 0,-37 137,-37 137,-78"/>
<text text-anchor="start" x="8" y="-66" font-family="Helvetica,sans-Serif" font-size="10.00">detail::dragonbox::</text>
<text text-anchor="start" x="8" y="-55" font-family="Helvetica,sans-Serif" font-size="10.00">cache_accessor&lt; double</text>
<text text-anchor="middle" x="68.5" y="-44" font-family="Helvetica,sans-Serif" font-size="10.00"> &gt;::compute_mul</text>
</a>
</g>
</g>
<!-- Node4&#45;&gt;Node5 -->
<g id="edge4_Node000004_Node000005" class="edge">
<title>Node4&#45;&gt;Node5</title>
<g id="a_edge4_Node000004_Node000005"><a xlink:title=" ">
<path fill="none" stroke="#63b8ff" d="M162.68,-57.5C154.26,-57.5 145.62,-57.5 137.16,-57.5"/>
<polygon fill="#63b8ff" stroke="#63b8ff" points="162.8,-61 172.8,-57.5 162.8,-54 162.8,-61"/>
</a>
</g>
</g>
<!-- Node6 -->
<g id="Node000006" class="node">
<title>Node6</title>
<g id="a_Node000006"><a xlink:href="namespacedetail.html#add861c358ea50b446b1a06080adb44ba" target="_top" xlink:title=" ">
<polygon fill="white" stroke="#666666" points="123.5,-19 13.5,-19 13.5,0 123.5,0 123.5,-19"/>
<text text-anchor="middle" x="68.5" y="-7" font-family="Helvetica,sans-Serif" font-size="10.00">detail::format_float</text>
</a>
</g>
</g>
<!-- Node4&#45;&gt;Node6 -->
<g id="edge5_Node000004_Node000006" class="edge">
<title>Node4&#45;&gt;Node6</title>
<g id="a_edge5_Node000004_Node000006"><a xlink:title=" ">
<path fill="none" stroke="#63b8ff" d="M171.49,-39.25C160.1,-35.61 148.18,-31.87 137,-28.5 126.39,-25.3 114.8,-21.97 104.26,-19.02"/>
<polygon fill="#63b8ff" stroke="#63b8ff" points="170.73,-42.69 181.32,-42.42 172.87,-36.02 170.73,-42.69"/>
</a>
</g>
</g>
</g>
</svg>
