<?xml version="1.0" encoding="UTF-8" standalone="no"?>
<!DOCTYPE svg PUBLIC "-//W3C//DTD SVG 1.1//EN"
 "http://www.w3.org/Graphics/SVG/1.1/DTD/svg11.dtd">
<!-- Generated by graphviz version 2.43.0 (0)
 -->
<!-- Title: detail::find_escape Pages: 1 -->
<svg width="751pt" height="288pt"
 viewBox="0.00 0.00 751.00 287.96" xmlns="http://www.w3.org/2000/svg" xmlns:xlink="http://www.w3.org/1999/xlink">
<g id="graph0" class="graph" transform="scale(1 1) rotate(0) translate(4 283.96)">
<title>detail::find_escape</title>
<!-- Node1 -->
<g id="Node000001" class="node">
<title>Node1</title>
<g id="a_Node000001"><a xlink:title=" ">
<polygon fill="#999999" stroke="#666666" points="108,-169 0,-169 0,-150 108,-150 108,-169"/>
<text text-anchor="middle" x="54" y="-157" font-family="Helvetica,sans-Serif" font-size="10.00">detail::find_escape</text>
</a>
</g>
</g>
<!-- Node2 -->
<g id="Node000002" class="node">
<title>Node2</title>
<g id="a_Node000002"><a xlink:href="classbasic__string__view.html#aae708273ca864680a424c10441799605" target="_top" xlink:title=" ">
<polygon fill="white" stroke="#666666" points="446,-178.5 337,-178.5 337,-148.5 446,-148.5 446,-178.5"/>
<text text-anchor="start" x="345" y="-166.5" font-family="Helvetica,sans-Serif" font-size="10.00">basic_string_view::</text>
<text text-anchor="middle" x="391.5" y="-155.5" font-family="Helvetica,sans-Serif" font-size="10.00">basic_string_view</text>
</a>
</g>
</g>
<!-- Node1&#45;&gt;Node2 -->
<g id="edge1_Node000001_Node000002" class="edge">
<title>Node1&#45;&gt;Node2</title>
<g id="a_edge1_Node000001_Node000002"><a xlink:title=" ">
<path fill="none" stroke="#63b8ff" d="M93.73,-149.92C109.26,-146.54 127.37,-143.16 144,-141.5 208.57,-135.04 225.49,-134.52 290,-141.5 302,-142.8 314.67,-144.94 326.81,-147.4"/>
<polygon fill="#63b8ff" stroke="#63b8ff" points="326.36,-150.88 336.87,-149.52 327.81,-144.03 326.36,-150.88"/>
</a>
</g>
</g>
<!-- Node3 -->
<g id="Node000003" class="node">
<title>Node3</title>
<g id="a_Node000003"><a xlink:href="classbasic__string__view.html#a50d08a55660173ee8f89dee436207da3" target="_top" xlink:title=" ">
<polygon fill="white" stroke="#666666" points="271.5,-254.5 162.5,-254.5 162.5,-224.5 271.5,-224.5 271.5,-254.5"/>
<text text-anchor="start" x="170.5" y="-242.5" font-family="Helvetica,sans-Serif" font-size="10.00">basic_string_view::</text>
<text text-anchor="middle" x="217" y="-231.5" font-family="Helvetica,sans-Serif" font-size="10.00">begin</text>
</a>
</g>
</g>
<!-- Node1&#45;&gt;Node3 -->
<g id="edge2_Node000001_Node000003" class="edge">
<title>Node1&#45;&gt;Node3</title>
<g id="a_edge2_Node000001_Node000003"><a xlink:title=" ">
<path fill="none" stroke="#63b8ff" d="M68,-169.09C84.84,-181.17 115.45,-202 144,-215.5 147.82,-217.31 151.81,-219.04 155.87,-220.68"/>
<polygon fill="#63b8ff" stroke="#63b8ff" points="154.84,-224.03 165.43,-224.36 157.35,-217.5 154.84,-224.03"/>
</a>
</g>
</g>
<!-- Node4 -->
<g id="Node000004" class="node">
<title>Node4</title>
<g id="a_Node000004"><a xlink:href="classbasic__string__view.html#a12fc892d9a99adbf90ed0e9c88f87a02" target="_top" xlink:title=" ">
<polygon fill="white" stroke="#666666" points="280.5,-206 153.5,-206 153.5,-187 280.5,-187 280.5,-206"/>
<text text-anchor="middle" x="217" y="-194" font-family="Helvetica,sans-Serif" font-size="10.00">basic_string_view::end</text>
</a>
</g>
</g>
<!-- Node1&#45;&gt;Node4 -->
<g id="edge3_Node000001_Node000004" class="edge">
<title>Node1&#45;&gt;Node4</title>
<g id="a_edge3_Node000001_Node000004"><a xlink:title=" ">
<path fill="none" stroke="#63b8ff" d="M96.46,-169.03C117.23,-173.8 142.56,-179.62 164.56,-184.68"/>
<polygon fill="#63b8ff" stroke="#63b8ff" points="163.87,-188.11 174.4,-186.94 165.44,-181.29 163.87,-188.11"/>
</a>
</g>
</g>
<!-- Node5 -->
<g id="Node000005" class="node">
<title>Node5</title>
<g id="a_Node000005"><a xlink:href="namespacedetail.html#add58e90244cc9b3ff0ececf663c35b58" target="_top" xlink:title=" ">
<polygon fill="white" stroke="#666666" points="271,-169 163,-169 163,-150 271,-150 271,-169"/>
<text text-anchor="middle" x="217" y="-157" font-family="Helvetica,sans-Serif" font-size="10.00">detail::find_escape</text>
</a>
</g>
</g>
<!-- Node1&#45;&gt;Node5 -->
<g id="edge4_Node000001_Node000005" class="edge">
<title>Node1&#45;&gt;Node5</title>
<g id="a_edge4_Node000001_Node000005"><a xlink:title=" ">
<path fill="none" stroke="#63b8ff" d="M108.16,-159.5C122.45,-159.5 138.04,-159.5 152.82,-159.5"/>
<polygon fill="#63b8ff" stroke="#63b8ff" points="152.89,-163 162.89,-159.5 152.89,-156 152.89,-163"/>
</a>
</g>
</g>
<!-- Node6 -->
<g id="Node000006" class="node">
<title>Node6</title>
<g id="a_Node000006"><a xlink:href="namespacedetail.html#ab31cdd3925ccf6312ab598b0a05e9438" target="_top" xlink:title=" ">
<polygon fill="white" stroke="#666666" points="451,-254 332,-254 332,-235 451,-235 451,-254"/>
<text text-anchor="middle" x="391.5" y="-242" font-family="Helvetica,sans-Serif" font-size="10.00">detail::needs_escape</text>
</a>
</g>
</g>
<!-- Node1&#45;&gt;Node6 -->
<g id="edge14_Node000001_Node000006" class="edge">
<title>Node1&#45;&gt;Node6</title>
<g id="a_edge14_Node000001_Node000006"><a xlink:title=" ">
<path fill="none" stroke="#63b8ff" d="M59.55,-169.07C70.49,-190.8 100.61,-243.52 144,-263.5 213.85,-295.66 306.66,-273.5 356.08,-257.3"/>
<polygon fill="#63b8ff" stroke="#63b8ff" points="357.31,-260.58 365.66,-254.06 355.07,-253.95 357.31,-260.58"/>
</a>
</g>
</g>
<!-- Node9 -->
<g id="Node000009" class="node">
<title>Node9</title>
<g id="a_Node000009"><a xlink:href="namespacedetail.html#ac7952761a4b6255293c82b7fb3a61d50" target="_top" xlink:title=" ">
<polygon fill="white" stroke="#666666" points="290,-93 144,-93 144,-74 290,-74 290,-93"/>
<text text-anchor="middle" x="217" y="-81" font-family="Helvetica,sans-Serif" font-size="10.00">detail::for_each_codepoint</text>
</a>
</g>
</g>
<!-- Node1&#45;&gt;Node9 -->
<g id="edge8_Node000001_Node000009" class="edge">
<title>Node1&#45;&gt;Node9</title>
<g id="a_edge8_Node000001_Node000009"><a xlink:title=" ">
<path fill="none" stroke="#63b8ff" d="M69.3,-149.89C86.49,-138.64 116.45,-119.98 144,-107.5 153.09,-103.38 163.09,-99.6 172.69,-96.32"/>
<polygon fill="#63b8ff" stroke="#63b8ff" points="174.08,-99.55 182.47,-93.09 171.88,-92.9 174.08,-99.55"/>
</a>
</g>
</g>
<!-- Node12 -->
<g id="Node000012" class="node">
<title>Node12</title>
<g id="a_Node000012"><a xlink:href="namespacedetail.html#a4855e668246c731a97484efc329f2aac" target="_top" xlink:title=" ">
<polygon fill="white" stroke="#666666" points="446.5,-19 336.5,-19 336.5,0 446.5,0 446.5,-19"/>
<text text-anchor="middle" x="391.5" y="-7" font-family="Helvetica,sans-Serif" font-size="10.00">detail::to_unsigned</text>
</a>
</g>
</g>
<!-- Node1&#45;&gt;Node12 -->
<g id="edge15_Node000001_Node000012" class="edge">
<title>Node1&#45;&gt;Node12</title>
<g id="a_edge15_Node000001_Node000012"><a xlink:title=" ">
<path fill="none" stroke="#63b8ff" d="M61.04,-149.91C73.8,-130.48 105.53,-86.46 144,-64.5 200.4,-32.3 274.06,-18.95 326.12,-13.41"/>
<polygon fill="#63b8ff" stroke="#63b8ff" points="326.63,-16.88 336.24,-12.41 325.94,-9.91 326.63,-16.88"/>
</a>
</g>
</g>
<!-- Node5&#45;&gt;Node6 -->
<g id="edge5_Node000005_Node000006" class="edge">
<title>Node5&#45;&gt;Node6</title>
<g id="a_edge5_Node000005_Node000006"><a xlink:title=" ">
<path fill="none" stroke="#63b8ff" d="M263.32,-169.07C272.35,-171.63 281.62,-174.76 290,-178.5 319.92,-191.85 350.93,-213.64 370.45,-228.5"/>
<polygon fill="#63b8ff" stroke="#63b8ff" points="368.51,-231.43 378.56,-234.79 372.8,-225.9 368.51,-231.43"/>
</a>
</g>
</g>
<!-- Node7 -->
<g id="Node000007" class="node">
<title>Node7</title>
<g id="a_Node000007"><a xlink:href="namespacedetail.html#a478924085570f58ed43e324860374a6c" target="_top" xlink:title=" ">
<polygon fill="white" stroke="#666666" points="600,-254 493,-254 493,-235 600,-235 600,-254"/>
<text text-anchor="middle" x="546.5" y="-242" font-family="Helvetica,sans-Serif" font-size="10.00">detail::is_printable</text>
</a>
</g>
</g>
<!-- Node6&#45;&gt;Node7 -->
<g id="edge6_Node000006_Node000007" class="edge">
<title>Node6&#45;&gt;Node7</title>
<g id="a_edge6_Node000006_Node000007"><a xlink:title=" ">
<path fill="none" stroke="#63b8ff" d="M451.22,-244.5C461.46,-244.5 472.14,-244.5 482.49,-244.5"/>
<polygon fill="#63b8ff" stroke="#63b8ff" points="482.7,-248 492.7,-244.5 482.7,-241 482.7,-248"/>
</a>
</g>
</g>
<!-- Node8 -->
<g id="Node000008" class="node">
<title>Node8</title>
<g id="a_Node000008"><a xlink:href="namespacedetail.html#ac3df1e29ebde78440f3595e480065a59" target="_top" xlink:title=" ">
<polygon fill="white" stroke="#666666" points="743,-254 636,-254 636,-235 743,-235 743,-254"/>
<text text-anchor="middle" x="689.5" y="-242" font-family="Helvetica,sans-Serif" font-size="10.00">detail::is_printable</text>
</a>
</g>
</g>
<!-- Node7&#45;&gt;Node8 -->
<g id="edge7_Node000007_Node000008" class="edge">
<title>Node7&#45;&gt;Node8</title>
<g id="a_edge7_Node000007_Node000008"><a xlink:title=" ">
<path fill="none" stroke="#63b8ff" d="M600,-244.5C608.44,-244.5 617.26,-244.5 625.9,-244.5"/>
<polygon fill="#63b8ff" stroke="#63b8ff" points="625.95,-248 635.95,-244.5 625.95,-241 625.95,-248"/>
</a>
</g>
</g>
<!-- Node9&#45;&gt;Node2 -->
<g id="edge9_Node000009_Node000002" class="edge">
<title>Node9&#45;&gt;Node2</title>
<g id="a_edge9_Node000009_Node000002"><a xlink:title=" ">
<path fill="none" stroke="#63b8ff" d="M256.24,-93.08C267.52,-96.73 279.62,-101.5 290,-107.5 308.53,-118.21 307.65,-128.47 326,-139.5 328.76,-141.16 331.66,-142.74 334.64,-144.24"/>
<polygon fill="#63b8ff" stroke="#63b8ff" points="333.18,-147.42 343.73,-148.46 336.14,-141.07 333.18,-147.42"/>
</a>
</g>
</g>
<!-- Node10 -->
<g id="Node000010" class="node">
<title>Node10</title>
<g id="a_Node000010"><a xlink:href="classbasic__string__view.html#a39cdfe061dc6d64a3adc230b62d8a026" target="_top" xlink:title=" ">
<polygon fill="white" stroke="#666666" points="457,-130 326,-130 326,-111 457,-111 457,-130"/>
<text text-anchor="middle" x="391.5" y="-118" font-family="Helvetica,sans-Serif" font-size="10.00">basic_string_view::data</text>
</a>
</g>
</g>
<!-- Node9&#45;&gt;Node10 -->
<g id="edge10_Node000009_Node000010" class="edge">
<title>Node9&#45;&gt;Node10</title>
<g id="a_edge10_Node000009_Node000010"><a xlink:title=" ">
<path fill="none" stroke="#63b8ff" d="M262.42,-93.03C284.87,-97.84 312.31,-103.73 336.02,-108.81"/>
<polygon fill="#63b8ff" stroke="#63b8ff" points="335.42,-112.26 345.93,-110.94 336.88,-105.42 335.42,-112.26"/>
</a>
</g>
</g>
<!-- Node11 -->
<g id="Node000011" class="node">
<title>Node11</title>
<g id="a_Node000011"><a xlink:href="classbasic__string__view.html#a216bbe1b012b590698d7bb4e96d1af3f" target="_top" xlink:title=" ">
<polygon fill="white" stroke="#666666" points="455.5,-93 327.5,-93 327.5,-74 455.5,-74 455.5,-93"/>
<text text-anchor="middle" x="391.5" y="-81" font-family="Helvetica,sans-Serif" font-size="10.00">basic_string_view::size</text>
</a>
</g>
</g>
<!-- Node9&#45;&gt;Node11 -->
<g id="edge11_Node000009_Node000011" class="edge">
<title>Node9&#45;&gt;Node11</title>
<g id="a_edge11_Node000009_Node000011"><a xlink:title=" ">
<path fill="none" stroke="#63b8ff" d="M290.16,-83.5C299.14,-83.5 308.34,-83.5 317.35,-83.5"/>
<polygon fill="#63b8ff" stroke="#63b8ff" points="317.41,-87 327.41,-83.5 317.41,-80 317.41,-87"/>
</a>
</g>
</g>
<!-- Node9&#45;&gt;Node12 -->
<g id="edge12_Node000009_Node000012" class="edge">
<title>Node9&#45;&gt;Node12</title>
<g id="a_edge12_Node000009_Node000012"><a xlink:title=" ">
<path fill="none" stroke="#63b8ff" d="M233.98,-73.88C254.63,-61.76 292,-40.89 326,-27.5 330.88,-25.58 336.04,-23.78 341.23,-22.11"/>
<polygon fill="#63b8ff" stroke="#63b8ff" points="342.64,-25.34 351.19,-19.08 340.6,-18.64 342.64,-25.34"/>
</a>
</g>
</g>
<!-- Node13 -->
<g id="Node000013" class="node">
<title>Node13</title>
<g id="a_Node000013"><a xlink:href="namespacedetail.html#a9cd935fa9e8ecf106e59bee1411440b9" target="_top" xlink:title=" ">
<polygon fill="white" stroke="#666666" points="446.5,-56 336.5,-56 336.5,-37 446.5,-37 446.5,-56"/>
<text text-anchor="middle" x="391.5" y="-44" font-family="Helvetica,sans-Serif" font-size="10.00">detail::utf8_decode</text>
</a>
</g>
</g>
<!-- Node9&#45;&gt;Node13 -->
<g id="edge13_Node000009_Node000013" class="edge">
<title>Node9&#45;&gt;Node13</title>
<g id="a_edge13_Node000009_Node000013"><a xlink:title=" ">
<path fill="none" stroke="#63b8ff" d="M262.42,-73.97C284.87,-69.16 312.31,-63.27 336.02,-58.19"/>
<polygon fill="#63b8ff" stroke="#63b8ff" points="336.88,-61.58 345.93,-56.06 335.42,-54.74 336.88,-61.58"/>
</a>
</g>
</g>
</g>
</svg>
