<?xml version="1.0" encoding="UTF-8" standalone="no"?>
<!DOCTYPE svg PUBLIC "-//W3C//DTD SVG 1.1//EN"
 "http://www.w3.org/Graphics/SVG/1.1/DTD/svg11.dtd">
<!-- Generated by graphviz version 2.43.0 (0)
 -->
<!-- Title: detail::count_digits Pages: 1 -->
<svg width="738pt" height="134pt"
 viewBox="0.00 0.00 738.00 134.00" xmlns="http://www.w3.org/2000/svg" xmlns:xlink="http://www.w3.org/1999/xlink">
<g id="graph0" class="graph" transform="scale(1 1) rotate(0) translate(4 130)">
<title>detail::count_digits</title>
<!-- Node1 -->
<g id="Node000001" class="node">
<title>Node1</title>
<g id="a_Node000001"><a xlink:title=" ">
<polygon fill="#999999" stroke="#666666" points="730,-96.5 620,-96.5 620,-77.5 730,-77.5 730,-96.5"/>
<text text-anchor="middle" x="675" y="-84.5" font-family="Helvetica,sans-Serif" font-size="10.00">detail::count_digits</text>
</a>
</g>
</g>
<!-- Node2 -->
<g id="Node000002" class="node">
<title>Node2</title>
<g id="a_Node000002"><a xlink:href="namespacedetail.html#a419a6383f35ef9294543a14ded001151" target="_top" xlink:title=" ">
<polygon fill="white" stroke="#666666" points="584,-126 457,-126 457,-96 584,-96 584,-126"/>
<text text-anchor="start" x="465" y="-114" font-family="Helvetica,sans-Serif" font-size="10.00">detail::write_fractional</text>
<text text-anchor="middle" x="520.5" y="-103" font-family="Helvetica,sans-Serif" font-size="10.00">_seconds</text>
</a>
</g>
</g>
<!-- Node1&#45;&gt;Node2 -->
<g id="edge1_Node000001_Node000002" class="edge">
<title>Node1&#45;&gt;Node2</title>
<g id="a_edge1_Node000001_Node000002"><a xlink:title=" ">
<path fill="none" stroke="#63b8ff" d="M609.9,-97.09C601.37,-98.43 592.62,-99.81 584.11,-101.15"/>
<polygon fill="#63b8ff" stroke="#63b8ff" points="610.47,-100.54 619.8,-95.53 609.38,-93.63 610.47,-100.54"/>
</a>
</g>
</g>
<!-- Node3 -->
<g id="Node000003" class="node">
<title>Node3</title>
<g id="a_Node000003"><a xlink:href="classdetail_1_1tm__writer.html#afebe1080f809fce7f9929aac3b0b9111" target="_top" xlink:title=" ">
<polygon fill="white" stroke="#666666" points="580,-78 461,-78 461,-48 580,-48 580,-78"/>
<text text-anchor="start" x="469" y="-66" font-family="Helvetica,sans-Serif" font-size="10.00">detail::tm_writer::</text>
<text text-anchor="middle" x="520.5" y="-55" font-family="Helvetica,sans-Serif" font-size="10.00">write_year_extended</text>
</a>
</g>
</g>
<!-- Node1&#45;&gt;Node3 -->
<g id="edge2_Node000001_Node000003" class="edge">
<title>Node1&#45;&gt;Node3</title>
<g id="a_edge2_Node000001_Node000003"><a xlink:title=" ">
<path fill="none" stroke="#63b8ff" d="M609.72,-76.88C599.92,-75.34 589.85,-73.76 580.18,-72.23"/>
<polygon fill="#63b8ff" stroke="#63b8ff" points="609.38,-80.37 619.8,-78.47 610.47,-73.46 609.38,-80.37"/>
</a>
</g>
</g>
<!-- Node4 -->
<g id="Node000004" class="node">
<title>Node4</title>
<g id="a_Node000004"><a xlink:href="classdetail_1_1tm__writer.html#a23f9e904d6c3f7c990065e218ec30ac1" target="_top" xlink:title=" ">
<polygon fill="white" stroke="#666666" points="421,-102 317,-102 317,-72 421,-72 421,-102"/>
<text text-anchor="start" x="325" y="-90" font-family="Helvetica,sans-Serif" font-size="10.00">detail::tm_writer::</text>
<text text-anchor="middle" x="369" y="-79" font-family="Helvetica,sans-Serif" font-size="10.00">on_iso_date</text>
</a>
</g>
</g>
<!-- Node3&#45;&gt;Node4 -->
<g id="edge3_Node000003_Node000004" class="edge">
<title>Node3&#45;&gt;Node4</title>
<g id="a_edge3_Node000003_Node000004"><a xlink:title=" ">
<path fill="none" stroke="#63b8ff" d="M450.92,-74.01C440.93,-75.61 430.78,-77.24 421.21,-78.78"/>
<polygon fill="#63b8ff" stroke="#63b8ff" points="451.52,-77.46 460.84,-72.42 450.41,-70.55 451.52,-77.46"/>
</a>
</g>
</g>
<!-- Node5 -->
<g id="Node000005" class="node">
<title>Node5</title>
<g id="a_Node000005"><a xlink:href="classdetail_1_1tm__writer.html#aeccc3597d5e9f4f0dd497bab3214340a" target="_top" xlink:title=" ">
<polygon fill="white" stroke="#666666" points="421,-54 317,-54 317,-24 421,-24 421,-54"/>
<text text-anchor="start" x="325" y="-42" font-family="Helvetica,sans-Serif" font-size="10.00">detail::tm_writer::</text>
<text text-anchor="middle" x="369" y="-31" font-family="Helvetica,sans-Serif" font-size="10.00">write_year</text>
</a>
</g>
</g>
<!-- Node3&#45;&gt;Node5 -->
<g id="edge4_Node000003_Node000005" class="edge">
<title>Node3&#45;&gt;Node5</title>
<g id="a_edge4_Node000003_Node000005"><a xlink:title=" ">
<path fill="none" stroke="#63b8ff" d="M450.92,-51.99C440.93,-50.39 430.78,-48.76 421.21,-47.22"/>
<polygon fill="#63b8ff" stroke="#63b8ff" points="450.41,-55.45 460.84,-53.58 451.52,-48.54 450.41,-55.45"/>
</a>
</g>
</g>
<!-- Node6 -->
<g id="Node000006" class="node">
<title>Node6</title>
<g id="a_Node000006"><a xlink:href="classdetail_1_1tm__writer.html#a286b8e12c2a447aa2a43fbc0253b834c" target="_top" xlink:title=" ">
<polygon fill="white" stroke="#666666" points="281,-78 140,-78 140,-48 281,-48 281,-78"/>
<text text-anchor="start" x="148" y="-66" font-family="Helvetica,sans-Serif" font-size="10.00">detail::tm_writer::</text>
<text text-anchor="middle" x="210.5" y="-55" font-family="Helvetica,sans-Serif" font-size="10.00">on_iso_week_based_year</text>
</a>
</g>
</g>
<!-- Node5&#45;&gt;Node6 -->
<g id="edge5_Node000005_Node000006" class="edge">
<title>Node5&#45;&gt;Node6</title>
<g id="a_edge5_Node000005_Node000006"><a xlink:title=" ">
<path fill="none" stroke="#63b8ff" d="M306.67,-48.41C298.27,-49.69 289.59,-51.02 281.05,-52.33"/>
<polygon fill="#63b8ff" stroke="#63b8ff" points="307.4,-51.83 316.76,-46.86 306.34,-44.91 307.4,-51.83"/>
</a>
</g>
</g>
<!-- Node7 -->
<g id="Node000007" class="node">
<title>Node7</title>
<g id="a_Node000007"><a xlink:href="classdetail_1_1tm__writer.html#ac00a57863b399a1d7f02bed57867e4d7" target="_top" xlink:title=" ">
<polygon fill="white" stroke="#666666" points="262.5,-30 158.5,-30 158.5,0 262.5,0 262.5,-30"/>
<text text-anchor="start" x="166.5" y="-18" font-family="Helvetica,sans-Serif" font-size="10.00">detail::tm_writer::</text>
<text text-anchor="middle" x="210.5" y="-7" font-family="Helvetica,sans-Serif" font-size="10.00">on_year</text>
</a>
</g>
</g>
<!-- Node5&#45;&gt;Node7 -->
<g id="edge6_Node000005_Node000007" class="edge">
<title>Node5&#45;&gt;Node7</title>
<g id="a_edge6_Node000005_Node000007"><a xlink:title=" ">
<path fill="none" stroke="#63b8ff" d="M306.79,-29.61C292.17,-27.37 276.71,-25 262.59,-22.84"/>
<polygon fill="#63b8ff" stroke="#63b8ff" points="306.34,-33.09 316.76,-31.14 307.4,-26.17 306.34,-33.09"/>
</a>
</g>
</g>
<!-- Node8 -->
<g id="Node000008" class="node">
<title>Node8</title>
<g id="a_Node000008"><a xlink:href="classdetail_1_1tm__writer.html#af53d115957cdef5079ea641b12d8dce9" target="_top" xlink:title=" ">
<polygon fill="white" stroke="#666666" points="104,-30 0,-30 0,0 104,0 104,-30"/>
<text text-anchor="start" x="8" y="-18" font-family="Helvetica,sans-Serif" font-size="10.00">detail::tm_writer::</text>
<text text-anchor="middle" x="52" y="-7" font-family="Helvetica,sans-Serif" font-size="10.00">on_datetime</text>
</a>
</g>
</g>
<!-- Node7&#45;&gt;Node8 -->
<g id="edge7_Node000007_Node000008" class="edge">
<title>Node7&#45;&gt;Node8</title>
<g id="a_edge7_Node000007_Node000008"><a xlink:title=" ">
<path fill="none" stroke="#63b8ff" d="M147.87,-15C133.37,-15 118.07,-15 104.09,-15"/>
<polygon fill="#63b8ff" stroke="#63b8ff" points="148.26,-18.5 158.26,-15 148.26,-11.5 148.26,-18.5"/>
</a>
</g>
</g>
</g>
</svg>
