<?xml version="1.0" encoding="UTF-8" standalone="no"?>
<!DOCTYPE svg PUBLIC "-//W3C//DTD SVG 1.1//EN"
 "http://www.w3.org/Graphics/SVG/1.1/DTD/svg11.dtd">
<!-- Generated by graphviz version 2.43.0 (0)
 -->
<!-- Title: cxxopts::values::parse_value Pages: 1 -->
<svg width="308pt" height="124pt"
 viewBox="0.00 0.00 308.00 123.50" xmlns="http://www.w3.org/2000/svg" xmlns:xlink="http://www.w3.org/1999/xlink">
<g id="graph0" class="graph" transform="scale(1 1) rotate(0) translate(4 119.5)">
<title>cxxopts::values::parse_value</title>
<!-- Node1 -->
<g id="Node000001" class="node">
<title>Node1</title>
<g id="a_Node000001"><a xlink:title=" ">
<polygon fill="#999999" stroke="#666666" points="125,-67.5 0,-67.5 0,-37.5 125,-37.5 125,-67.5"/>
<text text-anchor="start" x="8" y="-55.5" font-family="Helvetica,sans-Serif" font-size="10.00">cxxopts::values::parse</text>
<text text-anchor="middle" x="62.5" y="-44.5" font-family="Helvetica,sans-Serif" font-size="10.00">_value</text>
</a>
</g>
</g>
<!-- Node2 -->
<g id="Node000002" class="node">
<title>Node2</title>
<g id="a_Node000002"><a xlink:href="namespacecxxopts_1_1values_1_1parser__tool.html#aef26707302ebd8565487e8d6268c2285" target="_top" xlink:title=" ">
<polygon fill="white" stroke="#666666" points="295,-115.5 166,-115.5 166,-85.5 295,-85.5 295,-115.5"/>
<text text-anchor="start" x="174" y="-103.5" font-family="Helvetica,sans-Serif" font-size="10.00">cxxopts::values::parser</text>
<text text-anchor="middle" x="230.5" y="-92.5" font-family="Helvetica,sans-Serif" font-size="10.00">_tool::IsFalseText</text>
</a>
</g>
</g>
<!-- Node1&#45;&gt;Node2 -->
<g id="edge1_Node000001_Node000002" class="edge">
<title>Node1&#45;&gt;Node2</title>
<g id="a_edge1_Node000001_Node000002"><a xlink:title=" ">
<path fill="none" stroke="#63b8ff" d="M115.57,-67.56C132.1,-72.34 150.54,-77.67 167.69,-82.63"/>
<polygon fill="#63b8ff" stroke="#63b8ff" points="167.04,-86.08 177.62,-85.5 168.98,-79.36 167.04,-86.08"/>
</a>
</g>
</g>
<!-- Node3 -->
<g id="Node000003" class="node">
<title>Node3</title>
<g id="a_Node000003"><a xlink:href="namespacecxxopts_1_1values_1_1parser__tool.html#a1b7a1e0063d8f2dd9dc02ada983a1aec" target="_top" xlink:title=" ">
<polygon fill="white" stroke="#666666" points="295,-67.5 166,-67.5 166,-37.5 295,-37.5 295,-67.5"/>
<text text-anchor="start" x="174" y="-55.5" font-family="Helvetica,sans-Serif" font-size="10.00">cxxopts::values::parser</text>
<text text-anchor="middle" x="230.5" y="-44.5" font-family="Helvetica,sans-Serif" font-size="10.00">_tool::IsTrueText</text>
</a>
</g>
</g>
<!-- Node1&#45;&gt;Node3 -->
<g id="edge2_Node000001_Node000003" class="edge">
<title>Node1&#45;&gt;Node3</title>
<g id="a_edge2_Node000001_Node000003"><a xlink:title=" ">
<path fill="none" stroke="#63b8ff" d="M125.31,-52.5C135.27,-52.5 145.66,-52.5 155.86,-52.5"/>
<polygon fill="#63b8ff" stroke="#63b8ff" points="155.97,-56 165.97,-52.5 155.97,-49 155.97,-56"/>
</a>
</g>
</g>
<!-- Node4 -->
<g id="Node000004" class="node">
<title>Node4</title>
<g id="a_Node000004"><a xlink:href="namespacecxxopts.html#a466f47408560fa08e43bf48ec2366b22" target="_top" xlink:title=" ">
<polygon fill="white" stroke="#666666" points="300,-19 161,-19 161,0 300,0 300,-19"/>
<text text-anchor="middle" x="230.5" y="-7" font-family="Helvetica,sans-Serif" font-size="10.00">cxxopts::throw_or_mimic</text>
</a>
</g>
</g>
<!-- Node1&#45;&gt;Node4 -->
<g id="edge3_Node000001_Node000004" class="edge">
<title>Node1&#45;&gt;Node4</title>
<g id="a_edge3_Node000001_Node000004"><a xlink:title=" ">
<path fill="none" stroke="#63b8ff" d="M121.56,-37.46C141.53,-32.29 163.63,-26.56 182.6,-21.65"/>
<polygon fill="#63b8ff" stroke="#63b8ff" points="183.69,-24.98 192.49,-19.09 181.93,-18.21 183.69,-24.98"/>
</a>
</g>
</g>
</g>
</svg>
