<?xml version="1.0" encoding="UTF-8" standalone="no"?>
<!DOCTYPE svg PUBLIC "-//W3C//DTD SVG 1.1//EN"
 "http://www.w3.org/Graphics/SVG/1.1/DTD/svg11.dtd">
<!-- Generated by graphviz version 2.43.0 (0)
 -->
<!-- Title: detail::write_loc Pages: 1 -->
<svg width="413pt" height="113pt"
 viewBox="0.00 0.00 413.00 112.50" xmlns="http://www.w3.org/2000/svg" xmlns:xlink="http://www.w3.org/1999/xlink">
<g id="graph0" class="graph" transform="scale(1 1) rotate(0) translate(4 108.5)">
<title>detail::write_loc</title>
<!-- Node1 -->
<g id="Node000001" class="node">
<title>Node1</title>
<g id="a_Node000001"><a xlink:title=" ">
<polygon fill="#999999" stroke="#666666" points="95,-56 0,-56 0,-37 95,-37 95,-56"/>
<text text-anchor="middle" x="47.5" y="-44" font-family="Helvetica,sans-Serif" font-size="10.00">detail::write_loc</text>
</a>
</g>
</g>
<!-- Node2 -->
<g id="Node000002" class="node">
<title>Node2</title>
<g id="a_Node000002"><a xlink:href="classformat__facet.html#a935e0ac70f6cf9342ccb4bae09821a1a" target="_top" xlink:title=" ">
<polygon fill="white" stroke="#666666" points="250,-104.5 131,-104.5 131,-74.5 250,-74.5 250,-104.5"/>
<text text-anchor="start" x="139" y="-92.5" font-family="Helvetica,sans-Serif" font-size="10.00">format_facet::format</text>
<text text-anchor="middle" x="190.5" y="-81.5" font-family="Helvetica,sans-Serif" font-size="10.00">_facet</text>
</a>
</g>
</g>
<!-- Node1&#45;&gt;Node2 -->
<g id="edge1_Node000001_Node000002" class="edge">
<title>Node1&#45;&gt;Node2</title>
<g id="a_edge1_Node000001_Node000002"><a xlink:title=" ">
<path fill="none" stroke="#63b8ff" d="M79.79,-56.04C94.78,-60.62 113.24,-66.24 130.72,-71.57"/>
<polygon fill="#63b8ff" stroke="#63b8ff" points="129.71,-74.92 140.29,-74.49 131.75,-68.23 129.71,-74.92"/>
</a>
</g>
</g>
<!-- Node3 -->
<g id="Node000003" class="node">
<title>Node3</title>
<g id="a_Node000003"><a xlink:href="classlocale__ref.html#a9e8901f320b201e831a07a87ddc04302" target="_top" xlink:title=" ">
<polygon fill="white" stroke="#666666" points="233.5,-56 147.5,-56 147.5,-37 233.5,-37 233.5,-56"/>
<text text-anchor="middle" x="190.5" y="-44" font-family="Helvetica,sans-Serif" font-size="10.00">locale_ref::get</text>
</a>
</g>
</g>
<!-- Node1&#45;&gt;Node3 -->
<g id="edge2_Node000001_Node000003" class="edge">
<title>Node1&#45;&gt;Node3</title>
<g id="a_edge2_Node000001_Node000003"><a xlink:title=" ">
<path fill="none" stroke="#63b8ff" d="M95.06,-46.5C108.48,-46.5 123.22,-46.5 136.98,-46.5"/>
<polygon fill="#63b8ff" stroke="#63b8ff" points="137.27,-50 147.27,-46.5 137.27,-43 137.27,-50"/>
</a>
</g>
</g>
<!-- Node4 -->
<g id="Node000004" class="node">
<title>Node4</title>
<g id="a_Node000004"><a xlink:href="classformat__facet.html#a3579f42d18450888329224bf76618527" target="_top" xlink:title=" ">
<polygon fill="white" stroke="#666666" points="241,-19 140,-19 140,0 241,0 241,-19"/>
<text text-anchor="middle" x="190.5" y="-7" font-family="Helvetica,sans-Serif" font-size="10.00">format_facet::put</text>
</a>
</g>
</g>
<!-- Node1&#45;&gt;Node4 -->
<g id="edge3_Node000001_Node000004" class="edge">
<title>Node1&#45;&gt;Node4</title>
<g id="a_edge3_Node000001_Node000004"><a xlink:title=" ">
<path fill="none" stroke="#63b8ff" d="M84.81,-36.97C102.52,-32.33 124.02,-26.68 142.92,-21.72"/>
<polygon fill="#63b8ff" stroke="#63b8ff" points="144.04,-25.05 152.82,-19.12 142.26,-18.28 144.04,-25.05"/>
</a>
</g>
</g>
<!-- Node5 -->
<g id="Node000005" class="node">
<title>Node5</title>
<g id="a_Node000005"><a xlink:href="classformat__facet.html#aa4931a45a940a6d5697150590270e4a3" target="_top" xlink:title=" ">
<polygon fill="white" stroke="#666666" points="405,-19 286,-19 286,0 405,0 405,-19"/>
<text text-anchor="middle" x="345.5" y="-7" font-family="Helvetica,sans-Serif" font-size="10.00">format_facet::do_put</text>
</a>
</g>
</g>
<!-- Node4&#45;&gt;Node5 -->
<g id="edge4_Node000004_Node000005" class="edge">
<title>Node4&#45;&gt;Node5</title>
<g id="a_edge4_Node000004_Node000005"><a xlink:title=" ">
<path fill="none" stroke="#63b8ff" d="M241.17,-9.5C252.18,-9.5 264.02,-9.5 275.63,-9.5"/>
<polygon fill="#63b8ff" stroke="#63b8ff" points="275.75,-13 285.75,-9.5 275.75,-6 275.75,-13"/>
</a>
</g>
</g>
</g>
</svg>
