<?xml version="1.0" encoding="UTF-8" standalone="no"?>
<!DOCTYPE svg PUBLIC "-//W3C//DTD SVG 1.1//EN"
 "http://www.w3.org/Graphics/SVG/1.1/DTD/svg11.dtd">
<!-- Generated by graphviz version 2.43.0 (0)
 -->
<!-- Title: detail::signbit Pages: 1 -->
<svg width="233pt" height="113pt"
 viewBox="0.00 0.00 233.00 113.00" xmlns="http://www.w3.org/2000/svg" xmlns:xlink="http://www.w3.org/1999/xlink">
<g id="graph0" class="graph" transform="scale(1 1) rotate(0) translate(4 109)">
<title>detail::signbit</title>
<!-- Node1 -->
<g id="Node000001" class="node">
<title>Node1</title>
<g id="a_Node000001"><a xlink:title=" ">
<polygon fill="#999999" stroke="#666666" points="83,-62 0,-62 0,-43 83,-43 83,-62"/>
<text text-anchor="middle" x="41.5" y="-50" font-family="Helvetica,sans-Serif" font-size="10.00">detail::signbit</text>
</a>
</g>
</g>
<!-- Node2 -->
<g id="Node000002" class="node">
<title>Node2</title>
<g id="a_Node000002"><a xlink:href="namespacedetail.html#a13855d666ae097f8d0343395183e3b47" target="_top" xlink:title=" ">
<polygon fill="white" stroke="#666666" points="216.5,-105 127.5,-105 127.5,-86 216.5,-86 216.5,-105"/>
<text text-anchor="middle" x="172" y="-93" font-family="Helvetica,sans-Serif" font-size="10.00">detail::bit_cast</text>
</a>
</g>
</g>
<!-- Node1&#45;&gt;Node2 -->
<g id="edge1_Node000001_Node000002" class="edge">
<title>Node1&#45;&gt;Node2</title>
<g id="a_edge1_Node000001_Node000002"><a xlink:title=" ">
<path fill="none" stroke="#63b8ff" d="M71.02,-62.04C89.24,-68.14 113.07,-76.12 132.9,-82.75"/>
<polygon fill="#63b8ff" stroke="#63b8ff" points="131.97,-86.13 142.56,-85.98 134.19,-79.49 131.97,-86.13"/>
</a>
</g>
</g>
<!-- Node3 -->
<g id="Node000003" class="node">
<title>Node3</title>
<g id="a_Node000003"><a xlink:href="namespacedetail.html#a75ed2634319883d038944529dbb954e2" target="_top" xlink:title=" ">
<polygon fill="white" stroke="#666666" points="225,-67.5 119,-67.5 119,-37.5 225,-37.5 225,-67.5"/>
<text text-anchor="start" x="127" y="-55.5" font-family="Helvetica,sans-Serif" font-size="10.00">detail::is_constant</text>
<text text-anchor="middle" x="172" y="-44.5" font-family="Helvetica,sans-Serif" font-size="10.00">_evaluated</text>
</a>
</g>
</g>
<!-- Node1&#45;&gt;Node3 -->
<g id="edge2_Node000001_Node000003" class="edge">
<title>Node1&#45;&gt;Node3</title>
<g id="a_edge2_Node000001_Node000003"><a xlink:title=" ">
<path fill="none" stroke="#63b8ff" d="M83.16,-52.5C91.3,-52.5 100.02,-52.5 108.7,-52.5"/>
<polygon fill="#63b8ff" stroke="#63b8ff" points="108.83,-56 118.83,-52.5 108.83,-49 108.83,-56"/>
</a>
</g>
</g>
<!-- Node4 -->
<g id="Node000004" class="node">
<title>Node4</title>
<g id="a_Node000004"><a xlink:href="namespacedetail.html#a292167eeff94d5a8f0598b0d19d15069" target="_top" xlink:title=" ">
<polygon fill="white" stroke="#666666" points="219.5,-19 124.5,-19 124.5,0 219.5,0 219.5,-19"/>
<text text-anchor="middle" x="172" y="-7" font-family="Helvetica,sans-Serif" font-size="10.00">detail::num_bits</text>
</a>
</g>
</g>
<!-- Node1&#45;&gt;Node4 -->
<g id="edge3_Node000001_Node000004" class="edge">
<title>Node1&#45;&gt;Node4</title>
<g id="a_edge3_Node000001_Node000004"><a xlink:title=" ">
<path fill="none" stroke="#63b8ff" d="M71.02,-42.96C89.24,-36.86 113.07,-28.88 132.9,-22.25"/>
<polygon fill="#63b8ff" stroke="#63b8ff" points="134.19,-25.51 142.56,-19.02 131.97,-18.87 134.19,-25.51"/>
</a>
</g>
</g>
</g>
</svg>
