<?xml version="1.0" encoding="UTF-8" standalone="no"?>
<!DOCTYPE svg PUBLIC "-//W3C//DTD SVG 1.1//EN"
 "http://www.w3.org/Graphics/SVG/1.1/DTD/svg11.dtd">
<!-- Generated by graphviz version 2.43.0 (0)
 -->
<!-- Title: detail::format_dragon Pages: 1 -->
<svg width="1135pt" height="749pt"
 viewBox="0.00 0.00 1135.00 748.66" xmlns="http://www.w3.org/2000/svg" xmlns:xlink="http://www.w3.org/1999/xlink">
<g id="graph0" class="graph" transform="scale(1 1) rotate(0) translate(4 744.66)">
<title>detail::format_dragon</title>
<!-- Node1 -->
<g id="Node000001" class="node">
<title>Node1</title>
<g id="a_Node000001"><a xlink:title=" ">
<polygon fill="#999999" stroke="#666666" points="122,-306.66 0,-306.66 0,-287.66 122,-287.66 122,-306.66"/>
<text text-anchor="middle" x="61" y="-294.66" font-family="Helvetica,sans-Serif" font-size="10.00">detail::format_dragon</text>
</a>
</g>
</g>
<!-- Node2 -->
<g id="Node000002" class="node">
<title>Node2</title>
<g id="a_Node000002"><a xlink:href="namespacedetail.html#a44758fbcb25a6fc3967fdc79e987fb93" target="_top" xlink:title=" ">
<polygon fill="white" stroke="#666666" points="288,-740.66 158,-740.66 158,-721.66 288,-721.66 288,-740.66"/>
<text text-anchor="middle" x="223" y="-728.66" font-family="Helvetica,sans-Serif" font-size="10.00">detail::adjust_precision</text>
</a>
</g>
</g>
<!-- Node1&#45;&gt;Node2 -->
<g id="edge1_Node000001_Node000002" class="edge">
<title>Node1&#45;&gt;Node2</title>
<g id="a_edge1_Node000001_Node000002"><a xlink:title=" ">
<path fill="none" stroke="#63b8ff" d="M63.01,-306.67C69.09,-362.16 102.38,-643.87 158,-707.16 161.3,-710.91 165.25,-714.09 169.55,-716.76"/>
<polygon fill="#63b8ff" stroke="#63b8ff" points="168.27,-720.04 178.75,-721.59 171.52,-713.84 168.27,-720.04"/>
</a>
</g>
</g>
<!-- Node4 -->
<g id="Node000004" class="node">
<title>Node4</title>
<g id="a_Node000004"><a xlink:href="classdetail_1_1bigint.html#a5217988ca45e71d3bcc78d7959fbb315" target="_top" xlink:title=" ">
<polygon fill="white" stroke="#666666" points="636.5,-664.66 520.5,-664.66 520.5,-645.66 636.5,-645.66 636.5,-664.66"/>
<text text-anchor="middle" x="578.5" y="-652.66" font-family="Helvetica,sans-Serif" font-size="10.00">detail::bigint::assign</text>
</a>
</g>
</g>
<!-- Node1&#45;&gt;Node4 -->
<g id="edge3_Node000001_Node000004" class="edge">
<title>Node1&#45;&gt;Node4</title>
<g id="a_edge3_Node000001_Node000004"><a xlink:title=" ">
<path fill="none" stroke="#63b8ff" d="M64.94,-307.01C74.14,-336.37 104.97,-424.51 158,-477.16 258.38,-576.82 423.18,-624.1 513.44,-643.55"/>
<polygon fill="#63b8ff" stroke="#63b8ff" points="512.77,-646.98 523.27,-645.62 514.21,-640.13 512.77,-646.98"/>
</a>
</g>
</g>
<!-- Node6 -->
<g id="Node000006" class="node">
<title>Node6</title>
<g id="a_Node000006"><a xlink:href="classdetail_1_1buffer.html#aeb33e0a2d2be2bbca9e0236c148089c8" target="_top" xlink:title="Returns a pointer to the buffer data (not null&#45;terminated).">
<polygon fill="white" stroke="#666666" points="797.5,-664.66 690.5,-664.66 690.5,-645.66 797.5,-645.66 797.5,-664.66"/>
<text text-anchor="middle" x="744" y="-652.66" font-family="Helvetica,sans-Serif" font-size="10.00">detail::buffer::data</text>
</a>
</g>
</g>
<!-- Node1&#45;&gt;Node6 -->
<g id="edge35_Node000001_Node000006" class="edge">
<title>Node1&#45;&gt;Node6</title>
<g id="a_edge35_Node000001_Node000006"><a xlink:title=" ">
<path fill="none" stroke="#63b8ff" d="M63.55,-306.94C69.52,-341.8 93.98,-461.64 158,-533.16 270.41,-658.72 342.98,-651.67 510,-674.16 570.34,-682.28 586.4,-680.1 647,-674.16 662.39,-672.65 678.97,-669.81 693.94,-666.78"/>
<polygon fill="#63b8ff" stroke="#63b8ff" points="694.96,-670.15 704.02,-664.67 693.52,-663.29 694.96,-670.15"/>
</a>
</g>
</g>
<!-- Node9 -->
<g id="Node000009" class="node">
<title>Node9</title>
<g id="a_Node000009"><a xlink:href="classdetail_1_1bigint.html#a8351139b55eb772c8f1c9f86e8e66e8f" target="_top" xlink:title=" ">
<polygon fill="white" stroke="#666666" points="281,-269.16 165,-269.16 165,-239.16 281,-239.16 281,-269.16"/>
<text text-anchor="start" x="173" y="-257.16" font-family="Helvetica,sans-Serif" font-size="10.00">detail::bigint::assign</text>
<text text-anchor="middle" x="223" y="-246.16" font-family="Helvetica,sans-Serif" font-size="10.00">_pow10</text>
</a>
</g>
</g>
<!-- Node1&#45;&gt;Node9 -->
<g id="edge8_Node000001_Node000009" class="edge">
<title>Node1&#45;&gt;Node9</title>
<g id="a_edge8_Node000001_Node000009"><a xlink:title=" ">
<path fill="none" stroke="#63b8ff" d="M97.51,-287.61C114.84,-282.96 136.25,-277.2 156.4,-271.79"/>
<polygon fill="#63b8ff" stroke="#63b8ff" points="157.41,-275.14 166.16,-269.16 155.6,-268.38 157.41,-275.14"/>
</a>
</g>
</g>
<!-- Node14 -->
<g id="Node000014" class="node">
<title>Node14</title>
<g id="a_Node000014"><a xlink:href="classdetail_1_1bigint.html#a2d85d98acd829cb1681daa0abbfa1403" target="_top" xlink:title=" ">
<polygon fill="white" stroke="#666666" points="468.5,-191.66 329.5,-191.66 329.5,-172.66 468.5,-172.66 468.5,-191.66"/>
<text text-anchor="middle" x="399" y="-179.66" font-family="Helvetica,sans-Serif" font-size="10.00">detail::bigint::operator*=</text>
</a>
</g>
</g>
<!-- Node1&#45;&gt;Node14 -->
<g id="edge48_Node000001_Node000014" class="edge">
<title>Node1&#45;&gt;Node14</title>
<g id="a_edge48_Node000001_Node000014"><a xlink:title=" ">
<path fill="none" stroke="#63b8ff" d="M72.62,-287.48C89.43,-272.72 123.79,-244.76 158,-230.16 209.35,-208.24 271.22,-196.18 319.28,-189.63"/>
<polygon fill="#63b8ff" stroke="#63b8ff" points="319.86,-193.08 329.32,-188.31 318.95,-186.14 319.86,-193.08"/>
</a>
</g>
</g>
<!-- Node15 -->
<g id="Node000015" class="node">
<title>Node15</title>
<g id="a_Node000015"><a xlink:href="classdetail_1_1bigint.html#a0e86af8a4597a9f220f7c0ab7cbe026f" target="_top" xlink:title=" ">
<polygon fill="white" stroke="#666666" points="474,-304.66 324,-304.66 324,-285.66 474,-285.66 474,-304.66"/>
<text text-anchor="middle" x="399" y="-292.66" font-family="Helvetica,sans-Serif" font-size="10.00">detail::bigint::operator&lt;&lt;=</text>
</a>
</g>
</g>
<!-- Node1&#45;&gt;Node15 -->
<g id="edge49_Node000001_Node000015" class="edge">
<title>Node1&#45;&gt;Node15</title>
<g id="a_edge49_Node000001_Node000015"><a xlink:title=" ">
<path fill="none" stroke="#63b8ff" d="M122.07,-296.8C175.42,-296.48 253.96,-296.01 313.62,-295.66"/>
<polygon fill="#63b8ff" stroke="#63b8ff" points="313.79,-299.16 323.77,-295.6 313.75,-292.16 313.79,-299.16"/>
</a>
</g>
</g>
<!-- Node16 -->
<g id="Node000016" class="node">
<title>Node16</title>
<g id="a_Node000016"><a xlink:href="classdetail_1_1buffer.html#a49016d0c600f79917e00d9e3458c8c92" target="_top" xlink:title=" ">
<polygon fill="white" stroke="#666666" points="647,-142.66 510,-142.66 510,-123.66 647,-123.66 647,-142.66"/>
<text text-anchor="middle" x="578.5" y="-130.66" font-family="Helvetica,sans-Serif" font-size="10.00">detail::buffer::push_back</text>
</a>
</g>
</g>
<!-- Node1&#45;&gt;Node16 -->
<g id="edge51_Node000001_Node000016" class="edge">
<title>Node1&#45;&gt;Node16</title>
<g id="a_edge51_Node000001_Node000016"><a xlink:title=" ">
<path fill="none" stroke="#63b8ff" d="M65.03,-287.42C74.07,-260.11 103.68,-182.6 158,-148.16 275.75,-73.49 451.8,-102.05 533.24,-121.25"/>
<polygon fill="#63b8ff" stroke="#63b8ff" points="532.62,-124.7 543.16,-123.65 534.27,-117.89 532.62,-124.7"/>
</a>
</g>
</g>
<!-- Node18 -->
<g id="Node000018" class="node">
<title>Node18</title>
<g id="a_Node000018"><a xlink:href="classdetail_1_1bigint.html#a3f9751cb5413ca1ac7e6a49bcee1b0ce" target="_top" xlink:title=" ">
<polygon fill="white" stroke="#666666" points="466,-154.66 332,-154.66 332,-135.66 466,-135.66 466,-154.66"/>
<text text-anchor="middle" x="399" y="-142.66" font-family="Helvetica,sans-Serif" font-size="10.00">detail::bigint::operator=</text>
</a>
</g>
</g>
<!-- Node1&#45;&gt;Node18 -->
<g id="edge50_Node000001_Node000018" class="edge">
<title>Node1&#45;&gt;Node18</title>
<g id="a_edge50_Node000001_Node000018"><a xlink:title=" ">
<path fill="none" stroke="#63b8ff" d="M67.56,-287.65C80.47,-266.5 114.71,-215.49 158,-191.16 208.08,-163 272.34,-151.76 321.76,-147.42"/>
<polygon fill="#63b8ff" stroke="#63b8ff" points="322.06,-150.91 331.75,-146.62 321.5,-143.93 322.06,-150.91"/>
</a>
</g>
</g>
<!-- Node28 -->
<g id="Node000028" class="node">
<title>Node28</title>
<g id="a_Node000028"><a xlink:href="namespacedetail.html#a4855e668246c731a97484efc329f2aac" target="_top" xlink:title=" ">
<polygon fill="white" stroke="#666666" points="799,-401.66 689,-401.66 689,-382.66 799,-382.66 799,-401.66"/>
<text text-anchor="middle" x="744" y="-389.66" font-family="Helvetica,sans-Serif" font-size="10.00">detail::to_unsigned</text>
</a>
</g>
</g>
<!-- Node1&#45;&gt;Node28 -->
<g id="edge52_Node000001_Node000028" class="edge">
<title>Node1&#45;&gt;Node28</title>
<g id="a_edge52_Node000001_Node000028"><a xlink:title=" ">
<path fill="none" stroke="#63b8ff" d="M101.71,-306.71C152.84,-318.69 244.56,-339.12 324,-351.16 448.92,-370.09 596.17,-382.15 678.65,-387.98"/>
<polygon fill="#63b8ff" stroke="#63b8ff" points="678.65,-391.49 688.87,-388.7 679.14,-384.51 678.65,-391.49"/>
</a>
</g>
</g>
<!-- Node29 -->
<g id="Node000029" class="node">
<title>Node29</title>
<g id="a_Node000029"><a xlink:href="classdetail_1_1bigint.html#afb6b3fc8ea4dfc1c18792e7228190c67" target="_top" xlink:title=" ">
<polygon fill="white" stroke="#666666" points="283.5,-468.16 162.5,-468.16 162.5,-438.16 283.5,-438.16 283.5,-468.16"/>
<text text-anchor="start" x="170.5" y="-456.16" font-family="Helvetica,sans-Serif" font-size="10.00">detail::bigint::divmod</text>
<text text-anchor="middle" x="223" y="-445.16" font-family="Helvetica,sans-Serif" font-size="10.00">_assign</text>
</a>
</g>
</g>
<!-- Node1&#45;&gt;Node29 -->
<g id="edge36_Node000001_Node000029" class="edge">
<title>Node1&#45;&gt;Node29</title>
<g id="a_edge36_Node000001_Node000029"><a xlink:title=" ">
<path fill="none" stroke="#63b8ff" d="M72.01,-306.92C97.2,-331.47 163.71,-396.33 199.1,-430.83"/>
<polygon fill="#63b8ff" stroke="#63b8ff" points="196.96,-433.63 206.56,-438.11 201.85,-428.62 196.96,-433.63"/>
</a>
</g>
</g>
<!-- Node34 -->
<g id="Node000034" class="node">
<title>Node34</title>
<g id="a_Node000034"><a xlink:href="classdetail_1_1buffer.html#ac48c33ebe198a142029794f99ec73c31" target="_top" xlink:title=" ">
<polygon fill="white" stroke="#666666" points="272,-66.16 174,-66.16 174,-36.16 272,-36.16 272,-66.16"/>
<text text-anchor="start" x="182" y="-54.16" font-family="Helvetica,sans-Serif" font-size="10.00">detail::buffer::try</text>
<text text-anchor="middle" x="223" y="-43.16" font-family="Helvetica,sans-Serif" font-size="10.00">_resize</text>
</a>
</g>
</g>
<!-- Node1&#45;&gt;Node34 -->
<g id="edge53_Node000001_Node000034" class="edge">
<title>Node1&#45;&gt;Node34</title>
<g id="a_edge53_Node000001_Node000034"><a xlink:title=" ">
<path fill="none" stroke="#63b8ff" d="M64.47,-287.59C72.9,-256.47 103.09,-156.41 158,-93.16 165.13,-84.94 174.24,-77.69 183.34,-71.62"/>
<polygon fill="#63b8ff" stroke="#63b8ff" points="185.4,-74.46 192,-66.17 181.67,-68.54 185.4,-74.46"/>
</a>
</g>
</g>
<!-- Node3 -->
<g id="Node000003" class="node">
<title>Node3</title>
<g id="a_Node000003"><a xlink:href="namespacedetail.html#a45c2130c44ebe54179eafcee3cda2bfb" target="_top" xlink:title=" ">
<polygon fill="white" stroke="#666666" points="451,-740.66 347,-740.66 347,-721.66 451,-721.66 451,-740.66"/>
<text text-anchor="middle" x="399" y="-728.66" font-family="Helvetica,sans-Serif" font-size="10.00">detail::max_value</text>
</a>
</g>
</g>
<!-- Node2&#45;&gt;Node3 -->
<g id="edge2_Node000002_Node000003" class="edge">
<title>Node2&#45;&gt;Node3</title>
<g id="a_edge2_Node000002_Node000003"><a xlink:title=" ">
<path fill="none" stroke="#63b8ff" d="M288.3,-731.16C304.1,-731.16 320.98,-731.16 336.64,-731.16"/>
<polygon fill="#63b8ff" stroke="#63b8ff" points="336.73,-734.66 346.73,-731.16 336.73,-727.66 336.73,-734.66"/>
</a>
</g>
</g>
<!-- Node5 -->
<g id="Node000005" class="node">
<title>Node5</title>
<g id="a_Node000005"><a xlink:href="classdetail_1_1buffer.html#a9236804846c0d435c8d7c7201da20c62" target="_top" xlink:title=" ">
<polygon fill="white" stroke="#666666" points="797.5,-701.66 690.5,-701.66 690.5,-682.66 797.5,-682.66 797.5,-701.66"/>
<text text-anchor="middle" x="744" y="-689.66" font-family="Helvetica,sans-Serif" font-size="10.00">detail::buffer::data</text>
</a>
</g>
</g>
<!-- Node4&#45;&gt;Node5 -->
<g id="edge4_Node000004_Node000005" class="edge">
<title>Node4&#45;&gt;Node5</title>
<g id="a_edge4_Node000004_Node000005"><a xlink:title=" ">
<path fill="none" stroke="#63b8ff" d="M621.61,-664.69C642.69,-669.46 668.42,-675.28 690.76,-680.33"/>
<polygon fill="#63b8ff" stroke="#63b8ff" points="690.23,-683.8 700.75,-682.6 691.77,-676.98 690.23,-683.8"/>
</a>
</g>
</g>
<!-- Node4&#45;&gt;Node6 -->
<g id="edge5_Node000004_Node000006" class="edge">
<title>Node4&#45;&gt;Node6</title>
<g id="a_edge5_Node000004_Node000006"><a xlink:title=" ">
<path fill="none" stroke="#63b8ff" d="M636.68,-655.16C650.69,-655.16 665.76,-655.16 680.02,-655.16"/>
<polygon fill="#63b8ff" stroke="#63b8ff" points="680.23,-658.66 690.23,-655.16 680.23,-651.66 680.23,-658.66"/>
</a>
</g>
</g>
<!-- Node7 -->
<g id="Node000007" class="node">
<title>Node7</title>
<g id="a_Node000007"><a xlink:href="classbasic__memory__buffer.html#a9a5d3f229ccaf48e4176d7cdcfd84383" target="_top" xlink:title=" ">
<polygon fill="white" stroke="#666666" points="805,-550.16 683,-550.16 683,-520.16 805,-520.16 805,-550.16"/>
<text text-anchor="start" x="691" y="-538.16" font-family="Helvetica,sans-Serif" font-size="10.00">basic_memory_buffer</text>
<text text-anchor="middle" x="744" y="-527.16" font-family="Helvetica,sans-Serif" font-size="10.00">::resize</text>
</a>
</g>
</g>
<!-- Node4&#45;&gt;Node7 -->
<g id="edge6_Node000004_Node000007" class="edge">
<title>Node4&#45;&gt;Node7</title>
<g id="a_edge6_Node000004_Node000007"><a xlink:title=" ">
<path fill="none" stroke="#63b8ff" d="M628.4,-645.62C634.89,-643.36 641.27,-640.58 647,-637.16 649.31,-635.78 694.4,-587.45 721.95,-557.82"/>
<polygon fill="#63b8ff" stroke="#63b8ff" points="724.63,-560.08 728.88,-550.38 719.51,-555.32 724.63,-560.08"/>
</a>
</g>
</g>
<!-- Node8 -->
<g id="Node000008" class="node">
<title>Node8</title>
<g id="a_Node000008"><a xlink:href="classdetail_1_1buffer.html#a8685285932360c284d19003fc4ba3edc" target="_top" xlink:title="Returns the size of this buffer.">
<polygon fill="white" stroke="#666666" points="796,-460.66 692,-460.66 692,-441.66 796,-441.66 796,-460.66"/>
<text text-anchor="middle" x="744" y="-448.66" font-family="Helvetica,sans-Serif" font-size="10.00">detail::buffer::size</text>
</a>
</g>
</g>
<!-- Node4&#45;&gt;Node8 -->
<g id="edge7_Node000004_Node000008" class="edge">
<title>Node4&#45;&gt;Node8</title>
<g id="a_edge7_Node000004_Node000008"><a xlink:title=" ">
<path fill="none" stroke="#63b8ff" d="M635.18,-645.6C639.51,-643.33 643.54,-640.56 647,-637.16 688.55,-596.34 653.46,-561.35 683,-511.16 693.05,-494.08 709.11,-478.38 722.08,-467.33"/>
<polygon fill="#63b8ff" stroke="#63b8ff" points="724.56,-469.82 730.07,-460.77 720.12,-464.41 724.56,-469.82"/>
</a>
</g>
</g>
<!-- Node10 -->
<g id="Node000010" class="node">
<title>Node10</title>
<g id="a_Node000010"><a xlink:href="namespacedetail.html#af252d1b8eaeab79d234b012c14fd58b0" target="_top" xlink:title=" ">
<polygon fill="white" stroke="#666666" points="452.5,-228.66 345.5,-228.66 345.5,-209.66 452.5,-209.66 452.5,-228.66"/>
<text text-anchor="middle" x="399" y="-216.66" font-family="Helvetica,sans-Serif" font-size="10.00">detail::countl_zero</text>
</a>
</g>
</g>
<!-- Node9&#45;&gt;Node10 -->
<g id="edge9_Node000009_Node000010" class="edge">
<title>Node9&#45;&gt;Node10</title>
<g id="a_edge9_Node000009_Node000010"><a xlink:title=" ">
<path fill="none" stroke="#63b8ff" d="M281.46,-242.6C300.5,-238.77 321.69,-234.51 340.73,-230.68"/>
<polygon fill="#63b8ff" stroke="#63b8ff" points="341.64,-234.06 350.76,-228.66 340.26,-227.2 341.64,-234.06"/>
</a>
</g>
</g>
<!-- Node13 -->
<g id="Node000013" class="node">
<title>Node13</title>
<g id="a_Node000013"><a xlink:href="namespacedetail.html#a292167eeff94d5a8f0598b0d19d15069" target="_top" xlink:title=" ">
<polygon fill="white" stroke="#666666" points="626,-179.66 531,-179.66 531,-160.66 626,-160.66 626,-179.66"/>
<text text-anchor="middle" x="578.5" y="-167.66" font-family="Helvetica,sans-Serif" font-size="10.00">detail::num_bits</text>
</a>
</g>
</g>
<!-- Node9&#45;&gt;Node13 -->
<g id="edge12_Node000009_Node000013" class="edge">
<title>Node9&#45;&gt;Node13</title>
<g id="a_edge12_Node000009_Node000013"><a xlink:title=" ">
<path fill="none" stroke="#63b8ff" d="M281.13,-263.62C334.41,-269.53 414.38,-270.77 474,-238.16 497.71,-225.19 487.78,-204.54 510,-189.16 513.49,-186.74 517.28,-184.63 521.23,-182.78"/>
<polygon fill="#63b8ff" stroke="#63b8ff" points="522.71,-185.96 530.65,-178.95 520.07,-179.48 522.71,-185.96"/>
</a>
</g>
</g>
<!-- Node9&#45;&gt;Node14 -->
<g id="edge13_Node000009_Node000014" class="edge">
<title>Node9&#45;&gt;Node14</title>
<g id="a_edge13_Node000009_Node000014"><a xlink:title=" ">
<path fill="none" stroke="#63b8ff" d="M248.7,-238.95C268.48,-227.3 297.25,-211.51 324,-201.16 330.32,-198.71 337.06,-196.49 343.8,-194.49"/>
<polygon fill="#63b8ff" stroke="#63b8ff" points="344.95,-197.8 353.64,-191.73 343.06,-191.06 344.95,-197.8"/>
</a>
</g>
</g>
<!-- Node9&#45;&gt;Node15 -->
<g id="edge14_Node000009_Node000015" class="edge">
<title>Node9&#45;&gt;Node15</title>
<g id="a_edge14_Node000009_Node000015"><a xlink:title=" ">
<path fill="none" stroke="#63b8ff" d="M281.46,-267.7C302.89,-272.75 327.05,-278.44 347.78,-283.32"/>
<polygon fill="#63b8ff" stroke="#63b8ff" points="347.12,-286.76 357.66,-285.65 348.73,-279.95 347.12,-286.76"/>
</a>
</g>
</g>
<!-- Node9&#45;&gt;Node18 -->
<g id="edge18_Node000009_Node000018" class="edge">
<title>Node9&#45;&gt;Node18</title>
<g id="a_edge18_Node000009_Node000018"><a xlink:title=" ">
<path fill="none" stroke="#63b8ff" d="M236.21,-239.08C253.55,-218.69 287.31,-182.65 324,-163.16 327.51,-161.29 331.22,-159.61 335.03,-158.11"/>
<polygon fill="#63b8ff" stroke="#63b8ff" points="336.39,-161.34 344.66,-154.71 334.06,-154.74 336.39,-161.34"/>
</a>
</g>
</g>
<!-- Node19 -->
<g id="Node000019" class="node">
<title>Node19</title>
<g id="a_Node000019"><a xlink:href="classdetail_1_1bigint.html#a15833eda9c0cc326a77b0a37ac208a20" target="_top" xlink:title=" ">
<polygon fill="white" stroke="#666666" points="457.5,-341.66 340.5,-341.66 340.5,-322.66 457.5,-322.66 457.5,-341.66"/>
<text text-anchor="middle" x="399" y="-329.66" font-family="Helvetica,sans-Serif" font-size="10.00">detail::bigint::square</text>
</a>
</g>
</g>
<!-- Node9&#45;&gt;Node19 -->
<g id="edge19_Node000009_Node000019" class="edge">
<title>Node9&#45;&gt;Node19</title>
<g id="a_edge19_Node000009_Node000019"><a xlink:title=" ">
<path fill="none" stroke="#63b8ff" d="M244.86,-269.24C264.43,-282.76 294.97,-302.24 324,-314.16 329.05,-316.23 334.39,-318.1 339.8,-319.78"/>
<polygon fill="#63b8ff" stroke="#63b8ff" points="338.98,-323.19 349.56,-322.61 340.93,-316.46 338.98,-323.19"/>
</a>
</g>
</g>
<!-- Node11 -->
<g id="Node000011" class="node">
<title>Node11</title>
<g id="a_Node000011"><a xlink:href="namespacedetail.html#ad00fda1ba244e2bc2ee99476eb1d57a0" target="_top" xlink:title=" ">
<polygon fill="white" stroke="#666666" points="632,-57.16 525,-57.16 525,-27.16 632,-27.16 632,-57.16"/>
<text text-anchor="start" x="533" y="-45.16" font-family="Helvetica,sans-Serif" font-size="10.00">detail::countl_zero</text>
<text text-anchor="middle" x="578.5" y="-34.16" font-family="Helvetica,sans-Serif" font-size="10.00">_fallback</text>
</a>
</g>
</g>
<!-- Node10&#45;&gt;Node11 -->
<g id="edge10_Node000010_Node000011" class="edge">
<title>Node10&#45;&gt;Node11</title>
<g id="a_edge10_Node000010_Node000011"><a xlink:title=" ">
<path fill="none" stroke="#63b8ff" d="M452.61,-213.82C460.54,-211.03 468.05,-206.98 474,-201.16 518.39,-157.73 467.91,-111.81 510,-66.16 511.98,-64.01 514.16,-62.06 516.49,-60.28"/>
<polygon fill="#63b8ff" stroke="#63b8ff" points="518.38,-63.23 524.91,-54.89 514.6,-57.34 518.38,-63.23"/>
</a>
</g>
</g>
<!-- Node12 -->
<g id="Node000012" class="node">
<title>Node12</title>
<g id="a_Node000012"><a xlink:href="namespacedetail.html#a75ed2634319883d038944529dbb954e2" target="_top" xlink:title=" ">
<polygon fill="white" stroke="#666666" points="631.5,-105.16 525.5,-105.16 525.5,-75.16 631.5,-75.16 631.5,-105.16"/>
<text text-anchor="start" x="533.5" y="-93.16" font-family="Helvetica,sans-Serif" font-size="10.00">detail::is_constant</text>
<text text-anchor="middle" x="578.5" y="-82.16" font-family="Helvetica,sans-Serif" font-size="10.00">_evaluated</text>
</a>
</g>
</g>
<!-- Node10&#45;&gt;Node12 -->
<g id="edge11_Node000010_Node000012" class="edge">
<title>Node10&#45;&gt;Node12</title>
<g id="a_edge11_Node000010_Node000012"><a xlink:title=" ">
<path fill="none" stroke="#63b8ff" d="M452.74,-212.87C460.47,-210.17 467.88,-206.4 474,-201.16 505.77,-173.93 479.67,-142.99 510,-114.16 512.11,-112.15 514.4,-110.31 516.82,-108.62"/>
<polygon fill="#63b8ff" stroke="#63b8ff" points="518.69,-111.58 525.47,-103.45 515.1,-105.57 518.69,-111.58"/>
</a>
</g>
</g>
<!-- Node15&#45;&gt;Node8 -->
<g id="edge17_Node000015_Node000008" class="edge">
<title>Node15&#45;&gt;Node8</title>
<g id="a_edge17_Node000015_Node000008"><a xlink:title=" ">
<path fill="none" stroke="#63b8ff" d="M474.19,-295.96C526.89,-299.97 596.9,-312.63 647,-349.16 672.75,-367.93 661.18,-387.94 683,-411.16 692.24,-420.99 704.34,-429.64 715.25,-436.35"/>
<polygon fill="#63b8ff" stroke="#63b8ff" points="713.66,-439.47 724.05,-441.52 717.2,-433.44 713.66,-439.47"/>
</a>
</g>
</g>
<!-- Node15&#45;&gt;Node16 -->
<g id="edge15_Node000015_Node000016" class="edge">
<title>Node15&#45;&gt;Node16</title>
<g id="a_edge15_Node000015_Node000016"><a xlink:title=" ">
<path fill="none" stroke="#63b8ff" d="M417.07,-285.63C433.58,-275.66 458.33,-258.63 474,-238.16 499.44,-204.93 478.53,-178.73 510,-151.16 511.35,-149.98 512.77,-148.87 514.24,-147.84"/>
<polygon fill="#63b8ff" stroke="#63b8ff" points="516.3,-150.69 523.22,-142.67 512.81,-144.62 516.3,-150.69"/>
</a>
</g>
</g>
<!-- Node17 -->
<g id="Node000017" class="node">
<title>Node17</title>
<g id="a_Node000017"><a xlink:href="classdetail_1_1buffer.html#a91bcecc177b01b84d693028111fbd8eb" target="_top" xlink:title=" ">
<polygon fill="white" stroke="#666666" points="793,-97.16 695,-97.16 695,-67.16 793,-67.16 793,-97.16"/>
<text text-anchor="start" x="703" y="-85.16" font-family="Helvetica,sans-Serif" font-size="10.00">detail::buffer::try</text>
<text text-anchor="middle" x="744" y="-74.16" font-family="Helvetica,sans-Serif" font-size="10.00">_reserve</text>
</a>
</g>
</g>
<!-- Node16&#45;&gt;Node17 -->
<g id="edge16_Node000016_Node000017" class="edge">
<title>Node16&#45;&gt;Node17</title>
<g id="a_edge16_Node000016_Node000017"><a xlink:title=" ">
<path fill="none" stroke="#63b8ff" d="M614.63,-123.61C625.07,-120.68 636.53,-117.37 647,-114.16 660.78,-109.92 675.6,-105.11 689.36,-100.53"/>
<polygon fill="#63b8ff" stroke="#63b8ff" points="690.8,-103.74 699.17,-97.25 688.58,-97.11 690.8,-103.74"/>
</a>
</g>
</g>
<!-- Node19&#45;&gt;Node7 -->
<g id="edge32_Node000019_Node000007" class="edge">
<title>Node19&#45;&gt;Node7</title>
<g id="a_edge32_Node000019_Node000007"><a xlink:title=" ">
<path fill="none" stroke="#63b8ff" d="M404.6,-341.94C417.37,-367.98 455.89,-439.43 510,-475.16 558.73,-507.33 623.73,-522.26 672.69,-529.18"/>
<polygon fill="#63b8ff" stroke="#63b8ff" points="672.51,-532.69 682.88,-530.54 673.43,-525.75 672.51,-532.69"/>
</a>
</g>
</g>
<!-- Node19&#45;&gt;Node8 -->
<g id="edge33_Node000019_Node000008" class="edge">
<title>Node19&#45;&gt;Node8</title>
<g id="a_edge33_Node000019_Node000008"><a xlink:title=" ">
<path fill="none" stroke="#63b8ff" d="M457.41,-341.67C508.45,-351.27 584.46,-368.38 647,-394.16 673.95,-405.26 702.37,-422.99 721.23,-435.73"/>
<polygon fill="#63b8ff" stroke="#63b8ff" points="719.44,-438.75 729.67,-441.53 723.41,-432.98 719.44,-438.75"/>
</a>
</g>
</g>
<!-- Node19&#45;&gt;Node13 -->
<g id="edge27_Node000019_Node000013" class="edge">
<title>Node19&#45;&gt;Node13</title>
<g id="a_edge27_Node000019_Node000013"><a xlink:title=" ">
<path fill="none" stroke="#63b8ff" d="M457.73,-324.68C463.73,-322.07 469.32,-318.64 474,-314.16 515.73,-274.14 469,-229.91 510,-189.16 513.43,-185.74 517.43,-182.93 521.73,-180.62"/>
<polygon fill="#63b8ff" stroke="#63b8ff" points="523.2,-183.8 530.91,-176.53 520.35,-177.4 523.2,-183.8"/>
</a>
</g>
</g>
<!-- Node20 -->
<g id="Node000020" class="node">
<title>Node20</title>
<g id="a_Node000020"><a xlink:href="classbasic__memory__buffer.html#ade18cff12fc914085665a07af2e8fb7b" target="_top" xlink:title=" ">
<polygon fill="white" stroke="#666666" points="642.5,-228.16 514.5,-228.16 514.5,-198.16 642.5,-198.16 642.5,-228.16"/>
<text text-anchor="start" x="522.5" y="-216.16" font-family="Helvetica,sans-Serif" font-size="10.00">basic_memory_buffer</text>
<text text-anchor="middle" x="578.5" y="-205.16" font-family="Helvetica,sans-Serif" font-size="10.00">::basic_memory_buffer</text>
</a>
</g>
</g>
<!-- Node19&#45;&gt;Node20 -->
<g id="edge20_Node000019_Node000020" class="edge">
<title>Node19&#45;&gt;Node20</title>
<g id="a_edge20_Node000019_Node000020"><a xlink:title=" ">
<path fill="none" stroke="#63b8ff" d="M457.72,-323.5C463.57,-321.09 469.14,-318.03 474,-314.16 501.98,-291.86 483.98,-266.71 510,-242.16 513.52,-238.83 517.49,-235.85 521.69,-233.19"/>
<polygon fill="#63b8ff" stroke="#63b8ff" points="523.58,-236.14 530.56,-228.17 520.14,-230.05 523.58,-236.14"/>
</a>
</g>
</g>
<!-- Node27 -->
<g id="Node000027" class="node">
<title>Node27</title>
<g id="a_Node000027"><a xlink:href="classdetail_1_1bigint.html#ae750f01e552f13e9f3e7001ac78163d1" target="_top" xlink:title=" ">
<polygon fill="white" stroke="#666666" points="639.5,-466.16 517.5,-466.16 517.5,-436.16 639.5,-436.16 639.5,-466.16"/>
<text text-anchor="start" x="525.5" y="-454.16" font-family="Helvetica,sans-Serif" font-size="10.00">detail::bigint::remove</text>
<text text-anchor="middle" x="578.5" y="-443.16" font-family="Helvetica,sans-Serif" font-size="10.00">_leading_zeros</text>
</a>
</g>
</g>
<!-- Node19&#45;&gt;Node27 -->
<g id="edge28_Node000019_Node000027" class="edge">
<title>Node19&#45;&gt;Node27</title>
<g id="a_edge28_Node000019_Node000027"><a xlink:title=" ">
<path fill="none" stroke="#63b8ff" d="M414.23,-341.69C442.83,-360.87 507.88,-404.48 546.69,-430.5"/>
<polygon fill="#63b8ff" stroke="#63b8ff" points="544.76,-433.42 555.02,-436.08 548.66,-427.61 544.76,-433.42"/>
</a>
</g>
</g>
<!-- Node19&#45;&gt;Node28 -->
<g id="edge34_Node000019_Node000028" class="edge">
<title>Node19&#45;&gt;Node28</title>
<g id="a_edge34_Node000019_Node000028"><a xlink:title=" ">
<path fill="none" stroke="#63b8ff" d="M457.61,-323.92C519.42,-315.96 613.26,-306.66 647,-318.16 679.82,-329.34 710.16,-356.78 727.62,-374.92"/>
<polygon fill="#63b8ff" stroke="#63b8ff" points="725.31,-377.58 734.69,-382.51 730.43,-372.81 725.31,-377.58"/>
</a>
</g>
</g>
<!-- Node21 -->
<g id="Node000021" class="node">
<title>Node21</title>
<g id="a_Node000021"><a xlink:href="classbasic__memory__buffer.html#a97d9a0a0f9827c9277e2eea97fa0309b" target="_top" xlink:title=" ">
<polygon fill="white" stroke="#666666" points="805,-252.16 683,-252.16 683,-222.16 805,-222.16 805,-252.16"/>
<text text-anchor="start" x="691" y="-240.16" font-family="Helvetica,sans-Serif" font-size="10.00">basic_memory_buffer</text>
<text text-anchor="middle" x="744" y="-229.16" font-family="Helvetica,sans-Serif" font-size="10.00">::grow</text>
</a>
</g>
</g>
<!-- Node20&#45;&gt;Node21 -->
<g id="edge21_Node000020_Node000021" class="edge">
<title>Node20&#45;&gt;Node21</title>
<g id="a_edge21_Node000020_Node000021"><a xlink:title=" ">
<path fill="none" stroke="#63b8ff" d="M642.71,-222.44C652.62,-223.89 662.91,-225.4 672.96,-226.88"/>
<polygon fill="#63b8ff" stroke="#63b8ff" points="672.5,-230.35 682.91,-228.34 673.52,-223.42 672.5,-230.35"/>
</a>
</g>
</g>
<!-- Node26 -->
<g id="Node000026" class="node">
<title>Node26</title>
<g id="a_Node000026"><a xlink:href="classbasic__memory__buffer.html#ab453ecfd2d4b4b5cfdc4afa4e17c6a3a" target="_top" xlink:title=" ">
<polygon fill="white" stroke="#666666" points="805,-204.16 683,-204.16 683,-174.16 805,-174.16 805,-204.16"/>
<text text-anchor="start" x="691" y="-192.16" font-family="Helvetica,sans-Serif" font-size="10.00">basic_memory_buffer</text>
<text text-anchor="middle" x="744" y="-181.16" font-family="Helvetica,sans-Serif" font-size="10.00">::move</text>
</a>
</g>
</g>
<!-- Node20&#45;&gt;Node26 -->
<g id="edge26_Node000020_Node000026" class="edge">
<title>Node20&#45;&gt;Node26</title>
<g id="a_edge26_Node000020_Node000026"><a xlink:title=" ">
<path fill="none" stroke="#63b8ff" d="M642.71,-203.88C652.62,-202.42 662.91,-200.91 672.96,-199.44"/>
<polygon fill="#63b8ff" stroke="#63b8ff" points="673.52,-202.89 682.91,-197.98 672.5,-195.97 673.52,-202.89"/>
</a>
</g>
</g>
<!-- Node22 -->
<g id="Node000022" class="node">
<title>Node22</title>
<g id="a_Node000022"><a xlink:href="namespacedetail.html#a9d0b4b56d52390d7c8a4be7baa5e2382" target="_top" xlink:title=" ">
<polygon fill="white" stroke="#666666" points="969,-283.66 841,-283.66 841,-264.66 969,-264.66 969,-283.66"/>
<text text-anchor="middle" x="905" y="-271.66" font-family="Helvetica,sans-Serif" font-size="10.00">detail::abort_fuzzing_if</text>
</a>
</g>
</g>
<!-- Node21&#45;&gt;Node22 -->
<g id="edge22_Node000021_Node000022" class="edge">
<title>Node21&#45;&gt;Node22</title>
<g id="a_edge22_Node000021_Node000022"><a xlink:title=" ">
<path fill="none" stroke="#63b8ff" d="M805.11,-251.14C820.98,-254.84 837.95,-258.79 853.27,-262.35"/>
<polygon fill="#63b8ff" stroke="#63b8ff" points="852.54,-265.78 863.07,-264.63 854.13,-258.96 852.54,-265.78"/>
</a>
</g>
</g>
<!-- Node24 -->
<g id="Node000024" class="node">
<title>Node24</title>
<g id="a_Node000024"><a xlink:href="namespacedetail.html#a208b54c1c61a9bce9df4531a657a0c64" target="_top" xlink:title=" ">
<polygon fill="white" stroke="#666666" points="949.5,-246.66 860.5,-246.66 860.5,-227.66 949.5,-227.66 949.5,-246.66"/>
<text text-anchor="middle" x="905" y="-234.66" font-family="Helvetica,sans-Serif" font-size="10.00">detail::assume</text>
</a>
</g>
</g>
<!-- Node21&#45;&gt;Node24 -->
<g id="edge24_Node000021_Node000024" class="edge">
<title>Node21&#45;&gt;Node24</title>
<g id="a_edge24_Node000021_Node000024"><a xlink:title=" ">
<path fill="none" stroke="#63b8ff" d="M805.11,-237.16C819.83,-237.16 835.49,-237.16 849.91,-237.16"/>
<polygon fill="#63b8ff" stroke="#63b8ff" points="850.16,-240.66 860.16,-237.16 850.16,-233.66 850.16,-240.66"/>
</a>
</g>
</g>
<!-- Node25 -->
<g id="Node000025" class="node">
<title>Node25</title>
<g id="a_Node000025"><a xlink:href="base_8h.html#a67ebc2a5b1748c4692931267cd6f89bf" target="_top" xlink:title=" ">
<polygon fill="white" stroke="#666666" points="931.5,-209.66 878.5,-209.66 878.5,-190.66 931.5,-190.66 931.5,-209.66"/>
<text text-anchor="middle" x="905" y="-197.66" font-family="Helvetica,sans-Serif" font-size="10.00">max_of</text>
</a>
</g>
</g>
<!-- Node21&#45;&gt;Node25 -->
<g id="edge25_Node000021_Node000025" class="edge">
<title>Node21&#45;&gt;Node25</title>
<g id="a_edge25_Node000021_Node000025"><a xlink:title=" ">
<path fill="none" stroke="#63b8ff" d="M805.11,-223.17C826.48,-218.2 849.84,-212.76 868.49,-208.42"/>
<polygon fill="#63b8ff" stroke="#63b8ff" points="869.37,-211.81 878.32,-206.13 867.79,-204.99 869.37,-211.81"/>
</a>
</g>
</g>
<!-- Node23 -->
<g id="Node000023" class="node">
<title>Node23</title>
<g id="a_Node000023"><a xlink:href="namespacedetail.html#a1fe84ebaf96215ce0665d95b3124c2df" target="_top" xlink:title=" ">
<polygon fill="white" stroke="#666666" points="1127,-283.66 1005,-283.66 1005,-264.66 1127,-264.66 1127,-283.66"/>
<text text-anchor="middle" x="1066" y="-271.66" font-family="Helvetica,sans-Serif" font-size="10.00">detail::ignore_unused</text>
</a>
</g>
</g>
<!-- Node22&#45;&gt;Node23 -->
<g id="edge23_Node000022_Node000023" class="edge">
<title>Node22&#45;&gt;Node23</title>
<g id="a_edge23_Node000022_Node000023"><a xlink:title=" ">
<path fill="none" stroke="#63b8ff" d="M969.3,-274.16C977.61,-274.16 986.17,-274.16 994.59,-274.16"/>
<polygon fill="#63b8ff" stroke="#63b8ff" points="994.77,-277.66 1004.77,-274.16 994.77,-270.66 994.77,-277.66"/>
</a>
</g>
</g>
<!-- Node27&#45;&gt;Node7 -->
<g id="edge29_Node000027_Node000007" class="edge">
<title>Node27&#45;&gt;Node7</title>
<g id="a_edge29_Node000027_Node000007"><a xlink:title=" ">
<path fill="none" stroke="#63b8ff" d="M616.63,-466.21C626.6,-470.49 637.3,-475.31 647,-480.16 668.32,-490.8 691.52,-504.04 709.77,-514.86"/>
<polygon fill="#63b8ff" stroke="#63b8ff" points="708.18,-517.99 718.56,-520.12 711.77,-511.99 708.18,-517.99"/>
</a>
</g>
</g>
<!-- Node27&#45;&gt;Node8 -->
<g id="edge30_Node000027_Node000008" class="edge">
<title>Node27&#45;&gt;Node8</title>
<g id="a_edge30_Node000027_Node000008"><a xlink:title=" ">
<path fill="none" stroke="#63b8ff" d="M639.92,-451.16C653.54,-451.16 668.02,-451.16 681.69,-451.16"/>
<polygon fill="#63b8ff" stroke="#63b8ff" points="681.95,-454.66 691.95,-451.16 681.95,-447.66 681.95,-454.66"/>
</a>
</g>
</g>
<!-- Node27&#45;&gt;Node28 -->
<g id="edge31_Node000027_Node000028" class="edge">
<title>Node27&#45;&gt;Node28</title>
<g id="a_edge31_Node000027_Node000028"><a xlink:title=" ">
<path fill="none" stroke="#63b8ff" d="M621.18,-436.12C647.57,-426.59 681.37,-414.4 706.67,-405.27"/>
<polygon fill="#63b8ff" stroke="#63b8ff" points="708.04,-408.49 716.26,-401.81 705.66,-401.91 708.04,-408.49"/>
</a>
</g>
</g>
<!-- Node29&#45;&gt;Node8 -->
<g id="edge43_Node000029_Node000008" class="edge">
<title>Node29&#45;&gt;Node8</title>
<g id="a_edge43_Node000029_Node000008"><a xlink:title=" ">
<path fill="none" stroke="#63b8ff" d="M283.75,-442.6C365.88,-429.66 518.11,-411.29 647,-427.16 665.67,-429.46 685.94,-434.18 703.01,-438.83"/>
<polygon fill="#63b8ff" stroke="#63b8ff" points="702.09,-442.21 712.66,-441.55 703.98,-435.47 702.09,-442.21"/>
</a>
</g>
</g>
<!-- Node30 -->
<g id="Node000030" class="node">
<title>Node30</title>
<g id="a_Node000030"><a xlink:href="classdetail_1_1bigint.html#a05de3beb2b414dbfc0bbe16b5deba657" target="_top" xlink:title=" ">
<polygon fill="white" stroke="#666666" points="632.5,-627.66 524.5,-627.66 524.5,-608.66 632.5,-608.66 632.5,-627.66"/>
<text text-anchor="middle" x="578.5" y="-615.66" font-family="Helvetica,sans-Serif" font-size="10.00">detail::bigint::align</text>
</a>
</g>
</g>
<!-- Node29&#45;&gt;Node30 -->
<g id="edge37_Node000029_Node000030" class="edge">
<title>Node29&#45;&gt;Node30</title>
<g id="a_edge37_Node000029_Node000030"><a xlink:title=" ">
<path fill="none" stroke="#63b8ff" d="M246.09,-468.36C266,-481.74 296.31,-501.36 324,-516.16 403.83,-558.84 424.87,-568.37 510,-599.16 516.38,-601.47 523.19,-603.67 529.93,-605.71"/>
<polygon fill="#63b8ff" stroke="#63b8ff" points="529.12,-609.12 539.7,-608.56 531.09,-602.4 529.12,-609.12"/>
</a>
</g>
</g>
<!-- Node32 -->
<g id="Node000032" class="node">
<title>Node32</title>
<g id="a_Node000032"><a xlink:href="classdetail_1_1bigint.html#a4cc50c379f6ee3a9a7dc19c1a864ae4f" target="_top" xlink:title=" ">
<polygon fill="white" stroke="#666666" points="461,-507.16 337,-507.16 337,-477.16 461,-477.16 461,-507.16"/>
<text text-anchor="start" x="345" y="-495.16" font-family="Helvetica,sans-Serif" font-size="10.00">detail::bigint::subtract</text>
<text text-anchor="middle" x="399" y="-484.16" font-family="Helvetica,sans-Serif" font-size="10.00">_aligned</text>
</a>
</g>
</g>
<!-- Node29&#45;&gt;Node32 -->
<g id="edge44_Node000029_Node000032" class="edge">
<title>Node29&#45;&gt;Node32</title>
<g id="a_edge44_Node000029_Node000032"><a xlink:title=" ">
<path fill="none" stroke="#63b8ff" d="M283.88,-466.58C297.78,-469.69 312.7,-473.04 327.03,-476.25"/>
<polygon fill="#63b8ff" stroke="#63b8ff" points="326.3,-479.67 336.83,-478.45 327.83,-472.84 326.3,-479.67"/>
</a>
</g>
</g>
<!-- Node30&#45;&gt;Node6 -->
<g id="edge38_Node000030_Node000006" class="edge">
<title>Node30&#45;&gt;Node6</title>
<g id="a_edge38_Node000030_Node000006"><a xlink:title=" ">
<path fill="none" stroke="#63b8ff" d="M621.61,-627.69C642.69,-632.46 668.42,-638.28 690.76,-643.33"/>
<polygon fill="#63b8ff" stroke="#63b8ff" points="690.23,-646.8 700.75,-645.6 691.77,-639.98 690.23,-646.8"/>
</a>
</g>
</g>
<!-- Node30&#45;&gt;Node7 -->
<g id="edge40_Node000030_Node000007" class="edge">
<title>Node30&#45;&gt;Node7</title>
<g id="a_edge40_Node000030_Node000007"><a xlink:title=" ">
<path fill="none" stroke="#63b8ff" d="M621.29,-608.6C629.97,-606.01 638.93,-602.87 647,-599.16 671.93,-587.69 697.68,-570.16 716.22,-556.35"/>
<polygon fill="#63b8ff" stroke="#63b8ff" points="718.35,-559.13 724.21,-550.3 714.12,-553.55 718.35,-559.13"/>
</a>
</g>
</g>
<!-- Node30&#45;&gt;Node8 -->
<g id="edge41_Node000030_Node000008" class="edge">
<title>Node30&#45;&gt;Node8</title>
<g id="a_edge41_Node000030_Node000008"><a xlink:title=" ">
<path fill="none" stroke="#63b8ff" d="M632.13,-608.61C637.54,-606.15 642.64,-603.05 647,-599.16 678.53,-571.03 659.6,-546.34 683,-511.16 693.97,-494.65 709.98,-478.93 722.71,-467.72"/>
<polygon fill="#63b8ff" stroke="#63b8ff" points="725.19,-470.2 730.51,-461.04 720.63,-464.88 725.19,-470.2"/>
</a>
</g>
</g>
<!-- Node30&#45;&gt;Node28 -->
<g id="edge42_Node000030_Node000028" class="edge">
<title>Node30&#45;&gt;Node28</title>
<g id="a_edge42_Node000030_Node000028"><a xlink:title=" ">
<path fill="none" stroke="#63b8ff" d="M632.51,-609.5C637.92,-606.88 642.91,-603.5 647,-599.16 698.73,-544.18 640.85,-495.78 683,-433.16 690.38,-422.2 701.75,-413.35 712.62,-406.71"/>
<polygon fill="#63b8ff" stroke="#63b8ff" points="714.56,-409.64 721.54,-401.66 711.11,-403.54 714.56,-409.64"/>
</a>
</g>
</g>
<!-- Node31 -->
<g id="Node000031" class="node">
<title>Node31</title>
<g id="a_Node000031"><a xlink:href="namespacedetail.html#a818b390bd30ad25b638f7b067cb50f15" target="_top" xlink:title=" ">
<polygon fill="white" stroke="#666666" points="781,-627.66 707,-627.66 707,-608.66 781,-608.66 781,-627.66"/>
<text text-anchor="middle" x="744" y="-615.66" font-family="Helvetica,sans-Serif" font-size="10.00">detail::fill_n</text>
</a>
</g>
</g>
<!-- Node30&#45;&gt;Node31 -->
<g id="edge39_Node000030_Node000031" class="edge">
<title>Node30&#45;&gt;Node31</title>
<g id="a_edge39_Node000030_Node000031"><a xlink:title=" ">
<path fill="none" stroke="#63b8ff" d="M632.58,-618.16C653.31,-618.16 676.85,-618.16 696.85,-618.16"/>
<polygon fill="#63b8ff" stroke="#63b8ff" points="696.96,-621.66 706.96,-618.16 696.96,-614.66 696.96,-621.66"/>
</a>
</g>
</g>
<!-- Node32&#45;&gt;Node8 -->
<g id="edge46_Node000032_Node000008" class="edge">
<title>Node32&#45;&gt;Node8</title>
<g id="a_edge46_Node000032_Node000008"><a xlink:title=" ">
<path fill="none" stroke="#63b8ff" d="M461.24,-490.94C511.43,-489.22 584.17,-485.09 647,-475.16 664.85,-472.33 684.23,-467.78 700.88,-463.39"/>
<polygon fill="#63b8ff" stroke="#63b8ff" points="702.11,-466.69 710.85,-460.7 700.29,-459.93 702.11,-466.69"/>
</a>
</g>
</g>
<!-- Node32&#45;&gt;Node27 -->
<g id="edge45_Node000032_Node000027" class="edge">
<title>Node32&#45;&gt;Node27</title>
<g id="a_edge45_Node000032_Node000027"><a xlink:title=" ">
<path fill="none" stroke="#63b8ff" d="M461.09,-478.05C475.97,-474.61 492.02,-470.9 507.3,-467.37"/>
<polygon fill="#63b8ff" stroke="#63b8ff" points="508.25,-470.75 517.2,-465.08 506.67,-463.92 508.25,-470.75"/>
</a>
</g>
</g>
<!-- Node33 -->
<g id="Node000033" class="node">
<title>Node33</title>
<g id="a_Node000033"><a xlink:href="classdetail_1_1bigint.html#a58e6d906eab89170f8d83865302bb8cb" target="_top" xlink:title=" ">
<polygon fill="white" stroke="#666666" points="640.5,-590.16 516.5,-590.16 516.5,-560.16 640.5,-560.16 640.5,-590.16"/>
<text text-anchor="start" x="524.5" y="-578.16" font-family="Helvetica,sans-Serif" font-size="10.00">detail::bigint::subtract</text>
<text text-anchor="middle" x="578.5" y="-567.16" font-family="Helvetica,sans-Serif" font-size="10.00">_bigits</text>
</a>
</g>
</g>
<!-- Node32&#45;&gt;Node33 -->
<g id="edge47_Node000032_Node000033" class="edge">
<title>Node32&#45;&gt;Node33</title>
<g id="a_edge47_Node000032_Node000033"><a xlink:title=" ">
<path fill="none" stroke="#63b8ff" d="M429.68,-507.24C451.71,-518.3 482.55,-533.53 510,-546.16 517.17,-549.45 524.82,-552.85 532.29,-556.11"/>
<polygon fill="#63b8ff" stroke="#63b8ff" points="531.05,-559.39 541.62,-560.14 533.83,-552.96 531.05,-559.39"/>
</a>
</g>
</g>
<!-- Node34&#45;&gt;Node17 -->
<g id="edge55_Node000034_Node000017" class="edge">
<title>Node34&#45;&gt;Node17</title>
<g id="a_edge55_Node000034_Node000017"><a xlink:title=" ">
<path fill="none" stroke="#63b8ff" d="M272.17,-36.2C351.99,-13.86 515.87,21.55 647,-18.16 674.27,-26.41 700.86,-45.25 719.12,-60.36"/>
<polygon fill="#63b8ff" stroke="#63b8ff" points="717.02,-63.16 726.9,-66.99 721.56,-57.84 717.02,-63.16"/>
</a>
</g>
</g>
<!-- Node35 -->
<g id="Node000035" class="node">
<title>Node35</title>
<g id="a_Node000035"><a xlink:href="base_8h.html#a2e5592bf3509e2fc090fa0f329ee551f" target="_top" xlink:title=" ">
<polygon fill="white" stroke="#666666" points="424,-60.66 374,-60.66 374,-41.66 424,-41.66 424,-60.66"/>
<text text-anchor="middle" x="399" y="-48.66" font-family="Helvetica,sans-Serif" font-size="10.00">min_of</text>
</a>
</g>
</g>
<!-- Node34&#45;&gt;Node35 -->
<g id="edge54_Node000034_Node000035" class="edge">
<title>Node34&#45;&gt;Node35</title>
<g id="a_edge54_Node000034_Node000035"><a xlink:title=" ">
<path fill="none" stroke="#63b8ff" d="M272.01,-51.16C301.01,-51.16 337.29,-51.16 363.47,-51.16"/>
<polygon fill="#63b8ff" stroke="#63b8ff" points="363.66,-54.66 373.66,-51.16 363.66,-47.66 363.66,-54.66"/>
</a>
</g>
</g>
</g>
</svg>
