<?xml version="1.0" encoding="UTF-8" standalone="no"?>
<!DOCTYPE svg PUBLIC "-//W3C//DTD SVG 1.1//EN"
 "http://www.w3.org/Graphics/SVG/1.1/DTD/svg11.dtd">
<!-- Generated by graphviz version 2.43.0 (0)
 -->
<!-- Title: detail::write_nonfinite Pages: 1 -->
<svg width="459pt" height="101pt"
 viewBox="0.00 0.00 459.00 101.00" xmlns="http://www.w3.org/2000/svg" xmlns:xlink="http://www.w3.org/1999/xlink">
<g id="graph0" class="graph" transform="scale(1 1) rotate(0) translate(4 97)">
<title>detail::write_nonfinite</title>
<!-- Node1 -->
<g id="Node000001" class="node">
<title>Node1</title>
<g id="a_Node000001"><a xlink:title=" ">
<polygon fill="#999999" stroke="#666666" points="123,-56 0,-56 0,-37 123,-37 123,-56"/>
<text text-anchor="middle" x="61.5" y="-44" font-family="Helvetica,sans-Serif" font-size="10.00">detail::write_nonfinite</text>
</a>
</g>
</g>
<!-- Node2 -->
<g id="Node000002" class="node">
<title>Node2</title>
<g id="a_Node000002"><a xlink:href="classbasic__specs.html#af39b7e66ed078ea9d9fbfba08f11dc9d" target="_top" xlink:title=" ">
<polygon fill="white" stroke="#666666" points="277,-93 159,-93 159,-74 277,-74 277,-93"/>
<text text-anchor="middle" x="218" y="-81" font-family="Helvetica,sans-Serif" font-size="10.00">basic_specs::fill_size</text>
</a>
</g>
</g>
<!-- Node1&#45;&gt;Node2 -->
<g id="edge1_Node000001_Node000002" class="edge">
<title>Node1&#45;&gt;Node2</title>
<g id="a_edge1_Node000001_Node000002"><a xlink:title=" ">
<path fill="none" stroke="#63b8ff" d="M102.29,-56.03C122.12,-60.78 146.31,-66.57 167.35,-71.61"/>
<polygon fill="#63b8ff" stroke="#63b8ff" points="166.54,-75.01 177.08,-73.94 168.17,-68.21 166.54,-75.01"/>
</a>
</g>
</g>
<!-- Node3 -->
<g id="Node000003" class="node">
<title>Node3</title>
<g id="a_Node000003"><a xlink:href="classbasic__specs.html#a1600987fb39fed5dfdac21b218061a9e" target="_top" xlink:title=" ">
<polygon fill="white" stroke="#666666" points="274.5,-56 161.5,-56 161.5,-37 274.5,-37 274.5,-56"/>
<text text-anchor="middle" x="218" y="-44" font-family="Helvetica,sans-Serif" font-size="10.00">basic_specs::set_fill</text>
</a>
</g>
</g>
<!-- Node1&#45;&gt;Node3 -->
<g id="edge2_Node000001_Node000003" class="edge">
<title>Node1&#45;&gt;Node3</title>
<g id="a_edge2_Node000001_Node000003"><a xlink:title=" ">
<path fill="none" stroke="#63b8ff" d="M123.12,-46.5C132.21,-46.5 141.62,-46.5 150.82,-46.5"/>
<polygon fill="#63b8ff" stroke="#63b8ff" points="151.09,-50 161.09,-46.5 151.09,-43 151.09,-50"/>
</a>
</g>
</g>
<!-- Node5 -->
<g id="Node000005" class="node">
<title>Node5</title>
<g id="a_Node000005"><a xlink:href="classbasic__specs.html#a833c72e9e4eca49a0ed1dca7caf0ce5d" target="_top" xlink:title=" ">
<polygon fill="white" stroke="#666666" points="272.5,-19 163.5,-19 163.5,0 272.5,0 272.5,-19"/>
<text text-anchor="middle" x="218" y="-7" font-family="Helvetica,sans-Serif" font-size="10.00">basic_specs::upper</text>
</a>
</g>
</g>
<!-- Node1&#45;&gt;Node5 -->
<g id="edge4_Node000001_Node000005" class="edge">
<title>Node1&#45;&gt;Node5</title>
<g id="a_edge4_Node000001_Node000005"><a xlink:title=" ">
<path fill="none" stroke="#63b8ff" d="M102.29,-36.97C122.12,-32.22 146.31,-26.43 167.35,-21.39"/>
<polygon fill="#63b8ff" stroke="#63b8ff" points="168.17,-24.79 177.08,-19.06 166.54,-17.99 168.17,-24.79"/>
</a>
</g>
</g>
<!-- Node4 -->
<g id="Node000004" class="node">
<title>Node4</title>
<g id="a_Node000004"><a xlink:href="classbasic__specs.html#a4b36db5ad1e38169bd6653635d5e69cd" target="_top" xlink:title=" ">
<polygon fill="white" stroke="#666666" points="451,-56 313,-56 313,-37 451,-37 451,-56"/>
<text text-anchor="middle" x="382" y="-44" font-family="Helvetica,sans-Serif" font-size="10.00">basic_specs::set_fill_size</text>
</a>
</g>
</g>
<!-- Node3&#45;&gt;Node4 -->
<g id="edge3_Node000003_Node000004" class="edge">
<title>Node3&#45;&gt;Node4</title>
<g id="a_edge3_Node000003_Node000004"><a xlink:title=" ">
<path fill="none" stroke="#63b8ff" d="M274.75,-46.5C283.76,-46.5 293.23,-46.5 302.65,-46.5"/>
<polygon fill="#63b8ff" stroke="#63b8ff" points="302.83,-50 312.83,-46.5 302.83,-43 302.83,-50"/>
</a>
</g>
</g>
</g>
</svg>
