<?xml version="1.0" encoding="UTF-8" standalone="no"?>
<!DOCTYPE svg PUBLIC "-//W3C//DTD SVG 1.1//EN"
 "http://www.w3.org/Graphics/SVG/1.1/DTD/svg11.dtd">
<!-- Generated by graphviz version 2.43.0 (0)
 -->
<!-- Title: detail::get_classic_locale Pages: 1 -->
<svg width="270pt" height="134pt"
 viewBox="0.00 0.00 270.00 134.00" xmlns="http://www.w3.org/2000/svg" xmlns:xlink="http://www.w3.org/1999/xlink">
<g id="graph0" class="graph" transform="scale(1 1) rotate(0) translate(4 130)">
<title>detail::get_classic_locale</title>
<!-- Node1 -->
<g id="Node000001" class="node">
<title>Node1</title>
<g id="a_Node000001"><a xlink:title=" ">
<polygon fill="#999999" stroke="#666666" points="262,-78 158,-78 158,-48 262,-48 262,-78"/>
<text text-anchor="start" x="166" y="-66" font-family="Helvetica,sans-Serif" font-size="10.00">detail::get_classic</text>
<text text-anchor="middle" x="210" y="-55" font-family="Helvetica,sans-Serif" font-size="10.00">_locale</text>
</a>
</g>
</g>
<!-- Node2 -->
<g id="Node000002" class="node">
<title>Node2</title>
<g id="a_Node000002"><a xlink:href="classdetail_1_1get__locale.html#a8c98ad47cd7fa32f93f6496eca447da9" target="_top" xlink:title=" ">
<polygon fill="white" stroke="#666666" points="111.5,-126 10.5,-126 10.5,-96 111.5,-96 111.5,-126"/>
<text text-anchor="start" x="18.5" y="-114" font-family="Helvetica,sans-Serif" font-size="10.00">detail::get_locale</text>
<text text-anchor="middle" x="61" y="-103" font-family="Helvetica,sans-Serif" font-size="10.00">::locale &amp;</text>
</a>
</g>
</g>
<!-- Node1&#45;&gt;Node2 -->
<g id="edge1_Node000001_Node000002" class="edge">
<title>Node1&#45;&gt;Node2</title>
<g id="a_edge1_Node000001_Node000002"><a xlink:title=" ">
<path fill="none" stroke="#63b8ff" d="M153.24,-81.21C138.29,-86.09 122.3,-91.31 107.94,-96"/>
<polygon fill="#63b8ff" stroke="#63b8ff" points="154.47,-84.49 162.89,-78.06 152.3,-77.83 154.47,-84.49"/>
</a>
</g>
</g>
<!-- Node3 -->
<g id="Node000003" class="node">
<title>Node3</title>
<g id="a_Node000003"><a xlink:href="classdetail_1_1tm__writer.html#a468e515151e04c723067c698b9009c61" target="_top" xlink:title=" ">
<polygon fill="white" stroke="#666666" points="113,-78 9,-78 9,-48 113,-48 113,-78"/>
<text text-anchor="start" x="17" y="-66" font-family="Helvetica,sans-Serif" font-size="10.00">detail::tm_writer::</text>
<text text-anchor="middle" x="61" y="-55" font-family="Helvetica,sans-Serif" font-size="10.00">tm_writer</text>
</a>
</g>
</g>
<!-- Node1&#45;&gt;Node3 -->
<g id="edge2_Node000001_Node000003" class="edge">
<title>Node1&#45;&gt;Node3</title>
<g id="a_edge2_Node000001_Node000003"><a xlink:title=" ">
<path fill="none" stroke="#63b8ff" d="M147.68,-63C136.28,-63 124.47,-63 113.41,-63"/>
<polygon fill="#63b8ff" stroke="#63b8ff" points="148,-66.5 158,-63 148,-59.5 148,-66.5"/>
</a>
</g>
</g>
<!-- Node4 -->
<g id="Node000004" class="node">
<title>Node4</title>
<g id="a_Node000004"><a xlink:href="namespacedetail.html#a4ebaa6b5e722d7f4f43eeae307ed578e" target="_top" xlink:title=" ">
<polygon fill="white" stroke="#666666" points="122,-30 0,-30 0,0 122,0 122,-30"/>
<text text-anchor="start" x="8" y="-18" font-family="Helvetica,sans-Serif" font-size="10.00">detail::write_encoded</text>
<text text-anchor="middle" x="61" y="-7" font-family="Helvetica,sans-Serif" font-size="10.00">_tm_str</text>
</a>
</g>
</g>
<!-- Node1&#45;&gt;Node4 -->
<g id="edge3_Node000001_Node000004" class="edge">
<title>Node1&#45;&gt;Node4</title>
<g id="a_edge3_Node000001_Node000004"><a xlink:title=" ">
<path fill="none" stroke="#63b8ff" d="M153.24,-44.79C138.29,-39.91 122.3,-34.69 107.94,-30"/>
<polygon fill="#63b8ff" stroke="#63b8ff" points="152.3,-48.17 162.89,-47.94 154.47,-41.51 152.3,-48.17"/>
</a>
</g>
</g>
</g>
</svg>
