<?xml version="1.0" encoding="UTF-8" standalone="no"?>
<!DOCTYPE svg PUBLIC "-//W3C//DTD SVG 1.1//EN"
 "http://www.w3.org/Graphics/SVG/1.1/DTD/svg11.dtd">
<!-- Generated by graphviz version 2.43.0 (0)
 -->
<!-- Title: cxxopts::values::integer_parser Pages: 1 -->
<svg width="481pt" height="60pt"
 viewBox="0.00 0.00 481.00 60.00" xmlns="http://www.w3.org/2000/svg" xmlns:xlink="http://www.w3.org/1999/xlink">
<g id="graph0" class="graph" transform="scale(1 1) rotate(0) translate(4 56)">
<title>cxxopts::values::integer_parser</title>
<!-- Node1 -->
<g id="Node000001" class="node">
<title>Node1</title>
<g id="a_Node000001"><a xlink:title=" ">
<polygon fill="#999999" stroke="#666666" points="133,-30 0,-30 0,0 133,0 133,-30"/>
<text text-anchor="start" x="8" y="-18" font-family="Helvetica,sans-Serif" font-size="10.00">cxxopts::values::integer</text>
<text text-anchor="middle" x="66.5" y="-7" font-family="Helvetica,sans-Serif" font-size="10.00">_parser</text>
</a>
</g>
</g>
<!-- Node2 -->
<g id="Node000002" class="node">
<title>Node2</title>
<g id="a_Node000002"><a xlink:href="namespacecxxopts_1_1values_1_1parser__tool.html#a7912e06f8258eb2a618ba94a7ede46d4" target="_top" xlink:title=" ">
<polygon fill="white" stroke="#666666" points="298,-52 169,-52 169,-22 298,-22 298,-52"/>
<text text-anchor="start" x="177" y="-40" font-family="Helvetica,sans-Serif" font-size="10.00">cxxopts::values::parser</text>
<text text-anchor="middle" x="233.5" y="-29" font-family="Helvetica,sans-Serif" font-size="10.00">_tool::SplitInteger</text>
</a>
</g>
</g>
<!-- Node1&#45;&gt;Node2 -->
<g id="edge1_Node000001_Node000002" class="edge">
<title>Node1&#45;&gt;Node2</title>
<g id="a_edge1_Node000001_Node000002"><a xlink:title=" ">
<path fill="none" stroke="#63b8ff" d="M133.19,-23.76C141.65,-24.89 150.36,-26.05 158.93,-27.19"/>
<polygon fill="#63b8ff" stroke="#63b8ff" points="158.55,-30.67 168.92,-28.52 159.47,-23.73 158.55,-30.67"/>
</a>
</g>
</g>
<!-- Node3 -->
<g id="Node000003" class="node">
<title>Node3</title>
<g id="a_Node000003"><a xlink:href="namespacecxxopts.html#a466f47408560fa08e43bf48ec2366b22" target="_top" xlink:title=" ">
<polygon fill="white" stroke="#666666" points="473,-24.5 334,-24.5 334,-5.5 473,-5.5 473,-24.5"/>
<text text-anchor="middle" x="403.5" y="-12.5" font-family="Helvetica,sans-Serif" font-size="10.00">cxxopts::throw_or_mimic</text>
</a>
</g>
</g>
<!-- Node1&#45;&gt;Node3 -->
<g id="edge3_Node000001_Node000003" class="edge">
<title>Node1&#45;&gt;Node3</title>
<g id="a_edge3_Node000001_Node000003"><a xlink:title=" ">
<path fill="none" stroke="#63b8ff" d="M133.02,-13.52C144.99,-13.3 157.37,-13.11 169,-13 226.33,-12.44 240.67,-12.45 298,-13 306.35,-13.08 315.07,-13.2 323.76,-13.33"/>
<polygon fill="#63b8ff" stroke="#63b8ff" points="323.87,-16.83 333.92,-13.5 323.98,-9.83 323.87,-16.83"/>
</a>
</g>
</g>
<!-- Node2&#45;&gt;Node3 -->
<g id="edge2_Node000002_Node000003" class="edge">
<title>Node2&#45;&gt;Node3</title>
<g id="a_edge2_Node000002_Node000003"><a xlink:title=" ">
<path fill="none" stroke="#63b8ff" d="M298.01,-28.68C306.43,-27.58 315.14,-26.44 323.77,-25.31"/>
<polygon fill="#63b8ff" stroke="#63b8ff" points="324.39,-28.76 333.85,-23.99 323.48,-21.82 324.39,-28.76"/>
</a>
</g>
</g>
</g>
</svg>
