<?xml version="1.0" encoding="UTF-8" standalone="no"?>
<!DOCTYPE svg PUBLIC "-//W3C//DTD SVG 1.1//EN"
 "http://www.w3.org/Graphics/SVG/1.1/DTD/svg11.dtd">
<!-- Generated by graphviz version 2.43.0 (0)
 -->
<!-- Title: detail::parse_flags Pages: 1 -->
<svg width="449pt" height="175pt"
 viewBox="0.00 0.00 449.00 175.00" xmlns="http://www.w3.org/2000/svg" xmlns:xlink="http://www.w3.org/1999/xlink">
<g id="graph0" class="graph" transform="scale(1 1) rotate(0) translate(4 171)">
<title>detail::parse_flags</title>
<!-- Node1 -->
<g id="Node000001" class="node">
<title>Node1</title>
<g id="a_Node000001"><a xlink:title=" ">
<polygon fill="#999999" stroke="#666666" points="106,-93 0,-93 0,-74 106,-74 106,-93"/>
<text text-anchor="middle" x="53" y="-81" font-family="Helvetica,sans-Serif" font-size="10.00">detail::parse_flags</text>
</a>
</g>
</g>
<!-- Node2 -->
<g id="Node000002" class="node">
<title>Node2</title>
<g id="a_Node000002"><a xlink:href="classbasic__specs.html#ad73b6f854341aaabc744bf54e6ea6af6" target="_top" xlink:title=" ">
<polygon fill="white" stroke="#666666" points="267,-167 142,-167 142,-148 267,-148 267,-167"/>
<text text-anchor="middle" x="204.5" y="-155" font-family="Helvetica,sans-Serif" font-size="10.00">basic_specs::set_align</text>
</a>
</g>
</g>
<!-- Node1&#45;&gt;Node2 -->
<g id="edge1_Node000001_Node000002" class="edge">
<title>Node1&#45;&gt;Node2</title>
<g id="a_edge1_Node000001_Node000002"><a xlink:title=" ">
<path fill="none" stroke="#63b8ff" d="M66.47,-93.05C82.96,-105.29 113.3,-126.49 142,-139.5 146.16,-141.39 150.57,-143.13 155.03,-144.73"/>
<polygon fill="#63b8ff" stroke="#63b8ff" points="154.24,-148.16 164.84,-148 156.46,-141.51 154.24,-148.16"/>
</a>
</g>
</g>
<!-- Node3 -->
<g id="Node000003" class="node">
<title>Node3</title>
<g id="a_Node000003"><a xlink:href="classbasic__specs.html#a5f10314706a8a3d579f882f30d283b61" target="_top" xlink:title=" ">
<polygon fill="white" stroke="#666666" points="261.5,-130 147.5,-130 147.5,-111 261.5,-111 261.5,-130"/>
<text text-anchor="middle" x="204.5" y="-118" font-family="Helvetica,sans-Serif" font-size="10.00">basic_specs::set_alt</text>
</a>
</g>
</g>
<!-- Node1&#45;&gt;Node3 -->
<g id="edge2_Node000001_Node000003" class="edge">
<title>Node1&#45;&gt;Node3</title>
<g id="a_edge2_Node000001_Node000003"><a xlink:title=" ">
<path fill="none" stroke="#63b8ff" d="M92.5,-93.03C111.52,-97.74 134.67,-103.47 154.9,-108.47"/>
<polygon fill="#63b8ff" stroke="#63b8ff" points="154.32,-111.93 164.87,-110.94 156,-105.14 154.32,-111.93"/>
</a>
</g>
</g>
<!-- Node4 -->
<g id="Node000004" class="node">
<title>Node4</title>
<g id="a_Node000004"><a xlink:href="classbasic__specs.html#a1600987fb39fed5dfdac21b218061a9e" target="_top" xlink:title=" ">
<polygon fill="white" stroke="#666666" points="261,-93 148,-93 148,-74 261,-74 261,-93"/>
<text text-anchor="middle" x="204.5" y="-81" font-family="Helvetica,sans-Serif" font-size="10.00">basic_specs::set_fill</text>
</a>
</g>
</g>
<!-- Node1&#45;&gt;Node4 -->
<g id="edge3_Node000001_Node000004" class="edge">
<title>Node1&#45;&gt;Node4</title>
<g id="a_edge3_Node000001_Node000004"><a xlink:title=" ">
<path fill="none" stroke="#63b8ff" d="M106.29,-83.5C116.5,-83.5 127.32,-83.5 137.9,-83.5"/>
<polygon fill="#63b8ff" stroke="#63b8ff" points="137.94,-87 147.94,-83.5 137.94,-80 137.94,-87"/>
</a>
</g>
</g>
<!-- Node6 -->
<g id="Node000006" class="node">
<title>Node6</title>
<g id="a_Node000006"><a xlink:href="classbasic__specs.html#a7020ec66ba6918727e4102567c5c731a" target="_top" xlink:title=" ">
<polygon fill="white" stroke="#666666" points="265.5,-56 143.5,-56 143.5,-37 265.5,-37 265.5,-56"/>
<text text-anchor="middle" x="204.5" y="-44" font-family="Helvetica,sans-Serif" font-size="10.00">basic_specs::set_sign</text>
</a>
</g>
</g>
<!-- Node1&#45;&gt;Node6 -->
<g id="edge5_Node000001_Node000006" class="edge">
<title>Node1&#45;&gt;Node6</title>
<g id="a_edge5_Node000001_Node000006"><a xlink:title=" ">
<path fill="none" stroke="#63b8ff" d="M92.5,-73.97C111.52,-69.26 134.67,-63.53 154.9,-58.53"/>
<polygon fill="#63b8ff" stroke="#63b8ff" points="156,-61.86 164.87,-56.06 154.32,-55.07 156,-61.86"/>
</a>
</g>
</g>
<!-- Node7 -->
<g id="Node000007" class="node">
<title>Node7</title>
<g id="a_Node000007"><a xlink:href="classbasic__specs.html#a380e6ff33a8ae05e3ef479bf95696ad2" target="_top" xlink:title=" ">
<polygon fill="white" stroke="#666666" points="255,-19 154,-19 154,0 255,0 255,-19"/>
<text text-anchor="middle" x="204.5" y="-7" font-family="Helvetica,sans-Serif" font-size="10.00">basic_specs::sign</text>
</a>
</g>
</g>
<!-- Node1&#45;&gt;Node7 -->
<g id="edge6_Node000001_Node000007" class="edge">
<title>Node1&#45;&gt;Node7</title>
<g id="a_edge6_Node000001_Node000007"><a xlink:title=" ">
<path fill="none" stroke="#63b8ff" d="M66.81,-73.99C83.43,-62.03 113.66,-41.47 142,-28.5 146.95,-26.23 152.25,-24.14 157.58,-22.24"/>
<polygon fill="#63b8ff" stroke="#63b8ff" points="158.78,-25.53 167.14,-19.02 156.55,-18.89 158.78,-25.53"/>
</a>
</g>
</g>
<!-- Node5 -->
<g id="Node000005" class="node">
<title>Node5</title>
<g id="a_Node000005"><a xlink:href="classbasic__specs.html#a4b36db5ad1e38169bd6653635d5e69cd" target="_top" xlink:title=" ">
<polygon fill="white" stroke="#666666" points="441,-93 303,-93 303,-74 441,-74 441,-93"/>
<text text-anchor="middle" x="372" y="-81" font-family="Helvetica,sans-Serif" font-size="10.00">basic_specs::set_fill_size</text>
</a>
</g>
</g>
<!-- Node4&#45;&gt;Node5 -->
<g id="edge4_Node000004_Node000005" class="edge">
<title>Node4&#45;&gt;Node5</title>
<g id="a_edge4_Node000004_Node000005"><a xlink:title=" ">
<path fill="none" stroke="#63b8ff" d="M261.07,-83.5C271.25,-83.5 282.04,-83.5 292.73,-83.5"/>
<polygon fill="#63b8ff" stroke="#63b8ff" points="292.93,-87 302.93,-83.5 292.93,-80 292.93,-87"/>
</a>
</g>
</g>
</g>
</svg>
