<?xml version="1.0" encoding="UTF-8" standalone="no"?>
<!DOCTYPE svg PUBLIC "-//W3C//DTD SVG 1.1//EN"
 "http://www.w3.org/Graphics/SVG/1.1/DTD/svg11.dtd">
<!-- Generated by graphviz version 2.43.0 (0)
 -->
<!-- Title: detail::dragonbox::remove_trailing_zeros Pages: 1 -->
<svg width="273pt" height="64pt"
 viewBox="0.00 0.00 273.00 64.00" xmlns="http://www.w3.org/2000/svg" xmlns:xlink="http://www.w3.org/1999/xlink">
<g id="graph0" class="graph" transform="scale(1 1) rotate(0) translate(4 60)">
<title>detail::dragonbox::remove_trailing_zeros</title>
<!-- Node1 -->
<g id="Node000001" class="node">
<title>Node1</title>
<g id="a_Node000001"><a xlink:title=" ">
<polygon fill="#999999" stroke="#666666" points="125,-42.5 0,-42.5 0,-12.5 125,-12.5 125,-42.5"/>
<text text-anchor="start" x="8" y="-30.5" font-family="Helvetica,sans-Serif" font-size="10.00">detail::dragonbox::</text>
<text text-anchor="middle" x="62.5" y="-19.5" font-family="Helvetica,sans-Serif" font-size="10.00">remove_trailing_zeros</text>
</a>
</g>
</g>
<!-- Node2 -->
<g id="Node000002" class="node">
<title>Node2</title>
<g id="a_Node000002"><a xlink:href="namespacedetail.html#a45c2130c44ebe54179eafcee3cda2bfb" target="_top" xlink:title=" ">
<polygon fill="white" stroke="#666666" points="265,-56 161,-56 161,-37 265,-37 265,-56"/>
<text text-anchor="middle" x="213" y="-44" font-family="Helvetica,sans-Serif" font-size="10.00">detail::max_value</text>
</a>
</g>
</g>
<!-- Node1&#45;&gt;Node2 -->
<g id="edge1_Node000001_Node000002" class="edge">
<title>Node1&#45;&gt;Node2</title>
<g id="a_edge1_Node000001_Node000002"><a xlink:title=" ">
<path fill="none" stroke="#63b8ff" d="M125.19,-35.39C133.57,-36.47 142.18,-37.57 150.56,-38.64"/>
<polygon fill="#63b8ff" stroke="#63b8ff" points="150.27,-42.13 160.64,-39.93 151.16,-35.19 150.27,-42.13"/>
</a>
</g>
</g>
<!-- Node3 -->
<g id="Node000003" class="node">
<title>Node3</title>
<g id="a_Node000003"><a xlink:href="namespacedetail.html#a0206c9aa21660a7151d800474b0aba4f" target="_top" xlink:title=" ">
<polygon fill="white" stroke="#666666" points="247,-19 179,-19 179,0 247,0 247,-19"/>
<text text-anchor="middle" x="213" y="-7" font-family="Helvetica,sans-Serif" font-size="10.00">detail::rotr</text>
</a>
</g>
</g>
<!-- Node1&#45;&gt;Node3 -->
<g id="edge2_Node000001_Node000003" class="edge">
<title>Node1&#45;&gt;Node3</title>
<g id="a_edge2_Node000001_Node000003"><a xlink:title=" ">
<path fill="none" stroke="#63b8ff" d="M125.19,-20.02C139.79,-18.25 155.07,-16.4 168.66,-14.75"/>
<polygon fill="#63b8ff" stroke="#63b8ff" points="169.18,-18.22 178.68,-13.54 168.34,-11.27 169.18,-18.22"/>
</a>
</g>
</g>
</g>
</svg>
