<?xml version="1.0" encoding="UTF-8" standalone="no"?>
<!DOCTYPE svg PUBLIC "-//W3C//DTD SVG 1.1//EN"
 "http://www.w3.org/Graphics/SVG/1.1/DTD/svg11.dtd">
<!-- Generated by graphviz version 2.43.0 (0)
 -->
<!-- Title: detail::vformat_to Pages: 1 -->
<svg width="484pt" height="292pt"
 viewBox="0.00 0.00 484.00 292.00" xmlns="http://www.w3.org/2000/svg" xmlns:xlink="http://www.w3.org/1999/xlink">
<g id="graph0" class="graph" transform="scale(1 1) rotate(0) translate(4 288)">
<title>detail::vformat_to</title>
<!-- Node1 -->
<g id="Node000001" class="node">
<title>Node1</title>
<g id="a_Node000001"><a xlink:title=" ">
<polygon fill="#999999" stroke="#666666" points="104,-151 0,-151 0,-132 104,-132 104,-151"/>
<text text-anchor="middle" x="52" y="-139" font-family="Helvetica,sans-Serif" font-size="10.00">detail::vformat_to</text>
</a>
</g>
</g>
<!-- Node2 -->
<g id="Node000002" class="node">
<title>Node2</title>
<g id="a_Node000002"><a xlink:href="classtext__style.html#af76917d3bb69bc710dd92da079222a5b" target="_top" xlink:title=" ">
<polygon fill="white" stroke="#666666" points="289,-284 140,-284 140,-265 289,-265 289,-284"/>
<text text-anchor="middle" x="214.5" y="-272" font-family="Helvetica,sans-Serif" font-size="10.00">text_style::get_background</text>
</a>
</g>
</g>
<!-- Node1&#45;&gt;Node2 -->
<g id="edge1_Node000001_Node000002" class="edge">
<title>Node1&#45;&gt;Node2</title>
<g id="a_edge1_Node000001_Node000002"><a xlink:title=" ">
<path fill="none" stroke="#63b8ff" d="M58.13,-151.22C69.8,-172.41 100.41,-223.04 140,-250.5 146.14,-254.76 153.09,-258.3 160.2,-261.24"/>
<polygon fill="#63b8ff" stroke="#63b8ff" points="159.35,-264.66 169.94,-264.87 161.8,-258.1 159.35,-264.66"/>
</a>
</g>
</g>
<!-- Node3 -->
<g id="Node000003" class="node">
<title>Node3</title>
<g id="a_Node000003"><a xlink:href="classtext__style.html#a37356f14e6337463dbe1fc03c90c57c6" target="_top" xlink:title=" ">
<polygon fill="white" stroke="#666666" points="476,-265 325,-265 325,-246 476,-246 476,-265"/>
<text text-anchor="middle" x="400.5" y="-253" font-family="Helvetica,sans-Serif" font-size="10.00">text_style::has_background</text>
</a>
</g>
</g>
<!-- Node1&#45;&gt;Node3 -->
<g id="edge7_Node000001_Node000003" class="edge">
<title>Node1&#45;&gt;Node3</title>
<g id="a_edge7_Node000001_Node000003"><a xlink:title=" ">
<path fill="none" stroke="#63b8ff" d="M60.68,-151.13C74.56,-167.77 105.57,-201.64 140,-217.5 194.67,-242.68 262.07,-251.99 314.48,-255.1"/>
<polygon fill="#63b8ff" stroke="#63b8ff" points="314.58,-258.61 324.75,-255.65 314.95,-251.62 314.58,-258.61"/>
</a>
</g>
</g>
<!-- Node4 -->
<g id="Node000004" class="node">
<title>Node4</title>
<g id="a_Node000004"><a xlink:href="classtext__style.html#a3e2d1c622ff4c3a1855ac09214a21506" target="_top" xlink:title=" ">
<polygon fill="white" stroke="#666666" points="284.5,-208 144.5,-208 144.5,-189 284.5,-189 284.5,-208"/>
<text text-anchor="middle" x="214.5" y="-196" font-family="Helvetica,sans-Serif" font-size="10.00">text_style::get_emphasis</text>
</a>
</g>
</g>
<!-- Node1&#45;&gt;Node4 -->
<g id="edge3_Node000001_Node000004" class="edge">
<title>Node1&#45;&gt;Node4</title>
<g id="a_edge3_Node000001_Node000004"><a xlink:title=" ">
<path fill="none" stroke="#63b8ff" d="M77.26,-151.05C94.65,-157.81 118.67,-166.98 140,-174.5 150.76,-178.29 162.47,-182.21 173.33,-185.76"/>
<polygon fill="#63b8ff" stroke="#63b8ff" points="172.4,-189.14 183,-188.89 174.56,-182.48 172.4,-189.14"/>
</a>
</g>
</g>
<!-- Node5 -->
<g id="Node000005" class="node">
<title>Node5</title>
<g id="a_Node000005"><a xlink:href="classtext__style.html#abb81f43acce098a9bedef0113b84f20a" target="_top" xlink:title=" ">
<polygon fill="white" stroke="#666666" points="471,-189 330,-189 330,-170 471,-170 471,-189"/>
<text text-anchor="middle" x="400.5" y="-177" font-family="Helvetica,sans-Serif" font-size="10.00">text_style::has_emphasis</text>
</a>
</g>
</g>
<!-- Node1&#45;&gt;Node5 -->
<g id="edge8_Node000001_Node000005" class="edge">
<title>Node1&#45;&gt;Node5</title>
<g id="a_edge8_Node000001_Node000005"><a xlink:title=" ">
<path fill="none" stroke="#63b8ff" d="M104.13,-147.11C160.98,-153.34 253.53,-163.49 319.88,-170.77"/>
<polygon fill="#63b8ff" stroke="#63b8ff" points="319.56,-174.25 329.89,-171.87 320.33,-167.3 319.56,-174.25"/>
</a>
</g>
</g>
<!-- Node6 -->
<g id="Node000006" class="node">
<title>Node6</title>
<g id="a_Node000006"><a xlink:href="classtext__style.html#aa60e11871525f3f612ce1f6ed5a30477" target="_top" xlink:title=" ">
<polygon fill="white" stroke="#666666" points="287.5,-132 141.5,-132 141.5,-113 287.5,-113 287.5,-132"/>
<text text-anchor="middle" x="214.5" y="-120" font-family="Helvetica,sans-Serif" font-size="10.00">text_style::get_foreground</text>
</a>
</g>
</g>
<!-- Node1&#45;&gt;Node6 -->
<g id="edge5_Node000001_Node000006" class="edge">
<title>Node1&#45;&gt;Node6</title>
<g id="a_edge5_Node000001_Node000006"><a xlink:title=" ">
<path fill="none" stroke="#63b8ff" d="M104.22,-135.44C112.92,-134.41 122.13,-133.32 131.38,-132.22"/>
<polygon fill="#63b8ff" stroke="#63b8ff" points="131.89,-135.69 141.41,-131.03 131.06,-128.73 131.89,-135.69"/>
</a>
</g>
</g>
<!-- Node7 -->
<g id="Node000007" class="node">
<title>Node7</title>
<g id="a_Node000007"><a xlink:href="classtext__style.html#a8d91da8a0cb73c09af5f8fd521e39bce" target="_top" xlink:title=" ">
<polygon fill="white" stroke="#666666" points="474,-113 327,-113 327,-94 474,-94 474,-113"/>
<text text-anchor="middle" x="400.5" y="-101" font-family="Helvetica,sans-Serif" font-size="10.00">text_style::has_foreground</text>
</a>
</g>
</g>
<!-- Node1&#45;&gt;Node7 -->
<g id="edge9_Node000001_Node000007" class="edge">
<title>Node1&#45;&gt;Node7</title>
<g id="a_edge9_Node000001_Node000007"><a xlink:title=" ">
<path fill="none" stroke="#63b8ff" d="M70,-131.86C87.07,-122.76 114.44,-109.76 140,-104.5 198.23,-92.52 265.37,-92.62 316.77,-95.54"/>
<polygon fill="#63b8ff" stroke="#63b8ff" points="316.64,-99.03 326.84,-96.15 317.07,-92.05 316.64,-99.03"/>
</a>
</g>
</g>
<!-- Node8 -->
<g id="Node000008" class="node">
<title>Node8</title>
<g id="a_Node000008"><a xlink:href="classtext__style.html#a82e716be2bc7584ec2f7e4f0252f6570" target="_top" xlink:title=" ">
<polygon fill="white" stroke="#666666" points="277,-56 152,-56 152,-37 277,-37 277,-56"/>
<text text-anchor="middle" x="214.5" y="-44" font-family="Helvetica,sans-Serif" font-size="10.00">text_style::operator!=</text>
</a>
</g>
</g>
<!-- Node1&#45;&gt;Node8 -->
<g id="edge10_Node000001_Node000008" class="edge">
<title>Node1&#45;&gt;Node8</title>
<g id="a_edge10_Node000001_Node000008"><a xlink:title=" ">
<path fill="none" stroke="#63b8ff" d="M62.3,-131.89C77.35,-116.85 108.52,-87.7 140,-70.5 148.05,-66.1 157.03,-62.35 165.88,-59.2"/>
<polygon fill="#63b8ff" stroke="#63b8ff" points="167,-62.51 175.38,-56.02 164.78,-55.87 167,-62.51"/>
</a>
</g>
</g>
<!-- Node10 -->
<g id="Node000010" class="node">
<title>Node10</title>
<g id="a_Node000010"><a xlink:href="classtext__style.html#a5600bdfe6916b735a206cb8477b1a7ac" target="_top" xlink:title=" ">
<polygon fill="white" stroke="#666666" points="274.5,-19 154.5,-19 154.5,0 274.5,0 274.5,-19"/>
<text text-anchor="middle" x="214.5" y="-7" font-family="Helvetica,sans-Serif" font-size="10.00">text_style::text_style</text>
</a>
</g>
</g>
<!-- Node1&#45;&gt;Node10 -->
<g id="edge12_Node000001_Node000010" class="edge">
<title>Node1&#45;&gt;Node10</title>
<g id="a_edge12_Node000001_Node000010"><a xlink:title=" ">
<path fill="none" stroke="#63b8ff" d="M57.52,-131.77C68.38,-109.55 98.13,-54.91 140,-27.5 142.42,-25.91 144.97,-24.47 147.61,-23.15"/>
<polygon fill="#63b8ff" stroke="#63b8ff" points="149.07,-26.33 156.85,-19.14 146.29,-19.91 149.07,-26.33"/>
</a>
</g>
</g>
<!-- Node2&#45;&gt;Node3 -->
<g id="edge2_Node000002_Node000003" class="edge">
<title>Node2&#45;&gt;Node3</title>
<g id="a_edge2_Node000002_Node000003"><a xlink:title=" ">
<path fill="none" stroke="#63b8ff" d="M289.01,-266.91C297.5,-266.03 306.21,-265.13 314.84,-264.24"/>
<polygon fill="#63b8ff" stroke="#63b8ff" points="315.31,-267.71 324.9,-263.2 314.59,-260.75 315.31,-267.71"/>
</a>
</g>
</g>
<!-- Node4&#45;&gt;Node5 -->
<g id="edge4_Node000004_Node000005" class="edge">
<title>Node4&#45;&gt;Node5</title>
<g id="a_edge4_Node000004_Node000005"><a xlink:title=" ">
<path fill="none" stroke="#63b8ff" d="M284.54,-191.37C295.97,-190.19 307.92,-188.96 319.59,-187.75"/>
<polygon fill="#63b8ff" stroke="#63b8ff" points="320.18,-191.21 329.77,-186.7 319.46,-184.25 320.18,-191.21"/>
</a>
</g>
</g>
<!-- Node6&#45;&gt;Node7 -->
<g id="edge6_Node000006_Node000007" class="edge">
<title>Node6&#45;&gt;Node7</title>
<g id="a_edge6_Node000006_Node000007"><a xlink:title=" ">
<path fill="none" stroke="#63b8ff" d="M287.69,-115.05C297.26,-114.06 307.12,-113.04 316.85,-112.03"/>
<polygon fill="#63b8ff" stroke="#63b8ff" points="317.32,-115.5 326.91,-111 316.6,-108.54 317.32,-115.5"/>
</a>
</g>
</g>
<!-- Node9 -->
<g id="Node000009" class="node">
<title>Node9</title>
<g id="a_Node000009"><a xlink:href="classtext__style.html#afb24b984961acae797dcbd8d27bae7ee" target="_top" xlink:title=" ">
<polygon fill="white" stroke="#666666" points="465,-56 336,-56 336,-37 465,-37 465,-56"/>
<text text-anchor="middle" x="400.5" y="-44" font-family="Helvetica,sans-Serif" font-size="10.00">text_style::operator==</text>
</a>
</g>
</g>
<!-- Node8&#45;&gt;Node9 -->
<g id="edge11_Node000008_Node000009" class="edge">
<title>Node8&#45;&gt;Node9</title>
<g id="a_edge11_Node000008_Node000009"><a xlink:title=" ">
<path fill="none" stroke="#63b8ff" d="M277.03,-46.5C292.54,-46.5 309.35,-46.5 325.41,-46.5"/>
<polygon fill="#63b8ff" stroke="#63b8ff" points="325.83,-50 335.83,-46.5 325.83,-43 325.83,-50"/>
</a>
</g>
</g>
</g>
</svg>
