<?xml version="1.0" encoding="UTF-8" standalone="no"?>
<!DOCTYPE svg PUBLIC "-//W3C//DTD SVG 1.1//EN"
 "http://www.w3.org/Graphics/SVG/1.1/DTD/svg11.dtd">
<!-- Generated by graphviz version 2.43.0 (0)
 -->
<!-- Title: detail::max_value Pages: 1 -->
<svg width="664pt" height="781pt"
 viewBox="0.00 0.00 664.00 781.00" xmlns="http://www.w3.org/2000/svg" xmlns:xlink="http://www.w3.org/1999/xlink">
<g id="graph0" class="graph" transform="scale(1 1) rotate(0) translate(4 777)">
<title>detail::max_value</title>
<!-- Node1 -->
<g id="Node000001" class="node">
<title>Node1</title>
<g id="a_Node000001"><a xlink:title=" ">
<polygon fill="#999999" stroke="#666666" points="656,-505 552,-505 552,-486 656,-486 656,-505"/>
<text text-anchor="middle" x="604" y="-493" font-family="Helvetica,sans-Serif" font-size="10.00">detail::max_value</text>
</a>
</g>
</g>
<!-- Node2 -->
<g id="Node000002" class="node">
<title>Node2</title>
<g id="a_Node000002"><a xlink:href="namespacedetail.html#a44758fbcb25a6fc3967fdc79e987fb93" target="_top" xlink:title=" ">
<polygon fill="white" stroke="#666666" points="502,-754 372,-754 372,-735 502,-735 502,-754"/>
<text text-anchor="middle" x="437" y="-742" font-family="Helvetica,sans-Serif" font-size="10.00">detail::adjust_precision</text>
</a>
</g>
</g>
<!-- Node1&#45;&gt;Node2 -->
<g id="edge1_Node000001_Node000002" class="edge">
<title>Node1&#45;&gt;Node2</title>
<g id="a_edge1_Node000001_Node000002"><a xlink:title=" ">
<path fill="none" stroke="#63b8ff" d="M601.55,-515.22C597.18,-559.78 580.14,-668.79 516,-725.5 511.61,-729.38 506.57,-732.49 501.2,-735"/>
<polygon fill="#63b8ff" stroke="#63b8ff" points="605.05,-515.39 602.43,-505.12 598.07,-514.78 605.05,-515.39"/>
</a>
</g>
</g>
<!-- Node5 -->
<g id="Node000005" class="node">
<title>Node5</title>
<g id="a_Node000005"><a xlink:href="structdetail_1_1allocator.html#a09919f8eb540810bbb2c78b7620d8214" target="_top" xlink:title=" ">
<polygon fill="white" stroke="#666666" points="486.5,-716.5 387.5,-716.5 387.5,-686.5 486.5,-686.5 486.5,-716.5"/>
<text text-anchor="start" x="395.5" y="-704.5" font-family="Helvetica,sans-Serif" font-size="10.00">detail::allocator::</text>
<text text-anchor="middle" x="437" y="-693.5" font-family="Helvetica,sans-Serif" font-size="10.00">allocate</text>
</a>
</g>
</g>
<!-- Node1&#45;&gt;Node5 -->
<g id="edge5_Node000001_Node000005" class="edge">
<title>Node1&#45;&gt;Node5</title>
<g id="a_edge5_Node000001_Node000005"><a xlink:title=" ">
<path fill="none" stroke="#63b8ff" d="M599.09,-515.1C590.65,-552.3 567.19,-633.35 516,-677.5 507.63,-684.72 497.12,-689.77 486.55,-693.29"/>
<polygon fill="#63b8ff" stroke="#63b8ff" points="602.57,-515.57 601.24,-505.06 595.73,-514.1 602.57,-515.57"/>
</a>
</g>
</g>
<!-- Node6 -->
<g id="Node000006" class="node">
<title>Node6</title>
<g id="a_Node000006"><a xlink:href="structdetail_1_1int__checker.html#a605dead473e3d3ab58e77dd809be7acc" target="_top" xlink:title=" ">
<polygon fill="white" stroke="#666666" points="490,-668.5 384,-668.5 384,-638.5 490,-638.5 490,-668.5"/>
<text text-anchor="start" x="392" y="-656.5" font-family="Helvetica,sans-Serif" font-size="10.00">detail::int_checker</text>
<text text-anchor="middle" x="437" y="-645.5" font-family="Helvetica,sans-Serif" font-size="10.00">::fits_in_int</text>
</a>
</g>
</g>
<!-- Node1&#45;&gt;Node6 -->
<g id="edge6_Node000001_Node000006" class="edge">
<title>Node1&#45;&gt;Node6</title>
<g id="a_edge6_Node000001_Node000006"><a xlink:title=" ">
<path fill="none" stroke="#63b8ff" d="M595.61,-514.71C583.43,-543.84 556.42,-598.98 516,-629.5 508.42,-635.22 499.47,-639.59 490.38,-642.92"/>
<polygon fill="#63b8ff" stroke="#63b8ff" points="598.93,-515.84 599.42,-505.26 592.44,-513.22 598.93,-515.84"/>
</a>
</g>
</g>
<!-- Node7 -->
<g id="Node000007" class="node">
<title>Node7</title>
<g id="a_Node000007"><a xlink:href="structdetail_1_1int__checker_3_01true_01_4.html#af44fe904aba76be4c1fd04ee555c9c7d" target="_top" xlink:title=" ">
<polygon fill="white" stroke="#666666" points="493,-620.5 381,-620.5 381,-590.5 493,-590.5 493,-620.5"/>
<text text-anchor="start" x="389" y="-608.5" font-family="Helvetica,sans-Serif" font-size="10.00">detail::int_checker</text>
<text text-anchor="middle" x="437" y="-597.5" font-family="Helvetica,sans-Serif" font-size="10.00">&lt; true &gt;::fits_in_int</text>
</a>
</g>
</g>
<!-- Node1&#45;&gt;Node7 -->
<g id="edge7_Node000001_Node000007" class="edge">
<title>Node1&#45;&gt;Node7</title>
<g id="a_edge7_Node000001_Node000007"><a xlink:title=" ">
<path fill="none" stroke="#63b8ff" d="M589.66,-513.03C574.02,-532.43 546.35,-563.35 516,-581.5 508.95,-585.72 501.09,-589.26 493.15,-592.21"/>
<polygon fill="#63b8ff" stroke="#63b8ff" points="592.54,-515.04 595.97,-505.01 587.03,-510.71 592.54,-515.04"/>
</a>
</g>
</g>
<!-- Node8 -->
<g id="Node000008" class="node">
<title>Node8</title>
<g id="a_Node000008"><a xlink:href="namespacedetail.html#ac1d79c868f281cf669a044a2236f0e89" target="_top" xlink:title=" ">
<polygon fill="white" stroke="#666666" points="516,-572 358,-572 358,-553 516,-553 516,-572"/>
<text text-anchor="middle" x="437" y="-560" font-family="Helvetica,sans-Serif" font-size="10.00">detail::handle_dynamic_spec</text>
</a>
</g>
</g>
<!-- Node1&#45;&gt;Node8 -->
<g id="edge8_Node000001_Node000008" class="edge">
<title>Node1&#45;&gt;Node8</title>
<g id="a_edge8_Node000001_Node000008"><a xlink:title=" ">
<path fill="none" stroke="#63b8ff" d="M579.79,-510.53C562.72,-521.02 538.65,-534.68 516,-543.5 506.52,-547.19 496.1,-550.33 486.06,-552.92"/>
<polygon fill="#63b8ff" stroke="#63b8ff" points="581.88,-513.35 588.5,-505.08 578.17,-507.42 581.88,-513.35"/>
</a>
</g>
</g>
<!-- Node9 -->
<g id="Node000009" class="node">
<title>Node9</title>
<g id="a_Node000009"><a xlink:href="classdetail_1_1digit__grouping.html#abd1d32b1db7e21849b55dea24882a82a" target="_top" xlink:title=" ">
<polygon fill="white" stroke="#666666" points="497,-534.5 377,-534.5 377,-504.5 497,-504.5 497,-534.5"/>
<text text-anchor="start" x="385" y="-522.5" font-family="Helvetica,sans-Serif" font-size="10.00">detail::digit_grouping</text>
<text text-anchor="middle" x="437" y="-511.5" font-family="Helvetica,sans-Serif" font-size="10.00">::next</text>
</a>
</g>
</g>
<!-- Node1&#45;&gt;Node9 -->
<g id="edge9_Node000001_Node000009" class="edge">
<title>Node1&#45;&gt;Node9</title>
<g id="a_edge9_Node000001_Node000009"><a xlink:title=" ">
<path fill="none" stroke="#63b8ff" d="M541.76,-504.41C527.14,-506.53 511.57,-508.8 497.06,-510.91"/>
<polygon fill="#63b8ff" stroke="#63b8ff" points="542.31,-507.87 551.7,-502.96 541.3,-500.94 542.31,-507.87"/>
</a>
</g>
</g>
<!-- Node12 -->
<g id="Node000012" class="node">
<title>Node12</title>
<g id="a_Node000012"><a xlink:href="classdetail_1_1printf__width__handler.html#ae162f5f58b78a74741b038600efb038e" target="_top" xlink:title=" ">
<polygon fill="white" stroke="#666666" points="493.5,-486.5 380.5,-486.5 380.5,-456.5 493.5,-456.5 493.5,-486.5"/>
<text text-anchor="start" x="388.5" y="-474.5" font-family="Helvetica,sans-Serif" font-size="10.00">detail::printf_width</text>
<text text-anchor="middle" x="437" y="-463.5" font-family="Helvetica,sans-Serif" font-size="10.00">_handler::operator()</text>
</a>
</g>
</g>
<!-- Node1&#45;&gt;Node12 -->
<g id="edge12_Node000001_Node000012" class="edge">
<title>Node1&#45;&gt;Node12</title>
<g id="a_edge12_Node000001_Node000012"><a xlink:title=" ">
<path fill="none" stroke="#63b8ff" d="M541.54,-486.56C525.81,-484.27 508.99,-481.83 493.57,-479.58"/>
<polygon fill="#63b8ff" stroke="#63b8ff" points="541.3,-490.06 551.7,-488.04 542.31,-483.13 541.3,-490.06"/>
</a>
</g>
</g>
<!-- Node13 -->
<g id="Node000013" class="node">
<title>Node13</title>
<g id="a_Node000013"><a xlink:href="namespacedetail.html#afc9d93e58b8edb8077f8bc8eee7f4035" target="_top" xlink:title=" ">
<polygon fill="white" stroke="#666666" points="495,-438 379,-438 379,-419 495,-419 495,-438"/>
<text text-anchor="middle" x="437" y="-426" font-family="Helvetica,sans-Serif" font-size="10.00">detail::parse_header</text>
</a>
</g>
</g>
<!-- Node1&#45;&gt;Node13 -->
<g id="edge13_Node000001_Node000013" class="edge">
<title>Node1&#45;&gt;Node13</title>
<g id="a_edge13_Node000001_Node000013"><a xlink:title=" ">
<path fill="none" stroke="#63b8ff" d="M579.79,-480.47C562.72,-469.98 538.65,-456.32 516,-447.5 506.52,-443.81 496.1,-440.67 486.06,-438.08"/>
<polygon fill="#63b8ff" stroke="#63b8ff" points="578.17,-483.58 588.5,-485.92 581.88,-477.65 578.17,-483.58"/>
</a>
</g>
</g>
<!-- Node14 -->
<g id="Node000014" class="node">
<title>Node14</title>
<g id="a_Node000014"><a xlink:href="namespacedetail_1_1dragonbox.html#a45db9f63441e027d802a183c93accf14" target="_top" xlink:title=" ">
<polygon fill="white" stroke="#666666" points="499.5,-400.5 374.5,-400.5 374.5,-370.5 499.5,-370.5 499.5,-400.5"/>
<text text-anchor="start" x="382.5" y="-388.5" font-family="Helvetica,sans-Serif" font-size="10.00">detail::dragonbox::</text>
<text text-anchor="middle" x="437" y="-377.5" font-family="Helvetica,sans-Serif" font-size="10.00">remove_trailing_zeros</text>
</a>
</g>
</g>
<!-- Node1&#45;&gt;Node14 -->
<g id="edge14_Node000001_Node000014" class="edge">
<title>Node1&#45;&gt;Node14</title>
<g id="a_edge14_Node000001_Node000014"><a xlink:title=" ">
<path fill="none" stroke="#63b8ff" d="M589.33,-477.95C573.57,-458.82 545.96,-428.54 516,-410.5 509.67,-406.69 502.69,-403.39 495.58,-400.56"/>
<polygon fill="#63b8ff" stroke="#63b8ff" points="586.71,-480.27 595.7,-485.87 592.16,-475.88 586.71,-480.27"/>
</a>
</g>
</g>
<!-- Node15 -->
<g id="Node000015" class="node">
<title>Node15</title>
<g id="a_Node000015"><a xlink:href="namespacedetail_1_1dragonbox.html#a7ac3f2cd64d725e47df4d1725cfbbdf7" target="_top" xlink:title=" ">
<polygon fill="white" stroke="#666666" points="313,-429.5 188,-429.5 188,-399.5 313,-399.5 313,-429.5"/>
<text text-anchor="start" x="196" y="-417.5" font-family="Helvetica,sans-Serif" font-size="10.00">detail::dragonbox::</text>
<text text-anchor="middle" x="250.5" y="-406.5" font-family="Helvetica,sans-Serif" font-size="10.00">remove_trailing_zeros</text>
</a>
</g>
</g>
<!-- Node1&#45;&gt;Node15 -->
<g id="edge16_Node000001_Node000015" class="edge">
<title>Node1&#45;&gt;Node15</title>
<g id="a_edge16_Node000001_Node000015"><a xlink:title=" ">
<path fill="none" stroke="#63b8ff" d="M597.07,-476.03C586.49,-445.17 561.13,-386.01 516,-361.5 454.29,-327.99 424.22,-338.14 358,-361.5 338.62,-368.33 340,-380.59 322,-390.5 316,-393.8 309.46,-396.77 302.86,-399.39"/>
<polygon fill="#63b8ff" stroke="#63b8ff" points="593.78,-477.24 600.2,-485.66 600.44,-475.07 593.78,-477.24"/>
</a>
</g>
</g>
<!-- Node16 -->
<g id="Node000016" class="node">
<title>Node16</title>
<g id="a_Node000016"><a xlink:href="structdetail_1_1duration__formatter.html#a05833dd5c29a4b5991f31b3907f7c793" target="_top" xlink:title=" ">
<polygon fill="white" stroke="#666666" points="508.5,-285.5 365.5,-285.5 365.5,-255.5 508.5,-255.5 508.5,-285.5"/>
<text text-anchor="start" x="373.5" y="-273.5" font-family="Helvetica,sans-Serif" font-size="10.00">detail::duration_formatter</text>
<text text-anchor="middle" x="437" y="-262.5" font-family="Helvetica,sans-Serif" font-size="10.00">::write</text>
</a>
</g>
</g>
<!-- Node1&#45;&gt;Node16 -->
<g id="edge17_Node000001_Node000016" class="edge">
<title>Node1&#45;&gt;Node16</title>
<g id="a_edge17_Node000001_Node000016"><a xlink:title=" ">
<path fill="none" stroke="#63b8ff" d="M596.24,-476.19C584.03,-443.25 555.82,-375.22 516,-328.5 501.22,-311.16 480.34,-295.98 463.9,-285.5"/>
<polygon fill="#63b8ff" stroke="#63b8ff" points="593.07,-477.72 599.76,-485.94 599.66,-475.34 593.07,-477.72"/>
</a>
</g>
</g>
<!-- Node24 -->
<g id="Node000024" class="node">
<title>Node24</title>
<g id="a_Node000024"><a xlink:href="namespacedetail.html#ab774ebdb3565689cdc79ab10b0cb16ef" target="_top" xlink:title=" ">
<polygon fill="white" stroke="#666666" points="491.5,-75 382.5,-75 382.5,-56 491.5,-56 491.5,-75"/>
<text text-anchor="middle" x="437" y="-63" font-family="Helvetica,sans-Serif" font-size="10.00">detail::write_buffer</text>
</a>
</g>
</g>
<!-- Node1&#45;&gt;Node24 -->
<g id="edge26_Node000001_Node000024" class="edge">
<title>Node1&#45;&gt;Node24</title>
<g id="a_edge26_Node000001_Node000024"><a xlink:title=" ">
<path fill="none" stroke="#63b8ff" d="M596.75,-476.14C583.06,-434.03 548.96,-331.1 516,-246.5 490.16,-180.18 454.82,-102.14 442.47,-75.21"/>
<polygon fill="#63b8ff" stroke="#63b8ff" points="593.51,-477.48 599.92,-485.91 600.17,-475.32 593.51,-477.48"/>
</a>
</g>
</g>
<!-- Node3 -->
<g id="Node000003" class="node">
<title>Node3</title>
<g id="a_Node000003"><a xlink:href="namespacedetail.html#af3eae8fdebff07dc2edca668eaf2f8bd" target="_top" xlink:title=" ">
<polygon fill="white" stroke="#666666" points="311.5,-773 189.5,-773 189.5,-754 311.5,-754 311.5,-773"/>
<text text-anchor="middle" x="250.5" y="-761" font-family="Helvetica,sans-Serif" font-size="10.00">detail::format_dragon</text>
</a>
</g>
</g>
<!-- Node2&#45;&gt;Node3 -->
<g id="edge2_Node000002_Node000003" class="edge">
<title>Node2&#45;&gt;Node3</title>
<g id="a_edge2_Node000002_Node000003"><a xlink:title=" ">
<path fill="none" stroke="#63b8ff" d="M361.75,-752.15C345.11,-753.86 327.66,-755.66 311.68,-757.3"/>
<polygon fill="#63b8ff" stroke="#63b8ff" points="362.4,-755.6 371.99,-751.09 361.68,-748.63 362.4,-755.6"/>
</a>
</g>
</g>
<!-- Node4 -->
<g id="Node000004" class="node">
<title>Node4</title>
<g id="a_Node000004"><a xlink:href="namespacedetail.html#add861c358ea50b446b1a06080adb44ba" target="_top" xlink:title=" ">
<polygon fill="white" stroke="#666666" points="126.5,-754 16.5,-754 16.5,-735 126.5,-735 126.5,-754"/>
<text text-anchor="middle" x="71.5" y="-742" font-family="Helvetica,sans-Serif" font-size="10.00">detail::format_float</text>
</a>
</g>
</g>
<!-- Node2&#45;&gt;Node4 -->
<g id="edge4_Node000002_Node000004" class="edge">
<title>Node2&#45;&gt;Node4</title>
<g id="a_edge4_Node000002_Node000004"><a xlink:title=" ">
<path fill="none" stroke="#63b8ff" d="M361.79,-744.5C291.92,-744.5 188.93,-744.5 126.54,-744.5"/>
<polygon fill="#63b8ff" stroke="#63b8ff" points="361.85,-748 371.85,-744.5 361.85,-741 361.85,-748"/>
</a>
</g>
</g>
<!-- Node3&#45;&gt;Node4 -->
<g id="edge3_Node000003_Node000004" class="edge">
<title>Node3&#45;&gt;Node4</title>
<g id="a_edge3_Node000003_Node000004"><a xlink:title=" ">
<path fill="none" stroke="#63b8ff" d="M178.97,-755.93C161.57,-754.06 143.2,-752.09 126.71,-750.32"/>
<polygon fill="#63b8ff" stroke="#63b8ff" points="178.77,-759.43 189.08,-757.01 179.51,-752.47 178.77,-759.43"/>
</a>
</g>
</g>
<!-- Node10 -->
<g id="Node000010" class="node">
<title>Node10</title>
<g id="a_Node000010"><a xlink:href="classdetail_1_1digit__grouping.html#a0f6b16f6c24b8a79c3415aff8724e5b3" target="_top" xlink:title=" ">
<polygon fill="white" stroke="#666666" points="310.5,-558.5 190.5,-558.5 190.5,-528.5 310.5,-528.5 310.5,-558.5"/>
<text text-anchor="start" x="198.5" y="-546.5" font-family="Helvetica,sans-Serif" font-size="10.00">detail::digit_grouping</text>
<text text-anchor="middle" x="250.5" y="-535.5" font-family="Helvetica,sans-Serif" font-size="10.00">::apply</text>
</a>
</g>
</g>
<!-- Node9&#45;&gt;Node10 -->
<g id="edge10_Node000009_Node000010" class="edge">
<title>Node9&#45;&gt;Node10</title>
<g id="a_edge10_Node000009_Node000010"><a xlink:title=" ">
<path fill="none" stroke="#63b8ff" d="M366.75,-528.51C348.28,-530.91 328.49,-533.48 310.62,-535.81"/>
<polygon fill="#63b8ff" stroke="#63b8ff" points="367.4,-531.95 376.86,-527.19 366.49,-525.01 367.4,-531.95"/>
</a>
</g>
</g>
<!-- Node11 -->
<g id="Node000011" class="node">
<title>Node11</title>
<g id="a_Node000011"><a xlink:href="classdetail_1_1digit__grouping.html#ae83d5ca0e5978226865874f98b19c2b4" target="_top" xlink:title=" ">
<polygon fill="white" stroke="#666666" points="310.5,-510.5 190.5,-510.5 190.5,-480.5 310.5,-480.5 310.5,-510.5"/>
<text text-anchor="start" x="198.5" y="-498.5" font-family="Helvetica,sans-Serif" font-size="10.00">detail::digit_grouping</text>
<text text-anchor="middle" x="250.5" y="-487.5" font-family="Helvetica,sans-Serif" font-size="10.00">::count_separators</text>
</a>
</g>
</g>
<!-- Node9&#45;&gt;Node11 -->
<g id="edge11_Node000009_Node000011" class="edge">
<title>Node9&#45;&gt;Node11</title>
<g id="a_edge11_Node000009_Node000011"><a xlink:title=" ">
<path fill="none" stroke="#63b8ff" d="M366.75,-510.49C348.28,-508.09 328.49,-505.52 310.62,-503.19"/>
<polygon fill="#63b8ff" stroke="#63b8ff" points="366.49,-513.99 376.86,-511.81 367.4,-507.05 366.49,-513.99"/>
</a>
</g>
</g>
<!-- Node14&#45;&gt;Node15 -->
<g id="edge15_Node000014_Node000015" class="edge">
<title>Node14&#45;&gt;Node15</title>
<g id="a_edge15_Node000014_Node000015"><a xlink:title=" ">
<path fill="none" stroke="#63b8ff" d="M363.99,-396.82C347.19,-399.46 329.44,-402.25 313.13,-404.81"/>
<polygon fill="#63b8ff" stroke="#63b8ff" points="364.97,-400.21 374.31,-395.2 363.89,-393.29 364.97,-400.21"/>
</a>
</g>
</g>
<!-- Node17 -->
<g id="Node000017" class="node">
<title>Node17</title>
<g id="a_Node000017"><a xlink:href="structdetail_1_1duration__formatter.html#a826af0d208367e0816601e6fe710665d" target="_top" xlink:title=" ">
<polygon fill="white" stroke="#666666" points="322,-381.5 179,-381.5 179,-351.5 322,-351.5 322,-381.5"/>
<text text-anchor="start" x="187" y="-369.5" font-family="Helvetica,sans-Serif" font-size="10.00">detail::duration_formatter</text>
<text text-anchor="middle" x="250.5" y="-358.5" font-family="Helvetica,sans-Serif" font-size="10.00">::on_12_hour</text>
</a>
</g>
</g>
<!-- Node16&#45;&gt;Node17 -->
<g id="edge18_Node000016_Node000017" class="edge">
<title>Node16&#45;&gt;Node17</title>
<g id="a_edge18_Node000016_Node000017"><a xlink:title=" ">
<path fill="none" stroke="#63b8ff" d="M407.05,-291.47C384.64,-307.03 352.39,-327.98 322,-342.5 315.23,-345.73 307.91,-348.73 300.64,-351.44"/>
<polygon fill="#63b8ff" stroke="#63b8ff" points="409.26,-294.2 415.43,-285.59 405.23,-288.47 409.26,-294.2"/>
</a>
</g>
</g>
<!-- Node18 -->
<g id="Node000018" class="node">
<title>Node18</title>
<g id="a_Node000018"><a xlink:href="structdetail_1_1duration__formatter.html#ae0a16e2a89a6aaa61d36dc069d70421f" target="_top" xlink:title=" ">
<polygon fill="white" stroke="#666666" points="322,-333.5 179,-333.5 179,-303.5 322,-303.5 322,-333.5"/>
<text text-anchor="start" x="187" y="-321.5" font-family="Helvetica,sans-Serif" font-size="10.00">detail::duration_formatter</text>
<text text-anchor="middle" x="250.5" y="-310.5" font-family="Helvetica,sans-Serif" font-size="10.00">::on_24_hour</text>
</a>
</g>
</g>
<!-- Node16&#45;&gt;Node18 -->
<g id="edge19_Node000016_Node000018" class="edge">
<title>Node16&#45;&gt;Node18</title>
<g id="a_edge19_Node000016_Node000018"><a xlink:title=" ">
<path fill="none" stroke="#63b8ff" d="M368.43,-288.08C348.98,-293.14 327.95,-298.61 309.17,-303.5"/>
<polygon fill="#63b8ff" stroke="#63b8ff" points="369.33,-291.46 378.13,-285.56 367.57,-284.69 369.33,-291.46"/>
</a>
</g>
</g>
<!-- Node19 -->
<g id="Node000019" class="node">
<title>Node19</title>
<g id="a_Node000019"><a xlink:href="structdetail_1_1duration__formatter.html#a46f7670012d8edd7186c2961725c8894" target="_top" xlink:title=" ">
<polygon fill="white" stroke="#666666" points="322,-285.5 179,-285.5 179,-255.5 322,-255.5 322,-285.5"/>
<text text-anchor="start" x="187" y="-273.5" font-family="Helvetica,sans-Serif" font-size="10.00">detail::duration_formatter</text>
<text text-anchor="middle" x="250.5" y="-262.5" font-family="Helvetica,sans-Serif" font-size="10.00">::on_24_hour_time</text>
</a>
</g>
</g>
<!-- Node16&#45;&gt;Node19 -->
<g id="edge20_Node000016_Node000019" class="edge">
<title>Node16&#45;&gt;Node19</title>
<g id="a_edge20_Node000016_Node000019"><a xlink:title=" ">
<path fill="none" stroke="#63b8ff" d="M355.34,-270.5C344.24,-270.5 332.91,-270.5 322,-270.5"/>
<polygon fill="#63b8ff" stroke="#63b8ff" points="355.46,-274 365.46,-270.5 355.46,-267 355.46,-274"/>
</a>
</g>
</g>
<!-- Node21 -->
<g id="Node000021" class="node">
<title>Node21</title>
<g id="a_Node000021"><a xlink:href="structdetail_1_1duration__formatter.html#a27bb9bcca257513d9966428a0d705089" target="_top" xlink:title=" ">
<polygon fill="white" stroke="#666666" points="322,-237.5 179,-237.5 179,-207.5 322,-207.5 322,-237.5"/>
<text text-anchor="start" x="187" y="-225.5" font-family="Helvetica,sans-Serif" font-size="10.00">detail::duration_formatter</text>
<text text-anchor="middle" x="250.5" y="-214.5" font-family="Helvetica,sans-Serif" font-size="10.00">::on_day_of_year</text>
</a>
</g>
</g>
<!-- Node16&#45;&gt;Node21 -->
<g id="edge22_Node000016_Node000021" class="edge">
<title>Node16&#45;&gt;Node21</title>
<g id="a_edge22_Node000016_Node000021"><a xlink:title=" ">
<path fill="none" stroke="#63b8ff" d="M368.43,-252.92C348.98,-247.86 327.95,-242.39 309.17,-237.5"/>
<polygon fill="#63b8ff" stroke="#63b8ff" points="367.57,-256.31 378.13,-255.44 369.33,-249.54 367.57,-256.31"/>
</a>
</g>
</g>
<!-- Node22 -->
<g id="Node000022" class="node">
<title>Node22</title>
<g id="a_Node000022"><a xlink:href="structdetail_1_1duration__formatter.html#abe4a8e5797458144ae64f6c10ede01f1" target="_top" xlink:title=" ">
<polygon fill="white" stroke="#666666" points="322,-189.5 179,-189.5 179,-159.5 322,-159.5 322,-189.5"/>
<text text-anchor="start" x="187" y="-177.5" font-family="Helvetica,sans-Serif" font-size="10.00">detail::duration_formatter</text>
<text text-anchor="middle" x="250.5" y="-166.5" font-family="Helvetica,sans-Serif" font-size="10.00">::on_minute</text>
</a>
</g>
</g>
<!-- Node16&#45;&gt;Node22 -->
<g id="edge23_Node000016_Node000022" class="edge">
<title>Node16&#45;&gt;Node22</title>
<g id="a_edge23_Node000016_Node000022"><a xlink:title=" ">
<path fill="none" stroke="#63b8ff" d="M407.05,-249.53C384.64,-233.97 352.39,-213.02 322,-198.5 315.23,-195.27 307.91,-192.27 300.64,-189.56"/>
<polygon fill="#63b8ff" stroke="#63b8ff" points="405.23,-252.53 415.43,-255.41 409.26,-246.8 405.23,-252.53"/>
</a>
</g>
</g>
<!-- Node23 -->
<g id="Node000023" class="node">
<title>Node23</title>
<g id="a_Node000023"><a xlink:href="structdetail_1_1duration__formatter.html#a5eaa3651f2774bf273f23c4a6cb232a2" target="_top" xlink:title=" ">
<polygon fill="white" stroke="#666666" points="322,-141.5 179,-141.5 179,-111.5 322,-111.5 322,-141.5"/>
<text text-anchor="start" x="187" y="-129.5" font-family="Helvetica,sans-Serif" font-size="10.00">detail::duration_formatter</text>
<text text-anchor="middle" x="250.5" y="-118.5" font-family="Helvetica,sans-Serif" font-size="10.00">::on_second</text>
</a>
</g>
</g>
<!-- Node16&#45;&gt;Node23 -->
<g id="edge24_Node000016_Node000023" class="edge">
<title>Node16&#45;&gt;Node23</title>
<g id="a_edge24_Node000016_Node000023"><a xlink:title=" ">
<path fill="none" stroke="#63b8ff" d="M419.53,-247.29C399.37,-220.46 362.83,-176.65 322,-150.5 316.77,-147.15 311.03,-144.22 305.14,-141.66"/>
<polygon fill="#63b8ff" stroke="#63b8ff" points="416.73,-249.39 425.48,-255.36 422.36,-245.24 416.73,-249.39"/>
</a>
</g>
</g>
<!-- Node20 -->
<g id="Node000020" class="node">
<title>Node20</title>
<g id="a_Node000020"><a xlink:href="structdetail_1_1duration__formatter.html#a8044d0b686a0080acbb954da3cab168d" target="_top" xlink:title=" ">
<polygon fill="white" stroke="#666666" points="143,-213.5 0,-213.5 0,-183.5 143,-183.5 143,-213.5"/>
<text text-anchor="start" x="8" y="-201.5" font-family="Helvetica,sans-Serif" font-size="10.00">detail::duration_formatter</text>
<text text-anchor="middle" x="71.5" y="-190.5" font-family="Helvetica,sans-Serif" font-size="10.00">::on_iso_time</text>
</a>
</g>
</g>
<!-- Node19&#45;&gt;Node20 -->
<g id="edge21_Node000019_Node000020" class="edge">
<title>Node19&#45;&gt;Node20</title>
<g id="a_edge21_Node000019_Node000020"><a xlink:title=" ">
<path fill="none" stroke="#63b8ff" d="M193.52,-251.99C188.59,-250.19 183.69,-248.35 179,-246.5 153.34,-236.38 124.89,-223.46 103.85,-213.58"/>
<polygon fill="#63b8ff" stroke="#63b8ff" points="192.41,-255.31 203,-255.37 194.76,-248.72 192.41,-255.31"/>
</a>
</g>
</g>
<!-- Node23&#45;&gt;Node20 -->
<g id="edge25_Node000023_Node000020" class="edge">
<title>Node23&#45;&gt;Node20</title>
<g id="a_edge25_Node000023_Node000020"><a xlink:title=" ">
<path fill="none" stroke="#63b8ff" d="M193.52,-145.01C188.59,-146.81 183.69,-148.65 179,-150.5 153.34,-160.62 124.89,-173.54 103.85,-183.42"/>
<polygon fill="#63b8ff" stroke="#63b8ff" points="194.76,-148.28 203,-141.63 192.41,-141.69 194.76,-148.28"/>
</a>
</g>
</g>
<!-- Node25 -->
<g id="Node000025" class="node">
<title>Node25</title>
<g id="a_Node000025"><a xlink:href="ostream_8h.html#a3883cc4dedb6840173d3ca9699e7693c" target="_top" xlink:title=" ">
<polygon fill="white" stroke="#666666" points="270,-93 231,-93 231,-74 270,-74 270,-93"/>
<text text-anchor="middle" x="250.5" y="-81" font-family="Helvetica,sans-Serif" font-size="10.00">print</text>
</a>
</g>
</g>
<!-- Node24&#45;&gt;Node25 -->
<g id="edge27_Node000024_Node000025" class="edge">
<title>Node24&#45;&gt;Node25</title>
<g id="a_edge27_Node000024_Node000025"><a xlink:title=" ">
<path fill="none" stroke="#63b8ff" d="M371.76,-71.77C336.03,-75.25 294.11,-79.34 270.39,-81.66"/>
<polygon fill="#63b8ff" stroke="#63b8ff" points="372.53,-75.21 382.14,-70.75 371.85,-68.24 372.53,-75.21"/>
</a>
</g>
</g>
<!-- Node26 -->
<g id="Node000026" class="node">
<title>Node26</title>
<g id="a_Node000026"><a xlink:href="ostream_8h.html#a5a12ace2368ad2613bac4c16637a97ec" target="_top" xlink:title=" ">
<polygon fill="white" stroke="#666666" points="273,-56 228,-56 228,-37 273,-37 273,-56"/>
<text text-anchor="middle" x="250.5" y="-44" font-family="Helvetica,sans-Serif" font-size="10.00">vprint</text>
</a>
</g>
</g>
<!-- Node24&#45;&gt;Node26 -->
<g id="edge28_Node000024_Node000026" class="edge">
<title>Node24&#45;&gt;Node26</title>
<g id="a_edge28_Node000024_Node000026"><a xlink:title=" ">
<path fill="none" stroke="#63b8ff" d="M372.12,-58.92C337.64,-55.37 297.31,-51.22 273.11,-48.73"/>
<polygon fill="#63b8ff" stroke="#63b8ff" points="371.83,-62.41 382.14,-59.95 372.55,-55.45 371.83,-62.41"/>
</a>
</g>
</g>
<!-- Node27 -->
<g id="Node000027" class="node">
<title>Node27</title>
<g id="a_Node000027"><a xlink:href="xchar_8h.html#aae096773ff6c45b6cc1555e3bb92c3d3" target="_top" xlink:title=" ">
<polygon fill="white" stroke="#666666" points="273,-19 228,-19 228,0 273,0 273,-19"/>
<text text-anchor="middle" x="250.5" y="-7" font-family="Helvetica,sans-Serif" font-size="10.00">vprint</text>
</a>
</g>
</g>
<!-- Node24&#45;&gt;Node27 -->
<g id="edge29_Node000024_Node000027" class="edge">
<title>Node24&#45;&gt;Node27</title>
<g id="a_edge29_Node000024_Node000027"><a xlink:title=" ">
<path fill="none" stroke="#63b8ff" d="M399.29,-52.52C377.05,-44.84 348.04,-35.15 322,-27.5 305.76,-22.73 287.2,-18.02 273.21,-14.62"/>
<polygon fill="#63b8ff" stroke="#63b8ff" points="398.4,-55.91 408.99,-55.89 400.7,-49.3 398.4,-55.91"/>
</a>
</g>
</g>
</g>
</svg>
