<?xml version="1.0" encoding="UTF-8" standalone="no"?>
<!DOCTYPE svg PUBLIC "-//W3C//DTD SVG 1.1//EN"
 "http://www.w3.org/Graphics/SVG/1.1/DTD/svg11.dtd">
<!-- Generated by graphviz version 2.43.0 (0)
 -->
<!-- Title: detail::count_digits_fallback Pages: 1 -->
<svg width="941pt" height="436pt"
 viewBox="0.00 0.00 941.00 435.50" xmlns="http://www.w3.org/2000/svg" xmlns:xlink="http://www.w3.org/1999/xlink">
<g id="graph0" class="graph" transform="scale(1 1) rotate(0) translate(4 431.5)">
<title>detail::count_digits_fallback</title>
<!-- Node1 -->
<g id="Node000001" class="node">
<title>Node1</title>
<g id="a_Node000001"><a xlink:title=" ">
<polygon fill="#999999" stroke="#666666" points="933,-222 823,-222 823,-192 933,-192 933,-222"/>
<text text-anchor="start" x="831" y="-210" font-family="Helvetica,sans-Serif" font-size="10.00">detail::count_digits</text>
<text text-anchor="middle" x="878" y="-199" font-family="Helvetica,sans-Serif" font-size="10.00">_fallback</text>
</a>
</g>
</g>
<!-- Node2 -->
<g id="Node000002" class="node">
<title>Node2</title>
<g id="a_Node000002"><a xlink:href="namespacedetail.html#ac83427f5f16569571f442ec01887e045" target="_top" xlink:title=" ">
<polygon fill="white" stroke="#666666" points="787,-264.5 677,-264.5 677,-245.5 787,-245.5 787,-264.5"/>
<text text-anchor="middle" x="732" y="-252.5" font-family="Helvetica,sans-Serif" font-size="10.00">detail::count_digits</text>
</a>
</g>
</g>
<!-- Node1&#45;&gt;Node2 -->
<g id="edge1_Node000001_Node000002" class="edge">
<title>Node1&#45;&gt;Node2</title>
<g id="a_edge1_Node000001_Node000002"><a xlink:title=" ">
<path fill="none" stroke="#63b8ff" d="M822.22,-225.26C801.61,-232.13 779,-239.67 761.69,-245.44"/>
<polygon fill="#63b8ff" stroke="#63b8ff" points="823.45,-228.54 831.83,-222.06 821.24,-221.9 823.45,-228.54"/>
</a>
</g>
</g>
<!-- Node16 -->
<g id="Node000016" class="node">
<title>Node16</title>
<g id="a_Node000016"><a xlink:href="namespacedetail.html#ae970ad8cf6b25d7896f788089ca1b0eb" target="_top" xlink:title=" ">
<polygon fill="white" stroke="#666666" points="787,-173.5 677,-173.5 677,-154.5 787,-154.5 787,-173.5"/>
<text text-anchor="middle" x="732" y="-161.5" font-family="Helvetica,sans-Serif" font-size="10.00">detail::count_digits</text>
</a>
</g>
</g>
<!-- Node1&#45;&gt;Node16 -->
<g id="edge16_Node000001_Node000016" class="edge">
<title>Node1&#45;&gt;Node16</title>
<g id="a_edge16_Node000001_Node000016"><a xlink:title=" ">
<path fill="none" stroke="#63b8ff" d="M816.9,-189.05C799.13,-183.75 780.37,-178.14 765.1,-173.59"/>
<polygon fill="#63b8ff" stroke="#63b8ff" points="816.05,-192.45 826.64,-191.96 818.06,-185.75 816.05,-192.45"/>
</a>
</g>
</g>
<!-- Node3 -->
<g id="Node000003" class="node">
<title>Node3</title>
<g id="a_Node000003"><a xlink:href="namespacedetail.html#a609d7411f77817f2def78afbbfdda40e" target="_top" xlink:title=" ">
<polygon fill="white" stroke="#666666" points="639.5,-397.5 499.5,-397.5 499.5,-378.5 639.5,-378.5 639.5,-397.5"/>
<text text-anchor="middle" x="569.5" y="-385.5" font-family="Helvetica,sans-Serif" font-size="10.00">detail::format_error_code</text>
</a>
</g>
</g>
<!-- Node2&#45;&gt;Node3 -->
<g id="edge2_Node000002_Node000003" class="edge">
<title>Node2&#45;&gt;Node3</title>
<g id="a_edge2_Node000002_Node000003"><a xlink:title=" ">
<path fill="none" stroke="#63b8ff" d="M711.71,-270.98C678.13,-298.82 609.87,-355.38 582.37,-378.16"/>
<polygon fill="#63b8ff" stroke="#63b8ff" points="713.99,-273.64 719.46,-264.57 709.52,-268.25 713.99,-273.64"/>
</a>
</g>
</g>
<!-- Node6 -->
<g id="Node000006" class="node">
<title>Node6</title>
<g id="a_Node000006"><a xlink:href="namespacedetail.html#a718888554bf1561a88969b304e570395" target="_top" xlink:title=" ">
<polygon fill="white" stroke="#666666" points="633.5,-307.5 505.5,-307.5 505.5,-288.5 633.5,-288.5 633.5,-307.5"/>
<text text-anchor="middle" x="569.5" y="-295.5" font-family="Helvetica,sans-Serif" font-size="10.00">detail::format_hexfloat</text>
</a>
</g>
</g>
<!-- Node2&#45;&gt;Node6 -->
<g id="edge5_Node000002_Node000006" class="edge">
<title>Node2&#45;&gt;Node6</title>
<g id="a_edge5_Node000002_Node000006"><a xlink:title=" ">
<path fill="none" stroke="#63b8ff" d="M685.66,-267.15C660.43,-273.91 629.48,-282.2 606.02,-288.48"/>
<polygon fill="#63b8ff" stroke="#63b8ff" points="686.63,-270.51 695.38,-264.54 684.81,-263.75 686.63,-270.51"/>
</a>
</g>
</g>
<!-- Node7 -->
<g id="Node000007" class="node">
<title>Node7</title>
<g id="a_Node000007"><a xlink:href="structdetail_1_1duration__formatter.html#a05833dd5c29a4b5991f31b3907f7c793" target="_top" xlink:title=" ">
<polygon fill="white" stroke="#666666" points="641,-270 498,-270 498,-240 641,-240 641,-270"/>
<text text-anchor="start" x="506" y="-258" font-family="Helvetica,sans-Serif" font-size="10.00">detail::duration_formatter</text>
<text text-anchor="middle" x="569.5" y="-247" font-family="Helvetica,sans-Serif" font-size="10.00">::write</text>
</a>
</g>
</g>
<!-- Node2&#45;&gt;Node7 -->
<g id="edge6_Node000002_Node000007" class="edge">
<title>Node2&#45;&gt;Node7</title>
<g id="a_edge6_Node000002_Node000007"><a xlink:title=" ">
<path fill="none" stroke="#63b8ff" d="M666.63,-255C658.3,-255 649.72,-255 641.28,-255"/>
<polygon fill="#63b8ff" stroke="#63b8ff" points="666.66,-258.5 676.66,-255 666.66,-251.5 666.66,-258.5"/>
</a>
</g>
</g>
<!-- Node15 -->
<g id="Node000015" class="node">
<title>Node15</title>
<g id="a_Node000015"><a xlink:href="namespacedetail.html#a9b8558a7dd3fae49bbf1aa59becad362" target="_top" xlink:title=" ">
<polygon fill="white" stroke="#666666" points="632.5,-221.5 506.5,-221.5 506.5,-202.5 632.5,-202.5 632.5,-221.5"/>
<text text-anchor="middle" x="569.5" y="-209.5" font-family="Helvetica,sans-Serif" font-size="10.00">detail::write_exponent</text>
</a>
</g>
</g>
<!-- Node2&#45;&gt;Node15 -->
<g id="edge15_Node000002_Node000015" class="edge">
<title>Node2&#45;&gt;Node15</title>
<g id="a_edge15_Node000002_Node000015"><a xlink:title=" ">
<path fill="none" stroke="#63b8ff" d="M685.66,-242.85C660.43,-236.09 629.48,-227.8 606.02,-221.52"/>
<polygon fill="#63b8ff" stroke="#63b8ff" points="684.81,-246.25 695.38,-245.46 686.63,-239.49 684.81,-246.25"/>
</a>
</g>
</g>
<!-- Node4 -->
<g id="Node000004" class="node">
<title>Node4</title>
<g id="a_Node000004"><a xlink:href="format-inl_8h.html#a7f93bbdee51ea567c2cdf8532c0c1fc1" target="_top" xlink:title=" ">
<polygon fill="white" stroke="#666666" points="450,-427.5 331,-427.5 331,-408.5 450,-408.5 450,-427.5"/>
<text text-anchor="middle" x="390.5" y="-415.5" font-family="Helvetica,sans-Serif" font-size="10.00">format_system_error</text>
</a>
</g>
</g>
<!-- Node3&#45;&gt;Node4 -->
<g id="edge3_Node000003_Node000004" class="edge">
<title>Node3&#45;&gt;Node4</title>
<g id="a_edge3_Node000003_Node000004"><a xlink:title=" ">
<path fill="none" stroke="#63b8ff" d="M501.71,-399.32C483.93,-402.33 464.91,-405.56 447.76,-408.46"/>
<polygon fill="#63b8ff" stroke="#63b8ff" points="502.73,-402.7 512.01,-397.57 501.57,-395.8 502.73,-402.7"/>
</a>
</g>
</g>
<!-- Node5 -->
<g id="Node000005" class="node">
<title>Node5</title>
<g id="a_Node000005"><a xlink:href="format-inl_8h.html#af135c0ecc93e827e4ef51b18a4b0da74" target="_top" xlink:title=" ">
<polygon fill="white" stroke="#666666" points="269.5,-427.5 153.5,-427.5 153.5,-408.5 269.5,-408.5 269.5,-427.5"/>
<text text-anchor="middle" x="211.5" y="-415.5" font-family="Helvetica,sans-Serif" font-size="10.00">report_system_error</text>
</a>
</g>
</g>
<!-- Node4&#45;&gt;Node5 -->
<g id="edge4_Node000004_Node000005" class="edge">
<title>Node4&#45;&gt;Node5</title>
<g id="a_edge4_Node000004_Node000005"><a xlink:title=" ">
<path fill="none" stroke="#63b8ff" d="M320.28,-418C303.53,-418 285.81,-418 269.68,-418"/>
<polygon fill="#63b8ff" stroke="#63b8ff" points="320.56,-421.5 330.56,-418 320.56,-414.5 320.56,-421.5"/>
</a>
</g>
</g>
<!-- Node8 -->
<g id="Node000008" class="node">
<title>Node8</title>
<g id="a_Node000008"><a xlink:href="structdetail_1_1duration__formatter.html#a826af0d208367e0816601e6fe710665d" target="_top" xlink:title=" ">
<polygon fill="white" stroke="#666666" points="462,-390 319,-390 319,-360 462,-360 462,-390"/>
<text text-anchor="start" x="327" y="-378" font-family="Helvetica,sans-Serif" font-size="10.00">detail::duration_formatter</text>
<text text-anchor="middle" x="390.5" y="-367" font-family="Helvetica,sans-Serif" font-size="10.00">::on_12_hour</text>
</a>
</g>
</g>
<!-- Node7&#45;&gt;Node8 -->
<g id="edge7_Node000007_Node000008" class="edge">
<title>Node7&#45;&gt;Node8</title>
<g id="a_edge7_Node000007_Node000008"><a xlink:title=" ">
<path fill="none" stroke="#63b8ff" d="M504.1,-275.26C501.96,-276.74 499.92,-278.31 498,-280 471.43,-303.36 488.72,-327.81 462,-351 458.09,-354.39 453.69,-357.31 449.03,-359.81"/>
<polygon fill="#63b8ff" stroke="#63b8ff" points="505.94,-278.24 512.71,-270.09 502.34,-272.24 505.94,-278.24"/>
</a>
</g>
</g>
<!-- Node9 -->
<g id="Node000009" class="node">
<title>Node9</title>
<g id="a_Node000009"><a xlink:href="structdetail_1_1duration__formatter.html#ae0a16e2a89a6aaa61d36dc069d70421f" target="_top" xlink:title=" ">
<polygon fill="white" stroke="#666666" points="462,-342 319,-342 319,-312 462,-312 462,-342"/>
<text text-anchor="start" x="327" y="-330" font-family="Helvetica,sans-Serif" font-size="10.00">detail::duration_formatter</text>
<text text-anchor="middle" x="390.5" y="-319" font-family="Helvetica,sans-Serif" font-size="10.00">::on_24_hour</text>
</a>
</g>
</g>
<!-- Node7&#45;&gt;Node9 -->
<g id="edge8_Node000007_Node000009" class="edge">
<title>Node7&#45;&gt;Node9</title>
<g id="a_edge8_Node000007_Node000009"><a xlink:title=" ">
<path fill="none" stroke="#63b8ff" d="M511.62,-273.89C506.96,-275.82 502.36,-277.87 498,-280 480.94,-288.34 479.11,-294.77 462,-303 455.24,-306.25 447.93,-309.26 440.66,-311.97"/>
<polygon fill="#63b8ff" stroke="#63b8ff" points="513.23,-277.01 521.24,-270.08 510.65,-270.51 513.23,-277.01"/>
</a>
</g>
</g>
<!-- Node10 -->
<g id="Node000010" class="node">
<title>Node10</title>
<g id="a_Node000010"><a xlink:href="structdetail_1_1duration__formatter.html#a46f7670012d8edd7186c2961725c8894" target="_top" xlink:title=" ">
<polygon fill="white" stroke="#666666" points="462,-294 319,-294 319,-264 462,-264 462,-294"/>
<text text-anchor="start" x="327" y="-282" font-family="Helvetica,sans-Serif" font-size="10.00">detail::duration_formatter</text>
<text text-anchor="middle" x="390.5" y="-271" font-family="Helvetica,sans-Serif" font-size="10.00">::on_24_hour_time</text>
</a>
</g>
</g>
<!-- Node7&#45;&gt;Node10 -->
<g id="edge9_Node000007_Node000010" class="edge">
<title>Node7&#45;&gt;Node10</title>
<g id="a_edge9_Node000007_Node000010"><a xlink:title=" ">
<path fill="none" stroke="#63b8ff" d="M487.79,-265.94C479.22,-267.11 470.55,-268.28 462.11,-269.43"/>
<polygon fill="#63b8ff" stroke="#63b8ff" points="488.34,-269.4 497.78,-264.59 487.4,-262.46 488.34,-269.4"/>
</a>
</g>
</g>
<!-- Node12 -->
<g id="Node000012" class="node">
<title>Node12</title>
<g id="a_Node000012"><a xlink:href="structdetail_1_1duration__formatter.html#a27bb9bcca257513d9966428a0d705089" target="_top" xlink:title=" ">
<polygon fill="white" stroke="#666666" points="462,-246 319,-246 319,-216 462,-216 462,-246"/>
<text text-anchor="start" x="327" y="-234" font-family="Helvetica,sans-Serif" font-size="10.00">detail::duration_formatter</text>
<text text-anchor="middle" x="390.5" y="-223" font-family="Helvetica,sans-Serif" font-size="10.00">::on_day_of_year</text>
</a>
</g>
</g>
<!-- Node7&#45;&gt;Node12 -->
<g id="edge11_Node000007_Node000012" class="edge">
<title>Node7&#45;&gt;Node12</title>
<g id="a_edge11_Node000007_Node000012"><a xlink:title=" ">
<path fill="none" stroke="#63b8ff" d="M487.79,-244.06C479.22,-242.89 470.55,-241.72 462.11,-240.57"/>
<polygon fill="#63b8ff" stroke="#63b8ff" points="487.4,-247.54 497.78,-245.41 488.34,-240.6 487.4,-247.54"/>
</a>
</g>
</g>
<!-- Node13 -->
<g id="Node000013" class="node">
<title>Node13</title>
<g id="a_Node000013"><a xlink:href="structdetail_1_1duration__formatter.html#abe4a8e5797458144ae64f6c10ede01f1" target="_top" xlink:title=" ">
<polygon fill="white" stroke="#666666" points="462,-198 319,-198 319,-168 462,-168 462,-198"/>
<text text-anchor="start" x="327" y="-186" font-family="Helvetica,sans-Serif" font-size="10.00">detail::duration_formatter</text>
<text text-anchor="middle" x="390.5" y="-175" font-family="Helvetica,sans-Serif" font-size="10.00">::on_minute</text>
</a>
</g>
</g>
<!-- Node7&#45;&gt;Node13 -->
<g id="edge12_Node000007_Node000013" class="edge">
<title>Node7&#45;&gt;Node13</title>
<g id="a_edge12_Node000007_Node000013"><a xlink:title=" ">
<path fill="none" stroke="#63b8ff" d="M509.58,-236.24C505.61,-234.58 501.72,-232.83 498,-231 480.75,-222.5 479.25,-215.5 462,-207 455.39,-203.74 448.23,-200.74 441.09,-198.05"/>
<polygon fill="#63b8ff" stroke="#63b8ff" points="508.33,-239.51 518.91,-239.95 510.91,-233.01 508.33,-239.51"/>
</a>
</g>
</g>
<!-- Node14 -->
<g id="Node000014" class="node">
<title>Node14</title>
<g id="a_Node000014"><a xlink:href="structdetail_1_1duration__formatter.html#a5eaa3651f2774bf273f23c4a6cb232a2" target="_top" xlink:title=" ">
<polygon fill="white" stroke="#666666" points="462,-150 319,-150 319,-120 462,-120 462,-150"/>
<text text-anchor="start" x="327" y="-138" font-family="Helvetica,sans-Serif" font-size="10.00">detail::duration_formatter</text>
<text text-anchor="middle" x="390.5" y="-127" font-family="Helvetica,sans-Serif" font-size="10.00">::on_second</text>
</a>
</g>
</g>
<!-- Node7&#45;&gt;Node14 -->
<g id="edge13_Node000007_Node000014" class="edge">
<title>Node7&#45;&gt;Node14</title>
<g id="a_edge13_Node000007_Node000014"><a xlink:title=" ">
<path fill="none" stroke="#63b8ff" d="M502.19,-234.34C500.74,-233.28 499.34,-232.17 498,-231 471.05,-207.47 488.95,-182.53 462,-159 458.1,-155.6 453.7,-152.67 449.05,-150.16"/>
<polygon fill="#63b8ff" stroke="#63b8ff" points="500.62,-237.49 510.95,-239.84 504.34,-231.56 500.62,-237.49"/>
</a>
</g>
</g>
<!-- Node11 -->
<g id="Node000011" class="node">
<title>Node11</title>
<g id="a_Node000011"><a xlink:href="structdetail_1_1duration__formatter.html#a8044d0b686a0080acbb954da3cab168d" target="_top" xlink:title=" ">
<polygon fill="white" stroke="#666666" points="283,-222 140,-222 140,-192 283,-192 283,-222"/>
<text text-anchor="start" x="148" y="-210" font-family="Helvetica,sans-Serif" font-size="10.00">detail::duration_formatter</text>
<text text-anchor="middle" x="211.5" y="-199" font-family="Helvetica,sans-Serif" font-size="10.00">::on_iso_time</text>
</a>
</g>
</g>
<!-- Node10&#45;&gt;Node11 -->
<g id="edge10_Node000010_Node000011" class="edge">
<title>Node10&#45;&gt;Node11</title>
<g id="a_edge10_Node000010_Node000011"><a xlink:title=" ">
<path fill="none" stroke="#63b8ff" d="M333.52,-260.49C328.59,-258.69 323.69,-256.85 319,-255 293.34,-244.88 264.89,-231.96 243.85,-222.08"/>
<polygon fill="#63b8ff" stroke="#63b8ff" points="332.41,-263.81 343,-263.87 334.76,-257.22 332.41,-263.81"/>
</a>
</g>
</g>
<!-- Node14&#45;&gt;Node11 -->
<g id="edge14_Node000014_Node000011" class="edge">
<title>Node14&#45;&gt;Node11</title>
<g id="a_edge14_Node000014_Node000011"><a xlink:title=" ">
<path fill="none" stroke="#63b8ff" d="M333.52,-153.51C328.59,-155.31 323.69,-157.15 319,-159 293.34,-169.12 264.89,-182.04 243.85,-191.92"/>
<polygon fill="#63b8ff" stroke="#63b8ff" points="334.76,-156.78 343,-150.13 332.41,-150.19 334.76,-156.78"/>
</a>
</g>
</g>
<!-- Node17 -->
<g id="Node000017" class="node">
<title>Node17</title>
<g id="a_Node000017"><a xlink:href="namespacedetail.html#a419a6383f35ef9294543a14ded001151" target="_top" xlink:title=" ">
<polygon fill="white" stroke="#666666" points="633,-179 506,-179 506,-149 633,-149 633,-179"/>
<text text-anchor="start" x="514" y="-167" font-family="Helvetica,sans-Serif" font-size="10.00">detail::write_fractional</text>
<text text-anchor="middle" x="569.5" y="-156" font-family="Helvetica,sans-Serif" font-size="10.00">_seconds</text>
</a>
</g>
</g>
<!-- Node16&#45;&gt;Node17 -->
<g id="edge17_Node000016_Node000017" class="edge">
<title>Node16&#45;&gt;Node17</title>
<g id="a_edge17_Node000016_Node000017"><a xlink:title=" ">
<path fill="none" stroke="#63b8ff" d="M666.65,-164C655.58,-164 644.1,-164 633.08,-164"/>
<polygon fill="#63b8ff" stroke="#63b8ff" points="666.66,-167.5 676.66,-164 666.66,-160.5 666.66,-167.5"/>
</a>
</g>
</g>
<!-- Node18 -->
<g id="Node000018" class="node">
<title>Node18</title>
<g id="a_Node000018"><a xlink:href="classdetail_1_1tm__writer.html#afebe1080f809fce7f9929aac3b0b9111" target="_top" xlink:title=" ">
<polygon fill="white" stroke="#666666" points="629,-102 510,-102 510,-72 629,-72 629,-102"/>
<text text-anchor="start" x="518" y="-90" font-family="Helvetica,sans-Serif" font-size="10.00">detail::tm_writer::</text>
<text text-anchor="middle" x="569.5" y="-79" font-family="Helvetica,sans-Serif" font-size="10.00">write_year_extended</text>
</a>
</g>
</g>
<!-- Node16&#45;&gt;Node18 -->
<g id="edge18_Node000016_Node000018" class="edge">
<title>Node16&#45;&gt;Node18</title>
<g id="a_edge18_Node000016_Node000018"><a xlink:title=" ">
<path fill="none" stroke="#63b8ff" d="M701.64,-149.91C673.36,-136.35 630.72,-115.89 601.81,-102.02"/>
<polygon fill="#63b8ff" stroke="#63b8ff" points="700.47,-153.23 711,-154.4 703.49,-146.92 700.47,-153.23"/>
</a>
</g>
</g>
<!-- Node19 -->
<g id="Node000019" class="node">
<title>Node19</title>
<g id="a_Node000019"><a xlink:href="classdetail_1_1tm__writer.html#a23f9e904d6c3f7c990065e218ec30ac1" target="_top" xlink:title=" ">
<polygon fill="white" stroke="#666666" points="442.5,-102 338.5,-102 338.5,-72 442.5,-72 442.5,-102"/>
<text text-anchor="start" x="346.5" y="-90" font-family="Helvetica,sans-Serif" font-size="10.00">detail::tm_writer::</text>
<text text-anchor="middle" x="390.5" y="-79" font-family="Helvetica,sans-Serif" font-size="10.00">on_iso_date</text>
</a>
</g>
</g>
<!-- Node18&#45;&gt;Node19 -->
<g id="edge19_Node000018_Node000019" class="edge">
<title>Node18&#45;&gt;Node19</title>
<g id="a_edge19_Node000018_Node000019"><a xlink:title=" ">
<path fill="none" stroke="#63b8ff" d="M499.52,-87C480.62,-87 460.48,-87 442.76,-87"/>
<polygon fill="#63b8ff" stroke="#63b8ff" points="499.56,-90.5 509.56,-87 499.56,-83.5 499.56,-90.5"/>
</a>
</g>
</g>
<!-- Node20 -->
<g id="Node000020" class="node">
<title>Node20</title>
<g id="a_Node000020"><a xlink:href="classdetail_1_1tm__writer.html#aeccc3597d5e9f4f0dd497bab3214340a" target="_top" xlink:title=" ">
<polygon fill="white" stroke="#666666" points="442.5,-54 338.5,-54 338.5,-24 442.5,-24 442.5,-54"/>
<text text-anchor="start" x="346.5" y="-42" font-family="Helvetica,sans-Serif" font-size="10.00">detail::tm_writer::</text>
<text text-anchor="middle" x="390.5" y="-31" font-family="Helvetica,sans-Serif" font-size="10.00">write_year</text>
</a>
</g>
</g>
<!-- Node18&#45;&gt;Node20 -->
<g id="edge20_Node000018_Node000020" class="edge">
<title>Node18&#45;&gt;Node20</title>
<g id="a_edge20_Node000018_Node000020"><a xlink:title=" ">
<path fill="none" stroke="#63b8ff" d="M503.31,-69.32C483.29,-63.89 461.55,-58 442.61,-52.86"/>
<polygon fill="#63b8ff" stroke="#63b8ff" points="502.41,-72.7 512.98,-71.94 504.25,-65.95 502.41,-72.7"/>
</a>
</g>
</g>
<!-- Node21 -->
<g id="Node000021" class="node">
<title>Node21</title>
<g id="a_Node000021"><a xlink:href="classdetail_1_1tm__writer.html#a286b8e12c2a447aa2a43fbc0253b834c" target="_top" xlink:title=" ">
<polygon fill="white" stroke="#666666" points="282,-78 141,-78 141,-48 282,-48 282,-78"/>
<text text-anchor="start" x="149" y="-66" font-family="Helvetica,sans-Serif" font-size="10.00">detail::tm_writer::</text>
<text text-anchor="middle" x="211.5" y="-55" font-family="Helvetica,sans-Serif" font-size="10.00">on_iso_week_based_year</text>
</a>
</g>
</g>
<!-- Node20&#45;&gt;Node21 -->
<g id="edge21_Node000020_Node000021" class="edge">
<title>Node20&#45;&gt;Node21</title>
<g id="a_edge21_Node000020_Node000021"><a xlink:title=" ">
<path fill="none" stroke="#63b8ff" d="M328.2,-47.31C313.3,-49.33 297.27,-51.51 282.02,-53.57"/>
<polygon fill="#63b8ff" stroke="#63b8ff" points="328.87,-50.75 338.3,-45.94 327.92,-43.82 328.87,-50.75"/>
</a>
</g>
</g>
<!-- Node22 -->
<g id="Node000022" class="node">
<title>Node22</title>
<g id="a_Node000022"><a xlink:href="classdetail_1_1tm__writer.html#ac00a57863b399a1d7f02bed57867e4d7" target="_top" xlink:title=" ">
<polygon fill="white" stroke="#666666" points="263.5,-30 159.5,-30 159.5,0 263.5,0 263.5,-30"/>
<text text-anchor="start" x="167.5" y="-18" font-family="Helvetica,sans-Serif" font-size="10.00">detail::tm_writer::</text>
<text text-anchor="middle" x="211.5" y="-7" font-family="Helvetica,sans-Serif" font-size="10.00">on_year</text>
</a>
</g>
</g>
<!-- Node20&#45;&gt;Node22 -->
<g id="edge22_Node000020_Node000022" class="edge">
<title>Node20&#45;&gt;Node22</title>
<g id="a_edge22_Node000020_Node000022"><a xlink:title=" ">
<path fill="none" stroke="#63b8ff" d="M328.17,-30.68C307.1,-27.83 283.75,-24.66 263.58,-21.93"/>
<polygon fill="#63b8ff" stroke="#63b8ff" points="327.92,-34.18 338.3,-32.06 328.87,-27.25 327.92,-34.18"/>
</a>
</g>
</g>
<!-- Node23 -->
<g id="Node000023" class="node">
<title>Node23</title>
<g id="a_Node000023"><a xlink:href="classdetail_1_1tm__writer.html#af53d115957cdef5079ea641b12d8dce9" target="_top" xlink:title=" ">
<polygon fill="white" stroke="#666666" points="104,-30 0,-30 0,0 104,0 104,-30"/>
<text text-anchor="start" x="8" y="-18" font-family="Helvetica,sans-Serif" font-size="10.00">detail::tm_writer::</text>
<text text-anchor="middle" x="52" y="-7" font-family="Helvetica,sans-Serif" font-size="10.00">on_datetime</text>
</a>
</g>
</g>
<!-- Node22&#45;&gt;Node23 -->
<g id="edge23_Node000022_Node000023" class="edge">
<title>Node22&#45;&gt;Node23</title>
<g id="a_edge23_Node000022_Node000023"><a xlink:title=" ">
<path fill="none" stroke="#63b8ff" d="M149.21,-15C134.31,-15 118.53,-15 104.15,-15"/>
<polygon fill="#63b8ff" stroke="#63b8ff" points="149.36,-18.5 159.36,-15 149.36,-11.5 149.36,-18.5"/>
</a>
</g>
</g>
</g>
</svg>
