<?xml version="1.0" encoding="UTF-8" standalone="no"?>
<!DOCTYPE svg PUBLIC "-//W3C//DTD SVG 1.1//EN"
 "http://www.w3.org/Graphics/SVG/1.1/DTD/svg11.dtd">
<!-- Generated by graphviz version 2.43.0 (0)
 -->
<!-- Title: detail::reset_color Pages: 1 -->
<svg width="417pt" height="124pt"
 viewBox="0.00 0.00 417.00 123.50" xmlns="http://www.w3.org/2000/svg" xmlns:xlink="http://www.w3.org/1999/xlink">
<g id="graph0" class="graph" transform="scale(1 1) rotate(0) translate(4 119.5)">
<title>detail::reset_color</title>
<!-- Node1 -->
<g id="Node000001" class="node">
<title>Node1</title>
<g id="a_Node000001"><a xlink:title=" ">
<polygon fill="#999999" stroke="#666666" points="104,-62 0,-62 0,-43 104,-43 104,-62"/>
<text text-anchor="middle" x="52" y="-50" font-family="Helvetica,sans-Serif" font-size="10.00">detail::reset_color</text>
</a>
</g>
</g>
<!-- Node2 -->
<g id="Node000002" class="node">
<title>Node2</title>
<g id="a_Node000002"><a xlink:href="classbasic__string__view.html#a039a92fee947263a6c75dc6afd879719" target="_top" xlink:title=" ">
<polygon fill="white" stroke="#666666" points="258,-115.5 149,-115.5 149,-85.5 258,-85.5 258,-115.5"/>
<text text-anchor="start" x="157" y="-103.5" font-family="Helvetica,sans-Serif" font-size="10.00">basic_string_view::</text>
<text text-anchor="middle" x="203.5" y="-92.5" font-family="Helvetica,sans-Serif" font-size="10.00">basic_string_view</text>
</a>
</g>
</g>
<!-- Node1&#45;&gt;Node2 -->
<g id="edge1_Node000001_Node000002" class="edge">
<title>Node1&#45;&gt;Node2</title>
<g id="a_edge1_Node000001_Node000002"><a xlink:title=" ">
<path fill="none" stroke="#63b8ff" d="M82.89,-62.1C100.92,-67.89 124.48,-75.45 145.91,-82.33"/>
<polygon fill="#63b8ff" stroke="#63b8ff" points="144.99,-85.71 155.59,-85.44 147.13,-79.05 144.99,-85.71"/>
</a>
</g>
</g>
<!-- Node4 -->
<g id="Node000004" class="node">
<title>Node4</title>
<g id="a_Node000004"><a xlink:href="classbasic__string__view.html#a50d08a55660173ee8f89dee436207da3" target="_top" xlink:title=" ">
<polygon fill="white" stroke="#666666" points="258,-67.5 149,-67.5 149,-37.5 258,-37.5 258,-67.5"/>
<text text-anchor="start" x="157" y="-55.5" font-family="Helvetica,sans-Serif" font-size="10.00">basic_string_view::</text>
<text text-anchor="middle" x="203.5" y="-44.5" font-family="Helvetica,sans-Serif" font-size="10.00">begin</text>
</a>
</g>
</g>
<!-- Node1&#45;&gt;Node4 -->
<g id="edge3_Node000001_Node000004" class="edge">
<title>Node1&#45;&gt;Node4</title>
<g id="a_edge3_Node000001_Node000004"><a xlink:title=" ">
<path fill="none" stroke="#63b8ff" d="M104.03,-52.5C115.22,-52.5 127.2,-52.5 138.81,-52.5"/>
<polygon fill="#63b8ff" stroke="#63b8ff" points="138.89,-56 148.89,-52.5 138.89,-49 138.89,-56"/>
</a>
</g>
</g>
<!-- Node5 -->
<g id="Node000005" class="node">
<title>Node5</title>
<g id="a_Node000005"><a xlink:href="classbasic__string__view.html#a12fc892d9a99adbf90ed0e9c88f87a02" target="_top" xlink:title=" ">
<polygon fill="white" stroke="#666666" points="267,-19 140,-19 140,0 267,0 267,-19"/>
<text text-anchor="middle" x="203.5" y="-7" font-family="Helvetica,sans-Serif" font-size="10.00">basic_string_view::end</text>
</a>
</g>
</g>
<!-- Node1&#45;&gt;Node5 -->
<g id="edge4_Node000001_Node000005" class="edge">
<title>Node1&#45;&gt;Node5</title>
<g id="a_edge4_Node000001_Node000005"><a xlink:title=" ">
<path fill="none" stroke="#63b8ff" d="M86.18,-42.96C107.86,-36.72 136.37,-28.52 159.75,-21.8"/>
<polygon fill="#63b8ff" stroke="#63b8ff" points="160.77,-25.14 169.41,-19.02 158.84,-18.42 160.77,-25.14"/>
</a>
</g>
</g>
<!-- Node3 -->
<g id="Node000003" class="node">
<title>Node3</title>
<g id="a_Node000003"><a xlink:href="namespacedetail.html#a75ed2634319883d038944529dbb954e2" target="_top" xlink:title=" ">
<polygon fill="white" stroke="#666666" points="409,-115.5 303,-115.5 303,-85.5 409,-85.5 409,-115.5"/>
<text text-anchor="start" x="311" y="-103.5" font-family="Helvetica,sans-Serif" font-size="10.00">detail::is_constant</text>
<text text-anchor="middle" x="356" y="-92.5" font-family="Helvetica,sans-Serif" font-size="10.00">_evaluated</text>
</a>
</g>
</g>
<!-- Node2&#45;&gt;Node3 -->
<g id="edge2_Node000002_Node000003" class="edge">
<title>Node2&#45;&gt;Node3</title>
<g id="a_edge2_Node000002_Node000003"><a xlink:title=" ">
<path fill="none" stroke="#63b8ff" d="M258.41,-100.5C269.52,-100.5 281.3,-100.5 292.68,-100.5"/>
<polygon fill="#63b8ff" stroke="#63b8ff" points="292.98,-104 302.98,-100.5 292.98,-97 292.98,-104"/>
</a>
</g>
</g>
</g>
</svg>
