<?xml version="1.0" encoding="UTF-8" standalone="no"?>
<!DOCTYPE svg PUBLIC "-//W3C//DTD SVG 1.1//EN"
 "http://www.w3.org/Graphics/SVG/1.1/DTD/svg11.dtd">
<!-- Generated by graphviz version 2.43.0 (0)
 -->
<!-- Title: detail::digits2 Pages: 1 -->
<svg width="399pt" height="161pt"
 viewBox="0.00 0.00 399.00 160.50" xmlns="http://www.w3.org/2000/svg" xmlns:xlink="http://www.w3.org/1999/xlink">
<g id="graph0" class="graph" transform="scale(1 1) rotate(0) translate(4 156.5)">
<title>detail::digits2</title>
<!-- Node1 -->
<g id="Node000001" class="node">
<title>Node1</title>
<g id="a_Node000001"><a xlink:title=" ">
<polygon fill="#999999" stroke="#666666" points="391,-77 308,-77 308,-58 391,-58 391,-77"/>
<text text-anchor="middle" x="349.5" y="-65" font-family="Helvetica,sans-Serif" font-size="10.00">detail::digits2</text>
</a>
</g>
</g>
<!-- Node2 -->
<g id="Node000002" class="node">
<title>Node2</title>
<g id="a_Node000002"><a xlink:href="classdetail_1_1tm__writer.html#aae250ab7a6203b7b6323cb05502b68df" target="_top" xlink:title=" ">
<polygon fill="white" stroke="#666666" points="261,-152.5 157,-152.5 157,-122.5 261,-122.5 261,-152.5"/>
<text text-anchor="start" x="165" y="-140.5" font-family="Helvetica,sans-Serif" font-size="10.00">detail::tm_writer::</text>
<text text-anchor="middle" x="209" y="-129.5" font-family="Helvetica,sans-Serif" font-size="10.00">write2</text>
</a>
</g>
</g>
<!-- Node1&#45;&gt;Node2 -->
<g id="edge1_Node000001_Node000002" class="edge">
<title>Node1&#45;&gt;Node2</title>
<g id="a_edge1_Node000001_Node000002"><a xlink:title=" ">
<path fill="none" stroke="#63b8ff" d="M325.7,-82.63C310.78,-92.16 290.67,-104.36 272,-113.5 265.57,-116.65 258.62,-119.68 251.78,-122.46"/>
<polygon fill="#63b8ff" stroke="#63b8ff" points="327.76,-85.46 334.25,-77.09 323.96,-79.59 327.76,-85.46"/>
</a>
</g>
</g>
<!-- Node3 -->
<g id="Node000003" class="node">
<title>Node3</title>
<g id="a_Node000003"><a xlink:href="classdetail_1_1tm__writer.html#a81a6d1a501aaf1bfd11125a41e71059d" target="_top" xlink:title=" ">
<polygon fill="white" stroke="#666666" points="261,-104.5 157,-104.5 157,-74.5 261,-74.5 261,-104.5"/>
<text text-anchor="start" x="165" y="-92.5" font-family="Helvetica,sans-Serif" font-size="10.00">detail::tm_writer::</text>
<text text-anchor="middle" x="209" y="-81.5" font-family="Helvetica,sans-Serif" font-size="10.00">write2</text>
</a>
</g>
</g>
<!-- Node1&#45;&gt;Node3 -->
<g id="edge2_Node000001_Node000003" class="edge">
<title>Node1&#45;&gt;Node3</title>
<g id="a_edge2_Node000001_Node000003"><a xlink:title=" ">
<path fill="none" stroke="#63b8ff" d="M297.49,-75.6C285.62,-77.49 272.97,-79.5 261.09,-81.39"/>
<polygon fill="#63b8ff" stroke="#63b8ff" points="298.37,-79.01 307.69,-73.98 297.27,-72.09 298.37,-79.01"/>
</a>
</g>
</g>
<!-- Node4 -->
<g id="Node000004" class="node">
<title>Node4</title>
<g id="a_Node000004"><a xlink:href="namespacedetail.html#ade16648d662a4c70e2500ae74ef7e671" target="_top" xlink:title=" ">
<polygon fill="white" stroke="#666666" points="263,-56 155,-56 155,-37 263,-37 263,-56"/>
<text text-anchor="middle" x="209" y="-44" font-family="Helvetica,sans-Serif" font-size="10.00">detail::write2digits</text>
</a>
</g>
</g>
<!-- Node1&#45;&gt;Node4 -->
<g id="edge3_Node000001_Node000004" class="edge">
<title>Node1&#45;&gt;Node4</title>
<g id="a_edge3_Node000001_Node000004"><a xlink:title=" ">
<path fill="none" stroke="#63b8ff" d="M297.61,-59.78C286.37,-58.08 274.43,-56.27 263.11,-54.55"/>
<polygon fill="#63b8ff" stroke="#63b8ff" points="297.28,-63.27 307.69,-61.31 298.33,-56.35 297.28,-63.27"/>
</a>
</g>
</g>
<!-- Node7 -->
<g id="Node000007" class="node">
<title>Node7</title>
<g id="a_Node000007"><a xlink:href="namespacedetail.html#a9b8558a7dd3fae49bbf1aa59becad362" target="_top" xlink:title=" ">
<polygon fill="white" stroke="#666666" points="272,-19 146,-19 146,0 272,0 272,-19"/>
<text text-anchor="middle" x="209" y="-7" font-family="Helvetica,sans-Serif" font-size="10.00">detail::write_exponent</text>
</a>
</g>
</g>
<!-- Node1&#45;&gt;Node7 -->
<g id="edge6_Node000001_Node000007" class="edge">
<title>Node1&#45;&gt;Node7</title>
<g id="a_edge6_Node000001_Node000007"><a xlink:title=" ">
<path fill="none" stroke="#63b8ff" d="M322.94,-53.05C308.31,-45.15 289.46,-35.56 272,-28.5 263.34,-25 253.78,-21.77 244.81,-19"/>
<polygon fill="#63b8ff" stroke="#63b8ff" points="321.43,-56.22 331.88,-57.96 324.8,-50.08 321.43,-56.22"/>
</a>
</g>
</g>
<!-- Node5 -->
<g id="Node000005" class="node">
<title>Node5</title>
<g id="a_Node000005"><a xlink:href="namespacedetail.html#add861c358ea50b446b1a06080adb44ba" target="_top" xlink:title=" ">
<polygon fill="white" stroke="#666666" points="110,-78 0,-78 0,-59 110,-59 110,-78"/>
<text text-anchor="middle" x="55" y="-66" font-family="Helvetica,sans-Serif" font-size="10.00">detail::format_float</text>
</a>
</g>
</g>
<!-- Node4&#45;&gt;Node5 -->
<g id="edge4_Node000004_Node000005" class="edge">
<title>Node4&#45;&gt;Node5</title>
<g id="a_edge4_Node000004_Node000005"><a xlink:title=" ">
<path fill="none" stroke="#63b8ff" d="M144.84,-55.64C133.32,-57.31 121.39,-59.04 110.16,-60.66"/>
<polygon fill="#63b8ff" stroke="#63b8ff" points="145.44,-59.09 154.84,-54.19 144.44,-52.16 145.44,-59.09"/>
</a>
</g>
</g>
<!-- Node6 -->
<g id="Node000006" class="node">
<title>Node6</title>
<g id="a_Node000006"><a xlink:href="classdetail_1_1tm__writer.html#a23f9e904d6c3f7c990065e218ec30ac1" target="_top" xlink:title=" ">
<polygon fill="white" stroke="#666666" points="107,-40.5 3,-40.5 3,-10.5 107,-10.5 107,-40.5"/>
<text text-anchor="start" x="11" y="-28.5" font-family="Helvetica,sans-Serif" font-size="10.00">detail::tm_writer::</text>
<text text-anchor="middle" x="55" y="-17.5" font-family="Helvetica,sans-Serif" font-size="10.00">on_iso_date</text>
</a>
</g>
</g>
<!-- Node4&#45;&gt;Node6 -->
<g id="edge5_Node000004_Node000006" class="edge">
<title>Node4&#45;&gt;Node6</title>
<g id="a_edge5_Node000004_Node000006"><a xlink:title=" ">
<path fill="none" stroke="#63b8ff" d="M144.87,-37.78C132.28,-36.04 119.21,-34.23 107.09,-32.56"/>
<polygon fill="#63b8ff" stroke="#63b8ff" points="144.45,-41.25 154.84,-39.16 145.41,-34.32 144.45,-41.25"/>
</a>
</g>
</g>
</g>
</svg>
