<?xml version="1.0" encoding="UTF-8" standalone="no"?>
<!DOCTYPE svg PUBLIC "-//W3C//DTD SVG 1.1//EN"
 "http://www.w3.org/Graphics/SVG/1.1/DTD/svg11.dtd">
<!-- Generated by graphviz version 2.43.0 (0)
 -->
<!-- Title: detail::write2digits Pages: 1 -->
<svg width="262pt" height="76pt"
 viewBox="0.00 0.00 262.00 75.50" xmlns="http://www.w3.org/2000/svg" xmlns:xlink="http://www.w3.org/1999/xlink">
<g id="graph0" class="graph" transform="scale(1 1) rotate(0) translate(4 71.5)">
<title>detail::write2digits</title>
<!-- Node1 -->
<g id="Node000001" class="node">
<title>Node1</title>
<g id="a_Node000001"><a xlink:title=" ">
<polygon fill="#999999" stroke="#666666" points="254,-45.5 146,-45.5 146,-26.5 254,-26.5 254,-45.5"/>
<text text-anchor="middle" x="200" y="-33.5" font-family="Helvetica,sans-Serif" font-size="10.00">detail::write2digits</text>
</a>
</g>
</g>
<!-- Node2 -->
<g id="Node000002" class="node">
<title>Node2</title>
<g id="a_Node000002"><a xlink:href="namespacedetail.html#add861c358ea50b446b1a06080adb44ba" target="_top" xlink:title=" ">
<polygon fill="white" stroke="#666666" points="110,-67.5 0,-67.5 0,-48.5 110,-48.5 110,-67.5"/>
<text text-anchor="middle" x="55" y="-55.5" font-family="Helvetica,sans-Serif" font-size="10.00">detail::format_float</text>
</a>
</g>
</g>
<!-- Node1&#45;&gt;Node2 -->
<g id="edge1_Node000001_Node000002" class="edge">
<title>Node1&#45;&gt;Node2</title>
<g id="a_edge1_Node000001_Node000002"><a xlink:title=" ">
<path fill="none" stroke="#63b8ff" d="M135.84,-45.72C127.3,-47.03 118.61,-48.37 110.25,-49.65"/>
<polygon fill="#63b8ff" stroke="#63b8ff" points="136.4,-49.17 145.75,-44.19 135.34,-42.25 136.4,-49.17"/>
</a>
</g>
</g>
<!-- Node3 -->
<g id="Node000003" class="node">
<title>Node3</title>
<g id="a_Node000003"><a xlink:href="classdetail_1_1tm__writer.html#a23f9e904d6c3f7c990065e218ec30ac1" target="_top" xlink:title=" ">
<polygon fill="white" stroke="#666666" points="107,-30 3,-30 3,0 107,0 107,-30"/>
<text text-anchor="start" x="11" y="-18" font-family="Helvetica,sans-Serif" font-size="10.00">detail::tm_writer::</text>
<text text-anchor="middle" x="55" y="-7" font-family="Helvetica,sans-Serif" font-size="10.00">on_iso_date</text>
</a>
</g>
</g>
<!-- Node1&#45;&gt;Node3 -->
<g id="edge2_Node000001_Node000003" class="edge">
<title>Node1&#45;&gt;Node3</title>
<g id="a_edge2_Node000001_Node000003"><a xlink:title=" ">
<path fill="none" stroke="#63b8ff" d="M135.62,-26.69C126.18,-25.31 116.55,-23.89 107.39,-22.55"/>
<polygon fill="#63b8ff" stroke="#63b8ff" points="135.35,-30.19 145.75,-28.18 136.37,-23.26 135.35,-30.19"/>
</a>
</g>
</g>
</g>
</svg>
