<?xml version="1.0" encoding="UTF-8" standalone="no"?>
<!DOCTYPE svg PUBLIC "-//W3C//DTD SVG 1.1//EN"
 "http://www.w3.org/Graphics/SVG/1.1/DTD/svg11.dtd">
<!-- Generated by graphviz version 2.43.0 (0)
 -->
<!-- Title: detail::write_encoded_tm_str Pages: 1 -->
<svg width="460pt" height="405pt"
 viewBox="0.00 0.00 460.00 404.50" xmlns="http://www.w3.org/2000/svg" xmlns:xlink="http://www.w3.org/1999/xlink">
<g id="graph0" class="graph" transform="scale(1 1) rotate(0) translate(4 400.5)">
<title>detail::write_encoded_tm_str</title>
<!-- Node1 -->
<g id="Node000001" class="node">
<title>Node1</title>
<g id="a_Node000001"><a xlink:title=" ">
<polygon fill="#999999" stroke="#666666" points="122,-214.5 0,-214.5 0,-184.5 122,-184.5 122,-214.5"/>
<text text-anchor="start" x="8" y="-202.5" font-family="Helvetica,sans-Serif" font-size="10.00">detail::write_encoded</text>
<text text-anchor="middle" x="61" y="-191.5" font-family="Helvetica,sans-Serif" font-size="10.00">_tm_str</text>
</a>
</g>
</g>
<!-- Node2 -->
<g id="Node000002" class="node">
<title>Node2</title>
<g id="a_Node000002"><a xlink:href="classbasic__string__view.html#aae708273ca864680a424c10441799605" target="_top" xlink:title=" ">
<polygon fill="white" stroke="#666666" points="278,-396.5 169,-396.5 169,-366.5 278,-366.5 278,-396.5"/>
<text text-anchor="start" x="177" y="-384.5" font-family="Helvetica,sans-Serif" font-size="10.00">basic_string_view::</text>
<text text-anchor="middle" x="223.5" y="-373.5" font-family="Helvetica,sans-Serif" font-size="10.00">basic_string_view</text>
</a>
</g>
</g>
<!-- Node1&#45;&gt;Node2 -->
<g id="edge1_Node000001_Node000002" class="edge">
<title>Node1&#45;&gt;Node2</title>
<g id="a_edge1_Node000001_Node000002"><a xlink:title=" ">
<path fill="none" stroke="#63b8ff" d="M67.36,-214.87C78.99,-246.1 109.5,-317.43 158,-357.5 159.55,-358.78 161.18,-360 162.87,-361.16"/>
<polygon fill="#63b8ff" stroke="#63b8ff" points="161.34,-364.32 171.73,-366.44 164.93,-358.31 161.34,-364.32"/>
</a>
</g>
</g>
<!-- Node3 -->
<g id="Node000003" class="node">
<title>Node3</title>
<g id="a_Node000003"><a xlink:href="classdetail_1_1to__utf8.html#ac18d5be1c0bf85cdc745f2f4b13a1929" target="_top" xlink:title=" ">
<polygon fill="white" stroke="#666666" points="280.5,-348 166.5,-348 166.5,-329 280.5,-329 280.5,-348"/>
<text text-anchor="middle" x="223.5" y="-336" font-family="Helvetica,sans-Serif" font-size="10.00">detail::to_utf8::c_str</text>
</a>
</g>
</g>
<!-- Node1&#45;&gt;Node3 -->
<g id="edge2_Node000001_Node000003" class="edge">
<title>Node1&#45;&gt;Node3</title>
<g id="a_edge2_Node000001_Node000003"><a xlink:title=" ">
<path fill="none" stroke="#63b8ff" d="M69.83,-214.67C83.91,-240.43 116,-292.61 158,-320.5 160.41,-322.1 162.95,-323.55 165.59,-324.88"/>
<polygon fill="#63b8ff" stroke="#63b8ff" points="164.27,-328.13 174.83,-328.92 167.07,-321.71 164.27,-328.13"/>
</a>
</g>
</g>
<!-- Node4 -->
<g id="Node000004" class="node">
<title>Node4</title>
<g id="a_Node000004"><a xlink:href="classdetail_1_1to__utf8.html#a67b84dad479dd6085173032aae71b2a1" target="_top" xlink:title=" ">
<polygon fill="white" stroke="#666666" points="287.5,-311 159.5,-311 159.5,-292 287.5,-292 287.5,-311"/>
<text text-anchor="middle" x="223.5" y="-299" font-family="Helvetica,sans-Serif" font-size="10.00">detail::to_utf8::convert</text>
</a>
</g>
</g>
<!-- Node1&#45;&gt;Node4 -->
<g id="edge3_Node000001_Node000004" class="edge">
<title>Node1&#45;&gt;Node4</title>
<g id="a_edge3_Node000001_Node000004"><a xlink:title=" ">
<path fill="none" stroke="#63b8ff" d="M75.1,-214.52C92.3,-233.33 124.29,-265.28 158,-283.5 161.31,-285.29 164.82,-286.92 168.42,-288.39"/>
<polygon fill="#63b8ff" stroke="#63b8ff" points="167.51,-291.78 178.1,-291.95 169.92,-285.21 167.51,-291.78"/>
</a>
</g>
</g>
<!-- Node5 -->
<g id="Node000005" class="node">
<title>Node5</title>
<g id="a_Node000005"><a xlink:href="classbasic__string__view.html#a39cdfe061dc6d64a3adc230b62d8a026" target="_top" xlink:title=" ">
<polygon fill="white" stroke="#666666" points="289,-274 158,-274 158,-255 289,-255 289,-274"/>
<text text-anchor="middle" x="223.5" y="-262" font-family="Helvetica,sans-Serif" font-size="10.00">basic_string_view::data</text>
</a>
</g>
</g>
<!-- Node1&#45;&gt;Node5 -->
<g id="edge4_Node000001_Node000005" class="edge">
<title>Node1&#45;&gt;Node5</title>
<g id="a_edge4_Node000001_Node000005"><a xlink:title=" ">
<path fill="none" stroke="#63b8ff" d="M90.46,-214.62C109.29,-224.25 134.71,-236.56 158,-245.5 163.94,-247.78 170.27,-249.95 176.55,-251.95"/>
<polygon fill="#63b8ff" stroke="#63b8ff" points="175.75,-255.37 186.34,-254.96 177.8,-248.67 175.75,-255.37"/>
</a>
</g>
</g>
<!-- Node6 -->
<g id="Node000006" class="node">
<title>Node6</title>
<g id="a_Node000006"><a xlink:href="namespacedetail.html#a7310d6153a1b874f94ff73933343c097" target="_top" xlink:title=" ">
<polygon fill="white" stroke="#666666" points="275.5,-236.5 171.5,-236.5 171.5,-206.5 275.5,-206.5 275.5,-236.5"/>
<text text-anchor="start" x="179.5" y="-224.5" font-family="Helvetica,sans-Serif" font-size="10.00">detail::get_classic</text>
<text text-anchor="middle" x="223.5" y="-213.5" font-family="Helvetica,sans-Serif" font-size="10.00">_locale</text>
</a>
</g>
</g>
<!-- Node1&#45;&gt;Node6 -->
<g id="edge5_Node000001_Node000006" class="edge">
<title>Node1&#45;&gt;Node6</title>
<g id="a_edge5_Node000001_Node000006"><a xlink:title=" ">
<path fill="none" stroke="#63b8ff" d="M122.22,-207.75C135,-209.51 148.49,-211.36 161.3,-213.11"/>
<polygon fill="#63b8ff" stroke="#63b8ff" points="161.02,-216.61 171.4,-214.5 161.97,-209.67 161.02,-216.61"/>
</a>
</g>
</g>
<!-- Node7 -->
<g id="Node000007" class="node">
<title>Node7</title>
<g id="a_Node000007"><a xlink:href="classdetail_1_1to__utf8.html#acf043bcd58cb1761787f93416fdc6399" target="_top" xlink:title=" ">
<polygon fill="white" stroke="#666666" points="278.5,-188 168.5,-188 168.5,-169 278.5,-169 278.5,-188"/>
<text text-anchor="middle" x="223.5" y="-176" font-family="Helvetica,sans-Serif" font-size="10.00">detail::to_utf8::size</text>
</a>
</g>
</g>
<!-- Node1&#45;&gt;Node7 -->
<g id="edge6_Node000001_Node000007" class="edge">
<title>Node1&#45;&gt;Node7</title>
<g id="a_edge6_Node000001_Node000007"><a xlink:title=" ">
<path fill="none" stroke="#63b8ff" d="M122.22,-191.62C133.92,-190.09 146.22,-188.48 158.04,-186.93"/>
<polygon fill="#63b8ff" stroke="#63b8ff" points="158.82,-190.36 168.29,-185.59 157.92,-183.42 158.82,-190.36"/>
</a>
</g>
</g>
<!-- Node8 -->
<g id="Node000008" class="node">
<title>Node8</title>
<g id="a_Node000008"><a xlink:href="classbasic__string__view.html#a216bbe1b012b590698d7bb4e96d1af3f" target="_top" xlink:title=" ">
<polygon fill="white" stroke="#666666" points="287.5,-151 159.5,-151 159.5,-132 287.5,-132 287.5,-151"/>
<text text-anchor="middle" x="223.5" y="-139" font-family="Helvetica,sans-Serif" font-size="10.00">basic_string_view::size</text>
</a>
</g>
</g>
<!-- Node1&#45;&gt;Node8 -->
<g id="edge7_Node000001_Node000008" class="edge">
<title>Node1&#45;&gt;Node8</title>
<g id="a_edge7_Node000001_Node000008"><a xlink:title=" ">
<path fill="none" stroke="#63b8ff" d="M96.79,-184.39C114.88,-176.79 137.45,-167.68 158,-160.5 164.44,-158.25 171.3,-156.04 178.06,-153.96"/>
<polygon fill="#63b8ff" stroke="#63b8ff" points="179.25,-157.26 187.82,-151.03 177.24,-150.55 179.25,-157.26"/>
</a>
</g>
</g>
<!-- Node9 -->
<g id="Node000009" class="node">
<title>Node9</title>
<g id="a_Node000009"><a xlink:href="namespacedetail.html#a4855e668246c731a97484efc329f2aac" target="_top" xlink:title=" ">
<polygon fill="white" stroke="#666666" points="278.5,-114 168.5,-114 168.5,-95 278.5,-95 278.5,-114"/>
<text text-anchor="middle" x="223.5" y="-102" font-family="Helvetica,sans-Serif" font-size="10.00">detail::to_unsigned</text>
</a>
</g>
</g>
<!-- Node1&#45;&gt;Node9 -->
<g id="edge8_Node000001_Node000009" class="edge">
<title>Node1&#45;&gt;Node9</title>
<g id="a_edge8_Node000001_Node000009"><a xlink:title=" ">
<path fill="none" stroke="#63b8ff" d="M77.31,-184.25C95.23,-167.2 126.48,-139.83 158,-123.5 162.31,-121.27 166.92,-119.26 171.62,-117.46"/>
<polygon fill="#63b8ff" stroke="#63b8ff" points="173.04,-120.67 181.32,-114.06 170.73,-114.07 173.04,-120.67"/>
</a>
</g>
</g>
<!-- Node10 -->
<g id="Node000010" class="node">
<title>Node10</title>
<g id="a_Node000010"><a xlink:href="classdetail_1_1to__utf8.html#aa5b103c0a5da3c0117536e48b1812925" target="_top" xlink:title=" ">
<polygon fill="white" stroke="#666666" points="286,-77 161,-77 161,-58 286,-58 286,-77"/>
<text text-anchor="middle" x="223.5" y="-65" font-family="Helvetica,sans-Serif" font-size="10.00">detail::to_utf8::to_utf8</text>
</a>
</g>
</g>
<!-- Node1&#45;&gt;Node10 -->
<g id="edge9_Node000001_Node000010" class="edge">
<title>Node1&#45;&gt;Node10</title>
<g id="a_edge9_Node000001_Node000010"><a xlink:title=" ">
<path fill="none" stroke="#63b8ff" d="M70.84,-184.24C85.72,-159.91 118.07,-112.46 158,-86.5 161.17,-84.44 164.57,-82.59 168.1,-80.94"/>
<polygon fill="#63b8ff" stroke="#63b8ff" points="169.72,-84.06 177.63,-77.02 167.05,-77.59 169.72,-84.06"/>
</a>
</g>
</g>
<!-- Node11 -->
<g id="Node000011" class="node">
<title>Node11</title>
<g id="a_Node000011"><a xlink:href="namespacedetail.html#af6c27ba56eb1be3b7dbdfc35d134d3e7" target="_top" xlink:title=" ">
<polygon fill="white" stroke="#666666" points="283,-40 164,-40 164,-21 283,-21 283,-40"/>
<text text-anchor="middle" x="223.5" y="-28" font-family="Helvetica,sans-Serif" font-size="10.00">detail::write_codecvt</text>
</a>
</g>
</g>
<!-- Node1&#45;&gt;Node11 -->
<g id="edge10_Node000001_Node000011" class="edge">
<title>Node1&#45;&gt;Node11</title>
<g id="a_edge10_Node000001_Node000011"><a xlink:title=" ">
<path fill="none" stroke="#63b8ff" d="M67.54,-184.17C79.32,-153.78 109.78,-85.7 158,-49.5 160.49,-47.63 163.15,-45.95 165.94,-44.43"/>
<polygon fill="#63b8ff" stroke="#63b8ff" points="167.58,-47.53 175.15,-40.12 164.61,-41.19 167.58,-47.53"/>
</a>
</g>
</g>
<!-- Node12 -->
<g id="Node000012" class="node">
<title>Node12</title>
<g id="a_Node000012"><a xlink:href="classbasic__string__view.html#a50d08a55660173ee8f89dee436207da3" target="_top" xlink:title=" ">
<polygon fill="white" stroke="#666666" points="443,-67.5 334,-67.5 334,-37.5 443,-37.5 443,-67.5"/>
<text text-anchor="start" x="342" y="-55.5" font-family="Helvetica,sans-Serif" font-size="10.00">basic_string_view::</text>
<text text-anchor="middle" x="388.5" y="-44.5" font-family="Helvetica,sans-Serif" font-size="10.00">begin</text>
</a>
</g>
</g>
<!-- Node11&#45;&gt;Node12 -->
<g id="edge11_Node000011_Node000012" class="edge">
<title>Node11&#45;&gt;Node12</title>
<g id="a_edge11_Node000011_Node000012"><a xlink:title=" ">
<path fill="none" stroke="#63b8ff" d="M283.35,-38.44C296.5,-40.22 310.51,-42.11 323.84,-43.91"/>
<polygon fill="#63b8ff" stroke="#63b8ff" points="323.51,-47.39 333.89,-45.26 324.45,-40.46 323.51,-47.39"/>
</a>
</g>
</g>
<!-- Node13 -->
<g id="Node000013" class="node">
<title>Node13</title>
<g id="a_Node000013"><a xlink:href="classbasic__string__view.html#a12fc892d9a99adbf90ed0e9c88f87a02" target="_top" xlink:title=" ">
<polygon fill="white" stroke="#666666" points="452,-19 325,-19 325,0 452,0 452,-19"/>
<text text-anchor="middle" x="388.5" y="-7" font-family="Helvetica,sans-Serif" font-size="10.00">basic_string_view::end</text>
</a>
</g>
</g>
<!-- Node11&#45;&gt;Node13 -->
<g id="edge12_Node000011_Node000013" class="edge">
<title>Node11&#45;&gt;Node13</title>
<g id="a_edge12_Node000011_Node000013"><a xlink:title=" ">
<path fill="none" stroke="#63b8ff" d="M283.35,-22.92C293.57,-21.6 304.32,-20.22 314.86,-18.86"/>
<polygon fill="#63b8ff" stroke="#63b8ff" points="315.42,-22.32 324.89,-17.57 314.52,-15.37 315.42,-22.32"/>
</a>
</g>
</g>
</g>
</svg>
