<?xml version="1.0" encoding="UTF-8" standalone="no"?>
<!DOCTYPE svg PUBLIC "-//W3C//DTD SVG 1.1//EN"
 "http://www.w3.org/Graphics/SVG/1.1/DTD/svg11.dtd">
<!-- Generated by graphviz version 2.43.0 (0)
 -->
<!-- Title: detail::in Pages: 1 -->
<svg width="389pt" height="110pt"
 viewBox="0.00 0.00 389.00 110.00" xmlns="http://www.w3.org/2000/svg" xmlns:xlink="http://www.w3.org/1999/xlink">
<g id="graph0" class="graph" transform="scale(1 1) rotate(0) translate(4 106)">
<title>detail::in</title>
<!-- Node1 -->
<g id="Node000001" class="node">
<title>Node1</title>
<g id="a_Node000001"><a xlink:title=" ">
<polygon fill="#999999" stroke="#666666" points="381,-48.5 322,-48.5 322,-29.5 381,-29.5 381,-48.5"/>
<text text-anchor="middle" x="351.5" y="-36.5" font-family="Helvetica,sans-Serif" font-size="10.00">detail::in</text>
</a>
</g>
</g>
<!-- Node2 -->
<g id="Node000002" class="node">
<title>Node2</title>
<g id="a_Node000002"><a xlink:href="namespacedetail.html#afbb7f1837c4f769e74317dec368c5206" target="_top" xlink:title=" ">
<polygon fill="white" stroke="#666666" points="286,-78 170,-78 170,-48 286,-48 286,-78"/>
<text text-anchor="start" x="178" y="-66" font-family="Helvetica,sans-Serif" font-size="10.00">detail::parse_format</text>
<text text-anchor="middle" x="228" y="-55" font-family="Helvetica,sans-Serif" font-size="10.00">_specs</text>
</a>
</g>
</g>
<!-- Node1&#45;&gt;Node2 -->
<g id="edge1_Node000001_Node000002" class="edge">
<title>Node1&#45;&gt;Node2</title>
<g id="a_edge1_Node000001_Node000002"><a xlink:title=" ">
<path fill="none" stroke="#63b8ff" d="M311.77,-46.65C303.63,-48.26 294.88,-49.99 286.23,-51.7"/>
<polygon fill="#63b8ff" stroke="#63b8ff" points="312.57,-50.06 321.71,-44.69 311.22,-43.19 312.57,-50.06"/>
</a>
</g>
</g>
<!-- Node5 -->
<g id="Node000005" class="node">
<title>Node5</title>
<g id="a_Node000005"><a xlink:href="namespacedetail.html#aa2cb095169b23e3a66260ad7078f44cc" target="_top" xlink:title=" ">
<polygon fill="white" stroke="#666666" points="283,-30 173,-30 173,0 283,0 283,-30"/>
<text text-anchor="start" x="181" y="-18" font-family="Helvetica,sans-Serif" font-size="10.00">detail::parse_printf</text>
<text text-anchor="middle" x="228" y="-7" font-family="Helvetica,sans-Serif" font-size="10.00">_presentation_type</text>
</a>
</g>
</g>
<!-- Node1&#45;&gt;Node5 -->
<g id="edge4_Node000001_Node000005" class="edge">
<title>Node1&#45;&gt;Node5</title>
<g id="a_edge4_Node000001_Node000005"><a xlink:title=" ">
<path fill="none" stroke="#63b8ff" d="M311.84,-31.36C302.76,-29.57 292.93,-27.63 283.31,-25.73"/>
<polygon fill="#63b8ff" stroke="#63b8ff" points="311.22,-34.81 321.71,-33.31 312.57,-27.94 311.22,-34.81"/>
</a>
</g>
</g>
<!-- Node3 -->
<g id="Node000003" class="node">
<title>Node3</title>
<g id="a_Node000003"><a xlink:href="structformatter_3_01bytes_01_4.html#aea6a86c93b8c788b275fcccb7a841123" target="_top" xlink:title=" ">
<polygon fill="white" stroke="#666666" points="123.5,-102 10.5,-102 10.5,-72 123.5,-72 123.5,-102"/>
<text text-anchor="start" x="18.5" y="-90" font-family="Helvetica,sans-Serif" font-size="10.00">formatter&lt; bytes &gt;</text>
<text text-anchor="middle" x="67" y="-79" font-family="Helvetica,sans-Serif" font-size="10.00">::parse</text>
</a>
</g>
</g>
<!-- Node2&#45;&gt;Node3 -->
<g id="edge2_Node000002_Node000003" class="edge">
<title>Node2&#45;&gt;Node3</title>
<g id="a_edge2_Node000002_Node000003"><a xlink:title=" ">
<path fill="none" stroke="#63b8ff" d="M159.65,-73.17C147.68,-74.97 135.33,-76.84 123.72,-78.59"/>
<polygon fill="#63b8ff" stroke="#63b8ff" points="160.23,-76.62 169.6,-71.66 159.19,-69.7 160.23,-76.62"/>
</a>
</g>
</g>
<!-- Node4 -->
<g id="Node000004" class="node">
<title>Node4</title>
<g id="a_Node000004"><a xlink:href="structformatter_3_01group__digits__view_3_01T_01_4_01_4.html#a226542969556b083f4f036307760a958" target="_top" xlink:title=" ">
<polygon fill="white" stroke="#666666" points="134,-54 0,-54 0,-24 134,-24 134,-54"/>
<text text-anchor="start" x="8" y="-42" font-family="Helvetica,sans-Serif" font-size="10.00">formatter&lt; group_digits</text>
<text text-anchor="middle" x="67" y="-31" font-family="Helvetica,sans-Serif" font-size="10.00">_view&lt; T &gt; &gt;::parse</text>
</a>
</g>
</g>
<!-- Node2&#45;&gt;Node4 -->
<g id="edge3_Node000002_Node000004" class="edge">
<title>Node2&#45;&gt;Node4</title>
<g id="a_edge3_Node000002_Node000004"><a xlink:title=" ">
<path fill="none" stroke="#63b8ff" d="M159.5,-52.81C151.14,-51.55 142.59,-50.26 134.24,-49"/>
<polygon fill="#63b8ff" stroke="#63b8ff" points="159.19,-56.3 169.6,-54.34 160.23,-49.38 159.19,-56.3"/>
</a>
</g>
</g>
</g>
</svg>
