<?xml version="1.0" encoding="UTF-8" standalone="no"?>
<!DOCTYPE svg PUBLIC "-//W3C//DTD SVG 1.1//EN"
 "http://www.w3.org/Graphics/SVG/1.1/DTD/svg11.dtd">
<!-- Generated by graphviz version 2.43.0 (0)
 -->
<!-- Title: detail::write_int Pages: 1 -->
<svg width="247pt" height="187pt"
 viewBox="0.00 0.00 247.00 187.00" xmlns="http://www.w3.org/2000/svg" xmlns:xlink="http://www.w3.org/1999/xlink">
<g id="graph0" class="graph" transform="scale(1 1) rotate(0) translate(4 183)">
<title>detail::write_int</title>
<!-- Node1 -->
<g id="Node000001" class="node">
<title>Node1</title>
<g id="a_Node000001"><a xlink:title=" ">
<polygon fill="#999999" stroke="#666666" points="93,-93 0,-93 0,-74 93,-74 93,-93"/>
<text text-anchor="middle" x="46.5" y="-81" font-family="Helvetica,sans-Serif" font-size="10.00">detail::write_int</text>
</a>
</g>
</g>
<!-- Node2 -->
<g id="Node000002" class="node">
<title>Node2</title>
<g id="a_Node000002"><a xlink:href="classbasic__specs.html#aba82b10e634cd4cf7a2d107efc8269c8" target="_top" xlink:title=" ">
<polygon fill="white" stroke="#666666" points="231,-179 137,-179 137,-160 231,-160 231,-179"/>
<text text-anchor="middle" x="184" y="-167" font-family="Helvetica,sans-Serif" font-size="10.00">basic_specs::alt</text>
</a>
</g>
</g>
<!-- Node1&#45;&gt;Node2 -->
<g id="edge1_Node000001_Node000002" class="edge">
<title>Node1&#45;&gt;Node2</title>
<g id="a_edge1_Node000001_Node000002"><a xlink:title=" ">
<path fill="none" stroke="#63b8ff" d="M57.19,-93.43C71.65,-107.77 100.28,-134.31 129,-150.5 132.65,-152.56 136.57,-154.45 140.56,-156.19"/>
<polygon fill="#63b8ff" stroke="#63b8ff" points="139.34,-159.47 149.93,-159.92 141.94,-152.97 139.34,-159.47"/>
</a>
</g>
</g>
<!-- Node3 -->
<g id="Node000003" class="node">
<title>Node3</title>
<g id="a_Node000003"><a xlink:href="namespacedetail.html#a75ed2634319883d038944529dbb954e2" target="_top" xlink:title=" ">
<polygon fill="white" stroke="#666666" points="237,-141.5 131,-141.5 131,-111.5 237,-111.5 237,-141.5"/>
<text text-anchor="start" x="139" y="-129.5" font-family="Helvetica,sans-Serif" font-size="10.00">detail::is_constant</text>
<text text-anchor="middle" x="184" y="-118.5" font-family="Helvetica,sans-Serif" font-size="10.00">_evaluated</text>
</a>
</g>
</g>
<!-- Node1&#45;&gt;Node3 -->
<g id="edge2_Node000001_Node000003" class="edge">
<title>Node1&#45;&gt;Node3</title>
<g id="a_edge2_Node000001_Node000003"><a xlink:title=" ">
<path fill="none" stroke="#63b8ff" d="M77.57,-93.04C91.85,-97.57 109.39,-103.14 126.04,-108.43"/>
<polygon fill="#63b8ff" stroke="#63b8ff" points="125.12,-111.8 135.71,-111.49 127.24,-105.13 125.12,-111.8"/>
</a>
</g>
</g>
<!-- Node4 -->
<g id="Node000004" class="node">
<title>Node4</title>
<g id="a_Node000004"><a xlink:href="namespacedetail.html#a4855e668246c731a97484efc329f2aac" target="_top" xlink:title=" ">
<polygon fill="white" stroke="#666666" points="239,-93 129,-93 129,-74 239,-74 239,-93"/>
<text text-anchor="middle" x="184" y="-81" font-family="Helvetica,sans-Serif" font-size="10.00">detail::to_unsigned</text>
</a>
</g>
</g>
<!-- Node1&#45;&gt;Node4 -->
<g id="edge3_Node000001_Node000004" class="edge">
<title>Node1&#45;&gt;Node4</title>
<g id="a_edge3_Node000001_Node000004"><a xlink:title=" ">
<path fill="none" stroke="#63b8ff" d="M93.37,-83.5C101.45,-83.5 110,-83.5 118.47,-83.5"/>
<polygon fill="#63b8ff" stroke="#63b8ff" points="118.74,-87 128.74,-83.5 118.74,-80 118.74,-87"/>
</a>
</g>
</g>
<!-- Node5 -->
<g id="Node000005" class="node">
<title>Node5</title>
<g id="a_Node000005"><a xlink:href="classbasic__specs.html#ab451ba98e651e28feab471f1871f1e5c" target="_top" xlink:title=" ">
<polygon fill="white" stroke="#666666" points="235.5,-56 132.5,-56 132.5,-37 235.5,-37 235.5,-56"/>
<text text-anchor="middle" x="184" y="-44" font-family="Helvetica,sans-Serif" font-size="10.00">basic_specs::type</text>
</a>
</g>
</g>
<!-- Node1&#45;&gt;Node5 -->
<g id="edge4_Node000001_Node000005" class="edge">
<title>Node1&#45;&gt;Node5</title>
<g id="a_edge4_Node000001_Node000005"><a xlink:title=" ">
<path fill="none" stroke="#63b8ff" d="M82.39,-73.97C99.33,-69.35 119.88,-63.73 137.99,-58.79"/>
<polygon fill="#63b8ff" stroke="#63b8ff" points="139.03,-62.14 147.75,-56.12 137.18,-55.38 139.03,-62.14"/>
</a>
</g>
</g>
<!-- Node6 -->
<g id="Node000006" class="node">
<title>Node6</title>
<g id="a_Node000006"><a xlink:href="classbasic__specs.html#a833c72e9e4eca49a0ed1dca7caf0ce5d" target="_top" xlink:title=" ">
<polygon fill="white" stroke="#666666" points="238.5,-19 129.5,-19 129.5,0 238.5,0 238.5,-19"/>
<text text-anchor="middle" x="184" y="-7" font-family="Helvetica,sans-Serif" font-size="10.00">basic_specs::upper</text>
</a>
</g>
</g>
<!-- Node1&#45;&gt;Node6 -->
<g id="edge5_Node000001_Node000006" class="edge">
<title>Node1&#45;&gt;Node6</title>
<g id="a_edge5_Node000001_Node000006"><a xlink:title=" ">
<path fill="none" stroke="#63b8ff" d="M59.59,-73.88C75,-61.98 102.77,-41.69 129,-28.5 133.11,-26.43 137.49,-24.5 141.92,-22.7"/>
<polygon fill="#63b8ff" stroke="#63b8ff" points="143.49,-25.85 151.6,-19.03 141.01,-19.31 143.49,-25.85"/>
</a>
</g>
</g>
</g>
</svg>
