<?xml version="1.0" encoding="UTF-8" standalone="no"?>
<!DOCTYPE svg PUBLIC "-//W3C//DTD SVG 1.1//EN"
 "http://www.w3.org/Graphics/SVG/1.1/DTD/svg11.dtd">
<!-- Generated by graphviz version 2.43.0 (0)
 -->
<!-- Title: detail::parse_format_specs Pages: 1 -->
<svg width="301pt" height="175pt"
 viewBox="0.00 0.00 301.00 175.00" xmlns="http://www.w3.org/2000/svg" xmlns:xlink="http://www.w3.org/1999/xlink">
<g id="graph0" class="graph" transform="scale(1 1) rotate(0) translate(4 171)">
<title>detail::parse_format_specs</title>
<!-- Node1 -->
<g id="Node000001" class="node">
<title>Node1</title>
<g id="a_Node000001"><a xlink:title=" ">
<polygon fill="#999999" stroke="#666666" points="116,-98.5 0,-98.5 0,-68.5 116,-68.5 116,-98.5"/>
<text text-anchor="start" x="8" y="-86.5" font-family="Helvetica,sans-Serif" font-size="10.00">detail::parse_format</text>
<text text-anchor="middle" x="58" y="-75.5" font-family="Helvetica,sans-Serif" font-size="10.00">_specs</text>
</a>
</g>
</g>
<!-- Node2 -->
<g id="Node000002" class="node">
<title>Node2</title>
<g id="a_Node000002"><a xlink:href="namespacedetail.html#a52a5e2ed06c229dcf95ea5c46d48d05e" target="_top" xlink:title=" ">
<polygon fill="white" stroke="#666666" points="252,-167 193,-167 193,-148 252,-148 252,-167"/>
<text text-anchor="middle" x="222.5" y="-155" font-family="Helvetica,sans-Serif" font-size="10.00">detail::in</text>
</a>
</g>
</g>
<!-- Node1&#45;&gt;Node2 -->
<g id="edge1_Node000001_Node000002" class="edge">
<title>Node1&#45;&gt;Node2</title>
<g id="a_edge1_Node000001_Node000002"><a xlink:title=" ">
<path fill="none" stroke="#63b8ff" d="M80.22,-98.72C98.49,-111.21 125.94,-128.55 152,-139.5 161.74,-143.59 172.65,-146.95 182.88,-149.6"/>
<polygon fill="#63b8ff" stroke="#63b8ff" points="182.28,-153.06 192.82,-152.03 183.94,-146.26 182.28,-153.06"/>
</a>
</g>
</g>
<!-- Node3 -->
<g id="Node000003" class="node">
<title>Node3</title>
<g id="a_Node000003"><a xlink:href="namespacedetail.html#a802c50a56a3495fdab6020b375ba1389" target="_top" xlink:title=" ">
<polygon fill="white" stroke="#666666" points="293,-130 152,-130 152,-111 293,-111 293,-130"/>
<text text-anchor="middle" x="222.5" y="-118" font-family="Helvetica,sans-Serif" font-size="10.00">detail::is_arithmetic_type</text>
</a>
</g>
</g>
<!-- Node1&#45;&gt;Node3 -->
<g id="edge2_Node000001_Node000003" class="edge">
<title>Node1&#45;&gt;Node3</title>
<g id="a_edge2_Node000001_Node000003"><a xlink:title=" ">
<path fill="none" stroke="#63b8ff" d="M116.29,-96.54C133.71,-100.51 152.74,-104.84 169.76,-108.72"/>
<polygon fill="#63b8ff" stroke="#63b8ff" points="169,-112.14 179.53,-110.94 170.56,-105.31 169,-112.14"/>
</a>
</g>
</g>
<!-- Node4 -->
<g id="Node000004" class="node">
<title>Node4</title>
<g id="a_Node000004"><a xlink:href="namespacedetail.html#ac9e2fcbf2e068bb286f629946e0bb31d" target="_top" xlink:title=" ">
<polygon fill="white" stroke="#666666" points="276,-93 169,-93 169,-74 276,-74 276,-93"/>
<text text-anchor="middle" x="222.5" y="-81" font-family="Helvetica,sans-Serif" font-size="10.00">detail::parse_align</text>
</a>
</g>
</g>
<!-- Node1&#45;&gt;Node4 -->
<g id="edge3_Node000001_Node000004" class="edge">
<title>Node1&#45;&gt;Node4</title>
<g id="a_edge3_Node000001_Node000004"><a xlink:title=" ">
<path fill="none" stroke="#63b8ff" d="M116.29,-83.5C130.04,-83.5 144.8,-83.5 158.78,-83.5"/>
<polygon fill="#63b8ff" stroke="#63b8ff" points="158.8,-87 168.8,-83.5 158.8,-80 158.8,-87"/>
</a>
</g>
</g>
<!-- Node5 -->
<g id="Node000005" class="node">
<title>Node5</title>
<g id="a_Node000005"><a xlink:href="format-inl_8h.html#a5555893692b00b61b3886349332fd01f" target="_top" xlink:title=" ">
<polygon fill="white" stroke="#666666" points="259.5,-56 185.5,-56 185.5,-37 259.5,-37 259.5,-56"/>
<text text-anchor="middle" x="222.5" y="-44" font-family="Helvetica,sans-Serif" font-size="10.00">report_error</text>
</a>
</g>
</g>
<!-- Node1&#45;&gt;Node5 -->
<g id="edge4_Node000001_Node000005" class="edge">
<title>Node1&#45;&gt;Node5</title>
<g id="a_edge4_Node000001_Node000005"><a xlink:title=" ">
<path fill="none" stroke="#63b8ff" d="M116.29,-70.46C135.72,-66.03 157.16,-61.15 175.58,-56.96"/>
<polygon fill="#63b8ff" stroke="#63b8ff" points="176.5,-60.34 185.48,-54.7 174.95,-53.51 176.5,-60.34"/>
</a>
</g>
</g>
<!-- Node6 -->
<g id="Node000006" class="node">
<title>Node6</title>
<g id="a_Node000006"><a xlink:href="classbasic__specs.html#ae6d1338471c931505ddcaf600557e830" target="_top" xlink:title=" ">
<polygon fill="white" stroke="#666666" points="284,-19 161,-19 161,0 284,0 284,-19"/>
<text text-anchor="middle" x="222.5" y="-7" font-family="Helvetica,sans-Serif" font-size="10.00">basic_specs::set_type</text>
</a>
</g>
</g>
<!-- Node1&#45;&gt;Node6 -->
<g id="edge5_Node000001_Node000006" class="edge">
<title>Node1&#45;&gt;Node6</title>
<g id="a_edge5_Node000001_Node000006"><a xlink:title=" ">
<path fill="none" stroke="#63b8ff" d="M80.67,-68.42C98.98,-56.24 126.26,-39.4 152,-28.5 157.53,-26.16 163.44,-24.02 169.38,-22.11"/>
<polygon fill="#63b8ff" stroke="#63b8ff" points="170.8,-25.33 179.36,-19.08 168.77,-18.63 170.8,-25.33"/>
</a>
</g>
</g>
</g>
</svg>
