<?xml version="1.0" encoding="UTF-8" standalone="no"?>
<!DOCTYPE svg PUBLIC "-//W3C//DTD SVG 1.1//EN"
 "http://www.w3.org/Graphics/SVG/1.1/DTD/svg11.dtd">
<!-- Generated by graphviz version 2.43.0 (0)
 -->
<!-- Title: detail::is_constant_evaluated Pages: 1 -->
<svg width="490pt" height="1755pt"
 viewBox="0.00 0.00 490.00 1754.50" xmlns="http://www.w3.org/2000/svg" xmlns:xlink="http://www.w3.org/1999/xlink">
<g id="graph0" class="graph" transform="scale(1 1) rotate(0) translate(4 1750.5)">
<title>detail::is_constant_evaluated</title>
<!-- Node1 -->
<g id="Node000001" class="node">
<title>Node1</title>
<g id="a_Node000001"><a xlink:title=" ">
<polygon fill="#999999" stroke="#666666" points="482,-449.5 376,-449.5 376,-419.5 482,-419.5 482,-449.5"/>
<text text-anchor="start" x="384" y="-437.5" font-family="Helvetica,sans-Serif" font-size="10.00">detail::is_constant</text>
<text text-anchor="middle" x="429" y="-426.5" font-family="Helvetica,sans-Serif" font-size="10.00">_evaluated</text>
</a>
</g>
</g>
<!-- Node2 -->
<g id="Node000002" class="node">
<title>Node2</title>
<g id="a_Node000002"><a xlink:href="classbasic__memory__buffer.html#a7a9300acfadb00a835b36a86a198f433" target="_top" xlink:title=" ">
<polygon fill="white" stroke="#666666" points="328.5,-1385.5 200.5,-1385.5 200.5,-1355.5 328.5,-1355.5 328.5,-1385.5"/>
<text text-anchor="start" x="208.5" y="-1373.5" font-family="Helvetica,sans-Serif" font-size="10.00">basic_memory_buffer</text>
<text text-anchor="middle" x="264.5" y="-1362.5" font-family="Helvetica,sans-Serif" font-size="10.00">::basic_memory_buffer</text>
</a>
</g>
</g>
<!-- Node1&#45;&gt;Node2 -->
<g id="edge1_Node000001_Node000002" class="edge">
<title>Node1&#45;&gt;Node2</title>
<g id="a_edge1_Node000001_Node000002"><a xlink:title=" ">
<path fill="none" stroke="#63b8ff" d="M423.66,-459.5C400.01,-595.75 287,-1246.68 268.16,-1355.16"/>
<polygon fill="#63b8ff" stroke="#63b8ff" points="427.12,-460.03 425.38,-449.58 420.22,-458.84 427.12,-460.03"/>
</a>
</g>
</g>
<!-- Node27 -->
<g id="Node000027" class="node">
<title>Node27</title>
<g id="a_Node000027"><a xlink:href="classbasic__string__view.html#a039a92fee947263a6c75dc6afd879719" target="_top" xlink:title=" ">
<polygon fill="white" stroke="#666666" points="319,-898.5 210,-898.5 210,-868.5 319,-868.5 319,-898.5"/>
<text text-anchor="start" x="218" y="-886.5" font-family="Helvetica,sans-Serif" font-size="10.00">basic_string_view::</text>
<text text-anchor="middle" x="264.5" y="-875.5" font-family="Helvetica,sans-Serif" font-size="10.00">basic_string_view</text>
</a>
</g>
</g>
<!-- Node1&#45;&gt;Node27 -->
<g id="edge20_Node000001_Node000027" class="edge">
<title>Node1&#45;&gt;Node27</title>
<g id="a_edge20_Node000001_Node000027"><a xlink:title=" ">
<path fill="none" stroke="#63b8ff" d="M426.83,-459.67C422.96,-522.6 406.63,-690.28 340,-809.5 326.57,-833.53 303.06,-854.96 286.04,-868.49"/>
<polygon fill="#63b8ff" stroke="#63b8ff" points="430.34,-459.68 427.41,-449.5 423.35,-459.29 430.34,-459.68"/>
</a>
</g>
</g>
<!-- Node34 -->
<g id="Node000034" class="node">
<title>Node34</title>
<g id="a_Node000034"><a xlink:href="namespacedetail.html#a0ceb10ccba97bb9ee464ff31e6349511" target="_top" xlink:title=" ">
<polygon fill="white" stroke="#666666" points="311,-800 218,-800 218,-781 311,-781 311,-800"/>
<text text-anchor="middle" x="264.5" y="-788" font-family="Helvetica,sans-Serif" font-size="10.00">detail::compare</text>
</a>
</g>
</g>
<!-- Node1&#45;&gt;Node34 -->
<g id="edge28_Node000001_Node000034" class="edge">
<title>Node1&#45;&gt;Node34</title>
<g id="a_edge28_Node000001_Node000034"><a xlink:title=" ">
<path fill="none" stroke="#63b8ff" d="M424.74,-460.18C415.2,-531.23 385.16,-728.13 340,-772.5 332.22,-780.15 321.78,-784.74 311.18,-787.46"/>
<polygon fill="#63b8ff" stroke="#63b8ff" points="428.26,-460.27 426.09,-449.9 421.32,-459.36 428.26,-460.27"/>
</a>
</g>
</g>
<!-- Node35 -->
<g id="Node000035" class="node">
<title>Node35</title>
<g id="a_Node000035"><a xlink:href="namespacedetail.html#a954f68f2f50c99670d0b708bafb259f7" target="_top" xlink:title=" ">
<polygon fill="white" stroke="#666666" points="319.5,-763 209.5,-763 209.5,-744 319.5,-744 319.5,-763"/>
<text text-anchor="middle" x="264.5" y="-751" font-family="Helvetica,sans-Serif" font-size="10.00">detail::count_digits</text>
</a>
</g>
</g>
<!-- Node1&#45;&gt;Node35 -->
<g id="edge29_Node000001_Node000035" class="edge">
<title>Node1&#45;&gt;Node35</title>
<g id="a_edge29_Node000001_Node000035"><a xlink:title=" ">
<path fill="none" stroke="#63b8ff" d="M428.53,-459.72C428.28,-517.43 419.21,-659.96 340,-735.5 334.32,-740.92 327.3,-744.8 319.86,-747.55"/>
<polygon fill="#63b8ff" stroke="#63b8ff" points="432.03,-459.64 428.48,-449.65 425.03,-459.67 432.03,-459.64"/>
</a>
</g>
</g>
<!-- Node36 -->
<g id="Node000036" class="node">
<title>Node36</title>
<g id="a_Node000036"><a xlink:href="namespacedetail.html#ac83427f5f16569571f442ec01887e045" target="_top" xlink:title=" ">
<polygon fill="#fff0f0" stroke="red" points="319.5,-726 209.5,-726 209.5,-707 319.5,-707 319.5,-726"/>
<text text-anchor="middle" x="264.5" y="-714" font-family="Helvetica,sans-Serif" font-size="10.00">detail::count_digits</text>
</a>
</g>
</g>
<!-- Node1&#45;&gt;Node36 -->
<g id="edge30_Node000001_Node000036" class="edge">
<title>Node1&#45;&gt;Node36</title>
<g id="a_edge30_Node000001_Node000036"><a xlink:title=" ">
<path fill="none" stroke="#63b8ff" d="M426.64,-459.94C422.53,-511.21 406.03,-627.59 340,-692.5 333.6,-698.79 325.55,-703.43 317.13,-706.85"/>
<polygon fill="#63b8ff" stroke="#63b8ff" points="430.15,-459.97 427.36,-449.75 423.17,-459.48 430.15,-459.97"/>
</a>
</g>
</g>
<!-- Node47 -->
<g id="Node000047" class="node">
<title>Node47</title>
<g id="a_Node000047"><a xlink:href="namespacedetail.html#a9b8558a7dd3fae49bbf1aa59becad362" target="_top" xlink:title=" ">
<polygon fill="white" stroke="#666666" points="139.5,-688 13.5,-688 13.5,-669 139.5,-669 139.5,-688"/>
<text text-anchor="middle" x="76.5" y="-676" font-family="Helvetica,sans-Serif" font-size="10.00">detail::write_exponent</text>
</a>
</g>
</g>
<!-- Node1&#45;&gt;Node47 -->
<g id="edge52_Node000001_Node000047" class="edge">
<title>Node1&#45;&gt;Node47</title>
<g id="a_edge52_Node000001_Node000047"><a xlink:title=" ">
<path fill="none" stroke="#63b8ff" d="M426.5,-459.62C422.17,-507.51 405.31,-611.37 340,-659.5 275.26,-707.21 175.47,-698.3 119.42,-688.07"/>
<polygon fill="#63b8ff" stroke="#63b8ff" points="430,-459.75 427.31,-449.51 423.03,-459.2 430,-459.75"/>
</a>
</g>
</g>
<!-- Node48 -->
<g id="Node000048" class="node">
<title>Node48</title>
<g id="a_Node000048"><a xlink:href="namespacedetail.html#ae970ad8cf6b25d7896f788089ca1b0eb" target="_top" xlink:title=" ">
<polygon fill="#fff0f0" stroke="red" points="319.5,-650 209.5,-650 209.5,-631 319.5,-631 319.5,-650"/>
<text text-anchor="middle" x="264.5" y="-638" font-family="Helvetica,sans-Serif" font-size="10.00">detail::count_digits</text>
</a>
</g>
</g>
<!-- Node1&#45;&gt;Node48 -->
<g id="edge33_Node000001_Node000048" class="edge">
<title>Node1&#45;&gt;Node48</title>
<g id="a_edge33_Node000001_Node000048"><a xlink:title=" ">
<path fill="none" stroke="#63b8ff" d="M423.49,-459.54C414.81,-500.16 391.88,-580.12 340,-622.5 334.02,-627.38 326.93,-630.98 319.53,-633.62"/>
<polygon fill="#63b8ff" stroke="#63b8ff" points="426.94,-460.15 425.48,-449.65 420.07,-458.76 426.94,-460.15"/>
</a>
</g>
</g>
<!-- Node55 -->
<g id="Node000055" class="node">
<title>Node55</title>
<g id="a_Node000055"><a xlink:href="namespacedetail.html#af252d1b8eaeab79d234b012c14fd58b0" target="_top" xlink:title=" ">
<polygon fill="#fff0f0" stroke="red" points="318,-613 211,-613 211,-594 318,-594 318,-613"/>
<text text-anchor="middle" x="264.5" y="-601" font-family="Helvetica,sans-Serif" font-size="10.00">detail::countl_zero</text>
</a>
</g>
</g>
<!-- Node1&#45;&gt;Node55 -->
<g id="edge34_Node000001_Node000055" class="edge">
<title>Node1&#45;&gt;Node55</title>
<g id="a_edge34_Node000001_Node000055"><a xlink:title=" ">
<path fill="none" stroke="#63b8ff" d="M420.46,-459.24C408.83,-493.09 383.23,-553.31 340,-585.5 333.6,-590.27 326.1,-593.79 318.38,-596.39"/>
<polygon fill="#63b8ff" stroke="#63b8ff" points="423.82,-460.24 423.62,-449.64 417.17,-458.04 423.82,-460.24"/>
</a>
</g>
</g>
<!-- Node59 -->
<g id="Node000059" class="node">
<title>Node59</title>
<g id="a_Node000059"><a xlink:href="namespacedetail.html#a2702395aa58ba76ee2ecab3bfdb3cc3b" target="_top" xlink:title=" ">
<polygon fill="white" stroke="#666666" points="318,-576 211,-576 211,-557 318,-557 318,-576"/>
<text text-anchor="middle" x="264.5" y="-564" font-family="Helvetica,sans-Serif" font-size="10.00">detail::countl_zero</text>
</a>
</g>
</g>
<!-- Node1&#45;&gt;Node59 -->
<g id="edge35_Node000001_Node000059" class="edge">
<title>Node1&#45;&gt;Node59</title>
<g id="a_edge35_Node000001_Node000059"><a xlink:title=" ">
<path fill="none" stroke="#63b8ff" d="M414.28,-458.43C399.09,-482.89 372.41,-520.36 340,-542.5 330.91,-548.71 320.12,-553.39 309.6,-556.89"/>
<polygon fill="#63b8ff" stroke="#63b8ff" points="417.35,-460.11 419.53,-449.75 411.36,-456.49 417.35,-460.11"/>
</a>
</g>
</g>
<!-- Node58 -->
<g id="Node000058" class="node">
<title>Node58</title>
<g id="a_Node000058"><a xlink:href="namespacedetail.html#add861c358ea50b446b1a06080adb44ba" target="_top" xlink:title=" ">
<polygon fill="white" stroke="#666666" points="131.5,-501 21.5,-501 21.5,-482 131.5,-482 131.5,-501"/>
<text text-anchor="middle" x="76.5" y="-489" font-family="Helvetica,sans-Serif" font-size="10.00">detail::format_float</text>
</a>
</g>
</g>
<!-- Node1&#45;&gt;Node58 -->
<g id="edge42_Node000001_Node000058" class="edge">
<title>Node1&#45;&gt;Node58</title>
<g id="a_edge42_Node000001_Node000058"><a xlink:title=" ">
<path fill="none" stroke="#63b8ff" d="M409.49,-457.38C393.33,-475.4 368.1,-499.15 340,-509.5 259.63,-539.1 156.17,-515.69 106.56,-501.04"/>
<polygon fill="#63b8ff" stroke="#63b8ff" points="412.35,-459.42 416.26,-449.57 407.06,-454.84 412.35,-459.42"/>
</a>
</g>
</g>
<!-- Node60 -->
<g id="Node000060" class="node">
<title>Node60</title>
<g id="a_Node000060"><a xlink:href="namespacedetail.html#ae25db05d115230b68094fc27377a987a" target="_top" xlink:title=" ">
<polygon fill="white" stroke="#666666" points="337,-500 192,-500 192,-481 337,-481 337,-500"/>
<text text-anchor="middle" x="264.5" y="-488" font-family="Helvetica,sans-Serif" font-size="10.00">detail::do_format_decimal</text>
</a>
</g>
</g>
<!-- Node1&#45;&gt;Node60 -->
<g id="edge37_Node000001_Node000060" class="edge">
<title>Node1&#45;&gt;Node60</title>
<g id="a_edge37_Node000001_Node000060"><a xlink:title=" ">
<path fill="none" stroke="#63b8ff" d="M387.41,-453.75C372.69,-460.27 355.8,-467.22 340,-472.5 330.53,-475.66 320.22,-478.52 310.37,-480.97"/>
<polygon fill="#63b8ff" stroke="#63b8ff" points="389.06,-456.84 396.74,-449.55 386.18,-450.46 389.06,-456.84"/>
</a>
</g>
</g>
<!-- Node61 -->
<g id="Node000061" class="node">
<title>Node61</title>
<g id="a_Node000061"><a xlink:href="namespacedetail.html#a5487233928258ddc5c79fdd3f0f745c7" target="_top" xlink:title=" ">
<polygon fill="white" stroke="#666666" points="301.5,-463 227.5,-463 227.5,-444 301.5,-444 301.5,-463"/>
<text text-anchor="middle" x="264.5" y="-451" font-family="Helvetica,sans-Serif" font-size="10.00">detail::fill_n</text>
</a>
</g>
</g>
<!-- Node1&#45;&gt;Node61 -->
<g id="edge38_Node000001_Node000061" class="edge">
<title>Node1&#45;&gt;Node61</title>
<g id="a_edge38_Node000001_Node000061"><a xlink:title=" ">
<path fill="none" stroke="#63b8ff" d="M365.56,-441.8C343.89,-444.33 320.33,-447.09 301.52,-449.29"/>
<polygon fill="#63b8ff" stroke="#63b8ff" points="366.16,-445.25 375.69,-440.62 365.35,-438.3 366.16,-445.25"/>
</a>
</g>
</g>
<!-- Node62 -->
<g id="Node000062" class="node">
<title>Node62</title>
<g id="a_Node000062"><a xlink:href="namespacedetail.html#a90a74b70e2d82cda57643f27f51cb564" target="_top" xlink:title=" ">
<polygon fill="white" stroke="#666666" points="326.5,-426 202.5,-426 202.5,-407 326.5,-407 326.5,-426"/>
<text text-anchor="middle" x="264.5" y="-414" font-family="Helvetica,sans-Serif" font-size="10.00">detail::format_base2e</text>
</a>
</g>
</g>
<!-- Node1&#45;&gt;Node62 -->
<g id="edge40_Node000001_Node000062" class="edge">
<title>Node1&#45;&gt;Node62</title>
<g id="a_edge40_Node000001_Node000062"><a xlink:title=" ">
<path fill="none" stroke="#63b8ff" d="M365.63,-427.59C352.89,-426.18 339.48,-424.7 326.78,-423.29"/>
<polygon fill="#63b8ff" stroke="#63b8ff" points="365.36,-431.08 375.69,-428.71 366.14,-424.13 365.36,-431.08"/>
</a>
</g>
</g>
<!-- Node63 -->
<g id="Node000063" class="node">
<title>Node63</title>
<g id="a_Node000063"><a xlink:href="namespacedetail.html#ab1ad401dfdecc25c3c73df137d4bee04" target="_top" xlink:title=" ">
<polygon fill="#fff0f0" stroke="red" points="328.5,-389 200.5,-389 200.5,-370 328.5,-370 328.5,-389"/>
<text text-anchor="middle" x="264.5" y="-377" font-family="Helvetica,sans-Serif" font-size="10.00">detail::format_decimal</text>
</a>
</g>
</g>
<!-- Node1&#45;&gt;Node63 -->
<g id="edge41_Node000001_Node000063" class="edge">
<title>Node1&#45;&gt;Node63</title>
<g id="a_edge41_Node000001_Node000063"><a xlink:title=" ">
<path fill="none" stroke="#63b8ff" d="M384.69,-415.39C370.6,-409.55 354.77,-403.38 340,-398.5 329.48,-395.03 317.95,-391.81 307.17,-389.04"/>
<polygon fill="#63b8ff" stroke="#63b8ff" points="383.57,-418.71 394.14,-419.36 386.28,-412.26 383.57,-418.71"/>
</a>
</g>
</g>
<!-- Node64 -->
<g id="Node000064" class="node">
<title>Node64</title>
<g id="a_Node000064"><a xlink:href="namespacedetail.html#a0aceda127158dd0e8af8e104e583db69" target="_top" xlink:title=" ">
<polygon fill="white" stroke="#666666" points="306,-352 223,-352 223,-333 306,-333 306,-352"/>
<text text-anchor="middle" x="264.5" y="-340" font-family="Helvetica,sans-Serif" font-size="10.00">detail::isfinite</text>
</a>
</g>
</g>
<!-- Node1&#45;&gt;Node64 -->
<g id="edge43_Node000001_Node000064" class="edge">
<title>Node1&#45;&gt;Node64</title>
<g id="a_edge43_Node000001_Node000064"><a xlink:title=" ">
<path fill="none" stroke="#63b8ff" d="M406.82,-412.24C390.11,-395.94 365.46,-374.47 340,-361.5 329.53,-356.17 317.46,-352.26 306.12,-349.42"/>
<polygon fill="#63b8ff" stroke="#63b8ff" points="404.36,-414.73 413.91,-419.32 409.3,-409.78 404.36,-414.73"/>
</a>
</g>
</g>
<!-- Node65 -->
<g id="Node000065" class="node">
<title>Node65</title>
<g id="a_Node000065"><a xlink:href="classdetail_1_1uint128.html#a8605bfd967e879deaf9c105ed1a0354e" target="_top" xlink:title=" ">
<polygon fill="#fff0f0" stroke="red" points="340,-315 189,-315 189,-296 340,-296 340,-315"/>
<text text-anchor="middle" x="264.5" y="-303" font-family="Helvetica,sans-Serif" font-size="10.00">detail::uint128::operator+=</text>
</a>
</g>
</g>
<!-- Node1&#45;&gt;Node65 -->
<g id="edge44_Node000001_Node000065" class="edge">
<title>Node1&#45;&gt;Node65</title>
<g id="a_edge44_Node000001_Node000065"><a xlink:title=" ">
<path fill="none" stroke="#63b8ff" d="M415.14,-410.53C400.35,-385.29 373.71,-346.25 340,-324.5 333.94,-320.59 327.13,-317.49 320.14,-315.02"/>
<polygon fill="#63b8ff" stroke="#63b8ff" points="412.24,-412.5 420.22,-419.47 418.32,-409.05 412.24,-412.5"/>
</a>
</g>
</g>
<!-- Node68 -->
<g id="Node000068" class="node">
<title>Node68</title>
<g id="a_Node000068"><a xlink:href="namespacedetail.html#ab52aa0f483475387f918d6e783e913f6" target="_top" xlink:title=" ">
<polygon fill="white" stroke="#666666" points="306,-278 223,-278 223,-259 306,-259 306,-278"/>
<text text-anchor="middle" x="264.5" y="-266" font-family="Helvetica,sans-Serif" font-size="10.00">detail::signbit</text>
</a>
</g>
</g>
<!-- Node1&#45;&gt;Node68 -->
<g id="edge45_Node000001_Node000068" class="edge">
<title>Node1&#45;&gt;Node68</title>
<g id="a_edge45_Node000001_Node000068"><a xlink:title=" ">
<path fill="none" stroke="#63b8ff" d="M419.88,-409.55C407.81,-376.51 381.96,-318.78 340,-287.5 330.26,-280.24 318.03,-275.74 306.31,-272.96"/>
<polygon fill="#63b8ff" stroke="#63b8ff" points="416.7,-411.06 423.31,-419.34 423.31,-408.75 416.7,-411.06"/>
</a>
</g>
</g>
<!-- Node69 -->
<g id="Node000069" class="node">
<title>Node69</title>
<g id="a_Node000069"><a xlink:href="classdetail_1_1value.html#a6c19c702a3e3ac34ffa9939c38a38323" target="_top" xlink:title=" ">
<polygon fill="white" stroke="#666666" points="319.5,-241 209.5,-241 209.5,-222 319.5,-222 319.5,-241"/>
<text text-anchor="middle" x="264.5" y="-229" font-family="Helvetica,sans-Serif" font-size="10.00">detail::value::value</text>
</a>
</g>
</g>
<!-- Node1&#45;&gt;Node69 -->
<g id="edge46_Node000001_Node000069" class="edge">
<title>Node1&#45;&gt;Node69</title>
<g id="a_edge46_Node000001_Node000069"><a xlink:title=" ">
<path fill="none" stroke="#63b8ff" d="M423.14,-409.5C414.05,-369.67 390.65,-292.06 340,-250.5 334.02,-245.59 326.92,-241.93 319.52,-239.2"/>
<polygon fill="#63b8ff" stroke="#63b8ff" points="419.75,-410.41 425.29,-419.45 426.6,-408.94 419.75,-410.41"/>
</a>
</g>
</g>
<!-- Node70 -->
<g id="Node000070" class="node">
<title>Node70</title>
<g id="a_Node000070"><a xlink:href="classdetail_1_1value.html#a59d124cd4211225290a765e28e44bc4c" target="_top" xlink:title=" ">
<polygon fill="white" stroke="#666666" points="319.5,-204 209.5,-204 209.5,-185 319.5,-185 319.5,-204"/>
<text text-anchor="middle" x="264.5" y="-192" font-family="Helvetica,sans-Serif" font-size="10.00">detail::value::value</text>
</a>
</g>
</g>
<!-- Node1&#45;&gt;Node70 -->
<g id="edge47_Node000001_Node000070" class="edge">
<title>Node1&#45;&gt;Node70</title>
<g id="a_edge47_Node000001_Node000070"><a xlink:title=" ">
<path fill="none" stroke="#63b8ff" d="M425.34,-409.19C419.12,-363.13 399.32,-265.61 340,-213.5 334.18,-208.39 327.18,-204.62 319.82,-201.85"/>
<polygon fill="#63b8ff" stroke="#63b8ff" points="421.88,-409.73 426.59,-419.22 428.83,-408.86 421.88,-409.73"/>
</a>
</g>
</g>
<!-- Node71 -->
<g id="Node000071" class="node">
<title>Node71</title>
<g id="a_Node000071"><a xlink:href="classdetail_1_1value.html#a0c66fe48ce2ece35810c18cee0f20bf6" target="_top" xlink:title=" ">
<polygon fill="white" stroke="#666666" points="319.5,-167 209.5,-167 209.5,-148 319.5,-148 319.5,-167"/>
<text text-anchor="middle" x="264.5" y="-155" font-family="Helvetica,sans-Serif" font-size="10.00">detail::value::value</text>
</a>
</g>
</g>
<!-- Node1&#45;&gt;Node71 -->
<g id="edge48_Node000001_Node000071" class="edge">
<title>Node1&#45;&gt;Node71</title>
<g id="a_edge48_Node000001_Node000071"><a xlink:title=" ">
<path fill="none" stroke="#63b8ff" d="M427,-409.09C423.54,-357.37 408.17,-239.48 340,-176.5 334.22,-171.16 327.14,-167.27 319.68,-164.44"/>
<polygon fill="#63b8ff" stroke="#63b8ff" points="423.52,-409.57 427.58,-419.35 430.51,-409.17 423.52,-409.57"/>
</a>
</g>
</g>
<!-- Node72 -->
<g id="Node000072" class="node">
<title>Node72</title>
<g id="a_Node000072"><a xlink:href="namespacedetail.html#ac698d9efd325a63ce72eef8709b96271" target="_top" xlink:title=" ">
<polygon fill="white" stroke="#666666" points="302,-130 227,-130 227,-111 302,-111 302,-130"/>
<text text-anchor="middle" x="264.5" y="-118" font-family="Helvetica,sans-Serif" font-size="10.00">detail::write</text>
</a>
</g>
</g>
<!-- Node1&#45;&gt;Node72 -->
<g id="edge49_Node000001_Node000072" class="edge">
<title>Node1&#45;&gt;Node72</title>
<g id="a_edge49_Node000001_Node000072"><a xlink:title=" ">
<path fill="none" stroke="#63b8ff" d="M428.28,-409.09C427.45,-352.17 417.15,-213.61 340,-139.5 329.89,-129.79 315.54,-124.85 302.13,-122.4"/>
<polygon fill="#63b8ff" stroke="#63b8ff" points="424.78,-409.36 428.33,-419.34 431.78,-409.33 424.78,-409.36"/>
</a>
</g>
</g>
<!-- Node73 -->
<g id="Node000073" class="node">
<title>Node73</title>
<g id="a_Node000073"><a xlink:href="namespacedetail.html#ade16648d662a4c70e2500ae74ef7e671" target="_top" xlink:title=" ">
<polygon fill="#fff0f0" stroke="red" points="318.5,-93 210.5,-93 210.5,-74 318.5,-74 318.5,-93"/>
<text text-anchor="middle" x="264.5" y="-81" font-family="Helvetica,sans-Serif" font-size="10.00">detail::write2digits</text>
</a>
</g>
</g>
<!-- Node1&#45;&gt;Node73 -->
<g id="edge50_Node000001_Node000073" class="edge">
<title>Node1&#45;&gt;Node73</title>
<g id="a_edge50_Node000001_Node000073"><a xlink:title=" ">
<path fill="none" stroke="#63b8ff" d="M424.68,-409.2C415,-339.18 384.62,-145.18 340,-101.5 334.1,-95.73 326.7,-91.7 318.85,-88.9"/>
<polygon fill="#63b8ff" stroke="#63b8ff" points="421.24,-409.89 426.06,-419.33 428.18,-408.95 421.24,-409.89"/>
</a>
</g>
</g>
<!-- Node74 -->
<g id="Node000074" class="node">
<title>Node74</title>
<g id="a_Node000074"><a xlink:href="namespacedetail.html#a6d45278bb1e36425838b80e9f5f1747c" target="_top" xlink:title=" ">
<polygon fill="white" stroke="#666666" points="315.5,-56 213.5,-56 213.5,-37 315.5,-37 315.5,-56"/>
<text text-anchor="middle" x="264.5" y="-44" font-family="Helvetica,sans-Serif" font-size="10.00">detail::write_float</text>
</a>
</g>
</g>
<!-- Node1&#45;&gt;Node74 -->
<g id="edge53_Node000001_Node000074" class="edge">
<title>Node1&#45;&gt;Node74</title>
<g id="a_edge53_Node000001_Node000074"><a xlink:title=" ">
<path fill="none" stroke="#63b8ff" d="M425.43,-409.43C417.22,-334.44 389.31,-113.98 340,-64.5 333.33,-57.81 324.63,-53.44 315.54,-50.63"/>
<polygon fill="#63b8ff" stroke="#63b8ff" points="421.95,-409.83 426.49,-419.4 428.91,-409.09 421.95,-409.83"/>
</a>
</g>
</g>
<!-- Node75 -->
<g id="Node000075" class="node">
<title>Node75</title>
<g id="a_Node000075"><a xlink:href="namespacedetail.html#a4604c5f0e986ec57fd58b28697d303d8" target="_top" xlink:title=" ">
<polygon fill="white" stroke="#666666" points="311,-19 218,-19 218,0 311,0 311,-19"/>
<text text-anchor="middle" x="264.5" y="-7" font-family="Helvetica,sans-Serif" font-size="10.00">detail::write_int</text>
</a>
</g>
</g>
<!-- Node1&#45;&gt;Node75 -->
<g id="edge54_Node000001_Node000075" class="edge">
<title>Node1&#45;&gt;Node75</title>
<g id="a_edge54_Node000001_Node000075"><a xlink:title=" ">
<path fill="none" stroke="#63b8ff" d="M425.98,-409.09C419.1,-328.82 393.9,-82.71 340,-27.5 332.29,-19.6 321.74,-14.93 311.01,-12.22"/>
<polygon fill="#63b8ff" stroke="#63b8ff" points="422.51,-409.61 426.83,-419.28 429.49,-409.03 422.51,-409.61"/>
</a>
</g>
</g>
<!-- Node3 -->
<g id="Node000003" class="node">
<title>Node3</title>
<g id="a_Node000003"><a xlink:href="classdetail_1_1digit__grouping.html#a0f6b16f6c24b8a79c3415aff8724e5b3" target="_top" xlink:title=" ">
<polygon fill="white" stroke="#666666" points="136.5,-1746.5 16.5,-1746.5 16.5,-1716.5 136.5,-1716.5 136.5,-1746.5"/>
<text text-anchor="start" x="24.5" y="-1734.5" font-family="Helvetica,sans-Serif" font-size="10.00">detail::digit_grouping</text>
<text text-anchor="middle" x="76.5" y="-1723.5" font-family="Helvetica,sans-Serif" font-size="10.00">::apply</text>
</a>
</g>
</g>
<!-- Node2&#45;&gt;Node3 -->
<g id="edge2_Node000002_Node000003" class="edge">
<title>Node2&#45;&gt;Node3</title>
<g id="a_edge2_Node000002_Node000003"><a xlink:title=" ">
<path fill="none" stroke="#63b8ff" d="M262.71,-1395.84C259.37,-1457.95 242.12,-1619.19 153,-1707.5 148.31,-1712.15 142.73,-1715.9 136.75,-1718.92"/>
<polygon fill="#63b8ff" stroke="#63b8ff" points="266.21,-1395.9 263.17,-1385.75 259.21,-1395.58 266.21,-1395.9"/>
</a>
</g>
</g>
<!-- Node4 -->
<g id="Node000004" class="node">
<title>Node4</title>
<g id="a_Node000004"><a xlink:href="structformatter_3_01std_1_1error__code_01_4.html#a470063b0427cac0f4618f8efe71656ac" target="_top" xlink:title=" ">
<polygon fill="white" stroke="#666666" points="136,-1083.5 17,-1083.5 17,-1053.5 136,-1053.5 136,-1083.5"/>
<text text-anchor="start" x="25" y="-1071.5" font-family="Helvetica,sans-Serif" font-size="10.00">formatter&lt; std::error</text>
<text text-anchor="middle" x="76.5" y="-1060.5" font-family="Helvetica,sans-Serif" font-size="10.00">_code &gt;::format</text>
</a>
</g>
</g>
<!-- Node2&#45;&gt;Node4 -->
<g id="edge3_Node000002_Node000004" class="edge">
<title>Node2&#45;&gt;Node4</title>
<g id="a_edge3_Node000002_Node000004"><a xlink:title=" ">
<path fill="none" stroke="#63b8ff" d="M260.58,-1345.39C253,-1291.48 227.75,-1163.91 153,-1093.5 148.08,-1088.86 142.27,-1085.08 136.1,-1082"/>
<polygon fill="#63b8ff" stroke="#63b8ff" points="257.13,-1345.98 261.91,-1355.43 264.07,-1345.06 257.13,-1345.98"/>
</a>
</g>
</g>
<!-- Node5 -->
<g id="Node000005" class="node">
<title>Node5</title>
<g id="a_Node000005"><a xlink:href="classdetail_1_1tm__writer.html#a57084e1a4311b7439ef4217fa3018285" target="_top" xlink:title=" ">
<polygon fill="#fff0f0" stroke="red" points="128.5,-1698.5 24.5,-1698.5 24.5,-1668.5 128.5,-1668.5 128.5,-1698.5"/>
<text text-anchor="start" x="32.5" y="-1686.5" font-family="Helvetica,sans-Serif" font-size="10.00">detail::tm_writer::</text>
<text text-anchor="middle" x="76.5" y="-1675.5" font-family="Helvetica,sans-Serif" font-size="10.00">on_second</text>
</a>
</g>
</g>
<!-- Node2&#45;&gt;Node5 -->
<g id="edge4_Node000002_Node000005" class="edge">
<title>Node2&#45;&gt;Node5</title>
<g id="a_edge4_Node000002_Node000005"><a xlink:title=" ">
<path fill="none" stroke="#63b8ff" d="M261.13,-1395.61C254.55,-1451.26 230.99,-1585.86 153,-1659.5 146.2,-1665.92 137.68,-1670.62 128.85,-1674.07"/>
<polygon fill="#63b8ff" stroke="#63b8ff" points="264.62,-1395.9 262.24,-1385.57 257.66,-1395.13 264.62,-1395.9"/>
</a>
</g>
</g>
<!-- Node9 -->
<g id="Node000009" class="node">
<title>Node9</title>
<g id="a_Node000009"><a xlink:href="structdetail_1_1duration__formatter.html#a5eaa3651f2774bf273f23c4a6cb232a2" target="_top" xlink:title=" ">
<polygon fill="#fff0f0" stroke="red" points="148,-1650.5 5,-1650.5 5,-1620.5 148,-1620.5 148,-1650.5"/>
<text text-anchor="start" x="13" y="-1638.5" font-family="Helvetica,sans-Serif" font-size="10.00">detail::duration_formatter</text>
<text text-anchor="middle" x="76.5" y="-1627.5" font-family="Helvetica,sans-Serif" font-size="10.00">::on_second</text>
</a>
</g>
</g>
<!-- Node2&#45;&gt;Node9 -->
<g id="edge5_Node000002_Node000009" class="edge">
<title>Node2&#45;&gt;Node9</title>
<g id="a_edge5_Node000002_Node000009"><a xlink:title=" ">
<path fill="none" stroke="#63b8ff" d="M258.94,-1395.77C248.8,-1444.62 219.82,-1552.38 153,-1611.5 149.09,-1614.96 144.67,-1617.93 139.99,-1620.46"/>
<polygon fill="#63b8ff" stroke="#63b8ff" points="262.41,-1396.23 260.92,-1385.74 255.55,-1394.87 262.41,-1396.23"/>
</a>
</g>
</g>
<!-- Node11 -->
<g id="Node000011" class="node">
<title>Node11</title>
<g id="a_Node000011"><a xlink:href="compile_8h.html#aafd70447a5d15c593712be146611663d" target="_top" xlink:title=" ">
<polygon fill="white" stroke="#666666" points="96,-1602 57,-1602 57,-1583 96,-1583 96,-1602"/>
<text text-anchor="middle" x="76.5" y="-1590" font-family="Helvetica,sans-Serif" font-size="10.00">print</text>
</a>
</g>
</g>
<!-- Node2&#45;&gt;Node11 -->
<g id="edge6_Node000002_Node000011" class="edge">
<title>Node2&#45;&gt;Node11</title>
<g id="a_edge6_Node000002_Node000011"><a xlink:title=" ">
<path fill="none" stroke="#63b8ff" d="M257.24,-1395.32C244.98,-1438.7 213.53,-1528.08 153,-1574.5 136.53,-1587.13 112.56,-1591.08 96.06,-1592.22"/>
<polygon fill="#63b8ff" stroke="#63b8ff" points="260.65,-1396.15 259.89,-1385.58 253.89,-1394.31 260.65,-1396.15"/>
</a>
</g>
</g>
<!-- Node12 -->
<g id="Node000012" class="node">
<title>Node12</title>
<g id="a_Node000012"><a xlink:href="ostream_8h.html#a3883cc4dedb6840173d3ca9699e7693c" target="_top" xlink:title=" ">
<polygon fill="white" stroke="#666666" points="96,-1565 57,-1565 57,-1546 96,-1546 96,-1565"/>
<text text-anchor="middle" x="76.5" y="-1553" font-family="Helvetica,sans-Serif" font-size="10.00">print</text>
</a>
</g>
</g>
<!-- Node2&#45;&gt;Node12 -->
<g id="edge7_Node000002_Node000012" class="edge">
<title>Node2&#45;&gt;Node12</title>
<g id="a_edge7_Node000002_Node000012"><a xlink:title=" ">
<path fill="none" stroke="#63b8ff" d="M254.23,-1394.99C238.96,-1431.86 204.96,-1501.17 153,-1537.5 136.1,-1549.31 112.44,-1553.44 96.13,-1554.84"/>
<polygon fill="#63b8ff" stroke="#63b8ff" points="257.56,-1396.09 258.03,-1385.51 251.06,-1393.48 257.56,-1396.09"/>
</a>
</g>
</g>
<!-- Node13 -->
<g id="Node000013" class="node">
<title>Node13</title>
<g id="a_Node000013"><a xlink:href="format_8h.html#a5ef22e73c121e5454e75a221470d3214" target="_top" xlink:title=" ">
<polygon fill="white" stroke="#666666" points="104.5,-1528 48.5,-1528 48.5,-1509 104.5,-1509 104.5,-1528"/>
<text text-anchor="middle" x="76.5" y="-1516" font-family="Helvetica,sans-Serif" font-size="10.00">vformat</text>
</a>
</g>
</g>
<!-- Node2&#45;&gt;Node13 -->
<g id="edge8_Node000002_Node000013" class="edge">
<title>Node2&#45;&gt;Node13</title>
<g id="a_edge8_Node000002_Node000013"><a xlink:title=" ">
<path fill="none" stroke="#63b8ff" d="M249.75,-1394.52C231.52,-1424.13 196.52,-1473.81 153,-1500.5 138.41,-1509.45 119.72,-1513.95 104.58,-1516.21"/>
<polygon fill="#63b8ff" stroke="#63b8ff" points="252.92,-1396.04 255.07,-1385.67 246.92,-1392.44 252.92,-1396.04"/>
</a>
</g>
</g>
<!-- Node14 -->
<g id="Node000014" class="node">
<title>Node14</title>
<g id="a_Node000014"><a xlink:href="format-inl_8h.html#a7d363bad28ecb7c5fda462edcafa09cb" target="_top" xlink:title=" ">
<polygon fill="#fff0f0" stroke="red" points="104.5,-1491 48.5,-1491 48.5,-1472 104.5,-1472 104.5,-1491"/>
<text text-anchor="middle" x="76.5" y="-1479" font-family="Helvetica,sans-Serif" font-size="10.00">vformat</text>
</a>
</g>
</g>
<!-- Node2&#45;&gt;Node14 -->
<g id="edge9_Node000002_Node000014" class="edge">
<title>Node2&#45;&gt;Node14</title>
<g id="a_edge9_Node000002_Node000014"><a xlink:title=" ">
<path fill="none" stroke="#63b8ff" d="M243.08,-1392.9C222.41,-1414.21 188.5,-1445.61 153,-1463.5 137.96,-1471.08 119.61,-1475.55 104.76,-1478.14"/>
<polygon fill="#63b8ff" stroke="#63b8ff" points="245.72,-1395.2 250.08,-1385.55 240.65,-1390.38 245.72,-1395.2"/>
</a>
</g>
</g>
<!-- Node16 -->
<g id="Node000016" class="node">
<title>Node16</title>
<g id="a_Node000016"><a xlink:href="home_2runner_2work_2CHRONOS-LoRa_2CHRONOS-LoRa_2thirdparty_2fmt_2include_2fmt_2color_8h.html#aadf71aa39d12c7a1ca08c8596c513edd" target="_top" xlink:title=" ">
<polygon fill="white" stroke="#666666" points="104.5,-1454 48.5,-1454 48.5,-1435 104.5,-1435 104.5,-1454"/>
<text text-anchor="middle" x="76.5" y="-1442" font-family="Helvetica,sans-Serif" font-size="10.00">vformat</text>
</a>
</g>
</g>
<!-- Node2&#45;&gt;Node16 -->
<g id="edge10_Node000002_Node000016" class="edge">
<title>Node2&#45;&gt;Node16</title>
<g id="a_edge10_Node000002_Node000016"><a xlink:title=" ">
<path fill="none" stroke="#63b8ff" d="M228.95,-1390.67C207.62,-1402.44 179.38,-1416.82 153,-1426.5 137.31,-1432.25 119.11,-1436.66 104.51,-1439.67"/>
<polygon fill="#63b8ff" stroke="#63b8ff" points="230.92,-1393.58 237.93,-1385.64 227.5,-1387.47 230.92,-1393.58"/>
</a>
</g>
</g>
<!-- Node17 -->
<g id="Node000017" class="node">
<title>Node17</title>
<g id="a_Node000017"><a xlink:href="xchar_8h.html#a0787317722f2961c0ee550a845cfb966" target="_top" xlink:title=" ">
<polygon fill="white" stroke="#666666" points="104.5,-1417 48.5,-1417 48.5,-1398 104.5,-1398 104.5,-1417"/>
<text text-anchor="middle" x="76.5" y="-1405" font-family="Helvetica,sans-Serif" font-size="10.00">vformat</text>
</a>
</g>
</g>
<!-- Node2&#45;&gt;Node17 -->
<g id="edge11_Node000002_Node000017" class="edge">
<title>Node2&#45;&gt;Node17</title>
<g id="a_edge11_Node000002_Node000017"><a xlink:title=" ">
<path fill="none" stroke="#63b8ff" d="M190.17,-1385.09C160.01,-1391.09 126.96,-1397.66 104.5,-1402.13"/>
<polygon fill="#63b8ff" stroke="#63b8ff" points="191.14,-1388.46 200.27,-1383.08 189.78,-1381.6 191.14,-1388.46"/>
</a>
</g>
</g>
<!-- Node18 -->
<g id="Node000018" class="node">
<title>Node18</title>
<g id="a_Node000018"><a xlink:href="home_2runner_2work_2CHRONOS-LoRa_2CHRONOS-LoRa_2thirdparty_2fmt_2include_2fmt_2color_8h.html#a86192aabb5e3ab5d0461f757afbbfb4e" target="_top" xlink:title=" ">
<polygon fill="white" stroke="#666666" points="99,-1380 54,-1380 54,-1361 99,-1361 99,-1380"/>
<text text-anchor="middle" x="76.5" y="-1368" font-family="Helvetica,sans-Serif" font-size="10.00">vprint</text>
</a>
</g>
</g>
<!-- Node2&#45;&gt;Node18 -->
<g id="edge12_Node000002_Node000018" class="edge">
<title>Node2&#45;&gt;Node18</title>
<g id="a_edge12_Node000002_Node000018"><a xlink:title=" ">
<path fill="none" stroke="#63b8ff" d="M189.87,-1370.5C157.41,-1370.5 121.65,-1370.5 99.39,-1370.5"/>
<polygon fill="#63b8ff" stroke="#63b8ff" points="190.27,-1374 200.27,-1370.5 190.27,-1367 190.27,-1374"/>
</a>
</g>
</g>
<!-- Node19 -->
<g id="Node000019" class="node">
<title>Node19</title>
<g id="a_Node000019"><a xlink:href="xchar_8h.html#ad59e14d924bf2fe1d17939ad9d8b8d4a" target="_top" xlink:title=" ">
<polygon fill="#fff0f0" stroke="red" points="99,-1343 54,-1343 54,-1324 99,-1324 99,-1343"/>
<text text-anchor="middle" x="76.5" y="-1331" font-family="Helvetica,sans-Serif" font-size="10.00">vprint</text>
</a>
</g>
</g>
<!-- Node2&#45;&gt;Node19 -->
<g id="edge13_Node000002_Node000019" class="edge">
<title>Node2&#45;&gt;Node19</title>
<g id="a_edge13_Node000002_Node000019"><a xlink:title=" ">
<path fill="none" stroke="#63b8ff" d="M190.29,-1355.94C157.72,-1349.46 121.75,-1342.3 99.39,-1337.85"/>
<polygon fill="#63b8ff" stroke="#63b8ff" points="189.78,-1359.4 200.27,-1357.92 191.14,-1352.54 189.78,-1359.4"/>
</a>
</g>
</g>
<!-- Node21 -->
<g id="Node000021" class="node">
<title>Node21</title>
<g id="a_Node000021"><a xlink:href="ostream_8h.html#a5a12ace2368ad2613bac4c16637a97ec" target="_top" xlink:title=" ">
<polygon fill="white" stroke="#666666" points="99,-1306 54,-1306 54,-1287 99,-1287 99,-1306"/>
<text text-anchor="middle" x="76.5" y="-1294" font-family="Helvetica,sans-Serif" font-size="10.00">vprint</text>
</a>
</g>
</g>
<!-- Node2&#45;&gt;Node21 -->
<g id="edge14_Node000002_Node000021" class="edge">
<title>Node2&#45;&gt;Node21</title>
<g id="a_edge14_Node000002_Node000021"><a xlink:title=" ">
<path fill="none" stroke="#63b8ff" d="M228,-1350.38C206.75,-1338.96 178.91,-1325.08 153,-1315.5 135.25,-1308.94 114.34,-1303.87 99.02,-1300.63"/>
<polygon fill="#63b8ff" stroke="#63b8ff" points="226.52,-1353.56 236.98,-1355.27 229.87,-1347.41 226.52,-1353.56"/>
</a>
</g>
</g>
<!-- Node22 -->
<g id="Node000022" class="node">
<title>Node22</title>
<g id="a_Node000022"><a xlink:href="xchar_8h.html#aae096773ff6c45b6cc1555e3bb92c3d3" target="_top" xlink:title=" ">
<polygon fill="white" stroke="#666666" points="99,-1269 54,-1269 54,-1250 99,-1250 99,-1269"/>
<text text-anchor="middle" x="76.5" y="-1257" font-family="Helvetica,sans-Serif" font-size="10.00">vprint</text>
</a>
</g>
</g>
<!-- Node2&#45;&gt;Node22 -->
<g id="edge15_Node000002_Node000022" class="edge">
<title>Node2&#45;&gt;Node22</title>
<g id="a_edge15_Node000002_Node000022"><a xlink:title=" ">
<path fill="none" stroke="#63b8ff" d="M242.63,-1348.09C221.85,-1327.09 188.08,-1296.34 153,-1278.5 136.01,-1269.86 114.83,-1264.98 99.23,-1262.33"/>
<polygon fill="#63b8ff" stroke="#63b8ff" points="240.2,-1350.61 249.68,-1355.35 245.22,-1345.73 240.2,-1350.61"/>
</a>
</g>
</g>
<!-- Node23 -->
<g id="Node000023" class="node">
<title>Node23</title>
<g id="a_Node000023"><a xlink:href="format-inl_8h.html#a3774f0f4816097d469f11407f83ee394" target="_top" xlink:title=" ">
<polygon fill="white" stroke="#666666" points="122,-1232 31,-1232 31,-1213 122,-1213 122,-1232"/>
<text text-anchor="middle" x="76.5" y="-1220" font-family="Helvetica,sans-Serif" font-size="10.00">vprint_buffered</text>
</a>
</g>
</g>
<!-- Node2&#45;&gt;Node23 -->
<g id="edge16_Node000002_Node000023" class="edge">
<title>Node2&#45;&gt;Node23</title>
<g id="a_edge16_Node000002_Node000023"><a xlink:title=" ">
<path fill="none" stroke="#63b8ff" d="M249.37,-1346.29C230.95,-1316.94 195.98,-1268.12 153,-1241.5 143.69,-1235.74 132.72,-1231.72 122.06,-1228.92"/>
<polygon fill="#63b8ff" stroke="#63b8ff" points="246.54,-1348.38 254.75,-1355.08 252.51,-1344.73 246.54,-1348.38"/>
</a>
</g>
</g>
<!-- Node24 -->
<g id="Node000024" class="node">
<title>Node24</title>
<g id="a_Node000024"><a xlink:href="format-inl_8h.html#a71033730e1d1c2c72b7905f21929df93" target="_top" xlink:title=" ">
<polygon fill="white" stroke="#666666" points="103.5,-1195 49.5,-1195 49.5,-1176 103.5,-1176 103.5,-1195"/>
<text text-anchor="middle" x="76.5" y="-1183" font-family="Helvetica,sans-Serif" font-size="10.00">vprintln</text>
</a>
</g>
</g>
<!-- Node2&#45;&gt;Node24 -->
<g id="edge17_Node000002_Node000024" class="edge">
<title>Node2&#45;&gt;Node24</title>
<g id="a_edge17_Node000002_Node000024"><a xlink:title=" ">
<path fill="none" stroke="#63b8ff" d="M254.01,-1345.96C238.56,-1309.34 204.44,-1240.83 153,-1204.5 138.54,-1194.28 119.11,-1189.55 103.58,-1187.36"/>
<polygon fill="#63b8ff" stroke="#63b8ff" points="250.85,-1347.46 257.87,-1355.39 257.32,-1344.81 250.85,-1347.46"/>
</a>
</g>
</g>
<!-- Node25 -->
<g id="Node000025" class="node">
<title>Node25</title>
<g id="a_Node000025"><a xlink:href="namespacedetail.html#a53f64cca161818cc3e0d8ebce2a36335" target="_top" xlink:title=" ">
<polygon fill="white" stroke="#666666" points="123,-1158 30,-1158 30,-1139 123,-1139 123,-1158"/>
<text text-anchor="middle" x="76.5" y="-1146" font-family="Helvetica,sans-Serif" font-size="10.00">detail::write_int</text>
</a>
</g>
</g>
<!-- Node2&#45;&gt;Node25 -->
<g id="edge18_Node000002_Node000025" class="edge">
<title>Node2&#45;&gt;Node25</title>
<g id="a_edge18_Node000002_Node000025"><a xlink:title=" ">
<path fill="none" stroke="#63b8ff" d="M257.06,-1345.56C244.58,-1302.4 212.91,-1213.94 153,-1167.5 144.45,-1160.88 133.88,-1156.54 123.37,-1153.7"/>
<polygon fill="#63b8ff" stroke="#63b8ff" points="253.7,-1346.57 259.76,-1355.26 260.45,-1344.69 253.7,-1346.57"/>
</a>
</g>
</g>
<!-- Node26 -->
<g id="Node000026" class="node">
<title>Node26</title>
<g id="a_Node000026"><a xlink:href="namespacedetail.html#a289cb079ced65a67e9c17bef575ece59" target="_top" xlink:title=" ">
<polygon fill="white" stroke="#666666" points="143,-1121 10,-1121 10,-1102 143,-1102 143,-1121"/>
<text text-anchor="middle" x="76.5" y="-1109" font-family="Helvetica,sans-Serif" font-size="10.00">detail::write_significand</text>
</a>
</g>
</g>
<!-- Node2&#45;&gt;Node26 -->
<g id="edge19_Node000002_Node000026" class="edge">
<title>Node2&#45;&gt;Node26</title>
<g id="a_edge19_Node000002_Node000026"><a xlink:title=" ">
<path fill="none" stroke="#63b8ff" d="M259.29,-1345.32C249.71,-1296.2 221.57,-1187.43 153,-1130.5 148.32,-1126.61 142.95,-1123.51 137.28,-1121.03"/>
<polygon fill="#63b8ff" stroke="#63b8ff" points="255.89,-1346.2 261.15,-1355.39 262.77,-1344.92 255.89,-1346.2"/>
</a>
</g>
</g>
<!-- Node27&#45;&gt;Node4 -->
<g id="edge24_Node000027_Node000004" class="edge">
<title>Node27&#45;&gt;Node4</title>
<g id="a_edge24_Node000027_Node000004"><a xlink:title=" ">
<path fill="none" stroke="#63b8ff" d="M252.83,-908.44C236.45,-943.81 201.81,-1008.27 153,-1044.5 147.92,-1048.27 142.23,-1051.46 136.31,-1054.16"/>
<polygon fill="#63b8ff" stroke="#63b8ff" points="256.23,-909.43 257.14,-898.87 249.84,-906.55 256.23,-909.43"/>
</a>
</g>
</g>
<!-- Node28 -->
<g id="Node000028" class="node">
<title>Node28</title>
<g id="a_Node000028"><a xlink:href="structdetail_1_1ansi__color__escape.html#a0e7615921adbb653129f1c967851e443" target="_top" xlink:title=" ">
<polygon fill="white" stroke="#666666" points="132.5,-1035 20.5,-1035 20.5,-994 132.5,-994 132.5,-1035"/>
<text text-anchor="start" x="28.5" y="-1023" font-family="Helvetica,sans-Serif" font-size="10.00">detail::ansi_color</text>
<text text-anchor="start" x="28.5" y="-1012" font-family="Helvetica,sans-Serif" font-size="10.00">_escape::ansi_color</text>
<text text-anchor="middle" x="76.5" y="-1001" font-family="Helvetica,sans-Serif" font-size="10.00">_escape</text>
</a>
</g>
</g>
<!-- Node27&#45;&gt;Node28 -->
<g id="edge21_Node000027_Node000028" class="edge">
<title>Node27&#45;&gt;Node28</title>
<g id="a_edge21_Node000027_Node000028"><a xlink:title=" ">
<path fill="none" stroke="#63b8ff" d="M243.9,-906.04C223.21,-928.68 188.7,-963.31 153,-985.5 146.68,-989.43 139.74,-992.97 132.71,-996.12"/>
<polygon fill="#63b8ff" stroke="#63b8ff" points="246.53,-908.35 250.62,-898.57 241.33,-903.66 246.53,-908.35"/>
</a>
</g>
</g>
<!-- Node29 -->
<g id="Node000029" class="node">
<title>Node29</title>
<g id="a_Node000029"><a xlink:href="classdetail_1_1to__utf8.html#a6171f2fd39d0df3575ee3d8247ccc99f" target="_top" xlink:title=" ">
<polygon fill="white" stroke="#666666" points="140.5,-976 12.5,-976 12.5,-957 140.5,-957 140.5,-976"/>
<text text-anchor="middle" x="76.5" y="-964" font-family="Helvetica,sans-Serif" font-size="10.00">detail::to_utf8::convert</text>
</a>
</g>
</g>
<!-- Node27&#45;&gt;Node29 -->
<g id="edge22_Node000027_Node000029" class="edge">
<title>Node27&#45;&gt;Node29</title>
<g id="a_edge22_Node000027_Node000029"><a xlink:title=" ">
<path fill="none" stroke="#63b8ff" d="M233.68,-904.35C212.13,-918.58 181.85,-936.88 153,-948.5 144.75,-951.82 135.74,-954.63 126.9,-956.96"/>
<polygon fill="#63b8ff" stroke="#63b8ff" points="235.71,-907.21 242.07,-898.73 231.81,-901.39 235.71,-907.21"/>
</a>
</g>
</g>
<!-- Node30 -->
<g id="Node000030" class="node">
<title>Node30</title>
<g id="a_Node000030"><a xlink:href="structformatter_3_01detail_1_1styled__arg_3_01T_01_4_00_01Char_01_4.html#a66c75e987c7cdbb492a5ebe0f493c671" target="_top" xlink:title=" ">
<polygon fill="white" stroke="#666666" points="139,-939 14,-939 14,-898 139,-898 139,-939"/>
<text text-anchor="start" x="22" y="-927" font-family="Helvetica,sans-Serif" font-size="10.00">formatter&lt; detail::</text>
<text text-anchor="start" x="22" y="-916" font-family="Helvetica,sans-Serif" font-size="10.00">styled_arg&lt; T &gt;, Char</text>
<text text-anchor="middle" x="76.5" y="-905" font-family="Helvetica,sans-Serif" font-size="10.00"> &gt;::format</text>
</a>
</g>
</g>
<!-- Node27&#45;&gt;Node30 -->
<g id="edge23_Node000027_Node000030" class="edge">
<title>Node27&#45;&gt;Node30</title>
<g id="a_edge23_Node000027_Node000030"><a xlink:title=" ">
<path fill="none" stroke="#63b8ff" d="M199.64,-895.52C180.03,-899.21 158.49,-903.26 139.04,-906.92"/>
<polygon fill="#63b8ff" stroke="#63b8ff" points="200.52,-898.91 209.7,-893.62 199.23,-892.03 200.52,-898.91"/>
</a>
</g>
</g>
<!-- Node31 -->
<g id="Node000031" class="node">
<title>Node31</title>
<g id="a_Node000031"><a xlink:href="structformatter_3_01T_00_01char_00_01typename_01std_1_1enable__if_3_01std_1_1is__base__of_3_01std369b0d8e9c4d722950acabeda16337b.html#a4ef348cfedc93ef62177762991ae2272" target="_top" xlink:title=" ">
<polygon fill="white" stroke="#666666" points="149,-880 4,-880 4,-817 149,-817 149,-880"/>
<text text-anchor="start" x="12" y="-868" font-family="Helvetica,sans-Serif" font-size="10.00">formatter&lt; T, char,</text>
<text text-anchor="start" x="12" y="-857" font-family="Helvetica,sans-Serif" font-size="10.00"> typename std::enable</text>
<text text-anchor="start" x="12" y="-846" font-family="Helvetica,sans-Serif" font-size="10.00">_if&lt; std::is_base_of&lt;</text>
<text text-anchor="start" x="12" y="-835" font-family="Helvetica,sans-Serif" font-size="10.00"> std::exception, T &gt;::value</text>
<text text-anchor="middle" x="76.5" y="-824" font-family="Helvetica,sans-Serif" font-size="10.00"> &gt;::type &gt;::format</text>
</a>
</g>
</g>
<!-- Node27&#45;&gt;Node31 -->
<g id="edge25_Node000027_Node000031" class="edge">
<title>Node27&#45;&gt;Node31</title>
<g id="a_edge25_Node000027_Node000031"><a xlink:title=" ">
<path fill="none" stroke="#63b8ff" d="M199.75,-871.5C183.46,-868.44 165.84,-865.12 149.18,-861.99"/>
<polygon fill="#63b8ff" stroke="#63b8ff" points="199.23,-874.97 209.7,-873.38 200.52,-868.09 199.23,-874.97"/>
</a>
</g>
</g>
<!-- Node32 -->
<g id="Node000032" class="node">
<title>Node32</title>
<g id="a_Node000032"><a xlink:href="namespacedetail.html#a4529b1fbc3ea6083c4bc9e231534ea14" target="_top" xlink:title=" ">
<polygon fill="white" stroke="#666666" points="153,-799 0,-799 0,-780 153,-780 153,-799"/>
<text text-anchor="middle" x="76.5" y="-787" font-family="Helvetica,sans-Serif" font-size="10.00">detail::format_duration_unit</text>
</a>
</g>
</g>
<!-- Node27&#45;&gt;Node32 -->
<g id="edge26_Node000027_Node000032" class="edge">
<title>Node27&#45;&gt;Node32</title>
<g id="a_edge26_Node000027_Node000032"><a xlink:title=" ">
<path fill="none" stroke="#63b8ff" d="M237.56,-862.02C216.11,-845.23 184.19,-822.48 153,-808.5 144.61,-804.74 135.35,-801.64 126.28,-799.11"/>
<polygon fill="#63b8ff" stroke="#63b8ff" points="235.52,-864.87 245.53,-868.35 239.88,-859.39 235.52,-864.87"/>
</a>
</g>
</g>
<!-- Node33 -->
<g id="Node000033" class="node">
<title>Node33</title>
<g id="a_Node000033"><a xlink:href="namespacedetail.html#afd2dbb825f85c252c1843cc759ef2b7b" target="_top" xlink:title=" ">
<polygon fill="white" stroke="#666666" points="128.5,-762 24.5,-762 24.5,-743 128.5,-743 128.5,-762"/>
<text text-anchor="middle" x="76.5" y="-750" font-family="Helvetica,sans-Serif" font-size="10.00">detail::reset_color</text>
</a>
</g>
</g>
<!-- Node27&#45;&gt;Node33 -->
<g id="edge27_Node000027_Node000033" class="edge">
<title>Node27&#45;&gt;Node33</title>
<g id="a_edge27_Node000027_Node000033"><a xlink:title=" ">
<path fill="none" stroke="#63b8ff" d="M240.68,-861.19C225.84,-846.59 206.14,-827.05 189,-809.5 172.75,-792.86 173.08,-783.25 153,-771.5 145.53,-767.13 137.08,-763.76 128.6,-761.16"/>
<polygon fill="#63b8ff" stroke="#63b8ff" points="238.37,-863.82 247.95,-868.33 243.27,-858.83 238.37,-863.82"/>
</a>
</g>
</g>
<!-- Node37 -->
<g id="Node000037" class="node">
<title>Node37</title>
<g id="a_Node000037"><a xlink:href="namespacedetail.html#a609d7411f77817f2def78afbbfdda40e" target="_top" xlink:title=" ">
<polygon fill="#fff0f0" stroke="red" points="146.5,-725 6.5,-725 6.5,-706 146.5,-706 146.5,-725"/>
<text text-anchor="middle" x="76.5" y="-713" font-family="Helvetica,sans-Serif" font-size="10.00">detail::format_error_code</text>
</a>
</g>
</g>
<!-- Node36&#45;&gt;Node37 -->
<g id="edge31_Node000036_Node000037" class="edge">
<title>Node36&#45;&gt;Node37</title>
<g id="a_edge31_Node000036_Node000037"><a xlink:title=" ">
<path fill="none" stroke="#63b8ff" d="M199.1,-716.15C182.15,-716.06 163.8,-715.96 146.62,-715.87"/>
<polygon fill="#63b8ff" stroke="#63b8ff" points="199.43,-719.66 209.45,-716.21 199.47,-712.66 199.43,-719.66"/>
</a>
</g>
</g>
<!-- Node36&#45;&gt;Node47 -->
<g id="edge32_Node000036_Node000047" class="edge">
<title>Node36&#45;&gt;Node47</title>
<g id="a_edge32_Node000036_Node000047"><a xlink:title=" ">
<path fill="none" stroke="#63b8ff" d="M206.67,-704.89C180.22,-699.49 149.14,-693.14 124.1,-688.02"/>
<polygon fill="#63b8ff" stroke="#63b8ff" points="206.07,-708.34 216.56,-706.91 207.47,-701.48 206.07,-708.34"/>
</a>
</g>
</g>
<!-- Node59&#45;&gt;Node58 -->
<g id="edge36_Node000059_Node000058" class="edge">
<title>Node59&#45;&gt;Node58</title>
<g id="a_edge36_Node000059_Node000058"><a xlink:title=" ">
<path fill="none" stroke="#63b8ff" d="M221.4,-553.89C210.74,-550.44 199.38,-546.53 189,-542.5 155.86,-529.63 118.51,-511.85 96.54,-501.04"/>
<polygon fill="#63b8ff" stroke="#63b8ff" points="220.35,-557.23 230.94,-556.92 222.47,-550.56 220.35,-557.23"/>
</a>
</g>
</g>
<!-- Node61&#45;&gt;Node58 -->
<g id="edge39_Node000061_Node000058" class="edge">
<title>Node61&#45;&gt;Node58</title>
<g id="a_edge39_Node000061_Node000058"><a xlink:title=" ">
<path fill="none" stroke="#63b8ff" d="M217.14,-462.97C188.82,-468.76 152.71,-476.13 124.31,-481.94"/>
<polygon fill="#63b8ff" stroke="#63b8ff" points="218.1,-466.35 227.2,-460.92 216.7,-459.49 218.1,-466.35"/>
</a>
</g>
</g>
<!-- Node73&#45;&gt;Node58 -->
<g id="edge51_Node000073_Node000058" class="edge">
<title>Node73&#45;&gt;Node58</title>
<g id="a_edge51_Node000073_Node000058"><a xlink:title=" ">
<path fill="none" stroke="#63b8ff" d="M200.95,-93.03C196.59,-95.32 192.53,-98.11 189,-101.5 73.65,-212.17 75.2,-433.22 77.03,-481.88"/>
<polygon fill="#63b8ff" stroke="#63b8ff" points="202.46,-96.19 210.25,-89 199.68,-89.77 202.46,-96.19"/>
</a>
</g>
</g>
</g>
</svg>
