<?xml version="1.0" encoding="UTF-8" standalone="no"?>
<!DOCTYPE svg PUBLIC "-//W3C//DTD SVG 1.1//EN"
 "http://www.w3.org/Graphics/SVG/1.1/DTD/svg11.dtd">
<!-- Generated by graphviz version 2.43.0 (0)
 -->
<!-- Title: detail::parse_header Pages: 1 -->
<svg width="457pt" height="160pt"
 viewBox="0.00 0.00 457.00 160.00" xmlns="http://www.w3.org/2000/svg" xmlns:xlink="http://www.w3.org/1999/xlink">
<g id="graph0" class="graph" transform="scale(1 1) rotate(0) translate(4 156)">
<title>detail::parse_header</title>
<!-- Node1 -->
<g id="Node000001" class="node">
<title>Node1</title>
<g id="a_Node000001"><a xlink:title=" ">
<polygon fill="#999999" stroke="#666666" points="116,-80 0,-80 0,-61 116,-61 116,-80"/>
<text text-anchor="middle" x="58" y="-68" font-family="Helvetica,sans-Serif" font-size="10.00">detail::parse_header</text>
</a>
</g>
</g>
<!-- Node2 -->
<g id="Node000002" class="node">
<title>Node2</title>
<g id="a_Node000002"><a xlink:href="namespacedetail.html#a45c2130c44ebe54179eafcee3cda2bfb" target="_top" xlink:title=" ">
<polygon fill="white" stroke="#666666" points="265.5,-152 161.5,-152 161.5,-133 265.5,-133 265.5,-152"/>
<text text-anchor="middle" x="213.5" y="-140" font-family="Helvetica,sans-Serif" font-size="10.00">detail::max_value</text>
</a>
</g>
</g>
<!-- Node1&#45;&gt;Node2 -->
<g id="edge1_Node000001_Node000002" class="edge">
<title>Node1&#45;&gt;Node2</title>
<g id="a_edge1_Node000001_Node000002"><a xlink:title=" ">
<path fill="none" stroke="#63b8ff" d="M72.95,-80.01C90.67,-91.77 122.52,-111.77 152,-124.5 156.36,-126.38 160.98,-128.14 165.64,-129.77"/>
<polygon fill="#63b8ff" stroke="#63b8ff" points="164.62,-133.12 175.21,-132.92 166.81,-126.47 164.62,-133.12"/>
</a>
</g>
</g>
<!-- Node3 -->
<g id="Node000003" class="node">
<title>Node3</title>
<g id="a_Node000003"><a xlink:href="classdetail_1_1printf__width__handler.html#a5a58b6a552a11f2f131f21849d95df4f" target="_top" xlink:title=" ">
<polygon fill="white" stroke="#666666" points="275,-115 152,-115 152,-74 275,-74 275,-115"/>
<text text-anchor="start" x="160" y="-103" font-family="Helvetica,sans-Serif" font-size="10.00">detail::printf_width</text>
<text text-anchor="start" x="160" y="-92" font-family="Helvetica,sans-Serif" font-size="10.00">_handler::printf_width</text>
<text text-anchor="middle" x="213.5" y="-81" font-family="Helvetica,sans-Serif" font-size="10.00">_handler</text>
</a>
</g>
</g>
<!-- Node1&#45;&gt;Node3 -->
<g id="edge2_Node000001_Node000003" class="edge">
<title>Node1&#45;&gt;Node3</title>
<g id="a_edge2_Node000001_Node000003"><a xlink:title=" ">
<path fill="none" stroke="#63b8ff" d="M116.16,-79.44C124.55,-80.75 133.28,-82.11 141.9,-83.46"/>
<polygon fill="#63b8ff" stroke="#63b8ff" points="141.53,-86.95 151.95,-85.03 142.61,-80.03 141.53,-86.95"/>
</a>
</g>
</g>
<!-- Node4 -->
<g id="Node000004" class="node">
<title>Node4</title>
<g id="a_Node000004"><a xlink:href="format-inl_8h.html#a5555893692b00b61b3886349332fd01f" target="_top" xlink:title=" ">
<polygon fill="white" stroke="#666666" points="250.5,-56 176.5,-56 176.5,-37 250.5,-37 250.5,-56"/>
<text text-anchor="middle" x="213.5" y="-44" font-family="Helvetica,sans-Serif" font-size="10.00">report_error</text>
</a>
</g>
</g>
<!-- Node1&#45;&gt;Node4 -->
<g id="edge3_Node000001_Node000004" class="edge">
<title>Node1&#45;&gt;Node4</title>
<g id="a_edge3_Node000001_Node000004"><a xlink:title=" ">
<path fill="none" stroke="#63b8ff" d="M116.16,-61.56C132.66,-58.98 150.46,-56.2 166.21,-53.74"/>
<polygon fill="#63b8ff" stroke="#63b8ff" points="166.89,-57.17 176.23,-52.17 165.81,-50.26 166.89,-57.17"/>
</a>
</g>
</g>
<!-- Node5 -->
<g id="Node000005" class="node">
<title>Node5</title>
<g id="a_Node000005"><a xlink:href="classbasic__specs.html#a1600987fb39fed5dfdac21b218061a9e" target="_top" xlink:title=" ">
<polygon fill="white" stroke="#666666" points="270,-19 157,-19 157,0 270,0 270,-19"/>
<text text-anchor="middle" x="213.5" y="-7" font-family="Helvetica,sans-Serif" font-size="10.00">basic_specs::set_fill</text>
</a>
</g>
</g>
<!-- Node1&#45;&gt;Node5 -->
<g id="edge4_Node000001_Node000005" class="edge">
<title>Node1&#45;&gt;Node5</title>
<g id="a_edge4_Node000001_Node000005"><a xlink:title=" ">
<path fill="none" stroke="#63b8ff" d="M78.31,-60.96C96.92,-51.96 126.01,-38.41 152,-28.5 157.67,-26.34 163.7,-24.23 169.67,-22.25"/>
<polygon fill="#63b8ff" stroke="#63b8ff" points="171.16,-25.45 179.6,-19.05 169.01,-18.78 171.16,-25.45"/>
</a>
</g>
</g>
<!-- Node6 -->
<g id="Node000006" class="node">
<title>Node6</title>
<g id="a_Node000006"><a xlink:href="classbasic__specs.html#a4b36db5ad1e38169bd6653635d5e69cd" target="_top" xlink:title=" ">
<polygon fill="white" stroke="#666666" points="449,-19 311,-19 311,0 449,0 449,-19"/>
<text text-anchor="middle" x="380" y="-7" font-family="Helvetica,sans-Serif" font-size="10.00">basic_specs::set_fill_size</text>
</a>
</g>
</g>
<!-- Node5&#45;&gt;Node6 -->
<g id="edge5_Node000005_Node000006" class="edge">
<title>Node5&#45;&gt;Node6</title>
<g id="a_edge5_Node000005_Node000006"><a xlink:title=" ">
<path fill="none" stroke="#63b8ff" d="M270.19,-9.5C279.98,-9.5 290.33,-9.5 300.6,-9.5"/>
<polygon fill="#63b8ff" stroke="#63b8ff" points="300.81,-13 310.81,-9.5 300.81,-6 300.81,-13"/>
</a>
</g>
</g>
</g>
</svg>
