<?xml version="1.0" encoding="UTF-8" standalone="no"?>
<!DOCTYPE svg PUBLIC "-//W3C//DTD SVG 1.1//EN"
 "http://www.w3.org/Graphics/SVG/1.1/DTD/svg11.dtd">
<!-- Generated by graphviz version 2.43.0 (0)
 -->
<!-- Title: detail::write Pages: 1 -->
<svg width="241pt" height="86pt"
 viewBox="0.00 0.00 241.00 86.00" xmlns="http://www.w3.org/2000/svg" xmlns:xlink="http://www.w3.org/1999/xlink">
<g id="graph0" class="graph" transform="scale(1 1) rotate(0) translate(4 82)">
<title>detail::write</title>
<!-- Node1 -->
<g id="Node000001" class="node">
<title>Node1</title>
<g id="a_Node000001"><a xlink:title=" ">
<polygon fill="#999999" stroke="#666666" points="75,-48.5 0,-48.5 0,-29.5 75,-29.5 75,-48.5"/>
<text text-anchor="middle" x="37.5" y="-36.5" font-family="Helvetica,sans-Serif" font-size="10.00">detail::write</text>
</a>
</g>
</g>
<!-- Node2 -->
<g id="Node000002" class="node">
<title>Node2</title>
<g id="a_Node000002"><a xlink:href="structformat__specs.html#a5b6852380391634bfb2671210cfebc76" target="_top" xlink:title=" ">
<polygon fill="white" stroke="#666666" points="233,-78 111,-78 111,-48 233,-48 233,-78"/>
<text text-anchor="start" x="119" y="-66" font-family="Helvetica,sans-Serif" font-size="10.00">format_specs::format</text>
<text text-anchor="middle" x="172" y="-55" font-family="Helvetica,sans-Serif" font-size="10.00">_specs</text>
</a>
</g>
</g>
<!-- Node1&#45;&gt;Node2 -->
<g id="edge1_Node000001_Node000002" class="edge">
<title>Node1&#45;&gt;Node2</title>
<g id="a_edge1_Node000001_Node000002"><a xlink:title=" ">
<path fill="none" stroke="#63b8ff" d="M75.06,-45.62C83.13,-47.08 91.94,-48.68 100.84,-50.29"/>
<polygon fill="#63b8ff" stroke="#63b8ff" points="100.44,-53.78 110.9,-52.11 101.69,-46.89 100.44,-53.78"/>
</a>
</g>
</g>
<!-- Node3 -->
<g id="Node000003" class="node">
<title>Node3</title>
<g id="a_Node000003"><a xlink:href="namespacedetail.html#a75ed2634319883d038944529dbb954e2" target="_top" xlink:title=" ">
<polygon fill="white" stroke="#666666" points="225,-30 119,-30 119,0 225,0 225,-30"/>
<text text-anchor="start" x="127" y="-18" font-family="Helvetica,sans-Serif" font-size="10.00">detail::is_constant</text>
<text text-anchor="middle" x="172" y="-7" font-family="Helvetica,sans-Serif" font-size="10.00">_evaluated</text>
</a>
</g>
</g>
<!-- Node1&#45;&gt;Node3 -->
<g id="edge2_Node000001_Node000003" class="edge">
<title>Node1&#45;&gt;Node3</title>
<g id="a_edge2_Node000001_Node000003"><a xlink:title=" ">
<path fill="none" stroke="#63b8ff" d="M75.06,-32.38C85.48,-30.49 97.15,-28.38 108.66,-26.29"/>
<polygon fill="#63b8ff" stroke="#63b8ff" points="109.48,-29.7 118.69,-24.47 108.23,-22.81 109.48,-29.7"/>
</a>
</g>
</g>
</g>
</svg>
