<?xml version="1.0" encoding="UTF-8" standalone="no"?>
<!DOCTYPE svg PUBLIC "-//W3C//DTD SVG 1.1//EN"
 "http://www.w3.org/Graphics/SVG/1.1/DTD/svg11.dtd">
<!-- Generated by graphviz version 2.43.0 (0)
 -->
<!-- Title: detail::find_escape Pages: 1 -->
<svg width="557pt" height="27pt"
 viewBox="0.00 0.00 557.00 27.00" xmlns="http://www.w3.org/2000/svg" xmlns:xlink="http://www.w3.org/1999/xlink">
<g id="graph0" class="graph" transform="scale(1 1) rotate(0) translate(4 23)">
<title>detail::find_escape</title>
<!-- Node1 -->
<g id="Node000001" class="node">
<title>Node1</title>
<g id="a_Node000001"><a xlink:title=" ">
<polygon fill="#999999" stroke="#666666" points="108,-19 0,-19 0,0 108,0 108,-19"/>
<text text-anchor="middle" x="54" y="-7" font-family="Helvetica,sans-Serif" font-size="10.00">detail::find_escape</text>
</a>
</g>
</g>
<!-- Node2 -->
<g id="Node000002" class="node">
<title>Node2</title>
<g id="a_Node000002"><a xlink:href="namespacedetail.html#ab31cdd3925ccf6312ab598b0a05e9438" target="_top" xlink:title=" ">
<polygon fill="white" stroke="#666666" points="263,-19 144,-19 144,0 263,0 263,-19"/>
<text text-anchor="middle" x="203.5" y="-7" font-family="Helvetica,sans-Serif" font-size="10.00">detail::needs_escape</text>
</a>
</g>
</g>
<!-- Node1&#45;&gt;Node2 -->
<g id="edge1_Node000001_Node000002" class="edge">
<title>Node1&#45;&gt;Node2</title>
<g id="a_edge1_Node000001_Node000002"><a xlink:title=" ">
<path fill="none" stroke="#63b8ff" d="M108.25,-9.5C116.55,-9.5 125.23,-9.5 133.82,-9.5"/>
<polygon fill="#63b8ff" stroke="#63b8ff" points="133.83,-13 143.83,-9.5 133.83,-6 133.83,-13"/>
</a>
</g>
</g>
<!-- Node3 -->
<g id="Node000003" class="node">
<title>Node3</title>
<g id="a_Node000003"><a xlink:href="namespacedetail.html#a478924085570f58ed43e324860374a6c" target="_top" xlink:title=" ">
<polygon fill="white" stroke="#666666" points="406,-19 299,-19 299,0 406,0 406,-19"/>
<text text-anchor="middle" x="352.5" y="-7" font-family="Helvetica,sans-Serif" font-size="10.00">detail::is_printable</text>
</a>
</g>
</g>
<!-- Node2&#45;&gt;Node3 -->
<g id="edge2_Node000002_Node000003" class="edge">
<title>Node2&#45;&gt;Node3</title>
<g id="a_edge2_Node000002_Node000003"><a xlink:title=" ">
<path fill="none" stroke="#63b8ff" d="M263.02,-9.5C271.45,-9.5 280.14,-9.5 288.65,-9.5"/>
<polygon fill="#63b8ff" stroke="#63b8ff" points="288.89,-13 298.89,-9.5 288.89,-6 288.89,-13"/>
</a>
</g>
</g>
<!-- Node4 -->
<g id="Node000004" class="node">
<title>Node4</title>
<g id="a_Node000004"><a xlink:href="namespacedetail.html#ac3df1e29ebde78440f3595e480065a59" target="_top" xlink:title=" ">
<polygon fill="white" stroke="#666666" points="549,-19 442,-19 442,0 549,0 549,-19"/>
<text text-anchor="middle" x="495.5" y="-7" font-family="Helvetica,sans-Serif" font-size="10.00">detail::is_printable</text>
</a>
</g>
</g>
<!-- Node3&#45;&gt;Node4 -->
<g id="edge3_Node000003_Node000004" class="edge">
<title>Node3&#45;&gt;Node4</title>
<g id="a_edge3_Node000003_Node000004"><a xlink:title=" ">
<path fill="none" stroke="#63b8ff" d="M406,-9.5C414.44,-9.5 423.26,-9.5 431.9,-9.5"/>
<polygon fill="#63b8ff" stroke="#63b8ff" points="431.95,-13 441.95,-9.5 431.95,-6 431.95,-13"/>
</a>
</g>
</g>
</g>
</svg>
