<?xml version="1.0" encoding="UTF-8" standalone="no"?>
<!DOCTYPE svg PUBLIC "-//W3C//DTD SVG 1.1//EN"
 "http://www.w3.org/Graphics/SVG/1.1/DTD/svg11.dtd">
<!-- Generated by graphviz version 2.43.0 (0)
 -->
<!-- Title: detail::ignore_unused Pages: 1 -->
<svg width="1299pt" height="771pt"
 viewBox="0.00 0.00 1299.00 770.50" xmlns="http://www.w3.org/2000/svg" xmlns:xlink="http://www.w3.org/1999/xlink">
<g id="graph0" class="graph" transform="scale(1 1) rotate(0) translate(4 766.5)">
<title>detail::ignore_unused</title>
<!-- Node1 -->
<g id="Node000001" class="node">
<title>Node1</title>
<g id="a_Node000001"><a xlink:title=" ">
<polygon fill="#999999" stroke="#666666" points="1291,-126 1169,-126 1169,-107 1291,-107 1291,-126"/>
<text text-anchor="middle" x="1230" y="-114" font-family="Helvetica,sans-Serif" font-size="10.00">detail::ignore_unused</text>
</a>
</g>
</g>
<!-- Node2 -->
<g id="Node000002" class="node">
<title>Node2</title>
<g id="a_Node000002"><a xlink:href="namespacedetail.html#a9d0b4b56d52390d7c8a4be7baa5e2382" target="_top" xlink:title=" ">
<polygon fill="white" stroke="#666666" points="1133,-295 1005,-295 1005,-276 1133,-276 1133,-295"/>
<text text-anchor="middle" x="1069" y="-283" font-family="Helvetica,sans-Serif" font-size="10.00">detail::abort_fuzzing_if</text>
</a>
</g>
</g>
<!-- Node1&#45;&gt;Node2 -->
<g id="edge1_Node000001_Node000002" class="edge">
<title>Node1&#45;&gt;Node2</title>
<g id="a_edge1_Node000001_Node000002"><a xlink:title=" ">
<path fill="none" stroke="#63b8ff" d="M1212.9,-133.61C1179.9,-168.69 1105.46,-247.81 1079.3,-275.61"/>
<polygon fill="#63b8ff" stroke="#63b8ff" points="1215.69,-135.75 1220,-126.07 1210.59,-130.96 1215.69,-135.75"/>
</a>
</g>
</g>
<!-- Node28 -->
<g id="Node000028" class="node">
<title>Node28</title>
<g id="a_Node000028"><a xlink:href="ostream_8h.html#a5a12ace2368ad2613bac4c16637a97ec" target="_top" xlink:title=" ">
<polygon fill="white" stroke="#666666" points="577,-46 532,-46 532,-27 577,-27 577,-46"/>
<text text-anchor="middle" x="554.5" y="-34" font-family="Helvetica,sans-Serif" font-size="10.00">vprint</text>
</a>
</g>
</g>
<!-- Node1&#45;&gt;Node28 -->
<g id="edge38_Node000001_Node000028" class="edge">
<title>Node1&#45;&gt;Node28</title>
<g id="a_edge38_Node000001_Node000028"><a xlink:title=" ">
<path fill="none" stroke="#63b8ff" d="M1205.74,-131.3C1186.94,-142.35 1159.36,-156.51 1133,-162.5 1077.53,-175.1 1061.34,-170.37 1005,-162.5 831.53,-138.27 795.09,-100.17 626,-54.5 609.66,-50.09 591.11,-45.36 577.14,-41.86"/>
<polygon fill="#63b8ff" stroke="#63b8ff" points="1207.72,-134.2 1214.47,-126.03 1204.1,-128.21 1207.72,-134.2"/>
</a>
</g>
</g>
<!-- Node34 -->
<g id="Node000034" class="node">
<title>Node34</title>
<g id="a_Node000034"><a xlink:href="structbasic__fstring.html#a337ef708847d6f9f014a92b4368484d5" target="_top" xlink:title=" ">
<polygon fill="white" stroke="#666666" points="1124,-153.5 1014,-153.5 1014,-123.5 1124,-123.5 1124,-153.5"/>
<text text-anchor="start" x="1022" y="-141.5" font-family="Helvetica,sans-Serif" font-size="10.00">basic_fstring::basic</text>
<text text-anchor="middle" x="1069" y="-130.5" font-family="Helvetica,sans-Serif" font-size="10.00">_fstring</text>
</a>
</g>
</g>
<!-- Node1&#45;&gt;Node34 -->
<g id="edge33_Node000001_Node000034" class="edge">
<title>Node1&#45;&gt;Node34</title>
<g id="a_edge33_Node000001_Node000034"><a xlink:title=" ">
<path fill="none" stroke="#63b8ff" d="M1158.79,-126.21C1147.19,-127.82 1135.32,-129.46 1124.19,-131"/>
<polygon fill="#63b8ff" stroke="#63b8ff" points="1159.46,-129.65 1168.89,-124.82 1158.5,-122.72 1159.46,-129.65"/>
</a>
</g>
</g>
<!-- Node35 -->
<g id="Node000035" class="node">
<title>Node35</title>
<g id="a_Node000035"><a xlink:href="structfstring.html#a98b7ca8a8a45866b86e9393f4bbb3007" target="_top" xlink:title=" ">
<polygon fill="white" stroke="#666666" points="1112,-105 1026,-105 1026,-86 1112,-86 1112,-105"/>
<text text-anchor="middle" x="1069" y="-93" font-family="Helvetica,sans-Serif" font-size="10.00">fstring::fstring</text>
</a>
</g>
</g>
<!-- Node1&#45;&gt;Node35 -->
<g id="edge34_Node000001_Node000035" class="edge">
<title>Node1&#45;&gt;Node35</title>
<g id="a_edge34_Node000001_Node000035"><a xlink:title=" ">
<path fill="none" stroke="#63b8ff" d="M1158.62,-107.2C1142.85,-105.12 1126.59,-102.97 1112.38,-101.1"/>
<polygon fill="#63b8ff" stroke="#63b8ff" points="1158.52,-110.72 1168.89,-108.56 1159.43,-103.78 1158.52,-110.72"/>
</a>
</g>
</g>
<!-- Node36 -->
<g id="Node000036" class="node">
<title>Node36</title>
<g id="a_Node000036"><a xlink:href="classdetail_1_1get__locale.html#a7d733f4bf68a0b6e7e5266518571207a" target="_top" xlink:title=" ">
<polygon fill="white" stroke="#666666" points="1119.5,-67.5 1018.5,-67.5 1018.5,-37.5 1119.5,-37.5 1119.5,-67.5"/>
<text text-anchor="start" x="1026.5" y="-55.5" font-family="Helvetica,sans-Serif" font-size="10.00">detail::get_locale</text>
<text text-anchor="middle" x="1069" y="-44.5" font-family="Helvetica,sans-Serif" font-size="10.00">::get_locale</text>
</a>
</g>
</g>
<!-- Node1&#45;&gt;Node36 -->
<g id="edge35_Node000001_Node000036" class="edge">
<title>Node1&#45;&gt;Node36</title>
<g id="a_edge35_Node000001_Node000036"><a xlink:title=" ">
<path fill="none" stroke="#63b8ff" d="M1197.36,-103.03C1178.69,-95.15 1154.57,-85.1 1133,-76.5 1125.61,-73.55 1117.7,-70.48 1110.07,-67.55"/>
<polygon fill="#63b8ff" stroke="#63b8ff" points="1196.01,-106.26 1206.58,-106.93 1198.73,-99.81 1196.01,-106.26"/>
</a>
</g>
</g>
<!-- Node38 -->
<g id="Node000038" class="node">
<title>Node38</title>
<g id="a_Node000038"><a xlink:href="classlocale__ref.html#ac6916b981fb78fd39b93638b6ec4b9ff" target="_top" xlink:title=" ">
<polygon fill="white" stroke="#666666" points="1128,-19 1010,-19 1010,0 1128,0 1128,-19"/>
<text text-anchor="middle" x="1069" y="-7" font-family="Helvetica,sans-Serif" font-size="10.00">locale_ref::locale_ref</text>
</a>
</g>
</g>
<!-- Node1&#45;&gt;Node38 -->
<g id="edge37_Node000001_Node000038" class="edge">
<title>Node1&#45;&gt;Node38</title>
<g id="a_edge37_Node000001_Node000038"><a xlink:title=" ">
<path fill="none" stroke="#63b8ff" d="M1214.47,-99.11C1197.04,-79.32 1166.01,-47.29 1133,-28.5 1126.35,-24.71 1118.86,-21.61 1111.44,-19.09"/>
<polygon fill="#63b8ff" stroke="#63b8ff" points="1211.89,-101.49 1221.07,-106.78 1217.2,-96.92 1211.89,-101.49"/>
</a>
</g>
</g>
<!-- Node3 -->
<g id="Node000003" class="node">
<title>Node3</title>
<g id="a_Node000003"><a xlink:href="classbasic__memory__buffer.html#a97d9a0a0f9827c9277e2eea97fa0309b" target="_top" xlink:title=" ">
<polygon fill="white" stroke="#666666" points="958.5,-365.5 836.5,-365.5 836.5,-335.5 958.5,-335.5 958.5,-365.5"/>
<text text-anchor="start" x="844.5" y="-353.5" font-family="Helvetica,sans-Serif" font-size="10.00">basic_memory_buffer</text>
<text text-anchor="middle" x="897.5" y="-342.5" font-family="Helvetica,sans-Serif" font-size="10.00">::grow</text>
</a>
</g>
</g>
<!-- Node2&#45;&gt;Node3 -->
<g id="edge2_Node000002_Node000003" class="edge">
<title>Node2&#45;&gt;Node3</title>
<g id="a_edge2_Node000002_Node000003"><a xlink:title=" ">
<path fill="none" stroke="#63b8ff" d="M1033.31,-298.8C1005.56,-309.44 966.66,-324.36 937.77,-335.44"/>
<polygon fill="#63b8ff" stroke="#63b8ff" points="1034.91,-301.94 1042.99,-295.09 1032.4,-295.4 1034.91,-301.94"/>
</a>
</g>
</g>
<!-- Node4 -->
<g id="Node000004" class="node">
<title>Node4</title>
<g id="a_Node000004"><a xlink:href="classbasic__memory__buffer.html#ade18cff12fc914085665a07af2e8fb7b" target="_top" xlink:title=" ">
<polygon fill="white" stroke="#666666" points="790,-596.5 662,-596.5 662,-566.5 790,-566.5 790,-596.5"/>
<text text-anchor="start" x="670" y="-584.5" font-family="Helvetica,sans-Serif" font-size="10.00">basic_memory_buffer</text>
<text text-anchor="middle" x="726" y="-573.5" font-family="Helvetica,sans-Serif" font-size="10.00">::basic_memory_buffer</text>
</a>
</g>
</g>
<!-- Node3&#45;&gt;Node4 -->
<g id="edge3_Node000003_Node000004" class="edge">
<title>Node3&#45;&gt;Node4</title>
<g id="a_edge3_Node000003_Node000004"><a xlink:title=" ">
<path fill="none" stroke="#63b8ff" d="M879.44,-373.76C844.81,-420.95 767.12,-526.82 738.16,-566.29"/>
<polygon fill="#63b8ff" stroke="#63b8ff" points="882.28,-375.79 885.38,-365.66 876.64,-371.65 882.28,-375.79"/>
</a>
</g>
</g>
<!-- Node9 -->
<g id="Node000009" class="node">
<title>Node9</title>
<g id="a_Node000009"><a xlink:href="classbasic__memory__buffer.html#a7a9300acfadb00a835b36a86a198f433" target="_top" xlink:title=" ">
<polygon fill="white" stroke="#666666" points="790,-365.5 662,-365.5 662,-335.5 790,-335.5 790,-365.5"/>
<text text-anchor="start" x="670" y="-353.5" font-family="Helvetica,sans-Serif" font-size="10.00">basic_memory_buffer</text>
<text text-anchor="middle" x="726" y="-342.5" font-family="Helvetica,sans-Serif" font-size="10.00">::basic_memory_buffer</text>
</a>
</g>
</g>
<!-- Node3&#45;&gt;Node9 -->
<g id="edge8_Node000003_Node000009" class="edge">
<title>Node3&#45;&gt;Node9</title>
<g id="a_edge8_Node000003_Node000009"><a xlink:title=" ">
<path fill="none" stroke="#63b8ff" d="M825.96,-350.5C814.1,-350.5 801.86,-350.5 790.2,-350.5"/>
<polygon fill="#63b8ff" stroke="#63b8ff" points="826.26,-354 836.26,-350.5 826.26,-347 826.26,-354"/>
</a>
</g>
</g>
<!-- Node5 -->
<g id="Node000005" class="node">
<title>Node5</title>
<g id="a_Node000005"><a xlink:href="classdetail_1_1bigint.html#a15833eda9c0cc326a77b0a37ac208a20" target="_top" xlink:title=" ">
<polygon fill="white" stroke="#666666" points="613,-757 496,-757 496,-738 613,-738 613,-757"/>
<text text-anchor="middle" x="554.5" y="-745" font-family="Helvetica,sans-Serif" font-size="10.00">detail::bigint::square</text>
</a>
</g>
</g>
<!-- Node4&#45;&gt;Node5 -->
<g id="edge4_Node000004_Node000005" class="edge">
<title>Node4&#45;&gt;Node5</title>
<g id="a_edge4_Node000004_Node000005"><a xlink:title=" ">
<path fill="none" stroke="#63b8ff" d="M715.12,-605.96C700.57,-638.86 670.23,-696.88 626,-728.5 620.53,-732.41 614.31,-735.51 607.88,-737.98"/>
<polygon fill="#63b8ff" stroke="#63b8ff" points="718.41,-607.19 719.13,-596.62 711.97,-604.43 718.41,-607.19"/>
</a>
</g>
</g>
<!-- Node6 -->
<g id="Node000006" class="node">
<title>Node6</title>
<g id="a_Node000006"><a xlink:href="classdetail_1_1bigint.html#a8351139b55eb772c8f1c9f86e8e66e8f" target="_top" xlink:title=" ">
<polygon fill="white" stroke="#666666" points="433.5,-762.5 317.5,-762.5 317.5,-732.5 433.5,-732.5 433.5,-762.5"/>
<text text-anchor="start" x="325.5" y="-750.5" font-family="Helvetica,sans-Serif" font-size="10.00">detail::bigint::assign</text>
<text text-anchor="middle" x="375.5" y="-739.5" font-family="Helvetica,sans-Serif" font-size="10.00">_pow10</text>
</a>
</g>
</g>
<!-- Node5&#45;&gt;Node6 -->
<g id="edge5_Node000005_Node000006" class="edge">
<title>Node5&#45;&gt;Node6</title>
<g id="a_edge5_Node000005_Node000006"><a xlink:title=" ">
<path fill="none" stroke="#63b8ff" d="M485.12,-747.5C468.12,-747.5 450.08,-747.5 433.68,-747.5"/>
<polygon fill="#63b8ff" stroke="#63b8ff" points="485.54,-751 495.54,-747.5 485.54,-744 485.54,-751"/>
</a>
</g>
</g>
<!-- Node7 -->
<g id="Node000007" class="node">
<title>Node7</title>
<g id="a_Node000007"><a xlink:href="namespacedetail.html#af3eae8fdebff07dc2edca668eaf2f8bd" target="_top" xlink:title=" ">
<polygon fill="white" stroke="#666666" points="268,-757 146,-757 146,-738 268,-738 268,-757"/>
<text text-anchor="middle" x="207" y="-745" font-family="Helvetica,sans-Serif" font-size="10.00">detail::format_dragon</text>
</a>
</g>
</g>
<!-- Node6&#45;&gt;Node7 -->
<g id="edge6_Node000006_Node000007" class="edge">
<title>Node6&#45;&gt;Node7</title>
<g id="a_edge6_Node000006_Node000007"><a xlink:title=" ">
<path fill="none" stroke="#63b8ff" d="M307.04,-747.5C294.2,-747.5 280.84,-747.5 268.24,-747.5"/>
<polygon fill="#63b8ff" stroke="#63b8ff" points="307.2,-751 317.2,-747.5 307.2,-744 307.2,-751"/>
</a>
</g>
</g>
<!-- Node8 -->
<g id="Node000008" class="node">
<title>Node8</title>
<g id="a_Node000008"><a xlink:href="namespacedetail.html#add861c358ea50b446b1a06080adb44ba" target="_top" xlink:title=" ">
<polygon fill="white" stroke="#666666" points="110,-757 0,-757 0,-738 110,-738 110,-757"/>
<text text-anchor="middle" x="55" y="-745" font-family="Helvetica,sans-Serif" font-size="10.00">detail::format_float</text>
</a>
</g>
</g>
<!-- Node7&#45;&gt;Node8 -->
<g id="edge7_Node000007_Node000008" class="edge">
<title>Node7&#45;&gt;Node8</title>
<g id="a_edge7_Node000007_Node000008"><a xlink:title=" ">
<path fill="none" stroke="#63b8ff" d="M135.58,-747.5C127.1,-747.5 118.54,-747.5 110.34,-747.5"/>
<polygon fill="#63b8ff" stroke="#63b8ff" points="135.85,-751 145.85,-747.5 135.85,-744 135.85,-751"/>
</a>
</g>
</g>
<!-- Node10 -->
<g id="Node000010" class="node">
<title>Node10</title>
<g id="a_Node000010"><a xlink:href="classdetail_1_1digit__grouping.html#a0f6b16f6c24b8a79c3415aff8724e5b3" target="_top" xlink:title=" ">
<polygon fill="white" stroke="#666666" points="614.5,-719.5 494.5,-719.5 494.5,-689.5 614.5,-689.5 614.5,-719.5"/>
<text text-anchor="start" x="502.5" y="-707.5" font-family="Helvetica,sans-Serif" font-size="10.00">detail::digit_grouping</text>
<text text-anchor="middle" x="554.5" y="-696.5" font-family="Helvetica,sans-Serif" font-size="10.00">::apply</text>
</a>
</g>
</g>
<!-- Node9&#45;&gt;Node10 -->
<g id="edge9_Node000009_Node000010" class="edge">
<title>Node9&#45;&gt;Node10</title>
<g id="a_edge9_Node000009_Node000010"><a xlink:title=" ">
<path fill="none" stroke="#63b8ff" d="M717.31,-375.45C705.36,-414.31 681.64,-491.7 662,-557.5 645.71,-612.08 665.39,-639.36 626,-680.5 622.69,-683.96 618.87,-686.91 614.74,-689.45"/>
<polygon fill="#63b8ff" stroke="#63b8ff" points="720.76,-376.13 720.36,-365.55 714.07,-374.08 720.76,-376.13"/>
</a>
</g>
</g>
<!-- Node11 -->
<g id="Node000011" class="node">
<title>Node11</title>
<g id="a_Node000011"><a xlink:href="structformatter_3_01std_1_1error__code_01_4.html#a470063b0427cac0f4618f8efe71656ac" target="_top" xlink:title=" ">
<polygon fill="white" stroke="#666666" points="614,-671.5 495,-671.5 495,-641.5 614,-641.5 614,-671.5"/>
<text text-anchor="start" x="503" y="-659.5" font-family="Helvetica,sans-Serif" font-size="10.00">formatter&lt; std::error</text>
<text text-anchor="middle" x="554.5" y="-648.5" font-family="Helvetica,sans-Serif" font-size="10.00">_code &gt;::format</text>
</a>
</g>
</g>
<!-- Node9&#45;&gt;Node11 -->
<g id="edge10_Node000009_Node000011" class="edge">
<title>Node9&#45;&gt;Node11</title>
<g id="a_edge10_Node000009_Node000011"><a xlink:title=" ">
<path fill="none" stroke="#63b8ff" d="M717.6,-375.48C698.02,-440.93 645.08,-613.61 626,-632.5 622.51,-635.96 618.5,-638.92 614.21,-641.45"/>
<polygon fill="#63b8ff" stroke="#63b8ff" points="721.04,-376.18 720.55,-365.6 714.33,-374.18 721.04,-376.18"/>
</a>
</g>
</g>
<!-- Node12 -->
<g id="Node000012" class="node">
<title>Node12</title>
<g id="a_Node000012"><a xlink:href="classdetail_1_1tm__writer.html#a57084e1a4311b7439ef4217fa3018285" target="_top" xlink:title=" ">
<polygon fill="white" stroke="#666666" points="606.5,-623.5 502.5,-623.5 502.5,-593.5 606.5,-593.5 606.5,-623.5"/>
<text text-anchor="start" x="510.5" y="-611.5" font-family="Helvetica,sans-Serif" font-size="10.00">detail::tm_writer::</text>
<text text-anchor="middle" x="554.5" y="-600.5" font-family="Helvetica,sans-Serif" font-size="10.00">on_second</text>
</a>
</g>
</g>
<!-- Node9&#45;&gt;Node12 -->
<g id="edge11_Node000009_Node000012" class="edge">
<title>Node9&#45;&gt;Node12</title>
<g id="a_edge11_Node000009_Node000012"><a xlink:title=" ">
<path fill="none" stroke="#63b8ff" d="M721.28,-375.53C712.94,-422.99 688.32,-526.52 626,-584.5 620.41,-589.7 613.66,-593.77 606.57,-596.97"/>
<polygon fill="#63b8ff" stroke="#63b8ff" points="724.76,-375.94 722.95,-365.5 717.86,-374.8 724.76,-375.94"/>
</a>
</g>
</g>
<!-- Node16 -->
<g id="Node000016" class="node">
<title>Node16</title>
<g id="a_Node000016"><a xlink:href="structdetail_1_1duration__formatter.html#a5eaa3651f2774bf273f23c4a6cb232a2" target="_top" xlink:title=" ">
<polygon fill="white" stroke="#666666" points="626,-575.5 483,-575.5 483,-545.5 626,-545.5 626,-575.5"/>
<text text-anchor="start" x="491" y="-563.5" font-family="Helvetica,sans-Serif" font-size="10.00">detail::duration_formatter</text>
<text text-anchor="middle" x="554.5" y="-552.5" font-family="Helvetica,sans-Serif" font-size="10.00">::on_second</text>
</a>
</g>
</g>
<!-- Node9&#45;&gt;Node16 -->
<g id="edge15_Node000009_Node000016" class="edge">
<title>Node9&#45;&gt;Node16</title>
<g id="a_edge15_Node000009_Node000016"><a xlink:title=" ">
<path fill="none" stroke="#63b8ff" d="M718.27,-375.39C706.28,-415.07 677.54,-492.66 626,-536.5 621.96,-539.93 617.41,-542.89 612.61,-545.42"/>
<polygon fill="#63b8ff" stroke="#63b8ff" points="721.65,-376.29 721.08,-365.71 714.93,-374.33 721.65,-376.29"/>
</a>
</g>
</g>
<!-- Node18 -->
<g id="Node000018" class="node">
<title>Node18</title>
<g id="a_Node000018"><a xlink:href="compile_8h.html#aafd70447a5d15c593712be146611663d" target="_top" xlink:title=" ">
<polygon fill="white" stroke="#666666" points="574,-527 535,-527 535,-508 574,-508 574,-527"/>
<text text-anchor="middle" x="554.5" y="-515" font-family="Helvetica,sans-Serif" font-size="10.00">print</text>
</a>
</g>
</g>
<!-- Node9&#45;&gt;Node18 -->
<g id="edge17_Node000009_Node000018" class="edge">
<title>Node9&#45;&gt;Node18</title>
<g id="a_edge17_Node000009_Node000018"><a xlink:title=" ">
<path fill="none" stroke="#63b8ff" d="M715.27,-375.38C700.9,-408.82 670.76,-467.74 626,-499.5 610.65,-510.39 589.29,-514.7 574.11,-516.4"/>
<polygon fill="#63b8ff" stroke="#63b8ff" points="718.62,-376.46 719.23,-365.88 712.16,-373.77 718.62,-376.46"/>
</a>
</g>
</g>
<!-- Node19 -->
<g id="Node000019" class="node">
<title>Node19</title>
<g id="a_Node000019"><a xlink:href="ostream_8h.html#a3883cc4dedb6840173d3ca9699e7693c" target="_top" xlink:title=" ">
<polygon fill="white" stroke="#666666" points="574,-490 535,-490 535,-471 574,-471 574,-490"/>
<text text-anchor="middle" x="554.5" y="-478" font-family="Helvetica,sans-Serif" font-size="10.00">print</text>
</a>
</g>
</g>
<!-- Node9&#45;&gt;Node19 -->
<g id="edge18_Node000009_Node000019" class="edge">
<title>Node9&#45;&gt;Node19</title>
<g id="a_edge18_Node000009_Node000019"><a xlink:title=" ">
<path fill="none" stroke="#63b8ff" d="M710.37,-374.2C693.29,-399.86 662.65,-440.11 626,-462.5 610.05,-472.25 588.98,-476.74 574.04,-478.8"/>
<polygon fill="#63b8ff" stroke="#63b8ff" points="713.32,-376.08 715.83,-365.79 707.45,-372.27 713.32,-376.08"/>
</a>
</g>
</g>
<!-- Node20 -->
<g id="Node000020" class="node">
<title>Node20</title>
<g id="a_Node000020"><a xlink:href="format_8h.html#a5ef22e73c121e5454e75a221470d3214" target="_top" xlink:title=" ">
<polygon fill="white" stroke="#666666" points="582.5,-453 526.5,-453 526.5,-434 582.5,-434 582.5,-453"/>
<text text-anchor="middle" x="554.5" y="-441" font-family="Helvetica,sans-Serif" font-size="10.00">vformat</text>
</a>
</g>
</g>
<!-- Node9&#45;&gt;Node20 -->
<g id="edge19_Node000009_Node000020" class="edge">
<title>Node9&#45;&gt;Node20</title>
<g id="a_edge19_Node000009_Node000020"><a xlink:title=" ">
<path fill="none" stroke="#63b8ff" d="M701.63,-372.53C682.62,-389.32 654.38,-411.82 626,-425.5 612.46,-432.03 596.27,-436.38 582.83,-439.16"/>
<polygon fill="#63b8ff" stroke="#63b8ff" points="704.1,-375.02 709.18,-365.72 699.41,-369.81 704.1,-375.02"/>
</a>
</g>
</g>
<!-- Node21 -->
<g id="Node000021" class="node">
<title>Node21</title>
<g id="a_Node000021"><a xlink:href="format-inl_8h.html#a7d363bad28ecb7c5fda462edcafa09cb" target="_top" xlink:title=" ">
<polygon fill="white" stroke="#666666" points="582.5,-416 526.5,-416 526.5,-397 582.5,-397 582.5,-416"/>
<text text-anchor="middle" x="554.5" y="-404" font-family="Helvetica,sans-Serif" font-size="10.00">vformat</text>
</a>
</g>
</g>
<!-- Node9&#45;&gt;Node21 -->
<g id="edge20_Node000009_Node000021" class="edge">
<title>Node9&#45;&gt;Node21</title>
<g id="a_edge20_Node000009_Node000021"><a xlink:title=" ">
<path fill="none" stroke="#63b8ff" d="M679.21,-369.35C662.6,-375.85 643.6,-382.9 626,-388.5 611.92,-392.98 595.98,-397.13 582.83,-400.31"/>
<polygon fill="#63b8ff" stroke="#63b8ff" points="680.68,-372.54 688.69,-365.6 678.1,-366.03 680.68,-372.54"/>
</a>
</g>
</g>
<!-- Node23 -->
<g id="Node000023" class="node">
<title>Node23</title>
<g id="a_Node000023"><a xlink:href="home_2runner_2work_2CHRONOS-LoRa_2CHRONOS-LoRa_2thirdparty_2fmt_2include_2fmt_2color_8h.html#aadf71aa39d12c7a1ca08c8596c513edd" target="_top" xlink:title=" ">
<polygon fill="white" stroke="#666666" points="582.5,-379 526.5,-379 526.5,-360 582.5,-360 582.5,-379"/>
<text text-anchor="middle" x="554.5" y="-367" font-family="Helvetica,sans-Serif" font-size="10.00">vformat</text>
</a>
</g>
</g>
<!-- Node9&#45;&gt;Node23 -->
<g id="edge22_Node000009_Node000023" class="edge">
<title>Node9&#45;&gt;Node23</title>
<g id="a_edge22_Node000009_Node000023"><a xlink:title=" ">
<path fill="none" stroke="#63b8ff" d="M651.85,-358.7C627.34,-361.45 601.5,-364.34 582.76,-366.44"/>
<polygon fill="#63b8ff" stroke="#63b8ff" points="652.34,-362.17 661.88,-357.57 651.56,-355.21 652.34,-362.17"/>
</a>
</g>
</g>
<!-- Node24 -->
<g id="Node000024" class="node">
<title>Node24</title>
<g id="a_Node000024"><a xlink:href="xchar_8h.html#a0787317722f2961c0ee550a845cfb966" target="_top" xlink:title=" ">
<polygon fill="white" stroke="#666666" points="582.5,-342 526.5,-342 526.5,-323 582.5,-323 582.5,-342"/>
<text text-anchor="middle" x="554.5" y="-330" font-family="Helvetica,sans-Serif" font-size="10.00">vformat</text>
</a>
</g>
</g>
<!-- Node9&#45;&gt;Node24 -->
<g id="edge23_Node000009_Node000024" class="edge">
<title>Node9&#45;&gt;Node24</title>
<g id="a_edge23_Node000009_Node000024"><a xlink:title=" ">
<path fill="none" stroke="#63b8ff" d="M651.85,-342.73C627.34,-340.13 601.5,-337.39 582.76,-335.4"/>
<polygon fill="#63b8ff" stroke="#63b8ff" points="651.57,-346.22 661.88,-343.8 652.31,-339.26 651.57,-346.22"/>
</a>
</g>
</g>
<!-- Node25 -->
<g id="Node000025" class="node">
<title>Node25</title>
<g id="a_Node000025"><a xlink:href="home_2runner_2work_2CHRONOS-LoRa_2CHRONOS-LoRa_2thirdparty_2fmt_2include_2fmt_2color_8h.html#a86192aabb5e3ab5d0461f757afbbfb4e" target="_top" xlink:title=" ">
<polygon fill="white" stroke="#666666" points="577,-305 532,-305 532,-286 577,-286 577,-305"/>
<text text-anchor="middle" x="554.5" y="-293" font-family="Helvetica,sans-Serif" font-size="10.00">vprint</text>
</a>
</g>
</g>
<!-- Node9&#45;&gt;Node25 -->
<g id="edge24_Node000009_Node000025" class="edge">
<title>Node9&#45;&gt;Node25</title>
<g id="a_edge24_Node000009_Node000025"><a xlink:title=" ">
<path fill="none" stroke="#63b8ff" d="M676.14,-331.79C660.25,-325.96 642.46,-319.7 626,-314.5 609.8,-309.38 591.25,-304.42 577.24,-300.85"/>
<polygon fill="#63b8ff" stroke="#63b8ff" points="675.17,-335.17 685.76,-335.36 677.6,-328.6 675.17,-335.17"/>
</a>
</g>
</g>
<!-- Node26 -->
<g id="Node000026" class="node">
<title>Node26</title>
<g id="a_Node000026"><a xlink:href="xchar_8h.html#ad59e14d924bf2fe1d17939ad9d8b8d4a" target="_top" xlink:title=" ">
<polygon fill="white" stroke="#666666" points="577,-268 532,-268 532,-249 577,-249 577,-268"/>
<text text-anchor="middle" x="554.5" y="-256" font-family="Helvetica,sans-Serif" font-size="10.00">vprint</text>
</a>
</g>
</g>
<!-- Node9&#45;&gt;Node26 -->
<g id="edge25_Node000009_Node000026" class="edge">
<title>Node9&#45;&gt;Node26</title>
<g id="a_edge25_Node000009_Node000026"><a xlink:title=" ">
<path fill="none" stroke="#63b8ff" d="M701.13,-328.9C682.04,-312.66 653.94,-290.97 626,-277.5 610.47,-270.01 591.54,-265.12 577.21,-262.17"/>
<polygon fill="#63b8ff" stroke="#63b8ff" points="698.89,-331.58 708.73,-335.49 703.47,-326.29 698.89,-331.58"/>
</a>
</g>
</g>
<!-- Node9&#45;&gt;Node28 -->
<g id="edge27_Node000009_Node000028" class="edge">
<title>Node9&#45;&gt;Node28</title>
<g id="a_edge27_Node000009_Node000028"><a xlink:title=" ">
<path fill="none" stroke="#63b8ff" d="M713.84,-326.03C700.34,-295.8 677.5,-242.6 662,-195.5 641.78,-134.07 671.73,-100.23 626,-54.5 613.23,-41.73 592.73,-37.61 577.12,-36.46"/>
<polygon fill="#63b8ff" stroke="#63b8ff" points="710.74,-327.67 718.04,-335.36 717.13,-324.8 710.74,-327.67"/>
</a>
</g>
</g>
<!-- Node29 -->
<g id="Node000029" class="node">
<title>Node29</title>
<g id="a_Node000029"><a xlink:href="xchar_8h.html#aae096773ff6c45b6cc1555e3bb92c3d3" target="_top" xlink:title=" ">
<polygon fill="white" stroke="#666666" points="577,-231 532,-231 532,-212 577,-212 577,-231"/>
<text text-anchor="middle" x="554.5" y="-219" font-family="Helvetica,sans-Serif" font-size="10.00">vprint</text>
</a>
</g>
</g>
<!-- Node9&#45;&gt;Node29 -->
<g id="edge28_Node000009_Node000029" class="edge">
<title>Node9&#45;&gt;Node29</title>
<g id="a_edge28_Node000009_Node000029"><a xlink:title=" ">
<path fill="none" stroke="#63b8ff" d="M709.71,-326.58C692.39,-301.43 661.88,-262.53 626,-240.5 611.09,-231.35 591.77,-226.54 577.13,-224.06"/>
<polygon fill="#63b8ff" stroke="#63b8ff" points="706.99,-328.81 715.47,-335.16 712.8,-324.91 706.99,-328.81"/>
</a>
</g>
</g>
<!-- Node30 -->
<g id="Node000030" class="node">
<title>Node30</title>
<g id="a_Node000030"><a xlink:href="format-inl_8h.html#a3774f0f4816097d469f11407f83ee394" target="_top" xlink:title=" ">
<polygon fill="white" stroke="#666666" points="600,-194 509,-194 509,-175 600,-175 600,-194"/>
<text text-anchor="middle" x="554.5" y="-182" font-family="Helvetica,sans-Serif" font-size="10.00">vprint_buffered</text>
</a>
</g>
</g>
<!-- Node9&#45;&gt;Node30 -->
<g id="edge29_Node000009_Node000030" class="edge">
<title>Node9&#45;&gt;Node30</title>
<g id="a_edge29_Node000009_Node000030"><a xlink:title=" ">
<path fill="none" stroke="#63b8ff" d="M715.12,-326.04C700.57,-293.14 670.23,-235.12 626,-203.5 618.37,-198.04 609.26,-194.16 600.16,-191.38"/>
<polygon fill="#63b8ff" stroke="#63b8ff" points="711.97,-327.57 719.13,-335.38 718.41,-324.81 711.97,-327.57"/>
</a>
</g>
</g>
<!-- Node31 -->
<g id="Node000031" class="node">
<title>Node31</title>
<g id="a_Node000031"><a xlink:href="format-inl_8h.html#a71033730e1d1c2c72b7905f21929df93" target="_top" xlink:title=" ">
<polygon fill="white" stroke="#666666" points="581.5,-157 527.5,-157 527.5,-138 581.5,-138 581.5,-157"/>
<text text-anchor="middle" x="554.5" y="-145" font-family="Helvetica,sans-Serif" font-size="10.00">vprintln</text>
</a>
</g>
</g>
<!-- Node9&#45;&gt;Node31 -->
<g id="edge30_Node000009_Node000031" class="edge">
<title>Node9&#45;&gt;Node31</title>
<g id="a_edge30_Node000009_Node000031"><a xlink:title=" ">
<path fill="none" stroke="#63b8ff" d="M718.6,-325.79C707,-286.07 678.71,-208.28 626,-166.5 613.38,-156.5 595.93,-151.75 581.55,-149.49"/>
<polygon fill="#63b8ff" stroke="#63b8ff" points="715.24,-326.78 721.31,-335.47 721.98,-324.89 715.24,-326.78"/>
</a>
</g>
</g>
<!-- Node32 -->
<g id="Node000032" class="node">
<title>Node32</title>
<g id="a_Node000032"><a xlink:href="namespacedetail.html#a53f64cca161818cc3e0d8ebce2a36335" target="_top" xlink:title=" ">
<polygon fill="white" stroke="#666666" points="601,-120 508,-120 508,-101 601,-101 601,-120"/>
<text text-anchor="middle" x="554.5" y="-108" font-family="Helvetica,sans-Serif" font-size="10.00">detail::write_int</text>
</a>
</g>
</g>
<!-- Node9&#45;&gt;Node32 -->
<g id="edge31_Node000009_Node000032" class="edge">
<title>Node9&#45;&gt;Node32</title>
<g id="a_edge31_Node000009_Node000032"><a xlink:title=" ">
<path fill="none" stroke="#63b8ff" d="M715.34,-325.83C693.72,-271.09 642.04,-143.18 626,-129.5 618.96,-123.49 610.2,-119.37 601.28,-116.54"/>
<polygon fill="#63b8ff" stroke="#63b8ff" points="712.21,-327.43 719.13,-335.45 718.72,-324.87 712.21,-327.43"/>
</a>
</g>
</g>
<!-- Node33 -->
<g id="Node000033" class="node">
<title>Node33</title>
<g id="a_Node000033"><a xlink:href="namespacedetail.html#a289cb079ced65a67e9c17bef575ece59" target="_top" xlink:title=" ">
<polygon fill="white" stroke="#666666" points="621,-83 488,-83 488,-64 621,-64 621,-83"/>
<text text-anchor="middle" x="554.5" y="-71" font-family="Helvetica,sans-Serif" font-size="10.00">detail::write_significand</text>
</a>
</g>
</g>
<!-- Node9&#45;&gt;Node33 -->
<g id="edge32_Node000009_Node000033" class="edge">
<title>Node9&#45;&gt;Node33</title>
<g id="a_edge32_Node000009_Node000033"><a xlink:title=" ">
<path fill="none" stroke="#63b8ff" d="M714.49,-325.8C701.64,-295.35 679.45,-241.91 662,-195.5 644.79,-149.72 662,-124.62 626,-91.5 622.28,-88.08 618,-85.29 613.43,-83.01"/>
<polygon fill="#63b8ff" stroke="#63b8ff" points="711.35,-327.36 718.47,-335.21 717.8,-324.63 711.35,-327.36"/>
</a>
</g>
</g>
<!-- Node13 -->
<g id="Node000013" class="node">
<title>Node13</title>
<g id="a_Node000013"><a xlink:href="classdetail_1_1tm__writer.html#a4a0487e028e1502e59e0f29f896ff740" target="_top" xlink:title=" ">
<polygon fill="white" stroke="#666666" points="427.5,-623.5 323.5,-623.5 323.5,-593.5 427.5,-593.5 427.5,-623.5"/>
<text text-anchor="start" x="331.5" y="-611.5" font-family="Helvetica,sans-Serif" font-size="10.00">detail::tm_writer::</text>
<text text-anchor="middle" x="375.5" y="-600.5" font-family="Helvetica,sans-Serif" font-size="10.00">on_iso_time</text>
</a>
</g>
</g>
<!-- Node12&#45;&gt;Node13 -->
<g id="edge12_Node000012_Node000013" class="edge">
<title>Node12&#45;&gt;Node13</title>
<g id="a_edge12_Node000012_Node000013"><a xlink:title=" ">
<path fill="none" stroke="#63b8ff" d="M492.17,-608.5C471.1,-608.5 447.75,-608.5 427.58,-608.5"/>
<polygon fill="#63b8ff" stroke="#63b8ff" points="492.3,-612 502.3,-608.5 492.3,-605 492.3,-612"/>
</a>
</g>
</g>
<!-- Node14 -->
<g id="Node000014" class="node">
<title>Node14</title>
<g id="a_Node000014"><a xlink:href="classdetail_1_1tm__writer.html#af53d115957cdef5079ea641b12d8dce9" target="_top" xlink:title=" ">
<polygon fill="white" stroke="#666666" points="259,-647.5 155,-647.5 155,-617.5 259,-617.5 259,-647.5"/>
<text text-anchor="start" x="163" y="-635.5" font-family="Helvetica,sans-Serif" font-size="10.00">detail::tm_writer::</text>
<text text-anchor="middle" x="207" y="-624.5" font-family="Helvetica,sans-Serif" font-size="10.00">on_datetime</text>
</a>
</g>
</g>
<!-- Node13&#45;&gt;Node14 -->
<g id="edge13_Node000013_Node000014" class="edge">
<title>Node13&#45;&gt;Node14</title>
<g id="a_edge13_Node000013_Node000014"><a xlink:title=" ">
<path fill="none" stroke="#63b8ff" d="M312.95,-617.37C295.25,-619.92 276.14,-622.68 259.14,-625.13"/>
<polygon fill="#63b8ff" stroke="#63b8ff" points="313.79,-620.79 323.19,-615.9 312.79,-613.86 313.79,-620.79"/>
</a>
</g>
</g>
<!-- Node15 -->
<g id="Node000015" class="node">
<title>Node15</title>
<g id="a_Node000015"><a xlink:href="classdetail_1_1tm__writer.html#a67832bfe5da8fdfae46367a14fb35d48" target="_top" xlink:title=" ">
<polygon fill="white" stroke="#666666" points="259,-599.5 155,-599.5 155,-569.5 259,-569.5 259,-599.5"/>
<text text-anchor="start" x="163" y="-587.5" font-family="Helvetica,sans-Serif" font-size="10.00">detail::tm_writer::</text>
<text text-anchor="middle" x="207" y="-576.5" font-family="Helvetica,sans-Serif" font-size="10.00">on_loc_time</text>
</a>
</g>
</g>
<!-- Node13&#45;&gt;Node15 -->
<g id="edge14_Node000013_Node000015" class="edge">
<title>Node13&#45;&gt;Node15</title>
<g id="a_edge14_Node000013_Node000015"><a xlink:title=" ">
<path fill="none" stroke="#63b8ff" d="M312.95,-599.63C295.25,-597.08 276.14,-594.32 259.14,-591.87"/>
<polygon fill="#63b8ff" stroke="#63b8ff" points="312.79,-603.14 323.19,-601.1 313.79,-596.21 312.79,-603.14"/>
</a>
</g>
</g>
<!-- Node17 -->
<g id="Node000017" class="node">
<title>Node17</title>
<g id="a_Node000017"><a xlink:href="structdetail_1_1duration__formatter.html#a8044d0b686a0080acbb954da3cab168d" target="_top" xlink:title=" ">
<polygon fill="white" stroke="#666666" points="447,-575.5 304,-575.5 304,-545.5 447,-545.5 447,-575.5"/>
<text text-anchor="start" x="312" y="-563.5" font-family="Helvetica,sans-Serif" font-size="10.00">detail::duration_formatter</text>
<text text-anchor="middle" x="375.5" y="-552.5" font-family="Helvetica,sans-Serif" font-size="10.00">::on_iso_time</text>
</a>
</g>
</g>
<!-- Node16&#45;&gt;Node17 -->
<g id="edge16_Node000016_Node000017" class="edge">
<title>Node16&#45;&gt;Node17</title>
<g id="a_edge16_Node000016_Node000017"><a xlink:title=" ">
<path fill="none" stroke="#63b8ff" d="M472.51,-560.5C464.03,-560.5 455.46,-560.5 447.11,-560.5"/>
<polygon fill="#63b8ff" stroke="#63b8ff" points="472.78,-564 482.78,-560.5 472.78,-557 472.78,-564"/>
</a>
</g>
</g>
<!-- Node22 -->
<g id="Node000022" class="node">
<title>Node22</title>
<g id="a_Node000022"><a xlink:href="format-inl_8h.html#ab41bf8cae80639f211595a96bc63c343" target="_top" xlink:title=" ">
<polygon fill="white" stroke="#666666" points="419,-416 332,-416 332,-397 419,-397 419,-416"/>
<text text-anchor="middle" x="375.5" y="-404" font-family="Helvetica,sans-Serif" font-size="10.00">vsystem_error</text>
</a>
</g>
</g>
<!-- Node21&#45;&gt;Node22 -->
<g id="edge21_Node000021_Node000022" class="edge">
<title>Node21&#45;&gt;Node22</title>
<g id="a_edge21_Node000021_Node000022"><a xlink:title=" ">
<path fill="none" stroke="#63b8ff" d="M515.94,-406.5C487.65,-406.5 448.81,-406.5 419.31,-406.5"/>
<polygon fill="#63b8ff" stroke="#63b8ff" points="516.23,-410 526.23,-406.5 516.23,-403 516.23,-410"/>
</a>
</g>
</g>
<!-- Node27 -->
<g id="Node000027" class="node">
<title>Node27</title>
<g id="a_Node000027"><a xlink:href="xchar_8h.html#ab357e28df4fee8293636aaf7a1662508" target="_top" xlink:title=" ">
<polygon fill="white" stroke="#666666" points="398,-268 353,-268 353,-249 398,-249 398,-268"/>
<text text-anchor="middle" x="375.5" y="-256" font-family="Helvetica,sans-Serif" font-size="10.00">vprint</text>
</a>
</g>
</g>
<!-- Node26&#45;&gt;Node27 -->
<g id="edge26_Node000026_Node000027" class="edge">
<title>Node26&#45;&gt;Node27</title>
<g id="a_edge26_Node000026_Node000027"><a xlink:title=" ">
<path fill="none" stroke="#63b8ff" d="M521.44,-258.5C485.71,-258.5 428.92,-258.5 398.1,-258.5"/>
<polygon fill="#63b8ff" stroke="#63b8ff" points="521.8,-262 531.8,-258.5 521.8,-255 521.8,-262"/>
</a>
</g>
</g>
<!-- Node37 -->
<g id="Node000037" class="node">
<title>Node37</title>
<g id="a_Node000037"><a xlink:href="structdetail_1_1duration__formatter.html#a6dc31e10bdf9402a78ad29aa70a93340" target="_top" xlink:title=" ">
<polygon fill="white" stroke="#666666" points="969,-67.5 826,-67.5 826,-37.5 969,-37.5 969,-67.5"/>
<text text-anchor="start" x="834" y="-55.5" font-family="Helvetica,sans-Serif" font-size="10.00">detail::duration_formatter</text>
<text text-anchor="middle" x="897.5" y="-44.5" font-family="Helvetica,sans-Serif" font-size="10.00">::format_tm</text>
</a>
</g>
</g>
<!-- Node36&#45;&gt;Node37 -->
<g id="edge36_Node000036_Node000037" class="edge">
<title>Node36&#45;&gt;Node37</title>
<g id="a_edge36_Node000036_Node000037"><a xlink:title=" ">
<path fill="none" stroke="#63b8ff" d="M1007.76,-52.5C995.25,-52.5 981.96,-52.5 969.12,-52.5"/>
<polygon fill="#63b8ff" stroke="#63b8ff" points="1008.06,-56 1018.06,-52.5 1008.06,-49 1008.06,-56"/>
</a>
</g>
</g>
</g>
</svg>
