<?xml version="1.0" encoding="UTF-8" standalone="no"?>
<!DOCTYPE svg PUBLIC "-//W3C//DTD SVG 1.1//EN"
 "http://www.w3.org/Graphics/SVG/1.1/DTD/svg11.dtd">
<!-- Generated by graphviz version 2.43.0 (0)
 -->
<!-- Title: detail::thousands_sep Pages: 1 -->
<svg width="439pt" height="27pt"
 viewBox="0.00 0.00 439.00 27.00" xmlns="http://www.w3.org/2000/svg" xmlns:xlink="http://www.w3.org/1999/xlink">
<g id="graph0" class="graph" transform="scale(1 1) rotate(0) translate(4 23)">
<title>detail::thousands_sep</title>
<!-- Node1 -->
<g id="Node000001" class="node">
<title>Node1</title>
<g id="a_Node000001"><a xlink:title=" ">
<polygon fill="#999999" stroke="#666666" points="123,-19 0,-19 0,0 123,0 123,-19"/>
<text text-anchor="middle" x="61.5" y="-7" font-family="Helvetica,sans-Serif" font-size="10.00">detail::thousands_sep</text>
</a>
</g>
</g>
<!-- Node2 -->
<g id="Node000002" class="node">
<title>Node2</title>
<g id="a_Node000002"><a xlink:href="namespacedetail.html#ac00194d36bc9f79956df8ef75ce8d6bf" target="_top" xlink:title=" ">
<polygon fill="white" stroke="#666666" points="309,-19 159,-19 159,0 309,0 309,-19"/>
<text text-anchor="middle" x="234" y="-7" font-family="Helvetica,sans-Serif" font-size="10.00">detail::thousands_sep_impl</text>
</a>
</g>
</g>
<!-- Node1&#45;&gt;Node2 -->
<g id="edge1_Node000001_Node000002" class="edge">
<title>Node1&#45;&gt;Node2</title>
<g id="a_edge1_Node000001_Node000002"><a xlink:title=" ">
<path fill="none" stroke="#63b8ff" d="M123.09,-9.5C131.42,-9.5 140.08,-9.5 148.74,-9.5"/>
<polygon fill="#63b8ff" stroke="#63b8ff" points="148.87,-13 158.87,-9.5 148.87,-6 148.87,-13"/>
</a>
</g>
</g>
<!-- Node3 -->
<g id="Node000003" class="node">
<title>Node3</title>
<g id="a_Node000003"><a xlink:href="classlocale__ref.html#a9e8901f320b201e831a07a87ddc04302" target="_top" xlink:title=" ">
<polygon fill="white" stroke="#666666" points="431,-19 345,-19 345,0 431,0 431,-19"/>
<text text-anchor="middle" x="388" y="-7" font-family="Helvetica,sans-Serif" font-size="10.00">locale_ref::get</text>
</a>
</g>
</g>
<!-- Node2&#45;&gt;Node3 -->
<g id="edge2_Node000002_Node000003" class="edge">
<title>Node2&#45;&gt;Node3</title>
<g id="a_edge2_Node000002_Node000003"><a xlink:title=" ">
<path fill="none" stroke="#63b8ff" d="M309.22,-9.5C317.8,-9.5 326.42,-9.5 334.62,-9.5"/>
<polygon fill="#63b8ff" stroke="#63b8ff" points="334.77,-13 344.77,-9.5 334.77,-6 334.77,-13"/>
</a>
</g>
</g>
</g>
</svg>
