<?xml version="1.0" encoding="UTF-8" standalone="no"?>
<!DOCTYPE svg PUBLIC "-//W3C//DTD SVG 1.1//EN"
 "http://www.w3.org/Graphics/SVG/1.1/DTD/svg11.dtd">
<!-- Generated by graphviz version 2.43.0 (0)
 -->
<!-- Title: cxxopts::toLocalString Pages: 1 -->
<svg width="897pt" height="248pt"
 viewBox="0.00 0.00 897.00 247.50" xmlns="http://www.w3.org/2000/svg" xmlns:xlink="http://www.w3.org/1999/xlink">
<g id="graph0" class="graph" transform="scale(1 1) rotate(0) translate(4 243.5)">
<title>cxxopts::toLocalString</title>
<!-- Node1 -->
<g id="Node000001" class="node">
<title>Node1</title>
<g id="a_Node000001"><a xlink:title=" ">
<polygon fill="#999999" stroke="#666666" points="889,-121 765,-121 765,-102 889,-102 889,-121"/>
<text text-anchor="middle" x="827" y="-109" font-family="Helvetica,sans-Serif" font-size="10.00">cxxopts::toLocalString</text>
</a>
</g>
</g>
<!-- Node2 -->
<g id="Node000002" class="node">
<title>Node2</title>
<g id="a_Node000002"><a xlink:href="classcxxopts_1_1Options.html#a353100b81684422664822103672a841a" target="_top" xlink:title=" ">
<polygon fill="white" stroke="#666666" points="727.5,-191.5 605.5,-191.5 605.5,-161.5 727.5,-161.5 727.5,-191.5"/>
<text text-anchor="start" x="613.5" y="-179.5" font-family="Helvetica,sans-Serif" font-size="10.00">cxxopts::Options::add</text>
<text text-anchor="middle" x="666.5" y="-168.5" font-family="Helvetica,sans-Serif" font-size="10.00">_option</text>
</a>
</g>
</g>
<!-- Node1&#45;&gt;Node2 -->
<g id="edge1_Node000001_Node000002" class="edge">
<title>Node1&#45;&gt;Node2</title>
<g id="a_edge1_Node000001_Node000002"><a xlink:title=" ">
<path fill="none" stroke="#63b8ff" d="M793.22,-124.94C767.3,-135.57 731.12,-150.41 704.22,-161.44"/>
<polygon fill="#63b8ff" stroke="#63b8ff" points="794.69,-128.12 802.61,-121.09 792.03,-121.65 794.69,-128.12"/>
</a>
</g>
</g>
<!-- Node8 -->
<g id="Node000008" class="node">
<title>Node8</title>
<g id="a_Node000008"><a xlink:href="classcxxopts_1_1Options.html#a05266b5355376180659943795facfcd5" target="_top" xlink:title=" ">
<polygon fill="white" stroke="#666666" points="202,-105 77,-105 77,-86 202,-86 202,-105"/>
<text text-anchor="middle" x="139.5" y="-93" font-family="Helvetica,sans-Serif" font-size="10.00">cxxopts::Options::help</text>
</a>
</g>
</g>
<!-- Node1&#45;&gt;Node8 -->
<g id="edge7_Node000001_Node000008" class="edge">
<title>Node1&#45;&gt;Node8</title>
<g id="a_edge7_Node000001_Node000008"><a xlink:title=" ">
<path fill="none" stroke="#63b8ff" d="M754.89,-114.08C644.19,-117.37 424.04,-121.04 238,-106.5 226.37,-105.59 213.98,-104.38 202.07,-103.1"/>
<polygon fill="#63b8ff" stroke="#63b8ff" points="755.04,-117.57 764.93,-113.77 754.83,-110.58 755.04,-117.57"/>
</a>
</g>
</g>
<!-- Node9 -->
<g id="Node000009" class="node">
<title>Node9</title>
<g id="a_Node000009"><a xlink:href="classcxxopts_1_1Options.html#a7a9611069d511f815c71a1f4aca302eb" target="_top" xlink:title=" ">
<polygon fill="white" stroke="#666666" points="729,-105.5 604,-105.5 604,-75.5 729,-75.5 729,-105.5"/>
<text text-anchor="start" x="612" y="-93.5" font-family="Helvetica,sans-Serif" font-size="10.00">cxxopts::Options::help</text>
<text text-anchor="middle" x="666.5" y="-82.5" font-family="Helvetica,sans-Serif" font-size="10.00">_one_group</text>
</a>
</g>
</g>
<!-- Node1&#45;&gt;Node9 -->
<g id="edge9_Node000001_Node000009" class="edge">
<title>Node1&#45;&gt;Node9</title>
<g id="a_edge9_Node000001_Node000009"><a xlink:title=" ">
<path fill="none" stroke="#63b8ff" d="M754.76,-102.06C746.21,-100.93 737.54,-99.78 729.14,-98.67"/>
<polygon fill="#63b8ff" stroke="#63b8ff" points="754.35,-105.54 764.72,-103.38 755.27,-98.6 754.35,-105.54"/>
</a>
</g>
</g>
<!-- Node12 -->
<g id="Node000012" class="node">
<title>Node12</title>
<g id="a_Node000012"><a xlink:href="classcxxopts_1_1Options.html#a88de344d8367f26511dfea2cf974ed36" target="_top" xlink:title=" ">
<polygon fill="white" stroke="#666666" points="382,-19 241,-19 241,0 382,0 382,-19"/>
<text text-anchor="middle" x="311.5" y="-7" font-family="Helvetica,sans-Serif" font-size="10.00">cxxopts::Options::Options</text>
</a>
</g>
</g>
<!-- Node1&#45;&gt;Node12 -->
<g id="edge14_Node000001_Node000012" class="edge">
<title>Node1&#45;&gt;Node12</title>
<g id="a_edge14_Node000001_Node000012"><a xlink:title=" ">
<path fill="none" stroke="#63b8ff" d="M800.48,-97.09C781.38,-86.95 754.3,-73.92 729,-66.5 610.29,-31.7 466.19,-17.99 382.36,-12.7"/>
<polygon fill="#63b8ff" stroke="#63b8ff" points="798.97,-100.25 809.43,-101.94 802.3,-94.1 798.97,-100.25"/>
</a>
</g>
</g>
<!-- Node3 -->
<g id="Node000003" class="node">
<title>Node3</title>
<g id="a_Node000003"><a xlink:href="classcxxopts_1_1Options.html#ac9aef634db43a56f369749f2710e1066" target="_top" xlink:title=" ">
<polygon fill="white" stroke="#666666" points="555.5,-239.5 433.5,-239.5 433.5,-209.5 555.5,-209.5 555.5,-239.5"/>
<text text-anchor="start" x="441.5" y="-227.5" font-family="Helvetica,sans-Serif" font-size="10.00">cxxopts::Options::add</text>
<text text-anchor="middle" x="494.5" y="-216.5" font-family="Helvetica,sans-Serif" font-size="10.00">_option</text>
</a>
</g>
</g>
<!-- Node2&#45;&gt;Node3 -->
<g id="edge2_Node000002_Node000003" class="edge">
<title>Node2&#45;&gt;Node3</title>
<g id="a_edge2_Node000002_Node000003"><a xlink:title=" ">
<path fill="none" stroke="#63b8ff" d="M602.5,-194.29C584.79,-199.29 565.71,-204.68 548.63,-209.5"/>
<polygon fill="#63b8ff" stroke="#63b8ff" points="603.5,-197.64 612.18,-191.56 601.6,-190.9 603.5,-197.64"/>
</a>
</g>
</g>
<!-- Node4 -->
<g id="Node000004" class="node">
<title>Node4</title>
<g id="a_Node000004"><a xlink:href="classcxxopts_1_1OptionAdder.html#a4feb747760c5fbaa807a4c8e1c335ac5" target="_top" xlink:title=" ">
<polygon fill="white" stroke="#666666" points="555,-191.5 434,-191.5 434,-161.5 555,-161.5 555,-191.5"/>
<text text-anchor="start" x="442" y="-179.5" font-family="Helvetica,sans-Serif" font-size="10.00">cxxopts::OptionAdder</text>
<text text-anchor="middle" x="494.5" y="-168.5" font-family="Helvetica,sans-Serif" font-size="10.00">::operator()</text>
</a>
</g>
</g>
<!-- Node2&#45;&gt;Node4 -->
<g id="edge3_Node000002_Node000004" class="edge">
<title>Node2&#45;&gt;Node4</title>
<g id="a_edge3_Node000002_Node000004"><a xlink:title=" ">
<path fill="none" stroke="#63b8ff" d="M595.06,-176.5C581.8,-176.5 568.04,-176.5 555.15,-176.5"/>
<polygon fill="#63b8ff" stroke="#63b8ff" points="595.09,-180 605.09,-176.5 595.09,-173 595.09,-180"/>
</a>
</g>
</g>
<!-- Node5 -->
<g id="Node000005" class="node">
<title>Node5</title>
<g id="a_Node000005"><a xlink:href="classcxxopts_1_1Options.html#a95878aa582f2ed8e0a2b73e735eb287d" target="_top" xlink:title=" ">
<polygon fill="white" stroke="#666666" points="372.5,-229.5 250.5,-229.5 250.5,-199.5 372.5,-199.5 372.5,-229.5"/>
<text text-anchor="start" x="258.5" y="-217.5" font-family="Helvetica,sans-Serif" font-size="10.00">cxxopts::Options::add</text>
<text text-anchor="middle" x="311.5" y="-206.5" font-family="Helvetica,sans-Serif" font-size="10.00">_options</text>
</a>
</g>
</g>
<!-- Node4&#45;&gt;Node5 -->
<g id="edge4_Node000004_Node000005" class="edge">
<title>Node4&#45;&gt;Node5</title>
<g id="a_edge4_Node000004_Node000005"><a xlink:title=" ">
<path fill="none" stroke="#63b8ff" d="M424.14,-191.06C407.17,-194.62 389.16,-198.4 372.67,-201.87"/>
<polygon fill="#63b8ff" stroke="#63b8ff" points="424.92,-194.48 433.98,-189 423.48,-187.62 424.92,-194.48"/>
</a>
</g>
</g>
<!-- Node7 -->
<g id="Node000007" class="node">
<title>Node7</title>
<g id="a_Node000007"><a xlink:href="receiver-normal_8cpp.html#a3c04138a5bfe5d72780bb7e82a18e627" target="_top" xlink:title=" ">
<polygon fill="white" stroke="#666666" points="41,-105 0,-105 0,-86 41,-86 41,-105"/>
<text text-anchor="middle" x="20.5" y="-93" font-family="Helvetica,sans-Serif" font-size="10.00">main</text>
</a>
</g>
</g>
<!-- Node4&#45;&gt;Node7 -->
<g id="edge6_Node000004_Node000007" class="edge">
<title>Node4&#45;&gt;Node7</title>
<g id="a_edge6_Node000004_Node000007"><a xlink:title=" ">
<path fill="none" stroke="#63b8ff" d="M423.83,-171.2C340.27,-163.68 196.51,-147.06 77,-114.5 64.91,-111.21 51.63,-106.69 41.09,-102.89"/>
<polygon fill="#63b8ff" stroke="#63b8ff" points="423.7,-174.7 433.96,-172.09 424.31,-167.72 423.7,-174.7"/>
</a>
</g>
</g>
<!-- Node6 -->
<g id="Node000006" class="node">
<title>Node6</title>
<g id="a_Node000006"><a xlink:href="classcxxopts_1_1Options.html#ac698adfe5b5ca50d36017a52b27fb828" target="_top" xlink:title=" ">
<polygon fill="white" stroke="#666666" points="200.5,-229.5 78.5,-229.5 78.5,-199.5 200.5,-199.5 200.5,-229.5"/>
<text text-anchor="start" x="86.5" y="-217.5" font-family="Helvetica,sans-Serif" font-size="10.00">cxxopts::Options::add</text>
<text text-anchor="middle" x="139.5" y="-206.5" font-family="Helvetica,sans-Serif" font-size="10.00">_option</text>
</a>
</g>
</g>
<!-- Node5&#45;&gt;Node6 -->
<g id="edge5_Node000005_Node000006" class="edge">
<title>Node5&#45;&gt;Node6</title>
<g id="a_edge5_Node000005_Node000006"><a xlink:title=" ">
<path fill="none" stroke="#63b8ff" d="M239.79,-214.5C226.81,-214.5 213.36,-214.5 200.72,-214.5"/>
<polygon fill="#63b8ff" stroke="#63b8ff" points="240.09,-218 250.09,-214.5 240.09,-211 240.09,-218"/>
</a>
</g>
</g>
<!-- Node8&#45;&gt;Node7 -->
<g id="edge8_Node000008_Node000007" class="edge">
<title>Node8&#45;&gt;Node7</title>
<g id="a_edge8_Node000008_Node000007"><a xlink:title=" ">
<path fill="none" stroke="#63b8ff" d="M66.65,-95.5C57.33,-95.5 48.48,-95.5 41.12,-95.5"/>
<polygon fill="#63b8ff" stroke="#63b8ff" points="66.92,-99 76.92,-95.5 66.92,-92 66.92,-99"/>
</a>
</g>
</g>
<!-- Node10 -->
<g id="Node000010" class="node">
<title>Node10</title>
<g id="a_Node000010"><a xlink:href="classcxxopts_1_1Options.html#ab09329dad31b464891556a4cd2659d04" target="_top" xlink:title=" ">
<polygon fill="white" stroke="#666666" points="568,-105.5 421,-105.5 421,-75.5 568,-75.5 568,-105.5"/>
<text text-anchor="start" x="429" y="-93.5" font-family="Helvetica,sans-Serif" font-size="10.00">cxxopts::Options::generate</text>
<text text-anchor="middle" x="494.5" y="-82.5" font-family="Helvetica,sans-Serif" font-size="10.00">_group_help</text>
</a>
</g>
</g>
<!-- Node9&#45;&gt;Node10 -->
<g id="edge10_Node000009_Node000010" class="edge">
<title>Node9&#45;&gt;Node10</title>
<g id="a_edge10_Node000009_Node000010"><a xlink:title=" ">
<path fill="none" stroke="#63b8ff" d="M593.55,-90.5C585.19,-90.5 576.66,-90.5 568.28,-90.5"/>
<polygon fill="#63b8ff" stroke="#63b8ff" points="593.65,-94 603.65,-90.5 593.65,-87 593.65,-94"/>
</a>
</g>
</g>
<!-- Node10&#45;&gt;Node8 -->
<g id="edge13_Node000010_Node000008" class="edge">
<title>Node10&#45;&gt;Node8</title>
<g id="a_edge13_Node000010_Node000008"><a xlink:title=" ">
<path fill="none" stroke="#63b8ff" d="M410.75,-91.67C346.92,-92.58 260.06,-93.81 202.22,-94.63"/>
<polygon fill="#63b8ff" stroke="#63b8ff" points="410.84,-95.17 420.79,-91.53 410.74,-88.17 410.84,-95.17"/>
</a>
</g>
</g>
<!-- Node11 -->
<g id="Node000011" class="node">
<title>Node11</title>
<g id="a_Node000011"><a xlink:href="classcxxopts_1_1Options.html#adc15c2e713a3c026c7a25e83612ec247" target="_top" xlink:title=" ">
<polygon fill="white" stroke="#666666" points="385,-67.5 238,-67.5 238,-37.5 385,-37.5 385,-67.5"/>
<text text-anchor="start" x="246" y="-55.5" font-family="Helvetica,sans-Serif" font-size="10.00">cxxopts::Options::generate</text>
<text text-anchor="middle" x="311.5" y="-44.5" font-family="Helvetica,sans-Serif" font-size="10.00">_all_groups_help</text>
</a>
</g>
</g>
<!-- Node10&#45;&gt;Node11 -->
<g id="edge11_Node000010_Node000011" class="edge">
<title>Node10&#45;&gt;Node11</title>
<g id="a_edge11_Node000010_Node000011"><a xlink:title=" ">
<path fill="none" stroke="#63b8ff" d="M411.96,-73.38C402.67,-71.43 393.25,-69.45 384.11,-67.53"/>
<polygon fill="#63b8ff" stroke="#63b8ff" points="411.46,-76.85 421.96,-75.48 412.9,-70 411.46,-76.85"/>
</a>
</g>
</g>
<!-- Node11&#45;&gt;Node8 -->
<g id="edge12_Node000011_Node000008" class="edge">
<title>Node11&#45;&gt;Node8</title>
<g id="a_edge12_Node000011_Node000008"><a xlink:title=" ">
<path fill="none" stroke="#63b8ff" d="M241.25,-70.02C219.68,-75.47 196.7,-81.28 178.15,-85.98"/>
<polygon fill="#63b8ff" stroke="#63b8ff" points="242.21,-73.38 251.04,-67.54 240.49,-66.6 242.21,-73.38"/>
</a>
</g>
</g>
<!-- Node12&#45;&gt;Node7 -->
<g id="edge15_Node000012_Node000007" class="edge">
<title>Node12&#45;&gt;Node7</title>
<g id="a_edge15_Node000012_Node000007"><a xlink:title=" ">
<path fill="none" stroke="#63b8ff" d="M263.41,-21.6C254.94,-23.84 246.2,-26.21 238,-28.5 166.1,-48.63 148.11,-53.74 77,-76.5 65.07,-80.32 51.79,-84.85 41.21,-88.54"/>
<polygon fill="#63b8ff" stroke="#63b8ff" points="264.4,-24.95 273.18,-19.03 262.62,-18.19 264.4,-24.95"/>
</a>
</g>
</g>
</g>
</svg>
