<?xml version="1.0" encoding="UTF-8" standalone="no"?>
<!DOCTYPE svg PUBLIC "-//W3C//DTD SVG 1.1//EN"
 "http://www.w3.org/Graphics/SVG/1.1/DTD/svg11.dtd">
<!-- Generated by graphviz version 2.43.0 (0)
 -->
<!-- Title: detail::to_utf8_3bytes Pages: 1 -->
<svg width="438pt" height="38pt"
 viewBox="0.00 0.00 438.00 38.00" xmlns="http://www.w3.org/2000/svg" xmlns:xlink="http://www.w3.org/1999/xlink">
<g id="graph0" class="graph" transform="scale(1 1) rotate(0) translate(4 34)">
<title>detail::to_utf8_3bytes</title>
<!-- Node1 -->
<g id="Node000001" class="node">
<title>Node1</title>
<g id="a_Node000001"><a xlink:title=" ">
<polygon fill="#999999" stroke="#666666" points="123,-24.5 0,-24.5 0,-5.5 123,-5.5 123,-24.5"/>
<text text-anchor="middle" x="61.5" y="-12.5" font-family="Helvetica,sans-Serif" font-size="10.00">detail::to_utf8_3bytes</text>
</a>
</g>
</g>
<!-- Node2 -->
<g id="Node000002" class="node">
<title>Node2</title>
<g id="a_Node000002"><a xlink:href="classdetail_1_1buffer.html#a49016d0c600f79917e00d9e3458c8c92" target="_top" xlink:title=" ">
<polygon fill="white" stroke="#666666" points="296,-24.5 159,-24.5 159,-5.5 296,-5.5 296,-24.5"/>
<text text-anchor="middle" x="227.5" y="-12.5" font-family="Helvetica,sans-Serif" font-size="10.00">detail::buffer::push_back</text>
</a>
</g>
</g>
<!-- Node1&#45;&gt;Node2 -->
<g id="edge1_Node000001_Node000002" class="edge">
<title>Node1&#45;&gt;Node2</title>
<g id="a_edge1_Node000001_Node000002"><a xlink:title=" ">
<path fill="none" stroke="#63b8ff" d="M123.1,-15C131.5,-15 140.21,-15 148.86,-15"/>
<polygon fill="#63b8ff" stroke="#63b8ff" points="148.97,-18.5 158.97,-15 148.97,-11.5 148.97,-18.5"/>
</a>
</g>
</g>
<!-- Node3 -->
<g id="Node000003" class="node">
<title>Node3</title>
<g id="a_Node000003"><a xlink:href="classdetail_1_1buffer.html#a91bcecc177b01b84d693028111fbd8eb" target="_top" xlink:title=" ">
<polygon fill="white" stroke="#666666" points="430,-30 332,-30 332,0 430,0 430,-30"/>
<text text-anchor="start" x="340" y="-18" font-family="Helvetica,sans-Serif" font-size="10.00">detail::buffer::try</text>
<text text-anchor="middle" x="381" y="-7" font-family="Helvetica,sans-Serif" font-size="10.00">_reserve</text>
</a>
</g>
</g>
<!-- Node2&#45;&gt;Node3 -->
<g id="edge2_Node000002_Node000003" class="edge">
<title>Node2&#45;&gt;Node3</title>
<g id="a_edge2_Node000002_Node000003"><a xlink:title=" ">
<path fill="none" stroke="#63b8ff" d="M296.27,-15C304.79,-15 313.44,-15 321.79,-15"/>
<polygon fill="#63b8ff" stroke="#63b8ff" points="321.79,-18.5 331.79,-15 321.79,-11.5 321.79,-18.5"/>
</a>
</g>
</g>
</g>
</svg>
