<?xml version="1.0" encoding="UTF-8" standalone="no"?>
<!DOCTYPE svg PUBLIC "-//W3C//DTD SVG 1.1//EN"
 "http://www.w3.org/Graphics/SVG/1.1/DTD/svg11.dtd">
<!-- Generated by graphviz version 2.43.0 (0)
 -->
<!-- Title: thirdparty/RadioLib/include/RadioLib/modules/nRF24/nRF24.h Pages: 1 -->
<svg width="406pt" height="335pt"
 viewBox="0.00 0.00 405.50 335.00" xmlns="http://www.w3.org/2000/svg" xmlns:xlink="http://www.w3.org/1999/xlink">
<g id="graph0" class="graph" transform="scale(1 1) rotate(0) translate(4 331)">
<title>thirdparty/RadioLib/include/RadioLib/modules/nRF24/nRF24.h</title>
<!-- Node1 -->
<g id="Node000001" class="node">
<title>Node1</title>
<g id="a_Node000001"><a xlink:title=" ">
<polygon fill="#999999" stroke="#666666" points="250,-327 105,-327 105,-286 250,-286 250,-327"/>
<text text-anchor="start" x="113" y="-315" font-family="Helvetica,sans-Serif" font-size="10.00">thirdparty/RadioLib</text>
<text text-anchor="start" x="113" y="-304" font-family="Helvetica,sans-Serif" font-size="10.00">/include/RadioLib/modules</text>
<text text-anchor="middle" x="177.5" y="-293" font-family="Helvetica,sans-Serif" font-size="10.00">/nRF24/nRF24.h</text>
</a>
</g>
</g>
<!-- Node2 -->
<g id="Node000002" class="node">
<title>Node2</title>
<g id="a_Node000002"><a xlink:href="Module_8h.html" target="_top" xlink:title=" ">
<polygon fill="white" stroke="#666666" points="268.5,-184 188.5,-184 188.5,-165 268.5,-165 268.5,-184"/>
<text text-anchor="middle" x="228.5" y="-172" font-family="Helvetica,sans-Serif" font-size="10.00">../../Module.h</text>
</a>
</g>
</g>
<!-- Node1&#45;&gt;Node2 -->
<g id="edge1_Node000001_Node000002" class="edge">
<title>Node1&#45;&gt;Node2</title>
<g id="a_edge1_Node000001_Node000002"><a xlink:title=" ">
<path fill="none" stroke="#63b8ff" d="M214.95,-285.76C228.06,-276.76 241.3,-264.77 248.5,-250 257.54,-231.46 248.46,-208.26 239.79,-192.72"/>
<polygon fill="#63b8ff" stroke="#63b8ff" points="242.78,-190.89 234.62,-184.14 236.79,-194.51 242.78,-190.89"/>
</a>
</g>
</g>
<!-- Node3 -->
<g id="Node000003" class="node">
<title>Node3</title>
<g id="a_Node000003"><a xlink:href="TypeDef_8h.html" target="_top" xlink:title=" ">
<polygon fill="white" stroke="#666666" points="174,-129 109,-129 109,-110 174,-110 174,-129"/>
<text text-anchor="middle" x="141.5" y="-117" font-family="Helvetica,sans-Serif" font-size="10.00">TypeDef.h</text>
</a>
</g>
</g>
<!-- Node1&#45;&gt;Node3 -->
<g id="edge16_Node000001_Node000003" class="edge">
<title>Node1&#45;&gt;Node3</title>
<g id="a_edge16_Node000001_Node000003"><a xlink:title=" ">
<path fill="none" stroke="#63b8ff" d="M140.05,-285.76C126.94,-276.76 113.7,-264.77 106.5,-250 88.04,-212.13 113.14,-163.12 129.46,-137.62"/>
<polygon fill="#63b8ff" stroke="#63b8ff" points="132.53,-139.33 135.18,-129.07 126.71,-135.44 132.53,-139.33"/>
</a>
</g>
</g>
<!-- Node12 -->
<g id="Node000012" class="node">
<title>Node12</title>
<g id="a_Node000012"><a xlink:href="PhysicalLayer_8h.html" target="_top" xlink:title=" ">
<polygon fill="white" stroke="#666666" points="239,-250 116,-250 116,-220 239,-220 239,-250"/>
<text text-anchor="start" x="124" y="-238" font-family="Helvetica,sans-Serif" font-size="10.00">../../protocols/Physical</text>
<text text-anchor="middle" x="177.5" y="-227" font-family="Helvetica,sans-Serif" font-size="10.00">Layer/PhysicalLayer.h</text>
</a>
</g>
</g>
<!-- Node1&#45;&gt;Node12 -->
<g id="edge17_Node000001_Node000012" class="edge">
<title>Node1&#45;&gt;Node12</title>
<g id="a_edge17_Node000001_Node000012"><a xlink:title=" ">
<path fill="none" stroke="#63b8ff" d="M177.5,-285.77C177.5,-277.85 177.5,-268.63 177.5,-260.3"/>
<polygon fill="#63b8ff" stroke="#63b8ff" points="181,-260.04 177.5,-250.04 174,-260.04 181,-260.04"/>
</a>
</g>
</g>
<!-- Node2&#45;&gt;Node3 -->
<g id="edge2_Node000002_Node000003" class="edge">
<title>Node2&#45;&gt;Node3</title>
<g id="a_edge2_Node000002_Node000003"><a xlink:title=" ">
<path fill="none" stroke="#63b8ff" d="M214.52,-164.98C201.03,-156.77 180.37,-144.18 164.46,-134.49"/>
<polygon fill="#63b8ff" stroke="#63b8ff" points="166.09,-131.38 155.73,-129.17 162.45,-137.36 166.09,-131.38"/>
</a>
</g>
</g>
<!-- Node8 -->
<g id="Node000008" class="node">
<title>Node8</title>
<g id="a_Node000008"><a xlink:href="Hal_8h.html" target="_top" xlink:title=" ">
<polygon fill="white" stroke="#666666" points="329.5,-129 287.5,-129 287.5,-110 329.5,-110 329.5,-129"/>
<text text-anchor="middle" x="308.5" y="-117" font-family="Helvetica,sans-Serif" font-size="10.00">Hal.h</text>
</a>
</g>
</g>
<!-- Node2&#45;&gt;Node8 -->
<g id="edge8_Node000002_Node000008" class="edge">
<title>Node2&#45;&gt;Node8</title>
<g id="a_edge8_Node000002_Node000008"><a xlink:title=" ">
<path fill="none" stroke="#63b8ff" d="M241.35,-164.98C253.64,-156.84 272.41,-144.41 286.98,-134.76"/>
<polygon fill="#63b8ff" stroke="#63b8ff" points="289.01,-137.61 295.41,-129.17 285.14,-131.78 289.01,-137.61"/>
</a>
</g>
</g>
<!-- Node10 -->
<g id="Node000010" class="node">
<title>Node10</title>
<g id="a_Node000010"><a xlink:href="Utils_8h.html" target="_top" xlink:title=" ">
<polygon fill="white" stroke="#666666" points="264.5,-129 192.5,-129 192.5,-110 264.5,-110 264.5,-129"/>
<text text-anchor="middle" x="228.5" y="-117" font-family="Helvetica,sans-Serif" font-size="10.00">utils/Utils.h</text>
</a>
</g>
</g>
<!-- Node2&#45;&gt;Node10 -->
<g id="edge12_Node000002_Node000010" class="edge">
<title>Node2&#45;&gt;Node10</title>
<g id="a_edge12_Node000002_Node000010"><a xlink:title=" ">
<path fill="none" stroke="#63b8ff" d="M228.5,-164.75C228.5,-157.8 228.5,-147.85 228.5,-139.13"/>
<polygon fill="#63b8ff" stroke="#63b8ff" points="232,-139.09 228.5,-129.09 225,-139.09 232,-139.09"/>
</a>
</g>
</g>
<!-- Node4 -->
<g id="Node000004" class="node">
<title>Node4</title>
<g id="a_Node000004"><a xlink:href="BuildOptUser_8h.html" target="_top" xlink:title=" ">
<polygon fill="white" stroke="#666666" points="89,-74 0,-74 0,-55 89,-55 89,-74"/>
<text text-anchor="middle" x="44.5" y="-62" font-family="Helvetica,sans-Serif" font-size="10.00">BuildOptUser.h</text>
</a>
</g>
</g>
<!-- Node3&#45;&gt;Node4 -->
<g id="edge3_Node000003_Node000004" class="edge">
<title>Node3&#45;&gt;Node4</title>
<g id="a_edge3_Node000003_Node000004"><a xlink:title=" ">
<path fill="none" stroke="#63b8ff" d="M125.92,-109.98C110.73,-101.69 87.4,-88.94 69.6,-79.22"/>
<polygon fill="#63b8ff" stroke="#63b8ff" points="70.82,-75.89 60.37,-74.17 67.47,-82.04 70.82,-75.89"/>
</a>
</g>
</g>
<!-- Node5 -->
<g id="Node000005" class="node">
<title>Node5</title>
<g id="a_Node000005"><a xlink:href="BuildOpt_8h.html" target="_top" xlink:title=" ">
<polygon fill="white" stroke="#666666" points="175.5,-74 107.5,-74 107.5,-55 175.5,-55 175.5,-74"/>
<text text-anchor="middle" x="141.5" y="-62" font-family="Helvetica,sans-Serif" font-size="10.00">BuildOpt.h</text>
</a>
</g>
</g>
<!-- Node3&#45;&gt;Node5 -->
<g id="edge4_Node000003_Node000005" class="edge">
<title>Node3&#45;&gt;Node5</title>
<g id="a_edge4_Node000003_Node000005"><a xlink:title=" ">
<path fill="none" stroke="#63b8ff" d="M136.33,-109.75C134.84,-102.8 134.4,-92.85 135.02,-84.13"/>
<polygon fill="#63b8ff" stroke="#63b8ff" points="138.51,-84.47 136.37,-74.09 131.57,-83.53 138.51,-84.47"/>
</a>
</g>
</g>
<!-- Node5&#45;&gt;Node3 -->
<g id="edge5_Node000005_Node000003" class="edge">
<title>Node5&#45;&gt;Node3</title>
<g id="a_edge5_Node000005_Node000003"><a xlink:title=" ">
<path fill="none" stroke="#63b8ff" d="M146.63,-74.09C148.14,-80.99 148.59,-90.93 147.99,-99.66"/>
<polygon fill="#63b8ff" stroke="#63b8ff" points="144.5,-99.38 146.67,-109.75 151.44,-100.29 144.5,-99.38"/>
</a>
</g>
</g>
<!-- Node6 -->
<g id="Node000006" class="node">
<title>Node6</title>
<g id="a_Node000006"><a xlink:title=" ">
<polygon fill="#e0e0e0" stroke="#999999" points="162.5,-19 112.5,-19 112.5,0 162.5,0 162.5,-19"/>
<text text-anchor="middle" x="137.5" y="-7" font-family="Helvetica,sans-Serif" font-size="10.00">stdio.h</text>
</a>
</g>
</g>
<!-- Node5&#45;&gt;Node6 -->
<g id="edge6_Node000005_Node000006" class="edge">
<title>Node5&#45;&gt;Node6</title>
<g id="a_edge6_Node000005_Node000006"><a xlink:title=" ">
<path fill="none" stroke="#63b8ff" d="M140.84,-54.75C140.32,-47.8 139.56,-37.85 138.91,-29.13"/>
<polygon fill="#63b8ff" stroke="#63b8ff" points="142.39,-28.8 138.15,-19.09 135.41,-29.32 142.39,-28.8"/>
</a>
</g>
</g>
<!-- Node7 -->
<g id="Node000007" class="node">
<title>Node7</title>
<g id="a_Node000007"><a xlink:title=" ">
<polygon fill="#e0e0e0" stroke="#999999" points="234,-19 181,-19 181,0 234,0 234,-19"/>
<text text-anchor="middle" x="207.5" y="-7" font-family="Helvetica,sans-Serif" font-size="10.00">stdint.h</text>
</a>
</g>
</g>
<!-- Node5&#45;&gt;Node7 -->
<g id="edge7_Node000005_Node000007" class="edge">
<title>Node5&#45;&gt;Node7</title>
<g id="a_edge7_Node000005_Node000007"><a xlink:title=" ">
<path fill="none" stroke="#63b8ff" d="M152.1,-54.98C161.96,-47.07 176.85,-35.11 188.72,-25.58"/>
<polygon fill="#63b8ff" stroke="#63b8ff" points="191.1,-28.16 196.7,-19.17 186.71,-22.7 191.1,-28.16"/>
</a>
</g>
</g>
<!-- Node8&#45;&gt;Node5 -->
<g id="edge11_Node000008_Node000005" class="edge">
<title>Node8&#45;&gt;Node5</title>
<g id="a_edge11_Node000008_Node000005"><a xlink:title=" ">
<path fill="none" stroke="#63b8ff" d="M287.35,-111.79C259.99,-103.1 211.87,-87.83 178.42,-77.22"/>
<polygon fill="#63b8ff" stroke="#63b8ff" points="179.14,-73.77 168.55,-74.09 177.02,-80.45 179.14,-73.77"/>
</a>
</g>
</g>
<!-- Node8&#45;&gt;Node7 -->
<g id="edge9_Node000008_Node000007" class="edge">
<title>Node8&#45;&gt;Node7</title>
<g id="a_edge9_Node000008_Node000007"><a xlink:title=" ">
<path fill="none" stroke="#63b8ff" d="M308.81,-109.73C308.84,-96.5 307.06,-71.26 294.5,-55 281.9,-38.68 261.67,-27.83 243.88,-20.93"/>
<polygon fill="#63b8ff" stroke="#63b8ff" points="244.91,-17.58 234.31,-17.5 242.54,-24.17 244.91,-17.58"/>
</a>
</g>
</g>
<!-- Node9 -->
<g id="Node000009" class="node">
<title>Node9</title>
<g id="a_Node000009"><a xlink:title=" ">
<polygon fill="#e0e0e0" stroke="#999999" points="397.5,-74 341.5,-74 341.5,-55 397.5,-55 397.5,-74"/>
<text text-anchor="middle" x="369.5" y="-62" font-family="Helvetica,sans-Serif" font-size="10.00">stddef.h</text>
</a>
</g>
</g>
<!-- Node8&#45;&gt;Node9 -->
<g id="edge10_Node000008_Node000009" class="edge">
<title>Node8&#45;&gt;Node9</title>
<g id="a_edge10_Node000008_Node000009"><a xlink:title=" ">
<path fill="none" stroke="#63b8ff" d="M318.3,-109.98C327.32,-102.15 340.91,-90.34 351.82,-80.86"/>
<polygon fill="#63b8ff" stroke="#63b8ff" points="354.27,-83.37 359.52,-74.17 349.68,-78.09 354.27,-83.37"/>
</a>
</g>
</g>
<!-- Node10&#45;&gt;Node5 -->
<g id="edge15_Node000010_Node000005" class="edge">
<title>Node10&#45;&gt;Node5</title>
<g id="a_edge15_Node000010_Node000005"><a xlink:title=" ">
<path fill="none" stroke="#63b8ff" d="M214.52,-109.98C201.03,-101.77 180.37,-89.18 164.46,-79.49"/>
<polygon fill="#63b8ff" stroke="#63b8ff" points="166.09,-76.38 155.73,-74.17 162.45,-82.36 166.09,-76.38"/>
</a>
</g>
</g>
<!-- Node10&#45;&gt;Node7 -->
<g id="edge13_Node000010_Node000007" class="edge">
<title>Node10&#45;&gt;Node7</title>
<g id="a_edge13_Node000010_Node000007"><a xlink:title=" ">
<path fill="none" stroke="#63b8ff" d="M226.78,-109.66C223.38,-92.17 215.73,-52.8 211.15,-29.27"/>
<polygon fill="#63b8ff" stroke="#63b8ff" points="214.53,-28.31 209.18,-19.16 207.66,-29.64 214.53,-28.31"/>
</a>
</g>
</g>
<!-- Node11 -->
<g id="Node000011" class="node">
<title>Node11</title>
<g id="a_Node000011"><a xlink:title=" ">
<polygon fill="#e0e0e0" stroke="#999999" points="285,-74 232,-74 232,-55 285,-55 285,-74"/>
<text text-anchor="middle" x="258.5" y="-62" font-family="Helvetica,sans-Serif" font-size="10.00">stdlib.h</text>
</a>
</g>
</g>
<!-- Node10&#45;&gt;Node11 -->
<g id="edge14_Node000010_Node000011" class="edge">
<title>Node10&#45;&gt;Node11</title>
<g id="a_edge14_Node000010_Node000011"><a xlink:title=" ">
<path fill="none" stroke="#63b8ff" d="M233.45,-109.75C237.56,-102.49 243.53,-91.95 248.6,-82.98"/>
<polygon fill="#63b8ff" stroke="#63b8ff" points="251.76,-84.52 253.64,-74.09 245.67,-81.07 251.76,-84.52"/>
</a>
</g>
</g>
<!-- Node12&#45;&gt;Node2 -->
<g id="edge19_Node000012_Node000002" class="edge">
<title>Node12&#45;&gt;Node2</title>
<g id="a_edge19_Node000012_Node000002"><a xlink:title=" ">
<path fill="none" stroke="#63b8ff" d="M189.85,-219.84C197.17,-211.43 206.5,-200.74 214.15,-191.96"/>
<polygon fill="#63b8ff" stroke="#63b8ff" points="216.92,-194.1 220.86,-184.27 211.65,-189.5 216.92,-194.1"/>
</a>
</g>
</g>
<!-- Node12&#45;&gt;Node3 -->
<g id="edge18_Node000012_Node000003" class="edge">
<title>Node12&#45;&gt;Node3</title>
<g id="a_edge18_Node000012_Node000003"><a xlink:title=" ">
<path fill="none" stroke="#63b8ff" d="M172.94,-219.63C166.44,-199.12 154.49,-161.47 147.35,-138.93"/>
<polygon fill="#63b8ff" stroke="#63b8ff" points="150.63,-137.7 144.27,-129.23 143.96,-139.82 150.63,-137.7"/>
</a>
</g>
</g>
</g>
</svg>
