<?xml version="1.0" encoding="UTF-8" standalone="no"?>
<!DOCTYPE svg PUBLIC "-//W3C//DTD SVG 1.1//EN"
 "http://www.w3.org/Graphics/SVG/1.1/DTD/svg11.dtd">
<!-- Generated by graphviz version 2.43.0 (0)
 -->
<!-- Title: print Pages: 1 -->
<svg width="706pt" height="485pt"
 viewBox="0.00 0.00 706.00 485.00" xmlns="http://www.w3.org/2000/svg" xmlns:xlink="http://www.w3.org/1999/xlink">
<g id="graph0" class="graph" transform="scale(1 1) rotate(0) translate(4 481)">
<title>print</title>
<!-- Node1 -->
<g id="Node000001" class="node">
<title>Node1</title>
<g id="a_Node000001"><a xlink:title=" ">
<polygon fill="#999999" stroke="#666666" points="39,-227 0,-227 0,-208 39,-208 39,-227"/>
<text text-anchor="middle" x="19.5" y="-215" font-family="Helvetica,sans-Serif" font-size="10.00">print</text>
</a>
</g>
</g>
<!-- Node2 -->
<g id="Node000002" class="node">
<title>Node2</title>
<g id="a_Node000002"><a xlink:href="classbasic__memory__buffer.html#a7a9300acfadb00a835b36a86a198f433" target="_top" xlink:title=" ">
<polygon fill="white" stroke="#666666" points="203,-397.5 75,-397.5 75,-367.5 203,-367.5 203,-397.5"/>
<text text-anchor="start" x="83" y="-385.5" font-family="Helvetica,sans-Serif" font-size="10.00">basic_memory_buffer</text>
<text text-anchor="middle" x="139" y="-374.5" font-family="Helvetica,sans-Serif" font-size="10.00">::basic_memory_buffer</text>
</a>
</g>
</g>
<!-- Node1&#45;&gt;Node2 -->
<g id="edge1_Node000001_Node000002" class="edge">
<title>Node1&#45;&gt;Node2</title>
<g id="a_edge1_Node000001_Node000002"><a xlink:title=" ">
<path fill="none" stroke="#63b8ff" d="M27.5,-227.33C45.72,-252.91 95.01,-322.13 121.17,-358.86"/>
<polygon fill="#63b8ff" stroke="#63b8ff" points="118.64,-361.34 127.29,-367.46 124.34,-357.28 118.64,-361.34"/>
</a>
</g>
</g>
<!-- Node9 -->
<g id="Node000009" class="node">
<title>Node9</title>
<g id="a_Node000009"><a xlink:href="namespacedetail.html#a374a461d344b73468831b40acf5e4635" target="_top" xlink:title=" ">
<polygon fill="white" stroke="#666666" points="191,-227 87,-227 87,-208 191,-208 191,-227"/>
<text text-anchor="middle" x="139" y="-215" font-family="Helvetica,sans-Serif" font-size="10.00">detail::vformat_to</text>
</a>
</g>
</g>
<!-- Node1&#45;&gt;Node9 -->
<g id="edge8_Node000001_Node000009" class="edge">
<title>Node1&#45;&gt;Node9</title>
<g id="a_edge8_Node000001_Node000009"><a xlink:title=" ">
<path fill="none" stroke="#63b8ff" d="M39.12,-217.5C49.38,-217.5 62.77,-217.5 76.37,-217.5"/>
<polygon fill="#63b8ff" stroke="#63b8ff" points="76.76,-221 86.76,-217.5 76.76,-214 76.76,-221"/>
</a>
</g>
</g>
<!-- Node20 -->
<g id="Node000020" class="node">
<title>Node20</title>
<g id="a_Node000020"><a xlink:href="namespacedetail.html#ab774ebdb3565689cdc79ab10b0cb16ef" target="_top" xlink:title=" ">
<polygon fill="white" stroke="#666666" points="193.5,-56 84.5,-56 84.5,-37 193.5,-37 193.5,-56"/>
<text text-anchor="middle" x="139" y="-44" font-family="Helvetica,sans-Serif" font-size="10.00">detail::write_buffer</text>
</a>
</g>
</g>
<!-- Node1&#45;&gt;Node20 -->
<g id="edge20_Node000001_Node000020" class="edge">
<title>Node1&#45;&gt;Node20</title>
<g id="a_edge20_Node000001_Node000020"><a xlink:title=" ">
<path fill="none" stroke="#63b8ff" d="M27.15,-207.82C46.14,-180.19 100.79,-100.66 125.54,-64.63"/>
<polygon fill="#63b8ff" stroke="#63b8ff" points="128.64,-66.3 131.42,-56.08 122.87,-62.34 128.64,-66.3"/>
</a>
</g>
</g>
<!-- Node3 -->
<g id="Node000003" class="node">
<title>Node3</title>
<g id="a_Node000003"><a xlink:href="classbasic__memory__buffer.html#a97d9a0a0f9827c9277e2eea97fa0309b" target="_top" xlink:title=" ">
<polygon fill="white" stroke="#666666" points="365.5,-445.5 243.5,-445.5 243.5,-415.5 365.5,-415.5 365.5,-445.5"/>
<text text-anchor="start" x="251.5" y="-433.5" font-family="Helvetica,sans-Serif" font-size="10.00">basic_memory_buffer</text>
<text text-anchor="middle" x="304.5" y="-422.5" font-family="Helvetica,sans-Serif" font-size="10.00">::grow</text>
</a>
</g>
</g>
<!-- Node2&#45;&gt;Node3 -->
<g id="edge2_Node000002_Node000003" class="edge">
<title>Node2&#45;&gt;Node3</title>
<g id="a_edge2_Node000002_Node000003"><a xlink:title=" ">
<path fill="none" stroke="#63b8ff" d="M191.28,-397.56C207.57,-402.34 225.73,-407.67 242.62,-412.63"/>
<polygon fill="#63b8ff" stroke="#63b8ff" points="241.82,-416.04 252.4,-415.5 243.79,-409.32 241.82,-416.04"/>
</a>
</g>
</g>
<!-- Node8 -->
<g id="Node000008" class="node">
<title>Node8</title>
<g id="a_Node000008"><a xlink:href="namespacedetail.html#a75ed2634319883d038944529dbb954e2" target="_top" xlink:title=" ">
<polygon fill="white" stroke="#666666" points="357.5,-397.5 251.5,-397.5 251.5,-367.5 357.5,-367.5 357.5,-397.5"/>
<text text-anchor="start" x="259.5" y="-385.5" font-family="Helvetica,sans-Serif" font-size="10.00">detail::is_constant</text>
<text text-anchor="middle" x="304.5" y="-374.5" font-family="Helvetica,sans-Serif" font-size="10.00">_evaluated</text>
</a>
</g>
</g>
<!-- Node2&#45;&gt;Node8 -->
<g id="edge7_Node000002_Node000008" class="edge">
<title>Node2&#45;&gt;Node8</title>
<g id="a_edge7_Node000002_Node000008"><a xlink:title=" ">
<path fill="none" stroke="#63b8ff" d="M203.21,-382.5C215.64,-382.5 228.67,-382.5 241.07,-382.5"/>
<polygon fill="#63b8ff" stroke="#63b8ff" points="241.31,-386 251.31,-382.5 241.31,-379 241.31,-386"/>
</a>
</g>
</g>
<!-- Node4 -->
<g id="Node000004" class="node">
<title>Node4</title>
<g id="a_Node000004"><a xlink:href="namespacedetail.html#a9d0b4b56d52390d7c8a4be7baa5e2382" target="_top" xlink:title=" ">
<polygon fill="white" stroke="#666666" points="537,-477 409,-477 409,-458 537,-458 537,-477"/>
<text text-anchor="middle" x="473" y="-465" font-family="Helvetica,sans-Serif" font-size="10.00">detail::abort_fuzzing_if</text>
</a>
</g>
</g>
<!-- Node3&#45;&gt;Node4 -->
<g id="edge3_Node000003_Node000004" class="edge">
<title>Node3&#45;&gt;Node4</title>
<g id="a_edge3_Node000003_Node000004"><a xlink:title=" ">
<path fill="none" stroke="#63b8ff" d="M365.61,-443.86C383.21,-447.77 402.3,-452.01 419.4,-455.81"/>
<polygon fill="#63b8ff" stroke="#63b8ff" points="418.68,-459.24 429.2,-457.99 420.2,-452.4 418.68,-459.24"/>
</a>
</g>
</g>
<!-- Node6 -->
<g id="Node000006" class="node">
<title>Node6</title>
<g id="a_Node000006"><a xlink:href="namespacedetail.html#a208b54c1c61a9bce9df4531a657a0c64" target="_top" xlink:title=" ">
<polygon fill="white" stroke="#666666" points="517.5,-440 428.5,-440 428.5,-421 517.5,-421 517.5,-440"/>
<text text-anchor="middle" x="473" y="-428" font-family="Helvetica,sans-Serif" font-size="10.00">detail::assume</text>
</a>
</g>
</g>
<!-- Node3&#45;&gt;Node6 -->
<g id="edge5_Node000003_Node000006" class="edge">
<title>Node3&#45;&gt;Node6</title>
<g id="a_edge5_Node000003_Node000006"><a xlink:title=" ">
<path fill="none" stroke="#63b8ff" d="M365.61,-430.5C382.81,-430.5 401.45,-430.5 418.24,-430.5"/>
<polygon fill="#63b8ff" stroke="#63b8ff" points="418.43,-434 428.43,-430.5 418.43,-427 418.43,-434"/>
</a>
</g>
</g>
<!-- Node7 -->
<g id="Node000007" class="node">
<title>Node7</title>
<g id="a_Node000007"><a xlink:href="base_8h.html#a67ebc2a5b1748c4692931267cd6f89bf" target="_top" xlink:title=" ">
<polygon fill="white" stroke="#666666" points="499.5,-403 446.5,-403 446.5,-384 499.5,-384 499.5,-403"/>
<text text-anchor="middle" x="473" y="-391" font-family="Helvetica,sans-Serif" font-size="10.00">max_of</text>
</a>
</g>
</g>
<!-- Node3&#45;&gt;Node7 -->
<g id="edge6_Node000003_Node000007" class="edge">
<title>Node3&#45;&gt;Node7</title>
<g id="a_edge6_Node000003_Node000007"><a xlink:title=" ">
<path fill="none" stroke="#63b8ff" d="M365.61,-417.14C389.36,-411.87 415.83,-405.98 436.43,-401.4"/>
<polygon fill="#63b8ff" stroke="#63b8ff" points="437.32,-404.79 446.33,-399.21 435.81,-397.96 437.32,-404.79"/>
</a>
</g>
</g>
<!-- Node5 -->
<g id="Node000005" class="node">
<title>Node5</title>
<g id="a_Node000005"><a xlink:href="namespacedetail.html#a1fe84ebaf96215ce0665d95b3124c2df" target="_top" xlink:title=" ">
<polygon fill="white" stroke="#666666" points="698,-477 576,-477 576,-458 698,-458 698,-477"/>
<text text-anchor="middle" x="637" y="-465" font-family="Helvetica,sans-Serif" font-size="10.00">detail::ignore_unused</text>
</a>
</g>
</g>
<!-- Node4&#45;&gt;Node5 -->
<g id="edge4_Node000004_Node000005" class="edge">
<title>Node4&#45;&gt;Node5</title>
<g id="a_edge4_Node000004_Node000005"><a xlink:title=" ">
<path fill="none" stroke="#63b8ff" d="M537.1,-467.5C546.49,-467.5 556.23,-467.5 565.76,-467.5"/>
<polygon fill="#63b8ff" stroke="#63b8ff" points="565.99,-471 575.99,-467.5 565.99,-464 565.99,-471"/>
</a>
</g>
</g>
<!-- Node10 -->
<g id="Node000010" class="node">
<title>Node10</title>
<g id="a_Node000010"><a xlink:href="classbasic__appender.html#a3f0cd72d9279e98079287ae5c6cc53c0" target="_top" xlink:title=" ">
<polygon fill="white" stroke="#666666" points="367,-349.5 242,-349.5 242,-319.5 367,-319.5 367,-349.5"/>
<text text-anchor="start" x="250" y="-337.5" font-family="Helvetica,sans-Serif" font-size="10.00">basic_appender::basic</text>
<text text-anchor="middle" x="304.5" y="-326.5" font-family="Helvetica,sans-Serif" font-size="10.00">_appender</text>
</a>
</g>
</g>
<!-- Node9&#45;&gt;Node10 -->
<g id="edge9_Node000009_Node000010" class="edge">
<title>Node9&#45;&gt;Node10</title>
<g id="a_edge9_Node000009_Node000010"><a xlink:title=" ">
<path fill="none" stroke="#63b8ff" d="M148.01,-227.27C163.69,-245.83 200.32,-286.51 239,-310.5 241.61,-312.12 244.34,-313.65 247.15,-315.1"/>
<polygon fill="#63b8ff" stroke="#63b8ff" points="245.77,-318.32 256.3,-319.46 248.77,-312 245.77,-318.32"/>
</a>
</g>
</g>
<!-- Node11 -->
<g id="Node000011" class="node">
<title>Node11</title>
<g id="a_Node000011"><a xlink:href="classbasic__string__view.html#a39cdfe061dc6d64a3adc230b62d8a026" target="_top" xlink:title=" ">
<polygon fill="white" stroke="#666666" points="370,-301 239,-301 239,-282 370,-282 370,-301"/>
<text text-anchor="middle" x="304.5" y="-289" font-family="Helvetica,sans-Serif" font-size="10.00">basic_string_view::data</text>
</a>
</g>
</g>
<!-- Node9&#45;&gt;Node11 -->
<g id="edge10_Node000009_Node000011" class="edge">
<title>Node9&#45;&gt;Node11</title>
<g id="a_edge10_Node000009_Node000011"><a xlink:title=" ">
<path fill="none" stroke="#63b8ff" d="M154.2,-227C172.94,-239.19 207.27,-260.33 239,-273.5 243.71,-275.46 248.7,-277.27 253.74,-278.93"/>
<polygon fill="#63b8ff" stroke="#63b8ff" points="252.83,-282.32 263.42,-281.94 254.91,-275.63 252.83,-282.32"/>
</a>
</g>
</g>
<!-- Node12 -->
<g id="Node000012" class="node">
<title>Node12</title>
<g id="a_Node000012"><a xlink:href="namespacedetail.html#a60a15c04518d5955ecfae225402491bb" target="_top" xlink:title=" ">
<polygon fill="white" stroke="#666666" points="346,-264 263,-264 263,-245 346,-245 346,-264"/>
<text text-anchor="middle" x="304.5" y="-252" font-family="Helvetica,sans-Serif" font-size="10.00">detail::equal2</text>
</a>
</g>
</g>
<!-- Node9&#45;&gt;Node12 -->
<g id="edge11_Node000009_Node000012" class="edge">
<title>Node9&#45;&gt;Node12</title>
<g id="a_edge11_Node000009_Node000012"><a xlink:title=" ">
<path fill="none" stroke="#63b8ff" d="M182.11,-227.03C203.78,-231.93 230.37,-237.95 253.12,-243.1"/>
<polygon fill="#63b8ff" stroke="#63b8ff" points="252.42,-246.53 262.95,-245.32 253.97,-239.7 252.42,-246.53"/>
</a>
</g>
</g>
<!-- Node13 -->
<g id="Node000013" class="node">
<title>Node13</title>
<g id="a_Node000013"><a xlink:href="classbasic__format__args.html#a3339d3a4e4daaf7bb0de1a8084e7f086" target="_top" xlink:title="Returns the argument with the specified id.">
<polygon fill="white" stroke="#666666" points="368.5,-227 240.5,-227 240.5,-208 368.5,-208 368.5,-227"/>
<text text-anchor="middle" x="304.5" y="-215" font-family="Helvetica,sans-Serif" font-size="10.00">basic_format_args::get</text>
</a>
</g>
</g>
<!-- Node9&#45;&gt;Node13 -->
<g id="edge12_Node000009_Node000013" class="edge">
<title>Node9&#45;&gt;Node13</title>
<g id="a_edge12_Node000009_Node000013"><a xlink:title=" ">
<path fill="none" stroke="#63b8ff" d="M191.28,-217.5C203.55,-217.5 216.89,-217.5 229.94,-217.5"/>
<polygon fill="#63b8ff" stroke="#63b8ff" points="230.32,-221 240.32,-217.5 230.32,-214 230.32,-221"/>
</a>
</g>
</g>
<!-- Node17 -->
<g id="Node000017" class="node">
<title>Node17</title>
<g id="a_Node000017"><a xlink:href="classparse__context.html#a9da9230b8f03bb6579efdcaae4b18003" target="_top" xlink:title=" ">
<polygon fill="white" stroke="#666666" points="364,-189.5 245,-189.5 245,-159.5 364,-159.5 364,-189.5"/>
<text text-anchor="start" x="253" y="-177.5" font-family="Helvetica,sans-Serif" font-size="10.00">parse_context::parse</text>
<text text-anchor="middle" x="304.5" y="-166.5" font-family="Helvetica,sans-Serif" font-size="10.00">_context</text>
</a>
</g>
</g>
<!-- Node9&#45;&gt;Node17 -->
<g id="edge17_Node000009_Node000017" class="edge">
<title>Node9&#45;&gt;Node17</title>
<g id="a_edge17_Node000009_Node000017"><a xlink:title=" ">
<path fill="none" stroke="#63b8ff" d="M176.29,-207.96C194.07,-203.28 216.07,-197.49 236.74,-192.06"/>
<polygon fill="#63b8ff" stroke="#63b8ff" points="237.66,-195.43 246.44,-189.51 235.88,-188.66 237.66,-195.43"/>
</a>
</g>
</g>
<!-- Node18 -->
<g id="Node000018" class="node">
<title>Node18</title>
<g id="a_Node000018"><a xlink:href="namespacedetail.html#a90b356f92e340e20002ede151cfc6fab" target="_top" xlink:title=" ">
<polygon fill="white" stroke="#666666" points="362.5,-141.5 246.5,-141.5 246.5,-111.5 362.5,-111.5 362.5,-141.5"/>
<text text-anchor="start" x="254.5" y="-129.5" font-family="Helvetica,sans-Serif" font-size="10.00">detail::parse_format</text>
<text text-anchor="middle" x="304.5" y="-118.5" font-family="Helvetica,sans-Serif" font-size="10.00">_string</text>
</a>
</g>
</g>
<!-- Node9&#45;&gt;Node18 -->
<g id="edge18_Node000009_Node000018" class="edge">
<title>Node9&#45;&gt;Node18</title>
<g id="a_edge18_Node000009_Node000018"><a xlink:title=" ">
<path fill="none" stroke="#63b8ff" d="M152.21,-207.81C170.34,-193.78 205.79,-167.6 239,-150.5 242.33,-148.79 245.81,-147.13 249.36,-145.55"/>
<polygon fill="#63b8ff" stroke="#63b8ff" points="250.99,-148.66 258.83,-141.53 248.26,-142.21 250.99,-148.66"/>
</a>
</g>
</g>
<!-- Node19 -->
<g id="Node000019" class="node">
<title>Node19</title>
<g id="a_Node000019"><a xlink:href="classbasic__string__view.html#a216bbe1b012b590698d7bb4e96d1af3f" target="_top" xlink:title=" ">
<polygon fill="white" stroke="#666666" points="368.5,-93 240.5,-93 240.5,-74 368.5,-74 368.5,-93"/>
<text text-anchor="middle" x="304.5" y="-81" font-family="Helvetica,sans-Serif" font-size="10.00">basic_string_view::size</text>
</a>
</g>
</g>
<!-- Node9&#45;&gt;Node19 -->
<g id="edge19_Node000009_Node000019" class="edge">
<title>Node9&#45;&gt;Node19</title>
<g id="a_edge19_Node000009_Node000019"><a xlink:title=" ">
<path fill="none" stroke="#63b8ff" d="M145.59,-207.83C158.85,-185.73 194.51,-131.22 239,-102.5 242.18,-100.45 245.59,-98.61 249.11,-96.97"/>
<polygon fill="#63b8ff" stroke="#63b8ff" points="250.73,-100.09 258.65,-93.06 248.07,-93.61 250.73,-100.09"/>
</a>
</g>
</g>
<!-- Node14 -->
<g id="Node000014" class="node">
<title>Node14</title>
<g id="a_Node000014"><a xlink:href="classbasic__format__args.html#a812f954be08646744a14d71f20b97830" target="_top" xlink:title=" ">
<polygon fill="white" stroke="#666666" points="693.5,-254.5 580.5,-254.5 580.5,-224.5 693.5,-224.5 693.5,-254.5"/>
<text text-anchor="start" x="588.5" y="-242.5" font-family="Helvetica,sans-Serif" font-size="10.00">basic_format_args::</text>
<text text-anchor="middle" x="637" y="-231.5" font-family="Helvetica,sans-Serif" font-size="10.00">is_packed</text>
</a>
</g>
</g>
<!-- Node13&#45;&gt;Node14 -->
<g id="edge13_Node000013_Node000014" class="edge">
<title>Node13&#45;&gt;Node14</title>
<g id="a_edge13_Node000013_Node000014"><a xlink:title=" ">
<path fill="none" stroke="#63b8ff" d="M337.29,-227.11C356.89,-232.53 382.66,-238.75 406,-241.5 461.12,-247.99 524.18,-246.84 570.32,-244.44"/>
<polygon fill="#63b8ff" stroke="#63b8ff" points="570.69,-247.92 580.49,-243.88 570.31,-240.93 570.69,-247.92"/>
</a>
</g>
</g>
<!-- Node15 -->
<g id="Node000015" class="node">
<title>Node15</title>
<g id="a_Node000015"><a xlink:href="classbasic__format__args.html#a7747894fe7c14fb78260b53ca7702782" target="_top" xlink:title=" ">
<polygon fill="white" stroke="#666666" points="529.5,-232.5 416.5,-232.5 416.5,-202.5 529.5,-202.5 529.5,-232.5"/>
<text text-anchor="start" x="424.5" y="-220.5" font-family="Helvetica,sans-Serif" font-size="10.00">basic_format_args::</text>
<text text-anchor="middle" x="473" y="-209.5" font-family="Helvetica,sans-Serif" font-size="10.00">max_size</text>
</a>
</g>
</g>
<!-- Node13&#45;&gt;Node15 -->
<g id="edge14_Node000013_Node000015" class="edge">
<title>Node13&#45;&gt;Node15</title>
<g id="a_edge14_Node000013_Node000015"><a xlink:title=" ">
<path fill="none" stroke="#63b8ff" d="M368.92,-217.5C381.13,-217.5 393.94,-217.5 406.21,-217.5"/>
<polygon fill="#63b8ff" stroke="#63b8ff" points="406.38,-221 416.38,-217.5 406.38,-214 406.38,-221"/>
</a>
</g>
</g>
<!-- Node16 -->
<g id="Node000016" class="node">
<title>Node16</title>
<g id="a_Node000016"><a xlink:href="classbasic__format__args.html#a4d5e597c31ce51609d7fa770c83dad39" target="_top" xlink:title=" ">
<polygon fill="white" stroke="#666666" points="540,-184 406,-184 406,-165 540,-165 540,-184"/>
<text text-anchor="middle" x="473" y="-172" font-family="Helvetica,sans-Serif" font-size="10.00">basic_format_args::type</text>
</a>
</g>
</g>
<!-- Node13&#45;&gt;Node16 -->
<g id="edge16_Node000013_Node000016" class="edge">
<title>Node13&#45;&gt;Node16</title>
<g id="a_edge16_Node000013_Node000016"><a xlink:title=" ">
<path fill="none" stroke="#63b8ff" d="M342.45,-207.96C366.92,-201.64 399.21,-193.3 425.43,-186.53"/>
<polygon fill="#63b8ff" stroke="#63b8ff" points="426.34,-189.91 435.15,-184.02 424.59,-183.13 426.34,-189.91"/>
</a>
</g>
</g>
<!-- Node15&#45;&gt;Node14 -->
<g id="edge15_Node000015_Node000014" class="edge">
<title>Node15&#45;&gt;Node14</title>
<g id="a_edge15_Node000015_Node000014"><a xlink:title=" ">
<path fill="none" stroke="#63b8ff" d="M529.75,-225.07C542.81,-226.84 556.83,-228.75 570.28,-230.57"/>
<polygon fill="#63b8ff" stroke="#63b8ff" points="570.04,-234.07 580.42,-231.95 570.98,-227.14 570.04,-234.07"/>
</a>
</g>
</g>
<!-- Node21 -->
<g id="Node000021" class="node">
<title>Node21</title>
<g id="a_Node000021"><a xlink:href="namespacedetail.html#a45c2130c44ebe54179eafcee3cda2bfb" target="_top" xlink:title=" ">
<polygon fill="white" stroke="#666666" points="356.5,-56 252.5,-56 252.5,-37 356.5,-37 356.5,-56"/>
<text text-anchor="middle" x="304.5" y="-44" font-family="Helvetica,sans-Serif" font-size="10.00">detail::max_value</text>
</a>
</g>
</g>
<!-- Node20&#45;&gt;Node21 -->
<g id="edge21_Node000020_Node000021" class="edge">
<title>Node20&#45;&gt;Node21</title>
<g id="a_edge21_Node000020_Node000021"><a xlink:title=" ">
<path fill="none" stroke="#63b8ff" d="M193.54,-46.5C209.04,-46.5 226.1,-46.5 242.05,-46.5"/>
<polygon fill="#63b8ff" stroke="#63b8ff" points="242.35,-50 252.35,-46.5 242.35,-43 242.35,-50"/>
</a>
</g>
</g>
<!-- Node22 -->
<g id="Node000022" class="node">
<title>Node22</title>
<g id="a_Node000022"><a xlink:href="namespacedetail.html#a4855e668246c731a97484efc329f2aac" target="_top" xlink:title=" ">
<polygon fill="white" stroke="#666666" points="359.5,-19 249.5,-19 249.5,0 359.5,0 359.5,-19"/>
<text text-anchor="middle" x="304.5" y="-7" font-family="Helvetica,sans-Serif" font-size="10.00">detail::to_unsigned</text>
</a>
</g>
</g>
<!-- Node20&#45;&gt;Node22 -->
<g id="edge22_Node000020_Node000022" class="edge">
<title>Node20&#45;&gt;Node22</title>
<g id="a_edge22_Node000020_Node000022"><a xlink:title=" ">
<path fill="none" stroke="#63b8ff" d="M182.11,-36.97C203.19,-32.2 228.92,-26.38 251.26,-21.32"/>
<polygon fill="#63b8ff" stroke="#63b8ff" points="252.27,-24.68 261.25,-19.06 250.73,-17.85 252.27,-24.68"/>
</a>
</g>
</g>
</g>
</svg>
