<?xml version="1.0" encoding="UTF-8" standalone="no"?>
<!DOCTYPE svg PUBLIC "-//W3C//DTD SVG 1.1//EN"
 "http://www.w3.org/Graphics/SVG/1.1/DTD/svg11.dtd">
<!-- Generated by graphviz version 2.43.0 (0)
 -->
<!-- Title: thirdparty/fmt/include/fmt/ostream.h Pages: 1 -->
<svg width="935pt" height="258pt"
 viewBox="0.00 0.00 934.50 258.00" xmlns="http://www.w3.org/2000/svg" xmlns:xlink="http://www.w3.org/1999/xlink">
<g id="graph0" class="graph" transform="scale(1 1) rotate(0) translate(4 254)">
<title>thirdparty/fmt/include/fmt/ostream.h</title>
<!-- Node1 -->
<g id="Node000001" class="node">
<title>Node1</title>
<g id="a_Node000001"><a xlink:title=" ">
<polygon fill="#999999" stroke="#666666" points="334.5,-250 211.5,-250 211.5,-220 334.5,-220 334.5,-250"/>
<text text-anchor="start" x="219.5" y="-238" font-family="Helvetica,sans-Serif" font-size="10.00">thirdparty/fmt/include</text>
<text text-anchor="middle" x="273" y="-227" font-family="Helvetica,sans-Serif" font-size="10.00">/fmt/ostream.h</text>
</a>
</g>
</g>
<!-- Node2 -->
<g id="Node000002" class="node">
<title>Node2</title>
<g id="a_Node000002"><a xlink:title=" ">
<polygon fill="#e0e0e0" stroke="#999999" points="263.5,-184 208.5,-184 208.5,-165 263.5,-165 263.5,-184"/>
<text text-anchor="middle" x="236" y="-172" font-family="Helvetica,sans-Serif" font-size="10.00">fstream</text>
</a>
</g>
</g>
<!-- Node1&#45;&gt;Node2 -->
<g id="edge1_Node000001_Node000002" class="edge">
<title>Node1&#45;&gt;Node2</title>
<g id="a_edge1_Node000001_Node000002"><a xlink:title=" ">
<path fill="none" stroke="#63b8ff" d="M264.04,-219.84C258.89,-211.69 252.38,-201.4 246.93,-192.78"/>
<polygon fill="#63b8ff" stroke="#63b8ff" points="249.85,-190.85 241.54,-184.27 243.93,-194.59 249.85,-190.85"/>
</a>
</g>
</g>
<!-- Node3 -->
<g id="Node000003" class="node">
<title>Node3</title>
<g id="a_Node000003"><a xlink:href="chrono_8h.html" target="_top" xlink:title=" ">
<polygon fill="white" stroke="#666666" points="340.5,-184 281.5,-184 281.5,-165 340.5,-165 340.5,-184"/>
<text text-anchor="middle" x="311" y="-172" font-family="Helvetica,sans-Serif" font-size="10.00">chrono.h</text>
</a>
</g>
</g>
<!-- Node1&#45;&gt;Node3 -->
<g id="edge2_Node000001_Node000003" class="edge">
<title>Node1&#45;&gt;Node3</title>
<g id="a_edge2_Node000001_Node000003"><a xlink:title=" ">
<path fill="none" stroke="#63b8ff" d="M282.2,-219.84C287.49,-211.69 294.18,-201.4 299.78,-192.78"/>
<polygon fill="#63b8ff" stroke="#63b8ff" points="302.79,-194.56 305.31,-184.27 296.92,-190.75 302.79,-194.56"/>
</a>
</g>
</g>
<!-- Node4 -->
<g id="Node000004" class="node">
<title>Node4</title>
<g id="a_Node000004"><a xlink:title=" ">
<polygon fill="#e0e0e0" stroke="#999999" points="64,-129 0,-129 0,-110 64,-110 64,-129"/>
<text text-anchor="middle" x="32" y="-117" font-family="Helvetica,sans-Serif" font-size="10.00">algorithm</text>
</a>
</g>
</g>
<!-- Node3&#45;&gt;Node4 -->
<g id="edge3_Node000003_Node000004" class="edge">
<title>Node3&#45;&gt;Node4</title>
<g id="a_edge3_Node000003_Node000004"><a xlink:title=" ">
<path fill="none" stroke="#63b8ff" d="M281.21,-166.89C278.1,-166.24 274.99,-165.6 272,-165 186.95,-148.05 162.91,-146.24 74.18,-129.19"/>
<polygon fill="#63b8ff" stroke="#63b8ff" points="74.7,-125.72 64.21,-127.26 73.37,-132.59 74.7,-125.72"/>
</a>
</g>
</g>
<!-- Node5 -->
<g id="Node000005" class="node">
<title>Node5</title>
<g id="a_Node000005"><a xlink:title=" ">
<polygon fill="#e0e0e0" stroke="#999999" points="132,-129 82,-129 82,-110 132,-110 132,-129"/>
<text text-anchor="middle" x="107" y="-117" font-family="Helvetica,sans-Serif" font-size="10.00">chrono</text>
</a>
</g>
</g>
<!-- Node3&#45;&gt;Node5 -->
<g id="edge4_Node000003_Node000005" class="edge">
<title>Node3&#45;&gt;Node5</title>
<g id="a_edge4_Node000003_Node000005"><a xlink:title=" ">
<path fill="none" stroke="#63b8ff" d="M281.34,-165.79C244.33,-156.18 181.16,-139.77 141.88,-129.56"/>
<polygon fill="#63b8ff" stroke="#63b8ff" points="142.76,-126.17 132.2,-127.05 141,-132.95 142.76,-126.17"/>
</a>
</g>
</g>
<!-- Node6 -->
<g id="Node000006" class="node">
<title>Node6</title>
<g id="a_Node000006"><a xlink:title=" ">
<polygon fill="#e0e0e0" stroke="#999999" points="342.5,-74 295.5,-74 295.5,-55 342.5,-55 342.5,-74"/>
<text text-anchor="middle" x="319" y="-62" font-family="Helvetica,sans-Serif" font-size="10.00">cmath</text>
</a>
</g>
</g>
<!-- Node3&#45;&gt;Node6 -->
<g id="edge5_Node000003_Node000006" class="edge">
<title>Node3&#45;&gt;Node6</title>
<g id="a_edge5_Node000003_Node000006"><a xlink:title=" ">
<path fill="none" stroke="#63b8ff" d="M340.68,-171.65C392.89,-167.7 497.77,-156.47 520,-129 554.3,-86.63 551.34,-120.75 352.65,-74.29"/>
<polygon fill="#63b8ff" stroke="#63b8ff" points="353.27,-70.84 342.73,-71.94 351.66,-77.65 353.27,-70.84"/>
</a>
</g>
</g>
<!-- Node7 -->
<g id="Node000007" class="node">
<title>Node7</title>
<g id="a_Node000007"><a xlink:title=" ">
<polygon fill="#e0e0e0" stroke="#999999" points="238,-129 188,-129 188,-110 238,-110 238,-129"/>
<text text-anchor="middle" x="213" y="-117" font-family="Helvetica,sans-Serif" font-size="10.00">cstring</text>
</a>
</g>
</g>
<!-- Node3&#45;&gt;Node7 -->
<g id="edge6_Node000003_Node000007" class="edge">
<title>Node3&#45;&gt;Node7</title>
<g id="a_edge6_Node000003_Node000007"><a xlink:title=" ">
<path fill="none" stroke="#63b8ff" d="M295.25,-164.98C279.77,-156.61 255.91,-143.7 237.86,-133.95"/>
<polygon fill="#63b8ff" stroke="#63b8ff" points="239.49,-130.85 229.03,-129.17 236.16,-137.01 239.49,-130.85"/>
</a>
</g>
</g>
<!-- Node8 -->
<g id="Node000008" class="node">
<title>Node8</title>
<g id="a_Node000008"><a xlink:title=" ">
<polygon fill="#e0e0e0" stroke="#999999" points="300,-129 256,-129 256,-110 300,-110 300,-129"/>
<text text-anchor="middle" x="278" y="-117" font-family="Helvetica,sans-Serif" font-size="10.00">ctime</text>
</a>
</g>
</g>
<!-- Node3&#45;&gt;Node8 -->
<g id="edge7_Node000003_Node000008" class="edge">
<title>Node3&#45;&gt;Node8</title>
<g id="a_edge7_Node000003_Node000008"><a xlink:title=" ">
<path fill="none" stroke="#63b8ff" d="M305.55,-164.75C300.99,-157.42 294.33,-146.73 288.71,-137.7"/>
<polygon fill="#63b8ff" stroke="#63b8ff" points="291.6,-135.73 283.35,-129.09 285.66,-139.43 291.6,-135.73"/>
</a>
</g>
</g>
<!-- Node9 -->
<g id="Node000009" class="node">
<title>Node9</title>
<g id="a_Node000009"><a xlink:title=" ">
<polygon fill="#e0e0e0" stroke="#999999" points="371.5,-129 318.5,-129 318.5,-110 371.5,-110 371.5,-129"/>
<text text-anchor="middle" x="345" y="-117" font-family="Helvetica,sans-Serif" font-size="10.00">iterator</text>
</a>
</g>
</g>
<!-- Node3&#45;&gt;Node9 -->
<g id="edge8_Node000003_Node000009" class="edge">
<title>Node3&#45;&gt;Node9</title>
<g id="a_edge8_Node000003_Node000009"><a xlink:title=" ">
<path fill="none" stroke="#63b8ff" d="M316.61,-164.75C321.32,-157.42 328.17,-146.73 333.97,-137.7"/>
<polygon fill="#63b8ff" stroke="#63b8ff" points="337.04,-139.4 339.49,-129.09 331.14,-135.62 337.04,-139.4"/>
</a>
</g>
</g>
<!-- Node10 -->
<g id="Node000010" class="node">
<title>Node10</title>
<g id="a_Node000010"><a xlink:title=" ">
<polygon fill="#e0e0e0" stroke="#999999" points="436,-129 390,-129 390,-110 436,-110 436,-129"/>
<text text-anchor="middle" x="413" y="-117" font-family="Helvetica,sans-Serif" font-size="10.00">locale</text>
</a>
</g>
</g>
<!-- Node3&#45;&gt;Node10 -->
<g id="edge9_Node000003_Node000010" class="edge">
<title>Node3&#45;&gt;Node10</title>
<g id="a_edge9_Node000003_Node000010"><a xlink:title=" ">
<path fill="none" stroke="#63b8ff" d="M327.39,-164.98C343.57,-156.57 368.57,-143.59 387.38,-133.81"/>
<polygon fill="#63b8ff" stroke="#63b8ff" points="389.05,-136.89 396.31,-129.17 385.83,-130.68 389.05,-136.89"/>
</a>
</g>
</g>
<!-- Node11 -->
<g id="Node000011" class="node">
<title>Node11</title>
<g id="a_Node000011"><a xlink:title=" ">
<polygon fill="#e0e0e0" stroke="#999999" points="511.5,-129 454.5,-129 454.5,-110 511.5,-110 511.5,-129"/>
<text text-anchor="middle" x="483" y="-117" font-family="Helvetica,sans-Serif" font-size="10.00">ostream</text>
</a>
</g>
</g>
<!-- Node3&#45;&gt;Node11 -->
<g id="edge10_Node000003_Node000011" class="edge">
<title>Node3&#45;&gt;Node11</title>
<g id="a_edge10_Node000003_Node000011"><a xlink:title=" ">
<path fill="none" stroke="#63b8ff" d="M338.63,-164.98C367.51,-156.09 413.01,-142.07 445.2,-132.15"/>
<polygon fill="#63b8ff" stroke="#63b8ff" points="446.62,-135.37 455.15,-129.08 444.56,-128.68 446.62,-135.37"/>
</a>
</g>
</g>
<!-- Node12 -->
<g id="Node000012" class="node">
<title>Node12</title>
<g id="a_Node000012"><a xlink:title=" ">
<polygon fill="#e0e0e0" stroke="#999999" points="461.5,-19 392.5,-19 392.5,0 461.5,0 461.5,-19"/>
<text text-anchor="middle" x="427" y="-7" font-family="Helvetica,sans-Serif" font-size="10.00">type_traits</text>
</a>
</g>
</g>
<!-- Node3&#45;&gt;Node12 -->
<g id="edge11_Node000003_Node000012" class="edge">
<title>Node3&#45;&gt;Node12</title>
<g id="a_edge11_Node000003_Node000012"><a xlink:title=" ">
<path fill="none" stroke="#63b8ff" d="M281.25,-165.45C244.25,-155.13 185.15,-137.57 179,-129 174.07,-122.14 174.6,-117.21 179,-110 221.52,-40.33 322.73,-19.43 381.88,-13.17"/>
<polygon fill="#63b8ff" stroke="#63b8ff" points="382.44,-16.63 392.06,-12.19 381.77,-9.66 382.44,-16.63"/>
</a>
</g>
</g>
<!-- Node13 -->
<g id="Node000013" class="node">
<title>Node13</title>
<g id="a_Node000013"><a xlink:href="format_8h.html" target="_top" xlink:title=" ">
<polygon fill="white" stroke="#666666" points="627.5,-129 568.5,-129 568.5,-110 627.5,-110 627.5,-129"/>
<text text-anchor="middle" x="598" y="-117" font-family="Helvetica,sans-Serif" font-size="10.00">format.h</text>
</a>
</g>
</g>
<!-- Node3&#45;&gt;Node13 -->
<g id="edge12_Node000003_Node000013" class="edge">
<title>Node3&#45;&gt;Node13</title>
<g id="a_edge12_Node000003_Node000013"><a xlink:title=" ">
<path fill="none" stroke="#63b8ff" d="M340.57,-168.18C386.33,-159.93 477.08,-143.47 554,-129 555.29,-128.76 556.6,-128.51 557.93,-128.26"/>
<polygon fill="#63b8ff" stroke="#63b8ff" points="559.02,-131.61 568.19,-126.3 557.71,-124.74 559.02,-131.61"/>
</a>
</g>
</g>
<!-- Node13&#45;&gt;Node6 -->
<g id="edge21_Node000013_Node000006" class="edge">
<title>Node13&#45;&gt;Node6</title>
<g id="a_edge21_Node000013_Node000006"><a xlink:title=" ">
<path fill="none" stroke="#63b8ff" d="M568.19,-112.68C563.45,-111.77 558.59,-110.85 554,-110 466.98,-93.88 442.15,-93.77 352.48,-74.19"/>
<polygon fill="#63b8ff" stroke="#63b8ff" points="353.23,-70.77 342.71,-72.04 351.72,-77.61 353.23,-70.77"/>
</a>
</g>
</g>
<!-- Node14 -->
<g id="Node000014" class="node">
<title>Node14</title>
<g id="a_Node000014"><a xlink:href="base_8h.html" target="_top" xlink:title=" ">
<polygon fill="white" stroke="#666666" points="859.5,-74 810.5,-74 810.5,-55 859.5,-55 859.5,-74"/>
<text text-anchor="middle" x="835" y="-62" font-family="Helvetica,sans-Serif" font-size="10.00">base.h</text>
</a>
</g>
</g>
<!-- Node13&#45;&gt;Node14 -->
<g id="edge13_Node000013_Node000014" class="edge">
<title>Node13&#45;&gt;Node14</title>
<g id="a_edge13_Node000013_Node000014"><a xlink:title=" ">
<path fill="none" stroke="#63b8ff" d="M627.81,-112.36C665.75,-104.47 733.54,-90.1 800.32,-74.34"/>
<polygon fill="#63b8ff" stroke="#63b8ff" points="801.24,-77.72 810.16,-72 799.62,-70.91 801.24,-77.72"/>
</a>
</g>
</g>
<!-- Node17 -->
<g id="Node000017" class="node">
<title>Node17</title>
<g id="a_Node000017"><a xlink:title=" ">
<polygon fill="#e0e0e0" stroke="#999999" points="926.5,-19 873.5,-19 873.5,0 926.5,0 926.5,-19"/>
<text text-anchor="middle" x="900" y="-7" font-family="Helvetica,sans-Serif" font-size="10.00">string.h</text>
</a>
</g>
</g>
<!-- Node13&#45;&gt;Node17 -->
<g id="edge20_Node000013_Node000017" class="edge">
<title>Node13&#45;&gt;Node17</title>
<g id="a_edge20_Node000013_Node000017"><a xlink:title=" ">
<path fill="none" stroke="#63b8ff" d="M627.6,-117.02C689.73,-113.39 831.13,-102.18 869,-74 883.59,-63.15 891.68,-43.57 895.9,-29.02"/>
<polygon fill="#63b8ff" stroke="#63b8ff" points="899.35,-29.65 898.42,-19.09 892.57,-27.92 899.35,-29.65"/>
</a>
</g>
</g>
<!-- Node18 -->
<g id="Node000018" class="node">
<title>Node18</title>
<g id="a_Node000018"><a xlink:title=" ">
<polygon fill="#e0e0e0" stroke="#999999" points="413.5,-74 360.5,-74 360.5,-55 413.5,-55 413.5,-74"/>
<text text-anchor="middle" x="387" y="-62" font-family="Helvetica,sans-Serif" font-size="10.00">stdint.h</text>
</a>
</g>
</g>
<!-- Node13&#45;&gt;Node18 -->
<g id="edge18_Node000013_Node000018" class="edge">
<title>Node13&#45;&gt;Node18</title>
<g id="a_edge18_Node000013_Node000018"><a xlink:title=" ">
<path fill="none" stroke="#63b8ff" d="M568.22,-111.02C530.2,-101.47 464.47,-84.96 423.49,-74.66"/>
<polygon fill="#63b8ff" stroke="#63b8ff" points="424.18,-71.23 413.63,-72.19 422.48,-78.02 424.18,-71.23"/>
</a>
</g>
</g>
<!-- Node19 -->
<g id="Node000019" class="node">
<title>Node19</title>
<g id="a_Node000019"><a xlink:title=" ">
<polygon fill="#e0e0e0" stroke="#999999" points="484.5,-74 431.5,-74 431.5,-55 484.5,-55 484.5,-74"/>
<text text-anchor="middle" x="458" y="-62" font-family="Helvetica,sans-Serif" font-size="10.00">stdlib.h</text>
</a>
</g>
</g>
<!-- Node13&#45;&gt;Node19 -->
<g id="edge19_Node000013_Node000019" class="edge">
<title>Node13&#45;&gt;Node19</title>
<g id="a_edge19_Node000013_Node000019"><a xlink:title=" ">
<path fill="none" stroke="#63b8ff" d="M575.51,-109.98C552.48,-101.27 516.46,-87.63 490.37,-77.75"/>
<polygon fill="#63b8ff" stroke="#63b8ff" points="491.49,-74.44 480.9,-74.17 489.02,-80.98 491.49,-74.44"/>
</a>
</g>
</g>
<!-- Node20 -->
<g id="Node000020" class="node">
<title>Node20</title>
<g id="a_Node000020"><a xlink:title=" ">
<polygon fill="#e0e0e0" stroke="#999999" points="547,-74 503,-74 503,-55 547,-55 547,-74"/>
<text text-anchor="middle" x="525" y="-62" font-family="Helvetica,sans-Serif" font-size="10.00">limits</text>
</a>
</g>
</g>
<!-- Node13&#45;&gt;Node20 -->
<g id="edge22_Node000013_Node000020" class="edge">
<title>Node13&#45;&gt;Node20</title>
<g id="a_edge22_Node000013_Node000020"><a xlink:title=" ">
<path fill="none" stroke="#63b8ff" d="M586.27,-109.98C575.27,-102 558.58,-89.88 545.4,-80.31"/>
<polygon fill="#63b8ff" stroke="#63b8ff" points="547.09,-77.21 536.94,-74.17 542.98,-82.88 547.09,-77.21"/>
</a>
</g>
</g>
<!-- Node21 -->
<g id="Node000021" class="node">
<title>Node21</title>
<g id="a_Node000021"><a xlink:title=" ">
<polygon fill="#e0e0e0" stroke="#999999" points="630.5,-74 565.5,-74 565.5,-55 630.5,-55 630.5,-74"/>
<text text-anchor="middle" x="598" y="-62" font-family="Helvetica,sans-Serif" font-size="10.00">stdexcept</text>
</a>
</g>
</g>
<!-- Node13&#45;&gt;Node21 -->
<g id="edge23_Node000013_Node000021" class="edge">
<title>Node13&#45;&gt;Node21</title>
<g id="a_edge23_Node000013_Node000021"><a xlink:title=" ">
<path fill="none" stroke="#63b8ff" d="M598,-109.75C598,-102.8 598,-92.85 598,-84.13"/>
<polygon fill="#63b8ff" stroke="#63b8ff" points="601.5,-84.09 598,-74.09 594.5,-84.09 601.5,-84.09"/>
</a>
</g>
</g>
<!-- Node22 -->
<g id="Node000022" class="node">
<title>Node22</title>
<g id="a_Node000022"><a xlink:title=" ">
<polygon fill="#e0e0e0" stroke="#999999" points="693,-74 649,-74 649,-55 693,-55 693,-74"/>
<text text-anchor="middle" x="671" y="-62" font-family="Helvetica,sans-Serif" font-size="10.00">string</text>
</a>
</g>
</g>
<!-- Node13&#45;&gt;Node22 -->
<g id="edge24_Node000013_Node000022" class="edge">
<title>Node13&#45;&gt;Node22</title>
<g id="a_edge24_Node000013_Node000022"><a xlink:title=" ">
<path fill="none" stroke="#63b8ff" d="M609.73,-109.98C620.73,-102 637.42,-89.88 650.6,-80.31"/>
<polygon fill="#63b8ff" stroke="#63b8ff" points="653.02,-82.88 659.06,-74.17 648.91,-77.21 653.02,-82.88"/>
</a>
</g>
</g>
<!-- Node23 -->
<g id="Node000023" class="node">
<title>Node23</title>
<g id="a_Node000023"><a xlink:title=" ">
<polygon fill="#e0e0e0" stroke="#999999" points="792.5,-74 711.5,-74 711.5,-55 792.5,-55 792.5,-74"/>
<text text-anchor="middle" x="752" y="-62" font-family="Helvetica,sans-Serif" font-size="10.00">system_error</text>
</a>
</g>
</g>
<!-- Node13&#45;&gt;Node23 -->
<g id="edge25_Node000013_Node000023" class="edge">
<title>Node13&#45;&gt;Node23</title>
<g id="a_edge25_Node000013_Node000023"><a xlink:title=" ">
<path fill="none" stroke="#63b8ff" d="M622.74,-109.98C648.37,-101.16 688.63,-87.31 717.41,-77.41"/>
<polygon fill="#63b8ff" stroke="#63b8ff" points="718.75,-80.65 727.06,-74.08 716.47,-74.03 718.75,-80.65"/>
</a>
</g>
</g>
<!-- Node14&#45;&gt;Node12 -->
<g id="edge17_Node000014_Node000012" class="edge">
<title>Node14&#45;&gt;Node12</title>
<g id="a_edge17_Node000014_Node000012"><a xlink:title=" ">
<path fill="none" stroke="#63b8ff" d="M810.21,-56.74C807.45,-56.1 804.67,-55.5 802,-55 683.85,-32.88 542.6,-19.62 471.93,-13.87"/>
<polygon fill="#63b8ff" stroke="#63b8ff" points="471.86,-10.36 461.62,-13.05 471.3,-17.33 471.86,-10.36"/>
</a>
</g>
</g>
<!-- Node15 -->
<g id="Node000015" class="node">
<title>Node15</title>
<g id="a_Node000015"><a xlink:title=" ">
<polygon fill="#e0e0e0" stroke="#999999" points="786.5,-19 733.5,-19 733.5,0 786.5,0 786.5,-19"/>
<text text-anchor="middle" x="760" y="-7" font-family="Helvetica,sans-Serif" font-size="10.00">limits.h</text>
</a>
</g>
</g>
<!-- Node14&#45;&gt;Node15 -->
<g id="edge14_Node000014_Node000015" class="edge">
<title>Node14&#45;&gt;Node15</title>
<g id="a_edge14_Node000014_Node000015"><a xlink:title=" ">
<path fill="none" stroke="#63b8ff" d="M822.95,-54.98C811.54,-46.92 794.17,-34.65 780.57,-25.03"/>
<polygon fill="#63b8ff" stroke="#63b8ff" points="782.46,-22.08 772.27,-19.17 778.42,-27.8 782.46,-22.08"/>
</a>
</g>
</g>
<!-- Node16 -->
<g id="Node000016" class="node">
<title>Node16</title>
<g id="a_Node000016"><a xlink:title=" ">
<polygon fill="#e0e0e0" stroke="#999999" points="855,-19 805,-19 805,0 855,0 855,-19"/>
<text text-anchor="middle" x="830" y="-7" font-family="Helvetica,sans-Serif" font-size="10.00">stdio.h</text>
</a>
</g>
</g>
<!-- Node14&#45;&gt;Node16 -->
<g id="edge15_Node000014_Node000016" class="edge">
<title>Node14&#45;&gt;Node16</title>
<g id="a_edge15_Node000014_Node000016"><a xlink:title=" ">
<path fill="none" stroke="#63b8ff" d="M834.17,-54.75C833.52,-47.8 832.58,-37.85 831.76,-29.13"/>
<polygon fill="#63b8ff" stroke="#63b8ff" points="835.23,-28.72 830.81,-19.09 828.27,-29.37 835.23,-28.72"/>
</a>
</g>
</g>
<!-- Node14&#45;&gt;Node17 -->
<g id="edge16_Node000014_Node000017" class="edge">
<title>Node14&#45;&gt;Node17</title>
<g id="a_edge16_Node000014_Node000017"><a xlink:title=" ">
<path fill="none" stroke="#63b8ff" d="M845.44,-54.98C855.15,-47.07 869.82,-35.11 881.5,-25.58"/>
<polygon fill="#63b8ff" stroke="#63b8ff" points="883.83,-28.2 889.37,-19.17 879.4,-22.78 883.83,-28.2"/>
</a>
</g>
</g>
</g>
</svg>
