<?xml version="1.0" encoding="UTF-8" standalone="no"?>
<!DOCTYPE svg PUBLIC "-//W3C//DTD SVG 1.1//EN"
 "http://www.w3.org/Graphics/SVG/1.1/DTD/svg11.dtd">
<!-- Generated by graphviz version 2.43.0 (0)
 -->
<!-- Title: vprint Pages: 1 -->
<svg width="712pt" height="515pt"
 viewBox="0.00 0.00 712.00 515.00" xmlns="http://www.w3.org/2000/svg" xmlns:xlink="http://www.w3.org/1999/xlink">
<g id="graph0" class="graph" transform="scale(1 1) rotate(0) translate(4 511)">
<title>vprint</title>
<!-- Node1 -->
<g id="Node000001" class="node">
<title>Node1</title>
<g id="a_Node000001"><a xlink:title=" ">
<polygon fill="#999999" stroke="#666666" points="45,-325 0,-325 0,-306 45,-306 45,-325"/>
<text text-anchor="middle" x="22.5" y="-313" font-family="Helvetica,sans-Serif" font-size="10.00">vprint</text>
</a>
</g>
</g>
<!-- Node2 -->
<g id="Node000002" class="node">
<title>Node2</title>
<g id="a_Node000002"><a xlink:href="classbasic__memory__buffer.html#a7a9300acfadb00a835b36a86a198f433" target="_top" xlink:title=" ">
<polygon fill="white" stroke="#666666" points="209,-435.5 81,-435.5 81,-405.5 209,-405.5 209,-435.5"/>
<text text-anchor="start" x="89" y="-423.5" font-family="Helvetica,sans-Serif" font-size="10.00">basic_memory_buffer</text>
<text text-anchor="middle" x="145" y="-412.5" font-family="Helvetica,sans-Serif" font-size="10.00">::basic_memory_buffer</text>
</a>
</g>
</g>
<!-- Node1&#45;&gt;Node2 -->
<g id="edge1_Node000001_Node000002" class="edge">
<title>Node1&#45;&gt;Node2</title>
<g id="a_edge1_Node000001_Node000002"><a xlink:title=" ">
<path fill="none" stroke="#63b8ff" d="M28.67,-325.11C37.53,-340.83 57.02,-372.22 81,-391.5 85.06,-394.76 89.55,-397.75 94.2,-400.47"/>
<polygon fill="#63b8ff" stroke="#63b8ff" points="92.82,-403.7 103.29,-405.35 96.13,-397.53 92.82,-403.7"/>
</a>
</g>
</g>
<!-- Node5 -->
<g id="Node000005" class="node">
<title>Node5</title>
<g id="a_Node000005"><a xlink:href="namespacedetail.html#a1fe84ebaf96215ce0665d95b3124c2df" target="_top" xlink:title=" ">
<polygon fill="white" stroke="#666666" points="704,-447 582,-447 582,-428 704,-428 704,-447"/>
<text text-anchor="middle" x="643" y="-435" font-family="Helvetica,sans-Serif" font-size="10.00">detail::ignore_unused</text>
</a>
</g>
</g>
<!-- Node1&#45;&gt;Node5 -->
<g id="edge8_Node000001_Node000005" class="edge">
<title>Node1&#45;&gt;Node5</title>
<g id="a_edge8_Node000001_Node000005"><a xlink:title=" ">
<path fill="none" stroke="#63b8ff" d="M45.14,-319.98C84.73,-328.1 171.49,-345.63 245,-358.5 378.37,-381.85 414.43,-373.54 546,-405.5 566.74,-410.54 589.42,-418 607.52,-424.46"/>
<polygon fill="#63b8ff" stroke="#63b8ff" points="606.48,-427.8 617.07,-427.91 608.86,-421.22 606.48,-427.8"/>
</a>
</g>
</g>
<!-- Node9 -->
<g id="Node000009" class="node">
<title>Node9</title>
<g id="a_Node000009"><a xlink:href="namespacedetail.html#a374a461d344b73468831b40acf5e4635" target="_top" xlink:title=" ">
<polygon fill="white" stroke="#666666" points="197,-245 93,-245 93,-226 197,-226 197,-245"/>
<text text-anchor="middle" x="145" y="-233" font-family="Helvetica,sans-Serif" font-size="10.00">detail::vformat_to</text>
</a>
</g>
</g>
<!-- Node1&#45;&gt;Node9 -->
<g id="edge9_Node000001_Node000009" class="edge">
<title>Node1&#45;&gt;Node9</title>
<g id="a_edge9_Node000001_Node000009"><a xlink:title=" ">
<path fill="none" stroke="#63b8ff" d="M38.28,-305.69C58.89,-292 96.5,-267.03 120.86,-250.86"/>
<polygon fill="#63b8ff" stroke="#63b8ff" points="123.08,-253.59 129.48,-245.14 119.21,-247.76 123.08,-253.59"/>
</a>
</g>
</g>
<!-- Node20 -->
<g id="Node000020" class="node">
<title>Node20</title>
<g id="a_Node000020"><a xlink:href="namespacedetail.html#ab774ebdb3565689cdc79ab10b0cb16ef" target="_top" xlink:title=" ">
<polygon fill="white" stroke="#666666" points="199.5,-56 90.5,-56 90.5,-37 199.5,-37 199.5,-56"/>
<text text-anchor="middle" x="145" y="-44" font-family="Helvetica,sans-Serif" font-size="10.00">detail::write_buffer</text>
</a>
</g>
</g>
<!-- Node1&#45;&gt;Node20 -->
<g id="edge21_Node000001_Node000020" class="edge">
<title>Node1&#45;&gt;Node20</title>
<g id="a_edge21_Node000001_Node000020"><a xlink:title=" ">
<path fill="none" stroke="#63b8ff" d="M27.79,-305.93C45.32,-266.79 111.72,-118.56 135.48,-65.52"/>
<polygon fill="#63b8ff" stroke="#63b8ff" points="138.74,-66.8 139.64,-56.24 132.35,-63.94 138.74,-66.8"/>
</a>
</g>
</g>
<!-- Node3 -->
<g id="Node000003" class="node">
<title>Node3</title>
<g id="a_Node000003"><a xlink:href="classbasic__memory__buffer.html#a97d9a0a0f9827c9277e2eea97fa0309b" target="_top" xlink:title=" ">
<polygon fill="white" stroke="#666666" points="371.5,-483.5 249.5,-483.5 249.5,-453.5 371.5,-453.5 371.5,-483.5"/>
<text text-anchor="start" x="257.5" y="-471.5" font-family="Helvetica,sans-Serif" font-size="10.00">basic_memory_buffer</text>
<text text-anchor="middle" x="310.5" y="-460.5" font-family="Helvetica,sans-Serif" font-size="10.00">::grow</text>
</a>
</g>
</g>
<!-- Node2&#45;&gt;Node3 -->
<g id="edge2_Node000002_Node000003" class="edge">
<title>Node2&#45;&gt;Node3</title>
<g id="a_edge2_Node000002_Node000003"><a xlink:title=" ">
<path fill="none" stroke="#63b8ff" d="M197.28,-435.56C213.57,-440.34 231.73,-445.67 248.62,-450.63"/>
<polygon fill="#63b8ff" stroke="#63b8ff" points="247.82,-454.04 258.4,-453.5 249.79,-447.32 247.82,-454.04"/>
</a>
</g>
</g>
<!-- Node8 -->
<g id="Node000008" class="node">
<title>Node8</title>
<g id="a_Node000008"><a xlink:href="namespacedetail.html#a75ed2634319883d038944529dbb954e2" target="_top" xlink:title=" ">
<polygon fill="white" stroke="#666666" points="363.5,-435.5 257.5,-435.5 257.5,-405.5 363.5,-405.5 363.5,-435.5"/>
<text text-anchor="start" x="265.5" y="-423.5" font-family="Helvetica,sans-Serif" font-size="10.00">detail::is_constant</text>
<text text-anchor="middle" x="310.5" y="-412.5" font-family="Helvetica,sans-Serif" font-size="10.00">_evaluated</text>
</a>
</g>
</g>
<!-- Node2&#45;&gt;Node8 -->
<g id="edge7_Node000002_Node000008" class="edge">
<title>Node2&#45;&gt;Node8</title>
<g id="a_edge7_Node000002_Node000008"><a xlink:title=" ">
<path fill="none" stroke="#63b8ff" d="M209.21,-420.5C221.64,-420.5 234.67,-420.5 247.07,-420.5"/>
<polygon fill="#63b8ff" stroke="#63b8ff" points="247.31,-424 257.31,-420.5 247.31,-417 247.31,-424"/>
</a>
</g>
</g>
<!-- Node4 -->
<g id="Node000004" class="node">
<title>Node4</title>
<g id="a_Node000004"><a xlink:href="namespacedetail.html#a9d0b4b56d52390d7c8a4be7baa5e2382" target="_top" xlink:title=" ">
<polygon fill="white" stroke="#666666" points="543,-507 415,-507 415,-488 543,-488 543,-507"/>
<text text-anchor="middle" x="479" y="-495" font-family="Helvetica,sans-Serif" font-size="10.00">detail::abort_fuzzing_if</text>
</a>
</g>
</g>
<!-- Node3&#45;&gt;Node4 -->
<g id="edge3_Node000003_Node000004" class="edge">
<title>Node3&#45;&gt;Node4</title>
<g id="a_edge3_Node000003_Node000004"><a xlink:title=" ">
<path fill="none" stroke="#63b8ff" d="M371.61,-478.97C385.18,-481.33 399.63,-483.85 413.38,-486.24"/>
<polygon fill="#63b8ff" stroke="#63b8ff" points="412.78,-489.69 423.24,-487.96 413.99,-482.8 412.78,-489.69"/>
</a>
</g>
</g>
<!-- Node6 -->
<g id="Node000006" class="node">
<title>Node6</title>
<g id="a_Node000006"><a xlink:href="namespacedetail.html#a208b54c1c61a9bce9df4531a657a0c64" target="_top" xlink:title=" ">
<polygon fill="white" stroke="#666666" points="523.5,-470 434.5,-470 434.5,-451 523.5,-451 523.5,-470"/>
<text text-anchor="middle" x="479" y="-458" font-family="Helvetica,sans-Serif" font-size="10.00">detail::assume</text>
</a>
</g>
</g>
<!-- Node3&#45;&gt;Node6 -->
<g id="edge5_Node000003_Node000006" class="edge">
<title>Node3&#45;&gt;Node6</title>
<g id="a_edge5_Node000003_Node000006"><a xlink:title=" ">
<path fill="none" stroke="#63b8ff" d="M371.61,-465.61C388.81,-464.79 407.45,-463.89 424.24,-463.08"/>
<polygon fill="#63b8ff" stroke="#63b8ff" points="424.61,-466.57 434.43,-462.59 424.27,-459.58 424.61,-466.57"/>
</a>
</g>
</g>
<!-- Node7 -->
<g id="Node000007" class="node">
<title>Node7</title>
<g id="a_Node000007"><a xlink:href="base_8h.html#a67ebc2a5b1748c4692931267cd6f89bf" target="_top" xlink:title=" ">
<polygon fill="white" stroke="#666666" points="505.5,-433 452.5,-433 452.5,-414 505.5,-414 505.5,-433"/>
<text text-anchor="middle" x="479" y="-421" font-family="Helvetica,sans-Serif" font-size="10.00">max_of</text>
</a>
</g>
</g>
<!-- Node3&#45;&gt;Node7 -->
<g id="edge6_Node000003_Node000007" class="edge">
<title>Node3&#45;&gt;Node7</title>
<g id="a_edge6_Node000003_Node000007"><a xlink:title=" ">
<path fill="none" stroke="#63b8ff" d="M367.41,-453.39C392.2,-446.69 420.63,-439 442.46,-433.11"/>
<polygon fill="#63b8ff" stroke="#63b8ff" points="443.55,-436.44 452.29,-430.45 441.73,-429.68 443.55,-436.44"/>
</a>
</g>
</g>
<!-- Node4&#45;&gt;Node5 -->
<g id="edge4_Node000004_Node000005" class="edge">
<title>Node4&#45;&gt;Node5</title>
<g id="a_edge4_Node000004_Node000005"><a xlink:title=" ">
<path fill="none" stroke="#63b8ff" d="M518.68,-487.97C527.72,-485.46 537.26,-482.58 546,-479.5 569.08,-471.35 594.42,-460.17 613.26,-451.39"/>
<polygon fill="#63b8ff" stroke="#63b8ff" points="614.93,-454.47 622.48,-447.05 611.94,-448.14 614.93,-454.47"/>
</a>
</g>
</g>
<!-- Node10 -->
<g id="Node000010" class="node">
<title>Node10</title>
<g id="a_Node000010"><a xlink:href="classbasic__appender.html#a3f0cd72d9279e98079287ae5c6cc53c0" target="_top" xlink:title=" ">
<polygon fill="white" stroke="#666666" points="373,-349.5 248,-349.5 248,-319.5 373,-319.5 373,-349.5"/>
<text text-anchor="start" x="256" y="-337.5" font-family="Helvetica,sans-Serif" font-size="10.00">basic_appender::basic</text>
<text text-anchor="middle" x="310.5" y="-326.5" font-family="Helvetica,sans-Serif" font-size="10.00">_appender</text>
</a>
</g>
</g>
<!-- Node9&#45;&gt;Node10 -->
<g id="edge10_Node000009_Node000010" class="edge">
<title>Node9&#45;&gt;Node10</title>
<g id="a_edge10_Node000009_Node000010"><a xlink:title=" ">
<path fill="none" stroke="#63b8ff" d="M156.55,-245.18C173.9,-260.68 210.04,-291.3 245,-310.5 248.08,-312.19 251.3,-313.81 254.59,-315.35"/>
<polygon fill="#63b8ff" stroke="#63b8ff" points="253.43,-318.66 263.99,-319.48 256.24,-312.25 253.43,-318.66"/>
</a>
</g>
</g>
<!-- Node11 -->
<g id="Node000011" class="node">
<title>Node11</title>
<g id="a_Node000011"><a xlink:href="classbasic__string__view.html#a39cdfe061dc6d64a3adc230b62d8a026" target="_top" xlink:title=" ">
<polygon fill="white" stroke="#666666" points="376,-301 245,-301 245,-282 376,-282 376,-301"/>
<text text-anchor="middle" x="310.5" y="-289" font-family="Helvetica,sans-Serif" font-size="10.00">basic_string_view::data</text>
</a>
</g>
</g>
<!-- Node9&#45;&gt;Node11 -->
<g id="edge11_Node000009_Node000011" class="edge">
<title>Node9&#45;&gt;Node11</title>
<g id="a_edge11_Node000009_Node000011"><a xlink:title=" ">
<path fill="none" stroke="#63b8ff" d="M168.98,-245.03C188.9,-253.12 218.61,-264.77 245,-273.5 250.73,-275.39 256.78,-277.26 262.8,-279.03"/>
<polygon fill="#63b8ff" stroke="#63b8ff" points="262.24,-282.51 272.82,-281.91 264.18,-275.78 262.24,-282.51"/>
</a>
</g>
</g>
<!-- Node12 -->
<g id="Node000012" class="node">
<title>Node12</title>
<g id="a_Node000012"><a xlink:href="namespacedetail.html#a60a15c04518d5955ecfae225402491bb" target="_top" xlink:title=" ">
<polygon fill="white" stroke="#666666" points="352,-264 269,-264 269,-245 352,-245 352,-264"/>
<text text-anchor="middle" x="310.5" y="-252" font-family="Helvetica,sans-Serif" font-size="10.00">detail::equal2</text>
</a>
</g>
</g>
<!-- Node9&#45;&gt;Node12 -->
<g id="edge12_Node000009_Node000012" class="edge">
<title>Node9&#45;&gt;Node12</title>
<g id="a_edge12_Node000009_Node000012"><a xlink:title=" ">
<path fill="none" stroke="#63b8ff" d="M197.28,-241.46C216.9,-243.74 239.25,-246.34 258.81,-248.61"/>
<polygon fill="#63b8ff" stroke="#63b8ff" points="258.42,-252.09 268.76,-249.77 259.23,-245.13 258.42,-252.09"/>
</a>
</g>
</g>
<!-- Node13 -->
<g id="Node000013" class="node">
<title>Node13</title>
<g id="a_Node000013"><a xlink:href="classbasic__format__args.html#a3339d3a4e4daaf7bb0de1a8084e7f086" target="_top" xlink:title="Returns the argument with the specified id.">
<polygon fill="white" stroke="#666666" points="374.5,-227 246.5,-227 246.5,-208 374.5,-208 374.5,-227"/>
<text text-anchor="middle" x="310.5" y="-215" font-family="Helvetica,sans-Serif" font-size="10.00">basic_format_args::get</text>
</a>
</g>
</g>
<!-- Node9&#45;&gt;Node13 -->
<g id="edge13_Node000009_Node000013" class="edge">
<title>Node9&#45;&gt;Node13</title>
<g id="a_edge13_Node000009_Node000013"><a xlink:title=" ">
<path fill="none" stroke="#63b8ff" d="M197.28,-229.85C209.67,-228.49 223.15,-227.01 236.33,-225.56"/>
<polygon fill="#63b8ff" stroke="#63b8ff" points="236.76,-229.03 246.32,-224.46 236,-222.07 236.76,-229.03"/>
</a>
</g>
</g>
<!-- Node17 -->
<g id="Node000017" class="node">
<title>Node17</title>
<g id="a_Node000017"><a xlink:href="classparse__context.html#a9da9230b8f03bb6579efdcaae4b18003" target="_top" xlink:title=" ">
<polygon fill="white" stroke="#666666" points="370,-189.5 251,-189.5 251,-159.5 370,-159.5 370,-189.5"/>
<text text-anchor="start" x="259" y="-177.5" font-family="Helvetica,sans-Serif" font-size="10.00">parse_context::parse</text>
<text text-anchor="middle" x="310.5" y="-166.5" font-family="Helvetica,sans-Serif" font-size="10.00">_context</text>
</a>
</g>
</g>
<!-- Node9&#45;&gt;Node17 -->
<g id="edge18_Node000009_Node000017" class="edge">
<title>Node9&#45;&gt;Node17</title>
<g id="a_edge18_Node000009_Node000017"><a xlink:title=" ">
<path fill="none" stroke="#63b8ff" d="M171.64,-225.91C191.62,-218.43 220.07,-207.8 245,-198.5 249.71,-196.74 254.61,-194.92 259.51,-193.09"/>
<polygon fill="#63b8ff" stroke="#63b8ff" points="260.75,-196.37 268.9,-189.6 258.3,-189.81 260.75,-196.37"/>
</a>
</g>
</g>
<!-- Node18 -->
<g id="Node000018" class="node">
<title>Node18</title>
<g id="a_Node000018"><a xlink:href="namespacedetail.html#a90b356f92e340e20002ede151cfc6fab" target="_top" xlink:title=" ">
<polygon fill="white" stroke="#666666" points="368.5,-141.5 252.5,-141.5 252.5,-111.5 368.5,-111.5 368.5,-141.5"/>
<text text-anchor="start" x="260.5" y="-129.5" font-family="Helvetica,sans-Serif" font-size="10.00">detail::parse_format</text>
<text text-anchor="middle" x="310.5" y="-118.5" font-family="Helvetica,sans-Serif" font-size="10.00">_string</text>
</a>
</g>
</g>
<!-- Node9&#45;&gt;Node18 -->
<g id="edge19_Node000009_Node000018" class="edge">
<title>Node9&#45;&gt;Node18</title>
<g id="a_edge19_Node000009_Node000018"><a xlink:title=" ">
<path fill="none" stroke="#63b8ff" d="M154.96,-225.82C171.35,-208.6 207.93,-172.36 245,-150.5 247.78,-148.86 250.69,-147.3 253.67,-145.82"/>
<polygon fill="#63b8ff" stroke="#63b8ff" points="255.16,-148.99 262.78,-141.63 252.23,-142.63 255.16,-148.99"/>
</a>
</g>
</g>
<!-- Node19 -->
<g id="Node000019" class="node">
<title>Node19</title>
<g id="a_Node000019"><a xlink:href="classbasic__string__view.html#a216bbe1b012b590698d7bb4e96d1af3f" target="_top" xlink:title=" ">
<polygon fill="white" stroke="#666666" points="374.5,-93 246.5,-93 246.5,-74 374.5,-74 374.5,-93"/>
<text text-anchor="middle" x="310.5" y="-81" font-family="Helvetica,sans-Serif" font-size="10.00">basic_string_view::size</text>
</a>
</g>
</g>
<!-- Node9&#45;&gt;Node19 -->
<g id="edge20_Node000009_Node000019" class="edge">
<title>Node9&#45;&gt;Node19</title>
<g id="a_edge20_Node000009_Node000019"><a xlink:title=" ">
<path fill="none" stroke="#63b8ff" d="M150.46,-225.78C162.23,-201.23 196.59,-136.24 245,-102.5 247.86,-100.5 250.94,-98.71 254.14,-97.11"/>
<polygon fill="#63b8ff" stroke="#63b8ff" points="255.64,-100.28 263.4,-93.07 252.84,-93.86 255.64,-100.28"/>
</a>
</g>
</g>
<!-- Node14 -->
<g id="Node000014" class="node">
<title>Node14</title>
<g id="a_Node000014"><a xlink:href="classbasic__format__args.html#a812f954be08646744a14d71f20b97830" target="_top" xlink:title=" ">
<polygon fill="white" stroke="#666666" points="699.5,-254.5 586.5,-254.5 586.5,-224.5 699.5,-224.5 699.5,-254.5"/>
<text text-anchor="start" x="594.5" y="-242.5" font-family="Helvetica,sans-Serif" font-size="10.00">basic_format_args::</text>
<text text-anchor="middle" x="643" y="-231.5" font-family="Helvetica,sans-Serif" font-size="10.00">is_packed</text>
</a>
</g>
</g>
<!-- Node13&#45;&gt;Node14 -->
<g id="edge14_Node000013_Node000014" class="edge">
<title>Node13&#45;&gt;Node14</title>
<g id="a_edge14_Node000013_Node000014"><a xlink:title=" ">
<path fill="none" stroke="#63b8ff" d="M343.29,-227.11C362.89,-232.53 388.66,-238.75 412,-241.5 467.12,-247.99 530.18,-246.84 576.32,-244.44"/>
<polygon fill="#63b8ff" stroke="#63b8ff" points="576.69,-247.92 586.49,-243.88 576.31,-240.93 576.69,-247.92"/>
</a>
</g>
</g>
<!-- Node15 -->
<g id="Node000015" class="node">
<title>Node15</title>
<g id="a_Node000015"><a xlink:href="classbasic__format__args.html#a7747894fe7c14fb78260b53ca7702782" target="_top" xlink:title=" ">
<polygon fill="white" stroke="#666666" points="535.5,-232.5 422.5,-232.5 422.5,-202.5 535.5,-202.5 535.5,-232.5"/>
<text text-anchor="start" x="430.5" y="-220.5" font-family="Helvetica,sans-Serif" font-size="10.00">basic_format_args::</text>
<text text-anchor="middle" x="479" y="-209.5" font-family="Helvetica,sans-Serif" font-size="10.00">max_size</text>
</a>
</g>
</g>
<!-- Node13&#45;&gt;Node15 -->
<g id="edge15_Node000013_Node000015" class="edge">
<title>Node13&#45;&gt;Node15</title>
<g id="a_edge15_Node000013_Node000015"><a xlink:title=" ">
<path fill="none" stroke="#63b8ff" d="M374.92,-217.5C387.13,-217.5 399.94,-217.5 412.21,-217.5"/>
<polygon fill="#63b8ff" stroke="#63b8ff" points="412.38,-221 422.38,-217.5 412.38,-214 412.38,-221"/>
</a>
</g>
</g>
<!-- Node16 -->
<g id="Node000016" class="node">
<title>Node16</title>
<g id="a_Node000016"><a xlink:href="classbasic__format__args.html#a4d5e597c31ce51609d7fa770c83dad39" target="_top" xlink:title=" ">
<polygon fill="white" stroke="#666666" points="546,-184 412,-184 412,-165 546,-165 546,-184"/>
<text text-anchor="middle" x="479" y="-172" font-family="Helvetica,sans-Serif" font-size="10.00">basic_format_args::type</text>
</a>
</g>
</g>
<!-- Node13&#45;&gt;Node16 -->
<g id="edge17_Node000013_Node000016" class="edge">
<title>Node13&#45;&gt;Node16</title>
<g id="a_edge17_Node000013_Node000016"><a xlink:title=" ">
<path fill="none" stroke="#63b8ff" d="M348.45,-207.96C372.92,-201.64 405.21,-193.3 431.43,-186.53"/>
<polygon fill="#63b8ff" stroke="#63b8ff" points="432.34,-189.91 441.15,-184.02 430.59,-183.13 432.34,-189.91"/>
</a>
</g>
</g>
<!-- Node15&#45;&gt;Node14 -->
<g id="edge16_Node000015_Node000014" class="edge">
<title>Node15&#45;&gt;Node14</title>
<g id="a_edge16_Node000015_Node000014"><a xlink:title=" ">
<path fill="none" stroke="#63b8ff" d="M535.75,-225.07C548.81,-226.84 562.83,-228.75 576.28,-230.57"/>
<polygon fill="#63b8ff" stroke="#63b8ff" points="576.04,-234.07 586.42,-231.95 576.98,-227.14 576.04,-234.07"/>
</a>
</g>
</g>
<!-- Node21 -->
<g id="Node000021" class="node">
<title>Node21</title>
<g id="a_Node000021"><a xlink:href="namespacedetail.html#a45c2130c44ebe54179eafcee3cda2bfb" target="_top" xlink:title=" ">
<polygon fill="white" stroke="#666666" points="362.5,-56 258.5,-56 258.5,-37 362.5,-37 362.5,-56"/>
<text text-anchor="middle" x="310.5" y="-44" font-family="Helvetica,sans-Serif" font-size="10.00">detail::max_value</text>
</a>
</g>
</g>
<!-- Node20&#45;&gt;Node21 -->
<g id="edge22_Node000020_Node000021" class="edge">
<title>Node20&#45;&gt;Node21</title>
<g id="a_edge22_Node000020_Node000021"><a xlink:title=" ">
<path fill="none" stroke="#63b8ff" d="M199.54,-46.5C215.04,-46.5 232.1,-46.5 248.05,-46.5"/>
<polygon fill="#63b8ff" stroke="#63b8ff" points="248.35,-50 258.35,-46.5 248.35,-43 248.35,-50"/>
</a>
</g>
</g>
<!-- Node22 -->
<g id="Node000022" class="node">
<title>Node22</title>
<g id="a_Node000022"><a xlink:href="namespacedetail.html#a4855e668246c731a97484efc329f2aac" target="_top" xlink:title=" ">
<polygon fill="white" stroke="#666666" points="365.5,-19 255.5,-19 255.5,0 365.5,0 365.5,-19"/>
<text text-anchor="middle" x="310.5" y="-7" font-family="Helvetica,sans-Serif" font-size="10.00">detail::to_unsigned</text>
</a>
</g>
</g>
<!-- Node20&#45;&gt;Node22 -->
<g id="edge23_Node000020_Node000022" class="edge">
<title>Node20&#45;&gt;Node22</title>
<g id="a_edge23_Node000020_Node000022"><a xlink:title=" ">
<path fill="none" stroke="#63b8ff" d="M188.11,-36.97C209.19,-32.2 234.92,-26.38 257.26,-21.32"/>
<polygon fill="#63b8ff" stroke="#63b8ff" points="258.27,-24.68 267.25,-19.06 256.73,-17.85 258.27,-24.68"/>
</a>
</g>
</g>
</g>
</svg>
