<?xml version="1.0" encoding="UTF-8" standalone="no"?>
<!DOCTYPE svg PUBLIC "-//W3C//DTD SVG 1.1//EN"
 "http://www.w3.org/Graphics/SVG/1.1/DTD/svg11.dtd">
<!-- Generated by graphviz version 2.43.0 (0)
 -->
<!-- Title: /usr/include/GraphicsMagick/wand/pixel_wand.h Pages: 1 -->
<svg width="332pt" height="291pt"
 viewBox="0.00 0.00 332.00 291.00" xmlns="http://www.w3.org/2000/svg" xmlns:xlink="http://www.w3.org/1999/xlink">
<g id="graph0" class="graph" transform="scale(1 1) rotate(0) translate(4 287)">
<title>/usr/include/GraphicsMagick/wand/pixel_wand.h</title>
<!-- Node1 -->
<g id="Node000001" class="node">
<title>Node1</title>
<g id="a_Node000001"><a xlink:title=" ">
<polygon fill="#999999" stroke="#666666" points="188,-283 34,-283 34,-253 188,-253 188,-283"/>
<text text-anchor="start" x="42" y="-271" font-family="Helvetica,sans-Serif" font-size="10.00">/usr/include/GraphicsMagick</text>
<text text-anchor="middle" x="111" y="-260" font-family="Helvetica,sans-Serif" font-size="10.00">/wand/pixel_wand.h</text>
</a>
</g>
</g>
<!-- Node2 -->
<g id="Node000002" class="node">
<title>Node2</title>
<g id="a_Node000002"><a xlink:href="drawing__wand_8h.html" target="_top" xlink:title=" ">
<polygon fill="white" stroke="#666666" points="188,-217 34,-217 34,-187 188,-187 188,-217"/>
<text text-anchor="start" x="42" y="-205" font-family="Helvetica,sans-Serif" font-size="10.00">/usr/include/GraphicsMagick</text>
<text text-anchor="middle" x="111" y="-194" font-family="Helvetica,sans-Serif" font-size="10.00">/wand/drawing_wand.h</text>
</a>
</g>
</g>
<!-- Node1&#45;&gt;Node2 -->
<g id="edge1_Node000001_Node000002" class="edge">
<title>Node1&#45;&gt;Node2</title>
<g id="a_edge1_Node000001_Node000002"><a xlink:title=" ">
<path fill="none" stroke="#63b8ff" d="M111,-242.54C111,-233.96 111,-224.61 111,-217.16"/>
<polygon fill="#63b8ff" stroke="#63b8ff" points="107.5,-242.8 111,-252.8 114.5,-242.8 107.5,-242.8"/>
</a>
</g>
</g>
<!-- Node3 -->
<g id="Node000003" class="node">
<title>Node3</title>
<g id="a_Node000003"><a xlink:href="magick__wand_8h.html" target="_top" xlink:title=" ">
<polygon fill="white" stroke="#666666" points="259,-151 105,-151 105,-121 259,-121 259,-151"/>
<text text-anchor="start" x="113" y="-139" font-family="Helvetica,sans-Serif" font-size="10.00">/usr/include/GraphicsMagick</text>
<text text-anchor="middle" x="182" y="-128" font-family="Helvetica,sans-Serif" font-size="10.00">/wand/magick_wand.h</text>
</a>
</g>
</g>
<!-- Node1&#45;&gt;Node3 -->
<g id="edge8_Node000001_Node000003" class="edge">
<title>Node1&#45;&gt;Node3</title>
<g id="a_edge8_Node000001_Node000003"><a xlink:title=" ">
<path fill="none" stroke="#63b8ff" d="M162.7,-248.25C176.25,-240.71 189.23,-230.51 197,-217 208.91,-196.3 198.56,-168.07 190.15,-151.27"/>
<polygon fill="#63b8ff" stroke="#63b8ff" points="161.07,-245.15 153.77,-252.83 164.26,-251.38 161.07,-245.15"/>
</a>
</g>
</g>
<!-- Node4 -->
<g id="Node000004" class="node">
<title>Node4</title>
<g id="a_Node000004"><a xlink:href="wand__api_8h.html" target="_top" xlink:title=" ">
<polygon fill="white" stroke="#666666" points="154,-85 0,-85 0,-55 154,-55 154,-85"/>
<text text-anchor="start" x="8" y="-73" font-family="Helvetica,sans-Serif" font-size="10.00">/usr/include/GraphicsMagick</text>
<text text-anchor="middle" x="77" y="-62" font-family="Helvetica,sans-Serif" font-size="10.00">/wand/wand_api.h</text>
</a>
</g>
</g>
<!-- Node1&#45;&gt;Node4 -->
<g id="edge9_Node000001_Node000004" class="edge">
<title>Node1&#45;&gt;Node4</title>
<g id="a_edge9_Node000001_Node000004"><a xlink:title=" ">
<path fill="none" stroke="#63b8ff" d="M59.3,-248.25C45.75,-240.71 32.77,-230.51 25,-217 -0.76,-172.22 41.37,-112.49 64.04,-85.42"/>
<polygon fill="#63b8ff" stroke="#63b8ff" points="57.74,-251.38 68.23,-252.83 60.93,-245.15 57.74,-251.38"/>
</a>
</g>
</g>
<!-- Node2&#45;&gt;Node3 -->
<g id="edge2_Node000002_Node000003" class="edge">
<title>Node2&#45;&gt;Node3</title>
<g id="a_edge2_Node000002_Node000003"><a xlink:title=" ">
<path fill="none" stroke="#63b8ff" d="M134.38,-179.92C144.85,-170.49 156.92,-159.61 166.29,-151.16"/>
<polygon fill="#63b8ff" stroke="#63b8ff" points="131.84,-177.5 126.76,-186.8 136.53,-182.7 131.84,-177.5"/>
</a>
</g>
</g>
<!-- Node2&#45;&gt;Node4 -->
<g id="edge7_Node000002_Node000004" class="edge">
<title>Node2&#45;&gt;Node4</title>
<g id="a_edge7_Node000002_Node000004"><a xlink:title=" ">
<path fill="none" stroke="#63b8ff" d="M103.47,-176.93C100.99,-168.73 98.28,-159.49 96,-151 89.85,-128.11 83.69,-101.27 80.12,-85.22"/>
<polygon fill="#63b8ff" stroke="#63b8ff" points="100.16,-178.09 106.44,-186.62 106.86,-176.04 100.16,-178.09"/>
</a>
</g>
</g>
<!-- Node3&#45;&gt;Node4 -->
<g id="edge3_Node000003_Node000004" class="edge">
<title>Node3&#45;&gt;Node4</title>
<g id="a_edge3_Node000003_Node000004"><a xlink:title=" ">
<path fill="none" stroke="#63b8ff" d="M150.33,-115.69C134.12,-105.82 114.75,-94.01 99.99,-85.01"/>
<polygon fill="#63b8ff" stroke="#63b8ff" points="148.6,-118.74 158.96,-120.95 152.24,-112.76 148.6,-118.74"/>
</a>
</g>
</g>
<!-- Node5 -->
<g id="Node000005" class="node">
<title>Node5</title>
<g id="a_Node000005"><a xlink:href="chronos_8hpp.html" target="_top" xlink:title=" ">
<polygon fill="white" stroke="#666666" points="324,-79.5 210,-79.5 210,-60.5 324,-60.5 324,-79.5"/>
<text text-anchor="middle" x="267" y="-67.5" font-family="Helvetica,sans-Serif" font-size="10.00">include/chronos.hpp</text>
</a>
</g>
</g>
<!-- Node3&#45;&gt;Node5 -->
<g id="edge4_Node000003_Node000005" class="edge">
<title>Node3&#45;&gt;Node5</title>
<g id="a_edge4_Node000003_Node000005"><a xlink:title=" ">
<path fill="none" stroke="#63b8ff" d="M209.11,-114.58C224.67,-102.87 243.4,-88.77 255.25,-79.84"/>
<polygon fill="#63b8ff" stroke="#63b8ff" points="206.75,-111.99 200.86,-120.8 210.96,-117.58 206.75,-111.99"/>
</a>
</g>
</g>
<!-- Node6 -->
<g id="Node000006" class="node">
<title>Node6</title>
<g id="a_Node000006"><a xlink:href="chronos_8cpp.html" target="_top" xlink:title=" ">
<polygon fill="white" stroke="#666666" points="270,-19 178,-19 178,0 270,0 270,-19"/>
<text text-anchor="middle" x="224" y="-7" font-family="Helvetica,sans-Serif" font-size="10.00">src/chronos.cpp</text>
</a>
</g>
</g>
<!-- Node3&#45;&gt;Node6 -->
<g id="edge6_Node000003_Node000006" class="edge">
<title>Node3&#45;&gt;Node6</title>
<g id="a_edge6_Node000003_Node000006"><a xlink:title=" ">
<path fill="none" stroke="#63b8ff" d="M186.18,-110.63C189.33,-94.54 194.27,-73.16 201,-55 205.84,-41.95 213.61,-27.83 218.76,-19.08"/>
<polygon fill="#63b8ff" stroke="#63b8ff" points="182.68,-110.35 184.29,-120.82 189.56,-111.63 182.68,-110.35"/>
</a>
</g>
</g>
<!-- Node5&#45;&gt;Node6 -->
<g id="edge5_Node000005_Node000006" class="edge">
<title>Node5&#45;&gt;Node6</title>
<g id="a_edge5_Node000005_Node000006"><a xlink:title=" ">
<path fill="none" stroke="#63b8ff" d="M254.6,-52.13C246.68,-41.35 236.73,-27.82 230.37,-19.17"/>
<polygon fill="#63b8ff" stroke="#63b8ff" points="251.91,-54.38 260.66,-60.37 257.55,-50.24 251.91,-54.38"/>
</a>
</g>
</g>
</g>
</svg>
