<?xml version="1.0" encoding="UTF-8" standalone="no"?>
<!DOCTYPE svg PUBLIC "-//W3C//DTD SVG 1.1//EN"
 "http://www.w3.org/Graphics/SVG/1.1/DTD/svg11.dtd">
<!-- Generated by graphviz version 2.43.0 (0)
 -->
<!-- Title: thirdparty/fmt/include/fmt/ranges.h Pages: 1 -->
<svg width="894pt" height="203pt"
 viewBox="0.00 0.00 894.00 203.00" xmlns="http://www.w3.org/2000/svg" xmlns:xlink="http://www.w3.org/1999/xlink">
<g id="graph0" class="graph" transform="scale(1 1) rotate(0) translate(4 199)">
<title>thirdparty/fmt/include/fmt/ranges.h</title>
<!-- Node1 -->
<g id="Node000001" class="node">
<title>Node1</title>
<g id="a_Node000001"><a xlink:title=" ">
<polygon fill="#999999" stroke="#666666" points="278,-195 155,-195 155,-165 278,-165 278,-195"/>
<text text-anchor="start" x="163" y="-183" font-family="Helvetica,sans-Serif" font-size="10.00">thirdparty/fmt/include</text>
<text text-anchor="middle" x="216.5" y="-172" font-family="Helvetica,sans-Serif" font-size="10.00">/fmt/ranges.h</text>
</a>
</g>
</g>
<!-- Node2 -->
<g id="Node000002" class="node">
<title>Node2</title>
<g id="a_Node000002"><a xlink:title=" ">
<polygon fill="#e0e0e0" stroke="#999999" points="83,-129 0,-129 0,-110 83,-110 83,-129"/>
<text text-anchor="middle" x="41.5" y="-117" font-family="Helvetica,sans-Serif" font-size="10.00">initializer_list</text>
</a>
</g>
</g>
<!-- Node1&#45;&gt;Node2 -->
<g id="edge1_Node000001_Node000002" class="edge">
<title>Node1&#45;&gt;Node2</title>
<g id="a_edge1_Node000001_Node000002"><a xlink:title=" ">
<path fill="none" stroke="#63b8ff" d="M174.58,-164.99C144.77,-155.02 105.17,-141.78 76.94,-132.35"/>
<polygon fill="#63b8ff" stroke="#63b8ff" points="77.68,-128.9 67.09,-129.05 75.46,-135.54 77.68,-128.9"/>
</a>
</g>
</g>
<!-- Node3 -->
<g id="Node000003" class="node">
<title>Node3</title>
<g id="a_Node000003"><a xlink:title=" ">
<polygon fill="#e0e0e0" stroke="#999999" points="154,-129 101,-129 101,-110 154,-110 154,-129"/>
<text text-anchor="middle" x="127.5" y="-117" font-family="Helvetica,sans-Serif" font-size="10.00">iterator</text>
</a>
</g>
</g>
<!-- Node1&#45;&gt;Node3 -->
<g id="edge2_Node000001_Node000003" class="edge">
<title>Node1&#45;&gt;Node3</title>
<g id="a_edge2_Node000001_Node000003"><a xlink:title=" ">
<path fill="none" stroke="#63b8ff" d="M194.96,-164.84C181.03,-155.68 162.97,-143.82 149.05,-134.66"/>
<polygon fill="#63b8ff" stroke="#63b8ff" points="150.85,-131.66 140.58,-129.09 147.01,-137.51 150.85,-131.66"/>
</a>
</g>
</g>
<!-- Node4 -->
<g id="Node000004" class="node">
<title>Node4</title>
<g id="a_Node000004"><a xlink:title=" ">
<polygon fill="#e0e0e0" stroke="#999999" points="213,-129 172,-129 172,-110 213,-110 213,-129"/>
<text text-anchor="middle" x="192.5" y="-117" font-family="Helvetica,sans-Serif" font-size="10.00">tuple</text>
</a>
</g>
</g>
<!-- Node1&#45;&gt;Node4 -->
<g id="edge3_Node000001_Node000004" class="edge">
<title>Node1&#45;&gt;Node4</title>
<g id="a_edge3_Node000001_Node000004"><a xlink:title=" ">
<path fill="none" stroke="#63b8ff" d="M210.69,-164.84C207.46,-156.95 203.39,-147.05 199.93,-138.61"/>
<polygon fill="#63b8ff" stroke="#63b8ff" points="203.13,-137.19 196.1,-129.27 196.65,-139.85 203.13,-137.19"/>
</a>
</g>
</g>
<!-- Node5 -->
<g id="Node000005" class="node">
<title>Node5</title>
<g id="a_Node000005"><a xlink:title=" ">
<polygon fill="#e0e0e0" stroke="#999999" points="228,-19 159,-19 159,0 228,0 228,-19"/>
<text text-anchor="middle" x="193.5" y="-7" font-family="Helvetica,sans-Serif" font-size="10.00">type_traits</text>
</a>
</g>
</g>
<!-- Node1&#45;&gt;Node5 -->
<g id="edge4_Node000001_Node000005" class="edge">
<title>Node1&#45;&gt;Node5</title>
<g id="a_edge4_Node000001_Node000005"><a xlink:title=" ">
<path fill="none" stroke="#63b8ff" d="M218.33,-164.59C219.49,-154.61 220.9,-141.02 221.5,-129 221.92,-120.57 222.65,-118.37 221.5,-110 217.48,-80.9 207.16,-48.34 200.23,-28.63"/>
<polygon fill="#63b8ff" stroke="#63b8ff" points="203.48,-27.33 196.79,-19.11 196.9,-29.71 203.48,-27.33"/>
</a>
</g>
</g>
<!-- Node6 -->
<g id="Node000006" class="node">
<title>Node6</title>
<g id="a_Node000006"><a xlink:title=" ">
<polygon fill="#e0e0e0" stroke="#999999" points="315,-129 270,-129 270,-110 315,-110 315,-129"/>
<text text-anchor="middle" x="292.5" y="-117" font-family="Helvetica,sans-Serif" font-size="10.00">utility</text>
</a>
</g>
</g>
<!-- Node1&#45;&gt;Node6 -->
<g id="edge5_Node000001_Node000006" class="edge">
<title>Node1&#45;&gt;Node6</title>
<g id="a_edge5_Node000001_Node000006"><a xlink:title=" ">
<path fill="none" stroke="#63b8ff" d="M234.9,-164.84C246.38,-156 261.15,-144.63 272.86,-135.62"/>
<polygon fill="#63b8ff" stroke="#63b8ff" points="275.32,-138.14 281.11,-129.27 271.05,-132.59 275.32,-138.14"/>
</a>
</g>
</g>
<!-- Node7 -->
<g id="Node000007" class="node">
<title>Node7</title>
<g id="a_Node000007"><a xlink:href="format_8h.html" target="_top" xlink:title=" ">
<polygon fill="white" stroke="#666666" points="550,-129 491,-129 491,-110 550,-110 550,-129"/>
<text text-anchor="middle" x="520.5" y="-117" font-family="Helvetica,sans-Serif" font-size="10.00">format.h</text>
</a>
</g>
</g>
<!-- Node1&#45;&gt;Node7 -->
<g id="edge6_Node000001_Node000007" class="edge">
<title>Node1&#45;&gt;Node7</title>
<g id="a_edge6_Node000001_Node000007"><a xlink:title=" ">
<path fill="none" stroke="#63b8ff" d="M278.02,-167.16C338.56,-155.51 429.22,-138.07 480.81,-128.14"/>
<polygon fill="#63b8ff" stroke="#63b8ff" points="481.74,-131.52 490.9,-126.2 480.42,-124.65 481.74,-131.52"/>
</a>
</g>
</g>
<!-- Node8 -->
<g id="Node000008" class="node">
<title>Node8</title>
<g id="a_Node000008"><a xlink:href="base_8h.html" target="_top" xlink:title=" ">
<polygon fill="white" stroke="#666666" points="332,-74 283,-74 283,-55 332,-55 332,-74"/>
<text text-anchor="middle" x="307.5" y="-62" font-family="Helvetica,sans-Serif" font-size="10.00">base.h</text>
</a>
</g>
</g>
<!-- Node7&#45;&gt;Node8 -->
<g id="edge7_Node000007_Node000008" class="edge">
<title>Node7&#45;&gt;Node8</title>
<g id="a_edge7_Node000007_Node000008"><a xlink:title=" ">
<path fill="none" stroke="#63b8ff" d="M490.88,-111.13C451.89,-101.43 383.46,-84.4 342.12,-74.12"/>
<polygon fill="#63b8ff" stroke="#63b8ff" points="342.78,-70.67 332.23,-71.65 341.09,-77.47 342.78,-70.67"/>
</a>
</g>
</g>
<!-- Node11 -->
<g id="Node000011" class="node">
<title>Node11</title>
<g id="a_Node000011"><a xlink:title=" ">
<polygon fill="#e0e0e0" stroke="#999999" points="439,-19 386,-19 386,0 439,0 439,-19"/>
<text text-anchor="middle" x="412.5" y="-7" font-family="Helvetica,sans-Serif" font-size="10.00">string.h</text>
</a>
</g>
</g>
<!-- Node7&#45;&gt;Node11 -->
<g id="edge14_Node000007_Node000011" class="edge">
<title>Node7&#45;&gt;Node11</title>
<g id="a_edge14_Node000007_Node000011"><a xlink:title=" ">
<path fill="none" stroke="#63b8ff" d="M490.71,-118.66C457.44,-117.03 404.92,-108.68 379.5,-74 368.45,-58.92 381.79,-39.63 394.67,-26.29"/>
<polygon fill="#63b8ff" stroke="#63b8ff" points="397.25,-28.66 402.01,-19.2 392.38,-23.63 397.25,-28.66"/>
</a>
</g>
</g>
<!-- Node12 -->
<g id="Node000012" class="node">
<title>Node12</title>
<g id="a_Node000012"><a xlink:title=" ">
<polygon fill="#e0e0e0" stroke="#999999" points="442,-74 389,-74 389,-55 442,-55 442,-74"/>
<text text-anchor="middle" x="415.5" y="-62" font-family="Helvetica,sans-Serif" font-size="10.00">stdint.h</text>
</a>
</g>
</g>
<!-- Node7&#45;&gt;Node12 -->
<g id="edge12_Node000007_Node000012" class="edge">
<title>Node7&#45;&gt;Node12</title>
<g id="a_edge12_Node000007_Node000012"><a xlink:title=" ">
<path fill="none" stroke="#63b8ff" d="M503.63,-109.98C486.89,-101.54 461,-88.47 441.61,-78.68"/>
<polygon fill="#63b8ff" stroke="#63b8ff" points="443.18,-75.55 432.68,-74.17 440.03,-81.8 443.18,-75.55"/>
</a>
</g>
</g>
<!-- Node13 -->
<g id="Node000013" class="node">
<title>Node13</title>
<g id="a_Node000013"><a xlink:title=" ">
<polygon fill="#e0e0e0" stroke="#999999" points="513,-74 460,-74 460,-55 513,-55 513,-74"/>
<text text-anchor="middle" x="486.5" y="-62" font-family="Helvetica,sans-Serif" font-size="10.00">stdlib.h</text>
</a>
</g>
</g>
<!-- Node7&#45;&gt;Node13 -->
<g id="edge13_Node000007_Node000013" class="edge">
<title>Node7&#45;&gt;Node13</title>
<g id="a_edge13_Node000007_Node000013"><a xlink:title=" ">
<path fill="none" stroke="#63b8ff" d="M514.89,-109.75C510.18,-102.42 503.33,-91.73 497.53,-82.7"/>
<polygon fill="#63b8ff" stroke="#63b8ff" points="500.36,-80.62 492.01,-74.09 494.46,-84.4 500.36,-80.62"/>
</a>
</g>
</g>
<!-- Node14 -->
<g id="Node000014" class="node">
<title>Node14</title>
<g id="a_Node000014"><a xlink:title=" ">
<polygon fill="#e0e0e0" stroke="#999999" points="578,-74 531,-74 531,-55 578,-55 578,-74"/>
<text text-anchor="middle" x="554.5" y="-62" font-family="Helvetica,sans-Serif" font-size="10.00">cmath</text>
</a>
</g>
</g>
<!-- Node7&#45;&gt;Node14 -->
<g id="edge15_Node000007_Node000014" class="edge">
<title>Node7&#45;&gt;Node14</title>
<g id="a_edge15_Node000007_Node000014"><a xlink:title=" ">
<path fill="none" stroke="#63b8ff" d="M526.11,-109.75C530.82,-102.42 537.67,-91.73 543.47,-82.7"/>
<polygon fill="#63b8ff" stroke="#63b8ff" points="546.54,-84.4 548.99,-74.09 540.64,-80.62 546.54,-84.4"/>
</a>
</g>
</g>
<!-- Node15 -->
<g id="Node000015" class="node">
<title>Node15</title>
<g id="a_Node000015"><a xlink:title=" ">
<polygon fill="#e0e0e0" stroke="#999999" points="640.5,-74 596.5,-74 596.5,-55 640.5,-55 640.5,-74"/>
<text text-anchor="middle" x="618.5" y="-62" font-family="Helvetica,sans-Serif" font-size="10.00">limits</text>
</a>
</g>
</g>
<!-- Node7&#45;&gt;Node15 -->
<g id="edge16_Node000007_Node000015" class="edge">
<title>Node7&#45;&gt;Node15</title>
<g id="a_edge16_Node000007_Node000015"><a xlink:title=" ">
<path fill="none" stroke="#63b8ff" d="M536.25,-109.98C551.73,-101.61 575.59,-88.7 593.64,-78.95"/>
<polygon fill="#63b8ff" stroke="#63b8ff" points="595.34,-82.01 602.47,-74.17 592.01,-75.85 595.34,-82.01"/>
</a>
</g>
</g>
<!-- Node16 -->
<g id="Node000016" class="node">
<title>Node16</title>
<g id="a_Node000016"><a xlink:title=" ">
<polygon fill="#e0e0e0" stroke="#999999" points="724,-74 659,-74 659,-55 724,-55 724,-74"/>
<text text-anchor="middle" x="691.5" y="-62" font-family="Helvetica,sans-Serif" font-size="10.00">stdexcept</text>
</a>
</g>
</g>
<!-- Node7&#45;&gt;Node16 -->
<g id="edge17_Node000007_Node000016" class="edge">
<title>Node7&#45;&gt;Node16</title>
<g id="a_edge17_Node000007_Node000016"><a xlink:title=" ">
<path fill="none" stroke="#63b8ff" d="M547.97,-109.98C576.68,-101.09 621.92,-87.07 653.92,-77.15"/>
<polygon fill="#63b8ff" stroke="#63b8ff" points="655.3,-80.39 663.81,-74.08 653.22,-73.7 655.3,-80.39"/>
</a>
</g>
</g>
<!-- Node17 -->
<g id="Node000017" class="node">
<title>Node17</title>
<g id="a_Node000017"><a xlink:title=" ">
<polygon fill="#e0e0e0" stroke="#999999" points="786.5,-74 742.5,-74 742.5,-55 786.5,-55 786.5,-74"/>
<text text-anchor="middle" x="764.5" y="-62" font-family="Helvetica,sans-Serif" font-size="10.00">string</text>
</a>
</g>
</g>
<!-- Node7&#45;&gt;Node17 -->
<g id="edge18_Node000007_Node000017" class="edge">
<title>Node7&#45;&gt;Node17</title>
<g id="a_edge18_Node000007_Node000017"><a xlink:title=" ">
<path fill="none" stroke="#63b8ff" d="M550.26,-112.88C589.7,-105.31 661.66,-91.04 732.24,-74.19"/>
<polygon fill="#63b8ff" stroke="#63b8ff" points="733.29,-77.54 742.19,-71.79 731.65,-70.73 733.29,-77.54"/>
</a>
</g>
</g>
<!-- Node18 -->
<g id="Node000018" class="node">
<title>Node18</title>
<g id="a_Node000018"><a xlink:title=" ">
<polygon fill="#e0e0e0" stroke="#999999" points="886,-74 805,-74 805,-55 886,-55 886,-74"/>
<text text-anchor="middle" x="845.5" y="-62" font-family="Helvetica,sans-Serif" font-size="10.00">system_error</text>
</a>
</g>
</g>
<!-- Node7&#45;&gt;Node18 -->
<g id="edge19_Node000007_Node000018" class="edge">
<title>Node7&#45;&gt;Node18</title>
<g id="a_edge19_Node000007_Node000018"><a xlink:title=" ">
<path fill="none" stroke="#63b8ff" d="M550.22,-113.77C598.94,-106 699.12,-89.95 794.72,-74.12"/>
<polygon fill="#63b8ff" stroke="#63b8ff" points="795.55,-77.53 804.85,-72.44 794.41,-70.62 795.55,-77.53"/>
</a>
</g>
</g>
<!-- Node8&#45;&gt;Node5 -->
<g id="edge11_Node000008_Node000005" class="edge">
<title>Node8&#45;&gt;Node5</title>
<g id="a_edge11_Node000008_Node000005"><a xlink:title=" ">
<path fill="none" stroke="#63b8ff" d="M289.18,-54.98C270.84,-46.46 242.39,-33.23 221.27,-23.41"/>
<polygon fill="#63b8ff" stroke="#63b8ff" points="222.69,-20.21 212.15,-19.17 219.74,-26.56 222.69,-20.21"/>
</a>
</g>
</g>
<!-- Node9 -->
<g id="Node000009" class="node">
<title>Node9</title>
<g id="a_Node000009"><a xlink:title=" ">
<polygon fill="#e0e0e0" stroke="#999999" points="299,-19 246,-19 246,0 299,0 299,-19"/>
<text text-anchor="middle" x="272.5" y="-7" font-family="Helvetica,sans-Serif" font-size="10.00">limits.h</text>
</a>
</g>
</g>
<!-- Node8&#45;&gt;Node9 -->
<g id="edge8_Node000008_Node000009" class="edge">
<title>Node8&#45;&gt;Node9</title>
<g id="a_edge8_Node000008_Node000009"><a xlink:title=" ">
<path fill="none" stroke="#63b8ff" d="M301.72,-54.75C296.88,-47.42 289.82,-36.73 283.86,-27.7"/>
<polygon fill="#63b8ff" stroke="#63b8ff" points="286.6,-25.5 278.17,-19.09 280.76,-29.36 286.6,-25.5"/>
</a>
</g>
</g>
<!-- Node10 -->
<g id="Node000010" class="node">
<title>Node10</title>
<g id="a_Node000010"><a xlink:title=" ">
<polygon fill="#e0e0e0" stroke="#999999" points="367.5,-19 317.5,-19 317.5,0 367.5,0 367.5,-19"/>
<text text-anchor="middle" x="342.5" y="-7" font-family="Helvetica,sans-Serif" font-size="10.00">stdio.h</text>
</a>
</g>
</g>
<!-- Node8&#45;&gt;Node10 -->
<g id="edge9_Node000008_Node000010" class="edge">
<title>Node8&#45;&gt;Node10</title>
<g id="a_edge9_Node000008_Node000010"><a xlink:title=" ">
<path fill="none" stroke="#63b8ff" d="M313.28,-54.75C318.12,-47.42 325.18,-36.73 331.14,-27.7"/>
<polygon fill="#63b8ff" stroke="#63b8ff" points="334.24,-29.36 336.83,-19.09 328.4,-25.5 334.24,-29.36"/>
</a>
</g>
</g>
<!-- Node8&#45;&gt;Node11 -->
<g id="edge10_Node000008_Node000011" class="edge">
<title>Node8&#45;&gt;Node11</title>
<g id="a_edge10_Node000008_Node000011"><a xlink:title=" ">
<path fill="none" stroke="#63b8ff" d="M324.37,-54.98C341.11,-46.54 367,-33.47 386.39,-23.68"/>
<polygon fill="#63b8ff" stroke="#63b8ff" points="387.97,-26.8 395.32,-19.17 384.82,-20.55 387.97,-26.8"/>
</a>
</g>
</g>
</g>
</svg>
