<?xml version="1.0" encoding="UTF-8" standalone="no"?>
<!DOCTYPE svg PUBLIC "-//W3C//DTD SVG 1.1//EN"
 "http://www.w3.org/Graphics/SVG/1.1/DTD/svg11.dtd">
<!-- Generated by graphviz version 2.43.0 (0)
 -->
<!-- Title: thirdparty/RadioLib/include/RadioLib/modules/RFM2x/RFM23.h Pages: 1 -->
<svg width="451pt" height="500pt"
 viewBox="0.00 0.00 450.50 500.00" xmlns="http://www.w3.org/2000/svg" xmlns:xlink="http://www.w3.org/1999/xlink">
<g id="graph0" class="graph" transform="scale(1 1) rotate(0) translate(4 496)">
<title>thirdparty/RadioLib/include/RadioLib/modules/RFM2x/RFM23.h</title>
<!-- Node1 -->
<g id="Node000001" class="node">
<title>Node1</title>
<g id="a_Node000001"><a xlink:title=" ">
<polygon fill="#999999" stroke="#666666" points="442.5,-492 297.5,-492 297.5,-451 442.5,-451 442.5,-492"/>
<text text-anchor="start" x="305.5" y="-480" font-family="Helvetica,sans-Serif" font-size="10.00">thirdparty/RadioLib</text>
<text text-anchor="start" x="305.5" y="-469" font-family="Helvetica,sans-Serif" font-size="10.00">/include/RadioLib/modules</text>
<text text-anchor="middle" x="370" y="-458" font-family="Helvetica,sans-Serif" font-size="10.00">/RFM2x/RFM23.h</text>
</a>
</g>
</g>
<!-- Node2 -->
<g id="Node000002" class="node">
<title>Node2</title>
<g id="a_Node000002"><a xlink:href="TypeDef_8h.html" target="_top" xlink:title=" ">
<polygon fill="white" stroke="#666666" points="315.5,-129 232.5,-129 232.5,-110 315.5,-110 315.5,-129"/>
<text text-anchor="middle" x="274" y="-117" font-family="Helvetica,sans-Serif" font-size="10.00">../../TypeDef.h</text>
</a>
</g>
</g>
<!-- Node1&#45;&gt;Node2 -->
<g id="edge1_Node000001_Node000002" class="edge">
<title>Node1&#45;&gt;Node2</title>
<g id="a_edge1_Node000001_Node000002"><a xlink:title=" ">
<path fill="none" stroke="#63b8ff" d="M390.62,-450.67C411.27,-428.59 440,-390.81 440,-351.5 440,-351.5 440,-351.5 440,-234 440,-176.84 372.11,-146.37 323.16,-131.83"/>
<polygon fill="#63b8ff" stroke="#63b8ff" points="323.92,-128.41 313.34,-129.05 322.01,-135.14 323.92,-128.41"/>
</a>
</g>
</g>
<!-- Node7 -->
<g id="Node000007" class="node">
<title>Node7</title>
<g id="a_Node000007"><a xlink:href="Module_8h.html" target="_top" xlink:title=" ">
<polygon fill="white" stroke="#666666" points="124,-184 44,-184 44,-165 124,-165 124,-184"/>
<text text-anchor="middle" x="84" y="-172" font-family="Helvetica,sans-Serif" font-size="10.00">../../Module.h</text>
</a>
</g>
</g>
<!-- Node1&#45;&gt;Node7 -->
<g id="edge7_Node000001_Node000007" class="edge">
<title>Node1&#45;&gt;Node7</title>
<g id="a_edge7_Node000001_Node000007"><a xlink:title=" ">
<path fill="none" stroke="#63b8ff" d="M297.49,-459.93C198.17,-443.38 32,-407.33 32,-351.5 32,-351.5 32,-351.5 32,-294.5 32,-255.44 55.82,-214.75 71.21,-192.52"/>
<polygon fill="#63b8ff" stroke="#63b8ff" points="74.21,-194.35 77.2,-184.18 68.52,-190.26 74.21,-194.35"/>
</a>
</g>
</g>
<!-- Node12 -->
<g id="Node000012" class="node">
<title>Node12</title>
<g id="a_Node000012"><a xlink:href="Si443x_8h.html" target="_top" xlink:title=" ">
<polygon fill="white" stroke="#666666" points="326,-305 222,-305 222,-286 326,-286 326,-305"/>
<text text-anchor="middle" x="274" y="-293" font-family="Helvetica,sans-Serif" font-size="10.00">../Si443x/Si443x.h</text>
</a>
</g>
</g>
<!-- Node1&#45;&gt;Node12 -->
<g id="edge17_Node000001_Node000012" class="edge">
<title>Node1&#45;&gt;Node12</title>
<g id="a_edge17_Node000001_Node000012"><a xlink:title=" ">
<path fill="none" stroke="#63b8ff" d="M359.17,-450.88C340.33,-416.73 301.8,-346.89 283.74,-314.16"/>
<polygon fill="#63b8ff" stroke="#63b8ff" points="286.74,-312.34 278.84,-305.27 280.61,-315.72 286.74,-312.34"/>
</a>
</g>
</g>
<!-- Node14 -->
<g id="Node000014" class="node">
<title>Node14</title>
<g id="a_Node000014"><a xlink:href="Si4431_8h.html" target="_top" xlink:title=" ">
<polygon fill="white" stroke="#666666" points="294,-415 190,-415 190,-396 294,-396 294,-415"/>
<text text-anchor="middle" x="242" y="-403" font-family="Helvetica,sans-Serif" font-size="10.00">../Si443x/Si4431.h</text>
</a>
</g>
</g>
<!-- Node1&#45;&gt;Node14 -->
<g id="edge23_Node000001_Node000014" class="edge">
<title>Node1&#45;&gt;Node14</title>
<g id="a_edge23_Node000001_Node000014"><a xlink:title=" ">
<path fill="none" stroke="#63b8ff" d="M330.9,-450.95C310.68,-440.84 286.53,-428.76 268.5,-419.75"/>
<polygon fill="#63b8ff" stroke="#63b8ff" points="269.69,-416.43 259.18,-415.09 266.56,-422.69 269.69,-416.43"/>
</a>
</g>
</g>
<!-- Node3 -->
<g id="Node000003" class="node">
<title>Node3</title>
<g id="a_Node000003"><a xlink:href="BuildOptUser_8h.html" target="_top" xlink:title=" ">
<polygon fill="white" stroke="#666666" points="397.5,-74 308.5,-74 308.5,-55 397.5,-55 397.5,-74"/>
<text text-anchor="middle" x="353" y="-62" font-family="Helvetica,sans-Serif" font-size="10.00">BuildOptUser.h</text>
</a>
</g>
</g>
<!-- Node2&#45;&gt;Node3 -->
<g id="edge2_Node000002_Node000003" class="edge">
<title>Node2&#45;&gt;Node3</title>
<g id="a_edge2_Node000002_Node000003"><a xlink:title=" ">
<path fill="none" stroke="#63b8ff" d="M286.69,-109.98C298.83,-101.84 317.36,-89.41 331.75,-79.76"/>
<polygon fill="#63b8ff" stroke="#63b8ff" points="333.72,-82.65 340.08,-74.17 329.82,-76.84 333.72,-82.65"/>
</a>
</g>
</g>
<!-- Node4 -->
<g id="Node000004" class="node">
<title>Node4</title>
<g id="a_Node000004"><a xlink:href="BuildOpt_8h.html" target="_top" xlink:title=" ">
<polygon fill="white" stroke="#666666" points="290,-74 222,-74 222,-55 290,-55 290,-74"/>
<text text-anchor="middle" x="256" y="-62" font-family="Helvetica,sans-Serif" font-size="10.00">BuildOpt.h</text>
</a>
</g>
</g>
<!-- Node2&#45;&gt;Node4 -->
<g id="edge3_Node000002_Node000004" class="edge">
<title>Node2&#45;&gt;Node4</title>
<g id="a_edge3_Node000002_Node000004"><a xlink:title=" ">
<path fill="none" stroke="#63b8ff" d="M265.86,-109.75C262.01,-102.8 258.19,-92.85 255.85,-84.13"/>
<polygon fill="#63b8ff" stroke="#63b8ff" points="259.23,-83.18 253.79,-74.09 252.37,-84.59 259.23,-83.18"/>
</a>
</g>
</g>
<!-- Node4&#45;&gt;Node2 -->
<g id="edge4_Node000004_Node000002" class="edge">
<title>Node4&#45;&gt;Node2</title>
<g id="a_edge4_Node000004_Node000002"><a xlink:title=" ">
<path fill="none" stroke="#63b8ff" d="M264.05,-74.09C267.94,-81.06 271.82,-91.15 274.17,-99.95"/>
<polygon fill="#63b8ff" stroke="#63b8ff" points="270.75,-100.66 276.19,-109.75 277.6,-99.25 270.75,-100.66"/>
</a>
</g>
</g>
<!-- Node5 -->
<g id="Node000005" class="node">
<title>Node5</title>
<g id="a_Node000005"><a xlink:title=" ">
<polygon fill="#e0e0e0" stroke="#999999" points="285,-19 235,-19 235,0 285,0 285,-19"/>
<text text-anchor="middle" x="260" y="-7" font-family="Helvetica,sans-Serif" font-size="10.00">stdio.h</text>
</a>
</g>
</g>
<!-- Node4&#45;&gt;Node5 -->
<g id="edge5_Node000004_Node000005" class="edge">
<title>Node4&#45;&gt;Node5</title>
<g id="a_edge5_Node000004_Node000005"><a xlink:title=" ">
<path fill="none" stroke="#63b8ff" d="M256.66,-54.75C257.18,-47.8 257.94,-37.85 258.59,-29.13"/>
<polygon fill="#63b8ff" stroke="#63b8ff" points="262.09,-29.32 259.35,-19.09 255.11,-28.8 262.09,-29.32"/>
</a>
</g>
</g>
<!-- Node6 -->
<g id="Node000006" class="node">
<title>Node6</title>
<g id="a_Node000006"><a xlink:title=" ">
<polygon fill="#e0e0e0" stroke="#999999" points="216.5,-19 163.5,-19 163.5,0 216.5,0 216.5,-19"/>
<text text-anchor="middle" x="190" y="-7" font-family="Helvetica,sans-Serif" font-size="10.00">stdint.h</text>
</a>
</g>
</g>
<!-- Node4&#45;&gt;Node6 -->
<g id="edge6_Node000004_Node000006" class="edge">
<title>Node4&#45;&gt;Node6</title>
<g id="a_edge6_Node000004_Node000006"><a xlink:title=" ">
<path fill="none" stroke="#63b8ff" d="M245.4,-54.98C235.54,-47.07 220.65,-35.11 208.78,-25.58"/>
<polygon fill="#63b8ff" stroke="#63b8ff" points="210.79,-22.7 200.8,-19.17 206.4,-28.16 210.79,-22.7"/>
</a>
</g>
</g>
<!-- Node7&#45;&gt;Node2 -->
<g id="edge8_Node000007_Node000002" class="edge">
<title>Node7&#45;&gt;Node2</title>
<g id="a_edge8_Node000007_Node000002"><a xlink:title=" ">
<path fill="none" stroke="#63b8ff" d="M114.53,-164.98C146.7,-156.01 197.56,-141.82 233.17,-131.89"/>
<polygon fill="#63b8ff" stroke="#63b8ff" points="234.54,-135.14 243.23,-129.08 232.66,-128.4 234.54,-135.14"/>
</a>
</g>
</g>
<!-- Node8 -->
<g id="Node000008" class="node">
<title>Node8</title>
<g id="a_Node000008"><a xlink:href="Hal_8h.html" target="_top" xlink:title=" ">
<polygon fill="white" stroke="#666666" points="105,-129 63,-129 63,-110 105,-110 105,-129"/>
<text text-anchor="middle" x="84" y="-117" font-family="Helvetica,sans-Serif" font-size="10.00">Hal.h</text>
</a>
</g>
</g>
<!-- Node7&#45;&gt;Node8 -->
<g id="edge9_Node000007_Node000008" class="edge">
<title>Node7&#45;&gt;Node8</title>
<g id="a_edge9_Node000007_Node000008"><a xlink:title=" ">
<path fill="none" stroke="#63b8ff" d="M84,-164.75C84,-157.8 84,-147.85 84,-139.13"/>
<polygon fill="#63b8ff" stroke="#63b8ff" points="87.5,-139.09 84,-129.09 80.5,-139.09 87.5,-139.09"/>
</a>
</g>
</g>
<!-- Node10 -->
<g id="Node000010" class="node">
<title>Node10</title>
<g id="a_Node000010"><a xlink:href="Utils_8h.html" target="_top" xlink:title=" ">
<polygon fill="white" stroke="#666666" points="207,-129 135,-129 135,-110 207,-110 207,-129"/>
<text text-anchor="middle" x="171" y="-117" font-family="Helvetica,sans-Serif" font-size="10.00">utils/Utils.h</text>
</a>
</g>
</g>
<!-- Node7&#45;&gt;Node10 -->
<g id="edge13_Node000007_Node000010" class="edge">
<title>Node7&#45;&gt;Node10</title>
<g id="a_edge13_Node000007_Node000010"><a xlink:title=" ">
<path fill="none" stroke="#63b8ff" d="M97.98,-164.98C111.47,-156.77 132.13,-144.18 148.04,-134.49"/>
<polygon fill="#63b8ff" stroke="#63b8ff" points="150.05,-137.36 156.77,-129.17 146.41,-131.38 150.05,-137.36"/>
</a>
</g>
</g>
<!-- Node8&#45;&gt;Node4 -->
<g id="edge12_Node000008_Node000004" class="edge">
<title>Node8&#45;&gt;Node4</title>
<g id="a_edge12_Node000008_Node000004"><a xlink:title=" ">
<path fill="none" stroke="#63b8ff" d="M105.09,-112C133.26,-103.32 183.64,-87.8 218.39,-77.09"/>
<polygon fill="#63b8ff" stroke="#63b8ff" points="219.66,-80.36 228.19,-74.07 217.6,-73.67 219.66,-80.36"/>
</a>
</g>
</g>
<!-- Node8&#45;&gt;Node6 -->
<g id="edge10_Node000008_Node000006" class="edge">
<title>Node8&#45;&gt;Node6</title>
<g id="a_edge10_Node000008_Node000006"><a xlink:title=" ">
<path fill="none" stroke="#63b8ff" d="M84.65,-109.69C86.06,-96.4 90.46,-71.1 104,-55 116.84,-39.73 136.27,-29.05 153.41,-21.99"/>
<polygon fill="#63b8ff" stroke="#63b8ff" points="155.08,-25.1 163.17,-18.25 152.58,-18.56 155.08,-25.1"/>
</a>
</g>
</g>
<!-- Node9 -->
<g id="Node000009" class="node">
<title>Node9</title>
<g id="a_Node000009"><a xlink:title=" ">
<polygon fill="#e0e0e0" stroke="#999999" points="56,-74 0,-74 0,-55 56,-55 56,-74"/>
<text text-anchor="middle" x="28" y="-62" font-family="Helvetica,sans-Serif" font-size="10.00">stddef.h</text>
</a>
</g>
</g>
<!-- Node8&#45;&gt;Node9 -->
<g id="edge11_Node000008_Node000009" class="edge">
<title>Node8&#45;&gt;Node9</title>
<g id="a_edge11_Node000008_Node000009"><a xlink:title=" ">
<path fill="none" stroke="#63b8ff" d="M75,-109.98C66.81,-102.23 54.49,-90.58 44.53,-81.14"/>
<polygon fill="#63b8ff" stroke="#63b8ff" points="46.83,-78.5 37.16,-74.17 42.02,-83.59 46.83,-78.5"/>
</a>
</g>
</g>
<!-- Node10&#45;&gt;Node4 -->
<g id="edge16_Node000010_Node000004" class="edge">
<title>Node10&#45;&gt;Node4</title>
<g id="a_edge16_Node000010_Node000004"><a xlink:title=" ">
<path fill="none" stroke="#63b8ff" d="M184.66,-109.98C197.84,-101.77 218.03,-89.18 233.57,-79.49"/>
<polygon fill="#63b8ff" stroke="#63b8ff" points="235.46,-82.43 242.09,-74.17 231.76,-76.49 235.46,-82.43"/>
</a>
</g>
</g>
<!-- Node10&#45;&gt;Node6 -->
<g id="edge14_Node000010_Node000006" class="edge">
<title>Node10&#45;&gt;Node6</title>
<g id="a_edge14_Node000010_Node000006"><a xlink:title=" ">
<path fill="none" stroke="#63b8ff" d="M172.55,-109.66C175.63,-92.17 182.56,-52.8 186.7,-29.27"/>
<polygon fill="#63b8ff" stroke="#63b8ff" points="190.19,-29.61 188.48,-19.16 183.3,-28.4 190.19,-29.61"/>
</a>
</g>
</g>
<!-- Node11 -->
<g id="Node000011" class="node">
<title>Node11</title>
<g id="a_Node000011"><a xlink:title=" ">
<polygon fill="#e0e0e0" stroke="#999999" points="165.5,-74 112.5,-74 112.5,-55 165.5,-55 165.5,-74"/>
<text text-anchor="middle" x="139" y="-62" font-family="Helvetica,sans-Serif" font-size="10.00">stdlib.h</text>
</a>
</g>
</g>
<!-- Node10&#45;&gt;Node11 -->
<g id="edge15_Node000010_Node000011" class="edge">
<title>Node10&#45;&gt;Node11</title>
<g id="a_edge15_Node000010_Node000011"><a xlink:title=" ">
<path fill="none" stroke="#63b8ff" d="M165.72,-109.75C161.29,-102.42 154.84,-91.73 149.38,-82.7"/>
<polygon fill="#63b8ff" stroke="#63b8ff" points="152.35,-80.84 144.19,-74.09 146.36,-84.46 152.35,-80.84"/>
</a>
</g>
</g>
<!-- Node12&#45;&gt;Node2 -->
<g id="edge18_Node000012_Node000002" class="edge">
<title>Node12&#45;&gt;Node2</title>
<g id="a_edge18_Node000012_Node000002"><a xlink:title=" ">
<path fill="none" stroke="#63b8ff" d="M299.51,-285.9C315.69,-278.96 335.35,-267.44 345,-250 351.46,-238.33 349.07,-232.7 345,-220 334.28,-186.52 307.71,-154.71 290.29,-136.43"/>
<polygon fill="#63b8ff" stroke="#63b8ff" points="292.52,-133.71 283.02,-129.02 287.52,-138.61 292.52,-133.71"/>
</a>
</g>
</g>
<!-- Node12&#45;&gt;Node7 -->
<g id="edge19_Node000012_Node000007" class="edge">
<title>Node12&#45;&gt;Node7</title>
<g id="a_edge19_Node000012_Node000007"><a xlink:title=" ">
<path fill="none" stroke="#63b8ff" d="M260.34,-285.94C227.96,-265.66 146.32,-214.53 106.51,-189.6"/>
<polygon fill="#63b8ff" stroke="#63b8ff" points="108.13,-186.48 97.8,-184.14 104.41,-192.41 108.13,-186.48"/>
</a>
</g>
</g>
<!-- Node13 -->
<g id="Node000013" class="node">
<title>Node13</title>
<g id="a_Node000013"><a xlink:href="PhysicalLayer_8h.html" target="_top" xlink:title=" ">
<polygon fill="white" stroke="#666666" points="335.5,-250 212.5,-250 212.5,-220 335.5,-220 335.5,-250"/>
<text text-anchor="start" x="220.5" y="-238" font-family="Helvetica,sans-Serif" font-size="10.00">../../protocols/Physical</text>
<text text-anchor="middle" x="274" y="-227" font-family="Helvetica,sans-Serif" font-size="10.00">Layer/PhysicalLayer.h</text>
</a>
</g>
</g>
<!-- Node12&#45;&gt;Node13 -->
<g id="edge20_Node000012_Node000013" class="edge">
<title>Node12&#45;&gt;Node13</title>
<g id="a_edge20_Node000012_Node000013"><a xlink:title=" ">
<path fill="none" stroke="#63b8ff" d="M274,-285.87C274,-279.11 274,-269.35 274,-260.26"/>
<polygon fill="#63b8ff" stroke="#63b8ff" points="277.5,-260.11 274,-250.11 270.5,-260.11 277.5,-260.11"/>
</a>
</g>
</g>
<!-- Node13&#45;&gt;Node2 -->
<g id="edge21_Node000013_Node000002" class="edge">
<title>Node13&#45;&gt;Node2</title>
<g id="a_edge21_Node000013_Node000002"><a xlink:title=" ">
<path fill="none" stroke="#63b8ff" d="M274,-219.63C274,-199.21 274,-161.81 274,-139.24"/>
<polygon fill="#63b8ff" stroke="#63b8ff" points="277.5,-139.23 274,-129.23 270.5,-139.23 277.5,-139.23"/>
</a>
</g>
</g>
<!-- Node13&#45;&gt;Node7 -->
<g id="edge22_Node000013_Node000007" class="edge">
<title>Node13&#45;&gt;Node7</title>
<g id="a_edge22_Node000013_Node000007"><a xlink:title=" ">
<path fill="none" stroke="#63b8ff" d="M228.49,-219.99C195.84,-209.94 152.37,-196.55 121.67,-187.1"/>
<polygon fill="#63b8ff" stroke="#63b8ff" points="122.37,-183.65 111.78,-184.05 120.31,-190.34 122.37,-183.65"/>
</a>
</g>
</g>
<!-- Node14&#45;&gt;Node2 -->
<g id="edge24_Node000014_Node000002" class="edge">
<title>Node14&#45;&gt;Node2</title>
<g id="a_edge24_Node000014_Node000002"><a xlink:title=" ">
<path fill="none" stroke="#63b8ff" d="M253.21,-395.99C279.8,-374.88 345.5,-316.96 360,-250 368.34,-211.51 359.87,-195.53 335,-165 325.04,-152.77 310.96,-142.21 298.84,-134.44"/>
<polygon fill="#63b8ff" stroke="#63b8ff" points="300.42,-131.3 290.06,-129.07 296.76,-137.27 300.42,-131.3"/>
</a>
</g>
</g>
<!-- Node14&#45;&gt;Node7 -->
<g id="edge25_Node000014_Node000007" class="edge">
<title>Node14&#45;&gt;Node7</title>
<g id="a_edge25_Node000014_Node000007"><a xlink:title=" ">
<path fill="none" stroke="#63b8ff" d="M225.95,-395.99C199.23,-381.03 145.54,-347.56 115,-305 99.24,-283.03 95.8,-276.17 89,-250 84.22,-231.6 83.27,-209.84 83.34,-194.6"/>
<polygon fill="#63b8ff" stroke="#63b8ff" points="86.84,-194.45 83.54,-184.39 79.84,-194.32 86.84,-194.45"/>
</a>
</g>
</g>
<!-- Node15 -->
<g id="Node000015" class="node">
<title>Node15</title>
<g id="a_Node000015"><a xlink:href="Si4432_8h.html" target="_top" xlink:title=" ">
<polygon fill="white" stroke="#666666" points="239.5,-360 180.5,-360 180.5,-341 239.5,-341 239.5,-360"/>
<text text-anchor="middle" x="210" y="-348" font-family="Helvetica,sans-Serif" font-size="10.00">Si4432.h</text>
</a>
</g>
</g>
<!-- Node14&#45;&gt;Node15 -->
<g id="edge26_Node000014_Node000015" class="edge">
<title>Node14&#45;&gt;Node15</title>
<g id="a_edge26_Node000014_Node000015"><a xlink:title=" ">
<path fill="none" stroke="#63b8ff" d="M236.72,-395.75C232.29,-388.42 225.84,-377.73 220.38,-368.7"/>
<polygon fill="#63b8ff" stroke="#63b8ff" points="223.35,-366.84 215.19,-360.09 217.36,-370.46 223.35,-366.84"/>
</a>
</g>
</g>
<!-- Node15&#45;&gt;Node2 -->
<g id="edge27_Node000015_Node000002" class="edge">
<title>Node15&#45;&gt;Node2</title>
<g id="a_edge27_Node000015_Node000002"><a xlink:title=" ">
<path fill="none" stroke="#63b8ff" d="M207.56,-340.75C202.06,-319.47 190.21,-263.56 204,-220 214.56,-186.65 240.76,-154.8 257.94,-136.47"/>
<polygon fill="#63b8ff" stroke="#63b8ff" points="260.68,-138.67 265.11,-129.05 255.64,-133.81 260.68,-138.67"/>
</a>
</g>
</g>
<!-- Node15&#45;&gt;Node7 -->
<g id="edge28_Node000015_Node000007" class="edge">
<title>Node15&#45;&gt;Node7</title>
<g id="a_edge28_Node000015_Node000007"><a xlink:title=" ">
<path fill="none" stroke="#63b8ff" d="M185.89,-340.93C168.76,-333.73 146.32,-321.88 132,-305 104.04,-272.05 91.66,-221.3 86.78,-194.15"/>
<polygon fill="#63b8ff" stroke="#63b8ff" points="90.2,-193.38 85.12,-184.08 83.29,-194.52 90.2,-193.38"/>
</a>
</g>
</g>
<!-- Node15&#45;&gt;Node12 -->
<g id="edge29_Node000015_Node000012" class="edge">
<title>Node15&#45;&gt;Node12</title>
<g id="a_edge29_Node000015_Node000012"><a xlink:title=" ">
<path fill="none" stroke="#63b8ff" d="M220.28,-340.98C229.84,-333.07 244.28,-321.11 255.78,-311.58"/>
<polygon fill="#63b8ff" stroke="#63b8ff" points="258.06,-314.24 263.53,-305.17 253.6,-308.85 258.06,-314.24"/>
</a>
</g>
</g>
</g>
</svg>
