<?xml version="1.0" encoding="UTF-8" standalone="no"?>
<!DOCTYPE svg PUBLIC "-//W3C//DTD SVG 1.1//EN"
 "http://www.w3.org/Graphics/SVG/1.1/DTD/svg11.dtd">
<!-- Generated by graphviz version 2.43.0 (0)
 -->
<!-- Title: thirdparty/RadioLib/include/RadioLib/modules/Si443x/Si4432.h Pages: 1 -->
<svg width="414pt" height="401pt"
 viewBox="0.00 0.00 414.26 401.00" xmlns="http://www.w3.org/2000/svg" xmlns:xlink="http://www.w3.org/1999/xlink">
<g id="graph0" class="graph" transform="scale(1 1) rotate(0) translate(4 397)">
<title>thirdparty/RadioLib/include/RadioLib/modules/Si443x/Si4432.h</title>
<!-- Node1 -->
<g id="Node000001" class="node">
<title>Node1</title>
<g id="a_Node000001"><a xlink:title=" ">
<polygon fill="#999999" stroke="#666666" points="192.26,-393 47.26,-393 47.26,-352 192.26,-352 192.26,-393"/>
<text text-anchor="start" x="55.26" y="-381" font-family="Helvetica,sans-Serif" font-size="10.00">thirdparty/RadioLib</text>
<text text-anchor="start" x="55.26" y="-370" font-family="Helvetica,sans-Serif" font-size="10.00">/include/RadioLib/modules</text>
<text text-anchor="middle" x="119.76" y="-359" font-family="Helvetica,sans-Serif" font-size="10.00">/Si443x/Si4432.h</text>
</a>
</g>
</g>
<!-- Node2 -->
<g id="Node000002" class="node">
<title>Node2</title>
<g id="a_Node000002"><a xlink:href="RadioLib_8h.html" target="_top" xlink:title=" ">
<polygon fill="white" stroke="#666666" points="271.76,-162 117.76,-162 117.76,-132 271.76,-132 271.76,-162"/>
<text text-anchor="start" x="125.76" y="-150" font-family="Helvetica,sans-Serif" font-size="10.00">thirdparty/RadioLib</text>
<text text-anchor="middle" x="194.76" y="-139" font-family="Helvetica,sans-Serif" font-size="10.00">/include/RadioLib/RadioLib.h</text>
</a>
</g>
</g>
<!-- Node1&#45;&gt;Node2 -->
<g id="edge1_Node000001_Node000002" class="edge">
<title>Node1&#45;&gt;Node2</title>
<g id="a_edge1_Node000001_Node000002"><a xlink:title=" ">
<path fill="none" stroke="#63b8ff" d="M83.64,-345.83C39.15,-311.06 -26.14,-247.65 11.76,-198 25,-180.66 73.56,-167.87 117.33,-159.57"/>
<polygon fill="#63b8ff" stroke="#63b8ff" points="81.61,-348.68 91.67,-351.98 85.86,-343.12 81.61,-348.68"/>
</a>
</g>
</g>
<!-- Node6 -->
<g id="Node000006" class="node">
<title>Node6</title>
<g id="a_Node000006"><a xlink:href="RFM22_8h.html" target="_top" xlink:title=" ">
<polygon fill="white" stroke="#666666" points="166.26,-239 21.26,-239 21.26,-198 166.26,-198 166.26,-239"/>
<text text-anchor="start" x="29.26" y="-227" font-family="Helvetica,sans-Serif" font-size="10.00">thirdparty/RadioLib</text>
<text text-anchor="start" x="29.26" y="-216" font-family="Helvetica,sans-Serif" font-size="10.00">/include/RadioLib/modules</text>
<text text-anchor="middle" x="93.76" y="-205" font-family="Helvetica,sans-Serif" font-size="10.00">/RFM2x/RFM22.h</text>
</a>
</g>
</g>
<!-- Node1&#45;&gt;Node6 -->
<g id="edge5_Node000001_Node000006" class="edge">
<title>Node1&#45;&gt;Node6</title>
<g id="a_edge5_Node000001_Node000006"><a xlink:title=" ">
<path fill="none" stroke="#63b8ff" d="M100.29,-343.13C95.57,-334.76 91.19,-325.33 88.76,-316 81.99,-290.02 85.64,-258.82 89.32,-239.07"/>
<polygon fill="#63b8ff" stroke="#63b8ff" points="97.32,-344.98 105.47,-351.75 103.32,-341.37 97.32,-344.98"/>
</a>
</g>
</g>
<!-- Node7 -->
<g id="Node000007" class="node">
<title>Node7</title>
<g id="a_Node000007"><a xlink:href="Si4430_8h.html" target="_top" xlink:title=" ">
<polygon fill="white" stroke="#666666" points="243.26,-316 98.26,-316 98.26,-275 243.26,-275 243.26,-316"/>
<text text-anchor="start" x="106.26" y="-304" font-family="Helvetica,sans-Serif" font-size="10.00">thirdparty/RadioLib</text>
<text text-anchor="start" x="106.26" y="-293" font-family="Helvetica,sans-Serif" font-size="10.00">/include/RadioLib/modules</text>
<text text-anchor="middle" x="170.76" y="-282" font-family="Helvetica,sans-Serif" font-size="10.00">/Si443x/Si4430.h</text>
</a>
</g>
</g>
<!-- Node1&#45;&gt;Node7 -->
<g id="edge7_Node000001_Node000007" class="edge">
<title>Node1&#45;&gt;Node7</title>
<g id="a_edge7_Node000001_Node000007"><a xlink:title=" ">
<path fill="none" stroke="#63b8ff" d="M138.87,-343.39C145.06,-334.3 151.78,-324.41 157.45,-316.07"/>
<polygon fill="#63b8ff" stroke="#63b8ff" points="135.89,-341.56 133.16,-351.79 141.67,-345.49 135.89,-341.56"/>
</a>
</g>
</g>
<!-- Node8 -->
<g id="Node000008" class="node">
<title>Node8</title>
<g id="a_Node000008"><a xlink:href="Si4431_8h.html" target="_top" xlink:title=" ">
<polygon fill="white" stroke="#666666" points="406.26,-316 261.26,-316 261.26,-275 406.26,-275 406.26,-316"/>
<text text-anchor="start" x="269.26" y="-304" font-family="Helvetica,sans-Serif" font-size="10.00">thirdparty/RadioLib</text>
<text text-anchor="start" x="269.26" y="-293" font-family="Helvetica,sans-Serif" font-size="10.00">/include/RadioLib/modules</text>
<text text-anchor="middle" x="333.76" y="-282" font-family="Helvetica,sans-Serif" font-size="10.00">/Si443x/Si4431.h</text>
</a>
</g>
</g>
<!-- Node1&#45;&gt;Node8 -->
<g id="edge9_Node000001_Node000008" class="edge">
<title>Node1&#45;&gt;Node8</title>
<g id="a_edge9_Node000001_Node000008"><a xlink:title=" ">
<path fill="none" stroke="#63b8ff" d="M184.89,-348.67C214.63,-338.25 249.49,-326.03 278,-316.04"/>
<polygon fill="#63b8ff" stroke="#63b8ff" points="183.7,-345.38 175.42,-351.99 186.02,-351.99 183.7,-345.38"/>
</a>
</g>
</g>
<!-- Node3 -->
<g id="Node000003" class="node">
<title>Node3</title>
<g id="a_Node000003"><a xlink:href="PiHal_8h.html" target="_top" xlink:title=" ">
<polygon fill="white" stroke="#666666" points="253.76,-96 135.76,-96 135.76,-55 253.76,-55 253.76,-96"/>
<text text-anchor="start" x="143.76" y="-84" font-family="Helvetica,sans-Serif" font-size="10.00">thirdparty/RadioLib</text>
<text text-anchor="start" x="143.76" y="-73" font-family="Helvetica,sans-Serif" font-size="10.00">/include/RadioLib/hal</text>
<text text-anchor="middle" x="194.76" y="-62" font-family="Helvetica,sans-Serif" font-size="10.00">/RPi/PiHal.h</text>
</a>
</g>
</g>
<!-- Node2&#45;&gt;Node3 -->
<g id="edge2_Node000002_Node000003" class="edge">
<title>Node2&#45;&gt;Node3</title>
<g id="a_edge2_Node000002_Node000003"><a xlink:title=" ">
<path fill="none" stroke="#63b8ff" d="M194.76,-121.91C194.76,-113.47 194.76,-104.1 194.76,-96.07"/>
<polygon fill="#63b8ff" stroke="#63b8ff" points="191.26,-121.94 194.76,-131.94 198.26,-121.94 191.26,-121.94"/>
</a>
</g>
</g>
<!-- Node4 -->
<g id="Node000004" class="node">
<title>Node4</title>
<g id="a_Node000004"><a xlink:href="receiver-normal_8cpp.html" target="_top" xlink:title="CHRONOS&#45;LoRa Receiver program (Normal)">
<polygon fill="white" stroke="#666666" points="181.76,-19 49.76,-19 49.76,0 181.76,0 181.76,-19"/>
<text text-anchor="middle" x="115.76" y="-7" font-family="Helvetica,sans-Serif" font-size="10.00">src/receiver&#45;normal.cpp</text>
</a>
</g>
</g>
<!-- Node3&#45;&gt;Node4 -->
<g id="edge3_Node000003_Node000004" class="edge">
<title>Node3&#45;&gt;Node4</title>
<g id="a_edge3_Node000003_Node000004"><a xlink:title=" ">
<path fill="none" stroke="#63b8ff" d="M162.8,-48.61C149.91,-38.17 135.92,-26.83 126.57,-19.26"/>
<polygon fill="#63b8ff" stroke="#63b8ff" points="160.65,-51.37 170.63,-54.95 165.06,-45.94 160.65,-51.37"/>
</a>
</g>
</g>
<!-- Node5 -->
<g id="Node000005" class="node">
<title>Node5</title>
<g id="a_Node000005"><a xlink:href="transmitter-normal_8cpp.html" target="_top" xlink:title="CHRONOS&#45;LoRa Transmitter program (Normal)">
<polygon fill="white" stroke="#666666" points="347.26,-19 200.26,-19 200.26,0 347.26,0 347.26,-19"/>
<text text-anchor="middle" x="273.76" y="-7" font-family="Helvetica,sans-Serif" font-size="10.00">src/transmitter&#45;normal.cpp</text>
</a>
</g>
</g>
<!-- Node3&#45;&gt;Node5 -->
<g id="edge4_Node000003_Node000005" class="edge">
<title>Node3&#45;&gt;Node5</title>
<g id="a_edge4_Node000003_Node000005"><a xlink:title=" ">
<path fill="none" stroke="#63b8ff" d="M226.72,-48.61C239.6,-38.17 253.6,-26.83 262.94,-19.26"/>
<polygon fill="#63b8ff" stroke="#63b8ff" points="224.46,-45.94 218.89,-54.95 228.86,-51.37 224.46,-45.94"/>
</a>
</g>
</g>
<!-- Node6&#45;&gt;Node2 -->
<g id="edge6_Node000006_Node000002" class="edge">
<title>Node6&#45;&gt;Node2</title>
<g id="a_edge6_Node000006_Node000002"><a xlink:title=" ">
<path fill="none" stroke="#63b8ff" d="M130.59,-192.15C145.32,-182.02 161.71,-170.74 174.25,-162.11"/>
<polygon fill="#63b8ff" stroke="#63b8ff" points="128.41,-189.4 122.16,-197.96 132.38,-195.17 128.41,-189.4"/>
</a>
</g>
</g>
<!-- Node7&#45;&gt;Node2 -->
<g id="edge8_Node000007_Node000002" class="edge">
<title>Node7&#45;&gt;Node2</title>
<g id="a_edge8_Node000007_Node000002"><a xlink:title=" ">
<path fill="none" stroke="#63b8ff" d="M175.62,-264.85C180.73,-233.63 188.57,-185.79 192.43,-162.18"/>
<polygon fill="#63b8ff" stroke="#63b8ff" points="172.16,-264.31 173.99,-274.74 179.07,-265.44 172.16,-264.31"/>
</a>
</g>
</g>
<!-- Node8&#45;&gt;Node2 -->
<g id="edge10_Node000008_Node000002" class="edge">
<title>Node8&#45;&gt;Node2</title>
<g id="a_edge10_Node000008_Node000002"><a xlink:title=" ">
<path fill="none" stroke="#63b8ff" d="M289.73,-269.56C276.63,-260.9 262.82,-250.47 251.76,-239 228.97,-215.39 210.58,-181.23 201.3,-162.19"/>
<polygon fill="#63b8ff" stroke="#63b8ff" points="287.9,-272.54 298.21,-274.98 291.67,-266.64 287.9,-272.54"/>
</a>
</g>
</g>
<!-- Node9 -->
<g id="Node000009" class="node">
<title>Node9</title>
<g id="a_Node000009"><a xlink:href="RFM23_8h.html" target="_top" xlink:title=" ">
<polygon fill="white" stroke="#666666" points="406.26,-239 261.26,-239 261.26,-198 406.26,-198 406.26,-239"/>
<text text-anchor="start" x="269.26" y="-227" font-family="Helvetica,sans-Serif" font-size="10.00">thirdparty/RadioLib</text>
<text text-anchor="start" x="269.26" y="-216" font-family="Helvetica,sans-Serif" font-size="10.00">/include/RadioLib/modules</text>
<text text-anchor="middle" x="333.76" y="-205" font-family="Helvetica,sans-Serif" font-size="10.00">/RFM2x/RFM23.h</text>
</a>
</g>
</g>
<!-- Node8&#45;&gt;Node9 -->
<g id="edge11_Node000008_Node000009" class="edge">
<title>Node8&#45;&gt;Node9</title>
<g id="a_edge11_Node000008_Node000009"><a xlink:title=" ">
<path fill="none" stroke="#63b8ff" d="M333.76,-264.69C333.76,-256.08 333.76,-246.9 333.76,-239.07"/>
<polygon fill="#63b8ff" stroke="#63b8ff" points="330.26,-264.79 333.76,-274.79 337.26,-264.79 330.26,-264.79"/>
</a>
</g>
</g>
<!-- Node9&#45;&gt;Node2 -->
<g id="edge12_Node000009_Node000002" class="edge">
<title>Node9&#45;&gt;Node2</title>
<g id="a_edge12_Node000009_Node000002"><a xlink:title=" ">
<path fill="none" stroke="#63b8ff" d="M285.61,-193.42C264.71,-182.98 240.96,-171.1 222.98,-162.11"/>
<polygon fill="#63b8ff" stroke="#63b8ff" points="284.16,-196.61 294.67,-197.96 287.29,-190.35 284.16,-196.61"/>
</a>
</g>
</g>
</g>
</svg>
