<?xml version="1.0" encoding="UTF-8" standalone="no"?>
<!DOCTYPE svg PUBLIC "-//W3C//DTD SVG 1.1//EN"
 "http://www.w3.org/Graphics/SVG/1.1/DTD/svg11.dtd">
<!-- Generated by graphviz version 2.43.0 (0)
 -->
<!-- Title: thirdparty/RadioLib/include/RadioLib/modules/Si443x/Si4431.h Pages: 1 -->
<svg width="405pt" height="445pt"
 viewBox="0.00 0.00 405.00 445.00" xmlns="http://www.w3.org/2000/svg" xmlns:xlink="http://www.w3.org/1999/xlink">
<g id="graph0" class="graph" transform="scale(1 1) rotate(0) translate(4 441)">
<title>thirdparty/RadioLib/include/RadioLib/modules/Si443x/Si4431.h</title>
<!-- Node1 -->
<g id="Node000001" class="node">
<title>Node1</title>
<g id="a_Node000001"><a xlink:title=" ">
<polygon fill="#999999" stroke="#666666" points="301,-437 156,-437 156,-396 301,-396 301,-437"/>
<text text-anchor="start" x="164" y="-425" font-family="Helvetica,sans-Serif" font-size="10.00">thirdparty/RadioLib</text>
<text text-anchor="start" x="164" y="-414" font-family="Helvetica,sans-Serif" font-size="10.00">/include/RadioLib/modules</text>
<text text-anchor="middle" x="228.5" y="-403" font-family="Helvetica,sans-Serif" font-size="10.00">/Si443x/Si4431.h</text>
</a>
</g>
</g>
<!-- Node2 -->
<g id="Node000002" class="node">
<title>Node2</title>
<g id="a_Node000002"><a xlink:href="TypeDef_8h.html" target="_top" xlink:title=" ">
<polygon fill="white" stroke="#666666" points="181,-129 98,-129 98,-110 181,-110 181,-129"/>
<text text-anchor="middle" x="139.5" y="-117" font-family="Helvetica,sans-Serif" font-size="10.00">../../TypeDef.h</text>
</a>
</g>
</g>
<!-- Node1&#45;&gt;Node2 -->
<g id="edge1_Node000001_Node000002" class="edge">
<title>Node1&#45;&gt;Node2</title>
<g id="a_edge1_Node000001_Node000002"><a xlink:title=" ">
<path fill="none" stroke="#63b8ff" d="M159.54,-395.86C113.93,-378.18 62.5,-347.03 62.5,-296.5 62.5,-296.5 62.5,-296.5 62.5,-234 62.5,-192.86 97.58,-155.55 120.38,-135.64"/>
<polygon fill="#63b8ff" stroke="#63b8ff" points="122.74,-138.23 128.14,-129.12 118.23,-132.87 122.74,-138.23"/>
</a>
</g>
</g>
<!-- Node7 -->
<g id="Node000007" class="node">
<title>Node7</title>
<g id="a_Node000007"><a xlink:href="Module_8h.html" target="_top" xlink:title=" ">
<polygon fill="white" stroke="#666666" points="355.5,-184 275.5,-184 275.5,-165 355.5,-165 355.5,-184"/>
<text text-anchor="middle" x="315.5" y="-172" font-family="Helvetica,sans-Serif" font-size="10.00">../../Module.h</text>
</a>
</g>
</g>
<!-- Node1&#45;&gt;Node7 -->
<g id="edge7_Node000001_Node000007" class="edge">
<title>Node1&#45;&gt;Node7</title>
<g id="a_edge7_Node000001_Node000007"><a xlink:title=" ">
<path fill="none" stroke="#63b8ff" d="M247.29,-395.62C273.35,-366.45 319,-309.08 334.5,-250 337.88,-237.1 337.17,-233.06 334.5,-220 332.61,-210.74 328.71,-201.03 324.93,-193.04"/>
<polygon fill="#63b8ff" stroke="#63b8ff" points="328.01,-191.37 320.38,-184.02 321.76,-194.53 328.01,-191.37"/>
</a>
</g>
</g>
<!-- Node12 -->
<g id="Node000012" class="node">
<title>Node12</title>
<g id="a_Node000012"><a xlink:href="Si4432_8h.html" target="_top" xlink:title=" ">
<polygon fill="white" stroke="#666666" points="258,-360 199,-360 199,-341 258,-341 258,-360"/>
<text text-anchor="middle" x="228.5" y="-348" font-family="Helvetica,sans-Serif" font-size="10.00">Si4432.h</text>
</a>
</g>
</g>
<!-- Node1&#45;&gt;Node12 -->
<g id="edge17_Node000001_Node000012" class="edge">
<title>Node1&#45;&gt;Node12</title>
<g id="a_edge17_Node000001_Node000012"><a xlink:title=" ">
<path fill="none" stroke="#63b8ff" d="M228.5,-395.95C228.5,-387.85 228.5,-378.5 228.5,-370.47"/>
<polygon fill="#63b8ff" stroke="#63b8ff" points="232,-370.26 228.5,-360.26 225,-370.26 232,-370.26"/>
</a>
</g>
</g>
<!-- Node3 -->
<g id="Node000003" class="node">
<title>Node3</title>
<g id="a_Node000003"><a xlink:href="BuildOptUser_8h.html" target="_top" xlink:title=" ">
<polygon fill="white" stroke="#666666" points="89,-74 0,-74 0,-55 89,-55 89,-74"/>
<text text-anchor="middle" x="44.5" y="-62" font-family="Helvetica,sans-Serif" font-size="10.00">BuildOptUser.h</text>
</a>
</g>
</g>
<!-- Node2&#45;&gt;Node3 -->
<g id="edge2_Node000002_Node000003" class="edge">
<title>Node2&#45;&gt;Node3</title>
<g id="a_edge2_Node000002_Node000003"><a xlink:title=" ">
<path fill="none" stroke="#63b8ff" d="M124.24,-109.98C109.37,-101.69 86.52,-88.94 69.08,-79.22"/>
<polygon fill="#63b8ff" stroke="#63b8ff" points="70.48,-75.99 60.04,-74.17 67.07,-82.1 70.48,-75.99"/>
</a>
</g>
</g>
<!-- Node4 -->
<g id="Node000004" class="node">
<title>Node4</title>
<g id="a_Node000004"><a xlink:href="BuildOpt_8h.html" target="_top" xlink:title=" ">
<polygon fill="white" stroke="#666666" points="175.5,-74 107.5,-74 107.5,-55 175.5,-55 175.5,-74"/>
<text text-anchor="middle" x="141.5" y="-62" font-family="Helvetica,sans-Serif" font-size="10.00">BuildOpt.h</text>
</a>
</g>
</g>
<!-- Node2&#45;&gt;Node4 -->
<g id="edge3_Node000002_Node000004" class="edge">
<title>Node2&#45;&gt;Node4</title>
<g id="a_edge3_Node000002_Node000004"><a xlink:title=" ">
<path fill="none" stroke="#63b8ff" d="M134.66,-109.75C133.43,-102.8 133.37,-92.85 134.32,-84.13"/>
<polygon fill="#63b8ff" stroke="#63b8ff" points="137.8,-84.54 136.04,-74.09 130.9,-83.35 137.8,-84.54"/>
</a>
</g>
</g>
<!-- Node4&#45;&gt;Node2 -->
<g id="edge4_Node000004_Node000002" class="edge">
<title>Node4&#45;&gt;Node2</title>
<g id="a_edge4_Node000004_Node000002"><a xlink:title=" ">
<path fill="none" stroke="#63b8ff" d="M146.31,-74.09C147.56,-80.99 147.63,-90.93 146.7,-99.66"/>
<polygon fill="#63b8ff" stroke="#63b8ff" points="143.21,-99.3 145,-109.75 150.12,-100.47 143.21,-99.3"/>
</a>
</g>
</g>
<!-- Node5 -->
<g id="Node000005" class="node">
<title>Node5</title>
<g id="a_Node000005"><a xlink:title=" ">
<polygon fill="#e0e0e0" stroke="#999999" points="162.5,-19 112.5,-19 112.5,0 162.5,0 162.5,-19"/>
<text text-anchor="middle" x="137.5" y="-7" font-family="Helvetica,sans-Serif" font-size="10.00">stdio.h</text>
</a>
</g>
</g>
<!-- Node4&#45;&gt;Node5 -->
<g id="edge5_Node000004_Node000005" class="edge">
<title>Node4&#45;&gt;Node5</title>
<g id="a_edge5_Node000004_Node000005"><a xlink:title=" ">
<path fill="none" stroke="#63b8ff" d="M140.84,-54.75C140.32,-47.8 139.56,-37.85 138.91,-29.13"/>
<polygon fill="#63b8ff" stroke="#63b8ff" points="142.39,-28.8 138.15,-19.09 135.41,-29.32 142.39,-28.8"/>
</a>
</g>
</g>
<!-- Node6 -->
<g id="Node000006" class="node">
<title>Node6</title>
<g id="a_Node000006"><a xlink:title=" ">
<polygon fill="#e0e0e0" stroke="#999999" points="234,-19 181,-19 181,0 234,0 234,-19"/>
<text text-anchor="middle" x="207.5" y="-7" font-family="Helvetica,sans-Serif" font-size="10.00">stdint.h</text>
</a>
</g>
</g>
<!-- Node4&#45;&gt;Node6 -->
<g id="edge6_Node000004_Node000006" class="edge">
<title>Node4&#45;&gt;Node6</title>
<g id="a_edge6_Node000004_Node000006"><a xlink:title=" ">
<path fill="none" stroke="#63b8ff" d="M152.1,-54.98C161.96,-47.07 176.85,-35.11 188.72,-25.58"/>
<polygon fill="#63b8ff" stroke="#63b8ff" points="191.1,-28.16 196.7,-19.17 186.71,-22.7 191.1,-28.16"/>
</a>
</g>
</g>
<!-- Node7&#45;&gt;Node2 -->
<g id="edge8_Node000007_Node000002" class="edge">
<title>Node7&#45;&gt;Node2</title>
<g id="a_edge8_Node000007_Node000002"><a xlink:title=" ">
<path fill="none" stroke="#63b8ff" d="M287.22,-164.98C257.55,-156.05 210.71,-141.94 177.75,-132.02"/>
<polygon fill="#63b8ff" stroke="#63b8ff" points="178.58,-128.61 168,-129.08 176.57,-135.32 178.58,-128.61"/>
</a>
</g>
</g>
<!-- Node8 -->
<g id="Node000008" class="node">
<title>Node8</title>
<g id="a_Node000008"><a xlink:href="Hal_8h.html" target="_top" xlink:title=" ">
<polygon fill="white" stroke="#666666" points="251.5,-129 209.5,-129 209.5,-110 251.5,-110 251.5,-129"/>
<text text-anchor="middle" x="230.5" y="-117" font-family="Helvetica,sans-Serif" font-size="10.00">Hal.h</text>
</a>
</g>
</g>
<!-- Node7&#45;&gt;Node8 -->
<g id="edge9_Node000007_Node000008" class="edge">
<title>Node7&#45;&gt;Node8</title>
<g id="a_edge9_Node000007_Node000008"><a xlink:title=" ">
<path fill="none" stroke="#63b8ff" d="M301.84,-164.98C288.66,-156.77 268.47,-144.18 252.93,-134.49"/>
<polygon fill="#63b8ff" stroke="#63b8ff" points="254.74,-131.49 244.41,-129.17 251.04,-137.43 254.74,-131.49"/>
</a>
</g>
</g>
<!-- Node10 -->
<g id="Node000010" class="node">
<title>Node10</title>
<g id="a_Node000010"><a xlink:href="Utils_8h.html" target="_top" xlink:title=" ">
<polygon fill="white" stroke="#666666" points="351.5,-129 279.5,-129 279.5,-110 351.5,-110 351.5,-129"/>
<text text-anchor="middle" x="315.5" y="-117" font-family="Helvetica,sans-Serif" font-size="10.00">utils/Utils.h</text>
</a>
</g>
</g>
<!-- Node7&#45;&gt;Node10 -->
<g id="edge13_Node000007_Node000010" class="edge">
<title>Node7&#45;&gt;Node10</title>
<g id="a_edge13_Node000007_Node000010"><a xlink:title=" ">
<path fill="none" stroke="#63b8ff" d="M315.5,-164.75C315.5,-157.8 315.5,-147.85 315.5,-139.13"/>
<polygon fill="#63b8ff" stroke="#63b8ff" points="319,-139.09 315.5,-129.09 312,-139.09 319,-139.09"/>
</a>
</g>
</g>
<!-- Node8&#45;&gt;Node4 -->
<g id="edge12_Node000008_Node000004" class="edge">
<title>Node8&#45;&gt;Node4</title>
<g id="a_edge12_Node000008_Node000004"><a xlink:title=" ">
<path fill="none" stroke="#63b8ff" d="M216.2,-109.98C202.4,-101.77 181.26,-89.18 164.99,-79.49"/>
<polygon fill="#63b8ff" stroke="#63b8ff" points="166.44,-76.28 156.06,-74.17 162.86,-82.29 166.44,-76.28"/>
</a>
</g>
</g>
<!-- Node8&#45;&gt;Node6 -->
<g id="edge10_Node000008_Node000006" class="edge">
<title>Node8&#45;&gt;Node6</title>
<g id="a_edge10_Node000008_Node000006"><a xlink:title=" ">
<path fill="none" stroke="#63b8ff" d="M228.62,-109.66C224.88,-92.09 216.43,-52.45 211.43,-28.95"/>
<polygon fill="#63b8ff" stroke="#63b8ff" points="214.85,-28.21 209.34,-19.16 208,-29.67 214.85,-28.21"/>
</a>
</g>
</g>
<!-- Node9 -->
<g id="Node000009" class="node">
<title>Node9</title>
<g id="a_Node000009"><a xlink:title=" ">
<polygon fill="#e0e0e0" stroke="#999999" points="287.5,-74 231.5,-74 231.5,-55 287.5,-55 287.5,-74"/>
<text text-anchor="middle" x="259.5" y="-62" font-family="Helvetica,sans-Serif" font-size="10.00">stddef.h</text>
</a>
</g>
</g>
<!-- Node8&#45;&gt;Node9 -->
<g id="edge11_Node000008_Node000009" class="edge">
<title>Node8&#45;&gt;Node9</title>
<g id="a_edge11_Node000008_Node000009"><a xlink:title=" ">
<path fill="none" stroke="#63b8ff" d="M235.29,-109.75C239.26,-102.49 245.03,-91.95 249.93,-82.98"/>
<polygon fill="#63b8ff" stroke="#63b8ff" points="253.07,-84.54 254.8,-74.09 246.93,-81.18 253.07,-84.54"/>
</a>
</g>
</g>
<!-- Node10&#45;&gt;Node4 -->
<g id="edge16_Node000010_Node000004" class="edge">
<title>Node10&#45;&gt;Node4</title>
<g id="a_edge16_Node000010_Node000004"><a xlink:title=" ">
<path fill="none" stroke="#63b8ff" d="M287.54,-109.98C258.2,-101.05 211.9,-86.94 179.31,-77.02"/>
<polygon fill="#63b8ff" stroke="#63b8ff" points="180.26,-73.65 169.68,-74.08 178.22,-80.34 180.26,-73.65"/>
</a>
</g>
</g>
<!-- Node10&#45;&gt;Node6 -->
<g id="edge14_Node000010_Node000006" class="edge">
<title>Node10&#45;&gt;Node6</title>
<g id="a_edge14_Node000010_Node000006"><a xlink:title=" ">
<path fill="none" stroke="#63b8ff" d="M315.03,-109.67C313.89,-96.36 309.97,-71.03 296.5,-55 282.84,-38.75 261.78,-27.84 243.58,-20.9"/>
<polygon fill="#63b8ff" stroke="#63b8ff" points="244.69,-17.58 234.1,-17.53 242.35,-24.17 244.69,-17.58"/>
</a>
</g>
</g>
<!-- Node11 -->
<g id="Node000011" class="node">
<title>Node11</title>
<g id="a_Node000011"><a xlink:title=" ">
<polygon fill="#e0e0e0" stroke="#999999" points="397,-74 344,-74 344,-55 397,-55 397,-74"/>
<text text-anchor="middle" x="370.5" y="-62" font-family="Helvetica,sans-Serif" font-size="10.00">stdlib.h</text>
</a>
</g>
</g>
<!-- Node10&#45;&gt;Node11 -->
<g id="edge15_Node000010_Node000011" class="edge">
<title>Node10&#45;&gt;Node11</title>
<g id="a_edge15_Node000010_Node000011"><a xlink:title=" ">
<path fill="none" stroke="#63b8ff" d="M324.58,-109.75C332.59,-102.03 344.46,-90.6 354.12,-81.28"/>
<polygon fill="#63b8ff" stroke="#63b8ff" points="356.81,-83.55 361.59,-74.09 351.96,-78.51 356.81,-83.55"/>
</a>
</g>
</g>
<!-- Node12&#45;&gt;Node2 -->
<g id="edge18_Node000012_Node000002" class="edge">
<title>Node12&#45;&gt;Node2</title>
<g id="a_edge18_Node000012_Node000002"><a xlink:title=" ">
<path fill="none" stroke="#63b8ff" d="M217.18,-340.82C197.66,-325.11 158.07,-289.89 140.5,-250 124.39,-213.44 130.17,-165.23 135.2,-139.17"/>
<polygon fill="#63b8ff" stroke="#63b8ff" points="138.68,-139.67 137.32,-129.16 131.83,-138.22 138.68,-139.67"/>
</a>
</g>
</g>
<!-- Node12&#45;&gt;Node7 -->
<g id="edge19_Node000012_Node000007" class="edge">
<title>Node12&#45;&gt;Node7</title>
<g id="a_edge19_Node000012_Node000007"><a xlink:title=" ">
<path fill="none" stroke="#63b8ff" d="M240.85,-340.82C261.6,-325.37 302.76,-290.86 318.5,-250 325.46,-231.92 323.26,-209.52 320.23,-194.02"/>
<polygon fill="#63b8ff" stroke="#63b8ff" points="323.61,-193.11 317.99,-184.12 316.78,-194.65 323.61,-193.11"/>
</a>
</g>
</g>
<!-- Node13 -->
<g id="Node000013" class="node">
<title>Node13</title>
<g id="a_Node000013"><a xlink:href="Si443x_8h.html" target="_top" xlink:title=" ">
<polygon fill="white" stroke="#666666" points="258,-305 199,-305 199,-286 258,-286 258,-305"/>
<text text-anchor="middle" x="228.5" y="-293" font-family="Helvetica,sans-Serif" font-size="10.00">Si443x.h</text>
</a>
</g>
</g>
<!-- Node12&#45;&gt;Node13 -->
<g id="edge20_Node000012_Node000013" class="edge">
<title>Node12&#45;&gt;Node13</title>
<g id="a_edge20_Node000012_Node000013"><a xlink:title=" ">
<path fill="none" stroke="#63b8ff" d="M228.5,-340.75C228.5,-333.8 228.5,-323.85 228.5,-315.13"/>
<polygon fill="#63b8ff" stroke="#63b8ff" points="232,-315.09 228.5,-305.09 225,-315.09 232,-315.09"/>
</a>
</g>
</g>
<!-- Node13&#45;&gt;Node2 -->
<g id="edge21_Node000013_Node000002" class="edge">
<title>Node13&#45;&gt;Node2</title>
<g id="a_edge21_Node000013_Node000002"><a xlink:title=" ">
<path fill="none" stroke="#63b8ff" d="M204.79,-285.9C188.76,-278.8 168.57,-267.1 157.5,-250 135.47,-215.97 135.42,-166.41 137.4,-139.53"/>
<polygon fill="#63b8ff" stroke="#63b8ff" points="140.92,-139.5 138.35,-129.22 133.95,-138.86 140.92,-139.5"/>
</a>
</g>
</g>
<!-- Node13&#45;&gt;Node7 -->
<g id="edge22_Node000013_Node000007" class="edge">
<title>Node13&#45;&gt;Node7</title>
<g id="a_edge22_Node000013_Node000007"><a xlink:title=" ">
<path fill="none" stroke="#63b8ff" d="M250.44,-285.98C266.18,-278.74 286.63,-266.83 298.5,-250 310.07,-233.6 313.9,-210.57 315.1,-194.47"/>
<polygon fill="#63b8ff" stroke="#63b8ff" points="318.61,-194.32 315.58,-184.16 311.62,-193.99 318.61,-194.32"/>
</a>
</g>
</g>
<!-- Node14 -->
<g id="Node000014" class="node">
<title>Node14</title>
<g id="a_Node000014"><a xlink:href="PhysicalLayer_8h.html" target="_top" xlink:title=" ">
<polygon fill="white" stroke="#666666" points="290,-250 167,-250 167,-220 290,-220 290,-250"/>
<text text-anchor="start" x="175" y="-238" font-family="Helvetica,sans-Serif" font-size="10.00">../../protocols/Physical</text>
<text text-anchor="middle" x="228.5" y="-227" font-family="Helvetica,sans-Serif" font-size="10.00">Layer/PhysicalLayer.h</text>
</a>
</g>
</g>
<!-- Node13&#45;&gt;Node14 -->
<g id="edge23_Node000013_Node000014" class="edge">
<title>Node13&#45;&gt;Node14</title>
<g id="a_edge23_Node000013_Node000014"><a xlink:title=" ">
<path fill="none" stroke="#63b8ff" d="M228.5,-285.87C228.5,-279.11 228.5,-269.35 228.5,-260.26"/>
<polygon fill="#63b8ff" stroke="#63b8ff" points="232,-260.11 228.5,-250.11 225,-260.11 232,-260.11"/>
</a>
</g>
</g>
<!-- Node14&#45;&gt;Node2 -->
<g id="edge24_Node000014_Node000002" class="edge">
<title>Node14&#45;&gt;Node2</title>
<g id="a_edge24_Node000014_Node000002"><a xlink:title=" ">
<path fill="none" stroke="#63b8ff" d="M217.23,-219.63C200.71,-198.56 170,-159.4 152.54,-137.13"/>
<polygon fill="#63b8ff" stroke="#63b8ff" points="155.27,-134.94 146.35,-129.23 149.76,-139.26 155.27,-134.94"/>
</a>
</g>
</g>
<!-- Node14&#45;&gt;Node7 -->
<g id="edge25_Node000014_Node000007" class="edge">
<title>Node14&#45;&gt;Node7</title>
<g id="a_edge25_Node000014_Node000007"><a xlink:title=" ">
<path fill="none" stroke="#63b8ff" d="M249.56,-219.84C263.04,-210.77 280.49,-199.04 294.05,-189.92"/>
<polygon fill="#63b8ff" stroke="#63b8ff" points="296.37,-192.58 302.72,-184.09 292.47,-186.77 296.37,-192.58"/>
</a>
</g>
</g>
</g>
</svg>
