<?xml version="1.0" encoding="UTF-8" standalone="no"?>
<!DOCTYPE svg PUBLIC "-//W3C//DTD SVG 1.1//EN"
 "http://www.w3.org/Graphics/SVG/1.1/DTD/svg11.dtd">
<!-- Generated by graphviz version 2.43.0 (0)
 -->
<!-- Title: thirdparty/fmt/include/fmt/std.h Pages: 1 -->
<svg width="1669pt" height="313pt"
 viewBox="0.00 0.00 1669.00 313.00" xmlns="http://www.w3.org/2000/svg" xmlns:xlink="http://www.w3.org/1999/xlink">
<g id="graph0" class="graph" transform="scale(1 1) rotate(0) translate(4 309)">
<title>thirdparty/fmt/include/fmt/std.h</title>
<!-- Node1 -->
<g id="Node000001" class="node">
<title>Node1</title>
<g id="a_Node000001"><a xlink:title=" ">
<polygon fill="#999999" stroke="#666666" points="1249,-305 1126,-305 1126,-275 1249,-275 1249,-305"/>
<text text-anchor="start" x="1134" y="-293" font-family="Helvetica,sans-Serif" font-size="10.00">thirdparty/fmt/include</text>
<text text-anchor="middle" x="1187.5" y="-282" font-family="Helvetica,sans-Serif" font-size="10.00">/fmt/std.h</text>
</a>
</g>
</g>
<!-- Node2 -->
<g id="Node000002" class="node">
<title>Node2</title>
<g id="a_Node000002"><a xlink:href="format_8h.html" target="_top" xlink:title=" ">
<polygon fill="white" stroke="#666666" points="329,-129 270,-129 270,-110 329,-110 329,-129"/>
<text text-anchor="middle" x="299.5" y="-117" font-family="Helvetica,sans-Serif" font-size="10.00">format.h</text>
</a>
</g>
</g>
<!-- Node1&#45;&gt;Node2 -->
<g id="edge1_Node000001_Node000002" class="edge">
<title>Node1&#45;&gt;Node2</title>
<g id="a_edge1_Node000001_Node000002"><a xlink:title=" ">
<path fill="none" stroke="#63b8ff" d="M1125.97,-285.07C1039.37,-278.88 876.88,-264.8 740.5,-239 587.98,-210.15 410.8,-156.12 335.9,-132.29"/>
<polygon fill="#63b8ff" stroke="#63b8ff" points="336.61,-128.85 326.02,-129.14 334.48,-135.52 336.61,-128.85"/>
</a>
</g>
</g>
<!-- Node7 -->
<g id="Node000007" class="node">
<title>Node7</title>
<g id="a_Node000007"><a xlink:title=" ">
<polygon fill="#e0e0e0" stroke="#999999" points="922,-19 853,-19 853,0 922,0 922,-19"/>
<text text-anchor="middle" x="887.5" y="-7" font-family="Helvetica,sans-Serif" font-size="10.00">type_traits</text>
</a>
</g>
</g>
<!-- Node1&#45;&gt;Node7 -->
<g id="edge36_Node000001_Node000007" class="edge">
<title>Node1&#45;&gt;Node7</title>
<g id="a_edge36_Node000001_Node000007"><a xlink:title=" ">
<path fill="none" stroke="#63b8ff" d="M1126,-283.51C1062.95,-276.66 970.55,-262.85 944.5,-239 922.78,-219.1 925.5,-204.96 925.5,-175.5 925.5,-175.5 925.5,-175.5 925.5,-118.5 925.5,-85.02 909.05,-48.84 897.8,-28.01"/>
<polygon fill="#63b8ff" stroke="#63b8ff" points="900.74,-26.1 892.78,-19.1 894.63,-29.53 900.74,-26.1"/>
</a>
</g>
</g>
<!-- Node15 -->
<g id="Node000015" class="node">
<title>Node15</title>
<g id="a_Node000015"><a xlink:href="ostream_8h.html" target="_top" xlink:title=" ">
<polygon fill="white" stroke="#666666" points="815.5,-239 749.5,-239 749.5,-220 815.5,-220 815.5,-239"/>
<text text-anchor="middle" x="782.5" y="-227" font-family="Helvetica,sans-Serif" font-size="10.00">ostream.h</text>
</a>
</g>
</g>
<!-- Node1&#45;&gt;Node15 -->
<g id="edge15_Node000001_Node000015" class="edge">
<title>Node1&#45;&gt;Node15</title>
<g id="a_edge15_Node000001_Node000015"><a xlink:title=" ">
<path fill="none" stroke="#63b8ff" d="M1125.99,-280.12C1043.21,-268.16 898.02,-247.19 825.81,-236.76"/>
<polygon fill="#63b8ff" stroke="#63b8ff" points="826.1,-233.26 815.71,-235.3 825.1,-240.19 826.1,-233.26"/>
</a>
</g>
</g>
<!-- Node25 -->
<g id="Node000025" class="node">
<title>Node25</title>
<g id="a_Node000025"><a xlink:title=" ">
<polygon fill="#e0e0e0" stroke="#999999" points="1003.5,-239 953.5,-239 953.5,-220 1003.5,-220 1003.5,-239"/>
<text text-anchor="middle" x="978.5" y="-227" font-family="Helvetica,sans-Serif" font-size="10.00">atomic</text>
</a>
</g>
</g>
<!-- Node1&#45;&gt;Node25 -->
<g id="edge28_Node000001_Node000025" class="edge">
<title>Node1&#45;&gt;Node25</title>
<g id="a_edge28_Node000001_Node000025"><a xlink:title=" ">
<path fill="none" stroke="#63b8ff" d="M1137.44,-274.99C1099.24,-264.3 1047.59,-249.84 1013.68,-240.35"/>
<polygon fill="#63b8ff" stroke="#63b8ff" points="1014.33,-236.89 1003.75,-237.57 1012.44,-243.63 1014.33,-236.89"/>
</a>
</g>
</g>
<!-- Node26 -->
<g id="Node000026" class="node">
<title>Node26</title>
<g id="a_Node000026"><a xlink:title=" ">
<polygon fill="#e0e0e0" stroke="#999999" points="1065.5,-239 1021.5,-239 1021.5,-220 1065.5,-220 1065.5,-239"/>
<text text-anchor="middle" x="1043.5" y="-227" font-family="Helvetica,sans-Serif" font-size="10.00">bitset</text>
</a>
</g>
</g>
<!-- Node1&#45;&gt;Node26 -->
<g id="edge29_Node000001_Node000026" class="edge">
<title>Node1&#45;&gt;Node26</title>
<g id="a_edge29_Node000001_Node000026"><a xlink:title=" ">
<path fill="none" stroke="#63b8ff" d="M1153.01,-274.99C1128.98,-265.23 1097.23,-252.33 1074.1,-242.93"/>
<polygon fill="#63b8ff" stroke="#63b8ff" points="1075.35,-239.66 1064.77,-239.14 1072.71,-246.15 1075.35,-239.66"/>
</a>
</g>
</g>
<!-- Node27 -->
<g id="Node000027" class="node">
<title>Node27</title>
<g id="a_Node000027"><a xlink:title=" ">
<polygon fill="#e0e0e0" stroke="#999999" points="1143,-239 1084,-239 1084,-220 1143,-220 1143,-239"/>
<text text-anchor="middle" x="1113.5" y="-227" font-family="Helvetica,sans-Serif" font-size="10.00">complex</text>
</a>
</g>
</g>
<!-- Node1&#45;&gt;Node27 -->
<g id="edge30_Node000001_Node000027" class="edge">
<title>Node1&#45;&gt;Node27</title>
<g id="a_edge30_Node000001_Node000027"><a xlink:title=" ">
<path fill="none" stroke="#63b8ff" d="M1169.59,-274.84C1158.41,-266 1144.02,-254.63 1132.62,-245.62"/>
<polygon fill="#63b8ff" stroke="#63b8ff" points="1134.6,-242.72 1124.59,-239.27 1130.26,-248.21 1134.6,-242.72"/>
</a>
</g>
</g>
<!-- Node28 -->
<g id="Node000028" class="node">
<title>Node28</title>
<g id="a_Node000028"><a xlink:title=" ">
<polygon fill="#e0e0e0" stroke="#999999" points="1214,-239 1161,-239 1161,-220 1214,-220 1214,-239"/>
<text text-anchor="middle" x="1187.5" y="-227" font-family="Helvetica,sans-Serif" font-size="10.00">cstddef</text>
</a>
</g>
</g>
<!-- Node1&#45;&gt;Node28 -->
<g id="edge31_Node000001_Node000028" class="edge">
<title>Node1&#45;&gt;Node28</title>
<g id="a_edge31_Node000001_Node000028"><a xlink:title=" ">
<path fill="none" stroke="#63b8ff" d="M1187.5,-274.84C1187.5,-267.21 1187.5,-257.7 1187.5,-249.45"/>
<polygon fill="#63b8ff" stroke="#63b8ff" points="1191,-249.27 1187.5,-239.27 1184,-249.27 1191,-249.27"/>
</a>
</g>
</g>
<!-- Node29 -->
<g id="Node000029" class="node">
<title>Node29</title>
<g id="a_Node000029"><a xlink:title=" ">
<polygon fill="#e0e0e0" stroke="#999999" points="1297,-239 1232,-239 1232,-220 1297,-220 1297,-239"/>
<text text-anchor="middle" x="1264.5" y="-227" font-family="Helvetica,sans-Serif" font-size="10.00">exception</text>
</a>
</g>
</g>
<!-- Node1&#45;&gt;Node29 -->
<g id="edge32_Node000001_Node000029" class="edge">
<title>Node1&#45;&gt;Node29</title>
<g id="a_edge32_Node000001_Node000029"><a xlink:title=" ">
<path fill="none" stroke="#63b8ff" d="M1206.14,-274.84C1217.89,-265.91 1233.03,-254.41 1244.95,-245.35"/>
<polygon fill="#63b8ff" stroke="#63b8ff" points="1247.12,-248.1 1252.96,-239.27 1242.88,-242.53 1247.12,-248.1"/>
</a>
</g>
</g>
<!-- Node30 -->
<g id="Node000030" class="node">
<title>Node30</title>
<g id="a_Node000030"><a xlink:title=" ">
<polygon fill="#e0e0e0" stroke="#999999" points="1380,-239 1315,-239 1315,-220 1380,-220 1380,-239"/>
<text text-anchor="middle" x="1347.5" y="-227" font-family="Helvetica,sans-Serif" font-size="10.00">functional</text>
</a>
</g>
</g>
<!-- Node1&#45;&gt;Node30 -->
<g id="edge33_Node000001_Node000030" class="edge">
<title>Node1&#45;&gt;Node30</title>
<g id="a_edge33_Node000001_Node000030"><a xlink:title=" ">
<path fill="none" stroke="#63b8ff" d="M1225.82,-274.99C1252.76,-265.14 1288.43,-252.1 1314.19,-242.68"/>
<polygon fill="#63b8ff" stroke="#63b8ff" points="1315.68,-245.86 1323.87,-239.14 1313.28,-239.29 1315.68,-245.86"/>
</a>
</g>
</g>
<!-- Node31 -->
<g id="Node000031" class="node">
<title>Node31</title>
<g id="a_Node000031"><a xlink:title=" ">
<polygon fill="#e0e0e0" stroke="#999999" points="1456.5,-239 1398.5,-239 1398.5,-220 1456.5,-220 1456.5,-239"/>
<text text-anchor="middle" x="1427.5" y="-227" font-family="Helvetica,sans-Serif" font-size="10.00">memory</text>
</a>
</g>
</g>
<!-- Node1&#45;&gt;Node31 -->
<g id="edge34_Node000001_Node000031" class="edge">
<title>Node1&#45;&gt;Node31</title>
<g id="a_edge34_Node000001_Node000031"><a xlink:title=" ">
<path fill="none" stroke="#63b8ff" d="M1244.99,-274.99C1289.41,-264.16 1349.7,-249.46 1388.61,-239.98"/>
<polygon fill="#63b8ff" stroke="#63b8ff" points="1389.61,-243.34 1398.5,-237.57 1387.95,-236.54 1389.61,-243.34"/>
</a>
</g>
</g>
<!-- Node32 -->
<g id="Node000032" class="node">
<title>Node32</title>
<g id="a_Node000032"><a xlink:title=" ">
<polygon fill="#e0e0e0" stroke="#999999" points="1522.5,-239 1474.5,-239 1474.5,-220 1522.5,-220 1522.5,-239"/>
<text text-anchor="middle" x="1498.5" y="-227" font-family="Helvetica,sans-Serif" font-size="10.00">thread</text>
</a>
</g>
</g>
<!-- Node1&#45;&gt;Node32 -->
<g id="edge35_Node000001_Node000032" class="edge">
<title>Node1&#45;&gt;Node32</title>
<g id="a_edge35_Node000001_Node000032"><a xlink:title=" ">
<path fill="none" stroke="#63b8ff" d="M1249.04,-279.28C1303.23,-270.41 1384.48,-256.38 1464.18,-239.15"/>
<polygon fill="#63b8ff" stroke="#63b8ff" points="1465.37,-242.48 1474.4,-236.93 1463.88,-235.64 1465.37,-242.48"/>
</a>
</g>
</g>
<!-- Node33 -->
<g id="Node000033" class="node">
<title>Node33</title>
<g id="a_Node000033"><a xlink:title=" ">
<polygon fill="#e0e0e0" stroke="#999999" points="1598,-239 1541,-239 1541,-220 1598,-220 1598,-239"/>
<text text-anchor="middle" x="1569.5" y="-227" font-family="Helvetica,sans-Serif" font-size="10.00">typeinfo</text>
</a>
</g>
</g>
<!-- Node1&#45;&gt;Node33 -->
<g id="edge37_Node000001_Node000033" class="edge">
<title>Node1&#45;&gt;Node33</title>
<g id="a_edge37_Node000001_Node000033"><a xlink:title=" ">
<path fill="none" stroke="#63b8ff" d="M1249.25,-281.46C1316.12,-272.97 1426.13,-258.07 1530.8,-239"/>
<polygon fill="#63b8ff" stroke="#63b8ff" points="1531.71,-242.39 1540.91,-237.14 1530.45,-235.5 1531.71,-242.39"/>
</a>
</g>
</g>
<!-- Node34 -->
<g id="Node000034" class="node">
<title>Node34</title>
<g id="a_Node000034"><a xlink:title=" ">
<polygon fill="#e0e0e0" stroke="#999999" points="1661,-239 1616,-239 1616,-220 1661,-220 1661,-239"/>
<text text-anchor="middle" x="1638.5" y="-227" font-family="Helvetica,sans-Serif" font-size="10.00">utility</text>
</a>
</g>
</g>
<!-- Node1&#45;&gt;Node34 -->
<g id="edge38_Node000001_Node000034" class="edge">
<title>Node1&#45;&gt;Node34</title>
<g id="a_edge38_Node000001_Node000034"><a xlink:title=" ">
<path fill="none" stroke="#63b8ff" d="M1249.16,-284.56C1329.42,-278.13 1474.1,-264.35 1606.03,-239.04"/>
<polygon fill="#63b8ff" stroke="#63b8ff" points="1606.76,-242.46 1615.91,-237.11 1605.42,-235.59 1606.76,-242.46"/>
</a>
</g>
</g>
<!-- Node3 -->
<g id="Node000003" class="node">
<title>Node3</title>
<g id="a_Node000003"><a xlink:href="base_8h.html" target="_top" xlink:title=" ">
<polygon fill="white" stroke="#666666" points="117,-74 68,-74 68,-55 117,-55 117,-74"/>
<text text-anchor="middle" x="92.5" y="-62" font-family="Helvetica,sans-Serif" font-size="10.00">base.h</text>
</a>
</g>
</g>
<!-- Node2&#45;&gt;Node3 -->
<g id="edge2_Node000002_Node000003" class="edge">
<title>Node2&#45;&gt;Node3</title>
<g id="a_edge2_Node000002_Node000003"><a xlink:title=" ">
<path fill="none" stroke="#63b8ff" d="M269.94,-110.96C237.21,-102.6 182.63,-88.65 126.72,-74.31"/>
<polygon fill="#63b8ff" stroke="#63b8ff" points="127.56,-70.91 117.01,-71.82 125.82,-77.69 127.56,-70.91"/>
</a>
</g>
</g>
<!-- Node6 -->
<g id="Node000006" class="node">
<title>Node6</title>
<g id="a_Node000006"><a xlink:title=" ">
<polygon fill="#e0e0e0" stroke="#999999" points="53,-19 0,-19 0,0 53,0 53,-19"/>
<text text-anchor="middle" x="26.5" y="-7" font-family="Helvetica,sans-Serif" font-size="10.00">string.h</text>
</a>
</g>
</g>
<!-- Node2&#45;&gt;Node6 -->
<g id="edge9_Node000002_Node000006" class="edge">
<title>Node2&#45;&gt;Node6</title>
<g id="a_edge9_Node000002_Node000006"><a xlink:title=" ">
<path fill="none" stroke="#63b8ff" d="M269.75,-116.29C212.9,-111.55 91.52,-98.76 58.5,-74 43.86,-63.02 35.45,-43.47 30.96,-28.95"/>
<polygon fill="#63b8ff" stroke="#63b8ff" points="34.26,-27.78 28.25,-19.06 27.51,-29.63 34.26,-27.78"/>
</a>
</g>
</g>
<!-- Node8 -->
<g id="Node000008" class="node">
<title>Node8</title>
<g id="a_Node000008"><a xlink:title=" ">
<polygon fill="#e0e0e0" stroke="#999999" points="188,-74 135,-74 135,-55 188,-55 188,-74"/>
<text text-anchor="middle" x="161.5" y="-62" font-family="Helvetica,sans-Serif" font-size="10.00">stdint.h</text>
</a>
</g>
</g>
<!-- Node2&#45;&gt;Node8 -->
<g id="edge7_Node000002_Node000008" class="edge">
<title>Node2&#45;&gt;Node8</title>
<g id="a_edge7_Node000002_Node000008"><a xlink:title=" ">
<path fill="none" stroke="#63b8ff" d="M277.33,-109.98C254.73,-101.3 219.44,-87.75 193.75,-77.88"/>
<polygon fill="#63b8ff" stroke="#63b8ff" points="194.67,-74.49 184.08,-74.17 192.16,-81.02 194.67,-74.49"/>
</a>
</g>
</g>
<!-- Node9 -->
<g id="Node000009" class="node">
<title>Node9</title>
<g id="a_Node000009"><a xlink:title=" ">
<polygon fill="#e0e0e0" stroke="#999999" points="259,-74 206,-74 206,-55 259,-55 259,-74"/>
<text text-anchor="middle" x="232.5" y="-62" font-family="Helvetica,sans-Serif" font-size="10.00">stdlib.h</text>
</a>
</g>
</g>
<!-- Node2&#45;&gt;Node9 -->
<g id="edge8_Node000002_Node000009" class="edge">
<title>Node2&#45;&gt;Node9</title>
<g id="a_edge8_Node000002_Node000009"><a xlink:title=" ">
<path fill="none" stroke="#63b8ff" d="M288.74,-109.98C278.73,-102.07 263.61,-90.11 251.57,-80.58"/>
<polygon fill="#63b8ff" stroke="#63b8ff" points="253.47,-77.63 243.46,-74.17 249.13,-83.12 253.47,-77.63"/>
</a>
</g>
</g>
<!-- Node10 -->
<g id="Node000010" class="node">
<title>Node10</title>
<g id="a_Node000010"><a xlink:title=" ">
<polygon fill="#e0e0e0" stroke="#999999" points="632,-74 585,-74 585,-55 632,-55 632,-74"/>
<text text-anchor="middle" x="608.5" y="-62" font-family="Helvetica,sans-Serif" font-size="10.00">cmath</text>
</a>
</g>
</g>
<!-- Node2&#45;&gt;Node10 -->
<g id="edge10_Node000002_Node000010" class="edge">
<title>Node2&#45;&gt;Node10</title>
<g id="a_edge10_Node000002_Node000010"><a xlink:title=" ">
<path fill="none" stroke="#63b8ff" d="M329.29,-112.59C334.04,-111.69 338.9,-110.8 343.5,-110 443.19,-92.64 471.59,-94.88 574.88,-73.94"/>
<polygon fill="#63b8ff" stroke="#63b8ff" points="575.68,-77.35 584.77,-71.91 574.27,-70.49 575.68,-77.35"/>
</a>
</g>
</g>
<!-- Node11 -->
<g id="Node000011" class="node">
<title>Node11</title>
<g id="a_Node000011"><a xlink:title=" ">
<polygon fill="#e0e0e0" stroke="#999999" points="321.5,-74 277.5,-74 277.5,-55 321.5,-55 321.5,-74"/>
<text text-anchor="middle" x="299.5" y="-62" font-family="Helvetica,sans-Serif" font-size="10.00">limits</text>
</a>
</g>
</g>
<!-- Node2&#45;&gt;Node11 -->
<g id="edge11_Node000002_Node000011" class="edge">
<title>Node2&#45;&gt;Node11</title>
<g id="a_edge11_Node000002_Node000011"><a xlink:title=" ">
<path fill="none" stroke="#63b8ff" d="M299.5,-109.75C299.5,-102.8 299.5,-92.85 299.5,-84.13"/>
<polygon fill="#63b8ff" stroke="#63b8ff" points="303,-84.09 299.5,-74.09 296,-84.09 303,-84.09"/>
</a>
</g>
</g>
<!-- Node12 -->
<g id="Node000012" class="node">
<title>Node12</title>
<g id="a_Node000012"><a xlink:title=" ">
<polygon fill="#e0e0e0" stroke="#999999" points="405,-74 340,-74 340,-55 405,-55 405,-74"/>
<text text-anchor="middle" x="372.5" y="-62" font-family="Helvetica,sans-Serif" font-size="10.00">stdexcept</text>
</a>
</g>
</g>
<!-- Node2&#45;&gt;Node12 -->
<g id="edge12_Node000002_Node000012" class="edge">
<title>Node2&#45;&gt;Node12</title>
<g id="a_edge12_Node000002_Node000012"><a xlink:title=" ">
<path fill="none" stroke="#63b8ff" d="M311.23,-109.98C322.23,-102 338.92,-89.88 352.1,-80.31"/>
<polygon fill="#63b8ff" stroke="#63b8ff" points="354.52,-82.88 360.56,-74.17 350.41,-77.21 354.52,-82.88"/>
</a>
</g>
</g>
<!-- Node13 -->
<g id="Node000013" class="node">
<title>Node13</title>
<g id="a_Node000013"><a xlink:title=" ">
<polygon fill="#e0e0e0" stroke="#999999" points="467.5,-74 423.5,-74 423.5,-55 467.5,-55 467.5,-74"/>
<text text-anchor="middle" x="445.5" y="-62" font-family="Helvetica,sans-Serif" font-size="10.00">string</text>
</a>
</g>
</g>
<!-- Node2&#45;&gt;Node13 -->
<g id="edge13_Node000002_Node000013" class="edge">
<title>Node2&#45;&gt;Node13</title>
<g id="a_edge13_Node000002_Node000013"><a xlink:title=" ">
<path fill="none" stroke="#63b8ff" d="M322.96,-109.98C347.51,-101.07 386.22,-87.02 413.55,-77.1"/>
<polygon fill="#63b8ff" stroke="#63b8ff" points="414.85,-80.35 423.06,-73.65 412.47,-73.77 414.85,-80.35"/>
</a>
</g>
</g>
<!-- Node14 -->
<g id="Node000014" class="node">
<title>Node14</title>
<g id="a_Node000014"><a xlink:title=" ">
<polygon fill="#e0e0e0" stroke="#999999" points="567,-74 486,-74 486,-55 567,-55 567,-74"/>
<text text-anchor="middle" x="526.5" y="-62" font-family="Helvetica,sans-Serif" font-size="10.00">system_error</text>
</a>
</g>
</g>
<!-- Node2&#45;&gt;Node14 -->
<g id="edge14_Node000002_Node000014" class="edge">
<title>Node2&#45;&gt;Node14</title>
<g id="a_edge14_Node000002_Node000014"><a xlink:title=" ">
<path fill="none" stroke="#63b8ff" d="M329.18,-111.57C367.61,-102.6 435.02,-86.86 480.21,-76.31"/>
<polygon fill="#63b8ff" stroke="#63b8ff" points="481.12,-79.69 490.06,-74.01 479.53,-72.87 481.12,-79.69"/>
</a>
</g>
</g>
<!-- Node4 -->
<g id="Node000004" class="node">
<title>Node4</title>
<g id="a_Node000004"><a xlink:title=" ">
<polygon fill="#e0e0e0" stroke="#999999" points="124,-19 71,-19 71,0 124,0 124,-19"/>
<text text-anchor="middle" x="97.5" y="-7" font-family="Helvetica,sans-Serif" font-size="10.00">limits.h</text>
</a>
</g>
</g>
<!-- Node3&#45;&gt;Node4 -->
<g id="edge3_Node000003_Node000004" class="edge">
<title>Node3&#45;&gt;Node4</title>
<g id="a_edge3_Node000003_Node000004"><a xlink:title=" ">
<path fill="none" stroke="#63b8ff" d="M93.33,-54.75C93.98,-47.8 94.92,-37.85 95.74,-29.13"/>
<polygon fill="#63b8ff" stroke="#63b8ff" points="99.23,-29.37 96.69,-19.09 92.27,-28.72 99.23,-29.37"/>
</a>
</g>
</g>
<!-- Node5 -->
<g id="Node000005" class="node">
<title>Node5</title>
<g id="a_Node000005"><a xlink:title=" ">
<polygon fill="#e0e0e0" stroke="#999999" points="192.5,-19 142.5,-19 142.5,0 192.5,0 192.5,-19"/>
<text text-anchor="middle" x="167.5" y="-7" font-family="Helvetica,sans-Serif" font-size="10.00">stdio.h</text>
</a>
</g>
</g>
<!-- Node3&#45;&gt;Node5 -->
<g id="edge4_Node000003_Node000005" class="edge">
<title>Node3&#45;&gt;Node5</title>
<g id="a_edge4_Node000003_Node000005"><a xlink:title=" ">
<path fill="none" stroke="#63b8ff" d="M104.55,-54.98C115.96,-46.92 133.33,-34.65 146.93,-25.03"/>
<polygon fill="#63b8ff" stroke="#63b8ff" points="149.08,-27.8 155.23,-19.17 145.04,-22.08 149.08,-27.8"/>
</a>
</g>
</g>
<!-- Node3&#45;&gt;Node6 -->
<g id="edge5_Node000003_Node000006" class="edge">
<title>Node3&#45;&gt;Node6</title>
<g id="a_edge5_Node000003_Node000006"><a xlink:title=" ">
<path fill="none" stroke="#63b8ff" d="M81.9,-54.98C72.04,-47.07 57.15,-35.11 45.28,-25.58"/>
<polygon fill="#63b8ff" stroke="#63b8ff" points="47.29,-22.7 37.3,-19.17 42.9,-28.16 47.29,-22.7"/>
</a>
</g>
</g>
<!-- Node3&#45;&gt;Node7 -->
<g id="edge6_Node000003_Node000007" class="edge">
<title>Node3&#45;&gt;Node7</title>
<g id="a_edge6_Node000003_Node000007"><a xlink:title=" ">
<path fill="none" stroke="#63b8ff" d="M117.26,-56.57C120.02,-55.96 122.81,-55.42 125.5,-55 395.24,-12.79 724.37,-9.7 842.57,-10.1"/>
<polygon fill="#63b8ff" stroke="#63b8ff" points="842.67,-13.6 852.69,-10.14 842.7,-6.6 842.67,-13.6"/>
</a>
</g>
</g>
<!-- Node16 -->
<g id="Node000016" class="node">
<title>Node16</title>
<g id="a_Node000016"><a xlink:title=" ">
<polygon fill="#e0e0e0" stroke="#999999" points="810,-184 755,-184 755,-165 810,-165 810,-184"/>
<text text-anchor="middle" x="782.5" y="-172" font-family="Helvetica,sans-Serif" font-size="10.00">fstream</text>
</a>
</g>
</g>
<!-- Node15&#45;&gt;Node16 -->
<g id="edge16_Node000015_Node000016" class="edge">
<title>Node15&#45;&gt;Node16</title>
<g id="a_edge16_Node000015_Node000016"><a xlink:title=" ">
<path fill="none" stroke="#63b8ff" d="M782.5,-219.75C782.5,-212.8 782.5,-202.85 782.5,-194.13"/>
<polygon fill="#63b8ff" stroke="#63b8ff" points="786,-194.09 782.5,-184.09 779,-194.09 786,-194.09"/>
</a>
</g>
</g>
<!-- Node17 -->
<g id="Node000017" class="node">
<title>Node17</title>
<g id="a_Node000017"><a xlink:href="chrono_8h.html" target="_top" xlink:title=" ">
<polygon fill="white" stroke="#666666" points="655,-184 596,-184 596,-165 655,-165 655,-184"/>
<text text-anchor="middle" x="625.5" y="-172" font-family="Helvetica,sans-Serif" font-size="10.00">chrono.h</text>
</a>
</g>
</g>
<!-- Node15&#45;&gt;Node17 -->
<g id="edge17_Node000015_Node000017" class="edge">
<title>Node15&#45;&gt;Node17</title>
<g id="a_edge17_Node000015_Node000017"><a xlink:title=" ">
<path fill="none" stroke="#63b8ff" d="M757.28,-219.98C731.14,-211.16 690.1,-197.31 660.77,-187.41"/>
<polygon fill="#63b8ff" stroke="#63b8ff" points="661.52,-183.96 650.92,-184.08 659.28,-190.6 661.52,-183.96"/>
</a>
</g>
</g>
<!-- Node17&#45;&gt;Node2 -->
<g id="edge27_Node000017_Node000002" class="edge">
<title>Node17&#45;&gt;Node2</title>
<g id="a_edge27_Node000017_Node000002"><a xlink:title=" ">
<path fill="none" stroke="#63b8ff" d="M595.81,-169.16C544.34,-161.55 435.28,-145.1 343.5,-129 342.21,-128.77 340.89,-128.54 339.57,-128.3"/>
<polygon fill="#63b8ff" stroke="#63b8ff" points="339.77,-124.78 329.3,-126.4 338.49,-131.66 339.77,-124.78"/>
</a>
</g>
</g>
<!-- Node17&#45;&gt;Node7 -->
<g id="edge26_Node000017_Node000007" class="edge">
<title>Node17&#45;&gt;Node7</title>
<g id="a_edge26_Node000017_Node000007"><a xlink:title=" ">
<path fill="none" stroke="#63b8ff" d="M655.34,-172.22C713.57,-169.07 839.26,-158.89 868.5,-129 894.52,-102.4 893.48,-55.25 890.48,-29.16"/>
<polygon fill="#63b8ff" stroke="#63b8ff" points="893.92,-28.53 889.09,-19.1 886.99,-29.48 893.92,-28.53"/>
</a>
</g>
</g>
<!-- Node17&#45;&gt;Node10 -->
<g id="edge20_Node000017_Node000010" class="edge">
<title>Node17&#45;&gt;Node10</title>
<g id="a_edge20_Node000017_Node000010"><a xlink:title=" ">
<path fill="none" stroke="#63b8ff" d="M595.89,-172.77C536.08,-170.6 404.2,-162.08 376.5,-129 335.84,-80.43 276.16,-138.55 574.9,-73.98"/>
<polygon fill="#63b8ff" stroke="#63b8ff" points="575.73,-77.38 584.76,-71.84 574.24,-70.54 575.73,-77.38"/>
</a>
</g>
</g>
<!-- Node18 -->
<g id="Node000018" class="node">
<title>Node18</title>
<g id="a_Node000018"><a xlink:title=" ">
<polygon fill="#e0e0e0" stroke="#999999" points="449.5,-129 385.5,-129 385.5,-110 449.5,-110 449.5,-129"/>
<text text-anchor="middle" x="417.5" y="-117" font-family="Helvetica,sans-Serif" font-size="10.00">algorithm</text>
</a>
</g>
</g>
<!-- Node17&#45;&gt;Node18 -->
<g id="edge18_Node000017_Node000018" class="edge">
<title>Node17&#45;&gt;Node18</title>
<g id="a_edge18_Node000017_Node000018"><a xlink:title=" ">
<path fill="none" stroke="#63b8ff" d="M595.7,-165.91C559.97,-156.8 499.87,-141.49 459.46,-131.19"/>
<polygon fill="#63b8ff" stroke="#63b8ff" points="460.19,-127.77 449.64,-128.69 458.46,-134.55 460.19,-127.77"/>
</a>
</g>
</g>
<!-- Node19 -->
<g id="Node000019" class="node">
<title>Node19</title>
<g id="a_Node000019"><a xlink:title=" ">
<polygon fill="#e0e0e0" stroke="#999999" points="517.5,-129 467.5,-129 467.5,-110 517.5,-110 517.5,-129"/>
<text text-anchor="middle" x="492.5" y="-117" font-family="Helvetica,sans-Serif" font-size="10.00">chrono</text>
</a>
</g>
</g>
<!-- Node17&#45;&gt;Node19 -->
<g id="edge19_Node000017_Node000019" class="edge">
<title>Node17&#45;&gt;Node19</title>
<g id="a_edge19_Node000017_Node000019"><a xlink:title=" ">
<path fill="none" stroke="#63b8ff" d="M604.13,-164.98C582.35,-156.3 548.34,-142.75 523.58,-132.88"/>
<polygon fill="#63b8ff" stroke="#63b8ff" points="524.84,-129.62 514.26,-129.17 522.25,-136.12 524.84,-129.62"/>
</a>
</g>
</g>
<!-- Node20 -->
<g id="Node000020" class="node">
<title>Node20</title>
<g id="a_Node000020"><a xlink:title=" ">
<polygon fill="#e0e0e0" stroke="#999999" points="585.5,-129 535.5,-129 535.5,-110 585.5,-110 585.5,-129"/>
<text text-anchor="middle" x="560.5" y="-117" font-family="Helvetica,sans-Serif" font-size="10.00">cstring</text>
</a>
</g>
</g>
<!-- Node17&#45;&gt;Node20 -->
<g id="edge21_Node000017_Node000020" class="edge">
<title>Node17&#45;&gt;Node20</title>
<g id="a_edge21_Node000017_Node000020"><a xlink:title=" ">
<path fill="none" stroke="#63b8ff" d="M615.06,-164.98C605.35,-157.07 590.68,-145.11 579,-135.58"/>
<polygon fill="#63b8ff" stroke="#63b8ff" points="581.1,-132.78 571.13,-129.17 576.67,-138.2 581.1,-132.78"/>
</a>
</g>
</g>
<!-- Node21 -->
<g id="Node000021" class="node">
<title>Node21</title>
<g id="a_Node000021"><a xlink:title=" ">
<polygon fill="#e0e0e0" stroke="#999999" points="647.5,-129 603.5,-129 603.5,-110 647.5,-110 647.5,-129"/>
<text text-anchor="middle" x="625.5" y="-117" font-family="Helvetica,sans-Serif" font-size="10.00">ctime</text>
</a>
</g>
</g>
<!-- Node17&#45;&gt;Node21 -->
<g id="edge22_Node000017_Node000021" class="edge">
<title>Node17&#45;&gt;Node21</title>
<g id="a_edge22_Node000017_Node000021"><a xlink:title=" ">
<path fill="none" stroke="#63b8ff" d="M625.5,-164.75C625.5,-157.8 625.5,-147.85 625.5,-139.13"/>
<polygon fill="#63b8ff" stroke="#63b8ff" points="629,-139.09 625.5,-129.09 622,-139.09 629,-139.09"/>
</a>
</g>
</g>
<!-- Node22 -->
<g id="Node000022" class="node">
<title>Node22</title>
<g id="a_Node000022"><a xlink:title=" ">
<polygon fill="#e0e0e0" stroke="#999999" points="719,-129 666,-129 666,-110 719,-110 719,-129"/>
<text text-anchor="middle" x="692.5" y="-117" font-family="Helvetica,sans-Serif" font-size="10.00">iterator</text>
</a>
</g>
</g>
<!-- Node17&#45;&gt;Node22 -->
<g id="edge23_Node000017_Node000022" class="edge">
<title>Node17&#45;&gt;Node22</title>
<g id="a_edge23_Node000017_Node000022"><a xlink:title=" ">
<path fill="none" stroke="#63b8ff" d="M636.26,-164.98C646.27,-157.07 661.39,-145.11 673.43,-135.58"/>
<polygon fill="#63b8ff" stroke="#63b8ff" points="675.87,-138.12 681.54,-129.17 671.53,-132.63 675.87,-138.12"/>
</a>
</g>
</g>
<!-- Node23 -->
<g id="Node000023" class="node">
<title>Node23</title>
<g id="a_Node000023"><a xlink:title=" ">
<polygon fill="#e0e0e0" stroke="#999999" points="783.5,-129 737.5,-129 737.5,-110 783.5,-110 783.5,-129"/>
<text text-anchor="middle" x="760.5" y="-117" font-family="Helvetica,sans-Serif" font-size="10.00">locale</text>
</a>
</g>
</g>
<!-- Node17&#45;&gt;Node23 -->
<g id="edge24_Node000017_Node000023" class="edge">
<title>Node17&#45;&gt;Node23</title>
<g id="a_edge24_Node000017_Node000023"><a xlink:title=" ">
<path fill="none" stroke="#63b8ff" d="M647.19,-164.98C669.3,-156.3 703.82,-142.75 728.95,-132.88"/>
<polygon fill="#63b8ff" stroke="#63b8ff" points="730.39,-136.08 738.42,-129.17 727.83,-129.57 730.39,-136.08"/>
</a>
</g>
</g>
<!-- Node24 -->
<g id="Node000024" class="node">
<title>Node24</title>
<g id="a_Node000024"><a xlink:title=" ">
<polygon fill="#e0e0e0" stroke="#999999" points="859,-129 802,-129 802,-110 859,-110 859,-129"/>
<text text-anchor="middle" x="830.5" y="-117" font-family="Helvetica,sans-Serif" font-size="10.00">ostream</text>
</a>
</g>
</g>
<!-- Node17&#45;&gt;Node24 -->
<g id="edge25_Node000017_Node000024" class="edge">
<title>Node17&#45;&gt;Node24</title>
<g id="a_edge25_Node000017_Node000024"><a xlink:title=" ">
<path fill="none" stroke="#63b8ff" d="M655.31,-165.79C691.47,-156.44 752.51,-140.66 792.14,-130.42"/>
<polygon fill="#63b8ff" stroke="#63b8ff" points="793.17,-133.77 801.98,-127.87 791.42,-126.99 793.17,-133.77"/>
</a>
</g>
</g>
</g>
</svg>
