<?xml version="1.0" encoding="UTF-8" standalone="no"?>
<!DOCTYPE svg PUBLIC "-//W3C//DTD SVG 1.1//EN"
 "http://www.w3.org/Graphics/SVG/1.1/DTD/svg11.dtd">
<!-- Generated by graphviz version 2.43.0 (0)
 -->
<!-- Title: formatter&lt; bytes &gt;::parse Pages: 1 -->
<svg width="453pt" height="181pt"
 viewBox="0.00 0.00 453.00 181.00" xmlns="http://www.w3.org/2000/svg" xmlns:xlink="http://www.w3.org/1999/xlink">
<g id="graph0" class="graph" transform="scale(1 1) rotate(0) translate(4 177)">
<title>formatter&lt; bytes &gt;::parse</title>
<!-- Node1 -->
<g id="Node000001" class="node">
<title>Node1</title>
<g id="a_Node000001"><a xlink:title=" ">
<polygon fill="#999999" stroke="#666666" points="113,-141.5 0,-141.5 0,-111.5 113,-111.5 113,-141.5"/>
<text text-anchor="start" x="8" y="-129.5" font-family="Helvetica,sans-Serif" font-size="10.00">formatter&lt; bytes &gt;</text>
<text text-anchor="middle" x="56.5" y="-118.5" font-family="Helvetica,sans-Serif" font-size="10.00">::parse</text>
</a>
</g>
</g>
<!-- Node2 -->
<g id="Node000002" class="node">
<title>Node2</title>
<g id="a_Node000002"><a xlink:href="classparse__context.html#a1d66dcf5888a1473d1ac88ee7848426b" target="_top" xlink:title=" ">
<polygon fill="white" stroke="#666666" points="268,-173 149,-173 149,-154 268,-154 268,-173"/>
<text text-anchor="middle" x="208.5" y="-161" font-family="Helvetica,sans-Serif" font-size="10.00">parse_context::begin</text>
</a>
</g>
</g>
<!-- Node1&#45;&gt;Node2 -->
<g id="edge1_Node000001_Node000002" class="edge">
<title>Node1&#45;&gt;Node2</title>
<g id="a_edge1_Node000001_Node000002"><a xlink:title=" ">
<path fill="none" stroke="#63b8ff" d="M113.35,-140.28C128.38,-143.98 144.5,-147.96 159.08,-151.56"/>
<polygon fill="#63b8ff" stroke="#63b8ff" points="158.35,-154.98 168.9,-153.98 160.03,-148.19 158.35,-154.98"/>
</a>
</g>
</g>
<!-- Node3 -->
<g id="Node000003" class="node">
<title>Node3</title>
<g id="a_Node000003"><a xlink:href="classparse__context.html#ad10a0f3a57fbac77c207ae4bf8475bc2" target="_top" xlink:title="Returns an iterator past the end of the format string range being parsed.">
<polygon fill="white" stroke="#666666" points="263.5,-136 153.5,-136 153.5,-117 263.5,-117 263.5,-136"/>
<text text-anchor="middle" x="208.5" y="-124" font-family="Helvetica,sans-Serif" font-size="10.00">parse_context::end</text>
</a>
</g>
</g>
<!-- Node1&#45;&gt;Node3 -->
<g id="edge2_Node000001_Node000003" class="edge">
<title>Node1&#45;&gt;Node3</title>
<g id="a_edge2_Node000001_Node000003"><a xlink:title=" ">
<path fill="none" stroke="#63b8ff" d="M113.35,-126.5C123,-126.5 133.1,-126.5 142.95,-126.5"/>
<polygon fill="#63b8ff" stroke="#63b8ff" points="143.09,-130 153.09,-126.5 143.09,-123 143.09,-130"/>
</a>
</g>
</g>
<!-- Node4 -->
<g id="Node000004" class="node">
<title>Node4</title>
<g id="a_Node000004"><a xlink:href="namespacedetail.html#afbb7f1837c4f769e74317dec368c5206" target="_top" xlink:title=" ">
<polygon fill="white" stroke="#666666" points="266.5,-98.5 150.5,-98.5 150.5,-68.5 266.5,-68.5 266.5,-98.5"/>
<text text-anchor="start" x="158.5" y="-86.5" font-family="Helvetica,sans-Serif" font-size="10.00">detail::parse_format</text>
<text text-anchor="middle" x="208.5" y="-75.5" font-family="Helvetica,sans-Serif" font-size="10.00">_specs</text>
</a>
</g>
</g>
<!-- Node1&#45;&gt;Node4 -->
<g id="edge3_Node000001_Node000004" class="edge">
<title>Node1&#45;&gt;Node4</title>
<g id="a_edge3_Node000001_Node000004"><a xlink:title=" ">
<path fill="none" stroke="#63b8ff" d="M109.96,-111.46C121.38,-108.19 133.57,-104.69 145.32,-101.32"/>
<polygon fill="#63b8ff" stroke="#63b8ff" points="146.42,-104.65 155.07,-98.53 144.49,-97.92 146.42,-104.65"/>
</a>
</g>
</g>
<!-- Node5 -->
<g id="Node000005" class="node">
<title>Node5</title>
<g id="a_Node000005"><a xlink:href="namespacedetail.html#a52a5e2ed06c229dcf95ea5c46d48d05e" target="_top" xlink:title=" ">
<polygon fill="white" stroke="#666666" points="404,-167 345,-167 345,-148 404,-148 404,-167"/>
<text text-anchor="middle" x="374.5" y="-155" font-family="Helvetica,sans-Serif" font-size="10.00">detail::in</text>
</a>
</g>
</g>
<!-- Node4&#45;&gt;Node5 -->
<g id="edge4_Node000004_Node000005" class="edge">
<title>Node4&#45;&gt;Node5</title>
<g id="a_edge4_Node000004_Node000005"><a xlink:title=" ">
<path fill="none" stroke="#63b8ff" d="M249.36,-98.57C255.76,-101.54 262.19,-104.88 268,-108.5 285.92,-119.67 285.29,-129.71 304,-139.5 313.44,-144.44 324.33,-148.09 334.64,-150.76"/>
<polygon fill="#63b8ff" stroke="#63b8ff" points="334.16,-154.24 344.69,-153.11 335.75,-147.42 334.16,-154.24"/>
</a>
</g>
</g>
<!-- Node6 -->
<g id="Node000006" class="node">
<title>Node6</title>
<g id="a_Node000006"><a xlink:href="namespacedetail.html#a802c50a56a3495fdab6020b375ba1389" target="_top" xlink:title=" ">
<polygon fill="white" stroke="#666666" points="445,-130 304,-130 304,-111 445,-111 445,-130"/>
<text text-anchor="middle" x="374.5" y="-118" font-family="Helvetica,sans-Serif" font-size="10.00">detail::is_arithmetic_type</text>
</a>
</g>
</g>
<!-- Node4&#45;&gt;Node6 -->
<g id="edge5_Node000004_Node000006" class="edge">
<title>Node4&#45;&gt;Node6</title>
<g id="a_edge5_Node000004_Node000006"><a xlink:title=" ">
<path fill="none" stroke="#63b8ff" d="M266.86,-96.44C284.54,-100.43 303.91,-104.8 321.23,-108.71"/>
<polygon fill="#63b8ff" stroke="#63b8ff" points="320.64,-112.16 331.16,-110.95 322.18,-105.33 320.64,-112.16"/>
</a>
</g>
</g>
<!-- Node7 -->
<g id="Node000007" class="node">
<title>Node7</title>
<g id="a_Node000007"><a xlink:href="namespacedetail.html#ac9e2fcbf2e068bb286f629946e0bb31d" target="_top" xlink:title=" ">
<polygon fill="white" stroke="#666666" points="428,-93 321,-93 321,-74 428,-74 428,-93"/>
<text text-anchor="middle" x="374.5" y="-81" font-family="Helvetica,sans-Serif" font-size="10.00">detail::parse_align</text>
</a>
</g>
</g>
<!-- Node4&#45;&gt;Node7 -->
<g id="edge6_Node000004_Node000007" class="edge">
<title>Node4&#45;&gt;Node7</title>
<g id="a_edge6_Node000004_Node000007"><a xlink:title=" ">
<path fill="none" stroke="#63b8ff" d="M266.86,-83.5C280.98,-83.5 296.18,-83.5 310.55,-83.5"/>
<polygon fill="#63b8ff" stroke="#63b8ff" points="310.84,-87 320.84,-83.5 310.84,-80 310.84,-87"/>
</a>
</g>
</g>
<!-- Node8 -->
<g id="Node000008" class="node">
<title>Node8</title>
<g id="a_Node000008"><a xlink:href="format-inl_8h.html#a5555893692b00b61b3886349332fd01f" target="_top" xlink:title=" ">
<polygon fill="white" stroke="#666666" points="411.5,-56 337.5,-56 337.5,-37 411.5,-37 411.5,-56"/>
<text text-anchor="middle" x="374.5" y="-44" font-family="Helvetica,sans-Serif" font-size="10.00">report_error</text>
</a>
</g>
</g>
<!-- Node4&#45;&gt;Node8 -->
<g id="edge7_Node000004_Node000008" class="edge">
<title>Node4&#45;&gt;Node8</title>
<g id="a_edge7_Node000004_Node000008"><a xlink:title=" ">
<path fill="none" stroke="#63b8ff" d="M266.86,-70.56C286.75,-66.07 308.77,-61.1 327.61,-56.85"/>
<polygon fill="#63b8ff" stroke="#63b8ff" points="328.44,-60.25 337.43,-54.64 326.9,-53.43 328.44,-60.25"/>
</a>
</g>
</g>
<!-- Node9 -->
<g id="Node000009" class="node">
<title>Node9</title>
<g id="a_Node000009"><a xlink:href="classbasic__specs.html#ae6d1338471c931505ddcaf600557e830" target="_top" xlink:title=" ">
<polygon fill="white" stroke="#666666" points="436,-19 313,-19 313,0 436,0 436,-19"/>
<text text-anchor="middle" x="374.5" y="-7" font-family="Helvetica,sans-Serif" font-size="10.00">basic_specs::set_type</text>
</a>
</g>
</g>
<!-- Node4&#45;&gt;Node9 -->
<g id="edge8_Node000004_Node000009" class="edge">
<title>Node4&#45;&gt;Node9</title>
<g id="a_edge8_Node000004_Node000009"><a xlink:title=" ">
<path fill="none" stroke="#63b8ff" d="M231.56,-68.44C250.18,-56.27 277.92,-39.44 304,-28.5 309.75,-26.09 315.9,-23.89 322.08,-21.93"/>
<polygon fill="#63b8ff" stroke="#63b8ff" points="323.17,-25.25 331.74,-19.02 321.16,-18.55 323.17,-25.25"/>
</a>
</g>
</g>
</g>
</svg>
