<?xml version="1.0" encoding="UTF-8" standalone="no"?>
<!DOCTYPE svg PUBLIC "-//W3C//DTD SVG 1.1//EN"
 "http://www.w3.org/Graphics/SVG/1.1/DTD/svg11.dtd">
<!-- Generated by graphviz version 2.43.0 (0)
 -->
<!-- Title: formatter&lt; group_digits_view&lt; T &gt; &gt; Pages: 1 -->
<svg width="319pt" height="269pt"
 viewBox="0.00 0.00 319.00 269.00" xmlns="http://www.w3.org/2000/svg" xmlns:xlink="http://www.w3.org/1999/xlink">
<g id="graph0" class="graph" transform="scale(1 1) rotate(0) translate(4 265)">
<title>formatter&lt; group_digits_view&lt; T &gt; &gt;</title>
<!-- Node1 -->
<g id="Node000001" class="node">
<title>Node1</title>
<g id="a_Node000001"><a xlink:title=" ">
<polygon fill="#999999" stroke="#666666" points="139,-30 5,-30 5,0 139,0 139,-30"/>
<text text-anchor="start" x="13" y="-18" font-family="Helvetica,sans-Serif" font-size="10.00">formatter&lt; group_digits</text>
<text text-anchor="middle" x="72" y="-7" font-family="Helvetica,sans-Serif" font-size="10.00">_view&lt; T &gt; &gt;</text>
</a>
</g>
</g>
<!-- Node2 -->
<g id="Node000002" class="node">
<title>Node2</title>
<g id="a_Node000002"><a xlink:href="structformatter.html" target="_top" xlink:title=" ">
<polygon fill="white" stroke="#666666" points="112,-107 0,-107 0,-77 112,-77 112,-107"/>
<text text-anchor="start" x="8" y="-95" font-family="Helvetica,sans-Serif" font-size="10.00">formatter&lt; T, Char,</text>
<text text-anchor="middle" x="56" y="-84" font-family="Helvetica,sans-Serif" font-size="10.00"> Enable &gt;</text>
</a>
</g>
</g>
<!-- Node2&#45;&gt;Node1 -->
<g id="edge1_Node000001_Node000002" class="edge">
<title>Node2&#45;&gt;Node1</title>
<g id="a_edge1_Node000001_Node000002"><a xlink:title=" ">
<path fill="none" stroke="#63b8ff" d="M61.14,-66.91C63.74,-54.74 66.8,-40.4 69,-30.04"/>
<polygon fill="#63b8ff" stroke="#63b8ff" points="57.67,-66.38 59.01,-76.89 64.52,-67.84 57.67,-66.38"/>
</a>
</g>
</g>
<!-- Node3 -->
<g id="Node000003" class="node">
<title>Node3</title>
<g id="a_Node000003"><a xlink:href="structdetail_1_1dynamic__format__specs.html" target="_top" xlink:title=" ">
<polygon fill="white" stroke="#666666" points="261.5,-107 130.5,-107 130.5,-77 261.5,-77 261.5,-107"/>
<text text-anchor="start" x="138.5" y="-95" font-family="Helvetica,sans-Serif" font-size="10.00">detail::dynamic_format</text>
<text text-anchor="middle" x="196" y="-84" font-family="Helvetica,sans-Serif" font-size="10.00">_specs&lt; Char &gt;</text>
</a>
</g>
</g>
<!-- Node3&#45;&gt;Node1 -->
<g id="edge2_Node000001_Node000003" class="edge">
<title>Node3&#45;&gt;Node1</title>
<g id="a_edge2_Node000001_Node000003"><a xlink:title=" ">
<path fill="none" stroke="#9a32cd" stroke-dasharray="5,2" d="M163.89,-71.58C142.39,-58.58 114.59,-41.76 95.22,-30.04"/>
<polygon fill="#9a32cd" stroke="#9a32cd" points="162.31,-74.71 172.68,-76.89 165.93,-68.72 162.31,-74.71"/>
</a>
</g>
<text text-anchor="middle" x="160.5" y="-51" font-family="Helvetica,sans-Serif" font-size="10.00" fill="grey"> specs_</text>
</g>
<!-- Node4 -->
<g id="Node000004" class="node">
<title>Node4</title>
<g id="a_Node000004"><a xlink:href="structformat__specs.html" target="_top" xlink:title=" ">
<polygon fill="white" stroke="#666666" points="164.5,-184 81.5,-184 81.5,-165 164.5,-165 164.5,-184"/>
<text text-anchor="middle" x="123" y="-172" font-family="Helvetica,sans-Serif" font-size="10.00">format_specs</text>
</a>
</g>
</g>
<!-- Node4&#45;&gt;Node3 -->
<g id="edge3_Node000003_Node000004" class="edge">
<title>Node4&#45;&gt;Node3</title>
<g id="a_edge3_Node000003_Node000004"><a xlink:title=" ">
<path fill="none" stroke="#63b8ff" d="M137.85,-157.12C151.15,-142.46 170.45,-121.18 183.11,-107.22"/>
<polygon fill="#63b8ff" stroke="#63b8ff" points="134.94,-155.13 130.81,-164.89 140.12,-159.83 134.94,-155.13"/>
</a>
</g>
</g>
<!-- Node5 -->
<g id="Node000005" class="node">
<title>Node5</title>
<g id="a_Node000005"><a xlink:href="classbasic__specs.html" target="_top" xlink:title=" ">
<polygon fill="white" stroke="#666666" points="160.5,-255.5 85.5,-255.5 85.5,-236.5 160.5,-236.5 160.5,-255.5"/>
<text text-anchor="middle" x="123" y="-243.5" font-family="Helvetica,sans-Serif" font-size="10.00">basic_specs</text>
</a>
</g>
</g>
<!-- Node5&#45;&gt;Node4 -->
<g id="edge4_Node000004_Node000005" class="edge">
<title>Node5&#45;&gt;Node4</title>
<g id="a_edge4_Node000004_Node000005"><a xlink:title=" ">
<path fill="none" stroke="#63b8ff" d="M123,-226.21C123,-212.5 123,-194.55 123,-184.09"/>
<polygon fill="#63b8ff" stroke="#63b8ff" points="119.5,-226.48 123,-236.48 126.5,-226.48 119.5,-226.48"/>
</a>
</g>
</g>
<!-- Node6 -->
<g id="Node000006" class="node">
<title>Node6</title>
<g id="a_Node000006"><a xlink:href="uniondetail_1_1arg__ref.html" target="_top" xlink:title=" ">
<polygon fill="white" stroke="#666666" points="311,-184 183,-184 183,-165 311,-165 311,-184"/>
<text text-anchor="middle" x="247" y="-172" font-family="Helvetica,sans-Serif" font-size="10.00">detail::arg_ref&lt; char &gt;</text>
</a>
</g>
</g>
<!-- Node6&#45;&gt;Node3 -->
<g id="edge5_Node000003_Node000006" class="edge">
<title>Node6&#45;&gt;Node3</title>
<g id="a_edge5_Node000003_Node000006"><a xlink:title=" ">
<path fill="none" stroke="#9a32cd" stroke-dasharray="5,2" d="M236.1,-156.29C226.83,-141.67 213.69,-120.92 205.01,-107.22"/>
<polygon fill="#9a32cd" stroke="#9a32cd" points="233.23,-158.31 241.54,-164.89 239.15,-154.56 233.23,-158.31"/>
</a>
</g>
<text text-anchor="middle" x="263.5" y="-139" font-family="Helvetica,sans-Serif" font-size="10.00" fill="grey"> precision_ref</text>
<text text-anchor="middle" x="263.5" y="-128" font-family="Helvetica,sans-Serif" font-size="10.00" fill="grey">width_ref</text>
</g>
<!-- Node7 -->
<g id="Node000007" class="node">
<title>Node7</title>
<g id="a_Node000007"><a xlink:href="classbasic__string__view.html" target="_top" xlink:title=" ">
<polygon fill="white" stroke="#666666" points="303,-261 191,-261 191,-231 303,-231 303,-261"/>
<text text-anchor="start" x="199" y="-249" font-family="Helvetica,sans-Serif" font-size="10.00">basic_string_view&lt;</text>
<text text-anchor="middle" x="247" y="-238" font-family="Helvetica,sans-Serif" font-size="10.00"> char &gt;</text>
</a>
</g>
</g>
<!-- Node7&#45;&gt;Node6 -->
<g id="edge6_Node000006_Node000007" class="edge">
<title>Node7&#45;&gt;Node6</title>
<g id="a_edge6_Node000006_Node000007"><a xlink:title=" ">
<path fill="none" stroke="#9a32cd" stroke-dasharray="5,2" d="M247,-220.56C247,-207.95 247,-193.35 247,-184.27"/>
<polygon fill="#9a32cd" stroke="#9a32cd" points="243.5,-220.94 247,-230.94 250.5,-220.94 243.5,-220.94"/>
</a>
</g>
<text text-anchor="middle" x="262.5" y="-205" font-family="Helvetica,sans-Serif" font-size="10.00" fill="grey"> name</text>
</g>
</g>
</svg>
