<?xml version="1.0" encoding="UTF-8" standalone="no"?>
<!DOCTYPE svg PUBLIC "-//W3C//DTD SVG 1.1//EN"
 "http://www.w3.org/Graphics/SVG/1.1/DTD/svg11.dtd">
<!-- Generated by graphviz version 2.43.0 (0)
 -->
<!-- Title: detail::dragonbox::cache_accessor&lt; double &gt;::compute_right_endpoint_for_shorter_interval_case Pages: 1 -->
<svg width="349pt" height="64pt"
 viewBox="0.00 0.00 349.00 64.00" xmlns="http://www.w3.org/2000/svg" xmlns:xlink="http://www.w3.org/1999/xlink">
<g id="graph0" class="graph" transform="scale(1 1) rotate(0) translate(4 60)">
<title>detail::dragonbox::cache_accessor&lt; double &gt;::compute_right_endpoint_for_shorter_interval_case</title>
<!-- Node1 -->
<g id="Node000001" class="node">
<title>Node1</title>
<g id="a_Node000001"><a xlink:title=" ">
<polygon fill="#999999" stroke="#666666" points="152,-53.5 0,-53.5 0,-1.5 152,-1.5 152,-53.5"/>
<text text-anchor="start" x="8" y="-41.5" font-family="Helvetica,sans-Serif" font-size="10.00">detail::dragonbox::</text>
<text text-anchor="start" x="8" y="-30.5" font-family="Helvetica,sans-Serif" font-size="10.00">cache_accessor&lt; double</text>
<text text-anchor="start" x="8" y="-19.5" font-family="Helvetica,sans-Serif" font-size="10.00"> &gt;::compute_right_endpoint</text>
<text text-anchor="middle" x="76" y="-8.5" font-family="Helvetica,sans-Serif" font-size="10.00">_for_shorter_interval_case</text>
</a>
</g>
</g>
<!-- Node2 -->
<g id="Node000002" class="node">
<title>Node2</title>
<g id="a_Node000002"><a xlink:href="classdetail_1_1uint128.html#a4f6fce63fc851baef913a020abe8e961" target="_top" xlink:title=" ">
<polygon fill="white" stroke="#666666" points="321.5,-56 207.5,-56 207.5,-37 321.5,-37 321.5,-56"/>
<text text-anchor="middle" x="264.5" y="-44" font-family="Helvetica,sans-Serif" font-size="10.00">detail::uint128::high</text>
</a>
</g>
</g>
<!-- Node1&#45;&gt;Node2 -->
<g id="edge1_Node000001_Node000002" class="edge">
<title>Node1&#45;&gt;Node2</title>
<g id="a_edge1_Node000001_Node000002"><a xlink:title=" ">
<path fill="none" stroke="#63b8ff" d="M152.05,-35.15C167.02,-36.67 182.64,-38.26 197.28,-39.75"/>
<polygon fill="#63b8ff" stroke="#63b8ff" points="196.94,-43.24 207.24,-40.77 197.65,-36.27 196.94,-43.24"/>
</a>
</g>
</g>
<!-- Node3 -->
<g id="Node000003" class="node">
<title>Node3</title>
<g id="a_Node000003"><a xlink:href="namespacedetail.html#a92427cb4f879a333bb9224b880eefad5" target="_top" xlink:title=" ">
<polygon fill="white" stroke="#666666" points="341,-19 188,-19 188,0 341,0 341,-19"/>
<text text-anchor="middle" x="264.5" y="-7" font-family="Helvetica,sans-Serif" font-size="10.00">detail::num_significand_bits</text>
</a>
</g>
</g>
<!-- Node1&#45;&gt;Node3 -->
<g id="edge2_Node000001_Node000003" class="edge">
<title>Node1&#45;&gt;Node3</title>
<g id="a_edge2_Node000001_Node000003"><a xlink:title=" ">
<path fill="none" stroke="#63b8ff" d="M152.05,-20.26C160.56,-19.44 169.28,-18.59 177.92,-17.76"/>
<polygon fill="#63b8ff" stroke="#63b8ff" points="178.38,-21.23 188,-16.79 177.71,-14.26 178.38,-21.23"/>
</a>
</g>
</g>
</g>
</svg>
