<?xml version="1.0" encoding="UTF-8" standalone="no"?>
<!DOCTYPE svg PUBLIC "-//W3C//DTD SVG 1.1//EN"
 "http://www.w3.org/Graphics/SVG/1.1/DTD/svg11.dtd">
<!-- Generated by graphviz version 2.43.0 (0)
 -->
<!-- Title: _ElementReference Pages: 1 -->
<svg width="213pt" height="165pt"
 viewBox="0.00 0.00 212.50 165.00" xmlns="http://www.w3.org/2000/svg" xmlns:xlink="http://www.w3.org/1999/xlink">
<g id="graph0" class="graph" transform="scale(1 1) rotate(0) translate(4 161)">
<title>_ElementReference</title>
<!-- Node1 -->
<g id="Node000001" class="node">
<title>Node1</title>
<g id="a_Node000001"><a xlink:title=" ">
<polygon fill="#999999" stroke="#666666" points="143.5,-20.5 31.5,-20.5 31.5,-1.5 143.5,-1.5 143.5,-20.5"/>
<text text-anchor="middle" x="87.5" y="-8.5" font-family="Helvetica,sans-Serif" font-size="10.00">_ElementReference</text>
</a>
</g>
</g>
<!-- Node1&#45;&gt;Node1 -->
<g id="edge5_Node000001_Node000001" class="edge">
<title>Node1&#45;&gt;Node1</title>
<g id="a_edge5_Node000001_Node000001"><a xlink:title=" ">
<path fill="none" stroke="#9a32cd" stroke-dasharray="5,2" d="M153.9,-15.67C158.62,-14.61 161.5,-13.05 161.5,-11 161.5,-7.71 154.12,-5.7 143.65,-4.95"/>
<polygon fill="#9a32cd" stroke="#9a32cd" points="153.09,-12.25 143.65,-17.05 154.02,-19.19 153.09,-12.25"/>
</a>
</g>
<text text-anchor="middle" x="183" y="-14" font-family="Helvetica,sans-Serif" font-size="10.00" fill="grey"> next</text>
<text text-anchor="middle" x="183" y="-3" font-family="Helvetica,sans-Serif" font-size="10.00" fill="grey">previous</text>
</g>
<!-- Node2 -->
<g id="Node000002" class="node">
<title>Node2</title>
<g id="a_Node000002"><a xlink:href="struct__GradientInfo.html" target="_top" xlink:title=" ">
<polygon fill="white" stroke="#666666" points="129,-89.5 46,-89.5 46,-70.5 129,-70.5 129,-89.5"/>
<text text-anchor="middle" x="87.5" y="-77.5" font-family="Helvetica,sans-Serif" font-size="10.00">_GradientInfo</text>
</a>
</g>
</g>
<!-- Node2&#45;&gt;Node1 -->
<g id="edge1_Node000001_Node000002" class="edge">
<title>Node2&#45;&gt;Node1</title>
<g id="a_edge1_Node000001_Node000002"><a xlink:title=" ">
<path fill="none" stroke="#9a32cd" stroke-dasharray="5,2" d="M87.5,-60.02C87.5,-47.03 87.5,-30.44 87.5,-20.55"/>
<polygon fill="#9a32cd" stroke="#9a32cd" points="84,-60.24 87.5,-70.24 91,-60.24 84,-60.24"/>
</a>
</g>
<text text-anchor="middle" x="109.5" y="-43" font-family="Helvetica,sans-Serif" font-size="10.00" fill="grey"> gradient</text>
</g>
<!-- Node2&#45;&gt;Node2 -->
<g id="edge4_Node000002_Node000002" class="edge">
<title>Node2&#45;&gt;Node2</title>
<g id="a_edge4_Node000002_Node000002"><a xlink:title=" ">
<path fill="none" stroke="#9a32cd" stroke-dasharray="5,2" d="M139.32,-85.07C144.03,-84.01 147,-82.32 147,-80 147,-76.28 139.41,-74.19 129.21,-73.72"/>
<polygon fill="#9a32cd" stroke="#9a32cd" points="138.72,-81.61 129.21,-86.28 139.55,-88.56 138.72,-81.61"/>
</a>
</g>
<text text-anchor="middle" x="168.5" y="-83" font-family="Helvetica,sans-Serif" font-size="10.00" fill="grey"> next</text>
<text text-anchor="middle" x="168.5" y="-72" font-family="Helvetica,sans-Serif" font-size="10.00" fill="grey">previous</text>
</g>
<!-- Node3 -->
<g id="Node000003" class="node">
<title>Node3</title>
<g id="a_Node000003"><a xlink:href="struct__PixelPacket.html" target="_top" xlink:title=" ">
<polygon fill="white" stroke="#666666" points="77,-157 0,-157 0,-138 77,-138 77,-157"/>
<text text-anchor="middle" x="38.5" y="-145" font-family="Helvetica,sans-Serif" font-size="10.00">_PixelPacket</text>
</a>
</g>
</g>
<!-- Node3&#45;&gt;Node2 -->
<g id="edge2_Node000002_Node000003" class="edge">
<title>Node3&#45;&gt;Node2</title>
<g id="a_edge2_Node000002_Node000003"><a xlink:title=" ">
<path fill="none" stroke="#9a32cd" stroke-dasharray="5,2" d="M51.17,-129.57C60.69,-116.84 73.35,-99.91 80.94,-89.77"/>
<polygon fill="#9a32cd" stroke="#9a32cd" points="48.09,-127.83 44.91,-137.94 53.7,-132.03 48.09,-127.83"/>
</a>
</g>
<text text-anchor="middle" x="80.5" y="-112" font-family="Helvetica,sans-Serif" font-size="10.00" fill="grey"> color</text>
</g>
<!-- Node4 -->
<g id="Node000004" class="node">
<title>Node4</title>
<g id="a_Node000004"><a xlink:href="struct__SegmentInfo.html" target="_top" xlink:title=" ">
<polygon fill="white" stroke="#666666" points="179.5,-157 95.5,-157 95.5,-138 179.5,-138 179.5,-157"/>
<text text-anchor="middle" x="137.5" y="-145" font-family="Helvetica,sans-Serif" font-size="10.00">_SegmentInfo</text>
</a>
</g>
</g>
<!-- Node4&#45;&gt;Node2 -->
<g id="edge3_Node000002_Node000004" class="edge">
<title>Node4&#45;&gt;Node2</title>
<g id="a_edge3_Node000002_Node000004"><a xlink:title=" ">
<path fill="none" stroke="#9a32cd" stroke-dasharray="5,2" d="M124.86,-129.94C115.11,-117.17 102.01,-100.01 94.2,-89.77"/>
<polygon fill="#9a32cd" stroke="#9a32cd" points="122.11,-132.11 130.96,-137.94 127.68,-127.86 122.11,-132.11"/>
</a>
</g>
<text text-anchor="middle" x="129" y="-112" font-family="Helvetica,sans-Serif" font-size="10.00" fill="grey"> stop</text>
</g>
</g>
</svg>
