<?xml version="1.0" encoding="UTF-8" standalone="no"?>
<!DOCTYPE svg PUBLIC "-//W3C//DTD SVG 1.1//EN"
 "http://www.w3.org/Graphics/SVG/1.1/DTD/svg11.dtd">
<!-- Generated by graphviz version 2.43.0 (0)
 -->
<!-- Title: detail::duration_formatter::on_day_of_year Pages: 1 -->
<svg width="655pt" height="209pt"
 viewBox="0.00 0.00 655.00 209.00" xmlns="http://www.w3.org/2000/svg" xmlns:xlink="http://www.w3.org/1999/xlink">
<g id="graph0" class="graph" transform="scale(1 1) rotate(0) translate(4 205)">
<title>detail::duration_formatter::on_day_of_year</title>
<!-- Node1 -->
<g id="Node000001" class="node">
<title>Node1</title>
<g id="a_Node000001"><a xlink:title=" ">
<polygon fill="#999999" stroke="#666666" points="143,-153 0,-153 0,-123 143,-123 143,-153"/>
<text text-anchor="start" x="8" y="-141" font-family="Helvetica,sans-Serif" font-size="10.00">detail::duration_formatter</text>
<text text-anchor="middle" x="71.5" y="-130" font-family="Helvetica,sans-Serif" font-size="10.00">::on_day_of_year</text>
</a>
</g>
</g>
<!-- Node2 -->
<g id="Node000002" class="node">
<title>Node2</title>
<g id="a_Node000002"><a xlink:href="structdetail_1_1duration__formatter.html#ace6b072852bd3b176bc46ada9e9b5695" target="_top" xlink:title=" ">
<polygon fill="white" stroke="#666666" points="322,-201 179,-201 179,-171 322,-171 322,-201"/>
<text text-anchor="start" x="187" y="-189" font-family="Helvetica,sans-Serif" font-size="10.00">detail::duration_formatter</text>
<text text-anchor="middle" x="250.5" y="-178" font-family="Helvetica,sans-Serif" font-size="10.00">::days</text>
</a>
</g>
</g>
<!-- Node1&#45;&gt;Node2 -->
<g id="edge1_Node000001_Node000002" class="edge">
<title>Node1&#45;&gt;Node2</title>
<g id="a_edge1_Node000001_Node000002"><a xlink:title=" ">
<path fill="none" stroke="#63b8ff" d="M128.02,-153.06C145.89,-157.9 165.86,-163.32 184.37,-168.34"/>
<polygon fill="#63b8ff" stroke="#63b8ff" points="183.61,-171.76 194.18,-171 185.44,-165 183.61,-171.76"/>
</a>
</g>
</g>
<!-- Node3 -->
<g id="Node000003" class="node">
<title>Node3</title>
<g id="a_Node000003"><a xlink:href="structdetail_1_1duration__formatter.html#ad8e5cd79d50c37c7977ea4ce10713c65" target="_top" xlink:title=" ">
<polygon fill="white" stroke="#666666" points="322,-153 179,-153 179,-123 322,-123 322,-153"/>
<text text-anchor="start" x="187" y="-141" font-family="Helvetica,sans-Serif" font-size="10.00">detail::duration_formatter</text>
<text text-anchor="middle" x="250.5" y="-130" font-family="Helvetica,sans-Serif" font-size="10.00">::handle_nan_inf</text>
</a>
</g>
</g>
<!-- Node1&#45;&gt;Node3 -->
<g id="edge2_Node000001_Node000003" class="edge">
<title>Node1&#45;&gt;Node3</title>
<g id="a_edge2_Node000001_Node000003"><a xlink:title=" ">
<path fill="none" stroke="#63b8ff" d="M143.22,-138C151.57,-138 160.14,-138 168.62,-138"/>
<polygon fill="#63b8ff" stroke="#63b8ff" points="168.89,-141.5 178.89,-138 168.89,-134.5 168.89,-141.5"/>
</a>
</g>
</g>
<!-- Node5 -->
<g id="Node000005" class="node">
<title>Node5</title>
<g id="a_Node000005"><a xlink:href="structdetail_1_1duration__formatter.html#a05833dd5c29a4b5991f31b3907f7c793" target="_top" xlink:title=" ">
<polygon fill="white" stroke="#666666" points="322,-105 179,-105 179,-75 322,-75 322,-105"/>
<text text-anchor="start" x="187" y="-93" font-family="Helvetica,sans-Serif" font-size="10.00">detail::duration_formatter</text>
<text text-anchor="middle" x="250.5" y="-82" font-family="Helvetica,sans-Serif" font-size="10.00">::write</text>
</a>
</g>
</g>
<!-- Node1&#45;&gt;Node5 -->
<g id="edge4_Node000001_Node000005" class="edge">
<title>Node1&#45;&gt;Node5</title>
<g id="a_edge4_Node000001_Node000005"><a xlink:title=" ">
<path fill="none" stroke="#63b8ff" d="M128.02,-122.94C145.89,-118.1 165.86,-112.68 184.37,-107.66"/>
<polygon fill="#63b8ff" stroke="#63b8ff" points="185.44,-111 194.18,-105 183.61,-104.24 185.44,-111"/>
</a>
</g>
</g>
<!-- Node4 -->
<g id="Node000004" class="node">
<title>Node4</title>
<g id="a_Node000004"><a xlink:href="structdetail_1_1duration__formatter.html#a0b52d0c33d00406ad4f227d8d9ac7245" target="_top" xlink:title=" ">
<polygon fill="white" stroke="#666666" points="501,-153 358,-153 358,-123 501,-123 501,-153"/>
<text text-anchor="start" x="366" y="-141" font-family="Helvetica,sans-Serif" font-size="10.00">detail::duration_formatter</text>
<text text-anchor="middle" x="429.5" y="-130" font-family="Helvetica,sans-Serif" font-size="10.00">::write_nan</text>
</a>
</g>
</g>
<!-- Node3&#45;&gt;Node4 -->
<g id="edge3_Node000003_Node000004" class="edge">
<title>Node3&#45;&gt;Node4</title>
<g id="a_edge3_Node000003_Node000004"><a xlink:title=" ">
<path fill="none" stroke="#63b8ff" d="M322.22,-138C330.57,-138 339.14,-138 347.62,-138"/>
<polygon fill="#63b8ff" stroke="#63b8ff" points="347.89,-141.5 357.89,-138 347.89,-134.5 347.89,-141.5"/>
</a>
</g>
</g>
<!-- Node5&#45;&gt;Node4 -->
<g id="edge9_Node000005_Node000004" class="edge">
<title>Node5&#45;&gt;Node4</title>
<g id="a_edge9_Node000005_Node000004"><a xlink:title=" ">
<path fill="none" stroke="#63b8ff" d="M307.02,-105.06C324.89,-109.9 344.86,-115.32 363.37,-120.34"/>
<polygon fill="#63b8ff" stroke="#63b8ff" points="362.61,-123.76 373.18,-123 364.44,-117 362.61,-123.76"/>
</a>
</g>
</g>
<!-- Node6 -->
<g id="Node000006" class="node">
<title>Node6</title>
<g id="a_Node000006"><a xlink:href="namespacedetail.html#ac83427f5f16569571f442ec01887e045" target="_top" xlink:title=" ">
<polygon fill="white" stroke="#666666" points="484.5,-104.5 374.5,-104.5 374.5,-85.5 484.5,-85.5 484.5,-104.5"/>
<text text-anchor="middle" x="429.5" y="-92.5" font-family="Helvetica,sans-Serif" font-size="10.00">detail::count_digits</text>
</a>
</g>
</g>
<!-- Node5&#45;&gt;Node6 -->
<g id="edge5_Node000005_Node000006" class="edge">
<title>Node5&#45;&gt;Node6</title>
<g id="a_edge5_Node000005_Node000006"><a xlink:title=" ">
<path fill="none" stroke="#63b8ff" d="M322.22,-92C336.03,-92.39 350.44,-92.8 364.04,-93.18"/>
<polygon fill="#63b8ff" stroke="#63b8ff" points="364.16,-96.68 374.25,-93.47 364.36,-89.69 364.16,-96.68"/>
</a>
</g>
</g>
<!-- Node9 -->
<g id="Node000009" class="node">
<title>Node9</title>
<g id="a_Node000009"><a xlink:href="namespacedetail.html#a45c2130c44ebe54179eafcee3cda2bfb" target="_top" xlink:title=" ">
<polygon fill="white" stroke="#666666" points="481.5,-67.5 377.5,-67.5 377.5,-48.5 481.5,-48.5 481.5,-67.5"/>
<text text-anchor="middle" x="429.5" y="-55.5" font-family="Helvetica,sans-Serif" font-size="10.00">detail::max_value</text>
</a>
</g>
</g>
<!-- Node5&#45;&gt;Node9 -->
<g id="edge8_Node000005_Node000009" class="edge">
<title>Node5&#45;&gt;Node9</title>
<g id="a_edge8_Node000005_Node000009"><a xlink:title=" ">
<path fill="none" stroke="#63b8ff" d="M322.22,-77.21C337.16,-74.51 352.81,-71.68 367.36,-69.05"/>
<polygon fill="#63b8ff" stroke="#63b8ff" points="368.02,-72.49 377.24,-67.27 366.78,-65.6 368.02,-72.49"/>
</a>
</g>
</g>
<!-- Node10 -->
<g id="Node000010" class="node">
<title>Node10</title>
<g id="a_Node000010"><a xlink:href="structdetail_1_1duration__formatter.html#ab4149b3b22fec57ef71cb791850681f9" target="_top" xlink:title=" ">
<polygon fill="white" stroke="#666666" points="501,-30 358,-30 358,0 501,0 501,-30"/>
<text text-anchor="start" x="366" y="-18" font-family="Helvetica,sans-Serif" font-size="10.00">detail::duration_formatter</text>
<text text-anchor="middle" x="429.5" y="-7" font-family="Helvetica,sans-Serif" font-size="10.00">::write_sign</text>
</a>
</g>
</g>
<!-- Node5&#45;&gt;Node10 -->
<g id="edge10_Node000005_Node000010" class="edge">
<title>Node5&#45;&gt;Node10</title>
<g id="a_edge10_Node000005_Node000010"><a xlink:title=" ">
<path fill="none" stroke="#63b8ff" d="M280.46,-74.98C301.65,-64.28 331.24,-49.92 358,-39 362.48,-37.17 367.15,-35.37 371.87,-33.62"/>
<polygon fill="#63b8ff" stroke="#63b8ff" points="373.35,-36.8 381.57,-30.11 370.97,-30.22 373.35,-36.8"/>
</a>
</g>
</g>
<!-- Node7 -->
<g id="Node000007" class="node">
<title>Node7</title>
<g id="a_Node000007"><a xlink:href="namespacedetail.html#a300bc96ee936e9f6ef3565c8dff68a72" target="_top" xlink:title=" ">
<polygon fill="white" stroke="#666666" points="647,-134 537,-134 537,-104 647,-104 647,-134"/>
<text text-anchor="start" x="545" y="-122" font-family="Helvetica,sans-Serif" font-size="10.00">detail::count_digits</text>
<text text-anchor="middle" x="592" y="-111" font-family="Helvetica,sans-Serif" font-size="10.00">_fallback</text>
</a>
</g>
</g>
<!-- Node6&#45;&gt;Node7 -->
<g id="edge6_Node000006_Node000007" class="edge">
<title>Node6&#45;&gt;Node7</title>
<g id="a_edge6_Node000006_Node000007"><a xlink:title=" ">
<path fill="none" stroke="#63b8ff" d="M484.84,-103.13C498.38,-105.15 513.02,-107.34 526.97,-109.43"/>
<polygon fill="#63b8ff" stroke="#63b8ff" points="526.58,-112.91 536.99,-110.92 527.62,-105.98 526.58,-112.91"/>
</a>
</g>
</g>
<!-- Node8 -->
<g id="Node000008" class="node">
<title>Node8</title>
<g id="a_Node000008"><a xlink:href="namespacedetail.html#a75ed2634319883d038944529dbb954e2" target="_top" xlink:title=" ">
<polygon fill="white" stroke="#666666" points="645,-86 539,-86 539,-56 645,-56 645,-86"/>
<text text-anchor="start" x="547" y="-74" font-family="Helvetica,sans-Serif" font-size="10.00">detail::is_constant</text>
<text text-anchor="middle" x="592" y="-63" font-family="Helvetica,sans-Serif" font-size="10.00">_evaluated</text>
</a>
</g>
</g>
<!-- Node6&#45;&gt;Node8 -->
<g id="edge7_Node000006_Node000008" class="edge">
<title>Node6&#45;&gt;Node8</title>
<g id="a_edge7_Node000006_Node000008"><a xlink:title=" ">
<path fill="none" stroke="#63b8ff" d="M484.84,-86.87C499.02,-84.75 514.42,-82.45 528.98,-80.27"/>
<polygon fill="#63b8ff" stroke="#63b8ff" points="529.52,-83.73 538.89,-78.79 528.48,-76.81 529.52,-83.73"/>
</a>
</g>
</g>
</g>
</svg>
