<?xml version="1.0" encoding="UTF-8" standalone="no"?>
<!DOCTYPE svg PUBLIC "-//W3C//DTD SVG 1.1//EN"
 "http://www.w3.org/Graphics/SVG/1.1/DTD/svg11.dtd">
<!-- Generated by graphviz version 2.43.0 (0)
 -->
<!-- Title: detail::ansi_color_escape::ansi_color_escape Pages: 1 -->
<svg width="407pt" height="220pt"
 viewBox="0.00 0.00 407.00 220.00" xmlns="http://www.w3.org/2000/svg" xmlns:xlink="http://www.w3.org/1999/xlink">
<g id="graph0" class="graph" transform="scale(1 1) rotate(0) translate(4 216)">
<title>detail::ansi_color_escape::ansi_color_escape</title>
<!-- Node1 -->
<g id="Node000001" class="node">
<title>Node1</title>
<g id="a_Node000001"><a xlink:title=" ">
<polygon fill="#999999" stroke="#666666" points="112,-126.5 0,-126.5 0,-85.5 112,-85.5 112,-126.5"/>
<text text-anchor="start" x="8" y="-114.5" font-family="Helvetica,sans-Serif" font-size="10.00">detail::ansi_color</text>
<text text-anchor="start" x="8" y="-103.5" font-family="Helvetica,sans-Serif" font-size="10.00">_escape::ansi_color</text>
<text text-anchor="middle" x="56" y="-92.5" font-family="Helvetica,sans-Serif" font-size="10.00">_escape</text>
</a>
</g>
</g>
<!-- Node2 -->
<g id="Node000002" class="node">
<title>Node2</title>
<g id="a_Node000002"><a xlink:href="classbasic__string__view.html#a039a92fee947263a6c75dc6afd879719" target="_top" xlink:title=" ">
<polygon fill="white" stroke="#666666" points="257,-212 148,-212 148,-182 257,-182 257,-212"/>
<text text-anchor="start" x="156" y="-200" font-family="Helvetica,sans-Serif" font-size="10.00">basic_string_view::</text>
<text text-anchor="middle" x="202.5" y="-189" font-family="Helvetica,sans-Serif" font-size="10.00">basic_string_view</text>
</a>
</g>
</g>
<!-- Node1&#45;&gt;Node2 -->
<g id="edge1_Node000001_Node000002" class="edge">
<title>Node1&#45;&gt;Node2</title>
<g id="a_edge1_Node000001_Node000002"><a xlink:title=" ">
<path fill="none" stroke="#63b8ff" d="M81.89,-126.58C99.64,-140.69 124.45,-159.26 148,-173 150.51,-174.47 153.13,-175.91 155.8,-177.3"/>
<polygon fill="#63b8ff" stroke="#63b8ff" points="154.49,-180.56 165,-181.89 157.61,-174.29 154.49,-180.56"/>
</a>
</g>
</g>
<!-- Node4 -->
<g id="Node000004" class="node">
<title>Node4</title>
<g id="a_Node000004"><a xlink:href="structdetail_1_1color__type.html#afe82dae2e6339f88f4f04e403490dc39" target="_top" xlink:title=" ">
<polygon fill="white" stroke="#666666" points="256,-164 149,-164 149,-134 256,-134 256,-164"/>
<text text-anchor="start" x="157" y="-152" font-family="Helvetica,sans-Serif" font-size="10.00">detail::color_type</text>
<text text-anchor="middle" x="202.5" y="-141" font-family="Helvetica,sans-Serif" font-size="10.00">::is_terminal_color</text>
</a>
</g>
</g>
<!-- Node1&#45;&gt;Node4 -->
<g id="edge3_Node000001_Node000004" class="edge">
<title>Node1&#45;&gt;Node4</title>
<g id="a_edge3_Node000001_Node000004"><a xlink:title=" ">
<path fill="none" stroke="#63b8ff" d="M112.04,-122.38C121.51,-125.2 131.4,-128.14 141.01,-131"/>
<polygon fill="#63b8ff" stroke="#63b8ff" points="140.3,-134.44 150.88,-133.94 142.3,-127.73 140.3,-134.44"/>
</a>
</g>
</g>
<!-- Node5 -->
<g id="Node000005" class="node">
<title>Node5</title>
<g id="a_Node000005"><a xlink:href="structrgb.html#a9fbfd8af51138e348261489db6b5afcf" target="_top" xlink:title=" ">
<polygon fill="white" stroke="#666666" points="229.5,-115.5 175.5,-115.5 175.5,-96.5 229.5,-96.5 229.5,-115.5"/>
<text text-anchor="middle" x="202.5" y="-103.5" font-family="Helvetica,sans-Serif" font-size="10.00">rgb::rgb</text>
</a>
</g>
</g>
<!-- Node1&#45;&gt;Node5 -->
<g id="edge4_Node000001_Node000005" class="edge">
<title>Node1&#45;&gt;Node5</title>
<g id="a_edge4_Node000001_Node000005"><a xlink:title=" ">
<path fill="none" stroke="#63b8ff" d="M112.04,-106C129.84,-106 149.11,-106 165.2,-106"/>
<polygon fill="#63b8ff" stroke="#63b8ff" points="165.26,-109.5 175.26,-106 165.26,-102.5 165.26,-109.5"/>
</a>
</g>
</g>
<!-- Node6 -->
<g id="Node000006" class="node">
<title>Node6</title>
<g id="a_Node000006"><a xlink:href="structdetail_1_1ansi__color__escape.html#a6d3a87ad7ea464dbf16f663179cfaaba" target="_top" xlink:title=" ">
<polygon fill="white" stroke="#666666" points="252.5,-78 152.5,-78 152.5,-48 252.5,-48 252.5,-78"/>
<text text-anchor="start" x="160.5" y="-66" font-family="Helvetica,sans-Serif" font-size="10.00">detail::ansi_color</text>
<text text-anchor="middle" x="202.5" y="-55" font-family="Helvetica,sans-Serif" font-size="10.00">_escape::to_esc</text>
</a>
</g>
</g>
<!-- Node1&#45;&gt;Node6 -->
<g id="edge5_Node000001_Node000006" class="edge">
<title>Node1&#45;&gt;Node6</title>
<g id="a_edge5_Node000001_Node000006"><a xlink:title=" ">
<path fill="none" stroke="#63b8ff" d="M112.04,-89.62C121.97,-86.67 132.36,-83.57 142.4,-80.59"/>
<polygon fill="#63b8ff" stroke="#63b8ff" points="143.71,-83.85 152.29,-77.64 141.71,-77.14 143.71,-83.85"/>
</a>
</g>
</g>
<!-- Node7 -->
<g id="Node000007" class="node">
<title>Node7</title>
<g id="a_Node000007"><a xlink:href="structdetail_1_1color__type.html#aa6b41b871ea97edc80a2220523fa43a7" target="_top" xlink:title=" ">
<polygon fill="white" stroke="#666666" points="253,-30 152,-30 152,0 253,0 253,-30"/>
<text text-anchor="start" x="160" y="-18" font-family="Helvetica,sans-Serif" font-size="10.00">detail::color_type</text>
<text text-anchor="middle" x="202.5" y="-7" font-family="Helvetica,sans-Serif" font-size="10.00">::value</text>
</a>
</g>
</g>
<!-- Node1&#45;&gt;Node7 -->
<g id="edge6_Node000001_Node000007" class="edge">
<title>Node1&#45;&gt;Node7</title>
<g id="a_edge6_Node000001_Node000007"><a xlink:title=" ">
<path fill="none" stroke="#63b8ff" d="M81.89,-85.42C99.64,-71.31 124.45,-52.74 148,-39 150.51,-37.53 153.13,-36.09 155.8,-34.7"/>
<polygon fill="#63b8ff" stroke="#63b8ff" points="157.61,-37.71 165,-30.11 154.49,-31.44 157.61,-37.71"/>
</a>
</g>
</g>
<!-- Node3 -->
<g id="Node000003" class="node">
<title>Node3</title>
<g id="a_Node000003"><a xlink:href="namespacedetail.html#a75ed2634319883d038944529dbb954e2" target="_top" xlink:title=" ">
<polygon fill="white" stroke="#666666" points="399,-212 293,-212 293,-182 399,-182 399,-212"/>
<text text-anchor="start" x="301" y="-200" font-family="Helvetica,sans-Serif" font-size="10.00">detail::is_constant</text>
<text text-anchor="middle" x="346" y="-189" font-family="Helvetica,sans-Serif" font-size="10.00">_evaluated</text>
</a>
</g>
</g>
<!-- Node2&#45;&gt;Node3 -->
<g id="edge2_Node000002_Node000003" class="edge">
<title>Node2&#45;&gt;Node3</title>
<g id="a_edge2_Node000002_Node000003"><a xlink:title=" ">
<path fill="none" stroke="#63b8ff" d="M257.4,-197C265.62,-197 274.16,-197 282.54,-197"/>
<polygon fill="#63b8ff" stroke="#63b8ff" points="282.65,-200.5 292.65,-197 282.65,-193.5 282.65,-200.5"/>
</a>
</g>
</g>
</g>
</svg>
