<?xml version="1.0" encoding="UTF-8" standalone="no"?>
<!DOCTYPE svg PUBLIC "-//W3C//DTD SVG 1.1//EN"
 "http://www.w3.org/Graphics/SVG/1.1/DTD/svg11.dtd">
<!-- Generated by graphviz version 2.43.0 (0)
 -->
<!-- Title: detail::dragonbox::cache_accessor&lt; double &gt;::compute_left_endpoint_for_shorter_interval_case Pages: 1 -->
<svg width="343pt" height="64pt"
 viewBox="0.00 0.00 343.00 64.00" xmlns="http://www.w3.org/2000/svg" xmlns:xlink="http://www.w3.org/1999/xlink">
<g id="graph0" class="graph" transform="scale(1 1) rotate(0) translate(4 60)">
<title>detail::dragonbox::cache_accessor&lt; double &gt;::compute_left_endpoint_for_shorter_interval_case</title>
<!-- Node1 -->
<g id="Node000001" class="node">
<title>Node1</title>
<g id="a_Node000001"><a xlink:title=" ">
<polygon fill="#999999" stroke="#666666" points="146,-53.5 0,-53.5 0,-1.5 146,-1.5 146,-53.5"/>
<text text-anchor="start" x="8" y="-41.5" font-family="Helvetica,sans-Serif" font-size="10.00">detail::dragonbox::</text>
<text text-anchor="start" x="8" y="-30.5" font-family="Helvetica,sans-Serif" font-size="10.00">cache_accessor&lt; double</text>
<text text-anchor="start" x="8" y="-19.5" font-family="Helvetica,sans-Serif" font-size="10.00"> &gt;::compute_left_endpoint</text>
<text text-anchor="middle" x="73" y="-8.5" font-family="Helvetica,sans-Serif" font-size="10.00">_for_shorter_interval_case</text>
</a>
</g>
</g>
<!-- Node2 -->
<g id="Node000002" class="node">
<title>Node2</title>
<g id="a_Node000002"><a xlink:href="classdetail_1_1uint128.html#a4f6fce63fc851baef913a020abe8e961" target="_top" xlink:title=" ">
<polygon fill="white" stroke="#666666" points="315.5,-56 201.5,-56 201.5,-37 315.5,-37 315.5,-56"/>
<text text-anchor="middle" x="258.5" y="-44" font-family="Helvetica,sans-Serif" font-size="10.00">detail::uint128::high</text>
</a>
</g>
</g>
<!-- Node1&#45;&gt;Node2 -->
<g id="edge1_Node000001_Node000002" class="edge">
<title>Node1&#45;&gt;Node2</title>
<g id="a_edge1_Node000001_Node000002"><a xlink:title=" ">
<path fill="none" stroke="#63b8ff" d="M146.26,-34.98C161.17,-36.53 176.81,-38.14 191.48,-39.66"/>
<polygon fill="#63b8ff" stroke="#63b8ff" points="191.16,-43.15 201.47,-40.7 191.88,-36.19 191.16,-43.15"/>
</a>
</g>
</g>
<!-- Node3 -->
<g id="Node000003" class="node">
<title>Node3</title>
<g id="a_Node000003"><a xlink:href="namespacedetail.html#a92427cb4f879a333bb9224b880eefad5" target="_top" xlink:title=" ">
<polygon fill="white" stroke="#666666" points="335,-19 182,-19 182,0 335,0 335,-19"/>
<text text-anchor="middle" x="258.5" y="-7" font-family="Helvetica,sans-Serif" font-size="10.00">detail::num_significand_bits</text>
</a>
</g>
</g>
<!-- Node1&#45;&gt;Node3 -->
<g id="edge2_Node000001_Node000003" class="edge">
<title>Node1&#45;&gt;Node3</title>
<g id="a_edge2_Node000001_Node000003"><a xlink:title=" ">
<path fill="none" stroke="#63b8ff" d="M146.26,-20.41C154.69,-19.58 163.36,-18.73 171.95,-17.89"/>
<polygon fill="#63b8ff" stroke="#63b8ff" points="172.37,-21.37 181.98,-16.91 171.69,-14.4 172.37,-21.37"/>
</a>
</g>
</g>
</g>
</svg>
