<?xml version="1.0" encoding="UTF-8" standalone="no"?>
<!DOCTYPE svg PUBLIC "-//W3C//DTD SVG 1.1//EN"
 "http://www.w3.org/Graphics/SVG/1.1/DTD/svg11.dtd">
<!-- Generated by graphviz version 2.43.0 (0)
 -->
<!-- Title: formatter&lt; sys_time&lt; Duration &gt;, Char &gt;::format Pages: 1 -->
<svg width="278pt" height="64pt"
 viewBox="0.00 0.00 278.00 64.00" xmlns="http://www.w3.org/2000/svg" xmlns:xlink="http://www.w3.org/1999/xlink">
<g id="graph0" class="graph" transform="scale(1 1) rotate(0) translate(4 60)">
<title>formatter&lt; sys_time&lt; Duration &gt;, Char &gt;::format</title>
<!-- Node1 -->
<g id="Node000001" class="node">
<title>Node1</title>
<g id="a_Node000001"><a xlink:title=" ">
<polygon fill="#999999" stroke="#666666" points="121,-48 0,-48 0,-7 121,-7 121,-48"/>
<text text-anchor="start" x="8" y="-36" font-family="Helvetica,sans-Serif" font-size="10.00">formatter&lt; sys_time</text>
<text text-anchor="start" x="8" y="-25" font-family="Helvetica,sans-Serif" font-size="10.00">&lt; Duration &gt;, Char &gt;</text>
<text text-anchor="middle" x="60.5" y="-14" font-family="Helvetica,sans-Serif" font-size="10.00">::format</text>
</a>
</g>
</g>
<!-- Node2 -->
<g id="Node000002" class="node">
<title>Node2</title>
<g id="a_Node000002"><a xlink:href="namespacedetail.html#a9b9d098455dc27cd2af22e2e1509acae" target="_top" xlink:title=" ">
<polygon fill="white" stroke="#666666" points="270,-56 157,-56 157,-37 270,-37 270,-56"/>
<text text-anchor="middle" x="213.5" y="-44" font-family="Helvetica,sans-Serif" font-size="10.00">detail::set_tm_zone</text>
</a>
</g>
</g>
<!-- Node1&#45;&gt;Node2 -->
<g id="edge1_Node000001_Node000002" class="edge">
<title>Node1&#45;&gt;Node2</title>
<g id="a_edge1_Node000001_Node000002"><a xlink:title=" ">
<path fill="none" stroke="#63b8ff" d="M121.18,-35.01C129.5,-36.06 138.09,-37.14 146.52,-38.2"/>
<polygon fill="#63b8ff" stroke="#63b8ff" points="146.34,-41.7 156.7,-39.48 147.21,-34.76 146.34,-41.7"/>
</a>
</g>
</g>
<!-- Node3 -->
<g id="Node000003" class="node">
<title>Node3</title>
<g id="a_Node000003"><a xlink:href="namespacedetail.html#a44f02262f01cd145edaf8eef20825f60" target="_top" xlink:title=" ">
<polygon fill="white" stroke="#666666" points="246,-19 181,-19 181,0 246,0 246,-19"/>
<text text-anchor="middle" x="213.5" y="-7" font-family="Helvetica,sans-Serif" font-size="10.00">detail::utc</text>
</a>
</g>
</g>
<!-- Node1&#45;&gt;Node3 -->
<g id="edge2_Node000001_Node000003" class="edge">
<title>Node1&#45;&gt;Node3</title>
<g id="a_edge2_Node000001_Node000003"><a xlink:title=" ">
<path fill="none" stroke="#63b8ff" d="M121.18,-20.39C137.66,-18.42 155.19,-16.33 170.43,-14.51"/>
<polygon fill="#63b8ff" stroke="#63b8ff" points="171.07,-17.96 180.59,-13.3 170.24,-11.01 171.07,-17.96"/>
</a>
</g>
</g>
</g>
</svg>
