<?xml version="1.0" encoding="UTF-8" standalone="no"?>
<!DOCTYPE svg PUBLIC "-//W3C//DTD SVG 1.1//EN"
 "http://www.w3.org/Graphics/SVG/1.1/DTD/svg11.dtd">
<!-- Generated by graphviz version 2.43.0 (0)
 -->
<!-- Title: _ImageInfo Pages: 1 -->
<svg width="673pt" height="403pt"
 viewBox="0.00 0.00 673.00 402.50" xmlns="http://www.w3.org/2000/svg" xmlns:xlink="http://www.w3.org/1999/xlink">
<g id="graph0" class="graph" transform="scale(1 1) rotate(0) translate(4 398.5)">
<title>_ImageInfo</title>
<!-- Node1 -->
<g id="Node000001" class="node">
<title>Node1</title>
<g id="a_Node000001"><a xlink:title=" ">
<polygon fill="#999999" stroke="#666666" points="665,-292 594,-292 594,-273 665,-273 665,-292"/>
<text text-anchor="middle" x="629.5" y="-280" font-family="Helvetica,sans-Serif" font-size="10.00">_ImageInfo</text>
</a>
</g>
</g>
<!-- Node2 -->
<g id="Node000002" class="node">
<title>Node2</title>
<g id="a_Node000002"><a xlink:href="struct__PixelPacket.html" target="_top" xlink:title=" ">
<polygon fill="white" stroke="#666666" points="277.5,-350 200.5,-350 200.5,-331 277.5,-331 277.5,-350"/>
<text text-anchor="middle" x="239" y="-338" font-family="Helvetica,sans-Serif" font-size="10.00">_PixelPacket</text>
</a>
</g>
</g>
<!-- Node2&#45;&gt;Node1 -->
<g id="edge1_Node000001_Node000002" class="edge">
<title>Node2&#45;&gt;Node1</title>
<g id="a_edge1_Node000001_Node000002"><a xlink:title=" ">
<path fill="none" stroke="#9a32cd" stroke-dasharray="5,2" d="M287.9,-351.5C294.94,-352.74 302.14,-353.81 309,-354.5 348.8,-358.5 359.46,-360.56 399,-354.5 477.22,-342.52 565.39,-308.82 605.92,-292.13"/>
<polygon fill="#9a32cd" stroke="#9a32cd" points="288.23,-348 277.75,-349.58 286.93,-354.88 288.23,-348"/>
</a>
</g>
<text text-anchor="middle" x="462" y="-386.5" font-family="Helvetica,sans-Serif" font-size="10.00" fill="grey"> background_color</text>
<text text-anchor="middle" x="462" y="-375.5" font-family="Helvetica,sans-Serif" font-size="10.00" fill="grey">border_color</text>
<text text-anchor="middle" x="462" y="-364.5" font-family="Helvetica,sans-Serif" font-size="10.00" fill="grey">matte_color</text>
<text text-anchor="middle" x="462" y="-353.5" font-family="Helvetica,sans-Serif" font-size="10.00" fill="grey">pen</text>
</g>
<!-- Node3 -->
<g id="Node000003" class="node">
<title>Node3</title>
<g id="a_Node000003"><a xlink:href="struct__Image.html" target="_top" xlink:title=" ">
<polygon fill="white" stroke="#666666" points="488.5,-206 435.5,-206 435.5,-187 488.5,-187 488.5,-206"/>
<text text-anchor="middle" x="462" y="-194" font-family="Helvetica,sans-Serif" font-size="10.00">_Image</text>
</a>
</g>
</g>
<!-- Node2&#45;&gt;Node3 -->
<g id="edge3_Node000003_Node000002" class="edge">
<title>Node2&#45;&gt;Node3</title>
<g id="a_edge3_Node000003_Node000002"><a xlink:title=" ">
<path fill="none" stroke="#9a32cd" stroke-dasharray="5,2" d="M269.13,-326.68C281.29,-321.22 295.67,-315.15 309,-310.5 348.09,-296.88 365.17,-310.35 399,-286.5 429.08,-265.29 449.18,-224.54 457.15,-206.05"/>
<polygon fill="#9a32cd" stroke="#9a32cd" points="267.55,-323.56 259.91,-330.9 270.46,-329.92 267.55,-323.56"/>
</a>
</g>
<text text-anchor="middle" x="354" y="-346.5" font-family="Helvetica,sans-Serif" font-size="10.00" fill="grey"> background_color</text>
<text text-anchor="middle" x="354" y="-335.5" font-family="Helvetica,sans-Serif" font-size="10.00" fill="grey">border_color</text>
<text text-anchor="middle" x="354" y="-324.5" font-family="Helvetica,sans-Serif" font-size="10.00" fill="grey">colormap</text>
<text text-anchor="middle" x="354" y="-313.5" font-family="Helvetica,sans-Serif" font-size="10.00" fill="grey">matte_color</text>
</g>
<!-- Node3&#45;&gt;Node1 -->
<g id="edge2_Node000001_Node000003" class="edge">
<title>Node3&#45;&gt;Node1</title>
<g id="a_edge2_Node000001_Node000003"><a xlink:title=" ">
<path fill="none" stroke="#9a32cd" stroke-dasharray="5,2" d="M490.24,-210.65C524.09,-228.25 580.94,-257.79 610.07,-272.93"/>
<polygon fill="#9a32cd" stroke="#9a32cd" points="491.83,-207.54 481.34,-206.03 488.6,-213.75 491.83,-207.54"/>
</a>
</g>
<text text-anchor="middle" x="550.5" y="-257.5" font-family="Helvetica,sans-Serif" font-size="10.00" fill="grey"> attributes</text>
</g>
<!-- Node3&#45;&gt;Node3 -->
<g id="edge11_Node000003_Node000003" class="edge">
<title>Node3&#45;&gt;Node3</title>
<g id="a_edge11_Node000003_Node000003"><a xlink:title=" ">
<path fill="none" stroke="#9a32cd" stroke-dasharray="5,2" d="M445.79,-215.91C447.07,-220.56 452.47,-224 462,-224 477.64,-224 482.16,-214.73 475.56,-206.08"/>
<polygon fill="#9a32cd" stroke="#9a32cd" points="449.22,-216.65 448.44,-206.08 442.46,-214.83 449.22,-216.65"/>
</a>
</g>
<text text-anchor="middle" x="462" y="-249" font-family="Helvetica,sans-Serif" font-size="10.00" fill="grey"> list</text>
<text text-anchor="middle" x="462" y="-238" font-family="Helvetica,sans-Serif" font-size="10.00" fill="grey">next</text>
<text text-anchor="middle" x="462" y="-227" font-family="Helvetica,sans-Serif" font-size="10.00" fill="grey">previous</text>
</g>
<!-- Node4 -->
<g id="Node000004" class="node">
<title>Node4</title>
<g id="a_Node000004"><a xlink:href="struct__ChromaticityInfo.html" target="_top" xlink:title=" ">
<polygon fill="white" stroke="#666666" points="291,-285 187,-285 187,-266 291,-266 291,-285"/>
<text text-anchor="middle" x="239" y="-273" font-family="Helvetica,sans-Serif" font-size="10.00">_ChromaticityInfo</text>
</a>
</g>
</g>
<!-- Node4&#45;&gt;Node3 -->
<g id="edge4_Node000003_Node000004" class="edge">
<title>Node4&#45;&gt;Node3</title>
<g id="a_edge4_Node000003_Node000004"><a xlink:title=" ">
<path fill="none" stroke="#9a32cd" stroke-dasharray="5,2" d="M301.17,-272.67C331.7,-269.41 368.52,-262.59 399,-248.5 420.93,-238.36 441.38,-218.37 452.44,-206.35"/>
<polygon fill="#9a32cd" stroke="#9a32cd" points="300.69,-269.2 291.07,-273.64 301.36,-276.17 300.69,-269.2"/>
</a>
</g>
<text text-anchor="middle" x="354" y="-274.5" font-family="Helvetica,sans-Serif" font-size="10.00" fill="grey"> chromaticity</text>
</g>
<!-- Node5 -->
<g id="Node000005" class="node">
<title>Node5</title>
<g id="a_Node000005"><a xlink:href="struct__PrimaryInfo.html" target="_top" xlink:title=" ">
<polygon fill="white" stroke="#666666" points="79,-285 0,-285 0,-266 79,-266 79,-285"/>
<text text-anchor="middle" x="39.5" y="-273" font-family="Helvetica,sans-Serif" font-size="10.00">_PrimaryInfo</text>
</a>
</g>
</g>
<!-- Node5&#45;&gt;Node4 -->
<g id="edge5_Node000004_Node000005" class="edge">
<title>Node5&#45;&gt;Node4</title>
<g id="a_edge5_Node000004_Node000005"><a xlink:title=" ">
<path fill="none" stroke="#9a32cd" stroke-dasharray="5,2" d="M89.18,-275.5C118.85,-275.5 156.72,-275.5 186.83,-275.5"/>
<polygon fill="#9a32cd" stroke="#9a32cd" points="89.05,-272 79.05,-275.5 89.05,-279 89.05,-272"/>
</a>
</g>
<text text-anchor="middle" x="133" y="-311.5" font-family="Helvetica,sans-Serif" font-size="10.00" fill="grey"> blue_primary</text>
<text text-anchor="middle" x="133" y="-300.5" font-family="Helvetica,sans-Serif" font-size="10.00" fill="grey">green_primary</text>
<text text-anchor="middle" x="133" y="-289.5" font-family="Helvetica,sans-Serif" font-size="10.00" fill="grey">red_primary</text>
<text text-anchor="middle" x="133" y="-278.5" font-family="Helvetica,sans-Serif" font-size="10.00" fill="grey">white_point</text>
</g>
<!-- Node6 -->
<g id="Node000006" class="node">
<title>Node6</title>
<g id="a_Node000006"><a xlink:href="struct__RectangleInfo.html" target="_top" xlink:title=" ">
<polygon fill="white" stroke="#666666" points="283.5,-244 194.5,-244 194.5,-225 283.5,-225 283.5,-244"/>
<text text-anchor="middle" x="239" y="-232" font-family="Helvetica,sans-Serif" font-size="10.00">_RectangleInfo</text>
</a>
</g>
</g>
<!-- Node6&#45;&gt;Node3 -->
<g id="edge6_Node000003_Node000006" class="edge">
<title>Node6&#45;&gt;Node3</title>
<g id="a_edge6_Node000003_Node000006"><a xlink:title=" ">
<path fill="none" stroke="#9a32cd" stroke-dasharray="5,2" d="M293.7,-226.12C324.55,-221.2 363.99,-214.75 399,-208.5 410.98,-206.36 424.23,-203.82 435.39,-201.63"/>
<polygon fill="#9a32cd" stroke="#9a32cd" points="292.91,-222.7 283.59,-227.72 294.01,-229.61 292.91,-222.7"/>
</a>
</g>
<text text-anchor="middle" x="354" y="-236.5" font-family="Helvetica,sans-Serif" font-size="10.00" fill="grey"> page</text>
<text text-anchor="middle" x="354" y="-225.5" font-family="Helvetica,sans-Serif" font-size="10.00" fill="grey">tile_info</text>
</g>
<!-- Node7 -->
<g id="Node000007" class="node">
<title>Node7</title>
<g id="a_Node000007"><a xlink:href="struct__ErrorInfo.html" target="_top" xlink:title=" ">
<polygon fill="white" stroke="#666666" points="271,-207 207,-207 207,-188 271,-188 271,-207"/>
<text text-anchor="middle" x="239" y="-195" font-family="Helvetica,sans-Serif" font-size="10.00">_ErrorInfo</text>
</a>
</g>
</g>
<!-- Node7&#45;&gt;Node3 -->
<g id="edge7_Node000003_Node000007" class="edge">
<title>Node7&#45;&gt;Node3</title>
<g id="a_edge7_Node000003_Node000007"><a xlink:title=" ">
<path fill="none" stroke="#9a32cd" stroke-dasharray="5,2" d="M281.27,-197.31C326.51,-197.11 397.68,-196.79 435.46,-196.62"/>
<polygon fill="#9a32cd" stroke="#9a32cd" points="281.18,-193.81 271.2,-197.36 281.21,-200.81 281.18,-193.81"/>
</a>
</g>
<text text-anchor="middle" x="354" y="-199.5" font-family="Helvetica,sans-Serif" font-size="10.00" fill="grey"> error</text>
</g>
<!-- Node8 -->
<g id="Node000008" class="node">
<title>Node8</title>
<g id="a_Node000008"><a xlink:href="struct__TimerInfo.html" target="_top" xlink:title=" ">
<polygon fill="white" stroke="#666666" points="273.5,-170 204.5,-170 204.5,-151 273.5,-151 273.5,-170"/>
<text text-anchor="middle" x="239" y="-158" font-family="Helvetica,sans-Serif" font-size="10.00">_TimerInfo</text>
</a>
</g>
</g>
<!-- Node8&#45;&gt;Node3 -->
<g id="edge8_Node000003_Node000008" class="edge">
<title>Node8&#45;&gt;Node3</title>
<g id="a_edge8_Node000003_Node000008"><a xlink:title=" ">
<path fill="none" stroke="#9a32cd" stroke-dasharray="5,2" d="M283.61,-165C315.67,-168.61 360.22,-174.27 399,-181.5 411.08,-183.75 424.35,-186.87 435.49,-189.68"/>
<polygon fill="#9a32cd" stroke="#9a32cd" points="283.99,-161.52 273.66,-163.9 283.22,-168.48 283.99,-161.52"/>
</a>
</g>
<text text-anchor="middle" x="354" y="-184.5" font-family="Helvetica,sans-Serif" font-size="10.00" fill="grey"> timer</text>
</g>
<!-- Node9 -->
<g id="Node000009" class="node">
<title>Node9</title>
<g id="a_Node000009"><a xlink:href="struct__Timer.html" target="_top" xlink:title=" ">
<polygon fill="white" stroke="#666666" points="64.5,-170 14.5,-170 14.5,-151 64.5,-151 64.5,-170"/>
<text text-anchor="middle" x="39.5" y="-158" font-family="Helvetica,sans-Serif" font-size="10.00">_Timer</text>
</a>
</g>
</g>
<!-- Node9&#45;&gt;Node8 -->
<g id="edge9_Node000008_Node000009" class="edge">
<title>Node9&#45;&gt;Node8</title>
<g id="a_edge9_Node000008_Node000009"><a xlink:title=" ">
<path fill="none" stroke="#9a32cd" stroke-dasharray="5,2" d="M74.84,-160.5C111.2,-160.5 168.23,-160.5 204.33,-160.5"/>
<polygon fill="#9a32cd" stroke="#9a32cd" points="74.72,-157 64.72,-160.5 74.72,-164 74.72,-157"/>
</a>
</g>
<text text-anchor="middle" x="133" y="-174.5" font-family="Helvetica,sans-Serif" font-size="10.00" fill="grey"> elapsed</text>
<text text-anchor="middle" x="133" y="-163.5" font-family="Helvetica,sans-Serif" font-size="10.00" fill="grey">user</text>
</g>
<!-- Node10 -->
<g id="Node000010" class="node">
<title>Node10</title>
<g id="a_Node000010"><a xlink:href="struct__ExceptionInfo.html" target="_top" xlink:title=" ">
<polygon fill="white" stroke="#666666" points="283.5,-133 194.5,-133 194.5,-114 283.5,-114 283.5,-133"/>
<text text-anchor="middle" x="239" y="-121" font-family="Helvetica,sans-Serif" font-size="10.00">_ExceptionInfo</text>
</a>
</g>
</g>
<!-- Node10&#45;&gt;Node3 -->
<g id="edge10_Node000003_Node000010" class="edge">
<title>Node10&#45;&gt;Node3</title>
<g id="a_edge10_Node000003_Node000010"><a xlink:title=" ">
<path fill="none" stroke="#9a32cd" stroke-dasharray="5,2" d="M293.58,-127.41C325.23,-131.14 365.52,-138.39 399,-152.5 418.95,-160.91 438.78,-176.6 450.46,-186.79"/>
<polygon fill="#9a32cd" stroke="#9a32cd" points="293.95,-123.93 283.63,-126.32 293.19,-130.89 293.95,-123.93"/>
</a>
</g>
<text text-anchor="middle" x="354" y="-155.5" font-family="Helvetica,sans-Serif" font-size="10.00" fill="grey"> exception</text>
</g>
<!-- Node11 -->
<g id="Node000011" class="node">
<title>Node11</title>
<g id="a_Node000011"><a xlink:href="struct__ImageAttribute.html" target="_top" xlink:title=" ">
<polygon fill="white" stroke="#666666" points="286.5,-56 191.5,-56 191.5,-37 286.5,-37 286.5,-56"/>
<text text-anchor="middle" x="239" y="-44" font-family="Helvetica,sans-Serif" font-size="10.00">_ImageAttribute</text>
</a>
</g>
</g>
<!-- Node11&#45;&gt;Node3 -->
<g id="edge12_Node000003_Node000011" class="edge">
<title>Node11&#45;&gt;Node3</title>
<g id="a_edge12_Node000003_Node000011"><a xlink:title=" ">
<path fill="none" stroke="#9a32cd" stroke-dasharray="5,2" d="M285.58,-59.01C319.31,-69.84 365.1,-87.99 399,-114.5 425.57,-135.28 446.7,-170.07 455.94,-186.86"/>
<polygon fill="#9a32cd" stroke="#9a32cd" points="286.55,-55.65 275.96,-56.02 284.47,-62.33 286.55,-55.65"/>
</a>
</g>
<text text-anchor="middle" x="354" y="-117.5" font-family="Helvetica,sans-Serif" font-size="10.00" fill="grey"> attributes</text>
</g>
<!-- Node11&#45;&gt;Node11 -->
<g id="edge13_Node000011_Node000011" class="edge">
<title>Node11&#45;&gt;Node11</title>
<g id="a_edge13_Node000011_Node000011"><a xlink:title=" ">
<path fill="none" stroke="#9a32cd" stroke-dasharray="5,2" d="M219.37,-65.55C220.68,-70.38 227.23,-74 239,-74 257.84,-74 263.29,-64.73 255.34,-56.08"/>
<polygon fill="#9a32cd" stroke="#9a32cd" points="222.69,-66.68 222.66,-56.08 216.07,-64.38 222.69,-66.68"/>
</a>
</g>
<text text-anchor="middle" x="239" y="-88" font-family="Helvetica,sans-Serif" font-size="10.00" fill="grey"> next</text>
<text text-anchor="middle" x="239" y="-77" font-family="Helvetica,sans-Serif" font-size="10.00" fill="grey">previous</text>
</g>
<!-- Node12 -->
<g id="Node000012" class="node">
<title>Node12</title>
<g id="a_Node000012"><a xlink:href="struct__Ascii85Info.html" target="_top" xlink:title=" ">
<polygon fill="white" stroke="#666666" points="277,-19 201,-19 201,0 277,0 277,-19"/>
<text text-anchor="middle" x="239" y="-7" font-family="Helvetica,sans-Serif" font-size="10.00">_Ascii85Info</text>
</a>
</g>
</g>
<!-- Node12&#45;&gt;Node3 -->
<g id="edge14_Node000003_Node000012" class="edge">
<title>Node12&#45;&gt;Node3</title>
<g id="a_edge14_Node000003_Node000012"><a xlink:title=" ">
<path fill="none" stroke="#9a32cd" stroke-dasharray="5,2" d="M287.39,-12.28C321.98,-16.62 368.05,-27.49 399,-54.5 440.96,-91.11 455.6,-161.36 459.67,-186.91"/>
<polygon fill="#9a32cd" stroke="#9a32cd" points="287.37,-8.76 277.05,-11.13 286.6,-15.71 287.37,-8.76"/>
</a>
</g>
<text text-anchor="middle" x="354" y="-57.5" font-family="Helvetica,sans-Serif" font-size="10.00" fill="grey"> ascii85</text>
</g>
</g>
</svg>
