<?xml version="1.0" encoding="UTF-8" standalone="no"?>
<!DOCTYPE svg PUBLIC "-//W3C//DTD SVG 1.1//EN"
 "http://www.w3.org/Graphics/SVG/1.1/DTD/svg11.dtd">
<!-- Generated by graphviz version 2.43.0 (0)
 -->
<!-- Title: formatter&lt; std::error_code &gt; Pages: 1 -->
<svg width="238pt" height="181pt"
 viewBox="0.00 0.00 237.50 181.00" xmlns="http://www.w3.org/2000/svg" xmlns:xlink="http://www.w3.org/1999/xlink">
<g id="graph0" class="graph" transform="scale(1 1) rotate(0) translate(4 177)">
<title>formatter&lt; std::error_code &gt;</title>
<!-- Node1 -->
<g id="Node000001" class="node">
<title>Node1</title>
<g id="a_Node000001"><a xlink:title=" ">
<polygon fill="#999999" stroke="#666666" points="163,-30 44,-30 44,0 163,0 163,-30"/>
<text text-anchor="start" x="52" y="-18" font-family="Helvetica,sans-Serif" font-size="10.00">formatter&lt; std::error</text>
<text text-anchor="middle" x="103.5" y="-7" font-family="Helvetica,sans-Serif" font-size="10.00">_code &gt;</text>
</a>
</g>
</g>
<!-- Node2 -->
<g id="Node000002" class="node">
<title>Node2</title>
<g id="a_Node000002"><a xlink:href="structformat__specs.html" target="_top" xlink:title=" ">
<polygon fill="white" stroke="#666666" points="83,-96 0,-96 0,-77 83,-77 83,-96"/>
<text text-anchor="middle" x="41.5" y="-84" font-family="Helvetica,sans-Serif" font-size="10.00">format_specs</text>
</a>
</g>
</g>
<!-- Node2&#45;&gt;Node1 -->
<g id="edge1_Node000001_Node000002" class="edge">
<title>Node2&#45;&gt;Node1</title>
<g id="a_edge1_Node000001_Node000002"><a xlink:title=" ">
<path fill="none" stroke="#9a32cd" stroke-dasharray="5,2" d="M56.06,-69.18C66.63,-57.33 80.8,-41.45 90.89,-30.14"/>
<polygon fill="#9a32cd" stroke="#9a32cd" points="53.15,-67.19 49.1,-76.98 58.37,-71.85 53.15,-67.19"/>
</a>
</g>
<text text-anchor="middle" x="93" y="-51" font-family="Helvetica,sans-Serif" font-size="10.00" fill="grey"> specs_</text>
</g>
<!-- Node3 -->
<g id="Node000003" class="node">
<title>Node3</title>
<g id="a_Node000003"><a xlink:href="classbasic__specs.html" target="_top" xlink:title=" ">
<polygon fill="white" stroke="#666666" points="79,-167.5 4,-167.5 4,-148.5 79,-148.5 79,-167.5"/>
<text text-anchor="middle" x="41.5" y="-155.5" font-family="Helvetica,sans-Serif" font-size="10.00">basic_specs</text>
</a>
</g>
</g>
<!-- Node3&#45;&gt;Node2 -->
<g id="edge2_Node000002_Node000003" class="edge">
<title>Node3&#45;&gt;Node2</title>
<g id="a_edge2_Node000002_Node000003"><a xlink:title=" ">
<path fill="none" stroke="#63b8ff" d="M41.5,-138.21C41.5,-124.5 41.5,-106.55 41.5,-96.09"/>
<polygon fill="#63b8ff" stroke="#63b8ff" points="38,-138.48 41.5,-148.48 45,-138.48 38,-138.48"/>
</a>
</g>
</g>
<!-- Node4 -->
<g id="Node000004" class="node">
<title>Node4</title>
<g id="a_Node000004"><a xlink:href="uniondetail_1_1arg__ref.html" target="_top" xlink:title=" ">
<polygon fill="white" stroke="#666666" points="229.5,-96 101.5,-96 101.5,-77 229.5,-77 229.5,-96"/>
<text text-anchor="middle" x="165.5" y="-84" font-family="Helvetica,sans-Serif" font-size="10.00">detail::arg_ref&lt; char &gt;</text>
</a>
</g>
</g>
<!-- Node4&#45;&gt;Node1 -->
<g id="edge3_Node000001_Node000004" class="edge">
<title>Node4&#45;&gt;Node1</title>
<g id="a_edge3_Node000001_Node000004"><a xlink:title=" ">
<path fill="none" stroke="#9a32cd" stroke-dasharray="5,2" d="M150.94,-69.18C140.37,-57.33 126.2,-41.45 116.11,-30.14"/>
<polygon fill="#9a32cd" stroke="#9a32cd" points="148.63,-71.85 157.9,-76.98 153.85,-67.19 148.63,-71.85"/>
</a>
</g>
<text text-anchor="middle" x="168" y="-51" font-family="Helvetica,sans-Serif" font-size="10.00" fill="grey"> width_ref_</text>
</g>
<!-- Node5 -->
<g id="Node000005" class="node">
<title>Node5</title>
<g id="a_Node000005"><a xlink:href="classbasic__string__view.html" target="_top" xlink:title=" ">
<polygon fill="white" stroke="#666666" points="221.5,-173 109.5,-173 109.5,-143 221.5,-143 221.5,-173"/>
<text text-anchor="start" x="117.5" y="-161" font-family="Helvetica,sans-Serif" font-size="10.00">basic_string_view&lt;</text>
<text text-anchor="middle" x="165.5" y="-150" font-family="Helvetica,sans-Serif" font-size="10.00"> char &gt;</text>
</a>
</g>
</g>
<!-- Node5&#45;&gt;Node4 -->
<g id="edge4_Node000004_Node000005" class="edge">
<title>Node5&#45;&gt;Node4</title>
<g id="a_edge4_Node000004_Node000005"><a xlink:title=" ">
<path fill="none" stroke="#9a32cd" stroke-dasharray="5,2" d="M165.5,-132.56C165.5,-119.95 165.5,-105.35 165.5,-96.27"/>
<polygon fill="#9a32cd" stroke="#9a32cd" points="162,-132.94 165.5,-142.94 169,-132.94 162,-132.94"/>
</a>
</g>
<text text-anchor="middle" x="181" y="-117" font-family="Helvetica,sans-Serif" font-size="10.00" fill="grey"> name</text>
</g>
</g>
</svg>
