<?xml version="1.0" encoding="UTF-8" standalone="no"?>
<!DOCTYPE svg PUBLIC "-//W3C//DTD SVG 1.1//EN"
 "http://www.w3.org/Graphics/SVG/1.1/DTD/svg11.dtd">
<!-- Generated by graphviz version 2.43.0 (0)
 -->
<!-- Title: formatter&lt; std::error_code &gt;::parse Pages: 1 -->
<svg width="465pt" height="175pt"
 viewBox="0.00 0.00 465.00 175.00" xmlns="http://www.w3.org/2000/svg" xmlns:xlink="http://www.w3.org/1999/xlink">
<g id="graph0" class="graph" transform="scale(1 1) rotate(0) translate(4 171)">
<title>formatter&lt; std::error_code &gt;::parse</title>
<!-- Node1 -->
<g id="Node000001" class="node">
<title>Node1</title>
<g id="a_Node000001"><a xlink:title=" ">
<polygon fill="#999999" stroke="#666666" points="119,-98.5 0,-98.5 0,-68.5 119,-68.5 119,-98.5"/>
<text text-anchor="start" x="8" y="-86.5" font-family="Helvetica,sans-Serif" font-size="10.00">formatter&lt; std::error</text>
<text text-anchor="middle" x="59.5" y="-75.5" font-family="Helvetica,sans-Serif" font-size="10.00">_code &gt;::parse</text>
</a>
</g>
</g>
<!-- Node2 -->
<g id="Node000002" class="node">
<title>Node2</title>
<g id="a_Node000002"><a xlink:href="classparse__context.html#a1d66dcf5888a1473d1ac88ee7848426b" target="_top" xlink:title=" ">
<polygon fill="white" stroke="#666666" points="276,-167 157,-167 157,-148 276,-148 276,-167"/>
<text text-anchor="middle" x="216.5" y="-155" font-family="Helvetica,sans-Serif" font-size="10.00">parse_context::begin</text>
</a>
</g>
</g>
<!-- Node1&#45;&gt;Node2 -->
<g id="edge1_Node000001_Node000002" class="edge">
<title>Node1&#45;&gt;Node2</title>
<g id="a_edge1_Node000001_Node000002"><a xlink:title=" ">
<path fill="none" stroke="#63b8ff" d="M82.58,-98.71C101.22,-111.02 128.96,-128.12 155,-139.5 159.35,-141.4 163.97,-143.18 168.63,-144.81"/>
<polygon fill="#63b8ff" stroke="#63b8ff" points="167.6,-148.16 178.19,-147.97 169.79,-141.51 167.6,-148.16"/>
</a>
</g>
</g>
<!-- Node3 -->
<g id="Node000003" class="node">
<title>Node3</title>
<g id="a_Node000003"><a xlink:href="classparse__context.html#ad10a0f3a57fbac77c207ae4bf8475bc2" target="_top" xlink:title="Returns an iterator past the end of the format string range being parsed.">
<polygon fill="white" stroke="#666666" points="271.5,-130 161.5,-130 161.5,-111 271.5,-111 271.5,-130"/>
<text text-anchor="middle" x="216.5" y="-118" font-family="Helvetica,sans-Serif" font-size="10.00">parse_context::end</text>
</a>
</g>
</g>
<!-- Node1&#45;&gt;Node3 -->
<g id="edge2_Node000001_Node000003" class="edge">
<title>Node1&#45;&gt;Node3</title>
<g id="a_edge2_Node000001_Node000003"><a xlink:title=" ">
<path fill="none" stroke="#63b8ff" d="M119.1,-97.49C134.42,-101.15 150.8,-105.05 165.62,-108.59"/>
<polygon fill="#63b8ff" stroke="#63b8ff" points="165.06,-112.06 175.6,-110.98 166.69,-105.25 165.06,-112.06"/>
</a>
</g>
</g>
<!-- Node4 -->
<g id="Node000004" class="node">
<title>Node4</title>
<g id="a_Node000004"><a xlink:href="namespacedetail.html#aa9b6c73a648f10607ce55fcc025c7162" target="_top" xlink:title=" ">
<polygon fill="white" stroke="#666666" points="270,-93 163,-93 163,-74 270,-74 270,-93"/>
<text text-anchor="middle" x="216.5" y="-81" font-family="Helvetica,sans-Serif" font-size="10.00">detail::parse_align</text>
</a>
</g>
</g>
<!-- Node1&#45;&gt;Node4 -->
<g id="edge3_Node000001_Node000004" class="edge">
<title>Node1&#45;&gt;Node4</title>
<g id="a_edge3_Node000001_Node000004"><a xlink:title=" ">
<path fill="none" stroke="#63b8ff" d="M119.1,-83.5C130.13,-83.5 141.7,-83.5 152.84,-83.5"/>
<polygon fill="#63b8ff" stroke="#63b8ff" points="152.93,-87 162.93,-83.5 152.93,-80 152.93,-87"/>
</a>
</g>
</g>
<!-- Node6 -->
<g id="Node000006" class="node">
<title>Node6</title>
<g id="a_Node000006"><a xlink:href="namespacedetail.html#a925b1c39f160e8d68b75b44f8985c657" target="_top" xlink:title=" ">
<polygon fill="white" stroke="#666666" points="271.5,-56 161.5,-56 161.5,-37 271.5,-37 271.5,-56"/>
<text text-anchor="middle" x="216.5" y="-44" font-family="Helvetica,sans-Serif" font-size="10.00">detail::parse_width</text>
</a>
</g>
</g>
<!-- Node1&#45;&gt;Node6 -->
<g id="edge5_Node000001_Node000006" class="edge">
<title>Node1&#45;&gt;Node6</title>
<g id="a_edge5_Node000001_Node000006"><a xlink:title=" ">
<path fill="none" stroke="#63b8ff" d="M119.1,-69.51C134.42,-65.85 150.8,-61.95 165.62,-58.41"/>
<polygon fill="#63b8ff" stroke="#63b8ff" points="166.69,-61.75 175.6,-56.02 165.06,-54.94 166.69,-61.75"/>
</a>
</g>
</g>
<!-- Node8 -->
<g id="Node000008" class="node">
<title>Node8</title>
<g id="a_Node000008"><a xlink:href="classbasic__specs.html#ae6d1338471c931505ddcaf600557e830" target="_top" xlink:title=" ">
<polygon fill="white" stroke="#666666" points="278,-19 155,-19 155,0 278,0 278,-19"/>
<text text-anchor="middle" x="216.5" y="-7" font-family="Helvetica,sans-Serif" font-size="10.00">basic_specs::set_type</text>
</a>
</g>
</g>
<!-- Node1&#45;&gt;Node8 -->
<g id="edge7_Node000001_Node000008" class="edge">
<title>Node1&#45;&gt;Node8</title>
<g id="a_edge7_Node000001_Node000008"><a xlink:title=" ">
<path fill="none" stroke="#63b8ff" d="M82.58,-68.29C101.22,-55.98 128.96,-38.88 155,-27.5 159.35,-25.6 163.97,-23.82 168.63,-22.19"/>
<polygon fill="#63b8ff" stroke="#63b8ff" points="169.79,-25.49 178.19,-19.03 167.6,-18.84 169.79,-25.49"/>
</a>
</g>
</g>
<!-- Node5 -->
<g id="Node000005" class="node">
<title>Node5</title>
<g id="a_Node000005"><a xlink:href="format-inl_8h.html#a5555893692b00b61b3886349332fd01f" target="_top" xlink:title=" ">
<polygon fill="white" stroke="#666666" points="422.5,-96 348.5,-96 348.5,-77 422.5,-77 422.5,-96"/>
<text text-anchor="middle" x="385.5" y="-84" font-family="Helvetica,sans-Serif" font-size="10.00">report_error</text>
</a>
</g>
</g>
<!-- Node4&#45;&gt;Node5 -->
<g id="edge4_Node000004_Node000005" class="edge">
<title>Node4&#45;&gt;Node5</title>
<g id="a_edge4_Node000004_Node000005"><a xlink:title=" ">
<path fill="none" stroke="#63b8ff" d="M270.34,-84.45C292.18,-84.84 317.28,-85.29 338.37,-85.67"/>
<polygon fill="#63b8ff" stroke="#63b8ff" points="338.31,-89.17 348.37,-85.85 338.43,-82.17 338.31,-89.17"/>
</a>
</g>
</g>
<!-- Node7 -->
<g id="Node000007" class="node">
<title>Node7</title>
<g id="a_Node000007"><a xlink:href="classbasic__specs.html#aeab3bb138106eec9f82abc8ec1ca9ba5" target="_top" xlink:title=" ">
<polygon fill="white" stroke="#666666" points="457,-58.5 314,-58.5 314,-28.5 457,-28.5 457,-58.5"/>
<text text-anchor="start" x="322" y="-46.5" font-family="Helvetica,sans-Serif" font-size="10.00">basic_specs::set_dynamic</text>
<text text-anchor="middle" x="385.5" y="-35.5" font-family="Helvetica,sans-Serif" font-size="10.00">_width</text>
</a>
</g>
</g>
<!-- Node6&#45;&gt;Node7 -->
<g id="edge6_Node000006_Node000007" class="edge">
<title>Node6&#45;&gt;Node7</title>
<g id="a_edge6_Node000006_Node000007"><a xlink:title=" ">
<path fill="none" stroke="#63b8ff" d="M271.72,-45.53C281.9,-45.34 292.74,-45.15 303.52,-44.95"/>
<polygon fill="#63b8ff" stroke="#63b8ff" points="303.89,-48.45 313.82,-44.77 303.76,-41.45 303.89,-48.45"/>
</a>
</g>
</g>
</g>
</svg>
