<?xml version="1.0" encoding="UTF-8" standalone="no"?>
<!DOCTYPE svg PUBLIC "-//W3C//DTD SVG 1.1//EN"
 "http://www.w3.org/Graphics/SVG/1.1/DTD/svg11.dtd">
<!-- Generated by graphviz version 2.43.0 (0)
 -->
<!-- Title: nested_formatter&lt; T, Char &gt; Pages: 1 -->
<svg width="220pt" height="104pt"
 viewBox="0.00 0.00 220.00 104.00" xmlns="http://www.w3.org/2000/svg" xmlns:xlink="http://www.w3.org/1999/xlink">
<g id="graph0" class="graph" transform="scale(1 1) rotate(0) translate(4 100)">
<title>nested_formatter&lt; T, Char &gt;</title>
<!-- Node1 -->
<g id="Node000001" class="node">
<title>Node1</title>
<g id="a_Node000001"><a xlink:title=" ">
<polygon fill="#999999" stroke="#666666" points="155.5,-30 33.5,-30 33.5,0 155.5,0 155.5,-30"/>
<text text-anchor="start" x="41.5" y="-18" font-family="Helvetica,sans-Serif" font-size="10.00">nested_formatter&lt; T,</text>
<text text-anchor="middle" x="94.5" y="-7" font-family="Helvetica,sans-Serif" font-size="10.00"> Char &gt;</text>
</a>
</g>
</g>
<!-- Node2 -->
<g id="Node000002" class="node">
<title>Node2</title>
<g id="a_Node000002"><a xlink:href="classbasic__specs.html" target="_top" xlink:title=" ">
<polygon fill="white" stroke="#666666" points="75,-96 0,-96 0,-77 75,-77 75,-96"/>
<text text-anchor="middle" x="37.5" y="-84" font-family="Helvetica,sans-Serif" font-size="10.00">basic_specs</text>
</a>
</g>
</g>
<!-- Node2&#45;&gt;Node1 -->
<g id="edge1_Node000001_Node000002" class="edge">
<title>Node2&#45;&gt;Node1</title>
<g id="a_edge1_Node000001_Node000002"><a xlink:title=" ">
<path fill="none" stroke="#9a32cd" stroke-dasharray="5,2" d="M50.88,-69.18C60.6,-57.33 73.63,-41.45 82.91,-30.14"/>
<polygon fill="#9a32cd" stroke="#9a32cd" points="48.12,-67.03 44.49,-76.98 53.54,-71.47 48.12,-67.03"/>
</a>
</g>
<text text-anchor="middle" x="87" y="-51" font-family="Helvetica,sans-Serif" font-size="10.00" fill="grey"> specs_</text>
</g>
<!-- Node3 -->
<g id="Node000003" class="node">
<title>Node3</title>
<g id="a_Node000003"><a xlink:href="structformatter.html" target="_top" xlink:title=" ">
<polygon fill="white" stroke="#666666" points="212,-96 93,-96 93,-77 212,-77 212,-96"/>
<text text-anchor="middle" x="152.5" y="-84" font-family="Helvetica,sans-Serif" font-size="10.00">formatter&lt; T, char &gt;</text>
</a>
</g>
</g>
<!-- Node3&#45;&gt;Node1 -->
<g id="edge2_Node000001_Node000003" class="edge">
<title>Node3&#45;&gt;Node1</title>
<g id="a_edge2_Node000001_Node000003"><a xlink:title=" ">
<path fill="none" stroke="#9a32cd" stroke-dasharray="5,2" d="M138.88,-69.18C128.99,-57.33 115.74,-41.45 106.3,-30.14"/>
<polygon fill="#9a32cd" stroke="#9a32cd" points="136.29,-71.54 145.39,-76.98 141.67,-67.06 136.29,-71.54"/>
</a>
</g>
<text text-anchor="middle" x="156" y="-51" font-family="Helvetica,sans-Serif" font-size="10.00" fill="grey"> formatter_</text>
</g>
</g>
</svg>
