<?xml version="1.0" encoding="UTF-8" standalone="no"?>
<!DOCTYPE svg PUBLIC "-//W3C//DTD SVG 1.1//EN"
 "http://www.w3.org/Graphics/SVG/1.1/DTD/svg11.dtd">
<!-- Generated by graphviz version 2.43.0 (0)
 -->
<!-- Title: detail::duration_formatter::minute Pages: 1 -->
<svg width="509pt" height="158pt"
 viewBox="0.00 0.00 509.00 158.00" xmlns="http://www.w3.org/2000/svg" xmlns:xlink="http://www.w3.org/1999/xlink">
<g id="graph0" class="graph" transform="scale(1 1) rotate(0) translate(4 154)">
<title>detail::duration_formatter::minute</title>
<!-- Node1 -->
<g id="Node000001" class="node">
<title>Node1</title>
<g id="a_Node000001"><a xlink:title=" ">
<polygon fill="#999999" stroke="#666666" points="501,-102 358,-102 358,-72 501,-72 501,-102"/>
<text text-anchor="start" x="366" y="-90" font-family="Helvetica,sans-Serif" font-size="10.00">detail::duration_formatter</text>
<text text-anchor="middle" x="429.5" y="-79" font-family="Helvetica,sans-Serif" font-size="10.00">::minute</text>
</a>
</g>
</g>
<!-- Node2 -->
<g id="Node000002" class="node">
<title>Node2</title>
<g id="a_Node000002"><a xlink:href="structdetail_1_1duration__formatter.html#a46f7670012d8edd7186c2961725c8894" target="_top" xlink:title=" ">
<polygon fill="white" stroke="#666666" points="322,-150 179,-150 179,-120 322,-120 322,-150"/>
<text text-anchor="start" x="187" y="-138" font-family="Helvetica,sans-Serif" font-size="10.00">detail::duration_formatter</text>
<text text-anchor="middle" x="250.5" y="-127" font-family="Helvetica,sans-Serif" font-size="10.00">::on_24_hour_time</text>
</a>
</g>
</g>
<!-- Node1&#45;&gt;Node2 -->
<g id="edge1_Node000001_Node000002" class="edge">
<title>Node1&#45;&gt;Node2</title>
<g id="a_edge1_Node000001_Node000002"><a xlink:title=" ">
<path fill="none" stroke="#63b8ff" d="M363.16,-104.72C344.65,-109.74 324.68,-115.15 306.82,-120"/>
<polygon fill="#63b8ff" stroke="#63b8ff" points="364.25,-108.05 372.98,-102.06 362.41,-101.3 364.25,-108.05"/>
</a>
</g>
</g>
<!-- Node4 -->
<g id="Node000004" class="node">
<title>Node4</title>
<g id="a_Node000004"><a xlink:href="structdetail_1_1duration__formatter.html#abe4a8e5797458144ae64f6c10ede01f1" target="_top" xlink:title=" ">
<polygon fill="white" stroke="#666666" points="322,-102 179,-102 179,-72 322,-72 322,-102"/>
<text text-anchor="start" x="187" y="-90" font-family="Helvetica,sans-Serif" font-size="10.00">detail::duration_formatter</text>
<text text-anchor="middle" x="250.5" y="-79" font-family="Helvetica,sans-Serif" font-size="10.00">::on_minute</text>
</a>
</g>
</g>
<!-- Node1&#45;&gt;Node4 -->
<g id="edge3_Node000001_Node000004" class="edge">
<title>Node1&#45;&gt;Node4</title>
<g id="a_edge3_Node000001_Node000004"><a xlink:title=" ">
<path fill="none" stroke="#63b8ff" d="M347.51,-87C339.03,-87 330.46,-87 322.11,-87"/>
<polygon fill="#63b8ff" stroke="#63b8ff" points="347.78,-90.5 357.78,-87 347.78,-83.5 347.78,-90.5"/>
</a>
</g>
</g>
<!-- Node5 -->
<g id="Node000005" class="node">
<title>Node5</title>
<g id="a_Node000005"><a xlink:href="structdetail_1_1duration__formatter.html#a56603e2ddef5ce5f87010f1a9847c019" target="_top" xlink:title=" ">
<polygon fill="white" stroke="#666666" points="322,-54 179,-54 179,-24 322,-24 322,-54"/>
<text text-anchor="start" x="187" y="-42" font-family="Helvetica,sans-Serif" font-size="10.00">detail::duration_formatter</text>
<text text-anchor="middle" x="250.5" y="-31" font-family="Helvetica,sans-Serif" font-size="10.00">::time</text>
</a>
</g>
</g>
<!-- Node1&#45;&gt;Node5 -->
<g id="edge4_Node000001_Node000005" class="edge">
<title>Node1&#45;&gt;Node5</title>
<g id="a_edge4_Node000001_Node000005"><a xlink:title=" ">
<path fill="none" stroke="#63b8ff" d="M363.16,-69.28C344.65,-64.26 324.68,-58.85 306.82,-54"/>
<polygon fill="#63b8ff" stroke="#63b8ff" points="362.41,-72.7 372.98,-71.94 364.25,-65.95 362.41,-72.7"/>
</a>
</g>
</g>
<!-- Node3 -->
<g id="Node000003" class="node">
<title>Node3</title>
<g id="a_Node000003"><a xlink:href="structdetail_1_1duration__formatter.html#a8044d0b686a0080acbb954da3cab168d" target="_top" xlink:title=" ">
<polygon fill="white" stroke="#666666" points="143,-150 0,-150 0,-120 143,-120 143,-150"/>
<text text-anchor="start" x="8" y="-138" font-family="Helvetica,sans-Serif" font-size="10.00">detail::duration_formatter</text>
<text text-anchor="middle" x="71.5" y="-127" font-family="Helvetica,sans-Serif" font-size="10.00">::on_iso_time</text>
</a>
</g>
</g>
<!-- Node2&#45;&gt;Node3 -->
<g id="edge2_Node000002_Node000003" class="edge">
<title>Node2&#45;&gt;Node3</title>
<g id="a_edge2_Node000002_Node000003"><a xlink:title=" ">
<path fill="none" stroke="#63b8ff" d="M168.51,-135C160.03,-135 151.46,-135 143.11,-135"/>
<polygon fill="#63b8ff" stroke="#63b8ff" points="168.78,-138.5 178.78,-135 168.78,-131.5 168.78,-138.5"/>
</a>
</g>
</g>
<!-- Node6 -->
<g id="Node000006" class="node">
<title>Node6</title>
<g id="a_Node000006"><a xlink:href="structdetail_1_1duration__formatter.html#ad9e131f8bfd982dc0e64790dba0a9329" target="_top" xlink:title=" ">
<polygon fill="white" stroke="#666666" points="143,-78 0,-78 0,-48 143,-48 143,-78"/>
<text text-anchor="start" x="8" y="-66" font-family="Helvetica,sans-Serif" font-size="10.00">detail::duration_formatter</text>
<text text-anchor="middle" x="71.5" y="-55" font-family="Helvetica,sans-Serif" font-size="10.00">::on_12_hour_time</text>
</a>
</g>
</g>
<!-- Node5&#45;&gt;Node6 -->
<g id="edge5_Node000005_Node000006" class="edge">
<title>Node5&#45;&gt;Node6</title>
<g id="a_edge5_Node000005_Node000006"><a xlink:title=" ">
<path fill="none" stroke="#63b8ff" d="M168.79,-49.94C160.22,-51.11 151.55,-52.28 143.11,-53.43"/>
<polygon fill="#63b8ff" stroke="#63b8ff" points="169.34,-53.4 178.78,-48.59 168.4,-46.46 169.34,-53.4"/>
</a>
</g>
</g>
<!-- Node7 -->
<g id="Node000007" class="node">
<title>Node7</title>
<g id="a_Node000007"><a xlink:href="structdetail_1_1duration__formatter.html#a3f21115b4f82e34f3b86a3d269ae82fd" target="_top" xlink:title=" ">
<polygon fill="white" stroke="#666666" points="143,-30 0,-30 0,0 143,0 143,-30"/>
<text text-anchor="start" x="8" y="-18" font-family="Helvetica,sans-Serif" font-size="10.00">detail::duration_formatter</text>
<text text-anchor="middle" x="71.5" y="-7" font-family="Helvetica,sans-Serif" font-size="10.00">::on_am_pm</text>
</a>
</g>
</g>
<!-- Node5&#45;&gt;Node7 -->
<g id="edge6_Node000005_Node000007" class="edge">
<title>Node5&#45;&gt;Node7</title>
<g id="a_edge6_Node000005_Node000007"><a xlink:title=" ">
<path fill="none" stroke="#63b8ff" d="M168.79,-28.06C160.22,-26.89 151.55,-25.72 143.11,-24.57"/>
<polygon fill="#63b8ff" stroke="#63b8ff" points="168.4,-31.54 178.78,-29.41 169.34,-24.6 168.4,-31.54"/>
</a>
</g>
</g>
</g>
</svg>
