<?xml version="1.0" encoding="UTF-8" standalone="no"?>
<!DOCTYPE svg PUBLIC "-//W3C//DTD SVG 1.1//EN"
 "http://www.w3.org/Graphics/SVG/1.1/DTD/svg11.dtd">
<!-- Generated by graphviz version 2.43.0 (0)
 -->
<!-- Title: formatter&lt; detail::styled_arg&lt; T &gt;, Char &gt;::format Pages: 1 -->
<svg width="438pt" height="124pt"
 viewBox="0.00 0.00 438.00 123.50" xmlns="http://www.w3.org/2000/svg" xmlns:xlink="http://www.w3.org/1999/xlink">
<g id="graph0" class="graph" transform="scale(1 1) rotate(0) translate(4 119.5)">
<title>formatter&lt; detail::styled_arg&lt; T &gt;, Char &gt;::format</title>
<!-- Node1 -->
<g id="Node000001" class="node">
<title>Node1</title>
<g id="a_Node000001"><a xlink:title=" ">
<polygon fill="#999999" stroke="#666666" points="125,-73 0,-73 0,-32 125,-32 125,-73"/>
<text text-anchor="start" x="8" y="-61" font-family="Helvetica,sans-Serif" font-size="10.00">formatter&lt; detail::</text>
<text text-anchor="start" x="8" y="-50" font-family="Helvetica,sans-Serif" font-size="10.00">styled_arg&lt; T &gt;, Char</text>
<text text-anchor="middle" x="62.5" y="-39" font-family="Helvetica,sans-Serif" font-size="10.00"> &gt;::format</text>
</a>
</g>
</g>
<!-- Node2 -->
<g id="Node000002" class="node">
<title>Node2</title>
<g id="a_Node000002"><a xlink:href="classbasic__string__view.html#a039a92fee947263a6c75dc6afd879719" target="_top" xlink:title=" ">
<polygon fill="white" stroke="#666666" points="279,-115.5 170,-115.5 170,-85.5 279,-85.5 279,-115.5"/>
<text text-anchor="start" x="178" y="-103.5" font-family="Helvetica,sans-Serif" font-size="10.00">basic_string_view::</text>
<text text-anchor="middle" x="224.5" y="-92.5" font-family="Helvetica,sans-Serif" font-size="10.00">basic_string_view</text>
</a>
</g>
</g>
<!-- Node1&#45;&gt;Node2 -->
<g id="edge1_Node000001_Node000002" class="edge">
<title>Node1&#45;&gt;Node2</title>
<g id="a_edge1_Node000001_Node000002"><a xlink:title=" ">
<path fill="none" stroke="#63b8ff" d="M125.36,-71.06C137.92,-74.83 151.11,-78.78 163.6,-82.53"/>
<polygon fill="#63b8ff" stroke="#63b8ff" points="162.86,-85.96 173.44,-85.48 164.87,-79.26 162.86,-85.96"/>
</a>
</g>
</g>
<!-- Node4 -->
<g id="Node000004" class="node">
<title>Node4</title>
<g id="a_Node000004"><a xlink:href="classbasic__string__view.html#a50d08a55660173ee8f89dee436207da3" target="_top" xlink:title=" ">
<polygon fill="white" stroke="#666666" points="279,-67.5 170,-67.5 170,-37.5 279,-37.5 279,-67.5"/>
<text text-anchor="start" x="178" y="-55.5" font-family="Helvetica,sans-Serif" font-size="10.00">basic_string_view::</text>
<text text-anchor="middle" x="224.5" y="-44.5" font-family="Helvetica,sans-Serif" font-size="10.00">begin</text>
</a>
</g>
</g>
<!-- Node1&#45;&gt;Node4 -->
<g id="edge3_Node000001_Node000004" class="edge">
<title>Node1&#45;&gt;Node4</title>
<g id="a_edge3_Node000001_Node000004"><a xlink:title=" ">
<path fill="none" stroke="#63b8ff" d="M125.36,-52.5C136.6,-52.5 148.35,-52.5 159.65,-52.5"/>
<polygon fill="#63b8ff" stroke="#63b8ff" points="159.88,-56 169.88,-52.5 159.88,-49 159.88,-56"/>
</a>
</g>
</g>
<!-- Node5 -->
<g id="Node000005" class="node">
<title>Node5</title>
<g id="a_Node000005"><a xlink:href="classbasic__string__view.html#a12fc892d9a99adbf90ed0e9c88f87a02" target="_top" xlink:title=" ">
<polygon fill="white" stroke="#666666" points="288,-19 161,-19 161,0 288,0 288,-19"/>
<text text-anchor="middle" x="224.5" y="-7" font-family="Helvetica,sans-Serif" font-size="10.00">basic_string_view::end</text>
</a>
</g>
</g>
<!-- Node1&#45;&gt;Node5 -->
<g id="edge4_Node000001_Node000005" class="edge">
<title>Node1&#45;&gt;Node5</title>
<g id="a_edge4_Node000001_Node000005"><a xlink:title=" ">
<path fill="none" stroke="#63b8ff" d="M125.36,-35.88C142.84,-31.18 161.53,-26.15 177.87,-21.76"/>
<polygon fill="#63b8ff" stroke="#63b8ff" points="178.96,-25.1 187.7,-19.12 177.14,-18.34 178.96,-25.1"/>
</a>
</g>
</g>
<!-- Node3 -->
<g id="Node000003" class="node">
<title>Node3</title>
<g id="a_Node000003"><a xlink:href="namespacedetail.html#a75ed2634319883d038944529dbb954e2" target="_top" xlink:title=" ">
<polygon fill="white" stroke="#666666" points="430,-115.5 324,-115.5 324,-85.5 430,-85.5 430,-115.5"/>
<text text-anchor="start" x="332" y="-103.5" font-family="Helvetica,sans-Serif" font-size="10.00">detail::is_constant</text>
<text text-anchor="middle" x="377" y="-92.5" font-family="Helvetica,sans-Serif" font-size="10.00">_evaluated</text>
</a>
</g>
</g>
<!-- Node2&#45;&gt;Node3 -->
<g id="edge2_Node000002_Node000003" class="edge">
<title>Node2&#45;&gt;Node3</title>
<g id="a_edge2_Node000002_Node000003"><a xlink:title=" ">
<path fill="none" stroke="#63b8ff" d="M279.41,-100.5C290.52,-100.5 302.3,-100.5 313.68,-100.5"/>
<polygon fill="#63b8ff" stroke="#63b8ff" points="313.98,-104 323.98,-100.5 313.98,-97 313.98,-104"/>
</a>
</g>
</g>
</g>
</svg>
