<?xml version="1.0" encoding="UTF-8" standalone="no"?>
<!DOCTYPE svg PUBLIC "-//W3C//DTD SVG 1.1//EN"
 "http://www.w3.org/Graphics/SVG/1.1/DTD/svg11.dtd">
<!-- Generated by graphviz version 2.43.0 (0)
 -->
<!-- Title: detail::dragonbox::cache_accessor&lt; double &gt;::compute_mul_parity Pages: 1 -->
<svg width="607pt" height="143pt"
 viewBox="0.00 0.00 607.00 143.00" xmlns="http://www.w3.org/2000/svg" xmlns:xlink="http://www.w3.org/1999/xlink">
<g id="graph0" class="graph" transform="scale(1 1) rotate(0) translate(4 139)">
<title>detail::dragonbox::cache_accessor&lt; double &gt;::compute_mul_parity</title>
<!-- Node1 -->
<g id="Node000001" class="node">
<title>Node1</title>
<g id="a_Node000001"><a xlink:title=" ">
<polygon fill="#999999" stroke="#666666" points="137,-109 0,-109 0,-68 137,-68 137,-109"/>
<text text-anchor="start" x="8" y="-97" font-family="Helvetica,sans-Serif" font-size="10.00">detail::dragonbox::</text>
<text text-anchor="start" x="8" y="-86" font-family="Helvetica,sans-Serif" font-size="10.00">cache_accessor&lt; double</text>
<text text-anchor="middle" x="68.5" y="-75" font-family="Helvetica,sans-Serif" font-size="10.00"> &gt;::compute_mul_parity</text>
</a>
</g>
</g>
<!-- Node2 -->
<g id="Node000002" class="node">
<title>Node2</title>
<g id="a_Node000002"><a xlink:href="classdetail_1_1uint128.html#a4f6fce63fc851baef913a020abe8e961" target="_top" xlink:title=" ">
<polygon fill="white" stroke="#666666" points="433,-135 319,-135 319,-116 433,-116 433,-135"/>
<text text-anchor="middle" x="376" y="-123" font-family="Helvetica,sans-Serif" font-size="10.00">detail::uint128::high</text>
</a>
</g>
</g>
<!-- Node1&#45;&gt;Node2 -->
<g id="edge1_Node000001_Node000002" class="edge">
<title>Node1&#45;&gt;Node2</title>
<g id="a_edge1_Node000001_Node000002"><a xlink:title=" ">
<path fill="none" stroke="#63b8ff" d="M137.14,-97.06C149.08,-98.55 161.41,-100.08 173,-101.5 218.31,-107.04 269.36,-113.1 308.8,-117.75"/>
<polygon fill="#63b8ff" stroke="#63b8ff" points="308.48,-121.23 318.82,-118.93 309.3,-114.28 308.48,-121.23"/>
</a>
</g>
</g>
<!-- Node3 -->
<g id="Node000003" class="node">
<title>Node3</title>
<g id="a_Node000003"><a xlink:href="classdetail_1_1uint128.html#ad78164a856629bbf7f8111f518ce5cbd" target="_top" xlink:title=" ">
<polygon fill="white" stroke="#666666" points="431,-97 321,-97 321,-78 431,-78 431,-97"/>
<text text-anchor="middle" x="376" y="-85" font-family="Helvetica,sans-Serif" font-size="10.00">detail::uint128::low</text>
</a>
</g>
</g>
<!-- Node1&#45;&gt;Node3 -->
<g id="edge2_Node000001_Node000003" class="edge">
<title>Node1&#45;&gt;Node3</title>
<g id="a_edge2_Node000001_Node000003"><a xlink:title=" ">
<path fill="none" stroke="#63b8ff" d="M137.3,-88.28C188.94,-88.11 259.57,-87.88 310.4,-87.71"/>
<polygon fill="#63b8ff" stroke="#63b8ff" points="310.63,-91.21 320.61,-87.68 310.6,-84.21 310.63,-91.21"/>
</a>
</g>
</g>
<!-- Node4 -->
<g id="Node000004" class="node">
<title>Node4</title>
<g id="a_Node000004"><a xlink:href="namespacedetail_1_1dragonbox.html#ac836659b351ddf33f74fee7f87cbeefc" target="_top" xlink:title=" ">
<polygon fill="white" stroke="#666666" points="283,-60.5 173,-60.5 173,-30.5 283,-30.5 283,-60.5"/>
<text text-anchor="start" x="181" y="-48.5" font-family="Helvetica,sans-Serif" font-size="10.00">detail::dragonbox::</text>
<text text-anchor="middle" x="228" y="-37.5" font-family="Helvetica,sans-Serif" font-size="10.00">umul192_lower128</text>
</a>
</g>
</g>
<!-- Node1&#45;&gt;Node4 -->
<g id="edge3_Node000001_Node000004" class="edge">
<title>Node1&#45;&gt;Node4</title>
<g id="a_edge3_Node000001_Node000004"><a xlink:title=" ">
<path fill="none" stroke="#63b8ff" d="M137.21,-70.01C145.72,-67.69 154.4,-65.32 162.85,-63.01"/>
<polygon fill="#63b8ff" stroke="#63b8ff" points="163.92,-66.35 172.65,-60.34 162.08,-59.6 163.92,-66.35"/>
</a>
</g>
</g>
<!-- Node4&#45;&gt;Node2 -->
<g id="edge4_Node000004_Node000002" class="edge">
<title>Node4&#45;&gt;Node2</title>
<g id="a_edge4_Node000004_Node000002"><a xlink:title=" ">
<path fill="none" stroke="#63b8ff" d="M248.08,-60.67C265.69,-74.11 292.97,-93.56 319,-106.5 323.31,-108.64 327.92,-110.64 332.58,-112.47"/>
<polygon fill="#63b8ff" stroke="#63b8ff" points="331.53,-115.81 342.12,-115.99 333.95,-109.25 331.53,-115.81"/>
</a>
</g>
</g>
<!-- Node4&#45;&gt;Node3 -->
<g id="edge5_Node000004_Node000003" class="edge">
<title>Node4&#45;&gt;Node3</title>
<g id="a_edge5_Node000004_Node000003"><a xlink:title=" ">
<path fill="none" stroke="#63b8ff" d="M281.3,-60.54C297.81,-65.29 315.86,-70.49 331.67,-75.04"/>
<polygon fill="#63b8ff" stroke="#63b8ff" points="331.13,-78.52 341.7,-77.92 333.06,-71.79 331.13,-78.52"/>
</a>
</g>
</g>
<!-- Node5 -->
<g id="Node000005" class="node">
<title>Node5</title>
<g id="a_Node000005"><a xlink:href="classdetail_1_1uint128.html#a31da8740f7bc5629bda4b1be76041612" target="_top" xlink:title=" ">
<polygon fill="white" stroke="#666666" points="599,-38 469,-38 469,-19 599,-19 599,-38"/>
<text text-anchor="middle" x="534" y="-26" font-family="Helvetica,sans-Serif" font-size="10.00">detail::uint128::uint128</text>
</a>
</g>
</g>
<!-- Node4&#45;&gt;Node5 -->
<g id="edge6_Node000004_Node000005" class="edge">
<title>Node4&#45;&gt;Node5</title>
<g id="a_edge6_Node000004_Node000005"><a xlink:title=" ">
<path fill="none" stroke="#63b8ff" d="M283.35,-42.46C332.2,-39.73 404.4,-35.69 458.6,-32.66"/>
<polygon fill="#63b8ff" stroke="#63b8ff" points="459.06,-36.14 468.85,-32.09 458.67,-29.15 459.06,-36.14"/>
</a>
</g>
</g>
<!-- Node6 -->
<g id="Node000006" class="node">
<title>Node6</title>
<g id="a_Node000006"><a xlink:href="namespacedetail.html#a79d19c16611e9ed84eb710d8380f9199" target="_top" xlink:title=" ">
<polygon fill="white" stroke="#666666" points="422.5,-19 329.5,-19 329.5,0 422.5,0 422.5,-19"/>
<text text-anchor="middle" x="376" y="-7" font-family="Helvetica,sans-Serif" font-size="10.00">detail::umul128</text>
</a>
</g>
</g>
<!-- Node4&#45;&gt;Node6 -->
<g id="edge7_Node000004_Node000006" class="edge">
<title>Node4&#45;&gt;Node6</title>
<g id="a_edge7_Node000004_Node000006"><a xlink:title=" ">
<path fill="none" stroke="#63b8ff" d="M283.37,-32.09C297.46,-28.62 312.54,-24.9 326.32,-21.5"/>
<polygon fill="#63b8ff" stroke="#63b8ff" points="327.22,-24.89 336.09,-19.09 325.54,-18.09 327.22,-24.89"/>
</a>
</g>
</g>
<!-- Node6&#45;&gt;Node5 -->
<g id="edge8_Node000006_Node000005" class="edge">
<title>Node6&#45;&gt;Node5</title>
<g id="a_edge8_Node000006_Node000005"><a xlink:title=" ">
<path fill="none" stroke="#63b8ff" d="M422.54,-15.05C433.85,-16.42 446.27,-17.94 458.57,-19.44"/>
<polygon fill="#63b8ff" stroke="#63b8ff" points="458.5,-22.95 468.85,-20.69 459.35,-16 458.5,-22.95"/>
</a>
</g>
</g>
</g>
</svg>
