<?xml version="1.0" encoding="UTF-8" standalone="no"?>
<!DOCTYPE svg PUBLIC "-//W3C//DTD SVG 1.1//EN"
 "http://www.w3.org/Graphics/SVG/1.1/DTD/svg11.dtd">
<!-- Generated by graphviz version 2.43.0 (0)
 -->
<!-- Title: formatter&lt; day, Char &gt; Pages: 1 -->
<svg width="140pt" height="216pt"
 viewBox="0.00 0.00 140.00 216.00" xmlns="http://www.w3.org/2000/svg" xmlns:xlink="http://www.w3.org/1999/xlink">
<g id="graph0" class="graph" transform="scale(1 1) rotate(0) translate(4 212)">
<title>formatter&lt; day, Char &gt;</title>
<!-- Node1 -->
<g id="Node000001" class="node">
<title>Node1</title>
<g id="a_Node000001"><a xlink:title=" ">
<polygon fill="#999999" stroke="#666666" points="132,-19 0,-19 0,0 132,0 132,-19"/>
<text text-anchor="middle" x="66" y="-7" font-family="Helvetica,sans-Serif" font-size="10.00">formatter&lt; day, Char &gt;</text>
</a>
</g>
</g>
<!-- Node2 -->
<g id="Node000002" class="node">
<title>Node2</title>
<g id="a_Node000002"><a xlink:href="structformatter_3_01std_1_1tm_00_01Char_01_4.html" target="_top" xlink:title=" ">
<polygon fill="white" stroke="#666666" points="122,-86 10,-86 10,-56 122,-56 122,-86"/>
<text text-anchor="start" x="18" y="-74" font-family="Helvetica,sans-Serif" font-size="10.00">formatter&lt; std::tm,</text>
<text text-anchor="middle" x="66" y="-63" font-family="Helvetica,sans-Serif" font-size="10.00"> Char &gt;</text>
</a>
</g>
</g>
<!-- Node2&#45;&gt;Node1 -->
<g id="edge1_Node000001_Node000002" class="edge">
<title>Node2&#45;&gt;Node1</title>
<g id="a_edge1_Node000001_Node000002"><a xlink:title=" ">
<path fill="none" stroke="#8b1a1a" d="M66,-45.79C66,-36.36 66,-26.15 66,-19.16"/>
<polygon fill="#8b1a1a" stroke="#8b1a1a" points="62.5,-45.9 66,-55.9 69.5,-45.9 62.5,-45.9"/>
</a>
</g>
</g>
<!-- Node3 -->
<g id="Node000003" class="node">
<title>Node3</title>
<g id="a_Node000003"><a xlink:href="structformat__specs.html" target="_top" xlink:title=" ">
<polygon fill="white" stroke="#666666" points="107.5,-152 24.5,-152 24.5,-133 107.5,-133 107.5,-152"/>
<text text-anchor="middle" x="66" y="-140" font-family="Helvetica,sans-Serif" font-size="10.00">format_specs</text>
</a>
</g>
</g>
<!-- Node3&#45;&gt;Node2 -->
<g id="edge2_Node000002_Node000003" class="edge">
<title>Node3&#45;&gt;Node2</title>
<g id="a_edge2_Node000002_Node000003"><a xlink:title=" ">
<path fill="none" stroke="#9a32cd" stroke-dasharray="5,2" d="M66,-122.71C66,-111.19 66,-96.68 66,-86.14"/>
<polygon fill="#9a32cd" stroke="#9a32cd" points="62.5,-122.98 66,-132.98 69.5,-122.98 62.5,-122.98"/>
</a>
</g>
<text text-anchor="middle" x="84.5" y="-107" font-family="Helvetica,sans-Serif" font-size="10.00" fill="grey"> specs_</text>
</g>
<!-- Node4 -->
<g id="Node000004" class="node">
<title>Node4</title>
<g id="a_Node000004"><a xlink:href="classbasic__specs.html" target="_top" xlink:title=" ">
<polygon fill="white" stroke="#666666" points="103.5,-208 28.5,-208 28.5,-189 103.5,-189 103.5,-208"/>
<text text-anchor="middle" x="66" y="-196" font-family="Helvetica,sans-Serif" font-size="10.00">basic_specs</text>
</a>
</g>
</g>
<!-- Node4&#45;&gt;Node3 -->
<g id="edge3_Node000003_Node000004" class="edge">
<title>Node4&#45;&gt;Node3</title>
<g id="a_edge3_Node000003_Node000004"><a xlink:title=" ">
<path fill="none" stroke="#63b8ff" d="M66,-178.3C66,-169.41 66,-159.28 66,-152.25"/>
<polygon fill="#63b8ff" stroke="#63b8ff" points="62.5,-178.58 66,-188.58 69.5,-178.58 62.5,-178.58"/>
</a>
</g>
</g>
</g>
</svg>
