<?xml version="1.0" encoding="UTF-8" standalone="no"?>
<!DOCTYPE svg PUBLIC "-//W3C//DTD SVG 1.1//EN"
 "http://www.w3.org/Graphics/SVG/1.1/DTD/svg11.dtd">
<!-- Generated by graphviz version 2.43.0 (0)
 -->
<!-- Title: formatter&lt; group_digits_view&lt; T &gt; &gt;::format Pages: 1 -->
<svg width="301pt" height="172pt"
 viewBox="0.00 0.00 301.00 171.50" xmlns="http://www.w3.org/2000/svg" xmlns:xlink="http://www.w3.org/1999/xlink">
<g id="graph0" class="graph" transform="scale(1 1) rotate(0) translate(4 167.5)">
<title>formatter&lt; group_digits_view&lt; T &gt; &gt;::format</title>
<!-- Node1 -->
<g id="Node000001" class="node">
<title>Node1</title>
<g id="a_Node000001"><a xlink:title=" ">
<polygon fill="#999999" stroke="#666666" points="134,-91.5 0,-91.5 0,-61.5 134,-61.5 134,-91.5"/>
<text text-anchor="start" x="8" y="-79.5" font-family="Helvetica,sans-Serif" font-size="10.00">formatter&lt; group_digits</text>
<text text-anchor="middle" x="67" y="-68.5" font-family="Helvetica,sans-Serif" font-size="10.00">_view&lt; T &gt; &gt;::format</text>
</a>
</g>
</g>
<!-- Node2 -->
<g id="Node000002" class="node">
<title>Node2</title>
<g id="a_Node000002"><a xlink:href="classdetail_1_1digit__grouping.html#a8206f26f38aad3b945f673a5ab12d375" target="_top" xlink:title=" ">
<polygon fill="white" stroke="#666666" points="291.5,-163.5 171.5,-163.5 171.5,-133.5 291.5,-133.5 291.5,-163.5"/>
<text text-anchor="start" x="179.5" y="-151.5" font-family="Helvetica,sans-Serif" font-size="10.00">detail::digit_grouping</text>
<text text-anchor="middle" x="231.5" y="-140.5" font-family="Helvetica,sans-Serif" font-size="10.00">::digit_grouping</text>
</a>
</g>
</g>
<!-- Node1&#45;&gt;Node2 -->
<g id="edge1_Node000001_Node000002" class="edge">
<title>Node1&#45;&gt;Node2</title>
<g id="a_edge1_Node000001_Node000002"><a xlink:title=" ">
<path fill="none" stroke="#63b8ff" d="M99.02,-91.71C119.12,-101.41 145.94,-114.08 170,-124.5 173.91,-126.19 177.98,-127.91 182.07,-129.6"/>
<polygon fill="#63b8ff" stroke="#63b8ff" points="181.04,-132.96 191.62,-133.49 183.68,-126.48 181.04,-132.96"/>
</a>
</g>
</g>
<!-- Node3 -->
<g id="Node000003" class="node">
<title>Node3</title>
<g id="a_Node000003"><a xlink:href="classbasic__specs.html#a2d22aefb758834024a51706607c8dc56" target="_top" xlink:title=" ">
<polygon fill="white" stroke="#666666" points="293,-115.5 170,-115.5 170,-85.5 293,-85.5 293,-115.5"/>
<text text-anchor="start" x="178" y="-103.5" font-family="Helvetica,sans-Serif" font-size="10.00">basic_specs::dynamic</text>
<text text-anchor="middle" x="231.5" y="-92.5" font-family="Helvetica,sans-Serif" font-size="10.00">_precision</text>
</a>
</g>
</g>
<!-- Node1&#45;&gt;Node3 -->
<g id="edge2_Node000001_Node000003" class="edge">
<title>Node1&#45;&gt;Node3</title>
<g id="a_edge2_Node000001_Node000003"><a xlink:title=" ">
<path fill="none" stroke="#63b8ff" d="M134.09,-86.26C142.62,-87.52 151.38,-88.81 159.97,-90.08"/>
<polygon fill="#63b8ff" stroke="#63b8ff" points="159.56,-93.56 169.96,-91.56 160.58,-86.64 159.56,-93.56"/>
</a>
</g>
</g>
<!-- Node4 -->
<g id="Node000004" class="node">
<title>Node4</title>
<g id="a_Node000004"><a xlink:href="classbasic__specs.html#ac097e3209fd0fea8a630df81a5218146" target="_top" xlink:title=" ">
<polygon fill="white" stroke="#666666" points="293,-67.5 170,-67.5 170,-37.5 293,-37.5 293,-67.5"/>
<text text-anchor="start" x="178" y="-55.5" font-family="Helvetica,sans-Serif" font-size="10.00">basic_specs::dynamic</text>
<text text-anchor="middle" x="231.5" y="-44.5" font-family="Helvetica,sans-Serif" font-size="10.00">_width</text>
</a>
</g>
</g>
<!-- Node1&#45;&gt;Node4 -->
<g id="edge3_Node000001_Node000004" class="edge">
<title>Node1&#45;&gt;Node4</title>
<g id="a_edge3_Node000001_Node000004"><a xlink:title=" ">
<path fill="none" stroke="#63b8ff" d="M134.09,-66.74C142.62,-65.48 151.38,-64.19 159.97,-62.92"/>
<polygon fill="#63b8ff" stroke="#63b8ff" points="160.58,-66.36 169.96,-61.44 159.56,-59.44 160.58,-66.36"/>
</a>
</g>
</g>
<!-- Node5 -->
<g id="Node000005" class="node">
<title>Node5</title>
<g id="a_Node000005"><a xlink:href="classbasic__specs.html#a380e6ff33a8ae05e3ef479bf95696ad2" target="_top" xlink:title=" ">
<polygon fill="white" stroke="#666666" points="282,-19 181,-19 181,0 282,0 282,-19"/>
<text text-anchor="middle" x="231.5" y="-7" font-family="Helvetica,sans-Serif" font-size="10.00">basic_specs::sign</text>
</a>
</g>
</g>
<!-- Node1&#45;&gt;Node5 -->
<g id="edge4_Node000001_Node000005" class="edge">
<title>Node1&#45;&gt;Node5</title>
<g id="a_edge4_Node000001_Node000005"><a xlink:title=" ">
<path fill="none" stroke="#63b8ff" d="M97.44,-61.35C117.57,-51.31 145.02,-38.25 170,-28.5 175.58,-26.32 181.53,-24.21 187.43,-22.23"/>
<polygon fill="#63b8ff" stroke="#63b8ff" points="188.81,-25.47 197.25,-19.05 186.66,-18.81 188.81,-25.47"/>
</a>
</g>
</g>
</g>
</svg>
