<?xml version="1.0" encoding="UTF-8" standalone="no"?>
<!DOCTYPE svg PUBLIC "-//W3C//DTD SVG 1.1//EN"
 "http://www.w3.org/Graphics/SVG/1.1/DTD/svg11.dtd">
<!-- Generated by graphviz version 2.43.0 (0)
 -->
<!-- Title: formatter&lt; detail::bitint&lt; N &gt;, Char &gt;::format_as Pages: 1 -->
<svg width="274pt" height="108pt"
 viewBox="0.00 0.00 274.00 108.00" xmlns="http://www.w3.org/2000/svg" xmlns:xlink="http://www.w3.org/1999/xlink">
<g id="graph0" class="graph" transform="scale(1 1) rotate(0) translate(4 104)">
<title>formatter&lt; detail::bitint&lt; N &gt;, Char &gt;::format_as</title>
<!-- Node1 -->
<g id="Node000001" class="node">
<title>Node1</title>
<g id="a_Node000001"><a xlink:title=" ">
<polygon fill="#999999" stroke="#666666" points="266,-70 154,-70 154,-29 266,-29 266,-70"/>
<text text-anchor="start" x="162" y="-58" font-family="Helvetica,sans-Serif" font-size="10.00">formatter&lt; detail::</text>
<text text-anchor="start" x="162" y="-47" font-family="Helvetica,sans-Serif" font-size="10.00">bitint&lt; N &gt;, Char &gt;</text>
<text text-anchor="middle" x="210" y="-36" font-family="Helvetica,sans-Serif" font-size="10.00">::format_as</text>
</a>
</g>
</g>
<!-- Node2 -->
<g id="Node000002" class="node">
<title>Node2</title>
<g id="a_Node000002"><a xlink:href="structformatter_3_01detail_1_1bitint_3_01N_01_4_00_01Char_01_4.html#ab352b97944f136a683d0663a0be6f931" target="_top" xlink:title=" ">
<polygon fill="white" stroke="#666666" points="115,-100 3,-100 3,-59 115,-59 115,-100"/>
<text text-anchor="start" x="11" y="-88" font-family="Helvetica,sans-Serif" font-size="10.00">formatter&lt; detail::</text>
<text text-anchor="start" x="11" y="-77" font-family="Helvetica,sans-Serif" font-size="10.00">bitint&lt; N &gt;, Char &gt;</text>
<text text-anchor="middle" x="59" y="-66" font-family="Helvetica,sans-Serif" font-size="10.00">::format</text>
</a>
</g>
</g>
<!-- Node1&#45;&gt;Node2 -->
<g id="edge1_Node000001_Node000002" class="edge">
<title>Node1&#45;&gt;Node2</title>
<g id="a_edge1_Node000001_Node000002"><a xlink:title=" ">
<path fill="none" stroke="#63b8ff" d="M144.06,-62.57C134.48,-64.5 124.69,-66.48 115.33,-68.36"/>
<polygon fill="#63b8ff" stroke="#63b8ff" points="144.83,-65.99 153.94,-60.59 143.45,-59.13 144.83,-65.99"/>
</a>
</g>
</g>
<!-- Node3 -->
<g id="Node000003" class="node">
<title>Node3</title>
<g id="a_Node000003"><a xlink:href="structformatter_3_01detail_1_1ubitint_3_01N_01_4_00_01Char_01_4.html#a654de5bf8dfb00e4148275f457f2a457" target="_top" xlink:title=" ">
<polygon fill="white" stroke="#666666" points="118,-41 0,-41 0,0 118,0 118,-41"/>
<text text-anchor="start" x="8" y="-29" font-family="Helvetica,sans-Serif" font-size="10.00">formatter&lt; detail::</text>
<text text-anchor="start" x="8" y="-18" font-family="Helvetica,sans-Serif" font-size="10.00">ubitint&lt; N &gt;, Char &gt;</text>
<text text-anchor="middle" x="59" y="-7" font-family="Helvetica,sans-Serif" font-size="10.00">::format</text>
</a>
</g>
</g>
<!-- Node1&#45;&gt;Node3 -->
<g id="edge2_Node000001_Node000003" class="edge">
<title>Node1&#45;&gt;Node3</title>
<g id="a_edge2_Node000001_Node000003"><a xlink:title=" ">
<path fill="none" stroke="#63b8ff" d="M143.94,-36.84C135.34,-35.16 126.56,-33.45 118.08,-31.8"/>
<polygon fill="#63b8ff" stroke="#63b8ff" points="143.46,-40.31 153.94,-38.78 144.79,-33.44 143.46,-40.31"/>
</a>
</g>
</g>
</g>
</svg>
