<?xml version="1.0" encoding="UTF-8" standalone="no"?>
<!DOCTYPE svg PUBLIC "-//W3C//DTD SVG 1.1//EN"
 "http://www.w3.org/Graphics/SVG/1.1/DTD/svg11.dtd">
<!-- Generated by graphviz version 2.43.0 (0)
 -->
<!-- Title: formatter&lt; std::tm, Char &gt;::parse Pages: 1 -->
<svg width="449pt" height="76pt"
 viewBox="0.00 0.00 449.00 75.50" xmlns="http://www.w3.org/2000/svg" xmlns:xlink="http://www.w3.org/1999/xlink">
<g id="graph0" class="graph" transform="scale(1 1) rotate(0) translate(4 71.5)">
<title>formatter&lt; std::tm, Char &gt;::parse</title>
<!-- Node1 -->
<g id="Node000001" class="node">
<title>Node1</title>
<g id="a_Node000001"><a xlink:title=" ">
<polygon fill="#999999" stroke="#666666" points="112,-51 0,-51 0,-21 112,-21 112,-51"/>
<text text-anchor="start" x="8" y="-39" font-family="Helvetica,sans-Serif" font-size="10.00">formatter&lt; std::tm,</text>
<text text-anchor="middle" x="56" y="-28" font-family="Helvetica,sans-Serif" font-size="10.00"> Char &gt;::parse</text>
</a>
</g>
</g>
<!-- Node2 -->
<g id="Node000002" class="node">
<title>Node2</title>
<g id="a_Node000002"><a xlink:href="structformatter_3_01std_1_1tm_00_01Char_01_4.html#a129b6aab54742e2da9ec4555d18aadf0" target="_top" xlink:title=" ">
<polygon fill="white" stroke="#666666" points="260,-51 148,-51 148,-21 260,-21 260,-51"/>
<text text-anchor="start" x="156" y="-39" font-family="Helvetica,sans-Serif" font-size="10.00">formatter&lt; std::tm,</text>
<text text-anchor="middle" x="204" y="-28" font-family="Helvetica,sans-Serif" font-size="10.00"> Char &gt;::do_parse</text>
</a>
</g>
</g>
<!-- Node1&#45;&gt;Node2 -->
<g id="edge1_Node000001_Node000002" class="edge">
<title>Node1&#45;&gt;Node2</title>
<g id="a_edge1_Node000001_Node000002"><a xlink:title=" ">
<path fill="none" stroke="#63b8ff" d="M112.2,-36C120.46,-36 129.05,-36 137.51,-36"/>
<polygon fill="#63b8ff" stroke="#63b8ff" points="137.73,-39.5 147.73,-36 137.73,-32.5 137.73,-39.5"/>
</a>
</g>
</g>
<!-- Node3 -->
<g id="Node000003" class="node">
<title>Node3</title>
<g id="a_Node000003"><a xlink:href="classbasic__specs.html#afe5f9358d60a2ffcd51969958edebe52" target="_top" xlink:title=" ">
<polygon fill="white" stroke="#666666" points="441,-67.5 296,-67.5 296,-48.5 441,-48.5 441,-67.5"/>
<text text-anchor="middle" x="368.5" y="-55.5" font-family="Helvetica,sans-Serif" font-size="10.00">basic_specs::set_localized</text>
</a>
</g>
</g>
<!-- Node2&#45;&gt;Node3 -->
<g id="edge2_Node000002_Node000003" class="edge">
<title>Node2&#45;&gt;Node3</title>
<g id="a_edge2_Node000002_Node000003"><a xlink:title=" ">
<path fill="none" stroke="#63b8ff" d="M260.02,-43.45C268.81,-44.64 278.05,-45.89 287.29,-47.14"/>
<polygon fill="#63b8ff" stroke="#63b8ff" points="286.89,-50.62 297.27,-48.49 287.83,-43.68 286.89,-50.62"/>
</a>
</g>
</g>
<!-- Node4 -->
<g id="Node000004" class="node">
<title>Node4</title>
<g id="a_Node000004"><a xlink:href="classdetail_1_1tm__format__checker.html#a242f186733d82a24e3d11bc5fbeea401" target="_top" xlink:title=" ">
<polygon fill="white" stroke="#666666" points="441,-30 296,-30 296,0 441,0 441,-30"/>
<text text-anchor="start" x="304" y="-18" font-family="Helvetica,sans-Serif" font-size="10.00">detail::tm_format_checker</text>
<text text-anchor="middle" x="368.5" y="-7" font-family="Helvetica,sans-Serif" font-size="10.00">::tm_format_checker</text>
</a>
</g>
</g>
<!-- Node2&#45;&gt;Node4 -->
<g id="edge3_Node000002_Node000004" class="edge">
<title>Node2&#45;&gt;Node4</title>
<g id="a_edge3_Node000002_Node000004"><a xlink:title=" ">
<path fill="none" stroke="#63b8ff" d="M260.02,-28.89C268.29,-27.82 276.97,-26.7 285.65,-25.58"/>
<polygon fill="#63b8ff" stroke="#63b8ff" points="286.36,-29.01 295.83,-24.26 285.47,-22.07 286.36,-29.01"/>
</a>
</g>
</g>
</g>
</svg>
