<?xml version="1.0" encoding="UTF-8" standalone="no"?>
<!DOCTYPE svg PUBLIC "-//W3C//DTD SVG 1.1//EN"
 "http://www.w3.org/Graphics/SVG/1.1/DTD/svg11.dtd">
<!-- Generated by graphviz version 2.43.0 (0)
 -->
<!-- Title: detail::duration_formatter::on_iso_time Pages: 1 -->
<svg width="1010pt" height="391pt"
 viewBox="0.00 0.00 1010.00 390.50" xmlns="http://www.w3.org/2000/svg" xmlns:xlink="http://www.w3.org/1999/xlink">
<g id="graph0" class="graph" transform="scale(1 1) rotate(0) translate(4 386.5)">
<title>detail::duration_formatter::on_iso_time</title>
<!-- Node1 -->
<g id="Node000001" class="node">
<title>Node1</title>
<g id="a_Node000001"><a xlink:title=" ">
<polygon fill="#999999" stroke="#666666" points="143,-174 0,-174 0,-144 143,-144 143,-174"/>
<text text-anchor="start" x="8" y="-162" font-family="Helvetica,sans-Serif" font-size="10.00">detail::duration_formatter</text>
<text text-anchor="middle" x="71.5" y="-151" font-family="Helvetica,sans-Serif" font-size="10.00">::on_iso_time</text>
</a>
</g>
</g>
<!-- Node2 -->
<g id="Node000002" class="node">
<title>Node2</title>
<g id="a_Node000002"><a xlink:href="structdetail_1_1duration__formatter.html#ad8e5cd79d50c37c7977ea4ce10713c65" target="_top" xlink:title=" ">
<polygon fill="white" stroke="#666666" points="501,-174 358,-174 358,-144 501,-144 501,-174"/>
<text text-anchor="start" x="366" y="-162" font-family="Helvetica,sans-Serif" font-size="10.00">detail::duration_formatter</text>
<text text-anchor="middle" x="429.5" y="-151" font-family="Helvetica,sans-Serif" font-size="10.00">::handle_nan_inf</text>
</a>
</g>
</g>
<!-- Node1&#45;&gt;Node2 -->
<g id="edge1_Node000001_Node000002" class="edge">
<title>Node1&#45;&gt;Node2</title>
<g id="a_edge1_Node000001_Node000002"><a xlink:title=" ">
<path fill="none" stroke="#63b8ff" d="M143.26,-159C202.23,-159 286.23,-159 347.81,-159"/>
<polygon fill="#63b8ff" stroke="#63b8ff" points="347.87,-162.5 357.87,-159 347.87,-155.5 347.87,-162.5"/>
</a>
</g>
</g>
<!-- Node4 -->
<g id="Node000004" class="node">
<title>Node4</title>
<g id="a_Node000004"><a xlink:href="structdetail_1_1duration__formatter.html#a46f7670012d8edd7186c2961725c8894" target="_top" xlink:title=" ">
<polygon fill="white" stroke="#666666" points="322,-126 179,-126 179,-96 322,-96 322,-126"/>
<text text-anchor="start" x="187" y="-114" font-family="Helvetica,sans-Serif" font-size="10.00">detail::duration_formatter</text>
<text text-anchor="middle" x="250.5" y="-103" font-family="Helvetica,sans-Serif" font-size="10.00">::on_24_hour_time</text>
</a>
</g>
</g>
<!-- Node1&#45;&gt;Node4 -->
<g id="edge3_Node000001_Node000004" class="edge">
<title>Node1&#45;&gt;Node4</title>
<g id="a_edge3_Node000001_Node000004"><a xlink:title=" ">
<path fill="none" stroke="#63b8ff" d="M128.02,-143.94C145.89,-139.1 165.86,-133.68 184.37,-128.66"/>
<polygon fill="#63b8ff" stroke="#63b8ff" points="185.44,-132 194.18,-126 183.61,-125.24 185.44,-132"/>
</a>
</g>
</g>
<!-- Node13 -->
<g id="Node000013" class="node">
<title>Node13</title>
<g id="a_Node000013"><a xlink:href="structdetail_1_1duration__formatter.html#a5eaa3651f2774bf273f23c4a6cb232a2" target="_top" xlink:title=" ">
<polygon fill="white" stroke="#666666" points="322,-243 179,-243 179,-213 322,-213 322,-243"/>
<text text-anchor="start" x="187" y="-231" font-family="Helvetica,sans-Serif" font-size="10.00">detail::duration_formatter</text>
<text text-anchor="middle" x="250.5" y="-220" font-family="Helvetica,sans-Serif" font-size="10.00">::on_second</text>
</a>
</g>
</g>
<!-- Node1&#45;&gt;Node13 -->
<g id="edge14_Node000001_Node000013" class="edge">
<title>Node1&#45;&gt;Node13</title>
<g id="a_edge14_Node000001_Node000013"><a xlink:title=" ">
<path fill="none" stroke="#63b8ff" d="M111.34,-174.14C137.74,-184.43 172.86,-198.12 201.08,-209.12"/>
<polygon fill="#63b8ff" stroke="#63b8ff" points="200.16,-212.52 210.75,-212.89 202.7,-206 200.16,-212.52"/>
</a>
</g>
</g>
<!-- Node3 -->
<g id="Node000003" class="node">
<title>Node3</title>
<g id="a_Node000003"><a xlink:href="structdetail_1_1duration__formatter.html#a0b52d0c33d00406ad4f227d8d9ac7245" target="_top" xlink:title=" ">
<polygon fill="white" stroke="#666666" points="680,-190 537,-190 537,-160 680,-160 680,-190"/>
<text text-anchor="start" x="545" y="-178" font-family="Helvetica,sans-Serif" font-size="10.00">detail::duration_formatter</text>
<text text-anchor="middle" x="608.5" y="-167" font-family="Helvetica,sans-Serif" font-size="10.00">::write_nan</text>
</a>
</g>
</g>
<!-- Node2&#45;&gt;Node3 -->
<g id="edge2_Node000002_Node000003" class="edge">
<title>Node2&#45;&gt;Node3</title>
<g id="a_edge2_Node000002_Node000003"><a xlink:title=" ">
<path fill="none" stroke="#63b8ff" d="M501.22,-165.39C509.66,-166.16 518.33,-166.94 526.9,-167.71"/>
<polygon fill="#63b8ff" stroke="#63b8ff" points="526.62,-171.2 536.89,-168.62 527.25,-164.23 526.62,-171.2"/>
</a>
</g>
</g>
<!-- Node4&#45;&gt;Node2 -->
<g id="edge4_Node000004_Node000002" class="edge">
<title>Node4&#45;&gt;Node2</title>
<g id="a_edge4_Node000004_Node000002"><a xlink:title=" ">
<path fill="none" stroke="#63b8ff" d="M307.02,-126.06C324.89,-130.9 344.86,-136.32 363.37,-141.34"/>
<polygon fill="#63b8ff" stroke="#63b8ff" points="362.61,-144.76 373.18,-144 364.44,-138 362.61,-144.76"/>
</a>
</g>
</g>
<!-- Node5 -->
<g id="Node000005" class="node">
<title>Node5</title>
<g id="a_Node000005"><a xlink:href="structdetail_1_1duration__formatter.html#aa5938aa9edf655999748a82e9fd3b5cd" target="_top" xlink:title=" ">
<polygon fill="white" stroke="#666666" points="501,-30 358,-30 358,0 501,0 501,-30"/>
<text text-anchor="start" x="366" y="-18" font-family="Helvetica,sans-Serif" font-size="10.00">detail::duration_formatter</text>
<text text-anchor="middle" x="429.5" y="-7" font-family="Helvetica,sans-Serif" font-size="10.00">::hour</text>
</a>
</g>
</g>
<!-- Node4&#45;&gt;Node5 -->
<g id="edge5_Node000004_Node000005" class="edge">
<title>Node4&#45;&gt;Node5</title>
<g id="a_edge5_Node000004_Node000005"><a xlink:title=" ">
<path fill="none" stroke="#63b8ff" d="M270.56,-95.81C291.15,-79.95 325.42,-55.19 358,-39 361.71,-37.15 365.6,-35.4 369.56,-33.73"/>
<polygon fill="#63b8ff" stroke="#63b8ff" points="370.9,-36.97 378.89,-30.01 368.31,-30.46 370.9,-36.97"/>
</a>
</g>
</g>
<!-- Node6 -->
<g id="Node000006" class="node">
<title>Node6</title>
<g id="a_Node000006"><a xlink:href="structdetail_1_1duration__formatter.html#a47cb61c80b0e66944475289798447acf" target="_top" xlink:title=" ">
<polygon fill="white" stroke="#666666" points="501,-78 358,-78 358,-48 501,-48 501,-78"/>
<text text-anchor="start" x="366" y="-66" font-family="Helvetica,sans-Serif" font-size="10.00">detail::duration_formatter</text>
<text text-anchor="middle" x="429.5" y="-55" font-family="Helvetica,sans-Serif" font-size="10.00">::minute</text>
</a>
</g>
</g>
<!-- Node4&#45;&gt;Node6 -->
<g id="edge6_Node000004_Node000006" class="edge">
<title>Node4&#45;&gt;Node6</title>
<g id="a_edge6_Node000004_Node000006"><a xlink:title=" ">
<path fill="none" stroke="#63b8ff" d="M307.02,-95.94C324.89,-91.1 344.86,-85.68 363.37,-80.66"/>
<polygon fill="#63b8ff" stroke="#63b8ff" points="364.44,-84 373.18,-78 362.61,-77.24 364.44,-84"/>
</a>
</g>
</g>
<!-- Node7 -->
<g id="Node000007" class="node">
<title>Node7</title>
<g id="a_Node000007"><a xlink:href="structdetail_1_1duration__formatter.html#a05833dd5c29a4b5991f31b3907f7c793" target="_top" xlink:title=" ">
<polygon fill="white" stroke="#666666" points="501,-126 358,-126 358,-96 501,-96 501,-126"/>
<text text-anchor="start" x="366" y="-114" font-family="Helvetica,sans-Serif" font-size="10.00">detail::duration_formatter</text>
<text text-anchor="middle" x="429.5" y="-103" font-family="Helvetica,sans-Serif" font-size="10.00">::write</text>
</a>
</g>
</g>
<!-- Node4&#45;&gt;Node7 -->
<g id="edge7_Node000004_Node000007" class="edge">
<title>Node4&#45;&gt;Node7</title>
<g id="a_edge7_Node000004_Node000007"><a xlink:title=" ">
<path fill="none" stroke="#63b8ff" d="M322.22,-111C330.57,-111 339.14,-111 347.62,-111"/>
<polygon fill="#63b8ff" stroke="#63b8ff" points="347.89,-114.5 357.89,-111 347.89,-107.5 347.89,-114.5"/>
</a>
</g>
</g>
<!-- Node7&#45;&gt;Node3 -->
<g id="edge12_Node000007_Node000003" class="edge">
<title>Node7&#45;&gt;Node3</title>
<g id="a_edge12_Node000007_Node000003"><a xlink:title=" ">
<path fill="none" stroke="#63b8ff" d="M476.17,-126.05C484.47,-128.93 493.02,-131.98 501,-135 517.21,-141.13 520.83,-143.77 537,-150 542.51,-152.12 548.29,-154.28 554.07,-156.4"/>
<polygon fill="#63b8ff" stroke="#63b8ff" points="553.15,-159.78 563.74,-159.9 555.53,-153.2 553.15,-159.78"/>
</a>
</g>
</g>
<!-- Node8 -->
<g id="Node000008" class="node">
<title>Node8</title>
<g id="a_Node000008"><a xlink:href="namespacedetail.html#ac83427f5f16569571f442ec01887e045" target="_top" xlink:title=" ">
<polygon fill="white" stroke="#666666" points="663.5,-141.5 553.5,-141.5 553.5,-122.5 663.5,-122.5 663.5,-141.5"/>
<text text-anchor="middle" x="608.5" y="-129.5" font-family="Helvetica,sans-Serif" font-size="10.00">detail::count_digits</text>
</a>
</g>
</g>
<!-- Node7&#45;&gt;Node8 -->
<g id="edge8_Node000007_Node000008" class="edge">
<title>Node7&#45;&gt;Node8</title>
<g id="a_edge8_Node000007_Node000008"><a xlink:title=" ">
<path fill="none" stroke="#63b8ff" d="M501.22,-119.39C515.03,-121.03 529.44,-122.74 543.04,-124.35"/>
<polygon fill="#63b8ff" stroke="#63b8ff" points="542.91,-127.86 553.25,-125.56 543.74,-120.91 542.91,-127.86"/>
</a>
</g>
</g>
<!-- Node11 -->
<g id="Node000011" class="node">
<title>Node11</title>
<g id="a_Node000011"><a xlink:href="namespacedetail.html#a45c2130c44ebe54179eafcee3cda2bfb" target="_top" xlink:title=" ">
<polygon fill="white" stroke="#666666" points="660.5,-104.5 556.5,-104.5 556.5,-85.5 660.5,-85.5 660.5,-104.5"/>
<text text-anchor="middle" x="608.5" y="-92.5" font-family="Helvetica,sans-Serif" font-size="10.00">detail::max_value</text>
</a>
</g>
</g>
<!-- Node7&#45;&gt;Node11 -->
<g id="edge11_Node000007_Node000011" class="edge">
<title>Node7&#45;&gt;Node11</title>
<g id="a_edge11_Node000007_Node000011"><a xlink:title=" ">
<path fill="none" stroke="#63b8ff" d="M501.22,-104.61C516.02,-103.27 531.51,-101.87 545.94,-100.56"/>
<polygon fill="#63b8ff" stroke="#63b8ff" points="546.6,-104.02 556.24,-99.63 545.97,-97.05 546.6,-104.02"/>
</a>
</g>
</g>
<!-- Node12 -->
<g id="Node000012" class="node">
<title>Node12</title>
<g id="a_Node000012"><a xlink:href="structdetail_1_1duration__formatter.html#ab4149b3b22fec57ef71cb791850681f9" target="_top" xlink:title=" ">
<polygon fill="white" stroke="#666666" points="680,-67 537,-67 537,-37 680,-37 680,-67"/>
<text text-anchor="start" x="545" y="-55" font-family="Helvetica,sans-Serif" font-size="10.00">detail::duration_formatter</text>
<text text-anchor="middle" x="608.5" y="-44" font-family="Helvetica,sans-Serif" font-size="10.00">::write_sign</text>
</a>
</g>
</g>
<!-- Node7&#45;&gt;Node12 -->
<g id="edge13_Node000007_Node000012" class="edge">
<title>Node7&#45;&gt;Node12</title>
<g id="a_edge13_Node000007_Node000012"><a xlink:title=" ">
<path fill="none" stroke="#63b8ff" d="M475.62,-95.96C499.13,-88.12 528.07,-78.48 552.84,-70.22"/>
<polygon fill="#63b8ff" stroke="#63b8ff" points="554.08,-73.5 562.46,-67.01 551.87,-66.86 554.08,-73.5"/>
</a>
</g>
</g>
<!-- Node9 -->
<g id="Node000009" class="node">
<title>Node9</title>
<g id="a_Node000009"><a xlink:href="namespacedetail.html#a300bc96ee936e9f6ef3565c8dff68a72" target="_top" xlink:title=" ">
<polygon fill="white" stroke="#666666" points="835,-147 725,-147 725,-117 835,-117 835,-147"/>
<text text-anchor="start" x="733" y="-135" font-family="Helvetica,sans-Serif" font-size="10.00">detail::count_digits</text>
<text text-anchor="middle" x="780" y="-124" font-family="Helvetica,sans-Serif" font-size="10.00">_fallback</text>
</a>
</g>
</g>
<!-- Node8&#45;&gt;Node9 -->
<g id="edge9_Node000008_Node000009" class="edge">
<title>Node8&#45;&gt;Node9</title>
<g id="a_edge9_Node000008_Node000009"><a xlink:title=" ">
<path fill="none" stroke="#63b8ff" d="M663.6,-132C679.8,-132 697.74,-132 714.54,-132"/>
<polygon fill="#63b8ff" stroke="#63b8ff" points="714.84,-135.5 724.84,-132 714.84,-128.5 714.84,-135.5"/>
</a>
</g>
</g>
<!-- Node10 -->
<g id="Node000010" class="node">
<title>Node10</title>
<g id="a_Node000010"><a xlink:href="namespacedetail.html#a75ed2634319883d038944529dbb954e2" target="_top" xlink:title=" ">
<polygon fill="white" stroke="#666666" points="833,-238 727,-238 727,-208 833,-208 833,-238"/>
<text text-anchor="start" x="735" y="-226" font-family="Helvetica,sans-Serif" font-size="10.00">detail::is_constant</text>
<text text-anchor="middle" x="780" y="-215" font-family="Helvetica,sans-Serif" font-size="10.00">_evaluated</text>
</a>
</g>
</g>
<!-- Node8&#45;&gt;Node10 -->
<g id="edge10_Node000008_Node000010" class="edge">
<title>Node8&#45;&gt;Node10</title>
<g id="a_edge10_Node000008_Node000010"><a xlink:title=" ">
<path fill="none" stroke="#63b8ff" d="M654.76,-141.56C663.35,-144.11 672.11,-147.23 680,-151 707.68,-164.24 735.63,-185.44 754.74,-201.42"/>
<polygon fill="#63b8ff" stroke="#63b8ff" points="752.47,-204.09 762.36,-207.91 757.01,-198.76 752.47,-204.09"/>
</a>
</g>
</g>
<!-- Node13&#45;&gt;Node2 -->
<g id="edge24_Node000013_Node000002" class="edge">
<title>Node13&#45;&gt;Node2</title>
<g id="a_edge24_Node000013_Node000002"><a xlink:title=" ">
<path fill="none" stroke="#63b8ff" d="M285.3,-212.99C306.12,-203.92 333.43,-192.36 358,-183 362.86,-181.15 367.93,-179.29 373.03,-177.46"/>
<polygon fill="#63b8ff" stroke="#63b8ff" points="374.55,-180.64 382.82,-174.02 372.22,-174.04 374.55,-180.64"/>
</a>
</g>
</g>
<!-- Node13&#45;&gt;Node7 -->
<g id="edge27_Node000013_Node000007" class="edge">
<title>Node13&#45;&gt;Node7</title>
<g id="a_edge27_Node000013_Node000007"><a xlink:title=" ">
<path fill="none" stroke="#63b8ff" d="M265.24,-212.75C284.27,-192.44 320.57,-156.58 358,-135 361,-133.27 364.15,-131.64 367.38,-130.1"/>
<polygon fill="#63b8ff" stroke="#63b8ff" points="368.89,-133.26 376.64,-126.03 366.08,-126.85 368.89,-133.26"/>
</a>
</g>
</g>
<!-- Node14 -->
<g id="Node000014" class="node">
<title>Node14</title>
<g id="a_Node000014"><a xlink:href="classbasic__memory__buffer.html#a7a9300acfadb00a835b36a86a198f433" target="_top" xlink:title=" ">
<polygon fill="white" stroke="#666666" points="493.5,-345 365.5,-345 365.5,-315 493.5,-315 493.5,-345"/>
<text text-anchor="start" x="373.5" y="-333" font-family="Helvetica,sans-Serif" font-size="10.00">basic_memory_buffer</text>
<text text-anchor="middle" x="429.5" y="-322" font-family="Helvetica,sans-Serif" font-size="10.00">::basic_memory_buffer</text>
</a>
</g>
</g>
<!-- Node13&#45;&gt;Node14 -->
<g id="edge15_Node000013_Node000014" class="edge">
<title>Node13&#45;&gt;Node14</title>
<g id="a_edge15_Node000013_Node000014"><a xlink:title=" ">
<path fill="none" stroke="#63b8ff" d="M268.5,-243.01C288.66,-260.18 323.85,-288.22 358,-306 361.45,-307.8 365.06,-309.5 368.75,-311.11"/>
<polygon fill="#63b8ff" stroke="#63b8ff" points="367.45,-314.36 378.03,-314.92 370.11,-307.89 367.45,-314.36"/>
</a>
</g>
</g>
<!-- Node20 -->
<g id="Node000020" class="node">
<title>Node20</title>
<g id="a_Node000020"><a xlink:href="classdetail_1_1buffer.html#adf353302bef0b99c405ca999d07b39ed" target="_top" xlink:title=" ">
<polygon fill="white" stroke="#666666" points="485.5,-296.5 373.5,-296.5 373.5,-277.5 485.5,-277.5 485.5,-296.5"/>
<text text-anchor="middle" x="429.5" y="-284.5" font-family="Helvetica,sans-Serif" font-size="10.00">detail::buffer::begin</text>
</a>
</g>
</g>
<!-- Node13&#45;&gt;Node20 -->
<g id="edge22_Node000013_Node000020" class="edge">
<title>Node13&#45;&gt;Node20</title>
<g id="a_edge22_Node000013_Node000020"><a xlink:title=" ">
<path fill="none" stroke="#63b8ff" d="M287.6,-243.11C308.05,-251.36 334.22,-261.41 358,-269 364.39,-271.04 371.16,-273 377.88,-274.84"/>
<polygon fill="#63b8ff" stroke="#63b8ff" points="377.07,-278.25 387.63,-277.43 378.87,-271.48 377.07,-278.25"/>
</a>
</g>
</g>
<!-- Node21 -->
<g id="Node000021" class="node">
<title>Node21</title>
<g id="a_Node000021"><a xlink:href="classdetail_1_1buffer.html#ac2b183d544845677a3b7d1137b17d16d" target="_top" xlink:title=" ">
<polygon fill="white" stroke="#666666" points="481,-259.5 378,-259.5 378,-240.5 481,-240.5 481,-259.5"/>
<text text-anchor="middle" x="429.5" y="-247.5" font-family="Helvetica,sans-Serif" font-size="10.00">detail::buffer::end</text>
</a>
</g>
</g>
<!-- Node13&#45;&gt;Node21 -->
<g id="edge23_Node000013_Node000021" class="edge">
<title>Node13&#45;&gt;Node21</title>
<g id="a_edge23_Node000013_Node000021"><a xlink:title=" ">
<path fill="none" stroke="#63b8ff" d="M322.22,-236.79C337.32,-238.67 353.14,-240.63 367.82,-242.46"/>
<polygon fill="#63b8ff" stroke="#63b8ff" points="367.43,-245.94 377.78,-243.7 368.29,-238.99 367.43,-245.94"/>
</a>
</g>
</g>
<!-- Node22 -->
<g id="Node000022" class="node">
<title>Node22</title>
<g id="a_Node000022"><a xlink:href="structdetail_1_1duration__formatter.html#a7f8e1201347c69d3f20fe4ad616f0aa0" target="_top" xlink:title=" ">
<polygon fill="white" stroke="#666666" points="501,-222 358,-222 358,-192 501,-192 501,-222"/>
<text text-anchor="start" x="366" y="-210" font-family="Helvetica,sans-Serif" font-size="10.00">detail::duration_formatter</text>
<text text-anchor="middle" x="429.5" y="-199" font-family="Helvetica,sans-Serif" font-size="10.00">::second</text>
</a>
</g>
</g>
<!-- Node13&#45;&gt;Node22 -->
<g id="edge25_Node000013_Node000022" class="edge">
<title>Node13&#45;&gt;Node22</title>
<g id="a_edge25_Node000013_Node000022"><a xlink:title=" ">
<path fill="none" stroke="#63b8ff" d="M322.22,-219.61C330.66,-218.61 339.33,-217.58 347.9,-216.56"/>
<polygon fill="#63b8ff" stroke="#63b8ff" points="348.38,-220.03 357.89,-215.38 347.55,-213.08 348.38,-220.03"/>
</a>
</g>
</g>
<!-- Node23 -->
<g id="Node000023" class="node">
<title>Node23</title>
<g id="a_Node000023"><a xlink:href="classdetail_1_1buffer.html#a8685285932360c284d19003fc4ba3edc" target="_top" xlink:title="Returns the size of this buffer.">
<polygon fill="white" stroke="#666666" points="481.5,-382.5 377.5,-382.5 377.5,-363.5 481.5,-363.5 481.5,-382.5"/>
<text text-anchor="middle" x="429.5" y="-370.5" font-family="Helvetica,sans-Serif" font-size="10.00">detail::buffer::size</text>
</a>
</g>
</g>
<!-- Node13&#45;&gt;Node23 -->
<g id="edge26_Node000013_Node000023" class="edge">
<title>Node13&#45;&gt;Node23</title>
<g id="a_edge26_Node000013_Node000023"><a xlink:title=" ">
<path fill="none" stroke="#63b8ff" d="M260.18,-243.41C276.04,-270.12 312.31,-324.96 358,-354 361.33,-356.12 364.9,-358 368.6,-359.68"/>
<polygon fill="#63b8ff" stroke="#63b8ff" points="367.4,-362.97 377.98,-363.43 370,-356.47 367.4,-362.97"/>
</a>
</g>
</g>
<!-- Node14&#45;&gt;Node10 -->
<g id="edge21_Node000014_Node000010" class="edge">
<title>Node14&#45;&gt;Node10</title>
<g id="a_edge21_Node000014_Node000010"><a xlink:title=" ">
<path fill="none" stroke="#63b8ff" d="M479.69,-314.9C543,-295.46 652.85,-261.73 720.41,-240.99"/>
<polygon fill="#63b8ff" stroke="#63b8ff" points="721.53,-244.31 730.06,-238.03 719.47,-237.62 721.53,-244.31"/>
</a>
</g>
</g>
<!-- Node15 -->
<g id="Node000015" class="node">
<title>Node15</title>
<g id="a_Node000015"><a xlink:href="classbasic__memory__buffer.html#a97d9a0a0f9827c9277e2eea97fa0309b" target="_top" xlink:title=" ">
<polygon fill="white" stroke="#666666" points="669.5,-345 547.5,-345 547.5,-315 669.5,-315 669.5,-345"/>
<text text-anchor="start" x="555.5" y="-333" font-family="Helvetica,sans-Serif" font-size="10.00">basic_memory_buffer</text>
<text text-anchor="middle" x="608.5" y="-322" font-family="Helvetica,sans-Serif" font-size="10.00">::grow</text>
</a>
</g>
</g>
<!-- Node14&#45;&gt;Node15 -->
<g id="edge16_Node000014_Node000015" class="edge">
<title>Node14&#45;&gt;Node15</title>
<g id="a_edge16_Node000014_Node000015"><a xlink:title=" ">
<path fill="none" stroke="#63b8ff" d="M493.9,-330C507.95,-330 522.92,-330 537.22,-330"/>
<polygon fill="#63b8ff" stroke="#63b8ff" points="537.5,-333.5 547.5,-330 537.5,-326.5 537.5,-333.5"/>
</a>
</g>
</g>
<!-- Node16 -->
<g id="Node000016" class="node">
<title>Node16</title>
<g id="a_Node000016"><a xlink:href="namespacedetail.html#a9d0b4b56d52390d7c8a4be7baa5e2382" target="_top" xlink:title=" ">
<polygon fill="white" stroke="#666666" points="844,-376.5 716,-376.5 716,-357.5 844,-357.5 844,-376.5"/>
<text text-anchor="middle" x="780" y="-364.5" font-family="Helvetica,sans-Serif" font-size="10.00">detail::abort_fuzzing_if</text>
</a>
</g>
</g>
<!-- Node15&#45;&gt;Node16 -->
<g id="edge17_Node000015_Node000016" class="edge">
<title>Node15&#45;&gt;Node16</title>
<g id="a_edge17_Node000015_Node000016"><a xlink:title=" ">
<path fill="none" stroke="#63b8ff" d="M669.74,-343.15C687.87,-347.11 707.65,-351.42 725.33,-355.28"/>
<polygon fill="#63b8ff" stroke="#63b8ff" points="724.95,-358.78 735.47,-357.5 726.44,-351.94 724.95,-358.78"/>
</a>
</g>
</g>
<!-- Node18 -->
<g id="Node000018" class="node">
<title>Node18</title>
<g id="a_Node000018"><a xlink:href="namespacedetail.html#a208b54c1c61a9bce9df4531a657a0c64" target="_top" xlink:title=" ">
<polygon fill="white" stroke="#666666" points="824.5,-339.5 735.5,-339.5 735.5,-320.5 824.5,-320.5 824.5,-339.5"/>
<text text-anchor="middle" x="780" y="-327.5" font-family="Helvetica,sans-Serif" font-size="10.00">detail::assume</text>
</a>
</g>
</g>
<!-- Node15&#45;&gt;Node18 -->
<g id="edge19_Node000015_Node000018" class="edge">
<title>Node15&#45;&gt;Node18</title>
<g id="a_edge19_Node000015_Node000018"><a xlink:title=" ">
<path fill="none" stroke="#63b8ff" d="M669.74,-330C687.87,-330 707.65,-330 725.33,-330"/>
<polygon fill="#63b8ff" stroke="#63b8ff" points="725.47,-333.5 735.47,-330 725.47,-326.5 725.47,-333.5"/>
</a>
</g>
</g>
<!-- Node19 -->
<g id="Node000019" class="node">
<title>Node19</title>
<g id="a_Node000019"><a xlink:href="base_8h.html#a67ebc2a5b1748c4692931267cd6f89bf" target="_top" xlink:title=" ">
<polygon fill="white" stroke="#666666" points="806.5,-302.5 753.5,-302.5 753.5,-283.5 806.5,-283.5 806.5,-302.5"/>
<text text-anchor="middle" x="780" y="-290.5" font-family="Helvetica,sans-Serif" font-size="10.00">max_of</text>
</a>
</g>
</g>
<!-- Node15&#45;&gt;Node19 -->
<g id="edge20_Node000015_Node000019" class="edge">
<title>Node15&#45;&gt;Node19</title>
<g id="a_edge20_Node000015_Node000019"><a xlink:title=" ">
<path fill="none" stroke="#63b8ff" d="M669.74,-316.85C694.43,-311.46 722.17,-305.41 743.51,-300.75"/>
<polygon fill="#63b8ff" stroke="#63b8ff" points="744.41,-304.13 753.44,-298.58 742.92,-297.29 744.41,-304.13"/>
</a>
</g>
</g>
<!-- Node17 -->
<g id="Node000017" class="node">
<title>Node17</title>
<g id="a_Node000017"><a xlink:href="namespacedetail.html#a1fe84ebaf96215ce0665d95b3124c2df" target="_top" xlink:title=" ">
<polygon fill="white" stroke="#666666" points="1002,-376.5 880,-376.5 880,-357.5 1002,-357.5 1002,-376.5"/>
<text text-anchor="middle" x="941" y="-364.5" font-family="Helvetica,sans-Serif" font-size="10.00">detail::ignore_unused</text>
</a>
</g>
</g>
<!-- Node16&#45;&gt;Node17 -->
<g id="edge18_Node000016_Node000017" class="edge">
<title>Node16&#45;&gt;Node17</title>
<g id="a_edge18_Node000016_Node000017"><a xlink:title=" ">
<path fill="none" stroke="#63b8ff" d="M844.3,-367C852.61,-367 861.17,-367 869.59,-367"/>
<polygon fill="#63b8ff" stroke="#63b8ff" points="869.77,-370.5 879.77,-367 869.77,-363.5 869.77,-370.5"/>
</a>
</g>
</g>
</g>
</svg>
