<?xml version="1.0" encoding="UTF-8" standalone="no"?>
<!DOCTYPE svg PUBLIC "-//W3C//DTD SVG 1.1//EN"
 "http://www.w3.org/Graphics/SVG/1.1/DTD/svg11.dtd">
<!-- Generated by graphviz version 2.43.0 (0)
 -->
<!-- Title: formatter&lt; utc_time&lt; Duration &gt;, Char &gt; Pages: 1 -->
<svg width="129pt" height="294pt"
 viewBox="0.00 0.00 129.00 294.00" xmlns="http://www.w3.org/2000/svg" xmlns:xlink="http://www.w3.org/1999/xlink">
<g id="graph0" class="graph" transform="scale(1 1) rotate(0) translate(4 290)">
<title>formatter&lt; utc_time&lt; Duration &gt;, Char &gt;</title>
<!-- Node1 -->
<g id="Node000001" class="node">
<title>Node1</title>
<g id="a_Node000001"><a xlink:title=" ">
<polygon fill="#999999" stroke="#666666" points="121,-30 0,-30 0,0 121,0 121,-30"/>
<text text-anchor="start" x="8" y="-18" font-family="Helvetica,sans-Serif" font-size="10.00">formatter&lt; utc_time</text>
<text text-anchor="middle" x="60.5" y="-7" font-family="Helvetica,sans-Serif" font-size="10.00">&lt; Duration &gt;, Char &gt;</text>
</a>
</g>
</g>
<!-- Node2 -->
<g id="Node000002" class="node">
<title>Node2</title>
<g id="a_Node000002"><a xlink:href="structformatter_3_01sys__time_3_01Duration_01_4_00_01Char_01_4.html" target="_top" xlink:title=" ">
<polygon fill="white" stroke="#666666" points="121,-97 0,-97 0,-67 121,-67 121,-97"/>
<text text-anchor="start" x="8" y="-85" font-family="Helvetica,sans-Serif" font-size="10.00">formatter&lt; sys_time</text>
<text text-anchor="middle" x="60.5" y="-74" font-family="Helvetica,sans-Serif" font-size="10.00">&lt; Duration &gt;, Char &gt;</text>
</a>
</g>
</g>
<!-- Node2&#45;&gt;Node1 -->
<g id="edge1_Node000001_Node000002" class="edge">
<title>Node2&#45;&gt;Node1</title>
<g id="a_edge1_Node000001_Node000002"><a xlink:title=" ">
<path fill="none" stroke="#63b8ff" d="M60.5,-56.61C60.5,-47.65 60.5,-37.82 60.5,-30.08"/>
<polygon fill="#63b8ff" stroke="#63b8ff" points="57,-56.9 60.5,-66.9 64,-56.9 57,-56.9"/>
</a>
</g>
</g>
<!-- Node3 -->
<g id="Node000003" class="node">
<title>Node3</title>
<g id="a_Node000003"><a xlink:href="structformatter_3_01std_1_1tm_00_01Char_01_4.html" target="_top" xlink:title=" ">
<polygon fill="white" stroke="#666666" points="116.5,-164 4.5,-164 4.5,-134 116.5,-134 116.5,-164"/>
<text text-anchor="start" x="12.5" y="-152" font-family="Helvetica,sans-Serif" font-size="10.00">formatter&lt; std::tm,</text>
<text text-anchor="middle" x="60.5" y="-141" font-family="Helvetica,sans-Serif" font-size="10.00"> Char &gt;</text>
</a>
</g>
</g>
<!-- Node3&#45;&gt;Node2 -->
<g id="edge2_Node000002_Node000003" class="edge">
<title>Node3&#45;&gt;Node2</title>
<g id="a_edge2_Node000002_Node000003"><a xlink:title=" ">
<path fill="none" stroke="#8b1a1a" d="M60.5,-123.61C60.5,-114.65 60.5,-104.82 60.5,-97.08"/>
<polygon fill="#8b1a1a" stroke="#8b1a1a" points="57,-123.9 60.5,-133.9 64,-123.9 57,-123.9"/>
</a>
</g>
</g>
<!-- Node4 -->
<g id="Node000004" class="node">
<title>Node4</title>
<g id="a_Node000004"><a xlink:href="structformat__specs.html" target="_top" xlink:title=" ">
<polygon fill="white" stroke="#666666" points="102,-230 19,-230 19,-211 102,-211 102,-230"/>
<text text-anchor="middle" x="60.5" y="-218" font-family="Helvetica,sans-Serif" font-size="10.00">format_specs</text>
</a>
</g>
</g>
<!-- Node4&#45;&gt;Node3 -->
<g id="edge3_Node000003_Node000004" class="edge">
<title>Node4&#45;&gt;Node3</title>
<g id="a_edge3_Node000003_Node000004"><a xlink:title=" ">
<path fill="none" stroke="#9a32cd" stroke-dasharray="5,2" d="M60.5,-200.71C60.5,-189.19 60.5,-174.68 60.5,-164.14"/>
<polygon fill="#9a32cd" stroke="#9a32cd" points="57,-200.98 60.5,-210.98 64,-200.98 57,-200.98"/>
</a>
</g>
<text text-anchor="middle" x="79" y="-185" font-family="Helvetica,sans-Serif" font-size="10.00" fill="grey"> specs_</text>
</g>
<!-- Node5 -->
<g id="Node000005" class="node">
<title>Node5</title>
<g id="a_Node000005"><a xlink:href="classbasic__specs.html" target="_top" xlink:title=" ">
<polygon fill="white" stroke="#666666" points="98,-286 23,-286 23,-267 98,-267 98,-286"/>
<text text-anchor="middle" x="60.5" y="-274" font-family="Helvetica,sans-Serif" font-size="10.00">basic_specs</text>
</a>
</g>
</g>
<!-- Node5&#45;&gt;Node4 -->
<g id="edge4_Node000004_Node000005" class="edge">
<title>Node5&#45;&gt;Node4</title>
<g id="a_edge4_Node000004_Node000005"><a xlink:title=" ">
<path fill="none" stroke="#63b8ff" d="M60.5,-256.3C60.5,-247.41 60.5,-237.28 60.5,-230.25"/>
<polygon fill="#63b8ff" stroke="#63b8ff" points="57,-256.58 60.5,-266.58 64,-256.58 57,-256.58"/>
</a>
</g>
</g>
</g>
</svg>
