<?xml version="1.0" encoding="UTF-8" standalone="no"?>
<!DOCTYPE svg PUBLIC "-//W3C//DTD SVG 1.1//EN"
 "http://www.w3.org/Graphics/SVG/1.1/DTD/svg11.dtd">
<!-- Generated by graphviz version 2.43.0 (0)
 -->
<!-- Title: detail::dragonbox::cache_accessor&lt; double &gt;::compute_mul Pages: 1 -->
<svg width="644pt" height="188pt"
 viewBox="0.00 0.00 644.00 187.50" xmlns="http://www.w3.org/2000/svg" xmlns:xlink="http://www.w3.org/1999/xlink">
<g id="graph0" class="graph" transform="scale(1 1) rotate(0) translate(4 183.5)">
<title>detail::dragonbox::cache_accessor&lt; double &gt;::compute_mul</title>
<!-- Node1 -->
<g id="Node000001" class="node">
<title>Node1</title>
<g id="a_Node000001"><a xlink:title=" ">
<polygon fill="#999999" stroke="#666666" points="137,-152.5 0,-152.5 0,-111.5 137,-111.5 137,-152.5"/>
<text text-anchor="start" x="8" y="-140.5" font-family="Helvetica,sans-Serif" font-size="10.00">detail::dragonbox::</text>
<text text-anchor="start" x="8" y="-129.5" font-family="Helvetica,sans-Serif" font-size="10.00">cache_accessor&lt; double</text>
<text text-anchor="middle" x="68.5" y="-118.5" font-family="Helvetica,sans-Serif" font-size="10.00"> &gt;::compute_mul</text>
</a>
</g>
</g>
<!-- Node2 -->
<g id="Node000002" class="node">
<title>Node2</title>
<g id="a_Node000002"><a xlink:href="classdetail_1_1uint128.html#a4f6fce63fc851baef913a020abe8e961" target="_top" xlink:title=" ">
<polygon fill="white" stroke="#666666" points="451.5,-179.5 337.5,-179.5 337.5,-160.5 451.5,-160.5 451.5,-179.5"/>
<text text-anchor="middle" x="394.5" y="-167.5" font-family="Helvetica,sans-Serif" font-size="10.00">detail::uint128::high</text>
</a>
</g>
</g>
<!-- Node1&#45;&gt;Node2 -->
<g id="edge1_Node000001_Node000002" class="edge">
<title>Node1&#45;&gt;Node2</title>
<g id="a_edge1_Node000001_Node000002"><a xlink:title=" ">
<path fill="none" stroke="#63b8ff" d="M137.11,-141.4C149.06,-142.99 161.39,-144.58 173,-146 224.77,-152.32 283.49,-158.67 327.31,-163.25"/>
<polygon fill="#63b8ff" stroke="#63b8ff" points="326.95,-166.73 337.26,-164.29 327.68,-159.77 326.95,-166.73"/>
</a>
</g>
</g>
<!-- Node3 -->
<g id="Node000003" class="node">
<title>Node3</title>
<g id="a_Node000003"><a xlink:href="classdetail_1_1uint128.html#ad78164a856629bbf7f8111f518ce5cbd" target="_top" xlink:title=" ">
<polygon fill="white" stroke="#666666" points="449.5,-141.5 339.5,-141.5 339.5,-122.5 449.5,-122.5 449.5,-141.5"/>
<text text-anchor="middle" x="394.5" y="-129.5" font-family="Helvetica,sans-Serif" font-size="10.00">detail::uint128::low</text>
</a>
</g>
</g>
<!-- Node1&#45;&gt;Node3 -->
<g id="edge2_Node000001_Node000003" class="edge">
<title>Node1&#45;&gt;Node3</title>
<g id="a_edge2_Node000001_Node000003"><a xlink:title=" ">
<path fill="none" stroke="#63b8ff" d="M137.03,-132C193.59,-132 273.79,-132 329.38,-132"/>
<polygon fill="#63b8ff" stroke="#63b8ff" points="329.46,-135.5 339.46,-132 329.46,-128.5 329.46,-135.5"/>
</a>
</g>
</g>
<!-- Node4 -->
<g id="Node000004" class="node">
<title>Node4</title>
<g id="a_Node000004"><a xlink:href="namespacedetail_1_1dragonbox.html#ab9470405474ffc0d7b8bc15071b7d515" target="_top" xlink:title=" ">
<polygon fill="white" stroke="#666666" points="283,-104 173,-104 173,-74 283,-74 283,-104"/>
<text text-anchor="start" x="181" y="-92" font-family="Helvetica,sans-Serif" font-size="10.00">detail::dragonbox::</text>
<text text-anchor="middle" x="228" y="-81" font-family="Helvetica,sans-Serif" font-size="10.00">umul192_upper128</text>
</a>
</g>
</g>
<!-- Node1&#45;&gt;Node4 -->
<g id="edge3_Node000001_Node000004" class="edge">
<title>Node1&#45;&gt;Node4</title>
<g id="a_edge3_Node000001_Node000004"><a xlink:title=" ">
<path fill="none" stroke="#63b8ff" d="M137.21,-113.51C145.72,-111.19 154.4,-108.82 162.85,-106.51"/>
<polygon fill="#63b8ff" stroke="#63b8ff" points="163.92,-109.85 172.65,-103.84 162.08,-103.1 163.92,-109.85"/>
</a>
</g>
</g>
<!-- Node4&#45;&gt;Node2 -->
<g id="edge4_Node000004_Node000002" class="edge">
<title>Node4&#45;&gt;Node2</title>
<g id="a_edge4_Node000004_Node000002"><a xlink:title=" ">
<path fill="none" stroke="#63b8ff" d="M246.8,-104.12C264.17,-118.15 291.88,-138.68 319,-151 324.37,-153.44 330.11,-155.61 335.93,-157.52"/>
<polygon fill="#63b8ff" stroke="#63b8ff" points="335.16,-160.94 345.74,-160.5 337.19,-154.24 335.16,-160.94"/>
</a>
</g>
</g>
<!-- Node4&#45;&gt;Node3 -->
<g id="edge5_Node000004_Node000003" class="edge">
<title>Node4&#45;&gt;Node3</title>
<g id="a_edge5_Node000004_Node000003"><a xlink:title=" ">
<path fill="none" stroke="#63b8ff" d="M282.22,-104.1C294.29,-107.44 307.07,-110.9 319,-114 326.78,-116.02 335.04,-118.09 343.12,-120.07"/>
<polygon fill="#63b8ff" stroke="#63b8ff" points="342.29,-123.47 352.84,-122.44 343.95,-116.67 342.29,-123.47"/>
</a>
</g>
</g>
<!-- Node5 -->
<g id="Node000005" class="node">
<title>Node5</title>
<g id="a_Node000005"><a xlink:href="classdetail_1_1uint128.html#a8605bfd967e879deaf9c105ed1a0354e" target="_top" xlink:title=" ">
<polygon fill="white" stroke="#666666" points="470,-104.5 319,-104.5 319,-85.5 470,-85.5 470,-104.5"/>
<text text-anchor="middle" x="394.5" y="-92.5" font-family="Helvetica,sans-Serif" font-size="10.00">detail::uint128::operator+=</text>
</a>
</g>
</g>
<!-- Node4&#45;&gt;Node5 -->
<g id="edge6_Node000004_Node000005" class="edge">
<title>Node4&#45;&gt;Node5</title>
<g id="a_edge6_Node000004_Node000005"><a xlink:title=" ">
<path fill="none" stroke="#63b8ff" d="M283.32,-90.98C291.53,-91.28 300.15,-91.6 308.82,-91.91"/>
<polygon fill="#63b8ff" stroke="#63b8ff" points="308.86,-95.41 318.98,-92.28 309.11,-88.42 308.86,-95.41"/>
</a>
</g>
</g>
<!-- Node7 -->
<g id="Node000007" class="node">
<title>Node7</title>
<g id="a_Node000007"><a xlink:href="namespacedetail.html#a79d19c16611e9ed84eb710d8380f9199" target="_top" xlink:title=" ">
<polygon fill="white" stroke="#666666" points="441,-67.5 348,-67.5 348,-48.5 441,-48.5 441,-67.5"/>
<text text-anchor="middle" x="394.5" y="-55.5" font-family="Helvetica,sans-Serif" font-size="10.00">detail::umul128</text>
</a>
</g>
</g>
<!-- Node4&#45;&gt;Node7 -->
<g id="edge8_Node000004_Node000007" class="edge">
<title>Node4&#45;&gt;Node7</title>
<g id="a_edge8_Node000004_Node000007"><a xlink:title=" ">
<path fill="none" stroke="#63b8ff" d="M283.32,-78.76C300.76,-75.48 320.11,-71.83 337.66,-68.52"/>
<polygon fill="#63b8ff" stroke="#63b8ff" points="338.58,-71.91 347.76,-66.62 337.29,-65.03 338.58,-71.91"/>
</a>
</g>
</g>
<!-- Node9 -->
<g id="Node000009" class="node">
<title>Node9</title>
<g id="a_Node000009"><a xlink:href="namespacedetail_1_1dragonbox.html#afb57aa963bc4232fb4bc88b845581d5a" target="_top" xlink:title=" ">
<polygon fill="white" stroke="#666666" points="448.5,-30 340.5,-30 340.5,0 448.5,0 448.5,-30"/>
<text text-anchor="start" x="348.5" y="-18" font-family="Helvetica,sans-Serif" font-size="10.00">detail::dragonbox::</text>
<text text-anchor="middle" x="394.5" y="-7" font-family="Helvetica,sans-Serif" font-size="10.00">umul128_upper64</text>
</a>
</g>
</g>
<!-- Node4&#45;&gt;Node9 -->
<g id="edge10_Node000004_Node000009" class="edge">
<title>Node4&#45;&gt;Node9</title>
<g id="a_edge10_Node000004_Node000009"><a xlink:title=" ">
<path fill="none" stroke="#63b8ff" d="M253.17,-73.87C270.93,-63.18 295.88,-49.03 319,-39 323.37,-37.11 327.93,-35.28 332.56,-33.54"/>
<polygon fill="#63b8ff" stroke="#63b8ff" points="333.9,-36.78 342.11,-30.09 331.52,-30.2 333.9,-36.78"/>
</a>
</g>
</g>
<!-- Node6 -->
<g id="Node000006" class="node">
<title>Node6</title>
<g id="a_Node000006"><a xlink:href="namespacedetail.html#a75ed2634319883d038944529dbb954e2" target="_top" xlink:title=" ">
<polygon fill="white" stroke="#666666" points="624,-113 518,-113 518,-83 624,-83 624,-113"/>
<text text-anchor="start" x="526" y="-101" font-family="Helvetica,sans-Serif" font-size="10.00">detail::is_constant</text>
<text text-anchor="middle" x="571" y="-90" font-family="Helvetica,sans-Serif" font-size="10.00">_evaluated</text>
</a>
</g>
</g>
<!-- Node5&#45;&gt;Node6 -->
<g id="edge7_Node000005_Node000006" class="edge">
<title>Node5&#45;&gt;Node6</title>
<g id="a_edge7_Node000005_Node000006"><a xlink:title=" ">
<path fill="none" stroke="#63b8ff" d="M470.01,-96.28C482.6,-96.5 495.56,-96.72 507.79,-96.93"/>
<polygon fill="#63b8ff" stroke="#63b8ff" points="507.82,-100.43 517.88,-97.1 507.94,-93.43 507.82,-100.43"/>
</a>
</g>
</g>
<!-- Node8 -->
<g id="Node000008" class="node">
<title>Node8</title>
<g id="a_Node000008"><a xlink:href="classdetail_1_1uint128.html#a31da8740f7bc5629bda4b1be76041612" target="_top" xlink:title=" ">
<polygon fill="white" stroke="#666666" points="636,-64.5 506,-64.5 506,-45.5 636,-45.5 636,-64.5"/>
<text text-anchor="middle" x="571" y="-52.5" font-family="Helvetica,sans-Serif" font-size="10.00">detail::uint128::uint128</text>
</a>
</g>
</g>
<!-- Node7&#45;&gt;Node8 -->
<g id="edge9_Node000007_Node000008" class="edge">
<title>Node7&#45;&gt;Node8</title>
<g id="a_edge9_Node000007_Node000008"><a xlink:title=" ">
<path fill="none" stroke="#63b8ff" d="M441.35,-57.21C457.96,-56.93 477.18,-56.6 495.62,-56.28"/>
<polygon fill="#63b8ff" stroke="#63b8ff" points="495.82,-59.78 505.76,-56.1 495.7,-52.78 495.82,-59.78"/>
</a>
</g>
</g>
</g>
</svg>
