<?xml version="1.0" encoding="UTF-8" standalone="no"?>
<!DOCTYPE svg PUBLIC "-//W3C//DTD SVG 1.1//EN"
 "http://www.w3.org/Graphics/SVG/1.1/DTD/svg11.dtd">
<!-- Generated by graphviz version 2.43.0 (0)
 -->
<!-- Title: nested_formatter::write_padded Pages: 1 -->
<svg width="500pt" height="150pt"
 viewBox="0.00 0.00 500.00 150.00" xmlns="http://www.w3.org/2000/svg" xmlns:xlink="http://www.w3.org/1999/xlink">
<g id="graph0" class="graph" transform="scale(1 1) rotate(0) translate(4 146)">
<title>nested_formatter::write_padded</title>
<!-- Node1 -->
<g id="Node000001" class="node">
<title>Node1</title>
<g id="a_Node000001"><a xlink:title=" ">
<polygon fill="#999999" stroke="#666666" points="132,-88.5 0,-88.5 0,-58.5 132,-58.5 132,-88.5"/>
<text text-anchor="start" x="8" y="-76.5" font-family="Helvetica,sans-Serif" font-size="10.00">nested_formatter::write</text>
<text text-anchor="middle" x="66" y="-65.5" font-family="Helvetica,sans-Serif" font-size="10.00">_padded</text>
</a>
</g>
</g>
<!-- Node2 -->
<g id="Node000002" class="node">
<title>Node2</title>
<g id="a_Node000002"><a xlink:href="classbasic__specs.html#a1ac4f03f18142c3a2ae6e709833b5e47" target="_top" xlink:title=" ">
<polygon fill="white" stroke="#666666" points="295.5,-142 190.5,-142 190.5,-123 295.5,-123 295.5,-142"/>
<text text-anchor="middle" x="243" y="-130" font-family="Helvetica,sans-Serif" font-size="10.00">basic_specs::align</text>
</a>
</g>
</g>
<!-- Node1&#45;&gt;Node2 -->
<g id="edge1_Node000001_Node000002" class="edge">
<title>Node1&#45;&gt;Node2</title>
<g id="a_edge1_Node000001_Node000002"><a xlink:title=" ">
<path fill="none" stroke="#63b8ff" d="M100.67,-88.62C120.09,-96.97 145.13,-107.12 168,-114.5 174.51,-116.6 181.41,-118.59 188.28,-120.42"/>
<polygon fill="#63b8ff" stroke="#63b8ff" points="187.71,-123.89 198.27,-122.99 189.46,-117.11 187.71,-123.89"/>
</a>
</g>
</g>
<!-- Node3 -->
<g id="Node000003" class="node">
<title>Node3</title>
<g id="a_Node000003"><a xlink:href="classbasic__specs.html#a0de009b467403e31a7006311e4f9927e" target="_top" xlink:title=" ">
<polygon fill="white" stroke="#666666" points="318,-105 168,-105 168,-86 318,-86 318,-105"/>
<text text-anchor="middle" x="243" y="-93" font-family="Helvetica,sans-Serif" font-size="10.00">basic_specs::copy_fill_from</text>
</a>
</g>
</g>
<!-- Node1&#45;&gt;Node3 -->
<g id="edge2_Node000001_Node000003" class="edge">
<title>Node1&#45;&gt;Node3</title>
<g id="a_edge2_Node000001_Node000003"><a xlink:title=" ">
<path fill="none" stroke="#63b8ff" d="M132.16,-81.69C140.55,-82.75 149.22,-83.84 157.85,-84.92"/>
<polygon fill="#63b8ff" stroke="#63b8ff" points="157.58,-88.42 167.94,-86.19 158.46,-81.47 157.58,-88.42"/>
</a>
</g>
</g>
<!-- Node6 -->
<g id="Node000006" class="node">
<title>Node6</title>
<g id="a_Node000006"><a xlink:href="structformat__specs.html#a5b6852380391634bfb2671210cfebc76" target="_top" xlink:title=" ">
<polygon fill="white" stroke="#666666" points="304,-67.5 182,-67.5 182,-37.5 304,-37.5 304,-67.5"/>
<text text-anchor="start" x="190" y="-55.5" font-family="Helvetica,sans-Serif" font-size="10.00">format_specs::format</text>
<text text-anchor="middle" x="243" y="-44.5" font-family="Helvetica,sans-Serif" font-size="10.00">_specs</text>
</a>
</g>
</g>
<!-- Node1&#45;&gt;Node6 -->
<g id="edge5_Node000001_Node000006" class="edge">
<title>Node1&#45;&gt;Node6</title>
<g id="a_edge5_Node000001_Node000006"><a xlink:title=" ">
<path fill="none" stroke="#63b8ff" d="M132.16,-65.68C145.17,-64.12 158.89,-62.47 172.05,-60.89"/>
<polygon fill="#63b8ff" stroke="#63b8ff" points="172.48,-64.37 181.99,-59.7 171.64,-57.42 172.48,-64.37"/>
</a>
</g>
</g>
<!-- Node7 -->
<g id="Node000007" class="node">
<title>Node7</title>
<g id="a_Node000007"><a xlink:href="classbasic__specs.html#ad73b6f854341aaabc744bf54e6ea6af6" target="_top" xlink:title=" ">
<polygon fill="white" stroke="#666666" points="305.5,-19 180.5,-19 180.5,0 305.5,0 305.5,-19"/>
<text text-anchor="middle" x="243" y="-7" font-family="Helvetica,sans-Serif" font-size="10.00">basic_specs::set_align</text>
</a>
</g>
</g>
<!-- Node1&#45;&gt;Node7 -->
<g id="edge6_Node000001_Node000007" class="edge">
<title>Node1&#45;&gt;Node7</title>
<g id="a_edge6_Node000001_Node000007"><a xlink:title=" ">
<path fill="none" stroke="#63b8ff" d="M97.4,-58.35C117.17,-48.9 143.71,-36.96 168,-28.5 175.05,-26.04 182.59,-23.75 190.04,-21.66"/>
<polygon fill="#63b8ff" stroke="#63b8ff" points="191.02,-25.02 199.76,-19.04 189.19,-18.26 191.02,-25.02"/>
</a>
</g>
</g>
<!-- Node4 -->
<g id="Node000004" class="node">
<title>Node4</title>
<g id="a_Node000004"><a xlink:href="classbasic__specs.html#af39b7e66ed078ea9d9fbfba08f11dc9d" target="_top" xlink:title=" ">
<polygon fill="white" stroke="#666666" points="482,-123 364,-123 364,-104 482,-104 482,-123"/>
<text text-anchor="middle" x="423" y="-111" font-family="Helvetica,sans-Serif" font-size="10.00">basic_specs::fill_size</text>
</a>
</g>
</g>
<!-- Node3&#45;&gt;Node4 -->
<g id="edge3_Node000003_Node000004" class="edge">
<title>Node3&#45;&gt;Node4</title>
<g id="a_edge3_Node000003_Node000004"><a xlink:title=" ">
<path fill="none" stroke="#63b8ff" d="M318.2,-103C330,-104.2 342.17,-105.43 353.82,-106.61"/>
<polygon fill="#63b8ff" stroke="#63b8ff" points="353.61,-110.1 363.92,-107.63 354.32,-103.14 353.61,-110.1"/>
</a>
</g>
</g>
<!-- Node5 -->
<g id="Node000005" class="node">
<title>Node5</title>
<g id="a_Node000005"><a xlink:href="classbasic__specs.html#a4b36db5ad1e38169bd6653635d5e69cd" target="_top" xlink:title=" ">
<polygon fill="white" stroke="#666666" points="492,-86 354,-86 354,-67 492,-67 492,-86"/>
<text text-anchor="middle" x="423" y="-74" font-family="Helvetica,sans-Serif" font-size="10.00">basic_specs::set_fill_size</text>
</a>
</g>
</g>
<!-- Node3&#45;&gt;Node5 -->
<g id="edge4_Node000003_Node000005" class="edge">
<title>Node3&#45;&gt;Node5</title>
<g id="a_edge4_Node000003_Node000005"><a xlink:title=" ">
<path fill="none" stroke="#63b8ff" d="M318.2,-87.58C326.7,-86.67 335.39,-85.75 343.94,-84.83"/>
<polygon fill="#63b8ff" stroke="#63b8ff" points="344.32,-88.31 353.89,-83.77 343.58,-81.35 344.32,-88.31"/>
</a>
</g>
</g>
</g>
</svg>
