<?xml version="1.0" encoding="UTF-8" standalone="no"?>
<!DOCTYPE svg PUBLIC "-//W3C//DTD SVG 1.1//EN"
 "http://www.w3.org/Graphics/SVG/1.1/DTD/svg11.dtd">
<!-- Generated by graphviz version 2.43.0 (0)
 -->
<!-- Title: detail::duration_formatter::format_tm Pages: 1 -->
<svg width="488pt" height="99pt"
 viewBox="0.00 0.00 488.00 98.50" xmlns="http://www.w3.org/2000/svg" xmlns:xlink="http://www.w3.org/1999/xlink">
<g id="graph0" class="graph" transform="scale(1 1) rotate(0) translate(4 94.5)">
<title>detail::duration_formatter::format_tm</title>
<!-- Node1 -->
<g id="Node000001" class="node">
<title>Node1</title>
<g id="a_Node000001"><a xlink:title=" ">
<polygon fill="#999999" stroke="#666666" points="143,-54 0,-54 0,-24 143,-24 143,-54"/>
<text text-anchor="start" x="8" y="-42" font-family="Helvetica,sans-Serif" font-size="10.00">detail::duration_formatter</text>
<text text-anchor="middle" x="71.5" y="-31" font-family="Helvetica,sans-Serif" font-size="10.00">::format_tm</text>
</a>
</g>
</g>
<!-- Node2 -->
<g id="Node000002" class="node">
<title>Node2</title>
<g id="a_Node000002"><a xlink:href="classdetail_1_1get__locale.html#a7d733f4bf68a0b6e7e5266518571207a" target="_top" xlink:title=" ">
<polygon fill="white" stroke="#666666" points="301,-78 200,-78 200,-48 301,-48 301,-78"/>
<text text-anchor="start" x="208" y="-66" font-family="Helvetica,sans-Serif" font-size="10.00">detail::get_locale</text>
<text text-anchor="middle" x="250.5" y="-55" font-family="Helvetica,sans-Serif" font-size="10.00">::get_locale</text>
</a>
</g>
</g>
<!-- Node1&#45;&gt;Node2 -->
<g id="edge1_Node000001_Node000002" class="edge">
<title>Node1&#45;&gt;Node2</title>
<g id="a_edge1_Node000001_Node000002"><a xlink:title=" ">
<path fill="none" stroke="#63b8ff" d="M143.22,-48.59C158.63,-50.68 174.79,-52.87 189.73,-54.9"/>
<polygon fill="#63b8ff" stroke="#63b8ff" points="189.47,-58.39 199.85,-56.27 190.41,-51.46 189.47,-58.39"/>
</a>
</g>
</g>
<!-- Node5 -->
<g id="Node000005" class="node">
<title>Node5</title>
<g id="a_Node000005"><a xlink:href="structdetail_1_1duration__formatter.html#a0b52d0c33d00406ad4f227d8d9ac7245" target="_top" xlink:title=" ">
<polygon fill="white" stroke="#666666" points="322,-30 179,-30 179,0 322,0 322,-30"/>
<text text-anchor="start" x="187" y="-18" font-family="Helvetica,sans-Serif" font-size="10.00">detail::duration_formatter</text>
<text text-anchor="middle" x="250.5" y="-7" font-family="Helvetica,sans-Serif" font-size="10.00">::write_nan</text>
</a>
</g>
</g>
<!-- Node1&#45;&gt;Node5 -->
<g id="edge4_Node000001_Node000005" class="edge">
<title>Node1&#45;&gt;Node5</title>
<g id="a_edge4_Node000001_Node000005"><a xlink:title=" ">
<path fill="none" stroke="#63b8ff" d="M143.22,-29.41C151.66,-28.27 160.33,-27.09 168.9,-25.93"/>
<polygon fill="#63b8ff" stroke="#63b8ff" points="169.46,-29.39 178.89,-24.57 168.51,-22.45 169.46,-29.39"/>
</a>
</g>
</g>
<!-- Node3 -->
<g id="Node000003" class="node">
<title>Node3</title>
<g id="a_Node000003"><a xlink:href="classlocale__ref.html#a9e8901f320b201e831a07a87ddc04302" target="_top" xlink:title=" ">
<polygon fill="white" stroke="#666666" points="462,-90.5 376,-90.5 376,-71.5 462,-71.5 462,-90.5"/>
<text text-anchor="middle" x="419" y="-78.5" font-family="Helvetica,sans-Serif" font-size="10.00">locale_ref::get</text>
</a>
</g>
</g>
<!-- Node2&#45;&gt;Node3 -->
<g id="edge2_Node000002_Node000003" class="edge">
<title>Node2&#45;&gt;Node3</title>
<g id="a_edge2_Node000002_Node000003"><a xlink:title=" ">
<path fill="none" stroke="#63b8ff" d="M301,-68.35C321.42,-70.56 345.1,-73.12 365.8,-75.36"/>
<polygon fill="#63b8ff" stroke="#63b8ff" points="365.68,-78.86 376,-76.46 366.43,-71.9 365.68,-78.86"/>
</a>
</g>
</g>
<!-- Node4 -->
<g id="Node000004" class="node">
<title>Node4</title>
<g id="a_Node000004"><a xlink:href="namespacedetail.html#a1fe84ebaf96215ce0665d95b3124c2df" target="_top" xlink:title=" ">
<polygon fill="white" stroke="#666666" points="480,-53.5 358,-53.5 358,-34.5 480,-34.5 480,-53.5"/>
<text text-anchor="middle" x="419" y="-41.5" font-family="Helvetica,sans-Serif" font-size="10.00">detail::ignore_unused</text>
</a>
</g>
</g>
<!-- Node2&#45;&gt;Node4 -->
<g id="edge3_Node000002_Node000004" class="edge">
<title>Node2&#45;&gt;Node4</title>
<g id="a_edge3_Node000002_Node000004"><a xlink:title=" ">
<path fill="none" stroke="#63b8ff" d="M301,-57.35C315.63,-55.68 331.93,-53.82 347.6,-52.03"/>
<polygon fill="#63b8ff" stroke="#63b8ff" points="348.25,-55.48 357.79,-50.87 347.46,-48.53 348.25,-55.48"/>
</a>
</g>
</g>
</g>
</svg>
