<?xml version="1.0" encoding="UTF-8" standalone="no"?>
<!DOCTYPE svg PUBLIC "-//W3C//DTD SVG 1.1//EN"
 "http://www.w3.org/Graphics/SVG/1.1/DTD/svg11.dtd">
<!-- Generated by graphviz version 2.43.0 (0)
 -->
<!-- Title: detail::default_arg_formatter&lt; Char &gt; Pages: 1 -->
<svg width="182pt" height="236pt"
 viewBox="0.00 0.00 181.50 236.00" xmlns="http://www.w3.org/2000/svg" xmlns:xlink="http://www.w3.org/1999/xlink">
<g id="graph0" class="graph" transform="scale(1 1) rotate(0) translate(4 232)">
<title>detail::default_arg_formatter&lt; Char &gt;</title>
<!-- Node1 -->
<g id="Node000001" class="node">
<title>Node1</title>
<g id="a_Node000001"><a xlink:title=" ">
<polygon fill="#999999" stroke="#666666" points="125.5,-30 12.5,-30 12.5,0 125.5,0 125.5,-30"/>
<text text-anchor="start" x="20.5" y="-18" font-family="Helvetica,sans-Serif" font-size="10.00">detail::default_arg</text>
<text text-anchor="middle" x="69" y="-7" font-family="Helvetica,sans-Serif" font-size="10.00">_formatter&lt; Char &gt;</text>
</a>
</g>
</g>
<!-- Node2 -->
<g id="Node000002" class="node">
<title>Node2</title>
<g id="a_Node000002"><a xlink:href="classbasic__appender.html" target="_top" xlink:title=" ">
<polygon fill="white" stroke="#666666" points="138,-96 0,-96 0,-77 138,-77 138,-96"/>
<text text-anchor="middle" x="69" y="-84" font-family="Helvetica,sans-Serif" font-size="10.00">basic_appender&lt; Char &gt;</text>
</a>
</g>
</g>
<!-- Node2&#45;&gt;Node1 -->
<g id="edge1_Node000001_Node000002" class="edge">
<title>Node2&#45;&gt;Node1</title>
<g id="a_edge1_Node000001_Node000002"><a xlink:title=" ">
<path fill="none" stroke="#9a32cd" stroke-dasharray="5,2" d="M69,-66.71C69,-55.19 69,-40.68 69,-30.14"/>
<polygon fill="#9a32cd" stroke="#9a32cd" points="65.5,-66.98 69,-76.98 72.5,-66.98 65.5,-66.98"/>
</a>
</g>
<text text-anchor="middle" x="78.5" y="-51" font-family="Helvetica,sans-Serif" font-size="10.00" fill="grey"> out</text>
</g>
<!-- Node3 -->
<g id="Node000003" class="node">
<title>Node3</title>
<g id="a_Node000003"><a xlink:href="classdetail_1_1buffer.html" target="_top" xlink:title=" ">
<polygon fill="white" stroke="#666666" points="131,-162 7,-162 7,-143 131,-143 131,-162"/>
<text text-anchor="middle" x="69" y="-150" font-family="Helvetica,sans-Serif" font-size="10.00">detail::buffer&lt; Char &gt;</text>
</a>
</g>
</g>
<!-- Node3&#45;&gt;Node2 -->
<g id="edge2_Node000002_Node000003" class="edge">
<title>Node3&#45;&gt;Node2</title>
<g id="a_edge2_Node000002_Node000003"><a xlink:title=" ">
<path fill="none" stroke="#9a32cd" stroke-dasharray="5,2" d="M69,-132.58C69,-120.63 69,-105.72 69,-96.41"/>
<polygon fill="#9a32cd" stroke="#9a32cd" points="65.5,-132.87 69,-142.87 72.5,-132.87 65.5,-132.87"/>
</a>
</g>
<text text-anchor="middle" x="93.5" y="-117" font-family="Helvetica,sans-Serif" font-size="10.00" fill="grey"> container</text>
</g>
<!-- Node4 -->
<g id="Node000004" class="node">
<title>Node4</title>
<g id="a_Node000004"><a xlink:href="classdetail_1_1buffer.html" target="_top" xlink:title=" ">
<polygon fill="white" stroke="#666666" points="122.5,-228 15.5,-228 15.5,-209 122.5,-209 122.5,-228"/>
<text text-anchor="middle" x="69" y="-216" font-family="Helvetica,sans-Serif" font-size="10.00">detail::buffer&lt; T &gt;</text>
</a>
</g>
</g>
<!-- Node4&#45;&gt;Node3 -->
<g id="edge3_Node000003_Node000004" class="edge">
<title>Node4&#45;&gt;Node3</title>
<g id="a_edge3_Node000003_Node000004"><a xlink:title=" ">
<path fill="none" stroke="#9a32cd" stroke-dasharray="5,2" d="M69,-198.58C69,-186.63 69,-171.72 69,-162.41"/>
<polygon fill="#9a32cd" stroke="#9a32cd" points="65.5,-198.87 69,-208.87 72.5,-198.87 65.5,-198.87"/>
</a>
</g>
<text text-anchor="middle" x="85.5" y="-183" font-family="Helvetica,sans-Serif" font-size="10.00" fill="grey"> grow_</text>
</g>
<!-- Node4&#45;&gt;Node4 -->
<g id="edge4_Node000004_Node000004" class="edge">
<title>Node4&#45;&gt;Node4</title>
<g id="a_edge4_Node000004_Node000004"><a xlink:title=" ">
<path fill="none" stroke="#9a32cd" stroke-dasharray="5,2" d="M132.88,-222.96C137.6,-221.96 140.5,-220.47 140.5,-218.5 140.5,-215.34 133.08,-213.43 122.63,-212.77"/>
<polygon fill="#9a32cd" stroke="#9a32cd" points="132.12,-219.53 122.63,-224.23 132.99,-226.47 132.12,-219.53"/>
</a>
</g>
<text text-anchor="middle" x="157" y="-216" font-family="Helvetica,sans-Serif" font-size="10.00" fill="grey"> grow_</text>
</g>
</g>
</svg>
