<?xml version="1.0" encoding="UTF-8" standalone="no"?>
<!DOCTYPE svg PUBLIC "-//W3C//DTD SVG 1.1//EN"
 "http://www.w3.org/Graphics/SVG/1.1/DTD/svg11.dtd">
<!-- Generated by graphviz version 2.43.0 (0)
 -->
<!-- Title: detail::duration_formatter::on_12_hour_time Pages: 1 -->
<svg width="509pt" height="182pt"
 viewBox="0.00 0.00 509.00 182.00" xmlns="http://www.w3.org/2000/svg" xmlns:xlink="http://www.w3.org/1999/xlink">
<g id="graph0" class="graph" transform="scale(1 1) rotate(0) translate(4 178)">
<title>detail::duration_formatter::on_12_hour_time</title>
<!-- Node1 -->
<g id="Node000001" class="node">
<title>Node1</title>
<g id="a_Node000001"><a xlink:title=" ">
<polygon fill="#999999" stroke="#666666" points="143,-126 0,-126 0,-96 143,-96 143,-126"/>
<text text-anchor="start" x="8" y="-114" font-family="Helvetica,sans-Serif" font-size="10.00">detail::duration_formatter</text>
<text text-anchor="middle" x="71.5" y="-103" font-family="Helvetica,sans-Serif" font-size="10.00">::on_12_hour_time</text>
</a>
</g>
</g>
<!-- Node2 -->
<g id="Node000002" class="node">
<title>Node2</title>
<g id="a_Node000002"><a xlink:href="structdetail_1_1duration__formatter.html#ad8e5cd79d50c37c7977ea4ce10713c65" target="_top" xlink:title=" ">
<polygon fill="white" stroke="#666666" points="322,-162 179,-162 179,-132 322,-132 322,-162"/>
<text text-anchor="start" x="187" y="-150" font-family="Helvetica,sans-Serif" font-size="10.00">detail::duration_formatter</text>
<text text-anchor="middle" x="250.5" y="-139" font-family="Helvetica,sans-Serif" font-size="10.00">::handle_nan_inf</text>
</a>
</g>
</g>
<!-- Node1&#45;&gt;Node2 -->
<g id="edge1_Node000001_Node000002" class="edge">
<title>Node1&#45;&gt;Node2</title>
<g id="a_edge1_Node000001_Node000002"><a xlink:title=" ">
<path fill="none" stroke="#63b8ff" d="M143.22,-125.38C151.66,-127.1 160.33,-128.86 168.9,-130.61"/>
<polygon fill="#63b8ff" stroke="#63b8ff" points="168.4,-134.08 178.89,-132.64 169.79,-127.22 168.4,-134.08"/>
</a>
</g>
</g>
<!-- Node4 -->
<g id="Node000004" class="node">
<title>Node4</title>
<g id="a_Node000004"><a xlink:href="structdetail_1_1duration__formatter.html#a56603e2ddef5ce5f87010f1a9847c019" target="_top" xlink:title=" ">
<polygon fill="white" stroke="#666666" points="322,-102 179,-102 179,-72 322,-72 322,-102"/>
<text text-anchor="start" x="187" y="-90" font-family="Helvetica,sans-Serif" font-size="10.00">detail::duration_formatter</text>
<text text-anchor="middle" x="250.5" y="-79" font-family="Helvetica,sans-Serif" font-size="10.00">::time</text>
</a>
</g>
</g>
<!-- Node1&#45;&gt;Node4 -->
<g id="edge3_Node000001_Node000004" class="edge">
<title>Node1&#45;&gt;Node4</title>
<g id="a_edge3_Node000001_Node000004"><a xlink:title=" ">
<path fill="none" stroke="#63b8ff" d="M143.22,-101.41C151.66,-100.27 160.33,-99.09 168.9,-97.93"/>
<polygon fill="#63b8ff" stroke="#63b8ff" points="169.46,-101.39 178.89,-96.57 168.51,-94.45 169.46,-101.39"/>
</a>
</g>
</g>
<!-- Node3 -->
<g id="Node000003" class="node">
<title>Node3</title>
<g id="a_Node000003"><a xlink:href="structdetail_1_1duration__formatter.html#a0b52d0c33d00406ad4f227d8d9ac7245" target="_top" xlink:title=" ">
<polygon fill="white" stroke="#666666" points="501,-174 358,-174 358,-144 501,-144 501,-174"/>
<text text-anchor="start" x="366" y="-162" font-family="Helvetica,sans-Serif" font-size="10.00">detail::duration_formatter</text>
<text text-anchor="middle" x="429.5" y="-151" font-family="Helvetica,sans-Serif" font-size="10.00">::write_nan</text>
</a>
</g>
</g>
<!-- Node2&#45;&gt;Node3 -->
<g id="edge2_Node000002_Node000003" class="edge">
<title>Node2&#45;&gt;Node3</title>
<g id="a_edge2_Node000002_Node000003"><a xlink:title=" ">
<path fill="none" stroke="#63b8ff" d="M322.22,-151.79C330.66,-152.37 339.33,-152.95 347.9,-153.54"/>
<polygon fill="#63b8ff" stroke="#63b8ff" points="347.68,-157.03 357.89,-154.21 348.15,-150.04 347.68,-157.03"/>
</a>
</g>
</g>
<!-- Node5 -->
<g id="Node000005" class="node">
<title>Node5</title>
<g id="a_Node000005"><a xlink:href="structdetail_1_1duration__formatter.html#aa5938aa9edf655999748a82e9fd3b5cd" target="_top" xlink:title=" ">
<polygon fill="white" stroke="#666666" points="501,-126 358,-126 358,-96 501,-96 501,-126"/>
<text text-anchor="start" x="366" y="-114" font-family="Helvetica,sans-Serif" font-size="10.00">detail::duration_formatter</text>
<text text-anchor="middle" x="429.5" y="-103" font-family="Helvetica,sans-Serif" font-size="10.00">::hour</text>
</a>
</g>
</g>
<!-- Node4&#45;&gt;Node5 -->
<g id="edge4_Node000004_Node000005" class="edge">
<title>Node4&#45;&gt;Node5</title>
<g id="a_edge4_Node000004_Node000005"><a xlink:title=" ">
<path fill="none" stroke="#63b8ff" d="M322.22,-96.59C330.66,-97.73 339.33,-98.91 347.9,-100.07"/>
<polygon fill="#63b8ff" stroke="#63b8ff" points="347.51,-103.55 357.89,-101.43 348.46,-96.61 347.51,-103.55"/>
</a>
</g>
</g>
<!-- Node6 -->
<g id="Node000006" class="node">
<title>Node6</title>
<g id="a_Node000006"><a xlink:href="structdetail_1_1duration__formatter.html#a47cb61c80b0e66944475289798447acf" target="_top" xlink:title=" ">
<polygon fill="white" stroke="#666666" points="501,-78 358,-78 358,-48 501,-48 501,-78"/>
<text text-anchor="start" x="366" y="-66" font-family="Helvetica,sans-Serif" font-size="10.00">detail::duration_formatter</text>
<text text-anchor="middle" x="429.5" y="-55" font-family="Helvetica,sans-Serif" font-size="10.00">::minute</text>
</a>
</g>
</g>
<!-- Node4&#45;&gt;Node6 -->
<g id="edge5_Node000004_Node000006" class="edge">
<title>Node4&#45;&gt;Node6</title>
<g id="a_edge5_Node000004_Node000006"><a xlink:title=" ">
<path fill="none" stroke="#63b8ff" d="M322.22,-77.41C330.66,-76.27 339.33,-75.09 347.9,-73.93"/>
<polygon fill="#63b8ff" stroke="#63b8ff" points="348.46,-77.39 357.89,-72.57 347.51,-70.45 348.46,-77.39"/>
</a>
</g>
</g>
<!-- Node7 -->
<g id="Node000007" class="node">
<title>Node7</title>
<g id="a_Node000007"><a xlink:href="structdetail_1_1duration__formatter.html#a7f8e1201347c69d3f20fe4ad616f0aa0" target="_top" xlink:title=" ">
<polygon fill="white" stroke="#666666" points="501,-30 358,-30 358,0 501,0 501,-30"/>
<text text-anchor="start" x="366" y="-18" font-family="Helvetica,sans-Serif" font-size="10.00">detail::duration_formatter</text>
<text text-anchor="middle" x="429.5" y="-7" font-family="Helvetica,sans-Serif" font-size="10.00">::second</text>
</a>
</g>
</g>
<!-- Node4&#45;&gt;Node7 -->
<g id="edge6_Node000004_Node000007" class="edge">
<title>Node4&#45;&gt;Node7</title>
<g id="a_edge6_Node000004_Node000007"><a xlink:title=" ">
<path fill="none" stroke="#63b8ff" d="M282.85,-71.92C303.89,-62.04 332.34,-49.12 358,-39 362.69,-37.15 367.59,-35.31 372.52,-33.51"/>
<polygon fill="#63b8ff" stroke="#63b8ff" points="373.76,-36.78 382,-30.13 371.41,-30.19 373.76,-36.78"/>
</a>
</g>
</g>
</g>
</svg>
