<?xml version="1.0" encoding="UTF-8" standalone="no"?>
<!DOCTYPE svg PUBLIC "-//W3C//DTD SVG 1.1//EN"
 "http://www.w3.org/Graphics/SVG/1.1/DTD/svg11.dtd">
<!-- Generated by graphviz version 2.43.0 (0)
 -->
<!-- Title: formatter&lt; std::bitset&lt; N &gt;, Char &gt; Pages: 1 -->
<svg width="234pt" height="193pt"
 viewBox="0.00 0.00 234.00 193.00" xmlns="http://www.w3.org/2000/svg" xmlns:xlink="http://www.w3.org/1999/xlink">
<g id="graph0" class="graph" transform="scale(1 1) rotate(0) translate(4 189)">
<title>formatter&lt; std::bitset&lt; N &gt;, Char &gt;</title>
<!-- Node1 -->
<g id="Node000001" class="node">
<title>Node1</title>
<g id="a_Node000001"><a xlink:title=" ">
<polygon fill="#999999" stroke="#666666" points="160,-30 37,-30 37,0 160,0 160,-30"/>
<text text-anchor="start" x="45" y="-18" font-family="Helvetica,sans-Serif" font-size="10.00">formatter&lt; std::bitset</text>
<text text-anchor="middle" x="98.5" y="-7" font-family="Helvetica,sans-Serif" font-size="10.00">&lt; N &gt;, Char &gt;</text>
</a>
</g>
</g>
<!-- Node2 -->
<g id="Node000002" class="node">
<title>Node2</title>
<g id="a_Node000002"><a xlink:href="structnested__formatter.html" target="_top" xlink:title=" ">
<polygon fill="white" stroke="#666666" points="167.5,-108 29.5,-108 29.5,-67 167.5,-67 167.5,-108"/>
<text text-anchor="start" x="37.5" y="-96" font-family="Helvetica,sans-Serif" font-size="10.00">nested_formatter&lt; basic</text>
<text text-anchor="start" x="37.5" y="-85" font-family="Helvetica,sans-Serif" font-size="10.00">_string_view&lt; Char &gt;,</text>
<text text-anchor="middle" x="98.5" y="-74" font-family="Helvetica,sans-Serif" font-size="10.00"> Char &gt;</text>
</a>
</g>
</g>
<!-- Node2&#45;&gt;Node1 -->
<g id="edge1_Node000001_Node000002" class="edge">
<title>Node2&#45;&gt;Node1</title>
<g id="a_edge1_Node000001_Node000002"><a xlink:title=" ">
<path fill="none" stroke="#63b8ff" d="M98.5,-56.58C98.5,-47.51 98.5,-37.95 98.5,-30.39"/>
<polygon fill="#63b8ff" stroke="#63b8ff" points="95,-56.86 98.5,-66.86 102,-56.86 95,-56.86"/>
</a>
</g>
</g>
<!-- Node3 -->
<g id="Node000003" class="node">
<title>Node3</title>
<g id="a_Node000003"><a xlink:href="classbasic__specs.html" target="_top" xlink:title=" ">
<polygon fill="white" stroke="#666666" points="75,-179.5 0,-179.5 0,-160.5 75,-160.5 75,-179.5"/>
<text text-anchor="middle" x="37.5" y="-167.5" font-family="Helvetica,sans-Serif" font-size="10.00">basic_specs</text>
</a>
</g>
</g>
<!-- Node3&#45;&gt;Node2 -->
<g id="edge2_Node000002_Node000003" class="edge">
<title>Node3&#45;&gt;Node2</title>
<g id="a_edge2_Node000002_Node000003"><a xlink:title=" ">
<path fill="none" stroke="#9a32cd" stroke-dasharray="5,2" d="M50.1,-152.37C59.87,-139.48 73.43,-121.59 83.71,-108.02"/>
<polygon fill="#9a32cd" stroke="#9a32cd" points="47.28,-150.3 44.03,-160.39 52.86,-154.53 47.28,-150.3"/>
</a>
</g>
<text text-anchor="middle" x="89" y="-129" font-family="Helvetica,sans-Serif" font-size="10.00" fill="grey"> specs_</text>
</g>
<!-- Node4 -->
<g id="Node000004" class="node">
<title>Node4</title>
<g id="a_Node000004"><a xlink:href="structformatter.html" target="_top" xlink:title=" ">
<polygon fill="white" stroke="#666666" points="226,-185 93,-185 93,-155 226,-155 226,-185"/>
<text text-anchor="start" x="101" y="-173" font-family="Helvetica,sans-Serif" font-size="10.00">formatter&lt; basic_string</text>
<text text-anchor="middle" x="159.5" y="-162" font-family="Helvetica,sans-Serif" font-size="10.00">_view&lt; Char &gt;, Char &gt;</text>
</a>
</g>
</g>
<!-- Node4&#45;&gt;Node2 -->
<g id="edge3_Node000002_Node000004" class="edge">
<title>Node4&#45;&gt;Node2</title>
<g id="a_edge3_Node000002_Node000004"><a xlink:title=" ">
<path fill="none" stroke="#9a32cd" stroke-dasharray="5,2" d="M142.62,-146.72C133.44,-134.61 122.19,-119.76 113.34,-108.09"/>
<polygon fill="#9a32cd" stroke="#9a32cd" points="140.05,-149.12 148.87,-154.98 145.62,-144.89 140.05,-149.12"/>
</a>
</g>
<text text-anchor="middle" x="161" y="-129" font-family="Helvetica,sans-Serif" font-size="10.00" fill="grey"> formatter_</text>
</g>
</g>
</svg>
