<?xml version="1.0" encoding="UTF-8" standalone="no"?>
<!DOCTYPE svg PUBLIC "-//W3C//DTD SVG 1.1//EN"
 "http://www.w3.org/Graphics/SVG/1.1/DTD/svg11.dtd">
<!-- Generated by graphviz version 2.43.0 (0)
 -->
<!-- Title: formatter&lt; bytes &gt; Pages: 1 -->
<svg width="238pt" height="258pt"
 viewBox="0.00 0.00 237.50 258.00" xmlns="http://www.w3.org/2000/svg" xmlns:xlink="http://www.w3.org/1999/xlink">
<g id="graph0" class="graph" transform="scale(1 1) rotate(0) translate(4 254)">
<title>formatter&lt; bytes &gt;</title>
<!-- Node1 -->
<g id="Node000001" class="node">
<title>Node1</title>
<g id="a_Node000001"><a xlink:title=" ">
<polygon fill="#999999" stroke="#666666" points="159,-19 46,-19 46,0 159,0 159,-19"/>
<text text-anchor="middle" x="102.5" y="-7" font-family="Helvetica,sans-Serif" font-size="10.00">formatter&lt; bytes &gt;</text>
</a>
</g>
</g>
<!-- Node2 -->
<g id="Node000002" class="node">
<title>Node2</title>
<g id="a_Node000002"><a xlink:href="structdetail_1_1dynamic__format__specs.html" target="_top" xlink:title=" ">
<polygon fill="white" stroke="#666666" points="168,-96 37,-96 37,-66 168,-66 168,-96"/>
<text text-anchor="start" x="45" y="-84" font-family="Helvetica,sans-Serif" font-size="10.00">detail::dynamic_format</text>
<text text-anchor="middle" x="102.5" y="-73" font-family="Helvetica,sans-Serif" font-size="10.00">_specs&lt; Char &gt;</text>
</a>
</g>
</g>
<!-- Node2&#45;&gt;Node1 -->
<g id="edge1_Node000001_Node000002" class="edge">
<title>Node2&#45;&gt;Node1</title>
<g id="a_edge1_Node000001_Node000002"><a xlink:title=" ">
<path fill="none" stroke="#9a32cd" stroke-dasharray="5,2" d="M102.5,-55.56C102.5,-42.95 102.5,-28.35 102.5,-19.27"/>
<polygon fill="#9a32cd" stroke="#9a32cd" points="99,-55.94 102.5,-65.94 106,-55.94 99,-55.94"/>
</a>
</g>
<text text-anchor="middle" x="121" y="-40" font-family="Helvetica,sans-Serif" font-size="10.00" fill="grey"> specs_</text>
</g>
<!-- Node3 -->
<g id="Node000003" class="node">
<title>Node3</title>
<g id="a_Node000003"><a xlink:href="structformat__specs.html" target="_top" xlink:title=" ">
<polygon fill="white" stroke="#666666" points="83,-173 0,-173 0,-154 83,-154 83,-173"/>
<text text-anchor="middle" x="41.5" y="-161" font-family="Helvetica,sans-Serif" font-size="10.00">format_specs</text>
</a>
</g>
</g>
<!-- Node3&#45;&gt;Node2 -->
<g id="edge2_Node000002_Node000003" class="edge">
<title>Node3&#45;&gt;Node2</title>
<g id="a_edge2_Node000002_Node000003"><a xlink:title=" ">
<path fill="none" stroke="#63b8ff" d="M54.22,-145.71C65.32,-131.06 81.25,-110.05 91.73,-96.22"/>
<polygon fill="#63b8ff" stroke="#63b8ff" points="51.28,-143.8 48.03,-153.89 56.86,-148.03 51.28,-143.8"/>
</a>
</g>
</g>
<!-- Node4 -->
<g id="Node000004" class="node">
<title>Node4</title>
<g id="a_Node000004"><a xlink:href="classbasic__specs.html" target="_top" xlink:title=" ">
<polygon fill="white" stroke="#666666" points="79,-244.5 4,-244.5 4,-225.5 79,-225.5 79,-244.5"/>
<text text-anchor="middle" x="41.5" y="-232.5" font-family="Helvetica,sans-Serif" font-size="10.00">basic_specs</text>
</a>
</g>
</g>
<!-- Node4&#45;&gt;Node3 -->
<g id="edge3_Node000003_Node000004" class="edge">
<title>Node4&#45;&gt;Node3</title>
<g id="a_edge3_Node000003_Node000004"><a xlink:title=" ">
<path fill="none" stroke="#63b8ff" d="M41.5,-215.21C41.5,-201.5 41.5,-183.55 41.5,-173.09"/>
<polygon fill="#63b8ff" stroke="#63b8ff" points="38,-215.48 41.5,-225.48 45,-215.48 38,-215.48"/>
</a>
</g>
</g>
<!-- Node5 -->
<g id="Node000005" class="node">
<title>Node5</title>
<g id="a_Node000005"><a xlink:href="uniondetail_1_1arg__ref.html" target="_top" xlink:title=" ">
<polygon fill="white" stroke="#666666" points="229.5,-173 101.5,-173 101.5,-154 229.5,-154 229.5,-173"/>
<text text-anchor="middle" x="165.5" y="-161" font-family="Helvetica,sans-Serif" font-size="10.00">detail::arg_ref&lt; char &gt;</text>
</a>
</g>
</g>
<!-- Node5&#45;&gt;Node2 -->
<g id="edge4_Node000002_Node000005" class="edge">
<title>Node5&#45;&gt;Node2</title>
<g id="a_edge4_Node000002_Node000005"><a xlink:title=" ">
<path fill="none" stroke="#9a32cd" stroke-dasharray="5,2" d="M152.36,-145.71C140.9,-131.06 124.45,-110.05 113.63,-96.22"/>
<polygon fill="#9a32cd" stroke="#9a32cd" points="149.84,-148.17 158.76,-153.89 155.35,-143.85 149.84,-148.17"/>
</a>
</g>
<text text-anchor="middle" x="177" y="-128" font-family="Helvetica,sans-Serif" font-size="10.00" fill="grey"> precision_ref</text>
<text text-anchor="middle" x="177" y="-117" font-family="Helvetica,sans-Serif" font-size="10.00" fill="grey">width_ref</text>
</g>
<!-- Node6 -->
<g id="Node000006" class="node">
<title>Node6</title>
<g id="a_Node000006"><a xlink:href="classbasic__string__view.html" target="_top" xlink:title=" ">
<polygon fill="white" stroke="#666666" points="221.5,-250 109.5,-250 109.5,-220 221.5,-220 221.5,-250"/>
<text text-anchor="start" x="117.5" y="-238" font-family="Helvetica,sans-Serif" font-size="10.00">basic_string_view&lt;</text>
<text text-anchor="middle" x="165.5" y="-227" font-family="Helvetica,sans-Serif" font-size="10.00"> char &gt;</text>
</a>
</g>
</g>
<!-- Node6&#45;&gt;Node5 -->
<g id="edge5_Node000005_Node000006" class="edge">
<title>Node6&#45;&gt;Node5</title>
<g id="a_edge5_Node000005_Node000006"><a xlink:title=" ">
<path fill="none" stroke="#9a32cd" stroke-dasharray="5,2" d="M165.5,-209.56C165.5,-196.95 165.5,-182.35 165.5,-173.27"/>
<polygon fill="#9a32cd" stroke="#9a32cd" points="162,-209.94 165.5,-219.94 169,-209.94 162,-209.94"/>
</a>
</g>
<text text-anchor="middle" x="181" y="-194" font-family="Helvetica,sans-Serif" font-size="10.00" fill="grey"> name</text>
</g>
</g>
</svg>
