<?xml version="1.0" encoding="UTF-8" standalone="no"?>
<!DOCTYPE svg PUBLIC "-//W3C//DTD SVG 1.1//EN"
 "http://www.w3.org/Graphics/SVG/1.1/DTD/svg11.dtd">
<!-- Generated by graphviz version 2.43.0 (0)
 -->
<!-- Title: detail::duration_formatter::on_second Pages: 1 -->
<svg width="831pt" height="348pt"
 viewBox="0.00 0.00 831.00 347.50" xmlns="http://www.w3.org/2000/svg" xmlns:xlink="http://www.w3.org/1999/xlink">
<g id="graph0" class="graph" transform="scale(1 1) rotate(0) translate(4 343.5)">
<title>detail::duration_formatter::on_second</title>
<!-- Node1 -->
<g id="Node000001" class="node">
<title>Node1</title>
<g id="a_Node000001"><a xlink:title=" ">
<polygon fill="#999999" stroke="#666666" points="143,-185 0,-185 0,-155 143,-155 143,-185"/>
<text text-anchor="start" x="8" y="-173" font-family="Helvetica,sans-Serif" font-size="10.00">detail::duration_formatter</text>
<text text-anchor="middle" x="71.5" y="-162" font-family="Helvetica,sans-Serif" font-size="10.00">::on_second</text>
</a>
</g>
</g>
<!-- Node2 -->
<g id="Node000002" class="node">
<title>Node2</title>
<g id="a_Node000002"><a xlink:href="classbasic__memory__buffer.html#a7a9300acfadb00a835b36a86a198f433" target="_top" xlink:title=" ">
<polygon fill="white" stroke="#666666" points="314.5,-308 186.5,-308 186.5,-278 314.5,-278 314.5,-308"/>
<text text-anchor="start" x="194.5" y="-296" font-family="Helvetica,sans-Serif" font-size="10.00">basic_memory_buffer</text>
<text text-anchor="middle" x="250.5" y="-285" font-family="Helvetica,sans-Serif" font-size="10.00">::basic_memory_buffer</text>
</a>
</g>
</g>
<!-- Node1&#45;&gt;Node2 -->
<g id="edge1_Node000001_Node000002" class="edge">
<title>Node1&#45;&gt;Node2</title>
<g id="a_edge1_Node000001_Node000002"><a xlink:title=" ">
<path fill="none" stroke="#63b8ff" d="M85.08,-185.19C103.6,-206.66 140.21,-245.83 179,-269 181.83,-270.69 184.8,-272.28 187.84,-273.78"/>
<polygon fill="#63b8ff" stroke="#63b8ff" points="186.61,-277.06 197.17,-277.98 189.49,-270.68 186.61,-277.06"/>
</a>
</g>
</g>
<!-- Node9 -->
<g id="Node000009" class="node">
<title>Node9</title>
<g id="a_Node000009"><a xlink:href="classdetail_1_1buffer.html#adf353302bef0b99c405ca999d07b39ed" target="_top" xlink:title=" ">
<polygon fill="white" stroke="#666666" points="306.5,-259.5 194.5,-259.5 194.5,-240.5 306.5,-240.5 306.5,-259.5"/>
<text text-anchor="middle" x="250.5" y="-247.5" font-family="Helvetica,sans-Serif" font-size="10.00">detail::buffer::begin</text>
</a>
</g>
</g>
<!-- Node1&#45;&gt;Node9 -->
<g id="edge8_Node000001_Node000009" class="edge">
<title>Node1&#45;&gt;Node9</title>
<g id="a_edge8_Node000001_Node000009"><a xlink:title=" ">
<path fill="none" stroke="#63b8ff" d="M94.42,-185.2C115.32,-199.1 148.11,-219.35 179,-232 183.97,-234.03 189.23,-235.89 194.55,-237.57"/>
<polygon fill="#63b8ff" stroke="#63b8ff" points="193.56,-240.92 204.14,-240.4 195.54,-234.21 193.56,-240.92"/>
</a>
</g>
</g>
<!-- Node10 -->
<g id="Node000010" class="node">
<title>Node10</title>
<g id="a_Node000010"><a xlink:href="classdetail_1_1buffer.html#ac2b183d544845677a3b7d1137b17d16d" target="_top" xlink:title=" ">
<polygon fill="white" stroke="#666666" points="302,-222.5 199,-222.5 199,-203.5 302,-203.5 302,-222.5"/>
<text text-anchor="middle" x="250.5" y="-210.5" font-family="Helvetica,sans-Serif" font-size="10.00">detail::buffer::end</text>
</a>
</g>
</g>
<!-- Node1&#45;&gt;Node10 -->
<g id="edge9_Node000001_Node000010" class="edge">
<title>Node1&#45;&gt;Node10</title>
<g id="a_edge9_Node000001_Node000010"><a xlink:title=" ">
<path fill="none" stroke="#63b8ff" d="M134.41,-185.04C156.08,-190.3 180.1,-196.14 200.57,-201.11"/>
<polygon fill="#63b8ff" stroke="#63b8ff" points="199.76,-204.52 210.3,-203.48 201.41,-197.72 199.76,-204.52"/>
</a>
</g>
</g>
<!-- Node11 -->
<g id="Node000011" class="node">
<title>Node11</title>
<g id="a_Node000011"><a xlink:href="structdetail_1_1duration__formatter.html#ad8e5cd79d50c37c7977ea4ce10713c65" target="_top" xlink:title=" ">
<polygon fill="white" stroke="#666666" points="322,-185 179,-185 179,-155 322,-155 322,-185"/>
<text text-anchor="start" x="187" y="-173" font-family="Helvetica,sans-Serif" font-size="10.00">detail::duration_formatter</text>
<text text-anchor="middle" x="250.5" y="-162" font-family="Helvetica,sans-Serif" font-size="10.00">::handle_nan_inf</text>
</a>
</g>
</g>
<!-- Node1&#45;&gt;Node11 -->
<g id="edge10_Node000001_Node000011" class="edge">
<title>Node1&#45;&gt;Node11</title>
<g id="a_edge10_Node000001_Node000011"><a xlink:title=" ">
<path fill="none" stroke="#63b8ff" d="M143.22,-170C151.57,-170 160.14,-170 168.62,-170"/>
<polygon fill="#63b8ff" stroke="#63b8ff" points="168.89,-173.5 178.89,-170 168.89,-166.5 168.89,-173.5"/>
</a>
</g>
</g>
<!-- Node13 -->
<g id="Node000013" class="node">
<title>Node13</title>
<g id="a_Node000013"><a xlink:href="structdetail_1_1duration__formatter.html#a7f8e1201347c69d3f20fe4ad616f0aa0" target="_top" xlink:title=" ">
<polygon fill="white" stroke="#666666" points="322,-137 179,-137 179,-107 322,-107 322,-137"/>
<text text-anchor="start" x="187" y="-125" font-family="Helvetica,sans-Serif" font-size="10.00">detail::duration_formatter</text>
<text text-anchor="middle" x="250.5" y="-114" font-family="Helvetica,sans-Serif" font-size="10.00">::second</text>
</a>
</g>
</g>
<!-- Node1&#45;&gt;Node13 -->
<g id="edge12_Node000001_Node000013" class="edge">
<title>Node1&#45;&gt;Node13</title>
<g id="a_edge12_Node000001_Node000013"><a xlink:title=" ">
<path fill="none" stroke="#63b8ff" d="M128.02,-154.94C145.89,-150.1 165.86,-144.68 184.37,-139.66"/>
<polygon fill="#63b8ff" stroke="#63b8ff" points="185.44,-143 194.18,-137 183.61,-136.24 185.44,-143"/>
</a>
</g>
</g>
<!-- Node14 -->
<g id="Node000014" class="node">
<title>Node14</title>
<g id="a_Node000014"><a xlink:href="classdetail_1_1buffer.html#a8685285932360c284d19003fc4ba3edc" target="_top" xlink:title="Returns the size of this buffer.">
<polygon fill="white" stroke="#666666" points="302.5,-88.5 198.5,-88.5 198.5,-69.5 302.5,-69.5 302.5,-88.5"/>
<text text-anchor="middle" x="250.5" y="-76.5" font-family="Helvetica,sans-Serif" font-size="10.00">detail::buffer::size</text>
</a>
</g>
</g>
<!-- Node1&#45;&gt;Node14 -->
<g id="edge13_Node000001_Node000014" class="edge">
<title>Node1&#45;&gt;Node14</title>
<g id="a_edge13_Node000001_Node000014"><a xlink:title=" ">
<path fill="none" stroke="#63b8ff" d="M90.61,-154.98C110.95,-138.8 145.51,-113.31 179,-98 184.24,-95.6 189.85,-93.46 195.52,-91.55"/>
<polygon fill="#63b8ff" stroke="#63b8ff" points="196.58,-94.89 205.08,-88.56 194.5,-88.2 196.58,-94.89"/>
</a>
</g>
</g>
<!-- Node15 -->
<g id="Node000015" class="node">
<title>Node15</title>
<g id="a_Node000015"><a xlink:href="structdetail_1_1duration__formatter.html#a05833dd5c29a4b5991f31b3907f7c793" target="_top" xlink:title=" ">
<polygon fill="white" stroke="#666666" points="322,-51 179,-51 179,-21 322,-21 322,-51"/>
<text text-anchor="start" x="187" y="-39" font-family="Helvetica,sans-Serif" font-size="10.00">detail::duration_formatter</text>
<text text-anchor="middle" x="250.5" y="-28" font-family="Helvetica,sans-Serif" font-size="10.00">::write</text>
</a>
</g>
</g>
<!-- Node1&#45;&gt;Node15 -->
<g id="edge14_Node000001_Node000015" class="edge">
<title>Node1&#45;&gt;Node15</title>
<g id="a_edge14_Node000001_Node000015"><a xlink:title=" ">
<path fill="none" stroke="#63b8ff" d="M83.59,-154.83C101.31,-131.57 138.21,-87.08 179,-61 182.14,-58.99 185.46,-57.12 188.88,-55.38"/>
<polygon fill="#63b8ff" stroke="#63b8ff" points="190.54,-58.47 198.12,-51.08 187.58,-52.13 190.54,-58.47"/>
</a>
</g>
</g>
<!-- Node3 -->
<g id="Node000003" class="node">
<title>Node3</title>
<g id="a_Node000003"><a xlink:href="classbasic__memory__buffer.html#a97d9a0a0f9827c9277e2eea97fa0309b" target="_top" xlink:title=" ">
<polygon fill="white" stroke="#666666" points="490.5,-308 368.5,-308 368.5,-278 490.5,-278 490.5,-308"/>
<text text-anchor="start" x="376.5" y="-296" font-family="Helvetica,sans-Serif" font-size="10.00">basic_memory_buffer</text>
<text text-anchor="middle" x="429.5" y="-285" font-family="Helvetica,sans-Serif" font-size="10.00">::grow</text>
</a>
</g>
</g>
<!-- Node2&#45;&gt;Node3 -->
<g id="edge2_Node000002_Node000003" class="edge">
<title>Node2&#45;&gt;Node3</title>
<g id="a_edge2_Node000002_Node000003"><a xlink:title=" ">
<path fill="none" stroke="#63b8ff" d="M314.9,-293C328.95,-293 343.92,-293 358.22,-293"/>
<polygon fill="#63b8ff" stroke="#63b8ff" points="358.5,-296.5 368.5,-293 358.5,-289.5 358.5,-296.5"/>
</a>
</g>
</g>
<!-- Node8 -->
<g id="Node000008" class="node">
<title>Node8</title>
<g id="a_Node000008"><a xlink:href="namespacedetail.html#a75ed2634319883d038944529dbb954e2" target="_top" xlink:title=" ">
<polygon fill="white" stroke="#666666" points="654,-197 548,-197 548,-167 654,-167 654,-197"/>
<text text-anchor="start" x="556" y="-185" font-family="Helvetica,sans-Serif" font-size="10.00">detail::is_constant</text>
<text text-anchor="middle" x="601" y="-174" font-family="Helvetica,sans-Serif" font-size="10.00">_evaluated</text>
</a>
</g>
</g>
<!-- Node2&#45;&gt;Node8 -->
<g id="edge7_Node000002_Node000008" class="edge">
<title>Node2&#45;&gt;Node8</title>
<g id="a_edge7_Node000002_Node000008"><a xlink:title=" ">
<path fill="none" stroke="#63b8ff" d="M298.86,-277.91C362.37,-257.69 474.98,-221.82 543.03,-200.14"/>
<polygon fill="#63b8ff" stroke="#63b8ff" points="544.27,-203.42 552.74,-197.05 542.15,-196.75 544.27,-203.42"/>
</a>
</g>
</g>
<!-- Node4 -->
<g id="Node000004" class="node">
<title>Node4</title>
<g id="a_Node000004"><a xlink:href="namespacedetail.html#a9d0b4b56d52390d7c8a4be7baa5e2382" target="_top" xlink:title=" ">
<polygon fill="white" stroke="#666666" points="665,-339.5 537,-339.5 537,-320.5 665,-320.5 665,-339.5"/>
<text text-anchor="middle" x="601" y="-327.5" font-family="Helvetica,sans-Serif" font-size="10.00">detail::abort_fuzzing_if</text>
</a>
</g>
</g>
<!-- Node3&#45;&gt;Node4 -->
<g id="edge3_Node000003_Node000004" class="edge">
<title>Node3&#45;&gt;Node4</title>
<g id="a_edge3_Node000003_Node000004"><a xlink:title=" ">
<path fill="none" stroke="#63b8ff" d="M490.74,-306.15C508.87,-310.11 528.65,-314.42 546.33,-318.28"/>
<polygon fill="#63b8ff" stroke="#63b8ff" points="545.95,-321.78 556.47,-320.5 547.44,-314.94 545.95,-321.78"/>
</a>
</g>
</g>
<!-- Node6 -->
<g id="Node000006" class="node">
<title>Node6</title>
<g id="a_Node000006"><a xlink:href="namespacedetail.html#a208b54c1c61a9bce9df4531a657a0c64" target="_top" xlink:title=" ">
<polygon fill="white" stroke="#666666" points="645.5,-302.5 556.5,-302.5 556.5,-283.5 645.5,-283.5 645.5,-302.5"/>
<text text-anchor="middle" x="601" y="-290.5" font-family="Helvetica,sans-Serif" font-size="10.00">detail::assume</text>
</a>
</g>
</g>
<!-- Node3&#45;&gt;Node6 -->
<g id="edge5_Node000003_Node000006" class="edge">
<title>Node3&#45;&gt;Node6</title>
<g id="a_edge5_Node000003_Node000006"><a xlink:title=" ">
<path fill="none" stroke="#63b8ff" d="M490.74,-293C508.87,-293 528.65,-293 546.33,-293"/>
<polygon fill="#63b8ff" stroke="#63b8ff" points="546.47,-296.5 556.47,-293 546.47,-289.5 546.47,-296.5"/>
</a>
</g>
</g>
<!-- Node7 -->
<g id="Node000007" class="node">
<title>Node7</title>
<g id="a_Node000007"><a xlink:href="base_8h.html#a67ebc2a5b1748c4692931267cd6f89bf" target="_top" xlink:title=" ">
<polygon fill="white" stroke="#666666" points="627.5,-265.5 574.5,-265.5 574.5,-246.5 627.5,-246.5 627.5,-265.5"/>
<text text-anchor="middle" x="601" y="-253.5" font-family="Helvetica,sans-Serif" font-size="10.00">max_of</text>
</a>
</g>
</g>
<!-- Node3&#45;&gt;Node7 -->
<g id="edge6_Node000003_Node000007" class="edge">
<title>Node3&#45;&gt;Node7</title>
<g id="a_edge6_Node000003_Node000007"><a xlink:title=" ">
<path fill="none" stroke="#63b8ff" d="M490.74,-279.85C515.43,-274.46 543.17,-268.41 564.51,-263.75"/>
<polygon fill="#63b8ff" stroke="#63b8ff" points="565.41,-267.13 574.44,-261.58 563.92,-260.29 565.41,-267.13"/>
</a>
</g>
</g>
<!-- Node5 -->
<g id="Node000005" class="node">
<title>Node5</title>
<g id="a_Node000005"><a xlink:href="namespacedetail.html#a1fe84ebaf96215ce0665d95b3124c2df" target="_top" xlink:title=" ">
<polygon fill="white" stroke="#666666" points="823,-339.5 701,-339.5 701,-320.5 823,-320.5 823,-339.5"/>
<text text-anchor="middle" x="762" y="-327.5" font-family="Helvetica,sans-Serif" font-size="10.00">detail::ignore_unused</text>
</a>
</g>
</g>
<!-- Node4&#45;&gt;Node5 -->
<g id="edge4_Node000004_Node000005" class="edge">
<title>Node4&#45;&gt;Node5</title>
<g id="a_edge4_Node000004_Node000005"><a xlink:title=" ">
<path fill="none" stroke="#63b8ff" d="M665.3,-330C673.61,-330 682.17,-330 690.59,-330"/>
<polygon fill="#63b8ff" stroke="#63b8ff" points="690.77,-333.5 700.77,-330 690.77,-326.5 690.77,-333.5"/>
</a>
</g>
</g>
<!-- Node12 -->
<g id="Node000012" class="node">
<title>Node12</title>
<g id="a_Node000012"><a xlink:href="structdetail_1_1duration__formatter.html#a0b52d0c33d00406ad4f227d8d9ac7245" target="_top" xlink:title=" ">
<polygon fill="white" stroke="#666666" points="501,-177 358,-177 358,-147 501,-147 501,-177"/>
<text text-anchor="start" x="366" y="-165" font-family="Helvetica,sans-Serif" font-size="10.00">detail::duration_formatter</text>
<text text-anchor="middle" x="429.5" y="-154" font-family="Helvetica,sans-Serif" font-size="10.00">::write_nan</text>
</a>
</g>
</g>
<!-- Node11&#45;&gt;Node12 -->
<g id="edge11_Node000011_Node000012" class="edge">
<title>Node11&#45;&gt;Node12</title>
<g id="a_edge11_Node000011_Node000012"><a xlink:title=" ">
<path fill="none" stroke="#63b8ff" d="M322.22,-166.8C330.66,-166.42 339.33,-166.03 347.9,-165.64"/>
<polygon fill="#63b8ff" stroke="#63b8ff" points="348.06,-169.14 357.89,-165.19 347.75,-162.15 348.06,-169.14"/>
</a>
</g>
</g>
<!-- Node15&#45;&gt;Node12 -->
<g id="edge19_Node000015_Node000012" class="edge">
<title>Node15&#45;&gt;Node12</title>
<g id="a_edge19_Node000015_Node000012"><a xlink:title=" ">
<path fill="none" stroke="#63b8ff" d="M306.32,-51.02C311.93,-53.82 317.29,-57.12 322,-61 346.29,-81.02 335.55,-99.93 358,-122 365.76,-129.63 375.26,-136.29 384.74,-141.89"/>
<polygon fill="#63b8ff" stroke="#63b8ff" points="383.33,-145.11 393.77,-146.91 386.74,-138.99 383.33,-145.11"/>
</a>
</g>
</g>
<!-- Node16 -->
<g id="Node000016" class="node">
<title>Node16</title>
<g id="a_Node000016"><a xlink:href="namespacedetail.html#ac83427f5f16569571f442ec01887e045" target="_top" xlink:title=" ">
<polygon fill="white" stroke="#666666" points="484.5,-112.5 374.5,-112.5 374.5,-93.5 484.5,-93.5 484.5,-112.5"/>
<text text-anchor="middle" x="429.5" y="-100.5" font-family="Helvetica,sans-Serif" font-size="10.00">detail::count_digits</text>
</a>
</g>
</g>
<!-- Node15&#45;&gt;Node16 -->
<g id="edge15_Node000015_Node000016" class="edge">
<title>Node15&#45;&gt;Node16</title>
<g id="a_edge15_Node000015_Node000016"><a xlink:title=" ">
<path fill="none" stroke="#63b8ff" d="M295.7,-51.08C304.46,-54.24 313.56,-57.63 322,-61 338.26,-67.49 341.78,-70.41 358,-77 368.83,-81.4 380.71,-85.9 391.58,-89.9"/>
<polygon fill="#63b8ff" stroke="#63b8ff" points="390.63,-93.28 401.22,-93.41 393.03,-86.7 390.63,-93.28"/>
</a>
</g>
</g>
<!-- Node18 -->
<g id="Node000018" class="node">
<title>Node18</title>
<g id="a_Node000018"><a xlink:href="namespacedetail.html#a45c2130c44ebe54179eafcee3cda2bfb" target="_top" xlink:title=" ">
<polygon fill="white" stroke="#666666" points="481.5,-67.5 377.5,-67.5 377.5,-48.5 481.5,-48.5 481.5,-67.5"/>
<text text-anchor="middle" x="429.5" y="-55.5" font-family="Helvetica,sans-Serif" font-size="10.00">detail::max_value</text>
</a>
</g>
</g>
<!-- Node15&#45;&gt;Node18 -->
<g id="edge18_Node000015_Node000018" class="edge">
<title>Node15&#45;&gt;Node18</title>
<g id="a_edge18_Node000015_Node000018"><a xlink:title=" ">
<path fill="none" stroke="#63b8ff" d="M322.22,-44.79C337.02,-46.63 352.51,-48.55 366.94,-50.35"/>
<polygon fill="#63b8ff" stroke="#63b8ff" points="366.89,-53.87 377.24,-51.63 367.75,-46.92 366.89,-53.87"/>
</a>
</g>
</g>
<!-- Node19 -->
<g id="Node000019" class="node">
<title>Node19</title>
<g id="a_Node000019"><a xlink:href="structdetail_1_1duration__formatter.html#ab4149b3b22fec57ef71cb791850681f9" target="_top" xlink:title=" ">
<polygon fill="white" stroke="#666666" points="501,-30 358,-30 358,0 501,0 501,-30"/>
<text text-anchor="start" x="366" y="-18" font-family="Helvetica,sans-Serif" font-size="10.00">detail::duration_formatter</text>
<text text-anchor="middle" x="429.5" y="-7" font-family="Helvetica,sans-Serif" font-size="10.00">::write_sign</text>
</a>
</g>
</g>
<!-- Node15&#45;&gt;Node19 -->
<g id="edge20_Node000015_Node000019" class="edge">
<title>Node15&#45;&gt;Node19</title>
<g id="a_edge20_Node000015_Node000019"><a xlink:title=" ">
<path fill="none" stroke="#63b8ff" d="M322.22,-27.61C330.66,-26.61 339.33,-25.58 347.9,-24.56"/>
<polygon fill="#63b8ff" stroke="#63b8ff" points="348.38,-28.03 357.89,-23.38 347.55,-21.08 348.38,-28.03"/>
</a>
</g>
</g>
<!-- Node16&#45;&gt;Node8 -->
<g id="edge17_Node000016_Node000008" class="edge">
<title>Node16&#45;&gt;Node8</title>
<g id="a_edge17_Node000016_Node000008"><a xlink:title=" ">
<path fill="none" stroke="#63b8ff" d="M450.95,-112.53C477.42,-124.87 524.22,-146.68 558.33,-162.58"/>
<polygon fill="#63b8ff" stroke="#63b8ff" points="557.05,-165.84 567.59,-166.89 560,-159.5 557.05,-165.84"/>
</a>
</g>
</g>
<!-- Node17 -->
<g id="Node000017" class="node">
<title>Node17</title>
<g id="a_Node000017"><a xlink:href="namespacedetail.html#a300bc96ee936e9f6ef3565c8dff68a72" target="_top" xlink:title=" ">
<polygon fill="white" stroke="#666666" points="656,-118 546,-118 546,-88 656,-88 656,-118"/>
<text text-anchor="start" x="554" y="-106" font-family="Helvetica,sans-Serif" font-size="10.00">detail::count_digits</text>
<text text-anchor="middle" x="601" y="-95" font-family="Helvetica,sans-Serif" font-size="10.00">_fallback</text>
</a>
</g>
</g>
<!-- Node16&#45;&gt;Node17 -->
<g id="edge16_Node000016_Node000017" class="edge">
<title>Node16&#45;&gt;Node17</title>
<g id="a_edge16_Node000016_Node000017"><a xlink:title=" ">
<path fill="none" stroke="#63b8ff" d="M484.6,-103C500.8,-103 518.74,-103 535.54,-103"/>
<polygon fill="#63b8ff" stroke="#63b8ff" points="535.84,-106.5 545.84,-103 535.84,-99.5 535.84,-106.5"/>
</a>
</g>
</g>
</g>
</svg>
