<?xml version="1.0" encoding="UTF-8" standalone="no"?>
<!DOCTYPE svg PUBLIC "-//W3C//DTD SVG 1.1//EN"
 "http://www.w3.org/Graphics/SVG/1.1/DTD/svg11.dtd">
<!-- Generated by graphviz version 2.43.0 (0)
 -->
<!-- Title: detail::dragonbox::cache_accessor&lt; double &gt;::get_cached_power Pages: 1 -->
<svg width="435pt" height="49pt"
 viewBox="0.00 0.00 435.00 49.00" xmlns="http://www.w3.org/2000/svg" xmlns:xlink="http://www.w3.org/1999/xlink">
<g id="graph0" class="graph" transform="scale(1 1) rotate(0) translate(4 45)">
<title>detail::dragonbox::cache_accessor&lt; double &gt;::get_cached_power</title>
<!-- Node1 -->
<g id="Node000001" class="node">
<title>Node1</title>
<g id="a_Node000001"><a xlink:title=" ">
<polygon fill="#999999" stroke="#666666" points="427,-41 290,-41 290,0 427,0 427,-41"/>
<text text-anchor="start" x="298" y="-29" font-family="Helvetica,sans-Serif" font-size="10.00">detail::dragonbox::</text>
<text text-anchor="start" x="298" y="-18" font-family="Helvetica,sans-Serif" font-size="10.00">cache_accessor&lt; double</text>
<text text-anchor="middle" x="358.5" y="-7" font-family="Helvetica,sans-Serif" font-size="10.00"> &gt;::get_cached_power</text>
</a>
</g>
</g>
<!-- Node2 -->
<g id="Node000002" class="node">
<title>Node2</title>
<g id="a_Node000002"><a xlink:href="namespacedetail_1_1dragonbox.html#af068b86ad80aba413bf748f312dc64f0" target="_top" xlink:title=" ">
<polygon fill="white" stroke="#666666" points="254,-35.5 146,-35.5 146,-5.5 254,-5.5 254,-35.5"/>
<text text-anchor="start" x="154" y="-23.5" font-family="Helvetica,sans-Serif" font-size="10.00">detail::dragonbox::</text>
<text text-anchor="middle" x="200" y="-12.5" font-family="Helvetica,sans-Serif" font-size="10.00">get_cached_power</text>
</a>
</g>
</g>
<!-- Node1&#45;&gt;Node2 -->
<g id="edge1_Node000001_Node000002" class="edge">
<title>Node1&#45;&gt;Node2</title>
<g id="a_edge1_Node000001_Node000002"><a xlink:title=" ">
<path fill="none" stroke="#63b8ff" d="M279.68,-20.5C271.06,-20.5 262.43,-20.5 254.22,-20.5"/>
<polygon fill="#63b8ff" stroke="#63b8ff" points="279.77,-24 289.77,-20.5 279.77,-17 279.77,-24"/>
</a>
</g>
</g>
<!-- Node3 -->
<g id="Node000003" class="node">
<title>Node3</title>
<g id="a_Node000003"><a xlink:href="namespacedetail.html#add861c358ea50b446b1a06080adb44ba" target="_top" xlink:title=" ">
<polygon fill="white" stroke="#666666" points="110,-30 0,-30 0,-11 110,-11 110,-30"/>
<text text-anchor="middle" x="55" y="-18" font-family="Helvetica,sans-Serif" font-size="10.00">detail::format_float</text>
</a>
</g>
</g>
<!-- Node2&#45;&gt;Node3 -->
<g id="edge2_Node000002_Node000003" class="edge">
<title>Node2&#45;&gt;Node3</title>
<g id="a_edge2_Node000002_Node000003"><a xlink:title=" ">
<path fill="none" stroke="#63b8ff" d="M135.56,-20.5C127.11,-20.5 118.52,-20.5 110.25,-20.5"/>
<polygon fill="#63b8ff" stroke="#63b8ff" points="135.75,-24 145.75,-20.5 135.75,-17 135.75,-24"/>
</a>
</g>
</g>
</g>
</svg>
