<?xml version="1.0" encoding="UTF-8" standalone="no"?>
<!DOCTYPE svg PUBLIC "-//W3C//DTD SVG 1.1//EN"
 "http://www.w3.org/Graphics/SVG/1.1/DTD/svg11.dtd">
<!-- Generated by graphviz version 2.43.0 (0)
 -->
<!-- Title: LoRaWANBand_t Pages: 1 -->
<svg width="659pt" height="215pt"
 viewBox="0.00 0.00 659.00 214.50" xmlns="http://www.w3.org/2000/svg" xmlns:xlink="http://www.w3.org/1999/xlink">
<g id="graph0" class="graph" transform="scale(1 1) rotate(0) translate(4 210.5)">
<title>LoRaWANBand_t</title>
<!-- Node1 -->
<g id="Node000001" class="node">
<title>Node1</title>
<g id="a_Node000001"><a xlink:title="Structure to save information about LoRaWAN band.">
<polygon fill="#999999" stroke="#666666" points="651,-139 553,-139 553,-120 651,-120 651,-139"/>
<text text-anchor="middle" x="602" y="-127" font-family="Helvetica,sans-Serif" font-size="10.00">LoRaWANBand_t</text>
</a>
</g>
</g>
<!-- Node2 -->
<g id="Node000002" class="node">
<title>Node2</title>
<g id="a_Node000002"><a xlink:href="structLoRaWANChannel__t.html" target="_top" xlink:title="Structure to save information about LoRaWAN channels. To save space, adjacent channels are saved in &quot;...">
<polygon fill="white" stroke="#666666" points="452,-184 339,-184 339,-165 452,-165 452,-184"/>
<text text-anchor="middle" x="395.5" y="-172" font-family="Helvetica,sans-Serif" font-size="10.00">LoRaWANChannel_t</text>
</a>
</g>
</g>
<!-- Node2&#45;&gt;Node1 -->
<g id="edge1_Node000001_Node000002" class="edge">
<title>Node2&#45;&gt;Node1</title>
<g id="a_edge1_Node000001_Node000002"><a xlink:title=" ">
<path fill="none" stroke="#9a32cd" stroke-dasharray="5,2" d="M462.29,-166.49C485.46,-163.03 511.55,-158.4 535,-152.5 549.12,-148.95 564.51,-143.67 576.87,-139.07"/>
<polygon fill="#9a32cd" stroke="#9a32cd" points="461.62,-163.05 452.22,-167.95 462.62,-169.98 461.62,-163.05"/>
</a>
</g>
<text text-anchor="middle" x="508.5" y="-198.5" font-family="Helvetica,sans-Serif" font-size="10.00" fill="grey"> rx2</text>
<text text-anchor="middle" x="508.5" y="-187.5" font-family="Helvetica,sans-Serif" font-size="10.00" fill="grey">txAck</text>
<text text-anchor="middle" x="508.5" y="-176.5" font-family="Helvetica,sans-Serif" font-size="10.00" fill="grey">txFreqs</text>
<text text-anchor="middle" x="508.5" y="-165.5" font-family="Helvetica,sans-Serif" font-size="10.00" fill="grey">txWoR</text>
</g>
<!-- Node3 -->
<g id="Node000003" class="node">
<title>Node3</title>
<g id="a_Node000003"><a xlink:href="structLoRaWANChannelSpan__t.html" target="_top" xlink:title="Structure to save information about LoRaWAN channels. To save space, adjacent channels are saved in &quot;...">
<polygon fill="white" stroke="#666666" points="464,-139 327,-139 327,-120 464,-120 464,-139"/>
<text text-anchor="middle" x="395.5" y="-127" font-family="Helvetica,sans-Serif" font-size="10.00">LoRaWANChannelSpan_t</text>
</a>
</g>
</g>
<!-- Node3&#45;&gt;Node1 -->
<g id="edge2_Node000001_Node000003" class="edge">
<title>Node3&#45;&gt;Node1</title>
<g id="a_edge2_Node000001_Node000003"><a xlink:title=" ">
<path fill="none" stroke="#9a32cd" stroke-dasharray="5,2" d="M474.06,-129.5C500.58,-129.5 529.45,-129.5 552.95,-129.5"/>
<polygon fill="#9a32cd" stroke="#9a32cd" points="474.03,-126 464.03,-129.5 474.03,-133 474.03,-126"/>
</a>
</g>
<text text-anchor="middle" x="508.5" y="-143.5" font-family="Helvetica,sans-Serif" font-size="10.00" fill="grey"> rx1Span</text>
<text text-anchor="middle" x="508.5" y="-132.5" font-family="Helvetica,sans-Serif" font-size="10.00" fill="grey">txSpans</text>
</g>
<!-- Node4 -->
<g id="Node000004" class="node">
<title>Node4</title>
<g id="a_Node000004"><a xlink:href="structLoRaWANDataRate__t.html" target="_top" xlink:title=" ">
<polygon fill="white" stroke="#666666" points="455,-102 336,-102 336,-83 455,-83 455,-102"/>
<text text-anchor="middle" x="395.5" y="-90" font-family="Helvetica,sans-Serif" font-size="10.00">LoRaWANDataRate_t</text>
</a>
</g>
</g>
<!-- Node4&#45;&gt;Node1 -->
<g id="edge3_Node000001_Node000004" class="edge">
<title>Node4&#45;&gt;Node1</title>
<g id="a_edge3_Node000001_Node000004"><a xlink:title=" ">
<path fill="none" stroke="#9a32cd" stroke-dasharray="5,2" d="M465.33,-102.52C487.61,-106 512.4,-110.14 535,-114.5 543.42,-116.12 552.41,-118.04 560.95,-119.95"/>
<polygon fill="#9a32cd" stroke="#9a32cd" points="465.7,-99.03 455.28,-100.96 464.63,-105.95 465.7,-99.03"/>
</a>
</g>
<text text-anchor="middle" x="508.5" y="-117.5" font-family="Helvetica,sans-Serif" font-size="10.00" fill="grey"> dataRates</text>
</g>
<!-- Node5 -->
<g id="Node000005" class="node">
<title>Node5</title>
<g id="a_Node000005"><a xlink:href="unionDataRate__t.html" target="_top" xlink:title="Common data rate structure.">
<polygon fill="white" stroke="#666666" points="267.5,-139 196.5,-139 196.5,-120 267.5,-120 267.5,-139"/>
<text text-anchor="middle" x="232" y="-127" font-family="Helvetica,sans-Serif" font-size="10.00">DataRate_t</text>
</a>
</g>
</g>
<!-- Node5&#45;&gt;Node4 -->
<g id="edge4_Node000004_Node000005" class="edge">
<title>Node5&#45;&gt;Node4</title>
<g id="a_edge4_Node000004_Node000005"><a xlink:title=" ">
<path fill="none" stroke="#9a32cd" stroke-dasharray="5,2" d="M277.69,-119.26C301.16,-113.89 329.73,-107.34 352.75,-102.07"/>
<polygon fill="#9a32cd" stroke="#9a32cd" points="276.61,-115.92 267.65,-121.56 278.17,-122.74 276.61,-115.92"/>
</a>
</g>
<text text-anchor="middle" x="301.5" y="-117.5" font-family="Helvetica,sans-Serif" font-size="10.00" fill="grey"> dr</text>
</g>
<!-- Node6 -->
<g id="Node000006" class="node">
<title>Node6</title>
<g id="a_Node000006"><a xlink:href="structLoRaRate__t.html" target="_top" xlink:title="Data rate structure interpretation in case LoRa is used.">
<polygon fill="white" stroke="#666666" points="95.5,-204 23.5,-204 23.5,-185 95.5,-185 95.5,-204"/>
<text text-anchor="middle" x="59.5" y="-192" font-family="Helvetica,sans-Serif" font-size="10.00">LoRaRate_t</text>
</a>
</g>
</g>
<!-- Node6&#45;&gt;Node5 -->
<g id="edge5_Node000005_Node000006" class="edge">
<title>Node6&#45;&gt;Node5</title>
<g id="a_edge5_Node000005_Node000006"><a xlink:title=" ">
<path fill="none" stroke="#9a32cd" stroke-dasharray="5,2" d="M102.39,-181.84C107.98,-180.08 113.64,-178.27 119,-176.5 141.83,-168.96 147.78,-167.67 170,-158.5 184.42,-152.55 200.32,-144.95 212.27,-139.03"/>
<polygon fill="#9a32cd" stroke="#9a32cd" points="100.96,-178.62 92.45,-184.93 103.04,-185.3 100.96,-178.62"/>
</a>
</g>
<text text-anchor="middle" x="153.5" y="-172.5" font-family="Helvetica,sans-Serif" font-size="10.00" fill="grey"> lora</text>
</g>
<!-- Node7 -->
<g id="Node000007" class="node">
<title>Node7</title>
<g id="a_Node000007"><a xlink:href="structFSKRate__t.html" target="_top" xlink:title="Data rate structure interpretation in case FSK is used.">
<polygon fill="white" stroke="#666666" points="92.5,-167 26.5,-167 26.5,-148 92.5,-148 92.5,-167"/>
<text text-anchor="middle" x="59.5" y="-155" font-family="Helvetica,sans-Serif" font-size="10.00">FSKRate_t</text>
</a>
</g>
</g>
<!-- Node7&#45;&gt;Node5 -->
<g id="edge6_Node000005_Node000007" class="edge">
<title>Node7&#45;&gt;Node5</title>
<g id="a_edge6_Node000005_Node000007"><a xlink:title=" ">
<path fill="none" stroke="#9a32cd" stroke-dasharray="5,2" d="M102.76,-150.56C131.62,-145.82 169.38,-139.62 196.44,-135.18"/>
<polygon fill="#9a32cd" stroke="#9a32cd" points="101.87,-147.16 92.57,-152.23 103,-154.07 101.87,-147.16"/>
</a>
</g>
<text text-anchor="middle" x="153.5" y="-146.5" font-family="Helvetica,sans-Serif" font-size="10.00" fill="grey"> fsk</text>
</g>
<!-- Node8 -->
<g id="Node000008" class="node">
<title>Node8</title>
<g id="a_Node000008"><a xlink:href="structLrFhssRate__t.html" target="_top" xlink:title="Data rate structure interpretation in case LR&#45;FHSS is used.">
<polygon fill="white" stroke="#666666" points="99.5,-130 19.5,-130 19.5,-111 99.5,-111 99.5,-130"/>
<text text-anchor="middle" x="59.5" y="-118" font-family="Helvetica,sans-Serif" font-size="10.00">LrFhssRate_t</text>
</a>
</g>
</g>
<!-- Node8&#45;&gt;Node5 -->
<g id="edge7_Node000005_Node000008" class="edge">
<title>Node8&#45;&gt;Node5</title>
<g id="a_edge7_Node000005_Node000008"><a xlink:title=" ">
<path fill="none" stroke="#9a32cd" stroke-dasharray="5,2" d="M109.7,-121.82C128.57,-122.45 150.29,-123.33 170,-124.5 178.49,-125 187.62,-125.68 196.18,-126.37"/>
<polygon fill="#9a32cd" stroke="#9a32cd" points="109.65,-118.32 99.54,-121.5 109.43,-125.32 109.65,-118.32"/>
</a>
</g>
<text text-anchor="middle" x="153.5" y="-127.5" font-family="Helvetica,sans-Serif" font-size="10.00" fill="grey"> lrFhss</text>
</g>
<!-- Node9 -->
<g id="Node000009" class="node">
<title>Node9</title>
<g id="a_Node000009"><a xlink:href="unionPacketConfig__t.html" target="_top" xlink:title="Common packet configuration structure.">
<polygon fill="white" stroke="#666666" points="276,-84 188,-84 188,-65 276,-65 276,-84"/>
<text text-anchor="middle" x="232" y="-72" font-family="Helvetica,sans-Serif" font-size="10.00">PacketConfig_t</text>
</a>
</g>
</g>
<!-- Node9&#45;&gt;Node4 -->
<g id="edge8_Node000004_Node000009" class="edge">
<title>Node9&#45;&gt;Node4</title>
<g id="a_edge8_Node000004_Node000009"><a xlink:title=" ">
<path fill="none" stroke="#9a32cd" stroke-dasharray="5,2" d="M286.09,-75.68C293.79,-76.12 301.61,-76.71 309,-77.5 321.29,-78.81 334.48,-80.83 346.73,-82.95"/>
<polygon fill="#9a32cd" stroke="#9a32cd" points="286.24,-72.19 276.08,-75.19 285.9,-79.18 286.24,-72.19"/>
</a>
</g>
<text text-anchor="middle" x="301.5" y="-80.5" font-family="Helvetica,sans-Serif" font-size="10.00" fill="grey"> pc</text>
</g>
<!-- Node10 -->
<g id="Node000010" class="node">
<title>Node10</title>
<g id="a_Node000010"><a xlink:href="structLoRaPacketConfig__t.html" target="_top" xlink:title=" ">
<polygon fill="white" stroke="#666666" points="115.5,-93 3.5,-93 3.5,-74 115.5,-74 115.5,-93"/>
<text text-anchor="middle" x="59.5" y="-81" font-family="Helvetica,sans-Serif" font-size="10.00">LoRaPacketConfig_t</text>
</a>
</g>
</g>
<!-- Node10&#45;&gt;Node9 -->
<g id="edge9_Node000009_Node000010" class="edge">
<title>Node10&#45;&gt;Node9</title>
<g id="a_edge9_Node000009_Node000010"><a xlink:title=" ">
<path fill="none" stroke="#9a32cd" stroke-dasharray="5,2" d="M125.88,-80.05C146.62,-78.95 169.02,-77.77 187.8,-76.78"/>
<polygon fill="#9a32cd" stroke="#9a32cd" points="125.66,-76.56 115.86,-80.58 126.03,-83.55 125.66,-76.56"/>
</a>
</g>
<text text-anchor="middle" x="153.5" y="-81.5" font-family="Helvetica,sans-Serif" font-size="10.00" fill="grey"> lora</text>
</g>
<!-- Node11 -->
<g id="Node000011" class="node">
<title>Node11</title>
<g id="a_Node000011"><a xlink:href="structFSKPacketConfig__t.html" target="_top" xlink:title=" ">
<polygon fill="white" stroke="#666666" points="112.5,-56 6.5,-56 6.5,-37 112.5,-37 112.5,-56"/>
<text text-anchor="middle" x="59.5" y="-44" font-family="Helvetica,sans-Serif" font-size="10.00">FSKPacketConfig_t</text>
</a>
</g>
</g>
<!-- Node11&#45;&gt;Node9 -->
<g id="edge10_Node000009_Node000011" class="edge">
<title>Node11&#45;&gt;Node9</title>
<g id="a_edge10_Node000009_Node000011"><a xlink:title=" ">
<path fill="none" stroke="#9a32cd" stroke-dasharray="5,2" d="M122.66,-55.04C138.15,-57.32 154.7,-59.88 170,-62.5 175.74,-63.48 181.78,-64.59 187.73,-65.71"/>
<polygon fill="#9a32cd" stroke="#9a32cd" points="123.06,-51.56 112.66,-53.59 122.05,-58.49 123.06,-51.56"/>
</a>
</g>
<text text-anchor="middle" x="153.5" y="-65.5" font-family="Helvetica,sans-Serif" font-size="10.00" fill="grey"> fsk</text>
</g>
<!-- Node12 -->
<g id="Node000012" class="node">
<title>Node12</title>
<g id="a_Node000012"><a xlink:href="structLrFhssPacketConfig__t.html" target="_top" xlink:title=" ">
<polygon fill="white" stroke="#666666" points="119,-19 0,-19 0,0 119,0 119,-19"/>
<text text-anchor="middle" x="59.5" y="-7" font-family="Helvetica,sans-Serif" font-size="10.00">LrFhssPacketConfig_t</text>
</a>
</g>
</g>
<!-- Node12&#45;&gt;Node9 -->
<g id="edge11_Node000009_Node000012" class="edge">
<title>Node12&#45;&gt;Node9</title>
<g id="a_edge11_Node000009_Node000012"><a xlink:title=" ">
<path fill="none" stroke="#9a32cd" stroke-dasharray="5,2" d="M108.46,-21.81C127.85,-27.34 150.28,-34.44 170,-42.5 185.72,-48.92 202.77,-58.07 214.84,-64.94"/>
<polygon fill="#9a32cd" stroke="#9a32cd" points="109.19,-18.38 98.62,-19.07 107.31,-25.13 109.19,-18.38"/>
</a>
</g>
<text text-anchor="middle" x="153.5" y="-45.5" font-family="Helvetica,sans-Serif" font-size="10.00" fill="grey"> lrFhss</text>
</g>
</g>
</svg>
