<?xml version="1.0" encoding="UTF-8" standalone="no"?>
<!DOCTYPE svg PUBLIC "-//W3C//DTD SVG 1.1//EN"
 "http://www.w3.org/Graphics/SVG/1.1/DTD/svg11.dtd">
<!-- Generated by graphviz version 2.43.0 (0)
 -->
<!-- Title: detail::styled_arg&lt; T &gt; Pages: 1 -->
<svg width="166pt" height="93pt"
 viewBox="0.00 0.00 165.50 93.00" xmlns="http://www.w3.org/2000/svg" xmlns:xlink="http://www.w3.org/1999/xlink">
<g id="graph0" class="graph" transform="scale(1 1) rotate(0) translate(4 89)">
<title>detail::styled_arg&lt; T &gt;</title>
<!-- Node1 -->
<g id="Node000001" class="node">
<title>Node1</title>
<g id="a_Node000001"><a xlink:title=" ">
<polygon fill="#999999" stroke="#666666" points="146,-19 16,-19 16,0 146,0 146,-19"/>
<text text-anchor="middle" x="81" y="-7" font-family="Helvetica,sans-Serif" font-size="10.00">detail::styled_arg&lt; T &gt;</text>
</a>
</g>
</g>
<!-- Node2 -->
<g id="Node000002" class="node">
<title>Node2</title>
<g id="a_Node000002"><a xlink:href="structdetail_1_1view.html" target="_top" xlink:title=" ">
<polygon fill="white" stroke="#666666" points="74,-85 0,-85 0,-66 74,-66 74,-85"/>
<text text-anchor="middle" x="37" y="-73" font-family="Helvetica,sans-Serif" font-size="10.00">detail::view</text>
</a>
</g>
</g>
<!-- Node2&#45;&gt;Node1 -->
<g id="edge1_Node000001_Node000002" class="edge">
<title>Node2&#45;&gt;Node1</title>
<g id="a_edge1_Node000001_Node000002"><a xlink:title=" ">
<path fill="none" stroke="#63b8ff" d="M48.75,-57.41C57.16,-45.18 68.14,-29.2 74.88,-19.41"/>
<polygon fill="#63b8ff" stroke="#63b8ff" points="45.72,-55.65 42.93,-65.87 51.48,-59.61 45.72,-55.65"/>
</a>
</g>
</g>
<!-- Node3 -->
<g id="Node000003" class="node">
<title>Node3</title>
<g id="a_Node000003"><a xlink:href="classtext__style.html" target="_top" xlink:title="A text style consisting of foreground and background colors and emphasis.">
<polygon fill="white" stroke="#666666" points="157.5,-85 92.5,-85 92.5,-66 157.5,-66 157.5,-85"/>
<text text-anchor="middle" x="125" y="-73" font-family="Helvetica,sans-Serif" font-size="10.00">text_style</text>
</a>
</g>
</g>
<!-- Node3&#45;&gt;Node1 -->
<g id="edge2_Node000001_Node000003" class="edge">
<title>Node3&#45;&gt;Node1</title>
<g id="a_edge2_Node000001_Node000003"><a xlink:title=" ">
<path fill="none" stroke="#9a32cd" stroke-dasharray="5,2" d="M113.25,-57.41C104.84,-45.18 93.86,-29.2 87.12,-19.41"/>
<polygon fill="#9a32cd" stroke="#9a32cd" points="110.52,-59.61 119.07,-65.87 116.28,-55.65 110.52,-59.61"/>
</a>
</g>
<text text-anchor="middle" x="119" y="-40" font-family="Helvetica,sans-Serif" font-size="10.00" fill="grey"> style</text>
</g>
</g>
</svg>
