<?xml version="1.0" encoding="UTF-8" standalone="no"?>
<!DOCTYPE svg PUBLIC "-//W3C//DTD SVG 1.1//EN"
 "http://www.w3.org/Graphics/SVG/1.1/DTD/svg11.dtd">
<!-- Generated by graphviz version 2.43.0 (0)
 -->
<!-- Title: formatter&lt; detail::float128, Char &gt; Pages: 1 -->
<svg width="149pt" height="305pt"
 viewBox="0.00 0.00 149.00 305.00" xmlns="http://www.w3.org/2000/svg" xmlns:xlink="http://www.w3.org/1999/xlink">
<g id="graph0" class="graph" transform="scale(1 1) rotate(0) translate(4 301)">
<title>formatter&lt; detail::float128, Char &gt;</title>
<!-- Node1 -->
<g id="Node000001" class="node">
<title>Node1</title>
<g id="a_Node000001"><a xlink:title=" ">
<polygon fill="#999999" stroke="#666666" points="124.5,-30 16.5,-30 16.5,0 124.5,0 124.5,-30"/>
<text text-anchor="start" x="24.5" y="-18" font-family="Helvetica,sans-Serif" font-size="10.00">formatter&lt; detail::</text>
<text text-anchor="middle" x="70.5" y="-7" font-family="Helvetica,sans-Serif" font-size="10.00">float128, Char &gt;</text>
</a>
</g>
</g>
<!-- Node2 -->
<g id="Node000002" class="node">
<title>Node2</title>
<g id="a_Node000002"><a xlink:href="structdetail_1_1native__formatter.html" target="_top" xlink:title=" ">
<polygon fill="white" stroke="#666666" points="141,-108 0,-108 0,-67 141,-67 141,-108"/>
<text text-anchor="start" x="8" y="-96" font-family="Helvetica,sans-Serif" font-size="10.00">detail::native_formatter</text>
<text text-anchor="start" x="8" y="-85" font-family="Helvetica,sans-Serif" font-size="10.00">&lt; detail::float128, Char,</text>
<text text-anchor="middle" x="70.5" y="-74" font-family="Helvetica,sans-Serif" font-size="10.00"> detail::type::float_type &gt;</text>
</a>
</g>
</g>
<!-- Node2&#45;&gt;Node1 -->
<g id="edge1_Node000001_Node000002" class="edge">
<title>Node2&#45;&gt;Node1</title>
<g id="a_edge1_Node000001_Node000002"><a xlink:title=" ">
<path fill="none" stroke="#63b8ff" d="M70.5,-56.58C70.5,-47.51 70.5,-37.95 70.5,-30.39"/>
<polygon fill="#63b8ff" stroke="#63b8ff" points="67,-56.86 70.5,-66.86 74,-56.86 67,-56.86"/>
</a>
</g>
</g>
<!-- Node3 -->
<g id="Node000003" class="node">
<title>Node3</title>
<g id="a_Node000003"><a xlink:href="structdetail_1_1dynamic__format__specs.html" target="_top" xlink:title=" ">
<polygon fill="white" stroke="#666666" points="136,-185 5,-185 5,-155 136,-155 136,-185"/>
<text text-anchor="start" x="13" y="-173" font-family="Helvetica,sans-Serif" font-size="10.00">detail::dynamic_format</text>
<text text-anchor="middle" x="70.5" y="-162" font-family="Helvetica,sans-Serif" font-size="10.00">_specs&lt; Char &gt;</text>
</a>
</g>
</g>
<!-- Node3&#45;&gt;Node2 -->
<g id="edge2_Node000002_Node000003" class="edge">
<title>Node3&#45;&gt;Node2</title>
<g id="a_edge2_Node000002_Node000003"><a xlink:title=" ">
<path fill="none" stroke="#9a32cd" stroke-dasharray="5,2" d="M70.5,-144.94C70.5,-133.17 70.5,-119.19 70.5,-108.09"/>
<polygon fill="#9a32cd" stroke="#9a32cd" points="67,-144.98 70.5,-154.98 74,-144.98 67,-144.98"/>
</a>
</g>
<text text-anchor="middle" x="89" y="-129" font-family="Helvetica,sans-Serif" font-size="10.00" fill="grey"> specs_</text>
</g>
<!-- Node4 -->
<g id="Node000004" class="node">
<title>Node4</title>
<g id="a_Node000004"><a xlink:href="structformat__specs.html" target="_top" xlink:title=" ">
<polygon fill="white" stroke="#666666" points="112,-241 29,-241 29,-222 112,-222 112,-241"/>
<text text-anchor="middle" x="70.5" y="-229" font-family="Helvetica,sans-Serif" font-size="10.00">format_specs</text>
</a>
</g>
</g>
<!-- Node4&#45;&gt;Node3 -->
<g id="edge3_Node000003_Node000004" class="edge">
<title>Node4&#45;&gt;Node3</title>
<g id="a_edge3_Node000003_Node000004"><a xlink:title=" ">
<path fill="none" stroke="#63b8ff" d="M70.5,-211.73C70.5,-203.09 70.5,-193 70.5,-185.02"/>
<polygon fill="#63b8ff" stroke="#63b8ff" points="67,-211.98 70.5,-221.98 74,-211.98 67,-211.98"/>
</a>
</g>
</g>
<!-- Node5 -->
<g id="Node000005" class="node">
<title>Node5</title>
<g id="a_Node000005"><a xlink:href="classbasic__specs.html" target="_top" xlink:title=" ">
<polygon fill="white" stroke="#666666" points="108,-297 33,-297 33,-278 108,-278 108,-297"/>
<text text-anchor="middle" x="70.5" y="-285" font-family="Helvetica,sans-Serif" font-size="10.00">basic_specs</text>
</a>
</g>
</g>
<!-- Node5&#45;&gt;Node4 -->
<g id="edge4_Node000004_Node000005" class="edge">
<title>Node5&#45;&gt;Node4</title>
<g id="a_edge4_Node000004_Node000005"><a xlink:title=" ">
<path fill="none" stroke="#63b8ff" d="M70.5,-267.3C70.5,-258.41 70.5,-248.28 70.5,-241.25"/>
<polygon fill="#63b8ff" stroke="#63b8ff" points="67,-267.58 70.5,-277.58 74,-267.58 67,-267.58"/>
</a>
</g>
</g>
</g>
</svg>
