<?xml version="1.0" encoding="UTF-8" standalone="no"?>
<!DOCTYPE svg PUBLIC "-//W3C//DTD SVG 1.1//EN"
 "http://www.w3.org/Graphics/SVG/1.1/DTD/svg11.dtd">
<!-- Generated by graphviz version 2.43.0 (0)
 -->
<!-- Title: _DrawInfo Pages: 1 -->
<svg width="715pt" height="569pt"
 viewBox="0.00 0.00 715.00 568.50" xmlns="http://www.w3.org/2000/svg" xmlns:xlink="http://www.w3.org/1999/xlink">
<g id="graph0" class="graph" transform="scale(1 1) rotate(0) translate(4 564.5)">
<title>_DrawInfo</title>
<!-- Node1 -->
<g id="Node000001" class="node">
<title>Node1</title>
<g id="a_Node000001"><a xlink:title=" ">
<polygon fill="#999999" stroke="#666666" points="707,-419 641,-419 641,-400 707,-400 707,-419"/>
<text text-anchor="middle" x="674" y="-407" font-family="Helvetica,sans-Serif" font-size="10.00">_DrawInfo</text>
</a>
</g>
</g>
<!-- Node2 -->
<g id="Node000002" class="node">
<title>Node2</title>
<g id="a_Node000002"><a xlink:href="struct__AffineMatrix.html" target="_top" xlink:title=" ">
<polygon fill="white" stroke="#666666" points="494,-555 412,-555 412,-536 494,-536 494,-555"/>
<text text-anchor="middle" x="453" y="-543" font-family="Helvetica,sans-Serif" font-size="10.00">_AffineMatrix</text>
</a>
</g>
</g>
<!-- Node2&#45;&gt;Node1 -->
<g id="edge1_Node000001_Node000002" class="edge">
<title>Node2&#45;&gt;Node1</title>
<g id="a_edge1_Node000001_Node000002"><a xlink:title=" ">
<path fill="none" stroke="#9a32cd" stroke-dasharray="5,2" d="M504.71,-550.53C541.09,-551.45 589.4,-546.83 623,-521.5 657.18,-495.73 668.51,-441.38 671.8,-419.22"/>
<polygon fill="#9a32cd" stroke="#9a32cd" points="504.45,-547.02 494.32,-550.11 504.17,-554.01 504.45,-547.02"/>
</a>
</g>
<text text-anchor="middle" x="575" y="-552.5" font-family="Helvetica,sans-Serif" font-size="10.00" fill="grey"> affine</text>
</g>
<!-- Node3 -->
<g id="Node000003" class="node">
<title>Node3</title>
<g id="a_Node000003"><a xlink:href="struct__PixelPacket.html" target="_top" xlink:title=" ">
<polygon fill="white" stroke="#666666" points="80.5,-439 3.5,-439 3.5,-420 80.5,-420 80.5,-439"/>
<text text-anchor="middle" x="42" y="-427" font-family="Helvetica,sans-Serif" font-size="10.00">_PixelPacket</text>
</a>
</g>
</g>
<!-- Node3&#45;&gt;Node1 -->
<g id="edge2_Node000001_Node000003" class="edge">
<title>Node3&#45;&gt;Node1</title>
<g id="a_edge2_Node000001_Node000003"><a xlink:title=" ">
<path fill="none" stroke="#9a32cd" stroke-dasharray="5,2" d="M69.79,-443.7C98.92,-458.27 147.31,-479.97 192,-488.5 330.39,-514.9 371.32,-518.42 509,-488.5 568.6,-475.55 631.55,-437.22 658.92,-419.15"/>
<polygon fill="#9a32cd" stroke="#9a32cd" points="71.18,-440.48 60.68,-439.06 68.01,-446.72 71.18,-440.48"/>
</a>
</g>
<text text-anchor="middle" x="346.5" y="-545.5" font-family="Helvetica,sans-Serif" font-size="10.00" fill="grey"> border_color</text>
<text text-anchor="middle" x="346.5" y="-534.5" font-family="Helvetica,sans-Serif" font-size="10.00" fill="grey">fill</text>
<text text-anchor="middle" x="346.5" y="-523.5" font-family="Helvetica,sans-Serif" font-size="10.00" fill="grey">stroke</text>
<text text-anchor="middle" x="346.5" y="-512.5" font-family="Helvetica,sans-Serif" font-size="10.00" fill="grey">undercolor</text>
</g>
<!-- Node4 -->
<g id="Node000004" class="node">
<title>Node4</title>
<g id="a_Node000004"><a xlink:href="struct__GradientInfo.html" target="_top" xlink:title=" ">
<polygon fill="white" stroke="#666666" points="285.5,-439 202.5,-439 202.5,-420 285.5,-420 285.5,-439"/>
<text text-anchor="middle" x="244" y="-427" font-family="Helvetica,sans-Serif" font-size="10.00">_GradientInfo</text>
</a>
</g>
</g>
<!-- Node3&#45;&gt;Node4 -->
<g id="edge4_Node000004_Node000003" class="edge">
<title>Node3&#45;&gt;Node4</title>
<g id="a_edge4_Node000004_Node000003"><a xlink:title=" ">
<path fill="none" stroke="#9a32cd" stroke-dasharray="5,2" d="M90.8,-429.5C124.87,-429.5 170.16,-429.5 202.46,-429.5"/>
<polygon fill="#9a32cd" stroke="#9a32cd" points="90.62,-426 80.62,-429.5 90.62,-433 90.62,-426"/>
</a>
</g>
<text text-anchor="middle" x="138" y="-432.5" font-family="Helvetica,sans-Serif" font-size="10.00" fill="grey"> color</text>
</g>
<!-- Node6 -->
<g id="Node000006" class="node">
<title>Node6</title>
<g id="a_Node000006"><a xlink:href="struct__Image.html" target="_top" xlink:title=" ">
<polygon fill="white" stroke="#666666" points="479.5,-209 426.5,-209 426.5,-190 479.5,-190 479.5,-209"/>
<text text-anchor="middle" x="453" y="-197" font-family="Helvetica,sans-Serif" font-size="10.00">_Image</text>
</a>
</g>
</g>
<!-- Node3&#45;&gt;Node6 -->
<g id="edge8_Node000006_Node000003" class="edge">
<title>Node3&#45;&gt;Node6</title>
<g id="a_edge8_Node000006_Node000003"><a xlink:title=" ">
<path fill="none" stroke="#9a32cd" stroke-dasharray="5,2" d="M72.15,-415.54C101.77,-401.8 149.26,-380.96 192,-367.5 273.16,-341.94 310.37,-376.8 379,-326.5 420.84,-295.83 442.36,-233.39 449.37,-209.3"/>
<polygon fill="#9a32cd" stroke="#9a32cd" points="70.39,-412.5 62.82,-419.91 73.36,-418.84 70.39,-412.5"/>
</a>
</g>
<text text-anchor="middle" x="244" y="-403.5" font-family="Helvetica,sans-Serif" font-size="10.00" fill="grey"> background_color</text>
<text text-anchor="middle" x="244" y="-392.5" font-family="Helvetica,sans-Serif" font-size="10.00" fill="grey">border_color</text>
<text text-anchor="middle" x="244" y="-381.5" font-family="Helvetica,sans-Serif" font-size="10.00" fill="grey">colormap</text>
<text text-anchor="middle" x="244" y="-370.5" font-family="Helvetica,sans-Serif" font-size="10.00" fill="grey">matte_color</text>
</g>
<!-- Node4&#45;&gt;Node1 -->
<g id="edge3_Node000001_Node000004" class="edge">
<title>Node4&#45;&gt;Node1</title>
<g id="a_edge3_Node000001_Node000004"><a xlink:title=" ">
<path fill="none" stroke="#9a32cd" stroke-dasharray="5,2" d="M294.15,-417.68C323.75,-411.18 362.31,-403.78 397,-400.5 484.82,-392.2 588.98,-400.48 640.62,-405.79"/>
<polygon fill="#9a32cd" stroke="#9a32cd" points="293.07,-414.34 284.08,-419.94 294.6,-421.17 293.07,-414.34"/>
</a>
</g>
<text text-anchor="middle" x="453" y="-403.5" font-family="Helvetica,sans-Serif" font-size="10.00" fill="grey"> gradient</text>
</g>
<!-- Node4&#45;&gt;Node4 -->
<g id="edge6_Node000004_Node000004" class="edge">
<title>Node4&#45;&gt;Node4</title>
<g id="a_edge6_Node000004_Node000004"><a xlink:title=" ">
<path fill="none" stroke="#9a32cd" stroke-dasharray="5,2" d="M225.22,-448.91C226.69,-453.56 232.95,-457 244,-457 262.13,-457 267.37,-447.73 259.72,-439.08"/>
<polygon fill="#9a32cd" stroke="#9a32cd" points="228.65,-449.67 228.28,-439.08 221.96,-447.59 228.65,-449.67"/>
</a>
</g>
<text text-anchor="middle" x="244" y="-471" font-family="Helvetica,sans-Serif" font-size="10.00" fill="grey"> next</text>
<text text-anchor="middle" x="244" y="-460" font-family="Helvetica,sans-Serif" font-size="10.00" fill="grey">previous</text>
</g>
<!-- Node16 -->
<g id="Node000016" class="node">
<title>Node16</title>
<g id="a_Node000016"><a xlink:href="struct__ElementReference.html" target="_top" xlink:title=" ">
<polygon fill="white" stroke="#666666" points="509,-439 397,-439 397,-420 509,-420 509,-439"/>
<text text-anchor="middle" x="453" y="-427" font-family="Helvetica,sans-Serif" font-size="10.00">_ElementReference</text>
</a>
</g>
</g>
<!-- Node4&#45;&gt;Node16 -->
<g id="edge22_Node000016_Node000004" class="edge">
<title>Node4&#45;&gt;Node16</title>
<g id="a_edge22_Node000016_Node000004"><a xlink:title=" ">
<path fill="none" stroke="#9a32cd" stroke-dasharray="5,2" d="M295.92,-429.5C326.48,-429.5 365.37,-429.5 396.69,-429.5"/>
<polygon fill="#9a32cd" stroke="#9a32cd" points="295.9,-426 285.9,-429.5 295.9,-433 295.9,-426"/>
</a>
</g>
<text text-anchor="middle" x="346.5" y="-432.5" font-family="Helvetica,sans-Serif" font-size="10.00" fill="grey"> gradient</text>
</g>
<!-- Node5 -->
<g id="Node000005" class="node">
<title>Node5</title>
<g id="a_Node000005"><a xlink:href="struct__SegmentInfo.html" target="_top" xlink:title=" ">
<polygon fill="white" stroke="#666666" points="84,-338 0,-338 0,-319 84,-319 84,-338"/>
<text text-anchor="middle" x="42" y="-326" font-family="Helvetica,sans-Serif" font-size="10.00">_SegmentInfo</text>
</a>
</g>
</g>
<!-- Node5&#45;&gt;Node1 -->
<g id="edge20_Node000001_Node000005" class="edge">
<title>Node5&#45;&gt;Node1</title>
<g id="a_edge20_Node000001_Node000005"><a xlink:title=" ">
<path fill="none" stroke="#9a32cd" stroke-dasharray="5,2" d="M94.3,-330.56C196.19,-335.46 430.79,-350.78 623,-393.5 630.65,-395.2 638.8,-397.56 646.26,-399.95"/>
<polygon fill="#9a32cd" stroke="#9a32cd" points="94.43,-327.06 84.28,-330.09 94.11,-334.06 94.43,-327.06"/>
</a>
</g>
<text text-anchor="middle" x="346.5" y="-355.5" font-family="Helvetica,sans-Serif" font-size="10.00" fill="grey"> bounds</text>
</g>
<!-- Node5&#45;&gt;Node4 -->
<g id="edge5_Node000004_Node000005" class="edge">
<title>Node5&#45;&gt;Node4</title>
<g id="a_edge5_Node000004_Node000005"><a xlink:title=" ">
<path fill="none" stroke="#9a32cd" stroke-dasharray="5,2" d="M70.18,-342.93C99.94,-358.64 149.12,-384.34 192,-405.5 201.83,-410.35 212.82,-415.55 222.07,-419.87"/>
<polygon fill="#9a32cd" stroke="#9a32cd" points="71.72,-339.78 61.24,-338.2 68.44,-345.97 71.72,-339.78"/>
</a>
</g>
<text text-anchor="middle" x="138" y="-397.5" font-family="Helvetica,sans-Serif" font-size="10.00" fill="grey"> stop</text>
</g>
<!-- Node6&#45;&gt;Node1 -->
<g id="edge7_Node000001_Node000006" class="edge">
<title>Node6&#45;&gt;Node1</title>
<g id="a_edge7_Node000001_Node000006"><a xlink:title=" ">
<path fill="none" stroke="#9a32cd" stroke-dasharray="5,2" d="M489.87,-204.27C527.85,-211.15 587.17,-227.39 623,-264.5 661.29,-304.15 670.35,-374.48 672.41,-399.96"/>
<polygon fill="#9a32cd" stroke="#9a32cd" points="490.2,-200.78 479.76,-202.57 489.04,-207.68 490.2,-200.78"/>
</a>
</g>
<text text-anchor="middle" x="575" y="-289.5" font-family="Helvetica,sans-Serif" font-size="10.00" fill="grey"> fill_pattern</text>
<text text-anchor="middle" x="575" y="-278.5" font-family="Helvetica,sans-Serif" font-size="10.00" fill="grey">stroke_pattern</text>
<text text-anchor="middle" x="575" y="-267.5" font-family="Helvetica,sans-Serif" font-size="10.00" fill="grey">tile</text>
</g>
<!-- Node6&#45;&gt;Node6 -->
<g id="edge16_Node000006_Node000006" class="edge">
<title>Node6&#45;&gt;Node6</title>
<g id="a_edge16_Node000006_Node000006"><a xlink:title=" ">
<path fill="none" stroke="#9a32cd" stroke-dasharray="5,2" d="M433.37,-218.55C434.68,-223.38 441.23,-227 453,-227 471.84,-227 477.29,-217.73 469.34,-209.08"/>
<polygon fill="#9a32cd" stroke="#9a32cd" points="436.69,-219.68 436.66,-209.08 430.07,-217.38 436.69,-219.68"/>
</a>
</g>
<text text-anchor="middle" x="453" y="-252" font-family="Helvetica,sans-Serif" font-size="10.00" fill="grey"> list</text>
<text text-anchor="middle" x="453" y="-241" font-family="Helvetica,sans-Serif" font-size="10.00" fill="grey">next</text>
<text text-anchor="middle" x="453" y="-230" font-family="Helvetica,sans-Serif" font-size="10.00" fill="grey">previous</text>
</g>
<!-- Node7 -->
<g id="Node000007" class="node">
<title>Node7</title>
<g id="a_Node000007"><a xlink:href="struct__ChromaticityInfo.html" target="_top" xlink:title=" ">
<polygon fill="white" stroke="#666666" points="296,-58 192,-58 192,-39 296,-39 296,-58"/>
<text text-anchor="middle" x="244" y="-46" font-family="Helvetica,sans-Serif" font-size="10.00">_ChromaticityInfo</text>
</a>
</g>
</g>
<!-- Node7&#45;&gt;Node6 -->
<g id="edge9_Node000006_Node000007" class="edge">
<title>Node7&#45;&gt;Node6</title>
<g id="a_edge9_Node000006_Node000007"><a xlink:title=" ">
<path fill="none" stroke="#9a32cd" stroke-dasharray="5,2" d="M306.07,-58.47C330.5,-64.69 357.81,-74.65 379,-90.5 415.29,-117.65 439.27,-168.45 448.15,-189.73"/>
<polygon fill="#9a32cd" stroke="#9a32cd" points="306.69,-55.03 296.15,-56.11 305.07,-61.84 306.69,-55.03"/>
</a>
</g>
<text text-anchor="middle" x="346.5" y="-93.5" font-family="Helvetica,sans-Serif" font-size="10.00" fill="grey"> chromaticity</text>
</g>
<!-- Node8 -->
<g id="Node000008" class="node">
<title>Node8</title>
<g id="a_Node000008"><a xlink:href="struct__PrimaryInfo.html" target="_top" xlink:title=" ">
<polygon fill="white" stroke="#666666" points="81.5,-58 2.5,-58 2.5,-39 81.5,-39 81.5,-58"/>
<text text-anchor="middle" x="42" y="-46" font-family="Helvetica,sans-Serif" font-size="10.00">_PrimaryInfo</text>
</a>
</g>
</g>
<!-- Node8&#45;&gt;Node7 -->
<g id="edge10_Node000007_Node000008" class="edge">
<title>Node8&#45;&gt;Node7</title>
<g id="a_edge10_Node000007_Node000008"><a xlink:title=" ">
<path fill="none" stroke="#9a32cd" stroke-dasharray="5,2" d="M91.89,-48.5C122.16,-48.5 160.98,-48.5 191.69,-48.5"/>
<polygon fill="#9a32cd" stroke="#9a32cd" points="91.56,-45 81.56,-48.5 91.56,-52 91.56,-45"/>
</a>
</g>
<text text-anchor="middle" x="138" y="-84.5" font-family="Helvetica,sans-Serif" font-size="10.00" fill="grey"> blue_primary</text>
<text text-anchor="middle" x="138" y="-73.5" font-family="Helvetica,sans-Serif" font-size="10.00" fill="grey">green_primary</text>
<text text-anchor="middle" x="138" y="-62.5" font-family="Helvetica,sans-Serif" font-size="10.00" fill="grey">red_primary</text>
<text text-anchor="middle" x="138" y="-51.5" font-family="Helvetica,sans-Serif" font-size="10.00" fill="grey">white_point</text>
</g>
<!-- Node9 -->
<g id="Node000009" class="node">
<title>Node9</title>
<g id="a_Node000009"><a xlink:href="struct__RectangleInfo.html" target="_top" xlink:title=" ">
<polygon fill="white" stroke="#666666" points="288.5,-19 199.5,-19 199.5,0 288.5,0 288.5,-19"/>
<text text-anchor="middle" x="244" y="-7" font-family="Helvetica,sans-Serif" font-size="10.00">_RectangleInfo</text>
</a>
</g>
</g>
<!-- Node9&#45;&gt;Node6 -->
<g id="edge11_Node000006_Node000009" class="edge">
<title>Node9&#45;&gt;Node6</title>
<g id="a_edge11_Node000006_Node000009"><a xlink:title=" ">
<path fill="none" stroke="#9a32cd" stroke-dasharray="5,2" d="M299.09,-8.7C325.65,-10.92 356.65,-17.73 379,-35.5 430.47,-76.43 446.69,-161.3 450.8,-189.87"/>
<polygon fill="#9a32cd" stroke="#9a32cd" points="298.99,-5.19 288.79,-8.05 298.54,-12.17 298.99,-5.19"/>
</a>
</g>
<text text-anchor="middle" x="346.5" y="-49.5" font-family="Helvetica,sans-Serif" font-size="10.00" fill="grey"> page</text>
<text text-anchor="middle" x="346.5" y="-38.5" font-family="Helvetica,sans-Serif" font-size="10.00" fill="grey">tile_info</text>
</g>
<!-- Node10 -->
<g id="Node000010" class="node">
<title>Node10</title>
<g id="a_Node000010"><a xlink:href="struct__ErrorInfo.html" target="_top" xlink:title=" ">
<polygon fill="white" stroke="#666666" points="276,-283 212,-283 212,-264 276,-264 276,-283"/>
<text text-anchor="middle" x="244" y="-271" font-family="Helvetica,sans-Serif" font-size="10.00">_ErrorInfo</text>
</a>
</g>
</g>
<!-- Node10&#45;&gt;Node6 -->
<g id="edge12_Node000006_Node000010" class="edge">
<title>Node10&#45;&gt;Node6</title>
<g id="a_edge12_Node000006_Node000010"><a xlink:title=" ">
<path fill="none" stroke="#9a32cd" stroke-dasharray="5,2" d="M286.12,-265.39C313.04,-259.45 348.72,-250.35 379,-238.5 399.74,-230.38 422.13,-217.8 436.56,-209.13"/>
<polygon fill="#9a32cd" stroke="#9a32cd" points="285.29,-261.99 276.25,-267.52 286.77,-268.83 285.29,-261.99"/>
</a>
</g>
<text text-anchor="middle" x="346.5" y="-261.5" font-family="Helvetica,sans-Serif" font-size="10.00" fill="grey"> error</text>
</g>
<!-- Node11 -->
<g id="Node000011" class="node">
<title>Node11</title>
<g id="a_Node000011"><a xlink:href="struct__TimerInfo.html" target="_top" xlink:title=" ">
<polygon fill="white" stroke="#666666" points="278.5,-246 209.5,-246 209.5,-227 278.5,-227 278.5,-246"/>
<text text-anchor="middle" x="244" y="-234" font-family="Helvetica,sans-Serif" font-size="10.00">_TimerInfo</text>
</a>
</g>
</g>
<!-- Node11&#45;&gt;Node6 -->
<g id="edge13_Node000006_Node000011" class="edge">
<title>Node11&#45;&gt;Node6</title>
<g id="a_edge13_Node000006_Node000011"><a xlink:title=" ">
<path fill="none" stroke="#9a32cd" stroke-dasharray="5,2" d="M288.63,-229.23C314.84,-224.81 348.86,-218.98 379,-213.5 394.74,-210.64 412.36,-207.27 426.35,-204.55"/>
<polygon fill="#9a32cd" stroke="#9a32cd" points="287.91,-225.8 278.62,-230.92 289.07,-232.71 287.91,-225.8"/>
</a>
</g>
<text text-anchor="middle" x="346.5" y="-226.5" font-family="Helvetica,sans-Serif" font-size="10.00" fill="grey"> timer</text>
</g>
<!-- Node12 -->
<g id="Node000012" class="node">
<title>Node12</title>
<g id="a_Node000012"><a xlink:href="struct__Timer.html" target="_top" xlink:title=" ">
<polygon fill="white" stroke="#666666" points="67,-246 17,-246 17,-227 67,-227 67,-246"/>
<text text-anchor="middle" x="42" y="-234" font-family="Helvetica,sans-Serif" font-size="10.00">_Timer</text>
</a>
</g>
</g>
<!-- Node12&#45;&gt;Node11 -->
<g id="edge14_Node000011_Node000012" class="edge">
<title>Node12&#45;&gt;Node11</title>
<g id="a_edge14_Node000011_Node000012"><a xlink:title=" ">
<path fill="none" stroke="#9a32cd" stroke-dasharray="5,2" d="M77.41,-236.5C114.4,-236.5 172.81,-236.5 209.46,-236.5"/>
<polygon fill="#9a32cd" stroke="#9a32cd" points="77.12,-233 67.12,-236.5 77.12,-240 77.12,-233"/>
</a>
</g>
<text text-anchor="middle" x="138" y="-250.5" font-family="Helvetica,sans-Serif" font-size="10.00" fill="grey"> elapsed</text>
<text text-anchor="middle" x="138" y="-239.5" font-family="Helvetica,sans-Serif" font-size="10.00" fill="grey">user</text>
</g>
<!-- Node13 -->
<g id="Node000013" class="node">
<title>Node13</title>
<g id="a_Node000013"><a xlink:href="struct__ExceptionInfo.html" target="_top" xlink:title=" ">
<polygon fill="white" stroke="#666666" points="288.5,-209 199.5,-209 199.5,-190 288.5,-190 288.5,-209"/>
<text text-anchor="middle" x="244" y="-197" font-family="Helvetica,sans-Serif" font-size="10.00">_ExceptionInfo</text>
</a>
</g>
</g>
<!-- Node13&#45;&gt;Node6 -->
<g id="edge15_Node000006_Node000013" class="edge">
<title>Node13&#45;&gt;Node6</title>
<g id="a_edge15_Node000006_Node000013"><a xlink:title=" ">
<path fill="none" stroke="#9a32cd" stroke-dasharray="5,2" d="M298.77,-199.5C339.85,-199.5 394.64,-199.5 426.35,-199.5"/>
<polygon fill="#9a32cd" stroke="#9a32cd" points="298.65,-196 288.65,-199.5 298.65,-203 298.65,-196"/>
</a>
</g>
<text text-anchor="middle" x="346.5" y="-202.5" font-family="Helvetica,sans-Serif" font-size="10.00" fill="grey"> exception</text>
</g>
<!-- Node14 -->
<g id="Node000014" class="node">
<title>Node14</title>
<g id="a_Node000014"><a xlink:href="struct__ImageAttribute.html" target="_top" xlink:title=" ">
<polygon fill="white" stroke="#666666" points="291.5,-132 196.5,-132 196.5,-113 291.5,-113 291.5,-132"/>
<text text-anchor="middle" x="244" y="-120" font-family="Helvetica,sans-Serif" font-size="10.00">_ImageAttribute</text>
</a>
</g>
</g>
<!-- Node14&#45;&gt;Node6 -->
<g id="edge17_Node000006_Node000014" class="edge">
<title>Node14&#45;&gt;Node6</title>
<g id="a_edge17_Node000006_Node000014"><a xlink:title=" ">
<path fill="none" stroke="#9a32cd" stroke-dasharray="5,2" d="M280.22,-135.6C321.63,-151.01 389.38,-176.21 426.2,-189.9"/>
<polygon fill="#9a32cd" stroke="#9a32cd" points="281.39,-132.3 270.8,-132.1 278.95,-138.86 281.39,-132.3"/>
</a>
</g>
<text text-anchor="middle" x="346.5" y="-172.5" font-family="Helvetica,sans-Serif" font-size="10.00" fill="grey"> attributes</text>
</g>
<!-- Node14&#45;&gt;Node14 -->
<g id="edge18_Node000014_Node000014" class="edge">
<title>Node14&#45;&gt;Node14</title>
<g id="a_edge18_Node000014_Node000014"><a xlink:title=" ">
<path fill="none" stroke="#9a32cd" stroke-dasharray="5,2" d="M225.22,-141.91C226.69,-146.56 232.95,-150 244,-150 262.13,-150 267.37,-140.73 259.72,-132.08"/>
<polygon fill="#9a32cd" stroke="#9a32cd" points="228.65,-142.67 228.28,-132.08 221.96,-140.59 228.65,-142.67"/>
</a>
</g>
<text text-anchor="middle" x="244" y="-164" font-family="Helvetica,sans-Serif" font-size="10.00" fill="grey"> next</text>
<text text-anchor="middle" x="244" y="-153" font-family="Helvetica,sans-Serif" font-size="10.00" fill="grey">previous</text>
</g>
<!-- Node15 -->
<g id="Node000015" class="node">
<title>Node15</title>
<g id="a_Node000015"><a xlink:href="struct__Ascii85Info.html" target="_top" xlink:title=" ">
<polygon fill="white" stroke="#666666" points="282,-95 206,-95 206,-76 282,-76 282,-95"/>
<text text-anchor="middle" x="244" y="-83" font-family="Helvetica,sans-Serif" font-size="10.00">_Ascii85Info</text>
</a>
</g>
</g>
<!-- Node15&#45;&gt;Node6 -->
<g id="edge19_Node000006_Node000015" class="edge">
<title>Node15&#45;&gt;Node6</title>
<g id="a_edge19_Node000006_Node000015"><a xlink:title=" ">
<path fill="none" stroke="#9a32cd" stroke-dasharray="5,2" d="M292.07,-97.94C318.68,-106.12 351.95,-118.32 379,-134.5 405.21,-150.18 430.65,-175.94 443.45,-189.86"/>
<polygon fill="#9a32cd" stroke="#9a32cd" points="292.8,-94.51 282.22,-95 290.8,-101.21 292.8,-94.51"/>
</a>
</g>
<text text-anchor="middle" x="346.5" y="-137.5" font-family="Helvetica,sans-Serif" font-size="10.00" fill="grey"> ascii85</text>
</g>
<!-- Node16&#45;&gt;Node1 -->
<g id="edge21_Node000001_Node000016" class="edge">
<title>Node16&#45;&gt;Node1</title>
<g id="a_edge21_Node000001_Node000016"><a xlink:title=" ">
<path fill="none" stroke="#9a32cd" stroke-dasharray="5,2" d="M519.24,-423.54C559.37,-419.88 609.03,-415.34 640.86,-412.43"/>
<polygon fill="#9a32cd" stroke="#9a32cd" points="518.9,-420.06 509.26,-424.45 519.54,-427.03 518.9,-420.06"/>
</a>
</g>
<text text-anchor="middle" x="575" y="-424.5" font-family="Helvetica,sans-Serif" font-size="10.00" fill="grey"> element_reference</text>
</g>
<!-- Node16&#45;&gt;Node16 -->
<g id="edge23_Node000016_Node000016" class="edge">
<title>Node16&#45;&gt;Node16</title>
<g id="a_edge23_Node000016_Node000016"><a xlink:title=" ">
<path fill="none" stroke="#9a32cd" stroke-dasharray="5,2" d="M433.37,-448.55C434.68,-453.38 441.23,-457 453,-457 471.84,-457 477.29,-447.73 469.34,-439.08"/>
<polygon fill="#9a32cd" stroke="#9a32cd" points="436.69,-449.68 436.66,-439.08 430.07,-447.38 436.69,-449.68"/>
</a>
</g>
<text text-anchor="middle" x="453" y="-471" font-family="Helvetica,sans-Serif" font-size="10.00" fill="grey"> next</text>
<text text-anchor="middle" x="453" y="-460" font-family="Helvetica,sans-Serif" font-size="10.00" fill="grey">previous</text>
</g>
</g>
</svg>
