<?xml version="1.0" encoding="UTF-8" standalone="no"?>
<!DOCTYPE svg PUBLIC "-//W3C//DTD SVG 1.1//EN"
 "http://www.w3.org/Graphics/SVG/1.1/DTD/svg11.dtd">
<!-- Generated by graphviz version 2.43.0 (0)
 -->
<!-- Title: detail::view Pages: 1 -->
<svg width="251pt" height="172pt"
 viewBox="0.00 0.00 251.00 172.00" xmlns="http://www.w3.org/2000/svg" xmlns:xlink="http://www.w3.org/1999/xlink">
<g id="graph0" class="graph" transform="scale(1 1) rotate(0) translate(4 168)">
<title>detail::view</title>
<!-- Node1 -->
<g id="Node000001" class="node">
<title>Node1</title>
<g id="a_Node000001"><a xlink:title=" ">
<polygon fill="#999999" stroke="#666666" points="74,-93.5 0,-93.5 0,-74.5 74,-74.5 74,-93.5"/>
<text text-anchor="middle" x="37" y="-81.5" font-family="Helvetica,sans-Serif" font-size="10.00">detail::view</text>
</a>
</g>
</g>
<!-- Node2 -->
<g id="Node000002" class="node">
<title>Node2</title>
<g id="a_Node000002"><a xlink:href="structdetail_1_1named__arg.html" target="_top" xlink:title=" ">
<polygon fill="white" stroke="#666666" points="233,-164 120,-164 120,-134 233,-134 233,-164"/>
<text text-anchor="start" x="128" y="-152" font-family="Helvetica,sans-Serif" font-size="10.00">detail::named_arg&lt;</text>
<text text-anchor="middle" x="176.5" y="-141" font-family="Helvetica,sans-Serif" font-size="10.00"> T, Char &gt;</text>
</a>
</g>
</g>
<!-- Node1&#45;&gt;Node2 -->
<g id="edge1_Node000001_Node000002" class="edge">
<title>Node1&#45;&gt;Node2</title>
<g id="a_edge1_Node000001_Node000002"><a xlink:title=" ">
<path fill="none" stroke="#63b8ff" d="M61.88,-98.93C75.65,-107.2 93.46,-117.33 110,-125 116.81,-128.16 124.17,-131.2 131.4,-133.99"/>
<polygon fill="#63b8ff" stroke="#63b8ff" points="63.42,-95.77 53.06,-93.56 59.78,-101.75 63.42,-95.77"/>
</a>
</g>
</g>
<!-- Node3 -->
<g id="Node000003" class="node">
<title>Node3</title>
<g id="a_Node000003"><a xlink:href="structdetail_1_1styled__arg.html" target="_top" xlink:title=" ">
<polygon fill="white" stroke="#666666" points="241.5,-115.5 111.5,-115.5 111.5,-96.5 241.5,-96.5 241.5,-115.5"/>
<text text-anchor="middle" x="176.5" y="-103.5" font-family="Helvetica,sans-Serif" font-size="10.00">detail::styled_arg&lt; T &gt;</text>
</a>
</g>
</g>
<!-- Node1&#45;&gt;Node3 -->
<g id="edge2_Node000001_Node000003" class="edge">
<title>Node1&#45;&gt;Node3</title>
<g id="a_edge2_Node000001_Node000003"><a xlink:title=" ">
<path fill="none" stroke="#63b8ff" d="M84.06,-91.37C94.29,-93.01 105.28,-94.76 115.96,-96.47"/>
<polygon fill="#63b8ff" stroke="#63b8ff" points="84.55,-87.9 74.13,-89.78 83.45,-94.82 84.55,-87.9"/>
</a>
</g>
</g>
<!-- Node4 -->
<g id="Node000004" class="node">
<title>Node4</title>
<g id="a_Node000004"><a xlink:href="structjoin__view.html" target="_top" xlink:title=" ">
<polygon fill="white" stroke="#666666" points="241.5,-78 111.5,-78 111.5,-48 241.5,-48 241.5,-78"/>
<text text-anchor="start" x="119.5" y="-66" font-family="Helvetica,sans-Serif" font-size="10.00">join_view&lt; It, Sentinel,</text>
<text text-anchor="middle" x="176.5" y="-55" font-family="Helvetica,sans-Serif" font-size="10.00"> Char &gt;</text>
</a>
</g>
</g>
<!-- Node1&#45;&gt;Node4 -->
<g id="edge3_Node000001_Node000004" class="edge">
<title>Node1&#45;&gt;Node4</title>
<g id="a_edge3_Node000001_Node000004"><a xlink:title=" ">
<path fill="none" stroke="#63b8ff" d="M84.13,-76.96C92.9,-75.62 102.22,-74.19 111.43,-72.79"/>
<polygon fill="#63b8ff" stroke="#63b8ff" points="83.48,-73.51 74.13,-78.48 84.54,-80.43 83.48,-73.51"/>
</a>
</g>
</g>
<!-- Node5 -->
<g id="Node000005" class="node">
<title>Node5</title>
<g id="a_Node000005"><a xlink:href="structtuple__join__view.html" target="_top" xlink:title=" ">
<polygon fill="white" stroke="#666666" points="243,-30 110,-30 110,0 243,0 243,-30"/>
<text text-anchor="start" x="118" y="-18" font-family="Helvetica,sans-Serif" font-size="10.00">tuple_join_view&lt; Tuple,</text>
<text text-anchor="middle" x="176.5" y="-7" font-family="Helvetica,sans-Serif" font-size="10.00"> Char &gt;</text>
</a>
</g>
</g>
<!-- Node1&#45;&gt;Node5 -->
<g id="edge4_Node000001_Node000005" class="edge">
<title>Node1&#45;&gt;Node5</title>
<g id="a_edge4_Node000001_Node000005"><a xlink:title=" ">
<path fill="none" stroke="#63b8ff" d="M59.73,-68.76C73.67,-59.4 92.4,-47.61 110,-39 116.53,-35.81 123.59,-32.79 130.59,-30.05"/>
<polygon fill="#63b8ff" stroke="#63b8ff" points="57.61,-65.97 51.32,-74.5 61.55,-71.75 57.61,-65.97"/>
</a>
</g>
</g>
</g>
</svg>
