<?xml version="1.0" encoding="UTF-8" standalone="no"?>
<!DOCTYPE svg PUBLIC "-//W3C//DTD SVG 1.1//EN"
 "http://www.w3.org/Graphics/SVG/1.1/DTD/svg11.dtd">
<!-- Generated by graphviz version 2.43.0 (0)
 -->
<!-- Title: detail::duration_formatter::on_24_hour_time Pages: 1 -->
<svg width="655pt" height="225pt"
 viewBox="0.00 0.00 655.00 225.00" xmlns="http://www.w3.org/2000/svg" xmlns:xlink="http://www.w3.org/1999/xlink">
<g id="graph0" class="graph" transform="scale(1 1) rotate(0) translate(4 221)">
<title>detail::duration_formatter::on_24_hour_time</title>
<!-- Node1 -->
<g id="Node000001" class="node">
<title>Node1</title>
<g id="a_Node000001"><a xlink:title=" ">
<polygon fill="#999999" stroke="#666666" points="143,-145 0,-145 0,-115 143,-115 143,-145"/>
<text text-anchor="start" x="8" y="-133" font-family="Helvetica,sans-Serif" font-size="10.00">detail::duration_formatter</text>
<text text-anchor="middle" x="71.5" y="-122" font-family="Helvetica,sans-Serif" font-size="10.00">::on_24_hour_time</text>
</a>
</g>
</g>
<!-- Node2 -->
<g id="Node000002" class="node">
<title>Node2</title>
<g id="a_Node000002"><a xlink:href="structdetail_1_1duration__formatter.html#ad8e5cd79d50c37c7977ea4ce10713c65" target="_top" xlink:title=" ">
<polygon fill="white" stroke="#666666" points="322,-217 179,-217 179,-187 322,-187 322,-217"/>
<text text-anchor="start" x="187" y="-205" font-family="Helvetica,sans-Serif" font-size="10.00">detail::duration_formatter</text>
<text text-anchor="middle" x="250.5" y="-194" font-family="Helvetica,sans-Serif" font-size="10.00">::handle_nan_inf</text>
</a>
</g>
</g>
<!-- Node1&#45;&gt;Node2 -->
<g id="edge1_Node000001_Node000002" class="edge">
<title>Node1&#45;&gt;Node2</title>
<g id="a_edge1_Node000001_Node000002"><a xlink:title=" ">
<path fill="none" stroke="#63b8ff" d="M103.85,-145.08C124.89,-154.96 153.34,-167.88 179,-178 183.69,-179.85 188.59,-181.69 193.52,-183.49"/>
<polygon fill="#63b8ff" stroke="#63b8ff" points="192.41,-186.81 203,-186.87 194.76,-180.22 192.41,-186.81"/>
</a>
</g>
</g>
<!-- Node4 -->
<g id="Node000004" class="node">
<title>Node4</title>
<g id="a_Node000004"><a xlink:href="structdetail_1_1duration__formatter.html#aa5938aa9edf655999748a82e9fd3b5cd" target="_top" xlink:title=" ">
<polygon fill="white" stroke="#666666" points="322,-169 179,-169 179,-139 322,-139 322,-169"/>
<text text-anchor="start" x="187" y="-157" font-family="Helvetica,sans-Serif" font-size="10.00">detail::duration_formatter</text>
<text text-anchor="middle" x="250.5" y="-146" font-family="Helvetica,sans-Serif" font-size="10.00">::hour</text>
</a>
</g>
</g>
<!-- Node1&#45;&gt;Node4 -->
<g id="edge3_Node000001_Node000004" class="edge">
<title>Node1&#45;&gt;Node4</title>
<g id="a_edge3_Node000001_Node000004"><a xlink:title=" ">
<path fill="none" stroke="#63b8ff" d="M143.22,-139.59C151.66,-140.73 160.33,-141.91 168.9,-143.07"/>
<polygon fill="#63b8ff" stroke="#63b8ff" points="168.51,-146.55 178.89,-144.43 169.46,-139.61 168.51,-146.55"/>
</a>
</g>
</g>
<!-- Node5 -->
<g id="Node000005" class="node">
<title>Node5</title>
<g id="a_Node000005"><a xlink:href="structdetail_1_1duration__formatter.html#a47cb61c80b0e66944475289798447acf" target="_top" xlink:title=" ">
<polygon fill="white" stroke="#666666" points="322,-121 179,-121 179,-91 322,-91 322,-121"/>
<text text-anchor="start" x="187" y="-109" font-family="Helvetica,sans-Serif" font-size="10.00">detail::duration_formatter</text>
<text text-anchor="middle" x="250.5" y="-98" font-family="Helvetica,sans-Serif" font-size="10.00">::minute</text>
</a>
</g>
</g>
<!-- Node1&#45;&gt;Node5 -->
<g id="edge4_Node000001_Node000005" class="edge">
<title>Node1&#45;&gt;Node5</title>
<g id="a_edge4_Node000001_Node000005"><a xlink:title=" ">
<path fill="none" stroke="#63b8ff" d="M143.22,-120.41C151.66,-119.27 160.33,-118.09 168.9,-116.93"/>
<polygon fill="#63b8ff" stroke="#63b8ff" points="169.46,-120.39 178.89,-115.57 168.51,-113.45 169.46,-120.39"/>
</a>
</g>
</g>
<!-- Node6 -->
<g id="Node000006" class="node">
<title>Node6</title>
<g id="a_Node000006"><a xlink:href="structdetail_1_1duration__formatter.html#a05833dd5c29a4b5991f31b3907f7c793" target="_top" xlink:title=" ">
<polygon fill="white" stroke="#666666" points="322,-73 179,-73 179,-43 322,-43 322,-73"/>
<text text-anchor="start" x="187" y="-61" font-family="Helvetica,sans-Serif" font-size="10.00">detail::duration_formatter</text>
<text text-anchor="middle" x="250.5" y="-50" font-family="Helvetica,sans-Serif" font-size="10.00">::write</text>
</a>
</g>
</g>
<!-- Node1&#45;&gt;Node6 -->
<g id="edge5_Node000001_Node000006" class="edge">
<title>Node1&#45;&gt;Node6</title>
<g id="a_edge5_Node000001_Node000006"><a xlink:title=" ">
<path fill="none" stroke="#63b8ff" d="M103.85,-114.92C124.89,-105.04 153.34,-92.12 179,-82 183.69,-80.15 188.59,-78.31 193.52,-76.51"/>
<polygon fill="#63b8ff" stroke="#63b8ff" points="194.76,-79.78 203,-73.13 192.41,-73.19 194.76,-79.78"/>
</a>
</g>
</g>
<!-- Node3 -->
<g id="Node000003" class="node">
<title>Node3</title>
<g id="a_Node000003"><a xlink:href="structdetail_1_1duration__formatter.html#a0b52d0c33d00406ad4f227d8d9ac7245" target="_top" xlink:title=" ">
<polygon fill="white" stroke="#666666" points="501,-185 358,-185 358,-155 501,-155 501,-185"/>
<text text-anchor="start" x="366" y="-173" font-family="Helvetica,sans-Serif" font-size="10.00">detail::duration_formatter</text>
<text text-anchor="middle" x="429.5" y="-162" font-family="Helvetica,sans-Serif" font-size="10.00">::write_nan</text>
</a>
</g>
</g>
<!-- Node2&#45;&gt;Node3 -->
<g id="edge2_Node000002_Node000003" class="edge">
<title>Node2&#45;&gt;Node3</title>
<g id="a_edge2_Node000002_Node000003"><a xlink:title=" ">
<path fill="none" stroke="#63b8ff" d="M322.22,-189.21C330.66,-187.69 339.33,-186.12 347.9,-184.57"/>
<polygon fill="#63b8ff" stroke="#63b8ff" points="348.68,-187.99 357.89,-182.76 347.43,-181.1 348.68,-187.99"/>
</a>
</g>
</g>
<!-- Node6&#45;&gt;Node3 -->
<g id="edge10_Node000006_Node000003" class="edge">
<title>Node6&#45;&gt;Node3</title>
<g id="a_edge10_Node000006_Node000003"><a xlink:title=" ">
<path fill="none" stroke="#63b8ff" d="M303.34,-73.07C309.79,-75.69 316.16,-78.66 322,-82 340.33,-92.48 341.79,-99.47 358,-113 372.31,-124.94 388.47,-138.03 401.7,-148.65"/>
<polygon fill="#63b8ff" stroke="#63b8ff" points="399.53,-151.4 409.52,-154.92 403.9,-145.93 399.53,-151.4"/>
</a>
</g>
</g>
<!-- Node7 -->
<g id="Node000007" class="node">
<title>Node7</title>
<g id="a_Node000007"><a xlink:href="namespacedetail.html#ac83427f5f16569571f442ec01887e045" target="_top" xlink:title=" ">
<polygon fill="white" stroke="#666666" points="484.5,-104.5 374.5,-104.5 374.5,-85.5 484.5,-85.5 484.5,-104.5"/>
<text text-anchor="middle" x="429.5" y="-92.5" font-family="Helvetica,sans-Serif" font-size="10.00">detail::count_digits</text>
</a>
</g>
</g>
<!-- Node6&#45;&gt;Node7 -->
<g id="edge6_Node000006_Node000007" class="edge">
<title>Node6&#45;&gt;Node7</title>
<g id="a_edge6_Node000006_Node000007"><a xlink:title=" ">
<path fill="none" stroke="#63b8ff" d="M322.22,-72.78C338.96,-76.28 356.6,-79.97 372.58,-83.31"/>
<polygon fill="#63b8ff" stroke="#63b8ff" points="372.31,-86.83 382.82,-85.45 373.75,-79.98 372.31,-86.83"/>
</a>
</g>
</g>
<!-- Node10 -->
<g id="Node000010" class="node">
<title>Node10</title>
<g id="a_Node000010"><a xlink:href="namespacedetail.html#a45c2130c44ebe54179eafcee3cda2bfb" target="_top" xlink:title=" ">
<polygon fill="white" stroke="#666666" points="481.5,-67.5 377.5,-67.5 377.5,-48.5 481.5,-48.5 481.5,-67.5"/>
<text text-anchor="middle" x="429.5" y="-55.5" font-family="Helvetica,sans-Serif" font-size="10.00">detail::max_value</text>
</a>
</g>
</g>
<!-- Node6&#45;&gt;Node10 -->
<g id="edge9_Node000006_Node000010" class="edge">
<title>Node6&#45;&gt;Node10</title>
<g id="a_edge9_Node000006_Node000010"><a xlink:title=" ">
<path fill="none" stroke="#63b8ff" d="M322.22,-58C337.02,-58 352.51,-58 366.94,-58"/>
<polygon fill="#63b8ff" stroke="#63b8ff" points="367.24,-61.5 377.24,-58 367.24,-54.5 367.24,-61.5"/>
</a>
</g>
</g>
<!-- Node11 -->
<g id="Node000011" class="node">
<title>Node11</title>
<g id="a_Node000011"><a xlink:href="structdetail_1_1duration__formatter.html#ab4149b3b22fec57ef71cb791850681f9" target="_top" xlink:title=" ">
<polygon fill="white" stroke="#666666" points="501,-30 358,-30 358,0 501,0 501,-30"/>
<text text-anchor="start" x="366" y="-18" font-family="Helvetica,sans-Serif" font-size="10.00">detail::duration_formatter</text>
<text text-anchor="middle" x="429.5" y="-7" font-family="Helvetica,sans-Serif" font-size="10.00">::write_sign</text>
</a>
</g>
</g>
<!-- Node6&#45;&gt;Node11 -->
<g id="edge11_Node000006_Node000011" class="edge">
<title>Node6&#45;&gt;Node11</title>
<g id="a_edge11_Node000006_Node000011"><a xlink:title=" ">
<path fill="none" stroke="#63b8ff" d="M313.41,-42.96C327.42,-39.56 342.41,-35.91 356.79,-32.42"/>
<polygon fill="#63b8ff" stroke="#63b8ff" points="357.74,-35.79 366.63,-30.03 356.09,-28.99 357.74,-35.79"/>
</a>
</g>
</g>
<!-- Node8 -->
<g id="Node000008" class="node">
<title>Node8</title>
<g id="a_Node000008"><a xlink:href="namespacedetail.html#a300bc96ee936e9f6ef3565c8dff68a72" target="_top" xlink:title=" ">
<polygon fill="white" stroke="#666666" points="647,-134 537,-134 537,-104 647,-104 647,-134"/>
<text text-anchor="start" x="545" y="-122" font-family="Helvetica,sans-Serif" font-size="10.00">detail::count_digits</text>
<text text-anchor="middle" x="592" y="-111" font-family="Helvetica,sans-Serif" font-size="10.00">_fallback</text>
</a>
</g>
</g>
<!-- Node7&#45;&gt;Node8 -->
<g id="edge7_Node000007_Node000008" class="edge">
<title>Node7&#45;&gt;Node8</title>
<g id="a_edge7_Node000007_Node000008"><a xlink:title=" ">
<path fill="none" stroke="#63b8ff" d="M484.84,-103.13C498.38,-105.15 513.02,-107.34 526.97,-109.43"/>
<polygon fill="#63b8ff" stroke="#63b8ff" points="526.58,-112.91 536.99,-110.92 527.62,-105.98 526.58,-112.91"/>
</a>
</g>
</g>
<!-- Node9 -->
<g id="Node000009" class="node">
<title>Node9</title>
<g id="a_Node000009"><a xlink:href="namespacedetail.html#a75ed2634319883d038944529dbb954e2" target="_top" xlink:title=" ">
<polygon fill="white" stroke="#666666" points="645,-86 539,-86 539,-56 645,-56 645,-86"/>
<text text-anchor="start" x="547" y="-74" font-family="Helvetica,sans-Serif" font-size="10.00">detail::is_constant</text>
<text text-anchor="middle" x="592" y="-63" font-family="Helvetica,sans-Serif" font-size="10.00">_evaluated</text>
</a>
</g>
</g>
<!-- Node7&#45;&gt;Node9 -->
<g id="edge8_Node000007_Node000009" class="edge">
<title>Node7&#45;&gt;Node9</title>
<g id="a_edge8_Node000007_Node000009"><a xlink:title=" ">
<path fill="none" stroke="#63b8ff" d="M484.84,-86.87C499.02,-84.75 514.42,-82.45 528.98,-80.27"/>
<polygon fill="#63b8ff" stroke="#63b8ff" points="529.52,-83.73 538.89,-78.79 528.48,-76.81 529.52,-83.73"/>
</a>
</g>
</g>
</g>
</svg>
