<?xml version="1.0" encoding="UTF-8" standalone="no"?>
<!DOCTYPE svg PUBLIC "-//W3C//DTD SVG 1.1//EN"
 "http://www.w3.org/Graphics/SVG/1.1/DTD/svg11.dtd">
<!-- Generated by graphviz version 2.43.0 (0)
 -->
<!-- Title: detail::duration_formatter::handle_nan_inf Pages: 1 -->
<svg width="509pt" height="460pt"
 viewBox="0.00 0.00 509.00 460.00" xmlns="http://www.w3.org/2000/svg" xmlns:xlink="http://www.w3.org/1999/xlink">
<g id="graph0" class="graph" transform="scale(1 1) rotate(0) translate(4 456)">
<title>detail::duration_formatter::handle_nan_inf</title>
<!-- Node1 -->
<g id="Node000001" class="node">
<title>Node1</title>
<g id="a_Node000001"><a xlink:title=" ">
<polygon fill="#999999" stroke="#666666" points="501,-243 358,-243 358,-213 501,-213 501,-243"/>
<text text-anchor="start" x="366" y="-231" font-family="Helvetica,sans-Serif" font-size="10.00">detail::duration_formatter</text>
<text text-anchor="middle" x="429.5" y="-220" font-family="Helvetica,sans-Serif" font-size="10.00">::handle_nan_inf</text>
</a>
</g>
</g>
<!-- Node2 -->
<g id="Node000002" class="node">
<title>Node2</title>
<g id="a_Node000002"><a xlink:href="structdetail_1_1duration__formatter.html#a826af0d208367e0816601e6fe710665d" target="_top" xlink:title=" ">
<polygon fill="white" stroke="#666666" points="322,-452 179,-452 179,-422 322,-422 322,-452"/>
<text text-anchor="start" x="187" y="-440" font-family="Helvetica,sans-Serif" font-size="10.00">detail::duration_formatter</text>
<text text-anchor="middle" x="250.5" y="-429" font-family="Helvetica,sans-Serif" font-size="10.00">::on_12_hour</text>
</a>
</g>
</g>
<!-- Node1&#45;&gt;Node2 -->
<g id="edge1_Node000001_Node000002" class="edge">
<title>Node1&#45;&gt;Node2</title>
<g id="a_edge1_Node000001_Node000002"><a xlink:title=" ">
<path fill="none" stroke="#63b8ff" d="M420.68,-252.77C406.98,-292.25 374.94,-369.46 322,-413 317.81,-416.45 313.09,-419.41 308.14,-421.96"/>
<polygon fill="#63b8ff" stroke="#63b8ff" points="424.05,-253.73 423.92,-243.13 417.41,-251.5 424.05,-253.73"/>
</a>
</g>
</g>
<!-- Node3 -->
<g id="Node000003" class="node">
<title>Node3</title>
<g id="a_Node000003"><a xlink:href="structdetail_1_1duration__formatter.html#ad9e131f8bfd982dc0e64790dba0a9329" target="_top" xlink:title=" ">
<polygon fill="white" stroke="#666666" points="322,-404 179,-404 179,-374 322,-374 322,-404"/>
<text text-anchor="start" x="187" y="-392" font-family="Helvetica,sans-Serif" font-size="10.00">detail::duration_formatter</text>
<text text-anchor="middle" x="250.5" y="-381" font-family="Helvetica,sans-Serif" font-size="10.00">::on_12_hour_time</text>
</a>
</g>
</g>
<!-- Node1&#45;&gt;Node3 -->
<g id="edge2_Node000001_Node000003" class="edge">
<title>Node1&#45;&gt;Node3</title>
<g id="a_edge2_Node000001_Node000003"><a xlink:title=" ">
<path fill="none" stroke="#63b8ff" d="M415.64,-252.2C398.26,-282.67 364.51,-334.71 322,-365 317.26,-368.38 312.01,-371.31 306.57,-373.84"/>
<polygon fill="#63b8ff" stroke="#63b8ff" points="418.89,-253.55 420.69,-243.11 412.77,-250.15 418.89,-253.55"/>
</a>
</g>
</g>
<!-- Node4 -->
<g id="Node000004" class="node">
<title>Node4</title>
<g id="a_Node000004"><a xlink:href="structdetail_1_1duration__formatter.html#ae0a16e2a89a6aaa61d36dc069d70421f" target="_top" xlink:title=" ">
<polygon fill="white" stroke="#666666" points="322,-356 179,-356 179,-326 322,-326 322,-356"/>
<text text-anchor="start" x="187" y="-344" font-family="Helvetica,sans-Serif" font-size="10.00">detail::duration_formatter</text>
<text text-anchor="middle" x="250.5" y="-333" font-family="Helvetica,sans-Serif" font-size="10.00">::on_24_hour</text>
</a>
</g>
</g>
<!-- Node1&#45;&gt;Node4 -->
<g id="edge3_Node000001_Node000004" class="edge">
<title>Node1&#45;&gt;Node4</title>
<g id="a_edge3_Node000001_Node000004"><a xlink:title=" ">
<path fill="none" stroke="#63b8ff" d="M406.77,-250.36C386.44,-270.2 354.41,-298.78 322,-317 316.03,-320.36 309.5,-323.35 302.92,-325.99"/>
<polygon fill="#63b8ff" stroke="#63b8ff" points="409.33,-252.75 413.97,-243.22 404.4,-247.78 409.33,-252.75"/>
</a>
</g>
</g>
<!-- Node5 -->
<g id="Node000005" class="node">
<title>Node5</title>
<g id="a_Node000005"><a xlink:href="structdetail_1_1duration__formatter.html#a46f7670012d8edd7186c2961725c8894" target="_top" xlink:title=" ">
<polygon fill="white" stroke="#666666" points="322,-308 179,-308 179,-278 322,-278 322,-308"/>
<text text-anchor="start" x="187" y="-296" font-family="Helvetica,sans-Serif" font-size="10.00">detail::duration_formatter</text>
<text text-anchor="middle" x="250.5" y="-285" font-family="Helvetica,sans-Serif" font-size="10.00">::on_24_hour_time</text>
</a>
</g>
</g>
<!-- Node1&#45;&gt;Node5 -->
<g id="edge4_Node000001_Node000005" class="edge">
<title>Node1&#45;&gt;Node5</title>
<g id="a_edge4_Node000001_Node000005"><a xlink:title=" ">
<path fill="none" stroke="#63b8ff" d="M377.79,-246.62C350.8,-256.54 318.03,-268.57 292.64,-277.89"/>
<polygon fill="#63b8ff" stroke="#63b8ff" points="379.27,-249.81 387.45,-243.08 376.85,-243.24 379.27,-249.81"/>
</a>
</g>
</g>
<!-- Node6 -->
<g id="Node000006" class="node">
<title>Node6</title>
<g id="a_Node000006"><a xlink:href="structdetail_1_1duration__formatter.html#a8044d0b686a0080acbb954da3cab168d" target="_top" xlink:title=" ">
<polygon fill="white" stroke="#666666" points="143,-265 0,-265 0,-235 143,-235 143,-265"/>
<text text-anchor="start" x="8" y="-253" font-family="Helvetica,sans-Serif" font-size="10.00">detail::duration_formatter</text>
<text text-anchor="middle" x="71.5" y="-242" font-family="Helvetica,sans-Serif" font-size="10.00">::on_iso_time</text>
</a>
</g>
</g>
<!-- Node1&#45;&gt;Node6 -->
<g id="edge9_Node000001_Node000006" class="edge">
<title>Node1&#45;&gt;Node6</title>
<g id="a_edge9_Node000001_Node000006"><a xlink:title=" ">
<path fill="none" stroke="#63b8ff" d="M347.67,-233C286.06,-236.8 202.06,-241.99 143.13,-245.64"/>
<polygon fill="#63b8ff" stroke="#63b8ff" points="347.98,-236.48 357.74,-232.37 347.54,-229.5 347.98,-236.48"/>
</a>
</g>
</g>
<!-- Node7 -->
<g id="Node000007" class="node">
<title>Node7</title>
<g id="a_Node000007"><a xlink:href="structdetail_1_1duration__formatter.html#a3f21115b4f82e34f3b86a3d269ae82fd" target="_top" xlink:title=" ">
<polygon fill="white" stroke="#666666" points="322,-222 179,-222 179,-192 322,-192 322,-222"/>
<text text-anchor="start" x="187" y="-210" font-family="Helvetica,sans-Serif" font-size="10.00">detail::duration_formatter</text>
<text text-anchor="middle" x="250.5" y="-199" font-family="Helvetica,sans-Serif" font-size="10.00">::on_am_pm</text>
</a>
</g>
</g>
<!-- Node1&#45;&gt;Node7 -->
<g id="edge6_Node000001_Node000007" class="edge">
<title>Node1&#45;&gt;Node7</title>
<g id="a_edge6_Node000001_Node000007"><a xlink:title=" ">
<path fill="none" stroke="#63b8ff" d="M347.79,-218.42C339.22,-217.41 330.55,-216.38 322.11,-215.38"/>
<polygon fill="#63b8ff" stroke="#63b8ff" points="347.44,-221.91 357.78,-219.61 348.26,-214.96 347.44,-221.91"/>
</a>
</g>
</g>
<!-- Node8 -->
<g id="Node000008" class="node">
<title>Node8</title>
<g id="a_Node000008"><a xlink:href="structdetail_1_1duration__formatter.html#a27bb9bcca257513d9966428a0d705089" target="_top" xlink:title=" ">
<polygon fill="white" stroke="#666666" points="322,-174 179,-174 179,-144 322,-144 322,-174"/>
<text text-anchor="start" x="187" y="-162" font-family="Helvetica,sans-Serif" font-size="10.00">detail::duration_formatter</text>
<text text-anchor="middle" x="250.5" y="-151" font-family="Helvetica,sans-Serif" font-size="10.00">::on_day_of_year</text>
</a>
</g>
</g>
<!-- Node1&#45;&gt;Node8 -->
<g id="edge7_Node000001_Node000008" class="edge">
<title>Node1&#45;&gt;Node8</title>
<g id="a_edge7_Node000001_Node000008"><a xlink:title=" ">
<path fill="none" stroke="#63b8ff" d="M385.29,-208.91C366.05,-200.63 343.02,-191.01 322,-183 314.03,-179.96 305.48,-176.9 297.18,-174.02"/>
<polygon fill="#63b8ff" stroke="#63b8ff" points="384.13,-212.22 394.7,-212.99 386.91,-205.8 384.13,-212.22"/>
</a>
</g>
</g>
<!-- Node9 -->
<g id="Node000009" class="node">
<title>Node9</title>
<g id="a_Node000009"><a xlink:href="structdetail_1_1duration__formatter.html#ac825a1b64912178dd2ed23c317b8ef96" target="_top" xlink:title=" ">
<polygon fill="white" stroke="#666666" points="322,-126 179,-126 179,-96 322,-96 322,-126"/>
<text text-anchor="start" x="187" y="-114" font-family="Helvetica,sans-Serif" font-size="10.00">detail::duration_formatter</text>
<text text-anchor="middle" x="250.5" y="-103" font-family="Helvetica,sans-Serif" font-size="10.00">::on_duration_value</text>
</a>
</g>
</g>
<!-- Node1&#45;&gt;Node9 -->
<g id="edge8_Node000001_Node000009" class="edge">
<title>Node1&#45;&gt;Node9</title>
<g id="a_edge8_Node000001_Node000009"><a xlink:title=" ">
<path fill="none" stroke="#63b8ff" d="M407.65,-205.29C387.49,-184.5 355.19,-154.13 322,-135 316.18,-131.64 309.81,-128.66 303.36,-126.03"/>
<polygon fill="#63b8ff" stroke="#63b8ff" points="405.33,-207.93 414.76,-212.75 410.4,-203.1 405.33,-207.93"/>
</a>
</g>
</g>
<!-- Node10 -->
<g id="Node000010" class="node">
<title>Node10</title>
<g id="a_Node000010"><a xlink:href="structdetail_1_1duration__formatter.html#abe4a8e5797458144ae64f6c10ede01f1" target="_top" xlink:title=" ">
<polygon fill="white" stroke="#666666" points="322,-78 179,-78 179,-48 322,-48 322,-78"/>
<text text-anchor="start" x="187" y="-66" font-family="Helvetica,sans-Serif" font-size="10.00">detail::duration_formatter</text>
<text text-anchor="middle" x="250.5" y="-55" font-family="Helvetica,sans-Serif" font-size="10.00">::on_minute</text>
</a>
</g>
</g>
<!-- Node1&#45;&gt;Node10 -->
<g id="edge10_Node000001_Node000010" class="edge">
<title>Node1&#45;&gt;Node10</title>
<g id="a_edge10_Node000001_Node000010"><a xlink:title=" ">
<path fill="none" stroke="#63b8ff" d="M416.3,-203.98C399.26,-172.74 365.48,-118.44 322,-87 317.29,-83.59 312.05,-80.64 306.62,-78.09"/>
<polygon fill="#63b8ff" stroke="#63b8ff" points="413.25,-205.71 421.04,-212.89 419.43,-202.42 413.25,-205.71"/>
</a>
</g>
</g>
<!-- Node11 -->
<g id="Node000011" class="node">
<title>Node11</title>
<g id="a_Node000011"><a xlink:href="structdetail_1_1duration__formatter.html#a5eaa3651f2774bf273f23c4a6cb232a2" target="_top" xlink:title=" ">
<polygon fill="white" stroke="#666666" points="322,-30 179,-30 179,0 322,0 322,-30"/>
<text text-anchor="start" x="187" y="-18" font-family="Helvetica,sans-Serif" font-size="10.00">detail::duration_formatter</text>
<text text-anchor="middle" x="250.5" y="-7" font-family="Helvetica,sans-Serif" font-size="10.00">::on_second</text>
</a>
</g>
</g>
<!-- Node1&#45;&gt;Node11 -->
<g id="edge11_Node000001_Node000011" class="edge">
<title>Node1&#45;&gt;Node11</title>
<g id="a_edge11_Node000001_Node000011"><a xlink:title=" ">
<path fill="none" stroke="#63b8ff" d="M421.02,-203.26C407.64,-163.09 375.85,-83.71 322,-39 317.82,-35.53 313.12,-32.55 308.17,-30"/>
<polygon fill="#63b8ff" stroke="#63b8ff" points="417.7,-204.36 424.1,-212.81 424.36,-202.21 417.7,-204.36"/>
</a>
</g>
</g>
<!-- Node5&#45;&gt;Node6 -->
<g id="edge5_Node000005_Node000006" class="edge">
<title>Node5&#45;&gt;Node6</title>
<g id="a_edge5_Node000005_Node000006"><a xlink:title=" ">
<path fill="none" stroke="#63b8ff" d="M177.76,-275.57C163.38,-272.08 148.38,-268.43 134.37,-265.03"/>
<polygon fill="#63b8ff" stroke="#63b8ff" points="177.05,-279 187.59,-277.96 178.7,-272.2 177.05,-279"/>
</a>
</g>
</g>
<!-- Node11&#45;&gt;Node6 -->
<g id="edge12_Node000011_Node000006" class="edge">
<title>Node11&#45;&gt;Node6</title>
<g id="a_edge12_Node000011_Node000006"><a xlink:title=" ">
<path fill="none" stroke="#63b8ff" d="M183.19,-35.67C181.74,-36.72 180.34,-37.83 179,-39 115.52,-94.2 85.42,-196.3 75.94,-234.79"/>
<polygon fill="#63b8ff" stroke="#63b8ff" points="185.34,-38.45 191.96,-30.18 181.63,-32.52 185.34,-38.45"/>
</a>
</g>
</g>
</g>
</svg>
