<?xml version="1.0" encoding="UTF-8" standalone="no"?>
<!DOCTYPE svg PUBLIC "-//W3C//DTD SVG 1.1//EN"
 "http://www.w3.org/Graphics/SVG/1.1/DTD/svg11.dtd">
<!-- Generated by graphviz version 2.43.0 (0)
 -->
<!-- Title: detail::arg_formatter&lt; Char &gt; Pages: 1 -->
<svg width="331pt" height="236pt"
 viewBox="0.00 0.00 330.50 236.00" xmlns="http://www.w3.org/2000/svg" xmlns:xlink="http://www.w3.org/1999/xlink">
<g id="graph0" class="graph" transform="scale(1 1) rotate(0) translate(4 232)">
<title>detail::arg_formatter&lt; Char &gt;</title>
<!-- Node1 -->
<g id="Node000001" class="node">
<title>Node1</title>
<g id="a_Node000001"><a xlink:title=" ">
<polygon fill="#999999" stroke="#666666" points="257,-30 139,-30 139,0 257,0 257,-30"/>
<text text-anchor="start" x="147" y="-18" font-family="Helvetica,sans-Serif" font-size="10.00">detail::arg_formatter</text>
<text text-anchor="middle" x="198" y="-7" font-family="Helvetica,sans-Serif" font-size="10.00">&lt; Char &gt;</text>
</a>
</g>
</g>
<!-- Node2 -->
<g id="Node000002" class="node">
<title>Node2</title>
<g id="a_Node000002"><a xlink:href="classbasic__appender.html" target="_top" xlink:title=" ">
<polygon fill="white" stroke="#666666" points="138,-96 0,-96 0,-77 138,-77 138,-96"/>
<text text-anchor="middle" x="69" y="-84" font-family="Helvetica,sans-Serif" font-size="10.00">basic_appender&lt; Char &gt;</text>
</a>
</g>
</g>
<!-- Node2&#45;&gt;Node1 -->
<g id="edge1_Node000001_Node000002" class="edge">
<title>Node2&#45;&gt;Node1</title>
<g id="a_edge1_Node000001_Node000002"><a xlink:title=" ">
<path fill="none" stroke="#9a32cd" stroke-dasharray="5,2" d="M93.7,-72.19C116.07,-60.14 148.92,-42.44 171.76,-30.14"/>
<polygon fill="#9a32cd" stroke="#9a32cd" points="91.96,-69.15 84.82,-76.98 95.28,-75.32 91.96,-69.15"/>
</a>
</g>
<text text-anchor="middle" x="147.5" y="-51" font-family="Helvetica,sans-Serif" font-size="10.00" fill="grey"> out</text>
</g>
<!-- Node3 -->
<g id="Node000003" class="node">
<title>Node3</title>
<g id="a_Node000003"><a xlink:href="classdetail_1_1buffer.html" target="_top" xlink:title=" ">
<polygon fill="white" stroke="#666666" points="131,-162 7,-162 7,-143 131,-143 131,-162"/>
<text text-anchor="middle" x="69" y="-150" font-family="Helvetica,sans-Serif" font-size="10.00">detail::buffer&lt; Char &gt;</text>
</a>
</g>
</g>
<!-- Node3&#45;&gt;Node2 -->
<g id="edge2_Node000002_Node000003" class="edge">
<title>Node3&#45;&gt;Node2</title>
<g id="a_edge2_Node000002_Node000003"><a xlink:title=" ">
<path fill="none" stroke="#9a32cd" stroke-dasharray="5,2" d="M69,-132.58C69,-120.63 69,-105.72 69,-96.41"/>
<polygon fill="#9a32cd" stroke="#9a32cd" points="65.5,-132.87 69,-142.87 72.5,-132.87 65.5,-132.87"/>
</a>
</g>
<text text-anchor="middle" x="93.5" y="-117" font-family="Helvetica,sans-Serif" font-size="10.00" fill="grey"> container</text>
</g>
<!-- Node4 -->
<g id="Node000004" class="node">
<title>Node4</title>
<g id="a_Node000004"><a xlink:href="classdetail_1_1buffer.html" target="_top" xlink:title=" ">
<polygon fill="white" stroke="#666666" points="122.5,-228 15.5,-228 15.5,-209 122.5,-209 122.5,-228"/>
<text text-anchor="middle" x="69" y="-216" font-family="Helvetica,sans-Serif" font-size="10.00">detail::buffer&lt; T &gt;</text>
</a>
</g>
</g>
<!-- Node4&#45;&gt;Node3 -->
<g id="edge3_Node000003_Node000004" class="edge">
<title>Node4&#45;&gt;Node3</title>
<g id="a_edge3_Node000003_Node000004"><a xlink:title=" ">
<path fill="none" stroke="#9a32cd" stroke-dasharray="5,2" d="M69,-198.58C69,-186.63 69,-171.72 69,-162.41"/>
<polygon fill="#9a32cd" stroke="#9a32cd" points="65.5,-198.87 69,-208.87 72.5,-198.87 65.5,-198.87"/>
</a>
</g>
<text text-anchor="middle" x="85.5" y="-183" font-family="Helvetica,sans-Serif" font-size="10.00" fill="grey"> grow_</text>
</g>
<!-- Node4&#45;&gt;Node4 -->
<g id="edge4_Node000004_Node000004" class="edge">
<title>Node4&#45;&gt;Node4</title>
<g id="a_edge4_Node000004_Node000004"><a xlink:title=" ">
<path fill="none" stroke="#9a32cd" stroke-dasharray="5,2" d="M132.88,-222.96C137.6,-221.96 140.5,-220.47 140.5,-218.5 140.5,-215.34 133.08,-213.43 122.63,-212.77"/>
<polygon fill="#9a32cd" stroke="#9a32cd" points="132.12,-219.53 122.63,-224.23 132.99,-226.47 132.12,-219.53"/>
</a>
</g>
<text text-anchor="middle" x="157" y="-216" font-family="Helvetica,sans-Serif" font-size="10.00" fill="grey"> grow_</text>
</g>
<!-- Node5 -->
<g id="Node000005" class="node">
<title>Node5</title>
<g id="a_Node000005"><a xlink:href="structformat__specs.html" target="_top" xlink:title=" ">
<polygon fill="white" stroke="#666666" points="239.5,-96 156.5,-96 156.5,-77 239.5,-77 239.5,-96"/>
<text text-anchor="middle" x="198" y="-84" font-family="Helvetica,sans-Serif" font-size="10.00">format_specs</text>
</a>
</g>
</g>
<!-- Node5&#45;&gt;Node1 -->
<g id="edge5_Node000001_Node000005" class="edge">
<title>Node5&#45;&gt;Node1</title>
<g id="a_edge5_Node000001_Node000005"><a xlink:title=" ">
<path fill="none" stroke="#9a32cd" stroke-dasharray="5,2" d="M198,-66.71C198,-55.19 198,-40.68 198,-30.14"/>
<polygon fill="#9a32cd" stroke="#9a32cd" points="194.5,-66.98 198,-76.98 201.5,-66.98 194.5,-66.98"/>
</a>
</g>
<text text-anchor="middle" x="213.5" y="-51" font-family="Helvetica,sans-Serif" font-size="10.00" fill="grey"> specs</text>
</g>
<!-- Node6 -->
<g id="Node000006" class="node">
<title>Node6</title>
<g id="a_Node000006"><a xlink:href="classbasic__specs.html" target="_top" xlink:title=" ">
<polygon fill="white" stroke="#666666" points="235.5,-162 160.5,-162 160.5,-143 235.5,-143 235.5,-162"/>
<text text-anchor="middle" x="198" y="-150" font-family="Helvetica,sans-Serif" font-size="10.00">basic_specs</text>
</a>
</g>
</g>
<!-- Node6&#45;&gt;Node5 -->
<g id="edge6_Node000005_Node000006" class="edge">
<title>Node6&#45;&gt;Node5</title>
<g id="a_edge6_Node000005_Node000006"><a xlink:title=" ">
<path fill="none" stroke="#63b8ff" d="M198,-132.58C198,-120.63 198,-105.72 198,-96.41"/>
<polygon fill="#63b8ff" stroke="#63b8ff" points="194.5,-132.87 198,-142.87 201.5,-132.87 194.5,-132.87"/>
</a>
</g>
</g>
<!-- Node7 -->
<g id="Node000007" class="node">
<title>Node7</title>
<g id="a_Node000007"><a xlink:href="classlocale__ref.html" target="_top" xlink:title=" ">
<polygon fill="white" stroke="#666666" points="322.5,-96 257.5,-96 257.5,-77 322.5,-77 322.5,-96"/>
<text text-anchor="middle" x="290" y="-84" font-family="Helvetica,sans-Serif" font-size="10.00">locale_ref</text>
</a>
</g>
</g>
<!-- Node7&#45;&gt;Node1 -->
<g id="edge7_Node000001_Node000007" class="edge">
<title>Node7&#45;&gt;Node1</title>
<g id="a_edge7_Node000001_Node000007"><a xlink:title=" ">
<path fill="none" stroke="#9a32cd" stroke-dasharray="5,2" d="M270.64,-70.88C254.76,-58.88 232.42,-42 216.71,-30.14"/>
<polygon fill="#9a32cd" stroke="#9a32cd" points="268.63,-73.74 278.72,-76.98 272.85,-68.16 268.63,-73.74"/>
</a>
</g>
<text text-anchor="middle" x="268.5" y="-51" font-family="Helvetica,sans-Serif" font-size="10.00" fill="grey"> locale</text>
</g>
</g>
</svg>
