<?xml version="1.0" encoding="UTF-8" standalone="no"?>
<!DOCTYPE svg PUBLIC "-//W3C//DTD SVG 1.1//EN"
 "http://www.w3.org/Graphics/SVG/1.1/DTD/svg11.dtd">
<!-- Generated by graphviz version 2.43.0 (0)
 -->
<!-- Title: detail::null_chrono_spec_handler::unsupported Pages: 1 -->
<svg width="379pt" height="1831pt"
 viewBox="0.00 0.00 379.00 1831.00" xmlns="http://www.w3.org/2000/svg" xmlns:xlink="http://www.w3.org/1999/xlink">
<g id="graph0" class="graph" transform="scale(1 1) rotate(0) translate(4 1827)">
<title>detail::null_chrono_spec_handler::unsupported</title>
<!-- Node1 -->
<g id="Node000001" class="node">
<title>Node1</title>
<g id="a_Node000001"><a xlink:title=" ">
<polygon fill="#999999" stroke="#666666" points="371,-904 218,-904 218,-874 371,-874 371,-904"/>
<text text-anchor="start" x="226" y="-892" font-family="Helvetica,sans-Serif" font-size="10.00">detail::null_chrono</text>
<text text-anchor="middle" x="294.5" y="-881" font-family="Helvetica,sans-Serif" font-size="10.00">_spec_handler::unsupported</text>
</a>
</g>
</g>
<!-- Node2 -->
<g id="Node000002" class="node">
<title>Node2</title>
<g id="a_Node000002"><a xlink:href="structdetail_1_1null__chrono__spec__handler.html#a2c4f2f2b9baa4eff93b364480fcbabc4" target="_top" xlink:title=" ">
<polygon fill="white" stroke="#666666" points="165.5,-1823 16.5,-1823 16.5,-1793 165.5,-1793 165.5,-1823"/>
<text text-anchor="start" x="24.5" y="-1811" font-family="Helvetica,sans-Serif" font-size="10.00">detail::null_chrono</text>
<text text-anchor="middle" x="91" y="-1800" font-family="Helvetica,sans-Serif" font-size="10.00">_spec_handler::on_12_hour</text>
</a>
</g>
</g>
<!-- Node1&#45;&gt;Node2 -->
<g id="edge1_Node000001_Node000002" class="edge">
<title>Node1&#45;&gt;Node2</title>
<g id="a_edge1_Node000001_Node000002"><a xlink:title=" ">
<path fill="none" stroke="#63b8ff" d="M292.01,-914.43C283.67,-1053.31 240.92,-1716.42 182,-1784 177.43,-1789.24 171.86,-1793.4 165.74,-1796.69"/>
<polygon fill="#63b8ff" stroke="#63b8ff" points="295.51,-914.51 292.61,-904.32 288.53,-914.09 295.51,-914.51"/>
</a>
</g>
</g>
<!-- Node3 -->
<g id="Node000003" class="node">
<title>Node3</title>
<g id="a_Node000003"><a xlink:href="structdetail_1_1null__chrono__spec__handler.html#ac6a138a56fe9085c8b2b622fb93ac57d" target="_top" xlink:title=" ">
<polygon fill="white" stroke="#666666" points="152,-1774.5 30,-1774.5 30,-1733.5 152,-1733.5 152,-1774.5"/>
<text text-anchor="start" x="38" y="-1762.5" font-family="Helvetica,sans-Serif" font-size="10.00">detail::null_chrono</text>
<text text-anchor="start" x="38" y="-1751.5" font-family="Helvetica,sans-Serif" font-size="10.00">_spec_handler::on_12</text>
<text text-anchor="middle" x="91" y="-1740.5" font-family="Helvetica,sans-Serif" font-size="10.00">_hour_time</text>
</a>
</g>
</g>
<!-- Node1&#45;&gt;Node3 -->
<g id="edge2_Node000001_Node000003" class="edge">
<title>Node1&#45;&gt;Node3</title>
<g id="a_edge2_Node000001_Node000003"><a xlink:title=" ">
<path fill="none" stroke="#63b8ff" d="M293.6,-914.36C293.62,-1040.15 287.62,-1596.26 182,-1724 174.23,-1733.39 163.44,-1739.86 152.01,-1744.31"/>
<polygon fill="#63b8ff" stroke="#63b8ff" points="297.1,-914.16 293.59,-904.17 290.1,-914.17 297.1,-914.16"/>
</a>
</g>
</g>
<!-- Node4 -->
<g id="Node000004" class="node">
<title>Node4</title>
<g id="a_Node000004"><a xlink:href="structdetail_1_1null__chrono__spec__handler.html#afd869a703cf3ab4be15912e7f1a2e73c" target="_top" xlink:title=" ">
<polygon fill="white" stroke="#666666" points="165.5,-1715 16.5,-1715 16.5,-1685 165.5,-1685 165.5,-1715"/>
<text text-anchor="start" x="24.5" y="-1703" font-family="Helvetica,sans-Serif" font-size="10.00">detail::null_chrono</text>
<text text-anchor="middle" x="91" y="-1692" font-family="Helvetica,sans-Serif" font-size="10.00">_spec_handler::on_24_hour</text>
</a>
</g>
</g>
<!-- Node1&#45;&gt;Node4 -->
<g id="edge3_Node000001_Node000004" class="edge">
<title>Node1&#45;&gt;Node4</title>
<g id="a_edge3_Node000001_Node000004"><a xlink:title=" ">
<path fill="none" stroke="#63b8ff" d="M293.53,-914.17C293.14,-1035.55 285.44,-1559.36 182,-1676 177.39,-1681.2 171.78,-1685.33 165.65,-1688.61"/>
<polygon fill="#63b8ff" stroke="#63b8ff" points="297.03,-914.01 293.54,-904 290.03,-914 297.03,-914.01"/>
</a>
</g>
</g>
<!-- Node5 -->
<g id="Node000005" class="node">
<title>Node5</title>
<g id="a_Node000005"><a xlink:href="structdetail_1_1null__chrono__spec__handler.html#a4034051304db53bee6fbbfe0b4525f22" target="_top" xlink:title=" ">
<polygon fill="white" stroke="#666666" points="152,-1666.5 30,-1666.5 30,-1625.5 152,-1625.5 152,-1666.5"/>
<text text-anchor="start" x="38" y="-1654.5" font-family="Helvetica,sans-Serif" font-size="10.00">detail::null_chrono</text>
<text text-anchor="start" x="38" y="-1643.5" font-family="Helvetica,sans-Serif" font-size="10.00">_spec_handler::on_24</text>
<text text-anchor="middle" x="91" y="-1632.5" font-family="Helvetica,sans-Serif" font-size="10.00">_hour_time</text>
</a>
</g>
</g>
<!-- Node1&#45;&gt;Node5 -->
<g id="edge4_Node000001_Node000005" class="edge">
<title>Node1&#45;&gt;Node5</title>
<g id="a_edge4_Node000001_Node000005"><a xlink:title=" ">
<path fill="none" stroke="#63b8ff" d="M293.05,-914.32C290.49,-1029.91 274.41,-1506.43 182,-1616 174.25,-1625.19 163.6,-1631.58 152.34,-1636.02"/>
<polygon fill="#63b8ff" stroke="#63b8ff" points="296.55,-914.36 293.26,-904.29 289.55,-914.22 296.55,-914.36"/>
</a>
</g>
</g>
<!-- Node6 -->
<g id="Node000006" class="node">
<title>Node6</title>
<g id="a_Node000006"><a xlink:href="structdetail_1_1null__chrono__spec__handler.html#a7c9abf08a93ca6473b6e139b9d05c0c4" target="_top" xlink:title=" ">
<polygon fill="white" stroke="#666666" points="175,-1607 7,-1607 7,-1577 175,-1577 175,-1607"/>
<text text-anchor="start" x="15" y="-1595" font-family="Helvetica,sans-Serif" font-size="10.00">detail::null_chrono</text>
<text text-anchor="middle" x="91" y="-1584" font-family="Helvetica,sans-Serif" font-size="10.00">_spec_handler::on_abbr_month</text>
</a>
</g>
</g>
<!-- Node1&#45;&gt;Node6 -->
<g id="edge5_Node000001_Node000006" class="edge">
<title>Node1&#45;&gt;Node6</title>
<g id="a_edge5_Node000001_Node000006"><a xlink:title=" ">
<path fill="none" stroke="#63b8ff" d="M292.89,-914.52C289.73,-1026.02 271.6,-1469.18 182,-1568 178.96,-1571.35 175.51,-1574.26 171.77,-1576.78"/>
<polygon fill="#63b8ff" stroke="#63b8ff" points="296.4,-914.33 293.17,-904.24 289.4,-914.14 296.4,-914.33"/>
</a>
</g>
</g>
<!-- Node7 -->
<g id="Node000007" class="node">
<title>Node7</title>
<g id="a_Node000007"><a xlink:href="structdetail_1_1null__chrono__spec__handler.html#af54bab2d1ce9ddf46a2ae75797e51ed8" target="_top" xlink:title=" ">
<polygon fill="white" stroke="#666666" points="156.5,-1558.5 25.5,-1558.5 25.5,-1517.5 156.5,-1517.5 156.5,-1558.5"/>
<text text-anchor="start" x="33.5" y="-1546.5" font-family="Helvetica,sans-Serif" font-size="10.00">detail::null_chrono</text>
<text text-anchor="start" x="33.5" y="-1535.5" font-family="Helvetica,sans-Serif" font-size="10.00">_spec_handler::on_abbr</text>
<text text-anchor="middle" x="91" y="-1524.5" font-family="Helvetica,sans-Serif" font-size="10.00">_weekday</text>
</a>
</g>
</g>
<!-- Node1&#45;&gt;Node7 -->
<g id="edge6_Node000001_Node000007" class="edge">
<title>Node1&#45;&gt;Node7</title>
<g id="a_edge6_Node000001_Node000007"><a xlink:title=" ">
<path fill="none" stroke="#63b8ff" d="M292.3,-914.47C286.85,-1019.34 261.22,-1416.5 182,-1508 175.21,-1515.84 166.31,-1521.64 156.75,-1525.93"/>
<polygon fill="#63b8ff" stroke="#63b8ff" points="295.81,-914.36 292.81,-904.2 288.82,-914.01 295.81,-914.36"/>
</a>
</g>
</g>
<!-- Node8 -->
<g id="Node000008" class="node">
<title>Node8</title>
<g id="a_Node000008"><a xlink:href="structdetail_1_1null__chrono__spec__handler.html#af51dd3e9021b39bc2deaa544427dc233" target="_top" xlink:title=" ">
<polygon fill="white" stroke="#666666" points="164,-1499 18,-1499 18,-1469 164,-1469 164,-1499"/>
<text text-anchor="start" x="26" y="-1487" font-family="Helvetica,sans-Serif" font-size="10.00">detail::null_chrono</text>
<text text-anchor="middle" x="91" y="-1476" font-family="Helvetica,sans-Serif" font-size="10.00">_spec_handler::on_am_pm</text>
</a>
</g>
</g>
<!-- Node1&#45;&gt;Node8 -->
<g id="edge7_Node000001_Node000008" class="edge">
<title>Node1&#45;&gt;Node8</title>
<g id="a_edge7_Node000001_Node000008"><a xlink:title=" ">
<path fill="none" stroke="#63b8ff" d="M292.05,-914.22C285.8,-1013.87 258.02,-1378.64 182,-1460 176.92,-1465.44 170.76,-1469.69 164.07,-1473.02"/>
<polygon fill="#63b8ff" stroke="#63b8ff" points="295.55,-914.36 292.66,-904.16 288.56,-913.93 295.55,-914.36"/>
</a>
</g>
</g>
<!-- Node9 -->
<g id="Node000009" class="node">
<title>Node9</title>
<g id="a_Node000009"><a xlink:href="structdetail_1_1null__chrono__spec__handler.html#a4478eb1fdfc4c11ecc1e3647792e2040" target="_top" xlink:title=" ">
<polygon fill="white" stroke="#666666" points="164,-1451 18,-1451 18,-1421 164,-1421 164,-1451"/>
<text text-anchor="start" x="26" y="-1439" font-family="Helvetica,sans-Serif" font-size="10.00">detail::null_chrono</text>
<text text-anchor="middle" x="91" y="-1428" font-family="Helvetica,sans-Serif" font-size="10.00">_spec_handler::on_century</text>
</a>
</g>
</g>
<!-- Node1&#45;&gt;Node9 -->
<g id="edge8_Node000001_Node000009" class="edge">
<title>Node1&#45;&gt;Node9</title>
<g id="a_edge8_Node000001_Node000009"><a xlink:title=" ">
<path fill="none" stroke="#63b8ff" d="M291.56,-914.21C283.8,-1008.45 251.99,-1338.38 182,-1412 176.99,-1417.27 170.95,-1421.44 164.42,-1424.71"/>
<polygon fill="#63b8ff" stroke="#63b8ff" points="295.05,-914.41 292.37,-904.16 288.08,-913.84 295.05,-914.41"/>
</a>
</g>
</g>
<!-- Node10 -->
<g id="Node000010" class="node">
<title>Node10</title>
<g id="a_Node000010"><a xlink:href="structdetail_1_1null__chrono__spec__handler.html#a758002a08702ed1af0dccdafb4a8a4b2" target="_top" xlink:title=" ">
<polygon fill="white" stroke="#666666" points="168,-1403 14,-1403 14,-1373 168,-1373 168,-1403"/>
<text text-anchor="start" x="22" y="-1391" font-family="Helvetica,sans-Serif" font-size="10.00">detail::null_chrono</text>
<text text-anchor="middle" x="91" y="-1380" font-family="Helvetica,sans-Serif" font-size="10.00">_spec_handler::on_datetime</text>
</a>
</g>
</g>
<!-- Node1&#45;&gt;Node10 -->
<g id="edge9_Node000001_Node000010" class="edge">
<title>Node1&#45;&gt;Node10</title>
<g id="a_edge9_Node000001_Node000010"><a xlink:title=" ">
<path fill="none" stroke="#63b8ff" d="M290.98,-914.18C281.6,-1002.74 245.99,-1298.06 182,-1364 177.95,-1368.18 173.25,-1371.66 168.18,-1374.55"/>
<polygon fill="#63b8ff" stroke="#63b8ff" points="294.46,-914.52 292.01,-904.21 287.5,-913.8 294.46,-914.52"/>
</a>
</g>
</g>
<!-- Node11 -->
<g id="Node000011" class="node">
<title>Node11</title>
<g id="a_Node000011"><a xlink:href="structdetail_1_1null__chrono__spec__handler.html#a59e07935af2762e0c4e64609d545b7a6" target="_top" xlink:title=" ">
<polygon fill="white" stroke="#666666" points="155,-1354.5 27,-1354.5 27,-1313.5 155,-1313.5 155,-1354.5"/>
<text text-anchor="start" x="35" y="-1342.5" font-family="Helvetica,sans-Serif" font-size="10.00">detail::null_chrono</text>
<text text-anchor="start" x="35" y="-1331.5" font-family="Helvetica,sans-Serif" font-size="10.00">_spec_handler::on_day</text>
<text text-anchor="middle" x="91" y="-1320.5" font-family="Helvetica,sans-Serif" font-size="10.00">_of_month</text>
</a>
</g>
</g>
<!-- Node1&#45;&gt;Node11 -->
<g id="edge10_Node000001_Node000011" class="edge">
<title>Node1&#45;&gt;Node11</title>
<g id="a_edge10_Node000001_Node000011"><a xlink:title=" ">
<path fill="none" stroke="#63b8ff" d="M289.92,-914.31C277.99,-995.43 237.13,-1247.05 182,-1305 174.65,-1312.73 165.22,-1318.41 155.26,-1322.57"/>
<polygon fill="#63b8ff" stroke="#63b8ff" points="293.44,-914.43 291.41,-904.03 286.52,-913.42 293.44,-914.43"/>
</a>
</g>
</g>
<!-- Node12 -->
<g id="Node000012" class="node">
<title>Node12</title>
<g id="a_Node000012"><a xlink:href="structdetail_1_1null__chrono__spec__handler.html#a1b716b7d7f99dbaf7bbaea35d935a2b9" target="_top" xlink:title=" ">
<polygon fill="white" stroke="#666666" points="155,-1295.5 27,-1295.5 27,-1254.5 155,-1254.5 155,-1295.5"/>
<text text-anchor="start" x="35" y="-1283.5" font-family="Helvetica,sans-Serif" font-size="10.00">detail::null_chrono</text>
<text text-anchor="start" x="35" y="-1272.5" font-family="Helvetica,sans-Serif" font-size="10.00">_spec_handler::on_day</text>
<text text-anchor="middle" x="91" y="-1261.5" font-family="Helvetica,sans-Serif" font-size="10.00">_of_year</text>
</a>
</g>
</g>
<!-- Node1&#45;&gt;Node12 -->
<g id="edge11_Node000001_Node000012" class="edge">
<title>Node1&#45;&gt;Node12</title>
<g id="a_edge11_Node000001_Node000012"><a xlink:title=" ">
<path fill="none" stroke="#63b8ff" d="M293.15,-914.48C290.85,-979.18 275.76,-1151.39 182,-1246 174.6,-1253.46 165.28,-1259.01 155.46,-1263.12"/>
<polygon fill="#63b8ff" stroke="#63b8ff" points="296.65,-914.46 293.43,-904.36 289.65,-914.26 296.65,-914.46"/>
</a>
</g>
</g>
<!-- Node13 -->
<g id="Node000013" class="node">
<title>Node13</title>
<g id="a_Node000013"><a xlink:href="structdetail_1_1null__chrono__spec__handler.html#ae6b992965d7c3b6a4485e48d49f3938e" target="_top" xlink:title=" ">
<polygon fill="white" stroke="#666666" points="157.5,-1236.5 24.5,-1236.5 24.5,-1195.5 157.5,-1195.5 157.5,-1236.5"/>
<text text-anchor="start" x="32.5" y="-1224.5" font-family="Helvetica,sans-Serif" font-size="10.00">detail::null_chrono</text>
<text text-anchor="start" x="32.5" y="-1213.5" font-family="Helvetica,sans-Serif" font-size="10.00">_spec_handler::on_dec0</text>
<text text-anchor="middle" x="91" y="-1202.5" font-family="Helvetica,sans-Serif" font-size="10.00">_week_of_year</text>
</a>
</g>
</g>
<!-- Node1&#45;&gt;Node13 -->
<g id="edge12_Node000001_Node000013" class="edge">
<title>Node1&#45;&gt;Node13</title>
<g id="a_edge12_Node000001_Node000013"><a xlink:title=" ">
<path fill="none" stroke="#63b8ff" d="M291.31,-914.46C285.05,-971.52 261.97,-1110.65 182,-1187 175.11,-1193.57 166.73,-1198.66 157.88,-1202.59"/>
<polygon fill="#63b8ff" stroke="#63b8ff" points="294.83,-914.48 292.35,-904.18 287.86,-913.78 294.83,-914.48"/>
</a>
</g>
</g>
<!-- Node14 -->
<g id="Node000014" class="node">
<title>Node14</title>
<g id="a_Node000014"><a xlink:href="structdetail_1_1null__chrono__spec__handler.html#a112b38ad2c415ce921942b1f7341cedd" target="_top" xlink:title=" ">
<polygon fill="white" stroke="#666666" points="157.5,-1177.5 24.5,-1177.5 24.5,-1136.5 157.5,-1136.5 157.5,-1177.5"/>
<text text-anchor="start" x="32.5" y="-1165.5" font-family="Helvetica,sans-Serif" font-size="10.00">detail::null_chrono</text>
<text text-anchor="start" x="32.5" y="-1154.5" font-family="Helvetica,sans-Serif" font-size="10.00">_spec_handler::on_dec0</text>
<text text-anchor="middle" x="91" y="-1143.5" font-family="Helvetica,sans-Serif" font-size="10.00">_weekday</text>
</a>
</g>
</g>
<!-- Node1&#45;&gt;Node14 -->
<g id="edge13_Node000001_Node000014" class="edge">
<title>Node1&#45;&gt;Node14</title>
<g id="a_edge13_Node000001_Node000014"><a xlink:title=" ">
<path fill="none" stroke="#63b8ff" d="M288.74,-914.04C278.24,-962.46 248.55,-1069.28 182,-1128 174.98,-1134.19 166.63,-1139.06 157.88,-1142.9"/>
<polygon fill="#63b8ff" stroke="#63b8ff" points="292.2,-914.61 290.8,-904.11 285.34,-913.19 292.2,-914.61"/>
</a>
</g>
</g>
<!-- Node15 -->
<g id="Node000015" class="node">
<title>Node15</title>
<g id="a_Node000015"><a xlink:href="structdetail_1_1null__chrono__spec__handler.html#ab81018d7f1c05178d1b96c6d07eccff2" target="_top" xlink:title=" ">
<polygon fill="white" stroke="#666666" points="157.5,-1118.5 24.5,-1118.5 24.5,-1077.5 157.5,-1077.5 157.5,-1118.5"/>
<text text-anchor="start" x="32.5" y="-1106.5" font-family="Helvetica,sans-Serif" font-size="10.00">detail::null_chrono</text>
<text text-anchor="start" x="32.5" y="-1095.5" font-family="Helvetica,sans-Serif" font-size="10.00">_spec_handler::on_dec1</text>
<text text-anchor="middle" x="91" y="-1084.5" font-family="Helvetica,sans-Serif" font-size="10.00">_week_of_year</text>
</a>
</g>
</g>
<!-- Node1&#45;&gt;Node15 -->
<g id="edge14_Node000001_Node000015" class="edge">
<title>Node1&#45;&gt;Node15</title>
<g id="a_edge14_Node000001_Node000015"><a xlink:title=" ">
<path fill="none" stroke="#63b8ff" d="M284.77,-913.49C269.76,-952.15 235.42,-1027.2 182,-1069 174.76,-1074.67 166.38,-1079.24 157.71,-1082.93"/>
<polygon fill="#63b8ff" stroke="#63b8ff" points="288.07,-914.64 288.33,-904.05 281.53,-912.17 288.07,-914.64"/>
</a>
</g>
</g>
<!-- Node16 -->
<g id="Node000016" class="node">
<title>Node16</title>
<g id="a_Node000016"><a xlink:href="structdetail_1_1null__chrono__spec__handler.html#a29bda3fd33cea49d82c3457cdd753f5b" target="_top" xlink:title=" ">
<polygon fill="white" stroke="#666666" points="157.5,-1059.5 24.5,-1059.5 24.5,-1018.5 157.5,-1018.5 157.5,-1059.5"/>
<text text-anchor="start" x="32.5" y="-1047.5" font-family="Helvetica,sans-Serif" font-size="10.00">detail::null_chrono</text>
<text text-anchor="start" x="32.5" y="-1036.5" font-family="Helvetica,sans-Serif" font-size="10.00">_spec_handler::on_dec1</text>
<text text-anchor="middle" x="91" y="-1025.5" font-family="Helvetica,sans-Serif" font-size="10.00">_weekday</text>
</a>
</g>
</g>
<!-- Node1&#45;&gt;Node16 -->
<g id="edge15_Node000001_Node000016" class="edge">
<title>Node1&#45;&gt;Node16</title>
<g id="a_edge15_Node000001_Node000016"><a xlink:title=" ">
<path fill="none" stroke="#63b8ff" d="M277.28,-912.62C257.64,-939.54 222.18,-983.14 182,-1009 174.52,-1013.81 166.19,-1017.93 157.71,-1021.43"/>
<polygon fill="#63b8ff" stroke="#63b8ff" points="280.34,-914.35 283.31,-904.18 274.65,-910.28 280.34,-914.35"/>
</a>
</g>
</g>
<!-- Node17 -->
<g id="Node000017" class="node">
<title>Node17</title>
<g id="a_Node000017"><a xlink:href="structdetail_1_1null__chrono__spec__handler.html#a59e16276ffe0e0b1879612b7fb76a4a3" target="_top" xlink:title=" ">
<polygon fill="white" stroke="#666666" points="173,-1000 9,-1000 9,-970 173,-970 173,-1000"/>
<text text-anchor="start" x="17" y="-988" font-family="Helvetica,sans-Serif" font-size="10.00">detail::null_chrono</text>
<text text-anchor="middle" x="91" y="-977" font-family="Helvetica,sans-Serif" font-size="10.00">_spec_handler::on_dec_month</text>
</a>
</g>
</g>
<!-- Node1&#45;&gt;Node17 -->
<g id="edge16_Node000001_Node000017" class="edge">
<title>Node1&#45;&gt;Node17</title>
<g id="a_edge16_Node000001_Node000017"><a xlink:title=" ">
<path fill="none" stroke="#63b8ff" d="M265.92,-910.31C244.17,-926.23 212.5,-947.49 182,-961 174.46,-964.34 166.35,-967.3 158.2,-969.9"/>
<polygon fill="#63b8ff" stroke="#63b8ff" points="268.1,-913.06 274.04,-904.28 263.92,-907.44 268.1,-913.06"/>
</a>
</g>
</g>
<!-- Node18 -->
<g id="Node000018" class="node">
<title>Node18</title>
<g id="a_Node000018"><a xlink:href="structdetail_1_1null__chrono__spec__handler.html#a33e1fdff5c6814fd9ff3766428bf02c1" target="_top" xlink:title=" ">
<polygon fill="white" stroke="#666666" points="178,-952 4,-952 4,-922 178,-922 178,-952"/>
<text text-anchor="start" x="12" y="-940" font-family="Helvetica,sans-Serif" font-size="10.00">detail::null_chrono</text>
<text text-anchor="middle" x="91" y="-929" font-family="Helvetica,sans-Serif" font-size="10.00">_spec_handler::on_duration_unit</text>
</a>
</g>
</g>
<!-- Node1&#45;&gt;Node18 -->
<g id="edge17_Node000001_Node000018" class="edge">
<title>Node1&#45;&gt;Node18</title>
<g id="a_edge17_Node000001_Node000018"><a xlink:title=" ">
<path fill="none" stroke="#63b8ff" d="M220.28,-906.44C198.88,-911.54 175.69,-917.07 154.98,-922"/>
<polygon fill="#63b8ff" stroke="#63b8ff" points="221.38,-909.78 230.3,-904.06 219.76,-902.97 221.38,-909.78"/>
</a>
</g>
</g>
<!-- Node19 -->
<g id="Node000019" class="node">
<title>Node19</title>
<g id="a_Node000019"><a xlink:href="structdetail_1_1null__chrono__spec__handler.html#a1c968eebb61c88b5ded6c7a54e11d510" target="_top" xlink:title=" ">
<polygon fill="white" stroke="#666666" points="182,-904 0,-904 0,-874 182,-874 182,-904"/>
<text text-anchor="start" x="8" y="-892" font-family="Helvetica,sans-Serif" font-size="10.00">detail::null_chrono</text>
<text text-anchor="middle" x="91" y="-881" font-family="Helvetica,sans-Serif" font-size="10.00">_spec_handler::on_duration_value</text>
</a>
</g>
</g>
<!-- Node1&#45;&gt;Node19 -->
<g id="edge18_Node000001_Node000019" class="edge">
<title>Node1&#45;&gt;Node19</title>
<g id="a_edge18_Node000001_Node000019"><a xlink:title=" ">
<path fill="none" stroke="#63b8ff" d="M207.72,-889C199.31,-889 190.75,-889 182.3,-889"/>
<polygon fill="#63b8ff" stroke="#63b8ff" points="207.9,-892.5 217.9,-889 207.9,-885.5 207.9,-892.5"/>
</a>
</g>
</g>
<!-- Node20 -->
<g id="Node000020" class="node">
<title>Node20</title>
<g id="a_Node000020"><a xlink:href="structdetail_1_1null__chrono__spec__handler.html#add3bd62ba8c19d4551675f37d2c85a85" target="_top" xlink:title=" ">
<polygon fill="white" stroke="#666666" points="172,-856 10,-856 10,-826 172,-826 172,-856"/>
<text text-anchor="start" x="18" y="-844" font-family="Helvetica,sans-Serif" font-size="10.00">detail::null_chrono</text>
<text text-anchor="middle" x="91" y="-833" font-family="Helvetica,sans-Serif" font-size="10.00">_spec_handler::on_full_month</text>
</a>
</g>
</g>
<!-- Node1&#45;&gt;Node20 -->
<g id="edge19_Node000001_Node000020" class="edge">
<title>Node1&#45;&gt;Node20</title>
<g id="a_edge19_Node000001_Node000020"><a xlink:title=" ">
<path fill="none" stroke="#63b8ff" d="M220.28,-871.56C198.88,-866.46 175.69,-860.93 154.98,-856"/>
<polygon fill="#63b8ff" stroke="#63b8ff" points="219.76,-875.03 230.3,-873.94 221.38,-868.22 219.76,-875.03"/>
</a>
</g>
</g>
<!-- Node21 -->
<g id="Node000021" class="node">
<title>Node21</title>
<g id="a_Node000021"><a xlink:href="structdetail_1_1null__chrono__spec__handler.html#a8f910f1820139c21847299e21bdd08ee" target="_top" xlink:title=" ">
<polygon fill="white" stroke="#666666" points="153.5,-807.5 28.5,-807.5 28.5,-766.5 153.5,-766.5 153.5,-807.5"/>
<text text-anchor="start" x="36.5" y="-795.5" font-family="Helvetica,sans-Serif" font-size="10.00">detail::null_chrono</text>
<text text-anchor="start" x="36.5" y="-784.5" font-family="Helvetica,sans-Serif" font-size="10.00">_spec_handler::on_full</text>
<text text-anchor="middle" x="91" y="-773.5" font-family="Helvetica,sans-Serif" font-size="10.00">_weekday</text>
</a>
</g>
</g>
<!-- Node1&#45;&gt;Node21 -->
<g id="edge20_Node000001_Node000021" class="edge">
<title>Node1&#45;&gt;Node21</title>
<g id="a_edge20_Node000001_Node000021"><a xlink:title=" ">
<path fill="none" stroke="#63b8ff" d="M265.28,-867.93C243.41,-852.32 211.89,-831.35 182,-817 173.09,-812.72 163.41,-808.8 153.82,-805.31"/>
<polygon fill="#63b8ff" stroke="#63b8ff" points="263.3,-870.81 273.45,-873.83 267.4,-865.14 263.3,-870.81"/>
</a>
</g>
</g>
<!-- Node22 -->
<g id="Node000022" class="node">
<title>Node22</title>
<g id="a_Node000022"><a xlink:href="structdetail_1_1null__chrono__spec__handler.html#a13af8a1315127026af66d00707bbade3" target="_top" xlink:title=" ">
<polygon fill="white" stroke="#666666" points="166.5,-748 15.5,-748 15.5,-718 166.5,-718 166.5,-748"/>
<text text-anchor="start" x="23.5" y="-736" font-family="Helvetica,sans-Serif" font-size="10.00">detail::null_chrono</text>
<text text-anchor="middle" x="91" y="-725" font-family="Helvetica,sans-Serif" font-size="10.00">_spec_handler::on_iso_date</text>
</a>
</g>
</g>
<!-- Node1&#45;&gt;Node22 -->
<g id="edge21_Node000001_Node000022" class="edge">
<title>Node1&#45;&gt;Node22</title>
<g id="a_edge21_Node000001_Node000022"><a xlink:title=" ">
<path fill="none" stroke="#63b8ff" d="M279.46,-865.05C260.89,-835.48 225.38,-785.7 182,-758 175.99,-754.16 169.38,-750.9 162.57,-748.14"/>
<polygon fill="#63b8ff" stroke="#63b8ff" points="276.67,-867.2 284.88,-873.89 282.64,-863.54 276.67,-867.2"/>
</a>
</g>
</g>
<!-- Node23 -->
<g id="Node000023" class="node">
<title>Node23</title>
<g id="a_Node000023"><a xlink:href="structdetail_1_1null__chrono__spec__handler.html#a63a1c3eb039d80049f5756bb9b57b61b" target="_top" xlink:title=" ">
<polygon fill="white" stroke="#666666" points="167,-700 15,-700 15,-670 167,-670 167,-700"/>
<text text-anchor="start" x="23" y="-688" font-family="Helvetica,sans-Serif" font-size="10.00">detail::null_chrono</text>
<text text-anchor="middle" x="91" y="-677" font-family="Helvetica,sans-Serif" font-size="10.00">_spec_handler::on_iso_time</text>
</a>
</g>
</g>
<!-- Node1&#45;&gt;Node23 -->
<g id="edge22_Node000001_Node000023" class="edge">
<title>Node1&#45;&gt;Node23</title>
<g id="a_edge22_Node000001_Node000023"><a xlink:title=" ">
<path fill="none" stroke="#63b8ff" d="M285.01,-864.19C270.34,-825.08 236.47,-749.42 182,-709 177.32,-705.53 172.19,-702.56 166.8,-700.02"/>
<polygon fill="#63b8ff" stroke="#63b8ff" points="281.78,-865.54 288.49,-873.74 288.36,-863.15 281.78,-865.54"/>
</a>
</g>
</g>
<!-- Node24 -->
<g id="Node000024" class="node">
<title>Node24</title>
<g id="a_Node000024"><a xlink:href="structdetail_1_1null__chrono__spec__handler.html#a93ce7df6443e0c515ee1058815bca9bd" target="_top" xlink:title=" ">
<polygon fill="white" stroke="#666666" points="161,-651.5 21,-651.5 21,-610.5 161,-610.5 161,-651.5"/>
<text text-anchor="start" x="29" y="-639.5" font-family="Helvetica,sans-Serif" font-size="10.00">detail::null_chrono</text>
<text text-anchor="start" x="29" y="-628.5" font-family="Helvetica,sans-Serif" font-size="10.00">_spec_handler::on_iso</text>
<text text-anchor="middle" x="91" y="-617.5" font-family="Helvetica,sans-Serif" font-size="10.00">_week_based_short_year</text>
</a>
</g>
</g>
<!-- Node1&#45;&gt;Node24 -->
<g id="edge23_Node000001_Node000024" class="edge">
<title>Node1&#45;&gt;Node24</title>
<g id="a_edge23_Node000001_Node000024"><a xlink:title=" ">
<path fill="none" stroke="#63b8ff" d="M288.02,-863.85C276.57,-817.15 245.68,-716.72 182,-661 175.8,-655.58 168.59,-651.13 161,-647.48"/>
<polygon fill="#63b8ff" stroke="#63b8ff" points="284.65,-864.81 290.35,-873.74 291.47,-863.2 284.65,-864.81"/>
</a>
</g>
</g>
<!-- Node25 -->
<g id="Node000025" class="node">
<title>Node25</title>
<g id="a_Node000025"><a xlink:href="structdetail_1_1null__chrono__spec__handler.html#af63ecf65320c6ebe2beb9436c8fc8f9d" target="_top" xlink:title=" ">
<polygon fill="white" stroke="#666666" points="153,-592.5 29,-592.5 29,-551.5 153,-551.5 153,-592.5"/>
<text text-anchor="start" x="37" y="-580.5" font-family="Helvetica,sans-Serif" font-size="10.00">detail::null_chrono</text>
<text text-anchor="start" x="37" y="-569.5" font-family="Helvetica,sans-Serif" font-size="10.00">_spec_handler::on_iso</text>
<text text-anchor="middle" x="91" y="-558.5" font-family="Helvetica,sans-Serif" font-size="10.00">_week_based_year</text>
</a>
</g>
</g>
<!-- Node1&#45;&gt;Node25 -->
<g id="edge24_Node000001_Node000025" class="edge">
<title>Node1&#45;&gt;Node25</title>
<g id="a_edge24_Node000001_Node000025"><a xlink:title=" ">
<path fill="none" stroke="#63b8ff" d="M290.86,-863.74C283.73,-808.38 259.12,-675.44 182,-602 173.89,-594.28 163.74,-588.54 153.2,-584.28"/>
<polygon fill="#63b8ff" stroke="#63b8ff" points="287.39,-864.23 292.06,-873.74 294.34,-863.4 287.39,-864.23"/>
</a>
</g>
</g>
<!-- Node26 -->
<g id="Node000026" class="node">
<title>Node26</title>
<g id="a_Node000026"><a xlink:href="structdetail_1_1null__chrono__spec__handler.html#a11a7d052395c17a9d08c3aeaabf094d8" target="_top" xlink:title=" ">
<polygon fill="white" stroke="#666666" points="153,-533.5 29,-533.5 29,-492.5 153,-492.5 153,-533.5"/>
<text text-anchor="start" x="37" y="-521.5" font-family="Helvetica,sans-Serif" font-size="10.00">detail::null_chrono</text>
<text text-anchor="start" x="37" y="-510.5" font-family="Helvetica,sans-Serif" font-size="10.00">_spec_handler::on_iso</text>
<text text-anchor="middle" x="91" y="-499.5" font-family="Helvetica,sans-Serif" font-size="10.00">_week_of_year</text>
</a>
</g>
</g>
<!-- Node1&#45;&gt;Node26 -->
<g id="edge25_Node000001_Node000026" class="edge">
<title>Node1&#45;&gt;Node26</title>
<g id="a_edge25_Node000001_Node000026"><a xlink:title=" ">
<path fill="none" stroke="#63b8ff" d="M292.79,-863.52C289.64,-800.27 272.69,-634.6 182,-543 174,-534.92 163.78,-529.02 153.11,-524.71"/>
<polygon fill="#63b8ff" stroke="#63b8ff" points="289.3,-863.92 293.22,-873.76 296.3,-863.63 289.3,-863.92"/>
</a>
</g>
</g>
<!-- Node27 -->
<g id="Node000027" class="node">
<title>Node27</title>
<g id="a_Node000027"><a xlink:href="structdetail_1_1null__chrono__spec__handler.html#a197c5b2f8c1411c678ee7545425509af" target="_top" xlink:title=" ">
<polygon fill="white" stroke="#666666" points="166.5,-474 15.5,-474 15.5,-444 166.5,-444 166.5,-474"/>
<text text-anchor="start" x="23.5" y="-462" font-family="Helvetica,sans-Serif" font-size="10.00">detail::null_chrono</text>
<text text-anchor="middle" x="91" y="-451" font-family="Helvetica,sans-Serif" font-size="10.00">_spec_handler::on_loc_date</text>
</a>
</g>
</g>
<!-- Node1&#45;&gt;Node27 -->
<g id="edge26_Node000001_Node000027" class="edge">
<title>Node1&#45;&gt;Node27</title>
<g id="a_edge26_Node000001_Node000027"><a xlink:title=" ">
<path fill="none" stroke="#63b8ff" d="M289.84,-863.73C277.79,-783.9 236.98,-539.1 182,-484 177.53,-479.52 172.34,-475.83 166.74,-472.79"/>
<polygon fill="#63b8ff" stroke="#63b8ff" points="286.41,-864.49 291.35,-873.86 293.34,-863.46 286.41,-864.49"/>
</a>
</g>
</g>
<!-- Node28 -->
<g id="Node000028" class="node">
<title>Node28</title>
<g id="a_Node000028"><a xlink:href="structdetail_1_1null__chrono__spec__handler.html#af3faa3ff0b6c5c1b2f3b6aee427434bd" target="_top" xlink:title=" ">
<polygon fill="white" stroke="#666666" points="167,-426 15,-426 15,-396 167,-396 167,-426"/>
<text text-anchor="start" x="23" y="-414" font-family="Helvetica,sans-Serif" font-size="10.00">detail::null_chrono</text>
<text text-anchor="middle" x="91" y="-403" font-family="Helvetica,sans-Serif" font-size="10.00">_spec_handler::on_loc_time</text>
</a>
</g>
</g>
<!-- Node1&#45;&gt;Node28 -->
<g id="edge27_Node000001_Node000028" class="edge">
<title>Node1&#45;&gt;Node28</title>
<g id="a_edge27_Node000001_Node000028"><a xlink:title=" ">
<path fill="none" stroke="#63b8ff" d="M290.68,-863.83C280.57,-777.85 243.37,-497.6 182,-435 177.7,-430.61 172.69,-427 167.28,-424.02"/>
<polygon fill="#63b8ff" stroke="#63b8ff" points="287.23,-864.45 291.86,-873.99 294.19,-863.65 287.23,-864.45"/>
</a>
</g>
</g>
<!-- Node29 -->
<g id="Node000029" class="node">
<title>Node29</title>
<g id="a_Node000029"><a xlink:href="structdetail_1_1null__chrono__spec__handler.html#a45e2dd30f270099fe72285dee94a62c7" target="_top" xlink:title=" ">
<polygon fill="white" stroke="#666666" points="163,-378 19,-378 19,-348 163,-348 163,-378"/>
<text text-anchor="start" x="27" y="-366" font-family="Helvetica,sans-Serif" font-size="10.00">detail::null_chrono</text>
<text text-anchor="middle" x="91" y="-355" font-family="Helvetica,sans-Serif" font-size="10.00">_spec_handler::on_minute</text>
</a>
</g>
</g>
<!-- Node1&#45;&gt;Node29 -->
<g id="edge28_Node000001_Node000029" class="edge">
<title>Node1&#45;&gt;Node29</title>
<g id="a_edge28_Node000001_Node000029"><a xlink:title=" ">
<path fill="none" stroke="#63b8ff" d="M291.33,-863.91C282.89,-772.27 249.39,-457.28 182,-387 176.63,-381.4 170.11,-377.05 163.06,-373.69"/>
<polygon fill="#63b8ff" stroke="#63b8ff" points="287.85,-864.3 292.23,-873.95 294.82,-863.68 287.85,-864.3"/>
</a>
</g>
</g>
<!-- Node30 -->
<g id="Node000030" class="node">
<title>Node30</title>
<g id="a_Node000030"><a xlink:href="structdetail_1_1null__chrono__spec__handler.html#a77605782c47cf9d99407c22c30072f75" target="_top" xlink:title=" ">
<polygon fill="white" stroke="#666666" points="173,-330 9,-330 9,-300 173,-300 173,-330"/>
<text text-anchor="start" x="17" y="-318" font-family="Helvetica,sans-Serif" font-size="10.00">detail::null_chrono</text>
<text text-anchor="middle" x="91" y="-307" font-family="Helvetica,sans-Serif" font-size="10.00">_spec_handler::on_offset_year</text>
</a>
</g>
</g>
<!-- Node1&#45;&gt;Node30 -->
<g id="edge29_Node000001_Node000030" class="edge">
<title>Node1&#45;&gt;Node30</title>
<g id="a_edge29_Node000001_Node000030"><a xlink:title=" ">
<path fill="none" stroke="#63b8ff" d="M291.84,-863.77C284.94,-766.44 255.38,-416.96 182,-339 178.79,-335.59 175.15,-332.64 171.22,-330.09"/>
<polygon fill="#63b8ff" stroke="#63b8ff" points="288.36,-864.13 292.54,-873.87 295.34,-863.65 288.36,-864.13"/>
</a>
</g>
</g>
<!-- Node31 -->
<g id="Node000031" class="node">
<title>Node31</title>
<g id="a_Node000031"><a xlink:href="structdetail_1_1null__chrono__spec__handler.html#a8a92d298bc172410b1866997409a00e7" target="_top" xlink:title=" ">
<polygon fill="white" stroke="#666666" points="163,-282 19,-282 19,-252 163,-252 163,-282"/>
<text text-anchor="start" x="27" y="-270" font-family="Helvetica,sans-Serif" font-size="10.00">detail::null_chrono</text>
<text text-anchor="middle" x="91" y="-259" font-family="Helvetica,sans-Serif" font-size="10.00">_spec_handler::on_second</text>
</a>
</g>
</g>
<!-- Node1&#45;&gt;Node31 -->
<g id="edge30_Node000001_Node000031" class="edge">
<title>Node1&#45;&gt;Node31</title>
<g id="a_edge30_Node000001_Node000031"><a xlink:title=" ">
<path fill="none" stroke="#63b8ff" d="M292.3,-863.93C286.88,-761.57 261.47,-376.77 182,-291 176.72,-285.31 170.26,-280.9 163.25,-277.51"/>
<polygon fill="#63b8ff" stroke="#63b8ff" points="288.8,-864.15 292.81,-873.96 295.79,-863.79 288.8,-864.15"/>
</a>
</g>
</g>
<!-- Node32 -->
<g id="Node000032" class="node">
<title>Node32</title>
<g id="a_Node000032"><a xlink:href="structdetail_1_1null__chrono__spec__handler.html#aa8a895169ab6c0820bd78b2ea247d0a8" target="_top" xlink:title=" ">
<polygon fill="white" stroke="#666666" points="171.5,-234 10.5,-234 10.5,-204 171.5,-204 171.5,-234"/>
<text text-anchor="start" x="18.5" y="-222" font-family="Helvetica,sans-Serif" font-size="10.00">detail::null_chrono</text>
<text text-anchor="middle" x="91" y="-211" font-family="Helvetica,sans-Serif" font-size="10.00">_spec_handler::on_short_year</text>
</a>
</g>
</g>
<!-- Node1&#45;&gt;Node32 -->
<g id="edge31_Node000001_Node000032" class="edge">
<title>Node1&#45;&gt;Node32</title>
<g id="a_edge31_Node000001_Node000032"><a xlink:title=" ">
<path fill="none" stroke="#63b8ff" d="M292.67,-863.69C288.61,-755.91 267.47,-336.5 182,-243 178.95,-239.66 175.48,-236.76 171.74,-234.25"/>
<polygon fill="#63b8ff" stroke="#63b8ff" points="289.18,-864.06 293.04,-873.93 296.17,-863.81 289.18,-864.06"/>
</a>
</g>
</g>
<!-- Node33 -->
<g id="Node000033" class="node">
<title>Node33</title>
<g id="a_Node000033"><a xlink:href="structdetail_1_1null__chrono__spec__handler.html#ab2cf7cdedee7073208d59317834a5004" target="_top" xlink:title=" ">
<polygon fill="white" stroke="#666666" points="167,-186 15,-186 15,-156 167,-156 167,-186"/>
<text text-anchor="start" x="23" y="-174" font-family="Helvetica,sans-Serif" font-size="10.00">detail::null_chrono</text>
<text text-anchor="middle" x="91" y="-163" font-family="Helvetica,sans-Serif" font-size="10.00">_spec_handler::on_tz_name</text>
</a>
</g>
</g>
<!-- Node1&#45;&gt;Node33 -->
<g id="edge32_Node000001_Node000033" class="edge">
<title>Node1&#45;&gt;Node33</title>
<g id="a_edge32_Node000001_Node000033"><a xlink:title=" ">
<path fill="none" stroke="#63b8ff" d="M293,-863.63C290.24,-750.87 273.54,-296.32 182,-195 177.77,-190.32 172.74,-186.51 167.26,-183.41"/>
<polygon fill="#63b8ff" stroke="#63b8ff" points="289.5,-863.81 293.23,-873.73 296.5,-863.65 289.5,-863.81"/>
</a>
</g>
</g>
<!-- Node34 -->
<g id="Node000034" class="node">
<title>Node34</title>
<g id="a_Node000034"><a xlink:href="structdetail_1_1null__chrono__spec__handler.html#aa5544c849185f727610486b43c19da05" target="_top" xlink:title=" ">
<polygon fill="white" stroke="#666666" points="165,-138 17,-138 17,-108 165,-108 165,-138"/>
<text text-anchor="start" x="25" y="-126" font-family="Helvetica,sans-Serif" font-size="10.00">detail::null_chrono</text>
<text text-anchor="middle" x="91" y="-115" font-family="Helvetica,sans-Serif" font-size="10.00">_spec_handler::on_us_date</text>
</a>
</g>
</g>
<!-- Node1&#45;&gt;Node34 -->
<g id="edge33_Node000001_Node000034" class="edge">
<title>Node1&#45;&gt;Node34</title>
<g id="a_edge33_Node000001_Node000034"><a xlink:title=" ">
<path fill="none" stroke="#63b8ff" d="M293.29,-863.79C291.79,-746.6 279.69,-256.23 182,-147 177.26,-141.7 171.49,-137.51 165.18,-134.21"/>
<polygon fill="#63b8ff" stroke="#63b8ff" points="289.79,-863.98 293.4,-873.94 296.79,-863.9 289.79,-863.98"/>
</a>
</g>
</g>
<!-- Node35 -->
<g id="Node000035" class="node">
<title>Node35</title>
<g id="a_Node000035"><a xlink:href="structdetail_1_1null__chrono__spec__handler.html#a4d07db0708c833aeac497aa857fbd28a" target="_top" xlink:title=" ">
<polygon fill="white" stroke="#666666" points="153.5,-89.5 28.5,-89.5 28.5,-48.5 153.5,-48.5 153.5,-89.5"/>
<text text-anchor="start" x="36.5" y="-77.5" font-family="Helvetica,sans-Serif" font-size="10.00">detail::null_chrono</text>
<text text-anchor="start" x="36.5" y="-66.5" font-family="Helvetica,sans-Serif" font-size="10.00">_spec_handler::on_utc</text>
<text text-anchor="middle" x="91" y="-55.5" font-family="Helvetica,sans-Serif" font-size="10.00">_offset</text>
</a>
</g>
</g>
<!-- Node1&#45;&gt;Node35 -->
<g id="edge34_Node000001_Node000035" class="edge">
<title>Node1&#45;&gt;Node35</title>
<g id="a_edge34_Node000001_Node000035"><a xlink:title=" ">
<path fill="none" stroke="#63b8ff" d="M293.39,-863.47C292.35,-741.51 282.06,-219.09 182,-99 174.62,-90.14 164.55,-83.89 153.81,-79.47"/>
<polygon fill="#63b8ff" stroke="#63b8ff" points="289.89,-863.72 293.46,-873.7 296.89,-863.68 289.89,-863.72"/>
</a>
</g>
</g>
<!-- Node36 -->
<g id="Node000036" class="node">
<title>Node36</title>
<g id="a_Node000036"><a xlink:href="structdetail_1_1null__chrono__spec__handler.html#aa6d8751180a6894730cdf7a699ec496a" target="_top" xlink:title=" ">
<polygon fill="white" stroke="#666666" points="156.5,-30 25.5,-30 25.5,0 156.5,0 156.5,-30"/>
<text text-anchor="start" x="33.5" y="-18" font-family="Helvetica,sans-Serif" font-size="10.00">detail::null_chrono</text>
<text text-anchor="middle" x="91" y="-7" font-family="Helvetica,sans-Serif" font-size="10.00">_spec_handler::on_year</text>
</a>
</g>
</g>
<!-- Node1&#45;&gt;Node36 -->
<g id="edge35_Node000001_Node000036" class="edge">
<title>Node1&#45;&gt;Node36</title>
<g id="a_edge35_Node000001_Node000036"><a xlink:title=" ">
<path fill="none" stroke="#63b8ff" d="M293.79,-863.52C294.74,-735.91 292.6,-167.33 182,-40 175.3,-32.29 166.45,-26.86 156.91,-23.05"/>
<polygon fill="#63b8ff" stroke="#63b8ff" points="290.29,-863.82 293.7,-873.85 297.29,-863.88 290.29,-863.82"/>
</a>
</g>
</g>
</g>
</svg>
