<?xml version="1.0" encoding="UTF-8" standalone="no"?>
<!DOCTYPE svg PUBLIC "-//W3C//DTD SVG 1.1//EN"
 "http://www.w3.org/Graphics/SVG/1.1/DTD/svg11.dtd">
<!-- Generated by graphviz version 2.43.0 (0)
 -->
<!-- Title: formatter&lt; T, char, typename std::enable_if&lt; std::is_base_of&lt; std::exception, T &gt;::value &gt;::type &gt;::format Pages: 1 -->
<svg width="440pt" height="71pt"
 viewBox="0.00 0.00 440.00 71.00" xmlns="http://www.w3.org/2000/svg" xmlns:xlink="http://www.w3.org/1999/xlink">
<g id="graph0" class="graph" transform="scale(1 1) rotate(0) translate(4 67)">
<title>formatter&lt; T, char, typename std::enable_if&lt; std::is_base_of&lt; std::exception, T &gt;::value &gt;::type &gt;::format</title>
<!-- Node1 -->
<g id="Node000001" class="node">
<title>Node1</title>
<g id="a_Node000001"><a xlink:title=" ">
<polygon fill="#999999" stroke="#666666" points="145,-63 0,-63 0,0 145,0 145,-63"/>
<text text-anchor="start" x="8" y="-51" font-family="Helvetica,sans-Serif" font-size="10.00">formatter&lt; T, char,</text>
<text text-anchor="start" x="8" y="-40" font-family="Helvetica,sans-Serif" font-size="10.00"> typename std::enable</text>
<text text-anchor="start" x="8" y="-29" font-family="Helvetica,sans-Serif" font-size="10.00">_if&lt; std::is_base_of&lt;</text>
<text text-anchor="start" x="8" y="-18" font-family="Helvetica,sans-Serif" font-size="10.00"> std::exception, T &gt;::value</text>
<text text-anchor="middle" x="72.5" y="-7" font-family="Helvetica,sans-Serif" font-size="10.00"> &gt;::type &gt;::format</text>
</a>
</g>
</g>
<!-- Node2 -->
<g id="Node000002" class="node">
<title>Node2</title>
<g id="a_Node000002"><a xlink:href="classbasic__string__view.html#a039a92fee947263a6c75dc6afd879719" target="_top" xlink:title=" ">
<polygon fill="white" stroke="#666666" points="290,-46.5 181,-46.5 181,-16.5 290,-16.5 290,-46.5"/>
<text text-anchor="start" x="189" y="-34.5" font-family="Helvetica,sans-Serif" font-size="10.00">basic_string_view::</text>
<text text-anchor="middle" x="235.5" y="-23.5" font-family="Helvetica,sans-Serif" font-size="10.00">basic_string_view</text>
</a>
</g>
</g>
<!-- Node1&#45;&gt;Node2 -->
<g id="edge1_Node000001_Node000002" class="edge">
<title>Node1&#45;&gt;Node2</title>
<g id="a_edge1_Node000001_Node000002"><a xlink:title=" ">
<path fill="none" stroke="#63b8ff" d="M145.05,-31.5C153.53,-31.5 162.15,-31.5 170.51,-31.5"/>
<polygon fill="#63b8ff" stroke="#63b8ff" points="170.56,-35 180.56,-31.5 170.56,-28 170.56,-35"/>
</a>
</g>
</g>
<!-- Node3 -->
<g id="Node000003" class="node">
<title>Node3</title>
<g id="a_Node000003"><a xlink:href="namespacedetail.html#a75ed2634319883d038944529dbb954e2" target="_top" xlink:title=" ">
<polygon fill="white" stroke="#666666" points="432,-46.5 326,-46.5 326,-16.5 432,-16.5 432,-46.5"/>
<text text-anchor="start" x="334" y="-34.5" font-family="Helvetica,sans-Serif" font-size="10.00">detail::is_constant</text>
<text text-anchor="middle" x="379" y="-23.5" font-family="Helvetica,sans-Serif" font-size="10.00">_evaluated</text>
</a>
</g>
</g>
<!-- Node2&#45;&gt;Node3 -->
<g id="edge2_Node000002_Node000003" class="edge">
<title>Node2&#45;&gt;Node3</title>
<g id="a_edge2_Node000002_Node000003"><a xlink:title=" ">
<path fill="none" stroke="#63b8ff" d="M290.4,-31.5C298.62,-31.5 307.16,-31.5 315.54,-31.5"/>
<polygon fill="#63b8ff" stroke="#63b8ff" points="315.65,-35 325.65,-31.5 315.65,-28 315.65,-35"/>
</a>
</g>
</g>
</g>
</svg>
