<?xml version="1.0" encoding="UTF-8" standalone="no"?>
<!DOCTYPE svg PUBLIC "-//W3C//DTD SVG 1.1//EN"
 "http://www.w3.org/Graphics/SVG/1.1/DTD/svg11.dtd">
<!-- Generated by graphviz version 2.43.0 (0)
 -->
<!-- Title: formatter&lt; std::tm, Char &gt;::do_format Pages: 1 -->
<svg width="281pt" height="113pt"
 viewBox="0.00 0.00 281.00 112.50" xmlns="http://www.w3.org/2000/svg" xmlns:xlink="http://www.w3.org/1999/xlink">
<g id="graph0" class="graph" transform="scale(1 1) rotate(0) translate(4 108.5)">
<title>formatter&lt; std::tm, Char &gt;::do_format</title>
<!-- Node1 -->
<g id="Node000001" class="node">
<title>Node1</title>
<g id="a_Node000001"><a xlink:title=" ">
<polygon fill="#999999" stroke="#666666" points="112,-61.5 0,-61.5 0,-31.5 112,-31.5 112,-61.5"/>
<text text-anchor="start" x="8" y="-49.5" font-family="Helvetica,sans-Serif" font-size="10.00">formatter&lt; std::tm,</text>
<text text-anchor="middle" x="56" y="-38.5" font-family="Helvetica,sans-Serif" font-size="10.00"> Char &gt;::do_format</text>
</a>
</g>
</g>
<!-- Node2 -->
<g id="Node000002" class="node">
<title>Node2</title>
<g id="a_Node000002"><a xlink:href="classbasic__specs.html#ac097e3209fd0fea8a630df81a5218146" target="_top" xlink:title=" ">
<polygon fill="white" stroke="#666666" points="272,-104.5 149,-104.5 149,-74.5 272,-74.5 272,-104.5"/>
<text text-anchor="start" x="157" y="-92.5" font-family="Helvetica,sans-Serif" font-size="10.00">basic_specs::dynamic</text>
<text text-anchor="middle" x="210.5" y="-81.5" font-family="Helvetica,sans-Serif" font-size="10.00">_width</text>
</a>
</g>
</g>
<!-- Node1&#45;&gt;Node2 -->
<g id="edge1_Node000001_Node000002" class="edge">
<title>Node1&#45;&gt;Node2</title>
<g id="a_edge1_Node000001_Node000002"><a xlink:title=" ">
<path fill="none" stroke="#63b8ff" d="M110.34,-61.54C121.95,-64.81 134.34,-68.31 146.29,-71.68"/>
<polygon fill="#63b8ff" stroke="#63b8ff" points="145.62,-75.12 156.19,-74.47 147.52,-68.39 145.62,-75.12"/>
</a>
</g>
</g>
<!-- Node3 -->
<g id="Node000003" class="node">
<title>Node3</title>
<g id="a_Node000003"><a xlink:href="classlocale__ref.html#a87fbf5d1da66aad68d906cff8a02a030" target="_top" xlink:title=" ">
<polygon fill="white" stroke="#666666" points="269.5,-56 151.5,-56 151.5,-37 269.5,-37 269.5,-56"/>
<text text-anchor="middle" x="210.5" y="-44" font-family="Helvetica,sans-Serif" font-size="10.00">locale_ref::locale_ref</text>
</a>
</g>
</g>
<!-- Node1&#45;&gt;Node3 -->
<g id="edge2_Node000001_Node000003" class="edge">
<title>Node1&#45;&gt;Node3</title>
<g id="a_edge2_Node000001_Node000003"><a xlink:title=" ">
<path fill="none" stroke="#63b8ff" d="M112.06,-46.5C121.55,-46.5 131.53,-46.5 141.32,-46.5"/>
<polygon fill="#63b8ff" stroke="#63b8ff" points="141.44,-50 151.44,-46.5 141.44,-43 141.44,-50"/>
</a>
</g>
</g>
<!-- Node4 -->
<g id="Node000004" class="node">
<title>Node4</title>
<g id="a_Node000004"><a xlink:href="classbasic__specs.html#a700f8055a08c9202a43f3207d46c6035" target="_top" xlink:title=" ">
<polygon fill="white" stroke="#666666" points="273,-19 148,-19 148,0 273,0 273,-19"/>
<text text-anchor="middle" x="210.5" y="-7" font-family="Helvetica,sans-Serif" font-size="10.00">basic_specs::localized</text>
</a>
</g>
</g>
<!-- Node1&#45;&gt;Node4 -->
<g id="edge3_Node000001_Node000004" class="edge">
<title>Node1&#45;&gt;Node4</title>
<g id="a_edge3_Node000001_Node000004"><a xlink:title=" ">
<path fill="none" stroke="#63b8ff" d="M112.06,-33.14C127.87,-29.3 145.01,-25.15 160.44,-21.4"/>
<polygon fill="#63b8ff" stroke="#63b8ff" points="161.41,-24.77 170.3,-19.01 159.76,-17.97 161.41,-24.77"/>
</a>
</g>
</g>
</g>
</svg>
