<?xml version="1.0" encoding="UTF-8" standalone="no"?>
<!DOCTYPE svg PUBLIC "-//W3C//DTD SVG 1.1//EN"
 "http://www.w3.org/Graphics/SVG/1.1/DTD/svg11.dtd">
<!-- Generated by graphviz version 2.43.0 (0)
 -->
<!-- Title: formatter&lt; group_digits_view&lt; T &gt; &gt;::parse Pages: 1 -->
<svg width="474pt" height="181pt"
 viewBox="0.00 0.00 474.00 181.00" xmlns="http://www.w3.org/2000/svg" xmlns:xlink="http://www.w3.org/1999/xlink">
<g id="graph0" class="graph" transform="scale(1 1) rotate(0) translate(4 177)">
<title>formatter&lt; group_digits_view&lt; T &gt; &gt;::parse</title>
<!-- Node1 -->
<g id="Node000001" class="node">
<title>Node1</title>
<g id="a_Node000001"><a xlink:title=" ">
<polygon fill="#999999" stroke="#666666" points="134,-141.5 0,-141.5 0,-111.5 134,-111.5 134,-141.5"/>
<text text-anchor="start" x="8" y="-129.5" font-family="Helvetica,sans-Serif" font-size="10.00">formatter&lt; group_digits</text>
<text text-anchor="middle" x="67" y="-118.5" font-family="Helvetica,sans-Serif" font-size="10.00">_view&lt; T &gt; &gt;::parse</text>
</a>
</g>
</g>
<!-- Node2 -->
<g id="Node000002" class="node">
<title>Node2</title>
<g id="a_Node000002"><a xlink:href="classparse__context.html#a1d66dcf5888a1473d1ac88ee7848426b" target="_top" xlink:title=" ">
<polygon fill="white" stroke="#666666" points="289,-173 170,-173 170,-154 289,-154 289,-173"/>
<text text-anchor="middle" x="229.5" y="-161" font-family="Helvetica,sans-Serif" font-size="10.00">parse_context::begin</text>
</a>
</g>
</g>
<!-- Node1&#45;&gt;Node2 -->
<g id="edge1_Node000001_Node000002" class="edge">
<title>Node1&#45;&gt;Node2</title>
<g id="a_edge1_Node000001_Node000002"><a xlink:title=" ">
<path fill="none" stroke="#63b8ff" d="M133.28,-141.55C147.95,-144.93 163.3,-148.47 177.3,-151.7"/>
<polygon fill="#63b8ff" stroke="#63b8ff" points="176.69,-155.15 187.22,-153.98 178.26,-148.33 176.69,-155.15"/>
</a>
</g>
</g>
<!-- Node3 -->
<g id="Node000003" class="node">
<title>Node3</title>
<g id="a_Node000003"><a xlink:href="classparse__context.html#ad10a0f3a57fbac77c207ae4bf8475bc2" target="_top" xlink:title="Returns an iterator past the end of the format string range being parsed.">
<polygon fill="white" stroke="#666666" points="284.5,-136 174.5,-136 174.5,-117 284.5,-117 284.5,-136"/>
<text text-anchor="middle" x="229.5" y="-124" font-family="Helvetica,sans-Serif" font-size="10.00">parse_context::end</text>
</a>
</g>
</g>
<!-- Node1&#45;&gt;Node3 -->
<g id="edge2_Node000001_Node000003" class="edge">
<title>Node1&#45;&gt;Node3</title>
<g id="a_edge2_Node000001_Node000003"><a xlink:title=" ">
<path fill="none" stroke="#63b8ff" d="M134.21,-126.5C144.08,-126.5 154.24,-126.5 164.07,-126.5"/>
<polygon fill="#63b8ff" stroke="#63b8ff" points="164.17,-130 174.17,-126.5 164.17,-123 164.17,-130"/>
</a>
</g>
</g>
<!-- Node4 -->
<g id="Node000004" class="node">
<title>Node4</title>
<g id="a_Node000004"><a xlink:href="namespacedetail.html#afbb7f1837c4f769e74317dec368c5206" target="_top" xlink:title=" ">
<polygon fill="white" stroke="#666666" points="287.5,-98.5 171.5,-98.5 171.5,-68.5 287.5,-68.5 287.5,-98.5"/>
<text text-anchor="start" x="179.5" y="-86.5" font-family="Helvetica,sans-Serif" font-size="10.00">detail::parse_format</text>
<text text-anchor="middle" x="229.5" y="-75.5" font-family="Helvetica,sans-Serif" font-size="10.00">_specs</text>
</a>
</g>
</g>
<!-- Node1&#45;&gt;Node4 -->
<g id="edge3_Node000001_Node000004" class="edge">
<title>Node1&#45;&gt;Node4</title>
<g id="a_edge3_Node000001_Node000004"><a xlink:title=" ">
<path fill="none" stroke="#63b8ff" d="M124.14,-111.46C136.6,-108.12 149.91,-104.55 162.72,-101.12"/>
<polygon fill="#63b8ff" stroke="#63b8ff" points="163.64,-104.5 172.4,-98.53 161.83,-97.74 163.64,-104.5"/>
</a>
</g>
</g>
<!-- Node5 -->
<g id="Node000005" class="node">
<title>Node5</title>
<g id="a_Node000005"><a xlink:href="namespacedetail.html#a52a5e2ed06c229dcf95ea5c46d48d05e" target="_top" xlink:title=" ">
<polygon fill="white" stroke="#666666" points="425,-167 366,-167 366,-148 425,-148 425,-167"/>
<text text-anchor="middle" x="395.5" y="-155" font-family="Helvetica,sans-Serif" font-size="10.00">detail::in</text>
</a>
</g>
</g>
<!-- Node4&#45;&gt;Node5 -->
<g id="edge4_Node000004_Node000005" class="edge">
<title>Node4&#45;&gt;Node5</title>
<g id="a_edge4_Node000004_Node000005"><a xlink:title=" ">
<path fill="none" stroke="#63b8ff" d="M270.36,-98.57C276.76,-101.54 283.19,-104.88 289,-108.5 306.92,-119.67 306.29,-129.71 325,-139.5 334.44,-144.44 345.33,-148.09 355.64,-150.76"/>
<polygon fill="#63b8ff" stroke="#63b8ff" points="355.16,-154.24 365.69,-153.11 356.75,-147.42 355.16,-154.24"/>
</a>
</g>
</g>
<!-- Node6 -->
<g id="Node000006" class="node">
<title>Node6</title>
<g id="a_Node000006"><a xlink:href="namespacedetail.html#a802c50a56a3495fdab6020b375ba1389" target="_top" xlink:title=" ">
<polygon fill="white" stroke="#666666" points="466,-130 325,-130 325,-111 466,-111 466,-130"/>
<text text-anchor="middle" x="395.5" y="-118" font-family="Helvetica,sans-Serif" font-size="10.00">detail::is_arithmetic_type</text>
</a>
</g>
</g>
<!-- Node4&#45;&gt;Node6 -->
<g id="edge5_Node000004_Node000006" class="edge">
<title>Node4&#45;&gt;Node6</title>
<g id="a_edge5_Node000004_Node000006"><a xlink:title=" ">
<path fill="none" stroke="#63b8ff" d="M287.86,-96.44C305.54,-100.43 324.91,-104.8 342.23,-108.71"/>
<polygon fill="#63b8ff" stroke="#63b8ff" points="341.64,-112.16 352.16,-110.95 343.18,-105.33 341.64,-112.16"/>
</a>
</g>
</g>
<!-- Node7 -->
<g id="Node000007" class="node">
<title>Node7</title>
<g id="a_Node000007"><a xlink:href="namespacedetail.html#ac9e2fcbf2e068bb286f629946e0bb31d" target="_top" xlink:title=" ">
<polygon fill="white" stroke="#666666" points="449,-93 342,-93 342,-74 449,-74 449,-93"/>
<text text-anchor="middle" x="395.5" y="-81" font-family="Helvetica,sans-Serif" font-size="10.00">detail::parse_align</text>
</a>
</g>
</g>
<!-- Node4&#45;&gt;Node7 -->
<g id="edge6_Node000004_Node000007" class="edge">
<title>Node4&#45;&gt;Node7</title>
<g id="a_edge6_Node000004_Node000007"><a xlink:title=" ">
<path fill="none" stroke="#63b8ff" d="M287.86,-83.5C301.98,-83.5 317.18,-83.5 331.55,-83.5"/>
<polygon fill="#63b8ff" stroke="#63b8ff" points="331.84,-87 341.84,-83.5 331.84,-80 331.84,-87"/>
</a>
</g>
</g>
<!-- Node8 -->
<g id="Node000008" class="node">
<title>Node8</title>
<g id="a_Node000008"><a xlink:href="format-inl_8h.html#a5555893692b00b61b3886349332fd01f" target="_top" xlink:title=" ">
<polygon fill="white" stroke="#666666" points="432.5,-56 358.5,-56 358.5,-37 432.5,-37 432.5,-56"/>
<text text-anchor="middle" x="395.5" y="-44" font-family="Helvetica,sans-Serif" font-size="10.00">report_error</text>
</a>
</g>
</g>
<!-- Node4&#45;&gt;Node8 -->
<g id="edge7_Node000004_Node000008" class="edge">
<title>Node4&#45;&gt;Node8</title>
<g id="a_edge7_Node000004_Node000008"><a xlink:title=" ">
<path fill="none" stroke="#63b8ff" d="M287.86,-70.56C307.75,-66.07 329.77,-61.1 348.61,-56.85"/>
<polygon fill="#63b8ff" stroke="#63b8ff" points="349.44,-60.25 358.43,-54.64 347.9,-53.43 349.44,-60.25"/>
</a>
</g>
</g>
<!-- Node9 -->
<g id="Node000009" class="node">
<title>Node9</title>
<g id="a_Node000009"><a xlink:href="classbasic__specs.html#ae6d1338471c931505ddcaf600557e830" target="_top" xlink:title=" ">
<polygon fill="white" stroke="#666666" points="457,-19 334,-19 334,0 457,0 457,-19"/>
<text text-anchor="middle" x="395.5" y="-7" font-family="Helvetica,sans-Serif" font-size="10.00">basic_specs::set_type</text>
</a>
</g>
</g>
<!-- Node4&#45;&gt;Node9 -->
<g id="edge8_Node000004_Node000009" class="edge">
<title>Node4&#45;&gt;Node9</title>
<g id="a_edge8_Node000004_Node000009"><a xlink:title=" ">
<path fill="none" stroke="#63b8ff" d="M252.56,-68.44C271.18,-56.27 298.92,-39.44 325,-28.5 330.75,-26.09 336.9,-23.89 343.08,-21.93"/>
<polygon fill="#63b8ff" stroke="#63b8ff" points="344.17,-25.25 352.74,-19.02 342.16,-18.55 344.17,-25.25"/>
</a>
</g>
</g>
</g>
</svg>
