<?xml version="1.0" encoding="UTF-8" standalone="no"?>
<!DOCTYPE svg PUBLIC "-//W3C//DTD SVG 1.1//EN"
 "http://www.w3.org/Graphics/SVG/1.1/DTD/svg11.dtd">
<!-- Generated by graphviz version 2.43.0 (0)
 -->
<!-- Title: formatter&lt; std::tm, Char &gt; Pages: 1 -->
<svg width="459pt" height="296pt"
 viewBox="0.00 0.00 459.00 295.50" xmlns="http://www.w3.org/2000/svg" xmlns:xlink="http://www.w3.org/1999/xlink">
<g id="graph0" class="graph" transform="scale(1 1) rotate(0) translate(4 291.5)">
<title>formatter&lt; std::tm, Char &gt;</title>
<!-- Node1 -->
<g id="Node000001" class="node">
<title>Node1</title>
<g id="a_Node000001"><a xlink:title=" ">
<polygon fill="#999999" stroke="#666666" points="112,-164 0,-164 0,-134 112,-134 112,-164"/>
<text text-anchor="start" x="8" y="-152" font-family="Helvetica,sans-Serif" font-size="10.00">formatter&lt; std::tm,</text>
<text text-anchor="middle" x="56" y="-141" font-family="Helvetica,sans-Serif" font-size="10.00"> Char &gt;</text>
</a>
</g>
</g>
<!-- Node2 -->
<g id="Node000002" class="node">
<title>Node2</title>
<g id="a_Node000002"><a xlink:href="structformatter_3_01day_00_01Char_01_4.html" target="_top" xlink:title=" ">
<polygon fill="white" stroke="#666666" points="287,-287.5 155,-287.5 155,-268.5 287,-268.5 287,-287.5"/>
<text text-anchor="middle" x="221" y="-275.5" font-family="Helvetica,sans-Serif" font-size="10.00">formatter&lt; day, Char &gt;</text>
</a>
</g>
</g>
<!-- Node1&#45;&gt;Node2 -->
<g id="edge1_Node000001_Node000002" class="edge">
<title>Node1&#45;&gt;Node2</title>
<g id="a_edge1_Node000001_Node000002"><a xlink:title=" ">
<path fill="none" stroke="#8b1a1a" d="M70.58,-172.98C86.08,-198.18 113.78,-237.12 148,-259 154.1,-262.9 160.98,-266 168,-268.47"/>
<polygon fill="#8b1a1a" stroke="#8b1a1a" points="73.57,-171.16 65.43,-164.38 67.56,-174.76 73.57,-171.16"/>
</a>
</g>
</g>
<!-- Node3 -->
<g id="Node000003" class="node">
<title>Node3</title>
<g id="a_Node000003"><a xlink:href="structformatter_3_01local__time_3_01Duration_01_4_00_01Char_01_4.html" target="_top" xlink:title=" ">
<polygon fill="white" stroke="#666666" points="283.5,-250 158.5,-250 158.5,-220 283.5,-220 283.5,-250"/>
<text text-anchor="start" x="166.5" y="-238" font-family="Helvetica,sans-Serif" font-size="10.00">formatter&lt; local_time</text>
<text text-anchor="middle" x="221" y="-227" font-family="Helvetica,sans-Serif" font-size="10.00">&lt; Duration &gt;, Char &gt;</text>
</a>
</g>
</g>
<!-- Node1&#45;&gt;Node3 -->
<g id="edge2_Node000001_Node000003" class="edge">
<title>Node1&#45;&gt;Node3</title>
<g id="a_edge2_Node000001_Node000003"><a xlink:title=" ">
<path fill="none" stroke="#8b1a1a" d="M83.98,-170.31C101.47,-183.37 125.18,-199.7 148,-211 154.61,-214.28 161.78,-217.27 168.94,-219.94"/>
<polygon fill="#8b1a1a" stroke="#8b1a1a" points="86,-167.45 75.92,-164.2 81.77,-173.03 86,-167.45"/>
</a>
</g>
</g>
<!-- Node4 -->
<g id="Node000004" class="node">
<title>Node4</title>
<g id="a_Node000004"><a xlink:href="structformatter_3_01month_00_01Char_01_4.html" target="_top" xlink:title=" ">
<polygon fill="white" stroke="#666666" points="294,-201.5 148,-201.5 148,-182.5 294,-182.5 294,-201.5"/>
<text text-anchor="middle" x="221" y="-189.5" font-family="Helvetica,sans-Serif" font-size="10.00">formatter&lt; month, Char &gt;</text>
</a>
</g>
</g>
<!-- Node1&#45;&gt;Node4 -->
<g id="edge3_Node000001_Node000004" class="edge">
<title>Node1&#45;&gt;Node4</title>
<g id="a_edge3_Node000001_Node000004"><a xlink:title=" ">
<path fill="none" stroke="#8b1a1a" d="M122.04,-166.16C143.09,-171.71 165.66,-177.66 183.83,-182.46"/>
<polygon fill="#8b1a1a" stroke="#8b1a1a" points="122.75,-162.72 112.18,-163.56 120.96,-169.49 122.75,-162.72"/>
</a>
</g>
</g>
<!-- Node5 -->
<g id="Node000005" class="node">
<title>Node5</title>
<g id="a_Node000005"><a xlink:href="structformatter_3_01sys__time_3_01Duration_01_4_00_01Char_01_4.html" target="_top" xlink:title=" ">
<polygon fill="white" stroke="#666666" points="281.5,-164 160.5,-164 160.5,-134 281.5,-134 281.5,-164"/>
<text text-anchor="start" x="168.5" y="-152" font-family="Helvetica,sans-Serif" font-size="10.00">formatter&lt; sys_time</text>
<text text-anchor="middle" x="221" y="-141" font-family="Helvetica,sans-Serif" font-size="10.00">&lt; Duration &gt;, Char &gt;</text>
</a>
</g>
</g>
<!-- Node1&#45;&gt;Node5 -->
<g id="edge4_Node000001_Node000005" class="edge">
<title>Node1&#45;&gt;Node5</title>
<g id="a_edge4_Node000001_Node000005"><a xlink:title=" ">
<path fill="none" stroke="#8b1a1a" d="M122.54,-149C135.06,-149 148.09,-149 160.4,-149"/>
<polygon fill="#8b1a1a" stroke="#8b1a1a" points="122.18,-145.5 112.18,-149 122.18,-152.5 122.18,-145.5"/>
</a>
</g>
</g>
<!-- Node7 -->
<g id="Node000007" class="node">
<title>Node7</title>
<g id="a_Node000007"><a xlink:href="structformatter_3_01weekday_00_01Char_01_4.html" target="_top" xlink:title=" ">
<polygon fill="white" stroke="#666666" points="282,-116 160,-116 160,-86 282,-86 282,-116"/>
<text text-anchor="start" x="168" y="-104" font-family="Helvetica,sans-Serif" font-size="10.00">formatter&lt; weekday,</text>
<text text-anchor="middle" x="221" y="-93" font-family="Helvetica,sans-Serif" font-size="10.00"> Char &gt;</text>
</a>
</g>
</g>
<!-- Node1&#45;&gt;Node7 -->
<g id="edge6_Node000001_Node000007" class="edge">
<title>Node1&#45;&gt;Node7</title>
<g id="a_edge6_Node000001_Node000007"><a xlink:title=" ">
<path fill="none" stroke="#8b1a1a" d="M117.88,-131.07C134.73,-126.11 152.83,-120.78 169.05,-116"/>
<polygon fill="#8b1a1a" stroke="#8b1a1a" points="116.73,-127.76 108.13,-133.94 118.71,-134.48 116.73,-127.76"/>
</a>
</g>
</g>
<!-- Node8 -->
<g id="Node000008" class="node">
<title>Node8</title>
<g id="a_Node000008"><a xlink:href="structformatter_3_01year_00_01Char_01_4.html" target="_top" xlink:title=" ">
<polygon fill="white" stroke="#666666" points="289,-67.5 153,-67.5 153,-48.5 289,-48.5 289,-67.5"/>
<text text-anchor="middle" x="221" y="-55.5" font-family="Helvetica,sans-Serif" font-size="10.00">formatter&lt; year, Char &gt;</text>
</a>
</g>
</g>
<!-- Node1&#45;&gt;Node8 -->
<g id="edge7_Node000001_Node000008" class="edge">
<title>Node1&#45;&gt;Node8</title>
<g id="a_edge7_Node000001_Node000008"><a xlink:title=" ">
<path fill="none" stroke="#8b1a1a" d="M79.45,-126.86C96.83,-110.87 122.22,-89.89 148,-77 155.63,-73.18 164.11,-70.07 172.5,-67.56"/>
<polygon fill="#8b1a1a" stroke="#8b1a1a" points="76.94,-124.41 72.05,-133.81 81.73,-129.51 76.94,-124.41"/>
</a>
</g>
</g>
<!-- Node9 -->
<g id="Node000009" class="node">
<title>Node9</title>
<g id="a_Node000009"><a xlink:href="structformatter_3_01year__month__day_00_01Char_01_4.html" target="_top" xlink:title=" ">
<polygon fill="white" stroke="#666666" points="287.5,-30 154.5,-30 154.5,0 287.5,0 287.5,-30"/>
<text text-anchor="start" x="162.5" y="-18" font-family="Helvetica,sans-Serif" font-size="10.00">formatter&lt; year_month</text>
<text text-anchor="middle" x="221" y="-7" font-family="Helvetica,sans-Serif" font-size="10.00">_day, Char &gt;</text>
</a>
</g>
</g>
<!-- Node1&#45;&gt;Node9 -->
<g id="edge8_Node000001_Node000009" class="edge">
<title>Node1&#45;&gt;Node9</title>
<g id="a_edge8_Node000001_Node000009"><a xlink:title=" ">
<path fill="none" stroke="#8b1a1a" d="M71.43,-125.01C87.34,-100.45 115.09,-62.74 148,-40 153.55,-36.16 159.75,-32.86 166.11,-30.04"/>
<polygon fill="#8b1a1a" stroke="#8b1a1a" points="68.31,-123.4 65.93,-133.72 74.23,-127.14 68.31,-123.4"/>
</a>
</g>
</g>
<!-- Node6 -->
<g id="Node000006" class="node">
<title>Node6</title>
<g id="a_Node000006"><a xlink:href="structformatter_3_01utc__time_3_01Duration_01_4_00_01Char_01_4.html" target="_top" xlink:title=" ">
<polygon fill="white" stroke="#666666" points="451,-164 330,-164 330,-134 451,-134 451,-164"/>
<text text-anchor="start" x="338" y="-152" font-family="Helvetica,sans-Serif" font-size="10.00">formatter&lt; utc_time</text>
<text text-anchor="middle" x="390.5" y="-141" font-family="Helvetica,sans-Serif" font-size="10.00">&lt; Duration &gt;, Char &gt;</text>
</a>
</g>
</g>
<!-- Node5&#45;&gt;Node6 -->
<g id="edge5_Node000005_Node000006" class="edge">
<title>Node5&#45;&gt;Node6</title>
<g id="a_edge5_Node000005_Node000006"><a xlink:title=" ">
<path fill="none" stroke="#63b8ff" d="M291.61,-149C304.32,-149 317.49,-149 329.88,-149"/>
<polygon fill="#63b8ff" stroke="#63b8ff" points="291.53,-145.5 281.53,-149 291.53,-152.5 291.53,-145.5"/>
</a>
</g>
</g>
</g>
</svg>
