<?xml version="1.0" encoding="UTF-8" standalone="no"?>
<!DOCTYPE svg PUBLIC "-//W3C//DTD SVG 1.1//EN"
 "http://www.w3.org/Graphics/SVG/1.1/DTD/svg11.dtd">
<!-- Generated by graphviz version 2.43.0 (0)
 -->
<!-- Title: formatter&lt; std::tm, Char &gt;::do_parse Pages: 1 -->
<svg width="301pt" height="76pt"
 viewBox="0.00 0.00 301.00 75.50" xmlns="http://www.w3.org/2000/svg" xmlns:xlink="http://www.w3.org/1999/xlink">
<g id="graph0" class="graph" transform="scale(1 1) rotate(0) translate(4 71.5)">
<title>formatter&lt; std::tm, Char &gt;::do_parse</title>
<!-- Node1 -->
<g id="Node000001" class="node">
<title>Node1</title>
<g id="a_Node000001"><a xlink:title=" ">
<polygon fill="#999999" stroke="#666666" points="112,-51 0,-51 0,-21 112,-21 112,-51"/>
<text text-anchor="start" x="8" y="-39" font-family="Helvetica,sans-Serif" font-size="10.00">formatter&lt; std::tm,</text>
<text text-anchor="middle" x="56" y="-28" font-family="Helvetica,sans-Serif" font-size="10.00"> Char &gt;::do_parse</text>
</a>
</g>
</g>
<!-- Node2 -->
<g id="Node000002" class="node">
<title>Node2</title>
<g id="a_Node000002"><a xlink:href="classbasic__specs.html#afe5f9358d60a2ffcd51969958edebe52" target="_top" xlink:title=" ">
<polygon fill="white" stroke="#666666" points="293,-67.5 148,-67.5 148,-48.5 293,-48.5 293,-67.5"/>
<text text-anchor="middle" x="220.5" y="-55.5" font-family="Helvetica,sans-Serif" font-size="10.00">basic_specs::set_localized</text>
</a>
</g>
</g>
<!-- Node1&#45;&gt;Node2 -->
<g id="edge1_Node000001_Node000002" class="edge">
<title>Node1&#45;&gt;Node2</title>
<g id="a_edge1_Node000001_Node000002"><a xlink:title=" ">
<path fill="none" stroke="#63b8ff" d="M112.02,-43.45C120.81,-44.64 130.05,-45.89 139.29,-47.14"/>
<polygon fill="#63b8ff" stroke="#63b8ff" points="138.89,-50.62 149.27,-48.49 139.83,-43.68 138.89,-50.62"/>
</a>
</g>
</g>
<!-- Node3 -->
<g id="Node000003" class="node">
<title>Node3</title>
<g id="a_Node000003"><a xlink:href="classdetail_1_1tm__format__checker.html#a242f186733d82a24e3d11bc5fbeea401" target="_top" xlink:title=" ">
<polygon fill="white" stroke="#666666" points="293,-30 148,-30 148,0 293,0 293,-30"/>
<text text-anchor="start" x="156" y="-18" font-family="Helvetica,sans-Serif" font-size="10.00">detail::tm_format_checker</text>
<text text-anchor="middle" x="220.5" y="-7" font-family="Helvetica,sans-Serif" font-size="10.00">::tm_format_checker</text>
</a>
</g>
</g>
<!-- Node1&#45;&gt;Node3 -->
<g id="edge2_Node000001_Node000003" class="edge">
<title>Node1&#45;&gt;Node3</title>
<g id="a_edge2_Node000001_Node000003"><a xlink:title=" ">
<path fill="none" stroke="#63b8ff" d="M112.02,-28.89C120.29,-27.82 128.97,-26.7 137.65,-25.58"/>
<polygon fill="#63b8ff" stroke="#63b8ff" points="138.36,-29.01 147.83,-24.26 137.47,-22.07 138.36,-29.01"/>
</a>
</g>
</g>
</g>
</svg>
