<?xml version="1.0" encoding="UTF-8" standalone="no"?>
<!DOCTYPE svg PUBLIC "-//W3C//DTD SVG 1.1//EN"
 "http://www.w3.org/Graphics/SVG/1.1/DTD/svg11.dtd">
<!-- Generated by graphviz version 2.43.0 (0)
 -->
<!-- Title: format_specs::format_specs Pages: 1 -->
<svg width="309pt" height="449pt"
 viewBox="0.00 0.00 309.00 449.00" xmlns="http://www.w3.org/2000/svg" xmlns:xlink="http://www.w3.org/1999/xlink">
<g id="graph0" class="graph" transform="scale(1 1) rotate(0) translate(4 445)">
<title>format_specs::format_specs</title>
<!-- Node1 -->
<g id="Node000001" class="node">
<title>Node1</title>
<g id="a_Node000001"><a xlink:title=" ">
<polygon fill="#999999" stroke="#666666" points="301,-268 179,-268 179,-238 301,-238 301,-268"/>
<text text-anchor="start" x="187" y="-256" font-family="Helvetica,sans-Serif" font-size="10.00">format_specs::format</text>
<text text-anchor="middle" x="240" y="-245" font-family="Helvetica,sans-Serif" font-size="10.00">_specs</text>
</a>
</g>
</g>
<!-- Node2 -->
<g id="Node000002" class="node">
<title>Node2</title>
<g id="a_Node000002"><a xlink:href="structformatter_3_01std_1_1complex_3_01T_01_4_00_01Char_01_4.html#aa62b28a5bebe60b586c9936443e3669b" target="_top" xlink:title=" ">
<polygon fill="white" stroke="#666666" points="140,-441 3,-441 3,-411 140,-411 140,-441"/>
<text text-anchor="start" x="11" y="-429" font-family="Helvetica,sans-Serif" font-size="10.00">formatter&lt; std::complex</text>
<text text-anchor="middle" x="71.5" y="-418" font-family="Helvetica,sans-Serif" font-size="10.00">&lt; T &gt;, Char &gt;::format</text>
</a>
</g>
</g>
<!-- Node1&#45;&gt;Node2 -->
<g id="edge1_Node000001_Node000002" class="edge">
<title>Node1&#45;&gt;Node2</title>
<g id="a_edge1_Node000001_Node000002"><a xlink:title=" ">
<path fill="none" stroke="#63b8ff" d="M229.41,-277.39C215.29,-310.26 185.85,-368.52 143,-402 138.62,-405.42 133.72,-408.37 128.6,-410.91"/>
<polygon fill="#63b8ff" stroke="#63b8ff" points="232.68,-278.63 233.3,-268.05 226.22,-275.94 232.68,-278.63"/>
</a>
</g>
</g>
<!-- Node3 -->
<g id="Node000003" class="node">
<title>Node3</title>
<g id="a_Node000003"><a xlink:href="structnested__formatter.html#aaa04f9bf18cb46e964b99f85b2ab96ce" target="_top" xlink:title=" ">
<polygon fill="white" stroke="#666666" points="138.5,-392.5 4.5,-392.5 4.5,-373.5 138.5,-373.5 138.5,-392.5"/>
<text text-anchor="middle" x="71.5" y="-380.5" font-family="Helvetica,sans-Serif" font-size="10.00">nested_formatter::parse</text>
</a>
</g>
</g>
<!-- Node1&#45;&gt;Node3 -->
<g id="edge2_Node000001_Node000003" class="edge">
<title>Node1&#45;&gt;Node3</title>
<g id="a_edge2_Node000001_Node000003"><a xlink:title=" ">
<path fill="none" stroke="#63b8ff" d="M224.77,-277.05C208.31,-302.73 178.84,-342.73 143,-365 137.53,-368.4 131.44,-371.16 125.19,-373.4"/>
<polygon fill="#63b8ff" stroke="#63b8ff" points="227.91,-278.63 230.23,-268.3 221.97,-274.93 227.91,-278.63"/>
</a>
</g>
</g>
<!-- Node4 -->
<g id="Node000004" class="node">
<title>Node4</title>
<g id="a_Node000004"><a xlink:href="namespacedetail.html#a1c8c2218e4c822aa8f743fb9c573717f" target="_top" xlink:title=" ">
<polygon fill="white" stroke="#666666" points="113,-355.5 30,-355.5 30,-336.5 113,-336.5 113,-355.5"/>
<text text-anchor="middle" x="71.5" y="-343.5" font-family="Helvetica,sans-Serif" font-size="10.00">detail::vprintf</text>
</a>
</g>
</g>
<!-- Node1&#45;&gt;Node4 -->
<g id="edge3_Node000001_Node000004" class="edge">
<title>Node1&#45;&gt;Node4</title>
<g id="a_edge3_Node000001_Node000004"><a xlink:title=" ">
<path fill="none" stroke="#63b8ff" d="M215.96,-275.51C197.6,-292.27 170.49,-314.5 143,-328 133.7,-332.57 123.13,-336.05 113.05,-338.69"/>
<polygon fill="#63b8ff" stroke="#63b8ff" points="218.83,-277.62 223.75,-268.25 214.05,-272.51 218.83,-277.62"/>
</a>
</g>
</g>
<!-- Node5 -->
<g id="Node000005" class="node">
<title>Node5</title>
<g id="a_Node000005"><a xlink:href="namespacedetail.html#a03a5ef21914bb68f773fc3e6fab5a663" target="_top" xlink:title=" ">
<polygon fill="white" stroke="#666666" points="109,-318.5 34,-318.5 34,-299.5 109,-299.5 109,-318.5"/>
<text text-anchor="middle" x="71.5" y="-306.5" font-family="Helvetica,sans-Serif" font-size="10.00">detail::write</text>
</a>
</g>
</g>
<!-- Node1&#45;&gt;Node5 -->
<g id="edge4_Node000001_Node000005" class="edge">
<title>Node1&#45;&gt;Node5</title>
<g id="a_edge4_Node000001_Node000005"><a xlink:title=" ">
<path fill="none" stroke="#63b8ff" d="M194.2,-272.1C178.2,-278.55 159.94,-285.51 143,-291 132.18,-294.51 120.26,-297.77 109.34,-300.53"/>
<polygon fill="#63b8ff" stroke="#63b8ff" points="195.9,-275.19 203.83,-268.16 193.25,-268.71 195.9,-275.19"/>
</a>
</g>
</g>
<!-- Node6 -->
<g id="Node000006" class="node">
<title>Node6</title>
<g id="a_Node000006"><a xlink:href="namespacedetail.html#ab066d7922fb43f286fa94abb5fa9c18b" target="_top" xlink:title=" ">
<polygon fill="white" stroke="#666666" points="109,-281.5 34,-281.5 34,-262.5 109,-262.5 109,-281.5"/>
<text text-anchor="middle" x="71.5" y="-269.5" font-family="Helvetica,sans-Serif" font-size="10.00">detail::write</text>
</a>
</g>
</g>
<!-- Node1&#45;&gt;Node6 -->
<g id="edge5_Node000001_Node000006" class="edge">
<title>Node1&#45;&gt;Node6</title>
<g id="a_edge5_Node000001_Node000006"><a xlink:title=" ">
<path fill="none" stroke="#63b8ff" d="M168.93,-261C148.42,-263.34 126.82,-265.8 109.27,-267.8"/>
<polygon fill="#63b8ff" stroke="#63b8ff" points="169.35,-264.47 178.89,-259.86 168.56,-257.52 169.35,-264.47"/>
</a>
</g>
</g>
<!-- Node7 -->
<g id="Node000007" class="node">
<title>Node7</title>
<g id="a_Node000007"><a xlink:href="namespacedetail.html#ac698d9efd325a63ce72eef8709b96271" target="_top" xlink:title=" ">
<polygon fill="white" stroke="#666666" points="109,-244.5 34,-244.5 34,-225.5 109,-225.5 109,-244.5"/>
<text text-anchor="middle" x="71.5" y="-232.5" font-family="Helvetica,sans-Serif" font-size="10.00">detail::write</text>
</a>
</g>
</g>
<!-- Node1&#45;&gt;Node7 -->
<g id="edge6_Node000001_Node000007" class="edge">
<title>Node1&#45;&gt;Node7</title>
<g id="a_edge6_Node000001_Node000007"><a xlink:title=" ">
<path fill="none" stroke="#63b8ff" d="M168.93,-245.43C148.42,-243.21 126.82,-240.87 109.27,-238.98"/>
<polygon fill="#63b8ff" stroke="#63b8ff" points="168.57,-248.91 178.89,-246.5 169.32,-241.95 168.57,-248.91"/>
</a>
</g>
</g>
<!-- Node8 -->
<g id="Node000008" class="node">
<title>Node8</title>
<g id="a_Node000008"><a xlink:href="namespacedetail.html#ad764860b79d23c4ab9824a09138c4794" target="_top" xlink:title=" ">
<polygon fill="white" stroke="#666666" points="109,-207.5 34,-207.5 34,-188.5 109,-188.5 109,-207.5"/>
<text text-anchor="middle" x="71.5" y="-195.5" font-family="Helvetica,sans-Serif" font-size="10.00">detail::write</text>
</a>
</g>
</g>
<!-- Node1&#45;&gt;Node8 -->
<g id="edge7_Node000001_Node000008" class="edge">
<title>Node1&#45;&gt;Node8</title>
<g id="a_edge7_Node000001_Node000008"><a xlink:title=" ">
<path fill="none" stroke="#63b8ff" d="M192.07,-234.38C176.56,-228.5 159.14,-222.19 143,-217 132.14,-213.51 120.2,-210.12 109.29,-207.2"/>
<polygon fill="#63b8ff" stroke="#63b8ff" points="190.86,-237.66 201.45,-237.97 193.36,-231.12 190.86,-237.66"/>
</a>
</g>
</g>
<!-- Node9 -->
<g id="Node000009" class="node">
<title>Node9</title>
<g id="a_Node000009"><a xlink:href="namespacedetail.html#a387142461e68b6d0eb55996faf99c19d" target="_top" xlink:title=" ">
<polygon fill="white" stroke="#666666" points="125,-170.5 18,-170.5 18,-151.5 125,-151.5 125,-170.5"/>
<text text-anchor="middle" x="71.5" y="-158.5" font-family="Helvetica,sans-Serif" font-size="10.00">detail::write_bytes</text>
</a>
</g>
</g>
<!-- Node1&#45;&gt;Node9 -->
<g id="edge8_Node000001_Node000009" class="edge">
<title>Node1&#45;&gt;Node9</title>
<g id="a_edge8_Node000001_Node000009"><a xlink:title=" ">
<path fill="none" stroke="#63b8ff" d="M215.72,-231.15C197.28,-214.91 170.17,-193.35 143,-180 135.26,-176.2 126.66,-173.08 118.2,-170.54"/>
<polygon fill="#63b8ff" stroke="#63b8ff" points="213.53,-233.88 223.31,-237.96 218.21,-228.68 213.53,-233.88"/>
</a>
</g>
</g>
<!-- Node10 -->
<g id="Node000010" class="node">
<title>Node10</title>
<g id="a_Node000010"><a xlink:href="structrange__formatter_3_01T_00_01Char_00_01enable__if__t_3_01conjunction_3_01std_1_1is__same_3_3cf3a20f6ea4950448b9f85e13a8c815.html#a0a6e98c01e9e205d1fbd3d1f30e57678" target="_top" xlink:title=" ">
<polygon fill="white" stroke="#666666" points="143,-133.5 0,-133.5 0,-48.5 143,-48.5 143,-133.5"/>
<text text-anchor="start" x="8" y="-121.5" font-family="Helvetica,sans-Serif" font-size="10.00">range_formatter&lt; T,</text>
<text text-anchor="start" x="8" y="-110.5" font-family="Helvetica,sans-Serif" font-size="10.00"> Char, enable_if_t&lt;</text>
<text text-anchor="start" x="8" y="-99.5" font-family="Helvetica,sans-Serif" font-size="10.00"> conjunction&lt; std::is</text>
<text text-anchor="start" x="8" y="-88.5" font-family="Helvetica,sans-Serif" font-size="10.00">_same&lt; T, remove_cvref</text>
<text text-anchor="start" x="8" y="-77.5" font-family="Helvetica,sans-Serif" font-size="10.00">_t&lt; T &gt; &gt;, is_formattable</text>
<text text-anchor="start" x="8" y="-66.5" font-family="Helvetica,sans-Serif" font-size="10.00">&lt; T, Char &gt; &gt;::value &gt; &gt;</text>
<text text-anchor="middle" x="71.5" y="-55.5" font-family="Helvetica,sans-Serif" font-size="10.00">::write_debug_string</text>
</a>
</g>
</g>
<!-- Node1&#45;&gt;Node10 -->
<g id="edge9_Node000001_Node000010" class="edge">
<title>Node1&#45;&gt;Node10</title>
<g id="a_edge9_Node000001_Node000010"><a xlink:title=" ">
<path fill="none" stroke="#63b8ff" d="M221.32,-229.92C202.99,-206.72 172.89,-170.53 143,-143 139.64,-139.91 136.11,-136.83 132.48,-133.8"/>
<polygon fill="#63b8ff" stroke="#63b8ff" points="218.6,-232.13 227.51,-237.85 224.11,-227.81 218.6,-232.13"/>
</a>
</g>
</g>
<!-- Node11 -->
<g id="Node000011" class="node">
<title>Node11</title>
<g id="a_Node000011"><a xlink:href="structnested__formatter.html#a6ab579c8e01e2a080d1cab4173991348" target="_top" xlink:title=" ">
<polygon fill="white" stroke="#666666" points="137.5,-30 5.5,-30 5.5,0 137.5,0 137.5,-30"/>
<text text-anchor="start" x="13.5" y="-18" font-family="Helvetica,sans-Serif" font-size="10.00">nested_formatter::write</text>
<text text-anchor="middle" x="71.5" y="-7" font-family="Helvetica,sans-Serif" font-size="10.00">_padded</text>
</a>
</g>
</g>
<!-- Node1&#45;&gt;Node11 -->
<g id="edge10_Node000001_Node000011" class="edge">
<title>Node1&#45;&gt;Node11</title>
<g id="a_edge10_Node000001_Node000011"><a xlink:title=" ">
<path fill="none" stroke="#63b8ff" d="M234.43,-228.13C225.08,-184.09 199.65,-92.15 143,-40 138.8,-36.13 133.95,-32.85 128.82,-30.08"/>
<polygon fill="#63b8ff" stroke="#63b8ff" points="231.01,-228.89 236.43,-237.99 237.87,-227.5 231.01,-228.89"/>
</a>
</g>
</g>
</g>
</svg>
