<?xml version="1.0" encoding="UTF-8" standalone="no"?>
<!DOCTYPE svg PUBLIC "-//W3C//DTD SVG 1.1//EN"
 "http://www.w3.org/Graphics/SVG/1.1/DTD/svg11.dtd">
<!-- Generated by graphviz version 2.43.0 (0)
 -->
<!-- Title: thirdparty/RadioLib/include/RadioLib/modules/SX128x/SX128x.h Pages: 1 -->
<svg width="363pt" height="478pt"
 viewBox="0.00 0.00 362.50 478.00" xmlns="http://www.w3.org/2000/svg" xmlns:xlink="http://www.w3.org/1999/xlink">
<g id="graph0" class="graph" transform="scale(1 1) rotate(0) translate(4 474)">
<title>thirdparty/RadioLib/include/RadioLib/modules/SX128x/SX128x.h</title>
<!-- Node1 -->
<g id="Node000001" class="node">
<title>Node1</title>
<g id="a_Node000001"><a xlink:title=" ">
<polygon fill="#999999" stroke="#666666" points="182,-470 37,-470 37,-429 182,-429 182,-470"/>
<text text-anchor="start" x="45" y="-458" font-family="Helvetica,sans-Serif" font-size="10.00">thirdparty/RadioLib</text>
<text text-anchor="start" x="45" y="-447" font-family="Helvetica,sans-Serif" font-size="10.00">/include/RadioLib/modules</text>
<text text-anchor="middle" x="109.5" y="-436" font-family="Helvetica,sans-Serif" font-size="10.00">/SX128x/SX128x.h</text>
</a>
</g>
</g>
<!-- Node2 -->
<g id="Node000002" class="node">
<title>Node2</title>
<g id="a_Node000002"><a xlink:href="SX1280_8h.html" target="_top" xlink:title=" ">
<polygon fill="white" stroke="#666666" points="214,-316 69,-316 69,-275 214,-275 214,-316"/>
<text text-anchor="start" x="77" y="-304" font-family="Helvetica,sans-Serif" font-size="10.00">thirdparty/RadioLib</text>
<text text-anchor="start" x="77" y="-293" font-family="Helvetica,sans-Serif" font-size="10.00">/include/RadioLib/modules</text>
<text text-anchor="middle" x="141.5" y="-282" font-family="Helvetica,sans-Serif" font-size="10.00">/SX128x/SX1280.h</text>
</a>
</g>
</g>
<!-- Node1&#45;&gt;Node2 -->
<g id="edge1_Node000001_Node000002" class="edge">
<title>Node1&#45;&gt;Node2</title>
<g id="a_edge1_Node000001_Node000002"><a xlink:title=" ">
<path fill="none" stroke="#63b8ff" d="M115.04,-418.95C118.69,-399.82 123.67,-374.39 128.5,-352 131.06,-340.1 134.17,-326.82 136.7,-316.24"/>
<polygon fill="#63b8ff" stroke="#63b8ff" points="111.58,-418.39 113.15,-428.87 118.46,-419.69 111.58,-418.39"/>
</a>
</g>
</g>
<!-- Node7 -->
<g id="Node000007" class="node">
<title>Node7</title>
<g id="a_Node000007"><a xlink:href="SX1282_8h.html" target="_top" xlink:title=" ">
<polygon fill="white" stroke="#666666" points="145,-239 0,-239 0,-198 145,-198 145,-239"/>
<text text-anchor="start" x="8" y="-227" font-family="Helvetica,sans-Serif" font-size="10.00">thirdparty/RadioLib</text>
<text text-anchor="start" x="8" y="-216" font-family="Helvetica,sans-Serif" font-size="10.00">/include/RadioLib/modules</text>
<text text-anchor="middle" x="72.5" y="-205" font-family="Helvetica,sans-Serif" font-size="10.00">/SX128x/SX1282.h</text>
</a>
</g>
</g>
<!-- Node1&#45;&gt;Node7 -->
<g id="edge12_Node000001_Node000007" class="edge">
<title>Node1&#45;&gt;Node7</title>
<g id="a_edge12_Node000001_Node000007"><a xlink:title=" ">
<path fill="none" stroke="#63b8ff" d="M95.11,-419.59C82.88,-393.32 66.27,-353.1 59.5,-316 54.68,-289.56 60.86,-258.74 66.24,-239.18"/>
<polygon fill="#63b8ff" stroke="#63b8ff" points="92.1,-421.41 99.55,-428.94 98.42,-418.41 92.1,-421.41"/>
</a>
</g>
</g>
<!-- Node8 -->
<g id="Node000008" class="node">
<title>Node8</title>
<g id="a_Node000008"><a xlink:href="SX1281_8h.html" target="_top" xlink:title=" ">
<polygon fill="white" stroke="#666666" points="283,-393 138,-393 138,-352 283,-352 283,-393"/>
<text text-anchor="start" x="146" y="-381" font-family="Helvetica,sans-Serif" font-size="10.00">thirdparty/RadioLib</text>
<text text-anchor="start" x="146" y="-370" font-family="Helvetica,sans-Serif" font-size="10.00">/include/RadioLib/modules</text>
<text text-anchor="middle" x="210.5" y="-359" font-family="Helvetica,sans-Serif" font-size="10.00">/SX128x/SX1281.h</text>
</a>
</g>
</g>
<!-- Node1&#45;&gt;Node8 -->
<g id="edge9_Node000001_Node000008" class="edge">
<title>Node1&#45;&gt;Node8</title>
<g id="a_edge9_Node000001_Node000008"><a xlink:title=" ">
<path fill="none" stroke="#63b8ff" d="M144.09,-422.82C157.15,-413.11 171.8,-402.24 184.01,-393.17"/>
<polygon fill="#63b8ff" stroke="#63b8ff" points="141.71,-420.22 135.77,-428.99 145.89,-425.84 141.71,-420.22"/>
</a>
</g>
</g>
<!-- Node3 -->
<g id="Node000003" class="node">
<title>Node3</title>
<g id="a_Node000003"><a xlink:href="RadioLib_8h.html" target="_top" xlink:title=" ">
<polygon fill="white" stroke="#666666" points="250.5,-162 96.5,-162 96.5,-132 250.5,-132 250.5,-162"/>
<text text-anchor="start" x="104.5" y="-150" font-family="Helvetica,sans-Serif" font-size="10.00">thirdparty/RadioLib</text>
<text text-anchor="middle" x="173.5" y="-139" font-family="Helvetica,sans-Serif" font-size="10.00">/include/RadioLib/RadioLib.h</text>
</a>
</g>
</g>
<!-- Node2&#45;&gt;Node3 -->
<g id="edge2_Node000002_Node000003" class="edge">
<title>Node2&#45;&gt;Node3</title>
<g id="a_edge2_Node000002_Node000003"><a xlink:title=" ">
<path fill="none" stroke="#63b8ff" d="M147.98,-264.85C154.8,-233.63 165.25,-185.79 170.4,-162.18"/>
<polygon fill="#63b8ff" stroke="#63b8ff" points="144.53,-264.23 145.82,-274.74 151.37,-265.72 144.53,-264.23"/>
</a>
</g>
</g>
<!-- Node2&#45;&gt;Node7 -->
<g id="edge7_Node000002_Node000007" class="edge">
<title>Node2&#45;&gt;Node7</title>
<g id="a_edge7_Node000002_Node000007"><a xlink:title=" ">
<path fill="none" stroke="#63b8ff" d="M116.41,-267.23C107.84,-257.91 98.42,-247.67 90.51,-239.07"/>
<polygon fill="#63b8ff" stroke="#63b8ff" points="114.02,-269.81 123.37,-274.79 119.18,-265.07 114.02,-269.81"/>
</a>
</g>
</g>
<!-- Node4 -->
<g id="Node000004" class="node">
<title>Node4</title>
<g id="a_Node000004"><a xlink:href="transmitter-normal_8cpp.html" target="_top" xlink:title="CHRONOS&#45;LoRa Transmitter program (Normal)">
<polygon fill="white" stroke="#666666" points="204,-19 57,-19 57,0 204,0 204,-19"/>
<text text-anchor="middle" x="130.5" y="-7" font-family="Helvetica,sans-Serif" font-size="10.00">src/transmitter&#45;normal.cpp</text>
</a>
</g>
</g>
<!-- Node3&#45;&gt;Node4 -->
<g id="edge3_Node000003_Node000004" class="edge">
<title>Node3&#45;&gt;Node4</title>
<g id="a_edge3_Node000003_Node000004"><a xlink:title=" ">
<path fill="none" stroke="#63b8ff" d="M161.03,-122.86C156.93,-114.56 152.62,-105.03 149.5,-96 140.05,-68.7 134.16,-34.82 131.75,-19.17"/>
<polygon fill="#63b8ff" stroke="#63b8ff" points="158,-124.62 165.67,-131.93 164.23,-121.43 158,-124.62"/>
</a>
</g>
</g>
<!-- Node5 -->
<g id="Node000005" class="node">
<title>Node5</title>
<g id="a_Node000005"><a xlink:href="PiHal_8h.html" target="_top" xlink:title=" ">
<polygon fill="white" stroke="#666666" points="276.5,-96 158.5,-96 158.5,-55 276.5,-55 276.5,-96"/>
<text text-anchor="start" x="166.5" y="-84" font-family="Helvetica,sans-Serif" font-size="10.00">thirdparty/RadioLib</text>
<text text-anchor="start" x="166.5" y="-73" font-family="Helvetica,sans-Serif" font-size="10.00">/include/RadioLib/hal</text>
<text text-anchor="middle" x="217.5" y="-62" font-family="Helvetica,sans-Serif" font-size="10.00">/RPi/PiHal.h</text>
</a>
</g>
</g>
<!-- Node3&#45;&gt;Node5 -->
<g id="edge4_Node000003_Node000005" class="edge">
<title>Node3&#45;&gt;Node5</title>
<g id="a_edge4_Node000003_Node000005"><a xlink:title=" ">
<path fill="none" stroke="#63b8ff" d="M187.87,-123.31C193.43,-114.52 199.74,-104.55 205.11,-96.07"/>
<polygon fill="#63b8ff" stroke="#63b8ff" points="184.8,-121.61 182.4,-131.94 190.71,-125.36 184.8,-121.61"/>
</a>
</g>
</g>
<!-- Node5&#45;&gt;Node4 -->
<g id="edge6_Node000005_Node000004" class="edge">
<title>Node5&#45;&gt;Node4</title>
<g id="a_edge6_Node000005_Node000004"><a xlink:title=" ">
<path fill="none" stroke="#63b8ff" d="M182.71,-48.9C168.41,-38.39 152.8,-26.9 142.41,-19.26"/>
<polygon fill="#63b8ff" stroke="#63b8ff" points="180.8,-51.84 190.92,-54.95 184.94,-46.21 180.8,-51.84"/>
</a>
</g>
</g>
<!-- Node6 -->
<g id="Node000006" class="node">
<title>Node6</title>
<g id="a_Node000006"><a xlink:href="receiver-normal_8cpp.html" target="_top" xlink:title="CHRONOS&#45;LoRa Receiver program (Normal)">
<polygon fill="white" stroke="#666666" points="354.5,-19 222.5,-19 222.5,0 354.5,0 354.5,-19"/>
<text text-anchor="middle" x="288.5" y="-7" font-family="Helvetica,sans-Serif" font-size="10.00">src/receiver&#45;normal.cpp</text>
</a>
</g>
</g>
<!-- Node5&#45;&gt;Node6 -->
<g id="edge5_Node000005_Node000006" class="edge">
<title>Node5&#45;&gt;Node6</title>
<g id="a_edge5_Node000005_Node000006"><a xlink:title=" ">
<path fill="none" stroke="#63b8ff" d="M246.88,-48.02C258.28,-37.74 270.54,-26.69 278.78,-19.26"/>
<polygon fill="#63b8ff" stroke="#63b8ff" points="244.27,-45.65 239.19,-54.95 248.96,-50.85 244.27,-45.65"/>
</a>
</g>
</g>
<!-- Node7&#45;&gt;Node3 -->
<g id="edge8_Node000007_Node000003" class="edge">
<title>Node7&#45;&gt;Node3</title>
<g id="a_edge8_Node000007_Node000003"><a xlink:title=" ">
<path fill="none" stroke="#63b8ff" d="M109.34,-192.15C124.06,-182.02 140.46,-170.74 152.99,-162.11"/>
<polygon fill="#63b8ff" stroke="#63b8ff" points="107.16,-189.4 100.9,-197.96 111.13,-195.17 107.16,-189.4"/>
</a>
</g>
</g>
<!-- Node8&#45;&gt;Node2 -->
<g id="edge11_Node000008_Node000002" class="edge">
<title>Node8&#45;&gt;Node2</title>
<g id="a_edge11_Node000008_Node000002"><a xlink:title=" ">
<path fill="none" stroke="#63b8ff" d="M185.41,-344.23C176.84,-334.91 167.42,-324.67 159.51,-316.07"/>
<polygon fill="#63b8ff" stroke="#63b8ff" points="183.02,-346.81 192.37,-351.79 188.18,-342.07 183.02,-346.81"/>
</a>
</g>
</g>
<!-- Node8&#45;&gt;Node3 -->
<g id="edge10_Node000008_Node000003" class="edge">
<title>Node8&#45;&gt;Node3</title>
<g id="a_edge10_Node000008_Node000003"><a xlink:title=" ">
<path fill="none" stroke="#63b8ff" d="M219.4,-341.87C223.95,-322.71 227.73,-297.28 223.5,-275 215.37,-232.16 193.1,-185.3 181.21,-162.32"/>
<polygon fill="#63b8ff" stroke="#63b8ff" points="215.95,-341.25 216.84,-351.81 222.73,-343 215.95,-341.25"/>
</a>
</g>
</g>
</g>
</svg>
