<?xml version="1.0" encoding="UTF-8" standalone="no"?>
<!DOCTYPE svg PUBLIC "-//W3C//DTD SVG 1.1//EN"
 "http://www.w3.org/Graphics/SVG/1.1/DTD/svg11.dtd">
<!-- Generated by graphviz version 2.43.0 (0)
 -->
<!-- Title: thirdparty/RadioLib/include/RadioLib/modules/SX126x/SX1262.h Pages: 1 -->
<svg width="649pt" height="390pt"
 viewBox="0.00 0.00 648.92 390.00" xmlns="http://www.w3.org/2000/svg" xmlns:xlink="http://www.w3.org/1999/xlink">
<g id="graph0" class="graph" transform="scale(1 1) rotate(0) translate(4 386)">
<title>thirdparty/RadioLib/include/RadioLib/modules/SX126x/SX1262.h</title>
<!-- Node1 -->
<g id="Node000001" class="node">
<title>Node1</title>
<g id="a_Node000001"><a xlink:title=" ">
<polygon fill="#999999" stroke="#666666" points="388.72,-382 243.72,-382 243.72,-341 388.72,-341 388.72,-382"/>
<text text-anchor="start" x="251.72" y="-370" font-family="Helvetica,sans-Serif" font-size="10.00">thirdparty/RadioLib</text>
<text text-anchor="start" x="251.72" y="-359" font-family="Helvetica,sans-Serif" font-size="10.00">/include/RadioLib/modules</text>
<text text-anchor="middle" x="316.22" y="-348" font-family="Helvetica,sans-Serif" font-size="10.00">/SX126x/SX1262.h</text>
</a>
</g>
</g>
<!-- Node2 -->
<g id="Node000002" class="node">
<title>Node2</title>
<g id="a_Node000002"><a xlink:href="TypeDef_8h.html" target="_top" xlink:title=" ">
<polygon fill="white" stroke="#666666" points="341.72,-129 258.72,-129 258.72,-110 341.72,-110 341.72,-129"/>
<text text-anchor="middle" x="300.22" y="-117" font-family="Helvetica,sans-Serif" font-size="10.00">../../TypeDef.h</text>
</a>
</g>
</g>
<!-- Node1&#45;&gt;Node2 -->
<g id="edge1_Node000001_Node000002" class="edge">
<title>Node1&#45;&gt;Node2</title>
<g id="a_edge1_Node000001_Node000002"><a xlink:title=" ">
<path fill="none" stroke="#63b8ff" d="M388.93,-344.74C502.32,-316.99 700.65,-253.83 623.22,-165 588.66,-125.36 434.12,-119.82 351.96,-119.76"/>
<polygon fill="#63b8ff" stroke="#63b8ff" points="351.82,-116.26 341.83,-119.78 351.84,-123.26 351.82,-116.26"/>
</a>
</g>
</g>
<!-- Node7 -->
<g id="Node000007" class="node">
<title>Node7</title>
<g id="a_Node000007"><a xlink:href="Module_8h.html" target="_top" xlink:title=" ">
<polygon fill="white" stroke="#666666" points="182.22,-184 102.22,-184 102.22,-165 182.22,-165 182.22,-184"/>
<text text-anchor="middle" x="142.22" y="-172" font-family="Helvetica,sans-Serif" font-size="10.00">../../Module.h</text>
</a>
</g>
</g>
<!-- Node1&#45;&gt;Node7 -->
<g id="edge7_Node000001_Node000007" class="edge">
<title>Node1&#45;&gt;Node7</title>
<g id="a_edge7_Node000001_Node000007"><a xlink:title=" ">
<path fill="none" stroke="#63b8ff" d="M243.44,-357.38C169.87,-349.88 59.64,-325.76 6.22,-250 -19.13,-214.05 43.27,-193.65 91.74,-183.58"/>
<polygon fill="#63b8ff" stroke="#63b8ff" points="92.7,-186.96 101.83,-181.59 91.34,-180.09 92.7,-186.96"/>
</a>
</g>
</g>
<!-- Node12 -->
<g id="Node000012" class="node">
<title>Node12</title>
<g id="a_Node000012"><a xlink:href="SX126x_8h.html" target="_top" xlink:title=" ">
<polygon fill="white" stroke="#666666" points="347.22,-305 285.22,-305 285.22,-286 347.22,-286 347.22,-305"/>
<text text-anchor="middle" x="316.22" y="-293" font-family="Helvetica,sans-Serif" font-size="10.00">SX126x.h</text>
</a>
</g>
</g>
<!-- Node1&#45;&gt;Node12 -->
<g id="edge17_Node000001_Node000012" class="edge">
<title>Node1&#45;&gt;Node12</title>
<g id="a_edge17_Node000001_Node000012"><a xlink:title=" ">
<path fill="none" stroke="#63b8ff" d="M316.22,-340.95C316.22,-332.85 316.22,-323.5 316.22,-315.47"/>
<polygon fill="#63b8ff" stroke="#63b8ff" points="319.72,-315.26 316.22,-305.26 312.72,-315.26 319.72,-315.26"/>
</a>
</g>
</g>
<!-- Node3 -->
<g id="Node000003" class="node">
<title>Node3</title>
<g id="a_Node000003"><a xlink:href="BuildOptUser_8h.html" target="_top" xlink:title=" ">
<polygon fill="white" stroke="#666666" points="441.72,-74 352.72,-74 352.72,-55 441.72,-55 441.72,-74"/>
<text text-anchor="middle" x="397.22" y="-62" font-family="Helvetica,sans-Serif" font-size="10.00">BuildOptUser.h</text>
</a>
</g>
</g>
<!-- Node2&#45;&gt;Node3 -->
<g id="edge2_Node000002_Node000003" class="edge">
<title>Node2&#45;&gt;Node3</title>
<g id="a_edge2_Node000002_Node000003"><a xlink:title=" ">
<path fill="none" stroke="#63b8ff" d="M315.8,-109.98C330.98,-101.69 354.31,-88.94 372.11,-79.22"/>
<polygon fill="#63b8ff" stroke="#63b8ff" points="374.25,-82.04 381.35,-74.17 370.89,-75.89 374.25,-82.04"/>
</a>
</g>
</g>
<!-- Node4 -->
<g id="Node000004" class="node">
<title>Node4</title>
<g id="a_Node000004"><a xlink:href="BuildOpt_8h.html" target="_top" xlink:title=" ">
<polygon fill="white" stroke="#666666" points="334.22,-74 266.22,-74 266.22,-55 334.22,-55 334.22,-74"/>
<text text-anchor="middle" x="300.22" y="-62" font-family="Helvetica,sans-Serif" font-size="10.00">BuildOpt.h</text>
</a>
</g>
</g>
<!-- Node2&#45;&gt;Node4 -->
<g id="edge3_Node000002_Node000004" class="edge">
<title>Node2&#45;&gt;Node4</title>
<g id="a_edge3_Node000002_Node000004"><a xlink:title=" ">
<path fill="none" stroke="#63b8ff" d="M295.05,-109.75C293.56,-102.8 293.12,-92.85 293.74,-84.13"/>
<polygon fill="#63b8ff" stroke="#63b8ff" points="297.22,-84.47 295.08,-74.09 290.29,-83.53 297.22,-84.47"/>
</a>
</g>
</g>
<!-- Node4&#45;&gt;Node2 -->
<g id="edge4_Node000004_Node000002" class="edge">
<title>Node4&#45;&gt;Node2</title>
<g id="a_edge4_Node000004_Node000002"><a xlink:title=" ">
<path fill="none" stroke="#63b8ff" d="M305.35,-74.09C306.86,-80.99 307.31,-90.93 306.71,-99.66"/>
<polygon fill="#63b8ff" stroke="#63b8ff" points="303.22,-99.38 305.38,-109.75 310.16,-100.29 303.22,-99.38"/>
</a>
</g>
</g>
<!-- Node5 -->
<g id="Node000005" class="node">
<title>Node5</title>
<g id="a_Node000005"><a xlink:title=" ">
<polygon fill="#e0e0e0" stroke="#999999" points="329.22,-19 279.22,-19 279.22,0 329.22,0 329.22,-19"/>
<text text-anchor="middle" x="304.22" y="-7" font-family="Helvetica,sans-Serif" font-size="10.00">stdio.h</text>
</a>
</g>
</g>
<!-- Node4&#45;&gt;Node5 -->
<g id="edge5_Node000004_Node000005" class="edge">
<title>Node4&#45;&gt;Node5</title>
<g id="a_edge5_Node000004_Node000005"><a xlink:title=" ">
<path fill="none" stroke="#63b8ff" d="M300.88,-54.75C301.4,-47.8 302.15,-37.85 302.81,-29.13"/>
<polygon fill="#63b8ff" stroke="#63b8ff" points="306.31,-29.32 303.57,-19.09 299.33,-28.8 306.31,-29.32"/>
</a>
</g>
</g>
<!-- Node6 -->
<g id="Node000006" class="node">
<title>Node6</title>
<g id="a_Node000006"><a xlink:title=" ">
<polygon fill="#e0e0e0" stroke="#999999" points="260.72,-19 207.72,-19 207.72,0 260.72,0 260.72,-19"/>
<text text-anchor="middle" x="234.22" y="-7" font-family="Helvetica,sans-Serif" font-size="10.00">stdint.h</text>
</a>
</g>
</g>
<!-- Node4&#45;&gt;Node6 -->
<g id="edge6_Node000004_Node000006" class="edge">
<title>Node4&#45;&gt;Node6</title>
<g id="a_edge6_Node000004_Node000006"><a xlink:title=" ">
<path fill="none" stroke="#63b8ff" d="M289.61,-54.98C279.76,-47.07 264.87,-35.11 253,-25.58"/>
<polygon fill="#63b8ff" stroke="#63b8ff" points="255,-22.7 245.01,-19.17 250.62,-28.16 255,-22.7"/>
</a>
</g>
</g>
<!-- Node7&#45;&gt;Node2 -->
<g id="edge8_Node000007_Node000002" class="edge">
<title>Node7&#45;&gt;Node2</title>
<g id="a_edge8_Node000007_Node000002"><a xlink:title=" ">
<path fill="none" stroke="#63b8ff" d="M167.6,-164.98C194.01,-156.13 235.56,-142.19 265.11,-132.28"/>
<polygon fill="#63b8ff" stroke="#63b8ff" points="266.26,-135.58 274.63,-129.08 264.04,-128.94 266.26,-135.58"/>
</a>
</g>
</g>
<!-- Node8 -->
<g id="Node000008" class="node">
<title>Node8</title>
<g id="a_Node000008"><a xlink:href="Hal_8h.html" target="_top" xlink:title=" ">
<polygon fill="white" stroke="#666666" points="149.22,-129 107.22,-129 107.22,-110 149.22,-110 149.22,-129"/>
<text text-anchor="middle" x="128.22" y="-117" font-family="Helvetica,sans-Serif" font-size="10.00">Hal.h</text>
</a>
</g>
</g>
<!-- Node7&#45;&gt;Node8 -->
<g id="edge9_Node000007_Node000008" class="edge">
<title>Node7&#45;&gt;Node8</title>
<g id="a_edge9_Node000007_Node000008"><a xlink:title=" ">
<path fill="none" stroke="#63b8ff" d="M139.9,-164.75C138.05,-157.72 135.38,-147.62 133.06,-138.84"/>
<polygon fill="#63b8ff" stroke="#63b8ff" points="136.42,-137.86 130.48,-129.09 129.65,-139.65 136.42,-137.86"/>
</a>
</g>
</g>
<!-- Node10 -->
<g id="Node000010" class="node">
<title>Node10</title>
<g id="a_Node000010"><a xlink:href="Utils_8h.html" target="_top" xlink:title=" ">
<polygon fill="white" stroke="#666666" points="240.22,-129 168.22,-129 168.22,-110 240.22,-110 240.22,-129"/>
<text text-anchor="middle" x="204.22" y="-117" font-family="Helvetica,sans-Serif" font-size="10.00">utils/Utils.h</text>
</a>
</g>
</g>
<!-- Node7&#45;&gt;Node10 -->
<g id="edge13_Node000007_Node000010" class="edge">
<title>Node7&#45;&gt;Node10</title>
<g id="a_edge13_Node000007_Node000010"><a xlink:title=" ">
<path fill="none" stroke="#63b8ff" d="M152.18,-164.98C161.34,-157.15 175.15,-145.34 186.24,-135.86"/>
<polygon fill="#63b8ff" stroke="#63b8ff" points="188.75,-138.33 194.07,-129.17 184.2,-133.01 188.75,-138.33"/>
</a>
</g>
</g>
<!-- Node8&#45;&gt;Node4 -->
<g id="edge12_Node000008_Node000004" class="edge">
<title>Node8&#45;&gt;Node4</title>
<g id="a_edge12_Node000008_Node000004"><a xlink:title=" ">
<path fill="none" stroke="#63b8ff" d="M149.31,-112C177.47,-103.32 227.85,-87.8 262.6,-77.09"/>
<polygon fill="#63b8ff" stroke="#63b8ff" points="263.88,-80.36 272.4,-74.07 261.81,-73.67 263.88,-80.36"/>
</a>
</g>
</g>
<!-- Node8&#45;&gt;Node6 -->
<g id="edge10_Node000008_Node000006" class="edge">
<title>Node8&#45;&gt;Node6</title>
<g id="a_edge10_Node000008_Node000006"><a xlink:title=" ">
<path fill="none" stroke="#63b8ff" d="M128.7,-109.68C129.87,-96.4 133.81,-71.09 147.22,-55 160.31,-39.27 180.39,-28.48 197.96,-21.47"/>
<polygon fill="#63b8ff" stroke="#63b8ff" points="199.25,-24.73 207.4,-17.96 196.81,-18.17 199.25,-24.73"/>
</a>
</g>
</g>
<!-- Node9 -->
<g id="Node000009" class="node">
<title>Node9</title>
<g id="a_Node000009"><a xlink:title=" ">
<polygon fill="#e0e0e0" stroke="#999999" points="100.22,-74 44.22,-74 44.22,-55 100.22,-55 100.22,-74"/>
<text text-anchor="middle" x="72.22" y="-62" font-family="Helvetica,sans-Serif" font-size="10.00">stddef.h</text>
</a>
</g>
</g>
<!-- Node8&#45;&gt;Node9 -->
<g id="edge11_Node000008_Node000009" class="edge">
<title>Node8&#45;&gt;Node9</title>
<g id="a_edge11_Node000008_Node000009"><a xlink:title=" ">
<path fill="none" stroke="#63b8ff" d="M119.22,-109.98C111.02,-102.23 98.71,-90.58 88.74,-81.14"/>
<polygon fill="#63b8ff" stroke="#63b8ff" points="91.05,-78.5 81.38,-74.17 86.23,-83.59 91.05,-78.5"/>
</a>
</g>
</g>
<!-- Node10&#45;&gt;Node4 -->
<g id="edge16_Node000010_Node000004" class="edge">
<title>Node10&#45;&gt;Node4</title>
<g id="a_edge16_Node000010_Node000004"><a xlink:title=" ">
<path fill="none" stroke="#63b8ff" d="M219.64,-109.98C234.67,-101.69 257.76,-88.94 275.37,-79.22"/>
<polygon fill="#63b8ff" stroke="#63b8ff" points="277.45,-82.07 284.51,-74.17 274.07,-75.94 277.45,-82.07"/>
</a>
</g>
</g>
<!-- Node10&#45;&gt;Node6 -->
<g id="edge14_Node000010_Node000006" class="edge">
<title>Node10&#45;&gt;Node6</title>
<g id="a_edge14_Node000010_Node000006"><a xlink:title=" ">
<path fill="none" stroke="#63b8ff" d="M207.16,-109.68C210.1,-100.73 214.69,-86.47 218.22,-74 222.48,-58.94 226.78,-41.71 229.85,-29.01"/>
<polygon fill="#63b8ff" stroke="#63b8ff" points="233.28,-29.71 232.2,-19.17 226.47,-28.08 233.28,-29.71"/>
</a>
</g>
</g>
<!-- Node11 -->
<g id="Node000011" class="node">
<title>Node11</title>
<g id="a_Node000011"><a xlink:title=" ">
<polygon fill="#e0e0e0" stroke="#999999" points="209.72,-74 156.72,-74 156.72,-55 209.72,-55 209.72,-74"/>
<text text-anchor="middle" x="183.22" y="-62" font-family="Helvetica,sans-Serif" font-size="10.00">stdlib.h</text>
</a>
</g>
</g>
<!-- Node10&#45;&gt;Node11 -->
<g id="edge15_Node000010_Node000011" class="edge">
<title>Node10&#45;&gt;Node11</title>
<g id="a_edge15_Node000010_Node000011"><a xlink:title=" ">
<path fill="none" stroke="#63b8ff" d="M200.75,-109.75C197.93,-102.65 193.87,-92.4 190.37,-83.56"/>
<polygon fill="#63b8ff" stroke="#63b8ff" points="193.56,-82.1 186.62,-74.09 187.05,-84.68 193.56,-82.1"/>
</a>
</g>
</g>
<!-- Node12&#45;&gt;Node2 -->
<g id="edge18_Node000012_Node000002" class="edge">
<title>Node12&#45;&gt;Node2</title>
<g id="a_edge18_Node000012_Node000002"><a xlink:title=" ">
<path fill="none" stroke="#63b8ff" d="M332.24,-285.95C344.63,-278.35 360.86,-265.97 368.22,-250 373.79,-237.89 372.15,-232.74 368.22,-220 357.98,-186.89 332.53,-154.97 315.83,-136.56"/>
<polygon fill="#63b8ff" stroke="#63b8ff" points="318.24,-134.02 308.86,-129.1 313.13,-138.8 318.24,-134.02"/>
</a>
</g>
</g>
<!-- Node12&#45;&gt;Node7 -->
<g id="edge19_Node000012_Node000007" class="edge">
<title>Node12&#45;&gt;Node7</title>
<g id="a_edge19_Node000012_Node000007"><a xlink:title=" ">
<path fill="none" stroke="#63b8ff" d="M285.15,-294.77C215.6,-294.64 50.74,-290.02 16.22,-250 -10.54,-218.99 46.34,-197.49 92.15,-185.83"/>
<polygon fill="#63b8ff" stroke="#63b8ff" points="93.13,-189.19 102.01,-183.42 91.47,-182.39 93.13,-189.19"/>
</a>
</g>
</g>
<!-- Node13 -->
<g id="Node000013" class="node">
<title>Node13</title>
<g id="a_Node000013"><a xlink:href="PhysicalLayer_8h.html" target="_top" xlink:title=" ">
<polygon fill="white" stroke="#666666" points="254.72,-250 131.72,-250 131.72,-220 254.72,-220 254.72,-250"/>
<text text-anchor="start" x="139.72" y="-238" font-family="Helvetica,sans-Serif" font-size="10.00">../../protocols/Physical</text>
<text text-anchor="middle" x="193.22" y="-227" font-family="Helvetica,sans-Serif" font-size="10.00">Layer/PhysicalLayer.h</text>
</a>
</g>
</g>
<!-- Node12&#45;&gt;Node13 -->
<g id="edge20_Node000012_Node000013" class="edge">
<title>Node12&#45;&gt;Node13</title>
<g id="a_edge20_Node000012_Node000013"><a xlink:title=" ">
<path fill="none" stroke="#63b8ff" d="M298.33,-285.99C281.07,-277.79 254.38,-265.09 232.21,-254.55"/>
<polygon fill="#63b8ff" stroke="#63b8ff" points="233.56,-251.31 223.03,-250.18 230.55,-257.63 233.56,-251.31"/>
</a>
</g>
</g>
<!-- Node14 -->
<g id="Node000014" class="node">
<title>Node14</title>
<g id="a_Node000014"><a xlink:href="FEC_8h.html" target="_top" xlink:title=" ">
<polygon fill="white" stroke="#666666" points="359.22,-244.5 273.22,-244.5 273.22,-225.5 359.22,-225.5 359.22,-244.5"/>
<text text-anchor="middle" x="316.22" y="-232.5" font-family="Helvetica,sans-Serif" font-size="10.00">../../utils/FEC.h</text>
</a>
</g>
</g>
<!-- Node12&#45;&gt;Node14 -->
<g id="edge23_Node000012_Node000014" class="edge">
<title>Node12&#45;&gt;Node14</title>
<g id="a_edge23_Node000012_Node000014"><a xlink:title=" ">
<path fill="none" stroke="#63b8ff" d="M316.22,-285.87C316.22,-277.75 316.22,-265.31 316.22,-254.89"/>
<polygon fill="#63b8ff" stroke="#63b8ff" points="319.72,-254.67 316.22,-244.67 312.72,-254.67 319.72,-254.67"/>
</a>
</g>
</g>
<!-- Node15 -->
<g id="Node000015" class="node">
<title>Node15</title>
<g id="a_Node000015"><a xlink:href="CRC_8h.html" target="_top" xlink:title=" ">
<polygon fill="white" stroke="#666666" points="113.22,-244.5 25.22,-244.5 25.22,-225.5 113.22,-225.5 113.22,-244.5"/>
<text text-anchor="middle" x="69.22" y="-232.5" font-family="Helvetica,sans-Serif" font-size="10.00">../../utils/CRC.h</text>
</a>
</g>
</g>
<!-- Node12&#45;&gt;Node15 -->
<g id="edge26_Node000012_Node000015" class="edge">
<title>Node12&#45;&gt;Node15</title>
<g id="a_edge26_Node000012_Node000015"><a xlink:title=" ">
<path fill="none" stroke="#63b8ff" d="M284.89,-287.65C246.48,-279.17 179.42,-264.11 122.22,-250 118.43,-249.07 114.49,-248.07 110.55,-247.06"/>
<polygon fill="#63b8ff" stroke="#63b8ff" points="111.4,-243.66 100.84,-244.54 109.64,-250.44 111.4,-243.66"/>
</a>
</g>
</g>
<!-- Node16 -->
<g id="Node000016" class="node">
<title>Node16</title>
<g id="a_Node000016"><a xlink:href="SX126x__commands_8h.html" target="_top" xlink:title=" ">
<polygon fill="white" stroke="#666666" points="486.22,-184 364.22,-184 364.22,-165 486.22,-165 486.22,-184"/>
<text text-anchor="middle" x="425.22" y="-172" font-family="Helvetica,sans-Serif" font-size="10.00">SX126x_commands.h</text>
</a>
</g>
</g>
<!-- Node12&#45;&gt;Node16 -->
<g id="edge29_Node000012_Node000016" class="edge">
<title>Node12&#45;&gt;Node16</title>
<g id="a_edge29_Node000012_Node000016"><a xlink:title=" ">
<path fill="none" stroke="#63b8ff" d="M344.71,-285.91C363.2,-278.97 386.51,-267.45 401.22,-250 414.59,-234.13 420.55,-210.67 423.18,-194.33"/>
<polygon fill="#63b8ff" stroke="#63b8ff" points="426.66,-194.72 424.52,-184.34 419.72,-193.79 426.66,-194.72"/>
</a>
</g>
</g>
<!-- Node17 -->
<g id="Node000017" class="node">
<title>Node17</title>
<g id="a_Node000017"><a xlink:href="SX126x__registers_8h.html" target="_top" xlink:title=" ">
<polygon fill="white" stroke="#666666" points="614.22,-184 504.22,-184 504.22,-165 614.22,-165 614.22,-184"/>
<text text-anchor="middle" x="559.22" y="-172" font-family="Helvetica,sans-Serif" font-size="10.00">SX126x_registers.h</text>
</a>
</g>
</g>
<!-- Node12&#45;&gt;Node17 -->
<g id="edge31_Node000012_Node000017" class="edge">
<title>Node12&#45;&gt;Node17</title>
<g id="a_edge31_Node000012_Node000017"><a xlink:title=" ">
<path fill="none" stroke="#63b8ff" d="M338.65,-285.98C360.52,-277.49 394.56,-263.76 423.22,-250 463.64,-230.59 509.02,-204.91 535.81,-189.32"/>
<polygon fill="#63b8ff" stroke="#63b8ff" points="537.93,-192.14 544.79,-184.07 534.39,-186.1 537.93,-192.14"/>
</a>
</g>
</g>
<!-- Node13&#45;&gt;Node2 -->
<g id="edge21_Node000013_Node000002" class="edge">
<title>Node13&#45;&gt;Node2</title>
<g id="a_edge21_Node000013_Node000002"><a xlink:title=" ">
<path fill="none" stroke="#63b8ff" d="M206.77,-219.63C226.8,-198.37 264.2,-158.71 285.1,-136.54"/>
<polygon fill="#63b8ff" stroke="#63b8ff" points="287.67,-138.91 291.99,-129.23 282.58,-134.1 287.67,-138.91"/>
</a>
</g>
</g>
<!-- Node13&#45;&gt;Node7 -->
<g id="edge22_Node000013_Node000007" class="edge">
<title>Node13&#45;&gt;Node7</title>
<g id="a_edge22_Node000013_Node000007"><a xlink:title=" ">
<path fill="none" stroke="#63b8ff" d="M180.87,-219.84C173.54,-211.43 164.22,-200.74 156.57,-191.96"/>
<polygon fill="#63b8ff" stroke="#63b8ff" points="159.07,-189.5 149.86,-184.27 153.79,-194.1 159.07,-189.5"/>
</a>
</g>
</g>
<!-- Node14&#45;&gt;Node2 -->
<g id="edge24_Node000014_Node000002" class="edge">
<title>Node14&#45;&gt;Node2</title>
<g id="a_edge24_Node000014_Node000002"><a xlink:title=" ">
<path fill="none" stroke="#63b8ff" d="M315.01,-225.47C312.44,-207.23 306.36,-164.07 302.84,-139.14"/>
<polygon fill="#63b8ff" stroke="#63b8ff" points="306.29,-138.54 301.43,-129.13 299.36,-139.52 306.29,-138.54"/>
</a>
</g>
</g>
<!-- Node14&#45;&gt;Node7 -->
<g id="edge25_Node000014_Node000007" class="edge">
<title>Node14&#45;&gt;Node7</title>
<g id="a_edge25_Node000014_Node000007"><a xlink:title=" ">
<path fill="none" stroke="#63b8ff" d="M290.91,-225.49C261.02,-215.44 211.1,-198.66 177.43,-187.34"/>
<polygon fill="#63b8ff" stroke="#63b8ff" points="178.14,-183.89 167.55,-184.02 175.91,-190.52 178.14,-183.89"/>
</a>
</g>
</g>
<!-- Node15&#45;&gt;Node2 -->
<g id="edge27_Node000015_Node000002" class="edge">
<title>Node15&#45;&gt;Node2</title>
<g id="a_edge27_Node000015_Node000002"><a xlink:title=" ">
<path fill="none" stroke="#63b8ff" d="M93.03,-225.36C117.94,-216.07 157.96,-200.4 191.22,-184 222.18,-168.73 256.35,-148.18 278.03,-134.65"/>
<polygon fill="#63b8ff" stroke="#63b8ff" points="280.18,-137.43 286.79,-129.14 276.46,-131.5 280.18,-137.43"/>
</a>
</g>
</g>
<!-- Node15&#45;&gt;Node7 -->
<g id="edge28_Node000015_Node000007" class="edge">
<title>Node15&#45;&gt;Node7</title>
<g id="a_edge28_Node000015_Node000007"><a xlink:title=" ">
<path fill="none" stroke="#63b8ff" d="M79.99,-225.37C91.42,-216.21 109.7,-201.56 123.49,-190.51"/>
<polygon fill="#63b8ff" stroke="#63b8ff" points="125.79,-193.15 131.4,-184.17 121.41,-187.69 125.79,-193.15"/>
</a>
</g>
</g>
<!-- Node16&#45;&gt;Node2 -->
<g id="edge30_Node000016_Node000002" class="edge">
<title>Node16&#45;&gt;Node2</title>
<g id="a_edge30_Node000016_Node000002"><a xlink:title=" ">
<path fill="none" stroke="#63b8ff" d="M405.13,-164.98C384.84,-156.38 353.26,-142.99 330.04,-133.15"/>
<polygon fill="#63b8ff" stroke="#63b8ff" points="331.24,-129.85 320.66,-129.17 328.51,-136.3 331.24,-129.85"/>
</a>
</g>
</g>
<!-- Node17&#45;&gt;Node2 -->
<g id="edge32_Node000017_Node000002" class="edge">
<title>Node17&#45;&gt;Node2</title>
<g id="a_edge32_Node000017_Node000002"><a xlink:title=" ">
<path fill="none" stroke="#63b8ff" d="M517.6,-164.98C472.48,-155.75 400.4,-141 351.74,-131.04"/>
<polygon fill="#63b8ff" stroke="#63b8ff" points="352.22,-127.57 341.73,-128.99 350.82,-134.43 352.22,-127.57"/>
</a>
</g>
</g>
</g>
</svg>
