<?xml version="1.0" encoding="UTF-8" standalone="no"?>
<!DOCTYPE svg PUBLIC "-//W3C//DTD SVG 1.1//EN"
 "http://www.w3.org/Graphics/SVG/1.1/DTD/svg11.dtd">
<!-- Generated by graphviz version 2.43.0 (0)
 -->
<!-- Title: thirdparty/RadioLib/include/RadioLib/modules/SX126x/SX1262.h Pages: 1 -->
<svg width="322pt" height="401pt"
 viewBox="0.00 0.00 321.50 401.00" xmlns="http://www.w3.org/2000/svg" xmlns:xlink="http://www.w3.org/1999/xlink">
<g id="graph0" class="graph" transform="scale(1 1) rotate(0) translate(4 397)">
<title>thirdparty/RadioLib/include/RadioLib/modules/SX126x/SX1262.h</title>
<!-- Node1 -->
<g id="Node000001" class="node">
<title>Node1</title>
<g id="a_Node000001"><a xlink:title=" ">
<polygon fill="#999999" stroke="#666666" points="219,-393 74,-393 74,-352 219,-352 219,-393"/>
<text text-anchor="start" x="82" y="-381" font-family="Helvetica,sans-Serif" font-size="10.00">thirdparty/RadioLib</text>
<text text-anchor="start" x="82" y="-370" font-family="Helvetica,sans-Serif" font-size="10.00">/include/RadioLib/modules</text>
<text text-anchor="middle" x="146.5" y="-359" font-family="Helvetica,sans-Serif" font-size="10.00">/SX126x/SX1262.h</text>
</a>
</g>
</g>
<!-- Node2 -->
<g id="Node000002" class="node">
<title>Node2</title>
<g id="a_Node000002"><a xlink:href="receiver-normal_8cpp.html" target="_top" xlink:title=" ">
<polygon fill="white" stroke="#666666" points="313.5,-19 181.5,-19 181.5,0 313.5,0 313.5,-19"/>
<text text-anchor="middle" x="247.5" y="-7" font-family="Helvetica,sans-Serif" font-size="10.00">src/receiver&#45;normal.cpp</text>
</a>
</g>
</g>
<!-- Node1&#45;&gt;Node2 -->
<g id="edge1_Node000001_Node000002" class="edge">
<title>Node1&#45;&gt;Node2</title>
<g id="a_edge1_Node000001_Node000002"><a xlink:title=" ">
<path fill="none" stroke="#63b8ff" d="M206.06,-347.06C220.72,-338.88 235.39,-328.56 246.5,-316 277.14,-281.35 285.5,-265.76 285.5,-219.5 285.5,-219.5 285.5,-219.5 285.5,-146 285.5,-96.4 261.61,-40.26 251.71,-19.14"/>
<polygon fill="#63b8ff" stroke="#63b8ff" points="204.16,-344.11 196.96,-351.88 207.43,-350.29 204.16,-344.11"/>
</a>
</g>
</g>
<!-- Node3 -->
<g id="Node000003" class="node">
<title>Node3</title>
<g id="a_Node000003"><a xlink:href="transmitter-normal_8cpp.html" target="_top" xlink:title=" ">
<polygon fill="white" stroke="#666666" points="147,-19 0,-19 0,0 147,0 147,-19"/>
<text text-anchor="middle" x="73.5" y="-7" font-family="Helvetica,sans-Serif" font-size="10.00">src/transmitter&#45;normal.cpp</text>
</a>
</g>
</g>
<!-- Node1&#45;&gt;Node3 -->
<g id="edge2_Node000001_Node000003" class="edge">
<title>Node1&#45;&gt;Node3</title>
<g id="a_edge2_Node000001_Node000003"><a xlink:title=" ">
<path fill="none" stroke="#63b8ff" d="M94.48,-346.6C80.63,-338.25 66.48,-327.97 55.5,-316 23.12,-280.7 7.5,-267.4 7.5,-219.5 7.5,-219.5 7.5,-219.5 7.5,-146 7.5,-93.41 48.19,-39.87 65.67,-19.29"/>
<polygon fill="#63b8ff" stroke="#63b8ff" points="93.1,-349.85 103.51,-351.81 96.59,-343.78 93.1,-349.85"/>
</a>
</g>
</g>
<!-- Node4 -->
<g id="Node000004" class="node">
<title>Node4</title>
<g id="a_Node000004"><a xlink:href="RadioLib_8h.html" target="_top" xlink:title=" ">
<polygon fill="white" stroke="#666666" points="247.5,-162 93.5,-162 93.5,-132 247.5,-132 247.5,-162"/>
<text text-anchor="start" x="101.5" y="-150" font-family="Helvetica,sans-Serif" font-size="10.00">thirdparty/RadioLib</text>
<text text-anchor="middle" x="170.5" y="-139" font-family="Helvetica,sans-Serif" font-size="10.00">/include/RadioLib/RadioLib.h</text>
</a>
</g>
</g>
<!-- Node1&#45;&gt;Node4 -->
<g id="edge3_Node000001_Node000004" class="edge">
<title>Node1&#45;&gt;Node4</title>
<g id="a_edge3_Node000001_Node000004"><a xlink:title=" ">
<path fill="none" stroke="#63b8ff" d="M199.8,-346.48C211.3,-338.44 221.95,-328.34 228.5,-316 256.99,-262.31 207.29,-191.76 182.86,-162.1"/>
<polygon fill="#63b8ff" stroke="#63b8ff" points="197.82,-343.59 191.33,-351.97 201.62,-349.47 197.82,-343.59"/>
</a>
</g>
</g>
<!-- Node6 -->
<g id="Node000006" class="node">
<title>Node6</title>
<g id="a_Node000006"><a xlink:href="LLCC68_8h.html" target="_top" xlink:title=" ">
<polygon fill="white" stroke="#666666" points="181,-239 36,-239 36,-198 181,-198 181,-239"/>
<text text-anchor="start" x="44" y="-227" font-family="Helvetica,sans-Serif" font-size="10.00">thirdparty/RadioLib</text>
<text text-anchor="start" x="44" y="-216" font-family="Helvetica,sans-Serif" font-size="10.00">/include/RadioLib/modules</text>
<text text-anchor="middle" x="108.5" y="-205" font-family="Helvetica,sans-Serif" font-size="10.00">/LLCC68/LLCC68.h</text>
</a>
</g>
</g>
<!-- Node1&#45;&gt;Node6 -->
<g id="edge9_Node000001_Node000006" class="edge">
<title>Node1&#45;&gt;Node6</title>
<g id="a_edge9_Node000001_Node000006"><a xlink:title=" ">
<path fill="none" stroke="#63b8ff" d="M93.2,-346.48C81.7,-338.44 71.05,-328.34 64.5,-316 55.96,-299.9 58.51,-292.21 64.5,-275 69.19,-261.53 78.67,-248.87 87.62,-239.06"/>
<polygon fill="#63b8ff" stroke="#63b8ff" points="91.38,-349.47 101.67,-351.97 95.18,-343.59 91.38,-349.47"/>
</a>
</g>
</g>
<!-- Node7 -->
<g id="Node000007" class="node">
<title>Node7</title>
<g id="a_Node000007"><a xlink:href="SX1261_8h.html" target="_top" xlink:title=" ">
<polygon fill="white" stroke="#666666" points="219,-316 74,-316 74,-275 219,-275 219,-316"/>
<text text-anchor="start" x="82" y="-304" font-family="Helvetica,sans-Serif" font-size="10.00">thirdparty/RadioLib</text>
<text text-anchor="start" x="82" y="-293" font-family="Helvetica,sans-Serif" font-size="10.00">/include/RadioLib/modules</text>
<text text-anchor="middle" x="146.5" y="-282" font-family="Helvetica,sans-Serif" font-size="10.00">/SX126x/SX1261.h</text>
</a>
</g>
</g>
<!-- Node1&#45;&gt;Node7 -->
<g id="edge11_Node000001_Node000007" class="edge">
<title>Node1&#45;&gt;Node7</title>
<g id="a_edge11_Node000001_Node000007"><a xlink:title=" ">
<path fill="none" stroke="#63b8ff" d="M146.5,-341.69C146.5,-333.08 146.5,-323.9 146.5,-316.07"/>
<polygon fill="#63b8ff" stroke="#63b8ff" points="143,-341.79 146.5,-351.79 150,-341.79 143,-341.79"/>
</a>
</g>
</g>
<!-- Node4&#45;&gt;Node2 -->
<g id="edge4_Node000004_Node000002" class="edge">
<title>Node4&#45;&gt;Node2</title>
<g id="a_edge4_Node000004_Node000002"><a xlink:title=" ">
<path fill="none" stroke="#63b8ff" d="M200.96,-125.88C211.13,-117.74 221.61,-107.52 228.5,-96 243.49,-70.94 246.68,-35.38 247.34,-19.16"/>
<polygon fill="#63b8ff" stroke="#63b8ff" points="198.8,-123.12 192.95,-131.95 203.03,-128.7 198.8,-123.12"/>
</a>
</g>
</g>
<!-- Node4&#45;&gt;Node3 -->
<g id="edge5_Node000004_Node000003" class="edge">
<title>Node4&#45;&gt;Node3</title>
<g id="a_edge5_Node000004_Node000003"><a xlink:title=" ">
<path fill="none" stroke="#63b8ff" d="M127.82,-126.82C114.71,-119 101.41,-108.75 92.5,-96 75.78,-72.07 73.45,-35.94 73.33,-19.37"/>
<polygon fill="#63b8ff" stroke="#63b8ff" points="126.37,-130.02 136.81,-131.85 129.79,-123.91 126.37,-130.02"/>
</a>
</g>
</g>
<!-- Node5 -->
<g id="Node000005" class="node">
<title>Node5</title>
<g id="a_Node000005"><a xlink:href="PiHal_8h.html" target="_top" xlink:title=" ">
<polygon fill="white" stroke="#666666" points="219.5,-96 101.5,-96 101.5,-55 219.5,-55 219.5,-96"/>
<text text-anchor="start" x="109.5" y="-84" font-family="Helvetica,sans-Serif" font-size="10.00">thirdparty/RadioLib</text>
<text text-anchor="start" x="109.5" y="-73" font-family="Helvetica,sans-Serif" font-size="10.00">/include/RadioLib/hal</text>
<text text-anchor="middle" x="160.5" y="-62" font-family="Helvetica,sans-Serif" font-size="10.00">/RPi/PiHal.h</text>
</a>
</g>
</g>
<!-- Node4&#45;&gt;Node5 -->
<g id="edge6_Node000004_Node000005" class="edge">
<title>Node4&#45;&gt;Node5</title>
<g id="a_edge6_Node000004_Node000005"><a xlink:title=" ">
<path fill="none" stroke="#63b8ff" d="M167.03,-121.91C165.82,-113.47 164.47,-104.1 163.32,-96.07"/>
<polygon fill="#63b8ff" stroke="#63b8ff" points="163.59,-122.54 168.48,-131.94 170.52,-121.54 163.59,-122.54"/>
</a>
</g>
</g>
<!-- Node5&#45;&gt;Node2 -->
<g id="edge7_Node000005_Node000002" class="edge">
<title>Node5&#45;&gt;Node2</title>
<g id="a_edge7_Node000005_Node000002"><a xlink:title=" ">
<path fill="none" stroke="#63b8ff" d="M195.29,-48.9C209.59,-38.39 225.2,-26.9 235.59,-19.26"/>
<polygon fill="#63b8ff" stroke="#63b8ff" points="193.06,-46.21 187.08,-54.95 197.2,-51.84 193.06,-46.21"/>
</a>
</g>
</g>
<!-- Node5&#45;&gt;Node3 -->
<g id="edge8_Node000005_Node000003" class="edge">
<title>Node5&#45;&gt;Node3</title>
<g id="a_edge8_Node000005_Node000003"><a xlink:title=" ">
<path fill="none" stroke="#63b8ff" d="M125.71,-48.9C111.41,-38.39 95.8,-26.9 85.41,-19.26"/>
<polygon fill="#63b8ff" stroke="#63b8ff" points="123.8,-51.84 133.92,-54.95 127.94,-46.21 123.8,-51.84"/>
</a>
</g>
</g>
<!-- Node6&#45;&gt;Node4 -->
<g id="edge10_Node000006_Node000004" class="edge">
<title>Node6&#45;&gt;Node4</title>
<g id="a_edge10_Node000006_Node000004"><a xlink:title=" ">
<path fill="none" stroke="#63b8ff" d="M132.8,-190.26C141.41,-180.61 150.75,-170.14 157.98,-162.04"/>
<polygon fill="#63b8ff" stroke="#63b8ff" points="130.15,-187.98 126.1,-197.77 135.37,-192.64 130.15,-187.98"/>
</a>
</g>
</g>
<!-- Node7&#45;&gt;Node4 -->
<g id="edge12_Node000007_Node000004" class="edge">
<title>Node7&#45;&gt;Node4</title>
<g id="a_edge12_Node000007_Node000004"><a xlink:title=" ">
<path fill="none" stroke="#63b8ff" d="M173.9,-267.34C180.64,-258.95 186.94,-249.21 190.5,-239 199.7,-212.57 187.34,-180.31 178.35,-162.16"/>
<polygon fill="#63b8ff" stroke="#63b8ff" points="171.23,-265.08 167.38,-274.94 176.54,-269.63 171.23,-265.08"/>
</a>
</g>
</g>
<!-- Node7&#45;&gt;Node6 -->
<g id="edge13_Node000007_Node000006" class="edge">
<title>Node7&#45;&gt;Node6</title>
<g id="a_edge13_Node000007_Node000006"><a xlink:title=" ">
<path fill="none" stroke="#63b8ff" d="M131.97,-265.83C127.44,-256.89 122.55,-247.24 118.42,-239.07"/>
<polygon fill="#63b8ff" stroke="#63b8ff" points="128.87,-267.46 136.52,-274.79 135.12,-264.29 128.87,-267.46"/>
</a>
</g>
</g>
</g>
</svg>
