<?xml version="1.0" encoding="UTF-8" standalone="no"?>
<!DOCTYPE svg PUBLIC "-//W3C//DTD SVG 1.1//EN"
 "http://www.w3.org/Graphics/SVG/1.1/DTD/svg11.dtd">
<!-- Generated by graphviz version 2.43.0 (0)
 -->
<!-- Title: thirdparty/RadioLib/include/RadioLib/modules/SX126x/SX126x.h Pages: 1 -->
<svg width="580pt" height="335pt"
 viewBox="0.00 0.00 579.50 335.00" xmlns="http://www.w3.org/2000/svg" xmlns:xlink="http://www.w3.org/1999/xlink">
<g id="graph0" class="graph" transform="scale(1 1) rotate(0) translate(4 331)">
<title>thirdparty/RadioLib/include/RadioLib/modules/SX126x/SX126x.h</title>
<!-- Node1 -->
<g id="Node000001" class="node">
<title>Node1</title>
<g id="a_Node000001"><a xlink:title=" ">
<polygon fill="#999999" stroke="#666666" points="338.5,-327 193.5,-327 193.5,-286 338.5,-286 338.5,-327"/>
<text text-anchor="start" x="201.5" y="-315" font-family="Helvetica,sans-Serif" font-size="10.00">thirdparty/RadioLib</text>
<text text-anchor="start" x="201.5" y="-304" font-family="Helvetica,sans-Serif" font-size="10.00">/include/RadioLib/modules</text>
<text text-anchor="middle" x="266" y="-293" font-family="Helvetica,sans-Serif" font-size="10.00">/SX126x/SX126x.h</text>
</a>
</g>
</g>
<!-- Node2 -->
<g id="Node000002" class="node">
<title>Node2</title>
<g id="a_Node000002"><a xlink:href="TypeDef_8h.html" target="_top" xlink:title=" ">
<polygon fill="white" stroke="#666666" points="357.5,-129 274.5,-129 274.5,-110 357.5,-110 357.5,-129"/>
<text text-anchor="middle" x="316" y="-117" font-family="Helvetica,sans-Serif" font-size="10.00">../../TypeDef.h</text>
</a>
</g>
</g>
<!-- Node1&#45;&gt;Node2 -->
<g id="edge1_Node000001_Node000002" class="edge">
<title>Node1&#45;&gt;Node2</title>
<g id="a_edge1_Node000001_Node000002"><a xlink:title=" ">
<path fill="none" stroke="#63b8ff" d="M231.47,-285.83C188.36,-258.75 124.07,-208.41 157,-165 170.08,-147.75 223.08,-135.37 264.34,-128.11"/>
<polygon fill="#63b8ff" stroke="#63b8ff" points="265,-131.55 274.27,-126.42 263.83,-124.65 265,-131.55"/>
</a>
</g>
</g>
<!-- Node7 -->
<g id="Node000007" class="node">
<title>Node7</title>
<g id="a_Node000007"><a xlink:href="Module_8h.html" target="_top" xlink:title=" ">
<polygon fill="white" stroke="#666666" points="500,-184 420,-184 420,-165 500,-165 500,-184"/>
<text text-anchor="middle" x="460" y="-172" font-family="Helvetica,sans-Serif" font-size="10.00">../../Module.h</text>
</a>
</g>
</g>
<!-- Node1&#45;&gt;Node7 -->
<g id="edge7_Node000001_Node000007" class="edge">
<title>Node1&#45;&gt;Node7</title>
<g id="a_edge7_Node000001_Node000007"><a xlink:title=" ">
<path fill="none" stroke="#63b8ff" d="M338.76,-301.35C413.07,-295.42 521.11,-281.5 547,-250 555.47,-239.7 553.96,-231.37 547,-220 537.6,-204.64 521.04,-194.36 504.86,-187.6"/>
<polygon fill="#63b8ff" stroke="#63b8ff" points="506.04,-184.3 495.44,-184.01 503.54,-190.84 506.04,-184.3"/>
</a>
</g>
</g>
<!-- Node12 -->
<g id="Node000012" class="node">
<title>Node12</title>
<g id="a_Node000012"><a xlink:href="PhysicalLayer_8h.html" target="_top" xlink:title=" ">
<polygon fill="white" stroke="#666666" points="327.5,-250 204.5,-250 204.5,-220 327.5,-220 327.5,-250"/>
<text text-anchor="start" x="212.5" y="-238" font-family="Helvetica,sans-Serif" font-size="10.00">../../protocols/Physical</text>
<text text-anchor="middle" x="266" y="-227" font-family="Helvetica,sans-Serif" font-size="10.00">Layer/PhysicalLayer.h</text>
</a>
</g>
</g>
<!-- Node1&#45;&gt;Node12 -->
<g id="edge17_Node000001_Node000012" class="edge">
<title>Node1&#45;&gt;Node12</title>
<g id="a_edge17_Node000001_Node000012"><a xlink:title=" ">
<path fill="none" stroke="#63b8ff" d="M266,-285.77C266,-277.85 266,-268.63 266,-260.3"/>
<polygon fill="#63b8ff" stroke="#63b8ff" points="269.5,-260.04 266,-250.04 262.5,-260.04 269.5,-260.04"/>
</a>
</g>
</g>
<!-- Node13 -->
<g id="Node000013" class="node">
<title>Node13</title>
<g id="a_Node000013"><a xlink:href="FEC_8h.html" target="_top" xlink:title=" ">
<polygon fill="white" stroke="#666666" points="432,-244.5 346,-244.5 346,-225.5 432,-225.5 432,-244.5"/>
<text text-anchor="middle" x="389" y="-232.5" font-family="Helvetica,sans-Serif" font-size="10.00">../../utils/FEC.h</text>
</a>
</g>
</g>
<!-- Node1&#45;&gt;Node13 -->
<g id="edge20_Node000001_Node000013" class="edge">
<title>Node1&#45;&gt;Node13</title>
<g id="a_edge20_Node000001_Node000013"><a xlink:title=" ">
<path fill="none" stroke="#63b8ff" d="M300.59,-285.96C321.16,-274.33 346.74,-259.88 365.08,-249.51"/>
<polygon fill="#63b8ff" stroke="#63b8ff" points="366.97,-252.47 373.95,-244.5 363.52,-246.38 366.97,-252.47"/>
</a>
</g>
</g>
<!-- Node14 -->
<g id="Node000014" class="node">
<title>Node14</title>
<g id="a_Node000014"><a xlink:href="CRC_8h.html" target="_top" xlink:title=" ">
<polygon fill="white" stroke="#666666" points="538,-244.5 450,-244.5 450,-225.5 538,-225.5 538,-244.5"/>
<text text-anchor="middle" x="494" y="-232.5" font-family="Helvetica,sans-Serif" font-size="10.00">../../utils/CRC.h</text>
</a>
</g>
</g>
<!-- Node1&#45;&gt;Node14 -->
<g id="edge23_Node000001_Node000014" class="edge">
<title>Node1&#45;&gt;Node14</title>
<g id="a_edge23_Node000001_Node000014"><a xlink:title=" ">
<path fill="none" stroke="#63b8ff" d="M330.12,-285.96C370.88,-273.53 422.23,-257.88 456.49,-247.44"/>
<polygon fill="#63b8ff" stroke="#63b8ff" points="457.56,-250.77 466.1,-244.5 455.52,-244.07 457.56,-250.77"/>
</a>
</g>
</g>
<!-- Node15 -->
<g id="Node000015" class="node">
<title>Node15</title>
<g id="a_Node000015"><a xlink:href="SX126x__commands_8h.html" target="_top" xlink:title=" ">
<polygon fill="white" stroke="#666666" points="288,-184 166,-184 166,-165 288,-165 288,-184"/>
<text text-anchor="middle" x="227" y="-172" font-family="Helvetica,sans-Serif" font-size="10.00">SX126x_commands.h</text>
</a>
</g>
</g>
<!-- Node1&#45;&gt;Node15 -->
<g id="edge26_Node000001_Node000015" class="edge">
<title>Node1&#45;&gt;Node15</title>
<g id="a_edge26_Node000001_Node000015"><a xlink:title=" ">
<path fill="none" stroke="#63b8ff" d="M229.43,-285.91C216.38,-276.86 203.15,-264.8 196,-250 186.62,-230.6 199.71,-207.62 211.64,-192.36"/>
<polygon fill="#63b8ff" stroke="#63b8ff" points="214.61,-194.27 218.36,-184.36 209.25,-189.77 214.61,-194.27"/>
</a>
</g>
</g>
<!-- Node16 -->
<g id="Node000016" class="node">
<title>Node16</title>
<g id="a_Node000016"><a xlink:href="SX126x__registers_8h.html" target="_top" xlink:title=" ">
<polygon fill="white" stroke="#666666" points="110,-184 0,-184 0,-165 110,-165 110,-184"/>
<text text-anchor="middle" x="55" y="-172" font-family="Helvetica,sans-Serif" font-size="10.00">SX126x_registers.h</text>
</a>
</g>
</g>
<!-- Node1&#45;&gt;Node16 -->
<g id="edge28_Node000001_Node000016" class="edge">
<title>Node1&#45;&gt;Node16</title>
<g id="a_edge28_Node000001_Node000016"><a xlink:title=" ">
<path fill="none" stroke="#63b8ff" d="M197.89,-285.92C173.39,-277.1 146.31,-265.2 124,-250 100.64,-234.09 79.48,-208.89 66.92,-192.27"/>
<polygon fill="#63b8ff" stroke="#63b8ff" points="69.62,-190.03 60.87,-184.04 63.98,-194.17 69.62,-190.03"/>
</a>
</g>
</g>
<!-- Node3 -->
<g id="Node000003" class="node">
<title>Node3</title>
<g id="a_Node000003"><a xlink:href="BuildOptUser_8h.html" target="_top" xlink:title=" ">
<polygon fill="white" stroke="#666666" points="263.5,-74 174.5,-74 174.5,-55 263.5,-55 263.5,-74"/>
<text text-anchor="middle" x="219" y="-62" font-family="Helvetica,sans-Serif" font-size="10.00">BuildOptUser.h</text>
</a>
</g>
</g>
<!-- Node2&#45;&gt;Node3 -->
<g id="edge2_Node000002_Node000003" class="edge">
<title>Node2&#45;&gt;Node3</title>
<g id="a_edge2_Node000002_Node000003"><a xlink:title=" ">
<path fill="none" stroke="#63b8ff" d="M300.42,-109.98C285.23,-101.69 261.9,-88.94 244.1,-79.22"/>
<polygon fill="#63b8ff" stroke="#63b8ff" points="245.32,-75.89 234.87,-74.17 241.97,-82.04 245.32,-75.89"/>
</a>
</g>
</g>
<!-- Node4 -->
<g id="Node000004" class="node">
<title>Node4</title>
<g id="a_Node000004"><a xlink:href="BuildOpt_8h.html" target="_top" xlink:title=" ">
<polygon fill="white" stroke="#666666" points="350,-74 282,-74 282,-55 350,-55 350,-74"/>
<text text-anchor="middle" x="316" y="-62" font-family="Helvetica,sans-Serif" font-size="10.00">BuildOpt.h</text>
</a>
</g>
</g>
<!-- Node2&#45;&gt;Node4 -->
<g id="edge3_Node000002_Node000004" class="edge">
<title>Node2&#45;&gt;Node4</title>
<g id="a_edge3_Node000002_Node000004"><a xlink:title=" ">
<path fill="none" stroke="#63b8ff" d="M310.83,-109.75C309.34,-102.8 308.9,-92.85 309.52,-84.13"/>
<polygon fill="#63b8ff" stroke="#63b8ff" points="313.01,-84.47 310.87,-74.09 306.07,-83.53 313.01,-84.47"/>
</a>
</g>
</g>
<!-- Node4&#45;&gt;Node2 -->
<g id="edge4_Node000004_Node000002" class="edge">
<title>Node4&#45;&gt;Node2</title>
<g id="a_edge4_Node000004_Node000002"><a xlink:title=" ">
<path fill="none" stroke="#63b8ff" d="M321.13,-74.09C322.64,-80.99 323.09,-90.93 322.49,-99.66"/>
<polygon fill="#63b8ff" stroke="#63b8ff" points="319,-99.38 321.17,-109.75 325.94,-100.29 319,-99.38"/>
</a>
</g>
</g>
<!-- Node5 -->
<g id="Node000005" class="node">
<title>Node5</title>
<g id="a_Node000005"><a xlink:title=" ">
<polygon fill="#e0e0e0" stroke="#999999" points="337,-19 287,-19 287,0 337,0 337,-19"/>
<text text-anchor="middle" x="312" y="-7" font-family="Helvetica,sans-Serif" font-size="10.00">stdio.h</text>
</a>
</g>
</g>
<!-- Node4&#45;&gt;Node5 -->
<g id="edge5_Node000004_Node000005" class="edge">
<title>Node4&#45;&gt;Node5</title>
<g id="a_edge5_Node000004_Node000005"><a xlink:title=" ">
<path fill="none" stroke="#63b8ff" d="M315.34,-54.75C314.82,-47.8 314.06,-37.85 313.41,-29.13"/>
<polygon fill="#63b8ff" stroke="#63b8ff" points="316.89,-28.8 312.65,-19.09 309.91,-29.32 316.89,-28.8"/>
</a>
</g>
</g>
<!-- Node6 -->
<g id="Node000006" class="node">
<title>Node6</title>
<g id="a_Node000006"><a xlink:title=" ">
<polygon fill="#e0e0e0" stroke="#999999" points="408.5,-19 355.5,-19 355.5,0 408.5,0 408.5,-19"/>
<text text-anchor="middle" x="382" y="-7" font-family="Helvetica,sans-Serif" font-size="10.00">stdint.h</text>
</a>
</g>
</g>
<!-- Node4&#45;&gt;Node6 -->
<g id="edge6_Node000004_Node000006" class="edge">
<title>Node4&#45;&gt;Node6</title>
<g id="a_edge6_Node000004_Node000006"><a xlink:title=" ">
<path fill="none" stroke="#63b8ff" d="M326.6,-54.98C336.46,-47.07 351.35,-35.11 363.22,-25.58"/>
<polygon fill="#63b8ff" stroke="#63b8ff" points="365.6,-28.16 371.2,-19.17 361.21,-22.7 365.6,-28.16"/>
</a>
</g>
</g>
<!-- Node7&#45;&gt;Node2 -->
<g id="edge8_Node000007_Node000002" class="edge">
<title>Node7&#45;&gt;Node2</title>
<g id="a_edge8_Node000007_Node000002"><a xlink:title=" ">
<path fill="none" stroke="#63b8ff" d="M436.86,-164.98C413.18,-156.27 376.13,-142.63 349.29,-132.75"/>
<polygon fill="#63b8ff" stroke="#63b8ff" points="350.15,-129.34 339.56,-129.17 347.73,-135.91 350.15,-129.34"/>
</a>
</g>
</g>
<!-- Node8 -->
<g id="Node000008" class="node">
<title>Node8</title>
<g id="a_Node000008"><a xlink:href="Hal_8h.html" target="_top" xlink:title=" ">
<polygon fill="white" stroke="#666666" points="422,-129 380,-129 380,-110 422,-110 422,-129"/>
<text text-anchor="middle" x="401" y="-117" font-family="Helvetica,sans-Serif" font-size="10.00">Hal.h</text>
</a>
</g>
</g>
<!-- Node7&#45;&gt;Node8 -->
<g id="edge9_Node000007_Node000008" class="edge">
<title>Node7&#45;&gt;Node8</title>
<g id="a_edge9_Node000007_Node000008"><a xlink:title=" ">
<path fill="none" stroke="#63b8ff" d="M450.52,-164.98C441.8,-157.15 428.66,-145.34 418.1,-135.86"/>
<polygon fill="#63b8ff" stroke="#63b8ff" points="420.43,-133.25 410.65,-129.17 415.75,-138.46 420.43,-133.25"/>
</a>
</g>
</g>
<!-- Node10 -->
<g id="Node000010" class="node">
<title>Node10</title>
<g id="a_Node000010"><a xlink:href="Utils_8h.html" target="_top" xlink:title=" ">
<polygon fill="white" stroke="#666666" points="521,-129 449,-129 449,-110 521,-110 521,-129"/>
<text text-anchor="middle" x="485" y="-117" font-family="Helvetica,sans-Serif" font-size="10.00">utils/Utils.h</text>
</a>
</g>
</g>
<!-- Node7&#45;&gt;Node10 -->
<g id="edge13_Node000007_Node000010" class="edge">
<title>Node7&#45;&gt;Node10</title>
<g id="a_edge13_Node000007_Node000010"><a xlink:title=" ">
<path fill="none" stroke="#63b8ff" d="M464.13,-164.75C467.51,-157.57 472.42,-147.18 476.62,-138.27"/>
<polygon fill="#63b8ff" stroke="#63b8ff" points="479.85,-139.63 480.95,-129.09 473.52,-136.64 479.85,-139.63"/>
</a>
</g>
</g>
<!-- Node8&#45;&gt;Node4 -->
<g id="edge12_Node000008_Node000004" class="edge">
<title>Node8&#45;&gt;Node4</title>
<g id="a_edge12_Node000008_Node000004"><a xlink:title=" ">
<path fill="none" stroke="#63b8ff" d="M387.34,-109.98C374.16,-101.77 353.97,-89.18 338.43,-79.49"/>
<polygon fill="#63b8ff" stroke="#63b8ff" points="340.24,-76.49 329.91,-74.17 336.54,-82.43 340.24,-76.49"/>
</a>
</g>
</g>
<!-- Node8&#45;&gt;Node6 -->
<g id="edge10_Node000008_Node000006" class="edge">
<title>Node8&#45;&gt;Node6</title>
<g id="a_edge10_Node000008_Node000006"><a xlink:title=" ">
<path fill="none" stroke="#63b8ff" d="M399.45,-109.66C396.37,-92.17 389.44,-52.8 385.3,-29.27"/>
<polygon fill="#63b8ff" stroke="#63b8ff" points="388.7,-28.4 383.52,-19.16 381.81,-29.61 388.7,-28.4"/>
</a>
</g>
</g>
<!-- Node9 -->
<g id="Node000009" class="node">
<title>Node9</title>
<g id="a_Node000009"><a xlink:title=" ">
<polygon fill="#e0e0e0" stroke="#999999" points="462,-74 406,-74 406,-55 462,-55 462,-74"/>
<text text-anchor="middle" x="434" y="-62" font-family="Helvetica,sans-Serif" font-size="10.00">stddef.h</text>
</a>
</g>
</g>
<!-- Node8&#45;&gt;Node9 -->
<g id="edge11_Node000008_Node000009" class="edge">
<title>Node8&#45;&gt;Node9</title>
<g id="a_edge11_Node000008_Node000009"><a xlink:title=" ">
<path fill="none" stroke="#63b8ff" d="M406.45,-109.75C411.01,-102.42 417.67,-91.73 423.29,-82.7"/>
<polygon fill="#63b8ff" stroke="#63b8ff" points="426.34,-84.43 428.65,-74.09 420.4,-80.73 426.34,-84.43"/>
</a>
</g>
</g>
<!-- Node10&#45;&gt;Node4 -->
<g id="edge16_Node000010_Node000004" class="edge">
<title>Node10&#45;&gt;Node4</title>
<g id="a_edge16_Node000010_Node000004"><a xlink:title=" ">
<path fill="none" stroke="#63b8ff" d="M457.85,-109.98C429.47,-101.09 384.77,-87.07 353.14,-77.15"/>
<polygon fill="#63b8ff" stroke="#63b8ff" points="353.95,-73.73 343.37,-74.08 351.86,-80.41 353.95,-73.73"/>
</a>
</g>
</g>
<!-- Node10&#45;&gt;Node6 -->
<g id="edge14_Node000010_Node000006" class="edge">
<title>Node10&#45;&gt;Node6</title>
<g id="a_edge14_Node000010_Node000006"><a xlink:title=" ">
<path fill="none" stroke="#63b8ff" d="M485.33,-109.71C485.38,-96.46 483.63,-71.21 471,-55 457.86,-38.14 436.62,-27.18 418.19,-20.36"/>
<polygon fill="#63b8ff" stroke="#63b8ff" points="419.18,-17 408.59,-17.07 416.91,-23.62 419.18,-17"/>
</a>
</g>
</g>
<!-- Node11 -->
<g id="Node000011" class="node">
<title>Node11</title>
<g id="a_Node000011"><a xlink:title=" ">
<polygon fill="#e0e0e0" stroke="#999999" points="571.5,-74 518.5,-74 518.5,-55 571.5,-55 571.5,-74"/>
<text text-anchor="middle" x="545" y="-62" font-family="Helvetica,sans-Serif" font-size="10.00">stdlib.h</text>
</a>
</g>
</g>
<!-- Node10&#45;&gt;Node11 -->
<g id="edge15_Node000010_Node000011" class="edge">
<title>Node10&#45;&gt;Node11</title>
<g id="a_edge15_Node000010_Node000011"><a xlink:title=" ">
<path fill="none" stroke="#63b8ff" d="M494.64,-109.98C503.51,-102.15 516.87,-90.34 527.61,-80.86"/>
<polygon fill="#63b8ff" stroke="#63b8ff" points="530.01,-83.41 535.18,-74.17 525.37,-78.17 530.01,-83.41"/>
</a>
</g>
</g>
<!-- Node12&#45;&gt;Node2 -->
<g id="edge18_Node000012_Node000002" class="edge">
<title>Node12&#45;&gt;Node2</title>
<g id="a_edge18_Node000012_Node000002"><a xlink:title=" ">
<path fill="none" stroke="#63b8ff" d="M276.29,-219.69C282.91,-209.99 291.3,-196.67 297,-184 303.5,-169.55 308.5,-152.28 311.74,-139.4"/>
<polygon fill="#63b8ff" stroke="#63b8ff" points="315.21,-139.93 314.12,-129.39 308.4,-138.31 315.21,-139.93"/>
</a>
</g>
</g>
<!-- Node12&#45;&gt;Node7 -->
<g id="edge19_Node000012_Node000007" class="edge">
<title>Node12&#45;&gt;Node7</title>
<g id="a_edge19_Node000012_Node000007"><a xlink:title=" ">
<path fill="none" stroke="#63b8ff" d="M312.47,-219.99C345.95,-209.89 390.57,-196.44 421.94,-186.98"/>
<polygon fill="#63b8ff" stroke="#63b8ff" points="423.07,-190.29 431.63,-184.05 421.05,-183.59 423.07,-190.29"/>
</a>
</g>
</g>
<!-- Node13&#45;&gt;Node2 -->
<g id="edge21_Node000013_Node000002" class="edge">
<title>Node13&#45;&gt;Node2</title>
<g id="a_edge21_Node000013_Node000002"><a xlink:title=" ">
<path fill="none" stroke="#63b8ff" d="M383.51,-225.47C371.57,-206.9 343.02,-162.51 327.14,-137.82"/>
<polygon fill="#63b8ff" stroke="#63b8ff" points="329.9,-135.65 321.55,-129.13 324.02,-139.43 329.9,-135.65"/>
</a>
</g>
</g>
<!-- Node13&#45;&gt;Node7 -->
<g id="edge22_Node000013_Node000007" class="edge">
<title>Node13&#45;&gt;Node7</title>
<g id="a_edge22_Node000013_Node000007"><a xlink:title=" ">
<path fill="none" stroke="#63b8ff" d="M399.48,-225.37C410.49,-216.3 428.04,-201.84 441.41,-190.82"/>
<polygon fill="#63b8ff" stroke="#63b8ff" points="443.99,-193.23 449.48,-184.17 439.54,-187.83 443.99,-193.23"/>
</a>
</g>
</g>
<!-- Node14&#45;&gt;Node2 -->
<g id="edge24_Node000014_Node000002" class="edge">
<title>Node14&#45;&gt;Node2</title>
<g id="a_edge24_Node000014_Node000002"><a xlink:title=" ">
<path fill="none" stroke="#63b8ff" d="M479.18,-225.36C462.48,-215.55 434.57,-198.97 411,-184 385.12,-167.57 355.87,-147.84 336.75,-134.78"/>
<polygon fill="#63b8ff" stroke="#63b8ff" points="338.71,-131.88 328.48,-129.11 334.75,-137.65 338.71,-131.88"/>
</a>
</g>
</g>
<!-- Node14&#45;&gt;Node7 -->
<g id="edge25_Node000014_Node000007" class="edge">
<title>Node14&#45;&gt;Node7</title>
<g id="a_edge25_Node000014_Node000007"><a xlink:title=" ">
<path fill="none" stroke="#63b8ff" d="M488.98,-225.37C484.06,-216.9 476.41,-203.74 470.21,-193.07"/>
<polygon fill="#63b8ff" stroke="#63b8ff" points="473.09,-191.05 465.04,-184.17 467.04,-194.57 473.09,-191.05"/>
</a>
</g>
</g>
<!-- Node15&#45;&gt;Node2 -->
<g id="edge27_Node000015_Node000002" class="edge">
<title>Node15&#45;&gt;Node2</title>
<g id="a_edge27_Node000015_Node000002"><a xlink:title=" ">
<path fill="none" stroke="#63b8ff" d="M241.3,-164.98C255.1,-156.77 276.24,-144.18 292.51,-134.49"/>
<polygon fill="#63b8ff" stroke="#63b8ff" points="294.64,-137.29 301.44,-129.17 291.06,-131.28 294.64,-137.29"/>
</a>
</g>
</g>
<!-- Node16&#45;&gt;Node2 -->
<g id="edge29_Node000016_Node000002" class="edge">
<title>Node16&#45;&gt;Node2</title>
<g id="a_edge29_Node000016_Node000002"><a xlink:title=" ">
<path fill="none" stroke="#63b8ff" d="M96.93,-164.98C142.41,-155.75 215.04,-141 264.08,-131.04"/>
<polygon fill="#63b8ff" stroke="#63b8ff" points="265.07,-134.41 274.17,-128.99 263.67,-127.55 265.07,-134.41"/>
</a>
</g>
</g>
</g>
</svg>
