<?xml version="1.0" encoding="UTF-8" standalone="no"?>
<!DOCTYPE svg PUBLIC "-//W3C//DTD SVG 1.1//EN"
 "http://www.w3.org/Graphics/SVG/1.1/DTD/svg11.dtd">
<!-- Generated by graphviz version 2.43.0 (0)
 -->
<!-- Title: thirdparty/RadioLib/include/RadioLib/modules/SX126x/SX126x_commands.h Pages: 1 -->
<svg width="431pt" height="555pt"
 viewBox="0.00 0.00 431.00 555.00" xmlns="http://www.w3.org/2000/svg" xmlns:xlink="http://www.w3.org/1999/xlink">
<g id="graph0" class="graph" transform="scale(1 1) rotate(0) translate(4 551)">
<title>thirdparty/RadioLib/include/RadioLib/modules/SX126x/SX126x_commands.h</title>
<!-- Node1 -->
<g id="Node000001" class="node">
<title>Node1</title>
<g id="a_Node000001"><a xlink:title=" ">
<polygon fill="#999999" stroke="#666666" points="274.5,-547 110.5,-547 110.5,-506 274.5,-506 274.5,-547"/>
<text text-anchor="start" x="118.5" y="-535" font-family="Helvetica,sans-Serif" font-size="10.00">thirdparty/RadioLib</text>
<text text-anchor="start" x="118.5" y="-524" font-family="Helvetica,sans-Serif" font-size="10.00">/include/RadioLib/modules</text>
<text text-anchor="middle" x="192.5" y="-513" font-family="Helvetica,sans-Serif" font-size="10.00">/SX126x/SX126x_commands.h</text>
</a>
</g>
</g>
<!-- Node2 -->
<g id="Node000002" class="node">
<title>Node2</title>
<g id="a_Node000002"><a xlink:href="SX126x_8h.html" target="_top" xlink:title=" ">
<polygon fill="white" stroke="#666666" points="265,-470 120,-470 120,-429 265,-429 265,-470"/>
<text text-anchor="start" x="128" y="-458" font-family="Helvetica,sans-Serif" font-size="10.00">thirdparty/RadioLib</text>
<text text-anchor="start" x="128" y="-447" font-family="Helvetica,sans-Serif" font-size="10.00">/include/RadioLib/modules</text>
<text text-anchor="middle" x="192.5" y="-436" font-family="Helvetica,sans-Serif" font-size="10.00">/SX126x/SX126x.h</text>
</a>
</g>
</g>
<!-- Node1&#45;&gt;Node2 -->
<g id="edge1_Node000001_Node000002" class="edge">
<title>Node1&#45;&gt;Node2</title>
<g id="a_edge1_Node000001_Node000002"><a xlink:title=" ">
<path fill="none" stroke="#63b8ff" d="M192.5,-495.69C192.5,-487.08 192.5,-477.9 192.5,-470.07"/>
<polygon fill="#63b8ff" stroke="#63b8ff" points="189,-495.79 192.5,-505.79 196,-495.79 189,-495.79"/>
</a>
</g>
</g>
<!-- Node3 -->
<g id="Node000003" class="node">
<title>Node3</title>
<g id="a_Node000003"><a xlink:href="SX1261_8h.html" target="_top" xlink:title=" ">
<polygon fill="white" stroke="#666666" points="145,-316 0,-316 0,-275 145,-275 145,-316"/>
<text text-anchor="start" x="8" y="-304" font-family="Helvetica,sans-Serif" font-size="10.00">thirdparty/RadioLib</text>
<text text-anchor="start" x="8" y="-293" font-family="Helvetica,sans-Serif" font-size="10.00">/include/RadioLib/modules</text>
<text text-anchor="middle" x="72.5" y="-282" font-family="Helvetica,sans-Serif" font-size="10.00">/SX126x/SX1261.h</text>
</a>
</g>
</g>
<!-- Node2&#45;&gt;Node3 -->
<g id="edge2_Node000002_Node000003" class="edge">
<title>Node2&#45;&gt;Node3</title>
<g id="a_edge2_Node000002_Node000003"><a xlink:title=" ">
<path fill="none" stroke="#63b8ff" d="M145.02,-423.35C132.53,-414.99 119.93,-404.77 110.5,-393 92.04,-369.95 81.63,-336.83 76.54,-316"/>
<polygon fill="#63b8ff" stroke="#63b8ff" points="143.3,-426.4 153.61,-428.83 147.06,-420.5 143.3,-426.4"/>
</a>
</g>
</g>
<!-- Node9 -->
<g id="Node000009" class="node">
<title>Node9</title>
<g id="a_Node000009"><a xlink:href="SX1262_8h.html" target="_top" xlink:title=" ">
<polygon fill="white" stroke="#666666" points="265,-393 120,-393 120,-352 265,-352 265,-393"/>
<text text-anchor="start" x="128" y="-381" font-family="Helvetica,sans-Serif" font-size="10.00">thirdparty/RadioLib</text>
<text text-anchor="start" x="128" y="-370" font-family="Helvetica,sans-Serif" font-size="10.00">/include/RadioLib/modules</text>
<text text-anchor="middle" x="192.5" y="-359" font-family="Helvetica,sans-Serif" font-size="10.00">/SX126x/SX1262.h</text>
</a>
</g>
</g>
<!-- Node2&#45;&gt;Node9 -->
<g id="edge10_Node000002_Node000009" class="edge">
<title>Node2&#45;&gt;Node9</title>
<g id="a_edge10_Node000002_Node000009"><a xlink:title=" ">
<path fill="none" stroke="#63b8ff" d="M192.5,-418.69C192.5,-410.08 192.5,-400.9 192.5,-393.07"/>
<polygon fill="#63b8ff" stroke="#63b8ff" points="189,-418.79 192.5,-428.79 196,-418.79 189,-418.79"/>
</a>
</g>
</g>
<!-- Node10 -->
<g id="Node000010" class="node">
<title>Node10</title>
<g id="a_Node000010"><a xlink:href="SX1268_8h.html" target="_top" xlink:title=" ">
<polygon fill="white" stroke="#666666" points="423,-316 278,-316 278,-275 423,-275 423,-316"/>
<text text-anchor="start" x="286" y="-304" font-family="Helvetica,sans-Serif" font-size="10.00">thirdparty/RadioLib</text>
<text text-anchor="start" x="286" y="-293" font-family="Helvetica,sans-Serif" font-size="10.00">/include/RadioLib/modules</text>
<text text-anchor="middle" x="350.5" y="-282" font-family="Helvetica,sans-Serif" font-size="10.00">/SX126x/SX1268.h</text>
</a>
</g>
</g>
<!-- Node2&#45;&gt;Node10 -->
<g id="edge15_Node000002_Node000010" class="edge">
<title>Node2&#45;&gt;Node10</title>
<g id="a_edge15_Node000002_Node000010"><a xlink:title=" ">
<path fill="none" stroke="#63b8ff" d="M234.18,-423.38C247.38,-414.55 261.62,-404.05 273.5,-393 299.09,-369.21 323.31,-336.59 337.53,-316.03"/>
<polygon fill="#63b8ff" stroke="#63b8ff" points="232.14,-420.54 225.69,-428.94 235.97,-426.39 232.14,-420.54"/>
</a>
</g>
</g>
<!-- Node4 -->
<g id="Node000004" class="node">
<title>Node4</title>
<g id="a_Node000004"><a xlink:href="RadioLib_8h.html" target="_top" xlink:title=" ">
<polygon fill="white" stroke="#666666" points="211.5,-162 57.5,-162 57.5,-132 211.5,-132 211.5,-162"/>
<text text-anchor="start" x="65.5" y="-150" font-family="Helvetica,sans-Serif" font-size="10.00">thirdparty/RadioLib</text>
<text text-anchor="middle" x="134.5" y="-139" font-family="Helvetica,sans-Serif" font-size="10.00">/include/RadioLib/RadioLib.h</text>
</a>
</g>
</g>
<!-- Node3&#45;&gt;Node4 -->
<g id="edge3_Node000003_Node000004" class="edge">
<title>Node3&#45;&gt;Node4</title>
<g id="a_edge3_Node000003_Node000004"><a xlink:title=" ">
<path fill="none" stroke="#63b8ff" d="M45.6,-267.06C29.46,-247.17 14.55,-220.01 28.5,-198 39.34,-180.9 57.77,-169.54 76.25,-162.04"/>
<polygon fill="#63b8ff" stroke="#63b8ff" points="43.1,-269.52 52.26,-274.84 48.41,-264.97 43.1,-269.52"/>
</a>
</g>
</g>
<!-- Node8 -->
<g id="Node000008" class="node">
<title>Node8</title>
<g id="a_Node000008"><a xlink:href="LLCC68_8h.html" target="_top" xlink:title=" ">
<polygon fill="white" stroke="#666666" points="183,-239 38,-239 38,-198 183,-198 183,-239"/>
<text text-anchor="start" x="46" y="-227" font-family="Helvetica,sans-Serif" font-size="10.00">thirdparty/RadioLib</text>
<text text-anchor="start" x="46" y="-216" font-family="Helvetica,sans-Serif" font-size="10.00">/include/RadioLib/modules</text>
<text text-anchor="middle" x="110.5" y="-205" font-family="Helvetica,sans-Serif" font-size="10.00">/LLCC68/LLCC68.h</text>
</a>
</g>
</g>
<!-- Node3&#45;&gt;Node8 -->
<g id="edge8_Node000003_Node000008" class="edge">
<title>Node3&#45;&gt;Node8</title>
<g id="a_edge8_Node000003_Node000008"><a xlink:title=" ">
<path fill="none" stroke="#63b8ff" d="M87.03,-265.83C91.56,-256.89 96.45,-247.24 100.58,-239.07"/>
<polygon fill="#63b8ff" stroke="#63b8ff" points="83.88,-264.29 82.48,-274.79 90.13,-267.46 83.88,-264.29"/>
</a>
</g>
</g>
<!-- Node5 -->
<g id="Node000005" class="node">
<title>Node5</title>
<g id="a_Node000005"><a xlink:href="transmitter-normal_8cpp.html" target="_top" xlink:title="CHRONOS&#45;LoRa Transmitter program (Normal)">
<polygon fill="white" stroke="#666666" points="304,-19 157,-19 157,0 304,0 304,-19"/>
<text text-anchor="middle" x="230.5" y="-7" font-family="Helvetica,sans-Serif" font-size="10.00">src/transmitter&#45;normal.cpp</text>
</a>
</g>
</g>
<!-- Node4&#45;&gt;Node5 -->
<g id="edge4_Node000004_Node000005" class="edge">
<title>Node4&#45;&gt;Node5</title>
<g id="a_edge4_Node000004_Node000005"><a xlink:title=" ">
<path fill="none" stroke="#63b8ff" d="M163.03,-125.64C173.27,-117.31 184.31,-107.03 192.5,-96 211.09,-70.96 223.17,-35.39 228.05,-19.16"/>
<polygon fill="#63b8ff" stroke="#63b8ff" points="160.77,-122.96 155.05,-131.88 165.09,-128.47 160.77,-122.96"/>
</a>
</g>
</g>
<!-- Node6 -->
<g id="Node000006" class="node">
<title>Node6</title>
<g id="a_Node000006"><a xlink:href="PiHal_8h.html" target="_top" xlink:title=" ">
<polygon fill="white" stroke="#666666" points="183.5,-96 65.5,-96 65.5,-55 183.5,-55 183.5,-96"/>
<text text-anchor="start" x="73.5" y="-84" font-family="Helvetica,sans-Serif" font-size="10.00">thirdparty/RadioLib</text>
<text text-anchor="start" x="73.5" y="-73" font-family="Helvetica,sans-Serif" font-size="10.00">/include/RadioLib/hal</text>
<text text-anchor="middle" x="124.5" y="-62" font-family="Helvetica,sans-Serif" font-size="10.00">/RPi/PiHal.h</text>
</a>
</g>
</g>
<!-- Node4&#45;&gt;Node6 -->
<g id="edge5_Node000004_Node000006" class="edge">
<title>Node4&#45;&gt;Node6</title>
<g id="a_edge5_Node000004_Node000006"><a xlink:title=" ">
<path fill="none" stroke="#63b8ff" d="M131.03,-121.91C129.82,-113.47 128.47,-104.1 127.32,-96.07"/>
<polygon fill="#63b8ff" stroke="#63b8ff" points="127.59,-122.54 132.48,-131.94 134.52,-121.54 127.59,-122.54"/>
</a>
</g>
</g>
<!-- Node6&#45;&gt;Node5 -->
<g id="edge7_Node000006_Node000005" class="edge">
<title>Node6&#45;&gt;Node5</title>
<g id="a_edge7_Node000006_Node000005"><a xlink:title=" ">
<path fill="none" stroke="#63b8ff" d="M165.49,-49.75C183.41,-38.93 203.27,-26.94 216.27,-19.09"/>
<polygon fill="#63b8ff" stroke="#63b8ff" points="163.63,-46.79 156.88,-54.95 167.25,-52.78 163.63,-46.79"/>
</a>
</g>
</g>
<!-- Node7 -->
<g id="Node000007" class="node">
<title>Node7</title>
<g id="a_Node000007"><a xlink:href="receiver-normal_8cpp.html" target="_top" xlink:title="CHRONOS&#45;LoRa Receiver program (Normal)">
<polygon fill="white" stroke="#666666" points="138.5,-19 6.5,-19 6.5,0 138.5,0 138.5,-19"/>
<text text-anchor="middle" x="72.5" y="-7" font-family="Helvetica,sans-Serif" font-size="10.00">src/receiver&#45;normal.cpp</text>
</a>
</g>
</g>
<!-- Node6&#45;&gt;Node7 -->
<g id="edge6_Node000006_Node000007" class="edge">
<title>Node6&#45;&gt;Node7</title>
<g id="a_edge6_Node000006_Node000007"><a xlink:title=" ">
<path fill="none" stroke="#63b8ff" d="M102.26,-47.13C94.12,-37.11 85.48,-26.47 79.62,-19.26"/>
<polygon fill="#63b8ff" stroke="#63b8ff" points="99.59,-49.4 108.62,-54.95 105.03,-44.98 99.59,-49.4"/>
</a>
</g>
</g>
<!-- Node8&#45;&gt;Node4 -->
<g id="edge9_Node000008_Node000004" class="edge">
<title>Node8&#45;&gt;Node4</title>
<g id="a_edge9_Node000008_Node000004"><a xlink:title=" ">
<path fill="none" stroke="#63b8ff" d="M120.6,-188.24C123.74,-179.17 127.05,-169.58 129.65,-162.04"/>
<polygon fill="#63b8ff" stroke="#63b8ff" points="117.27,-187.18 117.31,-197.77 123.89,-189.46 117.27,-187.18"/>
</a>
</g>
</g>
<!-- Node9&#45;&gt;Node3 -->
<g id="edge14_Node000009_Node000003" class="edge">
<title>Node9&#45;&gt;Node3</title>
<g id="a_edge14_Node000009_Node000003"><a xlink:title=" ">
<path fill="none" stroke="#63b8ff" d="M152.73,-346.64C136.88,-336.74 118.89,-325.5 103.98,-316.17"/>
<polygon fill="#63b8ff" stroke="#63b8ff" points="150.95,-349.66 161.28,-351.99 154.66,-343.72 150.95,-349.66"/>
</a>
</g>
</g>
<!-- Node9&#45;&gt;Node4 -->
<g id="edge12_Node000009_Node000004" class="edge">
<title>Node9&#45;&gt;Node4</title>
<g id="a_edge12_Node000009_Node000004"><a xlink:title=" ">
<path fill="none" stroke="#63b8ff" d="M199.36,-342.1C206.18,-306.28 212.85,-244.76 191.5,-198 184.67,-183.03 170.92,-170.76 158.63,-162.12"/>
<polygon fill="#63b8ff" stroke="#63b8ff" points="195.93,-341.42 197.36,-351.92 202.78,-342.82 195.93,-341.42"/>
</a>
</g>
</g>
<!-- Node9&#45;&gt;Node5 -->
<g id="edge11_Node000009_Node000005" class="edge">
<title>Node9&#45;&gt;Node5</title>
<g id="a_edge11_Node000009_Node000005"><a xlink:title=" ">
<path fill="none" stroke="#63b8ff" d="M210.34,-342.77C227.06,-313.07 249.5,-264.77 249.5,-219.5 249.5,-219.5 249.5,-219.5 249.5,-146 249.5,-97.54 237.43,-40.27 232.53,-19"/>
<polygon fill="#63b8ff" stroke="#63b8ff" points="207.13,-341.33 205.15,-351.74 213.19,-344.84 207.13,-341.33"/>
</a>
</g>
</g>
<!-- Node9&#45;&gt;Node8 -->
<g id="edge13_Node000009_Node000008" class="edge">
<title>Node9&#45;&gt;Node8</title>
<g id="a_edge13_Node000009_Node000008"><a xlink:title=" ">
<path fill="none" stroke="#63b8ff" d="M183.06,-342.29C176.15,-322.63 165.84,-296.48 153.5,-275 146.21,-262.32 136.31,-249.33 127.84,-239.11"/>
<polygon fill="#63b8ff" stroke="#63b8ff" points="179.81,-343.59 186.36,-351.92 186.43,-341.32 179.81,-343.59"/>
</a>
</g>
</g>
<!-- Node10&#45;&gt;Node4 -->
<g id="edge16_Node000010_Node000004" class="edge">
<title>Node10&#45;&gt;Node4</title>
<g id="a_edge16_Node000010_Node000004"><a xlink:title=" ">
<path fill="none" stroke="#63b8ff" d="M319.41,-268.32C294.71,-248.06 258.88,-219.87 225.5,-198 205.14,-184.67 180.95,-171.49 162.63,-162.01"/>
<polygon fill="#63b8ff" stroke="#63b8ff" points="317.4,-271.2 327.34,-274.87 321.86,-265.8 317.4,-271.2"/>
</a>
</g>
</g>
</g>
</svg>
