<?xml version="1.0" encoding="UTF-8" standalone="no"?>
<!DOCTYPE svg PUBLIC "-//W3C//DTD SVG 1.1//EN"
 "http://www.w3.org/Graphics/SVG/1.1/DTD/svg11.dtd">
<!-- Generated by graphviz version 2.43.0 (0)
 -->
<!-- Title: thirdparty/RadioLib/include/RadioLib/modules/SX127x/SX1278.h Pages: 1 -->
<svg width="497pt" height="324pt"
 viewBox="0.00 0.00 496.55 324.00" xmlns="http://www.w3.org/2000/svg" xmlns:xlink="http://www.w3.org/1999/xlink">
<g id="graph0" class="graph" transform="scale(1 1) rotate(0) translate(4 320)">
<title>thirdparty/RadioLib/include/RadioLib/modules/SX127x/SX1278.h</title>
<!-- Node1 -->
<g id="Node000001" class="node">
<title>Node1</title>
<g id="a_Node000001"><a xlink:title=" ">
<polygon fill="#999999" stroke="#666666" points="243.55,-316 98.55,-316 98.55,-275 243.55,-275 243.55,-316"/>
<text text-anchor="start" x="106.55" y="-304" font-family="Helvetica,sans-Serif" font-size="10.00">thirdparty/RadioLib</text>
<text text-anchor="start" x="106.55" y="-293" font-family="Helvetica,sans-Serif" font-size="10.00">/include/RadioLib/modules</text>
<text text-anchor="middle" x="171.05" y="-282" font-family="Helvetica,sans-Serif" font-size="10.00">/SX127x/SX1278.h</text>
</a>
</g>
</g>
<!-- Node2 -->
<g id="Node000002" class="node">
<title>Node2</title>
<g id="a_Node000002"><a xlink:href="RadioLib_8h.html" target="_top" xlink:title=" ">
<polygon fill="white" stroke="#666666" points="248.05,-162 94.05,-162 94.05,-132 248.05,-132 248.05,-162"/>
<text text-anchor="start" x="102.05" y="-150" font-family="Helvetica,sans-Serif" font-size="10.00">thirdparty/RadioLib</text>
<text text-anchor="middle" x="171.05" y="-139" font-family="Helvetica,sans-Serif" font-size="10.00">/include/RadioLib/RadioLib.h</text>
</a>
</g>
</g>
<!-- Node1&#45;&gt;Node2 -->
<g id="edge1_Node000001_Node000002" class="edge">
<title>Node1&#45;&gt;Node2</title>
<g id="a_edge1_Node000001_Node000002"><a xlink:title=" ">
<path fill="none" stroke="#63b8ff" d="M88.54,-286.4C58.16,-278.95 26.66,-264.99 8.05,-239 -2.55,-224.18 -2.78,-212.65 8.05,-198 27.94,-171.1 62.03,-158.21 93.91,-152.2"/>
<polygon fill="#63b8ff" stroke="#63b8ff" points="87.82,-289.83 98.34,-288.6 89.35,-282.99 87.82,-289.83"/>
</a>
</g>
</g>
<!-- Node6 -->
<g id="Node000006" class="node">
<title>Node6</title>
<g id="a_Node000006"><a xlink:href="SX1276_8h.html" target="_top" xlink:title=" ">
<polygon fill="white" stroke="#666666" points="162.55,-239 17.55,-239 17.55,-198 162.55,-198 162.55,-239"/>
<text text-anchor="start" x="25.55" y="-227" font-family="Helvetica,sans-Serif" font-size="10.00">thirdparty/RadioLib</text>
<text text-anchor="start" x="25.55" y="-216" font-family="Helvetica,sans-Serif" font-size="10.00">/include/RadioLib/modules</text>
<text text-anchor="middle" x="90.05" y="-205" font-family="Helvetica,sans-Serif" font-size="10.00">/SX127x/SX1276.h</text>
</a>
</g>
</g>
<!-- Node1&#45;&gt;Node6 -->
<g id="edge7_Node000001_Node000006" class="edge">
<title>Node1&#45;&gt;Node6</title>
<g id="a_edge7_Node000001_Node000006"><a xlink:title=" ">
<path fill="none" stroke="#63b8ff" d="M142.21,-267.79C131.98,-258.32 120.66,-247.84 111.19,-239.07"/>
<polygon fill="#63b8ff" stroke="#63b8ff" points="140.06,-270.57 149.77,-274.79 144.81,-265.43 140.06,-270.57"/>
</a>
</g>
</g>
<!-- Node7 -->
<g id="Node000007" class="node">
<title>Node7</title>
<g id="a_Node000007"><a xlink:href="SX1277_8h.html" target="_top" xlink:title=" ">
<polygon fill="white" stroke="#666666" points="325.55,-239 180.55,-239 180.55,-198 325.55,-198 325.55,-239"/>
<text text-anchor="start" x="188.55" y="-227" font-family="Helvetica,sans-Serif" font-size="10.00">thirdparty/RadioLib</text>
<text text-anchor="start" x="188.55" y="-216" font-family="Helvetica,sans-Serif" font-size="10.00">/include/RadioLib/modules</text>
<text text-anchor="middle" x="253.05" y="-205" font-family="Helvetica,sans-Serif" font-size="10.00">/SX127x/SX1277.h</text>
</a>
</g>
</g>
<!-- Node1&#45;&gt;Node7 -->
<g id="edge9_Node000001_Node000007" class="edge">
<title>Node1&#45;&gt;Node7</title>
<g id="a_edge9_Node000001_Node000007"><a xlink:title=" ">
<path fill="none" stroke="#63b8ff" d="M200.26,-267.79C210.61,-258.32 222.07,-247.84 231.65,-239.07"/>
<polygon fill="#63b8ff" stroke="#63b8ff" points="197.62,-265.46 192.6,-274.79 202.34,-270.63 197.62,-265.46"/>
</a>
</g>
</g>
<!-- Node8 -->
<g id="Node000008" class="node">
<title>Node8</title>
<g id="a_Node000008"><a xlink:href="SX1279_8h.html" target="_top" xlink:title=" ">
<polygon fill="white" stroke="#666666" points="488.55,-239 343.55,-239 343.55,-198 488.55,-198 488.55,-239"/>
<text text-anchor="start" x="351.55" y="-227" font-family="Helvetica,sans-Serif" font-size="10.00">thirdparty/RadioLib</text>
<text text-anchor="start" x="351.55" y="-216" font-family="Helvetica,sans-Serif" font-size="10.00">/include/RadioLib/modules</text>
<text text-anchor="middle" x="416.05" y="-205" font-family="Helvetica,sans-Serif" font-size="10.00">/SX127x/SX1279.h</text>
</a>
</g>
</g>
<!-- Node1&#45;&gt;Node8 -->
<g id="edge11_Node000001_Node000008" class="edge">
<title>Node1&#45;&gt;Node8</title>
<g id="a_edge11_Node000001_Node000008"><a xlink:title=" ">
<path fill="none" stroke="#63b8ff" d="M244.73,-271.94C278.97,-261.46 319.29,-249.12 352.22,-239.04"/>
<polygon fill="#63b8ff" stroke="#63b8ff" points="243.32,-268.72 234.79,-274.99 245.37,-275.41 243.32,-268.72"/>
</a>
</g>
</g>
<!-- Node3 -->
<g id="Node000003" class="node">
<title>Node3</title>
<g id="a_Node000003"><a xlink:href="receiver-normal_8cpp.html" target="_top" xlink:title=" ">
<polygon fill="white" stroke="#666666" points="158.05,-19 26.05,-19 26.05,0 158.05,0 158.05,-19"/>
<text text-anchor="middle" x="92.05" y="-7" font-family="Helvetica,sans-Serif" font-size="10.00">src/receiver&#45;normal.cpp</text>
</a>
</g>
</g>
<!-- Node2&#45;&gt;Node3 -->
<g id="edge2_Node000002_Node000003" class="edge">
<title>Node2&#45;&gt;Node3</title>
<g id="a_edge2_Node000002_Node000003"><a xlink:title=" ">
<path fill="none" stroke="#63b8ff" d="M133.37,-126.32C121.83,-118.44 110.28,-108.27 103.05,-96 88.47,-71.24 89.57,-35.53 91.04,-19.22"/>
<polygon fill="#63b8ff" stroke="#63b8ff" points="131.81,-129.48 142.12,-131.9 135.57,-123.58 131.81,-129.48"/>
</a>
</g>
</g>
<!-- Node4 -->
<g id="Node000004" class="node">
<title>Node4</title>
<g id="a_Node000004"><a xlink:href="transmitter-normal_8cpp.html" target="_top" xlink:title=" ">
<polygon fill="white" stroke="#666666" points="327.55,-19 180.55,-19 180.55,0 327.55,0 327.55,-19"/>
<text text-anchor="middle" x="254.05" y="-7" font-family="Helvetica,sans-Serif" font-size="10.00">src/transmitter&#45;normal.cpp</text>
</a>
</g>
</g>
<!-- Node2&#45;&gt;Node4 -->
<g id="edge3_Node000002_Node000004" class="edge">
<title>Node2&#45;&gt;Node4</title>
<g id="a_edge3_Node000002_Node000004"><a xlink:title=" ">
<path fill="none" stroke="#63b8ff" d="M207.79,-126.55C219.51,-118.59 231.41,-108.32 239.05,-96 254.31,-71.41 255.12,-35.61 254.57,-19.25"/>
<polygon fill="#63b8ff" stroke="#63b8ff" points="205.9,-123.61 199.35,-131.94 209.66,-129.51 205.9,-123.61"/>
</a>
</g>
</g>
<!-- Node5 -->
<g id="Node000005" class="node">
<title>Node5</title>
<g id="a_Node000005"><a xlink:href="PiHal_8h.html" target="_top" xlink:title=" ">
<polygon fill="white" stroke="#666666" points="230.05,-96 112.05,-96 112.05,-55 230.05,-55 230.05,-96"/>
<text text-anchor="start" x="120.05" y="-84" font-family="Helvetica,sans-Serif" font-size="10.00">thirdparty/RadioLib</text>
<text text-anchor="start" x="120.05" y="-73" font-family="Helvetica,sans-Serif" font-size="10.00">/include/RadioLib/hal</text>
<text text-anchor="middle" x="171.05" y="-62" font-family="Helvetica,sans-Serif" font-size="10.00">/RPi/PiHal.h</text>
</a>
</g>
</g>
<!-- Node2&#45;&gt;Node5 -->
<g id="edge4_Node000002_Node000005" class="edge">
<title>Node2&#45;&gt;Node5</title>
<g id="a_edge4_Node000002_Node000005"><a xlink:title=" ">
<path fill="none" stroke="#63b8ff" d="M171.05,-121.91C171.05,-113.47 171.05,-104.1 171.05,-96.07"/>
<polygon fill="#63b8ff" stroke="#63b8ff" points="167.55,-121.94 171.05,-131.94 174.55,-121.94 167.55,-121.94"/>
</a>
</g>
</g>
<!-- Node5&#45;&gt;Node3 -->
<g id="edge5_Node000005_Node000003" class="edge">
<title>Node5&#45;&gt;Node3</title>
<g id="a_edge5_Node000005_Node000003"><a xlink:title=" ">
<path fill="none" stroke="#63b8ff" d="M139.09,-48.61C126.21,-38.17 112.21,-26.83 102.87,-19.26"/>
<polygon fill="#63b8ff" stroke="#63b8ff" points="136.95,-51.37 146.92,-54.95 141.35,-45.94 136.95,-51.37"/>
</a>
</g>
</g>
<!-- Node5&#45;&gt;Node4 -->
<g id="edge6_Node000005_Node000004" class="edge">
<title>Node5&#45;&gt;Node4</title>
<g id="a_edge6_Node000005_Node000004"><a xlink:title=" ">
<path fill="none" stroke="#63b8ff" d="M204.63,-48.61C218.17,-38.17 232.87,-26.83 242.69,-19.26"/>
<polygon fill="#63b8ff" stroke="#63b8ff" points="202.19,-46.07 196.41,-54.95 206.46,-51.62 202.19,-46.07"/>
</a>
</g>
</g>
<!-- Node6&#45;&gt;Node2 -->
<g id="edge8_Node000006_Node000002" class="edge">
<title>Node6&#45;&gt;Node2</title>
<g id="a_edge8_Node000006_Node000002"><a xlink:title=" ">
<path fill="none" stroke="#63b8ff" d="M120.8,-191.12C132.32,-181.23 144.97,-170.38 154.69,-162.04"/>
<polygon fill="#63b8ff" stroke="#63b8ff" points="118.36,-188.6 113.05,-197.77 122.92,-193.91 118.36,-188.6"/>
</a>
</g>
</g>
<!-- Node7&#45;&gt;Node2 -->
<g id="edge10_Node000007_Node000002" class="edge">
<title>Node7&#45;&gt;Node2</title>
<g id="a_edge10_Node000007_Node000002"><a xlink:title=" ">
<path fill="none" stroke="#63b8ff" d="M221.93,-191.12C210.26,-181.23 197.46,-170.38 187.62,-162.04"/>
<polygon fill="#63b8ff" stroke="#63b8ff" points="219.88,-193.97 229.78,-197.77 224.41,-188.63 219.88,-193.97"/>
</a>
</g>
</g>
<!-- Node8&#45;&gt;Node2 -->
<g id="edge12_Node000008_Node000002" class="edge">
<title>Node8&#45;&gt;Node2</title>
<g id="a_edge12_Node000008_Node000002"><a xlink:title=" ">
<path fill="none" stroke="#63b8ff" d="M337.05,-195.09C298.71,-184.21 253.84,-171.48 220.42,-162"/>
<polygon fill="#63b8ff" stroke="#63b8ff" points="336.58,-198.59 347.16,-197.96 338.49,-191.86 336.58,-198.59"/>
</a>
</g>
</g>
</g>
</svg>
