<?xml version="1.0" encoding="UTF-8" standalone="no"?>
<!DOCTYPE svg PUBLIC "-//W3C//DTD SVG 1.1//EN"
 "http://www.w3.org/Graphics/SVG/1.1/DTD/svg11.dtd">
<!-- Generated by graphviz version 2.43.0 (0)
 -->
<!-- Title: thirdparty/RadioLib/include/RadioLib/modules/SX127x/SX1272.h Pages: 1 -->
<svg width="406pt" height="390pt"
 viewBox="0.00 0.00 405.50 390.00" xmlns="http://www.w3.org/2000/svg" xmlns:xlink="http://www.w3.org/1999/xlink">
<g id="graph0" class="graph" transform="scale(1 1) rotate(0) translate(4 386)">
<title>thirdparty/RadioLib/include/RadioLib/modules/SX127x/SX1272.h</title>
<!-- Node1 -->
<g id="Node000001" class="node">
<title>Node1</title>
<g id="a_Node000001"><a xlink:title=" ">
<polygon fill="#999999" stroke="#666666" points="245.5,-382 100.5,-382 100.5,-341 245.5,-341 245.5,-382"/>
<text text-anchor="start" x="108.5" y="-370" font-family="Helvetica,sans-Serif" font-size="10.00">thirdparty/RadioLib</text>
<text text-anchor="start" x="108.5" y="-359" font-family="Helvetica,sans-Serif" font-size="10.00">/include/RadioLib/modules</text>
<text text-anchor="middle" x="173" y="-348" font-family="Helvetica,sans-Serif" font-size="10.00">/SX127x/SX1272.h</text>
</a>
</g>
</g>
<!-- Node2 -->
<g id="Node000002" class="node">
<title>Node2</title>
<g id="a_Node000002"><a xlink:href="TypeDef_8h.html" target="_top" xlink:title=" ">
<polygon fill="white" stroke="#666666" points="297.5,-129 214.5,-129 214.5,-110 297.5,-110 297.5,-129"/>
<text text-anchor="middle" x="256" y="-117" font-family="Helvetica,sans-Serif" font-size="10.00">../../TypeDef.h</text>
</a>
</g>
</g>
<!-- Node1&#45;&gt;Node2 -->
<g id="edge1_Node000001_Node000002" class="edge">
<title>Node1&#45;&gt;Node2</title>
<g id="a_edge1_Node000001_Node000002"><a xlink:title=" ">
<path fill="none" stroke="#63b8ff" d="M194.85,-340.81C216.1,-320.31 247.53,-286.19 264,-250 279.78,-215.33 282.63,-202.32 275,-165 273.11,-155.74 269.21,-146.03 265.43,-138.04"/>
<polygon fill="#63b8ff" stroke="#63b8ff" points="268.51,-136.37 260.88,-129.02 262.26,-139.53 268.51,-136.37"/>
</a>
</g>
</g>
<!-- Node7 -->
<g id="Node000007" class="node">
<title>Node7</title>
<g id="a_Node000007"><a xlink:href="Module_8h.html" target="_top" xlink:title=" ">
<polygon fill="white" stroke="#666666" points="131,-184 51,-184 51,-165 131,-165 131,-184"/>
<text text-anchor="middle" x="91" y="-172" font-family="Helvetica,sans-Serif" font-size="10.00">../../Module.h</text>
</a>
</g>
</g>
<!-- Node1&#45;&gt;Node7 -->
<g id="edge7_Node000001_Node000007" class="edge">
<title>Node1&#45;&gt;Node7</title>
<g id="a_edge7_Node000001_Node000007"><a xlink:title=" ">
<path fill="none" stroke="#63b8ff" d="M150.97,-340.62C130.18,-320.24 100.39,-286.43 88,-250 81.76,-231.66 83.84,-209.3 86.65,-193.89"/>
<polygon fill="#63b8ff" stroke="#63b8ff" points="90.08,-194.56 88.71,-184.05 83.23,-193.12 90.08,-194.56"/>
</a>
</g>
</g>
<!-- Node12 -->
<g id="Node000012" class="node">
<title>Node12</title>
<g id="a_Node000012"><a xlink:href="SX127x_8h.html" target="_top" xlink:title=" ">
<polygon fill="white" stroke="#666666" points="204,-305 142,-305 142,-286 204,-286 204,-305"/>
<text text-anchor="middle" x="173" y="-293" font-family="Helvetica,sans-Serif" font-size="10.00">SX127x.h</text>
</a>
</g>
</g>
<!-- Node1&#45;&gt;Node12 -->
<g id="edge17_Node000001_Node000012" class="edge">
<title>Node1&#45;&gt;Node12</title>
<g id="a_edge17_Node000001_Node000012"><a xlink:title=" ">
<path fill="none" stroke="#63b8ff" d="M173,-340.95C173,-332.85 173,-323.5 173,-315.47"/>
<polygon fill="#63b8ff" stroke="#63b8ff" points="176.5,-315.26 173,-305.26 169.5,-315.26 176.5,-315.26"/>
</a>
</g>
</g>
<!-- Node3 -->
<g id="Node000003" class="node">
<title>Node3</title>
<g id="a_Node000003"><a xlink:href="BuildOptUser_8h.html" target="_top" xlink:title=" ">
<polygon fill="white" stroke="#666666" points="397.5,-74 308.5,-74 308.5,-55 397.5,-55 397.5,-74"/>
<text text-anchor="middle" x="353" y="-62" font-family="Helvetica,sans-Serif" font-size="10.00">BuildOptUser.h</text>
</a>
</g>
</g>
<!-- Node2&#45;&gt;Node3 -->
<g id="edge2_Node000002_Node000003" class="edge">
<title>Node2&#45;&gt;Node3</title>
<g id="a_edge2_Node000002_Node000003"><a xlink:title=" ">
<path fill="none" stroke="#63b8ff" d="M271.58,-109.98C286.77,-101.69 310.1,-88.94 327.9,-79.22"/>
<polygon fill="#63b8ff" stroke="#63b8ff" points="330.03,-82.04 337.13,-74.17 326.68,-75.89 330.03,-82.04"/>
</a>
</g>
</g>
<!-- Node4 -->
<g id="Node000004" class="node">
<title>Node4</title>
<g id="a_Node000004"><a xlink:href="BuildOpt_8h.html" target="_top" xlink:title=" ">
<polygon fill="white" stroke="#666666" points="290,-74 222,-74 222,-55 290,-55 290,-74"/>
<text text-anchor="middle" x="256" y="-62" font-family="Helvetica,sans-Serif" font-size="10.00">BuildOpt.h</text>
</a>
</g>
</g>
<!-- Node2&#45;&gt;Node4 -->
<g id="edge3_Node000002_Node000004" class="edge">
<title>Node2&#45;&gt;Node4</title>
<g id="a_edge3_Node000002_Node000004"><a xlink:title=" ">
<path fill="none" stroke="#63b8ff" d="M250.83,-109.75C249.34,-102.8 248.9,-92.85 249.52,-84.13"/>
<polygon fill="#63b8ff" stroke="#63b8ff" points="253.01,-84.47 250.87,-74.09 246.07,-83.53 253.01,-84.47"/>
</a>
</g>
</g>
<!-- Node4&#45;&gt;Node2 -->
<g id="edge4_Node000004_Node000002" class="edge">
<title>Node4&#45;&gt;Node2</title>
<g id="a_edge4_Node000004_Node000002"><a xlink:title=" ">
<path fill="none" stroke="#63b8ff" d="M261.13,-74.09C262.64,-80.99 263.09,-90.93 262.49,-99.66"/>
<polygon fill="#63b8ff" stroke="#63b8ff" points="259,-99.38 261.17,-109.75 265.94,-100.29 259,-99.38"/>
</a>
</g>
</g>
<!-- Node5 -->
<g id="Node000005" class="node">
<title>Node5</title>
<g id="a_Node000005"><a xlink:title=" ">
<polygon fill="#e0e0e0" stroke="#999999" points="285,-19 235,-19 235,0 285,0 285,-19"/>
<text text-anchor="middle" x="260" y="-7" font-family="Helvetica,sans-Serif" font-size="10.00">stdio.h</text>
</a>
</g>
</g>
<!-- Node4&#45;&gt;Node5 -->
<g id="edge5_Node000004_Node000005" class="edge">
<title>Node4&#45;&gt;Node5</title>
<g id="a_edge5_Node000004_Node000005"><a xlink:title=" ">
<path fill="none" stroke="#63b8ff" d="M256.66,-54.75C257.18,-47.8 257.94,-37.85 258.59,-29.13"/>
<polygon fill="#63b8ff" stroke="#63b8ff" points="262.09,-29.32 259.35,-19.09 255.11,-28.8 262.09,-29.32"/>
</a>
</g>
</g>
<!-- Node6 -->
<g id="Node000006" class="node">
<title>Node6</title>
<g id="a_Node000006"><a xlink:title=" ">
<polygon fill="#e0e0e0" stroke="#999999" points="216.5,-19 163.5,-19 163.5,0 216.5,0 216.5,-19"/>
<text text-anchor="middle" x="190" y="-7" font-family="Helvetica,sans-Serif" font-size="10.00">stdint.h</text>
</a>
</g>
</g>
<!-- Node4&#45;&gt;Node6 -->
<g id="edge6_Node000004_Node000006" class="edge">
<title>Node4&#45;&gt;Node6</title>
<g id="a_edge6_Node000004_Node000006"><a xlink:title=" ">
<path fill="none" stroke="#63b8ff" d="M245.4,-54.98C235.54,-47.07 220.65,-35.11 208.78,-25.58"/>
<polygon fill="#63b8ff" stroke="#63b8ff" points="210.79,-22.7 200.8,-19.17 206.4,-28.16 210.79,-22.7"/>
</a>
</g>
</g>
<!-- Node7&#45;&gt;Node2 -->
<g id="edge8_Node000007_Node000002" class="edge">
<title>Node7&#45;&gt;Node2</title>
<g id="a_edge8_Node000007_Node000002"><a xlink:title=" ">
<path fill="none" stroke="#63b8ff" d="M117.51,-164.98C145.21,-156.09 188.86,-142.07 219.74,-132.15"/>
<polygon fill="#63b8ff" stroke="#63b8ff" points="220.83,-135.47 229.28,-129.08 218.69,-128.81 220.83,-135.47"/>
</a>
</g>
</g>
<!-- Node8 -->
<g id="Node000008" class="node">
<title>Node8</title>
<g id="a_Node000008"><a xlink:href="Hal_8h.html" target="_top" xlink:title=" ">
<polygon fill="white" stroke="#666666" points="105,-129 63,-129 63,-110 105,-110 105,-129"/>
<text text-anchor="middle" x="84" y="-117" font-family="Helvetica,sans-Serif" font-size="10.00">Hal.h</text>
</a>
</g>
</g>
<!-- Node7&#45;&gt;Node8 -->
<g id="edge9_Node000007_Node000008" class="edge">
<title>Node7&#45;&gt;Node8</title>
<g id="a_edge9_Node000007_Node000008"><a xlink:title=" ">
<path fill="none" stroke="#63b8ff" d="M89.84,-164.75C88.93,-157.8 87.61,-147.85 86.46,-139.13"/>
<polygon fill="#63b8ff" stroke="#63b8ff" points="89.91,-138.54 85.13,-129.09 82.97,-139.46 89.91,-138.54"/>
</a>
</g>
</g>
<!-- Node10 -->
<g id="Node000010" class="node">
<title>Node10</title>
<g id="a_Node000010"><a xlink:href="Utils_8h.html" target="_top" xlink:title=" ">
<polygon fill="white" stroke="#666666" points="195,-129 123,-129 123,-110 195,-110 195,-129"/>
<text text-anchor="middle" x="159" y="-117" font-family="Helvetica,sans-Serif" font-size="10.00">utils/Utils.h</text>
</a>
</g>
</g>
<!-- Node7&#45;&gt;Node10 -->
<g id="edge13_Node000007_Node000010" class="edge">
<title>Node7&#45;&gt;Node10</title>
<g id="a_edge13_Node000007_Node000010"><a xlink:title=" ">
<path fill="none" stroke="#63b8ff" d="M101.93,-164.98C112.08,-157.07 127.42,-145.11 139.65,-135.58"/>
<polygon fill="#63b8ff" stroke="#63b8ff" points="142.14,-138.08 147.88,-129.17 137.84,-132.56 142.14,-138.08"/>
</a>
</g>
</g>
<!-- Node8&#45;&gt;Node4 -->
<g id="edge12_Node000008_Node000004" class="edge">
<title>Node8&#45;&gt;Node4</title>
<g id="a_edge12_Node000008_Node000004"><a xlink:title=" ">
<path fill="none" stroke="#63b8ff" d="M105.09,-112C133.26,-103.32 183.64,-87.8 218.39,-77.09"/>
<polygon fill="#63b8ff" stroke="#63b8ff" points="219.66,-80.36 228.19,-74.07 217.6,-73.67 219.66,-80.36"/>
</a>
</g>
</g>
<!-- Node8&#45;&gt;Node6 -->
<g id="edge10_Node000008_Node000006" class="edge">
<title>Node8&#45;&gt;Node6</title>
<g id="a_edge10_Node000008_Node000006"><a xlink:title=" ">
<path fill="none" stroke="#63b8ff" d="M84.65,-109.69C86.06,-96.4 90.46,-71.1 104,-55 116.84,-39.73 136.27,-29.05 153.41,-21.99"/>
<polygon fill="#63b8ff" stroke="#63b8ff" points="155.08,-25.1 163.17,-18.25 152.58,-18.56 155.08,-25.1"/>
</a>
</g>
</g>
<!-- Node9 -->
<g id="Node000009" class="node">
<title>Node9</title>
<g id="a_Node000009"><a xlink:title=" ">
<polygon fill="#e0e0e0" stroke="#999999" points="56,-74 0,-74 0,-55 56,-55 56,-74"/>
<text text-anchor="middle" x="28" y="-62" font-family="Helvetica,sans-Serif" font-size="10.00">stddef.h</text>
</a>
</g>
</g>
<!-- Node8&#45;&gt;Node9 -->
<g id="edge11_Node000008_Node000009" class="edge">
<title>Node8&#45;&gt;Node9</title>
<g id="a_edge11_Node000008_Node000009"><a xlink:title=" ">
<path fill="none" stroke="#63b8ff" d="M75,-109.98C66.81,-102.23 54.49,-90.58 44.53,-81.14"/>
<polygon fill="#63b8ff" stroke="#63b8ff" points="46.83,-78.5 37.16,-74.17 42.02,-83.59 46.83,-78.5"/>
</a>
</g>
</g>
<!-- Node10&#45;&gt;Node4 -->
<g id="edge16_Node000010_Node000004" class="edge">
<title>Node10&#45;&gt;Node4</title>
<g id="a_edge16_Node000010_Node000004"><a xlink:title=" ">
<path fill="none" stroke="#63b8ff" d="M174.58,-109.98C189.77,-101.69 213.1,-88.94 230.9,-79.22"/>
<polygon fill="#63b8ff" stroke="#63b8ff" points="233.03,-82.04 240.13,-74.17 229.68,-75.89 233.03,-82.04"/>
</a>
</g>
</g>
<!-- Node10&#45;&gt;Node6 -->
<g id="edge14_Node000010_Node000006" class="edge">
<title>Node10&#45;&gt;Node6</title>
<g id="a_edge14_Node000010_Node000006"><a xlink:title=" ">
<path fill="none" stroke="#63b8ff" d="M162.49,-109.73C165.95,-100.83 171.26,-86.59 175,-74 179.44,-59.05 183.44,-41.81 186.19,-29.08"/>
<polygon fill="#63b8ff" stroke="#63b8ff" points="189.63,-29.72 188.27,-19.21 182.78,-28.27 189.63,-29.72"/>
</a>
</g>
</g>
<!-- Node11 -->
<g id="Node000011" class="node">
<title>Node11</title>
<g id="a_Node000011"><a xlink:title=" ">
<polygon fill="#e0e0e0" stroke="#999999" points="165.5,-74 112.5,-74 112.5,-55 165.5,-55 165.5,-74"/>
<text text-anchor="middle" x="139" y="-62" font-family="Helvetica,sans-Serif" font-size="10.00">stdlib.h</text>
</a>
</g>
</g>
<!-- Node10&#45;&gt;Node11 -->
<g id="edge15_Node000010_Node000011" class="edge">
<title>Node10&#45;&gt;Node11</title>
<g id="a_edge15_Node000010_Node000011"><a xlink:title=" ">
<path fill="none" stroke="#63b8ff" d="M155.7,-109.75C153.02,-102.65 149.15,-92.4 145.81,-83.56"/>
<polygon fill="#63b8ff" stroke="#63b8ff" points="149.05,-82.21 142.24,-74.09 142.5,-84.68 149.05,-82.21"/>
</a>
</g>
</g>
<!-- Node12&#45;&gt;Node2 -->
<g id="edge18_Node000012_Node000002" class="edge">
<title>Node12&#45;&gt;Node2</title>
<g id="a_edge18_Node000012_Node000002"><a xlink:title=" ">
<path fill="none" stroke="#63b8ff" d="M197.29,-285.9C213.38,-278.86 233.4,-267.22 244,-250 265.23,-215.51 262.6,-165.77 259.12,-139.09"/>
<polygon fill="#63b8ff" stroke="#63b8ff" points="262.58,-138.55 257.65,-129.18 255.66,-139.58 262.58,-138.55"/>
</a>
</g>
</g>
<!-- Node12&#45;&gt;Node7 -->
<g id="edge19_Node000012_Node000007" class="edge">
<title>Node12&#45;&gt;Node7</title>
<g id="a_edge19_Node000012_Node000007"><a xlink:title=" ">
<path fill="none" stroke="#63b8ff" d="M149.34,-285.87C133.33,-278.76 113.14,-267.05 102,-250 91.18,-233.44 89.31,-210.44 89.59,-194.39"/>
<polygon fill="#63b8ff" stroke="#63b8ff" points="93.09,-194.28 90.07,-184.12 86.1,-193.95 93.09,-194.28"/>
</a>
</g>
</g>
<!-- Node13 -->
<g id="Node000013" class="node">
<title>Node13</title>
<g id="a_Node000013"><a xlink:href="PhysicalLayer_8h.html" target="_top" xlink:title=" ">
<polygon fill="white" stroke="#666666" points="234.5,-250 111.5,-250 111.5,-220 234.5,-220 234.5,-250"/>
<text text-anchor="start" x="119.5" y="-238" font-family="Helvetica,sans-Serif" font-size="10.00">../../protocols/Physical</text>
<text text-anchor="middle" x="173" y="-227" font-family="Helvetica,sans-Serif" font-size="10.00">Layer/PhysicalLayer.h</text>
</a>
</g>
</g>
<!-- Node12&#45;&gt;Node13 -->
<g id="edge20_Node000012_Node000013" class="edge">
<title>Node12&#45;&gt;Node13</title>
<g id="a_edge20_Node000012_Node000013"><a xlink:title=" ">
<path fill="none" stroke="#63b8ff" d="M173,-285.87C173,-279.11 173,-269.35 173,-260.26"/>
<polygon fill="#63b8ff" stroke="#63b8ff" points="176.5,-260.11 173,-250.11 169.5,-260.11 176.5,-260.11"/>
</a>
</g>
</g>
<!-- Node13&#45;&gt;Node2 -->
<g id="edge21_Node000013_Node000002" class="edge">
<title>Node13&#45;&gt;Node2</title>
<g id="a_edge21_Node000013_Node000002"><a xlink:title=" ">
<path fill="none" stroke="#63b8ff" d="M183.51,-219.63C198.85,-198.65 227.3,-159.75 243.63,-137.42"/>
<polygon fill="#63b8ff" stroke="#63b8ff" points="246.54,-139.37 249.62,-129.23 240.89,-135.24 246.54,-139.37"/>
</a>
</g>
</g>
<!-- Node13&#45;&gt;Node7 -->
<g id="edge22_Node000013_Node000007" class="edge">
<title>Node13&#45;&gt;Node7</title>
<g id="a_edge22_Node000013_Node000007"><a xlink:title=" ">
<path fill="none" stroke="#63b8ff" d="M153.15,-219.84C140.52,-210.83 124.2,-199.18 111.45,-190.09"/>
<polygon fill="#63b8ff" stroke="#63b8ff" points="113.46,-187.22 103.29,-184.27 109.4,-192.92 113.46,-187.22"/>
</a>
</g>
</g>
</g>
</svg>
