<?xml version="1.0" encoding="UTF-8" standalone="no"?>
<!DOCTYPE svg PUBLIC "-//W3C//DTD SVG 1.1//EN"
 "http://www.w3.org/Graphics/SVG/1.1/DTD/svg11.dtd">
<!-- Generated by graphviz version 2.43.0 (0)
 -->
<!-- Title: thirdparty/RadioLib/include/RadioLib/modules/SX127x/SX127x.h Pages: 1 -->
<svg width="698pt" height="401pt"
 viewBox="0.00 0.00 698.18 401.00" xmlns="http://www.w3.org/2000/svg" xmlns:xlink="http://www.w3.org/1999/xlink">
<g id="graph0" class="graph" transform="scale(1 1) rotate(0) translate(4 397)">
<title>thirdparty/RadioLib/include/RadioLib/modules/SX127x/SX127x.h</title>
<!-- Node1 -->
<g id="Node000001" class="node">
<title>Node1</title>
<g id="a_Node000001"><a xlink:title=" ">
<polygon fill="#999999" stroke="#666666" points="263.18,-393 118.18,-393 118.18,-352 263.18,-352 263.18,-393"/>
<text text-anchor="start" x="126.18" y="-381" font-family="Helvetica,sans-Serif" font-size="10.00">thirdparty/RadioLib</text>
<text text-anchor="start" x="126.18" y="-370" font-family="Helvetica,sans-Serif" font-size="10.00">/include/RadioLib/modules</text>
<text text-anchor="middle" x="190.68" y="-359" font-family="Helvetica,sans-Serif" font-size="10.00">/SX127x/SX127x.h</text>
</a>
</g>
</g>
<!-- Node2 -->
<g id="Node000002" class="node">
<title>Node2</title>
<g id="a_Node000002"><a xlink:href="SX1272_8h.html" target="_top" xlink:title=" ">
<polygon fill="white" stroke="#666666" points="162.18,-316 17.18,-316 17.18,-275 162.18,-275 162.18,-316"/>
<text text-anchor="start" x="25.18" y="-304" font-family="Helvetica,sans-Serif" font-size="10.00">thirdparty/RadioLib</text>
<text text-anchor="start" x="25.18" y="-293" font-family="Helvetica,sans-Serif" font-size="10.00">/include/RadioLib/modules</text>
<text text-anchor="middle" x="89.68" y="-282" font-family="Helvetica,sans-Serif" font-size="10.00">/SX127x/SX1272.h</text>
</a>
</g>
</g>
<!-- Node1&#45;&gt;Node2 -->
<g id="edge1_Node000001_Node000002" class="edge">
<title>Node1&#45;&gt;Node2</title>
<g id="a_edge1_Node000001_Node000002"><a xlink:title=" ">
<path fill="none" stroke="#63b8ff" d="M156.09,-345.82C143.03,-336.11 128.38,-325.24 116.17,-316.17"/>
<polygon fill="#63b8ff" stroke="#63b8ff" points="154.29,-348.84 164.41,-351.99 158.47,-343.22 154.29,-348.84"/>
</a>
</g>
</g>
<!-- Node8 -->
<g id="Node000008" class="node">
<title>Node8</title>
<g id="a_Node000008"><a xlink:href="SX1278_8h.html" target="_top" xlink:title=" ">
<polygon fill="white" stroke="#666666" points="364.18,-316 219.18,-316 219.18,-275 364.18,-275 364.18,-316"/>
<text text-anchor="start" x="227.18" y="-304" font-family="Helvetica,sans-Serif" font-size="10.00">thirdparty/RadioLib</text>
<text text-anchor="start" x="227.18" y="-293" font-family="Helvetica,sans-Serif" font-size="10.00">/include/RadioLib/modules</text>
<text text-anchor="middle" x="291.68" y="-282" font-family="Helvetica,sans-Serif" font-size="10.00">/SX127x/SX1278.h</text>
</a>
</g>
</g>
<!-- Node1&#45;&gt;Node8 -->
<g id="edge9_Node000001_Node000008" class="edge">
<title>Node1&#45;&gt;Node8</title>
<g id="a_edge9_Node000001_Node000008"><a xlink:title=" ">
<path fill="none" stroke="#63b8ff" d="M225.27,-345.82C238.33,-336.11 252.98,-325.24 265.19,-316.17"/>
<polygon fill="#63b8ff" stroke="#63b8ff" points="222.9,-343.22 216.95,-351.99 227.07,-348.84 222.9,-343.22"/>
</a>
</g>
</g>
<!-- Node3 -->
<g id="Node000003" class="node">
<title>Node3</title>
<g id="a_Node000003"><a xlink:href="RadioLib_8h.html" target="_top" xlink:title=" ">
<polygon fill="white" stroke="#666666" points="317.68,-162 163.68,-162 163.68,-132 317.68,-132 317.68,-162"/>
<text text-anchor="start" x="171.68" y="-150" font-family="Helvetica,sans-Serif" font-size="10.00">thirdparty/RadioLib</text>
<text text-anchor="middle" x="240.68" y="-139" font-family="Helvetica,sans-Serif" font-size="10.00">/include/RadioLib/RadioLib.h</text>
</a>
</g>
</g>
<!-- Node2&#45;&gt;Node3 -->
<g id="edge2_Node000002_Node000003" class="edge">
<title>Node2&#45;&gt;Node3</title>
<g id="a_edge2_Node000002_Node000003"><a xlink:title=" ">
<path fill="none" stroke="#63b8ff" d="M36.38,-269.48C24.89,-261.44 14.23,-251.34 7.68,-239 -0.86,-222.9 -3.77,-212.17 7.68,-198 27.15,-173.91 103.57,-160.89 163.65,-154.24"/>
<polygon fill="#63b8ff" stroke="#63b8ff" points="34.56,-272.47 44.85,-274.97 38.36,-266.59 34.56,-272.47"/>
</a>
</g>
</g>
<!-- Node7 -->
<g id="Node000007" class="node">
<title>Node7</title>
<g id="a_Node000007"><a xlink:href="SX1273_8h.html" target="_top" xlink:title=" ">
<polygon fill="white" stroke="#666666" points="162.18,-239 17.18,-239 17.18,-198 162.18,-198 162.18,-239"/>
<text text-anchor="start" x="25.18" y="-227" font-family="Helvetica,sans-Serif" font-size="10.00">thirdparty/RadioLib</text>
<text text-anchor="start" x="25.18" y="-216" font-family="Helvetica,sans-Serif" font-size="10.00">/include/RadioLib/modules</text>
<text text-anchor="middle" x="89.68" y="-205" font-family="Helvetica,sans-Serif" font-size="10.00">/SX127x/SX1273.h</text>
</a>
</g>
</g>
<!-- Node2&#45;&gt;Node7 -->
<g id="edge7_Node000002_Node000007" class="edge">
<title>Node2&#45;&gt;Node7</title>
<g id="a_edge7_Node000002_Node000007"><a xlink:title=" ">
<path fill="none" stroke="#63b8ff" d="M89.68,-264.69C89.68,-256.08 89.68,-246.9 89.68,-239.07"/>
<polygon fill="#63b8ff" stroke="#63b8ff" points="86.18,-264.79 89.68,-274.79 93.18,-264.79 86.18,-264.79"/>
</a>
</g>
</g>
<!-- Node4 -->
<g id="Node000004" class="node">
<title>Node4</title>
<g id="a_Node000004"><a xlink:href="transmitter-normal_8cpp.html" target="_top" xlink:title="CHRONOS&#45;LoRa Transmitter program (Normal)">
<polygon fill="white" stroke="#666666" points="271.18,-19 124.18,-19 124.18,0 271.18,0 271.18,-19"/>
<text text-anchor="middle" x="197.68" y="-7" font-family="Helvetica,sans-Serif" font-size="10.00">src/transmitter&#45;normal.cpp</text>
</a>
</g>
</g>
<!-- Node3&#45;&gt;Node4 -->
<g id="edge3_Node000003_Node000004" class="edge">
<title>Node3&#45;&gt;Node4</title>
<g id="a_edge3_Node000003_Node000004"><a xlink:title=" ">
<path fill="none" stroke="#63b8ff" d="M228.21,-122.86C224.11,-114.56 219.8,-105.03 216.68,-96 207.23,-68.7 201.34,-34.82 198.93,-19.17"/>
<polygon fill="#63b8ff" stroke="#63b8ff" points="225.18,-124.62 232.85,-131.93 231.41,-121.43 225.18,-124.62"/>
</a>
</g>
</g>
<!-- Node5 -->
<g id="Node000005" class="node">
<title>Node5</title>
<g id="a_Node000005"><a xlink:href="PiHal_8h.html" target="_top" xlink:title=" ">
<polygon fill="white" stroke="#666666" points="343.68,-96 225.68,-96 225.68,-55 343.68,-55 343.68,-96"/>
<text text-anchor="start" x="233.68" y="-84" font-family="Helvetica,sans-Serif" font-size="10.00">thirdparty/RadioLib</text>
<text text-anchor="start" x="233.68" y="-73" font-family="Helvetica,sans-Serif" font-size="10.00">/include/RadioLib/hal</text>
<text text-anchor="middle" x="284.68" y="-62" font-family="Helvetica,sans-Serif" font-size="10.00">/RPi/PiHal.h</text>
</a>
</g>
</g>
<!-- Node3&#45;&gt;Node5 -->
<g id="edge4_Node000003_Node000005" class="edge">
<title>Node3&#45;&gt;Node5</title>
<g id="a_edge4_Node000003_Node000005"><a xlink:title=" ">
<path fill="none" stroke="#63b8ff" d="M255.05,-123.31C260.61,-114.52 266.92,-104.55 272.29,-96.07"/>
<polygon fill="#63b8ff" stroke="#63b8ff" points="251.98,-121.61 249.58,-131.94 257.89,-125.36 251.98,-121.61"/>
</a>
</g>
</g>
<!-- Node5&#45;&gt;Node4 -->
<g id="edge6_Node000005_Node000004" class="edge">
<title>Node5&#45;&gt;Node4</title>
<g id="a_edge6_Node000005_Node000004"><a xlink:title=" ">
<path fill="none" stroke="#63b8ff" d="M249.89,-48.9C235.59,-38.39 219.98,-26.9 209.59,-19.26"/>
<polygon fill="#63b8ff" stroke="#63b8ff" points="247.98,-51.84 258.1,-54.95 252.12,-46.21 247.98,-51.84"/>
</a>
</g>
</g>
<!-- Node6 -->
<g id="Node000006" class="node">
<title>Node6</title>
<g id="a_Node000006"><a xlink:href="receiver-normal_8cpp.html" target="_top" xlink:title="CHRONOS&#45;LoRa Receiver program (Normal)">
<polygon fill="white" stroke="#666666" points="421.68,-19 289.68,-19 289.68,0 421.68,0 421.68,-19"/>
<text text-anchor="middle" x="355.68" y="-7" font-family="Helvetica,sans-Serif" font-size="10.00">src/receiver&#45;normal.cpp</text>
</a>
</g>
</g>
<!-- Node5&#45;&gt;Node6 -->
<g id="edge5_Node000005_Node000006" class="edge">
<title>Node5&#45;&gt;Node6</title>
<g id="a_edge5_Node000005_Node000006"><a xlink:title=" ">
<path fill="none" stroke="#63b8ff" d="M314.06,-48.02C325.46,-37.74 337.72,-26.69 345.96,-19.26"/>
<polygon fill="#63b8ff" stroke="#63b8ff" points="311.45,-45.65 306.37,-54.95 316.14,-50.85 311.45,-45.65"/>
</a>
</g>
</g>
<!-- Node7&#45;&gt;Node3 -->
<g id="edge8_Node000007_Node000003" class="edge">
<title>Node7&#45;&gt;Node3</title>
<g id="a_edge8_Node000007_Node000003"><a xlink:title=" ">
<path fill="none" stroke="#63b8ff" d="M141.38,-193.71C164.23,-183.19 190.32,-171.18 210.02,-162.11"/>
<polygon fill="#63b8ff" stroke="#63b8ff" points="139.76,-190.59 132.14,-197.96 142.69,-196.95 139.76,-190.59"/>
</a>
</g>
</g>
<!-- Node8&#45;&gt;Node3 -->
<g id="edge10_Node000008_Node000003" class="edge">
<title>Node8&#45;&gt;Node3</title>
<g id="a_edge10_Node000008_Node000003"><a xlink:title=" ">
<path fill="none" stroke="#63b8ff" d="M238.38,-269.48C226.89,-261.44 216.23,-251.34 209.68,-239 196.07,-213.35 215.28,-180.53 228.99,-162.13"/>
<polygon fill="#63b8ff" stroke="#63b8ff" points="236.56,-272.47 246.85,-274.97 240.36,-266.59 236.56,-272.47"/>
</a>
</g>
</g>
<!-- Node9 -->
<g id="Node000009" class="node">
<title>Node9</title>
<g id="a_Node000009"><a xlink:href="SX1276_8h.html" target="_top" xlink:title=" ">
<polygon fill="white" stroke="#666666" points="364.18,-239 219.18,-239 219.18,-198 364.18,-198 364.18,-239"/>
<text text-anchor="start" x="227.18" y="-227" font-family="Helvetica,sans-Serif" font-size="10.00">thirdparty/RadioLib</text>
<text text-anchor="start" x="227.18" y="-216" font-family="Helvetica,sans-Serif" font-size="10.00">/include/RadioLib/modules</text>
<text text-anchor="middle" x="291.68" y="-205" font-family="Helvetica,sans-Serif" font-size="10.00">/SX127x/SX1276.h</text>
</a>
</g>
</g>
<!-- Node8&#45;&gt;Node9 -->
<g id="edge11_Node000008_Node000009" class="edge">
<title>Node8&#45;&gt;Node9</title>
<g id="a_edge11_Node000008_Node000009"><a xlink:title=" ">
<path fill="none" stroke="#63b8ff" d="M291.68,-264.69C291.68,-256.08 291.68,-246.9 291.68,-239.07"/>
<polygon fill="#63b8ff" stroke="#63b8ff" points="288.18,-264.79 291.68,-274.79 295.18,-264.79 288.18,-264.79"/>
</a>
</g>
</g>
<!-- Node10 -->
<g id="Node000010" class="node">
<title>Node10</title>
<g id="a_Node000010"><a xlink:href="SX1277_8h.html" target="_top" xlink:title=" ">
<polygon fill="white" stroke="#666666" points="527.18,-239 382.18,-239 382.18,-198 527.18,-198 527.18,-239"/>
<text text-anchor="start" x="390.18" y="-227" font-family="Helvetica,sans-Serif" font-size="10.00">thirdparty/RadioLib</text>
<text text-anchor="start" x="390.18" y="-216" font-family="Helvetica,sans-Serif" font-size="10.00">/include/RadioLib/modules</text>
<text text-anchor="middle" x="454.68" y="-205" font-family="Helvetica,sans-Serif" font-size="10.00">/SX127x/SX1277.h</text>
</a>
</g>
</g>
<!-- Node8&#45;&gt;Node10 -->
<g id="edge13_Node000008_Node000010" class="edge">
<title>Node8&#45;&gt;Node10</title>
<g id="a_edge13_Node000008_Node000010"><a xlink:title=" ">
<path fill="none" stroke="#63b8ff" d="M343.36,-270.72C365.54,-260.51 391.15,-248.73 412.21,-239.04"/>
<polygon fill="#63b8ff" stroke="#63b8ff" points="341.7,-267.63 334.08,-274.99 344.63,-273.99 341.7,-267.63"/>
</a>
</g>
</g>
<!-- Node11 -->
<g id="Node000011" class="node">
<title>Node11</title>
<g id="a_Node000011"><a xlink:href="SX1279_8h.html" target="_top" xlink:title=" ">
<polygon fill="white" stroke="#666666" points="690.18,-239 545.18,-239 545.18,-198 690.18,-198 690.18,-239"/>
<text text-anchor="start" x="553.18" y="-227" font-family="Helvetica,sans-Serif" font-size="10.00">thirdparty/RadioLib</text>
<text text-anchor="start" x="553.18" y="-216" font-family="Helvetica,sans-Serif" font-size="10.00">/include/RadioLib/modules</text>
<text text-anchor="middle" x="617.68" y="-205" font-family="Helvetica,sans-Serif" font-size="10.00">/SX127x/SX1279.h</text>
</a>
</g>
</g>
<!-- Node8&#45;&gt;Node11 -->
<g id="edge15_Node000008_Node000011" class="edge">
<title>Node8&#45;&gt;Node11</title>
<g id="a_edge15_Node000008_Node000011"><a xlink:title=" ">
<path fill="none" stroke="#63b8ff" d="M374.3,-276.07C421.83,-265.4 482.66,-251.62 536.68,-239 539.36,-238.37 542.08,-237.73 544.83,-237.09"/>
<polygon fill="#63b8ff" stroke="#63b8ff" points="373.36,-272.7 364.37,-278.3 374.89,-279.53 373.36,-272.7"/>
</a>
</g>
</g>
<!-- Node9&#45;&gt;Node3 -->
<g id="edge12_Node000009_Node000003" class="edge">
<title>Node9&#45;&gt;Node3</title>
<g id="a_edge12_Node000009_Node000003"><a xlink:title=" ">
<path fill="none" stroke="#63b8ff" d="M271.27,-189.69C264.3,-180.19 256.81,-169.98 250.98,-162.04"/>
<polygon fill="#63b8ff" stroke="#63b8ff" points="268.46,-191.78 277.2,-197.77 274.11,-187.64 268.46,-191.78"/>
</a>
</g>
</g>
<!-- Node10&#45;&gt;Node3 -->
<g id="edge14_Node000010_Node000003" class="edge">
<title>Node10&#45;&gt;Node3</title>
<g id="a_edge14_Node000010_Node000003"><a xlink:title=" ">
<path fill="none" stroke="#63b8ff" d="M384.81,-194.81C351.52,-184 312.74,-171.4 283.8,-162"/>
<polygon fill="#63b8ff" stroke="#63b8ff" points="383.91,-198.2 394.5,-197.96 386.07,-191.54 383.91,-198.2"/>
</a>
</g>
</g>
<!-- Node11&#45;&gt;Node3 -->
<g id="edge16_Node000011_Node000003" class="edge">
<title>Node11&#45;&gt;Node3</title>
<g id="a_edge16_Node000011_Node000003"><a xlink:title=" ">
<path fill="none" stroke="#63b8ff" d="M534.76,-197.66C455.84,-181.74 375.35,-168.49 317.92,-159.55"/>
<polygon fill="#63b8ff" stroke="#63b8ff" points="534.38,-201.16 544.88,-199.72 535.77,-194.3 534.38,-201.16"/>
</a>
</g>
</g>
</g>
</svg>
