<?xml version="1.0" encoding="UTF-8" standalone="no"?>
<!DOCTYPE svg PUBLIC "-//W3C//DTD SVG 1.1//EN"
 "http://www.w3.org/Graphics/SVG/1.1/DTD/svg11.dtd">
<!-- Generated by graphviz version 2.43.0 (0)
 -->
<!-- Title: thirdparty/RadioLib/include/RadioLib/modules/SX128x/SX1281.h Pages: 1 -->
<svg width="327pt" height="401pt"
 viewBox="0.00 0.00 326.50 401.00" xmlns="http://www.w3.org/2000/svg" xmlns:xlink="http://www.w3.org/1999/xlink">
<g id="graph0" class="graph" transform="scale(1 1) rotate(0) translate(4 397)">
<title>thirdparty/RadioLib/include/RadioLib/modules/SX128x/SX1281.h</title>
<!-- Node1 -->
<g id="Node000001" class="node">
<title>Node1</title>
<g id="a_Node000001"><a xlink:title=" ">
<polygon fill="#999999" stroke="#666666" points="229.5,-393 84.5,-393 84.5,-352 229.5,-352 229.5,-393"/>
<text text-anchor="start" x="92.5" y="-381" font-family="Helvetica,sans-Serif" font-size="10.00">thirdparty/RadioLib</text>
<text text-anchor="start" x="92.5" y="-370" font-family="Helvetica,sans-Serif" font-size="10.00">/include/RadioLib/modules</text>
<text text-anchor="middle" x="157" y="-359" font-family="Helvetica,sans-Serif" font-size="10.00">/SX128x/SX1281.h</text>
</a>
</g>
</g>
<!-- Node2 -->
<g id="Node000002" class="node">
<title>Node2</title>
<g id="a_Node000002"><a xlink:href="RadioLib_8h.html" target="_top" xlink:title=" ">
<polygon fill="white" stroke="#666666" points="222,-162 68,-162 68,-132 222,-132 222,-162"/>
<text text-anchor="start" x="76" y="-150" font-family="Helvetica,sans-Serif" font-size="10.00">thirdparty/RadioLib</text>
<text text-anchor="middle" x="145" y="-139" font-family="Helvetica,sans-Serif" font-size="10.00">/include/RadioLib/RadioLib.h</text>
</a>
</g>
</g>
<!-- Node1&#45;&gt;Node2 -->
<g id="edge1_Node000001_Node000002" class="edge">
<title>Node1&#45;&gt;Node2</title>
<g id="a_edge1_Node000001_Node000002"><a xlink:title=" ">
<path fill="none" stroke="#63b8ff" d="M137.53,-343.13C132.81,-334.76 128.43,-325.33 126,-316 111.51,-260.32 130.34,-191.42 139.97,-162.18"/>
<polygon fill="#63b8ff" stroke="#63b8ff" points="134.56,-344.98 142.71,-351.75 140.56,-341.37 134.56,-344.98"/>
</a>
</g>
</g>
<!-- Node6 -->
<g id="Node000006" class="node">
<title>Node6</title>
<g id="a_Node000006"><a xlink:href="SX1280_8h.html" target="_top" xlink:title=" ">
<polygon fill="white" stroke="#666666" points="280.5,-316 135.5,-316 135.5,-275 280.5,-275 280.5,-316"/>
<text text-anchor="start" x="143.5" y="-304" font-family="Helvetica,sans-Serif" font-size="10.00">thirdparty/RadioLib</text>
<text text-anchor="start" x="143.5" y="-293" font-family="Helvetica,sans-Serif" font-size="10.00">/include/RadioLib/modules</text>
<text text-anchor="middle" x="208" y="-282" font-family="Helvetica,sans-Serif" font-size="10.00">/SX128x/SX1280.h</text>
</a>
</g>
</g>
<!-- Node1&#45;&gt;Node6 -->
<g id="edge5_Node000001_Node000006" class="edge">
<title>Node1&#45;&gt;Node6</title>
<g id="a_edge5_Node000001_Node000006"><a xlink:title=" ">
<path fill="none" stroke="#63b8ff" d="M176.11,-343.39C182.3,-334.3 189.02,-324.41 194.69,-316.07"/>
<polygon fill="#63b8ff" stroke="#63b8ff" points="173.13,-341.56 170.4,-351.79 178.92,-345.49 173.13,-341.56"/>
</a>
</g>
</g>
<!-- Node3 -->
<g id="Node000003" class="node">
<title>Node3</title>
<g id="a_Node000003"><a xlink:href="PiHal_8h.html" target="_top" xlink:title=" ">
<polygon fill="white" stroke="#666666" points="204,-96 86,-96 86,-55 204,-55 204,-96"/>
<text text-anchor="start" x="94" y="-84" font-family="Helvetica,sans-Serif" font-size="10.00">thirdparty/RadioLib</text>
<text text-anchor="start" x="94" y="-73" font-family="Helvetica,sans-Serif" font-size="10.00">/include/RadioLib/hal</text>
<text text-anchor="middle" x="145" y="-62" font-family="Helvetica,sans-Serif" font-size="10.00">/RPi/PiHal.h</text>
</a>
</g>
</g>
<!-- Node2&#45;&gt;Node3 -->
<g id="edge2_Node000002_Node000003" class="edge">
<title>Node2&#45;&gt;Node3</title>
<g id="a_edge2_Node000002_Node000003"><a xlink:title=" ">
<path fill="none" stroke="#63b8ff" d="M145,-121.91C145,-113.47 145,-104.1 145,-96.07"/>
<polygon fill="#63b8ff" stroke="#63b8ff" points="141.5,-121.94 145,-131.94 148.5,-121.94 141.5,-121.94"/>
</a>
</g>
</g>
<!-- Node4 -->
<g id="Node000004" class="node">
<title>Node4</title>
<g id="a_Node000004"><a xlink:href="receiver-normal_8cpp.html" target="_top" xlink:title="CHRONOS&#45;LoRa Receiver program (Normal)">
<polygon fill="white" stroke="#666666" points="132,-19 0,-19 0,0 132,0 132,-19"/>
<text text-anchor="middle" x="66" y="-7" font-family="Helvetica,sans-Serif" font-size="10.00">src/receiver&#45;normal.cpp</text>
</a>
</g>
</g>
<!-- Node3&#45;&gt;Node4 -->
<g id="edge3_Node000003_Node000004" class="edge">
<title>Node3&#45;&gt;Node4</title>
<g id="a_edge3_Node000003_Node000004"><a xlink:title=" ">
<path fill="none" stroke="#63b8ff" d="M113.04,-48.61C100.16,-38.17 86.16,-26.83 76.81,-19.26"/>
<polygon fill="#63b8ff" stroke="#63b8ff" points="110.89,-51.37 120.87,-54.95 115.3,-45.94 110.89,-51.37"/>
</a>
</g>
</g>
<!-- Node5 -->
<g id="Node000005" class="node">
<title>Node5</title>
<g id="a_Node000005"><a xlink:href="transmitter-normal_8cpp.html" target="_top" xlink:title="CHRONOS&#45;LoRa Transmitter program (Normal)">
<polygon fill="white" stroke="#666666" points="297.5,-19 150.5,-19 150.5,0 297.5,0 297.5,-19"/>
<text text-anchor="middle" x="224" y="-7" font-family="Helvetica,sans-Serif" font-size="10.00">src/transmitter&#45;normal.cpp</text>
</a>
</g>
</g>
<!-- Node3&#45;&gt;Node5 -->
<g id="edge4_Node000003_Node000005" class="edge">
<title>Node3&#45;&gt;Node5</title>
<g id="a_edge4_Node000003_Node000005"><a xlink:title=" ">
<path fill="none" stroke="#63b8ff" d="M176.96,-48.61C189.84,-38.17 203.84,-26.83 213.19,-19.26"/>
<polygon fill="#63b8ff" stroke="#63b8ff" points="174.7,-45.94 169.13,-54.95 179.11,-51.37 174.7,-45.94"/>
</a>
</g>
</g>
<!-- Node6&#45;&gt;Node2 -->
<g id="edge6_Node000006_Node000002" class="edge">
<title>Node6&#45;&gt;Node2</title>
<g id="a_edge6_Node000006_Node000002"><a xlink:title=" ">
<path fill="none" stroke="#63b8ff" d="M182.28,-267.23C175.44,-258.73 168.66,-248.96 164,-239 152.09,-213.57 147.59,-180.67 145.93,-162.2"/>
<polygon fill="#63b8ff" stroke="#63b8ff" points="179.67,-269.57 188.79,-274.96 185.02,-265.06 179.67,-269.57"/>
</a>
</g>
</g>
<!-- Node7 -->
<g id="Node000007" class="node">
<title>Node7</title>
<g id="a_Node000007"><a xlink:href="SX1282_8h.html" target="_top" xlink:title=" ">
<polygon fill="white" stroke="#666666" points="318.5,-239 173.5,-239 173.5,-198 318.5,-198 318.5,-239"/>
<text text-anchor="start" x="181.5" y="-227" font-family="Helvetica,sans-Serif" font-size="10.00">thirdparty/RadioLib</text>
<text text-anchor="start" x="181.5" y="-216" font-family="Helvetica,sans-Serif" font-size="10.00">/include/RadioLib/modules</text>
<text text-anchor="middle" x="246" y="-205" font-family="Helvetica,sans-Serif" font-size="10.00">/SX128x/SX1282.h</text>
</a>
</g>
</g>
<!-- Node6&#45;&gt;Node7 -->
<g id="edge7_Node000006_Node000007" class="edge">
<title>Node6&#45;&gt;Node7</title>
<g id="a_edge7_Node000006_Node000007"><a xlink:title=" ">
<path fill="none" stroke="#63b8ff" d="M222.53,-265.83C227.06,-256.89 231.95,-247.24 236.08,-239.07"/>
<polygon fill="#63b8ff" stroke="#63b8ff" points="219.38,-264.29 217.98,-274.79 225.63,-267.46 219.38,-264.29"/>
</a>
</g>
</g>
<!-- Node7&#45;&gt;Node2 -->
<g id="edge8_Node000007_Node000002" class="edge">
<title>Node7&#45;&gt;Node2</title>
<g id="a_edge8_Node000007_Node000002"><a xlink:title=" ">
<path fill="none" stroke="#63b8ff" d="M209.16,-192.15C194.44,-182.02 178.04,-170.74 165.51,-162.11"/>
<polygon fill="#63b8ff" stroke="#63b8ff" points="207.37,-195.17 217.6,-197.96 211.34,-189.4 207.37,-195.17"/>
</a>
</g>
</g>
</g>
</svg>
