<?xml version="1.0" encoding="UTF-8" standalone="no"?>
<!DOCTYPE svg PUBLIC "-//W3C//DTD SVG 1.1//EN"
 "http://www.w3.org/Graphics/SVG/1.1/DTD/svg11.dtd">
<!-- Generated by graphviz version 2.43.0 (0)
 -->
<!-- Title: thirdparty/RadioLib/include/RadioLib/modules/SX126x/SX1261.h Pages: 1 -->
<svg width="641pt" height="445pt"
 viewBox="0.00 0.00 641.12 445.00" xmlns="http://www.w3.org/2000/svg" xmlns:xlink="http://www.w3.org/1999/xlink">
<g id="graph0" class="graph" transform="scale(1 1) rotate(0) translate(4 441)">
<title>thirdparty/RadioLib/include/RadioLib/modules/SX126x/SX1261.h</title>
<!-- Node1 -->
<g id="Node000001" class="node">
<title>Node1</title>
<g id="a_Node000001"><a xlink:title=" ">
<polygon fill="#999999" stroke="#666666" points="633.01,-437 488.01,-437 488.01,-396 633.01,-396 633.01,-437"/>
<text text-anchor="start" x="496.01" y="-425" font-family="Helvetica,sans-Serif" font-size="10.00">thirdparty/RadioLib</text>
<text text-anchor="start" x="496.01" y="-414" font-family="Helvetica,sans-Serif" font-size="10.00">/include/RadioLib/modules</text>
<text text-anchor="middle" x="560.51" y="-403" font-family="Helvetica,sans-Serif" font-size="10.00">/SX126x/SX1261.h</text>
</a>
</g>
</g>
<!-- Node2 -->
<g id="Node000002" class="node">
<title>Node2</title>
<g id="a_Node000002"><a xlink:href="TypeDef_8h.html" target="_top" xlink:title=" ">
<polygon fill="white" stroke="#666666" points="381.01,-129 298.01,-129 298.01,-110 381.01,-110 381.01,-129"/>
<text text-anchor="middle" x="339.51" y="-117" font-family="Helvetica,sans-Serif" font-size="10.00">../../TypeDef.h</text>
</a>
</g>
</g>
<!-- Node1&#45;&gt;Node2 -->
<g id="edge1_Node000001_Node000002" class="edge">
<title>Node1&#45;&gt;Node2</title>
<g id="a_edge1_Node000001_Node000002"><a xlink:title=" ">
<path fill="none" stroke="#63b8ff" d="M552.58,-395.65C544,-372.31 531.51,-332.22 531.51,-296.5 531.51,-296.5 531.51,-296.5 531.51,-234 531.51,-199.2 521.59,-186.86 494.51,-165 478.51,-152.09 429.85,-139.34 391.27,-130.82"/>
<polygon fill="#63b8ff" stroke="#63b8ff" points="391.71,-127.34 381.2,-128.65 390.23,-134.18 391.71,-127.34"/>
</a>
</g>
</g>
<!-- Node7 -->
<g id="Node000007" class="node">
<title>Node7</title>
<g id="a_Node000007"><a xlink:href="Module_8h.html" target="_top" xlink:title=" ">
<polygon fill="white" stroke="#666666" points="485.51,-184 405.51,-184 405.51,-165 485.51,-165 485.51,-184"/>
<text text-anchor="middle" x="445.51" y="-172" font-family="Helvetica,sans-Serif" font-size="10.00">../../Module.h</text>
</a>
</g>
</g>
<!-- Node1&#45;&gt;Node7 -->
<g id="edge7_Node000001_Node000007" class="edge">
<title>Node1&#45;&gt;Node7</title>
<g id="a_edge7_Node000001_Node000007"><a xlink:title=" ">
<path fill="none" stroke="#63b8ff" d="M599.03,-395.93C619.69,-382.48 639.28,-363.1 630.51,-341 600.81,-266.18 515.96,-212.43 472.25,-188.84"/>
<polygon fill="#63b8ff" stroke="#63b8ff" points="473.81,-185.71 463.33,-184.14 470.54,-191.9 473.81,-185.71"/>
</a>
</g>
</g>
<!-- Node12 -->
<g id="Node000012" class="node">
<title>Node12</title>
<g id="a_Node000012"><a xlink:href="SX126x_8h.html" target="_top" xlink:title=" ">
<polygon fill="white" stroke="#666666" points="330.51,-305 268.51,-305 268.51,-286 330.51,-286 330.51,-305"/>
<text text-anchor="middle" x="299.51" y="-293" font-family="Helvetica,sans-Serif" font-size="10.00">SX126x.h</text>
</a>
</g>
</g>
<!-- Node1&#45;&gt;Node12 -->
<g id="edge17_Node000001_Node000012" class="edge">
<title>Node1&#45;&gt;Node12</title>
<g id="a_edge17_Node000001_Node000012"><a xlink:title=" ">
<path fill="none" stroke="#63b8ff" d="M517.7,-395.98C463.94,-371.47 373.23,-330.11 327.56,-309.29"/>
<polygon fill="#63b8ff" stroke="#63b8ff" points="328.82,-306.02 318.27,-305.05 325.92,-312.39 328.82,-306.02"/>
</a>
</g>
</g>
<!-- Node18 -->
<g id="Node000018" class="node">
<title>Node18</title>
<g id="a_Node000018"><a xlink:href="SX1262_8h.html" target="_top" xlink:title=" ">
<polygon fill="white" stroke="#666666" points="621.51,-360 559.51,-360 559.51,-341 621.51,-341 621.51,-360"/>
<text text-anchor="middle" x="590.51" y="-348" font-family="Helvetica,sans-Serif" font-size="10.00">SX1262.h</text>
</a>
</g>
</g>
<!-- Node1&#45;&gt;Node18 -->
<g id="edge33_Node000001_Node000018" class="edge">
<title>Node1&#45;&gt;Node18</title>
<g id="a_edge33_Node000001_Node000018"><a xlink:title=" ">
<path fill="none" stroke="#63b8ff" d="M569.67,-395.95C573.64,-387.48 578.26,-377.64 582.13,-369.37"/>
<polygon fill="#63b8ff" stroke="#63b8ff" points="585.33,-370.8 586.4,-360.26 578.99,-367.83 585.33,-370.8"/>
</a>
</g>
</g>
<!-- Node3 -->
<g id="Node000003" class="node">
<title>Node3</title>
<g id="a_Node000003"><a xlink:href="BuildOptUser_8h.html" target="_top" xlink:title=" ">
<polygon fill="white" stroke="#666666" points="287.01,-74 198.01,-74 198.01,-55 287.01,-55 287.01,-74"/>
<text text-anchor="middle" x="242.51" y="-62" font-family="Helvetica,sans-Serif" font-size="10.00">BuildOptUser.h</text>
</a>
</g>
</g>
<!-- Node2&#45;&gt;Node3 -->
<g id="edge2_Node000002_Node000003" class="edge">
<title>Node2&#45;&gt;Node3</title>
<g id="a_edge2_Node000002_Node000003"><a xlink:title=" ">
<path fill="none" stroke="#63b8ff" d="M323.92,-109.98C308.74,-101.69 285.41,-88.94 267.61,-79.22"/>
<polygon fill="#63b8ff" stroke="#63b8ff" points="268.83,-75.89 258.38,-74.17 265.47,-82.04 268.83,-75.89"/>
</a>
</g>
</g>
<!-- Node4 -->
<g id="Node000004" class="node">
<title>Node4</title>
<g id="a_Node000004"><a xlink:href="BuildOpt_8h.html" target="_top" xlink:title=" ">
<polygon fill="white" stroke="#666666" points="373.51,-74 305.51,-74 305.51,-55 373.51,-55 373.51,-74"/>
<text text-anchor="middle" x="339.51" y="-62" font-family="Helvetica,sans-Serif" font-size="10.00">BuildOpt.h</text>
</a>
</g>
</g>
<!-- Node2&#45;&gt;Node4 -->
<g id="edge3_Node000002_Node000004" class="edge">
<title>Node2&#45;&gt;Node4</title>
<g id="a_edge3_Node000002_Node000004"><a xlink:title=" ">
<path fill="none" stroke="#63b8ff" d="M334.34,-109.75C332.85,-102.8 332.41,-92.85 333.03,-84.13"/>
<polygon fill="#63b8ff" stroke="#63b8ff" points="336.52,-84.47 334.38,-74.09 329.58,-83.53 336.52,-84.47"/>
</a>
</g>
</g>
<!-- Node4&#45;&gt;Node2 -->
<g id="edge4_Node000004_Node000002" class="edge">
<title>Node4&#45;&gt;Node2</title>
<g id="a_edge4_Node000004_Node000002"><a xlink:title=" ">
<path fill="none" stroke="#63b8ff" d="M344.64,-74.09C346.15,-80.99 346.6,-90.93 346,-99.66"/>
<polygon fill="#63b8ff" stroke="#63b8ff" points="342.51,-99.38 344.67,-109.75 349.45,-100.29 342.51,-99.38"/>
</a>
</g>
</g>
<!-- Node5 -->
<g id="Node000005" class="node">
<title>Node5</title>
<g id="a_Node000005"><a xlink:title=" ">
<polygon fill="#e0e0e0" stroke="#999999" points="360.51,-19 310.51,-19 310.51,0 360.51,0 360.51,-19"/>
<text text-anchor="middle" x="335.51" y="-7" font-family="Helvetica,sans-Serif" font-size="10.00">stdio.h</text>
</a>
</g>
</g>
<!-- Node4&#45;&gt;Node5 -->
<g id="edge5_Node000004_Node000005" class="edge">
<title>Node4&#45;&gt;Node5</title>
<g id="a_edge5_Node000004_Node000005"><a xlink:title=" ">
<path fill="none" stroke="#63b8ff" d="M338.85,-54.75C338.32,-47.8 337.57,-37.85 336.91,-29.13"/>
<polygon fill="#63b8ff" stroke="#63b8ff" points="340.4,-28.8 336.16,-19.09 333.42,-29.32 340.4,-28.8"/>
</a>
</g>
</g>
<!-- Node6 -->
<g id="Node000006" class="node">
<title>Node6</title>
<g id="a_Node000006"><a xlink:title=" ">
<polygon fill="#e0e0e0" stroke="#999999" points="432.01,-19 379.01,-19 379.01,0 432.01,0 432.01,-19"/>
<text text-anchor="middle" x="405.51" y="-7" font-family="Helvetica,sans-Serif" font-size="10.00">stdint.h</text>
</a>
</g>
</g>
<!-- Node4&#45;&gt;Node6 -->
<g id="edge6_Node000004_Node000006" class="edge">
<title>Node4&#45;&gt;Node6</title>
<g id="a_edge6_Node000004_Node000006"><a xlink:title=" ">
<path fill="none" stroke="#63b8ff" d="M350.11,-54.98C359.96,-47.07 374.86,-35.11 386.72,-25.58"/>
<polygon fill="#63b8ff" stroke="#63b8ff" points="389.11,-28.16 394.71,-19.17 384.72,-22.7 389.11,-28.16"/>
</a>
</g>
</g>
<!-- Node7&#45;&gt;Node2 -->
<g id="edge8_Node000007_Node000002" class="edge">
<title>Node7&#45;&gt;Node2</title>
<g id="a_edge8_Node000007_Node000002"><a xlink:title=" ">
<path fill="none" stroke="#63b8ff" d="M428.48,-164.98C411.58,-156.54 385.44,-143.47 365.86,-133.68"/>
<polygon fill="#63b8ff" stroke="#63b8ff" points="367.36,-130.51 356.85,-129.17 364.23,-136.77 367.36,-130.51"/>
</a>
</g>
</g>
<!-- Node8 -->
<g id="Node000008" class="node">
<title>Node8</title>
<g id="a_Node000008"><a xlink:href="Hal_8h.html" target="_top" xlink:title=" ">
<polygon fill="white" stroke="#666666" points="531.51,-129 489.51,-129 489.51,-110 531.51,-110 531.51,-129"/>
<text text-anchor="middle" x="510.51" y="-117" font-family="Helvetica,sans-Serif" font-size="10.00">Hal.h</text>
</a>
</g>
</g>
<!-- Node7&#45;&gt;Node8 -->
<g id="edge9_Node000007_Node000008" class="edge">
<title>Node7&#45;&gt;Node8</title>
<g id="a_edge9_Node000007_Node000008"><a xlink:title=" ">
<path fill="none" stroke="#63b8ff" d="M455.95,-164.98C465.65,-157.07 480.32,-145.11 492.01,-135.58"/>
<polygon fill="#63b8ff" stroke="#63b8ff" points="494.34,-138.2 499.87,-129.17 489.91,-132.78 494.34,-138.2"/>
</a>
</g>
</g>
<!-- Node10 -->
<g id="Node000010" class="node">
<title>Node10</title>
<g id="a_Node000010"><a xlink:href="Utils_8h.html" target="_top" xlink:title=" ">
<polygon fill="white" stroke="#666666" points="471.51,-129 399.51,-129 399.51,-110 471.51,-110 471.51,-129"/>
<text text-anchor="middle" x="435.51" y="-117" font-family="Helvetica,sans-Serif" font-size="10.00">utils/Utils.h</text>
</a>
</g>
</g>
<!-- Node7&#45;&gt;Node10 -->
<g id="edge13_Node000007_Node000010" class="edge">
<title>Node7&#45;&gt;Node10</title>
<g id="a_edge13_Node000007_Node000010"><a xlink:title=" ">
<path fill="none" stroke="#63b8ff" d="M443.86,-164.75C442.55,-157.8 440.67,-147.85 439.02,-139.13"/>
<polygon fill="#63b8ff" stroke="#63b8ff" points="442.42,-138.27 437.13,-129.09 435.54,-139.56 442.42,-138.27"/>
</a>
</g>
</g>
<!-- Node8&#45;&gt;Node4 -->
<g id="edge12_Node000008_Node000004" class="edge">
<title>Node8&#45;&gt;Node4</title>
<g id="a_edge12_Node000008_Node000004"><a xlink:title=" ">
<path fill="none" stroke="#63b8ff" d="M489.2,-111.89C461.08,-103.18 411.15,-87.71 376.74,-77.04"/>
<polygon fill="#63b8ff" stroke="#63b8ff" points="377.62,-73.65 367.04,-74.03 375.55,-80.34 377.62,-73.65"/>
</a>
</g>
</g>
<!-- Node8&#45;&gt;Node6 -->
<g id="edge10_Node000008_Node000006" class="edge">
<title>Node8&#45;&gt;Node6</title>
<g id="a_edge10_Node000008_Node000006"><a xlink:title=" ">
<path fill="none" stroke="#63b8ff" d="M510.18,-109.69C509.25,-96.42 505.74,-71.12 492.51,-55 479.52,-39.18 459.45,-28.38 441.86,-21.39"/>
<polygon fill="#63b8ff" stroke="#63b8ff" points="442.99,-18.08 432.4,-17.89 440.57,-24.65 442.99,-18.08"/>
</a>
</g>
</g>
<!-- Node9 -->
<g id="Node000009" class="node">
<title>Node9</title>
<g id="a_Node000009"><a xlink:title=" ">
<polygon fill="#e0e0e0" stroke="#999999" points="595.51,-74 539.51,-74 539.51,-55 595.51,-55 595.51,-74"/>
<text text-anchor="middle" x="567.51" y="-62" font-family="Helvetica,sans-Serif" font-size="10.00">stddef.h</text>
</a>
</g>
</g>
<!-- Node8&#45;&gt;Node9 -->
<g id="edge11_Node000008_Node000009" class="edge">
<title>Node8&#45;&gt;Node9</title>
<g id="a_edge11_Node000008_Node000009"><a xlink:title=" ">
<path fill="none" stroke="#63b8ff" d="M519.67,-109.98C528.01,-102.23 540.54,-90.58 550.68,-81.14"/>
<polygon fill="#63b8ff" stroke="#63b8ff" points="553.24,-83.54 558.18,-74.17 548.48,-78.42 553.24,-83.54"/>
</a>
</g>
</g>
<!-- Node10&#45;&gt;Node4 -->
<g id="edge16_Node000010_Node000004" class="edge">
<title>Node10&#45;&gt;Node4</title>
<g id="a_edge16_Node000010_Node000004"><a xlink:title=" ">
<path fill="none" stroke="#63b8ff" d="M420.08,-109.98C405.06,-101.69 381.97,-88.94 364.35,-79.22"/>
<polygon fill="#63b8ff" stroke="#63b8ff" points="365.66,-75.94 355.21,-74.17 362.28,-82.07 365.66,-75.94"/>
</a>
</g>
</g>
<!-- Node10&#45;&gt;Node6 -->
<g id="edge14_Node000010_Node000006" class="edge">
<title>Node10&#45;&gt;Node6</title>
<g id="a_edge14_Node000010_Node000006"><a xlink:title=" ">
<path fill="none" stroke="#63b8ff" d="M432.57,-109.68C429.62,-100.73 425.04,-86.47 421.51,-74 417.25,-58.94 412.94,-41.71 409.87,-29.01"/>
<polygon fill="#63b8ff" stroke="#63b8ff" points="413.25,-28.08 407.52,-19.17 406.44,-29.71 413.25,-28.08"/>
</a>
</g>
</g>
<!-- Node11 -->
<g id="Node000011" class="node">
<title>Node11</title>
<g id="a_Node000011"><a xlink:title=" ">
<polygon fill="#e0e0e0" stroke="#999999" points="483.01,-74 430.01,-74 430.01,-55 483.01,-55 483.01,-74"/>
<text text-anchor="middle" x="456.51" y="-62" font-family="Helvetica,sans-Serif" font-size="10.00">stdlib.h</text>
</a>
</g>
</g>
<!-- Node10&#45;&gt;Node11 -->
<g id="edge15_Node000010_Node000011" class="edge">
<title>Node10&#45;&gt;Node11</title>
<g id="a_edge15_Node000010_Node000011"><a xlink:title=" ">
<path fill="none" stroke="#63b8ff" d="M438.98,-109.75C441.79,-102.65 445.85,-92.4 449.35,-83.56"/>
<polygon fill="#63b8ff" stroke="#63b8ff" points="452.68,-84.68 453.1,-74.09 446.17,-82.1 452.68,-84.68"/>
</a>
</g>
</g>
<!-- Node12&#45;&gt;Node2 -->
<g id="edge18_Node000012_Node000002" class="edge">
<title>Node12&#45;&gt;Node2</title>
<g id="a_edge18_Node000012_Node000002"><a xlink:title=" ">
<path fill="none" stroke="#63b8ff" d="M268.26,-291.82C179.9,-283.13 -60.61,-251.1 14.51,-165 49.33,-125.08 205.19,-119.68 287.77,-119.71"/>
<polygon fill="#63b8ff" stroke="#63b8ff" points="287.93,-123.21 297.94,-119.74 287.95,-116.21 287.93,-123.21"/>
</a>
</g>
</g>
<!-- Node12&#45;&gt;Node7 -->
<g id="edge19_Node000012_Node000007" class="edge">
<title>Node12&#45;&gt;Node7</title>
<g id="a_edge19_Node000012_Node000007"><a xlink:title=" ">
<path fill="none" stroke="#63b8ff" d="M330.53,-291.14C375.93,-285.51 457,-272.52 474.51,-250 488.02,-232.62 473.65,-208.17 460.77,-192.09"/>
<polygon fill="#63b8ff" stroke="#63b8ff" points="463.11,-189.44 453.95,-184.12 457.79,-193.99 463.11,-189.44"/>
</a>
</g>
</g>
<!-- Node13 -->
<g id="Node000013" class="node">
<title>Node13</title>
<g id="a_Node000013"><a xlink:href="PhysicalLayer_8h.html" target="_top" xlink:title=" ">
<polygon fill="white" stroke="#666666" points="361.01,-250 238.01,-250 238.01,-220 361.01,-220 361.01,-250"/>
<text text-anchor="start" x="246.01" y="-238" font-family="Helvetica,sans-Serif" font-size="10.00">../../protocols/Physical</text>
<text text-anchor="middle" x="299.51" y="-227" font-family="Helvetica,sans-Serif" font-size="10.00">Layer/PhysicalLayer.h</text>
</a>
</g>
</g>
<!-- Node12&#45;&gt;Node13 -->
<g id="edge20_Node000012_Node000013" class="edge">
<title>Node12&#45;&gt;Node13</title>
<g id="a_edge20_Node000012_Node000013"><a xlink:title=" ">
<path fill="none" stroke="#63b8ff" d="M299.51,-285.87C299.51,-279.11 299.51,-269.35 299.51,-260.26"/>
<polygon fill="#63b8ff" stroke="#63b8ff" points="303.01,-260.11 299.51,-250.11 296.01,-260.11 303.01,-260.11"/>
</a>
</g>
</g>
<!-- Node14 -->
<g id="Node000014" class="node">
<title>Node14</title>
<g id="a_Node000014"><a xlink:href="FEC_8h.html" target="_top" xlink:title=" ">
<polygon fill="white" stroke="#666666" points="465.51,-244.5 379.51,-244.5 379.51,-225.5 465.51,-225.5 465.51,-244.5"/>
<text text-anchor="middle" x="422.51" y="-232.5" font-family="Helvetica,sans-Serif" font-size="10.00">../../utils/FEC.h</text>
</a>
</g>
</g>
<!-- Node12&#45;&gt;Node14 -->
<g id="edge23_Node000012_Node000014" class="edge">
<title>Node12&#45;&gt;Node14</title>
<g id="a_edge23_Node000012_Node000014"><a xlink:title=" ">
<path fill="none" stroke="#63b8ff" d="M317.39,-285.99C337.89,-276.25 371.7,-260.16 395.43,-248.88"/>
<polygon fill="#63b8ff" stroke="#63b8ff" points="397.07,-251.97 404.6,-244.52 394.07,-245.65 397.07,-251.97"/>
</a>
</g>
</g>
<!-- Node15 -->
<g id="Node000015" class="node">
<title>Node15</title>
<g id="a_Node000015"><a xlink:href="CRC_8h.html" target="_top" xlink:title=" ">
<polygon fill="white" stroke="#666666" points="219.51,-244.5 131.51,-244.5 131.51,-225.5 219.51,-225.5 219.51,-244.5"/>
<text text-anchor="middle" x="175.51" y="-232.5" font-family="Helvetica,sans-Serif" font-size="10.00">../../utils/CRC.h</text>
</a>
</g>
</g>
<!-- Node12&#45;&gt;Node15 -->
<g id="edge26_Node000012_Node000015" class="edge">
<title>Node12&#45;&gt;Node15</title>
<g id="a_edge26_Node000012_Node000015"><a xlink:title=" ">
<path fill="none" stroke="#63b8ff" d="M281.48,-285.99C260.81,-276.25 226.73,-260.16 202.81,-248.88"/>
<polygon fill="#63b8ff" stroke="#63b8ff" points="204.1,-245.62 193.56,-244.52 201.11,-251.95 204.1,-245.62"/>
</a>
</g>
</g>
<!-- Node16 -->
<g id="Node000016" class="node">
<title>Node16</title>
<g id="a_Node000016"><a xlink:href="SX126x__commands_8h.html" target="_top" xlink:title=" ">
<polygon fill="white" stroke="#666666" points="145.51,-184 23.51,-184 23.51,-165 145.51,-165 145.51,-184"/>
<text text-anchor="middle" x="84.51" y="-172" font-family="Helvetica,sans-Serif" font-size="10.00">SX126x_commands.h</text>
</a>
</g>
</g>
<!-- Node12&#45;&gt;Node16 -->
<g id="edge29_Node000012_Node000016" class="edge">
<title>Node12&#45;&gt;Node16</title>
<g id="a_edge29_Node000012_Node000016"><a xlink:title=" ">
<path fill="none" stroke="#63b8ff" d="M268.15,-290.63C221.13,-284.25 135.42,-270.19 112.51,-250 96.42,-235.82 89.55,-211.46 86.63,-194.46"/>
<polygon fill="#63b8ff" stroke="#63b8ff" points="90.03,-193.51 85.18,-184.09 83.1,-194.48 90.03,-193.51"/>
</a>
</g>
</g>
<!-- Node17 -->
<g id="Node000017" class="node">
<title>Node17</title>
<g id="a_Node000017"><a xlink:href="SX126x__registers_8h.html" target="_top" xlink:title=" ">
<polygon fill="white" stroke="#666666" points="273.51,-184 163.51,-184 163.51,-165 273.51,-165 273.51,-184"/>
<text text-anchor="middle" x="218.51" y="-172" font-family="Helvetica,sans-Serif" font-size="10.00">SX126x_registers.h</text>
</a>
</g>
</g>
<!-- Node12&#45;&gt;Node17 -->
<g id="edge31_Node000012_Node000017" class="edge">
<title>Node12&#45;&gt;Node17</title>
<g id="a_edge31_Node000012_Node000017"><a xlink:title=" ">
<path fill="none" stroke="#63b8ff" d="M268.13,-291.19C222.22,-285.64 140.24,-272.74 122.51,-250 114.31,-239.49 115.33,-231.24 122.51,-220 132.43,-204.47 149.31,-194.28 166.18,-187.62"/>
<polygon fill="#63b8ff" stroke="#63b8ff" points="167.82,-190.76 176.06,-184.1 165.47,-184.16 167.82,-190.76"/>
</a>
</g>
</g>
<!-- Node13&#45;&gt;Node2 -->
<g id="edge21_Node000013_Node000002" class="edge">
<title>Node13&#45;&gt;Node2</title>
<g id="a_edge21_Node000013_Node000002"><a xlink:title=" ">
<path fill="none" stroke="#63b8ff" d="M304.57,-219.63C311.8,-199.12 325.07,-161.47 333.01,-138.93"/>
<polygon fill="#63b8ff" stroke="#63b8ff" points="336.41,-139.82 336.43,-129.23 329.81,-137.5 336.41,-139.82"/>
</a>
</g>
</g>
<!-- Node13&#45;&gt;Node7 -->
<g id="edge22_Node000013_Node000007" class="edge">
<title>Node13&#45;&gt;Node7</title>
<g id="a_edge22_Node000013_Node000007"><a xlink:title=" ">
<path fill="none" stroke="#63b8ff" d="M334.48,-219.99C358.84,-210.23 391.04,-197.33 414.48,-187.93"/>
<polygon fill="#63b8ff" stroke="#63b8ff" points="415.97,-191.11 423.95,-184.14 413.36,-184.61 415.97,-191.11"/>
</a>
</g>
</g>
<!-- Node14&#45;&gt;Node2 -->
<g id="edge24_Node000014_Node000002" class="edge">
<title>Node14&#45;&gt;Node2</title>
<g id="a_edge24_Node000014_Node000002"><a xlink:title=" ">
<path fill="none" stroke="#63b8ff" d="M416.27,-225.47C402.63,-206.82 369.94,-162.11 351.93,-137.49"/>
<polygon fill="#63b8ff" stroke="#63b8ff" points="354.55,-135.14 345.82,-129.13 348.9,-139.27 354.55,-135.14"/>
</a>
</g>
</g>
<!-- Node14&#45;&gt;Node7 -->
<g id="edge25_Node000014_Node000007" class="edge">
<title>Node14&#45;&gt;Node7</title>
<g id="a_edge25_Node000014_Node000007"><a xlink:title=" ">
<path fill="none" stroke="#63b8ff" d="M425.9,-225.37C429.16,-217.07 434.19,-204.28 438.34,-193.72"/>
<polygon fill="#63b8ff" stroke="#63b8ff" points="441.7,-194.75 442.1,-184.17 435.18,-192.19 441.7,-194.75"/>
</a>
</g>
</g>
<!-- Node15&#45;&gt;Node2 -->
<g id="edge27_Node000015_Node000002" class="edge">
<title>Node15&#45;&gt;Node2</title>
<g id="a_edge27_Node000015_Node000002"><a xlink:title=" ">
<path fill="none" stroke="#63b8ff" d="M200.85,-225.47C223.58,-217.08 257.15,-202.81 282.51,-184 300.27,-170.82 316.7,-151.42 327.31,-137.53"/>
<polygon fill="#63b8ff" stroke="#63b8ff" points="330.26,-139.44 333.4,-129.32 324.63,-135.27 330.26,-139.44"/>
</a>
</g>
</g>
<!-- Node15&#45;&gt;Node7 -->
<g id="edge28_Node000015_Node000007" class="edge">
<title>Node15&#45;&gt;Node7</title>
<g id="a_edge28_Node000015_Node000007"><a xlink:title=" ">
<path fill="none" stroke="#63b8ff" d="M207.42,-225.44C214.67,-223.58 222.34,-221.67 229.51,-220 286.08,-206.85 351.44,-193.66 395.32,-185.09"/>
<polygon fill="#63b8ff" stroke="#63b8ff" points="396.02,-188.52 405.17,-183.18 394.68,-181.65 396.02,-188.52"/>
</a>
</g>
</g>
<!-- Node16&#45;&gt;Node2 -->
<g id="edge30_Node000016_Node000002" class="edge">
<title>Node16&#45;&gt;Node2</title>
<g id="a_edge30_Node000016_Node000002"><a xlink:title=" ">
<path fill="none" stroke="#63b8ff" d="M125.48,-164.98C169.77,-155.78 240.45,-141.09 288.36,-131.13"/>
<polygon fill="#63b8ff" stroke="#63b8ff" points="289.14,-134.54 298.22,-129.08 287.71,-127.69 289.14,-134.54"/>
</a>
</g>
</g>
<!-- Node17&#45;&gt;Node2 -->
<g id="edge32_Node000017_Node000002" class="edge">
<title>Node17&#45;&gt;Node2</title>
<g id="a_edge32_Node000017_Node000002"><a xlink:title=" ">
<path fill="none" stroke="#63b8ff" d="M237.95,-164.98C257.5,-156.42 287.89,-143.11 310.33,-133.28"/>
<polygon fill="#63b8ff" stroke="#63b8ff" points="311.96,-136.39 319.71,-129.17 309.15,-129.98 311.96,-136.39"/>
</a>
</g>
</g>
<!-- Node18&#45;&gt;Node2 -->
<g id="edge34_Node000018_Node000002" class="edge">
<title>Node18&#45;&gt;Node2</title>
<g id="a_edge34_Node000018_Node000002"><a xlink:title=" ">
<path fill="none" stroke="#63b8ff" d="M591.32,-340.62C593.51,-310.98 596.29,-214.46 545.51,-165 539.92,-159.56 450.26,-141.6 391.09,-130.23"/>
<polygon fill="#63b8ff" stroke="#63b8ff" points="391.63,-126.77 381.15,-128.33 390.31,-133.64 391.63,-126.77"/>
</a>
</g>
</g>
<!-- Node18&#45;&gt;Node7 -->
<g id="edge35_Node000018_Node000007" class="edge">
<title>Node18&#45;&gt;Node7</title>
<g id="a_edge35_Node000018_Node000007"><a xlink:title=" ">
<path fill="none" stroke="#63b8ff" d="M584.34,-340.7C569.21,-319.31 528.72,-263.19 490.51,-220 481.59,-209.92 470.9,-199.3 462.18,-190.96"/>
<polygon fill="#63b8ff" stroke="#63b8ff" points="464.51,-188.34 454.83,-184.03 459.7,-193.43 464.51,-188.34"/>
</a>
</g>
</g>
<!-- Node18&#45;&gt;Node12 -->
<g id="edge36_Node000018_Node000012" class="edge">
<title>Node18&#45;&gt;Node12</title>
<g id="a_edge36_Node000018_Node000012"><a xlink:title=" ">
<path fill="none" stroke="#63b8ff" d="M559.37,-343.83C506.67,-334.23 399.9,-314.78 340.95,-304.05"/>
<polygon fill="#63b8ff" stroke="#63b8ff" points="341.33,-300.56 330.87,-302.21 340.08,-307.45 341.33,-300.56"/>
</a>
</g>
</g>
</g>
</svg>
