<?xml version="1.0" encoding="UTF-8" standalone="no"?>
<!DOCTYPE svg PUBLIC "-//W3C//DTD SVG 1.1//EN"
 "http://www.w3.org/Graphics/SVG/1.1/DTD/svg11.dtd">
<!-- Generated by graphviz version 2.43.0 (0)
 -->
<!-- Title: /usr/include/GraphicsMagick/magick/timer.h Pages: 1 -->
<svg width="1591pt" height="698pt"
 viewBox="0.00 0.00 1591.00 698.00" xmlns="http://www.w3.org/2000/svg" xmlns:xlink="http://www.w3.org/1999/xlink">
<g id="graph0" class="graph" transform="scale(1 1) rotate(0) translate(4 694)">
<title>/usr/include/GraphicsMagick/magick/timer.h</title>
<!-- Node1 -->
<g id="Node000001" class="node">
<title>Node1</title>
<g id="a_Node000001"><a xlink:title=" ">
<polygon fill="#999999" stroke="#666666" points="1112,-690 958,-690 958,-660 1112,-660 1112,-690"/>
<text text-anchor="start" x="966" y="-678" font-family="Helvetica,sans-Serif" font-size="10.00">/usr/include/GraphicsMagick</text>
<text text-anchor="middle" x="1035" y="-667" font-family="Helvetica,sans-Serif" font-size="10.00">/magick/timer.h</text>
</a>
</g>
</g>
<!-- Node2 -->
<g id="Node000002" class="node">
<title>Node2</title>
<g id="a_Node000002"><a xlink:href="api_8h.html" target="_top" xlink:title=" ">
<polygon fill="white" stroke="#666666" points="611,-426 457,-426 457,-396 611,-396 611,-426"/>
<text text-anchor="start" x="465" y="-414" font-family="Helvetica,sans-Serif" font-size="10.00">/usr/include/GraphicsMagick</text>
<text text-anchor="middle" x="534" y="-403" font-family="Helvetica,sans-Serif" font-size="10.00">/magick/api.h</text>
</a>
</g>
</g>
<!-- Node1&#45;&gt;Node2 -->
<g id="edge1_Node000001_Node000002" class="edge">
<title>Node1&#45;&gt;Node2</title>
<g id="a_edge1_Node000001_Node000002"><a xlink:title=" ">
<path fill="none" stroke="#63b8ff" d="M1094.46,-656.86C1198.99,-623.98 1397.38,-547.68 1317,-462 1293.09,-436.51 804.19,-419.75 611.3,-414.11"/>
<polygon fill="#63b8ff" stroke="#63b8ff" points="1093.16,-653.6 1084.64,-659.9 1095.23,-660.28 1093.16,-653.6"/>
</a>
</g>
</g>
<!-- Node20 -->
<g id="Node000020" class="node">
<title>Node20</title>
<g id="a_Node000020"><a xlink:href="image_8h.html" target="_top" xlink:title=" ">
<polygon fill="white" stroke="#666666" points="812,-624 658,-624 658,-594 812,-594 812,-624"/>
<text text-anchor="start" x="666" y="-612" font-family="Helvetica,sans-Serif" font-size="10.00">/usr/include/GraphicsMagick</text>
<text text-anchor="middle" x="735" y="-601" font-family="Helvetica,sans-Serif" font-size="10.00">/magick/image.h</text>
</a>
</g>
</g>
<!-- Node1&#45;&gt;Node20 -->
<g id="edge41_Node000001_Node000020" class="edge">
<title>Node1&#45;&gt;Node20</title>
<g id="a_edge41_Node000001_Node000020"><a xlink:title=" ">
<path fill="none" stroke="#63b8ff" d="M959.27,-657.84C910.39,-647.42 847.44,-633.99 800.68,-624.01"/>
<polygon fill="#63b8ff" stroke="#63b8ff" points="958.65,-661.29 969.16,-659.95 960.11,-654.45 958.65,-661.29"/>
</a>
</g>
</g>
<!-- Node3 -->
<g id="Node000003" class="node">
<title>Node3</title>
<g id="a_Node000003"><a xlink:href="Include_8h.html" target="_top" xlink:title=" ">
<polygon fill="white" stroke="#666666" points="1059,-360 905,-360 905,-330 1059,-330 1059,-360"/>
<text text-anchor="start" x="913" y="-348" font-family="Helvetica,sans-Serif" font-size="10.00">/usr/include/GraphicsMagick</text>
<text text-anchor="middle" x="982" y="-337" font-family="Helvetica,sans-Serif" font-size="10.00">/Magick++/Include.h</text>
</a>
</g>
</g>
<!-- Node2&#45;&gt;Node3 -->
<g id="edge2_Node000002_Node000003" class="edge">
<title>Node2&#45;&gt;Node3</title>
<g id="a_edge2_Node000002_Node000003"><a xlink:title=" ">
<path fill="none" stroke="#63b8ff" d="M621.11,-397.56C703.49,-385.79 825.93,-368.3 904.87,-357.02"/>
<polygon fill="#63b8ff" stroke="#63b8ff" points="620.42,-394.12 611.01,-399 621.41,-401.05 620.42,-394.12"/>
</a>
</g>
</g>
<!-- Node16 -->
<g id="Node000016" class="node">
<title>Node16</title>
<g id="a_Node000016"><a xlink:href="magick__wand_8h.html" target="_top" xlink:title=" ">
<polygon fill="white" stroke="#666666" points="408,-360 254,-360 254,-330 408,-330 408,-360"/>
<text text-anchor="start" x="262" y="-348" font-family="Helvetica,sans-Serif" font-size="10.00">/usr/include/GraphicsMagick</text>
<text text-anchor="middle" x="331" y="-337" font-family="Helvetica,sans-Serif" font-size="10.00">/wand/magick_wand.h</text>
</a>
</g>
</g>
<!-- Node2&#45;&gt;Node16 -->
<g id="edge34_Node000002_Node000016" class="edge">
<title>Node2&#45;&gt;Node16</title>
<g id="a_edge34_Node000002_Node000016"><a xlink:title=" ">
<path fill="none" stroke="#63b8ff" d="M479.62,-392.86C447.03,-382.58 406.1,-369.68 375.45,-360.01"/>
<polygon fill="#63b8ff" stroke="#63b8ff" points="478.86,-396.29 489.45,-395.95 480.97,-389.61 478.86,-396.29"/>
</a>
</g>
</g>
<!-- Node17 -->
<g id="Node000017" class="node">
<title>Node17</title>
<g id="a_Node000017"><a xlink:href="wand__api_8h.html" target="_top" xlink:title=" ">
<polygon fill="white" stroke="#666666" points="429,-294 275,-294 275,-264 429,-264 429,-294"/>
<text text-anchor="start" x="283" y="-282" font-family="Helvetica,sans-Serif" font-size="10.00">/usr/include/GraphicsMagick</text>
<text text-anchor="middle" x="352" y="-271" font-family="Helvetica,sans-Serif" font-size="10.00">/wand/wand_api.h</text>
</a>
</g>
</g>
<!-- Node2&#45;&gt;Node17 -->
<g id="edge39_Node000002_Node000017" class="edge">
<title>Node2&#45;&gt;Node17</title>
<g id="a_edge39_Node000002_Node000017"><a xlink:title=" ">
<path fill="none" stroke="#63b8ff" d="M505.79,-389.85C468.63,-363.31 404.19,-317.28 371.8,-294.14"/>
<polygon fill="#63b8ff" stroke="#63b8ff" points="504,-392.88 514.18,-395.84 508.07,-387.18 504,-392.88"/>
</a>
</g>
</g>
<!-- Node18 -->
<g id="Node000018" class="node">
<title>Node18</title>
<g id="a_Node000018"><a xlink:href="chronos_8hpp.html" target="_top" xlink:title=" ">
<polygon fill="white" stroke="#666666" points="219,-288.5 105,-288.5 105,-269.5 219,-269.5 219,-288.5"/>
<text text-anchor="middle" x="162" y="-276.5" font-family="Helvetica,sans-Serif" font-size="10.00">include/chronos.hpp</text>
</a>
</g>
</g>
<!-- Node2&#45;&gt;Node18 -->
<g id="edge40_Node000002_Node000018" class="edge">
<title>Node2&#45;&gt;Node18</title>
<g id="a_edge40_Node000002_Node000018"><a xlink:title=" ">
<path fill="none" stroke="#63b8ff" d="M446.67,-408.2C387.05,-403.86 307.79,-391.83 245,-360 210.37,-342.45 180.56,-305.55 168.15,-288.72"/>
<polygon fill="#63b8ff" stroke="#63b8ff" points="446.61,-411.7 456.82,-408.88 447.07,-404.72 446.61,-411.7"/>
</a>
</g>
</g>
<!-- Node4 -->
<g id="Node000004" class="node">
<title>Node4</title>
<g id="a_Node000004"><a xlink:href="Magick_09_09_8h.html" target="_top" xlink:title=" ">
<polygon fill="white" stroke="#666666" points="1208,-30 1054,-30 1054,0 1208,0 1208,-30"/>
<text text-anchor="start" x="1062" y="-18" font-family="Helvetica,sans-Serif" font-size="10.00">/usr/include/GraphicsMagick</text>
<text text-anchor="middle" x="1131" y="-7" font-family="Helvetica,sans-Serif" font-size="10.00">/Magick++.h</text>
</a>
</g>
</g>
<!-- Node3&#45;&gt;Node4 -->
<g id="edge3_Node000003_Node000004" class="edge">
<title>Node3&#45;&gt;Node4</title>
<g id="a_edge3_Node000003_Node000004"><a xlink:title=" ">
<path fill="none" stroke="#63b8ff" d="M1069.26,-343.07C1235.89,-338.93 1583,-317.85 1583,-214 1583,-214 1583,-214 1583,-146 1583,-68.94 1337.28,-34.84 1208.19,-22.25"/>
<polygon fill="#63b8ff" stroke="#63b8ff" points="1068.95,-339.58 1059.03,-343.31 1069.11,-346.58 1068.95,-339.58"/>
</a>
</g>
</g>
<!-- Node5 -->
<g id="Node000005" class="node">
<title>Node5</title>
<g id="a_Node000005"><a xlink:href="Blob_8h.html" target="_top" xlink:title=" ">
<polygon fill="white" stroke="#666666" points="677,-228 523,-228 523,-198 677,-198 677,-228"/>
<text text-anchor="start" x="531" y="-216" font-family="Helvetica,sans-Serif" font-size="10.00">/usr/include/GraphicsMagick</text>
<text text-anchor="middle" x="600" y="-205" font-family="Helvetica,sans-Serif" font-size="10.00">/Magick++/Blob.h</text>
</a>
</g>
</g>
<!-- Node3&#45;&gt;Node5 -->
<g id="edge4_Node000003_Node000005" class="edge">
<title>Node3&#45;&gt;Node5</title>
<g id="a_edge4_Node000003_Node000005"><a xlink:title=" ">
<path fill="none" stroke="#63b8ff" d="M894.69,-342.36C833.5,-338.16 751.3,-326.22 686,-294 669.36,-285.79 632.91,-248.82 613.23,-228.13"/>
<polygon fill="#63b8ff" stroke="#63b8ff" points="894.51,-345.86 904.71,-343 894.95,-338.87 894.51,-345.86"/>
</a>
</g>
</g>
<!-- Node6 -->
<g id="Node000006" class="node">
<title>Node6</title>
<g id="a_Node000006"><a xlink:href="Image_8h.html" target="_top" xlink:title=" ">
<polygon fill="white" stroke="#666666" points="749,-162 595,-162 595,-132 749,-132 749,-162"/>
<text text-anchor="start" x="603" y="-150" font-family="Helvetica,sans-Serif" font-size="10.00">/usr/include/GraphicsMagick</text>
<text text-anchor="middle" x="672" y="-139" font-family="Helvetica,sans-Serif" font-size="10.00">/Magick++/Image.h</text>
</a>
</g>
</g>
<!-- Node3&#45;&gt;Node6 -->
<g id="edge28_Node000003_Node000006" class="edge">
<title>Node3&#45;&gt;Node6</title>
<g id="a_edge28_Node000003_Node000006"><a xlink:title=" ">
<path fill="none" stroke="#63b8ff" d="M894.77,-341.63C757.44,-336.99 503.52,-324.37 476,-294 453.06,-268.69 491.73,-208.97 504,-198 528.96,-175.69 563.48,-163.32 594.75,-156.47"/>
<polygon fill="#63b8ff" stroke="#63b8ff" points="894.74,-345.13 904.86,-341.97 894.98,-338.14 894.74,-345.13"/>
</a>
</g>
</g>
<!-- Node7 -->
<g id="Node000007" class="node">
<title>Node7</title>
<g id="a_Node000007"><a xlink:href="Pixels_8h.html" target="_top" xlink:title=" ">
<polygon fill="white" stroke="#666666" points="1077,-96 923,-96 923,-66 1077,-66 1077,-96"/>
<text text-anchor="start" x="931" y="-84" font-family="Helvetica,sans-Serif" font-size="10.00">/usr/include/GraphicsMagick</text>
<text text-anchor="middle" x="1000" y="-73" font-family="Helvetica,sans-Serif" font-size="10.00">/Magick++/Pixels.h</text>
</a>
</g>
</g>
<!-- Node3&#45;&gt;Node7 -->
<g id="edge30_Node000003_Node000007" class="edge">
<title>Node3&#45;&gt;Node7</title>
<g id="a_edge30_Node000003_Node000007"><a xlink:title=" ">
<path fill="none" stroke="#63b8ff" d="M1069.62,-339.79C1210.75,-330.81 1477.55,-303.95 1526,-228 1576.4,-149 1235.07,-104.93 1077.13,-88.97"/>
<polygon fill="#63b8ff" stroke="#63b8ff" points="1069.03,-336.32 1059.27,-340.43 1069.47,-343.31 1069.03,-336.32"/>
</a>
</g>
</g>
<!-- Node8 -->
<g id="Node000008" class="node">
<title>Node8</title>
<g id="a_Node000008"><a xlink:href="CoderInfo_8h.html" target="_top" xlink:title=" ">
<polygon fill="white" stroke="#666666" points="1517,-228 1363,-228 1363,-198 1517,-198 1517,-228"/>
<text text-anchor="start" x="1371" y="-216" font-family="Helvetica,sans-Serif" font-size="10.00">/usr/include/GraphicsMagick</text>
<text text-anchor="middle" x="1440" y="-205" font-family="Helvetica,sans-Serif" font-size="10.00">/Magick++/CoderInfo.h</text>
</a>
</g>
</g>
<!-- Node3&#45;&gt;Node8 -->
<g id="edge9_Node000003_Node000008" class="edge">
<title>Node3&#45;&gt;Node8</title>
<g id="a_edge9_Node000003_Node000008"><a xlink:title=" ">
<path fill="none" stroke="#63b8ff" d="M1069.35,-337.93C1161.72,-330.49 1300.65,-316.07 1349,-294 1382.68,-278.62 1413.06,-246.58 1428.76,-228.05"/>
<polygon fill="#63b8ff" stroke="#63b8ff" points="1068.86,-334.46 1059.16,-338.74 1069.41,-341.44 1068.86,-334.46"/>
</a>
</g>
</g>
<!-- Node9 -->
<g id="Node000009" class="node">
<title>Node9</title>
<g id="a_Node000009"><a xlink:href="STL_8h.html" target="_top" xlink:title=" ">
<polygon fill="white" stroke="#666666" points="1282,-162 1128,-162 1128,-132 1282,-132 1282,-162"/>
<text text-anchor="start" x="1136" y="-150" font-family="Helvetica,sans-Serif" font-size="10.00">/usr/include/GraphicsMagick</text>
<text text-anchor="middle" x="1205" y="-139" font-family="Helvetica,sans-Serif" font-size="10.00">/Magick++/STL.h</text>
</a>
</g>
</g>
<!-- Node3&#45;&gt;Node9 -->
<g id="edge31_Node000003_Node000009" class="edge">
<title>Node3&#45;&gt;Node9</title>
<g id="a_edge31_Node000003_Node000009"><a xlink:title=" ">
<path fill="none" stroke="#63b8ff" d="M1069.68,-340.45C1148.62,-332.04 1260.5,-306.03 1316,-228 1337.07,-198.38 1293.3,-175.59 1254.68,-162.05"/>
<polygon fill="#63b8ff" stroke="#63b8ff" points="1068.86,-337.01 1059.25,-341.48 1069.55,-343.98 1068.86,-337.01"/>
</a>
</g>
</g>
<!-- Node10 -->
<g id="Node000010" class="node">
<title>Node10</title>
<g id="a_Node000010"><a xlink:href="Color_8h.html" target="_top" xlink:title=" ">
<polygon fill="white" stroke="#666666" points="849,-294 695,-294 695,-264 849,-264 849,-294"/>
<text text-anchor="start" x="703" y="-282" font-family="Helvetica,sans-Serif" font-size="10.00">/usr/include/GraphicsMagick</text>
<text text-anchor="middle" x="772" y="-271" font-family="Helvetica,sans-Serif" font-size="10.00">/Magick++/Color.h</text>
</a>
</g>
</g>
<!-- Node3&#45;&gt;Node10 -->
<g id="edge12_Node000003_Node000010" class="edge">
<title>Node3&#45;&gt;Node10</title>
<g id="a_edge12_Node000003_Node000010"><a xlink:title=" ">
<path fill="none" stroke="#63b8ff" d="M926.18,-326.99C892.39,-316.69 849.82,-303.72 817.98,-294.01"/>
<polygon fill="#63b8ff" stroke="#63b8ff" points="925.33,-330.39 935.91,-329.95 927.37,-323.69 925.33,-330.39"/>
</a>
</g>
</g>
<!-- Node11 -->
<g id="Node000011" class="node">
<title>Node11</title>
<g id="a_Node000011"><a xlink:href="Drawable_8h.html" target="_top" xlink:title=" ">
<polygon fill="white" stroke="#666666" points="925,-228 771,-228 771,-198 925,-198 925,-228"/>
<text text-anchor="start" x="779" y="-216" font-family="Helvetica,sans-Serif" font-size="10.00">/usr/include/GraphicsMagick</text>
<text text-anchor="middle" x="848" y="-205" font-family="Helvetica,sans-Serif" font-size="10.00">/Magick++/Drawable.h</text>
</a>
</g>
</g>
<!-- Node3&#45;&gt;Node11 -->
<g id="edge20_Node000003_Node000011" class="edge">
<title>Node3&#45;&gt;Node11</title>
<g id="a_edge20_Node000003_Node000011"><a xlink:title=" ">
<path fill="none" stroke="#63b8ff" d="M940,-325.08C924.96,-316.96 908.63,-306.45 896,-294 876.28,-274.55 861.49,-245.39 853.84,-228.17"/>
<polygon fill="#63b8ff" stroke="#63b8ff" points="938.66,-328.33 949.15,-329.82 941.88,-322.11 938.66,-328.33"/>
</a>
</g>
</g>
<!-- Node12 -->
<g id="Node000012" class="node">
<title>Node12</title>
<g id="a_Node000012"><a xlink:href="Montage_8h.html" target="_top" xlink:title=" ">
<polygon fill="white" stroke="#666666" points="1135,-228 981,-228 981,-198 1135,-198 1135,-228"/>
<text text-anchor="start" x="989" y="-216" font-family="Helvetica,sans-Serif" font-size="10.00">/usr/include/GraphicsMagick</text>
<text text-anchor="middle" x="1058" y="-205" font-family="Helvetica,sans-Serif" font-size="10.00">/Magick++/Montage.h</text>
</a>
</g>
</g>
<!-- Node3&#45;&gt;Node12 -->
<g id="edge29_Node000003_Node000012" class="edge">
<title>Node3&#45;&gt;Node12</title>
<g id="a_edge29_Node000003_Node000012"><a xlink:title=" ">
<path fill="none" stroke="#63b8ff" d="M1033.7,-325.25C1047.25,-317.71 1060.23,-307.51 1068,-294 1079.87,-273.38 1071.56,-244.86 1064.64,-228.04"/>
<polygon fill="#63b8ff" stroke="#63b8ff" points="1032.07,-322.15 1024.77,-329.83 1035.26,-328.38 1032.07,-322.15"/>
</a>
</g>
</g>
<!-- Node13 -->
<g id="Node000013" class="node">
<title>Node13</title>
<g id="a_Node000013"><a xlink:href="Exception_8h.html" target="_top" xlink:title=" ">
<polygon fill="white" stroke="#666666" points="1307,-228 1153,-228 1153,-198 1307,-198 1307,-228"/>
<text text-anchor="start" x="1161" y="-216" font-family="Helvetica,sans-Serif" font-size="10.00">/usr/include/GraphicsMagick</text>
<text text-anchor="middle" x="1230" y="-205" font-family="Helvetica,sans-Serif" font-size="10.00">/Magick++/Exception.h</text>
</a>
</g>
</g>
<!-- Node3&#45;&gt;Node13 -->
<g id="edge21_Node000003_Node000013" class="edge">
<title>Node3&#45;&gt;Node13</title>
<g id="a_edge21_Node000003_Node000013"><a xlink:title=" ">
<path fill="none" stroke="#63b8ff" d="M1020.67,-325.56C1039.82,-316.29 1063.24,-304.77 1084,-294 1126.97,-271.71 1176.22,-244.34 1205.13,-228.08"/>
<polygon fill="#63b8ff" stroke="#63b8ff" points="1019.12,-322.42 1011.64,-329.91 1022.16,-328.72 1019.12,-322.42"/>
</a>
</g>
</g>
<!-- Node14 -->
<g id="Node000014" class="node">
<title>Node14</title>
<g id="a_Node000014"><a xlink:href="Geometry_8h.html" target="_top" xlink:title=" ">
<polygon fill="white" stroke="#666666" points="1059,-294 905,-294 905,-264 1059,-264 1059,-294"/>
<text text-anchor="start" x="913" y="-282" font-family="Helvetica,sans-Serif" font-size="10.00">/usr/include/GraphicsMagick</text>
<text text-anchor="middle" x="982" y="-271" font-family="Helvetica,sans-Serif" font-size="10.00">/Magick++/Geometry.h</text>
</a>
</g>
</g>
<!-- Node3&#45;&gt;Node14 -->
<g id="edge24_Node000003_Node000014" class="edge">
<title>Node3&#45;&gt;Node14</title>
<g id="a_edge24_Node000003_Node000014"><a xlink:title=" ">
<path fill="none" stroke="#63b8ff" d="M982,-319.54C982,-310.96 982,-301.61 982,-294.16"/>
<polygon fill="#63b8ff" stroke="#63b8ff" points="978.5,-319.8 982,-329.8 985.5,-319.8 978.5,-319.8"/>
</a>
</g>
</g>
<!-- Node15 -->
<g id="Node000015" class="node">
<title>Node15</title>
<g id="a_Node000015"><a xlink:href="TypeMetric_8h.html" target="_top" xlink:title=" ">
<polygon fill="white" stroke="#666666" points="639,-294 485,-294 485,-264 639,-264 639,-294"/>
<text text-anchor="start" x="493" y="-282" font-family="Helvetica,sans-Serif" font-size="10.00">/usr/include/GraphicsMagick</text>
<text text-anchor="middle" x="562" y="-271" font-family="Helvetica,sans-Serif" font-size="10.00">/Magick++/TypeMetric.h</text>
</a>
</g>
</g>
<!-- Node3&#45;&gt;Node15 -->
<g id="edge32_Node000003_Node000015" class="edge">
<title>Node3&#45;&gt;Node15</title>
<g id="a_edge32_Node000003_Node000015"><a xlink:title=" ">
<path fill="none" stroke="#63b8ff" d="M894.89,-330.81C828.57,-320.75 735.03,-306.54 653,-294 648.58,-293.32 644.03,-292.63 639.44,-291.92"/>
<polygon fill="#63b8ff" stroke="#63b8ff" points="894.47,-334.28 904.88,-332.32 895.52,-327.36 894.47,-334.28"/>
</a>
</g>
</g>
<!-- Node5&#45;&gt;Node6 -->
<g id="edge5_Node000005_Node000006" class="edge">
<title>Node5&#45;&gt;Node6</title>
<g id="a_edge5_Node000005_Node000006"><a xlink:title=" ">
<path fill="none" stroke="#63b8ff" d="M623.71,-190.92C634.33,-181.49 646.57,-170.61 656.07,-162.16"/>
<polygon fill="#63b8ff" stroke="#63b8ff" points="621.13,-188.54 615.98,-197.8 625.78,-193.77 621.13,-188.54"/>
</a>
</g>
</g>
<!-- Node6&#45;&gt;Node4 -->
<g id="edge6_Node000006_Node000004" class="edge">
<title>Node6&#45;&gt;Node4</title>
<g id="a_edge6_Node000006_Node000004"><a xlink:title=" ">
<path fill="none" stroke="#63b8ff" d="M720.25,-128.58C768.81,-111.4 846.03,-85.02 914,-66 963.33,-52.2 1019.73,-39.29 1062.66,-30.04"/>
<polygon fill="#63b8ff" stroke="#63b8ff" points="718.89,-125.35 710.64,-131.99 721.23,-131.95 718.89,-125.35"/>
</a>
</g>
</g>
<!-- Node6&#45;&gt;Node7 -->
<g id="edge7_Node000006_Node000007" class="edge">
<title>Node6&#45;&gt;Node7</title>
<g id="a_edge7_Node000006_Node000007"><a xlink:title=" ">
<path fill="none" stroke="#63b8ff" d="M754.13,-129.98C807.66,-119.53 876.85,-106.03 928.19,-96.01"/>
<polygon fill="#63b8ff" stroke="#63b8ff" points="753.13,-126.6 743.98,-131.95 754.47,-133.47 753.13,-126.6"/>
</a>
</g>
</g>
<!-- Node7&#45;&gt;Node4 -->
<g id="edge8_Node000007_Node000004" class="edge">
<title>Node7&#45;&gt;Node4</title>
<g id="a_edge8_Node000007_Node000004"><a xlink:title=" ">
<path fill="none" stroke="#63b8ff" d="M1037.84,-61.51C1058.39,-51.47 1083.39,-39.26 1102.32,-30.01"/>
<polygon fill="#63b8ff" stroke="#63b8ff" points="1036.2,-58.42 1028.75,-65.95 1039.27,-64.71 1036.2,-58.42"/>
</a>
</g>
</g>
<!-- Node8&#45;&gt;Node9 -->
<g id="edge10_Node000008_Node000009" class="edge">
<title>Node8&#45;&gt;Node9</title>
<g id="a_edge10_Node000008_Node000009"><a xlink:title=" ">
<path fill="none" stroke="#63b8ff" d="M1378.51,-195.25C1340.54,-184.91 1292.39,-171.8 1256.45,-162.01"/>
<polygon fill="#63b8ff" stroke="#63b8ff" points="1377.86,-198.7 1388.43,-197.95 1379.7,-191.95 1377.86,-198.7"/>
</a>
</g>
</g>
<!-- Node9&#45;&gt;Node4 -->
<g id="edge11_Node000009_Node000004" class="edge">
<title>Node9&#45;&gt;Node4</title>
<g id="a_edge11_Node000009_Node000004"><a xlink:title=" ">
<path fill="none" stroke="#63b8ff" d="M1191.96,-123.1C1176.67,-96.23 1151.78,-52.5 1139.05,-30.14"/>
<polygon fill="#63b8ff" stroke="#63b8ff" points="1188.95,-124.88 1196.94,-131.84 1195.03,-121.42 1188.95,-124.88"/>
</a>
</g>
</g>
<!-- Node10&#45;&gt;Node6 -->
<g id="edge16_Node000010_Node000006" class="edge">
<title>Node10&#45;&gt;Node6</title>
<g id="a_edge16_Node000010_Node000006"><a xlink:title=" ">
<path fill="none" stroke="#63b8ff" d="M752.42,-256.11C744.91,-247.49 736.39,-237.42 729,-228 711.43,-205.58 692.53,-178.37 681.51,-162.16"/>
<polygon fill="#63b8ff" stroke="#63b8ff" points="749.99,-258.65 759.23,-263.85 755.25,-254.03 749.99,-258.65"/>
</a>
</g>
</g>
<!-- Node10&#45;&gt;Node7 -->
<g id="edge19_Node000010_Node000007" class="edge">
<title>Node10&#45;&gt;Node7</title>
<g id="a_edge19_Node000010_Node000007"><a xlink:title=" ">
<path fill="none" stroke="#63b8ff" d="M761.4,-254.13C755.62,-237.23 751.56,-214.71 762,-198 797.81,-140.7 870.97,-110.96 926.78,-96.02"/>
<polygon fill="#63b8ff" stroke="#63b8ff" points="758.26,-255.72 765.1,-263.81 764.8,-253.22 758.26,-255.72"/>
</a>
</g>
</g>
<!-- Node10&#45;&gt;Node11 -->
<g id="edge13_Node000010_Node000011" class="edge">
<title>Node10&#45;&gt;Node11</title>
<g id="a_edge13_Node000010_Node000011"><a xlink:title=" ">
<path fill="none" stroke="#63b8ff" d="M796.7,-257.2C807.98,-247.7 821.05,-236.69 831.18,-228.16"/>
<polygon fill="#63b8ff" stroke="#63b8ff" points="794.26,-254.68 788.87,-263.8 798.77,-260.03 794.26,-254.68"/>
</a>
</g>
</g>
<!-- Node10&#45;&gt;Node12 -->
<g id="edge17_Node000010_Node000012" class="edge">
<title>Node10&#45;&gt;Node12</title>
<g id="a_edge17_Node000010_Node000012"><a xlink:title=" ">
<path fill="none" stroke="#63b8ff" d="M844.78,-261.71C891.29,-251.31 950.99,-237.95 995.38,-228.01"/>
<polygon fill="#63b8ff" stroke="#63b8ff" points="843.76,-258.36 834.76,-263.95 845.29,-265.19 843.76,-258.36"/>
</a>
</g>
</g>
<!-- Node11&#45;&gt;Node6 -->
<g id="edge14_Node000011_Node000006" class="edge">
<title>Node11&#45;&gt;Node6</title>
<g id="a_edge14_Node000011_Node000006"><a xlink:title=" ">
<path fill="none" stroke="#63b8ff" d="M799.76,-194.46C771.68,-184.25 736.76,-171.55 710.53,-162.01"/>
<polygon fill="#63b8ff" stroke="#63b8ff" points="798.78,-197.83 809.38,-197.95 801.17,-191.25 798.78,-197.83"/>
</a>
</g>
</g>
<!-- Node11&#45;&gt;Node9 -->
<g id="edge15_Node000011_Node000009" class="edge">
<title>Node11&#45;&gt;Node9</title>
<g id="a_edge15_Node000011_Node000009"><a xlink:title=" ">
<path fill="none" stroke="#63b8ff" d="M935.06,-196.39C993.97,-185.83 1071.09,-172.01 1127.81,-161.84"/>
<polygon fill="#63b8ff" stroke="#63b8ff" points="934.25,-192.98 925.02,-198.19 935.48,-199.87 934.25,-192.98"/>
</a>
</g>
</g>
<!-- Node12&#45;&gt;Node9 -->
<g id="edge18_Node000012_Node000009" class="edge">
<title>Node12&#45;&gt;Node9</title>
<g id="a_edge18_Node000012_Node000009"><a xlink:title=" ">
<path fill="none" stroke="#63b8ff" d="M1099.53,-193.92C1122.76,-183.8 1151.29,-171.38 1172.82,-162.01"/>
<polygon fill="#63b8ff" stroke="#63b8ff" points="1098.03,-190.75 1090.26,-197.95 1100.83,-197.17 1098.03,-190.75"/>
</a>
</g>
</g>
<!-- Node13&#45;&gt;Node6 -->
<g id="edge22_Node000013_Node000006" class="edge">
<title>Node13&#45;&gt;Node6</title>
<g id="a_edge22_Node000013_Node000006"><a xlink:title=" ">
<path fill="none" stroke="#63b8ff" d="M1142.71,-197.87C997.89,-178.65 840.47,-163.23 749.01,-154.83"/>
<polygon fill="#63b8ff" stroke="#63b8ff" points="1142.3,-201.35 1152.68,-199.2 1143.23,-194.41 1142.3,-201.35"/>
</a>
</g>
</g>
<!-- Node13&#45;&gt;Node9 -->
<g id="edge23_Node000013_Node000009" class="edge">
<title>Node13&#45;&gt;Node9</title>
<g id="a_edge23_Node000013_Node000009"><a xlink:title=" ">
<path fill="none" stroke="#63b8ff" d="M1220.78,-188.39C1217.34,-179.59 1213.54,-169.86 1210.53,-162.16"/>
<polygon fill="#63b8ff" stroke="#63b8ff" points="1217.55,-189.76 1224.45,-197.8 1224.07,-187.21 1217.55,-189.76"/>
</a>
</g>
</g>
<!-- Node14&#45;&gt;Node6 -->
<g id="edge26_Node000014_Node000006" class="edge">
<title>Node14&#45;&gt;Node6</title>
<g id="a_edge26_Node000014_Node000006"><a xlink:title=" ">
<path fill="none" stroke="#63b8ff" d="M974.02,-254.5C966.57,-236.2 953.61,-211.69 934,-198 904.67,-177.52 815.31,-163.55 749.07,-155.69"/>
<polygon fill="#63b8ff" stroke="#63b8ff" points="970.78,-255.81 977.6,-263.91 977.32,-253.32 970.78,-255.81"/>
</a>
</g>
</g>
<!-- Node14&#45;&gt;Node11 -->
<g id="edge25_Node000014_Node000011" class="edge">
<title>Node14&#45;&gt;Node11</title>
<g id="a_edge25_Node000014_Node000011"><a xlink:title=" ">
<path fill="none" stroke="#63b8ff" d="M943.29,-259.51C922.27,-249.47 896.7,-237.26 877.34,-228.01"/>
<polygon fill="#63b8ff" stroke="#63b8ff" points="942.06,-262.8 952.59,-263.95 945.08,-256.49 942.06,-262.8"/>
</a>
</g>
</g>
<!-- Node14&#45;&gt;Node12 -->
<g id="edge27_Node000014_Node000012" class="edge">
<title>Node14&#45;&gt;Node12</title>
<g id="a_edge27_Node000014_Node000012"><a xlink:title=" ">
<path fill="none" stroke="#63b8ff" d="M1006.7,-257.2C1017.98,-247.7 1031.05,-236.69 1041.18,-228.16"/>
<polygon fill="#63b8ff" stroke="#63b8ff" points="1004.26,-254.68 998.87,-263.8 1008.77,-260.03 1004.26,-254.68"/>
</a>
</g>
</g>
<!-- Node15&#45;&gt;Node6 -->
<g id="edge33_Node000015_Node000006" class="edge">
<title>Node15&#45;&gt;Node6</title>
<g id="a_edge33_Node000015_Node000006"><a xlink:title=" ">
<path fill="none" stroke="#63b8ff" d="M535.65,-257.29C517.85,-240.74 499.93,-217.21 514,-198 532.7,-172.47 564.5,-159.65 594.69,-153.32"/>
<polygon fill="#63b8ff" stroke="#63b8ff" points="533.37,-259.94 543.18,-263.92 537.99,-254.69 533.37,-259.94"/>
</a>
</g>
</g>
<!-- Node16&#45;&gt;Node17 -->
<g id="edge35_Node000016_Node000017" class="edge">
<title>Node16&#45;&gt;Node17</title>
<g id="a_edge35_Node000016_Node000017"><a xlink:title=" ">
<path fill="none" stroke="#63b8ff" d="M338.84,-320.11C341.7,-311.38 344.85,-301.78 347.35,-294.16"/>
<polygon fill="#63b8ff" stroke="#63b8ff" points="335.45,-319.2 335.66,-329.8 342.1,-321.39 335.45,-319.2"/>
</a>
</g>
</g>
<!-- Node16&#45;&gt;Node18 -->
<g id="edge36_Node000016_Node000018" class="edge">
<title>Node16&#45;&gt;Node18</title>
<g id="a_edge36_Node000016_Node000018"><a xlink:title=" ">
<path fill="none" stroke="#63b8ff" d="M284.15,-326.26C251.65,-313.95 209.81,-298.11 184.49,-288.52"/>
<polygon fill="#63b8ff" stroke="#63b8ff" points="283.32,-329.69 293.91,-329.95 285.8,-323.14 283.32,-329.69"/>
</a>
</g>
</g>
<!-- Node19 -->
<g id="Node000019" class="node">
<title>Node19</title>
<g id="a_Node000019"><a xlink:href="chronos_8cpp.html" target="_top" xlink:title=" ">
<polygon fill="white" stroke="#666666" points="208,-222.5 116,-222.5 116,-203.5 208,-203.5 208,-222.5"/>
<text text-anchor="middle" x="162" y="-210.5" font-family="Helvetica,sans-Serif" font-size="10.00">src/chronos.cpp</text>
</a>
</g>
</g>
<!-- Node16&#45;&gt;Node19 -->
<g id="edge38_Node000016_Node000019" class="edge">
<title>Node16&#45;&gt;Node19</title>
<g id="a_edge38_Node000016_Node000019"><a xlink:title=" ">
<path fill="none" stroke="#63b8ff" d="M304.33,-323.6C292.55,-314.57 278.56,-303.79 266,-294 249.03,-280.77 245.02,-277.16 228,-264 209.12,-249.4 186.98,-232.71 173.74,-222.78"/>
<polygon fill="#63b8ff" stroke="#63b8ff" points="302.39,-326.53 312.46,-329.84 306.65,-320.98 302.39,-326.53"/>
</a>
</g>
</g>
<!-- Node18&#45;&gt;Node19 -->
<g id="edge37_Node000018_Node000019" class="edge">
<title>Node18&#45;&gt;Node19</title>
<g id="a_edge37_Node000018_Node000019"><a xlink:title=" ">
<path fill="none" stroke="#63b8ff" d="M162,-259.08C162,-247.13 162,-232.22 162,-222.91"/>
<polygon fill="#63b8ff" stroke="#63b8ff" points="158.5,-259.37 162,-269.37 165.5,-259.37 158.5,-259.37"/>
</a>
</g>
</g>
<!-- Node20&#45;&gt;Node2 -->
<g id="edge44_Node000020_Node000002" class="edge">
<title>Node20&#45;&gt;Node2</title>
<g id="a_edge44_Node000020_Node000002"><a xlink:title=" ">
<path fill="none" stroke="#63b8ff" d="M778.65,-589.45C808.93,-574 840.58,-550.89 821,-528 753.73,-449.38 679.02,-546.39 591,-492 565.61,-476.31 548.3,-444.69 539.88,-426.25"/>
<polygon fill="#63b8ff" stroke="#63b8ff" points="776.81,-586.46 769.36,-594 779.88,-592.75 776.81,-586.46"/>
</a>
</g>
</g>
<!-- Node20&#45;&gt;Node18 -->
<g id="edge66_Node000020_Node000018" class="edge">
<title>Node20&#45;&gt;Node18</title>
<g id="a_edge66_Node000020_Node000018"><a xlink:title=" ">
<path fill="none" stroke="#63b8ff" d="M647.77,-608.73C499.18,-608.69 204.13,-602.75 112,-558 68.43,-536.84 38,-526.43 38,-478 38,-478 38,-478 38,-410 38,-349.49 109.21,-306.03 143.7,-288.53"/>
<polygon fill="#63b8ff" stroke="#63b8ff" points="647.78,-612.23 657.77,-608.72 647.77,-605.23 647.78,-612.23"/>
</a>
</g>
</g>
<!-- Node20&#45;&gt;Node19 -->
<g id="edge67_Node000020_Node000019" class="edge">
<title>Node20&#45;&gt;Node19</title>
<g id="a_edge67_Node000020_Node000019"><a xlink:title=" ">
<path fill="none" stroke="#63b8ff" d="M647.7,-605.77C475.68,-600.78 105.21,-586.81 55,-558 17.58,-536.53 0,-521.15 0,-478 0,-478 0,-478 0,-344 0,-276.57 86.44,-238.28 133.04,-222.54"/>
<polygon fill="#63b8ff" stroke="#63b8ff" points="647.64,-609.27 657.74,-606.06 647.84,-602.28 647.64,-609.27"/>
</a>
</g>
</g>
<!-- Node21 -->
<g id="Node000021" class="node">
<title>Node21</title>
<g id="a_Node000021"><a xlink:href="analyze_8h.html" target="_top" xlink:title=" ">
<polygon fill="white" stroke="#666666" points="754,-492 600,-492 600,-462 754,-462 754,-492"/>
<text text-anchor="start" x="608" y="-480" font-family="Helvetica,sans-Serif" font-size="10.00">/usr/include/GraphicsMagick</text>
<text text-anchor="middle" x="677" y="-469" font-family="Helvetica,sans-Serif" font-size="10.00">/magick/analyze.h</text>
</a>
</g>
</g>
<!-- Node20&#45;&gt;Node21 -->
<g id="edge42_Node000020_Node000021" class="edge">
<title>Node20&#45;&gt;Node21</title>
<g id="a_edge42_Node000020_Node000021"><a xlink:title=" ">
<path fill="none" stroke="#63b8ff" d="M799.39,-590.63C837.65,-577.01 874.98,-555.73 854,-528 841.48,-511.45 796.03,-498.81 754.32,-490.39"/>
<polygon fill="#63b8ff" stroke="#63b8ff" points="798.02,-587.4 789.67,-593.93 800.27,-594.03 798.02,-587.4"/>
</a>
</g>
</g>
<!-- Node22 -->
<g id="Node000022" class="node">
<title>Node22</title>
<g id="a_Node000022"><a xlink:href="attribute_8h.html" target="_top" xlink:title=" ">
<polygon fill="white" stroke="#666666" points="926,-492 772,-492 772,-462 926,-462 926,-492"/>
<text text-anchor="start" x="780" y="-480" font-family="Helvetica,sans-Serif" font-size="10.00">/usr/include/GraphicsMagick</text>
<text text-anchor="middle" x="849" y="-469" font-family="Helvetica,sans-Serif" font-size="10.00">/magick/attribute.h</text>
</a>
</g>
</g>
<!-- Node20&#45;&gt;Node22 -->
<g id="edge45_Node000020_Node000022" class="edge">
<title>Node20&#45;&gt;Node22</title>
<g id="a_edge45_Node000020_Node000022"><a xlink:title=" ">
<path fill="none" stroke="#63b8ff" d="M821.67,-593.57C840.97,-586.15 859.19,-574.93 871,-558 885.01,-537.92 870.71,-509.23 859.52,-492.22"/>
<polygon fill="#63b8ff" stroke="#63b8ff" points="820.41,-590.3 812.13,-596.92 822.73,-596.91 820.41,-590.3"/>
</a>
</g>
</g>
<!-- Node23 -->
<g id="Node000023" class="node">
<title>Node23</title>
<g id="a_Node000023"><a xlink:href="average_8h.html" target="_top" xlink:title=" ">
<polygon fill="white" stroke="#666666" points="1098,-492 944,-492 944,-462 1098,-462 1098,-492"/>
<text text-anchor="start" x="952" y="-480" font-family="Helvetica,sans-Serif" font-size="10.00">/usr/include/GraphicsMagick</text>
<text text-anchor="middle" x="1021" y="-469" font-family="Helvetica,sans-Serif" font-size="10.00">/magick/average.h</text>
</a>
</g>
</g>
<!-- Node20&#45;&gt;Node23 -->
<g id="edge47_Node000020_Node000023" class="edge">
<title>Node20&#45;&gt;Node23</title>
<g id="a_edge47_Node000020_Node000023"><a xlink:title=" ">
<path fill="none" stroke="#63b8ff" d="M796.79,-591.06C824.86,-582.51 858.17,-571.15 887,-558 929.15,-538.77 974.78,-509.54 1000.43,-492.24"/>
<polygon fill="#63b8ff" stroke="#63b8ff" points="795.66,-587.74 787.09,-593.97 797.67,-594.45 795.66,-587.74"/>
</a>
</g>
</g>
<!-- Node24 -->
<g id="Node000024" class="node">
<title>Node24</title>
<g id="a_Node000024"><a xlink:href="blob_8h.html" target="_top" xlink:title=" ">
<polygon fill="white" stroke="#666666" points="1203,-558 1049,-558 1049,-528 1203,-528 1203,-558"/>
<text text-anchor="start" x="1057" y="-546" font-family="Helvetica,sans-Serif" font-size="10.00">/usr/include/GraphicsMagick</text>
<text text-anchor="middle" x="1126" y="-535" font-family="Helvetica,sans-Serif" font-size="10.00">/magick/blob.h</text>
</a>
</g>
</g>
<!-- Node20&#45;&gt;Node24 -->
<g id="edge49_Node000020_Node000024" class="edge">
<title>Node20&#45;&gt;Node24</title>
<g id="a_edge49_Node000020_Node000024"><a xlink:title=" ">
<path fill="none" stroke="#63b8ff" d="M822.51,-593.68C890.45,-582.56 983.76,-567.28 1048.91,-556.62"/>
<polygon fill="#63b8ff" stroke="#63b8ff" points="821.55,-590.29 812.25,-595.36 822.68,-597.19 821.55,-590.29"/>
</a>
</g>
</g>
<!-- Node25 -->
<g id="Node000025" class="node">
<title>Node25</title>
<g id="a_Node000025"><a xlink:href="enum__strings_8h.html" target="_top" xlink:title=" ">
<polygon fill="white" stroke="#666666" points="1308,-492 1154,-492 1154,-462 1308,-462 1308,-492"/>
<text text-anchor="start" x="1162" y="-480" font-family="Helvetica,sans-Serif" font-size="10.00">/usr/include/GraphicsMagick</text>
<text text-anchor="middle" x="1231" y="-469" font-family="Helvetica,sans-Serif" font-size="10.00">/magick/enum_strings.h</text>
</a>
</g>
</g>
<!-- Node20&#45;&gt;Node25 -->
<g id="edge57_Node000020_Node000025" class="edge">
<title>Node20&#45;&gt;Node25</title>
<g id="a_edge57_Node000020_Node000025"><a xlink:title=" ">
<path fill="none" stroke="#63b8ff" d="M822.43,-604.25C952.13,-597.88 1183.4,-583.14 1212,-558 1230.76,-541.51 1232.75,-510.18 1232.13,-492.01"/>
<polygon fill="#63b8ff" stroke="#63b8ff" points="821.94,-600.77 812.12,-604.75 822.28,-607.76 821.94,-600.77"/>
</a>
</g>
</g>
<!-- Node26 -->
<g id="Node000026" class="node">
<title>Node26</title>
<g id="a_Node000026"><a xlink:href="colormap_8h.html" target="_top" xlink:title=" ">
<polygon fill="white" stroke="#666666" points="220,-492 66,-492 66,-462 220,-462 220,-492"/>
<text text-anchor="start" x="74" y="-480" font-family="Helvetica,sans-Serif" font-size="10.00">/usr/include/GraphicsMagick</text>
<text text-anchor="middle" x="143" y="-469" font-family="Helvetica,sans-Serif" font-size="10.00">/magick/colormap.h</text>
</a>
</g>
</g>
<!-- Node20&#45;&gt;Node26 -->
<g id="edge53_Node000020_Node000026" class="edge">
<title>Node20&#45;&gt;Node26</title>
<g id="a_edge53_Node000020_Node000026"><a xlink:title=" ">
<path fill="none" stroke="#63b8ff" d="M647.5,-607.27C486.79,-605 157.79,-595.75 123,-558 106.22,-539.79 121.25,-509.66 132.76,-492.03"/>
<polygon fill="#63b8ff" stroke="#63b8ff" points="647.79,-610.77 657.83,-607.4 647.88,-603.77 647.79,-610.77"/>
</a>
</g>
</g>
<!-- Node27 -->
<g id="Node000027" class="node">
<title>Node27</title>
<g id="a_Node000027"><a xlink:href="describe_8h.html" target="_top" xlink:title=" ">
<polygon fill="white" stroke="#666666" points="392,-492 238,-492 238,-462 392,-462 392,-492"/>
<text text-anchor="start" x="246" y="-480" font-family="Helvetica,sans-Serif" font-size="10.00">/usr/include/GraphicsMagick</text>
<text text-anchor="middle" x="315" y="-469" font-family="Helvetica,sans-Serif" font-size="10.00">/magick/describe.h</text>
</a>
</g>
</g>
<!-- Node20&#45;&gt;Node27 -->
<g id="edge55_Node000020_Node000027" class="edge">
<title>Node20&#45;&gt;Node27</title>
<g id="a_edge55_Node000020_Node000027"><a xlink:title=" ">
<path fill="none" stroke="#63b8ff" d="M647.72,-607.14C489.19,-604.66 167.12,-595.07 133,-558 123.97,-548.19 124.92,-538.6 133,-528 140.35,-518.36 200.03,-503.15 249.08,-492.04"/>
<polygon fill="#63b8ff" stroke="#63b8ff" points="647.86,-610.64 657.92,-607.29 647.97,-603.64 647.86,-610.64"/>
</a>
</g>
</g>
<!-- Node28 -->
<g id="Node000028" class="node">
<title>Node28</title>
<g id="a_Node000028"><a xlink:href="gradient_8h.html" target="_top" xlink:title=" ">
<polygon fill="white" stroke="#666666" points="296,-558 142,-558 142,-528 296,-528 296,-558"/>
<text text-anchor="start" x="150" y="-546" font-family="Helvetica,sans-Serif" font-size="10.00">/usr/include/GraphicsMagick</text>
<text text-anchor="middle" x="219" y="-535" font-family="Helvetica,sans-Serif" font-size="10.00">/magick/gradient.h</text>
</a>
</g>
</g>
<!-- Node20&#45;&gt;Node28 -->
<g id="edge58_Node000020_Node000028" class="edge">
<title>Node20&#45;&gt;Node28</title>
<g id="a_edge58_Node000020_Node000028"><a xlink:title=" ">
<path fill="none" stroke="#63b8ff" d="M647.88,-599.05C560.9,-589.83 423.5,-574.53 305,-558 302.15,-557.6 299.26,-557.19 296.33,-556.76"/>
<polygon fill="#63b8ff" stroke="#63b8ff" points="647.65,-602.54 657.97,-600.11 648.39,-595.58 647.65,-602.54"/>
</a>
</g>
</g>
<!-- Node29 -->
<g id="Node000029" class="node">
<title>Node29</title>
<g id="a_Node000029"><a xlink:href="plasma_8h.html" target="_top" xlink:title=" ">
<polygon fill="white" stroke="#666666" points="468,-558 314,-558 314,-528 468,-528 468,-558"/>
<text text-anchor="start" x="322" y="-546" font-family="Helvetica,sans-Serif" font-size="10.00">/usr/include/GraphicsMagick</text>
<text text-anchor="middle" x="391" y="-535" font-family="Helvetica,sans-Serif" font-size="10.00">/magick/plasma.h</text>
</a>
</g>
</g>
<!-- Node20&#45;&gt;Node29 -->
<g id="edge60_Node000020_Node000029" class="edge">
<title>Node20&#45;&gt;Node29</title>
<g id="a_edge60_Node000020_Node000029"><a xlink:title=" ">
<path fill="none" stroke="#63b8ff" d="M649.57,-592.11C593.33,-581.64 520.38,-568.07 466.32,-558.01"/>
<polygon fill="#63b8ff" stroke="#63b8ff" points="649.04,-595.57 659.51,-593.95 650.32,-588.68 649.04,-595.57"/>
</a>
</g>
</g>
<!-- Node30 -->
<g id="Node000030" class="node">
<title>Node30</title>
<g id="a_Node000030"><a xlink:href="statistics_8h.html" target="_top" xlink:title=" ">
<polygon fill="white" stroke="#666666" points="640,-558 486,-558 486,-528 640,-528 640,-558"/>
<text text-anchor="start" x="494" y="-546" font-family="Helvetica,sans-Serif" font-size="10.00">/usr/include/GraphicsMagick</text>
<text text-anchor="middle" x="563" y="-535" font-family="Helvetica,sans-Serif" font-size="10.00">/magick/statistics.h</text>
</a>
</g>
</g>
<!-- Node20&#45;&gt;Node30 -->
<g id="edge62_Node000020_Node000030" class="edge">
<title>Node20&#45;&gt;Node30</title>
<g id="a_edge62_Node000020_Node000030"><a xlink:title=" ">
<path fill="none" stroke="#63b8ff" d="M687.85,-590.46C660.41,-580.25 626.29,-567.55 600.66,-558.01"/>
<polygon fill="#63b8ff" stroke="#63b8ff" points="686.66,-593.75 697.25,-593.95 689.1,-587.19 686.66,-593.75"/>
</a>
</g>
</g>
<!-- Node31 -->
<g id="Node000031" class="node">
<title>Node31</title>
<g id="a_Node000031"><a xlink:href="texture_8h.html" target="_top" xlink:title=" ">
<polygon fill="white" stroke="#666666" points="812,-558 658,-558 658,-528 812,-528 812,-558"/>
<text text-anchor="start" x="666" y="-546" font-family="Helvetica,sans-Serif" font-size="10.00">/usr/include/GraphicsMagick</text>
<text text-anchor="middle" x="735" y="-535" font-family="Helvetica,sans-Serif" font-size="10.00">/magick/texture.h</text>
</a>
</g>
</g>
<!-- Node20&#45;&gt;Node31 -->
<g id="edge64_Node000020_Node000031" class="edge">
<title>Node20&#45;&gt;Node31</title>
<g id="a_edge64_Node000020_Node000031"><a xlink:title=" ">
<path fill="none" stroke="#63b8ff" d="M735,-583.54C735,-574.96 735,-565.61 735,-558.16"/>
<polygon fill="#63b8ff" stroke="#63b8ff" points="731.5,-583.8 735,-593.8 738.5,-583.8 731.5,-583.8"/>
</a>
</g>
</g>
<!-- Node21&#45;&gt;Node2 -->
<g id="edge43_Node000021_Node000002" class="edge">
<title>Node21&#45;&gt;Node2</title>
<g id="a_edge43_Node000021_Node000002"><a xlink:title=" ">
<path fill="none" stroke="#63b8ff" d="M636.3,-457.78C613.75,-447.69 586.16,-435.34 565.31,-426.01"/>
<polygon fill="#63b8ff" stroke="#63b8ff" points="635.06,-461.06 645.62,-461.95 637.92,-454.68 635.06,-461.06"/>
</a>
</g>
</g>
<!-- Node22&#45;&gt;Node2 -->
<g id="edge46_Node000022_Node000002" class="edge">
<title>Node22&#45;&gt;Node2</title>
<g id="a_edge46_Node000022_Node000002"><a xlink:title=" ">
<path fill="none" stroke="#63b8ff" d="M769.81,-459.91C718.44,-449.47 652.17,-436.01 602.97,-426.01"/>
<polygon fill="#63b8ff" stroke="#63b8ff" points="769.38,-463.39 779.87,-461.95 770.77,-456.53 769.38,-463.39"/>
</a>
</g>
</g>
<!-- Node23&#45;&gt;Node2 -->
<g id="edge48_Node000023_Node000002" class="edge">
<title>Node23&#45;&gt;Node2</title>
<g id="a_edge48_Node000023_Node000002"><a xlink:title=" ">
<path fill="none" stroke="#63b8ff" d="M933.72,-461.85C815.58,-445.01 690,-429.9 611.36,-420.78"/>
<polygon fill="#63b8ff" stroke="#63b8ff" points="933.27,-465.32 943.67,-463.27 934.26,-458.39 933.27,-465.32"/>
</a>
</g>
</g>
<!-- Node24&#45;&gt;Node2 -->
<g id="edge50_Node000024_Node000002" class="edge">
<title>Node24&#45;&gt;Node2</title>
<g id="a_edge50_Node000024_Node000002"><a xlink:title=" ">
<path fill="none" stroke="#63b8ff" d="M1127.22,-517.78C1126.71,-499.6 1122.73,-475.59 1107,-462 1070.27,-430.28 758.98,-417.91 611.24,-413.78"/>
<polygon fill="#63b8ff" stroke="#63b8ff" points="1123.72,-517.93 1127.18,-527.95 1130.72,-517.96 1123.72,-517.93"/>
</a>
</g>
</g>
<!-- Node24&#45;&gt;Node25 -->
<g id="edge51_Node000024_Node000025" class="edge">
<title>Node24&#45;&gt;Node25</title>
<g id="a_edge51_Node000024_Node000025"><a xlink:title=" ">
<path fill="none" stroke="#63b8ff" d="M1157.67,-522.69C1173.88,-512.82 1193.25,-501.01 1208.01,-492.01"/>
<polygon fill="#63b8ff" stroke="#63b8ff" points="1155.76,-519.76 1149.04,-527.95 1159.4,-525.74 1155.76,-519.76"/>
</a>
</g>
</g>
<!-- Node25&#45;&gt;Node2 -->
<g id="edge52_Node000025_Node000002" class="edge">
<title>Node25&#45;&gt;Node2</title>
<g id="a_edge52_Node000025_Node000002"><a xlink:title=" ">
<path fill="none" stroke="#63b8ff" d="M1143.35,-462.4C1142.23,-462.27 1141.11,-462.13 1140,-462 950.51,-439.63 726.5,-423.93 611.18,-416.62"/>
<polygon fill="#63b8ff" stroke="#63b8ff" points="1143.24,-465.92 1153.6,-463.71 1144.13,-458.97 1143.24,-465.92"/>
</a>
</g>
</g>
<!-- Node26&#45;&gt;Node2 -->
<g id="edge54_Node000026_Node000002" class="edge">
<title>Node26&#45;&gt;Node2</title>
<g id="a_edge54_Node000026_Node000002"><a xlink:title=" ">
<path fill="none" stroke="#63b8ff" d="M230.51,-461.68C298.45,-450.56 391.76,-435.28 456.91,-424.62"/>
<polygon fill="#63b8ff" stroke="#63b8ff" points="229.55,-458.29 220.25,-463.36 230.68,-465.19 229.55,-458.29"/>
</a>
</g>
</g>
<!-- Node27&#45;&gt;Node2 -->
<g id="edge56_Node000027_Node000002" class="edge">
<title>Node27&#45;&gt;Node2</title>
<g id="a_edge56_Node000027_Node000002"><a xlink:title=" ">
<path fill="none" stroke="#63b8ff" d="M372.76,-459.12C408.07,-448.8 452.7,-435.76 486.05,-426.01"/>
<polygon fill="#63b8ff" stroke="#63b8ff" points="371.68,-455.79 363.06,-461.95 373.64,-462.51 371.68,-455.79"/>
</a>
</g>
</g>
<!-- Node28&#45;&gt;Node2 -->
<g id="edge59_Node000028_Node000002" class="edge">
<title>Node28&#45;&gt;Node2</title>
<g id="a_edge59_Node000028_Node000002"><a xlink:title=" ">
<path fill="none" stroke="#63b8ff" d="M301.14,-525.54C333.15,-517.57 369.6,-506.52 401,-492 422.48,-482.06 424.89,-474.47 445,-462 465.63,-449.2 489.67,-435.78 507.56,-426.07"/>
<polygon fill="#63b8ff" stroke="#63b8ff" points="300.26,-522.16 291.37,-527.92 301.91,-528.96 300.26,-522.16"/>
</a>
</g>
</g>
<!-- Node29&#45;&gt;Node2 -->
<g id="edge61_Node000029_Node000002" class="edge">
<title>Node29&#45;&gt;Node2</title>
<g id="a_edge61_Node000029_Node000002"><a xlink:title=" ">
<path fill="none" stroke="#63b8ff" d="M414.28,-520.84C443.64,-494.15 493.31,-448.99 518.44,-426.14"/>
<polygon fill="#63b8ff" stroke="#63b8ff" points="411.62,-518.52 406.58,-527.84 416.33,-523.7 411.62,-518.52"/>
</a>
</g>
</g>
<!-- Node30&#45;&gt;Node2 -->
<g id="edge63_Node000030_Node000002" class="edge">
<title>Node30&#45;&gt;Node2</title>
<g id="a_edge63_Node000030_Node000002"><a xlink:title=" ">
<path fill="none" stroke="#63b8ff" d="M538.42,-520.27C531.04,-512.21 523.88,-502.47 520,-492 511.81,-469.92 520.26,-442.6 527.13,-426.28"/>
<polygon fill="#63b8ff" stroke="#63b8ff" points="536.26,-523.06 545.77,-527.73 541.24,-518.15 536.26,-523.06"/>
</a>
</g>
</g>
<!-- Node31&#45;&gt;Node2 -->
<g id="edge65_Node000031_Node000002" class="edge">
<title>Node31&#45;&gt;Node2</title>
<g id="a_edge65_Node000031_Node000002"><a xlink:title=" ">
<path fill="none" stroke="#63b8ff" d="M648.26,-525.69C610.36,-516.95 571.48,-505.26 558,-492 540.12,-474.41 535.45,-444.06 534.29,-426.23"/>
<polygon fill="#63b8ff" stroke="#63b8ff" points="647.85,-529.18 658.38,-527.96 649.39,-522.35 647.85,-529.18"/>
</a>
</g>
</g>
</g>
</svg>
