<?xml version="1.0" encoding="UTF-8" standalone="no"?>
<!DOCTYPE svg PUBLIC "-//W3C//DTD SVG 1.1//EN"
 "http://www.w3.org/Graphics/SVG/1.1/DTD/svg11.dtd">
<!-- Generated by graphviz version 2.43.0 (0)
 -->
<!-- Title: main Pages: 1 -->
<svg width="237pt" height="175pt"
 viewBox="0.00 0.00 237.00 175.00" xmlns="http://www.w3.org/2000/svg" xmlns:xlink="http://www.w3.org/1999/xlink">
<g id="graph0" class="graph" transform="scale(1 1) rotate(0) translate(4 171)">
<title>main</title>
<!-- Node1 -->
<g id="Node000001" class="node">
<title>Node1</title>
<g id="a_Node000001"><a xlink:title=" ">
<polygon fill="#999999" stroke="#666666" points="41,-93 0,-93 0,-74 41,-74 41,-93"/>
<text text-anchor="middle" x="20.5" y="-81" font-family="Helvetica,sans-Serif" font-size="10.00">main</text>
</a>
</g>
</g>
<!-- Node2 -->
<g id="Node000002" class="node">
<title>Node2</title>
<g id="a_Node000002"><a xlink:href="classSX1262.html#a8a88319e70afdea327fb8b82e5e1bd34" target="_top" xlink:title="Initialization method for LoRa modem.">
<polygon fill="white" stroke="#666666" points="196,-167 110,-167 110,-148 196,-148 196,-167"/>
<text text-anchor="middle" x="153" y="-155" font-family="Helvetica,sans-Serif" font-size="10.00">SX1262::begin</text>
</a>
</g>
</g>
<!-- Node1&#45;&gt;Node2 -->
<g id="edge1_Node000001_Node000002" class="edge">
<title>Node1&#45;&gt;Node2</title>
<g id="a_edge1_Node000001_Node000002"><a xlink:title=" ">
<path fill="none" stroke="#63b8ff" d="M28.22,-93.03C37.65,-105.65 56.01,-127.68 77,-139.5 84.13,-143.52 92.14,-146.64 100.19,-149.07"/>
<polygon fill="#63b8ff" stroke="#63b8ff" points="99.42,-152.49 109.98,-151.7 101.23,-145.73 99.42,-152.49"/>
</a>
</g>
</g>
<!-- Node3 -->
<g id="Node000003" class="node">
<title>Node3</title>
<g id="a_Node000003"><a xlink:href="classSX126x.html#aa676c12e84c04195f896d2683ec3c4e9" target="_top" xlink:title="Sets LoRa bandwidth. Allowed values are 7.8, 10.4, 15.6, 20.8, 31.25, 41.7, 62.5, 125....">
<polygon fill="white" stroke="#666666" points="216,-130 90,-130 90,-111 216,-111 216,-130"/>
<text text-anchor="middle" x="153" y="-118" font-family="Helvetica,sans-Serif" font-size="10.00">SX126x::setBandwidth</text>
</a>
</g>
</g>
<!-- Node1&#45;&gt;Node3 -->
<g id="edge2_Node000001_Node000003" class="edge">
<title>Node1&#45;&gt;Node3</title>
<g id="a_edge2_Node000001_Node000003"><a xlink:title=" ">
<path fill="none" stroke="#63b8ff" d="M41.13,-90.73C51.69,-94.48 64.97,-99.01 77,-102.5 84.15,-104.58 91.74,-106.6 99.23,-108.5"/>
<polygon fill="#63b8ff" stroke="#63b8ff" points="98.43,-111.91 108.98,-110.91 100.12,-105.11 98.43,-111.91"/>
</a>
</g>
</g>
<!-- Node4 -->
<g id="Node000004" class="node">
<title>Node4</title>
<g id="a_Node000004"><a xlink:href="classSX126x.html#a6f04a13e604d8bd8127ddf910e406ab5" target="_top" xlink:title="Sets LoRa coding rate denominator. Allowed values range from 4 to 8. Note that a value of 4 means no ...">
<polygon fill="white" stroke="#666666" points="218.5,-93 87.5,-93 87.5,-74 218.5,-74 218.5,-93"/>
<text text-anchor="middle" x="153" y="-81" font-family="Helvetica,sans-Serif" font-size="10.00">SX126x::setCodingRate</text>
</a>
</g>
</g>
<!-- Node1&#45;&gt;Node4 -->
<g id="edge3_Node000001_Node000004" class="edge">
<title>Node1&#45;&gt;Node4</title>
<g id="a_edge3_Node000001_Node000004"><a xlink:title=" ">
<path fill="none" stroke="#63b8ff" d="M41.04,-83.5C50.95,-83.5 63.7,-83.5 77,-83.5"/>
<polygon fill="#63b8ff" stroke="#63b8ff" points="77.24,-87 87.24,-83.5 77.24,-80 77.24,-87"/>
</a>
</g>
</g>
<!-- Node5 -->
<g id="Node000005" class="node">
<title>Node5</title>
<g id="a_Node000005"><a xlink:href="classSX1262.html#a2f9f8abdaa6e68baf901b7763d05dd24" target="_top" xlink:title="Sets output power. Allowed values are in range from &#45;9 to 22 dBm. This method is virtual to allow ove...">
<polygon fill="white" stroke="#666666" points="221.5,-56 84.5,-56 84.5,-37 221.5,-37 221.5,-56"/>
<text text-anchor="middle" x="153" y="-44" font-family="Helvetica,sans-Serif" font-size="10.00">SX1262::setOutputPower</text>
</a>
</g>
</g>
<!-- Node1&#45;&gt;Node5 -->
<g id="edge4_Node000001_Node000005" class="edge">
<title>Node1&#45;&gt;Node5</title>
<g id="a_edge4_Node000001_Node000005"><a xlink:title=" ">
<path fill="none" stroke="#63b8ff" d="M41.18,-76.77C51.75,-73.24 65.03,-68.95 77,-65.5 85.16,-63.15 93.87,-60.79 102.36,-58.59"/>
<polygon fill="#63b8ff" stroke="#63b8ff" points="103.35,-61.95 112.17,-56.08 101.61,-55.17 103.35,-61.95"/>
</a>
</g>
</g>
<!-- Node6 -->
<g id="Node000006" class="node">
<title>Node6</title>
<g id="a_Node000006"><a xlink:href="classSX126x.html#adedb69604942ef758fd8b7bbeb4cd694" target="_top" xlink:title="Sets LoRa spreading factor. Allowed values range from 5 to 12.">
<polygon fill="white" stroke="#666666" points="229,-19 77,-19 77,0 229,0 229,-19"/>
<text text-anchor="middle" x="153" y="-7" font-family="Helvetica,sans-Serif" font-size="10.00">SX126x::setSpreadingFactor</text>
</a>
</g>
</g>
<!-- Node1&#45;&gt;Node6 -->
<g id="edge5_Node000001_Node000006" class="edge">
<title>Node1&#45;&gt;Node6</title>
<g id="a_edge5_Node000001_Node000006"><a xlink:title=" ">
<path fill="none" stroke="#63b8ff" d="M28.61,-73.76C38.2,-61.35 56.45,-40.12 77,-28.5 80.99,-26.25 85.25,-24.25 89.63,-22.5"/>
<polygon fill="#63b8ff" stroke="#63b8ff" points="91.14,-25.67 99.37,-19.01 88.78,-19.08 91.14,-25.67"/>
</a>
</g>
</g>
</g>
</svg>
