<?xml version="1.0" encoding="UTF-8" standalone="no"?>
<!DOCTYPE svg PUBLIC "-//W3C//DTD SVG 1.1//EN"
 "http://www.w3.org/Graphics/SVG/1.1/DTD/svg11.dtd">
<!-- Generated by graphviz version 2.43.0 (0)
 -->
<!-- Title: src/transmitter&#45;normal.cpp Pages: 1 -->
<svg width="2152pt" height="192pt"
 viewBox="0.00 0.00 2151.50 192.00" xmlns="http://www.w3.org/2000/svg" xmlns:xlink="http://www.w3.org/1999/xlink">
<g id="graph0" class="graph" transform="scale(1 1) rotate(0) translate(4 188)">
<title>src/transmitter&#45;normal.cpp</title>
<!-- Node1 -->
<g id="Node000001" class="node">
<title>Node1</title>
<g id="a_Node000001"><a xlink:title=" ">
<polygon fill="#999999" stroke="#666666" points="1559.5,-184 1412.5,-184 1412.5,-165 1559.5,-165 1559.5,-184"/>
<text text-anchor="middle" x="1486" y="-172" font-family="Helvetica,sans-Serif" font-size="10.00">src/transmitter&#45;normal.cpp</text>
</a>
</g>
</g>
<!-- Node2 -->
<g id="Node000002" class="node">
<title>Node2</title>
<g id="a_Node000002"><a xlink:href="chronos_8hpp.html" target="_top" xlink:title=" ">
<polygon fill="white" stroke="#666666" points="483,-129 407,-129 407,-110 483,-110 483,-129"/>
<text text-anchor="middle" x="445" y="-117" font-family="Helvetica,sans-Serif" font-size="10.00">chronos.hpp</text>
</a>
</g>
</g>
<!-- Node1&#45;&gt;Node2 -->
<g id="edge1_Node000001_Node000002" class="edge">
<title>Node1&#45;&gt;Node2</title>
<g id="a_edge1_Node000001_Node000002"><a xlink:title=" ">
<path fill="none" stroke="#63b8ff" d="M1412.38,-169.75C1211.97,-159.55 660.44,-131.47 493.5,-122.97"/>
<polygon fill="#63b8ff" stroke="#63b8ff" points="493.24,-119.45 483.07,-122.44 492.88,-126.44 493.24,-119.45"/>
</a>
</g>
</g>
<!-- Node5 -->
<g id="Node000005" class="node">
<title>Node5</title>
<g id="a_Node000005"><a xlink:title=" ">
<polygon fill="#e0e0e0" stroke="#999999" points="880.5,-19 827.5,-19 827.5,0 880.5,0 880.5,-19"/>
<text text-anchor="middle" x="854" y="-7" font-family="Helvetica,sans-Serif" font-size="10.00">cstddef</text>
</a>
</g>
</g>
<!-- Node1&#45;&gt;Node5 -->
<g id="edge24_Node000001_Node000005" class="edge">
<title>Node1&#45;&gt;Node5</title>
<g id="a_edge24_Node000001_Node000005"><a xlink:title=" ">
<path fill="none" stroke="#63b8ff" d="M1412.44,-171.94C1266.19,-168.24 949.45,-157.07 909,-129 875.41,-105.69 861.86,-56.46 856.77,-29.36"/>
<polygon fill="#63b8ff" stroke="#63b8ff" points="860.18,-28.53 855.08,-19.25 853.28,-29.69 860.18,-28.53"/>
</a>
</g>
</g>
<!-- Node6 -->
<g id="Node000006" class="node">
<title>Node6</title>
<g id="a_Node000006"><a xlink:title=" ">
<polygon fill="#e0e0e0" stroke="#999999" points="720,-19 670,-19 670,0 720,0 720,-19"/>
<text text-anchor="middle" x="695" y="-7" font-family="Helvetica,sans-Serif" font-size="10.00">cstdint</text>
</a>
</g>
</g>
<!-- Node1&#45;&gt;Node6 -->
<g id="edge25_Node000001_Node000006" class="edge">
<title>Node1&#45;&gt;Node6</title>
<g id="a_edge25_Node000001_Node000006"><a xlink:title=" ">
<path fill="none" stroke="#63b8ff" d="M1412.38,-171.13C1274.8,-166.2 983.78,-153.22 886,-129 826.69,-114.31 810.68,-108.13 760,-74 740.28,-60.72 721.25,-41.07 708.93,-27.15"/>
<polygon fill="#63b8ff" stroke="#63b8ff" points="711.37,-24.61 702.18,-19.33 706.07,-29.19 711.37,-24.61"/>
</a>
</g>
</g>
<!-- Node7 -->
<g id="Node000007" class="node">
<title>Node7</title>
<g id="a_Node000007"><a xlink:title=" ">
<polygon fill="#e0e0e0" stroke="#999999" points="937.5,-19 898.5,-19 898.5,0 937.5,0 937.5,-19"/>
<text text-anchor="middle" x="918" y="-7" font-family="Helvetica,sans-Serif" font-size="10.00">print</text>
</a>
</g>
</g>
<!-- Node1&#45;&gt;Node7 -->
<g id="edge31_Node000001_Node000007" class="edge">
<title>Node1&#45;&gt;Node7</title>
<g id="a_edge31_Node000001_Node000007"><a xlink:title=" ">
<path fill="none" stroke="#63b8ff" d="M1412.26,-172.97C1267.51,-171.17 957.34,-163.3 924,-129 898.25,-102.5 905.64,-54.96 912.37,-28.87"/>
<polygon fill="#63b8ff" stroke="#63b8ff" points="915.77,-29.7 915.12,-19.13 909.03,-27.81 915.77,-29.7"/>
</a>
</g>
</g>
<!-- Node18 -->
<g id="Node000018" class="node">
<title>Node18</title>
<g id="a_Node000018"><a xlink:title=" ">
<polygon fill="#e0e0e0" stroke="#999999" points="995,-129 933,-129 933,-110 995,-110 995,-129"/>
<text text-anchor="middle" x="964" y="-117" font-family="Helvetica,sans-Serif" font-size="10.00">Module.h</text>
</a>
</g>
</g>
<!-- Node1&#45;&gt;Node18 -->
<g id="edge18_Node000001_Node000018" class="edge">
<title>Node1&#45;&gt;Node18</title>
<g id="a_edge18_Node000001_Node000018"><a xlink:title=" ">
<path fill="none" stroke="#63b8ff" d="M1412.18,-169.38C1319.45,-163.61 1155.32,-151.39 1005.67,-129.09"/>
<polygon fill="#63b8ff" stroke="#63b8ff" points="1005.79,-125.56 995.38,-127.53 1004.74,-132.49 1005.79,-125.56"/>
</a>
</g>
</g>
<!-- Node19 -->
<g id="Node000019" class="node">
<title>Node19</title>
<g id="a_Node000019"><a xlink:title=" ">
<polygon fill="#e0e0e0" stroke="#999999" points="1078.5,-129 1013.5,-129 1013.5,-110 1078.5,-110 1078.5,-129"/>
<text text-anchor="middle" x="1046" y="-117" font-family="Helvetica,sans-Serif" font-size="10.00">TypeDef.h</text>
</a>
</g>
</g>
<!-- Node1&#45;&gt;Node19 -->
<g id="edge19_Node000001_Node000019" class="edge">
<title>Node1&#45;&gt;Node19</title>
<g id="a_edge19_Node000001_Node000019"><a xlink:title=" ">
<path fill="none" stroke="#63b8ff" d="M1412.18,-167.35C1334.08,-160.37 1207.07,-147.68 1088.59,-129.13"/>
<polygon fill="#63b8ff" stroke="#63b8ff" points="1089.05,-125.66 1078.62,-127.55 1087.95,-132.57 1089.05,-125.66"/>
</a>
</g>
</g>
<!-- Node20 -->
<g id="Node000020" class="node">
<title>Node20</title>
<g id="a_Node000020"><a xlink:title=" ">
<polygon fill="#e0e0e0" stroke="#999999" points="1243.5,-129 1096.5,-129 1096.5,-110 1243.5,-110 1243.5,-129"/>
<text text-anchor="middle" x="1170" y="-117" font-family="Helvetica,sans-Serif" font-size="10.00">modules/SX126x/SX1262.h</text>
</a>
</g>
</g>
<!-- Node1&#45;&gt;Node20 -->
<g id="edge20_Node000001_Node000020" class="edge">
<title>Node1&#45;&gt;Node20</title>
<g id="a_edge20_Node000001_Node000020"><a xlink:title=" ">
<path fill="none" stroke="#63b8ff" d="M1435.23,-164.98C1379.57,-155.65 1290.29,-140.67 1230.9,-130.71"/>
<polygon fill="#63b8ff" stroke="#63b8ff" points="1231.35,-127.24 1220.91,-129.04 1230.19,-134.14 1231.35,-127.24"/>
</a>
</g>
</g>
<!-- Node21 -->
<g id="Node000021" class="node">
<title>Node21</title>
<g id="a_Node000021"><a xlink:title=" ">
<polygon fill="#e0e0e0" stroke="#999999" points="1330,-129 1262,-129 1262,-110 1330,-110 1330,-129"/>
<text text-anchor="middle" x="1296" y="-117" font-family="Helvetica,sans-Serif" font-size="10.00">RadioLib.h</text>
</a>
</g>
</g>
<!-- Node1&#45;&gt;Node21 -->
<g id="edge21_Node000001_Node000021" class="edge">
<title>Node1&#45;&gt;Node21</title>
<g id="a_edge21_Node000001_Node000021"><a xlink:title=" ">
<path fill="none" stroke="#63b8ff" d="M1455.47,-164.98C1423.3,-156.01 1372.44,-141.82 1336.83,-131.89"/>
<polygon fill="#63b8ff" stroke="#63b8ff" points="1337.34,-128.4 1326.77,-129.08 1335.46,-135.14 1337.34,-128.4"/>
</a>
</g>
</g>
<!-- Node22 -->
<g id="Node000022" class="node">
<title>Node22</title>
<g id="a_Node000022"><a xlink:title=" ">
<polygon fill="#e0e0e0" stroke="#999999" points="1436,-129 1348,-129 1348,-110 1436,-110 1436,-129"/>
<text text-anchor="middle" x="1392" y="-117" font-family="Helvetica,sans-Serif" font-size="10.00">hal/RPi/PiHal.h</text>
</a>
</g>
</g>
<!-- Node1&#45;&gt;Node22 -->
<g id="edge22_Node000001_Node000022" class="edge">
<title>Node1&#45;&gt;Node22</title>
<g id="a_edge22_Node000001_Node000022"><a xlink:title=" ">
<path fill="none" stroke="#63b8ff" d="M1470.9,-164.98C1456.18,-156.69 1433.58,-143.94 1416.33,-134.22"/>
<polygon fill="#63b8ff" stroke="#63b8ff" points="1417.81,-131.03 1407.38,-129.17 1414.37,-137.13 1417.81,-131.03"/>
</a>
</g>
</g>
<!-- Node23 -->
<g id="Node000023" class="node">
<title>Node23</title>
<g id="a_Node000023"><a xlink:title=" ">
<polygon fill="#e0e0e0" stroke="#999999" points="1518,-129 1454,-129 1454,-110 1518,-110 1518,-129"/>
<text text-anchor="middle" x="1486" y="-117" font-family="Helvetica,sans-Serif" font-size="10.00">algorithm</text>
</a>
</g>
</g>
<!-- Node1&#45;&gt;Node23 -->
<g id="edge23_Node000001_Node000023" class="edge">
<title>Node1&#45;&gt;Node23</title>
<g id="a_edge23_Node000001_Node000023"><a xlink:title=" ">
<path fill="none" stroke="#63b8ff" d="M1486,-164.75C1486,-157.8 1486,-147.85 1486,-139.13"/>
<polygon fill="#63b8ff" stroke="#63b8ff" points="1489.5,-139.09 1486,-129.09 1482.5,-139.09 1489.5,-139.09"/>
</a>
</g>
</g>
<!-- Node24 -->
<g id="Node000024" class="node">
<title>Node24</title>
<g id="a_Node000024"><a xlink:title=" ">
<polygon fill="#e0e0e0" stroke="#999999" points="1582,-129 1536,-129 1536,-110 1582,-110 1582,-129"/>
<text text-anchor="middle" x="1559" y="-117" font-family="Helvetica,sans-Serif" font-size="10.00">cstdio</text>
</a>
</g>
</g>
<!-- Node1&#45;&gt;Node24 -->
<g id="edge26_Node000001_Node000024" class="edge">
<title>Node1&#45;&gt;Node24</title>
<g id="a_edge26_Node000001_Node000024"><a xlink:title=" ">
<path fill="none" stroke="#63b8ff" d="M1497.73,-164.98C1508.73,-157 1525.42,-144.88 1538.6,-135.31"/>
<polygon fill="#63b8ff" stroke="#63b8ff" points="1541.02,-137.88 1547.06,-129.17 1536.91,-132.21 1541.02,-137.88"/>
</a>
</g>
</g>
<!-- Node25 -->
<g id="Node000025" class="node">
<title>Node25</title>
<g id="a_Node000025"><a xlink:title=" ">
<polygon fill="#e0e0e0" stroke="#999999" points="1650,-129 1600,-129 1600,-110 1650,-110 1650,-129"/>
<text text-anchor="middle" x="1625" y="-117" font-family="Helvetica,sans-Serif" font-size="10.00">cstring</text>
</a>
</g>
</g>
<!-- Node1&#45;&gt;Node25 -->
<g id="edge27_Node000001_Node000025" class="edge">
<title>Node1&#45;&gt;Node25</title>
<g id="a_edge27_Node000001_Node000025"><a xlink:title=" ">
<path fill="none" stroke="#63b8ff" d="M1508.33,-164.98C1531.2,-156.27 1566.96,-142.63 1592.86,-132.75"/>
<polygon fill="#63b8ff" stroke="#63b8ff" points="1594.16,-136 1602.26,-129.17 1591.67,-129.46 1594.16,-136"/>
</a>
</g>
</g>
<!-- Node26 -->
<g id="Node000026" class="node">
<title>Node26</title>
<g id="a_Node000026"><a xlink:title=" ">
<polygon fill="#e0e0e0" stroke="#999999" points="1715.5,-129 1668.5,-129 1668.5,-110 1715.5,-110 1715.5,-129"/>
<text text-anchor="middle" x="1692" y="-117" font-family="Helvetica,sans-Serif" font-size="10.00">fcntl.h</text>
</a>
</g>
</g>
<!-- Node1&#45;&gt;Node26 -->
<g id="edge28_Node000001_Node000026" class="edge">
<title>Node1&#45;&gt;Node26</title>
<g id="a_edge28_Node000001_Node000026"><a xlink:title=" ">
<path fill="none" stroke="#63b8ff" d="M1519.17,-164.97C1552.02,-156.52 1604.03,-143.15 1658.39,-129.16"/>
<polygon fill="#63b8ff" stroke="#63b8ff" points="1659.4,-132.51 1668.21,-126.63 1657.65,-125.73 1659.4,-132.51"/>
</a>
</g>
</g>
<!-- Node27 -->
<g id="Node000027" class="node">
<title>Node27</title>
<g id="a_Node000027"><a xlink:title=" ">
<polygon fill="#e0e0e0" stroke="#999999" points="1788.5,-129 1733.5,-129 1733.5,-110 1788.5,-110 1788.5,-129"/>
<text text-anchor="middle" x="1761" y="-117" font-family="Helvetica,sans-Serif" font-size="10.00">fstream</text>
</a>
</g>
</g>
<!-- Node1&#45;&gt;Node27 -->
<g id="edge29_Node000001_Node000027" class="edge">
<title>Node1&#45;&gt;Node27</title>
<g id="a_edge29_Node000001_Node000027"><a xlink:title=" ">
<path fill="none" stroke="#63b8ff" d="M1535.57,-164.98C1581.83,-156.87 1653,-143.99 1723.22,-129.31"/>
<polygon fill="#63b8ff" stroke="#63b8ff" points="1724.06,-132.71 1733.12,-127.22 1722.61,-125.86 1724.06,-132.71"/>
</a>
</g>
</g>
<!-- Node28 -->
<g id="Node000028" class="node">
<title>Node28</title>
<g id="a_Node000028"><a xlink:title=" ">
<polygon fill="#e0e0e0" stroke="#999999" points="1859.5,-129 1806.5,-129 1806.5,-110 1859.5,-110 1859.5,-129"/>
<text text-anchor="middle" x="1833" y="-117" font-family="Helvetica,sans-Serif" font-size="10.00">iterator</text>
</a>
</g>
</g>
<!-- Node1&#45;&gt;Node28 -->
<g id="edge30_Node000001_Node000028" class="edge">
<title>Node1&#45;&gt;Node28</title>
<g id="a_edge30_Node000001_Node000028"><a xlink:title=" ">
<path fill="none" stroke="#63b8ff" d="M1559.77,-165.02C1620.85,-157.53 1710.08,-145.51 1796.35,-129.17"/>
<polygon fill="#63b8ff" stroke="#63b8ff" points="1797.14,-132.58 1806.31,-127.26 1795.83,-125.71 1797.14,-132.58"/>
</a>
</g>
</g>
<!-- Node29 -->
<g id="Node000029" class="node">
<title>Node29</title>
<g id="a_Node000029"><a xlink:title=" ">
<polygon fill="#e0e0e0" stroke="#999999" points="1922,-129 1878,-129 1878,-110 1922,-110 1922,-129"/>
<text text-anchor="middle" x="1900" y="-117" font-family="Helvetica,sans-Serif" font-size="10.00">string</text>
</a>
</g>
</g>
<!-- Node1&#45;&gt;Node29 -->
<g id="edge32_Node000001_Node000029" class="edge">
<title>Node1&#45;&gt;Node29</title>
<g id="a_edge32_Node000001_Node000029"><a xlink:title=" ">
<path fill="none" stroke="#63b8ff" d="M1559.58,-168.29C1634.87,-162.2 1755.32,-150.38 1867.92,-128.94"/>
<polygon fill="#63b8ff" stroke="#63b8ff" points="1868.59,-132.37 1877.74,-127.04 1867.26,-125.5 1868.59,-132.37"/>
</a>
</g>
</g>
<!-- Node30 -->
<g id="Node000030" class="node">
<title>Node30</title>
<g id="a_Node000030"><a xlink:title=" ">
<polygon fill="#e0e0e0" stroke="#999999" points="2003.5,-129 1940.5,-129 1940.5,-110 2003.5,-110 2003.5,-129"/>
<text text-anchor="middle" x="1972" y="-117" font-family="Helvetica,sans-Serif" font-size="10.00">termios.h</text>
</a>
</g>
</g>
<!-- Node1&#45;&gt;Node30 -->
<g id="edge33_Node000001_Node000030" class="edge">
<title>Node1&#45;&gt;Node30</title>
<g id="a_edge33_Node000001_Node000030"><a xlink:title=" ">
<path fill="none" stroke="#63b8ff" d="M1559.53,-168.52C1645.85,-162.14 1793.49,-149.57 1930.05,-128.98"/>
<polygon fill="#63b8ff" stroke="#63b8ff" points="1930.92,-132.39 1940.28,-127.42 1929.86,-125.47 1930.92,-132.39"/>
</a>
</g>
</g>
<!-- Node31 -->
<g id="Node000031" class="node">
<title>Node31</title>
<g id="a_Node000031"><a xlink:title=" ">
<polygon fill="#e0e0e0" stroke="#999999" points="2078,-129 2022,-129 2022,-110 2078,-110 2078,-129"/>
<text text-anchor="middle" x="2050" y="-117" font-family="Helvetica,sans-Serif" font-size="10.00">unistd.h</text>
</a>
</g>
</g>
<!-- Node1&#45;&gt;Node31 -->
<g id="edge34_Node000001_Node000031" class="edge">
<title>Node1&#45;&gt;Node31</title>
<g id="a_edge34_Node000001_Node000031"><a xlink:title=" ">
<path fill="none" stroke="#63b8ff" d="M1559.71,-170.57C1659.97,-165.85 1845.02,-154.55 2011.85,-128.96"/>
<polygon fill="#63b8ff" stroke="#63b8ff" points="2012.45,-132.41 2021.8,-127.41 2011.38,-125.49 2012.45,-132.41"/>
</a>
</g>
</g>
<!-- Node32 -->
<g id="Node000032" class="node">
<title>Node32</title>
<g id="a_Node000032"><a xlink:title=" ">
<polygon fill="#e0e0e0" stroke="#999999" points="2143.5,-129 2096.5,-129 2096.5,-110 2143.5,-110 2143.5,-129"/>
<text text-anchor="middle" x="2120" y="-117" font-family="Helvetica,sans-Serif" font-size="10.00">vector</text>
</a>
</g>
</g>
<!-- Node1&#45;&gt;Node32 -->
<g id="edge35_Node000001_Node000032" class="edge">
<title>Node1&#45;&gt;Node32</title>
<g id="a_edge35_Node000001_Node000032"><a xlink:title=" ">
<path fill="none" stroke="#63b8ff" d="M1559.58,-172.26C1671.49,-169.46 1891.14,-160.3 2086.44,-128.76"/>
<polygon fill="#63b8ff" stroke="#63b8ff" points="2087.01,-132.21 2096.31,-127.14 2085.88,-125.3 2087.01,-132.21"/>
</a>
</g>
</g>
<!-- Node3 -->
<g id="Node000003" class="node">
<title>Node3</title>
<g id="a_Node000003"><a xlink:href="crc32c_8hpp.html" target="_top" xlink:title="CRC32&#45;Castagnoli header using Hardware&#45;accelerated &amp; Parallel Computation CRC32C intrinsics from ARMv...">
<polygon fill="white" stroke="#666666" points="838.5,-74 769.5,-74 769.5,-55 838.5,-55 838.5,-74"/>
<text text-anchor="middle" x="804" y="-62" font-family="Helvetica,sans-Serif" font-size="10.00">crc32c.hpp</text>
</a>
</g>
</g>
<!-- Node2&#45;&gt;Node3 -->
<g id="edge2_Node000002_Node000003" class="edge">
<title>Node2&#45;&gt;Node3</title>
<g id="a_edge2_Node000002_Node000003"><a xlink:title=" ">
<path fill="none" stroke="#63b8ff" d="M483.08,-112.88C549.99,-103 688.28,-82.58 759.49,-72.07"/>
<polygon fill="#63b8ff" stroke="#63b8ff" points="760.11,-75.52 769.49,-70.59 759.09,-68.59 760.11,-75.52"/>
</a>
</g>
</g>
<!-- Node8 -->
<g id="Node000008" class="node">
<title>Node8</title>
<g id="a_Node000008"><a xlink:href="reed__solomon_8hpp.html" target="_top" xlink:title=" ">
<polygon fill="white" stroke="#666666" points="564.5,-74 457.5,-74 457.5,-55 564.5,-55 564.5,-74"/>
<text text-anchor="middle" x="511" y="-62" font-family="Helvetica,sans-Serif" font-size="10.00">reed_solomon.hpp</text>
</a>
</g>
</g>
<!-- Node2&#45;&gt;Node8 -->
<g id="edge7_Node000002_Node000008" class="edge">
<title>Node2&#45;&gt;Node8</title>
<g id="a_edge7_Node000002_Node000008"><a xlink:title=" ">
<path fill="none" stroke="#63b8ff" d="M455.6,-109.98C465.46,-102.07 480.35,-90.11 492.22,-80.58"/>
<polygon fill="#63b8ff" stroke="#63b8ff" points="494.6,-83.16 500.2,-74.17 490.21,-77.7 494.6,-83.16"/>
</a>
</g>
</g>
<!-- Node13 -->
<g id="Node000013" class="node">
<title>Node13</title>
<g id="a_Node000013"><a xlink:href="canonical__huffman_8hpp.html" target="_top" xlink:title=" ">
<polygon fill="white" stroke="#666666" points="713,-74 583,-74 583,-55 713,-55 713,-74"/>
<text text-anchor="middle" x="648" y="-62" font-family="Helvetica,sans-Serif" font-size="10.00">canonical_huffman.hpp</text>
</a>
</g>
</g>
<!-- Node2&#45;&gt;Node13 -->
<g id="edge13_Node000002_Node000013" class="edge">
<title>Node2&#45;&gt;Node13</title>
<g id="a_edge13_Node000002_Node000013"><a xlink:title=" ">
<path fill="none" stroke="#63b8ff" d="M477.62,-109.98C512.29,-100.93 567.26,-86.58 605.35,-76.64"/>
<polygon fill="#63b8ff" stroke="#63b8ff" points="606.34,-79.99 615.13,-74.08 604.57,-73.22 606.34,-79.99"/>
</a>
</g>
</g>
<!-- Node14 -->
<g id="Node000014" class="node">
<title>Node14</title>
<g id="a_Node000014"><a xlink:title=" ">
<polygon fill="#e0e0e0" stroke="#999999" points="80,-74 0,-74 0,-55 80,-55 80,-74"/>
<text text-anchor="middle" x="40" y="-62" font-family="Helvetica,sans-Serif" font-size="10.00">magick/api.h</text>
</a>
</g>
</g>
<!-- Node2&#45;&gt;Node14 -->
<g id="edge14_Node000002_Node000014" class="edge">
<title>Node2&#45;&gt;Node14</title>
<g id="a_edge14_Node000002_Node000014"><a xlink:title=" ">
<path fill="none" stroke="#63b8ff" d="M406.98,-114.35C343.57,-107.29 211.96,-92.09 90.32,-74.13"/>
<polygon fill="#63b8ff" stroke="#63b8ff" points="90.49,-70.62 80.09,-72.61 89.46,-77.54 90.49,-70.62"/>
</a>
</g>
</g>
<!-- Node15 -->
<g id="Node000015" class="node">
<title>Node15</title>
<g id="a_Node000015"><a xlink:title=" ">
<polygon fill="#e0e0e0" stroke="#999999" points="185.5,-74 98.5,-74 98.5,-55 185.5,-55 185.5,-74"/>
<text text-anchor="middle" x="142" y="-62" font-family="Helvetica,sans-Serif" font-size="10.00">magick/error.h</text>
</a>
</g>
</g>
<!-- Node2&#45;&gt;Node15 -->
<g id="edge15_Node000002_Node000015" class="edge">
<title>Node2&#45;&gt;Node15</title>
<g id="a_edge15_Node000002_Node000015"><a xlink:title=" ">
<path fill="none" stroke="#63b8ff" d="M406.93,-111.84C353.59,-102.51 256.36,-85.5 195.69,-74.89"/>
<polygon fill="#63b8ff" stroke="#63b8ff" points="195.99,-71.39 185.54,-73.12 194.79,-78.29 195.99,-71.39"/>
</a>
</g>
</g>
<!-- Node16 -->
<g id="Node000016" class="node">
<title>Node16</title>
<g id="a_Node000016"><a xlink:title=" ">
<polygon fill="#e0e0e0" stroke="#999999" points="298.5,-74 203.5,-74 203.5,-55 298.5,-55 298.5,-74"/>
<text text-anchor="middle" x="251" y="-62" font-family="Helvetica,sans-Serif" font-size="10.00">magick/image.h</text>
</a>
</g>
</g>
<!-- Node2&#45;&gt;Node16 -->
<g id="edge16_Node000002_Node000016" class="edge">
<title>Node2&#45;&gt;Node16</title>
<g id="a_edge16_Node000002_Node000016"><a xlink:title=" ">
<path fill="none" stroke="#63b8ff" d="M413.83,-109.98C380.84,-100.97 328.6,-86.7 292.23,-76.76"/>
<polygon fill="#63b8ff" stroke="#63b8ff" points="292.98,-73.34 282.41,-74.08 291.14,-80.09 292.98,-73.34"/>
</a>
</g>
</g>
<!-- Node17 -->
<g id="Node000017" class="node">
<title>Node17</title>
<g id="a_Node000017"><a xlink:title=" ">
<polygon fill="#e0e0e0" stroke="#999999" points="439,-74 317,-74 317,-55 439,-55 439,-74"/>
<text text-anchor="middle" x="378" y="-62" font-family="Helvetica,sans-Serif" font-size="10.00">wand/magick_wand.h</text>
</a>
</g>
</g>
<!-- Node2&#45;&gt;Node17 -->
<g id="edge17_Node000002_Node000017" class="edge">
<title>Node2&#45;&gt;Node17</title>
<g id="a_edge17_Node000002_Node000017"><a xlink:title=" ">
<path fill="none" stroke="#63b8ff" d="M434.24,-109.98C424.23,-102.07 409.11,-90.11 397.07,-80.58"/>
<polygon fill="#63b8ff" stroke="#63b8ff" points="398.97,-77.63 388.96,-74.17 394.63,-83.12 398.97,-77.63"/>
</a>
</g>
</g>
<!-- Node4 -->
<g id="Node000004" class="node">
<title>Node4</title>
<g id="a_Node000004"><a xlink:title=" ">
<polygon fill="#e0e0e0" stroke="#999999" points="809.5,-19 738.5,-19 738.5,0 809.5,0 809.5,-19"/>
<text text-anchor="middle" x="774" y="-7" font-family="Helvetica,sans-Serif" font-size="10.00">arm_acle.h</text>
</a>
</g>
</g>
<!-- Node3&#45;&gt;Node4 -->
<g id="edge3_Node000003_Node000004" class="edge">
<title>Node3&#45;&gt;Node4</title>
<g id="a_edge3_Node000003_Node000004"><a xlink:title=" ">
<path fill="none" stroke="#63b8ff" d="M799.05,-54.75C794.94,-47.49 788.97,-36.95 783.9,-27.98"/>
<polygon fill="#63b8ff" stroke="#63b8ff" points="786.83,-26.07 778.86,-19.09 780.74,-29.52 786.83,-26.07"/>
</a>
</g>
</g>
<!-- Node3&#45;&gt;Node5 -->
<g id="edge4_Node000003_Node000005" class="edge">
<title>Node3&#45;&gt;Node5</title>
<g id="a_edge4_Node000003_Node000005"><a xlink:title=" ">
<path fill="none" stroke="#63b8ff" d="M812.26,-54.75C819.46,-47.11 830.11,-35.82 838.85,-26.56"/>
<polygon fill="#63b8ff" stroke="#63b8ff" points="841.58,-28.76 845.9,-19.09 836.49,-23.96 841.58,-28.76"/>
</a>
</g>
</g>
<!-- Node3&#45;&gt;Node6 -->
<g id="edge5_Node000003_Node000006" class="edge">
<title>Node3&#45;&gt;Node6</title>
<g id="a_edge5_Node000003_Node000006"><a xlink:title=" ">
<path fill="none" stroke="#63b8ff" d="M786.49,-54.98C769.03,-46.5 741.99,-33.35 721.83,-23.54"/>
<polygon fill="#63b8ff" stroke="#63b8ff" points="723.36,-20.4 712.83,-19.17 720.29,-26.69 723.36,-20.4"/>
</a>
</g>
</g>
<!-- Node3&#45;&gt;Node7 -->
<g id="edge6_Node000003_Node000007" class="edge">
<title>Node3&#45;&gt;Node7</title>
<g id="a_edge6_Node000003_Node000007"><a xlink:title=" ">
<path fill="none" stroke="#63b8ff" d="M822.32,-54.98C840.66,-46.46 869.11,-33.23 890.23,-23.41"/>
<polygon fill="#63b8ff" stroke="#63b8ff" points="891.76,-26.56 899.35,-19.17 888.81,-20.21 891.76,-26.56"/>
</a>
</g>
</g>
<!-- Node8&#45;&gt;Node6 -->
<g id="edge8_Node000008_Node000006" class="edge">
<title>Node8&#45;&gt;Node6</title>
<g id="a_edge8_Node000008_Node000006"><a xlink:title=" ">
<path fill="none" stroke="#63b8ff" d="M540.56,-54.98C573.2,-45.58 625.69,-30.46 660.27,-20.51"/>
<polygon fill="#63b8ff" stroke="#63b8ff" points="661.3,-23.85 669.94,-17.72 659.37,-17.12 661.3,-23.85"/>
</a>
</g>
</g>
<!-- Node9 -->
<g id="Node000009" class="node">
<title>Node9</title>
<g id="a_Node000009"><a xlink:title=" ">
<polygon fill="#e0e0e0" stroke="#999999" points="481,-19 431,-19 431,0 481,0 481,-19"/>
<text text-anchor="middle" x="456" y="-7" font-family="Helvetica,sans-Serif" font-size="10.00">stdio.h</text>
</a>
</g>
</g>
<!-- Node8&#45;&gt;Node9 -->
<g id="edge9_Node000008_Node000009" class="edge">
<title>Node8&#45;&gt;Node9</title>
<g id="a_edge9_Node000008_Node000009"><a xlink:title=" ">
<path fill="none" stroke="#63b8ff" d="M501.92,-54.75C493.91,-47.03 482.04,-35.6 472.38,-26.28"/>
<polygon fill="#63b8ff" stroke="#63b8ff" points="474.54,-23.51 464.91,-19.09 469.69,-28.55 474.54,-23.51"/>
</a>
</g>
</g>
<!-- Node10 -->
<g id="Node000010" class="node">
<title>Node10</title>
<g id="a_Node000010"><a xlink:title=" ">
<polygon fill="#e0e0e0" stroke="#999999" points="552.5,-19 499.5,-19 499.5,0 552.5,0 552.5,-19"/>
<text text-anchor="middle" x="526" y="-7" font-family="Helvetica,sans-Serif" font-size="10.00">stdlib.h</text>
</a>
</g>
</g>
<!-- Node8&#45;&gt;Node10 -->
<g id="edge10_Node000008_Node000010" class="edge">
<title>Node8&#45;&gt;Node10</title>
<g id="a_edge10_Node000008_Node000010"><a xlink:title=" ">
<path fill="none" stroke="#63b8ff" d="M513.48,-54.75C515.46,-47.72 518.32,-37.62 520.81,-28.84"/>
<polygon fill="#63b8ff" stroke="#63b8ff" points="524.21,-29.66 523.57,-19.09 517.48,-27.76 524.21,-29.66"/>
</a>
</g>
</g>
<!-- Node11 -->
<g id="Node000011" class="node">
<title>Node11</title>
<g id="a_Node000011"><a xlink:title=" ">
<polygon fill="#e0e0e0" stroke="#999999" points="623.5,-19 570.5,-19 570.5,0 623.5,0 623.5,-19"/>
<text text-anchor="middle" x="597" y="-7" font-family="Helvetica,sans-Serif" font-size="10.00">string.h</text>
</a>
</g>
</g>
<!-- Node8&#45;&gt;Node11 -->
<g id="edge11_Node000008_Node000011" class="edge">
<title>Node8&#45;&gt;Node11</title>
<g id="a_edge11_Node000008_Node000011"><a xlink:title=" ">
<path fill="none" stroke="#63b8ff" d="M524.82,-54.98C538.15,-46.77 558.58,-34.18 574.31,-24.49"/>
<polygon fill="#63b8ff" stroke="#63b8ff" points="576.25,-27.4 582.93,-19.17 572.58,-21.44 576.25,-27.4"/>
</a>
</g>
</g>
<!-- Node12 -->
<g id="Node000012" class="node">
<title>Node12</title>
<g id="a_Node000012"><a xlink:title=" ">
<polygon fill="#e0e0e0" stroke="#999999" points="412.5,-19 353.5,-19 353.5,0 412.5,0 412.5,-19"/>
<text text-anchor="middle" x="383" y="-7" font-family="Helvetica,sans-Serif" font-size="10.00">correct.h</text>
</a>
</g>
</g>
<!-- Node8&#45;&gt;Node12 -->
<g id="edge12_Node000008_Node000012" class="edge">
<title>Node8&#45;&gt;Node12</title>
<g id="a_edge12_Node000008_Node000012"><a xlink:title=" ">
<path fill="none" stroke="#63b8ff" d="M490.43,-54.98C469.57,-46.34 437.03,-32.87 413.23,-23.02"/>
<polygon fill="#63b8ff" stroke="#63b8ff" points="414.52,-19.76 403.94,-19.17 411.84,-26.23 414.52,-19.76"/>
</a>
</g>
</g>
</g>
</svg>
