<?xml version="1.0" encoding="UTF-8" standalone="no"?>
<!DOCTYPE svg PUBLIC "-//W3C//DTD SVG 1.1//EN"
 "http://www.w3.org/Graphics/SVG/1.1/DTD/svg11.dtd">
<!-- Generated by graphviz version 2.43.0 (0)
 -->
<!-- Title: DataRate_t Pages: 1 -->
<svg width="262pt" height="93pt"
 viewBox="0.00 0.00 262.00 93.00" xmlns="http://www.w3.org/2000/svg" xmlns:xlink="http://www.w3.org/1999/xlink">
<g id="graph0" class="graph" transform="scale(1 1) rotate(0) translate(4 89)">
<title>DataRate_t</title>
<!-- Node1 -->
<g id="Node000001" class="node">
<title>Node1</title>
<g id="a_Node000001"><a xlink:title="Common data rate structure.">
<polygon fill="#999999" stroke="#666666" points="158.5,-19 87.5,-19 87.5,0 158.5,0 158.5,-19"/>
<text text-anchor="middle" x="123" y="-7" font-family="Helvetica,sans-Serif" font-size="10.00">DataRate_t</text>
</a>
</g>
</g>
<!-- Node2 -->
<g id="Node000002" class="node">
<title>Node2</title>
<g id="a_Node000002"><a xlink:href="structLoRaRate__t.html" target="_top" xlink:title="Data rate structure interpretation in case LoRa is used.">
<polygon fill="white" stroke="#666666" points="72,-85 0,-85 0,-66 72,-66 72,-85"/>
<text text-anchor="middle" x="36" y="-73" font-family="Helvetica,sans-Serif" font-size="10.00">LoRaRate_t</text>
</a>
</g>
</g>
<!-- Node2&#45;&gt;Node1 -->
<g id="edge1_Node000001_Node000002" class="edge">
<title>Node2&#45;&gt;Node1</title>
<g id="a_edge1_Node000001_Node000002"><a xlink:title=" ">
<path fill="none" stroke="#9a32cd" stroke-dasharray="5,2" d="M55.94,-59.83C73,-47.28 96.99,-29.63 111.17,-19.2"/>
<polygon fill="#9a32cd" stroke="#9a32cd" points="53.71,-57.12 47.73,-65.87 57.86,-62.76 53.71,-57.12"/>
</a>
</g>
<text text-anchor="middle" x="96" y="-40" font-family="Helvetica,sans-Serif" font-size="10.00" fill="grey"> lora</text>
</g>
<!-- Node3 -->
<g id="Node000003" class="node">
<title>Node3</title>
<g id="a_Node000003"><a xlink:href="structFSKRate__t.html" target="_top" xlink:title="Data rate structure interpretation in case FSK is used.">
<polygon fill="white" stroke="#666666" points="156,-85 90,-85 90,-66 156,-66 156,-85"/>
<text text-anchor="middle" x="123" y="-73" font-family="Helvetica,sans-Serif" font-size="10.00">FSKRate_t</text>
</a>
</g>
</g>
<!-- Node3&#45;&gt;Node1 -->
<g id="edge2_Node000001_Node000003" class="edge">
<title>Node3&#45;&gt;Node1</title>
<g id="a_edge2_Node000001_Node000003"><a xlink:title=" ">
<path fill="none" stroke="#9a32cd" stroke-dasharray="5,2" d="M123,-55.58C123,-43.63 123,-28.72 123,-19.41"/>
<polygon fill="#9a32cd" stroke="#9a32cd" points="119.5,-55.87 123,-65.87 126.5,-55.87 119.5,-55.87"/>
</a>
</g>
<text text-anchor="middle" x="132.5" y="-40" font-family="Helvetica,sans-Serif" font-size="10.00" fill="grey"> fsk</text>
</g>
<!-- Node4 -->
<g id="Node000004" class="node">
<title>Node4</title>
<g id="a_Node000004"><a xlink:href="structLrFhssRate__t.html" target="_top" xlink:title="Data rate structure interpretation in case LR&#45;FHSS is used.">
<polygon fill="white" stroke="#666666" points="254,-85 174,-85 174,-66 254,-66 254,-85"/>
<text text-anchor="middle" x="214" y="-73" font-family="Helvetica,sans-Serif" font-size="10.00">LrFhssRate_t</text>
</a>
</g>
</g>
<!-- Node4&#45;&gt;Node1 -->
<g id="edge3_Node000001_Node000004" class="edge">
<title>Node4&#45;&gt;Node1</title>
<g id="a_edge3_Node000001_Node000004"><a xlink:title=" ">
<path fill="none" stroke="#9a32cd" stroke-dasharray="5,2" d="M193.15,-59.83C175.3,-47.28 150.2,-29.63 135.37,-19.2"/>
<polygon fill="#9a32cd" stroke="#9a32cd" points="191.53,-62.98 201.73,-65.87 195.56,-57.25 191.53,-62.98"/>
</a>
</g>
<text text-anchor="middle" x="189.5" y="-40" font-family="Helvetica,sans-Serif" font-size="10.00" fill="grey"> lrFhss</text>
</g>
</g>
</svg>
