<?xml version="1.0" encoding="UTF-8" standalone="no"?>
<!DOCTYPE svg PUBLIC "-//W3C//DTD SVG 1.1//EN"
 "http://www.w3.org/Graphics/SVG/1.1/DTD/svg11.dtd">
<!-- Generated by graphviz version 2.43.0 (0)
 -->
<!-- Title: PacketConfig_t Pages: 1 -->
<svg width="382pt" height="93pt"
 viewBox="0.00 0.00 381.50 93.00" xmlns="http://www.w3.org/2000/svg" xmlns:xlink="http://www.w3.org/1999/xlink">
<g id="graph0" class="graph" transform="scale(1 1) rotate(0) translate(4 89)">
<title>PacketConfig_t</title>
<!-- Node1 -->
<g id="Node000001" class="node">
<title>Node1</title>
<g id="a_Node000001"><a xlink:title="Common packet configuration structure.">
<polygon fill="#999999" stroke="#666666" points="227,-19 139,-19 139,0 227,0 227,-19"/>
<text text-anchor="middle" x="183" y="-7" font-family="Helvetica,sans-Serif" font-size="10.00">PacketConfig_t</text>
</a>
</g>
</g>
<!-- Node2 -->
<g id="Node000002" class="node">
<title>Node2</title>
<g id="a_Node000002"><a xlink:href="structLoRaPacketConfig__t.html" target="_top" xlink:title=" ">
<polygon fill="white" stroke="#666666" points="112,-85 0,-85 0,-66 112,-66 112,-85"/>
<text text-anchor="middle" x="56" y="-73" font-family="Helvetica,sans-Serif" font-size="10.00">LoRaPacketConfig_t</text>
</a>
</g>
</g>
<!-- Node2&#45;&gt;Node1 -->
<g id="edge1_Node000001_Node000002" class="edge">
<title>Node2&#45;&gt;Node1</title>
<g id="a_edge1_Node000001_Node000002"><a xlink:title=" ">
<path fill="none" stroke="#9a32cd" stroke-dasharray="5,2" d="M82.07,-61.36C107.1,-48.75 144.18,-30.06 165.74,-19.2"/>
<polygon fill="#9a32cd" stroke="#9a32cd" points="80.48,-58.24 73.13,-65.87 83.63,-64.49 80.48,-58.24"/>
</a>
</g>
<text text-anchor="middle" x="139" y="-40" font-family="Helvetica,sans-Serif" font-size="10.00" fill="grey"> lora</text>
</g>
<!-- Node3 -->
<g id="Node000003" class="node">
<title>Node3</title>
<g id="a_Node000003"><a xlink:href="structFSKPacketConfig__t.html" target="_top" xlink:title=" ">
<polygon fill="white" stroke="#666666" points="236,-85 130,-85 130,-66 236,-66 236,-85"/>
<text text-anchor="middle" x="183" y="-73" font-family="Helvetica,sans-Serif" font-size="10.00">FSKPacketConfig_t</text>
</a>
</g>
</g>
<!-- Node3&#45;&gt;Node1 -->
<g id="edge2_Node000001_Node000003" class="edge">
<title>Node3&#45;&gt;Node1</title>
<g id="a_edge2_Node000001_Node000003"><a xlink:title=" ">
<path fill="none" stroke="#9a32cd" stroke-dasharray="5,2" d="M183,-55.58C183,-43.63 183,-28.72 183,-19.41"/>
<polygon fill="#9a32cd" stroke="#9a32cd" points="179.5,-55.87 183,-65.87 186.5,-55.87 179.5,-55.87"/>
</a>
</g>
<text text-anchor="middle" x="192.5" y="-40" font-family="Helvetica,sans-Serif" font-size="10.00" fill="grey"> fsk</text>
</g>
<!-- Node4 -->
<g id="Node000004" class="node">
<title>Node4</title>
<g id="a_Node000004"><a xlink:href="structLrFhssPacketConfig__t.html" target="_top" xlink:title=" ">
<polygon fill="white" stroke="#666666" points="373.5,-85 254.5,-85 254.5,-66 373.5,-66 373.5,-85"/>
<text text-anchor="middle" x="314" y="-73" font-family="Helvetica,sans-Serif" font-size="10.00">LrFhssPacketConfig_t</text>
</a>
</g>
</g>
<!-- Node4&#45;&gt;Node1 -->
<g id="edge3_Node000001_Node000004" class="edge">
<title>Node4&#45;&gt;Node1</title>
<g id="a_edge3_Node000001_Node000004"><a xlink:title=" ">
<path fill="none" stroke="#9a32cd" stroke-dasharray="5,2" d="M287.11,-61.36C261.3,-48.75 223.04,-30.06 200.81,-19.2"/>
<polygon fill="#9a32cd" stroke="#9a32cd" points="285.81,-64.62 296.33,-65.87 288.88,-58.33 285.81,-64.62"/>
</a>
</g>
<text text-anchor="middle" x="272.5" y="-40" font-family="Helvetica,sans-Serif" font-size="10.00" fill="grey"> lrFhss</text>
</g>
</g>
</svg>
