<?xml version="1.0" encoding="UTF-8" standalone="no"?>
<!DOCTYPE svg PUBLIC "-//W3C//DTD SVG 1.1//EN"
 "http://www.w3.org/Graphics/SVG/1.1/DTD/svg11.dtd">
<!-- Generated by graphviz version 2.43.0 (0)
 -->
<!-- Title: ChannelScanConfig_t Pages: 1 -->
<svg width="228pt" height="93pt"
 viewBox="0.00 0.00 228.00 93.00" xmlns="http://www.w3.org/2000/svg" xmlns:xlink="http://www.w3.org/1999/xlink">
<g id="graph0" class="graph" transform="scale(1 1) rotate(0) translate(4 89)">
<title>ChannelScanConfig_t</title>
<!-- Node1 -->
<g id="Node000001" class="node">
<title>Node1</title>
<g id="a_Node000001"><a xlink:title="Common channel scan configuration structure.">
<polygon fill="#999999" stroke="#666666" points="169,-19 50,-19 50,0 169,0 169,-19"/>
<text text-anchor="middle" x="109.5" y="-7" font-family="Helvetica,sans-Serif" font-size="10.00">ChannelScanConfig_t</text>
</a>
</g>
</g>
<!-- Node2 -->
<g id="Node000002" class="node">
<title>Node2</title>
<g id="a_Node000002"><a xlink:href="structCADScanConfig__t.html" target="_top" xlink:title="Channel scan configuration interpretation in case LoRa CAD is used.">
<polygon fill="white" stroke="#666666" points="101,-85 0,-85 0,-66 101,-66 101,-85"/>
<text text-anchor="middle" x="50.5" y="-73" font-family="Helvetica,sans-Serif" font-size="10.00">CADScanConfig_t</text>
</a>
</g>
</g>
<!-- Node2&#45;&gt;Node1 -->
<g id="edge1_Node000001_Node000002" class="edge">
<title>Node2&#45;&gt;Node1</title>
<g id="a_edge1_Node000001_Node000002"><a xlink:title=" ">
<path fill="none" stroke="#9a32cd" stroke-dasharray="5,2" d="M65.27,-58.48C76.66,-46.12 91.99,-29.49 101.29,-19.41"/>
<polygon fill="#9a32cd" stroke="#9a32cd" points="62.66,-56.14 58.46,-65.87 67.81,-60.89 62.66,-56.14"/>
</a>
</g>
<text text-anchor="middle" x="95" y="-40" font-family="Helvetica,sans-Serif" font-size="10.00" fill="grey"> cad</text>
</g>
<!-- Node3 -->
<g id="Node000003" class="node">
<title>Node3</title>
<g id="a_Node000003"><a xlink:href="structRSSIScanConfig__t.html" target="_top" xlink:title="Channel scan configuration interpretation in case RSSI threshold is used.">
<polygon fill="white" stroke="#666666" points="220,-85 119,-85 119,-66 220,-66 220,-85"/>
<text text-anchor="middle" x="169.5" y="-73" font-family="Helvetica,sans-Serif" font-size="10.00">RSSIScanConfig_t</text>
</a>
</g>
</g>
<!-- Node3&#45;&gt;Node1 -->
<g id="edge2_Node000001_Node000003" class="edge">
<title>Node3&#45;&gt;Node1</title>
<g id="a_edge2_Node000001_Node000003"><a xlink:title=" ">
<path fill="none" stroke="#9a32cd" stroke-dasharray="5,2" d="M154.48,-58.48C142.9,-46.12 127.3,-29.49 117.85,-19.41"/>
<polygon fill="#9a32cd" stroke="#9a32cd" points="152.02,-60.97 161.41,-65.87 157.12,-56.18 152.02,-60.97"/>
</a>
</g>
<text text-anchor="middle" x="153" y="-40" font-family="Helvetica,sans-Serif" font-size="10.00" fill="grey"> rssi</text>
</g>
</g>
</svg>
