<?xml version="1.0" encoding="UTF-8" standalone="no"?>
<!DOCTYPE svg PUBLIC "-//W3C//DTD SVG 1.1//EN"
 "http://www.w3.org/Graphics/SVG/1.1/DTD/svg11.dtd">
<!-- Generated by graphviz version 2.43.0 (0)
 -->
<!-- Title: RadioModeConfig_t Pages: 1 -->
<svg width="573pt" height="159pt"
 viewBox="0.00 0.00 572.50 159.00" xmlns="http://www.w3.org/2000/svg" xmlns:xlink="http://www.w3.org/1999/xlink">
<g id="graph0" class="graph" transform="scale(1 1) rotate(0) translate(4 155)">
<title>RadioModeConfig_t</title>
<!-- Node1 -->
<g id="Node000001" class="node">
<title>Node1</title>
<g id="a_Node000001"><a xlink:title=" ">
<polygon fill="#999999" stroke="#666666" points="332.5,-19 221.5,-19 221.5,0 332.5,0 332.5,-19"/>
<text text-anchor="middle" x="277" y="-7" font-family="Helvetica,sans-Serif" font-size="10.00">RadioModeConfig_t</text>
</a>
</g>
</g>
<!-- Node2 -->
<g id="Node000002" class="node">
<title>Node2</title>
<g id="a_Node000002"><a xlink:href="structStandbyConfig__t.html" target="_top" xlink:title=" ">
<polygon fill="white" stroke="#666666" points="96,-85 0,-85 0,-66 96,-66 96,-85"/>
<text text-anchor="middle" x="48" y="-73" font-family="Helvetica,sans-Serif" font-size="10.00">StandbyConfig_t</text>
</a>
</g>
</g>
<!-- Node2&#45;&gt;Node1 -->
<g id="edge1_Node000001_Node000002" class="edge">
<title>Node2&#45;&gt;Node1</title>
<g id="a_edge1_Node000001_Node000002"><a xlink:title=" ">
<path fill="none" stroke="#9a32cd" stroke-dasharray="5,2" d="M82.65,-62.75C106.06,-55 137.73,-44.86 166,-37 189.86,-30.37 216.89,-23.9 238.29,-19.01"/>
<polygon fill="#9a32cd" stroke="#9a32cd" points="81.54,-59.43 73.16,-65.91 83.75,-66.07 81.54,-59.43"/>
</a>
</g>
<text text-anchor="middle" x="187.5" y="-40" font-family="Helvetica,sans-Serif" font-size="10.00" fill="grey"> standby</text>
</g>
<!-- Node3 -->
<g id="Node000003" class="node">
<title>Node3</title>
<g id="a_Node000003"><a xlink:href="structReceiveConfig__t.html" target="_top" xlink:title=" ">
<polygon fill="white" stroke="#666666" points="209.5,-85 114.5,-85 114.5,-66 209.5,-66 209.5,-85"/>
<text text-anchor="middle" x="162" y="-73" font-family="Helvetica,sans-Serif" font-size="10.00">ReceiveConfig_t</text>
</a>
</g>
</g>
<!-- Node3&#45;&gt;Node1 -->
<g id="edge2_Node000001_Node000003" class="edge">
<title>Node3&#45;&gt;Node1</title>
<g id="a_edge2_Node000001_Node000003"><a xlink:title=" ">
<path fill="none" stroke="#9a32cd" stroke-dasharray="5,2" d="M186.51,-60.86C209.15,-48.26 242.11,-29.92 261.37,-19.2"/>
<polygon fill="#9a32cd" stroke="#9a32cd" points="184.55,-57.95 177.51,-65.87 187.95,-64.06 184.55,-57.95"/>
</a>
</g>
<text text-anchor="middle" x="247" y="-40" font-family="Helvetica,sans-Serif" font-size="10.00" fill="grey"> receive</text>
</g>
<!-- Node4 -->
<g id="Node000004" class="node">
<title>Node4</title>
<g id="a_Node000004"><a xlink:href="structTransmitConfig__t.html" target="_top" xlink:title=" ">
<polygon fill="white" stroke="#666666" points="326,-85 228,-85 228,-66 326,-66 326,-85"/>
<text text-anchor="middle" x="277" y="-73" font-family="Helvetica,sans-Serif" font-size="10.00">TransmitConfig_t</text>
</a>
</g>
</g>
<!-- Node4&#45;&gt;Node1 -->
<g id="edge3_Node000001_Node000004" class="edge">
<title>Node4&#45;&gt;Node1</title>
<g id="a_edge3_Node000001_Node000004"><a xlink:title=" ">
<path fill="none" stroke="#9a32cd" stroke-dasharray="5,2" d="M277,-55.58C277,-43.63 277,-28.72 277,-19.41"/>
<polygon fill="#9a32cd" stroke="#9a32cd" points="273.5,-55.87 277,-65.87 280.5,-55.87 273.5,-55.87"/>
</a>
</g>
<text text-anchor="middle" x="299.5" y="-40" font-family="Helvetica,sans-Serif" font-size="10.00" fill="grey"> transmit</text>
</g>
<!-- Node5 -->
<g id="Node000005" class="node">
<title>Node5</title>
<g id="a_Node000005"><a xlink:href="unionChannelScanConfig__t.html" target="_top" xlink:title="Common channel scan configuration structure.">
<polygon fill="white" stroke="#666666" points="463.5,-85 344.5,-85 344.5,-66 463.5,-66 463.5,-85"/>
<text text-anchor="middle" x="404" y="-73" font-family="Helvetica,sans-Serif" font-size="10.00">ChannelScanConfig_t</text>
</a>
</g>
</g>
<!-- Node5&#45;&gt;Node1 -->
<g id="edge4_Node000001_Node000005" class="edge">
<title>Node5&#45;&gt;Node1</title>
<g id="a_edge4_Node000001_Node000005"><a xlink:title=" ">
<path fill="none" stroke="#9a32cd" stroke-dasharray="5,2" d="M377.93,-61.36C352.9,-48.75 315.82,-30.06 294.26,-19.2"/>
<polygon fill="#9a32cd" stroke="#9a32cd" points="376.37,-64.49 386.87,-65.87 379.52,-58.24 376.37,-64.49"/>
</a>
</g>
<text text-anchor="middle" x="361" y="-40" font-family="Helvetica,sans-Serif" font-size="10.00" fill="grey"> scan</text>
</g>
<!-- Node6 -->
<g id="Node000006" class="node">
<title>Node6</title>
<g id="a_Node000006"><a xlink:href="structCADScanConfig__t.html" target="_top" xlink:title="Channel scan configuration interpretation in case LoRa CAD is used.">
<polygon fill="white" stroke="#666666" points="394.5,-151 293.5,-151 293.5,-132 394.5,-132 394.5,-151"/>
<text text-anchor="middle" x="344" y="-139" font-family="Helvetica,sans-Serif" font-size="10.00">CADScanConfig_t</text>
</a>
</g>
</g>
<!-- Node6&#45;&gt;Node5 -->
<g id="edge5_Node000005_Node000006" class="edge">
<title>Node6&#45;&gt;Node5</title>
<g id="a_edge5_Node000005_Node000006"><a xlink:title=" ">
<path fill="none" stroke="#9a32cd" stroke-dasharray="5,2" d="M359.02,-124.48C370.6,-112.12 386.2,-95.49 395.65,-85.41"/>
<polygon fill="#9a32cd" stroke="#9a32cd" points="356.38,-122.18 352.09,-131.87 361.48,-126.97 356.38,-122.18"/>
</a>
</g>
<text text-anchor="middle" x="387.5" y="-106" font-family="Helvetica,sans-Serif" font-size="10.00" fill="grey"> cad</text>
</g>
<!-- Node7 -->
<g id="Node000007" class="node">
<title>Node7</title>
<g id="a_Node000007"><a xlink:href="structRSSIScanConfig__t.html" target="_top" xlink:title="Channel scan configuration interpretation in case RSSI threshold is used.">
<polygon fill="white" stroke="#666666" points="513.5,-151 412.5,-151 412.5,-132 513.5,-132 513.5,-151"/>
<text text-anchor="middle" x="463" y="-139" font-family="Helvetica,sans-Serif" font-size="10.00">RSSIScanConfig_t</text>
</a>
</g>
</g>
<!-- Node7&#45;&gt;Node5 -->
<g id="edge6_Node000005_Node000007" class="edge">
<title>Node7&#45;&gt;Node5</title>
<g id="a_edge6_Node000005_Node000007"><a xlink:title=" ">
<path fill="none" stroke="#9a32cd" stroke-dasharray="5,2" d="M448.23,-124.48C436.84,-112.12 421.51,-95.49 412.21,-85.41"/>
<polygon fill="#9a32cd" stroke="#9a32cd" points="445.69,-126.89 455.04,-131.87 450.84,-122.14 445.69,-126.89"/>
</a>
</g>
<text text-anchor="middle" x="447.5" y="-106" font-family="Helvetica,sans-Serif" font-size="10.00" fill="grey"> rssi</text>
</g>
<!-- Node8 -->
<g id="Node000008" class="node">
<title>Node8</title>
<g id="a_Node000008"><a xlink:href="structSleepConfig__t.html" target="_top" xlink:title=" ">
<polygon fill="white" stroke="#666666" points="564.5,-85 481.5,-85 481.5,-66 564.5,-66 564.5,-85"/>
<text text-anchor="middle" x="523" y="-73" font-family="Helvetica,sans-Serif" font-size="10.00">SleepConfig_t</text>
</a>
</g>
</g>
<!-- Node8&#45;&gt;Node1 -->
<g id="edge7_Node000001_Node000008" class="edge">
<title>Node8&#45;&gt;Node1</title>
<g id="a_edge7_Node000001_Node000008"><a xlink:title=" ">
<path fill="none" stroke="#9a32cd" stroke-dasharray="5,2" d="M480.2,-63.36C431.67,-50.74 353.63,-30.44 309.73,-19.01"/>
<polygon fill="#9a32cd" stroke="#9a32cd" points="479.52,-66.8 490.08,-65.94 481.28,-60.03 479.52,-66.8"/>
</a>
</g>
<text text-anchor="middle" x="429" y="-40" font-family="Helvetica,sans-Serif" font-size="10.00" fill="grey"> sleep</text>
</g>
</g>
</svg>
