<?xml version="1.0" encoding="UTF-8" standalone="no"?>
<!DOCTYPE svg PUBLIC "-//W3C//DTD SVG 1.1//EN"
 "http://www.w3.org/Graphics/SVG/1.1/DTD/svg11.dtd">
<!-- Generated by graphviz version 2.43.0 (0)
 -->
<!-- Title: /usr/include/GraphicsMagick/wand/wand_symbols.h Pages: 1 -->
<svg width="409pt" height="357pt"
 viewBox="0.00 0.00 408.53 357.00" xmlns="http://www.w3.org/2000/svg" xmlns:xlink="http://www.w3.org/1999/xlink">
<g id="graph0" class="graph" transform="scale(1 1) rotate(0) translate(4 353)">
<title>/usr/include/GraphicsMagick/wand/wand_symbols.h</title>
<!-- Node1 -->
<g id="Node000001" class="node">
<title>Node1</title>
<g id="a_Node000001"><a xlink:title=" ">
<polygon fill="#999999" stroke="#666666" points="333,-349 179,-349 179,-319 333,-319 333,-349"/>
<text text-anchor="start" x="187" y="-337" font-family="Helvetica,sans-Serif" font-size="10.00">/usr/include/GraphicsMagick</text>
<text text-anchor="middle" x="256" y="-326" font-family="Helvetica,sans-Serif" font-size="10.00">/wand/wand_symbols.h</text>
</a>
</g>
</g>
<!-- Node2 -->
<g id="Node000002" class="node">
<title>Node2</title>
<g id="a_Node000002"><a xlink:href="drawing__wand_8h.html" target="_top" xlink:title=" ">
<polygon fill="white" stroke="#666666" points="386,-217 232,-217 232,-187 386,-187 386,-217"/>
<text text-anchor="start" x="240" y="-205" font-family="Helvetica,sans-Serif" font-size="10.00">/usr/include/GraphicsMagick</text>
<text text-anchor="middle" x="309" y="-194" font-family="Helvetica,sans-Serif" font-size="10.00">/wand/drawing_wand.h</text>
</a>
</g>
</g>
<!-- Node1&#45;&gt;Node2 -->
<g id="edge1_Node000001_Node000002" class="edge">
<title>Node1&#45;&gt;Node2</title>
<g id="a_edge1_Node000001_Node000002"><a xlink:title=" ">
<path fill="none" stroke="#63b8ff" d="M273.61,-310.86C279.54,-302.52 285.73,-292.7 290,-283 299.67,-261.06 304.83,-233.46 307.24,-217.08"/>
<polygon fill="#63b8ff" stroke="#63b8ff" points="270.75,-308.83 267.61,-318.95 276.38,-313 270.75,-308.83"/>
</a>
</g>
</g>
<!-- Node3 -->
<g id="Node000003" class="node">
<title>Node3</title>
<g id="a_Node000003"><a xlink:href="magick__wand_8h.html" target="_top" xlink:title=" ">
<polygon fill="white" stroke="#666666" points="176,-151 22,-151 22,-121 176,-121 176,-151"/>
<text text-anchor="start" x="30" y="-139" font-family="Helvetica,sans-Serif" font-size="10.00">/usr/include/GraphicsMagick</text>
<text text-anchor="middle" x="99" y="-128" font-family="Helvetica,sans-Serif" font-size="10.00">/wand/magick_wand.h</text>
</a>
</g>
</g>
<!-- Node1&#45;&gt;Node3 -->
<g id="edge8_Node000001_Node000003" class="edge">
<title>Node1&#45;&gt;Node3</title>
<g id="a_edge8_Node000001_Node000003"><a xlink:title=" ">
<path fill="none" stroke="#63b8ff" d="M169.27,-317.59C149.77,-310.19 131.02,-299.22 118,-283 86.8,-244.13 92.11,-179.76 96.41,-151.3"/>
<polygon fill="#63b8ff" stroke="#63b8ff" points="168.29,-320.96 178.89,-320.95 170.6,-314.35 168.29,-320.96"/>
</a>
</g>
</g>
<!-- Node4 -->
<g id="Node000004" class="node">
<title>Node4</title>
<g id="a_Node000004"><a xlink:href="wand__api_8h.html" target="_top" xlink:title=" ">
<polygon fill="white" stroke="#666666" points="340,-85 186,-85 186,-55 340,-55 340,-85"/>
<text text-anchor="start" x="194" y="-73" font-family="Helvetica,sans-Serif" font-size="10.00">/usr/include/GraphicsMagick</text>
<text text-anchor="middle" x="263" y="-62" font-family="Helvetica,sans-Serif" font-size="10.00">/wand/wand_api.h</text>
</a>
</g>
</g>
<!-- Node1&#45;&gt;Node4 -->
<g id="edge13_Node000001_Node000004" class="edge">
<title>Node1&#45;&gt;Node4</title>
<g id="a_edge13_Node000001_Node000004"><a xlink:title=" ">
<path fill="none" stroke="#63b8ff" d="M293.94,-313.83C327.52,-294.51 374.3,-261.24 395,-217 421.87,-159.59 340.49,-108.72 293.63,-85.06"/>
<polygon fill="#63b8ff" stroke="#63b8ff" points="291.88,-310.97 284.85,-318.91 295.29,-317.09 291.88,-310.97"/>
</a>
</g>
</g>
<!-- Node7 -->
<g id="Node000007" class="node">
<title>Node7</title>
<g id="a_Node000007"><a xlink:href="pixel__wand_8h.html" target="_top" xlink:title=" ">
<polygon fill="white" stroke="#666666" points="281,-283 127,-283 127,-253 281,-253 281,-283"/>
<text text-anchor="start" x="135" y="-271" font-family="Helvetica,sans-Serif" font-size="10.00">/usr/include/GraphicsMagick</text>
<text text-anchor="middle" x="204" y="-260" font-family="Helvetica,sans-Serif" font-size="10.00">/wand/pixel_wand.h</text>
</a>
</g>
</g>
<!-- Node1&#45;&gt;Node7 -->
<g id="edge9_Node000001_Node000007" class="edge">
<title>Node1&#45;&gt;Node7</title>
<g id="a_edge9_Node000001_Node000007"><a xlink:title=" ">
<path fill="none" stroke="#63b8ff" d="M237.97,-310.81C230.52,-301.64 222.1,-291.28 215.51,-283.16"/>
<polygon fill="#63b8ff" stroke="#63b8ff" points="235.44,-313.24 244.46,-318.8 240.87,-308.83 235.44,-313.24"/>
</a>
</g>
</g>
<!-- Node2&#45;&gt;Node3 -->
<g id="edge2_Node000002_Node000003" class="edge">
<title>Node2&#45;&gt;Node3</title>
<g id="a_edge2_Node000002_Node000003"><a xlink:title=" ">
<path fill="none" stroke="#63b8ff" d="M253.18,-183.99C219.39,-173.69 176.82,-160.72 144.98,-151.01"/>
<polygon fill="#63b8ff" stroke="#63b8ff" points="252.33,-187.39 262.91,-186.95 254.37,-180.69 252.33,-187.39"/>
</a>
</g>
</g>
<!-- Node2&#45;&gt;Node4 -->
<g id="edge7_Node000002_Node000004" class="edge">
<title>Node2&#45;&gt;Node4</title>
<g id="a_edge7_Node000002_Node000004"><a xlink:title=" ">
<path fill="none" stroke="#63b8ff" d="M300.65,-177.39C291.12,-150.46 275.85,-107.31 268,-85.14"/>
<polygon fill="#63b8ff" stroke="#63b8ff" points="297.35,-178.58 303.99,-186.84 303.95,-176.25 297.35,-178.58"/>
</a>
</g>
</g>
<!-- Node3&#45;&gt;Node4 -->
<g id="edge3_Node000003_Node000004" class="edge">
<title>Node3&#45;&gt;Node4</title>
<g id="a_edge3_Node000003_Node000004"><a xlink:title=" ">
<path fill="none" stroke="#63b8ff" d="M144.64,-117.19C170.69,-107.02 202.87,-94.47 227.09,-85.01"/>
<polygon fill="#63b8ff" stroke="#63b8ff" points="143.03,-114.06 134.99,-120.95 145.58,-120.58 143.03,-114.06"/>
</a>
</g>
</g>
<!-- Node5 -->
<g id="Node000005" class="node">
<title>Node5</title>
<g id="a_Node000005"><a xlink:href="chronos_8hpp.html" target="_top" xlink:title=" ">
<polygon fill="white" stroke="#666666" points="114,-79.5 0,-79.5 0,-60.5 114,-60.5 114,-79.5"/>
<text text-anchor="middle" x="57" y="-67.5" font-family="Helvetica,sans-Serif" font-size="10.00">include/chronos.hpp</text>
</a>
</g>
</g>
<!-- Node3&#45;&gt;Node5 -->
<g id="edge4_Node000003_Node000005" class="edge">
<title>Node3&#45;&gt;Node5</title>
<g id="a_edge4_Node000003_Node000005"><a xlink:title=" ">
<path fill="none" stroke="#63b8ff" d="M84.09,-112.28C76.73,-101.07 68.28,-88.19 62.8,-79.84"/>
<polygon fill="#63b8ff" stroke="#63b8ff" points="81.27,-114.36 89.68,-120.8 87.12,-110.52 81.27,-114.36"/>
</a>
</g>
</g>
<!-- Node6 -->
<g id="Node000006" class="node">
<title>Node6</title>
<g id="a_Node000006"><a xlink:href="chronos_8cpp.html" target="_top" xlink:title=" ">
<polygon fill="white" stroke="#666666" points="145,-19 53,-19 53,0 145,0 145,-19"/>
<text text-anchor="middle" x="99" y="-7" font-family="Helvetica,sans-Serif" font-size="10.00">src/chronos.cpp</text>
</a>
</g>
</g>
<!-- Node3&#45;&gt;Node6 -->
<g id="edge6_Node000003_Node000006" class="edge">
<title>Node3&#45;&gt;Node6</title>
<g id="a_edge6_Node000003_Node000006"><a xlink:title=" ">
<path fill="none" stroke="#63b8ff" d="M112.78,-111.82C116.92,-103.64 120.91,-94.18 123,-85 125.96,-72 126.26,-67.93 123,-55 119.61,-41.55 111.26,-27.75 105.37,-19.16"/>
<polygon fill="#63b8ff" stroke="#63b8ff" points="109.63,-110.29 107.96,-120.76 115.79,-113.62 109.63,-110.29"/>
</a>
</g>
</g>
<!-- Node5&#45;&gt;Node6 -->
<g id="edge5_Node000005_Node000006" class="edge">
<title>Node5&#45;&gt;Node6</title>
<g id="a_edge5_Node000005_Node000006"><a xlink:title=" ">
<path fill="none" stroke="#63b8ff" d="M69.11,-52.13C76.85,-41.35 86.56,-27.82 92.78,-19.17"/>
<polygon fill="#63b8ff" stroke="#63b8ff" points="66.19,-50.2 63.2,-60.37 71.87,-54.29 66.19,-50.2"/>
</a>
</g>
</g>
<!-- Node7&#45;&gt;Node2 -->
<g id="edge10_Node000007_Node000002" class="edge">
<title>Node7&#45;&gt;Node2</title>
<g id="a_edge10_Node000007_Node000002"><a xlink:title=" ">
<path fill="none" stroke="#63b8ff" d="M235.67,-247.69C251.88,-237.82 271.25,-226.01 286.01,-217.01"/>
<polygon fill="#63b8ff" stroke="#63b8ff" points="233.76,-244.76 227.04,-252.95 237.4,-250.74 233.76,-244.76"/>
</a>
</g>
</g>
<!-- Node7&#45;&gt;Node3 -->
<g id="edge11_Node000007_Node000003" class="edge">
<title>Node7&#45;&gt;Node3</title>
<g id="a_edge11_Node000007_Node000003"><a xlink:title=" ">
<path fill="none" stroke="#63b8ff" d="M186.07,-244.8C164.42,-217.99 128.64,-173.7 110.42,-151.14"/>
<polygon fill="#63b8ff" stroke="#63b8ff" points="183.56,-247.26 192.56,-252.84 189,-242.86 183.56,-247.26"/>
</a>
</g>
</g>
<!-- Node7&#45;&gt;Node4 -->
<g id="edge12_Node000007_Node000004" class="edge">
<title>Node7&#45;&gt;Node4</title>
<g id="a_edge12_Node000007_Node000004"><a xlink:title=" ">
<path fill="none" stroke="#63b8ff" d="M209.13,-242.64C212.65,-226.7 217.63,-205.49 223,-187 233.81,-149.77 249.47,-106.84 257.62,-85.14"/>
<polygon fill="#63b8ff" stroke="#63b8ff" points="205.64,-242.21 206.94,-252.73 212.48,-243.69 205.64,-242.21"/>
</a>
</g>
</g>
</g>
</svg>
