<?xml version="1.0" encoding="UTF-8" standalone="no"?>
<!DOCTYPE svg PUBLIC "-//W3C//DTD SVG 1.1//EN"
 "http://www.w3.org/Graphics/SVG/1.1/DTD/svg11.dtd">
<!-- Generated by graphviz version 2.43.0 (0)
 -->
<!-- Title: vprint Pages: 1 -->
<svg width="706pt" height="250pt"
 viewBox="0.00 0.00 706.00 250.00" xmlns="http://www.w3.org/2000/svg" xmlns:xlink="http://www.w3.org/1999/xlink">
<g id="graph0" class="graph" transform="scale(1 1) rotate(0) translate(4 246)">
<title>vprint</title>
<!-- Node1 -->
<g id="Node000001" class="node">
<title>Node1</title>
<g id="a_Node000001"><a xlink:title=" ">
<polygon fill="#999999" stroke="#666666" points="45,-93 0,-93 0,-74 45,-74 45,-93"/>
<text text-anchor="middle" x="22.5" y="-81" font-family="Helvetica,sans-Serif" font-size="10.00">vprint</text>
</a>
</g>
</g>
<!-- Node2 -->
<g id="Node000002" class="node">
<title>Node2</title>
<g id="a_Node000002"><a xlink:href="classbasic__memory__buffer.html#a7a9300acfadb00a835b36a86a198f433" target="_top" xlink:title=" ">
<polygon fill="white" stroke="#666666" points="213.5,-178.5 85.5,-178.5 85.5,-148.5 213.5,-148.5 213.5,-178.5"/>
<text text-anchor="start" x="93.5" y="-166.5" font-family="Helvetica,sans-Serif" font-size="10.00">basic_memory_buffer</text>
<text text-anchor="middle" x="149.5" y="-155.5" font-family="Helvetica,sans-Serif" font-size="10.00">::basic_memory_buffer</text>
</a>
</g>
</g>
<!-- Node1&#45;&gt;Node2 -->
<g id="edge1_Node000001_Node000002" class="edge">
<title>Node1&#45;&gt;Node2</title>
<g id="a_edge1_Node000001_Node000002"><a xlink:title=" ">
<path fill="none" stroke="#63b8ff" d="M31.08,-93.11C41.25,-105.42 60.42,-126.68 81,-139.5 83.61,-141.12 86.34,-142.66 89.15,-144.1"/>
<polygon fill="#63b8ff" stroke="#63b8ff" points="87.79,-147.33 98.33,-148.43 90.77,-141 87.79,-147.33"/>
</a>
</g>
</g>
<!-- Node9 -->
<g id="Node000009" class="node">
<title>Node9</title>
<g id="a_Node000009"><a xlink:href="classdetail_1_1buffer.html#aeb33e0a2d2be2bbca9e0236c148089c8" target="_top" xlink:title="Returns a pointer to the buffer data (not null&#45;terminated).">
<polygon fill="white" stroke="#666666" points="203,-130 96,-130 96,-111 203,-111 203,-130"/>
<text text-anchor="middle" x="149.5" y="-118" font-family="Helvetica,sans-Serif" font-size="10.00">detail::buffer::data</text>
</a>
</g>
</g>
<!-- Node1&#45;&gt;Node9 -->
<g id="edge8_Node000001_Node000009" class="edge">
<title>Node1&#45;&gt;Node9</title>
<g id="a_edge8_Node000001_Node000009"><a xlink:title=" ">
<path fill="none" stroke="#63b8ff" d="M45.03,-90.4C55.8,-93.82 69.07,-97.95 81,-101.5 88.38,-103.69 96.24,-105.96 103.89,-108.14"/>
<polygon fill="#63b8ff" stroke="#63b8ff" points="103.18,-111.58 113.76,-110.93 105.09,-104.84 103.18,-111.58"/>
</a>
</g>
</g>
<!-- Node10 -->
<g id="Node000010" class="node">
<title>Node10</title>
<g id="a_Node000010"><a xlink:href="classdetail_1_1buffer.html#a49016d0c600f79917e00d9e3458c8c92" target="_top" xlink:title=" ">
<polygon fill="white" stroke="#666666" points="218,-93 81,-93 81,-74 218,-74 218,-93"/>
<text text-anchor="middle" x="149.5" y="-81" font-family="Helvetica,sans-Serif" font-size="10.00">detail::buffer::push_back</text>
</a>
</g>
</g>
<!-- Node1&#45;&gt;Node10 -->
<g id="edge9_Node000001_Node000010" class="edge">
<title>Node1&#45;&gt;Node10</title>
<g id="a_edge9_Node000001_Node000010"><a xlink:title=" ">
<path fill="none" stroke="#63b8ff" d="M45.27,-83.5C52.67,-83.5 61.42,-83.5 70.64,-83.5"/>
<polygon fill="#63b8ff" stroke="#63b8ff" points="70.79,-87 80.79,-83.5 70.79,-80 70.79,-87"/>
</a>
</g>
</g>
<!-- Node12 -->
<g id="Node000012" class="node">
<title>Node12</title>
<g id="a_Node000012"><a xlink:href="format_8h.html#a0558467fc6b6aa30ea74d60aafdf7821" target="_top" xlink:title=" ">
<polygon fill="white" stroke="#666666" points="190,-56 109,-56 109,-37 190,-37 190,-56"/>
<text text-anchor="middle" x="149.5" y="-44" font-family="Helvetica,sans-Serif" font-size="10.00">system_error</text>
</a>
</g>
</g>
<!-- Node1&#45;&gt;Node12 -->
<g id="edge11_Node000001_Node000012" class="edge">
<title>Node1&#45;&gt;Node12</title>
<g id="a_edge11_Node000001_Node000012"><a xlink:title=" ">
<path fill="none" stroke="#63b8ff" d="M45.25,-75.98C55.97,-72.36 69.11,-68.05 81,-64.5 87.56,-62.54 94.51,-60.57 101.35,-58.69"/>
<polygon fill="#63b8ff" stroke="#63b8ff" points="102.52,-62.01 111.25,-56.01 100.69,-55.25 102.52,-62.01"/>
</a>
</g>
</g>
<!-- Node13 -->
<g id="Node000013" class="node">
<title>Node13</title>
<g id="a_Node000013"><a xlink:href="namespacedetail.html#a41fb5bb9af5723fb3f88a9c454e27e87" target="_top" xlink:title=" ">
<polygon fill="white" stroke="#666666" points="201.5,-19 97.5,-19 97.5,0 201.5,0 201.5,-19"/>
<text text-anchor="middle" x="149.5" y="-7" font-family="Helvetica,sans-Serif" font-size="10.00">detail::vformat_to</text>
</a>
</g>
</g>
<!-- Node1&#45;&gt;Node13 -->
<g id="edge12_Node000001_Node000013" class="edge">
<title>Node1&#45;&gt;Node13</title>
<g id="a_edge12_Node000001_Node000013"><a xlink:title=" ">
<path fill="none" stroke="#63b8ff" d="M30.93,-73.63C40.93,-61.04 59.92,-39.47 81,-27.5 84.19,-25.69 87.58,-24.05 91.06,-22.57"/>
<polygon fill="#63b8ff" stroke="#63b8ff" points="92.33,-25.84 100.45,-19.03 89.86,-19.29 92.33,-25.84"/>
</a>
</g>
</g>
<!-- Node3 -->
<g id="Node000003" class="node">
<title>Node3</title>
<g id="a_Node000003"><a xlink:href="classbasic__memory__buffer.html#a97d9a0a0f9827c9277e2eea97fa0309b" target="_top" xlink:title=" ">
<polygon fill="white" stroke="#666666" points="376,-210.5 254,-210.5 254,-180.5 376,-180.5 376,-210.5"/>
<text text-anchor="start" x="262" y="-198.5" font-family="Helvetica,sans-Serif" font-size="10.00">basic_memory_buffer</text>
<text text-anchor="middle" x="315" y="-187.5" font-family="Helvetica,sans-Serif" font-size="10.00">::grow</text>
</a>
</g>
</g>
<!-- Node2&#45;&gt;Node3 -->
<g id="edge2_Node000002_Node000003" class="edge">
<title>Node2&#45;&gt;Node3</title>
<g id="a_edge2_Node000002_Node000003"><a xlink:title=" ">
<path fill="none" stroke="#63b8ff" d="M213.71,-175.87C223.62,-177.81 233.91,-179.83 243.96,-181.79"/>
<polygon fill="#63b8ff" stroke="#63b8ff" points="243.42,-185.25 253.91,-183.74 244.77,-178.38 243.42,-185.25"/>
</a>
</g>
</g>
<!-- Node8 -->
<g id="Node000008" class="node">
<title>Node8</title>
<g id="a_Node000008"><a xlink:href="namespacedetail.html#a75ed2634319883d038944529dbb954e2" target="_top" xlink:title=" ">
<polygon fill="white" stroke="#666666" points="368,-162.5 262,-162.5 262,-132.5 368,-132.5 368,-162.5"/>
<text text-anchor="start" x="270" y="-150.5" font-family="Helvetica,sans-Serif" font-size="10.00">detail::is_constant</text>
<text text-anchor="middle" x="315" y="-139.5" font-family="Helvetica,sans-Serif" font-size="10.00">_evaluated</text>
</a>
</g>
</g>
<!-- Node2&#45;&gt;Node8 -->
<g id="edge7_Node000002_Node000008" class="edge">
<title>Node2&#45;&gt;Node8</title>
<g id="a_edge7_Node000002_Node000008"><a xlink:title=" ">
<path fill="none" stroke="#63b8ff" d="M213.71,-157.31C226.14,-156.1 239.17,-154.82 251.57,-153.61"/>
<polygon fill="#63b8ff" stroke="#63b8ff" points="252.2,-157.06 261.81,-152.61 251.52,-150.1 252.2,-157.06"/>
</a>
</g>
</g>
<!-- Node4 -->
<g id="Node000004" class="node">
<title>Node4</title>
<g id="a_Node000004"><a xlink:href="namespacedetail.html#a9d0b4b56d52390d7c8a4be7baa5e2382" target="_top" xlink:title=" ">
<polygon fill="white" stroke="#666666" points="540,-242 412,-242 412,-223 540,-223 540,-242"/>
<text text-anchor="middle" x="476" y="-230" font-family="Helvetica,sans-Serif" font-size="10.00">detail::abort_fuzzing_if</text>
</a>
</g>
</g>
<!-- Node3&#45;&gt;Node4 -->
<g id="edge3_Node000003_Node000004" class="edge">
<title>Node3&#45;&gt;Node4</title>
<g id="a_edge3_Node000003_Node000004"><a xlink:title=" ">
<path fill="none" stroke="#63b8ff" d="M376.11,-209.49C391.98,-213.18 408.95,-217.13 424.27,-220.7"/>
<polygon fill="#63b8ff" stroke="#63b8ff" points="423.54,-224.12 434.07,-222.98 425.13,-217.3 423.54,-224.12"/>
</a>
</g>
</g>
<!-- Node6 -->
<g id="Node000006" class="node">
<title>Node6</title>
<g id="a_Node000006"><a xlink:href="namespacedetail.html#a208b54c1c61a9bce9df4531a657a0c64" target="_top" xlink:title=" ">
<polygon fill="white" stroke="#666666" points="520.5,-205 431.5,-205 431.5,-186 520.5,-186 520.5,-205"/>
<text text-anchor="middle" x="476" y="-193" font-family="Helvetica,sans-Serif" font-size="10.00">detail::assume</text>
</a>
</g>
</g>
<!-- Node3&#45;&gt;Node6 -->
<g id="edge5_Node000003_Node000006" class="edge">
<title>Node3&#45;&gt;Node6</title>
<g id="a_edge5_Node000003_Node000006"><a xlink:title=" ">
<path fill="none" stroke="#63b8ff" d="M376.11,-195.5C390.83,-195.5 406.49,-195.5 420.91,-195.5"/>
<polygon fill="#63b8ff" stroke="#63b8ff" points="421.16,-199 431.16,-195.5 421.16,-192 421.16,-199"/>
</a>
</g>
</g>
<!-- Node7 -->
<g id="Node000007" class="node">
<title>Node7</title>
<g id="a_Node000007"><a xlink:href="base_8h.html#a67ebc2a5b1748c4692931267cd6f89bf" target="_top" xlink:title=" ">
<polygon fill="white" stroke="#666666" points="502.5,-168 449.5,-168 449.5,-149 502.5,-149 502.5,-168"/>
<text text-anchor="middle" x="476" y="-156" font-family="Helvetica,sans-Serif" font-size="10.00">max_of</text>
</a>
</g>
</g>
<!-- Node3&#45;&gt;Node7 -->
<g id="edge6_Node000003_Node000007" class="edge">
<title>Node3&#45;&gt;Node7</title>
<g id="a_edge6_Node000003_Node000007"><a xlink:title=" ">
<path fill="none" stroke="#63b8ff" d="M376.11,-181.51C397.48,-176.54 420.84,-171.1 439.49,-166.76"/>
<polygon fill="#63b8ff" stroke="#63b8ff" points="440.37,-170.15 449.32,-164.48 438.79,-163.33 440.37,-170.15"/>
</a>
</g>
</g>
<!-- Node5 -->
<g id="Node000005" class="node">
<title>Node5</title>
<g id="a_Node000005"><a xlink:href="namespacedetail.html#a1fe84ebaf96215ce0665d95b3124c2df" target="_top" xlink:title=" ">
<polygon fill="white" stroke="#666666" points="698,-242 576,-242 576,-223 698,-223 698,-242"/>
<text text-anchor="middle" x="637" y="-230" font-family="Helvetica,sans-Serif" font-size="10.00">detail::ignore_unused</text>
</a>
</g>
</g>
<!-- Node4&#45;&gt;Node5 -->
<g id="edge4_Node000004_Node000005" class="edge">
<title>Node4&#45;&gt;Node5</title>
<g id="a_edge4_Node000004_Node000005"><a xlink:title=" ">
<path fill="none" stroke="#63b8ff" d="M540.3,-232.5C548.61,-232.5 557.17,-232.5 565.59,-232.5"/>
<polygon fill="#63b8ff" stroke="#63b8ff" points="565.77,-236 575.77,-232.5 565.77,-229 565.77,-236"/>
</a>
</g>
</g>
<!-- Node11 -->
<g id="Node000011" class="node">
<title>Node11</title>
<g id="a_Node000011"><a xlink:href="classdetail_1_1buffer.html#a91bcecc177b01b84d693028111fbd8eb" target="_top" xlink:title=" ">
<polygon fill="white" stroke="#666666" points="364,-98.5 266,-98.5 266,-68.5 364,-68.5 364,-98.5"/>
<text text-anchor="start" x="274" y="-86.5" font-family="Helvetica,sans-Serif" font-size="10.00">detail::buffer::try</text>
<text text-anchor="middle" x="315" y="-75.5" font-family="Helvetica,sans-Serif" font-size="10.00">_reserve</text>
</a>
</g>
</g>
<!-- Node10&#45;&gt;Node11 -->
<g id="edge10_Node000010_Node000011" class="edge">
<title>Node10&#45;&gt;Node11</title>
<g id="a_edge10_Node000010_Node000011"><a xlink:title=" ">
<path fill="none" stroke="#63b8ff" d="M218.42,-83.5C230.89,-83.5 243.81,-83.5 255.96,-83.5"/>
<polygon fill="#63b8ff" stroke="#63b8ff" points="255.97,-87 265.96,-83.5 255.96,-80 255.97,-87"/>
</a>
</g>
</g>
<!-- Node14 -->
<g id="Node000014" class="node">
<title>Node14</title>
<g id="a_Node000014"><a xlink:href="classlocale__ref.html#a87fbf5d1da66aad68d906cff8a02a030" target="_top" xlink:title=" ">
<polygon fill="white" stroke="#666666" points="374,-19 256,-19 256,0 374,0 374,-19"/>
<text text-anchor="middle" x="315" y="-7" font-family="Helvetica,sans-Serif" font-size="10.00">locale_ref::locale_ref</text>
</a>
</g>
</g>
<!-- Node13&#45;&gt;Node14 -->
<g id="edge13_Node000013_Node000014" class="edge">
<title>Node13&#45;&gt;Node14</title>
<g id="a_edge13_Node000013_Node000014"><a xlink:title=" ">
<path fill="none" stroke="#63b8ff" d="M201.78,-9.5C215.71,-9.5 231.01,-9.5 245.71,-9.5"/>
<polygon fill="#63b8ff" stroke="#63b8ff" points="245.77,-13 255.77,-9.5 245.77,-6 245.77,-13"/>
</a>
</g>
</g>
</g>
</svg>
