<?xml version="1.0" encoding="UTF-8" standalone="no"?>
<!DOCTYPE svg PUBLIC "-//W3C//DTD SVG 1.1//EN"
 "http://www.w3.org/Graphics/SVG/1.1/DTD/svg11.dtd">
<!-- Generated by graphviz version 2.43.0 (0)
 -->
<!-- Title: vprint Pages: 1 -->
<svg width="787pt" height="250pt"
 viewBox="0.00 0.00 787.00 250.00" xmlns="http://www.w3.org/2000/svg" xmlns:xlink="http://www.w3.org/1999/xlink">
<g id="graph0" class="graph" transform="scale(1 1) rotate(0) translate(4 246)">
<title>vprint</title>
<!-- Node1 -->
<g id="Node000001" class="node">
<title>Node1</title>
<g id="a_Node000001"><a xlink:title=" ">
<polygon fill="#999999" stroke="#666666" points="45,-93 0,-93 0,-74 45,-74 45,-93"/>
<text text-anchor="middle" x="22.5" y="-81" font-family="Helvetica,sans-Serif" font-size="10.00">vprint</text>
</a>
</g>
</g>
<!-- Node2 -->
<g id="Node000002" class="node">
<title>Node2</title>
<g id="a_Node000002"><a xlink:href="xchar_8h.html#ad59e14d924bf2fe1d17939ad9d8b8d4a" target="_top" xlink:title=" ">
<polygon fill="white" stroke="#666666" points="126,-93 81,-93 81,-74 126,-74 126,-93"/>
<text text-anchor="middle" x="103.5" y="-81" font-family="Helvetica,sans-Serif" font-size="10.00">vprint</text>
</a>
</g>
</g>
<!-- Node1&#45;&gt;Node2 -->
<g id="edge1_Node000001_Node000002" class="edge">
<title>Node1&#45;&gt;Node2</title>
<g id="a_edge1_Node000001_Node000002"><a xlink:title=" ">
<path fill="none" stroke="#63b8ff" d="M45.09,-83.5C53.01,-83.5 62.16,-83.5 70.79,-83.5"/>
<polygon fill="#63b8ff" stroke="#63b8ff" points="70.94,-87 80.94,-83.5 70.94,-80 70.94,-87"/>
</a>
</g>
</g>
<!-- Node3 -->
<g id="Node000003" class="node">
<title>Node3</title>
<g id="a_Node000003"><a xlink:href="classbasic__memory__buffer.html#a7a9300acfadb00a835b36a86a198f433" target="_top" xlink:title=" ">
<polygon fill="white" stroke="#666666" points="294.5,-178.5 166.5,-178.5 166.5,-148.5 294.5,-148.5 294.5,-178.5"/>
<text text-anchor="start" x="174.5" y="-166.5" font-family="Helvetica,sans-Serif" font-size="10.00">basic_memory_buffer</text>
<text text-anchor="middle" x="230.5" y="-155.5" font-family="Helvetica,sans-Serif" font-size="10.00">::basic_memory_buffer</text>
</a>
</g>
</g>
<!-- Node2&#45;&gt;Node3 -->
<g id="edge2_Node000002_Node000003" class="edge">
<title>Node2&#45;&gt;Node3</title>
<g id="a_edge2_Node000002_Node000003"><a xlink:title=" ">
<path fill="none" stroke="#63b8ff" d="M112.08,-93.11C122.25,-105.42 141.42,-126.68 162,-139.5 164.61,-141.12 167.34,-142.66 170.15,-144.1"/>
<polygon fill="#63b8ff" stroke="#63b8ff" points="168.79,-147.33 179.33,-148.43 171.77,-141 168.79,-147.33"/>
</a>
</g>
</g>
<!-- Node10 -->
<g id="Node000010" class="node">
<title>Node10</title>
<g id="a_Node000010"><a xlink:href="classdetail_1_1buffer.html#aeb33e0a2d2be2bbca9e0236c148089c8" target="_top" xlink:title="Returns a pointer to the buffer data (not null&#45;terminated).">
<polygon fill="white" stroke="#666666" points="284,-130 177,-130 177,-111 284,-111 284,-130"/>
<text text-anchor="middle" x="230.5" y="-118" font-family="Helvetica,sans-Serif" font-size="10.00">detail::buffer::data</text>
</a>
</g>
</g>
<!-- Node2&#45;&gt;Node10 -->
<g id="edge9_Node000002_Node000010" class="edge">
<title>Node2&#45;&gt;Node10</title>
<g id="a_edge9_Node000002_Node000010"><a xlink:title=" ">
<path fill="none" stroke="#63b8ff" d="M126.03,-90.4C136.8,-93.82 150.07,-97.95 162,-101.5 169.38,-103.69 177.24,-105.96 184.89,-108.14"/>
<polygon fill="#63b8ff" stroke="#63b8ff" points="184.18,-111.58 194.76,-110.93 186.09,-104.84 184.18,-111.58"/>
</a>
</g>
</g>
<!-- Node11 -->
<g id="Node000011" class="node">
<title>Node11</title>
<g id="a_Node000011"><a xlink:href="classdetail_1_1buffer.html#a49016d0c600f79917e00d9e3458c8c92" target="_top" xlink:title=" ">
<polygon fill="white" stroke="#666666" points="299,-93 162,-93 162,-74 299,-74 299,-93"/>
<text text-anchor="middle" x="230.5" y="-81" font-family="Helvetica,sans-Serif" font-size="10.00">detail::buffer::push_back</text>
</a>
</g>
</g>
<!-- Node2&#45;&gt;Node11 -->
<g id="edge10_Node000002_Node000011" class="edge">
<title>Node2&#45;&gt;Node11</title>
<g id="a_edge10_Node000002_Node000011"><a xlink:title=" ">
<path fill="none" stroke="#63b8ff" d="M126.27,-83.5C133.67,-83.5 142.42,-83.5 151.64,-83.5"/>
<polygon fill="#63b8ff" stroke="#63b8ff" points="151.79,-87 161.79,-83.5 151.79,-80 151.79,-87"/>
</a>
</g>
</g>
<!-- Node13 -->
<g id="Node000013" class="node">
<title>Node13</title>
<g id="a_Node000013"><a xlink:href="format_8h.html#a0558467fc6b6aa30ea74d60aafdf7821" target="_top" xlink:title=" ">
<polygon fill="white" stroke="#666666" points="271,-56 190,-56 190,-37 271,-37 271,-56"/>
<text text-anchor="middle" x="230.5" y="-44" font-family="Helvetica,sans-Serif" font-size="10.00">system_error</text>
</a>
</g>
</g>
<!-- Node2&#45;&gt;Node13 -->
<g id="edge12_Node000002_Node000013" class="edge">
<title>Node2&#45;&gt;Node13</title>
<g id="a_edge12_Node000002_Node000013"><a xlink:title=" ">
<path fill="none" stroke="#63b8ff" d="M126.25,-75.98C136.97,-72.36 150.11,-68.05 162,-64.5 168.56,-62.54 175.51,-60.57 182.35,-58.69"/>
<polygon fill="#63b8ff" stroke="#63b8ff" points="183.52,-62.01 192.25,-56.01 181.69,-55.25 183.52,-62.01"/>
</a>
</g>
</g>
<!-- Node14 -->
<g id="Node000014" class="node">
<title>Node14</title>
<g id="a_Node000014"><a xlink:href="namespacedetail.html#a41fb5bb9af5723fb3f88a9c454e27e87" target="_top" xlink:title=" ">
<polygon fill="white" stroke="#666666" points="282.5,-19 178.5,-19 178.5,0 282.5,0 282.5,-19"/>
<text text-anchor="middle" x="230.5" y="-7" font-family="Helvetica,sans-Serif" font-size="10.00">detail::vformat_to</text>
</a>
</g>
</g>
<!-- Node2&#45;&gt;Node14 -->
<g id="edge13_Node000002_Node000014" class="edge">
<title>Node2&#45;&gt;Node14</title>
<g id="a_edge13_Node000002_Node000014"><a xlink:title=" ">
<path fill="none" stroke="#63b8ff" d="M111.93,-73.63C121.93,-61.04 140.92,-39.47 162,-27.5 165.19,-25.69 168.58,-24.05 172.06,-22.57"/>
<polygon fill="#63b8ff" stroke="#63b8ff" points="173.33,-25.84 181.45,-19.03 170.86,-19.29 173.33,-25.84"/>
</a>
</g>
</g>
<!-- Node4 -->
<g id="Node000004" class="node">
<title>Node4</title>
<g id="a_Node000004"><a xlink:href="classbasic__memory__buffer.html#a97d9a0a0f9827c9277e2eea97fa0309b" target="_top" xlink:title=" ">
<polygon fill="white" stroke="#666666" points="457,-210.5 335,-210.5 335,-180.5 457,-180.5 457,-210.5"/>
<text text-anchor="start" x="343" y="-198.5" font-family="Helvetica,sans-Serif" font-size="10.00">basic_memory_buffer</text>
<text text-anchor="middle" x="396" y="-187.5" font-family="Helvetica,sans-Serif" font-size="10.00">::grow</text>
</a>
</g>
</g>
<!-- Node3&#45;&gt;Node4 -->
<g id="edge3_Node000003_Node000004" class="edge">
<title>Node3&#45;&gt;Node4</title>
<g id="a_edge3_Node000003_Node000004"><a xlink:title=" ">
<path fill="none" stroke="#63b8ff" d="M294.71,-175.87C304.62,-177.81 314.91,-179.83 324.96,-181.79"/>
<polygon fill="#63b8ff" stroke="#63b8ff" points="324.42,-185.25 334.91,-183.74 325.77,-178.38 324.42,-185.25"/>
</a>
</g>
</g>
<!-- Node9 -->
<g id="Node000009" class="node">
<title>Node9</title>
<g id="a_Node000009"><a xlink:href="namespacedetail.html#a75ed2634319883d038944529dbb954e2" target="_top" xlink:title=" ">
<polygon fill="white" stroke="#666666" points="449,-162.5 343,-162.5 343,-132.5 449,-132.5 449,-162.5"/>
<text text-anchor="start" x="351" y="-150.5" font-family="Helvetica,sans-Serif" font-size="10.00">detail::is_constant</text>
<text text-anchor="middle" x="396" y="-139.5" font-family="Helvetica,sans-Serif" font-size="10.00">_evaluated</text>
</a>
</g>
</g>
<!-- Node3&#45;&gt;Node9 -->
<g id="edge8_Node000003_Node000009" class="edge">
<title>Node3&#45;&gt;Node9</title>
<g id="a_edge8_Node000003_Node000009"><a xlink:title=" ">
<path fill="none" stroke="#63b8ff" d="M294.71,-157.31C307.14,-156.1 320.17,-154.82 332.57,-153.61"/>
<polygon fill="#63b8ff" stroke="#63b8ff" points="333.2,-157.06 342.81,-152.61 332.52,-150.1 333.2,-157.06"/>
</a>
</g>
</g>
<!-- Node5 -->
<g id="Node000005" class="node">
<title>Node5</title>
<g id="a_Node000005"><a xlink:href="namespacedetail.html#a9d0b4b56d52390d7c8a4be7baa5e2382" target="_top" xlink:title=" ">
<polygon fill="white" stroke="#666666" points="621,-242 493,-242 493,-223 621,-223 621,-242"/>
<text text-anchor="middle" x="557" y="-230" font-family="Helvetica,sans-Serif" font-size="10.00">detail::abort_fuzzing_if</text>
</a>
</g>
</g>
<!-- Node4&#45;&gt;Node5 -->
<g id="edge4_Node000004_Node000005" class="edge">
<title>Node4&#45;&gt;Node5</title>
<g id="a_edge4_Node000004_Node000005"><a xlink:title=" ">
<path fill="none" stroke="#63b8ff" d="M457.11,-209.49C472.98,-213.18 489.95,-217.13 505.27,-220.7"/>
<polygon fill="#63b8ff" stroke="#63b8ff" points="504.54,-224.12 515.07,-222.98 506.13,-217.3 504.54,-224.12"/>
</a>
</g>
</g>
<!-- Node7 -->
<g id="Node000007" class="node">
<title>Node7</title>
<g id="a_Node000007"><a xlink:href="namespacedetail.html#a208b54c1c61a9bce9df4531a657a0c64" target="_top" xlink:title=" ">
<polygon fill="white" stroke="#666666" points="601.5,-205 512.5,-205 512.5,-186 601.5,-186 601.5,-205"/>
<text text-anchor="middle" x="557" y="-193" font-family="Helvetica,sans-Serif" font-size="10.00">detail::assume</text>
</a>
</g>
</g>
<!-- Node4&#45;&gt;Node7 -->
<g id="edge6_Node000004_Node000007" class="edge">
<title>Node4&#45;&gt;Node7</title>
<g id="a_edge6_Node000004_Node000007"><a xlink:title=" ">
<path fill="none" stroke="#63b8ff" d="M457.11,-195.5C471.83,-195.5 487.49,-195.5 501.91,-195.5"/>
<polygon fill="#63b8ff" stroke="#63b8ff" points="502.16,-199 512.16,-195.5 502.16,-192 502.16,-199"/>
</a>
</g>
</g>
<!-- Node8 -->
<g id="Node000008" class="node">
<title>Node8</title>
<g id="a_Node000008"><a xlink:href="base_8h.html#a67ebc2a5b1748c4692931267cd6f89bf" target="_top" xlink:title=" ">
<polygon fill="white" stroke="#666666" points="583.5,-168 530.5,-168 530.5,-149 583.5,-149 583.5,-168"/>
<text text-anchor="middle" x="557" y="-156" font-family="Helvetica,sans-Serif" font-size="10.00">max_of</text>
</a>
</g>
</g>
<!-- Node4&#45;&gt;Node8 -->
<g id="edge7_Node000004_Node000008" class="edge">
<title>Node4&#45;&gt;Node8</title>
<g id="a_edge7_Node000004_Node000008"><a xlink:title=" ">
<path fill="none" stroke="#63b8ff" d="M457.11,-181.51C478.48,-176.54 501.84,-171.1 520.49,-166.76"/>
<polygon fill="#63b8ff" stroke="#63b8ff" points="521.37,-170.15 530.32,-164.48 519.79,-163.33 521.37,-170.15"/>
</a>
</g>
</g>
<!-- Node6 -->
<g id="Node000006" class="node">
<title>Node6</title>
<g id="a_Node000006"><a xlink:href="namespacedetail.html#a1fe84ebaf96215ce0665d95b3124c2df" target="_top" xlink:title=" ">
<polygon fill="white" stroke="#666666" points="779,-242 657,-242 657,-223 779,-223 779,-242"/>
<text text-anchor="middle" x="718" y="-230" font-family="Helvetica,sans-Serif" font-size="10.00">detail::ignore_unused</text>
</a>
</g>
</g>
<!-- Node5&#45;&gt;Node6 -->
<g id="edge5_Node000005_Node000006" class="edge">
<title>Node5&#45;&gt;Node6</title>
<g id="a_edge5_Node000005_Node000006"><a xlink:title=" ">
<path fill="none" stroke="#63b8ff" d="M621.3,-232.5C629.61,-232.5 638.17,-232.5 646.59,-232.5"/>
<polygon fill="#63b8ff" stroke="#63b8ff" points="646.77,-236 656.77,-232.5 646.77,-229 646.77,-236"/>
</a>
</g>
</g>
<!-- Node12 -->
<g id="Node000012" class="node">
<title>Node12</title>
<g id="a_Node000012"><a xlink:href="classdetail_1_1buffer.html#a91bcecc177b01b84d693028111fbd8eb" target="_top" xlink:title=" ">
<polygon fill="white" stroke="#666666" points="445,-98.5 347,-98.5 347,-68.5 445,-68.5 445,-98.5"/>
<text text-anchor="start" x="355" y="-86.5" font-family="Helvetica,sans-Serif" font-size="10.00">detail::buffer::try</text>
<text text-anchor="middle" x="396" y="-75.5" font-family="Helvetica,sans-Serif" font-size="10.00">_reserve</text>
</a>
</g>
</g>
<!-- Node11&#45;&gt;Node12 -->
<g id="edge11_Node000011_Node000012" class="edge">
<title>Node11&#45;&gt;Node12</title>
<g id="a_edge11_Node000011_Node000012"><a xlink:title=" ">
<path fill="none" stroke="#63b8ff" d="M299.42,-83.5C311.89,-83.5 324.81,-83.5 336.96,-83.5"/>
<polygon fill="#63b8ff" stroke="#63b8ff" points="336.97,-87 346.96,-83.5 336.96,-80 336.97,-87"/>
</a>
</g>
</g>
<!-- Node15 -->
<g id="Node000015" class="node">
<title>Node15</title>
<g id="a_Node000015"><a xlink:href="classlocale__ref.html#a87fbf5d1da66aad68d906cff8a02a030" target="_top" xlink:title=" ">
<polygon fill="white" stroke="#666666" points="455,-19 337,-19 337,0 455,0 455,-19"/>
<text text-anchor="middle" x="396" y="-7" font-family="Helvetica,sans-Serif" font-size="10.00">locale_ref::locale_ref</text>
</a>
</g>
</g>
<!-- Node14&#45;&gt;Node15 -->
<g id="edge14_Node000014_Node000015" class="edge">
<title>Node14&#45;&gt;Node15</title>
<g id="a_edge14_Node000014_Node000015"><a xlink:title=" ">
<path fill="none" stroke="#63b8ff" d="M282.78,-9.5C296.71,-9.5 312.01,-9.5 326.71,-9.5"/>
<polygon fill="#63b8ff" stroke="#63b8ff" points="326.77,-13 336.77,-9.5 326.77,-6 326.77,-13"/>
</a>
</g>
</g>
</g>
</svg>
