<?xml version="1.0" encoding="UTF-8" standalone="no"?>
<!DOCTYPE svg PUBLIC "-//W3C//DTD SVG 1.1//EN"
 "http://www.w3.org/Graphics/SVG/1.1/DTD/svg11.dtd">
<!-- Generated by graphviz version 2.43.0 (0)
 -->
<!-- Title: vformat Pages: 1 -->
<svg width="758pt" height="420pt"
 viewBox="0.00 0.00 758.00 420.00" xmlns="http://www.w3.org/2000/svg" xmlns:xlink="http://www.w3.org/1999/xlink">
<g id="graph0" class="graph" transform="scale(1 1) rotate(0) translate(4 416)">
<title>vformat</title>
<!-- Node1 -->
<g id="Node000001" class="node">
<title>Node1</title>
<g id="a_Node000001"><a xlink:title=" ">
<polygon fill="#999999" stroke="#666666" points="56,-245 0,-245 0,-226 56,-226 56,-245"/>
<text text-anchor="middle" x="28" y="-233" font-family="Helvetica,sans-Serif" font-size="10.00">vformat</text>
</a>
</g>
</g>
<!-- Node2 -->
<g id="Node000002" class="node">
<title>Node2</title>
<g id="a_Node000002"><a xlink:href="classbasic__memory__buffer.html#a7a9300acfadb00a835b36a86a198f433" target="_top" xlink:title=" ">
<polygon fill="white" stroke="#666666" points="220,-332.5 92,-332.5 92,-302.5 220,-302.5 220,-332.5"/>
<text text-anchor="start" x="100" y="-320.5" font-family="Helvetica,sans-Serif" font-size="10.00">basic_memory_buffer</text>
<text text-anchor="middle" x="156" y="-309.5" font-family="Helvetica,sans-Serif" font-size="10.00">::basic_memory_buffer</text>
</a>
</g>
</g>
<!-- Node1&#45;&gt;Node2 -->
<g id="edge1_Node000001_Node000002" class="edge">
<title>Node1&#45;&gt;Node2</title>
<g id="a_edge1_Node000001_Node000002"><a xlink:title=" ">
<path fill="none" stroke="#63b8ff" d="M43.95,-245.23C63.31,-257.83 97.57,-280.13 122.94,-296.63"/>
<polygon fill="#63b8ff" stroke="#63b8ff" points="121.21,-299.68 131.5,-302.21 125.03,-293.82 121.21,-299.68"/>
</a>
</g>
</g>
<!-- Node9 -->
<g id="Node000009" class="node">
<title>Node9</title>
<g id="a_Node000009"><a xlink:href="classdetail_1_1buffer.html#aeb33e0a2d2be2bbca9e0236c148089c8" target="_top" xlink:title="Returns a pointer to the buffer data (not null&#45;terminated).">
<polygon fill="white" stroke="#666666" points="209.5,-264 102.5,-264 102.5,-245 209.5,-245 209.5,-264"/>
<text text-anchor="middle" x="156" y="-252" font-family="Helvetica,sans-Serif" font-size="10.00">detail::buffer::data</text>
</a>
</g>
</g>
<!-- Node1&#45;&gt;Node9 -->
<g id="edge8_Node000001_Node000009" class="edge">
<title>Node1&#45;&gt;Node9</title>
<g id="a_edge8_Node000001_Node000009"><a xlink:title=" ">
<path fill="none" stroke="#63b8ff" d="M56.03,-239.58C66.7,-241.18 79.44,-243.11 92.17,-245.03"/>
<polygon fill="#63b8ff" stroke="#63b8ff" points="91.93,-248.53 102.34,-246.56 92.97,-241.61 91.93,-248.53"/>
</a>
</g>
</g>
<!-- Node10 -->
<g id="Node000010" class="node">
<title>Node10</title>
<g id="a_Node000010"><a xlink:href="classdetail_1_1buffer.html#a8685285932360c284d19003fc4ba3edc" target="_top" xlink:title="Returns the size of this buffer.">
<polygon fill="white" stroke="#666666" points="208,-227 104,-227 104,-208 208,-208 208,-227"/>
<text text-anchor="middle" x="156" y="-215" font-family="Helvetica,sans-Serif" font-size="10.00">detail::buffer::size</text>
</a>
</g>
</g>
<!-- Node1&#45;&gt;Node10 -->
<g id="edge9_Node000001_Node000010" class="edge">
<title>Node1&#45;&gt;Node10</title>
<g id="a_edge9_Node000001_Node000010"><a xlink:title=" ">
<path fill="none" stroke="#63b8ff" d="M56.03,-231.64C67.15,-230.05 80.52,-228.14 93.79,-226.24"/>
<polygon fill="#63b8ff" stroke="#63b8ff" points="94.46,-229.68 103.87,-224.8 93.47,-222.75 94.46,-229.68"/>
</a>
</g>
</g>
<!-- Node11 -->
<g id="Node000011" class="node">
<title>Node11</title>
<g id="a_Node000011"><a xlink:href="namespacedetail.html#aa48f1dbc6e2079815bf8ca82d81abe8e" target="_top" xlink:title=" ">
<polygon fill="white" stroke="#666666" points="208,-170 104,-170 104,-151 208,-151 208,-170"/>
<text text-anchor="middle" x="156" y="-158" font-family="Helvetica,sans-Serif" font-size="10.00">detail::vformat_to</text>
</a>
</g>
</g>
<!-- Node1&#45;&gt;Node11 -->
<g id="edge10_Node000001_Node000011" class="edge">
<title>Node1&#45;&gt;Node11</title>
<g id="a_edge10_Node000001_Node000011"><a xlink:title=" ">
<path fill="none" stroke="#63b8ff" d="M45.21,-225.85C66.76,-213.02 105.04,-190.24 130.22,-175.25"/>
<polygon fill="#63b8ff" stroke="#63b8ff" points="132.05,-178.24 138.85,-170.11 128.46,-172.22 132.05,-178.24"/>
</a>
</g>
</g>
<!-- Node3 -->
<g id="Node000003" class="node">
<title>Node3</title>
<g id="a_Node000003"><a xlink:href="classbasic__memory__buffer.html#a97d9a0a0f9827c9277e2eea97fa0309b" target="_top" xlink:title=" ">
<polygon fill="white" stroke="#666666" points="391.5,-380.5 269.5,-380.5 269.5,-350.5 391.5,-350.5 391.5,-380.5"/>
<text text-anchor="start" x="277.5" y="-368.5" font-family="Helvetica,sans-Serif" font-size="10.00">basic_memory_buffer</text>
<text text-anchor="middle" x="330.5" y="-357.5" font-family="Helvetica,sans-Serif" font-size="10.00">::grow</text>
</a>
</g>
</g>
<!-- Node2&#45;&gt;Node3 -->
<g id="edge2_Node000002_Node000003" class="edge">
<title>Node2&#45;&gt;Node3</title>
<g id="a_edge2_Node000002_Node000003"><a xlink:title=" ">
<path fill="none" stroke="#63b8ff" d="M211.11,-332.56C228.45,-337.38 247.81,-342.77 265.77,-347.77"/>
<polygon fill="#63b8ff" stroke="#63b8ff" points="265.01,-351.19 275.59,-350.5 266.89,-344.44 265.01,-351.19"/>
</a>
</g>
</g>
<!-- Node8 -->
<g id="Node000008" class="node">
<title>Node8</title>
<g id="a_Node000008"><a xlink:href="namespacedetail.html#a75ed2634319883d038944529dbb954e2" target="_top" xlink:title=" ">
<polygon fill="white" stroke="#666666" points="383.5,-332.5 277.5,-332.5 277.5,-302.5 383.5,-302.5 383.5,-332.5"/>
<text text-anchor="start" x="285.5" y="-320.5" font-family="Helvetica,sans-Serif" font-size="10.00">detail::is_constant</text>
<text text-anchor="middle" x="330.5" y="-309.5" font-family="Helvetica,sans-Serif" font-size="10.00">_evaluated</text>
</a>
</g>
</g>
<!-- Node2&#45;&gt;Node8 -->
<g id="edge7_Node000002_Node000008" class="edge">
<title>Node2&#45;&gt;Node8</title>
<g id="a_edge7_Node000002_Node000008"><a xlink:title=" ">
<path fill="none" stroke="#63b8ff" d="M220.25,-317.5C235.49,-317.5 251.75,-317.5 266.96,-317.5"/>
<polygon fill="#63b8ff" stroke="#63b8ff" points="267.29,-321 277.29,-317.5 267.29,-314 267.29,-321"/>
</a>
</g>
</g>
<!-- Node4 -->
<g id="Node000004" class="node">
<title>Node4</title>
<g id="a_Node000004"><a xlink:href="namespacedetail.html#a9d0b4b56d52390d7c8a4be7baa5e2382" target="_top" xlink:title=" ">
<polygon fill="white" stroke="#666666" points="580.5,-412 452.5,-412 452.5,-393 580.5,-393 580.5,-412"/>
<text text-anchor="middle" x="516.5" y="-400" font-family="Helvetica,sans-Serif" font-size="10.00">detail::abort_fuzzing_if</text>
</a>
</g>
</g>
<!-- Node3&#45;&gt;Node4 -->
<g id="edge3_Node000003_Node000004" class="edge">
<title>Node3&#45;&gt;Node4</title>
<g id="a_edge3_Node000003_Node000004"><a xlink:title=" ">
<path fill="none" stroke="#63b8ff" d="M391.75,-377.62C413.19,-381.93 437.26,-386.77 458.43,-391.02"/>
<polygon fill="#63b8ff" stroke="#63b8ff" points="457.75,-394.46 468.25,-393 459.13,-387.6 457.75,-394.46"/>
</a>
</g>
</g>
<!-- Node6 -->
<g id="Node000006" class="node">
<title>Node6</title>
<g id="a_Node000006"><a xlink:href="namespacedetail.html#a208b54c1c61a9bce9df4531a657a0c64" target="_top" xlink:title=" ">
<polygon fill="white" stroke="#666666" points="561,-375 472,-375 472,-356 561,-356 561,-375"/>
<text text-anchor="middle" x="516.5" y="-363" font-family="Helvetica,sans-Serif" font-size="10.00">detail::assume</text>
</a>
</g>
</g>
<!-- Node3&#45;&gt;Node6 -->
<g id="edge5_Node000003_Node000006" class="edge">
<title>Node3&#45;&gt;Node6</title>
<g id="a_edge5_Node000003_Node000006"><a xlink:title=" ">
<path fill="none" stroke="#63b8ff" d="M391.75,-365.5C414.28,-365.5 439.7,-365.5 461.62,-365.5"/>
<polygon fill="#63b8ff" stroke="#63b8ff" points="461.75,-369 471.75,-365.5 461.75,-362 461.75,-369"/>
</a>
</g>
</g>
<!-- Node7 -->
<g id="Node000007" class="node">
<title>Node7</title>
<g id="a_Node000007"><a xlink:href="base_8h.html#a67ebc2a5b1748c4692931267cd6f89bf" target="_top" xlink:title=" ">
<polygon fill="white" stroke="#666666" points="543,-338 490,-338 490,-319 543,-319 543,-338"/>
<text text-anchor="middle" x="516.5" y="-326" font-family="Helvetica,sans-Serif" font-size="10.00">max_of</text>
</a>
</g>
</g>
<!-- Node3&#45;&gt;Node7 -->
<g id="edge6_Node000003_Node000007" class="edge">
<title>Node3&#45;&gt;Node7</title>
<g id="a_edge6_Node000003_Node000007"><a xlink:title=" ">
<path fill="none" stroke="#63b8ff" d="M391.75,-353.38C420.73,-347.56 454.5,-340.77 479.43,-335.75"/>
<polygon fill="#63b8ff" stroke="#63b8ff" points="480.43,-339.12 489.54,-333.72 479.05,-332.26 480.43,-339.12"/>
</a>
</g>
</g>
<!-- Node5 -->
<g id="Node000005" class="node">
<title>Node5</title>
<g id="a_Node000005"><a xlink:href="namespacedetail.html#a1fe84ebaf96215ce0665d95b3124c2df" target="_top" xlink:title=" ">
<polygon fill="white" stroke="#666666" points="750,-412 628,-412 628,-393 750,-393 750,-412"/>
<text text-anchor="middle" x="689" y="-400" font-family="Helvetica,sans-Serif" font-size="10.00">detail::ignore_unused</text>
</a>
</g>
</g>
<!-- Node4&#45;&gt;Node5 -->
<g id="edge4_Node000004_Node000005" class="edge">
<title>Node4&#45;&gt;Node5</title>
<g id="a_edge4_Node000004_Node000005"><a xlink:title=" ">
<path fill="none" stroke="#63b8ff" d="M580.5,-402.5C592.58,-402.5 605.3,-402.5 617.6,-402.5"/>
<polygon fill="#63b8ff" stroke="#63b8ff" points="617.8,-406 627.8,-402.5 617.8,-399 617.8,-406"/>
</a>
</g>
</g>
<!-- Node12 -->
<g id="Node000012" class="node">
<title>Node12</title>
<g id="a_Node000012"><a xlink:href="classtext__style.html#af76917d3bb69bc710dd92da079222a5b" target="_top" xlink:title=" ">
<polygon fill="white" stroke="#666666" points="405,-284 256,-284 256,-265 405,-265 405,-284"/>
<text text-anchor="middle" x="330.5" y="-272" font-family="Helvetica,sans-Serif" font-size="10.00">text_style::get_background</text>
</a>
</g>
</g>
<!-- Node11&#45;&gt;Node12 -->
<g id="edge11_Node000011_Node000012" class="edge">
<title>Node11&#45;&gt;Node12</title>
<g id="a_edge11_Node000011_Node000012"><a xlink:title=" ">
<path fill="none" stroke="#63b8ff" d="M176.87,-170.12C190.03,-177.1 207.17,-187.42 220,-199.5 240.2,-218.52 233.68,-234.02 256,-250.5 261.87,-254.83 268.55,-258.4 275.44,-261.34"/>
<polygon fill="#63b8ff" stroke="#63b8ff" points="274.32,-264.66 284.91,-264.98 276.83,-258.13 274.32,-264.66"/>
</a>
</g>
</g>
<!-- Node13 -->
<g id="Node000013" class="node">
<title>Node13</title>
<g id="a_Node000013"><a xlink:href="classtext__style.html#a37356f14e6337463dbe1fc03c90c57c6" target="_top" xlink:title=" ">
<polygon fill="white" stroke="#666666" points="592,-265 441,-265 441,-246 592,-246 592,-265"/>
<text text-anchor="middle" x="516.5" y="-253" font-family="Helvetica,sans-Serif" font-size="10.00">text_style::has_background</text>
</a>
</g>
</g>
<!-- Node11&#45;&gt;Node13 -->
<g id="edge17_Node000011_Node000013" class="edge">
<title>Node11&#45;&gt;Node13</title>
<g id="a_edge17_Node000011_Node000013"><a xlink:title=" ">
<path fill="none" stroke="#63b8ff" d="M172,-170.07C195.16,-184.69 238.76,-211.52 256,-217.5 312.36,-237.05 379,-246.54 430.64,-251.15"/>
<polygon fill="#63b8ff" stroke="#63b8ff" points="430.5,-254.65 440.76,-252.01 431.09,-247.68 430.5,-254.65"/>
</a>
</g>
</g>
<!-- Node14 -->
<g id="Node000014" class="node">
<title>Node14</title>
<g id="a_Node000014"><a xlink:href="classtext__style.html#a3e2d1c622ff4c3a1855ac09214a21506" target="_top" xlink:title=" ">
<polygon fill="white" stroke="#666666" points="400.5,-208 260.5,-208 260.5,-189 400.5,-189 400.5,-208"/>
<text text-anchor="middle" x="330.5" y="-196" font-family="Helvetica,sans-Serif" font-size="10.00">text_style::get_emphasis</text>
</a>
</g>
</g>
<!-- Node11&#45;&gt;Node14 -->
<g id="edge13_Node000011_Node000014" class="edge">
<title>Node11&#45;&gt;Node14</title>
<g id="a_edge13_Node000011_Node000014"><a xlink:title=" ">
<path fill="none" stroke="#63b8ff" d="M200.53,-170.09C223.6,-175.17 252.13,-181.46 276.48,-186.82"/>
<polygon fill="#63b8ff" stroke="#63b8ff" points="275.77,-190.25 286.28,-188.98 277.27,-183.41 275.77,-190.25"/>
</a>
</g>
</g>
<!-- Node15 -->
<g id="Node000015" class="node">
<title>Node15</title>
<g id="a_Node000015"><a xlink:href="classtext__style.html#abb81f43acce098a9bedef0113b84f20a" target="_top" xlink:title=" ">
<polygon fill="white" stroke="#666666" points="587,-189 446,-189 446,-170 587,-170 587,-189"/>
<text text-anchor="middle" x="516.5" y="-177" font-family="Helvetica,sans-Serif" font-size="10.00">text_style::has_emphasis</text>
</a>
</g>
</g>
<!-- Node11&#45;&gt;Node15 -->
<g id="edge18_Node000011_Node000015" class="edge">
<title>Node11&#45;&gt;Node15</title>
<g id="a_edge18_Node000011_Node000015"><a xlink:title=" ">
<path fill="none" stroke="#63b8ff" d="M208.36,-163.22C267.78,-166.37 366.33,-171.59 435.74,-175.27"/>
<polygon fill="#63b8ff" stroke="#63b8ff" points="435.59,-178.77 445.76,-175.8 435.96,-171.78 435.59,-178.77"/>
</a>
</g>
</g>
<!-- Node16 -->
<g id="Node000016" class="node">
<title>Node16</title>
<g id="a_Node000016"><a xlink:href="classtext__style.html#aa60e11871525f3f612ce1f6ed5a30477" target="_top" xlink:title=" ">
<polygon fill="white" stroke="#666666" points="403.5,-132 257.5,-132 257.5,-113 403.5,-113 403.5,-132"/>
<text text-anchor="middle" x="330.5" y="-120" font-family="Helvetica,sans-Serif" font-size="10.00">text_style::get_foreground</text>
</a>
</g>
</g>
<!-- Node11&#45;&gt;Node16 -->
<g id="edge15_Node000011_Node000016" class="edge">
<title>Node11&#45;&gt;Node16</title>
<g id="a_edge15_Node000011_Node000016"><a xlink:title=" ">
<path fill="none" stroke="#63b8ff" d="M200.53,-150.91C223.6,-145.83 252.13,-139.54 276.48,-134.18"/>
<polygon fill="#63b8ff" stroke="#63b8ff" points="277.27,-137.59 286.28,-132.02 275.77,-130.75 277.27,-137.59"/>
</a>
</g>
</g>
<!-- Node17 -->
<g id="Node000017" class="node">
<title>Node17</title>
<g id="a_Node000017"><a xlink:href="classtext__style.html#a8d91da8a0cb73c09af5f8fd521e39bce" target="_top" xlink:title=" ">
<polygon fill="white" stroke="#666666" points="590,-113 443,-113 443,-94 590,-94 590,-113"/>
<text text-anchor="middle" x="516.5" y="-101" font-family="Helvetica,sans-Serif" font-size="10.00">text_style::has_foreground</text>
</a>
</g>
</g>
<!-- Node11&#45;&gt;Node17 -->
<g id="edge19_Node000011_Node000017" class="edge">
<title>Node11&#45;&gt;Node17</title>
<g id="a_edge19_Node000011_Node000017"><a xlink:title=" ">
<path fill="none" stroke="#63b8ff" d="M169.21,-150.81C187.05,-137.33 221.84,-113.56 256,-104.5 313.66,-89.2 381.11,-89.46 432.78,-93.28"/>
<polygon fill="#63b8ff" stroke="#63b8ff" points="432.65,-96.78 442.9,-94.09 433.21,-89.8 432.65,-96.78"/>
</a>
</g>
</g>
<!-- Node18 -->
<g id="Node000018" class="node">
<title>Node18</title>
<g id="a_Node000018"><a xlink:href="classtext__style.html#a82e716be2bc7584ec2f7e4f0252f6570" target="_top" xlink:title=" ">
<polygon fill="white" stroke="#666666" points="393,-56 268,-56 268,-37 393,-37 393,-56"/>
<text text-anchor="middle" x="330.5" y="-44" font-family="Helvetica,sans-Serif" font-size="10.00">text_style::operator!=</text>
</a>
</g>
</g>
<!-- Node11&#45;&gt;Node18 -->
<g id="edge20_Node000011_Node000018" class="edge">
<title>Node11&#45;&gt;Node18</title>
<g id="a_edge20_Node000011_Node000018"><a xlink:title=" ">
<path fill="none" stroke="#63b8ff" d="M164.99,-150.93C180.66,-132.75 217.25,-93.04 256,-70.5 263.59,-66.09 272.1,-62.36 280.56,-59.26"/>
<polygon fill="#63b8ff" stroke="#63b8ff" points="281.71,-62.57 290.04,-56.03 279.44,-55.94 281.71,-62.57"/>
</a>
</g>
</g>
<!-- Node20 -->
<g id="Node000020" class="node">
<title>Node20</title>
<g id="a_Node000020"><a xlink:href="classtext__style.html#a5600bdfe6916b735a206cb8477b1a7ac" target="_top" xlink:title=" ">
<polygon fill="white" stroke="#666666" points="390.5,-19 270.5,-19 270.5,0 390.5,0 390.5,-19"/>
<text text-anchor="middle" x="330.5" y="-7" font-family="Helvetica,sans-Serif" font-size="10.00">text_style::text_style</text>
</a>
</g>
</g>
<!-- Node11&#45;&gt;Node20 -->
<g id="edge22_Node000011_Node000020" class="edge">
<title>Node11&#45;&gt;Node20</title>
<g id="a_edge22_Node000011_Node000020"><a xlink:title=" ">
<path fill="none" stroke="#63b8ff" d="M161.37,-150.65C172.92,-125.78 206.82,-60.11 256,-27.5 258.41,-25.9 260.95,-24.44 263.58,-23.11"/>
<polygon fill="#63b8ff" stroke="#63b8ff" points="265.05,-26.29 272.81,-19.08 262.25,-19.88 265.05,-26.29"/>
</a>
</g>
</g>
<!-- Node12&#45;&gt;Node13 -->
<g id="edge12_Node000012_Node000013" class="edge">
<title>Node12&#45;&gt;Node13</title>
<g id="a_edge12_Node000012_Node000013"><a xlink:title=" ">
<path fill="none" stroke="#63b8ff" d="M405.01,-266.91C413.5,-266.03 422.21,-265.13 430.84,-264.24"/>
<polygon fill="#63b8ff" stroke="#63b8ff" points="431.31,-267.71 440.9,-263.2 430.59,-260.75 431.31,-267.71"/>
</a>
</g>
</g>
<!-- Node14&#45;&gt;Node15 -->
<g id="edge14_Node000014_Node000015" class="edge">
<title>Node14&#45;&gt;Node15</title>
<g id="a_edge14_Node000014_Node000015"><a xlink:title=" ">
<path fill="none" stroke="#63b8ff" d="M400.54,-191.37C411.97,-190.19 423.92,-188.96 435.59,-187.75"/>
<polygon fill="#63b8ff" stroke="#63b8ff" points="436.18,-191.21 445.77,-186.7 435.46,-184.25 436.18,-191.21"/>
</a>
</g>
</g>
<!-- Node16&#45;&gt;Node17 -->
<g id="edge16_Node000016_Node000017" class="edge">
<title>Node16&#45;&gt;Node17</title>
<g id="a_edge16_Node000016_Node000017"><a xlink:title=" ">
<path fill="none" stroke="#63b8ff" d="M403.69,-115.05C413.26,-114.06 423.12,-113.04 432.85,-112.03"/>
<polygon fill="#63b8ff" stroke="#63b8ff" points="433.32,-115.5 442.91,-111 432.6,-108.54 433.32,-115.5"/>
</a>
</g>
</g>
<!-- Node19 -->
<g id="Node000019" class="node">
<title>Node19</title>
<g id="a_Node000019"><a xlink:href="classtext__style.html#afb24b984961acae797dcbd8d27bae7ee" target="_top" xlink:title=" ">
<polygon fill="white" stroke="#666666" points="581,-56 452,-56 452,-37 581,-37 581,-56"/>
<text text-anchor="middle" x="516.5" y="-44" font-family="Helvetica,sans-Serif" font-size="10.00">text_style::operator==</text>
</a>
</g>
</g>
<!-- Node18&#45;&gt;Node19 -->
<g id="edge21_Node000018_Node000019" class="edge">
<title>Node18&#45;&gt;Node19</title>
<g id="a_edge21_Node000018_Node000019"><a xlink:title=" ">
<path fill="none" stroke="#63b8ff" d="M393.03,-46.5C408.54,-46.5 425.35,-46.5 441.41,-46.5"/>
<polygon fill="#63b8ff" stroke="#63b8ff" points="441.83,-50 451.83,-46.5 441.83,-43 441.83,-50"/>
</a>
</g>
</g>
</g>
</svg>
